<?xml version="1.0" encoding="UTF-8" standalone="no"?>
<!DOCTYPE svg PUBLIC "-//W3C//DTD SVG 1.1//EN"
 "http://www.w3.org/Graphics/SVG/1.1/DTD/svg11.dtd">
<!-- Generated by graphviz version 2.43.0 (0)
 -->
<!-- Title: include/llvm/Analysis/AliasAnalysisEvaluator.h Pages: 1 -->
<svg width="483pt" height="106pt"
 viewBox="0.00 0.00 483.00 106.00" xmlns="http://www.w3.org/2000/svg" xmlns:xlink="http://www.w3.org/1999/xlink">
<g id="graph0" class="graph" transform="scale(1 1) rotate(0) translate(4 102)">
<title>include/llvm/Analysis/AliasAnalysisEvaluator.h</title>
<!-- Node1 -->
<g id="node1" class="node">
<title>Node1</title>
<g id="a_node1"><a xlink:title=" ">
<polygon fill="#bfbfbf" stroke="black" points="173.5,-67.5 173.5,-97.5 313.5,-97.5 313.5,-67.5 173.5,-67.5"/>
<text text-anchor="start" x="181.5" y="-85.5" font-family="Helvetica,sans-Serif" font-size="10.00">include/llvm/Analysis</text>
<text text-anchor="middle" x="243.5" y="-74.5" font-family="Helvetica,sans-Serif" font-size="10.00">/AliasAnalysisEvaluator.h</text>
</a>
</g>
</g>
<!-- Node2 -->
<g id="node2" class="node">
<title>Node2</title>
<g id="a_node2"><a xlink:href="LinkAllPasses_8h.html" target="_top" xlink:title=" ">
<polygon fill="none" stroke="black" points="0,-6 0,-25 155,-25 155,-6 0,-6"/>
<text text-anchor="middle" x="77.5" y="-13" font-family="Helvetica,sans-Serif" font-size="10.00">include/llvm/LinkAllPasses.h</text>
</a>
</g>
</g>
<!-- Node1&#45;&gt;Node2 -->
<g id="edge1" class="edge">
<title>Node1&#45;&gt;Node2</title>
<path fill="none" stroke="midnightblue" d="M197.84,-63.62C165.71,-51.04 124.15,-34.77 99.23,-25.01"/>
<polygon fill="midnightblue" stroke="midnightblue" points="196.89,-67.01 207.48,-67.4 199.45,-60.49 196.89,-67.01"/>
</g>
<!-- Node3 -->
<g id="node3" class="node">
<title>Node3</title>
<g id="a_node3"><a xlink:href="AliasAnalysisEvaluator_8cpp.html" target="_top" xlink:title=" ">
<polygon fill="none" stroke="black" points="173,-0.5 173,-30.5 314,-30.5 314,-0.5 173,-0.5"/>
<text text-anchor="start" x="181" y="-18.5" font-family="Helvetica,sans-Serif" font-size="10.00">lib/Analysis/AliasAnalysis</text>
<text text-anchor="middle" x="243.5" y="-7.5" font-family="Helvetica,sans-Serif" font-size="10.00">Evaluator.cpp</text>
</a>
</g>
</g>
<!-- Node1&#45;&gt;Node3 -->
<g id="edge2" class="edge">
<title>Node1&#45;&gt;Node3</title>
<path fill="none" stroke="midnightblue" d="M243.5,-57.11C243.5,-48.15 243.5,-38.32 243.5,-30.58"/>
<polygon fill="midnightblue" stroke="midnightblue" points="240,-57.4 243.5,-67.4 247,-57.4 240,-57.4"/>
</g>
<!-- Node4 -->
<g id="node4" class="node">
<title>Node4</title>
<g id="a_node4"><a xlink:href="PassBuilder_8cpp.html" target="_top" xlink:title=" ">
<polygon fill="none" stroke="black" points="332,-6 332,-25 475,-25 475,-6 332,-6"/>
<text text-anchor="middle" x="403.5" y="-13" font-family="Helvetica,sans-Serif" font-size="10.00">lib/Passes/PassBuilder.cpp</text>
</a>
</g>
</g>
<!-- Node1&#45;&gt;Node4 -->
<g id="edge3" class="edge">
<title>Node1&#45;&gt;Node4</title>
<path fill="none" stroke="midnightblue" d="M287.51,-63.62C318.48,-51.04 358.54,-34.77 382.56,-25.01"/>
<polygon fill="midnightblue" stroke="midnightblue" points="286.16,-60.39 278.22,-67.4 288.8,-66.87 286.16,-60.39"/>
</g>
</g>
</svg>
