<?xml version="1.0" encoding="UTF-8" standalone="no"?>
<!DOCTYPE svg PUBLIC "-//W3C//DTD SVG 1.1//EN"
 "http://www.w3.org/Graphics/SVG/1.1/DTD/svg11.dtd">
<!-- Generated by graphviz version 2.43.0 (0)
 -->
<!-- Title: include/llvm/Transforms/IPO/ArgumentPromotion.h Pages: 1 -->
<svg width="514pt" height="106pt"
 viewBox="0.00 0.00 513.50 106.00" xmlns="http://www.w3.org/2000/svg" xmlns:xlink="http://www.w3.org/1999/xlink">
<g id="graph0" class="graph" transform="scale(1 1) rotate(0) translate(4 102)">
<title>include/llvm/Transforms/IPO/ArgumentPromotion.h</title>
<!-- Node1 -->
<g id="node1" class="node">
<title>Node1</title>
<g id="a_node1"><a xlink:title=" ">
<polygon fill="#bfbfbf" stroke="black" points="182.5,-67.5 182.5,-97.5 328.5,-97.5 328.5,-67.5 182.5,-67.5"/>
<text text-anchor="start" x="190.5" y="-85.5" font-family="Helvetica,sans-Serif" font-size="10.00">include/llvm/Transforms</text>
<text text-anchor="middle" x="255.5" y="-74.5" font-family="Helvetica,sans-Serif" font-size="10.00">/IPO/ArgumentPromotion.h</text>
</a>
</g>
</g>
<!-- Node2 -->
<g id="node2" class="node">
<title>Node2</title>
<g id="a_node2"><a xlink:href="PassBuilder_8cpp.html" target="_top" xlink:title=" ">
<polygon fill="none" stroke="black" points="0,-6 0,-25 143,-25 143,-6 0,-6"/>
<text text-anchor="middle" x="71.5" y="-13" font-family="Helvetica,sans-Serif" font-size="10.00">lib/Passes/PassBuilder.cpp</text>
</a>
</g>
</g>
<!-- Node1&#45;&gt;Node2 -->
<g id="edge1" class="edge">
<title>Node1&#45;&gt;Node2</title>
<path fill="none" stroke="midnightblue" d="M205.81,-63.95C170.07,-51.32 123.45,-34.85 95.58,-25.01"/>
<polygon fill="midnightblue" stroke="midnightblue" points="204.98,-67.37 215.57,-67.4 207.31,-60.76 204.98,-67.37"/>
</g>
<!-- Node3 -->
<g id="node3" class="node">
<title>Node3</title>
<g id="a_node3"><a xlink:href="PassBuilderPipelines_8cpp.html" target="_top" xlink:title=" ">
<polygon fill="none" stroke="black" points="161.5,-6 161.5,-25 349.5,-25 349.5,-6 161.5,-6"/>
<text text-anchor="middle" x="255.5" y="-13" font-family="Helvetica,sans-Serif" font-size="10.00">lib/Passes/PassBuilderPipelines.cpp</text>
</a>
</g>
</g>
<!-- Node1&#45;&gt;Node3 -->
<g id="edge2" class="edge">
<title>Node1&#45;&gt;Node3</title>
<path fill="none" stroke="midnightblue" d="M255.5,-57.25C255.5,-46.02 255.5,-33.38 255.5,-25.19"/>
<polygon fill="midnightblue" stroke="midnightblue" points="252,-57.4 255.5,-67.4 259,-57.4 252,-57.4"/>
</g>
<!-- Node4 -->
<g id="node4" class="node">
<title>Node4</title>
<g id="a_node4"><a xlink:href="ArgumentPromotion_8cpp.html" target="_top" xlink:title=" ">
<polygon fill="none" stroke="black" points="367.5,-0.5 367.5,-30.5 505.5,-30.5 505.5,-0.5 367.5,-0.5"/>
<text text-anchor="start" x="375.5" y="-18.5" font-family="Helvetica,sans-Serif" font-size="10.00">lib/Transforms/IPO</text>
<text text-anchor="middle" x="436.5" y="-7.5" font-family="Helvetica,sans-Serif" font-size="10.00">/ArgumentPromotion.cpp</text>
</a>
</g>
</g>
<!-- Node1&#45;&gt;Node4 -->
<g id="edge3" class="edge">
<title>Node1&#45;&gt;Node4</title>
<path fill="none" stroke="midnightblue" d="M304.36,-63.96C333.51,-53.48 370.04,-40.37 397.3,-30.58"/>
<polygon fill="midnightblue" stroke="midnightblue" points="303,-60.72 294.77,-67.4 305.37,-67.31 303,-60.72"/>
</g>
</g>
</svg>
