<?xml version="1.0" encoding="UTF-8" standalone="no"?>
<!DOCTYPE svg PUBLIC "-//W3C//DTD SVG 1.1//EN"
 "http://www.w3.org/Graphics/SVG/1.1/DTD/svg11.dtd">
<!-- Generated by graphviz version 2.43.0 (0)
 -->
<!-- Title: lib/Target/ARM/ARMSubtarget.h Pages: 1 -->
<svg width="7472pt" height="229pt"
 viewBox="0.00 0.00 7472.00 229.00" xmlns="http://www.w3.org/2000/svg" xmlns:xlink="http://www.w3.org/1999/xlink">
<g id="graph0" class="graph" transform="scale(1 1) rotate(0) translate(4 225)">
<title>lib/Target/ARM/ARMSubtarget.h</title>
<!-- Node1 -->
<g id="node1" class="node">
<title>Node1</title>
<g id="a_node1"><a xlink:title=" ">
<polygon fill="#bfbfbf" stroke="black" points="3484.5,-201.5 3484.5,-220.5 3653.5,-220.5 3653.5,-201.5 3484.5,-201.5"/>
<text text-anchor="middle" x="3569" y="-208.5" font-family="Helvetica,sans-Serif" font-size="10.00">lib/Target/ARM/ARMSubtarget.h</text>
</a>
</g>
</g>
<!-- Node2 -->
<g id="node2" class="node">
<title>Node2</title>
<g id="a_node2"><a xlink:href="A15SDOptimizer_8cpp.html" target="_top" xlink:title=" ">
<polygon fill="none" stroke="black" points="0,-140 0,-159 190,-159 190,-140 0,-140"/>
<text text-anchor="middle" x="95" y="-147" font-family="Helvetica,sans-Serif" font-size="10.00">lib/Target/ARM/A15SDOptimizer.cpp</text>
</a>
</g>
</g>
<!-- Node1&#45;&gt;Node2 -->
<g id="edge1" class="edge">
<title>Node1&#45;&gt;Node2</title>
<path fill="none" stroke="midnightblue" d="M3474,-210.26C2997.54,-211.31 865.05,-213.22 204,-165 186.1,-163.69 166.65,-161.39 149.2,-159"/>
<polygon fill="midnightblue" stroke="midnightblue" points="3474.28,-213.76 3484.27,-210.23 3474.26,-206.76 3474.28,-213.76"/>
</g>
<!-- Node3 -->
<g id="node3" class="node">
<title>Node3</title>
<g id="a_node3"><a xlink:href="ARMAsmPrinter_8h.html" target="_top" xlink:title=" ">
<polygon fill="none" stroke="black" points="415.5,-140 415.5,-159 590.5,-159 590.5,-140 415.5,-140"/>
<text text-anchor="middle" x="503" y="-147" font-family="Helvetica,sans-Serif" font-size="10.00">lib/Target/ARM/ARMAsmPrinter.h</text>
</a>
</g>
</g>
<!-- Node1&#45;&gt;Node3 -->
<g id="edge2" class="edge">
<title>Node1&#45;&gt;Node3</title>
<path fill="none" stroke="midnightblue" d="M3474.15,-209.51C3121.75,-207.48 1854.29,-198.17 810,-165 736,-162.65 652.03,-158.59 590.64,-155.36"/>
<polygon fill="midnightblue" stroke="midnightblue" points="3474.29,-213.01 3484.31,-209.57 3474.33,-206.02 3474.29,-213.01"/>
</g>
<!-- Node5 -->
<g id="node5" class="node">
<title>Node5</title>
<g id="a_node5"><a xlink:href="ARMMCInstLower_8cpp.html" target="_top" xlink:title=" ">
<polygon fill="none" stroke="black" points="246,-67.5 246,-97.5 392,-97.5 392,-67.5 246,-67.5"/>
<text text-anchor="start" x="254" y="-85.5" font-family="Helvetica,sans-Serif" font-size="10.00">lib/Target/ARM/ARMMCInst</text>
<text text-anchor="middle" x="319" y="-74.5" font-family="Helvetica,sans-Serif" font-size="10.00">Lower.cpp</text>
</a>
</g>
</g>
<!-- Node1&#45;&gt;Node5 -->
<g id="edge39" class="edge">
<title>Node1&#45;&gt;Node5</title>
<path fill="none" stroke="midnightblue" d="M3474.44,-209.59C2955.97,-207.23 478.95,-194.43 406,-165 371.84,-151.22 343.12,-117.2 328.79,-97.75"/>
<polygon fill="midnightblue" stroke="midnightblue" points="3474.48,-213.09 3484.5,-209.64 3474.51,-206.09 3474.48,-213.09"/>
</g>
<!-- Node6 -->
<g id="node6" class="node">
<title>Node6</title>
<g id="a_node6"><a xlink:href="ARMTargetMachine_8h.html" target="_top" xlink:title=" ">
<polygon fill="none" stroke="black" points="980.5,-134.5 980.5,-164.5 1123.5,-164.5 1123.5,-134.5 980.5,-134.5"/>
<text text-anchor="start" x="988.5" y="-152.5" font-family="Helvetica,sans-Serif" font-size="10.00">lib/Target/ARM/ARMTarget</text>
<text text-anchor="middle" x="1052" y="-141.5" font-family="Helvetica,sans-Serif" font-size="10.00">Machine.h</text>
</a>
</g>
</g>
<!-- Node1&#45;&gt;Node6 -->
<g id="edge5" class="edge">
<title>Node1&#45;&gt;Node6</title>
<path fill="none" stroke="midnightblue" d="M3474.36,-208.79C3171.31,-204.74 2197.57,-190.5 1392,-165 1299.29,-162.07 1192.41,-157.28 1123.62,-154.01"/>
<polygon fill="midnightblue" stroke="midnightblue" points="3474.38,-212.29 3484.43,-208.92 3474.47,-205.29 3474.38,-212.29"/>
</g>
<!-- Node8 -->
<g id="node8" class="node">
<title>Node8</title>
<g id="a_node8"><a xlink:href="ARMInstructionSelector_8cpp.html" target="_top" xlink:title=" ">
<polygon fill="none" stroke="black" points="614,-67.5 614,-97.5 778,-97.5 778,-67.5 614,-67.5"/>
<text text-anchor="start" x="622" y="-85.5" font-family="Helvetica,sans-Serif" font-size="10.00">lib/Target/ARM/ARMInstruction</text>
<text text-anchor="middle" x="696" y="-74.5" font-family="Helvetica,sans-Serif" font-size="10.00">Selector.cpp</text>
</a>
</g>
</g>
<!-- Node1&#45;&gt;Node8 -->
<g id="edge31" class="edge">
<title>Node1&#45;&gt;Node8</title>
<path fill="none" stroke="midnightblue" d="M3474.16,-209.87C3036.49,-209.07 1222.56,-203.44 972,-165 883.6,-151.44 783.88,-117 731.9,-97.5"/>
<polygon fill="midnightblue" stroke="midnightblue" points="3474.23,-213.37 3484.24,-209.89 3474.25,-206.37 3474.23,-213.37"/>
</g>
<!-- Node10 -->
<g id="node10" class="node">
<title>Node10</title>
<g id="a_node10"><a xlink:href="ARMTargetTransformInfo_8h.html" target="_top" xlink:title=" ">
<polygon fill="none" stroke="black" points="1604.5,-67.5 1604.5,-97.5 1747.5,-97.5 1747.5,-67.5 1604.5,-67.5"/>
<text text-anchor="start" x="1612.5" y="-85.5" font-family="Helvetica,sans-Serif" font-size="10.00">lib/Target/ARM/ARMTarget</text>
<text text-anchor="middle" x="1676" y="-74.5" font-family="Helvetica,sans-Serif" font-size="10.00">TransformInfo.h</text>
</a>
</g>
</g>
<!-- Node1&#45;&gt;Node10 -->
<g id="edge33" class="edge">
<title>Node1&#45;&gt;Node10</title>
<path fill="none" stroke="midnightblue" d="M3474.2,-209.52C3113.32,-207.46 1841.59,-197.87 1762,-165 1728.16,-151.02 1699.8,-117.08 1685.66,-97.69"/>
<polygon fill="midnightblue" stroke="midnightblue" points="3474.33,-213.02 3484.35,-209.58 3474.37,-206.02 3474.33,-213.02"/>
</g>
<!-- Node11 -->
<g id="node11" class="node">
<title>Node11</title>
<g id="a_node11"><a xlink:href="ARMISelLowering_8cpp.html" target="_top" xlink:title=" ">
<polygon fill="none" stroke="black" points="1460.5,-6 1460.5,-25 1655.5,-25 1655.5,-6 1460.5,-6"/>
<text text-anchor="middle" x="1558" y="-13" font-family="Helvetica,sans-Serif" font-size="10.00">lib/Target/ARM/ARMISelLowering.cpp</text>
</a>
</g>
</g>
<!-- Node1&#45;&gt;Node11 -->
<g id="edge32" class="edge">
<title>Node1&#45;&gt;Node11</title>
<path fill="none" stroke="midnightblue" d="M3474.2,-210.04C3119.93,-209.88 1890.24,-206.35 1818,-165 1773.47,-139.51 1798.42,-97.28 1757,-67 1733.69,-49.96 1660.19,-34.26 1609.36,-25.03"/>
<polygon fill="midnightblue" stroke="midnightblue" points="3474.43,-213.54 3484.43,-210.05 3474.43,-206.54 3474.43,-213.54"/>
</g>
<!-- Node13 -->
<g id="node13" class="node">
<title>Node13</title>
<g id="a_node13"><a xlink:href="ARMTargetMachine_8cpp.html" target="_top" xlink:title=" ">
<polygon fill="none" stroke="black" points="734.5,-0.5 734.5,-30.5 877.5,-30.5 877.5,-0.5 734.5,-0.5"/>
<text text-anchor="start" x="742.5" y="-18.5" font-family="Helvetica,sans-Serif" font-size="10.00">lib/Target/ARM/ARMTarget</text>
<text text-anchor="middle" x="806" y="-7.5" font-family="Helvetica,sans-Serif" font-size="10.00">Machine.cpp</text>
</a>
</g>
</g>
<!-- Node1&#45;&gt;Node13 -->
<g id="edge44" class="edge">
<title>Node1&#45;&gt;Node13</title>
<path fill="none" stroke="midnightblue" d="M3473.98,-209.98C2958.11,-209.72 511.16,-206.28 357,-165 298,-149.2 267.92,-150.68 237,-98 230.03,-86.12 227.7,-77.16 237,-67 269.95,-30.99 588.74,-20.5 734.24,-17.57"/>
<polygon fill="midnightblue" stroke="midnightblue" points="3474.36,-213.48 3484.36,-209.99 3474.36,-206.48 3474.36,-213.48"/>
</g>
<!-- Node14 -->
<g id="node14" class="node">
<title>Node14</title>
<g id="a_node14"><a xlink:href="ARMTargetTransformInfo_8cpp.html" target="_top" xlink:title=" ">
<polygon fill="none" stroke="black" points="1673.5,-0.5 1673.5,-30.5 1816.5,-30.5 1816.5,-0.5 1673.5,-0.5"/>
<text text-anchor="start" x="1681.5" y="-18.5" font-family="Helvetica,sans-Serif" font-size="10.00">lib/Target/ARM/ARMTarget</text>
<text text-anchor="middle" x="1745" y="-7.5" font-family="Helvetica,sans-Serif" font-size="10.00">TransformInfo.cpp</text>
</a>
</g>
</g>
<!-- Node1&#45;&gt;Node14 -->
<g id="edge46" class="edge">
<title>Node1&#45;&gt;Node14</title>
<path fill="none" stroke="midnightblue" d="M3474.41,-209.94C3125.2,-209.41 1925.06,-204.68 1854,-165 1808.58,-139.64 1821.61,-108.31 1790,-67 1780.15,-54.13 1767.84,-40.46 1758.59,-30.59"/>
<polygon fill="midnightblue" stroke="midnightblue" points="3474.48,-213.44 3484.49,-209.95 3474.49,-206.44 3474.48,-213.44"/>
</g>
<!-- Node15 -->
<g id="node15" class="node">
<title>Node15</title>
<g id="a_node15"><a xlink:href="MVETailPredication_8cpp.html" target="_top" xlink:title=" ">
<polygon fill="none" stroke="black" points="1834.5,-6 1834.5,-25 2037.5,-25 2037.5,-6 1834.5,-6"/>
<text text-anchor="middle" x="1936" y="-13" font-family="Helvetica,sans-Serif" font-size="10.00">lib/Target/ARM/MVETailPredication.cpp</text>
</a>
</g>
</g>
<!-- Node1&#45;&gt;Node15 -->
<g id="edge50" class="edge">
<title>Node1&#45;&gt;Node15</title>
<path fill="none" stroke="midnightblue" d="M3474.14,-209.26C3120.71,-206.28 1899.15,-193.9 1871,-165 1829.77,-122.66 1899.92,-49.86 1926.46,-25.06"/>
<polygon fill="midnightblue" stroke="midnightblue" points="3474.31,-212.76 3484.34,-209.35 3474.37,-205.76 3474.31,-212.76"/>
</g>
<!-- Node16 -->
<g id="node16" class="node">
<title>Node16</title>
<g id="a_node16"><a xlink:href="ARMSubtarget_8cpp.html" target="_top" xlink:title=" ">
<polygon fill="none" stroke="black" points="1245,-73 1245,-92 1425,-92 1425,-73 1245,-73"/>
<text text-anchor="middle" x="1335" y="-80" font-family="Helvetica,sans-Serif" font-size="10.00">lib/Target/ARM/ARMSubtarget.cpp</text>
</a>
</g>
</g>
<!-- Node1&#45;&gt;Node16 -->
<g id="edge43" class="edge">
<title>Node1&#45;&gt;Node16</title>
<path fill="none" stroke="midnightblue" d="M3474.23,-209.27C3108.27,-206.25 1798.42,-193.55 1614,-165 1515.76,-149.79 1403.5,-109.73 1356.97,-92.07"/>
<polygon fill="midnightblue" stroke="midnightblue" points="3474.23,-212.77 3484.26,-209.35 3474.29,-205.77 3474.23,-212.77"/>
</g>
<!-- Node17 -->
<g id="node17" class="node">
<title>Node17</title>
<g id="a_node17"><a xlink:href="ARMTargetObjectFile_8cpp.html" target="_top" xlink:title=" ">
<polygon fill="none" stroke="black" points="1443.5,-67.5 1443.5,-97.5 1586.5,-97.5 1586.5,-67.5 1443.5,-67.5"/>
<text text-anchor="start" x="1451.5" y="-85.5" font-family="Helvetica,sans-Serif" font-size="10.00">lib/Target/ARM/ARMTarget</text>
<text text-anchor="middle" x="1515" y="-74.5" font-family="Helvetica,sans-Serif" font-size="10.00">ObjectFile.cpp</text>
</a>
</g>
</g>
<!-- Node1&#45;&gt;Node17 -->
<g id="edge45" class="edge">
<title>Node1&#45;&gt;Node17</title>
<path fill="none" stroke="midnightblue" d="M3474.25,-209.73C3120.1,-208.43 1885.61,-201.31 1713,-165 1648.07,-151.34 1577.42,-117.11 1540.6,-97.63"/>
<polygon fill="midnightblue" stroke="midnightblue" points="3474.46,-213.23 3484.47,-209.76 3474.48,-206.23 3474.46,-213.23"/>
</g>
<!-- Node18 -->
<g id="node18" class="node">
<title>Node18</title>
<g id="a_node18"><a xlink:href="ARMBaseInstrInfo_8cpp.html" target="_top" xlink:title=" ">
<polygon fill="none" stroke="black" points="1880,-134.5 1880,-164.5 2038,-164.5 2038,-134.5 1880,-134.5"/>
<text text-anchor="start" x="1888" y="-152.5" font-family="Helvetica,sans-Serif" font-size="10.00">lib/Target/ARM/ARMBaseInstr</text>
<text text-anchor="middle" x="1959" y="-141.5" font-family="Helvetica,sans-Serif" font-size="10.00">Info.cpp</text>
</a>
</g>
</g>
<!-- Node1&#45;&gt;Node18 -->
<g id="edge20" class="edge">
<title>Node1&#45;&gt;Node18</title>
<path fill="none" stroke="midnightblue" d="M3473.81,-208.85C3185.69,-205.12 2325.76,-191.96 2047,-165 2044.07,-164.72 2041.09,-164.4 2038.09,-164.04"/>
<polygon fill="midnightblue" stroke="midnightblue" points="3474.18,-212.36 3484.22,-208.99 3474.27,-205.36 3474.18,-212.36"/>
</g>
<!-- Node19 -->
<g id="node19" class="node">
<title>Node19</title>
<g id="a_node19"><a xlink:href="ARMBaseRegisterInfo_8cpp.html" target="_top" xlink:title=" ">
<polygon fill="none" stroke="black" points="2055.5,-134.5 2055.5,-164.5 2232.5,-164.5 2232.5,-134.5 2055.5,-134.5"/>
<text text-anchor="start" x="2063.5" y="-152.5" font-family="Helvetica,sans-Serif" font-size="10.00">lib/Target/ARM/ARMBaseRegister</text>
<text text-anchor="middle" x="2144" y="-141.5" font-family="Helvetica,sans-Serif" font-size="10.00">Info.cpp</text>
</a>
</g>
</g>
<!-- Node1&#45;&gt;Node19 -->
<g id="edge21" class="edge">
<title>Node1&#45;&gt;Node19</title>
<path fill="none" stroke="midnightblue" d="M3473.98,-210.51C3255.69,-210.86 2701.76,-207.11 2241,-165 2238.29,-164.75 2235.53,-164.48 2232.76,-164.18"/>
<polygon fill="midnightblue" stroke="midnightblue" points="3474.12,-214.01 3484.12,-210.49 3474.11,-207.01 3474.12,-214.01"/>
</g>
<!-- Node20 -->
<g id="node20" class="node">
<title>Node20</title>
<g id="a_node20"><a xlink:href="ARMBlockPlacement_8cpp.html" target="_top" xlink:title=" ">
<polygon fill="none" stroke="black" points="2250,-140 2250,-159 2462,-159 2462,-140 2250,-140"/>
<text text-anchor="middle" x="2356" y="-147" font-family="Helvetica,sans-Serif" font-size="10.00">lib/Target/ARM/ARMBlockPlacement.cpp</text>
</a>
</g>
</g>
<!-- Node1&#45;&gt;Node20 -->
<g id="edge22" class="edge">
<title>Node1&#45;&gt;Node20</title>
<path fill="none" stroke="midnightblue" d="M3474.22,-208.81C3283.81,-205.82 2841.35,-195.88 2471,-165 2453.05,-163.5 2433.6,-161.28 2415.88,-159.02"/>
<polygon fill="midnightblue" stroke="midnightblue" points="3474.42,-212.31 3484.47,-208.97 3474.53,-205.31 3474.42,-212.31"/>
</g>
<!-- Node21 -->
<g id="node21" class="node">
<title>Node21</title>
<g id="a_node21"><a xlink:href="ARMCallingConv_8cpp.html" target="_top" xlink:title=" ">
<polygon fill="none" stroke="black" points="2480,-134.5 2480,-164.5 2626,-164.5 2626,-134.5 2480,-134.5"/>
<text text-anchor="start" x="2488" y="-152.5" font-family="Helvetica,sans-Serif" font-size="10.00">lib/Target/ARM/ARMCalling</text>
<text text-anchor="middle" x="2553" y="-141.5" font-family="Helvetica,sans-Serif" font-size="10.00">Conv.cpp</text>
</a>
</g>
</g>
<!-- Node1&#45;&gt;Node21 -->
<g id="edge23" class="edge">
<title>Node1&#45;&gt;Node21</title>
<path fill="none" stroke="midnightblue" d="M3474.24,-209.4C3305.16,-207.44 2940.53,-199.23 2635,-165 2632.13,-164.68 2629.2,-164.32 2626.25,-163.93"/>
<polygon fill="midnightblue" stroke="midnightblue" points="3474.32,-212.9 3484.36,-209.51 3474.4,-205.9 3474.32,-212.9"/>
</g>
<!-- Node22 -->
<g id="node22" class="node">
<title>Node22</title>
<g id="a_node22"><a xlink:href="ARMCallLowering_8cpp.html" target="_top" xlink:title=" ">
<polygon fill="none" stroke="black" points="2644,-140 2644,-159 2840,-159 2840,-140 2644,-140"/>
<text text-anchor="middle" x="2742" y="-147" font-family="Helvetica,sans-Serif" font-size="10.00">lib/Target/ARM/ARMCallLowering.cpp</text>
</a>
</g>
</g>
<!-- Node1&#45;&gt;Node22 -->
<g id="edge24" class="edge">
<title>Node1&#45;&gt;Node22</title>
<path fill="none" stroke="midnightblue" d="M3474.21,-206.26C3336.36,-200.33 3072.58,-187.11 2849,-165 2832.77,-163.4 2815.21,-161.21 2799.11,-159.02"/>
<polygon fill="midnightblue" stroke="midnightblue" points="3474.18,-209.76 3484.32,-206.69 3474.48,-202.77 3474.18,-209.76"/>
</g>
<!-- Node23 -->
<g id="node23" class="node">
<title>Node23</title>
<g id="a_node23"><a xlink:href="ARMConstantIslandPass_8cpp.html" target="_top" xlink:title=" ">
<polygon fill="none" stroke="black" points="2858,-134.5 2858,-164.5 3014,-164.5 3014,-134.5 2858,-134.5"/>
<text text-anchor="start" x="2866" y="-152.5" font-family="Helvetica,sans-Serif" font-size="10.00">lib/Target/ARM/ARMConstant</text>
<text text-anchor="middle" x="2936" y="-141.5" font-family="Helvetica,sans-Serif" font-size="10.00">IslandPass.cpp</text>
</a>
</g>
</g>
<!-- Node1&#45;&gt;Node23 -->
<g id="edge25" class="edge">
<title>Node1&#45;&gt;Node23</title>
<path fill="none" stroke="midnightblue" d="M3473.98,-204.49C3365.04,-197.64 3181.23,-184.41 3024,-165 3020.77,-164.6 3017.48,-164.17 3014.16,-163.72"/>
<polygon fill="midnightblue" stroke="midnightblue" points="3474.09,-208.01 3484.29,-205.14 3474.53,-201.02 3474.09,-208.01"/>
</g>
<!-- Node24 -->
<g id="node24" class="node">
<title>Node24</title>
<g id="a_node24"><a xlink:href="ARMExpandPseudoInsts_8cpp.html" target="_top" xlink:title=" ">
<polygon fill="none" stroke="black" points="3032.5,-134.5 3032.5,-164.5 3181.5,-164.5 3181.5,-134.5 3032.5,-134.5"/>
<text text-anchor="start" x="3040.5" y="-152.5" font-family="Helvetica,sans-Serif" font-size="10.00">lib/Target/ARM/ARMExpand</text>
<text text-anchor="middle" x="3107" y="-141.5" font-family="Helvetica,sans-Serif" font-size="10.00">PseudoInsts.cpp</text>
</a>
</g>
</g>
<!-- Node1&#45;&gt;Node24 -->
<g id="edge26" class="edge">
<title>Node1&#45;&gt;Node24</title>
<path fill="none" stroke="midnightblue" d="M3476.88,-200.4C3400.23,-192.08 3288.32,-179.18 3191,-165 3187.92,-164.55 3184.79,-164.08 3181.62,-163.59"/>
<polygon fill="midnightblue" stroke="midnightblue" points="3476.67,-203.9 3486.99,-201.49 3477.42,-196.94 3476.67,-203.9"/>
</g>
<!-- Node25 -->
<g id="node25" class="node">
<title>Node25</title>
<g id="a_node25"><a xlink:href="ARMFastISel_8cpp.html" target="_top" xlink:title=" ">
<polygon fill="none" stroke="black" points="3200,-140 3200,-159 3370,-159 3370,-140 3200,-140"/>
<text text-anchor="middle" x="3285" y="-147" font-family="Helvetica,sans-Serif" font-size="10.00">lib/Target/ARM/ARMFastISel.cpp</text>
</a>
</g>
</g>
<!-- Node1&#45;&gt;Node25 -->
<g id="edge27" class="edge">
<title>Node1&#45;&gt;Node25</title>
<path fill="none" stroke="midnightblue" d="M3518.42,-199.4C3463.36,-187.87 3376.4,-169.65 3325.61,-159.01"/>
<polygon fill="midnightblue" stroke="midnightblue" points="3517.8,-202.85 3528.31,-201.48 3519.24,-196 3517.8,-202.85"/>
</g>
<!-- Node26 -->
<g id="node26" class="node">
<title>Node26</title>
<g id="a_node26"><a xlink:href="ARMFixCortexA57AES1742098Pass_8cpp.html" target="_top" xlink:title=" ">
<polygon fill="none" stroke="black" points="3388.5,-134.5 3388.5,-164.5 3547.5,-164.5 3547.5,-134.5 3388.5,-134.5"/>
<text text-anchor="start" x="3396.5" y="-152.5" font-family="Helvetica,sans-Serif" font-size="10.00">lib/Target/ARM/ARMFixCortex</text>
<text text-anchor="middle" x="3468" y="-141.5" font-family="Helvetica,sans-Serif" font-size="10.00">A57AES1742098Pass.cpp</text>
</a>
</g>
</g>
<!-- Node1&#45;&gt;Node26 -->
<g id="edge28" class="edge">
<title>Node1&#45;&gt;Node26</title>
<path fill="none" stroke="midnightblue" d="M3545.7,-196.28C3529.54,-186.75 3508.08,-174.11 3491.8,-164.52"/>
<polygon fill="midnightblue" stroke="midnightblue" points="3544.14,-199.41 3554.53,-201.48 3547.69,-193.38 3544.14,-199.41"/>
</g>
<!-- Node27 -->
<g id="node27" class="node">
<title>Node27</title>
<g id="a_node27"><a xlink:href="ARMFrameLowering_8cpp.html" target="_top" xlink:title=" ">
<polygon fill="none" stroke="black" points="3566,-140 3566,-159 3774,-159 3774,-140 3566,-140"/>
<text text-anchor="middle" x="3670" y="-147" font-family="Helvetica,sans-Serif" font-size="10.00">lib/Target/ARM/ARMFrameLowering.cpp</text>
</a>
</g>
</g>
<!-- Node1&#45;&gt;Node27 -->
<g id="edge29" class="edge">
<title>Node1&#45;&gt;Node27</title>
<path fill="none" stroke="midnightblue" d="M3592.35,-196.24C3611.86,-184.75 3639.07,-168.72 3655.56,-159.01"/>
<polygon fill="midnightblue" stroke="midnightblue" points="3590.31,-193.38 3583.47,-201.48 3593.86,-199.41 3590.31,-193.38"/>
</g>
<!-- Node28 -->
<g id="node28" class="node">
<title>Node28</title>
<g id="a_node28"><a xlink:href="ARMHazardRecognizer_8cpp.html" target="_top" xlink:title=" ">
<polygon fill="none" stroke="black" points="3792.5,-134.5 3792.5,-164.5 3939.5,-164.5 3939.5,-134.5 3792.5,-134.5"/>
<text text-anchor="start" x="3800.5" y="-152.5" font-family="Helvetica,sans-Serif" font-size="10.00">lib/Target/ARM/ARMHazard</text>
<text text-anchor="middle" x="3866" y="-141.5" font-family="Helvetica,sans-Serif" font-size="10.00">Recognizer.cpp</text>
</a>
</g>
</g>
<!-- Node1&#45;&gt;Node28 -->
<g id="edge30" class="edge">
<title>Node1&#45;&gt;Node28</title>
<path fill="none" stroke="midnightblue" d="M3621.53,-199.48C3670.08,-189.75 3742.56,-175.23 3796,-164.52"/>
<polygon fill="midnightblue" stroke="midnightblue" points="3620.67,-196.08 3611.55,-201.48 3622.05,-202.94 3620.67,-196.08"/>
</g>
<!-- Node29 -->
<g id="node29" class="node">
<title>Node29</title>
<g id="a_node29"><a xlink:href="ARMLegalizerInfo_8cpp.html" target="_top" xlink:title=" ">
<polygon fill="none" stroke="black" points="3957.5,-134.5 3957.5,-164.5 4114.5,-164.5 4114.5,-134.5 3957.5,-134.5"/>
<text text-anchor="start" x="3965.5" y="-152.5" font-family="Helvetica,sans-Serif" font-size="10.00">lib/Target/ARM/ARMLegalizer</text>
<text text-anchor="middle" x="4036" y="-141.5" font-family="Helvetica,sans-Serif" font-size="10.00">Info.cpp</text>
</a>
</g>
</g>
<!-- Node1&#45;&gt;Node29 -->
<g id="edge34" class="edge">
<title>Node1&#45;&gt;Node29</title>
<path fill="none" stroke="midnightblue" d="M3660.47,-200.39C3737.54,-192.01 3850.65,-179.01 3949,-165 3951.73,-164.61 3954.5,-164.21 3957.31,-163.79"/>
<polygon fill="midnightblue" stroke="midnightblue" points="3659.88,-196.94 3650.31,-201.5 3660.63,-203.9 3659.88,-196.94"/>
</g>
<!-- Node30 -->
<g id="node30" class="node">
<title>Node30</title>
<g id="a_node30"><a xlink:href="ARMLoadStoreOptimizer_8cpp.html" target="_top" xlink:title=" ">
<polygon fill="none" stroke="black" points="4132.5,-134.5 4132.5,-164.5 4293.5,-164.5 4293.5,-134.5 4132.5,-134.5"/>
<text text-anchor="start" x="4140.5" y="-152.5" font-family="Helvetica,sans-Serif" font-size="10.00">lib/Target/ARM/ARMLoadStore</text>
<text text-anchor="middle" x="4213" y="-141.5" font-family="Helvetica,sans-Serif" font-size="10.00">Optimizer.cpp</text>
</a>
</g>
</g>
<!-- Node1&#45;&gt;Node30 -->
<g id="edge35" class="edge">
<title>Node1&#45;&gt;Node30</title>
<path fill="none" stroke="midnightblue" d="M3663.98,-204.64C3774.68,-197.84 3963.01,-184.61 4124,-165 4126.64,-164.68 4129.33,-164.34 4132.03,-163.98"/>
<polygon fill="midnightblue" stroke="midnightblue" points="3663.61,-201.15 3653.84,-205.25 3664.03,-208.14 3663.61,-201.15"/>
</g>
<!-- Node31 -->
<g id="node31" class="node">
<title>Node31</title>
<g id="a_node31"><a xlink:href="ARMLowOverheadLoops_8cpp.html" target="_top" xlink:title=" ">
<polygon fill="none" stroke="black" points="4311.5,-134.5 4311.5,-164.5 4490.5,-164.5 4490.5,-134.5 4311.5,-134.5"/>
<text text-anchor="start" x="4319.5" y="-152.5" font-family="Helvetica,sans-Serif" font-size="10.00">lib/Target/ARM/ARMLowOverhead</text>
<text text-anchor="middle" x="4401" y="-141.5" font-family="Helvetica,sans-Serif" font-size="10.00">Loops.cpp</text>
</a>
</g>
</g>
<!-- Node1&#45;&gt;Node31 -->
<g id="edge36" class="edge">
<title>Node1&#45;&gt;Node31</title>
<path fill="none" stroke="midnightblue" d="M3663.96,-206.78C3804.06,-201.44 4074.29,-188.89 4303,-165 4305.74,-164.71 4308.51,-164.41 4311.32,-164.08"/>
<polygon fill="midnightblue" stroke="midnightblue" points="3663.54,-203.29 3653.68,-207.17 3663.81,-210.29 3663.54,-203.29"/>
</g>
<!-- Node32 -->
<g id="node32" class="node">
<title>Node32</title>
<g id="a_node32"><a xlink:href="ARMMachineFunctionInfo_8cpp.html" target="_top" xlink:title=" ">
<polygon fill="none" stroke="black" points="4509,-134.5 4509,-164.5 4663,-164.5 4663,-134.5 4509,-134.5"/>
<text text-anchor="start" x="4517" y="-152.5" font-family="Helvetica,sans-Serif" font-size="10.00">lib/Target/ARM/ARMMachine</text>
<text text-anchor="middle" x="4586" y="-141.5" font-family="Helvetica,sans-Serif" font-size="10.00">FunctionInfo.cpp</text>
</a>
</g>
</g>
<!-- Node1&#45;&gt;Node32 -->
<g id="edge37" class="edge">
<title>Node1&#45;&gt;Node32</title>
<path fill="none" stroke="midnightblue" d="M3663.76,-209.13C3832.4,-206.75 4195.51,-197.91 4500,-165 4502.86,-164.69 4505.77,-164.35 4508.71,-163.98"/>
<polygon fill="midnightblue" stroke="midnightblue" points="3663.62,-205.63 3653.67,-209.27 3663.71,-212.63 3663.62,-205.63"/>
</g>
<!-- Node33 -->
<g id="node33" class="node">
<title>Node33</title>
<g id="a_node33"><a xlink:href="ARMMacroFusion_8cpp.html" target="_top" xlink:title=" ">
<polygon fill="none" stroke="black" points="4681,-140 4681,-159 4875,-159 4875,-140 4681,-140"/>
<text text-anchor="middle" x="4778" y="-147" font-family="Helvetica,sans-Serif" font-size="10.00">lib/Target/ARM/ARMMacroFusion.cpp</text>
</a>
</g>
</g>
<!-- Node1&#45;&gt;Node33 -->
<g id="edge38" class="edge">
<title>Node1&#45;&gt;Node33</title>
<path fill="none" stroke="midnightblue" d="M3663.59,-209.17C3854.57,-206.83 4299.72,-197.98 4672,-165 4688.65,-163.52 4706.7,-161.29 4723.1,-159.02"/>
<polygon fill="midnightblue" stroke="midnightblue" points="3663.54,-205.67 3653.59,-209.29 3663.63,-212.67 3663.54,-205.67"/>
</g>
<!-- Node34 -->
<g id="node34" class="node">
<title>Node34</title>
<g id="a_node34"><a xlink:href="ARMParallelDSP_8cpp.html" target="_top" xlink:title=" ">
<polygon fill="none" stroke="black" points="4892.5,-134.5 4892.5,-164.5 5041.5,-164.5 5041.5,-134.5 4892.5,-134.5"/>
<text text-anchor="start" x="4900.5" y="-152.5" font-family="Helvetica,sans-Serif" font-size="10.00">lib/Target/ARM/ARMParallel</text>
<text text-anchor="middle" x="4967" y="-141.5" font-family="Helvetica,sans-Serif" font-size="10.00">DSP.cpp</text>
</a>
</g>
</g>
<!-- Node1&#45;&gt;Node34 -->
<g id="edge40" class="edge">
<title>Node1&#45;&gt;Node34</title>
<path fill="none" stroke="midnightblue" d="M3664.15,-208.46C3924.92,-203.97 4647.32,-189.6 4884,-165 4886.76,-164.71 4889.58,-164.39 4892.41,-164.03"/>
<polygon fill="midnightblue" stroke="midnightblue" points="3663.88,-204.96 3653.94,-208.63 3664,-211.96 3663.88,-204.96"/>
</g>
<!-- Node35 -->
<g id="node35" class="node">
<title>Node35</title>
<g id="a_node35"><a xlink:href="ARMRegisterBankInfo_8cpp.html" target="_top" xlink:title=" ">
<polygon fill="none" stroke="black" points="5059.5,-134.5 5059.5,-164.5 5212.5,-164.5 5212.5,-134.5 5059.5,-134.5"/>
<text text-anchor="start" x="5067.5" y="-152.5" font-family="Helvetica,sans-Serif" font-size="10.00">lib/Target/ARM/ARMRegister</text>
<text text-anchor="middle" x="5136" y="-141.5" font-family="Helvetica,sans-Serif" font-size="10.00">BankInfo.cpp</text>
</a>
</g>
</g>
<!-- Node1&#45;&gt;Node35 -->
<g id="edge41" class="edge">
<title>Node1&#45;&gt;Node35</title>
<path fill="none" stroke="midnightblue" d="M3664.17,-208.84C3947.14,-205.1 4780.44,-192.05 5051,-165 5053.68,-164.73 5056.41,-164.43 5059.15,-164.1"/>
<polygon fill="midnightblue" stroke="midnightblue" points="3663.88,-205.34 3653.93,-208.97 3663.97,-212.34 3663.88,-205.34"/>
</g>
<!-- Node36 -->
<g id="node36" class="node">
<title>Node36</title>
<g id="a_node36"><a xlink:href="ARMSLSHardening_8cpp.html" target="_top" xlink:title=" ">
<polygon fill="none" stroke="black" points="5231,-140 5231,-159 5431,-159 5431,-140 5231,-140"/>
<text text-anchor="middle" x="5331" y="-147" font-family="Helvetica,sans-Serif" font-size="10.00">lib/Target/ARM/ARMSLSHardening.cpp</text>
</a>
</g>
</g>
<!-- Node1&#45;&gt;Node36 -->
<g id="edge42" class="edge">
<title>Node1&#45;&gt;Node36</title>
<path fill="none" stroke="midnightblue" d="M3663.65,-208.73C3967.46,-204.46 4915.96,-189.45 5222,-165 5239.51,-163.6 5258.51,-161.33 5275.67,-159.01"/>
<polygon fill="midnightblue" stroke="midnightblue" points="3663.5,-205.23 3653.55,-208.87 3663.6,-212.23 3663.5,-205.23"/>
</g>
<!-- Node37 -->
<g id="node37" class="node">
<title>Node37</title>
<g id="a_node37"><a xlink:href="MLxExpansionPass_8cpp.html" target="_top" xlink:title=" ">
<polygon fill="none" stroke="black" points="5449.5,-134.5 5449.5,-164.5 5610.5,-164.5 5610.5,-134.5 5449.5,-134.5"/>
<text text-anchor="start" x="5457.5" y="-152.5" font-family="Helvetica,sans-Serif" font-size="10.00">lib/Target/ARM/MLxExpansion</text>
<text text-anchor="middle" x="5530" y="-141.5" font-family="Helvetica,sans-Serif" font-size="10.00">Pass.cpp</text>
</a>
</g>
</g>
<!-- Node1&#45;&gt;Node37 -->
<g id="edge47" class="edge">
<title>Node1&#45;&gt;Node37</title>
<path fill="none" stroke="midnightblue" d="M3664.04,-209.42C3994.14,-207.14 5089.82,-197.27 5440,-165 5442.99,-164.72 5446.04,-164.41 5449.11,-164.06"/>
<polygon fill="midnightblue" stroke="midnightblue" points="3663.54,-205.92 3653.56,-209.49 3663.59,-212.92 3663.54,-205.92"/>
</g>
<!-- Node38 -->
<g id="node38" class="node">
<title>Node38</title>
<g id="a_node38"><a xlink:href="MVEGatherScatterLowering_8cpp.html" target="_top" xlink:title=" ">
<polygon fill="none" stroke="black" points="5628.5,-134.5 5628.5,-164.5 5773.5,-164.5 5773.5,-134.5 5628.5,-134.5"/>
<text text-anchor="start" x="5636.5" y="-152.5" font-family="Helvetica,sans-Serif" font-size="10.00">lib/Target/ARM/MVEGather</text>
<text text-anchor="middle" x="5701" y="-141.5" font-family="Helvetica,sans-Serif" font-size="10.00">ScatterLowering.cpp</text>
</a>
</g>
</g>
<!-- Node1&#45;&gt;Node38 -->
<g id="edge48" class="edge">
<title>Node1&#45;&gt;Node38</title>
<path fill="none" stroke="midnightblue" d="M3663.65,-209.87C4013.46,-209.11 5232.98,-203.65 5620,-165 5622.7,-164.73 5625.45,-164.42 5628.22,-164.08"/>
<polygon fill="midnightblue" stroke="midnightblue" points="3663.55,-206.37 3653.56,-209.9 3663.56,-213.37 3663.55,-206.37"/>
</g>
<!-- Node39 -->
<g id="node39" class="node">
<title>Node39</title>
<g id="a_node39"><a xlink:href="MVELaneInterleavingPass_8cpp.html" target="_top" xlink:title=" ">
<polygon fill="none" stroke="black" points="5792,-134.5 5792,-164.5 5986,-164.5 5986,-134.5 5792,-134.5"/>
<text text-anchor="start" x="5800" y="-152.5" font-family="Helvetica,sans-Serif" font-size="10.00">lib/Target/ARM/MVELaneInterleaving</text>
<text text-anchor="middle" x="5889" y="-141.5" font-family="Helvetica,sans-Serif" font-size="10.00">Pass.cpp</text>
</a>
</g>
</g>
<!-- Node1&#45;&gt;Node39 -->
<g id="edge49" class="edge">
<title>Node1&#45;&gt;Node39</title>
<path fill="none" stroke="midnightblue" d="M3663.63,-209.54C4030.8,-207.51 5361.62,-197.99 5783,-165 5785.87,-164.78 5788.78,-164.52 5791.72,-164.25"/>
<polygon fill="midnightblue" stroke="midnightblue" points="3663.55,-206.04 3653.57,-209.59 3663.59,-213.04 3663.55,-206.04"/>
</g>
<!-- Node40 -->
<g id="node40" class="node">
<title>Node40</title>
<g id="a_node40"><a xlink:href="MVETPAndVPTOptimisationsPass_8cpp.html" target="_top" xlink:title=" ">
<polygon fill="none" stroke="black" points="6004.5,-134.5 6004.5,-164.5 6233.5,-164.5 6233.5,-134.5 6004.5,-134.5"/>
<text text-anchor="start" x="6012.5" y="-152.5" font-family="Helvetica,sans-Serif" font-size="10.00">lib/Target/ARM/MVETPAndVPTOptimisations</text>
<text text-anchor="middle" x="6119" y="-141.5" font-family="Helvetica,sans-Serif" font-size="10.00">Pass.cpp</text>
</a>
</g>
</g>
<!-- Node1&#45;&gt;Node40 -->
<g id="edge51" class="edge">
<title>Node1&#45;&gt;Node40</title>
<path fill="none" stroke="midnightblue" d="M3663.76,-209.48C4052.89,-207.17 5529.45,-196.46 5995,-165 5998.03,-164.8 6001.09,-164.57 6004.19,-164.33"/>
<polygon fill="midnightblue" stroke="midnightblue" points="3663.64,-205.98 3653.66,-209.54 3663.68,-212.98 3663.64,-205.98"/>
</g>
<!-- Node41 -->
<g id="node41" class="node">
<title>Node41</title>
<g id="a_node41"><a xlink:href="MVEVPTBlockPass_8cpp.html" target="_top" xlink:title=" ">
<polygon fill="none" stroke="black" points="6252,-134.5 6252,-164.5 6410,-164.5 6410,-134.5 6252,-134.5"/>
<text text-anchor="start" x="6260" y="-152.5" font-family="Helvetica,sans-Serif" font-size="10.00">lib/Target/ARM/MVEVPTBlock</text>
<text text-anchor="middle" x="6331" y="-141.5" font-family="Helvetica,sans-Serif" font-size="10.00">Pass.cpp</text>
</a>
</g>
</g>
<!-- Node1&#45;&gt;Node41 -->
<g id="edge52" class="edge">
<title>Node1&#45;&gt;Node41</title>
<path fill="none" stroke="midnightblue" d="M3663.71,-210.27C4077.24,-211.15 5726.81,-211.62 6243,-165 6245.93,-164.74 6248.91,-164.43 6251.92,-164.09"/>
<polygon fill="midnightblue" stroke="midnightblue" points="3663.6,-206.77 3653.59,-210.25 3663.58,-213.77 3663.6,-206.77"/>
</g>
<!-- Node42 -->
<g id="node42" class="node">
<title>Node42</title>
<g id="a_node42"><a xlink:href="Thumb1FrameLowering_8cpp.html" target="_top" xlink:title=" ">
<polygon fill="none" stroke="black" points="6428.5,-134.5 6428.5,-164.5 6589.5,-164.5 6589.5,-134.5 6428.5,-134.5"/>
<text text-anchor="start" x="6436.5" y="-152.5" font-family="Helvetica,sans-Serif" font-size="10.00">lib/Target/ARM/Thumb1Frame</text>
<text text-anchor="middle" x="6509" y="-141.5" font-family="Helvetica,sans-Serif" font-size="10.00">Lowering.cpp</text>
</a>
</g>
</g>
<!-- Node1&#45;&gt;Node42 -->
<g id="edge53" class="edge">
<title>Node1&#45;&gt;Node42</title>
<path fill="none" stroke="midnightblue" d="M3663.83,-210.34C4094.15,-211.59 5866.15,-213.64 6419,-165 6422,-164.74 6425.04,-164.43 6428.12,-164.09"/>
<polygon fill="midnightblue" stroke="midnightblue" points="3663.62,-206.84 3653.61,-210.31 3663.6,-213.84 3663.62,-206.84"/>
</g>
<!-- Node43 -->
<g id="node43" class="node">
<title>Node43</title>
<g id="a_node43"><a xlink:href="Thumb1InstrInfo_8cpp.html" target="_top" xlink:title=" ">
<polygon fill="none" stroke="black" points="6608,-134.5 6608,-164.5 6760,-164.5 6760,-134.5 6608,-134.5"/>
<text text-anchor="start" x="6616" y="-152.5" font-family="Helvetica,sans-Serif" font-size="10.00">lib/Target/ARM/Thumb1Instr</text>
<text text-anchor="middle" x="6684" y="-141.5" font-family="Helvetica,sans-Serif" font-size="10.00">Info.cpp</text>
</a>
</g>
</g>
<!-- Node1&#45;&gt;Node43 -->
<g id="edge54" class="edge">
<title>Node1&#45;&gt;Node43</title>
<path fill="none" stroke="midnightblue" d="M3663.77,-209.46C4144.41,-206.62 6301.37,-192.43 6599,-165 6601.83,-164.74 6604.71,-164.44 6607.62,-164.1"/>
<polygon fill="midnightblue" stroke="midnightblue" points="3663.73,-205.96 3653.75,-209.52 3663.77,-212.96 3663.73,-205.96"/>
</g>
<!-- Node44 -->
<g id="node44" class="node">
<title>Node44</title>
<g id="a_node44"><a xlink:href="Thumb2InstrInfo_8cpp.html" target="_top" xlink:title=" ">
<polygon fill="none" stroke="black" points="6778,-134.5 6778,-164.5 6930,-164.5 6930,-134.5 6778,-134.5"/>
<text text-anchor="start" x="6786" y="-152.5" font-family="Helvetica,sans-Serif" font-size="10.00">lib/Target/ARM/Thumb2Instr</text>
<text text-anchor="middle" x="6854" y="-141.5" font-family="Helvetica,sans-Serif" font-size="10.00">Info.cpp</text>
</a>
</g>
</g>
<!-- Node1&#45;&gt;Node44 -->
<g id="edge55" class="edge">
<title>Node1&#45;&gt;Node44</title>
<path fill="none" stroke="midnightblue" d="M3663.79,-209.54C4160.62,-207.03 6453.55,-193.95 6769,-165 6771.83,-164.74 6774.71,-164.44 6777.62,-164.1"/>
<polygon fill="midnightblue" stroke="midnightblue" points="3663.77,-206.04 3653.79,-209.59 3663.8,-213.04 3663.77,-206.04"/>
</g>
<!-- Node45 -->
<g id="node45" class="node">
<title>Node45</title>
<g id="a_node45"><a xlink:href="Thumb2ITBlockPass_8cpp.html" target="_top" xlink:title=" ">
<polygon fill="none" stroke="black" points="6948,-134.5 6948,-164.5 7114,-164.5 7114,-134.5 6948,-134.5"/>
<text text-anchor="start" x="6956" y="-152.5" font-family="Helvetica,sans-Serif" font-size="10.00">lib/Target/ARM/Thumb2ITBlock</text>
<text text-anchor="middle" x="7031" y="-141.5" font-family="Helvetica,sans-Serif" font-size="10.00">Pass.cpp</text>
</a>
</g>
</g>
<!-- Node1&#45;&gt;Node45 -->
<g id="edge56" class="edge">
<title>Node1&#45;&gt;Node45</title>
<path fill="none" stroke="midnightblue" d="M3664.17,-209.54C4177.53,-206.96 6605.6,-193.35 6939,-165 6941.9,-164.75 6944.85,-164.47 6947.82,-164.16"/>
<polygon fill="midnightblue" stroke="midnightblue" points="3663.83,-206.04 3653.84,-209.59 3663.86,-213.04 3663.83,-206.04"/>
</g>
<!-- Node46 -->
<g id="node46" class="node">
<title>Node46</title>
<g id="a_node46"><a xlink:href="Thumb2SizeReduction_8cpp.html" target="_top" xlink:title=" ">
<polygon fill="none" stroke="black" points="7132,-134.5 7132,-164.5 7282,-164.5 7282,-134.5 7132,-134.5"/>
<text text-anchor="start" x="7140" y="-152.5" font-family="Helvetica,sans-Serif" font-size="10.00">lib/Target/ARM/Thumb2Size</text>
<text text-anchor="middle" x="7207" y="-141.5" font-family="Helvetica,sans-Serif" font-size="10.00">Reduction.cpp</text>
</a>
</g>
</g>
<!-- Node1&#45;&gt;Node46 -->
<g id="edge57" class="edge">
<title>Node1&#45;&gt;Node46</title>
<path fill="none" stroke="midnightblue" d="M3664.19,-209.7C4194.23,-207.88 6770.49,-197.45 7123,-165 7125.95,-164.73 7128.95,-164.41 7131.97,-164.06"/>
<polygon fill="midnightblue" stroke="midnightblue" points="3663.9,-206.2 3653.91,-209.73 3663.92,-213.2 3663.9,-206.2"/>
</g>
<!-- Node47 -->
<g id="node47" class="node">
<title>Node47</title>
<g id="a_node47"><a xlink:href="ThumbRegisterInfo_8cpp.html" target="_top" xlink:title=" ">
<polygon fill="none" stroke="black" points="7300,-134.5 7300,-164.5 7464,-164.5 7464,-134.5 7300,-134.5"/>
<text text-anchor="start" x="7308" y="-152.5" font-family="Helvetica,sans-Serif" font-size="10.00">lib/Target/ARM/ThumbRegister</text>
<text text-anchor="middle" x="7382" y="-141.5" font-family="Helvetica,sans-Serif" font-size="10.00">Info.cpp</text>
</a>
</g>
</g>
<!-- Node1&#45;&gt;Node47 -->
<g id="edge58" class="edge">
<title>Node1&#45;&gt;Node47</title>
<path fill="none" stroke="midnightblue" d="M3663.82,-209.68C4207.79,-207.75 6920.51,-196.59 7291,-165 7293.87,-164.76 7296.78,-164.47 7299.73,-164.16"/>
<polygon fill="midnightblue" stroke="midnightblue" points="3663.65,-206.18 3653.66,-209.72 3663.68,-213.18 3663.65,-206.18"/>
</g>
<!-- Node4 -->
<g id="node4" class="node">
<title>Node4</title>
<g id="a_node4"><a xlink:href="ARMAsmPrinter_8cpp.html" target="_top" xlink:title=" ">
<polygon fill="none" stroke="black" points="410,-73 410,-92 596,-92 596,-73 410,-73"/>
<text text-anchor="middle" x="503" y="-80" font-family="Helvetica,sans-Serif" font-size="10.00">lib/Target/ARM/ARMAsmPrinter.cpp</text>
</a>
</g>
</g>
<!-- Node3&#45;&gt;Node4 -->
<g id="edge3" class="edge">
<title>Node3&#45;&gt;Node4</title>
<path fill="none" stroke="midnightblue" d="M503,-129.54C503,-117.17 503,-101.62 503,-92.13"/>
<polygon fill="midnightblue" stroke="midnightblue" points="499.5,-129.73 503,-139.73 506.5,-129.73 499.5,-129.73"/>
</g>
<!-- Node3&#45;&gt;Node5 -->
<g id="edge4" class="edge">
<title>Node3&#45;&gt;Node5</title>
<path fill="none" stroke="midnightblue" d="M469,-136.49C437.81,-125.47 391.59,-109.14 358.71,-97.53"/>
<polygon fill="midnightblue" stroke="midnightblue" points="467.97,-139.84 478.57,-139.87 470.3,-133.24 467.97,-139.84"/>
</g>
<!-- Node6&#45;&gt;Node4 -->
<g id="edge6" class="edge">
<title>Node6&#45;&gt;Node4</title>
<path fill="none" stroke="midnightblue" d="M970.21,-139.97C880.51,-130.45 732.37,-114.24 605,-98 590.72,-96.18 575.33,-94.07 560.95,-92.03"/>
<polygon fill="midnightblue" stroke="midnightblue" points="970,-143.47 980.31,-141.04 970.74,-136.51 970,-143.47"/>
</g>
<!-- Node7 -->
<g id="node7" class="node">
<title>Node7</title>
<g id="a_node7"><a xlink:href="ARMInstrInfo_8cpp.html" target="_top" xlink:title=" ">
<polygon fill="none" stroke="black" points="872.5,-73 872.5,-92 1045.5,-92 1045.5,-73 872.5,-73"/>
<text text-anchor="middle" x="959" y="-80" font-family="Helvetica,sans-Serif" font-size="10.00">lib/Target/ARM/ARMInstrInfo.cpp</text>
</a>
</g>
</g>
<!-- Node6&#45;&gt;Node7 -->
<g id="edge7" class="edge">
<title>Node6&#45;&gt;Node7</title>
<path fill="none" stroke="midnightblue" d="M1023.59,-128.64C1006.04,-116.37 984.41,-101.26 971.17,-92.01"/>
<polygon fill="midnightblue" stroke="midnightblue" points="1021.62,-131.54 1031.82,-134.4 1025.63,-125.8 1021.62,-131.54"/>
</g>
<!-- Node6&#45;&gt;Node8 -->
<g id="edge8" class="edge">
<title>Node6&#45;&gt;Node8</title>
<path fill="none" stroke="midnightblue" d="M970.29,-133.58C910.87,-122.73 830.97,-108.14 772.74,-97.51"/>
<polygon fill="midnightblue" stroke="midnightblue" points="969.92,-137.07 980.39,-135.42 971.18,-130.19 969.92,-137.07"/>
</g>
<!-- Node9 -->
<g id="node9" class="node">
<title>Node9</title>
<g id="a_node9"><a xlink:href="ARMISelDAGToDAG_8cpp.html" target="_top" xlink:title=" ">
<polygon fill="none" stroke="black" points="1063.5,-67.5 1063.5,-97.5 1226.5,-97.5 1226.5,-67.5 1063.5,-67.5"/>
<text text-anchor="start" x="1071.5" y="-85.5" font-family="Helvetica,sans-Serif" font-size="10.00">lib/Target/ARM/ARMISelDAGTo</text>
<text text-anchor="middle" x="1145" y="-74.5" font-family="Helvetica,sans-Serif" font-size="10.00">DAG.cpp</text>
</a>
</g>
</g>
<!-- Node6&#45;&gt;Node9 -->
<g id="edge9" class="edge">
<title>Node6&#45;&gt;Node9</title>
<path fill="none" stroke="midnightblue" d="M1080.69,-128.45C1094.99,-118.45 1111.95,-106.6 1124.86,-97.58"/>
<polygon fill="midnightblue" stroke="midnightblue" points="1078.37,-125.8 1072.18,-134.4 1082.38,-131.54 1078.37,-125.8"/>
</g>
<!-- Node6&#45;&gt;Node10 -->
<g id="edge10" class="edge">
<title>Node6&#45;&gt;Node10</title>
<path fill="none" stroke="midnightblue" d="M1133.56,-143.15C1240.17,-135.64 1432.59,-120.35 1596,-98 1598.66,-97.64 1601.36,-97.25 1604.09,-96.84"/>
<polygon fill="midnightblue" stroke="midnightblue" points="1133.24,-139.66 1123.51,-143.85 1133.73,-146.64 1133.24,-139.66"/>
</g>
<!-- Node12 -->
<g id="node12" class="node">
<title>Node12</title>
<g id="a_node12"><a xlink:href="ARMSelectionDAGInfo_8cpp.html" target="_top" xlink:title=" ">
<polygon fill="none" stroke="black" points="1125,-0.5 1125,-30.5 1283,-30.5 1283,-0.5 1125,-0.5"/>
<text text-anchor="start" x="1133" y="-18.5" font-family="Helvetica,sans-Serif" font-size="10.00">lib/Target/ARM/ARMSelection</text>
<text text-anchor="middle" x="1204" y="-7.5" font-family="Helvetica,sans-Serif" font-size="10.00">DAGInfo.cpp</text>
</a>
</g>
</g>
<!-- Node6&#45;&gt;Node12 -->
<g id="edge16" class="edge">
<title>Node6&#45;&gt;Node12</title>
<path fill="none" stroke="midnightblue" d="M970.23,-139.91C904.31,-129.77 828.03,-108.7 864,-67 896.98,-28.76 1034.97,-19.01 1124.69,-16.79"/>
<polygon fill="midnightblue" stroke="midnightblue" points="969.89,-143.4 980.29,-141.39 970.9,-136.47 969.89,-143.4"/>
</g>
<!-- Node6&#45;&gt;Node13 -->
<g id="edge18" class="edge">
<title>Node6&#45;&gt;Node13</title>
<path fill="none" stroke="midnightblue" d="M970.39,-143.39C930.66,-137.33 884.21,-124.57 850,-98 827.78,-80.74 815.38,-48.99 809.75,-30.63"/>
<polygon fill="midnightblue" stroke="midnightblue" points="969.95,-146.86 980.34,-144.79 970.92,-139.93 969.95,-146.86"/>
</g>
<!-- Node6&#45;&gt;Node16 -->
<g id="edge17" class="edge">
<title>Node6&#45;&gt;Node16</title>
<path fill="none" stroke="midnightblue" d="M1122.84,-132.23C1178.41,-119.47 1253.53,-102.21 1297.87,-92.03"/>
<polygon fill="midnightblue" stroke="midnightblue" points="1122.02,-128.83 1113.06,-134.48 1123.59,-135.65 1122.02,-128.83"/>
</g>
<!-- Node6&#45;&gt;Node17 -->
<g id="edge19" class="edge">
<title>Node6&#45;&gt;Node17</title>
<path fill="none" stroke="midnightblue" d="M1133.77,-138.79C1211.23,-129.33 1330.73,-114.06 1434,-98 1437.11,-97.52 1440.28,-97.01 1443.48,-96.49"/>
<polygon fill="midnightblue" stroke="midnightblue" points="1133.1,-135.34 1123.6,-140.03 1133.95,-142.29 1133.1,-135.34"/>
</g>
<!-- Node10&#45;&gt;Node11 -->
<g id="edge11" class="edge">
<title>Node10&#45;&gt;Node11</title>
<path fill="none" stroke="midnightblue" d="M1641.46,-62.47C1618.93,-50.06 1590.63,-34.47 1573.44,-25.01"/>
<polygon fill="midnightblue" stroke="midnightblue" points="1639.95,-65.64 1650.4,-67.4 1643.33,-59.51 1639.95,-65.64"/>
</g>
<!-- Node10&#45;&gt;Node12 -->
<g id="edge12" class="edge">
<title>Node10&#45;&gt;Node12</title>
<path fill="none" stroke="midnightblue" d="M1594.18,-66.76C1480.77,-49.37 1360.05,-34.5 1283,-25.47"/>
<polygon fill="midnightblue" stroke="midnightblue" points="1593.65,-70.22 1604.07,-68.28 1594.72,-63.3 1593.65,-70.22"/>
</g>
<!-- Node10&#45;&gt;Node13 -->
<g id="edge13" class="edge">
<title>Node10&#45;&gt;Node13</title>
<path fill="none" stroke="midnightblue" d="M1593.86,-66.85C1439.62,-49.18 1041.22,-28.21 877.61,-20.01"/>
<polygon fill="midnightblue" stroke="midnightblue" points="1593.76,-70.36 1604.1,-68.06 1594.58,-63.41 1593.76,-70.36"/>
</g>
<!-- Node10&#45;&gt;Node14 -->
<g id="edge14" class="edge">
<title>Node10&#45;&gt;Node14</title>
<path fill="none" stroke="midnightblue" d="M1698.49,-60.31C1708.84,-50.56 1720.84,-39.26 1730.06,-30.58"/>
<polygon fill="midnightblue" stroke="midnightblue" points="1695.85,-57.99 1690.97,-67.4 1700.65,-63.09 1695.85,-57.99"/>
</g>
<!-- Node10&#45;&gt;Node15 -->
<g id="edge15" class="edge">
<title>Node10&#45;&gt;Node15</title>
<path fill="none" stroke="midnightblue" d="M1742.04,-64.99C1792.99,-52.25 1861.41,-35.15 1901.89,-25.03"/>
<polygon fill="midnightblue" stroke="midnightblue" points="1740.95,-61.66 1732.1,-67.48 1742.65,-68.45 1740.95,-61.66"/>
</g>
</g>
</svg>
