<?xml version="1.0" encoding="UTF-8" standalone="no"?>
<!DOCTYPE svg PUBLIC "-//W3C//DTD SVG 1.1//EN"
 "http://www.w3.org/Graphics/SVG/1.1/DTD/svg11.dtd">
<!-- Generated by graphviz version 2.43.0 (0)
 -->
<!-- Title: include/llvm/Bitcode/BitcodeReader.h Pages: 1 -->
<svg width="4079pt" height="498pt"
 viewBox="0.00 0.00 4079.00 498.00" xmlns="http://www.w3.org/2000/svg" xmlns:xlink="http://www.w3.org/1999/xlink">
<g id="graph0" class="graph" transform="scale(1 1) rotate(0) translate(4 494)">
<title>include/llvm/Bitcode/BitcodeReader.h</title>
<!-- Node1 -->
<g id="node1" class="node">
<title>Node1</title>
<g id="a_node1"><a xlink:title=" ">
<polygon fill="#bfbfbf" stroke="black" points="1583,-459.5 1583,-489.5 1699,-489.5 1699,-459.5 1583,-459.5"/>
<text text-anchor="start" x="1591" y="-477.5" font-family="Helvetica,sans-Serif" font-size="10.00">include/llvm/Bitcode</text>
<text text-anchor="middle" x="1641" y="-466.5" font-family="Helvetica,sans-Serif" font-size="10.00">/BitcodeReader.h</text>
</a>
</g>
</g>
<!-- Node2 -->
<g id="node2" class="node">
<title>Node2</title>
<g id="a_node2"><a xlink:href="ArrayRef_8h.html" target="_top" xlink:title=" ">
<polygon fill="none" stroke="black" points="1416,-286 1416,-305 1532,-305 1532,-286 1416,-286"/>
<text text-anchor="middle" x="1474" y="-293" font-family="Helvetica,sans-Serif" font-size="10.00">llvm/ADT/ArrayRef.h</text>
</a>
</g>
</g>
<!-- Node1&#45;&gt;Node2 -->
<g id="edge1" class="edge">
<title>Node1&#45;&gt;Node2</title>
<path fill="none" stroke="midnightblue" d="M1615.95,-459.41C1601.34,-450.33 1583.24,-437.54 1570,-423 1543.72,-394.14 1550,-377.78 1526,-347 1515.98,-334.16 1502.81,-321.4 1492.22,-311.91"/>
<polygon fill="midnightblue" stroke="midnightblue" points="1494.23,-309.02 1484.4,-305.07 1489.63,-314.29 1494.23,-309.02"/>
</g>
<!-- Node15 -->
<g id="node9" class="node">
<title>Node15</title>
<g id="a_node9"><a xlink:title=" ">
<polygon fill="none" stroke="#bfbfbf" points="513,-0.5 513,-19.5 563,-19.5 563,-0.5 513,-0.5"/>
<text text-anchor="middle" x="538" y="-7.5" font-family="Helvetica,sans-Serif" font-size="10.00">cstdint</text>
</a>
</g>
</g>
<!-- Node1&#45;&gt;Node15 -->
<g id="edge178" class="edge">
<title>Node1&#45;&gt;Node15</title>
<path fill="none" stroke="midnightblue" d="M1582.69,-473.14C1352.64,-471.46 507.65,-462.66 243,-423 132.44,-406.43 0,-469.8 0,-358 0,-358 0,-358 0,-121 0,-78.87 30.63,-73.39 69,-56 146.38,-20.92 407.02,-13.14 502.54,-11.45"/>
<polygon fill="midnightblue" stroke="midnightblue" points="502.88,-14.95 512.82,-11.29 502.77,-7.95 502.88,-14.95"/>
</g>
<!-- Node23 -->
<g id="node16" class="node">
<title>Node23</title>
<g id="a_node16"><a xlink:title=" ">
<polygon fill="none" stroke="#bfbfbf" points="446,-56.5 446,-75.5 490,-75.5 490,-56.5 446,-56.5"/>
<text text-anchor="middle" x="468" y="-63.5" font-family="Helvetica,sans-Serif" font-size="10.00">string</text>
</a>
</g>
</g>
<!-- Node1&#45;&gt;Node23 -->
<g id="edge180" class="edge">
<title>Node1&#45;&gt;Node23</title>
<path fill="none" stroke="midnightblue" d="M1582.62,-472.78C1344.29,-469.62 451.82,-455.7 330,-423 227.08,-395.37 173.01,-402.27 118,-311 36.3,-175.43 334.86,-96.18 435.78,-73.68"/>
<polygon fill="midnightblue" stroke="midnightblue" points="436.71,-77.06 445.73,-71.51 435.21,-70.23 436.71,-77.06"/>
</g>
<!-- Node32 -->
<g id="node25" class="node">
<title>Node32</title>
<g id="a_node25"><a xlink:title=" ">
<polygon fill="none" stroke="#bfbfbf" points="1687,-112.5 1687,-131.5 1745,-131.5 1745,-112.5 1687,-112.5"/>
<text text-anchor="middle" x="1716" y="-119.5" font-family="Helvetica,sans-Serif" font-size="10.00">memory</text>
</a>
</g>
</g>
<!-- Node1&#45;&gt;Node32 -->
<g id="edge179" class="edge">
<title>Node1&#45;&gt;Node32</title>
<path fill="none" stroke="midnightblue" d="M1626.12,-459.1C1617.55,-449.73 1607.59,-436.74 1603,-423 1600.18,-414.57 1600.62,-411.56 1603,-403 1632.24,-297.99 1700.72,-295.1 1721,-188 1723.9,-172.69 1722.23,-155.05 1720.08,-142.01"/>
<polygon fill="midnightblue" stroke="midnightblue" points="1723.46,-141.08 1718.15,-131.91 1716.59,-142.39 1723.46,-141.08"/>
</g>
<!-- Node44 -->
<g id="node35" class="node">
<title>Node44</title>
<g id="a_node35"><a xlink:title=" ">
<polygon fill="none" stroke="#bfbfbf" points="256.5,-224.5 256.5,-243.5 303.5,-243.5 303.5,-224.5 256.5,-224.5"/>
<text text-anchor="middle" x="280" y="-231.5" font-family="Helvetica,sans-Serif" font-size="10.00">vector</text>
</a>
</g>
</g>
<!-- Node1&#45;&gt;Node44 -->
<g id="edge182" class="edge">
<title>Node1&#45;&gt;Node44</title>
<path fill="none" stroke="midnightblue" d="M1582.63,-472.27C1339.12,-466.69 411.99,-440.74 306,-367 270.3,-342.16 272.78,-283.62 276.78,-253.54"/>
<polygon fill="midnightblue" stroke="midnightblue" points="280.26,-253.96 278.32,-243.54 273.34,-252.89 280.26,-253.96"/>
</g>
<!-- Node45 -->
<g id="node36" class="node">
<title>Node45</title>
<g id="a_node36"><a xlink:href="StringRef_8h.html" target="_top" xlink:title=" ">
<polygon fill="none" stroke="black" points="2739,-168.5 2739,-187.5 2857,-187.5 2857,-168.5 2739,-168.5"/>
<text text-anchor="middle" x="2798" y="-175.5" font-family="Helvetica,sans-Serif" font-size="10.00">llvm/ADT/StringRef.h</text>
</a>
</g>
</g>
<!-- Node1&#45;&gt;Node45 -->
<g id="edge83" class="edge">
<title>Node1&#45;&gt;Node45</title>
<path fill="none" stroke="midnightblue" d="M1699.21,-473.99C2018.03,-476.01 3542.49,-476.93 3656,-311 3735.52,-194.76 4079.07,-328.86 3187,-224 3075.21,-210.86 2945.31,-195.89 2867.48,-186.96"/>
<polygon fill="midnightblue" stroke="midnightblue" points="2867.65,-183.46 2857.32,-185.79 2866.86,-190.41 2867.65,-183.46"/>
</g>
<!-- Node47 -->
<g id="node38" class="node">
<title>Node47</title>
<g id="a_node38"><a xlink:href="BitCodeEnums_8h.html" target="_top" xlink:title=" ">
<polygon fill="none" stroke="black" points="1612.5,-403.5 1612.5,-422.5 1785.5,-422.5 1785.5,-403.5 1612.5,-403.5"/>
<text text-anchor="middle" x="1699" y="-410.5" font-family="Helvetica,sans-Serif" font-size="10.00">llvm/Bitstream/BitCodeEnums.h</text>
</a>
</g>
</g>
<!-- Node1&#45;&gt;Node47 -->
<g id="edge101" class="edge">
<title>Node1&#45;&gt;Node47</title>
<path fill="none" stroke="midnightblue" d="M1654.75,-459.4C1663.35,-450.58 1674.45,-439.18 1683.39,-430.02"/>
<polygon fill="midnightblue" stroke="midnightblue" points="1686.09,-432.26 1690.56,-422.66 1681.07,-427.38 1686.09,-432.26"/>
</g>
<!-- Node48 -->
<g id="node39" class="node">
<title>Node48</title>
<g id="a_node39"><a xlink:href="Endian_8h.html" target="_top" xlink:title=" ">
<polygon fill="none" stroke="black" points="1053,-112.5 1053,-131.5 1177,-131.5 1177,-112.5 1053,-112.5"/>
<text text-anchor="middle" x="1115" y="-119.5" font-family="Helvetica,sans-Serif" font-size="10.00">llvm/Support/Endian.h</text>
</a>
</g>
</g>
<!-- Node1&#45;&gt;Node48 -->
<g id="edge102" class="edge">
<title>Node1&#45;&gt;Node48</title>
<path fill="none" stroke="midnightblue" d="M1583,-473.31C1374.86,-472.26 666.15,-465.59 444,-423 370.01,-408.81 336.08,-421.45 284,-367 238.62,-319.56 203.34,-273.03 247,-224 299.68,-164.83 844.21,-134.98 1042.93,-125.99"/>
<polygon fill="midnightblue" stroke="midnightblue" points="1043.14,-129.49 1052.97,-125.54 1042.83,-122.49 1043.14,-129.49"/>
</g>
<!-- Node49 -->
<g id="node40" class="node">
<title>Node49</title>
<g id="a_node40"><a xlink:href="Support_2Error_8h.html" target="_top" xlink:title=" ">
<polygon fill="none" stroke="black" points="1803.5,-403.5 1803.5,-422.5 1916.5,-422.5 1916.5,-403.5 1803.5,-403.5"/>
<text text-anchor="middle" x="1860" y="-410.5" font-family="Helvetica,sans-Serif" font-size="10.00">llvm/Support/Error.h</text>
</a>
</g>
</g>
<!-- Node1&#45;&gt;Node49 -->
<g id="edge110" class="edge">
<title>Node1&#45;&gt;Node49</title>
<path fill="none" stroke="midnightblue" d="M1692.62,-459.47C1731.06,-449.03 1782.86,-434.96 1818.6,-425.25"/>
<polygon fill="midnightblue" stroke="midnightblue" points="1819.96,-428.51 1828.69,-422.51 1818.12,-421.75 1819.96,-428.51"/>
</g>
<!-- Node62 -->
<g id="node46" class="node">
<title>Node62</title>
<g id="a_node46"><a xlink:href="ErrorOr_8h.html" target="_top" xlink:title=" ">
<polygon fill="none" stroke="black" points="3741.5,-224.5 3741.5,-243.5 3866.5,-243.5 3866.5,-224.5 3741.5,-224.5"/>
<text text-anchor="middle" x="3804" y="-231.5" font-family="Helvetica,sans-Serif" font-size="10.00">llvm/Support/ErrorOr.h</text>
</a>
</g>
</g>
<!-- Node1&#45;&gt;Node62 -->
<g id="edge175" class="edge">
<title>Node1&#45;&gt;Node62</title>
<path fill="none" stroke="midnightblue" d="M1699.04,-473.27C2042.25,-471.78 3792.65,-462.25 3831,-423 3876.5,-376.44 3835.76,-289.87 3814.74,-252.7"/>
<polygon fill="midnightblue" stroke="midnightblue" points="3817.49,-250.47 3809.42,-243.6 3811.44,-254 3817.49,-250.47"/>
</g>
<!-- Node63 -->
<g id="node47" class="node">
<title>Node63</title>
<g id="a_node47"><a xlink:title=" ">
<polygon fill="none" stroke="#bfbfbf" points="3923.5,-168.5 3923.5,-187.5 4004.5,-187.5 4004.5,-168.5 3923.5,-168.5"/>
<text text-anchor="middle" x="3964" y="-175.5" font-family="Helvetica,sans-Serif" font-size="10.00">system_error</text>
</a>
</g>
</g>
<!-- Node1&#45;&gt;Node63 -->
<g id="edge181" class="edge">
<title>Node1&#45;&gt;Node63</title>
<path fill="none" stroke="midnightblue" d="M1699.14,-473.44C2026.74,-472.95 3635.25,-468.21 3851,-423 3925.32,-407.43 4009,-433.93 4009,-358 4009,-358 4009,-358 4009,-294.5 4009,-257.38 3988.57,-217.85 3975.24,-196.01"/>
<polygon fill="midnightblue" stroke="midnightblue" points="3978.19,-194.12 3969.88,-187.54 3972.27,-197.86 3978.19,-194.12"/>
</g>
<!-- Node67 -->
<g id="node50" class="node">
<title>Node67</title>
<g id="a_node50"><a xlink:href="MemoryBufferRef_8h.html" target="_top" xlink:title=" ">
<polygon fill="none" stroke="black" points="3495,-280.5 3495,-310.5 3647,-310.5 3647,-280.5 3495,-280.5"/>
<text text-anchor="start" x="3503" y="-298.5" font-family="Helvetica,sans-Serif" font-size="10.00">llvm/Support/MemoryBuffer</text>
<text text-anchor="middle" x="3571" y="-287.5" font-family="Helvetica,sans-Serif" font-size="10.00">Ref.h</text>
</a>
</g>
</g>
<!-- Node1&#45;&gt;Node67 -->
<g id="edge176" class="edge">
<title>Node1&#45;&gt;Node67</title>
<path fill="none" stroke="midnightblue" d="M1699.46,-472.19C1994.33,-465.31 3311.03,-431.2 3481,-367 3508.53,-356.6 3534.37,-334.59 3551.23,-317.92"/>
<polygon fill="midnightblue" stroke="midnightblue" points="3553.82,-320.28 3558.32,-310.69 3548.82,-315.38 3553.82,-320.28"/>
</g>
<!-- Node3 -->
<g id="node3" class="node">
<title>Node3</title>
<g id="a_node3"><a xlink:href="Hashing_8h.html" target="_top" xlink:title=" ">
<polygon fill="none" stroke="black" points="1403.5,-112.5 1403.5,-131.5 1516.5,-131.5 1516.5,-112.5 1403.5,-112.5"/>
<text text-anchor="middle" x="1460" y="-119.5" font-family="Helvetica,sans-Serif" font-size="10.00">llvm/ADT/Hashing.h</text>
</a>
</g>
</g>
<!-- Node2&#45;&gt;Node3 -->
<g id="edge2" class="edge">
<title>Node2&#45;&gt;Node3</title>
<path fill="none" stroke="midnightblue" d="M1456.12,-285.94C1440.97,-277.6 1420.28,-263.33 1411,-244 1402.35,-225.98 1416.1,-182.3 1423,-168 1428.14,-157.34 1436.31,-147.03 1443.67,-138.97"/>
<polygon fill="midnightblue" stroke="midnightblue" points="1446.22,-141.37 1450.61,-131.73 1441.16,-136.52 1446.22,-141.37"/>
</g>
<!-- Node10 -->
<g id="node6" class="node">
<title>Node10</title>
<g id="a_node6"><a xlink:href="Compiler_8h.html" target="_top" xlink:title=" ">
<polygon fill="none" stroke="red" points="878,-0.5 878,-19.5 1012,-19.5 1012,-0.5 878,-0.5"/>
<text text-anchor="middle" x="945" y="-7.5" font-family="Helvetica,sans-Serif" font-size="10.00">llvm/Support/Compiler.h</text>
</a>
</g>
</g>
<!-- Node2&#45;&gt;Node10 -->
<g id="edge73" class="edge">
<title>Node2&#45;&gt;Node10</title>
<path fill="none" stroke="midnightblue" d="M1415.98,-293.87C1229.54,-291.5 653.55,-281.19 579,-244 491.52,-200.36 470.6,-167.81 437,-76 433.94,-67.65 431,-62.56 437,-56 465.46,-24.91 732.63,-15.17 867.66,-12.23"/>
<polygon fill="midnightblue" stroke="midnightblue" points="868.01,-15.72 877.94,-12.01 867.87,-8.72 868.01,-15.72"/>
</g>
<!-- Node14 -->
<g id="node8" class="node">
<title>Node14</title>
<g id="a_node8"><a xlink:title=" ">
<polygon fill="none" stroke="#bfbfbf" points="1631.5,-0.5 1631.5,-19.5 1684.5,-19.5 1684.5,-0.5 1631.5,-0.5"/>
<text text-anchor="middle" x="1658" y="-7.5" font-family="Helvetica,sans-Serif" font-size="10.00">cstddef</text>
</a>
</g>
</g>
<!-- Node2&#45;&gt;Node14 -->
<g id="edge77" class="edge">
<title>Node2&#45;&gt;Node14</title>
<path fill="none" stroke="midnightblue" d="M1451.57,-285.85C1394.41,-262.4 1250.69,-193.86 1293,-112 1312.76,-73.77 1332.13,-72.22 1372,-56 1456.64,-21.57 1565.28,-13.35 1621.17,-11.47"/>
<polygon fill="midnightblue" stroke="midnightblue" points="1621.4,-14.97 1631.29,-11.18 1621.2,-7.97 1621.4,-14.97"/>
</g>
<!-- Node16 -->
<g id="node10" class="node">
<title>Node16</title>
<g id="a_node10"><a xlink:title=" ">
<polygon fill="none" stroke="#bfbfbf" points="3206.5,-0.5 3206.5,-19.5 3275.5,-19.5 3275.5,-0.5 3206.5,-0.5"/>
<text text-anchor="middle" x="3241" y="-7.5" font-family="Helvetica,sans-Serif" font-size="10.00">type_traits</text>
</a>
</g>
</g>
<!-- Node2&#45;&gt;Node16 -->
<g id="edge81" class="edge">
<title>Node2&#45;&gt;Node16</title>
<path fill="none" stroke="midnightblue" d="M1532.28,-294.83C1774.54,-295.5 2725.44,-291.02 3498,-188 3512.86,-186.02 3752.56,-143.65 3762,-132 3824.17,-55.26 3423.34,-22.51 3285.99,-13.63"/>
<polygon fill="midnightblue" stroke="midnightblue" points="3286.01,-10.12 3275.81,-12.98 3285.57,-17.11 3286.01,-10.12"/>
</g>
<!-- Node20 -->
<g id="node13" class="node">
<title>Node20</title>
<g id="a_node13"><a xlink:title=" ">
<polygon fill="none" stroke="#bfbfbf" points="1671,-56.5 1671,-75.5 1735,-75.5 1735,-56.5 1671,-56.5"/>
<text text-anchor="middle" x="1703" y="-63.5" font-family="Helvetica,sans-Serif" font-size="10.00">algorithm</text>
</a>
</g>
</g>
<!-- Node2&#45;&gt;Node20 -->
<g id="edge74" class="edge">
<title>Node2&#45;&gt;Node20</title>
<path fill="none" stroke="midnightblue" d="M1465.16,-285.63C1452.77,-272.09 1432.95,-245.54 1444,-224 1487.54,-139.14 1599.42,-95.71 1660.93,-77.61"/>
<polygon fill="midnightblue" stroke="midnightblue" points="1662.06,-80.92 1670.71,-74.82 1660.14,-74.19 1662.06,-80.92"/>
</g>
<!-- Node21 -->
<g id="node14" class="node">
<title>Node21</title>
<g id="a_node14"><a xlink:title=" ">
<polygon fill="none" stroke="#bfbfbf" points="2210,-56.5 2210,-75.5 2262,-75.5 2262,-56.5 2210,-56.5"/>
<text text-anchor="middle" x="2236" y="-63.5" font-family="Helvetica,sans-Serif" font-size="10.00">cassert</text>
</a>
</g>
</g>
<!-- Node2&#45;&gt;Node21 -->
<g id="edge76" class="edge">
<title>Node2&#45;&gt;Node21</title>
<path fill="none" stroke="midnightblue" d="M1532.25,-290.25C1609.94,-283.86 1751.47,-269.69 1870,-244 1952.3,-226.16 1971.82,-216.67 2051,-188 2072.73,-180.13 2077.47,-176.4 2099,-168 2142.62,-150.99 2162.05,-161.99 2198,-132 2212.86,-119.6 2223.24,-99.8 2229.36,-85.31"/>
<polygon fill="midnightblue" stroke="midnightblue" points="2232.66,-86.46 2233.06,-75.88 2226.15,-83.91 2232.66,-86.46"/>
</g>
<!-- Node25 -->
<g id="node18" class="node">
<title>Node25</title>
<g id="a_node18"><a xlink:href="None_8h.html" target="_top" xlink:title=" ">
<polygon fill="none" stroke="black" points="669.5,-112.5 669.5,-131.5 768.5,-131.5 768.5,-112.5 669.5,-112.5"/>
<text text-anchor="middle" x="719" y="-119.5" font-family="Helvetica,sans-Serif" font-size="10.00">llvm/ADT/None.h</text>
</a>
</g>
</g>
<!-- Node2&#45;&gt;Node25 -->
<g id="edge20" class="edge">
<title>Node2&#45;&gt;Node25</title>
<path fill="none" stroke="midnightblue" d="M1415.76,-293.63C1326.27,-291.09 1150.19,-281.32 1006,-244 904.62,-217.76 792.39,-161.98 743.73,-136.36"/>
<polygon fill="midnightblue" stroke="midnightblue" points="745.08,-133.12 734.61,-131.52 741.8,-139.3 745.08,-133.12"/>
</g>
<!-- Node26 -->
<g id="node19" class="node">
<title>Node26</title>
<g id="a_node19"><a xlink:href="SmallVector_8h.html" target="_top" xlink:title=" ">
<polygon fill="none" stroke="black" points="1877.5,-168.5 1877.5,-187.5 2008.5,-187.5 2008.5,-168.5 1877.5,-168.5"/>
<text text-anchor="middle" x="1943" y="-175.5" font-family="Helvetica,sans-Serif" font-size="10.00">llvm/ADT/SmallVector.h</text>
</a>
</g>
</g>
<!-- Node2&#45;&gt;Node26 -->
<g id="edge21" class="edge">
<title>Node2&#45;&gt;Node26</title>
<path fill="none" stroke="midnightblue" d="M1527.91,-285.94C1576.43,-277.56 1649.35,-263.23 1711,-244 1733.06,-237.12 1737.04,-231.21 1759,-224 1802.41,-209.74 1852.9,-197.71 1889.99,-189.68"/>
<polygon fill="midnightblue" stroke="midnightblue" points="1891.04,-193.04 1900.09,-187.52 1889.57,-186.19 1891.04,-193.04"/>
</g>
<!-- Node29 -->
<g id="node22" class="node">
<title>Node29</title>
<g id="a_node22"><a xlink:title=" ">
<polygon fill="none" stroke="#bfbfbf" points="2105.5,-112.5 2105.5,-131.5 2188.5,-131.5 2188.5,-112.5 2105.5,-112.5"/>
<text text-anchor="middle" x="2147" y="-119.5" font-family="Helvetica,sans-Serif" font-size="10.00">initializer_list</text>
</a>
</g>
</g>
<!-- Node2&#45;&gt;Node29 -->
<g id="edge78" class="edge">
<title>Node2&#45;&gt;Node29</title>
<path fill="none" stroke="midnightblue" d="M1532.2,-288.62C1633.31,-277.21 1846.96,-247.73 2018,-188 2028.55,-184.32 2086.95,-154.25 2121.45,-136.33"/>
<polygon fill="midnightblue" stroke="midnightblue" points="2123.23,-139.35 2130.48,-131.63 2120,-133.14 2123.23,-139.35"/>
</g>
<!-- Node30 -->
<g id="node23" class="node">
<title>Node30</title>
<g id="a_node23"><a xlink:title=" ">
<polygon fill="none" stroke="#bfbfbf" points="598.5,-112.5 598.5,-131.5 651.5,-131.5 651.5,-112.5 598.5,-112.5"/>
<text text-anchor="middle" x="625" y="-119.5" font-family="Helvetica,sans-Serif" font-size="10.00">iterator</text>
</a>
</g>
</g>
<!-- Node2&#45;&gt;Node30 -->
<g id="edge79" class="edge">
<title>Node2&#45;&gt;Node30</title>
<path fill="none" stroke="midnightblue" d="M1415.76,-294.18C1316.57,-292.5 1109.06,-283.99 939,-244 828.18,-217.94 704.13,-161.44 651.2,-135.94"/>
<polygon fill="midnightblue" stroke="midnightblue" points="652.69,-132.78 642.17,-131.56 649.64,-139.07 652.69,-132.78"/>
</g>
<!-- Node2&#45;&gt;Node32 -->
<g id="edge80" class="edge">
<title>Node2&#45;&gt;Node32</title>
<path fill="none" stroke="midnightblue" d="M1532.07,-286.57C1584.67,-278.26 1657.07,-263.68 1678,-244 1706.65,-217.07 1713.82,-168.83 1715.54,-142.12"/>
<polygon fill="midnightblue" stroke="midnightblue" points="1719.05,-141.96 1715.99,-131.81 1712.05,-141.65 1719.05,-141.96"/>
</g>
<!-- Node34 -->
<g id="node27" class="node">
<title>Node34</title>
<g id="a_node27"><a xlink:href="STLExtras_8h.html" target="_top" xlink:title=" ">
<polygon fill="none" stroke="red" points="2370,-224.5 2370,-243.5 2492,-243.5 2492,-224.5 2370,-224.5"/>
<text text-anchor="middle" x="2431" y="-231.5" font-family="Helvetica,sans-Serif" font-size="10.00">llvm/ADT/STLExtras.h</text>
</a>
</g>
</g>
<!-- Node2&#45;&gt;Node34 -->
<g id="edge37" class="edge">
<title>Node2&#45;&gt;Node34</title>
<path fill="none" stroke="midnightblue" d="M1532.07,-290.89C1698.7,-280.53 2178.09,-250.72 2359.91,-239.42"/>
<polygon fill="midnightblue" stroke="midnightblue" points="2360.14,-242.91 2369.9,-238.8 2359.71,-235.93 2360.14,-242.91"/>
</g>
<!-- Node43 -->
<g id="node34" class="node">
<title>Node43</title>
<g id="a_node34"><a xlink:title=" ">
<polygon fill="none" stroke="#bfbfbf" points="1453,-224.5 1453,-243.5 1495,-243.5 1495,-224.5 1453,-224.5"/>
<text text-anchor="middle" x="1474" y="-231.5" font-family="Helvetica,sans-Serif" font-size="10.00">array</text>
</a>
</g>
</g>
<!-- Node2&#45;&gt;Node43 -->
<g id="edge75" class="edge">
<title>Node2&#45;&gt;Node43</title>
<path fill="none" stroke="midnightblue" d="M1474,-285.98C1474,-277.58 1474,-264.48 1474,-253.66"/>
<polygon fill="midnightblue" stroke="midnightblue" points="1477.5,-253.51 1474,-243.51 1470.5,-253.51 1477.5,-253.51"/>
</g>
<!-- Node2&#45;&gt;Node44 -->
<g id="edge82" class="edge">
<title>Node2&#45;&gt;Node44</title>
<path fill="none" stroke="midnightblue" d="M1415.6,-291.59C1203.71,-281.03 479.16,-244.92 313.79,-236.68"/>
<polygon fill="midnightblue" stroke="midnightblue" points="313.88,-233.18 303.72,-236.18 313.53,-240.18 313.88,-233.18"/>
</g>
<!-- Node4 -->
<g id="node4" class="node">
<title>Node4</title>
<g id="a_node4"><a xlink:href="Support_2DataTypes_8h.html" target="_top" xlink:title=" ">
<polygon fill="none" stroke="red" points="1381,-56.5 1381,-75.5 1523,-75.5 1523,-56.5 1381,-56.5"/>
<text text-anchor="middle" x="1452" y="-63.5" font-family="Helvetica,sans-Serif" font-size="10.00">llvm/Support/DataTypes.h</text>
</a>
</g>
</g>
<!-- Node3&#45;&gt;Node4 -->
<g id="edge3" class="edge">
<title>Node3&#45;&gt;Node4</title>
<path fill="none" stroke="midnightblue" d="M1458.68,-112.08C1457.62,-104.93 1456.09,-94.64 1454.77,-85.69"/>
<polygon fill="midnightblue" stroke="midnightblue" points="1458.22,-85.13 1453.3,-75.75 1451.3,-86.16 1458.22,-85.13"/>
</g>
<!-- Node9 -->
<g id="node5" class="node">
<title>Node9</title>
<g id="a_node5"><a xlink:href="Support_2ErrorHandling_8h.html" target="_top" xlink:title=" ">
<polygon fill="none" stroke="black" points="687,-56.5 687,-75.5 845,-75.5 845,-56.5 687,-56.5"/>
<text text-anchor="middle" x="766" y="-63.5" font-family="Helvetica,sans-Serif" font-size="10.00">llvm/Support/ErrorHandling.h</text>
</a>
</g>
</g>
<!-- Node3&#45;&gt;Node9 -->
<g id="edge4" class="edge">
<title>Node3&#45;&gt;Node9</title>
<path fill="none" stroke="midnightblue" d="M1403.45,-113.55C1398.57,-112.99 1393.7,-112.47 1389,-112 1375.91,-110.7 1024.31,-85.49 855.21,-73.38"/>
<polygon fill="midnightblue" stroke="midnightblue" points="855.3,-69.88 845.08,-72.66 854.8,-76.86 855.3,-69.88"/>
</g>
<!-- Node13 -->
<g id="node7" class="node">
<title>Node13</title>
<g id="a_node7"><a xlink:href="SwapByteOrder_8h.html" target="_top" xlink:title=" ">
<polygon fill="none" stroke="red" points="1121,-56.5 1121,-75.5 1287,-75.5 1287,-56.5 1121,-56.5"/>
<text text-anchor="middle" x="1204" y="-63.5" font-family="Helvetica,sans-Serif" font-size="10.00">llvm/Support/SwapByteOrder.h</text>
</a>
</g>
</g>
<!-- Node3&#45;&gt;Node13 -->
<g id="edge6" class="edge">
<title>Node3&#45;&gt;Node13</title>
<path fill="none" stroke="midnightblue" d="M1419.44,-112.44C1374.68,-103 1302.62,-87.8 1254.3,-77.61"/>
<polygon fill="midnightblue" stroke="midnightblue" points="1254.88,-74.16 1244.37,-75.52 1253.44,-81.01 1254.88,-74.16"/>
</g>
<!-- Node18 -->
<g id="node11" class="node">
<title>Node18</title>
<g id="a_node11"><a xlink:href="type__traits_8h.html" target="_top" xlink:title=" ">
<polygon fill="none" stroke="black" points="1791.5,-56.5 1791.5,-75.5 1934.5,-75.5 1934.5,-56.5 1791.5,-56.5"/>
<text text-anchor="middle" x="1863" y="-63.5" font-family="Helvetica,sans-Serif" font-size="10.00">llvm/Support/type_traits.h</text>
</a>
</g>
</g>
<!-- Node3&#45;&gt;Node18 -->
<g id="edge10" class="edge">
<title>Node3&#45;&gt;Node18</title>
<path fill="none" stroke="midnightblue" d="M1516.89,-113.38C1588.21,-103.82 1710.63,-87.42 1789.13,-76.9"/>
<polygon fill="midnightblue" stroke="midnightblue" points="1789.98,-80.32 1799.43,-75.52 1789.05,-73.38 1789.98,-80.32"/>
</g>
<!-- Node19 -->
<g id="node12" class="node">
<title>Node19</title>
<g id="a_node12"><a xlink:title=" ">
<polygon fill="none" stroke="#bfbfbf" points="3520.5,-0.5 3520.5,-19.5 3565.5,-19.5 3565.5,-0.5 3520.5,-0.5"/>
<text text-anchor="middle" x="3543" y="-7.5" font-family="Helvetica,sans-Serif" font-size="10.00">utility</text>
</a>
</g>
</g>
<!-- Node3&#45;&gt;Node19 -->
<g id="edge19" class="edge">
<title>Node3&#45;&gt;Node19</title>
<path fill="none" stroke="midnightblue" d="M1479.87,-112.47C1515.55,-97.64 1593.16,-67.59 1662,-56 1839.88,-26.06 3104.7,-25.14 3285,-20 3365.97,-17.69 3461.21,-14.16 3510.21,-12.28"/>
<polygon fill="midnightblue" stroke="midnightblue" points="3510.37,-15.77 3520.22,-11.89 3510.1,-8.78 3510.37,-15.77"/>
</g>
<!-- Node3&#45;&gt;Node20 -->
<g id="edge14" class="edge">
<title>Node3&#45;&gt;Node20</title>
<path fill="none" stroke="midnightblue" d="M1498.5,-112.44C1542.8,-102.6 1615.28,-86.49 1660.99,-76.33"/>
<polygon fill="midnightblue" stroke="midnightblue" points="1661.88,-79.72 1670.88,-74.14 1660.36,-72.89 1661.88,-79.72"/>
</g>
<!-- Node3&#45;&gt;Node21 -->
<g id="edge15" class="edge">
<title>Node3&#45;&gt;Node21</title>
<path fill="none" stroke="midnightblue" d="M1516.56,-116.17C1533.43,-114.77 1551.96,-113.28 1569,-112 1809.64,-93.95 2099.39,-75.53 2199.73,-69.26"/>
<polygon fill="midnightblue" stroke="midnightblue" points="2200.17,-72.73 2209.93,-68.62 2199.73,-65.75 2200.17,-72.73"/>
</g>
<!-- Node22 -->
<g id="node15" class="node">
<title>Node22</title>
<g id="a_node15"><a xlink:title=" ">
<polygon fill="none" stroke="#bfbfbf" points="901,-56.5 901,-75.5 951,-75.5 951,-56.5 901,-56.5"/>
<text text-anchor="middle" x="926" y="-63.5" font-family="Helvetica,sans-Serif" font-size="10.00">cstring</text>
</a>
</g>
</g>
<!-- Node3&#45;&gt;Node22 -->
<g id="edge16" class="edge">
<title>Node3&#45;&gt;Node22</title>
<path fill="none" stroke="midnightblue" d="M1403.44,-113.68C1398.56,-113.09 1393.69,-112.53 1389,-112 1229.56,-94.15 1038.76,-76.91 961.29,-70.08"/>
<polygon fill="midnightblue" stroke="midnightblue" points="961.39,-66.57 951.12,-69.18 960.78,-73.54 961.39,-66.57"/>
</g>
<!-- Node3&#45;&gt;Node23 -->
<g id="edge17" class="edge">
<title>Node3&#45;&gt;Node23</title>
<path fill="none" stroke="midnightblue" d="M1403.46,-113.43C1398.57,-112.9 1393.7,-112.41 1389,-112 1299.16,-104.12 653.87,-75.25 500.6,-68.44"/>
<polygon fill="midnightblue" stroke="midnightblue" points="500.57,-64.94 490.43,-67.99 500.26,-71.93 500.57,-64.94"/>
</g>
<!-- Node24 -->
<g id="node17" class="node">
<title>Node24</title>
<g id="a_node17"><a xlink:title=" ">
<polygon fill="none" stroke="#bfbfbf" points="3018.5,-56.5 3018.5,-75.5 3059.5,-75.5 3059.5,-56.5 3018.5,-56.5"/>
<text text-anchor="middle" x="3039" y="-63.5" font-family="Helvetica,sans-Serif" font-size="10.00">tuple</text>
</a>
</g>
</g>
<!-- Node3&#45;&gt;Node24 -->
<g id="edge18" class="edge">
<title>Node3&#45;&gt;Node24</title>
<path fill="none" stroke="midnightblue" d="M1516.91,-118.52C1560.9,-116.64 1623.3,-114.03 1678,-112 2210.42,-92.21 2860.16,-72.39 3008.06,-67.93"/>
<polygon fill="midnightblue" stroke="midnightblue" points="3008.32,-71.42 3018.21,-67.62 3008.11,-64.43 3008.32,-71.42"/>
</g>
<!-- Node9&#45;&gt;Node10 -->
<g id="edge5" class="edge">
<title>Node9&#45;&gt;Node10</title>
<path fill="none" stroke="midnightblue" d="M794.36,-56.44C824.74,-47.28 873.11,-32.69 906.82,-22.52"/>
<polygon fill="midnightblue" stroke="midnightblue" points="908.21,-25.76 916.77,-19.52 906.18,-19.05 908.21,-25.76"/>
</g>
<!-- Node13&#45;&gt;Node14 -->
<g id="edge7" class="edge">
<title>Node13&#45;&gt;Node14</title>
<path fill="none" stroke="midnightblue" d="M1275.69,-56.47C1373.69,-44.82 1545.89,-24.33 1621.1,-15.39"/>
<polygon fill="midnightblue" stroke="midnightblue" points="1621.96,-18.81 1631.48,-14.15 1621.13,-11.86 1621.96,-18.81"/>
</g>
<!-- Node13&#45;&gt;Node15 -->
<g id="edge8" class="edge">
<title>Node13&#45;&gt;Node15</title>
<path fill="none" stroke="midnightblue" d="M1121,-58.27C974.5,-46.39 675.87,-22.18 573.42,-13.87"/>
<polygon fill="midnightblue" stroke="midnightblue" points="573.55,-10.37 563.3,-13.05 572.98,-17.35 573.55,-10.37"/>
</g>
<!-- Node13&#45;&gt;Node16 -->
<g id="edge9" class="edge">
<title>Node13&#45;&gt;Node16</title>
<path fill="none" stroke="midnightblue" d="M1287.05,-56.91C1291.77,-56.57 1296.44,-56.26 1301,-56 2058,-12.15 2983.5,-10.62 3196.05,-10.89"/>
<polygon fill="midnightblue" stroke="midnightblue" points="3196.2,-14.39 3206.2,-10.91 3196.21,-7.39 3196.2,-14.39"/>
</g>
<!-- Node18&#45;&gt;Node10 -->
<g id="edge11" class="edge">
<title>Node18&#45;&gt;Node10</title>
<path fill="none" stroke="midnightblue" d="M1791.23,-57.22C1786.42,-56.78 1781.64,-56.37 1777,-56 1499.75,-34.01 1169.67,-19.67 1022.49,-13.89"/>
<polygon fill="midnightblue" stroke="midnightblue" points="1022.34,-10.38 1012.21,-13.49 1022.07,-17.38 1022.34,-10.38"/>
</g>
<!-- Node18&#45;&gt;Node16 -->
<g id="edge12" class="edge">
<title>Node18&#45;&gt;Node16</title>
<path fill="none" stroke="midnightblue" d="M1934.76,-60.73C1962.89,-59.13 1995.45,-57.37 2025,-56 2481.93,-34.85 3035.82,-17.29 3195.77,-12.37"/>
<polygon fill="midnightblue" stroke="midnightblue" points="3196.28,-15.86 3206.17,-12.05 3196.06,-8.86 3196.28,-15.86"/>
</g>
<!-- Node18&#45;&gt;Node19 -->
<g id="edge13" class="edge">
<title>Node18&#45;&gt;Node19</title>
<path fill="none" stroke="midnightblue" d="M1934.77,-62.81C2143.3,-56.43 2767.21,-37.22 3285,-20 3365.96,-17.31 3461.2,-13.93 3510.21,-12.18"/>
<polygon fill="midnightblue" stroke="midnightblue" points="3510.35,-15.67 3520.22,-11.82 3510.1,-8.68 3510.35,-15.67"/>
</g>
<!-- Node26&#45;&gt;Node10 -->
<g id="edge22" class="edge">
<title>Node26&#45;&gt;Node10</title>
<path fill="none" stroke="midnightblue" d="M1929.78,-168.44C1888.67,-141.9 1764.57,-62.34 1744,-56 1610.82,-14.93 1195.65,-10.59 1022.28,-10.64"/>
<polygon fill="midnightblue" stroke="midnightblue" points="1022.21,-7.14 1012.21,-10.65 1022.21,-14.14 1022.21,-7.14"/>
</g>
<!-- Node26&#45;&gt;Node14 -->
<g id="edge26" class="edge">
<title>Node26&#45;&gt;Node14</title>
<path fill="none" stroke="midnightblue" d="M1946.44,-168.4C1954.51,-146.63 1971.99,-88.73 1944,-56 1912.39,-19.03 1765.07,-12.24 1695.1,-11.13"/>
<polygon fill="midnightblue" stroke="midnightblue" points="1695,-7.63 1684.96,-11 1694.91,-14.62 1695,-7.63"/>
</g>
<!-- Node26&#45;&gt;Node16 -->
<g id="edge35" class="edge">
<title>Node26&#45;&gt;Node16</title>
<path fill="none" stroke="midnightblue" d="M1955.65,-168.36C1991.85,-144.28 2099.71,-76.79 2201,-56 2395.63,-16.04 3023.17,-11.53 3196.36,-11.05"/>
<polygon fill="midnightblue" stroke="midnightblue" points="3196.41,-14.55 3206.4,-11.02 3196.39,-7.55 3196.41,-14.55"/>
</g>
<!-- Node26&#45;&gt;Node18 -->
<g id="edge23" class="edge">
<title>Node26&#45;&gt;Node18</title>
<path fill="none" stroke="midnightblue" d="M1937.9,-168.35C1930.31,-155.67 1915.39,-131.43 1901,-112 1893.7,-102.14 1884.89,-91.64 1877.6,-83.26"/>
<polygon fill="midnightblue" stroke="midnightblue" points="1880.16,-80.87 1870.92,-75.69 1874.91,-85.5 1880.16,-80.87"/>
</g>
<!-- Node26&#45;&gt;Node19 -->
<g id="edge36" class="edge">
<title>Node26&#45;&gt;Node19</title>
<path fill="none" stroke="midnightblue" d="M2008.82,-175.41C2296.73,-168.39 3431.7,-140.23 3448,-132 3491.97,-109.8 3521.9,-56.78 3535.19,-28.88"/>
<polygon fill="midnightblue" stroke="midnightblue" points="3538.49,-30.08 3539.46,-19.53 3532.12,-27.16 3538.49,-30.08"/>
</g>
<!-- Node26&#45;&gt;Node20 -->
<g id="edge24" class="edge">
<title>Node26&#45;&gt;Node20</title>
<path fill="none" stroke="midnightblue" d="M1924.17,-168.37C1882.11,-149.09 1780.35,-102.45 1730.9,-79.79"/>
<polygon fill="midnightblue" stroke="midnightblue" points="1732.29,-76.58 1721.74,-75.59 1729.38,-82.94 1732.29,-76.58"/>
</g>
<!-- Node26&#45;&gt;Node21 -->
<g id="edge25" class="edge">
<title>Node26&#45;&gt;Node21</title>
<path fill="none" stroke="midnightblue" d="M1964.6,-168.45C1986.86,-159.57 2022.5,-145.16 2053,-132 2072.72,-123.49 2076.97,-119.77 2097,-112 2131.44,-98.65 2171.67,-85.93 2199.97,-77.44"/>
<polygon fill="midnightblue" stroke="midnightblue" points="2201.23,-80.71 2209.82,-74.51 2199.23,-74 2201.23,-80.71"/>
</g>
<!-- Node26&#45;&gt;Node22 -->
<g id="edge28" class="edge">
<title>Node26&#45;&gt;Node22</title>
<path fill="none" stroke="midnightblue" d="M1877.49,-174.72C1662.78,-167.16 992.92,-142.77 973,-132 954.11,-121.79 940.92,-100.29 933.42,-84.81"/>
<polygon fill="midnightblue" stroke="midnightblue" points="936.61,-83.37 929.31,-75.69 930.23,-86.24 936.61,-83.37"/>
</g>
<!-- Node27 -->
<g id="node20" class="node">
<title>Node27</title>
<g id="a_node20"><a xlink:title=" ">
<polygon fill="none" stroke="#bfbfbf" points="2283.5,-112.5 2283.5,-131.5 2332.5,-131.5 2332.5,-112.5 2283.5,-112.5"/>
<text text-anchor="middle" x="2308" y="-119.5" font-family="Helvetica,sans-Serif" font-size="10.00">cstdlib</text>
</a>
</g>
</g>
<!-- Node26&#45;&gt;Node27 -->
<g id="edge27" class="edge">
<title>Node26&#45;&gt;Node27</title>
<path fill="none" stroke="midnightblue" d="M2000.84,-168.44C2077.41,-157.11 2210.09,-137.49 2272.99,-128.18"/>
<polygon fill="midnightblue" stroke="midnightblue" points="2273.8,-131.6 2283.18,-126.67 2272.77,-124.67 2273.8,-131.6"/>
</g>
<!-- Node28 -->
<g id="node21" class="node">
<title>Node28</title>
<g id="a_node21"><a xlink:title=" ">
<polygon fill="none" stroke="#bfbfbf" points="2503.5,-112.5 2503.5,-131.5 2568.5,-131.5 2568.5,-112.5 2503.5,-112.5"/>
<text text-anchor="middle" x="2536" y="-119.5" font-family="Helvetica,sans-Serif" font-size="10.00">functional</text>
</a>
</g>
</g>
<!-- Node26&#45;&gt;Node28 -->
<g id="edge29" class="edge">
<title>Node26&#45;&gt;Node28</title>
<path fill="none" stroke="midnightblue" d="M2008.79,-171.53C2105.67,-163.4 2292.38,-147.42 2451,-132 2464.77,-130.66 2479.79,-129.1 2493.31,-127.66"/>
<polygon fill="midnightblue" stroke="midnightblue" points="2493.75,-131.14 2503.32,-126.59 2493,-124.18 2493.75,-131.14"/>
</g>
<!-- Node26&#45;&gt;Node29 -->
<g id="edge30" class="edge">
<title>Node26&#45;&gt;Node29</title>
<path fill="none" stroke="midnightblue" d="M1975.32,-168.44C2010.39,-159.16 2066.5,-144.31 2104.96,-134.13"/>
<polygon fill="midnightblue" stroke="midnightblue" points="2106.06,-137.46 2114.83,-131.52 2104.26,-130.69 2106.06,-137.46"/>
</g>
<!-- Node26&#45;&gt;Node30 -->
<g id="edge31" class="edge">
<title>Node26&#45;&gt;Node30</title>
<path fill="none" stroke="midnightblue" d="M1877.15,-174.74C1629.86,-166.24 765.73,-136.48 661.7,-131.14"/>
<polygon fill="midnightblue" stroke="midnightblue" points="661.84,-127.64 651.63,-130.48 661.38,-134.63 661.84,-127.64"/>
</g>
<!-- Node31 -->
<g id="node24" class="node">
<title>Node31</title>
<g id="a_node24"><a xlink:title=" ">
<polygon fill="none" stroke="#bfbfbf" points="2587,-112.5 2587,-131.5 2631,-131.5 2631,-112.5 2587,-112.5"/>
<text text-anchor="middle" x="2609" y="-119.5" font-family="Helvetica,sans-Serif" font-size="10.00">limits</text>
</a>
</g>
</g>
<!-- Node26&#45;&gt;Node31 -->
<g id="edge32" class="edge">
<title>Node26&#45;&gt;Node31</title>
<path fill="none" stroke="midnightblue" d="M2008.92,-176.9C2123.1,-175.74 2364.93,-168.88 2576.72,-131.85"/>
<polygon fill="midnightblue" stroke="midnightblue" points="2577.55,-135.26 2586.78,-130.06 2576.32,-128.36 2577.55,-135.26"/>
</g>
<!-- Node26&#45;&gt;Node32 -->
<g id="edge33" class="edge">
<title>Node26&#45;&gt;Node32</title>
<path fill="none" stroke="midnightblue" d="M1907.03,-168.44C1865.6,-158.59 1797.76,-142.45 1755.06,-132.29"/>
<polygon fill="midnightblue" stroke="midnightblue" points="1755.84,-128.88 1745.3,-129.97 1754.22,-135.69 1755.84,-128.88"/>
</g>
<!-- Node33 -->
<g id="node26" class="node">
<title>Node33</title>
<g id="a_node26"><a xlink:title=" ">
<polygon fill="none" stroke="#bfbfbf" points="1309.5,-112.5 1309.5,-131.5 1346.5,-131.5 1346.5,-112.5 1309.5,-112.5"/>
<text text-anchor="middle" x="1328" y="-119.5" font-family="Helvetica,sans-Serif" font-size="10.00">new</text>
</a>
</g>
</g>
<!-- Node26&#45;&gt;Node33 -->
<g id="edge34" class="edge">
<title>Node26&#45;&gt;Node33</title>
<path fill="none" stroke="midnightblue" d="M1877.47,-175.96C1769.2,-173.34 1546.48,-164.16 1361,-132 1359.54,-131.75 1358.05,-131.46 1356.54,-131.14"/>
<polygon fill="midnightblue" stroke="midnightblue" points="1357.25,-127.71 1346.71,-128.76 1355.61,-134.51 1357.25,-127.71"/>
</g>
<!-- Node34&#45;&gt;Node9 -->
<g id="edge59" class="edge">
<title>Node34&#45;&gt;Node9</title>
<path fill="none" stroke="midnightblue" d="M2369.68,-232.06C2121.48,-227.76 1191.25,-206.89 908,-132 863.92,-120.35 816.47,-95.95 789.11,-80.59"/>
<polygon fill="midnightblue" stroke="midnightblue" points="790.72,-77.48 780.3,-75.56 787.26,-83.56 790.72,-77.48"/>
</g>
<!-- Node34&#45;&gt;Node14 -->
<g id="edge62" class="edge">
<title>Node34&#45;&gt;Node14</title>
<path fill="none" stroke="midnightblue" d="M2449,-224.33C2470.45,-212.74 2501.87,-190.96 2489,-168 2442.38,-84.81 2396.83,-85.02 2306,-56 2190.91,-19.23 1814.48,-12.49 1694.85,-11.27"/>
<polygon fill="midnightblue" stroke="midnightblue" points="1694.76,-7.76 1684.73,-11.17 1694.7,-14.76 1694.76,-7.76"/>
</g>
<!-- Node34&#45;&gt;Node15 -->
<g id="edge63" class="edge">
<title>Node34&#45;&gt;Node15</title>
<path fill="none" stroke="midnightblue" d="M2369.73,-232.14C2147.19,-228.81 1381.94,-215.6 1139,-188 1009,-173.23 976.67,-164.76 850,-132 772.17,-111.87 752.82,-105.42 678,-76 637.4,-60.03 591.82,-38.09 564.01,-24.22"/>
<polygon fill="midnightblue" stroke="midnightblue" points="565.46,-21.03 554.95,-19.68 562.32,-27.29 565.46,-21.03"/>
</g>
<!-- Node34&#45;&gt;Node16 -->
<g id="edge71" class="edge">
<title>Node34&#45;&gt;Node16</title>
<path fill="none" stroke="midnightblue" d="M2492.08,-227.44C2504.93,-226.29 2518.41,-225.09 2531,-224 2667.14,-212.16 3051.73,-237.15 3139,-132 3160.72,-105.83 3128.26,-83.7 3148,-56 3159.59,-39.73 3178.7,-29.1 3196.59,-22.28"/>
<polygon fill="midnightblue" stroke="midnightblue" points="3198.06,-25.47 3206.35,-18.87 3195.75,-18.87 3198.06,-25.47"/>
</g>
<!-- Node34&#45;&gt;Node19 -->
<g id="edge72" class="edge">
<title>Node34&#45;&gt;Node19</title>
<path fill="none" stroke="midnightblue" d="M2492.05,-227.13C2504.91,-226 2518.39,-224.89 2531,-224 2839.09,-202.15 2920.75,-241.18 3225,-188 3255.19,-182.72 3261.08,-174.66 3291,-168 3345.57,-155.86 3497.01,-167.74 3540,-132 3566.77,-109.74 3564.92,-90.31 3559,-56 3557.43,-46.91 3554.21,-37.22 3551.06,-29.17"/>
<polygon fill="midnightblue" stroke="midnightblue" points="3554.19,-27.6 3547.11,-19.72 3547.74,-30.3 3554.19,-27.6"/>
</g>
<!-- Node34&#45;&gt;Node20 -->
<g id="edge60" class="edge">
<title>Node34&#45;&gt;Node20</title>
<path fill="none" stroke="midnightblue" d="M2369.61,-232.27C2243.48,-230.09 1959.41,-221.5 1869,-188 1836.34,-175.9 1756.87,-111.81 1721.04,-82.12"/>
<polygon fill="midnightblue" stroke="midnightblue" points="1723.24,-79.4 1713.31,-75.69 1718.76,-84.78 1723.24,-79.4"/>
</g>
<!-- Node34&#45;&gt;Node21 -->
<g id="edge61" class="edge">
<title>Node34&#45;&gt;Node21</title>
<path fill="none" stroke="midnightblue" d="M2378.72,-224.48C2357.41,-218.15 2334.81,-207.14 2322,-188 2302.58,-158.97 2361.28,-141.13 2342,-112 2326.55,-88.66 2296.3,-77.39 2272.05,-71.97"/>
<polygon fill="midnightblue" stroke="midnightblue" points="2272.58,-68.5 2262.09,-69.98 2271.22,-75.37 2272.58,-68.5"/>
</g>
<!-- Node34&#45;&gt;Node24 -->
<g id="edge70" class="edge">
<title>Node34&#45;&gt;Node24</title>
<path fill="none" stroke="midnightblue" d="M2492.25,-227.24C2603.41,-216.7 2830.19,-194.77 2866,-188 2957.54,-170.7 3011.61,-206.16 3068,-132 3079.38,-117.04 3066.99,-96.9 3055.07,-83.03"/>
<polygon fill="midnightblue" stroke="midnightblue" points="3057.63,-80.65 3048.28,-75.67 3052.49,-85.39 3057.63,-80.65"/>
</g>
<!-- Node34&#45;&gt;Node27 -->
<g id="edge64" class="edge">
<title>Node34&#45;&gt;Node27</title>
<path fill="none" stroke="midnightblue" d="M2369.97,-229.78C2340.49,-224.78 2307.56,-213.35 2289,-188 2278.73,-173.97 2286.66,-154.46 2295.2,-140.48"/>
<polygon fill="midnightblue" stroke="midnightblue" points="2298.34,-142.08 2300.99,-131.83 2292.52,-138.19 2298.34,-142.08"/>
</g>
<!-- Node34&#45;&gt;Node28 -->
<g id="edge65" class="edge">
<title>Node34&#45;&gt;Node28</title>
<path fill="none" stroke="midnightblue" d="M2463.41,-224.46C2482.9,-217.69 2506.63,-206.26 2521,-188 2531.4,-174.79 2534.83,-155.66 2535.85,-141.57"/>
<polygon fill="midnightblue" stroke="midnightblue" points="2539.35,-141.69 2536.24,-131.56 2532.35,-141.42 2539.35,-141.69"/>
</g>
<!-- Node34&#45;&gt;Node29 -->
<g id="edge66" class="edge">
<title>Node34&#45;&gt;Node29</title>
<path fill="none" stroke="midnightblue" d="M2396.58,-224.48C2365.61,-216.4 2319.12,-203.27 2280,-188 2240.98,-172.77 2197.73,-150.59 2171.46,-136.48"/>
<polygon fill="midnightblue" stroke="midnightblue" points="2173.05,-133.36 2162.59,-131.67 2169.72,-139.51 2173.05,-133.36"/>
</g>
<!-- Node34&#45;&gt;Node30 -->
<g id="edge67" class="edge">
<title>Node34&#45;&gt;Node30</title>
<path fill="none" stroke="midnightblue" d="M2369.88,-232.24C2189.86,-229.67 1645.98,-219.67 1196,-188 960.34,-171.42 897.45,-174.3 661.57,-132.07"/>
<polygon fill="midnightblue" stroke="midnightblue" points="662.13,-128.61 651.66,-130.29 660.89,-135.5 662.13,-128.61"/>
</g>
<!-- Node34&#45;&gt;Node31 -->
<g id="edge68" class="edge">
<title>Node34&#45;&gt;Node31</title>
<path fill="none" stroke="midnightblue" d="M2458.95,-224.41C2481.57,-216.76 2513.72,-204.26 2539,-188 2560.45,-174.2 2581.4,-153.52 2594.7,-139.21"/>
<polygon fill="midnightblue" stroke="midnightblue" points="2597.46,-141.37 2601.59,-131.62 2592.28,-136.66 2597.46,-141.37"/>
</g>
<!-- Node34&#45;&gt;Node32 -->
<g id="edge69" class="edge">
<title>Node34&#45;&gt;Node32</title>
<path fill="none" stroke="midnightblue" d="M2369.75,-231.64C2238.46,-228.21 1933.88,-217.25 1835,-188 1815.34,-182.18 1767.36,-154.2 1738.69,-136.9"/>
<polygon fill="midnightblue" stroke="midnightblue" points="1740.48,-133.9 1730.12,-131.7 1736.85,-139.88 1740.48,-133.9"/>
</g>
<!-- Node35 -->
<g id="node28" class="node">
<title>Node35</title>
<g id="a_node28"><a xlink:href="Optional_8h.html" target="_top" xlink:title=" ">
<polygon fill="none" stroke="black" points="1553.5,-168.5 1553.5,-187.5 1668.5,-187.5 1668.5,-168.5 1553.5,-168.5"/>
<text text-anchor="middle" x="1611" y="-175.5" font-family="Helvetica,sans-Serif" font-size="10.00">llvm/ADT/Optional.h</text>
</a>
</g>
</g>
<!-- Node34&#45;&gt;Node35 -->
<g id="edge38" class="edge">
<title>Node34&#45;&gt;Node35</title>
<path fill="none" stroke="midnightblue" d="M2369.7,-228.96C2219.86,-219.1 1835.87,-193.81 1679.16,-183.49"/>
<polygon fill="midnightblue" stroke="midnightblue" points="1678.93,-179.97 1668.72,-182.8 1678.47,-186.95 1678.93,-179.97"/>
</g>
<!-- Node36 -->
<g id="node29" class="node">
<title>Node36</title>
<g id="a_node29"><a xlink:href="STLForwardCompat_8h.html" target="_top" xlink:title=" ">
<polygon fill="none" stroke="black" points="3157,-56.5 3157,-75.5 3325,-75.5 3325,-56.5 3157,-56.5"/>
<text text-anchor="middle" x="3241" y="-63.5" font-family="Helvetica,sans-Serif" font-size="10.00">llvm/ADT/STLForwardCompat.h</text>
</a>
</g>
</g>
<!-- Node34&#45;&gt;Node36 -->
<g id="edge50" class="edge">
<title>Node34&#45;&gt;Node36</title>
<path fill="none" stroke="midnightblue" d="M2492.06,-227.21C2504.91,-226.07 2518.4,-224.94 2531,-224 2665.97,-213.93 3011.72,-234.04 3139,-188 3158.73,-180.86 3202.17,-148.6 3215,-132 3225.68,-118.19 3232.56,-99.42 3236.54,-85.6"/>
<polygon fill="midnightblue" stroke="midnightblue" points="3239.97,-86.33 3239.13,-75.77 3233.2,-84.55 3239.97,-86.33"/>
</g>
<!-- Node37 -->
<g id="node30" class="node">
<title>Node37</title>
<g id="a_node30"><a xlink:href="STLArrayExtras_8h.html" target="_top" xlink:title=" ">
<polygon fill="none" stroke="black" points="2330.5,-168.5 2330.5,-187.5 2479.5,-187.5 2479.5,-168.5 2330.5,-168.5"/>
<text text-anchor="middle" x="2405" y="-175.5" font-family="Helvetica,sans-Serif" font-size="10.00">llvm/ADT/STLArrayExtras.h</text>
</a>
</g>
</g>
<!-- Node34&#45;&gt;Node37 -->
<g id="edge48" class="edge">
<title>Node34&#45;&gt;Node37</title>
<path fill="none" stroke="midnightblue" d="M2426.71,-224.08C2423.15,-216.69 2417.98,-205.95 2413.58,-196.81"/>
<polygon fill="midnightblue" stroke="midnightblue" points="2416.71,-195.24 2409.21,-187.75 2410.4,-198.28 2416.71,-195.24"/>
</g>
<!-- Node38 -->
<g id="node31" class="node">
<title>Node38</title>
<g id="a_node31"><a xlink:href="STLFunctionalExtras_8h.html" target="_top" xlink:title=" ">
<polygon fill="none" stroke="black" points="3267,-112.5 3267,-131.5 3439,-131.5 3439,-112.5 3267,-112.5"/>
<text text-anchor="middle" x="3353" y="-119.5" font-family="Helvetica,sans-Serif" font-size="10.00">llvm/ADT/STLFunctionalExtras.h</text>
</a>
</g>
</g>
<!-- Node34&#45;&gt;Node38 -->
<g id="edge51" class="edge">
<title>Node34&#45;&gt;Node38</title>
<path fill="none" stroke="midnightblue" d="M2492.05,-227.17C2504.91,-226.04 2518.4,-224.92 2531,-224 2817.8,-203.11 2895.45,-246.46 3177,-188 3231.57,-176.67 3291.82,-151.45 3325.78,-135.96"/>
<polygon fill="midnightblue" stroke="midnightblue" points="3327.42,-139.06 3335.03,-131.69 3324.49,-132.7 3327.42,-139.06"/>
</g>
<!-- Node41 -->
<g id="node32" class="node">
<title>Node41</title>
<g id="a_node32"><a xlink:href="iterator__range_8h.html" target="_top" xlink:title=" ">
<polygon fill="none" stroke="black" points="3609.5,-112.5 3609.5,-131.5 3752.5,-131.5 3752.5,-112.5 3609.5,-112.5"/>
<text text-anchor="middle" x="3681" y="-119.5" font-family="Helvetica,sans-Serif" font-size="10.00">llvm/ADT/iterator_range.h</text>
</a>
</g>
</g>
<!-- Node34&#45;&gt;Node41 -->
<g id="edge56" class="edge">
<title>Node34&#45;&gt;Node41</title>
<path fill="none" stroke="midnightblue" d="M2492.05,-227.09C2504.9,-225.96 2518.39,-224.87 2531,-224 2699.68,-212.42 3126.82,-228.41 3291,-188 3311.47,-182.96 3313.76,-173.87 3334,-168 3358.87,-160.79 3504.6,-143.22 3599.12,-132.29"/>
<polygon fill="midnightblue" stroke="midnightblue" points="3599.71,-135.74 3609.24,-131.12 3598.9,-128.79 3599.71,-135.74"/>
</g>
<!-- Node42 -->
<g id="node33" class="node">
<title>Node42</title>
<g id="a_node33"><a xlink:title=" ">
<polygon fill="none" stroke="#bfbfbf" points="3343,-168.5 3343,-187.5 3489,-187.5 3489,-168.5 3343,-168.5"/>
<text text-anchor="middle" x="3416" y="-175.5" font-family="Helvetica,sans-Serif" font-size="10.00">llvm/Config/abi&#45;breaking.h</text>
</a>
</g>
</g>
<!-- Node34&#45;&gt;Node42 -->
<g id="edge58" class="edge">
<title>Node34&#45;&gt;Node42</title>
<path fill="none" stroke="midnightblue" d="M2492.05,-227.07C2504.9,-225.94 2518.39,-224.85 2531,-224 2885.22,-200.08 2974.95,-214.28 3329,-188 3330.28,-187.91 3331.57,-187.81 3332.86,-187.71"/>
<polygon fill="midnightblue" stroke="midnightblue" points="3333.25,-191.19 3342.93,-186.87 3332.67,-184.21 3333.25,-191.19"/>
</g>
<!-- Node35&#45;&gt;Node3 -->
<g id="edge39" class="edge">
<title>Node35&#45;&gt;Node3</title>
<path fill="none" stroke="midnightblue" d="M1587.07,-168.44C1561.78,-159.4 1521.7,-145.06 1493.32,-134.92"/>
<polygon fill="midnightblue" stroke="midnightblue" points="1494.41,-131.59 1483.81,-131.52 1492.05,-138.18 1494.41,-131.59"/>
</g>
<!-- Node35&#45;&gt;Node10 -->
<g id="edge43" class="edge">
<title>Node35&#45;&gt;Node10</title>
<path fill="none" stroke="midnightblue" d="M1553.3,-175.43C1401.93,-170.99 1001.32,-156.98 947,-132 909.12,-114.58 874.49,-93.84 892,-56 897.92,-43.21 909.47,-32.72 920.28,-25.1"/>
<polygon fill="midnightblue" stroke="midnightblue" points="922.21,-28.02 928.67,-19.61 918.38,-22.16 922.21,-28.02"/>
</g>
<!-- Node35&#45;&gt;Node18 -->
<g id="edge44" class="edge">
<title>Node35&#45;&gt;Node18</title>
<path fill="none" stroke="midnightblue" d="M1645.92,-168.46C1675.4,-160.67 1718.37,-147.97 1754,-132 1786.37,-117.49 1821.14,-95.52 1842.48,-81.22"/>
<polygon fill="midnightblue" stroke="midnightblue" points="1844.45,-84.11 1850.76,-75.6 1840.52,-78.32 1844.45,-84.11"/>
</g>
<!-- Node35&#45;&gt;Node19 -->
<g id="edge47" class="edge">
<title>Node35&#45;&gt;Node19</title>
<path fill="none" stroke="midnightblue" d="M1668.91,-174.78C1792.67,-169.75 2092.03,-156 2342,-132 2410.26,-125.44 2426.92,-120.29 2495,-112 2715.22,-85.18 2770.2,-77.46 2991,-56 3187.86,-36.87 3424.75,-19.43 3510.24,-13.31"/>
<polygon fill="midnightblue" stroke="midnightblue" points="3510.64,-16.79 3520.37,-12.59 3510.14,-9.81 3510.64,-16.79"/>
</g>
<!-- Node35&#45;&gt;Node21 -->
<g id="edge45" class="edge">
<title>Node35&#45;&gt;Node21</title>
<path fill="none" stroke="midnightblue" d="M1616.8,-168.34C1627.12,-153.73 1650.25,-124.57 1678,-112 1725.38,-90.54 2083.69,-73.5 2199.8,-68.5"/>
<polygon fill="midnightblue" stroke="midnightblue" points="2200.11,-71.99 2209.95,-68.07 2199.81,-65 2200.11,-71.99"/>
</g>
<!-- Node35&#45;&gt;Node25 -->
<g id="edge40" class="edge">
<title>Node35&#45;&gt;Node25</title>
<path fill="none" stroke="midnightblue" d="M1553.45,-173.64C1427.53,-166.28 1118.12,-148.08 859,-132 832.61,-130.36 803.43,-128.5 778.57,-126.89"/>
<polygon fill="midnightblue" stroke="midnightblue" points="778.77,-123.39 768.56,-126.24 778.32,-130.38 778.77,-123.39"/>
</g>
<!-- Node35&#45;&gt;Node33 -->
<g id="edge46" class="edge">
<title>Node35&#45;&gt;Node33</title>
<path fill="none" stroke="midnightblue" d="M1555.61,-168.47C1504.76,-160.3 1427.46,-147.01 1361,-132 1359.55,-131.67 1358.07,-131.32 1356.58,-130.96"/>
<polygon fill="midnightblue" stroke="midnightblue" points="1357.33,-127.54 1346.78,-128.43 1355.58,-134.32 1357.33,-127.54"/>
</g>
<!-- Node35&#45;&gt;Node36 -->
<g id="edge41" class="edge">
<title>Node35&#45;&gt;Node36</title>
<path fill="none" stroke="midnightblue" d="M1662.25,-168.5C1750.68,-154.2 1937.75,-125.57 2097,-112 2527.74,-75.3 2637.13,-95.3 3069,-76 3094.07,-74.88 3121.2,-73.53 3146.33,-72.21"/>
<polygon fill="midnightblue" stroke="midnightblue" points="3146.79,-75.69 3156.59,-71.67 3146.42,-68.7 3146.79,-75.69"/>
</g>
<!-- Node36&#45;&gt;Node16 -->
<g id="edge42" class="edge">
<title>Node36&#45;&gt;Node16</title>
<path fill="none" stroke="midnightblue" d="M3241,-56.08C3241,-49.01 3241,-38.86 3241,-29.99"/>
<polygon fill="midnightblue" stroke="midnightblue" points="3244.5,-29.75 3241,-19.75 3237.5,-29.75 3244.5,-29.75"/>
</g>
<!-- Node37&#45;&gt;Node14 -->
<g id="edge49" class="edge">
<title>Node37&#45;&gt;Node14</title>
<path fill="none" stroke="midnightblue" d="M2399.94,-168.24C2392,-154.98 2375.58,-129.51 2357,-112 2323.81,-80.71 2314.22,-70.57 2271,-56 2163.26,-19.67 1810.14,-12.64 1694.8,-11.31"/>
<polygon fill="midnightblue" stroke="midnightblue" points="1694.75,-7.81 1684.71,-11.2 1694.67,-14.81 1694.75,-7.81"/>
</g>
<!-- Node38&#45;&gt;Node15 -->
<g id="edge55" class="edge">
<title>Node38&#45;&gt;Node15</title>
<path fill="none" stroke="midnightblue" d="M3353.42,-112.05C3353.55,-97.56 3351.4,-69.24 3334,-56 3279.51,-14.53 937.46,-21.43 869,-20 761.38,-17.75 634.1,-13.98 573.5,-12.11"/>
<polygon fill="midnightblue" stroke="midnightblue" points="573.43,-8.61 563.33,-11.8 573.22,-15.6 573.43,-8.61"/>
</g>
<!-- Node38&#45;&gt;Node16 -->
<g id="edge53" class="edge">
<title>Node38&#45;&gt;Node16</title>
<path fill="none" stroke="midnightblue" d="M3358.87,-112.15C3366.92,-98.78 3379.1,-73.17 3367,-56 3348.71,-30.04 3314.02,-18.98 3285.66,-14.3"/>
<polygon fill="midnightblue" stroke="midnightblue" points="3285.94,-10.8 3275.54,-12.85 3284.95,-17.73 3285.94,-10.8"/>
</g>
<!-- Node38&#45;&gt;Node19 -->
<g id="edge54" class="edge">
<title>Node38&#45;&gt;Node19</title>
<path fill="none" stroke="midnightblue" d="M3367.91,-112.37C3400.79,-93.33 3479.76,-47.62 3519.42,-24.65"/>
<polygon fill="midnightblue" stroke="midnightblue" points="3521.26,-27.63 3528.16,-19.59 3517.75,-21.57 3521.26,-27.63"/>
</g>
<!-- Node38&#45;&gt;Node36 -->
<g id="edge52" class="edge">
<title>Node38&#45;&gt;Node36</title>
<path fill="none" stroke="midnightblue" d="M3335.01,-112.32C3316.96,-103.62 3288.95,-90.12 3268.2,-80.11"/>
<polygon fill="midnightblue" stroke="midnightblue" points="3269.48,-76.84 3258.95,-75.65 3266.44,-83.15 3269.48,-76.84"/>
</g>
<!-- Node41&#45;&gt;Node19 -->
<g id="edge57" class="edge">
<title>Node41&#45;&gt;Node19</title>
<path fill="none" stroke="midnightblue" d="M3670.17,-112.37C3646.69,-93.65 3590.86,-49.15 3561.61,-25.83"/>
<polygon fill="midnightblue" stroke="midnightblue" points="3563.78,-23.09 3553.78,-19.59 3559.42,-28.56 3563.78,-23.09"/>
</g>
<!-- Node45&#45;&gt;Node10 -->
<g id="edge92" class="edge">
<title>Node45&#45;&gt;Node10</title>
<path fill="none" stroke="midnightblue" d="M2797.41,-168.16C2795.93,-153.83 2790.8,-125.74 2773,-112 2728.57,-77.71 2326.98,-60.07 2271,-56 1797.13,-21.58 1226.04,-13.41 1022.03,-11.54"/>
<polygon fill="midnightblue" stroke="midnightblue" points="1022.05,-8.04 1012.02,-11.45 1021.99,-15.04 1022.05,-8.04"/>
</g>
<!-- Node45&#45;&gt;Node14 -->
<g id="edge95" class="edge">
<title>Node45&#45;&gt;Node14</title>
<path fill="none" stroke="midnightblue" d="M2806.79,-168.32C2819.03,-155.17 2838.28,-129.84 2825,-112 2773.19,-42.41 2723.53,-70.54 2638,-56 2451.48,-24.28 1850.61,-13.73 1695.05,-11.49"/>
<polygon fill="midnightblue" stroke="midnightblue" points="1694.68,-7.98 1684.63,-11.34 1694.58,-14.98 1694.68,-7.98"/>
</g>
<!-- Node45&#45;&gt;Node16 -->
<g id="edge99" class="edge">
<title>Node45&#45;&gt;Node16</title>
<path fill="none" stroke="midnightblue" d="M2857.04,-177.39C3009.66,-177.79 3408.16,-174.69 3448,-132 3501.98,-74.16 3361.71,-35.51 3285.87,-19.43"/>
<polygon fill="midnightblue" stroke="midnightblue" points="3286.12,-15.91 3275.62,-17.32 3284.71,-22.77 3286.12,-15.91"/>
</g>
<!-- Node45&#45;&gt;Node19 -->
<g id="edge100" class="edge">
<title>Node45&#45;&gt;Node19</title>
<path fill="none" stroke="midnightblue" d="M2857.07,-175.26C3024.92,-170.07 3494.22,-153.68 3519,-132 3548.06,-106.58 3548.09,-56.97 3545.57,-29.84"/>
<polygon fill="midnightblue" stroke="midnightblue" points="3549.03,-29.26 3544.41,-19.72 3542.07,-30.05 3549.03,-29.26"/>
</g>
<!-- Node45&#45;&gt;Node20 -->
<g id="edge93" class="edge">
<title>Node45&#45;&gt;Node20</title>
<path fill="none" stroke="midnightblue" d="M2782.45,-168.44C2754.78,-153.72 2694.76,-124.02 2640,-112 2453.82,-71.12 1973.05,-90.66 1783,-76 1770.82,-75.06 1757.63,-73.71 1745.55,-72.35"/>
<polygon fill="midnightblue" stroke="midnightblue" points="1745.6,-68.83 1735.26,-71.15 1744.79,-75.78 1745.6,-68.83"/>
</g>
<!-- Node45&#45;&gt;Node21 -->
<g id="edge94" class="edge">
<title>Node45&#45;&gt;Node21</title>
<path fill="none" stroke="midnightblue" d="M2794.38,-168.4C2787.77,-153.9 2772.24,-124.88 2749,-112 2667.06,-66.58 2375.45,-65.37 2272.4,-66.42"/>
<polygon fill="midnightblue" stroke="midnightblue" points="2272.14,-62.92 2262.18,-66.54 2272.22,-69.92 2272.14,-62.92"/>
</g>
<!-- Node45&#45;&gt;Node22 -->
<g id="edge96" class="edge">
<title>Node45&#45;&gt;Node22</title>
<path fill="none" stroke="midnightblue" d="M2738.76,-175.2C2676.57,-173.33 2575.91,-170.35 2489,-168 2328.45,-163.66 1199.03,-173.94 1044,-132 1006.5,-121.85 967.98,-97.51 945.56,-81.66"/>
<polygon fill="midnightblue" stroke="midnightblue" points="947.4,-78.68 937.25,-75.65 943.3,-84.35 947.4,-78.68"/>
</g>
<!-- Node45&#45;&gt;Node23 -->
<g id="edge98" class="edge">
<title>Node45&#45;&gt;Node23</title>
<path fill="none" stroke="midnightblue" d="M2738.89,-175.28C2474.26,-167.56 1410.54,-136.27 1394,-132 1375.14,-127.13 1373.81,-117.05 1355,-112 1333.96,-106.35 658.34,-75.59 500.67,-68.47"/>
<polygon fill="midnightblue" stroke="midnightblue" points="500.37,-64.95 490.23,-68 500.06,-71.95 500.37,-64.95"/>
</g>
<!-- Node45&#45;&gt;Node31 -->
<g id="edge97" class="edge">
<title>Node45&#45;&gt;Node31</title>
<path fill="none" stroke="midnightblue" d="M2768.05,-168.44C2733.38,-158.54 2676.5,-142.28 2640.98,-132.14"/>
<polygon fill="midnightblue" stroke="midnightblue" points="2641.71,-128.7 2631.13,-129.32 2639.78,-135.44 2641.71,-128.7"/>
</g>
<!-- Node45&#45;&gt;Node38 -->
<g id="edge90" class="edge">
<title>Node45&#45;&gt;Node38</title>
<path fill="none" stroke="midnightblue" d="M2857.13,-171.25C2952.57,-161.96 3141.47,-143.58 3256.58,-132.38"/>
<polygon fill="midnightblue" stroke="midnightblue" points="3257.18,-135.84 3266.8,-131.39 3256.5,-128.87 3257.18,-135.84"/>
</g>
<!-- Node45&#45;&gt;Node41 -->
<g id="edge91" class="edge">
<title>Node45&#45;&gt;Node41</title>
<path fill="none" stroke="midnightblue" d="M2857.07,-173.76C2984.79,-166.71 3296.2,-149.19 3557,-132 3570.6,-131.1 3585.05,-130.1 3599.08,-129.1"/>
<polygon fill="midnightblue" stroke="midnightblue" points="3599.49,-132.58 3609.21,-128.37 3598.99,-125.6 3599.49,-132.58"/>
</g>
<!-- Node46 -->
<g id="node37" class="node">
<title>Node46</title>
<g id="a_node37"><a xlink:href="DenseMapInfo_8h.html" target="_top" xlink:title=" ">
<polygon fill="none" stroke="black" points="2915,-112.5 2915,-131.5 3059,-131.5 3059,-112.5 2915,-112.5"/>
<text text-anchor="middle" x="2987" y="-119.5" font-family="Helvetica,sans-Serif" font-size="10.00">llvm/ADT/DenseMapInfo.h</text>
</a>
</g>
</g>
<!-- Node45&#45;&gt;Node46 -->
<g id="edge84" class="edge">
<title>Node45&#45;&gt;Node46</title>
<path fill="none" stroke="midnightblue" d="M2827.95,-168.44C2860.16,-159.24 2911.53,-144.56 2947.14,-134.39"/>
<polygon fill="midnightblue" stroke="midnightblue" points="2948.54,-137.63 2957.19,-131.52 2946.62,-130.9 2948.54,-137.63"/>
</g>
<!-- Node46&#45;&gt;Node14 -->
<g id="edge86" class="edge">
<title>Node46&#45;&gt;Node14</title>
<path fill="none" stroke="midnightblue" d="M2975.09,-112.4C2953.82,-97.61 2907.39,-67.81 2863,-56 2747.84,-25.36 1884.27,-13.62 1694.71,-11.4"/>
<polygon fill="midnightblue" stroke="midnightblue" points="1694.73,-7.9 1684.69,-11.29 1694.65,-14.9 1694.73,-7.9"/>
</g>
<!-- Node46&#45;&gt;Node15 -->
<g id="edge87" class="edge">
<title>Node46&#45;&gt;Node15</title>
<path fill="none" stroke="midnightblue" d="M2914.96,-112.86C2786.01,-98.64 2507.14,-69.51 2271,-56 1648.7,-20.39 1492.1,-36.47 869,-20 761.39,-17.16 634.11,-13.66 573.51,-11.98"/>
<polygon fill="midnightblue" stroke="midnightblue" points="573.42,-8.48 563.33,-11.7 573.23,-15.48 573.42,-8.48"/>
</g>
<!-- Node46&#45;&gt;Node19 -->
<g id="edge89" class="edge">
<title>Node46&#45;&gt;Node19</title>
<path fill="none" stroke="midnightblue" d="M2987.27,-112.13C2988.22,-97.75 2992.38,-69.61 3010,-56 3049.61,-25.42 3400.46,-14.43 3510.28,-11.72"/>
<polygon fill="midnightblue" stroke="midnightblue" points="3510.52,-15.22 3520.43,-11.48 3510.35,-8.22 3510.52,-15.22"/>
</g>
<!-- Node46&#45;&gt;Node21 -->
<g id="edge85" class="edge">
<title>Node46&#45;&gt;Node21</title>
<path fill="none" stroke="midnightblue" d="M2914.76,-113.25C2910.1,-112.81 2905.49,-112.39 2901,-112 2661.29,-91.35 2372.28,-74.56 2272.19,-68.98"/>
<polygon fill="midnightblue" stroke="midnightblue" points="2272.19,-65.48 2262.01,-68.42 2271.8,-72.46 2272.19,-65.48"/>
</g>
<!-- Node46&#45;&gt;Node24 -->
<g id="edge88" class="edge">
<title>Node46&#45;&gt;Node24</title>
<path fill="none" stroke="midnightblue" d="M2995.59,-112.08C3003.16,-104.22 3014.38,-92.57 3023.51,-83.08"/>
<polygon fill="midnightblue" stroke="midnightblue" points="3026.16,-85.38 3030.57,-75.75 3021.12,-80.53 3026.16,-85.38"/>
</g>
<!-- Node48&#45;&gt;Node10 -->
<g id="edge103" class="edge">
<title>Node48&#45;&gt;Node10</title>
<path fill="none" stroke="midnightblue" d="M1101.66,-112.37C1072.49,-93.49 1002.78,-48.38 967,-25.24"/>
<polygon fill="midnightblue" stroke="midnightblue" points="968.57,-22.09 958.28,-19.59 964.77,-27.96 968.57,-22.09"/>
</g>
<!-- Node48&#45;&gt;Node13 -->
<g id="edge104" class="edge">
<title>Node48&#45;&gt;Node13</title>
<path fill="none" stroke="midnightblue" d="M1129.3,-112.32C1143.18,-103.9 1164.49,-90.97 1180.8,-81.07"/>
<polygon fill="midnightblue" stroke="midnightblue" points="1183,-83.83 1189.74,-75.65 1179.37,-77.85 1183,-83.83"/>
</g>
<!-- Node48&#45;&gt;Node14 -->
<g id="edge106" class="edge">
<title>Node48&#45;&gt;Node14</title>
<path fill="none" stroke="midnightblue" d="M1111.08,-112.1C1105.63,-98.18 1097.92,-71.29 1112,-56 1146.44,-18.6 1504.26,-12.28 1621.23,-11.22"/>
<polygon fill="midnightblue" stroke="midnightblue" points="1621.49,-14.71 1631.46,-11.13 1621.43,-7.71 1621.49,-14.71"/>
</g>
<!-- Node48&#45;&gt;Node15 -->
<g id="edge107" class="edge">
<title>Node48&#45;&gt;Node15</title>
<path fill="none" stroke="midnightblue" d="M1095.44,-112.42C1056.92,-95.59 973.81,-59.55 960,-56 819.89,-19.98 646.46,-12.74 573.24,-11.32"/>
<polygon fill="midnightblue" stroke="midnightblue" points="573.24,-7.82 563.18,-11.15 573.12,-14.82 573.24,-7.82"/>
</g>
<!-- Node48&#45;&gt;Node16 -->
<g id="edge109" class="edge">
<title>Node48&#45;&gt;Node16</title>
<path fill="none" stroke="midnightblue" d="M1150.07,-112.43C1186.56,-103.48 1245.34,-88.96 1296,-76 1329.84,-67.34 1337.42,-60.9 1372,-56 1557.52,-29.72 2929.02,-14.24 3196.02,-11.45"/>
<polygon fill="midnightblue" stroke="midnightblue" points="3196.17,-14.95 3206.13,-11.35 3196.09,-7.95 3196.17,-14.95"/>
</g>
<!-- Node48&#45;&gt;Node21 -->
<g id="edge105" class="edge">
<title>Node48&#45;&gt;Node21</title>
<path fill="none" stroke="midnightblue" d="M1177.09,-117.97C1213,-116.22 1259.05,-113.98 1300,-112 1650.53,-95.05 2074.91,-74.71 2199.8,-68.73"/>
<polygon fill="midnightblue" stroke="midnightblue" points="2200.12,-72.22 2209.94,-68.25 2199.79,-65.23 2200.12,-72.22"/>
</g>
<!-- Node48&#45;&gt;Node22 -->
<g id="edge108" class="edge">
<title>Node48&#45;&gt;Node22</title>
<path fill="none" stroke="midnightblue" d="M1085.05,-112.44C1051.42,-102.83 996.9,-87.26 961.24,-77.07"/>
<polygon fill="midnightblue" stroke="midnightblue" points="961.85,-73.6 951.27,-74.22 959.92,-80.33 961.85,-73.6"/>
</g>
<!-- Node49&#45;&gt;Node9 -->
<g id="edge137" class="edge">
<title>Node49&#45;&gt;Node9</title>
<path fill="none" stroke="midnightblue" d="M1803.32,-403.76C1800.51,-403.48 1797.73,-403.22 1795,-403 1752.27,-399.55 282.58,-397.05 252,-367 206.64,-322.42 209.96,-275.69 247,-224 300.12,-149.87 570.13,-98.02 698.29,-77.19"/>
<polygon fill="midnightblue" stroke="midnightblue" points="699.07,-80.61 708.38,-75.56 697.95,-73.69 699.07,-80.61"/>
</g>
<!-- Node49&#45;&gt;Node10 -->
<g id="edge135" class="edge">
<title>Node49&#45;&gt;Node10</title>
<path fill="none" stroke="midnightblue" d="M1803.32,-403.76C1800.51,-403.48 1797.73,-403.22 1795,-403 1708.42,-396.03 310.87,-403.38 232,-367 160.54,-334.04 114,-313.69 114,-235 114,-235 114,-235 114,-177 114,-24.18 661.23,-10.07 867.55,-10.18"/>
<polygon fill="midnightblue" stroke="midnightblue" points="867.69,-13.68 877.7,-10.2 867.71,-6.68 867.69,-13.68"/>
</g>
<!-- Node49&#45;&gt;Node15 -->
<g id="edge165" class="edge">
<title>Node49&#45;&gt;Node15</title>
<path fill="none" stroke="midnightblue" d="M1803.32,-403.76C1800.51,-403.48 1797.73,-403.22 1795,-403 1617.08,-388.74 356.96,-427.39 189,-367 88.15,-330.74 38,-286.17 38,-179 38,-179 38,-179 38,-121 38,-25.75 388.49,-12.89 502.58,-11.22"/>
<polygon fill="midnightblue" stroke="midnightblue" points="502.91,-14.72 512.86,-11.1 502.82,-7.72 502.91,-14.72"/>
</g>
<!-- Node49&#45;&gt;Node16 -->
<g id="edge172" class="edge">
<title>Node49&#45;&gt;Node16</title>
<path fill="none" stroke="midnightblue" d="M1916.62,-411.14C2117.42,-407.89 2794.91,-395.06 3010,-367 3122.91,-352.27 3150.68,-342.84 3260,-311 3439.66,-258.67 3478.12,-226.09 3656,-168 3710.15,-150.32 3744.85,-177.58 3779,-132 3817.63,-80.44 3769.13,-82.78 3693,-56 3618.62,-29.84 3384.66,-17.09 3285.8,-12.76"/>
<polygon fill="midnightblue" stroke="midnightblue" points="3285.68,-9.26 3275.54,-12.32 3285.38,-16.25 3285.68,-9.26"/>
</g>
<!-- Node49&#45;&gt;Node19 -->
<g id="edge173" class="edge">
<title>Node49&#45;&gt;Node19</title>
<path fill="none" stroke="midnightblue" d="M1916.64,-412.13C2190.89,-412.51 3382.6,-411.54 3751,-367 3895.58,-349.52 4071,-442.13 4071,-296.5 4071,-296.5 4071,-296.5 4071,-121 4071,-81.08 4044.9,-73.46 4009,-56 3932.45,-18.77 3669.21,-12.34 3576.02,-11.23"/>
<polygon fill="midnightblue" stroke="midnightblue" points="3575.81,-7.73 3565.77,-11.12 3575.73,-14.73 3575.81,-7.73"/>
</g>
<!-- Node49&#45;&gt;Node21 -->
<g id="edge164" class="edge">
<title>Node49&#45;&gt;Node21</title>
<path fill="none" stroke="midnightblue" d="M1916.82,-412.55C2021.12,-412.47 2249.6,-407.19 2437,-367 2509.03,-351.55 2543.25,-365.33 2593,-311 2654.38,-243.98 2701.1,-179.28 2640,-112 2586.04,-52.58 2365.55,-88.82 2272.24,-76.59"/>
<polygon fill="midnightblue" stroke="midnightblue" points="2272.73,-73.12 2262.3,-75 2271.62,-80.03 2272.73,-73.12"/>
</g>
<!-- Node49&#45;&gt;Node23 -->
<g id="edge170" class="edge">
<title>Node49&#45;&gt;Node23</title>
<path fill="none" stroke="midnightblue" d="M1803.32,-403.77C1800.51,-403.48 1797.73,-403.22 1795,-403 1712.52,-396.31 375.49,-411.92 306,-367 248.26,-329.68 215.46,-285.09 247,-224 287.08,-146.37 385.23,-98.77 436.16,-78.47"/>
<polygon fill="midnightblue" stroke="midnightblue" points="437.63,-81.66 445.69,-74.77 435.1,-75.13 437.63,-81.66"/>
</g>
<!-- Node49&#45;&gt;Node26 -->
<g id="edge112" class="edge">
<title>Node49&#45;&gt;Node26</title>
<path fill="none" stroke="midnightblue" d="M1863.05,-403.43C1875.1,-369.61 1919.51,-244.95 1936.41,-197.5"/>
<polygon fill="midnightblue" stroke="midnightblue" points="1939.77,-198.49 1939.83,-187.9 1933.18,-196.14 1939.77,-198.49"/>
</g>
<!-- Node49&#45;&gt;Node27 -->
<g id="edge166" class="edge">
<title>Node49&#45;&gt;Node27</title>
<path fill="none" stroke="midnightblue" d="M1880.17,-403.44C1917.3,-387.36 1998.47,-350.66 2062,-311 2152.71,-254.37 2251.01,-172.21 2290.31,-138.41"/>
<polygon fill="midnightblue" stroke="midnightblue" points="2292.91,-140.79 2298.19,-131.6 2288.33,-135.49 2292.91,-140.79"/>
</g>
<!-- Node49&#45;&gt;Node28 -->
<g id="edge167" class="edge">
<title>Node49&#45;&gt;Node28</title>
<path fill="none" stroke="midnightblue" d="M1916.73,-408.91C2087.17,-398.87 2583,-363.87 2583,-296.5 2583,-296.5 2583,-296.5 2583,-233 2583,-197.7 2562.28,-160.79 2548.36,-139.96"/>
<polygon fill="midnightblue" stroke="midnightblue" points="2551.12,-137.8 2542.54,-131.59 2545.37,-141.8 2551.12,-137.8"/>
</g>
<!-- Node49&#45;&gt;Node32 -->
<g id="edge168" class="edge">
<title>Node49&#45;&gt;Node32</title>
<path fill="none" stroke="midnightblue" d="M1860.26,-403.11C1860.7,-374.95 1859.14,-285.93 1825,-224 1822.04,-218.63 1763.36,-165.53 1733.35,-138.55"/>
<polygon fill="midnightblue" stroke="midnightblue" points="1735.5,-135.78 1725.72,-131.7 1730.82,-140.99 1735.5,-135.78"/>
</g>
<!-- Node49&#45;&gt;Node33 -->
<g id="edge169" class="edge">
<title>Node49&#45;&gt;Node33</title>
<path fill="none" stroke="midnightblue" d="M1803.31,-403.92C1800.5,-403.59 1797.72,-403.28 1795,-403 1564.57,-379.1 1505.18,-393.17 1275,-367 1117.17,-349.05 1078.42,-338.68 922,-311 769.05,-283.94 677.74,-363.9 579,-244 573.35,-237.14 573.15,-230.69 579,-224 603.31,-196.2 1164.31,-139.17 1299.08,-125.83"/>
<polygon fill="midnightblue" stroke="midnightblue" points="1299.81,-129.28 1309.42,-124.81 1299.12,-122.31 1299.81,-129.28"/>
</g>
<!-- Node49&#45;&gt;Node42 -->
<g id="edge132" class="edge">
<title>Node49&#45;&gt;Node42</title>
<path fill="none" stroke="midnightblue" d="M1916.88,-411.93C2142.12,-411.01 2971.15,-401.43 3215,-311 3290.1,-283.15 3365.53,-222.9 3398.61,-194.46"/>
<polygon fill="midnightblue" stroke="midnightblue" points="3401.19,-196.85 3406.44,-187.65 3396.6,-191.58 3401.19,-196.85"/>
</g>
<!-- Node49&#45;&gt;Node44 -->
<g id="edge174" class="edge">
<title>Node49&#45;&gt;Node44</title>
<path fill="none" stroke="midnightblue" d="M1803.32,-403.77C1800.51,-403.48 1797.73,-403.22 1795,-403 1713.74,-396.4 394.2,-414.59 328,-367 291.47,-340.74 282.66,-283.76 280.59,-253.99"/>
<polygon fill="midnightblue" stroke="midnightblue" points="284.07,-253.52 280.08,-243.71 277.08,-253.87 284.07,-253.52"/>
</g>
<!-- Node50 -->
<g id="node41" class="node">
<title>Node50</title>
<g id="a_node41"><a xlink:href="c_2Error_8h.html" target="_top" xlink:title=" ">
<polygon fill="none" stroke="red" points="1284,-347.5 1284,-366.5 1366,-366.5 1366,-347.5 1284,-347.5"/>
<text text-anchor="middle" x="1325" y="-354.5" font-family="Helvetica,sans-Serif" font-size="10.00">llvm&#45;c/Error.h</text>
</a>
</g>
</g>
<!-- Node49&#45;&gt;Node50 -->
<g id="edge111" class="edge">
<title>Node49&#45;&gt;Node50</title>
<path fill="none" stroke="midnightblue" d="M1803.3,-403.97C1800.5,-403.63 1797.72,-403.3 1795,-403 1612.09,-382.51 1562.46,-391.3 1376.28,-367.05"/>
<polygon fill="midnightblue" stroke="midnightblue" points="1376.52,-363.55 1366.15,-365.72 1375.61,-370.49 1376.52,-363.55"/>
</g>
<!-- Node52 -->
<g id="node42" class="node">
<title>Node52</title>
<g id="a_node42"><a xlink:href="StringExtras_8h.html" target="_top" xlink:title=" ">
<polygon fill="none" stroke="red" points="1384.5,-347.5 1384.5,-366.5 1517.5,-366.5 1517.5,-347.5 1384.5,-347.5"/>
<text text-anchor="middle" x="1451" y="-354.5" font-family="Helvetica,sans-Serif" font-size="10.00">llvm/ADT/StringExtras.h</text>
</a>
</g>
</g>
<!-- Node49&#45;&gt;Node52 -->
<g id="edge113" class="edge">
<title>Node49&#45;&gt;Node52</title>
<path fill="none" stroke="midnightblue" d="M1803.28,-404.12C1800.48,-403.74 1797.71,-403.36 1795,-403 1702.97,-390.61 1597.03,-376.82 1527.31,-367.81"/>
<polygon fill="midnightblue" stroke="midnightblue" points="1527.65,-364.33 1517.29,-366.52 1526.76,-371.27 1527.65,-364.33"/>
</g>
<!-- Node59 -->
<g id="node43" class="node">
<title>Node59</title>
<g id="a_node43"><a xlink:href="Twine_8h.html" target="_top" xlink:title=" ">
<polygon fill="none" stroke="black" points="588.5,-224.5 588.5,-243.5 689.5,-243.5 689.5,-224.5 588.5,-224.5"/>
<text text-anchor="middle" x="639" y="-231.5" font-family="Helvetica,sans-Serif" font-size="10.00">llvm/ADT/Twine.h</text>
</a>
</g>
</g>
<!-- Node49&#45;&gt;Node59 -->
<g id="edge131" class="edge">
<title>Node49&#45;&gt;Node59</title>
<path fill="none" stroke="midnightblue" d="M1822.13,-403.43C1760.4,-389.74 1634.13,-362.86 1526,-347 1366.03,-323.53 1323.3,-338.68 1164,-311 1108.03,-301.27 1095.91,-290.08 1040,-280 920.41,-258.44 778.78,-245.44 699.88,-239.29"/>
<polygon fill="midnightblue" stroke="midnightblue" points="699.88,-235.78 689.64,-238.51 699.34,-242.76 699.88,-235.78"/>
</g>
<!-- Node60 -->
<g id="node44" class="node">
<title>Node60</title>
<g id="a_node44"><a xlink:href="AlignOf_8h.html" target="_top" xlink:title=" ">
<polygon fill="none" stroke="black" points="3665,-168.5 3665,-187.5 3791,-187.5 3791,-168.5 3665,-168.5"/>
<text text-anchor="middle" x="3728" y="-175.5" font-family="Helvetica,sans-Serif" font-size="10.00">llvm/Support/AlignOf.h</text>
</a>
</g>
</g>
<!-- Node49&#45;&gt;Node60 -->
<g id="edge133" class="edge">
<title>Node49&#45;&gt;Node60</title>
<path fill="none" stroke="midnightblue" d="M1916.88,-411.37C2185.96,-408.27 3324.54,-393.65 3481,-367 3561.5,-353.29 3593.05,-363.02 3656,-311 3692.95,-280.47 3713.94,-225.82 3722.85,-197.36"/>
<polygon fill="midnightblue" stroke="midnightblue" points="3726.28,-198.12 3725.77,-187.53 3719.57,-196.12 3726.28,-198.12"/>
</g>
<!-- Node61 -->
<g id="node45" class="node">
<title>Node61</title>
<g id="a_node45"><a xlink:href="Debug_8h.html" target="_top" xlink:title=" ">
<polygon fill="none" stroke="black" points="1661,-347.5 1661,-366.5 1783,-366.5 1783,-347.5 1661,-347.5"/>
<text text-anchor="middle" x="1722" y="-354.5" font-family="Helvetica,sans-Serif" font-size="10.00">llvm/Support/Debug.h</text>
</a>
</g>
</g>
<!-- Node49&#45;&gt;Node61 -->
<g id="edge136" class="edge">
<title>Node49&#45;&gt;Node61</title>
<path fill="none" stroke="midnightblue" d="M1838.13,-403.44C1815.22,-394.48 1779.02,-380.31 1753.13,-370.18"/>
<polygon fill="midnightblue" stroke="midnightblue" points="1754.35,-366.9 1743.76,-366.52 1751.8,-373.42 1754.35,-366.9"/>
</g>
<!-- Node49&#45;&gt;Node62 -->
<g id="edge138" class="edge">
<title>Node49&#45;&gt;Node62</title>
<path fill="none" stroke="midnightblue" d="M1916.58,-411.82C2215.13,-410.72 3596.66,-403.64 3679,-367 3733.4,-342.79 3775.51,-282.57 3793.9,-252.56"/>
<polygon fill="midnightblue" stroke="midnightblue" points="3797.1,-254.03 3799.21,-243.64 3791.09,-250.45 3797.1,-254.03"/>
</g>
<!-- Node49&#45;&gt;Node63 -->
<g id="edge171" class="edge">
<title>Node49&#45;&gt;Node63</title>
<path fill="none" stroke="midnightblue" d="M1916.88,-411.45C2218.55,-408.43 3621.11,-393.02 3709,-367 3809.06,-337.37 3829.86,-312.02 3909,-244 3925.74,-229.61 3941.66,-209.9 3952.02,-195.97"/>
<polygon fill="midnightblue" stroke="midnightblue" points="3954.94,-197.91 3957.98,-187.76 3949.28,-193.79 3954.94,-197.91"/>
</g>
<!-- Node64 -->
<g id="node48" class="node">
<title>Node64</title>
<g id="a_node48"><a xlink:href="Format_8h.html" target="_top" xlink:title=" ">
<polygon fill="none" stroke="red" points="2649.5,-347.5 2649.5,-366.5 2774.5,-366.5 2774.5,-347.5 2649.5,-347.5"/>
<text text-anchor="middle" x="2712" y="-354.5" font-family="Helvetica,sans-Serif" font-size="10.00">llvm/Support/Format.h</text>
</a>
</g>
</g>
<!-- Node49&#45;&gt;Node64 -->
<g id="edge144" class="edge">
<title>Node49&#45;&gt;Node64</title>
<path fill="none" stroke="midnightblue" d="M1916.96,-409.83C2045.3,-404.7 2366.81,-390.44 2635,-367 2636.47,-366.87 2637.95,-366.74 2639.44,-366.6"/>
<polygon fill="midnightblue" stroke="midnightblue" points="2639.8,-370.08 2649.42,-365.62 2639.12,-363.11 2639.8,-370.08"/>
</g>
<!-- Node66 -->
<g id="node49" class="node">
<title>Node66</title>
<g id="a_node49"><a xlink:href="raw__ostream_8h.html" target="_top" xlink:title=" ">
<polygon fill="none" stroke="black" points="1513.5,-224.5 1513.5,-243.5 1668.5,-243.5 1668.5,-224.5 1513.5,-224.5"/>
<text text-anchor="middle" x="1591" y="-231.5" font-family="Helvetica,sans-Serif" font-size="10.00">llvm/Support/raw_ostream.h</text>
</a>
</g>
</g>
<!-- Node49&#45;&gt;Node66 -->
<g id="edge152" class="edge">
<title>Node49&#45;&gt;Node66</title>
<path fill="none" stroke="midnightblue" d="M1852.23,-403.27C1840.2,-390.05 1815.92,-364.65 1792,-347 1734.54,-304.61 1659.32,-266.81 1619.16,-247.86"/>
<polygon fill="midnightblue" stroke="midnightblue" points="1620.51,-244.63 1609.97,-243.56 1617.55,-250.97 1620.51,-244.63"/>
</g>
<!-- Node52&#45;&gt;Node2 -->
<g id="edge114" class="edge">
<title>Node52&#45;&gt;Node2</title>
<path fill="none" stroke="midnightblue" d="M1454.3,-347.48C1457.61,-338.9 1462.82,-325.43 1467.05,-314.48"/>
<polygon fill="midnightblue" stroke="midnightblue" points="1470.37,-315.6 1470.71,-305.01 1463.84,-313.07 1470.37,-315.6"/>
</g>
<!-- Node52&#45;&gt;Node14 -->
<g id="edge124" class="edge">
<title>Node52&#45;&gt;Node14</title>
<path fill="none" stroke="midnightblue" d="M1384.3,-347.82C1381.16,-347.52 1378.05,-347.25 1375,-347 1282.88,-339.56 621.99,-360.59 544,-311 440.28,-245.05 351.71,-144.49 437,-56 458.08,-34.13 1419.73,-15.36 1621.22,-11.66"/>
<polygon fill="midnightblue" stroke="midnightblue" points="1621.36,-15.16 1631.29,-11.48 1621.23,-8.16 1621.36,-15.16"/>
</g>
<!-- Node52&#45;&gt;Node15 -->
<g id="edge125" class="edge">
<title>Node52&#45;&gt;Node15</title>
<path fill="none" stroke="midnightblue" d="M1384.3,-347.81C1381.16,-347.51 1378.05,-347.24 1375,-347 1277.56,-339.25 584.06,-353.44 496,-311 372.18,-251.32 234.23,-162.61 321,-56 343.53,-28.32 447.39,-17.12 502.86,-13.06"/>
<polygon fill="midnightblue" stroke="midnightblue" points="503.21,-16.54 512.94,-12.36 502.72,-9.56 503.21,-16.54"/>
</g>
<!-- Node52&#45;&gt;Node19 -->
<g id="edge130" class="edge">
<title>Node52&#45;&gt;Node19</title>
<path fill="none" stroke="midnightblue" d="M1517.66,-352.98C1907.29,-335.32 3872.86,-246.14 3876,-244 3887.26,-236.32 3922.92,-145.28 3926,-132 3933.63,-99.08 3950.46,-81.24 3928,-56 3904.7,-29.82 3664.46,-16.45 3575.71,-12.38"/>
<polygon fill="midnightblue" stroke="midnightblue" points="3575.81,-8.88 3565.67,-11.93 3575.5,-15.87 3575.81,-8.88"/>
</g>
<!-- Node52&#45;&gt;Node21 -->
<g id="edge123" class="edge">
<title>Node52&#45;&gt;Node21</title>
<path fill="none" stroke="midnightblue" d="M1492.69,-347.46C1575.37,-330.23 1765.74,-289.08 1923,-244 1997.85,-222.54 2016.26,-215.77 2089,-188 2118.58,-176.71 2199.51,-156.13 2220,-132 2230.92,-119.14 2234.6,-99.96 2235.74,-85.76"/>
<polygon fill="midnightblue" stroke="midnightblue" points="2239.24,-85.81 2236.2,-75.66 2232.25,-85.5 2239.24,-85.81"/>
</g>
<!-- Node52&#45;&gt;Node22 -->
<g id="edge127" class="edge">
<title>Node52&#45;&gt;Node22</title>
<path fill="none" stroke="midnightblue" d="M1384.3,-347.83C1381.16,-347.53 1378.05,-347.25 1375,-347 1292.08,-340.1 702.13,-346.76 627,-311 590.91,-293.82 581.27,-281.34 567,-244 545.76,-188.45 544,-150.89 589,-112 591.85,-109.53 805.14,-82.3 890.88,-71.44"/>
<polygon fill="midnightblue" stroke="midnightblue" points="891.44,-74.89 900.92,-70.16 890.56,-67.95 891.44,-74.89"/>
</g>
<!-- Node52&#45;&gt;Node23 -->
<g id="edge129" class="edge">
<title>Node52&#45;&gt;Node23</title>
<path fill="none" stroke="midnightblue" d="M1384.3,-347.82C1381.16,-347.53 1378.05,-347.25 1375,-347 1287.09,-339.81 655.31,-360.04 582,-311 502.29,-257.69 477.13,-133.19 470.28,-85.79"/>
<polygon fill="midnightblue" stroke="midnightblue" points="473.72,-85.16 468.93,-75.71 466.79,-86.09 473.72,-85.16"/>
</g>
<!-- Node52&#45;&gt;Node27 -->
<g id="edge126" class="edge">
<title>Node52&#45;&gt;Node27</title>
<path fill="none" stroke="midnightblue" d="M1517.62,-352.35C1656.26,-344.5 1966.82,-325.57 2013,-311 2069.05,-293.32 2084.78,-284.89 2127,-244 2155.7,-216.21 2143.61,-192.71 2175,-168 2190.45,-155.84 2239.24,-141.14 2273.21,-131.92"/>
<polygon fill="midnightblue" stroke="midnightblue" points="2274.47,-135.21 2283.23,-129.25 2272.67,-128.45 2274.47,-135.21"/>
</g>
<!-- Node52&#45;&gt;Node30 -->
<g id="edge128" class="edge">
<title>Node52&#45;&gt;Node30</title>
<path fill="none" stroke="midnightblue" d="M1384.29,-347.95C1381.15,-347.62 1378.04,-347.3 1375,-347 1197.5,-329.44 692.39,-381.68 579,-244 552.81,-212.2 587.7,-163.92 609.63,-139.05"/>
<polygon fill="midnightblue" stroke="midnightblue" points="612.31,-141.31 616.47,-131.57 607.14,-136.59 612.31,-141.31"/>
</g>
<!-- Node52&#45;&gt;Node45 -->
<g id="edge115" class="edge">
<title>Node52&#45;&gt;Node45</title>
<path fill="none" stroke="midnightblue" d="M1517.72,-352.94C1670.28,-345.76 2041,-327.2 2165,-311 2315.99,-291.28 2351.95,-275.17 2501,-244 2588.97,-225.6 2691.31,-202.92 2749.99,-189.8"/>
<polygon fill="midnightblue" stroke="midnightblue" points="2751.08,-193.14 2760.07,-187.54 2749.55,-186.31 2751.08,-193.14"/>
</g>
<!-- Node52&#45;&gt;Node59 -->
<g id="edge116" class="edge">
<title>Node52&#45;&gt;Node59</title>
<path fill="none" stroke="midnightblue" d="M1387.13,-347.49C1321.56,-338.67 1216.59,-324.34 1126,-311 972.39,-288.38 791.88,-259.65 699.77,-244.83"/>
<polygon fill="midnightblue" stroke="midnightblue" points="700.22,-241.35 689.79,-243.22 699.1,-248.27 700.22,-241.35"/>
</g>
<!-- Node59&#45;&gt;Node9 -->
<g id="edge119" class="edge">
<title>Node59&#45;&gt;Node9</title>
<path fill="none" stroke="midnightblue" d="M629.82,-224.27C608.71,-203.17 560.68,-148.43 589,-112 601.61,-95.78 646.82,-84.45 688.39,-77.21"/>
<polygon fill="midnightblue" stroke="midnightblue" points="689.02,-80.66 698.3,-75.55 687.86,-73.75 689.02,-80.66"/>
</g>
<!-- Node59&#45;&gt;Node15 -->
<g id="edge121" class="edge">
<title>Node59&#45;&gt;Node15</title>
<path fill="none" stroke="midnightblue" d="M588.2,-225.8C513.52,-212.05 377.58,-174.11 328,-76 323.99,-68.07 322.41,-62.91 328,-56 349.59,-29.29 448.85,-17.72 502.82,-13.33"/>
<polygon fill="midnightblue" stroke="midnightblue" points="503.27,-16.81 512.97,-12.55 502.73,-9.83 503.27,-16.81"/>
</g>
<!-- Node59&#45;&gt;Node21 -->
<g id="edge120" class="edge">
<title>Node59&#45;&gt;Node21</title>
<path fill="none" stroke="midnightblue" d="M689.6,-228.82C775.94,-221.53 957.2,-205.6 1110,-188 1294.89,-166.7 1342.5,-168.49 1525,-132 1558.83,-125.24 1565.97,-117.69 1600,-112 1825.73,-74.27 2101.68,-68.13 2199.5,-67.17"/>
<polygon fill="midnightblue" stroke="midnightblue" points="2199.77,-70.66 2209.74,-67.08 2199.71,-63.66 2199.77,-70.66"/>
</g>
<!-- Node59&#45;&gt;Node23 -->
<g id="edge122" class="edge">
<title>Node59&#45;&gt;Node23</title>
<path fill="none" stroke="midnightblue" d="M627.95,-224.37C616.82,-215.54 599.31,-201.29 585,-188 546.31,-152.07 503.95,-106.58 482.37,-82.92"/>
<polygon fill="midnightblue" stroke="midnightblue" points="484.96,-80.57 475.65,-75.52 479.78,-85.27 484.96,-80.57"/>
</g>
<!-- Node59&#45;&gt;Node26 -->
<g id="edge117" class="edge">
<title>Node59&#45;&gt;Node26</title>
<path fill="none" stroke="midnightblue" d="M689.72,-230.9C890.12,-222.6 1627.52,-192.06 1867.2,-182.14"/>
<polygon fill="midnightblue" stroke="midnightblue" points="1867.37,-185.64 1877.21,-181.72 1867.08,-178.64 1867.37,-185.64"/>
</g>
<!-- Node59&#45;&gt;Node45 -->
<g id="edge118" class="edge">
<title>Node59&#45;&gt;Node45</title>
<path fill="none" stroke="midnightblue" d="M689.77,-231.85C906.43,-226.95 1775.22,-207.08 2489,-188 2571.33,-185.8 2665.99,-183 2728.61,-181.12"/>
<polygon fill="midnightblue" stroke="midnightblue" points="2728.88,-184.61 2738.76,-180.81 2728.66,-177.61 2728.88,-184.61"/>
</g>
<!-- Node60&#45;&gt;Node16 -->
<g id="edge134" class="edge">
<title>Node60&#45;&gt;Node16</title>
<path fill="none" stroke="midnightblue" d="M3776.77,-168.5C3797.79,-162.15 3820.39,-151.12 3833,-132 3851.59,-103.8 3855.96,-80.77 3833,-56 3814.43,-35.97 3420.71,-18.26 3285.85,-12.76"/>
<polygon fill="midnightblue" stroke="midnightblue" points="3285.98,-9.26 3275.85,-12.35 3285.7,-16.25 3285.98,-9.26"/>
</g>
<!-- Node62&#45;&gt;Node16 -->
<g id="edge142" class="edge">
<title>Node62&#45;&gt;Node16</title>
<path fill="none" stroke="midnightblue" d="M3811.27,-224.31C3834,-196.09 3899.45,-105.99 3853,-56 3833.72,-35.25 3423.96,-17.91 3285.93,-12.65"/>
<polygon fill="midnightblue" stroke="midnightblue" points="3285.83,-9.14 3275.71,-12.26 3285.57,-16.13 3285.83,-9.14"/>
</g>
<!-- Node62&#45;&gt;Node19 -->
<g id="edge143" class="edge">
<title>Node62&#45;&gt;Node19</title>
<path fill="none" stroke="midnightblue" d="M3815.08,-224.26C3839.99,-204.31 3899.04,-155.39 3909,-132 3922.23,-100.92 3931.38,-81.3 3909,-56 3887.06,-31.2 3661.51,-17.09 3575.8,-12.59"/>
<polygon fill="midnightblue" stroke="midnightblue" points="3575.77,-9.09 3565.6,-12.07 3575.41,-16.08 3575.77,-9.09"/>
</g>
<!-- Node62&#45;&gt;Node21 -->
<g id="edge140" class="edge">
<title>Node62&#45;&gt;Node21</title>
<path fill="none" stroke="midnightblue" d="M3771.67,-224.47C3716.15,-210.2 3598.91,-181.71 3498,-168 3236.8,-132.52 3168.15,-159.63 2906,-132 2846.55,-125.74 2832.41,-118.57 2773,-112 2552.19,-87.58 2490.74,-114.83 2272.15,-76.78"/>
<polygon fill="midnightblue" stroke="midnightblue" points="2272.75,-73.34 2262.29,-75.04 2271.53,-80.23 2272.75,-73.34"/>
</g>
<!-- Node62&#45;&gt;Node60 -->
<g id="edge139" class="edge">
<title>Node62&#45;&gt;Node60</title>
<path fill="none" stroke="midnightblue" d="M3791.79,-224.32C3780.22,-216.11 3762.62,-203.6 3748.84,-193.81"/>
<polygon fill="midnightblue" stroke="midnightblue" points="3750.61,-190.77 3740.43,-187.83 3746.56,-196.48 3750.61,-190.77"/>
</g>
<!-- Node62&#45;&gt;Node63 -->
<g id="edge141" class="edge">
<title>Node62&#45;&gt;Node63</title>
<path fill="none" stroke="midnightblue" d="M3829.35,-224.44C3856.27,-215.36 3899,-200.94 3929.09,-190.78"/>
<polygon fill="midnightblue" stroke="midnightblue" points="3930.41,-194.03 3938.77,-187.52 3928.17,-187.4 3930.41,-194.03"/>
</g>
<!-- Node64&#45;&gt;Node2 -->
<g id="edge145" class="edge">
<title>Node64&#45;&gt;Node2</title>
<path fill="none" stroke="midnightblue" d="M2649.33,-352.99C2439.22,-342.89 1760.69,-310.28 1542.36,-299.79"/>
<polygon fill="midnightblue" stroke="midnightblue" points="1542.47,-296.29 1532.31,-299.3 1542.13,-303.28 1542.47,-296.29"/>
</g>
<!-- Node64&#45;&gt;Node4 -->
<g id="edge148" class="edge">
<title>Node64&#45;&gt;Node4</title>
<path fill="none" stroke="midnightblue" d="M2649.16,-355.07C2396.41,-351.15 1464.82,-335.14 1407,-311 1312.94,-271.74 1231.52,-193.3 1293,-112 1304.6,-96.67 1347.63,-85.05 1386.01,-77.47"/>
<polygon fill="midnightblue" stroke="midnightblue" points="1386.99,-80.85 1396.16,-75.53 1385.68,-73.97 1386.99,-80.85"/>
</g>
<!-- Node64&#45;&gt;Node19 -->
<g id="edge151" class="edge">
<title>Node64&#45;&gt;Node19</title>
<path fill="none" stroke="midnightblue" d="M2774.76,-355.56C2891.92,-353.89 3151.57,-346.15 3367,-311 3420.94,-302.2 3432.13,-289.24 3486,-280 3671.96,-248.1 3728.06,-297.49 3909,-244 3959.72,-229.01 3986.79,-233.35 4014,-188 4036.51,-150.48 4074.34,-132.7 3985,-56 3954.08,-29.45 3673.01,-16.07 3575.86,-12.21"/>
<polygon fill="midnightblue" stroke="midnightblue" points="3575.86,-8.71 3565.73,-11.81 3575.58,-15.7 3575.86,-8.71"/>
</g>
<!-- Node64&#45;&gt;Node21 -->
<g id="edge149" class="edge">
<title>Node64&#45;&gt;Node21</title>
<path fill="none" stroke="midnightblue" d="M2710.16,-347.24C2706.16,-327.37 2697,-277.34 2697,-235 2697,-235 2697,-235 2697,-177 2697,-146.2 2697.46,-130.7 2673,-112 2603.51,-58.87 2372.57,-90.37 2272.43,-76.64"/>
<polygon fill="midnightblue" stroke="midnightblue" points="2272.73,-73.15 2262.3,-75.01 2271.61,-80.06 2272.73,-73.15"/>
</g>
<!-- Node64&#45;&gt;Node24 -->
<g id="edge150" class="edge">
<title>Node64&#45;&gt;Node24</title>
<path fill="none" stroke="midnightblue" d="M2746.67,-347.46C2824.03,-326.3 3009.72,-263.43 3084,-132 3094.24,-113.89 3076.57,-94.44 3060.46,-81.58"/>
<polygon fill="midnightblue" stroke="midnightblue" points="3062.44,-78.69 3052.33,-75.5 3058.25,-84.29 3062.44,-78.69"/>
</g>
<!-- Node64&#45;&gt;Node34 -->
<g id="edge146" class="edge">
<title>Node64&#45;&gt;Node34</title>
<path fill="none" stroke="midnightblue" d="M2692.24,-347.49C2643.59,-326.54 2517.79,-272.37 2460.37,-247.64"/>
<polygon fill="midnightblue" stroke="midnightblue" points="2461.68,-244.4 2451.11,-243.66 2458.91,-250.83 2461.68,-244.4"/>
</g>
<!-- Node64&#45;&gt;Node45 -->
<g id="edge147" class="edge">
<title>Node64&#45;&gt;Node45</title>
<path fill="none" stroke="midnightblue" d="M2716.15,-347.46C2729.4,-320.19 2770.9,-234.78 2789.19,-197.13"/>
<polygon fill="midnightblue" stroke="midnightblue" points="2792.47,-198.39 2793.69,-187.87 2786.17,-195.33 2792.47,-198.39"/>
</g>
<!-- Node66&#45;&gt;Node4 -->
<g id="edge156" class="edge">
<title>Node66&#45;&gt;Node4</title>
<path fill="none" stroke="midnightblue" d="M1548.24,-224.45C1474.71,-208.79 1329.37,-173.29 1300,-132 1294.85,-124.76 1294.68,-119.12 1300,-112 1311.14,-97.09 1352.95,-85.37 1389.91,-77.63"/>
<polygon fill="midnightblue" stroke="midnightblue" points="1391.07,-80.97 1400.17,-75.56 1389.68,-74.11 1391.07,-80.97"/>
</g>
<!-- Node66&#45;&gt;Node14 -->
<g id="edge158" class="edge">
<title>Node66&#45;&gt;Node14</title>
<path fill="none" stroke="midnightblue" d="M1516.11,-224.5C1373.41,-207.54 1074,-168.05 1044,-132 1038.31,-125.17 1040.56,-120.2 1044,-112 1057.74,-79.25 1068.7,-70.76 1101,-56 1194.08,-13.47 1512.04,-10.48 1621.01,-10.74"/>
<polygon fill="midnightblue" stroke="midnightblue" points="1621.17,-14.24 1631.18,-10.78 1621.2,-7.24 1621.17,-14.24"/>
</g>
<!-- Node66&#45;&gt;Node15 -->
<g id="edge159" class="edge">
<title>Node66&#45;&gt;Node15</title>
<path fill="none" stroke="midnightblue" d="M1513.23,-224.73C1510.11,-224.47 1507.03,-224.23 1504,-224 1151.28,-197.79 1056.76,-252.54 709,-188 580.46,-164.14 504.04,-188.24 437,-76 419.24,-46.26 467.05,-27.75 502.81,-18.42"/>
<polygon fill="midnightblue" stroke="midnightblue" points="504.1,-21.7 512.98,-15.92 502.43,-14.91 504.1,-21.7"/>
</g>
<!-- Node66&#45;&gt;Node16 -->
<g id="edge163" class="edge">
<title>Node66&#45;&gt;Node16</title>
<path fill="none" stroke="midnightblue" d="M1668.78,-232.65C1908.44,-231.18 2633.41,-223.83 2866,-188 2958.08,-173.81 2988.67,-180.86 3068,-132 3106.85,-108.07 3099.9,-82.55 3137,-56 3157.17,-41.57 3182.68,-30.44 3203.4,-22.86"/>
<polygon fill="midnightblue" stroke="midnightblue" points="3204.57,-26.16 3212.84,-19.53 3202.24,-19.56 3204.57,-26.16"/>
</g>
<!-- Node66&#45;&gt;Node21 -->
<g id="edge157" class="edge">
<title>Node66&#45;&gt;Node21</title>
<path fill="none" stroke="midnightblue" d="M1577.34,-224.49C1559.68,-212.38 1532.6,-189.26 1545,-168 1551.37,-157.08 1631.91,-115.68 1644,-112 1748.84,-80.1 2087.96,-70.15 2199.83,-67.69"/>
<polygon fill="midnightblue" stroke="midnightblue" points="2200.01,-71.19 2209.93,-67.48 2199.86,-64.19 2200.01,-71.19"/>
</g>
<!-- Node66&#45;&gt;Node22 -->
<g id="edge160" class="edge">
<title>Node66&#45;&gt;Node22</title>
<path fill="none" stroke="midnightblue" d="M1513.22,-224.86C1510.11,-224.56 1507.02,-224.27 1504,-224 1299.77,-205.45 1239.86,-248.77 1044,-188 996.46,-173.25 978.3,-170.71 947,-132 936.18,-118.61 930.87,-99.5 928.31,-85.47"/>
<polygon fill="midnightblue" stroke="midnightblue" points="931.76,-84.86 926.79,-75.51 924.84,-85.92 931.76,-84.86"/>
</g>
<!-- Node66&#45;&gt;Node23 -->
<g id="edge161" class="edge">
<title>Node66&#45;&gt;Node23</title>
<path fill="none" stroke="midnightblue" d="M1513.23,-224.8C1510.11,-224.52 1507.03,-224.25 1504,-224 1096.69,-190.17 975.95,-263.62 589,-132 551.93,-119.39 512.63,-96.22 489.22,-81.22"/>
<polygon fill="midnightblue" stroke="midnightblue" points="491.06,-78.24 480.77,-75.72 487.24,-84.11 491.06,-78.24"/>
</g>
<!-- Node66&#45;&gt;Node26 -->
<g id="edge153" class="edge">
<title>Node66&#45;&gt;Node26</title>
<path fill="none" stroke="midnightblue" d="M1646.78,-224.44C1709.47,-214.83 1811.15,-199.23 1877.55,-189.04"/>
<polygon fill="midnightblue" stroke="midnightblue" points="1878.13,-192.49 1887.49,-187.52 1877.07,-185.57 1878.13,-192.49"/>
</g>
<!-- Node66&#45;&gt;Node35 -->
<g id="edge155" class="edge">
<title>Node66&#45;&gt;Node35</title>
<path fill="none" stroke="midnightblue" d="M1594.3,-224.08C1596.98,-216.85 1600.85,-206.41 1604.19,-197.4"/>
<polygon fill="midnightblue" stroke="midnightblue" points="1607.57,-198.34 1607.76,-187.75 1601,-195.91 1607.57,-198.34"/>
</g>
<!-- Node66&#45;&gt;Node45 -->
<g id="edge154" class="edge">
<title>Node66&#45;&gt;Node45</title>
<path fill="none" stroke="midnightblue" d="M1668.8,-229.52C1889.65,-219.64 2517.99,-191.53 2728.39,-182.11"/>
<polygon fill="midnightblue" stroke="midnightblue" points="2728.85,-185.6 2738.68,-181.65 2728.54,-178.6 2728.85,-185.6"/>
</g>
<!-- Node66&#45;&gt;Node63 -->
<g id="edge162" class="edge">
<title>Node66&#45;&gt;Node63</title>
<path fill="none" stroke="midnightblue" d="M1668.8,-232.38C1953.54,-229.93 2965.81,-219.38 3800,-188 3837.93,-186.57 3880.75,-184.2 3913.12,-182.25"/>
<polygon fill="midnightblue" stroke="midnightblue" points="3913.47,-185.73 3923.24,-181.63 3913.05,-178.74 3913.47,-185.73"/>
</g>
<!-- Node67&#45;&gt;Node45 -->
<g id="edge177" class="edge">
<title>Node67&#45;&gt;Node45</title>
<path fill="none" stroke="midnightblue" d="M3494.77,-283.11C3343.66,-260.53 3008.38,-210.43 2865.07,-189.02"/>
<polygon fill="midnightblue" stroke="midnightblue" points="2865.5,-185.55 2855.09,-187.53 2864.46,-192.47 2865.5,-185.55"/>
</g>
</g>
</svg>
