<?xml version="1.0" encoding="UTF-8" standalone="no"?>
<!DOCTYPE svg PUBLIC "-//W3C//DTD SVG 1.1//EN"
 "http://www.w3.org/Graphics/SVG/1.1/DTD/svg11.dtd">
<!-- Generated by graphviz version 2.43.0 (0)
 -->
<!-- Title: lib/Support/BLAKE3/blake3_dispatch.c Pages: 1 -->
<svg width="590pt" height="207pt"
 viewBox="0.00 0.00 590.29 207.00" xmlns="http://www.w3.org/2000/svg" xmlns:xlink="http://www.w3.org/1999/xlink">
<g id="graph0" class="graph" transform="scale(1 1) rotate(0) translate(4 203)">
<title>lib/Support/BLAKE3/blake3_dispatch.c</title>
<!-- Node1 -->
<g id="node1" class="node">
<title>Node1</title>
<g id="a_node1"><a xlink:title=" ">
<polygon fill="#bfbfbf" stroke="black" points="154.12,-168.5 154.12,-198.5 264.12,-198.5 264.12,-168.5 154.12,-168.5"/>
<text text-anchor="start" x="162.12" y="-186.5" font-family="Helvetica,sans-Serif" font-size="10.00">lib/Support/BLAKE3</text>
<text text-anchor="middle" x="209.12" y="-175.5" font-family="Helvetica,sans-Serif" font-size="10.00">/blake3_dispatch.c</text>
</a>
</g>
</g>
<!-- Node2 -->
<g id="node2" class="node">
<title>Node2</title>
<g id="a_node2"><a xlink:title=" ">
<polygon fill="none" stroke="#bfbfbf" points="20.12,-56.5 20.12,-75.5 82.12,-75.5 82.12,-56.5 20.12,-56.5"/>
<text text-anchor="middle" x="51.12" y="-63.5" font-family="Helvetica,sans-Serif" font-size="10.00">stdbool.h</text>
</a>
</g>
</g>
<!-- Node1&#45;&gt;Node2 -->
<g id="edge1" class="edge">
<title>Node1&#45;&gt;Node2</title>
<path fill="none" stroke="midnightblue" d="M189.74,-168.34C159.59,-146.3 101.74,-104.01 71.18,-81.66"/>
<polygon fill="midnightblue" stroke="midnightblue" points="73.11,-78.75 62.98,-75.67 68.98,-84.4 73.11,-78.75"/>
</g>
<!-- Node3 -->
<g id="node3" class="node">
<title>Node3</title>
<g id="a_node3"><a xlink:title=" ">
<polygon fill="none" stroke="#bfbfbf" points="234.12,-0.5 234.12,-19.5 290.12,-19.5 290.12,-0.5 234.12,-0.5"/>
<text text-anchor="middle" x="262.12" y="-7.5" font-family="Helvetica,sans-Serif" font-size="10.00">stddef.h</text>
</a>
</g>
</g>
<!-- Node1&#45;&gt;Node3 -->
<g id="edge2" class="edge">
<title>Node1&#45;&gt;Node3</title>
<path fill="none" stroke="midnightblue" d="M153.98,-170.34C80.21,-151.62 -36.15,-111.92 11.12,-56 42.1,-19.34 177.07,-29.54 224.12,-20 224.22,-19.98 224.32,-19.96 224.42,-19.94"/>
<polygon fill="midnightblue" stroke="midnightblue" points="224.9,-23.42 233.94,-17.89 223.43,-16.57 224.9,-23.42"/>
</g>
<!-- Node4 -->
<g id="node4" class="node">
<title>Node4</title>
<g id="a_node4"><a xlink:title=" ">
<polygon fill="none" stroke="#bfbfbf" points="383.62,-0.5 383.62,-19.5 436.62,-19.5 436.62,-0.5 383.62,-0.5"/>
<text text-anchor="middle" x="410.12" y="-7.5" font-family="Helvetica,sans-Serif" font-size="10.00">stdint.h</text>
</a>
</g>
</g>
<!-- Node1&#45;&gt;Node4 -->
<g id="edge3" class="edge">
<title>Node1&#45;&gt;Node4</title>
<path fill="none" stroke="midnightblue" d="M264.23,-174.6C356.94,-160.05 537.68,-125.89 575.12,-76 609.72,-29.89 505.42,-16.46 446.91,-12.57"/>
<polygon fill="midnightblue" stroke="midnightblue" points="447.09,-9.07 436.9,-11.97 446.67,-16.06 447.09,-9.07"/>
</g>
<!-- Node5 -->
<g id="node5" class="node">
<title>Node5</title>
<g id="a_node5"><a xlink:href="blake3__impl_8h.html" target="_top" xlink:title=" ">
<polygon fill="none" stroke="black" points="256.62,-112.5 256.62,-131.5 341.62,-131.5 341.62,-112.5 256.62,-112.5"/>
<text text-anchor="middle" x="299.12" y="-119.5" font-family="Helvetica,sans-Serif" font-size="10.00">blake3_impl.h</text>
</a>
</g>
</g>
<!-- Node1&#45;&gt;Node5 -->
<g id="edge4" class="edge">
<title>Node1&#45;&gt;Node5</title>
<path fill="none" stroke="midnightblue" d="M230.44,-168.4C244.6,-159.04 263.13,-146.79 277.37,-137.38"/>
<polygon fill="midnightblue" stroke="midnightblue" points="279.61,-140.09 286.02,-131.66 275.75,-134.25 279.61,-140.09"/>
</g>
<!-- Node5&#45;&gt;Node2 -->
<g id="edge6" class="edge">
<title>Node5&#45;&gt;Node2</title>
<path fill="none" stroke="midnightblue" d="M259.22,-112.47C219.38,-103.93 156.12,-90.31 92,-76.18"/>
<polygon fill="midnightblue" stroke="midnightblue" points="92.64,-72.74 82.12,-74 91.13,-79.57 92.64,-72.74"/>
</g>
<!-- Node5&#45;&gt;Node3 -->
<g id="edge7" class="edge">
<title>Node5&#45;&gt;Node3</title>
<path fill="none" stroke="midnightblue" d="M295.42,-112.47C291.59,-103.48 285.56,-88.88 281.12,-76 275.78,-60.55 270.63,-42.7 267.05,-29.62"/>
<polygon fill="midnightblue" stroke="midnightblue" points="270.41,-28.66 264.43,-19.92 263.65,-30.48 270.41,-28.66"/>
</g>
<!-- Node5&#45;&gt;Node4 -->
<g id="edge8" class="edge">
<title>Node5&#45;&gt;Node4</title>
<path fill="none" stroke="midnightblue" d="M331.42,-112.5C351.28,-105.7 375.76,-94.22 391.12,-76 402.11,-62.95 406.75,-43.79 408.7,-29.66"/>
<polygon fill="midnightblue" stroke="midnightblue" points="412.19,-29.92 409.76,-19.61 405.23,-29.18 412.19,-29.92"/>
</g>
<!-- Node6 -->
<g id="node6" class="node">
<title>Node6</title>
<g id="a_node6"><a xlink:title=" ">
<polygon fill="none" stroke="#bfbfbf" points="438.12,-56.5 438.12,-75.5 494.12,-75.5 494.12,-56.5 438.12,-56.5"/>
<text text-anchor="middle" x="466.12" y="-63.5" font-family="Helvetica,sans-Serif" font-size="10.00">assert.h</text>
</a>
</g>
</g>
<!-- Node5&#45;&gt;Node6 -->
<g id="edge5" class="edge">
<title>Node5&#45;&gt;Node6</title>
<path fill="none" stroke="midnightblue" d="M325.58,-112.44C353.79,-103.32 398.66,-88.81 430.08,-78.65"/>
<polygon fill="midnightblue" stroke="midnightblue" points="431.34,-81.92 439.78,-75.52 429.19,-75.26 431.34,-81.92"/>
</g>
<!-- Node7 -->
<g id="node7" class="node">
<title>Node7</title>
<g id="a_node7"><a xlink:title=" ">
<polygon fill="none" stroke="#bfbfbf" points="512.62,-56.5 512.62,-75.5 565.62,-75.5 565.62,-56.5 512.62,-56.5"/>
<text text-anchor="middle" x="539.12" y="-63.5" font-family="Helvetica,sans-Serif" font-size="10.00">string.h</text>
</a>
</g>
</g>
<!-- Node5&#45;&gt;Node7 -->
<g id="edge9" class="edge">
<title>Node5&#45;&gt;Node7</title>
<path fill="none" stroke="midnightblue" d="M339.45,-112.45C378.56,-104.08 439.83,-90.77 502.36,-76.13"/>
<polygon fill="midnightblue" stroke="midnightblue" points="503.47,-79.46 512.4,-73.77 501.86,-72.65 503.47,-79.46"/>
</g>
<!-- Node8 -->
<g id="node8" class="node">
<title>Node8</title>
<g id="a_node8"><a xlink:href="blake3_8h.html" target="_top" xlink:title=" ">
<polygon fill="none" stroke="black" points="290.12,-56.5 290.12,-75.5 382.12,-75.5 382.12,-56.5 290.12,-56.5"/>
<text text-anchor="middle" x="336.12" y="-63.5" font-family="Helvetica,sans-Serif" font-size="10.00">llvm&#45;c/blake3.h</text>
</a>
</g>
</g>
<!-- Node5&#45;&gt;Node8 -->
<g id="edge10" class="edge">
<title>Node5&#45;&gt;Node8</title>
<path fill="none" stroke="midnightblue" d="M305.23,-112.08C310.4,-104.53 317.96,-93.49 324.31,-84.23"/>
<polygon fill="midnightblue" stroke="midnightblue" points="327.35,-85.98 330.12,-75.75 321.58,-82.02 327.35,-85.98"/>
</g>
<!-- Node9 -->
<g id="node9" class="node">
<title>Node9</title>
<g id="a_node9"><a xlink:href="Compiler_8h.html" target="_top" xlink:title=" ">
<polygon fill="none" stroke="black" points="100.12,-56.5 100.12,-75.5 234.12,-75.5 234.12,-56.5 100.12,-56.5"/>
<text text-anchor="middle" x="167.12" y="-63.5" font-family="Helvetica,sans-Serif" font-size="10.00">llvm/Support/Compiler.h</text>
</a>
</g>
</g>
<!-- Node5&#45;&gt;Node9 -->
<g id="edge13" class="edge">
<title>Node5&#45;&gt;Node9</title>
<path fill="none" stroke="midnightblue" d="M278.2,-112.44C256.38,-103.52 221.97,-89.44 197.22,-79.32"/>
<polygon fill="midnightblue" stroke="midnightblue" points="198.51,-76.06 187.93,-75.52 195.86,-82.54 198.51,-76.06"/>
</g>
<!-- Node8&#45;&gt;Node3 -->
<g id="edge11" class="edge">
<title>Node8&#45;&gt;Node3</title>
<path fill="none" stroke="midnightblue" d="M324.23,-56.32C312.97,-48.11 295.83,-35.6 282.41,-25.81"/>
<polygon fill="midnightblue" stroke="midnightblue" points="284.36,-22.9 274.22,-19.83 280.24,-28.56 284.36,-22.9"/>
</g>
<!-- Node8&#45;&gt;Node4 -->
<g id="edge12" class="edge">
<title>Node8&#45;&gt;Node4</title>
<path fill="none" stroke="midnightblue" d="M348.01,-56.32C359.27,-48.11 376.4,-35.6 389.83,-25.81"/>
<polygon fill="midnightblue" stroke="midnightblue" points="392,-28.56 398.01,-19.83 387.87,-22.9 392,-28.56"/>
</g>
<!-- Node9&#45;&gt;Node3 -->
<g id="edge15" class="edge">
<title>Node9&#45;&gt;Node3</title>
<path fill="none" stroke="midnightblue" d="M182.38,-56.32C197.34,-47.82 220.37,-34.73 237.84,-24.8"/>
<polygon fill="midnightblue" stroke="midnightblue" points="239.93,-27.64 246.89,-19.65 236.47,-21.55 239.93,-27.64"/>
</g>
<!-- Node10 -->
<g id="node10" class="node">
<title>Node10</title>
<g id="a_node10"><a xlink:title=" ">
<polygon fill="none" stroke="#bfbfbf" points="76.62,-0.5 76.62,-19.5 215.62,-19.5 215.62,-0.5 76.62,-0.5"/>
<text text-anchor="middle" x="146.12" y="-7.5" font-family="Helvetica,sans-Serif" font-size="10.00">llvm/Config/llvm&#45;config.h</text>
</a>
</g>
</g>
<!-- Node9&#45;&gt;Node10 -->
<g id="edge14" class="edge">
<title>Node9&#45;&gt;Node10</title>
<path fill="none" stroke="midnightblue" d="M163.65,-56.08C160.8,-48.77 156.69,-38.18 153.16,-29.1"/>
<polygon fill="midnightblue" stroke="midnightblue" points="156.41,-27.8 149.52,-19.75 149.88,-30.34 156.41,-27.8"/>
</g>
</g>
</svg>
