<?xml version="1.0" encoding="UTF-8" standalone="no"?>
<!DOCTYPE svg PUBLIC "-//W3C//DTD SVG 1.1//EN"
 "http://www.w3.org/Graphics/SVG/1.1/DTD/svg11.dtd">
<!-- Generated by graphviz version 2.43.0 (0)
 -->
<!-- Title: lib/Target/BPF/BPFCORE.h Pages: 1 -->
<svg width="994pt" height="95pt"
 viewBox="0.00 0.00 993.50 95.00" xmlns="http://www.w3.org/2000/svg" xmlns:xlink="http://www.w3.org/1999/xlink">
<g id="graph0" class="graph" transform="scale(1 1) rotate(0) translate(4 91)">
<title>lib/Target/BPF/BPFCORE.h</title>
<!-- Node1 -->
<g id="node1" class="node">
<title>Node1</title>
<g id="a_node1"><a xlink:title=" ">
<polygon fill="#bfbfbf" stroke="black" points="407.5,-67.5 407.5,-86.5 548.5,-86.5 548.5,-67.5 407.5,-67.5"/>
<text text-anchor="middle" x="478" y="-74.5" font-family="Helvetica,sans-Serif" font-size="10.00">lib/Target/BPF/BPFCORE.h</text>
</a>
</g>
</g>
<!-- Node2 -->
<g id="node2" class="node">
<title>Node2</title>
<g id="a_node2"><a xlink:href="BPFAbstractMemberAccess_8cpp.html" target="_top" xlink:title=" ">
<polygon fill="none" stroke="black" points="0,-0.5 0,-30.5 144,-30.5 144,-0.5 0,-0.5"/>
<text text-anchor="start" x="8" y="-18.5" font-family="Helvetica,sans-Serif" font-size="10.00">lib/Target/BPF/BPFAbstract</text>
<text text-anchor="middle" x="72" y="-7.5" font-family="Helvetica,sans-Serif" font-size="10.00">MemberAccess.cpp</text>
</a>
</g>
</g>
<!-- Node1&#45;&gt;Node2 -->
<g id="edge1" class="edge">
<title>Node1&#45;&gt;Node2</title>
<path fill="none" stroke="midnightblue" d="M400.36,-66.13C334.43,-57.53 237.37,-44.39 153,-31 150.18,-30.55 147.3,-30.09 144.4,-29.61"/>
<polygon fill="midnightblue" stroke="midnightblue" points="400.29,-69.65 410.66,-67.47 401.2,-62.71 400.29,-69.65"/>
</g>
<!-- Node3 -->
<g id="node3" class="node">
<title>Node3</title>
<g id="a_node3"><a xlink:href="BPFAdjustOpt_8cpp.html" target="_top" xlink:title=" ">
<polygon fill="none" stroke="black" points="162,-0.5 162,-30.5 296,-30.5 296,-0.5 162,-0.5"/>
<text text-anchor="start" x="170" y="-18.5" font-family="Helvetica,sans-Serif" font-size="10.00">lib/Target/BPF/BPFAdjust</text>
<text text-anchor="middle" x="229" y="-7.5" font-family="Helvetica,sans-Serif" font-size="10.00">Opt.cpp</text>
</a>
</g>
</g>
<!-- Node1&#45;&gt;Node3 -->
<g id="edge2" class="edge">
<title>Node1&#45;&gt;Node3</title>
<path fill="none" stroke="midnightblue" d="M432.41,-65.11C391.73,-55.39 331.93,-41.1 287.68,-30.52"/>
<polygon fill="midnightblue" stroke="midnightblue" points="431.78,-68.56 442.32,-67.48 433.41,-61.75 431.78,-68.56"/>
</g>
<!-- Node4 -->
<g id="node4" class="node">
<title>Node4</title>
<g id="a_node4"><a xlink:href="BPFCheckAndAdjustIR_8cpp.html" target="_top" xlink:title=" ">
<polygon fill="none" stroke="black" points="314,-0.5 314,-30.5 468,-30.5 468,-0.5 314,-0.5"/>
<text text-anchor="start" x="322" y="-18.5" font-family="Helvetica,sans-Serif" font-size="10.00">lib/Target/BPF/BPFCheckAnd</text>
<text text-anchor="middle" x="391" y="-7.5" font-family="Helvetica,sans-Serif" font-size="10.00">AdjustIR.cpp</text>
</a>
</g>
</g>
<!-- Node1&#45;&gt;Node4 -->
<g id="edge3" class="edge">
<title>Node1&#45;&gt;Node4</title>
<path fill="none" stroke="midnightblue" d="M457.15,-61.74C443.32,-52.28 425.26,-39.93 411.5,-30.52"/>
<polygon fill="midnightblue" stroke="midnightblue" points="455.3,-64.72 465.54,-67.48 459.26,-58.94 455.3,-64.72"/>
</g>
<!-- Node5 -->
<g id="node5" class="node">
<title>Node5</title>
<g id="a_node5"><a xlink:href="BPFMISimplifyPatchable_8cpp.html" target="_top" xlink:title=" ">
<polygon fill="none" stroke="black" points="486.5,-0.5 486.5,-30.5 643.5,-30.5 643.5,-0.5 486.5,-0.5"/>
<text text-anchor="start" x="494.5" y="-18.5" font-family="Helvetica,sans-Serif" font-size="10.00">lib/Target/BPF/BPFMISimplify</text>
<text text-anchor="middle" x="565" y="-7.5" font-family="Helvetica,sans-Serif" font-size="10.00">Patchable.cpp</text>
</a>
</g>
</g>
<!-- Node1&#45;&gt;Node5 -->
<g id="edge4" class="edge">
<title>Node1&#45;&gt;Node5</title>
<path fill="none" stroke="midnightblue" d="M498.85,-61.74C512.68,-52.28 530.74,-39.93 544.5,-30.52"/>
<polygon fill="midnightblue" stroke="midnightblue" points="496.74,-58.94 490.46,-67.48 500.7,-64.72 496.74,-58.94"/>
</g>
<!-- Node6 -->
<g id="node6" class="node">
<title>Node6</title>
<g id="a_node6"><a xlink:href="BPFPreserveDIType_8cpp.html" target="_top" xlink:title=" ">
<polygon fill="none" stroke="black" points="662,-0.5 662,-30.5 810,-30.5 810,-0.5 662,-0.5"/>
<text text-anchor="start" x="670" y="-18.5" font-family="Helvetica,sans-Serif" font-size="10.00">lib/Target/BPF/BPFPreserve</text>
<text text-anchor="middle" x="736" y="-7.5" font-family="Helvetica,sans-Serif" font-size="10.00">DIType.cpp</text>
</a>
</g>
</g>
<!-- Node1&#45;&gt;Node6 -->
<g id="edge5" class="edge">
<title>Node1&#45;&gt;Node6</title>
<path fill="none" stroke="midnightblue" d="M524.97,-65.17C567.12,-55.45 629.26,-41.12 675.19,-30.52"/>
<polygon fill="midnightblue" stroke="midnightblue" points="523.92,-61.82 514.97,-67.48 525.5,-68.64 523.92,-61.82"/>
</g>
<!-- Node7 -->
<g id="node7" class="node">
<title>Node7</title>
<g id="a_node7"><a xlink:href="BTFDebug_8cpp.html" target="_top" xlink:title=" ">
<polygon fill="none" stroke="black" points="828.5,-6 828.5,-25 985.5,-25 985.5,-6 828.5,-6"/>
<text text-anchor="middle" x="907" y="-13" font-family="Helvetica,sans-Serif" font-size="10.00">lib/Target/BPF/BTFDebug.cpp</text>
</a>
</g>
</g>
<!-- Node1&#45;&gt;Node7 -->
<g id="edge6" class="edge">
<title>Node1&#45;&gt;Node7</title>
<path fill="none" stroke="midnightblue" d="M557.6,-66.23C626.77,-57.56 729.62,-44.26 819,-31 831.25,-29.18 844.44,-27.08 856.78,-25.06"/>
<polygon fill="midnightblue" stroke="midnightblue" points="557.13,-62.76 547.65,-67.47 558,-69.71 557.13,-62.76"/>
</g>
</g>
</svg>
