<?xml version="1.0" encoding="UTF-8" standalone="no"?>
<!DOCTYPE svg PUBLIC "-//W3C//DTD SVG 1.1//EN"
 "http://www.w3.org/Graphics/SVG/1.1/DTD/svg11.dtd">
<!-- Generated by graphviz version 2.43.0 (0)
 -->
<!-- Title: llvm::sampleprof::SampleProfileReaderBinary Pages: 1 -->
<svg width="699pt" height="137pt"
 viewBox="0.00 0.00 699.00 137.00" xmlns="http://www.w3.org/2000/svg" xmlns:xlink="http://www.w3.org/1999/xlink">
<g id="graph0" class="graph" transform="scale(1 1) rotate(0) translate(4 133)">
<title>llvm::sampleprof::SampleProfileReaderBinary</title>
<!-- Node1 -->
<g id="node1" class="node">
<title>Node1</title>
<g id="a_node1"><a xlink:title=" ">
<polygon fill="#bfbfbf" stroke="black" points="178,-49.5 178,-79.5 320,-79.5 320,-49.5 178,-49.5"/>
<text text-anchor="start" x="186" y="-67.5" font-family="Helvetica,sans-Serif" font-size="10.00">llvm::sampleprof::Sample</text>
<text text-anchor="middle" x="249" y="-56.5" font-family="Helvetica,sans-Serif" font-size="10.00">ProfileReaderBinary</text>
</a>
</g>
</g>
<!-- Node3 -->
<g id="node3" class="node">
<title>Node3</title>
<g id="a_node3"><a xlink:href="classllvm_1_1sampleprof_1_1SampleProfileReaderCompactBinary.html" target="_top" xlink:title=" ">
<polygon fill="none" stroke="black" points="356,-98.5 356,-128.5 513,-128.5 513,-98.5 356,-98.5"/>
<text text-anchor="start" x="364" y="-116.5" font-family="Helvetica,sans-Serif" font-size="10.00">llvm::sampleprof::Sample</text>
<text text-anchor="middle" x="434.5" y="-105.5" font-family="Helvetica,sans-Serif" font-size="10.00">ProfileReaderCompactBinary</text>
</a>
</g>
</g>
<!-- Node1&#45;&gt;Node3 -->
<g id="edge2" class="edge">
<title>Node1&#45;&gt;Node3</title>
<path fill="none" stroke="midnightblue" d="M316,-82.12C336.07,-87.48 357.94,-93.32 377.3,-98.49"/>
<polygon fill="midnightblue" stroke="midnightblue" points="316.87,-78.73 306.3,-79.53 315.06,-85.5 316.87,-78.73"/>
</g>
<!-- Node4 -->
<g id="node4" class="node">
<title>Node4</title>
<g id="a_node4"><a xlink:href="classllvm_1_1sampleprof_1_1SampleProfileReaderExtBinaryBase.html" target="_top" xlink:title="SampleProfileReaderExtBinaryBase/SampleProfileWriterExtBinaryBase defines the basic structure of the ...">
<polygon fill="none" stroke="black" points="358,-49.5 358,-79.5 511,-79.5 511,-49.5 358,-49.5"/>
<text text-anchor="start" x="366" y="-67.5" font-family="Helvetica,sans-Serif" font-size="10.00">llvm::sampleprof::Sample</text>
<text text-anchor="middle" x="434.5" y="-56.5" font-family="Helvetica,sans-Serif" font-size="10.00">ProfileReaderExtBinaryBase</text>
</a>
</g>
</g>
<!-- Node1&#45;&gt;Node4 -->
<g id="edge3" class="edge">
<title>Node1&#45;&gt;Node4</title>
<path fill="none" stroke="midnightblue" d="M330.39,-64.5C339.52,-64.5 348.81,-64.5 357.88,-64.5"/>
<polygon fill="midnightblue" stroke="midnightblue" points="330.16,-61 320.16,-64.5 330.16,-68 330.16,-61"/>
</g>
<!-- Node6 -->
<g id="node6" class="node">
<title>Node6</title>
<g id="a_node6"><a xlink:href="classllvm_1_1sampleprof_1_1SampleProfileReaderRawBinary.html" target="_top" xlink:title=" ">
<polygon fill="none" stroke="black" points="363.5,-0.5 363.5,-30.5 505.5,-30.5 505.5,-0.5 363.5,-0.5"/>
<text text-anchor="start" x="371.5" y="-18.5" font-family="Helvetica,sans-Serif" font-size="10.00">llvm::sampleprof::Sample</text>
<text text-anchor="middle" x="434.5" y="-7.5" font-family="Helvetica,sans-Serif" font-size="10.00">ProfileReaderRawBinary</text>
</a>
</g>
</g>
<!-- Node1&#45;&gt;Node6 -->
<g id="edge5" class="edge">
<title>Node1&#45;&gt;Node6</title>
<path fill="none" stroke="midnightblue" d="M316,-46.88C336.07,-41.52 357.94,-35.68 377.3,-30.51"/>
<polygon fill="midnightblue" stroke="midnightblue" points="315.06,-43.5 306.3,-49.47 316.87,-50.27 315.06,-43.5"/>
</g>
<!-- Node2 -->
<g id="node2" class="node">
<title>Node2</title>
<g id="a_node2"><a xlink:href="classllvm_1_1sampleprof_1_1SampleProfileReader.html" target="_top" xlink:title="Sample&#45;based profile reader.">
<polygon fill="none" stroke="black" points="0,-49.5 0,-79.5 142,-79.5 142,-49.5 0,-49.5"/>
<text text-anchor="start" x="8" y="-67.5" font-family="Helvetica,sans-Serif" font-size="10.00">llvm::sampleprof::Sample</text>
<text text-anchor="middle" x="71" y="-56.5" font-family="Helvetica,sans-Serif" font-size="10.00">ProfileReader</text>
</a>
</g>
</g>
<!-- Node2&#45;&gt;Node1 -->
<g id="edge1" class="edge">
<title>Node2&#45;&gt;Node1</title>
<path fill="none" stroke="midnightblue" d="M152.1,-64.5C160.71,-64.5 169.41,-64.5 177.89,-64.5"/>
<polygon fill="midnightblue" stroke="midnightblue" points="152.07,-61 142.07,-64.5 152.07,-68 152.07,-61"/>
</g>
<!-- Node5 -->
<g id="node5" class="node">
<title>Node5</title>
<g id="a_node5"><a xlink:href="classllvm_1_1sampleprof_1_1SampleProfileReaderExtBinary.html" target="_top" xlink:title=" ">
<polygon fill="none" stroke="black" points="549,-49.5 549,-79.5 691,-79.5 691,-49.5 549,-49.5"/>
<text text-anchor="start" x="557" y="-67.5" font-family="Helvetica,sans-Serif" font-size="10.00">llvm::sampleprof::Sample</text>
<text text-anchor="middle" x="620" y="-56.5" font-family="Helvetica,sans-Serif" font-size="10.00">ProfileReaderExtBinary</text>
</a>
</g>
</g>
<!-- Node4&#45;&gt;Node5 -->
<g id="edge4" class="edge">
<title>Node4&#45;&gt;Node5</title>
<path fill="none" stroke="midnightblue" d="M521.47,-64.5C530.62,-64.5 539.84,-64.5 548.78,-64.5"/>
<polygon fill="midnightblue" stroke="midnightblue" points="521.2,-61 511.2,-64.5 521.2,-68 521.2,-61"/>
</g>
</g>
</svg>
