<?xml version="1.0" encoding="UTF-8" standalone="no"?>
<!DOCTYPE svg PUBLIC "-//W3C//DTD SVG 1.1//EN"
 "http://www.w3.org/Graphics/SVG/1.1/DTD/svg11.dtd">
<!-- Generated by graphviz version 2.43.0 (0)
 -->
<!-- Title: llvm::dxil::TypedPointerType Pages: 1 -->
<svg width="206pt" height="152pt"
 viewBox="0.00 0.00 205.50 152.00" xmlns="http://www.w3.org/2000/svg" xmlns:xlink="http://www.w3.org/1999/xlink">
<g id="graph0" class="graph" transform="scale(1 1) rotate(0) translate(4 148)">
<title>llvm::dxil::TypedPointerType</title>
<!-- Node1 -->
<g id="node1" class="node">
<title>Node1</title>
<g id="a_node1"><a xlink:title=" ">
<polygon fill="#bfbfbf" stroke="black" points="0,-0.5 0,-19.5 154,-19.5 154,-0.5 0,-0.5"/>
<text text-anchor="middle" x="77" y="-7.5" font-family="Helvetica,sans-Serif" font-size="10.00">llvm::dxil::TypedPointerType</text>
</a>
</g>
</g>
<!-- Node2 -->
<g id="node2" class="node">
<title>Node2</title>
<g id="a_node2"><a xlink:href="classllvm_1_1Type.html" target="_top" xlink:title="The instances of the Type class are immutable: once they are created, they are never changed.">
<polygon fill="none" stroke="black" points="43.5,-57.5 43.5,-76.5 110.5,-76.5 110.5,-57.5 43.5,-57.5"/>
<text text-anchor="middle" x="77" y="-64.5" font-family="Helvetica,sans-Serif" font-size="10.00">llvm::Type</text>
</a>
</g>
</g>
<!-- Node2&#45;&gt;Node1 -->
<g id="edge1" class="edge">
<title>Node2&#45;&gt;Node1</title>
<path fill="none" stroke="midnightblue" d="M77,-47.12C77,-37.82 77,-27.06 77,-19.71"/>
<polygon fill="midnightblue" stroke="midnightblue" points="73.5,-47.41 77,-57.41 80.5,-47.41 73.5,-47.41"/>
</g>
<!-- Node2&#45;&gt;Node2 -->
<g id="edge2" class="edge">
<title>Node2&#45;&gt;Node2</title>
<path fill="none" stroke="#9a32cd" stroke-dasharray="5,2" d="M120.72,-71.39C125.45,-70.55 128.5,-69.08 128.5,-67 128.5,-63.66 120.7,-61.92 110.68,-61.76"/>
<polygon fill="#9a32cd" stroke="#9a32cd" points="120.35,-67.91 110.68,-72.24 120.94,-74.89 120.35,-67.91"/>
<text text-anchor="middle" x="163" y="-64.5" font-family="Helvetica,sans-Serif" font-size="10.00"> ContainedTys</text>
</g>
<!-- Node3 -->
<g id="node3" class="node">
<title>Node3</title>
<g id="a_node3"><a xlink:title=" ">
<polygon fill="none" stroke="#bfbfbf" points="46.5,-124.5 46.5,-143.5 107.5,-143.5 107.5,-124.5 46.5,-124.5"/>
<text text-anchor="middle" x="77" y="-131.5" font-family="Helvetica,sans-Serif" font-size="10.00">unsigned</text>
</a>
</g>
</g>
<!-- Node3&#45;&gt;Node2 -->
<g id="edge3" class="edge">
<title>Node3&#45;&gt;Node2</title>
<path fill="none" stroke="#9a32cd" stroke-dasharray="5,2" d="M77,-114.04C77,-101.67 77,-86.12 77,-76.63"/>
<polygon fill="#9a32cd" stroke="#9a32cd" points="73.5,-114.23 77,-124.23 80.5,-114.23 73.5,-114.23"/>
<text text-anchor="middle" x="123" y="-98" font-family="Helvetica,sans-Serif" font-size="10.00"> NumContainedTys</text>
</g>
</g>
</svg>
