<?xml version="1.0" encoding="UTF-8" standalone="no"?>
<!DOCTYPE svg PUBLIC "-//W3C//DTD SVG 1.1//EN"
 "http://www.w3.org/Graphics/SVG/1.1/DTD/svg11.dtd">
<!-- Generated by graphviz version 2.43.0 (0)
 -->
<!-- Title: llvm::RuntimeDyldMachOCRTPBase&lt; Impl &gt; Pages: 1 -->
<svg width="2486pt" height="670pt"
 viewBox="0.00 0.00 2486.00 670.00" xmlns="http://www.w3.org/2000/svg" xmlns:xlink="http://www.w3.org/1999/xlink">
<g id="graph0" class="graph" transform="scale(1 1) rotate(0) translate(4 666)">
<title>llvm::RuntimeDyldMachOCRTPBase&lt; Impl &gt;</title>
<!-- Node1 -->
<g id="node1" class="node">
<title>Node1</title>
<g id="a_node1"><a xlink:title="RuntimeDyldMachOTarget &#45; Templated base class for generic MachO linker algorithms and data structures...">
<polygon fill="#bfbfbf" stroke="black" points="2287,-226 2287,-256 2478,-256 2478,-226 2287,-226"/>
<text text-anchor="start" x="2295" y="-244" font-family="Helvetica,sans-Serif" font-size="10.00">llvm::RuntimeDyldMachOCRTPBase</text>
<text text-anchor="middle" x="2382.5" y="-233" font-family="Helvetica,sans-Serif" font-size="10.00">&lt; Impl &gt;</text>
</a>
</g>
</g>
<!-- Node2 -->
<g id="node2" class="node">
<title>Node2</title>
<g id="a_node2"><a xlink:href="classllvm_1_1RuntimeDyldMachO.html" target="_top" xlink:title=" ">
<polygon fill="none" stroke="black" points="2108,-231.5 2108,-250.5 2250,-250.5 2250,-231.5 2108,-231.5"/>
<text text-anchor="middle" x="2179" y="-238.5" font-family="Helvetica,sans-Serif" font-size="10.00">llvm::RuntimeDyldMachO</text>
</a>
</g>
</g>
<!-- Node2&#45;&gt;Node1 -->
<g id="edge1" class="edge">
<title>Node2&#45;&gt;Node1</title>
<path fill="none" stroke="midnightblue" d="M2260.29,-241C2268.99,-241 2277.9,-241 2286.75,-241"/>
<polygon fill="midnightblue" stroke="midnightblue" points="2260.19,-237.5 2250.19,-241 2260.19,-244.5 2260.19,-237.5"/>
</g>
<!-- Node3 -->
<g id="node3" class="node">
<title>Node3</title>
<g id="a_node3"><a xlink:href="classllvm_1_1RuntimeDyldImpl.html" target="_top" xlink:title=" ">
<polygon fill="none" stroke="black" points="1770.5,-354.5 1770.5,-373.5 1900.5,-373.5 1900.5,-354.5 1770.5,-354.5"/>
<text text-anchor="middle" x="1835.5" y="-361.5" font-family="Helvetica,sans-Serif" font-size="10.00">llvm::RuntimeDyldImpl</text>
</a>
</g>
</g>
<!-- Node3&#45;&gt;Node2 -->
<g id="edge2" class="edge">
<title>Node3&#45;&gt;Node2</title>
<path fill="none" stroke="midnightblue" d="M1872.58,-351C1941.5,-326.18 2090.41,-272.55 2151.27,-250.63"/>
<polygon fill="midnightblue" stroke="midnightblue" points="1871.24,-347.77 1863.01,-354.45 1873.61,-354.35 1871.24,-347.77"/>
</g>
<!-- Node4 -->
<g id="node4" class="node">
<title>Node4</title>
<g id="a_node4"><a xlink:href="classllvm_1_1sys_1_1SmartMutex.html" target="_top" xlink:title=" ">
<polygon fill="none" stroke="black" points="1415,-540 1415,-570 1542,-570 1542,-540 1415,-540"/>
<text text-anchor="start" x="1423" y="-558" font-family="Helvetica,sans-Serif" font-size="10.00">llvm::sys::SmartMutex</text>
<text text-anchor="middle" x="1478.5" y="-547" font-family="Helvetica,sans-Serif" font-size="10.00">&lt; false &gt;</text>
</a>
</g>
</g>
<!-- Node4&#45;&gt;Node3 -->
<g id="edge3" class="edge">
<title>Node4&#45;&gt;Node3</title>
<path fill="none" stroke="#9a32cd" stroke-dasharray="5,2" d="M1552.19,-563.91C1606.09,-566.84 1679.24,-562.76 1733,-529 1793.38,-491.08 1823.36,-402.81 1831.89,-373.59"/>
<polygon fill="#9a32cd" stroke="#9a32cd" points="1552.22,-560.41 1542.02,-563.26 1551.77,-567.39 1552.22,-560.41"/>
<text text-anchor="middle" x="1656.5" y="-567" font-family="Helvetica,sans-Serif" font-size="10.00"> lock</text>
</g>
<!-- Node5 -->
<g id="node5" class="node">
<title>Node5</title>
<g id="a_node5"><a xlink:href="classllvm_1_1sys_1_1SmartMutex.html" target="_top" xlink:title="SmartMutex &#45; A mutex with a compile time constant parameter that indicates whether this mutex should ...">
<polygon fill="none" stroke="black" points="1064.5,-540 1064.5,-570 1191.5,-570 1191.5,-540 1064.5,-540"/>
<text text-anchor="start" x="1072.5" y="-558" font-family="Helvetica,sans-Serif" font-size="10.00">llvm::sys::SmartMutex</text>
<text text-anchor="middle" x="1128" y="-547" font-family="Helvetica,sans-Serif" font-size="10.00">&lt; mt_only &gt;</text>
</a>
</g>
</g>
<!-- Node5&#45;&gt;Node4 -->
<g id="edge4" class="edge">
<title>Node5&#45;&gt;Node4</title>
<path fill="none" stroke="orange" stroke-dasharray="5,2" d="M1201.96,-555C1264.92,-555 1354.91,-555 1414.71,-555"/>
<polygon fill="orange" stroke="orange" points="1201.71,-551.5 1191.71,-555 1201.71,-558.5 1201.71,-551.5"/>
<text text-anchor="middle" x="1306.5" y="-558" font-family="Helvetica,sans-Serif" font-size="10.00"> &lt; false &gt;</text>
</g>
<!-- Node6 -->
<g id="node6" class="node">
<title>Node6</title>
<g id="a_node6"><a xlink:title=" ">
<polygon fill="none" stroke="#bfbfbf" points="1413,-188.5 1413,-207.5 1544,-207.5 1544,-188.5 1413,-188.5"/>
<text text-anchor="middle" x="1478.5" y="-195.5" font-family="Helvetica,sans-Serif" font-size="10.00">deque&lt; SectionEntry &gt;</text>
</a>
</g>
</g>
<!-- Node6&#45;&gt;Node3 -->
<g id="edge5" class="edge">
<title>Node6&#45;&gt;Node3</title>
<path fill="none" stroke="#9a32cd" stroke-dasharray="5,2" d="M1554.07,-191.81C1607.33,-190.81 1678.83,-196.72 1733,-228 1785.81,-258.5 1819.58,-328.6 1830.57,-354.31"/>
<polygon fill="#9a32cd" stroke="#9a32cd" points="1553.92,-188.31 1544.02,-192.08 1554.11,-195.31 1553.92,-188.31"/>
<text text-anchor="middle" x="1656.5" y="-231" font-family="Helvetica,sans-Serif" font-size="10.00"> Sections</text>
</g>
<!-- Node7 -->
<g id="node7" class="node">
<title>Node7</title>
<g id="a_node7"><a xlink:href="classllvm_1_1JITSymbolResolver.html" target="_top" xlink:title="Symbol resolution interface.">
<polygon fill="none" stroke="black" points="1410.5,-150.5 1410.5,-169.5 1546.5,-169.5 1546.5,-150.5 1410.5,-150.5"/>
<text text-anchor="middle" x="1478.5" y="-157.5" font-family="Helvetica,sans-Serif" font-size="10.00">llvm::JITSymbolResolver</text>
</a>
</g>
</g>
<!-- Node7&#45;&gt;Node3 -->
<g id="edge6" class="edge">
<title>Node7&#45;&gt;Node3</title>
<path fill="none" stroke="#9a32cd" stroke-dasharray="5,2" d="M1535.42,-148.9C1590.21,-141.19 1673.86,-138.14 1733,-176 1800.17,-218.99 1826.11,-322.37 1832.69,-354.39"/>
<polygon fill="#9a32cd" stroke="#9a32cd" points="1534.57,-145.49 1525.21,-150.44 1535.62,-152.41 1534.57,-145.49"/>
<text text-anchor="middle" x="1656.5" y="-179" font-family="Helvetica,sans-Serif" font-size="10.00"> Resolver</text>
</g>
<!-- Node8 -->
<g id="node8" class="node">
<title>Node8</title>
<g id="a_node8"><a xlink:title=" ">
<polygon fill="none" stroke="#bfbfbf" points="1405,-627.5 1405,-646.5 1552,-646.5 1552,-627.5 1405,-627.5"/>
<text text-anchor="middle" x="1478.5" y="-634.5" font-family="Helvetica,sans-Serif" font-size="10.00">NotifyStubEmittedFunction</text>
</a>
</g>
</g>
<!-- Node8&#45;&gt;Node3 -->
<g id="edge7" class="edge">
<title>Node8&#45;&gt;Node3</title>
<path fill="none" stroke="#9a32cd" stroke-dasharray="5,2" d="M1537.17,-647.95C1592.8,-655.13 1676.65,-656.65 1733,-615 1816.35,-553.39 1831.42,-411.7 1833.99,-373.59"/>
<polygon fill="#9a32cd" stroke="#9a32cd" points="1537.51,-644.47 1527.12,-646.55 1536.54,-651.4 1537.51,-644.47"/>
<text text-anchor="middle" x="1656.5" y="-654" font-family="Helvetica,sans-Serif" font-size="10.00"> NotifyStubEmitted</text>
</g>
<!-- Node9 -->
<g id="node9" class="node">
<title>Node9</title>
<g id="a_node9"><a xlink:title=" ">
<polygon fill="none" stroke="#bfbfbf" points="1448,-589.5 1448,-608.5 1509,-608.5 1509,-589.5 1448,-589.5"/>
<text text-anchor="middle" x="1478.5" y="-596.5" font-family="Helvetica,sans-Serif" font-size="10.00">ArchType</text>
</a>
</g>
</g>
<!-- Node9&#45;&gt;Node3 -->
<g id="edge8" class="edge">
<title>Node9&#45;&gt;Node3</title>
<path fill="none" stroke="#9a32cd" stroke-dasharray="5,2" d="M1519.63,-600.24C1582.23,-601.4 1699.46,-600.26 1733,-577 1806.04,-526.35 1828.19,-408.52 1833.24,-373.8"/>
<polygon fill="#9a32cd" stroke="#9a32cd" points="1519.41,-596.73 1509.34,-600.02 1519.26,-603.73 1519.41,-596.73"/>
<text text-anchor="middle" x="1656.5" y="-603" font-family="Helvetica,sans-Serif" font-size="10.00"> Arch</text>
</g>
<!-- Node10 -->
<g id="node10" class="node">
<title>Node10</title>
<g id="a_node10"><a xlink:href="classllvm_1_1StringMap.html" target="_top" xlink:title=" ">
<polygon fill="none" stroke="black" points="1415,-364 1415,-394 1542,-394 1542,-364 1415,-364"/>
<text text-anchor="start" x="1423" y="-382" font-family="Helvetica,sans-Serif" font-size="10.00">llvm::StringMap&lt; llvm</text>
<text text-anchor="middle" x="1478.5" y="-371" font-family="Helvetica,sans-Serif" font-size="10.00">::SmallVector &gt;</text>
</a>
</g>
</g>
<!-- Node10&#45;&gt;Node3 -->
<g id="edge9" class="edge">
<title>Node10&#45;&gt;Node3</title>
<path fill="none" stroke="#9a32cd" stroke-dasharray="5,2" d="M1552.16,-367.7C1561.51,-366.59 1570.97,-365.64 1580,-365 1644.68,-360.39 1718.83,-360.74 1770.35,-361.87"/>
<polygon fill="#9a32cd" stroke="#9a32cd" points="1551.58,-364.25 1542.09,-368.96 1552.44,-371.19 1551.58,-364.25"/>
<text text-anchor="middle" x="1656.5" y="-368" font-family="Helvetica,sans-Serif" font-size="10.00"> ExternalSymbolRelocations</text>
</g>
<!-- Node11 -->
<g id="node11" class="node">
<title>Node11</title>
<g id="a_node11"><a xlink:href="classllvm_1_1StringMapImpl.html" target="_top" xlink:title="StringMapImpl &#45; This is the base class of StringMap that is shared among all of its instantiations.">
<polygon fill="none" stroke="black" points="713,-254.5 713,-273.5 829,-273.5 829,-254.5 713,-254.5"/>
<text text-anchor="middle" x="771" y="-261.5" font-family="Helvetica,sans-Serif" font-size="10.00">llvm::StringMapImpl</text>
</a>
</g>
</g>
<!-- Node11&#45;&gt;Node10 -->
<g id="edge10" class="edge">
<title>Node11&#45;&gt;Node10</title>
<path fill="none" stroke="midnightblue" d="M830.42,-275.49C842.19,-277.72 854.48,-279.98 866,-282 1066.12,-317.02 1304.05,-353.2 1414.89,-369.74"/>
<polygon fill="midnightblue" stroke="midnightblue" points="830.73,-271.98 820.25,-273.55 829.42,-278.86 830.73,-271.98"/>
</g>
<!-- Node21 -->
<g id="node21" class="node">
<title>Node21</title>
<g id="a_node21"><a xlink:href="classllvm_1_1StringMap.html" target="_top" xlink:title="StringMap &#45; This is an unconventional map that is specialized for handling keys that are &quot;strings&quot;,...">
<polygon fill="none" stroke="black" points="1055,-258 1055,-288 1201,-288 1201,-258 1055,-258"/>
<text text-anchor="start" x="1063" y="-276" font-family="Helvetica,sans-Serif" font-size="10.00">llvm::StringMap&lt; ValueTy,</text>
<text text-anchor="middle" x="1128" y="-265" font-family="Helvetica,sans-Serif" font-size="10.00"> AllocatorTy &gt;</text>
</a>
</g>
</g>
<!-- Node11&#45;&gt;Node21 -->
<g id="edge21" class="edge">
<title>Node11&#45;&gt;Node21</title>
<path fill="none" stroke="midnightblue" d="M839.04,-265.7C900.6,-267.26 991.6,-269.57 1054.76,-271.17"/>
<polygon fill="midnightblue" stroke="midnightblue" points="839.12,-262.2 829.04,-265.45 838.94,-269.2 839.12,-262.2"/>
</g>
<!-- Node25 -->
<g id="node25" class="node">
<title>Node25</title>
<g id="a_node25"><a xlink:href="classllvm_1_1StringMap.html" target="_top" xlink:title=" ">
<polygon fill="none" stroke="black" points="1395,-227 1395,-257 1562,-257 1562,-227 1395,-227"/>
<text text-anchor="start" x="1403" y="-245" font-family="Helvetica,sans-Serif" font-size="10.00">llvm::StringMap&lt; SymbolTable</text>
<text text-anchor="middle" x="1478.5" y="-234" font-family="Helvetica,sans-Serif" font-size="10.00">Entry &gt;</text>
</a>
</g>
</g>
<!-- Node11&#45;&gt;Node25 -->
<g id="edge27" class="edge">
<title>Node11&#45;&gt;Node25</title>
<path fill="none" stroke="midnightblue" d="M839.14,-259.64C892.91,-256.28 970.27,-251.76 1038,-249 1125.95,-245.41 1147.98,-245.48 1236,-244 1288.82,-243.11 1348.15,-242.62 1394.78,-242.34"/>
<polygon fill="midnightblue" stroke="midnightblue" points="838.81,-256.15 829.05,-260.27 839.25,-263.14 838.81,-256.15"/>
</g>
<!-- Node12 -->
<g id="node12" class="node">
<title>Node12</title>
<g id="a_node12"><a xlink:href="classllvm_1_1StringMapEntryBase.html" target="_top" xlink:title="StringMapEntryBase &#45; Shared base class of StringMapEntry instances.">
<polygon fill="none" stroke="black" points="407.5,-215.5 407.5,-234.5 550.5,-234.5 550.5,-215.5 407.5,-215.5"/>
<text text-anchor="middle" x="479" y="-222.5" font-family="Helvetica,sans-Serif" font-size="10.00">llvm::StringMapEntryBase</text>
</a>
</g>
</g>
<!-- Node12&#45;&gt;Node11 -->
<g id="edge11" class="edge">
<title>Node12&#45;&gt;Node11</title>
<path fill="none" stroke="#9a32cd" stroke-dasharray="5,2" d="M561.14,-233.57C596.48,-237.55 638.34,-242.59 676,-248 689.27,-249.91 703.56,-252.21 716.88,-254.47"/>
<polygon fill="#9a32cd" stroke="#9a32cd" points="561.2,-230.05 550.88,-232.42 560.43,-237.01 561.2,-230.05"/>
<text text-anchor="middle" x="625" y="-251" font-family="Helvetica,sans-Serif" font-size="10.00"> TheTable</text>
</g>
<!-- Node13 -->
<g id="node13" class="node">
<title>Node13</title>
<g id="a_node13"><a xlink:title=" ">
<polygon fill="none" stroke="#bfbfbf" points="448.5,-291.5 448.5,-310.5 509.5,-310.5 509.5,-291.5 448.5,-291.5"/>
<text text-anchor="middle" x="479" y="-298.5" font-family="Helvetica,sans-Serif" font-size="10.00">unsigned</text>
</a>
</g>
</g>
<!-- Node13&#45;&gt;Node11 -->
<g id="edge12" class="edge">
<title>Node13&#45;&gt;Node11</title>
<path fill="none" stroke="#9a32cd" stroke-dasharray="5,2" d="M519.61,-296.33C559.22,-291.62 621.86,-284.06 676,-277 687.93,-275.45 700.69,-273.72 712.85,-272.05"/>
<polygon fill="#9a32cd" stroke="#9a32cd" points="519.09,-292.87 509.57,-297.52 519.91,-299.82 519.09,-292.87"/>
<text text-anchor="middle" x="625" y="-325" font-family="Helvetica,sans-Serif" font-size="10.00"> NumItems</text>
<text text-anchor="middle" x="625" y="-314" font-family="Helvetica,sans-Serif" font-size="10.00">NumBuckets</text>
<text text-anchor="middle" x="625" y="-303" font-family="Helvetica,sans-Serif" font-size="10.00">ItemSize</text>
<text text-anchor="middle" x="625" y="-292" font-family="Helvetica,sans-Serif" font-size="10.00">NumTombstones</text>
</g>
<!-- Node14 -->
<g id="node14" class="node">
<title>Node14</title>
<g id="a_node14"><a xlink:title=" ">
<polygon fill="none" stroke="#bfbfbf" points="450,-253.5 450,-272.5 508,-272.5 508,-253.5 450,-253.5"/>
<text text-anchor="middle" x="479" y="-260.5" font-family="Helvetica,sans-Serif" font-size="10.00">uintptr_t</text>
</a>
</g>
</g>
<!-- Node14&#45;&gt;Node11 -->
<g id="edge13" class="edge">
<title>Node14&#45;&gt;Node11</title>
<path fill="none" stroke="#9a32cd" stroke-dasharray="5,2" d="M518.08,-263.13C567.78,-263.3 655.2,-263.6 712.86,-263.8"/>
<polygon fill="#9a32cd" stroke="#9a32cd" points="518.08,-259.63 508.07,-263.1 518.06,-266.63 518.08,-259.63"/>
<text text-anchor="middle" x="625" y="-266" font-family="Helvetica,sans-Serif" font-size="10.00"> TombstoneIntVal</text>
</g>
<!-- Node15 -->
<g id="node15" class="node">
<title>Node15</title>
<g id="a_node15"><a xlink:href="classllvm_1_1detail_1_1AllocatorHolder.html" target="_top" xlink:title=" ">
<polygon fill="none" stroke="black" points="694,-343 694,-373 848,-373 848,-343 694,-343"/>
<text text-anchor="start" x="702" y="-361" font-family="Helvetica,sans-Serif" font-size="10.00">llvm::detail::AllocatorHolder</text>
<text text-anchor="middle" x="771" y="-350" font-family="Helvetica,sans-Serif" font-size="10.00">&lt; MallocAllocator &gt;</text>
</a>
</g>
</g>
<!-- Node15&#45;&gt;Node10 -->
<g id="edge14" class="edge">
<title>Node15&#45;&gt;Node10</title>
<path fill="none" stroke="#8b1a1a" d="M858.25,-370.35C860.86,-370.59 863.45,-370.81 866,-371 1066.1,-386.09 1304.04,-383.26 1414.89,-380.74"/>
<polygon fill="#8b1a1a" stroke="#8b1a1a" points="858.4,-366.85 848.1,-369.34 857.7,-373.82 858.4,-366.85"/>
</g>
<!-- Node15&#45;&gt;Node21 -->
<g id="edge22" class="edge">
<title>Node15&#45;&gt;Node21</title>
<path fill="none" stroke="#8b1a1a" d="M844.76,-340.58C909.32,-325.12 1002.68,-302.77 1064.08,-288.06"/>
<polygon fill="#8b1a1a" stroke="#8b1a1a" points="843.56,-337.27 834.65,-343 845.19,-344.07 843.56,-337.27"/>
</g>
<!-- Node15&#45;&gt;Node25 -->
<g id="edge28" class="edge">
<title>Node15&#45;&gt;Node25</title>
<path fill="none" stroke="#8b1a1a" d="M858.38,-361.64C1005.4,-366.14 1296.21,-367.08 1377,-309 1393.49,-297.14 1379.87,-280.54 1395,-267 1399.35,-263.11 1404.29,-259.82 1409.54,-257.05"/>
<polygon fill="#8b1a1a" stroke="#8b1a1a" points="858.16,-358.14 848.05,-361.32 857.93,-365.13 858.16,-358.14"/>
</g>
<!-- Node16 -->
<g id="node16" class="node">
<title>Node16</title>
<g id="a_node16"><a xlink:href="classllvm_1_1MallocAllocator.html" target="_top" xlink:title=" ">
<polygon fill="none" stroke="black" points="419,-345.5 419,-364.5 539,-364.5 539,-345.5 419,-345.5"/>
<text text-anchor="middle" x="479" y="-352.5" font-family="Helvetica,sans-Serif" font-size="10.00">llvm::MallocAllocator</text>
</a>
</g>
</g>
<!-- Node16&#45;&gt;Node15 -->
<g id="edge15" class="edge">
<title>Node16&#45;&gt;Node15</title>
<path fill="none" stroke="#8b1a1a" d="M549.26,-355.72C592.85,-356.17 649.13,-356.75 693.95,-357.21"/>
<polygon fill="#8b1a1a" stroke="#8b1a1a" points="549.07,-352.21 539.04,-355.61 549,-359.21 549.07,-352.21"/>
</g>
<!-- Node17 -->
<g id="node17" class="node">
<title>Node17</title>
<g id="a_node17"><a xlink:href="classllvm_1_1AllocatorBase.html" target="_top" xlink:title=" ">
<polygon fill="none" stroke="black" points="250,-340 250,-370 365,-370 365,-340 250,-340"/>
<text text-anchor="start" x="258" y="-358" font-family="Helvetica,sans-Serif" font-size="10.00">llvm::AllocatorBase</text>
<text text-anchor="middle" x="307.5" y="-347" font-family="Helvetica,sans-Serif" font-size="10.00">&lt; MallocAllocator &gt;</text>
</a>
</g>
</g>
<!-- Node17&#45;&gt;Node16 -->
<g id="edge16" class="edge">
<title>Node17&#45;&gt;Node16</title>
<path fill="none" stroke="midnightblue" d="M375.67,-355C389.97,-355 404.96,-355 418.92,-355"/>
<polygon fill="midnightblue" stroke="midnightblue" points="375.41,-351.5 365.41,-355 375.41,-358.5 375.41,-351.5"/>
</g>
<!-- Node18 -->
<g id="node18" class="node">
<title>Node18</title>
<g id="a_node18"><a xlink:href="classllvm_1_1AllocatorBase.html" target="_top" xlink:title="CRTP base class providing obvious overloads for the core Allocate() methods of LLVM&#45;style allocators.">
<polygon fill="none" stroke="black" points="0,-340 0,-370 112,-370 112,-340 0,-340"/>
<text text-anchor="start" x="8" y="-358" font-family="Helvetica,sans-Serif" font-size="10.00">llvm::AllocatorBase</text>
<text text-anchor="middle" x="56" y="-347" font-family="Helvetica,sans-Serif" font-size="10.00">&lt; DerivedT &gt;</text>
</a>
</g>
</g>
<!-- Node18&#45;&gt;Node17 -->
<g id="edge17" class="edge">
<title>Node18&#45;&gt;Node17</title>
<path fill="none" stroke="orange" stroke-dasharray="5,2" d="M122.16,-355C161.78,-355 211.88,-355 249.85,-355"/>
<polygon fill="orange" stroke="orange" points="122.06,-351.5 112.06,-355 122.06,-358.5 122.06,-351.5"/>
<text text-anchor="middle" x="181" y="-358" font-family="Helvetica,sans-Serif" font-size="10.00"> &lt; MallocAllocator &gt;</text>
</g>
<!-- Node19 -->
<g id="node19" class="node">
<title>Node19</title>
<g id="a_node19"><a xlink:href="classllvm_1_1detail_1_1AllocatorHolder.html" target="_top" xlink:title=" ">
<polygon fill="none" stroke="black" points="402,-384 402,-414 556,-414 556,-384 402,-384"/>
<text text-anchor="start" x="410" y="-402" font-family="Helvetica,sans-Serif" font-size="10.00">llvm::detail::AllocatorHolder</text>
<text text-anchor="middle" x="479" y="-391" font-family="Helvetica,sans-Serif" font-size="10.00">&lt; Alloc &gt;</text>
</a>
</g>
</g>
<!-- Node19&#45;&gt;Node15 -->
<g id="edge18" class="edge">
<title>Node19&#45;&gt;Node15</title>
<path fill="none" stroke="orange" stroke-dasharray="5,2" d="M566.32,-386.8C606.82,-381.07 654.67,-374.3 693.81,-368.77"/>
<polygon fill="orange" stroke="orange" points="565.61,-383.36 556.19,-388.23 566.59,-390.29 565.61,-383.36"/>
<text text-anchor="middle" x="625" y="-387" font-family="Helvetica,sans-Serif" font-size="10.00"> &lt; MallocAllocator &gt;</text>
</g>
<!-- Node20 -->
<g id="node20" class="node">
<title>Node20</title>
<g id="a_node20"><a xlink:title=" ">
<polygon fill="none" stroke="#bfbfbf" points="287,-389.5 287,-408.5 328,-408.5 328,-389.5 287,-389.5"/>
<text text-anchor="middle" x="307.5" y="-396.5" font-family="Helvetica,sans-Serif" font-size="10.00">Alloc</text>
</a>
</g>
</g>
<!-- Node20&#45;&gt;Node19 -->
<g id="edge19" class="edge">
<title>Node20&#45;&gt;Node19</title>
<path fill="none" stroke="#8b1a1a" d="M338.52,-399C356.22,-399 379.48,-399 401.93,-399"/>
<polygon fill="#8b1a1a" stroke="#8b1a1a" points="338.28,-395.5 328.28,-399 338.28,-402.5 338.28,-395.5"/>
</g>
<!-- Node21&#45;&gt;Node10 -->
<g id="edge20" class="edge">
<title>Node21&#45;&gt;Node10</title>
<path fill="none" stroke="orange" stroke-dasharray="5,2" d="M1211.36,-275.41C1278.49,-278.12 1364.22,-283.58 1377,-294 1398.91,-311.87 1374.97,-335.05 1395,-355 1400.6,-360.58 1407.42,-364.88 1414.71,-368.19"/>
<polygon fill="orange" stroke="orange" points="1211.31,-271.9 1201.18,-275.01 1211.04,-278.9 1211.31,-271.9"/>
<text text-anchor="middle" x="1306.5" y="-297" font-family="Helvetica,sans-Serif" font-size="10.00"> &lt; llvm::SmallVector &gt;</text>
</g>
<!-- Node21&#45;&gt;Node25 -->
<g id="edge29" class="edge">
<title>Node21&#45;&gt;Node25</title>
<path fill="none" stroke="orange" stroke-dasharray="5,2" d="M1211.32,-262.61C1219.65,-261.67 1227.99,-260.78 1236,-260 1288.83,-254.83 1348.28,-250.38 1394.98,-247.2"/>
<polygon fill="orange" stroke="orange" points="1210.72,-259.15 1201.18,-263.77 1211.52,-266.11 1210.72,-259.15"/>
<text text-anchor="middle" x="1306.5" y="-263" font-family="Helvetica,sans-Serif" font-size="10.00"> &lt; SymbolTableEntry &gt;</text>
</g>
<!-- Node22 -->
<g id="node22" class="node">
<title>Node22</title>
<g id="a_node22"><a xlink:title=" ">
<polygon fill="none" stroke="#bfbfbf" points="1456.5,-501.5 1456.5,-520.5 1500.5,-520.5 1500.5,-501.5 1456.5,-501.5"/>
<text text-anchor="middle" x="1478.5" y="-508.5" font-family="Helvetica,sans-Serif" font-size="10.00">string</text>
</a>
</g>
</g>
<!-- Node22&#45;&gt;Node3 -->
<g id="edge23" class="edge">
<title>Node22&#45;&gt;Node3</title>
<path fill="none" stroke="#9a32cd" stroke-dasharray="5,2" d="M1510.75,-512.77C1569.83,-515.59 1695.33,-518.93 1733,-499 1786.65,-470.61 1819.9,-399.87 1830.66,-373.82"/>
<polygon fill="#9a32cd" stroke="#9a32cd" points="1510.69,-509.26 1500.53,-512.26 1510.34,-516.25 1510.69,-509.26"/>
<text text-anchor="middle" x="1656.5" y="-517" font-family="Helvetica,sans-Serif" font-size="10.00"> ErrorStr</text>
</g>
<!-- Node23 -->
<g id="node23" class="node">
<title>Node23</title>
<g id="a_node23"><a xlink:title=" ">
<polygon fill="none" stroke="#bfbfbf" points="1459.5,-462.5 1459.5,-481.5 1497.5,-481.5 1497.5,-462.5 1459.5,-462.5"/>
<text text-anchor="middle" x="1478.5" y="-469.5" font-family="Helvetica,sans-Serif" font-size="10.00">bool</text>
</a>
</g>
</g>
<!-- Node23&#45;&gt;Node3 -->
<g id="edge24" class="edge">
<title>Node23&#45;&gt;Node3</title>
<path fill="none" stroke="#9a32cd" stroke-dasharray="5,2" d="M1507.97,-469.75C1524.64,-467.41 1545.58,-462.67 1562,-453 1572.3,-446.93 1569.47,-438.67 1580,-433 1640.56,-400.42 1667.06,-429.49 1733,-410 1763.8,-400.9 1797.33,-384.26 1817.11,-373.68"/>
<polygon fill="#9a32cd" stroke="#9a32cd" points="1507.24,-466.31 1497.72,-470.96 1508.06,-473.26 1507.24,-466.31"/>
<text text-anchor="middle" x="1656.5" y="-491" font-family="Helvetica,sans-Serif" font-size="10.00"> IsMipsN64ABI</text>
<text text-anchor="middle" x="1656.5" y="-480" font-family="Helvetica,sans-Serif" font-size="10.00">ProcessAllSections</text>
<text text-anchor="middle" x="1656.5" y="-469" font-family="Helvetica,sans-Serif" font-size="10.00">IsTargetLittleEndian</text>
<text text-anchor="middle" x="1656.5" y="-458" font-family="Helvetica,sans-Serif" font-size="10.00">IsMipsO32ABI</text>
<text text-anchor="middle" x="1656.5" y="-447" font-family="Helvetica,sans-Serif" font-size="10.00">IsMipsN32ABI</text>
<text text-anchor="middle" x="1656.5" y="-436" font-family="Helvetica,sans-Serif" font-size="10.00">HasError</text>
</g>
<!-- Node24 -->
<g id="node24" class="node">
<title>Node24</title>
<g id="a_node24"><a xlink:title=" ">
<polygon fill="none" stroke="#bfbfbf" points="1402.5,-413 1402.5,-443 1554.5,-443 1554.5,-413 1402.5,-413"/>
<text text-anchor="start" x="1410.5" y="-431" font-family="Helvetica,sans-Serif" font-size="10.00">unordered_map&lt; unsigned,</text>
<text text-anchor="middle" x="1478.5" y="-420" font-family="Helvetica,sans-Serif" font-size="10.00"> llvm::SmallVector &gt;</text>
</a>
</g>
</g>
<!-- Node24&#45;&gt;Node3 -->
<g id="edge25" class="edge">
<title>Node24&#45;&gt;Node3</title>
<path fill="none" stroke="#9a32cd" stroke-dasharray="5,2" d="M1540.8,-410.12C1560.39,-404.45 1577.67,-399.49 1580,-399 1615.23,-391.53 1707.3,-379.56 1770.47,-371.74"/>
<polygon fill="#9a32cd" stroke="#9a32cd" points="1539.68,-406.8 1531.05,-412.95 1541.63,-413.53 1539.68,-406.8"/>
<text text-anchor="middle" x="1656.5" y="-402" font-family="Helvetica,sans-Serif" font-size="10.00"> Relocations</text>
</g>
<!-- Node25&#45;&gt;Node3 -->
<g id="edge26" class="edge">
<title>Node25&#45;&gt;Node3</title>
<path fill="none" stroke="#9a32cd" stroke-dasharray="5,2" d="M1572.17,-242.29C1621.76,-245.48 1682.78,-254.4 1733,-277 1774.06,-295.48 1811.18,-335.91 1826.75,-354.41"/>
<polygon fill="#9a32cd" stroke="#9a32cd" points="1572.27,-238.79 1562.09,-241.71 1571.87,-245.78 1572.27,-238.79"/>
<text text-anchor="middle" x="1656.5" y="-280" font-family="Helvetica,sans-Serif" font-size="10.00"> GlobalSymbolTable</text>
</g>
<!-- Node26 -->
<g id="node26" class="node">
<title>Node26</title>
<g id="a_node26"><a xlink:href="classllvm_1_1RuntimeDyld_1_1MemoryManager.html" target="_top" xlink:title="Memory Management.">
<polygon fill="none" stroke="black" points="1421.5,-315 1421.5,-345 1535.5,-345 1535.5,-315 1421.5,-315"/>
<text text-anchor="start" x="1429.5" y="-333" font-family="Helvetica,sans-Serif" font-size="10.00">llvm::RuntimeDyld::</text>
<text text-anchor="middle" x="1478.5" y="-322" font-family="Helvetica,sans-Serif" font-size="10.00">MemoryManager</text>
</a>
</g>
</g>
<!-- Node26&#45;&gt;Node3 -->
<g id="edge30" class="edge">
<title>Node26&#45;&gt;Node3</title>
<path fill="none" stroke="#9a32cd" stroke-dasharray="5,2" d="M1545.83,-332.14C1597.08,-334.29 1669.71,-338.42 1733,-346 1750.77,-348.13 1770.14,-351.34 1787.16,-354.47"/>
<polygon fill="#9a32cd" stroke="#9a32cd" points="1545.68,-328.64 1535.55,-331.73 1545.4,-335.63 1545.68,-328.64"/>
<text text-anchor="middle" x="1656.5" y="-349" font-family="Helvetica,sans-Serif" font-size="10.00"> MemMgr</text>
</g>
<!-- Node27 -->
<g id="node27" class="node">
<title>Node27</title>
<g id="a_node27"><a xlink:title=" ">
<polygon fill="none" stroke="#bfbfbf" points="1457,-276.5 1457,-295.5 1500,-295.5 1500,-276.5 1457,-276.5"/>
<text text-anchor="middle" x="1478.5" y="-283.5" font-family="Helvetica,sans-Serif" font-size="10.00">const</text>
</a>
</g>
</g>
<!-- Node27&#45;&gt;Node3 -->
<g id="edge31" class="edge">
<title>Node27&#45;&gt;Node3</title>
<path fill="none" stroke="#9a32cd" stroke-dasharray="5,2" d="M1510.41,-286.93C1558.75,-289.04 1654.82,-295.9 1733,-318 1764.09,-326.79 1797.81,-343.69 1817.5,-354.37"/>
<polygon fill="#9a32cd" stroke="#9a32cd" points="1510.42,-283.43 1500.29,-286.53 1510.14,-290.42 1510.42,-283.43"/>
<text text-anchor="middle" x="1656.5" y="-321" font-family="Helvetica,sans-Serif" font-size="10.00"> AbsoluteSymbolSection</text>
</g>
<!-- Node28 -->
<g id="node28" class="node">
<title>Node28</title>
<g id="a_node28"><a xlink:href="classllvm_1_1SmallVector.html" target="_top" xlink:title=" ">
<polygon fill="none" stroke="black" points="1751,-81.5 1751,-122.5 1920,-122.5 1920,-81.5 1751,-81.5"/>
<text text-anchor="start" x="1759" y="-110.5" font-family="Helvetica,sans-Serif" font-size="10.00">llvm::SmallVector&lt;</text>
<text text-anchor="start" x="1759" y="-99.5" font-family="Helvetica,sans-Serif" font-size="10.00"> llvm::RuntimeDyldMachO</text>
<text text-anchor="middle" x="1835.5" y="-88.5" font-family="Helvetica,sans-Serif" font-size="10.00">::EHFrameRelatedSections, 2 &gt;</text>
</a>
</g>
</g>
<!-- Node28&#45;&gt;Node2 -->
<g id="edge32" class="edge">
<title>Node28&#45;&gt;Node2</title>
<path fill="none" stroke="#9a32cd" stroke-dasharray="5,2" d="M1896.42,-126.39C1973.02,-157.57 2102.01,-210.07 2154.61,-231.48"/>
<polygon fill="#9a32cd" stroke="#9a32cd" points="1897.47,-123.04 1886.89,-122.51 1894.83,-129.52 1897.47,-123.04"/>
<text text-anchor="middle" x="2014" y="-206" font-family="Helvetica,sans-Serif" font-size="10.00"> UnregisteredEHFrameSections</text>
</g>
<!-- Node29 -->
<g id="node29" class="node">
<title>Node29</title>
<g id="a_node29"><a xlink:href="classllvm_1_1SmallVectorImpl.html" target="_top" xlink:title=" ">
<polygon fill="none" stroke="black" points="1400,-0.5 1400,-41.5 1557,-41.5 1557,-0.5 1400,-0.5"/>
<text text-anchor="start" x="1408" y="-29.5" font-family="Helvetica,sans-Serif" font-size="10.00">llvm::SmallVectorImpl</text>
<text text-anchor="start" x="1408" y="-18.5" font-family="Helvetica,sans-Serif" font-size="10.00">&lt; llvm::RuntimeDyldMachO</text>
<text text-anchor="middle" x="1478.5" y="-7.5" font-family="Helvetica,sans-Serif" font-size="10.00">::EHFrameRelatedSections &gt;</text>
</a>
</g>
</g>
<!-- Node29&#45;&gt;Node28 -->
<g id="edge33" class="edge">
<title>Node29&#45;&gt;Node28</title>
<path fill="none" stroke="midnightblue" d="M1567.03,-38.52C1615.99,-48.6 1678.04,-61.84 1733,-75 1741.42,-77.02 1750.22,-79.21 1758.95,-81.46"/>
<polygon fill="midnightblue" stroke="midnightblue" points="1567.61,-35.06 1557.11,-36.48 1566.2,-41.92 1567.61,-35.06"/>
</g>
<!-- Node30 -->
<g id="node30" class="node">
<title>Node30</title>
<g id="a_node30"><a xlink:href="classllvm_1_1SmallVectorImpl.html" target="_top" xlink:title="This class consists of common code factored out of the SmallVector class to reduce code duplication b...">
<polygon fill="none" stroke="black" points="1051.5,-14.5 1051.5,-33.5 1204.5,-33.5 1204.5,-14.5 1051.5,-14.5"/>
<text text-anchor="middle" x="1128" y="-21.5" font-family="Helvetica,sans-Serif" font-size="10.00">llvm::SmallVectorImpl&lt; T &gt;</text>
</a>
</g>
</g>
<!-- Node30&#45;&gt;Node29 -->
<g id="edge34" class="edge">
<title>Node30&#45;&gt;Node29</title>
<path fill="none" stroke="orange" stroke-dasharray="5,2" d="M1215.06,-19.63C1222.14,-19.37 1229.19,-19.16 1236,-19 1298.65,-17.54 1314.34,-18.38 1377,-19 1384.42,-19.07 1392.14,-19.18 1399.87,-19.3"/>
<polygon fill="orange" stroke="orange" points="1214.54,-16.14 1204.68,-20.02 1214.81,-23.14 1214.54,-16.14"/>
<text text-anchor="start" x="1236" y="-33" font-family="Helvetica,sans-Serif" font-size="10.00"> &lt; llvm::RuntimeDyldMachO</text>
<text text-anchor="middle" x="1306.5" y="-22" font-family="Helvetica,sans-Serif" font-size="10.00">::EHFrameRelatedSections &gt;</text>
</g>
<!-- Node34 -->
<g id="node34" class="node">
<title>Node34</title>
<g id="a_node34"><a xlink:href="classllvm_1_1SmallVector.html" target="_top" xlink:title="This is a &#39;vector&#39; (really, a variable&#45;sized array), optimized for the case when the array is small.">
<polygon fill="none" stroke="black" points="1423,-63 1423,-93 1534,-93 1534,-63 1423,-63"/>
<text text-anchor="start" x="1431" y="-81" font-family="Helvetica,sans-Serif" font-size="10.00">llvm::SmallVector&lt;</text>
<text text-anchor="middle" x="1478.5" y="-70" font-family="Helvetica,sans-Serif" font-size="10.00"> T, N &gt;</text>
</a>
</g>
</g>
<!-- Node30&#45;&gt;Node34 -->
<g id="edge40" class="edge">
<title>Node30&#45;&gt;Node34</title>
<path fill="none" stroke="midnightblue" d="M1198.35,-35.08C1210.88,-37.06 1223.83,-39.1 1236,-41 1300.12,-51.01 1373.86,-62.27 1422.82,-69.71"/>
<polygon fill="midnightblue" stroke="midnightblue" points="1198.84,-31.61 1188.42,-33.5 1197.75,-38.52 1198.84,-31.61"/>
</g>
<!-- Node31 -->
<g id="node31" class="node">
<title>Node31</title>
<g id="a_node31"><a xlink:href="structllvm_1_1SmallVectorStorage.html" target="_top" xlink:title=" ">
<polygon fill="none" stroke="black" points="1043,-115.5 1043,-156.5 1213,-156.5 1213,-115.5 1043,-115.5"/>
<text text-anchor="start" x="1051" y="-144.5" font-family="Helvetica,sans-Serif" font-size="10.00">llvm::SmallVectorStorage</text>
<text text-anchor="start" x="1051" y="-133.5" font-family="Helvetica,sans-Serif" font-size="10.00">&lt; llvm::RuntimeDyldMachO</text>
<text text-anchor="middle" x="1128" y="-122.5" font-family="Helvetica,sans-Serif" font-size="10.00">::EHFrameRelatedSections, N &gt;</text>
</a>
</g>
</g>
<!-- Node31&#45;&gt;Node28 -->
<g id="edge35" class="edge">
<title>Node31&#45;&gt;Node28</title>
<path fill="none" stroke="#8b1a1a" d="M1223.2,-132C1342.05,-126.88 1552.71,-117.51 1733,-108 1738.82,-107.69 1744.82,-107.37 1750.87,-107.03"/>
<polygon fill="#8b1a1a" stroke="#8b1a1a" points="1222.89,-128.51 1213.05,-132.44 1223.19,-135.51 1222.89,-128.51"/>
</g>
<!-- Node32 -->
<g id="node32" class="node">
<title>Node32</title>
<g id="a_node32"><a xlink:title=" ">
<polygon fill="none" stroke="#bfbfbf" points="460,-95.5 460,-114.5 498,-114.5 498,-95.5 460,-95.5"/>
<text text-anchor="middle" x="479" y="-102.5" font-family="Helvetica,sans-Serif" font-size="10.00">char</text>
</a>
</g>
</g>
<!-- Node32&#45;&gt;Node31 -->
<g id="edge36" class="edge">
<title>Node32&#45;&gt;Node31</title>
<path fill="none" stroke="#9a32cd" stroke-dasharray="5,2" d="M508.45,-110.53C588.76,-125.48 824.13,-164.66 1020,-151 1027.39,-150.48 1035.05,-149.77 1042.72,-148.93"/>
<polygon fill="#9a32cd" stroke="#9a32cd" points="508.64,-107.01 498.16,-108.59 507.34,-113.89 508.64,-107.01"/>
<text text-anchor="middle" x="771" y="-154" font-family="Helvetica,sans-Serif" font-size="10.00"> InlineElts</text>
</g>
<!-- Node33 -->
<g id="node33" class="node">
<title>Node33</title>
<g id="a_node33"><a xlink:href="structllvm_1_1SmallVectorStorage.html" target="_top" xlink:title="Storage for the SmallVector elements.">
<polygon fill="none" stroke="black" points="701,-90 701,-120 841,-120 841,-90 701,-90"/>
<text text-anchor="start" x="709" y="-108" font-family="Helvetica,sans-Serif" font-size="10.00">llvm::SmallVectorStorage</text>
<text text-anchor="middle" x="771" y="-97" font-family="Helvetica,sans-Serif" font-size="10.00">&lt; T, N &gt;</text>
</a>
</g>
</g>
<!-- Node32&#45;&gt;Node33 -->
<g id="edge38" class="edge">
<title>Node32&#45;&gt;Node33</title>
<path fill="none" stroke="#9a32cd" stroke-dasharray="5,2" d="M508.16,-105C552.32,-105 639.17,-105 700.72,-105"/>
<polygon fill="#9a32cd" stroke="#9a32cd" points="508.14,-101.5 498.14,-105 508.14,-108.5 508.14,-101.5"/>
<text text-anchor="middle" x="625" y="-108" font-family="Helvetica,sans-Serif" font-size="10.00"> InlineElts</text>
</g>
<!-- Node35 -->
<g id="node35" class="node">
<title>Node35</title>
<g id="a_node35"><a xlink:href="structllvm_1_1SmallVectorStorage.html" target="_top" xlink:title=" ">
<polygon fill="none" stroke="black" points="1038,-55.5 1038,-96.5 1218,-96.5 1218,-55.5 1038,-55.5"/>
<text text-anchor="start" x="1046" y="-84.5" font-family="Helvetica,sans-Serif" font-size="10.00">llvm::SmallVectorStorage</text>
<text text-anchor="start" x="1046" y="-73.5" font-family="Helvetica,sans-Serif" font-size="10.00">&lt; T, CalculateSmallVectorDefault</text>
<text text-anchor="middle" x="1128" y="-62.5" font-family="Helvetica,sans-Serif" font-size="10.00">InlinedElements&lt; T &gt;::value &gt;</text>
</a>
</g>
</g>
<!-- Node32&#45;&gt;Node35 -->
<g id="edge42" class="edge">
<title>Node32&#45;&gt;Node35</title>
<path fill="none" stroke="#9a32cd" stroke-dasharray="5,2" d="M508.2,-98.82C548.96,-90.21 626.83,-75 694,-69 838.32,-56.1 875.24,-60.92 1020,-67 1025.87,-67.25 1031.91,-67.57 1038,-67.94"/>
<polygon fill="#9a32cd" stroke="#9a32cd" points="507.24,-95.44 498.2,-100.96 508.71,-102.29 507.24,-95.44"/>
<text text-anchor="middle" x="771" y="-72" font-family="Helvetica,sans-Serif" font-size="10.00"> InlineElts</text>
</g>
<!-- Node33&#45;&gt;Node31 -->
<g id="edge37" class="edge">
<title>Node33&#45;&gt;Node31</title>
<path fill="none" stroke="orange" stroke-dasharray="5,2" d="M851.33,-111.93C908.27,-116.9 984.87,-123.59 1042.87,-128.65"/>
<polygon fill="orange" stroke="orange" points="851.56,-108.43 841.29,-111.05 850.95,-115.41 851.56,-108.43"/>
<text text-anchor="start" x="866" y="-139" font-family="Helvetica,sans-Serif" font-size="10.00"> &lt; llvm::RuntimeDyldMachO</text>
<text text-anchor="middle" x="943" y="-128" font-family="Helvetica,sans-Serif" font-size="10.00">::EHFrameRelatedSections, N &gt;</text>
</g>
<!-- Node33&#45;&gt;Node35 -->
<g id="edge43" class="edge">
<title>Node33&#45;&gt;Node35</title>
<path fill="none" stroke="orange" stroke-dasharray="5,2" d="M827.29,-87.16C839.89,-83.81 853.3,-80.8 866,-79 922.76,-70.96 987.15,-70.14 1037.78,-71.36"/>
<polygon fill="orange" stroke="orange" points="826.1,-83.86 817.4,-89.9 827.97,-90.6 826.1,-83.86"/>
<text text-anchor="start" x="877.5" y="-104" font-family="Helvetica,sans-Serif" font-size="10.00"> &lt; T, CalculateSmallVector</text>
<text text-anchor="start" x="877.5" y="-93" font-family="Helvetica,sans-Serif" font-size="10.00">DefaultInlinedElements</text>
<text text-anchor="middle" x="943" y="-82" font-family="Helvetica,sans-Serif" font-size="10.00">&lt; T &gt;::value &gt;</text>
</g>
<!-- Node34&#45;&gt;Node28 -->
<g id="edge39" class="edge">
<title>Node34&#45;&gt;Node28</title>
<path fill="none" stroke="orange" stroke-dasharray="5,2" d="M1544.3,-77.82C1595.6,-78.22 1669.02,-79.97 1733,-86 1738.86,-86.55 1744.9,-87.23 1750.97,-87.99"/>
<polygon fill="orange" stroke="orange" points="1544.04,-74.32 1534.02,-77.76 1544,-81.32 1544.04,-74.32"/>
<text text-anchor="start" x="1580" y="-100" font-family="Helvetica,sans-Serif" font-size="10.00"> &lt; llvm::RuntimeDyldMachO</text>
<text text-anchor="middle" x="1656.5" y="-89" font-family="Helvetica,sans-Serif" font-size="10.00">::EHFrameRelatedSections, 2 &gt;</text>
</g>
<!-- Node35&#45;&gt;Node34 -->
<g id="edge41" class="edge">
<title>Node35&#45;&gt;Node34</title>
<path fill="none" stroke="#8b1a1a" d="M1228.29,-76.57C1291.51,-76.93 1370.99,-77.39 1422.97,-77.69"/>
<polygon fill="#8b1a1a" stroke="#8b1a1a" points="1228.31,-73.07 1218.29,-76.51 1228.27,-80.07 1228.31,-73.07"/>
</g>
</g>
</svg>
