<?xml version="1.0" encoding="UTF-8" standalone="no"?>
<!DOCTYPE svg PUBLIC "-//W3C//DTD SVG 1.1//EN"
 "http://www.w3.org/Graphics/SVG/1.1/DTD/svg11.dtd">
<!-- Generated by graphviz version 2.43.0 (0)
 -->
<!-- Title: llvm::RawInstrProfReader&lt; IntPtrT &gt; Pages: 1 -->
<svg width="157pt" height="174pt"
 viewBox="0.00 0.00 157.00 174.00" xmlns="http://www.w3.org/2000/svg" xmlns:xlink="http://www.w3.org/1999/xlink">
<g id="graph0" class="graph" transform="scale(1 1) rotate(0) translate(4 170)">
<title>llvm::RawInstrProfReader&lt; IntPtrT &gt;</title>
<!-- Node1 -->
<g id="node1" class="node">
<title>Node1</title>
<g id="a_node1"><a xlink:title="Reader for the raw instrprof binary format from runtime.">
<polygon fill="#bfbfbf" stroke="black" points="4,-0.5 4,-30.5 145,-30.5 145,-0.5 4,-0.5"/>
<text text-anchor="start" x="12" y="-18.5" font-family="Helvetica,sans-Serif" font-size="10.00">llvm::RawInstrProfReader</text>
<text text-anchor="middle" x="74.5" y="-7.5" font-family="Helvetica,sans-Serif" font-size="10.00">&lt; IntPtrT &gt;</text>
</a>
</g>
</g>
<!-- Node2 -->
<g id="node2" class="node">
<title>Node2</title>
<g id="a_node2"><a xlink:href="classllvm_1_1InstrProfReader.html" target="_top" xlink:title="Base class and interface for reading profiling data of any known instrprof format.">
<polygon fill="none" stroke="black" points="14.5,-68.5 14.5,-87.5 134.5,-87.5 134.5,-68.5 14.5,-68.5"/>
<text text-anchor="middle" x="74.5" y="-75.5" font-family="Helvetica,sans-Serif" font-size="10.00">llvm::InstrProfReader</text>
</a>
</g>
</g>
<!-- Node2&#45;&gt;Node1 -->
<g id="edge1" class="edge">
<title>Node2&#45;&gt;Node1</title>
<path fill="none" stroke="midnightblue" d="M74.5,-58.22C74.5,-49.36 74.5,-38.96 74.5,-30.76"/>
<polygon fill="midnightblue" stroke="midnightblue" points="71,-58.33 74.5,-68.33 78,-58.33 71,-58.33"/>
</g>
<!-- Node3 -->
<g id="node3" class="node">
<title>Node3</title>
<g id="a_node3"><a xlink:title=" ">
<polygon fill="none" stroke="#bfbfbf" points="0,-135.5 0,-165.5 149,-165.5 149,-135.5 0,-135.5"/>
<text text-anchor="start" x="8" y="-153.5" font-family="Helvetica,sans-Serif" font-size="10.00">unique_ptr&lt; llvm::InstrProf</text>
<text text-anchor="middle" x="74.5" y="-142.5" font-family="Helvetica,sans-Serif" font-size="10.00">Symtab &gt;</text>
</a>
</g>
</g>
<!-- Node3&#45;&gt;Node2 -->
<g id="edge2" class="edge">
<title>Node3&#45;&gt;Node2</title>
<path fill="none" stroke="#9a32cd" stroke-dasharray="5,2" d="M74.5,-125.09C74.5,-112.21 74.5,-97.2 74.5,-87.89"/>
<polygon fill="#9a32cd" stroke="#9a32cd" points="71,-125.23 74.5,-135.23 78,-125.23 71,-125.23"/>
<text text-anchor="middle" x="95" y="-109" font-family="Helvetica,sans-Serif" font-size="10.00"> Symtab</text>
</g>
</g>
</svg>
