<?xml version="1.0" encoding="UTF-8" standalone="no"?>
<!DOCTYPE svg PUBLIC "-//W3C//DTD SVG 1.1//EN"
 "http://www.w3.org/Graphics/SVG/1.1/DTD/svg11.dtd">
<!-- Generated by graphviz version 2.43.0 (0)
 -->
<!-- Title: llvm::IRSimilarityAnalysisPrinterPass Pages: 1 -->
<svg width="232pt" height="207pt"
 viewBox="0.00 0.00 232.00 207.00" xmlns="http://www.w3.org/2000/svg" xmlns:xlink="http://www.w3.org/1999/xlink">
<g id="graph0" class="graph" transform="scale(1 1) rotate(0) translate(4 203)">
<title>llvm::IRSimilarityAnalysisPrinterPass</title>
<!-- Node1 -->
<g id="node1" class="node">
<title>Node1</title>
<g id="a_node1"><a xlink:title="Printer pass that uses IRSimilarityAnalysis.">
<polygon fill="#bfbfbf" stroke="black" points="7.5,-0.5 7.5,-30.5 150.5,-30.5 150.5,-0.5 7.5,-0.5"/>
<text text-anchor="start" x="15.5" y="-18.5" font-family="Helvetica,sans-Serif" font-size="10.00">llvm::IRSimilarityAnalysis</text>
<text text-anchor="middle" x="79" y="-7.5" font-family="Helvetica,sans-Serif" font-size="10.00">PrinterPass</text>
</a>
</g>
</g>
<!-- Node2 -->
<g id="node2" class="node">
<title>Node2</title>
<g id="a_node2"><a xlink:href="structllvm_1_1PassInfoMixin.html" target="_top" xlink:title=" ">
<polygon fill="none" stroke="black" points="0,-68.5 0,-109.5 158,-109.5 158,-68.5 0,-68.5"/>
<text text-anchor="start" x="8" y="-97.5" font-family="Helvetica,sans-Serif" font-size="10.00">llvm::PassInfoMixin</text>
<text text-anchor="start" x="8" y="-86.5" font-family="Helvetica,sans-Serif" font-size="10.00">&lt; IRSimilarityAnalysisPrinter</text>
<text text-anchor="middle" x="79" y="-75.5" font-family="Helvetica,sans-Serif" font-size="10.00">Pass &gt;</text>
</a>
</g>
</g>
<!-- Node2&#45;&gt;Node1 -->
<g id="edge1" class="edge">
<title>Node2&#45;&gt;Node1</title>
<path fill="none" stroke="midnightblue" d="M79,-58.16C79,-48.69 79,-38.65 79,-30.8"/>
<polygon fill="midnightblue" stroke="midnightblue" points="75.5,-58.46 79,-68.46 82.5,-58.46 75.5,-58.46"/>
</g>
<!-- Node3 -->
<g id="node3" class="node">
<title>Node3</title>
<g id="a_node3"><a xlink:href="structllvm_1_1PassInfoMixin.html" target="_top" xlink:title="A CRTP mix&#45;in to automatically provide informational APIs needed for passes.">
<polygon fill="none" stroke="black" points="23,-168.5 23,-198.5 135,-198.5 135,-168.5 23,-168.5"/>
<text text-anchor="start" x="31" y="-186.5" font-family="Helvetica,sans-Serif" font-size="10.00">llvm::PassInfoMixin</text>
<text text-anchor="middle" x="79" y="-175.5" font-family="Helvetica,sans-Serif" font-size="10.00">&lt; DerivedT &gt;</text>
</a>
</g>
</g>
<!-- Node3&#45;&gt;Node2 -->
<g id="edge2" class="edge">
<title>Node3&#45;&gt;Node2</title>
<path fill="none" stroke="orange" stroke-dasharray="5,2" d="M79,-158.28C79,-143.14 79,-123.88 79,-109.68"/>
<polygon fill="orange" stroke="orange" points="75.5,-158.45 79,-168.45 82.5,-158.45 75.5,-158.45"/>
<text text-anchor="start" x="79" y="-142" font-family="Helvetica,sans-Serif" font-size="10.00"> &lt; IRSimilarityAnalysisPrinter</text>
<text text-anchor="middle" x="151.5" y="-131" font-family="Helvetica,sans-Serif" font-size="10.00">Pass &gt;</text>
</g>
</g>
</svg>
