<?xml version="1.0" encoding="UTF-8" standalone="no"?>
<!DOCTYPE svg PUBLIC "-//W3C//DTD SVG 1.1//EN"
 "http://www.w3.org/Graphics/SVG/1.1/DTD/svg11.dtd">
<!-- Generated by graphviz version 2.43.0 (0)
 -->
<!-- Title: llvm::jitlink::BasicLayout::Segment Pages: 1 -->
<svg width="479pt" height="106pt"
 viewBox="0.00 0.00 478.50 106.00" xmlns="http://www.w3.org/2000/svg" xmlns:xlink="http://www.w3.org/1999/xlink">
<g id="graph0" class="graph" transform="scale(1 1) rotate(0) translate(4 102)">
<title>llvm::jitlink::BasicLayout::Segment</title>
<!-- Node1 -->
<g id="node1" class="node">
<title>Node1</title>
<g id="a_node1"><a xlink:title="The Alignment, ContentSize and ZeroFillSize of each segment will be pre&#45;filled from the Graph.">
<polygon fill="#bfbfbf" stroke="black" points="191.5,-0.5 191.5,-30.5 328.5,-30.5 328.5,-0.5 191.5,-0.5"/>
<text text-anchor="start" x="199.5" y="-18.5" font-family="Helvetica,sans-Serif" font-size="10.00">llvm::jitlink::BasicLayout</text>
<text text-anchor="middle" x="260" y="-7.5" font-family="Helvetica,sans-Serif" font-size="10.00">::Segment</text>
</a>
</g>
</g>
<!-- Node2 -->
<g id="node2" class="node">
<title>Node2</title>
<g id="a_node2"><a xlink:href="classllvm_1_1orc_1_1ExecutorAddr.html" target="_top" xlink:title="Represents an address in the executor process.">
<polygon fill="none" stroke="black" points="0,-78.5 0,-97.5 130,-97.5 130,-78.5 0,-78.5"/>
<text text-anchor="middle" x="65" y="-85.5" font-family="Helvetica,sans-Serif" font-size="10.00">llvm::orc::ExecutorAddr</text>
</a>
</g>
</g>
<!-- Node2&#45;&gt;Node1 -->
<g id="edge1" class="edge">
<title>Node2&#45;&gt;Node1</title>
<path fill="none" stroke="#9a32cd" stroke-dasharray="5,2" d="M93.91,-74.31C111.91,-66.6 135.62,-56.77 157,-49 174.98,-42.47 194.98,-35.98 212.54,-30.54"/>
<polygon fill="#9a32cd" stroke="#9a32cd" points="92.34,-71.17 84.55,-78.35 95.12,-77.6 92.34,-71.17"/>
<text text-anchor="middle" x="170" y="-52" font-family="Helvetica,sans-Serif" font-size="10.00"> Addr</text>
</g>
<!-- Node3 -->
<g id="node3" class="node">
<title>Node3</title>
<g id="a_node3"><a xlink:href="classuint64__t.html" target="_top" xlink:title=" ">
<polygon fill="none" stroke="black" points="148,-78.5 148,-97.5 204,-97.5 204,-78.5 148,-78.5"/>
<text text-anchor="middle" x="176" y="-85.5" font-family="Helvetica,sans-Serif" font-size="10.00">uint64_t</text>
</a>
</g>
</g>
<!-- Node3&#45;&gt;Node1 -->
<g id="edge2" class="edge">
<title>Node3&#45;&gt;Node1</title>
<path fill="none" stroke="#9a32cd" stroke-dasharray="5,2" d="M182.1,-69.13C185.14,-62.21 189.39,-54.61 195,-49 202.49,-41.51 212.07,-35.43 221.55,-30.65"/>
<polygon fill="#9a32cd" stroke="#9a32cd" points="178.82,-67.91 178.49,-78.5 185.36,-70.43 178.82,-67.91"/>
<text text-anchor="middle" x="225.5" y="-52" font-family="Helvetica,sans-Serif" font-size="10.00"> ZeroFillSize</text>
</g>
<!-- Node4 -->
<g id="node4" class="node">
<title>Node4</title>
<g id="a_node4"><a xlink:title=" ">
<polygon fill="none" stroke="#bfbfbf" points="241,-78.5 241,-97.5 279,-97.5 279,-78.5 241,-78.5"/>
<text text-anchor="middle" x="260" y="-85.5" font-family="Helvetica,sans-Serif" font-size="10.00">char</text>
</a>
</g>
</g>
<!-- Node4&#45;&gt;Node1 -->
<g id="edge3" class="edge">
<title>Node4&#45;&gt;Node1</title>
<path fill="none" stroke="#9a32cd" stroke-dasharray="5,2" d="M260,-68.24C260,-56.41 260,-41.38 260,-30.58"/>
<polygon fill="#9a32cd" stroke="#9a32cd" points="256.5,-68.36 260,-78.36 263.5,-68.36 256.5,-68.36"/>
<text text-anchor="middle" x="294" y="-52" font-family="Helvetica,sans-Serif" font-size="10.00"> WorkingMem</text>
</g>
<!-- Node5 -->
<g id="node5" class="node">
<title>Node5</title>
<g id="a_node5"><a xlink:href="classsize__t.html" target="_top" xlink:title=" ">
<polygon fill="none" stroke="black" points="328.5,-78.5 328.5,-97.5 373.5,-97.5 373.5,-78.5 328.5,-78.5"/>
<text text-anchor="middle" x="351" y="-85.5" font-family="Helvetica,sans-Serif" font-size="10.00">size_t</text>
</a>
</g>
</g>
<!-- Node5&#45;&gt;Node1 -->
<g id="edge4" class="edge">
<title>Node5&#45;&gt;Node1</title>
<path fill="none" stroke="#9a32cd" stroke-dasharray="5,2" d="M343.47,-69.07C339.88,-62.13 335.03,-54.54 329,-49 320.81,-41.47 310.56,-35.39 300.5,-30.61"/>
<polygon fill="#9a32cd" stroke="#9a32cd" points="340.44,-70.86 347.83,-78.46 346.79,-67.91 340.44,-70.86"/>
<text text-anchor="middle" x="368" y="-52" font-family="Helvetica,sans-Serif" font-size="10.00"> ContentSize</text>
</g>
<!-- Node6 -->
<g id="node6" class="node">
<title>Node6</title>
<g id="a_node6"><a xlink:href="structllvm_1_1Align.html" target="_top" xlink:title="This struct is a compact representation of a valid (non&#45;zero power of two) alignment.">
<polygon fill="none" stroke="black" points="401.5,-78.5 401.5,-97.5 470.5,-97.5 470.5,-78.5 401.5,-78.5"/>
<text text-anchor="middle" x="436" y="-85.5" font-family="Helvetica,sans-Serif" font-size="10.00">llvm::Align</text>
</a>
</g>
</g>
<!-- Node6&#45;&gt;Node1 -->
<g id="edge5" class="edge">
<title>Node6&#45;&gt;Node1</title>
<path fill="none" stroke="#9a32cd" stroke-dasharray="5,2" d="M425.05,-70.09C419.34,-62.56 411.73,-54.23 403,-49 380.72,-35.66 353.49,-27.79 328.8,-23.15"/>
<polygon fill="#9a32cd" stroke="#9a32cd" points="422.22,-72.16 430.83,-78.33 427.96,-68.14 422.22,-72.16"/>
<text text-anchor="middle" x="442" y="-52" font-family="Helvetica,sans-Serif" font-size="10.00"> Alignment</text>
</g>
</g>
</svg>
