<?xml version="1.0" encoding="UTF-8" standalone="no"?>
<!DOCTYPE svg PUBLIC "-//W3C//DTD SVG 1.1//EN"
 "http://www.w3.org/Graphics/SVG/1.1/DTD/svg11.dtd">
<!-- Generated by graphviz version 2.43.0 (0)
 -->
<!-- Title: llvm::AArch64Subtarget Pages: 1 -->
<svg width="1129pt" height="835pt"
 viewBox="0.00 0.00 1129.00 835.24" xmlns="http://www.w3.org/2000/svg" xmlns:xlink="http://www.w3.org/1999/xlink">
<g id="graph0" class="graph" transform="scale(1 1) rotate(0) translate(4 831.24)">
<title>llvm::AArch64Subtarget</title>
<!-- Node1 -->
<g id="node1" class="node">
<title>Node1</title>
<g id="a_node1"><a xlink:title=" ">
<polygon fill="#bfbfbf" stroke="black" points="989,-325.89 989,-344.89 1121,-344.89 1121,-325.89 989,-325.89"/>
<text text-anchor="middle" x="1055" y="-332.89" font-family="Helvetica,sans-Serif" font-size="10.00">llvm::AArch64Subtarget</text>
</a>
</g>
</g>
<!-- Node2 -->
<g id="node2" class="node">
<title>Node2</title>
<g id="a_node2"><a xlink:href="classAArch64GenSubtargetInfo.html" target="_top" xlink:title=" ">
<polygon fill="none" stroke="black" points="651.5,-795.89 651.5,-814.89 794.5,-814.89 794.5,-795.89 651.5,-795.89"/>
<text text-anchor="middle" x="723" y="-802.89" font-family="Helvetica,sans-Serif" font-size="10.00">AArch64GenSubtargetInfo</text>
</a>
</g>
</g>
<!-- Node2&#45;&gt;Node1 -->
<g id="edge1" class="edge">
<title>Node2&#45;&gt;Node1</title>
<path fill="none" stroke="midnightblue" d="M768.23,-817.17C822.97,-828.83 915.7,-838.61 971,-789.39 1040.43,-727.59 1052.18,-404.94 1053.78,-344.99"/>
<polygon fill="midnightblue" stroke="midnightblue" points="768.99,-813.76 758.47,-814.99 767.46,-820.59 768.99,-813.76"/>
</g>
<!-- Node3 -->
<g id="node3" class="node">
<title>Node3</title>
<g id="a_node3"><a xlink:title=" ">
<polygon fill="none" stroke="#bfbfbf" points="647,-746.39 647,-776.39 799,-776.39 799,-746.39 647,-746.39"/>
<text text-anchor="start" x="655" y="-764.39" font-family="Helvetica,sans-Serif" font-size="10.00">unique_ptr&lt; llvm::Legalizer</text>
<text text-anchor="middle" x="723" y="-753.39" font-family="Helvetica,sans-Serif" font-size="10.00">Info &gt;</text>
</a>
</g>
</g>
<!-- Node3&#45;&gt;Node1 -->
<g id="edge2" class="edge">
<title>Node3&#45;&gt;Node1</title>
<path fill="none" stroke="#9a32cd" stroke-dasharray="5,2" d="M809.08,-774.08C862.11,-776.97 928.17,-770.7 971,-731.39 1030.52,-676.77 1050.09,-400.65 1053.45,-345.13"/>
<polygon fill="#9a32cd" stroke="#9a32cd" points="809.21,-770.58 799,-773.41 808.75,-777.56 809.21,-770.58"/>
<text text-anchor="middle" x="901.5" y="-777.39" font-family="Helvetica,sans-Serif" font-size="10.00"> Legalizer</text>
</g>
<!-- Node4 -->
<g id="node4" class="node">
<title>Node4</title>
<g id="a_node4"><a xlink:href="classllvm_1_1AArch64TargetLowering.html" target="_top" xlink:title=" ">
<polygon fill="none" stroke="black" points="643.5,-592.89 643.5,-611.89 802.5,-611.89 802.5,-592.89 643.5,-592.89"/>
<text text-anchor="middle" x="723" y="-599.89" font-family="Helvetica,sans-Serif" font-size="10.00">llvm::AArch64TargetLowering</text>
</a>
</g>
</g>
<!-- Node4&#45;&gt;Node1 -->
<g id="edge3" class="edge">
<title>Node4&#45;&gt;Node1</title>
<path fill="none" stroke="#9a32cd" stroke-dasharray="5,2" d="M812.7,-597.02C864.29,-589.63 927.51,-572.7 971,-534.39 1031.39,-481.19 1048.89,-376.99 1052.94,-344.98"/>
<polygon fill="#9a32cd" stroke="#9a32cd" points="812,-593.58 802.55,-598.37 812.92,-600.52 812,-593.58"/>
<text text-anchor="middle" x="901.5" y="-596.39" font-family="Helvetica,sans-Serif" font-size="10.00"> TLInfo</text>
</g>
<!-- Node5 -->
<g id="node5" class="node">
<title>Node5</title>
<g id="a_node5"><a xlink:href="classllvm_1_1TargetLowering.html" target="_top" xlink:title="This class defines information used to lower LLVM code to legal SelectionDAG operators that the targe...">
<polygon fill="none" stroke="black" points="455.5,-609.89 455.5,-628.89 574.5,-628.89 574.5,-609.89 455.5,-609.89"/>
<text text-anchor="middle" x="515" y="-616.89" font-family="Helvetica,sans-Serif" font-size="10.00">llvm::TargetLowering</text>
</a>
</g>
</g>
<!-- Node5&#45;&gt;Node4 -->
<g id="edge4" class="edge">
<title>Node5&#45;&gt;Node4</title>
<path fill="none" stroke="midnightblue" d="M584.94,-613.7C603.63,-612.16 623.99,-610.48 643.18,-608.9"/>
<polygon fill="midnightblue" stroke="midnightblue" points="584.43,-610.23 574.76,-614.54 585.01,-617.21 584.43,-610.23"/>
</g>
<!-- Node6 -->
<g id="node6" class="node">
<title>Node6</title>
<g id="a_node6"><a xlink:href="classllvm_1_1TargetLoweringBase.html" target="_top" xlink:title="This base class for TargetLowering contains the SelectionDAG&#45;independent parts that can be used from ...">
<polygon fill="none" stroke="black" points="255,-609.89 255,-628.89 398,-628.89 398,-609.89 255,-609.89"/>
<text text-anchor="middle" x="326.5" y="-616.89" font-family="Helvetica,sans-Serif" font-size="10.00">llvm::TargetLoweringBase</text>
</a>
</g>
</g>
<!-- Node6&#45;&gt;Node5 -->
<g id="edge5" class="edge">
<title>Node6&#45;&gt;Node5</title>
<path fill="none" stroke="midnightblue" d="M408.29,-619.39C424.08,-619.39 440.35,-619.39 455.25,-619.39"/>
<polygon fill="midnightblue" stroke="midnightblue" points="408.01,-615.89 398.01,-619.39 408.01,-622.89 408.01,-615.89"/>
</g>
<!-- Node7 -->
<g id="node7" class="node">
<title>Node7</title>
<g id="a_node7"><a xlink:title=" ">
<polygon fill="none" stroke="#bfbfbf" points="11.5,-683.89 11.5,-702.89 49.5,-702.89 49.5,-683.89 11.5,-683.89"/>
<text text-anchor="middle" x="30.5" y="-690.89" font-family="Helvetica,sans-Serif" font-size="10.00">bool</text>
</a>
</g>
</g>
<!-- Node7&#45;&gt;Node1 -->
<g id="edge15" class="edge">
<title>Node7&#45;&gt;Node1</title>
<path fill="none" stroke="#9a32cd" stroke-dasharray="5,2" d="M59.94,-700.11C66.19,-701.38 72.79,-702.57 79,-703.39 187.78,-717.85 215.77,-717.39 325.5,-717.39 325.5,-717.39 325.5,-717.39 724,-717.39 843.99,-717.39 891.41,-698.19 971,-608.39 1043.45,-526.65 1052.67,-383.19 1053.83,-344.97"/>
<polygon fill="#9a32cd" stroke="#9a32cd" points="60.4,-696.63 49.89,-697.94 58.92,-703.47 60.4,-696.63"/>
<text text-anchor="middle" x="515" y="-720.39" font-family="Helvetica,sans-Serif" font-size="10.00"> IsLittle</text>
</g>
<!-- Node7&#45;&gt;Node6 -->
<g id="edge6" class="edge">
<title>Node7&#45;&gt;Node6</title>
<path fill="none" stroke="#9a32cd" stroke-dasharray="5,2" d="M57.08,-679.24C64.02,-675.89 71.65,-672.65 79,-670.39 146.84,-649.57 167.83,-663.26 237,-647.39 258.2,-642.53 281.66,-635.01 299.09,-628.99"/>
<polygon fill="#9a32cd" stroke="#9a32cd" points="55.47,-676.13 48.13,-683.78 58.64,-682.37 55.47,-676.13"/>
<text text-anchor="middle" x="158" y="-695.39" font-family="Helvetica,sans-Serif" font-size="10.00"> PredictableSelectIsExpensive</text>
<text text-anchor="middle" x="158" y="-684.39" font-family="Helvetica,sans-Serif" font-size="10.00">EnableExtLdPromotion</text>
<text text-anchor="middle" x="158" y="-673.39" font-family="Helvetica,sans-Serif" font-size="10.00">IsStrictFPEnabled</text>
</g>
<!-- Node8 -->
<g id="node8" class="node">
<title>Node8</title>
<g id="a_node8"><a xlink:title=" ">
<polygon fill="none" stroke="#bfbfbf" points="0,-499.89 0,-518.89 61,-518.89 61,-499.89 0,-499.89"/>
<text text-anchor="middle" x="30.5" y="-506.89" font-family="Helvetica,sans-Serif" font-size="10.00">unsigned</text>
</a>
</g>
</g>
<!-- Node8&#45;&gt;Node1 -->
<g id="edge21" class="edge">
<title>Node8&#45;&gt;Node1</title>
<path fill="none" stroke="#9a32cd" stroke-dasharray="5,2" d="M71.24,-506.74C73.87,-506.61 76.47,-506.49 79,-506.39 237.12,-500.29 276.77,-502.5 435,-501.39 435,-501.39 814,-501.39 814,-501.39 883.78,-501.17 911.71,-537.19 971,-500.39 1028.76,-464.54 1047.77,-374.91 1052.61,-345.16"/>
<polygon fill="#9a32cd" stroke="#9a32cd" points="70.93,-503.25 61.13,-507.3 71.31,-510.24 70.93,-503.25"/>
<text text-anchor="middle" x="515" y="-592.39" font-family="Helvetica,sans-Serif" font-size="10.00"> VScaleForTuning</text>
<text text-anchor="middle" x="515" y="-581.39" font-family="Helvetica,sans-Serif" font-size="10.00">MinSVEVectorSizeInBits</text>
<text text-anchor="middle" x="515" y="-570.39" font-family="Helvetica,sans-Serif" font-size="10.00">MinVectorRegisterBitWidth</text>
<text text-anchor="middle" x="515" y="-559.39" font-family="Helvetica,sans-Serif" font-size="10.00">PrefLoopLogAlignment</text>
<text text-anchor="middle" x="515" y="-548.39" font-family="Helvetica,sans-Serif" font-size="10.00">MaxJumpTableSize</text>
<text text-anchor="middle" x="515" y="-537.39" font-family="Helvetica,sans-Serif" font-size="10.00">MaxSVEVectorSizeInBits</text>
<text text-anchor="middle" x="515" y="-526.39" font-family="Helvetica,sans-Serif" font-size="10.00">MaxPrefetchIterationsAhead</text>
<text text-anchor="middle" x="515" y="-515.39" font-family="Helvetica,sans-Serif" font-size="10.00">MaxBytesForLoopAlignment</text>
<text text-anchor="middle" x="515" y="-504.39" font-family="Helvetica,sans-Serif" font-size="10.00">PrefFunctionLogAlignment</text>
</g>
<!-- Node8&#45;&gt;Node6 -->
<g id="edge7" class="edge">
<title>Node8&#45;&gt;Node6</title>
<path fill="none" stroke="#9a32cd" stroke-dasharray="5,2" d="M71.36,-508.42C122.72,-507.75 208.73,-508.83 237,-522.39 277.7,-541.91 308.38,-589.26 320.2,-609.72"/>
<polygon fill="#9a32cd" stroke="#9a32cd" points="71.22,-504.92 61.28,-508.57 71.33,-511.92 71.22,-504.92"/>
<text text-anchor="middle" x="158" y="-635.39" font-family="Helvetica,sans-Serif" font-size="10.00"> MaxStoresPerMemcpyOptSize</text>
<text text-anchor="middle" x="158" y="-624.39" font-family="Helvetica,sans-Serif" font-size="10.00">MaxLoadsPerMemcmpOptSize</text>
<text text-anchor="middle" x="158" y="-613.39" font-family="Helvetica,sans-Serif" font-size="10.00">MaxStoresPerMemsetOptSize</text>
<text text-anchor="middle" x="158" y="-602.39" font-family="Helvetica,sans-Serif" font-size="10.00">MaxStoresPerMemmoveOptSize</text>
<text text-anchor="middle" x="158" y="-591.39" font-family="Helvetica,sans-Serif" font-size="10.00">MaxStoresPerMemcpy</text>
<text text-anchor="middle" x="158" y="-580.39" font-family="Helvetica,sans-Serif" font-size="10.00">MaxGluedStoresPerMemcpy</text>
<text text-anchor="middle" x="158" y="-569.39" font-family="Helvetica,sans-Serif" font-size="10.00">MaxStoresPerMemset</text>
<text text-anchor="middle" x="158" y="-558.39" font-family="Helvetica,sans-Serif" font-size="10.00">MaxStoresPerMemmove</text>
<text text-anchor="middle" x="158" y="-547.39" font-family="Helvetica,sans-Serif" font-size="10.00">MaxLoadsPerMemcmp</text>
<text text-anchor="middle" x="158" y="-536.39" font-family="Helvetica,sans-Serif" font-size="10.00">GatherAllAliasesMaxDepth</text>
<text text-anchor="middle" x="158" y="-525.39" font-family="Helvetica,sans-Serif" font-size="10.00">...</text>
</g>
<!-- Node9 -->
<g id="node9" class="node">
<title>Node9</title>
<g id="a_node9"><a xlink:title=" ">
<polygon fill="none" stroke="#bfbfbf" points="663,-472.89 663,-491.89 783,-491.89 783,-472.89 663,-472.89"/>
<text text-anchor="middle" x="723" y="-479.89" font-family="Helvetica,sans-Serif" font-size="10.00">ARMProcFamilyEnum</text>
</a>
</g>
</g>
<!-- Node9&#45;&gt;Node1 -->
<g id="edge8" class="edge">
<title>Node9&#45;&gt;Node1</title>
<path fill="none" stroke="#9a32cd" stroke-dasharray="5,2" d="M793.32,-487.27C845.64,-487.76 917.34,-481.35 971,-449.39 1013.49,-424.09 1040.6,-367.74 1050.15,-345.09"/>
<polygon fill="#9a32cd" stroke="#9a32cd" points="793.19,-483.77 783.13,-487.09 793.06,-490.77 793.19,-483.77"/>
<text text-anchor="middle" x="901.5" y="-488.39" font-family="Helvetica,sans-Serif" font-size="10.00"> ARMProcFamily</text>
</g>
<!-- Node10 -->
<g id="node10" class="node">
<title>Node10</title>
<g id="a_node10"><a xlink:title=" ">
<polygon fill="none" stroke="#bfbfbf" points="649,-423.39 649,-453.39 797,-453.39 797,-423.39 649,-423.39"/>
<text text-anchor="start" x="657" y="-441.39" font-family="Helvetica,sans-Serif" font-size="10.00">unique_ptr&lt; llvm::Register</text>
<text text-anchor="middle" x="723" y="-430.39" font-family="Helvetica,sans-Serif" font-size="10.00">BankInfo &gt;</text>
</a>
</g>
</g>
<!-- Node10&#45;&gt;Node1 -->
<g id="edge9" class="edge">
<title>Node10&#45;&gt;Node1</title>
<path fill="none" stroke="#9a32cd" stroke-dasharray="5,2" d="M807.04,-437.21C856.45,-433.88 919.36,-424.96 971,-402.39 1002.22,-388.75 1031.44,-360.11 1045.41,-345.07"/>
<polygon fill="#9a32cd" stroke="#9a32cd" points="806.8,-433.72 797.03,-437.82 807.23,-440.7 806.8,-433.72"/>
<text text-anchor="middle" x="901.5" y="-437.39" font-family="Helvetica,sans-Serif" font-size="10.00"> RegBankInfo</text>
</g>
<!-- Node11 -->
<g id="node11" class="node">
<title>Node11</title>
<g id="a_node11"><a xlink:title=" ">
<polygon fill="none" stroke="#bfbfbf" points="643.5,-374.39 643.5,-404.39 802.5,-404.39 802.5,-374.39 643.5,-374.39"/>
<text text-anchor="start" x="651.5" y="-392.39" font-family="Helvetica,sans-Serif" font-size="10.00">unique_ptr&lt; llvm::Instruction</text>
<text text-anchor="middle" x="723" y="-381.39" font-family="Helvetica,sans-Serif" font-size="10.00">Selector &gt;</text>
</a>
</g>
</g>
<!-- Node11&#45;&gt;Node1 -->
<g id="edge10" class="edge">
<title>Node11&#45;&gt;Node1</title>
<path fill="none" stroke="#9a32cd" stroke-dasharray="5,2" d="M812.82,-388.79C860.3,-386.82 919.45,-381.72 971,-369.39 994.02,-363.89 1018.96,-352.93 1035.43,-344.94"/>
<polygon fill="#9a32cd" stroke="#9a32cd" points="812.42,-385.3 802.56,-389.17 812.68,-392.29 812.42,-385.3"/>
<text text-anchor="middle" x="901.5" y="-390.39" font-family="Helvetica,sans-Serif" font-size="10.00"> InstSelector</text>
</g>
<!-- Node12 -->
<g id="node12" class="node">
<title>Node12</title>
<g id="a_node12"><a xlink:href="classuint16__t.html" target="_top" xlink:title=" ">
<polygon fill="none" stroke="black" points="695,-335.89 695,-354.89 751,-354.89 751,-335.89 695,-335.89"/>
<text text-anchor="middle" x="723" y="-342.89" font-family="Helvetica,sans-Serif" font-size="10.00">uint16_t</text>
</a>
</g>
</g>
<!-- Node12&#45;&gt;Node1 -->
<g id="edge11" class="edge">
<title>Node12&#45;&gt;Node1</title>
<path fill="none" stroke="#9a32cd" stroke-dasharray="5,2" d="M761.07,-341.58C781.89,-339.62 808.36,-337.43 832,-336.39 884.75,-334.08 944.62,-333.96 988.88,-334.34"/>
<polygon fill="#9a32cd" stroke="#9a32cd" points="760.65,-338.1 751.04,-342.55 761.33,-345.07 760.65,-338.1"/>
<text text-anchor="middle" x="901.5" y="-361.39" font-family="Helvetica,sans-Serif" font-size="10.00"> MinPrefetchStride</text>
<text text-anchor="middle" x="901.5" y="-350.39" font-family="Helvetica,sans-Serif" font-size="10.00">CacheLineSize</text>
<text text-anchor="middle" x="901.5" y="-339.39" font-family="Helvetica,sans-Serif" font-size="10.00">PrefetchDistance</text>
</g>
<!-- Node13 -->
<g id="node13" class="node">
<title>Node13</title>
<g id="a_node13"><a xlink:title=" ">
<polygon fill="none" stroke="#bfbfbf" points="656,-286.39 656,-316.39 790,-316.39 790,-286.39 656,-286.39"/>
<text text-anchor="start" x="664" y="-304.39" font-family="Helvetica,sans-Serif" font-size="10.00">unique_ptr&lt; llvm::Inline</text>
<text text-anchor="middle" x="723" y="-293.39" font-family="Helvetica,sans-Serif" font-size="10.00">AsmLowering &gt;</text>
</a>
</g>
</g>
<!-- Node13&#45;&gt;Node1 -->
<g id="edge12" class="edge">
<title>Node13&#45;&gt;Node1</title>
<path fill="none" stroke="#9a32cd" stroke-dasharray="5,2" d="M800.23,-304.01C849.18,-306.34 914.04,-310.63 971,-318.39 984.7,-320.26 999.53,-323.05 1012.81,-325.83"/>
<polygon fill="#9a32cd" stroke="#9a32cd" points="800.18,-300.51 790.03,-303.54 799.86,-307.5 800.18,-300.51"/>
<text text-anchor="middle" x="901.5" y="-321.39" font-family="Helvetica,sans-Serif" font-size="10.00"> InlineAsmLoweringInfo</text>
</g>
<!-- Node14 -->
<g id="node14" class="node">
<title>Node14</title>
<g id="a_node14"><a xlink:href="classllvm_1_1AArch64SelectionDAGInfo.html" target="_top" xlink:title=" ">
<polygon fill="none" stroke="black" points="638,-247.89 638,-266.89 808,-266.89 808,-247.89 638,-247.89"/>
<text text-anchor="middle" x="723" y="-254.89" font-family="Helvetica,sans-Serif" font-size="10.00">llvm::AArch64SelectionDAGInfo</text>
</a>
</g>
</g>
<!-- Node14&#45;&gt;Node1 -->
<g id="edge13" class="edge">
<title>Node14&#45;&gt;Node1</title>
<path fill="none" stroke="#9a32cd" stroke-dasharray="5,2" d="M818.15,-261.91C864.99,-266.17 921.94,-274.42 971,-290.39 996.87,-298.82 1024.09,-315.24 1040.03,-325.74"/>
<polygon fill="#9a32cd" stroke="#9a32cd" points="818.27,-258.4 808.01,-261.03 817.67,-265.38 818.27,-258.4"/>
<text text-anchor="middle" x="901.5" y="-293.39" font-family="Helvetica,sans-Serif" font-size="10.00"> TSInfo</text>
</g>
<!-- Node15 -->
<g id="node15" class="node">
<title>Node15</title>
<g id="a_node15"><a xlink:href="classllvm_1_1SelectionDAGTargetInfo.html" target="_top" xlink:title="Targets can subclass this to parameterize the SelectionDAG lowering and instruction selection process...">
<polygon fill="none" stroke="black" points="435,-247.89 435,-266.89 595,-266.89 595,-247.89 435,-247.89"/>
<text text-anchor="middle" x="515" y="-254.89" font-family="Helvetica,sans-Serif" font-size="10.00">llvm::SelectionDAGTargetInfo</text>
</a>
</g>
</g>
<!-- Node15&#45;&gt;Node14 -->
<g id="edge14" class="edge">
<title>Node15&#45;&gt;Node14</title>
<path fill="none" stroke="midnightblue" d="M605.29,-257.39C616.04,-257.39 627,-257.39 637.68,-257.39"/>
<polygon fill="midnightblue" stroke="midnightblue" points="605.06,-253.89 595.06,-257.39 605.06,-260.89 605.06,-253.89"/>
</g>
<!-- Node16 -->
<g id="node16" class="node">
<title>Node16</title>
<g id="a_node16"><a xlink:title=" ">
<polygon fill="none" stroke="#bfbfbf" points="698,-209.89 698,-228.89 748,-228.89 748,-209.89 698,-209.89"/>
<text text-anchor="middle" x="723" y="-216.89" font-family="Helvetica,sans-Serif" font-size="10.00">uint8_t</text>
</a>
</g>
</g>
<!-- Node16&#45;&gt;Node1 -->
<g id="edge16" class="edge">
<title>Node16&#45;&gt;Node1</title>
<path fill="none" stroke="#9a32cd" stroke-dasharray="5,2" d="M758,-213.74C807.76,-207.16 901.98,-201.25 971,-236.39 1010.78,-256.64 1038.87,-305.23 1049.4,-325.87"/>
<polygon fill="#9a32cd" stroke="#9a32cd" points="757.49,-210.27 748.08,-215.14 758.47,-217.2 757.49,-210.27"/>
<text text-anchor="middle" x="901.5" y="-250.39" font-family="Helvetica,sans-Serif" font-size="10.00"> MaxInterleaveFactor</text>
<text text-anchor="middle" x="901.5" y="-239.39" font-family="Helvetica,sans-Serif" font-size="10.00">VectorInsertExtractBaseCost</text>
</g>
<!-- Node17 -->
<g id="node17" class="node">
<title>Node17</title>
<g id="a_node17"><a xlink:title=" ">
<polygon fill="none" stroke="#bfbfbf" points="632,-171.89 632,-190.89 814,-190.89 814,-171.89 632,-171.89"/>
<text text-anchor="middle" x="723" y="-178.89" font-family="Helvetica,sans-Serif" font-size="10.00">unique_ptr&lt; llvm::CallLowering &gt;</text>
</a>
</g>
</g>
<!-- Node17&#45;&gt;Node1 -->
<g id="edge17" class="edge">
<title>Node17&#45;&gt;Node1</title>
<path fill="none" stroke="#9a32cd" stroke-dasharray="5,2" d="M776.73,-170.26C829.8,-162.02 912.03,-157.63 971,-193.39 1021.78,-224.19 1044.84,-298.69 1051.7,-325.54"/>
<polygon fill="#9a32cd" stroke="#9a32cd" points="776.14,-166.81 766.85,-171.89 777.28,-173.72 776.14,-166.81"/>
<text text-anchor="middle" x="901.5" y="-196.39" font-family="Helvetica,sans-Serif" font-size="10.00"> CallLoweringInfo</text>
</g>
<!-- Node18 -->
<g id="node18" class="node">
<title>Node18</title>
<g id="a_node18"><a xlink:href="classllvm_1_1AArch64FrameLowering.html" target="_top" xlink:title=" ">
<polygon fill="none" stroke="black" points="643,-133.89 643,-152.89 803,-152.89 803,-133.89 643,-133.89"/>
<text text-anchor="middle" x="723" y="-140.89" font-family="Helvetica,sans-Serif" font-size="10.00">llvm::AArch64FrameLowering</text>
</a>
</g>
</g>
<!-- Node18&#45;&gt;Node1 -->
<g id="edge18" class="edge">
<title>Node18&#45;&gt;Node1</title>
<path fill="none" stroke="#9a32cd" stroke-dasharray="5,2" d="M813.4,-135.79C873.37,-132.51 945.82,-132.62 971,-149.39 1034.27,-191.54 1049.81,-294.09 1053.16,-325.85"/>
<polygon fill="#9a32cd" stroke="#9a32cd" points="812.91,-132.32 803.13,-136.39 813.32,-139.3 812.91,-132.32"/>
<text text-anchor="middle" x="901.5" y="-152.39" font-family="Helvetica,sans-Serif" font-size="10.00"> FrameLowering</text>
</g>
<!-- Node19 -->
<g id="node19" class="node">
<title>Node19</title>
<g id="a_node19"><a xlink:href="classllvm_1_1TargetFrameLowering.html" target="_top" xlink:title="Information about stack frame layout on the target.">
<polygon fill="none" stroke="black" points="440.5,-133.89 440.5,-152.89 589.5,-152.89 589.5,-133.89 440.5,-133.89"/>
<text text-anchor="middle" x="515" y="-140.89" font-family="Helvetica,sans-Serif" font-size="10.00">llvm::TargetFrameLowering</text>
</a>
</g>
</g>
<!-- Node19&#45;&gt;Node18 -->
<g id="edge19" class="edge">
<title>Node19&#45;&gt;Node18</title>
<path fill="none" stroke="midnightblue" d="M599.99,-143.39C614.14,-143.39 628.78,-143.39 642.8,-143.39"/>
<polygon fill="midnightblue" stroke="midnightblue" points="599.79,-139.89 589.79,-143.39 599.79,-146.89 599.79,-139.89"/>
</g>
<!-- Node20 -->
<g id="node20" class="node">
<title>Node20</title>
<g id="a_node20"><a xlink:href="classllvm_1_1Triple.html" target="_top" xlink:title="Triple &#45; Helper class for working with autoconf configuration names.">
<polygon fill="none" stroke="black" points="687.5,-95.89 687.5,-114.89 758.5,-114.89 758.5,-95.89 687.5,-95.89"/>
<text text-anchor="middle" x="723" y="-102.89" font-family="Helvetica,sans-Serif" font-size="10.00">llvm::Triple</text>
</a>
</g>
</g>
<!-- Node20&#45;&gt;Node1 -->
<g id="edge20" class="edge">
<title>Node20&#45;&gt;Node1</title>
<path fill="none" stroke="#9a32cd" stroke-dasharray="5,2" d="M768.43,-94.36C821.88,-83.85 911.79,-75.31 971,-118.39 1042.1,-170.13 1052.3,-291.11 1053.76,-325.89"/>
<polygon fill="#9a32cd" stroke="#9a32cd" points="767.65,-90.95 758.57,-96.4 769.07,-97.8 767.65,-90.95"/>
<text text-anchor="middle" x="901.5" y="-121.39" font-family="Helvetica,sans-Serif" font-size="10.00"> TargetTriple</text>
</g>
<!-- Node21 -->
<g id="node21" class="node">
<title>Node21</title>
<g id="a_node21"><a xlink:href="classllvm_1_1AArch64InstrInfo.html" target="_top" xlink:title=" ">
<polygon fill="none" stroke="black" points="660.5,-57.89 660.5,-76.89 785.5,-76.89 785.5,-57.89 660.5,-57.89"/>
<text text-anchor="middle" x="723" y="-64.89" font-family="Helvetica,sans-Serif" font-size="10.00">llvm::AArch64InstrInfo</text>
</a>
</g>
</g>
<!-- Node21&#45;&gt;Node1 -->
<g id="edge22" class="edge">
<title>Node21&#45;&gt;Node1</title>
<path fill="none" stroke="#9a32cd" stroke-dasharray="5,2" d="M795.86,-59.87C858.81,-54.86 944.29,-52.39 971,-72.39 1055.9,-135.95 1056.02,-286.41 1054.51,-325.81"/>
<polygon fill="#9a32cd" stroke="#9a32cd" points="795.25,-56.41 785.57,-60.72 795.83,-63.38 795.25,-56.41"/>
<text text-anchor="middle" x="901.5" y="-75.39" font-family="Helvetica,sans-Serif" font-size="10.00"> InstrInfo</text>
</g>
<!-- Node22 -->
<g id="node22" class="node">
<title>Node22</title>
<g id="a_node22"><a xlink:href="classAArch64GenInstrInfo.html" target="_top" xlink:title=" ">
<polygon fill="none" stroke="black" points="456.5,-57.89 456.5,-76.89 573.5,-76.89 573.5,-57.89 456.5,-57.89"/>
<text text-anchor="middle" x="515" y="-64.89" font-family="Helvetica,sans-Serif" font-size="10.00">AArch64GenInstrInfo</text>
</a>
</g>
</g>
<!-- Node22&#45;&gt;Node21 -->
<g id="edge23" class="edge">
<title>Node22&#45;&gt;Node21</title>
<path fill="none" stroke="midnightblue" d="M583.68,-67.39C608.41,-67.39 636.23,-67.39 660.39,-67.39"/>
<polygon fill="midnightblue" stroke="midnightblue" points="583.66,-63.89 573.66,-67.39 583.66,-70.89 583.66,-63.89"/>
</g>
<!-- Node23 -->
<g id="node23" class="node">
<title>Node23</title>
<g id="a_node23"><a xlink:href="classllvm_1_1BitVector.html" target="_top" xlink:title=" ">
<polygon fill="none" stroke="black" points="678.5,-18.89 678.5,-37.89 767.5,-37.89 767.5,-18.89 678.5,-18.89"/>
<text text-anchor="middle" x="723" y="-25.89" font-family="Helvetica,sans-Serif" font-size="10.00">llvm::BitVector</text>
</a>
</g>
</g>
<!-- Node23&#45;&gt;Node1 -->
<g id="edge24" class="edge">
<title>Node23&#45;&gt;Node1</title>
<path fill="none" stroke="#9a32cd" stroke-dasharray="5,2" d="M761.54,-15.98C814.21,-1.13 910.37,16.33 971,-30.39 1020.23,-68.33 1047.32,-277.89 1052.91,-325.69"/>
<polygon fill="#9a32cd" stroke="#9a32cd" points="760.53,-12.63 751.92,-18.81 762.5,-19.35 760.53,-12.63"/>
<text text-anchor="middle" x="901.5" y="-44.39" font-family="Helvetica,sans-Serif" font-size="10.00"> ReserveXRegister</text>
<text text-anchor="middle" x="901.5" y="-33.39" font-family="Helvetica,sans-Serif" font-size="10.00">CustomCallSavedXRegs</text>
</g>
</g>
</svg>
