<?xml version="1.0" encoding="UTF-8" standalone="no"?>
<!DOCTYPE svg PUBLIC "-//W3C//DTD SVG 1.1//EN"
 "http://www.w3.org/Graphics/SVG/1.1/DTD/svg11.dtd">
<!-- Generated by graphviz version 2.43.0 (0)
 -->
<!-- Title: llvm::object::MachOChainedFixupEntry Pages: 1 -->
<svg width="618pt" height="263pt"
 viewBox="0.00 0.00 617.50 263.00" xmlns="http://www.w3.org/2000/svg" xmlns:xlink="http://www.w3.org/1999/xlink">
<g id="graph0" class="graph" transform="scale(1 1) rotate(0) translate(4 259)">
<title>llvm::object::MachOChainedFixupEntry</title>
<!-- Node1 -->
<g id="node1" class="node">
<title>Node1</title>
<g id="a_node1"><a xlink:title=" ">
<polygon fill="#bfbfbf" stroke="black" points="232,-0.5 232,-30.5 386,-30.5 386,-0.5 232,-0.5"/>
<text text-anchor="start" x="240" y="-18.5" font-family="Helvetica,sans-Serif" font-size="10.00">llvm::object::MachOChained</text>
<text text-anchor="middle" x="309" y="-7.5" font-family="Helvetica,sans-Serif" font-size="10.00">FixupEntry</text>
</a>
</g>
</g>
<!-- Node2 -->
<g id="node2" class="node">
<title>Node2</title>
<g id="a_node2"><a xlink:href="classllvm_1_1object_1_1MachOAbstractFixupEntry.html" target="_top" xlink:title="MachOAbstractFixupEntry is an abstract class representing a fixup in a MH_DYLDLINK file.">
<polygon fill="none" stroke="black" points="231.5,-68.5 231.5,-98.5 386.5,-98.5 386.5,-68.5 231.5,-68.5"/>
<text text-anchor="start" x="239.5" y="-86.5" font-family="Helvetica,sans-Serif" font-size="10.00">llvm::object::MachOAbstract</text>
<text text-anchor="middle" x="309" y="-75.5" font-family="Helvetica,sans-Serif" font-size="10.00">FixupEntry</text>
</a>
</g>
</g>
<!-- Node2&#45;&gt;Node1 -->
<g id="edge1" class="edge">
<title>Node2&#45;&gt;Node1</title>
<path fill="none" stroke="midnightblue" d="M309,-58.03C309,-48.86 309,-38.74 309,-30.79"/>
<polygon fill="midnightblue" stroke="midnightblue" points="305.5,-58.18 309,-68.18 312.5,-58.18 305.5,-58.18"/>
</g>
<!-- Node3 -->
<g id="node3" class="node">
<title>Node3</title>
<g id="a_node3"><a xlink:href="classuint64__t.html" target="_top" xlink:title=" ">
<polygon fill="none" stroke="black" points="0,-168.5 0,-187.5 56,-187.5 56,-168.5 0,-168.5"/>
<text text-anchor="middle" x="28" y="-175.5" font-family="Helvetica,sans-Serif" font-size="10.00">uint64_t</text>
</a>
</g>
</g>
<!-- Node3&#45;&gt;Node2 -->
<g id="edge2" class="edge">
<title>Node3&#45;&gt;Node2</title>
<path fill="none" stroke="#9a32cd" stroke-dasharray="5,2" d="M30.11,-158.22C32.68,-144.6 38.38,-126.9 51,-117 78.31,-95.58 165.88,-88.17 231.47,-85.66"/>
<polygon fill="#9a32cd" stroke="#9a32cd" points="26.6,-158.03 28.6,-168.44 33.52,-159.06 26.6,-158.03"/>
<text text-anchor="middle" x="87.5" y="-142" font-family="Helvetica,sans-Serif" font-size="10.00"> PointerValue</text>
<text text-anchor="middle" x="87.5" y="-131" font-family="Helvetica,sans-Serif" font-size="10.00">SegmentOffset</text>
<text text-anchor="middle" x="87.5" y="-120" font-family="Helvetica,sans-Serif" font-size="10.00">RawValue</text>
</g>
<!-- Node4 -->
<g id="node4" class="node">
<title>Node4</title>
<g id="a_node4"><a xlink:title=" ">
<polygon fill="none" stroke="#bfbfbf" points="97,-168.5 97,-187.5 147,-187.5 147,-168.5 97,-168.5"/>
<text text-anchor="middle" x="122" y="-175.5" font-family="Helvetica,sans-Serif" font-size="10.00">int64_t</text>
</a>
</g>
</g>
<!-- Node4&#45;&gt;Node2 -->
<g id="edge3" class="edge">
<title>Node4&#45;&gt;Node2</title>
<path fill="none" stroke="#9a32cd" stroke-dasharray="5,2" d="M124.74,-158.01C127.69,-144.58 133.73,-127.2 146,-117 159.31,-105.93 195.96,-98.1 231.14,-92.9"/>
<polygon fill="#9a32cd" stroke="#9a32cd" points="121.25,-157.67 122.92,-168.13 128.13,-158.91 121.25,-157.67"/>
<text text-anchor="middle" x="166" y="-131" font-family="Helvetica,sans-Serif" font-size="10.00"> Addend</text>
</g>
<!-- Node5 -->
<g id="node5" class="node">
<title>Node5</title>
<g id="a_node5"><a xlink:title=" ">
<polygon fill="none" stroke="#bfbfbf" points="165,-168.5 165,-187.5 215,-187.5 215,-168.5 165,-168.5"/>
<text text-anchor="middle" x="190" y="-175.5" font-family="Helvetica,sans-Serif" font-size="10.00">int32_t</text>
</a>
</g>
</g>
<!-- Node5&#45;&gt;Node2 -->
<g id="edge4" class="edge">
<title>Node5&#45;&gt;Node2</title>
<path fill="none" stroke="#9a32cd" stroke-dasharray="5,2" d="M188.64,-158.23C188.73,-145.14 191.06,-128.11 201,-117 209.23,-107.81 219.94,-101.17 231.43,-96.39"/>
<polygon fill="#9a32cd" stroke="#9a32cd" points="185.15,-158.59 189,-168.46 192.14,-158.34 185.15,-158.59"/>
<text text-anchor="middle" x="236.5" y="-136.5" font-family="Helvetica,sans-Serif" font-size="10.00"> Ordinal</text>
<text text-anchor="middle" x="236.5" y="-125.5" font-family="Helvetica,sans-Serif" font-size="10.00">SegmentIndex</text>
</g>
<!-- Node6 -->
<g id="node6" class="node">
<title>Node6</title>
<g id="a_node6"><a xlink:href="classuint32__t.html" target="_top" xlink:title=" ">
<polygon fill="none" stroke="black" points="243,-168.5 243,-187.5 299,-187.5 299,-168.5 243,-168.5"/>
<text text-anchor="middle" x="271" y="-175.5" font-family="Helvetica,sans-Serif" font-size="10.00">uint32_t</text>
</a>
</g>
</g>
<!-- Node6&#45;&gt;Node2 -->
<g id="edge5" class="edge">
<title>Node6&#45;&gt;Node2</title>
<path fill="none" stroke="#9a32cd" stroke-dasharray="5,2" d="M273.31,-158.59C275.32,-146.38 278.89,-130.23 285,-117 288,-110.5 292.42,-104.03 296.65,-98.58"/>
<polygon fill="#9a32cd" stroke="#9a32cd" points="269.85,-158.1 271.88,-168.5 276.77,-159.1 269.85,-158.1"/>
<text text-anchor="middle" x="300" y="-131" font-family="Helvetica,sans-Serif" font-size="10.00"> Flags</text>
</g>
<!-- Node7 -->
<g id="node7" class="node">
<title>Node7</title>
<g id="a_node7"><a xlink:title=" ">
<polygon fill="none" stroke="#bfbfbf" points="317,-168.5 317,-187.5 355,-187.5 355,-168.5 317,-168.5"/>
<text text-anchor="middle" x="336" y="-175.5" font-family="Helvetica,sans-Serif" font-size="10.00">bool</text>
</a>
</g>
</g>
<!-- Node7&#45;&gt;Node2 -->
<g id="edge6" class="edge">
<title>Node7&#45;&gt;Node2</title>
<path fill="none" stroke="#9a32cd" stroke-dasharray="5,2" d="M330.68,-158.79C325.54,-141.17 317.85,-114.82 313.14,-98.7"/>
<polygon fill="#9a32cd" stroke="#9a32cd" points="327.35,-159.84 333.51,-168.46 334.07,-157.88 327.35,-159.84"/>
<text text-anchor="middle" x="343.5" y="-131" font-family="Helvetica,sans-Serif" font-size="10.00"> Done</text>
</g>
<!-- Node8 -->
<g id="node8" class="node">
<title>Node8</title>
<g id="a_node8"><a xlink:href="classllvm_1_1Error.html" target="_top" xlink:title="Lightweight error class with error context and mandatory checking.">
<polygon fill="none" stroke="black" points="373,-168.5 373,-187.5 441,-187.5 441,-168.5 373,-168.5"/>
<text text-anchor="middle" x="407" y="-175.5" font-family="Helvetica,sans-Serif" font-size="10.00">llvm::Error</text>
</a>
</g>
</g>
<!-- Node8&#45;&gt;Node2 -->
<g id="edge7" class="edge">
<title>Node8&#45;&gt;Node2</title>
<path fill="none" stroke="#9a32cd" stroke-dasharray="5,2" d="M396.56,-159.69C388.27,-146.9 375.81,-129.58 362,-117 354.34,-110.02 344.97,-103.71 336.25,-98.54"/>
<polygon fill="#9a32cd" stroke="#9a32cd" points="393.77,-161.83 402.04,-168.45 399.7,-158.11 393.77,-161.83"/>
<text text-anchor="middle" x="395" y="-131" font-family="Helvetica,sans-Serif" font-size="10.00"> E</text>
</g>
<!-- Node9 -->
<g id="node9" class="node">
<title>Node9</title>
<g id="a_node9"><a xlink:title=" ">
<polygon fill="none" stroke="#bfbfbf" points="459.5,-168.5 459.5,-187.5 502.5,-187.5 502.5,-168.5 459.5,-168.5"/>
<text text-anchor="middle" x="481" y="-175.5" font-family="Helvetica,sans-Serif" font-size="10.00">const</text>
</a>
</g>
</g>
<!-- Node9&#45;&gt;Node2 -->
<g id="edge8" class="edge">
<title>Node9&#45;&gt;Node2</title>
<path fill="none" stroke="#9a32cd" stroke-dasharray="5,2" d="M463.97,-161C449.09,-147.73 426.43,-129.13 404,-117 390.35,-109.62 374.71,-103.44 360.12,-98.52"/>
<polygon fill="#9a32cd" stroke="#9a32cd" points="462.02,-163.96 471.76,-168.11 466.73,-158.79 462.02,-163.96"/>
<text text-anchor="middle" x="455.5" y="-131" font-family="Helvetica,sans-Serif" font-size="10.00"> O</text>
</g>
<!-- Node10 -->
<g id="node10" class="node">
<title>Node10</title>
<g id="a_node10"><a xlink:href="classllvm_1_1StringRef.html" target="_top" xlink:title="StringRef &#45; Represent a constant reference to a string, i.e.">
<polygon fill="none" stroke="black" points="520.5,-168.5 520.5,-187.5 609.5,-187.5 609.5,-168.5 520.5,-168.5"/>
<text text-anchor="middle" x="565" y="-175.5" font-family="Helvetica,sans-Serif" font-size="10.00">llvm::StringRef</text>
</a>
</g>
</g>
<!-- Node10&#45;&gt;Node2 -->
<g id="edge9" class="edge">
<title>Node10&#45;&gt;Node2</title>
<path fill="none" stroke="#9a32cd" stroke-dasharray="5,2" d="M545.35,-162.47C525.89,-148.77 494.79,-128.65 465,-117 440.27,-107.32 412.15,-100.33 386.66,-95.38"/>
<polygon fill="#9a32cd" stroke="#9a32cd" points="543.5,-165.45 553.66,-168.44 547.58,-159.76 543.5,-165.45"/>
<text text-anchor="middle" x="561" y="-131" font-family="Helvetica,sans-Serif" font-size="10.00"> SymbolName</text>
</g>
<!-- Node11 -->
<g id="node11" class="node">
<title>Node11</title>
<g id="a_node11"><a xlink:href="classsize__t.html" target="_top" xlink:title=" ">
<polygon fill="none" stroke="black" points="542.5,-235.5 542.5,-254.5 587.5,-254.5 587.5,-235.5 542.5,-235.5"/>
<text text-anchor="middle" x="565" y="-242.5" font-family="Helvetica,sans-Serif" font-size="10.00">size_t</text>
</a>
</g>
</g>
<!-- Node11&#45;&gt;Node10 -->
<g id="edge10" class="edge">
<title>Node11&#45;&gt;Node10</title>
<path fill="none" stroke="#9a32cd" stroke-dasharray="5,2" d="M565,-225.04C565,-212.67 565,-197.12 565,-187.63"/>
<polygon fill="#9a32cd" stroke="#9a32cd" points="561.5,-225.23 565,-235.23 568.5,-225.23 561.5,-225.23"/>
<text text-anchor="middle" x="578.5" y="-209" font-family="Helvetica,sans-Serif" font-size="10.00"> npos</text>
</g>
</g>
</svg>
