<?xml version="1.0" encoding="UTF-8" standalone="no"?>
<!DOCTYPE svg PUBLIC "-//W3C//DTD SVG 1.1//EN"
 "http://www.w3.org/Graphics/SVG/1.1/DTD/svg11.dtd">
<!-- Generated by graphviz version 2.43.0 (0)
 -->
<!-- Title: llvm::AnyMemTransferInst Pages: 1 -->
<svg width="881pt" height="1188pt"
 viewBox="0.00 0.00 880.50 1188.00" xmlns="http://www.w3.org/2000/svg" xmlns:xlink="http://www.w3.org/1999/xlink">
<g id="graph0" class="graph" transform="scale(1 1) rotate(0) translate(4 1184)">
<title>llvm::AnyMemTransferInst</title>
<!-- Node1 -->
<g id="node1" class="node">
<title>Node1</title>
<g id="a_node1"><a xlink:title=" ">
<polygon fill="#bfbfbf" stroke="black" points="104,-57.5 104,-76.5 249,-76.5 249,-57.5 104,-57.5"/>
<text text-anchor="middle" x="176.5" y="-64.5" font-family="Helvetica,sans-Serif" font-size="10.00">llvm::AnyMemTransferInst</text>
</a>
</g>
</g>
<!-- Node27 -->
<g id="node27" class="node">
<title>Node27</title>
<g id="a_node27"><a xlink:href="classllvm_1_1AnyMemCpyInst.html" target="_top" xlink:title="This class represents any memcpy intrinsic i.e.">
<polygon fill="none" stroke="black" points="41,-0.5 41,-19.5 166,-19.5 166,-0.5 41,-0.5"/>
<text text-anchor="middle" x="103.5" y="-7.5" font-family="Helvetica,sans-Serif" font-size="10.00">llvm::AnyMemCpyInst</text>
</a>
</g>
</g>
<!-- Node1&#45;&gt;Node27 -->
<g id="edge30" class="edge">
<title>Node1&#45;&gt;Node27</title>
<path fill="none" stroke="midnightblue" d="M156.97,-51.29C143.6,-41.21 126.31,-28.19 115.07,-19.71"/>
<polygon fill="midnightblue" stroke="midnightblue" points="155,-54.18 165.09,-57.41 159.21,-48.59 155,-54.18"/>
</g>
<!-- Node28 -->
<g id="node28" class="node">
<title>Node28</title>
<g id="a_node28"><a xlink:href="classllvm_1_1AnyMemMoveInst.html" target="_top" xlink:title="This class represents any memmove intrinsic i.e.">
<polygon fill="none" stroke="black" points="184,-0.5 184,-19.5 317,-19.5 317,-0.5 184,-0.5"/>
<text text-anchor="middle" x="250.5" y="-7.5" font-family="Helvetica,sans-Serif" font-size="10.00">llvm::AnyMemMoveInst</text>
</a>
</g>
</g>
<!-- Node1&#45;&gt;Node28 -->
<g id="edge31" class="edge">
<title>Node1&#45;&gt;Node28</title>
<path fill="none" stroke="midnightblue" d="M196.3,-51.29C209.85,-41.21 227.38,-28.19 238.77,-19.71"/>
<polygon fill="midnightblue" stroke="midnightblue" points="194,-48.63 188.06,-57.41 198.18,-54.25 194,-48.63"/>
</g>
<!-- Node2 -->
<g id="node2" class="node">
<title>Node2</title>
<g id="a_node2"><a xlink:href="classllvm_1_1MemTransferBase.html" target="_top" xlink:title=" ">
<polygon fill="none" stroke="black" points="110.5,-114.5 110.5,-144.5 242.5,-144.5 242.5,-114.5 110.5,-114.5"/>
<text text-anchor="start" x="118.5" y="-132.5" font-family="Helvetica,sans-Serif" font-size="10.00">llvm::MemTransferBase</text>
<text text-anchor="middle" x="176.5" y="-121.5" font-family="Helvetica,sans-Serif" font-size="10.00">&lt; AnyMemIntrinsic &gt;</text>
</a>
</g>
</g>
<!-- Node2&#45;&gt;Node1 -->
<g id="edge1" class="edge">
<title>Node2&#45;&gt;Node1</title>
<path fill="none" stroke="midnightblue" d="M176.5,-104.35C176.5,-94.51 176.5,-83.78 176.5,-76.54"/>
<polygon fill="midnightblue" stroke="midnightblue" points="173,-104.47 176.5,-114.47 180,-104.47 173,-104.47"/>
</g>
<!-- Node3 -->
<g id="node3" class="node">
<title>Node3</title>
<g id="a_node3"><a xlink:href="classllvm_1_1AnyMemIntrinsic.html" target="_top" xlink:title=" ">
<polygon fill="none" stroke="black" points="40,-198 40,-217 167,-217 167,-198 40,-198"/>
<text text-anchor="middle" x="103.5" y="-205" font-family="Helvetica,sans-Serif" font-size="10.00">llvm::AnyMemIntrinsic</text>
</a>
</g>
</g>
<!-- Node3&#45;&gt;Node2 -->
<g id="edge2" class="edge">
<title>Node3&#45;&gt;Node2</title>
<path fill="none" stroke="midnightblue" d="M118.85,-190.52C131.92,-176.91 150.53,-157.54 163.03,-144.52"/>
<polygon fill="midnightblue" stroke="midnightblue" points="116.28,-188.15 111.87,-197.78 121.33,-192.99 116.28,-188.15"/>
</g>
<!-- Node4 -->
<g id="node4" class="node">
<title>Node4</title>
<g id="a_node4"><a xlink:href="classllvm_1_1MemIntrinsicBase.html" target="_top" xlink:title=" ">
<polygon fill="none" stroke="black" points="37.5,-260.5 37.5,-290.5 169.5,-290.5 169.5,-260.5 37.5,-260.5"/>
<text text-anchor="start" x="45.5" y="-278.5" font-family="Helvetica,sans-Serif" font-size="10.00">llvm::MemIntrinsicBase</text>
<text text-anchor="middle" x="103.5" y="-267.5" font-family="Helvetica,sans-Serif" font-size="10.00">&lt; AnyMemIntrinsic &gt;</text>
</a>
</g>
</g>
<!-- Node4&#45;&gt;Node3 -->
<g id="edge3" class="edge">
<title>Node4&#45;&gt;Node3</title>
<path fill="none" stroke="midnightblue" d="M103.5,-249.88C103.5,-238.47 103.5,-225.64 103.5,-217.33"/>
<polygon fill="midnightblue" stroke="midnightblue" points="100,-250.18 103.5,-260.18 107,-250.18 100,-250.18"/>
</g>
<!-- Node5 -->
<g id="node5" class="node">
<title>Node5</title>
<g id="a_node5"><a xlink:href="classllvm_1_1IntrinsicInst.html" target="_top" xlink:title="A wrapper class for inspecting calls to intrinsic functions.">
<polygon fill="none" stroke="black" points="49,-406.5 49,-425.5 150,-425.5 150,-406.5 49,-406.5"/>
<text text-anchor="middle" x="99.5" y="-413.5" font-family="Helvetica,sans-Serif" font-size="10.00">llvm::IntrinsicInst</text>
</a>
</g>
</g>
<!-- Node5&#45;&gt;Node4 -->
<g id="edge4" class="edge">
<title>Node5&#45;&gt;Node4</title>
<path fill="none" stroke="midnightblue" d="M100.04,-396.25C100.85,-368.19 102.36,-315.88 103.09,-290.73"/>
<polygon fill="midnightblue" stroke="midnightblue" points="96.54,-396.24 99.75,-406.34 103.54,-396.44 96.54,-396.24"/>
</g>
<!-- Node24 -->
<g id="node24" class="node">
<title>Node24</title>
<g id="a_node24"><a xlink:href="classllvm_1_1MemIntrinsicBase.html" target="_top" xlink:title="Common base class for all memory intrinsics.">
<polygon fill="none" stroke="black" points="115.5,-338.5 115.5,-368.5 247.5,-368.5 247.5,-338.5 115.5,-338.5"/>
<text text-anchor="start" x="123.5" y="-356.5" font-family="Helvetica,sans-Serif" font-size="10.00">llvm::MemIntrinsicBase</text>
<text text-anchor="middle" x="181.5" y="-345.5" font-family="Helvetica,sans-Serif" font-size="10.00">&lt; Derived &gt;</text>
</a>
</g>
</g>
<!-- Node5&#45;&gt;Node24 -->
<g id="edge27" class="edge">
<title>Node5&#45;&gt;Node24</title>
<path fill="none" stroke="midnightblue" d="M119.59,-400.18C132.67,-390.53 149.63,-378.01 162.49,-368.53"/>
<polygon fill="midnightblue" stroke="midnightblue" points="117.22,-397.58 111.25,-406.33 121.37,-403.21 117.22,-397.58"/>
</g>
<!-- Node6 -->
<g id="node6" class="node">
<title>Node6</title>
<g id="a_node6"><a xlink:href="classllvm_1_1CallInst.html" target="_top" xlink:title="This class represents a function call, abstracting a target machine&#39;s calling convention.">
<polygon fill="none" stroke="black" points="59,-463.5 59,-482.5 140,-482.5 140,-463.5 59,-463.5"/>
<text text-anchor="middle" x="99.5" y="-470.5" font-family="Helvetica,sans-Serif" font-size="10.00">llvm::CallInst</text>
</a>
</g>
</g>
<!-- Node6&#45;&gt;Node5 -->
<g id="edge5" class="edge">
<title>Node6&#45;&gt;Node5</title>
<path fill="none" stroke="midnightblue" d="M99.5,-453.12C99.5,-443.82 99.5,-433.06 99.5,-425.71"/>
<polygon fill="midnightblue" stroke="midnightblue" points="96,-453.41 99.5,-463.41 103,-453.41 96,-453.41"/>
</g>
<!-- Node7 -->
<g id="node7" class="node">
<title>Node7</title>
<g id="a_node7"><a xlink:href="classllvm_1_1CallBase.html" target="_top" xlink:title="Base class for all callable instructions (InvokeInst and CallInst) Holds everything related to callin...">
<polygon fill="none" stroke="black" points="56,-520.5 56,-539.5 143,-539.5 143,-520.5 56,-520.5"/>
<text text-anchor="middle" x="99.5" y="-527.5" font-family="Helvetica,sans-Serif" font-size="10.00">llvm::CallBase</text>
</a>
</g>
</g>
<!-- Node7&#45;&gt;Node6 -->
<g id="edge6" class="edge">
<title>Node7&#45;&gt;Node6</title>
<path fill="none" stroke="midnightblue" d="M99.5,-510.12C99.5,-500.82 99.5,-490.06 99.5,-482.71"/>
<polygon fill="midnightblue" stroke="midnightblue" points="96,-510.41 99.5,-520.41 103,-510.41 96,-510.41"/>
</g>
<!-- Node8 -->
<g id="node8" class="node">
<title>Node8</title>
<g id="a_node8"><a xlink:href="classllvm_1_1Instruction.html" target="_top" xlink:title=" ">
<polygon fill="none" stroke="black" points="51.5,-577.5 51.5,-596.5 147.5,-596.5 147.5,-577.5 51.5,-577.5"/>
<text text-anchor="middle" x="99.5" y="-584.5" font-family="Helvetica,sans-Serif" font-size="10.00">llvm::Instruction</text>
</a>
</g>
</g>
<!-- Node8&#45;&gt;Node7 -->
<g id="edge7" class="edge">
<title>Node8&#45;&gt;Node7</title>
<path fill="none" stroke="midnightblue" d="M99.5,-567.12C99.5,-557.82 99.5,-547.06 99.5,-539.71"/>
<polygon fill="midnightblue" stroke="midnightblue" points="96,-567.41 99.5,-577.41 103,-567.41 96,-567.41"/>
</g>
<!-- Node9 -->
<g id="node9" class="node">
<title>Node9</title>
<g id="a_node9"><a xlink:href="classllvm_1_1User.html" target="_top" xlink:title=" ">
<polygon fill="none" stroke="black" points="11,-645.5 11,-664.5 78,-664.5 78,-645.5 11,-645.5"/>
<text text-anchor="middle" x="44.5" y="-652.5" font-family="Helvetica,sans-Serif" font-size="10.00">llvm::User</text>
</a>
</g>
</g>
<!-- Node9&#45;&gt;Node8 -->
<g id="edge8" class="edge">
<title>Node9&#45;&gt;Node8</title>
<path fill="none" stroke="midnightblue" d="M58.1,-637.68C68.85,-624.78 83.45,-607.26 92.13,-596.84"/>
<polygon fill="midnightblue" stroke="midnightblue" points="55.4,-635.45 51.69,-645.37 60.78,-639.93 55.4,-635.45"/>
</g>
<!-- Node10 -->
<g id="node10" class="node">
<title>Node10</title>
<g id="a_node10"><a xlink:href="classllvm_1_1Value.html" target="_top" xlink:title="LLVM Value Representation.">
<polygon fill="none" stroke="black" points="0,-734.5 0,-753.5 71,-753.5 71,-734.5 0,-734.5"/>
<text text-anchor="middle" x="35.5" y="-741.5" font-family="Helvetica,sans-Serif" font-size="10.00">llvm::Value</text>
</a>
</g>
</g>
<!-- Node10&#45;&gt;Node9 -->
<g id="edge9" class="edge">
<title>Node10&#45;&gt;Node9</title>
<path fill="none" stroke="midnightblue" d="M37.45,-724.19C39.35,-705.74 42.18,-678.41 43.61,-664.62"/>
<polygon fill="midnightblue" stroke="midnightblue" points="33.94,-724.03 36.4,-734.34 40.91,-724.75 33.94,-724.03"/>
</g>
<!-- Node11 -->
<g id="node11" class="node">
<title>Node11</title>
<g id="a_node11"><a xlink:href="classllvm_1_1ilist__node__with__parent.html" target="_top" xlink:title=" ">
<polygon fill="none" stroke="black" points="105,-634.5 105,-675.5 224,-675.5 224,-634.5 105,-634.5"/>
<text text-anchor="start" x="113" y="-663.5" font-family="Helvetica,sans-Serif" font-size="10.00">llvm::ilist_node_with</text>
<text text-anchor="start" x="113" y="-652.5" font-family="Helvetica,sans-Serif" font-size="10.00">_parent&lt; Instruction,</text>
<text text-anchor="middle" x="164.5" y="-641.5" font-family="Helvetica,sans-Serif" font-size="10.00"> BasicBlock &gt;</text>
</a>
</g>
</g>
<!-- Node11&#45;&gt;Node8 -->
<g id="edge10" class="edge">
<title>Node11&#45;&gt;Node8</title>
<path fill="none" stroke="midnightblue" d="M137.84,-626.93C127.23,-616.16 115.76,-604.51 108.15,-596.79"/>
<polygon fill="midnightblue" stroke="midnightblue" points="135.49,-629.53 145,-634.2 140.47,-624.62 135.49,-629.53"/>
</g>
<!-- Node12 -->
<g id="node12" class="node">
<title>Node12</title>
<g id="a_node12"><a xlink:href="classllvm_1_1ilist__node.html" target="_top" xlink:title=" ">
<polygon fill="none" stroke="black" points="247.5,-802.5 247.5,-832.5 405.5,-832.5 405.5,-802.5 247.5,-802.5"/>
<text text-anchor="start" x="255.5" y="-820.5" font-family="Helvetica,sans-Serif" font-size="10.00">llvm::ilist_node&lt; Instruction,</text>
<text text-anchor="middle" x="326.5" y="-809.5" font-family="Helvetica,sans-Serif" font-size="10.00"> Options... &gt;</text>
</a>
</g>
</g>
<!-- Node12&#45;&gt;Node11 -->
<g id="edge11" class="edge">
<title>Node12&#45;&gt;Node11</title>
<path fill="none" stroke="midnightblue" d="M329.45,-792.03C331.31,-764.65 329.76,-720.64 305.5,-694 285.02,-671.51 252.75,-661.75 224.26,-657.73"/>
<polygon fill="midnightblue" stroke="midnightblue" points="325.93,-792.05 328.54,-802.32 332.91,-792.66 325.93,-792.05"/>
</g>
<!-- Node13 -->
<g id="node13" class="node">
<title>Node13</title>
<g id="a_node13"><a xlink:href="classllvm_1_1ilist__node__impl.html" target="_top" xlink:title=" ">
<polygon fill="none" stroke="black" points="385,-948.5 385,-1000.5 538,-1000.5 538,-948.5 385,-948.5"/>
<text text-anchor="start" x="393" y="-988.5" font-family="Helvetica,sans-Serif" font-size="10.00">llvm::ilist_node_impl</text>
<text text-anchor="start" x="393" y="-977.5" font-family="Helvetica,sans-Serif" font-size="10.00">&lt; ilist_detail::compute</text>
<text text-anchor="start" x="393" y="-966.5" font-family="Helvetica,sans-Serif" font-size="10.00">_node_options&lt; Instruction,</text>
<text text-anchor="middle" x="461.5" y="-955.5" font-family="Helvetica,sans-Serif" font-size="10.00"> Options... &gt;::type &gt;</text>
</a>
</g>
</g>
<!-- Node13&#45;&gt;Node12 -->
<g id="edge12" class="edge">
<title>Node13&#45;&gt;Node12</title>
<path fill="none" stroke="midnightblue" d="M465.89,-937.93C467.18,-910.9 464.21,-874.48 443.5,-851 433.53,-839.7 420,-832.17 405.68,-827.2"/>
<polygon fill="midnightblue" stroke="midnightblue" points="462.39,-937.93 465.19,-948.15 469.37,-938.42 462.39,-937.93"/>
</g>
<!-- Node14 -->
<g id="node14" class="node">
<title>Node14</title>
<g id="a_node14"><a xlink:title=" ">
<polygon fill="none" stroke="#bfbfbf" points="704.5,-1070.5 704.5,-1122.5 872.5,-1122.5 872.5,-1070.5 704.5,-1070.5"/>
<text text-anchor="start" x="712.5" y="-1110.5" font-family="Helvetica,sans-Serif" font-size="10.00">ilist_detail::compute</text>
<text text-anchor="start" x="712.5" y="-1099.5" font-family="Helvetica,sans-Serif" font-size="10.00">_node_options::type </text>
<text text-anchor="start" x="712.5" y="-1088.5" font-family="Helvetica,sans-Serif" font-size="10.00">::node_base_type&lt; Instruction,</text>
<text text-anchor="middle" x="788.5" y="-1077.5" font-family="Helvetica,sans-Serif" font-size="10.00"> Options... &gt;</text>
</a>
</g>
</g>
<!-- Node14&#45;&gt;Node13 -->
<g id="edge13" class="edge">
<title>Node14&#45;&gt;Node13</title>
<path fill="none" stroke="#8b1a1a" d="M721.61,-1066.48C686.2,-1051.54 641.8,-1033.47 601.5,-1019 581.14,-1011.69 558.86,-1004.44 538.19,-998.01"/>
<polygon fill="#8b1a1a" stroke="#8b1a1a" points="720.31,-1069.73 730.88,-1070.41 723.04,-1063.29 720.31,-1069.73"/>
</g>
<!-- Node15 -->
<g id="node15" class="node">
<title>Node15</title>
<g id="a_node15"><a xlink:href="classllvm_1_1ilist__node__impl.html" target="_top" xlink:title="Implementation for an ilist node.">
<polygon fill="none" stroke="black" points="219,-1081.5 219,-1111.5 338,-1111.5 338,-1081.5 219,-1081.5"/>
<text text-anchor="start" x="227" y="-1099.5" font-family="Helvetica,sans-Serif" font-size="10.00">llvm::ilist_node_impl</text>
<text text-anchor="middle" x="278.5" y="-1088.5" font-family="Helvetica,sans-Serif" font-size="10.00">&lt; OptionsT &gt;</text>
</a>
</g>
</g>
<!-- Node15&#45;&gt;Node13 -->
<g id="edge14" class="edge">
<title>Node15&#45;&gt;Node13</title>
<path fill="none" stroke="orange" stroke-dasharray="5,2" d="M347.84,-1085.58C372.84,-1079.26 399.93,-1068.91 420.5,-1052 436.56,-1038.8 447.22,-1017.6 453.64,-1000.86"/>
<polygon fill="orange" stroke="orange" points="346.95,-1082.2 338.02,-1087.9 348.55,-1089.01 346.95,-1082.2"/>
<text text-anchor="start" x="444.5" y="-1044" font-family="Helvetica,sans-Serif" font-size="10.00"> &lt; ilist_detail::compute</text>
<text text-anchor="start" x="444.5" y="-1033" font-family="Helvetica,sans-Serif" font-size="10.00">_node_options&lt; Instruction,</text>
<text text-anchor="middle" x="513" y="-1022" font-family="Helvetica,sans-Serif" font-size="10.00"> Options... &gt;::type &gt;</text>
</g>
<!-- Node18 -->
<g id="node18" class="node">
<title>Node18</title>
<g id="a_node18"><a xlink:href="classllvm_1_1ilist__node__impl.html" target="_top" xlink:title=" ">
<polygon fill="none" stroke="black" points="210,-948.5 210,-1000.5 367,-1000.5 367,-948.5 210,-948.5"/>
<text text-anchor="start" x="218" y="-988.5" font-family="Helvetica,sans-Serif" font-size="10.00">llvm::ilist_node_impl</text>
<text text-anchor="start" x="218" y="-977.5" font-family="Helvetica,sans-Serif" font-size="10.00">&lt; ilist_detail::compute</text>
<text text-anchor="start" x="218" y="-966.5" font-family="Helvetica,sans-Serif" font-size="10.00">_node_options&lt; T, Options...</text>
<text text-anchor="middle" x="288.5" y="-955.5" font-family="Helvetica,sans-Serif" font-size="10.00"> &gt;::type &gt;</text>
</a>
</g>
</g>
<!-- Node15&#45;&gt;Node18 -->
<g id="edge19" class="edge">
<title>Node15&#45;&gt;Node18</title>
<path fill="none" stroke="orange" stroke-dasharray="5,2" d="M277.64,-1071.3C277.39,-1056.21 277.6,-1036.43 279.5,-1019 280.15,-1013.02 281.24,-1006.65 282.44,-1000.67"/>
<polygon fill="orange" stroke="orange" points="274.14,-1071.44 277.88,-1081.35 281.14,-1071.27 274.14,-1071.44"/>
<text text-anchor="start" x="279.5" y="-1044" font-family="Helvetica,sans-Serif" font-size="10.00"> &lt; ilist_detail::compute</text>
<text text-anchor="start" x="279.5" y="-1033" font-family="Helvetica,sans-Serif" font-size="10.00">_node_options&lt; T, Options...</text>
<text text-anchor="middle" x="350" y="-1022" font-family="Helvetica,sans-Serif" font-size="10.00"> &gt;::type &gt;</text>
</g>
<!-- Node22 -->
<g id="node22" class="node">
<title>Node22</title>
<g id="a_node22"><a xlink:href="classllvm_1_1ilist__node__impl.html" target="_top" xlink:title=" ">
<polygon fill="none" stroke="black" points="55,-948.5 55,-1000.5 192,-1000.5 192,-948.5 55,-948.5"/>
<text text-anchor="start" x="63" y="-988.5" font-family="Helvetica,sans-Serif" font-size="10.00">llvm::ilist_node_impl</text>
<text text-anchor="start" x="63" y="-977.5" font-family="Helvetica,sans-Serif" font-size="10.00">&lt; ilist_detail::compute</text>
<text text-anchor="start" x="63" y="-966.5" font-family="Helvetica,sans-Serif" font-size="10.00">_node_options&lt; NodeTy,</text>
<text text-anchor="middle" x="123.5" y="-955.5" font-family="Helvetica,sans-Serif" font-size="10.00"> Options... &gt;::type &gt;</text>
</a>
</g>
</g>
<!-- Node15&#45;&gt;Node22 -->
<g id="edge24" class="edge">
<title>Node15&#45;&gt;Node22</title>
<path fill="none" stroke="orange" stroke-dasharray="5,2" d="M213.6,-1078.57C187.76,-1070.73 161.92,-1061.15 152.5,-1052 138.43,-1038.35 131.11,-1017.19 127.34,-1000.58"/>
<polygon fill="orange" stroke="orange" points="212.89,-1082.01 223.47,-1081.49 214.87,-1075.3 212.89,-1082.01"/>
<text text-anchor="start" x="152.5" y="-1044" font-family="Helvetica,sans-Serif" font-size="10.00"> &lt; ilist_detail::compute</text>
<text text-anchor="start" x="152.5" y="-1033" font-family="Helvetica,sans-Serif" font-size="10.00">_node_options&lt; NodeTy,</text>
<text text-anchor="middle" x="213" y="-1022" font-family="Helvetica,sans-Serif" font-size="10.00"> Options... &gt;::type &gt;</text>
</g>
<!-- Node16 -->
<g id="node16" class="node">
<title>Node16</title>
<g id="a_node16"><a xlink:title=" ">
<polygon fill="none" stroke="#bfbfbf" points="206,-1160.5 206,-1179.5 351,-1179.5 351,-1160.5 206,-1160.5"/>
<text text-anchor="middle" x="278.5" y="-1167.5" font-family="Helvetica,sans-Serif" font-size="10.00">OptionsT::node_base_type</text>
</a>
</g>
</g>
<!-- Node16&#45;&gt;Node15 -->
<g id="edge15" class="edge">
<title>Node16&#45;&gt;Node15</title>
<path fill="none" stroke="#8b1a1a" d="M278.5,-1149.9C278.5,-1137.82 278.5,-1122.47 278.5,-1111.51"/>
<polygon fill="#8b1a1a" stroke="#8b1a1a" points="275,-1150.23 278.5,-1160.23 282,-1150.23 275,-1150.23"/>
</g>
<!-- Node17 -->
<g id="node17" class="node">
<title>Node17</title>
<g id="a_node17"><a xlink:href="classllvm_1_1ilist__node.html" target="_top" xlink:title=" ">
<polygon fill="none" stroke="black" points="232.5,-880.5 232.5,-910.5 344.5,-910.5 344.5,-880.5 232.5,-880.5"/>
<text text-anchor="start" x="240.5" y="-898.5" font-family="Helvetica,sans-Serif" font-size="10.00">llvm::ilist_node&lt; T,</text>
<text text-anchor="middle" x="288.5" y="-887.5" font-family="Helvetica,sans-Serif" font-size="10.00"> Options &gt;</text>
</a>
</g>
</g>
<!-- Node17&#45;&gt;Node12 -->
<g id="edge16" class="edge">
<title>Node17&#45;&gt;Node12</title>
<path fill="none" stroke="orange" stroke-dasharray="5,2" d="M300.15,-871.2C306.43,-858.64 313.98,-843.54 319.38,-832.73"/>
<polygon fill="orange" stroke="orange" points="296.99,-869.7 295.65,-880.2 303.25,-872.83 296.99,-869.7"/>
<text text-anchor="middle" x="374.5" y="-854" font-family="Helvetica,sans-Serif" font-size="10.00"> &lt; Instruction, Options... &gt;</text>
</g>
<!-- Node21 -->
<g id="node21" class="node">
<title>Node21</title>
<g id="a_node21"><a xlink:href="classllvm_1_1ilist__node.html" target="_top" xlink:title=" ">
<polygon fill="none" stroke="black" points="87.5,-802.5 87.5,-832.5 229.5,-832.5 229.5,-802.5 87.5,-802.5"/>
<text text-anchor="start" x="95.5" y="-820.5" font-family="Helvetica,sans-Serif" font-size="10.00">llvm::ilist_node&lt; NodeTy,</text>
<text text-anchor="middle" x="158.5" y="-809.5" font-family="Helvetica,sans-Serif" font-size="10.00"> Options... &gt;</text>
</a>
</g>
</g>
<!-- Node17&#45;&gt;Node21 -->
<g id="edge25" class="edge">
<title>Node17&#45;&gt;Node21</title>
<path fill="none" stroke="orange" stroke-dasharray="5,2" d="M222.76,-881.41C209.55,-876.76 196.4,-870.47 185.5,-862 175.81,-854.47 168.72,-842.42 164.25,-832.91"/>
<polygon fill="orange" stroke="orange" points="221.76,-884.77 232.35,-884.53 223.92,-878.11 221.76,-884.77"/>
<text text-anchor="middle" x="243" y="-854" font-family="Helvetica,sans-Serif" font-size="10.00"> &lt; NodeTy, Options... &gt;</text>
</g>
<!-- Node18&#45;&gt;Node17 -->
<g id="edge17" class="edge">
<title>Node18&#45;&gt;Node17</title>
<path fill="none" stroke="midnightblue" d="M288.5,-938.03C288.5,-928.38 288.5,-918.47 288.5,-910.75"/>
<polygon fill="midnightblue" stroke="midnightblue" points="285,-938.29 288.5,-948.29 292,-938.29 285,-938.29"/>
</g>
<!-- Node19 -->
<g id="node19" class="node">
<title>Node19</title>
<g id="a_node19"><a xlink:title=" ">
<polygon fill="none" stroke="#bfbfbf" points="503,-1076 503,-1117 686,-1117 686,-1076 503,-1076"/>
<text text-anchor="start" x="511" y="-1105" font-family="Helvetica,sans-Serif" font-size="10.00">ilist_detail::compute</text>
<text text-anchor="start" x="511" y="-1094" font-family="Helvetica,sans-Serif" font-size="10.00">_node_options::type </text>
<text text-anchor="middle" x="594.5" y="-1083" font-family="Helvetica,sans-Serif" font-size="10.00">::node_base_type&lt; T, Options... &gt;</text>
</a>
</g>
</g>
<!-- Node19&#45;&gt;Node18 -->
<g id="edge18" class="edge">
<title>Node19&#45;&gt;Node18</title>
<path fill="none" stroke="#8b1a1a" d="M597.07,-1065.66C596.73,-1049.51 593.19,-1030.56 580.5,-1019 546.86,-988.35 421.23,-1009.37 376.5,-1001 373.37,-1000.41 370.2,-999.77 367,-999.07"/>
<polygon fill="#8b1a1a" stroke="#8b1a1a" points="593.57,-1065.7 596.91,-1075.75 600.57,-1065.81 593.57,-1065.7"/>
</g>
<!-- Node20 -->
<g id="node20" class="node">
<title>Node20</title>
<g id="a_node20"><a xlink:href="classllvm_1_1ilist__node__with__parent.html" target="_top" xlink:title="An ilist node that can access its parent list.">
<polygon fill="none" stroke="black" points="89,-723.5 89,-764.5 240,-764.5 240,-723.5 89,-723.5"/>
<text text-anchor="start" x="97" y="-752.5" font-family="Helvetica,sans-Serif" font-size="10.00">llvm::ilist_node_with</text>
<text text-anchor="start" x="97" y="-741.5" font-family="Helvetica,sans-Serif" font-size="10.00">_parent&lt; NodeTy, ParentTy,</text>
<text text-anchor="middle" x="164.5" y="-730.5" font-family="Helvetica,sans-Serif" font-size="10.00"> Options &gt;</text>
</a>
</g>
</g>
<!-- Node20&#45;&gt;Node11 -->
<g id="edge20" class="edge">
<title>Node20&#45;&gt;Node11</title>
<path fill="none" stroke="orange" stroke-dasharray="5,2" d="M164.5,-712.94C164.5,-700.6 164.5,-686.66 164.5,-675.66"/>
<polygon fill="orange" stroke="orange" points="161,-713.26 164.5,-723.26 168,-713.26 161,-713.26"/>
<text text-anchor="middle" x="233" y="-697" font-family="Helvetica,sans-Serif" font-size="10.00"> &lt; Instruction, BasicBlock &gt;</text>
</g>
<!-- Node21&#45;&gt;Node20 -->
<g id="edge21" class="edge">
<title>Node21&#45;&gt;Node20</title>
<path fill="none" stroke="midnightblue" d="M160.52,-792.4C161.28,-783.32 162.14,-773.12 162.86,-764.51"/>
<polygon fill="midnightblue" stroke="midnightblue" points="157.03,-792.12 159.69,-802.37 164.01,-792.7 157.03,-792.12"/>
</g>
<!-- Node22&#45;&gt;Node21 -->
<g id="edge22" class="edge">
<title>Node22&#45;&gt;Node21</title>
<path fill="none" stroke="midnightblue" d="M131.42,-938.41C138.97,-904.98 149.96,-856.34 155.32,-832.6"/>
<polygon fill="midnightblue" stroke="midnightblue" points="127.99,-937.73 129.2,-948.25 134.82,-939.27 127.99,-937.73"/>
</g>
<!-- Node23 -->
<g id="node23" class="node">
<title>Node23</title>
<g id="a_node23"><a xlink:title=" ">
<polygon fill="none" stroke="#bfbfbf" points="25.5,-1070.5 25.5,-1122.5 177.5,-1122.5 177.5,-1070.5 25.5,-1070.5"/>
<text text-anchor="start" x="33.5" y="-1110.5" font-family="Helvetica,sans-Serif" font-size="10.00">ilist_detail::compute</text>
<text text-anchor="start" x="33.5" y="-1099.5" font-family="Helvetica,sans-Serif" font-size="10.00">_node_options::type </text>
<text text-anchor="start" x="33.5" y="-1088.5" font-family="Helvetica,sans-Serif" font-size="10.00">::node_base_type&lt; NodeTy,</text>
<text text-anchor="middle" x="101.5" y="-1077.5" font-family="Helvetica,sans-Serif" font-size="10.00"> Options... &gt;</text>
</a>
</g>
</g>
<!-- Node23&#45;&gt;Node22 -->
<g id="edge23" class="edge">
<title>Node23&#45;&gt;Node22</title>
<path fill="none" stroke="#8b1a1a" d="M107.92,-1060.38C110.3,-1047.38 113.02,-1032.52 115.5,-1019 116.58,-1013.11 117.75,-1006.77 118.84,-1000.8"/>
<polygon fill="#8b1a1a" stroke="#8b1a1a" points="104.45,-1059.88 106.1,-1070.35 111.34,-1061.14 104.45,-1059.88"/>
</g>
<!-- Node24&#45;&gt;Node4 -->
<g id="edge26" class="edge">
<title>Node24&#45;&gt;Node4</title>
<path fill="none" stroke="orange" stroke-dasharray="5,2" d="M159.47,-331.03C146.23,-318.13 129.74,-302.07 118.11,-290.73"/>
<polygon fill="orange" stroke="orange" points="157.22,-333.73 166.83,-338.2 162.11,-328.72 157.22,-333.73"/>
<text text-anchor="middle" x="202" y="-312" font-family="Helvetica,sans-Serif" font-size="10.00"> &lt; AnyMemIntrinsic &gt;</text>
</g>
<!-- Node25 -->
<g id="node25" class="node">
<title>Node25</title>
<g id="a_node25"><a xlink:href="classllvm_1_1MemTransferBase.html" target="_top" xlink:title="Common base class for all memory transfer intrinsics.">
<polygon fill="none" stroke="black" points="185.5,-192.5 185.5,-222.5 317.5,-222.5 317.5,-192.5 185.5,-192.5"/>
<text text-anchor="start" x="193.5" y="-210.5" font-family="Helvetica,sans-Serif" font-size="10.00">llvm::MemTransferBase</text>
<text text-anchor="middle" x="251.5" y="-199.5" font-family="Helvetica,sans-Serif" font-size="10.00">&lt; BaseCL &gt;</text>
</a>
</g>
</g>
<!-- Node25&#45;&gt;Node2 -->
<g id="edge28" class="edge">
<title>Node25&#45;&gt;Node2</title>
<path fill="none" stroke="orange" stroke-dasharray="5,2" d="M230.32,-185.03C217.58,-172.13 201.74,-156.07 190.54,-144.73"/>
<polygon fill="orange" stroke="orange" points="227.88,-187.55 237.39,-192.2 232.86,-182.63 227.88,-187.55"/>
<text text-anchor="middle" x="273" y="-166" font-family="Helvetica,sans-Serif" font-size="10.00"> &lt; AnyMemIntrinsic &gt;</text>
</g>
<!-- Node26 -->
<g id="node26" class="node">
<title>Node26</title>
<g id="a_node26"><a xlink:href="classBaseCL.html" target="_top" xlink:title=" ">
<polygon fill="none" stroke="black" points="225,-266 225,-285 278,-285 278,-266 225,-266"/>
<text text-anchor="middle" x="251.5" y="-273" font-family="Helvetica,sans-Serif" font-size="10.00">BaseCL</text>
</a>
</g>
</g>
<!-- Node26&#45;&gt;Node25 -->
<g id="edge29" class="edge">
<title>Node26&#45;&gt;Node25</title>
<path fill="none" stroke="midnightblue" d="M251.5,-255.67C251.5,-245.18 251.5,-232.32 251.5,-222.68"/>
<polygon fill="midnightblue" stroke="midnightblue" points="248,-255.87 251.5,-265.87 255,-255.87 248,-255.87"/>
</g>
</g>
</svg>
