<?xml version="1.0" encoding="UTF-8" standalone="no"?>
<!DOCTYPE svg PUBLIC "-//W3C//DTD SVG 1.1//EN"
 "http://www.w3.org/Graphics/SVG/1.1/DTD/svg11.dtd">
<!-- Generated by graphviz version 2.43.0 (0)
 -->
<!-- Title: llvm::TinyPtrVector&lt; EltTy &gt; Pages: 1 -->
<svg width="405pt" height="137pt"
 viewBox="0.00 0.00 405.00 137.00" xmlns="http://www.w3.org/2000/svg" xmlns:xlink="http://www.w3.org/1999/xlink">
<g id="graph0" class="graph" transform="scale(1 1) rotate(0) translate(4 133)">
<title>llvm::TinyPtrVector&lt; EltTy &gt;</title>
<!-- Node1 -->
<g id="node1" class="node">
<title>Node1</title>
<g id="a_node1"><a xlink:title="TinyPtrVector &#45; This class is specialized for cases where there are normally 0 or 1 element in a vect...">
<polygon fill="#bfbfbf" stroke="black" points="0,-49.5 0,-79.5 110,-79.5 110,-49.5 0,-49.5"/>
<text text-anchor="start" x="8" y="-67.5" font-family="Helvetica,sans-Serif" font-size="10.00">llvm::TinyPtrVector</text>
<text text-anchor="middle" x="55" y="-56.5" font-family="Helvetica,sans-Serif" font-size="10.00">&lt; EltTy &gt;</text>
</a>
</g>
</g>
<!-- Node2 -->
<g id="node2" class="node">
<title>Node2</title>
<g id="a_node2"><a xlink:href="classllvm_1_1TinyPtrVector.html" target="_top" xlink:title=" ">
<polygon fill="none" stroke="black" points="267,-98.5 267,-128.5 395,-128.5 395,-98.5 267,-98.5"/>
<text text-anchor="start" x="275" y="-116.5" font-family="Helvetica,sans-Serif" font-size="10.00">llvm::TinyPtrVector</text>
<text text-anchor="middle" x="331" y="-105.5" font-family="Helvetica,sans-Serif" font-size="10.00">&lt; llvm::MCSymbol * &gt;</text>
</a>
</g>
</g>
<!-- Node1&#45;&gt;Node2 -->
<g id="edge1" class="edge">
<title>Node1&#45;&gt;Node2</title>
<path fill="none" stroke="orange" stroke-dasharray="5,2" d="M120.03,-77.97C122.72,-78.5 125.38,-79.01 128,-79.5 174.31,-88.22 226.79,-97.02 266.66,-103.48"/>
<polygon fill="orange" stroke="orange" points="120.7,-74.54 110.21,-76.03 119.34,-81.4 120.7,-74.54"/>
<text text-anchor="middle" x="187.5" y="-102.5" font-family="Helvetica,sans-Serif" font-size="10.00"> &lt; llvm::MCSymbol * &gt;</text>
</g>
<!-- Node3 -->
<g id="node3" class="node">
<title>Node3</title>
<g id="a_node3"><a xlink:href="classllvm_1_1TinyPtrVector.html" target="_top" xlink:title=" ">
<polygon fill="none" stroke="black" points="265,-49.5 265,-79.5 397,-79.5 397,-49.5 265,-49.5"/>
<text text-anchor="start" x="273" y="-67.5" font-family="Helvetica,sans-Serif" font-size="10.00">llvm::TinyPtrVector</text>
<text text-anchor="middle" x="331" y="-56.5" font-family="Helvetica,sans-Serif" font-size="10.00">&lt; llvm::PointerIntPair &gt;</text>
</a>
</g>
</g>
<!-- Node1&#45;&gt;Node3 -->
<g id="edge2" class="edge">
<title>Node1&#45;&gt;Node3</title>
<path fill="none" stroke="orange" stroke-dasharray="5,2" d="M120.32,-64.5C163.86,-64.5 221.18,-64.5 264.88,-64.5"/>
<polygon fill="orange" stroke="orange" points="120.13,-61 110.13,-64.5 120.13,-68 120.13,-61"/>
<text text-anchor="middle" x="187.5" y="-67.5" font-family="Helvetica,sans-Serif" font-size="10.00"> &lt; llvm::PointerIntPair &gt;</text>
</g>
<!-- Node4 -->
<g id="node4" class="node">
<title>Node4</title>
<g id="a_node4"><a xlink:href="classllvm_1_1TinyPtrVector.html" target="_top" xlink:title=" ">
<polygon fill="none" stroke="black" points="273.5,-0.5 273.5,-30.5 388.5,-30.5 388.5,-0.5 273.5,-0.5"/>
<text text-anchor="start" x="281.5" y="-18.5" font-family="Helvetica,sans-Serif" font-size="10.00">llvm::TinyPtrVector</text>
<text text-anchor="middle" x="331" y="-7.5" font-family="Helvetica,sans-Serif" font-size="10.00">&lt; llvm::VPValue * &gt;</text>
</a>
</g>
</g>
<!-- Node1&#45;&gt;Node4 -->
<g id="edge3" class="edge">
<title>Node1&#45;&gt;Node4</title>
<path fill="none" stroke="orange" stroke-dasharray="5,2" d="M120.03,-51.03C122.72,-50.5 125.38,-49.99 128,-49.5 176.93,-40.29 232.75,-30.98 273.3,-24.44"/>
<polygon fill="orange" stroke="orange" points="119.34,-47.6 110.21,-52.97 120.7,-54.46 119.34,-47.6"/>
<text text-anchor="middle" x="187.5" y="-52.5" font-family="Helvetica,sans-Serif" font-size="10.00"> &lt; llvm::VPValue * &gt;</text>
</g>
</g>
</svg>
