<?xml version="1.0" encoding="UTF-8" standalone="no"?>
<!DOCTYPE svg PUBLIC "-//W3C//DTD SVG 1.1//EN"
 "http://www.w3.org/Graphics/SVG/1.1/DTD/svg11.dtd">
<!-- Generated by graphviz version 2.43.0 (0)
 -->
<!-- Title: llvm::orc::ObjectTransformLayer Pages: 1 -->
<svg width="261pt" height="274pt"
 viewBox="0.00 0.00 261.00 274.00" xmlns="http://www.w3.org/2000/svg" xmlns:xlink="http://www.w3.org/1999/xlink">
<g id="graph0" class="graph" transform="scale(1 1) rotate(0) translate(4 270)">
<title>llvm::orc::ObjectTransformLayer</title>
<!-- Node1 -->
<g id="node1" class="node">
<title>Node1</title>
<g id="a_node1"><a xlink:title=" ">
<polygon fill="#bfbfbf" stroke="black" points="68,-0.5 68,-30.5 214,-30.5 214,-0.5 68,-0.5"/>
<text text-anchor="start" x="76" y="-18.5" font-family="Helvetica,sans-Serif" font-size="10.00">llvm::orc::ObjectTransform</text>
<text text-anchor="middle" x="141" y="-7.5" font-family="Helvetica,sans-Serif" font-size="10.00">Layer</text>
</a>
</g>
</g>
<!-- Node2 -->
<g id="node2" class="node">
<title>Node2</title>
<g id="a_node2"><a xlink:href="classllvm_1_1RTTIExtends.html" target="_top" xlink:title=" ">
<polygon fill="none" stroke="black" points="0,-78.5 0,-119.5 130,-119.5 130,-78.5 0,-78.5"/>
<text text-anchor="start" x="8" y="-107.5" font-family="Helvetica,sans-Serif" font-size="10.00">llvm::RTTIExtends&lt;</text>
<text text-anchor="start" x="8" y="-96.5" font-family="Helvetica,sans-Serif" font-size="10.00"> ObjectTransformLayer,</text>
<text text-anchor="middle" x="65" y="-85.5" font-family="Helvetica,sans-Serif" font-size="10.00"> ObjectLayer &gt;</text>
</a>
</g>
</g>
<!-- Node2&#45;&gt;Node1 -->
<g id="edge1" class="edge">
<title>Node2&#45;&gt;Node1</title>
<path fill="none" stroke="midnightblue" d="M90.47,-70.68C102.97,-57.28 117.51,-41.69 127.77,-30.68"/>
<polygon fill="midnightblue" stroke="midnightblue" points="87.66,-68.57 83.4,-78.27 92.78,-73.34 87.66,-68.57"/>
</g>
<!-- Node3 -->
<g id="node3" class="node">
<title>Node3</title>
<g id="a_node3"><a xlink:title=" ">
<polygon fill="none" stroke="#bfbfbf" points="11.5,-184 11.5,-203 86.5,-203 86.5,-184 11.5,-184"/>
<text text-anchor="middle" x="49" y="-191" font-family="Helvetica,sans-Serif" font-size="10.00">ObjectLayer</text>
</a>
</g>
</g>
<!-- Node3&#45;&gt;Node2 -->
<g id="edge2" class="edge">
<title>Node3&#45;&gt;Node2</title>
<path fill="none" stroke="midnightblue" d="M52.22,-173.91C54.93,-158.22 58.81,-135.81 61.58,-119.79"/>
<polygon fill="midnightblue" stroke="midnightblue" points="48.73,-173.51 50.48,-183.96 55.63,-174.71 48.73,-173.51"/>
</g>
<!-- Node4 -->
<g id="node4" class="node">
<title>Node4</title>
<g id="a_node4"><a xlink:href="classllvm_1_1RTTIExtends.html" target="_top" xlink:title="Inheritance utility for extensible RTTI.">
<polygon fill="none" stroke="black" points="104.5,-178.5 104.5,-208.5 217.5,-208.5 217.5,-178.5 104.5,-178.5"/>
<text text-anchor="start" x="112.5" y="-196.5" font-family="Helvetica,sans-Serif" font-size="10.00">llvm::RTTIExtends&lt;</text>
<text text-anchor="middle" x="161" y="-185.5" font-family="Helvetica,sans-Serif" font-size="10.00"> ThisT, ParentT &gt;</text>
</a>
</g>
</g>
<!-- Node4&#45;&gt;Node2 -->
<g id="edge3" class="edge">
<title>Node4&#45;&gt;Node2</title>
<path fill="none" stroke="orange" stroke-dasharray="5,2" d="M139.01,-171.31C122.89,-155.78 101.17,-134.85 85.43,-119.68"/>
<polygon fill="orange" stroke="orange" points="136.79,-174.03 146.42,-178.45 141.65,-168.99 136.79,-174.03"/>
<text text-anchor="start" x="128" y="-152" font-family="Helvetica,sans-Serif" font-size="10.00"> &lt; ObjectTransformLayer,</text>
<text text-anchor="middle" x="190.5" y="-141" font-family="Helvetica,sans-Serif" font-size="10.00"> ObjectLayer &gt;</text>
</g>
<!-- Node5 -->
<g id="node5" class="node">
<title>Node5</title>
<g id="a_node5"><a xlink:href="classParentT.html" target="_top" xlink:title=" ">
<polygon fill="none" stroke="black" points="134.5,-246.5 134.5,-265.5 187.5,-265.5 187.5,-246.5 134.5,-246.5"/>
<text text-anchor="middle" x="161" y="-253.5" font-family="Helvetica,sans-Serif" font-size="10.00">ParentT</text>
</a>
</g>
</g>
<!-- Node5&#45;&gt;Node4 -->
<g id="edge4" class="edge">
<title>Node5&#45;&gt;Node4</title>
<path fill="none" stroke="midnightblue" d="M161,-236.22C161,-227.36 161,-216.96 161,-208.76"/>
<polygon fill="midnightblue" stroke="midnightblue" points="157.5,-236.33 161,-246.33 164.5,-236.33 157.5,-236.33"/>
</g>
<!-- Node6 -->
<g id="node6" class="node">
<title>Node6</title>
<g id="a_node6"><a xlink:title=" ">
<polygon fill="none" stroke="#bfbfbf" points="148,-89.5 148,-108.5 186,-108.5 186,-89.5 148,-89.5"/>
<text text-anchor="middle" x="167" y="-96.5" font-family="Helvetica,sans-Serif" font-size="10.00">char</text>
</a>
</g>
</g>
<!-- Node6&#45;&gt;Node1 -->
<g id="edge5" class="edge">
<title>Node6&#45;&gt;Node1</title>
<path fill="none" stroke="#9a32cd" stroke-dasharray="5,2" d="M161.15,-79.66C156.41,-64.81 149.83,-44.18 145.5,-30.6"/>
<polygon fill="#9a32cd" stroke="#9a32cd" points="157.84,-80.81 164.22,-89.28 164.51,-78.69 157.84,-80.81"/>
<text text-anchor="middle" x="162" y="-52" font-family="Helvetica,sans-Serif" font-size="10.00"> ID</text>
</g>
</g>
</svg>
