<?xml version="1.0" encoding="UTF-8" standalone="no"?>
<!DOCTYPE svg PUBLIC "-//W3C//DTD SVG 1.1//EN"
 "http://www.w3.org/Graphics/SVG/1.1/DTD/svg11.dtd">
<!-- Generated by graphviz version 2.43.0 (0)
 -->
<!-- Title: include/llvm/IR/ConstantRange.h Pages: 1 -->
<svg width="3479pt" height="543pt"
 viewBox="0.00 0.00 3478.67 543.00" xmlns="http://www.w3.org/2000/svg" xmlns:xlink="http://www.w3.org/1999/xlink">
<g id="graph0" class="graph" transform="scale(1 1) rotate(0) translate(4 539)">
<title>include/llvm/IR/ConstantRange.h</title>
<!-- Node1 -->
<g id="node1" class="node">
<title>Node1</title>
<g id="a_node1"><a xlink:title=" ">
<polygon fill="#bfbfbf" stroke="black" points="413.67,-504.5 413.67,-534.5 549.67,-534.5 549.67,-504.5 413.67,-504.5"/>
<text text-anchor="start" x="421.67" y="-522.5" font-family="Helvetica,sans-Serif" font-size="10.00">include/llvm/IR/Constant</text>
<text text-anchor="middle" x="481.67" y="-511.5" font-family="Helvetica,sans-Serif" font-size="10.00">Range.h</text>
</a>
</g>
</g>
<!-- Node2 -->
<g id="node2" class="node">
<title>Node2</title>
<g id="a_node2"><a xlink:href="APInt_8h.html" target="_top" xlink:title=" ">
<polygon fill="none" stroke="black" points="44.17,-224.5 44.17,-243.5 143.17,-243.5 143.17,-224.5 44.17,-224.5"/>
<text text-anchor="middle" x="93.67" y="-231.5" font-family="Helvetica,sans-Serif" font-size="10.00">llvm/ADT/APInt.h</text>
</a>
</g>
</g>
<!-- Node1&#45;&gt;Node2 -->
<g id="edge1" class="edge">
<title>Node1&#45;&gt;Node2</title>
<path fill="none" stroke="midnightblue" d="M413.35,-517.46C333.95,-512.2 213.67,-489.89 213.67,-403 213.67,-403 213.67,-403 213.67,-345 213.67,-297.08 161.03,-264.38 125.48,-247.76"/>
<polygon fill="midnightblue" stroke="midnightblue" points="126.52,-244.4 115.96,-243.5 123.66,-250.78 126.52,-244.4"/>
</g>
<!-- Node3 -->
<g id="node3" class="node">
<title>Node3</title>
<g id="a_node3"><a xlink:href="Compiler_8h.html" target="_top" xlink:title=" ">
<polygon fill="none" stroke="black" points="775.67,-56.5 775.67,-75.5 909.67,-75.5 909.67,-56.5 775.67,-56.5"/>
<text text-anchor="middle" x="842.67" y="-63.5" font-family="Helvetica,sans-Serif" font-size="10.00">llvm/Support/Compiler.h</text>
</a>
</g>
</g>
<!-- Node1&#45;&gt;Node3 -->
<g id="edge185" class="edge">
<title>Node1&#45;&gt;Node3</title>
<path fill="none" stroke="midnightblue" d="M453.34,-504.42C420.75,-485.98 371.67,-450.35 371.67,-403 371.67,-403 371.67,-403 371.67,-233 371.67,-137.71 460.03,-146.97 548.67,-112 587.03,-96.87 691.99,-83.1 765.5,-74.88"/>
<polygon fill="midnightblue" stroke="midnightblue" points="766.09,-78.34 775.65,-73.76 765.32,-71.38 766.09,-78.34"/>
</g>
<!-- Node10 -->
<g id="node10" class="node">
<title>Node10</title>
<g id="a_node10"><a xlink:title=" ">
<polygon fill="none" stroke="#bfbfbf" points="1318.67,-112.5 1318.67,-131.5 1368.67,-131.5 1368.67,-112.5 1318.67,-112.5"/>
<text text-anchor="middle" x="1343.67" y="-119.5" font-family="Helvetica,sans-Serif" font-size="10.00">cstdint</text>
</a>
</g>
</g>
<!-- Node1&#45;&gt;Node10 -->
<g id="edge186" class="edge">
<title>Node1&#45;&gt;Node10</title>
<path fill="none" stroke="midnightblue" d="M494.34,-504.24C531.73,-463.03 646.57,-342.71 766.67,-280 864.73,-228.79 1199.43,-154.03 1308.79,-130.43"/>
<polygon fill="midnightblue" stroke="midnightblue" points="1309.61,-133.83 1318.65,-128.31 1308.14,-126.99 1309.61,-133.83"/>
</g>
<!-- Node15 -->
<g id="node15" class="node">
<title>Node15</title>
<g id="a_node15"><a xlink:href="InstrTypes_8h.html" target="_top" xlink:title=" ">
<polygon fill="none" stroke="black" points="2218.17,-448.5 2218.17,-467.5 2331.17,-467.5 2331.17,-448.5 2218.17,-448.5"/>
<text text-anchor="middle" x="2274.67" y="-455.5" font-family="Helvetica,sans-Serif" font-size="10.00">llvm/IR/InstrTypes.h</text>
</a>
</g>
</g>
<!-- Node1&#45;&gt;Node15 -->
<g id="edge18" class="edge">
<title>Node1&#45;&gt;Node15</title>
<path fill="none" stroke="midnightblue" d="M549.77,-516.24C834.27,-506.8 1926.06,-470.57 2207.94,-461.21"/>
<polygon fill="midnightblue" stroke="midnightblue" points="2208.14,-464.71 2218.02,-460.88 2207.91,-457.71 2208.14,-464.71"/>
</g>
<!-- Node96 -->
<g id="node45" class="node">
<title>Node96</title>
<g id="a_node45"><a xlink:href="IR_2Instruction_8h.html" target="_top" xlink:title=" ">
<polygon fill="none" stroke="black" points="1158.17,-336.5 1158.17,-355.5 1273.17,-355.5 1273.17,-336.5 1158.17,-336.5"/>
<text text-anchor="middle" x="1215.67" y="-343.5" font-family="Helvetica,sans-Serif" font-size="10.00">llvm/IR/Instruction.h</text>
</a>
</g>
</g>
<!-- Node1&#45;&gt;Node96 -->
<g id="edge184" class="edge">
<title>Node1&#45;&gt;Node96</title>
<path fill="none" stroke="midnightblue" d="M541.74,-504.47C684.41,-471.13 1041.27,-387.75 1169.16,-357.87"/>
<polygon fill="midnightblue" stroke="midnightblue" points="1170.09,-361.24 1179.04,-355.56 1168.5,-354.43 1170.09,-361.24"/>
</g>
<!-- Node2&#45;&gt;Node3 -->
<g id="edge2" class="edge">
<title>Node2&#45;&gt;Node3</title>
<path fill="none" stroke="midnightblue" d="M91.85,-224.33C87.71,-201.87 80.27,-141.48 112.67,-112 160.12,-68.83 587.52,-65.77 765.47,-66.4"/>
<polygon fill="midnightblue" stroke="midnightblue" points="765.53,-69.9 775.54,-66.44 765.56,-62.9 765.53,-69.9"/>
</g>
<!-- Node6 -->
<g id="node6" class="node">
<title>Node6</title>
<g id="a_node6"><a xlink:href="MathExtras_8h.html" target="_top" xlink:title=" ">
<polygon fill="none" stroke="black" points="197.67,-168.5 197.67,-187.5 343.67,-187.5 343.67,-168.5 197.67,-168.5"/>
<text text-anchor="middle" x="270.67" y="-175.5" font-family="Helvetica,sans-Serif" font-size="10.00">llvm/Support/MathExtras.h</text>
</a>
</g>
</g>
<!-- Node2&#45;&gt;Node6 -->
<g id="edge5" class="edge">
<title>Node2&#45;&gt;Node6</title>
<path fill="none" stroke="midnightblue" d="M121.72,-224.44C151.75,-215.28 199.58,-200.69 232.91,-190.52"/>
<polygon fill="midnightblue" stroke="midnightblue" points="234.21,-193.78 242.76,-187.52 232.17,-187.09 234.21,-193.78"/>
</g>
<!-- Node7 -->
<g id="node7" class="node">
<title>Node7</title>
<g id="a_node7"><a xlink:title=" ">
<polygon fill="none" stroke="#bfbfbf" points="2119.67,-0.5 2119.67,-19.5 2171.67,-19.5 2171.67,-0.5 2119.67,-0.5"/>
<text text-anchor="middle" x="2145.67" y="-7.5" font-family="Helvetica,sans-Serif" font-size="10.00">cassert</text>
</a>
</g>
</g>
<!-- Node2&#45;&gt;Node7 -->
<g id="edge14" class="edge">
<title>Node2&#45;&gt;Node7</title>
<path fill="none" stroke="midnightblue" d="M101.89,-224.45C124.28,-201.76 189.23,-139.81 256.67,-112 417.34,-45.74 470.52,-70.89 643.67,-56 1215.56,-6.82 1361.03,-40.23 1934.67,-20 1995.98,-17.84 2067.28,-14.66 2109.33,-12.71"/>
<polygon fill="midnightblue" stroke="midnightblue" points="2109.53,-16.21 2119.36,-12.25 2109.21,-9.22 2109.53,-16.21"/>
</g>
<!-- Node8 -->
<g id="node8" class="node">
<title>Node8</title>
<g id="a_node8"><a xlink:title=" ">
<polygon fill="none" stroke="#bfbfbf" points="121.67,-112.5 121.67,-131.5 171.67,-131.5 171.67,-112.5 121.67,-112.5"/>
<text text-anchor="middle" x="146.67" y="-119.5" font-family="Helvetica,sans-Serif" font-size="10.00">climits</text>
</a>
</g>
</g>
<!-- Node2&#45;&gt;Node8 -->
<g id="edge15" class="edge">
<title>Node2&#45;&gt;Node8</title>
<path fill="none" stroke="midnightblue" d="M97.83,-224.37C106.5,-206.38 126.65,-164.55 138.18,-140.63"/>
<polygon fill="midnightblue" stroke="midnightblue" points="141.34,-142.12 142.53,-131.59 135.04,-139.08 141.34,-142.12"/>
</g>
<!-- Node11 -->
<g id="node11" class="node">
<title>Node11</title>
<g id="a_node11"><a xlink:title=" ">
<polygon fill="none" stroke="#bfbfbf" points="392.67,-0.5 392.67,-19.5 442.67,-19.5 442.67,-0.5 392.67,-0.5"/>
<text text-anchor="middle" x="417.67" y="-7.5" font-family="Helvetica,sans-Serif" font-size="10.00">cstring</text>
</a>
</g>
</g>
<!-- Node2&#45;&gt;Node11 -->
<g id="edge16" class="edge">
<title>Node2&#45;&gt;Node11</title>
<path fill="none" stroke="midnightblue" d="M61.05,-224.47C29.29,-214.38 -12.07,-195.41 3.67,-168 81.6,-32.32 297.33,-13.15 382.46,-10.98"/>
<polygon fill="midnightblue" stroke="midnightblue" points="382.72,-14.48 392.65,-10.79 382.59,-7.48 382.72,-14.48"/>
</g>
<!-- Node14 -->
<g id="node14" class="node">
<title>Node14</title>
<g id="a_node14"><a xlink:title=" ">
<polygon fill="none" stroke="#bfbfbf" points="1547.17,-0.5 1547.17,-19.5 1592.17,-19.5 1592.17,-0.5 1547.17,-0.5"/>
<text text-anchor="middle" x="1569.67" y="-7.5" font-family="Helvetica,sans-Serif" font-size="10.00">utility</text>
</a>
</g>
</g>
<!-- Node2&#45;&gt;Node14 -->
<g id="edge17" class="edge">
<title>Node2&#45;&gt;Node14</title>
<path fill="none" stroke="midnightblue" d="M90.31,-224.4C82.22,-202.1 64.56,-142.09 95.67,-112 207.65,-3.71 286.67,-71.58 441.67,-56 873.14,-12.64 1401.39,-10.62 1536.82,-10.87"/>
<polygon fill="midnightblue" stroke="midnightblue" points="1536.95,-14.37 1546.95,-10.89 1536.96,-7.37 1536.95,-14.37"/>
</g>
<!-- Node4 -->
<g id="node4" class="node">
<title>Node4</title>
<g id="a_node4"><a xlink:title=" ">
<polygon fill="none" stroke="#bfbfbf" points="1786.17,-0.5 1786.17,-19.5 1925.17,-19.5 1925.17,-0.5 1786.17,-0.5"/>
<text text-anchor="middle" x="1855.67" y="-7.5" font-family="Helvetica,sans-Serif" font-size="10.00">llvm/Config/llvm&#45;config.h</text>
</a>
</g>
</g>
<!-- Node3&#45;&gt;Node4 -->
<g id="edge3" class="edge">
<title>Node3&#45;&gt;Node4</title>
<path fill="none" stroke="midnightblue" d="M909.92,-61.42C1089.97,-51.82 1582.42,-25.57 1776.01,-15.25"/>
<polygon fill="midnightblue" stroke="midnightblue" points="1776.31,-18.74 1786.11,-14.71 1775.94,-11.75 1776.31,-18.74"/>
</g>
<!-- Node5 -->
<g id="node5" class="node">
<title>Node5</title>
<g id="a_node5"><a xlink:title=" ">
<polygon fill="none" stroke="#bfbfbf" points="814.67,-0.5 814.67,-19.5 870.67,-19.5 870.67,-0.5 814.67,-0.5"/>
<text text-anchor="middle" x="842.67" y="-7.5" font-family="Helvetica,sans-Serif" font-size="10.00">stddef.h</text>
</a>
</g>
</g>
<!-- Node3&#45;&gt;Node5 -->
<g id="edge4" class="edge">
<title>Node3&#45;&gt;Node5</title>
<path fill="none" stroke="midnightblue" d="M842.67,-56.08C842.67,-49.01 842.67,-38.86 842.67,-29.99"/>
<polygon fill="midnightblue" stroke="midnightblue" points="846.17,-29.75 842.67,-19.75 839.17,-29.75 846.17,-29.75"/>
</g>
<!-- Node6&#45;&gt;Node3 -->
<g id="edge6" class="edge">
<title>Node6&#45;&gt;Node3</title>
<path fill="none" stroke="midnightblue" d="M298.57,-168.49C344.06,-154.87 437.23,-128.09 517.67,-112 601.57,-95.21 698.91,-82.63 765.03,-75.1"/>
<polygon fill="midnightblue" stroke="midnightblue" points="765.82,-78.54 775.37,-73.94 765.04,-71.58 765.82,-78.54"/>
</g>
<!-- Node6&#45;&gt;Node7 -->
<g id="edge7" class="edge">
<title>Node6&#45;&gt;Node7</title>
<path fill="none" stroke="midnightblue" d="M296.63,-168.45C369.62,-144.88 583.33,-79.23 766.67,-56 1281.91,9.27 1415.66,-39.07 1934.67,-20 1995.98,-17.75 2067.28,-14.59 2109.32,-12.68"/>
<polygon fill="midnightblue" stroke="midnightblue" points="2109.53,-16.18 2119.36,-12.22 2109.21,-9.18 2109.53,-16.18"/>
</g>
<!-- Node6&#45;&gt;Node8 -->
<g id="edge8" class="edge">
<title>Node6&#45;&gt;Node8</title>
<path fill="none" stroke="midnightblue" d="M251.02,-168.44C230.71,-159.6 198.77,-145.69 175.57,-135.59"/>
<polygon fill="midnightblue" stroke="midnightblue" points="176.79,-132.3 166.23,-131.52 174,-138.72 176.79,-132.3"/>
</g>
<!-- Node9 -->
<g id="node9" class="node">
<title>Node9</title>
<g id="a_node9"><a xlink:title=" ">
<polygon fill="none" stroke="#bfbfbf" points="266.17,-112.5 266.17,-131.5 313.17,-131.5 313.17,-112.5 266.17,-112.5"/>
<text text-anchor="middle" x="289.67" y="-119.5" font-family="Helvetica,sans-Serif" font-size="10.00">cmath</text>
</a>
</g>
</g>
<!-- Node6&#45;&gt;Node9 -->
<g id="edge9" class="edge">
<title>Node6&#45;&gt;Node9</title>
<path fill="none" stroke="midnightblue" d="M273.81,-168.08C276.35,-160.85 280.03,-150.41 283.2,-141.4"/>
<polygon fill="midnightblue" stroke="midnightblue" points="286.57,-142.35 286.59,-131.75 279.97,-140.02 286.57,-142.35"/>
</g>
<!-- Node6&#45;&gt;Node10 -->
<g id="edge10" class="edge">
<title>Node6&#45;&gt;Node10</title>
<path fill="none" stroke="midnightblue" d="M343.85,-174.74C544.59,-168.4 1101.11,-149.7 1283.67,-132 1291.78,-131.21 1300.47,-130.08 1308.64,-128.88"/>
<polygon fill="midnightblue" stroke="midnightblue" points="1309.28,-132.33 1318.64,-127.35 1308.22,-125.41 1309.28,-132.33"/>
</g>
<!-- Node6&#45;&gt;Node11 -->
<g id="edge11" class="edge">
<title>Node6&#45;&gt;Node11</title>
<path fill="none" stroke="midnightblue" d="M197.61,-172.82C147.6,-166.52 93.51,-150.84 112.67,-112 130.76,-75.33 148.38,-72.78 185.67,-56 251.1,-26.55 335.4,-16.34 382.26,-12.82"/>
<polygon fill="midnightblue" stroke="midnightblue" points="382.76,-16.29 392.5,-12.11 382.28,-9.31 382.76,-16.29"/>
</g>
<!-- Node12 -->
<g id="node12" class="node">
<title>Node12</title>
<g id="a_node12"><a xlink:title=" ">
<polygon fill="none" stroke="#bfbfbf" points="673.67,-112.5 673.67,-131.5 717.67,-131.5 717.67,-112.5 673.67,-112.5"/>
<text text-anchor="middle" x="695.67" y="-119.5" font-family="Helvetica,sans-Serif" font-size="10.00">limits</text>
</a>
</g>
</g>
<!-- Node6&#45;&gt;Node12 -->
<g id="edge12" class="edge">
<title>Node6&#45;&gt;Node12</title>
<path fill="none" stroke="midnightblue" d="M338.01,-168.44C430.66,-156.67 593.82,-135.94 663.09,-127.14"/>
<polygon fill="midnightblue" stroke="midnightblue" points="663.9,-130.56 673.38,-125.83 663.02,-123.62 663.9,-130.56"/>
</g>
<!-- Node13 -->
<g id="node13" class="node">
<title>Node13</title>
<g id="a_node13"><a xlink:title=" ">
<polygon fill="none" stroke="#bfbfbf" points="526.17,-0.5 526.17,-19.5 595.17,-19.5 595.17,-0.5 526.17,-0.5"/>
<text text-anchor="middle" x="560.67" y="-7.5" font-family="Helvetica,sans-Serif" font-size="10.00">type_traits</text>
</a>
</g>
</g>
<!-- Node6&#45;&gt;Node13 -->
<g id="edge13" class="edge">
<title>Node6&#45;&gt;Node13</title>
<path fill="none" stroke="midnightblue" d="M265.09,-168.34C257.42,-155.22 245.72,-129.93 256.67,-112 284.2,-66.91 438.27,-33.12 515.92,-18.69"/>
<polygon fill="midnightblue" stroke="midnightblue" points="516.7,-22.11 525.9,-16.87 515.44,-15.22 516.7,-22.11"/>
</g>
<!-- Node15&#45;&gt;Node7 -->
<g id="edge177" class="edge">
<title>Node15&#45;&gt;Node7</title>
<path fill="none" stroke="midnightblue" d="M2331.23,-457.53C2514,-458.76 3087.29,-458.7 3265.67,-412 3327.78,-395.74 3394.67,-411.2 3394.67,-347 3394.67,-347 3394.67,-347 3394.67,-233 3394.67,-99.64 3164.76,-67.08 3120.67,-56 3074.34,-44.35 2352.94,-18.3 2181.86,-12.27"/>
<polygon fill="midnightblue" stroke="midnightblue" points="2181.96,-8.77 2171.84,-11.91 2181.72,-15.76 2181.96,-8.77"/>
</g>
<!-- Node15&#45;&gt;Node10 -->
<g id="edge179" class="edge">
<title>Node15&#45;&gt;Node10</title>
<path fill="none" stroke="midnightblue" d="M2275.83,-448.37C2278.2,-427.02 2281.43,-370.9 2255.67,-336 2241.86,-317.29 2088.08,-255.15 2067.67,-244 2052.62,-235.78 2051.03,-229.16 2034.67,-224 1804.86,-151.49 1725.56,-253.54 1493.67,-188 1475.31,-182.81 1472.99,-176.01 1455.67,-168 1429.49,-155.89 1399.09,-143.8 1376.57,-135.2"/>
<polygon fill="midnightblue" stroke="midnightblue" points="1377.72,-131.89 1367.13,-131.62 1375.24,-138.44 1377.72,-131.89"/>
</g>
<!-- Node16 -->
<g id="node16" class="node">
<title>Node16</title>
<g id="a_node16"><a xlink:href="ArrayRef_8h.html" target="_top" xlink:title=" ">
<polygon fill="none" stroke="black" points="2363.67,-224.5 2363.67,-243.5 2479.67,-243.5 2479.67,-224.5 2363.67,-224.5"/>
<text text-anchor="middle" x="2421.67" y="-231.5" font-family="Helvetica,sans-Serif" font-size="10.00">llvm/ADT/ArrayRef.h</text>
</a>
</g>
</g>
<!-- Node15&#45;&gt;Node16 -->
<g id="edge19" class="edge">
<title>Node15&#45;&gt;Node16</title>
<path fill="none" stroke="midnightblue" d="M2331.4,-452.95C2361.88,-447.83 2397.8,-436.55 2420.67,-412 2461.43,-368.25 2461.67,-337.88 2446.67,-280 2444.12,-270.18 2438.92,-260.21 2433.91,-252.17"/>
<polygon fill="midnightblue" stroke="midnightblue" points="2436.75,-250.11 2428.3,-243.73 2430.92,-253.99 2436.75,-250.11"/>
</g>
<!-- Node28 -->
<g id="node18" class="node">
<title>Node28</title>
<g id="a_node18"><a xlink:title=" ">
<polygon fill="none" stroke="#bfbfbf" points="2411.67,-0.5 2411.67,-19.5 2475.67,-19.5 2475.67,-0.5 2411.67,-0.5"/>
<text text-anchor="middle" x="2443.67" y="-7.5" font-family="Helvetica,sans-Serif" font-size="10.00">algorithm</text>
</a>
</g>
</g>
<!-- Node15&#45;&gt;Node28 -->
<g id="edge176" class="edge">
<title>Node15&#45;&gt;Node28</title>
<path fill="none" stroke="midnightblue" d="M2331.2,-456.29C2536.32,-453.48 3234.3,-441.79 3329.67,-412 3381.34,-395.86 3432.67,-401.13 3432.67,-347 3432.67,-347 3432.67,-347 3432.67,-177 3432.67,-119.59 3188.75,-58.69 3175.67,-56 3042.41,-28.57 2621.5,-15.58 2486.08,-12.03"/>
<polygon fill="midnightblue" stroke="midnightblue" points="2485.81,-8.52 2475.72,-11.77 2485.63,-15.52 2485.81,-8.52"/>
</g>
<!-- Node29 -->
<g id="node19" class="node">
<title>Node29</title>
<g id="a_node19"><a xlink:title=" ">
<polygon fill="none" stroke="#bfbfbf" points="2889.67,-0.5 2889.67,-19.5 2933.67,-19.5 2933.67,-0.5 2889.67,-0.5"/>
<text text-anchor="middle" x="2911.67" y="-7.5" font-family="Helvetica,sans-Serif" font-size="10.00">string</text>
</a>
</g>
</g>
<!-- Node15&#45;&gt;Node29 -->
<g id="edge181" class="edge">
<title>Node15&#45;&gt;Node29</title>
<path fill="none" stroke="midnightblue" d="M2331.38,-456.59C2543.1,-454.78 3280.3,-446.09 3379.67,-412 3426.68,-395.87 3470.67,-396.7 3470.67,-347 3470.67,-347 3470.67,-347 3470.67,-121 3470.67,-12.98 3063.7,-9.21 2944.25,-10.43"/>
<polygon fill="midnightblue" stroke="midnightblue" points="2943.89,-6.94 2933.93,-10.56 2943.97,-13.94 2943.89,-6.94"/>
</g>
<!-- Node31 -->
<g id="node20" class="node">
<title>Node31</title>
<g id="a_node20"><a xlink:href="None_8h.html" target="_top" xlink:title=" ">
<polygon fill="none" stroke="black" points="2978.17,-56.5 2978.17,-75.5 3077.17,-75.5 3077.17,-56.5 2978.17,-56.5"/>
<text text-anchor="middle" x="3027.67" y="-63.5" font-family="Helvetica,sans-Serif" font-size="10.00">llvm/ADT/None.h</text>
</a>
</g>
</g>
<!-- Node15&#45;&gt;Node31 -->
<g id="edge71" class="edge">
<title>Node15&#45;&gt;Node31</title>
<path fill="none" stroke="midnightblue" d="M2331.32,-457.25C2553.95,-457.47 3356.67,-451.08 3356.67,-347 3356.67,-347 3356.67,-347 3356.67,-233 3356.67,-113.71 3182.14,-80.13 3087.32,-70.69"/>
<polygon fill="midnightblue" stroke="midnightblue" points="3087.56,-67.19 3077.28,-69.75 3086.91,-74.16 3087.56,-67.19"/>
</g>
<!-- Node25 -->
<g id="node22" class="node">
<title>Node25</title>
<g id="a_node22"><a xlink:title=" ">
<polygon fill="none" stroke="#bfbfbf" points="1221.17,-112.5 1221.17,-131.5 1274.17,-131.5 1274.17,-112.5 1221.17,-112.5"/>
<text text-anchor="middle" x="1247.67" y="-119.5" font-family="Helvetica,sans-Serif" font-size="10.00">cstddef</text>
</a>
</g>
</g>
<!-- Node15&#45;&gt;Node25 -->
<g id="edge178" class="edge">
<title>Node15&#45;&gt;Node25</title>
<path fill="none" stroke="midnightblue" d="M2217.85,-456.71C1985.92,-454.97 1110.95,-442.68 850.67,-356 803.08,-340.15 777.85,-343.39 752.67,-300 740.73,-279.42 759.98,-234.76 769.67,-224 828.97,-158.2 1109.68,-132.54 1211.05,-125.32"/>
<polygon fill="midnightblue" stroke="midnightblue" points="1211.38,-128.8 1221.12,-124.62 1210.9,-121.82 1211.38,-128.8"/>
</g>
<!-- Node36 -->
<g id="node24" class="node">
<title>Node36</title>
<g id="a_node24"><a xlink:title=" ">
<polygon fill="none" stroke="#bfbfbf" points="2102.17,-112.5 2102.17,-131.5 2155.17,-131.5 2155.17,-112.5 2102.17,-112.5"/>
<text text-anchor="middle" x="2128.67" y="-119.5" font-family="Helvetica,sans-Serif" font-size="10.00">iterator</text>
</a>
</g>
</g>
<!-- Node15&#45;&gt;Node36 -->
<g id="edge180" class="edge">
<title>Node15&#45;&gt;Node36</title>
<path fill="none" stroke="midnightblue" d="M2283.96,-448.39C2292.25,-440.02 2303.81,-426.48 2308.67,-412 2313.35,-398.06 2314.3,-358.03 2305.67,-336 2271.26,-248.18 2185.66,-169.88 2147.52,-138.08"/>
<polygon fill="midnightblue" stroke="midnightblue" points="2149.67,-135.32 2139.72,-131.67 2145.23,-140.73 2149.67,-135.32"/>
</g>
<!-- Node39 -->
<g id="node26" class="node">
<title>Node39</title>
<g id="a_node26"><a xlink:href="STLExtras_8h.html" target="_top" xlink:title=" ">
<polygon fill="none" stroke="red" points="1919.67,-168.5 1919.67,-187.5 2041.67,-187.5 2041.67,-168.5 1919.67,-168.5"/>
<text text-anchor="middle" x="1980.67" y="-175.5" font-family="Helvetica,sans-Serif" font-size="10.00">llvm/ADT/STLExtras.h</text>
</a>
</g>
</g>
<!-- Node15&#45;&gt;Node39 -->
<g id="edge73" class="edge">
<title>Node15&#45;&gt;Node39</title>
<path fill="none" stroke="midnightblue" d="M2279.11,-448.3C2289.15,-427.24 2311.1,-372.6 2288.67,-336 2272.54,-309.67 2083.36,-224.24 2009.74,-191.72"/>
<polygon fill="midnightblue" stroke="midnightblue" points="2011.11,-188.5 2000.54,-187.67 2008.28,-194.91 2011.11,-188.5"/>
</g>
<!-- Node40 -->
<g id="node27" class="node">
<title>Node40</title>
<g id="a_node27"><a xlink:href="Optional_8h.html" target="_top" xlink:title=" ">
<polygon fill="none" stroke="red" points="2351.17,-112.5 2351.17,-131.5 2466.17,-131.5 2466.17,-112.5 2351.17,-112.5"/>
<text text-anchor="middle" x="2408.67" y="-119.5" font-family="Helvetica,sans-Serif" font-size="10.00">llvm/ADT/Optional.h</text>
</a>
</g>
</g>
<!-- Node15&#45;&gt;Node40 -->
<g id="edge72" class="edge">
<title>Node15&#45;&gt;Node40</title>
<path fill="none" stroke="midnightblue" d="M2311.77,-448.46C2331.12,-441.92 2353.1,-430.72 2364.67,-412 2382.43,-383.27 2379.62,-366.29 2364.67,-336 2353.02,-312.41 2329.32,-323.59 2317.67,-300 2313.74,-292.03 2316.7,-288.84 2317.67,-280 2323.26,-229.3 2314.04,-210.21 2342.67,-168 2351.91,-154.39 2366.75,-143.73 2380.03,-136.21"/>
<polygon fill="midnightblue" stroke="midnightblue" points="2381.69,-139.29 2388.88,-131.5 2378.41,-133.1 2381.69,-139.29"/>
</g>
<!-- Node46 -->
<g id="node29" class="node">
<title>Node46</title>
<g id="a_node29"><a xlink:href="iterator__range_8h.html" target="_top" xlink:title=" ">
<polygon fill="none" stroke="black" points="736.17,-112.5 736.17,-131.5 879.17,-131.5 879.17,-112.5 736.17,-112.5"/>
<text text-anchor="middle" x="807.67" y="-119.5" font-family="Helvetica,sans-Serif" font-size="10.00">llvm/ADT/iterator_range.h</text>
</a>
</g>
</g>
<!-- Node15&#45;&gt;Node46 -->
<g id="edge99" class="edge">
<title>Node15&#45;&gt;Node46</title>
<path fill="none" stroke="midnightblue" d="M2218.15,-456.51C2005.19,-454.42 1251.29,-444.82 1013.67,-412 909.45,-397.61 871.82,-413.43 783.67,-356 731.74,-322.17 728.09,-285.07 738.67,-224 743.18,-197.96 744.07,-190.03 758.67,-168 766.27,-156.53 777.41,-146 787.14,-138"/>
<polygon fill="midnightblue" stroke="midnightblue" points="789.5,-140.6 795.21,-131.68 785.18,-135.09 789.5,-140.6"/>
</g>
<!-- Node49 -->
<g id="node31" class="node">
<title>Node49</title>
<g id="a_node31"><a xlink:title=" ">
<polygon fill="none" stroke="#bfbfbf" points="3053.17,-168.5 3053.17,-187.5 3100.17,-187.5 3100.17,-168.5 3053.17,-168.5"/>
<text text-anchor="middle" x="3076.67" y="-175.5" font-family="Helvetica,sans-Serif" font-size="10.00">vector</text>
</a>
</g>
</g>
<!-- Node15&#45;&gt;Node49 -->
<g id="edge182" class="edge">
<title>Node15&#45;&gt;Node49</title>
<path fill="none" stroke="midnightblue" d="M2331.39,-455.2C2514.27,-448.63 3076.67,-422.32 3076.67,-347 3076.67,-347 3076.67,-347 3076.67,-289 3076.67,-256.95 3076.67,-219.64 3076.67,-197.75"/>
<polygon fill="midnightblue" stroke="midnightblue" points="3080.17,-197.56 3076.67,-187.56 3073.17,-197.56 3080.17,-197.56"/>
</g>
<!-- Node50 -->
<g id="node32" class="node">
<title>Node50</title>
<g id="a_node32"><a xlink:href="Sequence_8h.html" target="_top" xlink:title=" ">
<polygon fill="none" stroke="black" points="400.17,-224.5 400.17,-243.5 521.17,-243.5 521.17,-224.5 400.17,-224.5"/>
<text text-anchor="middle" x="460.67" y="-231.5" font-family="Helvetica,sans-Serif" font-size="10.00">llvm/ADT/Sequence.h</text>
</a>
</g>
</g>
<!-- Node15&#45;&gt;Node50 -->
<g id="edge74" class="edge">
<title>Node15&#45;&gt;Node50</title>
<path fill="none" stroke="midnightblue" d="M2217.75,-457.19C1926.64,-457.96 615.22,-458.79 543.67,-412 488.07,-375.64 468.97,-291.39 463.06,-253.76"/>
<polygon fill="midnightblue" stroke="midnightblue" points="466.5,-253.08 461.62,-243.67 459.57,-254.07 466.5,-253.08"/>
</g>
<!-- Node51 -->
<g id="node33" class="node">
<title>Node51</title>
<g id="a_node33"><a xlink:href="StringMap_8h.html" target="_top" xlink:title=" ">
<polygon fill="none" stroke="red" points="2462.17,-168.5 2462.17,-187.5 2585.17,-187.5 2585.17,-168.5 2462.17,-168.5"/>
<text text-anchor="middle" x="2523.67" y="-175.5" font-family="Helvetica,sans-Serif" font-size="10.00">llvm/ADT/StringMap.h</text>
</a>
</g>
</g>
<!-- Node15&#45;&gt;Node51 -->
<g id="edge80" class="edge">
<title>Node15&#45;&gt;Node51</title>
<path fill="none" stroke="midnightblue" d="M2331.3,-452.48C2437.43,-442.44 2655.67,-413.7 2655.67,-347 2655.67,-347 2655.67,-347 2655.67,-289 2655.67,-238.81 2598.66,-207.08 2559.57,-191.22"/>
<polygon fill="midnightblue" stroke="midnightblue" points="2560.65,-187.89 2550.07,-187.53 2558.12,-194.42 2560.65,-187.89"/>
</g>
<!-- Node58 -->
<g id="node34" class="node">
<title>Node58</title>
<g id="a_node34"><a xlink:href="Twine_8h.html" target="_top" xlink:title=" ">
<polygon fill="none" stroke="red" points="1702.17,-224.5 1702.17,-243.5 1803.17,-243.5 1803.17,-224.5 1702.17,-224.5"/>
<text text-anchor="middle" x="1752.67" y="-231.5" font-family="Helvetica,sans-Serif" font-size="10.00">llvm/ADT/Twine.h</text>
</a>
</g>
</g>
<!-- Node15&#45;&gt;Node58 -->
<g id="edge83" class="edge">
<title>Node15&#45;&gt;Node58</title>
<path fill="none" stroke="midnightblue" d="M2217.75,-457.59C2108.88,-457.73 1875.97,-453.07 1808.67,-412 1758.16,-381.18 1753.35,-356.78 1736.67,-300 1732.07,-284.34 1737.33,-266.3 1743.02,-253.2"/>
<polygon fill="midnightblue" stroke="midnightblue" points="1746.32,-254.43 1747.5,-243.9 1740.01,-251.39 1746.32,-254.43"/>
</g>
<!-- Node59 -->
<g id="node36" class="node">
<title>Node59</title>
<g id="a_node36"><a xlink:href="Attributes_8h.html" target="_top" xlink:title=" ">
<polygon fill="none" stroke="red" points="2326.17,-280.5 2326.17,-299.5 2437.17,-299.5 2437.17,-280.5 2326.17,-280.5"/>
<text text-anchor="middle" x="2381.67" y="-287.5" font-family="Helvetica,sans-Serif" font-size="10.00">llvm/IR/Attributes.h</text>
</a>
</g>
</g>
<!-- Node15&#45;&gt;Node59 -->
<g id="edge100" class="edge">
<title>Node15&#45;&gt;Node59</title>
<path fill="none" stroke="midnightblue" d="M2331.49,-451.78C2357.67,-446.2 2386.47,-434.87 2402.67,-412 2424.87,-380.67 2405.44,-333.54 2391.97,-308.34"/>
<polygon fill="midnightblue" stroke="midnightblue" points="2394.98,-306.56 2387.03,-299.56 2388.88,-309.99 2394.98,-306.56"/>
</g>
<!-- Node69 -->
<g id="node37" class="node">
<title>Node69</title>
<g id="a_node37"><a xlink:href="CallingConv_8h.html" target="_top" xlink:title=" ">
<polygon fill="none" stroke="black" points="2125.17,-336.5 2125.17,-355.5 2246.17,-355.5 2246.17,-336.5 2125.17,-336.5"/>
<text text-anchor="middle" x="2185.67" y="-343.5" font-family="Helvetica,sans-Serif" font-size="10.00">llvm/IR/CallingConv.h</text>
</a>
</g>
</g>
<!-- Node15&#45;&gt;Node69 -->
<g id="edge109" class="edge">
<title>Node15&#45;&gt;Node69</title>
<path fill="none" stroke="midnightblue" d="M2267.69,-448.37C2252.93,-430.14 2218.38,-387.43 2199.16,-363.68"/>
<polygon fill="midnightblue" stroke="midnightblue" points="2201.63,-361.16 2192.62,-355.59 2196.19,-365.57 2201.63,-361.16"/>
</g>
<!-- Node70 -->
<g id="node38" class="node">
<title>Node70</title>
<g id="a_node38"><a xlink:href="DerivedTypes_8h.html" target="_top" xlink:title=" ">
<polygon fill="none" stroke="red" points="1745.17,-280.5 1745.17,-299.5 1874.17,-299.5 1874.17,-280.5 1745.17,-280.5"/>
<text text-anchor="middle" x="1809.67" y="-287.5" font-family="Helvetica,sans-Serif" font-size="10.00">llvm/IR/DerivedTypes.h</text>
</a>
</g>
</g>
<!-- Node15&#45;&gt;Node70 -->
<g id="edge110" class="edge">
<title>Node15&#45;&gt;Node70</title>
<path fill="none" stroke="midnightblue" d="M2217.8,-455.15C2103.49,-450.88 1854.35,-438.61 1826.67,-412 1799.1,-385.5 1801.93,-336.33 1806.01,-309.55"/>
<polygon fill="midnightblue" stroke="midnightblue" points="1809.48,-310.03 1807.76,-299.58 1802.59,-308.83 1809.48,-310.03"/>
</g>
<!-- Node77 -->
<g id="node39" class="node">
<title>Node77</title>
<g id="a_node39"><a xlink:href="Function_8h.html" target="_top" xlink:title=" ">
<polygon fill="none" stroke="red" points="1835.67,-392.5 1835.67,-411.5 1939.67,-411.5 1939.67,-392.5 1835.67,-392.5"/>
<text text-anchor="middle" x="1887.67" y="-399.5" font-family="Helvetica,sans-Serif" font-size="10.00">llvm/IR/Function.h</text>
</a>
</g>
</g>
<!-- Node15&#45;&gt;Node77 -->
<g id="edge117" class="edge">
<title>Node15&#45;&gt;Node77</title>
<path fill="none" stroke="midnightblue" d="M2217.98,-449.09C2146.5,-439.12 2024.01,-422.02 1949.97,-411.69"/>
<polygon fill="midnightblue" stroke="midnightblue" points="1950.24,-408.2 1939.86,-410.28 1949.28,-415.13 1950.24,-408.2"/>
</g>
<!-- Node115 -->
<g id="node41" class="node">
<title>Node115</title>
<g id="a_node41"><a xlink:href="OperandTraits_8h.html" target="_top" xlink:title=" ">
<polygon fill="none" stroke="black" points="1481.17,-336.5 1481.17,-355.5 1612.17,-355.5 1612.17,-336.5 1481.17,-336.5"/>
<text text-anchor="middle" x="1546.67" y="-343.5" font-family="Helvetica,sans-Serif" font-size="10.00">llvm/IR/OperandTraits.h</text>
</a>
</g>
</g>
<!-- Node15&#45;&gt;Node115 -->
<g id="edge174" class="edge">
<title>Node15&#45;&gt;Node115</title>
<path fill="none" stroke="midnightblue" d="M2218.06,-457.41C2080.77,-457.72 1733.54,-454.17 1626.67,-412 1600.02,-401.48 1575.42,-378.7 1560.72,-363.11"/>
<polygon fill="midnightblue" stroke="midnightblue" points="1563.3,-360.74 1553.98,-355.71 1558.13,-365.46 1563.3,-360.74"/>
</g>
<!-- Node103 -->
<g id="node42" class="node">
<title>Node103</title>
<g id="a_node42"><a xlink:href="User_8h.html" target="_top" xlink:title=" ">
<polygon fill="none" stroke="red" points="1244.17,-280.5 1244.17,-299.5 1329.17,-299.5 1329.17,-280.5 1244.17,-280.5"/>
<text text-anchor="middle" x="1286.67" y="-287.5" font-family="Helvetica,sans-Serif" font-size="10.00">llvm/IR/User.h</text>
</a>
</g>
</g>
<!-- Node15&#45;&gt;Node103 -->
<g id="edge175" class="edge">
<title>Node15&#45;&gt;Node103</title>
<path fill="none" stroke="midnightblue" d="M2218.04,-455.58C2076.1,-451.65 1707.97,-439.09 1588.67,-412 1481.3,-387.62 1362.34,-330.21 1311.69,-304.21"/>
<polygon fill="midnightblue" stroke="midnightblue" points="1313.27,-301.08 1302.78,-299.59 1310.05,-307.3 1313.27,-301.08"/>
</g>
<!-- Node15&#45;&gt;Node96 -->
<g id="edge148" class="edge">
<title>Node15&#45;&gt;Node96</title>
<path fill="none" stroke="midnightblue" d="M2217.97,-456.88C2045.2,-456.11 1527.14,-450.55 1363.67,-412 1317.29,-401.06 1267.32,-376.04 1238.93,-360.42"/>
<polygon fill="midnightblue" stroke="midnightblue" points="1240.61,-357.35 1230.17,-355.52 1237.19,-363.46 1240.61,-357.35"/>
</g>
<!-- Node110 -->
<g id="node49" class="node">
<title>Node110</title>
<g id="a_node49"><a xlink:title=" ">
<polygon fill="none" stroke="#bfbfbf" points="1386.17,-280.5 1386.17,-299.5 1511.17,-299.5 1511.17,-280.5 1386.17,-280.5"/>
<text text-anchor="middle" x="1448.67" y="-287.5" font-family="Helvetica,sans-Serif" font-size="10.00">llvm/IR/Instruction.def</text>
</a>
</g>
</g>
<!-- Node15&#45;&gt;Node110 -->
<g id="edge183" class="edge">
<title>Node15&#45;&gt;Node110</title>
<path fill="none" stroke="midnightblue" d="M2217.94,-455.84C2075.48,-452.5 1710.73,-441.18 1664.67,-412 1631.89,-391.23 1652.44,-359.65 1621.67,-336 1603.96,-322.39 1551.46,-309.86 1508.9,-301.49"/>
<polygon fill="midnightblue" stroke="midnightblue" points="1509.36,-298.02 1498.88,-299.56 1508.04,-304.89 1509.36,-298.02"/>
</g>
<!-- Node104 -->
<g id="node50" class="node">
<title>Node104</title>
<g id="a_node50"><a xlink:href="LLVMContext_8h.html" target="_top" xlink:title=" ">
<polygon fill="none" stroke="red" points="2603.17,-168.5 2603.17,-187.5 2730.17,-187.5 2730.17,-168.5 2603.17,-168.5"/>
<text text-anchor="middle" x="2666.67" y="-175.5" font-family="Helvetica,sans-Serif" font-size="10.00">llvm/IR/LLVMContext.h</text>
</a>
</g>
</g>
<!-- Node15&#45;&gt;Node104 -->
<g id="edge169" class="edge">
<title>Node15&#45;&gt;Node104</title>
<path fill="none" stroke="midnightblue" d="M2331.34,-454.37C2502.2,-445.7 3000.67,-414.6 3000.67,-347 3000.67,-347 3000.67,-347 3000.67,-289 3000.67,-234.61 2838.84,-202.64 2740.47,-188.23"/>
<polygon fill="midnightblue" stroke="midnightblue" points="2740.68,-184.73 2730.28,-186.77 2739.68,-191.66 2740.68,-184.73"/>
</g>
<!-- Node16&#45;&gt;Node3 -->
<g id="edge61" class="edge">
<title>Node16&#45;&gt;Node3</title>
<path fill="none" stroke="midnightblue" d="M2363.43,-231.08C2207.95,-225.73 1785.56,-209.59 1647.67,-188 1549.27,-172.59 1525.63,-162.07 1430.67,-132 1406.67,-124.4 1402.23,-117.55 1377.67,-112 1355.72,-107.04 1062.45,-83.95 919.69,-72.91"/>
<polygon fill="midnightblue" stroke="midnightblue" points="919.91,-69.42 909.67,-72.14 919.37,-76.4 919.91,-69.42"/>
</g>
<!-- Node16&#45;&gt;Node7 -->
<g id="edge64" class="edge">
<title>Node16&#45;&gt;Node7</title>
<path fill="none" stroke="midnightblue" d="M2479.75,-230.34C2581.33,-225.08 2782.54,-211.77 2803.67,-188 2815.33,-174.89 2821.55,-137.16 2797.67,-112 2754.77,-66.79 2313.6,-25.46 2182.33,-14.08"/>
<polygon fill="midnightblue" stroke="midnightblue" points="2182.27,-10.56 2172.01,-13.19 2181.67,-17.54 2182.27,-10.56"/>
</g>
<!-- Node16&#45;&gt;Node13 -->
<g id="edge69" class="edge">
<title>Node16&#45;&gt;Node13</title>
<path fill="none" stroke="midnightblue" d="M2363.64,-231.64C2051.25,-224.34 583.78,-189.92 581.67,-188 537.09,-147.41 548.2,-66.07 556.06,-29.53"/>
<polygon fill="midnightblue" stroke="midnightblue" points="559.49,-30.25 558.33,-19.72 552.67,-28.67 559.49,-30.25"/>
</g>
<!-- Node17 -->
<g id="node17" class="node">
<title>Node17</title>
<g id="a_node17"><a xlink:href="Hashing_8h.html" target="_top" xlink:title=" ">
<polygon fill="none" stroke="red" points="2326.17,-56.5 2326.17,-75.5 2439.17,-75.5 2439.17,-56.5 2326.17,-56.5"/>
<text text-anchor="middle" x="2382.67" y="-63.5" font-family="Helvetica,sans-Serif" font-size="10.00">llvm/ADT/Hashing.h</text>
</a>
</g>
</g>
<!-- Node16&#45;&gt;Node17 -->
<g id="edge20" class="edge">
<title>Node16&#45;&gt;Node17</title>
<path fill="none" stroke="midnightblue" d="M2479.8,-230.03C2578.11,-224.42 2768.57,-210.71 2788.67,-188 2794.56,-181.34 2789.46,-176.85 2788.67,-168 2786.44,-142.82 2797.13,-129.27 2778.67,-112 2725.61,-62.35 2525.83,-84.57 2453.67,-76 2452.21,-75.83 2450.72,-75.65 2449.23,-75.47"/>
<polygon fill="midnightblue" stroke="midnightblue" points="2449.59,-71.99 2439.24,-74.25 2448.75,-78.94 2449.59,-71.99"/>
</g>
<!-- Node16&#45;&gt;Node28 -->
<g id="edge62" class="edge">
<title>Node16&#45;&gt;Node28</title>
<path fill="none" stroke="midnightblue" d="M2479.71,-233.77C2605.47,-234.58 2898.86,-231.58 2986.67,-188 3052.6,-155.28 3136.86,-109.83 3086.67,-56 3066.15,-33.99 2625.98,-17.19 2486.01,-12.39"/>
<polygon fill="midnightblue" stroke="midnightblue" points="2485.8,-8.88 2475.69,-12.04 2485.56,-15.88 2485.8,-8.88"/>
</g>
<!-- Node16&#45;&gt;Node31 -->
<g id="edge26" class="edge">
<title>Node16&#45;&gt;Node31</title>
<path fill="none" stroke="midnightblue" d="M2479.88,-231.27C2611.37,-226.93 2923.02,-214 2962.67,-188 2998.95,-164.21 3016.49,-113.12 3023.61,-85.55"/>
<polygon fill="midnightblue" stroke="midnightblue" points="3027.06,-86.17 3025.98,-75.63 3020.25,-84.54 3027.06,-86.17"/>
</g>
<!-- Node32 -->
<g id="node21" class="node">
<title>Node32</title>
<g id="a_node21"><a xlink:href="SmallVector_8h.html" target="_top" xlink:title=" ">
<polygon fill="none" stroke="red" points="1656.17,-168.5 1656.17,-187.5 1787.17,-187.5 1787.17,-168.5 1656.17,-168.5"/>
<text text-anchor="middle" x="1721.67" y="-175.5" font-family="Helvetica,sans-Serif" font-size="10.00">llvm/ADT/SmallVector.h</text>
</a>
</g>
</g>
<!-- Node16&#45;&gt;Node32 -->
<g id="edge27" class="edge">
<title>Node16&#45;&gt;Node32</title>
<path fill="none" stroke="midnightblue" d="M2363.49,-228.51C2237.31,-218.78 1938.51,-195.73 1797.65,-184.86"/>
<polygon fill="midnightblue" stroke="midnightblue" points="1797.61,-181.35 1787.37,-184.07 1797.07,-188.33 1797.61,-181.35"/>
</g>
<!-- Node16&#45;&gt;Node25 -->
<g id="edge65" class="edge">
<title>Node16&#45;&gt;Node25</title>
<path fill="none" stroke="midnightblue" d="M2363.5,-230.99C2198.35,-225.1 1728.64,-207.13 1575.67,-188 1468.67,-174.62 1344.26,-146.44 1284.04,-131.97"/>
<polygon fill="midnightblue" stroke="midnightblue" points="1284.79,-128.56 1274.25,-129.61 1283.14,-135.36 1284.79,-128.56"/>
</g>
<!-- Node35 -->
<g id="node23" class="node">
<title>Node35</title>
<g id="a_node23"><a xlink:title=" ">
<polygon fill="none" stroke="#bfbfbf" points="2250.17,-112.5 2250.17,-131.5 2333.17,-131.5 2333.17,-112.5 2250.17,-112.5"/>
<text text-anchor="middle" x="2291.67" y="-119.5" font-family="Helvetica,sans-Serif" font-size="10.00">initializer_list</text>
</a>
</g>
</g>
<!-- Node16&#45;&gt;Node35 -->
<g id="edge66" class="edge">
<title>Node16&#45;&gt;Node35</title>
<path fill="none" stroke="midnightblue" d="M2423.37,-224.37C2425.52,-210.83 2427.54,-184.45 2414.67,-168 2404.69,-155.23 2367.67,-142.73 2336.83,-134.15"/>
<polygon fill="midnightblue" stroke="midnightblue" points="2337.65,-130.75 2327.08,-131.51 2335.82,-137.51 2337.65,-130.75"/>
</g>
<!-- Node16&#45;&gt;Node36 -->
<g id="edge67" class="edge">
<title>Node16&#45;&gt;Node36</title>
<path fill="none" stroke="midnightblue" d="M2398.68,-224.37C2346.9,-204.93 2221.03,-157.67 2161.24,-135.23"/>
<polygon fill="midnightblue" stroke="midnightblue" points="2162.15,-131.83 2151.56,-131.59 2159.69,-138.38 2162.15,-131.83"/>
</g>
<!-- Node37 -->
<g id="node25" class="node">
<title>Node37</title>
<g id="a_node25"><a xlink:title=" ">
<polygon fill="none" stroke="#bfbfbf" points="2711.67,-112.5 2711.67,-131.5 2769.67,-131.5 2769.67,-112.5 2711.67,-112.5"/>
<text text-anchor="middle" x="2740.67" y="-119.5" font-family="Helvetica,sans-Serif" font-size="10.00">memory</text>
</a>
</g>
</g>
<!-- Node16&#45;&gt;Node37 -->
<g id="edge68" class="edge">
<title>Node16&#45;&gt;Node37</title>
<path fill="none" stroke="midnightblue" d="M2479.91,-229.68C2574.68,-223.67 2753.67,-209.59 2772.67,-188 2785.43,-173.5 2771.37,-153.01 2758.07,-138.93"/>
<polygon fill="midnightblue" stroke="midnightblue" points="2760.5,-136.41 2750.94,-131.85 2755.57,-141.38 2760.5,-136.41"/>
</g>
<!-- Node16&#45;&gt;Node39 -->
<g id="edge39" class="edge">
<title>Node16&#45;&gt;Node39</title>
<path fill="none" stroke="midnightblue" d="M2363.56,-225.88C2283.25,-216.05 2138.42,-198.32 2051.75,-187.7"/>
<polygon fill="midnightblue" stroke="midnightblue" points="2052.09,-184.22 2041.74,-186.48 2051.24,-191.17 2052.09,-184.22"/>
</g>
<!-- Node48 -->
<g id="node30" class="node">
<title>Node48</title>
<g id="a_node30"><a xlink:title=" ">
<polygon fill="none" stroke="#bfbfbf" points="2363.67,-168.5 2363.67,-187.5 2405.67,-187.5 2405.67,-168.5 2363.67,-168.5"/>
<text text-anchor="middle" x="2384.67" y="-175.5" font-family="Helvetica,sans-Serif" font-size="10.00">array</text>
</a>
</g>
</g>
<!-- Node16&#45;&gt;Node48 -->
<g id="edge63" class="edge">
<title>Node16&#45;&gt;Node48</title>
<path fill="none" stroke="midnightblue" d="M2415.56,-224.08C2410.39,-216.53 2402.82,-205.49 2396.48,-196.23"/>
<polygon fill="midnightblue" stroke="midnightblue" points="2399.21,-194.02 2390.67,-187.75 2393.43,-197.98 2399.21,-194.02"/>
</g>
<!-- Node16&#45;&gt;Node49 -->
<g id="edge70" class="edge">
<title>Node16&#45;&gt;Node49</title>
<path fill="none" stroke="midnightblue" d="M2479.86,-231.85C2589.7,-228.99 2834.86,-219.36 3038.67,-188 3040.14,-187.77 3041.63,-187.52 3043.13,-187.25"/>
<polygon fill="midnightblue" stroke="midnightblue" points="3043.98,-190.65 3053.07,-185.21 3042.57,-183.79 3043.98,-190.65"/>
</g>
<!-- Node17&#45;&gt;Node7 -->
<g id="edge22" class="edge">
<title>Node17&#45;&gt;Node7</title>
<path fill="none" stroke="midnightblue" d="M2345.12,-56.44C2300.29,-46.23 2225.85,-29.27 2181.7,-19.21"/>
<polygon fill="midnightblue" stroke="midnightblue" points="2182.23,-15.74 2171.7,-16.93 2180.67,-22.56 2182.23,-15.74"/>
</g>
<!-- Node17&#45;&gt;Node11 -->
<g id="edge23" class="edge">
<title>Node17&#45;&gt;Node11</title>
<path fill="none" stroke="midnightblue" d="M2326.04,-63.14C2266.84,-61.22 2171.24,-58.21 2088.67,-56 1390.52,-37.31 1214.97,-59.32 517.67,-20 496.08,-18.78 471.94,-16.63 452.79,-14.74"/>
<polygon fill="midnightblue" stroke="midnightblue" points="453.01,-11.24 442.71,-13.72 452.3,-18.21 453.01,-11.24"/>
</g>
<!-- Node17&#45;&gt;Node14 -->
<g id="edge25" class="edge">
<title>Node17&#45;&gt;Node14</title>
<path fill="none" stroke="midnightblue" d="M2326.11,-60.13C2309.25,-58.73 2290.71,-57.25 2273.67,-56 2014.99,-37.05 1702.5,-18.66 1602.27,-12.87"/>
<polygon fill="midnightblue" stroke="midnightblue" points="1602.36,-9.37 1592.17,-12.29 1601.95,-16.36 1602.36,-9.37"/>
</g>
<!-- Node17&#45;&gt;Node28 -->
<g id="edge21" class="edge">
<title>Node17&#45;&gt;Node28</title>
<path fill="none" stroke="midnightblue" d="M2392.47,-56.32C2401.49,-48.34 2415.08,-36.31 2425.99,-26.65"/>
<polygon fill="midnightblue" stroke="midnightblue" points="2428.52,-29.08 2433.69,-19.83 2423.88,-23.84 2428.52,-29.08"/>
</g>
<!-- Node17&#45;&gt;Node29 -->
<g id="edge24" class="edge">
<title>Node17&#45;&gt;Node29</title>
<path fill="none" stroke="midnightblue" d="M2439.28,-59.22C2550.07,-47.91 2792.32,-23.18 2879.56,-14.28"/>
<polygon fill="midnightblue" stroke="midnightblue" points="2880.05,-17.75 2889.65,-13.25 2879.34,-10.78 2880.05,-17.75"/>
</g>
<!-- Node32&#45;&gt;Node3 -->
<g id="edge28" class="edge">
<title>Node32&#45;&gt;Node3</title>
<path fill="none" stroke="midnightblue" d="M1656.06,-168.69C1606.65,-161.52 1537.58,-149.51 1478.67,-132 1456.52,-125.41 1453.14,-117.39 1430.67,-112 1335.85,-89.24 1056.59,-75.44 919.87,-69.86"/>
<polygon fill="midnightblue" stroke="midnightblue" points="920.01,-66.36 909.87,-69.46 919.72,-73.36 920.01,-66.36"/>
</g>
<!-- Node32&#45;&gt;Node7 -->
<g id="edge30" class="edge">
<title>Node32&#45;&gt;Node7</title>
<path fill="none" stroke="midnightblue" d="M1721.14,-168.29C1720.29,-145.74 1721.46,-85.16 1755.67,-56 1782.33,-33.27 2017.74,-18.02 2109.39,-12.9"/>
<polygon fill="midnightblue" stroke="midnightblue" points="2109.78,-16.39 2119.57,-12.34 2109.4,-9.4 2109.78,-16.39"/>
</g>
<!-- Node32&#45;&gt;Node11 -->
<g id="edge32" class="edge">
<title>Node32&#45;&gt;Node11</title>
<path fill="none" stroke="midnightblue" d="M1658.31,-168.49C1614.8,-161.5 1556.19,-149.82 1506.67,-132 1488.71,-125.54 1486.94,-117.51 1468.67,-112 1367.03,-81.34 623.4,-29.5 517.67,-20 496.14,-18.06 472,-15.89 452.83,-14.17"/>
<polygon fill="midnightblue" stroke="midnightblue" points="453.01,-10.67 442.74,-13.26 452.39,-17.64 453.01,-10.67"/>
</g>
<!-- Node32&#45;&gt;Node12 -->
<g id="edge35" class="edge">
<title>Node32&#45;&gt;Node12</title>
<path fill="none" stroke="midnightblue" d="M1655.99,-175.99C1467.48,-172.77 926.21,-161.33 727.93,-131.53"/>
<polygon fill="midnightblue" stroke="midnightblue" points="728.33,-128.05 717.9,-129.96 727.24,-134.96 728.33,-128.05"/>
</g>
<!-- Node32&#45;&gt;Node13 -->
<g id="edge37" class="edge">
<title>Node32&#45;&gt;Node13</title>
<path fill="none" stroke="midnightblue" d="M1696.42,-168.46C1656.47,-155.15 1576.12,-129.23 1506.67,-112 1380.53,-80.71 1348.53,-72.9 1219.67,-56 989.97,-25.87 712.41,-15.27 605.57,-12.14"/>
<polygon fill="midnightblue" stroke="midnightblue" points="605.57,-8.64 595.48,-11.85 605.37,-15.63 605.57,-8.64"/>
</g>
<!-- Node32&#45;&gt;Node14 -->
<g id="edge38" class="edge">
<title>Node32&#45;&gt;Node14</title>
<path fill="none" stroke="midnightblue" d="M1713.5,-168.08C1689.05,-141.38 1616.25,-61.87 1584.62,-27.32"/>
<polygon fill="midnightblue" stroke="midnightblue" points="1586.85,-24.58 1577.52,-19.57 1581.69,-29.31 1586.85,-24.58"/>
</g>
<!-- Node32&#45;&gt;Node28 -->
<g id="edge29" class="edge">
<title>Node32&#45;&gt;Node28</title>
<path fill="none" stroke="midnightblue" d="M1730.91,-168.23C1756.05,-144.99 1828.81,-81.81 1902.67,-56 1994.57,-23.89 2290.45,-14.3 2401.25,-11.79"/>
<polygon fill="midnightblue" stroke="midnightblue" points="2401.47,-15.29 2411.39,-11.57 2401.31,-8.29 2401.47,-15.29"/>
</g>
<!-- Node32&#45;&gt;Node25 -->
<g id="edge31" class="edge">
<title>Node32&#45;&gt;Node25</title>
<path fill="none" stroke="midnightblue" d="M1655.94,-170.54C1574.55,-162.38 1431.73,-147.52 1309.67,-132 1301.39,-130.95 1292.49,-129.72 1284.1,-128.51"/>
<polygon fill="midnightblue" stroke="midnightblue" points="1284.59,-125.04 1274.19,-127.06 1283.58,-131.97 1284.59,-125.04"/>
</g>
<!-- Node32&#45;&gt;Node35 -->
<g id="edge33" class="edge">
<title>Node32&#45;&gt;Node35</title>
<path fill="none" stroke="midnightblue" d="M1787.34,-170.78C1901.82,-159.93 2135.64,-137.78 2239.71,-127.92"/>
<polygon fill="midnightblue" stroke="midnightblue" points="2240.34,-131.38 2249.97,-126.95 2239.68,-124.41 2240.34,-131.38"/>
</g>
<!-- Node32&#45;&gt;Node36 -->
<g id="edge34" class="edge">
<title>Node32&#45;&gt;Node36</title>
<path fill="none" stroke="midnightblue" d="M1786.16,-168.44C1872.51,-156.99 2022.81,-137.04 2091.95,-127.87"/>
<polygon fill="midnightblue" stroke="midnightblue" points="2092.49,-131.33 2101.94,-126.55 2091.57,-124.39 2092.49,-131.33"/>
</g>
<!-- Node32&#45;&gt;Node37 -->
<g id="edge36" class="edge">
<title>Node32&#45;&gt;Node37</title>
<path fill="none" stroke="midnightblue" d="M1787.35,-173.52C1981.19,-163.25 2546.85,-133.27 2701.31,-125.09"/>
<polygon fill="midnightblue" stroke="midnightblue" points="2701.49,-128.58 2711.29,-124.56 2701.12,-121.59 2701.49,-128.58"/>
</g>
<!-- Node39&#45;&gt;Node7 -->
<g id="edge52" class="edge">
<title>Node39&#45;&gt;Node7</title>
<path fill="none" stroke="midnightblue" d="M1999.6,-168.38C2029.79,-153.68 2088.77,-120.96 2121.67,-76 2131.87,-62.06 2138.18,-43.3 2141.75,-29.52"/>
<polygon fill="midnightblue" stroke="midnightblue" points="2145.18,-30.26 2144.05,-19.72 2138.36,-28.66 2145.18,-30.26"/>
</g>
<!-- Node39&#45;&gt;Node10 -->
<g id="edge54" class="edge">
<title>Node39&#45;&gt;Node10</title>
<path fill="none" stroke="midnightblue" d="M1919.59,-171.82C1788.31,-160.69 1482.76,-134.79 1378.93,-125.99"/>
<polygon fill="midnightblue" stroke="midnightblue" points="1378.94,-122.48 1368.68,-125.12 1378.35,-129.45 1378.94,-122.48"/>
</g>
<!-- Node39&#45;&gt;Node12 -->
<g id="edge57" class="edge">
<title>Node39&#45;&gt;Node12</title>
<path fill="none" stroke="midnightblue" d="M1919.35,-173.77C1883.57,-171.94 1837.57,-169.69 1796.67,-168 1562.43,-158.33 978.8,-168.16 728.13,-131.54"/>
<polygon fill="midnightblue" stroke="midnightblue" points="728.31,-128.03 717.9,-129.99 727.26,-134.95 728.31,-128.03"/>
</g>
<!-- Node39&#45;&gt;Node13 -->
<g id="edge59" class="edge">
<title>Node39&#45;&gt;Node13</title>
<path fill="none" stroke="midnightblue" d="M1941.69,-168.46C1837.79,-146.06 1545.26,-85.29 1298.67,-56 1163.26,-39.91 744.28,-19.53 605.69,-13.07"/>
<polygon fill="midnightblue" stroke="midnightblue" points="605.59,-9.56 595.44,-12.59 605.27,-16.55 605.59,-9.56"/>
</g>
<!-- Node39&#45;&gt;Node14 -->
<g id="edge60" class="edge">
<title>Node39&#45;&gt;Node14</title>
<path fill="none" stroke="midnightblue" d="M1992.06,-168.29C2017.68,-148.43 2078.4,-99.67 2088.67,-76 2092.21,-67.85 2094.68,-62.55 2088.67,-56 2072.16,-38 1713.93,-18.33 1602.47,-12.63"/>
<polygon fill="midnightblue" stroke="midnightblue" points="1602.64,-9.14 1592.47,-12.12 1602.28,-16.13 1602.64,-9.14"/>
</g>
<!-- Node39&#45;&gt;Node28 -->
<g id="edge51" class="edge">
<title>Node39&#45;&gt;Node28</title>
<path fill="none" stroke="midnightblue" d="M2041.9,-175.95C2167.92,-173.16 2446.94,-163.46 2475.67,-132 2502.42,-102.7 2474.74,-53.65 2456.66,-27.92"/>
<polygon fill="midnightblue" stroke="midnightblue" points="2459.28,-25.58 2450.55,-19.58 2453.63,-29.71 2459.28,-25.58"/>
</g>
<!-- Node39&#45;&gt;Node25 -->
<g id="edge53" class="edge">
<title>Node39&#45;&gt;Node25</title>
<path fill="none" stroke="midnightblue" d="M1919.62,-173.51C1777.35,-165.29 1427.01,-144.43 1309.67,-132 1301.53,-131.14 1292.82,-130.01 1284.58,-128.84"/>
<polygon fill="midnightblue" stroke="midnightblue" points="1284.87,-125.34 1274.47,-127.35 1283.86,-132.27 1284.87,-125.34"/>
</g>
<!-- Node39&#45;&gt;Node35 -->
<g id="edge55" class="edge">
<title>Node39&#45;&gt;Node35</title>
<path fill="none" stroke="midnightblue" d="M2029.95,-168.44C2087.31,-158.48 2181.6,-142.11 2239.98,-131.98"/>
<polygon fill="midnightblue" stroke="midnightblue" points="2240.83,-135.38 2250.09,-130.22 2239.64,-128.48 2240.83,-135.38"/>
</g>
<!-- Node39&#45;&gt;Node36 -->
<g id="edge56" class="edge">
<title>Node39&#45;&gt;Node36</title>
<path fill="none" stroke="midnightblue" d="M2004.12,-168.44C2028.8,-159.44 2067.86,-145.19 2095.65,-135.05"/>
<polygon fill="midnightblue" stroke="midnightblue" points="2097.13,-138.23 2105.33,-131.52 2094.74,-131.66 2097.13,-138.23"/>
</g>
<!-- Node39&#45;&gt;Node37 -->
<g id="edge58" class="edge">
<title>Node39&#45;&gt;Node37</title>
<path fill="none" stroke="midnightblue" d="M2041.9,-172.65C2192.4,-161.96 2577.16,-134.62 2701.37,-125.79"/>
<polygon fill="midnightblue" stroke="midnightblue" points="2701.83,-129.27 2711.55,-125.07 2701.33,-122.29 2701.83,-129.27"/>
</g>
<!-- Node39&#45;&gt;Node40 -->
<g id="edge40" class="edge">
<title>Node39&#45;&gt;Node40</title>
<path fill="none" stroke="midnightblue" d="M2041.87,-169.62C2111.76,-161.13 2229.84,-146.65 2341.04,-132.2"/>
<polygon fill="midnightblue" stroke="midnightblue" points="2341.62,-135.66 2351.08,-130.89 2340.72,-128.71 2341.62,-135.66"/>
</g>
<!-- Node41 -->
<g id="node28" class="node">
<title>Node41</title>
<g id="a_node28"><a xlink:href="STLForwardCompat_8h.html" target="_top" xlink:title=" ">
<polygon fill="none" stroke="black" points="1911.67,-56.5 1911.67,-75.5 2079.67,-75.5 2079.67,-56.5 1911.67,-56.5"/>
<text text-anchor="middle" x="1995.67" y="-63.5" font-family="Helvetica,sans-Serif" font-size="10.00">llvm/ADT/STLForwardCompat.h</text>
</a>
</g>
</g>
<!-- Node39&#45;&gt;Node41 -->
<g id="edge48" class="edge">
<title>Node39&#45;&gt;Node41</title>
<path fill="none" stroke="midnightblue" d="M1981.85,-168.37C1984.27,-150.62 1989.85,-109.67 1993.13,-85.6"/>
<polygon fill="midnightblue" stroke="midnightblue" points="1996.62,-85.97 1994.5,-75.59 1989.68,-85.03 1996.62,-85.97"/>
</g>
<!-- Node39&#45;&gt;Node46 -->
<g id="edge49" class="edge">
<title>Node39&#45;&gt;Node46</title>
<path fill="none" stroke="midnightblue" d="M1919.34,-173.95C1883.56,-172.18 1837.56,-169.93 1796.67,-168 1459.96,-152.1 1058.71,-134.15 889.42,-126.63"/>
<polygon fill="midnightblue" stroke="midnightblue" points="889.49,-123.13 879.34,-126.18 889.18,-130.12 889.49,-123.13"/>
</g>
<!-- Node40&#45;&gt;Node3 -->
<g id="edge45" class="edge">
<title>Node40&#45;&gt;Node3</title>
<path fill="none" stroke="midnightblue" d="M2351.12,-112.79C2348.26,-112.49 2345.44,-112.23 2342.67,-112 1799.23,-66.92 1141.74,-65.47 919.95,-66.45"/>
<polygon fill="midnightblue" stroke="midnightblue" points="919.7,-62.95 909.72,-66.49 919.73,-69.95 919.7,-62.95"/>
</g>
<!-- Node40&#45;&gt;Node7 -->
<g id="edge46" class="edge">
<title>Node40&#45;&gt;Node7</title>
<path fill="none" stroke="midnightblue" d="M2391.42,-112.4C2360.47,-97.02 2296.62,-65.52 2273.67,-56 2243.13,-43.33 2207.6,-31.02 2181.73,-22.49"/>
<polygon fill="midnightblue" stroke="midnightblue" points="2182.57,-19.08 2171.98,-19.3 2180.39,-25.74 2182.57,-19.08"/>
</g>
<!-- Node40&#45;&gt;Node14 -->
<g id="edge47" class="edge">
<title>Node40&#45;&gt;Node14</title>
<path fill="none" stroke="midnightblue" d="M2377.52,-112.42C2325.13,-98.33 2215.85,-70.43 2121.67,-56 1926.17,-26.05 1688.45,-15.18 1602.58,-12.06"/>
<polygon fill="midnightblue" stroke="midnightblue" points="1602.53,-8.56 1592.41,-11.7 1602.28,-15.55 1602.53,-8.56"/>
</g>
<!-- Node40&#45;&gt;Node17 -->
<g id="edge41" class="edge">
<title>Node40&#45;&gt;Node17</title>
<path fill="none" stroke="midnightblue" d="M2404.38,-112.08C2400.82,-104.69 2395.65,-93.95 2391.25,-84.81"/>
<polygon fill="midnightblue" stroke="midnightblue" points="2394.38,-83.24 2386.88,-75.75 2388.07,-86.28 2394.38,-83.24"/>
</g>
<!-- Node40&#45;&gt;Node31 -->
<g id="edge42" class="edge">
<title>Node40&#45;&gt;Node31</title>
<path fill="none" stroke="midnightblue" d="M2466.35,-115.97C2583.58,-105.74 2848.65,-82.62 2967.75,-72.23"/>
<polygon fill="midnightblue" stroke="midnightblue" points="2968.12,-75.71 2977.78,-71.35 2967.52,-68.73 2968.12,-75.71"/>
</g>
<!-- Node40&#45;&gt;Node41 -->
<g id="edge43" class="edge">
<title>Node40&#45;&gt;Node41</title>
<path fill="none" stroke="midnightblue" d="M2351.08,-113.12C2348.24,-112.74 2345.42,-112.37 2342.67,-112 2249.84,-99.65 2142.97,-85.86 2072.64,-76.83"/>
<polygon fill="midnightblue" stroke="midnightblue" points="2072.9,-73.34 2062.53,-75.54 2072.01,-80.28 2072.9,-73.34"/>
</g>
<!-- Node41&#45;&gt;Node13 -->
<g id="edge44" class="edge">
<title>Node41&#45;&gt;Node13</title>
<path fill="none" stroke="midnightblue" d="M1911.61,-60.38C1883.06,-58.88 1850.98,-57.28 1821.67,-56 1370.26,-36.33 1257.22,-36.29 805.67,-20 735.93,-17.48 655.01,-14.5 605.85,-12.68"/>
<polygon fill="midnightblue" stroke="midnightblue" points="605.68,-9.17 595.56,-12.3 605.43,-16.16 605.68,-9.17"/>
</g>
<!-- Node46&#45;&gt;Node14 -->
<g id="edge50" class="edge">
<title>Node46&#45;&gt;Node14</title>
<path fill="none" stroke="midnightblue" d="M833.03,-112.44C876.17,-98.25 966.81,-70.04 1045.67,-56 1229.54,-23.28 1454.09,-14.12 1536.95,-11.76"/>
<polygon fill="midnightblue" stroke="midnightblue" points="1537.11,-15.25 1547.01,-11.48 1536.92,-8.26 1537.11,-15.25"/>
</g>
<!-- Node50&#45;&gt;Node6 -->
<g id="edge79" class="edge">
<title>Node50&#45;&gt;Node6</title>
<path fill="none" stroke="midnightblue" d="M430.56,-224.44C398.05,-215.2 346.09,-200.44 310.28,-190.26"/>
<polygon fill="midnightblue" stroke="midnightblue" points="311.21,-186.88 300.64,-187.52 309.3,-193.62 311.21,-186.88"/>
</g>
<!-- Node50&#45;&gt;Node7 -->
<g id="edge75" class="edge">
<title>Node50&#45;&gt;Node7</title>
<path fill="none" stroke="midnightblue" d="M508.51,-224.47C559.21,-215.43 641.58,-200.73 712.67,-188 1039.37,-129.49 1118.21,-96.07 1447.67,-56 1577.83,-40.17 1985.1,-19.02 2109.33,-12.8"/>
<polygon fill="midnightblue" stroke="midnightblue" points="2109.65,-16.29 2119.46,-12.29 2109.3,-9.29 2109.65,-16.29"/>
</g>
<!-- Node50&#45;&gt;Node12 -->
<g id="edge77" class="edge">
<title>Node50&#45;&gt;Node12</title>
<path fill="none" stroke="midnightblue" d="M475.29,-224.43C497.75,-211.41 542.3,-186.27 581.67,-168 608.91,-155.36 640.76,-142.98 663.86,-134.42"/>
<polygon fill="midnightblue" stroke="midnightblue" points="665.31,-137.61 673.49,-130.88 662.9,-131.04 665.31,-137.61"/>
</g>
<!-- Node50&#45;&gt;Node13 -->
<g id="edge78" class="edge">
<title>Node50&#45;&gt;Node13</title>
<path fill="none" stroke="midnightblue" d="M399.9,-232.71C281.43,-229.97 37.52,-212.35 112.67,-112 137.06,-79.43 407.49,-34.57 516.01,-17.74"/>
<polygon fill="midnightblue" stroke="midnightblue" points="516.64,-21.18 525.99,-16.2 515.57,-14.27 516.64,-21.18"/>
</g>
<!-- Node50&#45;&gt;Node36 -->
<g id="edge76" class="edge">
<title>Node50&#45;&gt;Node36</title>
<path fill="none" stroke="midnightblue" d="M521.28,-232.25C747.79,-229.22 1544.47,-216.75 1796.67,-188 1825.82,-184.68 2011.66,-146.96 2091.89,-130.55"/>
<polygon fill="midnightblue" stroke="midnightblue" points="2092.93,-133.91 2102.03,-128.47 2091.53,-127.05 2092.93,-133.91"/>
</g>
<!-- Node51&#45;&gt;Node35 -->
<g id="edge81" class="edge">
<title>Node51&#45;&gt;Node35</title>
<path fill="none" stroke="midnightblue" d="M2486.91,-168.44C2446.61,-159.06 2381.86,-143.99 2338.09,-133.8"/>
<polygon fill="midnightblue" stroke="midnightblue" points="2338.79,-130.37 2328.26,-131.52 2337.21,-137.19 2338.79,-130.37"/>
</g>
<!-- Node51&#45;&gt;Node36 -->
<g id="edge82" class="edge">
<title>Node51&#45;&gt;Node36</title>
<path fill="none" stroke="midnightblue" d="M2461.95,-168.56C2378.74,-157.19 2233.21,-137.29 2165.4,-128.02"/>
<polygon fill="midnightblue" stroke="midnightblue" points="2165.58,-124.51 2155.2,-126.63 2164.63,-131.45 2165.58,-124.51"/>
</g>
<!-- Node58&#45;&gt;Node7 -->
<g id="edge96" class="edge">
<title>Node58&#45;&gt;Node7</title>
<path fill="none" stroke="midnightblue" d="M1801.63,-224.49C1824.64,-218.1 1850.69,-207.04 1867.67,-188 1908.08,-142.71 1858.15,-97.25 1902.67,-56 1932.21,-28.63 2049.1,-17.2 2109.34,-13.05"/>
<polygon fill="midnightblue" stroke="midnightblue" points="2109.8,-16.53 2119.55,-12.38 2109.34,-9.55 2109.8,-16.53"/>
</g>
<!-- Node58&#45;&gt;Node10 -->
<g id="edge97" class="edge">
<title>Node58&#45;&gt;Node10</title>
<path fill="none" stroke="midnightblue" d="M1702.08,-229.43C1622.62,-223.27 1472.6,-209.21 1423.67,-188 1397.9,-176.83 1373.66,-154.93 1358.76,-139.65"/>
<polygon fill="midnightblue" stroke="midnightblue" points="1360.9,-136.82 1351.49,-131.95 1355.82,-141.63 1360.9,-136.82"/>
</g>
<!-- Node58&#45;&gt;Node29 -->
<g id="edge98" class="edge">
<title>Node58&#45;&gt;Node29</title>
<path fill="none" stroke="midnightblue" d="M1803.3,-230.28C1838.01,-228.44 1885.13,-225.99 1926.67,-224 2016.99,-219.66 2657.18,-225.03 2739.67,-188 2817.18,-153.2 2877.8,-66.13 2901.2,-28.63"/>
<polygon fill="midnightblue" stroke="midnightblue" points="2904.35,-30.2 2906.57,-19.84 2898.37,-26.55 2904.35,-30.2"/>
</g>
<!-- Node58&#45;&gt;Node32 -->
<g id="edge84" class="edge">
<title>Node58&#45;&gt;Node32</title>
<path fill="none" stroke="midnightblue" d="M1747.55,-224.08C1743.26,-216.61 1737.01,-205.72 1731.73,-196.52"/>
<polygon fill="midnightblue" stroke="midnightblue" points="1734.71,-194.68 1726.69,-187.75 1728.64,-198.17 1734.71,-194.68"/>
</g>
<!-- Node53 -->
<g id="node35" class="node">
<title>Node53</title>
<g id="a_node35"><a xlink:href="StringRef_8h.html" target="_top" xlink:title=" ">
<polygon fill="none" stroke="red" points="911.67,-168.5 911.67,-187.5 1029.67,-187.5 1029.67,-168.5 911.67,-168.5"/>
<text text-anchor="middle" x="970.67" y="-175.5" font-family="Helvetica,sans-Serif" font-size="10.00">llvm/ADT/StringRef.h</text>
</a>
</g>
</g>
<!-- Node58&#45;&gt;Node53 -->
<g id="edge85" class="edge">
<title>Node58&#45;&gt;Node53</title>
<path fill="none" stroke="midnightblue" d="M1701.96,-229.5C1566.4,-220.14 1195.38,-194.52 1040.27,-183.81"/>
<polygon fill="midnightblue" stroke="midnightblue" points="1040.14,-180.29 1029.93,-183.09 1039.66,-187.27 1040.14,-180.29"/>
</g>
<!-- Node53&#45;&gt;Node3 -->
<g id="edge87" class="edge">
<title>Node53&#45;&gt;Node3</title>
<path fill="none" stroke="midnightblue" d="M979.48,-168.3C991.74,-155.13 1011.03,-129.78 997.67,-112 986.32,-96.88 943.87,-85.2 906.26,-77.53"/>
<polygon fill="midnightblue" stroke="midnightblue" points="906.8,-74.07 896.32,-75.57 905.45,-80.94 906.8,-74.07"/>
</g>
<!-- Node53&#45;&gt;Node7 -->
<g id="edge89" class="edge">
<title>Node53&#45;&gt;Node7</title>
<path fill="none" stroke="midnightblue" d="M1013.5,-168.43C1052.08,-160.32 1110.17,-147.17 1159.67,-132 1183.74,-124.62 1188.18,-117.85 1212.67,-112 1388.32,-70.07 1959.37,-25.02 2109.33,-13.7"/>
<polygon fill="midnightblue" stroke="midnightblue" points="2109.68,-17.18 2119.39,-12.94 2109.15,-10.2 2109.68,-17.18"/>
</g>
<!-- Node53&#45;&gt;Node11 -->
<g id="edge91" class="edge">
<title>Node53&#45;&gt;Node11</title>
<path fill="none" stroke="midnightblue" d="M962.53,-168.22C948.77,-153.98 919.41,-126.02 888.67,-112 809.67,-75.98 781.64,-93.85 696.67,-76 608.61,-57.49 505.65,-32.68 452.85,-19.71"/>
<polygon fill="midnightblue" stroke="midnightblue" points="453.52,-16.28 442.98,-17.29 451.85,-23.07 453.52,-16.28"/>
</g>
<!-- Node53&#45;&gt;Node12 -->
<g id="edge92" class="edge">
<title>Node53&#45;&gt;Node12</title>
<path fill="none" stroke="midnightblue" d="M916.81,-168.47C869.6,-160.67 798.93,-148.21 727.99,-131.88"/>
<polygon fill="midnightblue" stroke="midnightblue" points="728.52,-128.41 717.98,-129.56 726.93,-135.23 728.52,-128.41"/>
</g>
<!-- Node53&#45;&gt;Node13 -->
<g id="edge94" class="edge">
<title>Node53&#45;&gt;Node13</title>
<path fill="none" stroke="midnightblue" d="M966.63,-168.29C959.59,-154.15 943.71,-126.33 921.67,-112 862.38,-73.45 834.89,-94.65 766.67,-76 705.81,-59.36 635.97,-36.52 595.24,-22.81"/>
<polygon fill="midnightblue" stroke="midnightblue" points="596.13,-19.42 585.54,-19.53 593.89,-26.05 596.13,-19.42"/>
</g>
<!-- Node53&#45;&gt;Node14 -->
<g id="edge95" class="edge">
<title>Node53&#45;&gt;Node14</title>
<path fill="none" stroke="midnightblue" d="M996.49,-168.47C1035.68,-155.63 1112.64,-130.83 1178.67,-112 1310.83,-74.31 1469.83,-35.12 1537.09,-18.83"/>
<polygon fill="midnightblue" stroke="midnightblue" points="1538.19,-22.17 1547.08,-16.41 1536.54,-15.36 1538.19,-22.17"/>
</g>
<!-- Node53&#45;&gt;Node28 -->
<g id="edge88" class="edge">
<title>Node53&#45;&gt;Node28</title>
<path fill="none" stroke="midnightblue" d="M1029.75,-171.36C1109.04,-163.58 1254.2,-148.63 1377.67,-132 1590.86,-103.28 1642.03,-81.12 1855.67,-56 2059.28,-32.06 2304.12,-18.04 2401.12,-13.07"/>
<polygon fill="midnightblue" stroke="midnightblue" points="2401.58,-16.55 2411.39,-12.55 2401.23,-9.56 2401.58,-16.55"/>
</g>
<!-- Node53&#45;&gt;Node29 -->
<g id="edge93" class="edge">
<title>Node53&#45;&gt;Node29</title>
<path fill="none" stroke="midnightblue" d="M1029.94,-174.47C1230.01,-165.6 1898.68,-133.32 2448.67,-76 2611.03,-59.08 2804.03,-28.63 2879.33,-16.35"/>
<polygon fill="midnightblue" stroke="midnightblue" points="2880.27,-19.74 2889.57,-14.67 2879.14,-12.84 2880.27,-19.74"/>
</g>
<!-- Node53&#45;&gt;Node25 -->
<g id="edge90" class="edge">
<title>Node53&#45;&gt;Node25</title>
<path fill="none" stroke="midnightblue" d="M1017.32,-168.5C1064.98,-159.72 1141.09,-145.45 1206.67,-132 1207.96,-131.74 1209.26,-131.47 1210.58,-131.19"/>
<polygon fill="midnightblue" stroke="midnightblue" points="1211.74,-134.52 1220.79,-129.01 1210.28,-127.68 1211.74,-134.52"/>
</g>
<!-- Node53&#45;&gt;Node46 -->
<g id="edge86" class="edge">
<title>Node53&#45;&gt;Node46</title>
<path fill="none" stroke="midnightblue" d="M944.84,-168.44C917.42,-159.36 873.89,-144.94 843.24,-134.78"/>
<polygon fill="midnightblue" stroke="midnightblue" points="843.97,-131.34 833.38,-131.52 841.77,-137.98 843.97,-131.34"/>
</g>
<!-- Node59&#45;&gt;Node4 -->
<g id="edge104" class="edge">
<title>Node59&#45;&gt;Node4</title>
<path fill="none" stroke="midnightblue" d="M2437.38,-281.22C2524.93,-269.01 2700.09,-244.59 2848.67,-224 2906.67,-215.96 3071.2,-232.14 3109.67,-188 3115.51,-181.3 3115.37,-174.82 3109.67,-168 3064.47,-113.97 2867.12,-123.8 2797.67,-112 2642.8,-85.68 2604.68,-74.4 2448.67,-56 2265.53,-34.4 2049.28,-21.03 1935.28,-14.93"/>
<polygon fill="midnightblue" stroke="midnightblue" points="1935.41,-11.43 1925.24,-14.4 1935.04,-18.42 1935.41,-11.43"/>
</g>
<!-- Node59&#45;&gt;Node7 -->
<g id="edge105" class="edge">
<title>Node59&#45;&gt;Node7</title>
<path fill="none" stroke="midnightblue" d="M2437.23,-284.36C2543.21,-275.39 2770.61,-255.54 2848.67,-244 2893.51,-237.37 2904.17,-232.58 2948.67,-224 3036.79,-207.01 3198.85,-237.98 3142.67,-168 3070.57,-78.2 2750.46,-73.74 2636.67,-56 2467.9,-29.7 2263.92,-17.06 2182.16,-12.76"/>
<polygon fill="midnightblue" stroke="midnightblue" points="2182.06,-9.25 2171.9,-12.23 2181.7,-16.24 2182.06,-9.25"/>
</g>
<!-- Node59&#45;&gt;Node10 -->
<g id="edge106" class="edge">
<title>Node59&#45;&gt;Node10</title>
<path fill="none" stroke="midnightblue" d="M2336.16,-280.48C2290.07,-271.75 2216.78,-257.56 2153.67,-244 2115.3,-235.76 2106.47,-229.89 2067.67,-224 1850.91,-191.07 1791.65,-225.76 1575.67,-188 1537.56,-181.34 1433.39,-150.36 1378.53,-133.69"/>
<polygon fill="midnightblue" stroke="midnightblue" points="1379.47,-130.32 1368.88,-130.75 1377.43,-137.02 1379.47,-130.32"/>
</g>
<!-- Node59&#45;&gt;Node14 -->
<g id="edge108" class="edge">
<title>Node59&#45;&gt;Node14</title>
<path fill="none" stroke="midnightblue" d="M2354.24,-280.4C2307.59,-266.14 2209.61,-237.84 2124.67,-224 2019.75,-206.9 1734.46,-249.38 1647.67,-188 1594,-150.05 1576.8,-66.65 1571.68,-29.49"/>
<polygon fill="midnightblue" stroke="midnightblue" points="1575.15,-29.04 1570.45,-19.55 1568.2,-29.9 1575.15,-29.04"/>
</g>
<!-- Node59&#45;&gt;Node16 -->
<g id="edge101" class="edge">
<title>Node59&#45;&gt;Node16</title>
<path fill="none" stroke="midnightblue" d="M2388.28,-280.08C2393.93,-272.46 2402.22,-261.26 2409.12,-251.94"/>
<polygon fill="midnightblue" stroke="midnightblue" points="2412.05,-253.87 2415.19,-243.75 2406.42,-249.7 2412.05,-253.87"/>
</g>
<!-- Node59&#45;&gt;Node29 -->
<g id="edge107" class="edge">
<title>Node59&#45;&gt;Node29</title>
<path fill="none" stroke="midnightblue" d="M2437.59,-285.23C2554.68,-277.19 2822.26,-257.93 2912.67,-244 3024.78,-226.73 3090.81,-276.57 3161.67,-188 3194.33,-147.18 3233.19,-156.35 3106.67,-56 3059.22,-18.36 2985.97,-11.12 2944.06,-10.33"/>
<polygon fill="midnightblue" stroke="midnightblue" points="2943.89,-6.82 2933.87,-10.25 2943.84,-13.82 2943.89,-6.82"/>
</g>
<!-- Node59&#45;&gt;Node40 -->
<g id="edge102" class="edge">
<title>Node59&#45;&gt;Node40</title>
<path fill="none" stroke="midnightblue" d="M2374.52,-280.36C2367.9,-271.76 2358.51,-257.87 2354.67,-244 2345.65,-211.45 2340.34,-198.59 2354.67,-168 2360.72,-155.09 2372.48,-144.6 2383.49,-137"/>
<polygon fill="midnightblue" stroke="midnightblue" points="2385.5,-139.87 2392.04,-131.54 2381.73,-133.97 2385.5,-139.87"/>
</g>
<!-- Node59&#45;&gt;Node53 -->
<g id="edge103" class="edge">
<title>Node59&#45;&gt;Node53</title>
<path fill="none" stroke="midnightblue" d="M2325.9,-285.81C2208.74,-279.02 1928.47,-262.23 1693.67,-244 1453.28,-225.34 1168.39,-198.26 1039.77,-185.78"/>
<polygon fill="midnightblue" stroke="midnightblue" points="1039.96,-182.28 1029.67,-184.79 1039.29,-189.25 1039.96,-182.28"/>
</g>
<!-- Node70&#45;&gt;Node3 -->
<g id="edge114" class="edge">
<title>Node70&#45;&gt;Node3</title>
<path fill="none" stroke="midnightblue" d="M1745.07,-285.06C1718.6,-283.46 1687.67,-281.61 1659.67,-280 1369.49,-263.3 1296.08,-271 1006.67,-244 959.25,-239.57 613.07,-223.81 581.67,-188 546.63,-148.04 590.8,-140.54 647.67,-112 684.14,-93.69 728.2,-82.71 765.2,-76.19"/>
<polygon fill="midnightblue" stroke="midnightblue" points="766.15,-79.58 775.43,-74.46 764.99,-72.67 766.15,-79.58"/>
</g>
<!-- Node70&#45;&gt;Node7 -->
<g id="edge115" class="edge">
<title>Node70&#45;&gt;Node7</title>
<path fill="none" stroke="midnightblue" d="M1861.23,-280.46C1917.39,-270.85 2003.38,-255.13 2034.67,-244 2084.87,-226.15 2100.55,-223.06 2140.67,-188 2186.83,-147.66 2200.57,-113.98 2180.67,-56 2176.95,-45.16 2169.44,-34.92 2162.32,-26.96"/>
<polygon fill="midnightblue" stroke="midnightblue" points="2164.67,-24.35 2155.23,-19.55 2159.62,-29.19 2164.67,-24.35"/>
</g>
<!-- Node70&#45;&gt;Node10 -->
<g id="edge116" class="edge">
<title>Node70&#45;&gt;Node10</title>
<path fill="none" stroke="midnightblue" d="M1751.72,-280.44C1650.47,-264.63 1446.52,-228.72 1387.67,-188 1370.74,-176.28 1358.46,-155.75 1351.25,-140.89"/>
<polygon fill="midnightblue" stroke="midnightblue" points="1354.39,-139.34 1347.07,-131.69 1348.02,-142.24 1354.39,-139.34"/>
</g>
<!-- Node70&#45;&gt;Node16 -->
<g id="edge111" class="edge">
<title>Node70&#45;&gt;Node16</title>
<path fill="none" stroke="midnightblue" d="M1874.3,-283.3C1990.74,-273.02 2234.67,-251.5 2353.58,-241.01"/>
<polygon fill="midnightblue" stroke="midnightblue" points="2354,-244.48 2363.66,-240.12 2353.39,-237.51 2354,-244.48"/>
</g>
<!-- Node70&#45;&gt;Node39 -->
<g id="edge112" class="edge">
<title>Node70&#45;&gt;Node39</title>
<path fill="none" stroke="midnightblue" d="M1823.09,-280.37C1852.43,-261.49 1922.55,-216.38 1958.54,-193.24"/>
<polygon fill="midnightblue" stroke="midnightblue" points="1960.8,-195.95 1967.31,-187.59 1957.01,-190.06 1960.8,-195.95"/>
</g>
<!-- Node70&#45;&gt;Node53 -->
<g id="edge113" class="edge">
<title>Node70&#45;&gt;Node53</title>
<path fill="none" stroke="midnightblue" d="M1744.9,-283.13C1661.64,-275.36 1512.64,-260.67 1385.67,-244 1258.6,-227.32 1110.43,-202.91 1030.01,-189.24"/>
<polygon fill="midnightblue" stroke="midnightblue" points="1030.51,-185.78 1020.06,-187.55 1029.33,-192.68 1030.51,-185.78"/>
</g>
<!-- Node77&#45;&gt;Node7 -->
<g id="edge143" class="edge">
<title>Node77&#45;&gt;Node7</title>
<path fill="none" stroke="midnightblue" d="M1918.65,-392.47C1948.6,-384 1995.12,-370.25 2034.67,-356 2056.41,-348.16 2060.22,-341.5 2082.67,-336 2263.78,-291.61 2316,-325.81 2500.67,-300 2546.85,-293.55 2557.48,-286.41 2603.67,-280 2792.31,-253.81 2844.89,-285.9 3030.67,-244 3099.68,-228.44 3139.4,-246.16 3179.67,-188 3220.53,-129 3153.53,-82.08 3086.67,-56 3065.22,-47.63 2352.79,-19.14 2182.14,-12.43"/>
<polygon fill="midnightblue" stroke="midnightblue" points="2182.27,-8.93 2172.14,-12.03 2182,-15.92 2182.27,-8.93"/>
</g>
<!-- Node77&#45;&gt;Node10 -->
<g id="edge145" class="edge">
<title>Node77&#45;&gt;Node10</title>
<path fill="none" stroke="midnightblue" d="M1891.77,-392.42C1901.04,-371.65 1921.31,-317.6 1900.67,-280 1878.36,-239.36 1856.46,-239.22 1812.67,-224 1664.54,-172.52 1611.35,-234.77 1461.67,-188 1451.81,-184.92 1399.33,-155.12 1367.78,-136.95"/>
<polygon fill="midnightblue" stroke="midnightblue" points="1369.13,-133.7 1358.72,-131.73 1365.64,-139.76 1369.13,-133.7"/>
</g>
<!-- Node77&#45;&gt;Node29 -->
<g id="edge147" class="edge">
<title>Node77&#45;&gt;Node29</title>
<path fill="none" stroke="midnightblue" d="M1932.83,-392.49C1970.72,-384.77 2025.96,-372.14 2072.67,-356 2092.97,-348.99 2095.88,-341.38 2116.67,-336 2351.4,-275.23 3075.51,-397.44 3197.67,-188 3230.72,-131.34 3190.2,-85.6 3131.67,-56 3070.12,-24.88 2988.58,-15.28 2944.07,-12.32"/>
<polygon fill="midnightblue" stroke="midnightblue" points="2944.03,-8.81 2933.84,-11.71 2943.62,-15.8 2944.03,-8.81"/>
</g>
<!-- Node77&#45;&gt;Node25 -->
<g id="edge144" class="edge">
<title>Node77&#45;&gt;Node25</title>
<path fill="none" stroke="midnightblue" d="M1874.93,-392.5C1841.28,-370.45 1746.63,-310.97 1659.67,-280 1582.4,-252.48 1556.4,-270.17 1478.67,-244 1424.79,-225.86 1414.04,-214.35 1363.67,-188 1331.31,-171.07 1294.65,-150.24 1271.35,-136.8"/>
<polygon fill="midnightblue" stroke="midnightblue" points="1272.94,-133.67 1262.54,-131.69 1269.44,-139.73 1272.94,-133.67"/>
</g>
<!-- Node77&#45;&gt;Node37 -->
<g id="edge146" class="edge">
<title>Node77&#45;&gt;Node37</title>
<path fill="none" stroke="midnightblue" d="M1908.79,-392.46C1930.97,-383.47 1966.82,-368.87 1997.67,-356 2018.62,-347.26 2022.65,-341.52 2044.67,-336 2218.66,-292.35 2270.97,-336.15 2446.67,-300 2485.84,-291.94 2765.21,-220.38 2788.67,-188 2801.33,-170.53 2781.45,-150.58 2763.56,-137.45"/>
<polygon fill="midnightblue" stroke="midnightblue" points="2765.3,-134.4 2755.09,-131.59 2761.32,-140.15 2765.3,-134.4"/>
</g>
<!-- Node77&#45;&gt;Node46 -->
<g id="edge121" class="edge">
<title>Node77&#45;&gt;Node46</title>
<path fill="none" stroke="midnightblue" d="M1835.56,-400.18C1638.55,-396.88 945.56,-383.42 850.67,-356 802.48,-342.08 777.85,-343.39 752.67,-300 721.37,-246.07 768.97,-172.37 793.96,-139.73"/>
<polygon fill="midnightblue" stroke="midnightblue" points="796.87,-141.68 800.32,-131.66 791.38,-137.34 796.87,-141.68"/>
</g>
<!-- Node77&#45;&gt;Node58 -->
<g id="edge119" class="edge">
<title>Node77&#45;&gt;Node58</title>
<path fill="none" stroke="midnightblue" d="M1888.6,-392.4C1891.08,-367.8 1896.79,-297.75 1883.67,-280 1873.66,-266.46 1835.42,-254.27 1802.81,-246"/>
<polygon fill="midnightblue" stroke="midnightblue" points="1803.46,-242.56 1792.91,-243.57 1801.79,-249.36 1803.46,-242.56"/>
</g>
<!-- Node77&#45;&gt;Node53 -->
<g id="edge118" class="edge">
<title>Node77&#45;&gt;Node53</title>
<path fill="none" stroke="midnightblue" d="M1835.45,-400.55C1623.44,-398.19 835.06,-383.78 766.67,-300 719.94,-242.76 838.96,-206.31 914.31,-189.63"/>
<polygon fill="midnightblue" stroke="midnightblue" points="915.14,-193.04 924.18,-187.51 913.67,-186.19 915.14,-193.04"/>
</g>
<!-- Node77&#45;&gt;Node59 -->
<g id="edge122" class="edge">
<title>Node77&#45;&gt;Node59</title>
<path fill="none" stroke="midnightblue" d="M1899.81,-392.3C1920.57,-377.91 1964.74,-349.42 2006.67,-336 2111.2,-302.55 2239.35,-293.61 2315.55,-291.42"/>
<polygon fill="midnightblue" stroke="midnightblue" points="2316.04,-294.91 2325.94,-291.15 2315.86,-287.91 2316.04,-294.91"/>
</g>
<!-- Node77&#45;&gt;Node69 -->
<g id="edge123" class="edge">
<title>Node77&#45;&gt;Node69</title>
<path fill="none" stroke="midnightblue" d="M1934.89,-392.44C1987.42,-382.92 2072.28,-367.55 2128.52,-357.36"/>
<polygon fill="midnightblue" stroke="midnightblue" points="2129.46,-360.74 2138.67,-355.52 2128.21,-353.86 2129.46,-360.74"/>
</g>
<!-- Node77&#45;&gt;Node70 -->
<g id="edge124" class="edge">
<title>Node77&#45;&gt;Node70</title>
<path fill="none" stroke="midnightblue" d="M1881.27,-392.42C1874.57,-383.41 1863.78,-368.78 1854.67,-356 1843.26,-339.99 1830.53,-321.55 1821.53,-308.41"/>
<polygon fill="midnightblue" stroke="midnightblue" points="1824.24,-306.17 1815.71,-299.88 1818.46,-310.12 1824.24,-306.17"/>
</g>
<!-- Node83 -->
<g id="node40" class="node">
<title>Node83</title>
<g id="a_node40"><a xlink:href="ilist__node_8h.html" target="_top" xlink:title=" ">
<polygon fill="none" stroke="red" points="1529.17,-280.5 1529.17,-299.5 1650.17,-299.5 1650.17,-280.5 1529.17,-280.5"/>
<text text-anchor="middle" x="1589.67" y="-287.5" font-family="Helvetica,sans-Serif" font-size="10.00">llvm/ADT/ilist_node.h</text>
</a>
</g>
</g>
<!-- Node77&#45;&gt;Node83 -->
<g id="edge120" class="edge">
<title>Node77&#45;&gt;Node83</title>
<path fill="none" stroke="midnightblue" d="M1864.29,-392.37C1811.52,-372.89 1683.08,-325.48 1622.42,-303.09"/>
<polygon fill="midnightblue" stroke="midnightblue" points="1623.54,-299.77 1612.95,-299.59 1621.11,-306.34 1623.54,-299.77"/>
</g>
<!-- Node77&#45;&gt;Node115 -->
<g id="edge125" class="edge">
<title>Node77&#45;&gt;Node115</title>
<path fill="none" stroke="midnightblue" d="M1835.51,-392.74C1775.12,-383.18 1675.65,-367.42 1610.64,-357.13"/>
<polygon fill="midnightblue" stroke="midnightblue" points="1610.94,-353.63 1600.52,-355.53 1609.85,-360.55 1610.94,-353.63"/>
</g>
<!-- Node88 -->
<g id="node43" class="node">
<title>Node88</title>
<g id="a_node43"><a xlink:href="Value_8h.html" target="_top" xlink:title=" ">
<polygon fill="none" stroke="red" points="1935.67,-224.5 1935.67,-243.5 2025.67,-243.5 2025.67,-224.5 1935.67,-224.5"/>
<text text-anchor="middle" x="1980.67" y="-231.5" font-family="Helvetica,sans-Serif" font-size="10.00">llvm/IR/Value.h</text>
</a>
</g>
</g>
<!-- Node77&#45;&gt;Node88 -->
<g id="edge142" class="edge">
<title>Node77&#45;&gt;Node88</title>
<path fill="none" stroke="midnightblue" d="M1894.48,-392.2C1901.32,-383.24 1912.06,-368.89 1920.67,-356 1936.85,-331.79 1941.66,-326.05 1954.67,-300 1962.31,-284.71 1969.4,-266.6 1974.24,-253.39"/>
<polygon fill="midnightblue" stroke="midnightblue" points="1977.67,-254.2 1977.74,-243.61 1971.08,-251.85 1977.67,-254.2"/>
</g>
<!-- Node108 -->
<g id="node44" class="node">
<title>Node108</title>
<g id="a_node44"><a xlink:href="SymbolTableListTraits_8h.html" target="_top" xlink:title=" ">
<polygon fill="none" stroke="red" points="775.17,-280.5 775.17,-299.5 944.17,-299.5 944.17,-280.5 775.17,-280.5"/>
<text text-anchor="middle" x="859.67" y="-287.5" font-family="Helvetica,sans-Serif" font-size="10.00">llvm/IR/SymbolTableListTraits.h</text>
</a>
</g>
</g>
<!-- Node77&#45;&gt;Node108 -->
<g id="edge140" class="edge">
<title>Node77&#45;&gt;Node108</title>
<path fill="none" stroke="midnightblue" d="M1835.49,-400.67C1714.39,-399.29 1405.13,-392.18 1149.67,-356 1059.5,-343.23 955.8,-317.17 900.1,-302.21"/>
<polygon fill="midnightblue" stroke="midnightblue" points="900.84,-298.79 890.27,-299.56 899.01,-305.55 900.84,-298.79"/>
</g>
<!-- Node115&#45;&gt;Node103 -->
<g id="edge126" class="edge">
<title>Node115&#45;&gt;Node103</title>
<path fill="none" stroke="midnightblue" d="M1505.47,-336.44C1460.02,-327 1386.83,-311.8 1337.76,-301.61"/>
<polygon fill="midnightblue" stroke="midnightblue" points="1338.18,-298.12 1327.68,-299.52 1336.76,-304.98 1338.18,-298.12"/>
</g>
<!-- Node103&#45;&gt;Node3 -->
<g id="edge135" class="edge">
<title>Node103&#45;&gt;Node3</title>
<path fill="none" stroke="midnightblue" d="M1244.05,-286.79C1088.36,-278.28 556.95,-245.21 509.67,-188 489.43,-163.51 551.2,-129.13 593.67,-112 648.75,-89.78 715.09,-78.48 765.44,-72.76"/>
<polygon fill="midnightblue" stroke="midnightblue" points="766.05,-76.22 775.61,-71.66 765.29,-69.26 766.05,-76.22"/>
</g>
<!-- Node103&#45;&gt;Node7 -->
<g id="edge136" class="edge">
<title>Node103&#45;&gt;Node7</title>
<path fill="none" stroke="midnightblue" d="M1329.2,-281.03C1449.95,-258.34 1786.84,-194.61 1796.67,-188 1854.99,-148.8 1824.86,-94.45 1883.67,-56 1920.28,-32.06 2046.29,-18.9 2109.26,-13.68"/>
<polygon fill="midnightblue" stroke="midnightblue" points="2109.84,-17.15 2119.53,-12.86 2109.28,-10.17 2109.84,-17.15"/>
</g>
<!-- Node103&#45;&gt;Node10 -->
<g id="edge138" class="edge">
<title>Node103&#45;&gt;Node10</title>
<path fill="none" stroke="midnightblue" d="M1286.97,-280.39C1287.96,-259.99 1292.16,-207.48 1309.67,-168 1314.33,-157.5 1321.85,-147.18 1328.64,-139.08"/>
<polygon fill="midnightblue" stroke="midnightblue" points="1331.31,-141.34 1335.3,-131.52 1326.06,-136.71 1331.31,-141.34"/>
</g>
<!-- Node103&#45;&gt;Node25 -->
<g id="edge137" class="edge">
<title>Node103&#45;&gt;Node25</title>
<path fill="none" stroke="midnightblue" d="M1280.28,-280.4C1268.3,-263.67 1242.82,-225.11 1233.67,-188 1229.79,-172.26 1234.38,-154.22 1239.32,-141.15"/>
<polygon fill="midnightblue" stroke="midnightblue" points="1242.57,-142.45 1243.19,-131.87 1236.11,-139.75 1242.57,-142.45"/>
</g>
<!-- Node103&#45;&gt;Node36 -->
<g id="edge139" class="edge">
<title>Node103&#45;&gt;Node36</title>
<path fill="none" stroke="midnightblue" d="M1329.29,-280.76C1331.11,-280.49 1332.91,-280.23 1334.67,-280 1545.91,-252.33 1602.12,-276.5 1812.67,-244 1866.37,-235.71 2002.06,-212.26 2050.67,-188 2075.42,-175.65 2099.14,-154.01 2113.79,-139.12"/>
<polygon fill="midnightblue" stroke="midnightblue" points="2116.56,-141.28 2120.94,-131.64 2111.5,-136.44 2116.56,-141.28"/>
</g>
<!-- Node103&#45;&gt;Node46 -->
<g id="edge127" class="edge">
<title>Node103&#45;&gt;Node46</title>
<path fill="none" stroke="midnightblue" d="M1243.87,-286.57C1188,-282.4 1087.81,-271.49 1006.67,-244 956.95,-227.16 947.51,-215.31 902.67,-188 876,-171.76 846.5,-151.13 827.55,-137.52"/>
<polygon fill="midnightblue" stroke="midnightblue" points="829.55,-134.65 819.4,-131.62 825.45,-140.32 829.55,-134.65"/>
</g>
<!-- Node103&#45;&gt;Node88 -->
<g id="edge128" class="edge">
<title>Node103&#45;&gt;Node88</title>
<path fill="none" stroke="midnightblue" d="M1329.26,-281.85C1334.11,-281.16 1338.99,-280.52 1343.67,-280 1582.71,-253.22 1643.9,-263.11 1883.67,-244 1897.11,-242.93 1911.57,-241.65 1925.13,-240.4"/>
<polygon fill="midnightblue" stroke="midnightblue" points="1925.66,-243.87 1935.29,-239.46 1925.01,-236.9 1925.66,-243.87"/>
</g>
<!-- Node88&#45;&gt;Node7 -->
<g id="edge132" class="edge">
<title>Node88&#45;&gt;Node7</title>
<path fill="none" stroke="midnightblue" d="M2025.74,-224.52C2072.2,-212.92 2141.08,-186.91 2164.67,-132 2179.44,-97.62 2164.93,-53.34 2154.41,-29.01"/>
<polygon fill="midnightblue" stroke="midnightblue" points="2157.46,-27.25 2150.11,-19.61 2151.09,-30.16 2157.46,-27.25"/>
</g>
<!-- Node88&#45;&gt;Node36 -->
<g id="edge133" class="edge">
<title>Node88&#45;&gt;Node36</title>
<path fill="none" stroke="midnightblue" d="M2011.96,-224.35C2033.75,-217.19 2062.58,-205.36 2083.67,-188 2099.51,-174.96 2112.2,-154.98 2120.01,-140.62"/>
<polygon fill="midnightblue" stroke="midnightblue" points="2123.13,-142.21 2124.62,-131.72 2116.91,-138.99 2123.13,-142.21"/>
</g>
<!-- Node88&#45;&gt;Node37 -->
<g id="edge134" class="edge">
<title>Node88&#45;&gt;Node37</title>
<path fill="none" stroke="midnightblue" d="M2025.87,-232C2185.55,-228.25 2714.88,-213.9 2739.67,-188 2751.24,-175.92 2749.75,-156.03 2746.44,-141.44"/>
<polygon fill="midnightblue" stroke="midnightblue" points="2749.74,-140.25 2743.74,-131.52 2742.99,-142.09 2749.74,-140.25"/>
</g>
<!-- Node88&#45;&gt;Node39 -->
<g id="edge129" class="edge">
<title>Node88&#45;&gt;Node39</title>
<path fill="none" stroke="midnightblue" d="M1980.67,-224.08C1980.67,-217.01 1980.67,-206.86 1980.67,-197.99"/>
<polygon fill="midnightblue" stroke="midnightblue" points="1984.17,-197.75 1980.67,-187.75 1977.17,-197.75 1984.17,-197.75"/>
</g>
<!-- Node88&#45;&gt;Node46 -->
<g id="edge131" class="edge">
<title>Node88&#45;&gt;Node46</title>
<path fill="none" stroke="midnightblue" d="M1935.53,-229.28C1845.42,-221.81 1636.82,-204.3 1461.67,-188 1255.58,-168.82 1013.18,-144.19 889.41,-131.46"/>
<polygon fill="midnightblue" stroke="midnightblue" points="889.56,-127.95 879.26,-130.41 888.84,-134.92 889.56,-127.95"/>
</g>
<!-- Node88&#45;&gt;Node53 -->
<g id="edge130" class="edge">
<title>Node88&#45;&gt;Node53</title>
<path fill="none" stroke="midnightblue" d="M1935.39,-230.57C1901.58,-228.76 1854.23,-226.22 1812.67,-224 1525.74,-208.65 1183.8,-190.38 1039.89,-182.7"/>
<polygon fill="midnightblue" stroke="midnightblue" points="1040.05,-179.2 1029.88,-182.16 1039.68,-186.19 1040.05,-179.2"/>
</g>
<!-- Node108&#45;&gt;Node25 -->
<g id="edge141" class="edge">
<title>Node108&#45;&gt;Node25</title>
<path fill="none" stroke="midnightblue" d="M874.7,-280.5C912.36,-259.43 1014.15,-203.92 1103.67,-168 1139.44,-153.65 1181.67,-140.93 1211.11,-132.7"/>
<polygon fill="midnightblue" stroke="midnightblue" points="1212.25,-136.02 1220.96,-129.99 1210.39,-129.27 1212.25,-136.02"/>
</g>
<!-- Node96&#45;&gt;Node10 -->
<g id="edge166" class="edge">
<title>Node96&#45;&gt;Node10</title>
<path fill="none" stroke="midnightblue" d="M1217.7,-336.38C1220.81,-323.73 1227.29,-299.53 1235.67,-280 1258.2,-227.52 1264.16,-213.5 1298.67,-168 1306.75,-157.35 1317.24,-146.72 1326.06,-138.46"/>
<polygon fill="midnightblue" stroke="midnightblue" points="1328.54,-140.94 1333.57,-131.62 1323.82,-135.77 1328.54,-140.94"/>
</g>
<!-- Node96&#45;&gt;Node14 -->
<g id="edge167" class="edge">
<title>Node96&#45;&gt;Node14</title>
<path fill="none" stroke="midnightblue" d="M1157.92,-343.61C1071.76,-340.54 904.88,-330.8 766.67,-300 693.54,-283.7 676.31,-274.02 607.67,-244 554.56,-220.77 481.84,-222.47 501.67,-168 545.41,-47.85 640.31,-75.58 766.67,-56 1063.12,-10.07 1427.56,-9.54 1537.07,-10.55"/>
<polygon fill="midnightblue" stroke="midnightblue" points="1537.11,-14.05 1547.15,-10.66 1537.19,-7.05 1537.11,-14.05"/>
</g>
<!-- Node96&#45;&gt;Node16 -->
<g id="edge149" class="edge">
<title>Node96&#45;&gt;Node16</title>
<path fill="none" stroke="midnightblue" d="M1273.39,-342.14C1389.24,-336.18 1658.3,-321.19 1883.67,-300 2053.02,-284.08 2251.49,-258.23 2353.5,-244.41"/>
<polygon fill="midnightblue" stroke="midnightblue" points="2354.22,-247.84 2363.66,-243.03 2353.28,-240.91 2354.22,-247.84"/>
</g>
<!-- Node96&#45;&gt;Node31 -->
<g id="edge157" class="edge">
<title>Node96&#45;&gt;Node31</title>
<path fill="none" stroke="midnightblue" d="M1273.45,-342.97C1514.98,-334.46 2431.96,-302.06 2446.67,-300 2483.39,-294.85 2491.11,-286.19 2527.67,-280 2697.12,-251.32 2742.93,-270.91 2912.67,-244 3024.7,-226.24 3090.81,-276.57 3161.67,-188 3197.84,-142.8 3112.08,-99.84 3061.49,-79.41"/>
<polygon fill="midnightblue" stroke="midnightblue" points="3062.48,-76.04 3051.89,-75.64 3059.91,-82.55 3062.48,-76.04"/>
</g>
<!-- Node96&#45;&gt;Node53 -->
<g id="edge158" class="edge">
<title>Node96&#45;&gt;Node53</title>
<path fill="none" stroke="midnightblue" d="M1157.93,-340.72C1099.39,-335.14 1014.3,-323.23 991.67,-300 965.11,-272.72 965.38,-224.62 967.98,-198.02"/>
<polygon fill="midnightblue" stroke="midnightblue" points="971.5,-198.11 969.21,-187.77 964.55,-197.28 971.5,-198.11"/>
</g>
<!-- Node96&#45;&gt;Node83 -->
<g id="edge159" class="edge">
<title>Node96&#45;&gt;Node83</title>
<path fill="none" stroke="midnightblue" d="M1273.29,-336.68C1339.89,-327.07 1449.42,-311.25 1520.55,-300.98"/>
<polygon fill="midnightblue" stroke="midnightblue" points="1521.36,-304.4 1530.75,-299.51 1520.36,-297.47 1521.36,-304.4"/>
</g>
<!-- Node96&#45;&gt;Node103 -->
<g id="edge162" class="edge">
<title>Node96&#45;&gt;Node103</title>
<path fill="none" stroke="midnightblue" d="M1227.08,-336.32C1237.78,-328.18 1254.01,-315.84 1266.83,-306.09"/>
<polygon fill="midnightblue" stroke="midnightblue" points="1269.22,-308.67 1275.06,-299.83 1264.98,-303.1 1269.22,-308.67"/>
</g>
<!-- Node96&#45;&gt;Node88 -->
<g id="edge163" class="edge">
<title>Node96&#45;&gt;Node88</title>
<path fill="none" stroke="midnightblue" d="M1241.95,-336.43C1267.11,-327.99 1305.96,-314.31 1338.67,-300 1356.52,-292.19 1358.91,-285.24 1377.67,-280 1594.81,-219.33 1658.97,-262.42 1883.67,-244 1897.1,-242.9 1911.57,-241.61 1925.13,-240.36"/>
<polygon fill="midnightblue" stroke="midnightblue" points="1925.66,-243.83 1935.29,-239.41 1925.01,-236.86 1925.66,-243.83"/>
</g>
<!-- Node96&#45;&gt;Node108 -->
<g id="edge161" class="edge">
<title>Node96&#45;&gt;Node108</title>
<path fill="none" stroke="midnightblue" d="M1159.26,-336.44C1095.86,-326.83 993.02,-311.23 925.87,-301.04"/>
<polygon fill="midnightblue" stroke="midnightblue" points="926.23,-297.56 915.82,-299.52 925.18,-304.48 926.23,-297.56"/>
</g>
<!-- Node97 -->
<g id="node46" class="node">
<title>Node97</title>
<g id="a_node46"><a xlink:href="Bitfields_8h.html" target="_top" xlink:title=" ">
<polygon fill="none" stroke="black" points="590.17,-168.5 590.17,-187.5 703.17,-187.5 703.17,-168.5 590.17,-168.5"/>
<text text-anchor="middle" x="646.67" y="-175.5" font-family="Helvetica,sans-Serif" font-size="10.00">llvm/ADT/Bitfields.h</text>
</a>
</g>
</g>
<!-- Node96&#45;&gt;Node97 -->
<g id="edge150" class="edge">
<title>Node96&#45;&gt;Node97</title>
<path fill="none" stroke="midnightblue" d="M1203.58,-336.34C1180.06,-319.54 1129.62,-283.84 1120.67,-280 1115.75,-277.89 818.34,-215.15 697.19,-189.63"/>
<polygon fill="midnightblue" stroke="midnightblue" points="697.91,-186.21 687.4,-187.57 696.47,-193.06 697.91,-186.21"/>
</g>
<!-- Node98 -->
<g id="node47" class="node">
<title>Node98</title>
<g id="a_node47"><a xlink:href="DebugLoc_8h.html" target="_top" xlink:title=" ">
<polygon fill="none" stroke="red" points="1000.17,-280.5 1000.17,-299.5 1111.17,-299.5 1111.17,-280.5 1000.17,-280.5"/>
<text text-anchor="middle" x="1055.67" y="-287.5" font-family="Helvetica,sans-Serif" font-size="10.00">llvm/IR/DebugLoc.h</text>
</a>
</g>
</g>
<!-- Node96&#45;&gt;Node98 -->
<g id="edge160" class="edge">
<title>Node96&#45;&gt;Node98</title>
<path fill="none" stroke="midnightblue" d="M1190.32,-336.44C1163.4,-327.36 1120.67,-312.94 1090.58,-302.78"/>
<polygon fill="midnightblue" stroke="midnightblue" points="1091.5,-299.4 1080.9,-299.52 1089.26,-306.03 1091.5,-299.4"/>
</g>
<!-- Node109 -->
<g id="node48" class="node">
<title>Node109</title>
<g id="a_node48"><a xlink:href="AtomicOrdering_8h.html" target="_top" xlink:title=" ">
<polygon fill="none" stroke="black" points="1015.17,-224.5 1015.17,-243.5 1182.17,-243.5 1182.17,-224.5 1015.17,-224.5"/>
<text text-anchor="middle" x="1098.67" y="-231.5" font-family="Helvetica,sans-Serif" font-size="10.00">llvm/Support/AtomicOrdering.h</text>
</a>
</g>
</g>
<!-- Node96&#45;&gt;Node109 -->
<g id="edge164" class="edge">
<title>Node96&#45;&gt;Node109</title>
<path fill="none" stroke="midnightblue" d="M1207.97,-336.26C1196.55,-323.46 1174.26,-299.08 1153.67,-280 1142.25,-269.41 1128.71,-258.32 1117.93,-249.8"/>
<polygon fill="midnightblue" stroke="midnightblue" points="1120,-246.98 1109.96,-243.58 1115.69,-252.49 1120,-246.98"/>
</g>
<!-- Node96&#45;&gt;Node110 -->
<g id="edge168" class="edge">
<title>Node96&#45;&gt;Node110</title>
<path fill="none" stroke="midnightblue" d="M1252.59,-336.44C1293.07,-327.06 1358.09,-311.99 1402.06,-301.8"/>
<polygon fill="midnightblue" stroke="midnightblue" points="1402.97,-305.18 1411.92,-299.52 1401.39,-298.36 1402.97,-305.18"/>
</g>
<!-- Node97&#45;&gt;Node7 -->
<g id="edge151" class="edge">
<title>Node97&#45;&gt;Node7</title>
<path fill="none" stroke="midnightblue" d="M646.23,-168.22C646.06,-153.98 648.01,-126.03 664.67,-112 688.8,-91.69 1198.21,-58.33 1229.67,-56 1405.3,-42.99 1961.38,-18.86 2109.26,-12.55"/>
<polygon fill="midnightblue" stroke="midnightblue" points="2109.74,-16.03 2119.58,-12.11 2109.44,-9.04 2109.74,-16.03"/>
</g>
<!-- Node97&#45;&gt;Node8 -->
<g id="edge152" class="edge">
<title>Node97&#45;&gt;Node8</title>
<path fill="none" stroke="midnightblue" d="M589.8,-170.86C485.62,-159.61 267.03,-136 181.78,-126.79"/>
<polygon fill="midnightblue" stroke="midnightblue" points="182.14,-123.31 171.82,-125.72 181.39,-130.27 182.14,-123.31"/>
</g>
<!-- Node97&#45;&gt;Node10 -->
<g id="edge154" class="edge">
<title>Node97&#45;&gt;Node10</title>
<path fill="none" stroke="midnightblue" d="M703.47,-174.48C814.96,-169.21 1070.16,-155.52 1283.67,-132 1291.77,-131.11 1300.45,-129.93 1308.62,-128.73"/>
<polygon fill="midnightblue" stroke="midnightblue" points="1309.26,-132.17 1318.62,-127.21 1308.21,-125.25 1309.26,-132.17"/>
</g>
<!-- Node97&#45;&gt;Node12 -->
<g id="edge155" class="edge">
<title>Node97&#45;&gt;Node12</title>
<path fill="none" stroke="midnightblue" d="M654.76,-168.08C661.83,-160.3 672.26,-148.8 680.82,-139.37"/>
<polygon fill="midnightblue" stroke="midnightblue" points="683.6,-141.51 687.73,-131.75 678.42,-136.8 683.6,-141.51"/>
</g>
<!-- Node97&#45;&gt;Node13 -->
<g id="edge156" class="edge">
<title>Node97&#45;&gt;Node13</title>
<path fill="none" stroke="midnightblue" d="M640.44,-168.45C628.28,-151.5 601.07,-112.12 583.67,-76 576.37,-60.83 570.15,-42.72 566.02,-29.47"/>
<polygon fill="midnightblue" stroke="midnightblue" points="569.3,-28.22 563.08,-19.65 562.6,-30.24 569.3,-28.22"/>
</g>
<!-- Node97&#45;&gt;Node25 -->
<g id="edge153" class="edge">
<title>Node97&#45;&gt;Node25</title>
<path fill="none" stroke="midnightblue" d="M703.21,-171.92C824.99,-160.98 1109.25,-135.44 1210.8,-126.31"/>
<polygon fill="midnightblue" stroke="midnightblue" points="1211.23,-129.79 1220.88,-125.41 1210.6,-122.82 1211.23,-129.79"/>
</g>
<!-- Node109&#45;&gt;Node25 -->
<g id="edge165" class="edge">
<title>Node109&#45;&gt;Node25</title>
<path fill="none" stroke="midnightblue" d="M1099.11,-224.18C1100.25,-210.37 1104.44,-183.63 1119.67,-168 1132.63,-154.7 1178.19,-140.71 1211.27,-131.93"/>
<polygon fill="midnightblue" stroke="midnightblue" points="1212.29,-135.28 1221.09,-129.38 1210.53,-128.51 1212.29,-135.28"/>
</g>
<!-- Node104&#45;&gt;Node10 -->
<g id="edge171" class="edge">
<title>Node104&#45;&gt;Node10</title>
<path fill="none" stroke="midnightblue" d="M2603.1,-168.74C2600.25,-168.47 2597.43,-168.22 2594.67,-168 2114.4,-129.42 1527.73,-123.91 1379.16,-123.13"/>
<polygon fill="midnightblue" stroke="midnightblue" points="1378.85,-119.63 1368.83,-123.08 1378.82,-126.63 1378.85,-119.63"/>
</g>
<!-- Node104&#45;&gt;Node29 -->
<g id="edge173" class="edge">
<title>Node104&#45;&gt;Node29</title>
<path fill="none" stroke="midnightblue" d="M2669.52,-168.34C2674.37,-154.75 2685.43,-128.31 2702.67,-112 2754.82,-62.67 2835.58,-33.09 2879.89,-19.66"/>
<polygon fill="midnightblue" stroke="midnightblue" points="2880.95,-23 2889.55,-16.81 2878.97,-16.28 2880.95,-23"/>
</g>
<!-- Node104&#45;&gt;Node37 -->
<g id="edge172" class="edge">
<title>Node104&#45;&gt;Node37</title>
<path fill="none" stroke="midnightblue" d="M2678.56,-168.32C2689.82,-160.11 2706.96,-147.6 2720.38,-137.81"/>
<polygon fill="midnightblue" stroke="midnightblue" points="2722.55,-140.56 2728.57,-131.83 2718.42,-134.9 2722.55,-140.56"/>
</g>
<!-- Node104&#45;&gt;Node40 -->
<g id="edge170" class="edge">
<title>Node104&#45;&gt;Node40</title>
<path fill="none" stroke="midnightblue" d="M2625.79,-168.44C2580.69,-159 2508.06,-143.8 2459.37,-133.61"/>
<polygon fill="midnightblue" stroke="midnightblue" points="2459.87,-130.14 2449.36,-131.52 2458.43,-136.99 2459.87,-130.14"/>
</g>
</g>
</svg>
