<?xml version="1.0" encoding="UTF-8" standalone="no"?>
<!DOCTYPE svg PUBLIC "-//W3C//DTD SVG 1.1//EN"
 "http://www.w3.org/Graphics/SVG/1.1/DTD/svg11.dtd">
<!-- Generated by graphviz version 2.43.0 (0)
 -->
<!-- Title: include/llvm/MCA/CustomBehaviour.h Pages: 1 -->
<svg width="842pt" height="162pt"
 viewBox="0.00 0.00 841.50 162.00" xmlns="http://www.w3.org/2000/svg" xmlns:xlink="http://www.w3.org/1999/xlink">
<g id="graph0" class="graph" transform="scale(1 1) rotate(0) translate(4 158)">
<title>include/llvm/MCA/CustomBehaviour.h</title>
<!-- Node1 -->
<g id="node1" class="node">
<title>Node1</title>
<g id="a_node1"><a xlink:title=" ">
<polygon fill="#bfbfbf" stroke="black" points="308,-134.5 308,-153.5 508,-153.5 508,-134.5 308,-134.5"/>
<text text-anchor="middle" x="408" y="-141.5" font-family="Helvetica,sans-Serif" font-size="10.00">include/llvm/MCA/CustomBehaviour.h</text>
</a>
</g>
</g>
<!-- Node2 -->
<g id="node2" class="node">
<title>Node2</title>
<g id="a_node2"><a xlink:href="Context_8h.html" target="_top" xlink:title=" ">
<polygon fill="none" stroke="black" points="0,-73 0,-92 152,-92 152,-73 0,-73"/>
<text text-anchor="middle" x="76" y="-80" font-family="Helvetica,sans-Serif" font-size="10.00">include/llvm/MCA/Context.h</text>
</a>
</g>
</g>
<!-- Node1&#45;&gt;Node2 -->
<g id="edge1" class="edge">
<title>Node1&#45;&gt;Node2</title>
<path fill="none" stroke="midnightblue" d="M350.46,-132.69C286.19,-121.17 183.35,-102.74 123.48,-92.01"/>
<polygon fill="midnightblue" stroke="midnightblue" points="349.97,-136.16 360.43,-134.48 351.21,-129.27 349.97,-136.16"/>
</g>
<!-- Node4 -->
<g id="node4" class="node">
<title>Node4</title>
<g id="a_node4"><a xlink:href="InOrderIssueStage_8h.html" target="_top" xlink:title=" ">
<polygon fill="none" stroke="black" points="170,-67.5 170,-97.5 308,-97.5 308,-67.5 170,-67.5"/>
<text text-anchor="start" x="178" y="-85.5" font-family="Helvetica,sans-Serif" font-size="10.00">include/llvm/MCA/Stages</text>
<text text-anchor="middle" x="239" y="-74.5" font-family="Helvetica,sans-Serif" font-size="10.00">/InOrderIssueStage.h</text>
</a>
</g>
</g>
<!-- Node1&#45;&gt;Node4 -->
<g id="edge3" class="edge">
<title>Node1&#45;&gt;Node4</title>
<path fill="none" stroke="midnightblue" d="M374.21,-131.1C346.71,-121.42 307.84,-107.74 278.83,-97.52"/>
<polygon fill="midnightblue" stroke="midnightblue" points="373.19,-134.46 383.79,-134.48 375.52,-127.85 373.19,-134.46"/>
</g>
<!-- Node6 -->
<g id="node6" class="node">
<title>Node6</title>
<g id="a_node6"><a xlink:href="CustomBehaviour_8cpp.html" target="_top" xlink:title=" ">
<polygon fill="none" stroke="black" points="326,-73 326,-92 490,-92 490,-73 326,-73"/>
<text text-anchor="middle" x="408" y="-80" font-family="Helvetica,sans-Serif" font-size="10.00">lib/MCA/CustomBehaviour.cpp</text>
</a>
</g>
</g>
<!-- Node1&#45;&gt;Node6 -->
<g id="edge6" class="edge">
<title>Node1&#45;&gt;Node6</title>
<path fill="none" stroke="midnightblue" d="M408,-124.32C408,-113.5 408,-100.4 408,-92.01"/>
<polygon fill="midnightblue" stroke="midnightblue" points="404.5,-124.48 408,-134.48 411.5,-124.48 404.5,-124.48"/>
</g>
<!-- Node7 -->
<g id="node7" class="node">
<title>Node7</title>
<g id="a_node7"><a xlink:href="AMDGPUCustomBehaviour_8h.html" target="_top" xlink:title=" ">
<polygon fill="none" stroke="black" points="508.5,-67.5 508.5,-97.5 667.5,-97.5 667.5,-67.5 508.5,-67.5"/>
<text text-anchor="start" x="516.5" y="-85.5" font-family="Helvetica,sans-Serif" font-size="10.00">lib/Target/AMDGPU/MCA</text>
<text text-anchor="middle" x="588" y="-74.5" font-family="Helvetica,sans-Serif" font-size="10.00">/AMDGPUCustomBehaviour.h</text>
</a>
</g>
</g>
<!-- Node1&#45;&gt;Node7 -->
<g id="edge7" class="edge">
<title>Node1&#45;&gt;Node7</title>
<path fill="none" stroke="midnightblue" d="M443.61,-131.23C472.92,-121.54 514.54,-107.78 545.58,-97.52"/>
<polygon fill="midnightblue" stroke="midnightblue" points="442.19,-128.01 433.79,-134.48 444.38,-134.66 442.19,-128.01"/>
</g>
<!-- Node9 -->
<g id="node9" class="node">
<title>Node9</title>
<g id="a_node9"><a xlink:href="X86CustomBehaviour_8h.html" target="_top" xlink:title=" ">
<polygon fill="none" stroke="black" points="691,-67.5 691,-97.5 825,-97.5 825,-67.5 691,-67.5"/>
<text text-anchor="start" x="699" y="-85.5" font-family="Helvetica,sans-Serif" font-size="10.00">lib/Target/X86/MCA</text>
<text text-anchor="middle" x="758" y="-74.5" font-family="Helvetica,sans-Serif" font-size="10.00">/X86CustomBehaviour.h</text>
</a>
</g>
</g>
<!-- Node1&#45;&gt;Node9 -->
<g id="edge9" class="edge">
<title>Node1&#45;&gt;Node9</title>
<path fill="none" stroke="midnightblue" d="M469.81,-132.78C524.15,-123.75 605.35,-110.18 676,-98 680.84,-97.17 685.85,-96.3 690.88,-95.42"/>
<polygon fill="midnightblue" stroke="midnightblue" points="468.94,-129.37 459.65,-134.46 470.09,-136.28 468.94,-129.37"/>
</g>
<!-- Node3 -->
<g id="node3" class="node">
<title>Node3</title>
<g id="a_node3"><a xlink:href="Context_8cpp.html" target="_top" xlink:title=" ">
<polygon fill="none" stroke="black" points="23,-6 23,-25 139,-25 139,-6 23,-6"/>
<text text-anchor="middle" x="81" y="-13" font-family="Helvetica,sans-Serif" font-size="10.00">lib/MCA/Context.cpp</text>
</a>
</g>
</g>
<!-- Node2&#45;&gt;Node3 -->
<g id="edge2" class="edge">
<title>Node2&#45;&gt;Node3</title>
<path fill="none" stroke="midnightblue" d="M77.46,-62.54C78.41,-50.17 79.61,-34.62 80.34,-25.13"/>
<polygon fill="midnightblue" stroke="midnightblue" points="73.95,-62.49 76.67,-72.73 80.93,-63.03 73.95,-62.49"/>
</g>
<!-- Node4&#45;&gt;Node3 -->
<g id="edge4" class="edge">
<title>Node4&#45;&gt;Node3</title>
<path fill="none" stroke="midnightblue" d="M195.15,-63.46C164.62,-50.9 125.3,-34.72 101.68,-25.01"/>
<polygon fill="midnightblue" stroke="midnightblue" points="194.14,-66.83 204.72,-67.4 196.8,-60.35 194.14,-66.83"/>
</g>
<!-- Node5 -->
<g id="node5" class="node">
<title>Node5</title>
<g id="a_node5"><a xlink:href="InOrderIssueStage_8cpp.html" target="_top" xlink:title=" ">
<polygon fill="none" stroke="black" points="161.5,-0.5 161.5,-30.5 316.5,-30.5 316.5,-0.5 161.5,-0.5"/>
<text text-anchor="start" x="169.5" y="-18.5" font-family="Helvetica,sans-Serif" font-size="10.00">lib/MCA/Stages/InOrderIssue</text>
<text text-anchor="middle" x="239" y="-7.5" font-family="Helvetica,sans-Serif" font-size="10.00">Stage.cpp</text>
</a>
</g>
</g>
<!-- Node4&#45;&gt;Node5 -->
<g id="edge5" class="edge">
<title>Node4&#45;&gt;Node5</title>
<path fill="none" stroke="midnightblue" d="M239,-57.11C239,-48.15 239,-38.32 239,-30.58"/>
<polygon fill="midnightblue" stroke="midnightblue" points="235.5,-57.4 239,-67.4 242.5,-57.4 235.5,-57.4"/>
</g>
<!-- Node8 -->
<g id="node8" class="node">
<title>Node8</title>
<g id="a_node8"><a xlink:href="AMDGPUCustomBehaviour_8cpp.html" target="_top" xlink:title=" ">
<polygon fill="none" stroke="black" points="500,-0.5 500,-30.5 670,-30.5 670,-0.5 500,-0.5"/>
<text text-anchor="start" x="508" y="-18.5" font-family="Helvetica,sans-Serif" font-size="10.00">lib/Target/AMDGPU/MCA</text>
<text text-anchor="middle" x="585" y="-7.5" font-family="Helvetica,sans-Serif" font-size="10.00">/AMDGPUCustomBehaviour.cpp</text>
</a>
</g>
</g>
<!-- Node7&#45;&gt;Node8 -->
<g id="edge8" class="edge">
<title>Node7&#45;&gt;Node8</title>
<path fill="none" stroke="midnightblue" d="M586.89,-57.4C586.47,-48.37 586.01,-38.41 585.65,-30.58"/>
<polygon fill="midnightblue" stroke="midnightblue" points="583.39,-57.57 587.35,-67.4 590.38,-57.25 583.39,-57.57"/>
</g>
<!-- Node10 -->
<g id="node10" class="node">
<title>Node10</title>
<g id="a_node10"><a xlink:href="X86CustomBehaviour_8cpp.html" target="_top" xlink:title=" ">
<polygon fill="none" stroke="black" points="688.5,-0.5 688.5,-30.5 833.5,-30.5 833.5,-0.5 688.5,-0.5"/>
<text text-anchor="start" x="696.5" y="-18.5" font-family="Helvetica,sans-Serif" font-size="10.00">lib/Target/X86/MCA</text>
<text text-anchor="middle" x="761" y="-7.5" font-family="Helvetica,sans-Serif" font-size="10.00">/X86CustomBehaviour.cpp</text>
</a>
</g>
</g>
<!-- Node9&#45;&gt;Node10 -->
<g id="edge10" class="edge">
<title>Node9&#45;&gt;Node10</title>
<path fill="none" stroke="midnightblue" d="M759.11,-57.4C759.53,-48.37 759.99,-38.41 760.35,-30.58"/>
<polygon fill="midnightblue" stroke="midnightblue" points="755.62,-57.25 758.65,-67.4 762.61,-57.57 755.62,-57.25"/>
</g>
</g>
</svg>
