<?xml version="1.0" encoding="UTF-8" standalone="no"?>
<!DOCTYPE svg PUBLIC "-//W3C//DTD SVG 1.1//EN"
 "http://www.w3.org/Graphics/SVG/1.1/DTD/svg11.dtd">
<!-- Generated by graphviz version 2.43.0 (0)
 -->
<!-- Title: include/llvm/DebugInfo/PDB/DIA/DIAInjectedSource.h Pages: 1 -->
<svg width="522pt" height="162pt"
 viewBox="0.00 0.00 522.00 162.00" xmlns="http://www.w3.org/2000/svg" xmlns:xlink="http://www.w3.org/1999/xlink">
<g id="graph0" class="graph" transform="scale(1 1) rotate(0) translate(4 158)">
<title>include/llvm/DebugInfo/PDB/DIA/DIAInjectedSource.h</title>
<!-- Node1 -->
<g id="node1" class="node">
<title>Node1</title>
<g id="a_node1"><a xlink:title=" ">
<polygon fill="#bfbfbf" stroke="black" points="232.5,-123.5 232.5,-153.5 393.5,-153.5 393.5,-123.5 232.5,-123.5"/>
<text text-anchor="start" x="240.5" y="-141.5" font-family="Helvetica,sans-Serif" font-size="10.00">include/llvm/DebugInfo</text>
<text text-anchor="middle" x="313" y="-130.5" font-family="Helvetica,sans-Serif" font-size="10.00">/PDB/DIA/DIAInjectedSource.h</text>
</a>
</g>
</g>
<!-- Node2 -->
<g id="node2" class="node">
<title>Node2</title>
<g id="a_node2"><a xlink:href="DIASupport_8h.html" target="_top" xlink:title=" ">
<polygon fill="none" stroke="black" points="195,-62 195,-81 275,-81 275,-62 195,-62"/>
<text text-anchor="middle" x="235" y="-69" font-family="Helvetica,sans-Serif" font-size="10.00">DIASupport.h</text>
</a>
</g>
</g>
<!-- Node1&#45;&gt;Node2 -->
<g id="edge1" class="edge">
<title>Node1&#45;&gt;Node2</title>
<path fill="none" stroke="midnightblue" d="M296.08,-123.4C283.43,-112.86 266.17,-98.48 253.23,-87.69"/>
<polygon fill="midnightblue" stroke="midnightblue" points="255.36,-84.91 245.43,-81.19 250.88,-90.29 255.36,-84.91"/>
</g>
<!-- Node8 -->
<g id="node8" class="node">
<title>Node8</title>
<g id="a_node8"><a xlink:href="IPDBInjectedSource_8h.html" target="_top" xlink:title=" ">
<polygon fill="none" stroke="black" points="365,-56.5 365,-86.5 489,-86.5 489,-56.5 365,-56.5"/>
<text text-anchor="start" x="373" y="-74.5" font-family="Helvetica,sans-Serif" font-size="10.00">llvm/DebugInfo/PDB</text>
<text text-anchor="middle" x="427" y="-63.5" font-family="Helvetica,sans-Serif" font-size="10.00">/IPDBInjectedSource.h</text>
</a>
</g>
</g>
<!-- Node1&#45;&gt;Node8 -->
<g id="edge7" class="edge">
<title>Node1&#45;&gt;Node8</title>
<path fill="none" stroke="midnightblue" d="M337.74,-123.4C354.02,-114.11 375.54,-101.84 393.37,-91.67"/>
<polygon fill="midnightblue" stroke="midnightblue" points="395.36,-94.57 402.31,-86.58 391.89,-88.49 395.36,-94.57"/>
</g>
<!-- Node3 -->
<g id="node3" class="node">
<title>Node3</title>
<g id="a_node3"><a xlink:title=" ">
<polygon fill="none" stroke="#bfbfbf" points="0,-0.5 0,-19.5 62,-19.5 62,-0.5 0,-0.5"/>
<text text-anchor="middle" x="31" y="-7.5" font-family="Helvetica,sans-Serif" font-size="10.00">atlbase.h</text>
</a>
</g>
</g>
<!-- Node2&#45;&gt;Node3 -->
<g id="edge2" class="edge">
<title>Node2&#45;&gt;Node3</title>
<path fill="none" stroke="midnightblue" d="M205.77,-61.98C170.1,-51.57 109.64,-33.94 70.02,-22.38"/>
<polygon fill="midnightblue" stroke="midnightblue" points="70.75,-18.95 60.17,-19.51 68.79,-25.67 70.75,-18.95"/>
</g>
<!-- Node4 -->
<g id="node4" class="node">
<title>Node4</title>
<g id="a_node4"><a xlink:title=" ">
<polygon fill="none" stroke="#bfbfbf" points="80,-0.5 80,-19.5 148,-19.5 148,-0.5 80,-0.5"/>
<text text-anchor="middle" x="114" y="-7.5" font-family="Helvetica,sans-Serif" font-size="10.00">windows.h</text>
</a>
</g>
</g>
<!-- Node2&#45;&gt;Node4 -->
<g id="edge3" class="edge">
<title>Node2&#45;&gt;Node4</title>
<path fill="none" stroke="midnightblue" d="M217.66,-61.98C197.45,-52.03 163.81,-35.49 140.36,-23.96"/>
<polygon fill="midnightblue" stroke="midnightblue" points="141.82,-20.78 131.3,-19.51 138.73,-27.06 141.82,-20.78"/>
</g>
<!-- Node5 -->
<g id="node5" class="node">
<title>Node5</title>
<g id="a_node5"><a xlink:title=" ">
<polygon fill="none" stroke="#bfbfbf" points="166.5,-0.5 166.5,-19.5 229.5,-19.5 229.5,-0.5 166.5,-0.5"/>
<text text-anchor="middle" x="198" y="-7.5" font-family="Helvetica,sans-Serif" font-size="10.00">cvconst.h</text>
</a>
</g>
</g>
<!-- Node2&#45;&gt;Node5 -->
<g id="edge4" class="edge">
<title>Node2&#45;&gt;Node5</title>
<path fill="none" stroke="midnightblue" d="M229.7,-61.98C224.26,-53.23 215.64,-39.37 208.76,-28.31"/>
<polygon fill="midnightblue" stroke="midnightblue" points="211.54,-26.15 203.29,-19.51 205.6,-29.85 211.54,-26.15"/>
</g>
<!-- Node6 -->
<g id="node6" class="node">
<title>Node6</title>
<g id="a_node6"><a xlink:title=" ">
<polygon fill="none" stroke="#bfbfbf" points="247.5,-0.5 247.5,-19.5 294.5,-19.5 294.5,-0.5 247.5,-0.5"/>
<text text-anchor="middle" x="271" y="-7.5" font-family="Helvetica,sans-Serif" font-size="10.00">dia2.h</text>
</a>
</g>
</g>
<!-- Node2&#45;&gt;Node6 -->
<g id="edge5" class="edge">
<title>Node2&#45;&gt;Node6</title>
<path fill="none" stroke="midnightblue" d="M240.16,-61.98C245.45,-53.23 253.84,-39.37 260.53,-28.31"/>
<polygon fill="midnightblue" stroke="midnightblue" points="263.67,-29.88 265.85,-19.51 257.68,-26.25 263.67,-29.88"/>
</g>
<!-- Node7 -->
<g id="node7" class="node">
<title>Node7</title>
<g id="a_node7"><a xlink:title=" ">
<polygon fill="none" stroke="#bfbfbf" points="312.5,-0.5 312.5,-19.5 383.5,-19.5 383.5,-0.5 312.5,-0.5"/>
<text text-anchor="middle" x="348" y="-7.5" font-family="Helvetica,sans-Serif" font-size="10.00">diacreate.h</text>
</a>
</g>
</g>
<!-- Node2&#45;&gt;Node7 -->
<g id="edge6" class="edge">
<title>Node2&#45;&gt;Node7</title>
<path fill="none" stroke="midnightblue" d="M251.19,-61.98C269.9,-52.12 300.92,-35.79 322.8,-24.27"/>
<polygon fill="midnightblue" stroke="midnightblue" points="324.62,-27.27 331.84,-19.51 321.36,-21.07 324.62,-27.27"/>
</g>
<!-- Node9 -->
<g id="node9" class="node">
<title>Node9</title>
<g id="a_node9"><a xlink:title=" ">
<polygon fill="none" stroke="#bfbfbf" points="402,-0.5 402,-19.5 452,-19.5 452,-0.5 402,-0.5"/>
<text text-anchor="middle" x="427" y="-7.5" font-family="Helvetica,sans-Serif" font-size="10.00">cstdint</text>
</a>
</g>
</g>
<!-- Node8&#45;&gt;Node9 -->
<g id="edge8" class="edge">
<title>Node8&#45;&gt;Node9</title>
<path fill="none" stroke="midnightblue" d="M427,-56.4C427,-48.47 427,-38.46 427,-29.86"/>
<polygon fill="midnightblue" stroke="midnightblue" points="430.5,-29.66 427,-19.66 423.5,-29.66 430.5,-29.66"/>
</g>
<!-- Node10 -->
<g id="node10" class="node">
<title>Node10</title>
<g id="a_node10"><a xlink:title=" ">
<polygon fill="none" stroke="#bfbfbf" points="470,-0.5 470,-19.5 514,-19.5 514,-0.5 470,-0.5"/>
<text text-anchor="middle" x="492" y="-7.5" font-family="Helvetica,sans-Serif" font-size="10.00">string</text>
</a>
</g>
</g>
<!-- Node8&#45;&gt;Node10 -->
<g id="edge9" class="edge">
<title>Node8&#45;&gt;Node10</title>
<path fill="none" stroke="midnightblue" d="M442.4,-56.4C452.24,-47.4 464.99,-35.72 475.11,-26.47"/>
<polygon fill="midnightblue" stroke="midnightblue" points="477.53,-28.99 482.54,-19.66 472.8,-23.83 477.53,-28.99"/>
</g>
</g>
</svg>
