<?xml version="1.0" encoding="UTF-8" standalone="no"?>
<!DOCTYPE svg PUBLIC "-//W3C//DTD SVG 1.1//EN"
 "http://www.w3.org/Graphics/SVG/1.1/DTD/svg11.dtd">
<!-- Generated by graphviz version 2.43.0 (0)
 -->
<!-- Title: lib/Target/LoongArch Pages: 1 -->
<svg width="312pt" height="303pt"
 viewBox="0.00 0.00 312.00 303.00" xmlns="http://www.w3.org/2000/svg" xmlns:xlink="http://www.w3.org/1999/xlink">
<g id="graph0" class="graph" transform="scale(1 1) rotate(0) translate(4 299)">
<title>lib/Target/LoongArch</title>
<g id="clust1" class="cluster">
<title>clusterdir_794e483eb1cc7921d35fd149d9cc325b</title>
<g id="a_clust1"><a xlink:href="dir_794e483eb1cc7921d35fd149d9cc325b.html" target="_top" xlink:title="Target">
<polygon fill="#ddddee" stroke="black" points="8,-56 8,-287 296,-287 296,-56 8,-56"/>
<text text-anchor="middle" x="152" y="-275" font-family="Helvetica,sans-Serif" font-size="10.00">Target</text>
</a>
</g>
</g>
<g id="clust2" class="cluster">
<title>clusterdir_8993447dfe7bd991ad9979871c8ba9dc</title>
<g id="a_clust2"><a xlink:href="dir_8993447dfe7bd991ad9979871c8ba9dc.html" target="_top">
<polygon fill="#eeeeff" stroke="black" points="16,-64 16,-260 288,-260 288,-64 16,-64"/>
</a>
</g>
</g>
<!-- dir_8993447dfe7bd991ad9979871c8ba9dc -->
<g id="node1" class="node">
<title>dir_8993447dfe7bd991ad9979871c8ba9dc</title>
<text text-anchor="middle" x="246" y="-231.5" font-family="Helvetica,sans-Serif" font-size="10.00">LoongArch</text>
</g>
<!-- dir_4e1285100d3b0e075daeb834136d911d -->
<g id="node2" class="node">
<title>dir_4e1285100d3b0e075daeb834136d911d</title>
<g id="a_node2"><a xlink:href="dir_4e1285100d3b0e075daeb834136d911d.html" target="_top" xlink:title="AsmParser">
<polygon fill="white" stroke="black" points="92,-252 24,-252 24,-216 92,-216 92,-252"/>
<text text-anchor="middle" x="58" y="-231.5" font-family="Helvetica,sans-Serif" font-size="10.00">AsmParser</text>
</a>
</g>
</g>
<!-- dir_494cc84ab686510b993d5b10bb712d31 -->
<g id="node4" class="node">
<title>dir_494cc84ab686510b993d5b10bb712d31</title>
<g id="a_node4"><a xlink:href="dir_494cc84ab686510b993d5b10bb712d31.html" target="_top" xlink:title="MCTargetDesc">
<polygon fill="white" stroke="black" points="131,-180 45,-180 45,-144 131,-144 131,-180"/>
<text text-anchor="middle" x="88" y="-159.5" font-family="Helvetica,sans-Serif" font-size="10.00">MCTargetDesc</text>
</a>
</g>
</g>
<!-- dir_4e1285100d3b0e075daeb834136d911d&#45;&gt;dir_494cc84ab686510b993d5b10bb712d31 -->
<g id="edge3" class="edge">
<title>dir_4e1285100d3b0e075daeb834136d911d&#45;&gt;dir_494cc84ab686510b993d5b10bb712d31</title>
<path fill="none" stroke="black" d="M65.42,-215.7C68.79,-207.81 72.87,-198.3 76.62,-189.55"/>
<polygon fill="black" stroke="black" points="79.95,-190.67 80.67,-180.1 73.51,-187.92 79.95,-190.67"/>
<g id="a_edge3&#45;headlabel"><a xlink:href="dir_000141_000143.html" target="_top" xlink:title="2">
<text text-anchor="middle" x="81.14" y="-192.6" font-family="Helvetica,sans-Serif" font-size="10.00">2</text>
</a>
</g>
</g>
<!-- dir_bcb2a15a8ce8434dac55e5edbfd15800 -->
<g id="node5" class="node">
<title>dir_bcb2a15a8ce8434dac55e5edbfd15800</title>
<g id="a_node5"><a xlink:href="dir_bcb2a15a8ce8434dac55e5edbfd15800.html" target="_top" xlink:title="TargetInfo">
<polygon fill="white" stroke="black" points="112.5,-108 47.5,-108 47.5,-72 112.5,-72 112.5,-108"/>
<text text-anchor="middle" x="80" y="-87.5" font-family="Helvetica,sans-Serif" font-size="10.00">TargetInfo</text>
</a>
</g>
</g>
<!-- dir_4e1285100d3b0e075daeb834136d911d&#45;&gt;dir_bcb2a15a8ce8434dac55e5edbfd15800 -->
<g id="edge2" class="edge">
<title>dir_4e1285100d3b0e075daeb834136d911d&#45;&gt;dir_bcb2a15a8ce8434dac55e5edbfd15800</title>
<path fill="none" stroke="black" d="M47.91,-215.96C38.52,-197.81 27.19,-168.4 36,-144 39.75,-133.6 46.54,-123.8 53.67,-115.52"/>
<polygon fill="black" stroke="black" points="56.32,-117.81 60.53,-108.08 51.17,-113.06 56.32,-117.81"/>
<g id="a_edge2&#45;headlabel"><a xlink:href="dir_000141_000144.html" target="_top" xlink:title="1">
<text text-anchor="middle" x="55.97" y="-119.87" font-family="Helvetica,sans-Serif" font-size="10.00">1</text>
</a>
</g>
</g>
<!-- dir_d44c64559bbebec7f509842c48db8b23 -->
<g id="node6" class="node">
<title>dir_d44c64559bbebec7f509842c48db8b23</title>
<g id="a_node6"><a xlink:href="dir_d44c64559bbebec7f509842c48db8b23.html" target="_top" xlink:title="include">
<polygon fill="none" stroke="red" points="187,-36 133,-36 133,0 187,0 187,-36"/>
<text text-anchor="middle" x="160" y="-15.5" font-family="Helvetica,sans-Serif" font-size="10.00">include</text>
</a>
</g>
</g>
<!-- dir_4e1285100d3b0e075daeb834136d911d&#45;&gt;dir_d44c64559bbebec7f509842c48db8b23 -->
<g id="edge1" class="edge">
<title>dir_4e1285100d3b0e075daeb834136d911d&#45;&gt;dir_d44c64559bbebec7f509842c48db8b23</title>
<path fill="none" stroke="black" d="M92.01,-219.46C109.24,-210.8 128.83,-197.81 140,-180 165.8,-138.88 165.92,-80.15 163.25,-46.17"/>
<polygon fill="black" stroke="black" points="166.72,-45.69 162.32,-36.05 159.75,-46.33 166.72,-45.69"/>
<g id="a_edge1&#45;headlabel"><a xlink:href="dir_000141_000001.html" target="_top" xlink:title="10">
<text text-anchor="middle" x="169.88" y="-46.51" font-family="Helvetica,sans-Serif" font-size="10.00">10</text>
</a>
</g>
</g>
<!-- dir_f6842234ee2576f0de8b50968ad4a89a -->
<g id="node3" class="node">
<title>dir_f6842234ee2576f0de8b50968ad4a89a</title>
<g id="a_node3"><a xlink:href="dir_f6842234ee2576f0de8b50968ad4a89a.html" target="_top" xlink:title="Disassembler">
<polygon fill="white" stroke="black" points="193.5,-252 110.5,-252 110.5,-216 193.5,-216 193.5,-252"/>
<text text-anchor="middle" x="152" y="-231.5" font-family="Helvetica,sans-Serif" font-size="10.00">Disassembler</text>
</a>
</g>
</g>
<!-- dir_f6842234ee2576f0de8b50968ad4a89a&#45;&gt;dir_494cc84ab686510b993d5b10bb712d31 -->
<g id="edge7" class="edge">
<title>dir_f6842234ee2576f0de8b50968ad4a89a&#45;&gt;dir_494cc84ab686510b993d5b10bb712d31</title>
<path fill="none" stroke="black" d="M136.18,-215.7C128.43,-207.22 118.96,-196.86 110.48,-187.58"/>
<polygon fill="black" stroke="black" points="112.97,-185.12 103.64,-180.1 107.8,-189.85 112.97,-185.12"/>
<g id="a_edge7&#45;headlabel"><a xlink:href="dir_000142_000143.html" target="_top" xlink:title="2">
<text text-anchor="middle" x="117.49" y="-183.36" font-family="Helvetica,sans-Serif" font-size="10.00">2</text>
</a>
</g>
</g>
<!-- dir_f6842234ee2576f0de8b50968ad4a89a&#45;&gt;dir_bcb2a15a8ce8434dac55e5edbfd15800 -->
<g id="edge6" class="edge">
<title>dir_f6842234ee2576f0de8b50968ad4a89a&#45;&gt;dir_bcb2a15a8ce8434dac55e5edbfd15800</title>
<path fill="none" stroke="black" d="M153.12,-215.86C153.6,-197.1 152.12,-166.69 140,-144 134.01,-132.79 124.65,-122.83 115.09,-114.66"/>
<polygon fill="black" stroke="black" points="117.07,-111.76 107.08,-108.22 112.68,-117.21 117.07,-111.76"/>
<g id="a_edge6&#45;headlabel"><a xlink:href="dir_000142_000144.html" target="_top" xlink:title="1">
<text text-anchor="middle" x="121.65" y="-109.3" font-family="Helvetica,sans-Serif" font-size="10.00">1</text>
</a>
</g>
</g>
<!-- dir_f6842234ee2576f0de8b50968ad4a89a&#45;&gt;dir_d44c64559bbebec7f509842c48db8b23 -->
<g id="edge5" class="edge">
<title>dir_f6842234ee2576f0de8b50968ad4a89a&#45;&gt;dir_d44c64559bbebec7f509842c48db8b23</title>
<path fill="none" stroke="black" d="M170.17,-215.68C178.88,-206.1 188.41,-193.43 193,-180 210.82,-127.85 212.63,-107.5 193,-56 191.45,-51.93 189.22,-48.02 186.64,-44.37"/>
<polygon fill="black" stroke="black" points="189.17,-41.93 180.15,-36.37 183.73,-46.34 189.17,-41.93"/>
<g id="a_edge5&#45;headlabel"><a xlink:href="dir_000142_000001.html" target="_top" xlink:title="9">
<text text-anchor="middle" x="193.64" y="-40.43" font-family="Helvetica,sans-Serif" font-size="10.00">9</text>
</a>
</g>
</g>
<!-- dir_494cc84ab686510b993d5b10bb712d31&#45;&gt;dir_bcb2a15a8ce8434dac55e5edbfd15800 -->
<g id="edge9" class="edge">
<title>dir_494cc84ab686510b993d5b10bb712d31&#45;&gt;dir_bcb2a15a8ce8434dac55e5edbfd15800</title>
<path fill="none" stroke="black" d="M86.02,-143.7C85.14,-135.98 84.08,-126.71 83.1,-118.11"/>
<polygon fill="black" stroke="black" points="86.57,-117.64 81.95,-108.1 79.61,-118.44 86.57,-117.64"/>
<g id="a_edge9&#45;headlabel"><a xlink:href="dir_000143_000144.html" target="_top" xlink:title="1">
<text text-anchor="middle" x="89.8" y="-118.39" font-family="Helvetica,sans-Serif" font-size="10.00">1</text>
</a>
</g>
</g>
<!-- dir_494cc84ab686510b993d5b10bb712d31&#45;&gt;dir_d44c64559bbebec7f509842c48db8b23 -->
<g id="edge8" class="edge">
<title>dir_494cc84ab686510b993d5b10bb712d31&#45;&gt;dir_d44c64559bbebec7f509842c48db8b23</title>
<path fill="none" stroke="black" d="M100.09,-143.77C106.95,-133.62 115.45,-120.37 122,-108 132.76,-87.67 142.88,-63.64 149.97,-45.67"/>
<polygon fill="black" stroke="black" points="153.32,-46.71 153.67,-36.12 146.79,-44.18 153.32,-46.71"/>
<g id="a_edge8&#45;headlabel"><a xlink:href="dir_000143_000001.html" target="_top" xlink:title="49">
<text text-anchor="middle" x="154.66" y="-48.59" font-family="Helvetica,sans-Serif" font-size="10.00">49</text>
</a>
</g>
</g>
<!-- dir_bcb2a15a8ce8434dac55e5edbfd15800&#45;&gt;dir_d44c64559bbebec7f509842c48db8b23 -->
<g id="edge4" class="edge">
<title>dir_bcb2a15a8ce8434dac55e5edbfd15800&#45;&gt;dir_d44c64559bbebec7f509842c48db8b23</title>
<path fill="none" stroke="black" d="M99.78,-71.7C109.75,-62.97 122.01,-52.24 132.86,-42.75"/>
<polygon fill="black" stroke="black" points="135.23,-45.32 140.45,-36.1 130.62,-40.06 135.23,-45.32"/>
<g id="a_edge4&#45;headlabel"><a xlink:href="dir_000144_000001.html" target="_top" xlink:title="1">
<text text-anchor="middle" x="134.4" y="-47.33" font-family="Helvetica,sans-Serif" font-size="10.00">1</text>
</a>
</g>
</g>
</g>
</svg>
