<?xml version="1.0" encoding="UTF-8" standalone="no"?>
<!DOCTYPE svg PUBLIC "-//W3C//DTD SVG 1.1//EN"
 "http://www.w3.org/Graphics/SVG/1.1/DTD/svg11.dtd">
<!-- Generated by graphviz version 2.43.0 (0)
 -->
<!-- Title: include/llvm/ADT/DirectedGraph.h Pages: 1 -->
<svg width="580pt" height="229pt"
 viewBox="0.00 0.00 580.00 229.00" xmlns="http://www.w3.org/2000/svg" xmlns:xlink="http://www.w3.org/1999/xlink">
<g id="graph0" class="graph" transform="scale(1 1) rotate(0) translate(4 225)">
<title>include/llvm/ADT/DirectedGraph.h</title>
<!-- Node1 -->
<g id="node1" class="node">
<title>Node1</title>
<g id="a_node1"><a xlink:title=" ">
<polygon fill="#bfbfbf" stroke="black" points="212,-190.5 212,-220.5 356,-220.5 356,-190.5 212,-190.5"/>
<text text-anchor="start" x="220" y="-208.5" font-family="Helvetica,sans-Serif" font-size="10.00">include/llvm/ADT/Directed</text>
<text text-anchor="middle" x="284" y="-197.5" font-family="Helvetica,sans-Serif" font-size="10.00">Graph.h</text>
</a>
</g>
</g>
<!-- Node2 -->
<g id="node2" class="node">
<title>Node2</title>
<g id="a_node2"><a xlink:href="DDG_8h.html" target="_top" xlink:title=" ">
<polygon fill="none" stroke="black" points="223.5,-123.5 223.5,-153.5 344.5,-153.5 344.5,-123.5 223.5,-123.5"/>
<text text-anchor="start" x="231.5" y="-141.5" font-family="Helvetica,sans-Serif" font-size="10.00">include/llvm/Analysis</text>
<text text-anchor="middle" x="284" y="-130.5" font-family="Helvetica,sans-Serif" font-size="10.00">/DDG.h</text>
</a>
</g>
</g>
<!-- Node1&#45;&gt;Node2 -->
<g id="edge1" class="edge">
<title>Node1&#45;&gt;Node2</title>
<path fill="none" stroke="midnightblue" d="M284,-180.11C284,-171.15 284,-161.32 284,-153.58"/>
<polygon fill="midnightblue" stroke="midnightblue" points="280.5,-180.4 284,-190.4 287.5,-180.4 280.5,-180.4"/>
</g>
<!-- Node3 -->
<g id="node3" class="node">
<title>Node3</title>
<g id="a_node3"><a xlink:href="DDGPrinter_8h.html" target="_top" xlink:title=" ">
<polygon fill="none" stroke="black" points="90.5,-56.5 90.5,-86.5 211.5,-86.5 211.5,-56.5 90.5,-56.5"/>
<text text-anchor="start" x="98.5" y="-74.5" font-family="Helvetica,sans-Serif" font-size="10.00">include/llvm/Analysis</text>
<text text-anchor="middle" x="151" y="-63.5" font-family="Helvetica,sans-Serif" font-size="10.00">/DDGPrinter.h</text>
</a>
</g>
</g>
<!-- Node2&#45;&gt;Node3 -->
<g id="edge2" class="edge">
<title>Node2&#45;&gt;Node3</title>
<path fill="none" stroke="midnightblue" d="M246.13,-118.99C225.05,-108.69 199.22,-96.07 179.8,-86.58"/>
<polygon fill="midnightblue" stroke="midnightblue" points="244.62,-122.15 255.14,-123.4 247.69,-115.86 244.62,-122.15"/>
</g>
<!-- Node5 -->
<g id="node5" class="node">
<title>Node5</title>
<g id="a_node5"><a xlink:href="PassBuilder_8cpp.html" target="_top" xlink:title=" ">
<polygon fill="none" stroke="black" points="168.5,-0.5 168.5,-19.5 311.5,-19.5 311.5,-0.5 168.5,-0.5"/>
<text text-anchor="middle" x="240" y="-7.5" font-family="Helvetica,sans-Serif" font-size="10.00">lib/Passes/PassBuilder.cpp</text>
</a>
</g>
</g>
<!-- Node2&#45;&gt;Node5 -->
<g id="edge7" class="edge">
<title>Node2&#45;&gt;Node5</title>
<path fill="none" stroke="midnightblue" d="M271.74,-114.05C267.65,-105.66 263.31,-96.04 260,-87 251.29,-63.17 244.68,-33.85 241.71,-19.59"/>
<polygon fill="midnightblue" stroke="midnightblue" points="268.73,-115.85 276.34,-123.22 274.98,-112.71 268.73,-115.85"/>
</g>
<!-- Node6 -->
<g id="node6" class="node">
<title>Node6</title>
<g id="a_node6"><a xlink:href="DDG_8cpp.html" target="_top" xlink:title=" ">
<polygon fill="none" stroke="black" points="268.5,-62 268.5,-81 387.5,-81 387.5,-62 268.5,-62"/>
<text text-anchor="middle" x="328" y="-69" font-family="Helvetica,sans-Serif" font-size="10.00">lib/Analysis/DDG.cpp</text>
</a>
</g>
</g>
<!-- Node2&#45;&gt;Node6 -->
<g id="edge5" class="edge">
<title>Node2&#45;&gt;Node6</title>
<path fill="none" stroke="midnightblue" d="M299.25,-114.97C307.13,-103.33 316.29,-89.8 322.11,-81.19"/>
<polygon fill="midnightblue" stroke="midnightblue" points="296.25,-113.15 293.55,-123.4 302.05,-117.08 296.25,-113.15"/>
</g>
<!-- Node7 -->
<g id="node7" class="node">
<title>Node7</title>
<g id="a_node7"><a xlink:href="DependenceGraphBuilder_8cpp.html" target="_top" xlink:title=" ">
<polygon fill="none" stroke="black" points="406,-56.5 406,-86.5 572,-86.5 572,-56.5 406,-56.5"/>
<text text-anchor="start" x="414" y="-74.5" font-family="Helvetica,sans-Serif" font-size="10.00">lib/Analysis/DependenceGraph</text>
<text text-anchor="middle" x="489" y="-63.5" font-family="Helvetica,sans-Serif" font-size="10.00">Builder.cpp</text>
</a>
</g>
</g>
<!-- Node2&#45;&gt;Node7 -->
<g id="edge6" class="edge">
<title>Node2&#45;&gt;Node7</title>
<path fill="none" stroke="midnightblue" d="M337.79,-120.44C371.02,-109.91 413.15,-96.55 444.5,-86.61"/>
<polygon fill="midnightblue" stroke="midnightblue" points="336.7,-117.12 328.23,-123.48 338.82,-123.79 336.7,-117.12"/>
</g>
<!-- Node4 -->
<g id="node4" class="node">
<title>Node4</title>
<g id="a_node4"><a xlink:href="DDGPrinter_8cpp.html" target="_top" xlink:title=" ">
<polygon fill="none" stroke="black" points="0,-0.5 0,-19.5 150,-19.5 150,-0.5 0,-0.5"/>
<text text-anchor="middle" x="75" y="-7.5" font-family="Helvetica,sans-Serif" font-size="10.00">lib/Analysis/DDGPrinter.cpp</text>
</a>
</g>
</g>
<!-- Node3&#45;&gt;Node4 -->
<g id="edge3" class="edge">
<title>Node3&#45;&gt;Node4</title>
<path fill="none" stroke="midnightblue" d="M125.06,-50.19C111.75,-39.77 96.25,-27.63 86.06,-19.66"/>
<polygon fill="midnightblue" stroke="midnightblue" points="122.96,-52.99 132.99,-56.4 127.27,-47.48 122.96,-52.99"/>
</g>
<!-- Node3&#45;&gt;Node5 -->
<g id="edge4" class="edge">
<title>Node3&#45;&gt;Node5</title>
<path fill="none" stroke="midnightblue" d="M180.5,-50.78C196.28,-40.23 214.9,-27.78 227.05,-19.66"/>
<polygon fill="midnightblue" stroke="midnightblue" points="178.46,-47.93 172.09,-56.4 182.35,-53.75 178.46,-47.93"/>
</g>
</g>
</svg>
