<?xml version="1.0" encoding="UTF-8" standalone="no"?>
<!DOCTYPE svg PUBLIC "-//W3C//DTD SVG 1.1//EN"
 "http://www.w3.org/Graphics/SVG/1.1/DTD/svg11.dtd">
<!-- Generated by graphviz version 2.43.0 (0)
 -->
<!-- Title: include/llvm/ObjectYAML/DWARFEmitter.h Pages: 1 -->
<svg width="576pt" height="95pt"
 viewBox="0.00 0.00 576.00 95.00" xmlns="http://www.w3.org/2000/svg" xmlns:xlink="http://www.w3.org/1999/xlink">
<g id="graph0" class="graph" transform="scale(1 1) rotate(0) translate(4 91)">
<title>include/llvm/ObjectYAML/DWARFEmitter.h</title>
<!-- Node1 -->
<g id="node1" class="node">
<title>Node1</title>
<g id="a_node1"><a xlink:title=" ">
<polygon fill="#bfbfbf" stroke="black" points="216.5,-56.5 216.5,-86.5 353.5,-86.5 353.5,-56.5 216.5,-56.5"/>
<text text-anchor="start" x="224.5" y="-74.5" font-family="Helvetica,sans-Serif" font-size="10.00">include/llvm/ObjectYAML</text>
<text text-anchor="middle" x="285" y="-63.5" font-family="Helvetica,sans-Serif" font-size="10.00">/DWARFEmitter.h</text>
</a>
</g>
</g>
<!-- Node2 -->
<g id="node2" class="node">
<title>Node2</title>
<g id="a_node2"><a xlink:href="DWARFEmitter_8cpp.html" target="_top" xlink:title=" ">
<polygon fill="none" stroke="black" points="0,-0.5 0,-19.5 184,-19.5 184,-0.5 0,-0.5"/>
<text text-anchor="middle" x="92" y="-7.5" font-family="Helvetica,sans-Serif" font-size="10.00">lib/ObjectYAML/DWARFEmitter.cpp</text>
</a>
</g>
</g>
<!-- Node1&#45;&gt;Node2 -->
<g id="edge1" class="edge">
<title>Node1&#45;&gt;Node2</title>
<path fill="none" stroke="midnightblue" d="M229.4,-53.36C193.5,-42.29 148.33,-28.37 119.8,-19.57"/>
<polygon fill="midnightblue" stroke="midnightblue" points="228.67,-56.8 239.26,-56.4 230.74,-50.11 228.67,-56.8"/>
</g>
<!-- Node3 -->
<g id="node3" class="node">
<title>Node3</title>
<g id="a_node3"><a xlink:href="ELFEmitter_8cpp.html" target="_top" xlink:title=" ">
<polygon fill="none" stroke="black" points="202.5,-0.5 202.5,-19.5 367.5,-19.5 367.5,-0.5 202.5,-0.5"/>
<text text-anchor="middle" x="285" y="-7.5" font-family="Helvetica,sans-Serif" font-size="10.00">lib/ObjectYAML/ELFEmitter.cpp</text>
</a>
</g>
</g>
<!-- Node1&#45;&gt;Node3 -->
<g id="edge2" class="edge">
<title>Node1&#45;&gt;Node3</title>
<path fill="none" stroke="midnightblue" d="M285,-46.29C285,-36.86 285,-26.65 285,-19.66"/>
<polygon fill="midnightblue" stroke="midnightblue" points="281.5,-46.4 285,-56.4 288.5,-46.4 281.5,-46.4"/>
</g>
<!-- Node4 -->
<g id="node4" class="node">
<title>Node4</title>
<g id="a_node4"><a xlink:href="MachOEmitter_8cpp.html" target="_top" xlink:title=" ">
<polygon fill="none" stroke="black" points="386,-0.5 386,-19.5 568,-19.5 568,-0.5 386,-0.5"/>
<text text-anchor="middle" x="477" y="-7.5" font-family="Helvetica,sans-Serif" font-size="10.00">lib/ObjectYAML/MachOEmitter.cpp</text>
</a>
</g>
</g>
<!-- Node1&#45;&gt;Node4 -->
<g id="edge3" class="edge">
<title>Node1&#45;&gt;Node4</title>
<path fill="none" stroke="midnightblue" d="M340.31,-53.36C376.02,-42.29 420.96,-28.37 449.34,-19.57"/>
<polygon fill="midnightblue" stroke="midnightblue" points="339.02,-50.1 330.5,-56.4 341.09,-56.78 339.02,-50.1"/>
</g>
</g>
</svg>
