<?xml version="1.0" encoding="UTF-8" standalone="no"?>
<!DOCTYPE svg PUBLIC "-//W3C//DTD SVG 1.1//EN"
 "http://www.w3.org/Graphics/SVG/1.1/DTD/svg11.dtd">
<!-- Generated by graphviz version 2.43.0 (0)
 -->
<!-- Title: include/llvm/FileCheck/FileCheck.h Pages: 1 -->
<svg width="1437pt" height="319pt"
 viewBox="0.00 0.00 1437.20 319.00" xmlns="http://www.w3.org/2000/svg" xmlns:xlink="http://www.w3.org/1999/xlink">
<g id="graph0" class="graph" transform="scale(1 1) rotate(0) translate(4 315)">
<title>include/llvm/FileCheck/FileCheck.h</title>
<!-- Node1 -->
<g id="node1" class="node">
<title>Node1</title>
<g id="a_node1"><a xlink:title=" ">
<polygon fill="#bfbfbf" stroke="black" points="1101.2,-280.5 1101.2,-310.5 1228.2,-310.5 1228.2,-280.5 1101.2,-280.5"/>
<text text-anchor="start" x="1109.2" y="-298.5" font-family="Helvetica,sans-Serif" font-size="10.00">include/llvm/FileCheck</text>
<text text-anchor="middle" x="1164.7" y="-287.5" font-family="Helvetica,sans-Serif" font-size="10.00">/FileCheck.h</text>
</a>
</g>
</g>
<!-- Node2 -->
<g id="node2" class="node">
<title>Node2</title>
<g id="a_node2"><a xlink:href="StringRef_8h.html" target="_top" xlink:title=" ">
<polygon fill="none" stroke="black" points="612.7,-168.5 612.7,-187.5 730.7,-187.5 730.7,-168.5 612.7,-168.5"/>
<text text-anchor="middle" x="671.7" y="-175.5" font-family="Helvetica,sans-Serif" font-size="10.00">llvm/ADT/StringRef.h</text>
</a>
</g>
</g>
<!-- Node1&#45;&gt;Node2 -->
<g id="edge1" class="edge">
<title>Node1&#45;&gt;Node2</title>
<path fill="none" stroke="midnightblue" d="M1101.02,-282.6C1050.8,-272.95 979.06,-258.61 916.7,-244 843.9,-226.95 759.81,-203.9 711.49,-190.32"/>
<polygon fill="midnightblue" stroke="midnightblue" points="712.31,-186.92 701.73,-187.57 710.41,-193.66 712.31,-186.92"/>
</g>
<!-- Node19 -->
<g id="node19" class="node">
<title>Node19</title>
<g id="a_node19"><a xlink:title=" ">
<polygon fill="none" stroke="#bfbfbf" points="1151.7,-112.5 1151.7,-131.5 1195.7,-131.5 1195.7,-112.5 1151.7,-112.5"/>
<text text-anchor="middle" x="1173.7" y="-119.5" font-family="Helvetica,sans-Serif" font-size="10.00">string</text>
</a>
</g>
</g>
<!-- Node1&#45;&gt;Node19 -->
<g id="edge47" class="edge">
<title>Node1&#45;&gt;Node19</title>
<path fill="none" stroke="midnightblue" d="M1133.36,-280.44C1118.79,-272.11 1102.89,-260.01 1094.7,-244 1088.5,-231.89 1079.84,-194.91 1095.7,-168 1105.79,-150.89 1125.08,-139.68 1141.95,-132.72"/>
<polygon fill="midnightblue" stroke="midnightblue" points="1143.4,-135.92 1151.52,-129.11 1140.93,-129.37 1143.4,-135.92"/>
</g>
<!-- Node20 -->
<g id="node20" class="node">
<title>Node20</title>
<g id="a_node20"><a xlink:href="Regex_8h.html" target="_top" xlink:title=" ">
<polygon fill="none" stroke="black" points="925.7,-224.5 925.7,-243.5 1047.7,-243.5 1047.7,-224.5 925.7,-224.5"/>
<text text-anchor="middle" x="986.7" y="-231.5" font-family="Helvetica,sans-Serif" font-size="10.00">llvm/Support/Regex.h</text>
</a>
</g>
</g>
<!-- Node1&#45;&gt;Node20 -->
<g id="edge27" class="edge">
<title>Node1&#45;&gt;Node20</title>
<path fill="none" stroke="midnightblue" d="M1122.52,-280.4C1091.9,-270.16 1050.93,-256.47 1022.03,-246.81"/>
<polygon fill="midnightblue" stroke="midnightblue" points="1022.94,-243.42 1012.34,-243.57 1020.72,-250.06 1022.94,-243.42"/>
</g>
<!-- Node25 -->
<g id="node25" class="node">
<title>Node25</title>
<g id="a_node25"><a xlink:href="SMLoc_8h.html" target="_top" xlink:title=" ">
<polygon fill="none" stroke="black" points="1103.7,-224.5 1103.7,-243.5 1225.7,-243.5 1225.7,-224.5 1103.7,-224.5"/>
<text text-anchor="middle" x="1164.7" y="-231.5" font-family="Helvetica,sans-Serif" font-size="10.00">llvm/Support/SMLoc.h</text>
</a>
</g>
</g>
<!-- Node1&#45;&gt;Node25 -->
<g id="edge42" class="edge">
<title>Node1&#45;&gt;Node25</title>
<path fill="none" stroke="midnightblue" d="M1164.7,-280.4C1164.7,-272.47 1164.7,-262.46 1164.7,-253.86"/>
<polygon fill="midnightblue" stroke="midnightblue" points="1168.2,-253.66 1164.7,-243.66 1161.2,-253.66 1168.2,-253.66"/>
</g>
<!-- Node27 -->
<g id="node27" class="node">
<title>Node27</title>
<g id="a_node27"><a xlink:title=" ">
<polygon fill="none" stroke="#bfbfbf" points="1243.7,-224.5 1243.7,-243.5 1287.7,-243.5 1287.7,-224.5 1243.7,-224.5"/>
<text text-anchor="middle" x="1265.7" y="-231.5" font-family="Helvetica,sans-Serif" font-size="10.00">bitset</text>
</a>
</g>
</g>
<!-- Node1&#45;&gt;Node27 -->
<g id="edge45" class="edge">
<title>Node1&#45;&gt;Node27</title>
<path fill="none" stroke="midnightblue" d="M1188.64,-280.4C1204.83,-270.86 1226.11,-258.32 1242.21,-248.84"/>
<polygon fill="midnightblue" stroke="midnightblue" points="1244.17,-251.75 1251.01,-243.66 1240.61,-245.72 1244.17,-251.75"/>
</g>
<!-- Node28 -->
<g id="node28" class="node">
<title>Node28</title>
<g id="a_node28"><a xlink:title=" ">
<polygon fill="none" stroke="#bfbfbf" points="1305.7,-224.5 1305.7,-243.5 1363.7,-243.5 1363.7,-224.5 1305.7,-224.5"/>
<text text-anchor="middle" x="1334.7" y="-231.5" font-family="Helvetica,sans-Serif" font-size="10.00">memory</text>
</a>
</g>
</g>
<!-- Node1&#45;&gt;Node28 -->
<g id="edge46" class="edge">
<title>Node1&#45;&gt;Node28</title>
<path fill="none" stroke="midnightblue" d="M1204.99,-280.4C1234.02,-270.24 1272.78,-256.67 1300.35,-247.02"/>
<polygon fill="midnightblue" stroke="midnightblue" points="1301.68,-250.26 1309.97,-243.66 1299.37,-243.66 1301.68,-250.26"/>
</g>
<!-- Node29 -->
<g id="node29" class="node">
<title>Node29</title>
<g id="a_node29"><a xlink:title=" ">
<polygon fill="none" stroke="#bfbfbf" points="1382.2,-224.5 1382.2,-243.5 1429.2,-243.5 1429.2,-224.5 1382.2,-224.5"/>
<text text-anchor="middle" x="1405.7" y="-231.5" font-family="Helvetica,sans-Serif" font-size="10.00">vector</text>
</a>
</g>
</g>
<!-- Node1&#45;&gt;Node29 -->
<g id="edge48" class="edge">
<title>Node1&#45;&gt;Node29</title>
<path fill="none" stroke="midnightblue" d="M1224.44,-280.47C1263.71,-271.13 1316.48,-258.39 1371.92,-244.15"/>
<polygon fill="midnightblue" stroke="midnightblue" points="1373.12,-247.45 1381.93,-241.57 1371.37,-240.68 1373.12,-247.45"/>
</g>
<!-- Node3 -->
<g id="node3" class="node">
<title>Node3</title>
<g id="a_node3"><a xlink:href="DenseMapInfo_8h.html" target="_top" xlink:title=" ">
<polygon fill="none" stroke="black" points="277.7,-112.5 277.7,-131.5 421.7,-131.5 421.7,-112.5 277.7,-112.5"/>
<text text-anchor="middle" x="349.7" y="-119.5" font-family="Helvetica,sans-Serif" font-size="10.00">llvm/ADT/DenseMapInfo.h</text>
</a>
</g>
</g>
<!-- Node2&#45;&gt;Node3 -->
<g id="edge2" class="edge">
<title>Node2&#45;&gt;Node3</title>
<path fill="none" stroke="midnightblue" d="M620.68,-168.44C563.68,-158.89 471.46,-143.42 410.7,-133.23"/>
<polygon fill="midnightblue" stroke="midnightblue" points="410.93,-129.72 400.49,-131.52 409.77,-136.62 410.93,-129.72"/>
</g>
<!-- Node4 -->
<g id="node4" class="node">
<title>Node4</title>
<g id="a_node4"><a xlink:title=" ">
<polygon fill="none" stroke="#bfbfbf" points="1169.7,-56.5 1169.7,-75.5 1221.7,-75.5 1221.7,-56.5 1169.7,-56.5"/>
<text text-anchor="middle" x="1195.7" y="-63.5" font-family="Helvetica,sans-Serif" font-size="10.00">cassert</text>
</a>
</g>
</g>
<!-- Node2&#45;&gt;Node4 -->
<g id="edge20" class="edge">
<title>Node2&#45;&gt;Node4</title>
<path fill="none" stroke="midnightblue" d="M730.72,-175.72C806.73,-172.8 942.3,-163.22 1053.7,-132 1059.61,-130.34 1128.26,-98.48 1167.9,-80"/>
<polygon fill="midnightblue" stroke="midnightblue" points="1169.71,-83.01 1177.29,-75.61 1166.75,-76.67 1169.71,-83.01"/>
</g>
<!-- Node5 -->
<g id="node5" class="node">
<title>Node5</title>
<g id="a_node5"><a xlink:title=" ">
<polygon fill="none" stroke="#bfbfbf" points="235.2,-56.5 235.2,-75.5 288.2,-75.5 288.2,-56.5 235.2,-56.5"/>
<text text-anchor="middle" x="261.7" y="-63.5" font-family="Helvetica,sans-Serif" font-size="10.00">cstddef</text>
</a>
</g>
</g>
<!-- Node2&#45;&gt;Node5 -->
<g id="edge21" class="edge">
<title>Node2&#45;&gt;Node5</title>
<path fill="none" stroke="midnightblue" d="M612.67,-176.96C469.81,-176.26 114.5,-170.62 78.7,-132 8.25,-56 -106.89,-158 225.01,-76.38"/>
<polygon fill="midnightblue" stroke="midnightblue" points="226.1,-79.72 234.96,-73.92 224.41,-72.93 226.1,-79.72"/>
</g>
<!-- Node8 -->
<g id="node8" class="node">
<title>Node8</title>
<g id="a_node8"><a xlink:title=" ">
<polygon fill="none" stroke="#bfbfbf" points="489.2,-56.5 489.2,-75.5 534.2,-75.5 534.2,-56.5 489.2,-56.5"/>
<text text-anchor="middle" x="511.7" y="-63.5" font-family="Helvetica,sans-Serif" font-size="10.00">utility</text>
</a>
</g>
</g>
<!-- Node2&#45;&gt;Node8 -->
<g id="edge26" class="edge">
<title>Node2&#45;&gt;Node8</title>
<path fill="none" stroke="midnightblue" d="M662.41,-168.41C648.08,-155.37 619.42,-130.19 592.7,-112 575.25,-100.12 554.4,-88.59 538.23,-80.18"/>
<polygon fill="midnightblue" stroke="midnightblue" points="539.8,-77.05 529.31,-75.61 536.61,-83.28 539.8,-77.05"/>
</g>
<!-- Node9 -->
<g id="node9" class="node">
<title>Node9</title>
<g id="a_node9"><a xlink:href="STLFunctionalExtras_8h.html" target="_top" xlink:title=" ">
<polygon fill="none" stroke="black" points="87.7,-112.5 87.7,-131.5 259.7,-131.5 259.7,-112.5 87.7,-112.5"/>
<text text-anchor="middle" x="173.7" y="-119.5" font-family="Helvetica,sans-Serif" font-size="10.00">llvm/ADT/STLFunctionalExtras.h</text>
</a>
</g>
</g>
<!-- Node2&#45;&gt;Node9 -->
<g id="edge8" class="edge">
<title>Node2&#45;&gt;Node9</title>
<path fill="none" stroke="midnightblue" d="M612.62,-170.59C525.94,-161.19 363.65,-143.6 262.55,-132.63"/>
<polygon fill="midnightblue" stroke="midnightblue" points="262.67,-129.13 252.35,-131.53 261.92,-136.09 262.67,-129.13"/>
</g>
<!-- Node11 -->
<g id="node11" class="node">
<title>Node11</title>
<g id="a_node11"><a xlink:title=" ">
<polygon fill="none" stroke="#bfbfbf" points="282.2,-0.5 282.2,-19.5 351.2,-19.5 351.2,-0.5 282.2,-0.5"/>
<text text-anchor="middle" x="316.7" y="-7.5" font-family="Helvetica,sans-Serif" font-size="10.00">type_traits</text>
</a>
</g>
</g>
<!-- Node2&#45;&gt;Node11 -->
<g id="edge25" class="edge">
<title>Node2&#45;&gt;Node11</title>
<path fill="none" stroke="midnightblue" d="M612.48,-176.67C465.78,-175.29 94.33,-168.23 52.7,-132 26.91,-109.55 18.55,-82.05 40.7,-56 69.83,-21.74 201.31,-13.5 271.78,-11.56"/>
<polygon fill="midnightblue" stroke="midnightblue" points="272.21,-15.05 282.12,-11.31 272.04,-8.05 272.21,-15.05"/>
</g>
<!-- Node12 -->
<g id="node12" class="node">
<title>Node12</title>
<g id="a_node12"><a xlink:href="iterator__range_8h.html" target="_top" xlink:title=" ">
<polygon fill="none" stroke="black" points="440.2,-112.5 440.2,-131.5 583.2,-131.5 583.2,-112.5 440.2,-112.5"/>
<text text-anchor="middle" x="511.7" y="-119.5" font-family="Helvetica,sans-Serif" font-size="10.00">llvm/ADT/iterator_range.h</text>
</a>
</g>
</g>
<!-- Node2&#45;&gt;Node12 -->
<g id="edge14" class="edge">
<title>Node2&#45;&gt;Node12</title>
<path fill="none" stroke="midnightblue" d="M646.35,-168.44C619.43,-159.36 576.71,-144.94 546.62,-134.78"/>
<polygon fill="midnightblue" stroke="midnightblue" points="547.53,-131.4 536.94,-131.52 545.29,-138.03 547.53,-131.4"/>
</g>
<!-- Node13 -->
<g id="node13" class="node">
<title>Node13</title>
<g id="a_node13"><a xlink:href="Compiler_8h.html" target="_top" xlink:title=" ">
<polygon fill="none" stroke="black" points="1017.7,-56.5 1017.7,-75.5 1151.7,-75.5 1151.7,-56.5 1017.7,-56.5"/>
<text text-anchor="middle" x="1084.7" y="-63.5" font-family="Helvetica,sans-Serif" font-size="10.00">llvm/Support/Compiler.h</text>
</a>
</g>
</g>
<!-- Node2&#45;&gt;Node13 -->
<g id="edge16" class="edge">
<title>Node2&#45;&gt;Node13</title>
<path fill="none" stroke="midnightblue" d="M731.03,-174.65C818.87,-170.32 978.54,-158.92 1028.7,-132 1048.94,-121.14 1065.12,-99.77 1074.78,-84.5"/>
<polygon fill="midnightblue" stroke="midnightblue" points="1078.03,-85.9 1080.17,-75.52 1072.03,-82.3 1078.03,-85.9"/>
</g>
<!-- Node16 -->
<g id="node16" class="node">
<title>Node16</title>
<g id="a_node16"><a xlink:title=" ">
<polygon fill="none" stroke="#bfbfbf" points="639.7,-112.5 639.7,-131.5 703.7,-131.5 703.7,-112.5 639.7,-112.5"/>
<text text-anchor="middle" x="671.7" y="-119.5" font-family="Helvetica,sans-Serif" font-size="10.00">algorithm</text>
</a>
</g>
</g>
<!-- Node2&#45;&gt;Node16 -->
<g id="edge19" class="edge">
<title>Node2&#45;&gt;Node16</title>
<path fill="none" stroke="midnightblue" d="M671.7,-168.08C671.7,-161.01 671.7,-150.86 671.7,-141.99"/>
<polygon fill="midnightblue" stroke="midnightblue" points="675.2,-141.75 671.7,-131.75 668.2,-141.75 675.2,-141.75"/>
</g>
<!-- Node17 -->
<g id="node17" class="node">
<title>Node17</title>
<g id="a_node17"><a xlink:title=" ">
<polygon fill="none" stroke="#bfbfbf" points="677.7,-56.5 677.7,-75.5 727.7,-75.5 727.7,-56.5 677.7,-56.5"/>
<text text-anchor="middle" x="702.7" y="-63.5" font-family="Helvetica,sans-Serif" font-size="10.00">cstring</text>
</a>
</g>
</g>
<!-- Node2&#45;&gt;Node17 -->
<g id="edge22" class="edge">
<title>Node2&#45;&gt;Node17</title>
<path fill="none" stroke="midnightblue" d="M683.24,-168.49C693.18,-160.38 706.82,-147.18 712.7,-132 718.56,-116.88 714.84,-98.53 710.37,-85.19"/>
<polygon fill="midnightblue" stroke="midnightblue" points="713.6,-83.83 706.79,-75.72 707.05,-86.31 713.6,-83.83"/>
</g>
<!-- Node18 -->
<g id="node18" class="node">
<title>Node18</title>
<g id="a_node18"><a xlink:title=" ">
<polygon fill="none" stroke="#bfbfbf" points="783.7,-56.5 783.7,-75.5 827.7,-75.5 827.7,-56.5 783.7,-56.5"/>
<text text-anchor="middle" x="805.7" y="-63.5" font-family="Helvetica,sans-Serif" font-size="10.00">limits</text>
</a>
</g>
</g>
<!-- Node2&#45;&gt;Node18 -->
<g id="edge23" class="edge">
<title>Node2&#45;&gt;Node18</title>
<path fill="none" stroke="midnightblue" d="M682.48,-168.43C693.79,-159.42 712.07,-144.8 727.7,-132 748.19,-115.23 771.49,-95.77 787.24,-82.54"/>
<polygon fill="midnightblue" stroke="midnightblue" points="789.75,-85 795.15,-75.89 785.25,-79.65 789.75,-85"/>
</g>
<!-- Node2&#45;&gt;Node19 -->
<g id="edge24" class="edge">
<title>Node2&#45;&gt;Node19</title>
<path fill="none" stroke="midnightblue" d="M730.93,-171.08C813.56,-162.75 968.11,-146.92 1099.7,-132 1113.37,-130.45 1128.43,-128.64 1141.39,-127.05"/>
<polygon fill="midnightblue" stroke="midnightblue" points="1142.2,-130.47 1151.7,-125.77 1141.34,-123.53 1142.2,-130.47"/>
</g>
<!-- Node3&#45;&gt;Node4 -->
<g id="edge3" class="edge">
<title>Node3&#45;&gt;Node4</title>
<path fill="none" stroke="midnightblue" d="M422.12,-112.81C425.36,-112.52 428.56,-112.25 431.7,-112 751.76,-86.56 838.21,-123.86 1159.39,-75.88"/>
<polygon fill="midnightblue" stroke="midnightblue" points="1160.08,-79.31 1169.45,-74.36 1159.04,-72.39 1160.08,-79.31"/>
</g>
<!-- Node3&#45;&gt;Node5 -->
<g id="edge4" class="edge">
<title>Node3&#45;&gt;Node5</title>
<path fill="none" stroke="midnightblue" d="M335.56,-112.32C321.84,-103.9 300.77,-90.97 284.64,-81.07"/>
<polygon fill="midnightblue" stroke="midnightblue" points="286.16,-77.9 275.81,-75.65 282.5,-83.87 286.16,-77.9"/>
</g>
<!-- Node6 -->
<g id="node6" class="node">
<title>Node6</title>
<g id="a_node6"><a xlink:title=" ">
<polygon fill="none" stroke="#bfbfbf" points="404.7,-56.5 404.7,-75.5 454.7,-75.5 454.7,-56.5 404.7,-56.5"/>
<text text-anchor="middle" x="429.7" y="-63.5" font-family="Helvetica,sans-Serif" font-size="10.00">cstdint</text>
</a>
</g>
</g>
<!-- Node3&#45;&gt;Node6 -->
<g id="edge5" class="edge">
<title>Node3&#45;&gt;Node6</title>
<path fill="none" stroke="midnightblue" d="M362.56,-112.32C374.92,-103.98 393.83,-91.21 408.44,-81.35"/>
<polygon fill="midnightblue" stroke="midnightblue" points="410.55,-84.15 416.88,-75.65 406.63,-78.35 410.55,-84.15"/>
</g>
<!-- Node7 -->
<g id="node7" class="node">
<title>Node7</title>
<g id="a_node7"><a xlink:title=" ">
<polygon fill="none" stroke="#bfbfbf" points="345.2,-56.5 345.2,-75.5 386.2,-75.5 386.2,-56.5 345.2,-56.5"/>
<text text-anchor="middle" x="365.7" y="-63.5" font-family="Helvetica,sans-Serif" font-size="10.00">tuple</text>
</a>
</g>
</g>
<!-- Node3&#45;&gt;Node7 -->
<g id="edge6" class="edge">
<title>Node3&#45;&gt;Node7</title>
<path fill="none" stroke="midnightblue" d="M352.34,-112.08C354.49,-104.85 357.58,-94.41 360.25,-85.4"/>
<polygon fill="midnightblue" stroke="midnightblue" points="363.62,-86.33 363.11,-75.75 356.91,-84.34 363.62,-86.33"/>
</g>
<!-- Node3&#45;&gt;Node8 -->
<g id="edge7" class="edge">
<title>Node3&#45;&gt;Node8</title>
<path fill="none" stroke="midnightblue" d="M375.37,-112.44C403.51,-103.07 448.7,-88 479.27,-77.81"/>
<polygon fill="midnightblue" stroke="midnightblue" points="480.65,-81.04 489.03,-74.56 478.43,-74.4 480.65,-81.04"/>
</g>
<!-- Node9&#45;&gt;Node6 -->
<g id="edge13" class="edge">
<title>Node9&#45;&gt;Node6</title>
<path fill="none" stroke="midnightblue" d="M219.79,-112.48C262.7,-104.36 328.65,-91.41 394.74,-76.12"/>
<polygon fill="midnightblue" stroke="midnightblue" points="395.55,-79.53 404.49,-73.85 393.96,-72.71 395.55,-79.53"/>
</g>
<!-- Node9&#45;&gt;Node8 -->
<g id="edge12" class="edge">
<title>Node9&#45;&gt;Node8</title>
<path fill="none" stroke="midnightblue" d="M232.11,-112.49C290.74,-103.81 383.6,-89.72 463.7,-76 468.57,-75.17 473.7,-74.25 478.72,-73.32"/>
<polygon fill="midnightblue" stroke="midnightblue" points="479.59,-76.72 488.78,-71.45 478.31,-69.84 479.59,-76.72"/>
</g>
<!-- Node10 -->
<g id="node10" class="node">
<title>Node10</title>
<g id="a_node10"><a xlink:href="STLForwardCompat_8h.html" target="_top" xlink:title=" ">
<polygon fill="none" stroke="black" points="49.7,-56.5 49.7,-75.5 217.7,-75.5 217.7,-56.5 49.7,-56.5"/>
<text text-anchor="middle" x="133.7" y="-63.5" font-family="Helvetica,sans-Serif" font-size="10.00">llvm/ADT/STLForwardCompat.h</text>
</a>
</g>
</g>
<!-- Node9&#45;&gt;Node10 -->
<g id="edge9" class="edge">
<title>Node9&#45;&gt;Node10</title>
<path fill="none" stroke="midnightblue" d="M167.1,-112.08C161.45,-104.46 153.16,-93.26 146.25,-83.94"/>
<polygon fill="midnightblue" stroke="midnightblue" points="148.95,-81.7 140.18,-75.75 143.32,-85.87 148.95,-81.7"/>
</g>
<!-- Node9&#45;&gt;Node11 -->
<g id="edge11" class="edge">
<title>Node9&#45;&gt;Node11</title>
<path fill="none" stroke="midnightblue" d="M227.85,-112.43C251.82,-106.07 278.62,-95.05 296.7,-76 308.5,-63.57 313.35,-44.33 315.34,-30"/>
<polygon fill="midnightblue" stroke="midnightblue" points="318.85,-30.1 316.4,-19.79 311.88,-29.38 318.85,-30.1"/>
</g>
<!-- Node10&#45;&gt;Node11 -->
<g id="edge10" class="edge">
<title>Node10&#45;&gt;Node11</title>
<path fill="none" stroke="midnightblue" d="M162.7,-56.44C193.89,-47.24 243.63,-32.56 278.11,-22.39"/>
<polygon fill="midnightblue" stroke="midnightblue" points="279.24,-25.7 287.84,-19.52 277.26,-18.99 279.24,-25.7"/>
</g>
<!-- Node12&#45;&gt;Node8 -->
<g id="edge15" class="edge">
<title>Node12&#45;&gt;Node8</title>
<path fill="none" stroke="midnightblue" d="M511.7,-112.08C511.7,-105.01 511.7,-94.86 511.7,-85.99"/>
<polygon fill="midnightblue" stroke="midnightblue" points="515.2,-85.75 511.7,-75.75 508.2,-85.75 515.2,-85.75"/>
</g>
<!-- Node14 -->
<g id="node14" class="node">
<title>Node14</title>
<g id="a_node14"><a xlink:title=" ">
<polygon fill="none" stroke="#bfbfbf" points="1073.2,-0.5 1073.2,-19.5 1212.2,-19.5 1212.2,-0.5 1073.2,-0.5"/>
<text text-anchor="middle" x="1142.7" y="-7.5" font-family="Helvetica,sans-Serif" font-size="10.00">llvm/Config/llvm&#45;config.h</text>
</a>
</g>
</g>
<!-- Node13&#45;&gt;Node14 -->
<g id="edge17" class="edge">
<title>Node13&#45;&gt;Node14</title>
<path fill="none" stroke="midnightblue" d="M1094.02,-56.32C1102.6,-48.34 1115.51,-36.31 1125.89,-26.65"/>
<polygon fill="midnightblue" stroke="midnightblue" points="1128.28,-29.21 1133.21,-19.83 1123.51,-24.09 1128.28,-29.21"/>
</g>
<!-- Node15 -->
<g id="node15" class="node">
<title>Node15</title>
<g id="a_node15"><a xlink:title=" ">
<polygon fill="none" stroke="#bfbfbf" points="998.7,-0.5 998.7,-19.5 1054.7,-19.5 1054.7,-0.5 998.7,-0.5"/>
<text text-anchor="middle" x="1026.7" y="-7.5" font-family="Helvetica,sans-Serif" font-size="10.00">stddef.h</text>
</a>
</g>
</g>
<!-- Node13&#45;&gt;Node15 -->
<g id="edge18" class="edge">
<title>Node13&#45;&gt;Node15</title>
<path fill="none" stroke="midnightblue" d="M1075.38,-56.32C1066.81,-48.34 1053.89,-36.31 1043.51,-26.65"/>
<polygon fill="midnightblue" stroke="midnightblue" points="1045.89,-24.09 1036.19,-19.83 1041.12,-29.21 1045.89,-24.09"/>
</g>
<!-- Node20&#45;&gt;Node19 -->
<g id="edge41" class="edge">
<title>Node20&#45;&gt;Node19</title>
<path fill="none" stroke="midnightblue" d="M994.74,-224.39C1007.74,-210.87 1034.64,-184.52 1061.7,-168 1087.1,-152.5 1118.78,-140.35 1141.96,-132.6"/>
<polygon fill="midnightblue" stroke="midnightblue" points="1143.21,-135.87 1151.64,-129.46 1141.05,-129.22 1143.21,-135.87"/>
</g>
<!-- Node21 -->
<g id="node21" class="node">
<title>Node21</title>
<g id="a_node21"><a xlink:href="BitmaskEnum_8h.html" target="_top" xlink:title=" ">
<polygon fill="none" stroke="black" points="867.7,-168.5 867.7,-187.5 1009.7,-187.5 1009.7,-168.5 867.7,-168.5"/>
<text text-anchor="middle" x="938.7" y="-175.5" font-family="Helvetica,sans-Serif" font-size="10.00">llvm/ADT/BitmaskEnum.h</text>
</a>
</g>
</g>
<!-- Node20&#45;&gt;Node21 -->
<g id="edge28" class="edge">
<title>Node20&#45;&gt;Node21</title>
<path fill="none" stroke="midnightblue" d="M978.78,-224.08C971.86,-216.3 961.64,-204.8 953.25,-195.37"/>
<polygon fill="midnightblue" stroke="midnightblue" points="955.74,-192.9 946.48,-187.75 950.51,-197.55 955.74,-192.9"/>
</g>
<!-- Node21&#45;&gt;Node4 -->
<g id="edge29" class="edge">
<title>Node21&#45;&gt;Node4</title>
<path fill="none" stroke="midnightblue" d="M983.8,-168.48C1016.86,-161.28 1062.31,-149.32 1099.7,-132 1128.87,-118.49 1159.01,-96.54 1177.55,-81.94"/>
<polygon fill="midnightblue" stroke="midnightblue" points="1179.83,-84.6 1185.44,-75.61 1175.45,-79.14 1179.83,-84.6"/>
</g>
<!-- Node21&#45;&gt;Node8 -->
<g id="edge31" class="edge">
<title>Node21&#45;&gt;Node8</title>
<path fill="none" stroke="midnightblue" d="M911.01,-168.46C868.55,-155.49 784.69,-130.39 712.7,-112 653.71,-96.93 584.26,-82 544.37,-73.69"/>
<polygon fill="midnightblue" stroke="midnightblue" points="544.92,-70.23 534.42,-71.62 543.5,-77.08 544.92,-70.23"/>
</g>
<!-- Node21&#45;&gt;Node11 -->
<g id="edge30" class="edge">
<title>Node21&#45;&gt;Node11</title>
<path fill="none" stroke="midnightblue" d="M924.59,-168.44C879.56,-141.12 741.89,-57.74 736.7,-56 667.99,-32.98 455.05,-18.69 361.53,-13.36"/>
<polygon fill="midnightblue" stroke="midnightblue" points="361.44,-9.85 351.26,-12.79 361.05,-16.84 361.44,-9.85"/>
</g>
<!-- Node22 -->
<g id="node22" class="node">
<title>Node22</title>
<g id="a_node22"><a xlink:href="MathExtras_8h.html" target="_top" xlink:title=" ">
<polygon fill="none" stroke="black" points="873.7,-112.5 873.7,-131.5 1019.7,-131.5 1019.7,-112.5 873.7,-112.5"/>
<text text-anchor="middle" x="946.7" y="-119.5" font-family="Helvetica,sans-Serif" font-size="10.00">llvm/Support/MathExtras.h</text>
</a>
</g>
</g>
<!-- Node21&#45;&gt;Node22 -->
<g id="edge32" class="edge">
<title>Node21&#45;&gt;Node22</title>
<path fill="none" stroke="midnightblue" d="M940.02,-168.08C941.08,-160.93 942.61,-150.64 943.93,-141.69"/>
<polygon fill="midnightblue" stroke="midnightblue" points="947.4,-142.16 945.41,-131.75 940.48,-141.13 947.4,-142.16"/>
</g>
<!-- Node22&#45;&gt;Node4 -->
<g id="edge34" class="edge">
<title>Node22&#45;&gt;Node4</title>
<path fill="none" stroke="midnightblue" d="M990.27,-112.43C1031.49,-104.19 1095.31,-91.09 1159.48,-76.21"/>
<polygon fill="midnightblue" stroke="midnightblue" points="1160.42,-79.59 1169.36,-73.91 1158.83,-72.77 1160.42,-79.59"/>
</g>
<!-- Node22&#45;&gt;Node6 -->
<g id="edge37" class="edge">
<title>Node22&#45;&gt;Node6</title>
<path fill="none" stroke="midnightblue" d="M873.45,-115.71C781.49,-108.66 619.02,-94.85 480.7,-76 475.55,-75.3 470.11,-74.45 464.79,-73.56"/>
<polygon fill="midnightblue" stroke="midnightblue" points="465.25,-70.09 454.8,-71.83 464.06,-76.99 465.25,-70.09"/>
</g>
<!-- Node22&#45;&gt;Node11 -->
<g id="edge40" class="edge">
<title>Node22&#45;&gt;Node11</title>
<path fill="none" stroke="midnightblue" d="M932.7,-112.25C905.43,-95.29 847,-59.3 836.7,-56 748.71,-27.81 470.95,-15.98 361.58,-12.33"/>
<polygon fill="midnightblue" stroke="midnightblue" points="361.64,-8.83 351.54,-12 361.42,-15.83 361.64,-8.83"/>
</g>
<!-- Node22&#45;&gt;Node13 -->
<g id="edge33" class="edge">
<title>Node22&#45;&gt;Node13</title>
<path fill="none" stroke="midnightblue" d="M968.57,-112.44C991.48,-103.48 1027.68,-89.31 1053.57,-79.18"/>
<polygon fill="midnightblue" stroke="midnightblue" points="1054.9,-82.42 1062.94,-75.52 1052.35,-75.9 1054.9,-82.42"/>
</g>
<!-- Node22&#45;&gt;Node17 -->
<g id="edge38" class="edge">
<title>Node22&#45;&gt;Node17</title>
<path fill="none" stroke="midnightblue" d="M908.04,-112.44C861.17,-102.07 782.85,-84.74 737.69,-74.74"/>
<polygon fill="midnightblue" stroke="midnightblue" points="738.29,-71.29 727.77,-72.55 736.78,-78.13 738.29,-71.29"/>
</g>
<!-- Node22&#45;&gt;Node18 -->
<g id="edge39" class="edge">
<title>Node22&#45;&gt;Node18</title>
<path fill="none" stroke="midnightblue" d="M924.36,-112.44C900.95,-103.48 863.97,-89.31 837.51,-79.18"/>
<polygon fill="midnightblue" stroke="midnightblue" points="838.53,-75.82 827.94,-75.52 836.03,-82.36 838.53,-75.82"/>
</g>
<!-- Node23 -->
<g id="node23" class="node">
<title>Node23</title>
<g id="a_node23"><a xlink:title=" ">
<polygon fill="none" stroke="#bfbfbf" points="883.7,-56.5 883.7,-75.5 933.7,-75.5 933.7,-56.5 883.7,-56.5"/>
<text text-anchor="middle" x="908.7" y="-63.5" font-family="Helvetica,sans-Serif" font-size="10.00">climits</text>
</a>
</g>
</g>
<!-- Node22&#45;&gt;Node23 -->
<g id="edge35" class="edge">
<title>Node22&#45;&gt;Node23</title>
<path fill="none" stroke="midnightblue" d="M940.43,-112.08C935.06,-104.46 927.18,-93.26 920.62,-83.94"/>
<polygon fill="midnightblue" stroke="midnightblue" points="923.48,-81.91 914.86,-75.75 917.75,-85.94 923.48,-81.91"/>
</g>
<!-- Node24 -->
<g id="node24" class="node">
<title>Node24</title>
<g id="a_node24"><a xlink:title=" ">
<polygon fill="none" stroke="#bfbfbf" points="952.2,-56.5 952.2,-75.5 999.2,-75.5 999.2,-56.5 952.2,-56.5"/>
<text text-anchor="middle" x="975.7" y="-63.5" font-family="Helvetica,sans-Serif" font-size="10.00">cmath</text>
</a>
</g>
</g>
<!-- Node22&#45;&gt;Node24 -->
<g id="edge36" class="edge">
<title>Node22&#45;&gt;Node24</title>
<path fill="none" stroke="midnightblue" d="M951.49,-112.08C955.46,-104.69 961.23,-93.95 966.14,-84.81"/>
<polygon fill="midnightblue" stroke="midnightblue" points="969.35,-86.22 971,-75.75 963.19,-82.91 969.35,-86.22"/>
</g>
<!-- Node25&#45;&gt;Node4 -->
<g id="edge44" class="edge">
<title>Node25&#45;&gt;Node4</title>
<path fill="none" stroke="midnightblue" d="M1179.07,-224.33C1190.58,-216.47 1205.89,-203.72 1212.7,-188 1227.54,-153.75 1213.95,-109.42 1204,-85.04"/>
<polygon fill="midnightblue" stroke="midnightblue" points="1207.11,-83.42 1199.93,-75.63 1200.69,-86.2 1207.11,-83.42"/>
</g>
<!-- Node26 -->
<g id="node26" class="node">
<title>Node26</title>
<g id="a_node26"><a xlink:href="None_8h.html" target="_top" xlink:title=" ">
<polygon fill="none" stroke="black" points="1104.2,-168.5 1104.2,-187.5 1203.2,-187.5 1203.2,-168.5 1104.2,-168.5"/>
<text text-anchor="middle" x="1153.7" y="-175.5" font-family="Helvetica,sans-Serif" font-size="10.00">llvm/ADT/None.h</text>
</a>
</g>
</g>
<!-- Node25&#45;&gt;Node26 -->
<g id="edge43" class="edge">
<title>Node25&#45;&gt;Node26</title>
<path fill="none" stroke="midnightblue" d="M1162.89,-224.08C1161.43,-216.93 1159.33,-206.64 1157.51,-197.69"/>
<polygon fill="midnightblue" stroke="midnightblue" points="1160.91,-196.85 1155.49,-187.75 1154.05,-198.25 1160.91,-196.85"/>
</g>
</g>
</svg>
