<?xml version="1.0" encoding="UTF-8" standalone="no"?>
<!DOCTYPE svg PUBLIC "-//W3C//DTD SVG 1.1//EN"
 "http://www.w3.org/Graphics/SVG/1.1/DTD/svg11.dtd">
<!-- Generated by graphviz version 2.43.0 (0)
 -->
<!-- Title: lib/Target/Hexagon/HexagonISelDAGToDAGHVX.cpp Pages: 1 -->
<svg width="3896pt" height="945pt"
 viewBox="0.00 0.00 3896.00 945.00" xmlns="http://www.w3.org/2000/svg" xmlns:xlink="http://www.w3.org/1999/xlink">
<g id="graph0" class="graph" transform="scale(1 1) rotate(0) translate(4 941)">
<title>lib/Target/Hexagon/HexagonISelDAGToDAGHVX.cpp</title>
<!-- Node1 -->
<g id="node1" class="node">
<title>Node1</title>
<g id="a_node1"><a xlink:title=" ">
<polygon fill="#bfbfbf" stroke="black" points="1697,-906.5 1697,-936.5 1873,-936.5 1873,-906.5 1697,-906.5"/>
<text text-anchor="start" x="1705" y="-924.5" font-family="Helvetica,sans-Serif" font-size="10.00">lib/Target/Hexagon</text>
<text text-anchor="middle" x="1785" y="-913.5" font-family="Helvetica,sans-Serif" font-size="10.00">/HexagonISelDAGToDAGHVX.cpp</text>
</a>
</g>
</g>
<!-- Node2 -->
<g id="node2" class="node">
<title>Node2</title>
<g id="a_node2"><a xlink:href="Hexagon_8h.html" target="_top" xlink:title=" ">
<polygon fill="none" stroke="black" points="468.5,-615.5 468.5,-634.5 537.5,-634.5 537.5,-615.5 468.5,-615.5"/>
<text text-anchor="middle" x="503" y="-622.5" font-family="Helvetica,sans-Serif" font-size="10.00">Hexagon.h</text>
</a>
</g>
</g>
<!-- Node1&#45;&gt;Node2 -->
<g id="edge1" class="edge">
<title>Node1&#45;&gt;Node2</title>
<path fill="none" stroke="midnightblue" d="M1696.72,-921.14C1461.09,-922.14 821.42,-920.01 617,-870 559.83,-856.01 528.62,-863.64 497,-814 462.98,-760.58 483.95,-680.2 496.11,-644.37"/>
<polygon fill="midnightblue" stroke="midnightblue" points="499.48,-645.36 499.54,-634.76 492.89,-643.01 499.48,-645.36"/>
</g>
<!-- Node3 -->
<g id="node3" class="node">
<title>Node3</title>
<g id="a_node3"><a xlink:href="HexagonISelDAGToDAG_8h.html" target="_top" xlink:title=" ">
<polygon fill="none" stroke="black" points="662.5,-850.5 662.5,-869.5 803.5,-869.5 803.5,-850.5 662.5,-850.5"/>
<text text-anchor="middle" x="733" y="-857.5" font-family="Helvetica,sans-Serif" font-size="10.00">HexagonISelDAGToDAG.h</text>
</a>
</g>
</g>
<!-- Node1&#45;&gt;Node3 -->
<g id="edge2" class="edge">
<title>Node1&#45;&gt;Node3</title>
<path fill="none" stroke="midnightblue" d="M1696.67,-915.5C1495.75,-904.14 1007.01,-876.5 813.66,-865.56"/>
<polygon fill="midnightblue" stroke="midnightblue" points="813.75,-862.06 803.57,-864.99 813.35,-869.05 813.75,-862.06"/>
</g>
<!-- Node160 -->
<g id="node5" class="node">
<title>Node160</title>
<g id="a_node5"><a xlink:href="HexagonISelLowering_8h.html" target="_top" xlink:title=" ">
<polygon fill="none" stroke="black" points="1210.5,-677 1210.5,-696 1341.5,-696 1341.5,-677 1210.5,-677"/>
<text text-anchor="middle" x="1276" y="-684" font-family="Helvetica,sans-Serif" font-size="10.00">HexagonISelLowering.h</text>
</a>
</g>
</g>
<!-- Node1&#45;&gt;Node160 -->
<g id="edge138" class="edge">
<title>Node1&#45;&gt;Node160</title>
<path fill="none" stroke="midnightblue" d="M1754.31,-906.45C1662.63,-864.49 1391.78,-740.5 1303.88,-700.26"/>
<polygon fill="midnightblue" stroke="midnightblue" points="1305.34,-697.08 1294.79,-696.1 1302.43,-703.45 1305.34,-697.08"/>
</g>
<!-- Node76 -->
<g id="node7" class="node">
<title>Node76</title>
<g id="a_node7"><a xlink:href="CommandLine_8h.html" target="_top" xlink:title=" ">
<polygon fill="none" stroke="red" points="1393.5,-230 1393.5,-249 1554.5,-249 1554.5,-230 1393.5,-230"/>
<text text-anchor="middle" x="1474" y="-237" font-family="Helvetica,sans-Serif" font-size="10.00">llvm/Support/CommandLine.h</text>
</a>
</g>
</g>
<!-- Node1&#45;&gt;Node76 -->
<g id="edge183" class="edge">
<title>Node1&#45;&gt;Node76</title>
<path fill="none" stroke="midnightblue" d="M1696.67,-920.93C1423.22,-921.71 602.47,-919.84 494,-870 440.23,-845.29 432.1,-816.31 422,-758 405.28,-661.47 414.27,-611.35 489,-548 591.91,-460.77 909.21,-327.81 1039,-291 1154.86,-258.14 1293.88,-246.61 1383.04,-242.6"/>
<polygon fill="midnightblue" stroke="midnightblue" points="1383.28,-246.09 1393.12,-242.16 1382.98,-239.1 1383.28,-246.09"/>
</g>
<!-- Node24 -->
<g id="node15" class="node">
<title>Node24</title>
<g id="a_node15"><a xlink:title=" ">
<polygon fill="none" stroke="#bfbfbf" points="430.5,-56.5 430.5,-75.5 475.5,-75.5 475.5,-56.5 430.5,-56.5"/>
<text text-anchor="middle" x="453" y="-63.5" font-family="Helvetica,sans-Serif" font-size="10.00">utility</text>
</a>
</g>
</g>
<!-- Node1&#45;&gt;Node24 -->
<g id="edge188" class="edge">
<title>Node1&#45;&gt;Node24</title>
<path fill="none" stroke="midnightblue" d="M1696.89,-920.25C1374.56,-918.99 270.39,-911.66 118,-870 60.25,-854.21 0,-864.87 0,-805 0,-805 0,-805 0,-177 0,-90.53 315.63,-71.77 419.97,-67.94"/>
<polygon fill="midnightblue" stroke="midnightblue" points="420.35,-71.42 430.23,-67.58 420.11,-64.43 420.35,-71.42"/>
</g>
<!-- Node54 -->
<g id="node16" class="node">
<title>Node54</title>
<g id="a_node16"><a xlink:title=" ">
<polygon fill="none" stroke="#bfbfbf" points="1021.5,-112.5 1021.5,-131.5 1068.5,-131.5 1068.5,-112.5 1021.5,-112.5"/>
<text text-anchor="middle" x="1045" y="-119.5" font-family="Helvetica,sans-Serif" font-size="10.00">vector</text>
</a>
</g>
</g>
<!-- Node1&#45;&gt;Node54 -->
<g id="edge189" class="edge">
<title>Node1&#45;&gt;Node54</title>
<path fill="none" stroke="midnightblue" d="M1696.99,-918.86C1440.92,-913.82 699.12,-897.22 458,-870 303.39,-852.55 114,-960.59 114,-805 114,-805 114,-805 114,-495.5 114,-253.85 320.57,-249.66 548,-168 633.67,-137.24 913.53,-126.66 1011.09,-123.85"/>
<polygon fill="midnightblue" stroke="midnightblue" points="1011.37,-127.35 1021.27,-123.57 1011.18,-120.35 1011.37,-127.35"/>
</g>
<!-- Node138 -->
<g id="node29" class="node">
<title>Node138</title>
<g id="a_node29"><a xlink:href="Intrinsics_8h.html" target="_top" xlink:title=" ">
<polygon fill="none" stroke="red" points="2375.5,-230 2375.5,-249 2482.5,-249 2482.5,-230 2375.5,-230"/>
<text text-anchor="middle" x="2429" y="-237" font-family="Helvetica,sans-Serif" font-size="10.00">llvm/IR/Intrinsics.h</text>
</a>
</g>
</g>
<!-- Node1&#45;&gt;Node138 -->
<g id="edge181" class="edge">
<title>Node1&#45;&gt;Node138</title>
<path fill="none" stroke="midnightblue" d="M1873.16,-918.9C2212.31,-912.2 3414,-882.92 3414,-805 3414,-805 3414,-805 3414,-624 3414,-283.09 3053.85,-373.22 2723,-291 2622.16,-265.94 2594.03,-274.67 2492,-255 2486.14,-253.87 2480,-252.58 2473.94,-251.26"/>
<polygon fill="midnightblue" stroke="midnightblue" points="2474.42,-247.78 2463.9,-249 2472.89,-254.61 2474.42,-247.78"/>
</g>
<!-- Node60 -->
<g id="node32" class="node">
<title>Node60</title>
<g id="a_node32"><a xlink:title=" ">
<polygon fill="none" stroke="#bfbfbf" points="754,-487 754,-506 792,-506 792,-487 754,-487"/>
<text text-anchor="middle" x="773" y="-494" font-family="Helvetica,sans-Serif" font-size="10.00">map</text>
</a>
</g>
</g>
<!-- Node1&#45;&gt;Node60 -->
<g id="edge186" class="edge">
<title>Node1&#45;&gt;Node60</title>
<path fill="none" stroke="midnightblue" d="M1696.74,-921.04C1428.48,-922.13 634.78,-920.95 531,-870 425.29,-818.1 391.89,-711.77 459,-615 525.16,-519.6 678.84,-501.53 743.5,-498.2"/>
<polygon fill="midnightblue" stroke="midnightblue" points="743.95,-501.69 753.79,-497.76 743.65,-494.69 743.95,-501.69"/>
</g>
<!-- Node263 -->
<g id="node35" class="node">
<title>Node263</title>
<g id="a_node35"><a xlink:href="HexagonTargetMachine_8h.html" target="_top" xlink:title=" ">
<polygon fill="none" stroke="black" points="506,-794.5 506,-813.5 646,-813.5 646,-794.5 506,-794.5"/>
<text text-anchor="middle" x="576" y="-801.5" font-family="Helvetica,sans-Serif" font-size="10.00">HexagonTargetMachine.h</text>
</a>
</g>
</g>
<!-- Node1&#45;&gt;Node263 -->
<g id="edge139" class="edge">
<title>Node1&#45;&gt;Node263</title>
<path fill="none" stroke="midnightblue" d="M1696.91,-919.83C1447.64,-917.48 749.07,-907.58 653,-870 627.16,-859.89 603.78,-837.35 589.73,-821.67"/>
<polygon fill="midnightblue" stroke="midnightblue" points="592.11,-819.07 582.93,-813.79 586.81,-823.64 592.11,-819.07"/>
</g>
<!-- Node291 -->
<g id="node38" class="node">
<title>Node291</title>
<g id="a_node38"><a xlink:href="SelectionDAGISel_8h.html" target="_top" xlink:title=" ">
<polygon fill="none" stroke="red" points="1202,-794.5 1202,-813.5 1384,-813.5 1384,-794.5 1202,-794.5"/>
<text text-anchor="middle" x="1293" y="-801.5" font-family="Helvetica,sans-Serif" font-size="10.00">llvm/CodeGen/SelectionDAGISel.h</text>
</a>
</g>
</g>
<!-- Node1&#45;&gt;Node291 -->
<g id="edge180" class="edge">
<title>Node1&#45;&gt;Node291</title>
<path fill="none" stroke="midnightblue" d="M1725.16,-906.45C1625.79,-883.12 1428.81,-836.88 1339.25,-815.86"/>
<polygon fill="midnightblue" stroke="midnightblue" points="1339.92,-812.42 1329.39,-813.54 1338.32,-819.24 1339.92,-812.42"/>
</g>
<!-- Node293 -->
<g id="node41" class="node">
<title>Node293</title>
<g id="a_node41"><a xlink:href="SetVector_8h.html" target="_top" xlink:title=" ">
<polygon fill="none" stroke="black" points="2500.5,-230 2500.5,-249 2619.5,-249 2619.5,-230 2500.5,-230"/>
<text text-anchor="middle" x="2560" y="-237" font-family="Helvetica,sans-Serif" font-size="10.00">llvm/ADT/SetVector.h</text>
</a>
</g>
</g>
<!-- Node1&#45;&gt;Node293 -->
<g id="edge140" class="edge">
<title>Node1&#45;&gt;Node293</title>
<path fill="none" stroke="midnightblue" d="M1873.39,-919.3C2137.04,-915.4 2915.21,-901.47 3167,-870 3284.29,-855.34 3341.96,-896.1 3427,-814 3509.28,-734.56 3490,-678.87 3490,-564.5 3490,-564.5 3490,-564.5 3490,-495.5 3490,-424.27 3415.01,-447.21 3352,-414 3299.93,-386.56 3288.14,-375.67 3232,-358 3119.91,-322.73 2777.81,-271.54 2629.64,-250.3"/>
<polygon fill="midnightblue" stroke="midnightblue" points="2630.13,-246.83 2619.74,-248.88 2629.14,-253.76 2630.13,-246.83"/>
</g>
<!-- Node217 -->
<g id="node42" class="node">
<title>Node217</title>
<g id="a_node42"><a xlink:href="MachineInstrBuilder_8h.html" target="_top" xlink:title=" ">
<polygon fill="none" stroke="black" points="2563,-548.5 2563,-578.5 2715,-578.5 2715,-548.5 2563,-548.5"/>
<text text-anchor="start" x="2571" y="-566.5" font-family="Helvetica,sans-Serif" font-size="10.00">llvm/CodeGen/MachineInstr</text>
<text text-anchor="middle" x="2639" y="-555.5" font-family="Helvetica,sans-Serif" font-size="10.00">Builder.h</text>
</a>
</g>
</g>
<!-- Node1&#45;&gt;Node217 -->
<g id="edge148" class="edge">
<title>Node1&#45;&gt;Node217</title>
<path fill="none" stroke="midnightblue" d="M1873.1,-919.58C2025.92,-915.58 2324,-896.1 2324,-805 2324,-805 2324,-805 2324,-685.5 2324,-636.32 2459.47,-599.61 2552.73,-580.16"/>
<polygon fill="midnightblue" stroke="midnightblue" points="2553.66,-583.54 2562.75,-578.1 2552.25,-576.69 2553.66,-583.54"/>
</g>
<!-- Node294 -->
<g id="node47" class="node">
<title>Node294</title>
<g id="a_node47"><a xlink:title=" ">
<polygon fill="none" stroke="#bfbfbf" points="3480.5,-850.5 3480.5,-869.5 3631.5,-869.5 3631.5,-850.5 3480.5,-850.5"/>
<text text-anchor="middle" x="3556" y="-857.5" font-family="Helvetica,sans-Serif" font-size="10.00">llvm/IR/IntrinsicsHexagon.h</text>
</a>
</g>
</g>
<!-- Node1&#45;&gt;Node294 -->
<g id="edge182" class="edge">
<title>Node1&#45;&gt;Node294</title>
<path fill="none" stroke="midnightblue" d="M1873.05,-920.01C2122.87,-918.17 2857.43,-909.52 3466,-870 3467.32,-869.91 3468.65,-869.82 3470,-869.73"/>
<polygon fill="midnightblue" stroke="midnightblue" points="3470.7,-873.19 3480.41,-868.94 3470.17,-866.21 3470.7,-873.19"/>
</g>
<!-- Node134 -->
<g id="node48" class="node">
<title>Node134</title>
<g id="a_node48"><a xlink:href="Debug_8h.html" target="_top" xlink:title=" ">
<polygon fill="none" stroke="black" points="3650,-850.5 3650,-869.5 3772,-869.5 3772,-850.5 3650,-850.5"/>
<text text-anchor="middle" x="3711" y="-857.5" font-family="Helvetica,sans-Serif" font-size="10.00">llvm/Support/Debug.h</text>
</a>
</g>
</g>
<!-- Node1&#45;&gt;Node134 -->
<g id="edge184" class="edge">
<title>Node1&#45;&gt;Node134</title>
<path fill="none" stroke="midnightblue" d="M1873.21,-919.28C2190.04,-914.71 3270.7,-897.51 3639.77,-869.99"/>
<polygon fill="midnightblue" stroke="midnightblue" points="3640.25,-873.47 3649.95,-869.22 3639.72,-866.49 3640.25,-873.47"/>
</g>
<!-- Node295 -->
<g id="node49" class="node">
<title>Node295</title>
<g id="a_node49"><a xlink:title=" ">
<polygon fill="none" stroke="#bfbfbf" points="3790.5,-850.5 3790.5,-869.5 3837.5,-869.5 3837.5,-850.5 3790.5,-850.5"/>
<text text-anchor="middle" x="3814" y="-857.5" font-family="Helvetica,sans-Serif" font-size="10.00">deque</text>
</a>
</g>
</g>
<!-- Node1&#45;&gt;Node295 -->
<g id="edge185" class="edge">
<title>Node1&#45;&gt;Node295</title>
<path fill="none" stroke="midnightblue" d="M1873.02,-919.52C2228.37,-915.41 3548.82,-898.44 3780.17,-869.57"/>
<polygon fill="midnightblue" stroke="midnightblue" points="3780.91,-873 3790.35,-868.18 3779.97,-866.06 3780.91,-873"/>
</g>
<!-- Node61 -->
<g id="node50" class="node">
<title>Node61</title>
<g id="a_node50"><a xlink:title=" ">
<polygon fill="none" stroke="#bfbfbf" points="3856,-850.5 3856,-869.5 3888,-869.5 3888,-850.5 3856,-850.5"/>
<text text-anchor="middle" x="3872" y="-857.5" font-family="Helvetica,sans-Serif" font-size="10.00">set</text>
</a>
</g>
</g>
<!-- Node1&#45;&gt;Node61 -->
<g id="edge187" class="edge">
<title>Node1&#45;&gt;Node61</title>
<path fill="none" stroke="midnightblue" d="M1873.18,-920C2236.5,-917.74 3609.06,-906.93 3845.7,-869.43"/>
<polygon fill="midnightblue" stroke="midnightblue" points="3846.55,-872.83 3855.8,-867.68 3845.35,-865.93 3846.55,-872.83"/>
</g>
<!-- Node4 -->
<g id="node4" class="node">
<title>Node4</title>
<g id="a_node4"><a xlink:href="HexagonSubtarget_8h.html" target="_top" xlink:title=" ">
<polygon fill="none" stroke="red" points="714,-738.5 714,-757.5 830,-757.5 830,-738.5 714,-738.5"/>
<text text-anchor="middle" x="772" y="-745.5" font-family="Helvetica,sans-Serif" font-size="10.00">HexagonSubtarget.h</text>
</a>
</g>
</g>
<!-- Node3&#45;&gt;Node4 -->
<g id="edge3" class="edge">
<title>Node3&#45;&gt;Node4</title>
<path fill="none" stroke="midnightblue" d="M761.37,-850.49C778.75,-843.65 799.6,-832.13 810,-814 819.73,-797.04 805.11,-777.7 791.27,-764.55"/>
<polygon fill="midnightblue" stroke="midnightblue" points="793.22,-761.6 783.41,-757.6 788.58,-766.84 793.22,-761.6"/>
</g>
<!-- Node3&#45;&gt;Node54 -->
<g id="edge136" class="edge">
<title>Node3&#45;&gt;Node54</title>
<path fill="none" stroke="midnightblue" d="M662.41,-853.56C601.95,-847.49 520.94,-835.56 497,-814 386.58,-714.56 386.91,-606.17 467,-481 601.86,-270.25 909.66,-163.06 1011.56,-132.42"/>
<polygon fill="midnightblue" stroke="midnightblue" points="1012.71,-135.73 1021.31,-129.54 1010.73,-129.02 1012.71,-135.73"/>
</g>
<!-- Node33 -->
<g id="node17" class="node">
<title>Node33</title>
<g id="a_node17"><a xlink:href="StringRef_8h.html" target="_top" xlink:title=" ">
<polygon fill="none" stroke="red" points="557,-168.5 557,-187.5 675,-187.5 675,-168.5 557,-168.5"/>
<text text-anchor="middle" x="616" y="-175.5" font-family="Helvetica,sans-Serif" font-size="10.00">llvm/ADT/StringRef.h</text>
</a>
</g>
</g>
<!-- Node3&#45;&gt;Node33 -->
<g id="edge129" class="edge">
<title>Node3&#45;&gt;Node33</title>
<path fill="none" stroke="midnightblue" d="M662.21,-854.95C485.3,-840.64 38,-776.82 38,-497.5 38,-497.5 38,-497.5 38,-428.5 38,-209.21 393.04,-180.4 546.6,-178.19"/>
<polygon fill="midnightblue" stroke="midnightblue" points="546.9,-181.69 556.86,-178.08 546.82,-174.69 546.9,-181.69"/>
</g>
<!-- Node200 -->
<g id="node23" class="node">
<title>Node200</title>
<g id="a_node23"><a xlink:href="SelectionDAG_8h.html" target="_top" xlink:title=" ">
<polygon fill="none" stroke="red" points="1006,-554 1006,-573 1170,-573 1170,-554 1006,-554"/>
<text text-anchor="middle" x="1088" y="-561" font-family="Helvetica,sans-Serif" font-size="10.00">llvm/CodeGen/SelectionDAG.h</text>
</a>
</g>
</g>
<!-- Node3&#45;&gt;Node200 -->
<g id="edge130" class="edge">
<title>Node3&#45;&gt;Node200</title>
<path fill="none" stroke="midnightblue" d="M755.48,-850.44C775,-842.48 803.59,-829.52 826,-814 932.27,-740.38 1037.02,-623.87 1074,-581.02"/>
<polygon fill="midnightblue" stroke="midnightblue" points="1076.8,-583.12 1080.65,-573.25 1071.49,-578.56 1076.8,-583.12"/>
</g>
<!-- Node183 -->
<g id="node31" class="node">
<title>Node183</title>
<g id="a_node31"><a xlink:href="CodeGen_8h.html" target="_top" xlink:title=" ">
<polygon fill="none" stroke="black" points="220.5,-487 220.5,-506 355.5,-506 355.5,-487 220.5,-487"/>
<text text-anchor="middle" x="288" y="-494" font-family="Helvetica,sans-Serif" font-size="10.00">llvm/Support/CodeGen.h</text>
</a>
</g>
</g>
<!-- Node3&#45;&gt;Node183 -->
<g id="edge135" class="edge">
<title>Node3&#45;&gt;Node183</title>
<path fill="none" stroke="midnightblue" d="M662.23,-856.16C606.47,-851.83 527.77,-840.99 464,-814 425.36,-797.65 417.09,-788.24 388,-758 318.54,-685.79 336.6,-643.41 306,-548 302.53,-537.18 298.28,-525.2 294.78,-515.62"/>
<polygon fill="midnightblue" stroke="midnightblue" points="297.98,-514.19 291.23,-506.02 291.41,-516.61 297.98,-514.19"/>
</g>
<!-- Node3&#45;&gt;Node263 -->
<g id="edge121" class="edge">
<title>Node3&#45;&gt;Node263</title>
<path fill="none" stroke="midnightblue" d="M708.12,-850.44C681.71,-841.36 639.78,-826.94 610.26,-816.78"/>
<polygon fill="midnightblue" stroke="midnightblue" points="611.36,-813.46 600.76,-813.52 609.08,-820.08 611.36,-813.46"/>
</g>
<!-- Node3&#45;&gt;Node291 -->
<g id="edge131" class="edge">
<title>Node3&#45;&gt;Node291</title>
<path fill="none" stroke="midnightblue" d="M803.64,-852.19C902.44,-842.66 1082.32,-825.32 1194.31,-814.52"/>
<polygon fill="midnightblue" stroke="midnightblue" points="1194.98,-817.97 1204.6,-813.52 1194.31,-811 1194.98,-817.97"/>
</g>
<!-- Node292 -->
<g id="node40" class="node">
<title>Node292</title>
<g id="a_node40"><a xlink:title=" ">
<polygon fill="none" stroke="#bfbfbf" points="664.5,-794.5 664.5,-813.5 801.5,-813.5 801.5,-794.5 664.5,-794.5"/>
<text text-anchor="middle" x="733" y="-801.5" font-family="Helvetica,sans-Serif" font-size="10.00">HexagonGenDAGISel.inc</text>
</a>
</g>
</g>
<!-- Node3&#45;&gt;Node292 -->
<g id="edge137" class="edge">
<title>Node3&#45;&gt;Node292</title>
<path fill="none" stroke="midnightblue" d="M733,-850.08C733,-843.01 733,-832.86 733,-823.99"/>
<polygon fill="midnightblue" stroke="midnightblue" points="736.5,-823.75 733,-813.75 729.5,-823.75 736.5,-823.75"/>
</g>
<!-- Node4&#45;&gt;Node160 -->
<g id="edge4" class="edge">
<title>Node4&#45;&gt;Node160</title>
<path fill="none" stroke="midnightblue" d="M830.31,-740.12C921.75,-729.32 1098.86,-708.41 1200.11,-696.46"/>
<polygon fill="midnightblue" stroke="midnightblue" points="1200.75,-699.91 1210.27,-695.26 1199.93,-692.96 1200.75,-699.91"/>
</g>
<!-- Node4&#45;&gt;Node54 -->
<g id="edge120" class="edge">
<title>Node4&#45;&gt;Node54</title>
<path fill="none" stroke="midnightblue" d="M757.3,-738.41C715.9,-712.98 602.87,-634.47 627,-548 687.36,-331.7 770.19,-287.99 960,-168 978.64,-156.22 1000.67,-144.61 1017.63,-136.14"/>
<polygon fill="midnightblue" stroke="midnightblue" points="1019.55,-139.1 1026.97,-131.54 1016.45,-132.82 1019.55,-139.1"/>
</g>
<!-- Node4&#45;&gt;Node33 -->
<g id="edge119" class="edge">
<title>Node4&#45;&gt;Node33</title>
<path fill="none" stroke="midnightblue" d="M746.64,-738.48C724.56,-730.54 692.08,-717.61 666,-702 591.13,-657.19 572.32,-642.98 513,-579 488.44,-552.51 484.58,-543.56 467,-512 435.33,-455.15 421.4,-441.68 408,-378 387.98,-282.84 518.57,-217.37 582.38,-191.43"/>
<polygon fill="midnightblue" stroke="midnightblue" points="584.01,-194.55 592.01,-187.61 581.43,-188.04 584.01,-194.55"/>
</g>
<!-- Node211 -->
<g id="node34" class="node">
<title>Node211</title>
<g id="a_node34"><a xlink:href="HexagonInstrInfo_8h.html" target="_top" xlink:title=" ">
<polygon fill="none" stroke="red" points="2090,-487 2090,-506 2200,-506 2200,-487 2090,-487"/>
<text text-anchor="middle" x="2145" y="-494" font-family="Helvetica,sans-Serif" font-size="10.00">HexagonInstrInfo.h</text>
</a>
</g>
</g>
<!-- Node4&#45;&gt;Node211 -->
<g id="edge112" class="edge">
<title>Node4&#45;&gt;Node211</title>
<path fill="none" stroke="midnightblue" d="M830.19,-745.18C1030.04,-738.32 1686.75,-710.4 1882,-635 1944.8,-610.75 1946.29,-579.1 2006,-548 2037.88,-531.4 2076.46,-517.85 2104.88,-508.98"/>
<polygon fill="midnightblue" stroke="midnightblue" points="2105.94,-512.32 2114.48,-506.04 2103.89,-505.63 2105.94,-512.32"/>
</g>
<!-- Node160&#45;&gt;Node2 -->
<g id="edge5" class="edge">
<title>Node160&#45;&gt;Node2</title>
<path fill="none" stroke="midnightblue" d="M1210.2,-681.31C1087.95,-673.37 817.5,-655.14 590,-635 576.26,-633.78 561.32,-632.3 547.75,-630.89"/>
<polygon fill="midnightblue" stroke="midnightblue" points="548,-627.39 537.69,-629.83 547.27,-634.35 548,-627.39"/>
</g>
<!-- Node62 -->
<g id="node6" class="node">
<title>Node62</title>
<g id="a_node6"><a xlink:href="HexagonMCTargetDesc_8h.html" target="_top" xlink:title=" ">
<polygon fill="none" stroke="red" points="1994.5,-291.5 1994.5,-321.5 2173.5,-321.5 2173.5,-291.5 1994.5,-291.5"/>
<text text-anchor="start" x="2002.5" y="-309.5" font-family="Helvetica,sans-Serif" font-size="10.00">MCTargetDesc/HexagonMCTarget</text>
<text text-anchor="middle" x="2084" y="-298.5" font-family="Helvetica,sans-Serif" font-size="10.00">Desc.h</text>
</a>
</g>
</g>
<!-- Node160&#45;&gt;Node62 -->
<g id="edge6" class="edge">
<title>Node160&#45;&gt;Node62</title>
<path fill="none" stroke="midnightblue" d="M1341.75,-679.44C1477.32,-665.07 1795.49,-621.54 2038,-512 2059.47,-502.3 2061.02,-493.49 2081,-481 2109.66,-463.08 2130.65,-474.01 2148,-445 2171.47,-405.75 2133.64,-356.47 2106.88,-328.84"/>
<polygon fill="midnightblue" stroke="midnightblue" points="2109.23,-326.24 2099.69,-321.64 2104.28,-331.19 2109.23,-326.24"/>
</g>
<!-- Node20 -->
<g id="node13" class="node">
<title>Node20</title>
<g id="a_node13"><a xlink:title=" ">
<polygon fill="none" stroke="#bfbfbf" points="3059,-56.5 3059,-75.5 3109,-75.5 3109,-56.5 3059,-56.5"/>
<text text-anchor="middle" x="3084" y="-63.5" font-family="Helvetica,sans-Serif" font-size="10.00">cstdint</text>
</a>
</g>
</g>
<!-- Node160&#45;&gt;Node20 -->
<g id="edge110" class="edge">
<title>Node160&#45;&gt;Node20</title>
<path fill="none" stroke="midnightblue" d="M1341.8,-683.7C1610.49,-676.31 2616.94,-648.01 2759,-635 2926.37,-619.67 2970.29,-621.13 3133,-579 3163.53,-571.09 3528,-433.65 3528,-430.5 3528,-430.5 3528,-430.5 3528,-177 3528,-92.93 3224.29,-72.68 3119.24,-68.19"/>
<polygon fill="midnightblue" stroke="midnightblue" points="3119.28,-64.69 3109.14,-67.78 3118.99,-71.68 3119.28,-64.69"/>
</g>
<!-- Node160&#45;&gt;Node24 -->
<g id="edge111" class="edge">
<title>Node160&#45;&gt;Node24</title>
<path fill="none" stroke="midnightblue" d="M1210.37,-681.69C1098.99,-674.85 865.97,-658.93 670,-635 614.59,-628.23 601.4,-621.87 546,-615 454.58,-603.66 212.78,-625.07 133,-579 94.72,-556.89 76,-541.7 76,-497.5 76,-497.5 76,-497.5 76,-177 76,-105.6 328.38,-77.4 420.15,-69.51"/>
<polygon fill="midnightblue" stroke="midnightblue" points="420.59,-72.98 430.27,-68.66 420.01,-66 420.59,-72.98"/>
</g>
<!-- Node160&#45;&gt;Node33 -->
<g id="edge29" class="edge">
<title>Node160&#45;&gt;Node33</title>
<path fill="none" stroke="midnightblue" d="M1210.3,-683.23C1032.57,-675.38 551.09,-642.21 484,-512 423.26,-394.12 483.57,-330.93 562,-224 570.77,-212.04 583.38,-201.3 594.21,-193.31"/>
<polygon fill="midnightblue" stroke="midnightblue" points="596.26,-196.15 602.41,-187.52 592.22,-190.43 596.26,-196.15"/>
</g>
<!-- Node161 -->
<g id="node18" class="node">
<title>Node161</title>
<g id="a_node18"><a xlink:href="ISDOpcodes_8h.html" target="_top" xlink:title=" ">
<polygon fill="none" stroke="red" points="1228,-420 1228,-439 1384,-439 1384,-420 1228,-420"/>
<text text-anchor="middle" x="1306" y="-427" font-family="Helvetica,sans-Serif" font-size="10.00">llvm/CodeGen/ISDOpcodes.h</text>
</a>
</g>
</g>
<!-- Node160&#45;&gt;Node161 -->
<g id="edge30" class="edge">
<title>Node160&#45;&gt;Node161</title>
<path fill="none" stroke="midnightblue" d="M1280.69,-676.87C1285.76,-667.05 1293.58,-650.39 1297,-635 1311.91,-568.02 1309.45,-485.73 1307.34,-449.34"/>
<polygon fill="midnightblue" stroke="midnightblue" points="1310.82,-448.97 1306.69,-439.21 1303.84,-449.42 1310.82,-448.97"/>
</g>
<!-- Node162 -->
<g id="node19" class="node">
<title>Node162</title>
<g id="a_node19"><a xlink:href="ValueTypes_8h.html" target="_top" xlink:title=" ">
<polygon fill="none" stroke="red" points="1406,-358.5 1406,-377.5 1558,-377.5 1558,-358.5 1406,-358.5"/>
<text text-anchor="middle" x="1482" y="-365.5" font-family="Helvetica,sans-Serif" font-size="10.00">llvm/CodeGen/ValueTypes.h</text>
</a>
</g>
</g>
<!-- Node160&#45;&gt;Node162 -->
<g id="edge106" class="edge">
<title>Node160&#45;&gt;Node162</title>
<path fill="none" stroke="midnightblue" d="M1316.39,-677C1386.23,-659.83 1527.4,-613.65 1583,-512 1610.43,-461.85 1543.05,-408.21 1505.36,-383.27"/>
<polygon fill="midnightblue" stroke="midnightblue" points="1506.8,-380.03 1496.49,-377.57 1503.01,-385.92 1506.8,-380.03"/>
</g>
<!-- Node135 -->
<g id="node20" class="node">
<title>Node135</title>
<g id="a_node20"><a xlink:href="MachineValueType_8h.html" target="_top" xlink:title=" ">
<polygon fill="none" stroke="red" points="1048,-291.5 1048,-321.5 1198,-321.5 1198,-291.5 1048,-291.5"/>
<text text-anchor="start" x="1056" y="-309.5" font-family="Helvetica,sans-Serif" font-size="10.00">llvm/Support/MachineValue</text>
<text text-anchor="middle" x="1123" y="-298.5" font-family="Helvetica,sans-Serif" font-size="10.00">Type.h</text>
</a>
</g>
</g>
<!-- Node160&#45;&gt;Node135 -->
<g id="edge109" class="edge">
<title>Node160&#45;&gt;Node135</title>
<path fill="none" stroke="midnightblue" d="M1210.38,-678.26C1091.89,-664.09 848.27,-629.59 781,-579 753.98,-558.68 753.25,-544.78 745,-512 741.64,-498.64 737.56,-492.6 745,-481 781.99,-423.32 971.88,-355.81 1067.64,-324.74"/>
<polygon fill="midnightblue" stroke="midnightblue" points="1069,-327.98 1077.44,-321.58 1066.85,-321.32 1069,-327.98"/>
</g>
<!-- Node164 -->
<g id="node21" class="node">
<title>Node164</title>
<g id="a_node21"><a xlink:href="SelectionDAGNodes_8h.html" target="_top" xlink:title=" ">
<polygon fill="none" stroke="red" points="1379.5,-487 1379.5,-506 1574.5,-506 1574.5,-487 1379.5,-487"/>
<text text-anchor="middle" x="1477" y="-494" font-family="Helvetica,sans-Serif" font-size="10.00">llvm/CodeGen/SelectionDAGNodes.h</text>
</a>
</g>
</g>
<!-- Node160&#45;&gt;Node164 -->
<g id="edge38" class="edge">
<title>Node160&#45;&gt;Node164</title>
<path fill="none" stroke="midnightblue" d="M1295.96,-677C1315.16,-668.22 1344.38,-653.27 1366,-635 1409.39,-598.34 1448.09,-542.78 1466.18,-514.83"/>
<polygon fill="midnightblue" stroke="midnightblue" points="1469.27,-516.49 1471.69,-506.18 1463.36,-512.73 1469.27,-516.49"/>
</g>
<!-- Node195 -->
<g id="node22" class="node">
<title>Node195</title>
<g id="a_node22"><a xlink:href="TargetLowering_8h.html" target="_top" xlink:title=" ">
<polygon fill="none" stroke="red" points="1116,-615.5 1116,-634.5 1288,-634.5 1288,-615.5 1116,-615.5"/>
<text text-anchor="middle" x="1202" y="-622.5" font-family="Helvetica,sans-Serif" font-size="10.00">llvm/CodeGen/TargetLowering.h</text>
</a>
</g>
</g>
<!-- Node160&#45;&gt;Node195 -->
<g id="edge48" class="edge">
<title>Node160&#45;&gt;Node195</title>
<path fill="none" stroke="midnightblue" d="M1265.4,-676.98C1253.75,-667.61 1234.81,-652.38 1220.67,-641.01"/>
<polygon fill="midnightblue" stroke="midnightblue" points="1222.57,-638.05 1212.58,-634.51 1218.18,-643.5 1222.57,-638.05"/>
</g>
<!-- Node143 -->
<g id="node30" class="node">
<title>Node143</title>
<g id="a_node30"><a xlink:href="InlineAsm_8h.html" target="_top" xlink:title=" ">
<polygon fill="none" stroke="red" points="1073,-230 1073,-249 1185,-249 1185,-230 1073,-230"/>
<text text-anchor="middle" x="1129" y="-237" font-family="Helvetica,sans-Serif" font-size="10.00">llvm/IR/InlineAsm.h</text>
</a>
</g>
</g>
<!-- Node160&#45;&gt;Node143 -->
<g id="edge108" class="edge">
<title>Node160&#45;&gt;Node143</title>
<path fill="none" stroke="midnightblue" d="M1210.37,-684.31C1127.86,-681.27 982.67,-670.78 864,-635 810.72,-618.94 786.28,-622.84 752,-579 669.47,-473.47 725.92,-359.6 841,-291 877.54,-269.22 989.7,-254.31 1062.79,-246.61"/>
<polygon fill="midnightblue" stroke="midnightblue" points="1063.24,-250.08 1072.83,-245.57 1062.52,-243.12 1063.24,-250.08"/>
</g>
<!-- Node186 -->
<g id="node33" class="node">
<title>Node186</title>
<g id="a_node33"><a xlink:href="CallingConv_8h.html" target="_top" xlink:title=" ">
<polygon fill="none" stroke="black" points="3226.5,-168.5 3226.5,-187.5 3347.5,-187.5 3347.5,-168.5 3226.5,-168.5"/>
<text text-anchor="middle" x="3287" y="-175.5" font-family="Helvetica,sans-Serif" font-size="10.00">llvm/IR/CallingConv.h</text>
</a>
</g>
</g>
<!-- Node160&#45;&gt;Node186 -->
<g id="edge107" class="edge">
<title>Node160&#45;&gt;Node186</title>
<path fill="none" stroke="midnightblue" d="M1341.66,-683.25C1686.92,-671.29 3277.87,-614.33 3314,-579 3421.94,-473.43 3327.57,-259.57 3296.24,-196.74"/>
<polygon fill="midnightblue" stroke="midnightblue" points="3299.29,-195.02 3291.64,-187.69 3293.05,-198.19 3299.29,-195.02"/>
</g>
<!-- Node62&#45;&gt;Node76 -->
<g id="edge7" class="edge">
<title>Node62&#45;&gt;Node76</title>
<path fill="none" stroke="midnightblue" d="M1994.32,-295.94C1878.91,-283.65 1679.56,-262.4 1564,-250.09"/>
<polygon fill="midnightblue" stroke="midnightblue" points="1564.09,-246.58 1553.77,-249 1563.34,-253.54 1564.09,-246.58"/>
</g>
<!-- Node62&#45;&gt;Node20 -->
<g id="edge28" class="edge">
<title>Node62&#45;&gt;Node20</title>
<path fill="none" stroke="midnightblue" d="M2173.79,-303.08C2353.45,-297.68 2744.67,-282.85 2799,-255 2872.58,-217.29 2848.42,-156.67 2918,-112 2958.19,-86.2 3012.96,-75.07 3048.41,-70.35"/>
<polygon fill="midnightblue" stroke="midnightblue" points="3049.25,-73.78 3058.75,-69.09 3048.4,-66.83 3049.25,-73.78"/>
</g>
<!-- Node41 -->
<g id="node8" class="node">
<title>Node41</title>
<g id="a_node8"><a xlink:href="ArrayRef_8h.html" target="_top" xlink:title=" ">
<polygon fill="none" stroke="red" points="2043,-168.5 2043,-187.5 2159,-187.5 2159,-168.5 2043,-168.5"/>
<text text-anchor="middle" x="2101" y="-175.5" font-family="Helvetica,sans-Serif" font-size="10.00">llvm/ADT/ArrayRef.h</text>
</a>
</g>
</g>
<!-- Node76&#45;&gt;Node41 -->
<g id="edge8" class="edge">
<title>Node76&#45;&gt;Node41</title>
<path fill="none" stroke="midnightblue" d="M1554.69,-230.84C1679.26,-219.02 1916.18,-196.54 2032.75,-185.48"/>
<polygon fill="midnightblue" stroke="midnightblue" points="2033.35,-188.94 2042.97,-184.51 2032.68,-181.97 2033.35,-188.94"/>
</g>
<!-- Node48 -->
<g id="node9" class="node">
<title>Node48</title>
<g id="a_node9"><a xlink:href="STLExtras_8h.html" target="_top" xlink:title=" ">
<polygon fill="none" stroke="red" points="2197,-112.5 2197,-131.5 2319,-131.5 2319,-112.5 2197,-112.5"/>
<text text-anchor="middle" x="2258" y="-119.5" font-family="Helvetica,sans-Serif" font-size="10.00">llvm/ADT/STLExtras.h</text>
</a>
</g>
</g>
<!-- Node76&#45;&gt;Node48 -->
<g id="edge20" class="edge">
<title>Node76&#45;&gt;Node48</title>
<path fill="none" stroke="midnightblue" d="M1531.97,-229.96C1673.86,-209.06 2038.09,-155.4 2189.94,-133.03"/>
<polygon fill="midnightblue" stroke="midnightblue" points="2190.68,-136.46 2200.06,-131.54 2189.66,-129.53 2190.68,-136.46"/>
</g>
<!-- Node14 -->
<g id="node10" class="node">
<title>Node14</title>
<g id="a_node10"><a xlink:href="Support_2ErrorHandling_8h.html" target="_top" xlink:title=" ">
<polygon fill="none" stroke="black" points="1172,-56.5 1172,-75.5 1330,-75.5 1330,-56.5 1172,-56.5"/>
<text text-anchor="middle" x="1251" y="-63.5" font-family="Helvetica,sans-Serif" font-size="10.00">llvm/Support/ErrorHandling.h</text>
</a>
</g>
</g>
<!-- Node76&#45;&gt;Node14 -->
<g id="edge25" class="edge">
<title>Node76&#45;&gt;Node14</title>
<path fill="none" stroke="midnightblue" d="M1462.94,-230C1427.35,-202.62 1315.45,-116.57 1270.24,-81.79"/>
<polygon fill="midnightblue" stroke="midnightblue" points="1272.19,-78.88 1262.13,-75.56 1267.92,-84.43 1272.19,-78.88"/>
</g>
<!-- Node26 -->
<g id="node12" class="node">
<title>Node26</title>
<g id="a_node12"><a xlink:title=" ">
<polygon fill="none" stroke="#bfbfbf" points="1857,-56.5 1857,-75.5 1909,-75.5 1909,-56.5 1857,-56.5"/>
<text text-anchor="middle" x="1883" y="-63.5" font-family="Helvetica,sans-Serif" font-size="10.00">cassert</text>
</a>
</g>
</g>
<!-- Node76&#45;&gt;Node26 -->
<g id="edge26" class="edge">
<title>Node76&#45;&gt;Node26</title>
<path fill="none" stroke="midnightblue" d="M1475.01,-229.97C1478.27,-206.69 1490.73,-141.81 1531,-112 1580.52,-75.34 1767.54,-68.49 1846.97,-67.25"/>
<polygon fill="midnightblue" stroke="midnightblue" points="1847.04,-70.75 1856.99,-67.12 1846.95,-63.76 1847.04,-70.75"/>
</g>
<!-- Node76&#45;&gt;Node54 -->
<g id="edge27" class="edge">
<title>Node76&#45;&gt;Node54</title>
<path fill="none" stroke="midnightblue" d="M1451.7,-229.96C1413.79,-215.67 1334.14,-186.65 1265,-168 1199.8,-150.41 1122.11,-136.02 1078.68,-128.55"/>
<polygon fill="midnightblue" stroke="midnightblue" points="1079.11,-125.08 1068.67,-126.85 1077.94,-131.98 1079.11,-125.08"/>
</g>
<!-- Node76&#45;&gt;Node33 -->
<g id="edge21" class="edge">
<title>Node76&#45;&gt;Node33</title>
<path fill="none" stroke="midnightblue" d="M1393.28,-232.9C1225.61,-221.28 842.19,-194.69 685.08,-183.79"/>
<polygon fill="midnightblue" stroke="midnightblue" points="685.28,-180.3 675.07,-183.1 684.8,-187.28 685.28,-180.3"/>
</g>
<!-- Node41&#45;&gt;Node48 -->
<g id="edge9" class="edge">
<title>Node41&#45;&gt;Node48</title>
<path fill="none" stroke="midnightblue" d="M2125.88,-168.44C2152.29,-159.36 2194.22,-144.94 2223.74,-134.78"/>
<polygon fill="midnightblue" stroke="midnightblue" points="2224.92,-138.08 2233.24,-131.52 2222.64,-131.46 2224.92,-138.08"/>
</g>
<!-- Node15 -->
<g id="node11" class="node">
<title>Node15</title>
<g id="a_node11"><a xlink:href="Compiler_8h.html" target="_top" xlink:title=" ">
<polygon fill="none" stroke="red" points="1293,-0.5 1293,-19.5 1427,-19.5 1427,-0.5 1293,-0.5"/>
<text text-anchor="middle" x="1360" y="-7.5" font-family="Helvetica,sans-Serif" font-size="10.00">llvm/Support/Compiler.h</text>
</a>
</g>
</g>
<!-- Node41&#45;&gt;Node15 -->
<g id="edge16" class="edge">
<title>Node41&#45;&gt;Node15</title>
<path fill="none" stroke="midnightblue" d="M2159.23,-173.65C2219.28,-168.84 2307.03,-157.54 2328,-132 2333.64,-125.13 2333.84,-118.7 2328,-112 2269.7,-45.19 1656.14,-20.04 1437.14,-13.15"/>
<polygon fill="midnightblue" stroke="midnightblue" points="1437.12,-9.64 1427.01,-12.83 1436.9,-16.64 1437.12,-9.64"/>
</g>
<!-- Node41&#45;&gt;Node26 -->
<g id="edge17" class="edge">
<title>Node41&#45;&gt;Node26</title>
<path fill="none" stroke="midnightblue" d="M2090.57,-168.44C2073.81,-155 2039.44,-128.75 2007,-112 1978.62,-97.35 1944.35,-85.3 1919.04,-77.37"/>
<polygon fill="midnightblue" stroke="midnightblue" points="1920.05,-74.02 1909.47,-74.44 1918,-80.72 1920.05,-74.02"/>
</g>
<!-- Node46 -->
<g id="node14" class="node">
<title>Node46</title>
<g id="a_node14"><a xlink:title=" ">
<polygon fill="none" stroke="#bfbfbf" points="2658.5,-56.5 2658.5,-75.5 2711.5,-75.5 2711.5,-56.5 2658.5,-56.5"/>
<text text-anchor="middle" x="2685" y="-63.5" font-family="Helvetica,sans-Serif" font-size="10.00">iterator</text>
</a>
</g>
</g>
<!-- Node41&#45;&gt;Node46 -->
<g id="edge18" class="edge">
<title>Node41&#45;&gt;Node46</title>
<path fill="none" stroke="midnightblue" d="M2159.01,-172.48C2219.71,-166.76 2317.36,-154.8 2399,-132 2421.26,-125.78 2424.86,-118.63 2447,-112 2516.66,-91.15 2600.81,-77.93 2648.08,-71.55"/>
<polygon fill="midnightblue" stroke="midnightblue" points="2648.7,-75 2658.15,-70.22 2647.78,-68.06 2648.7,-75"/>
</g>
<!-- Node41&#45;&gt;Node54 -->
<g id="edge19" class="edge">
<title>Node41&#45;&gt;Node54</title>
<path fill="none" stroke="midnightblue" d="M2042.72,-174.02C1849.12,-164.12 1231.09,-132.52 1079.04,-124.74"/>
<polygon fill="midnightblue" stroke="midnightblue" points="1079.08,-121.24 1068.91,-124.22 1078.72,-128.23 1079.08,-121.24"/>
</g>
<!-- Node48&#45;&gt;Node14 -->
<g id="edge10" class="edge">
<title>Node48&#45;&gt;Node14</title>
<path fill="none" stroke="midnightblue" d="M2196.95,-112.86C2193.92,-112.55 2190.93,-112.26 2188,-112 1877.34,-84.61 1507.16,-73.02 1340.33,-68.92"/>
<polygon fill="midnightblue" stroke="midnightblue" points="1340.2,-65.41 1330.12,-68.67 1340.03,-72.41 1340.2,-65.41"/>
</g>
<!-- Node48&#45;&gt;Node26 -->
<g id="edge12" class="edge">
<title>Node48&#45;&gt;Node26</title>
<path fill="none" stroke="midnightblue" d="M2198.58,-112.44C2120.13,-101.15 1984.38,-81.6 1919.54,-72.26"/>
<polygon fill="midnightblue" stroke="midnightblue" points="1919.79,-68.76 1909.39,-70.8 1918.79,-75.69 1919.79,-68.76"/>
</g>
<!-- Node48&#45;&gt;Node20 -->
<g id="edge13" class="edge">
<title>Node48&#45;&gt;Node20</title>
<path fill="none" stroke="midnightblue" d="M2319.07,-117.01C2481.71,-106.38 2921.57,-77.62 3048.98,-69.29"/>
<polygon fill="midnightblue" stroke="midnightblue" points="3049.22,-72.78 3058.97,-68.64 3048.76,-65.8 3049.22,-72.78"/>
</g>
<!-- Node48&#45;&gt;Node46 -->
<g id="edge14" class="edge">
<title>Node48&#45;&gt;Node46</title>
<path fill="none" stroke="midnightblue" d="M2319.18,-113.26C2409.29,-101.87 2574.96,-80.92 2648.35,-71.64"/>
<polygon fill="midnightblue" stroke="midnightblue" points="2649,-75.08 2658.49,-70.35 2648.13,-68.14 2649,-75.08"/>
</g>
<!-- Node48&#45;&gt;Node24 -->
<g id="edge15" class="edge">
<title>Node48&#45;&gt;Node24</title>
<path fill="none" stroke="midnightblue" d="M2196.95,-112.78C2193.93,-112.49 2190.93,-112.23 2188,-112 1839,-85.11 694.42,-69.96 485.79,-67.39"/>
<polygon fill="midnightblue" stroke="midnightblue" points="485.81,-63.89 475.77,-67.27 485.72,-70.89 485.81,-63.89"/>
</g>
<!-- Node14&#45;&gt;Node15 -->
<g id="edge11" class="edge">
<title>Node14&#45;&gt;Node15</title>
<path fill="none" stroke="midnightblue" d="M1268.51,-56.32C1286.07,-47.62 1313.33,-34.12 1333.53,-24.11"/>
<polygon fill="midnightblue" stroke="midnightblue" points="1335.12,-27.23 1342.53,-19.65 1332.02,-20.96 1335.12,-27.23"/>
</g>
<!-- Node33&#45;&gt;Node15 -->
<g id="edge22" class="edge">
<title>Node33&#45;&gt;Node15</title>
<path fill="none" stroke="midnightblue" d="M622.98,-168.08C634.84,-153.64 660.42,-125.4 689,-112 793.2,-63.14 1129.21,-30.03 1282.49,-17.09"/>
<polygon fill="midnightblue" stroke="midnightblue" points="1283.08,-20.55 1292.76,-16.23 1282.5,-13.57 1283.08,-20.55"/>
</g>
<!-- Node33&#45;&gt;Node26 -->
<g id="edge23" class="edge">
<title>Node33&#45;&gt;Node26</title>
<path fill="none" stroke="midnightblue" d="M658.28,-168.47C730.47,-154.27 882.29,-125.95 1012,-112 1334.6,-77.3 1727.4,-69.16 1846.85,-67.43"/>
<polygon fill="midnightblue" stroke="midnightblue" points="1846.96,-70.93 1856.91,-67.29 1846.86,-63.93 1846.96,-70.93"/>
</g>
<!-- Node33&#45;&gt;Node24 -->
<g id="edge24" class="edge">
<title>Node33&#45;&gt;Node24</title>
<path fill="none" stroke="midnightblue" d="M603.21,-168.37C575.24,-149.49 508.4,-104.38 474.1,-81.24"/>
<polygon fill="midnightblue" stroke="midnightblue" points="475.98,-78.28 465.73,-75.59 472.06,-84.09 475.98,-78.28"/>
</g>
<!-- Node161&#45;&gt;Node162 -->
<g id="edge31" class="edge">
<title>Node161&#45;&gt;Node162</title>
<path fill="none" stroke="midnightblue" d="M1331.22,-419.98C1361.67,-409.68 1413.05,-392.31 1447.24,-380.75"/>
<polygon fill="midnightblue" stroke="midnightblue" points="1448.48,-384.03 1456.83,-377.51 1446.24,-377.4 1448.48,-384.03"/>
</g>
<!-- Node162&#45;&gt;Node15 -->
<g id="edge32" class="edge">
<title>Node162&#45;&gt;Node15</title>
<path fill="none" stroke="midnightblue" d="M1470.71,-358.3C1449.45,-341.18 1403.81,-300.76 1384,-255 1350.24,-176.99 1354.55,-72.22 1358.07,-29.9"/>
<polygon fill="midnightblue" stroke="midnightblue" points="1361.56,-30.18 1358.99,-19.9 1354.59,-29.54 1361.56,-30.18"/>
</g>
<!-- Node162&#45;&gt;Node26 -->
<g id="edge36" class="edge">
<title>Node162&#45;&gt;Node26</title>
<path fill="none" stroke="midnightblue" d="M1494.26,-358.26C1517.55,-341.07 1568.37,-300.54 1597,-255 1632.68,-198.24 1594.46,-156.05 1645,-112 1674.61,-86.2 1787.71,-74.09 1846.71,-69.43"/>
<polygon fill="midnightblue" stroke="midnightblue" points="1847.01,-72.92 1856.72,-68.67 1846.48,-65.94 1847.01,-72.92"/>
</g>
<!-- Node162&#45;&gt;Node20 -->
<g id="edge37" class="edge">
<title>Node162&#45;&gt;Node20</title>
<path fill="none" stroke="midnightblue" d="M1558.33,-366.51C1811.24,-364.57 2612.09,-355.79 2723,-322 2875.22,-275.62 2883.06,-203.87 3013,-112 3028.64,-100.94 3046.91,-89.39 3060.99,-80.77"/>
<polygon fill="midnightblue" stroke="midnightblue" points="3062.85,-83.73 3069.58,-75.55 3059.21,-77.75 3062.85,-83.73"/>
</g>
<!-- Node162&#45;&gt;Node135 -->
<g id="edge33" class="edge">
<title>Node162&#45;&gt;Node135</title>
<path fill="none" stroke="midnightblue" d="M1430.56,-358.48C1372.54,-348.86 1277.26,-333.07 1208.11,-321.61"/>
<polygon fill="midnightblue" stroke="midnightblue" points="1208.54,-318.13 1198.1,-319.95 1207.39,-325.04 1208.54,-318.13"/>
</g>
<!-- Node135&#45;&gt;Node14 -->
<g id="edge34" class="edge">
<title>Node135&#45;&gt;Node14</title>
<path fill="none" stroke="midnightblue" d="M1047.81,-292.87C1026.57,-285.45 1005.79,-273.68 993,-255 956.79,-202.09 963.58,-154.03 1012,-112 1034.3,-92.64 1103.61,-81 1161.89,-74.42"/>
<polygon fill="midnightblue" stroke="midnightblue" points="1162.32,-77.9 1171.88,-73.33 1161.56,-70.94 1162.32,-77.9"/>
</g>
<!-- Node135&#45;&gt;Node26 -->
<g id="edge35" class="edge">
<title>Node135&#45;&gt;Node26</title>
<path fill="none" stroke="midnightblue" d="M1152.2,-291.49C1173.09,-281.42 1201.83,-267.49 1227,-255 1352.88,-192.53 1374.52,-152.79 1509,-112 1629,-75.6 1779.05,-68.48 1846.82,-67.2"/>
<polygon fill="midnightblue" stroke="midnightblue" points="1847.03,-70.7 1856.97,-67.04 1846.92,-63.7 1847.03,-70.7"/>
</g>
<!-- Node164&#45;&gt;Node41 -->
<g id="edge39" class="edge">
<title>Node164&#45;&gt;Node41</title>
<path fill="none" stroke="midnightblue" d="M1513.55,-486.97C1542.82,-479.07 1584.1,-465.41 1616,-445 1732.48,-370.47 1712.27,-287.7 1835,-224 1896.83,-191.91 1976.61,-181.92 2032.61,-179.18"/>
<polygon fill="midnightblue" stroke="midnightblue" points="2032.93,-182.67 2042.78,-178.75 2032.64,-175.67 2032.93,-182.67"/>
</g>
<!-- Node164&#45;&gt;Node14 -->
<g id="edge42" class="edge">
<title>Node164&#45;&gt;Node14</title>
<path fill="none" stroke="midnightblue" d="M1476.55,-486.76C1475.33,-470.79 1470.8,-436.5 1454,-414 1436.08,-389.99 1416.83,-400.46 1397,-378 1314.62,-284.68 1269.53,-136.84 1255.68,-85.38"/>
<polygon fill="midnightblue" stroke="midnightblue" points="1259.05,-84.45 1253.13,-75.67 1252.28,-86.23 1259.05,-84.45"/>
</g>
<!-- Node164&#45;&gt;Node26 -->
<g id="edge44" class="edge">
<title>Node164&#45;&gt;Node26</title>
<path fill="none" stroke="midnightblue" d="M1484.24,-486.99C1500.17,-468.07 1539.06,-420.82 1567,-378 1641.65,-263.59 1612.95,-195.59 1721,-112 1757.61,-83.67 1811.04,-73.17 1846.39,-69.28"/>
<polygon fill="midnightblue" stroke="midnightblue" points="1847.13,-72.73 1856.74,-68.28 1846.45,-65.76 1847.13,-72.73"/>
</g>
<!-- Node164&#45;&gt;Node20 -->
<g id="edge45" class="edge">
<title>Node164&#45;&gt;Node20</title>
<path fill="none" stroke="midnightblue" d="M1555.03,-486.97C1841.08,-455.57 2818.76,-346.91 2881,-322 2990.87,-278.04 3056.7,-135.74 3077.12,-85.1"/>
<polygon fill="midnightblue" stroke="midnightblue" points="3080.4,-86.34 3080.79,-75.75 3073.88,-83.78 3080.4,-86.34"/>
</g>
<!-- Node164&#45;&gt;Node46 -->
<g id="edge46" class="edge">
<title>Node164&#45;&gt;Node46</title>
<path fill="none" stroke="midnightblue" d="M1560.44,-486.97C1822.61,-459.73 2618.57,-373.65 2723,-322 2763.36,-302.04 2780.47,-296.04 2799,-255 2804.67,-242.44 2801.02,-237.63 2799,-224 2791.36,-172.54 2797.57,-152.56 2765,-112 2753.43,-97.59 2735.93,-87.01 2720.25,-79.73"/>
<polygon fill="midnightblue" stroke="midnightblue" points="2721.35,-76.4 2710.79,-75.63 2718.57,-82.82 2721.35,-76.4"/>
</g>
<!-- Node164&#45;&gt;Node24 -->
<g id="edge47" class="edge">
<title>Node164&#45;&gt;Node24</title>
<path fill="none" stroke="midnightblue" d="M1468.3,-486.92C1447.28,-466.22 1395.32,-415.15 1393,-414 1266.48,-351.65 899.72,-363.75 765,-322 670.45,-292.7 655.3,-264.54 565,-224 526.45,-206.69 503.87,-220.61 477,-188 452.8,-158.63 450.63,-111.73 451.57,-85.79"/>
<polygon fill="midnightblue" stroke="midnightblue" points="455.07,-85.95 452.13,-75.78 448.08,-85.56 455.07,-85.95"/>
</g>
<!-- Node164&#45;&gt;Node161 -->
<g id="edge40" class="edge">
<title>Node164&#45;&gt;Node161</title>
<path fill="none" stroke="midnightblue" d="M1454.29,-486.87C1424.44,-475.52 1371.83,-455.52 1337.97,-442.65"/>
<polygon fill="midnightblue" stroke="midnightblue" points="1339.12,-439.35 1328.53,-439.06 1336.63,-445.89 1339.12,-439.35"/>
</g>
<!-- Node164&#45;&gt;Node162 -->
<g id="edge41" class="edge">
<title>Node164&#45;&gt;Node162</title>
<path fill="none" stroke="midnightblue" d="M1482.95,-486.67C1489.11,-476.95 1498.34,-460.62 1502,-445 1505.14,-431.58 1504.86,-427.48 1502,-414 1500,-404.59 1495.9,-394.76 1491.93,-386.7"/>
<polygon fill="midnightblue" stroke="midnightblue" points="1494.89,-384.81 1487.13,-377.59 1488.69,-388.07 1494.89,-384.81"/>
</g>
<!-- Node164&#45;&gt;Node135 -->
<g id="edge43" class="edge">
<title>Node164&#45;&gt;Node135</title>
<path fill="none" stroke="midnightblue" d="M1473.82,-486.78C1467.37,-470.23 1451.15,-434.13 1426,-414 1388.34,-383.87 1263.23,-345.83 1186.04,-324.33"/>
<polygon fill="midnightblue" stroke="midnightblue" points="1186.52,-320.83 1175.95,-321.54 1184.65,-327.58 1186.52,-320.83"/>
</g>
<!-- Node195&#45;&gt;Node41 -->
<g id="edge49" class="edge">
<title>Node195&#45;&gt;Node41</title>
<path fill="none" stroke="midnightblue" d="M1288.24,-619.2C1386.41,-613.02 1551.39,-600.43 1692,-579 1700.79,-577.66 1999.41,-518.91 2005,-512 2086.01,-411.82 1897.39,-329.04 1972,-224 1986.12,-204.12 2009.71,-192.95 2032.88,-186.7"/>
<polygon fill="midnightblue" stroke="midnightblue" points="2033.86,-190.06 2042.75,-184.31 2032.21,-183.26 2033.86,-190.06"/>
</g>
<!-- Node195&#45;&gt;Node14 -->
<g id="edge98" class="edge">
<title>Node195&#45;&gt;Node14</title>
<path fill="none" stroke="midnightblue" d="M1115.96,-624.09C1008.98,-622.63 833.99,-614.64 781,-579 752.95,-560.13 753.25,-544.78 745,-512 695.75,-316.27 785.77,-213.88 960,-112 993.4,-92.47 1089.05,-80.3 1161.66,-73.62"/>
<polygon fill="midnightblue" stroke="midnightblue" points="1162.09,-77.09 1171.74,-72.71 1161.47,-70.12 1162.09,-77.09"/>
</g>
<!-- Node195&#45;&gt;Node26 -->
<g id="edge100" class="edge">
<title>Node195&#45;&gt;Node26</title>
<path fill="none" stroke="midnightblue" d="M1288.29,-616.44C1371.18,-605.35 1496.27,-578.2 1583,-512 1675.99,-441.01 1660.64,-388.03 1726,-291 1778.59,-212.93 1843.86,-121.48 1870.65,-84.16"/>
<polygon fill="midnightblue" stroke="midnightblue" points="1873.6,-86.04 1876.6,-75.88 1867.92,-81.96 1873.6,-86.04"/>
</g>
<!-- Node195&#45;&gt;Node20 -->
<g id="edge101" class="edge">
<title>Node195&#45;&gt;Node20</title>
<path fill="none" stroke="midnightblue" d="M1288.05,-623.43C1630.38,-620.98 2885.54,-609.93 3061,-579 3152.91,-562.8 3174.88,-550.26 3260,-512 3314.66,-487.43 3339.9,-492.05 3377,-445 3469.06,-328.25 3513.44,-217.83 3409,-112 3369.24,-71.71 3195.36,-66.86 3119.55,-66.7"/>
<polygon fill="midnightblue" stroke="midnightblue" points="3119.1,-63.2 3109.11,-66.71 3119.11,-70.2 3119.1,-63.2"/>
</g>
<!-- Node195&#45;&gt;Node46 -->
<g id="edge102" class="edge">
<title>Node195&#45;&gt;Node46</title>
<path fill="none" stroke="midnightblue" d="M1288.04,-624.22C1593.14,-624.62 2622.52,-622.61 2949,-579 3073.26,-562.4 3113.75,-573.49 3223,-512 3365.99,-431.53 3464.05,-292.34 3357,-168 3273.61,-71.15 2850.04,-65.89 2721.82,-66.56"/>
<polygon fill="midnightblue" stroke="midnightblue" points="2721.7,-63.06 2711.73,-66.63 2721.75,-70.06 2721.7,-63.06"/>
</g>
<!-- Node195&#45;&gt;Node24 -->
<g id="edge104" class="edge">
<title>Node195&#45;&gt;Node24</title>
<path fill="none" stroke="midnightblue" d="M1115.88,-624.72C986.69,-624.45 749.99,-618.36 676,-579 576.93,-526.3 520.56,-422.75 448,-188 437.99,-155.63 437.95,-145.64 442,-112 443.07,-103.11 445.29,-93.43 447.46,-85.34"/>
<polygon fill="midnightblue" stroke="midnightblue" points="450.89,-86.09 450.27,-75.51 444.16,-84.17 450.89,-86.09"/>
</g>
<!-- Node195&#45;&gt;Node54 -->
<g id="edge105" class="edge">
<title>Node195&#45;&gt;Node54</title>
<path fill="none" stroke="midnightblue" d="M1115.92,-618.35C1051.45,-612.43 970.22,-600.83 945,-579 921.3,-558.49 930.67,-542.39 923,-512 891.63,-387.72 871.12,-333.34 938,-224 954.66,-196.76 959.88,-190.02 983,-168 995.17,-156.41 1010.43,-145.3 1022.76,-137.02"/>
<polygon fill="midnightblue" stroke="midnightblue" points="1024.7,-139.94 1031.14,-131.52 1020.86,-134.08 1024.7,-139.94"/>
</g>
<!-- Node195&#45;&gt;Node33 -->
<g id="edge50" class="edge">
<title>Node195&#45;&gt;Node33</title>
<path fill="none" stroke="midnightblue" d="M1115.52,-623.1C998.16,-620.64 795.59,-611.63 730,-579 657.62,-542.99 642.51,-517.63 607,-445 563.41,-355.84 539.16,-316.55 575,-224 579.45,-212.5 588.37,-202.13 596.75,-194.25"/>
<polygon fill="midnightblue" stroke="midnightblue" points="599.24,-196.73 604.46,-187.51 594.63,-191.46 599.24,-196.73"/>
</g>
<!-- Node195&#45;&gt;Node161 -->
<g id="edge51" class="edge">
<title>Node195&#45;&gt;Node161</title>
<path fill="none" stroke="midnightblue" d="M1206.6,-615.44C1222.4,-586.04 1274.65,-488.82 1296.39,-448.39"/>
<polygon fill="midnightblue" stroke="midnightblue" points="1299.56,-449.87 1301.21,-439.41 1293.4,-446.56 1299.56,-449.87"/>
</g>
<!-- Node195&#45;&gt;Node162 -->
<g id="edge95" class="edge">
<title>Node195&#45;&gt;Node162</title>
<path fill="none" stroke="midnightblue" d="M1199.45,-615.38C1190.69,-583.75 1165.17,-472.83 1219,-414 1242.39,-388.44 1328.22,-377.39 1395.55,-372.61"/>
<polygon fill="midnightblue" stroke="midnightblue" points="1396.02,-376.09 1405.77,-371.93 1395.55,-369.11 1396.02,-376.09"/>
</g>
<!-- Node195&#45;&gt;Node135 -->
<g id="edge99" class="edge">
<title>Node195&#45;&gt;Node135</title>
<path fill="none" stroke="midnightblue" d="M1115.74,-615.86C1066.72,-609.25 1012.16,-597.85 997,-579 931.64,-497.73 1046.2,-377.02 1098.75,-328.66"/>
<polygon fill="midnightblue" stroke="midnightblue" points="1101.26,-331.11 1106.32,-321.8 1096.56,-325.92 1101.26,-331.11"/>
</g>
<!-- Node195&#45;&gt;Node164 -->
<g id="edge94" class="edge">
<title>Node195&#45;&gt;Node164</title>
<path fill="none" stroke="midnightblue" d="M1229.77,-615.48C1255.64,-607.21 1295.05,-593.79 1328,-579 1374.16,-558.29 1425.39,-528.72 1454.15,-511.48"/>
<polygon fill="midnightblue" stroke="midnightblue" points="1456.25,-514.3 1463,-506.14 1452.63,-508.31 1456.25,-514.3"/>
</g>
<!-- Node195&#45;&gt;Node200 -->
<g id="edge52" class="edge">
<title>Node195&#45;&gt;Node200</title>
<path fill="none" stroke="midnightblue" d="M1185.67,-615.48C1166.79,-605.62 1135.49,-589.29 1113.42,-577.77"/>
<polygon fill="midnightblue" stroke="midnightblue" points="1114.79,-574.53 1104.3,-573.01 1111.55,-580.74 1114.79,-574.53"/>
</g>
<!-- Node195&#45;&gt;Node143 -->
<g id="edge97" class="edge">
<title>Node195&#45;&gt;Node143</title>
<path fill="none" stroke="midnightblue" d="M1119.58,-615.49C1065.02,-608.37 999.66,-596.53 978,-579 927.55,-538.18 933.16,-508.55 920,-445 904.36,-369.47 936.64,-334.98 1000,-291 1025.93,-273 1059.17,-260.19 1085.42,-251.97"/>
<polygon fill="midnightblue" stroke="midnightblue" points="1086.55,-255.28 1095.11,-249.04 1084.52,-248.58 1086.55,-255.28"/>
</g>
<!-- Node195&#45;&gt;Node60 -->
<g id="edge103" class="edge">
<title>Node195&#45;&gt;Node60</title>
<path fill="none" stroke="midnightblue" d="M1115.6,-624.25C1013.97,-622.84 853.11,-614.78 806,-579 786.28,-564.02 778.3,-535.29 775.1,-516.26"/>
<polygon fill="midnightblue" stroke="midnightblue" points="778.53,-515.53 773.69,-506.11 771.6,-516.5 778.53,-515.53"/>
</g>
<!-- Node195&#45;&gt;Node186 -->
<g id="edge96" class="edge">
<title>Node195&#45;&gt;Node186</title>
<path fill="none" stroke="midnightblue" d="M1288.21,-622.72C1566.94,-618.37 2442.01,-603.11 2724,-579 2935.11,-560.95 3037.06,-652.11 3196,-512 3291.27,-428.02 3291.17,-254.91 3288.31,-197.76"/>
<polygon fill="midnightblue" stroke="midnightblue" points="3291.8,-197.45 3287.71,-187.67 3284.81,-197.86 3291.8,-197.45"/>
</g>
<!-- Node200&#45;&gt;Node41 -->
<g id="edge53" class="edge">
<title>Node200&#45;&gt;Node41</title>
<path fill="none" stroke="midnightblue" d="M1170.2,-560.36C1291.37,-556.17 1511.31,-544.25 1583,-512 1755.4,-434.44 1728.32,-311.29 1896,-224 1938.4,-201.93 1991.18,-190.66 2032.56,-184.92"/>
<polygon fill="midnightblue" stroke="midnightblue" points="2033.09,-188.38 2042.55,-183.61 2032.18,-181.44 2033.09,-188.38"/>
</g>
<!-- Node200&#45;&gt;Node14 -->
<g id="edge87" class="edge">
<title>Node200&#45;&gt;Node14</title>
<path fill="none" stroke="midnightblue" d="M1058.44,-553.91C1015.1,-539.51 935.98,-505.91 904,-445 872.12,-384.27 882.26,-358.58 894,-291 909.45,-202.06 914.74,-161.86 990,-112 1017.74,-93.62 1097.56,-81.64 1161.7,-74.7"/>
<polygon fill="midnightblue" stroke="midnightblue" points="1162.27,-78.15 1171.84,-73.62 1161.53,-71.19 1162.27,-78.15"/>
</g>
<!-- Node200&#45;&gt;Node26 -->
<g id="edge89" class="edge">
<title>Node200&#45;&gt;Node26</title>
<path fill="none" stroke="midnightblue" d="M1087.82,-553.85C1087.76,-528.8 1091.02,-455.38 1129,-414 1164.5,-375.33 1185.65,-380.66 1233,-358 1302.17,-324.9 1318.81,-313.89 1392,-291 1466.12,-267.81 1502.83,-304.11 1563,-255 1616.66,-211.2 1570.58,-154.86 1625,-112 1658.85,-85.34 1784,-73.49 1846.7,-69.13"/>
<polygon fill="midnightblue" stroke="midnightblue" points="1847.18,-72.61 1856.93,-68.45 1846.72,-65.62 1847.18,-72.61"/>
</g>
<!-- Node200&#45;&gt;Node20 -->
<g id="edge90" class="edge">
<title>Node200&#45;&gt;Node20</title>
<path fill="none" stroke="midnightblue" d="M1170.25,-562.14C1491.89,-560.47 2654.68,-551.71 2815,-512 2951.21,-478.26 3298.63,-315.61 3357,-188 3400.89,-92.04 3202.4,-72.18 3119.22,-68.07"/>
<polygon fill="midnightblue" stroke="midnightblue" points="3119.35,-64.57 3109.2,-67.63 3119.04,-71.57 3119.35,-64.57"/>
</g>
<!-- Node200&#45;&gt;Node24 -->
<g id="edge92" class="edge">
<title>Node200&#45;&gt;Node24</title>
<path fill="none" stroke="midnightblue" d="M1049.92,-553.92C1016.7,-545.65 967.75,-531.5 928,-512 899.65,-498.09 478.73,-214.13 461,-188 440.09,-157.18 444.26,-111.17 448.83,-85.69"/>
<polygon fill="midnightblue" stroke="midnightblue" points="452.33,-86.04 450.87,-75.55 445.47,-84.66 452.33,-86.04"/>
</g>
<!-- Node200&#45;&gt;Node54 -->
<g id="edge93" class="edge">
<title>Node200&#45;&gt;Node54</title>
<path fill="none" stroke="midnightblue" d="M1078.31,-553.8C1060.68,-538.19 1021.86,-504.84 986,-481 958.18,-462.5 937.06,-473.73 920,-445 855.33,-336.05 982.54,-187.61 1028.97,-139.07"/>
<polygon fill="midnightblue" stroke="midnightblue" points="1031.7,-141.29 1036.16,-131.68 1026.68,-136.41 1031.7,-141.29"/>
</g>
<!-- Node200&#45;&gt;Node161 -->
<g id="edge57" class="edge">
<title>Node200&#45;&gt;Node161</title>
<path fill="none" stroke="midnightblue" d="M1103.37,-553.92C1121.01,-544.01 1150.78,-527.14 1176,-512 1214.45,-488.93 1258.54,-460.96 1284.23,-444.51"/>
<polygon fill="midnightblue" stroke="midnightblue" points="1286.29,-447.35 1292.82,-439 1282.51,-441.46 1286.29,-447.35"/>
</g>
<!-- Node200&#45;&gt;Node162 -->
<g id="edge85" class="edge">
<title>Node200&#45;&gt;Node162</title>
<path fill="none" stroke="midnightblue" d="M1098.59,-553.66C1109.47,-544.19 1126.42,-528.29 1138,-512 1166.1,-472.47 1146.9,-442.69 1186,-414 1218.47,-390.17 1320.09,-378.7 1395.24,-373.36"/>
<polygon fill="midnightblue" stroke="midnightblue" points="1395.92,-376.82 1405.66,-372.65 1395.45,-369.84 1395.92,-376.82"/>
</g>
<!-- Node200&#45;&gt;Node135 -->
<g id="edge88" class="edge">
<title>Node200&#45;&gt;Node135</title>
<path fill="none" stroke="midnightblue" d="M1084.32,-553.76C1080.37,-543.84 1074.33,-527.09 1072,-512 1065.34,-468.96 1062.35,-456.47 1072,-414 1078.97,-383.31 1095.91,-351.14 1108.37,-330.29"/>
<polygon fill="midnightblue" stroke="midnightblue" points="1111.48,-331.91 1113.72,-321.56 1105.51,-328.25 1111.48,-331.91"/>
</g>
<!-- Node200&#45;&gt;Node164 -->
<g id="edge84" class="edge">
<title>Node200&#45;&gt;Node164</title>
<path fill="none" stroke="midnightblue" d="M1139.25,-553.94C1210.63,-542.01 1339.76,-520.43 1416,-507.69"/>
<polygon fill="midnightblue" stroke="midnightblue" points="1416.65,-511.13 1425.94,-506.03 1415.5,-504.23 1416.65,-511.13"/>
</g>
<!-- Node180 -->
<g id="node24" class="node">
<title>Node180</title>
<g id="a_node24"><a xlink:href="DenseSet_8h.html" target="_top" xlink:title=" ">
<polygon fill="none" stroke="red" points="2059,-112.5 2059,-131.5 2179,-131.5 2179,-112.5 2059,-112.5"/>
<text text-anchor="middle" x="2119" y="-119.5" font-family="Helvetica,sans-Serif" font-size="10.00">llvm/ADT/DenseSet.h</text>
</a>
</g>
</g>
<!-- Node200&#45;&gt;Node180 -->
<g id="edge54" class="edge">
<title>Node200&#45;&gt;Node180</title>
<path fill="none" stroke="midnightblue" d="M1089.57,-553.99C1094.69,-528.7 1113.27,-453.3 1159,-414 1232.12,-351.15 1897.1,-179.28 2075.26,-134.04"/>
<polygon fill="midnightblue" stroke="midnightblue" points="2076.24,-137.4 2085.08,-131.55 2074.52,-130.61 2076.24,-137.4"/>
</g>
<!-- Node201 -->
<g id="node25" class="node">
<title>Node201</title>
<g id="a_node25"><a xlink:href="MachineFunction_8h.html" target="_top" xlink:title=" ">
<polygon fill="none" stroke="red" points="1816,-487 1816,-506 1996,-506 1996,-487 1816,-487"/>
<text text-anchor="middle" x="1906" y="-494" font-family="Helvetica,sans-Serif" font-size="10.00">llvm/CodeGen/MachineFunction.h</text>
</a>
</g>
</g>
<!-- Node200&#45;&gt;Node201 -->
<g id="edge58" class="edge">
<title>Node200&#45;&gt;Node201</title>
<path fill="none" stroke="midnightblue" d="M1170.18,-555.97C1321.17,-543.97 1642.23,-518.46 1805.76,-505.47"/>
<polygon fill="midnightblue" stroke="midnightblue" points="1806.13,-508.95 1815.82,-504.67 1805.58,-501.97 1806.13,-508.95"/>
</g>
<!-- Node200&#45;&gt;Node183 -->
<g id="edge86" class="edge">
<title>Node200&#45;&gt;Node183</title>
<path fill="none" stroke="midnightblue" d="M1005.77,-555.82C850.74,-543.22 517.24,-516.13 365.73,-503.82"/>
<polygon fill="midnightblue" stroke="midnightblue" points="365.83,-500.31 355.58,-502.99 365.26,-507.29 365.83,-500.31"/>
</g>
<!-- Node200&#45;&gt;Node60 -->
<g id="edge91" class="edge">
<title>Node200&#45;&gt;Node60</title>
<path fill="none" stroke="midnightblue" d="M1046.5,-553.94C981.83,-540.59 858.64,-515.17 802.36,-503.56"/>
<polygon fill="midnightblue" stroke="midnightblue" points="802.85,-500.09 792.35,-501.49 801.43,-506.94 802.85,-500.09"/>
</g>
<!-- Node180&#45;&gt;Node46 -->
<g id="edge55" class="edge">
<title>Node180&#45;&gt;Node46</title>
<path fill="none" stroke="midnightblue" d="M2179.19,-113.01C2182.17,-112.66 2185.12,-112.32 2188,-112 2359.8,-93.03 2565.67,-76.3 2648.17,-69.84"/>
<polygon fill="midnightblue" stroke="midnightblue" points="2648.6,-73.31 2658.29,-69.05 2648.05,-66.33 2648.6,-73.31"/>
</g>
<!-- Node180&#45;&gt;Node24 -->
<g id="edge56" class="edge">
<title>Node180&#45;&gt;Node24</title>
<path fill="none" stroke="midnightblue" d="M2058.72,-119.05C1788.07,-110.27 689.45,-74.66 485.62,-68.06"/>
<polygon fill="midnightblue" stroke="midnightblue" points="485.66,-64.56 475.55,-67.73 485.43,-71.55 485.66,-64.56"/>
</g>
<!-- Node201&#45;&gt;Node41 -->
<g id="edge59" class="edge">
<title>Node201&#45;&gt;Node41</title>
<path fill="none" stroke="midnightblue" d="M1920.11,-486.68C1932.72,-477.88 1950.35,-463.08 1958,-445 1973.06,-409.39 1966.21,-395.78 1958,-358 1944.59,-296.33 1871.85,-273.5 1911,-224 1926.16,-204.82 1984.56,-192.97 2032.65,-186.28"/>
<polygon fill="midnightblue" stroke="midnightblue" points="2033.29,-189.72 2042.74,-184.93 2032.36,-182.78 2033.29,-189.72"/>
</g>
<!-- Node201&#45;&gt;Node15 -->
<g id="edge79" class="edge">
<title>Node201&#45;&gt;Node15</title>
<path fill="none" stroke="midnightblue" d="M1852,-486.96C1614.04,-449.2 665.13,-297.24 537,-255 473.01,-233.9 436.59,-245.21 401,-188 369.66,-137.62 373.33,-91.33 421,-56 455.39,-30.51 1064.04,-16.58 1282.64,-12.38"/>
<polygon fill="midnightblue" stroke="midnightblue" points="1282.81,-15.88 1292.75,-12.19 1282.68,-8.88 1282.81,-15.88"/>
</g>
<!-- Node201&#45;&gt;Node26 -->
<g id="edge80" class="edge">
<title>Node201&#45;&gt;Node26</title>
<path fill="none" stroke="midnightblue" d="M1905.54,-486.94C1902.75,-434.88 1888.02,-160.48 1884.01,-85.79"/>
<polygon fill="midnightblue" stroke="midnightblue" points="1887.49,-85.38 1883.46,-75.58 1880.5,-85.75 1887.49,-85.38"/>
</g>
<!-- Node201&#45;&gt;Node20 -->
<g id="edge81" class="edge">
<title>Node201&#45;&gt;Node20</title>
<path fill="none" stroke="midnightblue" d="M1962.42,-486.97C2172.65,-455.07 2900.77,-343.51 2946,-322 3016.61,-288.42 3032.76,-261.29 3060,-188 3072.95,-153.17 3079.37,-109.96 3082.16,-85.74"/>
<polygon fill="midnightblue" stroke="midnightblue" points="3085.65,-86.08 3083.23,-75.77 3078.69,-85.34 3085.65,-86.08"/>
</g>
<!-- Node201&#45;&gt;Node24 -->
<g id="edge82" class="edge">
<title>Node201&#45;&gt;Node24</title>
<path fill="none" stroke="midnightblue" d="M1881.47,-486.83C1853.8,-476.98 1807.5,-460.28 1768,-445 1733.98,-431.84 1727.31,-423.18 1692,-414 1564.17,-380.76 1527.82,-396.21 1397,-378 1237.49,-355.8 1196.64,-354.95 1039,-322 924.3,-298.03 897.03,-285.89 784,-255 678.82,-226.26 638.55,-248.74 548,-188 507.49,-160.82 476.42,-110.82 461.95,-84.41"/>
<polygon fill="midnightblue" stroke="midnightblue" points="465.01,-82.72 457.23,-75.54 458.83,-86.01 465.01,-82.72"/>
</g>
<!-- Node201&#45;&gt;Node54 -->
<g id="edge83" class="edge">
<title>Node201&#45;&gt;Node54</title>
<path fill="none" stroke="midnightblue" d="M1894.02,-486.94C1870.75,-470.68 1817.41,-435.04 1768,-414 1682.68,-377.67 1657.28,-379.21 1567,-358 1559.62,-356.27 1035.83,-260.84 1031,-255 1004.06,-222.39 1022.95,-168.68 1035.8,-140.9"/>
<polygon fill="midnightblue" stroke="midnightblue" points="1039.09,-142.14 1040.32,-131.61 1032.79,-139.07 1039.09,-142.14"/>
</g>
<!-- Node87 -->
<g id="node26" class="node">
<title>Node87</title>
<g id="a_node26"><a xlink:href="MachineBasicBlock_8h.html" target="_top" xlink:title=" ">
<polygon fill="none" stroke="red" points="2466,-414.5 2466,-444.5 2622,-444.5 2622,-414.5 2466,-414.5"/>
<text text-anchor="start" x="2474" y="-432.5" font-family="Helvetica,sans-Serif" font-size="10.00">llvm/CodeGen/MachineBasic</text>
<text text-anchor="middle" x="2544" y="-421.5" font-family="Helvetica,sans-Serif" font-size="10.00">Block.h</text>
</a>
</g>
</g>
<!-- Node201&#45;&gt;Node87 -->
<g id="edge60" class="edge">
<title>Node201&#45;&gt;Node87</title>
<path fill="none" stroke="midnightblue" d="M1989.74,-486.97C2110.41,-474.67 2332.24,-452.07 2455.51,-439.52"/>
<polygon fill="midnightblue" stroke="midnightblue" points="2456.08,-442.98 2465.67,-438.48 2455.37,-436.01 2456.08,-442.98"/>
</g>
<!-- Node99 -->
<g id="node27" class="node">
<title>Node99</title>
<g id="a_node27"><a xlink:href="MachineInstr_8h.html" target="_top" xlink:title=" ">
<polygon fill="none" stroke="red" points="2272,-358.5 2272,-377.5 2432,-377.5 2432,-358.5 2272,-358.5"/>
<text text-anchor="middle" x="2352" y="-365.5" font-family="Helvetica,sans-Serif" font-size="10.00">llvm/CodeGen/MachineInstr.h</text>
</a>
</g>
</g>
<!-- Node201&#45;&gt;Node99 -->
<g id="edge78" class="edge">
<title>Node201&#45;&gt;Node99</title>
<path fill="none" stroke="midnightblue" d="M1943.41,-486.97C1984.46,-477.44 2052.21,-461.21 2110,-445 2184.26,-424.17 2270.19,-396.27 2317.05,-380.72"/>
<polygon fill="midnightblue" stroke="midnightblue" points="2318.34,-383.98 2326.72,-377.51 2316.13,-377.34 2318.34,-383.98"/>
</g>
<!-- Node87&#45;&gt;Node26 -->
<g id="edge74" class="edge">
<title>Node87&#45;&gt;Node26</title>
<path fill="none" stroke="midnightblue" d="M2533.36,-414.39C2520.78,-398.61 2498.43,-373.26 2474,-358 2431.8,-331.65 2413.68,-341.71 2368,-322 2325.28,-303.57 2226.51,-240.48 2183,-224 2119.29,-199.87 2095.16,-218.02 2034,-188 2019.2,-180.74 1938.34,-113.49 1901.41,-82.5"/>
<polygon fill="midnightblue" stroke="midnightblue" points="1903.34,-79.55 1893.43,-75.8 1898.84,-84.91 1903.34,-79.55"/>
</g>
<!-- Node87&#45;&gt;Node20 -->
<g id="edge75" class="edge">
<title>Node87&#45;&gt;Node20</title>
<path fill="none" stroke="midnightblue" d="M2622,-415.99C2738.79,-396.44 2952.77,-357.24 3022,-322 3109.76,-277.32 3121.3,-229.38 3136,-132 3137.33,-123.21 3139.7,-120.08 3136,-112 3130.22,-99.36 3118.95,-88.91 3108.37,-81.27"/>
<polygon fill="midnightblue" stroke="midnightblue" points="3110.04,-78.18 3099.78,-75.53 3106.15,-84 3110.04,-78.18"/>
</g>
<!-- Node87&#45;&gt;Node46 -->
<g id="edge76" class="edge">
<title>Node87&#45;&gt;Node46</title>
<path fill="none" stroke="midnightblue" d="M2588.89,-414.47C2650.91,-392.24 2759.61,-342.23 2799,-255 2829.88,-186.61 2746.12,-112.4 2705.57,-81.63"/>
<polygon fill="midnightblue" stroke="midnightblue" points="2707.52,-78.72 2697.4,-75.58 2703.35,-84.35 2707.52,-78.72"/>
</g>
<!-- Node87&#45;&gt;Node54 -->
<g id="edge77" class="edge">
<title>Node87&#45;&gt;Node54</title>
<path fill="none" stroke="midnightblue" d="M2529.03,-414.43C2510.16,-397.65 2475.94,-370.34 2441,-358 2249.31,-290.3 2186.67,-347.66 1985,-322 1906.21,-311.97 1887.76,-301.25 1809,-291 1621.02,-266.53 1568.66,-297.83 1384,-255 1262.41,-226.8 1126.51,-163.47 1070.87,-136.06"/>
<polygon fill="midnightblue" stroke="midnightblue" points="1072.25,-132.83 1061.73,-131.52 1069.13,-139.1 1072.25,-132.83"/>
</g>
<!-- Node87&#45;&gt;Node99 -->
<g id="edge61" class="edge">
<title>Node87&#45;&gt;Node99</title>
<path fill="none" stroke="midnightblue" d="M2498.5,-414.4C2465.18,-404.07 2420.51,-390.23 2389.29,-380.56"/>
<polygon fill="midnightblue" stroke="midnightblue" points="2390.25,-377.19 2379.66,-377.57 2388.17,-383.87 2390.25,-377.19"/>
</g>
<!-- Node99&#45;&gt;Node26 -->
<g id="edge71" class="edge">
<title>Node99&#45;&gt;Node26</title>
<path fill="none" stroke="midnightblue" d="M2341.76,-358.31C2324.31,-343.66 2287.42,-313.46 2254,-291 2204.58,-257.79 2193.19,-246.33 2138,-224 2076.84,-199.26 2050.69,-221.73 1994,-188 1949.05,-161.26 1911.52,-110.7 1893.86,-84.19"/>
<polygon fill="midnightblue" stroke="midnightblue" points="1896.66,-82.08 1888.27,-75.61 1890.79,-85.9 1896.66,-82.08"/>
</g>
<!-- Node99&#45;&gt;Node20 -->
<g id="edge72" class="edge">
<title>Node99&#45;&gt;Node20</title>
<path fill="none" stroke="midnightblue" d="M2432.25,-359.3C2436.9,-358.86 2441.51,-358.42 2446,-358 2617.54,-341.79 2668.03,-374.92 2832,-322 2887.93,-303.95 2904.23,-296.35 2946,-255 2998.71,-202.82 2984.25,-168.75 3032,-112 3041.37,-100.87 3053.6,-90.13 3063.85,-81.94"/>
<polygon fill="midnightblue" stroke="midnightblue" points="3066.13,-84.61 3071.88,-75.71 3061.84,-79.08 3066.13,-84.61"/>
</g>
<!-- Node99&#45;&gt;Node24 -->
<g id="edge73" class="edge">
<title>Node99&#45;&gt;Node24</title>
<path fill="none" stroke="midnightblue" d="M2271.92,-361.5C2112.95,-350.55 1768.17,-326.7 1714,-322 1641.67,-315.72 1135.15,-269.47 1064,-255 837.01,-208.84 574.03,-112.99 484.61,-79.15"/>
<polygon fill="midnightblue" stroke="midnightblue" points="485.65,-75.8 475.06,-75.52 483.16,-82.35 485.65,-75.8"/>
</g>
<!-- Node137 -->
<g id="node28" class="node">
<title>Node137</title>
<g id="a_node28"><a xlink:href="MachineOperand_8h.html" target="_top" xlink:title=" ">
<polygon fill="none" stroke="red" points="2534,-297 2534,-316 2714,-316 2714,-297 2534,-297"/>
<text text-anchor="middle" x="2624" y="-304" font-family="Helvetica,sans-Serif" font-size="10.00">llvm/CodeGen/MachineOperand.h</text>
</a>
</g>
</g>
<!-- Node99&#45;&gt;Node137 -->
<g id="edge62" class="edge">
<title>Node99&#45;&gt;Node137</title>
<path fill="none" stroke="midnightblue" d="M2390.97,-358.48C2439.55,-347.85 2522.58,-329.68 2575.3,-318.15"/>
<polygon fill="midnightblue" stroke="midnightblue" points="2576.08,-321.57 2585.1,-316.01 2574.58,-314.73 2576.08,-321.57"/>
</g>
<!-- Node99&#45;&gt;Node143 -->
<g id="edge66" class="edge">
<title>Node99&#45;&gt;Node143</title>
<path fill="none" stroke="midnightblue" d="M2271.72,-361.74C2176.87,-355 2014.47,-341.75 1876,-322 1803.43,-311.65 1786.67,-300.66 1714,-291 1503.25,-262.98 1448.45,-277.15 1237,-255 1223.58,-253.59 1209.26,-251.85 1195.57,-250.06"/>
<polygon fill="midnightblue" stroke="midnightblue" points="1195.63,-246.53 1185.26,-248.68 1194.71,-253.47 1195.63,-246.53"/>
</g>
<!-- Node137&#45;&gt;Node26 -->
<g id="edge65" class="edge">
<title>Node137&#45;&gt;Node26</title>
<path fill="none" stroke="midnightblue" d="M2627.58,-296.84C2633.52,-281.02 2643.37,-246.94 2629,-224 2568.42,-127.31 2507.99,-142.36 2398,-112 2307.55,-87.03 2021.27,-72.83 1919.41,-68.46"/>
<polygon fill="midnightblue" stroke="midnightblue" points="1919.45,-64.96 1909.31,-68.04 1919.15,-71.96 1919.45,-64.96"/>
</g>
<!-- Node137&#45;&gt;Node138 -->
<g id="edge63" class="edge">
<title>Node137&#45;&gt;Node138</title>
<path fill="none" stroke="midnightblue" d="M2598.11,-296.87C2563.77,-285.42 2503.04,-265.18 2464.47,-252.32"/>
<polygon fill="midnightblue" stroke="midnightblue" points="2465.28,-248.91 2454.69,-249.06 2463.07,-255.55 2465.28,-248.91"/>
</g>
<!-- Node138&#45;&gt;Node41 -->
<g id="edge64" class="edge">
<title>Node138&#45;&gt;Node41</title>
<path fill="none" stroke="midnightblue" d="M2382.01,-229.98C2322.82,-219.24 2221.21,-200.81 2157.75,-189.29"/>
<polygon fill="midnightblue" stroke="midnightblue" points="2158.37,-185.85 2147.91,-187.51 2157.12,-192.74 2158.37,-185.85"/>
</g>
<!-- Node143&#45;&gt;Node14 -->
<g id="edge68" class="edge">
<title>Node143&#45;&gt;Node14</title>
<path fill="none" stroke="midnightblue" d="M1132.28,-229.7C1140.73,-207.87 1164.98,-150.26 1199,-112 1208.79,-100.99 1221.23,-90.13 1231.49,-81.84"/>
<polygon fill="midnightblue" stroke="midnightblue" points="1233.8,-84.48 1239.48,-75.54 1229.46,-78.98 1233.8,-84.48"/>
</g>
<!-- Node143&#45;&gt;Node26 -->
<g id="edge69" class="edge">
<title>Node143&#45;&gt;Node26</title>
<path fill="none" stroke="midnightblue" d="M1146.14,-229.96C1193.76,-206.65 1332.27,-141.7 1455,-112 1596.89,-77.66 1771.51,-69.53 1846.25,-67.6"/>
<polygon fill="midnightblue" stroke="midnightblue" points="1846.62,-71.09 1856.53,-67.36 1846.45,-64.09 1846.62,-71.09"/>
</g>
<!-- Node143&#45;&gt;Node54 -->
<g id="edge70" class="edge">
<title>Node143&#45;&gt;Node54</title>
<path fill="none" stroke="midnightblue" d="M1122.69,-229.82C1108.82,-210.76 1075.51,-164.95 1057.33,-139.96"/>
<polygon fill="midnightblue" stroke="midnightblue" points="1060.1,-137.81 1051.39,-131.78 1054.44,-141.93 1060.1,-137.81"/>
</g>
<!-- Node143&#45;&gt;Node33 -->
<g id="edge67" class="edge">
<title>Node143&#45;&gt;Node33</title>
<path fill="none" stroke="midnightblue" d="M1072.63,-231.96C978.05,-220.99 787.69,-198.91 685.17,-187.02"/>
<polygon fill="midnightblue" stroke="midnightblue" points="685.56,-183.54 675.22,-185.87 684.75,-190.5 685.56,-183.54"/>
</g>
<!-- Node211&#45;&gt;Node41 -->
<g id="edge113" class="edge">
<title>Node211&#45;&gt;Node41</title>
<path fill="none" stroke="midnightblue" d="M2170.28,-486.93C2188.82,-479.15 2212.66,-465.7 2224,-445 2236.9,-421.45 2205.84,-311.49 2182,-291 2113.5,-232.13 2039.93,-324.29 1982,-255 1973.16,-244.43 1974.17,-235.34 1982,-224 1993.92,-206.74 2013.37,-196.1 2033.13,-189.53"/>
<polygon fill="midnightblue" stroke="midnightblue" points="2034.25,-192.85 2042.82,-186.63 2032.24,-186.15 2034.25,-192.85"/>
</g>
<!-- Node211&#45;&gt;Node20 -->
<g id="edge117" class="edge">
<title>Node211&#45;&gt;Node20</title>
<path fill="none" stroke="midnightblue" d="M2200.22,-493.38C2290.95,-489.09 2476.91,-476.9 2631,-445 2675.6,-435.77 2981.91,-343.61 3022,-322 3072.47,-294.8 3122,-297.84 3122,-240.5 3122,-240.5 3122,-240.5 3122,-177 3122,-142.81 3105.4,-105.76 3094.14,-84.57"/>
<polygon fill="midnightblue" stroke="midnightblue" points="3097.18,-82.83 3089.28,-75.77 3091.05,-86.22 3097.18,-82.83"/>
</g>
<!-- Node211&#45;&gt;Node54 -->
<g id="edge118" class="edge">
<title>Node211&#45;&gt;Node54</title>
<path fill="none" stroke="midnightblue" d="M2125.52,-486.99C2087.83,-470.79 2002.02,-435.28 1927,-414 1655.47,-337 1582.07,-339.28 1304,-291 1250.86,-281.77 1102.02,-293.25 1064,-255 1034.03,-224.85 1037.28,-170.04 1041.51,-141.46"/>
<polygon fill="midnightblue" stroke="midnightblue" points="1044.96,-142.02 1043.17,-131.58 1038.06,-140.86 1044.96,-142.02"/>
</g>
<!-- Node211&#45;&gt;Node162 -->
<g id="edge115" class="edge">
<title>Node211&#45;&gt;Node162</title>
<path fill="none" stroke="midnightblue" d="M2108.75,-486.94C2041.71,-471.28 1893.73,-437.46 1768,-414 1694.94,-400.37 1610.86,-387.47 1552.86,-379.01"/>
<polygon fill="midnightblue" stroke="midnightblue" points="1553.11,-375.5 1542.71,-377.53 1552.1,-382.43 1553.11,-375.5"/>
</g>
<!-- Node211&#45;&gt;Node135 -->
<g id="edge116" class="edge">
<title>Node211&#45;&gt;Node135</title>
<path fill="none" stroke="midnightblue" d="M2117.61,-486.99C2066.38,-471.26 1952.44,-437.13 1855,-414 1728.13,-383.89 1695.88,-377.83 1567,-358 1442.78,-338.89 1297.97,-323.74 1208.37,-315.2"/>
<polygon fill="midnightblue" stroke="midnightblue" points="1208.55,-311.7 1198.26,-314.24 1207.89,-318.67 1208.55,-311.7"/>
</g>
<!-- Node211&#45;&gt;Node87 -->
<g id="edge114" class="edge">
<title>Node211&#45;&gt;Node87</title>
<path fill="none" stroke="midnightblue" d="M2197.57,-486.94C2263.32,-476.22 2376.85,-457.73 2455.96,-444.84"/>
<polygon fill="midnightblue" stroke="midnightblue" points="2456.6,-448.28 2465.91,-443.22 2455.48,-441.37 2456.6,-448.28"/>
</g>
<!-- Node263&#45;&gt;Node4 -->
<g id="edge123" class="edge">
<title>Node263&#45;&gt;Node4</title>
<path fill="none" stroke="midnightblue" d="M607.06,-794.44C640.6,-785.2 694.2,-770.44 731.14,-760.26"/>
<polygon fill="midnightblue" stroke="midnightblue" points="732.38,-763.55 741.09,-757.52 730.52,-756.8 732.38,-763.55"/>
</g>
<!-- Node263&#45;&gt;Node211 -->
<g id="edge122" class="edge">
<title>Node263&#45;&gt;Node211</title>
<path fill="none" stroke="midnightblue" d="M646.19,-794.84C649.17,-794.54 652.11,-794.26 655,-794 953.35,-766.82 1738.71,-848.55 2000,-702 2076.47,-659.11 2122.38,-557.08 2138.47,-515.55"/>
<polygon fill="midnightblue" stroke="midnightblue" points="2141.76,-516.75 2142,-506.16 2135.21,-514.29 2141.76,-516.75"/>
</g>
<!-- Node264 -->
<g id="node36" class="node">
<title>Node264</title>
<g id="a_node36"><a xlink:href="HexagonTargetObjectFile_8h.html" target="_top" xlink:title=" ">
<polygon fill="none" stroke="red" points="544,-738.5 544,-757.5 692,-757.5 692,-738.5 544,-738.5"/>
<text text-anchor="middle" x="618" y="-745.5" font-family="Helvetica,sans-Serif" font-size="10.00">HexagonTargetObjectFile.h</text>
</a>
</g>
</g>
<!-- Node263&#45;&gt;Node264 -->
<g id="edge124" class="edge">
<title>Node263&#45;&gt;Node264</title>
<path fill="none" stroke="midnightblue" d="M582.94,-794.08C588.93,-786.38 597.75,-775.03 605.05,-765.65"/>
<polygon fill="midnightblue" stroke="midnightblue" points="607.82,-767.79 611.19,-757.75 602.29,-763.5 607.82,-767.79"/>
</g>
<!-- Node275 -->
<g id="node37" class="node">
<title>Node275</title>
<g id="a_node37"><a xlink:href="Target_2TargetMachine_8h.html" target="_top" xlink:title=" ">
<polygon fill="none" stroke="red" points="142.5,-554 142.5,-573 297.5,-573 297.5,-554 142.5,-554"/>
<text text-anchor="middle" x="220" y="-561" font-family="Helvetica,sans-Serif" font-size="10.00">llvm/Target/TargetMachine.h</text>
</a>
</g>
</g>
<!-- Node263&#45;&gt;Node275 -->
<g id="edge125" class="edge">
<title>Node263&#45;&gt;Node275</title>
<path fill="none" stroke="midnightblue" d="M562.91,-794.23C509.47,-758.43 307.6,-623.19 241.27,-578.75"/>
<polygon fill="midnightblue" stroke="midnightblue" points="243.09,-575.76 232.84,-573.1 239.2,-581.57 243.09,-575.76"/>
</g>
<!-- Node275&#45;&gt;Node24 -->
<g id="edge128" class="edge">
<title>Node275&#45;&gt;Node24</title>
<path fill="none" stroke="midnightblue" d="M211.66,-553.72C193.5,-533.62 152,-482.06 152,-430.5 152,-430.5 152,-430.5 152,-367 152,-215.54 345.55,-114.08 422.24,-79.82"/>
<polygon fill="midnightblue" stroke="midnightblue" points="424.08,-82.84 431.83,-75.62 421.27,-76.43 424.08,-82.84"/>
</g>
<!-- Node275&#45;&gt;Node33 -->
<g id="edge126" class="edge">
<title>Node275&#45;&gt;Node33</title>
<path fill="none" stroke="midnightblue" d="M216.9,-553.98C209.61,-533.19 192,-478.06 192,-430.5 192,-430.5 192,-430.5 192,-305.5 192,-232.44 426.06,-198.12 546.38,-185.3"/>
<polygon fill="midnightblue" stroke="midnightblue" points="547.02,-188.75 556.6,-184.23 546.29,-181.79 547.02,-188.75"/>
</g>
<!-- Node275&#45;&gt;Node183 -->
<g id="edge127" class="edge">
<title>Node275&#45;&gt;Node183</title>
<path fill="none" stroke="midnightblue" d="M229.17,-553.73C239.98,-543.4 258.15,-526.04 271.44,-513.33"/>
<polygon fill="midnightblue" stroke="midnightblue" points="274.16,-515.57 278.97,-506.13 269.33,-510.51 274.16,-515.57"/>
</g>
<!-- Node291&#45;&gt;Node200 -->
<g id="edge134" class="edge">
<title>Node291&#45;&gt;Node200</title>
<path fill="none" stroke="midnightblue" d="M1278.84,-794.39C1243.95,-772.43 1153.38,-710.69 1107,-635 1097.29,-619.15 1092.47,-598.33 1090.12,-583.43"/>
<polygon fill="midnightblue" stroke="midnightblue" points="1093.57,-582.82 1088.77,-573.37 1086.63,-583.75 1093.57,-582.82"/>
</g>
<!-- Node249 -->
<g id="node39" class="node">
<title>Node249</title>
<g id="a_node39"><a xlink:href="MachineFunctionPass_8h.html" target="_top" xlink:title=" ">
<polygon fill="none" stroke="red" points="1820.5,-671.5 1820.5,-701.5 1991.5,-701.5 1991.5,-671.5 1820.5,-671.5"/>
<text text-anchor="start" x="1828.5" y="-689.5" font-family="Helvetica,sans-Serif" font-size="10.00">llvm/CodeGen/MachineFunction</text>
<text text-anchor="middle" x="1906" y="-678.5" font-family="Helvetica,sans-Serif" font-size="10.00">Pass.h</text>
</a>
</g>
</g>
<!-- Node291&#45;&gt;Node249 -->
<g id="edge132" class="edge">
<title>Node291&#45;&gt;Node249</title>
<path fill="none" stroke="midnightblue" d="M1338.57,-794.41C1440.86,-775.14 1690.02,-728.2 1821.52,-703.42"/>
<polygon fill="midnightblue" stroke="midnightblue" points="1822.37,-706.82 1831.55,-701.53 1821.08,-699.94 1822.37,-706.82"/>
</g>
<!-- Node249&#45;&gt;Node201 -->
<g id="edge133" class="edge">
<title>Node249&#45;&gt;Node201</title>
<path fill="none" stroke="midnightblue" d="M1906,-671.37C1906,-637.94 1906,-553.97 1906,-516.3"/>
<polygon fill="midnightblue" stroke="midnightblue" points="1909.5,-516.21 1906,-506.21 1902.5,-516.21 1909.5,-516.21"/>
</g>
<!-- Node293&#45;&gt;Node41 -->
<g id="edge141" class="edge">
<title>Node293&#45;&gt;Node41</title>
<path fill="none" stroke="midnightblue" d="M2523.07,-229.94C2513.03,-227.8 2502.13,-225.65 2492,-224 2352.05,-201.19 2315.82,-204.56 2175,-188 2173.07,-187.77 2171.12,-187.54 2169.14,-187.31"/>
<polygon fill="midnightblue" stroke="midnightblue" points="2169.51,-183.83 2159.16,-186.12 2168.68,-190.78 2169.51,-183.83"/>
</g>
<!-- Node293&#45;&gt;Node48 -->
<g id="edge143" class="edge">
<title>Node293&#45;&gt;Node48</title>
<path fill="none" stroke="midnightblue" d="M2537.3,-229.82C2484.16,-209.49 2351.51,-158.76 2290.12,-135.28"/>
<polygon fill="midnightblue" stroke="midnightblue" points="2291.14,-131.93 2280.55,-131.62 2288.64,-138.47 2291.14,-131.93"/>
</g>
<!-- Node293&#45;&gt;Node15 -->
<g id="edge144" class="edge">
<title>Node293&#45;&gt;Node15</title>
<path fill="none" stroke="midnightblue" d="M2578.15,-229.88C2632,-203.29 2783.28,-120.38 2721,-56 2676.17,-9.66 1719.19,-9.62 1437.41,-10.62"/>
<polygon fill="midnightblue" stroke="midnightblue" points="1437.26,-7.12 1427.27,-10.66 1437.28,-14.12 1437.26,-7.12"/>
</g>
<!-- Node293&#45;&gt;Node26 -->
<g id="edge145" class="edge">
<title>Node293&#45;&gt;Node26</title>
<path fill="none" stroke="midnightblue" d="M2550.13,-229.74C2522.58,-205.86 2441.56,-139.6 2361,-112 2279.2,-83.98 2016.03,-71.82 1919.2,-68.22"/>
<polygon fill="midnightblue" stroke="midnightblue" points="1919.15,-64.71 1909.03,-67.85 1918.89,-71.71 1919.15,-64.71"/>
</g>
<!-- Node293&#45;&gt;Node46 -->
<g id="edge146" class="edge">
<title>Node293&#45;&gt;Node46</title>
<path fill="none" stroke="midnightblue" d="M2566.37,-229.76C2586.1,-202.69 2646.43,-119.91 2672.64,-83.96"/>
<polygon fill="midnightblue" stroke="midnightblue" points="2675.73,-85.66 2678.79,-75.52 2670.07,-81.54 2675.73,-85.66"/>
</g>
<!-- Node293&#45;&gt;Node54 -->
<g id="edge147" class="edge">
<title>Node293&#45;&gt;Node54</title>
<path fill="none" stroke="midnightblue" d="M2522.69,-229.98C2512.75,-227.87 2501.99,-225.72 2492,-224 2370.51,-203.13 2336.16,-219.55 2217,-188 2194.26,-181.98 2190.99,-172.99 2168,-168 1952.71,-121.26 1243.47,-121.96 1079.18,-122.78"/>
<polygon fill="midnightblue" stroke="midnightblue" points="1078.72,-119.28 1068.74,-122.84 1078.76,-126.28 1078.72,-119.28"/>
</g>
<!-- Node293&#45;&gt;Node180 -->
<g id="edge142" class="edge">
<title>Node293&#45;&gt;Node180</title>
<path fill="none" stroke="midnightblue" d="M2527.21,-229.91C2448.58,-209.32 2249.32,-157.13 2161.59,-134.15"/>
<polygon fill="midnightblue" stroke="midnightblue" points="2162.26,-130.71 2151.7,-131.56 2160.49,-137.48 2162.26,-130.71"/>
</g>
<!-- Node217&#45;&gt;Node41 -->
<g id="edge149" class="edge">
<title>Node217&#45;&gt;Node41</title>
<path fill="none" stroke="midnightblue" d="M2715.42,-549.93C2757.03,-541.37 2802.52,-528.57 2815,-512 2839.54,-479.43 2782.6,-418.22 2778,-414 2732.84,-372.58 2710.3,-376.9 2652,-358 2578.53,-334.19 2554.93,-347.4 2482,-322 2389.65,-289.84 2376.84,-257.6 2285,-224 2243.64,-208.87 2195.21,-197.25 2158.41,-189.62"/>
<polygon fill="midnightblue" stroke="midnightblue" points="2158.86,-186.14 2148.36,-187.57 2157.46,-193 2158.86,-186.14"/>
</g>
<!-- Node217&#45;&gt;Node14 -->
<g id="edge177" class="edge">
<title>Node217&#45;&gt;Node14</title>
<path fill="none" stroke="midnightblue" d="M2562.9,-561.14C2306.8,-556.33 1485.76,-538.95 1370,-512 1204.79,-473.55 1118.18,-472.01 1039,-322 988.75,-226.8 1156.15,-290.42 1194,-255 1242.74,-209.38 1250.27,-123.6 1251.11,-85.76"/>
<polygon fill="midnightblue" stroke="midnightblue" points="1254.61,-85.68 1251.2,-75.65 1247.62,-85.62 1254.61,-85.68"/>
</g>
<!-- Node217&#45;&gt;Node26 -->
<g id="edge178" class="edge">
<title>Node217&#45;&gt;Node26</title>
<path fill="none" stroke="midnightblue" d="M2715.3,-548.76C2716.88,-548.5 2718.45,-548.25 2720,-548 2776.29,-538.98 2934.74,-553.34 2974,-512 3016.78,-466.96 3018.22,-285.25 2972,-224 2876.67,-97.68 2789.41,-141.87 2634,-112 2494.58,-85.2 2050.4,-71.47 1919.58,-67.93"/>
<polygon fill="midnightblue" stroke="midnightblue" points="1919.4,-64.43 1909.31,-67.66 1919.21,-71.42 1919.4,-64.43"/>
</g>
<!-- Node217&#45;&gt;Node20 -->
<g id="edge179" class="edge">
<title>Node217&#45;&gt;Node20</title>
<path fill="none" stroke="midnightblue" d="M2715.28,-559.41C2858.35,-553.05 3156.22,-536.98 3196,-512 3279.66,-459.45 3454.57,-186.77 3390,-112 3355.38,-71.91 3192.37,-66.89 3119.43,-66.69"/>
<polygon fill="midnightblue" stroke="midnightblue" points="3119.35,-63.19 3109.35,-66.69 3119.35,-70.19 3119.35,-63.19"/>
</g>
<!-- Node217&#45;&gt;Node201 -->
<g id="edge154" class="edge">
<title>Node217&#45;&gt;Node201</title>
<path fill="none" stroke="midnightblue" d="M2562.97,-555.76C2429.89,-543.96 2154.76,-519.56 2006.27,-506.39"/>
<polygon fill="midnightblue" stroke="midnightblue" points="2006.5,-502.9 1996.23,-505.5 2005.89,-509.87 2006.5,-502.9"/>
</g>
<!-- Node217&#45;&gt;Node87 -->
<g id="edge153" class="edge">
<title>Node217&#45;&gt;Node87</title>
<path fill="none" stroke="midnightblue" d="M2562.89,-549.41C2522.61,-540.77 2479.03,-528.07 2467,-512 2458.74,-500.97 2460.45,-493.12 2467,-481 2474.16,-467.74 2486.48,-457.4 2499.2,-449.63"/>
<polygon fill="midnightblue" stroke="midnightblue" points="2501.02,-452.62 2508.01,-444.65 2497.58,-446.52 2501.02,-452.62"/>
</g>
<!-- Node217&#45;&gt;Node99 -->
<g id="edge155" class="edge">
<title>Node217&#45;&gt;Node99</title>
<path fill="none" stroke="midnightblue" d="M2562.88,-553C2528.26,-545.89 2488.17,-533.51 2457,-512 2409.38,-479.14 2375.11,-417.5 2360.24,-387.02"/>
<polygon fill="midnightblue" stroke="midnightblue" points="2363.24,-385.18 2355.8,-377.63 2356.91,-388.17 2363.24,-385.18"/>
</g>
<!-- Node217&#45;&gt;Node137 -->
<g id="edge158" class="edge">
<title>Node217&#45;&gt;Node137</title>
<path fill="none" stroke="midnightblue" d="M2715.3,-560.03C2792.14,-555.74 2903.05,-544.03 2930,-512 2958.04,-478.67 2942.79,-455.63 2930,-414 2921.17,-385.25 2917.15,-374.49 2892,-358 2875.43,-347.14 2765.97,-328.89 2692.16,-317.56"/>
<polygon fill="midnightblue" stroke="midnightblue" points="2692.41,-314.06 2682,-316.01 2691.35,-320.98 2692.41,-314.06"/>
</g>
<!-- Node217&#45;&gt;Node138 -->
<g id="edge176" class="edge">
<title>Node217&#45;&gt;Node138</title>
<path fill="none" stroke="midnightblue" d="M2715.19,-554.58C2769.82,-547.14 2836.71,-533.83 2854,-512 2881.05,-477.86 2866.79,-455.63 2854,-414 2809.41,-268.86 2664.04,-383.01 2525,-322 2507.17,-314.18 2467.67,-277.78 2445.3,-256.36"/>
<polygon fill="midnightblue" stroke="midnightblue" points="2447.53,-253.65 2437.9,-249.23 2442.67,-258.69 2447.53,-253.65"/>
</g>
<!-- Node218 -->
<g id="node43" class="node">
<title>Node218</title>
<g id="a_node43"><a xlink:href="CodeGen_2GlobalISel_2Utils_8h.html" target="_top" xlink:title=" ">
<polygon fill="none" stroke="red" points="1991,-224.5 1991,-254.5 2129,-254.5 2129,-224.5 1991,-224.5"/>
<text text-anchor="start" x="1999" y="-242.5" font-family="Helvetica,sans-Serif" font-size="10.00">llvm/CodeGen/GlobalISel</text>
<text text-anchor="middle" x="2060" y="-231.5" font-family="Helvetica,sans-Serif" font-size="10.00">/Utils.h</text>
</a>
</g>
</g>
<!-- Node217&#45;&gt;Node218 -->
<g id="edge150" class="edge">
<title>Node217&#45;&gt;Node218</title>
<path fill="none" stroke="midnightblue" d="M2562.84,-554.25C2518.99,-547.29 2463.86,-534.66 2419,-512 2337.41,-470.8 2323.31,-446.68 2263,-378 2232.5,-343.26 2242.46,-319.41 2206,-291 2186.56,-275.85 2162.27,-265.08 2139.11,-257.48"/>
<polygon fill="midnightblue" stroke="midnightblue" points="2139.87,-254.05 2129.28,-254.42 2137.78,-260.73 2139.87,-254.05"/>
</g>
<!-- Node220 -->
<g id="node44" class="node">
<title>Node220</title>
<g id="a_node44"><a xlink:href="MachineInstrBundle_8h.html" target="_top" xlink:title=" ">
<polygon fill="none" stroke="black" points="2476,-481.5 2476,-511.5 2628,-511.5 2628,-481.5 2476,-481.5"/>
<text text-anchor="start" x="2484" y="-499.5" font-family="Helvetica,sans-Serif" font-size="10.00">llvm/CodeGen/MachineInstr</text>
<text text-anchor="middle" x="2552" y="-488.5" font-family="Helvetica,sans-Serif" font-size="10.00">Bundle.h</text>
</a>
</g>
</g>
<!-- Node217&#45;&gt;Node220 -->
<g id="edge156" class="edge">
<title>Node217&#45;&gt;Node220</title>
<path fill="none" stroke="midnightblue" d="M2620.12,-548.4C2608.15,-539.45 2592.47,-527.74 2579.17,-517.8"/>
<polygon fill="midnightblue" stroke="midnightblue" points="2580.95,-514.76 2570.84,-511.58 2576.76,-520.37 2580.95,-514.76"/>
</g>
<!-- Node221 -->
<g id="node45" class="node">
<title>Node221</title>
<g id="a_node45"><a xlink:href="TargetRegisterInfo_8h.html" target="_top" xlink:title=" ">
<polygon fill="none" stroke="red" points="2646.5,-481.5 2646.5,-511.5 2805.5,-511.5 2805.5,-481.5 2646.5,-481.5"/>
<text text-anchor="start" x="2654.5" y="-499.5" font-family="Helvetica,sans-Serif" font-size="10.00">llvm/CodeGen/TargetRegister</text>
<text text-anchor="middle" x="2726" y="-488.5" font-family="Helvetica,sans-Serif" font-size="10.00">Info.h</text>
</a>
</g>
</g>
<!-- Node217&#45;&gt;Node221 -->
<g id="edge159" class="edge">
<title>Node217&#45;&gt;Node221</title>
<path fill="none" stroke="midnightblue" d="M2657.88,-548.4C2669.85,-539.45 2685.53,-527.74 2698.83,-517.8"/>
<polygon fill="midnightblue" stroke="midnightblue" points="2701.24,-520.37 2707.16,-511.58 2697.05,-514.76 2701.24,-520.37"/>
</g>
<!-- Node191 -->
<g id="node46" class="node">
<title>Node191</title>
<g id="a_node46"><a xlink:href="InstrTypes_8h.html" target="_top" xlink:title=" ">
<polygon fill="none" stroke="red" points="2676.5,-230 2676.5,-249 2789.5,-249 2789.5,-230 2676.5,-230"/>
<text text-anchor="middle" x="2733" y="-237" font-family="Helvetica,sans-Serif" font-size="10.00">llvm/IR/InstrTypes.h</text>
</a>
</g>
</g>
<!-- Node217&#45;&gt;Node191 -->
<g id="edge168" class="edge">
<title>Node217&#45;&gt;Node191</title>
<path fill="none" stroke="midnightblue" d="M2715.14,-561.08C2797.58,-557.75 2921.3,-546.89 2951,-512 2996.43,-458.62 2964.98,-409.09 2917,-358 2871.19,-309.23 2801.06,-271.84 2761.94,-253.34"/>
<polygon fill="midnightblue" stroke="midnightblue" points="2763.24,-250.08 2752.69,-249.04 2760.29,-256.43 2763.24,-250.08"/>
</g>
<!-- Node218&#45;&gt;Node20 -->
<g id="edge152" class="edge">
<title>Node218&#45;&gt;Node20</title>
<path fill="none" stroke="midnightblue" d="M2129.1,-226.78C2261.42,-204.35 2559.78,-153.86 2811,-112 2896.33,-97.78 2996.71,-81.3 3048.73,-72.77"/>
<polygon fill="midnightblue" stroke="midnightblue" points="3049.48,-76.2 3058.78,-71.13 3048.34,-69.29 3049.48,-76.2"/>
</g>
<!-- Node218&#45;&gt;Node33 -->
<g id="edge151" class="edge">
<title>Node218&#45;&gt;Node33</title>
<path fill="none" stroke="midnightblue" d="M1990.84,-235.65C1747.09,-225.61 929.55,-191.92 685.41,-181.86"/>
<polygon fill="midnightblue" stroke="midnightblue" points="685.38,-178.36 675.25,-181.44 685.1,-185.35 685.38,-178.36"/>
</g>
<!-- Node220&#45;&gt;Node87 -->
<g id="edge157" class="edge">
<title>Node220&#45;&gt;Node87</title>
<path fill="none" stroke="midnightblue" d="M2550.26,-481.4C2549.3,-473.56 2548.07,-463.6 2546.96,-454.57"/>
<polygon fill="midnightblue" stroke="midnightblue" points="2550.43,-454.07 2545.73,-444.58 2543.48,-454.93 2550.43,-454.07"/>
</g>
<!-- Node221&#45;&gt;Node41 -->
<g id="edge160" class="edge">
<title>Node221&#45;&gt;Node41</title>
<path fill="none" stroke="midnightblue" d="M2720.19,-481.41C2707.65,-452.91 2675.14,-388.53 2626,-358 2545.56,-308.03 2504.23,-356.39 2416,-322 2392.34,-312.78 2390.09,-303.53 2368,-291 2336.53,-273.16 2326.47,-272.84 2295,-255 2272.91,-242.47 2270.02,-234.73 2247,-224 2215.39,-209.26 2177.73,-197.79 2148.58,-190.12"/>
<polygon fill="midnightblue" stroke="midnightblue" points="2149.2,-186.67 2138.65,-187.57 2147.46,-193.45 2149.2,-186.67"/>
</g>
<!-- Node221&#45;&gt;Node14 -->
<g id="edge164" class="edge">
<title>Node221&#45;&gt;Node14</title>
<path fill="none" stroke="midnightblue" d="M2712.77,-481.3C2695.47,-463.46 2663.52,-432.87 2631,-414 2566.92,-376.81 2544.1,-381.97 2474,-358 2425.33,-341.36 2412.09,-340.25 2364,-322 2261.64,-283.15 2242.84,-255.53 2138,-224 1983.2,-177.44 1499.95,-103.69 1319.7,-77.03"/>
<polygon fill="midnightblue" stroke="midnightblue" points="1319.95,-73.53 1309.55,-75.53 1318.93,-80.46 1319.95,-73.53"/>
</g>
<!-- Node221&#45;&gt;Node26 -->
<g id="edge166" class="edge">
<title>Node221&#45;&gt;Node26</title>
<path fill="none" stroke="midnightblue" d="M2724.79,-481.43C2722.85,-464.51 2717.96,-435.69 2706,-414 2689.3,-383.72 2682.27,-374.71 2652,-358 2583.24,-320.05 2552.16,-350.56 2479,-322 2451.98,-311.45 2384.53,-278.11 2367,-255 2327.19,-202.52 2378.27,-154.57 2328,-112 2297.02,-85.77 2019.76,-72.37 1919.22,-68.34"/>
<polygon fill="midnightblue" stroke="midnightblue" points="1919.35,-64.84 1909.22,-67.94 1919.08,-71.83 1919.35,-64.84"/>
</g>
<!-- Node221&#45;&gt;Node20 -->
<g id="edge167" class="edge">
<title>Node221&#45;&gt;Node20</title>
<path fill="none" stroke="midnightblue" d="M2743.05,-481.49C2765.19,-463.83 2805.57,-433.45 2844,-414 2911.97,-379.59 2933.26,-380.62 3006,-358 3063.25,-340.2 3097.97,-368.35 3136,-322 3195.33,-249.68 3193.71,-194.7 3150,-112 3142.58,-97.95 3128.58,-87.47 3115.38,-80.17"/>
<polygon fill="midnightblue" stroke="midnightblue" points="3116.96,-77.04 3106.46,-75.62 3113.78,-83.28 3116.96,-77.04"/>
</g>
<!-- Node221&#45;&gt;Node33 -->
<g id="edge161" class="edge">
<title>Node221&#45;&gt;Node33</title>
<path fill="none" stroke="midnightblue" d="M2651.93,-481.49C2543.03,-461.02 2344.89,-424.24 2273,-414 2038.06,-380.52 1978.06,-382.35 1742,-358 1583.37,-341.64 1542.99,-343.69 1385,-322 1305.44,-311.08 1286.39,-303.05 1207,-291 1083.82,-272.31 1051.5,-277.73 929,-255 829.99,-236.63 715.39,-206.49 656.13,-190.24"/>
<polygon fill="midnightblue" stroke="midnightblue" points="656.99,-186.84 646.42,-187.56 655.13,-193.59 656.99,-186.84"/>
</g>
<!-- Node221&#45;&gt;Node135 -->
<g id="edge165" class="edge">
<title>Node221&#45;&gt;Node135</title>
<path fill="none" stroke="midnightblue" d="M2646.45,-482.38C2643.26,-481.91 2640.1,-481.44 2637,-481 2195.91,-417.83 2084.9,-406.91 1642,-358 1489.39,-341.15 1311.19,-324.46 1208.29,-315.11"/>
<polygon fill="midnightblue" stroke="midnightblue" points="1208.54,-311.62 1198.27,-314.21 1207.91,-318.59 1208.54,-311.62"/>
</g>
<!-- Node221&#45;&gt;Node87 -->
<g id="edge162" class="edge">
<title>Node221&#45;&gt;Node87</title>
<path fill="none" stroke="midnightblue" d="M2686.51,-481.4C2659.08,-471.6 2622.35,-458.48 2593.04,-448.02"/>
<polygon fill="midnightblue" stroke="midnightblue" points="2594.01,-444.64 2583.41,-444.58 2591.65,-451.24 2594.01,-444.64"/>
</g>
<!-- Node221&#45;&gt;Node186 -->
<g id="edge163" class="edge">
<title>Node221&#45;&gt;Node186</title>
<path fill="none" stroke="midnightblue" d="M2759.42,-481.46C2842.19,-446.7 3050.28,-359.33 3054,-358 3106.42,-339.21 3127.94,-353.29 3174,-322 3199.6,-304.61 3252.05,-230.3 3275.38,-196.22"/>
<polygon fill="midnightblue" stroke="midnightblue" points="3278.4,-197.98 3281.13,-187.75 3272.62,-194.05 3278.4,-197.98"/>
</g>
<!-- Node191&#45;&gt;Node41 -->
<g id="edge169" class="edge">
<title>Node191&#45;&gt;Node41</title>
<path fill="none" stroke="midnightblue" d="M2676.39,-230.05C2661.04,-227.91 2644.4,-225.73 2629,-224 2541.83,-214.22 2291.56,-194.04 2169.54,-184.38"/>
<polygon fill="midnightblue" stroke="midnightblue" points="2169.45,-180.86 2159.2,-183.56 2168.89,-187.84 2169.45,-180.86"/>
</g>
<!-- Node191&#45;&gt;Node48 -->
<g id="edge170" class="edge">
<title>Node191&#45;&gt;Node48</title>
<path fill="none" stroke="midnightblue" d="M2697.69,-229.91C2612.74,-209.26 2397.06,-156.81 2303.01,-133.94"/>
<polygon fill="midnightblue" stroke="midnightblue" points="2303.77,-130.53 2293.22,-131.56 2302.11,-137.33 2303.77,-130.53"/>
</g>
<!-- Node191&#45;&gt;Node26 -->
<g id="edge172" class="edge">
<title>Node191&#45;&gt;Node26</title>
<path fill="none" stroke="midnightblue" d="M2727.61,-229.97C2711.97,-206.11 2663.89,-138.67 2604,-112 2541.19,-84.03 2056.95,-70.96 1919.36,-67.79"/>
<polygon fill="midnightblue" stroke="midnightblue" points="1919.4,-64.29 1909.32,-67.56 1919.24,-71.28 1919.4,-64.29"/>
</g>
<!-- Node191&#45;&gt;Node20 -->
<g id="edge173" class="edge">
<title>Node191&#45;&gt;Node20</title>
<path fill="none" stroke="midnightblue" d="M2737.55,-230C2750.44,-206.78 2789.72,-142.05 2842,-112 2907.93,-74.1 2999.13,-67.15 3048.61,-66.43"/>
<polygon fill="midnightblue" stroke="midnightblue" points="3048.83,-69.93 3058.8,-66.36 3048.78,-62.93 3048.83,-69.93"/>
</g>
<!-- Node191&#45;&gt;Node46 -->
<g id="edge174" class="edge">
<title>Node191&#45;&gt;Node46</title>
<path fill="none" stroke="midnightblue" d="M2730.55,-229.76C2723.07,-203.04 2700.4,-122.02 2690.14,-85.36"/>
<polygon fill="midnightblue" stroke="midnightblue" points="2693.45,-84.21 2687.38,-75.52 2686.71,-86.09 2693.45,-84.21"/>
</g>
<!-- Node191&#45;&gt;Node54 -->
<g id="edge175" class="edge">
<title>Node191&#45;&gt;Node54</title>
<path fill="none" stroke="midnightblue" d="M2681.66,-229.95C2587.76,-214.69 2381.88,-182.96 2207,-168 1761.98,-129.94 1218.3,-124.05 1078.84,-123.16"/>
<polygon fill="midnightblue" stroke="midnightblue" points="1078.8,-119.66 1068.78,-123.1 1078.76,-126.66 1078.8,-119.66"/>
</g>
<!-- Node191&#45;&gt;Node186 -->
<g id="edge171" class="edge">
<title>Node191&#45;&gt;Node186</title>
<path fill="none" stroke="midnightblue" d="M2789.68,-232.41C2891.44,-221.48 3104.82,-198.57 3216.08,-186.62"/>
<polygon fill="midnightblue" stroke="midnightblue" points="3216.63,-190.08 3226.2,-185.53 3215.88,-183.12 3216.63,-190.08"/>
</g>
</g>
</svg>
