<?xml version="1.0" encoding="UTF-8" standalone="no"?>
<!DOCTYPE svg PUBLIC "-//W3C//DTD SVG 1.1//EN"
 "http://www.w3.org/Graphics/SVG/1.1/DTD/svg11.dtd">
<!-- Generated by graphviz version 2.43.0 (0)
 -->
<!-- Title: include/llvm/Analysis/Utils/ImportedFunctionsInliningStatistics.h Pages: 1 -->
<svg width="2107pt" height="430pt"
 viewBox="0.00 0.00 2107.00 430.00" xmlns="http://www.w3.org/2000/svg" xmlns:xlink="http://www.w3.org/1999/xlink">
<g id="graph0" class="graph" transform="scale(1 1) rotate(0) translate(4 426)">
<title>include/llvm/Analysis/Utils/ImportedFunctionsInliningStatistics.h</title>
<!-- Node1 -->
<g id="node1" class="node">
<title>Node1</title>
<g id="a_node1"><a xlink:title=" ">
<polygon fill="#bfbfbf" stroke="black" points="1696.5,-380.5 1696.5,-421.5 1868.5,-421.5 1868.5,-380.5 1696.5,-380.5"/>
<text text-anchor="start" x="1704.5" y="-409.5" font-family="Helvetica,sans-Serif" font-size="10.00">include/llvm/Analysis</text>
<text text-anchor="start" x="1704.5" y="-398.5" font-family="Helvetica,sans-Serif" font-size="10.00">/Utils/ImportedFunctionsInlining</text>
<text text-anchor="middle" x="1782.5" y="-387.5" font-family="Helvetica,sans-Serif" font-size="10.00">Statistics.h</text>
</a>
</g>
</g>
<!-- Node2 -->
<g id="node2" class="node">
<title>Node2</title>
<g id="a_node2"><a xlink:href="Inliner_8h.html" target="_top" xlink:title=" ">
<polygon fill="none" stroke="black" points="1532.5,-313.5 1532.5,-343.5 1666.5,-343.5 1666.5,-313.5 1532.5,-313.5"/>
<text text-anchor="start" x="1540.5" y="-331.5" font-family="Helvetica,sans-Serif" font-size="10.00">include/llvm/Transforms</text>
<text text-anchor="middle" x="1599.5" y="-320.5" font-family="Helvetica,sans-Serif" font-size="10.00">/IPO/Inliner.h</text>
</a>
</g>
</g>
<!-- Node1&#45;&gt;Node2 -->
<g id="edge1" class="edge">
<title>Node1&#45;&gt;Node2</title>
<path fill="none" stroke="midnightblue" d="M1722.06,-376.72C1693.6,-365.75 1660.58,-353.03 1636,-343.56"/>
<polygon fill="midnightblue" stroke="midnightblue" points="1720.93,-380.03 1731.52,-380.36 1723.45,-373.5 1720.93,-380.03"/>
</g>
<!-- Node24 -->
<g id="node24" class="node">
<title>Node24</title>
<g id="a_node24"><a xlink:href="Inliner_8cpp.html" target="_top" xlink:title=" ">
<polygon fill="none" stroke="black" points="1709,-246.5 1709,-276.5 1814,-276.5 1814,-246.5 1709,-246.5"/>
<text text-anchor="start" x="1717" y="-264.5" font-family="Helvetica,sans-Serif" font-size="10.00">lib/Transforms/IPO</text>
<text text-anchor="middle" x="1761.5" y="-253.5" font-family="Helvetica,sans-Serif" font-size="10.00">/Inliner.cpp</text>
</a>
</g>
</g>
<!-- Node1&#45;&gt;Node24 -->
<g id="edge38" class="edge">
<title>Node1&#45;&gt;Node24</title>
<path fill="none" stroke="midnightblue" d="M1760.1,-372C1754.55,-363.5 1749.38,-353.79 1746.5,-344 1739.69,-320.81 1748.28,-292.96 1754.99,-276.55"/>
<polygon fill="midnightblue" stroke="midnightblue" points="1757.35,-374.18 1765.93,-380.39 1763.1,-370.18 1757.35,-374.18"/>
</g>
<!-- Node26 -->
<g id="node26" class="node">
<title>Node26</title>
<g id="a_node26"><a xlink:href="ImportedFunctionsInliningStatistics_8cpp.html" target="_top" xlink:title=" ">
<polygon fill="none" stroke="black" points="1755,-313.5 1755,-343.5 1922,-343.5 1922,-313.5 1755,-313.5"/>
<text text-anchor="start" x="1763" y="-331.5" font-family="Helvetica,sans-Serif" font-size="10.00">lib/Analysis/ImportedFunctions</text>
<text text-anchor="middle" x="1838.5" y="-320.5" font-family="Helvetica,sans-Serif" font-size="10.00">InliningStatistics.cpp</text>
</a>
</g>
</g>
<!-- Node1&#45;&gt;Node26 -->
<g id="edge36" class="edge">
<title>Node1&#45;&gt;Node26</title>
<path fill="none" stroke="midnightblue" d="M1804.4,-372.43C1812.14,-362.68 1820.54,-352.11 1827.07,-343.89"/>
<polygon fill="midnightblue" stroke="midnightblue" points="1801.58,-370.35 1798.1,-380.36 1807.06,-374.71 1801.58,-370.35"/>
</g>
<!-- Node27 -->
<g id="node27" class="node">
<title>Node27</title>
<g id="a_node27"><a xlink:href="InlineAdvisor_8cpp.html" target="_top" xlink:title=" ">
<polygon fill="none" stroke="black" points="1940,-319 1940,-338 2099,-338 2099,-319 1940,-319"/>
<text text-anchor="middle" x="2019.5" y="-326" font-family="Helvetica,sans-Serif" font-size="10.00">lib/Analysis/InlineAdvisor.cpp</text>
</a>
</g>
</g>
<!-- Node1&#45;&gt;Node27 -->
<g id="edge37" class="edge">
<title>Node1&#45;&gt;Node27</title>
<path fill="none" stroke="midnightblue" d="M1857.99,-377.54C1903.23,-364.09 1958.15,-347.75 1990.88,-338.01"/>
<polygon fill="midnightblue" stroke="midnightblue" points="1856.79,-374.25 1848.2,-380.46 1858.79,-380.96 1856.79,-374.25"/>
</g>
<!-- Node3 -->
<g id="node3" class="node">
<title>Node3</title>
<g id="a_node3"><a xlink:href="Passes_2PassBuilder_8h.html" target="_top" xlink:title=" ">
<polygon fill="none" stroke="black" points="829,-246.5 829,-276.5 942,-276.5 942,-246.5 829,-246.5"/>
<text text-anchor="start" x="837" y="-264.5" font-family="Helvetica,sans-Serif" font-size="10.00">include/llvm/Passes</text>
<text text-anchor="middle" x="885.5" y="-253.5" font-family="Helvetica,sans-Serif" font-size="10.00">/PassBuilder.h</text>
</a>
</g>
</g>
<!-- Node2&#45;&gt;Node3 -->
<g id="edge2" class="edge">
<title>Node2&#45;&gt;Node3</title>
<path fill="none" stroke="midnightblue" d="M1522.21,-320.46C1377.72,-307.31 1069.76,-279.27 942.43,-267.68"/>
<polygon fill="midnightblue" stroke="midnightblue" points="1522.05,-323.96 1532.33,-321.38 1522.69,-316.99 1522.05,-323.96"/>
</g>
<!-- Node16 -->
<g id="node16" class="node">
<title>Node16</title>
<g id="a_node16"><a xlink:href="PassBuilder_8cpp.html" target="_top" xlink:title=" ">
<polygon fill="none" stroke="black" points="1609,-185 1609,-204 1752,-204 1752,-185 1609,-185"/>
<text text-anchor="middle" x="1680.5" y="-192" font-family="Helvetica,sans-Serif" font-size="10.00">lib/Passes/PassBuilder.cpp</text>
</a>
</g>
</g>
<!-- Node2&#45;&gt;Node16 -->
<g id="edge31" class="edge">
<title>Node2&#45;&gt;Node16</title>
<path fill="none" stroke="midnightblue" d="M1631.4,-307.32C1642.07,-299.11 1653.12,-288.77 1660.5,-277 1675.28,-253.42 1679.14,-219.66 1680.15,-204.03"/>
<polygon fill="midnightblue" stroke="midnightblue" points="1629.02,-304.72 1622.99,-313.43 1633.14,-310.38 1629.02,-304.72"/>
</g>
<!-- Node18 -->
<g id="node18" class="node">
<title>Node18</title>
<g id="a_node18"><a xlink:href="PassBuilderPipelines_8cpp.html" target="_top" xlink:title=" ">
<polygon fill="none" stroke="black" points="1402.5,-185 1402.5,-204 1590.5,-204 1590.5,-185 1402.5,-185"/>
<text text-anchor="middle" x="1496.5" y="-192" font-family="Helvetica,sans-Serif" font-size="10.00">lib/Passes/PassBuilderPipelines.cpp</text>
</a>
</g>
</g>
<!-- Node2&#45;&gt;Node18 -->
<g id="edge32" class="edge">
<title>Node2&#45;&gt;Node18</title>
<path fill="none" stroke="midnightblue" d="M1522.13,-315.99C1477.65,-307.62 1427.98,-294.65 1414.5,-277 1406.14,-266.05 1407.78,-258.03 1414.5,-246 1426.16,-225.13 1450.38,-211.82 1469.49,-204.13"/>
<polygon fill="midnightblue" stroke="midnightblue" points="1521.65,-319.46 1532.12,-317.81 1522.91,-312.58 1521.65,-319.46"/>
</g>
<!-- Node23 -->
<g id="node23" class="node">
<title>Node23</title>
<g id="a_node23"><a xlink:href="AlwaysInliner_8cpp.html" target="_top" xlink:title=" ">
<polygon fill="none" stroke="black" points="1424,-246.5 1424,-276.5 1529,-276.5 1529,-246.5 1424,-246.5"/>
<text text-anchor="start" x="1432" y="-264.5" font-family="Helvetica,sans-Serif" font-size="10.00">lib/Transforms/IPO</text>
<text text-anchor="middle" x="1476.5" y="-253.5" font-family="Helvetica,sans-Serif" font-size="10.00">/AlwaysInliner.cpp</text>
</a>
</g>
</g>
<!-- Node2&#45;&gt;Node23 -->
<g id="edge33" class="edge">
<title>Node2&#45;&gt;Node23</title>
<path fill="none" stroke="midnightblue" d="M1563.95,-308.71C1544.55,-298.46 1520.94,-285.98 1503.14,-276.58"/>
<polygon fill="midnightblue" stroke="midnightblue" points="1562.33,-311.82 1572.81,-313.4 1565.6,-305.63 1562.33,-311.82"/>
</g>
<!-- Node2&#45;&gt;Node24 -->
<g id="edge34" class="edge">
<title>Node2&#45;&gt;Node24</title>
<path fill="none" stroke="midnightblue" d="M1644.25,-309.54C1670.17,-299.14 1702.34,-286.24 1726.42,-276.58"/>
<polygon fill="midnightblue" stroke="midnightblue" points="1642.63,-306.42 1634.65,-313.4 1645.24,-312.92 1642.63,-306.42"/>
</g>
<!-- Node25 -->
<g id="node25" class="node">
<title>Node25</title>
<g id="a_node25"><a xlink:href="InlineSimple_8cpp.html" target="_top" xlink:title=" ">
<polygon fill="none" stroke="black" points="1547,-246.5 1547,-276.5 1652,-276.5 1652,-246.5 1547,-246.5"/>
<text text-anchor="start" x="1555" y="-264.5" font-family="Helvetica,sans-Serif" font-size="10.00">lib/Transforms/IPO</text>
<text text-anchor="middle" x="1599.5" y="-253.5" font-family="Helvetica,sans-Serif" font-size="10.00">/InlineSimple.cpp</text>
</a>
</g>
</g>
<!-- Node2&#45;&gt;Node25 -->
<g id="edge35" class="edge">
<title>Node2&#45;&gt;Node25</title>
<path fill="none" stroke="midnightblue" d="M1599.5,-303.11C1599.5,-294.15 1599.5,-284.32 1599.5,-276.58"/>
<polygon fill="midnightblue" stroke="midnightblue" points="1596,-303.4 1599.5,-313.4 1603,-303.4 1596,-303.4"/>
</g>
<!-- Node4 -->
<g id="node4" class="node">
<title>Node4</title>
<g id="a_node4"><a xlink:href="Config_8h.html" target="_top" xlink:title=" ">
<polygon fill="none" stroke="black" points="1244.5,-185 1244.5,-204 1384.5,-204 1384.5,-185 1244.5,-185"/>
<text text-anchor="middle" x="1314.5" y="-192" font-family="Helvetica,sans-Serif" font-size="10.00">include/llvm/LTO/Config.h</text>
</a>
</g>
</g>
<!-- Node3&#45;&gt;Node4 -->
<g id="edge3" class="edge">
<title>Node3&#45;&gt;Node4</title>
<path fill="none" stroke="midnightblue" d="M952.36,-251.63C1022.88,-242.09 1137.19,-226.11 1235.5,-210 1246.65,-208.17 1258.65,-206.05 1269.85,-204"/>
<polygon fill="midnightblue" stroke="midnightblue" points="951.72,-248.18 942.28,-252.99 952.66,-255.12 951.72,-248.18"/>
</g>
<!-- Node11 -->
<g id="node11" class="node">
<title>Node11</title>
<g id="a_node11"><a xlink:href="ThinLTOCodeGenerator_8cpp.html" target="_top" xlink:title=" ">
<polygon fill="none" stroke="black" points="0,-0.5 0,-19.5 185,-19.5 185,-0.5 0,-0.5"/>
<text text-anchor="middle" x="92.5" y="-7.5" font-family="Helvetica,sans-Serif" font-size="10.00">lib/LTO/ThinLTOCodeGenerator.cpp</text>
</a>
</g>
</g>
<!-- Node3&#45;&gt;Node11 -->
<g id="edge23" class="edge">
<title>Node3&#45;&gt;Node11</title>
<path fill="none" stroke="midnightblue" d="M818.77,-260.68C642.72,-260.52 175.63,-255.75 124.5,-210 67.91,-159.37 84.27,-51.59 90.56,-19.92"/>
<polygon fill="midnightblue" stroke="midnightblue" points="818.94,-264.18 828.94,-260.68 818.94,-257.18 818.94,-264.18"/>
</g>
<!-- Node14 -->
<g id="node14" class="node">
<title>Node14</title>
<g id="a_node14"><a xlink:href="LTOBackend_8cpp.html" target="_top" xlink:title=" ">
<polygon fill="none" stroke="black" points="253.5,-0.5 253.5,-19.5 385.5,-19.5 385.5,-0.5 253.5,-0.5"/>
<text text-anchor="middle" x="319.5" y="-7.5" font-family="Helvetica,sans-Serif" font-size="10.00">lib/LTO/LTOBackend.cpp</text>
</a>
</g>
</g>
<!-- Node3&#45;&gt;Node14 -->
<g id="edge22" class="edge">
<title>Node3&#45;&gt;Node14</title>
<path fill="none" stroke="midnightblue" d="M818.73,-260.99C645.98,-261.55 194.63,-258.34 149.5,-210 102.79,-159.97 107.75,-110.24 149.5,-56 162.77,-38.76 213.94,-26.77 256.71,-19.53"/>
<polygon fill="midnightblue" stroke="midnightblue" points="818.97,-264.49 828.96,-260.95 818.95,-257.49 818.97,-264.49"/>
</g>
<!-- Node15 -->
<g id="node15" class="node">
<title>Node15</title>
<g id="a_node15"><a xlink:href="SpeculateAnalyses_8cpp.html" target="_top" xlink:title=" ">
<polygon fill="none" stroke="black" points="158.5,-179.5 158.5,-209.5 310.5,-209.5 310.5,-179.5 158.5,-179.5"/>
<text text-anchor="start" x="166.5" y="-197.5" font-family="Helvetica,sans-Serif" font-size="10.00">lib/ExecutionEngine</text>
<text text-anchor="middle" x="234.5" y="-186.5" font-family="Helvetica,sans-Serif" font-size="10.00">/Orc/SpeculateAnalyses.cpp</text>
</a>
</g>
</g>
<!-- Node3&#45;&gt;Node15 -->
<g id="edge21" class="edge">
<title>Node3&#45;&gt;Node15</title>
<path fill="none" stroke="midnightblue" d="M818.46,-256.26C712.31,-249.16 499.16,-233.3 319.5,-210 316.68,-209.63 313.81,-209.24 310.91,-208.83"/>
<polygon fill="midnightblue" stroke="midnightblue" points="818.49,-259.77 828.7,-256.94 818.95,-252.79 818.49,-259.77"/>
</g>
<!-- Node3&#45;&gt;Node16 -->
<g id="edge24" class="edge">
<title>Node3&#45;&gt;Node16</title>
<path fill="none" stroke="midnightblue" d="M952.47,-258.14C1079.2,-253.16 1362.61,-239.5 1599.5,-210 1611.98,-208.45 1625.45,-206.25 1637.75,-204.03"/>
<polygon fill="midnightblue" stroke="midnightblue" points="952.02,-254.66 942.16,-258.54 952.29,-261.65 952.02,-254.66"/>
</g>
<!-- Node17 -->
<g id="node17" class="node">
<title>Node17</title>
<g id="a_node17"><a xlink:href="PassBuilderBindings_8cpp.html" target="_top" xlink:title=" ">
<polygon fill="none" stroke="black" points="328.5,-185 328.5,-204 514.5,-204 514.5,-185 328.5,-185"/>
<text text-anchor="middle" x="421.5" y="-192" font-family="Helvetica,sans-Serif" font-size="10.00">lib/Passes/PassBuilderBindings.cpp</text>
</a>
</g>
</g>
<!-- Node3&#45;&gt;Node17 -->
<g id="edge25" class="edge">
<title>Node3&#45;&gt;Node17</title>
<path fill="none" stroke="midnightblue" d="M818.82,-251.25C746.18,-241.16 626.57,-224.52 523.5,-210 509.86,-208.08 495.2,-206 481.36,-204.04"/>
<polygon fill="midnightblue" stroke="midnightblue" points="818.36,-254.72 828.75,-252.63 819.33,-247.79 818.36,-254.72"/>
</g>
<!-- Node3&#45;&gt;Node18 -->
<g id="edge26" class="edge">
<title>Node3&#45;&gt;Node18</title>
<path fill="none" stroke="midnightblue" d="M952.32,-254.73C1049.55,-246.14 1235.63,-228.95 1393.5,-210 1408.29,-208.22 1424.25,-206.09 1439.08,-204.01"/>
<polygon fill="midnightblue" stroke="midnightblue" points="952,-251.25 942.34,-255.61 952.61,-258.22 952,-251.25"/>
</g>
<!-- Node19 -->
<g id="node19" class="node">
<title>Node19</title>
<g id="a_node19"><a xlink:href="AMDGPUTargetMachine_8cpp.html" target="_top" xlink:title=" ">
<polygon fill="none" stroke="black" points="532.5,-179.5 532.5,-209.5 718.5,-209.5 718.5,-179.5 532.5,-179.5"/>
<text text-anchor="start" x="540.5" y="-197.5" font-family="Helvetica,sans-Serif" font-size="10.00">lib/Target/AMDGPU/AMDGPUTarget</text>
<text text-anchor="middle" x="625.5" y="-186.5" font-family="Helvetica,sans-Serif" font-size="10.00">Machine.cpp</text>
</a>
</g>
</g>
<!-- Node3&#45;&gt;Node19 -->
<g id="edge27" class="edge">
<title>Node3&#45;&gt;Node19</title>
<path fill="none" stroke="midnightblue" d="M819.44,-243.98C776.97,-233.37 722.38,-219.72 681.94,-209.61"/>
<polygon fill="midnightblue" stroke="midnightblue" points="818.85,-247.45 829.4,-246.48 820.55,-240.66 818.85,-247.45"/>
</g>
<!-- Node20 -->
<g id="node20" class="node">
<title>Node20</title>
<g id="a_node20"><a xlink:href="BPFTargetMachine_8cpp.html" target="_top" xlink:title=" ">
<polygon fill="none" stroke="black" points="736.5,-179.5 736.5,-209.5 870.5,-209.5 870.5,-179.5 736.5,-179.5"/>
<text text-anchor="start" x="744.5" y="-197.5" font-family="Helvetica,sans-Serif" font-size="10.00">lib/Target/BPF/BPFTarget</text>
<text text-anchor="middle" x="803.5" y="-186.5" font-family="Helvetica,sans-Serif" font-size="10.00">Machine.cpp</text>
</a>
</g>
</g>
<!-- Node3&#45;&gt;Node20 -->
<g id="edge28" class="edge">
<title>Node3&#45;&gt;Node20</title>
<path fill="none" stroke="midnightblue" d="M859.85,-240.17C847.31,-230.23 832.53,-218.51 821.26,-209.58"/>
<polygon fill="midnightblue" stroke="midnightblue" points="857.7,-242.93 867.71,-246.4 862.04,-237.44 857.7,-242.93"/>
</g>
<!-- Node21 -->
<g id="node21" class="node">
<title>Node21</title>
<g id="a_node21"><a xlink:href="HexagonTargetMachine_8cpp.html" target="_top" xlink:title=" ">
<polygon fill="none" stroke="black" points="889,-179.5 889,-209.5 1044,-209.5 1044,-179.5 889,-179.5"/>
<text text-anchor="start" x="897" y="-197.5" font-family="Helvetica,sans-Serif" font-size="10.00">lib/Target/Hexagon</text>
<text text-anchor="middle" x="966.5" y="-186.5" font-family="Helvetica,sans-Serif" font-size="10.00">/HexagonTargetMachine.cpp</text>
</a>
</g>
</g>
<!-- Node3&#45;&gt;Node21 -->
<g id="edge29" class="edge">
<title>Node3&#45;&gt;Node21</title>
<path fill="none" stroke="midnightblue" d="M911.19,-239.88C923.5,-230.01 937.93,-218.43 948.96,-209.58"/>
<polygon fill="midnightblue" stroke="midnightblue" points="908.68,-237.41 903.08,-246.4 913.07,-242.87 908.68,-237.41"/>
</g>
<!-- Node22 -->
<g id="node22" class="node">
<title>Node22</title>
<g id="a_node22"><a xlink:href="NVPTXTargetMachine_8cpp.html" target="_top" xlink:title=" ">
<polygon fill="none" stroke="black" points="1062.5,-179.5 1062.5,-209.5 1226.5,-209.5 1226.5,-179.5 1062.5,-179.5"/>
<text text-anchor="start" x="1070.5" y="-197.5" font-family="Helvetica,sans-Serif" font-size="10.00">lib/Target/NVPTX/NVPTXTarget</text>
<text text-anchor="middle" x="1144.5" y="-186.5" font-family="Helvetica,sans-Serif" font-size="10.00">Machine.cpp</text>
</a>
</g>
</g>
<!-- Node3&#45;&gt;Node22 -->
<g id="edge30" class="edge">
<title>Node3&#45;&gt;Node22</title>
<path fill="none" stroke="midnightblue" d="M951.31,-243.98C993.61,-233.37 1047.99,-219.72 1088.27,-209.61"/>
<polygon fill="midnightblue" stroke="midnightblue" points="950.23,-240.65 941.38,-246.48 951.93,-247.44 950.23,-240.65"/>
</g>
<!-- Node5 -->
<g id="node5" class="node">
<title>Node5</title>
<g id="a_node5"><a xlink:href="LTOCodeGenerator_8h.html" target="_top" xlink:title=" ">
<polygon fill="none" stroke="black" points="768,-56.5 768,-86.5 901,-86.5 901,-56.5 768,-56.5"/>
<text text-anchor="start" x="776" y="-74.5" font-family="Helvetica,sans-Serif" font-size="10.00">include/llvm/LTO/legacy</text>
<text text-anchor="middle" x="834.5" y="-63.5" font-family="Helvetica,sans-Serif" font-size="10.00">/LTOCodeGenerator.h</text>
</a>
</g>
</g>
<!-- Node4&#45;&gt;Node5 -->
<g id="edge4" class="edge">
<title>Node4&#45;&gt;Node5</title>
<path fill="none" stroke="midnightblue" d="M1270.88,-182.5C1183.38,-160.45 986.58,-110.84 890.04,-86.5"/>
<polygon fill="midnightblue" stroke="midnightblue" points="1270.2,-185.94 1280.75,-184.99 1271.91,-179.15 1270.2,-185.94"/>
</g>
<!-- Node7 -->
<g id="node7" class="node">
<title>Node7</title>
<g id="a_node7"><a xlink:href="LTO_8h.html" target="_top" xlink:title=" ">
<polygon fill="none" stroke="black" points="412.5,-123.5 412.5,-142.5 540.5,-142.5 540.5,-123.5 412.5,-123.5"/>
<text text-anchor="middle" x="476.5" y="-130.5" font-family="Helvetica,sans-Serif" font-size="10.00">include/llvm/LTO/LTO.h</text>
</a>
</g>
</g>
<!-- Node4&#45;&gt;Node7 -->
<g id="edge6" class="edge">
<title>Node4&#45;&gt;Node7</title>
<path fill="none" stroke="midnightblue" d="M1263.37,-183.17C1254.13,-181.58 1244.55,-180.09 1235.5,-179 979.3,-148.01 671.76,-138.11 540.71,-135.16"/>
<polygon fill="midnightblue" stroke="midnightblue" points="1262.77,-186.62 1273.24,-184.94 1264.01,-179.73 1262.77,-186.62"/>
</g>
<!-- Node6 -->
<g id="node6" class="node">
<title>Node6</title>
<g id="a_node6"><a xlink:href="LTOCodeGenerator_8cpp.html" target="_top" xlink:title=" ">
<polygon fill="none" stroke="black" points="513.5,-0.5 513.5,-19.5 677.5,-19.5 677.5,-0.5 513.5,-0.5"/>
<text text-anchor="middle" x="595.5" y="-7.5" font-family="Helvetica,sans-Serif" font-size="10.00">lib/LTO/LTOCodeGenerator.cpp</text>
</a>
</g>
</g>
<!-- Node5&#45;&gt;Node6 -->
<g id="edge5" class="edge">
<title>Node5&#45;&gt;Node6</title>
<path fill="none" stroke="midnightblue" d="M768.19,-53.99C723.24,-42.8 665.66,-28.47 629.67,-19.51"/>
<polygon fill="midnightblue" stroke="midnightblue" points="767.61,-57.46 778.16,-56.47 769.3,-50.66 767.61,-57.46"/>
</g>
<!-- Node7&#45;&gt;Node5 -->
<g id="edge7" class="edge">
<title>Node7&#45;&gt;Node5</title>
<path fill="none" stroke="midnightblue" d="M543.03,-121.97C600.23,-113.2 684.91,-99.89 758.5,-87 761.54,-86.47 764.65,-85.91 767.79,-85.35"/>
<polygon fill="midnightblue" stroke="midnightblue" points="542.39,-118.52 533.03,-123.49 543.44,-125.44 542.39,-118.52"/>
</g>
<!-- Node7&#45;&gt;Node6 -->
<g id="edge19" class="edge">
<title>Node7&#45;&gt;Node6</title>
<path fill="none" stroke="midnightblue" d="M518.13,-119.93C536.05,-112.89 555.95,-102.29 569.5,-87 587.07,-67.17 592.88,-34.91 594.71,-19.59"/>
<polygon fill="midnightblue" stroke="midnightblue" points="516.61,-116.76 508.43,-123.49 519.02,-123.33 516.61,-116.76"/>
</g>
<!-- Node8 -->
<g id="node8" class="node">
<title>Node8</title>
<g id="a_node8"><a xlink:href="LTOModule_8h.html" target="_top" xlink:title=" ">
<polygon fill="none" stroke="black" points="617,-56.5 617,-86.5 750,-86.5 750,-56.5 617,-56.5"/>
<text text-anchor="start" x="625" y="-74.5" font-family="Helvetica,sans-Serif" font-size="10.00">include/llvm/LTO/legacy</text>
<text text-anchor="middle" x="683.5" y="-63.5" font-family="Helvetica,sans-Serif" font-size="10.00">/LTOModule.h</text>
</a>
</g>
</g>
<!-- Node7&#45;&gt;Node8 -->
<g id="edge8" class="edge">
<title>Node7&#45;&gt;Node8</title>
<path fill="none" stroke="midnightblue" d="M516.13,-120.61C549.9,-110.9 598.56,-96.92 634.71,-86.52"/>
<polygon fill="midnightblue" stroke="midnightblue" points="514.8,-117.35 506.16,-123.48 516.74,-124.08 514.8,-117.35"/>
</g>
<!-- Node10 -->
<g id="node10" class="node">
<title>Node10</title>
<g id="a_node10"><a xlink:href="ThinLTOCodeGenerator_8h.html" target="_top" xlink:title=" ">
<polygon fill="none" stroke="black" points="158.5,-56.5 158.5,-86.5 298.5,-86.5 298.5,-56.5 158.5,-56.5"/>
<text text-anchor="start" x="166.5" y="-74.5" font-family="Helvetica,sans-Serif" font-size="10.00">include/llvm/LTO/legacy</text>
<text text-anchor="middle" x="228.5" y="-63.5" font-family="Helvetica,sans-Serif" font-size="10.00">/ThinLTOCodeGenerator.h</text>
</a>
</g>
</g>
<!-- Node7&#45;&gt;Node10 -->
<g id="edge11" class="edge">
<title>Node7&#45;&gt;Node10</title>
<path fill="none" stroke="midnightblue" d="M431.1,-121.11C390.58,-111.39 331.01,-97.1 286.95,-86.52"/>
<polygon fill="midnightblue" stroke="midnightblue" points="430.43,-124.55 440.97,-123.48 432.06,-117.74 430.43,-124.55"/>
</g>
<!-- Node7&#45;&gt;Node11 -->
<g id="edge20" class="edge">
<title>Node7&#45;&gt;Node11</title>
<path fill="none" stroke="midnightblue" d="M402.2,-128.38C319.2,-123.2 191.04,-111.45 149.5,-87 122.21,-70.94 103.79,-36.22 96.29,-19.86"/>
<polygon fill="midnightblue" stroke="midnightblue" points="402.14,-131.88 412.34,-129 402.57,-124.9 402.14,-131.88"/>
</g>
<!-- Node12 -->
<g id="node12" class="node">
<title>Node12</title>
<g id="a_node12"><a xlink:href="LTOBackend_8h.html" target="_top" xlink:title=" ">
<polygon fill="none" stroke="black" points="392,-62 392,-81 561,-81 561,-62 392,-62"/>
<text text-anchor="middle" x="476.5" y="-69" font-family="Helvetica,sans-Serif" font-size="10.00">include/llvm/LTO/LTOBackend.h</text>
</a>
</g>
</g>
<!-- Node7&#45;&gt;Node12 -->
<g id="edge13" class="edge">
<title>Node7&#45;&gt;Node12</title>
<path fill="none" stroke="midnightblue" d="M476.5,-113.32C476.5,-102.5 476.5,-89.4 476.5,-81.01"/>
<polygon fill="midnightblue" stroke="midnightblue" points="473,-113.48 476.5,-123.48 480,-113.48 473,-113.48"/>
</g>
<!-- Node13 -->
<g id="node13" class="node">
<title>Node13</title>
<g id="a_node13"><a xlink:href="LTO_8cpp.html" target="_top" xlink:title=" ">
<polygon fill="none" stroke="black" points="404,-0.5 404,-19.5 495,-19.5 495,-0.5 404,-0.5"/>
<text text-anchor="middle" x="449.5" y="-7.5" font-family="Helvetica,sans-Serif" font-size="10.00">lib/LTO/LTO.cpp</text>
</a>
</g>
</g>
<!-- Node7&#45;&gt;Node13 -->
<g id="edge17" class="edge">
<title>Node7&#45;&gt;Node13</title>
<path fill="none" stroke="midnightblue" d="M426.94,-120.04C409.85,-113.29 392.51,-102.89 382.5,-87 375.16,-75.34 376.02,-68.16 382.5,-56 391.79,-38.56 411.17,-26.68 426.71,-19.53"/>
<polygon fill="midnightblue" stroke="midnightblue" points="425.76,-123.34 436.35,-123.43 428.13,-116.75 425.76,-123.34"/>
</g>
<!-- Node7&#45;&gt;Node14 -->
<g id="edge18" class="edge">
<title>Node7&#45;&gt;Node14</title>
<path fill="none" stroke="midnightblue" d="M436.15,-120.11C415.9,-112.79 391.85,-101.91 373.5,-87 349.63,-67.6 331.45,-35.13 323.66,-19.68"/>
<polygon fill="midnightblue" stroke="midnightblue" points="435.15,-123.47 445.75,-123.42 437.43,-116.85 435.15,-123.47"/>
</g>
<!-- Node8&#45;&gt;Node6 -->
<g id="edge9" class="edge">
<title>Node8&#45;&gt;Node6</title>
<path fill="none" stroke="midnightblue" d="M654.33,-50.78C638.73,-40.23 620.32,-27.78 608.3,-19.66"/>
<polygon fill="midnightblue" stroke="midnightblue" points="652.4,-53.7 662.65,-56.4 656.32,-47.9 652.4,-53.7"/>
</g>
<!-- Node9 -->
<g id="node9" class="node">
<title>Node9</title>
<g id="a_node9"><a xlink:href="LTOModule_8cpp.html" target="_top" xlink:title=" ">
<polygon fill="none" stroke="black" points="696,-0.5 696,-19.5 823,-19.5 823,-0.5 696,-0.5"/>
<text text-anchor="middle" x="759.5" y="-7.5" font-family="Helvetica,sans-Serif" font-size="10.00">lib/LTO/LTOModule.cpp</text>
</a>
</g>
</g>
<!-- Node8&#45;&gt;Node9 -->
<g id="edge10" class="edge">
<title>Node8&#45;&gt;Node9</title>
<path fill="none" stroke="midnightblue" d="M709.44,-50.19C722.75,-39.77 738.25,-27.63 748.44,-19.66"/>
<polygon fill="midnightblue" stroke="midnightblue" points="707.23,-47.48 701.51,-56.4 711.54,-52.99 707.23,-47.48"/>
</g>
<!-- Node10&#45;&gt;Node11 -->
<g id="edge12" class="edge">
<title>Node10&#45;&gt;Node11</title>
<path fill="none" stroke="midnightblue" d="M187.06,-52.37C162.24,-41.51 131.81,-28.2 112.29,-19.66"/>
<polygon fill="midnightblue" stroke="midnightblue" points="185.71,-55.6 196.27,-56.4 188.51,-49.18 185.71,-55.6"/>
</g>
<!-- Node12&#45;&gt;Node6 -->
<g id="edge16" class="edge">
<title>Node12&#45;&gt;Node6</title>
<path fill="none" stroke="midnightblue" d="M502.77,-57.37C525.83,-45.83 558.7,-29.4 578.48,-19.51"/>
<polygon fill="midnightblue" stroke="midnightblue" points="500.93,-54.37 493.55,-61.98 504.06,-60.63 500.93,-54.37"/>
</g>
<!-- Node12&#45;&gt;Node13 -->
<g id="edge14" class="edge">
<title>Node12&#45;&gt;Node13</title>
<path fill="none" stroke="midnightblue" d="M468.48,-52.83C463.49,-41.83 457.29,-28.16 453.36,-19.51"/>
<polygon fill="midnightblue" stroke="midnightblue" points="465.31,-54.32 472.63,-61.98 471.69,-51.42 465.31,-54.32"/>
</g>
<!-- Node12&#45;&gt;Node14 -->
<g id="edge15" class="edge">
<title>Node12&#45;&gt;Node14</title>
<path fill="none" stroke="midnightblue" d="M444.26,-58.28C413.75,-46.72 368.75,-29.66 341.95,-19.51"/>
<polygon fill="midnightblue" stroke="midnightblue" points="443.41,-61.7 454.01,-61.98 445.9,-55.16 443.41,-61.7"/>
</g>
</g>
</svg>
