<?xml version="1.0" encoding="UTF-8" standalone="no"?>
<!DOCTYPE svg PUBLIC "-//W3C//DTD SVG 1.1//EN"
 "http://www.w3.org/Graphics/SVG/1.1/DTD/svg11.dtd">
<!-- Generated by graphviz version 2.43.0 (0)
 -->
<!-- Title: Graphical Class Hierarchy Pages: 1 -->
<svg width="314pt" height="88pt"
 viewBox="0.00 0.00 314.00 88.00" xmlns="http://www.w3.org/2000/svg" xmlns:xlink="http://www.w3.org/1999/xlink">
<g id="graph0" class="graph" transform="scale(1 1) rotate(0) translate(4 84)">
<title>Graphical Class Hierarchy</title>
<!-- Node0 -->
<g id="node1" class="node">
<title>Node0</title>
<g id="a_node1"><a xlink:href="classllvm_1_1detail_1_1TypeSwitchBase.html" target="_top" xlink:title=" ">
<polygon fill="none" stroke="black" points="0,-19 0,-60 151,-60 151,-19 0,-19"/>
<text text-anchor="start" x="8" y="-48" font-family="Helvetica,sans-Serif" font-size="10.00">llvm::detail::TypeSwitch</text>
<text text-anchor="start" x="8" y="-37" font-family="Helvetica,sans-Serif" font-size="10.00">Base&lt; TypeSwitch&lt; T, void</text>
<text text-anchor="middle" x="75.5" y="-26" font-family="Helvetica,sans-Serif" font-size="10.00"> &gt;, T &gt;</text>
</a>
</g>
</g>
<!-- Node1 -->
<g id="node2" class="node">
<title>Node1</title>
<g id="a_node2"><a xlink:href="classllvm_1_1TypeSwitch.html" target="_top" xlink:title="This class implements a switch&#45;like dispatch statement for a value of &#39;T&#39; using dyn_cast functionalit...">
<polygon fill="none" stroke="black" points="187,-49.5 187,-79.5 306,-79.5 306,-49.5 187,-49.5"/>
<text text-anchor="start" x="195" y="-67.5" font-family="Helvetica,sans-Serif" font-size="10.00">llvm::TypeSwitch&lt; T,</text>
<text text-anchor="middle" x="246.5" y="-56.5" font-family="Helvetica,sans-Serif" font-size="10.00"> ResultT &gt;</text>
</a>
</g>
</g>
<!-- Node0&#45;&gt;Node1 -->
<g id="edge1" class="edge">
<title>Node0&#45;&gt;Node1</title>
<path fill="none" stroke="midnightblue" d="M161.23,-52.03C169.86,-53.31 178.49,-54.59 186.76,-55.81"/>
<polygon fill="midnightblue" stroke="midnightblue" points="161.52,-48.54 151.12,-50.54 160.5,-55.46 161.52,-48.54"/>
</g>
<!-- Node2 -->
<g id="node3" class="node">
<title>Node2</title>
<g id="a_node3"><a xlink:href="classllvm_1_1TypeSwitch_3_01T_00_01void_01_4.html" target="_top" xlink:title="Specialization of TypeSwitch for void returning callables.">
<polygon fill="none" stroke="black" points="187,-0.5 187,-30.5 306,-30.5 306,-0.5 187,-0.5"/>
<text text-anchor="start" x="195" y="-18.5" font-family="Helvetica,sans-Serif" font-size="10.00">llvm::TypeSwitch&lt; T,</text>
<text text-anchor="middle" x="246.5" y="-7.5" font-family="Helvetica,sans-Serif" font-size="10.00"> void &gt;</text>
</a>
</g>
</g>
<!-- Node0&#45;&gt;Node2 -->
<g id="edge2" class="edge">
<title>Node0&#45;&gt;Node2</title>
<path fill="none" stroke="midnightblue" d="M161.23,-27.47C169.86,-26.24 178.49,-25.02 186.76,-23.84"/>
<polygon fill="midnightblue" stroke="midnightblue" points="160.53,-24.03 151.12,-28.9 161.51,-30.96 160.53,-24.03"/>
</g>
</g>
</svg>
