<?xml version="1.0" encoding="UTF-8" standalone="no"?>
<!DOCTYPE svg PUBLIC "-//W3C//DTD SVG 1.1//EN"
 "http://www.w3.org/Graphics/SVG/1.1/DTD/svg11.dtd">
<!-- Generated by graphviz version 2.43.0 (0)
 -->
<!-- Title: Graphical Class Hierarchy Pages: 1 -->
<svg width="440pt" height="275pt"
 viewBox="0.00 0.00 440.00 275.00" xmlns="http://www.w3.org/2000/svg" xmlns:xlink="http://www.w3.org/1999/xlink">
<g id="graph0" class="graph" transform="scale(1 1) rotate(0) translate(4 271)">
<title>Graphical Class Hierarchy</title>
<!-- Node0 -->
<g id="node1" class="node">
<title>Node0</title>
<g id="a_node1"><a xlink:href="classllvm_1_1Type.html" target="_top" xlink:title="The instances of the Type class are immutable: once they are created, they are never changed.">
<polygon fill="none" stroke="black" points="0,-133.5 0,-152.5 67,-152.5 67,-133.5 0,-133.5"/>
<text text-anchor="middle" x="33.5" y="-140.5" font-family="Helvetica,sans-Serif" font-size="10.00">llvm::Type</text>
</a>
</g>
</g>
<!-- Node1 -->
<g id="node2" class="node">
<title>Node1</title>
<g id="a_node2"><a xlink:href="classllvm_1_1ArrayType.html" target="_top" xlink:title="Class to represent array types.">
<polygon fill="none" stroke="black" points="133.5,-247.5 133.5,-266.5 226.5,-266.5 226.5,-247.5 133.5,-247.5"/>
<text text-anchor="middle" x="180" y="-254.5" font-family="Helvetica,sans-Serif" font-size="10.00">llvm::ArrayType</text>
</a>
</g>
</g>
<!-- Node0&#45;&gt;Node1 -->
<g id="edge1" class="edge">
<title>Node0&#45;&gt;Node1</title>
<path fill="none" stroke="midnightblue" d="M42.96,-161.7C53.76,-183.41 74.52,-218.7 103,-238 112.01,-244.1 122.81,-248.25 133.4,-251.06"/>
<polygon fill="midnightblue" stroke="midnightblue" points="46.05,-160.05 38.59,-152.53 39.73,-163.06 46.05,-160.05"/>
</g>
<!-- Node2 -->
<g id="node3" class="node">
<title>Node2</title>
<g id="a_node3"><a xlink:href="classllvm_1_1dxil_1_1TypedPointerType.html" target="_top" xlink:title=" ">
<polygon fill="none" stroke="black" points="103,-209.5 103,-228.5 257,-228.5 257,-209.5 103,-209.5"/>
<text text-anchor="middle" x="180" y="-216.5" font-family="Helvetica,sans-Serif" font-size="10.00">llvm::dxil::TypedPointerType</text>
</a>
</g>
</g>
<!-- Node0&#45;&gt;Node2 -->
<g id="edge2" class="edge">
<title>Node0&#45;&gt;Node2</title>
<path fill="none" stroke="midnightblue" d="M50.48,-159.93C63.48,-172.74 82.89,-189.8 103,-200 110.64,-203.88 119.12,-207 127.57,-209.5"/>
<polygon fill="midnightblue" stroke="midnightblue" points="52.78,-157.28 43.27,-152.61 47.8,-162.19 52.78,-157.28"/>
</g>
<!-- Node3 -->
<g id="node4" class="node">
<title>Node3</title>
<g id="a_node4"><a xlink:href="classllvm_1_1FunctionType.html" target="_top" xlink:title="Class to represent function types.">
<polygon fill="none" stroke="black" points="126,-171.5 126,-190.5 234,-190.5 234,-171.5 126,-171.5"/>
<text text-anchor="middle" x="180" y="-178.5" font-family="Helvetica,sans-Serif" font-size="10.00">llvm::FunctionType</text>
</a>
</g>
</g>
<!-- Node0&#45;&gt;Node3 -->
<g id="edge3" class="edge">
<title>Node0&#45;&gt;Node3</title>
<path fill="none" stroke="midnightblue" d="M77.05,-154.98C85.63,-157.35 94.59,-159.78 103,-162 114.97,-165.16 128.03,-168.47 139.9,-171.43"/>
<polygon fill="midnightblue" stroke="midnightblue" points="77.78,-151.55 67.21,-152.26 75.91,-158.3 77.78,-151.55"/>
</g>
<!-- Node4 -->
<g id="node5" class="node">
<title>Node4</title>
<g id="a_node5"><a xlink:href="classllvm_1_1IntegerType.html" target="_top" xlink:title="Class to represent integer types.">
<polygon fill="none" stroke="black" points="129.5,-133.5 129.5,-152.5 230.5,-152.5 230.5,-133.5 129.5,-133.5"/>
<text text-anchor="middle" x="180" y="-140.5" font-family="Helvetica,sans-Serif" font-size="10.00">llvm::IntegerType</text>
</a>
</g>
</g>
<!-- Node0&#45;&gt;Node4 -->
<g id="edge4" class="edge">
<title>Node0&#45;&gt;Node4</title>
<path fill="none" stroke="midnightblue" d="M77.59,-143C93.86,-143 112.49,-143 129.32,-143"/>
<polygon fill="midnightblue" stroke="midnightblue" points="77.29,-139.5 67.29,-143 77.29,-146.5 77.29,-139.5"/>
</g>
<!-- Node5 -->
<g id="node6" class="node">
<title>Node5</title>
<g id="a_node6"><a xlink:href="classllvm_1_1PointerType.html" target="_top" xlink:title="Class to represent pointers.">
<polygon fill="none" stroke="black" points="129.5,-95.5 129.5,-114.5 230.5,-114.5 230.5,-95.5 129.5,-95.5"/>
<text text-anchor="middle" x="180" y="-102.5" font-family="Helvetica,sans-Serif" font-size="10.00">llvm::PointerType</text>
</a>
</g>
</g>
<!-- Node0&#45;&gt;Node5 -->
<g id="edge5" class="edge">
<title>Node0&#45;&gt;Node5</title>
<path fill="none" stroke="midnightblue" d="M77.05,-131.02C85.63,-128.65 94.59,-126.22 103,-124 114.97,-120.84 128.03,-117.53 139.9,-114.57"/>
<polygon fill="midnightblue" stroke="midnightblue" points="75.91,-127.7 67.21,-133.74 77.78,-134.45 75.91,-127.7"/>
</g>
<!-- Node6 -->
<g id="node7" class="node">
<title>Node6</title>
<g id="a_node7"><a xlink:href="classllvm_1_1StructType.html" target="_top" xlink:title="Class to represent struct types.">
<polygon fill="none" stroke="black" points="132.5,-57.5 132.5,-76.5 227.5,-76.5 227.5,-57.5 132.5,-57.5"/>
<text text-anchor="middle" x="180" y="-64.5" font-family="Helvetica,sans-Serif" font-size="10.00">llvm::StructType</text>
</a>
</g>
</g>
<!-- Node0&#45;&gt;Node6 -->
<g id="edge6" class="edge">
<title>Node0&#45;&gt;Node6</title>
<path fill="none" stroke="midnightblue" d="M50.48,-126.07C63.48,-113.26 82.89,-96.2 103,-86 112.1,-81.38 122.39,-77.84 132.39,-75.14"/>
<polygon fill="midnightblue" stroke="midnightblue" points="47.8,-123.81 43.27,-133.39 52.78,-128.72 47.8,-123.81"/>
</g>
<!-- Node7 -->
<g id="node8" class="node">
<title>Node7</title>
<g id="a_node8"><a xlink:href="classllvm_1_1VectorType.html" target="_top" xlink:title="Base class of all SIMD vector types.">
<polygon fill="none" stroke="black" points="131,-19.5 131,-38.5 229,-38.5 229,-19.5 131,-19.5"/>
<text text-anchor="middle" x="180" y="-26.5" font-family="Helvetica,sans-Serif" font-size="10.00">llvm::VectorType</text>
</a>
</g>
</g>
<!-- Node0&#45;&gt;Node7 -->
<g id="edge7" class="edge">
<title>Node0&#45;&gt;Node7</title>
<path fill="none" stroke="midnightblue" d="M42.96,-124.3C53.76,-102.59 74.52,-67.3 103,-48 111.22,-42.43 120.93,-38.49 130.62,-35.71"/>
<polygon fill="midnightblue" stroke="midnightblue" points="39.73,-122.94 38.59,-133.47 46.05,-125.95 39.73,-122.94"/>
</g>
<!-- Node8 -->
<g id="node9" class="node">
<title>Node8</title>
<g id="a_node9"><a xlink:href="classllvm_1_1FixedVectorType.html" target="_top" xlink:title="Class to represent fixed width SIMD vectors.">
<polygon fill="none" stroke="black" points="301,-38.5 301,-57.5 424,-57.5 424,-38.5 301,-38.5"/>
<text text-anchor="middle" x="362.5" y="-45.5" font-family="Helvetica,sans-Serif" font-size="10.00">llvm::FixedVectorType</text>
</a>
</g>
</g>
<!-- Node7&#45;&gt;Node8 -->
<g id="edge8" class="edge">
<title>Node7&#45;&gt;Node8</title>
<path fill="none" stroke="midnightblue" d="M239.39,-35.15C259,-37.21 280.92,-39.52 300.71,-41.6"/>
<polygon fill="midnightblue" stroke="midnightblue" points="239.68,-31.66 229.37,-34.09 238.95,-38.62 239.68,-31.66"/>
</g>
<!-- Node9 -->
<g id="node10" class="node">
<title>Node9</title>
<g id="a_node10"><a xlink:href="classllvm_1_1ScalableVectorType.html" target="_top" xlink:title="Class to represent scalable SIMD vectors.">
<polygon fill="none" stroke="black" points="293,-0.5 293,-19.5 432,-19.5 432,-0.5 293,-0.5"/>
<text text-anchor="middle" x="362.5" y="-7.5" font-family="Helvetica,sans-Serif" font-size="10.00">llvm::ScalableVectorType</text>
</a>
</g>
</g>
<!-- Node7&#45;&gt;Node9 -->
<g id="edge9" class="edge">
<title>Node7&#45;&gt;Node9</title>
<path fill="none" stroke="midnightblue" d="M239.71,-22.82C256.72,-21.03 275.43,-19.06 292.98,-17.21"/>
<polygon fill="midnightblue" stroke="midnightblue" points="238.95,-19.38 229.37,-23.91 239.68,-26.34 238.95,-19.38"/>
</g>
</g>
</svg>
