<?xml version="1.0" encoding="UTF-8" standalone="no"?>
<!DOCTYPE svg PUBLIC "-//W3C//DTD SVG 1.1//EN"
 "http://www.w3.org/Graphics/SVG/1.1/DTD/svg11.dtd">
<!-- Generated by graphviz version 2.43.0 (0)
 -->
<!-- Title: Graphical Class Hierarchy Pages: 1 -->
<svg width="334pt" height="66pt"
 viewBox="0.00 0.00 334.00 66.00" xmlns="http://www.w3.org/2000/svg" xmlns:xlink="http://www.w3.org/1999/xlink">
<g id="graph0" class="graph" transform="scale(1 1) rotate(0) translate(4 62)">
<title>Graphical Class Hierarchy</title>
<!-- Node0 -->
<g id="node1" class="node">
<title>Node0</title>
<g id="a_node1"><a xlink:href="classllvm_1_1PBQPRAConstraint.html" target="_top" xlink:title="Abstract base for classes implementing PBQP register allocation constraints (e.g.">
<polygon fill="none" stroke="black" points="0,-19.5 0,-38.5 134,-38.5 134,-19.5 0,-19.5"/>
<text text-anchor="middle" x="67" y="-26.5" font-family="Helvetica,sans-Serif" font-size="10.00">llvm::PBQPRAConstraint</text>
</a>
</g>
</g>
<!-- Node1 -->
<g id="node2" class="node">
<title>Node1</title>
<g id="a_node2"><a xlink:href="classllvm_1_1A57ChainingConstraint.html" target="_top" xlink:title="Add the accumulator chaining constraint to a PBQP graph.">
<polygon fill="none" stroke="black" points="170,-38.5 170,-57.5 326,-57.5 326,-38.5 170,-38.5"/>
<text text-anchor="middle" x="248" y="-45.5" font-family="Helvetica,sans-Serif" font-size="10.00">llvm::A57ChainingConstraint</text>
</a>
</g>
</g>
<!-- Node0&#45;&gt;Node1 -->
<g id="edge1" class="edge">
<title>Node0&#45;&gt;Node1</title>
<path fill="none" stroke="midnightblue" d="M144.09,-37.08C152.65,-37.98 161.37,-38.91 169.94,-39.82"/>
<polygon fill="midnightblue" stroke="midnightblue" points="144.46,-33.6 134.14,-36.02 143.72,-40.56 144.46,-33.6"/>
</g>
<!-- Node2 -->
<g id="node3" class="node">
<title>Node2</title>
<g id="a_node3"><a xlink:href="classllvm_1_1PBQPRAConstraintList.html" target="_top" xlink:title="PBQP register allocation constraint composer.">
<polygon fill="none" stroke="black" points="172,-0.5 172,-19.5 324,-19.5 324,-0.5 172,-0.5"/>
<text text-anchor="middle" x="248" y="-7.5" font-family="Helvetica,sans-Serif" font-size="10.00">llvm::PBQPRAConstraintList</text>
</a>
</g>
</g>
<!-- Node0&#45;&gt;Node2 -->
<g id="edge2" class="edge">
<title>Node0&#45;&gt;Node2</title>
<path fill="none" stroke="midnightblue" d="M144.31,-20.9C153.41,-19.93 162.69,-18.95 171.77,-17.99"/>
<polygon fill="midnightblue" stroke="midnightblue" points="143.72,-17.44 134.14,-21.98 144.46,-24.4 143.72,-17.44"/>
</g>
</g>
</svg>
