<?xml version="1.0" encoding="UTF-8" standalone="no"?>
<!DOCTYPE svg PUBLIC "-//W3C//DTD SVG 1.1//EN"
 "http://www.w3.org/Graphics/SVG/1.1/DTD/svg11.dtd">
<!-- Generated by graphviz version 2.43.0 (0)
 -->
<!-- Title: Graphical Class Hierarchy Pages: 1 -->
<svg width="304pt" height="104pt"
 viewBox="0.00 0.00 304.00 104.00" xmlns="http://www.w3.org/2000/svg" xmlns:xlink="http://www.w3.org/1999/xlink">
<g id="graph0" class="graph" transform="scale(1 1) rotate(0) translate(4 100)">
<title>Graphical Class Hierarchy</title>
<!-- Node0 -->
<g id="node1" class="node">
<title>Node0</title>
<g id="a_node1"><a xlink:href="classllvm_1_1ExpressionAST.html" target="_top" xlink:title="Base class representing the AST of a given expression.">
<polygon fill="none" stroke="black" points="0,-38.5 0,-57.5 116,-57.5 116,-38.5 0,-38.5"/>
<text text-anchor="middle" x="58" y="-45.5" font-family="Helvetica,sans-Serif" font-size="10.00">llvm::ExpressionAST</text>
</a>
</g>
</g>
<!-- Node1 -->
<g id="node2" class="node">
<title>Node1</title>
<g id="a_node2"><a xlink:href="classllvm_1_1BinaryOperation.html" target="_top" xlink:title="Class representing a single binary operation in the AST of an expression.">
<polygon fill="none" stroke="black" points="162,-76.5 162,-95.5 286,-95.5 286,-76.5 162,-76.5"/>
<text text-anchor="middle" x="224" y="-83.5" font-family="Helvetica,sans-Serif" font-size="10.00">llvm::BinaryOperation</text>
</a>
</g>
</g>
<!-- Node0&#45;&gt;Node1 -->
<g id="edge1" class="edge">
<title>Node0&#45;&gt;Node1</title>
<path fill="none" stroke="midnightblue" d="M110.34,-59.9C133.39,-65.24 160.22,-71.45 181.91,-76.48"/>
<polygon fill="midnightblue" stroke="midnightblue" points="110.92,-56.44 100.38,-57.59 109.34,-63.26 110.92,-56.44"/>
</g>
<!-- Node2 -->
<g id="node3" class="node">
<title>Node2</title>
<g id="a_node3"><a xlink:href="classllvm_1_1ExpressionLiteral.html" target="_top" xlink:title="Class representing an unsigned literal in the AST of an expression.">
<polygon fill="none" stroke="black" points="160,-38.5 160,-57.5 288,-57.5 288,-38.5 160,-38.5"/>
<text text-anchor="middle" x="224" y="-45.5" font-family="Helvetica,sans-Serif" font-size="10.00">llvm::ExpressionLiteral</text>
</a>
</g>
</g>
<!-- Node0&#45;&gt;Node2 -->
<g id="edge2" class="edge">
<title>Node0&#45;&gt;Node2</title>
<path fill="none" stroke="midnightblue" d="M126.38,-48C137.43,-48 148.85,-48 159.8,-48"/>
<polygon fill="midnightblue" stroke="midnightblue" points="126.36,-44.5 116.36,-48 126.36,-51.5 126.36,-44.5"/>
</g>
<!-- Node3 -->
<g id="node4" class="node">
<title>Node3</title>
<g id="a_node4"><a xlink:href="classllvm_1_1NumericVariableUse.html" target="_top" xlink:title="Class representing the use of a numeric variable in the AST of an expression.">
<polygon fill="none" stroke="black" points="152,-0.5 152,-19.5 296,-19.5 296,-0.5 152,-0.5"/>
<text text-anchor="middle" x="224" y="-7.5" font-family="Helvetica,sans-Serif" font-size="10.00">llvm::NumericVariableUse</text>
</a>
</g>
</g>
<!-- Node0&#45;&gt;Node3 -->
<g id="edge3" class="edge">
<title>Node0&#45;&gt;Node3</title>
<path fill="none" stroke="midnightblue" d="M110.34,-36.1C133.39,-30.76 160.22,-24.55 181.91,-19.52"/>
<polygon fill="midnightblue" stroke="midnightblue" points="109.34,-32.74 100.38,-38.41 110.92,-39.56 109.34,-32.74"/>
</g>
</g>
</svg>
