<?xml version="1.0" encoding="UTF-8" standalone="no"?>
<!DOCTYPE svg PUBLIC "-//W3C//DTD SVG 1.1//EN"
 "http://www.w3.org/Graphics/SVG/1.1/DTD/svg11.dtd">
<!-- Generated by graphviz version 2.43.0 (0)
 -->
<!-- Title: Graphical Class Hierarchy Pages: 1 -->
<svg width="330pt" height="88pt"
 viewBox="0.00 0.00 330.00 88.00" xmlns="http://www.w3.org/2000/svg" xmlns:xlink="http://www.w3.org/1999/xlink">
<g id="graph0" class="graph" transform="scale(1 1) rotate(0) translate(4 84)">
<title>Graphical Class Hierarchy</title>
<!-- Node3065 -->
<g id="node1" class="node">
<title>Node3065</title>
<g id="a_node1"><a xlink:href="classllvm_1_1SmallVectorImpl.html" target="_top" xlink:title=" ">
<polygon fill="none" stroke="black" points="7,-49.5 7,-79.5 157,-79.5 157,-49.5 7,-49.5"/>
<text text-anchor="start" x="15" y="-67.5" font-family="Helvetica,sans-Serif" font-size="10.00">llvm::SmallVectorImpl</text>
<text text-anchor="middle" x="82" y="-56.5" font-family="Helvetica,sans-Serif" font-size="10.00">&lt; llvm::ImmutablePass * &gt;</text>
</a>
</g>
</g>
<!-- Node1 -->
<g id="node2" class="node">
<title>Node1</title>
<g id="a_node2"><a xlink:href="classllvm_1_1SmallVector.html" target="_top" xlink:title=" ">
<polygon fill="none" stroke="black" points="200,-19 200,-60 322,-60 322,-19 200,-19"/>
<text text-anchor="start" x="208" y="-48" font-family="Helvetica,sans-Serif" font-size="10.00">llvm::SmallVector&lt;</text>
<text text-anchor="start" x="208" y="-37" font-family="Helvetica,sans-Serif" font-size="10.00"> llvm::ImmutablePass</text>
<text text-anchor="middle" x="261" y="-26" font-family="Helvetica,sans-Serif" font-size="10.00"> *, 16 &gt;</text>
</a>
</g>
</g>
<!-- Node3065&#45;&gt;Node1 -->
<g id="edge1" class="edge">
<title>Node3065&#45;&gt;Node1</title>
<path fill="none" stroke="midnightblue" d="M167.16,-52.61C178.23,-51.05 189.4,-49.47 199.96,-47.98"/>
<polygon fill="midnightblue" stroke="midnightblue" points="166.45,-49.18 157.04,-54.04 167.43,-56.11 166.45,-49.18"/>
</g>
<!-- Node0 -->
<g id="node3" class="node">
<title>Node0</title>
<g id="a_node3"><a xlink:href="structllvm_1_1SmallVectorStorage.html" target="_top" xlink:title=" ">
<polygon fill="none" stroke="black" points="0,-0.5 0,-30.5 164,-30.5 164,-0.5 0,-0.5"/>
<text text-anchor="start" x="8" y="-18.5" font-family="Helvetica,sans-Serif" font-size="10.00">llvm::SmallVectorStorage</text>
<text text-anchor="middle" x="82" y="-7.5" font-family="Helvetica,sans-Serif" font-size="10.00">&lt; llvm::ImmutablePass *, N &gt;</text>
</a>
</g>
</g>
<!-- Node0&#45;&gt;Node1 -->
<g id="edge2" class="edge">
<title>Node0&#45;&gt;Node1</title>
<path fill="none" stroke="#8b1a1a" d="M174.39,-27.89C183.04,-29.06 191.64,-30.23 199.88,-31.35"/>
<polygon fill="#8b1a1a" stroke="#8b1a1a" points="174.63,-24.39 164.25,-26.52 173.69,-31.33 174.63,-24.39"/>
</g>
</g>
</svg>
