<?xml version="1.0" encoding="UTF-8" standalone="no"?>
<!DOCTYPE svg PUBLIC "-//W3C//DTD SVG 1.1//EN"
 "http://www.w3.org/Graphics/SVG/1.1/DTD/svg11.dtd">
<!-- Generated by graphviz version 2.43.0 (0)
 -->
<!-- Title: Graphical Class Hierarchy Pages: 1 -->
<svg width="377pt" height="122pt"
 viewBox="0.00 0.00 377.00 121.50" xmlns="http://www.w3.org/2000/svg" xmlns:xlink="http://www.w3.org/1999/xlink">
<g id="graph0" class="graph" transform="scale(1 1) rotate(0) translate(4 117.5)">
<title>Graphical Class Hierarchy</title>
<!-- Node3021 -->
<g id="node1" class="node">
<title>Node3021</title>
<g id="a_node1"><a xlink:href="classllvm_1_1SmallVectorImpl.html" target="_top" xlink:title=" ">
<polygon fill="none" stroke="black" points="22.5,-83 22.5,-113 170.5,-113 170.5,-83 22.5,-83"/>
<text text-anchor="start" x="30.5" y="-101" font-family="Helvetica,sans-Serif" font-size="10.00">llvm::SmallVectorImpl</text>
<text text-anchor="middle" x="96.5" y="-90" font-family="Helvetica,sans-Serif" font-size="10.00">&lt; llvm::memprof::Frame &gt;</text>
</a>
</g>
</g>
<!-- Node1 -->
<g id="node2" class="node">
<title>Node1</title>
<g id="a_node2"><a xlink:href="classllvm_1_1SmallVector.html" target="_top" xlink:title=" ">
<polygon fill="none" stroke="black" points="229,-50 229,-80 369,-80 369,-50 229,-50"/>
<text text-anchor="start" x="237" y="-68" font-family="Helvetica,sans-Serif" font-size="10.00">llvm::SmallVector&lt;</text>
<text text-anchor="middle" x="299" y="-57" font-family="Helvetica,sans-Serif" font-size="10.00"> llvm::memprof::Frame &gt;</text>
</a>
</g>
</g>
<!-- Node3021&#45;&gt;Node1 -->
<g id="edge1" class="edge">
<title>Node3021&#45;&gt;Node1</title>
<path fill="none" stroke="midnightblue" d="M180.65,-84.31C196.72,-81.67 213.4,-78.92 228.97,-76.36"/>
<polygon fill="midnightblue" stroke="midnightblue" points="180.03,-80.87 170.74,-85.95 181.17,-87.78 180.03,-80.87"/>
</g>
<!-- Node0 -->
<g id="node3" class="node">
<title>Node0</title>
<g id="a_node3"><a xlink:href="structllvm_1_1SmallVectorStorage.html" target="_top" xlink:title=" ">
<polygon fill="none" stroke="black" points="0,-0.5 0,-63.5 193,-63.5 193,-0.5 0,-0.5"/>
<text text-anchor="start" x="8" y="-51.5" font-family="Helvetica,sans-Serif" font-size="10.00">llvm::SmallVectorStorage</text>
<text text-anchor="start" x="8" y="-40.5" font-family="Helvetica,sans-Serif" font-size="10.00">&lt; llvm::memprof::Frame,</text>
<text text-anchor="start" x="8" y="-29.5" font-family="Helvetica,sans-Serif" font-size="10.00"> CalculateSmallVectorDefaultInlined</text>
<text text-anchor="start" x="8" y="-18.5" font-family="Helvetica,sans-Serif" font-size="10.00">Elements&lt; llvm::memprof::Frame</text>
<text text-anchor="middle" x="96.5" y="-7.5" font-family="Helvetica,sans-Serif" font-size="10.00"> &gt;::value &gt;</text>
</a>
</g>
</g>
<!-- Node0&#45;&gt;Node1 -->
<g id="edge2" class="edge">
<title>Node0&#45;&gt;Node1</title>
<path fill="none" stroke="#8b1a1a" d="M202.99,-49.36C211.78,-50.81 220.52,-52.25 228.93,-53.63"/>
<polygon fill="#8b1a1a" stroke="#8b1a1a" points="203.49,-45.9 193.05,-47.73 202.35,-52.8 203.49,-45.9"/>
</g>
</g>
</svg>
