<?xml version="1.0" encoding="UTF-8" standalone="no"?>
<!DOCTYPE svg PUBLIC "-//W3C//DTD SVG 1.1//EN"
 "http://www.w3.org/Graphics/SVG/1.1/DTD/svg11.dtd">
<!-- Generated by graphviz version 2.43.0 (0)
 -->
<!-- Title: include/llvm/DebugInfo/CodeView/LazyRandomTypeCollection.h Pages: 1 -->
<svg width="3898pt" height="699pt"
 viewBox="0.00 0.00 3897.89 699.00" xmlns="http://www.w3.org/2000/svg" xmlns:xlink="http://www.w3.org/1999/xlink">
<g id="graph0" class="graph" transform="scale(1 1) rotate(0) translate(4 695)">
<title>include/llvm/DebugInfo/CodeView/LazyRandomTypeCollection.h</title>
<!-- Node1 -->
<g id="node1" class="node">
<title>Node1</title>
<g id="a_node1"><a xlink:title=" ">
<polygon fill="#bfbfbf" stroke="black" points="2950.59,-660.5 2950.59,-690.5 3165.59,-690.5 3165.59,-660.5 2950.59,-660.5"/>
<text text-anchor="start" x="2958.59" y="-678.5" font-family="Helvetica,sans-Serif" font-size="10.00">include/llvm/DebugInfo</text>
<text text-anchor="middle" x="3058.09" y="-667.5" font-family="Helvetica,sans-Serif" font-size="10.00">/CodeView/LazyRandomTypeCollection.h</text>
</a>
</g>
</g>
<!-- Node2 -->
<g id="node2" class="node">
<title>Node2</title>
<g id="a_node2"><a xlink:href="ArrayRef_8h.html" target="_top" xlink:title=" ">
<polygon fill="none" stroke="black" points="642.09,-291.5 642.09,-310.5 758.09,-310.5 758.09,-291.5 642.09,-291.5"/>
<text text-anchor="middle" x="700.09" y="-298.5" font-family="Helvetica,sans-Serif" font-size="10.00">llvm/ADT/ArrayRef.h</text>
</a>
</g>
</g>
<!-- Node1&#45;&gt;Node2 -->
<g id="edge1" class="edge">
<title>Node1&#45;&gt;Node2</title>
<path fill="none" stroke="midnightblue" d="M2950.18,-674.23C2450.68,-672.79 385.02,-664.36 332.09,-624 302.07,-601.1 308.09,-580.26 308.09,-542.5 308.09,-542.5 308.09,-542.5 308.09,-412 308.09,-345.6 519.24,-317.41 631.6,-307.12"/>
<polygon fill="midnightblue" stroke="midnightblue" points="632.18,-310.58 641.83,-306.2 631.56,-303.61 632.18,-310.58"/>
</g>
<!-- Node35 -->
<g id="node22" class="node">
<title>Node35</title>
<g id="a_node22"><a xlink:href="Optional_8h.html" target="_top" xlink:title=" ">
<polygon fill="none" stroke="black" points="1690.59,-168.5 1690.59,-187.5 1805.59,-187.5 1805.59,-168.5 1690.59,-168.5"/>
<text text-anchor="middle" x="1748.09" y="-175.5" font-family="Helvetica,sans-Serif" font-size="10.00">llvm/ADT/Optional.h</text>
</a>
</g>
</g>
<!-- Node1&#45;&gt;Node35 -->
<g id="edge76" class="edge">
<title>Node1&#45;&gt;Node35</title>
<path fill="none" stroke="midnightblue" d="M2950.55,-670.85C2590.94,-656.13 1441.08,-587.77 1229.09,-311 1223.69,-303.94 1223.51,-297.92 1229.09,-291 1257.45,-255.87 1546.31,-208.92 1680.39,-188.81"/>
<polygon fill="midnightblue" stroke="midnightblue" points="1681.17,-192.24 1690.55,-187.3 1680.14,-185.31 1681.17,-192.24"/>
</g>
<!-- Node15 -->
<g id="node25" class="node">
<title>Node15</title>
<g id="a_node25"><a xlink:title=" ">
<polygon fill="none" stroke="#bfbfbf" points="3301.09,-112.5 3301.09,-131.5 3351.09,-131.5 3351.09,-112.5 3301.09,-112.5"/>
<text text-anchor="middle" x="3326.09" y="-119.5" font-family="Helvetica,sans-Serif" font-size="10.00">cstdint</text>
</a>
</g>
</g>
<!-- Node1&#45;&gt;Node15 -->
<g id="edge191" class="edge">
<title>Node1&#45;&gt;Node15</title>
<path fill="none" stroke="midnightblue" d="M3165.8,-672.77C3272.17,-669.03 3438.82,-657.71 3579.09,-624 3675.23,-600.9 3786.09,-641.37 3786.09,-542.5 3786.09,-542.5 3786.09,-542.5 3786.09,-300 3786.09,-203.99 3703.3,-205.91 3615.09,-168 3529.19,-131.08 3417.35,-123.99 3361.32,-122.92"/>
<polygon fill="midnightblue" stroke="midnightblue" points="3361.26,-119.42 3351.21,-122.78 3361.16,-126.42 3361.26,-119.42"/>
</g>
<!-- Node44 -->
<g id="node30" class="node">
<title>Node44</title>
<g id="a_node30"><a xlink:title=" ">
<polygon fill="none" stroke="#bfbfbf" points="222.59,-230 222.59,-249 269.59,-249 269.59,-230 222.59,-230"/>
<text text-anchor="middle" x="246.09" y="-237" font-family="Helvetica,sans-Serif" font-size="10.00">vector</text>
</a>
</g>
</g>
<!-- Node1&#45;&gt;Node44 -->
<g id="edge192" class="edge">
<title>Node1&#45;&gt;Node44</title>
<path fill="none" stroke="midnightblue" d="M2950.52,-674.1C2448.98,-672.04 362.1,-661.23 306.09,-624 273.11,-602.08 270.09,-582.1 270.09,-542.5 270.09,-542.5 270.09,-542.5 270.09,-356 270.09,-320.98 259.38,-281.2 252.27,-258.66"/>
<polygon fill="midnightblue" stroke="midnightblue" points="255.57,-257.48 249.13,-249.07 248.92,-259.66 255.57,-257.48"/>
</g>
<!-- Node45 -->
<g id="node31" class="node">
<title>Node45</title>
<g id="a_node31"><a xlink:href="StringRef_8h.html" target="_top" xlink:title=" ">
<polygon fill="none" stroke="black" points="2180.09,-230 2180.09,-249 2298.09,-249 2298.09,-230 2180.09,-230"/>
<text text-anchor="middle" x="2239.09" y="-237" font-family="Helvetica,sans-Serif" font-size="10.00">llvm/ADT/StringRef.h</text>
</a>
</g>
</g>
<!-- Node1&#45;&gt;Node45 -->
<g id="edge77" class="edge">
<title>Node1&#45;&gt;Node45</title>
<path fill="none" stroke="midnightblue" d="M3096.75,-660.37C3112.86,-652.34 3129.93,-640.52 3139.09,-624 3145.78,-611.95 3146.81,-604.42 3139.09,-593 3036.61,-441.33 2455.15,-292.16 2285.53,-251.38"/>
<polygon fill="midnightblue" stroke="midnightblue" points="2286.2,-247.94 2275.66,-249.02 2284.57,-254.75 2286.2,-247.94"/>
</g>
<!-- Node47 -->
<g id="node33" class="node">
<title>Node47</title>
<g id="a_node33"><a xlink:href="TypeCollection_8h.html" target="_top" xlink:title=" ">
<polygon fill="none" stroke="black" points="2986.59,-593.5 2986.59,-623.5 3129.59,-623.5 3129.59,-593.5 2986.59,-593.5"/>
<text text-anchor="start" x="2994.59" y="-611.5" font-family="Helvetica,sans-Serif" font-size="10.00">llvm/DebugInfo/CodeView</text>
<text text-anchor="middle" x="3058.09" y="-600.5" font-family="Helvetica,sans-Serif" font-size="10.00">/TypeCollection.h</text>
</a>
</g>
</g>
<!-- Node1&#45;&gt;Node47 -->
<g id="edge94" class="edge">
<title>Node1&#45;&gt;Node47</title>
<path fill="none" stroke="midnightblue" d="M3058.09,-660.4C3058.09,-652.64 3058.09,-642.81 3058.09,-633.86"/>
<polygon fill="midnightblue" stroke="midnightblue" points="3061.59,-633.58 3058.09,-623.58 3054.59,-633.58 3061.59,-633.58"/>
</g>
<!-- Node56 -->
<g id="node36" class="node">
<title>Node56</title>
<g id="a_node36"><a xlink:href="Support_2Error_8h.html" target="_top" xlink:title=" ">
<polygon fill="none" stroke="red" points="2073.59,-403.5 2073.59,-422.5 2186.59,-422.5 2186.59,-403.5 2073.59,-403.5"/>
<text text-anchor="middle" x="2130.09" y="-410.5" font-family="Helvetica,sans-Serif" font-size="10.00">llvm/Support/Error.h</text>
</a>
</g>
</g>
<!-- Node1&#45;&gt;Node56 -->
<g id="edge186" class="edge">
<title>Node1&#45;&gt;Node56</title>
<path fill="none" stroke="midnightblue" d="M3008.2,-660.49C2843.69,-614.32 2320.41,-467.42 2170.55,-425.36"/>
<polygon fill="midnightblue" stroke="midnightblue" points="2171.39,-421.96 2160.82,-422.63 2169.5,-428.7 2171.39,-421.96"/>
</g>
<!-- Node83 -->
<g id="node43" class="node">
<title>Node83</title>
<g id="a_node43"><a xlink:href="TypeIndex_8h.html" target="_top" xlink:title=" ">
<polygon fill="none" stroke="black" points="3462.59,-224.5 3462.59,-254.5 3605.59,-254.5 3605.59,-224.5 3462.59,-224.5"/>
<text text-anchor="start" x="3470.59" y="-242.5" font-family="Helvetica,sans-Serif" font-size="10.00">llvm/DebugInfo/CodeView</text>
<text text-anchor="middle" x="3534.09" y="-231.5" font-family="Helvetica,sans-Serif" font-size="10.00">/TypeIndex.h</text>
</a>
</g>
</g>
<!-- Node1&#45;&gt;Node83 -->
<g id="edge152" class="edge">
<title>Node1&#45;&gt;Node83</title>
<path fill="none" stroke="midnightblue" d="M3165.76,-671.6C3332.47,-664.15 3634.09,-637.53 3634.09,-542.5 3634.09,-542.5 3634.09,-542.5 3634.09,-356 3634.09,-314.42 3596.59,-280.45 3567.51,-260.36"/>
<polygon fill="midnightblue" stroke="midnightblue" points="3569.08,-257.2 3558.81,-254.58 3565.2,-263.03 3569.08,-257.2"/>
</g>
<!-- Node84 -->
<g id="node45" class="node">
<title>Node84</title>
<g id="a_node45"><a xlink:href="Allocator_8h.html" target="_top" xlink:title=" ">
<polygon fill="none" stroke="black" points="2674.09,-291.5 2674.09,-310.5 2808.09,-310.5 2808.09,-291.5 2674.09,-291.5"/>
<text text-anchor="middle" x="2741.09" y="-298.5" font-family="Helvetica,sans-Serif" font-size="10.00">llvm/Support/Allocator.h</text>
</a>
</g>
</g>
<!-- Node1&#45;&gt;Node84 -->
<g id="edge153" class="edge">
<title>Node1&#45;&gt;Node84</title>
<path fill="none" stroke="midnightblue" d="M3140.23,-660.5C3204.16,-644.34 3282.09,-610.66 3282.09,-542.5 3282.09,-542.5 3282.09,-542.5 3282.09,-412 3282.09,-365.24 2967.74,-325.85 2818.28,-309.77"/>
<polygon fill="midnightblue" stroke="midnightblue" points="2818.56,-306.28 2808.24,-308.69 2817.82,-313.24 2818.56,-306.28"/>
</g>
<!-- Node77 -->
<g id="node49" class="node">
<title>Node77</title>
<g id="a_node49"><a xlink:href="BinaryStreamArray_8h.html" target="_top" xlink:title=" ">
<polygon fill="none" stroke="black" points="2269.59,-526.5 2269.59,-556.5 2418.59,-556.5 2418.59,-526.5 2269.59,-526.5"/>
<text text-anchor="start" x="2277.59" y="-544.5" font-family="Helvetica,sans-Serif" font-size="10.00">llvm/Support/BinaryStream</text>
<text text-anchor="middle" x="2344.09" y="-533.5" font-family="Helvetica,sans-Serif" font-size="10.00">Array.h</text>
</a>
</g>
</g>
<!-- Node1&#45;&gt;Node77 -->
<g id="edge178" class="edge">
<title>Node1&#45;&gt;Node77</title>
<path fill="none" stroke="midnightblue" d="M2950.5,-673.67C2798.29,-671.15 2528.65,-661.36 2439.09,-624 2408.03,-611.04 2379.78,-583.93 2362.31,-564.54"/>
<polygon fill="midnightblue" stroke="midnightblue" points="2364.73,-561.98 2355.51,-556.76 2359.46,-566.59 2364.73,-561.98"/>
</g>
<!-- Node87 -->
<g id="node50" class="node">
<title>Node87</title>
<g id="a_node50"><a xlink:href="StringSaver_8h.html" target="_top" xlink:title=" ">
<polygon fill="none" stroke="red" points="2723.09,-347.5 2723.09,-366.5 2869.09,-366.5 2869.09,-347.5 2723.09,-347.5"/>
<text text-anchor="middle" x="2796.09" y="-354.5" font-family="Helvetica,sans-Serif" font-size="10.00">llvm/Support/StringSaver.h</text>
</a>
</g>
</g>
<!-- Node1&#45;&gt;Node87 -->
<g id="edge187" class="edge">
<title>Node1&#45;&gt;Node87</title>
<path fill="none" stroke="midnightblue" d="M3130.87,-660.38C3150.66,-652.9 3169.96,-641.47 3182.09,-624 3223.93,-563.75 3219.97,-524.06 3186.09,-459 3166.05,-420.5 3146.44,-419 3106.09,-403 3032.91,-373.99 2943.37,-363.4 2879.37,-359.67"/>
<polygon fill="midnightblue" stroke="midnightblue" points="2879.5,-356.17 2869.33,-359.13 2879.13,-363.16 2879.5,-356.17"/>
</g>
<!-- Node3 -->
<g id="node3" class="node">
<title>Node3</title>
<g id="a_node3"><a xlink:href="Hashing_8h.html" target="_top" xlink:title=" ">
<polygon fill="none" stroke="red" points="1738.59,-112.5 1738.59,-131.5 1851.59,-131.5 1851.59,-112.5 1738.59,-112.5"/>
<text text-anchor="middle" x="1795.09" y="-119.5" font-family="Helvetica,sans-Serif" font-size="10.00">llvm/ADT/Hashing.h</text>
</a>
</g>
</g>
<!-- Node2&#45;&gt;Node3 -->
<g id="edge2" class="edge">
<title>Node2&#45;&gt;Node3</title>
<path fill="none" stroke="midnightblue" d="M758.53,-299.48C873.04,-297.7 1122.57,-289.8 1200.09,-255 1218.45,-246.76 1214.76,-232.3 1233.09,-224 1384.4,-155.46 1442.74,-223.12 1605.09,-188 1663.49,-175.37 1728.86,-150.52 1765.68,-135.47"/>
<polygon fill="midnightblue" stroke="midnightblue" points="1767.38,-138.55 1775.29,-131.5 1764.71,-132.09 1767.38,-138.55"/>
</g>
<!-- Node10 -->
<g id="node5" class="node">
<title>Node10</title>
<g id="a_node5"><a xlink:href="Compiler_8h.html" target="_top" xlink:title=" ">
<polygon fill="none" stroke="red" points="3117.09,-0.5 3117.09,-19.5 3251.09,-19.5 3251.09,-0.5 3117.09,-0.5"/>
<text text-anchor="middle" x="3184.09" y="-7.5" font-family="Helvetica,sans-Serif" font-size="10.00">llvm/Support/Compiler.h</text>
</a>
</g>
</g>
<!-- Node2&#45;&gt;Node10 -->
<g id="edge66" class="edge">
<title>Node2&#45;&gt;Node10</title>
<path fill="none" stroke="midnightblue" d="M758.41,-298.97C855.87,-297.26 1058.04,-293.75 1229.09,-291 1295.37,-289.94 3563.37,-296.46 3615.09,-255 3687.17,-197.22 3633.96,-104.1 3555.09,-56 3507.26,-26.83 3355.11,-16.54 3261.17,-12.93"/>
<polygon fill="midnightblue" stroke="midnightblue" points="3261.26,-9.43 3251.14,-12.56 3261,-16.42 3261.26,-9.43"/>
</g>
<!-- Node16 -->
<g id="node7" class="node">
<title>Node16</title>
<g id="a_node7"><a xlink:title=" ">
<polygon fill="none" stroke="#bfbfbf" points="1845.59,-0.5 1845.59,-19.5 1914.59,-19.5 1914.59,-0.5 1845.59,-0.5"/>
<text text-anchor="middle" x="1880.09" y="-7.5" font-family="Helvetica,sans-Serif" font-size="10.00">type_traits</text>
</a>
</g>
</g>
<!-- Node2&#45;&gt;Node16 -->
<g id="edge74" class="edge">
<title>Node2&#45;&gt;Node16</title>
<path fill="none" stroke="midnightblue" d="M699.39,-291.49C698.4,-277.37 697.13,-248.22 701.09,-224 709.92,-170.02 711.27,-148.4 752.09,-112 797.83,-71.21 818.45,-70.06 878.09,-56 1063.82,-12.21 1665.92,-10.42 1835.36,-10.81"/>
<polygon fill="midnightblue" stroke="midnightblue" points="1835.41,-14.31 1845.42,-10.83 1835.43,-7.31 1835.41,-14.31"/>
</g>
<!-- Node20 -->
<g id="node9" class="node">
<title>Node20</title>
<g id="a_node9"><a xlink:title=" ">
<polygon fill="none" stroke="#bfbfbf" points="1204.09,-56.5 1204.09,-75.5 1268.09,-75.5 1268.09,-56.5 1204.09,-56.5"/>
<text text-anchor="middle" x="1236.09" y="-63.5" font-family="Helvetica,sans-Serif" font-size="10.00">algorithm</text>
</a>
</g>
</g>
<!-- Node2&#45;&gt;Node20 -->
<g id="edge67" class="edge">
<title>Node2&#45;&gt;Node20</title>
<path fill="none" stroke="midnightblue" d="M700.54,-291.43C702.63,-261.04 714.12,-157.8 775.09,-112 808.19,-87.14 1086.25,-73.16 1193.83,-68.64"/>
<polygon fill="midnightblue" stroke="midnightblue" points="1194.15,-72.13 1203.99,-68.22 1193.86,-65.14 1194.15,-72.13"/>
</g>
<!-- Node21 -->
<g id="node10" class="node">
<title>Node21</title>
<g id="a_node10"><a xlink:title=" ">
<polygon fill="none" stroke="#bfbfbf" points="2683.09,-56.5 2683.09,-75.5 2735.09,-75.5 2735.09,-56.5 2683.09,-56.5"/>
<text text-anchor="middle" x="2709.09" y="-63.5" font-family="Helvetica,sans-Serif" font-size="10.00">cassert</text>
</a>
</g>
</g>
<!-- Node2&#45;&gt;Node21 -->
<g id="edge69" class="edge">
<title>Node2&#45;&gt;Node21</title>
<path fill="none" stroke="midnightblue" d="M758.44,-299.11C1031.8,-294.83 2179.24,-275.76 2338.09,-255 2402.17,-246.62 2567.29,-223.81 2621.09,-188 2631.52,-181.06 2676.22,-115.84 2697.61,-84.14"/>
<polygon fill="midnightblue" stroke="midnightblue" points="2700.53,-86.07 2703.2,-75.82 2694.72,-82.16 2700.53,-86.07"/>
</g>
<!-- Node25 -->
<g id="node13" class="node">
<title>Node25</title>
<g id="a_node13"><a xlink:href="None_8h.html" target="_top" xlink:title=" ">
<polygon fill="none" stroke="black" points="784.59,-112.5 784.59,-131.5 883.59,-131.5 883.59,-112.5 784.59,-112.5"/>
<text text-anchor="middle" x="834.09" y="-119.5" font-family="Helvetica,sans-Serif" font-size="10.00">llvm/ADT/None.h</text>
</a>
</g>
</g>
<!-- Node2&#45;&gt;Node25 -->
<g id="edge14" class="edge">
<title>Node2&#45;&gt;Node25</title>
<path fill="none" stroke="midnightblue" d="M706.56,-291.46C727.38,-263.96 792.97,-177.32 821.09,-140.18"/>
<polygon fill="midnightblue" stroke="midnightblue" points="824.13,-141.95 827.38,-131.87 818.55,-137.73 824.13,-141.95"/>
</g>
<!-- Node26 -->
<g id="node14" class="node">
<title>Node26</title>
<g id="a_node14"><a xlink:href="SmallVector_8h.html" target="_top" xlink:title=" ">
<polygon fill="none" stroke="red" points="1862.59,-168.5 1862.59,-187.5 1993.59,-187.5 1993.59,-168.5 1862.59,-168.5"/>
<text text-anchor="middle" x="1928.09" y="-175.5" font-family="Helvetica,sans-Serif" font-size="10.00">llvm/ADT/SmallVector.h</text>
</a>
</g>
</g>
<!-- Node2&#45;&gt;Node26 -->
<g id="edge15" class="edge">
<title>Node2&#45;&gt;Node26</title>
<path fill="none" stroke="midnightblue" d="M758.1,-295.57C856.06,-287.99 1060.48,-271.72 1233.09,-255 1458.64,-233.15 1724.85,-202.75 1852.45,-187.89"/>
<polygon fill="midnightblue" stroke="midnightblue" points="1852.98,-191.35 1862.51,-186.72 1852.17,-184.4 1852.98,-191.35"/>
</g>
<!-- Node14 -->
<g id="node15" class="node">
<title>Node14</title>
<g id="a_node15"><a xlink:title=" ">
<polygon fill="none" stroke="#bfbfbf" points="2482.59,-112.5 2482.59,-131.5 2535.59,-131.5 2535.59,-112.5 2482.59,-112.5"/>
<text text-anchor="middle" x="2509.09" y="-119.5" font-family="Helvetica,sans-Serif" font-size="10.00">cstddef</text>
</a>
</g>
</g>
<!-- Node2&#45;&gt;Node14 -->
<g id="edge70" class="edge">
<title>Node2&#45;&gt;Node14</title>
<path fill="none" stroke="midnightblue" d="M758.23,-298.99C1042.18,-293.95 2271.11,-271.27 2307.09,-255 2355.23,-233.24 2344.15,-197.33 2388.09,-168 2413.98,-150.72 2447.39,-138.95 2472.54,-131.79"/>
<polygon fill="midnightblue" stroke="midnightblue" points="2473.7,-135.1 2482.42,-129.09 2471.85,-128.35 2473.7,-135.1"/>
</g>
<!-- Node29 -->
<g id="node16" class="node">
<title>Node29</title>
<g id="a_node16"><a xlink:title=" ">
<polygon fill="none" stroke="#bfbfbf" points="918.59,-112.5 918.59,-131.5 1001.59,-131.5 1001.59,-112.5 918.59,-112.5"/>
<text text-anchor="middle" x="960.09" y="-119.5" font-family="Helvetica,sans-Serif" font-size="10.00">initializer_list</text>
</a>
</g>
</g>
<!-- Node2&#45;&gt;Node29 -->
<g id="edge71" class="edge">
<title>Node2&#45;&gt;Node29</title>
<path fill="none" stroke="midnightblue" d="M706.58,-291.28C724.31,-268.02 776.08,-203.83 833.09,-168 857.66,-152.56 888.23,-141.52 913.23,-134.24"/>
<polygon fill="midnightblue" stroke="midnightblue" points="914.18,-137.61 922.86,-131.54 912.28,-130.87 914.18,-137.61"/>
</g>
<!-- Node30 -->
<g id="node17" class="node">
<title>Node30</title>
<g id="a_node17"><a xlink:title=" ">
<polygon fill="none" stroke="#bfbfbf" points="190.59,-112.5 190.59,-131.5 243.59,-131.5 243.59,-112.5 190.59,-112.5"/>
<text text-anchor="middle" x="217.09" y="-119.5" font-family="Helvetica,sans-Serif" font-size="10.00">iterator</text>
</a>
</g>
</g>
<!-- Node2&#45;&gt;Node30 -->
<g id="edge72" class="edge">
<title>Node2&#45;&gt;Node30</title>
<path fill="none" stroke="midnightblue" d="M642,-292.59C602.64,-286.11 550.16,-274.59 507.09,-255 485.65,-245.25 485.82,-233.11 464.09,-224 376.77,-187.37 331.63,-242.37 254.09,-188 238.18,-176.84 228.23,-156.51 222.7,-141.55"/>
<polygon fill="midnightblue" stroke="midnightblue" points="225.94,-140.18 219.44,-131.81 219.3,-142.41 225.94,-140.18"/>
</g>
<!-- Node32 -->
<g id="node19" class="node">
<title>Node32</title>
<g id="a_node19"><a xlink:title=" ">
<polygon fill="none" stroke="#bfbfbf" points="114.09,-112.5 114.09,-131.5 172.09,-131.5 172.09,-112.5 114.09,-112.5"/>
<text text-anchor="middle" x="143.09" y="-119.5" font-family="Helvetica,sans-Serif" font-size="10.00">memory</text>
</a>
</g>
</g>
<!-- Node2&#45;&gt;Node32 -->
<g id="edge73" class="edge">
<title>Node2&#45;&gt;Node32</title>
<path fill="none" stroke="midnightblue" d="M647.77,-291.47C599.74,-283.31 526.76,-270.03 464.09,-255 451.1,-251.88 245.1,-193.86 233.09,-188 205.7,-174.64 177.81,-152.98 160.49,-138.38"/>
<polygon fill="midnightblue" stroke="midnightblue" points="162.75,-135.71 152.88,-131.84 158.19,-141.01 162.75,-135.71"/>
</g>
<!-- Node34 -->
<g id="node21" class="node">
<title>Node34</title>
<g id="a_node21"><a xlink:href="STLExtras_8h.html" target="_top" xlink:title=" ">
<polygon fill="none" stroke="red" points="1069.09,-230 1069.09,-249 1191.09,-249 1191.09,-230 1069.09,-230"/>
<text text-anchor="middle" x="1130.09" y="-237" font-family="Helvetica,sans-Serif" font-size="10.00">llvm/ADT/STLExtras.h</text>
</a>
</g>
</g>
<!-- Node2&#45;&gt;Node34 -->
<g id="edge29" class="edge">
<title>Node2&#45;&gt;Node34</title>
<path fill="none" stroke="midnightblue" d="M758.53,-291.91C836.65,-281.1 974.98,-261.96 1059.03,-250.33"/>
<polygon fill="midnightblue" stroke="midnightblue" points="1059.58,-253.79 1069,-248.95 1058.62,-246.86 1059.58,-253.79"/>
</g>
<!-- Node43 -->
<g id="node29" class="node">
<title>Node43</title>
<g id="a_node29"><a xlink:title=" ">
<polygon fill="none" stroke="#bfbfbf" points="516.09,-230 516.09,-249 558.09,-249 558.09,-230 516.09,-230"/>
<text text-anchor="middle" x="537.09" y="-237" font-family="Helvetica,sans-Serif" font-size="10.00">array</text>
</a>
</g>
</g>
<!-- Node2&#45;&gt;Node43 -->
<g id="edge68" class="edge">
<title>Node2&#45;&gt;Node43</title>
<path fill="none" stroke="midnightblue" d="M674.44,-291.44C648.49,-282.68 607.29,-268.47 572.09,-255 570.45,-254.37 568.76,-253.71 567.06,-253.04"/>
<polygon fill="midnightblue" stroke="midnightblue" points="567.96,-249.63 557.38,-249.12 565.33,-256.12 567.96,-249.63"/>
</g>
<!-- Node2&#45;&gt;Node44 -->
<g id="edge75" class="edge">
<title>Node2&#45;&gt;Node44</title>
<path fill="none" stroke="midnightblue" d="M641.67,-292.34C545.6,-279.75 357.26,-255.07 280.19,-244.97"/>
<polygon fill="midnightblue" stroke="midnightblue" points="280.45,-241.47 270.08,-243.64 279.54,-248.41 280.45,-241.47"/>
</g>
<!-- Node9 -->
<g id="node4" class="node">
<title>Node9</title>
<g id="a_node4"><a xlink:href="Support_2ErrorHandling_8h.html" target="_top" xlink:title=" ">
<polygon fill="none" stroke="black" points="3388.09,-56.5 3388.09,-75.5 3546.09,-75.5 3546.09,-56.5 3388.09,-56.5"/>
<text text-anchor="middle" x="3467.09" y="-63.5" font-family="Helvetica,sans-Serif" font-size="10.00">llvm/Support/ErrorHandling.h</text>
</a>
</g>
</g>
<!-- Node3&#45;&gt;Node9 -->
<g id="edge3" class="edge">
<title>Node3&#45;&gt;Node9</title>
<path fill="none" stroke="midnightblue" d="M1851.78,-116.94C1878.03,-115.18 1909.64,-113.25 1938.09,-112 2574.68,-84.03 2737.99,-116.27 3377.56,-76.04"/>
<polygon fill="midnightblue" stroke="midnightblue" points="3378.2,-79.51 3387.96,-75.38 3377.76,-72.52 3378.2,-79.51"/>
</g>
<!-- Node18 -->
<g id="node6" class="node">
<title>Node18</title>
<g id="a_node6"><a xlink:href="type__traits_8h.html" target="_top" xlink:title=" ">
<polygon fill="none" stroke="black" points="1808.59,-56.5 1808.59,-75.5 1951.59,-75.5 1951.59,-56.5 1808.59,-56.5"/>
<text text-anchor="middle" x="1880.09" y="-63.5" font-family="Helvetica,sans-Serif" font-size="10.00">llvm/Support/type_traits.h</text>
</a>
</g>
</g>
<!-- Node3&#45;&gt;Node18 -->
<g id="edge5" class="edge">
<title>Node3&#45;&gt;Node18</title>
<path fill="none" stroke="midnightblue" d="M1808.75,-112.32C1822.01,-103.9 1842.36,-90.97 1857.94,-81.07"/>
<polygon fill="midnightblue" stroke="midnightblue" points="1859.91,-83.97 1866.47,-75.65 1856.15,-78.06 1859.91,-83.97"/>
</g>
<!-- Node19 -->
<g id="node8" class="node">
<title>Node19</title>
<g id="a_node8"><a xlink:title=" ">
<polygon fill="none" stroke="#bfbfbf" points="1115.59,-0.5 1115.59,-19.5 1160.59,-19.5 1160.59,-0.5 1115.59,-0.5"/>
<text text-anchor="middle" x="1138.09" y="-7.5" font-family="Helvetica,sans-Serif" font-size="10.00">utility</text>
</a>
</g>
</g>
<!-- Node3&#45;&gt;Node19 -->
<g id="edge13" class="edge">
<title>Node3&#45;&gt;Node19</title>
<path fill="none" stroke="midnightblue" d="M1788.83,-112.32C1777.7,-97.69 1752.92,-68.49 1724.09,-56 1623.52,-12.41 1279.02,-10.29 1170.86,-10.74"/>
<polygon fill="midnightblue" stroke="midnightblue" points="1170.84,-7.24 1160.86,-10.79 1170.88,-14.24 1170.84,-7.24"/>
</g>
<!-- Node3&#45;&gt;Node20 -->
<g id="edge9" class="edge">
<title>Node3&#45;&gt;Node20</title>
<path fill="none" stroke="midnightblue" d="M1738.42,-115.53C1626.09,-104.67 1377.52,-80.66 1278.25,-71.07"/>
<polygon fill="midnightblue" stroke="midnightblue" points="1278.57,-67.59 1268.28,-70.11 1277.9,-74.55 1278.57,-67.59"/>
</g>
<!-- Node3&#45;&gt;Node21 -->
<g id="edge10" class="edge">
<title>Node3&#45;&gt;Node21</title>
<path fill="none" stroke="midnightblue" d="M1851.64,-116.04C1868.51,-114.64 1887.04,-113.18 1904.09,-112 2200.69,-91.47 2559.26,-74.03 2672.8,-68.68"/>
<polygon fill="midnightblue" stroke="midnightblue" points="2673.19,-72.17 2683.02,-68.21 2672.86,-65.18 2673.19,-72.17"/>
</g>
<!-- Node22 -->
<g id="node11" class="node">
<title>Node22</title>
<g id="a_node11"><a xlink:title=" ">
<polygon fill="none" stroke="#bfbfbf" points="2326.09,-56.5 2326.09,-75.5 2376.09,-75.5 2376.09,-56.5 2326.09,-56.5"/>
<text text-anchor="middle" x="2351.09" y="-63.5" font-family="Helvetica,sans-Serif" font-size="10.00">cstring</text>
</a>
</g>
</g>
<!-- Node3&#45;&gt;Node22 -->
<g id="edge11" class="edge">
<title>Node3&#45;&gt;Node22</title>
<path fill="none" stroke="midnightblue" d="M1851.72,-115.5C1966.17,-104.38 2222.08,-79.53 2315.82,-70.43"/>
<polygon fill="midnightblue" stroke="midnightblue" points="2316.3,-73.9 2325.92,-69.45 2315.62,-66.93 2316.3,-73.9"/>
</g>
<!-- Node23 -->
<g id="node12" class="node">
<title>Node23</title>
<g id="a_node12"><a xlink:title=" ">
<polygon fill="none" stroke="#bfbfbf" points="887.09,-56.5 887.09,-75.5 931.09,-75.5 931.09,-56.5 887.09,-56.5"/>
<text text-anchor="middle" x="909.09" y="-63.5" font-family="Helvetica,sans-Serif" font-size="10.00">string</text>
</a>
</g>
</g>
<!-- Node3&#45;&gt;Node23 -->
<g id="edge12" class="edge">
<title>Node3&#45;&gt;Node23</title>
<path fill="none" stroke="midnightblue" d="M1738.32,-117.54C1569.29,-107.24 1072.92,-76.99 941.39,-68.97"/>
<polygon fill="midnightblue" stroke="midnightblue" points="941.37,-65.46 931.18,-68.35 940.94,-72.45 941.37,-65.46"/>
</g>
<!-- Node9&#45;&gt;Node10 -->
<g id="edge4" class="edge">
<title>Node9&#45;&gt;Node10</title>
<path fill="none" stroke="midnightblue" d="M3422.25,-56.44C3372.47,-46.94 3292.11,-31.61 3238.7,-21.42"/>
<polygon fill="midnightblue" stroke="midnightblue" points="3239.2,-17.95 3228.73,-19.52 3237.89,-24.83 3239.2,-17.95"/>
</g>
<!-- Node18&#45;&gt;Node10 -->
<g id="edge6" class="edge">
<title>Node18&#45;&gt;Node10</title>
<path fill="none" stroke="midnightblue" d="M1951.95,-61.57C1988.52,-59.84 2033.67,-57.76 2074.09,-56 2461.81,-39.15 2925.8,-20.99 3106.62,-13.98"/>
<polygon fill="midnightblue" stroke="midnightblue" points="3106.97,-17.47 3116.83,-13.59 3106.7,-10.48 3106.97,-17.47"/>
</g>
<!-- Node18&#45;&gt;Node16 -->
<g id="edge7" class="edge">
<title>Node18&#45;&gt;Node16</title>
<path fill="none" stroke="midnightblue" d="M1880.09,-56.08C1880.09,-49.01 1880.09,-38.86 1880.09,-29.99"/>
<polygon fill="midnightblue" stroke="midnightblue" points="1883.59,-29.75 1880.09,-19.75 1876.59,-29.75 1883.59,-29.75"/>
</g>
<!-- Node18&#45;&gt;Node19 -->
<g id="edge8" class="edge">
<title>Node18&#45;&gt;Node19</title>
<path fill="none" stroke="midnightblue" d="M1808.5,-58.52C1798.29,-57.64 1787.93,-56.78 1778.09,-56 1545.55,-37.57 1265.16,-19.18 1170.84,-13.1"/>
<polygon fill="midnightblue" stroke="midnightblue" points="1170.98,-9.6 1160.78,-12.45 1170.53,-16.58 1170.98,-9.6"/>
</g>
<!-- Node26&#45;&gt;Node10 -->
<g id="edge16" class="edge">
<title>Node26&#45;&gt;Node10</title>
<path fill="none" stroke="midnightblue" d="M1972.6,-168.47C2008.29,-160.92 2059.31,-148.53 2102.09,-132 2119.89,-125.12 2122.48,-119.35 2140.09,-112 2216.23,-80.22 2235.9,-70.7 2317.09,-56 2467.47,-28.77 2923.65,-16.44 3106.79,-12.49"/>
<polygon fill="midnightblue" stroke="midnightblue" points="3106.95,-15.99 3116.88,-12.28 3106.81,-8.99 3106.95,-15.99"/>
</g>
<!-- Node26&#45;&gt;Node18 -->
<g id="edge17" class="edge">
<title>Node26&#45;&gt;Node18</title>
<path fill="none" stroke="midnightblue" d="M1948.62,-168.34C1973.05,-156.75 2008.68,-134.98 1993.09,-112 1982.04,-95.7 1964.05,-85.31 1945.64,-78.68"/>
<polygon fill="midnightblue" stroke="midnightblue" points="1946.6,-75.31 1936.01,-75.54 1944.43,-81.97 1946.6,-75.31"/>
</g>
<!-- Node26&#45;&gt;Node16 -->
<g id="edge27" class="edge">
<title>Node26&#45;&gt;Node16</title>
<path fill="none" stroke="midnightblue" d="M1958.34,-168.49C1976.22,-161.73 1997.39,-150.29 2008.09,-132 2012.58,-124.33 2011.13,-120.35 2008.09,-112 1992.21,-68.37 1944.13,-39.18 1911.63,-23.85"/>
<polygon fill="midnightblue" stroke="midnightblue" points="1912.65,-20.47 1902.1,-19.53 1909.77,-26.84 1912.65,-20.47"/>
</g>
<!-- Node26&#45;&gt;Node19 -->
<g id="edge28" class="edge">
<title>Node26&#45;&gt;Node19</title>
<path fill="none" stroke="midnightblue" d="M1880.87,-168.45C1833.91,-159.8 1759.86,-145.77 1696.09,-132 1691.64,-131.04 1381.55,-56.95 1377.09,-56 1303.73,-40.36 1217.08,-24.76 1170.93,-16.67"/>
<polygon fill="midnightblue" stroke="midnightblue" points="1171.36,-13.19 1160.9,-14.92 1170.15,-20.09 1171.36,-13.19"/>
</g>
<!-- Node26&#45;&gt;Node20 -->
<g id="edge18" class="edge">
<title>Node26&#45;&gt;Node20</title>
<path fill="none" stroke="midnightblue" d="M1876.83,-168.48C1822.52,-159.44 1734.26,-144.75 1658.09,-132 1605.2,-123.15 1592.06,-120.38 1539.09,-112 1446.18,-97.29 1337.01,-81.43 1278.41,-73.02"/>
<polygon fill="midnightblue" stroke="midnightblue" points="1278.81,-69.55 1268.41,-71.59 1277.81,-76.48 1278.81,-69.55"/>
</g>
<!-- Node26&#45;&gt;Node21 -->
<g id="edge19" class="edge">
<title>Node26&#45;&gt;Node21</title>
<path fill="none" stroke="midnightblue" d="M1993.74,-169.15C2044.7,-162.1 2116.75,-150.07 2178.09,-132 2200.26,-125.47 2203.67,-117.58 2226.09,-112 2389.17,-71.43 2591.47,-66.76 2672.77,-66.68"/>
<polygon fill="midnightblue" stroke="midnightblue" points="2672.97,-70.18 2682.98,-66.69 2672.98,-63.18 2672.97,-70.18"/>
</g>
<!-- Node26&#45;&gt;Node22 -->
<g id="edge21" class="edge">
<title>Node26&#45;&gt;Node22</title>
<path fill="none" stroke="midnightblue" d="M1981.5,-168.5C2024.8,-160.93 2087.11,-148.51 2140.09,-132 2162.16,-125.13 2166.24,-119.53 2188.09,-112 2231.6,-96.99 2282.96,-83.49 2316.23,-75.28"/>
<polygon fill="midnightblue" stroke="midnightblue" points="2317.06,-78.68 2325.94,-72.9 2315.4,-71.88 2317.06,-78.68"/>
</g>
<!-- Node26&#45;&gt;Node14 -->
<g id="edge20" class="edge">
<title>Node26&#45;&gt;Node14</title>
<path fill="none" stroke="midnightblue" d="M1993.61,-170.91C2116.18,-159.52 2376.44,-135.33 2472.49,-126.4"/>
<polygon fill="midnightblue" stroke="midnightblue" points="2472.95,-129.87 2482.58,-125.46 2472.3,-122.9 2472.95,-129.87"/>
</g>
<!-- Node26&#45;&gt;Node29 -->
<g id="edge22" class="edge">
<title>Node26&#45;&gt;Node29</title>
<path fill="none" stroke="midnightblue" d="M1862.39,-171.47C1846.88,-170.24 1830.41,-169.01 1815.09,-168 1511.11,-147.9 1145.86,-131.14 1012.27,-125.26"/>
<polygon fill="midnightblue" stroke="midnightblue" points="1012.08,-121.74 1001.93,-124.8 1011.77,-128.74 1012.08,-121.74"/>
</g>
<!-- Node26&#45;&gt;Node30 -->
<g id="edge23" class="edge">
<title>Node26&#45;&gt;Node30</title>
<path fill="none" stroke="midnightblue" d="M1862.41,-171.14C1846.9,-169.94 1830.42,-168.79 1815.09,-168 1138.47,-133.09 966.84,-180.96 291.09,-132 278.91,-131.12 265.66,-129.66 253.78,-128.18"/>
<polygon fill="midnightblue" stroke="midnightblue" points="254.12,-124.69 243.75,-126.88 253.22,-131.63 254.12,-124.69"/>
</g>
<!-- Node31 -->
<g id="node18" class="node">
<title>Node31</title>
<g id="a_node18"><a xlink:title=" ">
<polygon fill="none" stroke="#bfbfbf" points="2268.09,-112.5 2268.09,-131.5 2312.09,-131.5 2312.09,-112.5 2268.09,-112.5"/>
<text text-anchor="middle" x="2290.09" y="-119.5" font-family="Helvetica,sans-Serif" font-size="10.00">limits</text>
</a>
</g>
</g>
<!-- Node26&#45;&gt;Node31 -->
<g id="edge24" class="edge">
<title>Node26&#45;&gt;Node31</title>
<path fill="none" stroke="midnightblue" d="M1985.45,-168.44C2062.37,-156.97 2196.36,-136.98 2257.73,-127.83"/>
<polygon fill="midnightblue" stroke="midnightblue" points="2258.59,-131.24 2267.97,-126.3 2257.56,-124.31 2258.59,-131.24"/>
</g>
<!-- Node26&#45;&gt;Node32 -->
<g id="edge25" class="edge">
<title>Node26&#45;&gt;Node32</title>
<path fill="none" stroke="midnightblue" d="M1862.41,-171.13C1846.9,-169.92 1830.42,-168.78 1815.09,-168 1455.64,-149.74 557.77,-177.6 182.57,-131.86"/>
<polygon fill="midnightblue" stroke="midnightblue" points="182.8,-128.37 172.44,-130.59 181.93,-135.31 182.8,-128.37"/>
</g>
<!-- Node33 -->
<g id="node20" class="node">
<title>Node33</title>
<g id="a_node20"><a xlink:title=" ">
<polygon fill="none" stroke="#bfbfbf" points="1946.59,-112.5 1946.59,-131.5 1983.59,-131.5 1983.59,-112.5 1946.59,-112.5"/>
<text text-anchor="middle" x="1965.09" y="-119.5" font-family="Helvetica,sans-Serif" font-size="10.00">new</text>
</a>
</g>
</g>
<!-- Node26&#45;&gt;Node33 -->
<g id="edge26" class="edge">
<title>Node26&#45;&gt;Node33</title>
<path fill="none" stroke="midnightblue" d="M1934.2,-168.08C1939.37,-160.53 1946.94,-149.49 1953.29,-140.23"/>
<polygon fill="midnightblue" stroke="midnightblue" points="1956.33,-141.98 1959.1,-131.75 1950.56,-138.02 1956.33,-141.98"/>
</g>
<!-- Node34&#45;&gt;Node9 -->
<g id="edge55" class="edge">
<title>Node34&#45;&gt;Node9</title>
<path fill="none" stroke="midnightblue" d="M1191.3,-237.86C1519.39,-234.32 3058.64,-216.25 3155.09,-188 3171.55,-183.18 3173.2,-176.51 3188.09,-168 3233.67,-141.94 3243.2,-131.12 3292.09,-112 3330.91,-96.82 3376.59,-85.27 3411.53,-77.68"/>
<polygon fill="midnightblue" stroke="midnightblue" points="3412.5,-81.05 3421.55,-75.54 3411.04,-74.2 3412.5,-81.05"/>
</g>
<!-- Node34&#45;&gt;Node16 -->
<g id="edge64" class="edge">
<title>Node34&#45;&gt;Node16</title>
<path fill="none" stroke="midnightblue" d="M1130.11,-229.73C1130.71,-199.61 1137.13,-99.8 1195.09,-56 1246,-17.53 1691.04,-11.93 1835.22,-11.13"/>
<polygon fill="midnightblue" stroke="midnightblue" points="1835.49,-14.63 1845.47,-11.08 1835.45,-7.63 1835.49,-14.63"/>
</g>
<!-- Node34&#45;&gt;Node19 -->
<g id="edge65" class="edge">
<title>Node34&#45;&gt;Node19</title>
<path fill="none" stroke="midnightblue" d="M1069.07,-236.06C902.25,-229.17 446.71,-208.67 382.09,-188 331.9,-171.95 262.31,-156.14 291.09,-112 324.78,-60.32 358.16,-70.6 418.09,-56 551.13,-23.6 982.15,-13.72 1105.08,-11.53"/>
<polygon fill="midnightblue" stroke="midnightblue" points="1105.42,-15.02 1115.36,-11.35 1105.3,-8.02 1105.42,-15.02"/>
</g>
<!-- Node34&#45;&gt;Node20 -->
<g id="edge56" class="edge">
<title>Node34&#45;&gt;Node20</title>
<path fill="none" stroke="midnightblue" d="M1135.11,-229.83C1147.09,-209.21 1178.4,-155.72 1206.09,-112 1212.01,-102.66 1218.82,-92.4 1224.46,-84.03"/>
<polygon fill="midnightblue" stroke="midnightblue" points="1227.5,-85.79 1230.22,-75.55 1221.71,-81.86 1227.5,-85.79"/>
</g>
<!-- Node34&#45;&gt;Node21 -->
<g id="edge57" class="edge">
<title>Node34&#45;&gt;Node21</title>
<path fill="none" stroke="midnightblue" d="M1191.32,-238.78C1363.85,-238.96 1851.32,-235.17 2003.09,-188 2019.47,-182.91 2020.11,-174.22 2036.09,-168 2112.12,-138.41 2138.56,-157.38 2216.09,-132 2236.12,-125.44 2238.77,-117.57 2259.09,-112 2408.62,-71.02 2595.21,-66.49 2672.72,-66.55"/>
<polygon fill="midnightblue" stroke="midnightblue" points="2672.91,-70.05 2682.92,-66.59 2672.93,-63.05 2672.91,-70.05"/>
</g>
<!-- Node34&#45;&gt;Node14 -->
<g id="edge58" class="edge">
<title>Node34&#45;&gt;Node14</title>
<path fill="none" stroke="midnightblue" d="M1191.27,-237.24C1341.78,-233.69 1742,-221.62 2074.09,-188 2222.47,-172.98 2397.65,-143.04 2472.36,-129.69"/>
<polygon fill="midnightblue" stroke="midnightblue" points="2473,-133.14 2482.22,-127.92 2471.76,-126.25 2473,-133.14"/>
</g>
<!-- Node34&#45;&gt;Node29 -->
<g id="edge60" class="edge">
<title>Node34&#45;&gt;Node29</title>
<path fill="none" stroke="midnightblue" d="M1118.2,-229.87C1099.58,-216.41 1062.33,-189.71 1030.09,-168 1014.42,-157.44 996.48,-145.93 982.69,-137.18"/>
<polygon fill="midnightblue" stroke="midnightblue" points="984.21,-134 973.89,-131.62 980.47,-139.92 984.21,-134"/>
</g>
<!-- Node34&#45;&gt;Node30 -->
<g id="edge61" class="edge">
<title>Node34&#45;&gt;Node30</title>
<path fill="none" stroke="midnightblue" d="M1114.63,-229.81C1082.3,-211.73 1009.56,-171.44 997.09,-168 845.66,-126.22 447.61,-145.49 291.09,-132 278.93,-130.95 265.67,-129.45 253.79,-127.98"/>
<polygon fill="midnightblue" stroke="midnightblue" points="254.12,-124.49 243.76,-126.7 253.24,-131.44 254.12,-124.49"/>
</g>
<!-- Node34&#45;&gt;Node31 -->
<g id="edge62" class="edge">
<title>Node34&#45;&gt;Node31</title>
<path fill="none" stroke="midnightblue" d="M1191.4,-237.78C1367.89,-235.27 1874.76,-224.96 2036.09,-188 2058.62,-182.84 2062.03,-174.87 2084.09,-168 2157.83,-145.05 2178.84,-149.37 2254.09,-132 2255.36,-131.71 2256.66,-131.4 2257.97,-131.09"/>
<polygon fill="midnightblue" stroke="midnightblue" points="2259.15,-134.41 2268.04,-128.65 2257.49,-127.61 2259.15,-134.41"/>
</g>
<!-- Node34&#45;&gt;Node32 -->
<g id="edge63" class="edge">
<title>Node34&#45;&gt;Node32</title>
<path fill="none" stroke="midnightblue" d="M1068.9,-236.78C907.2,-231.91 471.29,-216.44 330.09,-188 272.04,-176.31 207.42,-150.91 171.37,-135.55"/>
<polygon fill="midnightblue" stroke="midnightblue" points="172.56,-132.25 161.99,-131.51 169.79,-138.68 172.56,-132.25"/>
</g>
<!-- Node34&#45;&gt;Node35 -->
<g id="edge30" class="edge">
<title>Node34&#45;&gt;Node35</title>
<path fill="none" stroke="midnightblue" d="M1191.33,-230.2C1208.09,-228.05 1226.28,-225.83 1243.09,-224 1399.29,-207.03 1583.18,-191.85 1680.21,-184.21"/>
<polygon fill="midnightblue" stroke="midnightblue" points="1680.77,-187.68 1690.46,-183.4 1680.22,-180.7 1680.77,-187.68"/>
</g>
<!-- Node36 -->
<g id="node23" class="node">
<title>Node36</title>
<g id="a_node23"><a xlink:href="STLForwardCompat_8h.html" target="_top" xlink:title=" ">
<polygon fill="none" stroke="black" points="1362.09,-112.5 1362.09,-131.5 1530.09,-131.5 1530.09,-112.5 1362.09,-112.5"/>
<text text-anchor="middle" x="1446.09" y="-119.5" font-family="Helvetica,sans-Serif" font-size="10.00">llvm/ADT/STLForwardCompat.h</text>
</a>
</g>
</g>
<!-- Node34&#45;&gt;Node36 -->
<g id="edge40" class="edge">
<title>Node34&#45;&gt;Node36</title>
<path fill="none" stroke="midnightblue" d="M1153.59,-229.91C1209.12,-209.62 1348.61,-158.63 1412.81,-135.16"/>
<polygon fill="midnightblue" stroke="midnightblue" points="1414.25,-138.36 1422.44,-131.64 1411.85,-131.79 1414.25,-138.36"/>
</g>
<!-- Node38 -->
<g id="node24" class="node">
<title>Node38</title>
<g id="a_node24"><a xlink:href="STLFunctionalExtras_8h.html" target="_top" xlink:title=" ">
<polygon fill="none" stroke="black" points="1424.09,-168.5 1424.09,-187.5 1596.09,-187.5 1596.09,-168.5 1424.09,-168.5"/>
<text text-anchor="middle" x="1510.09" y="-175.5" font-family="Helvetica,sans-Serif" font-size="10.00">llvm/ADT/STLFunctionalExtras.h</text>
</a>
</g>
</g>
<!-- Node34&#45;&gt;Node38 -->
<g id="edge41" class="edge">
<title>Node34&#45;&gt;Node38</title>
<path fill="none" stroke="midnightblue" d="M1172.47,-229.97C1183.11,-227.92 1194.5,-225.8 1205.09,-224 1283.94,-210.57 1374.66,-197.48 1436.53,-188.92"/>
<polygon fill="midnightblue" stroke="midnightblue" points="1437.15,-192.37 1446.58,-187.53 1436.2,-185.43 1437.15,-192.37"/>
</g>
<!-- Node34&#45;&gt;Node15 -->
<g id="edge59" class="edge">
<title>Node34&#45;&gt;Node15</title>
<path fill="none" stroke="midnightblue" d="M1191.16,-237.71C1522.02,-233.35 3088.59,-211.55 3188.09,-188 3231.47,-177.73 3277.47,-152.87 3303.89,-137.04"/>
<polygon fill="midnightblue" stroke="midnightblue" points="3305.98,-139.86 3312.69,-131.66 3302.33,-133.88 3305.98,-139.86"/>
</g>
<!-- Node40 -->
<g id="node26" class="node">
<title>Node40</title>
<g id="a_node26"><a xlink:href="iterator_8h.html" target="_top" xlink:title=" ">
<polygon fill="none" stroke="black" points="410.59,-168.5 410.59,-187.5 519.59,-187.5 519.59,-168.5 410.59,-168.5"/>
<text text-anchor="middle" x="465.09" y="-175.5" font-family="Helvetica,sans-Serif" font-size="10.00">llvm/ADT/iterator.h</text>
</a>
</g>
</g>
<!-- Node34&#45;&gt;Node40 -->
<g id="edge46" class="edge">
<title>Node34&#45;&gt;Node40</title>
<path fill="none" stroke="midnightblue" d="M1069.02,-233.04C943.66,-221.82 658.31,-196.29 529.87,-184.8"/>
<polygon fill="midnightblue" stroke="midnightblue" points="530.06,-181.3 519.79,-183.89 529.43,-188.27 530.06,-181.3"/>
</g>
<!-- Node41 -->
<g id="node27" class="node">
<title>Node41</title>
<g id="a_node27"><a xlink:href="iterator__range_8h.html" target="_top" xlink:title=" ">
<polygon fill="none" stroke="black" points="300.59,-112.5 300.59,-131.5 443.59,-131.5 443.59,-112.5 300.59,-112.5"/>
<text text-anchor="middle" x="372.09" y="-119.5" font-family="Helvetica,sans-Serif" font-size="10.00">llvm/ADT/iterator_range.h</text>
</a>
</g>
</g>
<!-- Node34&#45;&gt;Node41 -->
<g id="edge53" class="edge">
<title>Node34&#45;&gt;Node41</title>
<path fill="none" stroke="midnightblue" d="M1069.06,-235.98C898.64,-228.71 428.3,-207.03 401.09,-188 385.77,-177.29 378.43,-156.54 374.99,-141.35"/>
<polygon fill="midnightblue" stroke="midnightblue" points="378.42,-140.67 373.11,-131.5 371.55,-141.98 378.42,-140.67"/>
</g>
<!-- Node42 -->
<g id="node28" class="node">
<title>Node42</title>
<g id="a_node28"><a xlink:title=" ">
<polygon fill="none" stroke="#bfbfbf" points="842.09,-168.5 842.09,-187.5 988.09,-187.5 988.09,-168.5 842.09,-168.5"/>
<text text-anchor="middle" x="915.09" y="-175.5" font-family="Helvetica,sans-Serif" font-size="10.00">llvm/Config/abi&#45;breaking.h</text>
</a>
</g>
</g>
<!-- Node34&#45;&gt;Node42 -->
<g id="edge54" class="edge">
<title>Node34&#45;&gt;Node42</title>
<path fill="none" stroke="midnightblue" d="M1099.29,-229.98C1061.53,-219.53 997.43,-201.79 955.68,-190.23"/>
<polygon fill="midnightblue" stroke="midnightblue" points="956.41,-186.8 945.84,-187.51 954.54,-193.55 956.41,-186.8"/>
</g>
<!-- Node35&#45;&gt;Node3 -->
<g id="edge31" class="edge">
<title>Node35&#45;&gt;Node3</title>
<path fill="none" stroke="midnightblue" d="M1755.85,-168.08C1762.63,-160.3 1772.64,-148.8 1780.85,-139.37"/>
<polygon fill="midnightblue" stroke="midnightblue" points="1783.55,-141.59 1787.48,-131.75 1778.27,-137 1783.55,-141.59"/>
</g>
<!-- Node35&#45;&gt;Node10 -->
<g id="edge35" class="edge">
<title>Node35&#45;&gt;Node10</title>
<path fill="none" stroke="midnightblue" d="M1805.98,-168.56C1855.91,-160.76 1929.78,-147.98 1993.09,-132 2099.53,-105.14 2120.09,-75.64 2228.09,-56 2396.02,-25.46 2910.14,-14.96 3106.63,-12"/>
<polygon fill="midnightblue" stroke="midnightblue" points="3106.92,-15.49 3116.87,-11.85 3106.82,-8.5 3106.92,-15.49"/>
</g>
<!-- Node35&#45;&gt;Node18 -->
<g id="edge36" class="edge">
<title>Node35&#45;&gt;Node18</title>
<path fill="none" stroke="midnightblue" d="M1794.88,-168.42C1817.72,-161.99 1843.9,-150.9 1861.09,-132 1872.58,-119.37 1877.15,-100.16 1878.95,-85.9"/>
<polygon fill="midnightblue" stroke="midnightblue" points="1882.45,-86.01 1879.88,-75.74 1875.48,-85.37 1882.45,-86.01"/>
</g>
<!-- Node35&#45;&gt;Node19 -->
<g id="edge39" class="edge">
<title>Node35&#45;&gt;Node19</title>
<path fill="none" stroke="midnightblue" d="M1722.16,-168.43C1682.79,-155.54 1605.49,-130.67 1539.09,-112 1403.02,-73.73 1239.05,-34.58 1170.59,-18.55"/>
<polygon fill="midnightblue" stroke="midnightblue" points="1171.35,-15.13 1160.82,-16.26 1169.76,-21.95 1171.35,-15.13"/>
</g>
<!-- Node35&#45;&gt;Node21 -->
<g id="edge37" class="edge">
<title>Node35&#45;&gt;Node21</title>
<path fill="none" stroke="midnightblue" d="M1773.41,-168.4C1799.99,-159.36 1842.99,-144.72 1880.09,-132 1905.89,-123.16 1911.34,-117.29 1938.09,-112 2081.53,-83.64 2540.15,-70.94 2672.82,-67.8"/>
<polygon fill="midnightblue" stroke="midnightblue" points="2672.95,-71.3 2682.87,-67.57 2672.79,-64.3 2672.95,-71.3"/>
</g>
<!-- Node35&#45;&gt;Node25 -->
<g id="edge32" class="edge">
<title>Node35&#45;&gt;Node25</title>
<path fill="none" stroke="midnightblue" d="M1690.35,-173.22C1664.31,-171.55 1633.16,-169.61 1605.09,-168 1296.3,-150.29 1218.28,-158.2 910.09,-132 904.93,-131.56 899.58,-131.05 894.21,-130.49"/>
<polygon fill="midnightblue" stroke="midnightblue" points="894.24,-126.97 883.92,-129.38 893.49,-133.93 894.24,-126.97"/>
</g>
<!-- Node35&#45;&gt;Node33 -->
<g id="edge38" class="edge">
<title>Node35&#45;&gt;Node33</title>
<path fill="none" stroke="midnightblue" d="M1784.13,-168.48C1821.27,-159.64 1880.83,-145.26 1932.09,-132 1933.53,-131.63 1935,-131.24 1936.49,-130.85"/>
<polygon fill="midnightblue" stroke="midnightblue" points="1937.52,-134.2 1946.27,-128.23 1935.7,-127.44 1937.52,-134.2"/>
</g>
<!-- Node35&#45;&gt;Node36 -->
<g id="edge33" class="edge">
<title>Node35&#45;&gt;Node36</title>
<path fill="none" stroke="midnightblue" d="M1700.24,-168.44C1646.89,-158.9 1560.65,-143.48 1503.66,-133.29"/>
<polygon fill="midnightblue" stroke="midnightblue" points="1504.18,-129.83 1493.72,-131.52 1502.95,-136.72 1504.18,-129.83"/>
</g>
<!-- Node36&#45;&gt;Node16 -->
<g id="edge34" class="edge">
<title>Node36&#45;&gt;Node16</title>
<path fill="none" stroke="midnightblue" d="M1462.82,-112.42C1490.73,-98.47 1548.91,-70.92 1601.09,-56 1681.75,-32.94 1779.12,-20.61 1834.9,-14.96"/>
<polygon fill="midnightblue" stroke="midnightblue" points="1835.55,-18.42 1845.15,-13.95 1834.86,-11.45 1835.55,-18.42"/>
</g>
<!-- Node38&#45;&gt;Node16 -->
<g id="edge43" class="edge">
<title>Node38&#45;&gt;Node16</title>
<path fill="none" stroke="midnightblue" d="M1423.95,-168.89C1375.45,-160.7 1329,-144.36 1353.09,-112 1410.6,-34.75 1718.98,-16.4 1835.48,-12.2"/>
<polygon fill="midnightblue" stroke="midnightblue" points="1835.62,-15.7 1845.5,-11.86 1835.38,-8.7 1835.62,-15.7"/>
</g>
<!-- Node38&#45;&gt;Node19 -->
<g id="edge44" class="edge">
<title>Node38&#45;&gt;Node19</title>
<path fill="none" stroke="midnightblue" d="M1442.54,-168.43C1410.28,-162.05 1372.23,-151 1342.09,-132 1304.49,-108.3 1314.07,-80.66 1277.09,-56 1244.34,-34.16 1200.21,-22.26 1170.54,-16.28"/>
<polygon fill="midnightblue" stroke="midnightblue" points="1171.17,-12.83 1160.69,-14.4 1169.86,-19.71 1171.17,-12.83"/>
</g>
<!-- Node38&#45;&gt;Node36 -->
<g id="edge42" class="edge">
<title>Node38&#45;&gt;Node36</title>
<path fill="none" stroke="midnightblue" d="M1499.81,-168.32C1490.26,-160.26 1475.81,-148.08 1464.31,-138.37"/>
<polygon fill="midnightblue" stroke="midnightblue" points="1466.46,-135.61 1456.56,-131.83 1461.95,-140.96 1466.46,-135.61"/>
</g>
<!-- Node38&#45;&gt;Node15 -->
<g id="edge45" class="edge">
<title>Node38&#45;&gt;Node15</title>
<path fill="none" stroke="midnightblue" d="M1596.25,-172.07C1623.68,-170.61 1654.16,-169.11 1682.09,-168 2327.61,-142.28 3116.31,-126.87 3290.83,-123.64"/>
<polygon fill="midnightblue" stroke="midnightblue" points="3291.04,-127.14 3300.97,-123.45 3290.91,-120.14 3291.04,-127.14"/>
</g>
<!-- Node40&#45;&gt;Node16 -->
<g id="edge51" class="edge">
<title>Node40&#45;&gt;Node16</title>
<path fill="none" stroke="midnightblue" d="M472.29,-168.25C483.96,-154.54 508.34,-127.94 534.09,-112 595.31,-74.11 615.47,-69.97 686.09,-56 800.29,-33.41 1632.23,-15.84 1835.42,-11.85"/>
<polygon fill="midnightblue" stroke="midnightblue" points="1835.51,-15.35 1845.44,-11.66 1835.37,-8.35 1835.51,-15.35"/>
</g>
<!-- Node40&#45;&gt;Node19 -->
<g id="edge52" class="edge">
<title>Node40&#45;&gt;Node19</title>
<path fill="none" stroke="midnightblue" d="M464.25,-168.23C462.62,-145.52 461.78,-84.61 496.09,-56 543.15,-16.76 980.93,-11.73 1105.29,-11.09"/>
<polygon fill="midnightblue" stroke="midnightblue" points="1105.36,-14.59 1115.35,-11.04 1105.33,-7.59 1105.36,-14.59"/>
</g>
<!-- Node40&#45;&gt;Node14 -->
<g id="edge49" class="edge">
<title>Node40&#45;&gt;Node14</title>
<path fill="none" stroke="midnightblue" d="M519.65,-175.66C591.5,-173.9 721.77,-170.71 833.09,-168 1494.42,-151.91 1659.99,-155.82 2321.09,-132 2373.63,-130.11 2434.38,-127.04 2472.27,-125.02"/>
<polygon fill="midnightblue" stroke="midnightblue" points="2472.53,-128.51 2482.33,-124.48 2472.15,-121.52 2472.53,-128.51"/>
</g>
<!-- Node40&#45;&gt;Node30 -->
<g id="edge50" class="edge">
<title>Node40&#45;&gt;Node30</title>
<path fill="none" stroke="midnightblue" d="M425.8,-168.44C378.43,-158.13 299.49,-140.94 253.47,-130.92"/>
<polygon fill="midnightblue" stroke="midnightblue" points="254.14,-127.48 243.62,-128.78 252.65,-134.32 254.14,-127.48"/>
</g>
<!-- Node40&#45;&gt;Node41 -->
<g id="edge47" class="edge">
<title>Node40&#45;&gt;Node41</title>
<path fill="none" stroke="midnightblue" d="M450.15,-168.32C435.51,-159.82 412.96,-146.73 395.85,-136.8"/>
<polygon fill="midnightblue" stroke="midnightblue" points="397.4,-133.65 387,-131.65 393.89,-139.7 397.4,-133.65"/>
</g>
<!-- Node41&#45;&gt;Node19 -->
<g id="edge48" class="edge">
<title>Node41&#45;&gt;Node19</title>
<path fill="none" stroke="midnightblue" d="M380.09,-112.28C394.2,-97.58 425.12,-68.28 458.09,-56 578.78,-11.04 985.97,-10 1105.1,-10.7"/>
<polygon fill="midnightblue" stroke="midnightblue" points="1105.37,-14.2 1115.39,-10.77 1105.42,-7.2 1105.37,-14.2"/>
</g>
<!-- Node45&#45;&gt;Node10 -->
<g id="edge85" class="edge">
<title>Node45&#45;&gt;Node10</title>
<path fill="none" stroke="midnightblue" d="M2298.2,-235.49C2500.23,-225.15 3151.09,-191.6 3155.09,-188 3200.04,-147.64 3193.52,-66.8 3187.72,-30.01"/>
<polygon fill="midnightblue" stroke="midnightblue" points="3191.09,-28.98 3185.93,-19.72 3184.2,-30.18 3191.09,-28.98"/>
</g>
<!-- Node45&#45;&gt;Node16 -->
<g id="edge92" class="edge">
<title>Node45&#45;&gt;Node16</title>
<path fill="none" stroke="midnightblue" d="M2241.83,-229.89C2246.9,-215.22 2259.1,-185.32 2279.09,-168 2312.28,-139.25 2342.09,-164.97 2371.09,-132 2393.78,-106.21 2408.28,-81.34 2385.09,-56 2354.31,-22.35 2042.4,-13.69 1924.72,-11.61"/>
<polygon fill="midnightblue" stroke="midnightblue" points="1924.66,-8.11 1914.6,-11.44 1924.54,-15.11 1924.66,-8.11"/>
</g>
<!-- Node45&#45;&gt;Node19 -->
<g id="edge93" class="edge">
<title>Node45&#45;&gt;Node19</title>
<path fill="none" stroke="midnightblue" d="M2180.07,-238.89C2010.25,-239.41 1522.89,-236.5 1372.09,-188 1283.47,-159.5 1265.84,-136.51 1195.09,-76 1178.06,-61.44 1161.51,-41.75 1150.67,-27.87"/>
<polygon fill="midnightblue" stroke="midnightblue" points="1153.28,-25.52 1144.42,-19.7 1147.72,-29.77 1153.28,-25.52"/>
</g>
<!-- Node45&#45;&gt;Node20 -->
<g id="edge86" class="edge">
<title>Node45&#45;&gt;Node20</title>
<path fill="none" stroke="midnightblue" d="M2179.9,-238.32C2015.94,-237.26 1558.53,-230.49 1415.09,-188 1390.86,-180.82 1336.97,-146.24 1316.09,-132 1293.39,-116.52 1269.14,-96.22 1253.36,-82.46"/>
<polygon fill="midnightblue" stroke="midnightblue" points="1255.35,-79.54 1245.54,-75.55 1250.72,-84.79 1255.35,-79.54"/>
</g>
<!-- Node45&#45;&gt;Node21 -->
<g id="edge87" class="edge">
<title>Node45&#45;&gt;Node21</title>
<path fill="none" stroke="midnightblue" d="M2245.52,-229.75C2256.89,-214.89 2282.03,-184.7 2310.09,-168 2357.95,-139.53 2377.96,-151.57 2430.09,-132 2450.2,-124.45 2453.62,-118.51 2474.09,-112 2542.73,-90.17 2626.19,-77.27 2672.91,-71.21"/>
<polygon fill="midnightblue" stroke="midnightblue" points="2673.38,-74.68 2682.86,-69.96 2672.5,-67.74 2673.38,-74.68"/>
</g>
<!-- Node45&#45;&gt;Node22 -->
<g id="edge89" class="edge">
<title>Node45&#45;&gt;Node22</title>
<path fill="none" stroke="midnightblue" d="M2235.5,-229.68C2230.26,-215.23 2222.53,-186.31 2236.09,-168 2268.72,-123.93 2321.47,-176.07 2354.09,-132 2363.95,-118.69 2361.53,-99.3 2357.67,-85.17"/>
<polygon fill="midnightblue" stroke="midnightblue" points="2360.98,-84.03 2354.61,-75.57 2354.31,-86.16 2360.98,-84.03"/>
</g>
<!-- Node45&#45;&gt;Node23 -->
<g id="edge91" class="edge">
<title>Node45&#45;&gt;Node23</title>
<path fill="none" stroke="midnightblue" d="M2180,-236.86C2002.47,-231.7 1475.68,-214.5 1306.09,-188 1164.91,-165.94 1004.22,-105.44 938.97,-79.3"/>
<polygon fill="midnightblue" stroke="midnightblue" points="940.28,-76.05 929.69,-75.56 937.66,-82.54 940.28,-76.05"/>
</g>
<!-- Node45&#45;&gt;Node14 -->
<g id="edge88" class="edge">
<title>Node45&#45;&gt;Node14</title>
<path fill="none" stroke="midnightblue" d="M2250.14,-229.93C2269.42,-215.34 2310.92,-185.53 2350.09,-168 2371.95,-158.22 2432.93,-142.05 2472.71,-131.99"/>
<polygon fill="midnightblue" stroke="midnightblue" points="2473.73,-135.35 2482.57,-129.51 2472.02,-128.56 2473.73,-135.35"/>
</g>
<!-- Node45&#45;&gt;Node31 -->
<g id="edge90" class="edge">
<title>Node45&#45;&gt;Node31</title>
<path fill="none" stroke="midnightblue" d="M2227.65,-229.93C2211.22,-216.56 2184.37,-189.98 2198.09,-168 2205.04,-156.86 2234.58,-143.6 2258.34,-134.37"/>
<polygon fill="midnightblue" stroke="midnightblue" points="2259.65,-137.62 2267.76,-130.8 2257.17,-131.08 2259.65,-137.62"/>
</g>
<!-- Node45&#45;&gt;Node38 -->
<g id="edge83" class="edge">
<title>Node45&#45;&gt;Node38</title>
<path fill="none" stroke="midnightblue" d="M2180.05,-233.68C2054.47,-223.43 1759.84,-199.38 1606.56,-186.87"/>
<polygon fill="midnightblue" stroke="midnightblue" points="1606.47,-183.35 1596.22,-186.03 1605.9,-190.33 1606.47,-183.35"/>
</g>
<!-- Node45&#45;&gt;Node41 -->
<g id="edge84" class="edge">
<title>Node45&#45;&gt;Node41</title>
<path fill="none" stroke="midnightblue" d="M2179.82,-238.1C2016.1,-236.48 1544,-228.39 1154.09,-188 1098.57,-182.25 1085.55,-174.36 1030.09,-168 823.46,-144.32 578.78,-131.59 454.08,-126.19"/>
<polygon fill="midnightblue" stroke="midnightblue" points="453.99,-122.68 443.85,-125.75 453.69,-129.68 453.99,-122.68"/>
</g>
<!-- Node46 -->
<g id="node32" class="node">
<title>Node46</title>
<g id="a_node32"><a xlink:href="DenseMapInfo_8h.html" target="_top" xlink:title=" ">
<polygon fill="none" stroke="red" points="2468.09,-168.5 2468.09,-187.5 2612.09,-187.5 2612.09,-168.5 2468.09,-168.5"/>
<text text-anchor="middle" x="2540.09" y="-175.5" font-family="Helvetica,sans-Serif" font-size="10.00">llvm/ADT/DenseMapInfo.h</text>
</a>
</g>
</g>
<!-- Node45&#45;&gt;Node46 -->
<g id="edge78" class="edge">
<title>Node45&#45;&gt;Node46</title>
<path fill="none" stroke="midnightblue" d="M2282.22,-229.98C2336.2,-219.3 2428.63,-201.03 2486.93,-189.51"/>
<polygon fill="midnightblue" stroke="midnightblue" points="2487.92,-192.88 2497.05,-187.51 2486.56,-186.01 2487.92,-192.88"/>
</g>
<!-- Node46&#45;&gt;Node19 -->
<g id="edge82" class="edge">
<title>Node46&#45;&gt;Node19</title>
<path fill="none" stroke="midnightblue" d="M2468.06,-175.41C2297.06,-171.24 1870.49,-158.44 1730.09,-132 1702.05,-126.72 1696.56,-119.72 1669.09,-112 1564.48,-82.6 1537.77,-76.71 1431.09,-56 1337.08,-37.75 1224.92,-22.25 1170.67,-15.15"/>
<polygon fill="midnightblue" stroke="midnightblue" points="1170.99,-11.66 1160.62,-13.84 1170.08,-18.6 1170.99,-11.66"/>
</g>
<!-- Node46&#45;&gt;Node21 -->
<g id="edge79" class="edge">
<title>Node46&#45;&gt;Node21</title>
<path fill="none" stroke="midnightblue" d="M2550.32,-168.47C2566.07,-155.51 2597.45,-130.44 2626.09,-112 2644.3,-100.28 2665.81,-88.68 2682.37,-80.19"/>
<polygon fill="midnightblue" stroke="midnightblue" points="2684.15,-83.21 2691.49,-75.57 2680.99,-76.97 2684.15,-83.21"/>
</g>
<!-- Node46&#45;&gt;Node14 -->
<g id="edge80" class="edge">
<title>Node46&#45;&gt;Node14</title>
<path fill="none" stroke="midnightblue" d="M2534.97,-168.08C2530.69,-160.61 2524.43,-149.72 2519.15,-140.52"/>
<polygon fill="midnightblue" stroke="midnightblue" points="2522.13,-138.68 2514.12,-131.75 2516.06,-142.17 2522.13,-138.68"/>
</g>
<!-- Node46&#45;&gt;Node15 -->
<g id="edge81" class="edge">
<title>Node46&#45;&gt;Node15</title>
<path fill="none" stroke="midnightblue" d="M2612.28,-172.04C2776.03,-160.79 3170.73,-133.67 3290.83,-125.42"/>
<polygon fill="midnightblue" stroke="midnightblue" points="3291.2,-128.91 3300.94,-124.73 3290.72,-121.92 3291.2,-128.91"/>
</g>
<!-- Node47&#45;&gt;Node45 -->
<g id="edge95" class="edge">
<title>Node47&#45;&gt;Node45</title>
<path fill="none" stroke="midnightblue" d="M3026.74,-593.45C2895.76,-534.76 2393.35,-309.63 2267.71,-253.32"/>
<polygon fill="midnightblue" stroke="midnightblue" points="2268.9,-250.02 2258.34,-249.13 2266.04,-256.41 2268.9,-250.02"/>
</g>
<!-- Node48 -->
<g id="node34" class="node">
<title>Node48</title>
<g id="a_node34"><a xlink:href="CVRecord_8h.html" target="_top" xlink:title=" ">
<polygon fill="none" stroke="red" points="2684.59,-526.5 2684.59,-556.5 2827.59,-556.5 2827.59,-526.5 2684.59,-526.5"/>
<text text-anchor="start" x="2692.59" y="-544.5" font-family="Helvetica,sans-Serif" font-size="10.00">llvm/DebugInfo/CodeView</text>
<text text-anchor="middle" x="2756.09" y="-533.5" font-family="Helvetica,sans-Serif" font-size="10.00">/CVRecord.h</text>
</a>
</g>
</g>
<!-- Node47&#45;&gt;Node48 -->
<g id="edge96" class="edge">
<title>Node47&#45;&gt;Node48</title>
<path fill="none" stroke="midnightblue" d="M2992.93,-593.48C2945.49,-583.26 2881.1,-569.41 2831.44,-558.72"/>
<polygon fill="midnightblue" stroke="midnightblue" points="2831.91,-555.24 2821.39,-556.55 2830.43,-562.08 2831.91,-555.24"/>
</g>
<!-- Node47&#45;&gt;Node83 -->
<g id="edge147" class="edge">
<title>Node47&#45;&gt;Node83</title>
<path fill="none" stroke="midnightblue" d="M3089.11,-593.34C3147.9,-565.67 3278.07,-500.29 3372.09,-423 3432.74,-373.15 3490.46,-299.85 3517.72,-263.17"/>
<polygon fill="midnightblue" stroke="midnightblue" points="3520.87,-264.79 3523.98,-254.66 3515.24,-260.64 3520.87,-264.79"/>
</g>
<!-- Node48&#45;&gt;Node2 -->
<g id="edge97" class="edge">
<title>Node48&#45;&gt;Node2</title>
<path fill="none" stroke="midnightblue" d="M2684.43,-536.98C2323.85,-519.2 724.32,-439.47 705.09,-423 676.19,-398.23 685.67,-347.97 693.7,-320.67"/>
<polygon fill="midnightblue" stroke="midnightblue" points="697.13,-321.41 696.83,-310.82 690.46,-319.29 697.13,-321.41"/>
</g>
<!-- Node48&#45;&gt;Node15 -->
<g id="edge146" class="edge">
<title>Node48&#45;&gt;Node15</title>
<path fill="none" stroke="midnightblue" d="M2827.62,-533.58C2963.95,-519.17 3254.48,-482.29 3334.09,-423 3416.92,-361.31 3389.35,-304.47 3454.09,-224 3472.95,-200.57 3510.37,-191.89 3492.09,-168 3476.3,-147.36 3405.25,-133.99 3361.38,-127.54"/>
<polygon fill="midnightblue" stroke="midnightblue" points="3361.79,-124.06 3351.4,-126.12 3360.81,-130.99 3361.79,-124.06"/>
</g>
<!-- Node78 -->
<g id="node35" class="node">
<title>Node78</title>
<g id="a_node35"><a xlink:href="BinaryStreamRef_8h.html" target="_top" xlink:title=" ">
<polygon fill="none" stroke="red" points="2055.59,-459.5 2055.59,-489.5 2204.59,-489.5 2204.59,-459.5 2055.59,-459.5"/>
<text text-anchor="start" x="2063.59" y="-477.5" font-family="Helvetica,sans-Serif" font-size="10.00">llvm/Support/BinaryStream</text>
<text text-anchor="middle" x="2130.09" y="-466.5" font-family="Helvetica,sans-Serif" font-size="10.00">Ref.h</text>
</a>
</g>
</g>
<!-- Node48&#45;&gt;Node78 -->
<g id="edge98" class="edge">
<title>Node48&#45;&gt;Node78</title>
<path fill="none" stroke="midnightblue" d="M2684.59,-533.08C2568.51,-521.02 2339.57,-497.25 2215.26,-484.34"/>
<polygon fill="midnightblue" stroke="midnightblue" points="2215.34,-480.83 2205.03,-483.28 2214.61,-487.79 2215.34,-480.83"/>
</g>
<!-- Node48&#45;&gt;Node56 -->
<g id="edge145" class="edge">
<title>Node48&#45;&gt;Node56</title>
<path fill="none" stroke="midnightblue" d="M2713.48,-526.42C2657.51,-508.41 2555.92,-477.36 2467.09,-459 2374.31,-439.82 2265.39,-427 2197.05,-420.11"/>
<polygon fill="midnightblue" stroke="midnightblue" points="2197.15,-416.6 2186.85,-419.09 2196.46,-423.57 2197.15,-416.6"/>
</g>
<!-- Node51 -->
<g id="node42" class="node">
<title>Node51</title>
<g id="a_node42"><a xlink:href="Endian_8h.html" target="_top" xlink:title=" ">
<polygon fill="none" stroke="red" points="3022.09,-168.5 3022.09,-187.5 3146.09,-187.5 3146.09,-168.5 3022.09,-168.5"/>
<text text-anchor="middle" x="3084.09" y="-175.5" font-family="Helvetica,sans-Serif" font-size="10.00">llvm/Support/Endian.h</text>
</a>
</g>
</g>
<!-- Node48&#45;&gt;Node51 -->
<g id="edge138" class="edge">
<title>Node48&#45;&gt;Node51</title>
<path fill="none" stroke="midnightblue" d="M2827.84,-529.06C2963.48,-505.38 3244.09,-445.8 3244.09,-358 3244.09,-358 3244.09,-358 3244.09,-300 3244.09,-240.82 3173.61,-206.9 3126.2,-190.77"/>
<polygon fill="midnightblue" stroke="midnightblue" points="3127.06,-187.37 3116.47,-187.6 3124.89,-194.03 3127.06,-187.37"/>
</g>
<!-- Node78&#45;&gt;Node2 -->
<g id="edge99" class="edge">
<title>Node78&#45;&gt;Node2</title>
<path fill="none" stroke="midnightblue" d="M2055.12,-473.36C1771.16,-472.51 775.09,-466.43 724.09,-423 694.7,-397.97 694.8,-348.2 697.43,-320.94"/>
<polygon fill="midnightblue" stroke="midnightblue" points="700.94,-321.11 698.64,-310.77 693.99,-320.29 700.94,-321.11"/>
</g>
<!-- Node78&#45;&gt;Node32 -->
<g id="edge137" class="edge">
<title>Node78&#45;&gt;Node32</title>
<path fill="none" stroke="midnightblue" d="M2055.45,-471.93C1781.23,-466.01 838.55,-444.29 705.09,-423 476.92,-386.59 375.96,-418.9 213.09,-255 179.84,-221.54 158.51,-169 148.94,-141.38"/>
<polygon fill="midnightblue" stroke="midnightblue" points="152.23,-140.18 145.75,-131.8 145.59,-142.4 152.23,-140.18"/>
</g>
<!-- Node78&#45;&gt;Node35 -->
<g id="edge100" class="edge">
<title>Node78&#45;&gt;Node35</title>
<path fill="none" stroke="midnightblue" d="M2073.01,-459.47C2017.5,-443.76 1932.89,-414.13 1872.09,-367 1811.34,-319.91 1770.77,-234.27 1755.21,-197.07"/>
<polygon fill="midnightblue" stroke="midnightblue" points="1758.35,-195.49 1751.34,-187.55 1751.86,-198.13 1758.35,-195.49"/>
</g>
<!-- Node78&#45;&gt;Node15 -->
<g id="edge136" class="edge">
<title>Node78&#45;&gt;Node15</title>
<path fill="none" stroke="midnightblue" d="M2204.76,-472.04C2363.16,-467.4 2743.45,-447.99 3050.09,-367 3166.24,-336.32 3200.96,-328.36 3296.09,-255 3327.28,-230.95 3340.34,-224.91 3354.09,-188 3360.3,-171.35 3350.56,-152.77 3340.9,-139.75"/>
<polygon fill="midnightblue" stroke="midnightblue" points="3343.43,-137.31 3334.43,-131.72 3337.98,-141.7 3343.43,-137.31"/>
</g>
<!-- Node78&#45;&gt;Node56 -->
<g id="edge101" class="edge">
<title>Node78&#45;&gt;Node56</title>
<path fill="none" stroke="midnightblue" d="M2130.09,-459.4C2130.09,-451.47 2130.09,-441.46 2130.09,-432.86"/>
<polygon fill="midnightblue" stroke="midnightblue" points="2133.59,-432.66 2130.09,-422.66 2126.59,-432.66 2133.59,-432.66"/>
</g>
<!-- Node56&#45;&gt;Node9 -->
<g id="edge127" class="edge">
<title>Node56&#45;&gt;Node9</title>
<path fill="none" stroke="midnightblue" d="M2186.94,-410.84C2455.53,-404.77 3588.61,-372.3 3687.09,-255 3729.93,-203.97 3697.89,-148.42 3642.09,-112 3615.78,-94.82 3583.26,-84.2 3553.42,-77.63"/>
<polygon fill="midnightblue" stroke="midnightblue" points="3553.92,-74.16 3543.42,-75.55 3552.5,-81.01 3553.92,-74.16"/>
</g>
<!-- Node56&#45;&gt;Node10 -->
<g id="edge125" class="edge">
<title>Node56&#45;&gt;Node10</title>
<path fill="none" stroke="midnightblue" d="M2186.64,-412.52C2427.87,-414.1 3370.93,-413.46 3646.09,-311 3747.82,-273.12 3787.75,-271.51 3857.09,-188 3894.58,-142.86 3905.33,-92.12 3859.09,-56 3812.94,-19.95 3428.98,-12.76 3261.6,-11.34"/>
<polygon fill="midnightblue" stroke="midnightblue" points="3261.4,-7.84 3251.38,-11.26 3261.35,-14.84 3261.4,-7.84"/>
</g>
<!-- Node56&#45;&gt;Node16 -->
<g id="edge133" class="edge">
<title>Node56&#45;&gt;Node16</title>
<path fill="none" stroke="midnightblue" d="M2186.95,-411.63C2423.11,-409.55 3326.97,-396.09 3597.09,-311 3650.17,-294.28 3678.09,-301.22 3709.09,-255 3730.67,-222.83 3727.15,-204.46 3714.09,-168 3684.95,-86.62 3638.98,-76.84 3555.09,-56 3393.06,-15.75 2174.56,-11.5 1924.76,-11.05"/>
<polygon fill="midnightblue" stroke="midnightblue" points="1924.61,-7.55 1914.6,-11.04 1924.6,-14.55 1924.61,-7.55"/>
</g>
<!-- Node56&#45;&gt;Node19 -->
<g id="edge134" class="edge">
<title>Node56&#45;&gt;Node19</title>
<path fill="none" stroke="midnightblue" d="M2073.41,-412.36C1823.75,-413.63 820.74,-415.57 510.09,-367 297.61,-333.78 158.08,-335.01 87.09,-132 70.04,-83.22 125.83,-71.6 175.09,-56 265.27,-27.44 947.08,-14.23 1105.35,-11.53"/>
<polygon fill="midnightblue" stroke="midnightblue" points="1105.48,-15.03 1115.42,-11.36 1105.36,-8.03 1105.48,-15.03"/>
</g>
<!-- Node56&#45;&gt;Node21 -->
<g id="edge128" class="edge">
<title>Node56&#45;&gt;Node21</title>
<path fill="none" stroke="midnightblue" d="M2186.74,-410.59C2353.42,-406.19 2834.69,-391.47 2901.09,-367 2939.79,-352.74 2956.73,-347.93 2975.09,-311 3020.38,-219.93 2948.05,-166.37 2862.09,-112 2842.65,-99.7 2784,-84.41 2745.22,-75.19"/>
<polygon fill="midnightblue" stroke="midnightblue" points="2745.88,-71.75 2735.34,-72.87 2744.28,-78.57 2745.88,-71.75"/>
</g>
<!-- Node56&#45;&gt;Node23 -->
<g id="edge132" class="edge">
<title>Node56&#45;&gt;Node23</title>
<path fill="none" stroke="midnightblue" d="M2073.43,-411.58C1796.4,-408.86 594.39,-389.33 507.09,-255 465.79,-191.44 562.76,-181.96 752.09,-112 794.57,-96.3 845.16,-82.68 877.2,-74.65"/>
<polygon fill="midnightblue" stroke="midnightblue" points="878.05,-78.04 886.92,-72.24 876.37,-71.25 878.05,-78.04"/>
</g>
<!-- Node56&#45;&gt;Node26 -->
<g id="edge103" class="edge">
<title>Node56&#45;&gt;Node26</title>
<path fill="none" stroke="midnightblue" d="M2073.49,-405.25C2026.07,-398.36 1963.56,-385.96 1947.09,-367 1905.18,-318.74 1916.06,-235.04 1923.65,-197.8"/>
<polygon fill="midnightblue" stroke="midnightblue" points="1927.12,-198.34 1925.84,-187.82 1920.28,-196.84 1927.12,-198.34"/>
</g>
<!-- Node56&#45;&gt;Node32 -->
<g id="edge130" class="edge">
<title>Node56&#45;&gt;Node32</title>
<path fill="none" stroke="midnightblue" d="M2073.58,-412.56C1886.34,-413.9 1269.32,-414.19 762.09,-367 680.6,-359.42 473.79,-342.11 398.09,-311 337.16,-285.96 333.06,-260.31 278.09,-224 252.15,-206.86 243.27,-206.25 218.09,-188 196.67,-172.47 173.96,-152.18 159.22,-138.43"/>
<polygon fill="midnightblue" stroke="midnightblue" points="161.58,-135.85 151.91,-131.54 156.78,-140.95 161.58,-135.85"/>
</g>
<!-- Node56&#45;&gt;Node33 -->
<g id="edge131" class="edge">
<title>Node56&#45;&gt;Node33</title>
<path fill="none" stroke="midnightblue" d="M2076.83,-403.44C1991.61,-388.23 1834.09,-353.19 1834.09,-302 1834.09,-302 1834.09,-302 1834.09,-238.5 1834.09,-205.93 1832.35,-192.25 1854.09,-168 1865.46,-155.33 1907.67,-140.46 1936.64,-131.39"/>
<polygon fill="midnightblue" stroke="midnightblue" points="1937.73,-134.72 1946.26,-128.44 1935.67,-128.02 1937.73,-134.72"/>
</g>
<!-- Node56&#45;&gt;Node15 -->
<g id="edge129" class="edge">
<title>Node56&#45;&gt;Node15</title>
<path fill="none" stroke="midnightblue" d="M2186.84,-411.85C2355.45,-410.96 2851.44,-405.08 3008.09,-367 3066.66,-352.76 3203.7,-286.48 3255.09,-255 3295.82,-230.06 3318.37,-231.03 3339.09,-188 3346.25,-173.13 3341.31,-154.51 3335.58,-141.02"/>
<polygon fill="midnightblue" stroke="midnightblue" points="3338.67,-139.39 3331.23,-131.85 3332.35,-142.39 3338.67,-139.39"/>
</g>
<!-- Node56&#45;&gt;Node42 -->
<g id="edge122" class="edge">
<title>Node56&#45;&gt;Node42</title>
<path fill="none" stroke="midnightblue" d="M2073.44,-410.22C1930.2,-404.75 1542.64,-383.82 1229.09,-311 1152.02,-293.1 1132.93,-285.91 1060.09,-255 1015.67,-236.15 966.38,-208.87 938.23,-192.63"/>
<polygon fill="midnightblue" stroke="midnightblue" points="939.93,-189.58 929.53,-187.58 936.42,-195.63 939.93,-189.58"/>
</g>
<!-- Node56&#45;&gt;Node44 -->
<g id="edge135" class="edge">
<title>Node56&#45;&gt;Node44</title>
<path fill="none" stroke="midnightblue" d="M2073.33,-411.86C1832.19,-411.05 891.61,-405.44 598.09,-367 596.41,-366.78 361.66,-311.65 360.09,-311 324.38,-296.22 287.01,-270.93 265.18,-255"/>
<polygon fill="midnightblue" stroke="midnightblue" points="267.2,-252.15 257.08,-249 263.03,-257.77 267.2,-252.15"/>
</g>
<!-- Node57 -->
<g id="node37" class="node">
<title>Node57</title>
<g id="a_node37"><a xlink:href="c_2Error_8h.html" target="_top" xlink:title=" ">
<polygon fill="none" stroke="red" points="1956.09,-347.5 1956.09,-366.5 2038.09,-366.5 2038.09,-347.5 1956.09,-347.5"/>
<text text-anchor="middle" x="1997.09" y="-354.5" font-family="Helvetica,sans-Serif" font-size="10.00">llvm&#45;c/Error.h</text>
</a>
</g>
</g>
<!-- Node56&#45;&gt;Node57 -->
<g id="edge102" class="edge">
<title>Node56&#45;&gt;Node57</title>
<path fill="none" stroke="midnightblue" d="M2109.02,-403.44C2087.03,-394.52 2052.36,-380.44 2027.43,-370.32"/>
<polygon fill="midnightblue" stroke="midnightblue" points="2028.65,-367.04 2018.07,-366.52 2026.02,-373.52 2028.65,-367.04"/>
</g>
<!-- Node59 -->
<g id="node38" class="node">
<title>Node59</title>
<g id="a_node38"><a xlink:href="StringExtras_8h.html" target="_top" xlink:title=" ">
<polygon fill="none" stroke="red" points="2196.59,-347.5 2196.59,-366.5 2329.59,-366.5 2329.59,-347.5 2196.59,-347.5"/>
<text text-anchor="middle" x="2263.09" y="-354.5" font-family="Helvetica,sans-Serif" font-size="10.00">llvm/ADT/StringExtras.h</text>
</a>
</g>
</g>
<!-- Node56&#45;&gt;Node59 -->
<g id="edge104" class="edge">
<title>Node56&#45;&gt;Node59</title>
<path fill="none" stroke="midnightblue" d="M2151.17,-403.44C2173.15,-394.52 2207.83,-380.44 2232.76,-370.32"/>
<polygon fill="midnightblue" stroke="midnightblue" points="2234.17,-373.52 2242.12,-366.52 2231.53,-367.04 2234.17,-373.52"/>
</g>
<!-- Node66 -->
<g id="node39" class="node">
<title>Node66</title>
<g id="a_node39"><a xlink:href="Twine_8h.html" target="_top" xlink:title=" ">
<polygon fill="none" stroke="black" points="2864.59,-291.5 2864.59,-310.5 2965.59,-310.5 2965.59,-291.5 2864.59,-291.5"/>
<text text-anchor="middle" x="2915.09" y="-298.5" font-family="Helvetica,sans-Serif" font-size="10.00">llvm/ADT/Twine.h</text>
</a>
</g>
</g>
<!-- Node56&#45;&gt;Node66 -->
<g id="edge121" class="edge">
<title>Node56&#45;&gt;Node66</title>
<path fill="none" stroke="midnightblue" d="M2186.78,-411.67C2351.14,-410.29 2819.93,-403.2 2878.09,-367 2894.77,-356.62 2904.66,-335.81 2909.96,-320.52"/>
<polygon fill="midnightblue" stroke="midnightblue" points="2913.42,-321.18 2913.03,-310.59 2906.73,-319.11 2913.42,-321.18"/>
</g>
<!-- Node67 -->
<g id="node40" class="node">
<title>Node67</title>
<g id="a_node40"><a xlink:href="AlignOf_8h.html" target="_top" xlink:title=" ">
<polygon fill="none" stroke="black" points="1238.09,-291.5 1238.09,-310.5 1364.09,-310.5 1364.09,-291.5 1238.09,-291.5"/>
<text text-anchor="middle" x="1301.09" y="-298.5" font-family="Helvetica,sans-Serif" font-size="10.00">llvm/Support/AlignOf.h</text>
</a>
</g>
</g>
<!-- Node56&#45;&gt;Node67 -->
<g id="edge123" class="edge">
<title>Node56&#45;&gt;Node67</title>
<path fill="none" stroke="midnightblue" d="M2073.44,-404.48C1927.17,-385.07 1536.95,-333.3 1374.08,-311.69"/>
<polygon fill="midnightblue" stroke="midnightblue" points="1374.53,-308.21 1364.16,-310.37 1373.61,-315.15 1374.53,-308.21"/>
</g>
<!-- Node68 -->
<g id="node41" class="node">
<title>Node68</title>
<g id="a_node41"><a xlink:href="Debug_8h.html" target="_top" xlink:title=" ">
<polygon fill="none" stroke="black" points="2056.09,-347.5 2056.09,-366.5 2178.09,-366.5 2178.09,-347.5 2056.09,-347.5"/>
<text text-anchor="middle" x="2117.09" y="-354.5" font-family="Helvetica,sans-Serif" font-size="10.00">llvm/Support/Debug.h</text>
</a>
</g>
</g>
<!-- Node56&#45;&gt;Node68 -->
<g id="edge126" class="edge">
<title>Node56&#45;&gt;Node68</title>
<path fill="none" stroke="midnightblue" d="M2127.95,-403.08C2126.22,-395.93 2123.75,-385.64 2121.59,-376.69"/>
<polygon fill="midnightblue" stroke="midnightblue" points="2124.94,-375.65 2119.2,-366.75 2118.14,-377.29 2124.94,-375.65"/>
</g>
<!-- Node59&#45;&gt;Node2 -->
<g id="edge105" class="edge">
<title>Node59&#45;&gt;Node2</title>
<path fill="none" stroke="midnightblue" d="M2196.4,-347.77C2193.25,-347.48 2190.14,-347.23 2187.09,-347 1905.73,-326.12 1021.62,-308.11 768.45,-303.27"/>
<polygon fill="midnightblue" stroke="midnightblue" points="768.36,-299.77 758.29,-303.08 768.22,-306.77 768.36,-299.77"/>
</g>
<!-- Node59&#45;&gt;Node19 -->
<g id="edge120" class="edge">
<title>Node59&#45;&gt;Node19</title>
<path fill="none" stroke="midnightblue" d="M2196.4,-347.74C2193.26,-347.46 2190.14,-347.21 2187.09,-347 1827.22,-321.76 921.34,-361.21 564.09,-311 467.16,-297.38 442.69,-289.52 351.09,-255 336.79,-249.61 113.13,-145 105.09,-132 34.33,-17.5 -177.27,-132.99 326.09,-56 625.94,-10.14 994.41,-9.56 1105.13,-10.56"/>
<polygon fill="midnightblue" stroke="midnightblue" points="1105.29,-14.06 1115.32,-10.66 1105.36,-7.06 1105.29,-14.06"/>
</g>
<!-- Node59&#45;&gt;Node21 -->
<g id="edge114" class="edge">
<title>Node59&#45;&gt;Node21</title>
<path fill="none" stroke="midnightblue" d="M2329.68,-354.59C2468.51,-351.09 2779.19,-340.07 2817.09,-311 2869.86,-270.54 2892.51,-226.6 2861.09,-168 2847.33,-142.32 2774.89,-101.41 2735.19,-80.41"/>
<polygon fill="midnightblue" stroke="midnightblue" points="2736.34,-77.06 2725.85,-75.52 2733.09,-83.26 2736.34,-77.06"/>
</g>
<!-- Node59&#45;&gt;Node22 -->
<g id="edge117" class="edge">
<title>Node59&#45;&gt;Node22</title>
<path fill="none" stroke="midnightblue" d="M2248.84,-347.27C2218.2,-327.27 2150.43,-275.9 2171.09,-224 2183.77,-192.16 2195.51,-186.9 2224.09,-168 2262.45,-142.64 2287.35,-163.24 2321.09,-132 2334.47,-119.62 2342.36,-100.1 2346.67,-85.68"/>
<polygon fill="midnightblue" stroke="midnightblue" points="2350.09,-86.41 2349.29,-75.85 2343.33,-84.6 2350.09,-86.41"/>
</g>
<!-- Node59&#45;&gt;Node23 -->
<g id="edge119" class="edge">
<title>Node59&#45;&gt;Node23</title>
<path fill="none" stroke="midnightblue" d="M2196.38,-347.92C2193.24,-347.6 2190.13,-347.29 2187.09,-347 2169.31,-345.31 921.09,-260.51 904.09,-255 819.48,-227.58 711.34,-183.61 764.09,-112 777.53,-93.77 838.26,-79.74 876.74,-72.48"/>
<polygon fill="midnightblue" stroke="midnightblue" points="877.74,-75.86 886.95,-70.62 876.48,-68.97 877.74,-75.86"/>
</g>
<!-- Node59&#45;&gt;Node14 -->
<g id="edge115" class="edge">
<title>Node59&#45;&gt;Node14</title>
<path fill="none" stroke="midnightblue" d="M2270.91,-347.34C2295.87,-319.86 2376.36,-232.64 2450.09,-168 2462.44,-157.17 2477.13,-145.97 2488.76,-137.45"/>
<polygon fill="midnightblue" stroke="midnightblue" points="2490.91,-140.2 2496.96,-131.51 2486.81,-134.53 2490.91,-140.2"/>
</g>
<!-- Node59&#45;&gt;Node30 -->
<g id="edge118" class="edge">
<title>Node59&#45;&gt;Node30</title>
<path fill="none" stroke="midnightblue" d="M2196.4,-347.74C2193.26,-347.46 2190.14,-347.22 2187.09,-347 1842.53,-322.66 974.07,-366.29 633.09,-311 633.09,-311 233.09,-188 233.09,-188 221.51,-175.73 217.92,-156.47 216.98,-142.1"/>
<polygon fill="midnightblue" stroke="midnightblue" points="220.47,-141.74 216.69,-131.84 213.47,-141.94 220.47,-141.74"/>
</g>
<!-- Node59&#45;&gt;Node15 -->
<g id="edge116" class="edge">
<title>Node59&#45;&gt;Node15</title>
<path fill="none" stroke="midnightblue" d="M2329.79,-355.86C2456.38,-354.7 2739.83,-347.79 2975.09,-311 3025.36,-303.14 3149.65,-273.38 3197.09,-255 3255.87,-232.23 3288.07,-241.06 3322.09,-188 3330.77,-174.47 3331.04,-155.91 3329.57,-142.09"/>
<polygon fill="midnightblue" stroke="midnightblue" points="3332.98,-141.2 3328.07,-131.81 3326.05,-142.21 3332.98,-141.2"/>
</g>
<!-- Node59&#45;&gt;Node45 -->
<g id="edge106" class="edge">
<title>Node59&#45;&gt;Node45</title>
<path fill="none" stroke="midnightblue" d="M2261.29,-347.32C2257.41,-328.67 2248.22,-284.44 2242.96,-259.13"/>
<polygon fill="midnightblue" stroke="midnightblue" points="2246.38,-258.36 2240.92,-249.28 2239.53,-259.78 2246.38,-258.36"/>
</g>
<!-- Node59&#45;&gt;Node66 -->
<g id="edge107" class="edge">
<title>Node59&#45;&gt;Node66</title>
<path fill="none" stroke="midnightblue" d="M2329.68,-352.22C2438.66,-345.75 2661.83,-331.23 2850.09,-311 2851.4,-310.86 2852.72,-310.71 2854.05,-310.56"/>
<polygon fill="midnightblue" stroke="midnightblue" points="2854.87,-313.99 2864.39,-309.33 2854.04,-307.04 2854.87,-313.99"/>
</g>
<!-- Node66&#45;&gt;Node9 -->
<g id="edge110" class="edge">
<title>Node66&#45;&gt;Node9</title>
<path fill="none" stroke="midnightblue" d="M2965.61,-298.81C3130,-294.69 3640.54,-279.93 3665.09,-255 3692.24,-227.44 3685.54,-202.53 3668.09,-168 3641.81,-115.99 3577.88,-90.29 3529.11,-77.91"/>
<polygon fill="midnightblue" stroke="midnightblue" points="3529.81,-74.48 3519.27,-75.54 3528.17,-81.28 3529.81,-74.48"/>
</g>
<!-- Node66&#45;&gt;Node21 -->
<g id="edge111" class="edge">
<title>Node66&#45;&gt;Node21</title>
<path fill="none" stroke="midnightblue" d="M2915.87,-291.21C2917.41,-268.84 2918.83,-208.63 2894.09,-168 2861.35,-114.21 2789.03,-87.09 2745.13,-75.1"/>
<polygon fill="midnightblue" stroke="midnightblue" points="2745.99,-71.71 2735.43,-72.57 2744.22,-78.48 2745.99,-71.71"/>
</g>
<!-- Node66&#45;&gt;Node23 -->
<g id="edge113" class="edge">
<title>Node66&#45;&gt;Node23</title>
<path fill="none" stroke="midnightblue" d="M2864.53,-294.66C2849.3,-293.24 2832.53,-291.87 2817.09,-291 2427.18,-269.13 1446.01,-314.81 1060.09,-255 956.14,-238.89 923.99,-240.94 833.09,-188 796.38,-166.61 750.29,-146.5 775.09,-112 798.13,-79.96 845.11,-70.41 876.85,-67.75"/>
<polygon fill="midnightblue" stroke="midnightblue" points="877.23,-71.23 886.98,-67.08 876.77,-64.25 877.23,-71.23"/>
</g>
<!-- Node66&#45;&gt;Node26 -->
<g id="edge108" class="edge">
<title>Node66&#45;&gt;Node26</title>
<path fill="none" stroke="midnightblue" d="M2897.8,-291.43C2863.54,-274.94 2784.21,-239.05 2713.09,-224 2579.19,-195.66 2173.4,-184.11 2003.83,-180.43"/>
<polygon fill="midnightblue" stroke="midnightblue" points="2003.81,-176.93 1993.74,-180.22 2003.66,-183.93 2003.81,-176.93"/>
</g>
<!-- Node66&#45;&gt;Node15 -->
<g id="edge112" class="edge">
<title>Node66&#45;&gt;Node15</title>
<path fill="none" stroke="midnightblue" d="M2964.17,-291.48C3056.8,-274.5 3252.55,-234.1 3302.09,-188 3315.15,-175.85 3321.13,-155.98 3323.85,-141.4"/>
<polygon fill="midnightblue" stroke="midnightblue" points="3327.32,-141.92 3325.36,-131.5 3320.4,-140.86 3327.32,-141.92"/>
</g>
<!-- Node66&#45;&gt;Node45 -->
<g id="edge109" class="edge">
<title>Node66&#45;&gt;Node45</title>
<path fill="none" stroke="midnightblue" d="M2864.49,-295.31C2849.25,-293.91 2832.49,-292.38 2817.09,-291 2633.4,-274.54 2416.8,-255.79 2308.33,-246.45"/>
<polygon fill="midnightblue" stroke="midnightblue" points="2308.44,-242.95 2298.18,-245.58 2307.84,-249.92 2308.44,-242.95"/>
</g>
<!-- Node67&#45;&gt;Node16 -->
<g id="edge124" class="edge">
<title>Node67&#45;&gt;Node16</title>
<path fill="none" stroke="midnightblue" d="M1331.45,-291.49C1387.33,-275.25 1509.51,-237.04 1605.09,-188 1698.21,-140.23 1711.08,-111.03 1800.09,-56 1818.05,-44.9 1838.85,-33.23 1854.74,-24.56"/>
<polygon fill="midnightblue" stroke="midnightblue" points="1856.8,-27.42 1863.93,-19.58 1853.47,-21.27 1856.8,-27.42"/>
</g>
<!-- Node51&#45;&gt;Node10 -->
<g id="edge139" class="edge">
<title>Node51&#45;&gt;Node10</title>
<path fill="none" stroke="midnightblue" d="M3092.6,-168.18C3100.76,-159.44 3113.14,-145.45 3122.09,-132 3145.11,-97.43 3165.78,-53.22 3176.45,-28.95"/>
<polygon fill="midnightblue" stroke="midnightblue" points="3179.74,-30.15 3180.51,-19.58 3173.32,-27.37 3179.74,-30.15"/>
</g>
<!-- Node51&#45;&gt;Node16 -->
<g id="edge144" class="edge">
<title>Node51&#45;&gt;Node16</title>
<path fill="none" stroke="midnightblue" d="M3080.35,-168.23C3073.8,-154.01 3058.84,-126.07 3037.09,-112 2933.83,-45.19 2888.09,-71.61 2766.09,-56 2445.55,-14.99 2055.27,-10.97 1924.9,-10.86"/>
<polygon fill="midnightblue" stroke="midnightblue" points="1924.88,-7.36 1914.88,-10.86 1924.88,-14.36 1924.88,-7.36"/>
</g>
<!-- Node51&#45;&gt;Node21 -->
<g id="edge140" class="edge">
<title>Node51&#45;&gt;Node21</title>
<path fill="none" stroke="midnightblue" d="M3076.74,-168.09C3064.28,-153.65 3037.47,-125.42 3008.09,-112 2919.99,-71.76 2803.56,-66.15 2745.4,-66.15"/>
<polygon fill="midnightblue" stroke="midnightblue" points="2745.22,-62.65 2735.24,-66.21 2745.26,-69.65 2745.22,-62.65"/>
</g>
<!-- Node51&#45;&gt;Node22 -->
<g id="edge143" class="edge">
<title>Node51&#45;&gt;Node22</title>
<path fill="none" stroke="midnightblue" d="M3027.19,-168.46C2882.52,-146.75 2503.85,-89.92 2386.37,-72.29"/>
<polygon fill="midnightblue" stroke="midnightblue" points="2386.56,-68.78 2376.15,-70.76 2385.52,-75.71 2386.56,-68.78"/>
</g>
<!-- Node51&#45;&gt;Node14 -->
<g id="edge141" class="edge">
<title>Node51&#45;&gt;Node14</title>
<path fill="none" stroke="midnightblue" d="M3022.01,-171.17C2902.07,-159.91 2641.87,-135.47 2545.74,-126.44"/>
<polygon fill="midnightblue" stroke="midnightblue" points="2545.92,-122.94 2535.64,-125.49 2545.27,-129.91 2545.92,-122.94"/>
</g>
<!-- Node51&#45;&gt;Node15 -->
<g id="edge142" class="edge">
<title>Node51&#45;&gt;Node15</title>
<path fill="none" stroke="midnightblue" d="M3122.44,-168.44C3168.81,-158.1 3246.19,-140.83 3291.03,-130.82"/>
<polygon fill="midnightblue" stroke="midnightblue" points="3291.89,-134.22 3300.89,-128.62 3290.37,-127.39 3291.89,-134.22"/>
</g>
<!-- Node83&#45;&gt;Node21 -->
<g id="edge150" class="edge">
<title>Node83&#45;&gt;Node21</title>
<path fill="none" stroke="midnightblue" d="M3570.99,-224.5C3600.12,-211.34 3633.09,-190.37 3615.09,-168 3559.58,-98.98 2908.39,-73.44 2745.73,-68.11"/>
<polygon fill="midnightblue" stroke="midnightblue" points="2745.41,-64.6 2735.31,-67.78 2745.19,-71.6 2745.41,-64.6"/>
</g>
<!-- Node83&#45;&gt;Node46 -->
<g id="edge148" class="edge">
<title>Node83&#45;&gt;Node46</title>
<path fill="none" stroke="midnightblue" d="M3462.21,-234.2C3282.23,-223.42 2813.06,-195.34 2622.42,-183.93"/>
<polygon fill="midnightblue" stroke="midnightblue" points="2622.38,-180.42 2612.19,-183.32 2621.96,-187.41 2622.38,-180.42"/>
</g>
<!-- Node83&#45;&gt;Node51 -->
<g id="edge149" class="edge">
<title>Node83&#45;&gt;Node51</title>
<path fill="none" stroke="midnightblue" d="M3462.29,-229.01C3378.36,-217.91 3240.26,-199.65 3156.2,-188.53"/>
<polygon fill="midnightblue" stroke="midnightblue" points="3156.59,-185.06 3146.22,-187.21 3155.68,-192 3156.59,-185.06"/>
</g>
<!-- Node50 -->
<g id="node44" class="node">
<title>Node50</title>
<g id="a_node44"><a xlink:title=" ">
<polygon fill="none" stroke="#bfbfbf" points="3544.09,-168.5 3544.09,-187.5 3606.09,-187.5 3606.09,-168.5 3544.09,-168.5"/>
<text text-anchor="middle" x="3575.09" y="-175.5" font-family="Helvetica,sans-Serif" font-size="10.00">cinttypes</text>
</a>
</g>
</g>
<!-- Node83&#45;&gt;Node50 -->
<g id="edge151" class="edge">
<title>Node83&#45;&gt;Node50</title>
<path fill="none" stroke="midnightblue" d="M3543.81,-224.4C3549.64,-215.93 3557.11,-205.1 3563.28,-196.14"/>
<polygon fill="midnightblue" stroke="midnightblue" points="3566.33,-197.88 3569.13,-187.66 3560.57,-193.91 3566.33,-197.88"/>
</g>
<!-- Node84&#45;&gt;Node10 -->
<g id="edge170" class="edge">
<title>Node84&#45;&gt;Node10</title>
<path fill="none" stroke="midnightblue" d="M2808.26,-294.33C2823.95,-293.12 2840.6,-291.93 2856.09,-291 3048.8,-279.47 3538.9,-309.54 3724.09,-255 3780.47,-238.4 3808.91,-239.01 3838.09,-188 3867.23,-137.08 3878.13,-98.88 3838.09,-56 3799.46,-14.62 3425.85,-10.38 3261.28,-10.54"/>
<polygon fill="midnightblue" stroke="midnightblue" points="3261.21,-7.04 3251.22,-10.56 3261.22,-14.04 3261.21,-7.04"/>
</g>
<!-- Node84&#45;&gt;Node19 -->
<g id="edge177" class="edge">
<title>Node84&#45;&gt;Node19</title>
<path fill="none" stroke="midnightblue" d="M2674.01,-299.36C2353.3,-296.18 988.37,-281.13 902.09,-255 848.75,-238.85 837.87,-224.89 796.09,-188 766.5,-161.86 728.48,-145.04 750.09,-112 789.55,-51.68 1019.12,-22.85 1105.36,-14.04"/>
<polygon fill="midnightblue" stroke="midnightblue" points="1105.78,-17.52 1115.38,-13.04 1105.08,-10.55 1105.78,-17.52"/>
</g>
<!-- Node84&#45;&gt;Node20 -->
<g id="edge172" class="edge">
<title>Node84&#45;&gt;Node20</title>
<path fill="none" stroke="midnightblue" d="M2674.05,-298.92C2433.55,-294.38 1615.54,-272.89 1370.09,-188 1327.34,-173.21 1318.08,-162.96 1285.09,-132 1269.85,-117.7 1255.87,-98.23 1246.78,-84.34"/>
<polygon fill="midnightblue" stroke="midnightblue" points="1249.63,-82.3 1241.31,-75.74 1243.72,-86.06 1249.63,-82.3"/>
</g>
<!-- Node84&#45;&gt;Node21 -->
<g id="edge173" class="edge">
<title>Node84&#45;&gt;Node21</title>
<path fill="none" stroke="midnightblue" d="M2808.26,-294.39C2823.95,-293.18 2840.6,-291.97 2856.09,-291 2898.22,-288.35 3582.59,-281.93 3615.09,-255 3645.37,-229.92 3653.81,-200.09 3631.09,-168 3587.8,-106.85 3545.54,-126.79 3472.09,-112 3330.54,-83.49 2878.23,-70.93 2745.83,-67.81"/>
<polygon fill="midnightblue" stroke="midnightblue" points="2745.52,-64.3 2735.44,-67.57 2745.36,-71.3 2745.52,-64.3"/>
</g>
<!-- Node84&#45;&gt;Node26 -->
<g id="edge155" class="edge">
<title>Node84&#45;&gt;Node26</title>
<path fill="none" stroke="midnightblue" d="M2737.64,-291.45C2730.48,-274.99 2712.27,-239.15 2684.09,-224 2625.27,-192.37 2183.6,-182.6 2003.85,-179.92"/>
<polygon fill="midnightblue" stroke="midnightblue" points="2003.73,-176.41 1993.68,-179.77 2003.63,-183.41 2003.73,-176.41"/>
</g>
<!-- Node84&#45;&gt;Node14 -->
<g id="edge174" class="edge">
<title>Node84&#45;&gt;Node14</title>
<path fill="none" stroke="midnightblue" d="M2740.66,-291.31C2739.35,-275.23 2734.1,-240.96 2713.09,-224 2624.39,-152.37 2533.84,-274.09 2459.09,-188 2444.52,-171.22 2466.31,-150.74 2485.53,-137.3"/>
<polygon fill="midnightblue" stroke="midnightblue" points="2487.64,-140.11 2494.05,-131.67 2483.78,-134.27 2487.64,-140.11"/>
</g>
<!-- Node84&#45;&gt;Node30 -->
<g id="edge176" class="edge">
<title>Node84&#45;&gt;Node30</title>
<path fill="none" stroke="midnightblue" d="M2673.69,-299.38C2379.44,-296.52 1205.88,-283.52 838.09,-255 809.71,-252.8 357.05,-197.13 330.09,-188 295.02,-176.12 258.62,-152.87 236.91,-137.64"/>
<polygon fill="midnightblue" stroke="midnightblue" points="238.73,-134.64 228.56,-131.66 234.65,-140.33 238.73,-134.64"/>
</g>
<!-- Node84&#45;&gt;Node35 -->
<g id="edge154" class="edge">
<title>Node84&#45;&gt;Node35</title>
<path fill="none" stroke="midnightblue" d="M2700,-291.47C2623.17,-275.83 2452.41,-242.46 2307.09,-224 2106.73,-198.55 2055.38,-204.54 1854.09,-188 1841.75,-186.99 1828.59,-185.88 1815.91,-184.81"/>
<polygon fill="midnightblue" stroke="midnightblue" points="1816.11,-181.32 1805.85,-183.96 1815.52,-188.29 1816.11,-181.32"/>
</g>
<!-- Node84&#45;&gt;Node15 -->
<g id="edge175" class="edge">
<title>Node84&#45;&gt;Node15</title>
<path fill="none" stroke="midnightblue" d="M2808.22,-292.45C2904.59,-279.89 3086.27,-249.73 3229.09,-188 3258.97,-175.09 3289.53,-152.8 3308.16,-137.98"/>
<polygon fill="midnightblue" stroke="midnightblue" points="3310.5,-140.58 3316.06,-131.57 3306.09,-135.15 3310.5,-140.58"/>
</g>
<!-- Node76 -->
<g id="node46" class="node">
<title>Node76</title>
<g id="a_node46"><a xlink:href="Alignment_8h.html" target="_top" xlink:title=" ">
<polygon fill="none" stroke="black" points="2533.59,-230 2533.59,-249 2674.59,-249 2674.59,-230 2533.59,-230"/>
<text text-anchor="middle" x="2604.09" y="-237" font-family="Helvetica,sans-Serif" font-size="10.00">llvm/Support/Alignment.h</text>
</a>
</g>
</g>
<!-- Node84&#45;&gt;Node76 -->
<g id="edge156" class="edge">
<title>Node84&#45;&gt;Node76</title>
<path fill="none" stroke="midnightblue" d="M2721.46,-291.48C2698.27,-281.4 2659.47,-264.55 2632.88,-253"/>
<polygon fill="midnightblue" stroke="midnightblue" points="2634.25,-249.78 2623.69,-249.01 2631.46,-256.2 2634.25,-249.78"/>
</g>
<!-- Node62 -->
<g id="node47" class="node">
<title>Node62</title>
<g id="a_node47"><a xlink:href="MathExtras_8h.html" target="_top" xlink:title=" ">
<polygon fill="none" stroke="red" points="2706.09,-168.5 2706.09,-187.5 2852.09,-187.5 2852.09,-168.5 2706.09,-168.5"/>
<text text-anchor="middle" x="2779.09" y="-175.5" font-family="Helvetica,sans-Serif" font-size="10.00">llvm/Support/MathExtras.h</text>
</a>
</g>
</g>
<!-- Node84&#45;&gt;Node62 -->
<g id="edge171" class="edge">
<title>Node84&#45;&gt;Node62</title>
<path fill="none" stroke="midnightblue" d="M2743.83,-291.3C2749.99,-271.68 2765.07,-223.64 2773.38,-197.19"/>
<polygon fill="midnightblue" stroke="midnightblue" points="2776.73,-198.21 2776.38,-187.62 2770.05,-196.12 2776.73,-198.21"/>
</g>
<!-- Node85 -->
<g id="node48" class="node">
<title>Node85</title>
<g id="a_node48"><a xlink:href="AllocatorBase_8h.html" target="_top" xlink:title=" ">
<polygon fill="none" stroke="red" points="3212.09,-56.5 3212.09,-75.5 3370.09,-75.5 3370.09,-56.5 3212.09,-56.5"/>
<text text-anchor="middle" x="3291.09" y="-63.5" font-family="Helvetica,sans-Serif" font-size="10.00">llvm/Support/AllocatorBase.h</text>
</a>
</g>
</g>
<!-- Node84&#45;&gt;Node85 -->
<g id="edge167" class="edge">
<title>Node84&#45;&gt;Node85</title>
<path fill="none" stroke="midnightblue" d="M2808.26,-294.38C2823.95,-293.17 2840.6,-291.96 2856.09,-291 2899.67,-288.3 3608.9,-284.49 3641.09,-255 3669.76,-228.74 3670.09,-201.33 3650.09,-168 3622.88,-122.65 3595.08,-129.27 3545.09,-112 3512.05,-100.58 3424.82,-86.35 3361.79,-76.99"/>
<polygon fill="midnightblue" stroke="midnightblue" points="3362.3,-73.52 3351.9,-75.53 3361.28,-80.45 3362.3,-73.52"/>
</g>
<!-- Node76&#45;&gt;Node21 -->
<g id="edge165" class="edge">
<title>Node76&#45;&gt;Node21</title>
<path fill="none" stroke="midnightblue" d="M2614.78,-229.73C2625.74,-220.31 2642.75,-204.46 2654.09,-188 2677.14,-154.57 2694.49,-109.93 2703.08,-85.28"/>
<polygon fill="midnightblue" stroke="midnightblue" points="2706.42,-86.35 2706.31,-75.76 2699.79,-84.1 2706.42,-86.35"/>
</g>
<!-- Node76&#45;&gt;Node23 -->
<g id="edge166" class="edge">
<title>Node76&#45;&gt;Node23</title>
<path fill="none" stroke="midnightblue" d="M2533.59,-234.89C2473.42,-231.85 2384.58,-227.46 2307.09,-224 1910.72,-206.33 1808.11,-242.4 1415.09,-188 1320.46,-174.9 1036.71,-100.83 941.01,-75.5"/>
<polygon fill="midnightblue" stroke="midnightblue" points="941.88,-72.1 931.32,-72.93 940.09,-78.87 941.88,-72.1"/>
</g>
<!-- Node76&#45;&gt;Node35 -->
<g id="edge157" class="edge">
<title>Node76&#45;&gt;Node35</title>
<path fill="none" stroke="midnightblue" d="M2533.49,-234.16C2400.5,-225.89 2103.77,-207 1854.09,-188 1841.74,-187.06 1828.59,-185.99 1815.9,-184.93"/>
<polygon fill="midnightblue" stroke="midnightblue" points="1816.1,-181.44 1805.84,-184.09 1815.51,-188.41 1816.1,-181.44"/>
</g>
<!-- Node76&#45;&gt;Node62 -->
<g id="edge158" class="edge">
<title>Node76&#45;&gt;Node62</title>
<path fill="none" stroke="midnightblue" d="M2629.17,-229.98C2659.44,-219.68 2710.53,-202.31 2744.53,-190.75"/>
<polygon fill="midnightblue" stroke="midnightblue" points="2745.72,-194.04 2754.07,-187.51 2743.47,-187.41 2745.72,-194.04"/>
</g>
<!-- Node62&#45;&gt;Node10 -->
<g id="edge159" class="edge">
<title>Node62&#45;&gt;Node10</title>
<path fill="none" stroke="midnightblue" d="M2813.95,-168.47C2845.32,-160.39 2892.42,-147.24 2932.09,-132 3018.19,-98.92 3115.34,-48.27 3159.68,-24.37"/>
<polygon fill="midnightblue" stroke="midnightblue" points="3161.44,-27.39 3168.56,-19.55 3158.1,-21.24 3161.44,-27.39"/>
</g>
<!-- Node62&#45;&gt;Node16 -->
<g id="edge164" class="edge">
<title>Node62&#45;&gt;Node16</title>
<path fill="none" stroke="midnightblue" d="M2779.63,-168.49C2780.55,-145.88 2779.56,-84.13 2744.09,-56 2711.75,-30.34 2097.49,-15.56 1924.87,-11.9"/>
<polygon fill="midnightblue" stroke="midnightblue" points="1924.69,-8.4 1914.62,-11.69 1924.54,-15.4 1924.69,-8.4"/>
</g>
<!-- Node62&#45;&gt;Node21 -->
<g id="edge160" class="edge">
<title>Node62&#45;&gt;Node21</title>
<path fill="none" stroke="midnightblue" d="M2773.6,-168.37C2762.1,-150.3 2735.3,-108.18 2720.11,-84.31"/>
<polygon fill="midnightblue" stroke="midnightblue" points="2722.88,-82.15 2714.56,-75.59 2716.98,-85.91 2722.88,-82.15"/>
</g>
<!-- Node62&#45;&gt;Node22 -->
<g id="edge162" class="edge">
<title>Node62&#45;&gt;Node22</title>
<path fill="none" stroke="midnightblue" d="M2750.02,-168.49C2705.88,-155.67 2619.25,-130.89 2545.09,-112 2489.73,-97.9 2425.01,-83.25 2386.08,-74.64"/>
<polygon fill="midnightblue" stroke="midnightblue" points="2386.81,-71.22 2376.29,-72.48 2385.3,-78.05 2386.81,-71.22"/>
</g>
<!-- Node62&#45;&gt;Node31 -->
<g id="edge163" class="edge">
<title>Node62&#45;&gt;Node31</title>
<path fill="none" stroke="midnightblue" d="M2705.88,-168.92C2597.74,-156.97 2399.73,-135.11 2322.32,-126.56"/>
<polygon fill="midnightblue" stroke="midnightblue" points="2322.54,-123.06 2312.22,-125.44 2321.78,-130.02 2322.54,-123.06"/>
</g>
<!-- Node62&#45;&gt;Node15 -->
<g id="edge161" class="edge">
<title>Node62&#45;&gt;Node15</title>
<path fill="none" stroke="midnightblue" d="M2852.3,-169.77C2971.47,-158.01 3202.95,-135.16 3290.97,-126.47"/>
<polygon fill="midnightblue" stroke="midnightblue" points="3291.37,-129.94 3300.98,-125.48 3290.68,-122.98 3291.37,-129.94"/>
</g>
<!-- Node85&#45;&gt;Node10 -->
<g id="edge168" class="edge">
<title>Node85&#45;&gt;Node10</title>
<path fill="none" stroke="midnightblue" d="M3273.9,-56.32C3256.74,-47.66 3230.15,-34.24 3210.35,-24.25"/>
<polygon fill="midnightblue" stroke="midnightblue" points="3211.75,-21.04 3201.24,-19.65 3208.59,-27.28 3211.75,-21.04"/>
</g>
<!-- Node85&#45;&gt;Node16 -->
<g id="edge169" class="edge">
<title>Node85&#45;&gt;Node16</title>
<path fill="none" stroke="midnightblue" d="M3212.01,-60.51C3183.65,-58.97 3151.45,-57.31 3122.09,-56 2653.85,-35.05 2085.97,-17.25 1924.7,-12.34"/>
<polygon fill="midnightblue" stroke="midnightblue" points="1924.78,-8.84 1914.67,-12.04 1924.56,-15.84 1924.78,-8.84"/>
</g>
<!-- Node77&#45;&gt;Node2 -->
<g id="edge179" class="edge">
<title>Node77&#45;&gt;Node2</title>
<path fill="none" stroke="midnightblue" d="M2269.34,-539.92C1921.69,-537.07 478.45,-523.23 446.09,-490 401.75,-444.47 405.26,-395.7 446.09,-347 469.39,-319.21 564.85,-308.57 631.85,-304.51"/>
<polygon fill="midnightblue" stroke="midnightblue" points="632.15,-308 641.93,-303.93 631.75,-301.01 632.15,-308"/>
</g>
<!-- Node77&#45;&gt;Node21 -->
<g id="edge184" class="edge">
<title>Node77&#45;&gt;Node21</title>
<path fill="none" stroke="midnightblue" d="M2418.63,-528.46C2468.92,-519.62 2536.54,-506.32 2595.09,-490 2781.53,-438.02 2907.84,-485.25 2992.09,-311 3035.36,-221.52 2979.77,-154.85 2890.09,-112 2864.68,-99.86 2790.23,-83.44 2745.12,-74.16"/>
<polygon fill="midnightblue" stroke="midnightblue" points="2745.65,-70.7 2735.15,-72.13 2744.25,-77.56 2745.65,-70.7"/>
</g>
<!-- Node77&#45;&gt;Node15 -->
<g id="edge185" class="edge">
<title>Node77&#45;&gt;Node15</title>
<path fill="none" stroke="midnightblue" d="M2418.68,-537.97C2565.87,-532.45 2888.73,-517.55 2996.09,-490 3171.2,-445.06 3213.79,-395.05 3328.09,-255 3355,-222.03 3383.7,-207.59 3368.09,-168 3363.58,-156.55 3354.62,-146.29 3346.14,-138.47"/>
<polygon fill="midnightblue" stroke="midnightblue" points="3348.18,-135.61 3338.31,-131.76 3343.62,-140.93 3348.18,-135.61"/>
</g>
<!-- Node77&#45;&gt;Node40 -->
<g id="edge180" class="edge">
<title>Node77&#45;&gt;Node40</title>
<path fill="none" stroke="midnightblue" d="M2269.46,-540.21C1925.37,-538.64 505.17,-529.79 420.09,-490 284.4,-426.54 116.93,-338.86 213.09,-224 236.57,-195.96 333.98,-185.38 400.58,-181.39"/>
<polygon fill="midnightblue" stroke="midnightblue" points="400.8,-184.89 410.58,-180.83 400.4,-177.9 400.8,-184.89"/>
</g>
<!-- Node77&#45;&gt;Node78 -->
<g id="edge182" class="edge">
<title>Node77&#45;&gt;Node78</title>
<path fill="none" stroke="midnightblue" d="M2297.92,-526.48C2265.27,-516.56 2221.29,-503.2 2186.55,-492.65"/>
<polygon fill="midnightblue" stroke="midnightblue" points="2187.14,-489.17 2176.55,-489.61 2185.1,-495.87 2187.14,-489.17"/>
</g>
<!-- Node77&#45;&gt;Node56 -->
<g id="edge183" class="edge">
<title>Node77&#45;&gt;Node56</title>
<path fill="none" stroke="midnightblue" d="M2322.75,-526.49C2297.21,-509.88 2253.03,-481.6 2214.09,-459 2194.95,-447.89 2172.89,-436.11 2156.17,-427.39"/>
<polygon fill="midnightblue" stroke="midnightblue" points="2157.5,-424.13 2147.01,-422.63 2154.28,-430.35 2157.5,-424.13"/>
</g>
<!-- Node77&#45;&gt;Node76 -->
<g id="edge181" class="edge">
<title>Node77&#45;&gt;Node76</title>
<path fill="none" stroke="midnightblue" d="M2418.69,-535.91C2496.75,-526.59 2608.09,-498.49 2608.09,-414 2608.09,-414 2608.09,-414 2608.09,-356 2608.09,-321.84 2606.32,-282.04 2605.14,-259.2"/>
<polygon fill="midnightblue" stroke="midnightblue" points="2608.63,-258.99 2604.6,-249.19 2601.64,-259.36 2608.63,-258.99"/>
</g>
<!-- Node87&#45;&gt;Node45 -->
<g id="edge188" class="edge">
<title>Node87&#45;&gt;Node45</title>
<path fill="none" stroke="midnightblue" d="M2772.9,-347.5C2734.27,-333.65 2654.05,-306.24 2584.09,-291 2464.95,-265.04 2432.4,-274.89 2312.09,-255 2304.74,-253.78 2296.99,-252.38 2289.39,-250.93"/>
<polygon fill="midnightblue" stroke="midnightblue" points="2290.04,-247.49 2279.55,-249.02 2288.7,-254.36 2290.04,-247.49"/>
</g>
<!-- Node87&#45;&gt;Node66 -->
<g id="edge189" class="edge">
<title>Node87&#45;&gt;Node66</title>
<path fill="none" stroke="midnightblue" d="M2814.95,-347.44C2834.36,-338.64 2864.82,-324.81 2887.06,-314.72"/>
<polygon fill="midnightblue" stroke="midnightblue" points="2888.67,-317.84 2896.33,-310.52 2885.77,-311.46 2888.67,-317.84"/>
</g>
<!-- Node87&#45;&gt;Node84 -->
<g id="edge190" class="edge">
<title>Node87&#45;&gt;Node84</title>
<path fill="none" stroke="midnightblue" d="M2787.01,-347.08C2778.92,-339.14 2766.9,-327.34 2757.18,-317.8"/>
<polygon fill="midnightblue" stroke="midnightblue" points="2759.59,-315.26 2750.01,-310.75 2754.69,-320.25 2759.59,-315.26"/>
</g>
</g>
</svg>
