<?xml version="1.0" encoding="UTF-8" standalone="no"?>
<!DOCTYPE svg PUBLIC "-//W3C//DTD SVG 1.1//EN"
 "http://www.w3.org/Graphics/SVG/1.1/DTD/svg11.dtd">
<!-- Generated by graphviz version 2.43.0 (0)
 -->
<!-- Title: include/llvm/CodeGen/LexicalScopes.h Pages: 1 -->
<svg width="2222pt" height="374pt"
 viewBox="0.00 0.00 2221.50 374.00" xmlns="http://www.w3.org/2000/svg" xmlns:xlink="http://www.w3.org/1999/xlink">
<g id="graph0" class="graph" transform="scale(1 1) rotate(0) translate(4 370)">
<title>include/llvm/CodeGen/LexicalScopes.h</title>
<!-- Node1 -->
<g id="node1" class="node">
<title>Node1</title>
<g id="a_node1"><a xlink:title=" ">
<polygon fill="#bfbfbf" stroke="black" points="1358.5,-335.5 1358.5,-365.5 1482.5,-365.5 1482.5,-335.5 1358.5,-335.5"/>
<text text-anchor="start" x="1366.5" y="-353.5" font-family="Helvetica,sans-Serif" font-size="10.00">include/llvm/CodeGen</text>
<text text-anchor="middle" x="1420.5" y="-342.5" font-family="Helvetica,sans-Serif" font-size="10.00">/LexicalScopes.h</text>
</a>
</g>
</g>
<!-- Node2 -->
<g id="node2" class="node">
<title>Node2</title>
<g id="a_node2"><a xlink:href="DebugHandlerBase_8h.html" target="_top" xlink:title=" ">
<polygon fill="none" stroke="black" points="695.5,-268.5 695.5,-298.5 819.5,-298.5 819.5,-268.5 695.5,-268.5"/>
<text text-anchor="start" x="703.5" y="-286.5" font-family="Helvetica,sans-Serif" font-size="10.00">include/llvm/CodeGen</text>
<text text-anchor="middle" x="757.5" y="-275.5" font-family="Helvetica,sans-Serif" font-size="10.00">/DebugHandlerBase.h</text>
</a>
</g>
</g>
<!-- Node1&#45;&gt;Node2 -->
<g id="edge1" class="edge">
<title>Node1&#45;&gt;Node2</title>
<path fill="none" stroke="midnightblue" d="M1348.1,-342.4C1217.12,-329.56 942.96,-302.68 819.78,-290.61"/>
<polygon fill="midnightblue" stroke="midnightblue" points="1348.13,-345.92 1358.42,-343.41 1348.81,-338.96 1348.13,-345.92"/>
</g>
<!-- Node4 -->
<g id="node4" class="node">
<title>Node4</title>
<g id="a_node4"><a xlink:href="DwarfCompileUnit_8h.html" target="_top" xlink:title=" ">
<polygon fill="none" stroke="black" points="937,-67.5 937,-97.5 1070,-97.5 1070,-67.5 937,-67.5"/>
<text text-anchor="start" x="945" y="-85.5" font-family="Helvetica,sans-Serif" font-size="10.00">lib/CodeGen/AsmPrinter</text>
<text text-anchor="middle" x="1003.5" y="-74.5" font-family="Helvetica,sans-Serif" font-size="10.00">/DwarfCompileUnit.h</text>
</a>
</g>
</g>
<!-- Node1&#45;&gt;Node4 -->
<g id="edge30" class="edge">
<title>Node1&#45;&gt;Node4</title>
<path fill="none" stroke="midnightblue" d="M1348.24,-348.57C1301.19,-344.5 1240.9,-332.36 1198.5,-299 1134.14,-248.36 1175.58,-190.71 1116.5,-134 1099.06,-117.26 1075.13,-105.48 1053.77,-97.53"/>
<polygon fill="midnightblue" stroke="midnightblue" points="1348.14,-352.07 1358.38,-349.34 1348.67,-345.09 1348.14,-352.07"/>
</g>
<!-- Node9 -->
<g id="node9" class="node">
<title>Node9</title>
<g id="a_node9"><a xlink:href="DwarfDebug_8cpp.html" target="_top" xlink:title=" ">
<polygon fill="none" stroke="black" points="1418,-0.5 1418,-30.5 1551,-30.5 1551,-0.5 1418,-0.5"/>
<text text-anchor="start" x="1426" y="-18.5" font-family="Helvetica,sans-Serif" font-size="10.00">lib/CodeGen/AsmPrinter</text>
<text text-anchor="middle" x="1484.5" y="-7.5" font-family="Helvetica,sans-Serif" font-size="10.00">/DwarfDebug.cpp</text>
</a>
</g>
</g>
<!-- Node1&#45;&gt;Node9 -->
<g id="edge33" class="edge">
<title>Node1&#45;&gt;Node9</title>
<path fill="none" stroke="midnightblue" d="M1348.13,-347.6C1308.56,-342.74 1261.6,-330.08 1231.5,-299 1205.63,-272.28 1212.5,-254.69 1212.5,-217.5 1212.5,-217.5 1212.5,-217.5 1212.5,-148.5 1212.5,-100.28 1352.63,-53.27 1431.73,-30.58"/>
<polygon fill="midnightblue" stroke="midnightblue" points="1347.96,-351.11 1358.28,-348.71 1348.72,-344.15 1347.96,-351.11"/>
</g>
<!-- Node17 -->
<g id="node17" class="node">
<title>Node17</title>
<g id="a_node17"><a xlink:href="CodeViewDebug_8cpp.html" target="_top" xlink:title=" ">
<polygon fill="none" stroke="black" points="0,-134.5 0,-164.5 133,-164.5 133,-134.5 0,-134.5"/>
<text text-anchor="start" x="8" y="-152.5" font-family="Helvetica,sans-Serif" font-size="10.00">lib/CodeGen/AsmPrinter</text>
<text text-anchor="middle" x="66.5" y="-141.5" font-family="Helvetica,sans-Serif" font-size="10.00">/CodeViewDebug.cpp</text>
</a>
</g>
</g>
<!-- Node1&#45;&gt;Node17 -->
<g id="edge31" class="edge">
<title>Node1&#45;&gt;Node17</title>
<path fill="none" stroke="midnightblue" d="M1347.95,-349.85C1109.69,-349.94 354.4,-341.38 141.5,-232 111.23,-216.45 86.96,-183.44 74.87,-164.55"/>
<polygon fill="midnightblue" stroke="midnightblue" points="1348.23,-353.35 1358.22,-349.84 1348.22,-346.35 1348.23,-353.35"/>
</g>
<!-- Node22 -->
<g id="node22" class="node">
<title>Node22</title>
<g id="a_node22"><a xlink:href="DbgEntityHistoryCalculator_8cpp.html" target="_top" xlink:title=" ">
<polygon fill="none" stroke="black" points="1240.5,-268.5 1240.5,-298.5 1412.5,-298.5 1412.5,-268.5 1240.5,-268.5"/>
<text text-anchor="start" x="1248.5" y="-286.5" font-family="Helvetica,sans-Serif" font-size="10.00">lib/CodeGen/AsmPrinter</text>
<text text-anchor="middle" x="1326.5" y="-275.5" font-family="Helvetica,sans-Serif" font-size="10.00">/DbgEntityHistoryCalculator.cpp</text>
</a>
</g>
</g>
<!-- Node1&#45;&gt;Node22 -->
<g id="edge32" class="edge">
<title>Node1&#45;&gt;Node22</title>
<path fill="none" stroke="midnightblue" d="M1391.51,-329.45C1377.05,-319.45 1359.91,-307.6 1346.86,-298.58"/>
<polygon fill="midnightblue" stroke="midnightblue" points="1389.89,-332.59 1400.1,-335.4 1393.87,-326.83 1389.89,-332.59"/>
</g>
<!-- Node23 -->
<g id="node23" class="node">
<title>Node23</title>
<g id="a_node23"><a xlink:href="LexicalScopes_8cpp.html" target="_top" xlink:title=" ">
<polygon fill="none" stroke="black" points="1430.5,-274 1430.5,-293 1598.5,-293 1598.5,-274 1430.5,-274"/>
<text text-anchor="middle" x="1514.5" y="-281" font-family="Helvetica,sans-Serif" font-size="10.00">lib/CodeGen/LexicalScopes.cpp</text>
</a>
</g>
</g>
<!-- Node1&#45;&gt;Node23 -->
<g id="edge34" class="edge">
<title>Node1&#45;&gt;Node23</title>
<path fill="none" stroke="midnightblue" d="M1449.22,-329.64C1466.96,-317.37 1488.81,-302.26 1502.2,-293.01"/>
<polygon fill="midnightblue" stroke="midnightblue" points="1447.13,-326.83 1440.9,-335.4 1451.11,-332.59 1447.13,-326.83"/>
</g>
<!-- Node24 -->
<g id="node24" class="node">
<title>Node24</title>
<g id="a_node24"><a xlink:href="InstrRefBasedImpl_8cpp.html" target="_top" xlink:title=" ">
<polygon fill="none" stroke="black" points="1600,-201.5 1600,-231.5 1763,-231.5 1763,-201.5 1600,-201.5"/>
<text text-anchor="start" x="1608" y="-219.5" font-family="Helvetica,sans-Serif" font-size="10.00">lib/CodeGen/LiveDebugValues</text>
<text text-anchor="middle" x="1681.5" y="-208.5" font-family="Helvetica,sans-Serif" font-size="10.00">/InstrRefBasedImpl.cpp</text>
</a>
</g>
</g>
<!-- Node1&#45;&gt;Node24 -->
<g id="edge35" class="edge">
<title>Node1&#45;&gt;Node24</title>
<path fill="none" stroke="midnightblue" d="M1492.6,-339.91C1529.03,-332.69 1572.75,-320.24 1607.5,-299 1636.04,-281.56 1660.14,-249.88 1672.53,-231.58"/>
<polygon fill="midnightblue" stroke="midnightblue" points="1491.71,-336.51 1482.53,-341.81 1493,-343.39 1491.71,-336.51"/>
</g>
<!-- Node25 -->
<g id="node25" class="node">
<title>Node25</title>
<g id="a_node25"><a xlink:href="InstrRefBasedImpl_8h.html" target="_top" xlink:title=" ">
<polygon fill="none" stroke="black" points="1655,-268.5 1655,-298.5 1818,-298.5 1818,-268.5 1655,-268.5"/>
<text text-anchor="start" x="1663" y="-286.5" font-family="Helvetica,sans-Serif" font-size="10.00">lib/CodeGen/LiveDebugValues</text>
<text text-anchor="middle" x="1736.5" y="-275.5" font-family="Helvetica,sans-Serif" font-size="10.00">/InstrRefBasedImpl.h</text>
</a>
</g>
</g>
<!-- Node1&#45;&gt;Node25 -->
<g id="edge36" class="edge">
<title>Node1&#45;&gt;Node25</title>
<path fill="none" stroke="midnightblue" d="M1492.52,-334.69C1545.28,-323.83 1616.44,-309.2 1668.29,-298.53"/>
<polygon fill="midnightblue" stroke="midnightblue" points="1491.64,-331.29 1482.55,-336.74 1493.05,-338.15 1491.64,-331.29"/>
</g>
<!-- Node26 -->
<g id="node26" class="node">
<title>Node26</title>
<g id="a_node26"><a xlink:href="VarLocBasedImpl_8cpp.html" target="_top" xlink:title=" ">
<polygon fill="none" stroke="black" points="1836,-268.5 1836,-298.5 1999,-298.5 1999,-268.5 1836,-268.5"/>
<text text-anchor="start" x="1844" y="-286.5" font-family="Helvetica,sans-Serif" font-size="10.00">lib/CodeGen/LiveDebugValues</text>
<text text-anchor="middle" x="1917.5" y="-275.5" font-family="Helvetica,sans-Serif" font-size="10.00">/VarLocBasedImpl.cpp</text>
</a>
</g>
</g>
<!-- Node1&#45;&gt;Node26 -->
<g id="edge38" class="edge">
<title>Node1&#45;&gt;Node26</title>
<path fill="none" stroke="midnightblue" d="M1492.8,-341.33C1574.25,-331.94 1710.56,-315.67 1827.5,-299 1830.16,-298.62 1832.87,-298.23 1835.6,-297.82"/>
<polygon fill="midnightblue" stroke="midnightblue" points="1492.19,-337.88 1482.65,-342.5 1492.99,-344.83 1492.19,-337.88"/>
</g>
<!-- Node27 -->
<g id="node27" class="node">
<title>Node27</title>
<g id="a_node27"><a xlink:href="LiveDebugVariables_8cpp.html" target="_top" xlink:title=" ">
<polygon fill="none" stroke="black" points="2017.5,-274 2017.5,-293 2213.5,-293 2213.5,-274 2017.5,-274"/>
<text text-anchor="middle" x="2115.5" y="-281" font-family="Helvetica,sans-Serif" font-size="10.00">lib/CodeGen/LiveDebugVariables.cpp</text>
</a>
</g>
</g>
<!-- Node1&#45;&gt;Node27 -->
<g id="edge39" class="edge">
<title>Node1&#45;&gt;Node27</title>
<path fill="none" stroke="midnightblue" d="M1492.91,-344.43C1603.99,-336.39 1823.09,-319.51 2008.5,-299 2024.06,-297.28 2040.85,-295.14 2056.42,-293.03"/>
<polygon fill="midnightblue" stroke="midnightblue" points="1492.55,-340.95 1482.83,-345.16 1493.05,-347.93 1492.55,-340.95"/>
</g>
<!-- Node3 -->
<g id="node3" class="node">
<title>Node3</title>
<g id="a_node3"><a xlink:href="DwarfDebug_8h.html" target="_top" xlink:title=" ">
<polygon fill="none" stroke="black" points="691,-201.5 691,-231.5 824,-231.5 824,-201.5 691,-201.5"/>
<text text-anchor="start" x="699" y="-219.5" font-family="Helvetica,sans-Serif" font-size="10.00">lib/CodeGen/AsmPrinter</text>
<text text-anchor="middle" x="757.5" y="-208.5" font-family="Helvetica,sans-Serif" font-size="10.00">/DwarfDebug.h</text>
</a>
</g>
</g>
<!-- Node2&#45;&gt;Node3 -->
<g id="edge2" class="edge">
<title>Node2&#45;&gt;Node3</title>
<path fill="none" stroke="midnightblue" d="M757.5,-258.11C757.5,-249.15 757.5,-239.32 757.5,-231.58"/>
<polygon fill="midnightblue" stroke="midnightblue" points="754,-258.4 757.5,-268.4 761,-258.4 754,-258.4"/>
</g>
<!-- Node16 -->
<g id="node16" class="node">
<title>Node16</title>
<g id="a_node16"><a xlink:href="CodeViewDebug_8h.html" target="_top" xlink:title=" ">
<polygon fill="none" stroke="black" points="151,-201.5 151,-231.5 284,-231.5 284,-201.5 151,-201.5"/>
<text text-anchor="start" x="159" y="-219.5" font-family="Helvetica,sans-Serif" font-size="10.00">lib/CodeGen/AsmPrinter</text>
<text text-anchor="middle" x="217.5" y="-208.5" font-family="Helvetica,sans-Serif" font-size="10.00">/CodeViewDebug.h</text>
</a>
</g>
</g>
<!-- Node2&#45;&gt;Node16 -->
<g id="edge23" class="edge">
<title>Node2&#45;&gt;Node16</title>
<path fill="none" stroke="midnightblue" d="M685.08,-273.78C579.81,-261.11 386.01,-237.78 284.12,-225.52"/>
<polygon fill="midnightblue" stroke="midnightblue" points="684.94,-277.29 695.29,-275.01 685.78,-270.34 684.94,-277.29"/>
</g>
<!-- Node18 -->
<g id="node18" class="node">
<title>Node18</title>
<g id="a_node18"><a xlink:href="DebugHandlerBase_8cpp.html" target="_top" xlink:title=" ">
<polygon fill="none" stroke="black" points="842.5,-201.5 842.5,-231.5 976.5,-231.5 976.5,-201.5 842.5,-201.5"/>
<text text-anchor="start" x="850.5" y="-219.5" font-family="Helvetica,sans-Serif" font-size="10.00">lib/CodeGen/AsmPrinter</text>
<text text-anchor="middle" x="909.5" y="-208.5" font-family="Helvetica,sans-Serif" font-size="10.00">/DebugHandlerBase.cpp</text>
</a>
</g>
</g>
<!-- Node2&#45;&gt;Node18 -->
<g id="edge26" class="edge">
<title>Node2&#45;&gt;Node18</title>
<path fill="none" stroke="midnightblue" d="M799.81,-264.41C824.08,-254.03 854.09,-241.2 876.58,-231.58"/>
<polygon fill="midnightblue" stroke="midnightblue" points="798.3,-261.25 790.48,-268.4 801.05,-267.68 798.3,-261.25"/>
</g>
<!-- Node19 -->
<g id="node19" class="node">
<title>Node19</title>
<g id="a_node19"><a xlink:href="BTFDebug_8h.html" target="_top" xlink:title=" ">
<polygon fill="none" stroke="black" points="492.5,-207 492.5,-226 638.5,-226 638.5,-207 492.5,-207"/>
<text text-anchor="middle" x="565.5" y="-214" font-family="Helvetica,sans-Serif" font-size="10.00">lib/Target/BPF/BTFDebug.h</text>
</a>
</g>
</g>
<!-- Node2&#45;&gt;Node19 -->
<g id="edge27" class="edge">
<title>Node2&#45;&gt;Node19</title>
<path fill="none" stroke="midnightblue" d="M706.13,-265.11C668.77,-252.46 619.83,-235.89 590.63,-226.01"/>
<polygon fill="midnightblue" stroke="midnightblue" points="705.24,-268.5 715.84,-268.4 707.49,-261.87 705.24,-268.5"/>
</g>
<!-- Node3&#45;&gt;Node4 -->
<g id="edge3" class="edge">
<title>Node3&#45;&gt;Node4</title>
<path fill="none" stroke="midnightblue" d="M768.13,-192.18C777.71,-173.72 793.52,-148.69 814.5,-134 850.39,-108.87 898.1,-96.25 936.61,-89.9"/>
<polygon fill="midnightblue" stroke="midnightblue" points="764.87,-190.88 763.57,-201.39 771.14,-193.98 764.87,-190.88"/>
</g>
<!-- Node6 -->
<g id="node6" class="node">
<title>Node6</title>
<g id="a_node6"><a xlink:href="DIE_8cpp.html" target="_top" xlink:title=" ">
<polygon fill="none" stroke="black" points="361,-0.5 361,-30.5 494,-30.5 494,-0.5 361,-0.5"/>
<text text-anchor="start" x="369" y="-18.5" font-family="Helvetica,sans-Serif" font-size="10.00">lib/CodeGen/AsmPrinter</text>
<text text-anchor="middle" x="427.5" y="-7.5" font-family="Helvetica,sans-Serif" font-size="10.00">/DIE.cpp</text>
</a>
</g>
</g>
<!-- Node3&#45;&gt;Node6 -->
<g id="edge19" class="edge">
<title>Node3&#45;&gt;Node6</title>
<path fill="none" stroke="midnightblue" d="M735.95,-194.3C717.46,-176.79 689.58,-151.99 662.5,-134 595.44,-89.45 509.14,-50.48 462.01,-30.57"/>
<polygon fill="midnightblue" stroke="midnightblue" points="733.63,-196.92 743.27,-201.31 738.47,-191.87 733.63,-196.92"/>
</g>
<!-- Node7 -->
<g id="node7" class="node">
<title>Node7</title>
<g id="a_node7"><a xlink:href="DIEHash_8cpp.html" target="_top" xlink:title=" ">
<polygon fill="none" stroke="black" points="512,-0.5 512,-30.5 645,-30.5 645,-0.5 512,-0.5"/>
<text text-anchor="start" x="520" y="-18.5" font-family="Helvetica,sans-Serif" font-size="10.00">lib/CodeGen/AsmPrinter</text>
<text text-anchor="middle" x="578.5" y="-7.5" font-family="Helvetica,sans-Serif" font-size="10.00">/DIEHash.cpp</text>
</a>
</g>
</g>
<!-- Node3&#45;&gt;Node7 -->
<g id="edge20" class="edge">
<title>Node3&#45;&gt;Node7</title>
<path fill="none" stroke="midnightblue" d="M749.96,-191.59C737.86,-154.48 713.63,-85.35 695.5,-67 678.71,-50 655.26,-38.36 633.76,-30.58"/>
<polygon fill="midnightblue" stroke="midnightblue" points="746.64,-192.7 753.04,-201.14 753.3,-190.55 746.64,-192.7"/>
</g>
<!-- Node3&#45;&gt;Node9 -->
<g id="edge21" class="edge">
<title>Node3&#45;&gt;Node9</title>
<path fill="none" stroke="midnightblue" d="M834.27,-201.03C961.13,-183.31 1008.07,-224.28 1116.5,-165 1166.33,-137.76 1149.27,-95.31 1198.5,-67 1280.59,-19.79 1315.32,-47.87 1408.5,-31 1411.54,-30.45 1414.65,-29.88 1417.79,-29.3"/>
<polygon fill="midnightblue" stroke="midnightblue" points="833.56,-197.59 824.19,-202.53 834.59,-204.52 833.56,-197.59"/>
</g>
<!-- Node11 -->
<g id="node11" class="node">
<title>Node11</title>
<g id="a_node11"><a xlink:href="DwarfFile_8cpp.html" target="_top" xlink:title=" ">
<polygon fill="none" stroke="black" points="663,-0.5 663,-30.5 796,-30.5 796,-0.5 663,-0.5"/>
<text text-anchor="start" x="671" y="-18.5" font-family="Helvetica,sans-Serif" font-size="10.00">lib/CodeGen/AsmPrinter</text>
<text text-anchor="middle" x="729.5" y="-7.5" font-family="Helvetica,sans-Serif" font-size="10.00">/DwarfFile.cpp</text>
</a>
</g>
</g>
<!-- Node3&#45;&gt;Node11 -->
<g id="edge22" class="edge">
<title>Node3&#45;&gt;Node11</title>
<path fill="none" stroke="midnightblue" d="M754.09,-191.27C748.18,-149.29 736.23,-64.33 731.5,-30.68"/>
<polygon fill="midnightblue" stroke="midnightblue" points="750.63,-191.77 755.49,-201.19 757.56,-190.8 750.63,-191.77"/>
</g>
<!-- Node13 -->
<g id="node13" class="node">
<title>Node13</title>
<g id="a_node13"><a xlink:href="DwarfUnit_8h.html" target="_top" xlink:title=" ">
<polygon fill="none" stroke="black" points="975,-134.5 975,-164.5 1108,-164.5 1108,-134.5 975,-134.5"/>
<text text-anchor="start" x="983" y="-152.5" font-family="Helvetica,sans-Serif" font-size="10.00">lib/CodeGen/AsmPrinter</text>
<text text-anchor="middle" x="1041.5" y="-141.5" font-family="Helvetica,sans-Serif" font-size="10.00">/DwarfUnit.h</text>
</a>
</g>
</g>
<!-- Node3&#45;&gt;Node13 -->
<g id="edge12" class="edge">
<title>Node3&#45;&gt;Node13</title>
<path fill="none" stroke="midnightblue" d="M828.78,-199.19C875.29,-188.54 935.4,-174.78 979.85,-164.61"/>
<polygon fill="midnightblue" stroke="midnightblue" points="827.74,-195.83 818.77,-201.48 829.3,-202.66 827.74,-195.83"/>
</g>
<!-- Node14 -->
<g id="node14" class="node">
<title>Node14</title>
<g id="a_node14"><a xlink:href="AsmPrinter_8cpp.html" target="_top" xlink:title=" ">
<polygon fill="none" stroke="black" points="151,-134.5 151,-164.5 284,-164.5 284,-134.5 151,-134.5"/>
<text text-anchor="start" x="159" y="-152.5" font-family="Helvetica,sans-Serif" font-size="10.00">lib/CodeGen/AsmPrinter</text>
<text text-anchor="middle" x="217.5" y="-141.5" font-family="Helvetica,sans-Serif" font-size="10.00">/AsmPrinter.cpp</text>
</a>
</g>
</g>
<!-- Node3&#45;&gt;Node14 -->
<g id="edge17" class="edge">
<title>Node3&#45;&gt;Node14</title>
<path fill="none" stroke="midnightblue" d="M680.77,-205.09C669.62,-203.66 658.27,-202.26 647.5,-201 489.98,-182.64 449.4,-188.07 292.5,-165 289.74,-164.59 286.94,-164.16 284.1,-163.7"/>
<polygon fill="midnightblue" stroke="midnightblue" points="680.57,-208.59 690.94,-206.4 681.47,-201.65 680.57,-208.59"/>
</g>
<!-- Node15 -->
<g id="node15" class="node">
<title>Node15</title>
<g id="a_node15"><a xlink:href="DebugLocStream_8cpp.html" target="_top" xlink:title=" ">
<polygon fill="none" stroke="black" points="824,-134.5 824,-164.5 957,-164.5 957,-134.5 824,-134.5"/>
<text text-anchor="start" x="832" y="-152.5" font-family="Helvetica,sans-Serif" font-size="10.00">lib/CodeGen/AsmPrinter</text>
<text text-anchor="middle" x="890.5" y="-141.5" font-family="Helvetica,sans-Serif" font-size="10.00">/DebugLocStream.cpp</text>
</a>
</g>
</g>
<!-- Node3&#45;&gt;Node15 -->
<g id="edge18" class="edge">
<title>Node3&#45;&gt;Node15</title>
<path fill="none" stroke="midnightblue" d="M795.37,-196.99C816.45,-186.69 842.28,-174.07 861.7,-164.58"/>
<polygon fill="midnightblue" stroke="midnightblue" points="793.81,-193.86 786.36,-201.4 796.88,-200.15 793.81,-193.86"/>
</g>
<!-- Node5 -->
<g id="node5" class="node">
<title>Node5</title>
<g id="a_node5"><a xlink:href="AccelTable_8cpp.html" target="_top" xlink:title=" ">
<polygon fill="none" stroke="black" points="814,-0.5 814,-30.5 947,-30.5 947,-0.5 814,-0.5"/>
<text text-anchor="start" x="822" y="-18.5" font-family="Helvetica,sans-Serif" font-size="10.00">lib/CodeGen/AsmPrinter</text>
<text text-anchor="middle" x="880.5" y="-7.5" font-family="Helvetica,sans-Serif" font-size="10.00">/AccelTable.cpp</text>
</a>
</g>
</g>
<!-- Node4&#45;&gt;Node5 -->
<g id="edge4" class="edge">
<title>Node4&#45;&gt;Node5</title>
<path fill="none" stroke="midnightblue" d="M967.95,-62.71C948.55,-52.46 924.94,-39.98 907.14,-30.58"/>
<polygon fill="midnightblue" stroke="midnightblue" points="966.33,-65.82 976.81,-67.4 969.6,-59.63 966.33,-65.82"/>
</g>
<!-- Node4&#45;&gt;Node6 -->
<g id="edge5" class="edge">
<title>Node4&#45;&gt;Node6</title>
<path fill="none" stroke="midnightblue" d="M926.64,-75.93C828.08,-68.28 652.03,-52.94 502.5,-31 499.74,-30.6 496.94,-30.16 494.1,-29.7"/>
<polygon fill="midnightblue" stroke="midnightblue" points="926.57,-79.43 936.81,-76.71 927.11,-72.45 926.57,-79.43"/>
</g>
<!-- Node4&#45;&gt;Node7 -->
<g id="edge6" class="edge">
<title>Node4&#45;&gt;Node7</title>
<path fill="none" stroke="midnightblue" d="M926.71,-71.49C855.68,-61.98 747.26,-46.82 653.5,-31 650.75,-30.54 647.95,-30.05 645.13,-29.55"/>
<polygon fill="midnightblue" stroke="midnightblue" points="926.53,-75 936.91,-72.85 927.46,-68.06 926.53,-75"/>
</g>
<!-- Node8 -->
<g id="node8" class="node">
<title>Node8</title>
<g id="a_node8"><a xlink:href="DwarfCompileUnit_8cpp.html" target="_top" xlink:title=" ">
<polygon fill="none" stroke="black" points="965,-0.5 965,-30.5 1098,-30.5 1098,-0.5 965,-0.5"/>
<text text-anchor="start" x="973" y="-18.5" font-family="Helvetica,sans-Serif" font-size="10.00">lib/CodeGen/AsmPrinter</text>
<text text-anchor="middle" x="1031.5" y="-7.5" font-family="Helvetica,sans-Serif" font-size="10.00">/DwarfCompileUnit.cpp</text>
</a>
</g>
</g>
<!-- Node4&#45;&gt;Node8 -->
<g id="edge7" class="edge">
<title>Node4&#45;&gt;Node8</title>
<path fill="none" stroke="midnightblue" d="M1013.63,-57.99C1017.58,-48.8 1021.99,-38.58 1025.44,-30.58"/>
<polygon fill="midnightblue" stroke="midnightblue" points="1010.32,-56.83 1009.58,-67.4 1016.75,-59.6 1010.32,-56.83"/>
</g>
<!-- Node4&#45;&gt;Node9 -->
<g id="edge8" class="edge">
<title>Node4&#45;&gt;Node9</title>
<path fill="none" stroke="midnightblue" d="M1080.1,-72.08C1192.99,-58.17 1392.51,-33.52 1408.5,-31 1411.55,-30.52 1414.67,-30.01 1417.81,-29.47"/>
<polygon fill="midnightblue" stroke="midnightblue" points="1079.62,-68.61 1070.12,-73.31 1080.48,-75.56 1079.62,-68.61"/>
</g>
<!-- Node10 -->
<g id="node10" class="node">
<title>Node10</title>
<g id="a_node10"><a xlink:href="DwarfExpression_8cpp.html" target="_top" xlink:title=" ">
<polygon fill="none" stroke="black" points="1116,-0.5 1116,-30.5 1249,-30.5 1249,-0.5 1116,-0.5"/>
<text text-anchor="start" x="1124" y="-18.5" font-family="Helvetica,sans-Serif" font-size="10.00">lib/CodeGen/AsmPrinter</text>
<text text-anchor="middle" x="1182.5" y="-7.5" font-family="Helvetica,sans-Serif" font-size="10.00">/DwarfExpression.cpp</text>
</a>
</g>
</g>
<!-- Node4&#45;&gt;Node10 -->
<g id="edge9" class="edge">
<title>Node4&#45;&gt;Node10</title>
<path fill="none" stroke="midnightblue" d="M1051.82,-63.96C1080.65,-53.48 1116.78,-40.37 1143.74,-30.58"/>
<polygon fill="midnightblue" stroke="midnightblue" points="1050.55,-60.69 1042.34,-67.4 1052.93,-67.27 1050.55,-60.69"/>
</g>
<!-- Node4&#45;&gt;Node11 -->
<g id="edge10" class="edge">
<title>Node4&#45;&gt;Node11</title>
<path fill="none" stroke="midnightblue" d="M934.45,-65.12C889.61,-54.48 831.78,-40.76 788.98,-30.61"/>
<polygon fill="midnightblue" stroke="midnightblue" points="933.85,-68.57 944.38,-67.48 935.46,-61.76 933.85,-68.57"/>
</g>
<!-- Node12 -->
<g id="node12" class="node">
<title>Node12</title>
<g id="a_node12"><a xlink:href="DwarfUnit_8cpp.html" target="_top" xlink:title=" ">
<polygon fill="none" stroke="black" points="1267,-0.5 1267,-30.5 1400,-30.5 1400,-0.5 1267,-0.5"/>
<text text-anchor="start" x="1275" y="-18.5" font-family="Helvetica,sans-Serif" font-size="10.00">lib/CodeGen/AsmPrinter</text>
<text text-anchor="middle" x="1333.5" y="-7.5" font-family="Helvetica,sans-Serif" font-size="10.00">/DwarfUnit.cpp</text>
</a>
</g>
</g>
<!-- Node4&#45;&gt;Node12 -->
<g id="edge11" class="edge">
<title>Node4&#45;&gt;Node12</title>
<path fill="none" stroke="midnightblue" d="M1080.24,-66.38C1136.75,-55.25 1212.84,-40.27 1266.82,-29.63"/>
<polygon fill="midnightblue" stroke="midnightblue" points="1079.42,-62.98 1070.28,-68.35 1080.77,-69.85 1079.42,-62.98"/>
</g>
<!-- Node13&#45;&gt;Node4 -->
<g id="edge13" class="edge">
<title>Node13&#45;&gt;Node4</title>
<path fill="none" stroke="midnightblue" d="M1028.1,-125.58C1022.64,-116.24 1016.51,-105.75 1011.73,-97.58"/>
<polygon fill="midnightblue" stroke="midnightblue" points="1025.19,-127.53 1033.25,-134.4 1031.23,-124 1025.19,-127.53"/>
</g>
<!-- Node13&#45;&gt;Node9 -->
<g id="edge14" class="edge">
<title>Node13&#45;&gt;Node9</title>
<path fill="none" stroke="midnightblue" d="M1072,-128.62C1085.95,-119.42 1102.65,-108.28 1117.5,-98 1136.87,-84.59 1138.66,-75.83 1160.5,-67 1263.75,-25.23 1298.66,-49.44 1408.5,-31 1411.55,-30.49 1414.66,-29.95 1417.8,-29.4"/>
<polygon fill="midnightblue" stroke="midnightblue" points="1069.7,-125.94 1063.27,-134.35 1073.55,-131.79 1069.7,-125.94"/>
</g>
<!-- Node13&#45;&gt;Node11 -->
<g id="edge15" class="edge">
<title>Node13&#45;&gt;Node11</title>
<path fill="none" stroke="midnightblue" d="M999.17,-130.59C936.37,-104.02 819.8,-54.7 762.72,-30.56"/>
<polygon fill="midnightblue" stroke="midnightblue" points="997.83,-133.83 1008.41,-134.5 1000.56,-127.38 997.83,-133.83"/>
</g>
<!-- Node13&#45;&gt;Node12 -->
<g id="edge16" class="edge">
<title>Node13&#45;&gt;Node12</title>
<path fill="none" stroke="midnightblue" d="M1057.72,-126.34C1072.54,-107.71 1096.1,-81.82 1122.5,-67 1135.23,-59.85 1209.89,-42.85 1266.83,-30.54"/>
<polygon fill="midnightblue" stroke="midnightblue" points="1054.9,-124.27 1051.55,-134.32 1060.44,-128.55 1054.9,-124.27"/>
</g>
<!-- Node16&#45;&gt;Node14 -->
<g id="edge24" class="edge">
<title>Node16&#45;&gt;Node14</title>
<path fill="none" stroke="midnightblue" d="M217.5,-191.11C217.5,-182.15 217.5,-172.32 217.5,-164.58"/>
<polygon fill="midnightblue" stroke="midnightblue" points="214,-191.4 217.5,-201.4 221,-191.4 214,-191.4"/>
</g>
<!-- Node16&#45;&gt;Node17 -->
<g id="edge25" class="edge">
<title>Node16&#45;&gt;Node17</title>
<path fill="none" stroke="midnightblue" d="M175.47,-197.41C151.36,-187.03 121.55,-174.2 99.2,-164.58"/>
<polygon fill="midnightblue" stroke="midnightblue" points="174.17,-200.66 184.74,-201.4 176.93,-194.23 174.17,-200.66"/>
</g>
<!-- Node20 -->
<g id="node20" class="node">
<title>Node20</title>
<g id="a_node20"><a xlink:href="BPFAsmPrinter_8cpp.html" target="_top" xlink:title=" ">
<polygon fill="none" stroke="black" points="477,-140 477,-159 654,-159 654,-140 477,-140"/>
<text text-anchor="middle" x="565.5" y="-147" font-family="Helvetica,sans-Serif" font-size="10.00">lib/Target/BPF/BPFAsmPrinter.cpp</text>
</a>
</g>
</g>
<!-- Node19&#45;&gt;Node20 -->
<g id="edge28" class="edge">
<title>Node19&#45;&gt;Node20</title>
<path fill="none" stroke="midnightblue" d="M565.5,-196.54C565.5,-184.17 565.5,-168.62 565.5,-159.13"/>
<polygon fill="midnightblue" stroke="midnightblue" points="562,-196.73 565.5,-206.73 569,-196.73 562,-196.73"/>
</g>
<!-- Node21 -->
<g id="node21" class="node">
<title>Node21</title>
<g id="a_node21"><a xlink:href="BTFDebug_8cpp.html" target="_top" xlink:title=" ">
<polygon fill="none" stroke="black" points="302,-140 302,-159 459,-159 459,-140 302,-140"/>
<text text-anchor="middle" x="380.5" y="-147" font-family="Helvetica,sans-Serif" font-size="10.00">lib/Target/BPF/BTFDebug.cpp</text>
</a>
</g>
</g>
<!-- Node19&#45;&gt;Node21 -->
<g id="edge29" class="edge">
<title>Node19&#45;&gt;Node21</title>
<path fill="none" stroke="midnightblue" d="M531.16,-203.44C494.46,-190.54 437.21,-170.42 404.87,-159.06"/>
<polygon fill="midnightblue" stroke="midnightblue" points="530.34,-206.86 540.93,-206.87 532.66,-200.25 530.34,-206.86"/>
</g>
<!-- Node25&#45;&gt;Node24 -->
<g id="edge37" class="edge">
<title>Node25&#45;&gt;Node24</title>
<path fill="none" stroke="midnightblue" d="M1718.08,-260.74C1709.95,-251.12 1700.61,-240.09 1693.41,-231.58"/>
<polygon fill="midnightblue" stroke="midnightblue" points="1715.43,-263.02 1724.57,-268.4 1720.78,-258.5 1715.43,-263.02"/>
</g>
</g>
</svg>
