<?xml version="1.0" encoding="UTF-8" standalone="no"?>
<!DOCTYPE svg PUBLIC "-//W3C//DTD SVG 1.1//EN"
 "http://www.w3.org/Graphics/SVG/1.1/DTD/svg11.dtd">
<!-- Generated by graphviz version 2.43.0 (0)
 -->
<!-- Title: include/llvm/Support/LineIterator.h Pages: 1 -->
<svg width="2563pt" height="240pt"
 viewBox="0.00 0.00 2563.00 240.00" xmlns="http://www.w3.org/2000/svg" xmlns:xlink="http://www.w3.org/1999/xlink">
<g id="graph0" class="graph" transform="scale(1 1) rotate(0) translate(4 236)">
<title>include/llvm/Support/LineIterator.h</title>
<!-- Node1 -->
<g id="node1" class="node">
<title>Node1</title>
<g id="a_node1"><a xlink:title=" ">
<polygon fill="#bfbfbf" stroke="black" points="1526,-201.5 1526,-231.5 1643,-231.5 1643,-201.5 1526,-201.5"/>
<text text-anchor="start" x="1534" y="-219.5" font-family="Helvetica,sans-Serif" font-size="10.00">include/llvm/Support</text>
<text text-anchor="middle" x="1584.5" y="-208.5" font-family="Helvetica,sans-Serif" font-size="10.00">/LineIterator.h</text>
</a>
</g>
</g>
<!-- Node2 -->
<g id="node2" class="node">
<title>Node2</title>
<g id="a_node2"><a xlink:href="BasicBlockSectionsProfileReader_8h.html" target="_top" xlink:title=" ">
<polygon fill="none" stroke="black" points="400.5,-134.5 400.5,-164.5 588.5,-164.5 588.5,-134.5 400.5,-134.5"/>
<text text-anchor="start" x="408.5" y="-152.5" font-family="Helvetica,sans-Serif" font-size="10.00">include/llvm/CodeGen</text>
<text text-anchor="middle" x="494.5" y="-141.5" font-family="Helvetica,sans-Serif" font-size="10.00">/BasicBlockSectionsProfileReader.h</text>
</a>
</g>
</g>
<!-- Node1&#45;&gt;Node2 -->
<g id="edge1" class="edge">
<title>Node1&#45;&gt;Node2</title>
<path fill="none" stroke="midnightblue" d="M1515.86,-211.41C1327.75,-200.19 803.74,-168.94 588.56,-156.11"/>
<polygon fill="midnightblue" stroke="midnightblue" points="1515.71,-214.9 1525.9,-212.01 1516.12,-207.92 1515.71,-214.9"/>
</g>
<!-- Node4 -->
<g id="node4" class="node">
<title>Node4</title>
<g id="a_node4"><a xlink:href="BasicBlockSectionsProfileReader_8cpp.html" target="_top" xlink:title=" ">
<polygon fill="none" stroke="black" points="0,-67.5 0,-97.5 173,-97.5 173,-67.5 0,-67.5"/>
<text text-anchor="start" x="8" y="-85.5" font-family="Helvetica,sans-Serif" font-size="10.00">lib/CodeGen/BasicBlockSections</text>
<text text-anchor="middle" x="86.5" y="-74.5" font-family="Helvetica,sans-Serif" font-size="10.00">ProfileReader.cpp</text>
</a>
</g>
</g>
<!-- Node1&#45;&gt;Node4 -->
<g id="edge14" class="edge">
<title>Node1&#45;&gt;Node4</title>
<path fill="none" stroke="midnightblue" d="M1515.58,-214.56C1295.39,-211.26 610.49,-198.48 391.5,-165 295.33,-150.3 185.89,-116.8 127.82,-97.64"/>
<polygon fill="midnightblue" stroke="midnightblue" points="1515.66,-218.06 1525.71,-214.71 1515.77,-211.06 1515.66,-218.06"/>
</g>
<!-- Node7 -->
<g id="node7" class="node">
<title>Node7</title>
<g id="a_node7"><a xlink:href="InstrProfReader_8h.html" target="_top" xlink:title=" ">
<polygon fill="none" stroke="black" points="956.5,-134.5 956.5,-164.5 1090.5,-164.5 1090.5,-134.5 956.5,-134.5"/>
<text text-anchor="start" x="964.5" y="-152.5" font-family="Helvetica,sans-Serif" font-size="10.00">include/llvm/ProfileData</text>
<text text-anchor="middle" x="1023.5" y="-141.5" font-family="Helvetica,sans-Serif" font-size="10.00">/InstrProfReader.h</text>
</a>
</g>
</g>
<!-- Node1&#45;&gt;Node7 -->
<g id="edge6" class="edge">
<title>Node1&#45;&gt;Node7</title>
<path fill="none" stroke="midnightblue" d="M1515.58,-210.1C1421.51,-202.33 1247.75,-186.51 1100.5,-165 1097.27,-164.53 1093.97,-164.02 1090.64,-163.48"/>
<polygon fill="midnightblue" stroke="midnightblue" points="1515.57,-213.61 1525.82,-210.94 1516.14,-206.64 1515.57,-213.61"/>
</g>
<!-- Node14 -->
<g id="node14" class="node">
<title>Node14</title>
<g id="a_node14"><a xlink:href="ReplayInlineAdvisor_8cpp.html" target="_top" xlink:title=" ">
<polygon fill="none" stroke="black" points="1109,-134.5 1109,-164.5 1246,-164.5 1246,-134.5 1109,-134.5"/>
<text text-anchor="start" x="1117" y="-152.5" font-family="Helvetica,sans-Serif" font-size="10.00">lib/Analysis/ReplayInline</text>
<text text-anchor="middle" x="1177.5" y="-141.5" font-family="Helvetica,sans-Serif" font-size="10.00">Advisor.cpp</text>
</a>
</g>
</g>
<!-- Node1&#45;&gt;Node14 -->
<g id="edge13" class="edge">
<title>Node1&#45;&gt;Node14</title>
<path fill="none" stroke="midnightblue" d="M1515.91,-205.61C1449.29,-195.86 1345.32,-180.24 1255.5,-165 1252.51,-164.49 1249.46,-163.97 1246.38,-163.43"/>
<polygon fill="midnightblue" stroke="midnightblue" points="1515.47,-209.09 1525.87,-207.07 1516.48,-202.16 1515.47,-209.09"/>
</g>
<!-- Node15 -->
<g id="node15" class="node">
<title>Node15</title>
<g id="a_node15"><a xlink:href="MIRParser_8cpp.html" target="_top" xlink:title=" ">
<polygon fill="none" stroke="black" points="1264.5,-134.5 1264.5,-164.5 1392.5,-164.5 1392.5,-134.5 1264.5,-134.5"/>
<text text-anchor="start" x="1272.5" y="-152.5" font-family="Helvetica,sans-Serif" font-size="10.00">lib/CodeGen/MIRParser</text>
<text text-anchor="middle" x="1328.5" y="-141.5" font-family="Helvetica,sans-Serif" font-size="10.00">/MIRParser.cpp</text>
</a>
</g>
</g>
<!-- Node1&#45;&gt;Node15 -->
<g id="edge15" class="edge">
<title>Node1&#45;&gt;Node15</title>
<path fill="none" stroke="midnightblue" d="M1519.45,-198.98C1477.64,-188.37 1423.89,-174.72 1384.08,-164.61"/>
<polygon fill="midnightblue" stroke="midnightblue" points="1518.71,-202.41 1529.27,-201.48 1520.44,-195.62 1518.71,-202.41"/>
</g>
<!-- Node16 -->
<g id="node16" class="node">
<title>Node16</title>
<g id="a_node16"><a xlink:href="IFSHandler_8cpp.html" target="_top" xlink:title=" ">
<polygon fill="none" stroke="black" points="1410.5,-140 1410.5,-159 1582.5,-159 1582.5,-140 1410.5,-140"/>
<text text-anchor="middle" x="1496.5" y="-147" font-family="Helvetica,sans-Serif" font-size="10.00">lib/InterfaceStub/IFSHandler.cpp</text>
</a>
</g>
</g>
<!-- Node1&#45;&gt;Node16 -->
<g id="edge16" class="edge">
<title>Node1&#45;&gt;Node16</title>
<path fill="none" stroke="midnightblue" d="M1557.16,-195.31C1540.64,-183.1 1520.43,-168.18 1508.02,-159.01"/>
<polygon fill="midnightblue" stroke="midnightblue" points="1555.28,-198.27 1565.41,-201.4 1559.44,-192.64 1555.28,-198.27"/>
</g>
<!-- Node17 -->
<g id="node17" class="node">
<title>Node17</title>
<g id="a_node17"><a xlink:href="SampleProfReader_8cpp.html" target="_top" xlink:title=" ">
<polygon fill="none" stroke="black" points="1601,-134.5 1601,-164.5 1746,-164.5 1746,-134.5 1601,-134.5"/>
<text text-anchor="start" x="1609" y="-152.5" font-family="Helvetica,sans-Serif" font-size="10.00">lib/ProfileData/SampleProf</text>
<text text-anchor="middle" x="1673.5" y="-141.5" font-family="Helvetica,sans-Serif" font-size="10.00">Reader.cpp</text>
</a>
</g>
</g>
<!-- Node1&#45;&gt;Node17 -->
<g id="edge17" class="edge">
<title>Node1&#45;&gt;Node17</title>
<path fill="none" stroke="midnightblue" d="M1611.95,-195.45C1625.64,-185.45 1641.87,-173.6 1654.23,-164.58"/>
<polygon fill="midnightblue" stroke="midnightblue" points="1609.82,-192.67 1603.81,-201.4 1613.95,-198.32 1609.82,-192.67"/>
</g>
<!-- Node18 -->
<g id="node18" class="node">
<title>Node18</title>
<g id="a_node18"><a xlink:href="LineIterator_8cpp.html" target="_top" xlink:title=" ">
<polygon fill="none" stroke="black" points="1764.5,-140 1764.5,-159 1912.5,-159 1912.5,-140 1764.5,-140"/>
<text text-anchor="middle" x="1838.5" y="-147" font-family="Helvetica,sans-Serif" font-size="10.00">lib/Support/LineIterator.cpp</text>
</a>
</g>
</g>
<!-- Node1&#45;&gt;Node18 -->
<g id="edge18" class="edge">
<title>Node1&#45;&gt;Node18</title>
<path fill="none" stroke="midnightblue" d="M1649.02,-198.99C1698.79,-186.25 1765.63,-169.15 1805.17,-159.03"/>
<polygon fill="midnightblue" stroke="midnightblue" points="1648.12,-195.61 1639.3,-201.48 1649.86,-202.39 1648.12,-195.61"/>
</g>
<!-- Node19 -->
<g id="node19" class="node">
<title>Node19</title>
<g id="a_node19"><a xlink:href="SymbolRemappingReader_8cpp.html" target="_top" xlink:title=" ">
<polygon fill="none" stroke="black" points="1930.5,-134.5 1930.5,-164.5 2094.5,-164.5 2094.5,-134.5 1930.5,-134.5"/>
<text text-anchor="start" x="1938.5" y="-152.5" font-family="Helvetica,sans-Serif" font-size="10.00">lib/Support/SymbolRemapping</text>
<text text-anchor="middle" x="2012.5" y="-141.5" font-family="Helvetica,sans-Serif" font-size="10.00">Reader.cpp</text>
</a>
</g>
</g>
<!-- Node1&#45;&gt;Node19 -->
<g id="edge19" class="edge">
<title>Node1&#45;&gt;Node19</title>
<path fill="none" stroke="midnightblue" d="M1653.45,-205.36C1721.58,-195.29 1828.77,-179.34 1921.5,-165 1924.35,-164.56 1927.24,-164.11 1930.17,-163.65"/>
<polygon fill="midnightblue" stroke="midnightblue" points="1652.65,-201.94 1643.27,-206.86 1653.68,-208.86 1652.65,-201.94"/>
</g>
<!-- Node20 -->
<g id="node20" class="node">
<title>Node20</title>
<g id="a_node20"><a xlink:href="YAMLTraits_8cpp.html" target="_top" xlink:title=" ">
<polygon fill="none" stroke="black" points="2112.5,-140 2112.5,-159 2256.5,-159 2256.5,-140 2112.5,-140"/>
<text text-anchor="middle" x="2184.5" y="-147" font-family="Helvetica,sans-Serif" font-size="10.00">lib/Support/YAMLTraits.cpp</text>
</a>
</g>
</g>
<!-- Node1&#45;&gt;Node20 -->
<g id="edge20" class="edge">
<title>Node1&#45;&gt;Node20</title>
<path fill="none" stroke="midnightblue" d="M1653.28,-210.57C1752.85,-203.04 1942.83,-187.16 2103.5,-165 2115.53,-163.34 2128.5,-161.18 2140.46,-159.04"/>
<polygon fill="midnightblue" stroke="midnightblue" points="1652.76,-207.1 1643.05,-211.34 1653.29,-214.08 1652.76,-207.1"/>
</g>
<!-- Node21 -->
<g id="node21" class="node">
<title>Node21</title>
<g id="a_node21"><a xlink:href="BTFDebug_8cpp.html" target="_top" xlink:title=" ">
<polygon fill="none" stroke="black" points="2275,-140 2275,-159 2432,-159 2432,-140 2275,-140"/>
<text text-anchor="middle" x="2353.5" y="-147" font-family="Helvetica,sans-Serif" font-size="10.00">lib/Target/BPF/BTFDebug.cpp</text>
</a>
</g>
</g>
<!-- Node1&#45;&gt;Node21 -->
<g id="edge21" class="edge">
<title>Node1&#45;&gt;Node21</title>
<path fill="none" stroke="midnightblue" d="M1653.47,-212.42C1776.66,-206.48 2042.51,-191.59 2265.5,-165 2278.88,-163.41 2293.32,-161.22 2306.57,-159.03"/>
<polygon fill="midnightblue" stroke="midnightblue" points="1653.25,-208.93 1643.42,-212.9 1653.58,-215.92 1653.25,-208.93"/>
</g>
<!-- Node22 -->
<g id="node22" class="node">
<title>Node22</title>
<g id="a_node22"><a xlink:href="Internalize_8cpp.html" target="_top" xlink:title=" ">
<polygon fill="none" stroke="black" points="2450,-134.5 2450,-164.5 2555,-164.5 2555,-134.5 2450,-134.5"/>
<text text-anchor="start" x="2458" y="-152.5" font-family="Helvetica,sans-Serif" font-size="10.00">lib/Transforms/IPO</text>
<text text-anchor="middle" x="2502.5" y="-141.5" font-family="Helvetica,sans-Serif" font-size="10.00">/Internalize.cpp</text>
</a>
</g>
</g>
<!-- Node1&#45;&gt;Node22 -->
<g id="edge22" class="edge">
<title>Node1&#45;&gt;Node22</title>
<path fill="none" stroke="midnightblue" d="M1653.2,-215.5C1799.16,-214.63 2150.62,-207.81 2441.5,-165 2444.19,-164.6 2446.94,-164.15 2449.71,-163.64"/>
<polygon fill="midnightblue" stroke="midnightblue" points="1653.03,-212.01 1643.05,-215.56 1653.07,-219.01 1653.03,-212.01"/>
</g>
<!-- Node3 -->
<g id="node3" class="node">
<title>Node3</title>
<g id="a_node3"><a xlink:href="BasicBlockSections_8cpp.html" target="_top" xlink:title=" ">
<polygon fill="none" stroke="black" points="191.5,-73 191.5,-92 385.5,-92 385.5,-73 191.5,-73"/>
<text text-anchor="middle" x="288.5" y="-80" font-family="Helvetica,sans-Serif" font-size="10.00">lib/CodeGen/BasicBlockSections.cpp</text>
</a>
</g>
</g>
<!-- Node2&#45;&gt;Node3 -->
<g id="edge2" class="edge">
<title>Node2&#45;&gt;Node3</title>
<path fill="none" stroke="midnightblue" d="M440.4,-131.43C400.23,-118.75 347.13,-102 315.53,-92.03"/>
<polygon fill="midnightblue" stroke="midnightblue" points="439.46,-134.8 450.05,-134.48 441.57,-128.13 439.46,-134.8"/>
</g>
<!-- Node2&#45;&gt;Node4 -->
<g id="edge3" class="edge">
<title>Node2&#45;&gt;Node4</title>
<path fill="none" stroke="midnightblue" d="M396.18,-132.84C328.22,-122.01 238.64,-107.74 173.32,-97.33"/>
<polygon fill="midnightblue" stroke="midnightblue" points="396.05,-136.36 406.47,-134.48 397.15,-129.45 396.05,-136.36"/>
</g>
<!-- Node5 -->
<g id="node5" class="node">
<title>Node5</title>
<g id="a_node5"><a xlink:href="CodeGenPrepare_8cpp.html" target="_top" xlink:title=" ">
<polygon fill="none" stroke="black" points="404,-73 404,-92 585,-92 585,-73 404,-73"/>
<text text-anchor="middle" x="494.5" y="-80" font-family="Helvetica,sans-Serif" font-size="10.00">lib/CodeGen/CodeGenPrepare.cpp</text>
</a>
</g>
</g>
<!-- Node2&#45;&gt;Node5 -->
<g id="edge4" class="edge">
<title>Node2&#45;&gt;Node5</title>
<path fill="none" stroke="midnightblue" d="M494.5,-124.25C494.5,-113.02 494.5,-100.38 494.5,-92.19"/>
<polygon fill="midnightblue" stroke="midnightblue" points="491,-124.4 494.5,-134.4 498,-124.4 491,-124.4"/>
</g>
<!-- Node6 -->
<g id="node6" class="node">
<title>Node6</title>
<g id="a_node6"><a xlink:href="TargetPassConfig_8cpp.html" target="_top" xlink:title=" ">
<polygon fill="none" stroke="black" points="603.5,-73 603.5,-92 785.5,-92 785.5,-73 603.5,-73"/>
<text text-anchor="middle" x="694.5" y="-80" font-family="Helvetica,sans-Serif" font-size="10.00">lib/CodeGen/TargetPassConfig.cpp</text>
</a>
</g>
</g>
<!-- Node2&#45;&gt;Node6 -->
<g id="edge5" class="edge">
<title>Node2&#45;&gt;Node6</title>
<path fill="none" stroke="midnightblue" d="M547.52,-131.27C586.49,-118.6 637.78,-101.93 668.32,-92.01"/>
<polygon fill="midnightblue" stroke="midnightblue" points="546.33,-127.98 537.9,-134.4 548.49,-134.63 546.33,-127.98"/>
</g>
<!-- Node8 -->
<g id="node8" class="node">
<title>Node8</title>
<g id="a_node8"><a xlink:href="RawMemProfReader_8h.html" target="_top" xlink:title=" ">
<polygon fill="none" stroke="black" points="803.5,-67.5 803.5,-97.5 937.5,-97.5 937.5,-67.5 803.5,-67.5"/>
<text text-anchor="start" x="811.5" y="-85.5" font-family="Helvetica,sans-Serif" font-size="10.00">include/llvm/ProfileData</text>
<text text-anchor="middle" x="870.5" y="-74.5" font-family="Helvetica,sans-Serif" font-size="10.00">/RawMemProfReader.h</text>
</a>
</g>
</g>
<!-- Node7&#45;&gt;Node8 -->
<g id="edge7" class="edge">
<title>Node7&#45;&gt;Node8</title>
<path fill="none" stroke="midnightblue" d="M980.91,-130.41C956.48,-120.03 926.28,-107.2 903.63,-97.58"/>
<polygon fill="midnightblue" stroke="midnightblue" points="979.73,-133.71 990.3,-134.4 982.47,-127.26 979.73,-133.71"/>
</g>
<!-- Node10 -->
<g id="node10" class="node">
<title>Node10</title>
<g id="a_node10"><a xlink:href="CoverageMapping_8cpp.html" target="_top" xlink:title=" ">
<polygon fill="none" stroke="black" points="956,-67.5 956,-97.5 1091,-97.5 1091,-67.5 956,-67.5"/>
<text text-anchor="start" x="964" y="-85.5" font-family="Helvetica,sans-Serif" font-size="10.00">lib/ProfileData/Coverage</text>
<text text-anchor="middle" x="1023.5" y="-74.5" font-family="Helvetica,sans-Serif" font-size="10.00">/CoverageMapping.cpp</text>
</a>
</g>
</g>
<!-- Node7&#45;&gt;Node10 -->
<g id="edge9" class="edge">
<title>Node7&#45;&gt;Node10</title>
<path fill="none" stroke="midnightblue" d="M1023.5,-124.11C1023.5,-115.15 1023.5,-105.32 1023.5,-97.58"/>
<polygon fill="midnightblue" stroke="midnightblue" points="1020,-124.4 1023.5,-134.4 1027,-124.4 1020,-124.4"/>
</g>
<!-- Node11 -->
<g id="node11" class="node">
<title>Node11</title>
<g id="a_node11"><a xlink:href="InstrProf_8cpp.html" target="_top" xlink:title=" ">
<polygon fill="none" stroke="black" points="1109,-73 1109,-92 1258,-92 1258,-73 1109,-73"/>
<text text-anchor="middle" x="1183.5" y="-80" font-family="Helvetica,sans-Serif" font-size="10.00">lib/ProfileData/InstrProf.cpp</text>
</a>
</g>
</g>
<!-- Node7&#45;&gt;Node11 -->
<g id="edge10" class="edge">
<title>Node7&#45;&gt;Node11</title>
<path fill="none" stroke="midnightblue" d="M1067.51,-130.62C1098.48,-118.04 1138.54,-101.77 1162.56,-92.01"/>
<polygon fill="midnightblue" stroke="midnightblue" points="1066.16,-127.39 1058.22,-134.4 1068.8,-133.87 1066.16,-127.39"/>
</g>
<!-- Node12 -->
<g id="node12" class="node">
<title>Node12</title>
<g id="a_node12"><a xlink:href="InstrProfReader_8cpp.html" target="_top" xlink:title=" ">
<polygon fill="none" stroke="black" points="1276.5,-67.5 1276.5,-97.5 1406.5,-97.5 1406.5,-67.5 1276.5,-67.5"/>
<text text-anchor="start" x="1284.5" y="-85.5" font-family="Helvetica,sans-Serif" font-size="10.00">lib/ProfileData/InstrProf</text>
<text text-anchor="middle" x="1341.5" y="-74.5" font-family="Helvetica,sans-Serif" font-size="10.00">Reader.cpp</text>
</a>
</g>
</g>
<!-- Node7&#45;&gt;Node12 -->
<g id="edge11" class="edge">
<title>Node7&#45;&gt;Node12</title>
<path fill="none" stroke="midnightblue" d="M1100.4,-132.78C1154.25,-121.78 1225.41,-107.23 1276.44,-96.8"/>
<polygon fill="midnightblue" stroke="midnightblue" points="1099.65,-129.36 1090.55,-134.79 1101.05,-136.22 1099.65,-129.36"/>
</g>
<!-- Node13 -->
<g id="node13" class="node">
<title>Node13</title>
<g id="a_node13"><a xlink:href="PGOInstrumentation_8cpp.html" target="_top" xlink:title=" ">
<polygon fill="none" stroke="black" points="1425,-67.5 1425,-97.5 1592,-97.5 1592,-67.5 1425,-67.5"/>
<text text-anchor="start" x="1433" y="-85.5" font-family="Helvetica,sans-Serif" font-size="10.00">lib/Transforms/Instrumentation</text>
<text text-anchor="middle" x="1508.5" y="-74.5" font-family="Helvetica,sans-Serif" font-size="10.00">/PGOInstrumentation.cpp</text>
</a>
</g>
</g>
<!-- Node7&#45;&gt;Node13 -->
<g id="edge12" class="edge">
<title>Node7&#45;&gt;Node13</title>
<path fill="none" stroke="midnightblue" d="M1100.95,-134.01C1241.58,-113.12 1279.13,-116.42 1415.5,-98 1418.58,-97.58 1421.71,-97.15 1424.87,-96.7"/>
<polygon fill="midnightblue" stroke="midnightblue" points="1100.01,-130.61 1090.64,-135.56 1101.05,-137.54 1100.01,-130.61"/>
</g>
<!-- Node9 -->
<g id="node9" class="node">
<title>Node9</title>
<g id="a_node9"><a xlink:href="RawMemProfReader_8cpp.html" target="_top" xlink:title=" ">
<polygon fill="none" stroke="black" points="793.5,-0.5 793.5,-30.5 947.5,-30.5 947.5,-0.5 793.5,-0.5"/>
<text text-anchor="start" x="801.5" y="-18.5" font-family="Helvetica,sans-Serif" font-size="10.00">lib/ProfileData/RawMemProf</text>
<text text-anchor="middle" x="870.5" y="-7.5" font-family="Helvetica,sans-Serif" font-size="10.00">Reader.cpp</text>
</a>
</g>
</g>
<!-- Node8&#45;&gt;Node9 -->
<g id="edge8" class="edge">
<title>Node8&#45;&gt;Node9</title>
<path fill="none" stroke="midnightblue" d="M870.5,-57.11C870.5,-48.15 870.5,-38.32 870.5,-30.58"/>
<polygon fill="midnightblue" stroke="midnightblue" points="867,-57.4 870.5,-67.4 874,-57.4 867,-57.4"/>
</g>
</g>
</svg>
