<?xml version="1.0" encoding="UTF-8" standalone="no"?>
<!DOCTYPE svg PUBLIC "-//W3C//DTD SVG 1.1//EN"
 "http://www.w3.org/Graphics/SVG/1.1/DTD/svg11.dtd">
<!-- Generated by graphviz version 2.43.0 (0)
 -->
<!-- Title: include/llvm/LineEditor/LineEditor.h Pages: 1 -->
<svg width="2158pt" height="319pt"
 viewBox="0.00 0.00 2158.00 319.00" xmlns="http://www.w3.org/2000/svg" xmlns:xlink="http://www.w3.org/1999/xlink">
<g id="graph0" class="graph" transform="scale(1 1) rotate(0) translate(4 315)">
<title>include/llvm/LineEditor/LineEditor.h</title>
<!-- Node1 -->
<g id="node1" class="node">
<title>Node1</title>
<g id="a_node1"><a xlink:title=" ">
<polygon fill="#bfbfbf" stroke="black" points="1870.5,-280.5 1870.5,-310.5 1998.5,-310.5 1998.5,-280.5 1870.5,-280.5"/>
<text text-anchor="start" x="1878.5" y="-298.5" font-family="Helvetica,sans-Serif" font-size="10.00">include/llvm/LineEditor</text>
<text text-anchor="middle" x="1934.5" y="-287.5" font-family="Helvetica,sans-Serif" font-size="10.00">/LineEditor.h</text>
</a>
</g>
</g>
<!-- Node2 -->
<g id="node2" class="node">
<title>Node2</title>
<g id="a_node2"><a xlink:href="Optional_8h.html" target="_top" xlink:title=" ">
<polygon fill="none" stroke="black" points="595,-224.5 595,-243.5 710,-243.5 710,-224.5 595,-224.5"/>
<text text-anchor="middle" x="652.5" y="-231.5" font-family="Helvetica,sans-Serif" font-size="10.00">llvm/ADT/Optional.h</text>
</a>
</g>
</g>
<!-- Node1&#45;&gt;Node2 -->
<g id="edge1" class="edge">
<title>Node1&#45;&gt;Node2</title>
<path fill="none" stroke="midnightblue" d="M1870.49,-291.53C1652.98,-281.43 943.51,-248.51 720.34,-238.15"/>
<polygon fill="midnightblue" stroke="midnightblue" points="720.23,-234.64 710.08,-237.67 719.91,-241.63 720.23,-234.64"/>
</g>
<!-- Node19 -->
<g id="node19" class="node">
<title>Node19</title>
<g id="a_node19"><a xlink:title=" ">
<polygon fill="none" stroke="#bfbfbf" points="1574,-56.5 1574,-75.5 1619,-75.5 1619,-56.5 1574,-56.5"/>
<text text-anchor="middle" x="1596.5" y="-63.5" font-family="Helvetica,sans-Serif" font-size="10.00">utility</text>
</a>
</g>
</g>
<!-- Node1&#45;&gt;Node19 -->
<g id="edge61" class="edge">
<title>Node1&#45;&gt;Node19</title>
<path fill="none" stroke="midnightblue" d="M1934.27,-280.37C1932.89,-245.62 1924.13,-155.65 1871.5,-112 1831.46,-78.79 1695.84,-86.7 1629.18,-75.86"/>
<polygon fill="midnightblue" stroke="midnightblue" points="1629.57,-72.37 1619.1,-73.95 1628.27,-79.25 1629.57,-72.37"/>
</g>
<!-- Node23 -->
<g id="node23" class="node">
<title>Node23</title>
<g id="a_node23"><a xlink:title=" ">
<polygon fill="none" stroke="#bfbfbf" points="908.5,-112.5 908.5,-131.5 952.5,-131.5 952.5,-112.5 908.5,-112.5"/>
<text text-anchor="middle" x="930.5" y="-119.5" font-family="Helvetica,sans-Serif" font-size="10.00">string</text>
</a>
</g>
</g>
<!-- Node1&#45;&gt;Node23 -->
<g id="edge60" class="edge">
<title>Node1&#45;&gt;Node23</title>
<path fill="none" stroke="midnightblue" d="M1870.3,-290.08C1734.03,-279.78 1406.39,-250.21 1138.5,-188 1074.97,-173.25 1002.68,-148.89 962.24,-134.55"/>
<polygon fill="midnightblue" stroke="midnightblue" points="963.26,-131.2 952.67,-131.13 960.91,-137.79 963.26,-131.2"/>
</g>
<!-- Node28 -->
<g id="node28" class="node">
<title>Node28</title>
<g id="a_node28"><a xlink:href="StringRef_8h.html" target="_top" xlink:title=" ">
<polygon fill="none" stroke="black" points="1147.5,-168.5 1147.5,-187.5 1265.5,-187.5 1265.5,-168.5 1147.5,-168.5"/>
<text text-anchor="middle" x="1206.5" y="-175.5" font-family="Helvetica,sans-Serif" font-size="10.00">llvm/ADT/StringRef.h</text>
</a>
</g>
</g>
<!-- Node1&#45;&gt;Node28 -->
<g id="edge35" class="edge">
<title>Node1&#45;&gt;Node28</title>
<path fill="none" stroke="midnightblue" d="M1870.21,-284.3C1732.07,-262.38 1408.3,-211.02 1270.46,-189.15"/>
<polygon fill="midnightblue" stroke="midnightblue" points="1270.89,-185.67 1260.46,-187.56 1269.79,-192.59 1270.89,-185.67"/>
</g>
<!-- Node33 -->
<g id="node33" class="node">
<title>Node33</title>
<g id="a_node33"><a xlink:title=" ">
<polygon fill="none" stroke="#bfbfbf" points="1962.5,-224.5 1962.5,-243.5 2008.5,-243.5 2008.5,-224.5 1962.5,-224.5"/>
<text text-anchor="middle" x="1985.5" y="-231.5" font-family="Helvetica,sans-Serif" font-size="10.00">cstdio</text>
</a>
</g>
</g>
<!-- Node1&#45;&gt;Node33 -->
<g id="edge58" class="edge">
<title>Node1&#45;&gt;Node33</title>
<path fill="none" stroke="midnightblue" d="M1946.59,-280.4C1954.07,-271.66 1963.72,-260.41 1971.53,-251.3"/>
<polygon fill="midnightblue" stroke="midnightblue" points="1974.23,-253.53 1978.08,-243.66 1968.91,-248.97 1974.23,-253.53"/>
</g>
<!-- Node34 -->
<g id="node34" class="node">
<title>Node34</title>
<g id="a_node34"><a xlink:title=" ">
<polygon fill="none" stroke="#bfbfbf" points="2026.5,-224.5 2026.5,-243.5 2084.5,-243.5 2084.5,-224.5 2026.5,-224.5"/>
<text text-anchor="middle" x="2055.5" y="-231.5" font-family="Helvetica,sans-Serif" font-size="10.00">memory</text>
</a>
</g>
</g>
<!-- Node1&#45;&gt;Node34 -->
<g id="edge59" class="edge">
<title>Node1&#45;&gt;Node34</title>
<path fill="none" stroke="midnightblue" d="M1963.18,-280.4C1983.02,-270.64 2009.26,-257.74 2028.69,-248.18"/>
<polygon fill="midnightblue" stroke="midnightblue" points="2030.46,-251.21 2037.89,-243.66 2027.38,-244.93 2030.46,-251.21"/>
</g>
<!-- Node35 -->
<g id="node35" class="node">
<title>Node35</title>
<g id="a_node35"><a xlink:title=" ">
<polygon fill="none" stroke="#bfbfbf" points="2103,-224.5 2103,-243.5 2150,-243.5 2150,-224.5 2103,-224.5"/>
<text text-anchor="middle" x="2126.5" y="-231.5" font-family="Helvetica,sans-Serif" font-size="10.00">vector</text>
</a>
</g>
</g>
<!-- Node1&#45;&gt;Node35 -->
<g id="edge62" class="edge">
<title>Node1&#45;&gt;Node35</title>
<path fill="none" stroke="midnightblue" d="M1980,-280.4C2014.82,-269.61 2062.04,-254.98 2093.34,-245.27"/>
<polygon fill="midnightblue" stroke="midnightblue" points="2094.4,-248.61 2102.91,-242.31 2092.33,-241.93 2094.4,-248.61"/>
</g>
<!-- Node3 -->
<g id="node3" class="node">
<title>Node3</title>
<g id="a_node3"><a xlink:href="Hashing_8h.html" target="_top" xlink:title=" ">
<polygon fill="none" stroke="black" points="713,-168.5 713,-187.5 826,-187.5 826,-168.5 713,-168.5"/>
<text text-anchor="middle" x="769.5" y="-175.5" font-family="Helvetica,sans-Serif" font-size="10.00">llvm/ADT/Hashing.h</text>
</a>
</g>
</g>
<!-- Node2&#45;&gt;Node3 -->
<g id="edge2" class="edge">
<title>Node2&#45;&gt;Node3</title>
<path fill="none" stroke="midnightblue" d="M671.04,-224.44C690.12,-215.64 720.07,-201.81 741.94,-191.72"/>
<polygon fill="midnightblue" stroke="midnightblue" points="743.43,-194.88 751.05,-187.52 740.5,-188.53 743.43,-194.88"/>
</g>
<!-- Node10 -->
<g id="node10" class="node">
<title>Node10</title>
<g id="a_node10"><a xlink:href="Compiler_8h.html" target="_top" xlink:title=" ">
<polygon fill="none" stroke="black" points="327.5,-56.5 327.5,-75.5 461.5,-75.5 461.5,-56.5 327.5,-56.5"/>
<text text-anchor="middle" x="394.5" y="-63.5" font-family="Helvetica,sans-Serif" font-size="10.00">llvm/Support/Compiler.h</text>
</a>
</g>
</g>
<!-- Node2&#45;&gt;Node10 -->
<g id="edge30" class="edge">
<title>Node2&#45;&gt;Node10</title>
<path fill="none" stroke="midnightblue" d="M594.65,-228.05C488.8,-217.67 270.65,-189.65 225.5,-132 196.33,-94.76 259.83,-78.84 317.15,-72.05"/>
<polygon fill="midnightblue" stroke="midnightblue" points="317.83,-75.49 327.38,-70.92 317.06,-68.54 317.83,-75.49"/>
</g>
<!-- Node18 -->
<g id="node18" class="node">
<title>Node18</title>
<g id="a_node18"><a xlink:href="type__traits_8h.html" target="_top" xlink:title=" ">
<polygon fill="none" stroke="black" points="449,-112.5 449,-131.5 592,-131.5 592,-112.5 449,-112.5"/>
<text text-anchor="middle" x="520.5" y="-119.5" font-family="Helvetica,sans-Serif" font-size="10.00">llvm/Support/type_traits.h</text>
</a>
</g>
</g>
<!-- Node2&#45;&gt;Node18 -->
<g id="edge31" class="edge">
<title>Node2&#45;&gt;Node18</title>
<path fill="none" stroke="midnightblue" d="M594.61,-227.28C544.32,-220.98 477.04,-208.86 460.5,-188 445.66,-169.28 471.01,-149.31 493.19,-136.52"/>
<polygon fill="midnightblue" stroke="midnightblue" points="494.97,-139.53 502.06,-131.66 491.61,-133.39 494.97,-139.53"/>
</g>
<!-- Node2&#45;&gt;Node19 -->
<g id="edge34" class="edge">
<title>Node2&#45;&gt;Node19</title>
<path fill="none" stroke="midnightblue" d="M710.22,-232.65C939.57,-230.68 1777.73,-217.62 1855.5,-132 1861.48,-125.42 1861.27,-118.76 1855.5,-112 1823.93,-75.06 1692.51,-85.83 1629.04,-75.8"/>
<polygon fill="midnightblue" stroke="midnightblue" points="1629.58,-72.34 1619.1,-73.92 1628.28,-79.22 1629.58,-72.34"/>
</g>
<!-- Node21 -->
<g id="node21" class="node">
<title>Node21</title>
<g id="a_node21"><a xlink:title=" ">
<polygon fill="none" stroke="#bfbfbf" points="640.5,-56.5 640.5,-75.5 692.5,-75.5 692.5,-56.5 640.5,-56.5"/>
<text text-anchor="middle" x="666.5" y="-63.5" font-family="Helvetica,sans-Serif" font-size="10.00">cassert</text>
</a>
</g>
</g>
<!-- Node2&#45;&gt;Node21 -->
<g id="edge32" class="edge">
<title>Node2&#45;&gt;Node21</title>
<path fill="none" stroke="midnightblue" d="M653.25,-224.08C655.46,-197.95 661.93,-121.21 664.93,-85.58"/>
<polygon fill="midnightblue" stroke="midnightblue" points="668.42,-85.83 665.78,-75.57 661.45,-85.24 668.42,-85.83"/>
</g>
<!-- Node25 -->
<g id="node25" class="node">
<title>Node25</title>
<g id="a_node25"><a xlink:href="None_8h.html" target="_top" xlink:title=" ">
<polygon fill="none" stroke="black" points="470,-168.5 470,-187.5 569,-187.5 569,-168.5 470,-168.5"/>
<text text-anchor="middle" x="519.5" y="-175.5" font-family="Helvetica,sans-Serif" font-size="10.00">llvm/ADT/None.h</text>
</a>
</g>
</g>
<!-- Node2&#45;&gt;Node25 -->
<g id="edge27" class="edge">
<title>Node2&#45;&gt;Node25</title>
<path fill="none" stroke="midnightblue" d="M631.43,-224.44C609.44,-215.52 574.77,-201.44 549.84,-191.32"/>
<polygon fill="midnightblue" stroke="midnightblue" points="551.06,-188.04 540.48,-187.52 548.42,-194.52 551.06,-188.04"/>
</g>
<!-- Node26 -->
<g id="node26" class="node">
<title>Node26</title>
<g id="a_node26"><a xlink:href="STLForwardCompat_8h.html" target="_top" xlink:title=" ">
<polygon fill="none" stroke="black" points="1636.5,-56.5 1636.5,-75.5 1804.5,-75.5 1804.5,-56.5 1636.5,-56.5"/>
<text text-anchor="middle" x="1720.5" y="-63.5" font-family="Helvetica,sans-Serif" font-size="10.00">llvm/ADT/STLForwardCompat.h</text>
</a>
</g>
</g>
<!-- Node2&#45;&gt;Node26 -->
<g id="edge28" class="edge">
<title>Node2&#45;&gt;Node26</title>
<path fill="none" stroke="midnightblue" d="M710.02,-233C903.13,-232.6 1527.16,-228.18 1723.5,-188 1792.4,-173.9 1831.53,-189.86 1871.5,-132 1891.85,-102.54 1855.98,-86.34 1814.11,-77.48"/>
<polygon fill="midnightblue" stroke="midnightblue" points="1814.72,-74.04 1804.24,-75.54 1813.37,-80.91 1814.72,-74.04"/>
</g>
<!-- Node27 -->
<g id="node27" class="node">
<title>Node27</title>
<g id="a_node27"><a xlink:title=" ">
<polygon fill="none" stroke="#bfbfbf" points="587,-168.5 587,-187.5 624,-187.5 624,-168.5 587,-168.5"/>
<text text-anchor="middle" x="605.5" y="-175.5" font-family="Helvetica,sans-Serif" font-size="10.00">new</text>
</a>
</g>
</g>
<!-- Node2&#45;&gt;Node27 -->
<g id="edge33" class="edge">
<title>Node2&#45;&gt;Node27</title>
<path fill="none" stroke="midnightblue" d="M644.74,-224.08C637.96,-216.3 627.96,-204.8 619.74,-195.37"/>
<polygon fill="midnightblue" stroke="midnightblue" points="622.32,-193 613.12,-187.75 617.04,-197.59 622.32,-193"/>
</g>
<!-- Node4 -->
<g id="node4" class="node">
<title>Node4</title>
<g id="a_node4"><a xlink:href="Support_2DataTypes_8h.html" target="_top" xlink:title=" ">
<polygon fill="none" stroke="black" points="36.5,-112.5 36.5,-131.5 178.5,-131.5 178.5,-112.5 36.5,-112.5"/>
<text text-anchor="middle" x="107.5" y="-119.5" font-family="Helvetica,sans-Serif" font-size="10.00">llvm/Support/DataTypes.h</text>
</a>
</g>
</g>
<!-- Node3&#45;&gt;Node4 -->
<g id="edge3" class="edge">
<title>Node3&#45;&gt;Node4</title>
<path fill="none" stroke="midnightblue" d="M712.77,-172.37C595.35,-162.79 325.26,-140.76 189.11,-129.66"/>
<polygon fill="midnightblue" stroke="midnightblue" points="189,-126.14 178.75,-128.81 188.43,-133.11 189,-126.14"/>
</g>
<!-- Node9 -->
<g id="node9" class="node">
<title>Node9</title>
<g id="a_node9"><a xlink:href="Support_2ErrorHandling_8h.html" target="_top" xlink:title=" ">
<polygon fill="none" stroke="black" points="234.5,-112.5 234.5,-131.5 392.5,-131.5 392.5,-112.5 234.5,-112.5"/>
<text text-anchor="middle" x="313.5" y="-119.5" font-family="Helvetica,sans-Serif" font-size="10.00">llvm/Support/ErrorHandling.h</text>
</a>
</g>
</g>
<!-- Node3&#45;&gt;Node9 -->
<g id="edge8" class="edge">
<title>Node3&#45;&gt;Node9</title>
<path fill="none" stroke="midnightblue" d="M712.67,-170.27C632.82,-160.81 486.95,-143.54 395.4,-132.7"/>
<polygon fill="midnightblue" stroke="midnightblue" points="395.68,-129.21 385.34,-131.51 394.85,-136.16 395.68,-129.21"/>
</g>
<!-- Node13 -->
<g id="node13" class="node">
<title>Node13</title>
<g id="a_node13"><a xlink:href="SwapByteOrder_8h.html" target="_top" xlink:title=" ">
<polygon fill="none" stroke="black" points="686.5,-112.5 686.5,-131.5 852.5,-131.5 852.5,-112.5 686.5,-112.5"/>
<text text-anchor="middle" x="769.5" y="-119.5" font-family="Helvetica,sans-Serif" font-size="10.00">llvm/Support/SwapByteOrder.h</text>
</a>
</g>
</g>
<!-- Node3&#45;&gt;Node13 -->
<g id="edge12" class="edge">
<title>Node3&#45;&gt;Node13</title>
<path fill="none" stroke="midnightblue" d="M769.5,-168.08C769.5,-161.01 769.5,-150.86 769.5,-141.99"/>
<polygon fill="midnightblue" stroke="midnightblue" points="773,-141.75 769.5,-131.75 766,-141.75 773,-141.75"/>
</g>
<!-- Node3&#45;&gt;Node18 -->
<g id="edge17" class="edge">
<title>Node3&#45;&gt;Node18</title>
<path fill="none" stroke="midnightblue" d="M730.05,-168.44C686.61,-159.02 616.71,-143.87 569.72,-133.68"/>
<polygon fill="midnightblue" stroke="midnightblue" points="570.28,-130.22 559.77,-131.52 568.8,-137.06 570.28,-130.22"/>
</g>
<!-- Node3&#45;&gt;Node19 -->
<g id="edge26" class="edge">
<title>Node3&#45;&gt;Node19</title>
<path fill="none" stroke="midnightblue" d="M826.17,-175.63C1005.13,-171.06 1548.12,-155.33 1577.5,-132 1591.15,-121.16 1595.36,-101.09 1596.49,-86.1"/>
<polygon fill="midnightblue" stroke="midnightblue" points="1600,-85.99 1596.86,-75.87 1593,-85.74 1600,-85.99"/>
</g>
<!-- Node20 -->
<g id="node20" class="node">
<title>Node20</title>
<g id="a_node20"><a xlink:title=" ">
<polygon fill="none" stroke="#bfbfbf" points="970.5,-112.5 970.5,-131.5 1034.5,-131.5 1034.5,-112.5 970.5,-112.5"/>
<text text-anchor="middle" x="1002.5" y="-119.5" font-family="Helvetica,sans-Serif" font-size="10.00">algorithm</text>
</a>
</g>
</g>
<!-- Node3&#45;&gt;Node20 -->
<g id="edge21" class="edge">
<title>Node3&#45;&gt;Node20</title>
<path fill="none" stroke="midnightblue" d="M806.42,-168.44C848.32,-158.73 916.54,-142.92 960.46,-132.74"/>
<polygon fill="midnightblue" stroke="midnightblue" points="961.3,-136.14 970.26,-130.47 959.72,-129.32 961.3,-136.14"/>
</g>
<!-- Node3&#45;&gt;Node21 -->
<g id="edge22" class="edge">
<title>Node3&#45;&gt;Node21</title>
<path fill="none" stroke="midnightblue" d="M734.63,-168.48C714.84,-161.83 691.34,-150.52 677.5,-132 667.65,-118.82 665.39,-99.95 665.31,-85.93"/>
<polygon fill="midnightblue" stroke="midnightblue" points="668.82,-85.63 665.63,-75.53 661.82,-85.42 668.82,-85.63"/>
</g>
<!-- Node22 -->
<g id="node22" class="node">
<title>Node22</title>
<g id="a_node22"><a xlink:title=" ">
<polygon fill="none" stroke="#bfbfbf" points="1052.5,-112.5 1052.5,-131.5 1102.5,-131.5 1102.5,-112.5 1052.5,-112.5"/>
<text text-anchor="middle" x="1077.5" y="-119.5" font-family="Helvetica,sans-Serif" font-size="10.00">cstring</text>
</a>
</g>
</g>
<!-- Node3&#45;&gt;Node22 -->
<g id="edge23" class="edge">
<title>Node3&#45;&gt;Node22</title>
<path fill="none" stroke="midnightblue" d="M826.21,-169.31C879.66,-161.69 962.15,-149 1042.52,-132.04"/>
<polygon fill="midnightblue" stroke="midnightblue" points="1043.26,-135.46 1052.31,-129.96 1041.8,-128.62 1043.26,-135.46"/>
</g>
<!-- Node3&#45;&gt;Node23 -->
<g id="edge24" class="edge">
<title>Node3&#45;&gt;Node23</title>
<path fill="none" stroke="midnightblue" d="M795.01,-168.44C823.05,-159.04 868.14,-143.91 898.53,-133.72"/>
<polygon fill="midnightblue" stroke="midnightblue" points="899.85,-136.97 908.22,-130.47 897.63,-130.33 899.85,-136.97"/>
</g>
<!-- Node24 -->
<g id="node24" class="node">
<title>Node24</title>
<g id="a_node24"><a xlink:title=" ">
<polygon fill="none" stroke="#bfbfbf" points="1268,-56.5 1268,-75.5 1309,-75.5 1309,-56.5 1268,-56.5"/>
<text text-anchor="middle" x="1288.5" y="-63.5" font-family="Helvetica,sans-Serif" font-size="10.00">tuple</text>
</a>
</g>
</g>
<!-- Node3&#45;&gt;Node24 -->
<g id="edge25" class="edge">
<title>Node3&#45;&gt;Node24</title>
<path fill="none" stroke="midnightblue" d="M787.56,-168.36C806.17,-159.41 835.97,-144.96 861.5,-132 878.52,-123.36 881.22,-117.5 899.5,-112 1050.33,-66.65 1099.89,-106.29 1257.67,-75.99"/>
<polygon fill="midnightblue" stroke="midnightblue" points="1258.59,-79.38 1267.72,-74 1257.23,-72.51 1258.59,-79.38"/>
</g>
<!-- Node5 -->
<g id="node5" class="node">
<title>Node5</title>
<g id="a_node5"><a xlink:href="c_2DataTypes_8h.html" target="_top" xlink:title=" ">
<polygon fill="none" stroke="black" points="52.5,-56.5 52.5,-75.5 162.5,-75.5 162.5,-56.5 52.5,-56.5"/>
<text text-anchor="middle" x="107.5" y="-63.5" font-family="Helvetica,sans-Serif" font-size="10.00">llvm&#45;c/DataTypes.h</text>
</a>
</g>
</g>
<!-- Node4&#45;&gt;Node5 -->
<g id="edge4" class="edge">
<title>Node4&#45;&gt;Node5</title>
<path fill="none" stroke="midnightblue" d="M107.5,-112.08C107.5,-105.01 107.5,-94.86 107.5,-85.99"/>
<polygon fill="midnightblue" stroke="midnightblue" points="111,-85.75 107.5,-75.75 104,-85.75 111,-85.75"/>
</g>
<!-- Node6 -->
<g id="node6" class="node">
<title>Node6</title>
<g id="a_node6"><a xlink:title=" ">
<polygon fill="none" stroke="#bfbfbf" points="162,-0.5 162,-19.5 227,-19.5 227,-0.5 162,-0.5"/>
<text text-anchor="middle" x="194.5" y="-7.5" font-family="Helvetica,sans-Serif" font-size="10.00">inttypes.h</text>
</a>
</g>
</g>
<!-- Node5&#45;&gt;Node6 -->
<g id="edge5" class="edge">
<title>Node5&#45;&gt;Node6</title>
<path fill="none" stroke="midnightblue" d="M121.48,-56.32C135.05,-47.9 155.88,-34.97 171.82,-25.07"/>
<polygon fill="midnightblue" stroke="midnightblue" points="173.91,-27.9 180.56,-19.65 170.21,-21.95 173.91,-27.9"/>
</g>
<!-- Node7 -->
<g id="node7" class="node">
<title>Node7</title>
<g id="a_node7"><a xlink:title=" ">
<polygon fill="none" stroke="#bfbfbf" points="0,-0.5 0,-19.5 53,-19.5 53,-0.5 0,-0.5"/>
<text text-anchor="middle" x="26.5" y="-7.5" font-family="Helvetica,sans-Serif" font-size="10.00">stdint.h</text>
</a>
</g>
</g>
<!-- Node5&#45;&gt;Node7 -->
<g id="edge6" class="edge">
<title>Node5&#45;&gt;Node7</title>
<path fill="none" stroke="midnightblue" d="M94.49,-56.32C81.97,-47.98 62.82,-35.21 48.03,-25.35"/>
<polygon fill="midnightblue" stroke="midnightblue" points="49.74,-22.29 39.48,-19.65 45.86,-28.11 49.74,-22.29"/>
</g>
<!-- Node8 -->
<g id="node8" class="node">
<title>Node8</title>
<g id="a_node8"><a xlink:title=" ">
<polygon fill="none" stroke="#bfbfbf" points="71.5,-0.5 71.5,-19.5 143.5,-19.5 143.5,-0.5 71.5,-0.5"/>
<text text-anchor="middle" x="107.5" y="-7.5" font-family="Helvetica,sans-Serif" font-size="10.00">sys/types.h</text>
</a>
</g>
</g>
<!-- Node5&#45;&gt;Node8 -->
<g id="edge7" class="edge">
<title>Node5&#45;&gt;Node8</title>
<path fill="none" stroke="midnightblue" d="M107.5,-56.08C107.5,-49.01 107.5,-38.86 107.5,-29.99"/>
<polygon fill="midnightblue" stroke="midnightblue" points="111,-29.75 107.5,-19.75 104,-29.75 111,-29.75"/>
</g>
<!-- Node9&#45;&gt;Node10 -->
<g id="edge9" class="edge">
<title>Node9&#45;&gt;Node10</title>
<path fill="none" stroke="midnightblue" d="M326.51,-112.32C339.03,-103.98 358.18,-91.21 372.97,-81.35"/>
<polygon fill="midnightblue" stroke="midnightblue" points="375.14,-84.11 381.52,-75.65 371.26,-78.29 375.14,-84.11"/>
</g>
<!-- Node11 -->
<g id="node11" class="node">
<title>Node11</title>
<g id="a_node11"><a xlink:title=" ">
<polygon fill="none" stroke="#bfbfbf" points="298,-0.5 298,-19.5 437,-19.5 437,-0.5 298,-0.5"/>
<text text-anchor="middle" x="367.5" y="-7.5" font-family="Helvetica,sans-Serif" font-size="10.00">llvm/Config/llvm&#45;config.h</text>
</a>
</g>
</g>
<!-- Node10&#45;&gt;Node11 -->
<g id="edge10" class="edge">
<title>Node10&#45;&gt;Node11</title>
<path fill="none" stroke="midnightblue" d="M390.04,-56.08C386.35,-48.69 380.98,-37.95 376.41,-28.81"/>
<polygon fill="midnightblue" stroke="midnightblue" points="379.48,-27.13 371.88,-19.75 373.22,-30.26 379.48,-27.13"/>
</g>
<!-- Node12 -->
<g id="node12" class="node">
<title>Node12</title>
<g id="a_node12"><a xlink:title=" ">
<polygon fill="none" stroke="#bfbfbf" points="455.5,-0.5 455.5,-19.5 511.5,-19.5 511.5,-0.5 455.5,-0.5"/>
<text text-anchor="middle" x="483.5" y="-7.5" font-family="Helvetica,sans-Serif" font-size="10.00">stddef.h</text>
</a>
</g>
</g>
<!-- Node10&#45;&gt;Node12 -->
<g id="edge11" class="edge">
<title>Node10&#45;&gt;Node12</title>
<path fill="none" stroke="midnightblue" d="M408.8,-56.32C422.68,-47.9 443.99,-34.97 460.3,-25.07"/>
<polygon fill="midnightblue" stroke="midnightblue" points="462.5,-27.83 469.24,-19.65 458.87,-21.85 462.5,-27.83"/>
</g>
<!-- Node14 -->
<g id="node14" class="node">
<title>Node14</title>
<g id="a_node14"><a xlink:title=" ">
<polygon fill="none" stroke="#bfbfbf" points="1197,-56.5 1197,-75.5 1250,-75.5 1250,-56.5 1197,-56.5"/>
<text text-anchor="middle" x="1223.5" y="-63.5" font-family="Helvetica,sans-Serif" font-size="10.00">cstddef</text>
</a>
</g>
</g>
<!-- Node13&#45;&gt;Node14 -->
<g id="edge13" class="edge">
<title>Node13&#45;&gt;Node14</title>
<path fill="none" stroke="midnightblue" d="M841.19,-112.47C939.19,-100.82 1111.39,-80.33 1186.6,-71.39"/>
<polygon fill="midnightblue" stroke="midnightblue" points="1187.46,-74.81 1196.98,-70.15 1186.63,-67.86 1187.46,-74.81"/>
</g>
<!-- Node15 -->
<g id="node15" class="node">
<title>Node15</title>
<g id="a_node15"><a xlink:title=" ">
<polygon fill="none" stroke="#bfbfbf" points="1327.5,-56.5 1327.5,-75.5 1377.5,-75.5 1377.5,-56.5 1327.5,-56.5"/>
<text text-anchor="middle" x="1352.5" y="-63.5" font-family="Helvetica,sans-Serif" font-size="10.00">cstdint</text>
</a>
</g>
</g>
<!-- Node13&#45;&gt;Node15 -->
<g id="edge14" class="edge">
<title>Node13&#45;&gt;Node15</title>
<path fill="none" stroke="midnightblue" d="M852.63,-115C987.35,-105.17 1244.83,-85.85 1317.07,-75.78"/>
<polygon fill="midnightblue" stroke="midnightblue" points="1318.01,-79.17 1327.36,-74.19 1316.94,-72.26 1318.01,-79.17"/>
</g>
<!-- Node16 -->
<g id="node16" class="node">
<title>Node16</title>
<g id="a_node16"><a xlink:title=" ">
<polygon fill="none" stroke="#bfbfbf" points="1134,-0.5 1134,-19.5 1203,-19.5 1203,-0.5 1134,-0.5"/>
<text text-anchor="middle" x="1168.5" y="-7.5" font-family="Helvetica,sans-Serif" font-size="10.00">type_traits</text>
</a>
</g>
</g>
<!-- Node13&#45;&gt;Node16 -->
<g id="edge15" class="edge">
<title>Node13&#45;&gt;Node16</title>
<path fill="none" stroke="midnightblue" d="M800.48,-112.46C871.85,-92.78 1047.88,-44.25 1127.83,-22.21"/>
<polygon fill="midnightblue" stroke="midnightblue" points="1128.83,-25.57 1137.54,-19.53 1126.97,-18.82 1128.83,-25.57"/>
</g>
<!-- Node17 -->
<g id="node17" class="node">
<title>Node17</title>
<g id="a_node17"><a xlink:title=" ">
<polygon fill="none" stroke="#bfbfbf" points="717.5,-56.5 717.5,-75.5 821.5,-75.5 821.5,-56.5 717.5,-56.5"/>
<text text-anchor="middle" x="769.5" y="-63.5" font-family="Helvetica,sans-Serif" font-size="10.00">machine/endian.h</text>
</a>
</g>
</g>
<!-- Node13&#45;&gt;Node17 -->
<g id="edge16" class="edge">
<title>Node13&#45;&gt;Node17</title>
<path fill="none" stroke="midnightblue" d="M769.5,-112.08C769.5,-105.01 769.5,-94.86 769.5,-85.99"/>
<polygon fill="midnightblue" stroke="midnightblue" points="773,-85.75 769.5,-75.75 766,-85.75 773,-85.75"/>
</g>
<!-- Node18&#45;&gt;Node10 -->
<g id="edge18" class="edge">
<title>Node18&#45;&gt;Node10</title>
<path fill="none" stroke="midnightblue" d="M500.53,-112.44C479.89,-103.6 447.44,-89.69 423.87,-79.59"/>
<polygon fill="midnightblue" stroke="midnightblue" points="424.94,-76.24 414.37,-75.52 422.18,-82.67 424.94,-76.24"/>
</g>
<!-- Node18&#45;&gt;Node16 -->
<g id="edge19" class="edge">
<title>Node18&#45;&gt;Node16</title>
<path fill="none" stroke="midnightblue" d="M531.36,-112.36C550.37,-97.79 591.48,-68.67 631.5,-56 722.76,-27.1 1011.29,-15.65 1123.36,-12.22"/>
<polygon fill="midnightblue" stroke="midnightblue" points="1123.75,-15.71 1133.65,-11.91 1123.55,-8.71 1123.75,-15.71"/>
</g>
<!-- Node18&#45;&gt;Node19 -->
<g id="edge20" class="edge">
<title>Node18&#45;&gt;Node19</title>
<path fill="none" stroke="midnightblue" d="M592.01,-116.77C618.82,-115.22 649.56,-113.49 677.5,-112 1024,-93.59 1444.13,-74.02 1563.47,-68.52"/>
<polygon fill="midnightblue" stroke="midnightblue" points="1563.93,-72 1573.76,-68.04 1563.61,-65.01 1563.93,-72"/>
</g>
<!-- Node26&#45;&gt;Node16 -->
<g id="edge29" class="edge">
<title>Node26&#45;&gt;Node16</title>
<path fill="none" stroke="midnightblue" d="M1636.36,-56.77C1517.65,-45.16 1305.21,-24.37 1213.11,-15.36"/>
<polygon fill="midnightblue" stroke="midnightblue" points="1213.31,-11.87 1203.01,-14.38 1212.62,-18.83 1213.31,-11.87"/>
</g>
<!-- Node28&#45;&gt;Node10 -->
<g id="edge49" class="edge">
<title>Node28&#45;&gt;Node10</title>
<path fill="none" stroke="midnightblue" d="M1147.2,-174.94C972.52,-168.67 470.21,-149.25 439.5,-132 421.22,-121.73 408.74,-100.57 401.64,-85.18"/>
<polygon fill="midnightblue" stroke="midnightblue" points="404.71,-83.48 397.58,-75.65 398.27,-86.22 404.71,-83.48"/>
</g>
<!-- Node28&#45;&gt;Node14 -->
<g id="edge52" class="edge">
<title>Node28&#45;&gt;Node14</title>
<path fill="none" stroke="midnightblue" d="M1207.83,-168.37C1210.58,-150.62 1216.91,-109.67 1220.63,-85.6"/>
<polygon fill="midnightblue" stroke="midnightblue" points="1224.1,-86.01 1222.17,-75.59 1217.19,-84.94 1224.1,-86.01"/>
</g>
<!-- Node28&#45;&gt;Node16 -->
<g id="edge56" class="edge">
<title>Node28&#45;&gt;Node16</title>
<path fill="none" stroke="midnightblue" d="M1204.46,-168.08C1198.48,-141.95 1180.91,-65.21 1172.75,-29.58"/>
<polygon fill="midnightblue" stroke="midnightblue" points="1176.1,-28.53 1170.46,-19.57 1169.28,-30.1 1176.1,-28.53"/>
</g>
<!-- Node28&#45;&gt;Node19 -->
<g id="edge57" class="edge">
<title>Node28&#45;&gt;Node19</title>
<path fill="none" stroke="midnightblue" d="M1265.63,-177.27C1415.45,-177.35 1800.87,-173.47 1839.5,-132 1845.56,-125.5 1845.24,-118.79 1839.5,-112 1810.41,-77.56 1688.99,-85.56 1629.18,-75.84"/>
<polygon fill="midnightblue" stroke="midnightblue" points="1629.59,-72.36 1619.11,-73.89 1628.26,-79.23 1629.59,-72.36"/>
</g>
<!-- Node28&#45;&gt;Node20 -->
<g id="edge50" class="edge">
<title>Node28&#45;&gt;Node20</title>
<path fill="none" stroke="midnightblue" d="M1174.18,-168.44C1139.11,-159.16 1083,-144.31 1044.54,-134.13"/>
<polygon fill="midnightblue" stroke="midnightblue" points="1045.24,-130.69 1034.67,-131.52 1043.44,-137.46 1045.24,-130.69"/>
</g>
<!-- Node28&#45;&gt;Node21 -->
<g id="edge51" class="edge">
<title>Node28&#45;&gt;Node21</title>
<path fill="none" stroke="midnightblue" d="M1197.44,-168.36C1181.52,-153.8 1146.86,-124.69 1111.5,-112 942.25,-51.26 886.3,-102.89 708.5,-76 706.56,-75.71 704.58,-75.38 702.59,-75.03"/>
<polygon fill="midnightblue" stroke="midnightblue" points="703.1,-71.56 692.62,-73.11 701.78,-78.44 703.1,-71.56"/>
</g>
<!-- Node28&#45;&gt;Node22 -->
<g id="edge53" class="edge">
<title>Node28&#45;&gt;Node22</title>
<path fill="none" stroke="midnightblue" d="M1186.06,-168.44C1164.83,-159.56 1131.4,-145.56 1107.25,-135.45"/>
<polygon fill="midnightblue" stroke="midnightblue" points="1108.42,-132.15 1097.84,-131.52 1105.72,-138.61 1108.42,-132.15"/>
</g>
<!-- Node28&#45;&gt;Node23 -->
<g id="edge55" class="edge">
<title>Node28&#45;&gt;Node23</title>
<path fill="none" stroke="midnightblue" d="M1151.19,-168.48C1103.56,-160.77 1032.81,-148.44 962.67,-132.09"/>
<polygon fill="midnightblue" stroke="midnightblue" points="963.32,-128.65 952.78,-129.76 961.71,-135.46 963.32,-128.65"/>
</g>
<!-- Node29 -->
<g id="node29" class="node">
<title>Node29</title>
<g id="a_node29"><a xlink:href="DenseMapInfo_8h.html" target="_top" xlink:title=" ">
<polygon fill="none" stroke="black" points="1234.5,-112.5 1234.5,-131.5 1378.5,-131.5 1378.5,-112.5 1234.5,-112.5"/>
<text text-anchor="middle" x="1306.5" y="-119.5" font-family="Helvetica,sans-Serif" font-size="10.00">llvm/ADT/DenseMapInfo.h</text>
</a>
</g>
</g>
<!-- Node28&#45;&gt;Node29 -->
<g id="edge36" class="edge">
<title>Node28&#45;&gt;Node29</title>
<path fill="none" stroke="midnightblue" d="M1222.57,-168.32C1238.46,-159.74 1263.01,-146.49 1281.46,-136.52"/>
<polygon fill="midnightblue" stroke="midnightblue" points="1283.34,-139.49 1290.47,-131.65 1280.01,-133.33 1283.34,-139.49"/>
</g>
<!-- Node30 -->
<g id="node30" class="node">
<title>Node30</title>
<g id="a_node30"><a xlink:href="STLFunctionalExtras_8h.html" target="_top" xlink:title=" ">
<polygon fill="none" stroke="black" points="1396.5,-112.5 1396.5,-131.5 1568.5,-131.5 1568.5,-112.5 1396.5,-112.5"/>
<text text-anchor="middle" x="1482.5" y="-119.5" font-family="Helvetica,sans-Serif" font-size="10.00">llvm/ADT/STLFunctionalExtras.h</text>
</a>
</g>
</g>
<!-- Node28&#45;&gt;Node30 -->
<g id="edge42" class="edge">
<title>Node28&#45;&gt;Node30</title>
<path fill="none" stroke="midnightblue" d="M1250.23,-168.44C1298.68,-158.96 1376.83,-143.67 1428.92,-133.48"/>
<polygon fill="midnightblue" stroke="midnightblue" points="1429.83,-136.87 1438.97,-131.52 1428.49,-130 1429.83,-136.87"/>
</g>
<!-- Node31 -->
<g id="node31" class="node">
<title>Node31</title>
<g id="a_node31"><a xlink:href="iterator__range_8h.html" target="_top" xlink:title=" ">
<polygon fill="none" stroke="black" points="1625,-112.5 1625,-131.5 1768,-131.5 1768,-112.5 1625,-112.5"/>
<text text-anchor="middle" x="1696.5" y="-119.5" font-family="Helvetica,sans-Serif" font-size="10.00">llvm/ADT/iterator_range.h</text>
</a>
</g>
</g>
<!-- Node28&#45;&gt;Node31 -->
<g id="edge47" class="edge">
<title>Node28&#45;&gt;Node31</title>
<path fill="none" stroke="midnightblue" d="M1265.61,-170.49C1352.76,-160.88 1516.04,-142.89 1614.66,-132.02"/>
<polygon fill="midnightblue" stroke="midnightblue" points="1615.32,-135.47 1624.88,-130.89 1614.55,-128.51 1615.32,-135.47"/>
</g>
<!-- Node32 -->
<g id="node32" class="node">
<title>Node32</title>
<g id="a_node32"><a xlink:title=" ">
<polygon fill="none" stroke="#bfbfbf" points="1786.5,-112.5 1786.5,-131.5 1830.5,-131.5 1830.5,-112.5 1786.5,-112.5"/>
<text text-anchor="middle" x="1808.5" y="-119.5" font-family="Helvetica,sans-Serif" font-size="10.00">limits</text>
</a>
</g>
</g>
<!-- Node28&#45;&gt;Node32 -->
<g id="edge54" class="edge">
<title>Node28&#45;&gt;Node32</title>
<path fill="none" stroke="midnightblue" d="M1265.78,-176.29C1368.3,-174.21 1585.28,-166 1776.34,-131.84"/>
<polygon fill="midnightblue" stroke="midnightblue" points="1777.07,-135.27 1786.28,-130.04 1775.81,-128.38 1777.07,-135.27"/>
</g>
<!-- Node29&#45;&gt;Node14 -->
<g id="edge38" class="edge">
<title>Node29&#45;&gt;Node14</title>
<path fill="none" stroke="midnightblue" d="M1293.16,-112.32C1280.34,-103.98 1260.72,-91.21 1245.56,-81.35"/>
<polygon fill="midnightblue" stroke="midnightblue" points="1247.09,-78.17 1236.8,-75.65 1243.28,-84.04 1247.09,-78.17"/>
</g>
<!-- Node29&#45;&gt;Node15 -->
<g id="edge39" class="edge">
<title>Node29&#45;&gt;Node15</title>
<path fill="none" stroke="midnightblue" d="M1314.1,-112.08C1320.73,-104.3 1330.52,-92.8 1338.56,-83.37"/>
<polygon fill="midnightblue" stroke="midnightblue" points="1341.23,-85.63 1345.05,-75.75 1335.9,-81.09 1341.23,-85.63"/>
</g>
<!-- Node29&#45;&gt;Node19 -->
<g id="edge41" class="edge">
<title>Node29&#45;&gt;Node19</title>
<path fill="none" stroke="midnightblue" d="M1352.45,-112.44C1411.47,-101.45 1512.43,-82.65 1564.04,-73.04"/>
<polygon fill="midnightblue" stroke="midnightblue" points="1564.78,-76.47 1573.98,-71.19 1563.5,-69.58 1564.78,-76.47"/>
</g>
<!-- Node29&#45;&gt;Node21 -->
<g id="edge37" class="edge">
<title>Node29&#45;&gt;Node21</title>
<path fill="none" stroke="midnightblue" d="M1234.27,-116.8C1098.08,-108.68 808.07,-90.35 708.5,-76 706.56,-75.72 704.58,-75.4 702.58,-75.06"/>
<polygon fill="midnightblue" stroke="midnightblue" points="703.09,-71.59 692.61,-73.17 701.79,-78.47 703.09,-71.59"/>
</g>
<!-- Node29&#45;&gt;Node24 -->
<g id="edge40" class="edge">
<title>Node29&#45;&gt;Node24</title>
<path fill="none" stroke="midnightblue" d="M1303.53,-112.08C1301.12,-104.85 1297.64,-94.41 1294.63,-85.4"/>
<polygon fill="midnightblue" stroke="midnightblue" points="1297.9,-84.13 1291.42,-75.75 1291.26,-86.34 1297.9,-84.13"/>
</g>
<!-- Node30&#45;&gt;Node15 -->
<g id="edge46" class="edge">
<title>Node30&#45;&gt;Node15</title>
<path fill="none" stroke="midnightblue" d="M1461.9,-112.44C1440.51,-103.56 1406.82,-89.56 1382.48,-79.45"/>
<polygon fill="midnightblue" stroke="midnightblue" points="1383.58,-76.12 1373,-75.52 1380.89,-82.58 1383.58,-76.12"/>
</g>
<!-- Node30&#45;&gt;Node16 -->
<g id="edge44" class="edge">
<title>Node30&#45;&gt;Node16</title>
<path fill="none" stroke="midnightblue" d="M1472.63,-112.34C1456.04,-98.27 1420.99,-70.56 1386.5,-56 1329.52,-31.95 1258.59,-20.38 1213.41,-15.09"/>
<polygon fill="midnightblue" stroke="midnightblue" points="1213.67,-11.6 1203.35,-13.97 1212.9,-18.56 1213.67,-11.6"/>
</g>
<!-- Node30&#45;&gt;Node19 -->
<g id="edge45" class="edge">
<title>Node30&#45;&gt;Node19</title>
<path fill="none" stroke="midnightblue" d="M1500.56,-112.44C1519.07,-103.68 1548.08,-89.94 1569.36,-79.86"/>
<polygon fill="midnightblue" stroke="midnightblue" points="1570.98,-82.96 1578.52,-75.52 1567.99,-76.63 1570.98,-82.96"/>
</g>
<!-- Node30&#45;&gt;Node26 -->
<g id="edge43" class="edge">
<title>Node30&#45;&gt;Node26</title>
<path fill="none" stroke="midnightblue" d="M1520.21,-112.44C1561.64,-103.04 1628.26,-87.93 1673.17,-77.74"/>
<polygon fill="midnightblue" stroke="midnightblue" points="1673.99,-81.14 1682.96,-75.52 1672.44,-74.32 1673.99,-81.14"/>
</g>
<!-- Node31&#45;&gt;Node19 -->
<g id="edge48" class="edge">
<title>Node31&#45;&gt;Node19</title>
<path fill="none" stroke="midnightblue" d="M1680.43,-112.32C1664.54,-103.74 1639.99,-90.49 1621.54,-80.52"/>
<polygon fill="midnightblue" stroke="midnightblue" points="1622.99,-77.33 1612.53,-75.65 1619.66,-83.49 1622.99,-77.33"/>
</g>
</g>
</svg>
