<?xml version="1.0" encoding="UTF-8" standalone="no"?>
<!DOCTYPE svg PUBLIC "-//W3C//DTD SVG 1.1//EN"
 "http://www.w3.org/Graphics/SVG/1.1/DTD/svg11.dtd">
<!-- Generated by graphviz version 2.43.0 (0)
 -->
<!-- Title: include/llvm/MC/MCMachObjectWriter.h Pages: 1 -->
<svg width="1800pt" height="117pt"
 viewBox="0.00 0.00 1800.00 117.00" xmlns="http://www.w3.org/2000/svg" xmlns:xlink="http://www.w3.org/1999/xlink">
<g id="graph0" class="graph" transform="scale(1 1) rotate(0) translate(4 113)">
<title>include/llvm/MC/MCMachObjectWriter.h</title>
<!-- Node1 -->
<g id="node1" class="node">
<title>Node1</title>
<g id="a_node1"><a xlink:title=" ">
<polygon fill="#bfbfbf" stroke="black" points="797,-78.5 797,-108.5 969,-108.5 969,-78.5 797,-78.5"/>
<text text-anchor="start" x="805" y="-96.5" font-family="Helvetica,sans-Serif" font-size="10.00">include/llvm/MC/MCMachObject</text>
<text text-anchor="middle" x="883" y="-85.5" font-family="Helvetica,sans-Serif" font-size="10.00">Writer.h</text>
</a>
</g>
</g>
<!-- Node2 -->
<g id="node2" class="node">
<title>Node2</title>
<g id="a_node2"><a xlink:href="MachObjectWriter_8cpp.html" target="_top" xlink:title=" ">
<polygon fill="none" stroke="black" points="0,-11.5 0,-30.5 158,-30.5 158,-11.5 0,-11.5"/>
<text text-anchor="middle" x="79" y="-18.5" font-family="Helvetica,sans-Serif" font-size="10.00">lib/MC/MachObjectWriter.cpp</text>
</a>
</g>
</g>
<!-- Node1&#45;&gt;Node2 -->
<g id="edge1" class="edge">
<title>Node1&#45;&gt;Node2</title>
<path fill="none" stroke="midnightblue" d="M786.86,-90.48C648.79,-86.49 386.65,-74.93 166,-42 147.45,-39.23 127,-34.61 110.59,-30.51"/>
<polygon fill="midnightblue" stroke="midnightblue" points="786.9,-93.98 796.99,-90.76 787.1,-86.98 786.9,-93.98"/>
</g>
<!-- Node3 -->
<g id="node3" class="node">
<title>Node3</title>
<g id="a_node3"><a xlink:href="MCAsmBackend_8cpp.html" target="_top" xlink:title=" ">
<polygon fill="none" stroke="black" points="175.5,-11.5 175.5,-30.5 324.5,-30.5 324.5,-11.5 175.5,-11.5"/>
<text text-anchor="middle" x="250" y="-18.5" font-family="Helvetica,sans-Serif" font-size="10.00">lib/MC/MCAsmBackend.cpp</text>
</a>
</g>
</g>
<!-- Node1&#45;&gt;Node3 -->
<g id="edge2" class="edge">
<title>Node1&#45;&gt;Node3</title>
<path fill="none" stroke="midnightblue" d="M786.67,-87.89C676.44,-81.64 490.79,-68.11 333,-42 315.6,-39.12 296.44,-34.6 280.92,-30.58"/>
<polygon fill="midnightblue" stroke="midnightblue" points="786.59,-91.39 796.77,-88.45 786.98,-84.4 786.59,-91.39"/>
</g>
<!-- Node4 -->
<g id="node4" class="node">
<title>Node4</title>
<g id="a_node4"><a xlink:href="MCLinkerOptimizationHint_8cpp.html" target="_top" xlink:title=" ">
<polygon fill="none" stroke="black" points="342,-6 342,-36 500,-36 500,-6 342,-6"/>
<text text-anchor="start" x="350" y="-24" font-family="Helvetica,sans-Serif" font-size="10.00">lib/MC/MCLinkerOptimization</text>
<text text-anchor="middle" x="421" y="-13" font-family="Helvetica,sans-Serif" font-size="10.00">Hint.cpp</text>
</a>
</g>
</g>
<!-- Node1&#45;&gt;Node4 -->
<g id="edge3" class="edge">
<title>Node1&#45;&gt;Node4</title>
<path fill="none" stroke="midnightblue" d="M786.87,-81.91C711.11,-72.99 602.94,-58.98 509,-42 499.44,-40.27 489.35,-38.21 479.55,-36.07"/>
<polygon fill="midnightblue" stroke="midnightblue" points="786.54,-85.4 796.87,-83.08 787.35,-78.45 786.54,-85.4"/>
</g>
<!-- Node5 -->
<g id="node5" class="node">
<title>Node5</title>
<g id="a_node5"><a xlink:href="MCMachObjectTargetWriter_8cpp.html" target="_top" xlink:title=" ">
<polygon fill="none" stroke="black" points="518,-6 518,-36 672,-36 672,-6 518,-6"/>
<text text-anchor="start" x="526" y="-24" font-family="Helvetica,sans-Serif" font-size="10.00">lib/MC/MCMachObjectTarget</text>
<text text-anchor="middle" x="595" y="-13" font-family="Helvetica,sans-Serif" font-size="10.00">Writer.cpp</text>
</a>
</g>
</g>
<!-- Node1&#45;&gt;Node5 -->
<g id="edge4" class="edge">
<title>Node1&#45;&gt;Node5</title>
<path fill="none" stroke="midnightblue" d="M815.78,-76.05C766.29,-63.93 699.7,-47.63 652.63,-36.11"/>
<polygon fill="midnightblue" stroke="midnightblue" points="815.21,-79.51 825.76,-78.49 816.88,-72.71 815.21,-79.51"/>
</g>
<!-- Node6 -->
<g id="node6" class="node">
<title>Node6</title>
<g id="a_node6"><a xlink:href="AArch64MachObjectWriter_8cpp.html" target="_top" xlink:title=" ">
<polygon fill="none" stroke="black" points="690.5,-0.5 690.5,-41.5 881.5,-41.5 881.5,-0.5 690.5,-0.5"/>
<text text-anchor="start" x="698.5" y="-29.5" font-family="Helvetica,sans-Serif" font-size="10.00">lib/Target/AArch64</text>
<text text-anchor="start" x="698.5" y="-18.5" font-family="Helvetica,sans-Serif" font-size="10.00">/MCTargetDesc/AArch64MachObject</text>
<text text-anchor="middle" x="786" y="-7.5" font-family="Helvetica,sans-Serif" font-size="10.00">Writer.cpp</text>
</a>
</g>
</g>
<!-- Node1&#45;&gt;Node6 -->
<g id="edge5" class="edge">
<title>Node1&#45;&gt;Node6</title>
<path fill="none" stroke="midnightblue" d="M855.08,-72.21C841.83,-62.58 826.07,-51.12 812.95,-41.59"/>
<polygon fill="midnightblue" stroke="midnightblue" points="853.22,-75.19 863.37,-78.23 857.34,-69.52 853.22,-75.19"/>
</g>
<!-- Node7 -->
<g id="node7" class="node">
<title>Node7</title>
<g id="a_node7"><a xlink:href="ARMMachObjectWriter_8cpp.html" target="_top" xlink:title=" ">
<polygon fill="none" stroke="black" points="900,-6 900,-36 1060,-36 1060,-6 900,-6"/>
<text text-anchor="start" x="908" y="-24" font-family="Helvetica,sans-Serif" font-size="10.00">lib/Target/ARM/MCTargetDesc</text>
<text text-anchor="middle" x="980" y="-13" font-family="Helvetica,sans-Serif" font-size="10.00">/ARMMachObjectWriter.cpp</text>
</a>
</g>
</g>
<!-- Node1&#45;&gt;Node7 -->
<g id="edge6" class="edge">
<title>Node1&#45;&gt;Node7</title>
<path fill="none" stroke="midnightblue" d="M911.05,-72.11C926.99,-60.53 946.53,-46.33 960.73,-36"/>
<polygon fill="midnightblue" stroke="midnightblue" points="908.66,-69.52 902.63,-78.23 912.78,-75.19 908.66,-69.52"/>
</g>
<!-- Node8 -->
<g id="node8" class="node">
<title>Node8</title>
<g id="a_node8"><a xlink:href="M68kAsmBackend_8cpp.html" target="_top" xlink:title=" ">
<polygon fill="none" stroke="black" points="1078,-6 1078,-36 1232,-36 1232,-6 1078,-6"/>
<text text-anchor="start" x="1086" y="-24" font-family="Helvetica,sans-Serif" font-size="10.00">lib/Target/M68k/MCTarget</text>
<text text-anchor="middle" x="1155" y="-13" font-family="Helvetica,sans-Serif" font-size="10.00">Desc/M68kAsmBackend.cpp</text>
</a>
</g>
</g>
<!-- Node1&#45;&gt;Node8 -->
<g id="edge7" class="edge">
<title>Node1&#45;&gt;Node8</title>
<path fill="none" stroke="midnightblue" d="M946.78,-75.97C993.49,-63.86 1056.21,-47.6 1100.57,-36.11"/>
<polygon fill="midnightblue" stroke="midnightblue" points="945.87,-72.59 937.06,-78.49 947.62,-79.37 945.87,-72.59"/>
</g>
<!-- Node9 -->
<g id="node9" class="node">
<title>Node9</title>
<g id="a_node9"><a xlink:href="PPCAsmBackend_8cpp.html" target="_top" xlink:title=" ">
<polygon fill="none" stroke="black" points="1250,-6 1250,-36 1444,-36 1444,-6 1250,-6"/>
<text text-anchor="start" x="1258" y="-24" font-family="Helvetica,sans-Serif" font-size="10.00">lib/Target/PowerPC</text>
<text text-anchor="middle" x="1347" y="-13" font-family="Helvetica,sans-Serif" font-size="10.00">/MCTargetDesc/PPCAsmBackend.cpp</text>
</a>
</g>
</g>
<!-- Node1&#45;&gt;Node9 -->
<g id="edge8" class="edge">
<title>Node1&#45;&gt;Node9</title>
<path fill="none" stroke="midnightblue" d="M979.24,-80.16C1051.41,-70.6 1152.57,-56.57 1241,-42 1252.09,-40.17 1263.8,-38.1 1275.24,-36.01"/>
<polygon fill="midnightblue" stroke="midnightblue" points="978.71,-76.69 969.25,-81.47 979.62,-83.63 978.71,-76.69"/>
</g>
<!-- Node10 -->
<g id="node10" class="node">
<title>Node10</title>
<g id="a_node10"><a xlink:href="X86AsmBackend_8cpp.html" target="_top" xlink:title=" ">
<polygon fill="none" stroke="black" points="1462,-6 1462,-36 1618,-36 1618,-6 1462,-6"/>
<text text-anchor="start" x="1470" y="-24" font-family="Helvetica,sans-Serif" font-size="10.00">lib/Target/X86/MCTargetDesc</text>
<text text-anchor="middle" x="1540" y="-13" font-family="Helvetica,sans-Serif" font-size="10.00">/X86AsmBackend.cpp</text>
</a>
</g>
</g>
<!-- Node1&#45;&gt;Node10 -->
<g id="edge9" class="edge">
<title>Node1&#45;&gt;Node10</title>
<path fill="none" stroke="midnightblue" d="M979.47,-88.01C1093.23,-81.78 1287.75,-68.19 1453,-42 1463.1,-40.4 1473.78,-38.29 1484.06,-36.05"/>
<polygon fill="midnightblue" stroke="midnightblue" points="979.19,-84.52 969.4,-88.55 979.57,-91.51 979.19,-84.52"/>
</g>
<!-- Node11 -->
<g id="node11" class="node">
<title>Node11</title>
<g id="a_node11"><a xlink:href="X86MachObjectWriter_8cpp.html" target="_top" xlink:title=" ">
<polygon fill="none" stroke="black" points="1636,-6 1636,-36 1792,-36 1792,-6 1636,-6"/>
<text text-anchor="start" x="1644" y="-24" font-family="Helvetica,sans-Serif" font-size="10.00">lib/Target/X86/MCTargetDesc</text>
<text text-anchor="middle" x="1714" y="-13" font-family="Helvetica,sans-Serif" font-size="10.00">/X86MachObjectWriter.cpp</text>
</a>
</g>
</g>
<!-- Node1&#45;&gt;Node11 -->
<g id="edge10" class="edge">
<title>Node1&#45;&gt;Node11</title>
<path fill="none" stroke="midnightblue" d="M979.12,-90.82C1121.4,-87.25 1396.09,-76.16 1627,-42 1637.43,-40.46 1648.45,-38.32 1659.02,-36.02"/>
<polygon fill="midnightblue" stroke="midnightblue" points="979.02,-87.33 969.11,-91.07 979.2,-94.32 979.02,-87.33"/>
</g>
</g>
</svg>
