<?xml version="1.0" encoding="UTF-8" standalone="no"?>
<!DOCTYPE svg PUBLIC "-//W3C//DTD SVG 1.1//EN"
 "http://www.w3.org/Graphics/SVG/1.1/DTD/svg11.dtd">
<!-- Generated by graphviz version 2.43.0 (0)
 -->
<!-- Title: lib/Target/NVPTX/NVPTXPrologEpilogPass.cpp Pages: 1 -->
<svg width="3675pt" height="598pt"
 viewBox="0.00 0.00 3675.08 598.00" xmlns="http://www.w3.org/2000/svg" xmlns:xlink="http://www.w3.org/1999/xlink">
<g id="graph0" class="graph" transform="scale(1 1) rotate(0) translate(4 594)">
<title>lib/Target/NVPTX/NVPTXPrologEpilogPass.cpp</title>
<!-- Node1 -->
<g id="node1" class="node">
<title>Node1</title>
<g id="a_node1"><a xlink:title=" ">
<polygon fill="#bfbfbf" stroke="black" points="730.03,-559.5 730.03,-589.5 894.03,-589.5 894.03,-559.5 730.03,-559.5"/>
<text text-anchor="start" x="738.03" y="-577.5" font-family="Helvetica,sans-Serif" font-size="10.00">lib/Target/NVPTX/NVPTXProlog</text>
<text text-anchor="middle" x="812.03" y="-566.5" font-family="Helvetica,sans-Serif" font-size="10.00">EpilogPass.cpp</text>
</a>
</g>
</g>
<!-- Node2 -->
<g id="node2" class="node">
<title>Node2</title>
<g id="a_node2"><a xlink:href="NVPTX_8h.html" target="_top" xlink:title=" ">
<polygon fill="none" stroke="black" points="571.53,-498 571.53,-517 630.53,-517 630.53,-498 571.53,-498"/>
<text text-anchor="middle" x="601.03" y="-505" font-family="Helvetica,sans-Serif" font-size="10.00">NVPTX.h</text>
</a>
</g>
</g>
<!-- Node1&#45;&gt;Node2 -->
<g id="edge1" class="edge">
<title>Node1&#45;&gt;Node2</title>
<path fill="none" stroke="midnightblue" d="M766.51,-559.48C728.19,-547.67 674.07,-531 638.29,-519.98"/>
<polygon fill="midnightblue" stroke="midnightblue" points="639.3,-516.63 628.71,-517.03 637.24,-523.32 639.3,-516.63"/>
</g>
<!-- Node141 -->
<g id="node14" class="node">
<title>Node141</title>
<g id="a_node14"><a xlink:href="Pass_8h.html" target="_top" xlink:title=" ">
<polygon fill="none" stroke="red" points="928.03,-431 928.03,-450 1000.03,-450 1000.03,-431 928.03,-431"/>
<text text-anchor="middle" x="964.03" y="-438" font-family="Helvetica,sans-Serif" font-size="10.00">llvm/Pass.h</text>
</a>
</g>
</g>
<!-- Node1&#45;&gt;Node141 -->
<g id="edge172" class="edge">
<title>Node1&#45;&gt;Node141</title>
<path fill="none" stroke="midnightblue" d="M819.23,-559.29C828.7,-541.71 846.79,-511.68 869.03,-492 887.46,-475.69 912.08,-462.79 931.64,-454.12"/>
<polygon fill="midnightblue" stroke="midnightblue" points="933.24,-457.23 941.06,-450.08 930.49,-450.8 933.24,-457.23"/>
</g>
<!-- Node154 -->
<g id="node18" class="node">
<title>Node154</title>
<g id="a_node18"><a xlink:href="MachineFrameInfo_8h.html" target="_top" xlink:title=" ">
<polygon fill="none" stroke="black" points="350.53,-168.5 350.53,-198.5 511.53,-198.5 511.53,-168.5 350.53,-168.5"/>
<text text-anchor="start" x="358.53" y="-186.5" font-family="Helvetica,sans-Serif" font-size="10.00">llvm/CodeGen/MachineFrame</text>
<text text-anchor="middle" x="431.03" y="-175.5" font-family="Helvetica,sans-Serif" font-size="10.00">Info.h</text>
</a>
</g>
</g>
<!-- Node1&#45;&gt;Node154 -->
<g id="edge25" class="edge">
<title>Node1&#45;&gt;Node154</title>
<path fill="none" stroke="midnightblue" d="M729.84,-569.93C589.44,-563.22 314.9,-547.17 278.03,-523 243.43,-500.31 233.03,-482.88 233.03,-441.5 233.03,-441.5 233.03,-441.5 233.03,-372.5 233.03,-300.18 265.51,-282.51 320.03,-235 336,-221.08 356.46,-210.32 375.44,-202.39"/>
<polygon fill="midnightblue" stroke="midnightblue" points="376.92,-205.56 384.91,-198.6 374.32,-199.06 376.92,-205.56"/>
</g>
<!-- Node157 -->
<g id="node22" class="node">
<title>Node157</title>
<g id="a_node22"><a xlink:href="MachineFunction_8h.html" target="_top" xlink:title=" ">
<polygon fill="none" stroke="black" points="1552.03,-431 1552.03,-450 1732.03,-450 1732.03,-431 1552.03,-431"/>
<text text-anchor="middle" x="1642.03" y="-438" font-family="Helvetica,sans-Serif" font-size="10.00">llvm/CodeGen/MachineFunction.h</text>
</a>
</g>
</g>
<!-- Node1&#45;&gt;Node157 -->
<g id="edge38" class="edge">
<title>Node1&#45;&gt;Node157</title>
<path fill="none" stroke="midnightblue" d="M894.06,-565.23C943.14,-558.21 1005.91,-545.54 1058.03,-523 1079.99,-513.51 1079.59,-500.28 1102.03,-492 1180.16,-463.17 1408.14,-450.07 1541.58,-444.73"/>
<polygon fill="midnightblue" stroke="midnightblue" points="1541.96,-448.22 1551.82,-444.33 1541.69,-441.22 1541.96,-448.22"/>
</g>
<!-- Node107 -->
<g id="node37" class="node">
<title>Node107</title>
<g id="a_node37"><a xlink:href="raw__ostream_8h.html" target="_top" xlink:title=" ">
<polygon fill="none" stroke="red" points="1365.53,-241 1365.53,-260 1520.53,-260 1520.53,-241 1365.53,-241"/>
<text text-anchor="middle" x="1443.03" y="-248" font-family="Helvetica,sans-Serif" font-size="10.00">llvm/Support/raw_ostream.h</text>
</a>
</g>
</g>
<!-- Node1&#45;&gt;Node107 -->
<g id="edge174" class="edge">
<title>Node1&#45;&gt;Node107</title>
<path fill="none" stroke="midnightblue" d="M729.99,-568.42C596.72,-557.23 356.29,-523.11 442.03,-425 470.14,-392.83 1162.25,-330.93 1204.03,-322 1278.32,-306.12 1363.16,-278.85 1409.11,-263.29"/>
<polygon fill="midnightblue" stroke="midnightblue" points="1410.24,-266.6 1418.58,-260.06 1407.98,-259.98 1410.24,-266.6"/>
</g>
<!-- Node200 -->
<g id="node41" class="node">
<title>Node200</title>
<g id="a_node41"><a xlink:href="MachineFunctionPass_8h.html" target="_top" xlink:title=" ">
<polygon fill="none" stroke="black" points="878.53,-492.5 878.53,-522.5 1049.53,-522.5 1049.53,-492.5 878.53,-492.5"/>
<text text-anchor="start" x="886.53" y="-510.5" font-family="Helvetica,sans-Serif" font-size="10.00">llvm/CodeGen/MachineFunction</text>
<text text-anchor="middle" x="964.03" y="-499.5" font-family="Helvetica,sans-Serif" font-size="10.00">Pass.h</text>
</a>
</g>
</g>
<!-- Node1&#45;&gt;Node200 -->
<g id="edge118" class="edge">
<title>Node1&#45;&gt;Node200</title>
<path fill="none" stroke="midnightblue" d="M845.01,-559.4C867.52,-549.77 897.53,-536.94 921.79,-526.56"/>
<polygon fill="midnightblue" stroke="midnightblue" points="923.29,-529.73 931.11,-522.58 920.54,-523.29 923.29,-529.73"/>
</g>
<!-- Node201 -->
<g id="node42" class="node">
<title>Node201</title>
<g id="a_node42"><a xlink:href="TargetFrameLowering_8h.html" target="_top" xlink:title=" ">
<polygon fill="none" stroke="black" points="760.53,-425.5 760.53,-455.5 909.53,-455.5 909.53,-425.5 760.53,-425.5"/>
<text text-anchor="start" x="768.53" y="-443.5" font-family="Helvetica,sans-Serif" font-size="10.00">llvm/CodeGen/TargetFrame</text>
<text text-anchor="middle" x="835.03" y="-432.5" font-family="Helvetica,sans-Serif" font-size="10.00">Lowering.h</text>
</a>
</g>
</g>
<!-- Node1&#45;&gt;Node201 -->
<g id="edge121" class="edge">
<title>Node1&#45;&gt;Node201</title>
<path fill="none" stroke="midnightblue" d="M814.49,-559.37C818.4,-536.94 826.07,-492.92 830.85,-465.49"/>
<polygon fill="midnightblue" stroke="midnightblue" points="834.32,-465.98 832.59,-455.52 827.42,-464.78 834.32,-465.98"/>
</g>
<!-- Node202 -->
<g id="node44" class="node">
<title>Node202</title>
<g id="a_node44"><a xlink:href="TargetRegisterInfo_8h.html" target="_top" xlink:title=" ">
<polygon fill="none" stroke="black" points="2417.53,-425.5 2417.53,-455.5 2576.53,-455.5 2576.53,-425.5 2417.53,-425.5"/>
<text text-anchor="start" x="2425.53" y="-443.5" font-family="Helvetica,sans-Serif" font-size="10.00">llvm/CodeGen/TargetRegister</text>
<text text-anchor="middle" x="2497.03" y="-432.5" font-family="Helvetica,sans-Serif" font-size="10.00">Info.h</text>
</a>
</g>
</g>
<!-- Node1&#45;&gt;Node202 -->
<g id="edge130" class="edge">
<title>Node1&#45;&gt;Node202</title>
<path fill="none" stroke="midnightblue" d="M894.27,-568.95C952.15,-563.35 1030.35,-550.85 1094.03,-523 1114.96,-513.85 1113.51,-499.67 1135.03,-492 1194.89,-470.68 2113.41,-449.58 2407.32,-443.34"/>
<polygon fill="midnightblue" stroke="midnightblue" points="2407.58,-446.84 2417.51,-443.13 2407.43,-439.84 2407.58,-446.84"/>
</g>
<!-- Node204 -->
<g id="node48" class="node">
<title>Node204</title>
<g id="a_node48"><a xlink:href="TargetSubtargetInfo_8h.html" target="_top" xlink:title=" ">
<polygon fill="none" stroke="red" points="329.03,-235.5 329.03,-265.5 495.03,-265.5 495.03,-235.5 329.03,-235.5"/>
<text text-anchor="start" x="337.03" y="-253.5" font-family="Helvetica,sans-Serif" font-size="10.00">llvm/CodeGen/TargetSubtarget</text>
<text text-anchor="middle" x="412.03" y="-242.5" font-family="Helvetica,sans-Serif" font-size="10.00">Info.h</text>
</a>
</g>
</g>
<!-- Node1&#45;&gt;Node204 -->
<g id="edge157" class="edge">
<title>Node1&#45;&gt;Node204</title>
<path fill="none" stroke="midnightblue" d="M729.96,-569.51C596.94,-562.41 345.63,-546.12 312.03,-523 278.63,-500.02 271.03,-482.05 271.03,-441.5 271.03,-441.5 271.03,-441.5 271.03,-372.5 271.03,-322.37 322.98,-288.52 363.82,-269.65"/>
<polygon fill="midnightblue" stroke="midnightblue" points="365.41,-272.77 373.13,-265.51 362.57,-266.37 365.41,-272.77"/>
</g>
<!-- Node221 -->
<g id="node49" class="node">
<title>Node221</title>
<g id="a_node49"><a xlink:href="DebugInfoMetadata_8h.html" target="_top" xlink:title=" ">
<polygon fill="none" stroke="red" points="1035.03,-241 1035.03,-260 1195.03,-260 1195.03,-241 1035.03,-241"/>
<text text-anchor="middle" x="1115.03" y="-248" font-family="Helvetica,sans-Serif" font-size="10.00">llvm/IR/DebugInfoMetadata.h</text>
</a>
</g>
</g>
<!-- Node1&#45;&gt;Node221 -->
<g id="edge164" class="edge">
<title>Node1&#45;&gt;Node221</title>
<path fill="none" stroke="midnightblue" d="M730.01,-570.72C600.12,-565.46 359.04,-551.9 333.03,-523 303.89,-490.63 311.77,-463.02 333.03,-425 360.78,-375.37 388.69,-377.71 442.03,-358 547.75,-318.92 869,-279.01 1026.32,-261.16"/>
<polygon fill="midnightblue" stroke="midnightblue" points="1026.9,-264.61 1036.44,-260.01 1026.11,-257.66 1026.9,-264.61"/>
</g>
<!-- Node135 -->
<g id="node50" class="node">
<title>Node135</title>
<g id="a_node50"><a xlink:href="Debug_8h.html" target="_top" xlink:title=" ">
<polygon fill="none" stroke="black" points="1144.03,-498 1144.03,-517 1266.03,-517 1266.03,-498 1144.03,-498"/>
<text text-anchor="middle" x="1205.03" y="-505" font-family="Helvetica,sans-Serif" font-size="10.00">llvm/Support/Debug.h</text>
</a>
</g>
</g>
<!-- Node1&#45;&gt;Node135 -->
<g id="edge173" class="edge">
<title>Node1&#45;&gt;Node135</title>
<path fill="none" stroke="midnightblue" d="M894.18,-561.23C958.47,-551.44 1050.06,-537.08 1130.03,-523 1137.21,-521.74 1144.77,-520.35 1152.21,-518.94"/>
<polygon fill="midnightblue" stroke="midnightblue" points="1153.07,-522.34 1162.24,-517.03 1151.76,-515.46 1153.07,-522.34"/>
</g>
<!-- Node3 -->
<g id="node3" class="node">
<title>Node3</title>
<g id="a_node3"><a xlink:href="PassManager_8h.html" target="_top" xlink:title=" ">
<polygon fill="none" stroke="red" points="627.53,-241 627.53,-260 754.53,-260 754.53,-241 627.53,-241"/>
<text text-anchor="middle" x="691.03" y="-248" font-family="Helvetica,sans-Serif" font-size="10.00">llvm/IR/PassManager.h</text>
</a>
</g>
</g>
<!-- Node2&#45;&gt;Node3 -->
<g id="edge2" class="edge">
<title>Node2&#45;&gt;Node3</title>
<path fill="none" stroke="midnightblue" d="M571.38,-506.78C534.19,-505.34 471.7,-496.56 442.03,-456 416.31,-420.85 418.04,-394.35 442.03,-358 480.71,-299.39 559.01,-272.92 617.54,-261.03"/>
<polygon fill="midnightblue" stroke="midnightblue" points="618.33,-264.44 627.49,-259.11 617,-257.57 618.33,-264.44"/>
</g>
<!-- Node2&#45;&gt;Node141 -->
<g id="edge21" class="edge">
<title>Node2&#45;&gt;Node141</title>
<path fill="none" stroke="midnightblue" d="M630.59,-503.27C686.99,-496.77 813.62,-480.63 918.03,-456 921.86,-455.1 925.84,-454.03 929.78,-452.9"/>
<polygon fill="midnightblue" stroke="midnightblue" points="930.83,-456.24 939.39,-450 928.8,-449.54 930.83,-456.24"/>
</g>
<!-- Node76 -->
<g id="node15" class="node">
<title>Node76</title>
<g id="a_node15"><a xlink:href="CodeGen_8h.html" target="_top" xlink:title=" ">
<polygon fill="none" stroke="black" points="44.53,-174 44.53,-193 179.53,-193 179.53,-174 44.53,-174"/>
<text text-anchor="middle" x="112.03" y="-181" font-family="Helvetica,sans-Serif" font-size="10.00">llvm/Support/CodeGen.h</text>
</a>
</g>
</g>
<!-- Node2&#45;&gt;Node76 -->
<g id="edge22" class="edge">
<title>Node2&#45;&gt;Node76</title>
<path fill="none" stroke="midnightblue" d="M571.31,-502.26C534.5,-496.1 470.7,-482.41 422.03,-456 290.02,-384.37 166.05,-247.64 125.71,-200.75"/>
<polygon fill="midnightblue" stroke="midnightblue" points="128.32,-198.42 119.16,-193.08 122.99,-202.96 128.32,-198.42"/>
</g>
<!-- Node152 -->
<g id="node16" class="node">
<title>Node152</title>
<g id="a_node16"><a xlink:title=" ">
<polygon fill="none" stroke="#bfbfbf" points="451.03,-431 451.03,-450 597.03,-450 597.03,-431 451.03,-431"/>
<text text-anchor="middle" x="524.03" y="-438" font-family="Helvetica,sans-Serif" font-size="10.00">NVPTXGenRegisterInfo.inc</text>
</a>
</g>
</g>
<!-- Node2&#45;&gt;Node152 -->
<g id="edge23" class="edge">
<title>Node2&#45;&gt;Node152</title>
<path fill="none" stroke="midnightblue" d="M590.64,-497.73C578.18,-487.21 557.06,-469.38 541.94,-456.62"/>
<polygon fill="midnightblue" stroke="midnightblue" points="544.15,-453.9 534.25,-450.13 539.63,-459.25 544.15,-453.9"/>
</g>
<!-- Node153 -->
<g id="node17" class="node">
<title>Node153</title>
<g id="a_node17"><a xlink:title=" ">
<polygon fill="none" stroke="#bfbfbf" points="615.53,-431 615.53,-450 742.53,-450 742.53,-431 615.53,-431"/>
<text text-anchor="middle" x="679.03" y="-438" font-family="Helvetica,sans-Serif" font-size="10.00">NVPTXGenInstrInfo.inc</text>
</a>
</g>
</g>
<!-- Node2&#45;&gt;Node153 -->
<g id="edge24" class="edge">
<title>Node2&#45;&gt;Node153</title>
<path fill="none" stroke="midnightblue" d="M611.55,-497.73C624.18,-487.21 645.57,-469.38 660.89,-456.62"/>
<polygon fill="midnightblue" stroke="midnightblue" points="663.23,-459.22 668.68,-450.13 658.75,-453.84 663.23,-459.22"/>
</g>
<!-- Node4 -->
<g id="node4" class="node">
<title>Node4</title>
<g id="a_node4"><a xlink:href="DenseMap_8h.html" target="_top" xlink:title=" ">
<polygon fill="none" stroke="red" points="1951.53,-112.5 1951.53,-131.5 2076.53,-131.5 2076.53,-112.5 1951.53,-112.5"/>
<text text-anchor="middle" x="2014.03" y="-119.5" font-family="Helvetica,sans-Serif" font-size="10.00">llvm/ADT/DenseMap.h</text>
</a>
</g>
</g>
<!-- Node3&#45;&gt;Node4 -->
<g id="edge3" class="edge">
<title>Node3&#45;&gt;Node4</title>
<path fill="none" stroke="midnightblue" d="M754.61,-242.84C891.32,-228.57 1223.43,-194.24 1502.03,-168 1658.4,-153.27 1841.79,-137.52 1941.12,-129.12"/>
<polygon fill="midnightblue" stroke="midnightblue" points="1941.68,-132.59 1951.35,-128.26 1941.09,-125.61 1941.68,-132.59"/>
</g>
<!-- Node6 -->
<g id="node7" class="node">
<title>Node6</title>
<g id="a_node7"><a xlink:title=" ">
<polygon fill="none" stroke="#bfbfbf" points="1262.03,-0.5 1262.03,-19.5 1314.03,-19.5 1314.03,-0.5 1262.03,-0.5"/>
<text text-anchor="middle" x="1288.03" y="-7.5" font-family="Helvetica,sans-Serif" font-size="10.00">cassert</text>
</a>
</g>
</g>
<!-- Node3&#45;&gt;Node6 -->
<g id="edge17" class="edge">
<title>Node3&#45;&gt;Node6</title>
<path fill="none" stroke="midnightblue" d="M627.51,-245.04C529.62,-237.51 351.1,-220.94 332.03,-199 311.04,-174.85 356.69,-113.71 358.03,-112 382.3,-80.84 390.16,-70.17 427.03,-56 504.72,-26.14 1097.3,-14.2 1251.47,-11.58"/>
<polygon fill="midnightblue" stroke="midnightblue" points="1251.86,-15.07 1261.8,-11.41 1251.74,-8.07 1251.86,-15.07"/>
</g>
<!-- Node10 -->
<g id="node9" class="node">
<title>Node10</title>
<g id="a_node9"><a xlink:title=" ">
<polygon fill="none" stroke="#bfbfbf" points="2513.53,-56.5 2513.53,-75.5 2558.53,-75.5 2558.53,-56.5 2513.53,-56.5"/>
<text text-anchor="middle" x="2536.03" y="-63.5" font-family="Helvetica,sans-Serif" font-size="10.00">utility</text>
</a>
</g>
</g>
<!-- Node3&#45;&gt;Node10 -->
<g id="edge19" class="edge">
<title>Node3&#45;&gt;Node10</title>
<path fill="none" stroke="midnightblue" d="M754.77,-242.55C781.14,-239.87 812.03,-236.98 840.03,-235 930.34,-228.61 1569.44,-231.25 1654.03,-199 1674.4,-191.24 1671.77,-176.03 1692.03,-168 1797.86,-126.06 2090.18,-146.93 2203.03,-132 2217.98,-130.02 2422.14,-89.61 2503.2,-73.52"/>
<polygon fill="midnightblue" stroke="midnightblue" points="2504.21,-76.89 2513.34,-71.51 2502.85,-70.02 2504.21,-76.89"/>
</g>
<!-- Node54 -->
<g id="node10" class="node">
<title>Node54</title>
<g id="a_node10"><a xlink:href="StringRef_8h.html" target="_top" xlink:title=" ">
<polygon fill="none" stroke="red" points="1701.03,-174 1701.03,-193 1819.03,-193 1819.03,-174 1701.03,-174"/>
<text text-anchor="middle" x="1760.03" y="-181" font-family="Helvetica,sans-Serif" font-size="10.00">llvm/ADT/StringRef.h</text>
</a>
</g>
</g>
<!-- Node3&#45;&gt;Node54 -->
<g id="edge11" class="edge">
<title>Node3&#45;&gt;Node54</title>
<path fill="none" stroke="midnightblue" d="M754.77,-242.53C781.13,-239.84 812.03,-236.96 840.03,-235 1215.9,-208.74 1312.92,-243.84 1687.03,-199 1695.42,-197.99 1704.29,-196.56 1712.84,-194.97"/>
<polygon fill="midnightblue" stroke="midnightblue" points="1713.54,-198.4 1722.69,-193.06 1712.21,-191.53 1713.54,-198.4"/>
</g>
<!-- Node52 -->
<g id="node12" class="node">
<title>Node52</title>
<g id="a_node12"><a xlink:title=" ">
<polygon fill="none" stroke="#bfbfbf" points="688.03,-56.5 688.03,-75.5 746.03,-75.5 746.03,-56.5 688.03,-56.5"/>
<text text-anchor="middle" x="717.03" y="-63.5" font-family="Helvetica,sans-Serif" font-size="10.00">memory</text>
</a>
</g>
</g>
<!-- Node3&#45;&gt;Node52 -->
<g id="edge18" class="edge">
<title>Node3&#45;&gt;Node52</title>
<path fill="none" stroke="midnightblue" d="M698.39,-240.91C706.01,-231.4 717.44,-215.24 722.03,-199 733.11,-159.78 726.4,-111.41 721.25,-85.48"/>
<polygon fill="midnightblue" stroke="midnightblue" points="724.65,-84.6 719.14,-75.55 717.8,-86.06 724.65,-84.6"/>
</g>
<!-- Node59 -->
<g id="node13" class="node">
<title>Node59</title>
<g id="a_node13"><a xlink:title=" ">
<polygon fill="none" stroke="#bfbfbf" points="649.53,-112.5 649.53,-131.5 696.53,-131.5 696.53,-112.5 649.53,-112.5"/>
<text text-anchor="middle" x="673.03" y="-119.5" font-family="Helvetica,sans-Serif" font-size="10.00">vector</text>
</a>
</g>
</g>
<!-- Node3&#45;&gt;Node59 -->
<g id="edge20" class="edge">
<title>Node3&#45;&gt;Node59</title>
<path fill="none" stroke="midnightblue" d="M695.42,-240.74C702.41,-225.61 714.44,-193.71 706.03,-168 702.54,-157.34 695.46,-147.12 688.74,-139.12"/>
<polygon fill="midnightblue" stroke="midnightblue" points="691.33,-136.76 682.05,-131.66 686.12,-141.44 691.33,-136.76"/>
</g>
<!-- Node15 -->
<g id="node5" class="node">
<title>Node15</title>
<g id="a_node5"><a xlink:href="Compiler_8h.html" target="_top" xlink:title=" ">
<polygon fill="none" stroke="red" points="1704.03,-0.5 1704.03,-19.5 1838.03,-19.5 1838.03,-0.5 1704.03,-0.5"/>
<text text-anchor="middle" x="1771.03" y="-7.5" font-family="Helvetica,sans-Serif" font-size="10.00">llvm/Support/Compiler.h</text>
</a>
</g>
</g>
<!-- Node4&#45;&gt;Node15 -->
<g id="edge4" class="edge">
<title>Node4&#45;&gt;Node15</title>
<path fill="none" stroke="midnightblue" d="M2016.2,-112.13C2019.02,-98.26 2022.05,-71.43 2008.03,-56 1986.89,-32.73 1909.02,-21.28 1848.24,-15.78"/>
<polygon fill="midnightblue" stroke="midnightblue" points="1848.53,-12.3 1838.26,-14.92 1847.92,-19.27 1848.53,-12.3"/>
</g>
<!-- Node18 -->
<g id="node6" class="node">
<title>Node18</title>
<g id="a_node6"><a xlink:href="MathExtras_8h.html" target="_top" xlink:title=" ">
<polygon fill="none" stroke="red" points="1853.03,-56.5 1853.03,-75.5 1999.03,-75.5 1999.03,-56.5 1853.03,-56.5"/>
<text text-anchor="middle" x="1926.03" y="-63.5" font-family="Helvetica,sans-Serif" font-size="10.00">llvm/Support/MathExtras.h</text>
</a>
</g>
</g>
<!-- Node4&#45;&gt;Node18 -->
<g id="edge5" class="edge">
<title>Node4&#45;&gt;Node18</title>
<path fill="none" stroke="midnightblue" d="M1999.89,-112.32C1986.16,-103.9 1965.09,-90.97 1948.96,-81.07"/>
<polygon fill="midnightblue" stroke="midnightblue" points="1950.49,-77.9 1940.13,-75.65 1946.83,-83.87 1950.49,-77.9"/>
</g>
<!-- Node4&#45;&gt;Node6 -->
<g id="edge9" class="edge">
<title>Node4&#45;&gt;Node6</title>
<path fill="none" stroke="midnightblue" d="M1981.25,-112.41C1920.46,-96.57 1792.3,-63.69 1747.03,-56 1590.97,-29.49 1402.2,-17.09 1324.32,-12.81"/>
<polygon fill="midnightblue" stroke="midnightblue" points="1324.25,-9.31 1314.08,-12.26 1323.88,-16.3 1324.25,-9.31"/>
</g>
<!-- Node4&#45;&gt;Node10 -->
<g id="edge10" class="edge">
<title>Node4&#45;&gt;Node10</title>
<path fill="none" stroke="midnightblue" d="M2076.74,-114.51C2188.44,-102.96 2418.14,-79.2 2503.31,-70.38"/>
<polygon fill="midnightblue" stroke="midnightblue" points="2503.84,-73.85 2513.42,-69.34 2503.12,-66.89 2503.84,-73.85"/>
</g>
<!-- Node18&#45;&gt;Node15 -->
<g id="edge6" class="edge">
<title>Node18&#45;&gt;Node15</title>
<path fill="none" stroke="midnightblue" d="M1901.47,-56.44C1875.51,-47.4 1834.36,-33.06 1805.23,-22.92"/>
<polygon fill="midnightblue" stroke="midnightblue" points="1806.07,-19.5 1795.47,-19.52 1803.77,-26.11 1806.07,-19.5"/>
</g>
<!-- Node18&#45;&gt;Node6 -->
<g id="edge7" class="edge">
<title>Node18&#45;&gt;Node6</title>
<path fill="none" stroke="midnightblue" d="M1852.92,-58.06C1845.19,-57.36 1837.45,-56.66 1830.03,-56 1639.75,-39.18 1411.71,-20.84 1324.44,-13.89"/>
<polygon fill="midnightblue" stroke="midnightblue" points="1324.51,-10.38 1314.27,-13.08 1323.96,-17.36 1324.51,-10.38"/>
</g>
<!-- Node8 -->
<g id="node8" class="node">
<title>Node8</title>
<g id="a_node8"><a xlink:title=" ">
<polygon fill="none" stroke="#bfbfbf" points="2676.03,-0.5 2676.03,-19.5 2726.03,-19.5 2726.03,-0.5 2676.03,-0.5"/>
<text text-anchor="middle" x="2701.03" y="-7.5" font-family="Helvetica,sans-Serif" font-size="10.00">cstdint</text>
</a>
</g>
</g>
<!-- Node18&#45;&gt;Node8 -->
<g id="edge8" class="edge">
<title>Node18&#45;&gt;Node8</title>
<path fill="none" stroke="midnightblue" d="M1999.29,-59.9C2161.73,-48.58 2547.13,-21.72 2665.7,-13.46"/>
<polygon fill="midnightblue" stroke="midnightblue" points="2665.96,-16.95 2675.69,-12.77 2665.47,-9.97 2665.96,-16.95"/>
</g>
<!-- Node54&#45;&gt;Node15 -->
<g id="edge14" class="edge">
<title>Node54&#45;&gt;Node15</title>
<path fill="none" stroke="midnightblue" d="M1760.59,-173.76C1762.3,-147.15 1767.46,-66.71 1769.82,-29.84"/>
<polygon fill="midnightblue" stroke="midnightblue" points="1773.34,-29.72 1770.48,-19.52 1766.35,-29.27 1773.34,-29.72"/>
</g>
<!-- Node54&#45;&gt;Node6 -->
<g id="edge15" class="edge">
<title>Node54&#45;&gt;Node6</title>
<path fill="none" stroke="midnightblue" d="M1746.31,-173.9C1723.9,-160.02 1677.84,-132.19 1637.03,-112 1579.54,-83.56 1565.26,-75.07 1504.03,-56 1442.03,-36.69 1367.43,-23.22 1324.1,-16.32"/>
<polygon fill="midnightblue" stroke="midnightblue" points="1324.46,-12.84 1314.04,-14.75 1323.38,-19.76 1324.46,-12.84"/>
</g>
<!-- Node54&#45;&gt;Node10 -->
<g id="edge16" class="edge">
<title>Node54&#45;&gt;Node10</title>
<path fill="none" stroke="midnightblue" d="M1798.53,-173.95C1809.62,-171.73 1821.76,-169.54 1833.03,-168 2043.24,-139.28 2100.19,-169.39 2309.03,-132 2379.97,-119.3 2460.53,-93.39 2504.04,-78.4"/>
<polygon fill="midnightblue" stroke="midnightblue" points="2505.22,-81.7 2513.51,-75.11 2502.92,-75.08 2505.22,-81.7"/>
</g>
<!-- Node50 -->
<g id="node11" class="node">
<title>Node50</title>
<g id="a_node11"><a xlink:href="iterator__range_8h.html" target="_top" xlink:title=" ">
<polygon fill="none" stroke="black" points="2716.53,-112.5 2716.53,-131.5 2859.53,-131.5 2859.53,-112.5 2716.53,-112.5"/>
<text text-anchor="middle" x="2788.03" y="-119.5" font-family="Helvetica,sans-Serif" font-size="10.00">llvm/ADT/iterator_range.h</text>
</a>
</g>
</g>
<!-- Node54&#45;&gt;Node50 -->
<g id="edge12" class="edge">
<title>Node54&#45;&gt;Node50</title>
<path fill="none" stroke="midnightblue" d="M1797.37,-173.97C1808.76,-171.67 1821.36,-169.43 1833.03,-168 2000.94,-147.48 2506.9,-131.11 2706.13,-125.29"/>
<polygon fill="midnightblue" stroke="midnightblue" points="2706.35,-128.78 2716.24,-124.99 2706.15,-121.79 2706.35,-128.78"/>
</g>
<!-- Node50&#45;&gt;Node10 -->
<g id="edge13" class="edge">
<title>Node50&#45;&gt;Node10</title>
<path fill="none" stroke="midnightblue" d="M2748.1,-112.44C2698.53,-101.82 2614.91,-83.9 2568.88,-74.04"/>
<polygon fill="midnightblue" stroke="midnightblue" points="2569.35,-70.56 2558.84,-71.89 2567.88,-77.41 2569.35,-70.56"/>
</g>
<!-- Node154&#45;&gt;Node6 -->
<g id="edge36" class="edge">
<title>Node154&#45;&gt;Node6</title>
<path fill="none" stroke="midnightblue" d="M434.65,-168.36C442.46,-141.12 463.71,-81.74 506.03,-56 570.21,-16.95 1106.23,-11.79 1251.72,-11.1"/>
<polygon fill="midnightblue" stroke="midnightblue" points="1251.91,-14.6 1261.89,-11.06 1251.88,-7.6 1251.91,-14.6"/>
</g>
<!-- Node154&#45;&gt;Node59 -->
<g id="edge37" class="edge">
<title>Node154&#45;&gt;Node59</title>
<path fill="none" stroke="midnightblue" d="M488.07,-168.47C535.15,-156.9 600.35,-140.87 639.45,-131.26"/>
<polygon fill="midnightblue" stroke="midnightblue" points="640.39,-134.63 649.27,-128.84 638.72,-127.83 640.39,-134.63"/>
</g>
<!-- Node57 -->
<g id="node19" class="node">
<title>Node57</title>
<g id="a_node19"><a xlink:href="SmallVector_8h.html" target="_top" xlink:title=" ">
<polygon fill="none" stroke="red" points="1071.53,-112.5 1071.53,-131.5 1202.53,-131.5 1202.53,-112.5 1071.53,-112.5"/>
<text text-anchor="middle" x="1137.03" y="-119.5" font-family="Helvetica,sans-Serif" font-size="10.00">llvm/ADT/SmallVector.h</text>
</a>
</g>
</g>
<!-- Node154&#45;&gt;Node57 -->
<g id="edge26" class="edge">
<title>Node154&#45;&gt;Node57</title>
<path fill="none" stroke="midnightblue" d="M511.87,-173.29C529.08,-171.44 547.15,-169.58 564.03,-168 742.02,-151.31 951.52,-135.94 1061.25,-128.22"/>
<polygon fill="midnightblue" stroke="midnightblue" points="1061.5,-131.71 1071.23,-127.52 1061.01,-124.73 1061.5,-131.71"/>
</g>
<!-- Node155 -->
<g id="node20" class="node">
<title>Node155</title>
<g id="a_node20"><a xlink:href="Register_8h.html" target="_top" xlink:title=" ">
<polygon fill="none" stroke="red" points="515.53,-56.5 515.53,-75.5 652.53,-75.5 652.53,-56.5 515.53,-56.5"/>
<text text-anchor="middle" x="584.03" y="-63.5" font-family="Helvetica,sans-Serif" font-size="10.00">llvm/CodeGen/Register.h</text>
</a>
</g>
</g>
<!-- Node154&#45;&gt;Node155 -->
<g id="edge31" class="edge">
<title>Node154&#45;&gt;Node155</title>
<path fill="none" stroke="midnightblue" d="M449.79,-168.34C478.86,-146.39 534.53,-104.37 564.22,-81.95"/>
<polygon fill="midnightblue" stroke="midnightblue" points="566.67,-84.49 572.55,-75.67 562.46,-78.9 566.67,-84.49"/>
</g>
<!-- Node75 -->
<g id="node21" class="node">
<title>Node75</title>
<g id="a_node21"><a xlink:href="Alignment_8h.html" target="_top" xlink:title=" ">
<polygon fill="none" stroke="red" points="1487.53,-112.5 1487.53,-131.5 1628.53,-131.5 1628.53,-112.5 1487.53,-112.5"/>
<text text-anchor="middle" x="1558.03" y="-119.5" font-family="Helvetica,sans-Serif" font-size="10.00">llvm/Support/Alignment.h</text>
</a>
</g>
</g>
<!-- Node154&#45;&gt;Node75 -->
<g id="edge33" class="edge">
<title>Node154&#45;&gt;Node75</title>
<path fill="none" stroke="midnightblue" d="M511.63,-178.24C718.97,-167.3 1269.08,-138.26 1476.95,-127.28"/>
<polygon fill="midnightblue" stroke="midnightblue" points="1477.38,-130.76 1487.18,-126.74 1477.01,-123.77 1477.38,-130.76"/>
</g>
<!-- Node57&#45;&gt;Node15 -->
<g id="edge27" class="edge">
<title>Node57&#45;&gt;Node15</title>
<path fill="none" stroke="midnightblue" d="M1186.39,-112.47C1238.69,-103.42 1323.68,-88.72 1397.03,-76 1508.35,-56.69 1638.3,-34.09 1712,-21.27"/>
<polygon fill="midnightblue" stroke="midnightblue" points="1712.77,-24.69 1722.02,-19.53 1711.57,-17.79 1712.77,-24.69"/>
</g>
<!-- Node57&#45;&gt;Node6 -->
<g id="edge28" class="edge">
<title>Node57&#45;&gt;Node6</title>
<path fill="none" stroke="midnightblue" d="M1147.08,-112.19C1161.95,-99.3 1190.88,-74.81 1217.03,-56 1232.48,-44.88 1250.62,-33.41 1264.69,-24.84"/>
<polygon fill="midnightblue" stroke="midnightblue" points="1266.53,-27.81 1273.29,-19.65 1262.92,-21.82 1266.53,-27.81"/>
</g>
<!-- Node57&#45;&gt;Node10 -->
<g id="edge30" class="edge">
<title>Node57&#45;&gt;Node10</title>
<path fill="none" stroke="midnightblue" d="M1202.63,-118.47C1450.12,-108.91 2322.32,-75.25 2503.08,-68.27"/>
<polygon fill="midnightblue" stroke="midnightblue" points="2503.43,-71.76 2513.29,-67.88 2503.16,-64.77 2503.43,-71.76"/>
</g>
<!-- Node57&#45;&gt;Node52 -->
<g id="edge29" class="edge">
<title>Node57&#45;&gt;Node52</title>
<path fill="none" stroke="midnightblue" d="M1071.4,-112.56C983.01,-101.2 828.45,-81.33 756.26,-72.04"/>
<polygon fill="midnightblue" stroke="midnightblue" points="756.59,-68.56 746.23,-70.75 755.7,-75.5 756.59,-68.56"/>
</g>
<!-- Node155&#45;&gt;Node6 -->
<g id="edge32" class="edge">
<title>Node155&#45;&gt;Node6</title>
<path fill="none" stroke="midnightblue" d="M652.77,-58.32C661.6,-57.51 670.53,-56.72 679.03,-56 896.21,-37.69 1157.31,-19.77 1251.73,-13.42"/>
<polygon fill="midnightblue" stroke="midnightblue" points="1252.15,-16.9 1261.9,-12.74 1251.69,-9.91 1252.15,-16.9"/>
</g>
<!-- Node75&#45;&gt;Node18 -->
<g id="edge34" class="edge">
<title>Node75&#45;&gt;Node18</title>
<path fill="none" stroke="midnightblue" d="M1616.34,-112.44C1682.02,-102.81 1788.62,-87.16 1858.03,-76.98"/>
<polygon fill="midnightblue" stroke="midnightblue" points="1858.61,-80.43 1867.99,-75.52 1857.59,-73.51 1858.61,-80.43"/>
</g>
<!-- Node75&#45;&gt;Node6 -->
<g id="edge35" class="edge">
<title>Node75&#45;&gt;Node6</title>
<path fill="none" stroke="midnightblue" d="M1549.43,-112.42C1534.95,-98.46 1504.21,-70.9 1473.03,-56 1424.5,-32.81 1362.93,-20.92 1324.5,-15.34"/>
<polygon fill="midnightblue" stroke="midnightblue" points="1324.69,-11.83 1314.3,-13.92 1323.73,-18.76 1324.69,-11.83"/>
</g>
<!-- Node157&#45;&gt;Node4 -->
<g id="edge52" class="edge">
<title>Node157&#45;&gt;Node4</title>
<path fill="none" stroke="midnightblue" d="M1657.3,-430.95C1673.8,-421.46 1700.6,-405.33 1722.03,-389 1738.29,-376.61 1739.25,-369.68 1756.03,-358 1829.12,-307.12 1870.03,-327.92 1934.03,-266 1971.92,-229.34 1996.88,-170.82 2007.77,-141.3"/>
<polygon fill="midnightblue" stroke="midnightblue" points="2011.19,-142.1 2011.25,-131.51 2004.6,-139.76 2011.19,-142.1"/>
</g>
<!-- Node157&#45;&gt;Node15 -->
<g id="edge104" class="edge">
<title>Node157&#45;&gt;Node15</title>
<path fill="none" stroke="midnightblue" d="M1637.71,-430.68C1623.46,-401.82 1576.18,-307.89 1529.03,-235 1518.17,-218.21 1511.51,-216.61 1502.03,-199 1483.02,-163.68 1454.74,-144.66 1478.03,-112 1526.71,-43.73 1624.7,-21.15 1693.92,-13.93"/>
<polygon fill="midnightblue" stroke="midnightblue" points="1694.3,-17.41 1703.92,-12.98 1693.63,-10.44 1694.3,-17.41"/>
</g>
<!-- Node157&#45;&gt;Node6 -->
<g id="edge113" class="edge">
<title>Node157&#45;&gt;Node6</title>
<path fill="none" stroke="midnightblue" d="M1552,-437.2C1291.71,-430.34 549.88,-409.25 442.03,-389 241.86,-351.41 95.34,-390.14 25.03,-199 -45.39,-7.55 21.92,-120.51 386.03,-56 556.6,-25.78 1104.75,-14.2 1251.57,-11.6"/>
<polygon fill="midnightblue" stroke="midnightblue" points="1251.88,-15.09 1261.82,-11.42 1251.76,-8.1 1251.88,-15.09"/>
</g>
<!-- Node157&#45;&gt;Node8 -->
<g id="edge114" class="edge">
<title>Node157&#45;&gt;Node8</title>
<path fill="none" stroke="midnightblue" d="M1732.25,-437.52C2060.96,-430.2 3179.21,-404.28 3254.03,-389 3347.03,-370.01 3629.03,-279.42 3629.03,-184.5 3629.03,-184.5 3629.03,-184.5 3629.03,-121 3629.03,-49.16 3550.88,-72.78 3481.03,-56 3336.71,-21.34 2869.11,-13.05 2736.43,-11.38"/>
<polygon fill="midnightblue" stroke="midnightblue" points="2736.09,-7.87 2726.05,-11.25 2736,-14.87 2736.09,-7.87"/>
</g>
<!-- Node157&#45;&gt;Node10 -->
<g id="edge116" class="edge">
<title>Node157&#45;&gt;Node10</title>
<path fill="none" stroke="midnightblue" d="M1732.16,-437.63C2062.21,-430.65 3187.52,-405.69 3221.03,-389 3255.26,-371.95 3262.3,-358.07 3275.03,-322 3293.62,-269.32 3309.11,-233.52 3235.03,-168 3209.57,-145.48 2703.77,-86.2 2568.86,-70.73"/>
<polygon fill="midnightblue" stroke="midnightblue" points="2569.06,-67.23 2558.73,-69.57 2568.27,-74.19 2569.06,-67.23"/>
</g>
<!-- Node157&#45;&gt;Node52 -->
<g id="edge115" class="edge">
<title>Node157&#45;&gt;Node52</title>
<path fill="none" stroke="midnightblue" d="M1551.89,-438.86C1345.84,-436.74 845.57,-427.66 682.03,-389 648.52,-381.08 643.27,-370.1 611.03,-358 547.53,-334.18 360.11,-320.71 320.03,-266 306.87,-248.04 321.56,-182.84 332.03,-168 360.95,-127.01 382.68,-128.58 430.03,-112 528.1,-77.66 558.4,-92.24 661.03,-76 666.5,-75.13 672.27,-74.21 677.94,-73.31"/>
<polygon fill="midnightblue" stroke="midnightblue" points="678.65,-76.74 687.97,-71.7 677.54,-69.83 678.65,-76.74"/>
</g>
<!-- Node157&#45;&gt;Node59 -->
<g id="edge117" class="edge">
<title>Node157&#45;&gt;Node59</title>
<path fill="none" stroke="midnightblue" d="M1551.93,-438.99C1361.69,-437.14 924.8,-428.58 782.03,-389 691.12,-363.8 640.35,-354.99 609.03,-266 592.32,-218.54 633.18,-165 657.13,-138.95"/>
<polygon fill="midnightblue" stroke="midnightblue" points="659.86,-141.16 664.22,-131.5 654.79,-136.33 659.86,-141.16"/>
</g>
<!-- Node157&#45;&gt;Node57 -->
<g id="edge55" class="edge">
<title>Node157&#45;&gt;Node57</title>
<path fill="none" stroke="midnightblue" d="M1590.65,-430.98C1517.98,-417.15 1383.12,-384.81 1285.03,-322 1240.54,-293.51 1241.47,-272.28 1204.03,-235 1187.31,-218.36 1178.14,-218.61 1165.03,-199 1153.09,-181.14 1145.43,-157.54 1141.19,-141.4"/>
<polygon fill="midnightblue" stroke="midnightblue" points="1144.57,-140.47 1138.8,-131.59 1137.77,-142.13 1144.57,-140.47"/>
</g>
<!-- Node56 -->
<g id="node23" class="node">
<title>Node56</title>
<g id="a_node23"><a xlink:href="ArrayRef_8h.html" target="_top" xlink:title=" ">
<polygon fill="none" stroke="red" points="834.03,-174 834.03,-193 950.03,-193 950.03,-174 834.03,-174"/>
<text text-anchor="middle" x="892.03" y="-181" font-family="Helvetica,sans-Serif" font-size="10.00">llvm/ADT/ArrayRef.h</text>
</a>
</g>
</g>
<!-- Node157&#45;&gt;Node56 -->
<g id="edge39" class="edge">
<title>Node157&#45;&gt;Node56</title>
<path fill="none" stroke="midnightblue" d="M1551.95,-437.33C1341.28,-431.83 832.26,-415.8 807.03,-389 760.12,-339.16 773.18,-294.49 807.03,-235 817.2,-217.13 836.47,-204.92 854.09,-196.99"/>
<polygon fill="midnightblue" stroke="midnightblue" points="855.76,-200.09 863.65,-193.02 853.07,-193.63 855.76,-200.09"/>
</g>
<!-- Node148 -->
<g id="node24" class="node">
<title>Node148</title>
<g id="a_node24"><a xlink:href="BitVector_8h.html" target="_top" xlink:title=" ">
<polygon fill="none" stroke="red" points="2285.53,-241 2285.53,-260 2402.53,-260 2402.53,-241 2285.53,-241"/>
<text text-anchor="middle" x="2344.03" y="-248" font-family="Helvetica,sans-Serif" font-size="10.00">llvm/ADT/BitVector.h</text>
</a>
</g>
</g>
<!-- Node157&#45;&gt;Node148 -->
<g id="edge45" class="edge">
<title>Node157&#45;&gt;Node148</title>
<path fill="none" stroke="midnightblue" d="M1713.74,-430.98C1775.58,-422.82 1866.98,-408.81 1945.03,-389 2085.87,-353.26 2247.95,-290.38 2313.84,-263.85"/>
<polygon fill="midnightblue" stroke="midnightblue" points="2315.25,-267.06 2323.21,-260.06 2312.63,-260.57 2315.25,-267.06"/>
</g>
<!-- Node158 -->
<g id="node25" class="node">
<title>Node158</title>
<g id="a_node25"><a xlink:href="GraphTraits_8h.html" target="_top" xlink:title=" ">
<polygon fill="none" stroke="black" points="2862.53,-302.5 2862.53,-321.5 2991.53,-321.5 2991.53,-302.5 2862.53,-302.5"/>
<text text-anchor="middle" x="2927.03" y="-309.5" font-family="Helvetica,sans-Serif" font-size="10.00">llvm/ADT/GraphTraits.h</text>
</a>
</g>
</g>
<!-- Node157&#45;&gt;Node158 -->
<g id="edge53" class="edge">
<title>Node157&#45;&gt;Node158</title>
<path fill="none" stroke="midnightblue" d="M1732.24,-438.33C1988.45,-434.64 2708.6,-421.45 2810.03,-389 2849.54,-376.36 2888.55,-346.62 2910.05,-328.31"/>
<polygon fill="midnightblue" stroke="midnightblue" points="2912.4,-330.9 2917.64,-321.69 2907.8,-325.63 2912.4,-330.9"/>
</g>
<!-- Node85 -->
<g id="node26" class="node">
<title>Node85</title>
<g id="a_node26"><a xlink:href="ilist_8h.html" target="_top" xlink:title=" ">
<polygon fill="none" stroke="red" points="849.03,-241 849.03,-260 941.03,-260 941.03,-241 849.03,-241"/>
<text text-anchor="middle" x="895.03" y="-248" font-family="Helvetica,sans-Serif" font-size="10.00">llvm/ADT/ilist.h</text>
</a>
</g>
</g>
<!-- Node157&#45;&gt;Node85 -->
<g id="edge56" class="edge">
<title>Node157&#45;&gt;Node85</title>
<path fill="none" stroke="midnightblue" d="M1551.84,-437.1C1454.82,-432.88 1296.61,-421.21 1164.03,-389 1084.31,-369.63 1064.03,-361.33 992.03,-322 962.4,-305.82 931.39,-281.85 912.63,-266.45"/>
<polygon fill="midnightblue" stroke="midnightblue" points="914.85,-263.74 904.93,-260.04 910.37,-269.12 914.85,-263.74"/>
</g>
<!-- Node49 -->
<g id="node27" class="node">
<title>Node49</title>
<g id="a_node27"><a xlink:href="iterator_8h.html" target="_top" xlink:title=" ">
<polygon fill="none" stroke="red" points="3156.53,-302.5 3156.53,-321.5 3265.53,-321.5 3265.53,-302.5 3156.53,-302.5"/>
<text text-anchor="middle" x="3211.03" y="-309.5" font-family="Helvetica,sans-Serif" font-size="10.00">llvm/ADT/iterator.h</text>
</a>
</g>
</g>
<!-- Node157&#45;&gt;Node49 -->
<g id="edge58" class="edge">
<title>Node157&#45;&gt;Node49</title>
<path fill="none" stroke="midnightblue" d="M1732.27,-437.35C2062.59,-429.39 3187.33,-401.41 3201.03,-389 3216.56,-374.93 3216.77,-349.4 3214.63,-331.85"/>
<polygon fill="midnightblue" stroke="midnightblue" points="3218.03,-330.99 3213.02,-321.66 3211.12,-332.08 3218.03,-330.99"/>
</g>
<!-- Node159 -->
<g id="node28" class="node">
<title>Node159</title>
<g id="a_node28"><a xlink:href="EHPersonalities_8h.html" target="_top" xlink:title=" ">
<polygon fill="none" stroke="red" points="1765.53,-364 1765.53,-383 1936.53,-383 1936.53,-364 1765.53,-364"/>
<text text-anchor="middle" x="1851.03" y="-371" font-family="Helvetica,sans-Serif" font-size="10.00">llvm/Analysis/EHPersonalities.h</text>
</a>
</g>
</g>
<!-- Node157&#45;&gt;Node159 -->
<g id="edge61" class="edge">
<title>Node157&#45;&gt;Node159</title>
<path fill="none" stroke="midnightblue" d="M1669.78,-430.87C1706.81,-419.35 1772.5,-398.92 1813.8,-386.08"/>
<polygon fill="midnightblue" stroke="midnightblue" points="1814.98,-389.38 1823.49,-383.06 1812.91,-382.69 1814.98,-389.38"/>
</g>
<!-- Node160 -->
<g id="node29" class="node">
<title>Node160</title>
<g id="a_node29"><a xlink:href="MachineBasicBlock_8h.html" target="_top" xlink:title=" ">
<polygon fill="none" stroke="red" points="2275.03,-358.5 2275.03,-388.5 2431.03,-388.5 2431.03,-358.5 2275.03,-358.5"/>
<text text-anchor="start" x="2283.03" y="-376.5" font-family="Helvetica,sans-Serif" font-size="10.00">llvm/CodeGen/MachineBasic</text>
<text text-anchor="middle" x="2353.03" y="-365.5" font-family="Helvetica,sans-Serif" font-size="10.00">Block.h</text>
</a>
</g>
</g>
<!-- Node157&#45;&gt;Node160 -->
<g id="edge63" class="edge">
<title>Node157&#45;&gt;Node160</title>
<path fill="none" stroke="midnightblue" d="M1732.19,-434.27C1852.89,-426.78 2073.54,-411.39 2261.03,-389 2262.29,-388.85 2263.57,-388.69 2264.85,-388.53"/>
<polygon fill="midnightblue" stroke="midnightblue" points="2265.32,-392 2274.79,-387.24 2264.42,-385.06 2265.32,-392"/>
</g>
<!-- Node162 -->
<g id="node30" class="node">
<title>Node162</title>
<g id="a_node30"><a xlink:href="MachineInstr_8h.html" target="_top" xlink:title=" ">
<polygon fill="none" stroke="red" points="2273.03,-302.5 2273.03,-321.5 2433.03,-321.5 2433.03,-302.5 2273.03,-302.5"/>
<text text-anchor="middle" x="2353.03" y="-309.5" font-family="Helvetica,sans-Serif" font-size="10.00">llvm/CodeGen/MachineInstr.h</text>
</a>
</g>
</g>
<!-- Node157&#45;&gt;Node162 -->
<g id="edge99" class="edge">
<title>Node157&#45;&gt;Node162</title>
<path fill="none" stroke="midnightblue" d="M1732.05,-438.19C1873.45,-435.06 2140.49,-424.48 2228.03,-389 2248.23,-380.81 2247.81,-369.96 2266.03,-358 2284.74,-345.72 2307.21,-334.17 2324.63,-325.85"/>
<polygon fill="midnightblue" stroke="midnightblue" points="2326.17,-328.99 2333.73,-321.57 2323.19,-322.66 2326.17,-328.99"/>
</g>
<!-- Node166 -->
<g id="node31" class="node">
<title>Node166</title>
<g id="a_node31"><a xlink:href="MachineMemOperand_8h.html" target="_top" xlink:title=" ">
<polygon fill="none" stroke="red" points="2863.53,-241 2863.53,-260 3068.53,-260 3068.53,-241 2863.53,-241"/>
<text text-anchor="middle" x="2966.03" y="-248" font-family="Helvetica,sans-Serif" font-size="10.00">llvm/CodeGen/MachineMemOperand.h</text>
</a>
</g>
</g>
<!-- Node157&#45;&gt;Node166 -->
<g id="edge100" class="edge">
<title>Node157&#45;&gt;Node166</title>
<path fill="none" stroke="midnightblue" d="M1732.26,-438.42C1880.63,-435.61 2185.12,-425.49 2440.03,-389 2574.41,-369.76 2609.34,-365.2 2738.03,-322 2758.39,-315.16 2761.83,-309.31 2782.03,-302 2827.3,-285.62 2880.47,-271.56 2917.98,-262.47"/>
<polygon fill="midnightblue" stroke="midnightblue" points="2919.22,-265.77 2928.13,-260.04 2917.59,-258.96 2919.22,-265.77"/>
</g>
<!-- Node101 -->
<g id="node32" class="node">
<title>Node101</title>
<g id="a_node32"><a xlink:href="AtomicOrdering_8h.html" target="_top" xlink:title=" ">
<polygon fill="none" stroke="red" points="2916.53,-174 2916.53,-193 3083.53,-193 3083.53,-174 2916.53,-174"/>
<text text-anchor="middle" x="3000.03" y="-181" font-family="Helvetica,sans-Serif" font-size="10.00">llvm/Support/AtomicOrdering.h</text>
</a>
</g>
</g>
<!-- Node157&#45;&gt;Node101 -->
<g id="edge103" class="edge">
<title>Node157&#45;&gt;Node101</title>
<path fill="none" stroke="midnightblue" d="M1732.16,-436.94C1928.38,-430.97 2388.97,-414.62 2543.03,-389 2684.19,-365.52 2713.27,-332.74 2853.03,-302 2902.27,-291.17 3044.33,-304.37 3077.03,-266 3098.33,-241 3058.1,-213.55 3028.2,-197.74"/>
<polygon fill="midnightblue" stroke="midnightblue" points="3029.44,-194.45 3018.94,-193.03 3026.27,-200.68 3029.44,-194.45"/>
</g>
<!-- Node188 -->
<g id="node33" class="node">
<title>Node188</title>
<g id="a_node33"><a xlink:href="ArrayRecycler_8h.html" target="_top" xlink:title=" ">
<polygon fill="none" stroke="black" points="1767.03,-241 1767.03,-260 1925.03,-260 1925.03,-241 1767.03,-241"/>
<text text-anchor="middle" x="1846.03" y="-248" font-family="Helvetica,sans-Serif" font-size="10.00">llvm/Support/ArrayRecycler.h</text>
</a>
</g>
</g>
<!-- Node157&#45;&gt;Node188 -->
<g id="edge102" class="edge">
<title>Node157&#45;&gt;Node188</title>
<path fill="none" stroke="midnightblue" d="M1650.34,-430.72C1664.78,-415.55 1695.62,-383.59 1723.03,-358 1759.23,-324.2 1803.54,-286.75 1827.87,-266.49"/>
<polygon fill="midnightblue" stroke="midnightblue" points="1830.14,-269.16 1835.6,-260.08 1825.67,-263.77 1830.14,-269.16"/>
</g>
<!-- Node189 -->
<g id="node34" class="node">
<title>Node189</title>
<g id="a_node34"><a xlink:href="Allocator_8h.html" target="_top" xlink:title=" ">
<polygon fill="none" stroke="red" points="1511.03,-174 1511.03,-193 1645.03,-193 1645.03,-174 1511.03,-174"/>
<text text-anchor="middle" x="1578.03" y="-181" font-family="Helvetica,sans-Serif" font-size="10.00">llvm/Support/Allocator.h</text>
</a>
</g>
</g>
<!-- Node157&#45;&gt;Node189 -->
<g id="edge101" class="edge">
<title>Node157&#45;&gt;Node189</title>
<path fill="none" stroke="midnightblue" d="M1644.36,-430.74C1651.71,-401.29 1672.03,-303.84 1639.03,-235 1631.59,-219.49 1616.85,-207.07 1603.73,-198.44"/>
<polygon fill="midnightblue" stroke="midnightblue" points="1605.36,-195.33 1595.01,-193.07 1601.69,-201.29 1605.36,-195.33"/>
</g>
<!-- Node195 -->
<g id="node38" class="node">
<title>Node195</title>
<g id="a_node38"><a xlink:href="Recycler_8h.html" target="_top" xlink:title=" ">
<polygon fill="none" stroke="black" points="1063.03,-302.5 1063.03,-321.5 1195.03,-321.5 1195.03,-302.5 1063.03,-302.5"/>
<text text-anchor="middle" x="1129.03" y="-309.5" font-family="Helvetica,sans-Serif" font-size="10.00">llvm/Support/Recycler.h</text>
</a>
</g>
</g>
<!-- Node157&#45;&gt;Node195 -->
<g id="edge105" class="edge">
<title>Node157&#45;&gt;Node195</title>
<path fill="none" stroke="midnightblue" d="M1551.8,-435.67C1443.18,-429.91 1267.97,-416.6 1209.03,-389 1180.66,-375.72 1155.9,-348.4 1141.71,-330.39"/>
<polygon fill="midnightblue" stroke="midnightblue" points="1144.12,-327.79 1135.28,-321.95 1138.55,-332.03 1144.12,-327.79"/>
</g>
<!-- Node196 -->
<g id="node40" class="node">
<title>Node196</title>
<g id="a_node40"><a xlink:href="TargetOptions_8h.html" target="_top" xlink:title=" ">
<polygon fill="none" stroke="red" points="451.53,-364 451.53,-383 602.53,-383 602.53,-364 451.53,-364"/>
<text text-anchor="middle" x="527.03" y="-371" font-family="Helvetica,sans-Serif" font-size="10.00">llvm/Target/TargetOptions.h</text>
</a>
</g>
</g>
<!-- Node157&#45;&gt;Node196 -->
<g id="edge111" class="edge">
<title>Node157&#45;&gt;Node196</title>
<path fill="none" stroke="midnightblue" d="M1551.97,-438.4C1373.24,-435.49 961.23,-425.09 617.03,-389 606.18,-387.86 594.66,-386.29 583.6,-384.59"/>
<polygon fill="midnightblue" stroke="midnightblue" points="584.03,-381.12 573.61,-383.01 582.94,-388.03 584.03,-381.12"/>
</g>
<!-- Node56&#45;&gt;Node15 -->
<g id="edge41" class="edge">
<title>Node56&#45;&gt;Node15</title>
<path fill="none" stroke="midnightblue" d="M908.94,-173.96C938.99,-159.14 1003.98,-128.65 1062.03,-112 1285.96,-47.76 1561.9,-23.45 1693.76,-15.03"/>
<polygon fill="midnightblue" stroke="midnightblue" points="1694.01,-18.53 1703.77,-14.41 1693.57,-11.54 1694.01,-18.53"/>
</g>
<!-- Node56&#45;&gt;Node6 -->
<g id="edge42" class="edge">
<title>Node56&#45;&gt;Node6</title>
<path fill="none" stroke="midnightblue" d="M895.88,-173.91C906.89,-150.48 940.94,-85.25 991.03,-56 1034.72,-30.48 1182.81,-17.8 1251.93,-13.15"/>
<polygon fill="midnightblue" stroke="midnightblue" points="1252.18,-16.64 1261.93,-12.5 1251.72,-9.65 1252.18,-16.64"/>
</g>
<!-- Node56&#45;&gt;Node52 -->
<g id="edge43" class="edge">
<title>Node56&#45;&gt;Node52</title>
<path fill="none" stroke="midnightblue" d="M878.88,-173.82C848.98,-154.09 775.66,-105.7 738.86,-81.41"/>
<polygon fill="midnightblue" stroke="midnightblue" points="740.61,-78.37 730.34,-75.78 736.75,-84.21 740.61,-78.37"/>
</g>
<!-- Node56&#45;&gt;Node59 -->
<g id="edge44" class="edge">
<title>Node56&#45;&gt;Node59</title>
<path fill="none" stroke="midnightblue" d="M860.65,-173.98C819.68,-162.84 748.25,-143.44 706.34,-132.05"/>
<polygon fill="midnightblue" stroke="midnightblue" points="707.18,-128.65 696.61,-129.41 705.35,-135.41 707.18,-128.65"/>
</g>
<!-- Node56&#45;&gt;Node57 -->
<g id="edge40" class="edge">
<title>Node56&#45;&gt;Node57</title>
<path fill="none" stroke="midnightblue" d="M927.13,-173.98C970.52,-163.44 1044.44,-145.49 1091.98,-133.94"/>
<polygon fill="midnightblue" stroke="midnightblue" points="1093.1,-137.27 1101.99,-131.51 1091.45,-130.47 1093.1,-137.27"/>
</g>
<!-- Node148&#45;&gt;Node18 -->
<g id="edge48" class="edge">
<title>Node148&#45;&gt;Node18</title>
<path fill="none" stroke="midnightblue" d="M2342.32,-240.91C2336.91,-216.15 2317.67,-144.34 2271.03,-112 2260.34,-104.59 2107.7,-86.76 2009.07,-75.9"/>
<polygon fill="midnightblue" stroke="midnightblue" points="2009.43,-72.42 1999.11,-74.81 2008.67,-79.38 2009.43,-72.42"/>
</g>
<!-- Node148&#45;&gt;Node6 -->
<g id="edge49" class="edge">
<title>Node148&#45;&gt;Node6</title>
<path fill="none" stroke="midnightblue" d="M2345,-240.58C2346.31,-225.19 2347.53,-192.92 2338.03,-168 2326.85,-138.68 2321.71,-128.52 2295.03,-112 2184.53,-43.59 2136.93,-72.53 2008.03,-56 1747.41,-22.57 1430.4,-13.71 1324.46,-11.6"/>
<polygon fill="midnightblue" stroke="midnightblue" points="1324.36,-8.1 1314.3,-11.41 1324.23,-15.1 1324.36,-8.1"/>
</g>
<!-- Node148&#45;&gt;Node8 -->
<g id="edge50" class="edge">
<title>Node148&#45;&gt;Node8</title>
<path fill="none" stroke="midnightblue" d="M2380.32,-240.95C2410.49,-232.89 2453.86,-219.03 2488.03,-199 2572.72,-149.35 2654.48,-63.26 2686.67,-27.4"/>
<polygon fill="midnightblue" stroke="midnightblue" points="2689.4,-29.6 2693.43,-19.8 2684.17,-24.95 2689.4,-29.6"/>
</g>
<!-- Node148&#45;&gt;Node10 -->
<g id="edge51" class="edge">
<title>Node148&#45;&gt;Node10</title>
<path fill="none" stroke="midnightblue" d="M2378.79,-240.93C2403.96,-233.31 2437.55,-220.04 2461.03,-199 2496.9,-166.85 2519.77,-113.34 2529.93,-85.34"/>
<polygon fill="midnightblue" stroke="midnightblue" points="2533.32,-86.25 2533.3,-75.65 2526.71,-83.95 2533.32,-86.25"/>
</g>
<!-- Node148&#45;&gt;Node50 -->
<g id="edge47" class="edge">
<title>Node148&#45;&gt;Node50</title>
<path fill="none" stroke="midnightblue" d="M2378.3,-240.95C2416.97,-231.21 2481.7,-214.61 2537.03,-199 2613.53,-177.42 2702.42,-149.93 2751.23,-134.62"/>
<polygon fill="midnightblue" stroke="midnightblue" points="2752.52,-137.88 2761.01,-131.55 2750.43,-131.21 2752.52,-137.88"/>
</g>
<!-- Node148&#45;&gt;Node56 -->
<g id="edge46" class="edge">
<title>Node148&#45;&gt;Node56</title>
<path fill="none" stroke="midnightblue" d="M2285.31,-246.87C2054.26,-236.53 1208.25,-198.66 960.58,-187.57"/>
<polygon fill="midnightblue" stroke="midnightblue" points="960.43,-184.06 950.28,-187.11 960.12,-191.05 960.43,-184.06"/>
</g>
<!-- Node158&#45;&gt;Node50 -->
<g id="edge54" class="edge">
<title>Node158&#45;&gt;Node50</title>
<path fill="none" stroke="midnightblue" d="M2991.54,-303.67C3038.44,-296.87 3096.21,-284.88 3111.03,-266 3128.68,-243.51 3102.59,-177.28 3092.03,-168 3083.64,-160.63 2956.28,-143.66 2869.09,-132.8"/>
<polygon fill="midnightblue" stroke="midnightblue" points="2869.29,-129.3 2858.94,-131.54 2868.43,-136.24 2869.29,-129.3"/>
</g>
<!-- Node85&#45;&gt;Node6 -->
<g id="edge57" class="edge">
<title>Node85&#45;&gt;Node6</title>
<path fill="none" stroke="midnightblue" d="M909.28,-240.96C923.36,-231.94 944.81,-216.62 959.03,-199 1003.47,-143.93 972.43,-98.47 1029.03,-56 1063.62,-30.04 1188.96,-17.85 1251.71,-13.28"/>
<polygon fill="midnightblue" stroke="midnightblue" points="1252.22,-16.75 1261.95,-12.56 1251.73,-9.77 1252.22,-16.75"/>
</g>
<!-- Node49&#45;&gt;Node10 -->
<g id="edge60" class="edge">
<title>Node49&#45;&gt;Node10</title>
<path fill="none" stroke="midnightblue" d="M3215.91,-302.37C3220.59,-293.55 3227.34,-279.3 3230.03,-266 3238.85,-222.43 3244.02,-196.65 3210.03,-168 3159.03,-125 2976.26,-150.01 2912.03,-132 2891.35,-126.2 2888.67,-117.95 2868.03,-112 2761.26,-81.22 2628.97,-71.32 2568.7,-68.28"/>
<polygon fill="midnightblue" stroke="midnightblue" points="2568.79,-64.78 2558.64,-67.8 2568.46,-71.77 2568.79,-64.78"/>
</g>
<!-- Node49&#45;&gt;Node50 -->
<g id="edge59" class="edge">
<title>Node49&#45;&gt;Node50</title>
<path fill="none" stroke="midnightblue" d="M3212.7,-302.33C3216.97,-277.29 3225.41,-204.36 3187.03,-168 3184.17,-165.29 2985.82,-143.91 2869.9,-131.62"/>
<polygon fill="midnightblue" stroke="midnightblue" points="2869.95,-128.1 2859.63,-130.53 2869.21,-135.07 2869.95,-128.1"/>
</g>
<!-- Node159&#45;&gt;Node4 -->
<g id="edge62" class="edge">
<title>Node159&#45;&gt;Node4</title>
<path fill="none" stroke="midnightblue" d="M1871.3,-363.98C1916.51,-343.59 2023.72,-287.02 2051.03,-199 2055.11,-185.84 2055.68,-180.97 2051.03,-168 2047.09,-157 2039.17,-146.77 2031.67,-138.85"/>
<polygon fill="midnightblue" stroke="midnightblue" points="2034.05,-136.28 2024.47,-131.76 2029.14,-141.27 2034.05,-136.28"/>
</g>
<!-- Node160&#45;&gt;Node6 -->
<g id="edge96" class="edge">
<title>Node160&#45;&gt;Node6</title>
<path fill="none" stroke="midnightblue" d="M2274.77,-358.93C2216.84,-348.84 2135.99,-334.69 2065.03,-322 1928.5,-297.58 1893.44,-296.02 1758.03,-266 1700.62,-253.27 1553.88,-226.73 1502.03,-199 1459.83,-176.43 1377.16,-87.38 1341.03,-56 1329.49,-45.98 1316.41,-34.87 1306.13,-26.2"/>
<polygon fill="midnightblue" stroke="midnightblue" points="1308.15,-23.32 1298.25,-19.56 1303.64,-28.68 1308.15,-23.32"/>
</g>
<!-- Node160&#45;&gt;Node8 -->
<g id="edge97" class="edge">
<title>Node160&#45;&gt;Node8</title>
<path fill="none" stroke="midnightblue" d="M2431.33,-363.2C2509.21,-353.72 2632.07,-338.16 2738.03,-322 2789.31,-314.18 2801.49,-307.9 2853.03,-302 2924.12,-293.86 3441.25,-312.03 3496.03,-266 3524.5,-242.07 3515.03,-221.69 3515.03,-184.5 3515.03,-184.5 3515.03,-184.5 3515.03,-121 3515.03,-41.19 2892.61,-16.85 2736.31,-11.99"/>
<polygon fill="midnightblue" stroke="midnightblue" points="2736.38,-8.49 2726.28,-11.69 2736.17,-15.49 2736.38,-8.49"/>
</g>
<!-- Node160&#45;&gt;Node50 -->
<g id="edge66" class="edge">
<title>Node160&#45;&gt;Node50</title>
<path fill="none" stroke="midnightblue" d="M2417.56,-358.45C2454.99,-349.55 2502.74,-336.93 2544.03,-322 2563.85,-314.83 2567.14,-308.97 2587.03,-302 2650.92,-279.62 2683,-309.31 2735.03,-266 2772.92,-234.46 2783.73,-173.14 2786.81,-142.06"/>
<polygon fill="midnightblue" stroke="midnightblue" points="2790.32,-142 2787.65,-131.75 2783.35,-141.43 2790.32,-142"/>
</g>
<!-- Node160&#45;&gt;Node59 -->
<g id="edge98" class="edge">
<title>Node160&#45;&gt;Node59</title>
<path fill="none" stroke="midnightblue" d="M2274.78,-362.37C2259.31,-360.67 2243.17,-359.1 2228.03,-358 1679.9,-318.3 1539.43,-370.78 992.03,-322 824.62,-307.08 727.72,-393.34 618.03,-266 609.04,-255.56 611.75,-247.26 618.03,-235 630.51,-210.63 654.75,-222.95 668.03,-199 677.73,-181.51 677.71,-158.15 676.07,-141.96"/>
<polygon fill="midnightblue" stroke="midnightblue" points="679.49,-141.09 674.71,-131.64 672.55,-142.01 679.49,-141.09"/>
</g>
<!-- Node160&#45;&gt;Node158 -->
<g id="edge64" class="edge">
<title>Node160&#45;&gt;Node158</title>
<path fill="none" stroke="midnightblue" d="M2431.08,-364.82C2528.64,-355.16 2700.74,-337.9 2848.03,-322 2849.34,-321.86 2850.67,-321.71 2852,-321.57"/>
<polygon fill="midnightblue" stroke="midnightblue" points="2852.81,-325 2862.37,-320.43 2852.04,-318.04 2852.81,-325"/>
</g>
<!-- Node160&#45;&gt;Node85 -->
<g id="edge65" class="edge">
<title>Node160&#45;&gt;Node85</title>
<path fill="none" stroke="midnightblue" d="M2274.78,-362.39C2259.31,-360.68 2243.17,-359.11 2228.03,-358 1967.71,-338.95 1308.52,-379.98 1054.03,-322 1003.02,-310.38 948.23,-282.2 918.14,-265.19"/>
<polygon fill="midnightblue" stroke="midnightblue" points="919.69,-262.05 909.27,-260.1 916.2,-268.12 919.69,-262.05"/>
</g>
<!-- Node160&#45;&gt;Node162 -->
<g id="edge67" class="edge">
<title>Node160&#45;&gt;Node162</title>
<path fill="none" stroke="midnightblue" d="M2353.03,-358.4C2353.03,-350.47 2353.03,-340.46 2353.03,-331.86"/>
<polygon fill="midnightblue" stroke="midnightblue" points="2356.53,-331.66 2353.03,-321.66 2349.53,-331.66 2356.53,-331.66"/>
</g>
<!-- Node191 -->
<g id="node35" class="node">
<title>Node191</title>
<g id="a_node35"><a xlink:href="LaneBitmask_8h.html" target="_top" xlink:title=" ">
<polygon fill="none" stroke="red" points="2596.53,-302.5 2596.53,-321.5 2729.53,-321.5 2729.53,-302.5 2596.53,-302.5"/>
<text text-anchor="middle" x="2663.03" y="-309.5" font-family="Helvetica,sans-Serif" font-size="10.00">llvm/MC/LaneBitmask.h</text>
</a>
</g>
</g>
<!-- Node160&#45;&gt;Node191 -->
<g id="edge86" class="edge">
<title>Node160&#45;&gt;Node191</title>
<path fill="none" stroke="midnightblue" d="M2426.1,-358.47C2482.04,-347.74 2557.94,-333.17 2608.61,-323.44"/>
<polygon fill="midnightblue" stroke="midnightblue" points="2609.55,-326.83 2618.71,-321.51 2608.23,-319.95 2609.55,-326.83"/>
</g>
<!-- Node162&#45;&gt;Node6 -->
<g id="edge83" class="edge">
<title>Node162&#45;&gt;Node6</title>
<path fill="none" stroke="midnightblue" d="M2304.32,-302.47C2266.25,-295.03 2212.36,-282.79 2167.03,-266 2077.19,-232.73 2062.8,-206.41 1975.03,-168 1909.07,-139.14 1891.39,-134.59 1823.03,-112 1739.03,-84.25 1718.59,-74.24 1632.03,-56 1521.16,-32.64 1387.48,-19.31 1324.38,-13.89"/>
<polygon fill="midnightblue" stroke="midnightblue" points="1324.41,-10.38 1314.15,-13.02 1323.82,-17.35 1324.41,-10.38"/>
</g>
<!-- Node162&#45;&gt;Node8 -->
<g id="edge84" class="edge">
<title>Node162&#45;&gt;Node8</title>
<path fill="none" stroke="midnightblue" d="M2433.29,-305.06C2518.12,-297.94 2645.79,-284.6 2691.03,-266 2782.28,-228.47 2824.1,-220.35 2868.03,-132 2898.1,-71.51 2793.14,-34.46 2735.85,-19.15"/>
<polygon fill="midnightblue" stroke="midnightblue" points="2736.64,-15.74 2726.08,-16.63 2734.89,-22.52 2736.64,-15.74"/>
</g>
<!-- Node162&#45;&gt;Node10 -->
<g id="edge85" class="edge">
<title>Node162&#45;&gt;Node10</title>
<path fill="none" stroke="midnightblue" d="M2433.06,-306.35C2493.21,-300.99 2568.48,-289.65 2588.03,-266 2633.33,-211.2 2576.7,-121.25 2549.3,-83.99"/>
<polygon fill="midnightblue" stroke="midnightblue" points="2551.86,-81.57 2543.04,-75.7 2546.27,-85.79 2551.86,-81.57"/>
</g>
<!-- Node162&#45;&gt;Node50 -->
<g id="edge69" class="edge">
<title>Node162&#45;&gt;Node50</title>
<path fill="none" stroke="midnightblue" d="M2433.06,-305.89C2510.54,-299.76 2621.62,-287.53 2659.03,-266 2707.28,-238.23 2698.68,-208.35 2737.03,-168 2747.07,-157.44 2759.29,-146.6 2769.24,-138.2"/>
<polygon fill="midnightblue" stroke="midnightblue" points="2771.52,-140.87 2776.98,-131.79 2767.05,-135.48 2771.52,-140.87"/>
</g>
<!-- Node162&#45;&gt;Node85 -->
<g id="edge68" class="edge">
<title>Node162&#45;&gt;Node85</title>
<path fill="none" stroke="midnightblue" d="M2272.89,-310.41C2066.15,-308.43 1497.93,-300.07 1026.03,-266 1001.48,-264.23 974.43,-261.38 951.31,-258.68"/>
<polygon fill="midnightblue" stroke="midnightblue" points="951.67,-255.2 941.33,-257.5 950.85,-262.15 951.67,-255.2"/>
</g>
<!-- Node162&#45;&gt;Node166 -->
<g id="edge70" class="edge">
<title>Node162&#45;&gt;Node166</title>
<path fill="none" stroke="midnightblue" d="M2433.17,-303.22C2545.07,-292.36 2747.92,-272.67 2868.47,-260.97"/>
<polygon fill="midnightblue" stroke="midnightblue" points="2868.83,-264.45 2878.44,-260 2868.15,-257.48 2868.83,-264.45"/>
</g>
<!-- Node162&#45;&gt;Node188 -->
<g id="edge72" class="edge">
<title>Node162&#45;&gt;Node188</title>
<path fill="none" stroke="midnightblue" d="M2280.39,-302.48C2187.3,-291.55 2026.33,-272.66 1928.66,-261.2"/>
<polygon fill="midnightblue" stroke="midnightblue" points="1928.88,-257.7 1918.54,-260.01 1928.06,-264.65 1928.88,-257.7"/>
</g>
<!-- Node166&#45;&gt;Node101 -->
<g id="edge71" class="edge">
<title>Node166&#45;&gt;Node101</title>
<path fill="none" stroke="midnightblue" d="M2970.61,-240.73C2975.76,-230.89 2984.25,-214.66 2990.79,-202.16"/>
<polygon fill="midnightblue" stroke="midnightblue" points="2993.98,-203.61 2995.52,-193.13 2987.78,-200.37 2993.98,-203.61"/>
</g>
<!-- Node188&#45;&gt;Node18 -->
<g id="edge82" class="edge">
<title>Node188&#45;&gt;Node18</title>
<path fill="none" stroke="midnightblue" d="M1859.11,-240.69C1871.39,-231.69 1889.3,-216.57 1899.03,-199 1919.26,-162.46 1924.41,-112.67 1925.67,-85.89"/>
<polygon fill="midnightblue" stroke="midnightblue" points="1929.17,-85.75 1926.01,-75.63 1922.18,-85.51 1929.17,-85.75"/>
</g>
<!-- Node188&#45;&gt;Node57 -->
<g id="edge73" class="edge">
<title>Node188&#45;&gt;Node57</title>
<path fill="none" stroke="midnightblue" d="M1779.89,-240.98C1710.49,-231.76 1598.31,-216.08 1502.03,-199 1387.46,-178.68 1253.8,-149.42 1184.37,-133.8"/>
<polygon fill="midnightblue" stroke="midnightblue" points="1184.72,-130.29 1174.19,-131.5 1183.18,-137.12 1184.72,-130.29"/>
</g>
<!-- Node188&#45;&gt;Node189 -->
<g id="edge74" class="edge">
<title>Node188&#45;&gt;Node189</title>
<path fill="none" stroke="midnightblue" d="M1810.72,-240.94C1762.51,-229.24 1676.08,-208.28 1623.2,-195.46"/>
<polygon fill="midnightblue" stroke="midnightblue" points="1623.96,-192.04 1613.42,-193.08 1622.31,-198.84 1623.96,-192.04"/>
</g>
<!-- Node189&#45;&gt;Node15 -->
<g id="edge77" class="edge">
<title>Node189&#45;&gt;Node15</title>
<path fill="none" stroke="midnightblue" d="M1588.55,-173.64C1600.4,-163.62 1620.22,-146.78 1637.03,-132 1679.54,-94.63 1728.76,-49.77 1754.06,-26.58"/>
<polygon fill="midnightblue" stroke="midnightblue" points="1756.68,-28.93 1761.68,-19.59 1751.95,-23.77 1756.68,-28.93"/>
</g>
<!-- Node189&#45;&gt;Node18 -->
<g id="edge78" class="edge">
<title>Node189&#45;&gt;Node18</title>
<path fill="none" stroke="midnightblue" d="M1603.9,-173.91C1665.31,-153.53 1819.95,-102.21 1890.25,-78.88"/>
<polygon fill="midnightblue" stroke="midnightblue" points="1891.6,-82.12 1899.99,-75.64 1889.39,-75.47 1891.6,-82.12"/>
</g>
<!-- Node189&#45;&gt;Node6 -->
<g id="edge79" class="edge">
<title>Node189&#45;&gt;Node6</title>
<path fill="none" stroke="midnightblue" d="M1551.21,-173.89C1529.43,-165.83 1499,-152 1478.03,-132 1449.95,-105.21 1465.29,-80.3 1435.03,-56 1403.06,-30.33 1356.52,-19.26 1324.41,-14.52"/>
<polygon fill="midnightblue" stroke="midnightblue" points="1324.49,-11 1314.12,-13.14 1323.56,-17.94 1324.49,-11"/>
</g>
<!-- Node189&#45;&gt;Node8 -->
<g id="edge80" class="edge">
<title>Node189&#45;&gt;Node8</title>
<path fill="none" stroke="midnightblue" d="M1621.63,-173.93C1633.71,-171.76 1646.85,-169.6 1659.03,-168 1847.42,-143.23 1903.96,-189.6 2085.03,-132 2101.74,-126.68 2102.59,-118.08 2119.03,-112 2251.99,-62.85 2293.35,-80.18 2433.03,-56 2516.53,-41.54 2614.8,-25.22 2666,-16.77"/>
<polygon fill="midnightblue" stroke="midnightblue" points="2666.59,-20.22 2675.89,-15.13 2665.45,-13.31 2666.59,-20.22"/>
</g>
<!-- Node189&#45;&gt;Node10 -->
<g id="edge81" class="edge">
<title>Node189&#45;&gt;Node10</title>
<path fill="none" stroke="midnightblue" d="M1621.21,-173.95C1633.4,-171.76 1646.7,-169.58 1659.03,-168 1862.43,-141.9 1915.35,-155.81 2119.03,-132 2263.01,-115.17 2433.5,-85.53 2503.54,-72.93"/>
<polygon fill="midnightblue" stroke="midnightblue" points="2504.29,-76.35 2513.51,-71.13 2503.05,-69.47 2504.29,-76.35"/>
</g>
<!-- Node189&#45;&gt;Node57 -->
<g id="edge75" class="edge">
<title>Node189&#45;&gt;Node57</title>
<path fill="none" stroke="midnightblue" d="M1514.84,-173.98C1434.29,-163.11 1295.27,-144.35 1210.2,-132.87"/>
<polygon fill="midnightblue" stroke="midnightblue" points="1210.47,-129.38 1200.1,-131.51 1209.54,-136.31 1210.47,-129.38"/>
</g>
<!-- Node189&#45;&gt;Node75 -->
<g id="edge76" class="edge">
<title>Node189&#45;&gt;Node75</title>
<path fill="none" stroke="midnightblue" d="M1575.16,-173.98C1572.31,-165.49 1567.85,-152.2 1564.19,-141.32"/>
<polygon fill="midnightblue" stroke="midnightblue" points="1567.39,-139.87 1560.89,-131.51 1560.76,-142.1 1567.39,-139.87"/>
</g>
<!-- Node191&#45;&gt;Node15 -->
<g id="edge87" class="edge">
<title>Node191&#45;&gt;Node15</title>
<path fill="none" stroke="midnightblue" d="M2685.49,-302.41C2751.23,-276.03 2934.54,-193.13 2868.03,-112 2803.48,-33.26 2087.31,-15.63 1848.21,-11.93"/>
<polygon fill="midnightblue" stroke="midnightblue" points="1848.26,-8.43 1838.21,-11.78 1848.16,-15.43 1848.26,-8.43"/>
</g>
<!-- Node191&#45;&gt;Node18 -->
<g id="edge88" class="edge">
<title>Node191&#45;&gt;Node18</title>
<path fill="none" stroke="midnightblue" d="M2596.15,-307.25C2491.84,-300.81 2299.84,-286.35 2276.03,-266 2222.01,-219.83 2286.36,-158.97 2233.03,-112 2224.56,-104.54 2095.68,-87.57 2007.63,-76.73"/>
<polygon fill="midnightblue" stroke="midnightblue" points="2007.99,-73.25 1997.64,-75.51 2007.14,-80.2 2007.99,-73.25"/>
</g>
<!-- Node192 -->
<g id="node36" class="node">
<title>Node192</title>
<g id="a_node36"><a xlink:href="Printable_8h.html" target="_top" xlink:title=" ">
<polygon fill="none" stroke="red" points="3353.03,-241 3353.03,-260 3487.03,-260 3487.03,-241 3353.03,-241"/>
<text text-anchor="middle" x="3420.03" y="-248" font-family="Helvetica,sans-Serif" font-size="10.00">llvm/Support/Printable.h</text>
</a>
</g>
</g>
<!-- Node191&#45;&gt;Node192 -->
<g id="edge89" class="edge">
<title>Node191&#45;&gt;Node192</title>
<path fill="none" stroke="midnightblue" d="M2729.54,-305.77C2869.56,-294.77 3194.02,-269.26 3342.87,-257.56"/>
<polygon fill="midnightblue" stroke="midnightblue" points="3343.16,-261.05 3352.85,-256.78 3342.61,-254.07 3343.16,-261.05"/>
</g>
<!-- Node191&#45;&gt;Node107 -->
<g id="edge91" class="edge">
<title>Node191&#45;&gt;Node107</title>
<path fill="none" stroke="midnightblue" d="M2596.14,-307.74C2389.76,-297.67 1762.94,-267.1 1530.76,-255.78"/>
<polygon fill="midnightblue" stroke="midnightblue" points="1530.83,-252.28 1520.67,-255.29 1530.49,-259.27 1530.83,-252.28"/>
</g>
<!-- Node192&#45;&gt;Node10 -->
<g id="edge90" class="edge">
<title>Node192&#45;&gt;Node10</title>
<path fill="none" stroke="midnightblue" d="M3414.35,-240.79C3402.61,-223.58 3373.82,-185.41 3339.03,-168 3200.16,-98.51 2702.46,-73.72 2569.1,-68.25"/>
<polygon fill="midnightblue" stroke="midnightblue" points="2568.87,-64.74 2558.74,-67.83 2568.59,-71.73 2568.87,-64.74"/>
</g>
<!-- Node107&#45;&gt;Node6 -->
<g id="edge94" class="edge">
<title>Node107&#45;&gt;Node6</title>
<path fill="none" stroke="midnightblue" d="M1421.39,-240.94C1385.87,-225.49 1316.78,-189.12 1293.03,-132 1278.96,-98.15 1281.74,-54.27 1284.94,-29.73"/>
<polygon fill="midnightblue" stroke="midnightblue" points="1288.43,-30.05 1286.43,-19.65 1281.5,-29.03 1288.43,-30.05"/>
</g>
<!-- Node107&#45;&gt;Node8 -->
<g id="edge95" class="edge">
<title>Node107&#45;&gt;Node8</title>
<path fill="none" stroke="midnightblue" d="M1520.73,-245.74C1751.67,-234.54 2418.24,-201.96 2423.03,-199 2485.18,-160.62 2445.45,-99.64 2504.03,-56 2552.01,-20.26 2623.5,-12.17 2665.87,-10.75"/>
<polygon fill="midnightblue" stroke="midnightblue" points="2666.07,-14.24 2675.99,-10.52 2665.91,-7.25 2666.07,-14.24"/>
</g>
<!-- Node107&#45;&gt;Node54 -->
<g id="edge93" class="edge">
<title>Node107&#45;&gt;Node54</title>
<path fill="none" stroke="midnightblue" d="M1484.8,-240.94C1542.37,-229.13 1646.05,-207.87 1708.41,-195.09"/>
<polygon fill="midnightblue" stroke="midnightblue" points="1709.33,-198.47 1718.42,-193.03 1707.92,-191.61 1709.33,-198.47"/>
</g>
<!-- Node107&#45;&gt;Node57 -->
<g id="edge92" class="edge">
<title>Node107&#45;&gt;Node57</title>
<path fill="none" stroke="midnightblue" d="M1408.43,-240.93C1374.76,-232.11 1322.47,-217.12 1279.03,-199 1235.4,-180.81 1187.46,-153.5 1159.94,-137.05"/>
<polygon fill="midnightblue" stroke="midnightblue" points="1161.47,-133.88 1151.09,-131.71 1157.85,-139.87 1161.47,-133.88"/>
</g>
<!-- Node195&#45;&gt;Node6 -->
<g id="edge110" class="edge">
<title>Node195&#45;&gt;Node6</title>
<path fill="none" stroke="midnightblue" d="M1081.7,-302.42C1060.93,-296.05 1038.48,-285.02 1026.03,-266 999.92,-226.11 1005.98,-176.22 1062.03,-112 1112.29,-54.42 1201.79,-28.1 1251.76,-17.39"/>
<polygon fill="midnightblue" stroke="midnightblue" points="1252.69,-20.77 1261.79,-15.34 1251.29,-13.91 1252.69,-20.77"/>
</g>
<!-- Node195&#45;&gt;Node85 -->
<g id="edge106" class="edge">
<title>Node195&#45;&gt;Node85</title>
<path fill="none" stroke="midnightblue" d="M1095.5,-302.48C1054.15,-291.96 983.76,-274.06 938.35,-262.51"/>
<polygon fill="midnightblue" stroke="midnightblue" points="939.05,-259.08 928.49,-260.01 937.32,-265.87 939.05,-259.08"/>
</g>
<!-- Node195&#45;&gt;Node189 -->
<g id="edge107" class="edge">
<title>Node195&#45;&gt;Node189</title>
<path fill="none" stroke="midnightblue" d="M1152,-302.47C1192.71,-287.52 1280.4,-256.21 1356.03,-235 1413.17,-218.98 1479.65,-204.38 1524.86,-195.04"/>
<polygon fill="midnightblue" stroke="midnightblue" points="1525.64,-198.46 1534.74,-193.02 1524.24,-191.6 1525.64,-198.46"/>
</g>
<!-- Node24 -->
<g id="node39" class="node">
<title>Node24</title>
<g id="a_node39"><a xlink:href="Support_2ErrorHandling_8h.html" target="_top" xlink:title=" ">
<polygon fill="none" stroke="black" points="2421.03,-241 2421.03,-260 2579.03,-260 2579.03,-241 2421.03,-241"/>
<text text-anchor="middle" x="2500.03" y="-248" font-family="Helvetica,sans-Serif" font-size="10.00">llvm/Support/ErrorHandling.h</text>
</a>
</g>
</g>
<!-- Node195&#45;&gt;Node24 -->
<g id="edge108" class="edge">
<title>Node195&#45;&gt;Node24</title>
<path fill="none" stroke="midnightblue" d="M1195.2,-308.44C1242.95,-306.6 1308.97,-304.1 1367.03,-302 1831,-285.23 1948.98,-311.42 2411.03,-266 2421.88,-264.93 2433.42,-263.37 2444.47,-261.67"/>
<polygon fill="midnightblue" stroke="midnightblue" points="2445.12,-265.11 2454.44,-260.07 2444.01,-258.2 2445.12,-265.11"/>
</g>
<!-- Node24&#45;&gt;Node15 -->
<g id="edge109" class="edge">
<title>Node24&#45;&gt;Node15</title>
<path fill="none" stroke="midnightblue" d="M2508.29,-240.89C2535.81,-211.2 2619.77,-111.81 2567.03,-56 2542.58,-30.13 2043.52,-16.78 1848.33,-12.53"/>
<polygon fill="midnightblue" stroke="midnightblue" points="1848.22,-9.03 1838.15,-12.31 1848.07,-16.03 1848.22,-9.03"/>
</g>
<!-- Node196&#45;&gt;Node52 -->
<g id="edge112" class="edge">
<title>Node196&#45;&gt;Node52</title>
<path fill="none" stroke="midnightblue" d="M502.91,-363.95C464.81,-350.5 388.29,-323.67 323.03,-302 258.52,-280.58 73.55,-255 35.03,-199 27.22,-187.65 26.19,-178.57 35.03,-168 125.21,-60.13 521.73,-95.14 661.03,-76 666.52,-75.25 672.3,-74.39 677.97,-73.51"/>
<polygon fill="midnightblue" stroke="midnightblue" points="678.67,-76.94 688,-71.92 677.58,-70.03 678.67,-76.94"/>
</g>
<!-- Node200&#45;&gt;Node141 -->
<g id="edge120" class="edge">
<title>Node200&#45;&gt;Node141</title>
<path fill="none" stroke="midnightblue" d="M964.03,-492.4C964.03,-483.06 964.03,-470.71 964.03,-460.52"/>
<polygon fill="midnightblue" stroke="midnightblue" points="967.53,-460.19 964.03,-450.19 960.53,-460.19 967.53,-460.19"/>
</g>
<!-- Node200&#45;&gt;Node157 -->
<g id="edge119" class="edge">
<title>Node200&#45;&gt;Node157</title>
<path fill="none" stroke="midnightblue" d="M1049.63,-493.76C1054.5,-493.14 1059.32,-492.55 1064.03,-492 1231.09,-472.61 1426.09,-457.03 1541.53,-448.54"/>
<polygon fill="midnightblue" stroke="midnightblue" points="1542.05,-452.01 1551.76,-447.79 1541.53,-445.03 1542.05,-452.01"/>
</g>
<!-- Node201&#45;&gt;Node59 -->
<g id="edge129" class="edge">
<title>Node201&#45;&gt;Node59</title>
<path fill="none" stroke="midnightblue" d="M793.63,-425.48C717.47,-399.28 561.54,-343.6 547.03,-322 525.46,-289.91 531.19,-270.27 547.03,-235 567.57,-189.27 617.03,-154.6 647.51,-136.65"/>
<polygon fill="midnightblue" stroke="midnightblue" points="649.36,-139.63 656.31,-131.63 645.89,-133.55 649.36,-139.63"/>
</g>
<!-- Node201&#45;&gt;Node160 -->
<g id="edge122" class="edge">
<title>Node201&#45;&gt;Node160</title>
<path fill="none" stroke="midnightblue" d="M909.61,-426.05C912.79,-425.66 915.94,-425.31 919.03,-425 1498.16,-367.35 1647.52,-430.57 2228.03,-389 2239.86,-388.15 2252.3,-387.01 2264.55,-385.74"/>
<polygon fill="midnightblue" stroke="midnightblue" points="2265.21,-389.19 2274.78,-384.65 2264.46,-382.23 2265.21,-389.19"/>
</g>
<!-- Node106 -->
<g id="node43" class="node">
<title>Node106</title>
<g id="a_node43"><a xlink:href="TypeSize_8h.html" target="_top" xlink:title=" ">
<polygon fill="none" stroke="red" points="1376.03,-302.5 1376.03,-321.5 1510.03,-321.5 1510.03,-302.5 1376.03,-302.5"/>
<text text-anchor="middle" x="1443.03" y="-309.5" font-family="Helvetica,sans-Serif" font-size="10.00">llvm/Support/TypeSize.h</text>
</a>
</g>
</g>
<!-- Node201&#45;&gt;Node106 -->
<g id="edge123" class="edge">
<title>Node201&#45;&gt;Node106</title>
<path fill="none" stroke="midnightblue" d="M902.42,-425.48C1025.2,-399.93 1282.72,-346.35 1392.12,-323.59"/>
<polygon fill="midnightblue" stroke="midnightblue" points="1392.85,-327.02 1401.93,-321.55 1391.42,-320.16 1392.85,-327.02"/>
</g>
<!-- Node106&#45;&gt;Node18 -->
<g id="edge125" class="edge">
<title>Node106&#45;&gt;Node18</title>
<path fill="none" stroke="midnightblue" d="M1484.32,-302.49C1571.58,-283.94 1771.38,-238.39 1828.03,-199 1871.44,-168.81 1903.34,-113.19 1917.66,-84.76"/>
<polygon fill="midnightblue" stroke="midnightblue" points="1920.88,-86.13 1922.13,-75.61 1914.59,-83.06 1920.88,-86.13"/>
</g>
<!-- Node106&#45;&gt;Node6 -->
<g id="edge127" class="edge">
<title>Node106&#45;&gt;Node6</title>
<path fill="none" stroke="midnightblue" d="M1418.38,-302.38C1399.67,-294.92 1374.17,-282.7 1356.03,-266 1306.13,-220.07 1299.96,-197.67 1283.03,-132 1274.58,-99.25 1275.7,-89.66 1279.03,-56 1279.9,-47.17 1281.72,-37.51 1283.49,-29.4"/>
<polygon fill="midnightblue" stroke="midnightblue" points="1286.93,-30.08 1285.79,-19.55 1280.11,-28.49 1286.93,-30.08"/>
</g>
<!-- Node106&#45;&gt;Node8 -->
<g id="edge128" class="edge">
<title>Node106&#45;&gt;Node8</title>
<path fill="none" stroke="midnightblue" d="M1510.31,-310.31C1748.98,-307.61 2543.31,-296.36 2588.03,-266 2670.74,-209.84 2693.54,-78.42 2699.26,-29.65"/>
<polygon fill="midnightblue" stroke="midnightblue" points="2702.76,-29.91 2700.33,-19.6 2695.79,-29.17 2702.76,-29.91"/>
</g>
<!-- Node106&#45;&gt;Node56 -->
<g id="edge124" class="edge">
<title>Node106&#45;&gt;Node56</title>
<path fill="none" stroke="midnightblue" d="M1375.62,-307.3C1274.59,-301.16 1089.04,-287.37 1026.03,-266 981.02,-250.73 935.08,-218.39 910.42,-199.36"/>
<polygon fill="midnightblue" stroke="midnightblue" points="912.36,-196.43 902.33,-193.01 908.03,-201.94 912.36,-196.43"/>
</g>
<!-- Node106&#45;&gt;Node107 -->
<g id="edge126" class="edge">
<title>Node106&#45;&gt;Node107</title>
<path fill="none" stroke="midnightblue" d="M1443.03,-302.48C1443.03,-294.08 1443.03,-280.98 1443.03,-270.16"/>
<polygon fill="midnightblue" stroke="midnightblue" points="1446.53,-270.01 1443.03,-260.01 1439.53,-270.01 1446.53,-270.01"/>
</g>
<!-- Node202&#45;&gt;Node18 -->
<g id="edge153" class="edge">
<title>Node202&#45;&gt;Node18</title>
<path fill="none" stroke="midnightblue" d="M2495.74,-425.23C2492.39,-396.97 2480.74,-333.87 2442.03,-302 2375.68,-247.37 2327.4,-307.31 2252.03,-266 2169.59,-220.82 2188.16,-159.49 2107.03,-112 2077.4,-94.66 2041.26,-83.96 2009.09,-77.38"/>
<polygon fill="midnightblue" stroke="midnightblue" points="2009.73,-73.94 1999.25,-75.47 2008.4,-80.81 2009.73,-73.94"/>
</g>
<!-- Node202&#45;&gt;Node6 -->
<g id="edge155" class="edge">
<title>Node202&#45;&gt;Node6</title>
<path fill="none" stroke="midnightblue" d="M2417.35,-438.28C2321.23,-435.17 2155.45,-424.57 2018.03,-389 1983.91,-380.17 1979.03,-367.29 1945.03,-358 1827.39,-325.88 1789.48,-358.18 1673.03,-322 1620.64,-305.72 1608.15,-297.21 1563.03,-266 1546.21,-254.37 1546.83,-245.06 1529.03,-235 1480.18,-207.4 1455.3,-229.23 1408.03,-199 1374.6,-177.62 1371.25,-164.87 1349.03,-132 1325.84,-97.71 1305.71,-53.39 1295.39,-29.03"/>
<polygon fill="midnightblue" stroke="midnightblue" points="1298.55,-27.51 1291.47,-19.63 1292.09,-30.2 1298.55,-27.51"/>
</g>
<!-- Node202&#45;&gt;Node8 -->
<g id="edge156" class="edge">
<title>Node202&#45;&gt;Node8</title>
<path fill="none" stroke="midnightblue" d="M2576.78,-438.98C2812.29,-436.99 3493.96,-427.92 3586.03,-389 3631.5,-369.78 3667.03,-362.37 3667.03,-313 3667.03,-313 3667.03,-313 3667.03,-121 3667.03,-90.2 3667.87,-74.2 3643.03,-56 3605.8,-28.71 2902.95,-14.58 2736.27,-11.6"/>
<polygon fill="midnightblue" stroke="midnightblue" points="2736.13,-8.1 2726.07,-11.42 2736.01,-15.1 2736.13,-8.1"/>
</g>
<!-- Node202&#45;&gt;Node54 -->
<g id="edge133" class="edge">
<title>Node202&#45;&gt;Node54</title>
<path fill="none" stroke="midnightblue" d="M2417.12,-437.39C2308.18,-433.31 2119.76,-421.64 2060.03,-389 1982.42,-346.6 2007.82,-283.74 1934.03,-235 1902.87,-214.42 1863.19,-202.06 1829.59,-194.73"/>
<polygon fill="midnightblue" stroke="midnightblue" points="1829.88,-191.22 1819.38,-192.62 1828.46,-198.07 1829.88,-191.22"/>
</g>
<!-- Node202&#45;&gt;Node50 -->
<g id="edge134" class="edge">
<title>Node202&#45;&gt;Node50</title>
<path fill="none" stroke="midnightblue" d="M2576.67,-437.69C2782.85,-432.61 3319.88,-416.76 3346.03,-389 3383.96,-348.75 3401.23,-279.49 3210.03,-168 3154.07,-135.37 2975.91,-126.34 2869.81,-123.88"/>
<polygon fill="midnightblue" stroke="midnightblue" points="2869.84,-120.38 2859.77,-123.66 2869.69,-127.37 2869.84,-120.38"/>
</g>
<!-- Node202&#45;&gt;Node57 -->
<g id="edge132" class="edge">
<title>Node202&#45;&gt;Node57</title>
<path fill="none" stroke="midnightblue" d="M2417.39,-437.63C2192.32,-431.34 1555.62,-406.37 1367.03,-322 1269.34,-278.3 1182.17,-179.07 1150.1,-139.62"/>
<polygon fill="midnightblue" stroke="midnightblue" points="1152.77,-137.36 1143.78,-131.75 1147.31,-141.74 1152.77,-137.36"/>
</g>
<!-- Node202&#45;&gt;Node56 -->
<g id="edge131" class="edge">
<title>Node202&#45;&gt;Node56</title>
<path fill="none" stroke="midnightblue" d="M2417.44,-435.46C2271.93,-427.86 1953.26,-410.3 1685.03,-389 1495.87,-373.98 948.56,-421.65 840.03,-266 824.17,-243.25 850.44,-215.92 871.07,-199.39"/>
<polygon fill="midnightblue" stroke="midnightblue" points="873.33,-202.07 879.15,-193.22 869.08,-196.51 873.33,-202.07"/>
</g>
<!-- Node202&#45;&gt;Node160 -->
<g id="edge135" class="edge">
<title>Node202&#45;&gt;Node160</title>
<path fill="none" stroke="midnightblue" d="M2465.78,-425.4C2444.55,-415.81 2416.28,-403.05 2393.35,-392.7"/>
<polygon fill="midnightblue" stroke="midnightblue" points="2394.77,-389.5 2384.21,-388.58 2391.89,-395.88 2394.77,-389.5"/>
</g>
<!-- Node202&#45;&gt;Node191 -->
<g id="edge137" class="edge">
<title>Node202&#45;&gt;Node191</title>
<path fill="none" stroke="midnightblue" d="M2515.43,-425.48C2546.91,-401.49 2610.84,-352.77 2643.25,-328.08"/>
<polygon fill="midnightblue" stroke="midnightblue" points="2645.66,-330.63 2651.5,-321.79 2641.42,-325.07 2645.66,-330.63"/>
</g>
<!-- Node202&#45;&gt;Node192 -->
<g id="edge154" class="edge">
<title>Node202&#45;&gt;Node192</title>
<path fill="none" stroke="midnightblue" d="M2576.69,-438.71C2819.02,-435.93 3532.95,-424.72 3567.03,-389 3613.22,-340.58 3508.05,-287.66 3452.12,-264.07"/>
<polygon fill="midnightblue" stroke="midnightblue" points="3453.2,-260.72 3442.62,-260.14 3450.52,-267.19 3453.2,-260.72"/>
</g>
<!-- Node202&#45;&gt;Node24 -->
<g id="edge146" class="edge">
<title>Node202&#45;&gt;Node24</title>
<path fill="none" stroke="midnightblue" d="M2576.65,-434.96C2650.15,-429.21 2761.7,-416.49 2855.03,-389 2927.12,-367.76 3050.43,-357.75 3000.03,-302 2973.06,-272.17 2725.55,-259.11 2589.19,-254.14"/>
<polygon fill="midnightblue" stroke="midnightblue" points="2589.29,-250.64 2579.17,-253.78 2589.04,-257.64 2589.29,-250.64"/>
</g>
<!-- Node103 -->
<g id="node45" class="node">
<title>Node103</title>
<g id="a_node45"><a xlink:href="CallingConv_8h.html" target="_top" xlink:title=" ">
<polygon fill="none" stroke="black" points="3436.53,-364 3436.53,-383 3557.53,-383 3557.53,-364 3436.53,-364"/>
<text text-anchor="middle" x="3497.03" y="-371" font-family="Helvetica,sans-Serif" font-size="10.00">llvm/IR/CallingConv.h</text>
</a>
</g>
</g>
<!-- Node202&#45;&gt;Node103 -->
<g id="edge136" class="edge">
<title>Node202&#45;&gt;Node103</title>
<path fill="none" stroke="midnightblue" d="M2576.54,-438.81C2737,-436.6 3110.77,-427.4 3422.03,-389 3430.54,-387.95 3439.54,-386.5 3448.24,-384.93"/>
<polygon fill="midnightblue" stroke="midnightblue" points="3449.09,-388.33 3458.26,-383.04 3447.79,-381.45 3449.09,-388.33"/>
</g>
<!-- Node203 -->
<g id="node46" class="node">
<title>Node203</title>
<g id="a_node46"><a xlink:href="MCRegisterInfo_8h.html" target="_top" xlink:title=" ">
<polygon fill="none" stroke="red" points="3048.03,-364 3048.03,-383 3192.03,-383 3192.03,-364 3048.03,-364"/>
<text text-anchor="middle" x="3120.03" y="-371" font-family="Helvetica,sans-Serif" font-size="10.00">llvm/MC/MCRegisterInfo.h</text>
</a>
</g>
</g>
<!-- Node202&#45;&gt;Node203 -->
<g id="edge138" class="edge">
<title>Node202&#45;&gt;Node203</title>
<path fill="none" stroke="midnightblue" d="M2576.84,-433.83C2681.91,-425.95 2872.25,-410.22 3034.03,-389 3043.5,-387.76 3053.53,-386.25 3063.26,-384.68"/>
<polygon fill="midnightblue" stroke="midnightblue" points="3063.96,-388.11 3073.26,-383.03 3062.82,-381.2 3063.96,-388.11"/>
</g>
<!-- Node173 -->
<g id="node47" class="node">
<title>Node173</title>
<g id="a_node47"><a xlink:href="MachineValueType_8h.html" target="_top" xlink:title=" ">
<polygon fill="none" stroke="red" points="2069.03,-358.5 2069.03,-388.5 2219.03,-388.5 2219.03,-358.5 2069.03,-358.5"/>
<text text-anchor="start" x="2077.03" y="-376.5" font-family="Helvetica,sans-Serif" font-size="10.00">llvm/Support/MachineValue</text>
<text text-anchor="middle" x="2144.03" y="-365.5" font-family="Helvetica,sans-Serif" font-size="10.00">Type.h</text>
</a>
</g>
</g>
<!-- Node202&#45;&gt;Node173 -->
<g id="edge147" class="edge">
<title>Node202&#45;&gt;Node173</title>
<path fill="none" stroke="midnightblue" d="M2420.87,-425.48C2364.44,-415.09 2287.53,-400.92 2229.09,-390.16"/>
<polygon fill="midnightblue" stroke="midnightblue" points="2229.61,-386.7 2219.14,-388.33 2228.35,-393.58 2229.61,-386.7"/>
</g>
<!-- Node203&#45;&gt;Node4 -->
<g id="edge139" class="edge">
<title>Node203&#45;&gt;Node4</title>
<path fill="none" stroke="midnightblue" d="M3109.61,-363.98C3089.75,-348.3 3044.48,-315.29 3000.03,-302 2691.35,-209.74 2586.13,-353.38 2276.03,-266 2177.52,-238.24 2075.06,-168.2 2033.38,-137.64"/>
<polygon fill="midnightblue" stroke="midnightblue" points="2035.33,-134.73 2025.22,-131.58 2031.16,-140.35 2035.33,-134.73"/>
</g>
<!-- Node203&#45;&gt;Node6 -->
<g id="edge143" class="edge">
<title>Node203&#45;&gt;Node6</title>
<path fill="none" stroke="midnightblue" d="M3047.86,-370.68C2869.85,-365.79 2413.41,-350.78 2264.03,-322 1930.28,-257.7 1874.72,-146.23 1547.03,-56 1468.98,-34.51 1374.74,-21.2 1324.22,-15.04"/>
<polygon fill="midnightblue" stroke="midnightblue" points="1324.47,-11.55 1314.13,-13.84 1323.64,-18.5 1324.47,-11.55"/>
</g>
<!-- Node203&#45;&gt;Node8 -->
<g id="edge144" class="edge">
<title>Node203&#45;&gt;Node8</title>
<path fill="none" stroke="midnightblue" d="M3192.16,-365.39C3274.74,-354.54 3411.55,-328.11 3512.03,-266 3554.94,-239.47 3591.03,-234.95 3591.03,-184.5 3591.03,-184.5 3591.03,-184.5 3591.03,-121 3591.03,-33.31 2901.67,-14.77 2736.35,-11.58"/>
<polygon fill="midnightblue" stroke="midnightblue" points="2736.3,-8.08 2726.23,-11.39 2736.16,-15.08 2736.3,-8.08"/>
</g>
<!-- Node203&#45;&gt;Node10 -->
<g id="edge145" class="edge">
<title>Node203&#45;&gt;Node10</title>
<path fill="none" stroke="midnightblue" d="M3147.54,-363.9C3191.47,-350.27 3280.22,-323.06 3356.03,-302 3417.93,-284.8 3456.66,-316.77 3496.03,-266 3504.47,-255.11 3503.07,-246.85 3496.03,-235 3398.47,-70.76 2726.08,-65.55 2568.86,-66.61"/>
<polygon fill="midnightblue" stroke="midnightblue" points="2568.82,-63.11 2558.85,-66.69 2568.88,-70.11 2568.82,-63.11"/>
</g>
<!-- Node203&#45;&gt;Node50 -->
<g id="edge141" class="edge">
<title>Node203&#45;&gt;Node50</title>
<path fill="none" stroke="midnightblue" d="M3123.35,-363.81C3134.91,-331.99 3169.63,-220.86 3113.03,-168 3104.15,-159.71 2962.88,-142.5 2869.54,-131.93"/>
<polygon fill="midnightblue" stroke="midnightblue" points="2869.87,-128.44 2859.54,-130.8 2869.08,-135.4 2869.87,-128.44"/>
</g>
<!-- Node203&#45;&gt;Node49 -->
<g id="edge140" class="edge">
<title>Node203&#45;&gt;Node49</title>
<path fill="none" stroke="midnightblue" d="M3133.07,-363.98C3147.8,-354.34 3172,-338.52 3189.54,-327.05"/>
<polygon fill="midnightblue" stroke="midnightblue" points="3191.56,-329.91 3198.02,-321.51 3187.73,-324.05 3191.56,-329.91"/>
</g>
<!-- Node203&#45;&gt;Node191 -->
<g id="edge142" class="edge">
<title>Node203&#45;&gt;Node191</title>
<path fill="none" stroke="midnightblue" d="M3054.55,-363.98C2970.9,-353.08 2826.43,-334.27 2738.31,-322.8"/>
<polygon fill="midnightblue" stroke="midnightblue" points="2738.75,-319.33 2728.38,-321.51 2737.85,-326.27 2738.75,-319.33"/>
</g>
<!-- Node173&#45;&gt;Node18 -->
<g id="edge150" class="edge">
<title>Node173&#45;&gt;Node18</title>
<path fill="none" stroke="midnightblue" d="M2145.39,-358.38C2148.74,-315.17 2152.67,-183.33 2085.03,-112 2071.35,-97.57 2025.87,-85.58 1987.03,-77.61"/>
<polygon fill="midnightblue" stroke="midnightblue" points="1987.3,-74.09 1976.81,-75.57 1985.93,-80.96 1987.3,-74.09"/>
</g>
<!-- Node173&#45;&gt;Node6 -->
<g id="edge152" class="edge">
<title>Node173&#45;&gt;Node6</title>
<path fill="none" stroke="midnightblue" d="M2068.59,-364.94C1956.82,-353.51 1756.95,-332.1 1725.03,-322 1647.11,-297.35 1637.34,-269.02 1563.03,-235 1522.35,-216.38 1508.75,-219.58 1469.03,-199 1421.53,-174.39 1406.34,-170.34 1369.03,-132 1341.16,-103.37 1343.52,-89.02 1321.03,-56 1314.62,-46.59 1307.14,-36.34 1300.93,-28"/>
<polygon fill="midnightblue" stroke="midnightblue" points="1303.59,-25.73 1294.79,-19.83 1298,-29.93 1303.59,-25.73"/>
</g>
<!-- Node173&#45;&gt;Node50 -->
<g id="edge148" class="edge">
<title>Node173&#45;&gt;Node50</title>
<path fill="none" stroke="midnightblue" d="M2219.24,-360.89C2279.62,-351.3 2366.48,-336.89 2442.03,-322 2455.94,-319.26 2679.29,-273.95 2691.03,-266 2737.69,-234.4 2768.1,-172.18 2780.99,-141.29"/>
<polygon fill="midnightblue" stroke="midnightblue" points="2784.33,-142.35 2784.81,-131.77 2777.84,-139.74 2784.33,-142.35"/>
</g>
<!-- Node173&#45;&gt;Node24 -->
<g id="edge149" class="edge">
<title>Node173&#45;&gt;Node24</title>
<path fill="none" stroke="midnightblue" d="M2163.41,-358.45C2186.34,-342.48 2226.2,-316.72 2264.03,-302 2295.78,-289.65 2382.4,-272.62 2441.38,-261.83"/>
<polygon fill="midnightblue" stroke="midnightblue" points="2442.11,-265.26 2451.32,-260.02 2440.86,-258.37 2442.11,-265.26"/>
</g>
<!-- Node173&#45;&gt;Node106 -->
<g id="edge151" class="edge">
<title>Node173&#45;&gt;Node106</title>
<path fill="none" stroke="midnightblue" d="M2069.01,-366.13C1935.1,-354.77 1656.28,-331.1 1520.57,-319.58"/>
<polygon fill="midnightblue" stroke="midnightblue" points="1520.52,-316.07 1510.26,-318.71 1519.93,-323.04 1520.52,-316.07"/>
</g>
<!-- Node204&#45;&gt;Node54 -->
<g id="edge160" class="edge">
<title>Node204&#45;&gt;Node54</title>
<path fill="none" stroke="midnightblue" d="M495.18,-242.97C532.69,-240.2 577.57,-237.13 618.03,-235 1078.12,-210.82 1194.98,-238.27 1654.03,-199 1667.45,-197.85 1681.77,-196.19 1695.41,-194.4"/>
<polygon fill="midnightblue" stroke="midnightblue" points="1696.24,-197.82 1705.68,-193.01 1695.3,-190.88 1696.24,-197.82"/>
</g>
<!-- Node204&#45;&gt;Node52 -->
<g id="edge162" class="edge">
<title>Node204&#45;&gt;Node52</title>
<path fill="none" stroke="midnightblue" d="M379.88,-235.34C365.2,-227.03 349.28,-215 341.03,-199 334.71,-186.76 332.65,-178.93 341.03,-168 361.9,-140.79 585.94,-93.25 677.94,-74.71"/>
<polygon fill="midnightblue" stroke="midnightblue" points="678.85,-78.1 687.97,-72.7 677.48,-71.24 678.85,-78.1"/>
</g>
<!-- Node204&#45;&gt;Node59 -->
<g id="edge163" class="edge">
<title>Node204&#45;&gt;Node59</title>
<path fill="none" stroke="midnightblue" d="M446.37,-235.29C468,-225.9 496.22,-212.81 520.03,-199 540.72,-187 543.07,-179.52 564.03,-168 588.46,-154.57 617.73,-142.7 639.79,-134.52"/>
<polygon fill="midnightblue" stroke="midnightblue" points="641.17,-137.75 649.37,-131.04 638.78,-131.17 641.17,-137.75"/>
</g>
<!-- Node204&#45;&gt;Node76 -->
<g id="edge161" class="edge">
<title>Node204&#45;&gt;Node76</title>
<path fill="none" stroke="midnightblue" d="M347.3,-235.48C291.55,-223.4 212.25,-206.21 161.47,-195.21"/>
<polygon fill="midnightblue" stroke="midnightblue" points="161.91,-191.73 151.39,-193.03 160.42,-198.57 161.91,-191.73"/>
</g>
<!-- Node204&#45;&gt;Node57 -->
<g id="edge159" class="edge">
<title>Node204&#45;&gt;Node57</title>
<path fill="none" stroke="midnightblue" d="M477.64,-235.47C558.95,-218.33 701.84,-189.02 825.03,-168 905.39,-154.29 997.86,-141.3 1061.15,-132.83"/>
<polygon fill="midnightblue" stroke="midnightblue" points="1061.99,-136.25 1071.44,-131.46 1061.06,-129.31 1061.99,-136.25"/>
</g>
<!-- Node204&#45;&gt;Node56 -->
<g id="edge158" class="edge">
<title>Node204&#45;&gt;Node56</title>
<path fill="none" stroke="midnightblue" d="M495.09,-238.25C588.14,-225.65 737.23,-205.46 823.76,-193.74"/>
<polygon fill="midnightblue" stroke="midnightblue" points="824.3,-197.2 833.74,-192.39 823.36,-190.27 824.3,-197.2"/>
</g>
<!-- Node221&#45;&gt;Node6 -->
<g id="edge169" class="edge">
<title>Node221&#45;&gt;Node6</title>
<path fill="none" stroke="midnightblue" d="M1034.92,-242C1007.96,-239.59 977.7,-237.03 950.03,-235 882.43,-230.03 387.52,-248.33 341.03,-199 331.58,-188.97 335.1,-180.44 341.03,-168 375,-96.69 405.35,-84.47 479.03,-56 551.6,-27.96 1102.83,-14.78 1251.3,-11.71"/>
<polygon fill="midnightblue" stroke="midnightblue" points="1251.75,-15.21 1261.67,-11.5 1251.6,-8.21 1251.75,-15.21"/>
</g>
<!-- Node221&#45;&gt;Node8 -->
<g id="edge170" class="edge">
<title>Node221&#45;&gt;Node8</title>
<path fill="none" stroke="midnightblue" d="M1195.26,-244.48C1368.48,-233.53 1766.81,-207.82 1828.03,-199 2122.09,-156.62 2190.37,-117.55 2481.03,-56 2546.21,-42.2 2622.42,-26.77 2665.87,-18.04"/>
<polygon fill="midnightblue" stroke="midnightblue" points="2666.82,-21.42 2675.93,-16.02 2665.44,-14.55 2666.82,-21.42"/>
</g>
<!-- Node221&#45;&gt;Node54 -->
<g id="edge167" class="edge">
<title>Node221&#45;&gt;Node54</title>
<path fill="none" stroke="midnightblue" d="M1195.39,-245.15C1306.36,-238.52 1512.6,-223.95 1687.03,-199 1694.85,-197.88 1703.11,-196.47 1711.14,-194.97"/>
<polygon fill="midnightblue" stroke="midnightblue" points="1711.99,-198.37 1721.14,-193.03 1710.66,-191.5 1711.99,-198.37"/>
</g>
<!-- Node221&#45;&gt;Node50 -->
<g id="edge168" class="edge">
<title>Node221&#45;&gt;Node50</title>
<path fill="none" stroke="midnightblue" d="M1195.24,-244.04C1327.23,-235 1598.48,-216.22 1828.03,-199 2153.41,-174.6 2540.62,-143.23 2706.28,-129.7"/>
<polygon fill="midnightblue" stroke="midnightblue" points="2706.71,-133.18 2716.39,-128.88 2706.14,-126.2 2706.71,-133.18"/>
</g>
<!-- Node221&#45;&gt;Node59 -->
<g id="edge171" class="edge">
<title>Node221&#45;&gt;Node59</title>
<path fill="none" stroke="midnightblue" d="M1034.73,-241.88C975.65,-234.75 893.96,-221.69 825.03,-199 776.69,-183.09 724.48,-154.11 695.56,-136.9"/>
<polygon fill="midnightblue" stroke="midnightblue" points="697.06,-133.72 686.69,-131.55 693.45,-139.71 697.06,-133.72"/>
</g>
<!-- Node221&#45;&gt;Node57 -->
<g id="edge166" class="edge">
<title>Node221&#45;&gt;Node57</title>
<path fill="none" stroke="midnightblue" d="M1116.09,-240.9C1117.97,-226 1122.15,-194.44 1127.03,-168 1128.65,-159.23 1130.75,-149.58 1132.61,-141.47"/>
<polygon fill="midnightblue" stroke="midnightblue" points="1136.05,-142.12 1134.93,-131.59 1129.23,-140.53 1136.05,-142.12"/>
</g>
<!-- Node221&#45;&gt;Node56 -->
<g id="edge165" class="edge">
<title>Node221&#45;&gt;Node56</title>
<path fill="none" stroke="midnightblue" d="M1085.42,-240.87C1045.74,-229.3 975.22,-208.75 931.19,-195.91"/>
<polygon fill="midnightblue" stroke="midnightblue" points="931.99,-192.5 921.41,-193.06 930.03,-199.22 931.99,-192.5"/>
</g>
</g>
</svg>
