<?xml version="1.0" encoding="UTF-8" standalone="no"?>
<!DOCTYPE svg PUBLIC "-//W3C//DTD SVG 1.1//EN"
 "http://www.w3.org/Graphics/SVG/1.1/DTD/svg11.dtd">
<!-- Generated by graphviz version 2.43.0 (0)
 -->
<!-- Title: lib/Target/PowerPC/PPCTargetMachine.h Pages: 1 -->
<svg width="3688pt" height="173pt"
 viewBox="0.00 0.00 3688.00 173.00" xmlns="http://www.w3.org/2000/svg" xmlns:xlink="http://www.w3.org/1999/xlink">
<g id="graph0" class="graph" transform="scale(1 1) rotate(0) translate(4 169)">
<title>lib/Target/PowerPC/PPCTargetMachine.h</title>
<!-- Node1 -->
<g id="node1" class="node">
<title>Node1</title>
<g id="a_node1"><a xlink:title=" ">
<polygon fill="#bfbfbf" stroke="black" points="1867.5,-134.5 1867.5,-164.5 1986.5,-164.5 1986.5,-134.5 1867.5,-134.5"/>
<text text-anchor="start" x="1875.5" y="-152.5" font-family="Helvetica,sans-Serif" font-size="10.00">lib/Target/PowerPC</text>
<text text-anchor="middle" x="1927" y="-141.5" font-family="Helvetica,sans-Serif" font-size="10.00">/PPCTargetMachine.h</text>
</a>
</g>
</g>
<!-- Node2 -->
<g id="node2" class="node">
<title>Node2</title>
<g id="a_node2"><a xlink:href="PPCCallLowering_8cpp.html" target="_top" xlink:title=" ">
<polygon fill="none" stroke="black" points="0,-67.5 0,-97.5 150,-97.5 150,-67.5 0,-67.5"/>
<text text-anchor="start" x="8" y="-85.5" font-family="Helvetica,sans-Serif" font-size="10.00">lib/Target/PowerPC</text>
<text text-anchor="middle" x="75" y="-74.5" font-family="Helvetica,sans-Serif" font-size="10.00">/GISel/PPCCallLowering.cpp</text>
</a>
</g>
</g>
<!-- Node1&#45;&gt;Node2 -->
<g id="edge1" class="edge">
<title>Node1&#45;&gt;Node2</title>
<path fill="none" stroke="midnightblue" d="M1856.86,-147.83C1571.51,-144.91 497.03,-131.83 159,-98 156.05,-97.71 153.06,-97.37 150.03,-97"/>
<polygon fill="midnightblue" stroke="midnightblue" points="1857.04,-151.33 1867.07,-147.94 1857.11,-144.33 1857.04,-151.33"/>
</g>
<!-- Node3 -->
<g id="node3" class="node">
<title>Node3</title>
<g id="a_node3"><a xlink:href="PPCInstructionSelector_8cpp.html" target="_top" xlink:title=" ">
<polygon fill="none" stroke="black" points="168,-67.5 168,-97.5 346,-97.5 346,-67.5 168,-67.5"/>
<text text-anchor="start" x="176" y="-85.5" font-family="Helvetica,sans-Serif" font-size="10.00">lib/Target/PowerPC</text>
<text text-anchor="middle" x="257" y="-74.5" font-family="Helvetica,sans-Serif" font-size="10.00">/GISel/PPCInstructionSelector.cpp</text>
</a>
</g>
</g>
<!-- Node1&#45;&gt;Node3 -->
<g id="edge2" class="edge">
<title>Node1&#45;&gt;Node3</title>
<path fill="none" stroke="midnightblue" d="M1857.09,-149.11C1636.2,-150.42 933.6,-149.93 355,-98 352.09,-97.74 349.13,-97.45 346.15,-97.13"/>
<polygon fill="midnightblue" stroke="midnightblue" points="1857.27,-152.61 1867.24,-149.05 1857.22,-145.61 1857.27,-152.61"/>
</g>
<!-- Node4 -->
<g id="node4" class="node">
<title>Node4</title>
<g id="a_node4"><a xlink:href="PPCAsmPrinter_8cpp.html" target="_top" xlink:title=" ">
<polygon fill="none" stroke="black" points="364,-67.5 364,-97.5 476,-97.5 476,-67.5 364,-67.5"/>
<text text-anchor="start" x="372" y="-85.5" font-family="Helvetica,sans-Serif" font-size="10.00">lib/Target/PowerPC</text>
<text text-anchor="middle" x="420" y="-74.5" font-family="Helvetica,sans-Serif" font-size="10.00">/PPCAsmPrinter.cpp</text>
</a>
</g>
</g>
<!-- Node1&#45;&gt;Node4 -->
<g id="edge3" class="edge">
<title>Node1&#45;&gt;Node4</title>
<path fill="none" stroke="midnightblue" d="M1857.25,-147.76C1607.05,-144.85 755.2,-132.57 485,-98 482.13,-97.63 479.21,-97.2 476.26,-96.72"/>
<polygon fill="midnightblue" stroke="midnightblue" points="1857.27,-151.26 1867.31,-147.88 1857.35,-144.26 1857.27,-151.26"/>
</g>
<!-- Node5 -->
<g id="node5" class="node">
<title>Node5</title>
<g id="a_node5"><a xlink:href="PPCBoolRetToInt_8cpp.html" target="_top" xlink:title=" ">
<polygon fill="none" stroke="black" points="494,-67.5 494,-97.5 614,-97.5 614,-67.5 494,-67.5"/>
<text text-anchor="start" x="502" y="-85.5" font-family="Helvetica,sans-Serif" font-size="10.00">lib/Target/PowerPC</text>
<text text-anchor="middle" x="554" y="-74.5" font-family="Helvetica,sans-Serif" font-size="10.00">/PPCBoolRetToInt.cpp</text>
</a>
</g>
</g>
<!-- Node1&#45;&gt;Node5 -->
<g id="edge4" class="edge">
<title>Node1&#45;&gt;Node5</title>
<path fill="none" stroke="midnightblue" d="M1857.35,-147.35C1623.15,-143.24 865.19,-127.92 623,-98 620.08,-97.64 617.11,-97.22 614.11,-96.75"/>
<polygon fill="midnightblue" stroke="midnightblue" points="1857.39,-150.85 1867.45,-147.53 1857.51,-143.85 1857.39,-150.85"/>
</g>
<!-- Node6 -->
<g id="node6" class="node">
<title>Node6</title>
<g id="a_node6"><a xlink:href="PPCEarlyReturn_8cpp.html" target="_top" xlink:title=" ">
<polygon fill="none" stroke="black" points="632,-67.5 632,-97.5 748,-97.5 748,-67.5 632,-67.5"/>
<text text-anchor="start" x="640" y="-85.5" font-family="Helvetica,sans-Serif" font-size="10.00">lib/Target/PowerPC</text>
<text text-anchor="middle" x="690" y="-74.5" font-family="Helvetica,sans-Serif" font-size="10.00">/PPCEarlyReturn.cpp</text>
</a>
</g>
</g>
<!-- Node1&#45;&gt;Node6 -->
<g id="edge5" class="edge">
<title>Node1&#45;&gt;Node6</title>
<path fill="none" stroke="midnightblue" d="M1857.22,-147.05C1639.07,-142.25 971.75,-125.67 757,-98 754.17,-97.64 751.28,-97.21 748.36,-96.74"/>
<polygon fill="midnightblue" stroke="midnightblue" points="1857.19,-150.55 1867.26,-147.27 1857.34,-143.55 1857.19,-150.55"/>
</g>
<!-- Node7 -->
<g id="node7" class="node">
<title>Node7</title>
<g id="a_node7"><a xlink:href="PPCExpandAtomicPseudoInsts_8cpp.html" target="_top" xlink:title=" ">
<polygon fill="none" stroke="black" points="766,-67.5 766,-97.5 954,-97.5 954,-67.5 766,-67.5"/>
<text text-anchor="start" x="774" y="-85.5" font-family="Helvetica,sans-Serif" font-size="10.00">lib/Target/PowerPC</text>
<text text-anchor="middle" x="860" y="-74.5" font-family="Helvetica,sans-Serif" font-size="10.00">/PPCExpandAtomicPseudoInsts.cpp</text>
</a>
</g>
</g>
<!-- Node1&#45;&gt;Node7 -->
<g id="edge6" class="edge">
<title>Node1&#45;&gt;Node7</title>
<path fill="none" stroke="midnightblue" d="M1857.24,-146.94C1698.26,-142.92 1297.02,-130.2 963,-98 960.12,-97.72 957.21,-97.42 954.26,-97.11"/>
<polygon fill="midnightblue" stroke="midnightblue" points="1857.27,-150.44 1867.35,-147.19 1857.44,-143.44 1857.27,-150.44"/>
</g>
<!-- Node8 -->
<g id="node8" class="node">
<title>Node8</title>
<g id="a_node8"><a xlink:href="PPCFastISel_8cpp.html" target="_top" xlink:title=" ">
<polygon fill="none" stroke="black" points="972.5,-67.5 972.5,-97.5 1079.5,-97.5 1079.5,-67.5 972.5,-67.5"/>
<text text-anchor="start" x="980.5" y="-85.5" font-family="Helvetica,sans-Serif" font-size="10.00">lib/Target/PowerPC</text>
<text text-anchor="middle" x="1026" y="-74.5" font-family="Helvetica,sans-Serif" font-size="10.00">/PPCFastISel.cpp</text>
</a>
</g>
</g>
<!-- Node1&#45;&gt;Node8 -->
<g id="edge7" class="edge">
<title>Node1&#45;&gt;Node8</title>
<path fill="none" stroke="midnightblue" d="M1857.44,-148.2C1713.34,-146.73 1371.99,-138.8 1089,-98 1085.89,-97.55 1082.71,-97.03 1079.5,-96.45"/>
<polygon fill="midnightblue" stroke="midnightblue" points="1857.44,-151.7 1867.47,-148.3 1857.51,-144.7 1857.44,-151.7"/>
</g>
<!-- Node9 -->
<g id="node9" class="node">
<title>Node9</title>
<g id="a_node9"><a xlink:href="PPCFrameLowering_8cpp.html" target="_top" xlink:title=" ">
<polygon fill="none" stroke="black" points="1098,-67.5 1098,-97.5 1232,-97.5 1232,-67.5 1098,-67.5"/>
<text text-anchor="start" x="1106" y="-85.5" font-family="Helvetica,sans-Serif" font-size="10.00">lib/Target/PowerPC</text>
<text text-anchor="middle" x="1165" y="-74.5" font-family="Helvetica,sans-Serif" font-size="10.00">/PPCFrameLowering.cpp</text>
</a>
</g>
</g>
<!-- Node1&#45;&gt;Node9 -->
<g id="edge8" class="edge">
<title>Node1&#45;&gt;Node9</title>
<path fill="none" stroke="midnightblue" d="M1856.97,-146.01C1732.55,-140.98 1464.98,-127.51 1241,-98 1238.07,-97.61 1235.08,-97.19 1232.07,-96.73"/>
<polygon fill="midnightblue" stroke="midnightblue" points="1856.99,-149.51 1867.12,-146.41 1857.27,-142.52 1856.99,-149.51"/>
</g>
<!-- Node10 -->
<g id="node10" class="node">
<title>Node10</title>
<g id="a_node10"><a xlink:href="PPCGenScalarMASSEntries_8cpp.html" target="_top" xlink:title=" ">
<polygon fill="none" stroke="black" points="1250,-67.5 1250,-97.5 1420,-97.5 1420,-67.5 1250,-67.5"/>
<text text-anchor="start" x="1258" y="-85.5" font-family="Helvetica,sans-Serif" font-size="10.00">lib/Target/PowerPC</text>
<text text-anchor="middle" x="1335" y="-74.5" font-family="Helvetica,sans-Serif" font-size="10.00">/PPCGenScalarMASSEntries.cpp</text>
</a>
</g>
</g>
<!-- Node1&#45;&gt;Node10 -->
<g id="edge9" class="edge">
<title>Node1&#45;&gt;Node10</title>
<path fill="none" stroke="midnightblue" d="M1857.27,-142.58C1760.84,-134.13 1581.41,-117.47 1429,-98 1426.05,-97.62 1423.05,-97.23 1420.03,-96.82"/>
<polygon fill="midnightblue" stroke="midnightblue" points="1857.21,-146.09 1867.48,-143.47 1857.82,-139.12 1857.21,-146.09"/>
</g>
<!-- Node11 -->
<g id="node11" class="node">
<title>Node11</title>
<g id="a_node11"><a xlink:href="PPCInstrInfo_8cpp.html" target="_top" xlink:title=" ">
<polygon fill="none" stroke="black" points="1438.5,-67.5 1438.5,-97.5 1545.5,-97.5 1545.5,-67.5 1438.5,-67.5"/>
<text text-anchor="start" x="1446.5" y="-85.5" font-family="Helvetica,sans-Serif" font-size="10.00">lib/Target/PowerPC</text>
<text text-anchor="middle" x="1492" y="-74.5" font-family="Helvetica,sans-Serif" font-size="10.00">/PPCInstrInfo.cpp</text>
</a>
</g>
</g>
<!-- Node1&#45;&gt;Node11 -->
<g id="edge10" class="edge">
<title>Node1&#45;&gt;Node11</title>
<path fill="none" stroke="midnightblue" d="M1857,-141.04C1781.81,-132.55 1658.96,-117.33 1554,-98 1551.28,-97.5 1548.5,-96.96 1545.7,-96.39"/>
<polygon fill="midnightblue" stroke="midnightblue" points="1856.96,-144.55 1867.29,-142.19 1857.74,-137.6 1856.96,-144.55"/>
</g>
<!-- Node12 -->
<g id="node12" class="node">
<title>Node12</title>
<g id="a_node12"><a xlink:href="PPCISelDAGToDAG_8cpp.html" target="_top" xlink:title=" ">
<polygon fill="none" stroke="black" points="1563.5,-67.5 1563.5,-97.5 1694.5,-97.5 1694.5,-67.5 1563.5,-67.5"/>
<text text-anchor="start" x="1571.5" y="-85.5" font-family="Helvetica,sans-Serif" font-size="10.00">lib/Target/PowerPC</text>
<text text-anchor="middle" x="1629" y="-74.5" font-family="Helvetica,sans-Serif" font-size="10.00">/PPCISelDAGToDAG.cpp</text>
</a>
</g>
</g>
<!-- Node1&#45;&gt;Node12 -->
<g id="edge11" class="edge">
<title>Node1&#45;&gt;Node12</title>
<path fill="none" stroke="midnightblue" d="M1857.42,-133.32C1807.86,-122.51 1741.73,-108.09 1693.39,-97.54"/>
<polygon fill="midnightblue" stroke="midnightblue" points="1856.9,-136.79 1867.41,-135.5 1858.39,-129.95 1856.9,-136.79"/>
</g>
<!-- Node13 -->
<g id="node13" class="node">
<title>Node13</title>
<g id="a_node13"><a xlink:href="PPCISelLowering_8cpp.html" target="_top" xlink:title=" ">
<polygon fill="none" stroke="black" points="1712.5,-67.5 1712.5,-97.5 1833.5,-97.5 1833.5,-67.5 1712.5,-67.5"/>
<text text-anchor="start" x="1720.5" y="-85.5" font-family="Helvetica,sans-Serif" font-size="10.00">lib/Target/PowerPC</text>
<text text-anchor="middle" x="1773" y="-74.5" font-family="Helvetica,sans-Serif" font-size="10.00">/PPCISelLowering.cpp</text>
</a>
</g>
</g>
<!-- Node1&#45;&gt;Node13 -->
<g id="edge12" class="edge">
<title>Node1&#45;&gt;Node13</title>
<path fill="none" stroke="midnightblue" d="M1884.13,-130.41C1859.55,-120.03 1829.14,-107.2 1806.35,-97.58"/>
<polygon fill="midnightblue" stroke="midnightblue" points="1883.01,-133.73 1893.58,-134.4 1885.73,-127.28 1883.01,-133.73"/>
</g>
<!-- Node14 -->
<g id="node14" class="node">
<title>Node14</title>
<g id="a_node14"><a xlink:href="PPCLoopInstrFormPrep_8cpp.html" target="_top" xlink:title=" ">
<polygon fill="none" stroke="black" points="1852,-67.5 1852,-97.5 2002,-97.5 2002,-67.5 1852,-67.5"/>
<text text-anchor="start" x="1860" y="-85.5" font-family="Helvetica,sans-Serif" font-size="10.00">lib/Target/PowerPC</text>
<text text-anchor="middle" x="1927" y="-74.5" font-family="Helvetica,sans-Serif" font-size="10.00">/PPCLoopInstrFormPrep.cpp</text>
</a>
</g>
</g>
<!-- Node1&#45;&gt;Node14 -->
<g id="edge13" class="edge">
<title>Node1&#45;&gt;Node14</title>
<path fill="none" stroke="midnightblue" d="M1927,-124.11C1927,-115.15 1927,-105.32 1927,-97.58"/>
<polygon fill="midnightblue" stroke="midnightblue" points="1923.5,-124.4 1927,-134.4 1930.5,-124.4 1923.5,-124.4"/>
</g>
<!-- Node15 -->
<g id="node15" class="node">
<title>Node15</title>
<g id="a_node15"><a xlink:href="PPCLowerMASSVEntries_8cpp.html" target="_top" xlink:title=" ">
<polygon fill="none" stroke="black" points="2020,-67.5 2020,-97.5 2176,-97.5 2176,-67.5 2020,-67.5"/>
<text text-anchor="start" x="2028" y="-85.5" font-family="Helvetica,sans-Serif" font-size="10.00">lib/Target/PowerPC</text>
<text text-anchor="middle" x="2098" y="-74.5" font-family="Helvetica,sans-Serif" font-size="10.00">/PPCLowerMASSVEntries.cpp</text>
</a>
</g>
</g>
<!-- Node1&#45;&gt;Node15 -->
<g id="edge14" class="edge">
<title>Node1&#45;&gt;Node15</title>
<path fill="none" stroke="midnightblue" d="M1973.52,-130.82C2001,-120.37 2035.33,-107.32 2060.97,-97.58"/>
<polygon fill="midnightblue" stroke="midnightblue" points="1972.21,-127.57 1964.1,-134.4 1974.7,-134.11 1972.21,-127.57"/>
</g>
<!-- Node16 -->
<g id="node16" class="node">
<title>Node16</title>
<g id="a_node16"><a xlink:href="PPCMIPeephole_8cpp.html" target="_top" xlink:title=" ">
<polygon fill="none" stroke="black" points="2194,-67.5 2194,-97.5 2310,-97.5 2310,-67.5 2194,-67.5"/>
<text text-anchor="start" x="2202" y="-85.5" font-family="Helvetica,sans-Serif" font-size="10.00">lib/Target/PowerPC</text>
<text text-anchor="middle" x="2252" y="-74.5" font-family="Helvetica,sans-Serif" font-size="10.00">/PPCMIPeephole.cpp</text>
</a>
</g>
</g>
<!-- Node1&#45;&gt;Node16 -->
<g id="edge15" class="edge">
<title>Node1&#45;&gt;Node16</title>
<path fill="none" stroke="midnightblue" d="M1996.61,-135.26C2048.57,-125.29 2121.3,-111.13 2185,-98 2187.91,-97.4 2190.9,-96.78 2193.91,-96.15"/>
<polygon fill="midnightblue" stroke="midnightblue" points="1995.66,-131.88 1986.5,-137.2 1996.98,-138.75 1995.66,-131.88"/>
</g>
<!-- Node17 -->
<g id="node17" class="node">
<title>Node17</title>
<g id="a_node17"><a xlink:href="PPCReduceCRLogicals_8cpp.html" target="_top" xlink:title=" ">
<polygon fill="none" stroke="black" points="2328,-67.5 2328,-97.5 2476,-97.5 2476,-67.5 2328,-67.5"/>
<text text-anchor="start" x="2336" y="-85.5" font-family="Helvetica,sans-Serif" font-size="10.00">lib/Target/PowerPC</text>
<text text-anchor="middle" x="2402" y="-74.5" font-family="Helvetica,sans-Serif" font-size="10.00">/PPCReduceCRLogicals.cpp</text>
</a>
</g>
</g>
<!-- Node1&#45;&gt;Node17 -->
<g id="edge16" class="edge">
<title>Node1&#45;&gt;Node17</title>
<path fill="none" stroke="midnightblue" d="M1996.8,-140.47C2075.3,-131.21 2206.51,-115.06 2319,-98 2321.89,-97.56 2324.84,-97.1 2327.82,-96.63"/>
<polygon fill="midnightblue" stroke="midnightblue" points="1996.08,-137.03 1986.55,-141.67 1996.89,-143.98 1996.08,-137.03"/>
</g>
<!-- Node18 -->
<g id="node18" class="node">
<title>Node18</title>
<g id="a_node18"><a xlink:href="PPCRegisterInfo_8cpp.html" target="_top" xlink:title=" ">
<polygon fill="none" stroke="black" points="2494,-67.5 2494,-97.5 2612,-97.5 2612,-67.5 2494,-67.5"/>
<text text-anchor="start" x="2502" y="-85.5" font-family="Helvetica,sans-Serif" font-size="10.00">lib/Target/PowerPC</text>
<text text-anchor="middle" x="2553" y="-74.5" font-family="Helvetica,sans-Serif" font-size="10.00">/PPCRegisterInfo.cpp</text>
</a>
</g>
</g>
<!-- Node1&#45;&gt;Node18 -->
<g id="edge17" class="edge">
<title>Node1&#45;&gt;Node18</title>
<path fill="none" stroke="midnightblue" d="M1996.99,-144.87C2103.01,-138.75 2310.48,-124.41 2485,-98 2487.86,-97.57 2490.79,-97.09 2493.74,-96.57"/>
<polygon fill="midnightblue" stroke="midnightblue" points="1996.53,-141.39 1986.74,-145.45 1996.92,-148.37 1996.53,-141.39"/>
</g>
<!-- Node19 -->
<g id="node19" class="node">
<title>Node19</title>
<g id="a_node19"><a xlink:href="PPCSubtarget_8cpp.html" target="_top" xlink:title=" ">
<polygon fill="none" stroke="black" points="2630.5,-67.5 2630.5,-97.5 2737.5,-97.5 2737.5,-67.5 2630.5,-67.5"/>
<text text-anchor="start" x="2638.5" y="-85.5" font-family="Helvetica,sans-Serif" font-size="10.00">lib/Target/PowerPC</text>
<text text-anchor="middle" x="2684" y="-74.5" font-family="Helvetica,sans-Serif" font-size="10.00">/PPCSubtarget.cpp</text>
</a>
</g>
</g>
<!-- Node1&#45;&gt;Node19 -->
<g id="edge18" class="edge">
<title>Node1&#45;&gt;Node19</title>
<path fill="none" stroke="midnightblue" d="M1997,-146.96C2122.64,-143.4 2394.43,-132.11 2621,-98 2624.11,-97.53 2627.29,-96.99 2630.49,-96.4"/>
<polygon fill="midnightblue" stroke="midnightblue" points="1996.65,-143.46 1986.76,-147.24 1996.85,-150.46 1996.65,-143.46"/>
</g>
<!-- Node20 -->
<g id="node20" class="node">
<title>Node20</title>
<g id="a_node20"><a xlink:href="PPCTargetMachine_8cpp.html" target="_top" xlink:title=" ">
<polygon fill="none" stroke="black" points="2701,-0.5 2701,-30.5 2831,-30.5 2831,-0.5 2701,-0.5"/>
<text text-anchor="start" x="2709" y="-18.5" font-family="Helvetica,sans-Serif" font-size="10.00">lib/Target/PowerPC</text>
<text text-anchor="middle" x="2766" y="-7.5" font-family="Helvetica,sans-Serif" font-size="10.00">/PPCTargetMachine.cpp</text>
</a>
</g>
</g>
<!-- Node1&#45;&gt;Node20 -->
<g id="edge19" class="edge">
<title>Node1&#45;&gt;Node20</title>
<path fill="none" stroke="midnightblue" d="M1996.79,-148.85C2184.38,-149.14 2689.17,-145.47 2746,-98 2765.68,-81.56 2767.75,-49.21 2767.13,-30.59"/>
<polygon fill="midnightblue" stroke="midnightblue" points="1996.77,-145.35 1986.76,-148.83 1996.76,-152.35 1996.77,-145.35"/>
</g>
<!-- Node21 -->
<g id="node21" class="node">
<title>Node21</title>
<g id="a_node21"><a xlink:href="PPCTargetTransformInfo_8h.html" target="_top" xlink:title=" ">
<polygon fill="none" stroke="black" points="2794.5,-67.5 2794.5,-97.5 2939.5,-97.5 2939.5,-67.5 2794.5,-67.5"/>
<text text-anchor="start" x="2802.5" y="-85.5" font-family="Helvetica,sans-Serif" font-size="10.00">lib/Target/PowerPC</text>
<text text-anchor="middle" x="2867" y="-74.5" font-family="Helvetica,sans-Serif" font-size="10.00">/PPCTargetTransformInfo.h</text>
</a>
</g>
</g>
<!-- Node1&#45;&gt;Node21 -->
<g id="edge20" class="edge">
<title>Node1&#45;&gt;Node21</title>
<path fill="none" stroke="midnightblue" d="M1996.8,-146.87C2142.66,-142.92 2490.28,-130.63 2780,-98 2784.72,-97.47 2789.57,-96.85 2794.45,-96.18"/>
<polygon fill="midnightblue" stroke="midnightblue" points="1996.55,-143.38 1986.65,-147.14 1996.74,-150.38 1996.55,-143.38"/>
</g>
<!-- Node23 -->
<g id="node23" class="node">
<title>Node23</title>
<g id="a_node23"><a xlink:href="PPCTLSDynamicCall_8cpp.html" target="_top" xlink:title=" ">
<polygon fill="none" stroke="black" points="2958,-67.5 2958,-97.5 3096,-97.5 3096,-67.5 2958,-67.5"/>
<text text-anchor="start" x="2966" y="-85.5" font-family="Helvetica,sans-Serif" font-size="10.00">lib/Target/PowerPC</text>
<text text-anchor="middle" x="3027" y="-74.5" font-family="Helvetica,sans-Serif" font-size="10.00">/PPCTLSDynamicCall.cpp</text>
</a>
</g>
</g>
<!-- Node1&#45;&gt;Node23 -->
<g id="edge23" class="edge">
<title>Node1&#45;&gt;Node23</title>
<path fill="none" stroke="midnightblue" d="M1996.61,-148.28C2162.24,-147.05 2592.55,-139.75 2949,-98 2951.87,-97.66 2954.8,-97.28 2957.75,-96.87"/>
<polygon fill="midnightblue" stroke="midnightblue" points="1996.54,-144.78 1986.56,-148.35 1996.58,-151.78 1996.54,-144.78"/>
</g>
<!-- Node24 -->
<g id="node24" class="node">
<title>Node24</title>
<g id="a_node24"><a xlink:href="PPCTOCRegDeps_8cpp.html" target="_top" xlink:title=" ">
<polygon fill="none" stroke="black" points="3114,-67.5 3114,-97.5 3236,-97.5 3236,-67.5 3114,-67.5"/>
<text text-anchor="start" x="3122" y="-85.5" font-family="Helvetica,sans-Serif" font-size="10.00">lib/Target/PowerPC</text>
<text text-anchor="middle" x="3175" y="-74.5" font-family="Helvetica,sans-Serif" font-size="10.00">/PPCTOCRegDeps.cpp</text>
</a>
</g>
</g>
<!-- Node1&#45;&gt;Node24 -->
<g id="edge24" class="edge">
<title>Node1&#45;&gt;Node24</title>
<path fill="none" stroke="midnightblue" d="M1996.87,-146.99C2216.08,-142 2888.54,-124.88 3105,-98 3107.83,-97.65 3110.72,-97.24 3113.63,-96.8"/>
<polygon fill="midnightblue" stroke="midnightblue" points="1996.69,-143.49 1986.78,-147.21 1996.85,-150.49 1996.69,-143.49"/>
</g>
<!-- Node25 -->
<g id="node25" class="node">
<title>Node25</title>
<g id="a_node25"><a xlink:href="PPCVSXCopy_8cpp.html" target="_top" xlink:title=" ">
<polygon fill="none" stroke="black" points="3254.5,-67.5 3254.5,-97.5 3361.5,-97.5 3361.5,-67.5 3254.5,-67.5"/>
<text text-anchor="start" x="3262.5" y="-85.5" font-family="Helvetica,sans-Serif" font-size="10.00">lib/Target/PowerPC</text>
<text text-anchor="middle" x="3308" y="-74.5" font-family="Helvetica,sans-Serif" font-size="10.00">/PPCVSXCopy.cpp</text>
</a>
</g>
</g>
<!-- Node1&#45;&gt;Node25 -->
<g id="edge25" class="edge">
<title>Node1&#45;&gt;Node25</title>
<path fill="none" stroke="midnightblue" d="M1997.01,-147.55C2233.32,-144.09 3000.37,-130.54 3245,-98 3248,-97.6 3251.07,-97.12 3254.17,-96.59"/>
<polygon fill="midnightblue" stroke="midnightblue" points="1996.77,-144.06 1986.83,-147.7 1996.88,-151.06 1996.77,-144.06"/>
</g>
<!-- Node26 -->
<g id="node26" class="node">
<title>Node26</title>
<g id="a_node26"><a xlink:href="PPCVSXFMAMutate_8cpp.html" target="_top" xlink:title=" ">
<polygon fill="none" stroke="black" points="3380,-67.5 3380,-97.5 3514,-97.5 3514,-67.5 3380,-67.5"/>
<text text-anchor="start" x="3388" y="-85.5" font-family="Helvetica,sans-Serif" font-size="10.00">lib/Target/PowerPC</text>
<text text-anchor="middle" x="3447" y="-74.5" font-family="Helvetica,sans-Serif" font-size="10.00">/PPCVSXFMAMutate.cpp</text>
</a>
</g>
</g>
<!-- Node1&#45;&gt;Node26 -->
<g id="edge26" class="edge">
<title>Node1&#45;&gt;Node26</title>
<path fill="none" stroke="midnightblue" d="M1996.81,-147.48C2247.24,-143.6 3099.92,-128.42 3371,-98 3373.94,-97.67 3376.93,-97.29 3379.95,-96.87"/>
<polygon fill="midnightblue" stroke="midnightblue" points="1996.69,-143.98 1986.75,-147.64 1996.8,-150.98 1996.69,-143.98"/>
</g>
<!-- Node27 -->
<g id="node27" class="node">
<title>Node27</title>
<g id="a_node27"><a xlink:href="PPCVSXSwapRemoval_8cpp.html" target="_top" xlink:title=" ">
<polygon fill="none" stroke="black" points="3532,-67.5 3532,-97.5 3680,-97.5 3680,-67.5 3532,-67.5"/>
<text text-anchor="start" x="3540" y="-85.5" font-family="Helvetica,sans-Serif" font-size="10.00">lib/Target/PowerPC</text>
<text text-anchor="middle" x="3606" y="-74.5" font-family="Helvetica,sans-Serif" font-size="10.00">/PPCVSXSwapRemoval.cpp</text>
</a>
</g>
</g>
<!-- Node1&#45;&gt;Node27 -->
<g id="edge27" class="edge">
<title>Node1&#45;&gt;Node27</title>
<path fill="none" stroke="midnightblue" d="M1996.83,-147.6C2263.85,-143.98 3220.42,-129.06 3523,-98 3525.91,-97.7 3528.87,-97.36 3531.86,-96.99"/>
<polygon fill="midnightblue" stroke="midnightblue" points="1996.45,-144.11 1986.5,-147.74 1996.55,-151.11 1996.45,-144.11"/>
</g>
<!-- Node21&#45;&gt;Node20 -->
<g id="edge21" class="edge">
<title>Node21&#45;&gt;Node20</title>
<path fill="none" stroke="midnightblue" d="M2836.29,-61.73C2820.66,-51.68 2802.03,-39.68 2787.87,-30.58"/>
<polygon fill="midnightblue" stroke="midnightblue" points="2834.78,-64.93 2845.08,-67.4 2838.57,-59.04 2834.78,-64.93"/>
</g>
<!-- Node22 -->
<g id="node22" class="node">
<title>Node22</title>
<g id="a_node22"><a xlink:href="PPCTargetTransformInfo_8cpp.html" target="_top" xlink:title=" ">
<polygon fill="none" stroke="black" points="2849,-0.5 2849,-30.5 3005,-30.5 3005,-0.5 2849,-0.5"/>
<text text-anchor="start" x="2857" y="-18.5" font-family="Helvetica,sans-Serif" font-size="10.00">lib/Target/PowerPC</text>
<text text-anchor="middle" x="2927" y="-7.5" font-family="Helvetica,sans-Serif" font-size="10.00">/PPCTargetTransformInfo.cpp</text>
</a>
</g>
</g>
<!-- Node21&#45;&gt;Node22 -->
<g id="edge22" class="edge">
<title>Node21&#45;&gt;Node22</title>
<path fill="none" stroke="midnightblue" d="M2886.82,-60.02C2895.76,-50.34 2906.07,-39.17 2914.01,-30.58"/>
<polygon fill="midnightblue" stroke="midnightblue" points="2884.23,-57.67 2880.02,-67.4 2889.37,-62.42 2884.23,-57.67"/>
</g>
</g>
</svg>
