<?xml version="1.0" encoding="UTF-8" standalone="no"?>
<!DOCTYPE svg PUBLIC "-//W3C//DTD SVG 1.1//EN"
 "http://www.w3.org/Graphics/SVG/1.1/DTD/svg11.dtd">
<!-- Generated by graphviz version 2.43.0 (0)
 -->
<!-- Title: lib/Target/AMDGPU/R600FrameLowering.h Pages: 1 -->
<svg width="3653pt" height="229pt"
 viewBox="0.00 0.00 3653.00 229.00" xmlns="http://www.w3.org/2000/svg" xmlns:xlink="http://www.w3.org/1999/xlink">
<g id="graph0" class="graph" transform="scale(1 1) rotate(0) translate(4 225)">
<title>lib/Target/AMDGPU/R600FrameLowering.h</title>
<!-- Node1 -->
<g id="node1" class="node">
<title>Node1</title>
<g id="a_node1"><a xlink:title=" ">
<polygon fill="#bfbfbf" stroke="black" points="852,-190.5 852,-220.5 1019,-220.5 1019,-190.5 852,-190.5"/>
<text text-anchor="start" x="860" y="-208.5" font-family="Helvetica,sans-Serif" font-size="10.00">lib/Target/AMDGPU/R600Frame</text>
<text text-anchor="middle" x="935.5" y="-197.5" font-family="Helvetica,sans-Serif" font-size="10.00">Lowering.h</text>
</a>
</g>
</g>
<!-- Node2 -->
<g id="node2" class="node">
<title>Node2</title>
<g id="a_node2"><a xlink:href="R600Subtarget_8h.html" target="_top" xlink:title=" ">
<polygon fill="none" stroke="black" points="1604,-134.5 1604,-153.5 1797,-153.5 1797,-134.5 1604,-134.5"/>
<text text-anchor="middle" x="1700.5" y="-141.5" font-family="Helvetica,sans-Serif" font-size="10.00">lib/Target/AMDGPU/R600Subtarget.h</text>
</a>
</g>
</g>
<!-- Node1&#45;&gt;Node2 -->
<g id="edge1" class="edge">
<title>Node1&#45;&gt;Node2</title>
<path fill="none" stroke="midnightblue" d="M1029.48,-197.19C1175.69,-185.82 1456.14,-164.01 1603.92,-152.51"/>
<polygon fill="midnightblue" stroke="midnightblue" points="1028.89,-193.73 1019.19,-197.99 1029.43,-200.7 1028.89,-193.73"/>
</g>
<!-- Node12 -->
<g id="node12" class="node">
<title>Node12</title>
<g id="a_node12"><a xlink:href="R600FrameLowering_8cpp.html" target="_top" xlink:title=" ">
<polygon fill="none" stroke="black" points="0,-67.5 0,-97.5 167,-97.5 167,-67.5 0,-67.5"/>
<text text-anchor="start" x="8" y="-85.5" font-family="Helvetica,sans-Serif" font-size="10.00">lib/Target/AMDGPU/R600Frame</text>
<text text-anchor="middle" x="83.5" y="-74.5" font-family="Helvetica,sans-Serif" font-size="10.00">Lowering.cpp</text>
</a>
</g>
</g>
<!-- Node1&#45;&gt;Node12 -->
<g id="edge23" class="edge">
<title>Node1&#45;&gt;Node12</title>
<path fill="none" stroke="midnightblue" d="M841.84,-191.9C698.31,-172.47 415.35,-133.7 175.5,-98 172.78,-97.6 170.02,-97.18 167.23,-96.76"/>
<polygon fill="midnightblue" stroke="midnightblue" points="841.55,-195.39 851.93,-193.27 842.49,-188.46 841.55,-195.39"/>
</g>
<!-- Node3 -->
<g id="node3" class="node">
<title>Node3</title>
<g id="a_node3"><a xlink:href="AMDGPUSubtarget_8cpp.html" target="_top" xlink:title=" ">
<polygon fill="none" stroke="black" points="184.5,-73 184.5,-92 408.5,-92 408.5,-73 184.5,-73"/>
<text text-anchor="middle" x="296.5" y="-80" font-family="Helvetica,sans-Serif" font-size="10.00">lib/Target/AMDGPU/AMDGPUSubtarget.cpp</text>
</a>
</g>
</g>
<!-- Node2&#45;&gt;Node3 -->
<g id="edge2" class="edge">
<title>Node2&#45;&gt;Node3</title>
<path fill="none" stroke="midnightblue" d="M1593.6,-142.25C1373.41,-140.05 853.48,-131.43 418.5,-98 399.36,-96.53 378.6,-94.3 359.72,-92.03"/>
<polygon fill="midnightblue" stroke="midnightblue" points="1593.82,-145.75 1603.85,-142.35 1593.89,-138.75 1593.82,-145.75"/>
</g>
<!-- Node4 -->
<g id="node4" class="node">
<title>Node4</title>
<g id="a_node4"><a xlink:href="R600TargetMachine_8h.html" target="_top" xlink:title=" ">
<polygon fill="none" stroke="black" points="427,-67.5 427,-97.5 594,-97.5 594,-67.5 427,-67.5"/>
<text text-anchor="start" x="435" y="-85.5" font-family="Helvetica,sans-Serif" font-size="10.00">lib/Target/AMDGPU/R600Target</text>
<text text-anchor="middle" x="510.5" y="-74.5" font-family="Helvetica,sans-Serif" font-size="10.00">Machine.h</text>
</a>
</g>
</g>
<!-- Node2&#45;&gt;Node4 -->
<g id="edge3" class="edge">
<title>Node2&#45;&gt;Node4</title>
<path fill="none" stroke="midnightblue" d="M1593.63,-142.71C1396.98,-141.26 964.76,-133.85 602.5,-98 599.76,-97.73 596.99,-97.43 594.18,-97.11"/>
<polygon fill="midnightblue" stroke="midnightblue" points="1593.64,-146.21 1603.67,-142.78 1593.69,-139.21 1593.64,-146.21"/>
</g>
<!-- Node7 -->
<g id="node7" class="node">
<title>Node7</title>
<g id="a_node7"><a xlink:href="R600AsmPrinter_8cpp.html" target="_top" xlink:title=" ">
<polygon fill="none" stroke="black" points="611.5,-67.5 611.5,-97.5 769.5,-97.5 769.5,-67.5 611.5,-67.5"/>
<text text-anchor="start" x="619.5" y="-85.5" font-family="Helvetica,sans-Serif" font-size="10.00">lib/Target/AMDGPU/R600Asm</text>
<text text-anchor="middle" x="690.5" y="-74.5" font-family="Helvetica,sans-Serif" font-size="10.00">Printer.cpp</text>
</a>
</g>
</g>
<!-- Node2&#45;&gt;Node7 -->
<g id="edge6" class="edge">
<title>Node2&#45;&gt;Node7</title>
<path fill="none" stroke="midnightblue" d="M1593.92,-141.76C1421.91,-138.86 1072.64,-129.31 778.5,-98 775.57,-97.69 772.6,-97.34 769.6,-96.97"/>
<polygon fill="midnightblue" stroke="midnightblue" points="1593.93,-145.26 1603.99,-141.92 1594.05,-138.26 1593.93,-145.26"/>
</g>
<!-- Node8 -->
<g id="node8" class="node">
<title>Node8</title>
<g id="a_node8"><a xlink:href="R600ClauseMergePass_8cpp.html" target="_top" xlink:title=" ">
<polygon fill="none" stroke="black" points="787.5,-67.5 787.5,-97.5 957.5,-97.5 957.5,-67.5 787.5,-67.5"/>
<text text-anchor="start" x="795.5" y="-85.5" font-family="Helvetica,sans-Serif" font-size="10.00">lib/Target/AMDGPU/R600Clause</text>
<text text-anchor="middle" x="872.5" y="-74.5" font-family="Helvetica,sans-Serif" font-size="10.00">MergePass.cpp</text>
</a>
</g>
</g>
<!-- Node2&#45;&gt;Node8 -->
<g id="edge7" class="edge">
<title>Node2&#45;&gt;Node8</title>
<path fill="none" stroke="midnightblue" d="M1593.69,-139.53C1450.58,-134.17 1188.86,-121.92 966.5,-98 963.54,-97.68 960.54,-97.34 957.51,-96.97"/>
<polygon fill="midnightblue" stroke="midnightblue" points="1593.66,-143.03 1603.79,-139.9 1593.92,-136.03 1593.66,-143.03"/>
</g>
<!-- Node9 -->
<g id="node9" class="node">
<title>Node9</title>
<g id="a_node9"><a xlink:href="R600ControlFlowFinalizer_8cpp.html" target="_top" xlink:title=" ">
<polygon fill="none" stroke="black" points="975.5,-67.5 975.5,-97.5 1147.5,-97.5 1147.5,-67.5 975.5,-67.5"/>
<text text-anchor="start" x="983.5" y="-85.5" font-family="Helvetica,sans-Serif" font-size="10.00">lib/Target/AMDGPU/R600Control</text>
<text text-anchor="middle" x="1061.5" y="-74.5" font-family="Helvetica,sans-Serif" font-size="10.00">FlowFinalizer.cpp</text>
</a>
</g>
</g>
<!-- Node2&#45;&gt;Node9 -->
<g id="edge8" class="edge">
<title>Node2&#45;&gt;Node9</title>
<path fill="none" stroke="midnightblue" d="M1593.61,-136.27C1483.95,-128.87 1308.52,-115.64 1157.5,-98 1154.24,-97.62 1150.91,-97.21 1147.56,-96.78"/>
<polygon fill="midnightblue" stroke="midnightblue" points="1593.48,-139.77 1603.69,-136.95 1593.95,-132.79 1593.48,-139.77"/>
</g>
<!-- Node10 -->
<g id="node10" class="node">
<title>Node10</title>
<g id="a_node10"><a xlink:href="R600EmitClauseMarkers_8cpp.html" target="_top" xlink:title=" ">
<polygon fill="none" stroke="black" points="1166,-67.5 1166,-97.5 1325,-97.5 1325,-67.5 1166,-67.5"/>
<text text-anchor="start" x="1174" y="-85.5" font-family="Helvetica,sans-Serif" font-size="10.00">lib/Target/AMDGPU/R600Emit</text>
<text text-anchor="middle" x="1245.5" y="-74.5" font-family="Helvetica,sans-Serif" font-size="10.00">ClauseMarkers.cpp</text>
</a>
</g>
</g>
<!-- Node2&#45;&gt;Node10 -->
<g id="edge9" class="edge">
<title>Node2&#45;&gt;Node10</title>
<path fill="none" stroke="midnightblue" d="M1613.74,-133.3C1539.5,-124.77 1429.83,-111.62 1334.5,-98 1331.4,-97.56 1328.24,-97.09 1325.05,-96.62"/>
<polygon fill="midnightblue" stroke="midnightblue" points="1613.64,-136.81 1623.98,-134.47 1614.44,-129.86 1613.64,-136.81"/>
</g>
<!-- Node11 -->
<g id="node11" class="node">
<title>Node11</title>
<g id="a_node11"><a xlink:href="R600ExpandSpecialInstrs_8cpp.html" target="_top" xlink:title=" ">
<polygon fill="none" stroke="black" points="1343,-67.5 1343,-97.5 1516,-97.5 1516,-67.5 1343,-67.5"/>
<text text-anchor="start" x="1351" y="-85.5" font-family="Helvetica,sans-Serif" font-size="10.00">lib/Target/AMDGPU/R600Expand</text>
<text text-anchor="middle" x="1429.5" y="-74.5" font-family="Helvetica,sans-Serif" font-size="10.00">SpecialInstrs.cpp</text>
</a>
</g>
</g>
<!-- Node2&#45;&gt;Node11 -->
<g id="edge10" class="edge">
<title>Node2&#45;&gt;Node11</title>
<path fill="none" stroke="midnightblue" d="M1651.73,-132.29C1607.44,-122.57 1541.83,-108.16 1493.37,-97.52"/>
<polygon fill="midnightblue" stroke="midnightblue" points="1651.15,-135.75 1661.67,-134.48 1652.66,-128.91 1651.15,-135.75"/>
</g>
<!-- Node2&#45;&gt;Node12 -->
<g id="edge11" class="edge">
<title>Node2&#45;&gt;Node12</title>
<path fill="none" stroke="midnightblue" d="M1593.39,-141.61C1293.81,-137.43 451.21,-123.69 175.5,-98 172.76,-97.74 169.98,-97.46 167.18,-97.15"/>
<polygon fill="midnightblue" stroke="midnightblue" points="1593.77,-145.11 1603.82,-141.75 1593.87,-138.11 1593.77,-145.11"/>
</g>
<!-- Node13 -->
<g id="node13" class="node">
<title>Node13</title>
<g id="a_node13"><a xlink:href="R600InstrInfo_8cpp.html" target="_top" xlink:title=" ">
<polygon fill="none" stroke="black" points="1534.5,-67.5 1534.5,-97.5 1692.5,-97.5 1692.5,-67.5 1534.5,-67.5"/>
<text text-anchor="start" x="1542.5" y="-85.5" font-family="Helvetica,sans-Serif" font-size="10.00">lib/Target/AMDGPU/R600Instr</text>
<text text-anchor="middle" x="1613.5" y="-74.5" font-family="Helvetica,sans-Serif" font-size="10.00">Info.cpp</text>
</a>
</g>
</g>
<!-- Node2&#45;&gt;Node13 -->
<g id="edge12" class="edge">
<title>Node2&#45;&gt;Node13</title>
<path fill="none" stroke="midnightblue" d="M1679.65,-128.74C1665.82,-119.28 1647.76,-106.93 1634,-97.52"/>
<polygon fill="midnightblue" stroke="midnightblue" points="1677.8,-131.72 1688.04,-134.48 1681.76,-125.94 1677.8,-131.72"/>
</g>
<!-- Node14 -->
<g id="node14" class="node">
<title>Node14</title>
<g id="a_node14"><a xlink:href="R600ISelDAGToDAG_8cpp.html" target="_top" xlink:title=" ">
<polygon fill="none" stroke="black" points="1711,-67.5 1711,-97.5 1866,-97.5 1866,-67.5 1711,-67.5"/>
<text text-anchor="start" x="1719" y="-85.5" font-family="Helvetica,sans-Serif" font-size="10.00">lib/Target/AMDGPU/R600ISel</text>
<text text-anchor="middle" x="1788.5" y="-74.5" font-family="Helvetica,sans-Serif" font-size="10.00">DAGToDAG.cpp</text>
</a>
</g>
</g>
<!-- Node2&#45;&gt;Node14 -->
<g id="edge13" class="edge">
<title>Node2&#45;&gt;Node14</title>
<path fill="none" stroke="midnightblue" d="M1721.59,-128.74C1735.58,-119.28 1753.85,-106.93 1767.76,-97.52"/>
<polygon fill="midnightblue" stroke="midnightblue" points="1719.43,-125.97 1713.11,-134.48 1723.35,-131.77 1719.43,-125.97"/>
</g>
<!-- Node15 -->
<g id="node15" class="node">
<title>Node15</title>
<g id="a_node15"><a xlink:href="R600ISelLowering_8cpp.html" target="_top" xlink:title=" ">
<polygon fill="none" stroke="black" points="1884,-67.5 1884,-97.5 2039,-97.5 2039,-67.5 1884,-67.5"/>
<text text-anchor="start" x="1892" y="-85.5" font-family="Helvetica,sans-Serif" font-size="10.00">lib/Target/AMDGPU/R600ISel</text>
<text text-anchor="middle" x="1961.5" y="-74.5" font-family="Helvetica,sans-Serif" font-size="10.00">Lowering.cpp</text>
</a>
</g>
</g>
<!-- Node2&#45;&gt;Node15 -->
<g id="edge14" class="edge">
<title>Node2&#45;&gt;Node15</title>
<path fill="none" stroke="midnightblue" d="M1747.74,-132.23C1790.39,-122.51 1853.42,-108.14 1899.99,-97.52"/>
<polygon fill="midnightblue" stroke="midnightblue" points="1746.87,-128.84 1737.89,-134.48 1748.42,-135.66 1746.87,-128.84"/>
</g>
<!-- Node16 -->
<g id="node16" class="node">
<title>Node16</title>
<g id="a_node16"><a xlink:href="R600MachineCFGStructurizer_8cpp.html" target="_top" xlink:title=" ">
<polygon fill="none" stroke="black" points="2057.5,-67.5 2057.5,-97.5 2235.5,-97.5 2235.5,-67.5 2057.5,-67.5"/>
<text text-anchor="start" x="2065.5" y="-85.5" font-family="Helvetica,sans-Serif" font-size="10.00">lib/Target/AMDGPU/R600Machine</text>
<text text-anchor="middle" x="2146.5" y="-74.5" font-family="Helvetica,sans-Serif" font-size="10.00">CFGStructurizer.cpp</text>
</a>
</g>
</g>
<!-- Node2&#45;&gt;Node16 -->
<g id="edge15" class="edge">
<title>Node2&#45;&gt;Node16</title>
<path fill="none" stroke="midnightblue" d="M1779.37,-133.22C1849.94,-124.37 1956.19,-110.8 2048.5,-98 2051.4,-97.6 2054.34,-97.19 2057.31,-96.77"/>
<polygon fill="midnightblue" stroke="midnightblue" points="1778.71,-129.77 1769.22,-134.49 1779.58,-136.72 1778.71,-129.77"/>
</g>
<!-- Node17 -->
<g id="node17" class="node">
<title>Node17</title>
<g id="a_node17"><a xlink:href="R600MachineScheduler_8cpp.html" target="_top" xlink:title=" ">
<polygon fill="none" stroke="black" points="2253.5,-67.5 2253.5,-97.5 2431.5,-97.5 2431.5,-67.5 2253.5,-67.5"/>
<text text-anchor="start" x="2261.5" y="-85.5" font-family="Helvetica,sans-Serif" font-size="10.00">lib/Target/AMDGPU/R600Machine</text>
<text text-anchor="middle" x="2342.5" y="-74.5" font-family="Helvetica,sans-Serif" font-size="10.00">Scheduler.cpp</text>
</a>
</g>
</g>
<!-- Node2&#45;&gt;Node17 -->
<g id="edge16" class="edge">
<title>Node2&#45;&gt;Node17</title>
<path fill="none" stroke="midnightblue" d="M1807.57,-136.19C1917.43,-128.72 2093.18,-115.43 2244.5,-98 2247.4,-97.67 2250.36,-97.31 2253.33,-96.94"/>
<polygon fill="midnightblue" stroke="midnightblue" points="1807.22,-132.7 1797.48,-136.87 1807.69,-139.69 1807.22,-132.7"/>
</g>
<!-- Node18 -->
<g id="node18" class="node">
<title>Node18</title>
<g id="a_node18"><a xlink:href="R600MCInstLower_8cpp.html" target="_top" xlink:title=" ">
<polygon fill="none" stroke="black" points="2449.5,-67.5 2449.5,-97.5 2619.5,-97.5 2619.5,-67.5 2449.5,-67.5"/>
<text text-anchor="start" x="2457.5" y="-85.5" font-family="Helvetica,sans-Serif" font-size="10.00">lib/Target/AMDGPU/R600MCInst</text>
<text text-anchor="middle" x="2534.5" y="-74.5" font-family="Helvetica,sans-Serif" font-size="10.00">Lower.cpp</text>
</a>
</g>
</g>
<!-- Node2&#45;&gt;Node18 -->
<g id="edge17" class="edge">
<title>Node2&#45;&gt;Node18</title>
<path fill="none" stroke="midnightblue" d="M1807.28,-139.6C1951.36,-134.31 2215.86,-122.1 2440.5,-98 2443.46,-97.68 2446.46,-97.34 2449.49,-96.97"/>
<polygon fill="midnightblue" stroke="midnightblue" points="1806.98,-136.11 1797.12,-139.97 1807.24,-143.11 1806.98,-136.11"/>
</g>
<!-- Node19 -->
<g id="node19" class="node">
<title>Node19</title>
<g id="a_node19"><a xlink:href="R600OptimizeVectorRegisters_8cpp.html" target="_top" xlink:title=" ">
<polygon fill="none" stroke="black" points="2638,-67.5 2638,-97.5 2819,-97.5 2819,-67.5 2638,-67.5"/>
<text text-anchor="start" x="2646" y="-85.5" font-family="Helvetica,sans-Serif" font-size="10.00">lib/Target/AMDGPU/R600Optimize</text>
<text text-anchor="middle" x="2728.5" y="-74.5" font-family="Helvetica,sans-Serif" font-size="10.00">VectorRegisters.cpp</text>
</a>
</g>
</g>
<!-- Node2&#45;&gt;Node19 -->
<g id="edge18" class="edge">
<title>Node2&#45;&gt;Node19</title>
<path fill="none" stroke="midnightblue" d="M1807.36,-141.13C1980.27,-137.37 2331.96,-126.62 2628.5,-98 2631.56,-97.71 2634.66,-97.38 2637.79,-97.04"/>
<polygon fill="midnightblue" stroke="midnightblue" points="1807.17,-137.64 1797.24,-141.35 1807.32,-144.63 1807.17,-137.64"/>
</g>
<!-- Node20 -->
<g id="node20" class="node">
<title>Node20</title>
<g id="a_node20"><a xlink:href="R600Packetizer_8cpp.html" target="_top" xlink:title=" ">
<polygon fill="none" stroke="black" points="2837.5,-73 2837.5,-92 3043.5,-92 3043.5,-73 2837.5,-73"/>
<text text-anchor="middle" x="2940.5" y="-80" font-family="Helvetica,sans-Serif" font-size="10.00">lib/Target/AMDGPU/R600Packetizer.cpp</text>
</a>
</g>
</g>
<!-- Node2&#45;&gt;Node20 -->
<g id="edge19" class="edge">
<title>Node2&#45;&gt;Node20</title>
<path fill="none" stroke="midnightblue" d="M1807.49,-141.9C2008.07,-139.12 2454.19,-129.63 2828.5,-98 2846.08,-96.51 2865.15,-94.28 2882.48,-92.01"/>
<polygon fill="midnightblue" stroke="midnightblue" points="1807.2,-138.4 1797.25,-142.03 1807.29,-145.4 1807.2,-138.4"/>
</g>
<!-- Node21 -->
<g id="node21" class="node">
<title>Node21</title>
<g id="a_node21"><a xlink:href="R600RegisterInfo_8cpp.html" target="_top" xlink:title=" ">
<polygon fill="none" stroke="black" points="3062,-67.5 3062,-97.5 3239,-97.5 3239,-67.5 3062,-67.5"/>
<text text-anchor="start" x="3070" y="-85.5" font-family="Helvetica,sans-Serif" font-size="10.00">lib/Target/AMDGPU/R600Register</text>
<text text-anchor="middle" x="3150.5" y="-74.5" font-family="Helvetica,sans-Serif" font-size="10.00">Info.cpp</text>
</a>
</g>
</g>
<!-- Node2&#45;&gt;Node21 -->
<g id="edge20" class="edge">
<title>Node2&#45;&gt;Node21</title>
<path fill="none" stroke="midnightblue" d="M1807.36,-143.56C2036.18,-143.86 2590.34,-139.75 3052.5,-98 3055.58,-97.72 3058.72,-97.41 3061.88,-97.07"/>
<polygon fill="midnightblue" stroke="midnightblue" points="1807.05,-140.06 1797.04,-143.54 1807.04,-147.06 1807.05,-140.06"/>
</g>
<!-- Node22 -->
<g id="node22" class="node">
<title>Node22</title>
<g id="a_node22"><a xlink:href="R600Subtarget_8cpp.html" target="_top" xlink:title=" ">
<polygon fill="none" stroke="black" points="3256.5,-73 3256.5,-92 3460.5,-92 3460.5,-73 3256.5,-73"/>
<text text-anchor="middle" x="3358.5" y="-80" font-family="Helvetica,sans-Serif" font-size="10.00">lib/Target/AMDGPU/R600Subtarget.cpp</text>
</a>
</g>
</g>
<!-- Node2&#45;&gt;Node22 -->
<g id="edge21" class="edge">
<title>Node2&#45;&gt;Node22</title>
<path fill="none" stroke="midnightblue" d="M1807.38,-143.64C2059,-144.33 2708.26,-141.35 3248.5,-98 3266.07,-96.59 3285.13,-94.34 3302.37,-92.02"/>
<polygon fill="midnightblue" stroke="midnightblue" points="1807.15,-140.14 1797.14,-143.61 1807.13,-147.14 1807.15,-140.14"/>
</g>
<!-- Node23 -->
<g id="node23" class="node">
<title>Node23</title>
<g id="a_node23"><a xlink:href="R600TargetTransformInfo_8cpp.html" target="_top" xlink:title=" ">
<polygon fill="none" stroke="black" points="3478,-67.5 3478,-97.5 3645,-97.5 3645,-67.5 3478,-67.5"/>
<text text-anchor="start" x="3486" y="-85.5" font-family="Helvetica,sans-Serif" font-size="10.00">lib/Target/AMDGPU/R600Target</text>
<text text-anchor="middle" x="3561.5" y="-74.5" font-family="Helvetica,sans-Serif" font-size="10.00">TransformInfo.cpp</text>
</a>
</g>
</g>
<!-- Node2&#45;&gt;Node23 -->
<g id="edge22" class="edge">
<title>Node2&#45;&gt;Node23</title>
<path fill="none" stroke="midnightblue" d="M1807.12,-142.12C2137.92,-139.1 3144.07,-127.66 3469.5,-98 3472.24,-97.75 3475.02,-97.47 3477.82,-97.16"/>
<polygon fill="midnightblue" stroke="midnightblue" points="1807.03,-138.62 1797.06,-142.21 1807.09,-145.62 1807.03,-138.62"/>
</g>
<!-- Node5 -->
<g id="node5" class="node">
<title>Node5</title>
<g id="a_node5"><a xlink:href="AMDGPUTargetMachine_8cpp.html" target="_top" xlink:title=" ">
<polygon fill="none" stroke="black" points="320.5,-0.5 320.5,-30.5 506.5,-30.5 506.5,-0.5 320.5,-0.5"/>
<text text-anchor="start" x="328.5" y="-18.5" font-family="Helvetica,sans-Serif" font-size="10.00">lib/Target/AMDGPU/AMDGPUTarget</text>
<text text-anchor="middle" x="413.5" y="-7.5" font-family="Helvetica,sans-Serif" font-size="10.00">Machine.cpp</text>
</a>
</g>
</g>
<!-- Node4&#45;&gt;Node5 -->
<g id="edge4" class="edge">
<title>Node4&#45;&gt;Node5</title>
<path fill="none" stroke="midnightblue" d="M481,-61.73C465.99,-51.68 448.1,-39.68 434.51,-30.58"/>
<polygon fill="midnightblue" stroke="midnightblue" points="479.2,-64.74 489.45,-67.4 483.09,-58.92 479.2,-64.74"/>
</g>
<!-- Node6 -->
<g id="node6" class="node">
<title>Node6</title>
<g id="a_node6"><a xlink:href="R600TargetMachine_8cpp.html" target="_top" xlink:title=" ">
<polygon fill="none" stroke="black" points="524,-0.5 524,-30.5 691,-30.5 691,-0.5 524,-0.5"/>
<text text-anchor="start" x="532" y="-18.5" font-family="Helvetica,sans-Serif" font-size="10.00">lib/Target/AMDGPU/R600Target</text>
<text text-anchor="middle" x="607.5" y="-7.5" font-family="Helvetica,sans-Serif" font-size="10.00">Machine.cpp</text>
</a>
</g>
</g>
<!-- Node4&#45;&gt;Node6 -->
<g id="edge5" class="edge">
<title>Node4&#45;&gt;Node6</title>
<path fill="none" stroke="midnightblue" d="M540,-61.73C555.01,-51.68 572.9,-39.68 586.49,-30.58"/>
<polygon fill="midnightblue" stroke="midnightblue" points="537.91,-58.92 531.55,-67.4 541.8,-64.74 537.91,-58.92"/>
</g>
</g>
</svg>
