<?xml version="1.0" encoding="UTF-8" standalone="no"?>
<!DOCTYPE svg PUBLIC "-//W3C//DTD SVG 1.1//EN"
 "http://www.w3.org/Graphics/SVG/1.1/DTD/svg11.dtd">
<!-- Generated by graphviz version 2.43.0 (0)
 -->
<!-- Title: lib/Target/AMDGPU/SIMachineFunctionInfo.h Pages: 1 -->
<svg width="5871pt" height="173pt"
 viewBox="0.00 0.00 5870.50 173.00" xmlns="http://www.w3.org/2000/svg" xmlns:xlink="http://www.w3.org/1999/xlink">
<g id="graph0" class="graph" transform="scale(1 1) rotate(0) translate(4 169)">
<title>lib/Target/AMDGPU/SIMachineFunctionInfo.h</title>
<!-- Node1 -->
<g id="node1" class="node">
<title>Node1</title>
<g id="a_node1"><a xlink:title=" ">
<polygon fill="#bfbfbf" stroke="black" points="3041,-134.5 3041,-164.5 3203,-164.5 3203,-134.5 3041,-134.5"/>
<text text-anchor="start" x="3049" y="-152.5" font-family="Helvetica,sans-Serif" font-size="10.00">lib/Target/AMDGPU/SIMachine</text>
<text text-anchor="middle" x="3122" y="-141.5" font-family="Helvetica,sans-Serif" font-size="10.00">FunctionInfo.h</text>
</a>
</g>
</g>
<!-- Node2 -->
<g id="node2" class="node">
<title>Node2</title>
<g id="a_node2"><a xlink:href="AMDGPUAsmPrinter_8cpp.html" target="_top" xlink:title=" ">
<polygon fill="none" stroke="black" points="0,-67.5 0,-97.5 178,-97.5 178,-67.5 0,-67.5"/>
<text text-anchor="start" x="8" y="-85.5" font-family="Helvetica,sans-Serif" font-size="10.00">lib/Target/AMDGPU/AMDGPUAsm</text>
<text text-anchor="middle" x="89" y="-74.5" font-family="Helvetica,sans-Serif" font-size="10.00">Printer.cpp</text>
</a>
</g>
</g>
<!-- Node1&#45;&gt;Node2 -->
<g id="edge1" class="edge">
<title>Node1&#45;&gt;Node2</title>
<path fill="none" stroke="midnightblue" d="M3030.51,-148.53C2598.43,-148.4 759.31,-145.06 187,-98 184.09,-97.76 181.13,-97.49 178.14,-97.19"/>
<polygon fill="midnightblue" stroke="midnightblue" points="3030.76,-152.03 3040.76,-148.53 3030.76,-145.03 3030.76,-152.03"/>
</g>
<!-- Node3 -->
<g id="node3" class="node">
<title>Node3</title>
<g id="a_node3"><a xlink:href="AMDGPUCallLowering_8cpp.html" target="_top" xlink:title=" ">
<polygon fill="none" stroke="black" points="196.5,-67.5 196.5,-97.5 371.5,-97.5 371.5,-67.5 196.5,-67.5"/>
<text text-anchor="start" x="204.5" y="-85.5" font-family="Helvetica,sans-Serif" font-size="10.00">lib/Target/AMDGPU/AMDGPUCall</text>
<text text-anchor="middle" x="284" y="-74.5" font-family="Helvetica,sans-Serif" font-size="10.00">Lowering.cpp</text>
</a>
</g>
</g>
<!-- Node1&#45;&gt;Node3 -->
<g id="edge2" class="edge">
<title>Node1&#45;&gt;Node3</title>
<path fill="none" stroke="midnightblue" d="M3030.85,-148.41C2617.09,-147.78 912.94,-142.47 381,-98 377.95,-97.74 374.84,-97.45 371.71,-97.13"/>
<polygon fill="midnightblue" stroke="midnightblue" points="3030.96,-151.91 3040.96,-148.43 3030.97,-144.91 3030.96,-151.91"/>
</g>
<!-- Node4 -->
<g id="node4" class="node">
<title>Node4</title>
<g id="a_node4"><a xlink:href="AMDGPUHSAMetadataStreamer_8cpp.html" target="_top" xlink:title=" ">
<polygon fill="none" stroke="black" points="390,-67.5 390,-97.5 614,-97.5 614,-67.5 390,-67.5"/>
<text text-anchor="start" x="398" y="-85.5" font-family="Helvetica,sans-Serif" font-size="10.00">lib/Target/AMDGPU/AMDGPUHSAMetadata</text>
<text text-anchor="middle" x="502" y="-74.5" font-family="Helvetica,sans-Serif" font-size="10.00">Streamer.cpp</text>
</a>
</g>
</g>
<!-- Node1&#45;&gt;Node4 -->
<g id="edge3" class="edge">
<title>Node1&#45;&gt;Node4</title>
<path fill="none" stroke="midnightblue" d="M3030.68,-147.87C2639.73,-144.98 1105.05,-131.67 623,-98 620.05,-97.79 617.05,-97.57 614.03,-97.32"/>
<polygon fill="midnightblue" stroke="midnightblue" points="3030.79,-151.37 3040.81,-147.94 3030.84,-144.37 3030.79,-151.37"/>
</g>
<!-- Node5 -->
<g id="node5" class="node">
<title>Node5</title>
<g id="a_node5"><a xlink:href="AMDGPUIGroupLP_8cpp.html" target="_top" xlink:title=" ">
<polygon fill="none" stroke="black" points="632,-67.5 632,-97.5 820,-97.5 820,-67.5 632,-67.5"/>
<text text-anchor="start" x="640" y="-85.5" font-family="Helvetica,sans-Serif" font-size="10.00">lib/Target/AMDGPU/AMDGPUIGroup</text>
<text text-anchor="middle" x="726" y="-74.5" font-family="Helvetica,sans-Serif" font-size="10.00">LP.cpp</text>
</a>
</g>
</g>
<!-- Node1&#45;&gt;Node5 -->
<g id="edge4" class="edge">
<title>Node1&#45;&gt;Node5</title>
<path fill="none" stroke="midnightblue" d="M3030.63,-147.93C2660.04,-145.38 1267.91,-133.6 829,-98 826.12,-97.77 823.2,-97.51 820.25,-97.22"/>
<polygon fill="midnightblue" stroke="midnightblue" points="3030.75,-151.43 3040.77,-148 3030.8,-144.43 3030.75,-151.43"/>
</g>
<!-- Node6 -->
<g id="node6" class="node">
<title>Node6</title>
<g id="a_node6"><a xlink:href="AMDGPUInstructionSelector_8cpp.html" target="_top" xlink:title=" ">
<polygon fill="none" stroke="black" points="838,-67.5 838,-97.5 1046,-97.5 1046,-67.5 838,-67.5"/>
<text text-anchor="start" x="846" y="-85.5" font-family="Helvetica,sans-Serif" font-size="10.00">lib/Target/AMDGPU/AMDGPUInstruction</text>
<text text-anchor="middle" x="942" y="-74.5" font-family="Helvetica,sans-Serif" font-size="10.00">Selector.cpp</text>
</a>
</g>
</g>
<!-- Node1&#45;&gt;Node6 -->
<g id="edge5" class="edge">
<title>Node1&#45;&gt;Node6</title>
<path fill="none" stroke="midnightblue" d="M3030.49,-147.45C2683.86,-143.29 1451.34,-126.77 1060,-98 1055.47,-97.67 1050.85,-97.28 1046.18,-96.86"/>
<polygon fill="midnightblue" stroke="midnightblue" points="3030.69,-150.95 3040.73,-147.57 3030.78,-143.95 3030.69,-150.95"/>
</g>
<!-- Node7 -->
<g id="node7" class="node">
<title>Node7</title>
<g id="a_node7"><a xlink:href="AMDGPUISelDAGToDAG_8h.html" target="_top" xlink:title=" ">
<polygon fill="none" stroke="black" points="1102,-67.5 1102,-97.5 1276,-97.5 1276,-67.5 1102,-67.5"/>
<text text-anchor="start" x="1110" y="-85.5" font-family="Helvetica,sans-Serif" font-size="10.00">lib/Target/AMDGPU/AMDGPUISel</text>
<text text-anchor="middle" x="1189" y="-74.5" font-family="Helvetica,sans-Serif" font-size="10.00">DAGToDAG.h</text>
</a>
</g>
</g>
<!-- Node1&#45;&gt;Node7 -->
<g id="edge6" class="edge">
<title>Node1&#45;&gt;Node7</title>
<path fill="none" stroke="midnightblue" d="M3030.63,-147.47C2708.93,-143.61 1629.63,-128.65 1285,-98 1282.06,-97.74 1279.08,-97.45 1276.06,-97.13"/>
<polygon fill="midnightblue" stroke="midnightblue" points="3030.8,-150.97 3040.84,-147.59 3030.88,-143.97 3030.8,-150.97"/>
</g>
<!-- Node8 -->
<g id="node8" class="node">
<title>Node8</title>
<g id="a_node8"><a xlink:href="AMDGPUISelDAGToDAG_8cpp.html" target="_top" xlink:title=" ">
<polygon fill="none" stroke="black" points="987,-0.5 987,-30.5 1161,-30.5 1161,-0.5 987,-0.5"/>
<text text-anchor="start" x="995" y="-18.5" font-family="Helvetica,sans-Serif" font-size="10.00">lib/Target/AMDGPU/AMDGPUISel</text>
<text text-anchor="middle" x="1074" y="-7.5" font-family="Helvetica,sans-Serif" font-size="10.00">DAGToDAG.cpp</text>
</a>
</g>
</g>
<!-- Node1&#45;&gt;Node8 -->
<g id="edge9" class="edge">
<title>Node1&#45;&gt;Node8</title>
<path fill="none" stroke="midnightblue" d="M3030.59,-147.74C2640.22,-144.29 1131.06,-128.98 1093,-98 1073.17,-81.86 1071.63,-49.39 1072.6,-30.67"/>
<polygon fill="midnightblue" stroke="midnightblue" points="3030.68,-151.24 3040.71,-147.83 3030.74,-144.24 3030.68,-151.24"/>
</g>
<!-- Node10 -->
<g id="node10" class="node">
<title>Node10</title>
<g id="a_node10"><a xlink:href="AMDGPUISelLowering_8cpp.html" target="_top" xlink:title=" ">
<polygon fill="none" stroke="black" points="1294,-67.5 1294,-97.5 1468,-97.5 1468,-67.5 1294,-67.5"/>
<text text-anchor="start" x="1302" y="-85.5" font-family="Helvetica,sans-Serif" font-size="10.00">lib/Target/AMDGPU/AMDGPUISel</text>
<text text-anchor="middle" x="1381" y="-74.5" font-family="Helvetica,sans-Serif" font-size="10.00">Lowering.cpp</text>
</a>
</g>
</g>
<!-- Node1&#45;&gt;Node10 -->
<g id="edge10" class="edge">
<title>Node1&#45;&gt;Node10</title>
<path fill="none" stroke="midnightblue" d="M3030.21,-147.12C2730.46,-142.41 1782.13,-125.63 1477,-98 1474.06,-97.73 1471.08,-97.44 1468.07,-97.11"/>
<polygon fill="midnightblue" stroke="midnightblue" points="3030.54,-150.63 3040.59,-147.29 3030.65,-143.63 3030.54,-150.63"/>
</g>
<!-- Node11 -->
<g id="node11" class="node">
<title>Node11</title>
<g id="a_node11"><a xlink:href="AMDGPULegalizerInfo_8cpp.html" target="_top" xlink:title=" ">
<polygon fill="none" stroke="black" points="1486,-67.5 1486,-97.5 1686,-97.5 1686,-67.5 1486,-67.5"/>
<text text-anchor="start" x="1494" y="-85.5" font-family="Helvetica,sans-Serif" font-size="10.00">lib/Target/AMDGPU/AMDGPULegalizer</text>
<text text-anchor="middle" x="1586" y="-74.5" font-family="Helvetica,sans-Serif" font-size="10.00">Info.cpp</text>
</a>
</g>
</g>
<!-- Node1&#45;&gt;Node11 -->
<g id="edge11" class="edge">
<title>Node1&#45;&gt;Node11</title>
<path fill="none" stroke="midnightblue" d="M3030.81,-148.33C2804.36,-147.25 2198.3,-140.28 1695,-98 1692.05,-97.75 1689.06,-97.48 1686.04,-97.19"/>
<polygon fill="midnightblue" stroke="midnightblue" points="3030.96,-151.83 3040.98,-148.38 3031,-144.83 3030.96,-151.83"/>
</g>
<!-- Node12 -->
<g id="node12" class="node">
<title>Node12</title>
<g id="a_node12"><a xlink:href="AMDGPUMIRFormatter_8cpp.html" target="_top" xlink:title=" ">
<polygon fill="none" stroke="black" points="1704,-73 1704,-92 1946,-92 1946,-73 1704,-73"/>
<text text-anchor="middle" x="1825" y="-80" font-family="Helvetica,sans-Serif" font-size="10.00">lib/Target/AMDGPU/AMDGPUMIRFormatter.cpp</text>
</a>
</g>
</g>
<!-- Node1&#45;&gt;Node12 -->
<g id="edge12" class="edge">
<title>Node1&#45;&gt;Node12</title>
<path fill="none" stroke="midnightblue" d="M3030.67,-146.62C2833.96,-142.13 2355.67,-128.74 1956,-98 1935.81,-96.45 1913.92,-94.23 1893.93,-92"/>
<polygon fill="midnightblue" stroke="midnightblue" points="3030.88,-150.13 3040.96,-146.86 3031.04,-143.13 3030.88,-150.13"/>
</g>
<!-- Node13 -->
<g id="node13" class="node">
<title>Node13</title>
<g id="a_node13"><a xlink:href="AMDGPURegBankCombiner_8cpp.html" target="_top" xlink:title=" ">
<polygon fill="none" stroke="black" points="1964.5,-67.5 1964.5,-97.5 2139.5,-97.5 2139.5,-67.5 1964.5,-67.5"/>
<text text-anchor="start" x="1972.5" y="-85.5" font-family="Helvetica,sans-Serif" font-size="10.00">lib/Target/AMDGPU/AMDGPUReg</text>
<text text-anchor="middle" x="2052" y="-74.5" font-family="Helvetica,sans-Serif" font-size="10.00">BankCombiner.cpp</text>
</a>
</g>
</g>
<!-- Node1&#45;&gt;Node13 -->
<g id="edge13" class="edge">
<title>Node1&#45;&gt;Node13</title>
<path fill="none" stroke="midnightblue" d="M3030.69,-146.7C2858.08,-142.64 2472.23,-130.47 2149,-98 2145.95,-97.69 2142.85,-97.36 2139.72,-97"/>
<polygon fill="midnightblue" stroke="midnightblue" points="3030.67,-150.2 3040.75,-146.93 3030.83,-143.2 3030.67,-150.2"/>
</g>
<!-- Node14 -->
<g id="node14" class="node">
<title>Node14</title>
<g id="a_node14"><a xlink:href="AMDGPURegisterBankInfo_8cpp.html" target="_top" xlink:title=" ">
<polygon fill="none" stroke="black" points="2157.5,-67.5 2157.5,-97.5 2354.5,-97.5 2354.5,-67.5 2157.5,-67.5"/>
<text text-anchor="start" x="2165.5" y="-85.5" font-family="Helvetica,sans-Serif" font-size="10.00">lib/Target/AMDGPU/AMDGPURegister</text>
<text text-anchor="middle" x="2256" y="-74.5" font-family="Helvetica,sans-Serif" font-size="10.00">BankInfo.cpp</text>
</a>
</g>
</g>
<!-- Node1&#45;&gt;Node14 -->
<g id="edge14" class="edge">
<title>Node1&#45;&gt;Node14</title>
<path fill="none" stroke="midnightblue" d="M3030.79,-144.4C2888.25,-137.54 2604.13,-122.09 2364,-98 2360.89,-97.69 2357.74,-97.36 2354.56,-97.01"/>
<polygon fill="midnightblue" stroke="midnightblue" points="3030.65,-147.9 3040.8,-144.88 3030.98,-140.9 3030.65,-147.9"/>
</g>
<!-- Node15 -->
<g id="node15" class="node">
<title>Node15</title>
<g id="a_node15"><a xlink:href="AMDGPUResourceUsageAnalysis_8cpp.html" target="_top" xlink:title="Analyzes how many registers and other resources are used by functions.">
<polygon fill="none" stroke="black" points="2372.5,-67.5 2372.5,-97.5 2573.5,-97.5 2573.5,-67.5 2372.5,-67.5"/>
<text text-anchor="start" x="2380.5" y="-85.5" font-family="Helvetica,sans-Serif" font-size="10.00">lib/Target/AMDGPU/AMDGPUResource</text>
<text text-anchor="middle" x="2473" y="-74.5" font-family="Helvetica,sans-Serif" font-size="10.00">UsageAnalysis.cpp</text>
</a>
</g>
</g>
<!-- Node1&#45;&gt;Node15 -->
<g id="edge15" class="edge">
<title>Node1&#45;&gt;Node15</title>
<path fill="none" stroke="midnightblue" d="M3030.49,-140.98C2923.17,-131.92 2739.98,-115.69 2583,-98 2579.94,-97.65 2576.83,-97.3 2573.69,-96.93"/>
<polygon fill="midnightblue" stroke="midnightblue" points="3030.37,-144.49 3040.63,-141.84 3030.96,-137.51 3030.37,-144.49"/>
</g>
<!-- Node16 -->
<g id="node16" class="node">
<title>Node16</title>
<g id="a_node16"><a xlink:href="AMDGPUSubtarget_8cpp.html" target="_top" xlink:title=" ">
<polygon fill="none" stroke="black" points="2592,-73 2592,-92 2816,-92 2816,-73 2592,-73"/>
<text text-anchor="middle" x="2704" y="-80" font-family="Helvetica,sans-Serif" font-size="10.00">lib/Target/AMDGPU/AMDGPUSubtarget.cpp</text>
</a>
</g>
</g>
<!-- Node1&#45;&gt;Node16 -->
<g id="edge16" class="edge">
<title>Node1&#45;&gt;Node16</title>
<path fill="none" stroke="midnightblue" d="M3030.98,-134.35C2947.98,-121.44 2828.08,-102.79 2758.89,-92.03"/>
<polygon fill="midnightblue" stroke="midnightblue" points="3030.49,-137.81 3040.91,-135.89 3031.57,-130.9 3030.49,-137.81"/>
</g>
<!-- Node17 -->
<g id="node17" class="node">
<title>Node17</title>
<g id="a_node17"><a xlink:href="AMDGPUTargetMachine_8cpp.html" target="_top" xlink:title=" ">
<polygon fill="none" stroke="black" points="2834,-67.5 2834,-97.5 3020,-97.5 3020,-67.5 2834,-67.5"/>
<text text-anchor="start" x="2842" y="-85.5" font-family="Helvetica,sans-Serif" font-size="10.00">lib/Target/AMDGPU/AMDGPUTarget</text>
<text text-anchor="middle" x="2927" y="-74.5" font-family="Helvetica,sans-Serif" font-size="10.00">Machine.cpp</text>
</a>
</g>
</g>
<!-- Node1&#45;&gt;Node17 -->
<g id="edge17" class="edge">
<title>Node1&#45;&gt;Node17</title>
<path fill="none" stroke="midnightblue" d="M3070.18,-131.23C3038.64,-120.71 2998.85,-107.45 2969.23,-97.58"/>
<polygon fill="midnightblue" stroke="midnightblue" points="3069.09,-134.55 3079.69,-134.4 3071.31,-127.91 3069.09,-134.55"/>
</g>
<!-- Node18 -->
<g id="node18" class="node">
<title>Node18</title>
<g id="a_node18"><a xlink:href="GCNHazardRecognizer_8cpp.html" target="_top" xlink:title=" ">
<polygon fill="none" stroke="black" points="3038,-67.5 3038,-97.5 3206,-97.5 3206,-67.5 3038,-67.5"/>
<text text-anchor="start" x="3046" y="-85.5" font-family="Helvetica,sans-Serif" font-size="10.00">lib/Target/AMDGPU/GCNHazard</text>
<text text-anchor="middle" x="3122" y="-74.5" font-family="Helvetica,sans-Serif" font-size="10.00">Recognizer.cpp</text>
</a>
</g>
</g>
<!-- Node1&#45;&gt;Node18 -->
<g id="edge18" class="edge">
<title>Node1&#45;&gt;Node18</title>
<path fill="none" stroke="midnightblue" d="M3122,-124.11C3122,-115.15 3122,-105.32 3122,-97.58"/>
<polygon fill="midnightblue" stroke="midnightblue" points="3118.5,-124.4 3122,-134.4 3125.5,-124.4 3118.5,-124.4"/>
</g>
<!-- Node19 -->
<g id="node19" class="node">
<title>Node19</title>
<g id="a_node19"><a xlink:href="GCNIterativeScheduler_8cpp.html" target="_top" xlink:title=" ">
<polygon fill="none" stroke="black" points="3224.5,-67.5 3224.5,-97.5 3399.5,-97.5 3399.5,-67.5 3224.5,-67.5"/>
<text text-anchor="start" x="3232.5" y="-85.5" font-family="Helvetica,sans-Serif" font-size="10.00">lib/Target/AMDGPU/GCNIterative</text>
<text text-anchor="middle" x="3312" y="-74.5" font-family="Helvetica,sans-Serif" font-size="10.00">Scheduler.cpp</text>
</a>
</g>
</g>
<!-- Node1&#45;&gt;Node19 -->
<g id="edge19" class="edge">
<title>Node1&#45;&gt;Node19</title>
<path fill="none" stroke="midnightblue" d="M3172.89,-131.09C3203.56,-120.6 3242.11,-107.41 3270.85,-97.58"/>
<polygon fill="midnightblue" stroke="midnightblue" points="3171.56,-127.85 3163.23,-134.4 3173.82,-134.47 3171.56,-127.85"/>
</g>
<!-- Node20 -->
<g id="node20" class="node">
<title>Node20</title>
<g id="a_node20"><a xlink:href="GCNNSAReassign_8cpp.html" target="_top" xlink:title="Try to reassign registers on GFX10+ from non&#45;sequential to sequential in NSA image instructions....">
<polygon fill="none" stroke="black" points="3417.5,-73 3417.5,-92 3636.5,-92 3636.5,-73 3417.5,-73"/>
<text text-anchor="middle" x="3527" y="-80" font-family="Helvetica,sans-Serif" font-size="10.00">lib/Target/AMDGPU/GCNNSAReassign.cpp</text>
</a>
</g>
</g>
<!-- Node1&#45;&gt;Node20 -->
<g id="edge20" class="edge">
<title>Node1&#45;&gt;Node20</title>
<path fill="none" stroke="midnightblue" d="M3213.59,-133.8C3293.93,-120.91 3407.95,-102.61 3474.02,-92"/>
<polygon fill="midnightblue" stroke="midnightblue" points="3212.79,-130.38 3203.47,-135.42 3213.9,-137.3 3212.79,-130.38"/>
</g>
<!-- Node21 -->
<g id="node21" class="node">
<title>Node21</title>
<g id="a_node21"><a xlink:href="GCNSchedStrategy_8cpp.html" target="_top" xlink:title=" ">
<polygon fill="none" stroke="black" points="3654.5,-67.5 3654.5,-97.5 3817.5,-97.5 3817.5,-67.5 3654.5,-67.5"/>
<text text-anchor="start" x="3662.5" y="-85.5" font-family="Helvetica,sans-Serif" font-size="10.00">lib/Target/AMDGPU/GCNSched</text>
<text text-anchor="middle" x="3736" y="-74.5" font-family="Helvetica,sans-Serif" font-size="10.00">Strategy.cpp</text>
</a>
</g>
</g>
<!-- Node1&#45;&gt;Node21 -->
<g id="edge21" class="edge">
<title>Node1&#45;&gt;Node21</title>
<path fill="none" stroke="midnightblue" d="M3213.64,-141.45C3318.39,-132.97 3494.89,-117.43 3646,-98 3648.67,-97.66 3651.38,-97.3 3654.12,-96.92"/>
<polygon fill="midnightblue" stroke="midnightblue" points="3213.1,-137.98 3203.42,-142.27 3213.67,-144.96 3213.1,-137.98"/>
</g>
<!-- Node22 -->
<g id="node22" class="node">
<title>Node22</title>
<g id="a_node22"><a xlink:href="SIFoldOperands_8cpp.html" target="_top" xlink:title=" ">
<polygon fill="none" stroke="black" points="3835.5,-67.5 3835.5,-97.5 3976.5,-97.5 3976.5,-67.5 3835.5,-67.5"/>
<text text-anchor="start" x="3843.5" y="-85.5" font-family="Helvetica,sans-Serif" font-size="10.00">lib/Target/AMDGPU/SIFold</text>
<text text-anchor="middle" x="3906" y="-74.5" font-family="Helvetica,sans-Serif" font-size="10.00">Operands.cpp</text>
</a>
</g>
</g>
<!-- Node1&#45;&gt;Node22 -->
<g id="edge22" class="edge">
<title>Node1&#45;&gt;Node22</title>
<path fill="none" stroke="midnightblue" d="M3213.45,-145.16C3348.19,-139.52 3607.82,-125.88 3827,-98 3829.77,-97.65 3832.58,-97.26 3835.42,-96.85"/>
<polygon fill="midnightblue" stroke="midnightblue" points="3213.02,-141.68 3203.17,-145.59 3213.31,-148.67 3213.02,-141.68"/>
</g>
<!-- Node23 -->
<g id="node23" class="node">
<title>Node23</title>
<g id="a_node23"><a xlink:href="SIFormMemoryClauses_8cpp.html" target="_top" xlink:title=" ">
<polygon fill="none" stroke="black" points="3995,-67.5 3995,-97.5 4141,-97.5 4141,-67.5 3995,-67.5"/>
<text text-anchor="start" x="4003" y="-85.5" font-family="Helvetica,sans-Serif" font-size="10.00">lib/Target/AMDGPU/SIForm</text>
<text text-anchor="middle" x="4068" y="-74.5" font-family="Helvetica,sans-Serif" font-size="10.00">MemoryClauses.cpp</text>
</a>
</g>
</g>
<!-- Node1&#45;&gt;Node23 -->
<g id="edge23" class="edge">
<title>Node1&#45;&gt;Node23</title>
<path fill="none" stroke="midnightblue" d="M3213.43,-146.66C3371.44,-142.69 3705.63,-130.87 3986,-98 3988.87,-97.66 3991.8,-97.29 3994.74,-96.89"/>
<polygon fill="midnightblue" stroke="midnightblue" points="3213.19,-143.16 3203.28,-146.91 3213.36,-150.16 3213.19,-143.16"/>
</g>
<!-- Node24 -->
<g id="node24" class="node">
<title>Node24</title>
<g id="a_node24"><a xlink:href="SIFrameLowering_8cpp.html" target="_top" xlink:title=" ">
<polygon fill="none" stroke="black" points="4159,-67.5 4159,-97.5 4311,-97.5 4311,-67.5 4159,-67.5"/>
<text text-anchor="start" x="4167" y="-85.5" font-family="Helvetica,sans-Serif" font-size="10.00">lib/Target/AMDGPU/SIFrame</text>
<text text-anchor="middle" x="4235" y="-74.5" font-family="Helvetica,sans-Serif" font-size="10.00">Lowering.cpp</text>
</a>
</g>
</g>
<!-- Node1&#45;&gt;Node24 -->
<g id="edge24" class="edge">
<title>Node1&#45;&gt;Node24</title>
<path fill="none" stroke="midnightblue" d="M3213.43,-147.68C3393.32,-145.26 3805.65,-135.69 4150,-98 4152.83,-97.69 4155.7,-97.35 4158.61,-96.98"/>
<polygon fill="midnightblue" stroke="midnightblue" points="3213.18,-144.18 3203.22,-147.81 3213.27,-151.18 3213.18,-144.18"/>
</g>
<!-- Node25 -->
<g id="node25" class="node">
<title>Node25</title>
<g id="a_node25"><a xlink:href="SIInsertWaitcnts_8cpp.html" target="_top" xlink:title=" ">
<polygon fill="none" stroke="black" points="4329.5,-67.5 4329.5,-97.5 4478.5,-97.5 4478.5,-67.5 4329.5,-67.5"/>
<text text-anchor="start" x="4337.5" y="-85.5" font-family="Helvetica,sans-Serif" font-size="10.00">lib/Target/AMDGPU/SIInsert</text>
<text text-anchor="middle" x="4404" y="-74.5" font-family="Helvetica,sans-Serif" font-size="10.00">Waitcnts.cpp</text>
</a>
</g>
</g>
<!-- Node1&#45;&gt;Node25 -->
<g id="edge25" class="edge">
<title>Node1&#45;&gt;Node25</title>
<path fill="none" stroke="midnightblue" d="M3213.46,-148.65C3414.3,-148.11 3908.77,-141.98 4320,-98 4323.09,-97.67 4326.24,-97.3 4329.41,-96.89"/>
<polygon fill="midnightblue" stroke="midnightblue" points="3213.25,-145.15 3203.25,-148.68 3213.26,-152.15 3213.25,-145.15"/>
</g>
<!-- Node26 -->
<g id="node26" class="node">
<title>Node26</title>
<g id="a_node26"><a xlink:href="SIInstrInfo_8cpp.html" target="_top" xlink:title=" ">
<polygon fill="none" stroke="black" points="4496.5,-67.5 4496.5,-97.5 4639.5,-97.5 4639.5,-67.5 4496.5,-67.5"/>
<text text-anchor="start" x="4504.5" y="-85.5" font-family="Helvetica,sans-Serif" font-size="10.00">lib/Target/AMDGPU/SIInstr</text>
<text text-anchor="middle" x="4568" y="-74.5" font-family="Helvetica,sans-Serif" font-size="10.00">Info.cpp</text>
</a>
</g>
</g>
<!-- Node1&#45;&gt;Node26 -->
<g id="edge26" class="edge">
<title>Node1&#45;&gt;Node26</title>
<path fill="none" stroke="midnightblue" d="M3213.74,-146.81C3478.38,-141.68 4240.05,-124.92 4488,-98 4490.67,-97.71 4493.38,-97.38 4496.11,-97.03"/>
<polygon fill="midnightblue" stroke="midnightblue" points="3213.34,-143.32 3203.4,-147.01 3213.47,-150.32 3213.34,-143.32"/>
</g>
<!-- Node27 -->
<g id="node27" class="node">
<title>Node27</title>
<g id="a_node27"><a xlink:href="SIISelLowering_8cpp.html" target="_top" xlink:title=" ">
<polygon fill="none" stroke="black" points="4657.5,-67.5 4657.5,-97.5 4796.5,-97.5 4796.5,-67.5 4657.5,-67.5"/>
<text text-anchor="start" x="4665.5" y="-85.5" font-family="Helvetica,sans-Serif" font-size="10.00">lib/Target/AMDGPU/SIISel</text>
<text text-anchor="middle" x="4727" y="-74.5" font-family="Helvetica,sans-Serif" font-size="10.00">Lowering.cpp</text>
</a>
</g>
</g>
<!-- Node1&#45;&gt;Node27 -->
<g id="edge27" class="edge">
<title>Node1&#45;&gt;Node27</title>
<path fill="none" stroke="midnightblue" d="M3213.53,-147.28C3498.62,-143.21 4368.34,-128.55 4649,-98 4651.74,-97.7 4654.53,-97.36 4657.34,-96.99"/>
<polygon fill="midnightblue" stroke="midnightblue" points="3213.18,-143.79 3203.23,-147.43 3213.28,-150.79 3213.18,-143.79"/>
</g>
<!-- Node28 -->
<g id="node28" class="node">
<title>Node28</title>
<g id="a_node28"><a xlink:href="SILateBranchLowering_8cpp.html" target="_top" xlink:title=" ">
<polygon fill="none" stroke="black" points="4815,-67.5 4815,-97.5 4957,-97.5 4957,-67.5 4815,-67.5"/>
<text text-anchor="start" x="4823" y="-85.5" font-family="Helvetica,sans-Serif" font-size="10.00">lib/Target/AMDGPU/SILate</text>
<text text-anchor="middle" x="4886" y="-74.5" font-family="Helvetica,sans-Serif" font-size="10.00">BranchLowering.cpp</text>
</a>
</g>
</g>
<!-- Node1&#45;&gt;Node28 -->
<g id="edge28" class="edge">
<title>Node1&#45;&gt;Node28</title>
<path fill="none" stroke="midnightblue" d="M3213.18,-147.56C3516.97,-144.15 4493.12,-130.86 4806,-98 4808.95,-97.69 4811.95,-97.33 4814.98,-96.94"/>
<polygon fill="midnightblue" stroke="midnightblue" points="3213.05,-144.06 3203.09,-147.67 3213.13,-151.06 3213.05,-144.06"/>
</g>
<!-- Node29 -->
<g id="node29" class="node">
<title>Node29</title>
<g id="a_node29"><a xlink:href="SILowerSGPRSpills_8cpp.html" target="_top" xlink:title=" ">
<polygon fill="none" stroke="black" points="4975,-67.5 4975,-97.5 5125,-97.5 5125,-67.5 4975,-67.5"/>
<text text-anchor="start" x="4983" y="-85.5" font-family="Helvetica,sans-Serif" font-size="10.00">lib/Target/AMDGPU/SILower</text>
<text text-anchor="middle" x="5050" y="-74.5" font-family="Helvetica,sans-Serif" font-size="10.00">SGPRSpills.cpp</text>
</a>
</g>
</g>
<!-- Node1&#45;&gt;Node29 -->
<g id="edge29" class="edge">
<title>Node1&#45;&gt;Node29</title>
<path fill="none" stroke="midnightblue" d="M3213.47,-147.73C3536.13,-144.76 4620.3,-132.39 4966,-98 4968.95,-97.71 4971.94,-97.37 4974.97,-97"/>
<polygon fill="midnightblue" stroke="midnightblue" points="3213.2,-144.24 3203.23,-147.83 3213.26,-151.24 3213.2,-144.24"/>
</g>
<!-- Node30 -->
<g id="node30" class="node">
<title>Node30</title>
<g id="a_node30"><a xlink:href="SIMachineFunctionInfo_8cpp.html" target="_top" xlink:title=" ">
<polygon fill="none" stroke="black" points="5143,-67.5 5143,-97.5 5305,-97.5 5305,-67.5 5143,-67.5"/>
<text text-anchor="start" x="5151" y="-85.5" font-family="Helvetica,sans-Serif" font-size="10.00">lib/Target/AMDGPU/SIMachine</text>
<text text-anchor="middle" x="5224" y="-74.5" font-family="Helvetica,sans-Serif" font-size="10.00">FunctionInfo.cpp</text>
</a>
</g>
</g>
<!-- Node1&#45;&gt;Node30 -->
<g id="edge30" class="edge">
<title>Node1&#45;&gt;Node30</title>
<path fill="none" stroke="midnightblue" d="M3213.34,-147.84C3554.44,-145.13 4753.5,-133.26 5134,-98 5136.84,-97.74 5139.72,-97.44 5142.63,-97.11"/>
<polygon fill="midnightblue" stroke="midnightblue" points="3213.23,-144.34 3203.26,-147.92 3213.29,-151.34 3213.23,-144.34"/>
</g>
<!-- Node31 -->
<g id="node31" class="node">
<title>Node31</title>
<g id="a_node31"><a xlink:href="SIOptimizeVGPRLiveRange_8cpp.html" target="_top" xlink:title=" ">
<polygon fill="none" stroke="black" points="5323.5,-67.5 5323.5,-97.5 5488.5,-97.5 5488.5,-67.5 5323.5,-67.5"/>
<text text-anchor="start" x="5331.5" y="-85.5" font-family="Helvetica,sans-Serif" font-size="10.00">lib/Target/AMDGPU/SIOptimize</text>
<text text-anchor="middle" x="5406" y="-74.5" font-family="Helvetica,sans-Serif" font-size="10.00">VGPRLiveRange.cpp</text>
</a>
</g>
</g>
<!-- Node1&#45;&gt;Node31 -->
<g id="edge31" class="edge">
<title>Node1&#45;&gt;Node31</title>
<path fill="none" stroke="midnightblue" d="M3213.23,-148.02C3573.28,-145.88 4896.24,-135.57 5314,-98 5317.06,-97.72 5320.17,-97.41 5323.31,-97.06"/>
<polygon fill="midnightblue" stroke="midnightblue" points="3213.1,-144.52 3203.12,-148.08 3213.14,-151.52 3213.1,-144.52"/>
</g>
<!-- Node32 -->
<g id="node32" class="node">
<title>Node32</title>
<g id="a_node32"><a xlink:href="SIPreAllocateWWMRegs_8cpp.html" target="_top" xlink:title=" ">
<polygon fill="none" stroke="black" points="5507,-67.5 5507,-97.5 5683,-97.5 5683,-67.5 5507,-67.5"/>
<text text-anchor="start" x="5515" y="-85.5" font-family="Helvetica,sans-Serif" font-size="10.00">lib/Target/AMDGPU/SIPreAllocate</text>
<text text-anchor="middle" x="5595" y="-74.5" font-family="Helvetica,sans-Serif" font-size="10.00">WWMRegs.cpp</text>
</a>
</g>
</g>
<!-- Node1&#45;&gt;Node32 -->
<g id="edge32" class="edge">
<title>Node1&#45;&gt;Node32</title>
<path fill="none" stroke="midnightblue" d="M3213.2,-148.11C3591.93,-146.27 5041.97,-136.77 5498,-98 5500.88,-97.75 5503.81,-97.48 5506.77,-97.18"/>
<polygon fill="midnightblue" stroke="midnightblue" points="3213.1,-144.61 3203.12,-148.16 3213.13,-151.61 3213.1,-144.61"/>
</g>
<!-- Node33 -->
<g id="node33" class="node">
<title>Node33</title>
<g id="a_node33"><a xlink:href="SIRegisterInfo_8cpp.html" target="_top" xlink:title=" ">
<polygon fill="none" stroke="black" points="5701.5,-67.5 5701.5,-97.5 5862.5,-97.5 5862.5,-67.5 5701.5,-67.5"/>
<text text-anchor="start" x="5709.5" y="-85.5" font-family="Helvetica,sans-Serif" font-size="10.00">lib/Target/AMDGPU/SIRegister</text>
<text text-anchor="middle" x="5782" y="-74.5" font-family="Helvetica,sans-Serif" font-size="10.00">Info.cpp</text>
</a>
</g>
</g>
<!-- Node1&#45;&gt;Node33 -->
<g id="edge33" class="edge">
<title>Node1&#45;&gt;Node33</title>
<path fill="none" stroke="midnightblue" d="M3213.32,-148.42C3611.25,-147.82 5195.97,-142.61 5692,-98 5694.99,-97.73 5698.04,-97.42 5701.11,-97.08"/>
<polygon fill="midnightblue" stroke="midnightblue" points="3213.29,-144.92 3203.3,-148.44 3213.3,-151.92 3213.29,-144.92"/>
</g>
<!-- Node7&#45;&gt;Node8 -->
<g id="edge7" class="edge">
<title>Node7&#45;&gt;Node8</title>
<path fill="none" stroke="midnightblue" d="M1155.02,-62.3C1137.03,-52.12 1115.32,-39.85 1098.9,-30.58"/>
<polygon fill="midnightblue" stroke="midnightblue" points="1153.62,-65.52 1164.05,-67.4 1157.06,-59.43 1153.62,-65.52"/>
</g>
<!-- Node9 -->
<g id="node9" class="node">
<title>Node9</title>
<g id="a_node9"><a xlink:href="R600ISelDAGToDAG_8cpp.html" target="_top" xlink:title=" ">
<polygon fill="none" stroke="black" points="1179.5,-0.5 1179.5,-30.5 1334.5,-30.5 1334.5,-0.5 1179.5,-0.5"/>
<text text-anchor="start" x="1187.5" y="-18.5" font-family="Helvetica,sans-Serif" font-size="10.00">lib/Target/AMDGPU/R600ISel</text>
<text text-anchor="middle" x="1257" y="-7.5" font-family="Helvetica,sans-Serif" font-size="10.00">DAGToDAG.cpp</text>
</a>
</g>
</g>
<!-- Node7&#45;&gt;Node9 -->
<g id="edge8" class="edge">
<title>Node7&#45;&gt;Node9</title>
<path fill="none" stroke="midnightblue" d="M1211.17,-60.31C1221.37,-50.56 1233.19,-39.26 1242.27,-30.58"/>
<polygon fill="midnightblue" stroke="midnightblue" points="1208.57,-57.96 1203.75,-67.4 1213.4,-63.02 1208.57,-57.96"/>
</g>
</g>
</svg>
