<?xml version="1.0" encoding="UTF-8" standalone="no"?>
<!DOCTYPE svg PUBLIC "-//W3C//DTD SVG 1.1//EN"
 "http://www.w3.org/Graphics/SVG/1.1/DTD/svg11.dtd">
<!-- Generated by graphviz version 2.43.0 (0)
 -->
<!-- Title: include/llvm/Transforms/Utils/SizeOpts.h Pages: 1 -->
<svg width="2997pt" height="173pt"
 viewBox="0.00 0.00 2997.00 173.00" xmlns="http://www.w3.org/2000/svg" xmlns:xlink="http://www.w3.org/1999/xlink">
<g id="graph0" class="graph" transform="scale(1 1) rotate(0) translate(4 169)">
<title>include/llvm/Transforms/Utils/SizeOpts.h</title>
<!-- Node1 -->
<g id="node1" class="node">
<title>Node1</title>
<g id="a_node1"><a xlink:title=" ">
<polygon fill="#bfbfbf" stroke="black" points="1808,-134.5 1808,-164.5 1942,-164.5 1942,-134.5 1808,-134.5"/>
<text text-anchor="start" x="1816" y="-152.5" font-family="Helvetica,sans-Serif" font-size="10.00">include/llvm/Transforms</text>
<text text-anchor="middle" x="1875" y="-141.5" font-family="Helvetica,sans-Serif" font-size="10.00">/Utils/SizeOpts.h</text>
</a>
</g>
</g>
<!-- Node2 -->
<g id="node2" class="node">
<title>Node2</title>
<g id="a_node2"><a xlink:href="MachineSizeOpts_8h.html" target="_top" xlink:title=" ">
<polygon fill="none" stroke="black" points="732,-67.5 732,-97.5 856,-97.5 856,-67.5 732,-67.5"/>
<text text-anchor="start" x="740" y="-85.5" font-family="Helvetica,sans-Serif" font-size="10.00">include/llvm/CodeGen</text>
<text text-anchor="middle" x="794" y="-74.5" font-family="Helvetica,sans-Serif" font-size="10.00">/MachineSizeOpts.h</text>
</a>
</g>
</g>
<!-- Node1&#45;&gt;Node2 -->
<g id="edge1" class="edge">
<title>Node1&#45;&gt;Node2</title>
<path fill="none" stroke="midnightblue" d="M1797.93,-148.54C1628.63,-147.78 1211.8,-141.23 866,-98 862.84,-97.6 859.6,-97.15 856.35,-96.65"/>
<polygon fill="midnightblue" stroke="midnightblue" points="1797.98,-152.04 1807.99,-148.58 1798.01,-145.04 1797.98,-152.04"/>
</g>
<!-- Node4 -->
<g id="node4" class="node">
<title>Node4</title>
<g id="a_node4"><a xlink:href="CodeGen_2GlobalISel_2Utils_8cpp.html" target="_top" xlink:title=" ">
<polygon fill="none" stroke="black" points="0,-0.5 0,-30.5 128,-30.5 128,-0.5 0,-0.5"/>
<text text-anchor="start" x="8" y="-18.5" font-family="Helvetica,sans-Serif" font-size="10.00">lib/CodeGen/GlobalISel</text>
<text text-anchor="middle" x="64" y="-7.5" font-family="Helvetica,sans-Serif" font-size="10.00">/Utils.cpp</text>
</a>
</g>
</g>
<!-- Node1&#45;&gt;Node4 -->
<g id="edge14" class="edge">
<title>Node1&#45;&gt;Node4</title>
<path fill="none" stroke="midnightblue" d="M1797.49,-146.98C1611.77,-142.91 1126.73,-129.89 723,-98 461.67,-77.36 396,-71.46 137,-31 134.06,-30.54 131.07,-30.05 128.04,-29.53"/>
<polygon fill="midnightblue" stroke="midnightblue" points="1797.63,-150.48 1807.7,-147.2 1797.78,-143.48 1797.63,-150.48"/>
</g>
<!-- Node13 -->
<g id="node13" class="node">
<title>Node13</title>
<g id="a_node13"><a xlink:href="CodeGenPrepare_8cpp.html" target="_top" xlink:title=" ">
<polygon fill="none" stroke="black" points="874.5,-73 874.5,-92 1055.5,-92 1055.5,-73 874.5,-73"/>
<text text-anchor="middle" x="965" y="-80" font-family="Helvetica,sans-Serif" font-size="10.00">lib/CodeGen/CodeGenPrepare.cpp</text>
</a>
</g>
</g>
<!-- Node1&#45;&gt;Node13 -->
<g id="edge12" class="edge">
<title>Node1&#45;&gt;Node13</title>
<path fill="none" stroke="midnightblue" d="M1797.83,-145.79C1653.59,-140.26 1333.43,-125.78 1065,-98 1049.73,-96.42 1033.22,-94.23 1018.09,-92.02"/>
<polygon fill="midnightblue" stroke="midnightblue" points="1797.78,-149.29 1807.91,-146.17 1798.05,-142.3 1797.78,-149.29"/>
</g>
<!-- Node14 -->
<g id="node14" class="node">
<title>Node14</title>
<g id="a_node14"><a xlink:href="ExpandMemCmp_8cpp.html" target="_top" xlink:title=" ">
<polygon fill="none" stroke="black" points="1074,-73 1074,-92 1256,-92 1256,-73 1074,-73"/>
<text text-anchor="middle" x="1165" y="-80" font-family="Helvetica,sans-Serif" font-size="10.00">lib/CodeGen/ExpandMemCmp.cpp</text>
</a>
</g>
</g>
<!-- Node1&#45;&gt;Node14 -->
<g id="edge13" class="edge">
<title>Node1&#45;&gt;Node14</title>
<path fill="none" stroke="midnightblue" d="M1797.42,-143.61C1681.4,-135.95 1455.89,-119.72 1265,-98 1250.18,-96.31 1234.18,-94.15 1219.42,-92.01"/>
<polygon fill="midnightblue" stroke="midnightblue" points="1797.41,-147.12 1807.62,-144.28 1797.87,-140.13 1797.41,-147.12"/>
</g>
<!-- Node15 -->
<g id="node15" class="node">
<title>Node15</title>
<g id="a_node15"><a xlink:href="SelectionDAG_8cpp.html" target="_top" xlink:title=" ">
<polygon fill="none" stroke="black" points="1274,-67.5 1274,-97.5 1420,-97.5 1420,-67.5 1274,-67.5"/>
<text text-anchor="start" x="1282" y="-85.5" font-family="Helvetica,sans-Serif" font-size="10.00">lib/CodeGen/SelectionDAG</text>
<text text-anchor="middle" x="1347" y="-74.5" font-family="Helvetica,sans-Serif" font-size="10.00">/SelectionDAG.cpp</text>
</a>
</g>
</g>
<!-- Node1&#45;&gt;Node15 -->
<g id="edge15" class="edge">
<title>Node1&#45;&gt;Node15</title>
<path fill="none" stroke="midnightblue" d="M1797.74,-141.15C1708.84,-132.37 1558.57,-116.51 1430,-98 1426.81,-97.54 1423.56,-97.05 1420.28,-96.55"/>
<polygon fill="midnightblue" stroke="midnightblue" points="1797.45,-144.64 1807.74,-142.14 1798.13,-137.67 1797.45,-144.64"/>
</g>
<!-- Node16 -->
<g id="node16" class="node">
<title>Node16</title>
<g id="a_node16"><a xlink:href="SelectOptimize_8cpp.html" target="_top" xlink:title=" ">
<polygon fill="none" stroke="black" points="1438.5,-73 1438.5,-92 1611.5,-92 1611.5,-73 1438.5,-73"/>
<text text-anchor="middle" x="1525" y="-80" font-family="Helvetica,sans-Serif" font-size="10.00">lib/CodeGen/SelectOptimize.cpp</text>
</a>
</g>
</g>
<!-- Node1&#45;&gt;Node16 -->
<g id="edge16" class="edge">
<title>Node1&#45;&gt;Node16</title>
<path fill="none" stroke="midnightblue" d="M1797.91,-134.18C1728.44,-121.28 1628.61,-102.74 1570.93,-92.03"/>
<polygon fill="midnightblue" stroke="midnightblue" points="1797.46,-137.66 1807.93,-136.04 1798.74,-130.78 1797.46,-137.66"/>
</g>
<!-- Node17 -->
<g id="node17" class="node">
<title>Node17</title>
<g id="a_node17"><a xlink:href="TargetLoweringBase_8cpp.html" target="_top" xlink:title=" ">
<polygon fill="none" stroke="black" points="1629.5,-67.5 1629.5,-97.5 1782.5,-97.5 1782.5,-67.5 1629.5,-67.5"/>
<text text-anchor="start" x="1637.5" y="-85.5" font-family="Helvetica,sans-Serif" font-size="10.00">lib/CodeGen/TargetLowering</text>
<text text-anchor="middle" x="1706" y="-74.5" font-family="Helvetica,sans-Serif" font-size="10.00">Base.cpp</text>
</a>
</g>
</g>
<!-- Node1&#45;&gt;Node17 -->
<g id="edge17" class="edge">
<title>Node1&#45;&gt;Node17</title>
<path fill="none" stroke="midnightblue" d="M1828.67,-130.68C1801.57,-120.26 1767.83,-107.28 1742.6,-97.58"/>
<polygon fill="midnightblue" stroke="midnightblue" points="1827.74,-134.07 1838.33,-134.4 1830.25,-127.54 1827.74,-134.07"/>
</g>
<!-- Node18 -->
<g id="node18" class="node">
<title>Node18</title>
<g id="a_node18"><a xlink:href="FunctionSpecialization_8cpp.html" target="_top" xlink:title=" ">
<polygon fill="none" stroke="black" points="1800.5,-67.5 1800.5,-97.5 1949.5,-97.5 1949.5,-67.5 1800.5,-67.5"/>
<text text-anchor="start" x="1808.5" y="-85.5" font-family="Helvetica,sans-Serif" font-size="10.00">lib/Transforms/IPO</text>
<text text-anchor="middle" x="1875" y="-74.5" font-family="Helvetica,sans-Serif" font-size="10.00">/FunctionSpecialization.cpp</text>
</a>
</g>
</g>
<!-- Node1&#45;&gt;Node18 -->
<g id="edge18" class="edge">
<title>Node1&#45;&gt;Node18</title>
<path fill="none" stroke="midnightblue" d="M1875,-124.11C1875,-115.15 1875,-105.32 1875,-97.58"/>
<polygon fill="midnightblue" stroke="midnightblue" points="1871.5,-124.4 1875,-134.4 1878.5,-124.4 1871.5,-124.4"/>
</g>
<!-- Node19 -->
<g id="node19" class="node">
<title>Node19</title>
<g id="a_node19"><a xlink:href="ConstantHoisting_8cpp.html" target="_top" xlink:title=" ">
<polygon fill="none" stroke="black" points="1967,-67.5 1967,-97.5 2091,-97.5 2091,-67.5 1967,-67.5"/>
<text text-anchor="start" x="1975" y="-85.5" font-family="Helvetica,sans-Serif" font-size="10.00">lib/Transforms/Scalar</text>
<text text-anchor="middle" x="2029" y="-74.5" font-family="Helvetica,sans-Serif" font-size="10.00">/ConstantHoisting.cpp</text>
</a>
</g>
</g>
<!-- Node1&#45;&gt;Node19 -->
<g id="edge19" class="edge">
<title>Node1&#45;&gt;Node19</title>
<path fill="none" stroke="midnightblue" d="M1917.87,-130.41C1942.45,-120.03 1972.86,-107.2 1995.65,-97.58"/>
<polygon fill="midnightblue" stroke="midnightblue" points="1916.27,-127.28 1908.42,-134.4 1918.99,-133.73 1916.27,-127.28"/>
</g>
<!-- Node20 -->
<g id="node20" class="node">
<title>Node20</title>
<g id="a_node20"><a xlink:href="LoopLoadElimination_8cpp.html" target="_top" xlink:title=" ">
<polygon fill="none" stroke="black" points="2109,-67.5 2109,-97.5 2251,-97.5 2251,-67.5 2109,-67.5"/>
<text text-anchor="start" x="2117" y="-85.5" font-family="Helvetica,sans-Serif" font-size="10.00">lib/Transforms/Scalar</text>
<text text-anchor="middle" x="2180" y="-74.5" font-family="Helvetica,sans-Serif" font-size="10.00">/LoopLoadElimination.cpp</text>
</a>
</g>
</g>
<!-- Node1&#45;&gt;Node20 -->
<g id="edge20" class="edge">
<title>Node1&#45;&gt;Node20</title>
<path fill="none" stroke="midnightblue" d="M1950.63,-132.38C2000.8,-121.69 2065.99,-107.8 2114.05,-97.55"/>
<polygon fill="midnightblue" stroke="midnightblue" points="1949.86,-128.97 1940.8,-134.48 1951.31,-135.81 1949.86,-128.97"/>
</g>
<!-- Node21 -->
<g id="node21" class="node">
<title>Node21</title>
<g id="a_node21"><a xlink:href="LoopUnrollPass_8cpp.html" target="_top" xlink:title=" ">
<polygon fill="none" stroke="black" points="2269.5,-67.5 2269.5,-97.5 2388.5,-97.5 2388.5,-67.5 2269.5,-67.5"/>
<text text-anchor="start" x="2277.5" y="-85.5" font-family="Helvetica,sans-Serif" font-size="10.00">lib/Transforms/Scalar</text>
<text text-anchor="middle" x="2329" y="-74.5" font-family="Helvetica,sans-Serif" font-size="10.00">/LoopUnrollPass.cpp</text>
</a>
</g>
</g>
<!-- Node1&#45;&gt;Node21 -->
<g id="edge21" class="edge">
<title>Node1&#45;&gt;Node21</title>
<path fill="none" stroke="midnightblue" d="M1952.22,-140.14C2030.14,-131.28 2153.79,-116.1 2260,-98 2263.02,-97.49 2266.1,-96.93 2269.21,-96.36"/>
<polygon fill="midnightblue" stroke="midnightblue" points="1951.55,-136.69 1942,-141.29 1952.33,-143.64 1951.55,-136.69"/>
</g>
<!-- Node22 -->
<g id="node22" class="node">
<title>Node22</title>
<g id="a_node22"><a xlink:href="SimplifyLibCalls_8cpp.html" target="_top" xlink:title=" ">
<polygon fill="none" stroke="black" points="2407,-67.5 2407,-97.5 2525,-97.5 2525,-67.5 2407,-67.5"/>
<text text-anchor="start" x="2415" y="-85.5" font-family="Helvetica,sans-Serif" font-size="10.00">lib/Transforms/Utils</text>
<text text-anchor="middle" x="2466" y="-74.5" font-family="Helvetica,sans-Serif" font-size="10.00">/SimplifyLibCalls.cpp</text>
</a>
</g>
</g>
<!-- Node1&#45;&gt;Node22 -->
<g id="edge22" class="edge">
<title>Node1&#45;&gt;Node22</title>
<path fill="none" stroke="midnightblue" d="M1952.43,-143.79C2054.82,-136.93 2240.68,-122.29 2398,-98 2400.86,-97.56 2403.79,-97.07 2406.74,-96.55"/>
<polygon fill="midnightblue" stroke="midnightblue" points="1951.92,-140.32 1942.18,-144.47 1952.39,-147.3 1951.92,-140.32"/>
</g>
<!-- Node23 -->
<g id="node23" class="node">
<title>Node23</title>
<g id="a_node23"><a xlink:href="SizeOpts_8cpp.html" target="_top" xlink:title=" ">
<polygon fill="none" stroke="black" points="2543.5,-67.5 2543.5,-97.5 2654.5,-97.5 2654.5,-67.5 2543.5,-67.5"/>
<text text-anchor="start" x="2551.5" y="-85.5" font-family="Helvetica,sans-Serif" font-size="10.00">lib/Transforms/Utils</text>
<text text-anchor="middle" x="2599" y="-74.5" font-family="Helvetica,sans-Serif" font-size="10.00">/SizeOpts.cpp</text>
</a>
</g>
</g>
<!-- Node1&#45;&gt;Node23 -->
<g id="edge23" class="edge">
<title>Node1&#45;&gt;Node23</title>
<path fill="none" stroke="midnightblue" d="M1952.36,-146.16C2075.89,-141.61 2325.09,-129.14 2534,-98 2537.09,-97.54 2540.25,-97.02 2543.43,-96.45"/>
<polygon fill="midnightblue" stroke="midnightblue" points="1952.11,-142.66 1942.24,-146.52 1952.36,-149.66 1952.11,-142.66"/>
</g>
<!-- Node24 -->
<g id="node24" class="node">
<title>Node24</title>
<g id="a_node24"><a xlink:href="LoopVectorizationLegality_8cpp.html" target="_top" xlink:title=" ">
<polygon fill="none" stroke="black" points="2673,-67.5 2673,-97.5 2837,-97.5 2837,-67.5 2673,-67.5"/>
<text text-anchor="start" x="2681" y="-85.5" font-family="Helvetica,sans-Serif" font-size="10.00">lib/Transforms/Vectorize</text>
<text text-anchor="middle" x="2755" y="-74.5" font-family="Helvetica,sans-Serif" font-size="10.00">/LoopVectorizationLegality.cpp</text>
</a>
</g>
</g>
<!-- Node1&#45;&gt;Node24 -->
<g id="edge24" class="edge">
<title>Node1&#45;&gt;Node24</title>
<path fill="none" stroke="midnightblue" d="M1952.52,-145.96C2094.17,-140.78 2404.15,-126.95 2664,-98 2666.86,-97.68 2669.77,-97.34 2672.71,-96.97"/>
<polygon fill="midnightblue" stroke="midnightblue" points="1952.08,-142.47 1942.21,-146.33 1952.33,-149.47 1952.08,-142.47"/>
</g>
<!-- Node25 -->
<g id="node25" class="node">
<title>Node25</title>
<g id="a_node25"><a xlink:href="LoopVectorize_8cpp.html" target="_top" xlink:title=" ">
<polygon fill="none" stroke="black" points="2855,-67.5 2855,-97.5 2989,-97.5 2989,-67.5 2855,-67.5"/>
<text text-anchor="start" x="2863" y="-85.5" font-family="Helvetica,sans-Serif" font-size="10.00">lib/Transforms/Vectorize</text>
<text text-anchor="middle" x="2922" y="-74.5" font-family="Helvetica,sans-Serif" font-size="10.00">/LoopVectorize.cpp</text>
</a>
</g>
</g>
<!-- Node1&#45;&gt;Node25 -->
<g id="edge25" class="edge">
<title>Node1&#45;&gt;Node25</title>
<path fill="none" stroke="midnightblue" d="M1952.12,-148.06C2116.84,-146.33 2515.04,-137.99 2846,-98 2848.93,-97.65 2851.92,-97.24 2854.94,-96.81"/>
<polygon fill="midnightblue" stroke="midnightblue" points="1952.04,-144.56 1942.08,-148.16 1952.11,-151.56 1952.04,-144.56"/>
</g>
<!-- Node3 -->
<g id="node3" class="node">
<title>Node3</title>
<g id="a_node3"><a xlink:href="BranchFolding_8cpp.html" target="_top" xlink:title=" ">
<polygon fill="none" stroke="black" points="146,-6 146,-25 314,-25 314,-6 146,-6"/>
<text text-anchor="middle" x="230" y="-13" font-family="Helvetica,sans-Serif" font-size="10.00">lib/CodeGen/BranchFolding.cpp</text>
</a>
</g>
</g>
<!-- Node2&#45;&gt;Node3 -->
<g id="edge2" class="edge">
<title>Node2&#45;&gt;Node3</title>
<path fill="none" stroke="midnightblue" d="M721.85,-74.79C629.49,-65.96 464.59,-49.39 324,-31 310.57,-29.24 296.1,-27.13 282.64,-25.06"/>
<polygon fill="midnightblue" stroke="midnightblue" points="721.64,-78.28 731.93,-75.75 722.3,-71.32 721.64,-78.28"/>
</g>
<!-- Node2&#45;&gt;Node4 -->
<g id="edge3" class="edge">
<title>Node2&#45;&gt;Node4</title>
<path fill="none" stroke="midnightblue" d="M721.41,-78.75C599.97,-73.53 348.17,-59.98 137,-31 134.06,-30.6 131.05,-30.15 128.02,-29.67"/>
<polygon fill="midnightblue" stroke="midnightblue" points="721.55,-82.26 731.69,-79.19 721.85,-75.27 721.55,-82.26"/>
</g>
<!-- Node5 -->
<g id="node5" class="node">
<title>Node5</title>
<g id="a_node5"><a xlink:href="MachineBlockPlacement_8cpp.html" target="_top" xlink:title=" ">
<polygon fill="none" stroke="black" points="332.5,-0.5 332.5,-30.5 479.5,-30.5 479.5,-0.5 332.5,-0.5"/>
<text text-anchor="start" x="340.5" y="-18.5" font-family="Helvetica,sans-Serif" font-size="10.00">lib/CodeGen/MachineBlock</text>
<text text-anchor="middle" x="406" y="-7.5" font-family="Helvetica,sans-Serif" font-size="10.00">Placement.cpp</text>
</a>
</g>
</g>
<!-- Node2&#45;&gt;Node5 -->
<g id="edge4" class="edge">
<title>Node2&#45;&gt;Node5</title>
<path fill="none" stroke="midnightblue" d="M721.72,-69.72C659.9,-59.6 568.57,-44.54 489,-31 485.97,-30.48 482.88,-29.96 479.76,-29.42"/>
<polygon fill="midnightblue" stroke="midnightblue" points="721.33,-73.2 731.76,-71.36 722.46,-66.29 721.33,-73.2"/>
</g>
<!-- Node6 -->
<g id="node6" class="node">
<title>Node6</title>
<g id="a_node6"><a xlink:href="MachineCombiner_8cpp.html" target="_top" xlink:title=" ">
<polygon fill="none" stroke="black" points="497.5,-6 497.5,-25 684.5,-25 684.5,-6 497.5,-6"/>
<text text-anchor="middle" x="591" y="-13" font-family="Helvetica,sans-Serif" font-size="10.00">lib/CodeGen/MachineCombiner.cpp</text>
</a>
</g>
</g>
<!-- Node2&#45;&gt;Node6 -->
<g id="edge5" class="edge">
<title>Node2&#45;&gt;Node6</title>
<path fill="none" stroke="midnightblue" d="M740.19,-64.27C700.63,-51.6 648.57,-34.93 617.57,-25.01"/>
<polygon fill="midnightblue" stroke="midnightblue" points="739.36,-67.68 749.95,-67.4 741.5,-61.01 739.36,-67.68"/>
</g>
<!-- Node7 -->
<g id="node7" class="node">
<title>Node7</title>
<g id="a_node7"><a xlink:href="MachineSizeOpts_8cpp.html" target="_top" xlink:title=" ">
<polygon fill="none" stroke="black" points="702.5,-6 702.5,-25 885.5,-25 885.5,-6 702.5,-6"/>
<text text-anchor="middle" x="794" y="-13" font-family="Helvetica,sans-Serif" font-size="10.00">lib/CodeGen/MachineSizeOpts.cpp</text>
</a>
</g>
</g>
<!-- Node2&#45;&gt;Node7 -->
<g id="edge6" class="edge">
<title>Node2&#45;&gt;Node7</title>
<path fill="none" stroke="midnightblue" d="M794,-57.25C794,-46.02 794,-33.38 794,-25.19"/>
<polygon fill="midnightblue" stroke="midnightblue" points="790.5,-57.4 794,-67.4 797.5,-57.4 790.5,-57.4"/>
</g>
<!-- Node8 -->
<g id="node8" class="node">
<title>Node8</title>
<g id="a_node8"><a xlink:href="TailDuplicator_8cpp.html" target="_top" xlink:title=" ">
<polygon fill="none" stroke="black" points="903.5,-6 903.5,-25 1068.5,-25 1068.5,-6 903.5,-6"/>
<text text-anchor="middle" x="986" y="-13" font-family="Helvetica,sans-Serif" font-size="10.00">lib/CodeGen/TailDuplicator.cpp</text>
</a>
</g>
</g>
<!-- Node2&#45;&gt;Node8 -->
<g id="edge7" class="edge">
<title>Node2&#45;&gt;Node8</title>
<path fill="none" stroke="midnightblue" d="M845.37,-64.11C882.73,-51.46 931.67,-34.89 960.87,-25.01"/>
<polygon fill="midnightblue" stroke="midnightblue" points="844.01,-60.87 835.66,-67.4 846.26,-67.5 844.01,-60.87"/>
</g>
<!-- Node9 -->
<g id="node9" class="node">
<title>Node9</title>
<g id="a_node9"><a xlink:href="X86FixupBWInsts_8cpp.html" target="_top" xlink:title=" ">
<polygon fill="none" stroke="black" points="1086.5,-6 1086.5,-25 1277.5,-25 1277.5,-6 1086.5,-6"/>
<text text-anchor="middle" x="1182" y="-13" font-family="Helvetica,sans-Serif" font-size="10.00">lib/Target/X86/X86FixupBWInsts.cpp</text>
</a>
</g>
</g>
<!-- Node2&#45;&gt;Node9 -->
<g id="edge8" class="edge">
<title>Node2&#45;&gt;Node9</title>
<path fill="none" stroke="midnightblue" d="M865.69,-67.06C865.8,-67.04 865.9,-67.02 866,-67 955.94,-50.76 1060.77,-34.54 1124.22,-25.02"/>
<polygon fill="midnightblue" stroke="midnightblue" points="865.22,-63.58 856.02,-68.84 866.49,-70.47 865.22,-63.58"/>
</g>
<!-- Node10 -->
<g id="node10" class="node">
<title>Node10</title>
<g id="a_node10"><a xlink:href="X86FixupLEAs_8cpp.html" target="_top" xlink:title=" ">
<polygon fill="none" stroke="black" points="1295.5,-6 1295.5,-25 1470.5,-25 1470.5,-6 1295.5,-6"/>
<text text-anchor="middle" x="1383" y="-13" font-family="Helvetica,sans-Serif" font-size="10.00">lib/Target/X86/X86FixupLEAs.cpp</text>
</a>
</g>
</g>
<!-- Node2&#45;&gt;Node10 -->
<g id="edge9" class="edge">
<title>Node2&#45;&gt;Node10</title>
<path fill="none" stroke="midnightblue" d="M866.54,-67.05C1053.65,-40.85 1103.78,-52.65 1287,-31 1301.23,-29.32 1316.59,-27.16 1330.77,-25.02"/>
<polygon fill="midnightblue" stroke="midnightblue" points="865.78,-63.62 856.37,-68.49 866.76,-70.55 865.78,-63.62"/>
</g>
<!-- Node11 -->
<g id="node11" class="node">
<title>Node11</title>
<g id="a_node11"><a xlink:href="X86OptimizeLEAs_8cpp.html" target="_top" xlink:title=" ">
<polygon fill="none" stroke="black" points="1488.5,-0.5 1488.5,-30.5 1637.5,-30.5 1637.5,-0.5 1488.5,-0.5"/>
<text text-anchor="start" x="1496.5" y="-18.5" font-family="Helvetica,sans-Serif" font-size="10.00">lib/Target/X86/X86Optimize</text>
<text text-anchor="middle" x="1563" y="-7.5" font-family="Helvetica,sans-Serif" font-size="10.00">LEAs.cpp</text>
</a>
</g>
</g>
<!-- Node2&#45;&gt;Node11 -->
<g id="edge10" class="edge">
<title>Node2&#45;&gt;Node11</title>
<path fill="none" stroke="midnightblue" d="M866.54,-67.08C1138.87,-32.67 1211.79,-62.19 1480,-31 1482.76,-30.68 1485.57,-30.33 1488.4,-29.95"/>
<polygon fill="midnightblue" stroke="midnightblue" points="865.83,-63.64 856.35,-68.39 866.72,-70.59 865.83,-63.64"/>
</g>
<!-- Node12 -->
<g id="node12" class="node">
<title>Node12</title>
<g id="a_node12"><a xlink:href="X86PadShortFunction_8cpp.html" target="_top" xlink:title=" ">
<polygon fill="none" stroke="black" points="1656,-0.5 1656,-30.5 1804,-30.5 1804,-0.5 1656,-0.5"/>
<text text-anchor="start" x="1664" y="-18.5" font-family="Helvetica,sans-Serif" font-size="10.00">lib/Target/X86/X86PadShort</text>
<text text-anchor="middle" x="1730" y="-7.5" font-family="Helvetica,sans-Serif" font-size="10.00">Function.cpp</text>
</a>
</g>
</g>
<!-- Node2&#45;&gt;Node12 -->
<g id="edge11" class="edge">
<title>Node2&#45;&gt;Node12</title>
<path fill="none" stroke="midnightblue" d="M866.4,-67.11C1212.63,-25.41 1304.89,-68.61 1647,-31 1649.91,-30.68 1652.87,-30.32 1655.85,-29.93"/>
<polygon fill="midnightblue" stroke="midnightblue" points="865.85,-63.65 856.35,-68.34 866.7,-70.6 865.85,-63.65"/>
</g>
</g>
</svg>
