<?xml version="1.0" encoding="UTF-8" standalone="no"?>
<!DOCTYPE svg PUBLIC "-//W3C//DTD SVG 1.1//EN"
 "http://www.w3.org/Graphics/SVG/1.1/DTD/svg11.dtd">
<!-- Generated by graphviz version 2.43.0 (0)
 -->
<!-- Title: lib/CodeGen/StackSlotColoring.cpp Pages: 1 -->
<svg width="4136pt" height="699pt"
 viewBox="0.00 0.00 4136.06 699.00" xmlns="http://www.w3.org/2000/svg" xmlns:xlink="http://www.w3.org/1999/xlink">
<g id="graph0" class="graph" transform="scale(1 1) rotate(0) translate(4 695)">
<title>lib/CodeGen/StackSlotColoring.cpp</title>
<!-- Node1 -->
<g id="node1" class="node">
<title>Node1</title>
<g id="a_node1"><a xlink:title=" ">
<polygon fill="#bfbfbf" stroke="black" points="2161.56,-671.5 2161.56,-690.5 2346.56,-690.5 2346.56,-671.5 2161.56,-671.5"/>
<text text-anchor="middle" x="2254.06" y="-678.5" font-family="Helvetica,sans-Serif" font-size="10.00">lib/CodeGen/StackSlotColoring.cpp</text>
</a>
</g>
</g>
<!-- Node2 -->
<g id="node2" class="node">
<title>Node2</title>
<g id="a_node2"><a xlink:href="BitVector_8h.html" target="_top" xlink:title=" ">
<polygon fill="none" stroke="black" points="2221.56,-308 2221.56,-327 2338.56,-327 2338.56,-308 2221.56,-308"/>
<text text-anchor="middle" x="2280.06" y="-315" font-family="Helvetica,sans-Serif" font-size="10.00">llvm/ADT/BitVector.h</text>
</a>
</g>
</g>
<!-- Node1&#45;&gt;Node2 -->
<g id="edge1" class="edge">
<title>Node1&#45;&gt;Node2</title>
<path fill="none" stroke="midnightblue" d="M2208.87,-671.5C2157.91,-658.99 2082.06,-630.26 2082.06,-570 2082.06,-570 2082.06,-570 2082.06,-439.5 2082.06,-374.66 2160.31,-343.53 2218.43,-329.34"/>
<polygon fill="midnightblue" stroke="midnightblue" points="2219.35,-332.72 2228.29,-327.05 2217.76,-325.9 2219.35,-332.72"/>
</g>
<!-- Node27 -->
<g id="node4" class="node">
<title>Node27</title>
<g id="a_node4"><a xlink:href="SmallVector_8h.html" target="_top" xlink:title=" ">
<polygon fill="none" stroke="black" points="1246.56,-179.5 1246.56,-198.5 1377.56,-198.5 1377.56,-179.5 1246.56,-179.5"/>
<text text-anchor="middle" x="1312.06" y="-186.5" font-family="Helvetica,sans-Serif" font-size="10.00">llvm/ADT/SmallVector.h</text>
</a>
</g>
</g>
<!-- Node1&#45;&gt;Node27 -->
<g id="edge54" class="edge">
<title>Node1&#45;&gt;Node27</title>
<path fill="none" stroke="midnightblue" d="M2161.55,-676.79C1869.93,-666.09 989.06,-628.87 989.06,-570 989.06,-570 989.06,-570 989.06,-378 989.06,-251.36 1150.18,-342.56 1251.06,-266 1272.46,-249.75 1290.79,-224.41 1301.62,-207.52"/>
<polygon fill="midnightblue" stroke="midnightblue" points="1304.8,-209.02 1307.09,-198.67 1298.85,-205.33 1304.8,-209.02"/>
</g>
<!-- Node21 -->
<g id="node10" class="node">
<title>Node21</title>
<g id="a_node10"><a xlink:title=" ">
<polygon fill="none" stroke="#bfbfbf" points="1754.06,-118 1754.06,-137 1818.06,-137 1818.06,-118 1754.06,-118"/>
<text text-anchor="middle" x="1786.06" y="-125" font-family="Helvetica,sans-Serif" font-size="10.00">algorithm</text>
</a>
</g>
</g>
<!-- Node1&#45;&gt;Node21 -->
<g id="edge193" class="edge">
<title>Node1&#45;&gt;Node21</title>
<path fill="none" stroke="midnightblue" d="M2192.1,-671.48C2097.93,-657.19 1925.53,-625.34 1886.06,-579 1857.09,-545 1802.69,-228.3 1789.16,-147.3"/>
<polygon fill="midnightblue" stroke="midnightblue" points="1792.57,-146.41 1787.47,-137.12 1785.66,-147.56 1792.57,-146.41"/>
</g>
<!-- Node22 -->
<g id="node11" class="node">
<title>Node22</title>
<g id="a_node11"><a xlink:title=" ">
<polygon fill="none" stroke="#bfbfbf" points="2309.06,-56.5 2309.06,-75.5 2361.06,-75.5 2361.06,-56.5 2309.06,-56.5"/>
<text text-anchor="middle" x="2335.06" y="-63.5" font-family="Helvetica,sans-Serif" font-size="10.00">cassert</text>
</a>
</g>
</g>
<!-- Node1&#45;&gt;Node22 -->
<g id="edge194" class="edge">
<title>Node1&#45;&gt;Node22</title>
<path fill="none" stroke="midnightblue" d="M2161.5,-675.8C2072.28,-670.41 1944.58,-658.76 1901.06,-635 1724.82,-538.79 1799.91,-403.72 1691.06,-235 1655.17,-179.37 1561.72,-160.23 1607.06,-112 1630.99,-86.54 2154.86,-71.53 2298.77,-67.88"/>
<polygon fill="midnightblue" stroke="midnightblue" points="2298.93,-71.37 2308.84,-67.62 2298.76,-64.38 2298.93,-71.37"/>
</g>
<!-- Node31 -->
<g id="node17" class="node">
<title>Node31</title>
<g id="a_node17"><a xlink:title=" ">
<polygon fill="none" stroke="#bfbfbf" points="1682.56,-118 1682.56,-137 1735.56,-137 1735.56,-118 1682.56,-118"/>
<text text-anchor="middle" x="1709.06" y="-125" font-family="Helvetica,sans-Serif" font-size="10.00">iterator</text>
</a>
</g>
</g>
<!-- Node1&#45;&gt;Node31 -->
<g id="edge196" class="edge">
<title>Node1&#45;&gt;Node31</title>
<path fill="none" stroke="midnightblue" d="M2161.52,-679.11C2097.82,-675.55 2012.48,-664.82 1943.06,-635 1906.13,-619.14 1895.57,-611.59 1872.06,-579 1766.69,-432.97 1722.96,-211.73 1711.98,-146.94"/>
<polygon fill="midnightblue" stroke="midnightblue" points="1715.42,-146.31 1710.35,-137.01 1708.51,-147.44 1715.42,-146.31"/>
</g>
<!-- Node45 -->
<g id="node21" class="node">
<title>Node45</title>
<g id="a_node21"><a xlink:title=" ">
<polygon fill="none" stroke="#bfbfbf" points="652.56,-179.5 652.56,-198.5 699.56,-198.5 699.56,-179.5 652.56,-179.5"/>
<text text-anchor="middle" x="676.06" y="-186.5" font-family="Helvetica,sans-Serif" font-size="10.00">vector</text>
</a>
</g>
</g>
<!-- Node1&#45;&gt;Node45 -->
<g id="edge197" class="edge">
<title>Node1&#45;&gt;Node45</title>
<path fill="none" stroke="midnightblue" d="M2161.53,-679.61C1873.82,-678.01 997.28,-670.32 715.06,-635 583.56,-618.54 424.06,-702.52 424.06,-570 424.06,-570 424.06,-570 424.06,-439.5 424.06,-315.98 578.84,-232.82 645.79,-202.63"/>
<polygon fill="midnightblue" stroke="midnightblue" points="647.27,-205.8 655.01,-198.56 644.44,-199.4 647.27,-205.8"/>
</g>
<!-- Node16 -->
<g id="node23" class="node">
<title>Node16</title>
<g id="a_node23"><a xlink:title=" ">
<polygon fill="none" stroke="#bfbfbf" points="3387.06,-56.5 3387.06,-75.5 3437.06,-75.5 3437.06,-56.5 3387.06,-56.5"/>
<text text-anchor="middle" x="3412.06" y="-63.5" font-family="Helvetica,sans-Serif" font-size="10.00">cstdint</text>
</a>
</g>
</g>
<!-- Node1&#45;&gt;Node16 -->
<g id="edge195" class="edge">
<title>Node1&#45;&gt;Node16</title>
<path fill="none" stroke="midnightblue" d="M2346.67,-678.93C2657.15,-675.12 3649.61,-661.02 3791.06,-635 3877.6,-619.08 3978.06,-657.99 3978.06,-570 3978.06,-570 3978.06,-570 3978.06,-188 3978.06,-78.89 3570.74,-67.82 3447.17,-66.98"/>
<polygon fill="midnightblue" stroke="midnightblue" points="3447.13,-63.48 3437.11,-66.93 3447.09,-70.48 3447.13,-63.48"/>
</g>
<!-- Node50 -->
<g id="node27" class="node">
<title>Node50</title>
<g id="a_node27"><a xlink:href="Statistic_8h.html" target="_top" xlink:title=" ">
<polygon fill="none" stroke="black" points="44.56,-241 44.56,-260 157.56,-260 157.56,-241 44.56,-241"/>
<text text-anchor="middle" x="101.06" y="-248" font-family="Helvetica,sans-Serif" font-size="10.00">llvm/ADT/Statistic.h</text>
</a>
</g>
</g>
<!-- Node1&#45;&gt;Node50 -->
<g id="edge55" class="edge">
<title>Node1&#45;&gt;Node50</title>
<path fill="none" stroke="midnightblue" d="M2161.43,-679.73C1775.53,-678.38 311.32,-670.9 220.06,-635 179.63,-619.1 147.06,-613.44 147.06,-570 147.06,-570 147.06,-570 147.06,-378 147.06,-336.9 125.35,-292.57 111.76,-268.84"/>
<polygon fill="midnightblue" stroke="midnightblue" points="114.63,-266.82 106.52,-260 108.61,-270.39 114.63,-266.82"/>
</g>
<!-- Node52 -->
<g id="node29" class="node">
<title>Node52</title>
<g id="a_node29"><a xlink:href="LiveInterval_8h.html" target="_top" xlink:title=" ">
<polygon fill="none" stroke="red" points="1894.56,-559.5 1894.56,-578.5 2049.56,-578.5 2049.56,-559.5 1894.56,-559.5"/>
<text text-anchor="middle" x="1972.06" y="-566.5" font-family="Helvetica,sans-Serif" font-size="10.00">llvm/CodeGen/LiveInterval.h</text>
</a>
</g>
</g>
<!-- Node1&#45;&gt;Node52 -->
<g id="edge61" class="edge">
<title>Node1&#45;&gt;Node52</title>
<path fill="none" stroke="midnightblue" d="M2196.17,-671.5C2158.56,-664.66 2109.08,-653.14 2068.06,-635 2038.5,-621.93 2008.25,-599.68 1989.81,-584.92"/>
<polygon fill="midnightblue" stroke="midnightblue" points="1991.95,-582.14 1981.99,-578.53 1987.52,-587.56 1991.95,-582.14"/>
</g>
<!-- Node56 -->
<g id="node30" class="node">
<title>Node56</title>
<g id="a_node30"><a xlink:href="SlotIndexes_8h.html" target="_top" xlink:title=" ">
<polygon fill="none" stroke="red" points="2161.06,-498 2161.06,-517 2315.06,-517 2315.06,-498 2161.06,-498"/>
<text text-anchor="middle" x="2238.06" y="-505" font-family="Helvetica,sans-Serif" font-size="10.00">llvm/CodeGen/SlotIndexes.h</text>
</a>
</g>
</g>
<!-- Node1&#45;&gt;Node56 -->
<g id="edge164" class="edge">
<title>Node1&#45;&gt;Node56</title>
<path fill="none" stroke="midnightblue" d="M2244.77,-671.39C2236.48,-663.02 2224.91,-649.48 2220.06,-635 2207.59,-597.81 2220.93,-551.64 2230.38,-526.64"/>
<polygon fill="midnightblue" stroke="midnightblue" points="2233.76,-527.62 2234.22,-517.03 2227.26,-525.02 2233.76,-527.62"/>
</g>
<!-- Node77 -->
<g id="node31" class="node">
<title>Node77</title>
<g id="a_node31"><a xlink:href="MachineBasicBlock_8h.html" target="_top" xlink:title=" ">
<polygon fill="none" stroke="red" points="2726.06,-302.5 2726.06,-332.5 2882.06,-332.5 2882.06,-302.5 2726.06,-302.5"/>
<text text-anchor="start" x="2734.06" y="-320.5" font-family="Helvetica,sans-Serif" font-size="10.00">llvm/CodeGen/MachineBasic</text>
<text text-anchor="middle" x="2804.06" y="-309.5" font-family="Helvetica,sans-Serif" font-size="10.00">Block.h</text>
</a>
</g>
</g>
<!-- Node1&#45;&gt;Node77 -->
<g id="edge147" class="edge">
<title>Node1&#45;&gt;Node77</title>
<path fill="none" stroke="midnightblue" d="M2346.88,-678.92C2620.08,-675.44 3409.22,-663.04 3522.06,-635 3586.3,-619.04 3656.06,-636.19 3656.06,-570 3656.06,-570 3656.06,-570 3656.06,-439.5 3656.06,-407.05 3662.21,-389.51 3637.06,-369 3608.54,-345.75 3100.61,-327.6 2892.19,-321.09"/>
<polygon fill="midnightblue" stroke="midnightblue" points="2892.3,-317.6 2882.2,-320.78 2892.08,-324.59 2892.3,-317.6"/>
</g>
<!-- Node84 -->
<g id="node32" class="node">
<title>Node84</title>
<g id="a_node32"><a xlink:href="MachineInstr_8h.html" target="_top" xlink:title=" ">
<polygon fill="none" stroke="red" points="2986.06,-241 2986.06,-260 3146.06,-260 3146.06,-241 2986.06,-241"/>
<text text-anchor="middle" x="3066.06" y="-248" font-family="Helvetica,sans-Serif" font-size="10.00">llvm/CodeGen/MachineInstr.h</text>
</a>
</g>
</g>
<!-- Node1&#45;&gt;Node84 -->
<g id="edge158" class="edge">
<title>Node1&#45;&gt;Node84</title>
<path fill="none" stroke="midnightblue" d="M2346.7,-678.97C2629.43,-675.54 3469.18,-663.09 3589.06,-635 3657.03,-619.07 3732.06,-639.81 3732.06,-570 3732.06,-570 3732.06,-570 3732.06,-506.5 3732.06,-437.1 3713.87,-410.25 3658.06,-369 3579.57,-310.99 3301.86,-275.19 3156.41,-259.99"/>
<polygon fill="midnightblue" stroke="midnightblue" points="3156.47,-256.48 3146.17,-258.93 3155.75,-263.44 3156.47,-256.48"/>
</g>
<!-- Node90 -->
<g id="node33" class="node">
<title>Node90</title>
<g id="a_node33"><a xlink:href="MachineMemOperand_8h.html" target="_top" xlink:title=" ">
<polygon fill="none" stroke="red" points="3554.56,-179.5 3554.56,-198.5 3759.56,-198.5 3759.56,-179.5 3554.56,-179.5"/>
<text text-anchor="middle" x="3657.06" y="-186.5" font-family="Helvetica,sans-Serif" font-size="10.00">llvm/CodeGen/MachineMemOperand.h</text>
</a>
</g>
</g>
<!-- Node1&#45;&gt;Node90 -->
<g id="edge159" class="edge">
<title>Node1&#45;&gt;Node90</title>
<path fill="none" stroke="midnightblue" d="M2346.65,-679.72C2639.83,-678.48 3535.79,-671.68 3661.06,-635 3715.19,-619.15 3770.06,-626.4 3770.06,-570 3770.06,-570 3770.06,-570 3770.06,-439.5 3770.06,-344.41 3701.11,-245.64 3670.93,-206.96"/>
<polygon fill="midnightblue" stroke="midnightblue" points="3673.44,-204.49 3664.47,-198.85 3667.96,-208.85 3673.44,-204.49"/>
</g>
<!-- Node94 -->
<g id="node34" class="node">
<title>Node94</title>
<g id="a_node34"><a xlink:href="PseudoSourceValue_8h.html" target="_top" xlink:title=" ">
<polygon fill="none" stroke="red" points="3640.56,-112.5 3640.56,-142.5 3797.56,-142.5 3797.56,-112.5 3640.56,-112.5"/>
<text text-anchor="start" x="3648.56" y="-130.5" font-family="Helvetica,sans-Serif" font-size="10.00">llvm/CodeGen/PseudoSource</text>
<text text-anchor="middle" x="3719.06" y="-119.5" font-family="Helvetica,sans-Serif" font-size="10.00">Value.h</text>
</a>
</g>
</g>
<!-- Node1&#45;&gt;Node94 -->
<g id="edge163" class="edge">
<title>Node1&#45;&gt;Node94</title>
<path fill="none" stroke="midnightblue" d="M2346.78,-679.17C2647.11,-676.2 3581.42,-664.64 3714.06,-635 3784.97,-619.15 3864.06,-642.66 3864.06,-570 3864.06,-570 3864.06,-570 3864.06,-249.5 3864.06,-198.75 3811.04,-165.13 3769.13,-146.48"/>
<polygon fill="midnightblue" stroke="midnightblue" points="3770.41,-143.22 3759.83,-142.51 3767.65,-149.66 3770.41,-143.22"/>
</g>
<!-- Node126 -->
<g id="node35" class="node">
<title>Node126</title>
<g id="a_node35"><a xlink:href="MachineOperand_8h.html" target="_top" xlink:title=" ">
<polygon fill="none" stroke="red" points="2976.06,-179.5 2976.06,-198.5 3156.06,-198.5 3156.06,-179.5 2976.06,-179.5"/>
<text text-anchor="middle" x="3066.06" y="-186.5" font-family="Helvetica,sans-Serif" font-size="10.00">llvm/CodeGen/MachineOperand.h</text>
</a>
</g>
</g>
<!-- Node1&#45;&gt;Node126 -->
<g id="edge160" class="edge">
<title>Node1&#45;&gt;Node126</title>
<path fill="none" stroke="midnightblue" d="M2346.98,-678.98C2587.9,-675.11 3214.06,-656.71 3214.06,-570 3214.06,-570 3214.06,-570 3214.06,-506.5 3214.06,-383.02 3230.6,-332.68 3155.06,-235 3143.28,-219.77 3124.95,-209.28 3107.97,-202.29"/>
<polygon fill="midnightblue" stroke="midnightblue" points="3108.79,-198.86 3098.19,-198.57 3106.29,-205.4 3108.79,-198.86"/>
</g>
<!-- Node150 -->
<g id="node36" class="node">
<title>Node150</title>
<g id="a_node36"><a xlink:href="MachineFunction_8h.html" target="_top" xlink:title=" ">
<polygon fill="none" stroke="red" points="2376.06,-369.5 2376.06,-388.5 2556.06,-388.5 2556.06,-369.5 2376.06,-369.5"/>
<text text-anchor="middle" x="2466.06" y="-376.5" font-family="Helvetica,sans-Serif" font-size="10.00">llvm/CodeGen/MachineFunction.h</text>
</a>
</g>
</g>
<!-- Node1&#45;&gt;Node150 -->
<g id="edge156" class="edge">
<title>Node1&#45;&gt;Node150</title>
<path fill="none" stroke="midnightblue" d="M2341.27,-671.46C2450.09,-658.33 2622.06,-628.35 2622.06,-570 2622.06,-570 2622.06,-570 2622.06,-506.5 2622.06,-445.79 2549.89,-409.14 2503.73,-391.91"/>
<polygon fill="midnightblue" stroke="midnightblue" points="2504.9,-388.62 2494.31,-388.53 2502.54,-395.2 2504.9,-388.62"/>
</g>
<!-- Node157 -->
<g id="node37" class="node">
<title>Node157</title>
<g id="a_node37"><a xlink:href="MachineFunctionPass_8h.html" target="_top" xlink:title=" ">
<polygon fill="none" stroke="black" points="3242.56,-425.5 3242.56,-455.5 3413.56,-455.5 3413.56,-425.5 3242.56,-425.5"/>
<text text-anchor="start" x="3250.56" y="-443.5" font-family="Helvetica,sans-Serif" font-size="10.00">llvm/CodeGen/MachineFunction</text>
<text text-anchor="middle" x="3328.06" y="-432.5" font-family="Helvetica,sans-Serif" font-size="10.00">Pass.h</text>
</a>
</g>
</g>
<!-- Node1&#45;&gt;Node157 -->
<g id="edge157" class="edge">
<title>Node1&#45;&gt;Node157</title>
<path fill="none" stroke="midnightblue" d="M2346.81,-678.21C2583.04,-673.33 3191.36,-658.52 3228.06,-635 3288.54,-596.24 3314.32,-508.45 3323.6,-465.75"/>
<polygon fill="midnightblue" stroke="midnightblue" points="3327.09,-466.18 3325.66,-455.68 3320.23,-464.77 3327.09,-466.18"/>
</g>
<!-- Node158 -->
<g id="node38" class="node">
<title>Node158</title>
<g id="a_node38"><a xlink:href="Pass_8h.html" target="_top" xlink:title=" ">
<polygon fill="none" stroke="red" points="3556.06,-369.5 3556.06,-388.5 3628.06,-388.5 3628.06,-369.5 3556.06,-369.5"/>
<text text-anchor="middle" x="3592.06" y="-376.5" font-family="Helvetica,sans-Serif" font-size="10.00">llvm/Pass.h</text>
</a>
</g>
</g>
<!-- Node1&#45;&gt;Node158 -->
<g id="edge183" class="edge">
<title>Node1&#45;&gt;Node158</title>
<path fill="none" stroke="midnightblue" d="M2346.78,-678.62C2625.92,-674.2 3442.39,-659.27 3494.06,-635 3583.66,-592.92 3592.3,-449.95 3592.43,-398.58"/>
<polygon fill="midnightblue" stroke="midnightblue" points="3595.93,-398.55 3592.35,-388.58 3588.93,-398.61 3595.93,-398.55"/>
</g>
<!-- Node166 -->
<g id="node39" class="node">
<title>Node166</title>
<g id="a_node39"><a xlink:href="LiveIntervals_8h.html" target="_top" xlink:title=" ">
<polygon fill="none" stroke="red" points="2228.56,-615.5 2228.56,-634.5 2389.56,-634.5 2389.56,-615.5 2228.56,-615.5"/>
<text text-anchor="middle" x="2309.06" y="-622.5" font-family="Helvetica,sans-Serif" font-size="10.00">llvm/CodeGen/LiveIntervals.h</text>
</a>
</g>
</g>
<!-- Node1&#45;&gt;Node166 -->
<g id="edge113" class="edge">
<title>Node1&#45;&gt;Node166</title>
<path fill="none" stroke="midnightblue" d="M2263.14,-671.08C2271.23,-663.14 2283.25,-651.34 2292.97,-641.8"/>
<polygon fill="midnightblue" stroke="midnightblue" points="2295.46,-644.25 2300.14,-634.75 2290.56,-639.26 2295.46,-644.25"/>
</g>
<!-- Node171 -->
<g id="node40" class="node">
<title>Node171</title>
<g id="a_node40"><a xlink:href="CommandLine_8h.html" target="_top" xlink:title=" ">
<polygon fill="none" stroke="red" points="1319.56,-308 1319.56,-327 1480.56,-327 1480.56,-308 1319.56,-308"/>
<text text-anchor="middle" x="1400.06" y="-315" font-family="Helvetica,sans-Serif" font-size="10.00">llvm/Support/CommandLine.h</text>
</a>
</g>
</g>
<!-- Node1&#45;&gt;Node171 -->
<g id="edge190" class="edge">
<title>Node1&#45;&gt;Node171</title>
<path fill="none" stroke="midnightblue" d="M2161.54,-680.64C1957.12,-681.26 1480.37,-678.02 1422.06,-635 1397.28,-616.72 1398.06,-600.8 1398.06,-570 1398.06,-570 1398.06,-570 1398.06,-439.5 1398.06,-403.21 1398.97,-360.8 1399.56,-337.06"/>
<polygon fill="midnightblue" stroke="midnightblue" points="1403.06,-337.09 1399.82,-327.01 1396.06,-336.91 1403.06,-337.09"/>
</g>
<!-- Node80 -->
<g id="node41" class="node">
<title>Node80</title>
<g id="a_node41"><a xlink:href="raw__ostream_8h.html" target="_top" xlink:title=" ">
<polygon fill="none" stroke="red" points="1526.56,-241 1526.56,-260 1681.56,-260 1681.56,-241 1526.56,-241"/>
<text text-anchor="middle" x="1604.06" y="-248" font-family="Helvetica,sans-Serif" font-size="10.00">llvm/Support/raw_ostream.h</text>
</a>
</g>
</g>
<!-- Node1&#45;&gt;Node80 -->
<g id="edge192" class="edge">
<title>Node1&#45;&gt;Node80</title>
<path fill="none" stroke="midnightblue" d="M2161.25,-678.11C1956.82,-673.49 1483.81,-660.14 1460.06,-635 1353.91,-522.67 1531.74,-324.7 1587.91,-267.43"/>
<polygon fill="midnightblue" stroke="midnightblue" points="1590.7,-269.59 1595.27,-260.03 1585.74,-264.66 1590.7,-269.59"/>
</g>
<!-- Node174 -->
<g id="node42" class="node">
<title>Node174</title>
<g id="a_node42"><a xlink:href="LiveStacks_8h.html" target="_top" xlink:title=" ">
<polygon fill="none" stroke="red" points="3280.06,-615.5 3280.06,-634.5 3430.06,-634.5 3430.06,-615.5 3280.06,-615.5"/>
<text text-anchor="middle" x="3355.06" y="-622.5" font-family="Helvetica,sans-Serif" font-size="10.00">llvm/CodeGen/LiveStacks.h</text>
</a>
</g>
</g>
<!-- Node1&#45;&gt;Node174 -->
<g id="edge142" class="edge">
<title>Node1&#45;&gt;Node174</title>
<path fill="none" stroke="midnightblue" d="M2346.6,-677.63C2524.76,-672.68 2927.75,-659.61 3266.06,-635 3267.18,-634.92 3268.31,-634.83 3269.45,-634.75"/>
<polygon fill="midnightblue" stroke="midnightblue" points="3270.14,-638.2 3279.82,-633.91 3269.57,-631.23 3270.14,-638.2"/>
</g>
<!-- Node175 -->
<g id="node43" class="node">
<title>Node175</title>
<g id="a_node43"><a xlink:href="InitializePasses_8h.html" target="_top" xlink:title=" ">
<polygon fill="none" stroke="black" points="3394.56,-559.5 3394.56,-578.5 3519.56,-578.5 3519.56,-559.5 3394.56,-559.5"/>
<text text-anchor="middle" x="3457.06" y="-566.5" font-family="Helvetica,sans-Serif" font-size="10.00">llvm/InitializePasses.h</text>
</a>
</g>
</g>
<!-- Node1&#45;&gt;Node175 -->
<g id="edge182" class="edge">
<title>Node1&#45;&gt;Node175</title>
<path fill="none" stroke="midnightblue" d="M2346.6,-679.44C2618.15,-677.42 3396.45,-668.71 3439.06,-635 3452.67,-624.23 3456.55,-604.14 3457.41,-589.14"/>
<polygon fill="midnightblue" stroke="midnightblue" points="3460.91,-588.95 3457.59,-578.89 3453.92,-588.83 3460.91,-588.95"/>
</g>
<!-- Node177 -->
<g id="node44" class="node">
<title>Node177</title>
<g id="a_node44"><a xlink:href="MachineBlockFrequencyInfo_8h.html" target="_top" xlink:title=" ">
<polygon fill="none" stroke="red" points="3394.56,-492.5 3394.56,-522.5 3551.56,-522.5 3551.56,-492.5 3394.56,-492.5"/>
<text text-anchor="start" x="3402.56" y="-510.5" font-family="Helvetica,sans-Serif" font-size="10.00">llvm/CodeGen/MachineBlock</text>
<text text-anchor="middle" x="3473.06" y="-499.5" font-family="Helvetica,sans-Serif" font-size="10.00">FrequencyInfo.h</text>
</a>
</g>
</g>
<!-- Node1&#45;&gt;Node177 -->
<g id="edge148" class="edge">
<title>Node1&#45;&gt;Node177</title>
<path fill="none" stroke="midnightblue" d="M2346.82,-679.87C2611.18,-679.05 3356.04,-673.31 3459.06,-635 3496.4,-621.11 3511.8,-614.91 3529.06,-579 3538.08,-560.23 3522.55,-541.91 3505.58,-528.65"/>
<polygon fill="midnightblue" stroke="midnightblue" points="3507.37,-525.63 3497.23,-522.57 3503.25,-531.28 3507.37,-525.63"/>
</g>
<!-- Node179 -->
<g id="node45" class="node">
<title>Node179</title>
<g id="a_node45"><a xlink:href="MachineFrameInfo_8h.html" target="_top" xlink:title=" ">
<polygon fill="none" stroke="red" points="870.56,-235.5 870.56,-265.5 1031.56,-265.5 1031.56,-235.5 870.56,-235.5"/>
<text text-anchor="start" x="878.56" y="-253.5" font-family="Helvetica,sans-Serif" font-size="10.00">llvm/CodeGen/MachineFrame</text>
<text text-anchor="middle" x="951.06" y="-242.5" font-family="Helvetica,sans-Serif" font-size="10.00">Info.h</text>
</a>
</g>
</g>
<!-- Node1&#45;&gt;Node179 -->
<g id="edge152" class="edge">
<title>Node1&#45;&gt;Node179</title>
<path fill="none" stroke="midnightblue" d="M2161.48,-679.55C1875.58,-677.79 1022.96,-669.65 975.06,-635 950.1,-616.95 951.06,-600.8 951.06,-570 951.06,-570 951.06,-570 951.06,-378 951.06,-342.42 951.06,-301.2 951.06,-275.74"/>
<polygon fill="midnightblue" stroke="midnightblue" points="954.56,-275.54 951.06,-265.54 947.56,-275.54 954.56,-275.54"/>
</g>
<!-- Node180 -->
<g id="node46" class="node">
<title>Node180</title>
<g id="a_node46"><a xlink:href="CodeGen_2Passes_8h.html" target="_top" xlink:title=" ">
<polygon fill="none" stroke="red" points="263.56,-559.5 263.56,-578.5 394.56,-578.5 394.56,-559.5 263.56,-559.5"/>
<text text-anchor="middle" x="329.06" y="-566.5" font-family="Helvetica,sans-Serif" font-size="10.00">llvm/CodeGen/Passes.h</text>
</a>
</g>
</g>
<!-- Node1&#45;&gt;Node180 -->
<g id="edge161" class="edge">
<title>Node1&#45;&gt;Node180</title>
<path fill="none" stroke="midnightblue" d="M2161.37,-679.38C1798.86,-676.77 492.89,-665.27 410.06,-635 382.95,-625.09 358.07,-602.16 343.23,-586.36"/>
<polygon fill="midnightblue" stroke="midnightblue" points="345.74,-583.92 336.43,-578.86 340.55,-588.62 345.74,-583.92"/>
</g>
<!-- Node191 -->
<g id="node47" class="node">
<title>Node191</title>
<g id="a_node47"><a xlink:href="TargetInstrInfo_8h.html" target="_top" xlink:title=" ">
<polygon fill="none" stroke="red" points="2821.06,-425.5 2821.06,-455.5 2961.06,-455.5 2961.06,-425.5 2821.06,-425.5"/>
<text text-anchor="start" x="2829.06" y="-443.5" font-family="Helvetica,sans-Serif" font-size="10.00">llvm/CodeGen/TargetInstr</text>
<text text-anchor="middle" x="2891.06" y="-432.5" font-family="Helvetica,sans-Serif" font-size="10.00">Info.h</text>
</a>
</g>
</g>
<!-- Node1&#45;&gt;Node191 -->
<g id="edge165" class="edge">
<title>Node1&#45;&gt;Node191</title>
<path fill="none" stroke="midnightblue" d="M2346.93,-674.67C2442.78,-668.18 2585.27,-655.47 2636.06,-635 2736.05,-594.69 2830.93,-504.35 2871.03,-462.96"/>
<polygon fill="midnightblue" stroke="midnightblue" points="2873.69,-465.24 2878.08,-455.59 2868.64,-460.39 2873.69,-465.24"/>
</g>
<!-- Node220 -->
<g id="node48" class="node">
<title>Node220</title>
<g id="a_node48"><a xlink:href="TargetSubtargetInfo_8h.html" target="_top" xlink:title=" ">
<polygon fill="none" stroke="red" points="566.06,-302.5 566.06,-332.5 732.06,-332.5 732.06,-302.5 566.06,-302.5"/>
<text text-anchor="start" x="574.06" y="-320.5" font-family="Helvetica,sans-Serif" font-size="10.00">llvm/CodeGen/TargetSubtarget</text>
<text text-anchor="middle" x="649.06" y="-309.5" font-family="Helvetica,sans-Serif" font-size="10.00">Info.h</text>
</a>
</g>
</g>
<!-- Node1&#45;&gt;Node220 -->
<g id="edge177" class="edge">
<title>Node1&#45;&gt;Node220</title>
<path fill="none" stroke="midnightblue" d="M2161.54,-679.71C1902.49,-678.44 1173.46,-671.61 937.06,-635 831.24,-618.61 705.06,-677.08 705.06,-570 705.06,-570 705.06,-570 705.06,-439.5 705.06,-402.35 683.05,-364.22 666.62,-340.94"/>
<polygon fill="midnightblue" stroke="midnightblue" points="669.39,-338.79 660.66,-332.78 663.73,-342.92 669.39,-338.79"/>
</g>
<!-- Node93 -->
<g id="node49" class="node">
<title>Node93</title>
<g id="a_node49"><a xlink:href="Casting_8h.html" target="_top" xlink:title=" ">
<polygon fill="none" stroke="red" points="278.06,-179.5 278.06,-198.5 406.06,-198.5 406.06,-179.5 278.06,-179.5"/>
<text text-anchor="middle" x="342.06" y="-186.5" font-family="Helvetica,sans-Serif" font-size="10.00">llvm/Support/Casting.h</text>
</a>
</g>
</g>
<!-- Node1&#45;&gt;Node93 -->
<g id="edge184" class="edge">
<title>Node1&#45;&gt;Node93</title>
<path fill="none" stroke="midnightblue" d="M2161.44,-680.03C1806.86,-679.85 546.7,-676.27 372.06,-635 306.08,-619.41 234.06,-637.8 234.06,-570 234.06,-570 234.06,-570 234.06,-316.5 234.06,-265.25 285.97,-224.26 317.81,-203.94"/>
<polygon fill="midnightblue" stroke="midnightblue" points="319.91,-206.76 326.58,-198.53 316.23,-200.8 319.91,-206.76"/>
</g>
<!-- Node123 -->
<g id="node50" class="node">
<title>Node123</title>
<g id="a_node50"><a xlink:href="Debug_8h.html" target="_top" xlink:title=" ">
<polygon fill="none" stroke="black" points="4006.06,-615.5 4006.06,-634.5 4128.06,-634.5 4128.06,-615.5 4006.06,-615.5"/>
<text text-anchor="middle" x="4067.06" y="-622.5" font-family="Helvetica,sans-Serif" font-size="10.00">llvm/Support/Debug.h</text>
</a>
</g>
</g>
<!-- Node1&#45;&gt;Node123 -->
<g id="edge191" class="edge">
<title>Node1&#45;&gt;Node123</title>
<path fill="none" stroke="midnightblue" d="M2347,-680.65C2607.17,-681.8 3364.76,-680.66 3992.06,-635 3993.17,-634.92 3994.29,-634.83 3995.42,-634.74"/>
<polygon fill="midnightblue" stroke="midnightblue" points="3996.05,-638.2 4005.71,-633.84 3995.44,-631.23 3996.05,-638.2"/>
</g>
<!-- Node3 -->
<g id="node3" class="node">
<title>Node3</title>
<g id="a_node3"><a xlink:href="ArrayRef_8h.html" target="_top" xlink:title=" ">
<polygon fill="none" stroke="red" points="1126.06,-241 1126.06,-260 1242.06,-260 1242.06,-241 1126.06,-241"/>
<text text-anchor="middle" x="1184.06" y="-248" font-family="Helvetica,sans-Serif" font-size="10.00">llvm/ADT/ArrayRef.h</text>
</a>
</g>
</g>
<!-- Node2&#45;&gt;Node3 -->
<g id="edge2" class="edge">
<title>Node2&#45;&gt;Node3</title>
<path fill="none" stroke="midnightblue" d="M2221.52,-313.03C2034.58,-301.94 1452.52,-267.42 1252.43,-255.55"/>
<polygon fill="midnightblue" stroke="midnightblue" points="1252.53,-252.05 1242.34,-254.96 1252.11,-259.04 1252.53,-252.05"/>
</g>
<!-- Node20 -->
<g id="node9" class="node">
<title>Node20</title>
<g id="a_node9"><a xlink:title=" ">
<polygon fill="none" stroke="#bfbfbf" points="3199.56,-56.5 3199.56,-75.5 3244.56,-75.5 3244.56,-56.5 3199.56,-56.5"/>
<text text-anchor="middle" x="3222.06" y="-63.5" font-family="Helvetica,sans-Serif" font-size="10.00">utility</text>
</a>
</g>
</g>
<!-- Node2&#45;&gt;Node20 -->
<g id="edge53" class="edge">
<title>Node2&#45;&gt;Node20</title>
<path fill="none" stroke="midnightblue" d="M2294.2,-307.96C2320.42,-292.32 2378.57,-258.53 2430.06,-235 2571.28,-170.45 2605.81,-147.12 2757.06,-112 2915.94,-75.11 3112.16,-68.41 3189.01,-67.23"/>
<polygon fill="midnightblue" stroke="midnightblue" points="3189.5,-70.73 3199.46,-67.09 3189.41,-63.73 3189.5,-70.73"/>
</g>
<!-- Node2&#45;&gt;Node21 -->
<g id="edge47" class="edge">
<title>Node2&#45;&gt;Node21</title>
<path fill="none" stroke="midnightblue" d="M2255.53,-307.83C2227.86,-297.98 2181.56,-281.28 2142.06,-266 2108.03,-252.84 2100.37,-247.39 2066.06,-235 2016.08,-216.95 2001.9,-217.41 1952.06,-199 1902.81,-180.82 1846.87,-156.21 1814.13,-141.4"/>
<polygon fill="midnightblue" stroke="midnightblue" points="1815.29,-138.08 1804.74,-137.13 1812.4,-144.45 1815.29,-138.08"/>
</g>
<!-- Node2&#45;&gt;Node22 -->
<g id="edge48" class="edge">
<title>Node2&#45;&gt;Node22</title>
<path fill="none" stroke="midnightblue" d="M2281.46,-307.86C2286.12,-279.54 2301.91,-187.09 2321.06,-112 2323.34,-103.07 2326.32,-93.29 2328.95,-85.13"/>
<polygon fill="midnightblue" stroke="midnightblue" points="2332.3,-86.14 2332.11,-75.55 2325.65,-83.95 2332.3,-86.14"/>
</g>
<!-- Node28 -->
<g id="node13" class="node">
<title>Node28</title>
<g id="a_node13"><a xlink:title=" ">
<polygon fill="none" stroke="#bfbfbf" points="1615.56,-118 1615.56,-137 1664.56,-137 1664.56,-118 1615.56,-118"/>
<text text-anchor="middle" x="1640.06" y="-125" font-family="Helvetica,sans-Serif" font-size="10.00">cstdlib</text>
</a>
</g>
</g>
<!-- Node2&#45;&gt;Node28 -->
<g id="edge51" class="edge">
<title>Node2&#45;&gt;Node28</title>
<path fill="none" stroke="midnightblue" d="M2237.01,-307.96C2153.56,-290.92 1964.41,-249.93 1810.06,-199 1758.64,-182.04 1700.8,-156.64 1667.57,-141.4"/>
<polygon fill="midnightblue" stroke="midnightblue" points="1668.63,-138.04 1658.08,-137.02 1665.7,-144.39 1668.63,-138.04"/>
</g>
<!-- Node23 -->
<g id="node14" class="node">
<title>Node23</title>
<g id="a_node14"><a xlink:title=" ">
<polygon fill="none" stroke="#bfbfbf" points="1861.06,-118 1861.06,-137 1911.06,-137 1911.06,-118 1861.06,-118"/>
<text text-anchor="middle" x="1886.06" y="-125" font-family="Helvetica,sans-Serif" font-size="10.00">cstring</text>
</a>
</g>
</g>
<!-- Node2&#45;&gt;Node23 -->
<g id="edge52" class="edge">
<title>Node2&#45;&gt;Node23</title>
<path fill="none" stroke="midnightblue" d="M2268.13,-307.8C2244.97,-291.29 2191.79,-255.26 2142.06,-235 2079.76,-209.63 2056.82,-225.64 1995.06,-199 1961.02,-184.32 1925.72,-159.4 1904.83,-143.45"/>
<polygon fill="midnightblue" stroke="midnightblue" points="1906.85,-140.59 1896.81,-137.23 1902.56,-146.12 1906.85,-140.59"/>
</g>
<!-- Node46 -->
<g id="node22" class="node">
<title>Node46</title>
<g id="a_node22"><a xlink:href="DenseMapInfo_8h.html" target="_top" xlink:title=" ">
<polygon fill="none" stroke="red" points="2776.06,-118 2776.06,-137 2920.06,-137 2920.06,-118 2776.06,-118"/>
<text text-anchor="middle" x="2848.06" y="-125" font-family="Helvetica,sans-Serif" font-size="10.00">llvm/ADT/DenseMapInfo.h</text>
</a>
</g>
</g>
<!-- Node2&#45;&gt;Node46 -->
<g id="edge32" class="edge">
<title>Node2&#45;&gt;Node46</title>
<path fill="none" stroke="midnightblue" d="M2305.94,-307.93C2397.71,-277.56 2707.68,-174.96 2812.83,-140.16"/>
<polygon fill="midnightblue" stroke="midnightblue" points="2813.96,-143.47 2822.35,-137.01 2811.76,-136.83 2813.96,-143.47"/>
</g>
<!-- Node2&#45;&gt;Node16 -->
<g id="edge50" class="edge">
<title>Node2&#45;&gt;Node16</title>
<path fill="none" stroke="midnightblue" d="M2320.85,-307.96C2363.22,-298.78 2431.27,-283.17 2489.06,-266 2574.49,-240.61 2594.46,-229.89 2678.06,-199 2701.28,-190.42 2706.16,-185.48 2730.06,-179 2761.84,-170.38 3240.74,-94.16 3376.46,-72.64"/>
<polygon fill="midnightblue" stroke="midnightblue" points="3377.38,-76.04 3386.71,-71.01 3376.29,-69.12 3377.38,-76.04"/>
</g>
<!-- Node42 -->
<g id="node24" class="node">
<title>Node42</title>
<g id="a_node24"><a xlink:href="iterator__range_8h.html" target="_top" xlink:title=" ">
<polygon fill="none" stroke="black" points="2738.56,-179.5 2738.56,-198.5 2881.56,-198.5 2881.56,-179.5 2738.56,-179.5"/>
<text text-anchor="middle" x="2810.06" y="-186.5" font-family="Helvetica,sans-Serif" font-size="10.00">llvm/ADT/iterator_range.h</text>
</a>
</g>
</g>
<!-- Node2&#45;&gt;Node42 -->
<g id="edge37" class="edge">
<title>Node2&#45;&gt;Node42</title>
<path fill="none" stroke="midnightblue" d="M2338.75,-310.51C2403.08,-303.17 2508.98,-288.83 2598.06,-266 2665.06,-248.83 2740.7,-219.1 2781.04,-202.36"/>
<polygon fill="midnightblue" stroke="midnightblue" points="2782.4,-205.59 2790.28,-198.5 2779.7,-199.13 2782.4,-205.59"/>
</g>
<!-- Node47 -->
<g id="node25" class="node">
<title>Node47</title>
<g id="a_node25"><a xlink:href="MathExtras_8h.html" target="_top" xlink:title=" ">
<polygon fill="none" stroke="red" points="2004.06,-179.5 2004.06,-198.5 2150.06,-198.5 2150.06,-179.5 2004.06,-179.5"/>
<text text-anchor="middle" x="2077.06" y="-186.5" font-family="Helvetica,sans-Serif" font-size="10.00">llvm/Support/MathExtras.h</text>
</a>
</g>
</g>
<!-- Node2&#45;&gt;Node47 -->
<g id="edge39" class="edge">
<title>Node2&#45;&gt;Node47</title>
<path fill="none" stroke="midnightblue" d="M2275.87,-307.97C2267.31,-291.44 2246.23,-254.89 2218.06,-235 2194.51,-218.38 2164.53,-207.68 2138.27,-200.91"/>
<polygon fill="midnightblue" stroke="midnightblue" points="2138.96,-197.48 2128.41,-198.5 2137.3,-204.28 2138.96,-197.48"/>
</g>
<!-- Node48 -->
<g id="node26" class="node">
<title>Node48</title>
<g id="a_node26"><a xlink:title=" ">
<polygon fill="none" stroke="#bfbfbf" points="2181.06,-118 2181.06,-137 2231.06,-137 2231.06,-118 2181.06,-118"/>
<text text-anchor="middle" x="2206.06" y="-125" font-family="Helvetica,sans-Serif" font-size="10.00">climits</text>
</a>
</g>
</g>
<!-- Node2&#45;&gt;Node48 -->
<g id="edge49" class="edge">
<title>Node2&#45;&gt;Node48</title>
<path fill="none" stroke="midnightblue" d="M2277.18,-307.7C2269.93,-285.73 2250.06,-226.8 2230.06,-179 2225.49,-168.08 2219.83,-156.11 2215.16,-146.57"/>
<polygon fill="midnightblue" stroke="midnightblue" points="2218.15,-144.72 2210.57,-137.32 2211.88,-147.84 2218.15,-144.72"/>
</g>
<!-- Node3&#45;&gt;Node27 -->
<g id="edge3" class="edge">
<title>Node3&#45;&gt;Node27</title>
<path fill="none" stroke="midnightblue" d="M1202.4,-240.98C1223.88,-230.99 1259.68,-214.35 1284.51,-202.81"/>
<polygon fill="midnightblue" stroke="midnightblue" points="1286.16,-205.9 1293.75,-198.51 1283.21,-199.55 1286.16,-205.9"/>
</g>
<!-- Node11 -->
<g id="node5" class="node">
<title>Node11</title>
<g id="a_node5"><a xlink:href="Compiler_8h.html" target="_top" xlink:title=" ">
<polygon fill="none" stroke="red" points="304.06,-56.5 304.06,-75.5 438.06,-75.5 438.06,-56.5 304.06,-56.5"/>
<text text-anchor="middle" x="371.06" y="-63.5" font-family="Helvetica,sans-Serif" font-size="10.00">llvm/Support/Compiler.h</text>
</a>
</g>
</g>
<!-- Node3&#45;&gt;Node11 -->
<g id="edge23" class="edge">
<title>Node3&#45;&gt;Node11</title>
<path fill="none" stroke="midnightblue" d="M1165.05,-241C1109.34,-216.48 941.11,-145.26 794.06,-112 675.18,-85.11 533.77,-74.19 448.29,-69.82"/>
<polygon fill="midnightblue" stroke="midnightblue" points="448.31,-66.32 438.15,-69.32 447.96,-73.31 448.31,-66.32"/>
</g>
<!-- Node17 -->
<g id="node8" class="node">
<title>Node17</title>
<g id="a_node8"><a xlink:title=" ">
<polygon fill="none" stroke="#bfbfbf" points="216.56,-56.5 216.56,-75.5 285.56,-75.5 285.56,-56.5 216.56,-56.5"/>
<text text-anchor="middle" x="251.06" y="-63.5" font-family="Helvetica,sans-Serif" font-size="10.00">type_traits</text>
</a>
</g>
</g>
<!-- Node3&#45;&gt;Node17 -->
<g id="edge30" class="edge">
<title>Node3&#45;&gt;Node17</title>
<path fill="none" stroke="midnightblue" d="M1126.03,-242.87C1100.06,-240.09 1069.06,-237.04 1041.06,-235 951.76,-228.48 320.08,-229.94 236.06,-199 188.96,-181.65 137.96,-154.87 164.06,-112 173.59,-96.34 190.53,-85.88 206.94,-79.03"/>
<polygon fill="midnightblue" stroke="midnightblue" points="208.39,-82.23 216.49,-75.4 205.9,-75.69 208.39,-82.23"/>
</g>
<!-- Node3&#45;&gt;Node21 -->
<g id="edge24" class="edge">
<title>Node3&#45;&gt;Node21</title>
<path fill="none" stroke="midnightblue" d="M1242.14,-241.79C1344.82,-227.42 1564.59,-193.38 1745.06,-143 1748.02,-142.17 1751.07,-141.24 1754.11,-140.26"/>
<polygon fill="midnightblue" stroke="midnightblue" points="1755.32,-143.55 1763.68,-137.03 1753.08,-136.92 1755.32,-143.55"/>
</g>
<!-- Node3&#45;&gt;Node22 -->
<g id="edge25" class="edge">
<title>Node3&#45;&gt;Node22</title>
<path fill="none" stroke="midnightblue" d="M1184.67,-240.78C1186.96,-215.67 1197.35,-143.01 1242.06,-112 1286.41,-81.24 2114,-69.62 2298.71,-67.41"/>
<polygon fill="midnightblue" stroke="midnightblue" points="2299.01,-70.91 2308.97,-67.29 2298.93,-63.91 2299.01,-70.91"/>
</g>
<!-- Node15 -->
<g id="node12" class="node">
<title>Node15</title>
<g id="a_node12"><a xlink:title=" ">
<polygon fill="none" stroke="#bfbfbf" points="1289.56,-56.5 1289.56,-75.5 1342.56,-75.5 1342.56,-56.5 1289.56,-56.5"/>
<text text-anchor="middle" x="1316.06" y="-63.5" font-family="Helvetica,sans-Serif" font-size="10.00">cstddef</text>
</a>
</g>
</g>
<!-- Node3&#45;&gt;Node15 -->
<g id="edge26" class="edge">
<title>Node3&#45;&gt;Node15</title>
<path fill="none" stroke="midnightblue" d="M1165.82,-240.96C1122.54,-219.58 1020.23,-161.89 1062.06,-112 1089.38,-79.41 1215.97,-70.41 1279.49,-67.93"/>
<polygon fill="midnightblue" stroke="midnightblue" points="1279.62,-71.43 1289.49,-67.58 1279.37,-64.44 1279.62,-71.43"/>
</g>
<!-- Node30 -->
<g id="node16" class="node">
<title>Node30</title>
<g id="a_node16"><a xlink:title=" ">
<polygon fill="none" stroke="#bfbfbf" points="1070.56,-118 1070.56,-137 1153.56,-137 1153.56,-118 1070.56,-118"/>
<text text-anchor="middle" x="1112.06" y="-125" font-family="Helvetica,sans-Serif" font-size="10.00">initializer_list</text>
</a>
</g>
</g>
<!-- Node3&#45;&gt;Node30 -->
<g id="edge27" class="edge">
<title>Node3&#45;&gt;Node30</title>
<path fill="none" stroke="midnightblue" d="M1180.59,-240.97C1174.94,-227.43 1163.07,-200.35 1150.06,-179 1142.8,-167.09 1133.38,-154.56 1125.74,-144.96"/>
<polygon fill="midnightblue" stroke="midnightblue" points="1128.35,-142.62 1119.33,-137.07 1122.92,-147.04 1128.35,-142.62"/>
</g>
<!-- Node3&#45;&gt;Node31 -->
<g id="edge28" class="edge">
<title>Node3&#45;&gt;Node31</title>
<path fill="none" stroke="midnightblue" d="M1222.71,-240.98C1283.14,-227.67 1403.71,-201.17 1506.06,-179 1580.69,-162.83 1601.15,-165.71 1674.06,-143 1676.2,-142.33 1678.39,-141.59 1680.59,-140.79"/>
<polygon fill="midnightblue" stroke="midnightblue" points="1681.98,-144 1690.03,-137.12 1679.44,-137.48 1681.98,-144"/>
</g>
<!-- Node33 -->
<g id="node19" class="node">
<title>Node33</title>
<g id="a_node19"><a xlink:title=" ">
<polygon fill="none" stroke="#bfbfbf" points="641.06,-118 641.06,-137 699.06,-137 699.06,-118 641.06,-118"/>
<text text-anchor="middle" x="670.06" y="-125" font-family="Helvetica,sans-Serif" font-size="10.00">memory</text>
</a>
</g>
</g>
<!-- Node3&#45;&gt;Node33 -->
<g id="edge29" class="edge">
<title>Node3&#45;&gt;Node33</title>
<path fill="none" stroke="midnightblue" d="M1137.6,-240.94C1052.31,-224.8 865.34,-187.48 711.06,-143 708.27,-142.2 705.39,-141.31 702.52,-140.38"/>
<polygon fill="midnightblue" stroke="midnightblue" points="703.48,-137.01 692.89,-137.11 701.24,-143.64 703.48,-137.01"/>
</g>
<!-- Node3&#45;&gt;Node45 -->
<g id="edge31" class="edge">
<title>Node3&#45;&gt;Node45</title>
<path fill="none" stroke="midnightblue" d="M1125.78,-242.67C1018.94,-230.16 794.86,-203.91 709.79,-193.95"/>
<polygon fill="midnightblue" stroke="midnightblue" points="710,-190.45 699.66,-192.76 709.18,-197.4 710,-190.45"/>
</g>
<!-- Node27&#45;&gt;Node11 -->
<g id="edge4" class="edge">
<title>Node27&#45;&gt;Node11</title>
<path fill="none" stroke="midnightblue" d="M1299.64,-179.37C1274.97,-162.77 1217.44,-126.71 1163.06,-112 1029.93,-75.98 620.34,-68.78 448.36,-67.35"/>
<polygon fill="midnightblue" stroke="midnightblue" points="448.15,-63.85 438.12,-67.27 448.09,-70.85 448.15,-63.85"/>
</g>
<!-- Node19 -->
<g id="node7" class="node">
<title>Node19</title>
<g id="a_node7"><a xlink:href="type__traits_8h.html" target="_top" xlink:title=" ">
<polygon fill="none" stroke="black" points="396.56,-118 396.56,-137 539.56,-137 539.56,-118 396.56,-118"/>
<text text-anchor="middle" x="468.06" y="-125" font-family="Helvetica,sans-Serif" font-size="10.00">llvm/Support/type_traits.h</text>
</a>
</g>
</g>
<!-- Node27&#45;&gt;Node19 -->
<g id="edge6" class="edge">
<title>Node27&#45;&gt;Node19</title>
<path fill="none" stroke="midnightblue" d="M1246.38,-184.14C1125,-176.89 857.37,-160.41 632.06,-143 605.39,-140.94 576.3,-138.45 550.13,-136.12"/>
<polygon fill="midnightblue" stroke="midnightblue" points="550.15,-132.6 539.88,-135.2 549.52,-139.57 550.15,-132.6"/>
</g>
<!-- Node27&#45;&gt;Node17 -->
<g id="edge21" class="edge">
<title>Node27&#45;&gt;Node17</title>
<path fill="none" stroke="midnightblue" d="M1246.39,-186.54C1048.89,-181.91 468.93,-166.46 387.06,-143 342.13,-130.13 295.9,-100.01 270.59,-81.79"/>
<polygon fill="midnightblue" stroke="midnightblue" points="272.38,-78.77 262.25,-75.67 268.24,-84.41 272.38,-78.77"/>
</g>
<!-- Node27&#45;&gt;Node20 -->
<g id="edge22" class="edge">
<title>Node27&#45;&gt;Node20</title>
<path fill="none" stroke="midnightblue" d="M1337.32,-179.43C1387.83,-162.77 1505.2,-126.35 1607.06,-112 1768.89,-89.19 2974.65,-70.62 3189.39,-67.47"/>
<polygon fill="midnightblue" stroke="midnightblue" points="3189.46,-70.97 3199.41,-67.32 3189.36,-63.97 3189.46,-70.97"/>
</g>
<!-- Node27&#45;&gt;Node21 -->
<g id="edge10" class="edge">
<title>Node27&#45;&gt;Node21</title>
<path fill="none" stroke="midnightblue" d="M1377.76,-185.99C1463.28,-182.29 1616.96,-171.88 1745.06,-143 1748.3,-142.27 1751.64,-141.36 1754.94,-140.36"/>
<polygon fill="midnightblue" stroke="midnightblue" points="1756.24,-143.62 1764.64,-137.15 1754.04,-136.97 1756.24,-143.62"/>
</g>
<!-- Node27&#45;&gt;Node22 -->
<g id="edge11" class="edge">
<title>Node27&#45;&gt;Node22</title>
<path fill="none" stroke="midnightblue" d="M1321.55,-179.33C1340.49,-162.65 1385.05,-126.46 1430.06,-112 1513.69,-85.12 2140.36,-70.89 2298.77,-67.7"/>
<polygon fill="midnightblue" stroke="midnightblue" points="2299.01,-71.19 2308.93,-67.49 2298.87,-64.19 2299.01,-71.19"/>
</g>
<!-- Node27&#45;&gt;Node15 -->
<g id="edge12" class="edge">
<title>Node27&#45;&gt;Node15</title>
<path fill="none" stroke="midnightblue" d="M1312.35,-179.3C1312.99,-159.85 1314.55,-112.49 1315.43,-85.9"/>
<polygon fill="midnightblue" stroke="midnightblue" points="1318.94,-85.73 1315.77,-75.62 1311.94,-85.5 1318.94,-85.73"/>
</g>
<!-- Node27&#45;&gt;Node28 -->
<g id="edge13" class="edge">
<title>Node27&#45;&gt;Node28</title>
<path fill="none" stroke="midnightblue" d="M1377.68,-181.6C1436.76,-174.94 1525.64,-162.68 1601.06,-143 1603.88,-142.26 1606.77,-141.4 1609.66,-140.47"/>
<polygon fill="midnightblue" stroke="midnightblue" points="1610.97,-143.72 1619.26,-137.12 1608.66,-137.11 1610.97,-143.72"/>
</g>
<!-- Node27&#45;&gt;Node23 -->
<g id="edge14" class="edge">
<title>Node27&#45;&gt;Node23</title>
<path fill="none" stroke="midnightblue" d="M1377.91,-185.49C1476.23,-181.01 1667.01,-169.5 1827.06,-143 1834.87,-141.71 1843.18,-139.92 1851.02,-138.05"/>
<polygon fill="midnightblue" stroke="midnightblue" points="1852.11,-141.38 1860.97,-135.57 1850.42,-134.59 1852.11,-141.38"/>
</g>
<!-- Node29 -->
<g id="node15" class="node">
<title>Node29</title>
<g id="a_node15"><a xlink:title=" ">
<polygon fill="none" stroke="#bfbfbf" points="720.56,-118 720.56,-137 785.56,-137 785.56,-118 720.56,-118"/>
<text text-anchor="middle" x="753.06" y="-125" font-family="Helvetica,sans-Serif" font-size="10.00">functional</text>
</a>
</g>
</g>
<!-- Node27&#45;&gt;Node29 -->
<g id="edge15" class="edge">
<title>Node27&#45;&gt;Node29</title>
<path fill="none" stroke="midnightblue" d="M1246.29,-181C1130.31,-168.65 892.54,-143.35 795.61,-133.03"/>
<polygon fill="midnightblue" stroke="midnightblue" points="795.9,-129.54 785.59,-131.96 795.16,-136.5 795.9,-129.54"/>
</g>
<!-- Node27&#45;&gt;Node30 -->
<g id="edge16" class="edge">
<title>Node27&#45;&gt;Node30</title>
<path fill="none" stroke="midnightblue" d="M1283.4,-179.48C1248.5,-169.09 1189.41,-151.51 1150.56,-139.95"/>
<polygon fill="midnightblue" stroke="midnightblue" points="1151.24,-136.51 1140.66,-137.01 1149.25,-143.22 1151.24,-136.51"/>
</g>
<!-- Node27&#45;&gt;Node31 -->
<g id="edge17" class="edge">
<title>Node27&#45;&gt;Node31</title>
<path fill="none" stroke="midnightblue" d="M1377.8,-185.14C1451.11,-180.73 1572.72,-169.76 1674.06,-143 1676.51,-142.35 1679.01,-141.57 1681.5,-140.71"/>
<polygon fill="midnightblue" stroke="midnightblue" points="1682.77,-143.98 1690.85,-137.13 1680.26,-137.44 1682.77,-143.98"/>
</g>
<!-- Node32 -->
<g id="node18" class="node">
<title>Node32</title>
<g id="a_node18"><a xlink:title=" ">
<polygon fill="none" stroke="#bfbfbf" points="1929.06,-118 1929.06,-137 1973.06,-137 1973.06,-118 1929.06,-118"/>
<text text-anchor="middle" x="1951.06" y="-125" font-family="Helvetica,sans-Serif" font-size="10.00">limits</text>
</a>
</g>
</g>
<!-- Node27&#45;&gt;Node32 -->
<g id="edge18" class="edge">
<title>Node27&#45;&gt;Node32</title>
<path fill="none" stroke="midnightblue" d="M1377.72,-186.14C1513.13,-181.82 1819.13,-169.39 1920.06,-143 1922.04,-142.48 1924.05,-141.84 1926.05,-141.12"/>
<polygon fill="midnightblue" stroke="midnightblue" points="1927.86,-144.15 1935.7,-137.03 1925.13,-137.71 1927.86,-144.15"/>
</g>
<!-- Node27&#45;&gt;Node33 -->
<g id="edge19" class="edge">
<title>Node27&#45;&gt;Node33</title>
<path fill="none" stroke="midnightblue" d="M1246.31,-185.28C1112.3,-179.37 811.72,-164.18 711.06,-143 707.63,-142.28 704.1,-141.34 700.61,-140.29"/>
<polygon fill="midnightblue" stroke="midnightblue" points="701.62,-136.94 691.03,-137.12 699.42,-143.59 701.62,-136.94"/>
</g>
<!-- Node34 -->
<g id="node20" class="node">
<title>Node34</title>
<g id="a_node20"><a xlink:title=" ">
<polygon fill="none" stroke="#bfbfbf" points="1250.56,-118 1250.56,-137 1287.56,-137 1287.56,-118 1250.56,-118"/>
<text text-anchor="middle" x="1269.06" y="-125" font-family="Helvetica,sans-Serif" font-size="10.00">new</text>
</a>
</g>
</g>
<!-- Node27&#45;&gt;Node34 -->
<g id="edge20" class="edge">
<title>Node27&#45;&gt;Node34</title>
<path fill="none" stroke="midnightblue" d="M1305.9,-179.48C1299.45,-170.55 1289.15,-156.31 1281.09,-145.14"/>
<polygon fill="midnightblue" stroke="midnightblue" points="1283.9,-143.06 1275.21,-137.01 1278.23,-147.16 1283.9,-143.06"/>
</g>
<!-- Node12 -->
<g id="node6" class="node">
<title>Node12</title>
<g id="a_node6"><a xlink:title=" ">
<polygon fill="none" stroke="#bfbfbf" points="115.56,-0.5 115.56,-19.5 254.56,-19.5 254.56,-0.5 115.56,-0.5"/>
<text text-anchor="middle" x="185.06" y="-7.5" font-family="Helvetica,sans-Serif" font-size="10.00">llvm/Config/llvm&#45;config.h</text>
</a>
</g>
</g>
<!-- Node11&#45;&gt;Node12 -->
<g id="edge5" class="edge">
<title>Node11&#45;&gt;Node12</title>
<path fill="none" stroke="midnightblue" d="M341.59,-56.44C309.89,-47.24 259.33,-32.56 224.28,-22.39"/>
<polygon fill="midnightblue" stroke="midnightblue" points="224.97,-18.94 214.39,-19.52 223.02,-25.67 224.97,-18.94"/>
</g>
<!-- Node19&#45;&gt;Node11 -->
<g id="edge7" class="edge">
<title>Node19&#45;&gt;Node11</title>
<path fill="none" stroke="midnightblue" d="M454.16,-117.98C438.39,-108.3 412.42,-92.37 393.71,-80.89"/>
<polygon fill="midnightblue" stroke="midnightblue" points="395.28,-77.75 384.93,-75.51 391.62,-83.72 395.28,-77.75"/>
</g>
<!-- Node19&#45;&gt;Node17 -->
<g id="edge8" class="edge">
<title>Node19&#45;&gt;Node17</title>
<path fill="none" stroke="midnightblue" d="M436.97,-117.98C398.78,-107.5 333.89,-89.71 291.76,-78.16"/>
<polygon fill="midnightblue" stroke="midnightblue" points="292.66,-74.78 282.09,-75.51 290.81,-81.53 292.66,-74.78"/>
</g>
<!-- Node19&#45;&gt;Node20 -->
<g id="edge9" class="edge">
<title>Node19&#45;&gt;Node20</title>
<path fill="none" stroke="midnightblue" d="M539.83,-119.05C568.48,-116.36 601.8,-113.6 632.06,-112 899.2,-97.89 2907.21,-71.13 3189.2,-67.43"/>
<polygon fill="midnightblue" stroke="midnightblue" points="3189.26,-70.93 3199.21,-67.3 3189.17,-63.93 3189.26,-70.93"/>
</g>
<!-- Node46&#45;&gt;Node20 -->
<g id="edge36" class="edge">
<title>Node46&#45;&gt;Node20</title>
<path fill="none" stroke="midnightblue" d="M2898.06,-117.96C2909.86,-115.98 2922.4,-113.89 2934.06,-112 3026.55,-96.98 3135.9,-80.15 3189.35,-71.98"/>
<polygon fill="midnightblue" stroke="midnightblue" points="3189.91,-75.43 3199.27,-70.47 3188.86,-68.51 3189.91,-75.43"/>
</g>
<!-- Node46&#45;&gt;Node22 -->
<g id="edge33" class="edge">
<title>Node46&#45;&gt;Node22</title>
<path fill="none" stroke="midnightblue" d="M2775.92,-118.13C2664.63,-105.23 2455.17,-80.93 2371.21,-71.19"/>
<polygon fill="midnightblue" stroke="midnightblue" points="2371.48,-67.7 2361.15,-70.03 2370.68,-74.65 2371.48,-67.7"/>
</g>
<!-- Node46&#45;&gt;Node15 -->
<g id="edge34" class="edge">
<title>Node46&#45;&gt;Node15</title>
<path fill="none" stroke="midnightblue" d="M2775.97,-123.7C2504.92,-113.17 1552.29,-76.17 1352.84,-68.43"/>
<polygon fill="midnightblue" stroke="midnightblue" points="1352.74,-64.92 1342.61,-68.03 1352.47,-71.92 1352.74,-64.92"/>
</g>
<!-- Node46&#45;&gt;Node16 -->
<g id="edge35" class="edge">
<title>Node46&#45;&gt;Node16</title>
<path fill="none" stroke="midnightblue" d="M2894.83,-117.98C2907.53,-115.84 2921.3,-113.67 2934.06,-112 3098.83,-90.38 3296.87,-75.14 3376.43,-69.46"/>
<polygon fill="midnightblue" stroke="midnightblue" points="3377.12,-72.92 3386.85,-68.72 3376.63,-65.94 3377.12,-72.92"/>
</g>
<!-- Node42&#45;&gt;Node20 -->
<g id="edge38" class="edge">
<title>Node42&#45;&gt;Node20</title>
<path fill="none" stroke="midnightblue" d="M2798.81,-179.47C2780.43,-164.54 2747.82,-133.23 2767.06,-112 2795.34,-80.78 3089.54,-70.4 3189.23,-67.76"/>
<polygon fill="midnightblue" stroke="midnightblue" points="3189.43,-71.25 3199.33,-67.5 3189.25,-64.26 3189.43,-71.25"/>
</g>
<!-- Node47&#45;&gt;Node11 -->
<g id="edge40" class="edge">
<title>Node47&#45;&gt;Node11</title>
<path fill="none" stroke="midnightblue" d="M2073.13,-179.35C2065.02,-162.7 2044.7,-126.57 2015.06,-112 1944.12,-77.12 765.35,-68.91 448.79,-67.33"/>
<polygon fill="midnightblue" stroke="midnightblue" points="448.35,-63.83 438.34,-67.28 448.32,-70.83 448.35,-63.83"/>
</g>
<!-- Node47&#45;&gt;Node17 -->
<g id="edge46" class="edge">
<title>Node47&#45;&gt;Node17</title>
<path fill="none" stroke="midnightblue" d="M2064.36,-179.48C2051.58,-170.75 2031.46,-156.56 2015.06,-143 1999.55,-130.18 2000.69,-119.61 1982.06,-112 1897.48,-77.46 463.83,-85.96 296.49,-75.6"/>
<polygon fill="midnightblue" stroke="midnightblue" points="296.28,-72.07 286.03,-74.75 295.72,-79.05 296.28,-72.07"/>
</g>
<!-- Node47&#45;&gt;Node22 -->
<g id="edge41" class="edge">
<title>Node47&#45;&gt;Node22</title>
<path fill="none" stroke="midnightblue" d="M2077.09,-179.44C2077.64,-163.58 2081.22,-129.67 2101.06,-112 2129.78,-86.43 2240.21,-74.26 2298.52,-69.52"/>
<polygon fill="midnightblue" stroke="midnightblue" points="2299.07,-72.99 2308.76,-68.72 2298.52,-66.01 2299.07,-72.99"/>
</g>
<!-- Node47&#45;&gt;Node23 -->
<g id="edge44" class="edge">
<title>Node47&#45;&gt;Node23</title>
<path fill="none" stroke="midnightblue" d="M2042.68,-179.46C2010.61,-171.18 1961.61,-157.75 1920.06,-143 1918.2,-142.34 1916.29,-141.63 1914.39,-140.89"/>
<polygon fill="midnightblue" stroke="midnightblue" points="1915.54,-137.58 1904.95,-137.05 1912.9,-144.06 1915.54,-137.58"/>
</g>
<!-- Node47&#45;&gt;Node32 -->
<g id="edge45" class="edge">
<title>Node47&#45;&gt;Node32</title>
<path fill="none" stroke="midnightblue" d="M2059.01,-179.48C2037.86,-169.49 2002.62,-152.85 1978.18,-141.31"/>
<polygon fill="midnightblue" stroke="midnightblue" points="1979.61,-138.11 1969.08,-137.01 1976.63,-144.44 1979.61,-138.11"/>
</g>
<!-- Node47&#45;&gt;Node16 -->
<g id="edge43" class="edge">
<title>Node47&#45;&gt;Node16</title>
<path fill="none" stroke="midnightblue" d="M2084.31,-179.29C2098.88,-162.53 2133.62,-126.2 2172.06,-112 2284.89,-70.3 3133.89,-81.42 3254.06,-76 3296.23,-74.1 3344.69,-71.24 3376.7,-69.25"/>
<polygon fill="midnightblue" stroke="midnightblue" points="3377.13,-72.73 3386.89,-68.62 3376.69,-65.75 3377.13,-72.73"/>
</g>
<!-- Node47&#45;&gt;Node48 -->
<g id="edge42" class="edge">
<title>Node47&#45;&gt;Node48</title>
<path fill="none" stroke="midnightblue" d="M2095.54,-179.48C2117.19,-169.49 2153.27,-152.85 2178.29,-141.31"/>
<polygon fill="midnightblue" stroke="midnightblue" points="2179.99,-144.38 2187.61,-137.01 2177.06,-138.02 2179.99,-144.38"/>
</g>
<!-- Node50&#45;&gt;Node11 -->
<g id="edge57" class="edge">
<title>Node50&#45;&gt;Node11</title>
<path fill="none" stroke="midnightblue" d="M102.04,-240.57C103.95,-226.47 109.15,-198.64 122.06,-179 147.53,-140.25 160.89,-133.36 202.06,-112 234.17,-95.33 273.01,-84.43 305.35,-77.54"/>
<polygon fill="midnightblue" stroke="midnightblue" points="306.07,-80.96 315.17,-75.53 304.67,-74.11 306.07,-80.96"/>
</g>
<!-- Node50&#45;&gt;Node12 -->
<g id="edge56" class="edge">
<title>Node50&#45;&gt;Node12</title>
<path fill="none" stroke="midnightblue" d="M71.29,-240.92C40.35,-230.22 -1.89,-209.51 11.06,-179 41.96,-106.21 121.56,-49.59 161.49,-24.75"/>
<polygon fill="midnightblue" stroke="midnightblue" points="163.34,-27.72 170.06,-19.53 159.69,-21.75 163.34,-27.72"/>
</g>
<!-- Node50&#45;&gt;Node33 -->
<g id="edge59" class="edge">
<title>Node50&#45;&gt;Node33</title>
<path fill="none" stroke="midnightblue" d="M157.56,-242.32C220.7,-233.86 325.77,-218.46 415.06,-199 456.42,-189.98 570.43,-157.4 631.02,-139.86"/>
<polygon fill="midnightblue" stroke="midnightblue" points="632.35,-143.12 640.98,-136.98 630.4,-136.4 632.35,-143.12"/>
</g>
<!-- Node50&#45;&gt;Node45 -->
<g id="edge60" class="edge">
<title>Node50&#45;&gt;Node45</title>
<path fill="none" stroke="midnightblue" d="M157.76,-243.63C276.3,-231.37 547.19,-203.34 642.3,-193.49"/>
<polygon fill="midnightblue" stroke="midnightblue" points="642.9,-196.95 652.49,-192.44 642.18,-189.99 642.9,-196.95"/>
</g>
<!-- Node51 -->
<g id="node28" class="node">
<title>Node51</title>
<g id="a_node28"><a xlink:title=" ">
<polygon fill="none" stroke="#bfbfbf" points="20.06,-179.5 20.06,-198.5 70.06,-198.5 70.06,-179.5 20.06,-179.5"/>
<text text-anchor="middle" x="45.06" y="-186.5" font-family="Helvetica,sans-Serif" font-size="10.00">atomic</text>
</a>
</g>
</g>
<!-- Node50&#45;&gt;Node51 -->
<g id="edge58" class="edge">
<title>Node50&#45;&gt;Node51</title>
<path fill="none" stroke="midnightblue" d="M93.03,-240.98C84.47,-231.87 70.7,-217.24 60.1,-205.98"/>
<polygon fill="midnightblue" stroke="midnightblue" points="62.47,-203.39 53.07,-198.51 57.37,-208.19 62.47,-203.39"/>
</g>
<!-- Node52&#45;&gt;Node3 -->
<g id="edge62" class="edge">
<title>Node52&#45;&gt;Node3</title>
<path fill="none" stroke="midnightblue" d="M1900.95,-559.48C1868.8,-553.14 1831.51,-542.12 1802.06,-523 1728.35,-475.15 1752.38,-415.88 1678.06,-369 1619.34,-331.96 1587.9,-364.55 1526.06,-333 1507.25,-323.4 1509.19,-310.94 1490.06,-302 1448.92,-282.77 1329.15,-266.96 1252.22,-258.41"/>
<polygon fill="midnightblue" stroke="midnightblue" points="1252.45,-254.91 1242.13,-257.3 1251.69,-261.87 1252.45,-254.91"/>
</g>
<!-- Node52&#45;&gt;Node27 -->
<g id="edge63" class="edge">
<title>Node52&#45;&gt;Node27</title>
<path fill="none" stroke="midnightblue" d="M1960.99,-559.42C1924.69,-531.37 1805.71,-440.04 1704.06,-369 1659.6,-337.93 1652.07,-322.99 1602.06,-302 1532.45,-272.78 1504.07,-298.76 1436.06,-266 1416.42,-256.54 1416.25,-247 1398.06,-235 1379.72,-222.9 1357.74,-211.45 1340.6,-203.13"/>
<polygon fill="midnightblue" stroke="midnightblue" points="1341.66,-199.76 1331.13,-198.61 1338.65,-206.07 1341.66,-199.76"/>
</g>
<!-- Node52&#45;&gt;Node20 -->
<g id="edge112" class="edge">
<title>Node52&#45;&gt;Node20</title>
<path fill="none" stroke="midnightblue" d="M2049.86,-567.39C2244.27,-565.38 2747.35,-556.95 2911.06,-523 2960.95,-512.65 3740.08,-240.91 3769.06,-199 3774.11,-191.69 3774.68,-185.89 3769.06,-179 3760.73,-168.79 3371.85,-95.11 3254.95,-73.16"/>
<polygon fill="midnightblue" stroke="midnightblue" points="3255.29,-69.66 3244.82,-71.26 3254,-76.54 3255.29,-69.66"/>
</g>
<!-- Node52&#45;&gt;Node21 -->
<g id="edge107" class="edge">
<title>Node52&#45;&gt;Node21</title>
<path fill="none" stroke="midnightblue" d="M1967.08,-559.43C1955.95,-539.47 1930.06,-488.01 1930.06,-441.5 1930.06,-441.5 1930.06,-441.5 1930.06,-378 1930.06,-313.7 1988.5,-287.98 1952.06,-235 1926.7,-198.14 1895.71,-223.15 1858.06,-199 1834.7,-184.02 1812.64,-160.53 1799.25,-144.84"/>
<polygon fill="midnightblue" stroke="midnightblue" points="1801.83,-142.47 1792.74,-137.02 1796.45,-146.95 1801.83,-142.47"/>
</g>
<!-- Node52&#45;&gt;Node22 -->
<g id="edge108" class="edge">
<title>Node52&#45;&gt;Node22</title>
<path fill="none" stroke="midnightblue" d="M1987.69,-559.42C2056.17,-521.67 2327.21,-370.62 2348.06,-333 2393.82,-250.44 2358.32,-130.38 2342.07,-85.14"/>
<polygon fill="midnightblue" stroke="midnightblue" points="2345.27,-83.7 2338.5,-75.55 2338.7,-86.14 2345.27,-83.7"/>
</g>
<!-- Node52&#45;&gt;Node15 -->
<g id="edge109" class="edge">
<title>Node52&#45;&gt;Node15</title>
<path fill="none" stroke="midnightblue" d="M1900.64,-559.48C1826.66,-550.6 1707.73,-536.17 1605.06,-523 1327.44,-487.38 516.57,-505.7 372.06,-266 364.94,-254.2 364.69,-246.64 372.06,-235 389.15,-208 601.12,-120.02 632.06,-112 756.16,-79.81 1155.92,-69.93 1279.38,-67.61"/>
<polygon fill="midnightblue" stroke="midnightblue" points="1279.53,-71.1 1289.46,-67.42 1279.4,-64.11 1279.53,-71.1"/>
</g>
<!-- Node52&#45;&gt;Node29 -->
<g id="edge110" class="edge">
<title>Node52&#45;&gt;Node29</title>
<path fill="none" stroke="midnightblue" d="M1918.04,-559.47C1868.02,-551.26 1791.68,-537.91 1726.06,-523 1564.35,-486.27 1528.91,-456.24 1366.06,-425 1188.36,-390.92 677.55,-467.98 557.06,-333 504.85,-274.52 580,-225.57 643.06,-179 665.73,-162.25 694.85,-149.19 717.43,-140.55"/>
<polygon fill="midnightblue" stroke="midnightblue" points="718.82,-143.76 726.98,-137.01 716.39,-137.2 718.82,-143.76"/>
</g>
<!-- Node52&#45;&gt;Node33 -->
<g id="edge111" class="edge">
<title>Node52&#45;&gt;Node33</title>
<path fill="none" stroke="midnightblue" d="M1899.3,-559.47C1858.11,-552.91 1806.33,-541.69 1763.06,-523 1740.76,-513.37 1740.22,-501.93 1718.06,-492 1603.25,-440.58 1567.02,-446.43 1443.06,-425 1345.53,-408.14 623.33,-406.51 557.06,-333 523.77,-296.08 536.34,-273.87 607.06,-179 617.88,-164.48 633.82,-151.76 646.96,-142.71"/>
<polygon fill="midnightblue" stroke="midnightblue" points="649.1,-145.49 655.51,-137.06 645.24,-139.65 649.1,-145.49"/>
</g>
<!-- Node52&#45;&gt;Node42 -->
<g id="edge64" class="edge">
<title>Node52&#45;&gt;Node42</title>
<path fill="none" stroke="midnightblue" d="M2049.57,-567.15C2298.59,-563.39 3062.06,-543.54 3062.06,-441.5 3062.06,-441.5 3062.06,-441.5 3062.06,-378 3062.06,-322.32 2901.99,-235.98 2837,-203.22"/>
<polygon fill="midnightblue" stroke="midnightblue" points="2838.29,-199.95 2827.78,-198.6 2835.16,-206.21 2838.29,-199.95"/>
</g>
<!-- Node52&#45;&gt;Node47 -->
<g id="edge106" class="edge">
<title>Node52&#45;&gt;Node47</title>
<path fill="none" stroke="midnightblue" d="M1971.6,-559.41C1970.55,-538.99 1968.06,-485.89 1968.06,-441.5 1968.06,-441.5 1968.06,-441.5 1968.06,-378 1968.06,-305.62 2029.28,-236.14 2059.96,-205.86"/>
<polygon fill="midnightblue" stroke="midnightblue" points="2062.61,-208.17 2067.38,-198.71 2057.75,-203.12 2062.61,-208.17"/>
</g>
<!-- Node52&#45;&gt;Node56 -->
<g id="edge65" class="edge">
<title>Node52&#45;&gt;Node56</title>
<path fill="none" stroke="midnightblue" d="M2010.17,-559.48C2057.58,-548.87 2138.54,-530.76 2190.11,-519.22"/>
<polygon fill="midnightblue" stroke="midnightblue" points="2191.02,-522.61 2200.02,-517.01 2189.49,-515.78 2191.02,-522.61"/>
</g>
<!-- Node56&#45;&gt;Node27 -->
<g id="edge66" class="edge">
<title>Node56&#45;&gt;Node27</title>
<path fill="none" stroke="midnightblue" d="M2215.61,-497.99C2189.32,-488.02 2144.48,-470.93 2106.06,-456 1932.36,-388.48 1896.06,-350.25 1716.06,-302 1611.03,-273.85 1573.52,-309.94 1474.06,-266 1454.12,-257.19 1455.01,-245.76 1436.06,-235 1410.41,-220.45 1379.2,-209.15 1354.5,-201.51"/>
<polygon fill="midnightblue" stroke="midnightblue" points="1355.28,-198.09 1344.69,-198.57 1353.26,-204.8 1355.28,-198.09"/>
</g>
<!-- Node56&#45;&gt;Node20 -->
<g id="edge105" class="edge">
<title>Node56&#45;&gt;Node20</title>
<path fill="none" stroke="midnightblue" d="M2315.18,-506.4C2483.99,-505.37 2881.23,-498.37 3008.06,-456 3102.76,-424.36 3131.26,-408.97 3196.06,-333 3254.36,-264.65 3257.91,-232.56 3265.06,-143 3266.15,-129.27 3270.19,-124.79 3265.06,-112 3260.38,-100.33 3251.07,-89.97 3242.3,-82.14"/>
<polygon fill="midnightblue" stroke="midnightblue" points="3244.48,-79.4 3234.56,-75.7 3240.01,-84.78 3244.48,-79.4"/>
</g>
<!-- Node56&#45;&gt;Node21 -->
<g id="edge102" class="edge">
<title>Node56&#45;&gt;Node21</title>
<path fill="none" stroke="midnightblue" d="M2232.71,-497.99C2209.03,-460.99 2109.49,-312.48 1990.06,-235 1953.22,-211.1 1937.26,-218.78 1898.06,-199 1864.68,-182.15 1828.47,-158.23 1806.53,-143.04"/>
<polygon fill="midnightblue" stroke="midnightblue" points="1808.24,-139.97 1798.04,-137.11 1804.23,-145.71 1808.24,-139.97"/>
</g>
<!-- Node56&#45;&gt;Node22 -->
<g id="edge103" class="edge">
<title>Node56&#45;&gt;Node22</title>
<path fill="none" stroke="midnightblue" d="M2242.4,-497.82C2254.37,-474.58 2289.85,-409.96 2334.06,-369 2357.15,-347.61 2376.9,-358.72 2395.06,-333 2451.38,-253.2 2377.94,-129.25 2347.32,-84.15"/>
<polygon fill="midnightblue" stroke="midnightblue" points="2350.08,-81.98 2341.5,-75.76 2344.33,-85.97 2350.08,-81.98"/>
</g>
<!-- Node56&#45;&gt;Node31 -->
<g id="edge104" class="edge">
<title>Node56&#45;&gt;Node31</title>
<path fill="none" stroke="midnightblue" d="M2226.02,-497.89C2157.54,-448.97 1817.22,-205.79 1729.64,-143.21"/>
<polygon fill="midnightblue" stroke="midnightblue" points="1731.48,-140.22 1721.31,-137.26 1727.41,-145.92 1731.48,-140.22"/>
</g>
<!-- Node56&#45;&gt;Node77 -->
<g id="edge67" class="edge">
<title>Node56&#45;&gt;Node77</title>
<path fill="none" stroke="midnightblue" d="M2262.85,-497.99C2326.42,-476.22 2500.47,-416.8 2646.06,-369 2680.5,-357.69 2719.27,-345.3 2749.79,-335.61"/>
<polygon fill="midnightblue" stroke="midnightblue" points="2750.91,-338.93 2759.39,-332.57 2748.8,-332.26 2750.91,-338.93"/>
</g>
<!-- Node56&#45;&gt;Node84 -->
<g id="edge101" class="edge">
<title>Node56&#45;&gt;Node84</title>
<path fill="none" stroke="midnightblue" d="M2315.33,-504.52C2491.6,-499.54 2912.64,-484.75 2970.06,-456 3034.59,-423.69 3050.93,-400.65 3076.06,-333 3083.71,-312.39 3078.52,-287.04 3073.17,-270.13"/>
<polygon fill="midnightblue" stroke="midnightblue" points="3076.37,-268.67 3069.78,-260.38 3069.76,-270.97 3076.37,-268.67"/>
</g>
<!-- Node56&#45;&gt;Node150 -->
<g id="edge85" class="edge">
<title>Node56&#45;&gt;Node150</title>
<path fill="none" stroke="midnightblue" d="M2253.73,-497.81C2292.79,-476.13 2394.71,-419.59 2441.69,-393.52"/>
<polygon fill="midnightblue" stroke="midnightblue" points="2443.53,-396.5 2450.58,-388.59 2440.14,-390.38 2443.53,-396.5"/>
</g>
<!-- Node56&#45;&gt;Node157 -->
<g id="edge98" class="edge">
<title>Node56&#45;&gt;Node157</title>
<path fill="none" stroke="midnightblue" d="M2315.14,-502.95C2472.51,-495.53 2842.1,-477.33 3152.06,-456 3177.98,-454.22 3206.03,-452.02 3231.95,-449.89"/>
<polygon fill="midnightblue" stroke="midnightblue" points="3232.48,-453.36 3242.16,-449.04 3231.9,-446.38 3232.48,-453.36"/>
</g>
<!-- Node77&#45;&gt;Node22 -->
<g id="edge81" class="edge">
<title>Node77&#45;&gt;Node22</title>
<path fill="none" stroke="midnightblue" d="M2795.25,-302.28C2768.69,-259.9 2688.78,-135.91 2648.06,-112 2601.79,-84.83 2443.7,-72.92 2371.52,-68.8"/>
<polygon fill="midnightblue" stroke="midnightblue" points="2371.29,-65.28 2361.11,-68.23 2370.91,-72.27 2371.29,-65.28"/>
</g>
<!-- Node77&#45;&gt;Node31 -->
<g id="edge83" class="edge">
<title>Node77&#45;&gt;Node31</title>
<path fill="none" stroke="midnightblue" d="M2725.8,-311.16C2569.76,-299.41 2209.51,-266.81 1914.06,-199 1849.98,-184.29 1777.89,-156.83 1738.57,-140.87"/>
<polygon fill="midnightblue" stroke="midnightblue" points="1739.88,-137.62 1729.3,-137.07 1737.23,-144.1 1739.88,-137.62"/>
</g>
<!-- Node77&#45;&gt;Node45 -->
<g id="edge84" class="edge">
<title>Node77&#45;&gt;Node45</title>
<path fill="none" stroke="midnightblue" d="M2725.8,-313.83C2634.97,-310.78 2480.68,-305.71 2348.06,-302 2182.85,-297.37 1022.8,-299.97 861.06,-266 800.49,-253.28 734.58,-221.43 700.13,-203.25"/>
<polygon fill="midnightblue" stroke="midnightblue" points="701.75,-200.15 691.28,-198.52 698.44,-206.32 701.75,-200.15"/>
</g>
<!-- Node77&#45;&gt;Node16 -->
<g id="edge82" class="edge">
<title>Node77&#45;&gt;Node16</title>
<path fill="none" stroke="midnightblue" d="M2882.41,-314.75C2955.14,-310.94 3065.38,-299.5 3155.06,-266 3249.64,-230.67 3269.75,-209.11 3346.06,-143 3367.01,-124.85 3387.34,-100.01 3399.77,-83.74"/>
<polygon fill="midnightblue" stroke="midnightblue" points="3402.61,-85.78 3405.82,-75.68 3397.02,-81.58 3402.61,-85.78"/>
</g>
<!-- Node77&#45;&gt;Node42 -->
<g id="edge68" class="edge">
<title>Node77&#45;&gt;Node42</title>
<path fill="none" stroke="midnightblue" d="M2804.72,-302.48C2805.8,-279.72 2807.94,-234.7 2809.15,-209.06"/>
<polygon fill="midnightblue" stroke="midnightblue" points="2812.66,-208.94 2809.64,-198.79 2805.67,-208.61 2812.66,-208.94"/>
</g>
<!-- Node77&#45;&gt;Node84 -->
<g id="edge69" class="edge">
<title>Node77&#45;&gt;Node84</title>
<path fill="none" stroke="midnightblue" d="M2860.59,-302.48C2908.87,-290.5 2977.38,-273.5 3021.77,-262.49"/>
<polygon fill="midnightblue" stroke="midnightblue" points="3022.82,-265.83 3031.68,-260.03 3021.13,-259.04 3022.82,-265.83"/>
</g>
<!-- Node84&#45;&gt;Node20 -->
<g id="edge80" class="edge">
<title>Node84&#45;&gt;Node20</title>
<path fill="none" stroke="midnightblue" d="M3122.65,-240.98C3149.33,-234.07 3179.33,-221.56 3198.06,-199 3225.12,-166.39 3225.84,-113.46 3223.99,-85.56"/>
<polygon fill="midnightblue" stroke="midnightblue" points="3227.47,-85.25 3223.14,-75.58 3220.5,-85.84 3227.47,-85.25"/>
</g>
<!-- Node84&#45;&gt;Node21 -->
<g id="edge77" class="edge">
<title>Node84&#45;&gt;Node21</title>
<path fill="none" stroke="midnightblue" d="M2985.74,-248.6C2770.6,-245.73 2184.84,-234.76 1995.06,-199 1928.62,-186.48 1854.43,-157.7 1814.76,-141.04"/>
<polygon fill="midnightblue" stroke="midnightblue" points="1816.02,-137.77 1805.45,-137.09 1813.29,-144.22 1816.02,-137.77"/>
</g>
<!-- Node84&#45;&gt;Node22 -->
<g id="edge78" class="edge">
<title>Node84&#45;&gt;Node22</title>
<path fill="none" stroke="midnightblue" d="M3098.76,-240.99C3135.01,-229.9 3185.82,-208.38 3165.06,-179 3113.63,-106.21 3063.31,-130.18 2976.06,-112 2859.16,-87.65 2489.56,-72.56 2371.61,-68.27"/>
<polygon fill="midnightblue" stroke="midnightblue" points="2371.43,-64.76 2361.31,-67.9 2371.18,-71.75 2371.43,-64.76"/>
</g>
<!-- Node84&#45;&gt;Node46 -->
<g id="edge70" class="edge">
<title>Node84&#45;&gt;Node46</title>
<path fill="none" stroke="midnightblue" d="M3048.36,-240.89C3028.41,-231.1 2995.12,-214.45 2967.06,-199 2932.89,-180.19 2894.17,-156.86 2870.43,-142.33"/>
<polygon fill="midnightblue" stroke="midnightblue" points="2872.17,-139.29 2861.82,-137.04 2868.51,-145.25 2872.17,-139.29"/>
</g>
<!-- Node84&#45;&gt;Node16 -->
<g id="edge79" class="edge">
<title>Node84&#45;&gt;Node16</title>
<path fill="none" stroke="midnightblue" d="M3100.63,-240.96C3132.15,-232.49 3179.54,-218.04 3218.06,-199 3287.45,-164.7 3360.71,-108.59 3393.87,-81.95"/>
<polygon fill="midnightblue" stroke="midnightblue" points="3396.2,-84.57 3401.76,-75.55 3391.79,-79.13 3396.2,-84.57"/>
</g>
<!-- Node84&#45;&gt;Node42 -->
<g id="edge71" class="edge">
<title>Node84&#45;&gt;Node42</title>
<path fill="none" stroke="midnightblue" d="M3029.38,-240.98C2983.85,-230.39 2906.16,-212.34 2856.51,-200.8"/>
<polygon fill="midnightblue" stroke="midnightblue" points="2857.2,-197.36 2846.67,-198.51 2855.62,-204.18 2857.2,-197.36"/>
</g>
<!-- Node84&#45;&gt;Node90 -->
<g id="edge72" class="edge">
<title>Node84&#45;&gt;Node90</title>
<path fill="none" stroke="midnightblue" d="M3146.07,-241.44C3254.28,-230.55 3446.96,-211.15 3562.29,-199.54"/>
<polygon fill="midnightblue" stroke="midnightblue" points="3562.92,-203 3572.52,-198.51 3562.22,-196.03 3562.92,-203"/>
</g>
<!-- Node84&#45;&gt;Node126 -->
<g id="edge74" class="edge">
<title>Node84&#45;&gt;Node126</title>
<path fill="none" stroke="midnightblue" d="M3066.06,-240.98C3066.06,-232.58 3066.06,-219.48 3066.06,-208.66"/>
<polygon fill="midnightblue" stroke="midnightblue" points="3069.56,-208.51 3066.06,-198.51 3062.56,-208.51 3069.56,-208.51"/>
</g>
<!-- Node90&#45;&gt;Node94 -->
<g id="edge73" class="edge">
<title>Node90&#45;&gt;Node94</title>
<path fill="none" stroke="midnightblue" d="M3665.94,-179.48C3674.02,-171.72 3686.29,-159.94 3697,-149.66"/>
<polygon fill="midnightblue" stroke="midnightblue" points="3699.65,-151.97 3704.45,-142.52 3694.81,-146.92 3699.65,-151.97"/>
</g>
<!-- Node126&#45;&gt;Node22 -->
<g id="edge76" class="edge">
<title>Node126&#45;&gt;Node22</title>
<path fill="none" stroke="midnightblue" d="M3054.74,-179.45C3032.22,-162.98 2979.61,-127.14 2929.06,-112 2823.73,-80.45 2483.55,-70.26 2371.34,-67.72"/>
<polygon fill="midnightblue" stroke="midnightblue" points="2371.28,-64.22 2361.21,-67.5 2371.13,-71.22 2371.28,-64.22"/>
</g>
<!-- Node126&#45;&gt;Node46 -->
<g id="edge75" class="edge">
<title>Node126&#45;&gt;Node46</title>
<path fill="none" stroke="midnightblue" d="M3034.82,-179.48C2996.46,-169 2931.27,-151.21 2888.95,-139.66"/>
<polygon fill="midnightblue" stroke="midnightblue" points="2889.8,-136.27 2879.23,-137.01 2887.96,-143.02 2889.8,-136.27"/>
</g>
<!-- Node150&#45;&gt;Node2 -->
<g id="edge87" class="edge">
<title>Node150&#45;&gt;Node2</title>
<path fill="none" stroke="midnightblue" d="M2439.41,-369.48C2407.09,-359.14 2352.46,-341.66 2316.33,-330.1"/>
<polygon fill="midnightblue" stroke="midnightblue" points="2317.25,-326.72 2306.66,-327.01 2315.12,-333.39 2317.25,-326.72"/>
</g>
<!-- Node150&#45;&gt;Node3 -->
<g id="edge86" class="edge">
<title>Node150&#45;&gt;Node3</title>
<path fill="none" stroke="midnightblue" d="M2376.06,-369.61C2280.7,-360.69 2125.74,-346.09 1992.06,-333 1717.93,-306.16 1391.64,-272.82 1252.44,-258.53"/>
<polygon fill="midnightblue" stroke="midnightblue" points="1252.65,-255.04 1242.35,-257.5 1251.94,-262 1252.65,-255.04"/>
</g>
<!-- Node150&#45;&gt;Node27 -->
<g id="edge88" class="edge">
<title>Node150&#45;&gt;Node27</title>
<path fill="none" stroke="midnightblue" d="M2402.83,-369.46C2293.79,-354.84 2063.26,-324.44 1868.06,-302 1712.7,-284.14 1664.51,-320.81 1518.06,-266 1495.65,-257.61 1495.68,-245.24 1474.06,-235 1440.73,-219.21 1400.85,-208.05 1368.99,-200.79"/>
<polygon fill="midnightblue" stroke="midnightblue" points="1369.47,-197.31 1358.95,-198.57 1367.96,-204.15 1369.47,-197.31"/>
</g>
<!-- Node150&#45;&gt;Node11 -->
<g id="edge92" class="edge">
<title>Node150&#45;&gt;Node11</title>
<path fill="none" stroke="midnightblue" d="M2375.77,-378.04C2021.21,-377.91 734.91,-374.55 557.06,-333 419.58,-300.88 344.96,-318.04 269.06,-199 239.94,-153.33 307.79,-103.95 346.48,-80.64"/>
<polygon fill="midnightblue" stroke="midnightblue" points="348.3,-83.63 355.16,-75.56 344.76,-77.6 348.3,-83.63"/>
</g>
<!-- Node150&#45;&gt;Node20 -->
<g id="edge96" class="edge">
<title>Node150&#45;&gt;Node20</title>
<path fill="none" stroke="midnightblue" d="M2556.19,-371.47C2719.13,-358.35 3055.08,-324.9 3155.06,-266 3211.46,-232.78 3225.92,-207.67 3236.06,-143 3238.19,-129.39 3238.13,-125.62 3236.06,-112 3234.69,-103 3231.87,-93.33 3229.11,-85.26"/>
<polygon fill="midnightblue" stroke="midnightblue" points="3232.37,-83.98 3225.66,-75.78 3225.79,-86.37 3232.37,-83.98"/>
</g>
<!-- Node150&#45;&gt;Node22 -->
<g id="edge93" class="edge">
<title>Node150&#45;&gt;Node22</title>
<path fill="none" stroke="midnightblue" d="M2474.91,-369.49C2483.29,-360.98 2495.65,-347.16 2503.06,-333 2523.63,-293.69 2532.6,-278.1 2522.06,-235 2507.42,-175.14 2504.35,-152.67 2458.06,-112 2433.63,-90.54 2398.11,-79.01 2371.51,-73.02"/>
<polygon fill="midnightblue" stroke="midnightblue" points="2371.94,-69.53 2361.44,-70.91 2370.51,-76.38 2371.94,-69.53"/>
</g>
<!-- Node150&#45;&gt;Node33 -->
<g id="edge95" class="edge">
<title>Node150&#45;&gt;Node33</title>
<path fill="none" stroke="midnightblue" d="M2375.95,-374.96C2122.62,-366.34 1415.79,-341.81 1311.06,-333 1195.62,-323.29 896.66,-319.8 794.06,-266 766.21,-251.4 708.52,-178.83 682.86,-145.41"/>
<polygon fill="midnightblue" stroke="midnightblue" points="685.36,-142.93 676.52,-137.1 679.8,-147.17 685.36,-142.93"/>
</g>
<!-- Node150&#45;&gt;Node45 -->
<g id="edge97" class="edge">
<title>Node150&#45;&gt;Node45</title>
<path fill="none" stroke="midnightblue" d="M2376.01,-375.24C2059.56,-365.53 1017.31,-333.53 1013.06,-333 944.41,-324.45 762.45,-309.98 709.06,-266 691.57,-251.6 683.11,-226.15 679.19,-208.7"/>
<polygon fill="midnightblue" stroke="midnightblue" points="682.57,-207.73 677.22,-198.58 675.69,-209.07 682.57,-207.73"/>
</g>
<!-- Node150&#45;&gt;Node16 -->
<g id="edge94" class="edge">
<title>Node150&#45;&gt;Node16</title>
<path fill="none" stroke="midnightblue" d="M2556.07,-376.93C2661.76,-374.15 2841.84,-364.68 2993.06,-333 3083.57,-314.04 3105.83,-304.2 3190.06,-266 3279.98,-225.22 3313.66,-220.33 3375.06,-143 3389.13,-125.28 3399.68,-101.33 3405.84,-85.08"/>
<polygon fill="midnightblue" stroke="midnightblue" points="3409.13,-86.26 3409.24,-75.66 3402.55,-83.88 3409.13,-86.26"/>
</g>
<!-- Node150&#45;&gt;Node77 -->
<g id="edge89" class="edge">
<title>Node150&#45;&gt;Node77</title>
<path fill="none" stroke="midnightblue" d="M2514.49,-369.48C2566.9,-360.25 2651.6,-345.34 2715.89,-334.02"/>
<polygon fill="midnightblue" stroke="midnightblue" points="2716.78,-337.42 2726.02,-332.24 2715.57,-330.52 2716.78,-337.42"/>
</g>
<!-- Node150&#45;&gt;Node84 -->
<g id="edge90" class="edge">
<title>Node150&#45;&gt;Node84</title>
<path fill="none" stroke="midnightblue" d="M2489.97,-369.44C2534.23,-353.89 2632.17,-320.88 2717.06,-302 2803.92,-282.68 2904.65,-269.02 2975.51,-260.82"/>
<polygon fill="midnightblue" stroke="midnightblue" points="2976.2,-264.26 2985.74,-259.65 2975.4,-257.31 2976.2,-264.26"/>
</g>
<!-- Node150&#45;&gt;Node90 -->
<g id="edge91" class="edge">
<title>Node150&#45;&gt;Node90</title>
<path fill="none" stroke="midnightblue" d="M2556.15,-376.14C2681.75,-372.55 2916.32,-362.22 3114.06,-333 3246.64,-313.41 3278.55,-300.47 3408.06,-266 3484.72,-245.59 3573.31,-217.44 3621.43,-201.76"/>
<polygon fill="midnightblue" stroke="midnightblue" points="3622.65,-205.05 3631.07,-198.61 3620.47,-198.39 3622.65,-205.05"/>
</g>
<!-- Node157&#45;&gt;Node150 -->
<g id="edge99" class="edge">
<title>Node157&#45;&gt;Node150</title>
<path fill="none" stroke="midnightblue" d="M3242.25,-433.58C3081.82,-422.5 2737.22,-398.72 2566.35,-386.92"/>
<polygon fill="midnightblue" stroke="midnightblue" points="2566.57,-383.43 2556.35,-386.23 2566.09,-390.41 2566.57,-383.43"/>
</g>
<!-- Node157&#45;&gt;Node158 -->
<g id="edge100" class="edge">
<title>Node157&#45;&gt;Node158</title>
<path fill="none" stroke="midnightblue" d="M3390.29,-425.47C3437.99,-414.72 3502.75,-400.13 3545.9,-390.4"/>
<polygon fill="midnightblue" stroke="midnightblue" points="3546.85,-393.78 3555.84,-388.16 3545.31,-386.95 3546.85,-393.78"/>
</g>
<!-- Node166&#45;&gt;Node3 -->
<g id="edge114" class="edge">
<title>Node166&#45;&gt;Node3</title>
<path fill="none" stroke="midnightblue" d="M2228.35,-624C2075.47,-623.1 1749.49,-616.67 1644.06,-579 1444.32,-507.64 1253.63,-322.97 1199.36,-267.49"/>
<polygon fill="midnightblue" stroke="midnightblue" points="1201.84,-265.02 1192.36,-260.27 1196.81,-269.89 1201.84,-265.02"/>
</g>
<!-- Node166&#45;&gt;Node27 -->
<g id="edge115" class="edge">
<title>Node166&#45;&gt;Node27</title>
<path fill="none" stroke="midnightblue" d="M2228.25,-620.94C2142.45,-616.41 2003.32,-605.39 1886.06,-579 1812.55,-562.46 1790.5,-562.03 1726.06,-523 1603.15,-448.55 1611.59,-378.67 1490.06,-302 1452.92,-278.57 1434.61,-290.33 1398.06,-266 1382.1,-255.37 1382.22,-247.92 1368.06,-235 1356.42,-224.39 1342.64,-213.3 1331.67,-204.78"/>
<polygon fill="midnightblue" stroke="midnightblue" points="1333.62,-201.87 1323.56,-198.57 1329.36,-207.43 1333.62,-201.87"/>
</g>
<!-- Node166&#45;&gt;Node11 -->
<g id="edge138" class="edge">
<title>Node166&#45;&gt;Node11</title>
<path fill="none" stroke="midnightblue" d="M2228.31,-621.83C2095.15,-617.61 1821.3,-606.2 1591.06,-579 1102.7,-521.31 964.4,-553.7 501.06,-389 372.21,-343.2 313.21,-324.56 259.06,-199 249.63,-177.13 254.14,-132.62 270.06,-112 282.44,-95.95 301.79,-85.49 320.26,-78.73"/>
<polygon fill="midnightblue" stroke="midnightblue" points="321.43,-82.03 329.79,-75.52 319.2,-75.39 321.43,-82.03"/>
</g>
<!-- Node166&#45;&gt;Node20 -->
<g id="edge141" class="edge">
<title>Node166&#45;&gt;Node20</title>
<path fill="none" stroke="midnightblue" d="M2389.6,-619.01C2657.93,-602.19 3507.6,-547.27 3561.06,-523 3709.87,-455.43 3762.66,-417.46 3824.06,-266 3841.06,-224.06 3850.6,-152.98 3807.06,-112 3796.92,-102.46 3377.35,-76.39 3255.13,-68.98"/>
<polygon fill="midnightblue" stroke="midnightblue" points="3255.09,-65.48 3244.9,-68.37 3254.67,-72.46 3255.09,-65.48"/>
</g>
<!-- Node166&#45;&gt;Node22 -->
<g id="edge139" class="edge">
<title>Node166&#45;&gt;Node22</title>
<path fill="none" stroke="midnightblue" d="M2314.16,-615.35C2324.73,-596.58 2348.06,-550.41 2348.06,-508.5 2348.06,-508.5 2348.06,-508.5 2348.06,-439.5 2348.06,-407.05 2348.73,-395.78 2367.06,-369 2382.32,-346.7 2401.77,-355.94 2416.06,-333 2439.26,-295.76 2433.05,-278.6 2428.06,-235 2421.5,-177.75 2420.85,-158.68 2387.06,-112 2378.63,-100.37 2366.64,-89.73 2356.3,-81.72"/>
<polygon fill="midnightblue" stroke="midnightblue" points="2358.23,-78.79 2348.11,-75.65 2354.06,-84.41 2358.23,-78.79"/>
</g>
<!-- Node166&#45;&gt;Node16 -->
<g id="edge140" class="edge">
<title>Node166&#45;&gt;Node16</title>
<path fill="none" stroke="midnightblue" d="M2389.77,-621.19C2536.52,-615.72 2856.79,-602.1 3126.06,-579 3233.05,-569.82 3504.25,-557.16 3606.06,-523 3661.77,-504.3 3674.74,-493.41 3720.06,-456 3843.95,-353.73 3954.56,-214.74 3831.06,-112 3801.78,-87.65 3543,-73.14 3447.37,-68.57"/>
<polygon fill="midnightblue" stroke="midnightblue" points="3447.48,-65.08 3437.33,-68.1 3447.15,-72.07 3447.48,-65.08"/>
</g>
<!-- Node166&#45;&gt;Node52 -->
<g id="edge116" class="edge">
<title>Node166&#45;&gt;Node52</title>
<path fill="none" stroke="midnightblue" d="M2255.66,-615.44C2195.76,-605.85 2098.69,-590.29 2035.11,-580.1"/>
<polygon fill="midnightblue" stroke="midnightblue" points="2035.63,-576.64 2025.21,-578.52 2034.53,-583.55 2035.63,-576.64"/>
</g>
<!-- Node166&#45;&gt;Node56 -->
<g id="edge119" class="edge">
<title>Node166&#45;&gt;Node56</title>
<path fill="none" stroke="midnightblue" d="M2303.72,-615.32C2292.11,-596.42 2264.34,-551.25 2248.89,-526.12"/>
<polygon fill="midnightblue" stroke="midnightblue" points="2251.67,-523.97 2243.46,-517.28 2245.71,-527.63 2251.67,-523.97"/>
</g>
<!-- Node166&#45;&gt;Node77 -->
<g id="edge117" class="edge">
<title>Node166&#45;&gt;Node77</title>
<path fill="none" stroke="midnightblue" d="M2378.82,-615.44C2481.19,-600.91 2660.06,-567.12 2660.06,-508.5 2660.06,-508.5 2660.06,-508.5 2660.06,-439.5 2660.06,-388.95 2712.71,-355.29 2754.33,-336.58"/>
<polygon fill="midnightblue" stroke="midnightblue" points="2755.77,-339.77 2763.56,-332.59 2752.99,-333.35 2755.77,-339.77"/>
</g>
<!-- Node166&#45;&gt;Node157 -->
<g id="edge118" class="edge">
<title>Node166&#45;&gt;Node157</title>
<path fill="none" stroke="midnightblue" d="M2389.69,-621.42C2538.81,-615.04 2866.78,-593.53 3133.06,-523 3190.61,-507.76 3253.54,-479.1 3291.91,-460.15"/>
<polygon fill="midnightblue" stroke="midnightblue" points="3293.73,-463.15 3301.12,-455.56 3290.61,-456.89 3293.73,-463.15"/>
</g>
<!-- Node166&#45;&gt;Node171 -->
<g id="edge120" class="edge">
<title>Node166&#45;&gt;Node171</title>
<path fill="none" stroke="midnightblue" d="M2228.47,-624.68C2083.05,-624.83 1783.03,-619.97 1688.06,-579 1561.26,-524.3 1562.42,-460.58 1459.06,-369 1445.58,-357.06 1430.1,-343.83 1418.38,-333.91"/>
<polygon fill="midnightblue" stroke="midnightblue" points="1420.49,-331.11 1410.6,-327.33 1415.98,-336.46 1420.49,-331.11"/>
</g>
<!-- Node171&#45;&gt;Node3 -->
<g id="edge121" class="edge">
<title>Node171&#45;&gt;Node3</title>
<path fill="none" stroke="midnightblue" d="M1371.37,-307.87C1333.02,-296.33 1264.93,-275.84 1222.26,-263"/>
<polygon fill="midnightblue" stroke="midnightblue" points="1223.1,-259.59 1212.52,-260.06 1221.08,-266.3 1223.1,-259.59"/>
</g>
<!-- Node171&#45;&gt;Node27 -->
<g id="edge122" class="edge">
<title>Node171&#45;&gt;Node27</title>
<path fill="none" stroke="midnightblue" d="M1394.01,-307.81C1379.63,-287.13 1343.18,-234.73 1324.1,-207.32"/>
<polygon fill="midnightblue" stroke="midnightblue" points="1326.73,-204.97 1318.15,-198.76 1320.99,-208.96 1326.73,-204.97"/>
</g>
<!-- Node171&#45;&gt;Node17 -->
<g id="edge136" class="edge">
<title>Node171&#45;&gt;Node17</title>
<path fill="none" stroke="midnightblue" d="M1319.49,-314.73C1030.41,-308.23 61.1,-285.06 35.06,-266 2.69,-242.31 -10.23,-213 11.06,-179 53.55,-111.13 149.31,-83.77 206.19,-73.21"/>
<polygon fill="midnightblue" stroke="midnightblue" points="207.09,-76.61 216.33,-71.43 205.88,-69.71 207.09,-76.61"/>
</g>
<!-- Node171&#45;&gt;Node22 -->
<g id="edge131" class="edge">
<title>Node171&#45;&gt;Node22</title>
<path fill="none" stroke="midnightblue" d="M1479.05,-308C1538.26,-300.38 1620.83,-287.09 1691.06,-266 1724.04,-256.1 1728.71,-243.55 1762.06,-235 1847.87,-212.99 2094.63,-259.8 2159.06,-199 2187.49,-172.17 2146.14,-141.27 2172.06,-112 2203.82,-76.14 2261.31,-67.71 2298.82,-66.32"/>
<polygon fill="midnightblue" stroke="midnightblue" points="2298.92,-69.81 2308.84,-66.09 2298.76,-62.82 2298.92,-69.81"/>
</g>
<!-- Node171&#45;&gt;Node15 -->
<g id="edge133" class="edge">
<title>Node171&#45;&gt;Node15</title>
<path fill="none" stroke="midnightblue" d="M1319.3,-314.8C1176.44,-310.96 891.28,-299.18 861.06,-266 735,-127.58 1150.16,-80.8 1279.08,-69.79"/>
<polygon fill="midnightblue" stroke="midnightblue" points="1279.58,-73.27 1289.26,-68.95 1279.01,-66.29 1279.58,-73.27"/>
</g>
<!-- Node171&#45;&gt;Node29 -->
<g id="edge134" class="edge">
<title>Node171&#45;&gt;Node29</title>
<path fill="none" stroke="midnightblue" d="M1319.35,-313.57C1171.4,-307.59 868.2,-292.28 828.06,-266 785.51,-238.14 765.1,-177.6 757.19,-147"/>
<polygon fill="midnightblue" stroke="midnightblue" points="760.57,-146.09 754.83,-137.19 753.77,-147.74 760.57,-146.09"/>
</g>
<!-- Node171&#45;&gt;Node30 -->
<g id="edge135" class="edge">
<title>Node171&#45;&gt;Node30</title>
<path fill="none" stroke="midnightblue" d="M1319.46,-313.1C1245.3,-308.1 1143,-295.86 1117.06,-266 1088.16,-232.74 1098.31,-176.03 1106.24,-146.93"/>
<polygon fill="midnightblue" stroke="midnightblue" points="1109.63,-147.81 1109.08,-137.23 1102.91,-145.84 1109.63,-147.81"/>
</g>
<!-- Node171&#45;&gt;Node45 -->
<g id="edge137" class="edge">
<title>Node171&#45;&gt;Node45</title>
<path fill="none" stroke="midnightblue" d="M1319.32,-317.11C1168.63,-317.12 850.9,-311.52 752.06,-266 724.06,-253.1 700.55,-225.2 687.39,-207.03"/>
<polygon fill="midnightblue" stroke="midnightblue" points="690.07,-204.76 681.49,-198.55 684.33,-208.76 690.07,-204.76"/>
</g>
<!-- Node171&#45;&gt;Node42 -->
<g id="edge123" class="edge">
<title>Node171&#45;&gt;Node42</title>
<path fill="none" stroke="midnightblue" d="M1480.67,-309.27C1728.73,-287.01 2478.85,-219.72 2728.36,-197.33"/>
<polygon fill="midnightblue" stroke="midnightblue" points="2728.79,-200.8 2738.44,-196.43 2728.17,-193.83 2728.79,-200.8"/>
</g>
<!-- Node171&#45;&gt;Node48 -->
<g id="edge132" class="edge">
<title>Node171&#45;&gt;Node48</title>
<path fill="none" stroke="midnightblue" d="M1463.53,-307.96C1535.85,-298.15 1657.54,-281.43 1762.06,-266 1768.04,-265.12 2187.7,-203.18 2192.06,-199 2205.68,-185.93 2208.09,-163.69 2207.78,-147.68"/>
<polygon fill="midnightblue" stroke="midnightblue" points="2211.26,-147.13 2207.2,-137.34 2204.27,-147.52 2211.26,-147.13"/>
</g>
<!-- Node171&#45;&gt;Node80 -->
<g id="edge124" class="edge">
<title>Node171&#45;&gt;Node80</title>
<path fill="none" stroke="midnightblue" d="M1427.15,-307.87C1463.22,-296.38 1527.14,-276.01 1567.47,-263.16"/>
<polygon fill="midnightblue" stroke="midnightblue" points="1568.72,-266.43 1577.18,-260.06 1566.59,-259.76 1568.72,-266.43"/>
</g>
<!-- Node80&#45;&gt;Node27 -->
<g id="edge125" class="edge">
<title>Node80&#45;&gt;Node27</title>
<path fill="none" stroke="midnightblue" d="M1562.22,-240.98C1509.86,-230.3 1420.19,-212.03 1363.63,-200.51"/>
<polygon fill="midnightblue" stroke="midnightblue" points="1364.31,-197.08 1353.82,-198.51 1362.92,-203.94 1364.31,-197.08"/>
</g>
<!-- Node80&#45;&gt;Node17 -->
<g id="edge130" class="edge">
<title>Node80&#45;&gt;Node17</title>
<path fill="none" stroke="midnightblue" d="M1526.24,-246.21C1454.72,-243.2 1345.75,-238.68 1251.06,-235 1196.51,-232.88 309.52,-235.65 269.06,-199 237.58,-170.49 242,-114.97 247.01,-85.85"/>
<polygon fill="midnightblue" stroke="midnightblue" points="250.5,-86.26 248.96,-75.78 243.63,-84.93 250.5,-86.26"/>
</g>
<!-- Node80&#45;&gt;Node22 -->
<g id="edge126" class="edge">
<title>Node80&#45;&gt;Node22</title>
<path fill="none" stroke="midnightblue" d="M1588.54,-240.86C1574.51,-232.19 1554.52,-217.48 1544.06,-199 1524.9,-165.17 1508.35,-140.25 1535.06,-112 1561.63,-83.9 2145.88,-70.66 2298.73,-67.67"/>
<polygon fill="midnightblue" stroke="midnightblue" points="2299.05,-71.16 2308.98,-67.47 2298.91,-64.17 2299.05,-71.16"/>
</g>
<!-- Node80&#45;&gt;Node15 -->
<g id="edge127" class="edge">
<title>Node80&#45;&gt;Node15</title>
<path fill="none" stroke="midnightblue" d="M1544.52,-240.97C1509.15,-233.86 1464.61,-221.17 1430.06,-199 1382.64,-168.58 1343.93,-112.65 1326.32,-84.36"/>
<polygon fill="midnightblue" stroke="midnightblue" points="1329.17,-82.32 1320.99,-75.59 1323.19,-85.96 1329.17,-82.32"/>
</g>
<!-- Node80&#45;&gt;Node23 -->
<g id="edge129" class="edge">
<title>Node80&#45;&gt;Node23</title>
<path fill="none" stroke="midnightblue" d="M1623.89,-240.99C1672.72,-220.04 1798.96,-165.87 1856.59,-141.14"/>
<polygon fill="midnightblue" stroke="midnightblue" points="1858.06,-144.32 1865.87,-137.16 1855.3,-137.89 1858.06,-144.32"/>
</g>
<!-- Node80&#45;&gt;Node16 -->
<g id="edge128" class="edge">
<title>Node80&#45;&gt;Node16</title>
<path fill="none" stroke="midnightblue" d="M1681.86,-243.69C1789.33,-235.37 1989.21,-218.87 2159.06,-199 2430.18,-167.29 2495.61,-140.85 2767.06,-112 2886.94,-99.26 3259.72,-76.22 3376.62,-69.13"/>
<polygon fill="midnightblue" stroke="midnightblue" points="3377.04,-72.61 3386.81,-68.52 3376.61,-65.63 3377.04,-72.61"/>
</g>
<!-- Node174&#45;&gt;Node22 -->
<g id="edge146" class="edge">
<title>Node174&#45;&gt;Node22</title>
<path fill="none" stroke="midnightblue" d="M3355.43,-615.37C3356.71,-593.38 3362.29,-534 3386.06,-492 3397.36,-472.03 3414.13,-477.14 3423.06,-456 3428.42,-443.31 3428.28,-437.75 3423.06,-425 3343.11,-229.72 3267.99,-173.25 3066.06,-112 2933.95,-71.93 2500.01,-67.46 2371.33,-67.03"/>
<polygon fill="midnightblue" stroke="midnightblue" points="2371.23,-63.53 2361.22,-67 2371.21,-70.53 2371.23,-63.53"/>
</g>
<!-- Node174&#45;&gt;Node52 -->
<g id="edge143" class="edge">
<title>Node174&#45;&gt;Node52</title>
<path fill="none" stroke="midnightblue" d="M3279.72,-621.06C3042.74,-611.81 2313.23,-583.32 2059.85,-573.43"/>
<polygon fill="midnightblue" stroke="midnightblue" points="2059.72,-569.92 2049.59,-573.03 2059.45,-576.91 2059.72,-569.92"/>
</g>
<!-- Node174&#45;&gt;Node157 -->
<g id="edge144" class="edge">
<title>Node174&#45;&gt;Node157</title>
<path fill="none" stroke="midnightblue" d="M3353.76,-615.2C3349.78,-588.33 3337.71,-506.74 3331.63,-465.67"/>
<polygon fill="midnightblue" stroke="midnightblue" points="3335.08,-465.07 3330.16,-455.69 3328.16,-466.1 3335.08,-465.07"/>
</g>
<!-- Node174&#45;&gt;Node175 -->
<g id="edge145" class="edge">
<title>Node174&#45;&gt;Node175</title>
<path fill="none" stroke="midnightblue" d="M3371.45,-615.32C3387.73,-606.7 3412.93,-593.36 3431.77,-583.39"/>
<polygon fill="midnightblue" stroke="midnightblue" points="3433.51,-586.43 3440.71,-578.65 3430.23,-580.24 3433.51,-586.43"/>
</g>
<!-- Node177&#45;&gt;Node33 -->
<g id="edge151" class="edge">
<title>Node177&#45;&gt;Node33</title>
<path fill="none" stroke="midnightblue" d="M3394.33,-501.85C3270.33,-494.21 3021.99,-477.68 2812.06,-456 2391.19,-412.54 2286.65,-394.62 1868.06,-333 1803.61,-323.51 774.15,-159.2 711.06,-143 708.01,-142.22 704.87,-141.31 701.75,-140.33"/>
<polygon fill="midnightblue" stroke="midnightblue" points="702.56,-136.91 691.97,-137.05 700.34,-143.55 702.56,-136.91"/>
</g>
<!-- Node177&#45;&gt;Node16 -->
<g id="edge150" class="edge">
<title>Node177&#45;&gt;Node16</title>
<path fill="none" stroke="midnightblue" d="M3476.43,-492.16C3483.88,-463.78 3504.59,-400.47 3547.06,-369 3612.25,-320.68 3660.33,-380.59 3726.06,-333 3810.79,-271.65 3876.72,-190.05 3807.06,-112 3783.3,-85.38 3540.14,-72.4 3447.57,-68.4"/>
<polygon fill="midnightblue" stroke="midnightblue" points="3447.45,-64.89 3437.31,-67.96 3447.15,-71.88 3447.45,-64.89"/>
</g>
<!-- Node177&#45;&gt;Node157 -->
<g id="edge149" class="edge">
<title>Node177&#45;&gt;Node157</title>
<path fill="none" stroke="midnightblue" d="M3441.6,-492.4C3420.22,-482.81 3391.75,-470.05 3368.66,-459.7"/>
<polygon fill="midnightblue" stroke="midnightblue" points="3370.02,-456.47 3359.46,-455.58 3367.15,-462.86 3370.02,-456.47"/>
</g>
<!-- Node179&#45;&gt;Node27 -->
<g id="edge153" class="edge">
<title>Node179&#45;&gt;Node27</title>
<path fill="none" stroke="midnightblue" d="M1031.62,-236.22C1097.73,-225.33 1189.94,-210.13 1250.3,-200.18"/>
<polygon fill="midnightblue" stroke="midnightblue" points="1251.15,-203.59 1260.45,-198.51 1250.01,-196.68 1251.15,-203.59"/>
</g>
<!-- Node179&#45;&gt;Node22 -->
<g id="edge154" class="edge">
<title>Node179&#45;&gt;Node22</title>
<path fill="none" stroke="midnightblue" d="M957.41,-235.26C971.41,-205.88 1008,-139.02 1062.06,-112 1118.81,-83.64 2097.05,-69.96 2298.83,-67.43"/>
<polygon fill="midnightblue" stroke="midnightblue" points="2298.95,-70.93 2308.91,-67.31 2298.87,-63.93 2298.95,-70.93"/>
</g>
<!-- Node179&#45;&gt;Node45 -->
<g id="edge155" class="edge">
<title>Node179&#45;&gt;Node45</title>
<path fill="none" stroke="midnightblue" d="M886.23,-235.47C830.81,-223.48 753.28,-206.71 709.54,-197.24"/>
<polygon fill="midnightblue" stroke="midnightblue" points="710.22,-193.81 699.7,-195.12 708.74,-200.65 710.22,-193.81"/>
</g>
<!-- Node180&#45;&gt;Node29 -->
<g id="edge162" class="edge">
<title>Node180&#45;&gt;Node29</title>
<path fill="none" stroke="midnightblue" d="M326.88,-559.48C321.89,-539.19 310.06,-486.36 310.06,-441.5 310.06,-441.5 310.06,-441.5 310.06,-316.5 310.06,-270.99 334.34,-260.47 372.06,-235 404.14,-213.34 670.96,-154.05 708.06,-143 711.03,-142.11 714.1,-141.17 717.19,-140.22"/>
<polygon fill="midnightblue" stroke="midnightblue" points="718.46,-143.48 726.94,-137.13 716.35,-136.81 718.46,-143.48"/>
</g>
<!-- Node191&#45;&gt;Node3 -->
<g id="edge166" class="edge">
<title>Node191&#45;&gt;Node3</title>
<path fill="none" stroke="midnightblue" d="M2820.7,-432.86C2720.11,-423.33 2529.39,-405.15 2367.06,-389 2280.36,-380.38 2258.85,-376.6 2172.06,-369 1952.32,-349.75 1895.56,-363.24 1677.06,-333 1609.19,-323.61 1593.53,-313.9 1526.06,-302 1431.61,-285.34 1321.82,-269.81 1252.64,-260.48"/>
<polygon fill="midnightblue" stroke="midnightblue" points="1252.69,-256.95 1242.31,-259.09 1251.76,-263.89 1252.69,-256.95"/>
</g>
<!-- Node191&#45;&gt;Node20 -->
<g id="edge175" class="edge">
<title>Node191&#45;&gt;Node20</title>
<path fill="none" stroke="midnightblue" d="M2925.5,-425.38C2984.54,-399.98 3106.73,-342.07 3190.06,-266 3234.98,-224.99 3244.17,-203.54 3250.06,-143 3251.39,-129.29 3253.84,-125.25 3250.06,-112 3247.16,-101.84 3241.23,-91.75 3235.57,-83.7"/>
<polygon fill="midnightblue" stroke="midnightblue" points="3238.28,-81.48 3229.47,-75.59 3232.68,-85.69 3238.28,-81.48"/>
</g>
<!-- Node191&#45;&gt;Node22 -->
<g id="edge172" class="edge">
<title>Node191&#45;&gt;Node22</title>
<path fill="none" stroke="midnightblue" d="M2861.7,-425.36C2825.44,-407.08 2762.94,-372.81 2717.06,-333 2674.38,-295.97 2676.09,-274.88 2636.06,-235 2574.98,-174.16 2562.2,-152.44 2486.06,-112 2449.27,-92.46 2402.81,-80.24 2371.21,-73.55"/>
<polygon fill="midnightblue" stroke="midnightblue" points="2371.6,-70.06 2361.1,-71.49 2370.2,-76.92 2371.6,-70.06"/>
</g>
<!-- Node191&#45;&gt;Node15 -->
<g id="edge173" class="edge">
<title>Node191&#45;&gt;Node15</title>
<path fill="none" stroke="midnightblue" d="M2850.98,-425.49C2824.78,-415.97 2789.99,-402.68 2760.06,-389 2521.9,-280.15 2492.49,-181.61 2240.06,-112 2068.64,-64.73 1502.44,-65.57 1352.67,-66.65"/>
<polygon fill="midnightblue" stroke="midnightblue" points="1352.59,-63.15 1342.61,-66.73 1352.64,-70.15 1352.59,-63.15"/>
</g>
<!-- Node191&#45;&gt;Node45 -->
<g id="edge176" class="edge">
<title>Node191&#45;&gt;Node45</title>
<path fill="none" stroke="midnightblue" d="M2821,-435.01C2634.94,-423.17 2112.86,-390.56 1678.06,-369 1483.24,-359.34 988.38,-387.35 801.06,-333 793.91,-330.93 689.15,-272.22 685.06,-266 673.89,-249.05 672.85,-225.27 673.82,-208.84"/>
<polygon fill="midnightblue" stroke="midnightblue" points="677.31,-209.09 674.72,-198.82 670.34,-208.47 677.31,-209.09"/>
</g>
<!-- Node191&#45;&gt;Node46 -->
<g id="edge167" class="edge">
<title>Node191&#45;&gt;Node46</title>
<path fill="none" stroke="midnightblue" d="M2894.72,-425.45C2900.24,-403.02 2910.06,-357.63 2910.06,-318.5 2910.06,-318.5 2910.06,-318.5 2910.06,-249.5 2910.06,-217.05 2906.17,-207.72 2891.06,-179 2884.34,-166.23 2873.9,-153.86 2864.99,-144.56"/>
<polygon fill="midnightblue" stroke="midnightblue" points="2867.22,-141.85 2857.68,-137.25 2862.27,-146.8 2867.22,-141.85"/>
</g>
<!-- Node191&#45;&gt;Node16 -->
<g id="edge174" class="edge">
<title>Node191&#45;&gt;Node16</title>
<path fill="none" stroke="midnightblue" d="M2937.19,-425.42C2965.81,-416.17 3003.09,-403.18 3035.06,-389 3183.11,-323.3 3221.9,-303.02 3346.06,-199 3372.09,-177.19 3382.82,-173.35 3398.06,-143 3407.07,-125.05 3410.33,-102.11 3411.48,-86.15"/>
<polygon fill="midnightblue" stroke="midnightblue" points="3414.99,-86.1 3412,-75.94 3408,-85.75 3414.99,-86.1"/>
</g>
<!-- Node191&#45;&gt;Node77 -->
<g id="edge168" class="edge">
<title>Node191&#45;&gt;Node77</title>
<path fill="none" stroke="midnightblue" d="M2880.74,-425.14C2865.82,-404.4 2838.1,-365.85 2820.39,-341.22"/>
<polygon fill="midnightblue" stroke="midnightblue" points="2823.05,-338.91 2814.37,-332.84 2817.36,-343 2823.05,-338.91"/>
</g>
<!-- Node191&#45;&gt;Node84 -->
<g id="edge170" class="edge">
<title>Node191&#45;&gt;Node84</title>
<path fill="none" stroke="midnightblue" d="M2914.48,-425.44C2929.03,-416.1 2947.63,-403.02 2962.06,-389 3001.63,-350.58 3038.12,-296.22 3055.46,-268.78"/>
<polygon fill="midnightblue" stroke="midnightblue" points="3058.45,-270.61 3060.77,-260.27 3052.51,-266.9 3058.45,-270.61"/>
</g>
<!-- Node191&#45;&gt;Node126 -->
<g id="edge171" class="edge">
<title>Node191&#45;&gt;Node126</title>
<path fill="none" stroke="midnightblue" d="M2901.58,-425.48C2908.61,-415.64 2917.7,-401.98 2924.06,-389 2955.88,-323.98 2929.49,-289.56 2977.06,-235 2990.21,-219.91 3009.63,-209.28 3026.98,-202.15"/>
<polygon fill="midnightblue" stroke="midnightblue" points="3028.27,-205.4 3036.35,-198.54 3025.76,-198.87 3028.27,-205.4"/>
</g>
<!-- Node191&#45;&gt;Node150 -->
<g id="edge169" class="edge">
<title>Node191&#45;&gt;Node150</title>
<path fill="none" stroke="midnightblue" d="M2820.88,-429.67C2742.47,-418.7 2616.22,-401.02 2537.36,-389.98"/>
<polygon fill="midnightblue" stroke="midnightblue" points="2537.42,-386.46 2527.03,-388.54 2536.45,-393.39 2537.42,-386.46"/>
</g>
<!-- Node220&#45;&gt;Node3 -->
<g id="edge178" class="edge">
<title>Node220&#45;&gt;Node3</title>
<path fill="none" stroke="midnightblue" d="M732.16,-306.94C817.86,-297.01 955.36,-280.88 1074.06,-266 1087.59,-264.3 1102.06,-262.44 1115.9,-260.62"/>
<polygon fill="midnightblue" stroke="midnightblue" points="1116.39,-264.09 1125.85,-259.31 1115.48,-257.15 1116.39,-264.09"/>
</g>
<!-- Node220&#45;&gt;Node27 -->
<g id="edge179" class="edge">
<title>Node220&#45;&gt;Node27</title>
<path fill="none" stroke="midnightblue" d="M732.09,-312.06C812.26,-306.31 936.55,-293.54 1041.06,-266 1076.33,-256.7 1082.28,-246.03 1117.06,-235 1162.91,-220.46 1216.2,-208.49 1255.47,-200.55"/>
<polygon fill="midnightblue" stroke="midnightblue" points="1256.27,-203.96 1265.4,-198.58 1254.91,-197.1 1256.27,-203.96"/>
</g>
<!-- Node220&#45;&gt;Node33 -->
<g id="edge180" class="edge">
<title>Node220&#45;&gt;Node33</title>
<path fill="none" stroke="midnightblue" d="M625.59,-302.32C613.43,-293.54 599.76,-281.07 593.06,-266 587.46,-253.41 588.82,-248.11 593.06,-235 604.92,-198.34 634.64,-163.7 653.5,-144.37"/>
<polygon fill="midnightblue" stroke="midnightblue" points="656.22,-146.6 660.83,-137.06 651.27,-141.64 656.22,-146.6"/>
</g>
<!-- Node220&#45;&gt;Node45 -->
<g id="edge181" class="edge">
<title>Node220&#45;&gt;Node45</title>
<path fill="none" stroke="midnightblue" d="M630.46,-302.48C611.42,-286.34 586.4,-258.95 600.06,-235 609.3,-218.78 626.94,-207.81 642.9,-200.77"/>
<polygon fill="midnightblue" stroke="midnightblue" points="644.57,-203.87 652.53,-196.88 641.94,-197.38 644.57,-203.87"/>
</g>
<!-- Node93&#45;&gt;Node11 -->
<g id="edge185" class="edge">
<title>Node93&#45;&gt;Node11</title>
<path fill="none" stroke="midnightblue" d="M344.14,-179.3C348.83,-159.76 360.26,-112.06 366.61,-85.55"/>
<polygon fill="midnightblue" stroke="midnightblue" points="370.06,-86.16 368.99,-75.62 363.26,-84.53 370.06,-86.16"/>
</g>
<!-- Node93&#45;&gt;Node19 -->
<g id="edge186" class="edge">
<title>Node93&#45;&gt;Node19</title>
<path fill="none" stroke="midnightblue" d="M360.11,-179.48C381.26,-169.49 416.5,-152.85 440.94,-141.31"/>
<polygon fill="midnightblue" stroke="midnightblue" points="442.49,-144.44 450.04,-137.01 439.5,-138.11 442.49,-144.44"/>
</g>
<!-- Node93&#45;&gt;Node17 -->
<g id="edge189" class="edge">
<title>Node93&#45;&gt;Node17</title>
<path fill="none" stroke="midnightblue" d="M335.51,-179.3C320.49,-159.33 283.34,-109.92 263.7,-83.8"/>
<polygon fill="midnightblue" stroke="midnightblue" points="266.35,-81.51 257.54,-75.62 260.76,-85.72 266.35,-81.51"/>
</g>
<!-- Node93&#45;&gt;Node22 -->
<g id="edge187" class="edge">
<title>Node93&#45;&gt;Node22</title>
<path fill="none" stroke="midnightblue" d="M389.98,-179.48C432.04,-171.55 494.65,-158.61 548.06,-143 586.25,-131.84 592.98,-119.51 632.06,-112 800.83,-79.55 2067.04,-68.93 2298.72,-67.25"/>
<polygon fill="midnightblue" stroke="midnightblue" points="2298.98,-70.75 2308.96,-67.18 2298.93,-63.75 2298.98,-70.75"/>
</g>
<!-- Node93&#45;&gt;Node33 -->
<g id="edge188" class="edge">
<title>Node93&#45;&gt;Node33</title>
<path fill="none" stroke="midnightblue" d="M389.05,-179.48C454.02,-167.69 570.12,-146.63 630.74,-135.63"/>
<polygon fill="midnightblue" stroke="midnightblue" points="631.47,-139.06 640.69,-133.83 630.22,-132.17 631.47,-139.06"/>
</g>
</g>
</svg>
