<?xml version="1.0" encoding="UTF-8" standalone="no"?>
<!DOCTYPE svg PUBLIC "-//W3C//DTD SVG 1.1//EN"
 "http://www.w3.org/Graphics/SVG/1.1/DTD/svg11.dtd">
<!-- Generated by graphviz version 2.43.0 (0)
 -->
<!-- Title: include/llvm/DebugInfo/CodeView/StringsAndChecksums.h Pages: 1 -->
<svg width="928pt" height="173pt"
 viewBox="0.00 0.00 927.50 173.00" xmlns="http://www.w3.org/2000/svg" xmlns:xlink="http://www.w3.org/1999/xlink">
<g id="graph0" class="graph" transform="scale(1 1) rotate(0) translate(4 169)">
<title>include/llvm/DebugInfo/CodeView/StringsAndChecksums.h</title>
<!-- Node1 -->
<g id="node1" class="node">
<title>Node1</title>
<g id="a_node1"><a xlink:title=" ">
<polygon fill="#bfbfbf" stroke="black" points="353,-134.5 353,-164.5 542,-164.5 542,-134.5 353,-134.5"/>
<text text-anchor="start" x="361" y="-152.5" font-family="Helvetica,sans-Serif" font-size="10.00">include/llvm/DebugInfo</text>
<text text-anchor="middle" x="447.5" y="-141.5" font-family="Helvetica,sans-Serif" font-size="10.00">/CodeView/StringsAndChecksums.h</text>
</a>
</g>
</g>
<!-- Node2 -->
<g id="node2" class="node">
<title>Node2</title>
<g id="a_node2"><a xlink:href="DebugSubsectionVisitor_8h.html" target="_top" xlink:title=" ">
<polygon fill="none" stroke="black" points="139.5,-67.5 139.5,-97.5 335.5,-97.5 335.5,-67.5 139.5,-67.5"/>
<text text-anchor="start" x="147.5" y="-85.5" font-family="Helvetica,sans-Serif" font-size="10.00">include/llvm/DebugInfo</text>
<text text-anchor="middle" x="237.5" y="-74.5" font-family="Helvetica,sans-Serif" font-size="10.00">/CodeView/DebugSubsectionVisitor.h</text>
</a>
</g>
</g>
<!-- Node1&#45;&gt;Node2 -->
<g id="edge1" class="edge">
<title>Node1&#45;&gt;Node2</title>
<path fill="none" stroke="midnightblue" d="M392.4,-131.44C358.36,-120.91 315.2,-107.55 283.09,-97.61"/>
<polygon fill="midnightblue" stroke="midnightblue" points="391.6,-134.86 402.19,-134.48 393.67,-128.18 391.6,-134.86"/>
</g>
<!-- Node4 -->
<g id="node4" class="node">
<title>Node4</title>
<g id="a_node4"><a xlink:href="CodeViewYAMLDebugSections_8cpp.html" target="_top" xlink:title=" ">
<polygon fill="none" stroke="black" points="173,-0.5 173,-30.5 372,-30.5 372,-0.5 173,-0.5"/>
<text text-anchor="start" x="181" y="-18.5" font-family="Helvetica,sans-Serif" font-size="10.00">lib/ObjectYAML/CodeViewYAMLDebug</text>
<text text-anchor="middle" x="272.5" y="-7.5" font-family="Helvetica,sans-Serif" font-size="10.00">Sections.cpp</text>
</a>
</g>
</g>
<!-- Node1&#45;&gt;Node4 -->
<g id="edge9" class="edge">
<title>Node1&#45;&gt;Node4</title>
<path fill="none" stroke="midnightblue" d="M422.28,-127.87C401.62,-111.14 371.5,-87.12 344.5,-67 327.48,-54.32 307.72,-40.52 293.21,-30.56"/>
<polygon fill="midnightblue" stroke="midnightblue" points="420.27,-130.76 430.24,-134.35 424.69,-125.32 420.27,-130.76"/>
</g>
<!-- Node5 -->
<g id="node5" class="node">
<title>Node5</title>
<g id="a_node5"><a xlink:href="InputFile_8h.html" target="_top" xlink:title=" ">
<polygon fill="none" stroke="black" points="429.5,-67.5 429.5,-97.5 559.5,-97.5 559.5,-67.5 429.5,-67.5"/>
<text text-anchor="start" x="437.5" y="-85.5" font-family="Helvetica,sans-Serif" font-size="10.00">include/llvm/DebugInfo</text>
<text text-anchor="middle" x="494.5" y="-74.5" font-family="Helvetica,sans-Serif" font-size="10.00">/PDB/Native/InputFile.h</text>
</a>
</g>
</g>
<!-- Node1&#45;&gt;Node5 -->
<g id="edge4" class="edge">
<title>Node1&#45;&gt;Node5</title>
<path fill="none" stroke="midnightblue" d="M463.66,-126.16C470.51,-116.68 478.29,-105.92 484.32,-97.58"/>
<polygon fill="midnightblue" stroke="midnightblue" points="460.72,-124.24 457.7,-134.4 466.39,-128.34 460.72,-124.24"/>
</g>
<!-- Node6 -->
<g id="node6" class="node">
<title>Node6</title>
<g id="a_node6"><a xlink:href="InputFile_8cpp.html" target="_top" xlink:title=" ">
<polygon fill="none" stroke="black" points="390.5,-0.5 390.5,-30.5 530.5,-30.5 530.5,-0.5 390.5,-0.5"/>
<text text-anchor="start" x="398.5" y="-18.5" font-family="Helvetica,sans-Serif" font-size="10.00">lib/DebugInfo/PDB/Native</text>
<text text-anchor="middle" x="460.5" y="-7.5" font-family="Helvetica,sans-Serif" font-size="10.00">/InputFile.cpp</text>
</a>
</g>
</g>
<!-- Node1&#45;&gt;Node6 -->
<g id="edge8" class="edge">
<title>Node1&#45;&gt;Node6</title>
<path fill="none" stroke="midnightblue" d="M431.59,-125.46C422.31,-109.11 413.66,-86.65 420.5,-67 425.35,-53.06 435.84,-40.07 444.85,-30.75"/>
<polygon fill="midnightblue" stroke="midnightblue" points="428.81,-127.62 437.01,-134.32 434.78,-123.97 428.81,-127.62"/>
</g>
<!-- Node8 -->
<g id="node8" class="node">
<title>Node8</title>
<g id="a_node8"><a xlink:href="StringsAndChecksums_8cpp.html" target="_top" xlink:title=" ">
<polygon fill="none" stroke="black" points="578,-67.5 578,-97.5 727,-97.5 727,-67.5 578,-67.5"/>
<text text-anchor="start" x="586" y="-85.5" font-family="Helvetica,sans-Serif" font-size="10.00">lib/DebugInfo/CodeView</text>
<text text-anchor="middle" x="652.5" y="-74.5" font-family="Helvetica,sans-Serif" font-size="10.00">/StringsAndChecksums.cpp</text>
</a>
</g>
</g>
<!-- Node1&#45;&gt;Node8 -->
<g id="edge7" class="edge">
<title>Node1&#45;&gt;Node8</title>
<path fill="none" stroke="midnightblue" d="M501.29,-131.44C534.52,-120.91 576.65,-107.55 608,-97.61"/>
<polygon fill="midnightblue" stroke="midnightblue" points="500.2,-128.12 491.73,-134.48 502.32,-134.79 500.2,-128.12"/>
</g>
<!-- Node9 -->
<g id="node9" class="node">
<title>Node9</title>
<g id="a_node9"><a xlink:href="COFFEmitter_8cpp.html" target="_top" xlink:title=" ">
<polygon fill="none" stroke="black" points="745.5,-73 745.5,-92 919.5,-92 919.5,-73 745.5,-73"/>
<text text-anchor="middle" x="832.5" y="-80" font-family="Helvetica,sans-Serif" font-size="10.00">lib/ObjectYAML/COFFEmitter.cpp</text>
</a>
</g>
</g>
<!-- Node1&#45;&gt;Node9 -->
<g id="edge10" class="edge">
<title>Node1&#45;&gt;Node9</title>
<path fill="none" stroke="midnightblue" d="M540.61,-132.78C616.5,-119.97 720.8,-102.36 781.98,-92.03"/>
<polygon fill="midnightblue" stroke="midnightblue" points="539.84,-129.36 530.57,-134.48 541.01,-136.26 539.84,-129.36"/>
</g>
<!-- Node3 -->
<g id="node3" class="node">
<title>Node3</title>
<g id="a_node3"><a xlink:href="DebugSubsectionVisitor_8cpp.html" target="_top" xlink:title=" ">
<polygon fill="none" stroke="black" points="0,-0.5 0,-30.5 155,-30.5 155,-0.5 0,-0.5"/>
<text text-anchor="start" x="8" y="-18.5" font-family="Helvetica,sans-Serif" font-size="10.00">lib/DebugInfo/CodeView</text>
<text text-anchor="middle" x="77.5" y="-7.5" font-family="Helvetica,sans-Serif" font-size="10.00">/DebugSubsectionVisitor.cpp</text>
</a>
</g>
</g>
<!-- Node2&#45;&gt;Node3 -->
<g id="edge2" class="edge">
<title>Node2&#45;&gt;Node3</title>
<path fill="none" stroke="midnightblue" d="M193.3,-63.54C167.7,-53.14 135.93,-40.24 112.15,-30.58"/>
<polygon fill="midnightblue" stroke="midnightblue" points="192.2,-66.87 202.78,-67.4 194.84,-60.39 192.2,-66.87"/>
</g>
<!-- Node2&#45;&gt;Node4 -->
<g id="edge3" class="edge">
<title>Node2&#45;&gt;Node4</title>
<path fill="none" stroke="midnightblue" d="M249.84,-58.58C254.87,-49.24 260.52,-38.75 264.92,-30.58"/>
<polygon fill="midnightblue" stroke="midnightblue" points="246.75,-56.93 245.09,-67.4 252.92,-60.25 246.75,-56.93"/>
</g>
<!-- Node5&#45;&gt;Node6 -->
<g id="edge5" class="edge">
<title>Node5&#45;&gt;Node6</title>
<path fill="none" stroke="midnightblue" d="M482.36,-58.28C477.51,-49.02 472.09,-38.66 467.86,-30.58"/>
<polygon fill="midnightblue" stroke="midnightblue" points="479.39,-60.16 487.12,-67.4 485.59,-56.91 479.39,-60.16"/>
</g>
<!-- Node7 -->
<g id="node7" class="node">
<title>Node7</title>
<g id="a_node7"><a xlink:href="LinePrinter_8cpp.html" target="_top" xlink:title=" ">
<polygon fill="none" stroke="black" points="548.5,-0.5 548.5,-30.5 688.5,-30.5 688.5,-0.5 548.5,-0.5"/>
<text text-anchor="start" x="556.5" y="-18.5" font-family="Helvetica,sans-Serif" font-size="10.00">lib/DebugInfo/PDB/Native</text>
<text text-anchor="middle" x="618.5" y="-7.5" font-family="Helvetica,sans-Serif" font-size="10.00">/LinePrinter.cpp</text>
</a>
</g>
</g>
<!-- Node5&#45;&gt;Node7 -->
<g id="edge6" class="edge">
<title>Node5&#45;&gt;Node7</title>
<path fill="none" stroke="midnightblue" d="M530.34,-62.71C549.89,-52.46 573.7,-39.98 591.65,-30.58"/>
<polygon fill="midnightblue" stroke="midnightblue" points="528.64,-59.65 521.41,-67.4 531.89,-65.85 528.64,-59.65"/>
</g>
</g>
</svg>
