<?xml version="1.0" encoding="UTF-8" standalone="no"?>
<!DOCTYPE svg PUBLIC "-//W3C//DTD SVG 1.1//EN"
 "http://www.w3.org/Graphics/SVG/1.1/DTD/svg11.dtd">
<!-- Generated by graphviz version 2.43.0 (0)
 -->
<!-- Title: llvm::support::endian::Writer Pages: 1 -->
<svg width="219pt" height="283pt"
 viewBox="0.00 0.00 219.00 283.00" xmlns="http://www.w3.org/2000/svg" xmlns:xlink="http://www.w3.org/1999/xlink">
<g id="graph0" class="graph" transform="scale(1 1) rotate(0) translate(4 279)">
<title>llvm::support::endian::Writer</title>
<!-- Node1 -->
<g id="node1" class="node">
<title>Node1</title>
<g id="a_node1"><a xlink:title="Adapter to write values to a stream in a particular byte order.">
<polygon fill="#bfbfbf" stroke="black" points="18,-0.5 18,-30.5 138,-30.5 138,-0.5 18,-0.5"/>
<text text-anchor="start" x="26" y="-18.5" font-family="Helvetica,sans-Serif" font-size="10.00">llvm::support::endian</text>
<text text-anchor="middle" x="78" y="-7.5" font-family="Helvetica,sans-Serif" font-size="10.00">::Writer</text>
</a>
</g>
</g>
<!-- Node2 -->
<g id="node2" class="node">
<title>Node2</title>
<g id="a_node2"><a xlink:title=" ">
<polygon fill="none" stroke="#bfbfbf" points="0,-78.5 0,-97.5 72,-97.5 72,-78.5 0,-78.5"/>
<text text-anchor="middle" x="36" y="-85.5" font-family="Helvetica,sans-Serif" font-size="10.00">endianness</text>
</a>
</g>
</g>
<!-- Node2&#45;&gt;Node1 -->
<g id="edge1" class="edge">
<title>Node2&#45;&gt;Node1</title>
<path fill="none" stroke="#9a32cd" stroke-dasharray="5,2" d="M46.32,-69.68C53.48,-57.65 62.91,-41.83 69.61,-30.58"/>
<polygon fill="#9a32cd" stroke="#9a32cd" points="43.26,-67.97 41.15,-78.36 49.27,-71.56 43.26,-67.97"/>
<text text-anchor="middle" x="76.5" y="-52" font-family="Helvetica,sans-Serif" font-size="10.00"> Endian</text>
</g>
<!-- Node3 -->
<g id="node3" class="node">
<title>Node3</title>
<g id="a_node3"><a xlink:href="classllvm_1_1raw__ostream.html" target="_top" xlink:title="This class implements an extremely fast bulk output stream that can only output to a stream.">
<polygon fill="none" stroke="black" points="90,-78.5 90,-97.5 198,-97.5 198,-78.5 90,-78.5"/>
<text text-anchor="middle" x="144" y="-85.5" font-family="Helvetica,sans-Serif" font-size="10.00">llvm::raw_ostream</text>
</a>
</g>
</g>
<!-- Node3&#45;&gt;Node1 -->
<g id="edge2" class="edge">
<title>Node3&#45;&gt;Node1</title>
<path fill="none" stroke="#9a32cd" stroke-dasharray="5,2" d="M128.78,-70.74C117.41,-58.6 102.02,-42.16 91.18,-30.58"/>
<polygon fill="#9a32cd" stroke="#9a32cd" points="126.52,-73.45 135.91,-78.36 131.63,-68.66 126.52,-73.45"/>
<text text-anchor="middle" x="124.5" y="-52" font-family="Helvetica,sans-Serif" font-size="10.00"> OS</text>
</g>
<!-- Node4 -->
<g id="node4" class="node">
<title>Node4</title>
<g id="a_node4"><a xlink:title=" ">
<polygon fill="none" stroke="#bfbfbf" points="80,-255.5 80,-274.5 208,-274.5 208,-255.5 80,-255.5"/>
<text text-anchor="middle" x="144" y="-262.5" font-family="Helvetica,sans-Serif" font-size="10.00">static constexpr Colors</text>
</a>
</g>
</g>
<!-- Node4&#45;&gt;Node3 -->
<g id="edge3" class="edge">
<title>Node4&#45;&gt;Node3</title>
<path fill="none" stroke="#9a32cd" stroke-dasharray="5,2" d="M144,-244.95C144,-207.3 144,-124.65 144,-97.69"/>
<polygon fill="#9a32cd" stroke="#9a32cd" points="140.5,-245.08 144,-255.08 147.5,-245.08 140.5,-245.08"/>
<text text-anchor="middle" x="177.5" y="-229" font-family="Helvetica,sans-Serif" font-size="10.00"> CYAN</text>
<text text-anchor="middle" x="177.5" y="-218" font-family="Helvetica,sans-Serif" font-size="10.00">WHITE</text>
<text text-anchor="middle" x="177.5" y="-207" font-family="Helvetica,sans-Serif" font-size="10.00">MAGENTA</text>
<text text-anchor="middle" x="177.5" y="-196" font-family="Helvetica,sans-Serif" font-size="10.00">YELLOW</text>
<text text-anchor="middle" x="177.5" y="-185" font-family="Helvetica,sans-Serif" font-size="10.00">RESET</text>
<text text-anchor="middle" x="177.5" y="-174" font-family="Helvetica,sans-Serif" font-size="10.00">SAVEDCOLOR</text>
<text text-anchor="middle" x="177.5" y="-163" font-family="Helvetica,sans-Serif" font-size="10.00">BLUE</text>
<text text-anchor="middle" x="177.5" y="-152" font-family="Helvetica,sans-Serif" font-size="10.00">BLACK</text>
<text text-anchor="middle" x="177.5" y="-141" font-family="Helvetica,sans-Serif" font-size="10.00">RED</text>
<text text-anchor="middle" x="177.5" y="-130" font-family="Helvetica,sans-Serif" font-size="10.00">GREEN</text>
<text text-anchor="middle" x="177.5" y="-119" font-family="Helvetica,sans-Serif" font-size="10.00">...</text>
</g>
</g>
</svg>
