<?xml version="1.0" encoding="UTF-8" standalone="no"?>
<!DOCTYPE svg PUBLIC "-//W3C//DTD SVG 1.1//EN"
 "http://www.w3.org/Graphics/SVG/1.1/DTD/svg11.dtd">
<!-- Generated by graphviz version 2.43.0 (0)
 -->
<!-- Title: llvm::ARMRegisterInfo Pages: 1 -->
<svg width="206pt" height="152pt"
 viewBox="0.00 0.00 205.50 152.00" xmlns="http://www.w3.org/2000/svg" xmlns:xlink="http://www.w3.org/1999/xlink">
<g id="graph0" class="graph" transform="scale(1 1) rotate(0) translate(4 148)">
<title>llvm::ARMRegisterInfo</title>
<!-- Node1 -->
<g id="node1" class="node">
<title>Node1</title>
<g id="a_node1"><a xlink:title=" ">
<polygon fill="#bfbfbf" stroke="black" points="50,-0.5 50,-19.5 176,-19.5 176,-0.5 50,-0.5"/>
<text text-anchor="middle" x="113" y="-7.5" font-family="Helvetica,sans-Serif" font-size="10.00">llvm::ARMRegisterInfo</text>
</a>
</g>
</g>
<!-- Node2 -->
<g id="node2" class="node">
<title>Node2</title>
<g id="a_node2"><a xlink:href="classllvm_1_1ARMBaseRegisterInfo.html" target="_top" xlink:title=" ">
<polygon fill="none" stroke="black" points="38,-57.5 38,-76.5 188,-76.5 188,-57.5 38,-57.5"/>
<text text-anchor="middle" x="113" y="-64.5" font-family="Helvetica,sans-Serif" font-size="10.00">llvm::ARMBaseRegisterInfo</text>
</a>
</g>
</g>
<!-- Node2&#45;&gt;Node1 -->
<g id="edge1" class="edge">
<title>Node2&#45;&gt;Node1</title>
<path fill="none" stroke="midnightblue" d="M113,-47.12C113,-37.82 113,-27.06 113,-19.71"/>
<polygon fill="midnightblue" stroke="midnightblue" points="109.5,-47.41 113,-57.41 116.5,-47.41 109.5,-47.41"/>
</g>
<!-- Node3 -->
<g id="node3" class="node">
<title>Node3</title>
<g id="a_node3"><a xlink:href="classARMGenRegisterInfo.html" target="_top" xlink:title=" ">
<polygon fill="none" stroke="black" points="0,-124.5 0,-143.5 118,-143.5 118,-124.5 0,-124.5"/>
<text text-anchor="middle" x="59" y="-131.5" font-family="Helvetica,sans-Serif" font-size="10.00">ARMGenRegisterInfo</text>
</a>
</g>
</g>
<!-- Node3&#45;&gt;Node2 -->
<g id="edge2" class="edge">
<title>Node3&#45;&gt;Node2</title>
<path fill="none" stroke="midnightblue" d="M72.9,-116.27C83.43,-103.6 97.46,-86.7 105.83,-76.63"/>
<polygon fill="midnightblue" stroke="midnightblue" points="69.98,-114.31 66.28,-124.23 75.37,-118.78 69.98,-114.31"/>
</g>
<!-- Node4 -->
<g id="node4" class="node">
<title>Node4</title>
<g id="a_node4"><a xlink:title=" ">
<polygon fill="none" stroke="#bfbfbf" points="136.5,-124.5 136.5,-143.5 197.5,-143.5 197.5,-124.5 136.5,-124.5"/>
<text text-anchor="middle" x="167" y="-131.5" font-family="Helvetica,sans-Serif" font-size="10.00">unsigned</text>
</a>
</g>
</g>
<!-- Node4&#45;&gt;Node2 -->
<g id="edge3" class="edge">
<title>Node4&#45;&gt;Node2</title>
<path fill="none" stroke="#9a32cd" stroke-dasharray="5,2" d="M153.1,-116.27C142.57,-103.6 128.54,-86.7 120.17,-76.63"/>
<polygon fill="#9a32cd" stroke="#9a32cd" points="150.63,-118.78 159.72,-124.23 156.02,-114.31 150.63,-118.78"/>
<text text-anchor="middle" x="163.5" y="-98" font-family="Helvetica,sans-Serif" font-size="10.00"> BasePtr</text>
</g>
</g>
</svg>
