<?xml version="1.0" encoding="UTF-8" standalone="no"?>
<!DOCTYPE svg PUBLIC "-//W3C//DTD SVG 1.1//EN"
 "http://www.w3.org/Graphics/SVG/1.1/DTD/svg11.dtd">
<!-- Generated by graphviz version 2.43.0 (0)
 -->
<!-- Title: llvm::object::WinResHeaderSuffix Pages: 1 -->
<svg width="411pt" height="110pt"
 viewBox="0.00 0.00 411.00 110.00" xmlns="http://www.w3.org/2000/svg" xmlns:xlink="http://www.w3.org/1999/xlink">
<g id="graph0" class="graph" transform="scale(1 1) rotate(0) translate(4 106)">
<title>llvm::object::WinResHeaderSuffix</title>
<!-- Node1 -->
<g id="node1" class="node">
<title>Node1</title>
<g id="a_node1"><a xlink:title=" ">
<polygon fill="#bfbfbf" stroke="black" points="251,-36 251,-66 403,-66 403,-36 251,-36"/>
<text text-anchor="start" x="259" y="-54" font-family="Helvetica,sans-Serif" font-size="10.00">llvm::object::WinResHeader</text>
<text text-anchor="middle" x="327" y="-43" font-family="Helvetica,sans-Serif" font-size="10.00">Suffix</text>
</a>
</g>
</g>
<!-- Node2 -->
<g id="node2" class="node">
<title>Node2</title>
<g id="a_node2"><a xlink:title=" ">
<polygon fill="none" stroke="#bfbfbf" points="0,-60.5 0,-101.5 142,-101.5 142,-60.5 0,-60.5"/>
<text text-anchor="start" x="8" y="-89.5" font-family="Helvetica,sans-Serif" font-size="10.00">packed_endian_specific</text>
<text text-anchor="start" x="8" y="-78.5" font-family="Helvetica,sans-Serif" font-size="10.00">_integral&lt; uint16_t, little,</text>
<text text-anchor="middle" x="71" y="-67.5" font-family="Helvetica,sans-Serif" font-size="10.00"> unaligned &gt;</text>
</a>
</g>
</g>
<!-- Node2&#45;&gt;Node1 -->
<g id="edge1" class="edge">
<title>Node2&#45;&gt;Node1</title>
<path fill="none" stroke="#9a32cd" stroke-dasharray="5,2" d="M152.16,-71.53C183.71,-67.81 219.76,-63.55 250.81,-59.88"/>
<polygon fill="#9a32cd" stroke="#9a32cd" points="151.6,-68.07 142.08,-72.72 152.42,-75.03 151.6,-68.07"/>
<text text-anchor="middle" x="196.5" y="-84" font-family="Helvetica,sans-Serif" font-size="10.00"> MemoryFlags</text>
<text text-anchor="middle" x="196.5" y="-73" font-family="Helvetica,sans-Serif" font-size="10.00">Language</text>
</g>
<!-- Node3 -->
<g id="node3" class="node">
<title>Node3</title>
<g id="a_node3"><a xlink:title=" ">
<polygon fill="none" stroke="#bfbfbf" points="0,-0.5 0,-41.5 142,-41.5 142,-0.5 0,-0.5"/>
<text text-anchor="start" x="8" y="-29.5" font-family="Helvetica,sans-Serif" font-size="10.00">packed_endian_specific</text>
<text text-anchor="start" x="8" y="-18.5" font-family="Helvetica,sans-Serif" font-size="10.00">_integral&lt; uint32_t, little,</text>
<text text-anchor="middle" x="71" y="-7.5" font-family="Helvetica,sans-Serif" font-size="10.00"> unaligned &gt;</text>
</a>
</g>
</g>
<!-- Node3&#45;&gt;Node1 -->
<g id="edge2" class="edge">
<title>Node3&#45;&gt;Node1</title>
<path fill="none" stroke="#9a32cd" stroke-dasharray="5,2" d="M152.21,-19.09C178.12,-19.52 206.88,-21.09 233,-25 248.75,-27.36 265.62,-31.55 280.61,-35.88"/>
<polygon fill="#9a32cd" stroke="#9a32cd" points="152.1,-15.59 142.06,-18.98 152.03,-22.59 152.1,-15.59"/>
<text text-anchor="middle" x="196.5" y="-50" font-family="Helvetica,sans-Serif" font-size="10.00"> DataVersion</text>
<text text-anchor="middle" x="196.5" y="-39" font-family="Helvetica,sans-Serif" font-size="10.00">Characteristics</text>
<text text-anchor="middle" x="196.5" y="-28" font-family="Helvetica,sans-Serif" font-size="10.00">Version</text>
</g>
</g>
</svg>
