<?xml version="1.0" encoding="UTF-8" standalone="no"?>
<!DOCTYPE svg PUBLIC "-//W3C//DTD SVG 1.1//EN"
 "http://www.w3.org/Graphics/SVG/1.1/DTD/svg11.dtd">
<!-- Generated by graphviz version 2.43.0 (0)
 -->
<!-- Title: llvm::ms_demangle::DynamicStructorIdentifierNode Pages: 1 -->
<svg width="1224pt" height="243pt"
 viewBox="0.00 0.00 1224.00 243.00" xmlns="http://www.w3.org/2000/svg" xmlns:xlink="http://www.w3.org/1999/xlink">
<g id="graph0" class="graph" transform="scale(1 1) rotate(0) translate(4 239)">
<title>llvm::ms_demangle::DynamicStructorIdentifierNode</title>
<!-- Node1 -->
<g id="node1" class="node">
<title>Node1</title>
<g id="a_node1"><a xlink:title=" ">
<polygon fill="#bfbfbf" stroke="black" points="1049,-115 1049,-145 1216,-145 1216,-115 1049,-115"/>
<text text-anchor="start" x="1057" y="-133" font-family="Helvetica,sans-Serif" font-size="10.00">llvm::ms_demangle::</text>
<text text-anchor="middle" x="1132.5" y="-122" font-family="Helvetica,sans-Serif" font-size="10.00">DynamicStructorIdentifierNode</text>
</a>
</g>
</g>
<!-- Node2 -->
<g id="node2" class="node">
<title>Node2</title>
<g id="a_node2"><a xlink:href="structllvm_1_1ms__demangle_1_1IdentifierNode.html" target="_top" xlink:title=" ">
<polygon fill="none" stroke="black" points="455,-166 455,-196 574,-196 574,-166 455,-166"/>
<text text-anchor="start" x="463" y="-184" font-family="Helvetica,sans-Serif" font-size="10.00">llvm::ms_demangle::</text>
<text text-anchor="middle" x="514.5" y="-173" font-family="Helvetica,sans-Serif" font-size="10.00">IdentifierNode</text>
</a>
</g>
</g>
<!-- Node2&#45;&gt;Node1 -->
<g id="edge1" class="edge">
<title>Node2&#45;&gt;Node1</title>
<path fill="none" stroke="midnightblue" d="M584.54,-177.51C683.56,-172.18 871.56,-160.81 1031,-144 1036.78,-143.39 1042.74,-142.71 1048.74,-141.97"/>
<polygon fill="midnightblue" stroke="midnightblue" points="584.17,-174.03 574.37,-178.06 584.54,-181.02 584.17,-174.03"/>
</g>
<!-- Node3 -->
<g id="node3" class="node">
<title>Node3</title>
<g id="a_node3"><a xlink:href="structllvm_1_1ms__demangle_1_1Node.html" target="_top" xlink:title=" ">
<polygon fill="none" stroke="black" points="0,-101.5 0,-120.5 145,-120.5 145,-101.5 0,-101.5"/>
<text text-anchor="middle" x="72.5" y="-108.5" font-family="Helvetica,sans-Serif" font-size="10.00">llvm::ms_demangle::Node</text>
</a>
</g>
</g>
<!-- Node3&#45;&gt;Node2 -->
<g id="edge2" class="edge">
<title>Node3&#45;&gt;Node2</title>
<path fill="none" stroke="midnightblue" d="M99.65,-125.61C117.22,-135.06 141.08,-147.19 163,-156 259.65,-194.85 383.3,-193 454.94,-187.45"/>
<polygon fill="midnightblue" stroke="midnightblue" points="101.05,-122.39 90.59,-120.68 97.7,-128.53 101.05,-122.39"/>
</g>
<!-- Node4 -->
<g id="node4" class="node">
<title>Node4</title>
<g id="a_node4"><a xlink:href="structllvm_1_1ms__demangle_1_1NodeArrayNode.html" target="_top" xlink:title=" ">
<polygon fill="none" stroke="black" points="215,-133 215,-163 334,-163 334,-133 215,-133"/>
<text text-anchor="start" x="223" y="-151" font-family="Helvetica,sans-Serif" font-size="10.00">llvm::ms_demangle::</text>
<text text-anchor="middle" x="274.5" y="-140" font-family="Helvetica,sans-Serif" font-size="10.00">NodeArrayNode</text>
</a>
</g>
</g>
<!-- Node3&#45;&gt;Node4 -->
<g id="edge4" class="edge">
<title>Node3&#45;&gt;Node4</title>
<path fill="none" stroke="midnightblue" d="M134.89,-122.36C160.3,-127.06 189.62,-132.48 214.74,-137.13"/>
<polygon fill="midnightblue" stroke="midnightblue" points="135.47,-118.91 125,-120.53 134.2,-125.79 135.47,-118.91"/>
</g>
<!-- Node3&#45;&gt;Node4 -->
<g id="edge5" class="edge">
<title>Node3&#45;&gt;Node4</title>
<path fill="none" stroke="#9a32cd" stroke-dasharray="5,2" d="M114.76,-123.4C129.83,-127.58 147.08,-131.95 163,-135 179.69,-138.2 197.97,-140.74 214.76,-142.69"/>
<polygon fill="#9a32cd" stroke="#9a32cd" points="115.3,-119.92 104.72,-120.56 113.39,-126.65 115.3,-119.92"/>
<text text-anchor="middle" x="180" y="-144" font-family="Helvetica,sans-Serif" font-size="10.00"> Nodes</text>
</g>
<!-- Node6 -->
<g id="node6" class="node">
<title>Node6</title>
<g id="a_node6"><a xlink:href="structllvm_1_1ms__demangle_1_1QualifiedNameNode.html" target="_top" xlink:title=" ">
<polygon fill="none" stroke="black" points="455,-104 455,-134 574,-134 574,-104 455,-104"/>
<text text-anchor="start" x="463" y="-122" font-family="Helvetica,sans-Serif" font-size="10.00">llvm::ms_demangle::</text>
<text text-anchor="middle" x="514.5" y="-111" font-family="Helvetica,sans-Serif" font-size="10.00">QualifiedNameNode</text>
</a>
</g>
</g>
<!-- Node3&#45;&gt;Node6 -->
<g id="edge8" class="edge">
<title>Node3&#45;&gt;Node6</title>
<path fill="none" stroke="midnightblue" d="M155.28,-112.49C242.33,-114.07 377.91,-116.53 454.89,-117.93"/>
<polygon fill="midnightblue" stroke="midnightblue" points="155.23,-108.99 145.17,-112.3 155.11,-115.98 155.23,-108.99"/>
</g>
<!-- Node8 -->
<g id="node8" class="node">
<title>Node8</title>
<g id="a_node8"><a xlink:href="structllvm_1_1ms__demangle_1_1SymbolNode.html" target="_top" xlink:title=" ">
<polygon fill="none" stroke="black" points="643,-46 643,-76 762,-76 762,-46 643,-46"/>
<text text-anchor="start" x="651" y="-64" font-family="Helvetica,sans-Serif" font-size="10.00">llvm::ms_demangle::</text>
<text text-anchor="middle" x="702.5" y="-53" font-family="Helvetica,sans-Serif" font-size="10.00">SymbolNode</text>
</a>
</g>
</g>
<!-- Node3&#45;&gt;Node8 -->
<g id="edge12" class="edge">
<title>Node3&#45;&gt;Node8</title>
<path fill="none" stroke="midnightblue" d="M155.42,-104.48C284.02,-94.24 530.19,-74.64 642.74,-65.68"/>
<polygon fill="midnightblue" stroke="midnightblue" points="154.92,-101.01 145.23,-105.29 155.48,-107.98 154.92,-101.01"/>
</g>
<!-- Node10 -->
<g id="node10" class="node">
<title>Node10</title>
<g id="a_node10"><a xlink:href="structllvm_1_1ms__demangle_1_1TypeNode.html" target="_top" xlink:title=" ">
<polygon fill="none" stroke="black" points="215,-2 215,-32 334,-32 334,-2 215,-2"/>
<text text-anchor="start" x="223" y="-20" font-family="Helvetica,sans-Serif" font-size="10.00">llvm::ms_demangle::</text>
<text text-anchor="middle" x="274.5" y="-9" font-family="Helvetica,sans-Serif" font-size="10.00">TypeNode</text>
</a>
</g>
</g>
<!-- Node3&#45;&gt;Node10 -->
<g id="edge16" class="edge">
<title>Node3&#45;&gt;Node10</title>
<path fill="none" stroke="midnightblue" d="M93.18,-94.95C110.63,-81.38 137.26,-62.25 163,-50 179.27,-42.26 197.76,-35.88 214.89,-30.86"/>
<polygon fill="midnightblue" stroke="midnightblue" points="90.61,-92.52 84.95,-101.47 94.96,-98 90.61,-92.52"/>
</g>
<!-- Node4&#45;&gt;Node2 -->
<g id="edge3" class="edge">
<title>Node4&#45;&gt;Node2</title>
<path fill="none" stroke="#9a32cd" stroke-dasharray="5,2" d="M344.24,-155.11C372.97,-158.33 406.66,-162.44 437,-167 442.74,-167.86 448.71,-168.83 454.67,-169.84"/>
<polygon fill="#9a32cd" stroke="#9a32cd" points="344.63,-151.63 334.31,-154 343.86,-158.59 344.63,-151.63"/>
<text text-anchor="middle" x="394.5" y="-170" font-family="Helvetica,sans-Serif" font-size="10.00"> TemplateParams</text>
</g>
<!-- Node4&#45;&gt;Node6 -->
<g id="edge9" class="edge">
<title>Node4&#45;&gt;Node6</title>
<path fill="none" stroke="#9a32cd" stroke-dasharray="5,2" d="M344.33,-134.15C346.92,-133.74 349.48,-133.36 352,-133 385.86,-128.23 423.96,-124.83 454.64,-122.58"/>
<polygon fill="#9a32cd" stroke="#9a32cd" points="343.57,-130.72 334.28,-135.81 344.72,-137.63 343.57,-130.72"/>
<text text-anchor="middle" x="394.5" y="-136" font-family="Helvetica,sans-Serif" font-size="10.00"> Components</text>
</g>
<!-- Node5 -->
<g id="node5" class="node">
<title>Node5</title>
<g id="a_node5"><a xlink:href="classsize__t.html" target="_top" xlink:title=" ">
<polygon fill="none" stroke="black" points="50,-215.5 50,-234.5 95,-234.5 95,-215.5 50,-215.5"/>
<text text-anchor="middle" x="72.5" y="-222.5" font-family="Helvetica,sans-Serif" font-size="10.00">size_t</text>
</a>
</g>
</g>
<!-- Node5&#45;&gt;Node4 -->
<g id="edge6" class="edge">
<title>Node5&#45;&gt;Node4</title>
<path fill="none" stroke="#9a32cd" stroke-dasharray="5,2" d="M104.97,-212.88C139.93,-199.43 196.41,-177.68 234.24,-163.12"/>
<polygon fill="#9a32cd" stroke="#9a32cd" points="103.36,-209.75 95.28,-216.61 105.87,-216.29 103.36,-209.75"/>
<text text-anchor="middle" x="180" y="-191" font-family="Helvetica,sans-Serif" font-size="10.00"> Count</text>
</g>
<!-- Node6&#45;&gt;Node1 -->
<g id="edge7" class="edge">
<title>Node6&#45;&gt;Node1</title>
<path fill="none" stroke="#9a32cd" stroke-dasharray="5,2" d="M584.28,-122C603.3,-122.74 623.95,-123.48 643,-124 785.65,-127.89 951.8,-129.26 1048.94,-129.74"/>
<polygon fill="#9a32cd" stroke="#9a32cd" points="584.34,-118.5 574.2,-121.59 584.06,-125.49 584.34,-118.5"/>
<text text-anchor="middle" x="796.5" y="-131" font-family="Helvetica,sans-Serif" font-size="10.00"> Name</text>
</g>
<!-- Node6&#45;&gt;Node8 -->
<g id="edge13" class="edge">
<title>Node6&#45;&gt;Node8</title>
<path fill="none" stroke="#9a32cd" stroke-dasharray="5,2" d="M573.49,-100.92C599.15,-92.92 628.96,-83.62 653.36,-76.01"/>
<polygon fill="#9a32cd" stroke="#9a32cd" points="572.39,-97.59 563.88,-103.91 574.47,-104.28 572.39,-97.59"/>
<text text-anchor="middle" x="608.5" y="-97" font-family="Helvetica,sans-Serif" font-size="10.00"> Name</text>
</g>
<!-- Node7 -->
<g id="node7" class="node">
<title>Node7</title>
<g id="a_node7"><a xlink:href="structllvm_1_1ms__demangle_1_1VariableSymbolNode.html" target="_top" xlink:title=" ">
<polygon fill="none" stroke="black" points="831,-84 831,-114 950,-114 950,-84 831,-84"/>
<text text-anchor="start" x="839" y="-102" font-family="Helvetica,sans-Serif" font-size="10.00">llvm::ms_demangle::</text>
<text text-anchor="middle" x="890.5" y="-91" font-family="Helvetica,sans-Serif" font-size="10.00">VariableSymbolNode</text>
</a>
</g>
</g>
<!-- Node7&#45;&gt;Node1 -->
<g id="edge10" class="edge">
<title>Node7&#45;&gt;Node1</title>
<path fill="none" stroke="#9a32cd" stroke-dasharray="5,2" d="M960.19,-107.87C987.85,-111.45 1020,-115.6 1048.93,-119.33"/>
<polygon fill="#9a32cd" stroke="#9a32cd" points="960.58,-104.39 950.21,-106.58 959.68,-111.34 960.58,-104.39"/>
<text text-anchor="middle" x="999.5" y="-120" font-family="Helvetica,sans-Serif" font-size="10.00"> Variable</text>
</g>
<!-- Node8&#45;&gt;Node7 -->
<g id="edge11" class="edge">
<title>Node8&#45;&gt;Node7</title>
<path fill="none" stroke="midnightblue" d="M772.04,-75C791.36,-78.95 812.2,-83.21 830.88,-87.02"/>
<polygon fill="midnightblue" stroke="midnightblue" points="772.59,-71.54 762.1,-72.97 771.19,-78.4 772.59,-71.54"/>
</g>
<!-- Node9 -->
<g id="node9" class="node">
<title>Node9</title>
<g id="a_node9"><a xlink:title=" ">
<polygon fill="none" stroke="#bfbfbf" points="662.5,-95.5 662.5,-114.5 742.5,-114.5 742.5,-95.5 662.5,-95.5"/>
<text text-anchor="middle" x="702.5" y="-102.5" font-family="Helvetica,sans-Serif" font-size="10.00">StorageClass</text>
</a>
</g>
</g>
<!-- Node9&#45;&gt;Node7 -->
<g id="edge14" class="edge">
<title>Node9&#45;&gt;Node7</title>
<path fill="none" stroke="#9a32cd" stroke-dasharray="5,2" d="M753.18,-103.4C777.02,-102.63 805.75,-101.7 830.67,-100.9"/>
<polygon fill="#9a32cd" stroke="#9a32cd" points="752.83,-99.91 742.95,-103.73 753.05,-106.9 752.83,-99.91"/>
<text text-anchor="middle" x="796.5" y="-106" font-family="Helvetica,sans-Serif" font-size="10.00"> SC</text>
</g>
<!-- Node10&#45;&gt;Node7 -->
<g id="edge15" class="edge">
<title>Node10&#45;&gt;Node7</title>
<path fill="none" stroke="#9a32cd" stroke-dasharray="5,2" d="M344.24,-9.9C439.89,-2.2 617.62,4.15 762,-36 795.73,-45.38 799.53,-58.66 831,-74 837.95,-77.39 845.47,-80.79 852.74,-83.95"/>
<polygon fill="#9a32cd" stroke="#9a32cd" points="343.8,-6.42 334.12,-10.74 344.38,-13.4 343.8,-6.42"/>
<text text-anchor="middle" x="608.5" y="-14" font-family="Helvetica,sans-Serif" font-size="10.00"> Type</text>
</g>
<!-- Node11 -->
<g id="node11" class="node">
<title>Node11</title>
<g id="a_node11"><a xlink:title=" ">
<polygon fill="none" stroke="#bfbfbf" points="41,-0.5 41,-19.5 104,-19.5 104,-0.5 41,-0.5"/>
<text text-anchor="middle" x="72.5" y="-7.5" font-family="Helvetica,sans-Serif" font-size="10.00">Qualifiers</text>
</a>
</g>
</g>
<!-- Node11&#45;&gt;Node10 -->
<g id="edge17" class="edge">
<title>Node11&#45;&gt;Node10</title>
<path fill="none" stroke="#9a32cd" stroke-dasharray="5,2" d="M114.41,-9.61C138.47,-9.56 169.48,-9.81 197,-11 202.72,-11.25 208.68,-11.58 214.64,-11.96"/>
<polygon fill="#9a32cd" stroke="#9a32cd" points="114.21,-6.11 104.22,-9.65 114.23,-13.11 114.21,-6.11"/>
<text text-anchor="middle" x="180" y="-14" font-family="Helvetica,sans-Serif" font-size="10.00"> Quals</text>
</g>
<!-- Node12 -->
<g id="node12" class="node">
<title>Node12</title>
<g id="a_node12"><a xlink:title=" ">
<polygon fill="none" stroke="#bfbfbf" points="871.5,-45.5 871.5,-64.5 909.5,-64.5 909.5,-45.5 871.5,-45.5"/>
<text text-anchor="middle" x="890.5" y="-52.5" font-family="Helvetica,sans-Serif" font-size="10.00">bool</text>
</a>
</g>
</g>
<!-- Node12&#45;&gt;Node1 -->
<g id="edge18" class="edge">
<title>Node12&#45;&gt;Node1</title>
<path fill="none" stroke="#9a32cd" stroke-dasharray="5,2" d="M919.64,-62.57C947.91,-70.29 992.67,-82.84 1031,-95 1050.37,-101.15 1071.65,-108.47 1089.62,-114.83"/>
<polygon fill="#9a32cd" stroke="#9a32cd" points="920.22,-59.1 909.65,-59.86 918.39,-65.86 920.22,-59.1"/>
<text text-anchor="middle" x="999.5" y="-98" font-family="Helvetica,sans-Serif" font-size="10.00"> IsDestructor</text>
</g>
</g>
</svg>
