<?xml version="1.0" encoding="UTF-8" standalone="no"?>
<!DOCTYPE svg PUBLIC "-//W3C//DTD SVG 1.1//EN"
 "http://www.w3.org/Graphics/SVG/1.1/DTD/svg11.dtd">
<!-- Generated by graphviz version 2.43.0 (0)
 -->
<!-- Title: llvm::DIGlobal Pages: 1 -->
<svg width="134pt" height="117pt"
 viewBox="0.00 0.00 134.00 117.00" xmlns="http://www.w3.org/2000/svg" xmlns:xlink="http://www.w3.org/1999/xlink">
<g id="graph0" class="graph" transform="scale(1 1) rotate(0) translate(4 113)">
<title>llvm::DIGlobal</title>
<!-- Node1 -->
<g id="node1" class="node">
<title>Node1</title>
<g id="a_node1"><a xlink:title="Container for description of a global variable.">
<polygon fill="#bfbfbf" stroke="black" points="19,-0.5 19,-19.5 105,-19.5 105,-0.5 19,-0.5"/>
<text text-anchor="middle" x="62" y="-7.5" font-family="Helvetica,sans-Serif" font-size="10.00">llvm::DIGlobal</text>
</a>
</g>
</g>
<!-- Node2 -->
<g id="node2" class="node">
<title>Node2</title>
<g id="a_node2"><a xlink:href="classuint64__t.html" target="_top" xlink:title=" ">
<polygon fill="none" stroke="black" points="0,-89.5 0,-108.5 56,-108.5 56,-89.5 0,-89.5"/>
<text text-anchor="middle" x="28" y="-96.5" font-family="Helvetica,sans-Serif" font-size="10.00">uint64_t</text>
</a>
</g>
</g>
<!-- Node2&#45;&gt;Node1 -->
<g id="edge1" class="edge">
<title>Node2&#45;&gt;Node1</title>
<path fill="none" stroke="#9a32cd" stroke-dasharray="5,2" d="M25.28,-79.3C24.34,-66.96 24.79,-50.79 31,-38 34.62,-30.55 41.32,-24.31 47.57,-19.71"/>
<polygon fill="#9a32cd" stroke="#9a32cd" points="21.81,-79.79 26.41,-89.33 28.77,-79.01 21.81,-79.79"/>
<text text-anchor="middle" x="52.5" y="-63" font-family="Helvetica,sans-Serif" font-size="10.00"> Size</text>
<text text-anchor="middle" x="52.5" y="-52" font-family="Helvetica,sans-Serif" font-size="10.00">DeclLine</text>
<text text-anchor="middle" x="52.5" y="-41" font-family="Helvetica,sans-Serif" font-size="10.00">Start</text>
</g>
<!-- Node3 -->
<g id="node3" class="node">
<title>Node3</title>
<g id="a_node3"><a xlink:title=" ">
<polygon fill="none" stroke="#bfbfbf" points="74,-89.5 74,-108.5 118,-108.5 118,-89.5 74,-89.5"/>
<text text-anchor="middle" x="96" y="-96.5" font-family="Helvetica,sans-Serif" font-size="10.00">string</text>
</a>
</g>
</g>
<!-- Node3&#45;&gt;Node1 -->
<g id="edge2" class="edge">
<title>Node3&#45;&gt;Node1</title>
<path fill="none" stroke="#9a32cd" stroke-dasharray="5,2" d="M89.65,-79.7C85.41,-67.75 79.61,-51.86 74,-38 71.54,-31.91 68.54,-25.16 66.15,-19.94"/>
<polygon fill="#9a32cd" stroke="#9a32cd" points="86.43,-81.11 93.05,-89.39 93.04,-78.79 86.43,-81.11"/>
<text text-anchor="middle" x="106" y="-57.5" font-family="Helvetica,sans-Serif" font-size="10.00"> Name</text>
<text text-anchor="middle" x="106" y="-46.5" font-family="Helvetica,sans-Serif" font-size="10.00">DeclFile</text>
</g>
</g>
</svg>
