<?xml version="1.0" encoding="UTF-8" standalone="no"?>
<!DOCTYPE svg PUBLIC "-//W3C//DTD SVG 1.1//EN"
 "http://www.w3.org/Graphics/SVG/1.1/DTD/svg11.dtd">
<!-- Generated by graphviz version 2.43.0 (0)
 -->
<!-- Title: llvm::lto::Config Pages: 1 -->
<svg width="1374pt" height="1458pt"
 viewBox="0.00 0.00 1374.00 1458.31" xmlns="http://www.w3.org/2000/svg" xmlns:xlink="http://www.w3.org/1999/xlink">
<g id="graph0" class="graph" transform="scale(1 1) rotate(0) translate(4 1454.31)">
<title>llvm::lto::Config</title>
<!-- Node1 -->
<g id="node1" class="node">
<title>Node1</title>
<g id="a_node1"><a xlink:title="LTO configuration.">
<polygon fill="#bfbfbf" stroke="black" points="1272,-401.81 1272,-420.81 1366,-420.81 1366,-401.81 1272,-401.81"/>
<text text-anchor="middle" x="1319" y="-408.81" font-family="Helvetica,sans-Serif" font-size="10.00">llvm::lto::Config</text>
</a>
</g>
</g>
<!-- Node2 -->
<g id="node2" class="node">
<title>Node2</title>
<g id="a_node2"><a xlink:title=" ">
<polygon fill="none" stroke="#bfbfbf" points="933.5,-1354.31 933.5,-1384.31 1070.5,-1384.31 1070.5,-1354.31 933.5,-1354.31"/>
<text text-anchor="start" x="941.5" y="-1372.31" font-family="Helvetica,sans-Serif" font-size="10.00">function&lt; bool(unsigned</text>
<text text-anchor="middle" x="1002" y="-1361.31" font-family="Helvetica,sans-Serif" font-size="10.00"> Task, const Module &amp;)&gt;</text>
</a>
</g>
</g>
<!-- Node2&#45;&gt;Node1 -->
<g id="edge1" class="edge">
<title>Node2&#45;&gt;Node1</title>
<path fill="none" stroke="#9a32cd" stroke-dasharray="5,2" d="M1080.52,-1383.44C1136.86,-1388.85 1210.56,-1384.98 1254,-1339.31 1320.78,-1269.1 1318.6,-514.91 1318.06,-420.91"/>
<polygon fill="#9a32cd" stroke="#9a32cd" points="1080.89,-1379.96 1070.57,-1382.38 1080.14,-1386.92 1080.89,-1379.96"/>
<text text-anchor="middle" x="1186.5" y="-1442.31" font-family="Helvetica,sans-Serif" font-size="10.00"> PostPromoteModuleHook</text>
<text text-anchor="middle" x="1186.5" y="-1431.31" font-family="Helvetica,sans-Serif" font-size="10.00">PreOptModuleHook</text>
<text text-anchor="middle" x="1186.5" y="-1420.31" font-family="Helvetica,sans-Serif" font-size="10.00">PostInternalizeModuleHook</text>
<text text-anchor="middle" x="1186.5" y="-1409.31" font-family="Helvetica,sans-Serif" font-size="10.00">PostOptModuleHook</text>
<text text-anchor="middle" x="1186.5" y="-1398.31" font-family="Helvetica,sans-Serif" font-size="10.00">PostImportModuleHook</text>
<text text-anchor="middle" x="1186.5" y="-1387.31" font-family="Helvetica,sans-Serif" font-size="10.00">PreCodeGenModuleHook</text>
</g>
<!-- Node3 -->
<g id="node3" class="node">
<title>Node3</title>
<g id="a_node3"><a xlink:href="classllvm_1_1PipelineTuningOptions.html" target="_top" xlink:title="Tunable parameters for passes in the default pipelines.">
<polygon fill="none" stroke="black" points="926,-1168.81 926,-1187.81 1078,-1187.81 1078,-1168.81 926,-1168.81"/>
<text text-anchor="middle" x="1002" y="-1175.81" font-family="Helvetica,sans-Serif" font-size="10.00">llvm::PipelineTuningOptions</text>
</a>
</g>
</g>
<!-- Node3&#45;&gt;Node1 -->
<g id="edge2" class="edge">
<title>Node3&#45;&gt;Node1</title>
<path fill="none" stroke="#9a32cd" stroke-dasharray="5,2" d="M1066.23,-1188.94C1123.78,-1194.65 1206.76,-1192.23 1254,-1142.31 1306.1,-1087.25 1316.64,-502.75 1317.87,-420.83"/>
<polygon fill="#9a32cd" stroke="#9a32cd" points="1066.47,-1185.45 1056.15,-1187.83 1065.71,-1192.4 1066.47,-1185.45"/>
<text text-anchor="middle" x="1186.5" y="-1193.31" font-family="Helvetica,sans-Serif" font-size="10.00"> PTO</text>
</g>
<!-- Node4 -->
<g id="node4" class="node">
<title>Node4</title>
<g id="a_node4"><a xlink:title=" ">
<polygon fill="none" stroke="#bfbfbf" points="272,-1199.81 272,-1218.81 310,-1218.81 310,-1199.81 272,-1199.81"/>
<text text-anchor="middle" x="291" y="-1206.81" font-family="Helvetica,sans-Serif" font-size="10.00">bool</text>
</a>
</g>
</g>
<!-- Node4&#45;&gt;Node1 -->
<g id="edge42" class="edge">
<title>Node4&#45;&gt;Node1</title>
<path fill="none" stroke="#9a32cd" stroke-dasharray="5,2" d="M319.35,-1222.55C365.69,-1244.18 463.2,-1286.18 551,-1301.31 706.38,-1328.09 1147.94,-1321.98 1254,-1205.31 1309.47,-1144.29 1317.13,-507.81 1317.92,-421.08"/>
<polygon fill="#9a32cd" stroke="#9a32cd" points="320.79,-1219.36 310.26,-1218.26 317.81,-1225.7 320.79,-1219.36"/>
<text text-anchor="middle" x="808" y="-1427.31" font-family="Helvetica,sans-Serif" font-size="10.00"> DisableVerify</text>
<text text-anchor="middle" x="808" y="-1416.31" font-family="Helvetica,sans-Serif" font-size="10.00">RunCSIRInstr</text>
<text text-anchor="middle" x="808" y="-1405.31" font-family="Helvetica,sans-Serif" font-size="10.00">CodeGenOnly</text>
<text text-anchor="middle" x="808" y="-1394.31" font-family="Helvetica,sans-Serif" font-size="10.00">AlwaysEmitRegularLTOObj</text>
<text text-anchor="middle" x="808" y="-1383.31" font-family="Helvetica,sans-Serif" font-size="10.00">OpaquePointers</text>
<text text-anchor="middle" x="808" y="-1372.31" font-family="Helvetica,sans-Serif" font-size="10.00">PGOWarnMismatch</text>
<text text-anchor="middle" x="808" y="-1361.31" font-family="Helvetica,sans-Serif" font-size="10.00">TimeTraceEnabled</text>
<text text-anchor="middle" x="808" y="-1350.31" font-family="Helvetica,sans-Serif" font-size="10.00">DebugPassManager</text>
<text text-anchor="middle" x="808" y="-1339.31" font-family="Helvetica,sans-Serif" font-size="10.00">RemarksWithHotness</text>
<text text-anchor="middle" x="808" y="-1328.31" font-family="Helvetica,sans-Serif" font-size="10.00">Freestanding</text>
<text text-anchor="middle" x="808" y="-1317.31" font-family="Helvetica,sans-Serif" font-size="10.00">...</text>
</g>
<!-- Node4&#45;&gt;Node3 -->
<g id="edge3" class="edge">
<title>Node4&#45;&gt;Node3</title>
<path fill="none" stroke="#9a32cd" stroke-dasharray="5,2" d="M320.75,-1209.87C406.63,-1211.28 668.73,-1213.64 885,-1195.31 904.88,-1193.62 926.53,-1190.74 945.7,-1187.82"/>
<polygon fill="#9a32cd" stroke="#9a32cd" points="320.55,-1206.37 310.49,-1209.69 320.43,-1213.36 320.55,-1206.37"/>
<text text-anchor="middle" x="632" y="-1289.31" font-family="Helvetica,sans-Serif" font-size="10.00"> LoopInterleaving</text>
<text text-anchor="middle" x="632" y="-1278.31" font-family="Helvetica,sans-Serif" font-size="10.00">EagerlyInvalidateAnalyses</text>
<text text-anchor="middle" x="632" y="-1267.31" font-family="Helvetica,sans-Serif" font-size="10.00">CallGraphProfile</text>
<text text-anchor="middle" x="632" y="-1256.31" font-family="Helvetica,sans-Serif" font-size="10.00">MergeFunctions</text>
<text text-anchor="middle" x="632" y="-1245.31" font-family="Helvetica,sans-Serif" font-size="10.00">SLPVectorization</text>
<text text-anchor="middle" x="632" y="-1234.31" font-family="Helvetica,sans-Serif" font-size="10.00">LoopVectorization</text>
<text text-anchor="middle" x="632" y="-1223.31" font-family="Helvetica,sans-Serif" font-size="10.00">LoopUnrolling</text>
<text text-anchor="middle" x="632" y="-1212.31" font-family="Helvetica,sans-Serif" font-size="10.00">ForgetAllSCEVInLoopUnroll</text>
</g>
<!-- Node18 -->
<g id="node18" class="node">
<title>Node18</title>
<g id="a_node18"><a xlink:href="classllvm_1_1MCTargetOptions.html" target="_top" xlink:title=" ">
<polygon fill="none" stroke="black" points="568,-869.81 568,-888.81 696,-888.81 696,-869.81 568,-869.81"/>
<text text-anchor="middle" x="632" y="-876.81" font-family="Helvetica,sans-Serif" font-size="10.00">llvm::MCTargetOptions</text>
</a>
</g>
</g>
<!-- Node4&#45;&gt;Node18 -->
<g id="edge25" class="edge">
<title>Node4&#45;&gt;Node18</title>
<path fill="none" stroke="#9a32cd" stroke-dasharray="5,2" d="M299.65,-1190.14C311.71,-1161.89 337.47,-1108.69 373,-1074.31 431.47,-1017.72 484.82,-1050.89 533,-985.31 556.38,-953.49 523.49,-926.63 551,-898.31 555.77,-893.39 561.57,-889.65 567.84,-886.82"/>
<polygon fill="#9a32cd" stroke="#9a32cd" points="296.3,-1189.08 295.71,-1199.66 302.77,-1191.76 296.3,-1189.08"/>
<text text-anchor="middle" x="453" y="-1187.31" font-family="Helvetica,sans-Serif" font-size="10.00"> AsmVerbose</text>
<text text-anchor="middle" x="453" y="-1176.31" font-family="Helvetica,sans-Serif" font-size="10.00">MCNoDeprecatedWarn</text>
<text text-anchor="middle" x="453" y="-1165.31" font-family="Helvetica,sans-Serif" font-size="10.00">MCNoExecStack</text>
<text text-anchor="middle" x="453" y="-1154.31" font-family="Helvetica,sans-Serif" font-size="10.00">PreserveAsmComments</text>
<text text-anchor="middle" x="453" y="-1143.31" font-family="Helvetica,sans-Serif" font-size="10.00">ShowMCEncoding</text>
<text text-anchor="middle" x="453" y="-1132.31" font-family="Helvetica,sans-Serif" font-size="10.00">MCFatalWarnings</text>
<text text-anchor="middle" x="453" y="-1121.31" font-family="Helvetica,sans-Serif" font-size="10.00">ShowMCInst</text>
<text text-anchor="middle" x="453" y="-1110.31" font-family="Helvetica,sans-Serif" font-size="10.00">MCSaveTempLabels</text>
<text text-anchor="middle" x="453" y="-1099.31" font-family="Helvetica,sans-Serif" font-size="10.00">MCIncrementalLinkerCompatible</text>
<text text-anchor="middle" x="453" y="-1088.31" font-family="Helvetica,sans-Serif" font-size="10.00">MCRelaxAll</text>
<text text-anchor="middle" x="453" y="-1077.31" font-family="Helvetica,sans-Serif" font-size="10.00">...</text>
</g>
<!-- Node5 -->
<g id="node5" class="node">
<title>Node5</title>
<g id="a_node5"><a xlink:title=" ">
<polygon fill="none" stroke="#bfbfbf" points="601.5,-1118.81 601.5,-1137.81 662.5,-1137.81 662.5,-1118.81 601.5,-1118.81"/>
<text text-anchor="middle" x="632" y="-1125.81" font-family="Helvetica,sans-Serif" font-size="10.00">unsigned</text>
</a>
</g>
</g>
<!-- Node5&#45;&gt;Node1 -->
<g id="edge45" class="edge">
<title>Node5&#45;&gt;Node1</title>
<path fill="none" stroke="#9a32cd" stroke-dasharray="5,2" d="M672.6,-1134.57C724.05,-1140.86 815.5,-1145.67 885,-1114.31 1097.85,-1018.28 1145.05,-946.84 1254,-740.31 1314.41,-625.79 1318.16,-461.81 1318.1,-420.85"/>
<polygon fill="#9a32cd" stroke="#9a32cd" points="672.93,-1131.08 662.56,-1133.26 672.02,-1138.02 672.93,-1131.08"/>
<text text-anchor="middle" x="1002" y="-1118.31" font-family="Helvetica,sans-Serif" font-size="10.00"> TimeTraceGranularity</text>
<text text-anchor="middle" x="1002" y="-1107.31" font-family="Helvetica,sans-Serif" font-size="10.00">OptLevel</text>
</g>
<!-- Node5&#45;&gt;Node3 -->
<g id="edge4" class="edge">
<title>Node5&#45;&gt;Node3</title>
<path fill="none" stroke="#9a32cd" stroke-dasharray="5,2" d="M672.88,-1133.65C722.57,-1140.32 810.06,-1152.09 885,-1162.31 900.31,-1164.4 916.75,-1166.66 932.31,-1168.8"/>
<polygon fill="#9a32cd" stroke="#9a32cd" points="673.25,-1130.17 662.87,-1132.31 672.32,-1137.11 673.25,-1130.17"/>
<text text-anchor="start" x="734" y="-1187.31" font-family="Helvetica,sans-Serif" font-size="10.00"> LicmMssaNoAccForPromotion</text>
<text text-anchor="middle" x="808" y="-1176.31" font-family="Helvetica,sans-Serif" font-size="10.00">Cap</text>
<text text-anchor="middle" x="808" y="-1165.31" font-family="Helvetica,sans-Serif" font-size="10.00">LicmMssaOptCap</text>
</g>
<!-- Node9 -->
<g id="node9" class="node">
<title>Node9</title>
<g id="a_node9"><a xlink:href="classllvm_1_1TargetOptions.html" target="_top" xlink:title=" ">
<polygon fill="none" stroke="black" points="946,-705.81 946,-724.81 1058,-724.81 1058,-705.81 946,-705.81"/>
<text text-anchor="middle" x="1002" y="-712.81" font-family="Helvetica,sans-Serif" font-size="10.00">llvm::TargetOptions</text>
</a>
</g>
</g>
<!-- Node5&#45;&gt;Node9 -->
<g id="edge31" class="edge">
<title>Node5&#45;&gt;Node9</title>
<path fill="none" stroke="#9a32cd" stroke-dasharray="5,2" d="M645.13,-1110C668.59,-1074.83 718.95,-1000.62 731,-993.31 790.16,-957.4 837.86,-1020.98 885,-970.31 920.83,-931.8 868.01,-773.58 903,-734.31 913.84,-722.14 929.93,-716.35 945.95,-713.89"/>
<polygon fill="#9a32cd" stroke="#9a32cd" points="642.15,-1108.16 639.53,-1118.42 647.98,-1112.03 642.15,-1108.16"/>
<text text-anchor="middle" x="808" y="-1106.31" font-family="Helvetica,sans-Serif" font-size="10.00"> XRayOmitFunctionIndex</text>
<text text-anchor="middle" x="808" y="-1095.31" font-family="Helvetica,sans-Serif" font-size="10.00">ValueTrackingVariableLocations</text>
<text text-anchor="middle" x="808" y="-1084.31" font-family="Helvetica,sans-Serif" font-size="10.00">EmitStackSizeSection</text>
<text text-anchor="middle" x="808" y="-1073.31" font-family="Helvetica,sans-Serif" font-size="10.00">EnableAIXExtendedAltivecABI</text>
<text text-anchor="middle" x="808" y="-1062.31" font-family="Helvetica,sans-Serif" font-size="10.00">LoopAlignment</text>
<text text-anchor="middle" x="808" y="-1051.31" font-family="Helvetica,sans-Serif" font-size="10.00">EnableIPRA</text>
<text text-anchor="middle" x="808" y="-1040.31" font-family="Helvetica,sans-Serif" font-size="10.00">DisableIntegratedAS</text>
<text text-anchor="middle" x="808" y="-1029.31" font-family="Helvetica,sans-Serif" font-size="10.00">EnableCFIFixup</text>
<text text-anchor="middle" x="808" y="-1018.31" font-family="Helvetica,sans-Serif" font-size="10.00">PPCGenScalarMASSEntries</text>
<text text-anchor="middle" x="808" y="-1007.31" font-family="Helvetica,sans-Serif" font-size="10.00">ExplicitEmulatedTLS</text>
<text text-anchor="middle" x="808" y="-996.31" font-family="Helvetica,sans-Serif" font-size="10.00">...</text>
</g>
<!-- Node6 -->
<g id="node6" class="node">
<title>Node6</title>
<g id="a_node6"><a xlink:title=" ">
<polygon fill="none" stroke="#bfbfbf" points="951.5,-743.81 951.5,-762.81 1052.5,-762.81 1052.5,-743.81 951.5,-743.81"/>
<text text-anchor="middle" x="1002" y="-750.81" font-family="Helvetica,sans-Serif" font-size="10.00">CodeGenFileType</text>
</a>
</g>
</g>
<!-- Node6&#45;&gt;Node1 -->
<g id="edge5" class="edge">
<title>Node6&#45;&gt;Node1</title>
<path fill="none" stroke="#9a32cd" stroke-dasharray="5,2" d="M1062.79,-745.36C1075.65,-742.65 1088.98,-739.05 1101,-734.31 1175.67,-704.84 1205.89,-702.57 1254,-638.31 1307,-567.51 1316.13,-454.58 1317.68,-421.02"/>
<polygon fill="#9a32cd" stroke="#9a32cd" points="1061.75,-741.99 1052.61,-747.34 1063.09,-748.86 1061.75,-741.99"/>
<text text-anchor="middle" x="1186.5" y="-728.31" font-family="Helvetica,sans-Serif" font-size="10.00"> CGFileType</text>
</g>
<!-- Node7 -->
<g id="node7" class="node">
<title>Node7</title>
<g id="a_node7"><a xlink:href="classllvm_1_1Optional.html" target="_top" xlink:title=" ">
<polygon fill="none" stroke="black" points="926,-281.31 926,-311.31 1078,-311.31 1078,-281.31 926,-281.31"/>
<text text-anchor="start" x="934" y="-299.31" font-family="Helvetica,sans-Serif" font-size="10.00">llvm::Optional&lt; CodeModel</text>
<text text-anchor="middle" x="1002" y="-288.31" font-family="Helvetica,sans-Serif" font-size="10.00">::Model &gt;</text>
</a>
</g>
</g>
<!-- Node7&#45;&gt;Node1 -->
<g id="edge6" class="edge">
<title>Node7&#45;&gt;Node1</title>
<path fill="none" stroke="#9a32cd" stroke-dasharray="5,2" d="M1087.87,-307.53C1138.14,-316.5 1201.96,-332.07 1254,-358.31 1276.16,-369.48 1297.43,-389.56 1309.01,-401.54"/>
<polygon fill="#9a32cd" stroke="#9a32cd" points="1088.46,-304.08 1078.01,-305.82 1087.26,-310.97 1088.46,-304.08"/>
<text text-anchor="middle" x="1186.5" y="-361.31" font-family="Helvetica,sans-Serif" font-size="10.00"> CodeModel</text>
</g>
<!-- Node8 -->
<g id="node8" class="node">
<title>Node8</title>
<g id="a_node8"><a xlink:href="classllvm_1_1Optional.html" target="_top" xlink:title=" ">
<polygon fill="none" stroke="black" points="575,-240.81 575,-259.81 689,-259.81 689,-240.81 575,-240.81"/>
<text text-anchor="middle" x="632" y="-247.81" font-family="Helvetica,sans-Serif" font-size="10.00">llvm::Optional&lt; T &gt;</text>
</a>
</g>
</g>
<!-- Node8&#45;&gt;Node7 -->
<g id="edge7" class="edge">
<title>Node8&#45;&gt;Node7</title>
<path fill="none" stroke="orange" stroke-dasharray="5,2" d="M683.63,-238.93C736.39,-229.66 820.24,-222.31 885,-251.31 895.91,-256.2 892.77,-265.12 903,-271.31 910.06,-275.58 917.83,-279.12 925.82,-282.07"/>
<polygon fill="orange" stroke="orange" points="682.7,-235.54 673.51,-240.8 683.98,-242.43 682.7,-235.54"/>
<text text-anchor="middle" x="808" y="-254.31" font-family="Helvetica,sans-Serif" font-size="10.00"> &lt; CodeModel::Model &gt;</text>
</g>
<!-- Node32 -->
<g id="node32" class="node">
<title>Node32</title>
<g id="a_node32"><a xlink:href="classllvm_1_1Optional.html" target="_top" xlink:title=" ">
<polygon fill="none" stroke="black" points="928,-401.81 928,-420.81 1076,-420.81 1076,-401.81 928,-401.81"/>
<text text-anchor="middle" x="1002" y="-408.81" font-family="Helvetica,sans-Serif" font-size="10.00">llvm::Optional&lt; uint64_t &gt;</text>
</a>
</g>
</g>
<!-- Node8&#45;&gt;Node32 -->
<g id="edge36" class="edge">
<title>Node8&#45;&gt;Node32</title>
<path fill="none" stroke="orange" stroke-dasharray="5,2" d="M699.31,-258.55C772.84,-267.84 881.65,-282.06 885,-285.31 919.58,-318.92 869.33,-357.79 903,-392.31 909.9,-399.38 918.58,-404.24 927.92,-407.53"/>
<polygon fill="orange" stroke="orange" points="699.54,-255.06 689.18,-257.28 698.67,-262 699.54,-255.06"/>
<text text-anchor="middle" x="808" y="-288.31" font-family="Helvetica,sans-Serif" font-size="10.00"> &lt; uint64_t &gt;</text>
</g>
<!-- Node35 -->
<g id="node35" class="node">
<title>Node35</title>
<g id="a_node35"><a xlink:href="classllvm_1_1Optional.html" target="_top" xlink:title=" ">
<polygon fill="none" stroke="black" points="940,-144.31 940,-174.31 1064,-174.31 1064,-144.31 940,-144.31"/>
<text text-anchor="start" x="948" y="-162.31" font-family="Helvetica,sans-Serif" font-size="10.00">llvm::Optional&lt; Reloc</text>
<text text-anchor="middle" x="1002" y="-151.31" font-family="Helvetica,sans-Serif" font-size="10.00">::Model &gt;</text>
</a>
</g>
</g>
<!-- Node8&#45;&gt;Node35 -->
<g id="edge40" class="edge">
<title>Node8&#45;&gt;Node35</title>
<path fill="none" stroke="orange" stroke-dasharray="5,2" d="M666.44,-237.07C685.21,-229.96 709.18,-221.44 731,-215.31 801.75,-195.44 884.73,-179.27 939.83,-169.5"/>
<polygon fill="orange" stroke="orange" points="664.95,-233.89 656.86,-240.74 667.45,-240.43 664.95,-233.89"/>
<text text-anchor="middle" x="808" y="-218.31" font-family="Helvetica,sans-Serif" font-size="10.00"> &lt; Reloc::Model &gt;</text>
</g>
<!-- Node9&#45;&gt;Node1 -->
<g id="edge8" class="edge">
<title>Node9&#45;&gt;Node1</title>
<path fill="none" stroke="#9a32cd" stroke-dasharray="5,2" d="M1024.8,-699.64C1070.38,-666.28 1177.86,-584.45 1254,-501.31 1278.6,-474.44 1301.94,-437.88 1312.34,-420.81"/>
<polygon fill="#9a32cd" stroke="#9a32cd" points="1022.56,-696.94 1016.53,-705.65 1026.68,-702.6 1022.56,-696.94"/>
<text text-anchor="middle" x="1186.5" y="-626.31" font-family="Helvetica,sans-Serif" font-size="10.00"> Options</text>
</g>
<!-- Node10 -->
<g id="node10" class="node">
<title>Node10</title>
<g id="a_node10"><a xlink:title=" ">
<polygon fill="none" stroke="#bfbfbf" points="551,-667.81 551,-686.81 713,-686.81 713,-667.81 551,-667.81"/>
<text text-anchor="middle" x="632" y="-674.81" font-family="Helvetica,sans-Serif" font-size="10.00">SwiftAsyncFramePointerMode</text>
</a>
</g>
</g>
<!-- Node10&#45;&gt;Node9 -->
<g id="edge9" class="edge">
<title>Node10&#45;&gt;Node9</title>
<path fill="none" stroke="#9a32cd" stroke-dasharray="5,2" d="M723.16,-684.71C771.24,-688.87 831.39,-694.4 885,-700.31 904.88,-702.5 926.64,-705.23 945.88,-707.75"/>
<polygon fill="#9a32cd" stroke="#9a32cd" points="723.35,-681.21 713.09,-683.85 722.75,-688.19 723.35,-681.21"/>
<text text-anchor="middle" x="808" y="-703.31" font-family="Helvetica,sans-Serif" font-size="10.00"> SwiftAsyncFramePointer</text>
</g>
<!-- Node11 -->
<g id="node11" class="node">
<title>Node11</title>
<g id="a_node11"><a xlink:title=" ">
<polygon fill="none" stroke="#bfbfbf" points="587.5,-629.81 587.5,-648.81 676.5,-648.81 676.5,-629.81 587.5,-629.81"/>
<text text-anchor="middle" x="632" y="-636.81" font-family="Helvetica,sans-Serif" font-size="10.00">pair&lt; int, int &gt;</text>
</a>
</g>
</g>
<!-- Node11&#45;&gt;Node9 -->
<g id="edge10" class="edge">
<title>Node11&#45;&gt;Node9</title>
<path fill="none" stroke="#9a32cd" stroke-dasharray="5,2" d="M687.09,-642.08C738.61,-645.63 818.01,-653.47 885,-670.31 919.78,-679.05 958.23,-695.38 980.96,-705.78"/>
<polygon fill="#9a32cd" stroke="#9a32cd" points="687.06,-638.57 676.85,-641.41 686.6,-645.56 687.06,-638.57"/>
<text text-anchor="middle" x="808" y="-673.31" font-family="Helvetica,sans-Serif" font-size="10.00"> BinutilsVersion</text>
</g>
<!-- Node12 -->
<g id="node12" class="node">
<title>Node12</title>
<g id="a_node12"><a xlink:title=" ">
<polygon fill="none" stroke="#bfbfbf" points="604,-591.81 604,-610.81 660,-610.81 660,-591.81 604,-591.81"/>
<text text-anchor="middle" x="632" y="-598.81" font-family="Helvetica,sans-Serif" font-size="10.00">ABIType</text>
</a>
</g>
</g>
<!-- Node12&#45;&gt;Node9 -->
<g id="edge11" class="edge">
<title>Node12&#45;&gt;Node9</title>
<path fill="none" stroke="#9a32cd" stroke-dasharray="5,2" d="M670.32,-599.75C720.81,-598.93 812.84,-602.03 885,-630.31 929.86,-647.89 973.01,-687.27 991.53,-705.59"/>
<polygon fill="#9a32cd" stroke="#9a32cd" points="670.12,-596.25 660.2,-599.98 670.28,-603.25 670.12,-596.25"/>
<text text-anchor="middle" x="808" y="-633.31" font-family="Helvetica,sans-Serif" font-size="10.00"> FloatABIType</text>
</g>
<!-- Node13 -->
<g id="node13" class="node">
<title>Node13</title>
<g id="a_node13"><a xlink:title=" ">
<polygon fill="none" stroke="#bfbfbf" points="612.5,-553.81 612.5,-572.81 651.5,-572.81 651.5,-553.81 612.5,-553.81"/>
<text text-anchor="middle" x="632" y="-560.81" font-family="Helvetica,sans-Serif" font-size="10.00">EABI</text>
</a>
</g>
</g>
<!-- Node13&#45;&gt;Node9 -->
<g id="edge12" class="edge">
<title>Node13&#45;&gt;Node9</title>
<path fill="none" stroke="#9a32cd" stroke-dasharray="5,2" d="M661.79,-559.25C710.6,-553.75 811.45,-548.44 885,-585.31 940.7,-613.23 981.87,-680.39 995.83,-705.56"/>
<polygon fill="#9a32cd" stroke="#9a32cd" points="661.15,-555.8 651.64,-560.48 661.99,-562.75 661.15,-555.8"/>
<text text-anchor="middle" x="808" y="-588.31" font-family="Helvetica,sans-Serif" font-size="10.00"> EABIVersion</text>
</g>
<!-- Node14 -->
<g id="node14" class="node">
<title>Node14</title>
<g id="a_node14"><a xlink:title=" ">
<polygon fill="none" stroke="#bfbfbf" points="608.5,-515.81 608.5,-534.81 655.5,-534.81 655.5,-515.81 608.5,-515.81"/>
<text text-anchor="middle" x="632" y="-522.81" font-family="Helvetica,sans-Serif" font-size="10.00">Model</text>
</a>
</g>
</g>
<!-- Node14&#45;&gt;Node9 -->
<g id="edge13" class="edge">
<title>Node14&#45;&gt;Node9</title>
<path fill="none" stroke="#9a32cd" stroke-dasharray="5,2" d="M665.93,-524.01C725.57,-522.22 848.63,-521.3 885,-542.31 951.7,-580.83 987.71,-675.01 997.93,-705.57"/>
<polygon fill="#9a32cd" stroke="#9a32cd" points="665.45,-520.52 655.57,-524.35 665.68,-527.52 665.45,-520.52"/>
<text text-anchor="middle" x="808" y="-545.31" font-family="Helvetica,sans-Serif" font-size="10.00"> ThreadModel</text>
</g>
<!-- Node15 -->
<g id="node15" class="node">
<title>Node15</title>
<g id="a_node15"><a xlink:title=" ">
<polygon fill="none" stroke="#bfbfbf" points="581.5,-983.81 581.5,-1002.81 682.5,-1002.81 682.5,-983.81 581.5,-983.81"/>
<text text-anchor="middle" x="632" y="-990.81" font-family="Helvetica,sans-Serif" font-size="10.00">FPOpFusionMode</text>
</a>
</g>
</g>
<!-- Node15&#45;&gt;Node9 -->
<g id="edge14" class="edge">
<title>Node15&#45;&gt;Node9</title>
<path fill="none" stroke="#9a32cd" stroke-dasharray="5,2" d="M692.56,-982.43C699.62,-980.19 706.59,-977.52 713,-974.31 722.31,-969.65 721.5,-963.57 731,-959.31 794.15,-931 837.54,-986.67 885,-936.31 915.91,-903.51 872.81,-767.77 903,-734.31 913.86,-722.28 929.85,-716.5 945.79,-714.01"/>
<polygon fill="#9a32cd" stroke="#9a32cd" points="691.55,-979.08 682.91,-985.21 693.49,-985.8 691.55,-979.08"/>
<text text-anchor="middle" x="808" y="-962.31" font-family="Helvetica,sans-Serif" font-size="10.00"> AllowFPOpFusion</text>
</g>
<!-- Node16 -->
<g id="node16" class="node">
<title>Node16</title>
<g id="a_node16"><a xlink:title=" ">
<polygon fill="none" stroke="#bfbfbf" points="579,-945.81 579,-964.81 685,-964.81 685,-945.81 579,-945.81"/>
<text text-anchor="middle" x="632" y="-952.81" font-family="Helvetica,sans-Serif" font-size="10.00">BasicBlockSection</text>
</a>
</g>
</g>
<!-- Node16&#45;&gt;Node9 -->
<g id="edge15" class="edge">
<title>Node16&#45;&gt;Node9</title>
<path fill="none" stroke="#9a32cd" stroke-dasharray="5,2" d="M693.77,-943.03C700.36,-941.06 706.88,-938.83 713,-936.31 721.67,-932.74 722.19,-928.51 731,-925.31 763.52,-913.5 861.05,-927.28 885,-902.31 936.99,-848.12 852.2,-789.61 903,-734.31 913.96,-722.38 929.99,-716.62 945.92,-714.13"/>
<polygon fill="#9a32cd" stroke="#9a32cd" points="692.81,-939.66 684.12,-945.71 694.69,-946.4 692.81,-939.66"/>
<text text-anchor="middle" x="808" y="-928.31" font-family="Helvetica,sans-Serif" font-size="10.00"> BBSections</text>
</g>
<!-- Node17 -->
<g id="node17" class="node">
<title>Node17</title>
<g id="a_node17"><a xlink:title=" ">
<polygon fill="none" stroke="#bfbfbf" points="565,-907.81 565,-926.81 699,-926.81 699,-907.81 565,-907.81"/>
<text text-anchor="middle" x="632" y="-914.81" font-family="Helvetica,sans-Serif" font-size="10.00">DebugCompressionType</text>
</a>
</g>
</g>
<!-- Node17&#45;&gt;Node9 -->
<g id="edge16" class="edge">
<title>Node17&#45;&gt;Node9</title>
<path fill="none" stroke="#9a32cd" stroke-dasharray="5,2" d="M687.95,-905.32C696.39,-903.17 704.97,-900.81 713,-898.31 721.2,-895.76 722.7,-893.51 731,-891.31 764.44,-882.43 860.71,-892.96 885,-868.31 927.18,-825.51 861.76,-778.01 903,-734.31 914.06,-722.59 930.02,-716.87 945.86,-714.35"/>
<polygon fill="#9a32cd" stroke="#9a32cd" points="687.02,-901.94 678.15,-907.73 688.69,-908.74 687.02,-901.94"/>
<text text-anchor="middle" x="808" y="-894.31" font-family="Helvetica,sans-Serif" font-size="10.00"> CompressDebugSections</text>
</g>
<!-- Node18&#45;&gt;Node9 -->
<g id="edge17" class="edge">
<title>Node18&#45;&gt;Node9</title>
<path fill="none" stroke="#9a32cd" stroke-dasharray="5,2" d="M682.36,-867.49C697.88,-863.98 715.11,-860.28 731,-857.31 765.01,-850.96 860.17,-858.41 885,-834.31 917.4,-802.86 871.28,-766.45 903,-734.31 914.26,-722.9 930.18,-717.25 945.92,-714.7"/>
<polygon fill="#9a32cd" stroke="#9a32cd" points="681.41,-864.12 672.44,-869.77 682.97,-870.95 681.41,-864.12"/>
<text text-anchor="middle" x="808" y="-860.31" font-family="Helvetica,sans-Serif" font-size="10.00"> MCOptions</text>
</g>
<!-- Node19 -->
<g id="node19" class="node">
<title>Node19</title>
<g id="a_node19"><a xlink:title=" ">
<polygon fill="none" stroke="#bfbfbf" points="245.5,-793.81 245.5,-812.81 336.5,-812.81 336.5,-793.81 245.5,-793.81"/>
<text text-anchor="middle" x="291" y="-800.81" font-family="Helvetica,sans-Serif" font-size="10.00">DwarfDirectory</text>
</a>
</g>
</g>
<!-- Node19&#45;&gt;Node18 -->
<g id="edge18" class="edge">
<title>Node19&#45;&gt;Node18</title>
<path fill="none" stroke="#9a32cd" stroke-dasharray="5,2" d="M346.95,-797.69C398.77,-795.12 476.67,-798.52 533,-833.31 545.27,-840.89 539.16,-852.07 551,-860.31 556.51,-864.14 562.69,-867.21 569.11,-869.66"/>
<polygon fill="#9a32cd" stroke="#9a32cd" points="346.73,-794.2 336.95,-798.28 347.14,-801.19 346.73,-794.2"/>
<text text-anchor="middle" x="453" y="-836.31" font-family="Helvetica,sans-Serif" font-size="10.00"> MCUseDwarfDirectory</text>
</g>
<!-- Node20 -->
<g id="node20" class="node">
<title>Node20</title>
<g id="a_node20"><a xlink:title=" ">
<polygon fill="none" stroke="#bfbfbf" points="231.5,-579.81 231.5,-598.81 350.5,-598.81 350.5,-579.81 231.5,-579.81"/>
<text text-anchor="middle" x="291" y="-586.81" font-family="Helvetica,sans-Serif" font-size="10.00">vector&lt; std::string &gt;</text>
</a>
</g>
</g>
<!-- Node20&#45;&gt;Node1 -->
<g id="edge34" class="edge">
<title>Node20&#45;&gt;Node1</title>
<path fill="none" stroke="#9a32cd" stroke-dasharray="5,2" d="M325.65,-576.2C374.51,-557.7 468.32,-524.2 551,-506.31 629.72,-489.27 650.8,-492.74 731,-485.31 963,-463.8 1031.57,-518.67 1254,-449.31 1273.49,-443.23 1293.3,-430.18 1305.61,-421.08"/>
<polygon fill="#9a32cd" stroke="#9a32cd" points="324.31,-572.97 316.21,-579.8 326.8,-579.51 324.31,-572.97"/>
<text text-anchor="middle" x="808" y="-510.31" font-family="Helvetica,sans-Serif" font-size="10.00"> PassPlugins</text>
<text text-anchor="middle" x="808" y="-499.31" font-family="Helvetica,sans-Serif" font-size="10.00">MAttrs</text>
<text text-anchor="middle" x="808" y="-488.31" font-family="Helvetica,sans-Serif" font-size="10.00">ThinLTOModulesToCompile</text>
</g>
<!-- Node20&#45;&gt;Node18 -->
<g id="edge19" class="edge">
<title>Node20&#45;&gt;Node18</title>
<path fill="none" stroke="#9a32cd" stroke-dasharray="5,2" d="M320.5,-603.58C371.65,-630.75 478.74,-694.96 533,-781.31 552.16,-811.8 525.65,-834.73 551,-860.31 555.82,-865.18 561.65,-868.89 567.93,-871.7"/>
<polygon fill="#9a32cd" stroke="#9a32cd" points="322.11,-600.47 311.63,-598.94 318.87,-606.68 322.11,-600.47"/>
<text text-anchor="middle" x="453" y="-784.31" font-family="Helvetica,sans-Serif" font-size="10.00"> IASSearchPaths</text>
</g>
<!-- Node21 -->
<g id="node21" class="node">
<title>Node21</title>
<g id="a_node21"><a xlink:title=" ">
<polygon fill="none" stroke="#bfbfbf" points="227,-957.81 227,-976.81 355,-976.81 355,-957.81 227,-957.81"/>
<text text-anchor="middle" x="291" y="-964.81" font-family="Helvetica,sans-Serif" font-size="10.00">EmitDwarfUnwindType</text>
</a>
</g>
</g>
<!-- Node21&#45;&gt;Node18 -->
<g id="edge20" class="edge">
<title>Node21&#45;&gt;Node18</title>
<path fill="none" stroke="#9a32cd" stroke-dasharray="5,2" d="M365.49,-971.04C416.53,-970.12 483.92,-961.56 533,-928.31 545.87,-919.59 538.45,-907.49 551,-898.31 556.3,-894.43 562.28,-891.33 568.52,-888.86"/>
<polygon fill="#9a32cd" stroke="#9a32cd" points="365.16,-967.54 355.19,-971.13 365.22,-974.54 365.16,-967.54"/>
<text text-anchor="middle" x="453" y="-973.31" font-family="Helvetica,sans-Serif" font-size="10.00"> EmitDwarfUnwind</text>
</g>
<!-- Node22 -->
<g id="node22" class="node">
<title>Node22</title>
<g id="a_node22"><a xlink:href="classllvm_1_1ArrayRef.html" target="_top" xlink:title=" ">
<polygon fill="none" stroke="black" points="234.5,-908.31 234.5,-938.31 347.5,-938.31 347.5,-908.31 234.5,-908.31"/>
<text text-anchor="start" x="242.5" y="-926.31" font-family="Helvetica,sans-Serif" font-size="10.00">llvm::ArrayRef&lt; std</text>
<text text-anchor="middle" x="291" y="-915.31" font-family="Helvetica,sans-Serif" font-size="10.00">::string &gt;</text>
</a>
</g>
</g>
<!-- Node22&#45;&gt;Node18 -->
<g id="edge21" class="edge">
<title>Node22&#45;&gt;Node18</title>
<path fill="none" stroke="#9a32cd" stroke-dasharray="5,2" d="M357.63,-915.99C406.13,-910.44 473.75,-902.41 533,-894.31 545.28,-892.63 558.4,-890.71 570.92,-888.82"/>
<polygon fill="#9a32cd" stroke="#9a32cd" points="357.12,-912.52 347.58,-917.13 357.92,-919.48 357.12,-912.52"/>
<text text-anchor="middle" x="453" y="-916.31" font-family="Helvetica,sans-Serif" font-size="10.00"> CommandLineArgs</text>
</g>
<!-- Node23 -->
<g id="node23" class="node">
<title>Node23</title>
<g id="a_node23"><a xlink:href="classllvm_1_1ArrayRef.html" target="_top" xlink:title="ArrayRef &#45; Represent a constant reference to an array (0 or more elements consecutively in memory),...">
<polygon fill="none" stroke="black" points="0,-913.81 0,-932.81 116,-932.81 116,-913.81 0,-913.81"/>
<text text-anchor="middle" x="58" y="-920.81" font-family="Helvetica,sans-Serif" font-size="10.00">llvm::ArrayRef&lt; T &gt;</text>
</a>
</g>
</g>
<!-- Node23&#45;&gt;Node22 -->
<g id="edge22" class="edge">
<title>Node23&#45;&gt;Node22</title>
<path fill="none" stroke="orange" stroke-dasharray="5,2" d="M126.5,-923.31C160.78,-923.31 201.92,-923.31 234.35,-923.31"/>
<polygon fill="orange" stroke="orange" points="126.1,-919.81 116.1,-923.31 126.1,-926.81 126.1,-919.81"/>
<text text-anchor="middle" x="171.5" y="-926.31" font-family="Helvetica,sans-Serif" font-size="10.00"> &lt; std::string &gt;</text>
</g>
<!-- Node24 -->
<g id="node24" class="node">
<title>Node24</title>
<g id="a_node24"><a xlink:title=" ">
<polygon fill="none" stroke="#bfbfbf" points="276.5,-869.81 276.5,-888.81 305.5,-888.81 305.5,-869.81 276.5,-869.81"/>
<text text-anchor="middle" x="291" y="-876.81" font-family="Helvetica,sans-Serif" font-size="10.00">int</text>
</a>
</g>
</g>
<!-- Node24&#45;&gt;Node18 -->
<g id="edge23" class="edge">
<title>Node24&#45;&gt;Node18</title>
<path fill="none" stroke="#9a32cd" stroke-dasharray="5,2" d="M315.9,-879.31C367.73,-879.31 491.9,-879.31 567.98,-879.31"/>
<polygon fill="#9a32cd" stroke="#9a32cd" points="315.71,-875.81 305.71,-879.31 315.71,-882.81 315.71,-875.81"/>
<text text-anchor="middle" x="453" y="-882.31" font-family="Helvetica,sans-Serif" font-size="10.00"> DwarfVersion</text>
</g>
<!-- Node25 -->
<g id="node25" class="node">
<title>Node25</title>
<g id="a_node25"><a xlink:title=" ">
<polygon fill="none" stroke="#bfbfbf" points="269,-427.81 269,-446.81 313,-446.81 313,-427.81 269,-427.81"/>
<text text-anchor="middle" x="291" y="-434.81" font-family="Helvetica,sans-Serif" font-size="10.00">string</text>
</a>
</g>
</g>
<!-- Node25&#45;&gt;Node1 -->
<g id="edge43" class="edge">
<title>Node25&#45;&gt;Node1</title>
<path fill="none" stroke="#9a32cd" stroke-dasharray="5,2" d="M322.7,-426.14C393.48,-401.06 574.09,-340.86 731,-320.31 798.86,-311.42 832.84,-275.99 885,-320.31 922.75,-352.39 865.25,-398.23 903,-430.31 962.44,-480.82 1176.63,-436.28 1254,-426.31 1263.51,-425.08 1273.67,-423.05 1283.03,-420.86"/>
<polygon fill="#9a32cd" stroke="#9a32cd" points="321.31,-422.92 313.07,-429.58 323.67,-429.51 321.31,-422.92"/>
<text text-anchor="middle" x="808" y="-433.31" font-family="Helvetica,sans-Serif" font-size="10.00"> RemarksFormat</text>
<text text-anchor="middle" x="808" y="-422.31" font-family="Helvetica,sans-Serif" font-size="10.00">DwoDir</text>
<text text-anchor="middle" x="808" y="-411.31" font-family="Helvetica,sans-Serif" font-size="10.00">CPU</text>
<text text-anchor="middle" x="808" y="-400.31" font-family="Helvetica,sans-Serif" font-size="10.00">ProfileRemapping</text>
<text text-anchor="middle" x="808" y="-389.31" font-family="Helvetica,sans-Serif" font-size="10.00">RemarksPasses</text>
<text text-anchor="middle" x="808" y="-378.31" font-family="Helvetica,sans-Serif" font-size="10.00">SplitDwarfOutput</text>
<text text-anchor="middle" x="808" y="-367.31" font-family="Helvetica,sans-Serif" font-size="10.00">SampleProfile</text>
<text text-anchor="middle" x="808" y="-356.31" font-family="Helvetica,sans-Serif" font-size="10.00">DefaultTriple</text>
<text text-anchor="middle" x="808" y="-345.31" font-family="Helvetica,sans-Serif" font-size="10.00">SplitDwarfFile</text>
<text text-anchor="middle" x="808" y="-334.31" font-family="Helvetica,sans-Serif" font-size="10.00">RemarksFilename</text>
<text text-anchor="middle" x="808" y="-323.31" font-family="Helvetica,sans-Serif" font-size="10.00">...</text>
</g>
<!-- Node25&#45;&gt;Node9 -->
<g id="edge29" class="edge">
<title>Node25&#45;&gt;Node9</title>
<path fill="none" stroke="#9a32cd" stroke-dasharray="5,2" d="M323.51,-437.09C439.49,-436.52 838.28,-436.89 885,-468.31 971.69,-526.6 995.1,-667.72 999.93,-705.74"/>
<polygon fill="#9a32cd" stroke="#9a32cd" points="323.17,-433.59 313.19,-437.14 323.21,-440.59 323.17,-433.59"/>
<text text-anchor="middle" x="632" y="-457.31" font-family="Helvetica,sans-Serif" font-size="10.00"> StackUsageOutput</text>
<text text-anchor="middle" x="632" y="-446.31" font-family="Helvetica,sans-Serif" font-size="10.00">ObjectFilenameForDebug</text>
</g>
<!-- Node25&#45;&gt;Node18 -->
<g id="edge24" class="edge">
<title>Node25&#45;&gt;Node18</title>
<path fill="none" stroke="#9a32cd" stroke-dasharray="5,2" d="M322.82,-447.37C376.32,-466.65 485.21,-514.34 533,-596.31 562.62,-647.11 512.99,-815.44 551,-860.31 555.61,-865.76 561.48,-869.8 567.93,-872.78"/>
<polygon fill="#9a32cd" stroke="#9a32cd" points="323.8,-444 313.2,-444 321.48,-450.61 323.8,-444"/>
<text text-anchor="middle" x="453" y="-621.31" font-family="Helvetica,sans-Serif" font-size="10.00"> AssemblyLanguage</text>
<text text-anchor="middle" x="453" y="-610.31" font-family="Helvetica,sans-Serif" font-size="10.00">SplitDwarfFile</text>
<text text-anchor="middle" x="453" y="-599.31" font-family="Helvetica,sans-Serif" font-size="10.00">ABIName</text>
</g>
<!-- Node26 -->
<g id="node26" class="node">
<title>Node26</title>
<g id="a_node26"><a xlink:title=" ">
<polygon fill="none" stroke="#bfbfbf" points="269.5,-831.81 269.5,-850.81 312.5,-850.81 312.5,-831.81 269.5,-831.81"/>
<text text-anchor="middle" x="291" y="-838.81" font-family="Helvetica,sans-Serif" font-size="10.00">const</text>
</a>
</g>
</g>
<!-- Node26&#45;&gt;Node18 -->
<g id="edge26" class="edge">
<title>Node26&#45;&gt;Node18</title>
<path fill="none" stroke="#9a32cd" stroke-dasharray="5,2" d="M322.86,-843.69C368.76,-847.36 457.7,-854.96 533,-864.31 545.81,-865.9 559.53,-867.85 572.52,-869.8"/>
<polygon fill="#9a32cd" stroke="#9a32cd" points="322.92,-840.18 312.68,-842.88 322.37,-847.16 322.92,-840.18"/>
<text text-anchor="middle" x="453" y="-867.31" font-family="Helvetica,sans-Serif" font-size="10.00"> Argv0</text>
</g>
<!-- Node27 -->
<g id="node27" class="node">
<title>Node27</title>
<g id="a_node27"><a xlink:title=" ">
<polygon fill="none" stroke="#bfbfbf" points="572.5,-831.81 572.5,-850.81 691.5,-850.81 691.5,-831.81 572.5,-831.81"/>
<text text-anchor="middle" x="632" y="-838.81" font-family="Helvetica,sans-Serif" font-size="10.00">GlobalISelAbortMode</text>
</a>
</g>
</g>
<!-- Node27&#45;&gt;Node9 -->
<g id="edge27" class="edge">
<title>Node27&#45;&gt;Node9</title>
<path fill="none" stroke="#9a32cd" stroke-dasharray="5,2" d="M692.96,-829.97C705.51,-827.69 718.68,-825.36 731,-823.31 765.13,-817.63 859.13,-823.29 885,-800.31 907.73,-780.11 880.71,-754.99 903,-734.31 914.56,-723.58 930.29,-718.08 945.75,-715.44"/>
<polygon fill="#9a32cd" stroke="#9a32cd" points="692.26,-826.54 683.05,-831.78 693.52,-833.42 692.26,-826.54"/>
<text text-anchor="middle" x="808" y="-826.31" font-family="Helvetica,sans-Serif" font-size="10.00"> GlobalISelAbort</text>
</g>
<!-- Node28 -->
<g id="node28" class="node">
<title>Node28</title>
<g id="a_node28"><a xlink:title=" ">
<polygon fill="none" stroke="#bfbfbf" points="589,-793.81 589,-812.81 675,-812.81 675,-793.81 589,-793.81"/>
<text text-anchor="middle" x="632" y="-800.81" font-family="Helvetica,sans-Serif" font-size="10.00">DebuggerKind</text>
</a>
</g>
</g>
<!-- Node28&#45;&gt;Node9 -->
<g id="edge28" class="edge">
<title>Node28&#45;&gt;Node9</title>
<path fill="none" stroke="#9a32cd" stroke-dasharray="5,2" d="M685.21,-795.92C756.55,-785.66 876.7,-767.75 885,-762.31 897.37,-754.2 890.75,-742.61 903,-734.31 915.55,-725.8 930.98,-720.89 945.84,-718.11"/>
<polygon fill="#9a32cd" stroke="#9a32cd" points="684.45,-792.49 675.05,-797.38 685.45,-799.42 684.45,-792.49"/>
<text text-anchor="middle" x="808" y="-791.31" font-family="Helvetica,sans-Serif" font-size="10.00"> DebuggerTuning</text>
</g>
<!-- Node29 -->
<g id="node29" class="node">
<title>Node29</title>
<g id="a_node29"><a xlink:title=" ">
<polygon fill="none" stroke="#bfbfbf" points="558,-744.31 558,-774.31 706,-774.31 706,-744.31 558,-744.31"/>
<text text-anchor="start" x="566" y="-762.31" font-family="Helvetica,sans-Serif" font-size="10.00">shared_ptr&lt; llvm::Memory</text>
<text text-anchor="middle" x="632" y="-751.31" font-family="Helvetica,sans-Serif" font-size="10.00">Buffer &gt;</text>
</a>
</g>
</g>
<!-- Node29&#45;&gt;Node9 -->
<g id="edge30" class="edge">
<title>Node29&#45;&gt;Node9</title>
<path fill="none" stroke="#9a32cd" stroke-dasharray="5,2" d="M716.04,-750.05C765.19,-744.49 828.67,-737.19 885,-730.31 904.85,-727.88 926.6,-725.1 945.85,-722.6"/>
<polygon fill="#9a32cd" stroke="#9a32cd" points="715.63,-746.57 706.09,-751.17 716.42,-753.53 715.63,-746.57"/>
<text text-anchor="middle" x="808" y="-750.31" font-family="Helvetica,sans-Serif" font-size="10.00"> BBSectionsFuncListBuf</text>
</g>
<!-- Node30 -->
<g id="node30" class="node">
<title>Node30</title>
<g id="a_node30"><a xlink:title=" ">
<polygon fill="none" stroke="#bfbfbf" points="578,-705.81 578,-724.81 686,-724.81 686,-705.81 578,-705.81"/>
<text text-anchor="middle" x="632" y="-712.81" font-family="Helvetica,sans-Serif" font-size="10.00">ExceptionHandling</text>
</a>
</g>
</g>
<!-- Node30&#45;&gt;Node9 -->
<g id="edge32" class="edge">
<title>Node30&#45;&gt;Node9</title>
<path fill="none" stroke="#9a32cd" stroke-dasharray="5,2" d="M696.17,-715.31C766.46,-715.31 878.9,-715.31 945.79,-715.31"/>
<polygon fill="#9a32cd" stroke="#9a32cd" points="696.12,-711.81 686.12,-715.31 696.12,-718.81 696.12,-711.81"/>
<text text-anchor="middle" x="808" y="-718.31" font-family="Helvetica,sans-Serif" font-size="10.00"> ExceptionModel</text>
</g>
<!-- Node31 -->
<g id="node31" class="node">
<title>Node31</title>
<g id="a_node31"><a xlink:title=" ">
<polygon fill="none" stroke="#bfbfbf" points="903,-330.31 903,-382.31 1101,-382.31 1101,-330.31 903,-330.31"/>
<text text-anchor="start" x="911" y="-370.31" font-family="Helvetica,sans-Serif" font-size="10.00">function&lt; bool(const</text>
<text text-anchor="start" x="911" y="-359.31" font-family="Helvetica,sans-Serif" font-size="10.00"> ModuleSummaryIndex &amp;Index,</text>
<text text-anchor="start" x="911" y="-348.31" font-family="Helvetica,sans-Serif" font-size="10.00"> const DenseSet&lt; GlobalValue</text>
<text text-anchor="middle" x="1002" y="-337.31" font-family="Helvetica,sans-Serif" font-size="10.00">::GUID &gt; &amp;GUIDPreservedSymbols)&gt;</text>
</a>
</g>
</g>
<!-- Node31&#45;&gt;Node1 -->
<g id="edge33" class="edge">
<title>Node31&#45;&gt;Node1</title>
<path fill="none" stroke="#9a32cd" stroke-dasharray="5,2" d="M1110.98,-371.77C1155.41,-378.58 1207.31,-387.13 1254,-396.31 1262.17,-397.92 1270.89,-399.83 1279.18,-401.74"/>
<polygon fill="#9a32cd" stroke="#9a32cd" points="1111.45,-368.3 1101.03,-370.25 1110.39,-375.22 1111.45,-368.3"/>
<text text-anchor="middle" x="1186.5" y="-399.31" font-family="Helvetica,sans-Serif" font-size="10.00"> CombinedIndexHook</text>
</g>
<!-- Node32&#45;&gt;Node1 -->
<g id="edge35" class="edge">
<title>Node32&#45;&gt;Node1</title>
<path fill="none" stroke="#9a32cd" stroke-dasharray="5,2" d="M1086.16,-411.31C1145.47,-411.31 1223.03,-411.31 1271.69,-411.31"/>
<polygon fill="#9a32cd" stroke="#9a32cd" points="1086.06,-407.81 1076.06,-411.31 1086.06,-414.81 1086.06,-407.81"/>
<text text-anchor="middle" x="1186.5" y="-414.31" font-family="Helvetica,sans-Serif" font-size="10.00"> RemarksHotnessThreshold</text>
</g>
<!-- Node33 -->
<g id="node33" class="node">
<title>Node33</title>
<g id="a_node33"><a xlink:title=" ">
<polygon fill="none" stroke="#bfbfbf" points="966.5,-242.81 966.5,-261.81 1037.5,-261.81 1037.5,-242.81 966.5,-242.81"/>
<text text-anchor="middle" x="1002" y="-249.81" font-family="Helvetica,sans-Serif" font-size="10.00">VisScheme</text>
</a>
</g>
</g>
<!-- Node33&#45;&gt;Node1 -->
<g id="edge37" class="edge">
<title>Node33&#45;&gt;Node1</title>
<path fill="none" stroke="#9a32cd" stroke-dasharray="5,2" d="M1048.02,-249.62C1101.92,-248.68 1192.58,-254.61 1254,-298.31 1290.93,-324.58 1309.32,-379.26 1315.52,-401.54"/>
<polygon fill="#9a32cd" stroke="#9a32cd" points="1047.66,-246.12 1037.75,-249.89 1047.84,-253.12 1047.66,-246.12"/>
<text text-anchor="middle" x="1186.5" y="-301.31" font-family="Helvetica,sans-Serif" font-size="10.00"> VisibilityScheme</text>
</g>
<!-- Node34 -->
<g id="node34" class="node">
<title>Node34</title>
<g id="a_node34"><a xlink:title=" ">
<polygon fill="none" stroke="#bfbfbf" points="942.5,-193.31 942.5,-223.31 1061.5,-223.31 1061.5,-193.31 942.5,-193.31"/>
<text text-anchor="start" x="950.5" y="-211.31" font-family="Helvetica,sans-Serif" font-size="10.00">function&lt; void(const</text>
<text text-anchor="middle" x="1002" y="-200.31" font-family="Helvetica,sans-Serif" font-size="10.00"> DiagnosticInfo &amp;)&gt;</text>
</a>
</g>
</g>
<!-- Node34&#45;&gt;Node1 -->
<g id="edge38" class="edge">
<title>Node34&#45;&gt;Node1</title>
<path fill="none" stroke="#9a32cd" stroke-dasharray="5,2" d="M1071.52,-198.05C1126.54,-193.72 1202.8,-197.02 1254,-237.31 1307.63,-279.51 1316.32,-371.14 1317.73,-401.4"/>
<polygon fill="#9a32cd" stroke="#9a32cd" points="1071.16,-194.57 1061.5,-198.94 1071.77,-201.54 1071.16,-194.57"/>
<text text-anchor="middle" x="1186.5" y="-240.31" font-family="Helvetica,sans-Serif" font-size="10.00"> DiagHandler</text>
</g>
<!-- Node35&#45;&gt;Node1 -->
<g id="edge39" class="edge">
<title>Node35&#45;&gt;Node1</title>
<path fill="none" stroke="#9a32cd" stroke-dasharray="5,2" d="M1074.29,-145.48C1129.51,-139.06 1204.67,-140.31 1254,-181.31 1289.38,-210.72 1311.53,-362.08 1316.79,-401.77"/>
<polygon fill="#9a32cd" stroke="#9a32cd" points="1073.7,-142.02 1064.22,-146.75 1074.58,-148.97 1073.7,-142.02"/>
<text text-anchor="middle" x="1186.5" y="-184.31" font-family="Helvetica,sans-Serif" font-size="10.00"> RelocModel</text>
</g>
<!-- Node36 -->
<g id="node36" class="node">
<title>Node36</title>
<g id="a_node36"><a xlink:title=" ">
<polygon fill="none" stroke="#bfbfbf" points="980.5,-105.81 980.5,-124.81 1023.5,-124.81 1023.5,-105.81 980.5,-105.81"/>
<text text-anchor="middle" x="1002" y="-112.81" font-family="Helvetica,sans-Serif" font-size="10.00">Level</text>
</a>
</g>
</g>
<!-- Node36&#45;&gt;Node1 -->
<g id="edge41" class="edge">
<title>Node36&#45;&gt;Node1</title>
<path fill="none" stroke="#9a32cd" stroke-dasharray="5,2" d="M1033.96,-112.32C1093.63,-107.27 1221.53,-100.04 1254,-127.31 1297.64,-163.95 1314.06,-356.4 1317.35,-401.74"/>
<polygon fill="#9a32cd" stroke="#9a32cd" points="1033.31,-108.87 1023.65,-113.23 1033.92,-115.84 1033.31,-108.87"/>
<text text-anchor="middle" x="1186.5" y="-130.31" font-family="Helvetica,sans-Serif" font-size="10.00"> CGOptLevel</text>
</g>
<!-- Node37 -->
<g id="node37" class="node">
<title>Node37</title>
<g id="a_node37"><a xlink:title=" ">
<polygon fill="none" stroke="#bfbfbf" points="939.5,-56.31 939.5,-86.31 1064.5,-86.31 1064.5,-56.31 939.5,-56.31"/>
<text text-anchor="start" x="947.5" y="-74.31" font-family="Helvetica,sans-Serif" font-size="10.00">unique_ptr&lt; llvm::raw</text>
<text text-anchor="middle" x="1002" y="-63.31" font-family="Helvetica,sans-Serif" font-size="10.00">_ostream &gt;</text>
</a>
</g>
</g>
<!-- Node37&#45;&gt;Node1 -->
<g id="edge44" class="edge">
<title>Node37&#45;&gt;Node1</title>
<path fill="none" stroke="#9a32cd" stroke-dasharray="5,2" d="M1074.83,-56.2C1130.52,-48.96 1206.07,-49.57 1254,-92.31 1301.85,-134.97 1315.16,-352.8 1317.56,-401.6"/>
<polygon fill="#9a32cd" stroke="#9a32cd" points="1074.08,-52.77 1064.67,-57.64 1075.06,-59.7 1074.08,-52.77"/>
<text text-anchor="middle" x="1186.5" y="-95.31" font-family="Helvetica,sans-Serif" font-size="10.00"> ResolutionFile</text>
</g>
<!-- Node38 -->
<g id="node38" class="node">
<title>Node38</title>
<g id="a_node38"><a xlink:title=" ">
<polygon fill="none" stroke="#bfbfbf" points="928.5,-7.31 928.5,-37.31 1075.5,-37.31 1075.5,-7.31 928.5,-7.31"/>
<text text-anchor="start" x="936.5" y="-25.31" font-family="Helvetica,sans-Serif" font-size="10.00">function&lt; void(llvm</text>
<text text-anchor="middle" x="1002" y="-14.31" font-family="Helvetica,sans-Serif" font-size="10.00">::legacy::PassManager &amp;)&gt;</text>
</a>
</g>
</g>
<!-- Node38&#45;&gt;Node1 -->
<g id="edge46" class="edge">
<title>Node38&#45;&gt;Node1</title>
<path fill="none" stroke="#9a32cd" stroke-dasharray="5,2" d="M1072.83,-5.51C1128.79,3.48 1205.7,5.11 1254,-38.31 1310.07,-88.71 1317.04,-348.52 1317.89,-401.77"/>
<polygon fill="#9a32cd" stroke="#9a32cd" points="1071.89,-2.12 1062.63,-7.27 1073.08,-9.02 1071.89,-2.12"/>
<text text-anchor="middle" x="1186.5" y="-41.31" font-family="Helvetica,sans-Serif" font-size="10.00"> PreCodeGenPassesHook</text>
</g>
</g>
</svg>
