<?xml version="1.0" encoding="UTF-8" standalone="no"?>
<!DOCTYPE svg PUBLIC "-//W3C//DTD SVG 1.1//EN"
 "http://www.w3.org/Graphics/SVG/1.1/DTD/svg11.dtd">
<!-- Generated by graphviz version 2.43.0 (0)
 -->
<!-- Title: llvm::DomainValue Pages: 1 -->
<svg width="1408pt" height="147pt"
 viewBox="0.00 0.00 1408.00 146.50" xmlns="http://www.w3.org/2000/svg" xmlns:xlink="http://www.w3.org/1999/xlink">
<g id="graph0" class="graph" transform="scale(1 1) rotate(0) translate(4 142.5)">
<title>llvm::DomainValue</title>
<!-- Node1 -->
<g id="node1" class="node">
<title>Node1</title>
<g id="a_node1"><a xlink:title="A DomainValue is a bit like LiveIntervals&#39; ValNo, but it also keeps track of execution domains.">
<polygon fill="#bfbfbf" stroke="black" points="1290,-42.5 1290,-61.5 1400,-61.5 1400,-42.5 1290,-42.5"/>
<text text-anchor="middle" x="1345" y="-49.5" font-family="Helvetica,sans-Serif" font-size="10.00">llvm::DomainValue</text>
</a>
</g>
</g>
<!-- Node1&#45;&gt;Node1 -->
<g id="edge13" class="edge">
<title>Node1&#45;&gt;Node1</title>
<path fill="none" stroke="#9a32cd" stroke-dasharray="5,2" d="M1323.05,-71.03C1324.25,-76.13 1331.56,-80 1345,-80 1365.97,-80 1372.04,-70.57 1363.19,-61.76"/>
<polygon fill="#9a32cd" stroke="#9a32cd" points="1326.3,-72.34 1326.81,-61.76 1319.81,-69.71 1326.3,-72.34"/>
<text text-anchor="middle" x="1345" y="-83" font-family="Helvetica,sans-Serif" font-size="10.00"> Next</text>
</g>
<!-- Node2 -->
<g id="node2" class="node">
<title>Node2</title>
<g id="a_node2"><a xlink:href="classllvm_1_1SmallVector.html" target="_top" xlink:title=" ">
<polygon fill="none" stroke="black" points="1051,-58.5 1051,-99.5 1162,-99.5 1162,-58.5 1051,-58.5"/>
<text text-anchor="start" x="1059" y="-87.5" font-family="Helvetica,sans-Serif" font-size="10.00">llvm::SmallVector&lt;</text>
<text text-anchor="start" x="1059" y="-76.5" font-family="Helvetica,sans-Serif" font-size="10.00"> llvm::MachineInstr</text>
<text text-anchor="middle" x="1106.5" y="-65.5" font-family="Helvetica,sans-Serif" font-size="10.00"> *, 8 &gt;</text>
</a>
</g>
</g>
<!-- Node2&#45;&gt;Node1 -->
<g id="edge1" class="edge">
<title>Node2&#45;&gt;Node1</title>
<path fill="none" stroke="#9a32cd" stroke-dasharray="5,2" d="M1172.2,-71.61C1209.07,-67.4 1254.74,-62.19 1289.72,-58.2"/>
<polygon fill="#9a32cd" stroke="#9a32cd" points="1171.59,-68.16 1162.05,-72.77 1172.39,-75.11 1171.59,-68.16"/>
<text text-anchor="middle" x="1226" y="-74" font-family="Helvetica,sans-Serif" font-size="10.00"> Instrs</text>
</g>
<!-- Node3 -->
<g id="node3" class="node">
<title>Node3</title>
<g id="a_node3"><a xlink:href="classllvm_1_1SmallVectorImpl.html" target="_top" xlink:title=" ">
<polygon fill="none" stroke="black" points="771,-64 771,-94 909,-94 909,-64 771,-64"/>
<text text-anchor="start" x="779" y="-82" font-family="Helvetica,sans-Serif" font-size="10.00">llvm::SmallVectorImpl</text>
<text text-anchor="middle" x="840" y="-71" font-family="Helvetica,sans-Serif" font-size="10.00">&lt; llvm::MachineInstr * &gt;</text>
</a>
</g>
</g>
<!-- Node3&#45;&gt;Node2 -->
<g id="edge2" class="edge">
<title>Node3&#45;&gt;Node2</title>
<path fill="none" stroke="midnightblue" d="M919.13,-79C961.52,-79 1012.88,-79 1050.94,-79"/>
<polygon fill="midnightblue" stroke="midnightblue" points="919.12,-75.5 909.12,-79 919.12,-82.5 919.12,-75.5"/>
</g>
<!-- Node4 -->
<g id="node4" class="node">
<title>Node4</title>
<g id="a_node4"><a xlink:href="classllvm_1_1SmallVectorImpl.html" target="_top" xlink:title="This class consists of common code factored out of the SmallVector class to reduce code duplication b...">
<polygon fill="none" stroke="black" points="443.5,-65.5 443.5,-84.5 596.5,-84.5 596.5,-65.5 443.5,-65.5"/>
<text text-anchor="middle" x="520" y="-72.5" font-family="Helvetica,sans-Serif" font-size="10.00">llvm::SmallVectorImpl&lt; T &gt;</text>
</a>
</g>
</g>
<!-- Node4&#45;&gt;Node3 -->
<g id="edge3" class="edge">
<title>Node4&#45;&gt;Node3</title>
<path fill="none" stroke="orange" stroke-dasharray="5,2" d="M606.88,-76.08C658.35,-76.73 722.9,-77.54 770.85,-78.14"/>
<polygon fill="orange" stroke="orange" points="606.81,-72.58 596.76,-75.95 606.72,-79.58 606.81,-72.58"/>
<text text-anchor="middle" x="690.5" y="-81" font-family="Helvetica,sans-Serif" font-size="10.00"> &lt; llvm::MachineInstr * &gt;</text>
</g>
<!-- Node8 -->
<g id="node8" class="node">
<title>Node8</title>
<g id="a_node8"><a xlink:href="classllvm_1_1SmallVector.html" target="_top" xlink:title="This is a &#39;vector&#39; (really, a variable&#45;sized array), optimized for the case when the array is small.">
<polygon fill="none" stroke="black" points="784.5,-15 784.5,-45 895.5,-45 895.5,-15 784.5,-15"/>
<text text-anchor="start" x="792.5" y="-33" font-family="Helvetica,sans-Serif" font-size="10.00">llvm::SmallVector&lt;</text>
<text text-anchor="middle" x="840" y="-22" font-family="Helvetica,sans-Serif" font-size="10.00"> T, N &gt;</text>
</a>
</g>
</g>
<!-- Node4&#45;&gt;Node8 -->
<g id="edge9" class="edge">
<title>Node4&#45;&gt;Node8</title>
<path fill="none" stroke="midnightblue" d="M598.58,-64.02C656.12,-55.88 733.14,-44.98 784.33,-37.74"/>
<polygon fill="midnightblue" stroke="midnightblue" points="597.85,-60.59 588.44,-65.46 598.83,-67.52 597.85,-60.59"/>
</g>
<!-- Node5 -->
<g id="node5" class="node">
<title>Node5</title>
<g id="a_node5"><a xlink:href="structllvm_1_1SmallVectorStorage.html" target="_top" xlink:title=" ">
<polygon fill="none" stroke="black" points="444,-108 444,-138 596,-138 596,-108 444,-108"/>
<text text-anchor="start" x="452" y="-126" font-family="Helvetica,sans-Serif" font-size="10.00">llvm::SmallVectorStorage</text>
<text text-anchor="middle" x="520" y="-115" font-family="Helvetica,sans-Serif" font-size="10.00">&lt; llvm::MachineInstr *, N &gt;</text>
</a>
</g>
</g>
<!-- Node5&#45;&gt;Node2 -->
<g id="edge4" class="edge">
<title>Node5&#45;&gt;Node2</title>
<path fill="none" stroke="#8b1a1a" d="M606.64,-122.01C708.64,-119.9 883.95,-113.34 1033,-93 1038.84,-92.2 1044.93,-91.24 1050.98,-90.2"/>
<polygon fill="#8b1a1a" stroke="#8b1a1a" points="606.33,-118.51 596.4,-122.21 606.46,-125.51 606.33,-118.51"/>
</g>
<!-- Node6 -->
<g id="node6" class="node">
<title>Node6</title>
<g id="a_node6"><a xlink:title=" ">
<polygon fill="none" stroke="#bfbfbf" points="0,-58.5 0,-77.5 38,-77.5 38,-58.5 0,-58.5"/>
<text text-anchor="middle" x="19" y="-65.5" font-family="Helvetica,sans-Serif" font-size="10.00">char</text>
</a>
</g>
</g>
<!-- Node6&#45;&gt;Node5 -->
<g id="edge5" class="edge">
<title>Node6&#45;&gt;Node5</title>
<path fill="none" stroke="#9a32cd" stroke-dasharray="5,2" d="M47.46,-80.19C50.31,-81.23 53.19,-82.19 56,-83 153.44,-111.13 179.98,-112.1 281,-121 335.33,-125.79 396.91,-126.17 443.82,-125.42"/>
<polygon fill="#9a32cd" stroke="#9a32cd" points="48.61,-76.88 38.03,-76.45 46.04,-83.39 48.61,-76.88"/>
<text text-anchor="middle" x="193" y="-122" font-family="Helvetica,sans-Serif" font-size="10.00"> InlineElts</text>
</g>
<!-- Node7 -->
<g id="node7" class="node">
<title>Node7</title>
<g id="a_node7"><a xlink:href="structllvm_1_1SmallVectorStorage.html" target="_top" xlink:title="Storage for the SmallVector elements.">
<polygon fill="none" stroke="black" points="123,-53 123,-83 263,-83 263,-53 123,-53"/>
<text text-anchor="start" x="131" y="-71" font-family="Helvetica,sans-Serif" font-size="10.00">llvm::SmallVectorStorage</text>
<text text-anchor="middle" x="193" y="-60" font-family="Helvetica,sans-Serif" font-size="10.00">&lt; T, N &gt;</text>
</a>
</g>
</g>
<!-- Node6&#45;&gt;Node7 -->
<g id="edge7" class="edge">
<title>Node6&#45;&gt;Node7</title>
<path fill="none" stroke="#9a32cd" stroke-dasharray="5,2" d="M48.2,-68C68.52,-68 96.85,-68 123,-68"/>
<polygon fill="#9a32cd" stroke="#9a32cd" points="48.08,-64.5 38.08,-68 48.08,-71.5 48.08,-64.5"/>
<text text-anchor="middle" x="80.5" y="-71" font-family="Helvetica,sans-Serif" font-size="10.00"> InlineElts</text>
</g>
<!-- Node9 -->
<g id="node9" class="node">
<title>Node9</title>
<g id="a_node9"><a xlink:href="structllvm_1_1SmallVectorStorage.html" target="_top" xlink:title=" ">
<polygon fill="none" stroke="black" points="430,-0.5 430,-41.5 610,-41.5 610,-0.5 430,-0.5"/>
<text text-anchor="start" x="438" y="-29.5" font-family="Helvetica,sans-Serif" font-size="10.00">llvm::SmallVectorStorage</text>
<text text-anchor="start" x="438" y="-18.5" font-family="Helvetica,sans-Serif" font-size="10.00">&lt; T, CalculateSmallVectorDefault</text>
<text text-anchor="middle" x="520" y="-7.5" font-family="Helvetica,sans-Serif" font-size="10.00">InlinedElements&lt; T &gt;::value &gt;</text>
</a>
</g>
</g>
<!-- Node6&#45;&gt;Node9 -->
<g id="edge11" class="edge">
<title>Node6&#45;&gt;Node9</title>
<path fill="none" stroke="#9a32cd" stroke-dasharray="5,2" d="M47.48,-56.03C67.9,-47.73 96.66,-37.25 123,-32 226.88,-11.31 349.08,-11.54 429.97,-15"/>
<polygon fill="#9a32cd" stroke="#9a32cd" points="46.06,-52.83 38.17,-59.9 48.75,-59.29 46.06,-52.83"/>
<text text-anchor="middle" x="193" y="-35" font-family="Helvetica,sans-Serif" font-size="10.00"> InlineElts</text>
</g>
<!-- Node7&#45;&gt;Node5 -->
<g id="edge6" class="edge">
<title>Node7&#45;&gt;Node5</title>
<path fill="none" stroke="orange" stroke-dasharray="5,2" d="M273.48,-77.76C314.9,-83.24 366.32,-90.64 412,-99 426.23,-101.6 441.45,-104.78 455.8,-107.95"/>
<polygon fill="orange" stroke="orange" points="273.81,-74.27 263.44,-76.45 272.9,-81.21 273.81,-74.27"/>
<text text-anchor="start" x="293.5" y="-113" font-family="Helvetica,sans-Serif" font-size="10.00"> &lt; llvm::MachineInstr</text>
<text text-anchor="middle" x="346.5" y="-102" font-family="Helvetica,sans-Serif" font-size="10.00"> *, N &gt;</text>
</g>
<!-- Node7&#45;&gt;Node9 -->
<g id="edge12" class="edge">
<title>Node7&#45;&gt;Node9</title>
<path fill="none" stroke="orange" stroke-dasharray="5,2" d="M250.49,-50.11C260.57,-47.39 271.04,-44.87 281,-43 329.73,-33.83 384.83,-28.43 429.73,-25.27"/>
<polygon fill="orange" stroke="orange" points="249.26,-46.82 240.57,-52.87 251.14,-53.56 249.26,-46.82"/>
<text text-anchor="start" x="281" y="-68" font-family="Helvetica,sans-Serif" font-size="10.00"> &lt; T, CalculateSmallVector</text>
<text text-anchor="start" x="281" y="-57" font-family="Helvetica,sans-Serif" font-size="10.00">DefaultInlinedElements</text>
<text text-anchor="middle" x="346.5" y="-46" font-family="Helvetica,sans-Serif" font-size="10.00">&lt; T &gt;::value &gt;</text>
</g>
<!-- Node8&#45;&gt;Node2 -->
<g id="edge8" class="edge">
<title>Node8&#45;&gt;Node2</title>
<path fill="none" stroke="orange" stroke-dasharray="5,2" d="M906.06,-34.13C943.54,-37.42 991.34,-43.17 1033,-53 1039.38,-54.51 1045.97,-56.39 1052.46,-58.45"/>
<polygon fill="orange" stroke="orange" points="906.04,-30.62 895.78,-33.27 905.45,-37.6 906.04,-30.62"/>
<text text-anchor="start" x="927" y="-67" font-family="Helvetica,sans-Serif" font-size="10.00"> &lt; llvm::MachineInstr</text>
<text text-anchor="middle" x="980" y="-56" font-family="Helvetica,sans-Serif" font-size="10.00"> *, 8 &gt;</text>
</g>
<!-- Node9&#45;&gt;Node8 -->
<g id="edge10" class="edge">
<title>Node9&#45;&gt;Node8</title>
<path fill="none" stroke="#8b1a1a" d="M620.33,-23.81C674.5,-25.34 739.48,-27.18 784.45,-28.46"/>
<polygon fill="#8b1a1a" stroke="#8b1a1a" points="620.1,-20.3 610,-23.52 619.9,-27.3 620.1,-20.3"/>
</g>
<!-- Node10 -->
<g id="node10" class="node">
<title>Node10</title>
<g id="a_node10"><a xlink:title=" ">
<polygon fill="none" stroke="#bfbfbf" points="1076,-20.5 1076,-39.5 1137,-39.5 1137,-20.5 1076,-20.5"/>
<text text-anchor="middle" x="1106.5" y="-27.5" font-family="Helvetica,sans-Serif" font-size="10.00">unsigned</text>
</a>
</g>
</g>
<!-- Node10&#45;&gt;Node1 -->
<g id="edge14" class="edge">
<title>Node10&#45;&gt;Node1</title>
<path fill="none" stroke="#9a32cd" stroke-dasharray="5,2" d="M1147.37,-28.07C1180.81,-27.09 1229.75,-27.13 1272,-33 1286.09,-34.96 1301.36,-38.74 1314.2,-42.42"/>
<polygon fill="#9a32cd" stroke="#9a32cd" points="1146.96,-24.58 1137.08,-28.42 1147.2,-31.58 1146.96,-24.58"/>
<text text-anchor="middle" x="1226" y="-47" font-family="Helvetica,sans-Serif" font-size="10.00"> AvailableDomains</text>
<text text-anchor="middle" x="1226" y="-36" font-family="Helvetica,sans-Serif" font-size="10.00">Refs</text>
</g>
</g>
</svg>
