<?xml version="1.0" encoding="UTF-8" standalone="no"?>
<!DOCTYPE svg PUBLIC "-//W3C//DTD SVG 1.1//EN"
 "http://www.w3.org/Graphics/SVG/1.1/DTD/svg11.dtd">
<!-- Generated by graphviz version 2.43.0 (0)
 -->
<!-- Title: llvm::AAAssumptionInfo Pages: 1 -->
<svg width="1400pt" height="257pt"
 viewBox="0.00 0.00 1400.00 257.00" xmlns="http://www.w3.org/2000/svg" xmlns:xlink="http://www.w3.org/1999/xlink">
<g id="graph0" class="graph" transform="scale(1 1) rotate(0) translate(4 253)">
<title>llvm::AAAssumptionInfo</title>
<!-- Node1 -->
<g id="node1" class="node">
<title>Node1</title>
<g id="a_node1"><a xlink:title="An abstract attribute for getting assumption information.">
<polygon fill="#bfbfbf" stroke="black" points="1258,-187.5 1258,-206.5 1392,-206.5 1392,-187.5 1258,-187.5"/>
<text text-anchor="middle" x="1325" y="-194.5" font-family="Helvetica,sans-Serif" font-size="10.00">llvm::AAAssumptionInfo</text>
</a>
</g>
</g>
<!-- Node2 -->
<g id="node2" class="node">
<title>Node2</title>
<g id="a_node2"><a xlink:href="structllvm_1_1StateWrapper.html" target="_top" xlink:title=" ">
<polygon fill="none" stroke="black" points="1076,-116 1076,-168 1221,-168 1221,-116 1076,-116"/>
<text text-anchor="start" x="1084" y="-156" font-family="Helvetica,sans-Serif" font-size="10.00">llvm::StateWrapper</text>
<text text-anchor="start" x="1084" y="-145" font-family="Helvetica,sans-Serif" font-size="10.00">&lt; SetState&lt; StringRef</text>
<text text-anchor="start" x="1084" y="-134" font-family="Helvetica,sans-Serif" font-size="10.00"> &gt;, AbstractAttribute,</text>
<text text-anchor="middle" x="1148.5" y="-123" font-family="Helvetica,sans-Serif" font-size="10.00"> DenseSet&lt; StringRef &gt; &gt;</text>
</a>
</g>
</g>
<!-- Node2&#45;&gt;Node1 -->
<g id="edge1" class="edge">
<title>Node2&#45;&gt;Node1</title>
<path fill="none" stroke="midnightblue" d="M1230.82,-167.63C1253.3,-174.72 1276.31,-181.97 1293.84,-187.49"/>
<polygon fill="midnightblue" stroke="midnightblue" points="1231.82,-164.28 1221.23,-164.61 1229.72,-170.95 1231.82,-164.28"/>
</g>
<!-- Node3 -->
<g id="node3" class="node">
<title>Node3</title>
<g id="a_node3"><a xlink:href="structllvm_1_1AbstractAttribute.html" target="_top" xlink:title="Base struct for all &quot;concrete attribute&quot; deductions.">
<polygon fill="none" stroke="black" points="770.5,-152.5 770.5,-171.5 898.5,-171.5 898.5,-152.5 770.5,-152.5"/>
<text text-anchor="middle" x="834.5" y="-159.5" font-family="Helvetica,sans-Serif" font-size="10.00">llvm::AbstractAttribute</text>
</a>
</g>
</g>
<!-- Node3&#45;&gt;Node2 -->
<g id="edge2" class="edge">
<title>Node3&#45;&gt;Node2</title>
<path fill="none" stroke="midnightblue" d="M908.81,-157.3C959.17,-154.07 1025.7,-149.81 1075.73,-146.6"/>
<polygon fill="midnightblue" stroke="midnightblue" points="908.39,-153.82 898.64,-157.95 908.84,-160.81 908.39,-153.82"/>
</g>
<!-- Node4 -->
<g id="node4" class="node">
<title>Node4</title>
<g id="a_node4"><a xlink:href="structllvm_1_1IRPosition.html" target="_top" xlink:title="Helper to describe and deal with positions in the LLVM&#45;IR.">
<polygon fill="none" stroke="black" points="533,-190.5 533,-209.5 626,-209.5 626,-190.5 533,-190.5"/>
<text text-anchor="middle" x="579.5" y="-197.5" font-family="Helvetica,sans-Serif" font-size="10.00">llvm::IRPosition</text>
</a>
</g>
</g>
<!-- Node4&#45;&gt;Node3 -->
<g id="edge3" class="edge">
<title>Node4&#45;&gt;Node3</title>
<path fill="none" stroke="midnightblue" d="M636.04,-191.66C675.66,-185.71 729.02,-177.69 770.28,-171.5"/>
<polygon fill="midnightblue" stroke="midnightblue" points="635.39,-188.22 626.02,-193.16 636.43,-195.14 635.39,-188.22"/>
</g>
<!-- Node5 -->
<g id="node5" class="node">
<title>Node5</title>
<g id="a_node5"><a xlink:title=" ">
<polygon fill="none" stroke="#bfbfbf" points="309.5,-212.5 309.5,-231.5 352.5,-231.5 352.5,-212.5 309.5,-212.5"/>
<text text-anchor="middle" x="331" y="-219.5" font-family="Helvetica,sans-Serif" font-size="10.00">const</text>
</a>
</g>
</g>
<!-- Node5&#45;&gt;Node1 -->
<g id="edge15" class="edge">
<title>Node5&#45;&gt;Node1</title>
<path fill="none" stroke="#9a32cd" stroke-dasharray="5,2" d="M362.8,-225.29C409.42,-229.97 500.72,-238 578.5,-238 578.5,-238 578.5,-238 1149.5,-238 1204.27,-238 1266.21,-218.62 1299.57,-206.51"/>
<polygon fill="#9a32cd" stroke="#9a32cd" points="363.05,-221.79 352.75,-224.26 362.34,-228.76 363.05,-221.79"/>
<text text-anchor="middle" x="834.5" y="-241" font-family="Helvetica,sans-Serif" font-size="10.00"> ID</text>
</g>
<!-- Node5&#45;&gt;Node4 -->
<g id="edge4" class="edge">
<title>Node5&#45;&gt;Node4</title>
<path fill="none" stroke="#9a32cd" stroke-dasharray="5,2" d="M362.21,-212.99C377.82,-208.78 397.26,-204.22 415,-202 454.58,-197.05 499.96,-196.93 532.86,-197.83"/>
<polygon fill="#9a32cd" stroke="#9a32cd" points="361.26,-209.62 352.57,-215.68 363.14,-216.37 361.26,-209.62"/>
<text text-anchor="middle" x="452.5" y="-216" font-family="Helvetica,sans-Serif" font-size="10.00"> TombstoneKey</text>
<text text-anchor="middle" x="452.5" y="-205" font-family="Helvetica,sans-Serif" font-size="10.00">EmptyKey</text>
</g>
<!-- Node6 -->
<g id="node6" class="node">
<title>Node6</title>
<g id="a_node6"><a xlink:href="structllvm_1_1AADepGraphNode.html" target="_top" xlink:title="}">
<polygon fill="none" stroke="black" points="513.5,-152.5 513.5,-171.5 645.5,-171.5 645.5,-152.5 513.5,-152.5"/>
<text text-anchor="middle" x="579.5" y="-159.5" font-family="Helvetica,sans-Serif" font-size="10.00">llvm::AADepGraphNode</text>
</a>
</g>
</g>
<!-- Node6&#45;&gt;Node3 -->
<g id="edge5" class="edge">
<title>Node6&#45;&gt;Node3</title>
<path fill="none" stroke="midnightblue" d="M655.75,-162C692.24,-162 735.57,-162 770.32,-162"/>
<polygon fill="midnightblue" stroke="midnightblue" points="655.65,-158.5 645.65,-162 655.65,-165.5 655.65,-158.5"/>
</g>
<!-- Node7 -->
<g id="node7" class="node">
<title>Node7</title>
<g id="a_node7"><a xlink:href="classllvm_1_1TinyPtrVector.html" target="_top" xlink:title=" ">
<polygon fill="none" stroke="black" points="265,-147 265,-177 397,-177 397,-147 265,-147"/>
<text text-anchor="start" x="273" y="-165" font-family="Helvetica,sans-Serif" font-size="10.00">llvm::TinyPtrVector</text>
<text text-anchor="middle" x="331" y="-154" font-family="Helvetica,sans-Serif" font-size="10.00">&lt; llvm::PointerIntPair &gt;</text>
</a>
</g>
</g>
<!-- Node7&#45;&gt;Node6 -->
<g id="edge6" class="edge">
<title>Node7&#45;&gt;Node6</title>
<path fill="none" stroke="#9a32cd" stroke-dasharray="5,2" d="M407.41,-162C441.3,-162 480.91,-162 513.48,-162"/>
<polygon fill="#9a32cd" stroke="#9a32cd" points="407.09,-158.5 397.09,-162 407.09,-165.5 407.09,-158.5"/>
<text text-anchor="middle" x="452.5" y="-165" font-family="Helvetica,sans-Serif" font-size="10.00"> Deps</text>
</g>
<!-- Node8 -->
<g id="node8" class="node">
<title>Node8</title>
<g id="a_node8"><a xlink:href="classllvm_1_1TinyPtrVector.html" target="_top" xlink:title="TinyPtrVector &#45; This class is specialized for cases where there are normally 0 or 1 element in a vect...">
<polygon fill="none" stroke="black" points="0,-147 0,-177 110,-177 110,-147 0,-147"/>
<text text-anchor="start" x="8" y="-165" font-family="Helvetica,sans-Serif" font-size="10.00">llvm::TinyPtrVector</text>
<text text-anchor="middle" x="55" y="-154" font-family="Helvetica,sans-Serif" font-size="10.00">&lt; EltTy &gt;</text>
</a>
</g>
</g>
<!-- Node8&#45;&gt;Node7 -->
<g id="edge7" class="edge">
<title>Node8&#45;&gt;Node7</title>
<path fill="none" stroke="orange" stroke-dasharray="5,2" d="M120.32,-162C163.86,-162 221.18,-162 264.88,-162"/>
<polygon fill="orange" stroke="orange" points="120.13,-158.5 110.13,-162 120.13,-165.5 120.13,-158.5"/>
<text text-anchor="middle" x="187.5" y="-165" font-family="Helvetica,sans-Serif" font-size="10.00"> &lt; llvm::PointerIntPair &gt;</text>
</g>
<!-- Node9 -->
<g id="node9" class="node">
<title>Node9</title>
<g id="a_node9"><a xlink:href="structllvm_1_1SetState.html" target="_top" xlink:title=" ">
<polygon fill="none" stroke="black" points="758,-114.5 758,-133.5 911,-133.5 911,-114.5 758,-114.5"/>
<text text-anchor="middle" x="834.5" y="-121.5" font-family="Helvetica,sans-Serif" font-size="10.00">llvm::SetState&lt; StringRef &gt;</text>
</a>
</g>
</g>
<!-- Node9&#45;&gt;Node2 -->
<g id="edge8" class="edge">
<title>Node9&#45;&gt;Node2</title>
<path fill="none" stroke="midnightblue" d="M921.21,-128.94C969.78,-131.75 1029.84,-135.21 1075.88,-137.87"/>
<polygon fill="midnightblue" stroke="midnightblue" points="921.21,-125.44 911.03,-128.36 920.81,-132.43 921.21,-125.44"/>
</g>
<!-- Node10 -->
<g id="node10" class="node">
<title>Node10</title>
<g id="a_node10"><a xlink:href="structllvm_1_1AbstractState.html" target="_top" xlink:title="An interface to query the internal state of an abstract attribute.">
<polygon fill="none" stroke="black" points="276,-99.5 276,-118.5 386,-118.5 386,-99.5 276,-99.5"/>
<text text-anchor="middle" x="331" y="-106.5" font-family="Helvetica,sans-Serif" font-size="10.00">llvm::AbstractState</text>
</a>
</g>
</g>
<!-- Node10&#45;&gt;Node9 -->
<g id="edge9" class="edge">
<title>Node10&#45;&gt;Node9</title>
<path fill="none" stroke="midnightblue" d="M396.21,-110.92C488.68,-113.69 659.03,-118.78 757.6,-121.73"/>
<polygon fill="midnightblue" stroke="midnightblue" points="396.25,-107.42 386.15,-110.62 396.04,-114.42 396.25,-107.42"/>
</g>
<!-- Node11 -->
<g id="node11" class="node">
<title>Node11</title>
<g id="a_node11"><a xlink:href="structllvm_1_1SetState.html" target="_top" xlink:title="Simple state for a set.">
<polygon fill="none" stroke="black" points="508,-76.5 508,-95.5 651,-95.5 651,-76.5 508,-76.5"/>
<text text-anchor="middle" x="579.5" y="-83.5" font-family="Helvetica,sans-Serif" font-size="10.00">llvm::SetState&lt; BaseTy &gt;</text>
</a>
</g>
</g>
<!-- Node10&#45;&gt;Node11 -->
<g id="edge11" class="edge">
<title>Node10&#45;&gt;Node11</title>
<path fill="none" stroke="midnightblue" d="M396.43,-102.99C430.58,-99.8 472.6,-95.88 507.67,-92.61"/>
<polygon fill="midnightblue" stroke="midnightblue" points="395.73,-99.54 386.1,-103.95 396.38,-106.51 395.73,-99.54"/>
</g>
<!-- Node11&#45;&gt;Node9 -->
<g id="edge10" class="edge">
<title>Node11&#45;&gt;Node9</title>
<path fill="none" stroke="orange" stroke-dasharray="5,2" d="M661.4,-89.76C686.69,-91.69 714.62,-94.61 740,-99 761.52,-102.72 785.3,-109.11 803.49,-114.5"/>
<polygon fill="orange" stroke="orange" points="661.34,-86.25 651.12,-89.02 660.84,-93.23 661.34,-86.25"/>
<text text-anchor="middle" x="704.5" y="-102" font-family="Helvetica,sans-Serif" font-size="10.00"> &lt; StringRef &gt;</text>
</g>
<!-- Node12 -->
<g id="node12" class="node">
<title>Node12</title>
<g id="a_node12"><a xlink:href="structllvm_1_1StateWrapper.html" target="_top" xlink:title="Helper to tie a abstract state implementation to an abstract attribute.">
<polygon fill="none" stroke="black" points="763,-33 763,-63 906,-63 906,-33 763,-33"/>
<text text-anchor="start" x="771" y="-51" font-family="Helvetica,sans-Serif" font-size="10.00">llvm::StateWrapper</text>
<text text-anchor="middle" x="834.5" y="-40" font-family="Helvetica,sans-Serif" font-size="10.00">&lt; StateTy, BaseType, Ts &gt;</text>
</a>
</g>
</g>
<!-- Node12&#45;&gt;Node2 -->
<g id="edge12" class="edge">
<title>Node12&#45;&gt;Node2</title>
<path fill="none" stroke="orange" stroke-dasharray="5,2" d="M916.32,-57.73C959.29,-64.45 1012.49,-75.27 1058,-92 1074.71,-98.14 1092.02,-107.12 1106.91,-115.77"/>
<polygon fill="orange" stroke="orange" points="916.61,-54.24 906.19,-56.19 915.55,-61.16 916.61,-54.24"/>
<text text-anchor="start" x="929" y="-117" font-family="Helvetica,sans-Serif" font-size="10.00"> &lt; SetState&lt; StringRef</text>
<text text-anchor="start" x="929" y="-106" font-family="Helvetica,sans-Serif" font-size="10.00"> &gt;, AbstractAttribute,</text>
<text text-anchor="middle" x="993.5" y="-95" font-family="Helvetica,sans-Serif" font-size="10.00"> DenseSet&lt; StringRef &gt; &gt;</text>
</g>
<!-- Node13 -->
<g id="node13" class="node">
<title>Node13</title>
<g id="a_node13"><a xlink:href="classBaseType.html" target="_top" xlink:title=" ">
<polygon fill="none" stroke="black" points="548,-38.5 548,-57.5 611,-57.5 611,-38.5 548,-38.5"/>
<text text-anchor="middle" x="579.5" y="-45.5" font-family="Helvetica,sans-Serif" font-size="10.00">BaseType</text>
</a>
</g>
</g>
<!-- Node13&#45;&gt;Node12 -->
<g id="edge13" class="edge">
<title>Node13&#45;&gt;Node12</title>
<path fill="none" stroke="midnightblue" d="M621.23,-48C659.39,-48 717.23,-48 762.91,-48"/>
<polygon fill="midnightblue" stroke="midnightblue" points="621.02,-44.5 611.02,-48 621.02,-51.5 621.02,-44.5"/>
</g>
<!-- Node14 -->
<g id="node14" class="node">
<title>Node14</title>
<g id="a_node14"><a xlink:href="classStateTy.html" target="_top" xlink:title=" ">
<polygon fill="none" stroke="black" points="553,-0.5 553,-19.5 606,-19.5 606,-0.5 553,-0.5"/>
<text text-anchor="middle" x="579.5" y="-7.5" font-family="Helvetica,sans-Serif" font-size="10.00">StateTy</text>
</a>
</g>
</g>
<!-- Node14&#45;&gt;Node12 -->
<g id="edge14" class="edge">
<title>Node14&#45;&gt;Node12</title>
<path fill="none" stroke="midnightblue" d="M616.22,-15.36C654.17,-21.06 715.17,-30.23 762.89,-37.39"/>
<polygon fill="midnightblue" stroke="midnightblue" points="616.56,-11.88 606.15,-13.85 615.52,-18.8 616.56,-11.88"/>
</g>
</g>
</svg>
