<?xml version="1.0" encoding="UTF-8" standalone="no"?>
<!DOCTYPE svg PUBLIC "-//W3C//DTD SVG 1.1//EN"
 "http://www.w3.org/Graphics/SVG/1.1/DTD/svg11.dtd">
<!-- Generated by graphviz version 2.43.0 (0)
 -->
<!-- Title: AMDGPUPreLegalizerCombinerHelper::ClampI64ToI16MatchInfo Pages: 1 -->
<svg width="184pt" height="117pt"
 viewBox="0.00 0.00 184.00 117.00" xmlns="http://www.w3.org/2000/svg" xmlns:xlink="http://www.w3.org/1999/xlink">
<g id="graph0" class="graph" transform="scale(1 1) rotate(0) translate(4 113)">
<title>AMDGPUPreLegalizerCombinerHelper::ClampI64ToI16MatchInfo</title>
<!-- Node1 -->
<g id="node1" class="node">
<title>Node1</title>
<g id="a_node1"><a xlink:title=" ">
<polygon fill="#bfbfbf" stroke="black" points="0,-0.5 0,-30.5 176,-30.5 176,-0.5 0,-0.5"/>
<text text-anchor="start" x="8" y="-18.5" font-family="Helvetica,sans-Serif" font-size="10.00">AMDGPUPreLegalizerCombiner</text>
<text text-anchor="middle" x="88" y="-7.5" font-family="Helvetica,sans-Serif" font-size="10.00">Helper::ClampI64ToI16MatchInfo</text>
</a>
</g>
</g>
<!-- Node2 -->
<g id="node2" class="node">
<title>Node2</title>
<g id="a_node2"><a xlink:title=" ">
<polygon fill="none" stroke="#bfbfbf" points="20,-89.5 20,-108.5 70,-108.5 70,-89.5 20,-89.5"/>
<text text-anchor="middle" x="45" y="-96.5" font-family="Helvetica,sans-Serif" font-size="10.00">int64_t</text>
</a>
</g>
</g>
<!-- Node2&#45;&gt;Node1 -->
<g id="edge1" class="edge">
<title>Node2&#45;&gt;Node1</title>
<path fill="none" stroke="#9a32cd" stroke-dasharray="5,2" d="M54.45,-80.09C62.3,-65.21 73.32,-44.31 80.56,-30.6"/>
<polygon fill="#9a32cd" stroke="#9a32cd" points="51.17,-78.8 49.6,-89.28 57.36,-82.07 51.17,-78.8"/>
<text text-anchor="middle" x="87" y="-63" font-family="Helvetica,sans-Serif" font-size="10.00"> Cmp1</text>
<text text-anchor="middle" x="87" y="-52" font-family="Helvetica,sans-Serif" font-size="10.00">Cmp2</text>
</g>
<!-- Node3 -->
<g id="node3" class="node">
<title>Node3</title>
<g id="a_node3"><a xlink:href="classllvm_1_1Register.html" target="_top" xlink:title="Wrapper class representing virtual and physical registers.">
<polygon fill="none" stroke="black" points="88.5,-89.5 88.5,-108.5 173.5,-108.5 173.5,-89.5 88.5,-89.5"/>
<text text-anchor="middle" x="131" y="-96.5" font-family="Helvetica,sans-Serif" font-size="10.00">llvm::Register</text>
</a>
</g>
</g>
<!-- Node3&#45;&gt;Node1 -->
<g id="edge2" class="edge">
<title>Node3&#45;&gt;Node1</title>
<path fill="none" stroke="#9a32cd" stroke-dasharray="5,2" d="M122.64,-80.13C118.16,-70.77 112.46,-59.18 107,-49 103.73,-42.89 99.91,-36.27 96.55,-30.61"/>
<polygon fill="#9a32cd" stroke="#9a32cd" points="119.5,-81.69 126.94,-89.23 125.83,-78.69 119.5,-81.69"/>
<text text-anchor="middle" x="133.5" y="-57.5" font-family="Helvetica,sans-Serif" font-size="10.00"> Origin</text>
</g>
</g>
</svg>
