<?xml version="1.0" encoding="UTF-8" standalone="no"?>
<!DOCTYPE svg PUBLIC "-//W3C//DTD SVG 1.1//EN"
 "http://www.w3.org/Graphics/SVG/1.1/DTD/svg11.dtd">
<!-- Generated by graphviz version 2.43.0 (0)
 -->
<!-- Title: llvm::BTF::BTFEnum Pages: 1 -->
<svg width="135pt" height="95pt"
 viewBox="0.00 0.00 135.00 95.00" xmlns="http://www.w3.org/2000/svg" xmlns:xlink="http://www.w3.org/1999/xlink">
<g id="graph0" class="graph" transform="scale(1 1) rotate(0) translate(4 91)">
<title>llvm::BTF::BTFEnum</title>
<!-- Node1 -->
<g id="node1" class="node">
<title>Node1</title>
<g id="a_node1"><a xlink:title="BTF_KIND_ENUM is followed by multiple &quot;struct BTFEnum&quot;.">
<polygon fill="#bfbfbf" stroke="black" points="2.5,-0.5 2.5,-19.5 117.5,-19.5 117.5,-0.5 2.5,-0.5"/>
<text text-anchor="middle" x="60" y="-7.5" font-family="Helvetica,sans-Serif" font-size="10.00">llvm::BTF::BTFEnum</text>
</a>
</g>
</g>
<!-- Node2 -->
<g id="node2" class="node">
<title>Node2</title>
<g id="a_node2"><a xlink:title=" ">
<polygon fill="none" stroke="#bfbfbf" points="0,-67.5 0,-86.5 50,-86.5 50,-67.5 0,-67.5"/>
<text text-anchor="middle" x="25" y="-74.5" font-family="Helvetica,sans-Serif" font-size="10.00">int32_t</text>
</a>
</g>
</g>
<!-- Node2&#45;&gt;Node1 -->
<g id="edge1" class="edge">
<title>Node2&#45;&gt;Node1</title>
<path fill="none" stroke="#9a32cd" stroke-dasharray="5,2" d="M34.6,-58.16C41.35,-45.63 50.09,-29.41 55.35,-19.63"/>
<polygon fill="#9a32cd" stroke="#9a32cd" points="31.38,-56.77 29.72,-67.23 37.54,-60.09 31.38,-56.77"/>
<text text-anchor="middle" x="54.5" y="-41" font-family="Helvetica,sans-Serif" font-size="10.00"> Val</text>
</g>
<!-- Node3 -->
<g id="node3" class="node">
<title>Node3</title>
<g id="a_node3"><a xlink:href="classuint32__t.html" target="_top" xlink:title=" ">
<polygon fill="none" stroke="black" points="68,-67.5 68,-86.5 124,-86.5 124,-67.5 68,-67.5"/>
<text text-anchor="middle" x="96" y="-74.5" font-family="Helvetica,sans-Serif" font-size="10.00">uint32_t</text>
</a>
</g>
</g>
<!-- Node3&#45;&gt;Node1 -->
<g id="edge2" class="edge">
<title>Node3&#45;&gt;Node1</title>
<path fill="none" stroke="#9a32cd" stroke-dasharray="5,2" d="M86.12,-58.16C79.18,-45.63 70.2,-29.41 64.78,-19.63"/>
<polygon fill="#9a32cd" stroke="#9a32cd" points="83.24,-60.18 91.14,-67.23 89.36,-56.79 83.24,-60.18"/>
<text text-anchor="middle" x="103.5" y="-41" font-family="Helvetica,sans-Serif" font-size="10.00"> NameOff</text>
</g>
</g>
</svg>
