<?xml version="1.0" encoding="UTF-8" standalone="no"?>
<!DOCTYPE svg PUBLIC "-//W3C//DTD SVG 1.1//EN"
 "http://www.w3.org/Graphics/SVG/1.1/DTD/svg11.dtd">
<!-- Generated by graphviz version 2.43.0 (0)
 -->
<!-- Title: llvm::object::OffloadBinary::OffloadingImage Pages: 1 -->
<svg width="1584pt" height="291pt"
 viewBox="0.00 0.00 1584.00 291.00" xmlns="http://www.w3.org/2000/svg" xmlns:xlink="http://www.w3.org/1999/xlink">
<g id="graph0" class="graph" transform="scale(1 1) rotate(0) translate(4 287)">
<title>llvm::object::OffloadBinary::OffloadingImage</title>
<!-- Node1 -->
<g id="node1" class="node">
<title>Node1</title>
<g id="a_node1"><a xlink:title="The offloading metadata that will be serialized to a memory buffer.">
<polygon fill="#bfbfbf" stroke="black" points="1429,-82.5 1429,-112.5 1576,-112.5 1576,-82.5 1429,-82.5"/>
<text text-anchor="start" x="1437" y="-100.5" font-family="Helvetica,sans-Serif" font-size="10.00">llvm::object::OffloadBinary</text>
<text text-anchor="middle" x="1502.5" y="-89.5" font-family="Helvetica,sans-Serif" font-size="10.00">::OffloadingImage</text>
</a>
</g>
</g>
<!-- Node2 -->
<g id="node2" class="node">
<title>Node2</title>
<g id="a_node2"><a xlink:href="classllvm_1_1StringMap.html" target="_top" xlink:title=" ">
<polygon fill="none" stroke="black" points="1176.5,-164.5 1176.5,-194.5 1303.5,-194.5 1303.5,-164.5 1176.5,-164.5"/>
<text text-anchor="start" x="1184.5" y="-182.5" font-family="Helvetica,sans-Serif" font-size="10.00">llvm::StringMap&lt; llvm</text>
<text text-anchor="middle" x="1240" y="-171.5" font-family="Helvetica,sans-Serif" font-size="10.00">::StringRef &gt;</text>
</a>
</g>
</g>
<!-- Node2&#45;&gt;Node1 -->
<g id="edge1" class="edge">
<title>Node2&#45;&gt;Node1</title>
<path fill="none" stroke="#9a32cd" stroke-dasharray="5,2" d="M1313.63,-164.49C1344.06,-157.44 1379.6,-148.23 1411,-137.5 1431.48,-130.5 1453.73,-120.7 1471.03,-112.56"/>
<polygon fill="#9a32cd" stroke="#9a32cd" points="1312.5,-161.16 1303.52,-166.79 1314.05,-167.98 1312.5,-161.16"/>
<text text-anchor="middle" x="1371.5" y="-162.5" font-family="Helvetica,sans-Serif" font-size="10.00"> StringData</text>
</g>
<!-- Node3 -->
<g id="node3" class="node">
<title>Node3</title>
<g id="a_node3"><a xlink:href="classllvm_1_1StringMapImpl.html" target="_top" xlink:title="StringMapImpl &#45; This is the base class of StringMap that is shared among all of its instantiations.">
<polygon fill="none" stroke="black" points="713,-126 713,-145 829,-145 829,-126 713,-126"/>
<text text-anchor="middle" x="771" y="-133" font-family="Helvetica,sans-Serif" font-size="10.00">llvm::StringMapImpl</text>
</a>
</g>
</g>
<!-- Node3&#45;&gt;Node2 -->
<g id="edge2" class="edge">
<title>Node3&#45;&gt;Node2</title>
<path fill="none" stroke="midnightblue" d="M839.31,-140C891.62,-143.66 965.98,-149.24 1031,-155.5 1079.85,-160.2 1135.02,-166.62 1176.26,-171.64"/>
<polygon fill="midnightblue" stroke="midnightblue" points="839.37,-136.49 829.15,-139.29 838.88,-143.48 839.37,-136.49"/>
</g>
<!-- Node13 -->
<g id="node13" class="node">
<title>Node13</title>
<g id="a_node13"><a xlink:href="classllvm_1_1StringMap.html" target="_top" xlink:title="StringMap &#45; This is an unconventional map that is specialized for handling keys that are &quot;strings&quot;,...">
<polygon fill="none" stroke="black" points="885,-164.5 885,-194.5 1031,-194.5 1031,-164.5 885,-164.5"/>
<text text-anchor="start" x="893" y="-182.5" font-family="Helvetica,sans-Serif" font-size="10.00">llvm::StringMap&lt; ValueTy,</text>
<text text-anchor="middle" x="958" y="-171.5" font-family="Helvetica,sans-Serif" font-size="10.00"> AllocatorTy &gt;</text>
</a>
</g>
</g>
<!-- Node3&#45;&gt;Node13 -->
<g id="edge13" class="edge">
<title>Node3&#45;&gt;Node13</title>
<path fill="none" stroke="midnightblue" d="M821.97,-147.38C844.04,-152.63 870.24,-158.86 893.66,-164.43"/>
<polygon fill="midnightblue" stroke="midnightblue" points="822.68,-143.96 812.14,-145.05 821.06,-150.77 822.68,-143.96"/>
</g>
<!-- Node4 -->
<g id="node4" class="node">
<title>Node4</title>
<g id="a_node4"><a xlink:href="classllvm_1_1StringMapEntryBase.html" target="_top" xlink:title="StringMapEntryBase &#45; Shared base class of StringMapEntry instances.">
<polygon fill="none" stroke="black" points="407.5,-170 407.5,-189 550.5,-189 550.5,-170 407.5,-170"/>
<text text-anchor="middle" x="479" y="-177" font-family="Helvetica,sans-Serif" font-size="10.00">llvm::StringMapEntryBase</text>
</a>
</g>
</g>
<!-- Node4&#45;&gt;Node3 -->
<g id="edge3" class="edge">
<title>Node4&#45;&gt;Node3</title>
<path fill="none" stroke="#9a32cd" stroke-dasharray="5,2" d="M560.89,-172.59C596.35,-169 638.38,-163.99 676,-157.5 695.16,-154.19 716.26,-149.37 733.6,-145.08"/>
<polygon fill="#9a32cd" stroke="#9a32cd" points="560.2,-169.14 550.59,-173.61 560.89,-176.11 560.2,-169.14"/>
<text text-anchor="middle" x="625" y="-173.5" font-family="Helvetica,sans-Serif" font-size="10.00"> TheTable</text>
</g>
<!-- Node5 -->
<g id="node5" class="node">
<title>Node5</title>
<g id="a_node5"><a xlink:title=" ">
<polygon fill="none" stroke="#bfbfbf" points="448.5,-103 448.5,-122 509.5,-122 509.5,-103 448.5,-103"/>
<text text-anchor="middle" x="479" y="-110" font-family="Helvetica,sans-Serif" font-size="10.00">unsigned</text>
</a>
</g>
</g>
<!-- Node5&#45;&gt;Node3 -->
<g id="edge4" class="edge">
<title>Node5&#45;&gt;Node3</title>
<path fill="none" stroke="#9a32cd" stroke-dasharray="5,2" d="M519.75,-110.1C559.46,-108.31 622.18,-107.15 676,-113.5 696.64,-115.94 719.34,-121.17 737.26,-125.93"/>
<polygon fill="#9a32cd" stroke="#9a32cd" points="519.5,-106.61 509.68,-110.59 519.84,-113.6 519.5,-106.61"/>
<text text-anchor="middle" x="625" y="-149.5" font-family="Helvetica,sans-Serif" font-size="10.00"> NumItems</text>
<text text-anchor="middle" x="625" y="-138.5" font-family="Helvetica,sans-Serif" font-size="10.00">NumBuckets</text>
<text text-anchor="middle" x="625" y="-127.5" font-family="Helvetica,sans-Serif" font-size="10.00">ItemSize</text>
<text text-anchor="middle" x="625" y="-116.5" font-family="Helvetica,sans-Serif" font-size="10.00">NumTombstones</text>
</g>
<!-- Node6 -->
<g id="node6" class="node">
<title>Node6</title>
<g id="a_node6"><a xlink:title=" ">
<polygon fill="none" stroke="#bfbfbf" points="450,-65 450,-84 508,-84 508,-65 450,-65"/>
<text text-anchor="middle" x="479" y="-72" font-family="Helvetica,sans-Serif" font-size="10.00">uintptr_t</text>
</a>
</g>
</g>
<!-- Node6&#45;&gt;Node3 -->
<g id="edge5" class="edge">
<title>Node6&#45;&gt;Node3</title>
<path fill="none" stroke="#9a32cd" stroke-dasharray="5,2" d="M518.2,-74.58C558.17,-75.5 622.45,-79.34 676,-93.5 704.17,-100.95 734.57,-115.94 752.95,-125.85"/>
<polygon fill="#9a32cd" stroke="#9a32cd" points="518.15,-71.08 508.09,-74.4 518.02,-78.08 518.15,-71.08"/>
<text text-anchor="middle" x="625" y="-96.5" font-family="Helvetica,sans-Serif" font-size="10.00"> TombstoneIntVal</text>
</g>
<!-- Node7 -->
<g id="node7" class="node">
<title>Node7</title>
<g id="a_node7"><a xlink:href="classllvm_1_1detail_1_1AllocatorHolder.html" target="_top" xlink:title=" ">
<polygon fill="none" stroke="black" points="694,-208.5 694,-238.5 848,-238.5 848,-208.5 694,-208.5"/>
<text text-anchor="start" x="702" y="-226.5" font-family="Helvetica,sans-Serif" font-size="10.00">llvm::detail::AllocatorHolder</text>
<text text-anchor="middle" x="771" y="-215.5" font-family="Helvetica,sans-Serif" font-size="10.00">&lt; MallocAllocator &gt;</text>
</a>
</g>
</g>
<!-- Node7&#45;&gt;Node2 -->
<g id="edge6" class="edge">
<title>Node7&#45;&gt;Node2</title>
<path fill="none" stroke="#8b1a1a" d="M858.24,-219.18C934.6,-214.79 1048.99,-206.87 1148,-194.5 1157.22,-193.35 1166.93,-191.95 1176.43,-190.47"/>
<polygon fill="#8b1a1a" stroke="#8b1a1a" points="857.97,-215.68 848.19,-219.74 858.37,-222.67 857.97,-215.68"/>
</g>
<!-- Node7&#45;&gt;Node13 -->
<g id="edge14" class="edge">
<title>Node7&#45;&gt;Node13</title>
<path fill="none" stroke="#8b1a1a" d="M845.06,-206.12C861.18,-202.29 878.13,-198.26 893.82,-194.53"/>
<polygon fill="#8b1a1a" stroke="#8b1a1a" points="844.07,-202.76 835.15,-208.48 845.69,-209.57 844.07,-202.76"/>
</g>
<!-- Node8 -->
<g id="node8" class="node">
<title>Node8</title>
<g id="a_node8"><a xlink:href="classllvm_1_1MallocAllocator.html" target="_top" xlink:title=" ">
<polygon fill="none" stroke="black" points="419,-258 419,-277 539,-277 539,-258 419,-258"/>
<text text-anchor="middle" x="479" y="-265" font-family="Helvetica,sans-Serif" font-size="10.00">llvm::MallocAllocator</text>
</a>
</g>
</g>
<!-- Node8&#45;&gt;Node7 -->
<g id="edge7" class="edge">
<title>Node8&#45;&gt;Node7</title>
<path fill="none" stroke="#8b1a1a" d="M549.51,-257.41C587,-251.92 634.05,-244.95 676,-238.5 681.8,-237.61 687.8,-236.68 693.83,-235.73"/>
<polygon fill="#8b1a1a" stroke="#8b1a1a" points="548.6,-254.01 539.21,-258.92 549.61,-260.93 548.6,-254.01"/>
</g>
<!-- Node9 -->
<g id="node9" class="node">
<title>Node9</title>
<g id="a_node9"><a xlink:href="classllvm_1_1AllocatorBase.html" target="_top" xlink:title=" ">
<polygon fill="none" stroke="black" points="250,-252.5 250,-282.5 365,-282.5 365,-252.5 250,-252.5"/>
<text text-anchor="start" x="258" y="-270.5" font-family="Helvetica,sans-Serif" font-size="10.00">llvm::AllocatorBase</text>
<text text-anchor="middle" x="307.5" y="-259.5" font-family="Helvetica,sans-Serif" font-size="10.00">&lt; MallocAllocator &gt;</text>
</a>
</g>
</g>
<!-- Node9&#45;&gt;Node8 -->
<g id="edge8" class="edge">
<title>Node9&#45;&gt;Node8</title>
<path fill="none" stroke="midnightblue" d="M375.67,-267.5C389.97,-267.5 404.96,-267.5 418.92,-267.5"/>
<polygon fill="midnightblue" stroke="midnightblue" points="375.41,-264 365.41,-267.5 375.41,-271 375.41,-264"/>
</g>
<!-- Node10 -->
<g id="node10" class="node">
<title>Node10</title>
<g id="a_node10"><a xlink:href="classllvm_1_1AllocatorBase.html" target="_top" xlink:title="CRTP base class providing obvious overloads for the core Allocate() methods of LLVM&#45;style allocators.">
<polygon fill="none" stroke="black" points="0,-252.5 0,-282.5 112,-282.5 112,-252.5 0,-252.5"/>
<text text-anchor="start" x="8" y="-270.5" font-family="Helvetica,sans-Serif" font-size="10.00">llvm::AllocatorBase</text>
<text text-anchor="middle" x="56" y="-259.5" font-family="Helvetica,sans-Serif" font-size="10.00">&lt; DerivedT &gt;</text>
</a>
</g>
</g>
<!-- Node10&#45;&gt;Node9 -->
<g id="edge9" class="edge">
<title>Node10&#45;&gt;Node9</title>
<path fill="none" stroke="orange" stroke-dasharray="5,2" d="M122.16,-267.5C161.78,-267.5 211.88,-267.5 249.85,-267.5"/>
<polygon fill="orange" stroke="orange" points="122.06,-264 112.06,-267.5 122.06,-271 122.06,-264"/>
<text text-anchor="middle" x="181" y="-270.5" font-family="Helvetica,sans-Serif" font-size="10.00"> &lt; MallocAllocator &gt;</text>
</g>
<!-- Node11 -->
<g id="node11" class="node">
<title>Node11</title>
<g id="a_node11"><a xlink:href="classllvm_1_1detail_1_1AllocatorHolder.html" target="_top" xlink:title=" ">
<polygon fill="none" stroke="black" points="402,-208.5 402,-238.5 556,-238.5 556,-208.5 402,-208.5"/>
<text text-anchor="start" x="410" y="-226.5" font-family="Helvetica,sans-Serif" font-size="10.00">llvm::detail::AllocatorHolder</text>
<text text-anchor="middle" x="479" y="-215.5" font-family="Helvetica,sans-Serif" font-size="10.00">&lt; Alloc &gt;</text>
</a>
</g>
</g>
<!-- Node11&#45;&gt;Node7 -->
<g id="edge10" class="edge">
<title>Node11&#45;&gt;Node7</title>
<path fill="none" stroke="orange" stroke-dasharray="5,2" d="M566.32,-223.5C606.82,-223.5 654.67,-223.5 693.81,-223.5"/>
<polygon fill="orange" stroke="orange" points="566.19,-220 556.19,-223.5 566.19,-227 566.19,-220"/>
<text text-anchor="middle" x="625" y="-226.5" font-family="Helvetica,sans-Serif" font-size="10.00"> &lt; MallocAllocator &gt;</text>
</g>
<!-- Node12 -->
<g id="node12" class="node">
<title>Node12</title>
<g id="a_node12"><a xlink:title=" ">
<polygon fill="none" stroke="#bfbfbf" points="287,-214 287,-233 328,-233 328,-214 287,-214"/>
<text text-anchor="middle" x="307.5" y="-221" font-family="Helvetica,sans-Serif" font-size="10.00">Alloc</text>
</a>
</g>
</g>
<!-- Node12&#45;&gt;Node11 -->
<g id="edge11" class="edge">
<title>Node12&#45;&gt;Node11</title>
<path fill="none" stroke="#8b1a1a" d="M338.52,-223.5C356.22,-223.5 379.48,-223.5 401.93,-223.5"/>
<polygon fill="#8b1a1a" stroke="#8b1a1a" points="338.28,-220 328.28,-223.5 338.28,-227 338.28,-220"/>
</g>
<!-- Node13&#45;&gt;Node2 -->
<g id="edge12" class="edge">
<title>Node13&#45;&gt;Node2</title>
<path fill="none" stroke="orange" stroke-dasharray="5,2" d="M1041.29,-179.5C1084.4,-179.5 1136.35,-179.5 1176.18,-179.5"/>
<polygon fill="orange" stroke="orange" points="1041.11,-176 1031.11,-179.5 1041.11,-183 1041.11,-176"/>
<text text-anchor="middle" x="1098.5" y="-182.5" font-family="Helvetica,sans-Serif" font-size="10.00"> &lt; llvm::StringRef &gt;</text>
</g>
<!-- Node14 -->
<g id="node14" class="node">
<title>Node14</title>
<g id="a_node14"><a xlink:title=" ">
<polygon fill="none" stroke="#bfbfbf" points="1203,-126 1203,-145 1277,-145 1277,-126 1203,-126"/>
<text text-anchor="middle" x="1240" y="-133" font-family="Helvetica,sans-Serif" font-size="10.00">OffloadKind</text>
</a>
</g>
</g>
<!-- Node14&#45;&gt;Node1 -->
<g id="edge15" class="edge">
<title>Node14&#45;&gt;Node1</title>
<path fill="none" stroke="#9a32cd" stroke-dasharray="5,2" d="M1287.36,-129.61C1321.56,-125.17 1369.23,-118.79 1411,-112.5 1416.83,-111.62 1422.86,-110.69 1428.92,-109.73"/>
<polygon fill="#9a32cd" stroke="#9a32cd" points="1286.66,-126.17 1277.19,-130.92 1287.56,-133.11 1286.66,-126.17"/>
<text text-anchor="middle" x="1371.5" y="-125.5" font-family="Helvetica,sans-Serif" font-size="10.00"> TheOffloadKind</text>
</g>
<!-- Node15 -->
<g id="node15" class="node">
<title>Node15</title>
<g id="a_node15"><a xlink:href="classuint32__t.html" target="_top" xlink:title=" ">
<polygon fill="none" stroke="black" points="1212,-88 1212,-107 1268,-107 1268,-88 1212,-88"/>
<text text-anchor="middle" x="1240" y="-95" font-family="Helvetica,sans-Serif" font-size="10.00">uint32_t</text>
</a>
</g>
</g>
<!-- Node15&#45;&gt;Node1 -->
<g id="edge16" class="edge">
<title>Node15&#45;&gt;Node1</title>
<path fill="none" stroke="#9a32cd" stroke-dasharray="5,2" d="M1278.54,-97.5C1317.68,-97.5 1380.02,-97.5 1428.84,-97.5"/>
<polygon fill="#9a32cd" stroke="#9a32cd" points="1278.39,-94 1268.39,-97.5 1278.39,-101 1278.39,-94"/>
<text text-anchor="middle" x="1371.5" y="-100.5" font-family="Helvetica,sans-Serif" font-size="10.00"> Flags</text>
</g>
<!-- Node16 -->
<g id="node16" class="node">
<title>Node16</title>
<g id="a_node16"><a xlink:title=" ">
<polygon fill="none" stroke="#bfbfbf" points="1205.5,-50 1205.5,-69 1274.5,-69 1274.5,-50 1205.5,-50"/>
<text text-anchor="middle" x="1240" y="-57" font-family="Helvetica,sans-Serif" font-size="10.00">ImageKind</text>
</a>
</g>
</g>
<!-- Node16&#45;&gt;Node1 -->
<g id="edge17" class="edge">
<title>Node16&#45;&gt;Node1</title>
<path fill="none" stroke="#9a32cd" stroke-dasharray="5,2" d="M1284.76,-65.06C1319.12,-69.51 1368.16,-76.05 1411,-82.5 1416.83,-83.38 1422.86,-84.31 1428.92,-85.27"/>
<polygon fill="#9a32cd" stroke="#9a32cd" points="1284.95,-61.55 1274.59,-63.74 1284.06,-68.49 1284.95,-61.55"/>
<text text-anchor="middle" x="1371.5" y="-85.5" font-family="Helvetica,sans-Serif" font-size="10.00"> TheImageKind</text>
</g>
<!-- Node17 -->
<g id="node17" class="node">
<title>Node17</title>
<g id="a_node17"><a xlink:title=" ">
<polygon fill="none" stroke="#bfbfbf" points="1166,-0.5 1166,-30.5 1314,-30.5 1314,-0.5 1166,-0.5"/>
<text text-anchor="start" x="1174" y="-18.5" font-family="Helvetica,sans-Serif" font-size="10.00">unique_ptr&lt; llvm::Memory</text>
<text text-anchor="middle" x="1240" y="-7.5" font-family="Helvetica,sans-Serif" font-size="10.00">Buffer &gt;</text>
</a>
</g>
</g>
<!-- Node17&#45;&gt;Node1 -->
<g id="edge18" class="edge">
<title>Node17&#45;&gt;Node1</title>
<path fill="none" stroke="#9a32cd" stroke-dasharray="5,2" d="M1324.36,-32.3C1352.23,-38.79 1383.25,-46.97 1411,-56.5 1431.88,-63.68 1454.51,-73.93 1471.91,-82.38"/>
<polygon fill="#9a32cd" stroke="#9a32cd" points="1324.78,-28.8 1314.25,-29.99 1323.22,-35.63 1324.78,-28.8"/>
<text text-anchor="middle" x="1371.5" y="-59.5" font-family="Helvetica,sans-Serif" font-size="10.00"> Image</text>
</g>
</g>
</svg>
