<?xml version="1.0" encoding="UTF-8" standalone="no"?>
<!DOCTYPE svg PUBLIC "-//W3C//DTD SVG 1.1//EN"
 "http://www.w3.org/Graphics/SVG/1.1/DTD/svg11.dtd">
<!-- Generated by graphviz version 2.43.0 (0)
 -->
<!-- Title: llvm::function_traits&lt; T, isClass &gt; Pages: 1 -->
<svg width="603pt" height="170pt"
 viewBox="0.00 0.00 603.00 170.00" xmlns="http://www.w3.org/2000/svg" xmlns:xlink="http://www.w3.org/1999/xlink">
<g id="graph0" class="graph" transform="scale(1 1) rotate(0) translate(4 166)">
<title>llvm::function_traits&lt; T, isClass &gt;</title>
<!-- Node1 -->
<g id="node1" class="node">
<title>Node1</title>
<g id="a_node1"><a xlink:title="This class provides various trait information about a callable object.">
<polygon fill="#bfbfbf" stroke="black" points="0,-96 0,-126 115,-126 115,-96 0,-96"/>
<text text-anchor="start" x="8" y="-114" font-family="Helvetica,sans-Serif" font-size="10.00">llvm::function_traits</text>
<text text-anchor="middle" x="57.5" y="-103" font-family="Helvetica,sans-Serif" font-size="10.00">&lt; T, isClass &gt;</text>
</a>
</g>
</g>
<!-- Node2 -->
<g id="node2" class="node">
<title>Node2</title>
<g id="a_node2"><a xlink:href="structllvm_1_1function__traits.html" target="_top" xlink:title=" ">
<polygon fill="none" stroke="black" points="283.5,-118.5 283.5,-159.5 418.5,-159.5 418.5,-118.5 283.5,-118.5"/>
<text text-anchor="start" x="291.5" y="-147.5" font-family="Helvetica,sans-Serif" font-size="10.00">llvm::function_traits</text>
<text text-anchor="start" x="291.5" y="-136.5" font-family="Helvetica,sans-Serif" font-size="10.00">&lt; ReturnType(ClassType</text>
<text text-anchor="middle" x="351" y="-125.5" font-family="Helvetica,sans-Serif" font-size="10.00">::*)(Args...) const &gt;</text>
</a>
</g>
</g>
<!-- Node1&#45;&gt;Node2 -->
<g id="edge1" class="edge">
<title>Node1&#45;&gt;Node2</title>
<path fill="none" stroke="orange" stroke-dasharray="5,2" d="M125.21,-117.41C172.62,-121.96 236.02,-128.05 283.4,-132.6"/>
<polygon fill="orange" stroke="orange" points="125.34,-113.9 115.05,-116.43 124.67,-120.87 125.34,-113.9"/>
<text text-anchor="start" x="136.5" y="-143" font-family="Helvetica,sans-Serif" font-size="10.00"> &lt; ReturnType(ClassType</text>
<text text-anchor="middle" x="197.5" y="-132" font-family="Helvetica,sans-Serif" font-size="10.00">::*)(Args...) const &gt;</text>
</g>
<!-- Node4 -->
<g id="node4" class="node">
<title>Node4</title>
<g id="a_node4"><a xlink:href="structllvm_1_1function__traits.html" target="_top" xlink:title=" ">
<polygon fill="none" stroke="black" points="280,-66 280,-96 422,-96 422,-66 280,-66"/>
<text text-anchor="start" x="288" y="-84" font-family="Helvetica,sans-Serif" font-size="10.00">llvm::function_traits</text>
<text text-anchor="middle" x="351" y="-73" font-family="Helvetica,sans-Serif" font-size="10.00">&lt; ReturnType(*)(Args...)&gt;</text>
</a>
</g>
</g>
<!-- Node1&#45;&gt;Node4 -->
<g id="edge3" class="edge">
<title>Node1&#45;&gt;Node4</title>
<path fill="none" stroke="orange" stroke-dasharray="5,2" d="M125.23,-103.81C127.86,-103.54 130.45,-103.27 133,-103 181.96,-97.89 237.15,-92.3 279.62,-88.03"/>
<polygon fill="orange" stroke="orange" points="124.61,-100.36 115.04,-104.89 125.35,-107.32 124.61,-100.36"/>
<text text-anchor="middle" x="197.5" y="-106" font-family="Helvetica,sans-Serif" font-size="10.00"> &lt; ReturnType(*)(Args...)&gt;</text>
</g>
<!-- Node3 -->
<g id="node3" class="node">
<title>Node3</title>
<g id="a_node3"><a xlink:href="structllvm_1_1function__traits_3_01ReturnType_07ClassType_1_1_5_08_07Args_8_8_8_08_00_01false_01_4.html" target="_top" xlink:title="Overload for class function types.">
<polygon fill="none" stroke="black" points="459.5,-120.5 459.5,-161.5 594.5,-161.5 594.5,-120.5 459.5,-120.5"/>
<text text-anchor="start" x="467.5" y="-149.5" font-family="Helvetica,sans-Serif" font-size="10.00">llvm::function_traits</text>
<text text-anchor="start" x="467.5" y="-138.5" font-family="Helvetica,sans-Serif" font-size="10.00">&lt; ReturnType(ClassType</text>
<text text-anchor="middle" x="527" y="-127.5" font-family="Helvetica,sans-Serif" font-size="10.00">::*)(Args...), false &gt;</text>
</a>
</g>
</g>
<!-- Node2&#45;&gt;Node3 -->
<g id="edge2" class="edge">
<title>Node2&#45;&gt;Node3</title>
<path fill="none" stroke="midnightblue" d="M428.87,-139.88C439.05,-140 449.42,-140.12 459.4,-140.23"/>
<polygon fill="midnightblue" stroke="midnightblue" points="428.81,-136.38 418.78,-139.77 428.73,-143.38 428.81,-136.38"/>
</g>
<!-- Node5 -->
<g id="node5" class="node">
<title>Node5</title>
<g id="a_node5"><a xlink:href="structllvm_1_1function__traits_3_01ReturnType_07_6_08_07Args_8_8_8_08_00_01false_01_4.html" target="_top" xlink:title="Overload for non&#45;class function type references.">
<polygon fill="none" stroke="black" points="459,-60.5 459,-101.5 595,-101.5 595,-60.5 459,-60.5"/>
<text text-anchor="start" x="467" y="-89.5" font-family="Helvetica,sans-Serif" font-size="10.00">llvm::function_traits</text>
<text text-anchor="start" x="467" y="-78.5" font-family="Helvetica,sans-Serif" font-size="10.00">&lt; ReturnType(&amp;)(Args...)</text>
<text text-anchor="middle" x="527" y="-67.5" font-family="Helvetica,sans-Serif" font-size="10.00">, false &gt;</text>
</a>
</g>
</g>
<!-- Node4&#45;&gt;Node5 -->
<g id="edge4" class="edge">
<title>Node4&#45;&gt;Node5</title>
<path fill="none" stroke="midnightblue" d="M432.1,-81C441.08,-81 450.15,-81 458.95,-81"/>
<polygon fill="midnightblue" stroke="midnightblue" points="432.02,-77.5 422.02,-81 432.02,-84.5 432.02,-77.5"/>
</g>
<!-- Node6 -->
<g id="node6" class="node">
<title>Node6</title>
<g id="a_node6"><a xlink:href="structllvm_1_1function__traits_3_01ReturnType_07_5const_08_07Args_8_8_8_08_00_01false_01_4.html" target="_top" xlink:title=" ">
<polygon fill="none" stroke="black" points="466,-0.5 466,-41.5 588,-41.5 588,-0.5 466,-0.5"/>
<text text-anchor="start" x="474" y="-29.5" font-family="Helvetica,sans-Serif" font-size="10.00">llvm::function_traits</text>
<text text-anchor="start" x="474" y="-18.5" font-family="Helvetica,sans-Serif" font-size="10.00">&lt; ReturnType(*const)</text>
<text text-anchor="middle" x="527" y="-7.5" font-family="Helvetica,sans-Serif" font-size="10.00">(Args...), false &gt;</text>
</a>
</g>
</g>
<!-- Node4&#45;&gt;Node6 -->
<g id="edge5" class="edge">
<title>Node4&#45;&gt;Node6</title>
<path fill="none" stroke="midnightblue" d="M405.43,-62.58C424.7,-55.93 446.56,-48.39 466.33,-41.58"/>
<polygon fill="midnightblue" stroke="midnightblue" points="404.22,-59.29 395.91,-65.86 406.5,-65.91 404.22,-59.29"/>
</g>
</g>
</svg>
