<?xml version="1.0" encoding="UTF-8" standalone="no"?>
<!DOCTYPE svg PUBLIC "-//W3C//DTD SVG 1.1//EN"
 "http://www.w3.org/Graphics/SVG/1.1/DTD/svg11.dtd">
<!-- Generated by graphviz version 2.43.0 (0)
 -->
<!-- Title: llvm::Dependence::DVEntry Pages: 1 -->
<svg width="209pt" height="128pt"
 viewBox="0.00 0.00 209.00 128.00" xmlns="http://www.w3.org/2000/svg" xmlns:xlink="http://www.w3.org/1999/xlink">
<g id="graph0" class="graph" transform="scale(1 1) rotate(0) translate(4 124)">
<title>llvm::Dependence::DVEntry</title>
<!-- Node1 -->
<g id="node1" class="node">
<title>Node1</title>
<g id="a_node1"><a xlink:title="Dependence::DVEntry &#45; Each level in the distance/direction vector has a direction (or perhaps a union...">
<polygon fill="#bfbfbf" stroke="black" points="11.5,-0.5 11.5,-19.5 162.5,-19.5 162.5,-0.5 11.5,-0.5"/>
<text text-anchor="middle" x="87" y="-7.5" font-family="Helvetica,sans-Serif" font-size="10.00">llvm::Dependence::DVEntry</text>
</a>
</g>
</g>
<!-- Node2 -->
<g id="node2" class="node">
<title>Node2</title>
<g id="a_node2"><a xlink:title=" ">
<polygon fill="none" stroke="#bfbfbf" points="0,-100.5 0,-119.5 38,-119.5 38,-100.5 0,-100.5"/>
<text text-anchor="middle" x="19" y="-107.5" font-family="Helvetica,sans-Serif" font-size="10.00">bool</text>
</a>
</g>
</g>
<!-- Node2&#45;&gt;Node1 -->
<g id="edge1" class="edge">
<title>Node2&#45;&gt;Node1</title>
<path fill="none" stroke="#9a32cd" stroke-dasharray="5,2" d="M20.07,-89.76C21.81,-74.34 26.34,-52.89 38,-38 44.35,-29.89 53.84,-23.87 62.78,-19.6"/>
<polygon fill="#9a32cd" stroke="#9a32cd" points="16.54,-89.91 19.2,-100.17 23.52,-90.49 16.54,-89.91"/>
<text text-anchor="middle" x="60.5" y="-74" font-family="Helvetica,sans-Serif" font-size="10.00"> PeelLast</text>
<text text-anchor="middle" x="60.5" y="-63" font-family="Helvetica,sans-Serif" font-size="10.00">PeelFirst</text>
<text text-anchor="middle" x="60.5" y="-52" font-family="Helvetica,sans-Serif" font-size="10.00">Scalar</text>
<text text-anchor="middle" x="60.5" y="-41" font-family="Helvetica,sans-Serif" font-size="10.00">Splitable</text>
</g>
<!-- Node3 -->
<g id="node3" class="node">
<title>Node3</title>
<g id="a_node3"><a xlink:title=" ">
<polygon fill="none" stroke="#bfbfbf" points="65.5,-100.5 65.5,-119.5 108.5,-119.5 108.5,-100.5 65.5,-100.5"/>
<text text-anchor="middle" x="87" y="-107.5" font-family="Helvetica,sans-Serif" font-size="10.00">const</text>
</a>
</g>
</g>
<!-- Node3&#45;&gt;Node1 -->
<g id="edge2" class="edge">
<title>Node3&#45;&gt;Node1</title>
<path fill="none" stroke="#9a32cd" stroke-dasharray="5,2" d="M87,-90.22C87,-68.95 87,-35.22 87,-19.54"/>
<polygon fill="#9a32cd" stroke="#9a32cd" points="83.5,-90.3 87,-100.3 90.5,-90.3 83.5,-90.3"/>
<text text-anchor="middle" x="110" y="-57.5" font-family="Helvetica,sans-Serif" font-size="10.00"> Distance</text>
</g>
<!-- Node4 -->
<g id="node4" class="node">
<title>Node4</title>
<g id="a_node4"><a xlink:title=" ">
<polygon fill="none" stroke="#bfbfbf" points="126.5,-100.5 126.5,-119.5 187.5,-119.5 187.5,-100.5 126.5,-100.5"/>
<text text-anchor="middle" x="157" y="-107.5" font-family="Helvetica,sans-Serif" font-size="10.00">unsigned</text>
</a>
</g>
</g>
<!-- Node4&#45;&gt;Node1 -->
<g id="edge3" class="edge">
<title>Node4&#45;&gt;Node1</title>
<path fill="none" stroke="#9a32cd" stroke-dasharray="5,2" d="M155.05,-90.21C152.6,-74.75 147.14,-53.03 135,-38 128.51,-29.97 118.95,-23.91 110.07,-19.58"/>
<polygon fill="#9a32cd" stroke="#9a32cd" points="151.58,-90.7 156.35,-100.17 158.52,-89.8 151.58,-90.7"/>
<text text-anchor="middle" x="177" y="-57.5" font-family="Helvetica,sans-Serif" font-size="10.00"> Direction</text>
</g>
</g>
</svg>
