<?xml version="1.0" encoding="UTF-8" standalone="no"?>
<!DOCTYPE svg PUBLIC "-//W3C//DTD SVG 1.1//EN"
 "http://www.w3.org/Graphics/SVG/1.1/DTD/svg11.dtd">
<!-- Generated by graphviz version 2.43.0 (0)
 -->
<!-- Title: llvm::object::Elf_Rel_Impl&lt; ELFType&lt; TargetEndianness, false &gt;, false &gt; Pages: 1 -->
<svg width="204pt" height="117pt"
 viewBox="0.00 0.00 203.50 117.00" xmlns="http://www.w3.org/2000/svg" xmlns:xlink="http://www.w3.org/1999/xlink">
<g id="graph0" class="graph" transform="scale(1 1) rotate(0) translate(4 113)">
<title>llvm::object::Elf_Rel_Impl&lt; ELFType&lt; TargetEndianness, false &gt;, false &gt;</title>
<!-- Node1 -->
<g id="node1" class="node">
<title>Node1</title>
<g id="a_node1"><a xlink:title=" ">
<polygon fill="#bfbfbf" stroke="black" points="0,-0.5 0,-41.5 194,-41.5 194,-0.5 0,-0.5"/>
<text text-anchor="start" x="8" y="-29.5" font-family="Helvetica,sans-Serif" font-size="10.00">llvm::object::Elf_Rel</text>
<text text-anchor="start" x="8" y="-18.5" font-family="Helvetica,sans-Serif" font-size="10.00">_Impl&lt; ELFType&lt; TargetEndianness,</text>
<text text-anchor="middle" x="97" y="-7.5" font-family="Helvetica,sans-Serif" font-size="10.00"> false &gt;, false &gt;</text>
</a>
</g>
</g>
<!-- Node2 -->
<g id="node2" class="node">
<title>Node2</title>
<g id="a_node2"><a xlink:title=" ">
<polygon fill="none" stroke="#bfbfbf" points="0.5,-89.5 0.5,-108.5 57.5,-108.5 57.5,-89.5 0.5,-89.5"/>
<text text-anchor="middle" x="29" y="-96.5" font-family="Helvetica,sans-Serif" font-size="10.00">Elf_Addr</text>
</a>
</g>
</g>
<!-- Node2&#45;&gt;Node1 -->
<g id="edge1" class="edge">
<title>Node2&#45;&gt;Node1</title>
<path fill="none" stroke="#9a32cd" stroke-dasharray="5,2" d="M38.64,-80.38C42.67,-73.69 47.66,-66.2 53,-60 58.53,-53.58 65.17,-47.28 71.59,-41.71"/>
<polygon fill="#9a32cd" stroke="#9a32cd" points="35.43,-78.94 33.49,-89.36 41.5,-82.43 35.43,-78.94"/>
<text text-anchor="middle" x="73" y="-63" font-family="Helvetica,sans-Serif" font-size="10.00"> r_offset</text>
</g>
<!-- Node3 -->
<g id="node3" class="node">
<title>Node3</title>
<g id="a_node3"><a xlink:title=" ">
<polygon fill="none" stroke="#bfbfbf" points="75.5,-89.5 75.5,-108.5 118.5,-108.5 118.5,-89.5 75.5,-89.5"/>
<text text-anchor="middle" x="97" y="-96.5" font-family="Helvetica,sans-Serif" font-size="10.00">const</text>
</a>
</g>
</g>
<!-- Node3&#45;&gt;Node1 -->
<g id="edge2" class="edge">
<title>Node3&#45;&gt;Node1</title>
<path fill="none" stroke="#9a32cd" stroke-dasharray="5,2" d="M97,-79.14C97,-67.73 97,-53.21 97,-41.66"/>
<polygon fill="#9a32cd" stroke="#9a32cd" points="93.5,-79.28 97,-89.28 100.5,-79.28 93.5,-79.28"/>
<text text-anchor="middle" x="114" y="-63" font-family="Helvetica,sans-Serif" font-size="10.00"> IsRela</text>
</g>
<!-- Node4 -->
<g id="node4" class="node">
<title>Node4</title>
<g id="a_node4"><a xlink:title=" ">
<polygon fill="none" stroke="#bfbfbf" points="136.5,-89.5 136.5,-108.5 195.5,-108.5 195.5,-89.5 136.5,-89.5"/>
<text text-anchor="middle" x="166" y="-96.5" font-family="Helvetica,sans-Serif" font-size="10.00">Elf_Word</text>
</a>
</g>
</g>
<!-- Node4&#45;&gt;Node1 -->
<g id="edge3" class="edge">
<title>Node4&#45;&gt;Node1</title>
<path fill="none" stroke="#9a32cd" stroke-dasharray="5,2" d="M153.12,-81.48C147.68,-74.69 141.18,-66.84 135,-60 129.5,-53.91 123.28,-47.51 117.5,-41.75"/>
<polygon fill="#9a32cd" stroke="#9a32cd" points="150.39,-83.67 159.34,-89.34 155.88,-79.33 150.39,-83.67"/>
<text text-anchor="middle" x="158.5" y="-63" font-family="Helvetica,sans-Serif" font-size="10.00"> r_info</text>
</g>
</g>
</svg>
