<?xml version="1.0" encoding="UTF-8" standalone="no"?>
<!DOCTYPE svg PUBLIC "-//W3C//DTD SVG 1.1//EN"
 "http://www.w3.org/Graphics/SVG/1.1/DTD/svg11.dtd">
<!-- Generated by graphviz version 2.43.0 (0)
 -->
<!-- Title: llvm::object::XCOFFFileHeader32 Pages: 1 -->
<svg width="490pt" height="176pt"
 viewBox="0.00 0.00 490.00 176.00" xmlns="http://www.w3.org/2000/svg" xmlns:xlink="http://www.w3.org/1999/xlink">
<g id="graph0" class="graph" transform="scale(1 1) rotate(0) translate(4 172)">
<title>llvm::object::XCOFFFileHeader32</title>
<!-- Node1 -->
<g id="node1" class="node">
<title>Node1</title>
<g id="a_node1"><a xlink:title=" ">
<polygon fill="#bfbfbf" stroke="black" points="305,-71.5 305,-90.5 482,-90.5 482,-71.5 305,-71.5"/>
<text text-anchor="middle" x="393.5" y="-78.5" font-family="Helvetica,sans-Serif" font-size="10.00">llvm::object::XCOFFFileHeader32</text>
</a>
</g>
</g>
<!-- Node2 -->
<g id="node2" class="node">
<title>Node2</title>
<g id="a_node2"><a xlink:title=" ">
<polygon fill="none" stroke="#bfbfbf" points="0,-120.5 0,-161.5 134,-161.5 134,-120.5 0,-120.5"/>
<text text-anchor="start" x="8" y="-149.5" font-family="Helvetica,sans-Serif" font-size="10.00">packed_endian_specific</text>
<text text-anchor="start" x="8" y="-138.5" font-family="Helvetica,sans-Serif" font-size="10.00">_integral&lt; uint16_t, big,</text>
<text text-anchor="middle" x="67" y="-127.5" font-family="Helvetica,sans-Serif" font-size="10.00"> unaligned &gt;</text>
</a>
</g>
</g>
<!-- Node2&#45;&gt;Node1 -->
<g id="edge1" class="edge">
<title>Node2&#45;&gt;Node1</title>
<path fill="none" stroke="#9a32cd" stroke-dasharray="5,2" d="M143.96,-126.95C204.58,-115.75 287.85,-100.35 340.93,-90.54"/>
<polygon fill="#9a32cd" stroke="#9a32cd" points="143.26,-123.53 134.06,-128.79 144.53,-130.41 143.26,-123.53"/>
<text text-anchor="middle" x="219.5" y="-160" font-family="Helvetica,sans-Serif" font-size="10.00"> AuxHeaderSize</text>
<text text-anchor="middle" x="219.5" y="-149" font-family="Helvetica,sans-Serif" font-size="10.00">Flags</text>
<text text-anchor="middle" x="219.5" y="-138" font-family="Helvetica,sans-Serif" font-size="10.00">NumberOfSections</text>
<text text-anchor="middle" x="219.5" y="-127" font-family="Helvetica,sans-Serif" font-size="10.00">Magic</text>
</g>
<!-- Node3 -->
<g id="node3" class="node">
<title>Node3</title>
<g id="a_node3"><a xlink:title=" ">
<polygon fill="none" stroke="#bfbfbf" points="0,-60.5 0,-101.5 134,-101.5 134,-60.5 0,-60.5"/>
<text text-anchor="start" x="8" y="-89.5" font-family="Helvetica,sans-Serif" font-size="10.00">packed_endian_specific</text>
<text text-anchor="start" x="8" y="-78.5" font-family="Helvetica,sans-Serif" font-size="10.00">_integral&lt; uint32_t, big,</text>
<text text-anchor="middle" x="67" y="-67.5" font-family="Helvetica,sans-Serif" font-size="10.00"> unaligned &gt;</text>
</a>
</g>
</g>
<!-- Node3&#45;&gt;Node1 -->
<g id="edge2" class="edge">
<title>Node3&#45;&gt;Node1</title>
<path fill="none" stroke="#9a32cd" stroke-dasharray="5,2" d="M144.11,-81C192.3,-81 254.76,-81 304.98,-81"/>
<polygon fill="#9a32cd" stroke="#9a32cd" points="144.06,-77.5 134.06,-81 144.06,-84.5 144.06,-77.5"/>
<text text-anchor="middle" x="219.5" y="-84" font-family="Helvetica,sans-Serif" font-size="10.00"> SymbolTableOffset</text>
</g>
<!-- Node4 -->
<g id="node4" class="node">
<title>Node4</title>
<g id="a_node4"><a xlink:title=" ">
<polygon fill="none" stroke="#bfbfbf" points="1.5,-0.5 1.5,-41.5 132.5,-41.5 132.5,-0.5 1.5,-0.5"/>
<text text-anchor="start" x="9.5" y="-29.5" font-family="Helvetica,sans-Serif" font-size="10.00">packed_endian_specific</text>
<text text-anchor="start" x="9.5" y="-18.5" font-family="Helvetica,sans-Serif" font-size="10.00">_integral&lt; int32_t, big,</text>
<text text-anchor="middle" x="67" y="-7.5" font-family="Helvetica,sans-Serif" font-size="10.00"> unaligned &gt;</text>
</a>
</g>
</g>
<!-- Node4&#45;&gt;Node1 -->
<g id="edge3" class="edge">
<title>Node4&#45;&gt;Node1</title>
<path fill="none" stroke="#9a32cd" stroke-dasharray="5,2" d="M142.92,-30.97C185.35,-37.04 239.33,-45.44 287,-55 310.49,-59.71 336.64,-66.14 357.03,-71.43"/>
<polygon fill="#9a32cd" stroke="#9a32cd" points="143.34,-27.5 132.95,-29.56 142.36,-34.43 143.34,-27.5"/>
<text text-anchor="middle" x="219.5" y="-69" font-family="Helvetica,sans-Serif" font-size="10.00"> NumberOfSymTableEntries</text>
<text text-anchor="middle" x="219.5" y="-58" font-family="Helvetica,sans-Serif" font-size="10.00">TimeStamp</text>
</g>
</g>
</svg>
