<?xml version="1.0" encoding="UTF-8" standalone="no"?>
<!DOCTYPE svg PUBLIC "-//W3C//DTD SVG 1.1//EN"
 "http://www.w3.org/Graphics/SVG/1.1/DTD/svg11.dtd">
<!-- Generated by graphviz version 2.43.0 (0)
 -->
<!-- Title: llvm::AAIsDead Pages: 1 -->
<svg width="1569pt" height="313pt"
 viewBox="0.00 0.00 1569.00 313.21" xmlns="http://www.w3.org/2000/svg" xmlns:xlink="http://www.w3.org/1999/xlink">
<g id="graph0" class="graph" transform="scale(1 1) rotate(0) translate(4 309.21)">
<title>llvm::AAIsDead</title>
<!-- Node1 -->
<g id="node1" class="node">
<title>Node1</title>
<g id="a_node1"><a xlink:title="An abstract interface for liveness abstract attribute.">
<polygon fill="#bfbfbf" stroke="black" points="1469,-246.71 1469,-265.71 1561,-265.71 1561,-246.71 1469,-246.71"/>
<text text-anchor="middle" x="1515" y="-253.71" font-family="Helvetica,sans-Serif" font-size="10.00">llvm::AAIsDead</text>
</a>
</g>
</g>
<!-- Node2 -->
<g id="node2" class="node">
<title>Node2</title>
<g id="a_node2"><a xlink:href="structllvm_1_1StateWrapper.html" target="_top" xlink:title=" ">
<polygon fill="none" stroke="black" points="1271,-167.71 1271,-208.71 1432,-208.71 1432,-167.71 1271,-167.71"/>
<text text-anchor="start" x="1279" y="-196.71" font-family="Helvetica,sans-Serif" font-size="10.00">llvm::StateWrapper</text>
<text text-anchor="start" x="1279" y="-185.71" font-family="Helvetica,sans-Serif" font-size="10.00">&lt; BitIntegerState&lt; uint8</text>
<text text-anchor="middle" x="1351.5" y="-174.71" font-family="Helvetica,sans-Serif" font-size="10.00">_t, 3, 0 &gt;, AbstractAttribute &gt;</text>
</a>
</g>
</g>
<!-- Node2&#45;&gt;Node1 -->
<g id="edge1" class="edge">
<title>Node2&#45;&gt;Node1</title>
<path fill="none" stroke="midnightblue" d="M1410.7,-212.71C1438.63,-224.47 1470.48,-237.88 1491.34,-246.66"/>
<polygon fill="midnightblue" stroke="midnightblue" points="1411.97,-209.45 1401.39,-208.79 1409.25,-215.9 1411.97,-209.45"/>
</g>
<!-- Node3 -->
<g id="node3" class="node">
<title>Node3</title>
<g id="a_node3"><a xlink:href="structllvm_1_1AbstractAttribute.html" target="_top" xlink:title="Base struct for all &quot;concrete attribute&quot; deductions.">
<polygon fill="none" stroke="black" points="980.5,-208.71 980.5,-227.71 1108.5,-227.71 1108.5,-208.71 980.5,-208.71"/>
<text text-anchor="middle" x="1044.5" y="-215.71" font-family="Helvetica,sans-Serif" font-size="10.00">llvm::AbstractAttribute</text>
</a>
</g>
</g>
<!-- Node3&#45;&gt;Node2 -->
<g id="edge2" class="edge">
<title>Node3&#45;&gt;Node2</title>
<path fill="none" stroke="midnightblue" d="M1118.86,-210.99C1164.72,-206.48 1223.79,-200.67 1270.8,-196.04"/>
<polygon fill="midnightblue" stroke="midnightblue" points="1118.31,-207.53 1108.7,-211.99 1118.99,-214.49 1118.31,-207.53"/>
</g>
<!-- Node4 -->
<g id="node4" class="node">
<title>Node4</title>
<g id="a_node4"><a xlink:href="structllvm_1_1IRPosition.html" target="_top" xlink:title="Helper to describe and deal with positions in the LLVM&#45;IR.">
<polygon fill="none" stroke="black" points="740.5,-246.71 740.5,-265.71 833.5,-265.71 833.5,-246.71 740.5,-246.71"/>
<text text-anchor="middle" x="787" y="-253.71" font-family="Helvetica,sans-Serif" font-size="10.00">llvm::IRPosition</text>
</a>
</g>
</g>
<!-- Node4&#45;&gt;Node3 -->
<g id="edge3" class="edge">
<title>Node4&#45;&gt;Node3</title>
<path fill="none" stroke="midnightblue" d="M843.94,-248.37C876.39,-243.77 918.02,-237.79 955,-232.21 964.38,-230.79 974.32,-229.25 984.01,-227.73"/>
<polygon fill="midnightblue" stroke="midnightblue" points="843.16,-244.94 833.74,-249.81 844.14,-251.87 843.16,-244.94"/>
</g>
<!-- Node5 -->
<g id="node5" class="node">
<title>Node5</title>
<g id="a_node5"><a xlink:title=" ">
<polygon fill="none" stroke="#bfbfbf" points="522.5,-278.71 522.5,-297.71 565.5,-297.71 565.5,-278.71 522.5,-278.71"/>
<text text-anchor="middle" x="544" y="-285.71" font-family="Helvetica,sans-Serif" font-size="10.00">const</text>
</a>
</g>
</g>
<!-- Node5&#45;&gt;Node1 -->
<g id="edge23" class="edge">
<title>Node5&#45;&gt;Node1</title>
<path fill="none" stroke="#9a32cd" stroke-dasharray="5,2" d="M575.79,-289.46C621.6,-291.22 710.44,-294.21 786,-294.21 786,-294.21 786,-294.21 1352.5,-294.21 1402.04,-294.21 1457.92,-277.05 1489.25,-265.79"/>
<polygon fill="#9a32cd" stroke="#9a32cd" points="575.76,-285.96 565.63,-289.06 575.48,-292.95 575.76,-285.96"/>
<text text-anchor="middle" x="1044.5" y="-297.21" font-family="Helvetica,sans-Serif" font-size="10.00"> ID</text>
</g>
<!-- Node5&#45;&gt;Node4 -->
<g id="edge4" class="edge">
<title>Node5&#45;&gt;Node4</title>
<path fill="none" stroke="#9a32cd" stroke-dasharray="5,2" d="M575.16,-274.55C590.62,-268.26 609.95,-261.49 628,-258.21 665.38,-251.41 708.56,-251.38 740.32,-252.79"/>
<polygon fill="#9a32cd" stroke="#9a32cd" points="573.47,-271.46 565.61,-278.56 576.19,-277.91 573.47,-271.46"/>
<text text-anchor="middle" x="665.5" y="-272.21" font-family="Helvetica,sans-Serif" font-size="10.00"> TombstoneKey</text>
<text text-anchor="middle" x="665.5" y="-261.21" font-family="Helvetica,sans-Serif" font-size="10.00">EmptyKey</text>
</g>
<!-- Node6 -->
<g id="node6" class="node">
<title>Node6</title>
<g id="a_node6"><a xlink:href="structllvm_1_1AADepGraphNode.html" target="_top" xlink:title="}">
<polygon fill="none" stroke="black" points="721,-208.71 721,-227.71 853,-227.71 853,-208.71 721,-208.71"/>
<text text-anchor="middle" x="787" y="-215.71" font-family="Helvetica,sans-Serif" font-size="10.00">llvm::AADepGraphNode</text>
</a>
</g>
</g>
<!-- Node6&#45;&gt;Node3 -->
<g id="edge5" class="edge">
<title>Node6&#45;&gt;Node3</title>
<path fill="none" stroke="midnightblue" d="M863.41,-218.21C900.58,-218.21 944.88,-218.21 980.25,-218.21"/>
<polygon fill="midnightblue" stroke="midnightblue" points="863.13,-214.71 853.13,-218.21 863.13,-221.71 863.13,-214.71"/>
</g>
<!-- Node7 -->
<g id="node7" class="node">
<title>Node7</title>
<g id="a_node7"><a xlink:href="classllvm_1_1TinyPtrVector.html" target="_top" xlink:title=" ">
<polygon fill="none" stroke="black" points="478,-216.21 478,-246.21 610,-246.21 610,-216.21 478,-216.21"/>
<text text-anchor="start" x="486" y="-234.21" font-family="Helvetica,sans-Serif" font-size="10.00">llvm::TinyPtrVector</text>
<text text-anchor="middle" x="544" y="-223.21" font-family="Helvetica,sans-Serif" font-size="10.00">&lt; llvm::PointerIntPair &gt;</text>
</a>
</g>
</g>
<!-- Node7&#45;&gt;Node6 -->
<g id="edge6" class="edge">
<title>Node7&#45;&gt;Node6</title>
<path fill="none" stroke="#9a32cd" stroke-dasharray="5,2" d="M620.31,-223.73C622.9,-223.54 625.47,-223.37 628,-223.21 658.54,-221.25 692.45,-220.05 721,-219.32"/>
<polygon fill="#9a32cd" stroke="#9a32cd" points="619.91,-220.25 610.21,-224.52 620.45,-227.23 619.91,-220.25"/>
<text text-anchor="middle" x="665.5" y="-226.21" font-family="Helvetica,sans-Serif" font-size="10.00"> Deps</text>
</g>
<!-- Node8 -->
<g id="node8" class="node">
<title>Node8</title>
<g id="a_node8"><a xlink:href="classllvm_1_1TinyPtrVector.html" target="_top" xlink:title="TinyPtrVector &#45; This class is specialized for cases where there are normally 0 or 1 element in a vect...">
<polygon fill="none" stroke="black" points="204,-235.21 204,-265.21 314,-265.21 314,-235.21 204,-235.21"/>
<text text-anchor="start" x="212" y="-253.21" font-family="Helvetica,sans-Serif" font-size="10.00">llvm::TinyPtrVector</text>
<text text-anchor="middle" x="259" y="-242.21" font-family="Helvetica,sans-Serif" font-size="10.00">&lt; EltTy &gt;</text>
</a>
</g>
</g>
<!-- Node8&#45;&gt;Node7 -->
<g id="edge7" class="edge">
<title>Node8&#45;&gt;Node7</title>
<path fill="none" stroke="orange" stroke-dasharray="5,2" d="M324.36,-245.88C370.24,-242.8 431.7,-238.68 477.78,-235.58"/>
<polygon fill="orange" stroke="orange" points="323.97,-242.4 314.23,-246.56 324.44,-249.39 323.97,-242.4"/>
<text text-anchor="middle" x="400.5" y="-247.21" font-family="Helvetica,sans-Serif" font-size="10.00"> &lt; llvm::PointerIntPair &gt;</text>
</g>
<!-- Node9 -->
<g id="node9" class="node">
<title>Node9</title>
<g id="a_node9"><a xlink:href="structllvm_1_1BitIntegerState.html" target="_top" xlink:title=" ">
<polygon fill="none" stroke="black" points="985.5,-154.21 985.5,-184.21 1103.5,-184.21 1103.5,-154.21 985.5,-154.21"/>
<text text-anchor="start" x="993.5" y="-172.21" font-family="Helvetica,sans-Serif" font-size="10.00">llvm::BitIntegerState</text>
<text text-anchor="middle" x="1044.5" y="-161.21" font-family="Helvetica,sans-Serif" font-size="10.00">&lt; uint8_t, 3, 0 &gt;</text>
</a>
</g>
</g>
<!-- Node9&#45;&gt;Node2 -->
<g id="edge8" class="edge">
<title>Node9&#45;&gt;Node2</title>
<path fill="none" stroke="midnightblue" d="M1113.57,-173.45C1160.09,-176.34 1221.91,-180.19 1270.74,-183.24"/>
<polygon fill="midnightblue" stroke="midnightblue" points="1113.78,-169.95 1103.59,-172.82 1113.35,-176.94 1113.78,-169.95"/>
</g>
<!-- Node10 -->
<g id="node10" class="node">
<title>Node10</title>
<g id="a_node10"><a xlink:href="structllvm_1_1IntegerStateBase.html" target="_top" xlink:title=" ">
<polygon fill="none" stroke="black" points="480,-36.71 480,-77.71 608,-77.71 608,-36.71 480,-36.71"/>
<text text-anchor="start" x="488" y="-65.71" font-family="Helvetica,sans-Serif" font-size="10.00">llvm::IntegerStateBase</text>
<text text-anchor="start" x="488" y="-54.71" font-family="Helvetica,sans-Serif" font-size="10.00">&lt; uint8_t, BestState,</text>
<text text-anchor="middle" x="544" y="-43.71" font-family="Helvetica,sans-Serif" font-size="10.00"> WorstState &gt;</text>
</a>
</g>
</g>
<!-- Node10&#45;&gt;Node9 -->
<g id="edge9" class="edge">
<title>Node10&#45;&gt;Node9</title>
<path fill="none" stroke="midnightblue" d="M618.42,-76.21C649.94,-84.2 687.21,-93.42 721,-101.21 813.14,-122.43 920.71,-144.59 985.39,-157.63"/>
<polygon fill="midnightblue" stroke="midnightblue" points="618.96,-72.73 608.41,-73.66 617.23,-79.52 618.96,-72.73"/>
</g>
<!-- Node11 -->
<g id="node11" class="node">
<title>Node11</title>
<g id="a_node11"><a xlink:href="structllvm_1_1AbstractState.html" target="_top" xlink:title="An interface to query the internal state of an abstract attribute.">
<polygon fill="none" stroke="black" points="0,-113.71 0,-132.71 110,-132.71 110,-113.71 0,-113.71"/>
<text text-anchor="middle" x="55" y="-120.71" font-family="Helvetica,sans-Serif" font-size="10.00">llvm::AbstractState</text>
</a>
</g>
</g>
<!-- Node11&#45;&gt;Node10 -->
<g id="edge10" class="edge">
<title>Node11&#45;&gt;Node10</title>
<path fill="none" stroke="midnightblue" d="M101.93,-109.27C104.76,-107.74 107.48,-106.06 110,-104.21 120.75,-96.32 119.07,-90.11 128,-80.21 155.17,-50.08 157.22,-33 195,-18.21 294.49,20.76 421.39,-12.15 491.18,-36.62"/>
<polygon fill="midnightblue" stroke="midnightblue" points="100.19,-106.22 92.62,-113.64 103.16,-112.55 100.19,-106.22"/>
</g>
<!-- Node13 -->
<g id="node13" class="node">
<title>Node13</title>
<g id="a_node13"><a xlink:href="structllvm_1_1IntegerStateBase.html" target="_top" xlink:title="Simple state with integers encoding.">
<polygon fill="none" stroke="black" points="195,-83.71 195,-124.71 323,-124.71 323,-83.71 195,-83.71"/>
<text text-anchor="start" x="203" y="-112.71" font-family="Helvetica,sans-Serif" font-size="10.00">llvm::IntegerStateBase</text>
<text text-anchor="start" x="203" y="-101.71" font-family="Helvetica,sans-Serif" font-size="10.00">&lt; base_ty, BestState,</text>
<text text-anchor="middle" x="259" y="-90.71" font-family="Helvetica,sans-Serif" font-size="10.00"> WorstState &gt;</text>
</a>
</g>
</g>
<!-- Node11&#45;&gt;Node13 -->
<g id="edge13" class="edge">
<title>Node11&#45;&gt;Node13</title>
<path fill="none" stroke="midnightblue" d="M120.14,-117.17C143.98,-114.93 171,-112.39 194.76,-110.15"/>
<polygon fill="midnightblue" stroke="midnightblue" points="119.76,-113.69 110.13,-118.11 120.42,-120.66 119.76,-113.69"/>
</g>
<!-- Node16 -->
<g id="node16" class="node">
<title>Node16</title>
<g id="a_node16"><a xlink:href="structllvm_1_1IntegerStateBase.html" target="_top" xlink:title=" ">
<polygon fill="none" stroke="black" points="480,-148.71 480,-189.71 608,-189.71 608,-148.71 480,-148.71"/>
<text text-anchor="start" x="488" y="-177.71" font-family="Helvetica,sans-Serif" font-size="10.00">llvm::IntegerStateBase</text>
<text text-anchor="start" x="488" y="-166.71" font-family="Helvetica,sans-Serif" font-size="10.00">&lt; uint32_t, ~uint32_t</text>
<text text-anchor="middle" x="544" y="-155.71" font-family="Helvetica,sans-Serif" font-size="10.00">(0), 0 &gt;</text>
</a>
</g>
</g>
<!-- Node11&#45;&gt;Node16 -->
<g id="edge17" class="edge">
<title>Node11&#45;&gt;Node16</title>
<path fill="none" stroke="midnightblue" d="M80.24,-138C107.16,-153.54 152.45,-177.11 195,-187.21 309.62,-214.39 343.28,-208.08 460,-192.21 466.52,-191.32 473.25,-190.06 479.93,-188.58"/>
<polygon fill="midnightblue" stroke="midnightblue" points="81.91,-134.92 71.51,-132.87 78.36,-140.95 81.91,-134.92"/>
</g>
<!-- Node12 -->
<g id="node12" class="node">
<title>Node12</title>
<g id="a_node12"><a xlink:title=" ">
<polygon fill="none" stroke="#bfbfbf" points="234,-27.71 234,-46.71 284,-46.71 284,-27.71 234,-27.71"/>
<text text-anchor="middle" x="259" y="-34.71" font-family="Helvetica,sans-Serif" font-size="10.00">uint8_t</text>
</a>
</g>
</g>
<!-- Node12&#45;&gt;Node10 -->
<g id="edge11" class="edge">
<title>Node12&#45;&gt;Node10</title>
<path fill="none" stroke="#9a32cd" stroke-dasharray="5,2" d="M294.15,-33.99C334.11,-30.88 402.16,-27.67 460,-35.21 466.5,-36.05 473.22,-37.26 479.89,-38.67"/>
<polygon fill="#9a32cd" stroke="#9a32cd" points="293.82,-30.5 284.14,-34.81 294.39,-37.48 293.82,-30.5"/>
<text text-anchor="middle" x="400.5" y="-49.21" font-family="Helvetica,sans-Serif" font-size="10.00"> Assumed</text>
<text text-anchor="middle" x="400.5" y="-38.21" font-family="Helvetica,sans-Serif" font-size="10.00">Known</text>
</g>
<!-- Node13&#45;&gt;Node10 -->
<g id="edge12" class="edge">
<title>Node13&#45;&gt;Node10</title>
<path fill="none" stroke="orange" stroke-dasharray="5,2" d="M333.37,-81.86C335.94,-81.27 338.48,-80.72 341,-80.21 387,-70.85 439.73,-65 479.77,-61.55"/>
<polygon fill="orange" stroke="orange" points="332.3,-78.52 323.41,-84.28 333.95,-85.32 332.3,-78.52"/>
<text text-anchor="start" x="348" y="-94.21" font-family="Helvetica,sans-Serif" font-size="10.00"> &lt; uint8_t, BestState,</text>
<text text-anchor="middle" x="400.5" y="-83.21" font-family="Helvetica,sans-Serif" font-size="10.00"> WorstState &gt;</text>
</g>
<!-- Node13&#45;&gt;Node16 -->
<g id="edge19" class="edge">
<title>Node13&#45;&gt;Node16</title>
<path fill="none" stroke="orange" stroke-dasharray="5,2" d="M333.04,-115.79C371.14,-122.41 418.36,-131.52 460,-142.21 467.49,-144.13 475.28,-146.35 482.97,-148.69"/>
<polygon fill="orange" stroke="orange" points="333.51,-112.32 323.06,-114.08 332.32,-119.22 333.51,-112.32"/>
<text text-anchor="start" x="350.5" y="-156.21" font-family="Helvetica,sans-Serif" font-size="10.00"> &lt; uint32_t, ~uint32</text>
<text text-anchor="middle" x="400.5" y="-145.21" font-family="Helvetica,sans-Serif" font-size="10.00">_t(0), 0 &gt;</text>
</g>
<!-- Node14 -->
<g id="node14" class="node">
<title>Node14</title>
<g id="a_node14"><a xlink:title=" ">
<polygon fill="none" stroke="#bfbfbf" points="27.5,-75.71 27.5,-94.71 82.5,-94.71 82.5,-75.71 27.5,-75.71"/>
<text text-anchor="middle" x="55" y="-82.71" font-family="Helvetica,sans-Serif" font-size="10.00">base_ty</text>
</a>
</g>
</g>
<!-- Node14&#45;&gt;Node13 -->
<g id="edge14" class="edge">
<title>Node14&#45;&gt;Node13</title>
<path fill="none" stroke="#9a32cd" stroke-dasharray="5,2" d="M92.65,-83.51C116.7,-82.89 148.82,-82.99 177,-86.21 182.87,-86.87 188.93,-87.79 194.98,-88.86"/>
<polygon fill="#9a32cd" stroke="#9a32cd" points="92.42,-80.02 82.53,-83.83 92.64,-87.01 92.42,-80.02"/>
<text text-anchor="middle" x="152.5" y="-100.21" font-family="Helvetica,sans-Serif" font-size="10.00"> Assumed</text>
<text text-anchor="middle" x="152.5" y="-89.21" font-family="Helvetica,sans-Serif" font-size="10.00">Known</text>
</g>
<!-- Node15 -->
<g id="node15" class="node">
<title>Node15</title>
<g id="a_node15"><a xlink:href="structllvm_1_1BitIntegerState.html" target="_top" xlink:title="Specialization of the integer state for a bit&#45;wise encoding.">
<polygon fill="none" stroke="black" points="726,-148.71 726,-189.71 848,-189.71 848,-148.71 726,-148.71"/>
<text text-anchor="start" x="734" y="-177.71" font-family="Helvetica,sans-Serif" font-size="10.00">llvm::BitIntegerState</text>
<text text-anchor="start" x="734" y="-166.71" font-family="Helvetica,sans-Serif" font-size="10.00">&lt; base_ty, BestState,</text>
<text text-anchor="middle" x="787" y="-155.71" font-family="Helvetica,sans-Serif" font-size="10.00"> WorstState &gt;</text>
</a>
</g>
</g>
<!-- Node15&#45;&gt;Node9 -->
<g id="edge15" class="edge">
<title>Node15&#45;&gt;Node9</title>
<path fill="none" stroke="orange" stroke-dasharray="5,2" d="M858.43,-169.21C898.37,-169.21 947.74,-169.21 985.44,-169.21"/>
<polygon fill="orange" stroke="orange" points="858.23,-165.71 848.23,-169.21 858.23,-172.71 858.23,-165.71"/>
<text text-anchor="middle" x="913" y="-172.21" font-family="Helvetica,sans-Serif" font-size="10.00"> &lt; uint8_t, 3, 0 &gt;</text>
</g>
<!-- Node16&#45;&gt;Node15 -->
<g id="edge16" class="edge">
<title>Node16&#45;&gt;Node15</title>
<path fill="none" stroke="midnightblue" d="M618.02,-169.21C652.51,-169.21 693.17,-169.21 725.85,-169.21"/>
<polygon fill="midnightblue" stroke="midnightblue" points="618.01,-165.71 608.01,-169.21 618.01,-172.71 618.01,-165.71"/>
</g>
<!-- Node17 -->
<g id="node17" class="node">
<title>Node17</title>
<g id="a_node17"><a xlink:href="classuint32__t.html" target="_top" xlink:title=" ">
<polygon fill="none" stroke="black" points="231,-158.71 231,-177.71 287,-177.71 287,-158.71 231,-158.71"/>
<text text-anchor="middle" x="259" y="-165.71" font-family="Helvetica,sans-Serif" font-size="10.00">uint32_t</text>
</a>
</g>
</g>
<!-- Node17&#45;&gt;Node16 -->
<g id="edge18" class="edge">
<title>Node17&#45;&gt;Node16</title>
<path fill="none" stroke="#9a32cd" stroke-dasharray="5,2" d="M297.35,-168.34C343.81,-168.5 423.82,-168.78 479.87,-168.98"/>
<polygon fill="#9a32cd" stroke="#9a32cd" points="297.15,-164.84 287.14,-168.3 297.12,-171.84 297.15,-164.84"/>
<text text-anchor="middle" x="400.5" y="-182.21" font-family="Helvetica,sans-Serif" font-size="10.00"> Assumed</text>
<text text-anchor="middle" x="400.5" y="-171.21" font-family="Helvetica,sans-Serif" font-size="10.00">Known</text>
</g>
<!-- Node18 -->
<g id="node18" class="node">
<title>Node18</title>
<g id="a_node18"><a xlink:href="structllvm_1_1StateWrapper.html" target="_top" xlink:title="Helper to tie a abstract state implementation to an abstract attribute.">
<polygon fill="none" stroke="black" points="973,-67.21 973,-97.21 1116,-97.21 1116,-67.21 973,-67.21"/>
<text text-anchor="start" x="981" y="-85.21" font-family="Helvetica,sans-Serif" font-size="10.00">llvm::StateWrapper</text>
<text text-anchor="middle" x="1044.5" y="-74.21" font-family="Helvetica,sans-Serif" font-size="10.00">&lt; StateTy, BaseType, Ts &gt;</text>
</a>
</g>
</g>
<!-- Node18&#45;&gt;Node2 -->
<g id="edge20" class="edge">
<title>Node18&#45;&gt;Node2</title>
<path fill="none" stroke="orange" stroke-dasharray="5,2" d="M1126.6,-99.27C1165.49,-108.56 1212.34,-121.41 1253,-137.21 1274.55,-145.58 1297.51,-157.43 1315.73,-167.6"/>
<polygon fill="orange" stroke="orange" points="1126.91,-95.75 1116.38,-96.86 1125.31,-102.56 1126.91,-95.75"/>
<text text-anchor="start" x="1134" y="-162.21" font-family="Helvetica,sans-Serif" font-size="10.00"> &lt; BitIntegerState&lt;</text>
<text text-anchor="start" x="1134" y="-151.21" font-family="Helvetica,sans-Serif" font-size="10.00"> uint8_t, 3, 0 &gt;, Abstract</text>
<text text-anchor="middle" x="1193.5" y="-140.21" font-family="Helvetica,sans-Serif" font-size="10.00">Attribute &gt;</text>
</g>
<!-- Node19 -->
<g id="node19" class="node">
<title>Node19</title>
<g id="a_node19"><a xlink:href="classBaseType.html" target="_top" xlink:title=" ">
<polygon fill="none" stroke="black" points="755.5,-34.71 755.5,-53.71 818.5,-53.71 818.5,-34.71 755.5,-34.71"/>
<text text-anchor="middle" x="787" y="-41.71" font-family="Helvetica,sans-Serif" font-size="10.00">BaseType</text>
</a>
</g>
</g>
<!-- Node19&#45;&gt;Node18 -->
<g id="edge21" class="edge">
<title>Node19&#45;&gt;Node18</title>
<path fill="none" stroke="midnightblue" d="M828.92,-50.29C867.64,-56.05 926.55,-64.81 972.85,-71.7"/>
<polygon fill="midnightblue" stroke="midnightblue" points="828.97,-46.76 818.57,-48.75 827.94,-53.68 828.97,-46.76"/>
</g>
<!-- Node20 -->
<g id="node20" class="node">
<title>Node20</title>
<g id="a_node20"><a xlink:href="classStateTy.html" target="_top" xlink:title=" ">
<polygon fill="none" stroke="black" points="760.5,-72.71 760.5,-91.71 813.5,-91.71 813.5,-72.71 760.5,-72.71"/>
<text text-anchor="middle" x="787" y="-79.71" font-family="Helvetica,sans-Serif" font-size="10.00">StateTy</text>
</a>
</g>
</g>
<!-- Node20&#45;&gt;Node18 -->
<g id="edge22" class="edge">
<title>Node20&#45;&gt;Node18</title>
<path fill="none" stroke="midnightblue" d="M824.11,-82.21C862.58,-82.21 924.48,-82.21 972.73,-82.21"/>
<polygon fill="midnightblue" stroke="midnightblue" points="823.9,-78.71 813.9,-82.21 823.9,-85.71 823.9,-78.71"/>
</g>
</g>
</svg>
