<?xml version="1.0" encoding="UTF-8" standalone="no"?>
<!DOCTYPE svg PUBLIC "-//W3C//DTD SVG 1.1//EN"
 "http://www.w3.org/Graphics/SVG/1.1/DTD/svg11.dtd">
<!-- Generated by graphviz version 2.43.0 (0)
 -->
<!-- Title: lib/Support/Unix/Path.inc Pages: 1 -->
<svg width="2271pt" height="599pt"
 viewBox="0.00 0.00 2270.50 599.00" xmlns="http://www.w3.org/2000/svg" xmlns:xlink="http://www.w3.org/1999/xlink">
<g id="graph0" class="graph" transform="scale(1 1) rotate(0) translate(4 595)">
<title>lib/Support/Unix/Path.inc</title>
<!-- Node1 -->
<g id="node1" class="node">
<title>Node1</title>
<g id="a_node1"><a xlink:title=" ">
<polygon fill="#bfbfbf" stroke="black" points="1717,-571.5 1717,-590.5 1853,-590.5 1853,-571.5 1717,-571.5"/>
<text text-anchor="middle" x="1785" y="-578.5" font-family="Helvetica,sans-Serif" font-size="10.00">lib/Support/Unix/Path.inc</text>
</a>
</g>
</g>
<!-- Node2 -->
<g id="node2" class="node">
<title>Node2</title>
<g id="a_node2"><a xlink:href="Unix_8h.html" target="_top" xlink:title=" ">
<polygon fill="none" stroke="black" points="732,-515.5 732,-534.5 780,-534.5 780,-515.5 732,-515.5"/>
<text text-anchor="middle" x="756" y="-522.5" font-family="Helvetica,sans-Serif" font-size="10.00">Unix.h</text>
</a>
</g>
</g>
<!-- Node1&#45;&gt;Node2 -->
<g id="edge1" class="edge">
<title>Node1&#45;&gt;Node2</title>
<path fill="none" stroke="midnightblue" d="M1716.69,-576.42C1516.78,-565.92 937.78,-535.54 790.43,-527.81"/>
<polygon fill="midnightblue" stroke="midnightblue" points="790.36,-524.3 780.19,-527.27 790,-531.29 790.36,-524.3"/>
</g>
<!-- Node15 -->
<g id="node36" class="node">
<title>Node15</title>
<g id="a_node36"><a xlink:title=" ">
<polygon fill="none" stroke="#bfbfbf" points="1478,-459.5 1478,-478.5 1550,-478.5 1550,-459.5 1478,-459.5"/>
<text text-anchor="middle" x="1514" y="-466.5" font-family="Helvetica,sans-Serif" font-size="10.00">sys/types.h</text>
</a>
</g>
</g>
<!-- Node1&#45;&gt;Node15 -->
<g id="edge84" class="edge">
<title>Node1&#45;&gt;Node15</title>
<path fill="none" stroke="midnightblue" d="M1734.68,-571.49C1699.35,-564.43 1651.53,-552.66 1612,-535 1582.23,-521.7 1551.46,-499.7 1532.53,-485.03"/>
<polygon fill="midnightblue" stroke="midnightblue" points="1534.49,-482.12 1524.48,-478.67 1530.16,-487.61 1534.49,-482.12"/>
</g>
<!-- Node63 -->
<g id="node38" class="node">
<title>Node63</title>
<g id="a_node38"><a xlink:title=" ">
<polygon fill="none" stroke="#bfbfbf" points="1568,-459.5 1568,-478.5 1624,-478.5 1624,-459.5 1568,-459.5"/>
<text text-anchor="middle" x="1596" y="-466.5" font-family="Helvetica,sans-Serif" font-size="10.00">unistd.h</text>
</a>
</g>
</g>
<!-- Node1&#45;&gt;Node63 -->
<g id="edge79" class="edge">
<title>Node1&#45;&gt;Node63</title>
<path fill="none" stroke="midnightblue" d="M1719.05,-571.43C1690.58,-565.1 1658.31,-554.09 1634,-535 1618.61,-522.92 1608.23,-502.74 1602.26,-488.07"/>
<polygon fill="midnightblue" stroke="midnightblue" points="1605.47,-486.68 1598.68,-478.55 1598.92,-489.15 1605.47,-486.68"/>
</g>
<!-- Node67 -->
<g id="node42" class="node">
<title>Node67</title>
<g id="a_node42"><a xlink:title=" ">
<polygon fill="none" stroke="#bfbfbf" points="1642.5,-459.5 1642.5,-478.5 1689.5,-478.5 1689.5,-459.5 1642.5,-459.5"/>
<text text-anchor="middle" x="1666" y="-466.5" font-family="Helvetica,sans-Serif" font-size="10.00">fcntl.h</text>
</a>
</g>
</g>
<!-- Node1&#45;&gt;Node67 -->
<g id="edge78" class="edge">
<title>Node1&#45;&gt;Node67</title>
<path fill="none" stroke="midnightblue" d="M1717,-575.49C1689.43,-569.91 1660.11,-558.37 1643,-535 1632.44,-520.58 1642.02,-500.87 1651.84,-486.95"/>
<polygon fill="midnightblue" stroke="midnightblue" points="1654.82,-488.82 1658.12,-478.75 1649.26,-484.56 1654.82,-488.82"/>
</g>
<!-- Node68 -->
<g id="node43" class="node">
<title>Node68</title>
<g id="a_node43"><a xlink:title=" ">
<polygon fill="none" stroke="#bfbfbf" points="1651.5,-515.5 1651.5,-534.5 1704.5,-534.5 1704.5,-515.5 1651.5,-515.5"/>
<text text-anchor="middle" x="1678" y="-522.5" font-family="Helvetica,sans-Serif" font-size="10.00">limits.h</text>
</a>
</g>
</g>
<!-- Node1&#45;&gt;Node68 -->
<g id="edge75" class="edge">
<title>Node1&#45;&gt;Node68</title>
<path fill="none" stroke="midnightblue" d="M1767.81,-571.32C1750.65,-562.66 1724.05,-549.24 1704.25,-539.25"/>
<polygon fill="midnightblue" stroke="midnightblue" points="1705.65,-536.04 1695.15,-534.65 1702.5,-542.28 1705.65,-536.04"/>
</g>
<!-- Node69 -->
<g id="node44" class="node">
<title>Node69</title>
<g id="a_node44"><a xlink:title=" ">
<polygon fill="none" stroke="#bfbfbf" points="1723,-515.5 1723,-534.5 1773,-534.5 1773,-515.5 1723,-515.5"/>
<text text-anchor="middle" x="1748" y="-522.5" font-family="Helvetica,sans-Serif" font-size="10.00">stdio.h</text>
</a>
</g>
</g>
<!-- Node1&#45;&gt;Node69 -->
<g id="edge76" class="edge">
<title>Node1&#45;&gt;Node69</title>
<path fill="none" stroke="midnightblue" d="M1778.89,-571.08C1773.72,-563.53 1766.15,-552.49 1759.81,-543.23"/>
<polygon fill="midnightblue" stroke="midnightblue" points="1762.54,-541.02 1754,-534.75 1756.76,-544.98 1762.54,-541.02"/>
</g>
<!-- Node70 -->
<g id="node45" class="node">
<title>Node70</title>
<g id="a_node45"><a xlink:title=" ">
<polygon fill="none" stroke="#bfbfbf" points="1791,-515.5 1791,-534.5 1855,-534.5 1855,-515.5 1791,-515.5"/>
<text text-anchor="middle" x="1823" y="-522.5" font-family="Helvetica,sans-Serif" font-size="10.00">sys/stat.h</text>
</a>
</g>
</g>
<!-- Node1&#45;&gt;Node70 -->
<g id="edge77" class="edge">
<title>Node1&#45;&gt;Node70</title>
<path fill="none" stroke="midnightblue" d="M1791.27,-571.08C1796.64,-563.46 1804.52,-552.26 1811.08,-542.94"/>
<polygon fill="midnightblue" stroke="midnightblue" points="1813.95,-544.94 1816.84,-534.75 1808.22,-540.91 1813.95,-544.94"/>
</g>
<!-- Node71 -->
<g id="node46" class="node">
<title>Node71</title>
<g id="a_node46"><a xlink:title=" ">
<polygon fill="none" stroke="#bfbfbf" points="1873.5,-515.5 1873.5,-534.5 1950.5,-534.5 1950.5,-515.5 1873.5,-515.5"/>
<text text-anchor="middle" x="1912" y="-522.5" font-family="Helvetica,sans-Serif" font-size="10.00">sys/mman.h</text>
</a>
</g>
</g>
<!-- Node1&#45;&gt;Node71 -->
<g id="edge80" class="edge">
<title>Node1&#45;&gt;Node71</title>
<path fill="none" stroke="midnightblue" d="M1805.12,-571.44C1826.02,-562.56 1858.93,-548.56 1882.72,-538.45"/>
<polygon fill="midnightblue" stroke="midnightblue" points="1884.14,-541.65 1891.97,-534.52 1881.4,-535.21 1884.14,-541.65"/>
</g>
<!-- Node72 -->
<g id="node47" class="node">
<title>Node72</title>
<g id="a_node47"><a xlink:title=" ">
<polygon fill="none" stroke="#bfbfbf" points="1969,-515.5 1969,-534.5 2023,-534.5 2023,-515.5 1969,-515.5"/>
<text text-anchor="middle" x="1996" y="-522.5" font-family="Helvetica,sans-Serif" font-size="10.00">dirent.h</text>
</a>
</g>
</g>
<!-- Node1&#45;&gt;Node72 -->
<g id="edge81" class="edge">
<title>Node1&#45;&gt;Node72</title>
<path fill="none" stroke="midnightblue" d="M1818.43,-571.44C1856.7,-561.65 1919.21,-545.65 1958.94,-535.49"/>
<polygon fill="midnightblue" stroke="midnightblue" points="1959.94,-538.84 1968.76,-532.97 1958.21,-532.06 1959.94,-538.84"/>
</g>
<!-- Node73 -->
<g id="node48" class="node">
<title>Node73</title>
<g id="a_node48"><a xlink:title=" ">
<polygon fill="none" stroke="#bfbfbf" points="2041,-515.5 2041,-534.5 2087,-534.5 2087,-515.5 2041,-515.5"/>
<text text-anchor="middle" x="2064" y="-522.5" font-family="Helvetica,sans-Serif" font-size="10.00">pwd.h</text>
</a>
</g>
</g>
<!-- Node1&#45;&gt;Node73 -->
<g id="edge82" class="edge">
<title>Node1&#45;&gt;Node73</title>
<path fill="none" stroke="midnightblue" d="M1840.24,-571.46C1888.24,-563.7 1959.81,-551.3 2030.96,-535.06"/>
<polygon fill="midnightblue" stroke="midnightblue" points="2032.04,-538.41 2040.99,-532.75 2030.46,-531.59 2032.04,-538.41"/>
</g>
<!-- Node74 -->
<g id="node49" class="node">
<title>Node74</title>
<g id="a_node49"><a xlink:title=" ">
<polygon fill="none" stroke="#bfbfbf" points="2105,-515.5 2105,-534.5 2165,-534.5 2165,-515.5 2105,-515.5"/>
<text text-anchor="middle" x="2135" y="-522.5" font-family="Helvetica,sans-Serif" font-size="10.00">sys/file.h</text>
</a>
</g>
</g>
<!-- Node1&#45;&gt;Node74 -->
<g id="edge83" class="edge">
<title>Node1&#45;&gt;Node74</title>
<path fill="none" stroke="midnightblue" d="M1853.22,-571.79C1914.12,-564.08 2005.96,-551.52 2094.84,-535.09"/>
<polygon fill="midnightblue" stroke="midnightblue" points="2095.63,-538.5 2104.82,-533.23 2094.35,-531.62 2095.63,-538.5"/>
</g>
<!-- Node75 -->
<g id="node50" class="node">
<title>Node75</title>
<g id="a_node50"><a xlink:title=" ">
<polygon fill="none" stroke="#bfbfbf" points="2183.5,-515.5 2183.5,-534.5 2262.5,-534.5 2262.5,-515.5 2183.5,-515.5"/>
<text text-anchor="middle" x="2223" y="-522.5" font-family="Helvetica,sans-Serif" font-size="10.00">sys/statvfs.h</text>
</a>
</g>
</g>
<!-- Node1&#45;&gt;Node75 -->
<g id="edge85" class="edge">
<title>Node1&#45;&gt;Node75</title>
<path fill="none" stroke="midnightblue" d="M1853.34,-573.48C1929.04,-565.95 2054.93,-552.5 2173.48,-534.98"/>
<polygon fill="midnightblue" stroke="midnightblue" points="2174.08,-538.43 2183.46,-533.5 2173.05,-531.51 2174.08,-538.43"/>
</g>
<!-- Node3 -->
<g id="node3" class="node">
<title>Node3</title>
<g id="a_node3"><a xlink:title=" ">
<polygon fill="none" stroke="#bfbfbf" points="442.5,-459.5 442.5,-478.5 555.5,-478.5 555.5,-459.5 442.5,-459.5"/>
<text text-anchor="middle" x="499" y="-466.5" font-family="Helvetica,sans-Serif" font-size="10.00">llvm/Config/config.h</text>
</a>
</g>
</g>
<!-- Node2&#45;&gt;Node3 -->
<g id="edge2" class="edge">
<title>Node2&#45;&gt;Node3</title>
<path fill="none" stroke="midnightblue" d="M731.82,-518.92C690.3,-510.19 604.59,-492.19 549.56,-480.62"/>
<polygon fill="midnightblue" stroke="midnightblue" points="550.16,-477.17 539.65,-478.54 548.72,-484.02 550.16,-477.17"/>
</g>
<!-- Node4 -->
<g id="node4" class="node">
<title>Node4</title>
<g id="a_node4"><a xlink:href="Chrono_8h.html" target="_top" xlink:title=" ">
<polygon fill="none" stroke="black" points="1112.5,-459.5 1112.5,-478.5 1237.5,-478.5 1237.5,-459.5 1112.5,-459.5"/>
<text text-anchor="middle" x="1175" y="-466.5" font-family="Helvetica,sans-Serif" font-size="10.00">llvm/Support/Chrono.h</text>
</a>
</g>
</g>
<!-- Node2&#45;&gt;Node4 -->
<g id="edge3" class="edge">
<title>Node2&#45;&gt;Node4</title>
<path fill="none" stroke="midnightblue" d="M780.03,-520.9C841.5,-512.98 1006.36,-491.73 1102.55,-479.34"/>
<polygon fill="midnightblue" stroke="midnightblue" points="1103.02,-482.81 1112.49,-478.06 1102.13,-475.86 1103.02,-482.81"/>
</g>
<!-- Node16 -->
<g id="node11" class="node">
<title>Node16</title>
<g id="a_node11"><a xlink:href="Support_2ErrorHandling_8h.html" target="_top" xlink:title=" ">
<polygon fill="none" stroke="black" points="880,-112.5 880,-131.5 1038,-131.5 1038,-112.5 880,-112.5"/>
<text text-anchor="middle" x="959" y="-119.5" font-family="Helvetica,sans-Serif" font-size="10.00">llvm/Support/ErrorHandling.h</text>
</a>
</g>
</g>
<!-- Node2&#45;&gt;Node16 -->
<g id="edge60" class="edge">
<title>Node2&#45;&gt;Node16</title>
<path fill="none" stroke="midnightblue" d="M762.09,-515.17C778.43,-490.6 822,-418.86 822,-352.5 822,-352.5 822,-352.5 822,-233 822,-202.9 820.59,-190.12 841,-168 856.15,-151.59 877.93,-141.11 898.66,-134.45"/>
<polygon fill="midnightblue" stroke="midnightblue" points="899.81,-137.76 908.4,-131.56 897.82,-131.05 899.81,-137.76"/>
</g>
<!-- Node24 -->
<g id="node15" class="node">
<title>Node24</title>
<g id="a_node15"><a xlink:title=" ">
<polygon fill="none" stroke="#bfbfbf" points="1535,-112.5 1535,-131.5 1599,-131.5 1599,-112.5 1535,-112.5"/>
<text text-anchor="middle" x="1567" y="-119.5" font-family="Helvetica,sans-Serif" font-size="10.00">algorithm</text>
</a>
</g>
</g>
<!-- Node2&#45;&gt;Node24 -->
<g id="edge61" class="edge">
<title>Node2&#45;&gt;Node24</title>
<path fill="none" stroke="midnightblue" d="M780.09,-523.62C859.59,-522.05 1120.65,-514.34 1333,-479 1431.47,-462.61 1693.37,-433.29 1768,-367 1837.46,-305.3 1891.94,-238.98 1832,-168 1804.06,-134.92 1677.38,-126.15 1609.79,-123.83"/>
<polygon fill="midnightblue" stroke="midnightblue" points="1609.58,-120.32 1599.47,-123.51 1609.36,-127.32 1609.58,-120.32"/>
</g>
<!-- Node26 -->
<g id="node17" class="node">
<title>Node26</title>
<g id="a_node17"><a xlink:title=" ">
<polygon fill="none" stroke="#bfbfbf" points="812,-112.5 812,-131.5 862,-131.5 862,-112.5 812,-112.5"/>
<text text-anchor="middle" x="837" y="-119.5" font-family="Helvetica,sans-Serif" font-size="10.00">cstring</text>
</a>
</g>
</g>
<!-- Node2&#45;&gt;Node26 -->
<g id="edge66" class="edge">
<title>Node2&#45;&gt;Node26</title>
<path fill="none" stroke="midnightblue" d="M756.1,-515.26C756.58,-472.36 758.75,-285.86 760,-280 771.7,-225.29 806.45,-168 825.01,-140.18"/>
<polygon fill="midnightblue" stroke="midnightblue" points="828.1,-141.86 830.83,-131.63 822.31,-137.93 828.1,-141.86"/>
</g>
<!-- Node27 -->
<g id="node18" class="node">
<title>Node27</title>
<g id="a_node18"><a xlink:title=" ">
<polygon fill="none" stroke="#bfbfbf" points="661,-112.5 661,-131.5 705,-131.5 705,-112.5 661,-112.5"/>
<text text-anchor="middle" x="683" y="-119.5" font-family="Helvetica,sans-Serif" font-size="10.00">string</text>
</a>
</g>
</g>
<!-- Node2&#45;&gt;Node27 -->
<g id="edge67" class="edge">
<title>Node2&#45;&gt;Node27</title>
<path fill="none" stroke="midnightblue" d="M731.74,-523.73C698.19,-522.01 637.82,-513.88 603,-479 581.74,-457.7 584,-444.1 584,-414 584,-414 584,-414 584,-233 584,-189.18 627.94,-154.93 657.27,-136.94"/>
<polygon fill="midnightblue" stroke="midnightblue" points="659.36,-139.77 666.21,-131.68 655.81,-133.74 659.36,-139.77"/>
</g>
<!-- Node40 -->
<g id="node23" class="node">
<title>Node40</title>
<g id="a_node23"><a xlink:title=" ">
<polygon fill="none" stroke="#bfbfbf" points="1473.5,-224.5 1473.5,-243.5 1522.5,-243.5 1522.5,-224.5 1473.5,-224.5"/>
<text text-anchor="middle" x="1498" y="-231.5" font-family="Helvetica,sans-Serif" font-size="10.00">cstdlib</text>
</a>
</g>
</g>
<!-- Node2&#45;&gt;Node40 -->
<g id="edge65" class="edge">
<title>Node2&#45;&gt;Node40</title>
<path fill="none" stroke="midnightblue" d="M780.08,-524.11C851.93,-523.94 1070.66,-519.85 1246,-479 1323.17,-461.02 1412,-493.23 1412,-414 1412,-414 1412,-414 1412,-350.5 1412,-307.11 1451.52,-269.47 1476.98,-249.73"/>
<polygon fill="midnightblue" stroke="midnightblue" points="1479.39,-252.29 1485.31,-243.51 1475.2,-246.69 1479.39,-252.29"/>
</g>
<!-- Node58 -->
<g id="node32" class="node">
<title>Node58</title>
<g id="a_node32"><a xlink:href="Errno_8h.html" target="_top" xlink:title=" ">
<polygon fill="none" stroke="black" points="612,-459.5 612,-478.5 728,-478.5 728,-459.5 612,-459.5"/>
<text text-anchor="middle" x="670" y="-466.5" font-family="Helvetica,sans-Serif" font-size="10.00">llvm/Support/Errno.h</text>
</a>
</g>
</g>
<!-- Node2&#45;&gt;Node58 -->
<g id="edge57" class="edge">
<title>Node2&#45;&gt;Node58</title>
<path fill="none" stroke="midnightblue" d="M742.18,-515.32C728.77,-506.9 708.18,-493.97 692.41,-484.07"/>
<polygon fill="midnightblue" stroke="midnightblue" points="694.11,-481.01 683.78,-478.65 690.39,-486.94 694.11,-481.01"/>
</g>
<!-- Node59 -->
<g id="node33" class="node">
<title>Node59</title>
<g id="a_node33"><a xlink:title=" ">
<polygon fill="none" stroke="#bfbfbf" points="701.5,-403.5 701.5,-422.5 748.5,-422.5 748.5,-403.5 701.5,-403.5"/>
<text text-anchor="middle" x="725" y="-410.5" font-family="Helvetica,sans-Serif" font-size="10.00">cerrno</text>
</a>
</g>
</g>
<!-- Node2&#45;&gt;Node59 -->
<g id="edge63" class="edge">
<title>Node2&#45;&gt;Node59</title>
<path fill="none" stroke="midnightblue" d="M753.57,-515.37C748.54,-497.54 736.92,-456.3 730.15,-432.27"/>
<polygon fill="midnightblue" stroke="midnightblue" points="733.5,-431.27 727.42,-422.59 726.77,-433.17 733.5,-431.27"/>
</g>
<!-- Node60 -->
<g id="node34" class="node">
<title>Node60</title>
<g id="a_node34"><a xlink:title=" ">
<polygon fill="none" stroke="#bfbfbf" points="0,-459.5 0,-478.5 56,-478.5 56,-459.5 0,-459.5"/>
<text text-anchor="middle" x="28" y="-466.5" font-family="Helvetica,sans-Serif" font-size="10.00">assert.h</text>
</a>
</g>
</g>
<!-- Node2&#45;&gt;Node60 -->
<g id="edge62" class="edge">
<title>Node2&#45;&gt;Node60</title>
<path fill="none" stroke="midnightblue" d="M731.97,-523.94C644.12,-523.41 332.12,-518.76 66.41,-478.94"/>
<polygon fill="midnightblue" stroke="midnightblue" points="66.59,-475.43 56.18,-477.39 65.54,-482.35 66.59,-475.43"/>
</g>
<!-- Node61 -->
<g id="node35" class="node">
<title>Node61</title>
<g id="a_node35"><a xlink:title=" ">
<polygon fill="none" stroke="#bfbfbf" points="74,-459.5 74,-478.5 120,-478.5 120,-459.5 74,-459.5"/>
<text text-anchor="middle" x="97" y="-466.5" font-family="Helvetica,sans-Serif" font-size="10.00">cstdio</text>
</a>
</g>
</g>
<!-- Node2&#45;&gt;Node61 -->
<g id="edge64" class="edge">
<title>Node2&#45;&gt;Node61</title>
<path fill="none" stroke="midnightblue" d="M731.87,-524.02C649.08,-523.71 369.02,-519.67 130.2,-478.86"/>
<polygon fill="midnightblue" stroke="midnightblue" points="130.74,-475.4 120.29,-477.14 129.55,-482.3 130.74,-475.4"/>
</g>
<!-- Node2&#45;&gt;Node15 -->
<g id="edge68" class="edge">
<title>Node2&#45;&gt;Node15</title>
<path fill="none" stroke="midnightblue" d="M780.24,-523.47C870.71,-521.26 1197.15,-511.39 1464,-479 1465.26,-478.85 1466.53,-478.68 1467.81,-478.51"/>
<polygon fill="midnightblue" stroke="midnightblue" points="1468.38,-481.96 1477.75,-477.03 1467.35,-475.04 1468.38,-481.96"/>
</g>
<!-- Node62 -->
<g id="node37" class="node">
<title>Node62</title>
<g id="a_node37"><a xlink:title=" ">
<polygon fill="none" stroke="#bfbfbf" points="138,-459.5 138,-478.5 204,-478.5 204,-459.5 138,-459.5"/>
<text text-anchor="middle" x="171" y="-466.5" font-family="Helvetica,sans-Serif" font-size="10.00">sys/wait.h</text>
</a>
</g>
</g>
<!-- Node2&#45;&gt;Node62 -->
<g id="edge69" class="edge">
<title>Node2&#45;&gt;Node62</title>
<path fill="none" stroke="midnightblue" d="M731.79,-523.1C656.52,-520.08 419.88,-508.83 214.47,-479.04"/>
<polygon fill="midnightblue" stroke="midnightblue" points="214.8,-475.55 204.4,-477.56 213.79,-482.48 214.8,-475.55"/>
</g>
<!-- Node2&#45;&gt;Node63 -->
<g id="edge70" class="edge">
<title>Node2&#45;&gt;Node63</title>
<path fill="none" stroke="midnightblue" d="M780.14,-524.25C876.9,-524.91 1246.06,-524.25 1557.69,-478.91"/>
<polygon fill="midnightblue" stroke="midnightblue" points="1558.44,-482.34 1567.82,-477.42 1557.42,-475.41 1558.44,-482.34"/>
</g>
<!-- Node64 -->
<g id="node39" class="node">
<title>Node64</title>
<g id="a_node39"><a xlink:title=" ">
<polygon fill="none" stroke="#bfbfbf" points="222,-459.5 222,-478.5 290,-478.5 290,-459.5 222,-459.5"/>
<text text-anchor="middle" x="256" y="-466.5" font-family="Helvetica,sans-Serif" font-size="10.00">sys/time.h</text>
</a>
</g>
</g>
<!-- Node2&#45;&gt;Node64 -->
<g id="edge71" class="edge">
<title>Node2&#45;&gt;Node64</title>
<path fill="none" stroke="midnightblue" d="M731.61,-522.53C664.42,-518.29 470.86,-504.74 300.12,-479.02"/>
<polygon fill="midnightblue" stroke="midnightblue" points="300.62,-475.55 290.21,-477.51 299.57,-482.47 300.62,-475.55"/>
</g>
<!-- Node65 -->
<g id="node40" class="node">
<title>Node65</title>
<g id="a_node40"><a xlink:title=" ">
<polygon fill="none" stroke="#bfbfbf" points="308,-459.5 308,-478.5 356,-478.5 356,-459.5 308,-459.5"/>
<text text-anchor="middle" x="332" y="-466.5" font-family="Helvetica,sans-Serif" font-size="10.00">time.h</text>
</a>
</g>
</g>
<!-- Node2&#45;&gt;Node65 -->
<g id="edge72" class="edge">
<title>Node2&#45;&gt;Node65</title>
<path fill="none" stroke="midnightblue" d="M731.55,-522.48C671.1,-518.45 509.68,-506.02 365.93,-478.91"/>
<polygon fill="midnightblue" stroke="midnightblue" points="366.53,-475.46 356.05,-477.01 365.21,-482.33 366.53,-475.46"/>
</g>
<!-- Node66 -->
<g id="node41" class="node">
<title>Node66</title>
<g id="a_node41"><a xlink:title=" ">
<polygon fill="none" stroke="#bfbfbf" points="374,-459.5 374,-478.5 424,-478.5 424,-459.5 374,-459.5"/>
<text text-anchor="middle" x="399" y="-466.5" font-family="Helvetica,sans-Serif" font-size="10.00">dlfcn.h</text>
</a>
</g>
</g>
<!-- Node2&#45;&gt;Node66 -->
<g id="edge73" class="edge">
<title>Node2&#45;&gt;Node66</title>
<path fill="none" stroke="midnightblue" d="M731.93,-521.65C679.51,-516.32 551.02,-502.09 434.01,-478.99"/>
<polygon fill="midnightblue" stroke="midnightblue" points="434.66,-475.55 424.17,-477.02 433.29,-482.42 434.66,-475.55"/>
</g>
<!-- Node2&#45;&gt;Node67 -->
<g id="edge74" class="edge">
<title>Node2&#45;&gt;Node67</title>
<path fill="none" stroke="midnightblue" d="M780.23,-523.46C901.27,-520.66 1441.91,-506.9 1632.2,-478.68"/>
<polygon fill="midnightblue" stroke="midnightblue" points="1632.99,-482.1 1642.34,-477.11 1631.92,-475.18 1632.99,-482.1"/>
</g>
<!-- Node5 -->
<g id="node5" class="node">
<title>Node5</title>
<g id="a_node5"><a xlink:href="Compiler_8h.html" target="_top" xlink:title=" ">
<polygon fill="none" stroke="black" points="892,-56.5 892,-75.5 1026,-75.5 1026,-56.5 892,-56.5"/>
<text text-anchor="middle" x="959" y="-63.5" font-family="Helvetica,sans-Serif" font-size="10.00">llvm/Support/Compiler.h</text>
</a>
</g>
</g>
<!-- Node4&#45;&gt;Node5 -->
<g id="edge4" class="edge">
<title>Node4&#45;&gt;Node5</title>
<path fill="none" stroke="midnightblue" d="M1112.91,-459.46C1081.67,-453.04 1044.33,-441.95 1015,-423 900.53,-349.04 885.76,-306.25 818,-188 800.63,-157.69 776.89,-139.82 798,-112 809.72,-96.56 853.03,-84.98 891.79,-77.44"/>
<polygon fill="midnightblue" stroke="midnightblue" points="892.86,-80.8 902.04,-75.51 891.57,-73.92 892.86,-80.8"/>
</g>
<!-- Node8 -->
<g id="node8" class="node">
<title>Node8</title>
<g id="a_node8"><a xlink:href="FormatProviders_8h.html" target="_top" xlink:title=" ">
<polygon fill="none" stroke="black" points="1024.5,-403.5 1024.5,-422.5 1195.5,-422.5 1195.5,-403.5 1024.5,-403.5"/>
<text text-anchor="middle" x="1110" y="-410.5" font-family="Helvetica,sans-Serif" font-size="10.00">llvm/Support/FormatProviders.h</text>
</a>
</g>
</g>
<!-- Node4&#45;&gt;Node8 -->
<g id="edge7" class="edge">
<title>Node4&#45;&gt;Node8</title>
<path fill="none" stroke="midnightblue" d="M1164.56,-459.32C1154.85,-451.26 1140.18,-439.08 1128.5,-429.37"/>
<polygon fill="midnightblue" stroke="midnightblue" points="1130.56,-426.53 1120.63,-422.83 1126.09,-431.92 1130.56,-426.53"/>
</g>
<!-- Node55 -->
<g id="node29" class="node">
<title>Node55</title>
<g id="a_node29"><a xlink:title=" ">
<polygon fill="none" stroke="#bfbfbf" points="1214,-403.5 1214,-422.5 1264,-422.5 1264,-403.5 1214,-403.5"/>
<text text-anchor="middle" x="1239" y="-410.5" font-family="Helvetica,sans-Serif" font-size="10.00">chrono</text>
</a>
</g>
</g>
<!-- Node4&#45;&gt;Node55 -->
<g id="edge54" class="edge">
<title>Node4&#45;&gt;Node55</title>
<path fill="none" stroke="midnightblue" d="M1185.28,-459.32C1194.84,-451.26 1209.28,-439.08 1220.78,-429.37"/>
<polygon fill="midnightblue" stroke="midnightblue" points="1223.14,-431.96 1228.53,-422.83 1218.63,-426.61 1223.14,-431.96"/>
</g>
<!-- Node56 -->
<g id="node30" class="node">
<title>Node56</title>
<g id="a_node30"><a xlink:title=" ">
<polygon fill="none" stroke="#bfbfbf" points="1282,-403.5 1282,-422.5 1326,-422.5 1326,-403.5 1282,-403.5"/>
<text text-anchor="middle" x="1304" y="-410.5" font-family="Helvetica,sans-Serif" font-size="10.00">ctime</text>
</a>
</g>
</g>
<!-- Node4&#45;&gt;Node56 -->
<g id="edge55" class="edge">
<title>Node4&#45;&gt;Node56</title>
<path fill="none" stroke="midnightblue" d="M1195.44,-459.44C1216.67,-450.56 1250.1,-436.56 1274.25,-426.45"/>
<polygon fill="midnightblue" stroke="midnightblue" points="1275.78,-429.61 1283.66,-422.52 1273.08,-423.15 1275.78,-429.61"/>
</g>
<!-- Node57 -->
<g id="node31" class="node">
<title>Node57</title>
<g id="a_node31"><a xlink:title=" ">
<polygon fill="none" stroke="#bfbfbf" points="1344.5,-403.5 1344.5,-422.5 1383.5,-422.5 1383.5,-403.5 1344.5,-403.5"/>
<text text-anchor="middle" x="1364" y="-410.5" font-family="Helvetica,sans-Serif" font-size="10.00">ratio</text>
</a>
</g>
</g>
<!-- Node4&#45;&gt;Node57 -->
<g id="edge56" class="edge">
<title>Node4&#45;&gt;Node57</title>
<path fill="none" stroke="midnightblue" d="M1206.34,-459.45C1236.7,-451.11 1284.25,-437.9 1334.6,-423.06"/>
<polygon fill="midnightblue" stroke="midnightblue" points="1335.77,-426.36 1344.37,-420.17 1333.78,-419.65 1335.77,-426.36"/>
</g>
<!-- Node6 -->
<g id="node6" class="node">
<title>Node6</title>
<g id="a_node6"><a xlink:title=" ">
<polygon fill="none" stroke="#bfbfbf" points="831.5,-0.5 831.5,-19.5 970.5,-19.5 970.5,-0.5 831.5,-0.5"/>
<text text-anchor="middle" x="901" y="-7.5" font-family="Helvetica,sans-Serif" font-size="10.00">llvm/Config/llvm&#45;config.h</text>
</a>
</g>
</g>
<!-- Node5&#45;&gt;Node6 -->
<g id="edge5" class="edge">
<title>Node5&#45;&gt;Node6</title>
<path fill="none" stroke="midnightblue" d="M949.68,-56.32C941.11,-48.34 928.19,-36.31 917.81,-26.65"/>
<polygon fill="midnightblue" stroke="midnightblue" points="920.19,-24.09 910.49,-19.83 915.42,-29.21 920.19,-24.09"/>
</g>
<!-- Node7 -->
<g id="node7" class="node">
<title>Node7</title>
<g id="a_node7"><a xlink:title=" ">
<polygon fill="none" stroke="#bfbfbf" points="989,-0.5 989,-19.5 1045,-19.5 1045,-0.5 989,-0.5"/>
<text text-anchor="middle" x="1017" y="-7.5" font-family="Helvetica,sans-Serif" font-size="10.00">stddef.h</text>
</a>
</g>
</g>
<!-- Node5&#45;&gt;Node7 -->
<g id="edge6" class="edge">
<title>Node5&#45;&gt;Node7</title>
<path fill="none" stroke="midnightblue" d="M968.32,-56.32C976.89,-48.34 989.81,-36.31 1000.19,-26.65"/>
<polygon fill="midnightblue" stroke="midnightblue" points="1002.58,-29.21 1007.51,-19.83 997.81,-24.09 1002.58,-29.21"/>
</g>
<!-- Node9 -->
<g id="node9" class="node">
<title>Node9</title>
<g id="a_node9"><a xlink:href="Optional_8h.html" target="_top" xlink:title=" ">
<polygon fill="none" stroke="black" points="1240.5,-224.5 1240.5,-243.5 1355.5,-243.5 1355.5,-224.5 1240.5,-224.5"/>
<text text-anchor="middle" x="1298" y="-231.5" font-family="Helvetica,sans-Serif" font-size="10.00">llvm/ADT/Optional.h</text>
</a>
</g>
</g>
<!-- Node8&#45;&gt;Node9 -->
<g id="edge8" class="edge">
<title>Node8&#45;&gt;Node9</title>
<path fill="none" stroke="midnightblue" d="M1113.73,-403.4C1124.09,-380.45 1155.32,-316.95 1199,-280 1216.51,-265.19 1239.69,-254.3 1259.22,-246.95"/>
<polygon fill="midnightblue" stroke="midnightblue" points="1260.54,-250.2 1268.77,-243.52 1258.17,-243.61 1260.54,-250.2"/>
</g>
<!-- Node20 -->
<g id="node13" class="node">
<title>Node20</title>
<g id="a_node13"><a xlink:title=" ">
<polygon fill="none" stroke="#bfbfbf" points="1816.5,-56.5 1816.5,-75.5 1885.5,-75.5 1885.5,-56.5 1816.5,-56.5"/>
<text text-anchor="middle" x="1851" y="-63.5" font-family="Helvetica,sans-Serif" font-size="10.00">type_traits</text>
</a>
</g>
</g>
<!-- Node8&#45;&gt;Node20 -->
<g id="edge52" class="edge">
<title>Node8&#45;&gt;Node20</title>
<path fill="none" stroke="midnightblue" d="M1195.7,-403.79C1198.84,-403.52 1201.95,-403.25 1205,-403 1316.68,-393.71 1601.6,-402.19 1708,-367 1804.57,-335.06 1850.5,-332.29 1901,-244 1930.21,-192.93 1917.59,-164.49 1891,-112 1885.47,-101.09 1876.64,-90.75 1868.68,-82.74"/>
<polygon fill="midnightblue" stroke="midnightblue" points="1870.82,-79.95 1861.17,-75.58 1865.99,-85.01 1870.82,-79.95"/>
</g>
<!-- Node32 -->
<g id="node22" class="node">
<title>Node32</title>
<g id="a_node22"><a xlink:href="STLExtras_8h.html" target="_top" xlink:title=" ">
<polygon fill="none" stroke="red" points="1492,-280.5 1492,-299.5 1614,-299.5 1614,-280.5 1492,-280.5"/>
<text text-anchor="middle" x="1553" y="-287.5" font-family="Helvetica,sans-Serif" font-size="10.00">llvm/ADT/STLExtras.h</text>
</a>
</g>
</g>
<!-- Node8&#45;&gt;Node32 -->
<g id="edge29" class="edge">
<title>Node8&#45;&gt;Node32</title>
<path fill="none" stroke="midnightblue" d="M1141.15,-403.49C1219.3,-382.15 1423.67,-326.32 1511.69,-302.28"/>
<polygon fill="midnightblue" stroke="midnightblue" points="1512.86,-305.59 1521.59,-299.58 1511.02,-298.84 1512.86,-305.59"/>
</g>
<!-- Node45 -->
<g id="node24" class="node">
<title>Node45</title>
<g id="a_node24"><a xlink:href="StringSwitch_8h.html" target="_top" xlink:title=" ">
<polygon fill="none" stroke="red" points="1018,-280.5 1018,-299.5 1152,-299.5 1152,-280.5 1018,-280.5"/>
<text text-anchor="middle" x="1085" y="-287.5" font-family="Helvetica,sans-Serif" font-size="10.00">llvm/ADT/StringSwitch.h</text>
</a>
</g>
</g>
<!-- Node8&#45;&gt;Node45 -->
<g id="edge38" class="edge">
<title>Node8&#45;&gt;Node45</title>
<path fill="none" stroke="midnightblue" d="M1108.2,-403.3C1104.17,-383.76 1094.31,-336.06 1088.83,-309.55"/>
<polygon fill="midnightblue" stroke="midnightblue" points="1092.23,-308.71 1086.78,-299.62 1085.38,-310.12 1092.23,-308.71"/>
</g>
<!-- Node48 -->
<g id="node25" class="node">
<title>Node48</title>
<g id="a_node25"><a xlink:href="Twine_8h.html" target="_top" xlink:title=" ">
<polygon fill="none" stroke="red" points="850.5,-168.5 850.5,-187.5 951.5,-187.5 951.5,-168.5 850.5,-168.5"/>
<text text-anchor="middle" x="901" y="-175.5" font-family="Helvetica,sans-Serif" font-size="10.00">llvm/ADT/Twine.h</text>
</a>
</g>
</g>
<!-- Node8&#45;&gt;Node48 -->
<g id="edge43" class="edge">
<title>Node8&#45;&gt;Node48</title>
<path fill="none" stroke="midnightblue" d="M1102.13,-403.3C1085.11,-384.48 1043.62,-338.59 1009,-300 975.34,-262.48 935.94,-218.27 915.29,-195.07"/>
<polygon fill="midnightblue" stroke="midnightblue" points="917.84,-192.67 908.58,-187.52 912.61,-197.32 917.84,-192.67"/>
</g>
<!-- Node50 -->
<g id="node26" class="node">
<title>Node50</title>
<g id="a_node26"><a xlink:href="FormatVariadicDetails_8h.html" target="_top" xlink:title=" ">
<polygon fill="none" stroke="red" points="1478.5,-336.5 1478.5,-366.5 1633.5,-366.5 1633.5,-336.5 1478.5,-336.5"/>
<text text-anchor="start" x="1486.5" y="-354.5" font-family="Helvetica,sans-Serif" font-size="10.00">llvm/Support/FormatVariadic</text>
<text text-anchor="middle" x="1556" y="-343.5" font-family="Helvetica,sans-Serif" font-size="10.00">Details.h</text>
</a>
</g>
</g>
<!-- Node8&#45;&gt;Node50 -->
<g id="edge47" class="edge">
<title>Node8&#45;&gt;Node50</title>
<path fill="none" stroke="midnightblue" d="M1181.95,-403.49C1253.54,-394.88 1366.48,-380.88 1464,-367 1465.31,-366.81 1466.62,-366.63 1467.95,-366.43"/>
<polygon fill="midnightblue" stroke="midnightblue" points="1468.84,-369.84 1478.22,-364.93 1467.82,-362.91 1468.84,-369.84"/>
</g>
<!-- Node53 -->
<g id="node27" class="node">
<title>Node53</title>
<g id="a_node27"><a xlink:href="NativeFormatting_8h.html" target="_top" xlink:title=" ">
<polygon fill="none" stroke="red" points="1208,-280.5 1208,-299.5 1384,-299.5 1384,-280.5 1208,-280.5"/>
<text text-anchor="middle" x="1296" y="-287.5" font-family="Helvetica,sans-Serif" font-size="10.00">llvm/Support/NativeFormatting.h</text>
</a>
</g>
</g>
<!-- Node8&#45;&gt;Node53 -->
<g id="edge50" class="edge">
<title>Node8&#45;&gt;Node53</title>
<path fill="none" stroke="midnightblue" d="M1127.81,-403.43C1145.11,-394.88 1171.94,-381.02 1194,-367 1224.52,-347.6 1257.74,-321.92 1277.71,-305.93"/>
<polygon fill="midnightblue" stroke="midnightblue" points="1280.06,-308.53 1285.65,-299.52 1275.67,-303.08 1280.06,-308.53"/>
</g>
<!-- Node54 -->
<g id="node28" class="node">
<title>Node54</title>
<g id="a_node28"><a xlink:title=" ">
<polygon fill="none" stroke="#bfbfbf" points="1651.5,-342 1651.5,-361 1698.5,-361 1698.5,-342 1651.5,-342"/>
<text text-anchor="middle" x="1675" y="-349" font-family="Helvetica,sans-Serif" font-size="10.00">vector</text>
</a>
</g>
</g>
<!-- Node8&#45;&gt;Node54 -->
<g id="edge53" class="edge">
<title>Node8&#45;&gt;Node54</title>
<path fill="none" stroke="midnightblue" d="M1195.7,-403.83C1198.84,-403.55 1201.95,-403.27 1205,-403 1399.56,-385.79 1453.93,-416.03 1643,-367 1645.16,-366.44 1647.35,-365.74 1649.53,-364.96"/>
<polygon fill="midnightblue" stroke="midnightblue" points="1650.88,-368.19 1658.79,-361.15 1648.21,-361.72 1650.88,-368.19"/>
</g>
<!-- Node9&#45;&gt;Node5 -->
<g id="edge24" class="edge">
<title>Node9&#45;&gt;Node5</title>
<path fill="none" stroke="midnightblue" d="M1240.24,-227.73C1182.65,-221.38 1099.37,-208.88 1075,-188 1047.67,-164.58 1070.89,-138.93 1047,-112 1033.87,-97.19 1014.7,-86.59 997.6,-79.41"/>
<polygon fill="midnightblue" stroke="midnightblue" points="998.43,-75.98 987.84,-75.58 995.87,-82.49 998.43,-75.98"/>
</g>
<!-- Node10 -->
<g id="node10" class="node">
<title>Node10</title>
<g id="a_node10"><a xlink:href="Hashing_8h.html" target="_top" xlink:title=" ">
<polygon fill="none" stroke="red" points="1084.5,-168.5 1084.5,-187.5 1197.5,-187.5 1197.5,-168.5 1084.5,-168.5"/>
<text text-anchor="middle" x="1141" y="-175.5" font-family="Helvetica,sans-Serif" font-size="10.00">llvm/ADT/Hashing.h</text>
</a>
</g>
</g>
<!-- Node9&#45;&gt;Node10 -->
<g id="edge9" class="edge">
<title>Node9&#45;&gt;Node10</title>
<path fill="none" stroke="midnightblue" d="M1273.12,-224.44C1246.71,-215.36 1204.78,-200.94 1175.26,-190.78"/>
<polygon fill="midnightblue" stroke="midnightblue" points="1176.36,-187.46 1165.76,-187.52 1174.08,-194.08 1176.36,-187.46"/>
</g>
<!-- Node22 -->
<g id="node12" class="node">
<title>Node22</title>
<g id="a_node12"><a xlink:href="type__traits_8h.html" target="_top" xlink:title=" ">
<polygon fill="none" stroke="black" points="1169.5,-112.5 1169.5,-131.5 1312.5,-131.5 1312.5,-112.5 1169.5,-112.5"/>
<text text-anchor="middle" x="1241" y="-119.5" font-family="Helvetica,sans-Serif" font-size="10.00">llvm/Support/type_traits.h</text>
</a>
</g>
</g>
<!-- Node9&#45;&gt;Node22 -->
<g id="edge25" class="edge">
<title>Node9&#45;&gt;Node22</title>
<path fill="none" stroke="midnightblue" d="M1282.18,-224.42C1269.68,-216.69 1253.05,-204.08 1245,-188 1237.8,-173.63 1237.37,-155.17 1238.4,-141.59"/>
<polygon fill="midnightblue" stroke="midnightblue" points="1241.89,-141.86 1239.5,-131.54 1234.93,-141.1 1241.89,-141.86"/>
</g>
<!-- Node23 -->
<g id="node14" class="node">
<title>Node23</title>
<g id="a_node14"><a xlink:title=" ">
<polygon fill="none" stroke="#bfbfbf" points="1335.5,-56.5 1335.5,-75.5 1380.5,-75.5 1380.5,-56.5 1335.5,-56.5"/>
<text text-anchor="middle" x="1358" y="-63.5" font-family="Helvetica,sans-Serif" font-size="10.00">utility</text>
</a>
</g>
</g>
<!-- Node9&#45;&gt;Node23 -->
<g id="edge28" class="edge">
<title>Node9&#45;&gt;Node23</title>
<path fill="none" stroke="midnightblue" d="M1355.59,-225.78C1382.65,-219.7 1413.59,-208.54 1435,-188 1454.18,-169.6 1451.26,-158.15 1456,-132 1457.59,-123.25 1460.8,-119.48 1456,-112 1441.72,-89.72 1413.33,-78.33 1390.77,-72.59"/>
<polygon fill="midnightblue" stroke="midnightblue" points="1391.41,-69.15 1380.88,-70.33 1389.85,-75.97 1391.41,-69.15"/>
</g>
<!-- Node25 -->
<g id="node16" class="node">
<title>Node25</title>
<g id="a_node16"><a xlink:title=" ">
<polygon fill="none" stroke="#bfbfbf" points="1395,-112.5 1395,-131.5 1447,-131.5 1447,-112.5 1395,-112.5"/>
<text text-anchor="middle" x="1421" y="-119.5" font-family="Helvetica,sans-Serif" font-size="10.00">cassert</text>
</a>
</g>
</g>
<!-- Node9&#45;&gt;Node25 -->
<g id="edge26" class="edge">
<title>Node9&#45;&gt;Node25</title>
<path fill="none" stroke="midnightblue" d="M1355.59,-224.95C1378.36,-218.71 1402.52,-207.64 1417,-188 1426.74,-174.79 1426.72,-155.66 1424.88,-141.57"/>
<polygon fill="midnightblue" stroke="midnightblue" points="1428.3,-140.82 1423.16,-131.56 1421.4,-142.01 1428.3,-140.82"/>
</g>
<!-- Node29 -->
<g id="node19" class="node">
<title>Node29</title>
<g id="a_node19"><a xlink:href="None_8h.html" target="_top" xlink:title=" ">
<polygon fill="none" stroke="black" points="1254.5,-168.5 1254.5,-187.5 1353.5,-187.5 1353.5,-168.5 1254.5,-168.5"/>
<text text-anchor="middle" x="1304" y="-175.5" font-family="Helvetica,sans-Serif" font-size="10.00">llvm/ADT/None.h</text>
</a>
</g>
</g>
<!-- Node9&#45;&gt;Node29 -->
<g id="edge21" class="edge">
<title>Node9&#45;&gt;Node29</title>
<path fill="none" stroke="midnightblue" d="M1298.99,-224.08C1299.79,-216.93 1300.93,-206.64 1301.92,-197.69"/>
<polygon fill="midnightblue" stroke="midnightblue" points="1305.4,-198.08 1303.03,-187.75 1298.44,-197.3 1305.4,-198.08"/>
</g>
<!-- Node30 -->
<g id="node20" class="node">
<title>Node30</title>
<g id="a_node20"><a xlink:href="STLForwardCompat_8h.html" target="_top" xlink:title=" ">
<polygon fill="none" stroke="black" points="1655,-168.5 1655,-187.5 1823,-187.5 1823,-168.5 1655,-168.5"/>
<text text-anchor="middle" x="1739" y="-175.5" font-family="Helvetica,sans-Serif" font-size="10.00">llvm/ADT/STLForwardCompat.h</text>
</a>
</g>
</g>
<!-- Node9&#45;&gt;Node30 -->
<g id="edge22" class="edge">
<title>Node9&#45;&gt;Node30</title>
<path fill="none" stroke="midnightblue" d="M1355.65,-225.94C1433.25,-216.44 1571.62,-199.49 1659.18,-188.77"/>
<polygon fill="midnightblue" stroke="midnightblue" points="1659.84,-192.22 1669.34,-187.53 1658.99,-185.27 1659.84,-192.22"/>
</g>
<!-- Node31 -->
<g id="node21" class="node">
<title>Node31</title>
<g id="a_node21"><a xlink:title=" ">
<polygon fill="none" stroke="#bfbfbf" points="1371.5,-168.5 1371.5,-187.5 1408.5,-187.5 1408.5,-168.5 1371.5,-168.5"/>
<text text-anchor="middle" x="1390" y="-175.5" font-family="Helvetica,sans-Serif" font-size="10.00">new</text>
</a>
</g>
</g>
<!-- Node9&#45;&gt;Node31 -->
<g id="edge27" class="edge">
<title>Node9&#45;&gt;Node31</title>
<path fill="none" stroke="midnightblue" d="M1312.78,-224.32C1327.27,-215.82 1349.57,-202.73 1366.49,-192.8"/>
<polygon fill="midnightblue" stroke="midnightblue" points="1368.4,-195.74 1375.26,-187.65 1364.86,-189.7 1368.4,-195.74"/>
</g>
<!-- Node10&#45;&gt;Node16 -->
<g id="edge10" class="edge">
<title>Node10&#45;&gt;Node16</title>
<path fill="none" stroke="midnightblue" d="M1112.16,-168.44C1081.14,-159.24 1031.67,-144.56 997.38,-134.39"/>
<polygon fill="midnightblue" stroke="midnightblue" points="998.29,-131.01 987.7,-131.52 996.29,-137.72 998.29,-131.01"/>
</g>
<!-- Node10&#45;&gt;Node22 -->
<g id="edge12" class="edge">
<title>Node10&#45;&gt;Node22</title>
<path fill="none" stroke="midnightblue" d="M1157.07,-168.32C1172.96,-159.74 1197.51,-146.49 1215.96,-136.52"/>
<polygon fill="midnightblue" stroke="midnightblue" points="1217.84,-139.49 1224.97,-131.65 1214.51,-133.33 1217.84,-139.49"/>
</g>
<!-- Node10&#45;&gt;Node23 -->
<g id="edge20" class="edge">
<title>Node10&#45;&gt;Node23</title>
<path fill="none" stroke="midnightblue" d="M1140.91,-168.44C1141.26,-154.51 1144.07,-126.98 1160,-112 1183.61,-89.79 1275.49,-76.26 1325.36,-70.41"/>
<polygon fill="midnightblue" stroke="midnightblue" points="1325.79,-73.88 1335.33,-69.28 1325,-66.93 1325.79,-73.88"/>
</g>
<!-- Node10&#45;&gt;Node24 -->
<g id="edge16" class="edge">
<title>Node10&#45;&gt;Node24</title>
<path fill="none" stroke="midnightblue" d="M1197.57,-169.83C1284.14,-158.86 1447.55,-138.14 1524.67,-128.37"/>
<polygon fill="midnightblue" stroke="midnightblue" points="1525.49,-131.79 1534.97,-127.06 1524.61,-124.85 1525.49,-131.79"/>
</g>
<!-- Node10&#45;&gt;Node25 -->
<g id="edge17" class="edge">
<title>Node10&#45;&gt;Node25</title>
<path fill="none" stroke="midnightblue" d="M1185.37,-168.44C1240.62,-157.79 1333.94,-139.79 1384.99,-129.95"/>
<polygon fill="midnightblue" stroke="midnightblue" points="1385.75,-133.36 1394.91,-128.03 1384.43,-126.49 1385.75,-133.36"/>
</g>
<!-- Node10&#45;&gt;Node26 -->
<g id="edge18" class="edge">
<title>Node10&#45;&gt;Node26</title>
<path fill="none" stroke="midnightblue" d="M1084.34,-169.13C1031.76,-161.48 951.12,-148.84 872.29,-132.12"/>
<polygon fill="midnightblue" stroke="midnightblue" points="872.7,-128.62 862.19,-129.95 871.23,-135.47 872.7,-128.62"/>
</g>
<!-- Node10&#45;&gt;Node27 -->
<g id="edge19" class="edge">
<title>Node10&#45;&gt;Node27</title>
<path fill="none" stroke="midnightblue" d="M1084.38,-170.32C987.23,-158.87 791.85,-135.83 715.05,-126.78"/>
<polygon fill="midnightblue" stroke="midnightblue" points="715.36,-123.29 705.02,-125.6 714.54,-130.24 715.36,-123.29"/>
</g>
<!-- Node16&#45;&gt;Node5 -->
<g id="edge11" class="edge">
<title>Node16&#45;&gt;Node5</title>
<path fill="none" stroke="midnightblue" d="M959,-112.08C959,-105.01 959,-94.86 959,-85.99"/>
<polygon fill="midnightblue" stroke="midnightblue" points="962.5,-85.75 959,-75.75 955.5,-85.75 962.5,-85.75"/>
</g>
<!-- Node22&#45;&gt;Node5 -->
<g id="edge13" class="edge">
<title>Node22&#45;&gt;Node5</title>
<path fill="none" stroke="midnightblue" d="M1196.32,-112.44C1146.71,-102.94 1066.64,-87.61 1013.41,-77.42"/>
<polygon fill="midnightblue" stroke="midnightblue" points="1013.95,-73.96 1003.47,-75.52 1012.64,-80.83 1013.95,-73.96"/>
</g>
<!-- Node22&#45;&gt;Node20 -->
<g id="edge14" class="edge">
<title>Node22&#45;&gt;Node20</title>
<path fill="none" stroke="midnightblue" d="M1312.77,-114.65C1439.89,-103.39 1701.09,-80.27 1805.96,-70.99"/>
<polygon fill="midnightblue" stroke="midnightblue" points="1806.55,-74.45 1816.2,-70.08 1805.93,-67.48 1806.55,-74.45"/>
</g>
<!-- Node22&#45;&gt;Node23 -->
<g id="edge15" class="edge">
<title>Node22&#45;&gt;Node23</title>
<path fill="none" stroke="midnightblue" d="M1259.54,-112.44C1278.62,-103.64 1308.57,-89.81 1330.44,-79.72"/>
<polygon fill="midnightblue" stroke="midnightblue" points="1331.93,-82.88 1339.55,-75.52 1329,-76.53 1331.93,-82.88"/>
</g>
<!-- Node30&#45;&gt;Node20 -->
<g id="edge23" class="edge">
<title>Node30&#45;&gt;Node20</title>
<path fill="none" stroke="midnightblue" d="M1747.79,-168.37C1766.6,-149.89 1810.99,-106.29 1834.97,-82.74"/>
<polygon fill="midnightblue" stroke="midnightblue" points="1837.57,-85.1 1842.25,-75.59 1832.67,-80.1 1837.57,-85.1"/>
</g>
<!-- Node32&#45;&gt;Node9 -->
<g id="edge30" class="edge">
<title>Node32&#45;&gt;Node9</title>
<path fill="none" stroke="midnightblue" d="M1512.59,-280.44C1468.02,-271 1396.23,-255.8 1348.11,-245.61"/>
<polygon fill="midnightblue" stroke="midnightblue" points="1348.72,-242.16 1338.22,-243.52 1347.27,-249.01 1348.72,-242.16"/>
</g>
<!-- Node32&#45;&gt;Node16 -->
<g id="edge32" class="edge">
<title>Node32&#45;&gt;Node16</title>
<path fill="none" stroke="midnightblue" d="M1491.7,-286.05C1395.05,-279.36 1203.33,-257.67 1058,-188 1028.42,-173.82 997.25,-152.06 977.97,-137.69"/>
<polygon fill="midnightblue" stroke="midnightblue" points="980.08,-134.89 969.99,-131.65 975.86,-140.48 980.08,-134.89"/>
</g>
<!-- Node32&#45;&gt;Node20 -->
<g id="edge36" class="edge">
<title>Node32&#45;&gt;Node20</title>
<path fill="none" stroke="midnightblue" d="M1614.08,-284.53C1678.56,-276.37 1778.17,-253.28 1832,-188 1856.04,-158.85 1855.86,-111.86 1853.5,-85.85"/>
<polygon fill="midnightblue" stroke="midnightblue" points="1856.97,-85.36 1852.38,-75.81 1850.01,-86.13 1856.97,-85.36"/>
</g>
<!-- Node32&#45;&gt;Node23 -->
<g id="edge37" class="edge">
<title>Node32&#45;&gt;Node23</title>
<path fill="none" stroke="midnightblue" d="M1560.86,-280.15C1584.69,-252.2 1651.96,-164.58 1608,-112 1580.71,-79.37 1452.58,-70.36 1391.09,-67.91"/>
<polygon fill="midnightblue" stroke="midnightblue" points="1390.89,-64.4 1380.77,-67.53 1390.64,-71.39 1390.89,-64.4"/>
</g>
<!-- Node32&#45;&gt;Node24 -->
<g id="edge33" class="edge">
<title>Node32&#45;&gt;Node24</title>
<path fill="none" stroke="midnightblue" d="M1556.04,-280.17C1558.97,-271.19 1563.21,-256.81 1565,-244 1570.01,-208.06 1569.17,-165.53 1568.09,-141.67"/>
<polygon fill="midnightblue" stroke="midnightblue" points="1571.58,-141.37 1567.57,-131.56 1564.59,-141.73 1571.58,-141.37"/>
</g>
<!-- Node32&#45;&gt;Node25 -->
<g id="edge34" class="edge">
<title>Node32&#45;&gt;Node25</title>
<path fill="none" stroke="midnightblue" d="M1553.67,-280.23C1554.85,-258.56 1554.92,-201.79 1527,-168 1509.59,-146.92 1480.53,-135.52 1457.23,-129.47"/>
<polygon fill="midnightblue" stroke="midnightblue" points="1457.86,-126.03 1447.33,-127.13 1456.25,-132.84 1457.86,-126.03"/>
</g>
<!-- Node32&#45;&gt;Node30 -->
<g id="edge31" class="edge">
<title>Node32&#45;&gt;Node30</title>
<path fill="none" stroke="midnightblue" d="M1571.18,-280.45C1589.21,-271.8 1617.45,-257.77 1641,-244 1668.54,-227.9 1698.97,-207.23 1718.5,-193.58"/>
<polygon fill="midnightblue" stroke="midnightblue" points="1720.74,-196.28 1726.91,-187.66 1716.72,-190.56 1720.74,-196.28"/>
</g>
<!-- Node32&#45;&gt;Node40 -->
<g id="edge35" class="edge">
<title>Node32&#45;&gt;Node40</title>
<path fill="none" stroke="midnightblue" d="M1543.92,-280.08C1535.83,-272.14 1523.8,-260.34 1514.09,-250.8"/>
<polygon fill="midnightblue" stroke="midnightblue" points="1516.5,-248.26 1506.91,-243.75 1511.6,-253.25 1516.5,-248.26"/>
</g>
<!-- Node45&#45;&gt;Node5 -->
<g id="edge40" class="edge">
<title>Node45&#45;&gt;Node5</title>
<path fill="none" stroke="midnightblue" d="M1029.33,-280.46C955.79,-265.57 832.13,-226.81 803,-132 791.18,-93.54 836.79,-77.63 881.69,-71.15"/>
<polygon fill="midnightblue" stroke="midnightblue" points="882.37,-74.59 891.84,-69.84 881.47,-67.65 882.37,-74.59"/>
</g>
<!-- Node45&#45;&gt;Node9 -->
<g id="edge39" class="edge">
<title>Node45&#45;&gt;Node9</title>
<path fill="none" stroke="midnightblue" d="M1118.75,-280.44C1155.52,-271.12 1214.45,-256.18 1254.62,-246"/>
<polygon fill="midnightblue" stroke="midnightblue" points="1255.57,-249.37 1264.41,-243.52 1253.85,-242.58 1255.57,-249.37"/>
</g>
<!-- Node45&#45;&gt;Node25 -->
<g id="edge41" class="edge">
<title>Node45&#45;&gt;Node25</title>
<path fill="none" stroke="midnightblue" d="M1152.29,-282.08C1222.39,-274.18 1327.05,-260.23 1364,-244 1400.8,-227.84 1417.47,-224.16 1435,-188 1442.22,-173.1 1436.96,-154.49 1430.93,-141.01"/>
<polygon fill="midnightblue" stroke="midnightblue" points="1433.96,-139.23 1426.37,-131.84 1427.69,-142.35 1433.96,-139.23"/>
</g>
<!-- Node45&#45;&gt;Node26 -->
<g id="edge42" class="edge">
<title>Node45&#45;&gt;Node26</title>
<path fill="none" stroke="midnightblue" d="M1062.63,-280.49C1045.07,-272.95 1020.87,-260.57 1004,-244 976.16,-216.65 989.89,-193.1 960,-168 946.33,-156.52 903.16,-142.2 871.82,-132.83"/>
<polygon fill="midnightblue" stroke="midnightblue" points="872.69,-129.44 862.11,-129.98 870.72,-136.16 872.69,-129.44"/>
</g>
<!-- Node48&#45;&gt;Node16 -->
<g id="edge44" class="edge">
<title>Node48&#45;&gt;Node16</title>
<path fill="none" stroke="midnightblue" d="M910.32,-168.32C918.89,-160.34 931.81,-148.31 942.19,-138.65"/>
<polygon fill="midnightblue" stroke="midnightblue" points="944.58,-141.21 949.51,-131.83 939.81,-136.09 944.58,-141.21"/>
</g>
<!-- Node48&#45;&gt;Node25 -->
<g id="edge45" class="edge">
<title>Node48&#45;&gt;Node25</title>
<path fill="none" stroke="midnightblue" d="M951.81,-171.72C1056.53,-160.85 1294.16,-136.17 1384.88,-126.75"/>
<polygon fill="midnightblue" stroke="midnightblue" points="1385.36,-130.22 1394.95,-125.71 1384.64,-123.26 1385.36,-130.22"/>
</g>
<!-- Node48&#45;&gt;Node27 -->
<g id="edge46" class="edge">
<title>Node48&#45;&gt;Node27</title>
<path fill="none" stroke="midnightblue" d="M866.46,-168.44C824.82,-158.13 755.42,-140.94 714.97,-130.92"/>
<polygon fill="midnightblue" stroke="midnightblue" points="715.65,-127.48 705.1,-128.47 713.96,-134.28 715.65,-127.48"/>
</g>
<!-- Node50&#45;&gt;Node20 -->
<g id="edge49" class="edge">
<title>Node50&#45;&gt;Node20</title>
<path fill="none" stroke="midnightblue" d="M1614,-336.47C1709.41,-312.57 1889,-263.76 1889,-235 1889,-235 1889,-235 1889,-177 1889,-142.81 1872.4,-105.76 1861.14,-84.57"/>
<polygon fill="midnightblue" stroke="midnightblue" points="1864.18,-82.83 1856.28,-75.77 1858.05,-86.22 1864.18,-82.83"/>
</g>
<!-- Node50&#45;&gt;Node32 -->
<g id="edge48" class="edge">
<title>Node50&#45;&gt;Node32</title>
<path fill="none" stroke="midnightblue" d="M1555.29,-336.4C1554.89,-328.47 1554.38,-318.46 1553.95,-309.86"/>
<polygon fill="midnightblue" stroke="midnightblue" points="1557.44,-309.47 1553.44,-299.66 1550.44,-309.82 1557.44,-309.47"/>
</g>
<!-- Node53&#45;&gt;Node9 -->
<g id="edge51" class="edge">
<title>Node53&#45;&gt;Node9</title>
<path fill="none" stroke="midnightblue" d="M1296.33,-280.08C1296.59,-273.01 1296.97,-262.86 1297.3,-253.99"/>
<polygon fill="midnightblue" stroke="midnightblue" points="1300.8,-253.87 1297.68,-243.75 1293.81,-253.61 1300.8,-253.87"/>
</g>
<!-- Node58&#45;&gt;Node27 -->
<g id="edge59" class="edge">
<title>Node58&#45;&gt;Node27</title>
<path fill="none" stroke="midnightblue" d="M670,-459.31C670,-440.06 670,-392.4 670,-352.5 670,-352.5 670,-352.5 670,-233 670,-200.58 675.64,-163.15 679.49,-141.37"/>
<polygon fill="midnightblue" stroke="midnightblue" points="682.93,-141.99 681.3,-131.52 676.05,-140.72 682.93,-141.99"/>
</g>
<!-- Node58&#45;&gt;Node59 -->
<g id="edge58" class="edge">
<title>Node58&#45;&gt;Node59</title>
<path fill="none" stroke="midnightblue" d="M679.08,-459.08C687.17,-451.14 699.2,-439.34 708.91,-429.8"/>
<polygon fill="midnightblue" stroke="midnightblue" points="711.4,-432.25 716.09,-422.75 706.5,-427.26 711.4,-432.25"/>
</g>
</g>
</svg>
