<?xml version="1.0" encoding="UTF-8" standalone="no"?>
<!DOCTYPE svg PUBLIC "-//W3C//DTD SVG 1.1//EN"
 "http://www.w3.org/Graphics/SVG/1.1/DTD/svg11.dtd">
<!-- Generated by graphviz version 2.43.0 (0)
 -->
<!-- Title: lib/CodeGen/AsmPrinter/WinCFGuard.cpp Pages: 1 -->
<svg width="3753pt" height="688pt"
 viewBox="0.00 0.00 3753.38 688.00" xmlns="http://www.w3.org/2000/svg" xmlns:xlink="http://www.w3.org/1999/xlink">
<g id="graph0" class="graph" transform="scale(1 1) rotate(0) translate(4 684)">
<title>lib/CodeGen/AsmPrinter/WinCFGuard.cpp</title>
<!-- Node1 -->
<g id="node1" class="node">
<title>Node1</title>
<g id="a_node1"><a xlink:title=" ">
<polygon fill="#bfbfbf" stroke="black" points="620.56,-649.5 620.56,-679.5 753.56,-679.5 753.56,-649.5 620.56,-649.5"/>
<text text-anchor="start" x="628.56" y="-667.5" font-family="Helvetica,sans-Serif" font-size="10.00">lib/CodeGen/AsmPrinter</text>
<text text-anchor="middle" x="687.06" y="-656.5" font-family="Helvetica,sans-Serif" font-size="10.00">/WinCFGuard.cpp</text>
</a>
</g>
</g>
<!-- Node2 -->
<g id="node2" class="node">
<title>Node2</title>
<g id="a_node2"><a xlink:href="WinCFGuard_8h.html" target="_top" xlink:title=" ">
<polygon fill="none" stroke="black" points="644.06,-593.5 644.06,-612.5 730.06,-612.5 730.06,-593.5 644.06,-593.5"/>
<text text-anchor="middle" x="687.06" y="-600.5" font-family="Helvetica,sans-Serif" font-size="10.00">WinCFGuard.h</text>
</a>
</g>
</g>
<!-- Node1&#45;&gt;Node2 -->
<g id="edge1" class="edge">
<title>Node1&#45;&gt;Node2</title>
<path fill="none" stroke="midnightblue" d="M687.06,-649.4C687.06,-641.47 687.06,-631.46 687.06,-622.86"/>
<polygon fill="midnightblue" stroke="midnightblue" points="690.56,-622.66 687.06,-612.66 683.56,-622.66 690.56,-622.66"/>
</g>
<!-- Node12 -->
<g id="node5" class="node">
<title>Node12</title>
<g id="a_node5"><a xlink:title=" ">
<polygon fill="none" stroke="#bfbfbf" points="2109.56,-112.5 2109.56,-131.5 2156.56,-131.5 2156.56,-112.5 2109.56,-112.5"/>
<text text-anchor="middle" x="2133.06" y="-119.5" font-family="Helvetica,sans-Serif" font-size="10.00">vector</text>
</a>
</g>
</g>
<!-- Node1&#45;&gt;Node12 -->
<g id="edge197" class="edge">
<title>Node1&#45;&gt;Node12</title>
<path fill="none" stroke="midnightblue" d="M753.89,-662.81C1037.87,-659.68 2145.63,-645.59 2493.06,-613 2649.47,-598.33 2740.15,-676.56 2842.06,-557 2905.27,-482.84 2880.11,-550.48 2696.06,-403 2689.65,-397.87 2468.59,-227.25 2461.06,-224 2370.06,-184.82 2333.25,-224.3 2241.06,-188 2226.15,-182.13 2224.67,-176.45 2211.06,-168 2193.35,-157.01 2172.93,-145.26 2157.43,-136.52"/>
<polygon fill="midnightblue" stroke="midnightblue" points="2158.91,-133.34 2148.48,-131.51 2155.49,-139.45 2158.91,-133.34"/>
</g>
<!-- Node13 -->
<g id="node6" class="node">
<title>Node13</title>
<g id="a_node6"><a xlink:href="AsmPrinter_8h.html" target="_top" xlink:title=" ">
<polygon fill="none" stroke="black" points="2333.56,-593.5 2333.56,-612.5 2484.56,-612.5 2484.56,-593.5 2333.56,-593.5"/>
<text text-anchor="middle" x="2409.06" y="-600.5" font-family="Helvetica,sans-Serif" font-size="10.00">llvm/CodeGen/AsmPrinter.h</text>
</a>
</g>
</g>
<!-- Node1&#45;&gt;Node13 -->
<g id="edge5" class="edge">
<title>Node1&#45;&gt;Node13</title>
<path fill="none" stroke="midnightblue" d="M753.77,-661.19C1022.03,-651.93 2022.04,-617.37 2322.89,-606.98"/>
<polygon fill="midnightblue" stroke="midnightblue" points="2323.42,-610.46 2333.3,-606.62 2323.18,-603.47 2323.42,-610.46"/>
</g>
<!-- Node79 -->
<g id="node17" class="node">
<title>Node79</title>
<g id="a_node17"><a xlink:href="MachineFunction_8h.html" target="_top" xlink:title=" ">
<polygon fill="none" stroke="black" points="1658.06,-470.5 1658.06,-489.5 1838.06,-489.5 1838.06,-470.5 1658.06,-470.5"/>
<text text-anchor="middle" x="1748.06" y="-477.5" font-family="Helvetica,sans-Serif" font-size="10.00">llvm/CodeGen/MachineFunction.h</text>
</a>
</g>
</g>
<!-- Node1&#45;&gt;Node79 -->
<g id="edge123" class="edge">
<title>Node1&#45;&gt;Node79</title>
<path fill="none" stroke="midnightblue" d="M665.76,-649.38C654.33,-640.46 641.33,-627.84 635.06,-613 626.23,-592.13 617.74,-547.58 640.06,-526 675.97,-491.28 1382.15,-483.28 1648,-481.49"/>
<polygon fill="midnightblue" stroke="midnightblue" points="1648.05,-484.99 1658.03,-481.43 1648.01,-477.99 1648.05,-484.99"/>
</g>
<!-- Node170 -->
<g id="node40" class="node">
<title>Node170</title>
<g id="a_node40"><a xlink:href="MachineModuleInfo_8h.html" target="_top" xlink:title=" ">
<polygon fill="none" stroke="black" points="2907.06,-224.5 2907.06,-254.5 3073.06,-254.5 3073.06,-224.5 2907.06,-224.5"/>
<text text-anchor="start" x="2915.06" y="-242.5" font-family="Helvetica,sans-Serif" font-size="10.00">llvm/CodeGen/MachineModule</text>
<text text-anchor="middle" x="2990.06" y="-231.5" font-family="Helvetica,sans-Serif" font-size="10.00">Info.h</text>
</a>
</g>
</g>
<!-- Node1&#45;&gt;Node170 -->
<g id="edge124" class="edge">
<title>Node1&#45;&gt;Node170</title>
<path fill="none" stroke="midnightblue" d="M753.79,-663.52C1080.07,-663.37 2509.6,-660.03 2952.06,-613 3095.15,-597.79 3268.06,-686.4 3268.06,-542.5 3268.06,-542.5 3268.06,-542.5 3268.06,-479 3268.06,-361.22 3122.53,-289.02 3042.06,-258.1"/>
<polygon fill="midnightblue" stroke="midnightblue" points="3043.17,-254.78 3032.58,-254.54 3040.71,-261.33 3043.17,-254.78"/>
</g>
<!-- Node222 -->
<g id="node44" class="node">
<title>Node222</title>
<g id="a_node44"><a xlink:href="Constants_8h.html" target="_top" xlink:title=" ">
<polygon fill="none" stroke="red" points="805.06,-291.5 805.06,-310.5 917.06,-310.5 917.06,-291.5 805.06,-291.5"/>
<text text-anchor="middle" x="861.06" y="-298.5" font-family="Helvetica,sans-Serif" font-size="10.00">llvm/IR/Constants.h</text>
</a>
</g>
</g>
<!-- Node1&#45;&gt;Node222 -->
<g id="edge154" class="edge">
<title>Node1&#45;&gt;Node222</title>
<path fill="none" stroke="midnightblue" d="M622.87,-649.48C569.44,-633.59 502.06,-601.79 502.06,-542.5 502.06,-542.5 502.06,-542.5 502.06,-479 502.06,-349.88 691.19,-314.95 794.9,-305.5"/>
<polygon fill="midnightblue" stroke="midnightblue" points="795.3,-308.98 804.96,-304.64 794.7,-302.01 795.3,-308.98"/>
</g>
<!-- Node224 -->
<g id="node48" class="node">
<title>Node224</title>
<g id="a_node48"><a xlink:href="InstrTypes_8h.html" target="_top" xlink:title=" ">
<polygon fill="none" stroke="red" points="1609.56,-291.5 1609.56,-310.5 1722.56,-310.5 1722.56,-291.5 1609.56,-291.5"/>
<text text-anchor="middle" x="1666.06" y="-298.5" font-family="Helvetica,sans-Serif" font-size="10.00">llvm/IR/InstrTypes.h</text>
</a>
</g>
</g>
<!-- Node1&#45;&gt;Node224 -->
<g id="edge175" class="edge">
<title>Node1&#45;&gt;Node224</title>
<path fill="none" stroke="midnightblue" d="M661.56,-649.42C648.51,-640.75 633.79,-628.35 626.06,-613 604.95,-571.07 634.7,-403.35 635.06,-403 677.16,-362.11 1103.65,-372.76 1162.06,-367 1319.2,-351.51 1502.96,-325.91 1599.32,-311.91"/>
<polygon fill="midnightblue" stroke="midnightblue" points="1600.11,-315.33 1609.5,-310.42 1599.1,-308.4 1600.11,-315.33"/>
</g>
<!-- Node225 -->
<g id="node49" class="node">
<title>Node225</title>
<g id="a_node49"><a xlink:href="MCObjectFileInfo_8h.html" target="_top" xlink:title=" ">
<polygon fill="none" stroke="red" points="209.06,-470.5 209.06,-489.5 361.06,-489.5 361.06,-470.5 209.06,-470.5"/>
<text text-anchor="middle" x="285.06" y="-477.5" font-family="Helvetica,sans-Serif" font-size="10.00">llvm/MC/MCObjectFileInfo.h</text>
</a>
</g>
</g>
<!-- Node1&#45;&gt;Node225 -->
<g id="edge184" class="edge">
<title>Node1&#45;&gt;Node225</title>
<path fill="none" stroke="midnightblue" d="M620.28,-652.25C580.77,-644.21 530.34,-631.51 488.06,-613 414.88,-580.97 338.49,-523.76 303.98,-496.4"/>
<polygon fill="midnightblue" stroke="midnightblue" points="305.75,-493.34 295.76,-489.82 301.38,-498.81 305.75,-493.34"/>
</g>
<!-- Node228 -->
<g id="node50" class="node">
<title>Node228</title>
<g id="a_node50"><a xlink:href="MCStreamer_8h.html" target="_top" xlink:title=" ">
<polygon fill="none" stroke="red" points="2513.56,-230 2513.56,-249 2642.56,-249 2642.56,-230 2513.56,-230"/>
<text text-anchor="middle" x="2578.06" y="-237" font-family="Helvetica,sans-Serif" font-size="10.00">llvm/MC/MCStreamer.h</text>
</a>
</g>
</g>
<!-- Node1&#45;&gt;Node228 -->
<g id="edge186" class="edge">
<title>Node1&#45;&gt;Node228</title>
<path fill="none" stroke="midnightblue" d="M753.64,-663.04C1120.95,-660.4 2885.04,-646.01 2930.06,-613 2956.75,-593.43 2954.06,-575.6 2954.06,-542.5 2954.06,-542.5 2954.06,-542.5 2954.06,-479 2954.06,-333.16 2749.84,-272.74 2642.41,-251.05"/>
<polygon fill="midnightblue" stroke="midnightblue" points="2642.82,-247.56 2632.33,-249.07 2641.47,-254.43 2642.82,-247.56"/>
</g>
<!-- Node3 -->
<g id="node3" class="node">
<title>Node3</title>
<g id="a_node3"><a xlink:href="AsmPrinterHandler_8h.html" target="_top" xlink:title=" ">
<polygon fill="none" stroke="red" points="682.56,-532 682.56,-551 871.56,-551 871.56,-532 682.56,-532"/>
<text text-anchor="middle" x="777.06" y="-539" font-family="Helvetica,sans-Serif" font-size="10.00">llvm/CodeGen/AsmPrinterHandler.h</text>
</a>
</g>
</g>
<!-- Node2&#45;&gt;Node3 -->
<g id="edge2" class="edge">
<title>Node2&#45;&gt;Node3</title>
<path fill="none" stroke="midnightblue" d="M699.95,-593.48C714.52,-583.84 738.46,-568.02 755.8,-556.55"/>
<polygon fill="midnightblue" stroke="midnightblue" points="757.78,-559.44 764.19,-551.01 753.91,-553.6 757.78,-559.44"/>
</g>
<!-- Node9 -->
<g id="node4" class="node">
<title>Node9</title>
<g id="a_node4"><a xlink:href="Compiler_8h.html" target="_top" xlink:title=" ">
<polygon fill="none" stroke="red" points="506.06,-0.5 506.06,-19.5 640.06,-19.5 640.06,-0.5 506.06,-0.5"/>
<text text-anchor="middle" x="573.06" y="-7.5" font-family="Helvetica,sans-Serif" font-size="10.00">llvm/Support/Compiler.h</text>
</a>
</g>
</g>
<!-- Node2&#45;&gt;Node9 -->
<g id="edge3" class="edge">
<title>Node2&#45;&gt;Node9</title>
<path fill="none" stroke="midnightblue" d="M643.8,-597.41C534.99,-585.1 253.45,-548.28 182.06,-490 160.94,-472.76 163.39,-460.51 157.06,-434 118.02,-270.46 34.89,-153.23 172.06,-56 222.48,-20.26 393.88,-12.41 495.55,-10.98"/>
<polygon fill="midnightblue" stroke="midnightblue" points="495.81,-14.48 505.77,-10.86 495.73,-7.48 495.81,-14.48"/>
</g>
<!-- Node2&#45;&gt;Node12 -->
<g id="edge4" class="edge">
<title>Node2&#45;&gt;Node12</title>
<path fill="none" stroke="midnightblue" d="M681.36,-593.35C671.79,-577.65 655.22,-544.4 673.06,-526 718.49,-479.16 1782.02,-495.28 1847.06,-490 2036.52,-474.62 2118.7,-547.65 2271.06,-434 2351.11,-374.28 2414.12,-301.45 2351.06,-224 2301.19,-162.76 2242.68,-231.93 2177.06,-188 2159.94,-176.54 2147.7,-155.96 2140.54,-141.02"/>
<polygon fill="midnightblue" stroke="midnightblue" points="2143.68,-139.46 2136.4,-131.76 2137.29,-142.32 2143.68,-139.46"/>
</g>
<!-- Node13&#45;&gt;Node3 -->
<g id="edge24" class="edge">
<title>Node13&#45;&gt;Node3</title>
<path fill="none" stroke="midnightblue" d="M2333.24,-602.51C2110.68,-603.41 1440.07,-601.91 886.06,-557 872.05,-555.86 857.08,-554.18 842.86,-552.36"/>
<polygon fill="midnightblue" stroke="midnightblue" points="843.04,-548.86 832.67,-551.02 842.13,-555.8 843.04,-548.86"/>
</g>
<!-- Node13&#45;&gt;Node12 -->
<g id="edge122" class="edge">
<title>Node13&#45;&gt;Node12</title>
<path fill="none" stroke="midnightblue" d="M2484.97,-598.12C2588.05,-592.07 2761.77,-578.76 2781.06,-557 2790.2,-546.69 2786.22,-538.77 2781.06,-526 2752.53,-455.49 2719.12,-453.29 2662.06,-403 2637.17,-381.06 2453.53,-237.11 2423.06,-224 2336.07,-186.57 2299.29,-227.13 2213.06,-188 2187.48,-176.39 2163.2,-154.59 2148.24,-139.45"/>
<polygon fill="midnightblue" stroke="midnightblue" points="2150.38,-136.63 2140.93,-131.84 2145.33,-141.48 2150.38,-136.63"/>
</g>
<!-- Node14 -->
<g id="node7" class="node">
<title>Node14</title>
<g id="a_node7"><a xlink:href="MapVector_8h.html" target="_top" xlink:title=" ">
<polygon fill="none" stroke="red" points="3167.56,-168.5 3167.56,-187.5 3292.56,-187.5 3292.56,-168.5 3167.56,-168.5"/>
<text text-anchor="middle" x="3230.06" y="-175.5" font-family="Helvetica,sans-Serif" font-size="10.00">llvm/ADT/MapVector.h</text>
</a>
</g>
</g>
<!-- Node13&#45;&gt;Node14 -->
<g id="edge6" class="edge">
<title>Node13&#45;&gt;Node14</title>
<path fill="none" stroke="midnightblue" d="M2484.65,-599.18C2591.07,-594.35 2779.08,-582.45 2842.06,-557 3032,-480.24 3179.64,-260.4 3219.43,-196.57"/>
<polygon fill="midnightblue" stroke="midnightblue" points="3222.62,-198.06 3224.88,-187.71 3216.66,-194.4 3222.62,-198.06"/>
</g>
<!-- Node21 -->
<g id="node10" class="node">
<title>Node21</title>
<g id="a_node10"><a xlink:title=" ">
<polygon fill="none" stroke="#bfbfbf" points="3236.56,-0.5 3236.56,-19.5 3281.56,-19.5 3281.56,-0.5 3236.56,-0.5"/>
<text text-anchor="middle" x="3259.06" y="-7.5" font-family="Helvetica,sans-Serif" font-size="10.00">utility</text>
</a>
</g>
</g>
<!-- Node13&#45;&gt;Node21 -->
<g id="edge121" class="edge">
<title>Node13&#45;&gt;Node21</title>
<path fill="none" stroke="midnightblue" d="M2484.74,-601.81C2579.97,-600 2747.92,-591.57 2887.06,-557 3284.37,-458.28 3507.77,-531.14 3731.06,-188 3766.01,-134.29 3731.74,-81.75 3673.06,-56 3604.73,-26.01 3377.42,-15.13 3291.94,-12.04"/>
<polygon fill="midnightblue" stroke="midnightblue" points="3291.89,-8.53 3281.77,-11.68 3291.64,-15.53 3291.89,-8.53"/>
</g>
<!-- Node41 -->
<g id="node11" class="node">
<title>Node41</title>
<g id="a_node11"><a xlink:href="SmallVector_8h.html" target="_top" xlink:title=" ">
<polygon fill="none" stroke="red" points="1249.56,-56.5 1249.56,-75.5 1380.56,-75.5 1380.56,-56.5 1249.56,-56.5"/>
<text text-anchor="middle" x="1315.06" y="-63.5" font-family="Helvetica,sans-Serif" font-size="10.00">llvm/ADT/SmallVector.h</text>
</a>
</g>
</g>
<!-- Node13&#45;&gt;Node41 -->
<g id="edge19" class="edge">
<title>Node13&#45;&gt;Node41</title>
<path fill="none" stroke="midnightblue" d="M2333.46,-600.69C2009.69,-594.33 751.06,-561.5 635.06,-434 599.71,-395.15 442.93,-445.62 640.06,-224 676.92,-182.56 832.81,-199.57 887.06,-188 1034.92,-156.47 1206.96,-102.39 1279.71,-78.7"/>
<polygon fill="midnightblue" stroke="midnightblue" points="1280.88,-82 1289.3,-75.56 1278.71,-75.34 1280.88,-82"/>
</g>
<!-- Node43 -->
<g id="node12" class="node">
<title>Node43</title>
<g id="a_node12"><a xlink:title=" ">
<polygon fill="none" stroke="#bfbfbf" points="1286.06,-0.5 1286.06,-19.5 1344.06,-19.5 1344.06,-0.5 1286.06,-0.5"/>
<text text-anchor="middle" x="1315.06" y="-7.5" font-family="Helvetica,sans-Serif" font-size="10.00">memory</text>
</a>
</g>
</g>
<!-- Node13&#45;&gt;Node43 -->
<g id="edge120" class="edge">
<title>Node13&#45;&gt;Node43</title>
<path fill="none" stroke="midnightblue" d="M2333.34,-601.79C2059.74,-600.72 1131.63,-594.35 1004.06,-557 978.24,-549.44 977.42,-534.97 952.06,-526 780.9,-465.45 657.08,-583.49 554.06,-434 452.83,-287.11 524.16,-124.06 689.06,-56 795.87,-11.91 1155.4,-9.99 1275.57,-10.63"/>
<polygon fill="midnightblue" stroke="midnightblue" points="1275.76,-14.13 1285.78,-10.69 1275.8,-7.13 1275.76,-14.13"/>
</g>
<!-- Node44 -->
<g id="node13" class="node">
<title>Node44</title>
<g id="a_node13"><a xlink:href="Dwarf_8h.html" target="_top" xlink:title=" ">
<polygon fill="none" stroke="red" points="321.06,-112.5 321.06,-131.5 469.06,-131.5 469.06,-112.5 321.06,-112.5"/>
<text text-anchor="middle" x="395.06" y="-119.5" font-family="Helvetica,sans-Serif" font-size="10.00">llvm/BinaryFormat/Dwarf.h</text>
</a>
</g>
</g>
<!-- Node13&#45;&gt;Node44 -->
<g id="edge20" class="edge">
<title>Node13&#45;&gt;Node44</title>
<path fill="none" stroke="midnightblue" d="M2333.44,-602.02C2054.58,-601.76 1093.13,-597.87 962.06,-557 937.81,-549.44 938.12,-534.11 914.06,-526 715.95,-459.24 639.26,-567.39 445.06,-490 378.55,-463.5 358.12,-436.52 341.06,-367 319.97,-281.1 304.86,-247.78 343.06,-168 349.02,-155.55 360.2,-145.17 370.68,-137.52"/>
<polygon fill="midnightblue" stroke="midnightblue" points="372.86,-140.27 379.18,-131.76 368.93,-134.47 372.86,-140.27"/>
</g>
<!-- Node32 -->
<g id="node14" class="node">
<title>Node32</title>
<g id="a_node14"><a xlink:href="Support_2ErrorHandling_8h.html" target="_top" xlink:title=" ">
<polygon fill="none" stroke="black" points="229.06,-56.5 229.06,-75.5 387.06,-75.5 387.06,-56.5 229.06,-56.5"/>
<text text-anchor="middle" x="308.06" y="-63.5" font-family="Helvetica,sans-Serif" font-size="10.00">llvm/Support/ErrorHandling.h</text>
</a>
</g>
</g>
<!-- Node13&#45;&gt;Node32 -->
<g id="edge118" class="edge">
<title>Node13&#45;&gt;Node32</title>
<path fill="none" stroke="midnightblue" d="M2333.36,-601.18C2038.57,-597.79 980.3,-583.82 914.06,-557 895.1,-549.33 898.92,-533.89 880.06,-526 810.25,-496.81 252.12,-544.9 200.06,-490 85.97,-369.71 245.7,-146.15 294.61,-83.63"/>
<polygon fill="midnightblue" stroke="midnightblue" points="297.5,-85.61 300.98,-75.6 292.02,-81.26 297.5,-85.61"/>
</g>
<!-- Node71 -->
<g id="node15" class="node">
<title>Node71</title>
<g id="a_node15"><a xlink:href="DwarfStringPoolEntry_8h.html" target="_top" xlink:title=" ">
<polygon fill="none" stroke="red" points="2437.06,-526.5 2437.06,-556.5 2583.06,-556.5 2583.06,-526.5 2437.06,-526.5"/>
<text text-anchor="start" x="2445.06" y="-544.5" font-family="Helvetica,sans-Serif" font-size="10.00">llvm/CodeGen/DwarfString</text>
<text text-anchor="middle" x="2510.06" y="-533.5" font-family="Helvetica,sans-Serif" font-size="10.00">PoolEntry.h</text>
</a>
</g>
</g>
<!-- Node13&#45;&gt;Node71 -->
<g id="edge25" class="edge">
<title>Node13&#45;&gt;Node71</title>
<path fill="none" stroke="midnightblue" d="M2423.53,-593.48C2437.46,-585.27 2459.03,-572.56 2477.15,-561.88"/>
<polygon fill="midnightblue" stroke="midnightblue" points="2479.41,-564.61 2486.25,-556.52 2475.86,-558.58 2479.41,-564.61"/>
</g>
<!-- Node78 -->
<g id="node16" class="node">
<title>Node78</title>
<g id="a_node16"><a xlink:href="MachineFunctionPass_8h.html" target="_top" xlink:title=" ">
<polygon fill="none" stroke="black" points="2601.56,-526.5 2601.56,-556.5 2772.56,-556.5 2772.56,-526.5 2601.56,-526.5"/>
<text text-anchor="start" x="2609.56" y="-544.5" font-family="Helvetica,sans-Serif" font-size="10.00">llvm/CodeGen/MachineFunction</text>
<text text-anchor="middle" x="2687.06" y="-533.5" font-family="Helvetica,sans-Serif" font-size="10.00">Pass.h</text>
</a>
</g>
</g>
<!-- Node13&#45;&gt;Node78 -->
<g id="edge26" class="edge">
<title>Node13&#45;&gt;Node78</title>
<path fill="none" stroke="midnightblue" d="M2448.89,-593.48C2491.2,-584.42 2559.1,-569.89 2611.59,-558.65"/>
<polygon fill="midnightblue" stroke="midnightblue" points="2612.49,-562.04 2621.54,-556.52 2611.03,-555.19 2612.49,-562.04"/>
</g>
<!-- Node19 -->
<g id="node23" class="node">
<title>Node19</title>
<g id="a_node23"><a xlink:title=" ">
<polygon fill="none" stroke="#bfbfbf" points="1904.06,-56.5 1904.06,-75.5 1954.06,-75.5 1954.06,-56.5 1904.06,-56.5"/>
<text text-anchor="middle" x="1929.06" y="-63.5" font-family="Helvetica,sans-Serif" font-size="10.00">cstdint</text>
</a>
</g>
</g>
<!-- Node13&#45;&gt;Node19 -->
<g id="edge119" class="edge">
<title>Node13&#45;&gt;Node19</title>
<path fill="none" stroke="midnightblue" d="M2409.06,-593.49C2409.06,-573.74 2409.06,-523.22 2409.06,-481 2409.06,-481 2409.06,-481 2409.06,-300 2409.06,-257.51 2387.02,-246.62 2351.06,-224 2284.21,-181.95 2251.79,-213.51 2177.06,-188 2090.44,-158.43 1994.98,-105.6 1952.12,-80.7"/>
<polygon fill="midnightblue" stroke="midnightblue" points="1953.72,-77.59 1943.33,-75.55 1950.19,-83.63 1953.72,-77.59"/>
</g>
<!-- Node141 -->
<g id="node34" class="node">
<title>Node141</title>
<g id="a_node34"><a xlink:href="InlineAsm_8h.html" target="_top" xlink:title=" ">
<polygon fill="none" stroke="red" points="2587.06,-168.5 2587.06,-187.5 2699.06,-187.5 2699.06,-168.5 2587.06,-168.5"/>
<text text-anchor="middle" x="2643.06" y="-175.5" font-family="Helvetica,sans-Serif" font-size="10.00">llvm/IR/InlineAsm.h</text>
</a>
</g>
</g>
<!-- Node13&#45;&gt;Node141 -->
<g id="edge117" class="edge">
<title>Node13&#45;&gt;Node141</title>
<path fill="none" stroke="midnightblue" d="M2484.73,-598.63C2595.95,-592.94 2792.95,-579.76 2816.06,-557 2879.56,-494.44 2841.06,-447.14 2841.06,-358 2841.06,-358 2841.06,-358 2841.06,-300 2841.06,-235.16 2762.8,-204.03 2704.69,-189.84"/>
<polygon fill="midnightblue" stroke="midnightblue" points="2705.35,-186.4 2694.82,-187.55 2703.77,-193.22 2705.35,-186.4"/>
</g>
<!-- Node14&#45;&gt;Node12 -->
<g id="edge18" class="edge">
<title>Node14&#45;&gt;Node12</title>
<path fill="none" stroke="midnightblue" d="M3167.56,-171.43C3152.04,-170.17 3135.45,-168.93 3120.06,-168 2715.6,-143.47 2613.01,-163.85 2209.06,-132 2195.16,-130.9 2179.88,-129.19 2166.69,-127.56"/>
<polygon fill="midnightblue" stroke="midnightblue" points="2166.99,-124.07 2156.63,-126.27 2166.11,-131.01 2166.99,-124.07"/>
</g>
<!-- Node15 -->
<g id="node8" class="node">
<title>Node15</title>
<g id="a_node8"><a xlink:href="DenseMap_8h.html" target="_top" xlink:title=" ">
<polygon fill="none" stroke="red" points="3181.56,-112.5 3181.56,-131.5 3306.56,-131.5 3306.56,-112.5 3181.56,-112.5"/>
<text text-anchor="middle" x="3244.06" y="-119.5" font-family="Helvetica,sans-Serif" font-size="10.00">llvm/ADT/DenseMap.h</text>
</a>
</g>
</g>
<!-- Node14&#45;&gt;Node15 -->
<g id="edge7" class="edge">
<title>Node14&#45;&gt;Node15</title>
<path fill="none" stroke="midnightblue" d="M3232.37,-168.08C3234.22,-160.93 3236.89,-150.64 3239.21,-141.69"/>
<polygon fill="midnightblue" stroke="midnightblue" points="3242.67,-142.31 3241.79,-131.75 3235.89,-140.55 3242.67,-142.31"/>
</g>
<!-- Node17 -->
<g id="node9" class="node">
<title>Node17</title>
<g id="a_node9"><a xlink:title=" ">
<polygon fill="none" stroke="#bfbfbf" points="2408.06,-0.5 2408.06,-19.5 2460.06,-19.5 2460.06,-0.5 2408.06,-0.5"/>
<text text-anchor="middle" x="2434.06" y="-7.5" font-family="Helvetica,sans-Serif" font-size="10.00">cassert</text>
</a>
</g>
</g>
<!-- Node14&#45;&gt;Node17 -->
<g id="edge16" class="edge">
<title>Node14&#45;&gt;Node17</title>
<path fill="none" stroke="midnightblue" d="M3216.46,-168.4C3203.03,-159.71 3182.07,-145.66 3165.06,-132 3126.31,-100.89 3128.66,-75.73 3083.06,-56 3026.79,-31.65 2599.03,-16.23 2470.48,-12.11"/>
<polygon fill="midnightblue" stroke="midnightblue" points="2470.47,-8.61 2460.36,-11.79 2470.25,-15.61 2470.47,-8.61"/>
</g>
<!-- Node14&#45;&gt;Node21 -->
<g id="edge17" class="edge">
<title>Node14&#45;&gt;Node21</title>
<path fill="none" stroke="midnightblue" d="M3212.61,-168.43C3191.4,-156.78 3159.95,-134.76 3173.06,-112 3188.96,-84.39 3214.55,-100.39 3235.06,-76 3246.3,-62.63 3252.51,-43.52 3255.78,-29.48"/>
<polygon fill="midnightblue" stroke="midnightblue" points="3259.24,-30.01 3257.81,-19.51 3252.38,-28.61 3259.24,-30.01"/>
</g>
<!-- Node14&#45;&gt;Node41 -->
<g id="edge11" class="edge">
<title>Node14&#45;&gt;Node41</title>
<path fill="none" stroke="midnightblue" d="M3167.55,-171.51C3152.04,-170.25 3135.45,-168.99 3120.06,-168 2780.83,-146.14 2694.71,-161.5 2356.06,-132 2285.98,-125.9 2269.12,-118.24 2199.06,-112 1900.55,-85.43 1543.83,-73.23 1390.83,-68.92"/>
<polygon fill="midnightblue" stroke="midnightblue" points="1390.7,-65.42 1380.61,-68.64 1390.51,-72.41 1390.7,-65.42"/>
</g>
<!-- Node15&#45;&gt;Node9 -->
<g id="edge8" class="edge">
<title>Node15&#45;&gt;Node9</title>
<path fill="none" stroke="midnightblue" d="M3181.27,-116.29C3019.77,-104.36 2576.7,-72.67 2207.06,-56 1608.21,-28.99 885.12,-15.92 650.54,-12.17"/>
<polygon fill="midnightblue" stroke="midnightblue" points="650.46,-8.67 640.4,-12.01 650.35,-15.67 650.46,-8.67"/>
</g>
<!-- Node15&#45;&gt;Node17 -->
<g id="edge9" class="edge">
<title>Node15&#45;&gt;Node17</title>
<path fill="none" stroke="midnightblue" d="M3229.45,-112.28C3202.01,-96.07 3143.48,-62.35 3121.06,-56 2996.87,-20.86 2593.32,-12.98 2470.11,-11.38"/>
<polygon fill="midnightblue" stroke="midnightblue" points="2470.11,-7.88 2460.07,-11.25 2470.02,-14.88 2470.11,-7.88"/>
</g>
<!-- Node15&#45;&gt;Node21 -->
<g id="edge10" class="edge">
<title>Node15&#45;&gt;Node21</title>
<path fill="none" stroke="midnightblue" d="M3251.73,-112.46C3258.84,-103.93 3268.91,-90.09 3273.06,-76 3277.69,-60.27 3272.87,-41.99 3267.66,-28.83"/>
<polygon fill="midnightblue" stroke="midnightblue" points="3270.8,-27.27 3263.58,-19.51 3264.39,-30.08 3270.8,-27.27"/>
</g>
<!-- Node41&#45;&gt;Node9 -->
<g id="edge12" class="edge">
<title>Node41&#45;&gt;Node9</title>
<path fill="none" stroke="midnightblue" d="M1249.16,-57.35C1244.39,-56.87 1239.65,-56.41 1235.06,-56 1023.87,-36.95 774.12,-22.03 650.45,-15.15"/>
<polygon fill="midnightblue" stroke="midnightblue" points="650.5,-11.65 640.32,-14.59 650.11,-18.64 650.5,-11.65"/>
</g>
<!-- Node41&#45;&gt;Node17 -->
<g id="edge13" class="edge">
<title>Node41&#45;&gt;Node17</title>
<path fill="none" stroke="midnightblue" d="M1380.94,-57.22C1385.72,-56.77 1390.46,-56.36 1395.06,-56 1787.2,-25.49 2264.34,-14.32 2397.84,-11.67"/>
<polygon fill="midnightblue" stroke="midnightblue" points="2397.99,-15.17 2407.92,-11.47 2397.85,-8.17 2397.99,-15.17"/>
</g>
<!-- Node41&#45;&gt;Node21 -->
<g id="edge15" class="edge">
<title>Node41&#45;&gt;Node21</title>
<path fill="none" stroke="midnightblue" d="M1380.57,-63.18C1690.18,-54.58 3001.04,-18.17 3226.1,-11.92"/>
<polygon fill="midnightblue" stroke="midnightblue" points="3226.38,-15.41 3236.28,-11.63 3226.18,-8.41 3226.38,-15.41"/>
</g>
<!-- Node41&#45;&gt;Node43 -->
<g id="edge14" class="edge">
<title>Node41&#45;&gt;Node43</title>
<path fill="none" stroke="midnightblue" d="M1315.06,-56.08C1315.06,-49.01 1315.06,-38.86 1315.06,-29.99"/>
<polygon fill="midnightblue" stroke="midnightblue" points="1318.56,-29.75 1315.06,-19.75 1311.56,-29.75 1318.56,-29.75"/>
</g>
<!-- Node44&#45;&gt;Node9 -->
<g id="edge21" class="edge">
<title>Node44&#45;&gt;Node9</title>
<path fill="none" stroke="midnightblue" d="M405.48,-112.37C421.54,-99.3 453.59,-74.07 483.06,-56 502.79,-43.91 526.2,-32.28 544.2,-23.87"/>
<polygon fill="midnightblue" stroke="midnightblue" points="545.96,-26.91 553.58,-19.55 543.03,-20.56 545.96,-26.91"/>
</g>
<!-- Node44&#45;&gt;Node32 -->
<g id="edge22" class="edge">
<title>Node44&#45;&gt;Node32</title>
<path fill="none" stroke="midnightblue" d="M381.08,-112.32C367.51,-103.9 346.68,-90.97 330.73,-81.07"/>
<polygon fill="midnightblue" stroke="midnightblue" points="332.34,-77.95 322,-75.65 328.65,-83.9 332.34,-77.95"/>
</g>
<!-- Node32&#45;&gt;Node9 -->
<g id="edge23" class="edge">
<title>Node32&#45;&gt;Node9</title>
<path fill="none" stroke="midnightblue" d="M350.05,-56.44C396.47,-46.98 471.29,-31.74 521.3,-21.55"/>
<polygon fill="midnightblue" stroke="midnightblue" points="522.16,-24.94 531.26,-19.52 520.77,-18.08 522.16,-24.94"/>
</g>
<!-- Node78&#45;&gt;Node79 -->
<g id="edge27" class="edge">
<title>Node78&#45;&gt;Node79</title>
<path fill="none" stroke="midnightblue" d="M2601.4,-527.03C2598.25,-526.66 2595.13,-526.32 2592.06,-526 2324.25,-498.49 2006.8,-487.3 1848.42,-483.16"/>
<polygon fill="midnightblue" stroke="midnightblue" points="1848.3,-479.66 1838.22,-482.9 1848.12,-486.66 1848.3,-479.66"/>
</g>
<!-- Node163 -->
<g id="node39" class="node">
<title>Node163</title>
<g id="a_node39"><a xlink:href="Pass_8h.html" target="_top" xlink:title=" ">
<polygon fill="none" stroke="red" points="3539.06,-168.5 3539.06,-187.5 3611.06,-187.5 3611.06,-168.5 3539.06,-168.5"/>
<text text-anchor="middle" x="3575.06" y="-175.5" font-family="Helvetica,sans-Serif" font-size="10.00">llvm/Pass.h</text>
</a>
</g>
</g>
<!-- Node78&#45;&gt;Node163 -->
<g id="edge116" class="edge">
<title>Node78&#45;&gt;Node163</title>
<path fill="none" stroke="midnightblue" d="M2721.6,-526.44C2864.6,-468.22 3409.14,-246.54 3544.47,-191.45"/>
<polygon fill="midnightblue" stroke="midnightblue" points="3545.91,-194.65 3553.85,-187.63 3543.27,-188.16 3545.91,-194.65"/>
</g>
<!-- Node79&#45;&gt;Node9 -->
<g id="edge103" class="edge">
<title>Node79&#45;&gt;Node9</title>
<path fill="none" stroke="midnightblue" d="M1657.87,-478.32C1405.28,-476 702.84,-466.67 604.06,-434 367.81,-355.87 22.43,-238.98 191.06,-56 211.31,-34.02 390.08,-20.77 495.73,-14.8"/>
<polygon fill="midnightblue" stroke="midnightblue" points="496.25,-18.27 506.04,-14.22 495.86,-11.28 496.25,-18.27"/>
</g>
<!-- Node79&#45;&gt;Node12 -->
<g id="edge115" class="edge">
<title>Node79&#45;&gt;Node12</title>
<path fill="none" stroke="midnightblue" d="M1838.21,-476.54C1964.86,-472.14 2182.8,-460.75 2207.06,-434 2249.75,-386.92 2221.84,-352.81 2207.06,-291 2199.29,-258.52 2192.66,-251.03 2173.06,-224 2159.77,-205.68 2146.35,-208.63 2137.06,-188 2130.52,-173.5 2129.96,-155.32 2130.78,-141.87"/>
<polygon fill="midnightblue" stroke="midnightblue" points="2134.27,-142.16 2131.69,-131.88 2127.3,-141.52 2134.27,-142.16"/>
</g>
<!-- Node79&#45;&gt;Node15 -->
<g id="edge53" class="edge">
<title>Node79&#45;&gt;Node15</title>
<path fill="none" stroke="midnightblue" d="M1838.27,-478.18C2054.12,-475.7 2587.98,-466.34 2662.06,-434 2712.75,-411.87 2702.11,-372.76 2751.06,-347 2774.41,-334.71 3191.37,-261.05 3217.06,-255 3267.75,-243.06 3278.97,-234.12 3330.06,-224 3393.76,-211.38 3577.06,-236.67 3620.06,-188 3661.45,-141.15 3437.41,-128.05 3316.84,-124.4"/>
<polygon fill="midnightblue" stroke="midnightblue" points="3316.67,-120.89 3306.57,-124.1 3316.47,-127.89 3316.67,-120.89"/>
</g>
<!-- Node79&#45;&gt;Node17 -->
<g id="edge111" class="edge">
<title>Node79&#45;&gt;Node17</title>
<path fill="none" stroke="midnightblue" d="M1838.38,-475.67C1943.08,-470.79 2120.53,-459.35 2271.06,-434 2526.49,-390.98 2582.02,-341.6 2836.06,-291 2944.43,-269.42 2990.87,-317.4 3082.06,-255 3110.31,-235.67 3111.32,-221.1 3120.06,-188 3145.55,-91.4 2988.34,-66.26 2960.06,-56 2869.67,-23.21 2574.09,-13.94 2470.4,-11.66"/>
<polygon fill="midnightblue" stroke="midnightblue" points="2470.2,-8.16 2460.13,-11.45 2470.06,-15.16 2470.2,-8.16"/>
</g>
<!-- Node79&#45;&gt;Node21 -->
<g id="edge114" class="edge">
<title>Node79&#45;&gt;Node21</title>
<path fill="none" stroke="midnightblue" d="M1838.37,-477.25C2054.85,-472.71 2598.72,-459.11 2779.06,-434 3120.19,-386.5 3203.67,-355.65 3533.06,-255 3613.9,-230.3 3658.15,-253.92 3711.06,-188 3732.32,-161.51 3735.25,-141.86 3719.06,-112 3697.32,-71.9 3675.93,-71.57 3633.06,-56 3570.53,-33.29 3371.21,-18.26 3291.98,-13.04"/>
<polygon fill="midnightblue" stroke="midnightblue" points="3291.83,-9.52 3281.63,-12.37 3291.38,-16.51 3291.83,-9.52"/>
</g>
<!-- Node79&#45;&gt;Node41 -->
<g id="edge55" class="edge">
<title>Node79&#45;&gt;Node41</title>
<path fill="none" stroke="midnightblue" d="M1657.84,-475.66C1509.75,-469.66 1221.62,-455.6 1122.06,-434 898.74,-385.54 770.52,-442.62 640.06,-255 632.19,-243.69 631.16,-234.52 640.06,-224 702.03,-150.67 763.16,-221.7 853.06,-188 913.58,-165.31 916.14,-133.62 977.06,-112 1023.9,-95.37 1154.72,-81.2 1239.19,-73.41"/>
<polygon fill="midnightblue" stroke="midnightblue" points="1239.62,-76.89 1249.26,-72.49 1238.98,-69.92 1239.62,-76.89"/>
</g>
<!-- Node79&#45;&gt;Node43 -->
<g id="edge113" class="edge">
<title>Node79&#45;&gt;Node43</title>
<path fill="none" stroke="midnightblue" d="M1657.63,-478.58C1398.88,-476.95 671.67,-469.26 635.06,-434 510.29,-313.84 571.17,-125.01 730.06,-56 828.47,-13.26 1161.09,-10.39 1275.79,-10.71"/>
<polygon fill="midnightblue" stroke="midnightblue" points="1275.87,-14.21 1285.88,-10.75 1275.89,-7.21 1275.87,-14.21"/>
</g>
<!-- Node46 -->
<g id="node18" class="node">
<title>Node46</title>
<g id="a_node18"><a xlink:href="ArrayRef_8h.html" target="_top" xlink:title=" ">
<polygon fill="none" stroke="red" points="1437.06,-168.5 1437.06,-187.5 1553.06,-187.5 1553.06,-168.5 1437.06,-168.5"/>
<text text-anchor="middle" x="1495.06" y="-175.5" font-family="Helvetica,sans-Serif" font-size="10.00">llvm/ADT/ArrayRef.h</text>
</a>
</g>
</g>
<!-- Node79&#45;&gt;Node46 -->
<g id="edge28" class="edge">
<title>Node79&#45;&gt;Node46</title>
<path fill="none" stroke="midnightblue" d="M1657.92,-472.6C1590.86,-466.27 1506.27,-454.49 1478.06,-434 1421.72,-393.09 1392.61,-357.25 1414.06,-291 1426.71,-251.9 1458.69,-214.99 1478.47,-194.84"/>
<polygon fill="midnightblue" stroke="midnightblue" points="1481,-197.26 1485.63,-187.73 1476.07,-192.29 1481,-197.26"/>
</g>
<!-- Node58 -->
<g id="node22" class="node">
<title>Node58</title>
<g id="a_node22"><a xlink:href="iterator_8h.html" target="_top" xlink:title=" ">
<polygon fill="none" stroke="red" points="3401.56,-56.5 3401.56,-75.5 3510.56,-75.5 3510.56,-56.5 3401.56,-56.5"/>
<text text-anchor="middle" x="3456.06" y="-63.5" font-family="Helvetica,sans-Serif" font-size="10.00">llvm/ADT/iterator.h</text>
</a>
</g>
</g>
<!-- Node79&#45;&gt;Node58 -->
<g id="edge58" class="edge">
<title>Node79&#45;&gt;Node58</title>
<path fill="none" stroke="midnightblue" d="M1838.2,-477.48C2041.79,-473.59 2532.06,-461.59 2695.06,-434 2915.8,-396.64 2961.39,-347.37 3178.06,-291 3279.02,-264.73 3570.89,-269.46 3636.06,-188 3678.85,-134.51 3569.94,-95.94 3503.31,-78.1"/>
<polygon fill="midnightblue" stroke="midnightblue" points="3503.97,-74.65 3493.41,-75.51 3502.2,-81.43 3503.97,-74.65"/>
</g>
<!-- Node79&#45;&gt;Node19 -->
<g id="edge112" class="edge">
<title>Node79&#45;&gt;Node19</title>
<path fill="none" stroke="midnightblue" d="M1838.07,-470.63C1882.43,-464.28 1935.95,-453.21 1981.06,-434 2078.96,-392.32 2116.36,-358.74 2140.06,-255 2143.13,-241.57 2148.48,-234.9 2140.06,-224 2101.3,-173.84 2052.84,-225.93 2002.06,-188 1966.47,-161.42 1944.71,-111.91 1935.01,-85.2"/>
<polygon fill="midnightblue" stroke="midnightblue" points="1938.26,-83.89 1931.69,-75.58 1931.65,-86.18 1938.26,-83.89"/>
</g>
<!-- Node80 -->
<g id="node24" class="node">
<title>Node80</title>
<g id="a_node24"><a xlink:href="BitVector_8h.html" target="_top" xlink:title=" ">
<polygon fill="none" stroke="red" points="2225.56,-230 2225.56,-249 2342.56,-249 2342.56,-230 2225.56,-230"/>
<text text-anchor="middle" x="2284.06" y="-237" font-family="Helvetica,sans-Serif" font-size="10.00">llvm/ADT/BitVector.h</text>
</a>
</g>
</g>
<!-- Node79&#45;&gt;Node80 -->
<g id="edge48" class="edge">
<title>Node79&#45;&gt;Node80</title>
<path fill="none" stroke="midnightblue" d="M1838.22,-476.59C1973.27,-472.14 2215.49,-460.52 2245.06,-434 2295.44,-388.81 2291.3,-298.17 2286.77,-259.11"/>
<polygon fill="midnightblue" stroke="midnightblue" points="2290.24,-258.61 2285.47,-249.15 2283.29,-259.52 2290.24,-258.61"/>
</g>
<!-- Node81 -->
<g id="node25" class="node">
<title>Node81</title>
<g id="a_node25"><a xlink:href="GraphTraits_8h.html" target="_top" xlink:title=" ">
<polygon fill="none" stroke="red" points="1461.56,-347.5 1461.56,-366.5 1590.56,-366.5 1590.56,-347.5 1461.56,-347.5"/>
<text text-anchor="middle" x="1526.06" y="-354.5" font-family="Helvetica,sans-Serif" font-size="10.00">llvm/ADT/GraphTraits.h</text>
</a>
</g>
</g>
<!-- Node79&#45;&gt;Node81 -->
<g id="edge54" class="edge">
<title>Node79&#45;&gt;Node81</title>
<path fill="none" stroke="midnightblue" d="M1705.63,-470.47C1676.78,-463.47 1638.47,-451.79 1608.06,-434 1580.81,-418.06 1555.08,-391.7 1539.95,-374.59"/>
<polygon fill="midnightblue" stroke="midnightblue" points="1542.23,-371.87 1533.04,-366.59 1536.93,-376.45 1542.23,-371.87"/>
</g>
<!-- Node82 -->
<g id="node26" class="node">
<title>Node82</title>
<g id="a_node26"><a xlink:href="ilist_8h.html" target="_top" xlink:title=" ">
<polygon fill="none" stroke="red" points="1423.06,-291.5 1423.06,-310.5 1515.06,-310.5 1515.06,-291.5 1423.06,-291.5"/>
<text text-anchor="middle" x="1469.06" y="-298.5" font-family="Helvetica,sans-Serif" font-size="10.00">llvm/ADT/ilist.h</text>
</a>
</g>
</g>
<!-- Node79&#45;&gt;Node82 -->
<g id="edge56" class="edge">
<title>Node79&#45;&gt;Node82</title>
<path fill="none" stroke="midnightblue" d="M1657.82,-473.95C1586.63,-464.43 1492.78,-438.18 1452.06,-367 1443.57,-352.17 1450.36,-333.04 1457.72,-319.38"/>
<polygon fill="midnightblue" stroke="midnightblue" points="1460.88,-320.92 1462.97,-310.53 1454.86,-317.34 1460.88,-320.92"/>
</g>
<!-- Node89 -->
<g id="node27" class="node">
<title>Node89</title>
<g id="a_node27"><a xlink:href="EHPersonalities_8h.html" target="_top" xlink:title=" ">
<polygon fill="none" stroke="red" points="2482.56,-409 2482.56,-428 2653.56,-428 2653.56,-409 2482.56,-409"/>
<text text-anchor="middle" x="2568.06" y="-416" font-family="Helvetica,sans-Serif" font-size="10.00">llvm/Analysis/EHPersonalities.h</text>
</a>
</g>
</g>
<!-- Node79&#45;&gt;Node89 -->
<g id="edge59" class="edge">
<title>Node79&#45;&gt;Node89</title>
<path fill="none" stroke="midnightblue" d="M1838.27,-472.87C1961.72,-464.43 2190.2,-448.6 2385.06,-434 2413.36,-431.88 2444.12,-429.48 2472.2,-427.25"/>
<polygon fill="midnightblue" stroke="midnightblue" points="2472.73,-430.72 2482.42,-426.44 2472.17,-423.74 2472.73,-430.72"/>
</g>
<!-- Node91 -->
<g id="node28" class="node">
<title>Node91</title>
<g id="a_node28"><a xlink:href="MachineBasicBlock_8h.html" target="_top" xlink:title=" ">
<polygon fill="none" stroke="red" points="1617.06,-403.5 1617.06,-433.5 1773.06,-433.5 1773.06,-403.5 1617.06,-403.5"/>
<text text-anchor="start" x="1625.06" y="-421.5" font-family="Helvetica,sans-Serif" font-size="10.00">llvm/CodeGen/MachineBasic</text>
<text text-anchor="middle" x="1695.06" y="-410.5" font-family="Helvetica,sans-Serif" font-size="10.00">Block.h</text>
</a>
</g>
</g>
<!-- Node79&#45;&gt;Node91 -->
<g id="edge61" class="edge">
<title>Node79&#45;&gt;Node91</title>
<path fill="none" stroke="midnightblue" d="M1740.46,-470.48C1733.69,-462.87 1723.47,-451.4 1714.44,-441.26"/>
<polygon fill="midnightblue" stroke="midnightblue" points="1716.81,-438.66 1707.55,-433.52 1711.59,-443.32 1716.81,-438.66"/>
</g>
<!-- Node94 -->
<g id="node29" class="node">
<title>Node94</title>
<g id="a_node29"><a xlink:href="MachineInstr_8h.html" target="_top" xlink:title=" ">
<polygon fill="none" stroke="red" points="1723.06,-347.5 1723.06,-366.5 1883.06,-366.5 1883.06,-347.5 1723.06,-347.5"/>
<text text-anchor="middle" x="1803.06" y="-354.5" font-family="Helvetica,sans-Serif" font-size="10.00">llvm/CodeGen/MachineInstr.h</text>
</a>
</g>
</g>
<!-- Node79&#45;&gt;Node94 -->
<g id="edge98" class="edge">
<title>Node79&#45;&gt;Node94</title>
<path fill="none" stroke="midnightblue" d="M1756.18,-470.36C1763.87,-461.76 1775.21,-447.87 1782.06,-434 1791.12,-415.63 1796.77,-392.76 1799.89,-376.93"/>
<polygon fill="midnightblue" stroke="midnightblue" points="1803.38,-377.28 1801.73,-366.82 1796.5,-376.03 1803.38,-377.28"/>
</g>
<!-- Node100 -->
<g id="node30" class="node">
<title>Node100</title>
<g id="a_node30"><a xlink:href="MachineMemOperand_8h.html" target="_top" xlink:title=" ">
<polygon fill="none" stroke="red" points="1883.56,-291.5 1883.56,-310.5 2088.56,-310.5 2088.56,-291.5 1883.56,-291.5"/>
<text text-anchor="middle" x="1986.06" y="-298.5" font-family="Helvetica,sans-Serif" font-size="10.00">llvm/CodeGen/MachineMemOperand.h</text>
</a>
</g>
</g>
<!-- Node79&#45;&gt;Node100 -->
<g id="edge99" class="edge">
<title>Node79&#45;&gt;Node100</title>
<path fill="none" stroke="midnightblue" d="M1764.61,-470.38C1797.07,-453.09 1870.68,-411.94 1925.06,-367 1943.04,-352.14 1960.99,-332.25 1972.72,-318.4"/>
<polygon fill="midnightblue" stroke="midnightblue" points="1975.45,-320.58 1979.16,-310.66 1970.07,-316.11 1975.45,-320.58"/>
</g>
<!-- Node128 -->
<g id="node33" class="node">
<title>Node128</title>
<g id="a_node33"><a xlink:href="AtomicOrdering_8h.html" target="_top" xlink:title=" ">
<polygon fill="none" stroke="red" points="1964.56,-230 1964.56,-249 2131.56,-249 2131.56,-230 1964.56,-230"/>
<text text-anchor="middle" x="2048.06" y="-237" font-family="Helvetica,sans-Serif" font-size="10.00">llvm/Support/AtomicOrdering.h</text>
</a>
</g>
</g>
<!-- Node79&#45;&gt;Node128 -->
<g id="edge102" class="edge">
<title>Node79&#45;&gt;Node128</title>
<path fill="none" stroke="midnightblue" d="M1807.71,-470.46C1890.08,-455.05 2035.45,-414.02 2097.06,-311 2108.96,-291.1 2088.31,-269.36 2070.27,-255.35"/>
<polygon fill="midnightblue" stroke="midnightblue" points="2071.91,-252.22 2061.78,-249.15 2067.78,-257.87 2071.91,-252.22"/>
</g>
<!-- Node150 -->
<g id="node35" class="node">
<title>Node150</title>
<g id="a_node35"><a xlink:href="ArrayRecycler_8h.html" target="_top" xlink:title=" ">
<polygon fill="none" stroke="red" points="1209.06,-291.5 1209.06,-310.5 1367.06,-310.5 1367.06,-291.5 1209.06,-291.5"/>
<text text-anchor="middle" x="1288.06" y="-298.5" font-family="Helvetica,sans-Serif" font-size="10.00">llvm/Support/ArrayRecycler.h</text>
</a>
</g>
</g>
<!-- Node79&#45;&gt;Node150 -->
<g id="edge101" class="edge">
<title>Node79&#45;&gt;Node150</title>
<path fill="none" stroke="midnightblue" d="M1657.85,-476.24C1564.55,-471.94 1426.29,-461.08 1381.06,-434 1336.29,-407.19 1307.46,-349.58 1295.05,-320.14"/>
<polygon fill="midnightblue" stroke="midnightblue" points="1298.22,-318.63 1291.23,-310.67 1291.73,-321.25 1298.22,-318.63"/>
</g>
<!-- Node151 -->
<g id="node36" class="node">
<title>Node151</title>
<g id="a_node36"><a xlink:href="Allocator_8h.html" target="_top" xlink:title=" ">
<polygon fill="none" stroke="red" points="1285.06,-112.5 1285.06,-131.5 1419.06,-131.5 1419.06,-112.5 1285.06,-112.5"/>
<text text-anchor="middle" x="1352.06" y="-119.5" font-family="Helvetica,sans-Serif" font-size="10.00">llvm/Support/Allocator.h</text>
</a>
</g>
</g>
<!-- Node79&#45;&gt;Node151 -->
<g id="edge100" class="edge">
<title>Node79&#45;&gt;Node151</title>
<path fill="none" stroke="midnightblue" d="M1657.9,-478.17C1497.92,-474.25 1181.06,-454.31 1181.06,-358 1181.06,-358 1181.06,-358 1181.06,-238.5 1181.06,-179.72 1251.29,-148.85 1301.73,-134.25"/>
<polygon fill="midnightblue" stroke="midnightblue" points="1302.83,-137.58 1311.53,-131.54 1300.96,-130.83 1302.83,-137.58"/>
</g>
<!-- Node158 -->
<g id="node37" class="node">
<title>Node158</title>
<g id="a_node37"><a xlink:href="Recycler_8h.html" target="_top" xlink:title=" ">
<polygon fill="none" stroke="black" points="1021.06,-347.5 1021.06,-366.5 1153.06,-366.5 1153.06,-347.5 1021.06,-347.5"/>
<text text-anchor="middle" x="1087.06" y="-354.5" font-family="Helvetica,sans-Serif" font-size="10.00">llvm/Support/Recycler.h</text>
</a>
</g>
</g>
<!-- Node79&#45;&gt;Node158 -->
<g id="edge104" class="edge">
<title>Node79&#45;&gt;Node158</title>
<path fill="none" stroke="midnightblue" d="M1657.94,-479.31C1517.19,-478.58 1252.45,-471.98 1167.06,-434 1138.14,-421.14 1113.23,-393.23 1099.2,-375.05"/>
<polygon fill="midnightblue" stroke="midnightblue" points="1101.66,-372.49 1092.89,-366.56 1096.04,-376.67 1101.66,-372.49"/>
</g>
<!-- Node159 -->
<g id="node38" class="node">
<title>Node159</title>
<g id="a_node38"><a xlink:href="TargetOptions_8h.html" target="_top" xlink:title=" ">
<polygon fill="none" stroke="red" points="644.56,-409 644.56,-428 795.56,-428 795.56,-409 644.56,-409"/>
<text text-anchor="middle" x="720.06" y="-416" font-family="Helvetica,sans-Serif" font-size="10.00">llvm/Target/TargetOptions.h</text>
</a>
</g>
</g>
<!-- Node79&#45;&gt;Node159 -->
<g id="edge109" class="edge">
<title>Node79&#45;&gt;Node159</title>
<path fill="none" stroke="midnightblue" d="M1657.91,-478.02C1490.45,-475.46 1120.18,-466.32 810.06,-434 799.21,-432.87 787.68,-431.3 776.63,-429.6"/>
<polygon fill="midnightblue" stroke="midnightblue" points="777.06,-426.13 766.64,-428.02 775.97,-433.04 777.06,-426.13"/>
</g>
<!-- Node46&#45;&gt;Node9 -->
<g id="edge44" class="edge">
<title>Node46&#45;&gt;Node9</title>
<path fill="none" stroke="midnightblue" d="M1436.82,-175.51C1243.58,-170.37 633.67,-152.59 597.06,-132 570.84,-117.26 567.89,-104.75 559.06,-76 554.24,-60.33 559.08,-42.04 564.34,-28.86"/>
<polygon fill="midnightblue" stroke="midnightblue" points="567.62,-30.09 568.47,-19.53 561.22,-27.26 567.62,-30.09"/>
</g>
<!-- Node46&#45;&gt;Node12 -->
<g id="edge47" class="edge">
<title>Node46&#45;&gt;Node12</title>
<path fill="none" stroke="midnightblue" d="M1553.08,-172.09C1683.32,-161.07 1995.59,-134.64 2099.09,-125.88"/>
<polygon fill="midnightblue" stroke="midnightblue" points="2099.6,-129.34 2109.27,-125.01 2099.01,-122.37 2099.6,-129.34"/>
</g>
<!-- Node46&#45;&gt;Node17 -->
<g id="edge45" class="edge">
<title>Node46&#45;&gt;Node17</title>
<path fill="none" stroke="midnightblue" d="M1500.71,-168.49C1516.65,-145.31 1564.63,-81.14 1623.06,-56 1694.77,-25.14 2249.32,-14 2397.66,-11.55"/>
<polygon fill="midnightblue" stroke="midnightblue" points="2398.08,-15.05 2408.02,-11.38 2397.97,-8.05 2398.08,-15.05"/>
</g>
<!-- Node46&#45;&gt;Node41 -->
<g id="edge30" class="edge">
<title>Node46&#45;&gt;Node41</title>
<path fill="none" stroke="midnightblue" d="M1488.08,-168.31C1476.75,-154.7 1453.09,-128.21 1428.06,-112 1405.51,-97.4 1377.48,-86.2 1354.98,-78.63"/>
<polygon fill="midnightblue" stroke="midnightblue" points="1355.98,-75.27 1345.38,-75.5 1353.81,-81.93 1355.98,-75.27"/>
</g>
<!-- Node46&#45;&gt;Node43 -->
<g id="edge46" class="edge">
<title>Node46&#45;&gt;Node43</title>
<path fill="none" stroke="midnightblue" d="M1436.82,-172.68C1329.78,-163.31 1108.93,-136.87 1068.06,-76 1063.1,-68.62 1062.36,-62.83 1068.06,-56 1093.99,-24.91 1212.33,-15.25 1275.33,-12.28"/>
<polygon fill="midnightblue" stroke="midnightblue" points="1275.84,-15.76 1285.68,-11.83 1275.53,-8.77 1275.84,-15.76"/>
</g>
<!-- Node51 -->
<g id="node19" class="node">
<title>Node51</title>
<g id="a_node19"><a xlink:href="None_8h.html" target="_top" xlink:title=" ">
<polygon fill="none" stroke="black" points="15.56,-0.5 15.56,-19.5 114.56,-19.5 114.56,-0.5 15.56,-0.5"/>
<text text-anchor="middle" x="65.06" y="-7.5" font-family="Helvetica,sans-Serif" font-size="10.00">llvm/ADT/None.h</text>
</a>
</g>
</g>
<!-- Node46&#45;&gt;Node51 -->
<g id="edge29" class="edge">
<title>Node46&#45;&gt;Node51</title>
<path fill="none" stroke="midnightblue" d="M1436.82,-176.2C1213.86,-172.95 421.49,-159.57 312.06,-132 222.52,-109.44 127.31,-51.92 86.09,-25.13"/>
<polygon fill="midnightblue" stroke="midnightblue" points="87.97,-22.18 77.69,-19.61 84.13,-28.03 87.97,-22.18"/>
</g>
<!-- Node52 -->
<g id="node20" class="node">
<title>Node52</title>
<g id="a_node20"><a xlink:href="STLExtras_8h.html" target="_top" xlink:title=" ">
<polygon fill="none" stroke="red" points="1665.06,-112.5 1665.06,-131.5 1787.06,-131.5 1787.06,-112.5 1665.06,-112.5"/>
<text text-anchor="middle" x="1726.06" y="-119.5" font-family="Helvetica,sans-Serif" font-size="10.00">llvm/ADT/STLExtras.h</text>
</a>
</g>
</g>
<!-- Node46&#45;&gt;Node52 -->
<g id="edge31" class="edge">
<title>Node46&#45;&gt;Node52</title>
<path fill="none" stroke="midnightblue" d="M1531.66,-168.44C1571.79,-159.06 1636.26,-143.99 1679.84,-133.8"/>
<polygon fill="midnightblue" stroke="midnightblue" points="1680.69,-137.2 1689.63,-131.52 1679.09,-130.38 1680.69,-137.2"/>
</g>
<!-- Node52&#45;&gt;Node17 -->
<g id="edge40" class="edge">
<title>Node52&#45;&gt;Node17</title>
<path fill="none" stroke="midnightblue" d="M1733.37,-112.3C1746.29,-97.63 1774.78,-68.38 1806.06,-56 1914.84,-12.94 2280.81,-10.43 2397.78,-10.76"/>
<polygon fill="midnightblue" stroke="midnightblue" points="2397.98,-14.26 2408,-10.8 2398.01,-7.26 2397.98,-14.26"/>
</g>
<!-- Node52&#45;&gt;Node21 -->
<g id="edge43" class="edge">
<title>Node52&#45;&gt;Node21</title>
<path fill="none" stroke="midnightblue" d="M1742.76,-112.4C1772.46,-97.61 1836.83,-67.81 1895.06,-56 2029.09,-28.82 3030.85,-14.06 3226.12,-11.43"/>
<polygon fill="midnightblue" stroke="midnightblue" points="3226.37,-14.93 3236.32,-11.29 3226.27,-7.93 3226.37,-14.93"/>
</g>
<!-- Node52&#45;&gt;Node43 -->
<g id="edge42" class="edge">
<title>Node52&#45;&gt;Node43</title>
<path fill="none" stroke="midnightblue" d="M1664.91,-114.05C1612.71,-107.22 1535.99,-95 1471.06,-76 1424.05,-62.24 1372.02,-38.79 1341.5,-24.13"/>
<polygon fill="midnightblue" stroke="midnightblue" points="1342.9,-20.92 1332.38,-19.71 1339.85,-27.22 1342.9,-20.92"/>
</g>
<!-- Node52&#45;&gt;Node32 -->
<g id="edge39" class="edge">
<title>Node52&#45;&gt;Node32</title>
<path fill="none" stroke="midnightblue" d="M1664.67,-118.66C1440.15,-110.11 662.89,-80.51 397.61,-70.41"/>
<polygon fill="midnightblue" stroke="midnightblue" points="397.38,-66.9 387.25,-70.02 397.11,-73.89 397.38,-66.9"/>
</g>
<!-- Node53 -->
<g id="node21" class="node">
<title>Node53</title>
<g id="a_node21"><a xlink:href="Optional_8h.html" target="_top" xlink:title=" ">
<polygon fill="none" stroke="red" points="1077.56,-56.5 1077.56,-75.5 1192.56,-75.5 1192.56,-56.5 1077.56,-56.5"/>
<text text-anchor="middle" x="1135.06" y="-63.5" font-family="Helvetica,sans-Serif" font-size="10.00">llvm/ADT/Optional.h</text>
</a>
</g>
</g>
<!-- Node52&#45;&gt;Node53 -->
<g id="edge32" class="edge">
<title>Node52&#45;&gt;Node53</title>
<path fill="none" stroke="midnightblue" d="M1665.04,-115.42C1553.82,-105.26 1318.91,-83.8 1202.87,-73.2"/>
<polygon fill="midnightblue" stroke="midnightblue" points="1202.97,-69.69 1192.69,-72.27 1202.33,-76.66 1202.97,-69.69"/>
</g>
<!-- Node52&#45;&gt;Node58 -->
<g id="edge37" class="edge">
<title>Node52&#45;&gt;Node58</title>
<path fill="none" stroke="midnightblue" d="M1787.12,-119.09C2053.98,-110.76 3116.67,-77.59 3391.11,-69.03"/>
<polygon fill="midnightblue" stroke="midnightblue" points="3391.42,-72.52 3401.3,-68.71 3391.2,-65.52 3391.42,-72.52"/>
</g>
<!-- Node52&#45;&gt;Node19 -->
<g id="edge41" class="edge">
<title>Node52&#45;&gt;Node19</title>
<path fill="none" stroke="midnightblue" d="M1758.22,-112.44C1795.27,-102.59 1855.93,-86.45 1894.11,-76.3"/>
<polygon fill="midnightblue" stroke="midnightblue" points="1895.01,-79.68 1903.78,-73.73 1893.21,-72.91 1895.01,-79.68"/>
</g>
<!-- Node53&#45;&gt;Node9 -->
<g id="edge34" class="edge">
<title>Node53&#45;&gt;Node9</title>
<path fill="none" stroke="midnightblue" d="M1077.55,-59.47C975.99,-49.72 764.81,-29.42 650.53,-18.44"/>
<polygon fill="midnightblue" stroke="midnightblue" points="650.74,-14.95 640.45,-17.48 650.07,-21.92 650.74,-14.95"/>
</g>
<!-- Node53&#45;&gt;Node17 -->
<g id="edge35" class="edge">
<title>Node53&#45;&gt;Node17</title>
<path fill="none" stroke="midnightblue" d="M1192.79,-59.55C1208.14,-58.24 1224.72,-56.95 1240.06,-56 1696.56,-27.85 2252.4,-14.81 2397.85,-11.73"/>
<polygon fill="midnightblue" stroke="midnightblue" points="2398.06,-15.23 2407.99,-11.52 2397.92,-8.23 2398.06,-15.23"/>
</g>
<!-- Node53&#45;&gt;Node21 -->
<g id="edge36" class="edge">
<title>Node53&#45;&gt;Node21</title>
<path fill="none" stroke="midnightblue" d="M1192.78,-59.39C1208.13,-58.08 1224.71,-56.83 1240.06,-56 1649.75,-33.9 2997.84,-14.6 3226.09,-11.45"/>
<polygon fill="midnightblue" stroke="midnightblue" points="3226.44,-14.94 3236.39,-11.31 3226.34,-7.94 3226.44,-14.94"/>
</g>
<!-- Node53&#45;&gt;Node51 -->
<g id="edge33" class="edge">
<title>Node53&#45;&gt;Node51</title>
<path fill="none" stroke="midnightblue" d="M1077.53,-62.1C892.42,-52.75 313.31,-23.53 124.92,-14.02"/>
<polygon fill="midnightblue" stroke="midnightblue" points="124.83,-10.51 114.66,-13.5 124.47,-17.5 124.83,-10.51"/>
</g>
<!-- Node58&#45;&gt;Node21 -->
<g id="edge38" class="edge">
<title>Node58&#45;&gt;Node21</title>
<path fill="none" stroke="midnightblue" d="M3424.84,-56.44C3388.45,-46.47 3328.58,-30.06 3291.61,-19.92"/>
<polygon fill="midnightblue" stroke="midnightblue" points="3292.41,-16.51 3281.84,-17.24 3290.55,-23.26 3292.41,-16.51"/>
</g>
<!-- Node80&#45;&gt;Node17 -->
<g id="edge50" class="edge">
<title>Node80&#45;&gt;Node17</title>
<path fill="none" stroke="midnightblue" d="M2342.68,-237.39C2396.15,-234.01 2475.63,-222.85 2535.06,-188 2563.33,-171.42 2571.68,-162.74 2583.06,-132 2594.78,-100.32 2603.2,-83.12 2583.06,-56 2557.36,-21.4 2505.85,-12.44 2470.66,-10.61"/>
<polygon fill="midnightblue" stroke="midnightblue" points="2470.42,-7.1 2460.31,-10.25 2470.18,-14.1 2470.42,-7.1"/>
</g>
<!-- Node80&#45;&gt;Node21 -->
<g id="edge52" class="edge">
<title>Node80&#45;&gt;Node21</title>
<path fill="none" stroke="midnightblue" d="M2342.86,-234.29C2387.16,-231.2 2449.41,-227.03 2504.06,-224 2548.37,-221.54 3267.7,-216.09 3302.06,-188 3350.58,-148.32 3298.19,-63.98 3272.06,-27.93"/>
<polygon fill="midnightblue" stroke="midnightblue" points="3274.84,-25.79 3266.06,-19.85 3269.22,-29.97 3274.84,-25.79"/>
</g>
<!-- Node80&#45;&gt;Node46 -->
<g id="edge49" class="edge">
<title>Node80&#45;&gt;Node46</title>
<path fill="none" stroke="midnightblue" d="M2225.25,-232.07C2199.17,-229.35 2168.11,-226.29 2140.06,-224 1885.74,-203.21 1821.11,-211.84 1567.06,-188 1565.79,-187.88 1564.51,-187.76 1563.21,-187.63"/>
<polygon fill="midnightblue" stroke="midnightblue" points="1563.49,-184.14 1553.18,-186.58 1562.76,-191.1 1563.49,-184.14"/>
</g>
<!-- Node80&#45;&gt;Node19 -->
<g id="edge51" class="edge">
<title>Node80&#45;&gt;Node19</title>
<path fill="none" stroke="midnightblue" d="M2226.18,-229.96C2154.37,-218.95 2039.32,-199.82 2023.06,-188 1991.84,-165.31 2005.36,-141.98 1981.06,-112 1971.9,-100.7 1959.67,-89.96 1949.38,-81.81"/>
<polygon fill="midnightblue" stroke="midnightblue" points="1951.36,-78.92 1941.29,-75.61 1947.1,-84.47 1951.36,-78.92"/>
</g>
<!-- Node82&#45;&gt;Node17 -->
<g id="edge57" class="edge">
<title>Node82&#45;&gt;Node17</title>
<path fill="none" stroke="midnightblue" d="M1457.76,-291.49C1431.63,-270.71 1371,-215.6 1395.06,-168 1404.52,-149.28 1527.3,-63.05 1547.06,-56 1628.06,-27.09 2241.67,-14.39 2397.94,-11.61"/>
<polygon fill="midnightblue" stroke="midnightblue" points="2398.03,-15.1 2407.97,-11.43 2397.91,-8.11 2398.03,-15.1"/>
</g>
<!-- Node89&#45;&gt;Node15 -->
<g id="edge60" class="edge">
<title>Node89&#45;&gt;Node15</title>
<path fill="none" stroke="midnightblue" d="M2582.79,-408.88C2608.45,-394.21 2663.36,-364.29 2713.06,-347 2901.75,-281.36 2959.21,-303.36 3153.06,-255 3198.62,-243.63 3208.91,-236.9 3254.06,-224 3314.18,-206.82 3351.92,-237.55 3390.06,-188 3414.47,-156.29 3365.02,-139.68 3317.2,-131.22"/>
<polygon fill="midnightblue" stroke="midnightblue" points="3317.48,-127.71 3307.04,-129.53 3316.34,-134.62 3317.48,-127.71"/>
</g>
<!-- Node91&#45;&gt;Node12 -->
<g id="edge97" class="edge">
<title>Node91&#45;&gt;Node12</title>
<path fill="none" stroke="midnightblue" d="M1773.31,-407.34C1821.65,-399.27 1877.2,-386.14 1892.06,-367 1913.34,-339.58 1859.28,-322.41 1874.06,-291 1917.64,-198.4 2040.31,-150.47 2099.83,-132.09"/>
<polygon fill="midnightblue" stroke="midnightblue" points="2100.93,-135.42 2109.5,-129.2 2098.92,-128.71 2100.93,-135.42"/>
</g>
<!-- Node91&#45;&gt;Node17 -->
<g id="edge95" class="edge">
<title>Node91&#45;&gt;Node17</title>
<path fill="none" stroke="midnightblue" d="M1683,-403.38C1670.2,-388.7 1649.09,-365.34 1629.06,-347 1584.94,-306.62 1400.51,-221.09 1428.06,-168 1438.01,-148.82 1566.64,-63.07 1587.06,-56 1664.34,-29.24 2245.41,-15.03 2397.64,-11.75"/>
<polygon fill="midnightblue" stroke="midnightblue" points="2397.92,-15.24 2407.84,-11.53 2397.77,-8.24 2397.92,-15.24"/>
</g>
<!-- Node91&#45;&gt;Node19 -->
<g id="edge96" class="edge">
<title>Node91&#45;&gt;Node19</title>
<path fill="none" stroke="midnightblue" d="M1697.12,-403.38C1699.66,-388.7 1704.81,-365.34 1714.06,-347 1737.56,-300.39 1755.1,-296.27 1787.06,-255 1835.58,-192.33 1892.01,-116.81 1916.57,-83.81"/>
<polygon fill="midnightblue" stroke="midnightblue" points="1919.46,-85.79 1922.62,-75.68 1913.84,-81.61 1919.46,-85.79"/>
</g>
<!-- Node91&#45;&gt;Node81 -->
<g id="edge62" class="edge">
<title>Node91&#45;&gt;Node81</title>
<path fill="none" stroke="midnightblue" d="M1655.01,-403.4C1626.15,-393.24 1587.61,-379.67 1560.2,-370.02"/>
<polygon fill="midnightblue" stroke="midnightblue" points="1561.24,-366.68 1550.65,-366.66 1558.92,-373.28 1561.24,-366.68"/>
</g>
<!-- Node91&#45;&gt;Node82 -->
<g id="edge63" class="edge">
<title>Node91&#45;&gt;Node82</title>
<path fill="none" stroke="midnightblue" d="M1679.07,-403.4C1660.79,-387.86 1629.45,-362.95 1599.06,-347 1571.52,-332.55 1538.36,-321.15 1512.43,-313.45"/>
<polygon fill="midnightblue" stroke="midnightblue" points="1513.09,-310 1502.51,-310.58 1511.14,-316.72 1513.09,-310"/>
</g>
<!-- Node91&#45;&gt;Node94 -->
<g id="edge64" class="edge">
<title>Node91&#45;&gt;Node94</title>
<path fill="none" stroke="midnightblue" d="M1720.65,-403.4C1738.13,-393.77 1761.15,-381.09 1778.41,-371.58"/>
<polygon fill="midnightblue" stroke="midnightblue" points="1780.27,-374.55 1787.34,-366.66 1776.89,-368.42 1780.27,-374.55"/>
</g>
<!-- Node94&#45;&gt;Node17 -->
<g id="edge92" class="edge">
<title>Node94&#45;&gt;Node17</title>
<path fill="none" stroke="midnightblue" d="M1722.82,-348.44C1673,-341.9 1615.59,-330.35 1600.06,-311 1542.55,-239.35 1593.42,-179.21 1656.06,-112 1694.27,-71 1714.95,-70.62 1769.06,-56 1889.15,-23.56 2276.61,-13.87 2397.61,-11.6"/>
<polygon fill="midnightblue" stroke="midnightblue" points="2397.89,-15.09 2407.82,-11.41 2397.76,-8.09 2397.89,-15.09"/>
</g>
<!-- Node94&#45;&gt;Node21 -->
<g id="edge94" class="edge">
<title>Node94&#45;&gt;Node21</title>
<path fill="none" stroke="midnightblue" d="M1883.1,-351.94C2235.1,-333.73 3630.58,-257.31 3691.06,-188 3807.44,-54.62 3410.8,-19.99 3291.8,-12.7"/>
<polygon fill="midnightblue" stroke="midnightblue" points="3291.99,-9.21 3281.8,-12.11 3291.58,-16.19 3291.99,-9.21"/>
</g>
<!-- Node94&#45;&gt;Node19 -->
<g id="edge93" class="edge">
<title>Node94&#45;&gt;Node19</title>
<path fill="none" stroke="midnightblue" d="M1807.39,-347.19C1813.9,-334.32 1826.95,-309.83 1841.06,-291 1854.25,-273.39 1864.16,-274.12 1875.06,-255 1891.93,-225.41 1915.52,-126.75 1924.94,-85.44"/>
<polygon fill="midnightblue" stroke="midnightblue" points="1928.37,-86.15 1927.15,-75.62 1921.54,-84.61 1928.37,-86.15"/>
</g>
<!-- Node94&#45;&gt;Node82 -->
<g id="edge65" class="edge">
<title>Node94&#45;&gt;Node82</title>
<path fill="none" stroke="midnightblue" d="M1750.13,-347.44C1688.8,-337.53 1588.14,-321.25 1525.39,-311.11"/>
<polygon fill="midnightblue" stroke="midnightblue" points="1525.71,-307.61 1515.28,-309.47 1524.59,-314.52 1525.71,-307.61"/>
</g>
<!-- Node94&#45;&gt;Node100 -->
<g id="edge66" class="edge">
<title>Node94&#45;&gt;Node100</title>
<path fill="none" stroke="midnightblue" d="M1832.05,-347.44C1863.24,-338.24 1912.99,-323.56 1947.47,-313.39"/>
<polygon fill="midnightblue" stroke="midnightblue" points="1948.6,-316.7 1957.2,-310.52 1946.61,-309.99 1948.6,-316.7"/>
</g>
<!-- Node94&#45;&gt;Node141 -->
<g id="edge78" class="edge">
<title>Node94&#45;&gt;Node141</title>
<path fill="none" stroke="midnightblue" d="M1883.13,-352.41C2084.67,-342.55 2600.48,-311.96 2651.06,-255 2664.92,-239.39 2658.72,-214.26 2651.88,-197.21"/>
<polygon fill="midnightblue" stroke="midnightblue" points="2654.96,-195.52 2647.72,-187.79 2648.56,-198.35 2654.96,-195.52"/>
</g>
<!-- Node94&#45;&gt;Node150 -->
<g id="edge83" class="edge">
<title>Node94&#45;&gt;Node150</title>
<path fill="none" stroke="midnightblue" d="M1722.87,-347.59C1629.22,-337.77 1474.72,-321.57 1377.33,-311.36"/>
<polygon fill="midnightblue" stroke="midnightblue" points="1377.52,-307.86 1367.21,-310.3 1376.79,-314.82 1377.52,-307.86"/>
</g>
<!-- Node125 -->
<g id="node31" class="node">
<title>Node125</title>
<g id="a_node31"><a xlink:href="DerivedTypes_8h.html" target="_top" xlink:title=" ">
<polygon fill="none" stroke="red" points="1627.56,-230 1627.56,-249 1756.56,-249 1756.56,-230 1627.56,-230"/>
<text text-anchor="middle" x="1692.06" y="-237" font-family="Helvetica,sans-Serif" font-size="10.00">llvm/IR/DerivedTypes.h</text>
</a>
</g>
</g>
<!-- Node100&#45;&gt;Node125 -->
<g id="edge67" class="edge">
<title>Node100&#45;&gt;Node125</title>
<path fill="none" stroke="midnightblue" d="M1943.93,-291.48C1891.21,-280.8 1800.93,-262.53 1743.98,-251.01"/>
<polygon fill="midnightblue" stroke="midnightblue" points="1744.6,-247.56 1734.1,-249.01 1743.21,-254.42 1744.6,-247.56"/>
</g>
<!-- Node100&#45;&gt;Node128 -->
<g id="edge77" class="edge">
<title>Node100&#45;&gt;Node128</title>
<path fill="none" stroke="midnightblue" d="M1994.94,-291.48C2004.52,-282.28 2019.97,-267.46 2031.74,-256.16"/>
<polygon fill="midnightblue" stroke="midnightblue" points="2034.4,-258.46 2039.19,-249.01 2029.55,-253.41 2034.4,-258.46"/>
</g>
<!-- Node125&#45;&gt;Node9 -->
<g id="edge74" class="edge">
<title>Node125&#45;&gt;Node9</title>
<path fill="none" stroke="midnightblue" d="M1627.55,-236.56C1401.11,-229.2 651.68,-199.86 570.06,-132 543.51,-109.93 547.21,-89.83 554.06,-56 555.95,-46.65 559.85,-36.83 563.62,-28.75"/>
<polygon fill="midnightblue" stroke="midnightblue" points="566.85,-30.14 568.18,-19.63 560.58,-27.01 566.85,-30.14"/>
</g>
<!-- Node125&#45;&gt;Node17 -->
<g id="edge75" class="edge">
<title>Node125&#45;&gt;Node17</title>
<path fill="none" stroke="midnightblue" d="M1756.87,-234.88C1947.46,-224.18 2493.31,-193.13 2501.06,-188 2550.18,-155.48 2549.44,-102.33 2513.06,-56 2501.76,-41.61 2484.49,-31.02 2468.98,-23.75"/>
<polygon fill="midnightblue" stroke="midnightblue" points="2470.18,-20.45 2459.61,-19.64 2467.36,-26.86 2470.18,-20.45"/>
</g>
<!-- Node125&#45;&gt;Node46 -->
<g id="edge68" class="edge">
<title>Node125&#45;&gt;Node46</title>
<path fill="none" stroke="midnightblue" d="M1663.83,-229.98C1629.45,-219.59 1571.25,-202.01 1532.98,-190.45"/>
<polygon fill="midnightblue" stroke="midnightblue" points="1533.82,-187.05 1523.23,-187.51 1531.79,-193.75 1533.82,-187.05"/>
</g>
<!-- Node125&#45;&gt;Node52 -->
<g id="edge69" class="edge">
<title>Node125&#45;&gt;Node52</title>
<path fill="none" stroke="midnightblue" d="M1694.61,-229.82C1700.1,-211.17 1713.12,-166.94 1720.57,-141.63"/>
<polygon fill="midnightblue" stroke="midnightblue" points="1724.01,-142.36 1723.47,-131.78 1717.29,-140.39 1724.01,-142.36"/>
</g>
<!-- Node125&#45;&gt;Node19 -->
<g id="edge76" class="edge">
<title>Node125&#45;&gt;Node19</title>
<path fill="none" stroke="midnightblue" d="M1699.09,-229.66C1710.44,-215.69 1733.88,-188.03 1757.06,-168 1802.09,-129.1 1864.16,-96.91 1900.11,-79.96"/>
<polygon fill="midnightblue" stroke="midnightblue" points="1901.93,-82.97 1909.52,-75.58 1898.98,-76.62 1901.93,-82.97"/>
</g>
<!-- Node61 -->
<g id="node32" class="node">
<title>Node61</title>
<g id="a_node32"><a xlink:href="StringRef_8h.html" target="_top" xlink:title=" ">
<polygon fill="none" stroke="red" points="2733.06,-112.5 2733.06,-131.5 2851.06,-131.5 2851.06,-112.5 2733.06,-112.5"/>
<text text-anchor="middle" x="2792.06" y="-119.5" font-family="Helvetica,sans-Serif" font-size="10.00">llvm/ADT/StringRef.h</text>
</a>
</g>
</g>
<!-- Node125&#45;&gt;Node61 -->
<g id="edge70" class="edge">
<title>Node125&#45;&gt;Node61</title>
<path fill="none" stroke="midnightblue" d="M1756.63,-234.81C1809.87,-231.8 1887.35,-227.48 1955.06,-224 2038.71,-219.69 2629.46,-216.97 2708.06,-188 2735.76,-177.79 2761.66,-154.93 2777.19,-139.23"/>
<polygon fill="midnightblue" stroke="midnightblue" points="2779.93,-141.43 2784.31,-131.78 2774.87,-136.59 2779.93,-141.43"/>
</g>
<!-- Node61&#45;&gt;Node9 -->
<g id="edge71" class="edge">
<title>Node61&#45;&gt;Node9</title>
<path fill="none" stroke="midnightblue" d="M2733.01,-114.56C2608.93,-101.29 2311.95,-70.89 2062.06,-56 1522.34,-23.84 871.13,-14.2 650.46,-11.74"/>
<polygon fill="midnightblue" stroke="midnightblue" points="650.31,-8.24 640.27,-11.63 650.24,-15.24 650.31,-8.24"/>
</g>
<!-- Node61&#45;&gt;Node17 -->
<g id="edge72" class="edge">
<title>Node61&#45;&gt;Node17</title>
<path fill="none" stroke="midnightblue" d="M2780.08,-112.34C2760,-98.27 2717.86,-70.54 2678.06,-56 2607,-30.04 2518.61,-18.52 2470.11,-13.85"/>
<polygon fill="midnightblue" stroke="midnightblue" points="2470.37,-10.36 2460.1,-12.92 2469.73,-17.33 2470.37,-10.36"/>
</g>
<!-- Node61&#45;&gt;Node21 -->
<g id="edge73" class="edge">
<title>Node61&#45;&gt;Node21</title>
<path fill="none" stroke="midnightblue" d="M2828.31,-112.46C2916.77,-91.62 3142.58,-38.44 3226.77,-18.61"/>
<polygon fill="midnightblue" stroke="midnightblue" points="3227.61,-22 3236.54,-16.3 3226.01,-15.19 3227.61,-22"/>
</g>
<!-- Node141&#45;&gt;Node12 -->
<g id="edge82" class="edge">
<title>Node141&#45;&gt;Node12</title>
<path fill="none" stroke="midnightblue" d="M2586.85,-171.44C2504.08,-163.18 2344.58,-147.05 2209.06,-132 2195.2,-130.46 2179.93,-128.67 2166.74,-127.1"/>
<polygon fill="midnightblue" stroke="midnightblue" points="2167.01,-123.6 2156.67,-125.89 2166.18,-130.55 2167.01,-123.6"/>
</g>
<!-- Node141&#45;&gt;Node17 -->
<g id="edge81" class="edge">
<title>Node141&#45;&gt;Node17</title>
<path fill="none" stroke="midnightblue" d="M2644.37,-168.29C2647.14,-146.27 2651.12,-87.81 2621.06,-56 2600.7,-34.47 2518.69,-21.16 2470.3,-15.03"/>
<polygon fill="midnightblue" stroke="midnightblue" points="2470.58,-11.53 2460.23,-13.79 2469.73,-18.48 2470.58,-11.53"/>
</g>
<!-- Node141&#45;&gt;Node32 -->
<g id="edge80" class="edge">
<title>Node141&#45;&gt;Node32</title>
<path fill="none" stroke="midnightblue" d="M2586.76,-172.99C2560.7,-171.25 2529.31,-169.31 2501.06,-168 1956.96,-142.77 1820.1,-158.25 1276.06,-132 952.29,-116.38 568.28,-87.51 397.56,-74.14"/>
<polygon fill="midnightblue" stroke="midnightblue" points="397.61,-70.63 387.36,-73.34 397.06,-77.61 397.61,-70.63"/>
</g>
<!-- Node141&#45;&gt;Node61 -->
<g id="edge79" class="edge">
<title>Node141&#45;&gt;Node61</title>
<path fill="none" stroke="midnightblue" d="M2666.67,-168.44C2691.52,-159.44 2730.83,-145.19 2758.81,-135.05"/>
<polygon fill="midnightblue" stroke="midnightblue" points="2760.35,-138.21 2768.56,-131.52 2757.96,-131.63 2760.35,-138.21"/>
</g>
<!-- Node150&#45;&gt;Node41 -->
<g id="edge84" class="edge">
<title>Node150&#45;&gt;Node41</title>
<path fill="none" stroke="midnightblue" d="M1282.67,-291.44C1277.5,-282.68 1270.05,-268.47 1267.06,-255 1253.27,-192.83 1250.65,-170.39 1276.06,-112 1280.82,-101.05 1289.23,-90.82 1297.02,-82.89"/>
<polygon fill="midnightblue" stroke="midnightblue" points="1299.64,-85.23 1304.44,-75.79 1294.8,-80.17 1299.64,-85.23"/>
</g>
<!-- Node150&#45;&gt;Node151 -->
<g id="edge85" class="edge">
<title>Node150&#45;&gt;Node151</title>
<path fill="none" stroke="midnightblue" d="M1284.63,-291.28C1276.51,-269.07 1258.38,-209.22 1281.06,-168 1288.94,-153.66 1303.54,-143.25 1317.46,-136.08"/>
<polygon fill="midnightblue" stroke="midnightblue" points="1319.35,-139.06 1326.9,-131.62 1316.36,-132.73 1319.35,-139.06"/>
</g>
<!-- Node151&#45;&gt;Node9 -->
<g id="edge88" class="edge">
<title>Node151&#45;&gt;Node9</title>
<path fill="none" stroke="midnightblue" d="M1329.06,-112.47C1306.23,-103.84 1270.37,-89.83 1240.06,-76 1222.33,-67.92 1219.82,-61.25 1201.06,-56 1099.54,-27.61 794.53,-16.46 650.27,-12.68"/>
<polygon fill="midnightblue" stroke="midnightblue" points="650.25,-9.18 640.17,-12.42 650.07,-16.18 650.25,-9.18"/>
</g>
<!-- Node151&#45;&gt;Node17 -->
<g id="edge89" class="edge">
<title>Node151&#45;&gt;Node17</title>
<path fill="none" stroke="midnightblue" d="M1367.51,-112.48C1395.01,-97.81 1454.65,-68.2 1509.06,-56 1682.77,-17.05 2248.16,-11.81 2397.57,-11.11"/>
<polygon fill="midnightblue" stroke="midnightblue" points="2398.01,-14.61 2407.99,-11.06 2397.98,-7.61 2398.01,-14.61"/>
</g>
<!-- Node151&#45;&gt;Node21 -->
<g id="edge91" class="edge">
<title>Node151&#45;&gt;Node21</title>
<path fill="none" stroke="midnightblue" d="M1401.58,-112.44C1487.47,-98 1669.77,-69.07 1825.06,-56 2383.76,-8.98 3068.63,-9.86 3225.84,-10.75"/>
<polygon fill="midnightblue" stroke="midnightblue" points="3226.22,-14.26 3236.24,-10.82 3226.26,-7.26 3226.22,-14.26"/>
</g>
<!-- Node151&#45;&gt;Node41 -->
<g id="edge87" class="edge">
<title>Node151&#45;&gt;Node41</title>
<path fill="none" stroke="midnightblue" d="M1345.95,-112.08C1340.78,-104.53 1333.21,-93.49 1326.86,-84.23"/>
<polygon fill="midnightblue" stroke="midnightblue" points="1329.59,-82.02 1321.05,-75.75 1323.82,-85.98 1329.59,-82.02"/>
</g>
<!-- Node151&#45;&gt;Node53 -->
<g id="edge86" class="edge">
<title>Node151&#45;&gt;Node53</title>
<path fill="none" stroke="midnightblue" d="M1317.67,-112.44C1280.14,-103.1 1219.93,-88.12 1178.99,-77.93"/>
<polygon fill="midnightblue" stroke="midnightblue" points="1179.83,-74.53 1169.28,-75.52 1178.14,-81.33 1179.83,-74.53"/>
</g>
<!-- Node151&#45;&gt;Node19 -->
<g id="edge90" class="edge">
<title>Node151&#45;&gt;Node19</title>
<path fill="none" stroke="midnightblue" d="M1419.23,-113.43C1423.91,-112.94 1428.55,-112.45 1433.06,-112 1605.75,-94.57 1812.59,-76.81 1893.84,-69.95"/>
<polygon fill="midnightblue" stroke="midnightblue" points="1894.34,-73.42 1904.01,-69.09 1893.75,-66.44 1894.34,-73.42"/>
</g>
<!-- Node158&#45;&gt;Node17 -->
<g id="edge108" class="edge">
<title>Node158&#45;&gt;Node17</title>
<path fill="none" stroke="midnightblue" d="M1084.87,-347.26C1073.87,-302.42 1026.78,-98.66 1068.06,-56 1115.6,-6.87 2184.88,-9.73 2397.49,-10.79"/>
<polygon fill="midnightblue" stroke="midnightblue" points="2397.78,-14.29 2407.79,-10.84 2397.81,-7.29 2397.78,-14.29"/>
</g>
<!-- Node158&#45;&gt;Node32 -->
<g id="edge107" class="edge">
<title>Node158&#45;&gt;Node32</title>
<path fill="none" stroke="midnightblue" d="M1021.18,-347.49C962.01,-339.44 872.88,-326.34 796.06,-311 561.72,-264.2 419.57,-332.17 289.06,-132 279.56,-117.44 287.38,-98.01 295.67,-84.2"/>
<polygon fill="midnightblue" stroke="midnightblue" points="298.71,-85.94 301.28,-75.66 292.86,-82.09 298.71,-85.94"/>
</g>
<!-- Node158&#45;&gt;Node82 -->
<g id="edge105" class="edge">
<title>Node158&#45;&gt;Node82</title>
<path fill="none" stroke="midnightblue" d="M1147.59,-347.44C1220.47,-337.14 1341.92,-319.97 1412.83,-309.95"/>
<polygon fill="midnightblue" stroke="midnightblue" points="1413.5,-313.39 1422.91,-308.52 1412.52,-306.46 1413.5,-313.39"/>
</g>
<!-- Node158&#45;&gt;Node151 -->
<g id="edge106" class="edge">
<title>Node158&#45;&gt;Node151</title>
<path fill="none" stroke="midnightblue" d="M1088.03,-347.3C1091.85,-317.33 1108.63,-217.57 1167.06,-168 1196.78,-142.79 1238.37,-131.25 1274.59,-126.15"/>
<polygon fill="midnightblue" stroke="midnightblue" points="1275.17,-129.6 1284.65,-124.87 1274.29,-122.66 1275.17,-129.6"/>
</g>
<!-- Node159&#45;&gt;Node43 -->
<g id="edge110" class="edge">
<title>Node159&#45;&gt;Node43</title>
<path fill="none" stroke="midnightblue" d="M710.66,-408.87C682.72,-382.14 603.71,-298 630.06,-224 662.37,-133.24 681.79,-100.86 767.06,-56 811.8,-32.46 1157.79,-17.06 1275.78,-12.45"/>
<polygon fill="midnightblue" stroke="midnightblue" points="1275.97,-15.95 1285.83,-12.06 1275.7,-8.95 1275.97,-15.95"/>
</g>
<!-- Node170&#45;&gt;Node12 -->
<g id="edge153" class="edge">
<title>Node170&#45;&gt;Node12</title>
<path fill="none" stroke="midnightblue" d="M2907.01,-228.96C2857.6,-221.52 2794.36,-208.83 2741.06,-188 2725.08,-181.76 2724.4,-173.21 2708.06,-168 2496.2,-100.5 2430.41,-153.08 2209.06,-132 2195.18,-130.68 2179.9,-128.93 2166.71,-127.32"/>
<polygon fill="midnightblue" stroke="midnightblue" points="2167,-123.83 2156.65,-126.08 2166.14,-130.78 2167,-123.83"/>
</g>
<!-- Node170&#45;&gt;Node15 -->
<g id="edge125" class="edge">
<title>Node170&#45;&gt;Node15</title>
<path fill="none" stroke="midnightblue" d="M3073.11,-225.95C3077.83,-225.28 3082.5,-224.63 3087.06,-224 3150.52,-215.26 3330.69,-236.04 3373.06,-188 3397.07,-160.78 3352.7,-143.56 3309.59,-133.74"/>
<polygon fill="midnightblue" stroke="midnightblue" points="3310.09,-130.26 3299.58,-131.58 3308.61,-137.11 3310.09,-130.26"/>
</g>
<!-- Node170&#45;&gt;Node21 -->
<g id="edge152" class="edge">
<title>Node170&#45;&gt;Node21</title>
<path fill="none" stroke="midnightblue" d="M3073.11,-225.92C3077.83,-225.25 3082.5,-224.61 3087.06,-224 3288.63,-196.97 3435.31,-260.88 3520.06,-76 3523.76,-67.92 3525.78,-62.8 3520.06,-56 3491.28,-21.84 3355.89,-13.61 3292.26,-11.63"/>
<polygon fill="midnightblue" stroke="midnightblue" points="3292.06,-8.12 3281.97,-11.34 3291.87,-15.12 3292.06,-8.12"/>
</g>
<!-- Node170&#45;&gt;Node43 -->
<g id="edge151" class="edge">
<title>Node170&#45;&gt;Node43</title>
<path fill="none" stroke="midnightblue" d="M2977.83,-224.42C2951.3,-194.24 2888.56,-125.02 2860.06,-112 2826.94,-96.87 2243.38,-58.47 2207.06,-56 1877.86,-33.59 1479.61,-17.34 1354.57,-12.5"/>
<polygon fill="midnightblue" stroke="midnightblue" points="1354.47,-8.99 1344.34,-12.1 1354.2,-15.99 1354.47,-8.99"/>
</g>
<!-- Node170&#45;&gt;Node163 -->
<g id="edge150" class="edge">
<title>Node170&#45;&gt;Node163</title>
<path fill="none" stroke="midnightblue" d="M3073.08,-225.72C3077.81,-225.11 3082.49,-224.53 3087.06,-224 3281.09,-201.55 3331.38,-213.33 3525.06,-188 3526.31,-187.84 3527.58,-187.66 3528.86,-187.48"/>
<polygon fill="midnightblue" stroke="midnightblue" points="3529.45,-190.93 3538.8,-185.95 3528.38,-184.01 3529.45,-190.93"/>
</g>
<!-- Node73 -->
<g id="node41" class="node">
<title>Node73</title>
<g id="a_node41"><a xlink:href="PointerIntPair_8h.html" target="_top" xlink:title=" ">
<polygon fill="none" stroke="red" points="2365.06,-112.5 2365.06,-131.5 2503.06,-131.5 2503.06,-112.5 2365.06,-112.5"/>
<text text-anchor="middle" x="2434.06" y="-119.5" font-family="Helvetica,sans-Serif" font-size="10.00">llvm/ADT/PointerIntPair.h</text>
</a>
</g>
</g>
<!-- Node170&#45;&gt;Node73 -->
<g id="edge126" class="edge">
<title>Node170&#45;&gt;Node73</title>
<path fill="none" stroke="midnightblue" d="M2946.86,-224.41C2897.54,-208.76 2814.21,-183.65 2741.06,-168 2664.34,-151.59 2575.55,-139.29 2513.25,-131.73"/>
<polygon fill="midnightblue" stroke="midnightblue" points="2513.45,-128.23 2503.1,-130.51 2512.61,-135.18 2513.45,-128.23"/>
</g>
<!-- Node171 -->
<g id="node42" class="node">
<title>Node171</title>
<g id="a_node42"><a xlink:href="PassManager_8h.html" target="_top" xlink:title=" ">
<polygon fill="none" stroke="red" points="2983.56,-168.5 2983.56,-187.5 3110.56,-187.5 3110.56,-168.5 2983.56,-168.5"/>
<text text-anchor="middle" x="3047.06" y="-175.5" font-family="Helvetica,sans-Serif" font-size="10.00">llvm/IR/PassManager.h</text>
</a>
</g>
</g>
<!-- Node170&#45;&gt;Node171 -->
<g id="edge130" class="edge">
<title>Node170&#45;&gt;Node171</title>
<path fill="none" stroke="midnightblue" d="M3003.57,-224.4C3012.02,-215.58 3022.93,-204.18 3031.71,-195.02"/>
<polygon fill="midnightblue" stroke="midnightblue" points="3034.37,-197.3 3038.76,-187.66 3029.32,-192.46 3034.37,-197.3"/>
</g>
<!-- Node208 -->
<g id="node43" class="node">
<title>Node208</title>
<g id="a_node43"><a xlink:href="MCContext_8h.html" target="_top" xlink:title=" ">
<polygon fill="none" stroke="red" points="2369.56,-168.5 2369.56,-187.5 2492.56,-187.5 2492.56,-168.5 2369.56,-168.5"/>
<text text-anchor="middle" x="2431.06" y="-175.5" font-family="Helvetica,sans-Serif" font-size="10.00">llvm/MC/MCContext.h</text>
</a>
</g>
</g>
<!-- Node170&#45;&gt;Node208 -->
<g id="edge138" class="edge">
<title>Node170&#45;&gt;Node208</title>
<path fill="none" stroke="midnightblue" d="M2906.97,-229.66C2797.33,-217.99 2606.15,-197.64 2502.61,-186.62"/>
<polygon fill="midnightblue" stroke="midnightblue" points="2502.88,-183.12 2492.56,-185.55 2502.14,-190.09 2502.88,-183.12"/>
</g>
<!-- Node73&#45;&gt;Node9 -->
<g id="edge127" class="edge">
<title>Node73&#45;&gt;Node9</title>
<path fill="none" stroke="midnightblue" d="M2384.75,-112.46C2299.22,-98.03 2117.69,-69.14 1963.06,-56 1705,-34.08 903.34,-17.3 650.36,-12.43"/>
<polygon fill="midnightblue" stroke="midnightblue" points="650.23,-8.93 640.16,-12.24 650.09,-15.93 650.23,-8.93"/>
</g>
<!-- Node73&#45;&gt;Node17 -->
<g id="edge128" class="edge">
<title>Node73&#45;&gt;Node17</title>
<path fill="none" stroke="midnightblue" d="M2434.06,-112.37C2434.06,-94.62 2434.06,-53.67 2434.06,-29.6"/>
<polygon fill="midnightblue" stroke="midnightblue" points="2437.56,-29.59 2434.06,-19.59 2430.56,-29.59 2437.56,-29.59"/>
</g>
<!-- Node73&#45;&gt;Node19 -->
<g id="edge129" class="edge">
<title>Node73&#45;&gt;Node19</title>
<path fill="none" stroke="midnightblue" d="M2364.9,-113.6C2255.69,-101.93 2047.21,-79.63 1964.31,-70.77"/>
<polygon fill="midnightblue" stroke="midnightblue" points="1964.47,-67.27 1954.16,-69.68 1963.73,-74.23 1964.47,-67.27"/>
</g>
<!-- Node171&#45;&gt;Node12 -->
<g id="edge137" class="edge">
<title>Node171&#45;&gt;Node12</title>
<path fill="none" stroke="midnightblue" d="M2983.36,-174.98C2843.2,-170.22 2497.56,-156.8 2209.06,-132 2195.17,-130.81 2179.89,-129.08 2166.7,-127.46"/>
<polygon fill="midnightblue" stroke="midnightblue" points="2167,-123.96 2156.64,-126.19 2166.12,-130.91 2167,-123.96"/>
</g>
<!-- Node171&#45;&gt;Node15 -->
<g id="edge131" class="edge">
<title>Node171&#45;&gt;Node15</title>
<path fill="none" stroke="midnightblue" d="M3078.27,-168.44C3111.99,-159.2 3165.86,-144.44 3202.99,-134.26"/>
<polygon fill="midnightblue" stroke="midnightblue" points="3204.27,-137.54 3212.99,-131.52 3202.42,-130.78 3204.27,-137.54"/>
</g>
<!-- Node171&#45;&gt;Node17 -->
<g id="edge134" class="edge">
<title>Node171&#45;&gt;Node17</title>
<path fill="none" stroke="midnightblue" d="M3041.9,-168.27C3027.68,-145.11 2985.34,-82.11 2931.06,-56 2849.61,-16.82 2570.78,-11.61 2470.42,-11.03"/>
<polygon fill="midnightblue" stroke="midnightblue" points="2470.19,-7.53 2460.18,-10.98 2470.16,-14.53 2470.19,-7.53"/>
</g>
<!-- Node171&#45;&gt;Node21 -->
<g id="edge136" class="edge">
<title>Node171&#45;&gt;Node21</title>
<path fill="none" stroke="midnightblue" d="M3058.16,-168.31C3092.43,-141.47 3196.87,-59.69 3240.06,-25.88"/>
<polygon fill="midnightblue" stroke="midnightblue" points="3242.35,-28.53 3248.07,-19.61 3238.04,-23.01 3242.35,-28.53"/>
</g>
<!-- Node171&#45;&gt;Node43 -->
<g id="edge135" class="edge">
<title>Node171&#45;&gt;Node43</title>
<path fill="none" stroke="midnightblue" d="M3030.45,-168.42C3002.73,-154.46 2944.94,-126.89 2893.06,-112 2742.48,-68.79 2700.96,-71.34 2545.06,-56 2078.31,-10.08 1507.78,-9.82 1354.51,-10.68"/>
<polygon fill="midnightblue" stroke="midnightblue" points="1354.18,-7.18 1344.2,-10.75 1354.22,-14.18 1354.18,-7.18"/>
</g>
<!-- Node171&#45;&gt;Node52 -->
<g id="edge132" class="edge">
<title>Node171&#45;&gt;Node52</title>
<path fill="none" stroke="midnightblue" d="M2983.34,-174.4C2762.31,-165.36 2029.4,-135.4 1797.24,-125.91"/>
<polygon fill="midnightblue" stroke="midnightblue" points="1797.36,-122.41 1787.22,-125.5 1797.07,-129.41 1797.36,-122.41"/>
</g>
<!-- Node171&#45;&gt;Node61 -->
<g id="edge133" class="edge">
<title>Node171&#45;&gt;Node61</title>
<path fill="none" stroke="midnightblue" d="M3006.65,-168.44C2962.07,-159 2890.29,-143.8 2842.17,-133.61"/>
<polygon fill="midnightblue" stroke="midnightblue" points="2842.78,-130.16 2832.27,-131.52 2841.33,-137.01 2842.78,-130.16"/>
</g>
<!-- Node208&#45;&gt;Node9 -->
<g id="edge144" class="edge">
<title>Node208&#45;&gt;Node9</title>
<path fill="none" stroke="midnightblue" d="M2369.33,-176.59C2191.83,-174.99 1664.85,-167.39 1229.06,-132 1029.49,-115.79 977.75,-118.34 782.06,-76 718.37,-62.22 646.24,-37.74 605.54,-23.07"/>
<polygon fill="midnightblue" stroke="midnightblue" points="606.49,-19.7 595.9,-19.57 604.1,-26.27 606.49,-19.7"/>
</g>
<!-- Node208&#45;&gt;Node12 -->
<g id="edge149" class="edge">
<title>Node208&#45;&gt;Node12</title>
<path fill="none" stroke="midnightblue" d="M2383.84,-168.44C2323.22,-157.46 2219.54,-138.67 2166.48,-129.06"/>
<polygon fill="midnightblue" stroke="midnightblue" points="2167.04,-125.6 2156.58,-127.26 2165.79,-132.49 2167.04,-125.6"/>
</g>
<!-- Node208&#45;&gt;Node15 -->
<g id="edge139" class="edge">
<title>Node208&#45;&gt;Node15</title>
<path fill="none" stroke="midnightblue" d="M2492.83,-172.9C2640.5,-163.09 3013.38,-138.32 3171.45,-127.82"/>
<polygon fill="midnightblue" stroke="midnightblue" points="3171.8,-131.31 3181.54,-127.15 3171.33,-124.32 3171.8,-131.31"/>
</g>
<!-- Node208&#45;&gt;Node17 -->
<g id="edge145" class="edge">
<title>Node208&#45;&gt;Node17</title>
<path fill="none" stroke="midnightblue" d="M2462.08,-168.44C2480.09,-161.69 2501.29,-150.3 2512.06,-132 2535.13,-92.79 2485.95,-48.16 2455.61,-25.65"/>
<polygon fill="midnightblue" stroke="midnightblue" points="2457.43,-22.64 2447.26,-19.65 2453.34,-28.33 2457.43,-22.64"/>
</g>
<!-- Node208&#45;&gt;Node21 -->
<g id="edge148" class="edge">
<title>Node208&#45;&gt;Node21</title>
<path fill="none" stroke="midnightblue" d="M2466.17,-168.49C2552.88,-147.64 2784.27,-93.01 2979.06,-56 3068.2,-39.06 3174.12,-23.19 3226.45,-15.63"/>
<polygon fill="midnightblue" stroke="midnightblue" points="3227.08,-19.07 3236.48,-14.18 3226.08,-12.14 3227.08,-19.07"/>
</g>
<!-- Node208&#45;&gt;Node43 -->
<g id="edge147" class="edge">
<title>Node208&#45;&gt;Node43</title>
<path fill="none" stroke="midnightblue" d="M2417.01,-168.46C2390.63,-152.56 2334.4,-119.34 2313.06,-112 2130.73,-49.33 1517.25,-19.51 1354.8,-12.6"/>
<polygon fill="midnightblue" stroke="midnightblue" points="1354.47,-9.08 1344.33,-12.16 1354.17,-16.08 1354.47,-9.08"/>
</g>
<!-- Node208&#45;&gt;Node44 -->
<g id="edge142" class="edge">
<title>Node208&#45;&gt;Node44</title>
<path fill="none" stroke="midnightblue" d="M2369.3,-175.93C2136.87,-171.82 1292.56,-156.02 597.06,-132 558.42,-130.67 515.63,-128.81 479.42,-127.14"/>
<polygon fill="midnightblue" stroke="midnightblue" points="479.55,-123.64 469.39,-126.67 479.22,-130.63 479.55,-123.64"/>
</g>
<!-- Node208&#45;&gt;Node53 -->
<g id="edge140" class="edge">
<title>Node208&#45;&gt;Node53</title>
<path fill="none" stroke="midnightblue" d="M2369.29,-176.02C2145.18,-172.26 1382.36,-157.69 1276.06,-132 1255.57,-127.05 1252.19,-120.84 1233.06,-112 1209.51,-101.12 1182.73,-88.83 1163.13,-79.85"/>
<polygon fill="midnightblue" stroke="midnightblue" points="1164.41,-76.58 1153.86,-75.6 1161.49,-82.95 1164.41,-76.58"/>
</g>
<!-- Node208&#45;&gt;Node19 -->
<g id="edge146" class="edge">
<title>Node208&#45;&gt;Node19</title>
<path fill="none" stroke="midnightblue" d="M2410.36,-168.37C2367.96,-150.7 2275.17,-112.03 2275.06,-112 2164.17,-82.26 2027.82,-71.89 1964.49,-68.51"/>
<polygon fill="midnightblue" stroke="midnightblue" points="1964.42,-65 1954.25,-67.99 1964.06,-71.99 1964.42,-65"/>
</g>
<!-- Node208&#45;&gt;Node61 -->
<g id="edge141" class="edge">
<title>Node208&#45;&gt;Node61</title>
<path fill="none" stroke="midnightblue" d="M2488.26,-168.44C2552.55,-158.83 2656.83,-143.23 2724.93,-133.04"/>
<polygon fill="midnightblue" stroke="midnightblue" points="2725.75,-136.46 2735.12,-131.52 2724.72,-129.53 2725.75,-136.46"/>
</g>
<!-- Node208&#45;&gt;Node151 -->
<g id="edge143" class="edge">
<title>Node208&#45;&gt;Node151</title>
<path fill="none" stroke="midnightblue" d="M2369.17,-173.9C2183.78,-164.62 1633.16,-137.07 1429.19,-126.86"/>
<polygon fill="midnightblue" stroke="midnightblue" points="1429.32,-123.36 1419.16,-126.36 1428.97,-130.35 1429.32,-123.36"/>
</g>
<!-- Node222&#45;&gt;Node9 -->
<g id="edge171" class="edge">
<title>Node222&#45;&gt;Node9</title>
<path fill="none" stroke="midnightblue" d="M805,-294.7C659.13,-279.61 274.12,-230.93 203.06,-132 128.39,-28.05 366.66,-11.68 495.74,-10.2"/>
<polygon fill="midnightblue" stroke="midnightblue" points="496.01,-13.7 505.98,-10.11 495.95,-6.7 496.01,-13.7"/>
</g>
<!-- Node222&#45;&gt;Node17 -->
<g id="edge173" class="edge">
<title>Node222&#45;&gt;Node17</title>
<path fill="none" stroke="midnightblue" d="M852.76,-291.05C821.19,-255.94 713.74,-126.2 782.06,-56 811.22,-26.04 2157.71,-13.32 2397.67,-11.29"/>
<polygon fill="midnightblue" stroke="midnightblue" points="2397.97,-14.79 2407.94,-11.21 2397.91,-7.79 2397.97,-14.79"/>
</g>
<!-- Node222&#45;&gt;Node32 -->
<g id="edge172" class="edge">
<title>Node222&#45;&gt;Node32</title>
<path fill="none" stroke="midnightblue" d="M804.63,-292.52C759.35,-285.56 694.57,-273.47 640.06,-255 556.28,-226.62 544.58,-197.13 461.06,-168 391.41,-143.71 345.21,-189.53 299.06,-132 288.5,-118.84 293.17,-99.16 298.98,-84.9"/>
<polygon fill="midnightblue" stroke="midnightblue" points="302.23,-86.2 303.21,-75.65 295.87,-83.29 302.23,-86.2"/>
</g>
<!-- Node222&#45;&gt;Node46 -->
<g id="edge164" class="edge">
<title>Node222&#45;&gt;Node46</title>
<path fill="none" stroke="midnightblue" d="M917.11,-299.51C1002.81,-297.61 1171,-289.37 1309.06,-255 1368.77,-240.13 1434.52,-209.66 1469.62,-192.16"/>
<polygon fill="midnightblue" stroke="midnightblue" points="1471.33,-195.22 1478.68,-187.59 1468.17,-188.97 1471.33,-195.22"/>
</g>
<!-- Node222&#45;&gt;Node51 -->
<g id="edge165" class="edge">
<title>Node222&#45;&gt;Node51</title>
<path fill="none" stroke="midnightblue" d="M804.95,-298.32C630.99,-291.75 106.77,-261.37 13.06,-132 -6.76,-104.65 -0.98,-86.72 13.06,-56 18.83,-43.36 30.11,-32.91 40.69,-25.27"/>
<polygon fill="midnightblue" stroke="midnightblue" points="42.91,-28 49.27,-19.53 39.02,-22.18 42.91,-28"/>
</g>
<!-- Node222&#45;&gt;Node52 -->
<g id="edge167" class="edge">
<title>Node222&#45;&gt;Node52</title>
<path fill="none" stroke="midnightblue" d="M917.4,-297.76C1014.4,-293.25 1208.56,-281.19 1271.06,-255 1291.16,-246.58 1290.61,-235.62 1309.06,-224 1358.52,-192.85 1372.13,-184.99 1428.06,-168 1503.54,-145.07 1593.48,-133.54 1654.67,-127.94"/>
<polygon fill="midnightblue" stroke="midnightblue" points="1655.34,-131.39 1664.99,-127.02 1654.72,-124.42 1655.34,-131.39"/>
</g>
<!-- Node222&#45;&gt;Node53 -->
<g id="edge166" class="edge">
<title>Node222&#45;&gt;Node53</title>
<path fill="none" stroke="midnightblue" d="M866.31,-291.36C875.57,-276.53 895.94,-245.74 918.06,-224 980.95,-162.18 1069.76,-105.79 1111.56,-80.71"/>
<polygon fill="midnightblue" stroke="midnightblue" points="1113.4,-83.69 1120.21,-75.57 1109.82,-77.67 1113.4,-83.69"/>
</g>
<!-- Node222&#45;&gt;Node19 -->
<g id="edge174" class="edge">
<title>Node222&#45;&gt;Node19</title>
<path fill="none" stroke="midnightblue" d="M897.48,-291.48C935.03,-282.63 995.23,-268.25 1047.06,-255 1191.1,-218.18 1225.24,-201.64 1370.06,-168 1496.22,-138.69 1528.59,-134.98 1656.06,-112 1741.19,-96.65 1841.65,-80.63 1893.74,-72.47"/>
<polygon fill="midnightblue" stroke="midnightblue" points="1894.46,-75.91 1903.8,-70.9 1893.38,-68.99 1894.46,-75.91"/>
</g>
<!-- Node222&#45;&gt;Node125 -->
<g id="edge170" class="edge">
<title>Node222&#45;&gt;Node125</title>
<path fill="none" stroke="midnightblue" d="M917.2,-295.98C1062.91,-285.55 1453.22,-257.6 1617.53,-245.84"/>
<polygon fill="midnightblue" stroke="midnightblue" points="1617.82,-249.32 1627.55,-245.12 1617.32,-242.34 1617.82,-249.32"/>
</g>
<!-- Node222&#45;&gt;Node61 -->
<g id="edge168" class="edge">
<title>Node222&#45;&gt;Node61</title>
<path fill="none" stroke="midnightblue" d="M917.14,-298.48C984.37,-296.67 1100.44,-293.56 1200.06,-291 1361.28,-286.86 2492.62,-285.12 2651.06,-255 2736.15,-238.82 2784.45,-259 2834.06,-188 2845.85,-171.12 2828.47,-151.15 2812.61,-137.84"/>
<polygon fill="midnightblue" stroke="midnightblue" points="2814.65,-134.99 2804.63,-131.54 2810.31,-140.48 2814.65,-134.99"/>
</g>
<!-- Node223 -->
<g id="node45" class="node">
<title>Node223</title>
<g id="a_node45"><a xlink:href="APFloat_8h.html" target="_top" xlink:title=" ">
<polygon fill="none" stroke="red" points="927.56,-230 927.56,-249 1038.56,-249 1038.56,-230 927.56,-230"/>
<text text-anchor="middle" x="983.06" y="-237" font-family="Helvetica,sans-Serif" font-size="10.00">llvm/ADT/APFloat.h</text>
</a>
</g>
</g>
<!-- Node222&#45;&gt;Node223 -->
<g id="edge155" class="edge">
<title>Node222&#45;&gt;Node223</title>
<path fill="none" stroke="midnightblue" d="M878.54,-291.48C898.92,-281.53 932.83,-264.99 956.48,-253.46"/>
<polygon fill="midnightblue" stroke="midnightblue" points="958.16,-256.54 965.61,-249.01 955.09,-250.25 958.16,-256.54"/>
</g>
<!-- Node192 -->
<g id="node46" class="node">
<title>Node192</title>
<g id="a_node46"><a xlink:href="APInt_8h.html" target="_top" xlink:title=" ">
<polygon fill="none" stroke="red" points="791.56,-56.5 791.56,-75.5 890.56,-75.5 890.56,-56.5 791.56,-56.5"/>
<text text-anchor="middle" x="841.06" y="-63.5" font-family="Helvetica,sans-Serif" font-size="10.00">llvm/ADT/APInt.h</text>
</a>
</g>
</g>
<!-- Node222&#45;&gt;Node192 -->
<g id="edge163" class="edge">
<title>Node222&#45;&gt;Node192</title>
<path fill="none" stroke="midnightblue" d="M860.32,-291.43C857.43,-257.75 846.81,-133.99 842.7,-86.1"/>
<polygon fill="midnightblue" stroke="midnightblue" points="846.16,-85.56 841.82,-75.9 839.19,-86.16 846.16,-85.56"/>
</g>
<!-- Node106 -->
<g id="node47" class="node">
<title>Node106</title>
<g id="a_node47"><a xlink:href="Constant_8h.html" target="_top" xlink:title=" ">
<polygon fill="none" stroke="red" points="649.56,-230 649.56,-249 756.56,-249 756.56,-230 649.56,-230"/>
<text text-anchor="middle" x="703.06" y="-237" font-family="Helvetica,sans-Serif" font-size="10.00">llvm/IR/Constant.h</text>
</a>
</g>
</g>
<!-- Node222&#45;&gt;Node106 -->
<g id="edge169" class="edge">
<title>Node222&#45;&gt;Node106</title>
<path fill="none" stroke="midnightblue" d="M838.42,-291.48C811.32,-281.27 765.75,-264.11 735.05,-252.55"/>
<polygon fill="midnightblue" stroke="midnightblue" points="736.24,-249.26 725.65,-249.01 733.78,-255.81 736.24,-249.26"/>
</g>
<!-- Node223&#45;&gt;Node43 -->
<g id="edge162" class="edge">
<title>Node223&#45;&gt;Node43</title>
<path fill="none" stroke="midnightblue" d="M959.43,-230C893.24,-205 715.08,-128.87 782.06,-56 815.31,-19.82 1157.88,-12.71 1275.59,-11.33"/>
<polygon fill="midnightblue" stroke="midnightblue" points="1275.98,-14.82 1285.94,-11.21 1275.9,-7.82 1275.98,-14.82"/>
</g>
<!-- Node223&#45;&gt;Node32 -->
<g id="edge161" class="edge">
<title>Node223&#45;&gt;Node32</title>
<path fill="none" stroke="midnightblue" d="M943.57,-229.95C876.51,-215.64 735.95,-186.59 616.06,-168 548.83,-157.58 358.78,-181.44 312.06,-132 300.67,-119.95 301.02,-100.38 303.39,-85.86"/>
<polygon fill="midnightblue" stroke="midnightblue" points="306.84,-86.45 305.44,-75.94 299.99,-85.03 306.84,-86.45"/>
</g>
<!-- Node223&#45;&gt;Node46 -->
<g id="edge160" class="edge">
<title>Node223&#45;&gt;Node46</title>
<path fill="none" stroke="midnightblue" d="M1038.83,-232.02C1133.29,-221.04 1324.47,-198.82 1426.79,-186.93"/>
<polygon fill="midnightblue" stroke="midnightblue" points="1427.48,-190.38 1437.01,-185.75 1426.67,-183.42 1427.48,-190.38"/>
</g>
<!-- Node223&#45;&gt;Node192 -->
<g id="edge156" class="edge">
<title>Node223&#45;&gt;Node192</title>
<path fill="none" stroke="midnightblue" d="M962.64,-229.9C944.56,-221.43 918.41,-207.02 901.06,-188 872.97,-157.22 854.97,-110.87 846.58,-85.39"/>
<polygon fill="midnightblue" stroke="midnightblue" points="849.83,-84.06 843.49,-75.58 843.15,-86.16 849.83,-84.06"/>
</g>
<!-- Node192&#45;&gt;Node9 -->
<g id="edge157" class="edge">
<title>Node192&#45;&gt;Node9</title>
<path fill="none" stroke="midnightblue" d="M798.59,-56.44C751.64,-46.98 675.98,-31.74 625.4,-21.55"/>
<polygon fill="midnightblue" stroke="midnightblue" points="625.82,-18.06 615.32,-19.52 624.44,-24.92 625.82,-18.06"/>
</g>
<!-- Node192&#45;&gt;Node17 -->
<g id="edge158" class="edge">
<title>Node192&#45;&gt;Node17</title>
<path fill="none" stroke="midnightblue" d="M890.61,-57.48C895.48,-56.91 900.36,-56.4 905.06,-56 1208.57,-30.27 2195.86,-14.52 2397.78,-11.52"/>
<polygon fill="midnightblue" stroke="midnightblue" points="2397.91,-15.02 2407.86,-11.37 2397.81,-8.02 2397.91,-15.02"/>
</g>
<!-- Node192&#45;&gt;Node21 -->
<g id="edge159" class="edge">
<title>Node192&#45;&gt;Node21</title>
<path fill="none" stroke="midnightblue" d="M890.64,-62.76C936.63,-60.75 1006.95,-57.84 1068.06,-56 1947.46,-29.54 3025.89,-14.16 3226.23,-11.44"/>
<polygon fill="midnightblue" stroke="midnightblue" points="3226.44,-14.94 3236.39,-11.3 3226.34,-7.94 3226.44,-14.94"/>
</g>
<!-- Node224&#45;&gt;Node12 -->
<g id="edge183" class="edge">
<title>Node224&#45;&gt;Node12</title>
<path fill="none" stroke="midnightblue" d="M1694.15,-291.5C1721.3,-283.04 1763.43,-269.31 1799.06,-255 1883.75,-220.99 1899.85,-200.69 1985.06,-168 2023.52,-153.24 2069.04,-140.01 2099.34,-131.78"/>
<polygon fill="midnightblue" stroke="midnightblue" points="2100.63,-135.05 2109.38,-129.08 2098.82,-128.29 2100.63,-135.05"/>
</g>
<!-- Node224&#45;&gt;Node17 -->
<g id="edge181" class="edge">
<title>Node224&#45;&gt;Node17</title>
<path fill="none" stroke="midnightblue" d="M1722.99,-297.33C1764.79,-295.42 1822.95,-292.87 1874.06,-291 2410.83,-271.39 2547.02,-302.3 3082.06,-255 3176.04,-246.69 3198.48,-236.04 3292.06,-224 3364.78,-214.64 3571.12,-242.6 3620.06,-188 3691.61,-108.17 3262.06,-71.97 3156.06,-56 2895.22,-16.7 2576.38,-11.6 2470.3,-11.03"/>
<polygon fill="midnightblue" stroke="midnightblue" points="2470.15,-7.53 2460.13,-10.99 2470.12,-14.53 2470.15,-7.53"/>
</g>
<!-- Node224&#45;&gt;Node46 -->
<g id="edge176" class="edge">
<title>Node224&#45;&gt;Node46</title>
<path fill="none" stroke="midnightblue" d="M1648.41,-291.45C1631.6,-283.02 1605.84,-269.35 1585.06,-255 1557.87,-236.23 1529.15,-210.88 1511.66,-194.73"/>
<polygon fill="midnightblue" stroke="midnightblue" points="1513.74,-191.88 1504.04,-187.62 1508.96,-197 1513.74,-191.88"/>
</g>
<!-- Node224&#45;&gt;Node51 -->
<g id="edge177" class="edge">
<title>Node224&#45;&gt;Node51</title>
<path fill="none" stroke="midnightblue" d="M1609.4,-296.36C1583.4,-294.7 1552.17,-292.73 1524.06,-291 1254.76,-274.47 1185.6,-289.88 918.06,-255 849.26,-246.03 833.22,-236.96 765.06,-224 535.35,-180.34 468.77,-206.29 247.06,-132 195.04,-114.57 182.25,-107.09 137.06,-76 115.95,-61.48 94.5,-41.26 80.57,-27.24"/>
<polygon fill="midnightblue" stroke="midnightblue" points="82.79,-24.51 73.3,-19.8 77.78,-29.4 82.79,-24.51"/>
</g>
<!-- Node224&#45;&gt;Node52 -->
<g id="edge179" class="edge">
<title>Node224&#45;&gt;Node52</title>
<path fill="none" stroke="midnightblue" d="M1651.69,-291.33C1640.18,-283.47 1624.87,-270.72 1618.06,-255 1612.58,-242.36 1612.57,-236.64 1618.06,-224 1635.06,-184.82 1675.58,-153.9 1701.87,-137.06"/>
<polygon fill="midnightblue" stroke="midnightblue" points="1703.86,-139.95 1710.51,-131.7 1700.17,-134 1703.86,-139.95"/>
</g>
<!-- Node224&#45;&gt;Node53 -->
<g id="edge178" class="edge">
<title>Node224&#45;&gt;Node53</title>
<path fill="none" stroke="midnightblue" d="M1616.58,-291.46C1525.51,-273.91 1328.01,-227.18 1190.06,-132 1171.69,-119.33 1155.86,-99 1145.96,-84.46"/>
<polygon fill="midnightblue" stroke="midnightblue" points="1148.75,-82.32 1140.35,-75.87 1142.89,-86.15 1148.75,-82.32"/>
</g>
<!-- Node224&#45;&gt;Node19 -->
<g id="edge182" class="edge">
<title>Node224&#45;&gt;Node19</title>
<path fill="none" stroke="midnightblue" d="M1701.91,-291.38C1722.88,-284.65 1748.42,-273.3 1765.06,-255 1792.58,-224.74 1771.01,-201.09 1795.06,-168 1803.19,-156.81 1873,-106.64 1908.5,-81.48"/>
<polygon fill="midnightblue" stroke="midnightblue" points="1910.58,-84.3 1916.73,-75.66 1906.54,-78.58 1910.58,-84.3"/>
</g>
<!-- Node224&#45;&gt;Node125 -->
<g id="edge180" class="edge">
<title>Node224&#45;&gt;Node125</title>
<path fill="none" stroke="midnightblue" d="M1669.78,-291.48C1673.53,-282.9 1679.42,-269.43 1684.2,-258.48"/>
<polygon fill="midnightblue" stroke="midnightblue" points="1687.54,-259.57 1688.34,-249.01 1681.13,-256.77 1687.54,-259.57"/>
</g>
<!-- Node225&#45;&gt;Node53 -->
<g id="edge185" class="edge">
<title>Node225&#45;&gt;Node53</title>
<path fill="none" stroke="midnightblue" d="M284.35,-470.5C282.76,-450.76 279.06,-400.28 279.06,-358 279.06,-358 279.06,-358 279.06,-300 279.06,-136.98 864.4,-84.24 1067.01,-70.87"/>
<polygon fill="midnightblue" stroke="midnightblue" points="1067.48,-74.35 1077.23,-70.21 1067.02,-67.36 1067.48,-74.35"/>
</g>
<!-- Node228&#45;&gt;Node12 -->
<g id="edge196" class="edge">
<title>Node228&#45;&gt;Node12</title>
<path fill="none" stroke="midnightblue" d="M2532.12,-229.97C2521.28,-227.99 2509.77,-225.9 2499.06,-224 2405.82,-207.45 2380,-214.38 2289.06,-188 2288.96,-187.97 2208.41,-154.4 2163.11,-135.53"/>
<polygon fill="midnightblue" stroke="midnightblue" points="2164.33,-132.24 2153.76,-131.63 2161.64,-138.7 2164.33,-132.24"/>
</g>
<!-- Node228&#45;&gt;Node15 -->
<g id="edge188" class="edge">
<title>Node228&#45;&gt;Node15</title>
<path fill="none" stroke="midnightblue" d="M2642.74,-235.15C2818.22,-225.92 3290.87,-200 3302.06,-188 3318.38,-170.5 3292.38,-149.81 3270.13,-136.55"/>
<polygon fill="midnightblue" stroke="midnightblue" points="3271.69,-133.41 3261.27,-131.52 3268.24,-139.5 3271.69,-133.41"/>
</g>
<!-- Node228&#45;&gt;Node17 -->
<g id="edge192" class="edge">
<title>Node228&#45;&gt;Node17</title>
<path fill="none" stroke="midnightblue" d="M2642.87,-233.71C2742.58,-223.68 2916.52,-194.13 2860.06,-112 2815.54,-47.24 2565,-21.2 2470.31,-13.58"/>
<polygon fill="midnightblue" stroke="midnightblue" points="2470.32,-10.07 2460.07,-12.78 2469.77,-17.05 2470.32,-10.07"/>
</g>
<!-- Node228&#45;&gt;Node21 -->
<g id="edge195" class="edge">
<title>Node228&#45;&gt;Node21</title>
<path fill="none" stroke="midnightblue" d="M2642.74,-235.76C2817.82,-228.13 3289.78,-205.99 3318.06,-188 3368.9,-155.65 3380.74,-107.26 3349.06,-56 3336.57,-35.79 3311.94,-24.35 3291.6,-18.07"/>
<polygon fill="midnightblue" stroke="midnightblue" points="3292.31,-14.63 3281.74,-15.31 3290.43,-21.37 3292.31,-14.63"/>
</g>
<!-- Node228&#45;&gt;Node41 -->
<g id="edge190" class="edge">
<title>Node228&#45;&gt;Node41</title>
<path fill="none" stroke="midnightblue" d="M2532.16,-229.99C2460.01,-216.57 2327.15,-191.61 2317.06,-188 2299.46,-181.71 2296.83,-176.25 2280.06,-168 2244.7,-150.62 2234.09,-150.02 2199.06,-132 2183.47,-123.98 2181.85,-117.05 2165.06,-112 2021.47,-68.79 1571.39,-65.81 1390.97,-66.43"/>
<polygon fill="midnightblue" stroke="midnightblue" points="1390.76,-62.93 1380.78,-66.47 1390.79,-69.93 1390.76,-62.93"/>
</g>
<!-- Node228&#45;&gt;Node43 -->
<g id="edge194" class="edge">
<title>Node228&#45;&gt;Node43</title>
<path fill="none" stroke="midnightblue" d="M2515.45,-229.97C2447.33,-220.49 2335.26,-204.37 2239.06,-188 1894.9,-129.43 1481.31,-45.28 1354.15,-19.09"/>
<polygon fill="midnightblue" stroke="midnightblue" points="1354.61,-15.61 1344.11,-17.02 1353.19,-22.47 1354.61,-15.61"/>
</g>
<!-- Node228&#45;&gt;Node46 -->
<g id="edge187" class="edge">
<title>Node228&#45;&gt;Node46</title>
<path fill="none" stroke="midnightblue" d="M2513.5,-234.07C2468.08,-231.02 2405.87,-227.01 2351.06,-224 2002.77,-204.88 1914.61,-217.66 1567.06,-188 1565.79,-187.89 1564.5,-187.78 1563.21,-187.66"/>
<polygon fill="midnightblue" stroke="midnightblue" points="1563.47,-184.17 1553.18,-186.66 1562.78,-191.13 1563.47,-184.17"/>
</g>
<!-- Node228&#45;&gt;Node53 -->
<g id="edge189" class="edge">
<title>Node228&#45;&gt;Node53</title>
<path fill="none" stroke="midnightblue" d="M2513.38,-234.29C2253.23,-217.21 1294.26,-153.12 1233.06,-132 1201.74,-121.19 1170.74,-97.96 1152.25,-82.41"/>
<polygon fill="midnightblue" stroke="midnightblue" points="1154.3,-79.56 1144.45,-75.67 1149.73,-84.86 1154.3,-79.56"/>
</g>
<!-- Node228&#45;&gt;Node19 -->
<g id="edge193" class="edge">
<title>Node228&#45;&gt;Node19</title>
<path fill="none" stroke="midnightblue" d="M2536.5,-229.98C2482.76,-218.77 2392.26,-199.19 2360.06,-188 2350.71,-184.75 2208.52,-114.88 2199.06,-112 2098.98,-81.59 2066.29,-98.46 1963.99,-76.95"/>
<polygon fill="midnightblue" stroke="midnightblue" points="1964.71,-73.53 1954.2,-74.83 1963.22,-80.37 1964.71,-73.53"/>
</g>
<!-- Node228&#45;&gt;Node61 -->
<g id="edge191" class="edge">
<title>Node228&#45;&gt;Node61</title>
<path fill="none" stroke="midnightblue" d="M2642.61,-233.84C2705.74,-227.78 2795.46,-214.64 2817.06,-188 2828.53,-173.85 2817.83,-153.83 2807.09,-139.76"/>
<polygon fill="midnightblue" stroke="midnightblue" points="2809.65,-137.36 2800.59,-131.87 2804.25,-141.81 2809.65,-137.36"/>
</g>
</g>
</svg>
