<?xml version="1.0" encoding="UTF-8" standalone="no"?>
<!DOCTYPE svg PUBLIC "-//W3C//DTD SVG 1.1//EN"
 "http://www.w3.org/Graphics/SVG/1.1/DTD/svg11.dtd">
<!-- Generated by graphviz version 2.43.0 (0)
 -->
<!-- Title: lib/Target/X86/MCTargetDesc/X86ELFObjectWriter.cpp Pages: 1 -->
<svg width="5119pt" height="274pt"
 viewBox="0.00 0.00 5118.62 274.00" xmlns="http://www.w3.org/2000/svg" xmlns:xlink="http://www.w3.org/1999/xlink">
<g id="graph0" class="graph" transform="scale(1 1) rotate(0) translate(4 270)">
<title>lib/Target/X86/MCTargetDesc/X86ELFObjectWriter.cpp</title>
<!-- Node1 -->
<g id="node1" class="node">
<title>Node1</title>
<g id="a_node1"><a xlink:title=" ">
<polygon fill="#bfbfbf" stroke="black" points="1527,-235.5 1527,-265.5 1683,-265.5 1683,-235.5 1527,-235.5"/>
<text text-anchor="start" x="1535" y="-253.5" font-family="Helvetica,sans-Serif" font-size="10.00">lib/Target/X86/MCTargetDesc</text>
<text text-anchor="middle" x="1605" y="-242.5" font-family="Helvetica,sans-Serif" font-size="10.00">/X86ELFObjectWriter.cpp</text>
</a>
</g>
</g>
<!-- Node2 -->
<g id="node2" class="node">
<title>Node2</title>
<g id="a_node2"><a xlink:href="X86FixupKinds_8h.html" target="_top" xlink:title=" ">
<polygon fill="none" stroke="black" points="549,-179.5 549,-198.5 719,-198.5 719,-179.5 549,-179.5"/>
<text text-anchor="middle" x="634" y="-186.5" font-family="Helvetica,sans-Serif" font-size="10.00">MCTargetDesc/X86FixupKinds.h</text>
</a>
</g>
</g>
<!-- Node1&#45;&gt;Node2 -->
<g id="edge1" class="edge">
<title>Node1&#45;&gt;Node2</title>
<path fill="none" stroke="midnightblue" d="M1526.77,-244.71C1350.19,-233.89 921.19,-207.6 729.4,-195.85"/>
<polygon fill="midnightblue" stroke="midnightblue" points="729.53,-192.35 719.33,-195.23 729.1,-199.33 729.53,-192.35"/>
</g>
<!-- Node3 -->
<g id="node3" class="node">
<title>Node3</title>
<g id="a_node3"><a xlink:href="MCFixup_8h.html" target="_top" xlink:title=" ">
<polygon fill="none" stroke="red" points="334.5,-118 334.5,-137 445.5,-137 445.5,-118 334.5,-118"/>
<text text-anchor="middle" x="390" y="-125" font-family="Helvetica,sans-Serif" font-size="10.00">llvm/MC/MCFixup.h</text>
</a>
</g>
</g>
<!-- Node1&#45;&gt;Node3 -->
<g id="edge72" class="edge">
<title>Node1&#45;&gt;Node3</title>
<path fill="none" stroke="midnightblue" d="M1526.81,-249.73C1313.83,-249.74 726.95,-245.42 540,-199 491.83,-187.04 440.47,-159.19 412.09,-142.29"/>
<polygon fill="midnightblue" stroke="midnightblue" points="413.75,-139.21 403.38,-137.02 410.12,-145.19 413.75,-139.21"/>
</g>
<!-- Node9 -->
<g id="node4" class="node">
<title>Node9</title>
<g id="a_node4"><a xlink:href="Support_2ErrorHandling_8h.html" target="_top" xlink:title=" ">
<polygon fill="none" stroke="red" points="0,-56.5 0,-75.5 158,-75.5 158,-56.5 0,-56.5"/>
<text text-anchor="middle" x="79" y="-63.5" font-family="Helvetica,sans-Serif" font-size="10.00">llvm/Support/ErrorHandling.h</text>
</a>
</g>
</g>
<!-- Node1&#45;&gt;Node9 -->
<g id="edge76" class="edge">
<title>Node1&#45;&gt;Node9</title>
<path fill="none" stroke="midnightblue" d="M1526.75,-248.75C1306.13,-246.19 682.15,-235.83 481,-199 336.67,-172.57 172.83,-107.02 107.8,-79.49"/>
<polygon fill="midnightblue" stroke="midnightblue" points="109.15,-76.26 98.58,-75.56 106.4,-82.7 109.15,-76.26"/>
</g>
<!-- Node15 -->
<g id="node5" class="node">
<title>Node15</title>
<g id="a_node5"><a xlink:title=" ">
<polygon fill="none" stroke="#bfbfbf" points="1492,-0.5 1492,-19.5 1544,-19.5 1544,-0.5 1492,-0.5"/>
<text text-anchor="middle" x="1518" y="-7.5" font-family="Helvetica,sans-Serif" font-size="10.00">cassert</text>
</a>
</g>
</g>
<!-- Node1&#45;&gt;Node15 -->
<g id="edge77" class="edge">
<title>Node1&#45;&gt;Node15</title>
<path fill="none" stroke="midnightblue" d="M1526.95,-240.03C1372.14,-219.46 1035.23,-165.26 967,-76 961.6,-68.94 960.98,-62.54 967,-56 984.48,-37.03 1361.28,-18.18 1481.49,-12.63"/>
<polygon fill="midnightblue" stroke="midnightblue" points="1481.83,-16.12 1491.66,-12.17 1481.51,-9.13 1481.83,-16.12"/>
</g>
<!-- Node16 -->
<g id="node6" class="node">
<title>Node16</title>
<g id="a_node6"><a xlink:href="X86MCTargetDesc_8h.html" target="_top" xlink:title=" ">
<polygon fill="none" stroke="black" points="540,-112.5 540,-142.5 694,-142.5 694,-112.5 540,-112.5"/>
<text text-anchor="start" x="548" y="-130.5" font-family="Helvetica,sans-Serif" font-size="10.00">MCTargetDesc/X86MCTarget</text>
<text text-anchor="middle" x="617" y="-119.5" font-family="Helvetica,sans-Serif" font-size="10.00">Desc.h</text>
</a>
</g>
</g>
<!-- Node1&#45;&gt;Node16 -->
<g id="edge5" class="edge">
<title>Node1&#45;&gt;Node16</title>
<path fill="none" stroke="midnightblue" d="M1526.85,-247.26C1401.28,-242.85 1147.07,-230.54 934,-199 844.53,-185.75 742.72,-161.43 679.16,-145.11"/>
<polygon fill="midnightblue" stroke="midnightblue" points="679.85,-141.67 669.29,-142.56 678.1,-148.45 679.85,-141.67"/>
</g>
<!-- Node23 -->
<g id="node13" class="node">
<title>Node23</title>
<g id="a_node13"><a xlink:href="BinaryFormat_2ELF_8h.html" target="_top" xlink:title=" ">
<polygon fill="none" stroke="black" points="3476.5,-118 3476.5,-137 3611.5,-137 3611.5,-118 3476.5,-118"/>
<text text-anchor="middle" x="3544" y="-125" font-family="Helvetica,sans-Serif" font-size="10.00">llvm/BinaryFormat/ELF.h</text>
</a>
</g>
</g>
<!-- Node1&#45;&gt;Node23 -->
<g id="edge12" class="edge">
<title>Node1&#45;&gt;Node23</title>
<path fill="none" stroke="midnightblue" d="M1683.11,-244.63C1995.62,-225.12 3154.05,-152.83 3466.13,-133.36"/>
<polygon fill="midnightblue" stroke="midnightblue" points="3466.67,-136.83 3476.43,-132.72 3466.23,-129.85 3466.67,-136.83"/>
</g>
<!-- Node27 -->
<g id="node16" class="node">
<title>Node27</title>
<g id="a_node16"><a xlink:title=" ">
<polygon fill="none" stroke="#bfbfbf" points="5047,-56.5 5047,-75.5 5097,-75.5 5097,-56.5 5047,-56.5"/>
<text text-anchor="middle" x="5072" y="-63.5" font-family="Helvetica,sans-Serif" font-size="10.00">cstdint</text>
</a>
</g>
</g>
<!-- Node1&#45;&gt;Node27 -->
<g id="edge78" class="edge">
<title>Node1&#45;&gt;Node27</title>
<path fill="none" stroke="midnightblue" d="M1683.18,-249.02C2047.38,-246.61 3580.11,-234.5 4058,-199 4443.29,-170.38 4906.32,-95.02 5036.46,-73.08"/>
<polygon fill="midnightblue" stroke="midnightblue" points="5037.36,-76.48 5046.64,-71.36 5036.19,-69.57 5037.36,-76.48"/>
</g>
<!-- Node59 -->
<g id="node39" class="node">
<title>Node59</title>
<g id="a_node39"><a xlink:href="MCAsmInfo_8h.html" target="_top" xlink:title=" ">
<polygon fill="none" stroke="black" points="1283.5,-118 1283.5,-137 1408.5,-137 1408.5,-118 1283.5,-118"/>
<text text-anchor="middle" x="1346" y="-125" font-family="Helvetica,sans-Serif" font-size="10.00">llvm/MC/MCAsmInfo.h</text>
</a>
</g>
</g>
<!-- Node1&#45;&gt;Node59 -->
<g id="edge41" class="edge">
<title>Node1&#45;&gt;Node59</title>
<path fill="none" stroke="midnightblue" d="M1574.78,-235.38C1524.1,-211.7 1422.7,-164.33 1373.73,-141.46"/>
<polygon fill="midnightblue" stroke="midnightblue" points="1374.93,-138.15 1364.39,-137.09 1371.97,-144.5 1374.93,-138.15"/>
</g>
<!-- Node81 -->
<g id="node43" class="node">
<title>Node81</title>
<g id="a_node43"><a xlink:href="MCContext_8h.html" target="_top" xlink:title=" ">
<polygon fill="none" stroke="red" points="1543.5,-118 1543.5,-137 1666.5,-137 1666.5,-118 1543.5,-118"/>
<text text-anchor="middle" x="1605" y="-125" font-family="Helvetica,sans-Serif" font-size="10.00">llvm/MC/MCContext.h</text>
</a>
</g>
</g>
<!-- Node1&#45;&gt;Node81 -->
<g id="edge48" class="edge">
<title>Node1&#45;&gt;Node81</title>
<path fill="none" stroke="midnightblue" d="M1605,-235.14C1605,-213.2 1605,-171.33 1605,-147.09"/>
<polygon fill="midnightblue" stroke="midnightblue" points="1608.5,-147.05 1605,-137.05 1601.5,-147.05 1608.5,-147.05"/>
</g>
<!-- Node145 -->
<g id="node47" class="node">
<title>Node145</title>
<g id="a_node47"><a xlink:href="MCELFObjectWriter_8h.html" target="_top" xlink:title=" ">
<polygon fill="none" stroke="red" points="3865.5,-179.5 3865.5,-198.5 4028.5,-198.5 4028.5,-179.5 3865.5,-179.5"/>
<text text-anchor="middle" x="3947" y="-186.5" font-family="Helvetica,sans-Serif" font-size="10.00">llvm/MC/MCELFObjectWriter.h</text>
</a>
</g>
</g>
<!-- Node1&#45;&gt;Node145 -->
<g id="edge63" class="edge">
<title>Node1&#45;&gt;Node145</title>
<path fill="none" stroke="midnightblue" d="M1683.26,-247.51C2035.82,-238.55 3475.86,-201.97 3855.11,-192.33"/>
<polygon fill="midnightblue" stroke="midnightblue" points="3855.3,-195.83 3865.21,-192.08 3855.13,-188.83 3855.3,-195.83"/>
</g>
<!-- Node146 -->
<g id="node48" class="node">
<title>Node146</title>
<g id="a_node48"><a xlink:href="MCObjectWriter_8h.html" target="_top" xlink:title=" ">
<polygon fill="none" stroke="red" points="3984,-118 3984,-137 4130,-137 4130,-118 3984,-118"/>
<text text-anchor="middle" x="4057" y="-125" font-family="Helvetica,sans-Serif" font-size="10.00">llvm/MC/MCObjectWriter.h</text>
</a>
</g>
</g>
<!-- Node1&#45;&gt;Node146 -->
<g id="edge73" class="edge">
<title>Node1&#45;&gt;Node146</title>
<path fill="none" stroke="midnightblue" d="M1683.23,-249.16C2094.63,-247.19 3990.55,-236.14 4038,-199 4053.41,-186.94 4057.14,-163.79 4057.68,-147.31"/>
<polygon fill="midnightblue" stroke="midnightblue" points="4061.18,-147.17 4057.64,-137.18 4054.18,-147.19 4061.18,-147.17"/>
</g>
<!-- Node148 -->
<g id="node49" class="node">
<title>Node148</title>
<g id="a_node49"><a xlink:href="MCExpr_8h.html" target="_top" xlink:title=" ">
<polygon fill="none" stroke="red" points="1844,-118 1844,-137 1950,-137 1950,-118 1844,-118"/>
<text text-anchor="middle" x="1897" y="-125" font-family="Helvetica,sans-Serif" font-size="10.00">llvm/MC/MCExpr.h</text>
</a>
</g>
</g>
<!-- Node1&#45;&gt;Node148 -->
<g id="edge69" class="edge">
<title>Node1&#45;&gt;Node148</title>
<path fill="none" stroke="midnightblue" d="M1627.81,-235.36C1653.25,-220 1695.97,-195.48 1735,-179 1773.86,-162.59 1819.93,-148.74 1852.99,-139.72"/>
<polygon fill="midnightblue" stroke="midnightblue" points="1854.06,-143.05 1862.81,-137.08 1852.24,-136.29 1854.06,-143.05"/>
</g>
<!-- Node152 -->
<g id="node50" class="node">
<title>Node152</title>
<g id="a_node50"><a xlink:href="MCValue_8h.html" target="_top" xlink:title=" ">
<polygon fill="none" stroke="red" points="1744,-179.5 1744,-198.5 1856,-198.5 1856,-179.5 1744,-179.5"/>
<text text-anchor="middle" x="1800" y="-186.5" font-family="Helvetica,sans-Serif" font-size="10.00">llvm/MC/MCValue.h</text>
</a>
</g>
</g>
<!-- Node1&#45;&gt;Node152 -->
<g id="edge74" class="edge">
<title>Node1&#45;&gt;Node152</title>
<path fill="none" stroke="midnightblue" d="M1651.21,-235.4C1685.05,-225.07 1730.42,-211.23 1762.13,-201.56"/>
<polygon fill="midnightblue" stroke="midnightblue" points="1763.37,-204.84 1771.91,-198.57 1761.32,-198.14 1763.37,-204.84"/>
</g>
<!-- Node2&#45;&gt;Node3 -->
<g id="edge2" class="edge">
<title>Node2&#45;&gt;Node3</title>
<path fill="none" stroke="midnightblue" d="M599.04,-179.48C555.83,-168.94 482.21,-150.99 434.87,-139.44"/>
<polygon fill="midnightblue" stroke="midnightblue" points="435.44,-135.98 424.89,-137.01 433.78,-142.78 435.44,-135.98"/>
</g>
<!-- Node3&#45;&gt;Node9 -->
<g id="edge3" class="edge">
<title>Node3&#45;&gt;Node9</title>
<path fill="none" stroke="midnightblue" d="M345.44,-117.98C289.55,-107.28 193.77,-88.96 133.56,-77.44"/>
<polygon fill="midnightblue" stroke="midnightblue" points="133.96,-73.95 123.48,-75.51 132.64,-80.83 133.96,-73.95"/>
</g>
<!-- Node3&#45;&gt;Node15 -->
<g id="edge4" class="edge">
<title>Node3&#45;&gt;Node15</title>
<path fill="none" stroke="midnightblue" d="M334.48,-122.87C265.88,-116.46 163.02,-99.44 205,-56 207.85,-53.05 1269.95,-18.93 1481.58,-12.16"/>
<polygon fill="midnightblue" stroke="midnightblue" points="1481.95,-15.65 1491.83,-11.84 1481.73,-8.66 1481.95,-15.65"/>
</g>
<!-- Node17 -->
<g id="node7" class="node">
<title>Node17</title>
<g id="a_node7"><a xlink:title=" ">
<polygon fill="none" stroke="#bfbfbf" points="862,-56.5 862,-75.5 920,-75.5 920,-56.5 862,-56.5"/>
<text text-anchor="middle" x="891" y="-63.5" font-family="Helvetica,sans-Serif" font-size="10.00">memory</text>
</a>
</g>
</g>
<!-- Node16&#45;&gt;Node17 -->
<g id="edge6" class="edge">
<title>Node16&#45;&gt;Node17</title>
<path fill="none" stroke="midnightblue" d="M684.48,-112.47C729.32,-103.05 789.77,-90.17 851.97,-76.2"/>
<polygon fill="midnightblue" stroke="midnightblue" points="852.98,-79.56 861.97,-73.94 851.44,-72.73 852.98,-79.56"/>
</g>
<!-- Node18 -->
<g id="node8" class="node">
<title>Node18</title>
<g id="a_node8"><a xlink:title=" ">
<polygon fill="none" stroke="#bfbfbf" points="1168,-0.5 1168,-19.5 1212,-19.5 1212,-0.5 1168,-0.5"/>
<text text-anchor="middle" x="1190" y="-7.5" font-family="Helvetica,sans-Serif" font-size="10.00">string</text>
</a>
</g>
</g>
<!-- Node16&#45;&gt;Node18 -->
<g id="edge7" class="edge">
<title>Node16&#45;&gt;Node18</title>
<path fill="none" stroke="midnightblue" d="M539.82,-120.8C477.03,-114.37 395.57,-101.31 375,-76 369.39,-69.1 368.89,-62.46 375,-56 402.35,-27.1 1009.19,-14.27 1157.51,-11.56"/>
<polygon fill="midnightblue" stroke="midnightblue" points="1157.84,-15.05 1167.77,-11.38 1157.71,-8.06 1157.84,-15.05"/>
</g>
<!-- Node19 -->
<g id="node9" class="node">
<title>Node19</title>
<g id="a_node9"><a xlink:title=" ">
<polygon fill="none" stroke="#bfbfbf" points="712.5,-56.5 712.5,-75.5 843.5,-75.5 843.5,-56.5 712.5,-56.5"/>
<text text-anchor="middle" x="778" y="-63.5" font-family="Helvetica,sans-Serif" font-size="10.00">X86GenRegisterInfo.inc</text>
</a>
</g>
</g>
<!-- Node16&#45;&gt;Node19 -->
<g id="edge8" class="edge">
<title>Node16&#45;&gt;Node19</title>
<path fill="none" stroke="midnightblue" d="M655.15,-112.4C682.53,-102.28 719.04,-88.79 745.13,-79.15"/>
<polygon fill="midnightblue" stroke="midnightblue" points="746.41,-82.41 754.57,-75.66 743.98,-75.84 746.41,-82.41"/>
</g>
<!-- Node20 -->
<g id="node10" class="node">
<title>Node20</title>
<g id="a_node10"><a xlink:title=" ">
<polygon fill="none" stroke="#bfbfbf" points="214.5,-56.5 214.5,-75.5 327.5,-75.5 327.5,-56.5 214.5,-56.5"/>
<text text-anchor="middle" x="271" y="-63.5" font-family="Helvetica,sans-Serif" font-size="10.00">X86GenInstrInfo.inc</text>
</a>
</g>
</g>
<!-- Node16&#45;&gt;Node20 -->
<g id="edge9" class="edge">
<title>Node16&#45;&gt;Node20</title>
<path fill="none" stroke="midnightblue" d="M539.78,-113.22C476.56,-102.35 388.41,-87.19 330.55,-77.24"/>
<polygon fill="midnightblue" stroke="midnightblue" points="330.92,-73.75 320.47,-75.51 329.73,-80.65 330.92,-73.75"/>
</g>
<!-- Node21 -->
<g id="node11" class="node">
<title>Node21</title>
<g id="a_node11"><a xlink:title=" ">
<polygon fill="none" stroke="#bfbfbf" points="384,-56.5 384,-75.5 522,-75.5 522,-56.5 384,-56.5"/>
<text text-anchor="middle" x="453" y="-63.5" font-family="Helvetica,sans-Serif" font-size="10.00">X86GenSubtargetInfo.inc</text>
</a>
</g>
</g>
<!-- Node16&#45;&gt;Node21 -->
<g id="edge10" class="edge">
<title>Node16&#45;&gt;Node21</title>
<path fill="none" stroke="midnightblue" d="M578.13,-112.4C550.25,-102.28 513.06,-88.79 486.49,-79.15"/>
<polygon fill="midnightblue" stroke="midnightblue" points="487.46,-75.78 476.86,-75.66 485.07,-82.36 487.46,-75.78"/>
</g>
<!-- Node22 -->
<g id="node12" class="node">
<title>Node22</title>
<g id="a_node12"><a xlink:title=" ">
<polygon fill="none" stroke="#bfbfbf" points="540,-56.5 540,-75.5 694,-75.5 694,-56.5 540,-56.5"/>
<text text-anchor="middle" x="617" y="-63.5" font-family="Helvetica,sans-Serif" font-size="10.00">X86GenMnemonicTables.inc</text>
</a>
</g>
</g>
<!-- Node16&#45;&gt;Node22 -->
<g id="edge11" class="edge">
<title>Node16&#45;&gt;Node22</title>
<path fill="none" stroke="midnightblue" d="M617,-112.4C617,-104.47 617,-94.46 617,-85.86"/>
<polygon fill="midnightblue" stroke="midnightblue" points="620.5,-85.66 617,-75.66 613.5,-85.66 620.5,-85.66"/>
</g>
<!-- Node24 -->
<g id="node14" class="node">
<title>Node24</title>
<g id="a_node14"><a xlink:href="StringRef_8h.html" target="_top" xlink:title=" ">
<polygon fill="none" stroke="red" points="1546,-56.5 1546,-75.5 1664,-75.5 1664,-56.5 1546,-56.5"/>
<text text-anchor="middle" x="1605" y="-63.5" font-family="Helvetica,sans-Serif" font-size="10.00">llvm/ADT/StringRef.h</text>
</a>
</g>
</g>
<!-- Node23&#45;&gt;Node24 -->
<g id="edge13" class="edge">
<title>Node23&#45;&gt;Node24</title>
<path fill="none" stroke="midnightblue" d="M3476.3,-125.61C3187.38,-121.64 2055.51,-104.64 1674.29,-75.9"/>
<polygon fill="midnightblue" stroke="midnightblue" points="1674.29,-72.39 1664.05,-75.11 1673.75,-79.37 1674.29,-72.39"/>
</g>
<!-- Node35 -->
<g id="node15" class="node">
<title>Node35</title>
<g id="a_node15"><a xlink:title=" ">
<polygon fill="none" stroke="#bfbfbf" points="1896,-0.5 1896,-19.5 1946,-19.5 1946,-0.5 1896,-0.5"/>
<text text-anchor="middle" x="1921" y="-7.5" font-family="Helvetica,sans-Serif" font-size="10.00">cstring</text>
</a>
</g>
</g>
<!-- Node23&#45;&gt;Node35 -->
<g id="edge18" class="edge">
<title>Node23&#45;&gt;Node35</title>
<path fill="none" stroke="midnightblue" d="M3611.53,-124.06C3692.1,-121.15 3830.88,-116.17 3950,-112 4008.33,-109.96 4959.44,-117.97 5000,-76 5006.18,-69.61 5006.24,-62.33 5000,-56 4971.89,-27.48 2296.88,-12.92 1956.49,-11.18"/>
<polygon fill="midnightblue" stroke="midnightblue" points="1956.47,-7.68 1946.45,-11.13 1956.43,-14.68 1956.47,-7.68"/>
</g>
<!-- Node23&#45;&gt;Node27 -->
<g id="edge17" class="edge">
<title>Node23&#45;&gt;Node27</title>
<path fill="none" stroke="midnightblue" d="M3611.62,-123.93C3690.1,-120.97 3823.42,-115.99 3938,-112 4424.63,-95.05 4550.17,-139.04 5033,-76 5034.28,-75.83 5035.58,-75.64 5036.89,-75.43"/>
<polygon fill="midnightblue" stroke="midnightblue" points="5037.78,-78.83 5046.96,-73.53 5036.48,-71.95 5037.78,-78.83"/>
</g>
<!-- Node37 -->
<g id="node17" class="node">
<title>Node37</title>
<g id="a_node17"><a xlink:title=" ">
<polygon fill="none" stroke="#bfbfbf" points="3210.5,-56.5 3210.5,-75.5 3333.5,-75.5 3333.5,-56.5 3210.5,-56.5"/>
<text text-anchor="middle" x="3272" y="-63.5" font-family="Helvetica,sans-Serif" font-size="10.00">ELFRelocs/x86_64.def</text>
</a>
</g>
</g>
<!-- Node23&#45;&gt;Node37 -->
<g id="edge19" class="edge">
<title>Node23&#45;&gt;Node37</title>
<path fill="none" stroke="midnightblue" d="M3505.03,-117.98C3456.45,-107.35 3373.42,-89.18 3320.7,-77.65"/>
<polygon fill="midnightblue" stroke="midnightblue" points="3321.42,-74.23 3310.9,-75.51 3319.92,-81.07 3321.42,-74.23"/>
</g>
<!-- Node38 -->
<g id="node18" class="node">
<title>Node38</title>
<g id="a_node18"><a xlink:title=" ">
<polygon fill="none" stroke="#bfbfbf" points="3351.5,-56.5 3351.5,-75.5 3460.5,-75.5 3460.5,-56.5 3351.5,-56.5"/>
<text text-anchor="middle" x="3406" y="-63.5" font-family="Helvetica,sans-Serif" font-size="10.00">ELFRelocs/i386.def</text>
</a>
</g>
</g>
<!-- Node23&#45;&gt;Node38 -->
<g id="edge20" class="edge">
<title>Node23&#45;&gt;Node38</title>
<path fill="none" stroke="midnightblue" d="M3524.23,-117.98C3500.86,-107.9 3461.79,-91.05 3435,-79.5"/>
<polygon fill="midnightblue" stroke="midnightblue" points="3436.3,-76.25 3425.74,-75.51 3433.53,-82.68 3436.3,-76.25"/>
</g>
<!-- Node39 -->
<g id="node19" class="node">
<title>Node39</title>
<g id="a_node19"><a xlink:title=" ">
<polygon fill="none" stroke="#bfbfbf" points="3478.5,-56.5 3478.5,-75.5 3609.5,-75.5 3609.5,-56.5 3478.5,-56.5"/>
<text text-anchor="middle" x="3544" y="-63.5" font-family="Helvetica,sans-Serif" font-size="10.00">ELFRelocs/PowerPC.def</text>
</a>
</g>
</g>
<!-- Node23&#45;&gt;Node39 -->
<g id="edge21" class="edge">
<title>Node23&#45;&gt;Node39</title>
<path fill="none" stroke="midnightblue" d="M3544,-117.98C3544,-109.58 3544,-96.48 3544,-85.66"/>
<polygon fill="midnightblue" stroke="midnightblue" points="3547.5,-85.51 3544,-75.51 3540.5,-85.51 3547.5,-85.51"/>
</g>
<!-- Node40 -->
<g id="node20" class="node">
<title>Node40</title>
<g id="a_node20"><a xlink:title=" ">
<polygon fill="none" stroke="#bfbfbf" points="3627.5,-56.5 3627.5,-75.5 3770.5,-75.5 3770.5,-56.5 3627.5,-56.5"/>
<text text-anchor="middle" x="3699" y="-63.5" font-family="Helvetica,sans-Serif" font-size="10.00">ELFRelocs/PowerPC64.def</text>
</a>
</g>
</g>
<!-- Node23&#45;&gt;Node40 -->
<g id="edge22" class="edge">
<title>Node23&#45;&gt;Node40</title>
<path fill="none" stroke="midnightblue" d="M3566.21,-117.98C3592.68,-107.81 3637.11,-90.76 3667.22,-79.2"/>
<polygon fill="midnightblue" stroke="midnightblue" points="3668.75,-82.36 3676.83,-75.51 3666.24,-75.83 3668.75,-82.36"/>
</g>
<!-- Node41 -->
<g id="node21" class="node">
<title>Node41</title>
<g id="a_node21"><a xlink:title=" ">
<polygon fill="none" stroke="#bfbfbf" points="3789,-56.5 3789,-75.5 3917,-75.5 3917,-56.5 3789,-56.5"/>
<text text-anchor="middle" x="3853" y="-63.5" font-family="Helvetica,sans-Serif" font-size="10.00">ELFRelocs/AArch64.def</text>
</a>
</g>
</g>
<!-- Node23&#45;&gt;Node41 -->
<g id="edge23" class="edge">
<title>Node23&#45;&gt;Node41</title>
<path fill="none" stroke="midnightblue" d="M3588.27,-117.98C3643.8,-107.28 3738.97,-88.96 3798.8,-77.44"/>
<polygon fill="midnightblue" stroke="midnightblue" points="3799.65,-80.84 3808.81,-75.51 3798.33,-73.96 3799.65,-80.84"/>
</g>
<!-- Node42 -->
<g id="node22" class="node">
<title>Node42</title>
<g id="a_node22"><a xlink:title=" ">
<polygon fill="none" stroke="#bfbfbf" points="3935,-56.5 3935,-75.5 4045,-75.5 4045,-56.5 3935,-56.5"/>
<text text-anchor="middle" x="3990" y="-63.5" font-family="Helvetica,sans-Serif" font-size="10.00">ELFRelocs/ARM.def</text>
</a>
</g>
</g>
<!-- Node23&#45;&gt;Node42 -->
<g id="edge24" class="edge">
<title>Node23&#45;&gt;Node42</title>
<path fill="none" stroke="midnightblue" d="M3609.59,-118C3683.55,-108.37 3807.7,-92.1 3924.64,-76.18"/>
<polygon fill="midnightblue" stroke="midnightblue" points="3925.41,-79.6 3934.85,-74.79 3924.46,-72.67 3925.41,-79.6"/>
</g>
<!-- Node43 -->
<g id="node23" class="node">
<title>Node43</title>
<g id="a_node23"><a xlink:title=" ">
<polygon fill="none" stroke="#bfbfbf" points="4063,-56.5 4063,-75.5 4171,-75.5 4171,-56.5 4063,-56.5"/>
<text text-anchor="middle" x="4117" y="-63.5" font-family="Helvetica,sans-Serif" font-size="10.00">ELFRelocs/ARC.def</text>
</a>
</g>
</g>
<!-- Node23&#45;&gt;Node43 -->
<g id="edge25" class="edge">
<title>Node23&#45;&gt;Node43</title>
<path fill="none" stroke="midnightblue" d="M3611.75,-120.73C3707.54,-112.36 3888.28,-95.81 4052.44,-76.14"/>
<polygon fill="midnightblue" stroke="midnightblue" points="4053.21,-79.58 4062.72,-74.91 4052.38,-72.63 4053.21,-79.58"/>
</g>
<!-- Node44 -->
<g id="node24" class="node">
<title>Node44</title>
<g id="a_node24"><a xlink:title=" ">
<polygon fill="none" stroke="#bfbfbf" points="4189.5,-56.5 4189.5,-75.5 4296.5,-75.5 4296.5,-56.5 4189.5,-56.5"/>
<text text-anchor="middle" x="4243" y="-63.5" font-family="Helvetica,sans-Serif" font-size="10.00">ELFRelocs/AVR.def</text>
</a>
</g>
</g>
<!-- Node23&#45;&gt;Node44 -->
<g id="edge26" class="edge">
<title>Node23&#45;&gt;Node44</title>
<path fill="none" stroke="midnightblue" d="M3611.9,-122.51C3726.54,-115.47 3965.95,-99.43 4179.27,-76.01"/>
<polygon fill="midnightblue" stroke="midnightblue" points="4179.86,-79.47 4189.41,-74.89 4179.09,-72.51 4179.86,-79.47"/>
</g>
<!-- Node45 -->
<g id="node25" class="node">
<title>Node45</title>
<g id="a_node25"><a xlink:title=" ">
<polygon fill="none" stroke="#bfbfbf" points="4314.5,-56.5 4314.5,-75.5 4425.5,-75.5 4425.5,-56.5 4314.5,-56.5"/>
<text text-anchor="middle" x="4370" y="-63.5" font-family="Helvetica,sans-Serif" font-size="10.00">ELFRelocs/Mips.def</text>
</a>
</g>
</g>
<!-- Node23&#45;&gt;Node45 -->
<g id="edge27" class="edge">
<title>Node23&#45;&gt;Node45</title>
<path fill="none" stroke="midnightblue" d="M3611.67,-123.69C3743.18,-117.86 4042.59,-102.8 4304.11,-76.13"/>
<polygon fill="midnightblue" stroke="midnightblue" points="4304.59,-79.6 4314.18,-75.1 4303.88,-72.64 4304.59,-79.6"/>
</g>
<!-- Node46 -->
<g id="node26" class="node">
<title>Node46</title>
<g id="a_node26"><a xlink:title=" ">
<polygon fill="none" stroke="#bfbfbf" points="4443.5,-56.5 4443.5,-75.5 4574.5,-75.5 4574.5,-56.5 4443.5,-56.5"/>
<text text-anchor="middle" x="4509" y="-63.5" font-family="Helvetica,sans-Serif" font-size="10.00">ELFRelocs/Hexagon.def</text>
</a>
</g>
</g>
<!-- Node23&#45;&gt;Node46 -->
<g id="edge28" class="edge">
<title>Node23&#45;&gt;Node46</title>
<path fill="none" stroke="midnightblue" d="M3611.73,-124.15C3759.17,-118.71 4120.41,-103.64 4433.09,-76.12"/>
<polygon fill="midnightblue" stroke="midnightblue" points="4433.6,-79.59 4443.26,-75.22 4432.99,-72.62 4433.6,-79.59"/>
</g>
<!-- Node47 -->
<g id="node27" class="node">
<title>Node47</title>
<g id="a_node27"><a xlink:title=" ">
<polygon fill="none" stroke="#bfbfbf" points="4593,-56.5 4593,-75.5 4707,-75.5 4707,-56.5 4593,-56.5"/>
<text text-anchor="middle" x="4650" y="-63.5" font-family="Helvetica,sans-Serif" font-size="10.00">ELFRelocs/Lanai.def</text>
</a>
</g>
</g>
<!-- Node23&#45;&gt;Node47 -->
<g id="edge29" class="edge">
<title>Node23&#45;&gt;Node47</title>
<path fill="none" stroke="midnightblue" d="M3611.5,-123.99C3807.42,-116.59 4374.83,-94.28 4582.59,-76.03"/>
<polygon fill="midnightblue" stroke="midnightblue" points="4583.15,-79.49 4592.8,-75.11 4582.52,-72.52 4583.15,-79.49"/>
</g>
<!-- Node48 -->
<g id="node28" class="node">
<title>Node48</title>
<g id="a_node28"><a xlink:title=" ">
<polygon fill="none" stroke="#bfbfbf" points="4725,-56.5 4725,-75.5 4841,-75.5 4841,-56.5 4725,-56.5"/>
<text text-anchor="middle" x="4783" y="-63.5" font-family="Helvetica,sans-Serif" font-size="10.00">ELFRelocs/RISCV.def</text>
</a>
</g>
</g>
<!-- Node23&#45;&gt;Node48 -->
<g id="edge30" class="edge">
<title>Node23&#45;&gt;Node48</title>
<path fill="none" stroke="midnightblue" d="M3611.66,-123.94C3838.85,-115.31 4567.93,-87.19 4714.67,-75.97"/>
<polygon fill="midnightblue" stroke="midnightblue" points="4715.25,-79.43 4724.93,-75.13 4714.68,-72.46 4715.25,-79.43"/>
</g>
<!-- Node49 -->
<g id="node29" class="node">
<title>Node49</title>
<g id="a_node29"><a xlink:title=" ">
<polygon fill="none" stroke="#bfbfbf" points="4859.5,-56.5 4859.5,-75.5 4990.5,-75.5 4990.5,-56.5 4859.5,-56.5"/>
<text text-anchor="middle" x="4925" y="-63.5" font-family="Helvetica,sans-Serif" font-size="10.00">ELFRelocs/SystemZ.def</text>
</a>
</g>
</g>
<!-- Node23&#45;&gt;Node49 -->
<g id="edge31" class="edge">
<title>Node23&#45;&gt;Node49</title>
<path fill="none" stroke="midnightblue" d="M3611.92,-123.95C3864.33,-114.45 4739.08,-81.47 4849.11,-75.8"/>
<polygon fill="midnightblue" stroke="midnightblue" points="4849.4,-79.29 4859.18,-75.2 4848.99,-72.3 4849.4,-79.29"/>
</g>
<!-- Node50 -->
<g id="node30" class="node">
<title>Node50</title>
<g id="a_node30"><a xlink:title=" ">
<polygon fill="none" stroke="#bfbfbf" points="2001.5,-56.5 2001.5,-75.5 2116.5,-75.5 2116.5,-56.5 2001.5,-56.5"/>
<text text-anchor="middle" x="2059" y="-63.5" font-family="Helvetica,sans-Serif" font-size="10.00">ELFRelocs/Sparc.def</text>
</a>
</g>
</g>
<!-- Node23&#45;&gt;Node50 -->
<g id="edge32" class="edge">
<title>Node23&#45;&gt;Node50</title>
<path fill="none" stroke="midnightblue" d="M3476.33,-126.44C3273.42,-125.75 2652.17,-120 2126.76,-75.96"/>
<polygon fill="midnightblue" stroke="midnightblue" points="2126.96,-72.47 2116.7,-75.12 2126.37,-79.44 2126.96,-72.47"/>
</g>
<!-- Node51 -->
<g id="node31" class="node">
<title>Node51</title>
<g id="a_node31"><a xlink:title=" ">
<polygon fill="none" stroke="#bfbfbf" points="2135,-56.5 2135,-75.5 2267,-75.5 2267,-56.5 2135,-56.5"/>
<text text-anchor="middle" x="2201" y="-63.5" font-family="Helvetica,sans-Serif" font-size="10.00">ELFRelocs/AMDGPU.def</text>
</a>
</g>
</g>
<!-- Node23&#45;&gt;Node51 -->
<g id="edge33" class="edge">
<title>Node23&#45;&gt;Node51</title>
<path fill="none" stroke="midnightblue" d="M3476.25,-125.66C3287.97,-122.92 2742.36,-112.29 2277.56,-75.97"/>
<polygon fill="midnightblue" stroke="midnightblue" points="2277.53,-72.45 2267.29,-75.16 2276.98,-79.43 2277.53,-72.45"/>
</g>
<!-- Node52 -->
<g id="node32" class="node">
<title>Node52</title>
<g id="a_node32"><a xlink:title=" ">
<polygon fill="none" stroke="#bfbfbf" points="2285.5,-56.5 2285.5,-75.5 2390.5,-75.5 2390.5,-56.5 2285.5,-56.5"/>
<text text-anchor="middle" x="2338" y="-63.5" font-family="Helvetica,sans-Serif" font-size="10.00">ELFRelocs/BPF.def</text>
</a>
</g>
</g>
<!-- Node23&#45;&gt;Node52 -->
<g id="edge34" class="edge">
<title>Node23&#45;&gt;Node52</title>
<path fill="none" stroke="midnightblue" d="M3476.46,-125.87C3300.86,-123.74 2815.38,-114.62 2400.81,-75.97"/>
<polygon fill="midnightblue" stroke="midnightblue" points="2401.01,-72.47 2390.72,-75.02 2400.35,-79.44 2401.01,-72.47"/>
</g>
<!-- Node53 -->
<g id="node33" class="node">
<title>Node53</title>
<g id="a_node33"><a xlink:title=" ">
<polygon fill="none" stroke="#bfbfbf" points="2408.5,-56.5 2408.5,-75.5 2523.5,-75.5 2523.5,-56.5 2408.5,-56.5"/>
<text text-anchor="middle" x="2466" y="-63.5" font-family="Helvetica,sans-Serif" font-size="10.00">ELFRelocs/M68k.def</text>
</a>
</g>
</g>
<!-- Node23&#45;&gt;Node53 -->
<g id="edge35" class="edge">
<title>Node23&#45;&gt;Node53</title>
<path fill="none" stroke="midnightblue" d="M3476.42,-125.08C3315.22,-121.26 2895.26,-108.83 2533.85,-75.99"/>
<polygon fill="midnightblue" stroke="midnightblue" points="2533.99,-72.49 2523.71,-75.06 2533.35,-79.46 2533.99,-72.49"/>
</g>
<!-- Node54 -->
<g id="node34" class="node">
<title>Node54</title>
<g id="a_node34"><a xlink:title=" ">
<polygon fill="none" stroke="#bfbfbf" points="2541.5,-56.5 2541.5,-75.5 2668.5,-75.5 2668.5,-56.5 2541.5,-56.5"/>
<text text-anchor="middle" x="2605" y="-63.5" font-family="Helvetica,sans-Serif" font-size="10.00">ELFRelocs/MSP430.def</text>
</a>
</g>
</g>
<!-- Node23&#45;&gt;Node54 -->
<g id="edge36" class="edge">
<title>Node23&#45;&gt;Node54</title>
<path fill="none" stroke="midnightblue" d="M3476.24,-124.04C3331.8,-118.46 2982.74,-103.27 2679.01,-76.03"/>
<polygon fill="midnightblue" stroke="midnightblue" points="2678.95,-72.51 2668.68,-75.1 2678.32,-79.48 2678.95,-72.51"/>
</g>
<!-- Node55 -->
<g id="node35" class="node">
<title>Node55</title>
<g id="a_node35"><a xlink:title=" ">
<polygon fill="none" stroke="#bfbfbf" points="2686.5,-56.5 2686.5,-75.5 2787.5,-75.5 2787.5,-56.5 2686.5,-56.5"/>
<text text-anchor="middle" x="2737" y="-63.5" font-family="Helvetica,sans-Serif" font-size="10.00">ELFRelocs/VE.def</text>
</a>
</g>
</g>
<!-- Node23&#45;&gt;Node55 -->
<g id="edge37" class="edge">
<title>Node23&#45;&gt;Node55</title>
<path fill="none" stroke="midnightblue" d="M3476.37,-123.77C3346.83,-118.15 3054.56,-103.52 2797.97,-76.01"/>
<polygon fill="midnightblue" stroke="midnightblue" points="2798.02,-72.5 2787.7,-74.9 2797.27,-79.46 2798.02,-72.5"/>
</g>
<!-- Node56 -->
<g id="node36" class="node">
<title>Node56</title>
<g id="a_node36"><a xlink:title=" ">
<polygon fill="none" stroke="#bfbfbf" points="2806,-56.5 2806,-75.5 2916,-75.5 2916,-56.5 2806,-56.5"/>
<text text-anchor="middle" x="2861" y="-63.5" font-family="Helvetica,sans-Serif" font-size="10.00">ELFRelocs/CSKY.def</text>
</a>
</g>
</g>
<!-- Node23&#45;&gt;Node56 -->
<g id="edge38" class="edge">
<title>Node23&#45;&gt;Node56</title>
<path fill="none" stroke="midnightblue" d="M3476.21,-122.21C3364.18,-114.84 3133.16,-98.49 2926.43,-75.98"/>
<polygon fill="midnightblue" stroke="midnightblue" points="2926.61,-72.48 2916.29,-74.87 2925.85,-79.44 2926.61,-72.48"/>
</g>
<!-- Node57 -->
<g id="node37" class="node">
<title>Node57</title>
<g id="a_node37"><a xlink:title=" ">
<polygon fill="none" stroke="#bfbfbf" points="2934.5,-56.5 2934.5,-75.5 3073.5,-75.5 3073.5,-56.5 2934.5,-56.5"/>
<text text-anchor="middle" x="3004" y="-63.5" font-family="Helvetica,sans-Serif" font-size="10.00">ELFRelocs/LoongArch.def</text>
</a>
</g>
</g>
<!-- Node23&#45;&gt;Node57 -->
<g id="edge39" class="edge">
<title>Node23&#45;&gt;Node57</title>
<path fill="none" stroke="midnightblue" d="M3476.42,-119.19C3388.59,-109.67 3230.15,-92.42 3083.85,-76.09"/>
<polygon fill="midnightblue" stroke="midnightblue" points="3084.11,-72.6 3073.79,-74.97 3083.33,-79.56 3084.11,-72.6"/>
</g>
<!-- Node58 -->
<g id="node38" class="node">
<title>Node58</title>
<g id="a_node38"><a xlink:title=" ">
<polygon fill="none" stroke="#bfbfbf" points="3091.5,-56.5 3091.5,-75.5 3192.5,-75.5 3192.5,-56.5 3091.5,-56.5"/>
<text text-anchor="middle" x="3142" y="-63.5" font-family="Helvetica,sans-Serif" font-size="10.00">DynamicTags.def</text>
</a>
</g>
</g>
<!-- Node23&#45;&gt;Node58 -->
<g id="edge40" class="edge">
<title>Node23&#45;&gt;Node58</title>
<path fill="none" stroke="midnightblue" d="M3485.9,-117.96C3419.91,-108.26 3308.72,-91.87 3202.65,-76.09"/>
<polygon fill="midnightblue" stroke="midnightblue" points="3203.14,-72.63 3192.74,-74.62 3202.11,-79.55 3203.14,-72.63"/>
</g>
<!-- Node24&#45;&gt;Node15 -->
<g id="edge14" class="edge">
<title>Node24&#45;&gt;Node15</title>
<path fill="none" stroke="midnightblue" d="M1591.02,-56.32C1577.45,-47.9 1556.62,-34.97 1540.68,-25.07"/>
<polygon fill="midnightblue" stroke="midnightblue" points="1542.29,-21.95 1531.94,-19.65 1538.59,-27.9 1542.29,-21.95"/>
</g>
<!-- Node24&#45;&gt;Node18 -->
<g id="edge16" class="edge">
<title>Node24&#45;&gt;Node18</title>
<path fill="none" stroke="midnightblue" d="M1545.98,-57.32C1457.01,-45.74 1291.56,-24.21 1222.05,-15.17"/>
<polygon fill="midnightblue" stroke="midnightblue" points="1222.5,-11.7 1212.13,-13.88 1221.6,-18.64 1222.5,-11.7"/>
</g>
<!-- Node24&#45;&gt;Node35 -->
<g id="edge15" class="edge">
<title>Node24&#45;&gt;Node35</title>
<path fill="none" stroke="midnightblue" d="M1655.07,-56.44C1719.32,-45.46 1829.19,-26.69 1885.48,-17.07"/>
<polygon fill="midnightblue" stroke="midnightblue" points="1886.4,-20.46 1895.67,-15.33 1885.22,-13.56 1886.4,-20.46"/>
</g>
<!-- Node59&#45;&gt;Node24 -->
<g id="edge42" class="edge">
<title>Node59&#45;&gt;Node24</title>
<path fill="none" stroke="midnightblue" d="M1383.11,-117.98C1429.17,-107.39 1507.77,-89.34 1558,-77.8"/>
<polygon fill="midnightblue" stroke="midnightblue" points="1559,-81.16 1567.96,-75.51 1557.43,-74.34 1559,-81.16"/>
</g>
<!-- Node60 -->
<g id="node40" class="node">
<title>Node60</title>
<g id="a_node40"><a xlink:href="MCDirectives_8h.html" target="_top" xlink:title=" ">
<polygon fill="none" stroke="black" points="976,-56.5 976,-75.5 1110,-75.5 1110,-56.5 976,-56.5"/>
<text text-anchor="middle" x="1043" y="-63.5" font-family="Helvetica,sans-Serif" font-size="10.00">llvm/MC/MCDirectives.h</text>
</a>
</g>
</g>
<!-- Node59&#45;&gt;Node60 -->
<g id="edge43" class="edge">
<title>Node59&#45;&gt;Node60</title>
<path fill="none" stroke="midnightblue" d="M1302.59,-117.98C1248.14,-107.28 1154.82,-88.96 1096.15,-77.44"/>
<polygon fill="midnightblue" stroke="midnightblue" points="1096.82,-74 1086.33,-75.51 1095.47,-80.87 1096.82,-74"/>
</g>
<!-- Node61 -->
<g id="node41" class="node">
<title>Node61</title>
<g id="a_node41"><a xlink:href="MCTargetOptions_8h.html" target="_top" xlink:title=" ">
<polygon fill="none" stroke="red" points="1166,-56.5 1166,-75.5 1318,-75.5 1318,-56.5 1166,-56.5"/>
<text text-anchor="middle" x="1242" y="-63.5" font-family="Helvetica,sans-Serif" font-size="10.00">llvm/MC/MCTargetOptions.h</text>
</a>
</g>
</g>
<!-- Node59&#45;&gt;Node61 -->
<g id="edge44" class="edge">
<title>Node59&#45;&gt;Node61</title>
<path fill="none" stroke="midnightblue" d="M1331.1,-117.98C1314.03,-108.21 1285.84,-92.08 1265.74,-80.58"/>
<polygon fill="midnightblue" stroke="midnightblue" points="1267.29,-77.44 1256.87,-75.51 1263.81,-83.51 1267.29,-77.44"/>
</g>
<!-- Node80 -->
<g id="node42" class="node">
<title>Node80</title>
<g id="a_node42"><a xlink:title=" ">
<polygon fill="none" stroke="#bfbfbf" points="1718.5,-0.5 1718.5,-19.5 1765.5,-19.5 1765.5,-0.5 1718.5,-0.5"/>
<text text-anchor="middle" x="1742" y="-7.5" font-family="Helvetica,sans-Serif" font-size="10.00">vector</text>
</a>
</g>
</g>
<!-- Node59&#45;&gt;Node80 -->
<g id="edge47" class="edge">
<title>Node59&#45;&gt;Node80</title>
<path fill="none" stroke="midnightblue" d="M1345.64,-117.99C1345.5,-102.93 1347.62,-71.7 1366,-56 1391.83,-33.95 1620.92,-18.18 1708.33,-12.91"/>
<polygon fill="midnightblue" stroke="midnightblue" points="1708.72,-16.4 1718.5,-12.31 1708.31,-9.41 1708.72,-16.4"/>
</g>
<!-- Node61&#45;&gt;Node18 -->
<g id="edge45" class="edge">
<title>Node61&#45;&gt;Node18</title>
<path fill="none" stroke="midnightblue" d="M1233.41,-56.08C1225.84,-48.22 1214.62,-36.57 1205.49,-27.08"/>
<polygon fill="midnightblue" stroke="midnightblue" points="1207.88,-24.53 1198.43,-19.75 1202.84,-29.38 1207.88,-24.53"/>
</g>
<!-- Node61&#45;&gt;Node80 -->
<g id="edge46" class="edge">
<title>Node61&#45;&gt;Node80</title>
<path fill="none" stroke="midnightblue" d="M1318.21,-56.77C1428.52,-44.86 1628.19,-23.29 1707.85,-14.69"/>
<polygon fill="midnightblue" stroke="midnightblue" points="1708.7,-18.12 1718.27,-13.56 1707.95,-11.16 1708.7,-18.12"/>
</g>
<!-- Node81&#45;&gt;Node15 -->
<g id="edge58" class="edge">
<title>Node81&#45;&gt;Node15</title>
<path fill="none" stroke="midnightblue" d="M1587.68,-117.86C1572.2,-109.27 1550.02,-94.71 1537,-76 1527.45,-62.28 1522.65,-43.75 1520.26,-29.98"/>
<polygon fill="midnightblue" stroke="midnightblue" points="1523.68,-29.15 1518.78,-19.75 1516.75,-30.15 1523.68,-29.15"/>
</g>
<!-- Node81&#45;&gt;Node17 -->
<g id="edge60" class="edge">
<title>Node81&#45;&gt;Node17</title>
<path fill="none" stroke="midnightblue" d="M1543.35,-121.69C1388.84,-109.61 995.39,-78.8 967,-76 955.03,-74.82 942.03,-73.35 930.22,-71.94"/>
<polygon fill="midnightblue" stroke="midnightblue" points="930.55,-68.45 920.2,-70.73 929.71,-75.4 930.55,-68.45"/>
</g>
<!-- Node81&#45;&gt;Node18 -->
<g id="edge61" class="edge">
<title>Node81&#45;&gt;Node18</title>
<path fill="none" stroke="midnightblue" d="M1543.44,-121.72C1423.64,-112.14 1169.73,-90.24 1157,-76 1144.05,-61.51 1158.51,-41.01 1172.16,-26.93"/>
<polygon fill="midnightblue" stroke="midnightblue" points="1174.72,-29.32 1179.47,-19.85 1169.86,-24.29 1174.72,-29.32"/>
</g>
<!-- Node81&#45;&gt;Node24 -->
<g id="edge57" class="edge">
<title>Node81&#45;&gt;Node24</title>
<path fill="none" stroke="midnightblue" d="M1605,-117.98C1605,-109.58 1605,-96.48 1605,-85.66"/>
<polygon fill="midnightblue" stroke="midnightblue" points="1608.5,-85.51 1605,-75.51 1601.5,-85.51 1608.5,-85.51"/>
</g>
<!-- Node81&#45;&gt;Node27 -->
<g id="edge59" class="edge">
<title>Node81&#45;&gt;Node27</title>
<path fill="none" stroke="midnightblue" d="M1666.94,-121.73C1713.21,-118.37 1778.03,-114.12 1835,-112 2537.89,-85.86 4298.24,-123.7 5000,-76 5011.93,-75.19 5024.92,-73.74 5036.53,-72.24"/>
<polygon fill="midnightblue" stroke="midnightblue" points="5037.3,-75.67 5046.74,-70.87 5036.37,-68.73 5037.3,-75.67"/>
</g>
<!-- Node81&#45;&gt;Node80 -->
<g id="edge62" class="edge">
<title>Node81&#45;&gt;Node80</title>
<path fill="none" stroke="midnightblue" d="M1666.63,-119.75C1720.65,-112.41 1793.27,-98.6 1811,-76 1826.76,-55.91 1798.06,-36.29 1773.01,-23.96"/>
<polygon fill="midnightblue" stroke="midnightblue" points="1774.23,-20.66 1763.69,-19.6 1771.27,-27 1774.23,-20.66"/>
</g>
<!-- Node82 -->
<g id="node44" class="node">
<title>Node82</title>
<g id="a_node44"><a xlink:href="DenseMap_8h.html" target="_top" xlink:title=" ">
<polygon fill="none" stroke="red" points="1858.5,-56.5 1858.5,-75.5 1983.5,-75.5 1983.5,-56.5 1858.5,-56.5"/>
<text text-anchor="middle" x="1921" y="-63.5" font-family="Helvetica,sans-Serif" font-size="10.00">llvm/ADT/DenseMap.h</text>
</a>
</g>
</g>
<!-- Node81&#45;&gt;Node82 -->
<g id="edge49" class="edge">
<title>Node81&#45;&gt;Node82</title>
<path fill="none" stroke="midnightblue" d="M1650.28,-117.98C1707.18,-107.26 1804.79,-88.88 1865.95,-77.37"/>
<polygon fill="midnightblue" stroke="midnightblue" points="1866.63,-80.8 1875.81,-75.51 1865.33,-73.92 1866.63,-80.8"/>
</g>
<!-- Node74 -->
<g id="node45" class="node">
<title>Node74</title>
<g id="a_node45"><a xlink:href="Optional_8h.html" target="_top" xlink:title=" ">
<polygon fill="none" stroke="red" points="1374.5,-56.5 1374.5,-75.5 1489.5,-75.5 1489.5,-56.5 1374.5,-56.5"/>
<text text-anchor="middle" x="1432" y="-63.5" font-family="Helvetica,sans-Serif" font-size="10.00">llvm/ADT/Optional.h</text>
</a>
</g>
</g>
<!-- Node81&#45;&gt;Node74 -->
<g id="edge52" class="edge">
<title>Node81&#45;&gt;Node74</title>
<path fill="none" stroke="midnightblue" d="M1580.21,-117.98C1550.41,-107.72 1500.21,-90.46 1466.6,-78.9"/>
<polygon fill="midnightblue" stroke="midnightblue" points="1467.34,-75.45 1456.74,-75.51 1465.06,-82.07 1467.34,-75.45"/>
</g>
<!-- Node91 -->
<g id="node46" class="node">
<title>Node91</title>
<g id="a_node46"><a xlink:href="SetVector_8h.html" target="_top" xlink:title=" ">
<polygon fill="none" stroke="red" points="1682.5,-56.5 1682.5,-75.5 1801.5,-75.5 1801.5,-56.5 1682.5,-56.5"/>
<text text-anchor="middle" x="1742" y="-63.5" font-family="Helvetica,sans-Serif" font-size="10.00">llvm/ADT/SetVector.h</text>
</a>
</g>
</g>
<!-- Node81&#45;&gt;Node91 -->
<g id="edge54" class="edge">
<title>Node81&#45;&gt;Node91</title>
<path fill="none" stroke="midnightblue" d="M1624.63,-117.98C1647.82,-107.9 1686.62,-91.05 1713.21,-79.5"/>
<polygon fill="midnightblue" stroke="midnightblue" points="1714.63,-82.7 1722.41,-75.51 1711.84,-76.28 1714.63,-82.7"/>
</g>
<!-- Node82&#45;&gt;Node15 -->
<g id="edge50" class="edge">
<title>Node82&#45;&gt;Node15</title>
<path fill="none" stroke="midnightblue" d="M1858.47,-56.62C1773.1,-45.18 1622.82,-25.05 1554.11,-15.84"/>
<polygon fill="midnightblue" stroke="midnightblue" points="1554.57,-12.37 1544.2,-14.51 1553.64,-19.31 1554.57,-12.37"/>
</g>
<!-- Node82&#45;&gt;Node35 -->
<g id="edge51" class="edge">
<title>Node82&#45;&gt;Node35</title>
<path fill="none" stroke="midnightblue" d="M1921,-56.08C1921,-49.01 1921,-38.86 1921,-29.99"/>
<polygon fill="midnightblue" stroke="midnightblue" points="1924.5,-29.75 1921,-19.75 1917.5,-29.75 1924.5,-29.75"/>
</g>
<!-- Node74&#45;&gt;Node15 -->
<g id="edge53" class="edge">
<title>Node74&#45;&gt;Node15</title>
<path fill="none" stroke="midnightblue" d="M1445.82,-56.32C1459.23,-47.9 1479.82,-34.97 1495.59,-25.07"/>
<polygon fill="midnightblue" stroke="midnightblue" points="1497.61,-27.94 1504.22,-19.65 1493.89,-22.01 1497.61,-27.94"/>
</g>
<!-- Node91&#45;&gt;Node15 -->
<g id="edge55" class="edge">
<title>Node91&#45;&gt;Node15</title>
<path fill="none" stroke="midnightblue" d="M1706.51,-56.44C1664.79,-46.39 1595.96,-29.79 1554.02,-19.68"/>
<polygon fill="midnightblue" stroke="midnightblue" points="1554.77,-16.26 1544.23,-17.32 1553.13,-23.07 1554.77,-16.26"/>
</g>
<!-- Node91&#45;&gt;Node80 -->
<g id="edge56" class="edge">
<title>Node91&#45;&gt;Node80</title>
<path fill="none" stroke="midnightblue" d="M1742,-56.08C1742,-49.01 1742,-38.86 1742,-29.99"/>
<polygon fill="midnightblue" stroke="midnightblue" points="1745.5,-29.75 1742,-19.75 1738.5,-29.75 1745.5,-29.75"/>
</g>
<!-- Node145&#45;&gt;Node23 -->
<g id="edge64" class="edge">
<title>Node145&#45;&gt;Node23</title>
<path fill="none" stroke="midnightblue" d="M3889.26,-179.48C3815.94,-168.65 3689.64,-150 3611.81,-138.51"/>
<polygon fill="midnightblue" stroke="midnightblue" points="3612.04,-135.01 3601.63,-137.01 3611.01,-141.93 3612.04,-135.01"/>
</g>
<!-- Node145&#45;&gt;Node27 -->
<g id="edge67" class="edge">
<title>Node145&#45;&gt;Node27</title>
<path fill="none" stroke="midnightblue" d="M3947.27,-179.09C3948.31,-162.66 3953.12,-127.82 3975,-112 4022.66,-77.55 4974.69,-83.65 5033,-76 5034.28,-75.83 5035.58,-75.64 5036.89,-75.43"/>
<polygon fill="midnightblue" stroke="midnightblue" points="5037.78,-78.83 5046.95,-73.53 5036.48,-71.95 5037.78,-78.83"/>
</g>
<!-- Node145&#45;&gt;Node80 -->
<g id="edge68" class="edge">
<title>Node145&#45;&gt;Node80</title>
<path fill="none" stroke="midnightblue" d="M4028.88,-186.31C4281.11,-180.25 5033.72,-155.6 5106,-76 5111.98,-69.42 5112.25,-62.32 5106,-56 5074.56,-24.21 1931.68,-21.64 1887,-20 1848.84,-18.6 1805.1,-15.71 1775.72,-13.58"/>
<polygon fill="midnightblue" stroke="midnightblue" points="1775.82,-10.08 1765.59,-12.83 1775.31,-17.06 1775.82,-10.08"/>
</g>
<!-- Node145&#45;&gt;Node146 -->
<g id="edge65" class="edge">
<title>Node145&#45;&gt;Node146</title>
<path fill="none" stroke="midnightblue" d="M3962.76,-179.48C3980.98,-169.62 4011.17,-153.29 4032.47,-141.77"/>
<polygon fill="midnightblue" stroke="midnightblue" points="4034.14,-144.85 4041.27,-137.01 4030.81,-138.69 4034.14,-144.85"/>
</g>
<!-- Node146&#45;&gt;Node27 -->
<g id="edge66" class="edge">
<title>Node146&#45;&gt;Node27</title>
<path fill="none" stroke="midnightblue" d="M4130.15,-123.46C4341.67,-114.55 4944.57,-88.39 5033,-76 5034.28,-75.82 5035.57,-75.62 5036.88,-75.4"/>
<polygon fill="midnightblue" stroke="midnightblue" points="5037.79,-78.79 5046.95,-73.46 5036.46,-71.92 5037.79,-78.79"/>
</g>
<!-- Node148&#45;&gt;Node27 -->
<g id="edge71" class="edge">
<title>Node148&#45;&gt;Node27</title>
<path fill="none" stroke="midnightblue" d="M1950.15,-125.98C2334.65,-122.19 4684.33,-98.23 5000,-76 5011.93,-75.16 5024.91,-73.7 5036.53,-72.21"/>
<polygon fill="midnightblue" stroke="midnightblue" points="5037.3,-75.64 5046.74,-70.84 5036.36,-68.7 5037.3,-75.64"/>
</g>
<!-- Node148&#45;&gt;Node82 -->
<g id="edge70" class="edge">
<title>Node148&#45;&gt;Node82</title>
<path fill="none" stroke="midnightblue" d="M1900.44,-117.98C1903.9,-109.4 1909.33,-95.93 1913.75,-84.98"/>
<polygon fill="midnightblue" stroke="midnightblue" points="1917.07,-86.09 1917.57,-75.51 1910.58,-83.47 1917.07,-86.09"/>
</g>
<!-- Node152&#45;&gt;Node148 -->
<g id="edge75" class="edge">
<title>Node152&#45;&gt;Node148</title>
<path fill="none" stroke="midnightblue" d="M1813.9,-179.48C1829.67,-169.8 1855.64,-153.87 1874.35,-142.39"/>
<polygon fill="midnightblue" stroke="midnightblue" points="1876.43,-145.22 1883.13,-137.01 1872.77,-139.25 1876.43,-145.22"/>
</g>
</g>
</svg>
