<?xml version="1.0" encoding="UTF-8" standalone="no"?>
<!DOCTYPE svg PUBLIC "-//W3C//DTD SVG 1.1//EN"
 "http://www.w3.org/Graphics/SVG/1.1/DTD/svg11.dtd">
<!-- Generated by graphviz version 2.48.0 (0)
 -->
<!-- Title: include/llvm/Support/AMDGPUMetadata.h Pages: 1 -->
<svg width="982pt" height="173pt"
 viewBox="0.00 0.00 981.50 173.00" xmlns="http://www.w3.org/2000/svg" xmlns:xlink="http://www.w3.org/1999/xlink">
<g id="graph0" class="graph" transform="scale(1 1) rotate(0) translate(4 169)">
<title>include/llvm/Support/AMDGPUMetadata.h</title>
<!-- Node1 -->
<g id="node1" class="node">
<title>Node1</title>
<g id="a_node1"><a xlink:title="AMDGPU metadata definitions and in&#45;memory representations.">
<polygon fill="#bfbfbf" stroke="black" points="466,-134.5 466,-164.5 585,-164.5 585,-134.5 466,-134.5"/>
<text text-anchor="start" x="474" y="-152.5" font-family="Helvetica,sans-Serif" font-size="10.00">include/llvm/Support</text>
<text text-anchor="middle" x="525.5" y="-141.5" font-family="Helvetica,sans-Serif" font-size="10.00">/AMDGPUMetadata.h</text>
</a>
</g>
</g>
<!-- Node2 -->
<g id="node2" class="node">
<title>Node2</title>
<g id="a_node2"><a xlink:href="AMDGPUMetadata_8cpp.html" target="_top" xlink:title="AMDGPU metadata definitions and in&#45;memory representations.">
<polygon fill="none" stroke="black" points="0,-73 0,-92 183,-92 183,-73 0,-73"/>
<text text-anchor="middle" x="91.5" y="-80" font-family="Helvetica,sans-Serif" font-size="10.00">lib/Support/AMDGPUMetadata.cpp</text>
</a>
</g>
</g>
<!-- Node1&#45;&gt;Node2 -->
<g id="edge1" class="edge">
<title>Node1&#45;&gt;Node2</title>
<path fill="none" stroke="midnightblue" d="M455.49,-138.01C370.07,-125.22 227.32,-103.84 148.36,-92.02"/>
<polygon fill="midnightblue" stroke="midnightblue" points="455.2,-141.51 465.61,-139.53 456.24,-134.59 455.2,-141.51"/>
</g>
<!-- Node3 -->
<g id="node3" class="node">
<title>Node3</title>
<g id="a_node3"><a xlink:href="AMDGPUHSAMetadataStreamer_8h.html" target="_top" xlink:title="AMDGPU HSA Metadata Streamer.">
<polygon fill="none" stroke="black" points="201.5,-67.5 201.5,-97.5 425.5,-97.5 425.5,-67.5 201.5,-67.5"/>
<text text-anchor="start" x="209.5" y="-85.5" font-family="Helvetica,sans-Serif" font-size="10.00">lib/Target/AMDGPU/AMDGPUHSAMetadata</text>
<text text-anchor="middle" x="313.5" y="-74.5" font-family="Helvetica,sans-Serif" font-size="10.00">Streamer.h</text>
</a>
</g>
</g>
<!-- Node1&#45;&gt;Node3 -->
<g id="edge2" class="edge">
<title>Node1&#45;&gt;Node3</title>
<path fill="none" stroke="midnightblue" d="M469.87,-131.44C435.51,-120.91 391.94,-107.55 359.52,-97.61"/>
<polygon fill="midnightblue" stroke="midnightblue" points="469.17,-134.89 479.76,-134.48 471.23,-128.2 469.17,-134.89"/>
</g>
<!-- Node6 -->
<g id="node6" class="node">
<title>Node6</title>
<g id="a_node6"><a xlink:href="AMDGPUAsmParser_8cpp.html" target="_top" xlink:title=" ">
<polygon fill="none" stroke="black" points="443.5,-67.5 443.5,-97.5 607.5,-97.5 607.5,-67.5 443.5,-67.5"/>
<text text-anchor="start" x="451.5" y="-85.5" font-family="Helvetica,sans-Serif" font-size="10.00">lib/Target/AMDGPU/AsmParser</text>
<text text-anchor="middle" x="525.5" y="-74.5" font-family="Helvetica,sans-Serif" font-size="10.00">/AMDGPUAsmParser.cpp</text>
</a>
</g>
</g>
<!-- Node1&#45;&gt;Node6 -->
<g id="edge5" class="edge">
<title>Node1&#45;&gt;Node6</title>
<path fill="none" stroke="midnightblue" d="M525.5,-124.11C525.5,-115.15 525.5,-105.32 525.5,-97.58"/>
<polygon fill="midnightblue" stroke="midnightblue" points="522,-124.4 525.5,-134.4 529,-124.4 522,-124.4"/>
</g>
<!-- Node7 -->
<g id="node7" class="node">
<title>Node7</title>
<g id="a_node7"><a xlink:href="AMDGPUTargetStreamer_8cpp.html" target="_top" xlink:title=" ">
<polygon fill="none" stroke="black" points="625.5,-67.5 625.5,-97.5 807.5,-97.5 807.5,-67.5 625.5,-67.5"/>
<text text-anchor="start" x="633.5" y="-85.5" font-family="Helvetica,sans-Serif" font-size="10.00">lib/Target/AMDGPU/MCTarget</text>
<text text-anchor="middle" x="716.5" y="-74.5" font-family="Helvetica,sans-Serif" font-size="10.00">Desc/AMDGPUTargetStreamer.cpp</text>
</a>
</g>
</g>
<!-- Node1&#45;&gt;Node7 -->
<g id="edge6" class="edge">
<title>Node1&#45;&gt;Node7</title>
<path fill="none" stroke="midnightblue" d="M576.65,-131.09C607.49,-120.6 646.25,-107.41 675.14,-97.58"/>
<polygon fill="midnightblue" stroke="midnightblue" points="575.28,-127.86 566.94,-134.4 577.54,-134.49 575.28,-127.86"/>
</g>
<!-- Node8 -->
<g id="node8" class="node">
<title>Node8</title>
<g id="a_node8"><a xlink:href="AMDGPUPALMetadata_8cpp.html" target="_top" xlink:title="This class has methods called by AMDGPUAsmPrinter to accumulate and print the PAL metadata.">
<polygon fill="none" stroke="black" points="825.5,-67.5 825.5,-97.5 973.5,-97.5 973.5,-67.5 825.5,-67.5"/>
<text text-anchor="start" x="833.5" y="-85.5" font-family="Helvetica,sans-Serif" font-size="10.00">lib/Target/AMDGPU/Utils</text>
<text text-anchor="middle" x="899.5" y="-74.5" font-family="Helvetica,sans-Serif" font-size="10.00">/AMDGPUPALMetadata.cpp</text>
</a>
</g>
</g>
<!-- Node1&#45;&gt;Node8 -->
<g id="edge7" class="edge">
<title>Node1&#45;&gt;Node8</title>
<path fill="none" stroke="midnightblue" d="M595.08,-136.45C654.04,-126.23 740.81,-111.18 816.5,-98 819.38,-97.5 822.32,-96.99 825.29,-96.47"/>
<polygon fill="midnightblue" stroke="midnightblue" points="594.39,-133.01 585.14,-138.17 595.59,-139.91 594.39,-133.01"/>
</g>
<!-- Node4 -->
<g id="node4" class="node">
<title>Node4</title>
<g id="a_node4"><a xlink:href="AMDGPUAsmPrinter_8cpp.html" target="_top" xlink:title="The AMDGPUAsmPrinter is used to print both assembly string and also binary code.">
<polygon fill="none" stroke="black" points="114.5,-0.5 114.5,-30.5 292.5,-30.5 292.5,-0.5 114.5,-0.5"/>
<text text-anchor="start" x="122.5" y="-18.5" font-family="Helvetica,sans-Serif" font-size="10.00">lib/Target/AMDGPU/AMDGPUAsm</text>
<text text-anchor="middle" x="203.5" y="-7.5" font-family="Helvetica,sans-Serif" font-size="10.00">Printer.cpp</text>
</a>
</g>
</g>
<!-- Node3&#45;&gt;Node4 -->
<g id="edge3" class="edge">
<title>Node3&#45;&gt;Node4</title>
<path fill="none" stroke="midnightblue" d="M281,-62.3C263.79,-52.12 243.02,-39.85 227.32,-30.58"/>
<polygon fill="midnightblue" stroke="midnightblue" points="279.24,-65.32 289.63,-67.4 282.8,-59.3 279.24,-65.32"/>
</g>
<!-- Node5 -->
<g id="node5" class="node">
<title>Node5</title>
<g id="a_node5"><a xlink:href="AMDGPUHSAMetadataStreamer_8cpp.html" target="_top" xlink:title="AMDGPU HSA Metadata Streamer.">
<polygon fill="none" stroke="black" points="310.5,-0.5 310.5,-30.5 534.5,-30.5 534.5,-0.5 310.5,-0.5"/>
<text text-anchor="start" x="318.5" y="-18.5" font-family="Helvetica,sans-Serif" font-size="10.00">lib/Target/AMDGPU/AMDGPUHSAMetadata</text>
<text text-anchor="middle" x="422.5" y="-7.5" font-family="Helvetica,sans-Serif" font-size="10.00">Streamer.cpp</text>
</a>
</g>
</g>
<!-- Node3&#45;&gt;Node5 -->
<g id="edge4" class="edge">
<title>Node3&#45;&gt;Node5</title>
<path fill="none" stroke="midnightblue" d="M346.17,-62.02C363.14,-51.9 383.48,-39.77 398.89,-30.58"/>
<polygon fill="midnightblue" stroke="midnightblue" points="343.95,-59.27 337.15,-67.4 347.53,-65.28 343.95,-59.27"/>
</g>
</g>
</svg>
