<?xml version="1.0" encoding="UTF-8" standalone="no"?>
<!DOCTYPE svg PUBLIC "-//W3C//DTD SVG 1.1//EN"
 "http://www.w3.org/Graphics/SVG/1.1/DTD/svg11.dtd">
<!-- Generated by graphviz version 2.48.0 (0)
 -->
<!-- Title: lib/Target/BPF/BPFRegisterInfo.h Pages: 1 -->
<svg width="1986pt" height="352pt"
 viewBox="0.00 0.00 1985.50 352.00" xmlns="http://www.w3.org/2000/svg" xmlns:xlink="http://www.w3.org/1999/xlink">
<g id="graph0" class="graph" transform="scale(1 1) rotate(0) translate(4 348)">
<title>lib/Target/BPF/BPFRegisterInfo.h</title>
<!-- Node1 -->
<g id="node1" class="node">
<title>Node1</title>
<g id="a_node1"><a xlink:title=" ">
<polygon fill="#bfbfbf" stroke="black" points="1628,-313.5 1628,-343.5 1774,-343.5 1774,-313.5 1628,-313.5"/>
<text text-anchor="start" x="1636" y="-331.5" font-family="Helvetica,sans-Serif" font-size="10.00">lib/Target/BPF/BPFRegister</text>
<text text-anchor="middle" x="1701" y="-320.5" font-family="Helvetica,sans-Serif" font-size="10.00">Info.h</text>
</a>
</g>
</g>
<!-- Node2 -->
<g id="node2" class="node">
<title>Node2</title>
<g id="a_node2"><a xlink:href="BPFInstrInfo_8h.html" target="_top" xlink:title=" ">
<polygon fill="none" stroke="black" points="943.5,-257.5 943.5,-276.5 1098.5,-276.5 1098.5,-257.5 943.5,-257.5"/>
<text text-anchor="middle" x="1021" y="-264.5" font-family="Helvetica,sans-Serif" font-size="10.00">lib/Target/BPF/BPFInstrInfo.h</text>
</a>
</g>
</g>
<!-- Node1&#45;&gt;Node2 -->
<g id="edge1" class="edge">
<title>Node1&#45;&gt;Node2</title>
<path fill="none" stroke="midnightblue" d="M1617.8,-320.22C1485.17,-308.61 1227.65,-286.08 1098.62,-274.79"/>
<polygon fill="midnightblue" stroke="midnightblue" points="1617.64,-323.72 1627.91,-321.1 1618.25,-316.75 1617.64,-323.72"/>
</g>
<!-- Node10 -->
<g id="node10" class="node">
<title>Node10</title>
<g id="a_node10"><a xlink:href="BPFISelDAGToDAG_8cpp.html" target="_top" xlink:title=" ">
<polygon fill="none" stroke="black" points="1822.5,-67.5 1822.5,-97.5 1977.5,-97.5 1977.5,-67.5 1822.5,-67.5"/>
<text text-anchor="start" x="1830.5" y="-85.5" font-family="Helvetica,sans-Serif" font-size="10.00">lib/Target/BPF/BPFISelDAGTo</text>
<text text-anchor="middle" x="1900" y="-74.5" font-family="Helvetica,sans-Serif" font-size="10.00">DAG.cpp</text>
</a>
</g>
</g>
<!-- Node1&#45;&gt;Node10 -->
<g id="edge28" class="edge">
<title>Node1&#45;&gt;Node10</title>
<path fill="none" stroke="midnightblue" d="M1718.94,-305.51C1759.06,-256.32 1855.12,-138.53 1888.41,-97.71"/>
<polygon fill="midnightblue" stroke="midnightblue" points="1716.17,-303.37 1712.56,-313.33 1721.59,-307.79 1716.17,-303.37"/>
</g>
<!-- Node12 -->
<g id="node12" class="node">
<title>Node12</title>
<g id="a_node12"><a xlink:href="BPFRegisterInfo_8cpp.html" target="_top" xlink:title=" ">
<polygon fill="none" stroke="black" points="1628,-134.5 1628,-164.5 1774,-164.5 1774,-134.5 1628,-134.5"/>
<text text-anchor="start" x="1636" y="-152.5" font-family="Helvetica,sans-Serif" font-size="10.00">lib/Target/BPF/BPFRegister</text>
<text text-anchor="middle" x="1701" y="-141.5" font-family="Helvetica,sans-Serif" font-size="10.00">Info.cpp</text>
</a>
</g>
</g>
<!-- Node1&#45;&gt;Node12 -->
<g id="edge29" class="edge">
<title>Node1&#45;&gt;Node12</title>
<path fill="none" stroke="midnightblue" d="M1701,-303.26C1701,-265.8 1701,-194.98 1701,-164.75"/>
<polygon fill="midnightblue" stroke="midnightblue" points="1697.5,-303.31 1701,-313.31 1704.5,-303.31 1697.5,-303.31"/>
</g>
<!-- Node3 -->
<g id="node3" class="node">
<title>Node3</title>
<g id="a_node3"><a xlink:href="BPFAsmPrinter_8cpp.html" target="_top" xlink:title=" ">
<polygon fill="none" stroke="black" points="1420.5,-73 1420.5,-92 1597.5,-92 1597.5,-73 1420.5,-73"/>
<text text-anchor="middle" x="1509" y="-80" font-family="Helvetica,sans-Serif" font-size="10.00">lib/Target/BPF/BPFAsmPrinter.cpp</text>
</a>
</g>
</g>
<!-- Node2&#45;&gt;Node3 -->
<g id="edge2" class="edge">
<title>Node2&#45;&gt;Node3</title>
<path fill="none" stroke="midnightblue" d="M1033.32,-248.91C1057.08,-216.45 1109.16,-147.92 1135,-134 1243.91,-75.34 1288.48,-115.05 1411,-98 1424.46,-96.13 1438.94,-94.03 1452.54,-92.02"/>
<polygon fill="midnightblue" stroke="midnightblue" points="1030.21,-247.23 1027.17,-257.37 1035.88,-251.34 1030.21,-247.23"/>
</g>
<!-- Node4 -->
<g id="node4" class="node">
<title>Node4</title>
<g id="a_node4"><a xlink:href="BPFFrameLowering_8cpp.html" target="_top" xlink:title=" ">
<polygon fill="none" stroke="black" points="1410,-140 1410,-159 1610,-159 1610,-140 1410,-140"/>
<text text-anchor="middle" x="1510" y="-147" font-family="Helvetica,sans-Serif" font-size="10.00">lib/Target/BPF/BPFFrameLowering.cpp</text>
</a>
</g>
</g>
<!-- Node2&#45;&gt;Node4 -->
<g id="edge3" class="edge">
<title>Node2&#45;&gt;Node4</title>
<path fill="none" stroke="midnightblue" d="M1108.71,-262.88C1212.37,-258.09 1377.88,-246.61 1434,-221 1465.11,-206.8 1491.9,-174.84 1503.65,-159.31"/>
<polygon fill="midnightblue" stroke="midnightblue" points="1108.39,-259.4 1098.56,-263.34 1108.71,-266.39 1108.39,-259.4"/>
</g>
<!-- Node5 -->
<g id="node5" class="node">
<title>Node5</title>
<g id="a_node5"><a xlink:href="BPFInstrInfo_8cpp.html" target="_top" xlink:title=" ">
<polygon fill="none" stroke="black" points="656,-201.5 656,-220.5 822,-220.5 822,-201.5 656,-201.5"/>
<text text-anchor="middle" x="739" y="-208.5" font-family="Helvetica,sans-Serif" font-size="10.00">lib/Target/BPF/BPFInstrInfo.cpp</text>
</a>
</g>
</g>
<!-- Node2&#45;&gt;Node5 -->
<g id="edge4" class="edge">
<title>Node2&#45;&gt;Node5</title>
<path fill="none" stroke="midnightblue" d="M966.36,-255.54C913.06,-245.33 833,-230 783.47,-220.52"/>
<polygon fill="midnightblue" stroke="midnightblue" points="965.84,-259 976.32,-257.44 967.15,-252.13 965.84,-259"/>
</g>
<!-- Node6 -->
<g id="node6" class="node">
<title>Node6</title>
<g id="a_node6"><a xlink:href="BPFMIChecking_8cpp.html" target="_top" xlink:title=" ">
<polygon fill="none" stroke="black" points="0,-73 0,-92 182,-92 182,-73 0,-73"/>
<text text-anchor="middle" x="91" y="-80" font-family="Helvetica,sans-Serif" font-size="10.00">lib/Target/BPF/BPFMIChecking.cpp</text>
</a>
</g>
</g>
<!-- Node2&#45;&gt;Node6 -->
<g id="edge5" class="edge">
<title>Node2&#45;&gt;Node6</title>
<path fill="none" stroke="midnightblue" d="M990.26,-253.65C953.09,-239.14 888.37,-215.25 831,-201 764.8,-184.55 310.31,-116.18 148.25,-92.01"/>
<polygon fill="midnightblue" stroke="midnightblue" points="989.4,-257.07 999.99,-257.47 991.96,-250.56 989.4,-257.07"/>
</g>
<!-- Node7 -->
<g id="node7" class="node">
<title>Node7</title>
<g id="a_node7"><a xlink:href="BPFMIPeephole_8cpp.html" target="_top" xlink:title=" ">
<polygon fill="none" stroke="black" points="200,-73 200,-92 382,-92 382,-73 200,-73"/>
<text text-anchor="middle" x="291" y="-80" font-family="Helvetica,sans-Serif" font-size="10.00">lib/Target/BPF/BPFMIPeephole.cpp</text>
</a>
</g>
</g>
<!-- Node2&#45;&gt;Node7 -->
<g id="edge6" class="edge">
<title>Node2&#45;&gt;Node7</title>
<path fill="none" stroke="midnightblue" d="M1002.55,-251.06C991.83,-242.34 978.1,-231.11 966,-221 960.28,-216.22 870.89,-136.84 864,-134 766.75,-93.89 496.57,-109.48 392,-98 376.94,-96.35 360.68,-94.18 345.69,-92.03"/>
<polygon fill="midnightblue" stroke="midnightblue" points="1000.43,-253.85 1010.4,-257.44 1004.85,-248.42 1000.43,-253.85"/>
</g>
<!-- Node8 -->
<g id="node8" class="node">
<title>Node8</title>
<g id="a_node8"><a xlink:href="BPFMISimplifyPatchable_8cpp.html" target="_top" xlink:title=" ">
<polygon fill="none" stroke="black" points="400.5,-67.5 400.5,-97.5 557.5,-97.5 557.5,-67.5 400.5,-67.5"/>
<text text-anchor="start" x="408.5" y="-85.5" font-family="Helvetica,sans-Serif" font-size="10.00">lib/Target/BPF/BPFMISimplify</text>
<text text-anchor="middle" x="479" y="-74.5" font-family="Helvetica,sans-Serif" font-size="10.00">Patchable.cpp</text>
</a>
</g>
</g>
<!-- Node2&#45;&gt;Node8 -->
<g id="edge7" class="edge">
<title>Node2&#45;&gt;Node8</title>
<path fill="none" stroke="midnightblue" d="M1008.4,-249.27C983.64,-216.89 928.75,-147.66 902,-134 835.32,-99.95 641.19,-108.09 567,-98 563.93,-97.58 560.81,-97.14 557.65,-96.68"/>
<polygon fill="midnightblue" stroke="midnightblue" points="1005.7,-251.5 1014.53,-257.34 1011.27,-247.26 1005.7,-251.5"/>
</g>
<!-- Node9 -->
<g id="node9" class="node">
<title>Node9</title>
<g id="a_node9"><a xlink:href="BPFSubtarget_8h.html" target="_top" xlink:title=" ">
<polygon fill="none" stroke="black" points="1263.5,-201.5 1263.5,-220.5 1424.5,-220.5 1424.5,-201.5 1263.5,-201.5"/>
<text text-anchor="middle" x="1344" y="-208.5" font-family="Helvetica,sans-Serif" font-size="10.00">lib/Target/BPF/BPFSubtarget.h</text>
</a>
</g>
</g>
<!-- Node2&#45;&gt;Node9 -->
<g id="edge8" class="edge">
<title>Node2&#45;&gt;Node9</title>
<path fill="none" stroke="midnightblue" d="M1082.07,-255.79C1143.1,-245.59 1235.87,-230.08 1293.06,-220.52"/>
<polygon fill="midnightblue" stroke="midnightblue" points="1081.47,-252.34 1072.18,-257.44 1082.62,-259.25 1081.47,-252.34"/>
</g>
<!-- Node9&#45;&gt;Node4 -->
<g id="edge9" class="edge">
<title>Node9&#45;&gt;Node4</title>
<path fill="none" stroke="midnightblue" d="M1377.25,-198.08C1409.52,-186.52 1457.68,-169.25 1486.26,-159.01"/>
<polygon fill="midnightblue" stroke="midnightblue" points="1376.02,-194.81 1367.78,-201.48 1378.38,-201.4 1376.02,-194.81"/>
</g>
<!-- Node9&#45;&gt;Node10 -->
<g id="edge10" class="edge">
<title>Node9&#45;&gt;Node10</title>
<path fill="none" stroke="midnightblue" d="M1352.09,-191.78C1361.18,-173.72 1377.75,-146.92 1401,-134 1481.33,-89.36 1721.83,-109.56 1813,-98 1816.04,-97.61 1819.13,-97.2 1822.26,-96.77"/>
<polygon fill="midnightblue" stroke="midnightblue" points="1348.84,-190.47 1347.72,-201.01 1355.16,-193.47 1348.84,-190.47"/>
</g>
<!-- Node11 -->
<g id="node11" class="node">
<title>Node11</title>
<g id="a_node11"><a xlink:href="BPFISelLowering_8cpp.html" target="_top" xlink:title=" ">
<polygon fill="none" stroke="black" points="1616,-73 1616,-92 1804,-92 1804,-73 1616,-73"/>
<text text-anchor="middle" x="1710" y="-80" font-family="Helvetica,sans-Serif" font-size="10.00">lib/Target/BPF/BPFISelLowering.cpp</text>
</a>
</g>
</g>
<!-- Node9&#45;&gt;Node11 -->
<g id="edge11" class="edge">
<title>Node9&#45;&gt;Node11</title>
<path fill="none" stroke="midnightblue" d="M1344.56,-191.18C1346.15,-173.64 1351.41,-148.14 1368,-134 1370.67,-131.73 1551.92,-105.83 1649.44,-92.03"/>
<polygon fill="midnightblue" stroke="midnightblue" points="1341.05,-191.17 1343.96,-201.36 1348.04,-191.58 1341.05,-191.17"/>
</g>
<!-- Node9&#45;&gt;Node12 -->
<g id="edge12" class="edge">
<title>Node9&#45;&gt;Node12</title>
<path fill="none" stroke="midnightblue" d="M1407.35,-199.87C1463.11,-190.9 1546.49,-177.34 1619,-165 1621.85,-164.51 1624.76,-164.02 1627.69,-163.51"/>
<polygon fill="midnightblue" stroke="midnightblue" points="1406.58,-196.45 1397.27,-201.49 1407.7,-203.36 1406.58,-196.45"/>
</g>
<!-- Node13 -->
<g id="node13" class="node">
<title>Node13</title>
<g id="a_node13"><a xlink:href="BPFSubtarget_8cpp.html" target="_top" xlink:title=" ">
<polygon fill="none" stroke="black" points="1144,-140 1144,-159 1316,-159 1316,-140 1144,-140"/>
<text text-anchor="middle" x="1230" y="-147" font-family="Helvetica,sans-Serif" font-size="10.00">lib/Target/BPF/BPFSubtarget.cpp</text>
</a>
</g>
</g>
<!-- Node9&#45;&gt;Node13 -->
<g id="edge13" class="edge">
<title>Node9&#45;&gt;Node13</title>
<path fill="none" stroke="midnightblue" d="M1318.54,-196.71C1296.46,-185.19 1265.17,-168.86 1246.3,-159.01"/>
<polygon fill="midnightblue" stroke="midnightblue" points="1317.18,-199.95 1327.67,-201.48 1320.42,-193.75 1317.18,-199.95"/>
</g>
<!-- Node14 -->
<g id="node14" class="node">
<title>Node14</title>
<g id="a_node14"><a xlink:href="BPFTargetMachine_8h.html" target="_top" xlink:title=" ">
<polygon fill="none" stroke="black" points="954,-134.5 954,-164.5 1088,-164.5 1088,-134.5 954,-134.5"/>
<text text-anchor="start" x="962" y="-152.5" font-family="Helvetica,sans-Serif" font-size="10.00">lib/Target/BPF/BPFTarget</text>
<text text-anchor="middle" x="1021" y="-141.5" font-family="Helvetica,sans-Serif" font-size="10.00">Machine.h</text>
</a>
</g>
</g>
<!-- Node9&#45;&gt;Node14 -->
<g id="edge14" class="edge">
<title>Node9&#45;&gt;Node14</title>
<path fill="none" stroke="midnightblue" d="M1287.71,-199.63C1232.19,-189.4 1147.31,-173.77 1088.27,-162.89"/>
<polygon fill="midnightblue" stroke="midnightblue" points="1287.25,-203.11 1297.72,-201.48 1288.52,-196.22 1287.25,-203.11"/>
</g>
<!-- Node14&#45;&gt;Node3 -->
<g id="edge17" class="edge">
<title>Node14&#45;&gt;Node3</title>
<path fill="none" stroke="midnightblue" d="M1098.15,-134.58C1099.45,-134.38 1100.73,-134.19 1102,-134 1238.78,-113.81 1273.93,-116.12 1411,-98 1424.81,-96.17 1439.69,-94.05 1453.59,-92"/>
<polygon fill="midnightblue" stroke="midnightblue" points="1097.47,-131.14 1088.13,-136.16 1098.55,-138.06 1097.47,-131.14"/>
</g>
<!-- Node14&#45;&gt;Node6 -->
<g id="edge21" class="edge">
<title>Node14&#45;&gt;Node6</title>
<path fill="none" stroke="midnightblue" d="M943.53,-140.75C918.2,-138.37 889.91,-135.89 864,-134 565.25,-112.22 489.08,-127.52 191,-98 175.55,-96.47 158.83,-94.26 143.57,-92.03"/>
<polygon fill="midnightblue" stroke="midnightblue" points="943.53,-144.26 953.82,-141.72 944.19,-137.29 943.53,-144.26"/>
</g>
<!-- Node14&#45;&gt;Node7 -->
<g id="edge22" class="edge">
<title>Node14&#45;&gt;Node7</title>
<path fill="none" stroke="midnightblue" d="M943.72,-138.51C929.84,-136.88 915.5,-135.3 902,-134 675.81,-112.25 617.94,-122.16 392,-98 376.76,-96.37 360.29,-94.19 345.16,-92.01"/>
<polygon fill="midnightblue" stroke="midnightblue" points="943.38,-141.99 953.73,-139.7 944.21,-135.04 943.38,-141.99"/>
</g>
<!-- Node14&#45;&gt;Node8 -->
<g id="edge23" class="edge">
<title>Node14&#45;&gt;Node8</title>
<path fill="none" stroke="midnightblue" d="M943.85,-134.54C942.56,-134.36 941.27,-134.18 940,-134 775.01,-111.31 732.15,-119.55 567,-98 563.93,-97.6 560.8,-97.17 557.64,-96.73"/>
<polygon fill="midnightblue" stroke="midnightblue" points="943.47,-138.02 953.88,-136.05 944.52,-131.1 943.47,-138.02"/>
</g>
<!-- Node14&#45;&gt;Node10 -->
<g id="edge19" class="edge">
<title>Node14&#45;&gt;Node10</title>
<path fill="none" stroke="midnightblue" d="M1098.33,-137.89C1110.58,-136.43 1123.12,-135.07 1135,-134 1435.54,-106.94 1513.04,-130.86 1813,-98 1816.04,-97.67 1819.14,-97.3 1822.27,-96.9"/>
<polygon fill="midnightblue" stroke="midnightblue" points="1097.63,-134.45 1088.12,-139.13 1098.47,-141.39 1097.63,-134.45"/>
</g>
<!-- Node14&#45;&gt;Node11 -->
<g id="edge20" class="edge">
<title>Node14&#45;&gt;Node11</title>
<path fill="none" stroke="midnightblue" d="M1098.35,-138.13C1110.6,-136.64 1123.14,-135.21 1135,-134 1344.31,-112.72 1397.84,-120.68 1607,-98 1622.35,-96.34 1638.94,-94.17 1654.22,-92.01"/>
<polygon fill="midnightblue" stroke="midnightblue" points="1097.64,-134.69 1088.15,-139.39 1098.5,-141.64 1097.64,-134.69"/>
</g>
<!-- Node15 -->
<g id="node15" class="node">
<title>Node15</title>
<g id="a_node15"><a xlink:href="BPFAbstractMemberAccess_8cpp.html" target="_top" xlink:title=" ">
<polygon fill="none" stroke="black" points="1106,-67.5 1106,-97.5 1250,-97.5 1250,-67.5 1106,-67.5"/>
<text text-anchor="start" x="1114" y="-85.5" font-family="Helvetica,sans-Serif" font-size="10.00">lib/Target/BPF/BPFAbstract</text>
<text text-anchor="middle" x="1178" y="-74.5" font-family="Helvetica,sans-Serif" font-size="10.00">MemberAccess.cpp</text>
</a>
</g>
</g>
<!-- Node14&#45;&gt;Node15 -->
<g id="edge15" class="edge">
<title>Node14&#45;&gt;Node15</title>
<path fill="none" stroke="midnightblue" d="M1064.37,-130.54C1089.49,-120.14 1120.66,-107.24 1144,-97.58"/>
<polygon fill="midnightblue" stroke="midnightblue" points="1062.97,-127.34 1055.07,-134.4 1065.64,-133.8 1062.97,-127.34"/>
</g>
<!-- Node16 -->
<g id="node16" class="node">
<title>Node16</title>
<g id="a_node16"><a xlink:href="BPFAdjustOpt_8cpp.html" target="_top" xlink:title=" ">
<polygon fill="none" stroke="black" points="1268,-67.5 1268,-97.5 1402,-97.5 1402,-67.5 1268,-67.5"/>
<text text-anchor="start" x="1276" y="-85.5" font-family="Helvetica,sans-Serif" font-size="10.00">lib/Target/BPF/BPFAdjust</text>
<text text-anchor="middle" x="1335" y="-74.5" font-family="Helvetica,sans-Serif" font-size="10.00">Opt.cpp</text>
</a>
</g>
</g>
<!-- Node14&#45;&gt;Node16 -->
<g id="edge16" class="edge">
<title>Node14&#45;&gt;Node16</title>
<path fill="none" stroke="midnightblue" d="M1098.2,-132.52C1150.16,-121.76 1218.01,-107.72 1267.75,-97.42"/>
<polygon fill="midnightblue" stroke="midnightblue" points="1097.44,-129.1 1088.36,-134.56 1098.86,-135.96 1097.44,-129.1"/>
</g>
<!-- Node17 -->
<g id="node17" class="node">
<title>Node17</title>
<g id="a_node17"><a xlink:href="BPFCheckAndAdjustIR_8cpp.html" target="_top" xlink:title=" ">
<polygon fill="none" stroke="black" points="576,-67.5 576,-97.5 730,-97.5 730,-67.5 576,-67.5"/>
<text text-anchor="start" x="584" y="-85.5" font-family="Helvetica,sans-Serif" font-size="10.00">lib/Target/BPF/BPFCheckAnd</text>
<text text-anchor="middle" x="653" y="-74.5" font-family="Helvetica,sans-Serif" font-size="10.00">AdjustIR.cpp</text>
</a>
</g>
</g>
<!-- Node14&#45;&gt;Node17 -->
<g id="edge18" class="edge">
<title>Node14&#45;&gt;Node17</title>
<path fill="none" stroke="midnightblue" d="M943.83,-134.68C942.54,-134.45 941.27,-134.22 940,-134 868.89,-121.38 787.85,-107.13 730.06,-97"/>
<polygon fill="midnightblue" stroke="midnightblue" points="943.36,-138.15 953.82,-136.46 944.59,-131.26 943.36,-138.15"/>
</g>
<!-- Node18 -->
<g id="node18" class="node">
<title>Node18</title>
<g id="a_node18"><a xlink:href="BPFSelectionDAGInfo_8cpp.html" target="_top" xlink:title=" ">
<polygon fill="none" stroke="black" points="748.5,-67.5 748.5,-97.5 897.5,-97.5 897.5,-67.5 748.5,-67.5"/>
<text text-anchor="start" x="756.5" y="-85.5" font-family="Helvetica,sans-Serif" font-size="10.00">lib/Target/BPF/BPFSelection</text>
<text text-anchor="middle" x="823" y="-74.5" font-family="Helvetica,sans-Serif" font-size="10.00">DAGInfo.cpp</text>
</a>
</g>
</g>
<!-- Node14&#45;&gt;Node18 -->
<g id="edge24" class="edge">
<title>Node14&#45;&gt;Node18</title>
<path fill="none" stroke="midnightblue" d="M968.39,-131.23C936.36,-120.71 895.96,-107.45 865.88,-97.58"/>
<polygon fill="midnightblue" stroke="midnightblue" points="967.44,-134.6 978.04,-134.4 969.63,-127.95 967.44,-134.6"/>
</g>
<!-- Node19 -->
<g id="node19" class="node">
<title>Node19</title>
<g id="a_node19"><a xlink:href="BPFTargetMachine_8cpp.html" target="_top" xlink:title=" ">
<polygon fill="none" stroke="black" points="906,-0.5 906,-30.5 1040,-30.5 1040,-0.5 906,-0.5"/>
<text text-anchor="start" x="914" y="-18.5" font-family="Helvetica,sans-Serif" font-size="10.00">lib/Target/BPF/BPFTarget</text>
<text text-anchor="middle" x="973" y="-7.5" font-family="Helvetica,sans-Serif" font-size="10.00">Machine.cpp</text>
</a>
</g>
</g>
<!-- Node14&#45;&gt;Node19 -->
<g id="edge25" class="edge">
<title>Node14&#45;&gt;Node19</title>
<path fill="none" stroke="midnightblue" d="M977.09,-129.46C964.43,-121.65 952.12,-111.27 945,-98 933.05,-75.72 949.08,-47.34 961.36,-30.62"/>
<polygon fill="midnightblue" stroke="midnightblue" points="975.44,-132.54 985.86,-134.45 978.9,-126.46 975.44,-132.54"/>
</g>
<!-- Node20 -->
<g id="node20" class="node">
<title>Node20</title>
<g id="a_node20"><a xlink:href="BPFTargetTransformInfo_8h.html" target="_top" xlink:title=" ">
<polygon fill="none" stroke="black" points="954,-67.5 954,-97.5 1088,-97.5 1088,-67.5 954,-67.5"/>
<text text-anchor="start" x="962" y="-85.5" font-family="Helvetica,sans-Serif" font-size="10.00">lib/Target/BPF/BPFTarget</text>
<text text-anchor="middle" x="1021" y="-74.5" font-family="Helvetica,sans-Serif" font-size="10.00">TransformInfo.h</text>
</a>
</g>
</g>
<!-- Node14&#45;&gt;Node20 -->
<g id="edge26" class="edge">
<title>Node14&#45;&gt;Node20</title>
<path fill="none" stroke="midnightblue" d="M1021,-124.11C1021,-115.15 1021,-105.32 1021,-97.58"/>
<polygon fill="midnightblue" stroke="midnightblue" points="1017.5,-124.4 1021,-134.4 1024.5,-124.4 1017.5,-124.4"/>
</g>
<!-- Node20&#45;&gt;Node19 -->
<g id="edge27" class="edge">
<title>Node20&#45;&gt;Node19</title>
<path fill="none" stroke="midnightblue" d="M1004.5,-59.16C997.5,-49.68 989.56,-38.92 983.39,-30.58"/>
<polygon fill="midnightblue" stroke="midnightblue" points="1001.83,-61.43 1010.58,-67.4 1007.46,-57.27 1001.83,-61.43"/>
</g>
</g>
</svg>
