<?xml version="1.0" encoding="UTF-8" standalone="no"?>
<!DOCTYPE svg PUBLIC "-//W3C//DTD SVG 1.1//EN"
 "http://www.w3.org/Graphics/SVG/1.1/DTD/svg11.dtd">
<!-- Generated by graphviz version 2.48.0 (0)
 -->
<!-- Title: llvm::LanaiFrameLowering Pages: 1 -->
<svg width="299pt" height="152pt"
 viewBox="0.00 0.00 298.50 152.00" xmlns="http://www.w3.org/2000/svg" xmlns:xlink="http://www.w3.org/1999/xlink">
<g id="graph0" class="graph" transform="scale(1 1) rotate(0) translate(4 148)">
<title>llvm::LanaiFrameLowering</title>
<!-- Node1 -->
<g id="node1" class="node">
<title>Node1</title>
<g id="a_node1"><a xlink:title=" ">
<polygon fill="#bfbfbf" stroke="black" points="17.5,-0.5 17.5,-19.5 163.5,-19.5 163.5,-0.5 17.5,-0.5"/>
<text text-anchor="middle" x="90.5" y="-7.5" font-family="Helvetica,sans-Serif" font-size="10.00">llvm::LanaiFrameLowering</text>
</a>
</g>
</g>
<!-- Node2 -->
<g id="node2" class="node">
<title>Node2</title>
<g id="a_node2"><a xlink:href="$classllvm_1_1TargetFrameLowering.html" xlink:title="Information about stack frame layout on the target.">
<polygon fill="none" stroke="black" points="0,-67.5 0,-86.5 149,-86.5 149,-67.5 0,-67.5"/>
<text text-anchor="middle" x="74.5" y="-74.5" font-family="Helvetica,sans-Serif" font-size="10.00">llvm::TargetFrameLowering</text>
</a>
</g>
</g>
<!-- Node2&#45;&gt;Node1 -->
<g id="edge1" class="edge">
<title>Node2&#45;&gt;Node1</title>
<path fill="none" stroke="midnightblue" d="M79.07,-57.41C82.13,-44.99 86.02,-29.22 88.38,-19.63"/>
<polygon fill="midnightblue" stroke="midnightblue" points="75.65,-56.69 76.66,-67.23 82.45,-58.36 75.65,-56.69"/>
</g>
<!-- Node3 -->
<g id="node3" class="node">
<title>Node3</title>
<g id="a_node3"><a xlink:href="$classllvm_1_1LanaiSubtarget.html" xlink:title=" ">
<polygon fill="none" stroke="black" points="167.5,-67.5 167.5,-86.5 285.5,-86.5 285.5,-67.5 167.5,-67.5"/>
<text text-anchor="middle" x="226.5" y="-74.5" font-family="Helvetica,sans-Serif" font-size="10.00">llvm::LanaiSubtarget</text>
</a>
</g>
</g>
<!-- Node3&#45;&gt;Node1 -->
<g id="edge2" class="edge">
<title>Node3&#45;&gt;Node1</title>
<path fill="none" stroke="#9a32cd" stroke-dasharray="5,2" d="M199.18,-62.94C172.24,-50.07 131.84,-30.76 108.63,-19.67"/>
<polygon fill="#9a32cd" stroke="#9a32cd" points="197.91,-66.21 208.44,-67.37 200.93,-59.9 197.91,-66.21"/>
<text text-anchor="middle" x="176" y="-41" font-family="Helvetica,sans-Serif" font-size="10.00"> STI</text>
</g>
<!-- Node4 -->
<g id="node4" class="node">
<title>Node4</title>
<g id="a_node4"><a xlink:href="$classLanaiGenSubtargetInfo.html" xlink:title=" ">
<polygon fill="none" stroke="black" points="162.5,-124.5 162.5,-143.5 290.5,-143.5 290.5,-124.5 162.5,-124.5"/>
<text text-anchor="middle" x="226.5" y="-131.5" font-family="Helvetica,sans-Serif" font-size="10.00">LanaiGenSubtargetInfo</text>
</a>
</g>
</g>
<!-- Node4&#45;&gt;Node3 -->
<g id="edge3" class="edge">
<title>Node4&#45;&gt;Node3</title>
<path fill="none" stroke="midnightblue" d="M226.5,-114.12C226.5,-104.82 226.5,-94.06 226.5,-86.71"/>
<polygon fill="midnightblue" stroke="midnightblue" points="223,-114.41 226.5,-124.41 230,-114.41 223,-114.41"/>
</g>
</g>
</svg>
