<?xml version="1.0" encoding="UTF-8" standalone="no"?>
<!DOCTYPE svg PUBLIC "-//W3C//DTD SVG 1.1//EN"
 "http://www.w3.org/Graphics/SVG/1.1/DTD/svg11.dtd">
<!-- Generated by graphviz version 2.48.0 (0)
 -->
<!-- Title: llvm::MD5 Pages: 1 -->
<svg width="135pt" height="161pt"
 viewBox="0.00 0.00 135.00 161.00" xmlns="http://www.w3.org/2000/svg" xmlns:xlink="http://www.w3.org/1999/xlink">
<g id="graph0" class="graph" transform="scale(1 1) rotate(0) translate(4 157)">
<title>llvm::MD5</title>
<!-- Node1 -->
<g id="node1" class="node">
<title>Node1</title>
<g id="a_node1"><a xlink:title=" ">
<polygon fill="#bfbfbf" stroke="black" points="29.5,-0.5 29.5,-19.5 96.5,-19.5 96.5,-0.5 29.5,-0.5"/>
<text text-anchor="middle" x="63" y="-7.5" font-family="Helvetica,sans-Serif" font-size="10.00">llvm::MD5</text>
</a>
</g>
</g>
<!-- Node2 -->
<g id="node2" class="node">
<title>Node2</title>
<g id="a_node2"><a xlink:title=" ">
<polygon fill="none" stroke="#bfbfbf" points="0,-133.5 0,-152.5 56,-152.5 56,-133.5 0,-133.5"/>
<text text-anchor="middle" x="28" y="-140.5" font-family="Helvetica,sans-Serif" font-size="10.00">uint32_t</text>
</a>
</g>
</g>
<!-- Node2&#45;&gt;Node1 -->
<g id="edge1" class="edge">
<title>Node2&#45;&gt;Node1</title>
<path fill="none" stroke="#9a32cd" stroke-dasharray="5,2" d="M30.57,-123.31C33.78,-102.21 40.1,-67.03 50,-38 52.15,-31.7 55.4,-24.95 58.11,-19.77"/>
<polygon fill="#9a32cd" stroke="#9a32cd" points="27.07,-123.06 29.1,-133.46 33.99,-124.06 27.07,-123.06"/>
<text text-anchor="middle" x="63.5" y="-107" font-family="Helvetica,sans-Serif" font-size="10.00"> a</text>
<text text-anchor="middle" x="63.5" y="-96" font-family="Helvetica,sans-Serif" font-size="10.00">b</text>
<text text-anchor="middle" x="63.5" y="-85" font-family="Helvetica,sans-Serif" font-size="10.00">block</text>
<text text-anchor="middle" x="63.5" y="-74" font-family="Helvetica,sans-Serif" font-size="10.00">c</text>
<text text-anchor="middle" x="63.5" y="-63" font-family="Helvetica,sans-Serif" font-size="10.00">d</text>
<text text-anchor="middle" x="63.5" y="-52" font-family="Helvetica,sans-Serif" font-size="10.00">hi</text>
<text text-anchor="middle" x="63.5" y="-41" font-family="Helvetica,sans-Serif" font-size="10.00">lo</text>
</g>
<!-- Node3 -->
<g id="node3" class="node">
<title>Node3</title>
<g id="a_node3"><a xlink:title=" ">
<polygon fill="none" stroke="#bfbfbf" points="74,-133.5 74,-152.5 124,-152.5 124,-133.5 74,-133.5"/>
<text text-anchor="middle" x="99" y="-140.5" font-family="Helvetica,sans-Serif" font-size="10.00">uint8_t</text>
</a>
</g>
</g>
<!-- Node3&#45;&gt;Node1 -->
<g id="edge2" class="edge">
<title>Node3&#45;&gt;Node1</title>
<path fill="none" stroke="#9a32cd" stroke-dasharray="5,2" d="M96.59,-123.26C93.52,-102.1 87.33,-66.88 77,-38 74.72,-31.64 71.22,-24.89 68.29,-19.73"/>
<polygon fill="#9a32cd" stroke="#9a32cd" points="93.16,-124 97.98,-133.43 100.1,-123.05 93.16,-124"/>
<text text-anchor="middle" x="111" y="-74" font-family="Helvetica,sans-Serif" font-size="10.00"> buffer</text>
</g>
</g>
</svg>
