<?xml version="1.0" encoding="UTF-8" standalone="no"?>
<!DOCTYPE svg PUBLIC "-//W3C//DTD SVG 1.1//EN"
 "http://www.w3.org/Graphics/SVG/1.1/DTD/svg11.dtd">
<!-- Generated by graphviz version 2.48.0 (0)
 -->
<!-- Title: llvm::orc::LLLazyJITBuilderSetters&lt; JITType, SetterImpl, State &gt; Pages: 1 -->
<svg width="926pt" height="51pt"
 viewBox="0.00 0.00 926.00 51.00" xmlns="http://www.w3.org/2000/svg" xmlns:xlink="http://www.w3.org/1999/xlink">
<g id="graph0" class="graph" transform="scale(1 1) rotate(0) translate(4 47)">
<title>llvm::orc::LLLazyJITBuilderSetters&lt; JITType, SetterImpl, State &gt;</title>
<!-- Node1 -->
<g id="node1" class="node">
<title>Node1</title>
<g id="a_node1"><a xlink:title=" ">
<polygon fill="#bfbfbf" stroke="black" points="199,-0.5 199,-41.5 356,-41.5 356,-0.5 199,-0.5"/>
<text text-anchor="start" x="207" y="-29.5" font-family="Helvetica,sans-Serif" font-size="10.00">llvm::orc::LLLazyJITBuilder</text>
<text text-anchor="start" x="207" y="-18.5" font-family="Helvetica,sans-Serif" font-size="10.00">Setters&lt; JITType, SetterImpl,</text>
<text text-anchor="middle" x="277.5" y="-7.5" font-family="Helvetica,sans-Serif" font-size="10.00"> State &gt;</text>
</a>
</g>
</g>
<!-- Node3 -->
<g id="node3" class="node">
<title>Node3</title>
<g id="a_node3"><a xlink:href="$classllvm_1_1orc_1_1LLLazyJITBuilderSetters.html" xlink:title=" ">
<polygon fill="none" stroke="black" points="540,-0.5 540,-41.5 736,-41.5 736,-0.5 540,-0.5"/>
<text text-anchor="start" x="548" y="-29.5" font-family="Helvetica,sans-Serif" font-size="10.00">llvm::orc::LLLazyJITBuilder</text>
<text text-anchor="start" x="548" y="-18.5" font-family="Helvetica,sans-Serif" font-size="10.00">Setters&lt; LLLazyJIT, LLLazyJITBuilder,</text>
<text text-anchor="middle" x="638" y="-7.5" font-family="Helvetica,sans-Serif" font-size="10.00"> LLLazyJITBuilderState &gt;</text>
</a>
</g>
</g>
<!-- Node1&#45;&gt;Node3 -->
<g id="edge2" class="edge">
<title>Node1&#45;&gt;Node3</title>
<path fill="none" stroke="orange" stroke-dasharray="5,2" d="M366.59,-21C419.09,-21 485.81,-21 539.84,-21"/>
<polygon fill="orange" stroke="orange" points="366.29,-17.5 356.29,-21 366.29,-24.5 366.29,-17.5"/>
<text text-anchor="start" x="374" y="-35" font-family="Helvetica,sans-Serif" font-size="10.00"> &lt; LLLazyJIT, LLLazyJITBuilder,</text>
<text text-anchor="middle" x="448" y="-24" font-family="Helvetica,sans-Serif" font-size="10.00"> LLLazyJITBuilderState &gt;</text>
</g>
<!-- Node2 -->
<g id="node2" class="node">
<title>Node2</title>
<g id="a_node2"><a xlink:href="$classllvm_1_1orc_1_1LLJITBuilderSetters.html" xlink:title=" ">
<polygon fill="none" stroke="black" points="0,-6 0,-36 162,-36 162,-6 0,-6"/>
<text text-anchor="start" x="8" y="-24" font-family="Helvetica,sans-Serif" font-size="10.00">llvm::orc::LLJITBuilderSetters</text>
<text text-anchor="middle" x="81" y="-13" font-family="Helvetica,sans-Serif" font-size="10.00">&lt; JITType, SetterImpl, State &gt;</text>
</a>
</g>
</g>
<!-- Node2&#45;&gt;Node1 -->
<g id="edge1" class="edge">
<title>Node2&#45;&gt;Node1</title>
<path fill="none" stroke="midnightblue" d="M172.26,-21C181.18,-21 190.18,-21 198.96,-21"/>
<polygon fill="midnightblue" stroke="midnightblue" points="172.23,-17.5 162.23,-21 172.23,-24.5 172.23,-17.5"/>
</g>
<!-- Node4 -->
<g id="node4" class="node">
<title>Node4</title>
<g id="a_node4"><a xlink:href="$classllvm_1_1orc_1_1LLLazyJITBuilder.html" xlink:title="Constructs LLLazyJIT instances.">
<polygon fill="none" stroke="black" points="773,-11.5 773,-30.5 918,-30.5 918,-11.5 773,-11.5"/>
<text text-anchor="middle" x="845.5" y="-18.5" font-family="Helvetica,sans-Serif" font-size="10.00">llvm::orc::LLLazyJITBuilder</text>
</a>
</g>
</g>
<!-- Node3&#45;&gt;Node4 -->
<g id="edge3" class="edge">
<title>Node3&#45;&gt;Node4</title>
<path fill="none" stroke="midnightblue" d="M746.19,-21C755.18,-21 764.12,-21 772.75,-21"/>
<polygon fill="midnightblue" stroke="midnightblue" points="746.03,-17.5 736.03,-21 746.03,-24.5 746.03,-17.5"/>
</g>
</g>
</svg>
