<?xml version="1.0" encoding="UTF-8" standalone="no"?>
<!DOCTYPE svg PUBLIC "-//W3C//DTD SVG 1.1//EN"
 "http://www.w3.org/Graphics/SVG/1.1/DTD/svg11.dtd">
<!-- Generated by graphviz version 2.48.0 (0)
 -->
<!-- Title: llvm::object::WasmSymbol Pages: 1 -->
<svg width="2336pt" height="654pt"
 viewBox="0.00 0.00 2336.00 653.64" xmlns="http://www.w3.org/2000/svg" xmlns:xlink="http://www.w3.org/1999/xlink">
<g id="graph0" class="graph" transform="scale(1 1) rotate(0) translate(4 649.64)">
<title>llvm::object::WasmSymbol</title>
<!-- Node1 -->
<g id="node1" class="node">
<title>Node1</title>
<g id="a_node1"><a xlink:title=" ">
<polygon fill="#bfbfbf" stroke="black" points="2181,-335 2181,-354 2328,-354 2328,-335 2181,-335"/>
<text text-anchor="middle" x="2254.5" y="-342" font-family="Helvetica,sans-Serif" font-size="10.00">llvm::object::WasmSymbol</text>
</a>
</g>
</g>
<!-- Node2 -->
<g id="node2" class="node">
<title>Node2</title>
<g id="a_node2"><a xlink:href="$structllvm_1_1wasm_1_1WasmSignature.html" xlink:title=" ">
<polygon fill="none" stroke="black" points="1932.5,-420 1932.5,-439 2088.5,-439 2088.5,-420 1932.5,-420"/>
<text text-anchor="middle" x="2010.5" y="-427" font-family="Helvetica,sans-Serif" font-size="10.00">llvm::wasm::WasmSignature</text>
</a>
</g>
</g>
<!-- Node2&#45;&gt;Node1 -->
<g id="edge1" class="edge">
<title>Node2&#45;&gt;Node1</title>
<path fill="none" stroke="#9a32cd" stroke-dasharray="5,2" d="M2054.16,-417C2084.68,-407.8 2126.64,-394.67 2163,-381.5 2186.62,-372.95 2213.18,-361.92 2231.38,-354.13"/>
<polygon fill="#9a32cd" stroke="#9a32cd" points="2052.84,-413.74 2044.27,-419.96 2054.85,-420.44 2052.84,-413.74"/>
<text text-anchor="middle" x="2137" y="-400.5" font-family="Helvetica,sans-Serif" font-size="10.00"> Signature</text>
</g>
<!-- Node3 -->
<g id="node3" class="node">
<title>Node3</title>
<g id="a_node3"><a xlink:href="$classllvm_1_1SmallVector.html" xlink:title=" ">
<polygon fill="none" stroke="black" points="1676.5,-439.5 1676.5,-469.5 1787.5,-469.5 1787.5,-439.5 1676.5,-439.5"/>
<text text-anchor="start" x="1684.5" y="-457.5" font-family="Helvetica,sans-Serif" font-size="10.00">llvm::SmallVector&lt;</text>
<text text-anchor="middle" x="1732" y="-446.5" font-family="Helvetica,sans-Serif" font-size="10.00"> ValType, 1 &gt;</text>
</a>
</g>
</g>
<!-- Node3&#45;&gt;Node2 -->
<g id="edge2" class="edge">
<title>Node3&#45;&gt;Node2</title>
<path fill="none" stroke="#9a32cd" stroke-dasharray="5,2" d="M1797.61,-448.66C1837.92,-445.01 1890.03,-440.3 1932.48,-436.46"/>
<polygon fill="#9a32cd" stroke="#9a32cd" points="1797.27,-445.17 1787.63,-449.56 1797.9,-452.15 1797.27,-445.17"/>
<text text-anchor="middle" x="1875.5" y="-446.5" font-family="Helvetica,sans-Serif" font-size="10.00"> Returns</text>
</g>
<!-- Node4 -->
<g id="node4" class="node">
<title>Node4</title>
<g id="a_node4"><a xlink:href="$classllvm_1_1SmallVectorImpl.html" xlink:title="This class consists of common code factored out of the SmallVector class to reduce code duplication b...">
<polygon fill="none" stroke="black" points="1188.5,-444 1188.5,-463 1341.5,-463 1341.5,-444 1188.5,-444"/>
<text text-anchor="middle" x="1265" y="-451" font-family="Helvetica,sans-Serif" font-size="10.00">llvm::SmallVectorImpl&lt; T &gt;</text>
</a>
</g>
</g>
<!-- Node4&#45;&gt;Node3 -->
<g id="edge3" class="edge">
<title>Node4&#45;&gt;Node3</title>
<path fill="none" stroke="midnightblue" d="M1351.77,-445.78C1365.23,-444.83 1378.98,-444.02 1392,-443.5 1494.6,-439.43 1520.44,-442.42 1623,-447.5 1640.36,-448.36 1659.27,-449.51 1676.35,-450.63"/>
<polygon fill="midnightblue" stroke="midnightblue" points="1351.28,-442.3 1341.56,-446.52 1351.79,-449.28 1351.28,-442.3"/>
</g>
<!-- Node14 -->
<g id="node14" class="node">
<title>Node14</title>
<g id="a_node14"><a xlink:href="$classllvm_1_1SmallVector.html" xlink:title="This is a &#39;vector&#39; (really, a variable&#45;sized array), optimized for the case when the array is small.">
<polygon fill="none" stroke="black" points="1393.5,-452.5 1393.5,-482.5 1504.5,-482.5 1504.5,-452.5 1393.5,-452.5"/>
<text text-anchor="start" x="1401.5" y="-470.5" font-family="Helvetica,sans-Serif" font-size="10.00">llvm::SmallVector&lt;</text>
<text text-anchor="middle" x="1449" y="-459.5" font-family="Helvetica,sans-Serif" font-size="10.00"> T, N &gt;</text>
</a>
</g>
</g>
<!-- Node4&#45;&gt;Node14 -->
<g id="edge14" class="edge">
<title>Node4&#45;&gt;Node14</title>
<path fill="none" stroke="midnightblue" d="M1351.86,-460.1C1366.01,-461.19 1380.33,-462.29 1393.43,-463.3"/>
<polygon fill="midnightblue" stroke="midnightblue" points="1351.84,-456.59 1341.6,-459.32 1351.31,-463.57 1351.84,-456.59"/>
</g>
<!-- Node16 -->
<g id="node16" class="node">
<title>Node16</title>
<g id="a_node16"><a xlink:href="$classllvm_1_1SmallVector.html" xlink:title=" ">
<polygon fill="none" stroke="black" points="1676.5,-493.5 1676.5,-523.5 1787.5,-523.5 1787.5,-493.5 1676.5,-493.5"/>
<text text-anchor="start" x="1684.5" y="-511.5" font-family="Helvetica,sans-Serif" font-size="10.00">llvm::SmallVector&lt;</text>
<text text-anchor="middle" x="1732" y="-500.5" font-family="Helvetica,sans-Serif" font-size="10.00"> ValType, 4 &gt;</text>
</a>
</g>
</g>
<!-- Node4&#45;&gt;Node16 -->
<g id="edge18" class="edge">
<title>Node4&#45;&gt;Node16</title>
<path fill="none" stroke="midnightblue" d="M1300.07,-466.49C1325.11,-475.43 1360.18,-486.7 1392,-492.5 1491.12,-510.57 1609.08,-511.64 1676.48,-510.36"/>
<polygon fill="midnightblue" stroke="midnightblue" points="1301.26,-463.19 1290.66,-463.07 1298.87,-469.77 1301.26,-463.19"/>
</g>
<!-- Node5 -->
<g id="node5" class="node">
<title>Node5</title>
<g id="a_node5"><a xlink:href="$classllvm_1_1SmallVectorTemplateBase.html" xlink:title="SmallVectorTemplateBase&lt;TriviallyCopyable = false&gt; &#45; This is where we put method implementations that...">
<polygon fill="none" stroke="black" points="860,-436.5 860,-466.5 1008,-466.5 1008,-436.5 860,-436.5"/>
<text text-anchor="start" x="868" y="-454.5" font-family="Helvetica,sans-Serif" font-size="10.00">llvm::SmallVectorTemplate</text>
<text text-anchor="middle" x="934" y="-443.5" font-family="Helvetica,sans-Serif" font-size="10.00">Base&lt; T, bool &gt;</text>
</a>
</g>
</g>
<!-- Node5&#45;&gt;Node4 -->
<g id="edge4" class="edge">
<title>Node5&#45;&gt;Node4</title>
<path fill="none" stroke="midnightblue" d="M1018.27,-452.01C1070.59,-452.32 1137.53,-452.73 1188.33,-453.04"/>
<polygon fill="midnightblue" stroke="midnightblue" points="1018.04,-448.5 1008.02,-451.94 1017.99,-455.5 1018.04,-448.5"/>
</g>
<!-- Node6 -->
<g id="node6" class="node">
<title>Node6</title>
<g id="a_node6"><a xlink:href="$classllvm_1_1SmallVectorTemplateCommon.html" xlink:title="This is the part of SmallVectorTemplateBase which does not depend on whether the type T is a POD.">
<polygon fill="none" stroke="black" points="575,-436.5 575,-466.5 723,-466.5 723,-436.5 575,-436.5"/>
<text text-anchor="start" x="583" y="-454.5" font-family="Helvetica,sans-Serif" font-size="10.00">llvm::SmallVectorTemplate</text>
<text text-anchor="middle" x="649" y="-443.5" font-family="Helvetica,sans-Serif" font-size="10.00">Common&lt; T, typename &gt;</text>
</a>
</g>
</g>
<!-- Node6&#45;&gt;Node5 -->
<g id="edge5" class="edge">
<title>Node6&#45;&gt;Node5</title>
<path fill="none" stroke="midnightblue" d="M733.26,-451.5C773.3,-451.5 820.89,-451.5 859.57,-451.5"/>
<polygon fill="midnightblue" stroke="midnightblue" points="733.25,-448 723.25,-451.5 733.25,-455 733.25,-448"/>
</g>
<!-- Node7 -->
<g id="node7" class="node">
<title>Node7</title>
<g id="a_node7"><a xlink:href="$classllvm_1_1SmallVectorBase.html" xlink:title=" ">
<polygon fill="none" stroke="black" points="409,-431 409,-472 538,-472 538,-431 409,-431"/>
<text text-anchor="start" x="417" y="-460" font-family="Helvetica,sans-Serif" font-size="10.00">llvm::SmallVectorBase</text>
<text text-anchor="start" x="417" y="-449" font-family="Helvetica,sans-Serif" font-size="10.00">&lt; SmallVectorSizeType</text>
<text text-anchor="middle" x="473.5" y="-438" font-family="Helvetica,sans-Serif" font-size="10.00">&lt; T &gt; &gt;</text>
</a>
</g>
</g>
<!-- Node7&#45;&gt;Node6 -->
<g id="edge6" class="edge">
<title>Node7&#45;&gt;Node6</title>
<path fill="none" stroke="midnightblue" d="M548.37,-451.5C557.19,-451.5 566.19,-451.5 574.99,-451.5"/>
<polygon fill="midnightblue" stroke="midnightblue" points="548.12,-448 538.12,-451.5 548.12,-455 548.12,-448"/>
</g>
<!-- Node8 -->
<g id="node8" class="node">
<title>Node8</title>
<g id="a_node8"><a xlink:href="$classllvm_1_1SmallVectorBase.html" xlink:title="This is all the stuff common to all SmallVectors.">
<polygon fill="none" stroke="black" points="130,-436.5 130,-466.5 257,-466.5 257,-436.5 130,-436.5"/>
<text text-anchor="start" x="138" y="-454.5" font-family="Helvetica,sans-Serif" font-size="10.00">llvm::SmallVectorBase</text>
<text text-anchor="middle" x="193.5" y="-443.5" font-family="Helvetica,sans-Serif" font-size="10.00">&lt; Size_T &gt;</text>
</a>
</g>
</g>
<!-- Node8&#45;&gt;Node7 -->
<g id="edge7" class="edge">
<title>Node8&#45;&gt;Node7</title>
<path fill="none" stroke="orange" stroke-dasharray="5,2" d="M267.26,-451.5C311.09,-451.5 366.4,-451.5 408.55,-451.5"/>
<polygon fill="orange" stroke="orange" points="267.24,-448 257.24,-451.5 267.24,-455 267.24,-448"/>
<text text-anchor="start" x="275" y="-465.5" font-family="Helvetica,sans-Serif" font-size="10.00"> &lt; SmallVectorSizeType</text>
<text text-anchor="middle" x="333" y="-454.5" font-family="Helvetica,sans-Serif" font-size="10.00">&lt; T &gt; &gt;</text>
</g>
<!-- Node9 -->
<g id="node9" class="node">
<title>Node9</title>
<g id="a_node9"><a xlink:title=" ">
<polygon fill="none" stroke="#bfbfbf" points="0,-461 0,-480 48,-480 48,-461 0,-461"/>
<text text-anchor="middle" x="24" y="-468" font-family="Helvetica,sans-Serif" font-size="10.00">Size_T</text>
</a>
</g>
</g>
<!-- Node9&#45;&gt;Node8 -->
<g id="edge8" class="edge">
<title>Node9&#45;&gt;Node8</title>
<path fill="none" stroke="#9a32cd" stroke-dasharray="5,2" d="M58.33,-466.72C78.73,-464.41 105.48,-461.37 129.73,-458.62"/>
<polygon fill="#9a32cd" stroke="#9a32cd" points="57.83,-463.25 48.29,-467.86 58.62,-470.21 57.83,-463.25"/>
<text text-anchor="middle" x="89" y="-478.5" font-family="Helvetica,sans-Serif" font-size="10.00"> Capacity</text>
<text text-anchor="middle" x="89" y="-467.5" font-family="Helvetica,sans-Serif" font-size="10.00">Size</text>
</g>
<!-- Node10 -->
<g id="node10" class="node">
<title>Node10</title>
<g id="a_node10"><a xlink:title=" ">
<polygon fill="none" stroke="#bfbfbf" points="1,-423 1,-442 47,-442 47,-423 1,-423"/>
<text text-anchor="middle" x="24" y="-430" font-family="Helvetica,sans-Serif" font-size="10.00">void *</text>
</a>
</g>
</g>
<!-- Node10&#45;&gt;Node8 -->
<g id="edge9" class="edge">
<title>Node10&#45;&gt;Node8</title>
<path fill="none" stroke="#9a32cd" stroke-dasharray="5,2" d="M57.31,-436.16C77.82,-438.49 105.04,-441.58 129.69,-444.37"/>
<polygon fill="#9a32cd" stroke="#9a32cd" points="57.57,-432.67 47.24,-435.02 56.78,-439.63 57.57,-432.67"/>
<text text-anchor="middle" x="89" y="-444.5" font-family="Helvetica,sans-Serif" font-size="10.00"> BeginX</text>
</g>
<!-- Node11 -->
<g id="node11" class="node">
<title>Node11</title>
<g id="a_node11"><a xlink:href="$classbool.html" xlink:title=" ">
<polygon fill="none" stroke="black" points="630,-391 630,-410 668,-410 668,-391 630,-391"/>
<text text-anchor="middle" x="649" y="-398" font-family="Helvetica,sans-Serif" font-size="10.00">bool</text>
</a>
</g>
</g>
<!-- Node11&#45;&gt;Node5 -->
<g id="edge10" class="edge">
<title>Node11&#45;&gt;Node5</title>
<path fill="none" stroke="#9a32cd" stroke-dasharray="5,2" d="M678.18,-405.58C720.16,-413.14 800.52,-427.63 859.82,-438.31"/>
<polygon fill="#9a32cd" stroke="#9a32cd" points="678.6,-402.1 668.13,-403.77 677.35,-408.99 678.6,-402.1"/>
<text text-anchor="middle" x="791.5" y="-437.5" font-family="Helvetica,sans-Serif" font-size="10.00"> TakesParamByValue</text>
</g>
<!-- Node28 -->
<g id="node28" class="node">
<title>Node28</title>
<g id="a_node28"><a xlink:href="$structllvm_1_1wasm_1_1WasmGlobalType.html" xlink:title=" ">
<polygon fill="none" stroke="black" points="1650,-358 1650,-377 1814,-377 1814,-358 1650,-358"/>
<text text-anchor="middle" x="1732" y="-365" font-family="Helvetica,sans-Serif" font-size="10.00">llvm::wasm::WasmGlobalType</text>
</a>
</g>
</g>
<!-- Node11&#45;&gt;Node28 -->
<g id="edge34" class="edge">
<title>Node11&#45;&gt;Node28</title>
<path fill="none" stroke="#9a32cd" stroke-dasharray="5,2" d="M678.41,-397.66C729.37,-392.82 839.68,-383.5 933,-383.5 933,-383.5 933,-383.5 1450,-383.5 1517.43,-383.5 1593.82,-378.85 1649.91,-374.56"/>
<polygon fill="#9a32cd" stroke="#9a32cd" points="677.8,-394.2 668.19,-398.65 678.48,-401.17 677.8,-394.2"/>
<text text-anchor="middle" x="1265" y="-386.5" font-family="Helvetica,sans-Serif" font-size="10.00"> Mutable</text>
</g>
<!-- Node12 -->
<g id="node12" class="node">
<title>Node12</title>
<g id="a_node12"><a xlink:href="$structllvm_1_1SmallVectorStorage.html" xlink:title="Storage for the SmallVector elements.">
<polygon fill="none" stroke="black" points="864,-590.5 864,-620.5 1004,-620.5 1004,-590.5 864,-590.5"/>
<text text-anchor="start" x="872" y="-608.5" font-family="Helvetica,sans-Serif" font-size="10.00">llvm::SmallVectorStorage</text>
<text text-anchor="middle" x="934" y="-597.5" font-family="Helvetica,sans-Serif" font-size="10.00">&lt; T, N &gt;</text>
</a>
</g>
</g>
<!-- Node12&#45;&gt;Node3 -->
<g id="edge11" class="edge">
<title>Node12&#45;&gt;Node3</title>
<path fill="none" stroke="#8b1a1a" d="M1013.95,-595.37C1188.98,-572.71 1596.32,-518.8 1623,-504.5 1633.54,-498.85 1631,-491.05 1641,-484.5 1651.61,-477.55 1663.98,-472.07 1676.09,-467.8"/>
<polygon fill="#8b1a1a" stroke="#8b1a1a" points="1013.49,-591.9 1004.03,-596.65 1014.39,-598.84 1013.49,-591.9"/>
</g>
<!-- Node15 -->
<g id="node15" class="node">
<title>Node15</title>
<g id="a_node15"><a xlink:href="$structllvm_1_1SmallVectorStorage.html" xlink:title=" ">
<polygon fill="none" stroke="black" points="1175,-585 1175,-626 1355,-626 1355,-585 1175,-585"/>
<text text-anchor="start" x="1183" y="-614" font-family="Helvetica,sans-Serif" font-size="10.00">llvm::SmallVectorStorage</text>
<text text-anchor="start" x="1183" y="-603" font-family="Helvetica,sans-Serif" font-size="10.00">&lt; T, CalculateSmallVectorDefault</text>
<text text-anchor="middle" x="1265" y="-592" font-family="Helvetica,sans-Serif" font-size="10.00">InlinedElements&lt; T &gt;::value &gt;</text>
</a>
</g>
</g>
<!-- Node12&#45;&gt;Node15 -->
<g id="edge16" class="edge">
<title>Node12&#45;&gt;Node15</title>
<path fill="none" stroke="orange" stroke-dasharray="5,2" d="M1014.49,-605.5C1062.93,-605.5 1124.92,-605.5 1174.99,-605.5"/>
<polygon fill="orange" stroke="orange" points="1014.37,-602 1004.37,-605.5 1014.37,-609 1014.37,-602"/>
<text text-anchor="start" x="1026" y="-630.5" font-family="Helvetica,sans-Serif" font-size="10.00"> &lt; T, CalculateSmallVector</text>
<text text-anchor="start" x="1026" y="-619.5" font-family="Helvetica,sans-Serif" font-size="10.00">DefaultInlinedElements</text>
<text text-anchor="middle" x="1091.5" y="-608.5" font-family="Helvetica,sans-Serif" font-size="10.00">&lt; T &gt;::value &gt;</text>
</g>
<!-- Node12&#45;&gt;Node16 -->
<g id="edge19" class="edge">
<title>Node12&#45;&gt;Node16</title>
<path fill="none" stroke="#8b1a1a" d="M975.06,-624.56C990.6,-630.97 1008.77,-637.3 1026,-640.5 1083.24,-651.13 1098.78,-641.23 1157,-640.5 1366.42,-637.86 1428.47,-648.09 1623,-570.5 1654.53,-557.92 1688.01,-537.45 1709.18,-523.5"/>
<polygon fill="#8b1a1a" stroke="#8b1a1a" points="976.33,-621.29 965.76,-620.58 973.58,-627.73 976.33,-621.29"/>
</g>
<!-- Node13 -->
<g id="node13" class="node">
<title>Node13</title>
<g id="a_node13"><a xlink:title=" ">
<polygon fill="none" stroke="#bfbfbf" points="630,-596 630,-615 668,-615 668,-596 630,-596"/>
<text text-anchor="middle" x="649" y="-603" font-family="Helvetica,sans-Serif" font-size="10.00">char</text>
</a>
</g>
</g>
<!-- Node13&#45;&gt;Node12 -->
<g id="edge12" class="edge">
<title>Node13&#45;&gt;Node12</title>
<path fill="none" stroke="#9a32cd" stroke-dasharray="5,2" d="M678.14,-605.5C721.06,-605.5 804.18,-605.5 863.83,-605.5"/>
<polygon fill="#9a32cd" stroke="#9a32cd" points="678.13,-602 668.13,-605.5 678.13,-609 678.13,-602"/>
<text text-anchor="middle" x="791.5" y="-608.5" font-family="Helvetica,sans-Serif" font-size="10.00"> InlineElts</text>
</g>
<!-- Node14&#45;&gt;Node3 -->
<g id="edge13" class="edge">
<title>Node14&#45;&gt;Node3</title>
<path fill="none" stroke="orange" stroke-dasharray="5,2" d="M1514.8,-456.4C1517.91,-456.05 1520.98,-455.75 1524,-455.5 1575.57,-451.22 1634.62,-451.44 1676.42,-452.45"/>
<polygon fill="orange" stroke="orange" points="1514.34,-452.93 1504.84,-457.63 1515.19,-459.88 1514.34,-452.93"/>
<text text-anchor="middle" x="1573.5" y="-458.5" font-family="Helvetica,sans-Serif" font-size="10.00"> &lt; ValType, 1 &gt;</text>
</g>
<!-- Node14&#45;&gt;Node16 -->
<g id="edge20" class="edge">
<title>Node14&#45;&gt;Node16</title>
<path fill="none" stroke="orange" stroke-dasharray="5,2" d="M1514.91,-475.01C1547.42,-478.96 1587.34,-484.1 1623,-489.5 1640.41,-492.14 1659.34,-495.35 1676.42,-498.38"/>
<polygon fill="orange" stroke="orange" points="1514.98,-471.49 1504.63,-473.77 1514.14,-478.44 1514.98,-471.49"/>
<text text-anchor="middle" x="1573.5" y="-492.5" font-family="Helvetica,sans-Serif" font-size="10.00"> &lt; ValType, 4 &gt;</text>
</g>
<!-- Node15&#45;&gt;Node14 -->
<g id="edge15" class="edge">
<title>Node15&#45;&gt;Node14</title>
<path fill="none" stroke="#8b1a1a" d="M1301.45,-578.62C1339.25,-549.96 1397.76,-505.59 1428.15,-482.55"/>
<polygon fill="#8b1a1a" stroke="#8b1a1a" points="1299.1,-576.01 1293.25,-584.84 1303.33,-581.59 1299.1,-576.01"/>
</g>
<!-- Node16&#45;&gt;Node2 -->
<g id="edge17" class="edge">
<title>Node16&#45;&gt;Node2</title>
<path fill="none" stroke="#9a32cd" stroke-dasharray="5,2" d="M1796.6,-490.67C1830.31,-481.19 1872.43,-469.28 1910,-458.5 1932.31,-452.1 1957.4,-444.78 1976.81,-439.1"/>
<polygon fill="#9a32cd" stroke="#9a32cd" points="1795.55,-487.33 1786.87,-493.41 1797.44,-494.07 1795.55,-487.33"/>
<text text-anchor="middle" x="1875.5" y="-480.5" font-family="Helvetica,sans-Serif" font-size="10.00"> Params</text>
</g>
<!-- Node17 -->
<g id="node17" class="node">
<title>Node17</title>
<g id="a_node17"><a xlink:title=" ">
<polygon fill="none" stroke="#bfbfbf" points="1681,-401 1681,-420 1783,-420 1783,-401 1681,-401"/>
<text text-anchor="middle" x="1732" y="-408" font-family="Helvetica,sans-Serif" font-size="10.00">anonymous:State</text>
</a>
</g>
</g>
<!-- Node17&#45;&gt;Node2 -->
<g id="edge21" class="edge">
<title>Node17&#45;&gt;Node2</title>
<path fill="none" stroke="#9a32cd" stroke-dasharray="5,2" d="M1793.36,-411.11C1827.62,-411.82 1871.26,-413.32 1910,-416.5 1920.85,-417.39 1932.34,-418.62 1943.5,-419.97"/>
<polygon fill="#9a32cd" stroke="#9a32cd" points="1793.11,-407.61 1783.05,-410.92 1792.98,-414.6 1793.11,-407.61"/>
<text text-anchor="middle" x="1875.5" y="-419.5" font-family="Helvetica,sans-Serif" font-size="10.00"> State</text>
</g>
<!-- Node18 -->
<g id="node18" class="node">
<title>Node18</title>
<g id="a_node18"><a xlink:href="$structllvm_1_1wasm_1_1WasmSymbolInfo.html" xlink:title=" ">
<polygon fill="none" stroke="black" points="1928,-146 1928,-165 2093,-165 2093,-146 1928,-146"/>
<text text-anchor="middle" x="2010.5" y="-153" font-family="Helvetica,sans-Serif" font-size="10.00">llvm::wasm::WasmSymbolInfo</text>
</a>
</g>
</g>
<!-- Node18&#45;&gt;Node1 -->
<g id="edge22" class="edge">
<title>Node18&#45;&gt;Node1</title>
<path fill="none" stroke="#9a32cd" stroke-dasharray="5,2" d="M2031.75,-171.31C2080.27,-209.21 2202.06,-304.33 2241.19,-334.89"/>
<polygon fill="#9a32cd" stroke="#9a32cd" points="2033.87,-168.53 2023.83,-165.13 2029.56,-174.05 2033.87,-168.53"/>
<text text-anchor="middle" x="2137" y="-274.5" font-family="Helvetica,sans-Serif" font-size="10.00"> Info</text>
</g>
<!-- Node19 -->
<g id="node19" class="node">
<title>Node19</title>
<g id="a_node19"><a xlink:title=" ">
<polygon fill="none" stroke="#bfbfbf" points="1680,-231 1680,-250 1784,-250 1784,-231 1680,-231"/>
<text text-anchor="middle" x="1732" y="-238" font-family="Helvetica,sans-Serif" font-size="10.00">anonymous:@169</text>
</a>
</g>
</g>
<!-- Node19&#45;&gt;Node18 -->
<g id="edge23" class="edge">
<title>Node19&#45;&gt;Node18</title>
<path fill="none" stroke="#9a32cd" stroke-dasharray="5,2" d="M1794.27,-237.91C1829.03,-234.95 1872.87,-228.7 1910,-215.5 1944.21,-203.34 1979.51,-178.62 1997.44,-165.01"/>
<polygon fill="#9a32cd" stroke="#9a32cd" points="1793.96,-234.42 1784.26,-238.69 1794.5,-241.4 1793.96,-234.42"/>
<text text-anchor="middle" x="1875.5" y="-235.5" font-family="Helvetica,sans-Serif" font-size="10.00"> @169</text>
</g>
<!-- Node20 -->
<g id="node20" class="node">
<title>Node20</title>
<g id="a_node20"><a xlink:title=" ">
<polygon fill="none" stroke="#bfbfbf" points="1421,-73 1421,-92 1477,-92 1477,-73 1421,-73"/>
<text text-anchor="middle" x="1449" y="-80" font-family="Helvetica,sans-Serif" font-size="10.00">uint32_t</text>
</a>
</g>
</g>
<!-- Node20&#45;&gt;Node18 -->
<g id="edge24" class="edge">
<title>Node20&#45;&gt;Node18</title>
<path fill="none" stroke="#9a32cd" stroke-dasharray="5,2" d="M1487.21,-76.67C1554.86,-67.23 1702.21,-51.97 1823,-76.5 1889.51,-90.01 1961.74,-128.05 1993.26,-145.96"/>
<polygon fill="#9a32cd" stroke="#9a32cd" points="1486.45,-73.25 1477.05,-78.13 1487.44,-80.18 1486.45,-73.25"/>
<text text-anchor="middle" x="1732" y="-90.5" font-family="Helvetica,sans-Serif" font-size="10.00"> ElementIndex</text>
<text text-anchor="middle" x="1732" y="-79.5" font-family="Helvetica,sans-Serif" font-size="10.00">Flags</text>
</g>
<!-- Node24 -->
<g id="node24" class="node">
<title>Node24</title>
<g id="a_node24"><a xlink:href="$structllvm_1_1wasm_1_1WasmDataReference.html" xlink:title=" ">
<polygon fill="none" stroke="black" points="1641,-108 1641,-127 1823,-127 1823,-108 1641,-108"/>
<text text-anchor="middle" x="1732" y="-115" font-family="Helvetica,sans-Serif" font-size="10.00">llvm::wasm::WasmDataReference</text>
</a>
</g>
</g>
<!-- Node20&#45;&gt;Node24 -->
<g id="edge30" class="edge">
<title>Node20&#45;&gt;Node24</title>
<path fill="none" stroke="#9a32cd" stroke-dasharray="5,2" d="M1487.36,-87.15C1529.81,-92.44 1600.23,-101.21 1654.47,-107.97"/>
<polygon fill="#9a32cd" stroke="#9a32cd" points="1487.55,-83.65 1477.2,-85.89 1486.69,-90.6 1487.55,-83.65"/>
<text text-anchor="middle" x="1573.5" y="-106.5" font-family="Helvetica,sans-Serif" font-size="10.00"> Segment</text>
</g>
<!-- Node21 -->
<g id="node21" class="node">
<title>Node21</title>
<g id="a_node21"><a xlink:title=" ">
<polygon fill="none" stroke="#bfbfbf" points="1424,-300 1424,-319 1474,-319 1474,-300 1424,-300"/>
<text text-anchor="middle" x="1449" y="-307" font-family="Helvetica,sans-Serif" font-size="10.00">uint8_t</text>
</a>
</g>
</g>
<!-- Node21&#45;&gt;Node18 -->
<g id="edge25" class="edge">
<title>Node21&#45;&gt;Node18</title>
<path fill="none" stroke="#9a32cd" stroke-dasharray="5,2" d="M1460.22,-291.1C1472.52,-270.88 1495.17,-239.19 1524,-223.5 1600.05,-182.12 1824.3,-182.84 1910,-170.5 1922.02,-168.77 1934.84,-166.87 1947.15,-165.03"/>
<polygon fill="#9a32cd" stroke="#9a32cd" points="1457.2,-289.34 1455.17,-299.74 1463.24,-292.87 1457.2,-289.34"/>
<text text-anchor="middle" x="1732" y="-196.5" font-family="Helvetica,sans-Serif" font-size="10.00"> Kind</text>
</g>
<!-- Node21&#45;&gt;Node28 -->
<g id="edge35" class="edge">
<title>Node21&#45;&gt;Node28</title>
<path fill="none" stroke="#9a32cd" stroke-dasharray="5,2" d="M1483.28,-322.66C1495.88,-327.25 1510.45,-332.1 1524,-335.5 1564.92,-345.76 1611.25,-353.29 1649.7,-358.46"/>
<polygon fill="#9a32cd" stroke="#9a32cd" points="1484.25,-319.29 1473.65,-319.07 1481.8,-325.84 1484.25,-319.29"/>
<text text-anchor="middle" x="1573.5" y="-356.5" font-family="Helvetica,sans-Serif" font-size="10.00"> Type</text>
</g>
<!-- Node29 -->
<g id="node29" class="node">
<title>Node29</title>
<g id="a_node29"><a xlink:href="$structllvm_1_1wasm_1_1WasmTableType.html" xlink:title=" ">
<polygon fill="none" stroke="black" points="1931.5,-312 1931.5,-331 2089.5,-331 2089.5,-312 1931.5,-312"/>
<text text-anchor="middle" x="2010.5" y="-319" font-family="Helvetica,sans-Serif" font-size="10.00">llvm::wasm::WasmTableType</text>
</a>
</g>
</g>
<!-- Node21&#45;&gt;Node29 -->
<g id="edge40" class="edge">
<title>Node21&#45;&gt;Node29</title>
<path fill="none" stroke="#9a32cd" stroke-dasharray="5,2" d="M1484.26,-310.23C1572.22,-312.12 1807.75,-317.17 1931.34,-319.82"/>
<polygon fill="#9a32cd" stroke="#9a32cd" points="1484.11,-306.73 1474.04,-310.02 1483.96,-313.73 1484.11,-306.73"/>
<text text-anchor="middle" x="1732" y="-319.5" font-family="Helvetica,sans-Serif" font-size="10.00"> ElemType</text>
</g>
<!-- Node30 -->
<g id="node30" class="node">
<title>Node30</title>
<g id="a_node30"><a xlink:href="$structllvm_1_1wasm_1_1WasmLimits.html" xlink:title=" ">
<polygon fill="none" stroke="black" points="1662,-269 1662,-288 1802,-288 1802,-269 1662,-269"/>
<text text-anchor="middle" x="1732" y="-276" font-family="Helvetica,sans-Serif" font-size="10.00">llvm::wasm::WasmLimits</text>
</a>
</g>
</g>
<!-- Node21&#45;&gt;Node30 -->
<g id="edge39" class="edge">
<title>Node21&#45;&gt;Node30</title>
<path fill="none" stroke="#9a32cd" stroke-dasharray="5,2" d="M1484.31,-304.62C1496.8,-302.91 1511.03,-301.03 1524,-299.5 1569.92,-294.07 1621.67,-288.82 1661.94,-284.93"/>
<polygon fill="#9a32cd" stroke="#9a32cd" points="1483.73,-301.17 1474.3,-306.01 1484.69,-308.1 1483.73,-301.17"/>
<text text-anchor="middle" x="1573.5" y="-302.5" font-family="Helvetica,sans-Serif" font-size="10.00"> Flags</text>
</g>
<!-- Node22 -->
<g id="node22" class="node">
<title>Node22</title>
<g id="a_node22"><a xlink:href="$classllvm_1_1Optional.html" xlink:title=" ">
<polygon fill="none" stroke="black" points="1672.5,-0.5 1672.5,-30.5 1791.5,-30.5 1791.5,-0.5 1672.5,-0.5"/>
<text text-anchor="start" x="1680.5" y="-18.5" font-family="Helvetica,sans-Serif" font-size="10.00">llvm::Optional&lt; llvm</text>
<text text-anchor="middle" x="1732" y="-7.5" font-family="Helvetica,sans-Serif" font-size="10.00">::StringRef &gt;</text>
</a>
</g>
</g>
<!-- Node22&#45;&gt;Node18 -->
<g id="edge26" class="edge">
<title>Node22&#45;&gt;Node18</title>
<path fill="none" stroke="#9a32cd" stroke-dasharray="5,2" d="M1801.6,-3.8C1835.97,-1.21 1877.15,-3.32 1910,-20.5 1963.4,-48.43 1995.5,-119.46 2005.83,-145.63"/>
<polygon fill="#9a32cd" stroke="#9a32cd" points="1801.28,-0.31 1791.64,-4.69 1801.91,-7.28 1801.28,-0.31"/>
<text text-anchor="middle" x="1875.5" y="-45.5" font-family="Helvetica,sans-Serif" font-size="10.00"> ExportName</text>
<text text-anchor="middle" x="1875.5" y="-34.5" font-family="Helvetica,sans-Serif" font-size="10.00">ImportModule</text>
<text text-anchor="middle" x="1875.5" y="-23.5" font-family="Helvetica,sans-Serif" font-size="10.00">ImportName</text>
</g>
<!-- Node23 -->
<g id="node23" class="node">
<title>Node23</title>
<g id="a_node23"><a xlink:href="$classllvm_1_1Optional.html" xlink:title=" ">
<polygon fill="none" stroke="black" points="1392,-6 1392,-25 1506,-25 1506,-6 1392,-6"/>
<text text-anchor="middle" x="1449" y="-13" font-family="Helvetica,sans-Serif" font-size="10.00">llvm::Optional&lt; T &gt;</text>
</a>
</g>
</g>
<!-- Node23&#45;&gt;Node22 -->
<g id="edge27" class="edge">
<title>Node23&#45;&gt;Node22</title>
<path fill="none" stroke="orange" stroke-dasharray="5,2" d="M1516.36,-15.5C1563.77,-15.5 1626.96,-15.5 1672.49,-15.5"/>
<polygon fill="orange" stroke="orange" points="1516.19,-12 1506.19,-15.5 1516.19,-19 1516.19,-12"/>
<text text-anchor="middle" x="1573.5" y="-18.5" font-family="Helvetica,sans-Serif" font-size="10.00"> &lt; llvm::StringRef &gt;</text>
</g>
<!-- Node24&#45;&gt;Node18 -->
<g id="edge28" class="edge">
<title>Node24&#45;&gt;Node18</title>
<path fill="none" stroke="#9a32cd" stroke-dasharray="5,2" d="M1818.93,-128.31C1847.88,-132.04 1880.35,-136.34 1910,-140.5 1922.2,-142.21 1935.22,-144.12 1947.69,-145.98"/>
<polygon fill="#9a32cd" stroke="#9a32cd" points="1819.21,-124.81 1808.84,-127.01 1818.31,-131.76 1819.21,-124.81"/>
<text text-anchor="middle" x="1875.5" y="-143.5" font-family="Helvetica,sans-Serif" font-size="10.00"> DataRef</text>
</g>
<!-- Node25 -->
<g id="node25" class="node">
<title>Node25</title>
<g id="a_node25"><a xlink:href="$classuint64__t.html" xlink:title=" ">
<polygon fill="none" stroke="black" points="1421,-193 1421,-212 1477,-212 1477,-193 1421,-193"/>
<text text-anchor="middle" x="1449" y="-200" font-family="Helvetica,sans-Serif" font-size="10.00">uint64_t</text>
</a>
</g>
</g>
<!-- Node25&#45;&gt;Node24 -->
<g id="edge29" class="edge">
<title>Node25&#45;&gt;Node24</title>
<path fill="none" stroke="#9a32cd" stroke-dasharray="5,2" d="M1478.07,-188.46C1491.69,-182.04 1508.44,-174.72 1524,-169.5 1566.82,-155.12 1580.85,-162.74 1623,-146.5 1631.54,-143.21 1632.43,-139.7 1641,-136.5 1651.17,-132.7 1662.29,-129.58 1673.13,-127.04"/>
<polygon fill="#9a32cd" stroke="#9a32cd" points="1476.26,-185.44 1468.77,-192.93 1479.3,-191.75 1476.26,-185.44"/>
<text text-anchor="middle" x="1573.5" y="-183.5" font-family="Helvetica,sans-Serif" font-size="10.00"> Offset</text>
<text text-anchor="middle" x="1573.5" y="-172.5" font-family="Helvetica,sans-Serif" font-size="10.00">Size</text>
</g>
<!-- Node25&#45;&gt;Node30 -->
<g id="edge38" class="edge">
<title>Node25&#45;&gt;Node30</title>
<path fill="none" stroke="#9a32cd" stroke-dasharray="5,2" d="M1486.68,-214.42C1524.95,-226.63 1586.82,-245.72 1641,-259.5 1654.31,-262.88 1668.83,-266.14 1682.25,-268.97"/>
<polygon fill="#9a32cd" stroke="#9a32cd" points="1487.6,-211.04 1477.01,-211.32 1485.46,-217.71 1487.6,-211.04"/>
<text text-anchor="middle" x="1573.5" y="-267.5" font-family="Helvetica,sans-Serif" font-size="10.00"> Maximum</text>
<text text-anchor="middle" x="1573.5" y="-256.5" font-family="Helvetica,sans-Serif" font-size="10.00">Minimum</text>
</g>
<!-- Node26 -->
<g id="node26" class="node">
<title>Node26</title>
<g id="a_node26"><a xlink:href="$classllvm_1_1StringRef.html" xlink:title="StringRef &#45; Represent a constant reference to a string, i.e.">
<polygon fill="none" stroke="black" points="1687.5,-146 1687.5,-165 1776.5,-165 1776.5,-146 1687.5,-146"/>
<text text-anchor="middle" x="1732" y="-153" font-family="Helvetica,sans-Serif" font-size="10.00">llvm::StringRef</text>
</a>
</g>
</g>
<!-- Node26&#45;&gt;Node18 -->
<g id="edge31" class="edge">
<title>Node26&#45;&gt;Node18</title>
<path fill="none" stroke="#9a32cd" stroke-dasharray="5,2" d="M1786.61,-155.5C1826.7,-155.5 1882.24,-155.5 1927.84,-155.5"/>
<polygon fill="#9a32cd" stroke="#9a32cd" points="1786.51,-152 1776.51,-155.5 1786.51,-159 1786.51,-152"/>
<text text-anchor="middle" x="1875.5" y="-158.5" font-family="Helvetica,sans-Serif" font-size="10.00"> Name</text>
</g>
<!-- Node27 -->
<g id="node27" class="node">
<title>Node27</title>
<g id="a_node27"><a xlink:href="$classsize__t.html" xlink:title=" ">
<polygon fill="none" stroke="black" points="1426.5,-125 1426.5,-144 1471.5,-144 1471.5,-125 1426.5,-125"/>
<text text-anchor="middle" x="1449" y="-132" font-family="Helvetica,sans-Serif" font-size="10.00">size_t</text>
</a>
</g>
</g>
<!-- Node27&#45;&gt;Node26 -->
<g id="edge32" class="edge">
<title>Node27&#45;&gt;Node26</title>
<path fill="none" stroke="#9a32cd" stroke-dasharray="5,2" d="M1481.66,-133.01C1516.42,-131.76 1573.82,-130.84 1623,-135.5 1645.02,-137.59 1669.26,-141.89 1689.19,-145.97"/>
<polygon fill="#9a32cd" stroke="#9a32cd" points="1481.49,-129.51 1471.64,-133.4 1481.77,-136.5 1481.49,-129.51"/>
<text text-anchor="middle" x="1573.5" y="-138.5" font-family="Helvetica,sans-Serif" font-size="10.00"> npos</text>
</g>
<!-- Node28&#45;&gt;Node1 -->
<g id="edge33" class="edge">
<title>Node28&#45;&gt;Node1</title>
<path fill="none" stroke="#9a32cd" stroke-dasharray="5,2" d="M1824.38,-364.59C1911.45,-361.66 2046.2,-356.68 2163,-350.5 2168.82,-350.19 2174.84,-349.85 2180.9,-349.48"/>
<polygon fill="#9a32cd" stroke="#9a32cd" points="1824.14,-361.1 1814.26,-364.93 1824.38,-368.1 1824.14,-361.1"/>
<text text-anchor="middle" x="2010.5" y="-363.5" font-family="Helvetica,sans-Serif" font-size="10.00"> GlobalType</text>
</g>
<!-- Node29&#45;&gt;Node1 -->
<g id="edge36" class="edge">
<title>Node29&#45;&gt;Node1</title>
<path fill="none" stroke="#9a32cd" stroke-dasharray="5,2" d="M2099.82,-329.89C2126.46,-332.43 2155.38,-335.17 2180.87,-337.6"/>
<polygon fill="#9a32cd" stroke="#9a32cd" points="2100.02,-326.4 2089.74,-328.94 2099.36,-333.37 2100.02,-326.4"/>
<text text-anchor="middle" x="2137" y="-338.5" font-family="Helvetica,sans-Serif" font-size="10.00"> TableType</text>
</g>
<!-- Node30&#45;&gt;Node29 -->
<g id="edge37" class="edge">
<title>Node30&#45;&gt;Node29</title>
<path fill="none" stroke="#9a32cd" stroke-dasharray="5,2" d="M1812.35,-286.21C1842.96,-289.63 1878.2,-294.11 1910,-299.5 1930.06,-302.9 1952.18,-307.68 1970.45,-311.92"/>
<polygon fill="#9a32cd" stroke="#9a32cd" points="1812.48,-282.7 1802.16,-285.09 1811.71,-289.66 1812.48,-282.7"/>
<text text-anchor="middle" x="1875.5" y="-302.5" font-family="Helvetica,sans-Serif" font-size="10.00"> Limits</text>
</g>
</g>
</svg>
