<?xml version="1.0" encoding="UTF-8" standalone="no"?>
<!DOCTYPE svg PUBLIC "-//W3C//DTD SVG 1.1//EN"
 "http://www.w3.org/Graphics/SVG/1.1/DTD/svg11.dtd">
<!-- Generated by graphviz version 2.48.0 (0)
 -->
<!-- Title: llvm::codeview::ModifierRecord Pages: 1 -->
<svg width="475pt" height="206pt"
 viewBox="0.00 0.00 475.00 206.00" xmlns="http://www.w3.org/2000/svg" xmlns:xlink="http://www.w3.org/1999/xlink">
<g id="graph0" class="graph" transform="scale(1 1) rotate(0) translate(4 202)">
<title>llvm::codeview::ModifierRecord</title>
<!-- Node1 -->
<g id="node1" class="node">
<title>Node1</title>
<g id="a_node1"><a xlink:title=" ">
<polygon fill="#bfbfbf" stroke="black" points="149,-0.5 149,-30.5 285,-30.5 285,-0.5 149,-0.5"/>
<text text-anchor="start" x="157" y="-18.5" font-family="Helvetica,sans-Serif" font-size="10.00">llvm::codeview::Modifier</text>
<text text-anchor="middle" x="217" y="-7.5" font-family="Helvetica,sans-Serif" font-size="10.00">Record</text>
</a>
</g>
</g>
<!-- Node2 -->
<g id="node2" class="node">
<title>Node2</title>
<g id="a_node2"><a xlink:href="$classllvm_1_1codeview_1_1TypeRecord.html" xlink:title=" ">
<polygon fill="none" stroke="black" points="0,-78.5 0,-97.5 152,-97.5 152,-78.5 0,-78.5"/>
<text text-anchor="middle" x="76" y="-85.5" font-family="Helvetica,sans-Serif" font-size="10.00">llvm::codeview::TypeRecord</text>
</a>
</g>
</g>
<!-- Node2&#45;&gt;Node1 -->
<g id="edge1" class="edge">
<title>Node2&#45;&gt;Node1</title>
<path fill="none" stroke="midnightblue" d="M102.13,-73.93C126.81,-61.59 163.71,-43.14 188.99,-30.51"/>
<polygon fill="midnightblue" stroke="midnightblue" points="100.39,-70.89 93.01,-78.5 103.52,-77.15 100.39,-70.89"/>
</g>
<!-- Node3 -->
<g id="node3" class="node">
<title>Node3</title>
<g id="a_node3"><a xlink:title=" ">
<polygon fill="none" stroke="#bfbfbf" points="28.5,-178.5 28.5,-197.5 123.5,-197.5 123.5,-178.5 28.5,-178.5"/>
<text text-anchor="middle" x="76" y="-185.5" font-family="Helvetica,sans-Serif" font-size="10.00">TypeRecordKind</text>
</a>
</g>
</g>
<!-- Node3&#45;&gt;Node2 -->
<g id="edge2" class="edge">
<title>Node3&#45;&gt;Node2</title>
<path fill="none" stroke="#9a32cd" stroke-dasharray="5,2" d="M76,-168.22C76,-146.95 76,-113.22 76,-97.54"/>
<polygon fill="#9a32cd" stroke="#9a32cd" points="72.5,-168.3 76,-178.3 79.5,-168.3 72.5,-168.3"/>
<text text-anchor="middle" x="88.5" y="-135.5" font-family="Helvetica,sans-Serif" font-size="10.00"> Kind</text>
</g>
<!-- Node4 -->
<g id="node4" class="node">
<title>Node4</title>
<g id="a_node4"><a xlink:title=" ">
<polygon fill="none" stroke="#bfbfbf" points="170,-78.5 170,-97.5 264,-97.5 264,-78.5 170,-78.5"/>
<text text-anchor="middle" x="217" y="-85.5" font-family="Helvetica,sans-Serif" font-size="10.00">ModifierOptions</text>
</a>
</g>
</g>
<!-- Node4&#45;&gt;Node1 -->
<g id="edge3" class="edge">
<title>Node4&#45;&gt;Node1</title>
<path fill="none" stroke="#9a32cd" stroke-dasharray="5,2" d="M217,-68.24C217,-56.41 217,-41.38 217,-30.58"/>
<polygon fill="#9a32cd" stroke="#9a32cd" points="213.5,-68.36 217,-78.36 220.5,-68.36 213.5,-68.36"/>
<text text-anchor="middle" x="241.5" y="-52" font-family="Helvetica,sans-Serif" font-size="10.00"> Modifiers</text>
</g>
<!-- Node5 -->
<g id="node5" class="node">
<title>Node5</title>
<g id="a_node5"><a xlink:href="$classllvm_1_1codeview_1_1TypeIndex.html" xlink:title="A 32&#45;bit type reference.">
<polygon fill="none" stroke="black" points="282,-78.5 282,-97.5 428,-97.5 428,-78.5 282,-78.5"/>
<text text-anchor="middle" x="355" y="-85.5" font-family="Helvetica,sans-Serif" font-size="10.00">llvm::codeview::TypeIndex</text>
</a>
</g>
</g>
<!-- Node5&#45;&gt;Node1 -->
<g id="edge4" class="edge">
<title>Node5&#45;&gt;Node1</title>
<path fill="none" stroke="#9a32cd" stroke-dasharray="5,2" d="M329.42,-73.93C305.27,-61.59 269.15,-43.14 244.42,-30.51"/>
<polygon fill="#9a32cd" stroke="#9a32cd" points="327.86,-77.06 338.35,-78.5 331.04,-70.83 327.86,-77.06"/>
<text text-anchor="middle" x="333" y="-52" font-family="Helvetica,sans-Serif" font-size="10.00"> ModifiedType</text>
</g>
<!-- Node6 -->
<g id="node6" class="node">
<title>Node6</title>
<g id="a_node6"><a xlink:title=" ">
<polygon fill="none" stroke="#bfbfbf" points="327,-178.5 327,-197.5 383,-197.5 383,-178.5 327,-178.5"/>
<text text-anchor="middle" x="355" y="-185.5" font-family="Helvetica,sans-Serif" font-size="10.00">uint32_t</text>
</a>
</g>
</g>
<!-- Node6&#45;&gt;Node5 -->
<g id="edge5" class="edge">
<title>Node6&#45;&gt;Node5</title>
<path fill="none" stroke="#9a32cd" stroke-dasharray="5,2" d="M355,-168.22C355,-146.95 355,-113.22 355,-97.54"/>
<polygon fill="#9a32cd" stroke="#9a32cd" points="351.5,-168.3 355,-178.3 358.5,-168.3 351.5,-168.3"/>
<text text-anchor="middle" x="411" y="-152" font-family="Helvetica,sans-Serif" font-size="10.00"> DecoratedItemIdMask</text>
<text text-anchor="middle" x="411" y="-141" font-family="Helvetica,sans-Serif" font-size="10.00">FirstNonSimpleIndex</text>
<text text-anchor="middle" x="411" y="-130" font-family="Helvetica,sans-Serif" font-size="10.00">SimpleKindMask</text>
<text text-anchor="middle" x="411" y="-119" font-family="Helvetica,sans-Serif" font-size="10.00">SimpleModeMask</text>
</g>
</g>
</svg>
