<?xml version="1.0" encoding="UTF-8" standalone="no"?>
<!DOCTYPE svg PUBLIC "-//W3C//DTD SVG 1.1//EN"
 "http://www.w3.org/Graphics/SVG/1.1/DTD/svg11.dtd">
<!-- Generated by graphviz version 2.48.0 (0)
 -->
<!-- Title: llvm::InlineSizeEstimatorAnalysis Pages: 1 -->
<svg width="301pt" height="253pt"
 viewBox="0.00 0.00 300.50 253.00" xmlns="http://www.w3.org/2000/svg" xmlns:xlink="http://www.w3.org/1999/xlink">
<g id="graph0" class="graph" transform="scale(1 1) rotate(0) translate(4 249)">
<title>llvm::InlineSizeEstimatorAnalysis</title>
<!-- Node1 -->
<g id="node1" class="node">
<title>Node1</title>
<g id="a_node1"><a xlink:title=" ">
<polygon fill="#bfbfbf" stroke="black" points="18,-0.5 18,-30.5 157,-30.5 157,-0.5 18,-0.5"/>
<text text-anchor="start" x="26" y="-18.5" font-family="Helvetica,sans-Serif" font-size="10.00">llvm::InlineSizeEstimator</text>
<text text-anchor="middle" x="87.5" y="-7.5" font-family="Helvetica,sans-Serif" font-size="10.00">Analysis</text>
</a>
</g>
</g>
<!-- Node2 -->
<g id="node2" class="node">
<title>Node2</title>
<g id="a_node2"><a xlink:href="$structllvm_1_1AnalysisInfoMixin.html" xlink:title=" ">
<polygon fill="none" stroke="black" points="0,-68.5 0,-98.5 175,-98.5 175,-68.5 0,-68.5"/>
<text text-anchor="start" x="8" y="-86.5" font-family="Helvetica,sans-Serif" font-size="10.00">llvm::AnalysisInfoMixin</text>
<text text-anchor="middle" x="87.5" y="-75.5" font-family="Helvetica,sans-Serif" font-size="10.00">&lt; InlineSizeEstimatorAnalysis &gt;</text>
</a>
</g>
</g>
<!-- Node2&#45;&gt;Node1 -->
<g id="edge1" class="edge">
<title>Node2&#45;&gt;Node1</title>
<path fill="none" stroke="midnightblue" d="M87.5,-58.03C87.5,-48.86 87.5,-38.74 87.5,-30.79"/>
<polygon fill="midnightblue" stroke="midnightblue" points="84,-58.18 87.5,-68.18 91,-58.18 84,-58.18"/>
</g>
<!-- Node3 -->
<g id="node3" class="node">
<title>Node3</title>
<g id="a_node3"><a xlink:href="$structllvm_1_1PassInfoMixin.html" xlink:title="A CRTP mix&#45;in to automatically provide informational APIs needed for passes.">
<polygon fill="none" stroke="black" points="27.5,-214.5 27.5,-244.5 139.5,-244.5 139.5,-214.5 27.5,-214.5"/>
<text text-anchor="start" x="35.5" y="-232.5" font-family="Helvetica,sans-Serif" font-size="10.00">llvm::PassInfoMixin</text>
<text text-anchor="middle" x="83.5" y="-221.5" font-family="Helvetica,sans-Serif" font-size="10.00">&lt; DerivedT &gt;</text>
</a>
</g>
</g>
<!-- Node3&#45;&gt;Node2 -->
<g id="edge2" class="edge">
<title>Node3&#45;&gt;Node2</title>
<path fill="none" stroke="midnightblue" d="M84.17,-204.32C85.01,-174.14 86.42,-123.49 87.1,-98.84"/>
<polygon fill="midnightblue" stroke="midnightblue" points="80.67,-204.34 83.89,-214.43 87.67,-204.53 80.67,-204.34"/>
</g>
<!-- Node4 -->
<g id="node4" class="node">
<title>Node4</title>
<g id="a_node4"><a xlink:href="$structllvm_1_1AnalysisInfoMixin.html" xlink:title="A CRTP mix&#45;in that provides informational APIs needed for analysis passes.">
<polygon fill="none" stroke="black" points="100,-146.5 100,-176.5 231,-176.5 231,-146.5 100,-146.5"/>
<text text-anchor="start" x="108" y="-164.5" font-family="Helvetica,sans-Serif" font-size="10.00">llvm::AnalysisInfoMixin</text>
<text text-anchor="middle" x="165.5" y="-153.5" font-family="Helvetica,sans-Serif" font-size="10.00">&lt; DerivedT &gt;</text>
</a>
</g>
</g>
<!-- Node3&#45;&gt;Node4 -->
<g id="edge4" class="edge">
<title>Node3&#45;&gt;Node4</title>
<path fill="none" stroke="midnightblue" d="M109.21,-207.81C121.84,-197.64 136.73,-185.66 148.02,-176.57"/>
<polygon fill="midnightblue" stroke="midnightblue" points="106.89,-205.18 101.29,-214.18 111.28,-210.64 106.89,-205.18"/>
</g>
<!-- Node4&#45;&gt;Node2 -->
<g id="edge3" class="edge">
<title>Node4&#45;&gt;Node2</title>
<path fill="none" stroke="orange" stroke-dasharray="5,2" d="M143.47,-139.03C130.23,-126.13 113.74,-110.07 102.11,-98.73"/>
<polygon fill="orange" stroke="orange" points="141.22,-141.73 150.83,-146.2 146.11,-136.72 141.22,-141.73"/>
<text text-anchor="middle" x="211.5" y="-120" font-family="Helvetica,sans-Serif" font-size="10.00"> &lt; InlineSizeEstimatorAnalysis &gt;</text>
</g>
</g>
</svg>
