<?xml version="1.0" encoding="UTF-8" standalone="no"?>
<!DOCTYPE svg PUBLIC "-//W3C//DTD SVG 1.1//EN"
 "http://www.w3.org/Graphics/SVG/1.1/DTD/svg11.dtd">
<!-- Generated by graphviz version 2.48.0 (0)
 -->
<!-- Title: llvm::GlobalObject Pages: 1 -->
<svg width="348pt" height="308pt"
 viewBox="0.00 0.00 348.00 308.00" xmlns="http://www.w3.org/2000/svg" xmlns:xlink="http://www.w3.org/1999/xlink">
<g id="graph0" class="graph" transform="scale(1 1) rotate(0) translate(4 304)">
<title>llvm::GlobalObject</title>
<!-- Node1 -->
<g id="node1" class="node">
<title>Node1</title>
<g id="a_node1"><a xlink:title=" ">
<polygon fill="#bfbfbf" stroke="black" points="101.5,-56.5 101.5,-75.5 208.5,-75.5 208.5,-56.5 101.5,-56.5"/>
<text text-anchor="middle" x="155" y="-63.5" font-family="Helvetica,sans-Serif" font-size="10.00">llvm::GlobalObject</text>
</a>
</g>
</g>
<!-- Node6 -->
<g id="node6" class="node">
<title>Node6</title>
<g id="a_node6"><a xlink:href="$classllvm_1_1Function.html" xlink:title=" ">
<polygon fill="none" stroke="black" points="0,-0.5 0,-19.5 86,-19.5 86,-0.5 0,-0.5"/>
<text text-anchor="middle" x="43" y="-7.5" font-family="Helvetica,sans-Serif" font-size="10.00">llvm::Function</text>
</a>
</g>
</g>
<!-- Node1&#45;&gt;Node6 -->
<g id="edge5" class="edge">
<title>Node1&#45;&gt;Node6</title>
<path fill="none" stroke="midnightblue" d="M127.75,-51.86C106.98,-41.85 78.98,-28.35 60.95,-19.65"/>
<polygon fill="midnightblue" stroke="midnightblue" points="126.48,-55.13 137.01,-56.32 129.52,-48.83 126.48,-55.13"/>
</g>
<!-- Node7 -->
<g id="node7" class="node">
<title>Node7</title>
<g id="a_node7"><a xlink:href="$classllvm_1_1GlobalIFunc.html" xlink:title=" ">
<polygon fill="none" stroke="black" points="104.5,-0.5 104.5,-19.5 205.5,-19.5 205.5,-0.5 104.5,-0.5"/>
<text text-anchor="middle" x="155" y="-7.5" font-family="Helvetica,sans-Serif" font-size="10.00">llvm::GlobalIFunc</text>
</a>
</g>
</g>
<!-- Node1&#45;&gt;Node7 -->
<g id="edge6" class="edge">
<title>Node1&#45;&gt;Node7</title>
<path fill="none" stroke="midnightblue" d="M155,-45.8C155,-36.91 155,-26.78 155,-19.75"/>
<polygon fill="midnightblue" stroke="midnightblue" points="151.5,-46.08 155,-56.08 158.5,-46.08 151.5,-46.08"/>
</g>
<!-- Node8 -->
<g id="node8" class="node">
<title>Node8</title>
<g id="a_node8"><a xlink:href="$classllvm_1_1GlobalVariable.html" xlink:title=" ">
<polygon fill="none" stroke="black" points="224,-0.5 224,-19.5 340,-19.5 340,-0.5 224,-0.5"/>
<text text-anchor="middle" x="282" y="-7.5" font-family="Helvetica,sans-Serif" font-size="10.00">llvm::GlobalVariable</text>
</a>
</g>
</g>
<!-- Node1&#45;&gt;Node8 -->
<g id="edge7" class="edge">
<title>Node1&#45;&gt;Node8</title>
<path fill="none" stroke="midnightblue" d="M184.39,-52.5C208.2,-42.38 241.11,-28.39 261.97,-19.52"/>
<polygon fill="midnightblue" stroke="midnightblue" points="182.96,-49.31 175.12,-56.44 185.7,-55.75 182.96,-49.31"/>
</g>
<!-- Node2 -->
<g id="node2" class="node">
<title>Node2</title>
<g id="a_node2"><a xlink:href="$classllvm_1_1GlobalValue.html" xlink:title=" ">
<polygon fill="none" stroke="black" points="103.5,-112.5 103.5,-131.5 206.5,-131.5 206.5,-112.5 103.5,-112.5"/>
<text text-anchor="middle" x="155" y="-119.5" font-family="Helvetica,sans-Serif" font-size="10.00">llvm::GlobalValue</text>
</a>
</g>
</g>
<!-- Node2&#45;&gt;Node1 -->
<g id="edge1" class="edge">
<title>Node2&#45;&gt;Node1</title>
<path fill="none" stroke="midnightblue" d="M155,-101.8C155,-92.91 155,-82.78 155,-75.75"/>
<polygon fill="midnightblue" stroke="midnightblue" points="151.5,-102.08 155,-112.08 158.5,-102.08 151.5,-102.08"/>
</g>
<!-- Node3 -->
<g id="node3" class="node">
<title>Node3</title>
<g id="a_node3"><a xlink:href="$classllvm_1_1Constant.html" xlink:title="This is an important base class in LLVM.">
<polygon fill="none" stroke="black" points="111,-168.5 111,-187.5 199,-187.5 199,-168.5 111,-168.5"/>
<text text-anchor="middle" x="155" y="-175.5" font-family="Helvetica,sans-Serif" font-size="10.00">llvm::Constant</text>
</a>
</g>
</g>
<!-- Node3&#45;&gt;Node2 -->
<g id="edge2" class="edge">
<title>Node3&#45;&gt;Node2</title>
<path fill="none" stroke="midnightblue" d="M155,-157.8C155,-148.91 155,-138.78 155,-131.75"/>
<polygon fill="midnightblue" stroke="midnightblue" points="151.5,-158.08 155,-168.08 158.5,-158.08 151.5,-158.08"/>
</g>
<!-- Node4 -->
<g id="node4" class="node">
<title>Node4</title>
<g id="a_node4"><a xlink:href="$classllvm_1_1User.html" xlink:title=" ">
<polygon fill="none" stroke="black" points="121.5,-224.5 121.5,-243.5 188.5,-243.5 188.5,-224.5 121.5,-224.5"/>
<text text-anchor="middle" x="155" y="-231.5" font-family="Helvetica,sans-Serif" font-size="10.00">llvm::User</text>
</a>
</g>
</g>
<!-- Node4&#45;&gt;Node3 -->
<g id="edge3" class="edge">
<title>Node4&#45;&gt;Node3</title>
<path fill="none" stroke="midnightblue" d="M155,-213.8C155,-204.91 155,-194.78 155,-187.75"/>
<polygon fill="midnightblue" stroke="midnightblue" points="151.5,-214.08 155,-224.08 158.5,-214.08 151.5,-214.08"/>
</g>
<!-- Node5 -->
<g id="node5" class="node">
<title>Node5</title>
<g id="a_node5"><a xlink:href="$classllvm_1_1Value.html" xlink:title="LLVM Value Representation.">
<polygon fill="none" stroke="black" points="119.5,-280.5 119.5,-299.5 190.5,-299.5 190.5,-280.5 119.5,-280.5"/>
<text text-anchor="middle" x="155" y="-287.5" font-family="Helvetica,sans-Serif" font-size="10.00">llvm::Value</text>
</a>
</g>
</g>
<!-- Node5&#45;&gt;Node4 -->
<g id="edge4" class="edge">
<title>Node5&#45;&gt;Node4</title>
<path fill="none" stroke="midnightblue" d="M155,-269.8C155,-260.91 155,-250.78 155,-243.75"/>
<polygon fill="midnightblue" stroke="midnightblue" points="151.5,-270.08 155,-280.08 158.5,-270.08 151.5,-270.08"/>
</g>
</g>
</svg>
