<?xml version="1.0" encoding="UTF-8" standalone="no"?>
<!DOCTYPE svg PUBLIC "-//W3C//DTD SVG 1.1//EN"
 "http://www.w3.org/Graphics/SVG/1.1/DTD/svg11.dtd">
<!-- Generated by graphviz version 2.48.0 (0)
 -->
<!-- Title: llvm::SampleProfileLoaderBaseImpl&lt; BT &gt; Pages: 1 -->
<svg width="1928pt" height="761pt"
 viewBox="0.00 0.00 1928.00 760.50" xmlns="http://www.w3.org/2000/svg" xmlns:xlink="http://www.w3.org/1999/xlink">
<g id="graph0" class="graph" transform="scale(1 1) rotate(0) translate(4 756.5)">
<title>llvm::SampleProfileLoaderBaseImpl&lt; BT &gt;</title>
<!-- Node1 -->
<g id="node1" class="node">
<title>Node1</title>
<g id="a_node1"><a xlink:title=" ">
<polygon fill="#bfbfbf" stroke="black" points="1775,-410.5 1775,-440.5 1920,-440.5 1920,-410.5 1775,-410.5"/>
<text text-anchor="start" x="1783" y="-428.5" font-family="Helvetica,sans-Serif" font-size="10.00">llvm::SampleProfileLoader</text>
<text text-anchor="middle" x="1847.5" y="-417.5" font-family="Helvetica,sans-Serif" font-size="10.00">BaseImpl&lt; BT &gt;</text>
</a>
</g>
</g>
<!-- Node2 -->
<g id="node2" class="node">
<title>Node2</title>
<g id="a_node2"><a xlink:href="$classllvm_1_1DenseMap.html" xlink:title=" ">
<polygon fill="none" stroke="black" points="1180.5,-490 1180.5,-531 1314.5,-531 1314.5,-490 1180.5,-490"/>
<text text-anchor="start" x="1188.5" y="-519" font-family="Helvetica,sans-Serif" font-size="10.00">llvm::DenseMap&lt; const</text>
<text text-anchor="start" x="1188.5" y="-508" font-family="Helvetica,sans-Serif" font-size="10.00"> BasicBlockT *, const</text>
<text text-anchor="middle" x="1247.5" y="-497" font-family="Helvetica,sans-Serif" font-size="10.00"> BasicBlockT * &gt;</text>
</a>
</g>
</g>
<!-- Node2&#45;&gt;Node1 -->
<g id="edge1" class="edge">
<title>Node2&#45;&gt;Node1</title>
<path fill="none" stroke="#9a32cd" stroke-dasharray="5,2" d="M1324.53,-502.06C1424.17,-490.61 1604.21,-468.56 1757,-442.5 1762.77,-441.52 1768.74,-440.46 1774.73,-439.38"/>
<polygon fill="#9a32cd" stroke="#9a32cd" points="1324.09,-498.59 1314.55,-503.21 1324.89,-505.55 1324.09,-498.59"/>
<text text-anchor="middle" x="1556.5" y="-485.5" font-family="Helvetica,sans-Serif" font-size="10.00"> EquivalenceClass</text>
</g>
<!-- Node3 -->
<g id="node3" class="node">
<title>Node3</title>
<g id="a_node3"><a xlink:href="$classllvm_1_1DenseMapBase.html" xlink:title=" ">
<polygon fill="none" stroke="black" points="248.5,-356 248.5,-397 392.5,-397 392.5,-356 248.5,-356"/>
<text text-anchor="start" x="256.5" y="-385" font-family="Helvetica,sans-Serif" font-size="10.00">llvm::DenseMapBase</text>
<text text-anchor="start" x="256.5" y="-374" font-family="Helvetica,sans-Serif" font-size="10.00">&lt; DerivedT, KeyT, ValueT,</text>
<text text-anchor="middle" x="320.5" y="-363" font-family="Helvetica,sans-Serif" font-size="10.00"> KeyInfoT, BucketT &gt;</text>
</a>
</g>
</g>
<!-- Node3&#45;&gt;Node2 -->
<g id="edge2" class="edge">
<title>Node3&#45;&gt;Node2</title>
<path fill="none" stroke="midnightblue" d="M335.53,-406.44C350.38,-434.55 376.56,-475.36 412,-496.5 647.9,-637.22 749.1,-568.77 1023,-589.5 1079.28,-593.76 1100.23,-616.13 1150,-589.5 1162.72,-582.69 1157.79,-572.68 1168,-562.5 1180.04,-550.5 1195.25,-539.66 1209.07,-531.03"/>
<polygon fill="midnightblue" stroke="midnightblue" points="338.6,-404.75 330.93,-397.44 332.37,-407.94 338.6,-404.75"/>
</g>
<!-- Node6 -->
<g id="node6" class="node">
<title>Node6</title>
<g id="a_node6"><a xlink:href="$classllvm_1_1DenseMapBase.html" xlink:title=" ">
<polygon fill="none" stroke="black" points="612,-409 612,-494 810,-494 810,-409 612,-409"/>
<text text-anchor="start" x="620" y="-482" font-family="Helvetica,sans-Serif" font-size="10.00">llvm::DenseMapBase</text>
<text text-anchor="start" x="620" y="-471" font-family="Helvetica,sans-Serif" font-size="10.00">&lt; DenseMap&lt; KeyT, ValueT,</text>
<text text-anchor="start" x="620" y="-460" font-family="Helvetica,sans-Serif" font-size="10.00"> DenseMapInfo&lt; KeyT &gt;,</text>
<text text-anchor="start" x="620" y="-449" font-family="Helvetica,sans-Serif" font-size="10.00"> llvm::detail::DenseMapPair</text>
<text text-anchor="start" x="620" y="-438" font-family="Helvetica,sans-Serif" font-size="10.00">&lt; KeyT, ValueT &gt; &gt;, KeyT, ValueT,</text>
<text text-anchor="start" x="620" y="-427" font-family="Helvetica,sans-Serif" font-size="10.00"> DenseMapInfo&lt; KeyT &gt;, llvm::detail</text>
<text text-anchor="middle" x="711" y="-416" font-family="Helvetica,sans-Serif" font-size="10.00">::DenseMapPair&lt; KeyT, ValueT &gt; &gt;</text>
</a>
</g>
</g>
<!-- Node3&#45;&gt;Node6 -->
<g id="edge7" class="edge">
<title>Node3&#45;&gt;Node6</title>
<path fill="none" stroke="orange" stroke-dasharray="5,2" d="M402.7,-392.18C463.57,-403.93 547.14,-420.06 611.77,-432.54"/>
<polygon fill="orange" stroke="orange" points="403.24,-388.72 392.76,-390.26 401.91,-395.59 403.24,-388.72"/>
<text text-anchor="start" x="412" y="-484.5" font-family="Helvetica,sans-Serif" font-size="10.00"> &lt; DenseMap&lt; KeyT, ValueT,</text>
<text text-anchor="start" x="412" y="-473.5" font-family="Helvetica,sans-Serif" font-size="10.00"> DenseMapInfo&lt; KeyT &gt;,</text>
<text text-anchor="start" x="412" y="-462.5" font-family="Helvetica,sans-Serif" font-size="10.00"> llvm::detail::DenseMapPair</text>
<text text-anchor="start" x="412" y="-451.5" font-family="Helvetica,sans-Serif" font-size="10.00">&lt; KeyT, ValueT &gt; &gt;, KeyT, ValueT,</text>
<text text-anchor="start" x="412" y="-440.5" font-family="Helvetica,sans-Serif" font-size="10.00"> DenseMapInfo&lt; KeyT &gt;, llvm::detail</text>
<text text-anchor="middle" x="503" y="-429.5" font-family="Helvetica,sans-Serif" font-size="10.00">::DenseMapPair&lt; KeyT, ValueT &gt; &gt;</text>
</g>
<!-- Node18 -->
<g id="node18" class="node">
<title>Node18</title>
<g id="a_node18"><a xlink:href="$classllvm_1_1DenseMap.html" xlink:title=" ">
<polygon fill="none" stroke="black" points="1180.5,-257.5 1180.5,-287.5 1314.5,-287.5 1314.5,-257.5 1180.5,-257.5"/>
<text text-anchor="start" x="1188.5" y="-275.5" font-family="Helvetica,sans-Serif" font-size="10.00">llvm::DenseMap&lt; Edge,</text>
<text text-anchor="middle" x="1247.5" y="-264.5" font-family="Helvetica,sans-Serif" font-size="10.00"> uint64_t &gt;</text>
</a>
</g>
</g>
<!-- Node3&#45;&gt;Node18 -->
<g id="edge22" class="edge">
<title>Node3&#45;&gt;Node18</title>
<path fill="none" stroke="midnightblue" d="M377.87,-352.32C389.03,-348.22 400.76,-344.36 412,-341.5 677.39,-273.85 749.71,-279.32 1023,-261.5 1079.32,-257.83 1093.65,-258.3 1150,-261.5 1159.85,-262.06 1170.23,-262.94 1180.4,-263.96"/>
<polygon fill="midnightblue" stroke="midnightblue" points="376.35,-349.16 368.24,-355.98 378.83,-355.7 376.35,-349.16"/>
</g>
<!-- Node19 -->
<g id="node19" class="node">
<title>Node19</title>
<g id="a_node19"><a xlink:href="$classllvm_1_1DenseMap.html" xlink:title=" ">
<polygon fill="none" stroke="black" points="1168,-421 1168,-462 1327,-462 1327,-421 1168,-421"/>
<text text-anchor="start" x="1176" y="-450" font-family="Helvetica,sans-Serif" font-size="10.00">llvm::DenseMap&lt; const</text>
<text text-anchor="start" x="1176" y="-439" font-family="Helvetica,sans-Serif" font-size="10.00"> BasicBlockT *, SmallVector</text>
<text text-anchor="middle" x="1247.5" y="-428" font-family="Helvetica,sans-Serif" font-size="10.00">&lt; const BasicBlockT *, 8 &gt; &gt;</text>
</a>
</g>
</g>
<!-- Node3&#45;&gt;Node19 -->
<g id="edge25" class="edge">
<title>Node3&#45;&gt;Node19</title>
<path fill="none" stroke="midnightblue" d="M402.72,-374.11C598.21,-368.9 1083.69,-359.32 1150,-390.5 1161.12,-395.73 1157.95,-404.42 1168,-411.5 1172.89,-414.94 1178.23,-418.06 1183.74,-420.85"/>
<polygon fill="midnightblue" stroke="midnightblue" points="402.41,-370.62 392.51,-374.39 402.6,-377.62 402.41,-370.62"/>
</g>
<!-- Node20 -->
<g id="node20" class="node">
<title>Node20</title>
<g id="a_node20"><a xlink:href="$classllvm_1_1DenseMap.html" xlink:title=" ">
<polygon fill="none" stroke="black" points="1180.5,-620.5 1180.5,-672.5 1314.5,-672.5 1314.5,-620.5 1180.5,-620.5"/>
<text text-anchor="start" x="1188.5" y="-660.5" font-family="Helvetica,sans-Serif" font-size="10.00">llvm::DenseMap&lt; const</text>
<text text-anchor="start" x="1188.5" y="-649.5" font-family="Helvetica,sans-Serif" font-size="10.00"> llvm::DILocation *,</text>
<text text-anchor="start" x="1188.5" y="-638.5" font-family="Helvetica,sans-Serif" font-size="10.00"> const llvm::sampleprof</text>
<text text-anchor="middle" x="1247.5" y="-627.5" font-family="Helvetica,sans-Serif" font-size="10.00">::FunctionSamples * &gt;</text>
</a>
</g>
</g>
<!-- Node3&#45;&gt;Node20 -->
<g id="edge28" class="edge">
<title>Node3&#45;&gt;Node20</title>
<path fill="none" stroke="midnightblue" d="M329.06,-406.77C340.38,-445.63 365.54,-512.37 412,-548.5 643.88,-728.84 1027.32,-686.1 1180.4,-659.65"/>
<polygon fill="midnightblue" stroke="midnightblue" points="332.41,-405.75 326.35,-397.05 325.67,-407.63 332.41,-405.75"/>
</g>
<!-- Node22 -->
<g id="node22" class="node">
<title>Node22</title>
<g id="a_node22"><a xlink:href="$classllvm_1_1DenseMap.html" xlink:title=" ">
<polygon fill="none" stroke="black" points="1175.5,-322.5 1175.5,-352.5 1319.5,-352.5 1319.5,-322.5 1175.5,-322.5"/>
<text text-anchor="start" x="1183.5" y="-340.5" font-family="Helvetica,sans-Serif" font-size="10.00">llvm::DenseMap&lt; const</text>
<text text-anchor="middle" x="1247.5" y="-329.5" font-family="Helvetica,sans-Serif" font-size="10.00"> BasicBlockT *, uint64_t &gt;</text>
</a>
</g>
</g>
<!-- Node3&#45;&gt;Node22 -->
<g id="edge32" class="edge">
<title>Node3&#45;&gt;Node22</title>
<path fill="none" stroke="midnightblue" d="M402.67,-363.53C405.82,-363.16 408.94,-362.81 412,-362.5 682.49,-334.79 751.18,-338.39 1023,-331.5 1079.43,-330.07 1093.58,-329.75 1150,-331.5 1158.22,-331.76 1166.83,-332.13 1175.38,-332.58"/>
<polygon fill="midnightblue" stroke="midnightblue" points="402.04,-360.08 392.55,-364.8 402.91,-367.03 402.04,-360.08"/>
</g>
<!-- Node27 -->
<g id="node27" class="node">
<title>Node27</title>
<g id="a_node27"><a xlink:href="$classllvm_1_1DenseMap.html" xlink:title=" ">
<polygon fill="none" stroke="black" points="1178.5,-208.5 1178.5,-238.5 1316.5,-238.5 1316.5,-208.5 1178.5,-208.5"/>
<text text-anchor="start" x="1186.5" y="-226.5" font-family="Helvetica,sans-Serif" font-size="10.00">llvm::DenseMap&lt; uint64</text>
<text text-anchor="middle" x="1247.5" y="-215.5" font-family="Helvetica,sans-Serif" font-size="10.00">_t, llvm::StringRef &gt;</text>
</a>
</g>
</g>
<!-- Node3&#45;&gt;Node27 -->
<g id="edge39" class="edge">
<title>Node3&#45;&gt;Node27</title>
<path fill="none" stroke="midnightblue" d="M345.34,-348.08C362.06,-330.19 386.01,-308.31 412,-296.5 674.48,-177.2 1030.89,-198.9 1178.33,-214.76"/>
<polygon fill="midnightblue" stroke="midnightblue" points="342.31,-346.21 338.19,-355.97 347.5,-350.92 342.31,-346.21"/>
</g>
<!-- Node4 -->
<g id="node4" class="node">
<title>Node4</title>
<g id="a_node4"><a xlink:href="$classllvm_1_1DebugEpochBase.html" xlink:title=" ">
<polygon fill="none" stroke="black" points="0,-367 0,-386 129,-386 129,-367 0,-367"/>
<text text-anchor="middle" x="64.5" y="-374" font-family="Helvetica,sans-Serif" font-size="10.00">llvm::DebugEpochBase</text>
</a>
</g>
</g>
<!-- Node4&#45;&gt;Node3 -->
<g id="edge3" class="edge">
<title>Node4&#45;&gt;Node3</title>
<path fill="none" stroke="midnightblue" d="M139.66,-376.5C173.85,-376.5 214.25,-376.5 248.09,-376.5"/>
<polygon fill="midnightblue" stroke="midnightblue" points="139.27,-373 129.27,-376.5 139.27,-380 139.27,-373"/>
</g>
<!-- Node4&#45;&gt;Node6 -->
<g id="edge6" class="edge">
<title>Node4&#45;&gt;Node6</title>
<path fill="none" stroke="midnightblue" d="M94.96,-390.49C153.65,-417.5 290.04,-475.98 412,-496.5 491.77,-509.92 514.49,-511.38 594,-496.5 599.84,-495.41 605.76,-494.03 611.68,-492.44"/>
<polygon fill="midnightblue" stroke="midnightblue" points="96.11,-387.17 85.57,-386.13 93.17,-393.52 96.11,-387.17"/>
</g>
<!-- Node14 -->
<g id="node14" class="node">
<title>Node14</title>
<g id="a_node14"><a xlink:href="$classllvm_1_1SmallPtrSetImplBase.html" xlink:title="SmallPtrSetImplBase &#45; This is the common code shared among all the SmallPtrSet&lt;&gt;&#39;s,...">
<polygon fill="none" stroke="black" points="247,-208 247,-227 394,-227 394,-208 247,-208"/>
<text text-anchor="middle" x="320.5" y="-215" font-family="Helvetica,sans-Serif" font-size="10.00">llvm::SmallPtrSetImplBase</text>
</a>
</g>
</g>
<!-- Node4&#45;&gt;Node14 -->
<g id="edge16" class="edge">
<title>Node4&#45;&gt;Node14</title>
<path fill="none" stroke="midnightblue" d="M89.54,-361.45C141.19,-329.12 261.56,-253.77 304.2,-227.08"/>
<polygon fill="midnightblue" stroke="midnightblue" points="87.63,-358.52 81.01,-366.79 91.34,-364.45 87.63,-358.52"/>
</g>
<!-- Node5 -->
<g id="node5" class="node">
<title>Node5</title>
<g id="a_node5"><a xlink:href="$classllvm_1_1DenseMap.html" xlink:title=" ">
<polygon fill="none" stroke="black" points="847,-436.5 847,-466.5 1005,-466.5 1005,-436.5 847,-436.5"/>
<text text-anchor="start" x="855" y="-454.5" font-family="Helvetica,sans-Serif" font-size="10.00">llvm::DenseMap&lt; KeyT,</text>
<text text-anchor="middle" x="926" y="-443.5" font-family="Helvetica,sans-Serif" font-size="10.00"> ValueT, KeyInfoT, BucketT &gt;</text>
</a>
</g>
</g>
<!-- Node5&#45;&gt;Node2 -->
<g id="edge4" class="edge">
<title>Node5&#45;&gt;Node2</title>
<path fill="none" stroke="orange" stroke-dasharray="5,2" d="M974.51,-470.09C989.79,-475.46 1006.93,-480.85 1023,-484.5 1075.19,-496.36 1135.53,-502.97 1180.35,-506.56"/>
<polygon fill="orange" stroke="orange" points="975.35,-466.68 964.76,-466.59 972.98,-473.27 975.35,-466.68"/>
<text text-anchor="start" x="1025" y="-517.5" font-family="Helvetica,sans-Serif" font-size="10.00"> &lt; const BasicBlockT</text>
<text text-anchor="middle" x="1086.5" y="-506.5" font-family="Helvetica,sans-Serif" font-size="10.00"> *, const BasicBlockT * &gt;</text>
</g>
<!-- Node5&#45;&gt;Node18 -->
<g id="edge23" class="edge">
<title>Node5&#45;&gt;Node18</title>
<path fill="none" stroke="orange" stroke-dasharray="5,2" d="M944.51,-428.37C962.19,-406.43 991.35,-373.86 1023,-353.5 1026.99,-350.93 1140.71,-310.21 1204.35,-287.51"/>
<polygon fill="orange" stroke="orange" points="941.55,-426.48 938.1,-436.5 947.04,-430.82 941.55,-426.48"/>
<text text-anchor="middle" x="1086.5" y="-356.5" font-family="Helvetica,sans-Serif" font-size="10.00"> &lt; Edge, uint64_t &gt;</text>
</g>
<!-- Node5&#45;&gt;Node19 -->
<g id="edge26" class="edge">
<title>Node5&#45;&gt;Node19</title>
<path fill="none" stroke="orange" stroke-dasharray="5,2" d="M1015.18,-448.74C1062.97,-447.24 1121.52,-445.41 1167.76,-443.96"/>
<polygon fill="orange" stroke="orange" points="1015.04,-445.24 1005.16,-449.05 1015.26,-452.24 1015.04,-445.24"/>
<text text-anchor="start" x="1031" y="-472.5" font-family="Helvetica,sans-Serif" font-size="10.00"> &lt; const BasicBlockT</text>
<text text-anchor="start" x="1031" y="-461.5" font-family="Helvetica,sans-Serif" font-size="10.00"> *, SmallVector&lt; const</text>
<text text-anchor="middle" x="1086.5" y="-450.5" font-family="Helvetica,sans-Serif" font-size="10.00"> BasicBlockT *, 8 &gt; &gt;</text>
</g>
<!-- Node5&#45;&gt;Node20 -->
<g id="edge29" class="edge">
<title>Node5&#45;&gt;Node20</title>
<path fill="none" stroke="orange" stroke-dasharray="5,2" d="M951.02,-473.4C969.82,-489.93 997.03,-512.57 1023,-529.5 1076.12,-564.13 1098.21,-557.92 1150,-594.5 1158.99,-600.85 1158.84,-605.4 1168,-611.5 1172.72,-614.65 1177.76,-617.63 1182.94,-620.43"/>
<polygon fill="orange" stroke="orange" points="953.31,-470.75 943.52,-466.73 948.66,-475.99 953.31,-470.75"/>
<text text-anchor="start" x="1023" y="-619.5" font-family="Helvetica,sans-Serif" font-size="10.00"> &lt; const llvm::DILocation</text>
<text text-anchor="start" x="1023" y="-608.5" font-family="Helvetica,sans-Serif" font-size="10.00"> *, const llvm::sampleprof</text>
<text text-anchor="middle" x="1086.5" y="-597.5" font-family="Helvetica,sans-Serif" font-size="10.00">::FunctionSamples * &gt;</text>
</g>
<!-- Node5&#45;&gt;Node22 -->
<g id="edge33" class="edge">
<title>Node5&#45;&gt;Node22</title>
<path fill="none" stroke="orange" stroke-dasharray="5,2" d="M975.65,-432.79C1024.17,-414.32 1100.91,-385.56 1168,-362.5 1177.6,-359.2 1187.92,-355.81 1197.81,-352.63"/>
<polygon fill="orange" stroke="orange" points="974.14,-429.63 966.04,-436.46 976.63,-436.17 974.14,-429.63"/>
<text text-anchor="start" x="1035" y="-427.5" font-family="Helvetica,sans-Serif" font-size="10.00"> &lt; const BasicBlockT</text>
<text text-anchor="middle" x="1086.5" y="-416.5" font-family="Helvetica,sans-Serif" font-size="10.00"> *, uint64_t &gt;</text>
</g>
<!-- Node5&#45;&gt;Node27 -->
<g id="edge40" class="edge">
<title>Node5&#45;&gt;Node27</title>
<path fill="none" stroke="orange" stroke-dasharray="5,2" d="M934.31,-426.43C946.48,-389.25 974.45,-319.88 1023,-282.5 1067.68,-248.1 1130.63,-233.69 1178.35,-227.69"/>
<polygon fill="orange" stroke="orange" points="930.83,-425.85 931.17,-436.44 937.51,-427.95 930.83,-425.85"/>
<text text-anchor="start" x="1028" y="-296.5" font-family="Helvetica,sans-Serif" font-size="10.00"> &lt; uint64_t, llvm::String</text>
<text text-anchor="middle" x="1086.5" y="-285.5" font-family="Helvetica,sans-Serif" font-size="10.00">Ref &gt;</text>
</g>
<!-- Node6&#45;&gt;Node5 -->
<g id="edge5" class="edge">
<title>Node6&#45;&gt;Node5</title>
<path fill="none" stroke="midnightblue" d="M820.22,-451.5C829.21,-451.5 838.18,-451.5 846.88,-451.5"/>
<polygon fill="midnightblue" stroke="midnightblue" points="820.08,-448 810.08,-451.5 820.08,-455 820.08,-448"/>
</g>
<!-- Node7 -->
<g id="node7" class="node">
<title>Node7</title>
<g id="a_node7"><a xlink:href="$classllvm_1_1ProfileSummaryInfo.html" xlink:title="Analysis providing profile information.">
<polygon fill="none" stroke="black" points="1486,-663 1486,-682 1627,-682 1627,-663 1486,-663"/>
<text text-anchor="middle" x="1556.5" y="-670" font-family="Helvetica,sans-Serif" font-size="10.00">llvm::ProfileSummaryInfo</text>
</a>
</g>
</g>
<!-- Node7&#45;&gt;Node1 -->
<g id="edge8" class="edge">
<title>Node7&#45;&gt;Node1</title>
<path fill="none" stroke="#9a32cd" stroke-dasharray="5,2" d="M1637.55,-679.99C1677.18,-679.56 1723.56,-672.33 1757,-646.5 1824.97,-593.99 1841.56,-481.41 1845.4,-440.64"/>
<polygon fill="#9a32cd" stroke="#9a32cd" points="1637.38,-676.49 1627.37,-679.96 1637.36,-683.49 1637.38,-676.49"/>
<text text-anchor="middle" x="1706.5" y="-681.5" font-family="Helvetica,sans-Serif" font-size="10.00"> PSI</text>
</g>
<!-- Node8 -->
<g id="node8" class="node">
<title>Node8</title>
<g id="a_node8"><a xlink:title=" ">
<polygon fill="none" stroke="#bfbfbf" points="1495.5,-625 1495.5,-644 1617.5,-644 1617.5,-625 1495.5,-625"/>
<text text-anchor="middle" x="1556.5" y="-632" font-family="Helvetica,sans-Serif" font-size="10.00">OptRemarkEmitterT *</text>
</a>
</g>
</g>
<!-- Node8&#45;&gt;Node1 -->
<g id="edge9" class="edge">
<title>Node8&#45;&gt;Node1</title>
<path fill="none" stroke="#9a32cd" stroke-dasharray="5,2" d="M1628.08,-633.85C1676.95,-632.08 1736.7,-626.9 1757,-612.5 1816.73,-570.11 1838.06,-476.95 1844.29,-440.52"/>
<polygon fill="#9a32cd" stroke="#9a32cd" points="1627.72,-630.36 1617.84,-634.17 1627.95,-637.35 1627.72,-630.36"/>
<text text-anchor="middle" x="1706.5" y="-634.5" font-family="Helvetica,sans-Serif" font-size="10.00"> ORE</text>
</g>
<!-- Node9 -->
<g id="node9" class="node">
<title>Node9</title>
<g id="a_node9"><a xlink:href="$structllvm_1_1afdo__detail_1_1IRTraits.html" xlink:title=" ">
<polygon fill="none" stroke="black" points="1504,-575.5 1504,-605.5 1609,-605.5 1609,-575.5 1504,-575.5"/>
<text text-anchor="start" x="1512" y="-593.5" font-family="Helvetica,sans-Serif" font-size="10.00">llvm::afdo_detail::</text>
<text text-anchor="middle" x="1556.5" y="-582.5" font-family="Helvetica,sans-Serif" font-size="10.00">IRTraits&lt; BT &gt;</text>
</a>
</g>
</g>
<!-- Node9&#45;&gt;Node1 -->
<g id="edge10" class="edge">
<title>Node9&#45;&gt;Node1</title>
<path fill="none" stroke="#9a32cd" stroke-dasharray="5,2" d="M1619.27,-583.86C1669.16,-577.56 1734.61,-566.93 1757,-552.5 1800.3,-524.59 1828.81,-467.63 1840.5,-440.51"/>
<polygon fill="#9a32cd" stroke="#9a32cd" points="1618.7,-580.4 1609.2,-585.09 1619.55,-587.35 1618.7,-580.4"/>
<text text-anchor="middle" x="1706.5" y="-602.5" font-family="Helvetica,sans-Serif" font-size="10.00"> DT</text>
<text text-anchor="middle" x="1706.5" y="-591.5" font-family="Helvetica,sans-Serif" font-size="10.00">LI</text>
<text text-anchor="middle" x="1706.5" y="-580.5" font-family="Helvetica,sans-Serif" font-size="10.00">PDT</text>
</g>
<!-- Node10 -->
<g id="node10" class="node">
<title>Node10</title>
<g id="a_node10"><a xlink:href="$structllvm_1_1afdo__detail_1_1IRTraits.html" xlink:title=" ">
<polygon fill="none" stroke="black" points="1194,-571.5 1194,-601.5 1301,-601.5 1301,-571.5 1194,-571.5"/>
<text text-anchor="start" x="1202" y="-589.5" font-family="Helvetica,sans-Serif" font-size="10.00">llvm::afdo_detail::</text>
<text text-anchor="middle" x="1247.5" y="-578.5" font-family="Helvetica,sans-Serif" font-size="10.00">IRTraits&lt; BlockT &gt;</text>
</a>
</g>
</g>
<!-- Node10&#45;&gt;Node9 -->
<g id="edge11" class="edge">
<title>Node10&#45;&gt;Node9</title>
<path fill="none" stroke="orange" stroke-dasharray="5,2" d="M1311.58,-587.32C1368.41,-588.06 1450.94,-589.14 1503.92,-589.83"/>
<polygon fill="orange" stroke="orange" points="1311.32,-583.82 1301.28,-587.19 1311.23,-590.82 1311.32,-583.82"/>
<text text-anchor="middle" x="1401" y="-591.5" font-family="Helvetica,sans-Serif" font-size="10.00"> &lt; BT &gt;</text>
</g>
<!-- Node11 -->
<g id="node11" class="node">
<title>Node11</title>
<g id="a_node11"><a xlink:href="$classllvm_1_1sampleprofutil_1_1SampleCoverageTracker.html" xlink:title=" ">
<polygon fill="none" stroke="black" points="1486.5,-526.5 1486.5,-556.5 1626.5,-556.5 1626.5,-526.5 1486.5,-526.5"/>
<text text-anchor="start" x="1494.5" y="-544.5" font-family="Helvetica,sans-Serif" font-size="10.00">llvm::sampleprofutil</text>
<text text-anchor="middle" x="1556.5" y="-533.5" font-family="Helvetica,sans-Serif" font-size="10.00">::SampleCoverageTracker</text>
</a>
</g>
</g>
<!-- Node11&#45;&gt;Node1 -->
<g id="edge12" class="edge">
<title>Node11&#45;&gt;Node1</title>
<path fill="none" stroke="#9a32cd" stroke-dasharray="5,2" d="M1636.6,-540.09C1674.63,-536.75 1719.89,-528.74 1757,-510.5 1790.65,-493.96 1820.12,-460.31 1835.4,-440.68"/>
<polygon fill="#9a32cd" stroke="#9a32cd" points="1636.28,-536.6 1626.59,-540.88 1636.83,-543.58 1636.28,-536.6"/>
<text text-anchor="middle" x="1706.5" y="-540.5" font-family="Helvetica,sans-Serif" font-size="10.00"> CoverageTracker</text>
</g>
<!-- Node12 -->
<g id="node12" class="node">
<title>Node12</title>
<g id="a_node12"><a xlink:href="$classllvm_1_1SmallPtrSet.html" xlink:title=" ">
<polygon fill="none" stroke="black" points="1174.5,-0.5 1174.5,-30.5 1320.5,-30.5 1320.5,-0.5 1174.5,-0.5"/>
<text text-anchor="start" x="1182.5" y="-18.5" font-family="Helvetica,sans-Serif" font-size="10.00">llvm::SmallPtrSet&lt;</text>
<text text-anchor="middle" x="1247.5" y="-7.5" font-family="Helvetica,sans-Serif" font-size="10.00"> const BasicBlockT *, 32 &gt;</text>
</a>
</g>
</g>
<!-- Node12&#45;&gt;Node1 -->
<g id="edge13" class="edge">
<title>Node12&#45;&gt;Node1</title>
<path fill="none" stroke="#9a32cd" stroke-dasharray="5,2" d="M1331.13,-7.62C1443.56,-1.82 1643.67,-9.73 1757,-122.5 1840.21,-205.3 1846.84,-361.4 1846.78,-410.39"/>
<polygon fill="#9a32cd" stroke="#9a32cd" points="1330.65,-4.15 1320.87,-8.21 1331.05,-11.13 1330.65,-4.15"/>
<text text-anchor="middle" x="1556.5" y="-49.5" font-family="Helvetica,sans-Serif" font-size="10.00"> VisitedBlocks</text>
</g>
<!-- Node13 -->
<g id="node13" class="node">
<title>Node13</title>
<g id="a_node13"><a xlink:href="$classllvm_1_1SmallPtrSetImpl.html" xlink:title="A templated base class for SmallPtrSet which provides the typesafe interface that is common across al...">
<polygon fill="none" stroke="black" points="649.5,-44.5 649.5,-74.5 772.5,-74.5 772.5,-44.5 649.5,-44.5"/>
<text text-anchor="start" x="657.5" y="-62.5" font-family="Helvetica,sans-Serif" font-size="10.00">llvm::SmallPtrSetImpl</text>
<text text-anchor="middle" x="711" y="-51.5" font-family="Helvetica,sans-Serif" font-size="10.00">&lt; PtrType &gt;</text>
</a>
</g>
</g>
<!-- Node13&#45;&gt;Node12 -->
<g id="edge14" class="edge">
<title>Node13&#45;&gt;Node12</title>
<path fill="none" stroke="midnightblue" d="M782.65,-61.39C869.61,-62.62 1021.56,-61.19 1150,-41.5 1166.12,-39.03 1183.41,-34.87 1198.85,-30.59"/>
<polygon fill="midnightblue" stroke="midnightblue" points="782.68,-57.89 772.63,-61.24 782.57,-64.89 782.68,-57.89"/>
</g>
<!-- Node17 -->
<g id="node17" class="node">
<title>Node17</title>
<g id="a_node17"><a xlink:href="$classllvm_1_1SmallPtrSet.html" xlink:title="SmallPtrSet &#45; This class implements a set which is optimized for holding SmallSize or less elements.">
<polygon fill="none" stroke="black" points="865.5,-0.5 865.5,-30.5 986.5,-30.5 986.5,-0.5 865.5,-0.5"/>
<text text-anchor="start" x="873.5" y="-18.5" font-family="Helvetica,sans-Serif" font-size="10.00">llvm::SmallPtrSet&lt;</text>
<text text-anchor="middle" x="926" y="-7.5" font-family="Helvetica,sans-Serif" font-size="10.00"> PtrType, SmallSize &gt;</text>
</a>
</g>
</g>
<!-- Node13&#45;&gt;Node17 -->
<g id="edge20" class="edge">
<title>Node13&#45;&gt;Node17</title>
<path fill="none" stroke="midnightblue" d="M782.81,-44.87C809.54,-39.35 839.66,-33.13 865.27,-27.84"/>
<polygon fill="midnightblue" stroke="midnightblue" points="781.84,-41.5 772.75,-46.95 783.25,-48.35 781.84,-41.5"/>
</g>
<!-- Node14&#45;&gt;Node13 -->
<g id="edge15" class="edge">
<title>Node14&#45;&gt;Node13</title>
<path fill="none" stroke="midnightblue" d="M354.4,-204.12C426.34,-174.86 597.23,-105.36 672.88,-74.6"/>
<polygon fill="midnightblue" stroke="midnightblue" points="352.87,-200.96 344.93,-207.97 355.51,-207.45 352.87,-200.96"/>
</g>
<!-- Node15 -->
<g id="node15" class="node">
<title>Node15</title>
<g id="a_node15"><a xlink:title=" ">
<polygon fill="none" stroke="#bfbfbf" points="24.5,-236 24.5,-255 104.5,-255 104.5,-236 24.5,-236"/>
<text text-anchor="middle" x="64.5" y="-243" font-family="Helvetica,sans-Serif" font-size="10.00">const void **</text>
</a>
</g>
</g>
<!-- Node15&#45;&gt;Node14 -->
<g id="edge17" class="edge">
<title>Node15&#45;&gt;Node14</title>
<path fill="none" stroke="#9a32cd" stroke-dasharray="5,2" d="M114.8,-240.07C152.32,-235.93 204.52,-230.17 246.82,-225.51"/>
<polygon fill="#9a32cd" stroke="#9a32cd" points="114.19,-236.61 104.63,-241.19 114.95,-243.57 114.19,-236.61"/>
<text text-anchor="middle" x="188" y="-249.5" font-family="Helvetica,sans-Serif" font-size="10.00"> CurArray</text>
<text text-anchor="middle" x="188" y="-238.5" font-family="Helvetica,sans-Serif" font-size="10.00">SmallArray</text>
</g>
<!-- Node16 -->
<g id="node16" class="node">
<title>Node16</title>
<g id="a_node16"><a xlink:href="$classunsigned.html" xlink:title=" ">
<polygon fill="none" stroke="black" points="34,-180 34,-199 95,-199 95,-180 34,-180"/>
<text text-anchor="middle" x="64.5" y="-187" font-family="Helvetica,sans-Serif" font-size="10.00">unsigned</text>
</a>
</g>
</g>
<!-- Node16&#45;&gt;Node14 -->
<g id="edge18" class="edge">
<title>Node16&#45;&gt;Node14</title>
<path fill="none" stroke="#9a32cd" stroke-dasharray="5,2" d="M105.46,-186.61C138.72,-184.95 187.2,-184.27 229,-190.5 251.7,-193.89 276.64,-201.64 294.58,-207.98"/>
<polygon fill="#9a32cd" stroke="#9a32cd" points="105.02,-183.12 95.23,-187.17 105.41,-190.11 105.02,-183.12"/>
<text text-anchor="middle" x="188" y="-215.5" font-family="Helvetica,sans-Serif" font-size="10.00"> CurArraySize</text>
<text text-anchor="middle" x="188" y="-204.5" font-family="Helvetica,sans-Serif" font-size="10.00">NumNonEmpty</text>
<text text-anchor="middle" x="188" y="-193.5" font-family="Helvetica,sans-Serif" font-size="10.00">NumTombstones</text>
</g>
<!-- Node17&#45;&gt;Node12 -->
<g id="edge19" class="edge">
<title>Node17&#45;&gt;Node12</title>
<path fill="none" stroke="orange" stroke-dasharray="5,2" d="M996.97,-15.5C1049.57,-15.5 1121.4,-15.5 1174.49,-15.5"/>
<polygon fill="orange" stroke="orange" points="996.72,-12 986.72,-15.5 996.72,-19 996.72,-12"/>
<text text-anchor="start" x="1035" y="-29.5" font-family="Helvetica,sans-Serif" font-size="10.00"> &lt; const BasicBlockT</text>
<text text-anchor="middle" x="1086.5" y="-18.5" font-family="Helvetica,sans-Serif" font-size="10.00"> *, 32 &gt;</text>
</g>
<!-- Node18&#45;&gt;Node1 -->
<g id="edge21" class="edge">
<title>Node18&#45;&gt;Node1</title>
<path fill="none" stroke="#9a32cd" stroke-dasharray="5,2" d="M1324.75,-264.01C1448.82,-251.74 1687.55,-235.08 1757,-279.5 1806.09,-310.9 1832.47,-379.8 1842.15,-410.37"/>
<polygon fill="#9a32cd" stroke="#9a32cd" points="1324.17,-260.55 1314.56,-265.03 1324.86,-267.52 1324.17,-260.55"/>
<text text-anchor="middle" x="1556.5" y="-254.5" font-family="Helvetica,sans-Serif" font-size="10.00"> EdgeWeights</text>
</g>
<!-- Node19&#45;&gt;Node1 -->
<g id="edge24" class="edge">
<title>Node19&#45;&gt;Node1</title>
<path fill="none" stroke="#9a32cd" stroke-dasharray="5,2" d="M1337.46,-439.12C1456.4,-435.94 1664.95,-430.36 1774.55,-427.43"/>
<polygon fill="#9a32cd" stroke="#9a32cd" points="1337.2,-435.63 1327.29,-439.39 1337.38,-442.62 1337.2,-435.63"/>
<text text-anchor="middle" x="1556.5" y="-448.5" font-family="Helvetica,sans-Serif" font-size="10.00"> Predecessors</text>
<text text-anchor="middle" x="1556.5" y="-437.5" font-family="Helvetica,sans-Serif" font-size="10.00">Successors</text>
</g>
<!-- Node20&#45;&gt;Node1 -->
<g id="edge27" class="edge">
<title>Node20&#45;&gt;Node1</title>
<path fill="none" stroke="#9a32cd" stroke-dasharray="5,2" d="M1311.85,-676.78C1415.52,-721.44 1623.24,-789.85 1757,-693.5 1841.58,-632.57 1847.41,-488.13 1846.95,-440.81"/>
<polygon fill="#9a32cd" stroke="#9a32cd" points="1313.01,-673.47 1302.45,-672.67 1310.21,-679.88 1313.01,-673.47"/>
<text text-anchor="middle" x="1556.5" y="-744.5" font-family="Helvetica,sans-Serif" font-size="10.00"> DILocation2SampleMap</text>
</g>
<!-- Node21 -->
<g id="node21" class="node">
<title>Node21</title>
<g id="a_node21"><a xlink:title=" ">
<polygon fill="none" stroke="#bfbfbf" points="1534.5,-286 1534.5,-305 1578.5,-305 1578.5,-286 1534.5,-286"/>
<text text-anchor="middle" x="1556.5" y="-293" font-family="Helvetica,sans-Serif" font-size="10.00">string</text>
</a>
</g>
</g>
<!-- Node21&#45;&gt;Node1 -->
<g id="edge30" class="edge">
<title>Node21&#45;&gt;Node1</title>
<path fill="none" stroke="#9a32cd" stroke-dasharray="5,2" d="M1588.52,-289.32C1629.68,-282.77 1703.38,-276.9 1757,-305.5 1800.57,-328.74 1828.77,-383.58 1840.41,-410.32"/>
<polygon fill="#9a32cd" stroke="#9a32cd" points="1587.82,-285.89 1578.55,-291.02 1589,-292.79 1587.82,-285.89"/>
<text text-anchor="middle" x="1706.5" y="-319.5" font-family="Helvetica,sans-Serif" font-size="10.00"> Filename</text>
<text text-anchor="middle" x="1706.5" y="-308.5" font-family="Helvetica,sans-Serif" font-size="10.00">RemappingFilename</text>
</g>
<!-- Node22&#45;&gt;Node1 -->
<g id="edge31" class="edge">
<title>Node22&#45;&gt;Node1</title>
<path fill="none" stroke="#9a32cd" stroke-dasharray="5,2" d="M1330,-333.27C1409.37,-330.83 1533.04,-331.48 1638,-351.5 1702.33,-363.77 1773.46,-392.52 1813.79,-410.36"/>
<polygon fill="#9a32cd" stroke="#9a32cd" points="1329.46,-329.79 1319.59,-333.62 1329.7,-336.79 1329.46,-329.79"/>
<text text-anchor="middle" x="1556.5" y="-354.5" font-family="Helvetica,sans-Serif" font-size="10.00"> BlockWeights</text>
</g>
<!-- Node23 -->
<g id="node23" class="node">
<title>Node23</title>
<g id="a_node23"><a xlink:href="$classllvm_1_1SmallSet.html" xlink:title=" ">
<polygon fill="none" stroke="black" points="1493.5,-371.5 1493.5,-401.5 1619.5,-401.5 1619.5,-371.5 1493.5,-371.5"/>
<text text-anchor="start" x="1501.5" y="-389.5" font-family="Helvetica,sans-Serif" font-size="10.00">llvm::SmallSet&lt; Edge,</text>
<text text-anchor="middle" x="1556.5" y="-378.5" font-family="Helvetica,sans-Serif" font-size="10.00"> 32 &gt;</text>
</a>
</g>
</g>
<!-- Node23&#45;&gt;Node1 -->
<g id="edge34" class="edge">
<title>Node23&#45;&gt;Node1</title>
<path fill="none" stroke="#9a32cd" stroke-dasharray="5,2" d="M1629.97,-396.28C1674.27,-402.26 1730.7,-409.87 1774.84,-415.83"/>
<polygon fill="#9a32cd" stroke="#9a32cd" points="1630.23,-392.78 1619.85,-394.91 1629.29,-399.72 1630.23,-392.78"/>
<text text-anchor="middle" x="1706.5" y="-415.5" font-family="Helvetica,sans-Serif" font-size="10.00"> VisitedEdges</text>
</g>
<!-- Node24 -->
<g id="node24" class="node">
<title>Node24</title>
<g id="a_node24"><a xlink:href="$classllvm_1_1SmallSet.html" xlink:title="SmallSet &#45; This maintains a set of unique values, optimizing for the case when the set is small (less...">
<polygon fill="none" stroke="black" points="1193.5,-371.5 1193.5,-401.5 1301.5,-401.5 1301.5,-371.5 1193.5,-371.5"/>
<text text-anchor="start" x="1201.5" y="-389.5" font-family="Helvetica,sans-Serif" font-size="10.00">llvm::SmallSet&lt; T,</text>
<text text-anchor="middle" x="1247.5" y="-378.5" font-family="Helvetica,sans-Serif" font-size="10.00"> N, C &gt;</text>
</a>
</g>
</g>
<!-- Node24&#45;&gt;Node23 -->
<g id="edge35" class="edge">
<title>Node24&#45;&gt;Node23</title>
<path fill="none" stroke="orange" stroke-dasharray="5,2" d="M1311.94,-386.5C1365.06,-386.5 1440.46,-386.5 1493.25,-386.5"/>
<polygon fill="orange" stroke="orange" points="1311.62,-383 1301.62,-386.5 1311.62,-390 1311.62,-383"/>
<text text-anchor="middle" x="1401" y="-389.5" font-family="Helvetica,sans-Serif" font-size="10.00"> &lt; Edge, 32 &gt;</text>
</g>
<!-- Node25 -->
<g id="node25" class="node">
<title>Node25</title>
<g id="a_node25"><a xlink:title=" ">
<polygon fill="none" stroke="#bfbfbf" points="1475,-108.5 1475,-138.5 1638,-138.5 1638,-108.5 1475,-108.5"/>
<text text-anchor="start" x="1483" y="-126.5" font-family="Helvetica,sans-Serif" font-size="10.00">unique_ptr&lt; llvm::sampleprof</text>
<text text-anchor="middle" x="1556.5" y="-115.5" font-family="Helvetica,sans-Serif" font-size="10.00">::SampleProfileReader &gt;</text>
</a>
</g>
</g>
<!-- Node25&#45;&gt;Node1 -->
<g id="edge36" class="edge">
<title>Node25&#45;&gt;Node1</title>
<path fill="none" stroke="#9a32cd" stroke-dasharray="5,2" d="M1648.18,-125.64C1685.81,-130.91 1727.47,-143.05 1757,-169.5 1830.82,-235.63 1843.75,-366.09 1846.02,-410.38"/>
<polygon fill="#9a32cd" stroke="#9a32cd" points="1648.56,-122.16 1638.21,-124.39 1647.69,-129.11 1648.56,-122.16"/>
<text text-anchor="middle" x="1706.5" y="-172.5" font-family="Helvetica,sans-Serif" font-size="10.00"> Reader</text>
</g>
<!-- Node26 -->
<g id="node26" class="node">
<title>Node26</title>
<g id="a_node26"><a xlink:href="$classllvm_1_1sampleprof_1_1FunctionSamples.html" xlink:title="Representation of the samples collected for a function.">
<polygon fill="none" stroke="black" points="1483.5,-157.5 1483.5,-187.5 1629.5,-187.5 1629.5,-157.5 1483.5,-157.5"/>
<text text-anchor="start" x="1491.5" y="-175.5" font-family="Helvetica,sans-Serif" font-size="10.00">llvm::sampleprof::Function</text>
<text text-anchor="middle" x="1556.5" y="-164.5" font-family="Helvetica,sans-Serif" font-size="10.00">Samples</text>
</a>
</g>
</g>
<!-- Node26&#45;&gt;Node1 -->
<g id="edge37" class="edge">
<title>Node26&#45;&gt;Node1</title>
<path fill="none" stroke="#9a32cd" stroke-dasharray="5,2" d="M1639.44,-180.88C1678.8,-188.56 1724.39,-203.29 1757,-231.5 1813.95,-280.75 1836.86,-373.88 1843.9,-410.33"/>
<polygon fill="#9a32cd" stroke="#9a32cd" points="1640.05,-177.43 1629.58,-179.07 1638.79,-184.31 1640.05,-177.43"/>
<text text-anchor="middle" x="1706.5" y="-234.5" font-family="Helvetica,sans-Serif" font-size="10.00"> Samples</text>
</g>
<!-- Node27&#45;&gt;Node26 -->
<g id="edge38" class="edge">
<title>Node27&#45;&gt;Node26</title>
<path fill="none" stroke="#9a32cd" stroke-dasharray="5,2" d="M1327.06,-227.95C1366.52,-228.41 1414.8,-226.24 1457,-216.5 1482.73,-210.56 1510,-197.82 1529.3,-187.56"/>
<polygon fill="#9a32cd" stroke="#9a32cd" points="1327.02,-224.45 1316.97,-227.78 1326.9,-231.45 1327.02,-224.45"/>
<text text-anchor="middle" x="1401" y="-230.5" font-family="Helvetica,sans-Serif" font-size="10.00"> GUIDToFuncNameMap</text>
</g>
<!-- Node28 -->
<g id="node28" class="node">
<title>Node28</title>
<g id="a_node28"><a xlink:title=" ">
<polygon fill="none" stroke="#bfbfbf" points="1228.5,-88 1228.5,-107 1266.5,-107 1266.5,-88 1228.5,-88"/>
<text text-anchor="middle" x="1247.5" y="-95" font-family="Helvetica,sans-Serif" font-size="10.00">char</text>
</a>
</g>
</g>
<!-- Node28&#45;&gt;Node26 -->
<g id="edge41" class="edge">
<title>Node28&#45;&gt;Node26</title>
<path fill="none" stroke="#9a32cd" stroke-dasharray="5,2" d="M1276.67,-90.46C1319.66,-81.45 1402.4,-71.12 1457,-108.5 1473.09,-119.51 1460.33,-135.66 1475,-148.5 1478.95,-151.96 1483.38,-154.92 1488.08,-157.45"/>
<polygon fill="#9a32cd" stroke="#9a32cd" points="1275.64,-87.11 1266.64,-92.69 1277.16,-93.94 1275.64,-87.11"/>
<text text-anchor="middle" x="1401" y="-133.5" font-family="Helvetica,sans-Serif" font-size="10.00"> LLVMSuffix</text>
<text text-anchor="middle" x="1401" y="-122.5" font-family="Helvetica,sans-Serif" font-size="10.00">PartSuffix</text>
<text text-anchor="middle" x="1401" y="-111.5" font-family="Helvetica,sans-Serif" font-size="10.00">UniqSuffix</text>
</g>
<!-- Node29 -->
<g id="node29" class="node">
<title>Node29</title>
<g id="a_node29"><a xlink:title=" ">
<polygon fill="none" stroke="#bfbfbf" points="1173,-50 1173,-69 1322,-69 1322,-50 1173,-50"/>
<text text-anchor="middle" x="1247.5" y="-57" font-family="Helvetica,sans-Serif" font-size="10.00">static SampleProfileFormat</text>
</a>
</g>
</g>
<!-- Node29&#45;&gt;Node26 -->
<g id="edge42" class="edge">
<title>Node29&#45;&gt;Node26</title>
<path fill="none" stroke="#9a32cd" stroke-dasharray="5,2" d="M1290.22,-47.57C1336.5,-37.09 1410.71,-28.88 1457,-67.5 1485.32,-91.12 1449.87,-121.51 1475,-148.5 1478.18,-151.92 1481.82,-154.85 1485.76,-157.38"/>
<polygon fill="#9a32cd" stroke="#9a32cd" points="1289.14,-44.23 1280.23,-49.96 1290.77,-51.04 1289.14,-44.23"/>
<text text-anchor="middle" x="1401" y="-70.5" font-family="Helvetica,sans-Serif" font-size="10.00"> Format</text>
</g>
<!-- Node30 -->
<g id="node30" class="node">
<title>Node30</title>
<g id="a_node30"><a xlink:href="$classbool.html" xlink:title=" ">
<polygon fill="none" stroke="black" points="1228.5,-140 1228.5,-159 1266.5,-159 1266.5,-140 1228.5,-140"/>
<text text-anchor="middle" x="1247.5" y="-147" font-family="Helvetica,sans-Serif" font-size="10.00">bool</text>
</a>
</g>
</g>
<!-- Node30&#45;&gt;Node26 -->
<g id="edge43" class="edge">
<title>Node30&#45;&gt;Node26</title>
<path fill="none" stroke="#9a32cd" stroke-dasharray="5,2" d="M1276.83,-147.72C1317.04,-145.62 1392.91,-143.27 1457,-150.5 1470.41,-152.01 1484.66,-154.6 1498.04,-157.49"/>
<polygon fill="#9a32cd" stroke="#9a32cd" points="1276.5,-144.23 1266.7,-148.28 1276.88,-151.22 1276.5,-144.23"/>
<text text-anchor="middle" x="1401" y="-208.5" font-family="Helvetica,sans-Serif" font-size="10.00"> HasUniqSuffix</text>
<text text-anchor="middle" x="1401" y="-197.5" font-family="Helvetica,sans-Serif" font-size="10.00">ProfileIsCSFlat</text>
<text text-anchor="middle" x="1401" y="-186.5" font-family="Helvetica,sans-Serif" font-size="10.00">ProfileIsCSNested</text>
<text text-anchor="middle" x="1401" y="-175.5" font-family="Helvetica,sans-Serif" font-size="10.00">ProfileIsFS</text>
<text text-anchor="middle" x="1401" y="-164.5" font-family="Helvetica,sans-Serif" font-size="10.00">ProfileIsProbeBased</text>
<text text-anchor="middle" x="1401" y="-153.5" font-family="Helvetica,sans-Serif" font-size="10.00">UseMD5</text>
</g>
</g>
</svg>
