<?xml version="1.0" encoding="UTF-8" standalone="no"?>
<!DOCTYPE svg PUBLIC "-//W3C//DTD SVG 1.1//EN"
 "http://www.w3.org/Graphics/SVG/1.1/DTD/svg11.dtd">
<!-- Generated by graphviz version 2.48.0 (0)
 -->
<!-- Title: llvm::RTTIRoot Pages: 1 -->
<svg width="278pt" height="151pt"
 viewBox="0.00 0.00 278.00 151.00" xmlns="http://www.w3.org/2000/svg" xmlns:xlink="http://www.w3.org/1999/xlink">
<g id="graph0" class="graph" transform="scale(1 1) rotate(0) translate(4 147)">
<title>llvm::RTTIRoot</title>
<!-- Node1 -->
<g id="node1" class="node">
<title>Node1</title>
<g id="a_node1"><a xlink:title="Base class for the extensible RTTI hierarchy.">
<polygon fill="#bfbfbf" stroke="black" points="84.5,-123.5 84.5,-142.5 172.5,-142.5 172.5,-123.5 84.5,-123.5"/>
<text text-anchor="middle" x="128.5" y="-130.5" font-family="Helvetica,sans-Serif" font-size="10.00">llvm::RTTIRoot</text>
</a>
</g>
</g>
<!-- Node2 -->
<g id="node2" class="node">
<title>Node2</title>
<g id="a_node2"><a xlink:href="$classllvm_1_1RTTIExtends.html" xlink:title=" ">
<polygon fill="none" stroke="black" points="0,-56.5 0,-86.5 113,-86.5 113,-56.5 0,-56.5"/>
<text text-anchor="start" x="8" y="-74.5" font-family="Helvetica,sans-Serif" font-size="10.00">llvm::RTTIExtends&lt;</text>
<text text-anchor="middle" x="56.5" y="-63.5" font-family="Helvetica,sans-Serif" font-size="10.00"> Task, RTTIRoot &gt;</text>
</a>
</g>
</g>
<!-- Node1&#45;&gt;Node2 -->
<g id="edge1" class="edge">
<title>Node1&#45;&gt;Node2</title>
<path fill="none" stroke="midnightblue" d="M110.25,-116.92C98.95,-107.58 84.53,-95.66 73.47,-86.52"/>
<polygon fill="midnightblue" stroke="midnightblue" points="108.25,-119.8 118.18,-123.48 112.71,-114.41 108.25,-119.8"/>
</g>
<!-- Node4 -->
<g id="node4" class="node">
<title>Node4</title>
<g id="a_node4"><a xlink:href="$classllvm_1_1RTTIExtends.html" xlink:title=" ">
<polygon fill="none" stroke="black" points="131,-56.5 131,-86.5 270,-86.5 270,-56.5 131,-56.5"/>
<text text-anchor="start" x="139" y="-74.5" font-family="Helvetica,sans-Serif" font-size="10.00">llvm::RTTIExtends&lt;</text>
<text text-anchor="middle" x="200.5" y="-63.5" font-family="Helvetica,sans-Serif" font-size="10.00"> ObjectLayer, RTTIRoot &gt;</text>
</a>
</g>
</g>
<!-- Node1&#45;&gt;Node4 -->
<g id="edge3" class="edge">
<title>Node1&#45;&gt;Node4</title>
<path fill="none" stroke="midnightblue" d="M146.75,-116.92C158.05,-107.58 172.47,-95.66 183.53,-86.52"/>
<polygon fill="midnightblue" stroke="midnightblue" points="144.29,-114.41 138.82,-123.48 148.75,-119.8 144.29,-114.41"/>
</g>
<!-- Node3 -->
<g id="node3" class="node">
<title>Node3</title>
<g id="a_node3"><a xlink:href="$classllvm_1_1orc_1_1Task.html" xlink:title="Represents an abstract task for ORC to run.">
<polygon fill="none" stroke="black" points="13,-0.5 13,-19.5 100,-19.5 100,-0.5 13,-0.5"/>
<text text-anchor="middle" x="56.5" y="-7.5" font-family="Helvetica,sans-Serif" font-size="10.00">llvm::orc::Task</text>
</a>
</g>
</g>
<!-- Node2&#45;&gt;Node3 -->
<g id="edge2" class="edge">
<title>Node2&#45;&gt;Node3</title>
<path fill="none" stroke="midnightblue" d="M56.5,-46.29C56.5,-36.86 56.5,-26.65 56.5,-19.66"/>
<polygon fill="midnightblue" stroke="midnightblue" points="53,-46.4 56.5,-56.4 60,-46.4 53,-46.4"/>
</g>
<!-- Node5 -->
<g id="node5" class="node">
<title>Node5</title>
<g id="a_node5"><a xlink:href="$classllvm_1_1orc_1_1ObjectLayer.html" xlink:title="Interface for Layers that accept object files.">
<polygon fill="none" stroke="black" points="138.5,-0.5 138.5,-19.5 262.5,-19.5 262.5,-0.5 138.5,-0.5"/>
<text text-anchor="middle" x="200.5" y="-7.5" font-family="Helvetica,sans-Serif" font-size="10.00">llvm::orc::ObjectLayer</text>
</a>
</g>
</g>
<!-- Node4&#45;&gt;Node5 -->
<g id="edge4" class="edge">
<title>Node4&#45;&gt;Node5</title>
<path fill="none" stroke="midnightblue" d="M200.5,-46.29C200.5,-36.86 200.5,-26.65 200.5,-19.66"/>
<polygon fill="midnightblue" stroke="midnightblue" points="197,-46.4 200.5,-56.4 204,-46.4 197,-46.4"/>
</g>
</g>
</svg>
