<?xml version="1.0" encoding="UTF-8" standalone="no"?>
<!DOCTYPE svg PUBLIC "-//W3C//DTD SVG 1.1//EN"
 "http://www.w3.org/Graphics/SVG/1.1/DTD/svg11.dtd">
<!-- Generated by graphviz version 2.48.0 (0)
 -->
<!-- Title: llvm::SIMachineFunctionInfo Pages: 1 -->
<svg width="1043pt" height="400pt"
 viewBox="0.00 0.00 1043.00 400.00" xmlns="http://www.w3.org/2000/svg" xmlns:xlink="http://www.w3.org/1999/xlink">
<g id="graph0" class="graph" transform="scale(1 1) rotate(0) translate(4 396)">
<title>llvm::SIMachineFunctionInfo</title>
<!-- Node1 -->
<g id="node1" class="node">
<title>Node1</title>
<g id="a_node1"><a xlink:title="This class keeps track of the SPI_SP_INPUT_ADDR config register, which tells the hardware which inter...">
<polygon fill="#bfbfbf" stroke="black" points="880,-69.5 880,-88.5 1035,-88.5 1035,-69.5 880,-69.5"/>
<text text-anchor="middle" x="957.5" y="-76.5" font-family="Helvetica,sans-Serif" font-size="10.00">llvm::SIMachineFunctionInfo</text>
</a>
</g>
</g>
<!-- Node2 -->
<g id="node2" class="node">
<title>Node2</title>
<g id="a_node2"><a xlink:href="$classllvm_1_1AMDGPUMachineFunction.html" xlink:title=" ">
<polygon fill="none" stroke="black" points="529,-204.5 529,-223.5 700,-223.5 700,-204.5 529,-204.5"/>
<text text-anchor="middle" x="614.5" y="-211.5" font-family="Helvetica,sans-Serif" font-size="10.00">llvm::AMDGPUMachineFunction</text>
</a>
</g>
</g>
<!-- Node2&#45;&gt;Node1 -->
<g id="edge1" class="edge">
<title>Node2&#45;&gt;Node1</title>
<path fill="none" stroke="midnightblue" d="M649.23,-200.65C717.86,-173.48 872.28,-112.34 932.14,-88.64"/>
<polygon fill="midnightblue" stroke="midnightblue" points="647.76,-197.46 639.75,-204.4 650.34,-203.97 647.76,-197.46"/>
</g>
<!-- Node3 -->
<g id="node3" class="node">
<title>Node3</title>
<g id="a_node3"><a xlink:href="$structllvm_1_1MachineFunctionInfo.html" xlink:title="MachineFunctionInfo &#45; This class can be derived from and used by targets to hold private target&#45;speci...">
<polygon fill="none" stroke="black" points="222.5,-372.5 222.5,-391.5 368.5,-391.5 368.5,-372.5 222.5,-372.5"/>
<text text-anchor="middle" x="295.5" y="-379.5" font-family="Helvetica,sans-Serif" font-size="10.00">llvm::MachineFunctionInfo</text>
</a>
</g>
</g>
<!-- Node3&#45;&gt;Node2 -->
<g id="edge2" class="edge">
<title>Node3&#45;&gt;Node2</title>
<path fill="none" stroke="midnightblue" d="M378.77,-373.71C420.74,-366.6 471.19,-353.42 511,-329 556.82,-300.89 593.88,-246.03 607.68,-223.75"/>
<polygon fill="midnightblue" stroke="midnightblue" points="378.16,-370.26 368.84,-375.3 379.27,-377.17 378.16,-370.26"/>
</g>
<!-- Node4 -->
<g id="node4" class="node">
<title>Node4</title>
<g id="a_node4"><a xlink:href="$classuint64__t.html" xlink:title=" ">
<polygon fill="none" stroke="black" points="267.5,-334.5 267.5,-353.5 323.5,-353.5 323.5,-334.5 267.5,-334.5"/>
<text text-anchor="middle" x="295.5" y="-341.5" font-family="Helvetica,sans-Serif" font-size="10.00">uint64_t</text>
</a>
</g>
</g>
<!-- Node4&#45;&gt;Node2 -->
<g id="edge3" class="edge">
<title>Node4&#45;&gt;Node2</title>
<path fill="none" stroke="#9a32cd" stroke-dasharray="5,2" d="M333.58,-334.13C348.66,-329.98 366.23,-324.96 382,-320 439.93,-301.79 455.96,-300.66 511,-275 544.03,-259.6 580.09,-236.54 599.4,-223.64"/>
<polygon fill="#9a32cd" stroke="#9a32cd" points="332.31,-330.85 323.58,-336.86 334.15,-337.6 332.31,-330.85"/>
<text text-anchor="middle" x="455.5" y="-317" font-family="Helvetica,sans-Serif" font-size="10.00"> ExplicitKernArgSize</text>
</g>
<!-- Node5 -->
<g id="node5" class="node">
<title>Node5</title>
<g id="a_node5"><a xlink:href="$classbool.html" xlink:title=" ">
<polygon fill="none" stroke="black" points="0,-210.5 0,-229.5 38,-229.5 38,-210.5 0,-210.5"/>
<text text-anchor="middle" x="19" y="-217.5" font-family="Helvetica,sans-Serif" font-size="10.00">bool</text>
</a>
</g>
</g>
<!-- Node5&#45;&gt;Node2 -->
<g id="edge4" class="edge">
<title>Node5&#45;&gt;Node2</title>
<path fill="none" stroke="#9a32cd" stroke-dasharray="5,2" d="M37.26,-236.45C42.82,-240.73 49.29,-244.76 56,-247 112.92,-265.97 131.03,-248.87 191,-247 333.43,-242.55 369.13,-240.42 511,-227 521.45,-226.01 532.47,-224.8 543.26,-223.51"/>
<polygon fill="#9a32cd" stroke="#9a32cd" points="39.26,-233.56 29.38,-229.75 34.73,-238.89 39.26,-233.56"/>
<text text-anchor="middle" x="295.5" y="-293" font-family="Helvetica,sans-Serif" font-size="10.00"> IsEntryFunction</text>
<text text-anchor="middle" x="295.5" y="-282" font-family="Helvetica,sans-Serif" font-size="10.00">IsModuleEntryFunction</text>
<text text-anchor="middle" x="295.5" y="-271" font-family="Helvetica,sans-Serif" font-size="10.00">MemoryBound</text>
<text text-anchor="middle" x="295.5" y="-260" font-family="Helvetica,sans-Serif" font-size="10.00">NoSignedZerosFPMath</text>
<text text-anchor="middle" x="295.5" y="-249" font-family="Helvetica,sans-Serif" font-size="10.00">WaveLimiter</text>
</g>
<!-- Node7 -->
<g id="node7" class="node">
<title>Node7</title>
<g id="a_node7"><a xlink:href="$structllvm_1_1AMDGPU_1_1SIModeRegisterDefaults.html" xlink:title=" ">
<polygon fill="none" stroke="black" points="210,-194 210,-224 381,-224 381,-194 210,-194"/>
<text text-anchor="start" x="218" y="-212" font-family="Helvetica,sans-Serif" font-size="10.00">llvm::AMDGPU::SIModeRegister</text>
<text text-anchor="middle" x="295.5" y="-201" font-family="Helvetica,sans-Serif" font-size="10.00">Defaults</text>
</a>
</g>
</g>
<!-- Node5&#45;&gt;Node7 -->
<g id="edge7" class="edge">
<title>Node5&#45;&gt;Node7</title>
<path fill="none" stroke="#9a32cd" stroke-dasharray="5,2" d="M31.5,-201.92C37.68,-193.91 46.08,-185.34 56,-181 110.96,-156.94 131.52,-173.1 191,-181 210.38,-183.57 231.27,-188.75 249.17,-193.95"/>
<polygon fill="#9a32cd" stroke="#9a32cd" points="28.6,-199.97 25.69,-210.15 34.32,-204 28.6,-199.97"/>
<text text-anchor="middle" x="123.5" y="-239" font-family="Helvetica,sans-Serif" font-size="10.00"> DX10Clamp</text>
<text text-anchor="middle" x="123.5" y="-228" font-family="Helvetica,sans-Serif" font-size="10.00">FP32InputDenormals</text>
<text text-anchor="middle" x="123.5" y="-217" font-family="Helvetica,sans-Serif" font-size="10.00">FP32OutputDenormals</text>
<text text-anchor="middle" x="123.5" y="-206" font-family="Helvetica,sans-Serif" font-size="10.00">FP64FP16InputDenormals</text>
<text text-anchor="middle" x="123.5" y="-195" font-family="Helvetica,sans-Serif" font-size="10.00">FP64FP16OutputDenormals</text>
<text text-anchor="middle" x="123.5" y="-184" font-family="Helvetica,sans-Serif" font-size="10.00">IEEE</text>
</g>
<!-- Node6 -->
<g id="node6" class="node">
<title>Node6</title>
<g id="a_node6"><a xlink:href="$structllvm_1_1Align.html" xlink:title="This struct is a compact representation of a valid (non&#45;zero power of two) alignment.">
<polygon fill="none" stroke="black" points="261,-155.5 261,-174.5 330,-174.5 330,-155.5 261,-155.5"/>
<text text-anchor="middle" x="295.5" y="-162.5" font-family="Helvetica,sans-Serif" font-size="10.00">llvm::Align</text>
</a>
</g>
</g>
<!-- Node6&#45;&gt;Node2 -->
<g id="edge5" class="edge">
<title>Node6&#45;&gt;Node2</title>
<path fill="none" stroke="#9a32cd" stroke-dasharray="5,2" d="M340.47,-166.37C384.08,-168.32 452.63,-172.98 511,-184 537.05,-188.92 565.98,-197.7 586.45,-204.5"/>
<polygon fill="#9a32cd" stroke="#9a32cd" points="340.36,-162.86 330.22,-165.94 340.06,-169.86 340.36,-162.86"/>
<text text-anchor="middle" x="455.5" y="-198" font-family="Helvetica,sans-Serif" font-size="10.00"> DynLDSAlign</text>
<text text-anchor="middle" x="455.5" y="-187" font-family="Helvetica,sans-Serif" font-size="10.00">MaxKernArgAlign</text>
</g>
<!-- Node7&#45;&gt;Node2 -->
<g id="edge6" class="edge">
<title>Node7&#45;&gt;Node2</title>
<path fill="none" stroke="#9a32cd" stroke-dasharray="5,2" d="M391.11,-210.49C434.89,-211.18 486.47,-212 528.93,-212.67"/>
<polygon fill="#9a32cd" stroke="#9a32cd" points="391.09,-206.99 381.03,-210.33 390.98,-213.99 391.09,-206.99"/>
<text text-anchor="middle" x="455.5" y="-215" font-family="Helvetica,sans-Serif" font-size="10.00"> Mode</text>
</g>
<!-- Node8 -->
<g id="node8" class="node">
<title>Node8</title>
<g id="a_node8"><a xlink:href="$classunsigned.html" xlink:title=" ">
<polygon fill="none" stroke="black" points="265,-114.5 265,-133.5 326,-133.5 326,-114.5 265,-114.5"/>
<text text-anchor="middle" x="295.5" y="-121.5" font-family="Helvetica,sans-Serif" font-size="10.00">unsigned</text>
</a>
</g>
</g>
<!-- Node8&#45;&gt;Node2 -->
<g id="edge8" class="edge">
<title>Node8&#45;&gt;Node2</title>
<path fill="none" stroke="#9a32cd" stroke-dasharray="5,2" d="M336.33,-121.85C380.4,-120.8 452.86,-123.03 511,-144 548.91,-157.67 586.13,-188.72 603.44,-204.46"/>
<polygon fill="#9a32cd" stroke="#9a32cd" points="336.19,-118.36 326.31,-122.16 336.41,-125.35 336.19,-118.36"/>
<text text-anchor="middle" x="455.5" y="-158" font-family="Helvetica,sans-Serif" font-size="10.00"> LDSSize</text>
<text text-anchor="middle" x="455.5" y="-147" font-family="Helvetica,sans-Serif" font-size="10.00">StaticLDSSize</text>
</g>
<!-- Node9 -->
<g id="node9" class="node">
<title>Node9</title>
<g id="a_node9"><a xlink:href="$classllvm_1_1MapVector.html" xlink:title=" ">
<polygon fill="none" stroke="black" points="545.5,-81.5 545.5,-122.5 683.5,-122.5 683.5,-81.5 545.5,-81.5"/>
<text text-anchor="start" x="553.5" y="-110.5" font-family="Helvetica,sans-Serif" font-size="10.00">llvm::MapVector&lt; llvm</text>
<text text-anchor="start" x="553.5" y="-99.5" font-family="Helvetica,sans-Serif" font-size="10.00">::Register, llvm::Optional</text>
<text text-anchor="middle" x="614.5" y="-88.5" font-family="Helvetica,sans-Serif" font-size="10.00">&lt; int &gt; &gt;</text>
</a>
</g>
</g>
<!-- Node9&#45;&gt;Node1 -->
<g id="edge9" class="edge">
<title>Node9&#45;&gt;Node1</title>
<path fill="none" stroke="#9a32cd" stroke-dasharray="5,2" d="M693.88,-96.71C749.71,-92.95 824.37,-87.91 879.81,-84.17"/>
<polygon fill="#9a32cd" stroke="#9a32cd" points="693.43,-93.24 683.69,-97.4 693.9,-100.22 693.43,-93.24"/>
<text text-anchor="middle" x="790" y="-97" font-family="Helvetica,sans-Serif" font-size="10.00"> WWMReservedRegs</text>
</g>
<!-- Node10 -->
<g id="node10" class="node">
<title>Node10</title>
<g id="a_node10"><a xlink:href="$classllvm_1_1MapVector.html" xlink:title="This class implements a map that also provides access to all stored values in a deterministic order.">
<polygon fill="none" stroke="black" points="209,-64 209,-94 382,-94 382,-64 209,-64"/>
<text text-anchor="start" x="217" y="-82" font-family="Helvetica,sans-Serif" font-size="10.00">llvm::MapVector&lt; KeyT,</text>
<text text-anchor="middle" x="295.5" y="-71" font-family="Helvetica,sans-Serif" font-size="10.00"> ValueT, MapType, VectorType &gt;</text>
</a>
</g>
</g>
<!-- Node10&#45;&gt;Node9 -->
<g id="edge10" class="edge">
<title>Node10&#45;&gt;Node9</title>
<path fill="none" stroke="orange" stroke-dasharray="5,2" d="M392.38,-75.23C429.52,-74.87 472.34,-75.81 511,-80 522.22,-81.22 534.02,-83.13 545.45,-85.34"/>
<polygon fill="orange" stroke="orange" points="392.01,-71.73 382.06,-75.36 392.1,-78.73 392.01,-71.73"/>
<text text-anchor="start" x="400" y="-94" font-family="Helvetica,sans-Serif" font-size="10.00"> &lt; llvm::Register, llvm</text>
<text text-anchor="middle" x="455.5" y="-83" font-family="Helvetica,sans-Serif" font-size="10.00">::Optional&lt; int &gt; &gt;</text>
</g>
<!-- Node11 -->
<g id="node11" class="node">
<title>Node11</title>
<g id="a_node11"><a xlink:href="$classllvm_1_1Register.html" xlink:title="Wrapper class representing virtual and physical registers.">
<polygon fill="none" stroke="black" points="572,-43.5 572,-62.5 657,-62.5 657,-43.5 572,-43.5"/>
<text text-anchor="middle" x="614.5" y="-50.5" font-family="Helvetica,sans-Serif" font-size="10.00">llvm::Register</text>
</a>
</g>
</g>
<!-- Node11&#45;&gt;Node1 -->
<g id="edge11" class="edge">
<title>Node11&#45;&gt;Node1</title>
<path fill="none" stroke="#9a32cd" stroke-dasharray="5,2" d="M667.34,-51.5C717.35,-50.7 795.11,-51.18 862,-59 880.99,-61.22 901.8,-65.43 919.06,-69.42"/>
<polygon fill="#9a32cd" stroke="#9a32cd" points="667.03,-48 657.1,-51.69 667.16,-55 667.03,-48"/>
<text text-anchor="middle" x="790" y="-73" font-family="Helvetica,sans-Serif" font-size="10.00"> SGPRForBPSaveRestoreCopy</text>
<text text-anchor="middle" x="790" y="-62" font-family="Helvetica,sans-Serif" font-size="10.00">SGPRForFPSaveRestoreCopy</text>
</g>
<!-- Node12 -->
<g id="node12" class="node">
<title>Node12</title>
<g id="a_node12"><a xlink:href="$classllvm_1_1Optional.html" xlink:title=" ">
<polygon fill="none" stroke="black" points="554,-0.5 554,-19.5 675,-19.5 675,-0.5 554,-0.5"/>
<text text-anchor="middle" x="614.5" y="-7.5" font-family="Helvetica,sans-Serif" font-size="10.00">llvm::Optional&lt; int &gt;</text>
</a>
</g>
</g>
<!-- Node12&#45;&gt;Node1 -->
<g id="edge12" class="edge">
<title>Node12&#45;&gt;Node1</title>
<path fill="none" stroke="#9a32cd" stroke-dasharray="5,2" d="M685.18,-5.89C735.37,-4.93 804.15,-7.74 862,-25 894.05,-34.56 926.96,-56.72 944.21,-69.48"/>
<polygon fill="#9a32cd" stroke="#9a32cd" points="684.99,-2.4 675.08,-6.14 685.17,-9.39 684.99,-2.4"/>
<text text-anchor="middle" x="790" y="-39" font-family="Helvetica,sans-Serif" font-size="10.00"> BasePointerSaveIndex</text>
<text text-anchor="middle" x="790" y="-28" font-family="Helvetica,sans-Serif" font-size="10.00">FramePointerSaveIndex</text>
</g>
<!-- Node13 -->
<g id="node13" class="node">
<title>Node13</title>
<g id="a_node13"><a xlink:href="$classllvm_1_1Optional.html" xlink:title=" ">
<polygon fill="none" stroke="black" points="238.5,-0.5 238.5,-19.5 352.5,-19.5 352.5,-0.5 238.5,-0.5"/>
<text text-anchor="middle" x="295.5" y="-7.5" font-family="Helvetica,sans-Serif" font-size="10.00">llvm::Optional&lt; T &gt;</text>
</a>
</g>
</g>
<!-- Node13&#45;&gt;Node12 -->
<g id="edge13" class="edge">
<title>Node13&#45;&gt;Node12</title>
<path fill="none" stroke="orange" stroke-dasharray="5,2" d="M363.05,-10C419.46,-10 499.63,-10 553.95,-10"/>
<polygon fill="orange" stroke="orange" points="362.81,-6.5 352.81,-10 362.81,-13.5 362.81,-6.5"/>
<text text-anchor="middle" x="455.5" y="-13" font-family="Helvetica,sans-Serif" font-size="10.00"> &lt; int &gt;</text>
</g>
</g>
</svg>
