<?xml version="1.0" encoding="UTF-8" standalone="no"?>
<!DOCTYPE svg PUBLIC "-//W3C//DTD SVG 1.1//EN"
 "http://www.w3.org/Graphics/SVG/1.1/DTD/svg11.dtd">
<!-- Generated by graphviz version 2.48.0 (0)
 -->
<!-- Title: llvm::ExecutionEngine Pages: 1 -->
<svg width="2056pt" height="248pt"
 viewBox="0.00 0.00 2056.00 247.50" xmlns="http://www.w3.org/2000/svg" xmlns:xlink="http://www.w3.org/1999/xlink">
<g id="graph0" class="graph" transform="scale(1 1) rotate(0) translate(4 243.5)">
<title>llvm::ExecutionEngine</title>
<!-- Node1 -->
<g id="node1" class="node">
<title>Node1</title>
<g id="a_node1"><a xlink:title="Abstract interface for implementation execution of LLVM modules, designed to support both interpreter...">
<polygon fill="#bfbfbf" stroke="black" points="1923,-143.5 1923,-162.5 2048,-162.5 2048,-143.5 1923,-143.5"/>
<text text-anchor="middle" x="1985.5" y="-150.5" font-family="Helvetica,sans-Serif" font-size="10.00">llvm::ExecutionEngine</text>
</a>
</g>
</g>
<!-- Node1&#45;&gt;Node1 -->
<g id="edge1" class="edge">
<title>Node1&#45;&gt;Node1</title>
<path fill="none" stroke="#9a32cd" stroke-dasharray="5,2" d="M1960.95,-172.03C1962.29,-177.13 1970.47,-181 1985.5,-181 2008.96,-181 2015.74,-171.57 2005.85,-162.76"/>
<polygon fill="#9a32cd" stroke="#9a32cd" points="1964.21,-173.31 1965.15,-162.76 1957.83,-170.42 1964.21,-173.31"/>
<text text-anchor="middle" x="1985.5" y="-195" font-family="Helvetica,sans-Serif" font-size="10.00"> InterpCtor</text>
<text text-anchor="middle" x="1985.5" y="-184" font-family="Helvetica,sans-Serif" font-size="10.00">MCJITCtor</text>
</g>
<!-- Node2 -->
<g id="node2" class="node">
<title>Node2</title>
<g id="a_node2"><a xlink:href="$classllvm_1_1sys_1_1SmartMutex.html" xlink:title=" ">
<polygon fill="none" stroke="black" points="1657,-209 1657,-239 1784,-239 1784,-209 1657,-209"/>
<text text-anchor="start" x="1665" y="-227" font-family="Helvetica,sans-Serif" font-size="10.00">llvm::sys::SmartMutex</text>
<text text-anchor="middle" x="1720.5" y="-216" font-family="Helvetica,sans-Serif" font-size="10.00">&lt; false &gt;</text>
</a>
</g>
</g>
<!-- Node2&#45;&gt;Node1 -->
<g id="edge2" class="edge">
<title>Node2&#45;&gt;Node1</title>
<path fill="none" stroke="#9a32cd" stroke-dasharray="5,2" d="M1793.86,-209.62C1827.85,-202.31 1868.77,-192.71 1905,-182 1924.02,-176.38 1945.09,-168.62 1960.76,-162.54"/>
<polygon fill="#9a32cd" stroke="#9a32cd" points="1793.06,-206.21 1784,-211.72 1794.51,-213.06 1793.06,-206.21"/>
<text text-anchor="middle" x="1853.5" y="-210" font-family="Helvetica,sans-Serif" font-size="10.00"> lock</text>
</g>
<!-- Node3 -->
<g id="node3" class="node">
<title>Node3</title>
<g id="a_node3"><a xlink:href="$classllvm_1_1sys_1_1SmartMutex.html" xlink:title="SmartMutex &#45; A mutex with a compile time constant parameter that indicates whether this mutex should ...">
<polygon fill="none" stroke="black" points="1392,-209 1392,-239 1519,-239 1519,-209 1392,-209"/>
<text text-anchor="start" x="1400" y="-227" font-family="Helvetica,sans-Serif" font-size="10.00">llvm::sys::SmartMutex</text>
<text text-anchor="middle" x="1455.5" y="-216" font-family="Helvetica,sans-Serif" font-size="10.00">&lt; mt_only &gt;</text>
</a>
</g>
</g>
<!-- Node3&#45;&gt;Node2 -->
<g id="edge3" class="edge">
<title>Node3&#45;&gt;Node2</title>
<path fill="none" stroke="orange" stroke-dasharray="5,2" d="M1529.4,-224C1569.43,-224 1618.57,-224 1656.86,-224"/>
<polygon fill="orange" stroke="orange" points="1529.16,-220.5 1519.16,-224 1529.16,-227.5 1529.16,-220.5"/>
<text text-anchor="middle" x="1588" y="-227" font-family="Helvetica,sans-Serif" font-size="10.00"> &lt; false &gt;</text>
</g>
<!-- Node4 -->
<g id="node4" class="node">
<title>Node4</title>
<g id="a_node4"><a xlink:title=" ">
<polygon fill="none" stroke="#bfbfbf" points="1657,-160 1657,-190 1784,-190 1784,-160 1657,-160"/>
<text text-anchor="start" x="1665" y="-178" font-family="Helvetica,sans-Serif" font-size="10.00">function&lt; void *(const</text>
<text text-anchor="middle" x="1720.5" y="-167" font-family="Helvetica,sans-Serif" font-size="10.00"> std::string &amp;)&gt;</text>
</a>
</g>
</g>
<!-- Node4&#45;&gt;Node1 -->
<g id="edge4" class="edge">
<title>Node4&#45;&gt;Node1</title>
<path fill="none" stroke="#9a32cd" stroke-dasharray="5,2" d="M1794.21,-168.92C1834.6,-165.54 1884.3,-161.38 1922.77,-158.16"/>
<polygon fill="#9a32cd" stroke="#9a32cd" points="1793.83,-165.44 1784.16,-169.76 1794.42,-172.41 1793.83,-165.44"/>
<text text-anchor="middle" x="1853.5" y="-170" font-family="Helvetica,sans-Serif" font-size="10.00"> LazyFunctionCreator</text>
</g>
<!-- Node5 -->
<g id="node5" class="node">
<title>Node5</title>
<g id="a_node5"><a xlink:title=" ">
<polygon fill="none" stroke="#bfbfbf" points="1698.5,-121.5 1698.5,-140.5 1742.5,-140.5 1742.5,-121.5 1698.5,-121.5"/>
<text text-anchor="middle" x="1720.5" y="-128.5" font-family="Helvetica,sans-Serif" font-size="10.00">string</text>
</a>
</g>
</g>
<!-- Node5&#45;&gt;Node1 -->
<g id="edge5" class="edge">
<title>Node5&#45;&gt;Node1</title>
<path fill="none" stroke="#9a32cd" stroke-dasharray="5,2" d="M1752.74,-133.15C1789.27,-135.72 1851.56,-140.27 1905,-145 1910.8,-145.51 1916.84,-146.07 1922.88,-146.65"/>
<polygon fill="#9a32cd" stroke="#9a32cd" points="1752.93,-129.66 1742.71,-132.45 1752.44,-136.64 1752.93,-129.66"/>
<text text-anchor="middle" x="1853.5" y="-148" font-family="Helvetica,sans-Serif" font-size="10.00"> ErrMsg</text>
</g>
<!-- Node6 -->
<g id="node6" class="node">
<title>Node6</title>
<g id="a_node6"><a xlink:href="$classllvm_1_1SmallVector.html" xlink:title=" ">
<polygon fill="none" stroke="black" points="1658,-61.5 1658,-102.5 1783,-102.5 1783,-61.5 1658,-61.5"/>
<text text-anchor="start" x="1666" y="-90.5" font-family="Helvetica,sans-Serif" font-size="10.00">llvm::SmallVector&lt;</text>
<text text-anchor="start" x="1666" y="-79.5" font-family="Helvetica,sans-Serif" font-size="10.00"> std::unique_ptr&lt; llvm</text>
<text text-anchor="middle" x="1720.5" y="-68.5" font-family="Helvetica,sans-Serif" font-size="10.00">::Module &gt;, 1 &gt;</text>
</a>
</g>
</g>
<!-- Node6&#45;&gt;Node1 -->
<g id="edge6" class="edge">
<title>Node6&#45;&gt;Node1</title>
<path fill="none" stroke="#9a32cd" stroke-dasharray="5,2" d="M1793.25,-94.26C1827.44,-100.86 1868.71,-109.93 1905,-121 1925.35,-127.21 1947.77,-136.46 1963.6,-143.43"/>
<polygon fill="#9a32cd" stroke="#9a32cd" points="1793.82,-90.81 1783.34,-92.38 1792.52,-97.68 1793.82,-90.81"/>
<text text-anchor="middle" x="1853.5" y="-124" font-family="Helvetica,sans-Serif" font-size="10.00"> Modules</text>
</g>
<!-- Node7 -->
<g id="node7" class="node">
<title>Node7</title>
<g id="a_node7"><a xlink:href="$classllvm_1_1SmallVectorImpl.html" xlink:title="This class consists of common code factored out of the SmallVector class to reduce code duplication b...">
<polygon fill="none" stroke="black" points="1188.5,-26.5 1188.5,-45.5 1341.5,-45.5 1341.5,-26.5 1188.5,-26.5"/>
<text text-anchor="middle" x="1265" y="-33.5" font-family="Helvetica,sans-Serif" font-size="10.00">llvm::SmallVectorImpl&lt; T &gt;</text>
</a>
</g>
</g>
<!-- Node7&#45;&gt;Node6 -->
<g id="edge7" class="edge">
<title>Node7&#45;&gt;Node6</title>
<path fill="none" stroke="midnightblue" d="M1351.86,-42.77C1400.86,-46.81 1463.42,-52.26 1519,-58 1565.55,-62.81 1618.08,-69.13 1657.69,-74.08"/>
<polygon fill="midnightblue" stroke="midnightblue" points="1351.87,-39.26 1341.62,-41.93 1351.3,-46.24 1351.87,-39.26"/>
</g>
<!-- Node17 -->
<g id="node17" class="node">
<title>Node17</title>
<g id="a_node17"><a xlink:href="$classllvm_1_1SmallVector.html" xlink:title="This is a &#39;vector&#39; (really, a variable&#45;sized array), optimized for the case when the array is small.">
<polygon fill="none" stroke="black" points="1400,-67 1400,-97 1511,-97 1511,-67 1400,-67"/>
<text text-anchor="start" x="1408" y="-85" font-family="Helvetica,sans-Serif" font-size="10.00">llvm::SmallVector&lt;</text>
<text text-anchor="middle" x="1455.5" y="-74" font-family="Helvetica,sans-Serif" font-size="10.00"> T, N &gt;</text>
</a>
</g>
</g>
<!-- Node7&#45;&gt;Node17 -->
<g id="edge18" class="edge">
<title>Node7&#45;&gt;Node17</title>
<path fill="none" stroke="midnightblue" d="M1323.23,-47.73C1333.82,-50.04 1344.76,-52.52 1355,-55 1370.05,-58.64 1386.29,-62.91 1401.19,-66.96"/>
<polygon fill="midnightblue" stroke="midnightblue" points="1323.73,-44.26 1313.22,-45.58 1322.26,-51.11 1323.73,-44.26"/>
</g>
<!-- Node8 -->
<g id="node8" class="node">
<title>Node8</title>
<g id="a_node8"><a xlink:href="$classllvm_1_1SmallVectorTemplateBase.html" xlink:title="SmallVectorTemplateBase&lt;TriviallyCopyable = false&gt; &#45; This is where we put method implementations that...">
<polygon fill="none" stroke="black" points="860,-21 860,-51 1008,-51 1008,-21 860,-21"/>
<text text-anchor="start" x="868" y="-39" font-family="Helvetica,sans-Serif" font-size="10.00">llvm::SmallVectorTemplate</text>
<text text-anchor="middle" x="934" y="-28" font-family="Helvetica,sans-Serif" font-size="10.00">Base&lt; T, bool &gt;</text>
</a>
</g>
</g>
<!-- Node8&#45;&gt;Node7 -->
<g id="edge8" class="edge">
<title>Node8&#45;&gt;Node7</title>
<path fill="none" stroke="midnightblue" d="M1018.27,-36C1070.59,-36 1137.53,-36 1188.33,-36"/>
<polygon fill="midnightblue" stroke="midnightblue" points="1018.02,-32.5 1008.02,-36 1018.02,-39.5 1018.02,-32.5"/>
</g>
<!-- Node9 -->
<g id="node9" class="node">
<title>Node9</title>
<g id="a_node9"><a xlink:href="$classllvm_1_1SmallVectorTemplateCommon.html" xlink:title="This is the part of SmallVectorTemplateBase which does not depend on whether the type T is a POD.">
<polygon fill="none" stroke="black" points="575,-39 575,-69 723,-69 723,-39 575,-39"/>
<text text-anchor="start" x="583" y="-57" font-family="Helvetica,sans-Serif" font-size="10.00">llvm::SmallVectorTemplate</text>
<text text-anchor="middle" x="649" y="-46" font-family="Helvetica,sans-Serif" font-size="10.00">Common&lt; T, typename &gt;</text>
</a>
</g>
</g>
<!-- Node9&#45;&gt;Node8 -->
<g id="edge9" class="edge">
<title>Node9&#45;&gt;Node8</title>
<path fill="none" stroke="midnightblue" d="M733.26,-48.7C773.3,-46.16 820.89,-43.13 859.57,-40.67"/>
<polygon fill="midnightblue" stroke="midnightblue" points="733.01,-45.21 723.25,-49.34 733.45,-52.2 733.01,-45.21"/>
</g>
<!-- Node10 -->
<g id="node10" class="node">
<title>Node10</title>
<g id="a_node10"><a xlink:href="$classllvm_1_1SmallVectorBase.html" xlink:title=" ">
<polygon fill="none" stroke="black" points="409,-33.5 409,-74.5 538,-74.5 538,-33.5 409,-33.5"/>
<text text-anchor="start" x="417" y="-62.5" font-family="Helvetica,sans-Serif" font-size="10.00">llvm::SmallVectorBase</text>
<text text-anchor="start" x="417" y="-51.5" font-family="Helvetica,sans-Serif" font-size="10.00">&lt; SmallVectorSizeType</text>
<text text-anchor="middle" x="473.5" y="-40.5" font-family="Helvetica,sans-Serif" font-size="10.00">&lt; T &gt; &gt;</text>
</a>
</g>
</g>
<!-- Node10&#45;&gt;Node9 -->
<g id="edge10" class="edge">
<title>Node10&#45;&gt;Node9</title>
<path fill="none" stroke="midnightblue" d="M548.37,-54C557.19,-54 566.19,-54 574.99,-54"/>
<polygon fill="midnightblue" stroke="midnightblue" points="548.12,-50.5 538.12,-54 548.12,-57.5 548.12,-50.5"/>
</g>
<!-- Node11 -->
<g id="node11" class="node">
<title>Node11</title>
<g id="a_node11"><a xlink:href="$classllvm_1_1SmallVectorBase.html" xlink:title="This is all the stuff common to all SmallVectors.">
<polygon fill="none" stroke="black" points="130,-39 130,-69 257,-69 257,-39 130,-39"/>
<text text-anchor="start" x="138" y="-57" font-family="Helvetica,sans-Serif" font-size="10.00">llvm::SmallVectorBase</text>
<text text-anchor="middle" x="193.5" y="-46" font-family="Helvetica,sans-Serif" font-size="10.00">&lt; Size_T &gt;</text>
</a>
</g>
</g>
<!-- Node11&#45;&gt;Node10 -->
<g id="edge11" class="edge">
<title>Node11&#45;&gt;Node10</title>
<path fill="none" stroke="orange" stroke-dasharray="5,2" d="M267.26,-54C311.09,-54 366.4,-54 408.55,-54"/>
<polygon fill="orange" stroke="orange" points="267.24,-50.5 257.24,-54 267.24,-57.5 267.24,-50.5"/>
<text text-anchor="start" x="275" y="-68" font-family="Helvetica,sans-Serif" font-size="10.00"> &lt; SmallVectorSizeType</text>
<text text-anchor="middle" x="333" y="-57" font-family="Helvetica,sans-Serif" font-size="10.00">&lt; T &gt; &gt;</text>
</g>
<!-- Node12 -->
<g id="node12" class="node">
<title>Node12</title>
<g id="a_node12"><a xlink:title=" ">
<polygon fill="none" stroke="#bfbfbf" points="0,-63.5 0,-82.5 48,-82.5 48,-63.5 0,-63.5"/>
<text text-anchor="middle" x="24" y="-70.5" font-family="Helvetica,sans-Serif" font-size="10.00">Size_T</text>
</a>
</g>
</g>
<!-- Node12&#45;&gt;Node11 -->
<g id="edge12" class="edge">
<title>Node12&#45;&gt;Node11</title>
<path fill="none" stroke="#9a32cd" stroke-dasharray="5,2" d="M58.33,-69.22C78.73,-66.91 105.48,-63.87 129.73,-61.12"/>
<polygon fill="#9a32cd" stroke="#9a32cd" points="57.83,-65.75 48.29,-70.36 58.62,-72.71 57.83,-65.75"/>
<text text-anchor="middle" x="89" y="-81" font-family="Helvetica,sans-Serif" font-size="10.00"> Capacity</text>
<text text-anchor="middle" x="89" y="-70" font-family="Helvetica,sans-Serif" font-size="10.00">Size</text>
</g>
<!-- Node13 -->
<g id="node13" class="node">
<title>Node13</title>
<g id="a_node13"><a xlink:title=" ">
<polygon fill="none" stroke="#bfbfbf" points="1,-25.5 1,-44.5 47,-44.5 47,-25.5 1,-25.5"/>
<text text-anchor="middle" x="24" y="-32.5" font-family="Helvetica,sans-Serif" font-size="10.00">void *</text>
</a>
</g>
</g>
<!-- Node13&#45;&gt;Node11 -->
<g id="edge13" class="edge">
<title>Node13&#45;&gt;Node11</title>
<path fill="none" stroke="#9a32cd" stroke-dasharray="5,2" d="M57.31,-38.66C77.82,-40.99 105.04,-44.08 129.69,-46.87"/>
<polygon fill="#9a32cd" stroke="#9a32cd" points="57.57,-35.17 47.24,-37.52 56.78,-42.13 57.57,-35.17"/>
<text text-anchor="middle" x="89" y="-48" font-family="Helvetica,sans-Serif" font-size="10.00"> BeginX</text>
</g>
<!-- Node14 -->
<g id="node14" class="node">
<title>Node14</title>
<g id="a_node14"><a xlink:href="$classbool.html" xlink:title=" ">
<polygon fill="none" stroke="black" points="630,-0.5 630,-19.5 668,-19.5 668,-0.5 630,-0.5"/>
<text text-anchor="middle" x="649" y="-7.5" font-family="Helvetica,sans-Serif" font-size="10.00">bool</text>
</a>
</g>
</g>
<!-- Node14&#45;&gt;Node8 -->
<g id="edge14" class="edge">
<title>Node14&#45;&gt;Node8</title>
<path fill="none" stroke="#9a32cd" stroke-dasharray="5,2" d="M678.15,-12.4C715.58,-15.61 783.78,-21.54 842,-27 847.85,-27.55 853.91,-28.13 859.99,-28.71"/>
<polygon fill="#9a32cd" stroke="#9a32cd" points="678.27,-8.9 668.01,-11.53 677.67,-15.87 678.27,-8.9"/>
<text text-anchor="middle" x="791.5" y="-30" font-family="Helvetica,sans-Serif" font-size="10.00"> TakesParamByValue</text>
</g>
<!-- Node15 -->
<g id="node15" class="node">
<title>Node15</title>
<g id="a_node15"><a xlink:href="$structllvm_1_1SmallVectorStorage.html" xlink:title="Storage for the SmallVector elements.">
<polygon fill="none" stroke="black" points="864,-101 864,-131 1004,-131 1004,-101 864,-101"/>
<text text-anchor="start" x="872" y="-119" font-family="Helvetica,sans-Serif" font-size="10.00">llvm::SmallVectorStorage</text>
<text text-anchor="middle" x="934" y="-108" font-family="Helvetica,sans-Serif" font-size="10.00">&lt; T, N &gt;</text>
</a>
</g>
</g>
<!-- Node15&#45;&gt;Node6 -->
<g id="edge15" class="edge">
<title>Node15&#45;&gt;Node6</title>
<path fill="none" stroke="#8b1a1a" d="M1014.1,-119.69C1018.13,-119.81 1022.11,-119.91 1026,-120 1084.21,-121.28 1098.78,-120.72 1157,-120 1371.27,-117.33 1427.75,-143.97 1639,-108 1646.82,-106.67 1654.92,-104.74 1662.84,-102.53"/>
<polygon fill="#8b1a1a" stroke="#8b1a1a" points="1014.16,-116.19 1004.05,-119.35 1013.93,-123.18 1014.16,-116.19"/>
</g>
<!-- Node18 -->
<g id="node18" class="node">
<title>Node18</title>
<g id="a_node18"><a xlink:href="$structllvm_1_1SmallVectorStorage.html" xlink:title=" ">
<polygon fill="none" stroke="black" points="1175,-64.5 1175,-105.5 1355,-105.5 1355,-64.5 1175,-64.5"/>
<text text-anchor="start" x="1183" y="-93.5" font-family="Helvetica,sans-Serif" font-size="10.00">llvm::SmallVectorStorage</text>
<text text-anchor="start" x="1183" y="-82.5" font-family="Helvetica,sans-Serif" font-size="10.00">&lt; T, CalculateSmallVectorDefault</text>
<text text-anchor="middle" x="1265" y="-71.5" font-family="Helvetica,sans-Serif" font-size="10.00">InlinedElements&lt; T &gt;::value &gt;</text>
</a>
</g>
</g>
<!-- Node15&#45;&gt;Node18 -->
<g id="edge20" class="edge">
<title>Node15&#45;&gt;Node18</title>
<path fill="none" stroke="orange" stroke-dasharray="5,2" d="M983.03,-97.73C996.71,-93.35 1011.77,-89.27 1026,-87 1074.76,-79.21 1129.86,-78.26 1174.75,-79.45"/>
<polygon fill="orange" stroke="orange" points="981.73,-94.48 973.35,-100.96 983.94,-101.12 981.73,-94.48"/>
<text text-anchor="start" x="1026" y="-112" font-family="Helvetica,sans-Serif" font-size="10.00"> &lt; T, CalculateSmallVector</text>
<text text-anchor="start" x="1026" y="-101" font-family="Helvetica,sans-Serif" font-size="10.00">DefaultInlinedElements</text>
<text text-anchor="middle" x="1091.5" y="-90" font-family="Helvetica,sans-Serif" font-size="10.00">&lt; T &gt;::value &gt;</text>
</g>
<!-- Node16 -->
<g id="node16" class="node">
<title>Node16</title>
<g id="a_node16"><a xlink:title=" ">
<polygon fill="none" stroke="#bfbfbf" points="630,-106.5 630,-125.5 668,-125.5 668,-106.5 630,-106.5"/>
<text text-anchor="middle" x="649" y="-113.5" font-family="Helvetica,sans-Serif" font-size="10.00">char</text>
</a>
</g>
</g>
<!-- Node16&#45;&gt;Node15 -->
<g id="edge16" class="edge">
<title>Node16&#45;&gt;Node15</title>
<path fill="none" stroke="#9a32cd" stroke-dasharray="5,2" d="M678.14,-116C721.06,-116 804.18,-116 863.83,-116"/>
<polygon fill="#9a32cd" stroke="#9a32cd" points="678.13,-112.5 668.13,-116 678.13,-119.5 678.13,-112.5"/>
<text text-anchor="middle" x="791.5" y="-119" font-family="Helvetica,sans-Serif" font-size="10.00"> InlineElts</text>
</g>
<!-- Node17&#45;&gt;Node6 -->
<g id="edge17" class="edge">
<title>Node17&#45;&gt;Node6</title>
<path fill="none" stroke="orange" stroke-dasharray="5,2" d="M1521.36,-82C1563.03,-82 1616.83,-82 1657.85,-82"/>
<polygon fill="orange" stroke="orange" points="1521.31,-78.5 1511.31,-82 1521.31,-85.5 1521.31,-78.5"/>
<text text-anchor="start" x="1537" y="-96" font-family="Helvetica,sans-Serif" font-size="10.00"> &lt; std::unique_ptr&lt;</text>
<text text-anchor="middle" x="1588" y="-85" font-family="Helvetica,sans-Serif" font-size="10.00"> llvm::Module &gt;, 1 &gt;</text>
</g>
<!-- Node18&#45;&gt;Node17 -->
<g id="edge19" class="edge">
<title>Node18&#45;&gt;Node17</title>
<path fill="none" stroke="#8b1a1a" d="M1365.09,-83.42C1377.08,-83.23 1388.97,-83.04 1399.97,-82.87"/>
<polygon fill="#8b1a1a" stroke="#8b1a1a" points="1364.95,-79.92 1355.01,-83.58 1365.06,-86.92 1364.95,-79.92"/>
</g>
</g>
</svg>
