<?xml version="1.0" encoding="UTF-8" standalone="no"?>
<!DOCTYPE svg PUBLIC "-//W3C//DTD SVG 1.1//EN"
 "http://www.w3.org/Graphics/SVG/1.1/DTD/svg11.dtd">
<!-- Generated by graphviz version 2.48.0 (0)
 -->
<!-- Title: llvm::orc::Task Pages: 1 -->
<svg width="228pt" height="231pt"
 viewBox="0.00 0.00 227.50 231.00" xmlns="http://www.w3.org/2000/svg" xmlns:xlink="http://www.w3.org/1999/xlink">
<g id="graph0" class="graph" transform="scale(1 1) rotate(0) translate(4 227)">
<title>llvm::orc::Task</title>
<!-- Node1 -->
<g id="node1" class="node">
<title>Node1</title>
<g id="a_node1"><a xlink:title="Represents an abstract task for ORC to run.">
<polygon fill="#bfbfbf" stroke="black" points="16.5,-0.5 16.5,-19.5 103.5,-19.5 103.5,-0.5 16.5,-0.5"/>
<text text-anchor="middle" x="60" y="-7.5" font-family="Helvetica,sans-Serif" font-size="10.00">llvm::orc::Task</text>
</a>
</g>
</g>
<!-- Node2 -->
<g id="node2" class="node">
<title>Node2</title>
<g id="a_node2"><a xlink:href="$classllvm_1_1RTTIExtends.html" xlink:title=" ">
<polygon fill="none" stroke="black" points="3.5,-57.5 3.5,-87.5 116.5,-87.5 116.5,-57.5 3.5,-57.5"/>
<text text-anchor="start" x="11.5" y="-75.5" font-family="Helvetica,sans-Serif" font-size="10.00">llvm::RTTIExtends&lt;</text>
<text text-anchor="middle" x="60" y="-64.5" font-family="Helvetica,sans-Serif" font-size="10.00"> Task, RTTIRoot &gt;</text>
</a>
</g>
</g>
<!-- Node2&#45;&gt;Node1 -->
<g id="edge1" class="edge">
<title>Node2&#45;&gt;Node1</title>
<path fill="none" stroke="midnightblue" d="M60,-47.35C60,-37.51 60,-26.78 60,-19.54"/>
<polygon fill="midnightblue" stroke="midnightblue" points="56.5,-47.47 60,-57.47 63.5,-47.47 56.5,-47.47"/>
</g>
<!-- Node3 -->
<g id="node3" class="node">
<title>Node3</title>
<g id="a_node3"><a xlink:href="$classllvm_1_1RTTIRoot.html" xlink:title="Base class for the extensible RTTI hierarchy.">
<polygon fill="none" stroke="black" points="0,-141 0,-160 88,-160 88,-141 0,-141"/>
<text text-anchor="middle" x="44" y="-148" font-family="Helvetica,sans-Serif" font-size="10.00">llvm::RTTIRoot</text>
</a>
</g>
</g>
<!-- Node3&#45;&gt;Node2 -->
<g id="edge2" class="edge">
<title>Node3&#45;&gt;Node2</title>
<path fill="none" stroke="midnightblue" d="M47.94,-130.78C50.76,-117.4 54.49,-99.69 57.05,-87.52"/>
<polygon fill="midnightblue" stroke="midnightblue" points="44.47,-130.28 45.84,-140.78 51.32,-131.72 44.47,-130.28"/>
</g>
<!-- Node4 -->
<g id="node4" class="node">
<title>Node4</title>
<g id="a_node4"><a xlink:href="$classllvm_1_1RTTIExtends.html" xlink:title="Inheritance utility for extensible RTTI.">
<polygon fill="none" stroke="black" points="106.5,-135.5 106.5,-165.5 219.5,-165.5 219.5,-135.5 106.5,-135.5"/>
<text text-anchor="start" x="114.5" y="-153.5" font-family="Helvetica,sans-Serif" font-size="10.00">llvm::RTTIExtends&lt;</text>
<text text-anchor="middle" x="163" y="-142.5" font-family="Helvetica,sans-Serif" font-size="10.00"> ThisT, ParentT &gt;</text>
</a>
</g>
</g>
<!-- Node4&#45;&gt;Node2 -->
<g id="edge3" class="edge">
<title>Node4&#45;&gt;Node2</title>
<path fill="none" stroke="orange" stroke-dasharray="5,2" d="M135.37,-129.11C117.65,-116.04 95.09,-99.39 79.29,-87.73"/>
<polygon fill="orange" stroke="orange" points="133.5,-132.08 143.63,-135.2 137.66,-126.45 133.5,-132.08"/>
<text text-anchor="middle" x="165.5" y="-109" font-family="Helvetica,sans-Serif" font-size="10.00"> &lt; Task, RTTIRoot &gt;</text>
</g>
<!-- Node5 -->
<g id="node5" class="node">
<title>Node5</title>
<g id="a_node5"><a xlink:href="$classParentT.html" xlink:title=" ">
<polygon fill="none" stroke="black" points="136.5,-203.5 136.5,-222.5 189.5,-222.5 189.5,-203.5 136.5,-203.5"/>
<text text-anchor="middle" x="163" y="-210.5" font-family="Helvetica,sans-Serif" font-size="10.00">ParentT</text>
</a>
</g>
</g>
<!-- Node5&#45;&gt;Node4 -->
<g id="edge4" class="edge">
<title>Node5&#45;&gt;Node4</title>
<path fill="none" stroke="midnightblue" d="M163,-193.22C163,-184.36 163,-173.96 163,-165.76"/>
<polygon fill="midnightblue" stroke="midnightblue" points="159.5,-193.33 163,-203.33 166.5,-193.33 159.5,-193.33"/>
</g>
</g>
</svg>
