<?xml version="1.0" encoding="UTF-8" standalone="no"?>
<!DOCTYPE svg PUBLIC "-//W3C//DTD SVG 1.1//EN"
 "http://www.w3.org/Graphics/SVG/1.1/DTD/svg11.dtd">
<!-- Generated by graphviz version 2.48.0 (0)
 -->
<!-- Title: llvm::orc::TaskDispatcher Pages: 1 -->
<svg width="344pt" height="95pt"
 viewBox="0.00 0.00 344.00 95.00" xmlns="http://www.w3.org/2000/svg" xmlns:xlink="http://www.w3.org/1999/xlink">
<g id="graph0" class="graph" transform="scale(1 1) rotate(0) translate(4 91)">
<title>llvm::orc::TaskDispatcher</title>
<!-- Node1 -->
<g id="node1" class="node">
<title>Node1</title>
<g id="a_node1"><a xlink:title="Abstract base for classes that dispatch ORC Tasks.">
<polygon fill="#bfbfbf" stroke="black" points="89.5,-67.5 89.5,-86.5 229.5,-86.5 229.5,-67.5 89.5,-67.5"/>
<text text-anchor="middle" x="159.5" y="-74.5" font-family="Helvetica,sans-Serif" font-size="10.00">llvm::orc::TaskDispatcher</text>
</a>
</g>
</g>
<!-- Node2 -->
<g id="node2" class="node">
<title>Node2</title>
<g id="a_node2"><a xlink:href="$classllvm_1_1orc_1_1DynamicThreadPoolTaskDispatcher.html" xlink:title=" ">
<polygon fill="none" stroke="black" points="0,-0.5 0,-30.5 143,-30.5 143,-0.5 0,-0.5"/>
<text text-anchor="start" x="8" y="-18.5" font-family="Helvetica,sans-Serif" font-size="10.00">llvm::orc::DynamicThread</text>
<text text-anchor="middle" x="71.5" y="-7.5" font-family="Helvetica,sans-Serif" font-size="10.00">PoolTaskDispatcher</text>
</a>
</g>
</g>
<!-- Node1&#45;&gt;Node2 -->
<g id="edge1" class="edge">
<title>Node1&#45;&gt;Node2</title>
<path fill="none" stroke="midnightblue" d="M138.41,-61.74C124.42,-52.28 106.15,-39.93 92.24,-30.52"/>
<polygon fill="midnightblue" stroke="midnightblue" points="136.65,-64.77 146.89,-67.48 140.57,-58.97 136.65,-64.77"/>
</g>
<!-- Node3 -->
<g id="node3" class="node">
<title>Node3</title>
<g id="a_node3"><a xlink:href="$classllvm_1_1orc_1_1InPlaceTaskDispatcher.html" xlink:title="Runs all tasks on the current thread.">
<polygon fill="none" stroke="black" points="161,-6 161,-25 336,-25 336,-6 161,-6"/>
<text text-anchor="middle" x="248.5" y="-13" font-family="Helvetica,sans-Serif" font-size="10.00">llvm::orc::InPlaceTaskDispatcher</text>
</a>
</g>
</g>
<!-- Node1&#45;&gt;Node3 -->
<g id="edge2" class="edge">
<title>Node1&#45;&gt;Node3</title>
<path fill="none" stroke="midnightblue" d="M181.02,-61.61C198.14,-50.17 221.51,-34.55 235.77,-25.01"/>
<polygon fill="midnightblue" stroke="midnightblue" points="178.62,-59.01 172.25,-67.48 182.51,-64.83 178.62,-59.01"/>
</g>
</g>
</svg>
