<?xml version="1.0" encoding="UTF-8" standalone="no"?>
<!DOCTYPE svg PUBLIC "-//W3C//DTD SVG 1.1//EN"
 "http://www.w3.org/Graphics/SVG/1.1/DTD/svg11.dtd">
<!-- Generated by graphviz version 2.48.0 (0)
 -->
<!-- Title: llvm::TypeSwitch&lt; T, void &gt; Pages: 1 -->
<svg width="198pt" height="274pt"
 viewBox="0.00 0.00 197.50 274.00" xmlns="http://www.w3.org/2000/svg" xmlns:xlink="http://www.w3.org/1999/xlink">
<g id="graph0" class="graph" transform="scale(1 1) rotate(0) translate(4 270)">
<title>llvm::TypeSwitch&lt; T, void &gt;</title>
<!-- Node1 -->
<g id="node1" class="node">
<title>Node1</title>
<g id="a_node1"><a xlink:title="Specialization of TypeSwitch for void returning callables.">
<polygon fill="#bfbfbf" stroke="black" points="16,-0.5 16,-30.5 135,-30.5 135,-0.5 16,-0.5"/>
<text text-anchor="start" x="24" y="-18.5" font-family="Helvetica,sans-Serif" font-size="10.00">llvm::TypeSwitch&lt; T,</text>
<text text-anchor="middle" x="75.5" y="-7.5" font-family="Helvetica,sans-Serif" font-size="10.00"> void &gt;</text>
</a>
</g>
</g>
<!-- Node2 -->
<g id="node2" class="node">
<title>Node2</title>
<g id="a_node2"><a xlink:href="$classllvm_1_1detail_1_1TypeSwitchBase.html" xlink:title=" ">
<polygon fill="none" stroke="black" points="0,-68.5 0,-109.5 151,-109.5 151,-68.5 0,-68.5"/>
<text text-anchor="start" x="8" y="-97.5" font-family="Helvetica,sans-Serif" font-size="10.00">llvm::detail::TypeSwitch</text>
<text text-anchor="start" x="8" y="-86.5" font-family="Helvetica,sans-Serif" font-size="10.00">Base&lt; TypeSwitch&lt; T, void</text>
<text text-anchor="middle" x="75.5" y="-75.5" font-family="Helvetica,sans-Serif" font-size="10.00"> &gt;, T &gt;</text>
</a>
</g>
</g>
<!-- Node2&#45;&gt;Node1 -->
<g id="edge1" class="edge">
<title>Node2&#45;&gt;Node1</title>
<path fill="none" stroke="midnightblue" d="M75.5,-58.16C75.5,-48.69 75.5,-38.65 75.5,-30.8"/>
<polygon fill="midnightblue" stroke="midnightblue" points="72,-58.46 75.5,-68.46 79,-58.46 72,-58.46"/>
</g>
<!-- Node3 -->
<g id="node3" class="node">
<title>Node3</title>
<g id="a_node3"><a xlink:href="$classllvm_1_1detail_1_1TypeSwitchBase.html" xlink:title=" ">
<polygon fill="none" stroke="black" points="9,-168.5 9,-198.5 142,-198.5 142,-168.5 9,-168.5"/>
<text text-anchor="start" x="17" y="-186.5" font-family="Helvetica,sans-Serif" font-size="10.00">llvm::detail::TypeSwitch</text>
<text text-anchor="middle" x="75.5" y="-175.5" font-family="Helvetica,sans-Serif" font-size="10.00">Base&lt; DerivedT, T &gt;</text>
</a>
</g>
</g>
<!-- Node3&#45;&gt;Node2 -->
<g id="edge2" class="edge">
<title>Node3&#45;&gt;Node2</title>
<path fill="none" stroke="orange" stroke-dasharray="5,2" d="M75.5,-158.28C75.5,-143.14 75.5,-123.88 75.5,-109.68"/>
<polygon fill="orange" stroke="orange" points="72,-158.45 75.5,-168.45 79,-158.45 72,-158.45"/>
<text text-anchor="start" x="75.5" y="-142" font-family="Helvetica,sans-Serif" font-size="10.00"> &lt; TypeSwitch&lt; T, void</text>
<text text-anchor="middle" x="132.5" y="-131" font-family="Helvetica,sans-Serif" font-size="10.00"> &gt;, T &gt;</text>
</g>
<!-- Node4 -->
<g id="node4" class="node">
<title>Node4</title>
<g id="a_node4"><a xlink:title=" ">
<polygon fill="none" stroke="#bfbfbf" points="61,-246.5 61,-265.5 90,-265.5 90,-246.5 61,-246.5"/>
<text text-anchor="middle" x="75.5" y="-253.5" font-family="Helvetica,sans-Serif" font-size="10.00">T</text>
</a>
</g>
</g>
<!-- Node4&#45;&gt;Node3 -->
<g id="edge3" class="edge">
<title>Node4&#45;&gt;Node3</title>
<path fill="none" stroke="#9a32cd" stroke-dasharray="5,2" d="M75.5,-236.24C75.5,-224.41 75.5,-209.38 75.5,-198.58"/>
<polygon fill="#9a32cd" stroke="#9a32cd" points="72,-236.36 75.5,-246.36 79,-236.36 72,-236.36"/>
<text text-anchor="middle" x="91" y="-220" font-family="Helvetica,sans-Serif" font-size="10.00"> value</text>
</g>
</g>
</svg>
