<?xml version="1.0" encoding="UTF-8" standalone="no"?>
<!DOCTYPE svg PUBLIC "-//W3C//DTD SVG 1.1//EN"
 "http://www.w3.org/Graphics/SVG/1.1/DTD/svg11.dtd">
<!-- Generated by graphviz version 2.48.0 (0)
 -->
<!-- Title: llvm::DISubroutineType Pages: 1 -->
<svg width="138pt" height="308pt"
 viewBox="0.00 0.00 138.00 308.00" xmlns="http://www.w3.org/2000/svg" xmlns:xlink="http://www.w3.org/1999/xlink">
<g id="graph0" class="graph" transform="scale(1 1) rotate(0) translate(4 304)">
<title>llvm::DISubroutineType</title>
<!-- Node1 -->
<g id="node1" class="node">
<title>Node1</title>
<g id="a_node1"><a xlink:title="Type array for a subprogram.">
<polygon fill="#bfbfbf" stroke="black" points="0,-0.5 0,-19.5 130,-19.5 130,-0.5 0,-0.5"/>
<text text-anchor="middle" x="65" y="-7.5" font-family="Helvetica,sans-Serif" font-size="10.00">llvm::DISubroutineType</text>
</a>
</g>
</g>
<!-- Node2 -->
<g id="node2" class="node">
<title>Node2</title>
<g id="a_node2"><a xlink:href="$classllvm_1_1DIType.html" xlink:title="Base class for types.">
<polygon fill="none" stroke="black" points="26.5,-56.5 26.5,-75.5 103.5,-75.5 103.5,-56.5 26.5,-56.5"/>
<text text-anchor="middle" x="65" y="-63.5" font-family="Helvetica,sans-Serif" font-size="10.00">llvm::DIType</text>
</a>
</g>
</g>
<!-- Node2&#45;&gt;Node1 -->
<g id="edge1" class="edge">
<title>Node2&#45;&gt;Node1</title>
<path fill="none" stroke="midnightblue" d="M65,-45.8C65,-36.91 65,-26.78 65,-19.75"/>
<polygon fill="midnightblue" stroke="midnightblue" points="61.5,-46.08 65,-56.08 68.5,-46.08 61.5,-46.08"/>
</g>
<!-- Node3 -->
<g id="node3" class="node">
<title>Node3</title>
<g id="a_node3"><a xlink:href="$classllvm_1_1DIScope.html" xlink:title="Base class for scope&#45;like contexts.">
<polygon fill="none" stroke="black" points="23,-112.5 23,-131.5 107,-131.5 107,-112.5 23,-112.5"/>
<text text-anchor="middle" x="65" y="-119.5" font-family="Helvetica,sans-Serif" font-size="10.00">llvm::DIScope</text>
</a>
</g>
</g>
<!-- Node3&#45;&gt;Node2 -->
<g id="edge2" class="edge">
<title>Node3&#45;&gt;Node2</title>
<path fill="none" stroke="midnightblue" d="M65,-101.8C65,-92.91 65,-82.78 65,-75.75"/>
<polygon fill="midnightblue" stroke="midnightblue" points="61.5,-102.08 65,-112.08 68.5,-102.08 61.5,-102.08"/>
</g>
<!-- Node4 -->
<g id="node4" class="node">
<title>Node4</title>
<g id="a_node4"><a xlink:href="$classllvm_1_1DINode.html" xlink:title="Tagged DWARF&#45;like metadata node.">
<polygon fill="none" stroke="black" points="25,-168.5 25,-187.5 105,-187.5 105,-168.5 25,-168.5"/>
<text text-anchor="middle" x="65" y="-175.5" font-family="Helvetica,sans-Serif" font-size="10.00">llvm::DINode</text>
</a>
</g>
</g>
<!-- Node4&#45;&gt;Node3 -->
<g id="edge3" class="edge">
<title>Node4&#45;&gt;Node3</title>
<path fill="none" stroke="midnightblue" d="M65,-157.8C65,-148.91 65,-138.78 65,-131.75"/>
<polygon fill="midnightblue" stroke="midnightblue" points="61.5,-158.08 65,-168.08 68.5,-158.08 61.5,-158.08"/>
</g>
<!-- Node5 -->
<g id="node5" class="node">
<title>Node5</title>
<g id="a_node5"><a xlink:href="$classllvm_1_1MDNode.html" xlink:title="Metadata node.">
<polygon fill="none" stroke="black" points="22,-224.5 22,-243.5 108,-243.5 108,-224.5 22,-224.5"/>
<text text-anchor="middle" x="65" y="-231.5" font-family="Helvetica,sans-Serif" font-size="10.00">llvm::MDNode</text>
</a>
</g>
</g>
<!-- Node5&#45;&gt;Node4 -->
<g id="edge4" class="edge">
<title>Node5&#45;&gt;Node4</title>
<path fill="none" stroke="midnightblue" d="M65,-213.8C65,-204.91 65,-194.78 65,-187.75"/>
<polygon fill="midnightblue" stroke="midnightblue" points="61.5,-214.08 65,-224.08 68.5,-214.08 61.5,-214.08"/>
</g>
<!-- Node6 -->
<g id="node6" class="node">
<title>Node6</title>
<g id="a_node6"><a xlink:href="$classllvm_1_1Metadata.html" xlink:title="Root of the metadata hierarchy.">
<polygon fill="none" stroke="black" points="19.5,-280.5 19.5,-299.5 110.5,-299.5 110.5,-280.5 19.5,-280.5"/>
<text text-anchor="middle" x="65" y="-287.5" font-family="Helvetica,sans-Serif" font-size="10.00">llvm::Metadata</text>
</a>
</g>
</g>
<!-- Node6&#45;&gt;Node5 -->
<g id="edge5" class="edge">
<title>Node6&#45;&gt;Node5</title>
<path fill="none" stroke="midnightblue" d="M65,-269.8C65,-260.91 65,-250.78 65,-243.75"/>
<polygon fill="midnightblue" stroke="midnightblue" points="61.5,-270.08 65,-280.08 68.5,-270.08 61.5,-270.08"/>
</g>
</g>
</svg>
