<?xml version="1.0" encoding="UTF-8" standalone="no"?>
<!DOCTYPE svg PUBLIC "-//W3C//DTD SVG 1.1//EN"
 "http://www.w3.org/Graphics/SVG/1.1/DTD/svg11.dtd">
<!-- Generated by graphviz version 2.48.0 (0)
 -->
<!-- Title: llvm::DerivedUser Pages: 1 -->
<svg width="304pt" height="308pt"
 viewBox="0.00 0.00 304.00 308.00" xmlns="http://www.w3.org/2000/svg" xmlns:xlink="http://www.w3.org/1999/xlink">
<g id="graph0" class="graph" transform="scale(1 1) rotate(0) translate(4 304)">
<title>llvm::DerivedUser</title>
<!-- Node1 -->
<g id="node1" class="node">
<title>Node1</title>
<g id="a_node1"><a xlink:title="Extension point for the Value hierarchy.">
<polygon fill="#bfbfbf" stroke="black" points="64.5,-168.5 64.5,-187.5 169.5,-187.5 169.5,-168.5 64.5,-168.5"/>
<text text-anchor="middle" x="117" y="-175.5" font-family="Helvetica,sans-Serif" font-size="10.00">llvm::DerivedUser</text>
</a>
</g>
</g>
<!-- Node4 -->
<g id="node4" class="node">
<title>Node4</title>
<g id="a_node4"><a xlink:href="$classllvm_1_1MemoryAccess.html" xlink:title=" ">
<polygon fill="none" stroke="black" points="57.5,-112.5 57.5,-131.5 176.5,-131.5 176.5,-112.5 57.5,-112.5"/>
<text text-anchor="middle" x="117" y="-119.5" font-family="Helvetica,sans-Serif" font-size="10.00">llvm::MemoryAccess</text>
</a>
</g>
</g>
<!-- Node1&#45;&gt;Node4 -->
<g id="edge3" class="edge">
<title>Node1&#45;&gt;Node4</title>
<path fill="none" stroke="midnightblue" d="M117,-157.8C117,-148.91 117,-138.78 117,-131.75"/>
<polygon fill="midnightblue" stroke="midnightblue" points="113.5,-158.08 117,-168.08 120.5,-158.08 113.5,-158.08"/>
</g>
<!-- Node2 -->
<g id="node2" class="node">
<title>Node2</title>
<g id="a_node2"><a xlink:href="$classllvm_1_1User.html" xlink:title=" ">
<polygon fill="none" stroke="black" points="83.5,-224.5 83.5,-243.5 150.5,-243.5 150.5,-224.5 83.5,-224.5"/>
<text text-anchor="middle" x="117" y="-231.5" font-family="Helvetica,sans-Serif" font-size="10.00">llvm::User</text>
</a>
</g>
</g>
<!-- Node2&#45;&gt;Node1 -->
<g id="edge1" class="edge">
<title>Node2&#45;&gt;Node1</title>
<path fill="none" stroke="midnightblue" d="M117,-213.8C117,-204.91 117,-194.78 117,-187.75"/>
<polygon fill="midnightblue" stroke="midnightblue" points="113.5,-214.08 117,-224.08 120.5,-214.08 113.5,-214.08"/>
</g>
<!-- Node3 -->
<g id="node3" class="node">
<title>Node3</title>
<g id="a_node3"><a xlink:href="$classllvm_1_1Value.html" xlink:title="LLVM Value Representation.">
<polygon fill="none" stroke="black" points="81.5,-280.5 81.5,-299.5 152.5,-299.5 152.5,-280.5 81.5,-280.5"/>
<text text-anchor="middle" x="117" y="-287.5" font-family="Helvetica,sans-Serif" font-size="10.00">llvm::Value</text>
</a>
</g>
</g>
<!-- Node3&#45;&gt;Node2 -->
<g id="edge2" class="edge">
<title>Node3&#45;&gt;Node2</title>
<path fill="none" stroke="midnightblue" d="M117,-269.8C117,-260.91 117,-250.78 117,-243.75"/>
<polygon fill="midnightblue" stroke="midnightblue" points="113.5,-270.08 117,-280.08 120.5,-270.08 113.5,-270.08"/>
</g>
<!-- Node5 -->
<g id="node5" class="node">
<title>Node5</title>
<g id="a_node5"><a xlink:href="$classllvm_1_1MemoryPhi.html" xlink:title="Represents phi nodes for memory accesses.">
<polygon fill="none" stroke="black" points="0,-56.5 0,-75.5 100,-75.5 100,-56.5 0,-56.5"/>
<text text-anchor="middle" x="50" y="-63.5" font-family="Helvetica,sans-Serif" font-size="10.00">llvm::MemoryPhi</text>
</a>
</g>
</g>
<!-- Node4&#45;&gt;Node5 -->
<g id="edge4" class="edge">
<title>Node4&#45;&gt;Node5</title>
<path fill="none" stroke="midnightblue" d="M98.17,-105.82C86.16,-96.15 71.03,-83.95 60.96,-75.83"/>
<polygon fill="midnightblue" stroke="midnightblue" points="96.25,-108.77 106.24,-112.32 100.65,-103.32 96.25,-108.77"/>
</g>
<!-- Node6 -->
<g id="node6" class="node">
<title>Node6</title>
<g id="a_node6"><a xlink:href="$classllvm_1_1MemoryUseOrDef.html" xlink:title="Class that has the common methods + fields of memory uses/defs.">
<polygon fill="none" stroke="black" points="118,-56.5 118,-75.5 250,-75.5 250,-56.5 118,-56.5"/>
<text text-anchor="middle" x="184" y="-63.5" font-family="Helvetica,sans-Serif" font-size="10.00">llvm::MemoryUseOrDef</text>
</a>
</g>
</g>
<!-- Node4&#45;&gt;Node6 -->
<g id="edge5" class="edge">
<title>Node4&#45;&gt;Node6</title>
<path fill="none" stroke="midnightblue" d="M135.83,-105.82C147.84,-96.15 162.97,-83.95 173.04,-75.83"/>
<polygon fill="midnightblue" stroke="midnightblue" points="133.35,-103.32 127.76,-112.32 137.75,-108.77 133.35,-103.32"/>
</g>
<!-- Node7 -->
<g id="node7" class="node">
<title>Node7</title>
<g id="a_node7"><a xlink:href="$classllvm_1_1MemoryDef.html" xlink:title="Represents a read&#45;write access to memory, whether it is a must&#45;alias, or a may&#45;alias.">
<polygon fill="none" stroke="black" points="72,-0.5 72,-19.5 174,-19.5 174,-0.5 72,-0.5"/>
<text text-anchor="middle" x="123" y="-7.5" font-family="Helvetica,sans-Serif" font-size="10.00">llvm::MemoryDef</text>
</a>
</g>
</g>
<!-- Node6&#45;&gt;Node7 -->
<g id="edge6" class="edge">
<title>Node6&#45;&gt;Node7</title>
<path fill="none" stroke="midnightblue" d="M166.53,-49.54C155.66,-39.91 142.06,-27.87 132.98,-19.83"/>
<polygon fill="midnightblue" stroke="midnightblue" points="164.39,-52.32 174.2,-56.32 169.03,-47.07 164.39,-52.32"/>
</g>
<!-- Node8 -->
<g id="node8" class="node">
<title>Node8</title>
<g id="a_node8"><a xlink:href="$classllvm_1_1MemoryUse.html" xlink:title="Represents read&#45;only accesses to memory.">
<polygon fill="none" stroke="black" points="192,-0.5 192,-19.5 296,-19.5 296,-0.5 192,-0.5"/>
<text text-anchor="middle" x="244" y="-7.5" font-family="Helvetica,sans-Serif" font-size="10.00">llvm::MemoryUse</text>
</a>
</g>
</g>
<!-- Node6&#45;&gt;Node8 -->
<g id="edge7" class="edge">
<title>Node6&#45;&gt;Node8</title>
<path fill="none" stroke="midnightblue" d="M201.18,-49.54C211.88,-39.91 225.26,-27.87 234.18,-19.83"/>
<polygon fill="midnightblue" stroke="midnightblue" points="198.73,-47.03 193.64,-56.32 203.41,-52.24 198.73,-47.03"/>
</g>
</g>
</svg>
