<?xml version="1.0" encoding="UTF-8" standalone="no"?>
<!DOCTYPE svg PUBLIC "-//W3C//DTD SVG 1.1//EN"
 "http://www.w3.org/Graphics/SVG/1.1/DTD/svg11.dtd">
<!-- Generated by graphviz version 2.48.0 (0)
 -->
<!-- Title: llvm::codeview::UdtModSourceLineRecord Pages: 1 -->
<svg width="504pt" height="217pt"
 viewBox="0.00 0.00 504.00 217.00" xmlns="http://www.w3.org/2000/svg" xmlns:xlink="http://www.w3.org/1999/xlink">
<g id="graph0" class="graph" transform="scale(1 1) rotate(0) translate(4 213)">
<title>llvm::codeview::UdtModSourceLineRecord</title>
<!-- Node1 -->
<g id="node1" class="node">
<title>Node1</title>
<g id="a_node1"><a xlink:title=" ">
<polygon fill="#bfbfbf" stroke="black" points="146.5,-0.5 146.5,-30.5 313.5,-30.5 313.5,-0.5 146.5,-0.5"/>
<text text-anchor="start" x="154.5" y="-18.5" font-family="Helvetica,sans-Serif" font-size="10.00">llvm::codeview::UdtModSource</text>
<text text-anchor="middle" x="230" y="-7.5" font-family="Helvetica,sans-Serif" font-size="10.00">LineRecord</text>
</a>
</g>
</g>
<!-- Node2 -->
<g id="node2" class="node">
<title>Node2</title>
<g id="a_node2"><a xlink:href="$classllvm_1_1codeview_1_1TypeRecord.html" xlink:title=" ">
<polygon fill="none" stroke="black" points="0,-89.5 0,-108.5 152,-108.5 152,-89.5 0,-89.5"/>
<text text-anchor="middle" x="76" y="-96.5" font-family="Helvetica,sans-Serif" font-size="10.00">llvm::codeview::TypeRecord</text>
</a>
</g>
</g>
<!-- Node2&#45;&gt;Node1 -->
<g id="edge1" class="edge">
<title>Node2&#45;&gt;Node1</title>
<path fill="none" stroke="midnightblue" d="M101.39,-84.56C129.59,-69.64 174.9,-45.66 203.53,-30.51"/>
<polygon fill="midnightblue" stroke="midnightblue" points="99.39,-81.66 92.19,-89.43 102.67,-87.85 99.39,-81.66"/>
</g>
<!-- Node3 -->
<g id="node3" class="node">
<title>Node3</title>
<g id="a_node3"><a xlink:title=" ">
<polygon fill="none" stroke="#bfbfbf" points="28.5,-189.5 28.5,-208.5 123.5,-208.5 123.5,-189.5 28.5,-189.5"/>
<text text-anchor="middle" x="76" y="-196.5" font-family="Helvetica,sans-Serif" font-size="10.00">TypeRecordKind</text>
</a>
</g>
</g>
<!-- Node3&#45;&gt;Node2 -->
<g id="edge2" class="edge">
<title>Node3&#45;&gt;Node2</title>
<path fill="none" stroke="#9a32cd" stroke-dasharray="5,2" d="M76,-179.22C76,-157.95 76,-124.22 76,-108.54"/>
<polygon fill="#9a32cd" stroke="#9a32cd" points="72.5,-179.3 76,-189.3 79.5,-179.3 72.5,-179.3"/>
<text text-anchor="middle" x="88.5" y="-146.5" font-family="Helvetica,sans-Serif" font-size="10.00"> Kind</text>
</g>
<!-- Node4 -->
<g id="node4" class="node">
<title>Node4</title>
<g id="a_node4"><a xlink:title=" ">
<polygon fill="none" stroke="#bfbfbf" points="170,-89.5 170,-108.5 226,-108.5 226,-89.5 170,-89.5"/>
<text text-anchor="middle" x="198" y="-96.5" font-family="Helvetica,sans-Serif" font-size="10.00">uint16_t</text>
</a>
</g>
</g>
<!-- Node4&#45;&gt;Node1 -->
<g id="edge3" class="edge">
<title>Node4&#45;&gt;Node1</title>
<path fill="none" stroke="#9a32cd" stroke-dasharray="5,2" d="M200.07,-79.21C201.53,-69.86 203.98,-58.56 208,-49 210.69,-42.59 214.73,-36.13 218.62,-30.68"/>
<polygon fill="#9a32cd" stroke="#9a32cd" points="196.56,-79.01 198.73,-89.38 203.5,-79.92 196.56,-79.01"/>
<text text-anchor="middle" x="228" y="-57.5" font-family="Helvetica,sans-Serif" font-size="10.00"> Module</text>
</g>
<!-- Node5 -->
<g id="node5" class="node">
<title>Node5</title>
<g id="a_node5"><a xlink:title=" ">
<polygon fill="none" stroke="#bfbfbf" points="281,-189.5 281,-208.5 337,-208.5 337,-189.5 281,-189.5"/>
<text text-anchor="middle" x="309" y="-196.5" font-family="Helvetica,sans-Serif" font-size="10.00">uint32_t</text>
</a>
</g>
</g>
<!-- Node5&#45;&gt;Node1 -->
<g id="edge4" class="edge">
<title>Node5&#45;&gt;Node1</title>
<path fill="none" stroke="#9a32cd" stroke-dasharray="5,2" d="M301.18,-180.24C293.36,-162.33 281.07,-133.86 271,-109 260.28,-82.53 260.06,-74.89 248,-49 245.11,-42.8 241.53,-36.17 238.32,-30.51"/>
<polygon fill="#9a32cd" stroke="#9a32cd" points="298,-181.7 305.22,-189.45 304.41,-178.89 298,-181.7"/>
<text text-anchor="middle" x="302.5" y="-96.5" font-family="Helvetica,sans-Serif" font-size="10.00"> LineNumber</text>
</g>
<!-- Node6 -->
<g id="node6" class="node">
<title>Node6</title>
<g id="a_node6"><a xlink:href="$classllvm_1_1codeview_1_1TypeIndex.html" xlink:title="A 32&#45;bit type reference.">
<polygon fill="none" stroke="black" points="343,-89.5 343,-108.5 489,-108.5 489,-89.5 343,-89.5"/>
<text text-anchor="middle" x="416" y="-96.5" font-family="Helvetica,sans-Serif" font-size="10.00">llvm::codeview::TypeIndex</text>
</a>
</g>
</g>
<!-- Node5&#45;&gt;Node6 -->
<g id="edge6" class="edge">
<title>Node5&#45;&gt;Node6</title>
<path fill="none" stroke="#9a32cd" stroke-dasharray="5,2" d="M326.08,-182.35C348.94,-161.42 388.69,-125.01 406.68,-108.54"/>
<polygon fill="#9a32cd" stroke="#9a32cd" points="323.51,-179.97 318.5,-189.3 328.23,-185.13 323.51,-179.97"/>
<text text-anchor="middle" x="440" y="-163" font-family="Helvetica,sans-Serif" font-size="10.00"> DecoratedItemIdMask</text>
<text text-anchor="middle" x="440" y="-152" font-family="Helvetica,sans-Serif" font-size="10.00">FirstNonSimpleIndex</text>
<text text-anchor="middle" x="440" y="-141" font-family="Helvetica,sans-Serif" font-size="10.00">SimpleKindMask</text>
<text text-anchor="middle" x="440" y="-130" font-family="Helvetica,sans-Serif" font-size="10.00">SimpleModeMask</text>
</g>
<!-- Node6&#45;&gt;Node1 -->
<g id="edge5" class="edge">
<title>Node6&#45;&gt;Node1</title>
<path fill="none" stroke="#9a32cd" stroke-dasharray="5,2" d="M387.09,-85.33C353.19,-70.48 297.15,-45.92 261.98,-30.51"/>
<polygon fill="#9a32cd" stroke="#9a32cd" points="385.88,-88.62 396.45,-89.43 388.69,-82.21 385.88,-88.62"/>
<text text-anchor="middle" x="377" y="-63" font-family="Helvetica,sans-Serif" font-size="10.00"> SourceFile</text>
<text text-anchor="middle" x="377" y="-52" font-family="Helvetica,sans-Serif" font-size="10.00">UDT</text>
</g>
</g>
</svg>
