<?xml version="1.0" encoding="UTF-8" standalone="no"?>
<!DOCTYPE svg PUBLIC "-//W3C//DTD SVG 1.1//EN"
 "http://www.w3.org/Graphics/SVG/1.1/DTD/svg11.dtd">
<!-- Generated by graphviz version 2.48.0 (0)
 -->
<!-- Title: llvm::dwarf::CIE Pages: 1 -->
<svg width="392pt" height="230pt"
 viewBox="0.00 0.00 392.00 230.00" xmlns="http://www.w3.org/2000/svg" xmlns:xlink="http://www.w3.org/1999/xlink">
<g id="graph0" class="graph" transform="scale(1 1) rotate(0) translate(4 226)">
<title>llvm::dwarf::CIE</title>
<!-- Node1 -->
<g id="node1" class="node">
<title>Node1</title>
<g id="a_node1"><a xlink:title="DWARF Common Information Entry (CIE)">
<polygon fill="#bfbfbf" stroke="black" points="89.5,-0.5 89.5,-19.5 182.5,-19.5 182.5,-0.5 89.5,-0.5"/>
<text text-anchor="middle" x="136" y="-7.5" font-family="Helvetica,sans-Serif" font-size="10.00">llvm::dwarf::CIE</text>
</a>
</g>
</g>
<!-- Node2 -->
<g id="node2" class="node">
<title>Node2</title>
<g id="a_node2"><a xlink:href="$classllvm_1_1dwarf_1_1FrameEntry.html" xlink:title="An entry in either debug_frame or eh_frame.">
<polygon fill="none" stroke="black" points="69,-57.5 69,-76.5 203,-76.5 203,-57.5 69,-57.5"/>
<text text-anchor="middle" x="136" y="-64.5" font-family="Helvetica,sans-Serif" font-size="10.00">llvm::dwarf::FrameEntry</text>
</a>
</g>
</g>
<!-- Node2&#45;&gt;Node1 -->
<g id="edge1" class="edge">
<title>Node2&#45;&gt;Node1</title>
<path fill="none" stroke="midnightblue" d="M136,-47.12C136,-37.82 136,-27.06 136,-19.71"/>
<polygon fill="midnightblue" stroke="midnightblue" points="132.5,-47.41 136,-57.41 139.5,-47.41 132.5,-47.41"/>
</g>
<!-- Node3 -->
<g id="node3" class="node">
<title>Node3</title>
<g id="a_node3"><a xlink:href="$classuint64__t.html" xlink:title=" ">
<polygon fill="none" stroke="black" points="0,-135.5 0,-154.5 56,-154.5 56,-135.5 0,-135.5"/>
<text text-anchor="middle" x="28" y="-142.5" font-family="Helvetica,sans-Serif" font-size="10.00">uint64_t</text>
</a>
</g>
</g>
<!-- Node3&#45;&gt;Node2 -->
<g id="edge2" class="edge">
<title>Node3&#45;&gt;Node2</title>
<path fill="none" stroke="#9a32cd" stroke-dasharray="5,2" d="M32.22,-125.72C35.48,-115.4 41,-103 50,-95 59.71,-86.37 72.16,-80.5 84.56,-76.51"/>
<polygon fill="#9a32cd" stroke="#9a32cd" points="28.82,-124.89 29.59,-135.46 35.58,-126.71 28.82,-124.89"/>
<text text-anchor="middle" x="68.5" y="-109" font-family="Helvetica,sans-Serif" font-size="10.00"> Length</text>
<text text-anchor="middle" x="68.5" y="-98" font-family="Helvetica,sans-Serif" font-size="10.00">Offset</text>
</g>
<!-- Node4 -->
<g id="node4" class="node">
<title>Node4</title>
<g id="a_node4"><a xlink:href="$classbool.html" xlink:title=" ">
<polygon fill="none" stroke="black" points="74,-135.5 74,-154.5 112,-154.5 112,-135.5 74,-135.5"/>
<text text-anchor="middle" x="93" y="-142.5" font-family="Helvetica,sans-Serif" font-size="10.00">bool</text>
</a>
</g>
</g>
<!-- Node4&#45;&gt;Node2 -->
<g id="edge3" class="edge">
<title>Node4&#45;&gt;Node2</title>
<path fill="none" stroke="#9a32cd" stroke-dasharray="5,2" d="M90.86,-125.24C90.64,-115.61 91.79,-104.03 97,-95 101.53,-87.15 109.36,-81.07 116.83,-76.67"/>
<polygon fill="#9a32cd" stroke="#9a32cd" points="87.39,-125.66 91.6,-135.38 94.37,-125.15 87.39,-125.66"/>
<text text-anchor="middle" x="127" y="-103.5" font-family="Helvetica,sans-Serif" font-size="10.00"> IsDWARF64</text>
</g>
<!-- Node5 -->
<g id="node5" class="node">
<title>Node5</title>
<g id="a_node5"><a xlink:title=" ">
<polygon fill="none" stroke="#bfbfbf" points="130,-135.5 130,-154.5 228,-154.5 228,-135.5 130,-135.5"/>
<text text-anchor="middle" x="179" y="-142.5" font-family="Helvetica,sans-Serif" font-size="10.00">const FrameKind</text>
</a>
</g>
</g>
<!-- Node5&#45;&gt;Node2 -->
<g id="edge4" class="edge">
<title>Node5&#45;&gt;Node2</title>
<path fill="none" stroke="#9a32cd" stroke-dasharray="5,2" d="M172.05,-125.81C168.14,-116.35 162.87,-104.75 157,-95 153.08,-88.49 147.83,-81.74 143.56,-76.61"/>
<polygon fill="#9a32cd" stroke="#9a32cd" points="168.91,-127.37 175.85,-135.37 175.41,-124.78 168.91,-127.37"/>
<text text-anchor="middle" x="179.5" y="-103.5" font-family="Helvetica,sans-Serif" font-size="10.00"> Kind</text>
</g>
<!-- Node6 -->
<g id="node6" class="node">
<title>Node6</title>
<g id="a_node6"><a xlink:href="$classllvm_1_1dwarf_1_1CFIProgram.html" xlink:title="Represent a sequence of Call Frame Information instructions that, when read in order,...">
<polygon fill="none" stroke="black" points="246,-135.5 246,-154.5 380,-154.5 380,-135.5 246,-135.5"/>
<text text-anchor="middle" x="313" y="-142.5" font-family="Helvetica,sans-Serif" font-size="10.00">llvm::dwarf::CFIProgram</text>
</a>
</g>
</g>
<!-- Node6&#45;&gt;Node2 -->
<g id="edge5" class="edge">
<title>Node6&#45;&gt;Node2</title>
<path fill="none" stroke="#9a32cd" stroke-dasharray="5,2" d="M283.52,-131.34C247.35,-115.81 187,-89.9 155.89,-76.54"/>
<polygon fill="#9a32cd" stroke="#9a32cd" points="282.47,-134.7 293.04,-135.43 285.23,-128.27 282.47,-134.7"/>
<text text-anchor="middle" x="257.5" y="-103.5" font-family="Helvetica,sans-Serif" font-size="10.00"> CFIs</text>
</g>
<!-- Node7 -->
<g id="node7" class="node">
<title>Node7</title>
<g id="a_node7"><a xlink:href="$classsize__t.html" xlink:title=" ">
<polygon fill="none" stroke="black" points="290.5,-202.5 290.5,-221.5 335.5,-221.5 335.5,-202.5 290.5,-202.5"/>
<text text-anchor="middle" x="313" y="-209.5" font-family="Helvetica,sans-Serif" font-size="10.00">size_t</text>
</a>
</g>
</g>
<!-- Node7&#45;&gt;Node6 -->
<g id="edge6" class="edge">
<title>Node7&#45;&gt;Node6</title>
<path fill="none" stroke="#9a32cd" stroke-dasharray="5,2" d="M313,-192.04C313,-179.67 313,-164.12 313,-154.63"/>
<polygon fill="#9a32cd" stroke="#9a32cd" points="309.5,-192.23 313,-202.23 316.5,-192.23 309.5,-192.23"/>
<text text-anchor="middle" x="348.5" y="-176" font-family="Helvetica,sans-Serif" font-size="10.00"> MaxOperands</text>
</g>
</g>
</svg>
