<?xml version="1.0" encoding="UTF-8" standalone="no"?>
<!DOCTYPE svg PUBLIC "-//W3C//DTD SVG 1.1//EN"
 "http://www.w3.org/Graphics/SVG/1.1/DTD/svg11.dtd">
<!-- Generated by graphviz version 2.48.0 (0)
 -->
<!-- Title: include/llvm/DebugInfo/PDB/DIA/DIAEnumDebugStreams.h Pages: 1 -->
<svg width="2106pt" height="397pt"
 viewBox="0.00 0.00 2106.00 397.00" xmlns="http://www.w3.org/2000/svg" xmlns:xlink="http://www.w3.org/1999/xlink">
<g id="graph0" class="graph" transform="scale(1 1) rotate(0) translate(4 393)">
<title>include/llvm/DebugInfo/PDB/DIA/DIAEnumDebugStreams.h</title>
<!-- Node1 -->
<g id="node1" class="node">
<title>Node1</title>
<g id="a_node1"><a xlink:title=" ">
<polygon fill="#bfbfbf" stroke="black" points="975.5,-358.5 975.5,-388.5 1164.5,-388.5 1164.5,-358.5 975.5,-358.5"/>
<text text-anchor="start" x="983.5" y="-376.5" font-family="Helvetica,sans-Serif" font-size="10.00">include/llvm/DebugInfo</text>
<text text-anchor="middle" x="1070" y="-365.5" font-family="Helvetica,sans-Serif" font-size="10.00">/PDB/DIA/DIAEnumDebugStreams.h</text>
</a>
</g>
</g>
<!-- Node2 -->
<g id="node2" class="node">
<title>Node2</title>
<g id="a_node2"><a xlink:href="DIASupport_8h.html" target="_top" xlink:title=" ">
<polygon fill="none" stroke="black" points="195,-297 195,-316 275,-316 275,-297 195,-297"/>
<text text-anchor="middle" x="235" y="-304" font-family="Helvetica,sans-Serif" font-size="10.00">DIASupport.h</text>
</a>
</g>
</g>
<!-- Node1&#45;&gt;Node2 -->
<g id="edge1" class="edge">
<title>Node1&#45;&gt;Node2</title>
<path fill="none" stroke="midnightblue" d="M975.43,-365.14C798.16,-351.34 421.5,-322.02 285.4,-311.42"/>
<polygon fill="midnightblue" stroke="midnightblue" points="285.5,-307.92 275.26,-310.63 284.96,-314.9 285.5,-307.92"/>
</g>
<!-- Node8 -->
<g id="node8" class="node">
<title>Node8</title>
<g id="a_node8"><a xlink:href="IPDBDataStream_8h.html" target="_top" xlink:title=" ">
<polygon fill="none" stroke="black" points="1012.5,-291.5 1012.5,-321.5 1127.5,-321.5 1127.5,-291.5 1012.5,-291.5"/>
<text text-anchor="start" x="1020.5" y="-309.5" font-family="Helvetica,sans-Serif" font-size="10.00">llvm/DebugInfo/PDB</text>
<text text-anchor="middle" x="1070" y="-298.5" font-family="Helvetica,sans-Serif" font-size="10.00">/IPDBDataStream.h</text>
</a>
</g>
</g>
<!-- Node1&#45;&gt;Node8 -->
<g id="edge7" class="edge">
<title>Node1&#45;&gt;Node8</title>
<path fill="none" stroke="midnightblue" d="M1070,-358.4C1070,-350.64 1070,-340.81 1070,-331.86"/>
<polygon fill="midnightblue" stroke="midnightblue" points="1073.5,-331.58 1070,-321.58 1066.5,-331.58 1073.5,-331.58"/>
</g>
<!-- Node42 -->
<g id="node42" class="node">
<title>Node42</title>
<g id="a_node42"><a xlink:href="IPDBEnumChildren_8h.html" target="_top" xlink:title=" ">
<polygon fill="none" stroke="black" points="1677,-168.5 1677,-198.5 1797,-198.5 1797,-168.5 1677,-168.5"/>
<text text-anchor="start" x="1685" y="-186.5" font-family="Helvetica,sans-Serif" font-size="10.00">llvm/DebugInfo/PDB</text>
<text text-anchor="middle" x="1737" y="-175.5" font-family="Helvetica,sans-Serif" font-size="10.00">/IPDBEnumChildren.h</text>
</a>
</g>
</g>
<!-- Node1&#45;&gt;Node42 -->
<g id="edge60" class="edge">
<title>Node1&#45;&gt;Node42</title>
<path fill="none" stroke="midnightblue" d="M1119.86,-358.45C1240.42,-324.47 1547.32,-237.96 1677.34,-201.31"/>
<polygon fill="midnightblue" stroke="midnightblue" points="1678.46,-204.64 1687.14,-198.55 1676.57,-197.9 1678.46,-204.64"/>
</g>
<!-- Node3 -->
<g id="node3" class="node">
<title>Node3</title>
<g id="a_node3"><a xlink:title=" ">
<polygon fill="none" stroke="#bfbfbf" points="0,-235.5 0,-254.5 62,-254.5 62,-235.5 0,-235.5"/>
<text text-anchor="middle" x="31" y="-242.5" font-family="Helvetica,sans-Serif" font-size="10.00">atlbase.h</text>
</a>
</g>
</g>
<!-- Node2&#45;&gt;Node3 -->
<g id="edge2" class="edge">
<title>Node2&#45;&gt;Node3</title>
<path fill="none" stroke="midnightblue" d="M205.77,-296.98C170.1,-286.57 109.64,-268.94 70.02,-257.38"/>
<polygon fill="midnightblue" stroke="midnightblue" points="70.75,-253.95 60.17,-254.51 68.79,-260.67 70.75,-253.95"/>
</g>
<!-- Node4 -->
<g id="node4" class="node">
<title>Node4</title>
<g id="a_node4"><a xlink:title=" ">
<polygon fill="none" stroke="#bfbfbf" points="80,-235.5 80,-254.5 148,-254.5 148,-235.5 80,-235.5"/>
<text text-anchor="middle" x="114" y="-242.5" font-family="Helvetica,sans-Serif" font-size="10.00">windows.h</text>
</a>
</g>
</g>
<!-- Node2&#45;&gt;Node4 -->
<g id="edge3" class="edge">
<title>Node2&#45;&gt;Node4</title>
<path fill="none" stroke="midnightblue" d="M217.66,-296.98C197.45,-287.03 163.81,-270.49 140.36,-258.96"/>
<polygon fill="midnightblue" stroke="midnightblue" points="141.82,-255.78 131.3,-254.51 138.73,-262.06 141.82,-255.78"/>
</g>
<!-- Node5 -->
<g id="node5" class="node">
<title>Node5</title>
<g id="a_node5"><a xlink:title=" ">
<polygon fill="none" stroke="#bfbfbf" points="166.5,-235.5 166.5,-254.5 229.5,-254.5 229.5,-235.5 166.5,-235.5"/>
<text text-anchor="middle" x="198" y="-242.5" font-family="Helvetica,sans-Serif" font-size="10.00">cvconst.h</text>
</a>
</g>
</g>
<!-- Node2&#45;&gt;Node5 -->
<g id="edge4" class="edge">
<title>Node2&#45;&gt;Node5</title>
<path fill="none" stroke="midnightblue" d="M229.7,-296.98C224.26,-288.23 215.64,-274.37 208.76,-263.31"/>
<polygon fill="midnightblue" stroke="midnightblue" points="211.54,-261.15 203.29,-254.51 205.6,-264.85 211.54,-261.15"/>
</g>
<!-- Node6 -->
<g id="node6" class="node">
<title>Node6</title>
<g id="a_node6"><a xlink:title=" ">
<polygon fill="none" stroke="#bfbfbf" points="247.5,-235.5 247.5,-254.5 294.5,-254.5 294.5,-235.5 247.5,-235.5"/>
<text text-anchor="middle" x="271" y="-242.5" font-family="Helvetica,sans-Serif" font-size="10.00">dia2.h</text>
</a>
</g>
</g>
<!-- Node2&#45;&gt;Node6 -->
<g id="edge5" class="edge">
<title>Node2&#45;&gt;Node6</title>
<path fill="none" stroke="midnightblue" d="M240.16,-296.98C245.45,-288.23 253.84,-274.37 260.53,-263.31"/>
<polygon fill="midnightblue" stroke="midnightblue" points="263.67,-264.88 265.85,-254.51 257.68,-261.25 263.67,-264.88"/>
</g>
<!-- Node7 -->
<g id="node7" class="node">
<title>Node7</title>
<g id="a_node7"><a xlink:title=" ">
<polygon fill="none" stroke="#bfbfbf" points="312.5,-235.5 312.5,-254.5 383.5,-254.5 383.5,-235.5 312.5,-235.5"/>
<text text-anchor="middle" x="348" y="-242.5" font-family="Helvetica,sans-Serif" font-size="10.00">diacreate.h</text>
</a>
</g>
</g>
<!-- Node2&#45;&gt;Node7 -->
<g id="edge6" class="edge">
<title>Node2&#45;&gt;Node7</title>
<path fill="none" stroke="midnightblue" d="M251.19,-296.98C269.9,-287.12 300.92,-270.79 322.8,-259.27"/>
<polygon fill="midnightblue" stroke="midnightblue" points="324.62,-262.27 331.84,-254.51 321.36,-256.07 324.62,-262.27"/>
</g>
<!-- Node9 -->
<g id="node9" class="node">
<title>Node9</title>
<g id="a_node9"><a xlink:href="Optional_8h.html" target="_top" xlink:title="This file provides Optional, a template class modeled in the spirit of OCaml&#39;s &#39;opt&#39; variant.">
<polygon fill="none" stroke="black" points="903.5,-235.5 903.5,-254.5 1018.5,-254.5 1018.5,-235.5 903.5,-235.5"/>
<text text-anchor="middle" x="961" y="-242.5" font-family="Helvetica,sans-Serif" font-size="10.00">llvm/ADT/Optional.h</text>
</a>
</g>
</g>
<!-- Node8&#45;&gt;Node9 -->
<g id="edge8" class="edge">
<title>Node8&#45;&gt;Node9</title>
<path fill="none" stroke="midnightblue" d="M1044.17,-291.4C1026.53,-281.77 1003.3,-269.09 985.87,-259.58"/>
<polygon fill="midnightblue" stroke="midnightblue" points="987.31,-256.38 976.86,-254.66 983.96,-262.52 987.31,-256.38"/>
</g>
<!-- Node22 -->
<g id="node22" class="node">
<title>Node22</title>
<g id="a_node22"><a xlink:title=" ">
<polygon fill="none" stroke="#bfbfbf" points="2048,-56.5 2048,-75.5 2098,-75.5 2098,-56.5 2048,-56.5"/>
<text text-anchor="middle" x="2073" y="-63.5" font-family="Helvetica,sans-Serif" font-size="10.00">cstdint</text>
</a>
</g>
</g>
<!-- Node8&#45;&gt;Node22 -->
<g id="edge58" class="edge">
<title>Node8&#45;&gt;Node22</title>
<path fill="none" stroke="midnightblue" d="M1127.59,-299.18C1252.07,-285.08 1555.18,-248.37 1806,-199 1926.47,-175.29 1998.44,-228.77 2074,-132 2084.18,-118.96 2082.37,-99.53 2078.97,-85.31"/>
<polygon fill="midnightblue" stroke="midnightblue" points="2082.32,-84.31 2076.23,-75.65 2075.59,-86.22 2082.32,-84.31"/>
</g>
<!-- Node30 -->
<g id="node30" class="node">
<title>Node30</title>
<g id="a_node30"><a xlink:title=" ">
<polygon fill="none" stroke="#bfbfbf" points="218,-112.5 218,-131.5 262,-131.5 262,-112.5 218,-112.5"/>
<text text-anchor="middle" x="240" y="-119.5" font-family="Helvetica,sans-Serif" font-size="10.00">string</text>
</a>
</g>
</g>
<!-- Node8&#45;&gt;Node30 -->
<g id="edge59" class="edge">
<title>Node8&#45;&gt;Node30</title>
<path fill="none" stroke="midnightblue" d="M1012.44,-296.92C908.43,-280.96 682.53,-244.18 495,-199 413.66,-179.4 319.78,-149.5 271.81,-133.67"/>
<polygon fill="midnightblue" stroke="midnightblue" points="272.89,-130.34 262.3,-130.52 270.69,-136.99 272.89,-130.34"/>
</g>
<!-- Node35 -->
<g id="node35" class="node">
<title>Node35</title>
<g id="a_node35"><a xlink:href="SmallVector_8h.html" target="_top" xlink:title=" ">
<polygon fill="none" stroke="black" points="1253.5,-174 1253.5,-193 1384.5,-193 1384.5,-174 1253.5,-174"/>
<text text-anchor="middle" x="1319" y="-181" font-family="Helvetica,sans-Serif" font-size="10.00">llvm/ADT/SmallVector.h</text>
</a>
</g>
</g>
<!-- Node8&#45;&gt;Node35 -->
<g id="edge42" class="edge">
<title>Node8&#45;&gt;Node35</title>
<path fill="none" stroke="midnightblue" d="M1099.05,-291.38C1147.68,-267.75 1244.85,-220.53 1292.04,-197.6"/>
<polygon fill="midnightblue" stroke="midnightblue" points="1293.85,-200.61 1301.32,-193.09 1290.79,-194.31 1293.85,-200.61"/>
</g>
<!-- Node10 -->
<g id="node10" class="node">
<title>Node10</title>
<g id="a_node10"><a xlink:href="Hashing_8h.html" target="_top" xlink:title=" ">
<polygon fill="none" stroke="black" points="819.5,-174 819.5,-193 932.5,-193 932.5,-174 819.5,-174"/>
<text text-anchor="middle" x="876" y="-181" font-family="Helvetica,sans-Serif" font-size="10.00">llvm/ADT/Hashing.h</text>
</a>
</g>
</g>
<!-- Node9&#45;&gt;Node10 -->
<g id="edge9" class="edge">
<title>Node9&#45;&gt;Node10</title>
<path fill="none" stroke="midnightblue" d="M948.82,-235.48C935.19,-225.93 912.87,-210.31 896.53,-198.87"/>
<polygon fill="midnightblue" stroke="midnightblue" points="898.36,-195.88 888.16,-193.01 894.34,-201.61 898.36,-195.88"/>
</g>
<!-- Node17 -->
<g id="node17" class="node">
<title>Node17</title>
<g id="a_node17"><a xlink:href="Compiler_8h.html" target="_top" xlink:title=" ">
<polygon fill="none" stroke="black" points="533,-56.5 533,-75.5 667,-75.5 667,-56.5 533,-56.5"/>
<text text-anchor="middle" x="600" y="-63.5" font-family="Helvetica,sans-Serif" font-size="10.00">llvm/Support/Compiler.h</text>
</a>
</g>
</g>
<!-- Node9&#45;&gt;Node17 -->
<g id="edge37" class="edge">
<title>Node9&#45;&gt;Node17</title>
<path fill="none" stroke="midnightblue" d="M903.47,-240.44C811.12,-234.19 634.16,-219.92 575,-199 522.45,-180.42 495.89,-180.81 469,-132 453.14,-103.22 486.81,-86.92 523.97,-77.85"/>
<polygon fill="midnightblue" stroke="midnightblue" points="525,-81.2 533.99,-75.58 523.46,-74.38 525,-81.2"/>
</g>
<!-- Node25 -->
<g id="node25" class="node">
<title>Node25</title>
<g id="a_node25"><a xlink:href="type__traits_8h.html" target="_top" xlink:title=" ">
<polygon fill="none" stroke="black" points="692.5,-112.5 692.5,-131.5 835.5,-131.5 835.5,-112.5 692.5,-112.5"/>
<text text-anchor="middle" x="764" y="-119.5" font-family="Helvetica,sans-Serif" font-size="10.00">llvm/Support/type_traits.h</text>
</a>
</g>
</g>
<!-- Node9&#45;&gt;Node25 -->
<g id="edge38" class="edge">
<title>Node9&#45;&gt;Node25</title>
<path fill="none" stroke="midnightblue" d="M903.46,-236.73C873.49,-230.62 837.64,-219.43 811,-199 791.53,-184.07 778.18,-158.57 770.81,-141.27"/>
<polygon fill="midnightblue" stroke="midnightblue" points="773.96,-139.71 767,-131.72 767.46,-142.31 773.96,-139.71"/>
</g>
<!-- Node26 -->
<g id="node26" class="node">
<title>Node26</title>
<g id="a_node26"><a xlink:title=" ">
<polygon fill="none" stroke="#bfbfbf" points="919.5,-56.5 919.5,-75.5 964.5,-75.5 964.5,-56.5 919.5,-56.5"/>
<text text-anchor="middle" x="942" y="-63.5" font-family="Helvetica,sans-Serif" font-size="10.00">utility</text>
</a>
</g>
</g>
<!-- Node9&#45;&gt;Node26 -->
<g id="edge41" class="edge">
<title>Node9&#45;&gt;Node26</title>
<path fill="none" stroke="midnightblue" d="M960.08,-235.46C957.18,-208.43 948.14,-124.24 944.05,-86.11"/>
<polygon fill="midnightblue" stroke="midnightblue" points="947.5,-85.44 942.95,-75.87 940.54,-86.18 947.5,-85.44"/>
</g>
<!-- Node28 -->
<g id="node28" class="node">
<title>Node28</title>
<g id="a_node28"><a xlink:title=" ">
<polygon fill="none" stroke="#bfbfbf" points="1195,-112.5 1195,-131.5 1247,-131.5 1247,-112.5 1195,-112.5"/>
<text text-anchor="middle" x="1221" y="-119.5" font-family="Helvetica,sans-Serif" font-size="10.00">cassert</text>
</a>
</g>
</g>
<!-- Node9&#45;&gt;Node28 -->
<g id="edge39" class="edge">
<title>Node9&#45;&gt;Node28</title>
<path fill="none" stroke="midnightblue" d="M1013.89,-235.48C1047.56,-228.68 1091.37,-217.2 1127,-199 1157.95,-183.19 1188.2,-156.02 1205.7,-138.81"/>
<polygon fill="midnightblue" stroke="midnightblue" points="1208.22,-141.24 1212.8,-131.68 1203.26,-136.3 1208.22,-141.24"/>
</g>
<!-- Node32 -->
<g id="node32" class="node">
<title>Node32</title>
<g id="a_node32"><a xlink:href="None_8h.html" target="_top" xlink:title="This file provides None, an enumerator for use in implicit constructors of various (usually templated...">
<polygon fill="none" stroke="black" points="989.5,-174 989.5,-193 1088.5,-193 1088.5,-174 989.5,-174"/>
<text text-anchor="middle" x="1039" y="-181" font-family="Helvetica,sans-Serif" font-size="10.00">llvm/ADT/None.h</text>
</a>
</g>
</g>
<!-- Node9&#45;&gt;Node32 -->
<g id="edge34" class="edge">
<title>Node9&#45;&gt;Node32</title>
<path fill="none" stroke="midnightblue" d="M972.18,-235.48C984.57,-226.02 1004.79,-210.6 1019.75,-199.19"/>
<polygon fill="midnightblue" stroke="midnightblue" points="1022.02,-201.86 1027.85,-193.01 1017.77,-196.29 1022.02,-201.86"/>
</g>
<!-- Node33 -->
<g id="node33" class="node">
<title>Node33</title>
<g id="a_node33"><a xlink:href="STLForwardCompat_8h.html" target="_top" xlink:title="This file contains library features backported from future STL versions.">
<polygon fill="none" stroke="black" points="584,-174 584,-193 752,-193 752,-174 584,-174"/>
<text text-anchor="middle" x="668" y="-181" font-family="Helvetica,sans-Serif" font-size="10.00">llvm/ADT/STLForwardCompat.h</text>
</a>
</g>
</g>
<!-- Node9&#45;&gt;Node33 -->
<g id="edge35" class="edge">
<title>Node9&#45;&gt;Node33</title>
<path fill="none" stroke="midnightblue" d="M919.02,-235.48C866.48,-224.8 776.5,-206.53 719.75,-195.01"/>
<polygon fill="midnightblue" stroke="midnightblue" points="720.4,-191.57 709.9,-193.01 719.01,-198.43 720.4,-191.57"/>
</g>
<!-- Node34 -->
<g id="node34" class="node">
<title>Node34</title>
<g id="a_node34"><a xlink:title=" ">
<polygon fill="none" stroke="#bfbfbf" points="1139.5,-112.5 1139.5,-131.5 1176.5,-131.5 1176.5,-112.5 1139.5,-112.5"/>
<text text-anchor="middle" x="1158" y="-119.5" font-family="Helvetica,sans-Serif" font-size="10.00">new</text>
</a>
</g>
</g>
<!-- Node9&#45;&gt;Node34 -->
<g id="edge40" class="edge">
<title>Node9&#45;&gt;Node34</title>
<path fill="none" stroke="midnightblue" d="M1008.83,-235.5C1036.68,-228.87 1071.43,-217.57 1098,-199 1120,-183.63 1137.9,-157.87 1148.25,-140.66"/>
<polygon fill="midnightblue" stroke="midnightblue" points="1151.48,-142.06 1153.45,-131.65 1145.42,-138.56 1151.48,-142.06"/>
</g>
<!-- Node11 -->
<g id="node11" class="node">
<title>Node11</title>
<g id="a_node11"><a xlink:href="llvm_2Support_2DataTypes_8h.html" target="_top" xlink:title=" ">
<polygon fill="none" stroke="black" points="280,-112.5 280,-131.5 422,-131.5 422,-112.5 280,-112.5"/>
<text text-anchor="middle" x="351" y="-119.5" font-family="Helvetica,sans-Serif" font-size="10.00">llvm/Support/DataTypes.h</text>
</a>
</g>
</g>
<!-- Node10&#45;&gt;Node11 -->
<g id="edge10" class="edge">
<title>Node10&#45;&gt;Node11</title>
<path fill="none" stroke="midnightblue" d="M819.28,-175.16C800.72,-172.81 779.99,-170.24 761,-168 646.99,-154.56 514.99,-140.3 432.24,-131.53"/>
<polygon fill="midnightblue" stroke="midnightblue" points="432.46,-128.03 422.15,-130.46 431.72,-134.99 432.46,-128.03"/>
</g>
<!-- Node16 -->
<g id="node16" class="node">
<title>Node16</title>
<g id="a_node16"><a xlink:href="llvm_2Support_2ErrorHandling_8h.html" target="_top" xlink:title=" ">
<polygon fill="none" stroke="black" points="478,-112.5 478,-131.5 636,-131.5 636,-112.5 478,-112.5"/>
<text text-anchor="middle" x="557" y="-119.5" font-family="Helvetica,sans-Serif" font-size="10.00">llvm/Support/ErrorHandling.h</text>
</a>
</g>
</g>
<!-- Node10&#45;&gt;Node16 -->
<g id="edge15" class="edge">
<title>Node10&#45;&gt;Node16</title>
<path fill="none" stroke="midnightblue" d="M830.3,-173.98C772.85,-163.26 674.32,-144.88 612.58,-133.37"/>
<polygon fill="midnightblue" stroke="midnightblue" points="613.09,-129.9 602.62,-131.51 611.81,-136.78 613.09,-129.9"/>
</g>
<!-- Node20 -->
<g id="node20" class="node">
<title>Node20</title>
<g id="a_node20"><a xlink:href="SwapByteOrder_8h.html" target="_top" xlink:title=" ">
<polygon fill="none" stroke="black" points="1379,-112.5 1379,-131.5 1545,-131.5 1545,-112.5 1379,-112.5"/>
<text text-anchor="middle" x="1462" y="-119.5" font-family="Helvetica,sans-Serif" font-size="10.00">llvm/Support/SwapByteOrder.h</text>
</a>
</g>
</g>
<!-- Node10&#45;&gt;Node20 -->
<g id="edge19" class="edge">
<title>Node10&#45;&gt;Node20</title>
<path fill="none" stroke="midnightblue" d="M932.61,-174.22C948.27,-172.05 965.28,-169.82 981,-168 1115.58,-152.42 1271.83,-138.58 1368.82,-130.5"/>
<polygon fill="midnightblue" stroke="midnightblue" points="1369.22,-133.98 1378.9,-129.66 1368.64,-127 1369.22,-133.98"/>
</g>
<!-- Node10&#45;&gt;Node25 -->
<g id="edge24" class="edge">
<title>Node10&#45;&gt;Node25</title>
<path fill="none" stroke="midnightblue" d="M859.95,-173.98C841.41,-164.12 810.66,-147.79 788.98,-136.27"/>
<polygon fill="midnightblue" stroke="midnightblue" points="790.49,-133.11 780.02,-131.51 787.21,-139.29 790.49,-133.11"/>
</g>
<!-- Node10&#45;&gt;Node26 -->
<g id="edge33" class="edge">
<title>Node10&#45;&gt;Node26</title>
<path fill="none" stroke="midnightblue" d="M880.96,-173.82C891.76,-154.92 917.57,-109.75 931.93,-84.62"/>
<polygon fill="midnightblue" stroke="midnightblue" points="935.06,-86.2 936.98,-75.78 928.98,-82.73 935.06,-86.2"/>
</g>
<!-- Node27 -->
<g id="node27" class="node">
<title>Node27</title>
<g id="a_node27"><a xlink:title=" ">
<polygon fill="none" stroke="#bfbfbf" points="989,-112.5 989,-131.5 1053,-131.5 1053,-112.5 989,-112.5"/>
<text text-anchor="middle" x="1021" y="-119.5" font-family="Helvetica,sans-Serif" font-size="10.00">algorithm</text>
</a>
</g>
</g>
<!-- Node10&#45;&gt;Node27 -->
<g id="edge28" class="edge">
<title>Node10&#45;&gt;Node27</title>
<path fill="none" stroke="midnightblue" d="M896.77,-173.98C921.43,-163.86 962.75,-146.9 990.9,-135.35"/>
<polygon fill="midnightblue" stroke="midnightblue" points="992.34,-138.54 1000.26,-131.51 989.68,-132.07 992.34,-138.54"/>
</g>
<!-- Node10&#45;&gt;Node28 -->
<g id="edge29" class="edge">
<title>Node10&#45;&gt;Node28</title>
<path fill="none" stroke="midnightblue" d="M932.57,-174.85C992.8,-166.35 1091.07,-151.49 1184.76,-132.11"/>
<polygon fill="midnightblue" stroke="midnightblue" points="1185.61,-135.51 1194.69,-130.04 1184.18,-128.66 1185.61,-135.51"/>
</g>
<!-- Node29 -->
<g id="node29" class="node">
<title>Node29</title>
<g id="a_node29"><a xlink:title=" ">
<polygon fill="none" stroke="#bfbfbf" points="1071,-112.5 1071,-131.5 1121,-131.5 1121,-112.5 1071,-112.5"/>
<text text-anchor="middle" x="1096" y="-119.5" font-family="Helvetica,sans-Serif" font-size="10.00">cstring</text>
</a>
</g>
</g>
<!-- Node10&#45;&gt;Node29 -->
<g id="edge30" class="edge">
<title>Node10&#45;&gt;Node29</title>
<path fill="none" stroke="midnightblue" d="M907.52,-173.98C948.13,-162.99 1018.52,-143.95 1060.83,-132.51"/>
<polygon fill="midnightblue" stroke="midnightblue" points="1061.95,-135.83 1070.69,-129.84 1060.13,-129.08 1061.95,-135.83"/>
</g>
<!-- Node10&#45;&gt;Node30 -->
<g id="edge31" class="edge">
<title>Node10&#45;&gt;Node30</title>
<path fill="none" stroke="midnightblue" d="M819.33,-174.76C800.76,-172.38 780.02,-169.9 761,-168 547,-146.66 487.7,-169.93 272.26,-131.85"/>
<polygon fill="midnightblue" stroke="midnightblue" points="272.68,-128.37 262.22,-130.05 271.44,-135.26 272.68,-128.37"/>
</g>
<!-- Node31 -->
<g id="node31" class="node">
<title>Node31</title>
<g id="a_node31"><a xlink:title=" ">
<polygon fill="none" stroke="#bfbfbf" points="853.5,-112.5 853.5,-131.5 894.5,-131.5 894.5,-112.5 853.5,-112.5"/>
<text text-anchor="middle" x="874" y="-119.5" font-family="Helvetica,sans-Serif" font-size="10.00">tuple</text>
</a>
</g>
</g>
<!-- Node10&#45;&gt;Node31 -->
<g id="edge32" class="edge">
<title>Node10&#45;&gt;Node31</title>
<path fill="none" stroke="midnightblue" d="M875.71,-173.98C875.43,-165.58 874.99,-152.48 874.63,-141.66"/>
<polygon fill="midnightblue" stroke="midnightblue" points="878.12,-141.39 874.29,-131.51 871.12,-141.62 878.12,-141.39"/>
</g>
<!-- Node12 -->
<g id="node12" class="node">
<title>Node12</title>
<g id="a_node12"><a xlink:href="llvm-c_2DataTypes_8h.html" target="_top" xlink:title=" ">
<polygon fill="none" stroke="black" points="296,-56.5 296,-75.5 406,-75.5 406,-56.5 296,-56.5"/>
<text text-anchor="middle" x="351" y="-63.5" font-family="Helvetica,sans-Serif" font-size="10.00">llvm&#45;c/DataTypes.h</text>
</a>
</g>
</g>
<!-- Node11&#45;&gt;Node12 -->
<g id="edge11" class="edge">
<title>Node11&#45;&gt;Node12</title>
<path fill="none" stroke="midnightblue" d="M351,-112.08C351,-105.01 351,-94.86 351,-85.99"/>
<polygon fill="midnightblue" stroke="midnightblue" points="354.5,-85.75 351,-75.75 347.5,-85.75 354.5,-85.75"/>
</g>
<!-- Node13 -->
<g id="node13" class="node">
<title>Node13</title>
<g id="a_node13"><a xlink:title=" ">
<polygon fill="none" stroke="#bfbfbf" points="318.5,-0.5 318.5,-19.5 383.5,-19.5 383.5,-0.5 318.5,-0.5"/>
<text text-anchor="middle" x="351" y="-7.5" font-family="Helvetica,sans-Serif" font-size="10.00">inttypes.h</text>
</a>
</g>
</g>
<!-- Node12&#45;&gt;Node13 -->
<g id="edge12" class="edge">
<title>Node12&#45;&gt;Node13</title>
<path fill="none" stroke="midnightblue" d="M351,-56.08C351,-49.01 351,-38.86 351,-29.99"/>
<polygon fill="midnightblue" stroke="midnightblue" points="354.5,-29.75 351,-19.75 347.5,-29.75 354.5,-29.75"/>
</g>
<!-- Node14 -->
<g id="node14" class="node">
<title>Node14</title>
<g id="a_node14"><a xlink:title=" ">
<polygon fill="none" stroke="#bfbfbf" points="401.5,-0.5 401.5,-19.5 454.5,-19.5 454.5,-0.5 401.5,-0.5"/>
<text text-anchor="middle" x="428" y="-7.5" font-family="Helvetica,sans-Serif" font-size="10.00">stdint.h</text>
</a>
</g>
</g>
<!-- Node12&#45;&gt;Node14 -->
<g id="edge13" class="edge">
<title>Node12&#45;&gt;Node14</title>
<path fill="none" stroke="midnightblue" d="M363.37,-56.32C375.16,-48.06 393.13,-35.45 407.14,-25.63"/>
<polygon fill="midnightblue" stroke="midnightblue" points="409.48,-28.26 415.66,-19.65 405.46,-22.53 409.48,-28.26"/>
</g>
<!-- Node15 -->
<g id="node15" class="node">
<title>Node15</title>
<g id="a_node15"><a xlink:title=" ">
<polygon fill="none" stroke="#bfbfbf" points="228,-0.5 228,-19.5 300,-19.5 300,-0.5 228,-0.5"/>
<text text-anchor="middle" x="264" y="-7.5" font-family="Helvetica,sans-Serif" font-size="10.00">sys/types.h</text>
</a>
</g>
</g>
<!-- Node12&#45;&gt;Node15 -->
<g id="edge14" class="edge">
<title>Node12&#45;&gt;Node15</title>
<path fill="none" stroke="midnightblue" d="M337.02,-56.32C323.45,-47.9 302.62,-34.97 286.68,-25.07"/>
<polygon fill="midnightblue" stroke="midnightblue" points="288.29,-21.95 277.94,-19.65 284.59,-27.9 288.29,-21.95"/>
</g>
<!-- Node16&#45;&gt;Node17 -->
<g id="edge16" class="edge">
<title>Node16&#45;&gt;Node17</title>
<path fill="none" stroke="midnightblue" d="M564.1,-112.08C570.24,-104.38 579.27,-93.03 586.74,-83.65"/>
<polygon fill="midnightblue" stroke="midnightblue" points="589.54,-85.75 593.03,-75.75 584.06,-81.39 589.54,-85.75"/>
</g>
<!-- Node18 -->
<g id="node18" class="node">
<title>Node18</title>
<g id="a_node18"><a xlink:title=" ">
<polygon fill="none" stroke="#bfbfbf" points="597.5,-0.5 597.5,-19.5 736.5,-19.5 736.5,-0.5 597.5,-0.5"/>
<text text-anchor="middle" x="667" y="-7.5" font-family="Helvetica,sans-Serif" font-size="10.00">llvm/Config/llvm&#45;config.h</text>
</a>
</g>
</g>
<!-- Node17&#45;&gt;Node18 -->
<g id="edge17" class="edge">
<title>Node17&#45;&gt;Node18</title>
<path fill="none" stroke="midnightblue" d="M610.76,-56.32C620.77,-48.26 635.89,-36.08 647.93,-26.37"/>
<polygon fill="midnightblue" stroke="midnightblue" points="650.45,-28.83 656.04,-19.83 646.06,-23.38 650.45,-28.83"/>
</g>
<!-- Node19 -->
<g id="node19" class="node">
<title>Node19</title>
<g id="a_node19"><a xlink:title=" ">
<polygon fill="none" stroke="#bfbfbf" points="523,-0.5 523,-19.5 579,-19.5 579,-0.5 523,-0.5"/>
<text text-anchor="middle" x="551" y="-7.5" font-family="Helvetica,sans-Serif" font-size="10.00">stddef.h</text>
</a>
</g>
</g>
<!-- Node17&#45;&gt;Node19 -->
<g id="edge18" class="edge">
<title>Node17&#45;&gt;Node19</title>
<path fill="none" stroke="midnightblue" d="M591.91,-56.08C584.84,-48.3 574.41,-36.8 565.85,-27.37"/>
<polygon fill="midnightblue" stroke="midnightblue" points="568.25,-24.8 558.94,-19.75 563.07,-29.51 568.25,-24.8"/>
</g>
<!-- Node21 -->
<g id="node21" class="node">
<title>Node21</title>
<g id="a_node21"><a xlink:title=" ">
<polygon fill="none" stroke="#bfbfbf" points="1657.5,-56.5 1657.5,-75.5 1710.5,-75.5 1710.5,-56.5 1657.5,-56.5"/>
<text text-anchor="middle" x="1684" y="-63.5" font-family="Helvetica,sans-Serif" font-size="10.00">cstddef</text>
</a>
</g>
</g>
<!-- Node20&#45;&gt;Node21 -->
<g id="edge20" class="edge">
<title>Node20&#45;&gt;Node21</title>
<path fill="none" stroke="midnightblue" d="M1497.18,-112.44C1538.29,-102.44 1605.99,-85.98 1647.61,-75.85"/>
<polygon fill="midnightblue" stroke="midnightblue" points="1648.46,-79.25 1657.35,-73.48 1646.81,-72.45 1648.46,-79.25"/>
</g>
<!-- Node20&#45;&gt;Node22 -->
<g id="edge21" class="edge">
<title>Node20&#45;&gt;Node22</title>
<path fill="none" stroke="midnightblue" d="M1545.15,-112.91C1548.48,-112.6 1551.77,-112.3 1555,-112 1736.68,-95.32 1954.35,-76.93 2037.95,-69.93"/>
<polygon fill="midnightblue" stroke="midnightblue" points="2038.25,-73.41 2047.93,-69.09 2037.67,-66.44 2038.25,-73.41"/>
</g>
<!-- Node23 -->
<g id="node23" class="node">
<title>Node23</title>
<g id="a_node23"><a xlink:title=" ">
<polygon fill="none" stroke="#bfbfbf" points="771.5,-56.5 771.5,-75.5 840.5,-75.5 840.5,-56.5 771.5,-56.5"/>
<text text-anchor="middle" x="806" y="-63.5" font-family="Helvetica,sans-Serif" font-size="10.00">type_traits</text>
</a>
</g>
</g>
<!-- Node20&#45;&gt;Node23 -->
<g id="edge22" class="edge">
<title>Node20&#45;&gt;Node23</title>
<path fill="none" stroke="midnightblue" d="M1378.91,-114.32C1271.04,-105.62 1076.94,-89.89 911,-76 891.16,-74.34 869.2,-72.46 850.53,-70.86"/>
<polygon fill="midnightblue" stroke="midnightblue" points="850.78,-67.37 840.52,-69.99 850.18,-74.34 850.78,-67.37"/>
</g>
<!-- Node24 -->
<g id="node24" class="node">
<title>Node24</title>
<g id="a_node24"><a xlink:title=" ">
<polygon fill="none" stroke="#bfbfbf" points="1410,-56.5 1410,-75.5 1514,-75.5 1514,-56.5 1410,-56.5"/>
<text text-anchor="middle" x="1462" y="-63.5" font-family="Helvetica,sans-Serif" font-size="10.00">machine/endian.h</text>
</a>
</g>
</g>
<!-- Node20&#45;&gt;Node24 -->
<g id="edge23" class="edge">
<title>Node20&#45;&gt;Node24</title>
<path fill="none" stroke="midnightblue" d="M1462,-112.08C1462,-105.01 1462,-94.86 1462,-85.99"/>
<polygon fill="midnightblue" stroke="midnightblue" points="1465.5,-85.75 1462,-75.75 1458.5,-85.75 1465.5,-85.75"/>
</g>
<!-- Node25&#45;&gt;Node17 -->
<g id="edge25" class="edge">
<title>Node25&#45;&gt;Node17</title>
<path fill="none" stroke="midnightblue" d="M738.01,-112.44C710.3,-103.32 666.25,-88.81 635.38,-78.65"/>
<polygon fill="midnightblue" stroke="midnightblue" points="636.46,-75.32 625.86,-75.52 634.27,-81.97 636.46,-75.32"/>
</g>
<!-- Node25&#45;&gt;Node23 -->
<g id="edge26" class="edge">
<title>Node25&#45;&gt;Node23</title>
<path fill="none" stroke="midnightblue" d="M770.94,-112.08C776.93,-104.38 785.75,-93.03 793.05,-83.65"/>
<polygon fill="midnightblue" stroke="midnightblue" points="795.82,-85.79 799.19,-75.75 790.29,-81.5 795.82,-85.79"/>
</g>
<!-- Node25&#45;&gt;Node26 -->
<g id="edge27" class="edge">
<title>Node25&#45;&gt;Node26</title>
<path fill="none" stroke="midnightblue" d="M792.2,-112.44C824.1,-102.77 875.94,-87.04 909.51,-76.86"/>
<polygon fill="midnightblue" stroke="midnightblue" points="910.74,-80.14 919.29,-73.89 908.71,-73.44 910.74,-80.14"/>
</g>
<!-- Node33&#45;&gt;Node23 -->
<g id="edge36" class="edge">
<title>Node33&#45;&gt;Node23</title>
<path fill="none" stroke="midnightblue" d="M667.49,-173.97C667.1,-159.44 668.44,-129.73 684,-112 703.52,-89.76 735.04,-78.49 761.16,-72.8"/>
<polygon fill="midnightblue" stroke="midnightblue" points="762.09,-76.18 771.23,-70.81 760.74,-69.31 762.09,-76.18"/>
</g>
<!-- Node35&#45;&gt;Node17 -->
<g id="edge43" class="edge">
<title>Node35&#45;&gt;Node17</title>
<path fill="none" stroke="midnightblue" d="M1314.32,-173.84C1305.37,-158.24 1284.16,-125.78 1256,-112 1243.15,-105.71 847.92,-81.66 677.24,-71.54"/>
<polygon fill="midnightblue" stroke="midnightblue" points="677.26,-68.03 667.07,-70.93 676.85,-75.02 677.26,-68.03"/>
</g>
<!-- Node35&#45;&gt;Node21 -->
<g id="edge47" class="edge">
<title>Node35&#45;&gt;Node21</title>
<path fill="none" stroke="midnightblue" d="M1384.62,-180.22C1507.52,-175.27 1762.47,-161.53 1789,-132 1813.25,-105 1759.53,-85.29 1720.34,-75.03"/>
<polygon fill="midnightblue" stroke="midnightblue" points="1721.05,-71.6 1710.5,-72.57 1719.35,-78.39 1721.05,-71.6"/>
</g>
<!-- Node35&#45;&gt;Node23 -->
<g id="edge56" class="edge">
<title>Node35&#45;&gt;Node23</title>
<path fill="none" stroke="midnightblue" d="M1318.12,-173.83C1316.05,-158.52 1309.41,-126.9 1289,-112 1284.59,-108.78 970.04,-81.22 850.99,-70.89"/>
<polygon fill="midnightblue" stroke="midnightblue" points="851.02,-67.38 840.75,-70 850.41,-74.35 851.02,-67.38"/>
</g>
<!-- Node35&#45;&gt;Node25 -->
<g id="edge44" class="edge">
<title>Node35&#45;&gt;Node25</title>
<path fill="none" stroke="midnightblue" d="M1253.43,-175.61C1163.92,-166.18 998.14,-148.64 845.58,-132.06"/>
<polygon fill="midnightblue" stroke="midnightblue" points="845.87,-128.57 835.55,-130.97 845.11,-135.53 845.87,-128.57"/>
</g>
<!-- Node35&#45;&gt;Node26 -->
<g id="edge57" class="edge">
<title>Node35&#45;&gt;Node26</title>
<path fill="none" stroke="midnightblue" d="M1323.65,-173.88C1330.86,-159.21 1342.4,-129.3 1327,-112 1303.7,-85.82 1063.46,-72.45 974.71,-68.38"/>
<polygon fill="midnightblue" stroke="midnightblue" points="974.81,-64.88 964.67,-67.93 974.5,-71.87 974.81,-64.88"/>
</g>
<!-- Node35&#45;&gt;Node27 -->
<g id="edge45" class="edge">
<title>Node35&#45;&gt;Node27</title>
<path fill="none" stroke="midnightblue" d="M1273.91,-173.95C1224.65,-164.54 1143.15,-148.78 1063.43,-132.26"/>
<polygon fill="midnightblue" stroke="midnightblue" points="1063.72,-128.75 1053.21,-130.14 1062.29,-135.6 1063.72,-128.75"/>
</g>
<!-- Node35&#45;&gt;Node28 -->
<g id="edge46" class="edge">
<title>Node35&#45;&gt;Node28</title>
<path fill="none" stroke="midnightblue" d="M1304.96,-173.98C1288.95,-164.25 1262.55,-148.23 1243.63,-136.74"/>
<polygon fill="midnightblue" stroke="midnightblue" points="1245.38,-133.71 1235.01,-131.51 1241.75,-139.69 1245.38,-133.71"/>
</g>
<!-- Node35&#45;&gt;Node29 -->
<g id="edge49" class="edge">
<title>Node35&#45;&gt;Node29</title>
<path fill="none" stroke="midnightblue" d="M1287.05,-173.98C1245.69,-162.94 1173.84,-143.77 1131.03,-132.35"/>
<polygon fill="midnightblue" stroke="midnightblue" points="1131.89,-128.95 1121.32,-129.76 1130.08,-135.72 1131.89,-128.95"/>
</g>
<!-- Node35&#45;&gt;Node34 -->
<g id="edge55" class="edge">
<title>Node35&#45;&gt;Node34</title>
<path fill="none" stroke="midnightblue" d="M1295.93,-173.98C1266.9,-163.25 1217.08,-144.83 1185.93,-133.32"/>
<polygon fill="midnightblue" stroke="midnightblue" points="1187.11,-130.03 1176.52,-129.84 1184.69,-136.59 1187.11,-130.03"/>
</g>
<!-- Node36 -->
<g id="node36" class="node">
<title>Node36</title>
<g id="a_node36"><a xlink:title=" ">
<polygon fill="none" stroke="#bfbfbf" points="1836.5,-112.5 1836.5,-131.5 1885.5,-131.5 1885.5,-112.5 1836.5,-112.5"/>
<text text-anchor="middle" x="1861" y="-119.5" font-family="Helvetica,sans-Serif" font-size="10.00">cstdlib</text>
</a>
</g>
</g>
<!-- Node35&#45;&gt;Node36 -->
<g id="edge48" class="edge">
<title>Node35&#45;&gt;Node36</title>
<path fill="none" stroke="midnightblue" d="M1384.86,-178.56C1481.29,-172.19 1666.34,-157.67 1822,-132 1823.46,-131.76 1824.94,-131.5 1826.44,-131.22"/>
<polygon fill="midnightblue" stroke="midnightblue" points="1827.24,-134.63 1836.34,-129.19 1825.84,-127.77 1827.24,-134.63"/>
</g>
<!-- Node37 -->
<g id="node37" class="node">
<title>Node37</title>
<g id="a_node37"><a xlink:title=" ">
<polygon fill="none" stroke="#bfbfbf" points="1903.5,-112.5 1903.5,-131.5 1968.5,-131.5 1968.5,-112.5 1903.5,-112.5"/>
<text text-anchor="middle" x="1936" y="-119.5" font-family="Helvetica,sans-Serif" font-size="10.00">functional</text>
</a>
</g>
</g>
<!-- Node35&#45;&gt;Node37 -->
<g id="edge50" class="edge">
<title>Node35&#45;&gt;Node37</title>
<path fill="none" stroke="midnightblue" d="M1384.54,-179.5C1489.89,-174.08 1703.5,-160.6 1893.24,-132.1"/>
<polygon fill="midnightblue" stroke="midnightblue" points="1894.04,-135.52 1903.4,-130.55 1892.98,-128.6 1894.04,-135.52"/>
</g>
<!-- Node38 -->
<g id="node38" class="node">
<title>Node38</title>
<g id="a_node38"><a xlink:title=" ">
<polygon fill="none" stroke="#bfbfbf" points="1563.5,-112.5 1563.5,-131.5 1646.5,-131.5 1646.5,-112.5 1563.5,-112.5"/>
<text text-anchor="middle" x="1605" y="-119.5" font-family="Helvetica,sans-Serif" font-size="10.00">initializer_list</text>
</a>
</g>
</g>
<!-- Node35&#45;&gt;Node38 -->
<g id="edge51" class="edge">
<title>Node35&#45;&gt;Node38</title>
<path fill="none" stroke="midnightblue" d="M1359.98,-173.98C1411.16,-163.33 1498.73,-145.11 1554.14,-133.58"/>
<polygon fill="midnightblue" stroke="midnightblue" points="1555.02,-136.97 1564.1,-131.51 1553.6,-130.12 1555.02,-136.97"/>
</g>
<!-- Node39 -->
<g id="node39" class="node">
<title>Node39</title>
<g id="a_node39"><a xlink:title=" ">
<polygon fill="none" stroke="#bfbfbf" points="1664.5,-112.5 1664.5,-131.5 1717.5,-131.5 1717.5,-112.5 1664.5,-112.5"/>
<text text-anchor="middle" x="1691" y="-119.5" font-family="Helvetica,sans-Serif" font-size="10.00">iterator</text>
</a>
</g>
</g>
<!-- Node35&#45;&gt;Node39 -->
<g id="edge52" class="edge">
<title>Node35&#45;&gt;Node39</title>
<path fill="none" stroke="midnightblue" d="M1384.58,-174.7C1450.55,-166.4 1555.34,-151.97 1654.43,-132.16"/>
<polygon fill="midnightblue" stroke="midnightblue" points="1655.2,-135.58 1664.31,-130.16 1653.82,-128.71 1655.2,-135.58"/>
</g>
<!-- Node40 -->
<g id="node40" class="node">
<title>Node40</title>
<g id="a_node40"><a xlink:title=" ">
<polygon fill="none" stroke="#bfbfbf" points="1736,-112.5 1736,-131.5 1780,-131.5 1780,-112.5 1736,-112.5"/>
<text text-anchor="middle" x="1758" y="-119.5" font-family="Helvetica,sans-Serif" font-size="10.00">limits</text>
</a>
</g>
</g>
<!-- Node35&#45;&gt;Node40 -->
<g id="edge53" class="edge">
<title>Node35&#45;&gt;Node40</title>
<path fill="none" stroke="midnightblue" d="M1384.53,-177.63C1463.51,-171.03 1600.29,-157.31 1725.96,-131.93"/>
<polygon fill="midnightblue" stroke="midnightblue" points="1726.66,-135.35 1735.76,-129.92 1725.26,-128.5 1726.66,-135.35"/>
</g>
<!-- Node41 -->
<g id="node41" class="node">
<title>Node41</title>
<g id="a_node41"><a xlink:title=" ">
<polygon fill="none" stroke="#bfbfbf" points="1987,-112.5 1987,-131.5 2045,-131.5 2045,-112.5 1987,-112.5"/>
<text text-anchor="middle" x="2016" y="-119.5" font-family="Helvetica,sans-Serif" font-size="10.00">memory</text>
</a>
</g>
</g>
<!-- Node35&#45;&gt;Node41 -->
<g id="edge54" class="edge">
<title>Node35&#45;&gt;Node41</title>
<path fill="none" stroke="midnightblue" d="M1384.87,-180.85C1502.12,-177.18 1754.78,-165.9 1976.43,-132.01"/>
<polygon fill="midnightblue" stroke="midnightblue" points="1977.28,-135.42 1986.63,-130.43 1976.21,-128.51 1977.28,-135.42"/>
</g>
<!-- Node42&#45;&gt;Node22 -->
<g id="edge62" class="edge">
<title>Node42&#45;&gt;Node22</title>
<path fill="none" stroke="midnightblue" d="M1797.33,-180.41C1878.45,-176.36 2016.84,-164.74 2054,-132 2067.08,-120.48 2071.38,-100.51 2072.69,-85.74"/>
<polygon fill="midnightblue" stroke="midnightblue" points="2076.18,-85.84 2073.2,-75.68 2069.19,-85.49 2076.18,-85.84"/>
</g>
<!-- Node42&#45;&gt;Node28 -->
<g id="edge61" class="edge">
<title>Node42&#45;&gt;Node28</title>
<path fill="none" stroke="midnightblue" d="M1676.8,-175.56C1568.61,-163.08 1344.45,-137.23 1257.02,-127.15"/>
<polygon fill="midnightblue" stroke="midnightblue" points="1257.39,-123.67 1247.06,-126 1256.59,-130.63 1257.39,-123.67"/>
</g>
<!-- Node42&#45;&gt;Node41 -->
<g id="edge63" class="edge">
<title>Node42&#45;&gt;Node41</title>
<path fill="none" stroke="midnightblue" d="M1797.01,-170.38C1843.54,-160.87 1909.89,-147.1 1977.06,-132.17"/>
<polygon fill="midnightblue" stroke="midnightblue" points="1977.97,-135.55 1986.97,-129.96 1976.45,-128.72 1977.97,-135.55"/>
</g>
</g>
</svg>
