<?xml version="1.0" encoding="UTF-8" standalone="no"?>
<!DOCTYPE svg PUBLIC "-//W3C//DTD SVG 1.1//EN"
 "http://www.w3.org/Graphics/SVG/1.1/DTD/svg11.dtd">
<!-- Generated by graphviz version 2.48.0 (0)
 -->
<!-- Title: lib/Target/XCore/Disassembler Pages: 1 -->
<svg width="124pt" height="223pt"
 viewBox="0.00 0.00 124.00 223.00" xmlns="http://www.w3.org/2000/svg" xmlns:xlink="http://www.w3.org/1999/xlink">
<g id="graph0" class="graph" transform="scale(1 1) rotate(0) translate(4 219)">
<title>lib/Target/XCore/Disassembler</title>
<g id="clust1" class="cluster">
<title>clusterdir_2cd3e302ff40176d32d343dab65cf022</title>
<g id="a_clust1"><a xlink:href="dir_2cd3e302ff40176d32d343dab65cf022.html" xlink:title="XCore">
<polygon fill="#ddddee" stroke="black" points="8,-64 8,-207 108,-207 108,-64 8,-64"/>
<text text-anchor="middle" x="58" y="-195" font-family="Helvetica,sans-Serif" font-size="10.00">XCore</text>
</a>
</g>
</g>
<!-- dir_ef8e40a2b84cac54c5cfb4fbfec515a1 -->
<g id="node1" class="node">
<title>dir_ef8e40a2b84cac54c5cfb4fbfec515a1</title>
<g id="a_node1"><a xlink:href="dir_ef8e40a2b84cac54c5cfb4fbfec515a1.html" xlink:title="TargetInfo">
<polygon fill="none" stroke="black" points="85.5,-108 20.5,-108 20.5,-72 85.5,-72 85.5,-108"/>
<text text-anchor="middle" x="53" y="-87.5" font-family="Helvetica,sans-Serif" font-size="10.00">TargetInfo</text>
</a>
</g>
</g>
<!-- dir_d44c64559bbebec7f509842c48db8b23 -->
<g id="node3" class="node">
<title>dir_d44c64559bbebec7f509842c48db8b23</title>
<g id="a_node3"><a xlink:href="dir_d44c64559bbebec7f509842c48db8b23.html" xlink:title="include">
<polygon fill="none" stroke="red" points="110,-36 56,-36 56,0 110,0 110,-36"/>
<text text-anchor="middle" x="83" y="-15.5" font-family="Helvetica,sans-Serif" font-size="10.00">include</text>
</a>
</g>
</g>
<!-- dir_ef8e40a2b84cac54c5cfb4fbfec515a1&#45;&gt;dir_d44c64559bbebec7f509842c48db8b23 -->
<g id="edge3" class="edge">
<title>dir_ef8e40a2b84cac54c5cfb4fbfec515a1&#45;&gt;dir_d44c64559bbebec7f509842c48db8b23</title>
<path fill="none" stroke="black" d="M60.42,-71.7C63.79,-63.81 67.87,-54.3 71.62,-45.55"/>
<polygon fill="black" stroke="black" points="74.95,-46.67 75.67,-36.1 68.51,-43.92 74.95,-46.67"/>
<g id="a_edge3&#45;headlabel"><a xlink:href="dir_000269_000001.html" xlink:title="1">
<text text-anchor="middle" x="76.14" y="-48.6" font-family="Helvetica,sans-Serif" font-size="10.00">1</text>
</a>
</g>
</g>
<!-- dir_329b1f44483e84c0ccdf16f1ed3a1950 -->
<g id="node2" class="node">
<title>dir_329b1f44483e84c0ccdf16f1ed3a1950</title>
<g id="a_node2"><a xlink:href="dir_329b1f44483e84c0ccdf16f1ed3a1950.html" xlink:title="Disassembler">
<polygon fill="#eeeeff" stroke="black" points="99.5,-180 16.5,-180 16.5,-144 99.5,-144 99.5,-180"/>
<text text-anchor="middle" x="58" y="-159.5" font-family="Helvetica,sans-Serif" font-size="10.00">Disassembler</text>
</a>
</g>
</g>
<!-- dir_329b1f44483e84c0ccdf16f1ed3a1950&#45;&gt;dir_ef8e40a2b84cac54c5cfb4fbfec515a1 -->
<g id="edge2" class="edge">
<title>dir_329b1f44483e84c0ccdf16f1ed3a1950&#45;&gt;dir_ef8e40a2b84cac54c5cfb4fbfec515a1</title>
<path fill="none" stroke="black" d="M56.76,-143.7C56.21,-135.98 55.55,-126.71 54.94,-118.11"/>
<polygon fill="black" stroke="black" points="58.43,-117.83 54.22,-108.1 51.44,-118.33 58.43,-117.83"/>
<g id="a_edge2&#45;headlabel"><a xlink:href="dir_000267_000269.html" xlink:title="1">
<text text-anchor="middle" x="61.51" y="-118.71" font-family="Helvetica,sans-Serif" font-size="10.00">1</text>
</a>
</g>
</g>
<!-- dir_329b1f44483e84c0ccdf16f1ed3a1950&#45;&gt;dir_d44c64559bbebec7f509842c48db8b23 -->
<g id="edge1" class="edge">
<title>dir_329b1f44483e84c0ccdf16f1ed3a1950&#45;&gt;dir_d44c64559bbebec7f509842c48db8b23</title>
<path fill="none" stroke="black" d="M74.04,-143.85C82.01,-134.12 90.83,-121.27 95,-108 101.37,-87.73 97.56,-63.83 92.6,-45.9"/>
<polygon fill="black" stroke="black" points="95.88,-44.65 89.62,-36.1 89.19,-46.69 95.88,-44.65"/>
<g id="a_edge1&#45;headlabel"><a xlink:href="dir_000267_000001.html" xlink:title="6">
<text text-anchor="middle" x="99.65" y="-44.76" font-family="Helvetica,sans-Serif" font-size="10.00">6</text>
</a>
</g>
</g>
</g>
</svg>
