<?xml version="1.0" encoding="UTF-8" standalone="no"?>
<!DOCTYPE svg PUBLIC "-//W3C//DTD SVG 1.1//EN"
 "http://www.w3.org/Graphics/SVG/1.1/DTD/svg11.dtd">
<!-- Generated by graphviz version 2.48.0 (0)
 -->
<!-- Title: include/llvm/Remarks Pages: 1 -->
<svg width="157pt" height="367pt"
 viewBox="0.00 0.00 157.00 367.00" xmlns="http://www.w3.org/2000/svg" xmlns:xlink="http://www.w3.org/1999/xlink">
<g id="graph0" class="graph" transform="scale(1 1) rotate(0) translate(4 363)">
<title>include/llvm/Remarks</title>
<g id="clust1" class="cluster">
<title>clusterdir_dcde91663b8816e1e2311938ccd8f690</title>
<g id="a_clust1"><a xlink:href="dir_dcde91663b8816e1e2311938ccd8f690.html" xlink:title="llvm">
<polygon fill="#ddddee" stroke="black" points="8,-64 8,-351 130,-351 130,-64 8,-64"/>
<text text-anchor="middle" x="69" y="-339" font-family="Helvetica,sans-Serif" font-size="10.00">llvm</text>
</a>
</g>
</g>
<!-- dir_32453792af2ba70c54e3ccae3a790d1b -->
<g id="node1" class="node">
<title>dir_32453792af2ba70c54e3ccae3a790d1b</title>
<g id="a_node1"><a xlink:href="dir_32453792af2ba70c54e3ccae3a790d1b.html" xlink:title="ADT">
<polygon fill="none" stroke="black" points="79,-180 25,-180 25,-144 79,-144 79,-180"/>
<text text-anchor="middle" x="52" y="-159.5" font-family="Helvetica,sans-Serif" font-size="10.00">ADT</text>
</a>
</g>
</g>
<!-- dir_ae1e398ac700924fa434b51c248a5531 -->
<g id="node3" class="node">
<title>dir_ae1e398ac700924fa434b51c248a5531</title>
<g id="a_node3"><a xlink:href="dir_ae1e398ac700924fa434b51c248a5531.html" xlink:title="Support">
<polygon fill="none" stroke="red" points="122,-108 68,-108 68,-72 122,-72 122,-108"/>
<text text-anchor="middle" x="95" y="-87.5" font-family="Helvetica,sans-Serif" font-size="10.00">Support</text>
</a>
</g>
</g>
<!-- dir_32453792af2ba70c54e3ccae3a790d1b&#45;&gt;dir_ae1e398ac700924fa434b51c248a5531 -->
<g id="edge5" class="edge">
<title>dir_32453792af2ba70c54e3ccae3a790d1b&#45;&gt;dir_ae1e398ac700924fa434b51c248a5531</title>
<path fill="none" stroke="black" d="M56.71,-143.7C60.92,-135.47 66.85,-125.48 72.86,-116.42"/>
<polygon fill="black" stroke="black" points="75.8,-118.32 78.6,-108.1 70.04,-114.35 75.8,-118.32"/>
<g id="a_edge5&#45;headlabel"><a xlink:href="dir_000007_000060.html" xlink:title="78">
<text text-anchor="middle" x="76.1" y="-120.39" font-family="Helvetica,sans-Serif" font-size="10.00">78</text>
</a>
</g>
</g>
<!-- dir_39fdac6f56e5eca4ceec559a44836796 -->
<g id="node2" class="node">
<title>dir_39fdac6f56e5eca4ceec559a44836796</title>
<g id="a_node2"><a xlink:href="dir_39fdac6f56e5eca4ceec559a44836796.html" xlink:title="Bitstream">
<polygon fill="none" stroke="black" points="101.5,-252 36.5,-252 36.5,-216 101.5,-216 101.5,-252"/>
<text text-anchor="middle" x="69" y="-231.5" font-family="Helvetica,sans-Serif" font-size="10.00">Bitstream</text>
</a>
</g>
</g>
<!-- dir_39fdac6f56e5eca4ceec559a44836796&#45;&gt;dir_32453792af2ba70c54e3ccae3a790d1b -->
<g id="edge1" class="edge">
<title>dir_39fdac6f56e5eca4ceec559a44836796&#45;&gt;dir_32453792af2ba70c54e3ccae3a790d1b</title>
<path fill="none" stroke="black" d="M64.8,-215.7C62.9,-207.9 60.62,-198.51 58.52,-189.83"/>
<polygon fill="black" stroke="black" points="61.92,-189 56.15,-180.1 55.11,-190.65 61.92,-189"/>
<g id="a_edge1&#45;headlabel"><a xlink:href="dir_000021_000007.html" xlink:title="8">
<text text-anchor="middle" x="65.52" y="-189.32" font-family="Helvetica,sans-Serif" font-size="10.00">8</text>
</a>
</g>
</g>
<!-- dir_39fdac6f56e5eca4ceec559a44836796&#45;&gt;dir_ae1e398ac700924fa434b51c248a5531 -->
<g id="edge2" class="edge">
<title>dir_39fdac6f56e5eca4ceec559a44836796&#45;&gt;dir_ae1e398ac700924fa434b51c248a5531</title>
<path fill="none" stroke="black" d="M76.53,-215.67C80.63,-205.48 85.38,-192.23 88,-180 92.36,-159.67 94.07,-136.21 94.72,-118.48"/>
<polygon fill="black" stroke="black" points="98.22,-118.35 94.99,-108.26 91.22,-118.16 98.22,-118.35"/>
<g id="a_edge2&#45;headlabel"><a xlink:href="dir_000021_000060.html" xlink:title="9">
<text text-anchor="middle" x="100.96" y="-119.52" font-family="Helvetica,sans-Serif" font-size="10.00">9</text>
</a>
</g>
</g>
<!-- dir_ae1e398ac700924fa434b51c248a5531&#45;&gt;dir_32453792af2ba70c54e3ccae3a790d1b -->
<g id="edge3" class="edge">
<title>dir_ae1e398ac700924fa434b51c248a5531&#45;&gt;dir_32453792af2ba70c54e3ccae3a790d1b</title>
<path fill="none" stroke="black" d="M90.39,-108.1C86.21,-116.3 80.29,-126.28 74.28,-135.36"/>
<polygon fill="black" stroke="black" points="71.33,-133.47 68.54,-143.7 77.1,-137.44 71.33,-133.47"/>
<g id="a_edge3&#45;headlabel"><a xlink:href="dir_000060_000007.html" xlink:title="211">
<text text-anchor="middle" x="71.03" y="-126.4" font-family="Helvetica,sans-Serif" font-size="10.00">211</text>
</a>
</g>
</g>
<!-- dir_db1e4f1ef1b4536ff54becd23c94e664 -->
<g id="node5" class="node">
<title>dir_db1e4f1ef1b4536ff54becd23c94e664</title>
<g id="a_node5"><a xlink:href="dir_db1e4f1ef1b4536ff54becd23c94e664.html" xlink:title="llvm&#45;c">
<polygon fill="none" stroke="red" points="149,-36 95,-36 95,0 149,0 149,-36"/>
<text text-anchor="middle" x="122" y="-15.5" font-family="Helvetica,sans-Serif" font-size="10.00">llvm&#45;c</text>
</a>
</g>
</g>
<!-- dir_ae1e398ac700924fa434b51c248a5531&#45;&gt;dir_db1e4f1ef1b4536ff54becd23c94e664 -->
<g id="edge4" class="edge">
<title>dir_ae1e398ac700924fa434b51c248a5531&#45;&gt;dir_db1e4f1ef1b4536ff54becd23c94e664</title>
<path fill="none" stroke="black" d="M101.67,-71.7C104.71,-63.81 108.38,-54.3 111.76,-45.55"/>
<polygon fill="black" stroke="black" points="115.07,-46.69 115.4,-36.1 108.54,-44.17 115.07,-46.69"/>
<g id="a_edge4&#45;headlabel"><a xlink:href="dir_000060_000002.html" xlink:title="4">
<text text-anchor="middle" x="116.42" y="-48.57" font-family="Helvetica,sans-Serif" font-size="10.00">4</text>
</a>
</g>
</g>
<!-- dir_e0c199ff072a743662e28b1da00c9be8 -->
<g id="node4" class="node">
<title>dir_e0c199ff072a743662e28b1da00c9be8</title>
<g id="a_node4"><a xlink:href="dir_e0c199ff072a743662e28b1da00c9be8.html" xlink:title="Remarks">
<polygon fill="#eeeeff" stroke="black" points="110,-324 50,-324 50,-288 110,-288 110,-324"/>
<text text-anchor="middle" x="80" y="-303.5" font-family="Helvetica,sans-Serif" font-size="10.00">Remarks</text>
</a>
</g>
</g>
<!-- dir_e0c199ff072a743662e28b1da00c9be8&#45;&gt;dir_32453792af2ba70c54e3ccae3a790d1b -->
<g id="edge6" class="edge">
<title>dir_e0c199ff072a743662e28b1da00c9be8&#45;&gt;dir_32453792af2ba70c54e3ccae3a790d1b</title>
<path fill="none" stroke="black" d="M55.52,-287.77C44.6,-278.56 32.88,-266.19 27,-252 18.47,-231.42 26.54,-206.99 35.72,-188.94"/>
<polygon fill="black" stroke="black" points="38.81,-190.59 40.54,-180.13 32.67,-187.23 38.81,-190.59"/>
<g id="a_edge6&#45;headlabel"><a xlink:href="dir_000070_000007.html" xlink:title="12">
<text text-anchor="middle" x="39.57" y="-192.6" font-family="Helvetica,sans-Serif" font-size="10.00">12</text>
</a>
</g>
</g>
<!-- dir_e0c199ff072a743662e28b1da00c9be8&#45;&gt;dir_39fdac6f56e5eca4ceec559a44836796 -->
<g id="edge7" class="edge">
<title>dir_e0c199ff072a743662e28b1da00c9be8&#45;&gt;dir_39fdac6f56e5eca4ceec559a44836796</title>
<path fill="none" stroke="black" d="M77.28,-287.7C76.07,-279.98 74.61,-270.71 73.26,-262.11"/>
<polygon fill="black" stroke="black" points="76.7,-261.44 71.69,-252.1 69.78,-262.53 76.7,-261.44"/>
<g id="a_edge7&#45;headlabel"><a xlink:href="dir_000070_000021.html" xlink:title="3">
<text text-anchor="middle" x="80.06" y="-262.05" font-family="Helvetica,sans-Serif" font-size="10.00">3</text>
</a>
</g>
</g>
<!-- dir_e0c199ff072a743662e28b1da00c9be8&#45;&gt;dir_ae1e398ac700924fa434b51c248a5531 -->
<g id="edge8" class="edge">
<title>dir_e0c199ff072a743662e28b1da00c9be8&#45;&gt;dir_ae1e398ac700924fa434b51c248a5531</title>
<path fill="none" stroke="black" d="M92.73,-287.85C99.29,-277.92 106.61,-264.88 110,-252 122.08,-206.15 111.69,-150.71 103.22,-118.3"/>
<polygon fill="black" stroke="black" points="106.48,-116.96 100.46,-108.24 99.73,-118.81 106.48,-116.96"/>
<g id="a_edge8&#45;headlabel"><a xlink:href="dir_000070_000060.html" xlink:title="10">
<text text-anchor="middle" x="110.17" y="-117.17" font-family="Helvetica,sans-Serif" font-size="10.00">10</text>
</a>
</g>
</g>
<!-- dir_e0c199ff072a743662e28b1da00c9be8&#45;&gt;dir_db1e4f1ef1b4536ff54becd23c94e664 -->
<g id="edge9" class="edge">
<title>dir_e0c199ff072a743662e28b1da00c9be8&#45;&gt;dir_db1e4f1ef1b4536ff54becd23c94e664</title>
<path fill="none" stroke="black" d="M95.99,-287.75C104.04,-278 113.11,-265.16 118,-252 147.19,-173.5 139.25,-147.35 131,-64 130.43,-58.25 129.46,-52.15 128.37,-46.36"/>
<polygon fill="black" stroke="black" points="131.76,-45.49 126.31,-36.4 124.91,-46.9 131.76,-45.49"/>
<g id="a_edge9&#45;headlabel"><a xlink:href="dir_000070_000002.html" xlink:title="1">
<text text-anchor="middle" x="135.27" y="-45.94" font-family="Helvetica,sans-Serif" font-size="10.00">1</text>
</a>
</g>
</g>
</g>
</svg>
