<?xml version="1.0" encoding="UTF-8" standalone="no"?>
<!DOCTYPE svg PUBLIC "-//W3C//DTD SVG 1.1//EN"
 "http://www.w3.org/Graphics/SVG/1.1/DTD/svg11.dtd">
<!-- Generated by graphviz version 2.48.0 (0)
 -->
<!-- Title: include/llvm/Analysis/EHPersonalities.h Pages: 1 -->
<svg width="6597pt" height="240pt"
 viewBox="0.00 0.00 6597.00 240.00" xmlns="http://www.w3.org/2000/svg" xmlns:xlink="http://www.w3.org/1999/xlink">
<g id="graph0" class="graph" transform="scale(1 1) rotate(0) translate(4 236)">
<title>include/llvm/Analysis/EHPersonalities.h</title>
<!-- Node1 -->
<g id="node1" class="node">
<title>Node1</title>
<g id="a_node1"><a xlink:title=" ">
<polygon fill="#bfbfbf" stroke="black" points="4389,-201.5 4389,-231.5 4510,-231.5 4510,-201.5 4389,-201.5"/>
<text text-anchor="start" x="4397" y="-219.5" font-family="Helvetica,sans-Serif" font-size="10.00">include/llvm/Analysis</text>
<text text-anchor="middle" x="4449.5" y="-208.5" font-family="Helvetica,sans-Serif" font-size="10.00">/EHPersonalities.h</text>
</a>
</g>
</g>
<!-- Node2 -->
<g id="node2" class="node">
<title>Node2</title>
<g id="a_node2"><a xlink:href="MustExecute_8h.html" target="_top" xlink:title="Contains a collection of routines for determining if a given instruction is guaranteed to execute if ...">
<polygon fill="none" stroke="black" points="797,-134.5 797,-164.5 918,-164.5 918,-134.5 797,-134.5"/>
<text text-anchor="start" x="805" y="-152.5" font-family="Helvetica,sans-Serif" font-size="10.00">include/llvm/Analysis</text>
<text text-anchor="middle" x="857.5" y="-141.5" font-family="Helvetica,sans-Serif" font-size="10.00">/MustExecute.h</text>
</a>
</g>
</g>
<!-- Node1&#45;&gt;Node2 -->
<g id="edge1" class="edge">
<title>Node1&#45;&gt;Node2</title>
<path fill="none" stroke="midnightblue" d="M4378.47,-214.21C3916.74,-205.86 1347.05,-159.36 918.19,-151.6"/>
<polygon fill="midnightblue" stroke="midnightblue" points="4378.6,-217.72 4388.66,-214.4 4378.73,-210.72 4378.6,-217.72"/>
</g>
<!-- Node21 -->
<g id="node15" class="node">
<title>Node21</title>
<g id="a_node15"><a xlink:href="MachineFunction_8h.html" target="_top" xlink:title=" ">
<polygon fill="none" stroke="red" points="2716.5,-134.5 2716.5,-164.5 2840.5,-164.5 2840.5,-134.5 2716.5,-134.5"/>
<text text-anchor="start" x="2724.5" y="-152.5" font-family="Helvetica,sans-Serif" font-size="10.00">include/llvm/CodeGen</text>
<text text-anchor="middle" x="2778.5" y="-141.5" font-family="Helvetica,sans-Serif" font-size="10.00">/MachineFunction.h</text>
</a>
</g>
</g>
<!-- Node1&#45;&gt;Node21 -->
<g id="edge16" class="edge">
<title>Node1&#45;&gt;Node21</title>
<path fill="none" stroke="midnightblue" d="M4378.52,-214.28C4164.05,-210.34 3503.89,-196.36 2957.5,-165 2918.59,-162.77 2875,-159.26 2840.58,-156.25"/>
<polygon fill="midnightblue" stroke="midnightblue" points="4378.64,-217.78 4388.7,-214.47 4378.76,-210.79 4378.64,-217.78"/>
</g>
<!-- Node374 -->
<g id="node23" class="node">
<title>Node374</title>
<g id="a_node23"><a xlink:href="AsmPrinter_8cpp.html" target="_top" xlink:title=" ">
<polygon fill="none" stroke="black" points="2712,-67.5 2712,-97.5 2845,-97.5 2845,-67.5 2712,-67.5"/>
<text text-anchor="start" x="2720" y="-85.5" font-family="Helvetica,sans-Serif" font-size="10.00">lib/CodeGen/AsmPrinter</text>
<text text-anchor="middle" x="2778.5" y="-74.5" font-family="Helvetica,sans-Serif" font-size="10.00">/AsmPrinter.cpp</text>
</a>
</g>
</g>
<!-- Node1&#45;&gt;Node374 -->
<g id="edge34" class="edge">
<title>Node1&#45;&gt;Node374</title>
<path fill="none" stroke="midnightblue" d="M4378.68,-214.87C4137.02,-212.41 3345.96,-201.68 3094.5,-165 2994.71,-150.45 2880.92,-116.73 2820.84,-97.53"/>
<polygon fill="midnightblue" stroke="midnightblue" points="4378.72,-218.37 4388.75,-214.97 4378.79,-211.37 4378.72,-218.37"/>
</g>
<!-- Node406 -->
<g id="node24" class="node">
<title>Node406</title>
<g id="a_node24"><a xlink:href="MachineFunction_8cpp.html" target="_top" xlink:title=" ">
<polygon fill="none" stroke="black" points="2863.5,-73 2863.5,-92 3045.5,-92 3045.5,-73 2863.5,-73"/>
<text text-anchor="middle" x="2954.5" y="-80" font-family="Helvetica,sans-Serif" font-size="10.00">lib/CodeGen/MachineFunction.cpp</text>
</a>
</g>
</g>
<!-- Node1&#45;&gt;Node406 -->
<g id="edge36" class="edge">
<title>Node1&#45;&gt;Node406</title>
<path fill="none" stroke="midnightblue" d="M4378.77,-215.06C4151.23,-213.25 3439.83,-204.52 3213.5,-165 3122.25,-149.07 3018.49,-109.58 2975.18,-92.08"/>
<polygon fill="midnightblue" stroke="midnightblue" points="4378.88,-218.56 4388.91,-215.14 4378.94,-211.56 4378.88,-218.56"/>
</g>
<!-- Node419 -->
<g id="node25" class="node">
<title>Node419</title>
<g id="a_node25"><a xlink:href="MachineVerifier_8cpp.html" target="_top" xlink:title=" ">
<polygon fill="none" stroke="black" points="3063.5,-73 3063.5,-92 3237.5,-92 3237.5,-73 3063.5,-73"/>
<text text-anchor="middle" x="3150.5" y="-80" font-family="Helvetica,sans-Serif" font-size="10.00">lib/CodeGen/MachineVerifier.cpp</text>
</a>
</g>
</g>
<!-- Node1&#45;&gt;Node419 -->
<g id="edge37" class="edge">
<title>Node1&#45;&gt;Node419</title>
<path fill="none" stroke="midnightblue" d="M4378.57,-214.55C4141.4,-211.06 3384.97,-197.5 3280.5,-165 3230.39,-149.41 3180.42,-109.55 3160.05,-92.01"/>
<polygon fill="midnightblue" stroke="midnightblue" points="4378.75,-218.05 4388.8,-214.69 4378.86,-211.05 4378.75,-218.05"/>
</g>
<!-- Node452 -->
<g id="node26" class="node">
<title>Node452</title>
<g id="a_node26"><a xlink:href="SelectionDAGBuilder_8cpp.html" target="_top" xlink:title=" ">
<polygon fill="none" stroke="black" points="3255.5,-67.5 3255.5,-97.5 3401.5,-97.5 3401.5,-67.5 3255.5,-67.5"/>
<text text-anchor="start" x="3263.5" y="-85.5" font-family="Helvetica,sans-Serif" font-size="10.00">lib/CodeGen/SelectionDAG</text>
<text text-anchor="middle" x="3328.5" y="-74.5" font-family="Helvetica,sans-Serif" font-size="10.00">/SelectionDAGBuilder.cpp</text>
</a>
</g>
</g>
<!-- Node1&#45;&gt;Node452 -->
<g id="edge38" class="edge">
<title>Node1&#45;&gt;Node452</title>
<path fill="none" stroke="midnightblue" d="M4378.4,-215.08C4132.09,-213.28 3328.22,-204.4 3290.5,-165 3271.93,-145.6 3295.47,-115.48 3312.91,-97.8"/>
<polygon fill="midnightblue" stroke="midnightblue" points="4378.64,-218.58 4388.67,-215.15 4378.69,-211.58 4378.64,-218.58"/>
</g>
<!-- Node454 -->
<g id="node27" class="node">
<title>Node454</title>
<g id="a_node27"><a xlink:href="SelectionDAGISel_8cpp.html" target="_top" xlink:title=" ">
<polygon fill="none" stroke="black" points="3419.5,-67.5 3419.5,-97.5 3565.5,-97.5 3565.5,-67.5 3419.5,-67.5"/>
<text text-anchor="start" x="3427.5" y="-85.5" font-family="Helvetica,sans-Serif" font-size="10.00">lib/CodeGen/SelectionDAG</text>
<text text-anchor="middle" x="3492.5" y="-74.5" font-family="Helvetica,sans-Serif" font-size="10.00">/SelectionDAGISel.cpp</text>
</a>
</g>
</g>
<!-- Node1&#45;&gt;Node454 -->
<g id="edge39" class="edge">
<title>Node1&#45;&gt;Node454</title>
<path fill="none" stroke="midnightblue" d="M4378.6,-215.05C4133.92,-213.17 3337.86,-204.04 3300.5,-165 3290.97,-155.05 3292.09,-144.91 3300.5,-134 3308.27,-123.92 3371.03,-108.65 3422.71,-97.54"/>
<polygon fill="midnightblue" stroke="midnightblue" points="4378.77,-218.55 4388.79,-215.13 4378.82,-211.55 4378.77,-218.55"/>
</g>
<!-- Node825 -->
<g id="node28" class="node">
<title>Node825</title>
<g id="a_node28"><a xlink:href="X86FrameLowering_8cpp.html" target="_top" xlink:title=" ">
<polygon fill="none" stroke="black" points="3583.5,-73 3583.5,-92 3783.5,-92 3783.5,-73 3583.5,-73"/>
<text text-anchor="middle" x="3683.5" y="-80" font-family="Helvetica,sans-Serif" font-size="10.00">lib/Target/X86/X86FrameLowering.cpp</text>
</a>
</g>
</g>
<!-- Node1&#45;&gt;Node825 -->
<g id="edge45" class="edge">
<title>Node1&#45;&gt;Node825</title>
<path fill="none" stroke="midnightblue" d="M4378.8,-215.03C4135.77,-213.05 3347.51,-203.69 3310.5,-165 3300.98,-155.04 3301.43,-144.38 3310.5,-134 3311.13,-133.28 3513.07,-106.24 3619.51,-92.03"/>
<polygon fill="midnightblue" stroke="midnightblue" points="4378.9,-218.53 4388.93,-215.11 4378.96,-211.53 4378.9,-218.53"/>
</g>
<!-- Node833 -->
<g id="node29" class="node">
<title>Node833</title>
<g id="a_node29"><a xlink:href="X86ISelLowering_8cpp.html" target="_top" xlink:title=" ">
<polygon fill="none" stroke="black" points="3801.5,-73 3801.5,-92 3989.5,-92 3989.5,-73 3801.5,-73"/>
<text text-anchor="middle" x="3895.5" y="-80" font-family="Helvetica,sans-Serif" font-size="10.00">lib/Target/X86/X86ISelLowering.cpp</text>
</a>
</g>
</g>
<!-- Node1&#45;&gt;Node833 -->
<g id="edge46" class="edge">
<title>Node1&#45;&gt;Node833</title>
<path fill="none" stroke="midnightblue" d="M4378.66,-214.99C4137.02,-212.92 3358.1,-203.28 3321.5,-165 3311.98,-155.04 3312.14,-144.11 3321.5,-134 3357.17,-95.5 3740.32,-103.66 3792.5,-98 3807.85,-96.33 3824.44,-94.16 3839.72,-92.01"/>
<polygon fill="midnightblue" stroke="midnightblue" points="4378.7,-218.49 4388.73,-215.08 4378.76,-211.49 4378.7,-218.49"/>
</g>
<!-- Node1203 -->
<g id="node30" class="node">
<title>Node1203</title>
<g id="a_node30"><a xlink:href="EHPersonalities_8cpp.html" target="_top" xlink:title=" ">
<polygon fill="none" stroke="black" points="3331,-140 3331,-159 3504,-159 3504,-140 3331,-140"/>
<text text-anchor="middle" x="3417.5" y="-147" font-family="Helvetica,sans-Serif" font-size="10.00">lib/Analysis/EHPersonalities.cpp</text>
</a>
</g>
</g>
<!-- Node1&#45;&gt;Node1203 -->
<g id="edge32" class="edge">
<title>Node1&#45;&gt;Node1203</title>
<path fill="none" stroke="midnightblue" d="M4378.41,-213.99C4221.8,-210.16 3835.35,-197.91 3513.5,-165 3498.58,-163.47 3482.43,-161.26 3467.71,-159.01"/>
<polygon fill="midnightblue" stroke="midnightblue" points="4378.76,-217.5 4388.84,-214.24 4378.93,-210.5 4378.76,-217.5"/>
</g>
<!-- Node1204 -->
<g id="node31" class="node">
<title>Node1204</title>
<g id="a_node31"><a xlink:href="ValueTracking_8cpp.html" target="_top" xlink:title=" ">
<polygon fill="none" stroke="black" points="3522.5,-140 3522.5,-159 3686.5,-159 3686.5,-140 3522.5,-140"/>
<text text-anchor="middle" x="3604.5" y="-147" font-family="Helvetica,sans-Serif" font-size="10.00">lib/Analysis/ValueTracking.cpp</text>
</a>
</g>
</g>
<!-- Node1&#45;&gt;Node1204 -->
<g id="edge33" class="edge">
<title>Node1&#45;&gt;Node1204</title>
<path fill="none" stroke="midnightblue" d="M4378.62,-212.91C4244.77,-207.54 3945.8,-193.26 3695.5,-165 3681.67,-163.44 3666.73,-161.26 3653.03,-159.07"/>
<polygon fill="midnightblue" stroke="midnightblue" points="4378.61,-216.41 4388.74,-213.31 4378.88,-209.42 4378.61,-216.41"/>
</g>
<!-- Node1113 -->
<g id="node32" class="node">
<title>Node1113</title>
<g id="a_node32"><a xlink:href="DwarfEHPrepare_8cpp.html" target="_top" xlink:title=" ">
<polygon fill="none" stroke="black" points="3705,-140 3705,-159 3884,-159 3884,-140 3705,-140"/>
<text text-anchor="middle" x="3794.5" y="-147" font-family="Helvetica,sans-Serif" font-size="10.00">lib/CodeGen/DwarfEHPrepare.cpp</text>
</a>
</g>
</g>
<!-- Node1&#45;&gt;Node1113 -->
<g id="edge35" class="edge">
<title>Node1&#45;&gt;Node1113</title>
<path fill="none" stroke="midnightblue" d="M4378.68,-210.32C4272.91,-202.3 4067.46,-185.62 3893.5,-165 3879.01,-163.28 3863.37,-161.13 3848.89,-159.01"/>
<polygon fill="midnightblue" stroke="midnightblue" points="4378.68,-213.83 4388.92,-211.09 4379.21,-206.85 4378.68,-213.83"/>
</g>
<!-- Node1131 -->
<g id="node33" class="node">
<title>Node1131</title>
<g id="a_node33"><a xlink:href="StackProtector_8cpp.html" target="_top" xlink:title=" ">
<polygon fill="none" stroke="black" points="3902.5,-140 3902.5,-159 4072.5,-159 4072.5,-140 3902.5,-140"/>
<text text-anchor="middle" x="3987.5" y="-147" font-family="Helvetica,sans-Serif" font-size="10.00">lib/CodeGen/StackProtector.cpp</text>
</a>
</g>
</g>
<!-- Node1&#45;&gt;Node1131 -->
<g id="edge40" class="edge">
<title>Node1&#45;&gt;Node1131</title>
<path fill="none" stroke="midnightblue" d="M4378.75,-206.15C4304.62,-196.26 4184.81,-180.05 4081.5,-165 4068.59,-163.12 4054.7,-161.02 4041.66,-159.01"/>
<polygon fill="midnightblue" stroke="midnightblue" points="4378.52,-209.65 4388.9,-207.5 4379.45,-202.71 4378.52,-209.65"/>
</g>
<!-- Node1205 -->
<g id="node34" class="node">
<title>Node1205</title>
<g id="a_node34"><a xlink:href="WinEHPrepare_8cpp.html" target="_top" xlink:title=" ">
<polygon fill="none" stroke="black" points="4091,-140 4091,-159 4260,-159 4260,-140 4091,-140"/>
<text text-anchor="middle" x="4175.5" y="-147" font-family="Helvetica,sans-Serif" font-size="10.00">lib/CodeGen/WinEHPrepare.cpp</text>
</a>
</g>
</g>
<!-- Node1&#45;&gt;Node1205 -->
<g id="edge41" class="edge">
<title>Node1&#45;&gt;Node1205</title>
<path fill="none" stroke="midnightblue" d="M4380.57,-199.15C4326.81,-186.39 4254.29,-169.19 4211.45,-159.03"/>
<polygon fill="midnightblue" stroke="midnightblue" points="4379.85,-202.57 4390.38,-201.48 4381.46,-195.76 4379.85,-202.57"/>
</g>
<!-- Node206 -->
<g id="node35" class="node">
<title>Node206</title>
<g id="a_node35"><a xlink:href="M68kCollapseMOVEMPass_8cpp.html" target="_top" xlink:title="MOVEM is an instruction that moves multiple registers a time according to the given mask.">
<polygon fill="none" stroke="black" points="4278.5,-134.5 4278.5,-164.5 4442.5,-164.5 4442.5,-134.5 4278.5,-134.5"/>
<text text-anchor="start" x="4286.5" y="-152.5" font-family="Helvetica,sans-Serif" font-size="10.00">lib/Target/M68k/M68kCollapse</text>
<text text-anchor="middle" x="4360.5" y="-141.5" font-family="Helvetica,sans-Serif" font-size="10.00">MOVEMPass.cpp</text>
</a>
</g>
</g>
<!-- Node1&#45;&gt;Node206 -->
<g id="edge42" class="edge">
<title>Node1&#45;&gt;Node206</title>
<path fill="none" stroke="midnightblue" d="M4422.05,-195.45C4408.36,-185.45 4392.13,-173.6 4379.77,-164.58"/>
<polygon fill="midnightblue" stroke="midnightblue" points="4420.05,-198.32 4430.19,-201.4 4424.18,-192.67 4420.05,-198.32"/>
</g>
<!-- Node207 -->
<g id="node36" class="node">
<title>Node207</title>
<g id="a_node36"><a xlink:href="M68kExpandPseudo_8cpp.html" target="_top" xlink:title="This file contains a pass that expands pseudo instructions into target instructions to allow proper s...">
<polygon fill="none" stroke="black" points="4460.5,-134.5 4460.5,-164.5 4618.5,-164.5 4618.5,-134.5 4460.5,-134.5"/>
<text text-anchor="start" x="4468.5" y="-152.5" font-family="Helvetica,sans-Serif" font-size="10.00">lib/Target/M68k/M68kExpand</text>
<text text-anchor="middle" x="4539.5" y="-141.5" font-family="Helvetica,sans-Serif" font-size="10.00">Pseudo.cpp</text>
</a>
</g>
</g>
<!-- Node1&#45;&gt;Node207 -->
<g id="edge43" class="edge">
<title>Node1&#45;&gt;Node207</title>
<path fill="none" stroke="midnightblue" d="M4477.26,-195.45C4491.11,-185.45 4507.52,-173.6 4520.01,-164.58"/>
<polygon fill="midnightblue" stroke="midnightblue" points="4475.09,-192.7 4469.03,-201.4 4479.18,-198.38 4475.09,-192.7"/>
</g>
<!-- Node821 -->
<g id="node37" class="node">
<title>Node821</title>
<g id="a_node37"><a xlink:href="X86ExpandPseudo_8cpp.html" target="_top" xlink:title=" ">
<polygon fill="none" stroke="black" points="4637,-134.5 4637,-164.5 4778,-164.5 4778,-134.5 4637,-134.5"/>
<text text-anchor="start" x="4645" y="-152.5" font-family="Helvetica,sans-Serif" font-size="10.00">lib/Target/X86/X86Expand</text>
<text text-anchor="middle" x="4707.5" y="-141.5" font-family="Helvetica,sans-Serif" font-size="10.00">Pseudo.cpp</text>
</a>
</g>
</g>
<!-- Node1&#45;&gt;Node821 -->
<g id="edge44" class="edge">
<title>Node1&#45;&gt;Node821</title>
<path fill="none" stroke="midnightblue" d="M4515.05,-198.98C4557.2,-188.37 4611.36,-174.72 4651.49,-164.61"/>
<polygon fill="midnightblue" stroke="midnightblue" points="4514.01,-195.64 4505.16,-201.48 4515.72,-202.43 4514.01,-195.64"/>
</g>
<!-- Node1206 -->
<g id="node38" class="node">
<title>Node1206</title>
<g id="a_node38"><a xlink:href="X86WinEHState_8cpp.html" target="_top" xlink:title=" ">
<polygon fill="none" stroke="black" points="4796,-140 4796,-159 4979,-159 4979,-140 4796,-140"/>
<text text-anchor="middle" x="4887.5" y="-147" font-family="Helvetica,sans-Serif" font-size="10.00">lib/Target/X86/X86WinEHState.cpp</text>
</a>
</g>
</g>
<!-- Node1&#45;&gt;Node1206 -->
<g id="edge47" class="edge">
<title>Node1&#45;&gt;Node1206</title>
<path fill="none" stroke="midnightblue" d="M4520.36,-204.98C4606.51,-192.2 4750.23,-170.87 4829.9,-159.05"/>
<polygon fill="midnightblue" stroke="midnightblue" points="4519.78,-201.53 4510.4,-206.46 4520.81,-208.46 4519.78,-201.53"/>
</g>
<!-- Node1207 -->
<g id="node39" class="node">
<title>Node1207</title>
<g id="a_node39"><a xlink:href="InstructionCombining_8cpp.html" target="_top" xlink:title=" ">
<polygon fill="none" stroke="black" points="4997.5,-134.5 4997.5,-164.5 5147.5,-164.5 5147.5,-134.5 4997.5,-134.5"/>
<text text-anchor="start" x="5005.5" y="-152.5" font-family="Helvetica,sans-Serif" font-size="10.00">lib/Transforms/InstCombine</text>
<text text-anchor="middle" x="5072.5" y="-141.5" font-family="Helvetica,sans-Serif" font-size="10.00">/InstructionCombining.cpp</text>
</a>
</g>
</g>
<!-- Node1&#45;&gt;Node1207 -->
<g id="edge48" class="edge">
<title>Node1&#45;&gt;Node1207</title>
<path fill="none" stroke="midnightblue" d="M4520.46,-210.55C4623.57,-202.97 4820.7,-187.02 4987.5,-165 4990.77,-164.57 4994.1,-164.1 4997.46,-163.62"/>
<polygon fill="midnightblue" stroke="midnightblue" points="4519.9,-207.08 4510.18,-211.3 4520.41,-214.06 4519.9,-207.08"/>
</g>
<!-- Node1208 -->
<g id="node40" class="node">
<title>Node1208</title>
<g id="a_node40"><a xlink:href="GCOVProfiling_8cpp.html" target="_top" xlink:title=" ">
<polygon fill="none" stroke="black" points="5166,-134.5 5166,-164.5 5333,-164.5 5333,-134.5 5166,-134.5"/>
<text text-anchor="start" x="5174" y="-152.5" font-family="Helvetica,sans-Serif" font-size="10.00">lib/Transforms/Instrumentation</text>
<text text-anchor="middle" x="5249.5" y="-141.5" font-family="Helvetica,sans-Serif" font-size="10.00">/GCOVProfiling.cpp</text>
</a>
</g>
</g>
<!-- Node1&#45;&gt;Node1208 -->
<g id="edge49" class="edge">
<title>Node1&#45;&gt;Node1208</title>
<path fill="none" stroke="midnightblue" d="M4520.21,-212.4C4647.68,-206.39 4924.36,-191.34 5156.5,-165 5159.58,-164.65 5162.72,-164.27 5165.89,-163.87"/>
<polygon fill="midnightblue" stroke="midnightblue" points="4520.01,-208.91 4510.18,-212.87 4520.34,-215.9 4520.01,-208.91"/>
</g>
<!-- Node1209 -->
<g id="node41" class="node">
<title>Node1209</title>
<g id="a_node41"><a xlink:href="PGOInstrumentation_8cpp.html" target="_top" xlink:title=" ">
<polygon fill="none" stroke="black" points="5351,-134.5 5351,-164.5 5518,-164.5 5518,-134.5 5351,-134.5"/>
<text text-anchor="start" x="5359" y="-152.5" font-family="Helvetica,sans-Serif" font-size="10.00">lib/Transforms/Instrumentation</text>
<text text-anchor="middle" x="5434.5" y="-141.5" font-family="Helvetica,sans-Serif" font-size="10.00">/PGOInstrumentation.cpp</text>
</a>
</g>
</g>
<!-- Node1&#45;&gt;Node1209 -->
<g id="edge50" class="edge">
<title>Node1&#45;&gt;Node1209</title>
<path fill="none" stroke="midnightblue" d="M4520.31,-213.85C4671.5,-209.81 5036.92,-197.29 5341.5,-165 5344.59,-164.67 5347.73,-164.31 5350.9,-163.93"/>
<polygon fill="midnightblue" stroke="midnightblue" points="4520.14,-210.35 4510.23,-214.12 4520.32,-217.35 4520.14,-210.35"/>
</g>
<!-- Node1210 -->
<g id="node42" class="node">
<title>Node1210</title>
<g id="a_node42"><a xlink:href="SanitizerCoverage_8cpp.html" target="_top" xlink:title=" ">
<polygon fill="none" stroke="black" points="5536,-134.5 5536,-164.5 5703,-164.5 5703,-134.5 5536,-134.5"/>
<text text-anchor="start" x="5544" y="-152.5" font-family="Helvetica,sans-Serif" font-size="10.00">lib/Transforms/Instrumentation</text>
<text text-anchor="middle" x="5619.5" y="-141.5" font-family="Helvetica,sans-Serif" font-size="10.00">/SanitizerCoverage.cpp</text>
</a>
</g>
</g>
<!-- Node1&#45;&gt;Node1210 -->
<g id="edge51" class="edge">
<title>Node1&#45;&gt;Node1210</title>
<path fill="none" stroke="midnightblue" d="M4520.31,-214.82C4692.84,-212.58 5148.48,-203.22 5526.5,-165 5529.59,-164.69 5532.73,-164.34 5535.9,-163.97"/>
<polygon fill="midnightblue" stroke="midnightblue" points="4520.05,-211.32 4510.1,-214.95 4520.14,-218.32 4520.05,-211.32"/>
</g>
<!-- Node1211 -->
<g id="node43" class="node">
<title>Node1211</title>
<g id="a_node43"><a xlink:href="PruneEH_8cpp.html" target="_top" xlink:title=" ">
<polygon fill="none" stroke="black" points="5721,-134.5 5721,-164.5 5826,-164.5 5826,-134.5 5721,-134.5"/>
<text text-anchor="start" x="5729" y="-152.5" font-family="Helvetica,sans-Serif" font-size="10.00">lib/Transforms/IPO</text>
<text text-anchor="middle" x="5773.5" y="-141.5" font-family="Helvetica,sans-Serif" font-size="10.00">/PruneEH.cpp</text>
</a>
</g>
</g>
<!-- Node1&#45;&gt;Node1211 -->
<g id="edge52" class="edge">
<title>Node1&#45;&gt;Node1211</title>
<path fill="none" stroke="midnightblue" d="M4520.41,-214.43C4751.09,-210.68 5478.65,-196.6 5711.5,-165 5714.57,-164.58 5717.7,-164.09 5720.86,-163.53"/>
<polygon fill="midnightblue" stroke="midnightblue" points="4520.08,-210.94 4510.13,-214.6 4520.19,-217.94 4520.08,-210.94"/>
</g>
<!-- Node1212 -->
<g id="node44" class="node">
<title>Node1212</title>
<g id="a_node44"><a xlink:href="lib_2Transforms_2ObjCARC_2ObjCARC_8h.html" target="_top" xlink:title="This file defines common definitions/declarations used by the ObjC ARC Optimizer.">
<polygon fill="none" stroke="red" points="5882.5,-134.5 5882.5,-164.5 6014.5,-164.5 6014.5,-134.5 5882.5,-134.5"/>
<text text-anchor="start" x="5890.5" y="-152.5" font-family="Helvetica,sans-Serif" font-size="10.00">lib/Transforms/ObjCARC</text>
<text text-anchor="middle" x="5948.5" y="-141.5" font-family="Helvetica,sans-Serif" font-size="10.00">/ObjCARC.h</text>
</a>
</g>
</g>
<!-- Node1&#45;&gt;Node1212 -->
<g id="edge53" class="edge">
<title>Node1&#45;&gt;Node1212</title>
<path fill="none" stroke="midnightblue" d="M4520.2,-214.33C4768.9,-210 5602.74,-193.66 5868.5,-165 5872.99,-164.52 5877.61,-163.93 5882.25,-163.26"/>
<polygon fill="midnightblue" stroke="midnightblue" points="4520.14,-210.83 4510.2,-214.5 4520.26,-217.83 4520.14,-210.83"/>
</g>
<!-- Node1216 -->
<g id="node45" class="node">
<title>Node1216</title>
<g id="a_node45"><a xlink:href="ObjCARCContract_8cpp.html" target="_top" xlink:title="This file defines late ObjC ARC optimizations.">
<polygon fill="none" stroke="black" points="5798.5,-67.5 5798.5,-97.5 5930.5,-97.5 5930.5,-67.5 5798.5,-67.5"/>
<text text-anchor="start" x="5806.5" y="-85.5" font-family="Helvetica,sans-Serif" font-size="10.00">lib/Transforms/ObjCARC</text>
<text text-anchor="middle" x="5864.5" y="-74.5" font-family="Helvetica,sans-Serif" font-size="10.00">/ObjCARCContract.cpp</text>
</a>
</g>
</g>
<!-- Node1&#45;&gt;Node1216 -->
<g id="edge56" class="edge">
<title>Node1&#45;&gt;Node1216</title>
<path fill="none" stroke="midnightblue" d="M4520.61,-215.09C4796.17,-213.22 5780.92,-203.84 5834.5,-165 5856.11,-149.34 5862.18,-116.37 5863.87,-97.52"/>
<polygon fill="midnightblue" stroke="midnightblue" points="4520.32,-211.59 4510.34,-215.16 4520.36,-218.59 4520.32,-211.59"/>
</g>
<!-- Node1218 -->
<g id="node46" class="node">
<title>Node1218</title>
<g id="a_node46"><a xlink:href="ObjCARCOpts_8cpp.html" target="_top" xlink:title="This file defines ObjC ARC optimizations.">
<polygon fill="none" stroke="black" points="5967.5,-67.5 5967.5,-97.5 6099.5,-97.5 6099.5,-67.5 5967.5,-67.5"/>
<text text-anchor="start" x="5975.5" y="-85.5" font-family="Helvetica,sans-Serif" font-size="10.00">lib/Transforms/ObjCARC</text>
<text text-anchor="middle" x="6033.5" y="-74.5" font-family="Helvetica,sans-Serif" font-size="10.00">/ObjCARCOpts.cpp</text>
</a>
</g>
</g>
<!-- Node1&#45;&gt;Node1218 -->
<g id="edge57" class="edge">
<title>Node1&#45;&gt;Node1218</title>
<path fill="none" stroke="midnightblue" d="M4520.48,-215.77C4819.94,-216.57 5967.37,-216.29 6023.5,-165 6041.92,-148.17 6039.83,-116.27 6036.66,-97.76"/>
<polygon fill="midnightblue" stroke="midnightblue" points="4520.19,-212.27 4510.18,-215.74 4520.17,-219.27 4520.19,-212.27"/>
</g>
<!-- Node1220 -->
<g id="node47" class="node">
<title>Node1220</title>
<g id="a_node47"><a xlink:href="EscapeEnumerator_8cpp.html" target="_top" xlink:title=" ">
<polygon fill="none" stroke="black" points="6071,-134.5 6071,-164.5 6202,-164.5 6202,-134.5 6071,-134.5"/>
<text text-anchor="start" x="6079" y="-152.5" font-family="Helvetica,sans-Serif" font-size="10.00">lib/Transforms/Utils</text>
<text text-anchor="middle" x="6136.5" y="-141.5" font-family="Helvetica,sans-Serif" font-size="10.00">/EscapeEnumerator.cpp</text>
</a>
</g>
</g>
<!-- Node1&#45;&gt;Node1220 -->
<g id="edge58" class="edge">
<title>Node1&#45;&gt;Node1220</title>
<path fill="none" stroke="midnightblue" d="M4520.33,-214.67C4789.92,-211.29 5752.12,-197.19 6056.5,-165 6061.13,-164.51 6065.9,-163.91 6070.69,-163.22"/>
<polygon fill="midnightblue" stroke="midnightblue" points="4520.23,-211.17 4510.27,-214.79 4520.32,-218.17 4520.23,-211.17"/>
</g>
<!-- Node1221 -->
<g id="node48" class="node">
<title>Node1221</title>
<g id="a_node48"><a xlink:href="InlineFunction_8cpp.html" target="_top" xlink:title=" ">
<polygon fill="none" stroke="black" points="6220,-134.5 6220,-164.5 6331,-164.5 6331,-134.5 6220,-134.5"/>
<text text-anchor="start" x="6228" y="-152.5" font-family="Helvetica,sans-Serif" font-size="10.00">lib/Transforms/Utils</text>
<text text-anchor="middle" x="6275.5" y="-141.5" font-family="Helvetica,sans-Serif" font-size="10.00">/InlineFunction.cpp</text>
</a>
</g>
</g>
<!-- Node1&#45;&gt;Node1221 -->
<g id="edge59" class="edge">
<title>Node1&#45;&gt;Node1221</title>
<path fill="none" stroke="midnightblue" d="M4520.41,-215.3C4806.44,-214.23 5875.98,-207.41 6211.5,-165 6214.21,-164.66 6216.98,-164.25 6219.77,-163.8"/>
<polygon fill="midnightblue" stroke="midnightblue" points="4520.16,-211.81 4510.17,-215.34 4520.18,-218.81 4520.16,-211.81"/>
</g>
<!-- Node1222 -->
<g id="node49" class="node">
<title>Node1222</title>
<g id="a_node49"><a xlink:href="Local_8cpp.html" target="_top" xlink:title=" ">
<polygon fill="none" stroke="black" points="6349,-134.5 6349,-164.5 6460,-164.5 6460,-134.5 6349,-134.5"/>
<text text-anchor="start" x="6357" y="-152.5" font-family="Helvetica,sans-Serif" font-size="10.00">lib/Transforms/Utils</text>
<text text-anchor="middle" x="6404.5" y="-141.5" font-family="Helvetica,sans-Serif" font-size="10.00">/Local.cpp</text>
</a>
</g>
</g>
<!-- Node1&#45;&gt;Node1222 -->
<g id="edge60" class="edge">
<title>Node1&#45;&gt;Node1222</title>
<path fill="none" stroke="midnightblue" d="M4520.59,-215.47C4819.86,-215.04 5978.4,-210.41 6340.5,-165 6343.21,-164.66 6345.98,-164.26 6348.77,-163.8"/>
<polygon fill="midnightblue" stroke="midnightblue" points="4520.31,-211.97 4510.31,-215.48 4520.32,-218.97 4520.31,-211.97"/>
</g>
<!-- Node1223 -->
<g id="node50" class="node">
<title>Node1223</title>
<g id="a_node50"><a xlink:href="SimplifyCFG_8cpp.html" target="_top" xlink:title=" ">
<polygon fill="none" stroke="black" points="6478,-134.5 6478,-164.5 6589,-164.5 6589,-134.5 6478,-134.5"/>
<text text-anchor="start" x="6486" y="-152.5" font-family="Helvetica,sans-Serif" font-size="10.00">lib/Transforms/Utils</text>
<text text-anchor="middle" x="6533.5" y="-141.5" font-family="Helvetica,sans-Serif" font-size="10.00">/SimplifyCFG.cpp</text>
</a>
</g>
</g>
<!-- Node1&#45;&gt;Node1223 -->
<g id="edge61" class="edge">
<title>Node1&#45;&gt;Node1223</title>
<path fill="none" stroke="midnightblue" d="M4520.25,-215.61C4831.49,-215.79 6080.55,-213.44 6469.5,-165 6472.21,-164.66 6474.98,-164.26 6477.77,-163.81"/>
<polygon fill="midnightblue" stroke="midnightblue" points="4520.02,-212.11 4510.01,-215.6 4520.01,-219.11 4520.02,-212.11"/>
</g>
<!-- Node3 -->
<g id="node3" class="node">
<title>Node3</title>
<g id="a_node3"><a xlink:href="Attributor_8h.html" target="_top" xlink:title=" ">
<polygon fill="none" stroke="red" points="87.5,-67.5 87.5,-97.5 221.5,-97.5 221.5,-67.5 87.5,-67.5"/>
<text text-anchor="start" x="95.5" y="-85.5" font-family="Helvetica,sans-Serif" font-size="10.00">include/llvm/Transforms</text>
<text text-anchor="middle" x="154.5" y="-74.5" font-family="Helvetica,sans-Serif" font-size="10.00">/IPO/Attributor.h</text>
</a>
</g>
</g>
<!-- Node2&#45;&gt;Node3 -->
<g id="edge2" class="edge">
<title>Node2&#45;&gt;Node3</title>
<path fill="none" stroke="midnightblue" d="M786.68,-144.97C670.99,-138.71 434.44,-123.82 235.5,-98 230.97,-97.41 226.3,-96.74 221.61,-96.03"/>
<polygon fill="midnightblue" stroke="midnightblue" points="786.64,-148.47 796.82,-145.51 787.02,-141.48 786.64,-148.47"/>
</g>
<!-- Node5 -->
<g id="node4" class="node">
<title>Node5</title>
<g id="a_node4"><a xlink:href="PassBuilder_8cpp.html" target="_top" xlink:title="This file provides the implementation of the PassBuilder based on our static pass registry as well as...">
<polygon fill="none" stroke="black" points="0,-6 0,-25 143,-25 143,-6 0,-6"/>
<text text-anchor="middle" x="71.5" y="-13" font-family="Helvetica,sans-Serif" font-size="10.00">lib/Passes/PassBuilder.cpp</text>
</a>
</g>
</g>
<!-- Node2&#45;&gt;Node5 -->
<g id="edge7" class="edge">
<title>Node2&#45;&gt;Node5</title>
<path fill="none" stroke="midnightblue" d="M786.92,-149.06C604.57,-149.79 128.48,-146.95 78.5,-98 58.82,-78.72 64.95,-41.86 69.07,-25.13"/>
<polygon fill="midnightblue" stroke="midnightblue" points="786.96,-152.56 796.94,-149.01 786.93,-145.56 786.96,-152.56"/>
</g>
<!-- Node8 -->
<g id="node5" class="node">
<title>Node8</title>
<g id="a_node5"><a xlink:href="Attributor_8cpp.html" target="_top" xlink:title=" ">
<polygon fill="none" stroke="black" points="173,-0.5 173,-30.5 278,-30.5 278,-0.5 173,-0.5"/>
<text text-anchor="start" x="181" y="-18.5" font-family="Helvetica,sans-Serif" font-size="10.00">lib/Transforms/IPO</text>
<text text-anchor="middle" x="225.5" y="-7.5" font-family="Helvetica,sans-Serif" font-size="10.00">/Attributor.cpp</text>
</a>
</g>
</g>
<!-- Node2&#45;&gt;Node8 -->
<g id="edge8" class="edge">
<title>Node2&#45;&gt;Node8</title>
<path fill="none" stroke="midnightblue" d="M786.47,-146.2C639.21,-140.89 310.79,-126.04 268.5,-98 244.9,-82.35 233.38,-49.38 228.51,-30.52"/>
<polygon fill="midnightblue" stroke="midnightblue" points="786.64,-149.71 796.75,-146.57 786.88,-142.71 786.64,-149.71"/>
</g>
<!-- Node12 -->
<g id="node6" class="node">
<title>Node12</title>
<g id="a_node6"><a xlink:href="IVDescriptors_8cpp.html" target="_top" xlink:title=" ">
<polygon fill="none" stroke="black" points="278,-73 278,-92 439,-92 439,-73 278,-73"/>
<text text-anchor="middle" x="358.5" y="-80" font-family="Helvetica,sans-Serif" font-size="10.00">lib/Analysis/IVDescriptors.cpp</text>
</a>
</g>
</g>
<!-- Node2&#45;&gt;Node12 -->
<g id="edge5" class="edge">
<title>Node2&#45;&gt;Node12</title>
<path fill="none" stroke="midnightblue" d="M786.61,-140.55C704.97,-131.21 566.86,-114.84 448.5,-98 435.81,-96.19 422.14,-94.08 409.38,-92.03"/>
<polygon fill="midnightblue" stroke="midnightblue" points="786.44,-144.05 796.77,-141.71 787.23,-137.1 786.44,-144.05"/>
</g>
<!-- Node13 -->
<g id="node7" class="node">
<title>Node13</title>
<g id="a_node7"><a xlink:href="MustExecute_8cpp.html" target="_top" xlink:title=" ">
<polygon fill="none" stroke="black" points="457.5,-73 457.5,-92 615.5,-92 615.5,-73 457.5,-73"/>
<text text-anchor="middle" x="536.5" y="-80" font-family="Helvetica,sans-Serif" font-size="10.00">lib/Analysis/MustExecute.cpp</text>
</a>
</g>
</g>
<!-- Node2&#45;&gt;Node13 -->
<g id="edge6" class="edge">
<title>Node2&#45;&gt;Node13</title>
<path fill="none" stroke="midnightblue" d="M786.77,-134.18C723.04,-121.27 631.48,-102.73 578.59,-92.02"/>
<polygon fill="midnightblue" stroke="midnightblue" points="786.25,-137.64 796.74,-136.2 787.64,-130.78 786.25,-137.64"/>
</g>
<!-- Node14 -->
<g id="node8" class="node">
<title>Node14</title>
<g id="a_node8"><a xlink:href="DeadStoreElimination_8cpp.html" target="_top" xlink:title=" ">
<polygon fill="none" stroke="black" points="633.5,-67.5 633.5,-97.5 779.5,-97.5 779.5,-67.5 633.5,-67.5"/>
<text text-anchor="start" x="641.5" y="-85.5" font-family="Helvetica,sans-Serif" font-size="10.00">lib/Transforms/Scalar</text>
<text text-anchor="middle" x="706.5" y="-74.5" font-family="Helvetica,sans-Serif" font-size="10.00">/DeadStoreElimination.cpp</text>
</a>
</g>
</g>
<!-- Node2&#45;&gt;Node14 -->
<g id="edge9" class="edge">
<title>Node2&#45;&gt;Node14</title>
<path fill="none" stroke="midnightblue" d="M815.47,-130.41C791.36,-120.03 761.55,-107.2 739.2,-97.58"/>
<polygon fill="midnightblue" stroke="midnightblue" points="814.17,-133.66 824.74,-134.4 816.93,-127.23 814.17,-133.66"/>
</g>
<!-- Node15 -->
<g id="node9" class="node">
<title>Node15</title>
<g id="a_node9"><a xlink:href="LICM_8cpp.html" target="_top" xlink:title=" ">
<polygon fill="none" stroke="black" points="798,-67.5 798,-97.5 917,-97.5 917,-67.5 798,-67.5"/>
<text text-anchor="start" x="806" y="-85.5" font-family="Helvetica,sans-Serif" font-size="10.00">lib/Transforms/Scalar</text>
<text text-anchor="middle" x="857.5" y="-74.5" font-family="Helvetica,sans-Serif" font-size="10.00">/LICM.cpp</text>
</a>
</g>
</g>
<!-- Node2&#45;&gt;Node15 -->
<g id="edge10" class="edge">
<title>Node2&#45;&gt;Node15</title>
<path fill="none" stroke="midnightblue" d="M857.5,-124.11C857.5,-115.15 857.5,-105.32 857.5,-97.58"/>
<polygon fill="midnightblue" stroke="midnightblue" points="854,-124.4 857.5,-134.4 861,-124.4 854,-124.4"/>
</g>
<!-- Node16 -->
<g id="node10" class="node">
<title>Node16</title>
<g id="a_node10"><a xlink:href="LoopIdiomRecognize_8cpp.html" target="_top" xlink:title=" ">
<polygon fill="none" stroke="black" points="935,-67.5 935,-97.5 1076,-97.5 1076,-67.5 935,-67.5"/>
<text text-anchor="start" x="943" y="-85.5" font-family="Helvetica,sans-Serif" font-size="10.00">lib/Transforms/Scalar</text>
<text text-anchor="middle" x="1005.5" y="-74.5" font-family="Helvetica,sans-Serif" font-size="10.00">/LoopIdiomRecognize.cpp</text>
</a>
</g>
</g>
<!-- Node2&#45;&gt;Node16 -->
<g id="edge11" class="edge">
<title>Node2&#45;&gt;Node16</title>
<path fill="none" stroke="midnightblue" d="M899.01,-130.27C922.58,-119.92 951.64,-107.15 973.45,-97.58"/>
<polygon fill="midnightblue" stroke="midnightblue" points="897.36,-127.17 889.61,-134.4 900.18,-133.58 897.36,-127.17"/>
</g>
<!-- Node17 -->
<g id="node11" class="node">
<title>Node17</title>
<g id="a_node11"><a xlink:href="LoopUnswitch_8cpp.html" target="_top" xlink:title=" ">
<polygon fill="none" stroke="black" points="1094,-67.5 1094,-97.5 1213,-97.5 1213,-67.5 1094,-67.5"/>
<text text-anchor="start" x="1102" y="-85.5" font-family="Helvetica,sans-Serif" font-size="10.00">lib/Transforms/Scalar</text>
<text text-anchor="middle" x="1153.5" y="-74.5" font-family="Helvetica,sans-Serif" font-size="10.00">/LoopUnswitch.cpp</text>
</a>
</g>
</g>
<!-- Node2&#45;&gt;Node17 -->
<g id="edge12" class="edge">
<title>Node2&#45;&gt;Node17</title>
<path fill="none" stroke="midnightblue" d="M928,-133.02C978.61,-121.9 1046.07,-107.09 1093.98,-96.57"/>
<polygon fill="midnightblue" stroke="midnightblue" points="927.13,-129.63 918.11,-135.19 928.63,-136.46 927.13,-129.63"/>
</g>
<!-- Node18 -->
<g id="node12" class="node">
<title>Node18</title>
<g id="a_node12"><a xlink:href="SimpleLoopUnswitch_8cpp.html" target="_top" xlink:title=" ">
<polygon fill="none" stroke="black" points="1231.5,-67.5 1231.5,-97.5 1373.5,-97.5 1373.5,-67.5 1231.5,-67.5"/>
<text text-anchor="start" x="1239.5" y="-85.5" font-family="Helvetica,sans-Serif" font-size="10.00">lib/Transforms/Scalar</text>
<text text-anchor="middle" x="1302.5" y="-74.5" font-family="Helvetica,sans-Serif" font-size="10.00">/SimpleLoopUnswitch.cpp</text>
</a>
</g>
</g>
<!-- Node2&#45;&gt;Node18 -->
<g id="edge13" class="edge">
<title>Node2&#45;&gt;Node18</title>
<path fill="none" stroke="midnightblue" d="M928.21,-139.53C1001.64,-130.01 1119.8,-114.15 1221.5,-98 1224.75,-97.48 1228.06,-96.94 1231.41,-96.39"/>
<polygon fill="midnightblue" stroke="midnightblue" points="927.62,-136.07 918.15,-140.83 928.52,-143.02 927.62,-136.07"/>
</g>
<!-- Node19 -->
<g id="node13" class="node">
<title>Node19</title>
<g id="a_node13"><a xlink:href="LoopUnrollAndJam_8cpp.html" target="_top" xlink:title=" ">
<polygon fill="none" stroke="black" points="1391.5,-67.5 1391.5,-97.5 1521.5,-97.5 1521.5,-67.5 1391.5,-67.5"/>
<text text-anchor="start" x="1399.5" y="-85.5" font-family="Helvetica,sans-Serif" font-size="10.00">lib/Transforms/Utils</text>
<text text-anchor="middle" x="1456.5" y="-74.5" font-family="Helvetica,sans-Serif" font-size="10.00">/LoopUnrollAndJam.cpp</text>
</a>
</g>
</g>
<!-- Node2&#45;&gt;Node19 -->
<g id="edge14" class="edge">
<title>Node2&#45;&gt;Node19</title>
<path fill="none" stroke="midnightblue" d="M928.46,-143.88C1029.6,-136.8 1220.88,-121.55 1382.5,-98 1385.35,-97.58 1388.26,-97.13 1391.19,-96.66"/>
<polygon fill="midnightblue" stroke="midnightblue" points="928.1,-140.4 918.36,-144.58 928.58,-147.38 928.1,-140.4"/>
</g>
<!-- Node20 -->
<g id="node14" class="node">
<title>Node20</title>
<g id="a_node14"><a xlink:href="LoopUtils_8cpp.html" target="_top" xlink:title=" ">
<polygon fill="none" stroke="black" points="1540,-67.5 1540,-97.5 1651,-97.5 1651,-67.5 1540,-67.5"/>
<text text-anchor="start" x="1548" y="-85.5" font-family="Helvetica,sans-Serif" font-size="10.00">lib/Transforms/Utils</text>
<text text-anchor="middle" x="1595.5" y="-74.5" font-family="Helvetica,sans-Serif" font-size="10.00">/LoopUtils.cpp</text>
</a>
</g>
</g>
<!-- Node2&#45;&gt;Node20 -->
<g id="edge15" class="edge">
<title>Node2&#45;&gt;Node20</title>
<path fill="none" stroke="midnightblue" d="M928.2,-146.56C1051.21,-142.42 1312.36,-130.34 1530.5,-98 1533.59,-97.54 1536.75,-97.02 1539.93,-96.45"/>
<polygon fill="midnightblue" stroke="midnightblue" points="928.03,-143.06 918.15,-146.89 928.26,-150.06 928.03,-143.06"/>
</g>
<!-- Node3&#45;&gt;Node5 -->
<g id="edge3" class="edge">
<title>Node3&#45;&gt;Node5</title>
<path fill="none" stroke="midnightblue" d="M128.33,-61.01C112.92,-48.94 94.24,-34.3 82.6,-25.19"/>
<polygon fill="midnightblue" stroke="midnightblue" points="126.46,-63.99 136.49,-67.4 130.78,-58.47 126.46,-63.99"/>
</g>
<!-- Node3&#45;&gt;Node8 -->
<g id="edge4" class="edge">
<title>Node3&#45;&gt;Node8</title>
<path fill="none" stroke="midnightblue" d="M177.33,-60.6C188.05,-50.78 200.55,-39.34 210.12,-30.58"/>
<polygon fill="midnightblue" stroke="midnightblue" points="174.92,-58.06 169.91,-67.4 179.65,-63.22 174.92,-58.06"/>
</g>
<!-- Node22 -->
<g id="node16" class="node">
<title>Node22</title>
<g id="a_node16"><a xlink:href="CallLowering_8h.html" target="_top" xlink:title="This file describes how to lower LLVM calls to machine code calls.">
<polygon fill="none" stroke="red" points="1669.5,-67.5 1669.5,-97.5 1813.5,-97.5 1813.5,-67.5 1669.5,-67.5"/>
<text text-anchor="start" x="1677.5" y="-85.5" font-family="Helvetica,sans-Serif" font-size="10.00">include/llvm/CodeGen</text>
<text text-anchor="middle" x="1741.5" y="-74.5" font-family="Helvetica,sans-Serif" font-size="10.00">/GlobalISel/CallLowering.h</text>
</a>
</g>
</g>
<!-- Node21&#45;&gt;Node22 -->
<g id="edge17" class="edge">
<title>Node21&#45;&gt;Node22</title>
<path fill="none" stroke="midnightblue" d="M2706.3,-147.75C2546.51,-145.41 2151.07,-135.94 1822.5,-98 1819.66,-97.67 1816.77,-97.31 1813.86,-96.91"/>
<polygon fill="midnightblue" stroke="midnightblue" points="2706.43,-151.25 2716.48,-147.89 2706.53,-144.25 2706.43,-151.25"/>
</g>
<!-- Node326 -->
<g id="node17" class="node">
<title>Node326</title>
<g id="a_node17"><a xlink:href="GISelChangeObserver_8h.html" target="_top" xlink:title="This contains common code to allow clients to notify changes to machine instr.">
<polygon fill="none" stroke="red" points="1832,-67.5 1832,-97.5 2019,-97.5 2019,-67.5 1832,-67.5"/>
<text text-anchor="start" x="1840" y="-85.5" font-family="Helvetica,sans-Serif" font-size="10.00">include/llvm/CodeGen</text>
<text text-anchor="middle" x="1925.5" y="-74.5" font-family="Helvetica,sans-Serif" font-size="10.00">/GlobalISel/GISelChangeObserver.h</text>
</a>
</g>
</g>
<!-- Node21&#45;&gt;Node326 -->
<g id="edge18" class="edge">
<title>Node21&#45;&gt;Node326</title>
<path fill="none" stroke="midnightblue" d="M2706,-145.37C2571.96,-139.2 2276.46,-123.77 2028.5,-98 2025.45,-97.68 2022.34,-97.34 2019.21,-96.99"/>
<polygon fill="midnightblue" stroke="midnightblue" points="2705.99,-148.87 2716.14,-145.84 2706.31,-141.88 2705.99,-148.87"/>
</g>
<!-- Node354 -->
<g id="node18" class="node">
<title>Node354</title>
<g id="a_node18"><a xlink:href="InstructionSelector_8h.html" target="_top" xlink:title=" ">
<polygon fill="none" stroke="red" points="2037.5,-67.5 2037.5,-97.5 2209.5,-97.5 2209.5,-67.5 2037.5,-67.5"/>
<text text-anchor="start" x="2045.5" y="-85.5" font-family="Helvetica,sans-Serif" font-size="10.00">include/llvm/CodeGen</text>
<text text-anchor="middle" x="2123.5" y="-74.5" font-family="Helvetica,sans-Serif" font-size="10.00">/GlobalISel/InstructionSelector.h</text>
</a>
</g>
</g>
<!-- Node21&#45;&gt;Node354 -->
<g id="edge19" class="edge">
<title>Node21&#45;&gt;Node354</title>
<path fill="none" stroke="midnightblue" d="M2706.11,-143.15C2600.04,-135.03 2396.23,-118.37 2223.5,-98 2218.97,-97.47 2214.33,-96.89 2209.65,-96.29"/>
<polygon fill="midnightblue" stroke="midnightblue" points="2706.14,-146.66 2716.38,-143.93 2706.67,-139.68 2706.14,-146.66"/>
</g>
<!-- Node889 -->
<g id="node19" class="node">
<title>Node889</title>
<g id="a_node19"><a xlink:href="LegalizerInfo_8h.html" target="_top" xlink:title="Interface for Targets to specify which operations they can successfully select and how the others sho...">
<polygon fill="none" stroke="red" points="2265.5,-67.5 2265.5,-97.5 2409.5,-97.5 2409.5,-67.5 2265.5,-67.5"/>
<text text-anchor="start" x="2273.5" y="-85.5" font-family="Helvetica,sans-Serif" font-size="10.00">include/llvm/CodeGen</text>
<text text-anchor="middle" x="2337.5" y="-74.5" font-family="Helvetica,sans-Serif" font-size="10.00">/GlobalISel/LegalizerInfo.h</text>
</a>
</g>
</g>
<!-- Node21&#45;&gt;Node889 -->
<g id="edge20" class="edge">
<title>Node21&#45;&gt;Node889</title>
<path fill="none" stroke="midnightblue" d="M2706.3,-139.19C2633.53,-129.61 2518.05,-113.89 2418.5,-98 2415.68,-97.55 2412.8,-97.08 2409.9,-96.6"/>
<polygon fill="midnightblue" stroke="midnightblue" points="2705.91,-142.67 2716.28,-140.5 2706.82,-135.73 2705.91,-142.67"/>
</g>
<!-- Node337 -->
<g id="node20" class="node">
<title>Node337</title>
<g id="a_node20"><a xlink:href="LoadStoreOpt_8h.html" target="_top" xlink:title=" ">
<polygon fill="none" stroke="red" points="2214,-0.5 2214,-30.5 2361,-30.5 2361,-0.5 2214,-0.5"/>
<text text-anchor="start" x="2222" y="-18.5" font-family="Helvetica,sans-Serif" font-size="10.00">include/llvm/CodeGen</text>
<text text-anchor="middle" x="2287.5" y="-7.5" font-family="Helvetica,sans-Serif" font-size="10.00">/GlobalISel/LoadStoreOpt.h</text>
</a>
</g>
</g>
<!-- Node21&#45;&gt;Node337 -->
<g id="edge22" class="edge">
<title>Node21&#45;&gt;Node337</title>
<path fill="none" stroke="midnightblue" d="M2706.08,-146.78C2569.78,-142.8 2286.14,-130.64 2256.5,-98 2238.9,-78.61 2259.24,-48.21 2274.29,-30.53"/>
<polygon fill="midnightblue" stroke="midnightblue" points="2706.32,-150.29 2716.42,-147.08 2706.52,-143.29 2706.32,-150.29"/>
</g>
<!-- Node899 -->
<g id="node21" class="node">
<title>Node899</title>
<g id="a_node21"><a xlink:href="IndirectThunks_8h.html" target="_top" xlink:title="Contains a base class for Passes that inject an MI thunk.">
<polygon fill="none" stroke="red" points="2427.5,-67.5 2427.5,-97.5 2551.5,-97.5 2551.5,-67.5 2427.5,-67.5"/>
<text text-anchor="start" x="2435.5" y="-85.5" font-family="Helvetica,sans-Serif" font-size="10.00">include/llvm/CodeGen</text>
<text text-anchor="middle" x="2489.5" y="-74.5" font-family="Helvetica,sans-Serif" font-size="10.00">/IndirectThunks.h</text>
</a>
</g>
</g>
<!-- Node21&#45;&gt;Node899 -->
<g id="edge23" class="edge">
<title>Node21&#45;&gt;Node899</title>
<path fill="none" stroke="midnightblue" d="M2706.23,-132.24C2658.69,-121.55 2597.1,-107.7 2551.74,-97.5"/>
<polygon fill="midnightblue" stroke="midnightblue" points="2705.62,-135.7 2716.15,-134.48 2707.16,-128.87 2705.62,-135.7"/>
</g>
<!-- Node900 -->
<g id="node22" class="node">
<title>Node900</title>
<g id="a_node22"><a xlink:href="LiveRangeEdit_8h.html" target="_top" xlink:title=" ">
<polygon fill="none" stroke="red" points="2569.5,-67.5 2569.5,-97.5 2693.5,-97.5 2693.5,-67.5 2569.5,-67.5"/>
<text text-anchor="start" x="2577.5" y="-85.5" font-family="Helvetica,sans-Serif" font-size="10.00">include/llvm/CodeGen</text>
<text text-anchor="middle" x="2631.5" y="-74.5" font-family="Helvetica,sans-Serif" font-size="10.00">/LiveRangeEdit.h</text>
</a>
</g>
</g>
<!-- Node21&#45;&gt;Node900 -->
<g id="edge24" class="edge">
<title>Node21&#45;&gt;Node900</title>
<path fill="none" stroke="midnightblue" d="M2737.27,-130.27C2713.86,-119.92 2684.99,-107.15 2663.33,-97.58"/>
<polygon fill="midnightblue" stroke="midnightblue" points="2736.04,-133.55 2746.6,-134.4 2738.87,-127.15 2736.04,-133.55"/>
</g>
<!-- Node21&#45;&gt;Node374 -->
<g id="edge25" class="edge">
<title>Node21&#45;&gt;Node374</title>
<path fill="none" stroke="midnightblue" d="M2778.5,-124.11C2778.5,-115.15 2778.5,-105.32 2778.5,-97.58"/>
<polygon fill="midnightblue" stroke="midnightblue" points="2775,-124.4 2778.5,-134.4 2782,-124.4 2775,-124.4"/>
</g>
<!-- Node21&#45;&gt;Node406 -->
<g id="edge26" class="edge">
<title>Node21&#45;&gt;Node406</title>
<path fill="none" stroke="midnightblue" d="M2826.47,-130.78C2860.6,-118.18 2904.93,-101.81 2931.47,-92.01"/>
<polygon fill="midnightblue" stroke="midnightblue" points="2824.86,-127.65 2816.69,-134.4 2827.28,-134.21 2824.86,-127.65"/>
</g>
<!-- Node21&#45;&gt;Node419 -->
<g id="edge27" class="edge">
<title>Node21&#45;&gt;Node419</title>
<path fill="none" stroke="midnightblue" d="M2850.94,-135.84C2924.91,-122.92 3037.71,-103.21 3101.7,-92.03"/>
<polygon fill="midnightblue" stroke="midnightblue" points="2850.01,-132.45 2840.76,-137.62 2851.22,-139.35 2850.01,-132.45"/>
</g>
<!-- Node21&#45;&gt;Node452 -->
<g id="edge28" class="edge">
<title>Node21&#45;&gt;Node452</title>
<path fill="none" stroke="midnightblue" d="M2850.79,-142.23C2942.9,-133.88 3106.91,-117.85 3246.5,-98 3249.36,-97.59 3252.28,-97.16 3255.22,-96.71"/>
<polygon fill="midnightblue" stroke="midnightblue" points="2850.39,-138.75 2840.74,-143.13 2851.02,-145.72 2850.39,-138.75"/>
</g>
<!-- Node21&#45;&gt;Node454 -->
<g id="edge29" class="edge">
<title>Node21&#45;&gt;Node454</title>
<path fill="none" stroke="midnightblue" d="M2850.92,-144.96C2968.62,-138.71 3208.61,-123.86 3410.5,-98 3413.37,-97.63 3416.29,-97.23 3419.24,-96.81"/>
<polygon fill="midnightblue" stroke="midnightblue" points="2850.4,-141.48 2840.6,-145.51 2850.77,-148.48 2850.4,-141.48"/>
</g>
<!-- Node21&#45;&gt;Node825 -->
<g id="edge30" class="edge">
<title>Node21&#45;&gt;Node825</title>
<path fill="none" stroke="midnightblue" d="M2850.71,-145.59C2990.62,-139.57 3308.3,-124.12 3574.5,-98 3590.93,-96.39 3608.71,-94.21 3625.04,-92.03"/>
<polygon fill="midnightblue" stroke="midnightblue" points="2850.39,-142.1 2840.54,-146.02 2850.68,-149.09 2850.39,-142.1"/>
</g>
<!-- Node21&#45;&gt;Node833 -->
<g id="edge31" class="edge">
<title>Node21&#45;&gt;Node833</title>
<path fill="none" stroke="midnightblue" d="M2850.77,-147.14C3017.23,-143.5 3440.38,-131.48 3792.5,-98 3808.5,-96.48 3825.82,-94.26 3841.62,-92.02"/>
<polygon fill="midnightblue" stroke="midnightblue" points="2850.58,-143.64 2840.66,-147.35 2850.73,-150.64 2850.58,-143.64"/>
</g>
<!-- Node889&#45;&gt;Node337 -->
<g id="edge21" class="edge">
<title>Node889&#45;&gt;Node337</title>
<path fill="none" stroke="midnightblue" d="M2320.54,-59.45C2313.19,-49.9 2304.81,-39 2298.33,-30.58"/>
<polygon fill="midnightblue" stroke="midnightblue" points="2317.78,-61.6 2326.65,-67.4 2323.33,-57.34 2317.78,-61.6"/>
</g>
<!-- Node1212&#45;&gt;Node1216 -->
<g id="edge54" class="edge">
<title>Node1212&#45;&gt;Node1216</title>
<path fill="none" stroke="midnightblue" d="M5922.22,-128.17C5909.38,-118.23 5894.24,-106.51 5882.69,-97.58"/>
<polygon fill="midnightblue" stroke="midnightblue" points="5920.22,-131.04 5930.27,-134.4 5924.51,-125.51 5920.22,-131.04"/>
</g>
<!-- Node1212&#45;&gt;Node1218 -->
<g id="edge55" class="edge">
<title>Node1212&#45;&gt;Node1218</title>
<path fill="none" stroke="midnightblue" d="M5975.09,-128.17C5988.09,-118.23 6003.4,-106.51 6015.09,-97.58"/>
<polygon fill="midnightblue" stroke="midnightblue" points="5972.76,-125.54 5966.94,-134.4 5977.01,-131.1 5972.76,-125.54"/>
</g>
</g>
</svg>
