<?xml version="1.0" encoding="UTF-8" standalone="no"?>
<!DOCTYPE svg PUBLIC "-//W3C//DTD SVG 1.1//EN"
 "http://www.w3.org/Graphics/SVG/1.1/DTD/svg11.dtd">
<!-- Generated by graphviz version 2.48.0 (0)
 -->
<!-- Title: include/llvm/Support/FormattedStream.h Pages: 1 -->
<svg width="7364pt" height="184pt"
 viewBox="0.00 0.00 7363.50 184.00" xmlns="http://www.w3.org/2000/svg" xmlns:xlink="http://www.w3.org/1999/xlink">
<g id="graph0" class="graph" transform="scale(1 1) rotate(0) translate(4 180)">
<title>include/llvm/Support/FormattedStream.h</title>
<!-- Node1 -->
<g id="node1" class="node">
<title>Node1</title>
<g id="a_node1"><a xlink:title=" ">
<polygon fill="#bfbfbf" stroke="black" points="3329.5,-145.5 3329.5,-175.5 3446.5,-175.5 3446.5,-145.5 3329.5,-145.5"/>
<text text-anchor="start" x="3337.5" y="-163.5" font-family="Helvetica,sans-Serif" font-size="10.00">include/llvm/Support</text>
<text text-anchor="middle" x="3388" y="-152.5" font-family="Helvetica,sans-Serif" font-size="10.00">/FormattedStream.h</text>
</a>
</g>
</g>
<!-- Node2 -->
<g id="node2" class="node">
<title>Node2</title>
<g id="a_node2"><a xlink:href="TargetRegistry_8h.html" target="_top" xlink:title=" ">
<polygon fill="none" stroke="red" points="1274,-78.5 1274,-97.5 1450,-97.5 1450,-78.5 1274,-78.5"/>
<text text-anchor="middle" x="1362" y="-85.5" font-family="Helvetica,sans-Serif" font-size="10.00">include/llvm/MC/TargetRegistry.h</text>
</a>
</g>
</g>
<!-- Node1&#45;&gt;Node2 -->
<g id="edge1" class="edge">
<title>Node1&#45;&gt;Node2</title>
<path fill="none" stroke="midnightblue" d="M3318.83,-159.18C3019.81,-157.58 1836.82,-148.82 1467,-109 1444.12,-106.54 1418.77,-101.77 1398.71,-97.5"/>
<polygon fill="midnightblue" stroke="midnightblue" points="3319.07,-162.68 3329.09,-159.24 3319.11,-155.68 3319.07,-162.68"/>
</g>
<!-- Node7 -->
<g id="node7" class="node">
<title>Node7</title>
<g id="a_node7"><a xlink:href="LLVMTargetMachine_8cpp.html" target="_top" xlink:title=" ">
<polygon fill="none" stroke="black" points="0,-6 0,-25 196,-25 196,-6 0,-6"/>
<text text-anchor="middle" x="98" y="-13" font-family="Helvetica,sans-Serif" font-size="10.00">lib/CodeGen/LLVMTargetMachine.cpp</text>
</a>
</g>
</g>
<!-- Node1&#45;&gt;Node7 -->
<g id="edge28" class="edge">
<title>Node1&#45;&gt;Node7</title>
<path fill="none" stroke="midnightblue" d="M3319.27,-159.24C2906.09,-157.57 760.35,-147.11 470,-109 337.37,-91.59 183.68,-44.5 123.77,-25.06"/>
<polygon fill="midnightblue" stroke="midnightblue" points="3319.27,-162.74 3329.28,-159.28 3319.3,-155.74 3319.27,-162.74"/>
</g>
<!-- Node20 -->
<g id="node8" class="node">
<title>Node20</title>
<g id="a_node8"><a xlink:href="MCAsmStreamer_8cpp.html" target="_top" xlink:title=" ">
<polygon fill="none" stroke="black" points="214,-6 214,-25 366,-25 366,-6 214,-6"/>
<text text-anchor="middle" x="290" y="-13" font-family="Helvetica,sans-Serif" font-size="10.00">lib/MC/MCAsmStreamer.cpp</text>
</a>
</g>
</g>
<!-- Node1&#45;&gt;Node20 -->
<g id="edge31" class="edge">
<title>Node1&#45;&gt;Node20</title>
<path fill="none" stroke="midnightblue" d="M3319.1,-159.12C2922.9,-156.79 943.02,-143.49 674,-109 537.29,-91.47 378.53,-44.45 316.63,-25.05"/>
<polygon fill="midnightblue" stroke="midnightblue" points="3319.24,-162.62 3329.26,-159.18 3319.29,-155.62 3319.24,-162.62"/>
</g>
<!-- Node21 -->
<g id="node9" class="node">
<title>Node21</title>
<g id="a_node9"><a xlink:href="Disassembler_8cpp.html" target="_top" xlink:title=" ">
<polygon fill="none" stroke="black" points="384.5,-0.5 384.5,-30.5 517.5,-30.5 517.5,-0.5 384.5,-0.5"/>
<text text-anchor="start" x="392.5" y="-18.5" font-family="Helvetica,sans-Serif" font-size="10.00">lib/MC/MCDisassembler</text>
<text text-anchor="middle" x="451" y="-7.5" font-family="Helvetica,sans-Serif" font-size="10.00">/Disassembler.cpp</text>
</a>
</g>
</g>
<!-- Node1&#45;&gt;Node21 -->
<g id="edge32" class="edge">
<title>Node1&#45;&gt;Node21</title>
<path fill="none" stroke="midnightblue" d="M3319.26,-159.69C2971.86,-160.44 1407.03,-160.79 924,-109 771.13,-92.61 594.02,-52.09 506.23,-30.53"/>
<polygon fill="midnightblue" stroke="midnightblue" points="3319.43,-163.19 3329.42,-159.67 3319.41,-156.19 3319.43,-163.19"/>
</g>
<!-- Node51 -->
<g id="node10" class="node">
<title>Node51</title>
<g id="a_node10"><a xlink:href="ARCMCTargetDesc_8cpp.html" target="_top" xlink:title=" ">
<polygon fill="none" stroke="black" points="536,-0.5 536,-30.5 694,-30.5 694,-0.5 536,-0.5"/>
<text text-anchor="start" x="544" y="-18.5" font-family="Helvetica,sans-Serif" font-size="10.00">lib/Target/ARC/MCTargetDesc</text>
<text text-anchor="middle" x="615" y="-7.5" font-family="Helvetica,sans-Serif" font-size="10.00">/ARCMCTargetDesc.cpp</text>
</a>
</g>
</g>
<!-- Node1&#45;&gt;Node51 -->
<g id="edge36" class="edge">
<title>Node1&#45;&gt;Node51</title>
<path fill="none" stroke="midnightblue" d="M3319.06,-158.92C3001.53,-156.09 1677.86,-142.45 1265,-109 1056.81,-92.13 813.61,-52.02 692.2,-30.58"/>
<polygon fill="midnightblue" stroke="midnightblue" points="3319.45,-162.42 3329.48,-159.01 3319.52,-155.42 3319.45,-162.42"/>
</g>
<!-- Node75 -->
<g id="node11" class="node">
<title>Node75</title>
<g id="a_node11"><a xlink:href="BPFTargetMachine_8cpp.html" target="_top" xlink:title=" ">
<polygon fill="none" stroke="black" points="1295,-0.5 1295,-30.5 1429,-30.5 1429,-0.5 1295,-0.5"/>
<text text-anchor="start" x="1303" y="-18.5" font-family="Helvetica,sans-Serif" font-size="10.00">lib/Target/BPF/BPFTarget</text>
<text text-anchor="middle" x="1362" y="-7.5" font-family="Helvetica,sans-Serif" font-size="10.00">Machine.cpp</text>
</a>
</g>
</g>
<!-- Node1&#45;&gt;Node75 -->
<g id="edge40" class="edge">
<title>Node1&#45;&gt;Node75</title>
<path fill="none" stroke="midnightblue" d="M3319.17,-159C3010.71,-156.57 1763.07,-144.61 1592,-109 1514.47,-92.86 1429.57,-52.14 1387.95,-30.5"/>
<polygon fill="midnightblue" stroke="midnightblue" points="3319.29,-162.5 3329.32,-159.08 3319.35,-155.5 3319.29,-162.5"/>
</g>
<!-- Node95 -->
<g id="node12" class="node">
<title>Node95</title>
<g id="a_node12"><a xlink:href="LanaiTargetMachine_8cpp.html" target="_top" xlink:title=" ">
<polygon fill="none" stroke="black" points="1447,-0.5 1447,-30.5 1597,-30.5 1597,-0.5 1447,-0.5"/>
<text text-anchor="start" x="1455" y="-18.5" font-family="Helvetica,sans-Serif" font-size="10.00">lib/Target/Lanai/LanaiTarget</text>
<text text-anchor="middle" x="1522" y="-7.5" font-family="Helvetica,sans-Serif" font-size="10.00">Machine.cpp</text>
</a>
</g>
</g>
<!-- Node1&#45;&gt;Node95 -->
<g id="edge43" class="edge">
<title>Node1&#45;&gt;Node95</title>
<path fill="none" stroke="midnightblue" d="M3319.06,-159.46C3019.66,-159.03 1840.1,-154.45 1681,-109 1624.5,-92.86 1567.08,-52.14 1539.25,-30.5"/>
<polygon fill="midnightblue" stroke="midnightblue" points="3319.33,-162.96 3329.34,-159.48 3319.34,-155.96 3319.33,-162.96"/>
</g>
<!-- Node105 -->
<g id="node13" class="node">
<title>Node105</title>
<g id="a_node13"><a xlink:href="M68kMCTargetDesc_8cpp.html" target="_top" xlink:title="This file provides M68k target specific descriptions.">
<polygon fill="none" stroke="black" points="1615.5,-0.5 1615.5,-30.5 1776.5,-30.5 1776.5,-0.5 1615.5,-0.5"/>
<text text-anchor="start" x="1623.5" y="-18.5" font-family="Helvetica,sans-Serif" font-size="10.00">lib/Target/M68k/MCTarget</text>
<text text-anchor="middle" x="1696" y="-7.5" font-family="Helvetica,sans-Serif" font-size="10.00">Desc/M68kMCTargetDesc.cpp</text>
</a>
</g>
</g>
<!-- Node1&#45;&gt;Node105 -->
<g id="edge45" class="edge">
<title>Node1&#45;&gt;Node105</title>
<path fill="none" stroke="midnightblue" d="M3319.16,-158.73C3005.67,-155.04 1727.01,-138.25 1698,-109 1677.64,-88.47 1684.92,-51.08 1691.04,-30.69"/>
<polygon fill="midnightblue" stroke="midnightblue" points="3319.43,-162.23 3329.47,-158.85 3319.51,-155.23 3319.43,-162.23"/>
</g>
<!-- Node109 -->
<g id="node14" class="node">
<title>Node109</title>
<g id="a_node14"><a xlink:href="MipsMCTargetDesc_8cpp.html" target="_top" xlink:title=" ">
<polygon fill="none" stroke="black" points="1794.5,-0.5 1794.5,-30.5 1951.5,-30.5 1951.5,-0.5 1794.5,-0.5"/>
<text text-anchor="start" x="1802.5" y="-18.5" font-family="Helvetica,sans-Serif" font-size="10.00">lib/Target/Mips/MCTarget</text>
<text text-anchor="middle" x="1873" y="-7.5" font-family="Helvetica,sans-Serif" font-size="10.00">Desc/MipsMCTargetDesc.cpp</text>
</a>
</g>
</g>
<!-- Node1&#45;&gt;Node109 -->
<g id="edge46" class="edge">
<title>Node1&#45;&gt;Node109</title>
<path fill="none" stroke="midnightblue" d="M3319.16,-158.72C3007.14,-155.05 1739.45,-138.32 1711,-109 1698,-95.6 1699.94,-82.04 1711,-67 1722.09,-51.93 1762.04,-39.39 1799.5,-30.57"/>
<polygon fill="midnightblue" stroke="midnightblue" points="3319.38,-162.23 3329.42,-158.84 3319.46,-155.23 3319.38,-162.23"/>
</g>
<!-- Node130 -->
<g id="node15" class="node">
<title>Node130</title>
<g id="a_node15"><a xlink:href="PPCMCTargetDesc_8cpp.html" target="_top" xlink:title=" ">
<polygon fill="none" stroke="black" points="1969.5,-0.5 1969.5,-30.5 2170.5,-30.5 2170.5,-0.5 1969.5,-0.5"/>
<text text-anchor="start" x="1977.5" y="-18.5" font-family="Helvetica,sans-Serif" font-size="10.00">lib/Target/PowerPC</text>
<text text-anchor="middle" x="2070" y="-7.5" font-family="Helvetica,sans-Serif" font-size="10.00">/MCTargetDesc/PPCMCTargetDesc.cpp</text>
</a>
</g>
</g>
<!-- Node1&#45;&gt;Node130 -->
<g id="edge50" class="edge">
<title>Node1&#45;&gt;Node130</title>
<path fill="none" stroke="midnightblue" d="M3319.23,-158.71C3008.93,-154.97 1753.2,-138.07 1725,-109 1712,-95.6 1712.79,-81.12 1725,-67 1727.03,-64.65 1868.05,-44.59 1969.14,-30.47"/>
<polygon fill="midnightblue" stroke="midnightblue" points="3319.39,-162.21 3329.43,-158.83 3319.47,-155.21 3319.39,-162.21"/>
</g>
<!-- Node148 -->
<g id="node16" class="node">
<title>Node148</title>
<g id="a_node16"><a xlink:href="RISCVTargetMachine_8cpp.html" target="_top" xlink:title=" ">
<polygon fill="none" stroke="black" points="2189,-0.5 2189,-30.5 2345,-30.5 2345,-0.5 2189,-0.5"/>
<text text-anchor="start" x="2197" y="-18.5" font-family="Helvetica,sans-Serif" font-size="10.00">lib/Target/RISCV/RISCVTarget</text>
<text text-anchor="middle" x="2267" y="-7.5" font-family="Helvetica,sans-Serif" font-size="10.00">Machine.cpp</text>
</a>
</g>
</g>
<!-- Node1&#45;&gt;Node148 -->
<g id="edge53" class="edge">
<title>Node1&#45;&gt;Node148</title>
<path fill="none" stroke="midnightblue" d="M3319.3,-158.69C3010.75,-154.89 1766.94,-137.81 1739,-109 1726,-95.6 1726.35,-80.73 1739,-67 1772.32,-30.85 2131.21,-37.05 2180,-31 2182.89,-30.64 2185.83,-30.26 2188.79,-29.85"/>
<polygon fill="midnightblue" stroke="midnightblue" points="3319.4,-162.19 3329.44,-158.81 3319.49,-155.19 3319.4,-162.19"/>
</g>
<!-- Node165 -->
<g id="node17" class="node">
<title>Node165</title>
<g id="a_node17"><a xlink:href="TargetMachineC_8cpp.html" target="_top" xlink:title=" ">
<polygon fill="none" stroke="black" points="2363,-0.5 2363,-30.5 2499,-30.5 2499,-0.5 2363,-0.5"/>
<text text-anchor="start" x="2371" y="-18.5" font-family="Helvetica,sans-Serif" font-size="10.00">lib/Target/TargetMachine</text>
<text text-anchor="middle" x="2431" y="-7.5" font-family="Helvetica,sans-Serif" font-size="10.00">C.cpp</text>
</a>
</g>
</g>
<!-- Node1&#45;&gt;Node165 -->
<g id="edge55" class="edge">
<title>Node1&#45;&gt;Node165</title>
<path fill="none" stroke="midnightblue" d="M3319.37,-158.67C3012.59,-154.81 1780.69,-137.55 1753,-109 1740.01,-95.6 1740.2,-80.59 1753,-67 1798.87,-18.3 2287.61,-39.21 2354,-31 2356.84,-30.65 2359.72,-30.26 2362.64,-29.84"/>
<polygon fill="midnightblue" stroke="midnightblue" points="3319.42,-162.17 3329.46,-158.8 3319.51,-155.17 3319.42,-162.17"/>
</g>
<!-- Node193 -->
<g id="node18" class="node">
<title>Node193</title>
<g id="a_node18"><a xlink:href="XCoreMCTargetDesc_8cpp.html" target="_top" xlink:title=" ">
<polygon fill="none" stroke="black" points="2517,-0.5 2517,-30.5 2679,-30.5 2679,-0.5 2517,-0.5"/>
<text text-anchor="start" x="2525" y="-18.5" font-family="Helvetica,sans-Serif" font-size="10.00">lib/Target/XCore/MCTarget</text>
<text text-anchor="middle" x="2598" y="-7.5" font-family="Helvetica,sans-Serif" font-size="10.00">Desc/XCoreMCTargetDesc.cpp</text>
</a>
</g>
</g>
<!-- Node1&#45;&gt;Node193 -->
<g id="edge60" class="edge">
<title>Node1&#45;&gt;Node193</title>
<path fill="none" stroke="midnightblue" d="M3319.08,-158.65C3013.81,-154.7 1797.36,-137.23 1770,-109 1655.22,9.42 2343.98,-48.16 2508,-31 2510.83,-30.7 2513.71,-30.38 2516.62,-30.03"/>
<polygon fill="midnightblue" stroke="midnightblue" points="3319.08,-162.15 3329.12,-158.77 3319.17,-155.15 3319.08,-162.15"/>
</g>
<!-- Node199 -->
<g id="node19" class="node">
<title>Node199</title>
<g id="a_node19"><a xlink:href="InlineCost_8cpp.html" target="_top" xlink:title=" ">
<polygon fill="none" stroke="black" points="1778.5,-78.5 1778.5,-97.5 1923.5,-97.5 1923.5,-78.5 1778.5,-78.5"/>
<text text-anchor="middle" x="1851" y="-85.5" font-family="Helvetica,sans-Serif" font-size="10.00">lib/Analysis/InlineCost.cpp</text>
</a>
</g>
</g>
<!-- Node1&#45;&gt;Node199 -->
<g id="edge18" class="edge">
<title>Node1&#45;&gt;Node199</title>
<path fill="none" stroke="midnightblue" d="M3319.31,-158.98C3068.96,-156.79 2205.9,-146.61 1933,-109 1915.15,-106.54 1895.52,-101.83 1879.94,-97.59"/>
<polygon fill="midnightblue" stroke="midnightblue" points="3319.33,-162.48 3329.36,-159.06 3319.39,-155.48 3319.33,-162.48"/>
</g>
<!-- Node200 -->
<g id="node20" class="node">
<title>Node200</title>
<g id="a_node20"><a xlink:href="LazyValueInfo_8cpp.html" target="_top" xlink:title=" ">
<polygon fill="none" stroke="black" points="1942,-78.5 1942,-97.5 2106,-97.5 2106,-78.5 1942,-78.5"/>
<text text-anchor="middle" x="2024" y="-85.5" font-family="Helvetica,sans-Serif" font-size="10.00">lib/Analysis/LazyValueInfo.cpp</text>
</a>
</g>
</g>
<!-- Node1&#45;&gt;Node200 -->
<g id="edge19" class="edge">
<title>Node1&#45;&gt;Node200</title>
<path fill="none" stroke="midnightblue" d="M3319.27,-158.38C3089.75,-154.37 2351.04,-139.38 2115,-109 2095.27,-106.46 2073.49,-101.74 2056.19,-97.53"/>
<polygon fill="midnightblue" stroke="midnightblue" points="3319.42,-161.88 3329.48,-158.55 3319.55,-154.88 3319.42,-161.88"/>
</g>
<!-- Node201 -->
<g id="node21" class="node">
<title>Node201</title>
<g id="a_node21"><a xlink:href="MemorySSA_8cpp.html" target="_top" xlink:title=" ">
<polygon fill="none" stroke="black" points="2124,-78.5 2124,-97.5 2280,-97.5 2280,-78.5 2124,-78.5"/>
<text text-anchor="middle" x="2202" y="-85.5" font-family="Helvetica,sans-Serif" font-size="10.00">lib/Analysis/MemorySSA.cpp</text>
</a>
</g>
</g>
<!-- Node1&#45;&gt;Node201 -->
<g id="edge20" class="edge">
<title>Node1&#45;&gt;Node201</title>
<path fill="none" stroke="midnightblue" d="M3319.31,-157.96C3111.18,-153.05 2489.52,-136.43 2289,-109 2270.27,-106.44 2249.63,-101.78 2233.16,-97.6"/>
<polygon fill="midnightblue" stroke="midnightblue" points="3319.42,-161.47 3329.5,-158.2 3319.58,-154.47 3319.42,-161.47"/>
</g>
<!-- Node202 -->
<g id="node22" class="node">
<title>Node202</title>
<g id="a_node22"><a xlink:href="MemorySSAUpdater_8cpp.html" target="_top" xlink:title=" ">
<polygon fill="none" stroke="black" points="2298,-78.5 2298,-97.5 2492,-97.5 2492,-78.5 2298,-78.5"/>
<text text-anchor="middle" x="2395" y="-85.5" font-family="Helvetica,sans-Serif" font-size="10.00">lib/Analysis/MemorySSAUpdater.cpp</text>
</a>
</g>
</g>
<!-- Node1&#45;&gt;Node202 -->
<g id="edge21" class="edge">
<title>Node1&#45;&gt;Node202</title>
<path fill="none" stroke="midnightblue" d="M3318.99,-158.61C3169.41,-156.02 2804.33,-146.09 2501,-109 2478.51,-106.25 2453.6,-101.63 2433.58,-97.52"/>
<polygon fill="midnightblue" stroke="midnightblue" points="3319.33,-162.12 3329.39,-158.79 3319.45,-155.12 3319.33,-162.12"/>
</g>
<!-- Node203 -->
<g id="node23" class="node">
<title>Node203</title>
<g id="a_node23"><a xlink:href="MustExecute_8cpp.html" target="_top" xlink:title=" ">
<polygon fill="none" stroke="black" points="2510,-78.5 2510,-97.5 2668,-97.5 2668,-78.5 2510,-78.5"/>
<text text-anchor="middle" x="2589" y="-85.5" font-family="Helvetica,sans-Serif" font-size="10.00">lib/Analysis/MustExecute.cpp</text>
</a>
</g>
</g>
<!-- Node1&#45;&gt;Node203 -->
<g id="edge22" class="edge">
<title>Node1&#45;&gt;Node203</title>
<path fill="none" stroke="midnightblue" d="M3319.14,-158.09C3191.73,-154.72 2910.9,-143.68 2677,-109 2658.4,-106.24 2637.9,-101.68 2621.37,-97.6"/>
<polygon fill="midnightblue" stroke="midnightblue" points="3319.06,-161.59 3329.14,-158.35 3319.24,-154.6 3319.06,-161.59"/>
</g>
<!-- Node204 -->
<g id="node24" class="node">
<title>Node204</title>
<g id="a_node24"><a xlink:href="StackLifetime_8cpp.html" target="_top" xlink:title=" ">
<polygon fill="none" stroke="black" points="2686,-78.5 2686,-97.5 2850,-97.5 2850,-78.5 2686,-78.5"/>
<text text-anchor="middle" x="2768" y="-85.5" font-family="Helvetica,sans-Serif" font-size="10.00">lib/Analysis/StackLifetime.cpp</text>
</a>
</g>
</g>
<!-- Node1&#45;&gt;Node204 -->
<g id="edge23" class="edge">
<title>Node1&#45;&gt;Node204</title>
<path fill="none" stroke="midnightblue" d="M3319.03,-155.52C3217.9,-149.1 3023.61,-134.52 2860,-109 2840.94,-106.03 2819.91,-101.55 2802.77,-97.58"/>
<polygon fill="midnightblue" stroke="midnightblue" points="3318.92,-159.02 3329.12,-156.16 3319.36,-152.04 3318.92,-159.02"/>
</g>
<!-- Node205 -->
<g id="node25" class="node">
<title>Node205</title>
<g id="a_node25"><a xlink:href="ARMException_8cpp.html" target="_top" xlink:title=" ">
<polygon fill="none" stroke="black" points="2868.5,-73 2868.5,-103 3001.5,-103 3001.5,-73 2868.5,-73"/>
<text text-anchor="start" x="2876.5" y="-91" font-family="Helvetica,sans-Serif" font-size="10.00">lib/CodeGen/AsmPrinter</text>
<text text-anchor="middle" x="2935" y="-80" font-family="Helvetica,sans-Serif" font-size="10.00">/ARMException.cpp</text>
</a>
</g>
</g>
<!-- Node1&#45;&gt;Node205 -->
<g id="edge24" class="edge">
<title>Node1&#45;&gt;Node205</title>
<path fill="none" stroke="midnightblue" d="M3318.8,-152.84C3242.86,-144.92 3117.57,-130.08 3011,-109 3002.43,-107.31 2993.4,-105.21 2984.67,-103.02"/>
<polygon fill="midnightblue" stroke="midnightblue" points="3318.87,-156.36 3329.18,-153.91 3319.59,-149.4 3318.87,-156.36"/>
</g>
<!-- Node206 -->
<g id="node26" class="node">
<title>Node206</title>
<g id="a_node26"><a xlink:href="DIE_8cpp.html" target="_top" xlink:title=" ">
<polygon fill="none" stroke="black" points="3019.5,-73 3019.5,-103 3152.5,-103 3152.5,-73 3019.5,-73"/>
<text text-anchor="start" x="3027.5" y="-91" font-family="Helvetica,sans-Serif" font-size="10.00">lib/CodeGen/AsmPrinter</text>
<text text-anchor="middle" x="3086" y="-80" font-family="Helvetica,sans-Serif" font-size="10.00">/DIE.cpp</text>
</a>
</g>
</g>
<!-- Node1&#45;&gt;Node206 -->
<g id="edge25" class="edge">
<title>Node1&#45;&gt;Node206</title>
<path fill="none" stroke="midnightblue" d="M3319.41,-144.87C3274.53,-135.13 3214.66,-121.81 3162,-109 3154.31,-107.13 3146.2,-105.08 3138.27,-103.03"/>
<polygon fill="midnightblue" stroke="midnightblue" points="3318.81,-148.33 3329.33,-147.02 3320.29,-141.48 3318.81,-148.33"/>
</g>
<!-- Node207 -->
<g id="node27" class="node">
<title>Node207</title>
<g id="a_node27"><a xlink:href="DwarfCFIException_8cpp.html" target="_top" xlink:title=" ">
<polygon fill="none" stroke="black" points="3170.5,-73 3170.5,-103 3303.5,-103 3303.5,-73 3170.5,-73"/>
<text text-anchor="start" x="3178.5" y="-91" font-family="Helvetica,sans-Serif" font-size="10.00">lib/CodeGen/AsmPrinter</text>
<text text-anchor="middle" x="3237" y="-80" font-family="Helvetica,sans-Serif" font-size="10.00">/DwarfCFIException.cpp</text>
</a>
</g>
</g>
<!-- Node1&#45;&gt;Node207 -->
<g id="edge26" class="edge">
<title>Node1&#45;&gt;Node207</title>
<path fill="none" stroke="midnightblue" d="M3348.44,-141.03C3323.01,-129.16 3290.48,-113.97 3267.14,-103.07"/>
<polygon fill="midnightblue" stroke="midnightblue" points="3347.26,-144.34 3357.81,-145.4 3350.23,-138 3347.26,-144.34"/>
</g>
<!-- Node208 -->
<g id="node28" class="node">
<title>Node208</title>
<g id="a_node28"><a xlink:href="WinException_8cpp.html" target="_top" xlink:title=" ">
<polygon fill="none" stroke="black" points="3321.5,-73 3321.5,-103 3454.5,-103 3454.5,-73 3321.5,-73"/>
<text text-anchor="start" x="3329.5" y="-91" font-family="Helvetica,sans-Serif" font-size="10.00">lib/CodeGen/AsmPrinter</text>
<text text-anchor="middle" x="3388" y="-80" font-family="Helvetica,sans-Serif" font-size="10.00">/WinException.cpp</text>
</a>
</g>
</g>
<!-- Node1&#45;&gt;Node208 -->
<g id="edge27" class="edge">
<title>Node1&#45;&gt;Node208</title>
<path fill="none" stroke="midnightblue" d="M3388,-135.23C3388,-124.57 3388,-112.41 3388,-103.25"/>
<polygon fill="midnightblue" stroke="midnightblue" points="3384.5,-135.23 3388,-145.23 3391.5,-135.23 3384.5,-135.23"/>
</g>
<!-- Node209 -->
<g id="node29" class="node">
<title>Node209</title>
<g id="a_node29"><a xlink:href="MachineInstr_8cpp.html" target="_top" xlink:title=" ">
<polygon fill="none" stroke="black" points="3472.5,-78.5 3472.5,-97.5 3633.5,-97.5 3633.5,-78.5 3472.5,-78.5"/>
<text text-anchor="middle" x="3553" y="-85.5" font-family="Helvetica,sans-Serif" font-size="10.00">lib/CodeGen/MachineInstr.cpp</text>
</a>
</g>
</g>
<!-- Node1&#45;&gt;Node209 -->
<g id="edge29" class="edge">
<title>Node1&#45;&gt;Node209</title>
<path fill="none" stroke="midnightblue" d="M3430.41,-141.38C3463.41,-127.28 3507.71,-108.35 3533.03,-97.53"/>
<polygon fill="midnightblue" stroke="midnightblue" points="3428.81,-138.26 3420.99,-145.4 3431.56,-144.69 3428.81,-138.26"/>
</g>
<!-- Node210 -->
<g id="node30" class="node">
<title>Node210</title>
<g id="a_node30"><a xlink:href="AsmWriter_8cpp.html" target="_top" xlink:title=" ">
<polygon fill="none" stroke="black" points="3652,-78.5 3652,-97.5 3768,-97.5 3768,-78.5 3652,-78.5"/>
<text text-anchor="middle" x="3710" y="-85.5" font-family="Helvetica,sans-Serif" font-size="10.00">lib/IR/AsmWriter.cpp</text>
</a>
</g>
</g>
<!-- Node1&#45;&gt;Node210 -->
<g id="edge30" class="edge">
<title>Node1&#45;&gt;Node210</title>
<path fill="none" stroke="midnightblue" d="M3456.61,-147.73C3508.16,-138.45 3580.37,-124.51 3643,-109 3656.43,-105.67 3671.19,-101.34 3683.42,-97.56"/>
<polygon fill="midnightblue" stroke="midnightblue" points="3455.81,-144.32 3446.58,-149.52 3457.04,-151.21 3455.81,-144.32"/>
</g>
<!-- Node211 -->
<g id="node31" class="node">
<title>Node211</title>
<g id="a_node31"><a xlink:href="FormattedStream_8cpp.html" target="_top" xlink:title=" ">
<polygon fill="none" stroke="black" points="3786,-78.5 3786,-97.5 3964,-97.5 3964,-78.5 3786,-78.5"/>
<text text-anchor="middle" x="3875" y="-85.5" font-family="Helvetica,sans-Serif" font-size="10.00">lib/Support/FormattedStream.cpp</text>
</a>
</g>
</g>
<!-- Node1&#45;&gt;Node211 -->
<g id="edge33" class="edge">
<title>Node1&#45;&gt;Node211</title>
<path fill="none" stroke="midnightblue" d="M3456.69,-152.1C3534.59,-143.36 3665.3,-127.62 3777,-109 3796.7,-105.72 3818.47,-101.35 3836.49,-97.53"/>
<polygon fill="midnightblue" stroke="midnightblue" points="3456.07,-148.65 3446.52,-153.24 3456.84,-155.61 3456.07,-148.65"/>
</g>
<!-- Node212 -->
<g id="node32" class="node">
<title>Node212</title>
<g id="a_node32"><a xlink:href="AArch64ELFStreamer_8cpp.html" target="_top" xlink:title=" ">
<polygon fill="none" stroke="black" points="3982,-73 3982,-103 4196,-103 4196,-73 3982,-73"/>
<text text-anchor="start" x="3990" y="-91" font-family="Helvetica,sans-Serif" font-size="10.00">lib/Target/AArch64</text>
<text text-anchor="middle" x="4089" y="-80" font-family="Helvetica,sans-Serif" font-size="10.00">/MCTargetDesc/AArch64ELFStreamer.cpp</text>
</a>
</g>
</g>
<!-- Node1&#45;&gt;Node212 -->
<g id="edge34" class="edge">
<title>Node1&#45;&gt;Node212</title>
<path fill="none" stroke="midnightblue" d="M3456.97,-155.44C3566.58,-148.57 3787.16,-133 3973,-109 3985.97,-107.32 3999.71,-105.24 4013.01,-103.05"/>
<polygon fill="midnightblue" stroke="midnightblue" points="3456.48,-151.97 3446.71,-156.08 3456.91,-158.95 3456.48,-151.97"/>
</g>
<!-- Node213 -->
<g id="node33" class="node">
<title>Node213</title>
<g id="a_node33"><a xlink:href="AMDGPUTargetStreamer_8cpp.html" target="_top" xlink:title=" ">
<polygon fill="none" stroke="black" points="4214,-73 4214,-103 4396,-103 4396,-73 4214,-73"/>
<text text-anchor="start" x="4222" y="-91" font-family="Helvetica,sans-Serif" font-size="10.00">lib/Target/AMDGPU/MCTarget</text>
<text text-anchor="middle" x="4305" y="-80" font-family="Helvetica,sans-Serif" font-size="10.00">Desc/AMDGPUTargetStreamer.cpp</text>
</a>
</g>
</g>
<!-- Node1&#45;&gt;Node213 -->
<g id="edge35" class="edge">
<title>Node1&#45;&gt;Node213</title>
<path fill="none" stroke="midnightblue" d="M3456.94,-158.39C3597.96,-155.43 3929.35,-144.92 4205,-109 4216.85,-107.46 4229.4,-105.34 4241.47,-103.05"/>
<polygon fill="midnightblue" stroke="midnightblue" points="3456.64,-154.9 3446.71,-158.6 3456.78,-161.89 3456.64,-154.9"/>
</g>
<!-- Node214 -->
<g id="node34" class="node">
<title>Node214</title>
<g id="a_node34"><a xlink:href="ARMELFStreamer_8cpp.html" target="_top" xlink:title=" ">
<polygon fill="none" stroke="black" points="4414,-73 4414,-103 4574,-103 4574,-73 4414,-73"/>
<text text-anchor="start" x="4422" y="-91" font-family="Helvetica,sans-Serif" font-size="10.00">lib/Target/ARM/MCTargetDesc</text>
<text text-anchor="middle" x="4494" y="-80" font-family="Helvetica,sans-Serif" font-size="10.00">/ARMELFStreamer.cpp</text>
</a>
</g>
</g>
<!-- Node1&#45;&gt;Node214 -->
<g id="edge37" class="edge">
<title>Node1&#45;&gt;Node214</title>
<path fill="none" stroke="midnightblue" d="M3456.98,-160.14C3621.73,-160.77 4050.84,-157.22 4405,-109 4415.83,-107.53 4427.28,-105.39 4438.24,-103.06"/>
<polygon fill="midnightblue" stroke="midnightblue" points="3456.53,-156.63 3446.51,-160.09 3456.49,-163.63 3456.53,-156.63"/>
</g>
<!-- Node215 -->
<g id="node35" class="node">
<title>Node215</title>
<g id="a_node35"><a xlink:href="AVRELFStreamer_8cpp.html" target="_top" xlink:title=" ">
<polygon fill="none" stroke="black" points="4592.5,-73 4592.5,-103 4749.5,-103 4749.5,-73 4592.5,-73"/>
<text text-anchor="start" x="4600.5" y="-91" font-family="Helvetica,sans-Serif" font-size="10.00">lib/Target/AVR/MCTargetDesc</text>
<text text-anchor="middle" x="4671" y="-80" font-family="Helvetica,sans-Serif" font-size="10.00">/AVRELFStreamer.cpp</text>
</a>
</g>
</g>
<!-- Node1&#45;&gt;Node215 -->
<g id="edge38" class="edge">
<title>Node1&#45;&gt;Node215</title>
<path fill="none" stroke="midnightblue" d="M3456.98,-158.23C3677.4,-153.91 4363.05,-138.4 4583,-109 4593.87,-107.55 4605.38,-105.39 4616.36,-103.03"/>
<polygon fill="midnightblue" stroke="midnightblue" points="3456.77,-154.73 3446.84,-158.43 3456.91,-161.73 3456.77,-154.73"/>
</g>
<!-- Node216 -->
<g id="node36" class="node">
<title>Node216</title>
<g id="a_node36"><a xlink:href="AVRInstPrinter_8cpp.html" target="_top" xlink:title=" ">
<polygon fill="none" stroke="black" points="4767.5,-73 4767.5,-103 4924.5,-103 4924.5,-73 4767.5,-73"/>
<text text-anchor="start" x="4775.5" y="-91" font-family="Helvetica,sans-Serif" font-size="10.00">lib/Target/AVR/MCTargetDesc</text>
<text text-anchor="middle" x="4846" y="-80" font-family="Helvetica,sans-Serif" font-size="10.00">/AVRInstPrinter.cpp</text>
</a>
</g>
</g>
<!-- Node1&#45;&gt;Node216 -->
<g id="edge39" class="edge">
<title>Node1&#45;&gt;Node216</title>
<path fill="none" stroke="midnightblue" d="M3456.72,-158.69C3697.62,-155.57 4503.08,-142.82 4759,-109 4769.76,-107.58 4781.13,-105.44 4791.99,-103.08"/>
<polygon fill="midnightblue" stroke="midnightblue" points="3456.64,-155.19 3446.69,-158.82 3456.73,-162.19 3456.64,-155.19"/>
</g>
<!-- Node217 -->
<g id="node37" class="node">
<title>Node217</title>
<g id="a_node37"><a xlink:href="BPFInstPrinter_8cpp.html" target="_top" xlink:title=" ">
<polygon fill="none" stroke="black" points="4943,-73 4943,-103 5099,-103 5099,-73 4943,-73"/>
<text text-anchor="start" x="4951" y="-91" font-family="Helvetica,sans-Serif" font-size="10.00">lib/Target/BPF/MCTargetDesc</text>
<text text-anchor="middle" x="5021" y="-80" font-family="Helvetica,sans-Serif" font-size="10.00">/BPFInstPrinter.cpp</text>
</a>
</g>
</g>
<!-- Node1&#45;&gt;Node217 -->
<g id="edge41" class="edge">
<title>Node1&#45;&gt;Node217</title>
<path fill="none" stroke="midnightblue" d="M3456.57,-159.02C3716.64,-156.94 4642.14,-146.95 4934,-109 4944.91,-107.58 4956.46,-105.41 4967.46,-103.02"/>
<polygon fill="midnightblue" stroke="midnightblue" points="3456.48,-155.52 3446.51,-159.1 3456.54,-162.52 3456.48,-155.52"/>
</g>
<!-- Node218 -->
<g id="node38" class="node">
<title>Node218</title>
<g id="a_node38"><a xlink:href="CSKYInstPrinter_8cpp.html" target="_top" xlink:title=" ">
<polygon fill="none" stroke="black" points="5117,-73 5117,-103 5255,-103 5255,-73 5117,-73"/>
<text text-anchor="start" x="5125" y="-91" font-family="Helvetica,sans-Serif" font-size="10.00">lib/Target/CSKY/MCTarget</text>
<text text-anchor="middle" x="5186" y="-80" font-family="Helvetica,sans-Serif" font-size="10.00">Desc/CSKYInstPrinter.cpp</text>
</a>
</g>
</g>
<!-- Node1&#45;&gt;Node218 -->
<g id="edge42" class="edge">
<title>Node1&#45;&gt;Node218</title>
<path fill="none" stroke="midnightblue" d="M3457.21,-159.51C3736.47,-159.25 4781.08,-155.13 5108,-109 5117.83,-107.61 5128.2,-105.46 5138.07,-103.07"/>
<polygon fill="midnightblue" stroke="midnightblue" points="3456.81,-156.01 3446.82,-159.52 3456.82,-163.01 3456.81,-156.01"/>
</g>
<!-- Node219 -->
<g id="node39" class="node">
<title>Node219</title>
<g id="a_node39"><a xlink:href="LanaiInstPrinter_8cpp.html" target="_top" xlink:title=" ">
<polygon fill="none" stroke="black" points="5273,-73 5273,-103 5413,-103 5413,-73 5273,-73"/>
<text text-anchor="start" x="5281" y="-91" font-family="Helvetica,sans-Serif" font-size="10.00">lib/Target/Lanai/MCTarget</text>
<text text-anchor="middle" x="5343" y="-80" font-family="Helvetica,sans-Serif" font-size="10.00">Desc/LanaiInstPrinter.cpp</text>
</a>
</g>
</g>
<!-- Node1&#45;&gt;Node219 -->
<g id="edge44" class="edge">
<title>Node1&#45;&gt;Node219</title>
<path fill="none" stroke="midnightblue" d="M3456.59,-159.68C3750.47,-160.15 4904.57,-158.71 5264,-109 5273.95,-107.62 5284.46,-105.47 5294.45,-103.08"/>
<polygon fill="midnightblue" stroke="midnightblue" points="3456.51,-156.18 3446.5,-159.66 3456.5,-163.18 3456.51,-156.18"/>
</g>
<!-- Node220 -->
<g id="node40" class="node">
<title>Node220</title>
<g id="a_node40"><a xlink:href="MipsTargetStreamer_8cpp.html" target="_top" xlink:title=" ">
<polygon fill="none" stroke="black" points="5431.5,-73 5431.5,-103 5592.5,-103 5592.5,-73 5431.5,-73"/>
<text text-anchor="start" x="5439.5" y="-91" font-family="Helvetica,sans-Serif" font-size="10.00">lib/Target/Mips/MCTarget</text>
<text text-anchor="middle" x="5512" y="-80" font-family="Helvetica,sans-Serif" font-size="10.00">Desc/MipsTargetStreamer.cpp</text>
</a>
</g>
</g>
<!-- Node1&#45;&gt;Node220 -->
<g id="edge47" class="edge">
<title>Node1&#45;&gt;Node220</title>
<path fill="none" stroke="midnightblue" d="M3456.66,-159.58C3765.64,-159.68 5029.17,-157.06 5422,-109 5433.28,-107.62 5445.23,-105.47 5456.6,-103.08"/>
<polygon fill="midnightblue" stroke="midnightblue" points="3456.51,-156.08 3446.5,-159.58 3456.5,-163.08 3456.51,-156.08"/>
</g>
<!-- Node221 -->
<g id="node41" class="node">
<title>Node221</title>
<g id="a_node41"><a xlink:href="MSP430InstPrinter_8cpp.html" target="_top" xlink:title=" ">
<polygon fill="none" stroke="black" points="5611,-73 5611,-103 5763,-103 5763,-73 5611,-73"/>
<text text-anchor="start" x="5619" y="-91" font-family="Helvetica,sans-Serif" font-size="10.00">lib/Target/MSP430/MCTarget</text>
<text text-anchor="middle" x="5687" y="-80" font-family="Helvetica,sans-Serif" font-size="10.00">Desc/MSP430InstPrinter.cpp</text>
</a>
</g>
</g>
<!-- Node1&#45;&gt;Node221 -->
<g id="edge48" class="edge">
<title>Node1&#45;&gt;Node221</title>
<path fill="none" stroke="midnightblue" d="M3456.8,-159.86C3782.56,-161.26 5172.13,-163.87 5602,-109 5612.83,-107.62 5624.29,-105.43 5635.17,-103"/>
<polygon fill="midnightblue" stroke="midnightblue" points="3456.58,-156.36 3446.56,-159.81 3456.55,-163.36 3456.58,-156.36"/>
</g>
<!-- Node222 -->
<g id="node42" class="node">
<title>Node222</title>
<g id="a_node42"><a xlink:href="NVPTXInstPrinter_8cpp.html" target="_top" xlink:title=" ">
<polygon fill="none" stroke="black" points="5781,-73 5781,-103 5927,-103 5927,-73 5781,-73"/>
<text text-anchor="start" x="5789" y="-91" font-family="Helvetica,sans-Serif" font-size="10.00">lib/Target/NVPTX/MCTarget</text>
<text text-anchor="middle" x="5854" y="-80" font-family="Helvetica,sans-Serif" font-size="10.00">Desc/NVPTXInstPrinter.cpp</text>
</a>
</g>
</g>
<!-- Node1&#45;&gt;Node222 -->
<g id="edge49" class="edge">
<title>Node1&#45;&gt;Node222</title>
<path fill="none" stroke="midnightblue" d="M3456.84,-158.94C3823.36,-155.82 5537.59,-139.7 5772,-109 5782.46,-107.63 5793.52,-105.45 5804.02,-103.02"/>
<polygon fill="midnightblue" stroke="midnightblue" points="3456.62,-155.44 3446.65,-159.02 3456.68,-162.44 3456.62,-155.44"/>
</g>
<!-- Node223 -->
<g id="node43" class="node">
<title>Node223</title>
<g id="a_node43"><a xlink:href="RISCVInstPrinter_8cpp.html" target="_top" xlink:title=" ">
<polygon fill="none" stroke="black" points="5945.5,-73 5945.5,-103 6088.5,-103 6088.5,-73 5945.5,-73"/>
<text text-anchor="start" x="5953.5" y="-91" font-family="Helvetica,sans-Serif" font-size="10.00">lib/Target/RISCV/MCTarget</text>
<text text-anchor="middle" x="6017" y="-80" font-family="Helvetica,sans-Serif" font-size="10.00">Desc/RISCVInstPrinter.cpp</text>
</a>
</g>
</g>
<!-- Node1&#45;&gt;Node223 -->
<g id="edge51" class="edge">
<title>Node1&#45;&gt;Node223</title>
<path fill="none" stroke="midnightblue" d="M3456.62,-159.05C3837.58,-156.44 5684.42,-142.13 5936,-109 5946.34,-107.64 5957.27,-105.46 5967.64,-103.03"/>
<polygon fill="midnightblue" stroke="midnightblue" points="3456.55,-155.55 3446.57,-159.12 3456.59,-162.55 3456.55,-155.55"/>
</g>
<!-- Node224 -->
<g id="node44" class="node">
<title>Node224</title>
<g id="a_node44"><a xlink:href="RISCVTargetStreamer_8cpp.html" target="_top" xlink:title=" ">
<polygon fill="none" stroke="black" points="6106.5,-73 6106.5,-103 6273.5,-103 6273.5,-73 6106.5,-73"/>
<text text-anchor="start" x="6114.5" y="-91" font-family="Helvetica,sans-Serif" font-size="10.00">lib/Target/RISCV/MCTarget</text>
<text text-anchor="middle" x="6190" y="-80" font-family="Helvetica,sans-Serif" font-size="10.00">Desc/RISCVTargetStreamer.cpp</text>
</a>
</g>
</g>
<!-- Node1&#45;&gt;Node224 -->
<g id="edge52" class="edge">
<title>Node1&#45;&gt;Node224</title>
<path fill="none" stroke="midnightblue" d="M3456.79,-159.02C3852.34,-156.17 5829.01,-140.44 6098,-109 6109.69,-107.63 6122.08,-105.45 6133.85,-103.03"/>
<polygon fill="midnightblue" stroke="midnightblue" points="3456.61,-155.52 3446.64,-159.1 3456.66,-162.52 3456.61,-155.52"/>
</g>
<!-- Node225 -->
<g id="node45" class="node">
<title>Node225</title>
<g id="a_node45"><a xlink:href="SparcTargetStreamer_8cpp.html" target="_top" xlink:title=" ">
<polygon fill="none" stroke="black" points="6291.5,-73 6291.5,-103 6456.5,-103 6456.5,-73 6291.5,-73"/>
<text text-anchor="start" x="6299.5" y="-91" font-family="Helvetica,sans-Serif" font-size="10.00">lib/Target/Sparc/MCTarget</text>
<text text-anchor="middle" x="6374" y="-80" font-family="Helvetica,sans-Serif" font-size="10.00">Desc/SparcTargetStreamer.cpp</text>
</a>
</g>
</g>
<!-- Node1&#45;&gt;Node225 -->
<g id="edge54" class="edge">
<title>Node1&#45;&gt;Node225</title>
<path fill="none" stroke="midnightblue" d="M3456.81,-159.12C3868.2,-156.74 5994.59,-142.87 6283,-109 6294.57,-107.64 6306.83,-105.47 6318.47,-103.04"/>
<polygon fill="midnightblue" stroke="midnightblue" points="3456.53,-155.62 3446.55,-159.18 3456.57,-162.62 3456.53,-155.62"/>
</g>
<!-- Node226 -->
<g id="node46" class="node">
<title>Node226</title>
<g id="a_node46"><a xlink:href="VETargetStreamer_8h.html" target="_top" xlink:title=" ">
<polygon fill="none" stroke="red" points="6475,-73 6475,-103 6625,-103 6625,-73 6475,-73"/>
<text text-anchor="start" x="6483" y="-91" font-family="Helvetica,sans-Serif" font-size="10.00">lib/Target/VE/MCTargetDesc</text>
<text text-anchor="middle" x="6550" y="-80" font-family="Helvetica,sans-Serif" font-size="10.00">/VETargetStreamer.h</text>
</a>
</g>
</g>
<!-- Node1&#45;&gt;Node226 -->
<g id="edge56" class="edge">
<title>Node1&#45;&gt;Node226</title>
<path fill="none" stroke="midnightblue" d="M3456.71,-159.27C3883.02,-157.71 6158.62,-147.65 6466,-109 6476.71,-107.65 6488.04,-105.48 6498.79,-103.06"/>
<polygon fill="midnightblue" stroke="midnightblue" points="3456.68,-155.77 3446.69,-159.3 3456.7,-162.77 3456.68,-155.77"/>
</g>
<!-- Node228 -->
<g id="node47" class="node">
<title>Node228</title>
<g id="a_node47"><a xlink:href="WebAssemblyInstPrinter_8cpp.html" target="_top" xlink:title="Print MCInst instructions to wasm format.">
<polygon fill="none" stroke="black" points="6643.5,-67.5 6643.5,-108.5 6822.5,-108.5 6822.5,-67.5 6643.5,-67.5"/>
<text text-anchor="start" x="6651.5" y="-96.5" font-family="Helvetica,sans-Serif" font-size="10.00">lib/Target/WebAssembly</text>
<text text-anchor="start" x="6651.5" y="-85.5" font-family="Helvetica,sans-Serif" font-size="10.00">/MCTargetDesc/WebAssemblyInst</text>
<text text-anchor="middle" x="6733" y="-74.5" font-family="Helvetica,sans-Serif" font-size="10.00">Printer.cpp</text>
</a>
</g>
</g>
<!-- Node1&#45;&gt;Node228 -->
<g id="edge57" class="edge">
<title>Node1&#45;&gt;Node228</title>
<path fill="none" stroke="midnightblue" d="M3456.55,-159.19C3895.88,-157.11 6308.23,-144.14 6634,-109 6637.05,-108.67 6640.15,-108.29 6643.27,-107.88"/>
<polygon fill="midnightblue" stroke="midnightblue" points="3456.53,-155.69 3446.54,-159.24 3456.56,-162.69 3456.53,-155.69"/>
</g>
<!-- Node229 -->
<g id="node48" class="node">
<title>Node229</title>
<g id="a_node48"><a xlink:href="WebAssemblyTargetStreamer_8cpp.html" target="_top" xlink:title="This file defines WebAssembly&#45;specific target streamer classes.">
<polygon fill="none" stroke="black" points="6840.5,-67.5 6840.5,-108.5 7031.5,-108.5 7031.5,-67.5 6840.5,-67.5"/>
<text text-anchor="start" x="6848.5" y="-96.5" font-family="Helvetica,sans-Serif" font-size="10.00">lib/Target/WebAssembly</text>
<text text-anchor="start" x="6848.5" y="-85.5" font-family="Helvetica,sans-Serif" font-size="10.00">/MCTargetDesc/WebAssemblyTarget</text>
<text text-anchor="middle" x="6936" y="-74.5" font-family="Helvetica,sans-Serif" font-size="10.00">Streamer.cpp</text>
</a>
</g>
</g>
<!-- Node1&#45;&gt;Node229 -->
<g id="edge58" class="edge">
<title>Node1&#45;&gt;Node229</title>
<path fill="none" stroke="midnightblue" d="M3456.71,-159.22C3911.9,-157.25 6485.17,-144.61 6832,-109 6834.74,-108.72 6837.52,-108.4 6840.32,-108.05"/>
<polygon fill="midnightblue" stroke="midnightblue" points="3456.65,-155.72 3446.67,-159.26 3456.68,-162.72 3456.65,-155.72"/>
</g>
<!-- Node230 -->
<g id="node49" class="node">
<title>Node230</title>
<g id="a_node49"><a xlink:href="X86WinCOFFTargetStreamer_8cpp.html" target="_top" xlink:title=" ">
<polygon fill="none" stroke="black" points="7049.5,-73 7049.5,-103 7226.5,-103 7226.5,-73 7049.5,-73"/>
<text text-anchor="start" x="7057.5" y="-91" font-family="Helvetica,sans-Serif" font-size="10.00">lib/Target/X86/MCTargetDesc</text>
<text text-anchor="middle" x="7138" y="-80" font-family="Helvetica,sans-Serif" font-size="10.00">/X86WinCOFFTargetStreamer.cpp</text>
</a>
</g>
</g>
<!-- Node1&#45;&gt;Node230 -->
<g id="edge59" class="edge">
<title>Node1&#45;&gt;Node230</title>
<path fill="none" stroke="midnightblue" d="M3456.73,-159.33C3927.85,-158.1 6672.3,-149.19 7041,-109 7053.39,-107.65 7066.55,-105.46 7079.03,-103.01"/>
<polygon fill="midnightblue" stroke="midnightblue" points="3456.67,-155.83 3446.68,-159.36 3456.69,-162.83 3456.67,-155.83"/>
</g>
<!-- Node231 -->
<g id="node50" class="node">
<title>Node231</title>
<g id="a_node50"><a xlink:href="PredicateInfo_8cpp.html" target="_top" xlink:title=" ">
<polygon fill="none" stroke="black" points="7244.5,-73 7244.5,-103 7355.5,-103 7355.5,-73 7244.5,-73"/>
<text text-anchor="start" x="7252.5" y="-91" font-family="Helvetica,sans-Serif" font-size="10.00">lib/Transforms/Utils</text>
<text text-anchor="middle" x="7300" y="-80" font-family="Helvetica,sans-Serif" font-size="10.00">/PredicateInfo.cpp</text>
</a>
</g>
</g>
<!-- Node1&#45;&gt;Node231 -->
<g id="edge61" class="edge">
<title>Node1&#45;&gt;Node231</title>
<path fill="none" stroke="midnightblue" d="M3457.05,-159.16C3959.69,-156.63 7042.13,-139.89 7236,-109 7244.28,-107.68 7252.96,-105.52 7261.17,-103.1"/>
<polygon fill="midnightblue" stroke="midnightblue" points="3456.67,-155.66 3446.69,-159.21 3456.71,-162.66 3456.67,-155.66"/>
</g>
<!-- Node3 -->
<g id="node3" class="node">
<title>Node3</title>
<g id="a_node3"><a xlink:href="BitcodeWriter_8cpp.html" target="_top" xlink:title=" ">
<polygon fill="none" stroke="black" points="712,-0.5 712,-30.5 818,-30.5 818,-0.5 712,-0.5"/>
<text text-anchor="start" x="720" y="-18.5" font-family="Helvetica,sans-Serif" font-size="10.00">lib/Bitcode/Writer</text>
<text text-anchor="middle" x="765" y="-7.5" font-family="Helvetica,sans-Serif" font-size="10.00">/BitcodeWriter.cpp</text>
</a>
</g>
</g>
<!-- Node2&#45;&gt;Node3 -->
<g id="edge2" class="edge">
<title>Node2&#45;&gt;Node3</title>
<path fill="none" stroke="midnightblue" d="M1263.77,-80.43C1156.08,-72.37 978.44,-56.53 827,-31 824.06,-30.5 821.04,-29.95 818.01,-29.36"/>
<polygon fill="midnightblue" stroke="midnightblue" points="1263.74,-83.94 1273.97,-81.19 1264.25,-76.96 1263.74,-83.94"/>
</g>
<!-- Node4 -->
<g id="node4" class="node">
<title>Node4</title>
<g id="a_node4"><a xlink:href="AsmPrinter_8cpp.html" target="_top" xlink:title=" ">
<polygon fill="none" stroke="black" points="836.5,-0.5 836.5,-30.5 969.5,-30.5 969.5,-0.5 836.5,-0.5"/>
<text text-anchor="start" x="844.5" y="-18.5" font-family="Helvetica,sans-Serif" font-size="10.00">lib/CodeGen/AsmPrinter</text>
<text text-anchor="middle" x="903" y="-7.5" font-family="Helvetica,sans-Serif" font-size="10.00">/AsmPrinter.cpp</text>
</a>
</g>
</g>
<!-- Node2&#45;&gt;Node4 -->
<g id="edge3" class="edge">
<title>Node2&#45;&gt;Node4</title>
<path fill="none" stroke="midnightblue" d="M1287.16,-77.13C1209.65,-66.66 1085.12,-49.16 978,-31 975.25,-30.53 972.45,-30.05 969.63,-29.55"/>
<polygon fill="midnightblue" stroke="midnightblue" points="1286.93,-80.63 1297.31,-78.49 1287.87,-73.69 1286.93,-80.63"/>
</g>
<!-- Node5 -->
<g id="node5" class="node">
<title>Node5</title>
<g id="a_node5"><a xlink:href="AsmPrinterInlineAsm_8cpp.html" target="_top" xlink:title=" ">
<polygon fill="none" stroke="black" points="987.5,-0.5 987.5,-30.5 1130.5,-30.5 1130.5,-0.5 987.5,-0.5"/>
<text text-anchor="start" x="995.5" y="-18.5" font-family="Helvetica,sans-Serif" font-size="10.00">lib/CodeGen/AsmPrinter</text>
<text text-anchor="middle" x="1059" y="-7.5" font-family="Helvetica,sans-Serif" font-size="10.00">/AsmPrinterInlineAsm.cpp</text>
</a>
</g>
</g>
<!-- Node2&#45;&gt;Node5 -->
<g id="edge4" class="edge">
<title>Node2&#45;&gt;Node5</title>
<path fill="none" stroke="midnightblue" d="M1315.71,-76.23C1263.08,-63.98 1177,-43.96 1119.2,-30.51"/>
<polygon fill="midnightblue" stroke="midnightblue" points="1314.92,-79.64 1325.45,-78.5 1316.5,-72.82 1314.92,-79.64"/>
</g>
<!-- Node6 -->
<g id="node6" class="node">
<title>Node6</title>
<g id="a_node6"><a xlink:href="InstructionSelect_8cpp.html" target="_top" xlink:title="This file implements the InstructionSelect class.">
<polygon fill="none" stroke="black" points="1149,-0.5 1149,-30.5 1277,-30.5 1277,-0.5 1149,-0.5"/>
<text text-anchor="start" x="1157" y="-18.5" font-family="Helvetica,sans-Serif" font-size="10.00">lib/CodeGen/GlobalISel</text>
<text text-anchor="middle" x="1213" y="-7.5" font-family="Helvetica,sans-Serif" font-size="10.00">/InstructionSelect.cpp</text>
</a>
</g>
</g>
<!-- Node2&#45;&gt;Node6 -->
<g id="edge5" class="edge">
<title>Node2&#45;&gt;Node6</title>
<path fill="none" stroke="midnightblue" d="M1334.73,-74.1C1308.65,-61.76 1269.43,-43.2 1242.6,-30.51"/>
<polygon fill="midnightblue" stroke="midnightblue" points="1333.49,-77.38 1344.03,-78.5 1336.48,-71.06 1333.49,-77.38"/>
</g>
<!-- Node2&#45;&gt;Node7 -->
<g id="edge6" class="edge">
<title>Node2&#45;&gt;Node7</title>
<path fill="none" stroke="midnightblue" d="M1263.46,-85.1C1063.52,-80.61 595.97,-66.89 205,-31 188.39,-29.48 170.39,-27.26 153.98,-25.01"/>
<polygon fill="midnightblue" stroke="midnightblue" points="1263.57,-88.6 1273.64,-85.32 1263.72,-81.6 1263.57,-88.6"/>
</g>
<!-- Node2&#45;&gt;Node20 -->
<g id="edge7" class="edge">
<title>Node2&#45;&gt;Node20</title>
<path fill="none" stroke="midnightblue" d="M1263.8,-85.08C1086,-80.79 699.13,-67.72 375,-31 361.76,-29.5 347.45,-27.29 334.42,-25.05"/>
<polygon fill="midnightblue" stroke="midnightblue" points="1263.83,-88.58 1273.91,-85.32 1264,-81.58 1263.83,-88.58"/>
</g>
<!-- Node2&#45;&gt;Node21 -->
<g id="edge8" class="edge">
<title>Node2&#45;&gt;Node21</title>
<path fill="none" stroke="midnightblue" d="M1263.83,-84.28C1107.38,-79.08 792.1,-65.05 527,-31 523.94,-30.61 520.81,-30.17 517.65,-29.69"/>
<polygon fill="midnightblue" stroke="midnightblue" points="1263.79,-87.78 1273.9,-84.61 1264.02,-80.79 1263.79,-87.78"/>
</g>
<!-- Node2&#45;&gt;Node51 -->
<g id="edge9" class="edge">
<title>Node2&#45;&gt;Node51</title>
<path fill="none" stroke="midnightblue" d="M1263.58,-81.06C1134.55,-72.71 901.3,-55.72 703,-31 700.08,-30.64 697.11,-30.25 694.11,-29.84"/>
<polygon fill="midnightblue" stroke="midnightblue" points="1263.63,-84.57 1273.83,-81.72 1264.08,-77.58 1263.63,-84.57"/>
</g>
<!-- Node2&#45;&gt;Node75 -->
<g id="edge10" class="edge">
<title>Node2&#45;&gt;Node75</title>
<path fill="none" stroke="midnightblue" d="M1362,-68.24C1362,-56.41 1362,-41.38 1362,-30.58"/>
<polygon fill="midnightblue" stroke="midnightblue" points="1358.5,-68.36 1362,-78.36 1365.5,-68.36 1358.5,-68.36"/>
</g>
<!-- Node2&#45;&gt;Node95 -->
<g id="edge11" class="edge">
<title>Node2&#45;&gt;Node95</title>
<path fill="none" stroke="midnightblue" d="M1390.55,-74.42C1418.55,-62.08 1461.15,-43.31 1490.21,-30.51"/>
<polygon fill="midnightblue" stroke="midnightblue" points="1389.04,-71.26 1381.3,-78.5 1391.86,-77.67 1389.04,-71.26"/>
</g>
<!-- Node2&#45;&gt;Node105 -->
<g id="edge12" class="edge">
<title>Node2&#45;&gt;Node105</title>
<path fill="none" stroke="midnightblue" d="M1412.3,-76.38C1470.25,-64.15 1565.66,-44.01 1629.65,-30.51"/>
<polygon fill="midnightblue" stroke="midnightblue" points="1411.35,-73.01 1402.29,-78.5 1412.8,-79.86 1411.35,-73.01"/>
</g>
<!-- Node2&#45;&gt;Node109 -->
<g id="edge13" class="edge">
<title>Node2&#45;&gt;Node109</title>
<path fill="none" stroke="midnightblue" d="M1442.39,-77.2C1527.75,-66.61 1666.56,-48.83 1786,-31 1788.73,-30.59 1791.5,-30.17 1794.3,-29.74"/>
<polygon fill="midnightblue" stroke="midnightblue" points="1441.74,-73.76 1432.25,-78.46 1442.6,-80.7 1441.74,-73.76"/>
</g>
<!-- Node2&#45;&gt;Node130 -->
<g id="edge14" class="edge">
<title>Node2&#45;&gt;Node130</title>
<path fill="none" stroke="midnightblue" d="M1460.32,-78.99C1579.09,-69.05 1784.9,-50.94 1961,-31 1963.75,-30.69 1966.54,-30.37 1969.35,-30.03"/>
<polygon fill="midnightblue" stroke="midnightblue" points="1459.83,-75.52 1450.16,-79.84 1460.42,-82.5 1459.83,-75.52"/>
</g>
<!-- Node2&#45;&gt;Node148 -->
<g id="edge15" class="edge">
<title>Node2&#45;&gt;Node148</title>
<path fill="none" stroke="midnightblue" d="M1460.63,-80.37C1674.33,-66 2162.35,-33.07 2180,-31 2182.89,-30.66 2185.83,-30.29 2188.8,-29.9"/>
<polygon fill="midnightblue" stroke="midnightblue" points="1460.1,-76.9 1450.36,-81.06 1460.57,-83.88 1460.1,-76.9"/>
</g>
<!-- Node2&#45;&gt;Node165 -->
<g id="edge16" class="edge">
<title>Node2&#45;&gt;Node165</title>
<path fill="none" stroke="midnightblue" d="M1460.2,-81.03C1527.19,-76.99 1617.95,-71.58 1698,-67 1989.52,-50.33 2064.12,-66.09 2354,-31 2356.84,-30.66 2359.72,-30.27 2362.64,-29.86"/>
<polygon fill="midnightblue" stroke="midnightblue" points="1459.84,-77.55 1450.07,-81.65 1460.26,-84.54 1459.84,-77.55"/>
</g>
<!-- Node2&#45;&gt;Node193 -->
<g id="edge17" class="edge">
<title>Node2&#45;&gt;Node193</title>
<path fill="none" stroke="midnightblue" d="M1460.46,-81.55C1535.87,-77.42 1642.5,-71.68 1736,-67 2079.05,-49.83 2166.34,-66.37 2508,-31 2510.83,-30.71 2513.71,-30.38 2516.62,-30.03"/>
<polygon fill="midnightblue" stroke="midnightblue" points="1459.82,-78.08 1450.03,-82.12 1460.2,-85.07 1459.82,-78.08"/>
</g>
</g>
</svg>
