<?xml version="1.0" encoding="UTF-8" standalone="no"?>
<!DOCTYPE svg PUBLIC "-//W3C//DTD SVG 1.1//EN"
 "http://www.w3.org/Graphics/SVG/1.1/DTD/svg11.dtd">
<!-- Generated by graphviz version 2.48.0 (0)
 -->
<!-- Title: include/llvm/ADT/ilist_node.h Pages: 1 -->
<svg width="624pt" height="397pt"
 viewBox="0.00 0.00 624.00 397.00" xmlns="http://www.w3.org/2000/svg" xmlns:xlink="http://www.w3.org/1999/xlink">
<g id="graph0" class="graph" transform="scale(1 1) rotate(0) translate(4 393)">
<title>include/llvm/ADT/ilist_node.h</title>
<!-- Node1 -->
<g id="node1" class="node">
<title>Node1</title>
<g id="a_node1"><a xlink:title="This file defines the ilist_node class template, which is a convenient base class for creating classe...">
<polygon fill="#bfbfbf" stroke="black" points="391.5,-358.5 391.5,-388.5 512.5,-388.5 512.5,-358.5 391.5,-358.5"/>
<text text-anchor="start" x="399.5" y="-376.5" font-family="Helvetica,sans-Serif" font-size="10.00">include/llvm/ADT/ilist</text>
<text text-anchor="middle" x="452" y="-365.5" font-family="Helvetica,sans-Serif" font-size="10.00">_node.h</text>
</a>
</g>
</g>
<!-- Node2 -->
<g id="node2" class="node">
<title>Node2</title>
<g id="a_node2"><a xlink:href="$ilist__node__base_8h.html" xlink:title=" ">
<polygon fill="none" stroke="black" points="476,-291.5 476,-321.5 588,-321.5 588,-291.5 476,-291.5"/>
<text text-anchor="start" x="484" y="-309.5" font-family="Helvetica,sans-Serif" font-size="10.00">llvm/ADT/ilist_node</text>
<text text-anchor="middle" x="532" y="-298.5" font-family="Helvetica,sans-Serif" font-size="10.00">_base.h</text>
</a>
</g>
</g>
<!-- Node1&#45;&gt;Node2 -->
<g id="edge1" class="edge">
<title>Node1&#45;&gt;Node2</title>
<path fill="none" stroke="midnightblue" d="M469.36,-358.4C480.26,-349.54 494.51,-337.96 506.66,-328.09"/>
<polygon fill="midnightblue" stroke="midnightblue" points="509.12,-330.6 514.68,-321.58 504.71,-325.17 509.12,-330.6"/>
</g>
<!-- Node19 -->
<g id="node19" class="node">
<title>Node19</title>
<g id="a_node19"><a xlink:href="$ilist__node__options_8h.html" xlink:title=" ">
<polygon fill="none" stroke="black" points="331,-291.5 331,-321.5 443,-321.5 443,-291.5 331,-291.5"/>
<text text-anchor="start" x="339" y="-309.5" font-family="Helvetica,sans-Serif" font-size="10.00">llvm/ADT/ilist_node</text>
<text text-anchor="middle" x="387" y="-298.5" font-family="Helvetica,sans-Serif" font-size="10.00">_options.h</text>
</a>
</g>
</g>
<!-- Node1&#45;&gt;Node19 -->
<g id="edge21" class="edge">
<title>Node1&#45;&gt;Node19</title>
<path fill="none" stroke="midnightblue" d="M437.9,-358.4C429.21,-349.71 417.9,-338.4 408.16,-328.66"/>
<polygon fill="midnightblue" stroke="midnightblue" points="410.62,-326.17 401.08,-321.58 405.67,-331.12 410.62,-326.17"/>
</g>
<!-- Node3 -->
<g id="node3" class="node">
<title>Node3</title>
<g id="a_node3"><a xlink:href="$PointerIntPair_8h.html" xlink:title="This file defines the PointerIntPair class.">
<polygon fill="none" stroke="black" points="478,-235.5 478,-254.5 616,-254.5 616,-235.5 478,-235.5"/>
<text text-anchor="middle" x="547" y="-242.5" font-family="Helvetica,sans-Serif" font-size="10.00">llvm/ADT/PointerIntPair.h</text>
</a>
</g>
</g>
<!-- Node2&#45;&gt;Node3 -->
<g id="edge2" class="edge">
<title>Node2&#45;&gt;Node3</title>
<path fill="none" stroke="midnightblue" d="M535.55,-291.4C537.58,-283.38 540.13,-273.23 542.32,-264.57"/>
<polygon fill="midnightblue" stroke="midnightblue" points="545.77,-265.21 544.82,-254.66 538.98,-263.5 545.77,-265.21"/>
</g>
<!-- Node4 -->
<g id="node4" class="node">
<title>Node4</title>
<g id="a_node4"><a xlink:href="$Compiler_8h.html" xlink:title=" ">
<polygon fill="none" stroke="black" points="19,-112.5 19,-131.5 153,-131.5 153,-112.5 19,-112.5"/>
<text text-anchor="middle" x="86" y="-119.5" font-family="Helvetica,sans-Serif" font-size="10.00">llvm/Support/Compiler.h</text>
</a>
</g>
</g>
<!-- Node3&#45;&gt;Node4 -->
<g id="edge3" class="edge">
<title>Node3&#45;&gt;Node4</title>
<path fill="none" stroke="midnightblue" d="M477.68,-235.94C474.75,-235.62 471.85,-235.3 469,-235 388.18,-226.34 166.53,-252.12 105,-199 88.79,-185 85.33,-159.46 85.07,-141.88"/>
<polygon fill="midnightblue" stroke="midnightblue" points="88.58,-141.74 85.26,-131.68 81.58,-141.61 88.58,-141.74"/>
</g>
<!-- Node7 -->
<g id="node7" class="node">
<title>Node7</title>
<g id="a_node7"><a xlink:href="$PointerLikeTypeTraits_8h.html" xlink:title=" ">
<polygon fill="none" stroke="black" points="328,-168.5 328,-198.5 464,-198.5 464,-168.5 328,-168.5"/>
<text text-anchor="start" x="336" y="-186.5" font-family="Helvetica,sans-Serif" font-size="10.00">llvm/Support/PointerLike</text>
<text text-anchor="middle" x="396" y="-175.5" font-family="Helvetica,sans-Serif" font-size="10.00">TypeTraits.h</text>
</a>
</g>
</g>
<!-- Node3&#45;&gt;Node7 -->
<g id="edge6" class="edge">
<title>Node3&#45;&gt;Node7</title>
<path fill="none" stroke="midnightblue" d="M525.37,-235.48C503.48,-226.85 469,-213.26 441.14,-202.29"/>
<polygon fill="midnightblue" stroke="midnightblue" points="442.17,-198.93 431.59,-198.52 439.61,-205.45 442.17,-198.93"/>
</g>
<!-- Node13 -->
<g id="node13" class="node">
<title>Node13</title>
<g id="a_node13"><a xlink:title=" ">
<polygon fill="none" stroke="#bfbfbf" points="543,-112.5 543,-131.5 595,-131.5 595,-112.5 543,-112.5"/>
<text text-anchor="middle" x="569" y="-119.5" font-family="Helvetica,sans-Serif" font-size="10.00">cassert</text>
</a>
</g>
</g>
<!-- Node3&#45;&gt;Node13 -->
<g id="edge18" class="edge">
<title>Node3&#45;&gt;Node13</title>
<path fill="none" stroke="midnightblue" d="M564.5,-235.46C577.79,-227.92 595.08,-215.53 603,-199 608.95,-186.58 607.38,-181.06 603,-168 599.4,-157.25 592.1,-147.02 585.18,-139.04"/>
<polygon fill="midnightblue" stroke="midnightblue" points="587.65,-136.56 578.29,-131.61 582.52,-141.32 587.65,-136.56"/>
</g>
<!-- Node15 -->
<g id="node15" class="node">
<title>Node15</title>
<g id="a_node15"><a xlink:href="$type__traits_8h.html" xlink:title=" ">
<polygon fill="none" stroke="black" points="114.5,-174 114.5,-193 257.5,-193 257.5,-174 114.5,-174"/>
<text text-anchor="middle" x="186" y="-181" font-family="Helvetica,sans-Serif" font-size="10.00">llvm/Support/type_traits.h</text>
</a>
</g>
</g>
<!-- Node3&#45;&gt;Node15 -->
<g id="edge14" class="edge">
<title>Node3&#45;&gt;Node15</title>
<path fill="none" stroke="midnightblue" d="M495.28,-235.48C429.87,-224.69 317.38,-206.15 247.6,-194.65"/>
<polygon fill="midnightblue" stroke="midnightblue" points="248.06,-191.18 237.63,-193.01 246.92,-198.09 248.06,-191.18"/>
</g>
<!-- Node17 -->
<g id="node17" class="node">
<title>Node17</title>
<g id="a_node17"><a xlink:title=" ">
<polygon fill="none" stroke="#bfbfbf" points="482,-174 482,-193 532,-193 532,-174 482,-174"/>
<text text-anchor="middle" x="507" y="-181" font-family="Helvetica,sans-Serif" font-size="10.00">cstdint</text>
</a>
</g>
</g>
<!-- Node3&#45;&gt;Node17 -->
<g id="edge19" class="edge">
<title>Node3&#45;&gt;Node17</title>
<path fill="none" stroke="midnightblue" d="M541.27,-235.48C535.33,-226.64 525.88,-212.59 518.41,-201.48"/>
<polygon fill="midnightblue" stroke="midnightblue" points="521.2,-199.36 512.72,-193.01 515.39,-203.26 521.2,-199.36"/>
</g>
<!-- Node18 -->
<g id="node18" class="node">
<title>Node18</title>
<g id="a_node18"><a xlink:title=" ">
<polygon fill="none" stroke="#bfbfbf" points="550,-174 550,-193 594,-193 594,-174 550,-174"/>
<text text-anchor="middle" x="572" y="-181" font-family="Helvetica,sans-Serif" font-size="10.00">limits</text>
</a>
</g>
</g>
<!-- Node3&#45;&gt;Node18 -->
<g id="edge20" class="edge">
<title>Node3&#45;&gt;Node18</title>
<path fill="none" stroke="midnightblue" d="M550.58,-235.48C554.18,-226.9 559.85,-213.43 564.44,-202.48"/>
<polygon fill="midnightblue" stroke="midnightblue" points="567.78,-203.58 568.42,-193.01 561.32,-200.87 567.78,-203.58"/>
</g>
<!-- Node5 -->
<g id="node5" class="node">
<title>Node5</title>
<g id="a_node5"><a xlink:title=" ">
<polygon fill="none" stroke="#bfbfbf" points="74.5,-56.5 74.5,-75.5 213.5,-75.5 213.5,-56.5 74.5,-56.5"/>
<text text-anchor="middle" x="144" y="-63.5" font-family="Helvetica,sans-Serif" font-size="10.00">llvm/Config/llvm&#45;config.h</text>
</a>
</g>
</g>
<!-- Node4&#45;&gt;Node5 -->
<g id="edge4" class="edge">
<title>Node4&#45;&gt;Node5</title>
<path fill="none" stroke="midnightblue" d="M95.32,-112.32C103.89,-104.34 116.81,-92.31 127.19,-82.65"/>
<polygon fill="midnightblue" stroke="midnightblue" points="129.58,-85.21 134.51,-75.83 124.81,-80.09 129.58,-85.21"/>
</g>
<!-- Node6 -->
<g id="node6" class="node">
<title>Node6</title>
<g id="a_node6"><a xlink:title=" ">
<polygon fill="none" stroke="#bfbfbf" points="0,-56.5 0,-75.5 56,-75.5 56,-56.5 0,-56.5"/>
<text text-anchor="middle" x="28" y="-63.5" font-family="Helvetica,sans-Serif" font-size="10.00">stddef.h</text>
</a>
</g>
</g>
<!-- Node4&#45;&gt;Node6 -->
<g id="edge5" class="edge">
<title>Node4&#45;&gt;Node6</title>
<path fill="none" stroke="midnightblue" d="M76.68,-112.32C68.11,-104.34 55.19,-92.31 44.81,-82.65"/>
<polygon fill="midnightblue" stroke="midnightblue" points="47.19,-80.09 37.49,-75.83 42.42,-85.21 47.19,-80.09"/>
</g>
<!-- Node8 -->
<g id="node8" class="node">
<title>Node8</title>
<g id="a_node8"><a xlink:href="$llvm_2Support_2DataTypes_8h.html" xlink:title=" ">
<polygon fill="none" stroke="black" points="330,-112.5 330,-131.5 472,-131.5 472,-112.5 330,-112.5"/>
<text text-anchor="middle" x="401" y="-119.5" font-family="Helvetica,sans-Serif" font-size="10.00">llvm/Support/DataTypes.h</text>
</a>
</g>
</g>
<!-- Node7&#45;&gt;Node8 -->
<g id="edge7" class="edge">
<title>Node7&#45;&gt;Node8</title>
<path fill="none" stroke="midnightblue" d="M397.18,-168.4C397.85,-160.47 398.69,-150.46 399.42,-141.86"/>
<polygon fill="midnightblue" stroke="midnightblue" points="402.92,-141.92 400.27,-131.66 395.95,-141.33 402.92,-141.92"/>
</g>
<!-- Node7&#45;&gt;Node13 -->
<g id="edge12" class="edge">
<title>Node7&#45;&gt;Node13</title>
<path fill="none" stroke="midnightblue" d="M437,-168.4C466.63,-158.21 506.23,-144.59 534.3,-134.93"/>
<polygon fill="midnightblue" stroke="midnightblue" points="535.76,-138.13 544.08,-131.57 533.48,-131.51 535.76,-138.13"/>
</g>
<!-- Node14 -->
<g id="node14" class="node">
<title>Node14</title>
<g id="a_node14"><a xlink:title=" ">
<polygon fill="none" stroke="#bfbfbf" points="242.5,-112.5 242.5,-131.5 311.5,-131.5 311.5,-112.5 242.5,-112.5"/>
<text text-anchor="middle" x="277" y="-119.5" font-family="Helvetica,sans-Serif" font-size="10.00">type_traits</text>
</a>
</g>
</g>
<!-- Node7&#45;&gt;Node14 -->
<g id="edge13" class="edge">
<title>Node7&#45;&gt;Node14</title>
<path fill="none" stroke="midnightblue" d="M367.8,-168.4C348.28,-158.64 322.47,-145.74 303.37,-136.18"/>
<polygon fill="midnightblue" stroke="midnightblue" points="304.83,-133 294.32,-131.66 301.69,-139.26 304.83,-133"/>
</g>
<!-- Node9 -->
<g id="node9" class="node">
<title>Node9</title>
<g id="a_node9"><a xlink:href="$llvm-c_2DataTypes_8h.html" xlink:title=" ">
<polygon fill="none" stroke="black" points="346,-56.5 346,-75.5 456,-75.5 456,-56.5 346,-56.5"/>
<text text-anchor="middle" x="401" y="-63.5" font-family="Helvetica,sans-Serif" font-size="10.00">llvm&#45;c/DataTypes.h</text>
</a>
</g>
</g>
<!-- Node8&#45;&gt;Node9 -->
<g id="edge8" class="edge">
<title>Node8&#45;&gt;Node9</title>
<path fill="none" stroke="midnightblue" d="M401,-112.08C401,-105.01 401,-94.86 401,-85.99"/>
<polygon fill="midnightblue" stroke="midnightblue" points="404.5,-85.75 401,-75.75 397.5,-85.75 404.5,-85.75"/>
</g>
<!-- Node10 -->
<g id="node10" class="node">
<title>Node10</title>
<g id="a_node10"><a xlink:title=" ">
<polygon fill="none" stroke="#bfbfbf" points="291.5,-0.5 291.5,-19.5 356.5,-19.5 356.5,-0.5 291.5,-0.5"/>
<text text-anchor="middle" x="324" y="-7.5" font-family="Helvetica,sans-Serif" font-size="10.00">inttypes.h</text>
</a>
</g>
</g>
<!-- Node9&#45;&gt;Node10 -->
<g id="edge9" class="edge">
<title>Node9&#45;&gt;Node10</title>
<path fill="none" stroke="midnightblue" d="M388.63,-56.32C376.84,-48.06 358.87,-35.45 344.86,-25.63"/>
<polygon fill="midnightblue" stroke="midnightblue" points="346.54,-22.53 336.34,-19.65 342.52,-28.26 346.54,-22.53"/>
</g>
<!-- Node11 -->
<g id="node11" class="node">
<title>Node11</title>
<g id="a_node11"><a xlink:title=" ">
<polygon fill="none" stroke="#bfbfbf" points="374.5,-0.5 374.5,-19.5 427.5,-19.5 427.5,-0.5 374.5,-0.5"/>
<text text-anchor="middle" x="401" y="-7.5" font-family="Helvetica,sans-Serif" font-size="10.00">stdint.h</text>
</a>
</g>
</g>
<!-- Node9&#45;&gt;Node11 -->
<g id="edge10" class="edge">
<title>Node9&#45;&gt;Node11</title>
<path fill="none" stroke="midnightblue" d="M401,-56.08C401,-49.01 401,-38.86 401,-29.99"/>
<polygon fill="midnightblue" stroke="midnightblue" points="404.5,-29.75 401,-19.75 397.5,-29.75 404.5,-29.75"/>
</g>
<!-- Node12 -->
<g id="node12" class="node">
<title>Node12</title>
<g id="a_node12"><a xlink:title=" ">
<polygon fill="none" stroke="#bfbfbf" points="446,-0.5 446,-19.5 518,-19.5 518,-0.5 446,-0.5"/>
<text text-anchor="middle" x="482" y="-7.5" font-family="Helvetica,sans-Serif" font-size="10.00">sys/types.h</text>
</a>
</g>
</g>
<!-- Node9&#45;&gt;Node12 -->
<g id="edge11" class="edge">
<title>Node9&#45;&gt;Node12</title>
<path fill="none" stroke="midnightblue" d="M414.01,-56.32C426.53,-47.98 445.68,-35.21 460.47,-25.35"/>
<polygon fill="midnightblue" stroke="midnightblue" points="462.64,-28.11 469.02,-19.65 458.76,-22.29 462.64,-28.11"/>
</g>
<!-- Node15&#45;&gt;Node4 -->
<g id="edge15" class="edge">
<title>Node15&#45;&gt;Node4</title>
<path fill="none" stroke="midnightblue" d="M171.67,-173.98C155.34,-164.25 128.4,-148.23 109.09,-136.74"/>
<polygon fill="midnightblue" stroke="midnightblue" points="110.68,-133.61 100.3,-131.51 107.11,-139.63 110.68,-133.61"/>
</g>
<!-- Node15&#45;&gt;Node14 -->
<g id="edge16" class="edge">
<title>Node15&#45;&gt;Node14</title>
<path fill="none" stroke="midnightblue" d="M199.04,-173.98C213.77,-164.34 237.97,-148.52 255.51,-137.05"/>
<polygon fill="midnightblue" stroke="midnightblue" points="257.53,-139.91 263.99,-131.51 253.7,-134.05 257.53,-139.91"/>
</g>
<!-- Node16 -->
<g id="node16" class="node">
<title>Node16</title>
<g id="a_node16"><a xlink:title=" ">
<polygon fill="none" stroke="#bfbfbf" points="171.5,-112.5 171.5,-131.5 216.5,-131.5 216.5,-112.5 171.5,-112.5"/>
<text text-anchor="middle" x="194" y="-119.5" font-family="Helvetica,sans-Serif" font-size="10.00">utility</text>
</a>
</g>
</g>
<!-- Node15&#45;&gt;Node16 -->
<g id="edge17" class="edge">
<title>Node15&#45;&gt;Node16</title>
<path fill="none" stroke="midnightblue" d="M187.15,-173.98C188.27,-165.58 190.04,-152.48 191.49,-141.66"/>
<polygon fill="midnightblue" stroke="midnightblue" points="194.99,-141.89 192.86,-131.51 188.05,-140.95 194.99,-141.89"/>
</g>
<!-- Node19&#45;&gt;Node14 -->
<g id="edge23" class="edge">
<title>Node19&#45;&gt;Node14</title>
<path fill="none" stroke="midnightblue" d="M351.11,-291.36C334.68,-283.12 316.37,-271.13 305,-255 280.67,-220.48 276.72,-169.13 276.51,-141.77"/>
<polygon fill="midnightblue" stroke="midnightblue" points="280.02,-141.66 276.61,-131.62 273.02,-141.59 280.02,-141.66"/>
</g>
<!-- Node20 -->
<g id="node20" class="node">
<title>Node20</title>
<g id="a_node20"><a xlink:title=" ">
<polygon fill="none" stroke="#bfbfbf" points="314,-235.5 314,-254.5 460,-254.5 460,-235.5 314,-235.5"/>
<text text-anchor="middle" x="387" y="-242.5" font-family="Helvetica,sans-Serif" font-size="10.00">llvm/Config/abi&#45;breaking.h</text>
</a>
</g>
</g>
<!-- Node19&#45;&gt;Node20 -->
<g id="edge22" class="edge">
<title>Node19&#45;&gt;Node20</title>
<path fill="none" stroke="midnightblue" d="M387,-291.4C387,-283.47 387,-273.46 387,-264.86"/>
<polygon fill="midnightblue" stroke="midnightblue" points="390.5,-264.66 387,-254.66 383.5,-264.66 390.5,-264.66"/>
</g>
</g>
</svg>
