<?xml version="1.0" encoding="UTF-8" standalone="no"?>
<!DOCTYPE svg PUBLIC "-//W3C//DTD SVG 1.1//EN"
 "http://www.w3.org/Graphics/SVG/1.1/DTD/svg11.dtd">
<!-- Generated by graphviz version 2.48.0 (0)
 -->
<!-- Title: include/llvm/ADT/IndexedMap.h Pages: 1 -->
<svg width="2683pt" height="375pt"
 viewBox="0.00 0.00 2682.58 375.00" xmlns="http://www.w3.org/2000/svg" xmlns:xlink="http://www.w3.org/1999/xlink">
<g id="graph0" class="graph" transform="scale(1 1) rotate(0) translate(4 371)">
<title>include/llvm/ADT/IndexedMap.h</title>
<!-- Node1 -->
<g id="node1" class="node">
<title>Node1</title>
<g id="a_node1"><a xlink:title="This file implements an indexed map.">
<polygon fill="#bfbfbf" stroke="black" points="778,-336.5 778,-366.5 919,-366.5 919,-336.5 778,-336.5"/>
<text text-anchor="start" x="786" y="-354.5" font-family="Helvetica,sans-Serif" font-size="10.00">include/llvm/ADT/Indexed</text>
<text text-anchor="middle" x="848.5" y="-343.5" font-family="Helvetica,sans-Serif" font-size="10.00">Map.h</text>
</a>
</g>
</g>
<!-- Node2 -->
<g id="node2" class="node">
<title>Node2</title>
<g id="a_node2"><a xlink:href="SmallVector_8h.html" target="_top" xlink:title=" ">
<polygon fill="none" stroke="black" points="601,-168.5 601,-187.5 732,-187.5 732,-168.5 601,-168.5"/>
<text text-anchor="middle" x="666.5" y="-175.5" font-family="Helvetica,sans-Serif" font-size="10.00">llvm/ADT/SmallVector.h</text>
</a>
</g>
</g>
<!-- Node1&#45;&gt;Node2 -->
<g id="edge1" class="edge">
<title>Node1&#45;&gt;Node2</title>
<path fill="none" stroke="midnightblue" d="M833.61,-336.47C799.97,-304.77 718.31,-227.82 683.11,-194.65"/>
<polygon fill="midnightblue" stroke="midnightblue" points="685.26,-191.87 675.58,-187.56 680.46,-196.97 685.26,-191.87"/>
</g>
<!-- Node10 -->
<g id="node10" class="node">
<title>Node10</title>
<g id="a_node10"><a xlink:title=" ">
<polygon fill="none" stroke="#bfbfbf" points="953.5,-112.5 953.5,-131.5 1005.5,-131.5 1005.5,-112.5 953.5,-112.5"/>
<text text-anchor="middle" x="979.5" y="-119.5" font-family="Helvetica,sans-Serif" font-size="10.00">cassert</text>
</a>
</g>
</g>
<!-- Node1&#45;&gt;Node10 -->
<g id="edge84" class="edge">
<title>Node1&#45;&gt;Node10</title>
<path fill="none" stroke="midnightblue" d="M856.69,-336.27C879.56,-296.56 944.03,-184.61 969.22,-140.85"/>
<polygon fill="midnightblue" stroke="midnightblue" points="972.4,-142.34 974.36,-131.93 966.34,-138.85 972.4,-142.34"/>
</g>
<!-- Node20 -->
<g id="node20" class="node">
<title>Node20</title>
<g id="a_node20"><a xlink:href="STLExtras_8h.html" target="_top" xlink:title="This file contains some templates that are useful if you are working with the STL at all.">
<polygon fill="none" stroke="black" points="1129.5,-280.5 1129.5,-299.5 1251.5,-299.5 1251.5,-280.5 1129.5,-280.5"/>
<text text-anchor="middle" x="1190.5" y="-287.5" font-family="Helvetica,sans-Serif" font-size="10.00">llvm/ADT/STLExtras.h</text>
</a>
</g>
</g>
<!-- Node1&#45;&gt;Node20 -->
<g id="edge22" class="edge">
<title>Node1&#45;&gt;Node20</title>
<path fill="none" stroke="midnightblue" d="M919.36,-338.17C982.15,-327.25 1072.76,-311.48 1131.64,-301.24"/>
<polygon fill="midnightblue" stroke="midnightblue" points="1132.27,-304.68 1141.53,-299.52 1131.07,-297.79 1132.27,-304.68"/>
</g>
<!-- Node3 -->
<g id="node3" class="node">
<title>Node3</title>
<g id="a_node3"><a xlink:href="Compiler_8h.html" target="_top" xlink:title=" ">
<polygon fill="none" stroke="black" points="1633.5,-56.5 1633.5,-75.5 1767.5,-75.5 1767.5,-56.5 1633.5,-56.5"/>
<text text-anchor="middle" x="1700.5" y="-63.5" font-family="Helvetica,sans-Serif" font-size="10.00">llvm/Support/Compiler.h</text>
</a>
</g>
</g>
<!-- Node2&#45;&gt;Node3 -->
<g id="edge2" class="edge">
<title>Node2&#45;&gt;Node3</title>
<path fill="none" stroke="midnightblue" d="M606.58,-168.42C557.71,-159.1 501.06,-141.44 529.5,-112 569.9,-70.18 1517.44,-79.09 1575.5,-76 1590.92,-75.18 1607.39,-74.12 1623.15,-73.02"/>
<polygon fill="midnightblue" stroke="midnightblue" points="1623.66,-76.5 1633.39,-72.3 1623.16,-69.51 1623.66,-76.5"/>
</g>
<!-- Node6 -->
<g id="node6" class="node">
<title>Node6</title>
<g id="a_node6"><a xlink:href="type__traits_8h.html" target="_top" xlink:title=" ">
<polygon fill="none" stroke="black" points="1678,-112.5 1678,-131.5 1821,-131.5 1821,-112.5 1678,-112.5"/>
<text text-anchor="middle" x="1749.5" y="-119.5" font-family="Helvetica,sans-Serif" font-size="10.00">llvm/Support/type_traits.h</text>
</a>
</g>
</g>
<!-- Node2&#45;&gt;Node6 -->
<g id="edge5" class="edge">
<title>Node2&#45;&gt;Node6</title>
<path fill="none" stroke="midnightblue" d="M732.24,-175.54C891.03,-171.7 1308.24,-159.69 1667.88,-131.99"/>
<polygon fill="midnightblue" stroke="midnightblue" points="1668.27,-135.47 1677.97,-131.21 1667.73,-128.49 1668.27,-135.47"/>
</g>
<!-- Node7 -->
<g id="node7" class="node">
<title>Node7</title>
<g id="a_node7"><a xlink:title=" ">
<polygon fill="none" stroke="#bfbfbf" points="2028,-56.5 2028,-75.5 2097,-75.5 2097,-56.5 2028,-56.5"/>
<text text-anchor="middle" x="2062.5" y="-63.5" font-family="Helvetica,sans-Serif" font-size="10.00">type_traits</text>
</a>
</g>
</g>
<!-- Node2&#45;&gt;Node7 -->
<g id="edge20" class="edge">
<title>Node2&#45;&gt;Node7</title>
<path fill="none" stroke="midnightblue" d="M632.56,-168.5C595.08,-157.61 543.04,-137.12 567.5,-112 593.75,-85.04 1883.91,-77.7 1921.5,-76 1953.66,-74.55 1989.9,-72.22 2017.59,-70.29"/>
<polygon fill="midnightblue" stroke="midnightblue" points="2018.02,-73.77 2027.75,-69.58 2017.53,-66.79 2018.02,-73.77"/>
</g>
<!-- Node8 -->
<g id="node8" class="node">
<title>Node8</title>
<g id="a_node8"><a xlink:title=" ">
<polygon fill="none" stroke="#bfbfbf" points="2115,-56.5 2115,-75.5 2160,-75.5 2160,-56.5 2115,-56.5"/>
<text text-anchor="middle" x="2137.5" y="-63.5" font-family="Helvetica,sans-Serif" font-size="10.00">utility</text>
</a>
</g>
</g>
<!-- Node2&#45;&gt;Node8 -->
<g id="edge21" class="edge">
<title>Node2&#45;&gt;Node8</title>
<path fill="none" stroke="midnightblue" d="M646.72,-168.49C620.67,-156.17 580.39,-132.6 600.5,-112 657.37,-53.76 1950.13,-86.84 2104.68,-75.35"/>
<polygon fill="midnightblue" stroke="midnightblue" points="2105.38,-78.8 2114.97,-74.27 2104.65,-71.83 2105.38,-78.8"/>
</g>
<!-- Node9 -->
<g id="node9" class="node">
<title>Node9</title>
<g id="a_node9"><a xlink:title=" ">
<polygon fill="none" stroke="#bfbfbf" points="871.5,-112.5 871.5,-131.5 935.5,-131.5 935.5,-112.5 871.5,-112.5"/>
<text text-anchor="middle" x="903.5" y="-119.5" font-family="Helvetica,sans-Serif" font-size="10.00">algorithm</text>
</a>
</g>
</g>
<!-- Node2&#45;&gt;Node9 -->
<g id="edge9" class="edge">
<title>Node2&#45;&gt;Node9</title>
<path fill="none" stroke="midnightblue" d="M704.05,-168.44C746.92,-158.68 816.86,-142.74 861.5,-132.57"/>
<polygon fill="midnightblue" stroke="midnightblue" points="862.47,-135.94 871.44,-130.3 860.92,-129.11 862.47,-135.94"/>
</g>
<!-- Node2&#45;&gt;Node10 -->
<g id="edge10" class="edge">
<title>Node2&#45;&gt;Node10</title>
<path fill="none" stroke="midnightblue" d="M729.46,-168.48C783.68,-160.76 864.22,-148.4 943.08,-132.15"/>
<polygon fill="midnightblue" stroke="midnightblue" points="944.11,-135.51 953.19,-130.04 942.68,-128.65 944.11,-135.51"/>
</g>
<!-- Node11 -->
<g id="node11" class="node">
<title>Node11</title>
<g id="a_node11"><a xlink:title=" ">
<polygon fill="none" stroke="#bfbfbf" points="441,-56.5 441,-75.5 494,-75.5 494,-56.5 441,-56.5"/>
<text text-anchor="middle" x="467.5" y="-63.5" font-family="Helvetica,sans-Serif" font-size="10.00">cstddef</text>
</a>
</g>
</g>
<!-- Node2&#45;&gt;Node11 -->
<g id="edge11" class="edge">
<title>Node2&#45;&gt;Node11</title>
<path fill="none" stroke="midnightblue" d="M610.76,-168.43C566.42,-160.59 509.02,-147.82 491.5,-132 478.27,-120.05 472.31,-100.15 469.64,-85.51"/>
<polygon fill="midnightblue" stroke="midnightblue" points="473.1,-84.94 468.18,-75.56 466.17,-85.96 473.1,-84.94"/>
</g>
<!-- Node12 -->
<g id="node12" class="node">
<title>Node12</title>
<g id="a_node12"><a xlink:title=" ">
<polygon fill="none" stroke="#bfbfbf" points="206,-112.5 206,-131.5 255,-131.5 255,-112.5 206,-112.5"/>
<text text-anchor="middle" x="230.5" y="-119.5" font-family="Helvetica,sans-Serif" font-size="10.00">cstdlib</text>
</a>
</g>
</g>
<!-- Node2&#45;&gt;Node12 -->
<g id="edge12" class="edge">
<title>Node2&#45;&gt;Node12</title>
<path fill="none" stroke="midnightblue" d="M600.77,-172.8C522.72,-167.12 388.54,-155.14 265.26,-132.09"/>
<polygon fill="midnightblue" stroke="midnightblue" points="265.75,-128.62 255.27,-130.2 264.44,-135.5 265.75,-128.62"/>
</g>
<!-- Node13 -->
<g id="node13" class="node">
<title>Node13</title>
<g id="a_node13"><a xlink:title=" ">
<polygon fill="none" stroke="#bfbfbf" points="803.5,-112.5 803.5,-131.5 853.5,-131.5 853.5,-112.5 803.5,-112.5"/>
<text text-anchor="middle" x="828.5" y="-119.5" font-family="Helvetica,sans-Serif" font-size="10.00">cstring</text>
</a>
</g>
</g>
<!-- Node2&#45;&gt;Node13 -->
<g id="edge13" class="edge">
<title>Node2&#45;&gt;Node13</title>
<path fill="none" stroke="midnightblue" d="M692.17,-168.44C719.58,-159.31 763.19,-144.77 793.69,-134.6"/>
<polygon fill="midnightblue" stroke="midnightblue" points="795.1,-137.82 803.48,-131.34 792.89,-131.18 795.1,-137.82"/>
</g>
<!-- Node14 -->
<g id="node14" class="node">
<title>Node14</title>
<g id="a_node14"><a xlink:title=" ">
<polygon fill="none" stroke="#bfbfbf" points="273,-112.5 273,-131.5 338,-131.5 338,-112.5 273,-112.5"/>
<text text-anchor="middle" x="305.5" y="-119.5" font-family="Helvetica,sans-Serif" font-size="10.00">functional</text>
</a>
</g>
</g>
<!-- Node2&#45;&gt;Node14 -->
<g id="edge14" class="edge">
<title>Node2&#45;&gt;Node14</title>
<path fill="none" stroke="midnightblue" d="M601,-169.28C538.37,-161.55 441.09,-148.68 347.99,-132.16"/>
<polygon fill="midnightblue" stroke="midnightblue" points="348.59,-128.72 338.13,-130.4 347.36,-135.61 348.59,-128.72"/>
</g>
<!-- Node15 -->
<g id="node15" class="node">
<title>Node15</title>
<g id="a_node15"><a xlink:title=" ">
<polygon fill="none" stroke="#bfbfbf" points="356,-112.5 356,-131.5 439,-131.5 439,-112.5 356,-112.5"/>
<text text-anchor="middle" x="397.5" y="-119.5" font-family="Helvetica,sans-Serif" font-size="10.00">initializer_list</text>
</a>
</g>
</g>
<!-- Node2&#45;&gt;Node15 -->
<g id="edge15" class="edge">
<title>Node2&#45;&gt;Node15</title>
<path fill="none" stroke="midnightblue" d="M623.88,-168.44C576.48,-158.93 499.91,-143.56 449.15,-133.37"/>
<polygon fill="midnightblue" stroke="midnightblue" points="449.53,-129.88 439.04,-131.34 448.16,-136.74 449.53,-129.88"/>
</g>
<!-- Node16 -->
<g id="node16" class="node">
<title>Node16</title>
<g id="a_node16"><a xlink:title=" ">
<polygon fill="none" stroke="#bfbfbf" points="1024,-112.5 1024,-131.5 1077,-131.5 1077,-112.5 1024,-112.5"/>
<text text-anchor="middle" x="1050.5" y="-119.5" font-family="Helvetica,sans-Serif" font-size="10.00">iterator</text>
</a>
</g>
</g>
<!-- Node2&#45;&gt;Node16 -->
<g id="edge16" class="edge">
<title>Node2&#45;&gt;Node16</title>
<path fill="none" stroke="midnightblue" d="M732.28,-170.8C800.33,-163.87 909.82,-151.26 1013.8,-131.92"/>
<polygon fill="midnightblue" stroke="midnightblue" points="1014.66,-135.32 1023.84,-130.03 1013.36,-128.44 1014.66,-135.32"/>
</g>
<!-- Node17 -->
<g id="node17" class="node">
<title>Node17</title>
<g id="a_node17"><a xlink:title=" ">
<polygon fill="none" stroke="#bfbfbf" points="609.5,-112.5 609.5,-131.5 653.5,-131.5 653.5,-112.5 609.5,-112.5"/>
<text text-anchor="middle" x="631.5" y="-119.5" font-family="Helvetica,sans-Serif" font-size="10.00">limits</text>
</a>
</g>
</g>
<!-- Node2&#45;&gt;Node17 -->
<g id="edge17" class="edge">
<title>Node2&#45;&gt;Node17</title>
<path fill="none" stroke="midnightblue" d="M660.72,-168.08C655.83,-160.53 648.67,-149.49 642.67,-140.23"/>
<polygon fill="midnightblue" stroke="midnightblue" points="645.55,-138.24 637.17,-131.75 639.67,-142.05 645.55,-138.24"/>
</g>
<!-- Node18 -->
<g id="node18" class="node">
<title>Node18</title>
<g id="a_node18"><a xlink:title=" ">
<polygon fill="none" stroke="#bfbfbf" points="671.5,-112.5 671.5,-131.5 729.5,-131.5 729.5,-112.5 671.5,-112.5"/>
<text text-anchor="middle" x="700.5" y="-119.5" font-family="Helvetica,sans-Serif" font-size="10.00">memory</text>
</a>
</g>
</g>
<!-- Node2&#45;&gt;Node18 -->
<g id="edge18" class="edge">
<title>Node2&#45;&gt;Node18</title>
<path fill="none" stroke="midnightblue" d="M672.11,-168.08C676.87,-160.53 683.82,-149.49 689.65,-140.23"/>
<polygon fill="midnightblue" stroke="midnightblue" points="692.62,-142.08 694.99,-131.75 686.7,-138.35 692.62,-142.08"/>
</g>
<!-- Node19 -->
<g id="node19" class="node">
<title>Node19</title>
<g id="a_node19"><a xlink:title=" ">
<polygon fill="none" stroke="#bfbfbf" points="748,-112.5 748,-131.5 785,-131.5 785,-112.5 748,-112.5"/>
<text text-anchor="middle" x="766.5" y="-119.5" font-family="Helvetica,sans-Serif" font-size="10.00">new</text>
</a>
</g>
</g>
<!-- Node2&#45;&gt;Node19 -->
<g id="edge19" class="edge">
<title>Node2&#45;&gt;Node19</title>
<path fill="none" stroke="midnightblue" d="M682.57,-168.32C698.46,-159.74 723.01,-146.49 741.46,-136.52"/>
<polygon fill="midnightblue" stroke="midnightblue" points="743.34,-139.49 750.47,-131.65 740.01,-133.33 743.34,-139.49"/>
</g>
<!-- Node4 -->
<g id="node4" class="node">
<title>Node4</title>
<g id="a_node4"><a xlink:title=" ">
<polygon fill="none" stroke="#bfbfbf" points="1689,-0.5 1689,-19.5 1828,-19.5 1828,-0.5 1689,-0.5"/>
<text text-anchor="middle" x="1758.5" y="-7.5" font-family="Helvetica,sans-Serif" font-size="10.00">llvm/Config/llvm&#45;config.h</text>
</a>
</g>
</g>
<!-- Node3&#45;&gt;Node4 -->
<g id="edge3" class="edge">
<title>Node3&#45;&gt;Node4</title>
<path fill="none" stroke="midnightblue" d="M1709.82,-56.32C1718.39,-48.34 1731.31,-36.31 1741.69,-26.65"/>
<polygon fill="midnightblue" stroke="midnightblue" points="1744.08,-29.21 1749.01,-19.83 1739.31,-24.09 1744.08,-29.21"/>
</g>
<!-- Node5 -->
<g id="node5" class="node">
<title>Node5</title>
<g id="a_node5"><a xlink:title=" ">
<polygon fill="none" stroke="#bfbfbf" points="1614.5,-0.5 1614.5,-19.5 1670.5,-19.5 1670.5,-0.5 1614.5,-0.5"/>
<text text-anchor="middle" x="1642.5" y="-7.5" font-family="Helvetica,sans-Serif" font-size="10.00">stddef.h</text>
</a>
</g>
</g>
<!-- Node3&#45;&gt;Node5 -->
<g id="edge4" class="edge">
<title>Node3&#45;&gt;Node5</title>
<path fill="none" stroke="midnightblue" d="M1691.18,-56.32C1682.61,-48.34 1669.69,-36.31 1659.31,-26.65"/>
<polygon fill="midnightblue" stroke="midnightblue" points="1661.69,-24.09 1651.99,-19.83 1656.92,-29.21 1661.69,-24.09"/>
</g>
<!-- Node6&#45;&gt;Node3 -->
<g id="edge6" class="edge">
<title>Node6&#45;&gt;Node3</title>
<path fill="none" stroke="midnightblue" d="M1741.41,-112.08C1734.34,-104.3 1723.91,-92.8 1715.35,-83.37"/>
<polygon fill="midnightblue" stroke="midnightblue" points="1717.75,-80.8 1708.44,-75.75 1712.57,-85.51 1717.75,-80.8"/>
</g>
<!-- Node6&#45;&gt;Node7 -->
<g id="edge7" class="edge">
<title>Node6&#45;&gt;Node7</title>
<path fill="none" stroke="midnightblue" d="M1799.1,-112.44C1859.26,-102.06 1959.81,-84.72 2017.72,-74.73"/>
<polygon fill="midnightblue" stroke="midnightblue" points="2018.41,-78.16 2027.67,-73.01 2017.22,-71.26 2018.41,-78.16"/>
</g>
<!-- Node6&#45;&gt;Node8 -->
<g id="edge8" class="edge">
<title>Node6&#45;&gt;Node8</title>
<path fill="none" stroke="midnightblue" d="M1821.16,-115.3C1891.37,-108.97 2001.48,-97.02 2104.93,-76.06"/>
<polygon fill="midnightblue" stroke="midnightblue" points="2105.83,-79.45 2114.92,-74 2104.42,-72.59 2105.83,-79.45"/>
</g>
<!-- Node20&#45;&gt;Node7 -->
<g id="edge82" class="edge">
<title>Node20&#45;&gt;Node7</title>
<path fill="none" stroke="midnightblue" d="M1251.79,-289.1C1492.14,-288.82 2360.9,-281.32 2435.5,-188 2460.22,-157.08 2417,-126.05 2392.5,-112 2284.18,-49.9 2235.41,-94.46 2107.22,-75.91"/>
<polygon fill="midnightblue" stroke="midnightblue" points="2107.46,-72.4 2097.04,-74.33 2106.39,-79.32 2107.46,-72.4"/>
</g>
<!-- Node20&#45;&gt;Node8 -->
<g id="edge83" class="edge">
<title>Node20&#45;&gt;Node8</title>
<path fill="none" stroke="midnightblue" d="M1251.74,-288.86C1516.2,-288.01 2549.55,-282.24 2606.5,-244 2658.58,-209.03 2698.9,-158.24 2656.5,-112 2623.59,-76.12 2278.85,-68.76 2170.14,-67.33"/>
<polygon fill="midnightblue" stroke="midnightblue" points="2170.13,-63.83 2160.09,-67.21 2170.05,-70.83 2170.13,-63.83"/>
</g>
<!-- Node20&#45;&gt;Node9 -->
<g id="edge71" class="edge">
<title>Node20&#45;&gt;Node9</title>
<path fill="none" stroke="midnightblue" d="M1174.18,-280.39C1157.36,-271.46 1130.45,-257.02 1107.5,-244 1041.14,-206.35 963.97,-159.81 926.4,-136.97"/>
<polygon fill="midnightblue" stroke="midnightblue" points="928.1,-133.91 917.73,-131.7 924.46,-139.89 928.1,-133.91"/>
</g>
<!-- Node20&#45;&gt;Node10 -->
<g id="edge72" class="edge">
<title>Node20&#45;&gt;Node10</title>
<path fill="none" stroke="midnightblue" d="M1179.45,-280.31C1145.34,-253.47 1041.39,-171.69 998.41,-137.88"/>
<polygon fill="midnightblue" stroke="midnightblue" points="1000.46,-135.04 990.44,-131.61 996.13,-140.54 1000.46,-135.04"/>
</g>
<!-- Node20&#45;&gt;Node11 -->
<g id="edge73" class="edge">
<title>Node20&#45;&gt;Node11</title>
<path fill="none" stroke="midnightblue" d="M1129.37,-289.85C930.4,-291.12 307.7,-282.81 196.5,-132 191.22,-124.85 190.75,-118.78 196.5,-112 226.07,-77.12 363.37,-69.25 430.44,-67.49"/>
<polygon fill="midnightblue" stroke="midnightblue" points="430.65,-70.99 440.57,-67.26 430.49,-63.99 430.65,-70.99"/>
</g>
<!-- Node20&#45;&gt;Node12 -->
<g id="edge75" class="edge">
<title>Node20&#45;&gt;Node12</title>
<path fill="none" stroke="midnightblue" d="M1129.29,-287.41C1029.7,-284.02 826.7,-273.78 657.5,-244 563.64,-227.48 542.21,-213.95 450.5,-188 384.69,-169.38 308.17,-146.49 264.93,-133.44"/>
<polygon fill="midnightblue" stroke="midnightblue" points="265.78,-130.04 255.19,-130.5 263.75,-136.74 265.78,-130.04"/>
</g>
<!-- Node20&#45;&gt;Node14 -->
<g id="edge76" class="edge">
<title>Node20&#45;&gt;Node14</title>
<path fill="none" stroke="midnightblue" d="M1129.43,-285.02C1045.93,-279.03 891.65,-265.98 761.5,-244 653.92,-225.83 627.92,-216.11 522.5,-188 458.47,-170.93 384.73,-148.17 341.79,-134.61"/>
<polygon fill="midnightblue" stroke="midnightblue" points="342.67,-131.21 332.08,-131.53 340.55,-137.89 342.67,-131.21"/>
</g>
<!-- Node20&#45;&gt;Node15 -->
<g id="edge77" class="edge">
<title>Node20&#45;&gt;Node15</title>
<path fill="none" stroke="midnightblue" d="M1129.49,-281.91C1020.44,-268.54 785.37,-236.51 591.5,-188 532.98,-173.36 466.73,-149.54 428.76,-135.16"/>
<polygon fill="midnightblue" stroke="midnightblue" points="429.87,-131.84 419.28,-131.55 427.38,-138.38 429.87,-131.84"/>
</g>
<!-- Node20&#45;&gt;Node16 -->
<g id="edge78" class="edge">
<title>Node20&#45;&gt;Node16</title>
<path fill="none" stroke="midnightblue" d="M1182.97,-280.08C1160.46,-253.38 1093.4,-173.87 1064.27,-139.32"/>
<polygon fill="midnightblue" stroke="midnightblue" points="1066.85,-136.96 1057.73,-131.57 1061.5,-141.47 1066.85,-136.96"/>
</g>
<!-- Node20&#45;&gt;Node17 -->
<g id="edge79" class="edge">
<title>Node20&#45;&gt;Node17</title>
<path fill="none" stroke="midnightblue" d="M1156.72,-280.44C1122.53,-271.67 1068.18,-257.45 1021.5,-244 887.97,-205.53 730.28,-155.03 663.71,-133.48"/>
<polygon fill="midnightblue" stroke="midnightblue" points="664.42,-130.03 653.83,-130.28 662.26,-136.69 664.42,-130.03"/>
</g>
<!-- Node20&#45;&gt;Node18 -->
<g id="edge80" class="edge">
<title>Node20&#45;&gt;Node18</title>
<path fill="none" stroke="midnightblue" d="M1166.42,-280.47C1142.07,-271.72 1103.43,-257.52 1070.5,-244 993.94,-212.57 979.06,-194.05 900.5,-168 833.89,-145.91 812.8,-148.01 740.01,-132.06"/>
<polygon fill="midnightblue" stroke="midnightblue" points="740.4,-128.57 729.88,-129.8 738.88,-135.4 740.4,-128.57"/>
</g>
<!-- Node21 -->
<g id="node21" class="node">
<title>Node21</title>
<g id="a_node21"><a xlink:href="Optional_8h.html" target="_top" xlink:title="This file provides Optional, a template class modeled in the spirit of OCaml&#39;s &#39;opt&#39; variant.">
<polygon fill="none" stroke="black" points="1457,-224.5 1457,-243.5 1572,-243.5 1572,-224.5 1457,-224.5"/>
<text text-anchor="middle" x="1514.5" y="-231.5" font-family="Helvetica,sans-Serif" font-size="10.00">llvm/ADT/Optional.h</text>
</a>
</g>
</g>
<!-- Node20&#45;&gt;Node21 -->
<g id="edge23" class="edge">
<title>Node20&#45;&gt;Node21</title>
<path fill="none" stroke="midnightblue" d="M1241.84,-280.44C1299.31,-270.87 1392.37,-255.36 1453.5,-245.17"/>
<polygon fill="midnightblue" stroke="midnightblue" points="1454.11,-248.61 1463.4,-243.52 1452.96,-241.71 1454.11,-248.61"/>
</g>
<!-- Node28 -->
<g id="node28" class="node">
<title>Node28</title>
<g id="a_node28"><a xlink:href="llvm_2Support_2ErrorHandling_8h.html" target="_top" xlink:title=" ">
<polygon fill="none" stroke="black" points="1095.5,-112.5 1095.5,-131.5 1253.5,-131.5 1253.5,-112.5 1095.5,-112.5"/>
<text text-anchor="middle" x="1174.5" y="-119.5" font-family="Helvetica,sans-Serif" font-size="10.00">llvm/Support/ErrorHandling.h</text>
</a>
</g>
</g>
<!-- Node20&#45;&gt;Node28 -->
<g id="edge70" class="edge">
<title>Node20&#45;&gt;Node28</title>
<path fill="none" stroke="midnightblue" d="M1189.64,-280.08C1187.12,-253.95 1179.73,-177.21 1176.29,-141.58"/>
<polygon fill="midnightblue" stroke="midnightblue" points="1179.77,-141.19 1175.33,-131.57 1172.8,-141.86 1179.77,-141.19"/>
</g>
<!-- Node30 -->
<g id="node30" class="node">
<title>Node30</title>
<g id="a_node30"><a xlink:title=" ">
<polygon fill="none" stroke="#bfbfbf" points="1862.5,-56.5 1862.5,-75.5 1912.5,-75.5 1912.5,-56.5 1862.5,-56.5"/>
<text text-anchor="middle" x="1887.5" y="-63.5" font-family="Helvetica,sans-Serif" font-size="10.00">cstdint</text>
</a>
</g>
</g>
<!-- Node20&#45;&gt;Node30 -->
<g id="edge74" class="edge">
<title>Node20&#45;&gt;Node30</title>
<path fill="none" stroke="midnightblue" d="M1251.59,-284.37C1385.92,-273.31 1702.27,-242.14 1793.5,-188 1835.49,-163.08 1865.59,-111.69 1879.26,-84.6"/>
<polygon fill="midnightblue" stroke="midnightblue" points="1882.46,-86.04 1883.69,-75.51 1876.17,-82.97 1882.46,-86.04"/>
</g>
<!-- Node33 -->
<g id="node33" class="node">
<title>Node33</title>
<g id="a_node33"><a xlink:title=" ">
<polygon fill="none" stroke="#bfbfbf" points="1954,-112.5 1954,-131.5 1995,-131.5 1995,-112.5 1954,-112.5"/>
<text text-anchor="middle" x="1974.5" y="-119.5" font-family="Helvetica,sans-Serif" font-size="10.00">tuple</text>
</a>
</g>
</g>
<!-- Node20&#45;&gt;Node33 -->
<g id="edge81" class="edge">
<title>Node20&#45;&gt;Node33</title>
<path fill="none" stroke="midnightblue" d="M1251.78,-288.35C1414.12,-286.17 1846.69,-277.27 1901.5,-244 1939.83,-220.74 1960.63,-169.03 1969.4,-141.34"/>
<polygon fill="midnightblue" stroke="midnightblue" points="1972.77,-142.29 1972.27,-131.71 1966.06,-140.29 1972.77,-142.29"/>
</g>
<!-- Node35 -->
<g id="node35" class="node">
<title>Node35</title>
<g id="a_node35"><a xlink:href="STLForwardCompat_8h.html" target="_top" xlink:title="This file contains library features backported from future STL versions.">
<polygon fill="none" stroke="black" points="2165.5,-112.5 2165.5,-131.5 2333.5,-131.5 2333.5,-112.5 2165.5,-112.5"/>
<text text-anchor="middle" x="2249.5" y="-119.5" font-family="Helvetica,sans-Serif" font-size="10.00">llvm/ADT/STLForwardCompat.h</text>
</a>
</g>
</g>
<!-- Node20&#45;&gt;Node35 -->
<g id="edge54" class="edge">
<title>Node20&#45;&gt;Node35</title>
<path fill="none" stroke="midnightblue" d="M1251.5,-287.97C1449.07,-284.39 2063.5,-271.17 2148.5,-244 2192.3,-230 2209.33,-225.81 2235.5,-188 2244.84,-174.5 2248.13,-155.95 2249.2,-142.12"/>
<polygon fill="midnightblue" stroke="midnightblue" points="2252.71,-141.97 2249.66,-131.82 2245.72,-141.66 2252.71,-141.97"/>
</g>
<!-- Node36 -->
<g id="node36" class="node">
<title>Node36</title>
<g id="a_node36"><a xlink:href="STLArrayExtras_8h.html" target="_top" xlink:title=" ">
<polygon fill="none" stroke="black" points="0,-224.5 0,-243.5 149,-243.5 149,-224.5 0,-224.5"/>
<text text-anchor="middle" x="74.5" y="-231.5" font-family="Helvetica,sans-Serif" font-size="10.00">llvm/ADT/STLArrayExtras.h</text>
</a>
</g>
</g>
<!-- Node20&#45;&gt;Node36 -->
<g id="edge52" class="edge">
<title>Node20&#45;&gt;Node36</title>
<path fill="none" stroke="midnightblue" d="M1129.37,-287.54C970.14,-283.46 529.52,-270.5 163.5,-244 162.19,-243.91 160.88,-243.81 159.55,-243.71"/>
<polygon fill="midnightblue" stroke="midnightblue" points="159.51,-240.19 149.26,-242.87 158.94,-247.17 159.51,-240.19"/>
</g>
<!-- Node37 -->
<g id="node37" class="node">
<title>Node37</title>
<g id="a_node37"><a xlink:href="STLFunctionalExtras_8h.html" target="_top" xlink:title=" ">
<polygon fill="none" stroke="black" points="2031.5,-168.5 2031.5,-187.5 2203.5,-187.5 2203.5,-168.5 2031.5,-168.5"/>
<text text-anchor="middle" x="2117.5" y="-175.5" font-family="Helvetica,sans-Serif" font-size="10.00">llvm/ADT/STLFunctionalExtras.h</text>
</a>
</g>
</g>
<!-- Node20&#45;&gt;Node37 -->
<g id="edge55" class="edge">
<title>Node20&#45;&gt;Node37</title>
<path fill="none" stroke="midnightblue" d="M1251.78,-287.95C1406.39,-284.88 1809.25,-274.14 1939.5,-244 1962.02,-238.79 1965.9,-232.23 1987.5,-224 2018.97,-212.01 2055.2,-199.58 2081.41,-190.83"/>
<polygon fill="midnightblue" stroke="midnightblue" points="2082.55,-194.14 2090.94,-187.66 2080.34,-187.5 2082.55,-194.14"/>
</g>
<!-- Node38 -->
<g id="node38" class="node">
<title>Node38</title>
<g id="a_node38"><a xlink:href="identity_8h.html" target="_top" xlink:title=" ">
<polygon fill="none" stroke="black" points="2029.5,-224.5 2029.5,-243.5 2139.5,-243.5 2139.5,-224.5 2029.5,-224.5"/>
<text text-anchor="middle" x="2084.5" y="-231.5" font-family="Helvetica,sans-Serif" font-size="10.00">llvm/ADT/identity.h</text>
</a>
</g>
</g>
<!-- Node20&#45;&gt;Node38 -->
<g id="edge60" class="edge">
<title>Node20&#45;&gt;Node38</title>
<path fill="none" stroke="midnightblue" d="M1251.68,-287.24C1388.69,-282.95 1730.55,-270.32 2015.5,-244 2016.61,-243.9 2017.74,-243.79 2018.87,-243.68"/>
<polygon fill="midnightblue" stroke="midnightblue" points="2019.6,-247.12 2029.18,-242.59 2018.87,-240.16 2019.6,-247.12"/>
</g>
<!-- Node39 -->
<g id="node39" class="node">
<title>Node39</title>
<g id="a_node39"><a xlink:href="iterator_8h.html" target="_top" xlink:title=" ">
<polygon fill="none" stroke="black" points="2317,-168.5 2317,-187.5 2426,-187.5 2426,-168.5 2317,-168.5"/>
<text text-anchor="middle" x="2371.5" y="-175.5" font-family="Helvetica,sans-Serif" font-size="10.00">llvm/ADT/iterator.h</text>
</a>
</g>
</g>
<!-- Node20&#45;&gt;Node39 -->
<g id="edge61" class="edge">
<title>Node20&#45;&gt;Node39</title>
<path fill="none" stroke="midnightblue" d="M1251.73,-288.47C1411.91,-286.61 1840.38,-278.46 1977.5,-244 1997.94,-238.86 2000.25,-229.85 2020.5,-224 2072.68,-208.92 2220.22,-193.2 2306.5,-184.92"/>
<polygon fill="midnightblue" stroke="midnightblue" points="2307.09,-188.38 2316.71,-183.95 2306.42,-181.42 2307.09,-188.38"/>
</g>
<!-- Node40 -->
<g id="node40" class="node">
<title>Node40</title>
<g id="a_node40"><a xlink:href="iterator__range_8h.html" target="_top" xlink:title="This provides a very simple, boring adaptor for a begin and end iterator into a range type.">
<polygon fill="none" stroke="black" points="2504,-112.5 2504,-131.5 2647,-131.5 2647,-112.5 2504,-112.5"/>
<text text-anchor="middle" x="2575.5" y="-119.5" font-family="Helvetica,sans-Serif" font-size="10.00">llvm/ADT/iterator_range.h</text>
</a>
</g>
</g>
<!-- Node20&#45;&gt;Node40 -->
<g id="edge68" class="edge">
<title>Node20&#45;&gt;Node40</title>
<path fill="none" stroke="midnightblue" d="M1251.81,-289.37C1515.32,-290.67 2540.45,-292.59 2587.5,-244 2614.08,-216.55 2597.08,-167.44 2584.84,-141.01"/>
<polygon fill="midnightblue" stroke="midnightblue" points="2587.86,-139.24 2580.32,-131.79 2581.57,-142.31 2587.86,-139.24"/>
</g>
<!-- Node41 -->
<g id="node41" class="node">
<title>Node41</title>
<g id="a_node41"><a xlink:title=" ">
<polygon fill="none" stroke="#bfbfbf" points="2432.5,-224.5 2432.5,-243.5 2578.5,-243.5 2578.5,-224.5 2432.5,-224.5"/>
<text text-anchor="middle" x="2505.5" y="-231.5" font-family="Helvetica,sans-Serif" font-size="10.00">llvm/Config/abi&#45;breaking.h</text>
</a>
</g>
</g>
<!-- Node20&#45;&gt;Node41 -->
<g id="edge69" class="edge">
<title>Node20&#45;&gt;Node41</title>
<path fill="none" stroke="midnightblue" d="M1251.59,-288.2C1430.91,-285.53 1971.32,-275.29 2418.5,-244 2419.78,-243.91 2421.07,-243.82 2422.36,-243.72"/>
<polygon fill="midnightblue" stroke="midnightblue" points="2422.74,-247.2 2432.43,-242.91 2422.18,-240.22 2422.74,-247.2"/>
</g>
<!-- Node21&#45;&gt;Node3 -->
<g id="edge47" class="edge">
<title>Node21&#45;&gt;Node3</title>
<path fill="none" stroke="midnightblue" d="M1572.17,-233.49C1645.94,-230.61 1771.23,-213.17 1830.5,-132 1851.1,-103.8 1811.42,-87.09 1770.63,-77.69"/>
<polygon fill="midnightblue" stroke="midnightblue" points="1771.34,-74.26 1760.83,-75.57 1769.86,-81.11 1771.34,-74.26"/>
</g>
<!-- Node21&#45;&gt;Node6 -->
<g id="edge48" class="edge">
<title>Node21&#45;&gt;Node6</title>
<path fill="none" stroke="midnightblue" d="M1532.94,-224.37C1574.04,-205.13 1673.34,-158.65 1721.87,-135.93"/>
<polygon fill="midnightblue" stroke="midnightblue" points="1723.57,-139 1731.15,-131.59 1720.6,-132.66 1723.57,-139"/>
</g>
<!-- Node21&#45;&gt;Node8 -->
<g id="edge51" class="edge">
<title>Node21&#45;&gt;Node8</title>
<path fill="none" stroke="midnightblue" d="M1572.3,-226.92C1665.61,-215.82 1854.15,-188.08 2004.5,-132 2043.96,-117.28 2087.4,-94.77 2113.56,-80.48"/>
<polygon fill="midnightblue" stroke="midnightblue" points="2115.31,-83.51 2122.37,-75.61 2111.92,-77.38 2115.31,-83.51"/>
</g>
<!-- Node21&#45;&gt;Node10 -->
<g id="edge49" class="edge">
<title>Node21&#45;&gt;Node10</title>
<path fill="none" stroke="midnightblue" d="M1468.94,-224.49C1382.65,-208.23 1189.24,-171.03 1015.64,-131.94"/>
<polygon fill="midnightblue" stroke="midnightblue" points="1016.34,-128.51 1005.81,-129.72 1014.8,-135.34 1016.34,-128.51"/>
</g>
<!-- Node21&#45;&gt;Node19 -->
<g id="edge50" class="edge">
<title>Node21&#45;&gt;Node19</title>
<path fill="none" stroke="midnightblue" d="M1456.95,-228.34C1335.69,-217.8 1045.24,-188.67 795.06,-131.75"/>
<polygon fill="midnightblue" stroke="midnightblue" points="795.58,-128.28 785.05,-129.45 794.02,-135.1 795.58,-128.28"/>
</g>
<!-- Node22 -->
<g id="node22" class="node">
<title>Node22</title>
<g id="a_node22"><a xlink:href="Hashing_8h.html" target="_top" xlink:title=" ">
<polygon fill="none" stroke="black" points="1458,-168.5 1458,-187.5 1571,-187.5 1571,-168.5 1458,-168.5"/>
<text text-anchor="middle" x="1514.5" y="-175.5" font-family="Helvetica,sans-Serif" font-size="10.00">llvm/ADT/Hashing.h</text>
</a>
</g>
</g>
<!-- Node21&#45;&gt;Node22 -->
<g id="edge24" class="edge">
<title>Node21&#45;&gt;Node22</title>
<path fill="none" stroke="midnightblue" d="M1514.5,-224.08C1514.5,-217.01 1514.5,-206.86 1514.5,-197.99"/>
<polygon fill="midnightblue" stroke="midnightblue" points="1518,-197.75 1514.5,-187.75 1511,-197.75 1518,-197.75"/>
</g>
<!-- Node34 -->
<g id="node34" class="node">
<title>Node34</title>
<g id="a_node34"><a xlink:href="None_8h.html" target="_top" xlink:title="This file provides None, an enumerator for use in implicit constructors of various (usually templated...">
<polygon fill="none" stroke="black" points="1341,-168.5 1341,-187.5 1440,-187.5 1440,-168.5 1341,-168.5"/>
<text text-anchor="middle" x="1390.5" y="-175.5" font-family="Helvetica,sans-Serif" font-size="10.00">llvm/ADT/None.h</text>
</a>
</g>
</g>
<!-- Node21&#45;&gt;Node34 -->
<g id="edge44" class="edge">
<title>Node21&#45;&gt;Node34</title>
<path fill="none" stroke="midnightblue" d="M1494.85,-224.44C1474.54,-215.6 1442.6,-201.69 1419.4,-191.59"/>
<polygon fill="midnightblue" stroke="midnightblue" points="1420.62,-188.3 1410.06,-187.52 1417.83,-194.72 1420.62,-188.3"/>
</g>
<!-- Node21&#45;&gt;Node35 -->
<g id="edge45" class="edge">
<title>Node21&#45;&gt;Node35</title>
<path fill="none" stroke="midnightblue" d="M1572.13,-232.39C1729.58,-230.3 2158.83,-221.56 2212.5,-188 2229.16,-177.58 2239.05,-156.78 2244.35,-141.5"/>
<polygon fill="midnightblue" stroke="midnightblue" points="2247.81,-142.17 2247.44,-131.58 2241.13,-140.09 2247.81,-142.17"/>
</g>
<!-- Node22&#45;&gt;Node6 -->
<g id="edge37" class="edge">
<title>Node22&#45;&gt;Node6</title>
<path fill="none" stroke="midnightblue" d="M1551.74,-168.44C1592.56,-159.06 1658.14,-143.99 1702.48,-133.8"/>
<polygon fill="midnightblue" stroke="midnightblue" points="1703.48,-137.17 1712.44,-131.52 1701.91,-130.34 1703.48,-137.17"/>
</g>
<!-- Node22&#45;&gt;Node8 -->
<g id="edge43" class="edge">
<title>Node22&#45;&gt;Node8</title>
<path fill="none" stroke="midnightblue" d="M1571.17,-169.95C1634.53,-161.83 1740.12,-147.59 1830.5,-132 1950.59,-111.28 1983.26,-106.18 2104.8,-76.29"/>
<polygon fill="midnightblue" stroke="midnightblue" points="2106,-79.6 2114.87,-73.8 2104.32,-72.8 2106,-79.6"/>
</g>
<!-- Node22&#45;&gt;Node9 -->
<g id="edge38" class="edge">
<title>Node22&#45;&gt;Node9</title>
<path fill="none" stroke="midnightblue" d="M1457.81,-168.92C1455,-168.6 1452.22,-168.28 1449.5,-168 1228.99,-144.9 1168.95,-163.64 945.71,-131.96"/>
<polygon fill="midnightblue" stroke="midnightblue" points="946.04,-128.48 935.65,-130.52 945.05,-135.41 946.04,-128.48"/>
</g>
<!-- Node22&#45;&gt;Node10 -->
<g id="edge39" class="edge">
<title>Node22&#45;&gt;Node10</title>
<path fill="none" stroke="midnightblue" d="M1457.8,-168.96C1455,-168.62 1452.22,-168.3 1449.5,-168 1260.32,-147.07 1208.18,-163.03 1015.62,-131.71"/>
<polygon fill="midnightblue" stroke="midnightblue" points="1016.18,-128.26 1005.74,-130.08 1015.04,-135.16 1016.18,-128.26"/>
</g>
<!-- Node22&#45;&gt;Node13 -->
<g id="edge40" class="edge">
<title>Node22&#45;&gt;Node13</title>
<path fill="none" stroke="midnightblue" d="M1457.81,-168.89C1455,-168.57 1452.22,-168.27 1449.5,-168 1192.71,-142.39 1122.32,-172.85 863.7,-131.86"/>
<polygon fill="midnightblue" stroke="midnightblue" points="864.06,-128.37 853.63,-130.24 862.95,-135.29 864.06,-128.37"/>
</g>
<!-- Node23 -->
<g id="node23" class="node">
<title>Node23</title>
<g id="a_node23"><a xlink:href="llvm_2Support_2DataTypes_8h.html" target="_top" xlink:title=" ">
<polygon fill="none" stroke="black" points="1271.5,-112.5 1271.5,-131.5 1413.5,-131.5 1413.5,-112.5 1271.5,-112.5"/>
<text text-anchor="middle" x="1342.5" y="-119.5" font-family="Helvetica,sans-Serif" font-size="10.00">llvm/Support/DataTypes.h</text>
</a>
</g>
</g>
<!-- Node22&#45;&gt;Node23 -->
<g id="edge25" class="edge">
<title>Node22&#45;&gt;Node23</title>
<path fill="none" stroke="midnightblue" d="M1487.25,-168.44C1458.06,-159.28 1411.58,-144.69 1379.19,-134.52"/>
<polygon fill="midnightblue" stroke="midnightblue" points="1380.22,-131.17 1369.63,-131.52 1378.12,-137.85 1380.22,-131.17"/>
</g>
<!-- Node22&#45;&gt;Node28 -->
<g id="edge30" class="edge">
<title>Node22&#45;&gt;Node28</title>
<path fill="none" stroke="midnightblue" d="M1460.63,-168.44C1400.19,-158.85 1302.26,-143.29 1238.12,-133.1"/>
<polygon fill="midnightblue" stroke="midnightblue" points="1238.55,-129.63 1228.12,-131.52 1237.45,-136.54 1238.55,-129.63"/>
</g>
<!-- Node29 -->
<g id="node29" class="node">
<title>Node29</title>
<g id="a_node29"><a xlink:href="SwapByteOrder_8h.html" target="_top" xlink:title=" ">
<polygon fill="none" stroke="black" points="1431.5,-112.5 1431.5,-131.5 1597.5,-131.5 1597.5,-112.5 1431.5,-112.5"/>
<text text-anchor="middle" x="1514.5" y="-119.5" font-family="Helvetica,sans-Serif" font-size="10.00">llvm/Support/SwapByteOrder.h</text>
</a>
</g>
</g>
<!-- Node22&#45;&gt;Node29 -->
<g id="edge32" class="edge">
<title>Node22&#45;&gt;Node29</title>
<path fill="none" stroke="midnightblue" d="M1514.5,-168.08C1514.5,-161.01 1514.5,-150.86 1514.5,-141.99"/>
<polygon fill="midnightblue" stroke="midnightblue" points="1518,-141.75 1514.5,-131.75 1511,-141.75 1518,-141.75"/>
</g>
<!-- Node32 -->
<g id="node32" class="node">
<title>Node32</title>
<g id="a_node32"><a xlink:title=" ">
<polygon fill="none" stroke="#bfbfbf" points="1615.5,-112.5 1615.5,-131.5 1659.5,-131.5 1659.5,-112.5 1615.5,-112.5"/>
<text text-anchor="middle" x="1637.5" y="-119.5" font-family="Helvetica,sans-Serif" font-size="10.00">string</text>
</a>
</g>
</g>
<!-- Node22&#45;&gt;Node32 -->
<g id="edge41" class="edge">
<title>Node22&#45;&gt;Node32</title>
<path fill="none" stroke="midnightblue" d="M1533.99,-168.44C1554.14,-159.6 1585.82,-145.69 1608.83,-135.59"/>
<polygon fill="midnightblue" stroke="midnightblue" points="1610.35,-138.74 1618.1,-131.52 1607.54,-132.33 1610.35,-138.74"/>
</g>
<!-- Node22&#45;&gt;Node33 -->
<g id="edge42" class="edge">
<title>Node22&#45;&gt;Node33</title>
<path fill="none" stroke="midnightblue" d="M1571.25,-173.64C1653.09,-168.19 1808.8,-155.59 1939.5,-132 1940.97,-131.74 1942.46,-131.44 1943.97,-131.13"/>
<polygon fill="midnightblue" stroke="midnightblue" points="1944.93,-134.5 1953.88,-128.84 1943.35,-127.68 1944.93,-134.5"/>
</g>
<!-- Node24 -->
<g id="node24" class="node">
<title>Node24</title>
<g id="a_node24"><a xlink:href="llvm-c_2DataTypes_8h.html" target="_top" xlink:title=" ">
<polygon fill="none" stroke="black" points="1287.5,-56.5 1287.5,-75.5 1397.5,-75.5 1397.5,-56.5 1287.5,-56.5"/>
<text text-anchor="middle" x="1342.5" y="-63.5" font-family="Helvetica,sans-Serif" font-size="10.00">llvm&#45;c/DataTypes.h</text>
</a>
</g>
</g>
<!-- Node23&#45;&gt;Node24 -->
<g id="edge26" class="edge">
<title>Node23&#45;&gt;Node24</title>
<path fill="none" stroke="midnightblue" d="M1342.5,-112.08C1342.5,-105.01 1342.5,-94.86 1342.5,-85.99"/>
<polygon fill="midnightblue" stroke="midnightblue" points="1346,-85.75 1342.5,-75.75 1339,-85.75 1346,-85.75"/>
</g>
<!-- Node25 -->
<g id="node25" class="node">
<title>Node25</title>
<g id="a_node25"><a xlink:title=" ">
<polygon fill="none" stroke="#bfbfbf" points="1233,-0.5 1233,-19.5 1298,-19.5 1298,-0.5 1233,-0.5"/>
<text text-anchor="middle" x="1265.5" y="-7.5" font-family="Helvetica,sans-Serif" font-size="10.00">inttypes.h</text>
</a>
</g>
</g>
<!-- Node24&#45;&gt;Node25 -->
<g id="edge27" class="edge">
<title>Node24&#45;&gt;Node25</title>
<path fill="none" stroke="midnightblue" d="M1330.13,-56.32C1318.34,-48.06 1300.37,-35.45 1286.36,-25.63"/>
<polygon fill="midnightblue" stroke="midnightblue" points="1288.04,-22.53 1277.84,-19.65 1284.02,-28.26 1288.04,-22.53"/>
</g>
<!-- Node26 -->
<g id="node26" class="node">
<title>Node26</title>
<g id="a_node26"><a xlink:title=" ">
<polygon fill="none" stroke="#bfbfbf" points="1316,-0.5 1316,-19.5 1369,-19.5 1369,-0.5 1316,-0.5"/>
<text text-anchor="middle" x="1342.5" y="-7.5" font-family="Helvetica,sans-Serif" font-size="10.00">stdint.h</text>
</a>
</g>
</g>
<!-- Node24&#45;&gt;Node26 -->
<g id="edge28" class="edge">
<title>Node24&#45;&gt;Node26</title>
<path fill="none" stroke="midnightblue" d="M1342.5,-56.08C1342.5,-49.01 1342.5,-38.86 1342.5,-29.99"/>
<polygon fill="midnightblue" stroke="midnightblue" points="1346,-29.75 1342.5,-19.75 1339,-29.75 1346,-29.75"/>
</g>
<!-- Node27 -->
<g id="node27" class="node">
<title>Node27</title>
<g id="a_node27"><a xlink:title=" ">
<polygon fill="none" stroke="#bfbfbf" points="1387.5,-0.5 1387.5,-19.5 1459.5,-19.5 1459.5,-0.5 1387.5,-0.5"/>
<text text-anchor="middle" x="1423.5" y="-7.5" font-family="Helvetica,sans-Serif" font-size="10.00">sys/types.h</text>
</a>
</g>
</g>
<!-- Node24&#45;&gt;Node27 -->
<g id="edge29" class="edge">
<title>Node24&#45;&gt;Node27</title>
<path fill="none" stroke="midnightblue" d="M1355.51,-56.32C1368.03,-47.98 1387.18,-35.21 1401.97,-25.35"/>
<polygon fill="midnightblue" stroke="midnightblue" points="1404.14,-28.11 1410.52,-19.65 1400.26,-22.29 1404.14,-28.11"/>
</g>
<!-- Node28&#45;&gt;Node3 -->
<g id="edge31" class="edge">
<title>Node28&#45;&gt;Node3</title>
<path fill="none" stroke="midnightblue" d="M1253.53,-112.89C1353.39,-102.64 1524.13,-85.11 1623.17,-74.94"/>
<polygon fill="midnightblue" stroke="midnightblue" points="1623.82,-78.39 1633.41,-73.89 1623.11,-71.43 1623.82,-78.39"/>
</g>
<!-- Node29&#45;&gt;Node7 -->
<g id="edge35" class="edge">
<title>Node29&#45;&gt;Node7</title>
<path fill="none" stroke="midnightblue" d="M1597.73,-112.8C1715.36,-101.21 1926.11,-80.44 2017.82,-71.4"/>
<polygon fill="midnightblue" stroke="midnightblue" points="2018.27,-74.88 2027.88,-70.41 2017.59,-67.91 2018.27,-74.88"/>
</g>
<!-- Node29&#45;&gt;Node11 -->
<g id="edge33" class="edge">
<title>Node29&#45;&gt;Node11</title>
<path fill="none" stroke="midnightblue" d="M1431.27,-112.67C1428.31,-112.43 1425.38,-112.21 1422.5,-112 1065.39,-86.14 632.03,-71.91 504.48,-68.07"/>
<polygon fill="midnightblue" stroke="midnightblue" points="504.21,-64.56 494.11,-67.76 504,-71.56 504.21,-64.56"/>
</g>
<!-- Node29&#45;&gt;Node30 -->
<g id="edge34" class="edge">
<title>Node29&#45;&gt;Node30</title>
<path fill="none" stroke="midnightblue" d="M1573.6,-112.44C1652.02,-101.09 1788,-81.4 1852.12,-72.12"/>
<polygon fill="midnightblue" stroke="midnightblue" points="1852.74,-75.57 1862.13,-70.67 1851.74,-68.64 1852.74,-75.57"/>
</g>
<!-- Node31 -->
<g id="node31" class="node">
<title>Node31</title>
<g id="a_node31"><a xlink:title=" ">
<polygon fill="none" stroke="#bfbfbf" points="1462.5,-56.5 1462.5,-75.5 1566.5,-75.5 1566.5,-56.5 1462.5,-56.5"/>
<text text-anchor="middle" x="1514.5" y="-63.5" font-family="Helvetica,sans-Serif" font-size="10.00">machine/endian.h</text>
</a>
</g>
</g>
<!-- Node29&#45;&gt;Node31 -->
<g id="edge36" class="edge">
<title>Node29&#45;&gt;Node31</title>
<path fill="none" stroke="midnightblue" d="M1514.5,-112.08C1514.5,-105.01 1514.5,-94.86 1514.5,-85.99"/>
<polygon fill="midnightblue" stroke="midnightblue" points="1518,-85.75 1514.5,-75.75 1511,-85.75 1518,-85.75"/>
</g>
<!-- Node35&#45;&gt;Node7 -->
<g id="edge46" class="edge">
<title>Node35&#45;&gt;Node7</title>
<path fill="none" stroke="midnightblue" d="M2219.87,-112.44C2188,-103.24 2137.17,-88.56 2101.94,-78.39"/>
<polygon fill="midnightblue" stroke="midnightblue" points="2102.57,-74.93 2091.99,-75.52 2100.63,-81.65 2102.57,-74.93"/>
</g>
<!-- Node36&#45;&gt;Node11 -->
<g id="edge53" class="edge">
<title>Node36&#45;&gt;Node11</title>
<path fill="none" stroke="midnightblue" d="M77.95,-224.46C87.6,-201.77 117.25,-139.84 163.5,-112 207.85,-85.31 359.62,-73.23 430.49,-68.94"/>
<polygon fill="midnightblue" stroke="midnightblue" points="430.96,-72.42 440.74,-68.34 430.55,-65.43 430.96,-72.42"/>
</g>
<!-- Node37&#45;&gt;Node7 -->
<g id="edge57" class="edge">
<title>Node37&#45;&gt;Node7</title>
<path fill="none" stroke="midnightblue" d="M2113.18,-168.37C2104.19,-150.38 2083.28,-108.55 2071.31,-84.63"/>
<polygon fill="midnightblue" stroke="midnightblue" points="2074.4,-82.97 2066.8,-75.59 2068.14,-86.1 2074.4,-82.97"/>
</g>
<!-- Node37&#45;&gt;Node8 -->
<g id="edge58" class="edge">
<title>Node37&#45;&gt;Node8</title>
<path fill="none" stroke="midnightblue" d="M2119.07,-168.37C2122.3,-150.62 2129.74,-109.67 2134.12,-85.6"/>
<polygon fill="midnightblue" stroke="midnightblue" points="2137.59,-86.06 2135.94,-75.59 2130.71,-84.8 2137.59,-86.06"/>
</g>
<!-- Node37&#45;&gt;Node30 -->
<g id="edge59" class="edge">
<title>Node37&#45;&gt;Node30</title>
<path fill="none" stroke="midnightblue" d="M2103.95,-168.29C2083.11,-155.09 2041.69,-129.72 2004.5,-112 1977.51,-99.14 1945.79,-87.13 1922.2,-78.75"/>
<polygon fill="midnightblue" stroke="midnightblue" points="1923.21,-75.4 1912.62,-75.39 1920.9,-82 1923.21,-75.4"/>
</g>
<!-- Node37&#45;&gt;Node35 -->
<g id="edge56" class="edge">
<title>Node37&#45;&gt;Node35</title>
<path fill="none" stroke="midnightblue" d="M2138.42,-168.44C2160.24,-159.52 2194.65,-145.44 2219.39,-135.32"/>
<polygon fill="midnightblue" stroke="midnightblue" points="2220.75,-138.54 2228.68,-131.52 2218.1,-132.06 2220.75,-138.54"/>
</g>
<!-- Node39&#45;&gt;Node7 -->
<g id="edge66" class="edge">
<title>Node39&#45;&gt;Node7</title>
<path fill="none" stroke="midnightblue" d="M2375.52,-168.18C2381.14,-154.39 2389.2,-127.66 2375.5,-112 2337.64,-68.74 2181.6,-84.37 2107.38,-75.76"/>
<polygon fill="midnightblue" stroke="midnightblue" points="2107.44,-72.23 2097.05,-74.3 2106.46,-79.16 2107.44,-72.23"/>
</g>
<!-- Node39&#45;&gt;Node8 -->
<g id="edge67" class="edge">
<title>Node39&#45;&gt;Node8</title>
<path fill="none" stroke="midnightblue" d="M2384.26,-168.3C2401.73,-155.35 2429.25,-130.53 2413.5,-112 2382.67,-75.74 2237.14,-68.62 2170.71,-67.28"/>
<polygon fill="midnightblue" stroke="midnightblue" points="2170.44,-63.78 2160.39,-67.11 2170.33,-70.78 2170.44,-63.78"/>
</g>
<!-- Node39&#45;&gt;Node11 -->
<g id="edge64" class="edge">
<title>Node39&#45;&gt;Node11</title>
<path fill="none" stroke="midnightblue" d="M2370.54,-168.4C2368.41,-153.9 2361.83,-124.88 2342.5,-112 2302.78,-85.55 762.55,-69.8 504.11,-67.34"/>
<polygon fill="midnightblue" stroke="midnightblue" points="504.15,-63.84 494.11,-67.24 504.08,-70.84 504.15,-63.84"/>
</g>
<!-- Node39&#45;&gt;Node16 -->
<g id="edge65" class="edge">
<title>Node39&#45;&gt;Node16</title>
<path fill="none" stroke="midnightblue" d="M2316.7,-173.56C2286.05,-171.73 2247.16,-169.53 2212.5,-168 1965.57,-157.07 1350.34,-166.31 1087.09,-131.68"/>
<polygon fill="midnightblue" stroke="midnightblue" points="1087.49,-128.2 1077.11,-130.32 1086.55,-135.14 1087.49,-128.2"/>
</g>
<!-- Node39&#45;&gt;Node40 -->
<g id="edge62" class="edge">
<title>Node39&#45;&gt;Node40</title>
<path fill="none" stroke="midnightblue" d="M2403.82,-168.44C2438.89,-159.16 2495,-144.31 2533.46,-134.13"/>
<polygon fill="midnightblue" stroke="midnightblue" points="2534.56,-137.46 2543.33,-131.52 2532.76,-130.69 2534.56,-137.46"/>
</g>
<!-- Node40&#45;&gt;Node8 -->
<g id="edge63" class="edge">
<title>Node40&#45;&gt;Node8</title>
<path fill="none" stroke="midnightblue" d="M2506.1,-112.44C2410.19,-100.62 2240.96,-79.76 2170.12,-71.02"/>
<polygon fill="midnightblue" stroke="midnightblue" points="2170.37,-67.53 2160.01,-69.78 2169.51,-74.47 2170.37,-67.53"/>
</g>
</g>
</svg>
