<?xml version="1.0" encoding="UTF-8" standalone="no"?>
<!DOCTYPE svg PUBLIC "-//W3C//DTD SVG 1.1//EN"
 "http://www.w3.org/Graphics/SVG/1.1/DTD/svg11.dtd">
<!-- Generated by graphviz version 2.48.0 (0)
 -->
<!-- Title: Graphical Class Hierarchy Pages: 1 -->
<svg width="725pt" height="61pt"
 viewBox="0.00 0.00 725.00 61.00" xmlns="http://www.w3.org/2000/svg" xmlns:xlink="http://www.w3.org/1999/xlink">
<g id="graph0" class="graph" transform="scale(1 1) rotate(0) translate(4 57)">
<title>Graphical Class Hierarchy</title>
<!-- Node0 -->
<g id="node1" class="node">
<title>Node0</title>
<g id="a_node1"><a xlink:href="$classllvm_1_1po__iterator__storage.html" xlink:title=" ">
<polygon fill="none" stroke="black" points="0,-0.5 0,-52.5 146,-52.5 146,-0.5 0,-0.5"/>
<text text-anchor="start" x="8" y="-40.5" font-family="Helvetica,sans-Serif" font-size="10.00">llvm::po_iterator_storage</text>
<text text-anchor="start" x="8" y="-29.5" font-family="Helvetica,sans-Serif" font-size="10.00">&lt; SmallPtrSet&lt; typename</text>
<text text-anchor="start" x="8" y="-18.5" font-family="Helvetica,sans-Serif" font-size="10.00"> GraphTraits&lt; GraphT &gt;::</text>
<text text-anchor="middle" x="73" y="-7.5" font-family="Helvetica,sans-Serif" font-size="10.00">NodeRef, 8 &gt;, false &gt;</text>
</a>
</g>
</g>
<!-- Node1 -->
<g id="node2" class="node">
<title>Node1</title>
<g id="a_node2"><a xlink:href="$classllvm_1_1po__iterator.html" xlink:title=" ">
<polygon fill="none" stroke="black" points="182,-11.5 182,-41.5 371,-41.5 371,-11.5 182,-11.5"/>
<text text-anchor="start" x="190" y="-29.5" font-family="Helvetica,sans-Serif" font-size="10.00">llvm::po_iterator&lt;</text>
<text text-anchor="middle" x="276.5" y="-18.5" font-family="Helvetica,sans-Serif" font-size="10.00"> GraphT, SetType, ExtStorage, GT &gt;</text>
</a>
</g>
</g>
<!-- Node0&#45;&gt;Node1 -->
<g id="edge1" class="edge">
<title>Node0&#45;&gt;Node1</title>
<path fill="none" stroke="midnightblue" d="M156.29,-26.5C164.66,-26.5 173.21,-26.5 181.69,-26.5"/>
<polygon fill="midnightblue" stroke="midnightblue" points="156.18,-23 146.18,-26.5 156.18,-30 156.18,-23"/>
</g>
<!-- Node2 -->
<g id="node3" class="node">
<title>Node2</title>
<g id="a_node3"><a xlink:href="$structllvm_1_1ipo__iterator.html" xlink:title=" ">
<polygon fill="none" stroke="black" points="407,-0.5 407,-52.5 559,-52.5 559,-0.5 407,-0.5"/>
<text text-anchor="start" x="415" y="-40.5" font-family="Helvetica,sans-Serif" font-size="10.00">llvm::ipo_iterator</text>
<text text-anchor="start" x="415" y="-29.5" font-family="Helvetica,sans-Serif" font-size="10.00">&lt; T, std::set&lt; typename</text>
<text text-anchor="start" x="415" y="-18.5" font-family="Helvetica,sans-Serif" font-size="10.00"> GraphTraits&lt; T &gt;::NodeRef</text>
<text text-anchor="middle" x="483" y="-7.5" font-family="Helvetica,sans-Serif" font-size="10.00"> &gt;, true &gt;</text>
</a>
</g>
</g>
<!-- Node1&#45;&gt;Node2 -->
<g id="edge2" class="edge">
<title>Node1&#45;&gt;Node2</title>
<path fill="none" stroke="midnightblue" d="M381.21,-26.5C389.86,-26.5 398.49,-26.5 406.86,-26.5"/>
<polygon fill="midnightblue" stroke="midnightblue" points="381.07,-23 371.07,-26.5 381.07,-30 381.07,-23"/>
</g>
<!-- Node3 -->
<g id="node4" class="node">
<title>Node3</title>
<g id="a_node4"><a xlink:href="$structllvm_1_1ipo__ext__iterator.html" xlink:title=" ">
<polygon fill="none" stroke="black" points="595,-11.5 595,-41.5 717,-41.5 717,-11.5 595,-11.5"/>
<text text-anchor="start" x="603" y="-29.5" font-family="Helvetica,sans-Serif" font-size="10.00">llvm::ipo_ext_iterator</text>
<text text-anchor="middle" x="656" y="-18.5" font-family="Helvetica,sans-Serif" font-size="10.00">&lt; T, SetType &gt;</text>
</a>
</g>
</g>
<!-- Node2&#45;&gt;Node3 -->
<g id="edge3" class="edge">
<title>Node2&#45;&gt;Node3</title>
<path fill="none" stroke="midnightblue" d="M569.19,-26.5C577.9,-26.5 586.6,-26.5 594.95,-26.5"/>
<polygon fill="midnightblue" stroke="midnightblue" points="569,-23 559,-26.5 569,-30 569,-23"/>
</g>
</g>
</svg>
