<?xml version="1.0" encoding="UTF-8" standalone="no"?>
<!DOCTYPE svg PUBLIC "-//W3C//DTD SVG 1.1//EN"
 "http://www.w3.org/Graphics/SVG/1.1/DTD/svg11.dtd">
<!-- Generated by graphviz version 2.48.0 (0)
 -->
<!-- Title: Graphical Class Hierarchy Pages: 1 -->
<svg width="520pt" height="137pt"
 viewBox="0.00 0.00 520.00 137.00" xmlns="http://www.w3.org/2000/svg" xmlns:xlink="http://www.w3.org/1999/xlink">
<g id="graph0" class="graph" transform="scale(1 1) rotate(0) translate(4 133)">
<title>Graphical Class Hierarchy</title>
<!-- Node0 -->
<g id="node1" class="node">
<title>Node0</title>
<g id="a_node1"><a xlink:href="$classllvm_1_1jitlink_1_1ELFLinkGraphBuilderBase.html" xlink:title="Common link&#45;graph building code shared between all ELFFiles.">
<polygon fill="none" stroke="black" points="0,-73.5 0,-103.5 145,-103.5 145,-73.5 0,-73.5"/>
<text text-anchor="start" x="8" y="-91.5" font-family="Helvetica,sans-Serif" font-size="10.00">llvm::jitlink::ELFLinkGraph</text>
<text text-anchor="middle" x="72.5" y="-80.5" font-family="Helvetica,sans-Serif" font-size="10.00">BuilderBase</text>
</a>
</g>
</g>
<!-- Node1 -->
<g id="node2" class="node">
<title>Node1</title>
<g id="a_node2"><a xlink:href="$classllvm_1_1jitlink_1_1ELFLinkGraphBuilder.html" xlink:title=" ">
<polygon fill="none" stroke="black" points="181,-98.5 181,-128.5 331,-128.5 331,-98.5 181,-98.5"/>
<text text-anchor="start" x="189" y="-116.5" font-family="Helvetica,sans-Serif" font-size="10.00">llvm::jitlink::ELFLinkGraph</text>
<text text-anchor="middle" x="256" y="-105.5" font-family="Helvetica,sans-Serif" font-size="10.00">Builder&lt; object::ELF64LE &gt;</text>
</a>
</g>
</g>
<!-- Node0&#45;&gt;Node1 -->
<g id="edge1" class="edge">
<title>Node0&#45;&gt;Node1</title>
<path fill="none" stroke="midnightblue" d="M155.19,-99.75C163.72,-100.93 172.36,-102.12 180.81,-103.28"/>
<polygon fill="midnightblue" stroke="midnightblue" points="155.62,-96.28 145.23,-98.38 154.66,-103.21 155.62,-96.28"/>
</g>
<!-- Node3 -->
<g id="node4" class="node">
<title>Node3</title>
<g id="a_node4"><a xlink:href="$classllvm_1_1jitlink_1_1ELFLinkGraphBuilder.html" xlink:title="Ling&#45;graph building code that&#39;s specific to the given ELFT, but common across all architectures.">
<polygon fill="none" stroke="black" points="183.5,-49.5 183.5,-79.5 328.5,-79.5 328.5,-49.5 183.5,-49.5"/>
<text text-anchor="start" x="191.5" y="-67.5" font-family="Helvetica,sans-Serif" font-size="10.00">llvm::jitlink::ELFLinkGraph</text>
<text text-anchor="middle" x="256" y="-56.5" font-family="Helvetica,sans-Serif" font-size="10.00">Builder&lt; ELFT &gt;</text>
</a>
</g>
</g>
<!-- Node0&#45;&gt;Node3 -->
<g id="edge3" class="edge">
<title>Node0&#45;&gt;Node3</title>
<path fill="none" stroke="midnightblue" d="M155.35,-77.68C164.74,-76.44 174.25,-75.18 183.49,-73.96"/>
<polygon fill="midnightblue" stroke="midnightblue" points="154.69,-74.23 145.23,-79.01 155.61,-81.17 154.69,-74.23"/>
</g>
<!-- Node2 -->
<g id="node3" class="node">
<title>Node2</title>
<g id="a_node3"><a xlink:href="$classllvm_1_1jitlink_1_1ELFLinkGraphBuilder__x86__64.html" xlink:title=" ">
<polygon fill="none" stroke="black" points="367,-98.5 367,-128.5 512,-128.5 512,-98.5 367,-98.5"/>
<text text-anchor="start" x="375" y="-116.5" font-family="Helvetica,sans-Serif" font-size="10.00">llvm::jitlink::ELFLinkGraph</text>
<text text-anchor="middle" x="439.5" y="-105.5" font-family="Helvetica,sans-Serif" font-size="10.00">Builder_x86_64</text>
</a>
</g>
</g>
<!-- Node1&#45;&gt;Node2 -->
<g id="edge2" class="edge">
<title>Node1&#45;&gt;Node2</title>
<path fill="none" stroke="midnightblue" d="M341.17,-113.5C349.8,-113.5 358.52,-113.5 367,-113.5"/>
<polygon fill="midnightblue" stroke="midnightblue" points="341.08,-110 331.08,-113.5 341.08,-117 341.08,-110"/>
</g>
<!-- Node4 -->
<g id="node5" class="node">
<title>Node4</title>
<g id="a_node5"><a xlink:href="$classllvm_1_1jitlink_1_1ELFLinkGraphBuilder__aarch64.html" xlink:title=" ">
<polygon fill="none" stroke="black" points="367,-49.5 367,-79.5 512,-79.5 512,-49.5 367,-49.5"/>
<text text-anchor="start" x="375" y="-67.5" font-family="Helvetica,sans-Serif" font-size="10.00">llvm::jitlink::ELFLinkGraph</text>
<text text-anchor="middle" x="439.5" y="-56.5" font-family="Helvetica,sans-Serif" font-size="10.00">Builder_aarch64&lt; ELFT &gt;</text>
</a>
</g>
</g>
<!-- Node3&#45;&gt;Node4 -->
<g id="edge4" class="edge">
<title>Node3&#45;&gt;Node4</title>
<path fill="none" stroke="midnightblue" d="M338.85,-64.5C348.24,-64.5 357.75,-64.5 366.99,-64.5"/>
<polygon fill="midnightblue" stroke="midnightblue" points="338.73,-61 328.73,-64.5 338.73,-68 338.73,-61"/>
</g>
<!-- Node5 -->
<g id="node6" class="node">
<title>Node5</title>
<g id="a_node6"><a xlink:href="$classllvm_1_1jitlink_1_1ELFLinkGraphBuilder__riscv.html" xlink:title=" ">
<polygon fill="none" stroke="black" points="367,-0.5 367,-30.5 512,-30.5 512,-0.5 367,-0.5"/>
<text text-anchor="start" x="375" y="-18.5" font-family="Helvetica,sans-Serif" font-size="10.00">llvm::jitlink::ELFLinkGraph</text>
<text text-anchor="middle" x="439.5" y="-7.5" font-family="Helvetica,sans-Serif" font-size="10.00">Builder_riscv&lt; ELFT &gt;</text>
</a>
</g>
</g>
<!-- Node3&#45;&gt;Node5 -->
<g id="edge5" class="edge">
<title>Node3&#45;&gt;Node5</title>
<path fill="none" stroke="midnightblue" d="M322.74,-46.75C342.41,-41.44 363.78,-35.67 382.75,-30.55"/>
<polygon fill="midnightblue" stroke="midnightblue" points="321.68,-43.41 312.94,-49.4 323.5,-50.17 321.68,-43.41"/>
</g>
</g>
</svg>
