<?xml version="1.0" encoding="UTF-8" standalone="no"?>
<!DOCTYPE svg PUBLIC "-//W3C//DTD SVG 1.1//EN"
 "http://www.w3.org/Graphics/SVG/1.1/DTD/svg11.dtd">
<!-- Generated by graphviz version 2.48.0 (0)
 -->
<!-- Title: Graphical Class Hierarchy Pages: 1 -->
<svg width="632pt" height="39pt"
 viewBox="0.00 0.00 632.00 39.00" xmlns="http://www.w3.org/2000/svg" xmlns:xlink="http://www.w3.org/1999/xlink">
<g id="graph0" class="graph" transform="scale(1 1) rotate(0) translate(4 35)">
<title>Graphical Class Hierarchy</title>
<!-- Node798 -->
<g id="node1" class="node">
<title>Node798</title>
<g id="a_node1"><a xlink:title=" ">
<polygon fill="none" stroke="#bfbfbf" points="0,-6 0,-25 71,-25 71,-6 0,-6"/>
<text text-anchor="middle" x="35.5" y="-13" font-family="Helvetica,sans-Serif" font-size="10.00">BinaryError</text>
</a>
</g>
</g>
<!-- Node0 -->
<g id="node2" class="node">
<title>Node0</title>
<g id="a_node2"><a xlink:href="$classllvm_1_1ErrorInfo.html" xlink:title=" ">
<polygon fill="none" stroke="black" points="107,-0.5 107,-30.5 250,-30.5 250,-0.5 107,-0.5"/>
<text text-anchor="start" x="115" y="-18.5" font-family="Helvetica,sans-Serif" font-size="10.00">llvm::ErrorInfo&lt; Generic</text>
<text text-anchor="middle" x="178.5" y="-7.5" font-family="Helvetica,sans-Serif" font-size="10.00">BinaryError, BinaryError &gt;</text>
</a>
</g>
</g>
<!-- Node798&#45;&gt;Node0 -->
<g id="edge1" class="edge">
<title>Node798&#45;&gt;Node0</title>
<path fill="none" stroke="midnightblue" d="M81.38,-15.5C89.55,-15.5 98.25,-15.5 106.95,-15.5"/>
<polygon fill="midnightblue" stroke="midnightblue" points="81.35,-12 71.35,-15.5 81.35,-19 81.35,-12"/>
</g>
<!-- Node1 -->
<g id="node3" class="node">
<title>Node1</title>
<g id="a_node3"><a xlink:href="$classllvm_1_1object_1_1GenericBinaryError.html" xlink:title="Generic binary error.">
<polygon fill="none" stroke="black" points="286,-0.5 286,-30.5 435,-30.5 435,-0.5 286,-0.5"/>
<text text-anchor="start" x="294" y="-18.5" font-family="Helvetica,sans-Serif" font-size="10.00">llvm::object::GenericBinary</text>
<text text-anchor="middle" x="360.5" y="-7.5" font-family="Helvetica,sans-Serif" font-size="10.00">Error</text>
</a>
</g>
</g>
<!-- Node0&#45;&gt;Node1 -->
<g id="edge2" class="edge">
<title>Node0&#45;&gt;Node1</title>
<path fill="none" stroke="midnightblue" d="M260.38,-15.5C268.85,-15.5 277.43,-15.5 285.82,-15.5"/>
<polygon fill="midnightblue" stroke="midnightblue" points="260.12,-12 250.12,-15.5 260.12,-19 260.12,-12"/>
</g>
<!-- Node2 -->
<g id="node4" class="node">
<title>Node2</title>
<g id="a_node4"><a xlink:href="$classllvm_1_1object_1_1EmptyResError.html" xlink:title=" ">
<polygon fill="none" stroke="black" points="471,-6 471,-25 624,-25 624,-6 471,-6"/>
<text text-anchor="middle" x="547.5" y="-13" font-family="Helvetica,sans-Serif" font-size="10.00">llvm::object::EmptyResError</text>
</a>
</g>
</g>
<!-- Node1&#45;&gt;Node2 -->
<g id="edge3" class="edge">
<title>Node1&#45;&gt;Node2</title>
<path fill="none" stroke="midnightblue" d="M445.18,-15.5C453.78,-15.5 462.48,-15.5 470.99,-15.5"/>
<polygon fill="midnightblue" stroke="midnightblue" points="445.15,-12 435.15,-15.5 445.15,-19 445.15,-12"/>
</g>
</g>
</svg>
