<?xml version="1.0" encoding="UTF-8" standalone="no"?>
<!DOCTYPE svg PUBLIC "-//W3C//DTD SVG 1.1//EN"
 "http://www.w3.org/Graphics/SVG/1.1/DTD/svg11.dtd">
<!-- Generated by graphviz version 2.48.0 (0)
 -->
<!-- Title: include/llvm/Passes/PassBuilder.h Pages: 1 -->
<svg width="2322pt" height="285pt"
 viewBox="0.00 0.00 2321.50 285.00" xmlns="http://www.w3.org/2000/svg" xmlns:xlink="http://www.w3.org/1999/xlink">
<g id="graph0" class="graph" transform="scale(1 1) rotate(0) translate(4 281)">
<title>include/llvm/Passes/PassBuilder.h</title>
<!-- Node1 -->
<g id="node1" class="node">
<title>Node1</title>
<g id="a_node1"><a xlink:title="Interfaces for registering analysis passes, producing common pass manager configurations,...">
<polygon fill="#bfbfbf" stroke="black" points="1246,-246.5 1246,-276.5 1359,-276.5 1359,-246.5 1246,-246.5"/>
<text text-anchor="start" x="1254" y="-264.5" font-family="Helvetica,sans-Serif" font-size="10.00">include/llvm/Passes</text>
<text text-anchor="middle" x="1302.5" y="-253.5" font-family="Helvetica,sans-Serif" font-size="10.00">/PassBuilder.h</text>
</a>
</g>
</g>
<!-- Node2 -->
<g id="node2" class="node">
<title>Node2</title>
<g id="a_node2"><a xlink:href="$Config_8h.html" xlink:title=" ">
<polygon fill="none" stroke="black" points="337.5,-185 337.5,-204 477.5,-204 477.5,-185 337.5,-185"/>
<text text-anchor="middle" x="407.5" y="-192" font-family="Helvetica,sans-Serif" font-size="10.00">include/llvm/LTO/Config.h</text>
</a>
</g>
</g>
<!-- Node1&#45;&gt;Node2 -->
<g id="edge1" class="edge">
<title>Node1&#45;&gt;Node2</title>
<path fill="none" stroke="midnightblue" d="M1235.84,-255.66C1071.15,-243.7 646.27,-212.84 477.81,-200.61"/>
<polygon fill="midnightblue" stroke="midnightblue" points="1235.61,-259.15 1245.83,-256.38 1236.11,-252.17 1235.61,-259.15"/>
</g>
<!-- Node9 -->
<g id="node9" class="node">
<title>Node9</title>
<g id="a_node9"><a xlink:href="$ThinLTOCodeGenerator_8cpp.html" xlink:title=" ">
<polygon fill="none" stroke="black" points="662,-0.5 662,-19.5 847,-19.5 847,-0.5 662,-0.5"/>
<text text-anchor="middle" x="754.5" y="-7.5" font-family="Helvetica,sans-Serif" font-size="10.00">lib/LTO/ThinLTOCodeGenerator.cpp</text>
</a>
</g>
</g>
<!-- Node1&#45;&gt;Node9 -->
<g id="edge21" class="edge">
<title>Node1&#45;&gt;Node9</title>
<path fill="none" stroke="midnightblue" d="M1235.88,-256.8C1121.15,-249.85 895.86,-233.38 868.5,-210 814.48,-163.83 867.89,-113.04 825.5,-56 812.97,-39.13 792.07,-27 776.18,-19.62"/>
<polygon fill="midnightblue" stroke="midnightblue" points="1235.77,-260.3 1245.96,-257.41 1236.19,-253.32 1235.77,-260.3"/>
</g>
<!-- Node12 -->
<g id="node12" class="node">
<title>Node12</title>
<g id="a_node12"><a xlink:href="$LTOBackend_8cpp.html" xlink:title=" ">
<polygon fill="none" stroke="black" points="511.5,-0.5 511.5,-19.5 643.5,-19.5 643.5,-0.5 511.5,-0.5"/>
<text text-anchor="middle" x="577.5" y="-7.5" font-family="Helvetica,sans-Serif" font-size="10.00">lib/LTO/LTOBackend.cpp</text>
</a>
</g>
</g>
<!-- Node1&#45;&gt;Node12 -->
<g id="edge20" class="edge">
<title>Node1&#45;&gt;Node12</title>
<path fill="none" stroke="midnightblue" d="M1235.6,-257.14C1115.35,-250.52 872.36,-234.3 842.5,-210 786.69,-164.58 846.05,-104.07 792.5,-56 780.58,-45.3 691.71,-29.26 632.02,-19.5"/>
<polygon fill="midnightblue" stroke="midnightblue" points="1235.62,-260.64 1245.79,-257.69 1236,-253.66 1235.62,-260.64"/>
</g>
<!-- Node13 -->
<g id="node13" class="node">
<title>Node13</title>
<g id="a_node13"><a xlink:href="$SpeculateAnalyses_8cpp.html" xlink:title=" ">
<polygon fill="none" stroke="black" points="877.5,-179.5 877.5,-209.5 1029.5,-209.5 1029.5,-179.5 877.5,-179.5"/>
<text text-anchor="start" x="885.5" y="-197.5" font-family="Helvetica,sans-Serif" font-size="10.00">lib/ExecutionEngine</text>
<text text-anchor="middle" x="953.5" y="-186.5" font-family="Helvetica,sans-Serif" font-size="10.00">/Orc/SpeculateAnalyses.cpp</text>
</a>
</g>
</g>
<!-- Node1&#45;&gt;Node13 -->
<g id="edge19" class="edge">
<title>Node1&#45;&gt;Node13</title>
<path fill="none" stroke="midnightblue" d="M1235.68,-248.05C1176.6,-237.05 1090.48,-221.01 1028.94,-209.55"/>
<polygon fill="midnightblue" stroke="midnightblue" points="1235.18,-251.52 1245.65,-249.91 1236.46,-244.64 1235.18,-251.52"/>
</g>
<!-- Node14 -->
<g id="node14" class="node">
<title>Node14</title>
<g id="a_node14"><a xlink:href="$PassBuilder_8cpp.html" xlink:title="This file provides the implementation of the PassBuilder based on our static pass registry as well as...">
<polygon fill="none" stroke="black" points="1048,-185 1048,-204 1191,-204 1191,-185 1048,-185"/>
<text text-anchor="middle" x="1119.5" y="-192" font-family="Helvetica,sans-Serif" font-size="10.00">lib/Passes/PassBuilder.cpp</text>
</a>
</g>
</g>
<!-- Node1&#45;&gt;Node14 -->
<g id="edge22" class="edge">
<title>Node1&#45;&gt;Node14</title>
<path fill="none" stroke="midnightblue" d="M1253.08,-242.95C1217.54,-230.32 1171.16,-213.85 1143.45,-204.01"/>
<polygon fill="midnightblue" stroke="midnightblue" points="1252.2,-246.35 1262.79,-246.4 1254.54,-239.75 1252.2,-246.35"/>
</g>
<!-- Node15 -->
<g id="node15" class="node">
<title>Node15</title>
<g id="a_node15"><a xlink:href="$PassBuilderBindings_8cpp.html" xlink:title="This file defines the C bindings to the new pass manager.">
<polygon fill="none" stroke="black" points="1209.5,-185 1209.5,-204 1395.5,-204 1395.5,-185 1209.5,-185"/>
<text text-anchor="middle" x="1302.5" y="-192" font-family="Helvetica,sans-Serif" font-size="10.00">lib/Passes/PassBuilderBindings.cpp</text>
</a>
</g>
</g>
<!-- Node1&#45;&gt;Node15 -->
<g id="edge23" class="edge">
<title>Node1&#45;&gt;Node15</title>
<path fill="none" stroke="midnightblue" d="M1302.5,-236.25C1302.5,-225.02 1302.5,-212.38 1302.5,-204.19"/>
<polygon fill="midnightblue" stroke="midnightblue" points="1299,-236.4 1302.5,-246.4 1306,-236.4 1299,-236.4"/>
</g>
<!-- Node16 -->
<g id="node16" class="node">
<title>Node16</title>
<g id="a_node16"><a xlink:href="$PassBuilderPipelines_8cpp.html" xlink:title="This file provides the implementation of the PassBuilder based on our static pass registry as well as...">
<polygon fill="none" stroke="black" points="1413.5,-185 1413.5,-204 1601.5,-204 1601.5,-185 1413.5,-185"/>
<text text-anchor="middle" x="1507.5" y="-192" font-family="Helvetica,sans-Serif" font-size="10.00">lib/Passes/PassBuilderPipelines.cpp</text>
</a>
</g>
</g>
<!-- Node1&#45;&gt;Node16 -->
<g id="edge24" class="edge">
<title>Node1&#45;&gt;Node16</title>
<path fill="none" stroke="midnightblue" d="M1356.34,-243.43C1396.31,-230.75 1449.15,-214 1480.6,-204.03"/>
<polygon fill="midnightblue" stroke="midnightblue" points="1355.2,-240.12 1346.73,-246.48 1357.32,-246.79 1355.2,-240.12"/>
</g>
<!-- Node17 -->
<g id="node17" class="node">
<title>Node17</title>
<g id="a_node17"><a xlink:href="$AMDGPUTargetMachine_8cpp.html" xlink:title="The AMDGPU target machine contains all of the hardware specific information needed to emit code for S...">
<polygon fill="none" stroke="black" points="1619.5,-179.5 1619.5,-209.5 1805.5,-209.5 1805.5,-179.5 1619.5,-179.5"/>
<text text-anchor="start" x="1627.5" y="-197.5" font-family="Helvetica,sans-Serif" font-size="10.00">lib/Target/AMDGPU/AMDGPUTarget</text>
<text text-anchor="middle" x="1712.5" y="-186.5" font-family="Helvetica,sans-Serif" font-size="10.00">Machine.cpp</text>
</a>
</g>
</g>
<!-- Node1&#45;&gt;Node17 -->
<g id="edge25" class="edge">
<title>Node1&#45;&gt;Node17</title>
<path fill="none" stroke="midnightblue" d="M1369.01,-249.96C1438.3,-238.97 1547.26,-221.7 1623.84,-209.56"/>
<polygon fill="midnightblue" stroke="midnightblue" points="1368.41,-246.51 1359.08,-251.53 1369.5,-253.42 1368.41,-246.51"/>
</g>
<!-- Node18 -->
<g id="node18" class="node">
<title>Node18</title>
<g id="a_node18"><a xlink:href="$BPFTargetMachine_8cpp.html" xlink:title=" ">
<polygon fill="none" stroke="black" points="1823.5,-179.5 1823.5,-209.5 1957.5,-209.5 1957.5,-179.5 1823.5,-179.5"/>
<text text-anchor="start" x="1831.5" y="-197.5" font-family="Helvetica,sans-Serif" font-size="10.00">lib/Target/BPF/BPFTarget</text>
<text text-anchor="middle" x="1890.5" y="-186.5" font-family="Helvetica,sans-Serif" font-size="10.00">Machine.cpp</text>
</a>
</g>
</g>
<!-- Node1&#45;&gt;Node18 -->
<g id="edge26" class="edge">
<title>Node1&#45;&gt;Node18</title>
<path fill="none" stroke="midnightblue" d="M1369.2,-255.85C1467.14,-248.59 1655.48,-232.96 1814.5,-210 1817.42,-209.58 1820.41,-209.12 1823.42,-208.64"/>
<polygon fill="midnightblue" stroke="midnightblue" points="1368.86,-252.37 1359.14,-256.59 1369.37,-259.35 1368.86,-252.37"/>
</g>
<!-- Node19 -->
<g id="node19" class="node">
<title>Node19</title>
<g id="a_node19"><a xlink:href="$HexagonTargetMachine_8cpp.html" xlink:title=" ">
<polygon fill="none" stroke="black" points="1976,-179.5 1976,-209.5 2131,-209.5 2131,-179.5 1976,-179.5"/>
<text text-anchor="start" x="1984" y="-197.5" font-family="Helvetica,sans-Serif" font-size="10.00">lib/Target/Hexagon</text>
<text text-anchor="middle" x="2053.5" y="-186.5" font-family="Helvetica,sans-Serif" font-size="10.00">/HexagonTargetMachine.cpp</text>
</a>
</g>
</g>
<!-- Node1&#45;&gt;Node19 -->
<g id="edge27" class="edge">
<title>Node1&#45;&gt;Node19</title>
<path fill="none" stroke="midnightblue" d="M1369.19,-257.4C1489.07,-251.39 1748.75,-236.37 1966.5,-210 1969.54,-209.63 1972.64,-209.23 1975.76,-208.81"/>
<polygon fill="midnightblue" stroke="midnightblue" points="1368.89,-253.91 1359.07,-257.9 1369.23,-260.9 1368.89,-253.91"/>
</g>
<!-- Node20 -->
<g id="node20" class="node">
<title>Node20</title>
<g id="a_node20"><a xlink:href="$NVPTXTargetMachine_8cpp.html" xlink:title=" ">
<polygon fill="none" stroke="black" points="2149.5,-179.5 2149.5,-209.5 2313.5,-209.5 2313.5,-179.5 2149.5,-179.5"/>
<text text-anchor="start" x="2157.5" y="-197.5" font-family="Helvetica,sans-Serif" font-size="10.00">lib/Target/NVPTX/NVPTXTarget</text>
<text text-anchor="middle" x="2231.5" y="-186.5" font-family="Helvetica,sans-Serif" font-size="10.00">Machine.cpp</text>
</a>
</g>
</g>
<!-- Node1&#45;&gt;Node20 -->
<g id="edge28" class="edge">
<title>Node1&#45;&gt;Node20</title>
<path fill="none" stroke="midnightblue" d="M1369.36,-258.69C1511.61,-254.36 1854.63,-241.31 2140.5,-210 2143.36,-209.69 2146.27,-209.35 2149.21,-208.98"/>
<polygon fill="midnightblue" stroke="midnightblue" points="1368.95,-255.2 1359.06,-259 1369.16,-262.2 1368.95,-255.2"/>
</g>
<!-- Node3 -->
<g id="node3" class="node">
<title>Node3</title>
<g id="a_node3"><a xlink:href="$LTOCodeGenerator_8h.html" xlink:title=" ">
<polygon fill="none" stroke="black" points="0,-56.5 0,-86.5 133,-86.5 133,-56.5 0,-56.5"/>
<text text-anchor="start" x="8" y="-74.5" font-family="Helvetica,sans-Serif" font-size="10.00">include/llvm/LTO/legacy</text>
<text text-anchor="middle" x="66.5" y="-63.5" font-family="Helvetica,sans-Serif" font-size="10.00">/LTOCodeGenerator.h</text>
</a>
</g>
</g>
<!-- Node2&#45;&gt;Node3 -->
<g id="edge2" class="edge">
<title>Node2&#45;&gt;Node3</title>
<path fill="none" stroke="midnightblue" d="M374.01,-181.62C310.67,-159.14 173.63,-110.52 105.95,-86.5"/>
<polygon fill="midnightblue" stroke="midnightblue" points="372.93,-184.95 383.52,-184.99 375.27,-178.35 372.93,-184.95"/>
</g>
<!-- Node5 -->
<g id="node5" class="node">
<title>Node5</title>
<g id="a_node5"><a xlink:href="$LTO_8h.html" xlink:title=" ">
<polygon fill="none" stroke="black" points="343.5,-123.5 343.5,-142.5 471.5,-142.5 471.5,-123.5 343.5,-123.5"/>
<text text-anchor="middle" x="407.5" y="-130.5" font-family="Helvetica,sans-Serif" font-size="10.00">include/llvm/LTO/LTO.h</text>
</a>
</g>
</g>
<!-- Node2&#45;&gt;Node5 -->
<g id="edge4" class="edge">
<title>Node2&#45;&gt;Node5</title>
<path fill="none" stroke="midnightblue" d="M407.5,-174.82C407.5,-164 407.5,-150.9 407.5,-142.51"/>
<polygon fill="midnightblue" stroke="midnightblue" points="404,-174.98 407.5,-184.98 411,-174.98 404,-174.98"/>
</g>
<!-- Node4 -->
<g id="node4" class="node">
<title>Node4</title>
<g id="a_node4"><a xlink:href="$LTOCodeGenerator_8cpp.html" xlink:title=" ">
<polygon fill="none" stroke="black" points="74.5,-0.5 74.5,-19.5 238.5,-19.5 238.5,-0.5 74.5,-0.5"/>
<text text-anchor="middle" x="156.5" y="-7.5" font-family="Helvetica,sans-Serif" font-size="10.00">lib/LTO/LTOCodeGenerator.cpp</text>
</a>
</g>
</g>
<!-- Node3&#45;&gt;Node4 -->
<g id="edge3" class="edge">
<title>Node3&#45;&gt;Node4</title>
<path fill="none" stroke="midnightblue" d="M96.33,-50.78C112.28,-40.23 131.11,-27.78 143.4,-19.66"/>
<polygon fill="midnightblue" stroke="midnightblue" points="94.24,-47.96 87.83,-56.4 98.1,-53.8 94.24,-47.96"/>
</g>
<!-- Node5&#45;&gt;Node3 -->
<g id="edge5" class="edge">
<title>Node5&#45;&gt;Node3</title>
<path fill="none" stroke="midnightblue" d="M347.46,-121.71C294.75,-112.65 216.02,-99.06 147.5,-87 142.86,-86.18 138.07,-85.34 133.24,-84.48"/>
<polygon fill="midnightblue" stroke="midnightblue" points="347.19,-125.21 357.64,-123.46 348.38,-118.32 347.19,-125.21"/>
</g>
<!-- Node5&#45;&gt;Node4 -->
<g id="edge17" class="edge">
<title>Node5&#45;&gt;Node4</title>
<path fill="none" stroke="midnightblue" d="M333.15,-125.43C275.86,-118.91 202.77,-106.94 180.5,-87 160.71,-69.28 157.1,-35.39 156.54,-19.55"/>
<polygon fill="midnightblue" stroke="midnightblue" points="332.97,-128.93 343.29,-126.54 333.73,-121.97 332.97,-128.93"/>
</g>
<!-- Node6 -->
<g id="node6" class="node">
<title>Node6</title>
<g id="a_node6"><a xlink:href="$LTOModule_8h.html" xlink:title=" ">
<polygon fill="none" stroke="black" points="190,-56.5 190,-86.5 323,-86.5 323,-56.5 190,-56.5"/>
<text text-anchor="start" x="198" y="-74.5" font-family="Helvetica,sans-Serif" font-size="10.00">include/llvm/LTO/legacy</text>
<text text-anchor="middle" x="256.5" y="-63.5" font-family="Helvetica,sans-Serif" font-size="10.00">/LTOModule.h</text>
</a>
</g>
</g>
<!-- Node5&#45;&gt;Node6 -->
<g id="edge6" class="edge">
<title>Node5&#45;&gt;Node6</title>
<path fill="none" stroke="midnightblue" d="M376.33,-119.72C351.83,-110.06 317.67,-96.6 292.09,-86.52"/>
<polygon fill="midnightblue" stroke="midnightblue" points="375.28,-123.07 385.87,-123.48 377.84,-116.55 375.28,-123.07"/>
</g>
<!-- Node8 -->
<g id="node8" class="node">
<title>Node8</title>
<g id="a_node8"><a xlink:href="$ThinLTOCodeGenerator_8h.html" xlink:title=" ">
<polygon fill="none" stroke="black" points="643.5,-56.5 643.5,-86.5 783.5,-86.5 783.5,-56.5 643.5,-56.5"/>
<text text-anchor="start" x="651.5" y="-74.5" font-family="Helvetica,sans-Serif" font-size="10.00">include/llvm/LTO/legacy</text>
<text text-anchor="middle" x="713.5" y="-63.5" font-family="Helvetica,sans-Serif" font-size="10.00">/ThinLTOCodeGenerator.h</text>
</a>
</g>
</g>
<!-- Node5&#45;&gt;Node8 -->
<g id="edge9" class="edge">
<title>Node5&#45;&gt;Node8</title>
<path fill="none" stroke="midnightblue" d="M461.43,-121.51C512.07,-111.67 588.12,-96.88 643.44,-86.12"/>
<polygon fill="midnightblue" stroke="midnightblue" points="460.49,-118.13 451.34,-123.48 461.83,-125 460.49,-118.13"/>
</g>
<!-- Node5&#45;&gt;Node9 -->
<g id="edge18" class="edge">
<title>Node5&#45;&gt;Node9</title>
<path fill="none" stroke="midnightblue" d="M462.91,-121.31C497.2,-113.77 541.74,-102.28 579.5,-87 605.51,-76.47 609.07,-67.85 634.5,-56 665.96,-41.34 703.64,-27.84 728.28,-19.52"/>
<polygon fill="midnightblue" stroke="midnightblue" points="462.11,-117.9 453.07,-123.43 463.58,-124.74 462.11,-117.9"/>
</g>
<!-- Node10 -->
<g id="node10" class="node">
<title>Node10</title>
<g id="a_node10"><a xlink:href="$LTOBackend_8h.html" xlink:title=" ">
<polygon fill="none" stroke="black" points="380,-62 380,-81 549,-81 549,-62 380,-62"/>
<text text-anchor="middle" x="464.5" y="-69" font-family="Helvetica,sans-Serif" font-size="10.00">include/llvm/LTO/LTOBackend.h</text>
</a>
</g>
</g>
<!-- Node5&#45;&gt;Node10 -->
<g id="edge11" class="edge">
<title>Node5&#45;&gt;Node10</title>
<path fill="none" stroke="midnightblue" d="M422.83,-116C433.62,-104.74 447.64,-90.1 456.35,-81.01"/>
<polygon fill="midnightblue" stroke="midnightblue" points="420.06,-113.83 415.67,-123.48 425.11,-118.68 420.06,-113.83"/>
</g>
<!-- Node11 -->
<g id="node11" class="node">
<title>Node11</title>
<g id="a_node11"><a xlink:href="$LTO_8cpp.html" xlink:title=" ">
<polygon fill="none" stroke="black" points="402,-0.5 402,-19.5 493,-19.5 493,-0.5 402,-0.5"/>
<text text-anchor="middle" x="447.5" y="-7.5" font-family="Helvetica,sans-Serif" font-size="10.00">lib/LTO/LTO.cpp</text>
</a>
</g>
</g>
<!-- Node5&#45;&gt;Node11 -->
<g id="edge15" class="edge">
<title>Node5&#45;&gt;Node11</title>
<path fill="none" stroke="midnightblue" d="M390.8,-116.04C376.55,-100.41 360.05,-76.09 371.5,-56 381.75,-38.02 402.33,-26.49 419.48,-19.6"/>
<polygon fill="midnightblue" stroke="midnightblue" points="388.41,-118.61 397.88,-123.35 393.43,-113.74 388.41,-118.61"/>
</g>
<!-- Node5&#45;&gt;Node12 -->
<g id="edge16" class="edge">
<title>Node5&#45;&gt;Node12</title>
<path fill="none" stroke="midnightblue" d="M481.64,-125.34C509.14,-119.27 538.46,-107.95 558.5,-87 576.45,-68.23 578.19,-35.16 577.92,-19.58"/>
<polygon fill="midnightblue" stroke="midnightblue" points="480.74,-121.95 471.62,-127.34 482.11,-128.81 480.74,-121.95"/>
</g>
<!-- Node6&#45;&gt;Node4 -->
<g id="edge7" class="edge">
<title>Node6&#45;&gt;Node4</title>
<path fill="none" stroke="midnightblue" d="M223.84,-51.07C206.02,-40.46 184.83,-27.86 171.05,-19.66"/>
<polygon fill="midnightblue" stroke="midnightblue" points="222.42,-54.29 232.8,-56.4 226,-48.28 222.42,-54.29"/>
</g>
<!-- Node7 -->
<g id="node7" class="node">
<title>Node7</title>
<g id="a_node7"><a xlink:href="$LTOModule_8cpp.html" xlink:title=" ">
<polygon fill="none" stroke="black" points="257,-0.5 257,-19.5 384,-19.5 384,-0.5 257,-0.5"/>
<text text-anchor="middle" x="320.5" y="-7.5" font-family="Helvetica,sans-Serif" font-size="10.00">lib/LTO/LTOModule.cpp</text>
</a>
</g>
</g>
<!-- Node6&#45;&gt;Node7 -->
<g id="edge8" class="edge">
<title>Node6&#45;&gt;Node7</title>
<path fill="none" stroke="midnightblue" d="M279.3,-49.3C290.29,-39.09 302.85,-27.41 311.19,-19.66"/>
<polygon fill="midnightblue" stroke="midnightblue" points="276.61,-47.03 271.67,-56.4 281.37,-52.15 276.61,-47.03"/>
</g>
<!-- Node8&#45;&gt;Node9 -->
<g id="edge10" class="edge">
<title>Node8&#45;&gt;Node9</title>
<path fill="none" stroke="midnightblue" d="M728.93,-48.1C735.77,-38.19 743.4,-27.11 748.53,-19.66"/>
<polygon fill="midnightblue" stroke="midnightblue" points="726.01,-46.18 723.22,-56.4 731.77,-50.15 726.01,-46.18"/>
</g>
<!-- Node10&#45;&gt;Node4 -->
<g id="edge14" class="edge">
<title>Node10&#45;&gt;Node4</title>
<path fill="none" stroke="midnightblue" d="M410.38,-60.05C350.71,-48.52 255.86,-30.19 200.55,-19.51"/>
<polygon fill="midnightblue" stroke="midnightblue" points="409.89,-63.51 420.37,-61.98 411.22,-56.64 409.89,-63.51"/>
</g>
<!-- Node10&#45;&gt;Node11 -->
<g id="edge12" class="edge">
<title>Node10&#45;&gt;Node11</title>
<path fill="none" stroke="midnightblue" d="M459.26,-52.16C456.15,-41.27 452.35,-27.99 449.93,-19.51"/>
<polygon fill="midnightblue" stroke="midnightblue" points="455.95,-53.32 462.06,-61.98 462.68,-51.4 455.95,-53.32"/>
</g>
<!-- Node10&#45;&gt;Node12 -->
<g id="edge13" class="edge">
<title>Node10&#45;&gt;Node12</title>
<path fill="none" stroke="midnightblue" d="M489.74,-57.21C511.62,-45.69 542.64,-29.36 561.34,-19.51"/>
<polygon fill="midnightblue" stroke="midnightblue" points="487.91,-54.22 480.69,-61.98 491.17,-60.41 487.91,-54.22"/>
</g>
</g>
</svg>
