<?xml version="1.0" encoding="UTF-8" standalone="no"?>
<!DOCTYPE svg PUBLIC "-//W3C//DTD SVG 1.1//EN"
 "http://www.w3.org/Graphics/SVG/1.1/DTD/svg11.dtd">
<!-- Generated by graphviz version 2.48.0 (0)
 -->
<!-- Title: include/llvm/CodeGen/GlobalISel/MIPatternMatch.h Pages: 1 -->
<svg width="3935pt" height="184pt"
 viewBox="0.00 0.00 3935.00 184.00" xmlns="http://www.w3.org/2000/svg" xmlns:xlink="http://www.w3.org/1999/xlink">
<g id="graph0" class="graph" transform="scale(1 1) rotate(0) translate(4 180)">
<title>include/llvm/CodeGen/GlobalISel/MIPatternMatch.h</title>
<!-- Node1 -->
<g id="node1" class="node">
<title>Node1</title>
<g id="a_node1"><a xlink:title="Contains matchers for matching SSA Machine Instructions.">
<polygon fill="#bfbfbf" stroke="black" points="1758,-145.5 1758,-175.5 1916,-175.5 1916,-145.5 1758,-145.5"/>
<text text-anchor="start" x="1766" y="-163.5" font-family="Helvetica,sans-Serif" font-size="10.00">include/llvm/CodeGen</text>
<text text-anchor="middle" x="1837" y="-152.5" font-family="Helvetica,sans-Serif" font-size="10.00">/GlobalISel/MIPatternMatch.h</text>
</a>
</g>
</g>
<!-- Node2 -->
<g id="node2" class="node">
<title>Node2</title>
<g id="a_node2"><a xlink:href="LegalizationArtifactCombiner_8h.html" target="_top" xlink:title=" ">
<polygon fill="none" stroke="black" points="60.5,-67.5 60.5,-108.5 227.5,-108.5 227.5,-67.5 60.5,-67.5"/>
<text text-anchor="start" x="68.5" y="-96.5" font-family="Helvetica,sans-Serif" font-size="10.00">include/llvm/CodeGen</text>
<text text-anchor="start" x="68.5" y="-85.5" font-family="Helvetica,sans-Serif" font-size="10.00">/GlobalISel/LegalizationArtifact</text>
<text text-anchor="middle" x="144" y="-74.5" font-family="Helvetica,sans-Serif" font-size="10.00">Combiner.h</text>
</a>
</g>
</g>
<!-- Node1&#45;&gt;Node2 -->
<g id="edge1" class="edge">
<title>Node1&#45;&gt;Node2</title>
<path fill="none" stroke="midnightblue" d="M1747.64,-158.8C1455.85,-156.18 532.8,-145.17 237,-109 233.89,-108.62 230.72,-108.18 227.53,-107.71"/>
<polygon fill="midnightblue" stroke="midnightblue" points="1747.72,-162.3 1757.75,-158.89 1747.78,-155.3 1747.72,-162.3"/>
</g>
<!-- Node5 -->
<g id="node5" class="node">
<title>Node5</title>
<g id="a_node5"><a xlink:href="CombinerHelper_8cpp.html" target="_top" xlink:title=" ">
<polygon fill="none" stroke="black" points="246,-73 246,-103 374,-103 374,-73 246,-73"/>
<text text-anchor="start" x="254" y="-91" font-family="Helvetica,sans-Serif" font-size="10.00">lib/CodeGen/GlobalISel</text>
<text text-anchor="middle" x="310" y="-80" font-family="Helvetica,sans-Serif" font-size="10.00">/CombinerHelper.cpp</text>
</a>
</g>
</g>
<!-- Node1&#45;&gt;Node5 -->
<g id="edge4" class="edge">
<title>Node1&#45;&gt;Node5</title>
<path fill="none" stroke="midnightblue" d="M1747.42,-159.11C1473.23,-157.5 648.03,-149.34 383,-109 373.78,-107.6 364.05,-105.43 354.82,-103.04"/>
<polygon fill="midnightblue" stroke="midnightblue" points="1747.7,-162.62 1757.72,-159.17 1747.74,-155.62 1747.7,-162.62"/>
</g>
<!-- Node6 -->
<g id="node6" class="node">
<title>Node6</title>
<g id="a_node6"><a xlink:href="LegalizerHelper_8cpp.html" target="_top" xlink:title=" ">
<polygon fill="none" stroke="black" points="392,-73 392,-103 520,-103 520,-73 392,-73"/>
<text text-anchor="start" x="400" y="-91" font-family="Helvetica,sans-Serif" font-size="10.00">lib/CodeGen/GlobalISel</text>
<text text-anchor="middle" x="456" y="-80" font-family="Helvetica,sans-Serif" font-size="10.00">/LegalizerHelper.cpp</text>
</a>
</g>
</g>
<!-- Node1&#45;&gt;Node6 -->
<g id="edge5" class="edge">
<title>Node1&#45;&gt;Node6</title>
<path fill="none" stroke="midnightblue" d="M1747.3,-158.71C1491.96,-156.02 764.51,-145.32 529,-109 519.78,-107.58 510.06,-105.41 500.82,-103.01"/>
<polygon fill="midnightblue" stroke="midnightblue" points="1747.6,-162.21 1757.64,-158.81 1747.68,-155.21 1747.6,-162.21"/>
</g>
<!-- Node7 -->
<g id="node7" class="node">
<title>Node7</title>
<g id="a_node7"><a xlink:href="LoadStoreOpt_8cpp.html" target="_top" xlink:title="This file implements the LoadStoreOpt optimization pass.">
<polygon fill="none" stroke="black" points="538,-73 538,-103 666,-103 666,-73 538,-73"/>
<text text-anchor="start" x="546" y="-91" font-family="Helvetica,sans-Serif" font-size="10.00">lib/CodeGen/GlobalISel</text>
<text text-anchor="middle" x="602" y="-80" font-family="Helvetica,sans-Serif" font-size="10.00">/LoadStoreOpt.cpp</text>
</a>
</g>
</g>
<!-- Node1&#45;&gt;Node7 -->
<g id="edge6" class="edge">
<title>Node1&#45;&gt;Node7</title>
<path fill="none" stroke="midnightblue" d="M1747.6,-158.2C1512.57,-154.38 881.28,-141.32 675,-109 665.91,-107.58 656.34,-105.44 647.22,-103.08"/>
<polygon fill="midnightblue" stroke="midnightblue" points="1747.76,-161.71 1757.81,-158.37 1747.87,-154.71 1747.76,-161.71"/>
</g>
<!-- Node8 -->
<g id="node8" class="node">
<title>Node8</title>
<g id="a_node8"><a xlink:href="CodeGen_2GlobalISel_2Utils_8cpp.html" target="_top" xlink:title=" ">
<polygon fill="none" stroke="black" points="684,-73 684,-103 812,-103 812,-73 684,-73"/>
<text text-anchor="start" x="692" y="-91" font-family="Helvetica,sans-Serif" font-size="10.00">lib/CodeGen/GlobalISel</text>
<text text-anchor="middle" x="748" y="-80" font-family="Helvetica,sans-Serif" font-size="10.00">/Utils.cpp</text>
</a>
</g>
</g>
<!-- Node1&#45;&gt;Node8 -->
<g id="edge7" class="edge">
<title>Node1&#45;&gt;Node8</title>
<path fill="none" stroke="midnightblue" d="M1747.69,-157.55C1534.06,-152.5 998.16,-137.32 821,-109 811.92,-107.55 802.34,-105.39 793.23,-103.03"/>
<polygon fill="midnightblue" stroke="midnightblue" points="1747.85,-161.06 1757.93,-157.79 1748.01,-154.06 1747.85,-161.06"/>
</g>
<!-- Node9 -->
<g id="node9" class="node">
<title>Node9</title>
<g id="a_node9"><a xlink:href="AArch64InstructionSelector_8cpp.html" target="_top" xlink:title="This file implements the targeting of the InstructionSelector class for AArch64.">
<polygon fill="none" stroke="black" points="830,-73 830,-103 1030,-103 1030,-73 830,-73"/>
<text text-anchor="start" x="838" y="-91" font-family="Helvetica,sans-Serif" font-size="10.00">lib/Target/AArch64</text>
<text text-anchor="middle" x="930" y="-80" font-family="Helvetica,sans-Serif" font-size="10.00">/GISel/AArch64InstructionSelector.cpp</text>
</a>
</g>
</g>
<!-- Node1&#45;&gt;Node9 -->
<g id="edge8" class="edge">
<title>Node1&#45;&gt;Node9</title>
<path fill="none" stroke="midnightblue" d="M1747.62,-157.29C1599.72,-152.86 1294.99,-140.47 1039,-109 1026.21,-107.43 1012.64,-105.31 999.59,-103.04"/>
<polygon fill="midnightblue" stroke="midnightblue" points="1747.9,-160.8 1757.99,-157.6 1748.1,-153.8 1747.9,-160.8"/>
</g>
<!-- Node10 -->
<g id="node10" class="node">
<title>Node10</title>
<g id="a_node10"><a xlink:href="AArch64LegalizerInfo_8cpp.html" target="_top" xlink:title="This file implements the targeting of the Machinelegalizer class for AArch64.">
<polygon fill="none" stroke="black" points="1048,-73 1048,-103 1220,-103 1220,-73 1048,-73"/>
<text text-anchor="start" x="1056" y="-91" font-family="Helvetica,sans-Serif" font-size="10.00">lib/Target/AArch64</text>
<text text-anchor="middle" x="1134" y="-80" font-family="Helvetica,sans-Serif" font-size="10.00">/GISel/AArch64LegalizerInfo.cpp</text>
</a>
</g>
</g>
<!-- Node1&#45;&gt;Node10 -->
<g id="edge9" class="edge">
<title>Node1&#45;&gt;Node10</title>
<path fill="none" stroke="midnightblue" d="M1747.8,-155.58C1628.94,-149.55 1412.31,-135.8 1229,-109 1217.99,-107.39 1206.35,-105.28 1195.12,-103.04"/>
<polygon fill="midnightblue" stroke="midnightblue" points="1747.78,-159.08 1757.94,-156.08 1748.13,-152.09 1747.78,-159.08"/>
</g>
<!-- Node11 -->
<g id="node11" class="node">
<title>Node11</title>
<g id="a_node11"><a xlink:href="AArch64O0PreLegalizerCombiner_8cpp.html" target="_top" xlink:title=" ">
<polygon fill="none" stroke="black" points="1238,-67.5 1238,-108.5 1400,-108.5 1400,-67.5 1238,-67.5"/>
<text text-anchor="start" x="1246" y="-96.5" font-family="Helvetica,sans-Serif" font-size="10.00">lib/Target/AArch64</text>
<text text-anchor="start" x="1246" y="-85.5" font-family="Helvetica,sans-Serif" font-size="10.00">/GISel/AArch64O0PreLegalizer</text>
<text text-anchor="middle" x="1319" y="-74.5" font-family="Helvetica,sans-Serif" font-size="10.00">Combiner.cpp</text>
</a>
</g>
</g>
<!-- Node1&#45;&gt;Node11 -->
<g id="edge10" class="edge">
<title>Node1&#45;&gt;Node11</title>
<path fill="none" stroke="midnightblue" d="M1747.69,-151.62C1660.85,-143.33 1525.37,-128.74 1409,-109 1406.16,-108.52 1403.27,-108.01 1400.36,-107.47"/>
<polygon fill="midnightblue" stroke="midnightblue" points="1747.49,-155.12 1757.77,-152.57 1748.15,-148.15 1747.49,-155.12"/>
</g>
<!-- Node12 -->
<g id="node12" class="node">
<title>Node12</title>
<g id="a_node12"><a xlink:href="AArch64PostLegalizerCombiner_8cpp.html" target="_top" xlink:title="Post&#45;legalization combines on generic MachineInstrs.">
<polygon fill="none" stroke="black" points="1418,-67.5 1418,-108.5 1572,-108.5 1572,-67.5 1418,-67.5"/>
<text text-anchor="start" x="1426" y="-96.5" font-family="Helvetica,sans-Serif" font-size="10.00">lib/Target/AArch64</text>
<text text-anchor="start" x="1426" y="-85.5" font-family="Helvetica,sans-Serif" font-size="10.00">/GISel/AArch64PostLegalizer</text>
<text text-anchor="middle" x="1495" y="-74.5" font-family="Helvetica,sans-Serif" font-size="10.00">Combiner.cpp</text>
</a>
</g>
</g>
<!-- Node1&#45;&gt;Node12 -->
<g id="edge11" class="edge">
<title>Node1&#45;&gt;Node12</title>
<path fill="none" stroke="midnightblue" d="M1752.26,-143.53C1702.33,-133.93 1637.97,-121.24 1581,-109 1578.15,-108.39 1575.25,-107.76 1572.33,-107.11"/>
<polygon fill="midnightblue" stroke="midnightblue" points="1751.89,-147.02 1762.37,-145.47 1753.21,-140.15 1751.89,-147.02"/>
</g>
<!-- Node13 -->
<g id="node13" class="node">
<title>Node13</title>
<g id="a_node13"><a xlink:href="AArch64PostLegalizerLowering_8cpp.html" target="_top" xlink:title="Post&#45;legalization lowering for instructions.">
<polygon fill="none" stroke="black" points="1590,-67.5 1590,-108.5 1744,-108.5 1744,-67.5 1590,-67.5"/>
<text text-anchor="start" x="1598" y="-96.5" font-family="Helvetica,sans-Serif" font-size="10.00">lib/Target/AArch64</text>
<text text-anchor="start" x="1598" y="-85.5" font-family="Helvetica,sans-Serif" font-size="10.00">/GISel/AArch64PostLegalizer</text>
<text text-anchor="middle" x="1667" y="-74.5" font-family="Helvetica,sans-Serif" font-size="10.00">Lowering.cpp</text>
</a>
</g>
</g>
<!-- Node1&#45;&gt;Node13 -->
<g id="edge12" class="edge">
<title>Node1&#45;&gt;Node13</title>
<path fill="none" stroke="midnightblue" d="M1793.67,-141.53C1769.37,-131.45 1739.03,-118.87 1714.13,-108.55"/>
<polygon fill="midnightblue" stroke="midnightblue" points="1792.43,-144.8 1803.01,-145.4 1795.11,-138.34 1792.43,-144.8"/>
</g>
<!-- Node14 -->
<g id="node14" class="node">
<title>Node14</title>
<g id="a_node14"><a xlink:href="AArch64PreLegalizerCombiner_8cpp.html" target="_top" xlink:title=" ">
<polygon fill="none" stroke="black" points="1762.5,-67.5 1762.5,-108.5 1911.5,-108.5 1911.5,-67.5 1762.5,-67.5"/>
<text text-anchor="start" x="1770.5" y="-96.5" font-family="Helvetica,sans-Serif" font-size="10.00">lib/Target/AArch64</text>
<text text-anchor="start" x="1770.5" y="-85.5" font-family="Helvetica,sans-Serif" font-size="10.00">/GISel/AArch64PreLegalizer</text>
<text text-anchor="middle" x="1837" y="-74.5" font-family="Helvetica,sans-Serif" font-size="10.00">Combiner.cpp</text>
</a>
</g>
</g>
<!-- Node1&#45;&gt;Node14 -->
<g id="edge13" class="edge">
<title>Node1&#45;&gt;Node14</title>
<path fill="none" stroke="midnightblue" d="M1837,-134.98C1837,-126.35 1837,-116.76 1837,-108.59"/>
<polygon fill="midnightblue" stroke="midnightblue" points="1833.5,-135.23 1837,-145.23 1840.5,-135.23 1833.5,-135.23"/>
</g>
<!-- Node15 -->
<g id="node15" class="node">
<title>Node15</title>
<g id="a_node15"><a xlink:href="AMDGPUCombinerHelper_8cpp.html" target="_top" xlink:title=" ">
<polygon fill="none" stroke="black" points="1929.5,-73 1929.5,-103 2132.5,-103 2132.5,-73 1929.5,-73"/>
<text text-anchor="start" x="1937.5" y="-91" font-family="Helvetica,sans-Serif" font-size="10.00">lib/Target/AMDGPU/AMDGPUCombiner</text>
<text text-anchor="middle" x="2031" y="-80" font-family="Helvetica,sans-Serif" font-size="10.00">Helper.cpp</text>
</a>
</g>
</g>
<!-- Node1&#45;&gt;Node15 -->
<g id="edge14" class="edge">
<title>Node1&#45;&gt;Node15</title>
<path fill="none" stroke="midnightblue" d="M1885.25,-141.96C1918.28,-129.96 1961.5,-114.26 1992.27,-103.07"/>
<polygon fill="midnightblue" stroke="midnightblue" points="1884,-138.7 1875.79,-145.4 1886.39,-145.28 1884,-138.7"/>
</g>
<!-- Node16 -->
<g id="node16" class="node">
<title>Node16</title>
<g id="a_node16"><a xlink:href="AMDGPUGlobalISelUtils_8cpp.html" target="_top" xlink:title=" ">
<polygon fill="none" stroke="black" points="2151,-73 2151,-103 2339,-103 2339,-73 2151,-73"/>
<text text-anchor="start" x="2159" y="-91" font-family="Helvetica,sans-Serif" font-size="10.00">lib/Target/AMDGPU/AMDGPUGlobal</text>
<text text-anchor="middle" x="2245" y="-80" font-family="Helvetica,sans-Serif" font-size="10.00">ISelUtils.cpp</text>
</a>
</g>
</g>
<!-- Node1&#45;&gt;Node16 -->
<g id="edge15" class="edge">
<title>Node1&#45;&gt;Node16</title>
<path fill="none" stroke="midnightblue" d="M1926.06,-145.42C1986.94,-135.63 2069.44,-122.05 2142,-109 2152.4,-107.13 2163.37,-105.08 2174.13,-103.03"/>
<polygon fill="midnightblue" stroke="midnightblue" points="1925.42,-141.98 1916.1,-147.02 1926.53,-148.89 1925.42,-141.98"/>
</g>
<!-- Node17 -->
<g id="node17" class="node">
<title>Node17</title>
<g id="a_node17"><a xlink:href="AMDGPUInstructionSelector_8cpp.html" target="_top" xlink:title="This file implements the targeting of the InstructionSelector class for AMDGPU.">
<polygon fill="none" stroke="black" points="2357,-73 2357,-103 2565,-103 2565,-73 2357,-73"/>
<text text-anchor="start" x="2365" y="-91" font-family="Helvetica,sans-Serif" font-size="10.00">lib/Target/AMDGPU/AMDGPUInstruction</text>
<text text-anchor="middle" x="2461" y="-80" font-family="Helvetica,sans-Serif" font-size="10.00">Selector.cpp</text>
</a>
</g>
</g>
<!-- Node1&#45;&gt;Node17 -->
<g id="edge16" class="edge">
<title>Node1&#45;&gt;Node17</title>
<path fill="none" stroke="midnightblue" d="M1926.28,-152.76C2028.46,-144.57 2200.72,-129.28 2348,-109 2360.43,-107.29 2373.59,-105.21 2386.36,-103.04"/>
<polygon fill="midnightblue" stroke="midnightblue" points="1925.7,-149.3 1916.01,-153.58 1926.25,-156.28 1925.7,-149.3"/>
</g>
<!-- Node18 -->
<g id="node18" class="node">
<title>Node18</title>
<g id="a_node18"><a xlink:href="AMDGPULegalizerInfo_8cpp.html" target="_top" xlink:title="This file implements the targeting of the Machinelegalizer class for AMDGPU.">
<polygon fill="none" stroke="black" points="2583,-73 2583,-103 2783,-103 2783,-73 2583,-73"/>
<text text-anchor="start" x="2591" y="-91" font-family="Helvetica,sans-Serif" font-size="10.00">lib/Target/AMDGPU/AMDGPULegalizer</text>
<text text-anchor="middle" x="2683" y="-80" font-family="Helvetica,sans-Serif" font-size="10.00">Info.cpp</text>
</a>
</g>
</g>
<!-- Node1&#45;&gt;Node18 -->
<g id="edge17" class="edge">
<title>Node1&#45;&gt;Node18</title>
<path fill="none" stroke="midnightblue" d="M1926.26,-156.64C2065.19,-151.46 2341.38,-138.22 2574,-109 2586.69,-107.41 2600.15,-105.29 2613.11,-103.03"/>
<polygon fill="midnightblue" stroke="midnightblue" points="1925.95,-153.15 1916.09,-157.01 1926.21,-160.14 1925.95,-153.15"/>
</g>
<!-- Node19 -->
<g id="node19" class="node">
<title>Node19</title>
<g id="a_node19"><a xlink:href="AMDGPUPostLegalizerCombiner_8cpp.html" target="_top" xlink:title=" ">
<polygon fill="none" stroke="black" points="2801.5,-73 2801.5,-103 2978.5,-103 2978.5,-73 2801.5,-73"/>
<text text-anchor="start" x="2809.5" y="-91" font-family="Helvetica,sans-Serif" font-size="10.00">lib/Target/AMDGPU/AMDGPUPost</text>
<text text-anchor="middle" x="2890" y="-80" font-family="Helvetica,sans-Serif" font-size="10.00">LegalizerCombiner.cpp</text>
</a>
</g>
</g>
<!-- Node1&#45;&gt;Node19 -->
<g id="edge18" class="edge">
<title>Node1&#45;&gt;Node19</title>
<path fill="none" stroke="midnightblue" d="M1926.4,-159.19C2095.92,-157.62 2475.47,-149.44 2792,-109 2803.8,-107.49 2816.3,-105.36 2828.28,-103.04"/>
<polygon fill="midnightblue" stroke="midnightblue" points="1926.25,-155.69 1916.28,-159.28 1926.31,-162.69 1926.25,-155.69"/>
</g>
<!-- Node20 -->
<g id="node20" class="node">
<title>Node20</title>
<g id="a_node20"><a xlink:href="AMDGPUPreLegalizerCombiner_8cpp.html" target="_top" xlink:title=" ">
<polygon fill="none" stroke="black" points="2997,-73 2997,-103 3169,-103 3169,-73 2997,-73"/>
<text text-anchor="start" x="3005" y="-91" font-family="Helvetica,sans-Serif" font-size="10.00">lib/Target/AMDGPU/AMDGPUPre</text>
<text text-anchor="middle" x="3083" y="-80" font-family="Helvetica,sans-Serif" font-size="10.00">LegalizerCombiner.cpp</text>
</a>
</g>
</g>
<!-- Node1&#45;&gt;Node20 -->
<g id="edge19" class="edge">
<title>Node1&#45;&gt;Node20</title>
<path fill="none" stroke="midnightblue" d="M1926.29,-157.47C2159.52,-151.88 2783.06,-134.89 2988,-109 2999.62,-107.53 3011.93,-105.39 3023.71,-103.04"/>
<polygon fill="midnightblue" stroke="midnightblue" points="1926.07,-153.98 1916.15,-157.72 1926.23,-160.98 1926.07,-153.98"/>
</g>
<!-- Node21 -->
<g id="node21" class="node">
<title>Node21</title>
<g id="a_node21"><a xlink:href="AMDGPURegBankCombiner_8cpp.html" target="_top" xlink:title=" ">
<polygon fill="none" stroke="black" points="3187.5,-73 3187.5,-103 3362.5,-103 3362.5,-73 3187.5,-73"/>
<text text-anchor="start" x="3195.5" y="-91" font-family="Helvetica,sans-Serif" font-size="10.00">lib/Target/AMDGPU/AMDGPUReg</text>
<text text-anchor="middle" x="3275" y="-80" font-family="Helvetica,sans-Serif" font-size="10.00">BankCombiner.cpp</text>
</a>
</g>
</g>
<!-- Node1&#45;&gt;Node21 -->
<g id="edge20" class="edge">
<title>Node1&#45;&gt;Node21</title>
<path fill="none" stroke="midnightblue" d="M1926.18,-158.07C2185.23,-153.61 2934.64,-138.46 3178,-109 3189.95,-107.55 3202.62,-105.4 3214.71,-103.04"/>
<polygon fill="midnightblue" stroke="midnightblue" points="1926,-154.57 1916.07,-158.24 1926.12,-161.57 1926,-154.57"/>
</g>
<!-- Node22 -->
<g id="node22" class="node">
<title>Node22</title>
<g id="a_node22"><a xlink:href="AMDGPURegisterBankInfo_8cpp.html" target="_top" xlink:title="This file implements the targeting of the RegisterBankInfo class for AMDGPU.">
<polygon fill="none" stroke="black" points="3380.5,-73 3380.5,-103 3577.5,-103 3577.5,-73 3380.5,-73"/>
<text text-anchor="start" x="3388.5" y="-91" font-family="Helvetica,sans-Serif" font-size="10.00">lib/Target/AMDGPU/AMDGPURegister</text>
<text text-anchor="middle" x="3479" y="-80" font-family="Helvetica,sans-Serif" font-size="10.00">BankInfo.cpp</text>
</a>
</g>
</g>
<!-- Node1&#45;&gt;Node22 -->
<g id="edge21" class="edge">
<title>Node1&#45;&gt;Node22</title>
<path fill="none" stroke="midnightblue" d="M1926.53,-158.34C2210.52,-154.39 3089.07,-139.92 3372,-109 3385.24,-107.55 3399.31,-105.39 3412.74,-103.01"/>
<polygon fill="midnightblue" stroke="midnightblue" points="1926.23,-154.85 1916.28,-158.48 1926.32,-161.85 1926.23,-154.85"/>
</g>
<!-- Node23 -->
<g id="node23" class="node">
<title>Node23</title>
<g id="a_node23"><a xlink:href="SIISelLowering_8cpp.html" target="_top" xlink:title="Custom DAG lowering for SI.">
<polygon fill="none" stroke="black" points="3595.5,-73 3595.5,-103 3734.5,-103 3734.5,-73 3595.5,-73"/>
<text text-anchor="start" x="3603.5" y="-91" font-family="Helvetica,sans-Serif" font-size="10.00">lib/Target/AMDGPU/SIISel</text>
<text text-anchor="middle" x="3665" y="-80" font-family="Helvetica,sans-Serif" font-size="10.00">Lowering.cpp</text>
</a>
</g>
</g>
<!-- Node1&#45;&gt;Node23 -->
<g id="edge22" class="edge">
<title>Node1&#45;&gt;Node23</title>
<path fill="none" stroke="midnightblue" d="M1926.48,-159.54C2236.21,-159.27 3261.41,-154.86 3587,-109 3596.83,-107.62 3607.21,-105.46 3617.07,-103.07"/>
<polygon fill="midnightblue" stroke="midnightblue" points="1926.21,-156.04 1916.21,-159.55 1926.21,-163.04 1926.21,-156.04"/>
</g>
<!-- Node24 -->
<g id="node24" class="node">
<title>Node24</title>
<g id="a_node24"><a xlink:href="MipsPreLegalizerCombiner_8cpp.html" target="_top" xlink:title=" ">
<polygon fill="none" stroke="black" points="3753,-73 3753,-103 3927,-103 3927,-73 3753,-73"/>
<text text-anchor="start" x="3761" y="-91" font-family="Helvetica,sans-Serif" font-size="10.00">lib/Target/Mips/MipsPreLegalizer</text>
<text text-anchor="middle" x="3840" y="-80" font-family="Helvetica,sans-Serif" font-size="10.00">Combiner.cpp</text>
</a>
</g>
</g>
<!-- Node1&#45;&gt;Node24 -->
<g id="edge23" class="edge">
<title>Node1&#45;&gt;Node24</title>
<path fill="none" stroke="midnightblue" d="M1926.56,-159.25C2253.95,-158.02 3385.31,-150.77 3744,-109 3756.01,-107.6 3768.74,-105.44 3780.87,-103.05"/>
<polygon fill="midnightblue" stroke="midnightblue" points="1926.17,-155.76 1916.19,-159.29 1926.2,-162.75 1926.17,-155.76"/>
</g>
<!-- Node3 -->
<g id="node3" class="node">
<title>Node3</title>
<g id="a_node3"><a xlink:href="Legalizer_8cpp.html" target="_top" xlink:title=" ">
<polygon fill="none" stroke="black" points="0,-0.5 0,-30.5 128,-30.5 128,-0.5 0,-0.5"/>
<text text-anchor="start" x="8" y="-18.5" font-family="Helvetica,sans-Serif" font-size="10.00">lib/CodeGen/GlobalISel</text>
<text text-anchor="middle" x="64" y="-7.5" font-family="Helvetica,sans-Serif" font-size="10.00">/Legalizer.cpp</text>
</a>
</g>
</g>
<!-- Node2&#45;&gt;Node3 -->
<g id="edge2" class="edge">
<title>Node2&#45;&gt;Node3</title>
<path fill="none" stroke="midnightblue" d="M113.99,-60.55C102.48,-50.41 89.79,-39.23 80.08,-30.67"/>
<polygon fill="midnightblue" stroke="midnightblue" points="111.9,-63.38 121.72,-67.36 116.53,-58.12 111.9,-63.38"/>
</g>
<!-- Node4 -->
<g id="node4" class="node">
<title>Node4</title>
<g id="a_node4"><a xlink:href="MipsRegisterBankInfo_8cpp.html" target="_top" xlink:title="This file implements the targeting of the RegisterBankInfo class for Mips.">
<polygon fill="none" stroke="black" points="146.5,-0.5 146.5,-30.5 301.5,-30.5 301.5,-0.5 146.5,-0.5"/>
<text text-anchor="start" x="154.5" y="-18.5" font-family="Helvetica,sans-Serif" font-size="10.00">lib/Target/Mips/MipsRegister</text>
<text text-anchor="middle" x="224" y="-7.5" font-family="Helvetica,sans-Serif" font-size="10.00">BankInfo.cpp</text>
</a>
</g>
</g>
<!-- Node2&#45;&gt;Node4 -->
<g id="edge3" class="edge">
<title>Node2&#45;&gt;Node4</title>
<path fill="none" stroke="midnightblue" d="M174.01,-60.55C185.52,-50.41 198.21,-39.23 207.92,-30.67"/>
<polygon fill="midnightblue" stroke="midnightblue" points="171.47,-58.12 166.28,-67.36 176.1,-63.38 171.47,-58.12"/>
</g>
</g>
</svg>
