<?xml version="1.0" encoding="UTF-8" standalone="no"?>
<!DOCTYPE svg PUBLIC "-//W3C//DTD SVG 1.1//EN"
 "http://www.w3.org/Graphics/SVG/1.1/DTD/svg11.dtd">
<!-- Generated by graphviz version 2.48.0 (0)
 -->
<!-- Title: lib/Target/PowerPC/MCTargetDesc/PPCInstPrinter.h Pages: 1 -->
<svg width="539pt" height="106pt"
 viewBox="0.00 0.00 538.50 106.00" xmlns="http://www.w3.org/2000/svg" xmlns:xlink="http://www.w3.org/1999/xlink">
<g id="graph0" class="graph" transform="scale(1 1) rotate(0) translate(4 102)">
<title>lib/Target/PowerPC/MCTargetDesc/PPCInstPrinter.h</title>
<!-- Node1 -->
<g id="node1" class="node">
<title>Node1</title>
<g id="a_node1"><a xlink:title=" ">
<polygon fill="#bfbfbf" stroke="black" points="214.5,-67.5 214.5,-97.5 384.5,-97.5 384.5,-67.5 214.5,-67.5"/>
<text text-anchor="start" x="222.5" y="-85.5" font-family="Helvetica,sans-Serif" font-size="10.00">lib/Target/PowerPC</text>
<text text-anchor="middle" x="299.5" y="-74.5" font-family="Helvetica,sans-Serif" font-size="10.00">/MCTargetDesc/PPCInstPrinter.h</text>
</a>
</g>
</g>
<!-- Node2 -->
<g id="node2" class="node">
<title>Node2</title>
<g id="a_node2"><a xlink:href="$PPCInstPrinter_8cpp.html" xlink:title=" ">
<polygon fill="none" stroke="black" points="0,-0.5 0,-30.5 181,-30.5 181,-0.5 0,-0.5"/>
<text text-anchor="start" x="8" y="-18.5" font-family="Helvetica,sans-Serif" font-size="10.00">lib/Target/PowerPC</text>
<text text-anchor="middle" x="90.5" y="-7.5" font-family="Helvetica,sans-Serif" font-size="10.00">/MCTargetDesc/PPCInstPrinter.cpp</text>
</a>
</g>
</g>
<!-- Node1&#45;&gt;Node2 -->
<g id="edge1" class="edge">
<title>Node1&#45;&gt;Node2</title>
<path fill="none" stroke="midnightblue" d="M244.66,-64.44C210.78,-53.91 167.83,-40.55 135.87,-30.61"/>
<polygon fill="midnightblue" stroke="midnightblue" points="243.82,-67.85 254.41,-67.48 245.9,-61.16 243.82,-67.85"/>
</g>
<!-- Node3 -->
<g id="node3" class="node">
<title>Node3</title>
<g id="a_node3"><a xlink:href="$PPCMCTargetDesc_8cpp.html" xlink:title=" ">
<polygon fill="none" stroke="black" points="199,-0.5 199,-30.5 400,-30.5 400,-0.5 199,-0.5"/>
<text text-anchor="start" x="207" y="-18.5" font-family="Helvetica,sans-Serif" font-size="10.00">lib/Target/PowerPC</text>
<text text-anchor="middle" x="299.5" y="-7.5" font-family="Helvetica,sans-Serif" font-size="10.00">/MCTargetDesc/PPCMCTargetDesc.cpp</text>
</a>
</g>
</g>
<!-- Node1&#45;&gt;Node3 -->
<g id="edge2" class="edge">
<title>Node1&#45;&gt;Node3</title>
<path fill="none" stroke="midnightblue" d="M299.5,-57.11C299.5,-48.15 299.5,-38.32 299.5,-30.58"/>
<polygon fill="midnightblue" stroke="midnightblue" points="296,-57.4 299.5,-67.4 303,-57.4 296,-57.4"/>
</g>
<!-- Node4 -->
<g id="node4" class="node">
<title>Node4</title>
<g id="a_node4"><a xlink:href="$PPCAsmPrinter_8cpp.html" xlink:title=" ">
<polygon fill="none" stroke="black" points="418.5,-0.5 418.5,-30.5 530.5,-30.5 530.5,-0.5 418.5,-0.5"/>
<text text-anchor="start" x="426.5" y="-18.5" font-family="Helvetica,sans-Serif" font-size="10.00">lib/Target/PowerPC</text>
<text text-anchor="middle" x="474.5" y="-7.5" font-family="Helvetica,sans-Serif" font-size="10.00">/PPCAsmPrinter.cpp</text>
</a>
</g>
</g>
<!-- Node1&#45;&gt;Node4 -->
<g id="edge3" class="edge">
<title>Node1&#45;&gt;Node4</title>
<path fill="none" stroke="midnightblue" d="M347.1,-63.82C375.23,-53.37 410.36,-40.32 436.6,-30.58"/>
<polygon fill="midnightblue" stroke="midnightblue" points="345.63,-60.63 337.47,-67.4 348.07,-67.2 345.63,-60.63"/>
</g>
</g>
</svg>
