<?xml version="1.0" encoding="UTF-8" standalone="no"?>
<!DOCTYPE svg PUBLIC "-//W3C//DTD SVG 1.1//EN"
 "http://www.w3.org/Graphics/SVG/1.1/DTD/svg11.dtd">
<!-- Generated by graphviz version 2.48.0 (0)
 -->
<!-- Title: include/llvm/Demangle/StringView.h Pages: 1 -->
<svg width="1186pt" height="240pt"
 viewBox="0.00 0.00 1186.00 240.00" xmlns="http://www.w3.org/2000/svg" xmlns:xlink="http://www.w3.org/1999/xlink">
<g id="graph0" class="graph" transform="scale(1 1) rotate(0) translate(4 236)">
<title>include/llvm/Demangle/StringView.h</title>
<!-- Node1 -->
<g id="node1" class="node">
<title>Node1</title>
<g id="a_node1"><a xlink:title=" ">
<polygon fill="#bfbfbf" stroke="black" points="480.5,-201.5 480.5,-231.5 610.5,-231.5 610.5,-201.5 480.5,-201.5"/>
<text text-anchor="start" x="488.5" y="-219.5" font-family="Helvetica,sans-Serif" font-size="10.00">include/llvm/Demangle</text>
<text text-anchor="middle" x="545.5" y="-208.5" font-family="Helvetica,sans-Serif" font-size="10.00">/StringView.h</text>
</a>
</g>
</g>
<!-- Node2 -->
<g id="node2" class="node">
<title>Node2</title>
<g id="a_node2"><a xlink:href="$ItaniumDemangle_8h.html" xlink:title=" ">
<polygon fill="none" stroke="black" points="188.5,-67.5 188.5,-97.5 318.5,-97.5 318.5,-67.5 188.5,-67.5"/>
<text text-anchor="start" x="196.5" y="-85.5" font-family="Helvetica,sans-Serif" font-size="10.00">include/llvm/Demangle</text>
<text text-anchor="middle" x="253.5" y="-74.5" font-family="Helvetica,sans-Serif" font-size="10.00">/ItaniumDemangle.h</text>
</a>
</g>
</g>
<!-- Node1&#45;&gt;Node2 -->
<g id="edge1" class="edge">
<title>Node1&#45;&gt;Node2</title>
<path fill="none" stroke="midnightblue" d="M470.01,-208.17C427.45,-201.52 374.56,-188.91 332.5,-165 302.52,-147.96 276.61,-116.13 263.22,-97.7"/>
<polygon fill="midnightblue" stroke="midnightblue" points="469.63,-211.65 480.04,-209.66 470.66,-204.73 469.63,-211.65"/>
</g>
<!-- Node5 -->
<g id="node5" class="node">
<title>Node5</title>
<g id="a_node5"><a xlink:href="$MicrosoftDemangle_8h.html" xlink:title=" ">
<polygon fill="none" stroke="black" points="374.5,-67.5 374.5,-97.5 504.5,-97.5 504.5,-67.5 374.5,-67.5"/>
<text text-anchor="start" x="382.5" y="-85.5" font-family="Helvetica,sans-Serif" font-size="10.00">include/llvm/Demangle</text>
<text text-anchor="middle" x="439.5" y="-74.5" font-family="Helvetica,sans-Serif" font-size="10.00">/MicrosoftDemangle.h</text>
</a>
</g>
</g>
<!-- Node1&#45;&gt;Node5 -->
<g id="edge4" class="edge">
<title>Node1&#45;&gt;Node5</title>
<path fill="none" stroke="midnightblue" d="M497.74,-196.79C483.22,-188.96 468.48,-178.49 458.5,-165 443.64,-144.91 440.17,-115.03 439.49,-97.58"/>
<polygon fill="midnightblue" stroke="midnightblue" points="496.21,-199.94 506.71,-201.32 499.36,-193.69 496.21,-199.94"/>
</g>
<!-- Node6 -->
<g id="node6" class="node">
<title>Node6</title>
<g id="a_node6"><a xlink:href="$MicrosoftDemangle_8cpp.html" xlink:title=" ">
<polygon fill="none" stroke="black" points="416.5,-6 416.5,-25 616.5,-25 616.5,-6 416.5,-6"/>
<text text-anchor="middle" x="516.5" y="-13" font-family="Helvetica,sans-Serif" font-size="10.00">lib/Demangle/MicrosoftDemangle.cpp</text>
</a>
</g>
</g>
<!-- Node1&#45;&gt;Node6 -->
<g id="edge17" class="edge">
<title>Node1&#45;&gt;Node6</title>
<path fill="none" stroke="midnightblue" d="M489.91,-197.82C446.01,-180.39 388.46,-148.86 365.5,-98 359.83,-85.44 357.45,-78.18 365.5,-67 381.57,-44.68 407.96,-32.08 434.22,-25.02"/>
<polygon fill="midnightblue" stroke="midnightblue" points="488.74,-201.12 499.33,-201.44 491.25,-194.59 488.74,-201.12"/>
</g>
<!-- Node7 -->
<g id="node7" class="node">
<title>Node7</title>
<g id="a_node7"><a xlink:href="$MicrosoftDemangleNodes_8h.html" xlink:title=" ">
<polygon fill="none" stroke="black" points="468,-134.5 468,-164.5 623,-164.5 623,-134.5 468,-134.5"/>
<text text-anchor="start" x="476" y="-152.5" font-family="Helvetica,sans-Serif" font-size="10.00">include/llvm/Demangle</text>
<text text-anchor="middle" x="545.5" y="-141.5" font-family="Helvetica,sans-Serif" font-size="10.00">/MicrosoftDemangleNodes.h</text>
</a>
</g>
</g>
<!-- Node1&#45;&gt;Node7 -->
<g id="edge6" class="edge">
<title>Node1&#45;&gt;Node7</title>
<path fill="none" stroke="midnightblue" d="M545.5,-191.11C545.5,-182.15 545.5,-172.32 545.5,-164.58"/>
<polygon fill="midnightblue" stroke="midnightblue" points="542,-191.4 545.5,-201.4 549,-191.4 542,-191.4"/>
</g>
<!-- Node9 -->
<g id="node9" class="node">
<title>Node9</title>
<g id="a_node9"><a xlink:href="$Utility_8h.html" xlink:title=" ">
<polygon fill="none" stroke="black" points="672.5,-134.5 672.5,-164.5 802.5,-164.5 802.5,-134.5 672.5,-134.5"/>
<text text-anchor="start" x="680.5" y="-152.5" font-family="Helvetica,sans-Serif" font-size="10.00">include/llvm/Demangle</text>
<text text-anchor="middle" x="737.5" y="-141.5" font-family="Helvetica,sans-Serif" font-size="10.00">/Utility.h</text>
</a>
</g>
</g>
<!-- Node1&#45;&gt;Node9 -->
<g id="edge10" class="edge">
<title>Node1&#45;&gt;Node9</title>
<path fill="none" stroke="midnightblue" d="M596.92,-198.09C627.92,-187.6 666.88,-174.41 695.92,-164.58"/>
<polygon fill="midnightblue" stroke="midnightblue" points="595.51,-194.87 587.16,-201.4 597.76,-201.5 595.51,-194.87"/>
</g>
<!-- Node10 -->
<g id="node10" class="node">
<title>Node10</title>
<g id="a_node10"><a xlink:href="$DLangDemangle_8cpp.html" xlink:title="This file defines a demangler for the D programming language as specified in the ABI specification,...">
<polygon fill="none" stroke="black" points="796.5,-73 796.5,-92 982.5,-92 982.5,-73 796.5,-73"/>
<text text-anchor="middle" x="889.5" y="-80" font-family="Helvetica,sans-Serif" font-size="10.00">lib/Demangle/DLangDemangle.cpp</text>
</a>
</g>
</g>
<!-- Node1&#45;&gt;Node10 -->
<g id="edge16" class="edge">
<title>Node1&#45;&gt;Node10</title>
<path fill="none" stroke="midnightblue" d="M620.87,-213.4C676.5,-209.05 752.49,-197.05 811.5,-165 845.06,-146.77 872.75,-109.03 884.04,-92.07"/>
<polygon fill="midnightblue" stroke="midnightblue" points="620.45,-209.93 610.72,-214.13 620.95,-216.91 620.45,-209.93"/>
</g>
<!-- Node11 -->
<g id="node11" class="node">
<title>Node11</title>
<g id="a_node11"><a xlink:href="$RustDemangle_8cpp.html" xlink:title=" ">
<polygon fill="none" stroke="black" points="1001,-73 1001,-92 1178,-92 1178,-73 1001,-73"/>
<text text-anchor="middle" x="1089.5" y="-80" font-family="Helvetica,sans-Serif" font-size="10.00">lib/Demangle/RustDemangle.cpp</text>
</a>
</g>
</g>
<!-- Node1&#45;&gt;Node11 -->
<g id="edge18" class="edge">
<title>Node1&#45;&gt;Node11</title>
<path fill="none" stroke="midnightblue" d="M620.71,-206.15C681.79,-197.76 769.9,-183.87 845.5,-165 929.13,-144.13 1025.35,-108.4 1067.64,-92.09"/>
<polygon fill="midnightblue" stroke="midnightblue" points="620.21,-202.68 610.77,-207.5 621.15,-209.62 620.21,-202.68"/>
</g>
<!-- Node3 -->
<g id="node3" class="node">
<title>Node3</title>
<g id="a_node3"><a xlink:href="$ItaniumDemangle_8cpp.html" xlink:title=" ">
<polygon fill="none" stroke="black" points="173,-6 173,-25 366,-25 366,-6 173,-6"/>
<text text-anchor="middle" x="269.5" y="-13" font-family="Helvetica,sans-Serif" font-size="10.00">lib/Demangle/ItaniumDemangle.cpp</text>
</a>
</g>
</g>
<!-- Node2&#45;&gt;Node3 -->
<g id="edge2" class="edge">
<title>Node2&#45;&gt;Node3</title>
<path fill="none" stroke="midnightblue" d="M259.38,-57.6C262.17,-46.28 265.32,-33.46 267.36,-25.19"/>
<polygon fill="midnightblue" stroke="midnightblue" points="255.96,-56.85 256.97,-67.4 262.76,-58.52 255.96,-56.85"/>
</g>
<!-- Node4 -->
<g id="node4" class="node">
<title>Node4</title>
<g id="a_node4"><a xlink:href="$ItaniumManglingCanonicalizer_8cpp.html" xlink:title=" ">
<polygon fill="none" stroke="black" points="0,-0.5 0,-30.5 155,-30.5 155,-0.5 0,-0.5"/>
<text text-anchor="start" x="8" y="-18.5" font-family="Helvetica,sans-Serif" font-size="10.00">lib/Support/ItaniumMangling</text>
<text text-anchor="middle" x="77.5" y="-7.5" font-family="Helvetica,sans-Serif" font-size="10.00">Canonicalizer.cpp</text>
</a>
</g>
</g>
<!-- Node2&#45;&gt;Node4 -->
<g id="edge3" class="edge">
<title>Node2&#45;&gt;Node4</title>
<path fill="none" stroke="midnightblue" d="M205.62,-63.82C177.33,-53.37 142.01,-40.32 115.61,-30.58"/>
<polygon fill="midnightblue" stroke="midnightblue" points="204.72,-67.21 215.31,-67.4 207.14,-60.65 204.72,-67.21"/>
</g>
<!-- Node5&#45;&gt;Node6 -->
<g id="edge5" class="edge">
<title>Node5&#45;&gt;Node6</title>
<path fill="none" stroke="midnightblue" d="M464.17,-60.67C478.39,-48.67 495.51,-34.22 506.2,-25.19"/>
<polygon fill="midnightblue" stroke="midnightblue" points="461.59,-58.27 456.21,-67.4 466.11,-63.62 461.59,-58.27"/>
</g>
<!-- Node7&#45;&gt;Node5 -->
<g id="edge7" class="edge">
<title>Node7&#45;&gt;Node5</title>
<path fill="none" stroke="midnightblue" d="M513.72,-129.02C497.23,-118.9 477.45,-106.77 462.46,-97.58"/>
<polygon fill="midnightblue" stroke="midnightblue" points="512.15,-132.15 522.5,-134.4 515.8,-126.18 512.15,-132.15"/>
</g>
<!-- Node7&#45;&gt;Node6 -->
<g id="edge8" class="edge">
<title>Node7&#45;&gt;Node6</title>
<path fill="none" stroke="midnightblue" d="M540.19,-124.32C533.61,-94.38 522.74,-44.91 518.39,-25.1"/>
<polygon fill="midnightblue" stroke="midnightblue" points="536.83,-125.36 542.4,-134.37 543.67,-123.86 536.83,-125.36"/>
</g>
<!-- Node8 -->
<g id="node8" class="node">
<title>Node8</title>
<g id="a_node8"><a xlink:href="$MicrosoftDemangleNodes_8cpp.html" xlink:title=" ">
<polygon fill="none" stroke="black" points="560.5,-67.5 560.5,-97.5 740.5,-97.5 740.5,-67.5 560.5,-67.5"/>
<text text-anchor="start" x="568.5" y="-85.5" font-family="Helvetica,sans-Serif" font-size="10.00">lib/Demangle/MicrosoftDemangle</text>
<text text-anchor="middle" x="650.5" y="-74.5" font-family="Helvetica,sans-Serif" font-size="10.00">Nodes.cpp</text>
</a>
</g>
</g>
<!-- Node7&#45;&gt;Node8 -->
<g id="edge9" class="edge">
<title>Node7&#45;&gt;Node8</title>
<path fill="none" stroke="midnightblue" d="M576.98,-129.02C593.32,-118.9 612.91,-106.77 627.76,-97.58"/>
<polygon fill="midnightblue" stroke="midnightblue" points="574.94,-126.16 568.28,-134.4 578.63,-132.11 574.94,-126.16"/>
</g>
<!-- Node9&#45;&gt;Node2 -->
<g id="edge11" class="edge">
<title>Node9&#45;&gt;Node2</title>
<path fill="none" stroke="midnightblue" d="M662.55,-138.22C652.12,-136.8 641.54,-135.36 631.5,-134 521.77,-119.16 394.07,-102.16 318.73,-92.15"/>
<polygon fill="midnightblue" stroke="midnightblue" points="662.1,-141.69 672.48,-139.57 663.04,-134.75 662.1,-141.69"/>
</g>
<!-- Node9&#45;&gt;Node6 -->
<g id="edge13" class="edge">
<title>Node9&#45;&gt;Node6</title>
<path fill="none" stroke="midnightblue" d="M749.51,-125.28C756.86,-107.47 762.61,-83.25 749.5,-67 731.9,-45.17 667.65,-32.3 611.07,-25.02"/>
<polygon fill="midnightblue" stroke="midnightblue" points="746.3,-123.87 745.36,-134.43 752.68,-126.76 746.3,-123.87"/>
</g>
<!-- Node9&#45;&gt;Node8 -->
<g id="edge14" class="edge">
<title>Node9&#45;&gt;Node8</title>
<path fill="none" stroke="midnightblue" d="M710.29,-128.17C696.98,-118.23 681.3,-106.51 669.34,-97.58"/>
<polygon fill="midnightblue" stroke="midnightblue" points="708.52,-131.21 718.62,-134.4 712.71,-125.61 708.52,-131.21"/>
</g>
<!-- Node9&#45;&gt;Node10 -->
<g id="edge12" class="edge">
<title>Node9&#45;&gt;Node10</title>
<path fill="none" stroke="midnightblue" d="M779.69,-130.46C809.06,-117.9 846.88,-101.72 869.61,-92.01"/>
<polygon fill="midnightblue" stroke="midnightblue" points="778.3,-127.25 770.48,-134.4 781.05,-133.68 778.3,-127.25"/>
</g>
<!-- Node9&#45;&gt;Node11 -->
<g id="edge15" class="edge">
<title>Node9&#45;&gt;Node11</title>
<path fill="none" stroke="midnightblue" d="M812.96,-134.57C882.88,-121.65 984.67,-102.86 1043.27,-92.04"/>
<polygon fill="midnightblue" stroke="midnightblue" points="812.08,-131.17 802.88,-136.43 813.35,-138.05 812.08,-131.17"/>
</g>
</g>
</svg>
