<?xml version="1.0" encoding="UTF-8" standalone="no"?>
<!DOCTYPE svg PUBLIC "-//W3C//DTD SVG 1.1//EN"
 "http://www.w3.org/Graphics/SVG/1.1/DTD/svg11.dtd">
<!-- Generated by graphviz version 2.48.0 (0)
 -->
<!-- Title: llvm::ShouldRunExtraVectorPasses Pages: 1 -->
<svg width="310pt" height="263pt"
 viewBox="0.00 0.00 310.00 263.00" xmlns="http://www.w3.org/2000/svg" xmlns:xlink="http://www.w3.org/1999/xlink">
<g id="graph0" class="graph" transform="scale(1 1) rotate(0) translate(4 259)">
<title>llvm::ShouldRunExtraVectorPasses</title>
<!-- Node1 -->
<g id="node1" class="node">
<title>Node1</title>
<g id="a_node1"><a xlink:title="A marker to determine if extra passes after loop vectorization should be run.">
<polygon fill="#bfbfbf" stroke="black" points="94,-0.5 94,-30.5 246,-30.5 246,-0.5 94,-0.5"/>
<text text-anchor="start" x="102" y="-18.5" font-family="Helvetica,sans-Serif" font-size="10.00">llvm::ShouldRunExtraVector</text>
<text text-anchor="middle" x="170" y="-7.5" font-family="Helvetica,sans-Serif" font-size="10.00">Passes</text>
</a>
</g>
</g>
<!-- Node2 -->
<g id="node2" class="node">
<title>Node2</title>
<g id="a_node2"><a xlink:href="$structllvm_1_1AnalysisInfoMixin.html" xlink:title=" ">
<polygon fill="none" stroke="black" points="0,-78.5 0,-108.5 180,-108.5 180,-78.5 0,-78.5"/>
<text text-anchor="start" x="8" y="-96.5" font-family="Helvetica,sans-Serif" font-size="10.00">llvm::AnalysisInfoMixin</text>
<text text-anchor="middle" x="90" y="-85.5" font-family="Helvetica,sans-Serif" font-size="10.00">&lt; ShouldRunExtraVectorPasses &gt;</text>
</a>
</g>
</g>
<!-- Node2&#45;&gt;Node1 -->
<g id="edge1" class="edge">
<title>Node2&#45;&gt;Node1</title>
<path fill="none" stroke="midnightblue" d="M112.6,-71.03C126.18,-58.13 143.08,-42.07 155.02,-30.73"/>
<polygon fill="midnightblue" stroke="midnightblue" points="109.89,-68.78 105.05,-78.2 114.71,-73.85 109.89,-68.78"/>
</g>
<!-- Node3 -->
<g id="node3" class="node">
<title>Node3</title>
<g id="a_node3"><a xlink:href="$structllvm_1_1PassInfoMixin.html" xlink:title="A CRTP mix&#45;in to automatically provide informational APIs needed for passes.">
<polygon fill="none" stroke="black" points="30,-224.5 30,-254.5 142,-254.5 142,-224.5 30,-224.5"/>
<text text-anchor="start" x="38" y="-242.5" font-family="Helvetica,sans-Serif" font-size="10.00">llvm::PassInfoMixin</text>
<text text-anchor="middle" x="86" y="-231.5" font-family="Helvetica,sans-Serif" font-size="10.00">&lt; DerivedT &gt;</text>
</a>
</g>
</g>
<!-- Node3&#45;&gt;Node2 -->
<g id="edge2" class="edge">
<title>Node3&#45;&gt;Node2</title>
<path fill="none" stroke="midnightblue" d="M86.67,-214.32C87.51,-184.14 88.92,-133.49 89.6,-108.84"/>
<polygon fill="midnightblue" stroke="midnightblue" points="83.17,-214.34 86.39,-224.43 90.17,-214.53 83.17,-214.34"/>
</g>
<!-- Node4 -->
<g id="node4" class="node">
<title>Node4</title>
<g id="a_node4"><a xlink:href="$structllvm_1_1AnalysisInfoMixin.html" xlink:title="A CRTP mix&#45;in that provides informational APIs needed for analysis passes.">
<polygon fill="none" stroke="black" points="102.5,-156.5 102.5,-186.5 233.5,-186.5 233.5,-156.5 102.5,-156.5"/>
<text text-anchor="start" x="110.5" y="-174.5" font-family="Helvetica,sans-Serif" font-size="10.00">llvm::AnalysisInfoMixin</text>
<text text-anchor="middle" x="168" y="-163.5" font-family="Helvetica,sans-Serif" font-size="10.00">&lt; DerivedT &gt;</text>
</a>
</g>
</g>
<!-- Node3&#45;&gt;Node4 -->
<g id="edge4" class="edge">
<title>Node3&#45;&gt;Node4</title>
<path fill="none" stroke="midnightblue" d="M111.71,-217.81C124.34,-207.64 139.23,-195.66 150.52,-186.57"/>
<polygon fill="midnightblue" stroke="midnightblue" points="109.39,-215.18 103.79,-224.18 113.78,-220.64 109.39,-215.18"/>
</g>
<!-- Node4&#45;&gt;Node2 -->
<g id="edge3" class="edge">
<title>Node4&#45;&gt;Node2</title>
<path fill="none" stroke="orange" stroke-dasharray="5,2" d="M145.97,-149.03C132.73,-136.13 116.24,-120.07 104.61,-108.73"/>
<polygon fill="orange" stroke="orange" points="143.72,-151.73 153.33,-156.2 148.61,-146.72 143.72,-151.73"/>
<text text-anchor="middle" x="217.5" y="-130" font-family="Helvetica,sans-Serif" font-size="10.00"> &lt; ShouldRunExtraVectorPasses &gt;</text>
</g>
<!-- Node5 -->
<g id="node5" class="node">
<title>Node5</title>
<g id="a_node5"><a xlink:href="$structllvm_1_1AnalysisKey.html" xlink:title="A special type used by analysis passes to provide an address that identifies that particular analysis...">
<polygon fill="none" stroke="black" points="198,-84 198,-103 302,-103 302,-84 198,-84"/>
<text text-anchor="middle" x="250" y="-91" font-family="Helvetica,sans-Serif" font-size="10.00">llvm::AnalysisKey</text>
</a>
</g>
</g>
<!-- Node5&#45;&gt;Node1 -->
<g id="edge5" class="edge">
<title>Node5&#45;&gt;Node1</title>
<path fill="none" stroke="#9a32cd" stroke-dasharray="5,2" d="M233.18,-76.52C218.85,-62.91 198.46,-43.54 184.76,-30.52"/>
<polygon fill="#9a32cd" stroke="#9a32cd" points="231.16,-79.43 240.82,-83.78 235.98,-74.36 231.16,-79.43"/>
<text text-anchor="middle" x="226" y="-52" font-family="Helvetica,sans-Serif" font-size="10.00"> Key</text>
</g>
</g>
</svg>
