<?xml version="1.0" encoding="UTF-8" standalone="no"?>
<!DOCTYPE svg PUBLIC "-//W3C//DTD SVG 1.1//EN"
 "http://www.w3.org/Graphics/SVG/1.1/DTD/svg11.dtd">
<!-- Generated by graphviz version 2.48.0 (0)
 -->
<!-- Title: llvm::object::coff_import_header Pages: 1 -->
<svg width="364pt" height="143pt"
 viewBox="0.00 0.00 364.00 143.00" xmlns="http://www.w3.org/2000/svg" xmlns:xlink="http://www.w3.org/1999/xlink">
<g id="graph0" class="graph" transform="scale(1 1) rotate(0) translate(4 139)">
<title>llvm::object::coff_import_header</title>
<!-- Node1 -->
<g id="node1" class="node">
<title>Node1</title>
<g id="a_node1"><a xlink:title=" ">
<polygon fill="#bfbfbf" stroke="black" points="258,-36 258,-66 356,-66 356,-36 258,-36"/>
<text text-anchor="start" x="266" y="-54" font-family="Helvetica,sans-Serif" font-size="10.00">llvm::object::coff</text>
<text text-anchor="middle" x="307" y="-43" font-family="Helvetica,sans-Serif" font-size="10.00">_import_header</text>
</a>
</g>
</g>
<!-- Node2 -->
<g id="node2" class="node">
<title>Node2</title>
<g id="a_node2"><a xlink:title=" ">
<polygon fill="none" stroke="#bfbfbf" points="0,-60.5 0,-101.5 142,-101.5 142,-60.5 0,-60.5"/>
<text text-anchor="start" x="8" y="-89.5" font-family="Helvetica,sans-Serif" font-size="10.00">packed_endian_specific</text>
<text text-anchor="start" x="8" y="-78.5" font-family="Helvetica,sans-Serif" font-size="10.00">_integral&lt; uint16_t, little,</text>
<text text-anchor="middle" x="71" y="-67.5" font-family="Helvetica,sans-Serif" font-size="10.00"> unaligned &gt;</text>
</a>
</g>
</g>
<!-- Node2&#45;&gt;Node1 -->
<g id="edge1" class="edge">
<title>Node2&#45;&gt;Node1</title>
<path fill="none" stroke="#9a32cd" stroke-dasharray="5,2" d="M152.43,-70.69C187.47,-66.2 227.38,-61.08 257.73,-57.19"/>
<polygon fill="#9a32cd" stroke="#9a32cd" points="151.68,-67.26 142.21,-72 152.57,-74.2 151.68,-67.26"/>
<text text-anchor="middle" x="200" y="-127" font-family="Helvetica,sans-Serif" font-size="10.00"> Machine</text>
<text text-anchor="middle" x="200" y="-116" font-family="Helvetica,sans-Serif" font-size="10.00">OrdinalHint</text>
<text text-anchor="middle" x="200" y="-105" font-family="Helvetica,sans-Serif" font-size="10.00">Sig1</text>
<text text-anchor="middle" x="200" y="-94" font-family="Helvetica,sans-Serif" font-size="10.00">Sig2</text>
<text text-anchor="middle" x="200" y="-83" font-family="Helvetica,sans-Serif" font-size="10.00">TypeInfo</text>
<text text-anchor="middle" x="200" y="-72" font-family="Helvetica,sans-Serif" font-size="10.00">Version</text>
</g>
<!-- Node3 -->
<g id="node3" class="node">
<title>Node3</title>
<g id="a_node3"><a xlink:title=" ">
<polygon fill="none" stroke="#bfbfbf" points="0,-0.5 0,-41.5 142,-41.5 142,-0.5 0,-0.5"/>
<text text-anchor="start" x="8" y="-29.5" font-family="Helvetica,sans-Serif" font-size="10.00">packed_endian_specific</text>
<text text-anchor="start" x="8" y="-18.5" font-family="Helvetica,sans-Serif" font-size="10.00">_integral&lt; uint32_t, little,</text>
<text text-anchor="middle" x="71" y="-7.5" font-family="Helvetica,sans-Serif" font-size="10.00"> unaligned &gt;</text>
</a>
</g>
</g>
<!-- Node3&#45;&gt;Node1 -->
<g id="edge2" class="edge">
<title>Node3&#45;&gt;Node1</title>
<path fill="none" stroke="#9a32cd" stroke-dasharray="5,2" d="M152.36,-23.55C180.25,-25.28 211.63,-28.17 240,-33 245.85,-34 251.94,-35.29 257.94,-36.73"/>
<polygon fill="#9a32cd" stroke="#9a32cd" points="152.44,-20.05 142.25,-22.96 152.03,-27.04 152.44,-20.05"/>
<text text-anchor="middle" x="200" y="-47" font-family="Helvetica,sans-Serif" font-size="10.00"> SizeOfData</text>
<text text-anchor="middle" x="200" y="-36" font-family="Helvetica,sans-Serif" font-size="10.00">TimeDateStamp</text>
</g>
</g>
</svg>
