<?xml version="1.0" encoding="UTF-8" standalone="no"?>
<!DOCTYPE svg PUBLIC "-//W3C//DTD SVG 1.1//EN"
 "http://www.w3.org/Graphics/SVG/1.1/DTD/svg11.dtd">
<!-- Generated by graphviz version 2.48.0 (0)
 -->
<!-- Title: llvm::object::Elf_Rel_Impl&lt; ELFType&lt; TargetEndianness, false &gt;, true &gt; Pages: 1 -->
<svg width="616pt" height="124pt"
 viewBox="0.00 0.00 616.00 124.00" xmlns="http://www.w3.org/2000/svg" xmlns:xlink="http://www.w3.org/1999/xlink">
<g id="graph0" class="graph" transform="scale(1 1) rotate(0) translate(4 120)">
<title>llvm::object::Elf_Rel_Impl&lt; ELFType&lt; TargetEndianness, false &gt;, true &gt;</title>
<!-- Node1 -->
<g id="node1" class="node">
<title>Node1</title>
<g id="a_node1"><a xlink:title=" ">
<polygon fill="#bfbfbf" stroke="black" points="414,-38.5 414,-79.5 608,-79.5 608,-38.5 414,-38.5"/>
<text text-anchor="start" x="422" y="-67.5" font-family="Helvetica,sans-Serif" font-size="10.00">llvm::object::Elf_Rel</text>
<text text-anchor="start" x="422" y="-56.5" font-family="Helvetica,sans-Serif" font-size="10.00">_Impl&lt; ELFType&lt; TargetEndianness,</text>
<text text-anchor="middle" x="511" y="-45.5" font-family="Helvetica,sans-Serif" font-size="10.00"> false &gt;, true &gt;</text>
</a>
</g>
</g>
<!-- Node2 -->
<g id="node2" class="node">
<title>Node2</title>
<g id="a_node2"><a xlink:href="$structllvm_1_1object_1_1Elf__Rel__Impl_3_01ELFType_3_01TargetEndianness_00_01false_01_4_00_01false_01_4.html" xlink:title=" ">
<polygon fill="none" stroke="black" points="135,-38.5 135,-79.5 329,-79.5 329,-38.5 135,-38.5"/>
<text text-anchor="start" x="143" y="-67.5" font-family="Helvetica,sans-Serif" font-size="10.00">llvm::object::Elf_Rel</text>
<text text-anchor="start" x="143" y="-56.5" font-family="Helvetica,sans-Serif" font-size="10.00">_Impl&lt; ELFType&lt; TargetEndianness,</text>
<text text-anchor="middle" x="232" y="-45.5" font-family="Helvetica,sans-Serif" font-size="10.00"> false &gt;, false &gt;</text>
</a>
</g>
</g>
<!-- Node2&#45;&gt;Node1 -->
<g id="edge1" class="edge">
<title>Node2&#45;&gt;Node1</title>
<path fill="none" stroke="midnightblue" d="M339.14,-59C363.63,-59 389.55,-59 413.6,-59"/>
<polygon fill="midnightblue" stroke="midnightblue" points="339.1,-55.5 329.1,-59 339.1,-62.5 339.1,-55.5"/>
</g>
<!-- Node3 -->
<g id="node3" class="node">
<title>Node3</title>
<g id="a_node3"><a xlink:href="$classbool.html" xlink:title=" ">
<polygon fill="none" stroke="black" points="10.5,-96.5 10.5,-115.5 48.5,-115.5 48.5,-96.5 10.5,-96.5"/>
<text text-anchor="middle" x="29.5" y="-103.5" font-family="Helvetica,sans-Serif" font-size="10.00">bool</text>
</a>
</g>
</g>
<!-- Node3&#45;&gt;Node1 -->
<g id="edge5" class="edge">
<title>Node3&#45;&gt;Node1</title>
<path fill="none" stroke="#9a32cd" stroke-dasharray="5,2" d="M59.03,-105.23C75.9,-104.73 97.67,-103.97 117,-103 211.31,-98.25 235.2,-99.84 329,-89 356.69,-85.8 386.59,-81.28 413.97,-76.72"/>
<polygon fill="#9a32cd" stroke="#9a32cd" points="58.63,-101.74 48.73,-105.53 58.83,-108.74 58.63,-101.74"/>
<text text-anchor="middle" x="232" y="-104" font-family="Helvetica,sans-Serif" font-size="10.00"> IsRela</text>
</g>
<!-- Node3&#45;&gt;Node2 -->
<g id="edge2" class="edge">
<title>Node3&#45;&gt;Node2</title>
<path fill="none" stroke="#9a32cd" stroke-dasharray="5,2" d="M58.35,-97.21C64.47,-95.4 70.93,-93.56 77,-92 95.54,-87.23 115.45,-82.6 134.6,-78.4"/>
<polygon fill="#9a32cd" stroke="#9a32cd" points="57.06,-93.95 48.51,-100.2 59.1,-100.64 57.06,-93.95"/>
<text text-anchor="middle" x="97" y="-95" font-family="Helvetica,sans-Serif" font-size="10.00"> IsRela</text>
</g>
<!-- Node4 -->
<g id="node4" class="node">
<title>Node4</title>
<g id="a_node4"><a xlink:title=" ">
<polygon fill="none" stroke="#bfbfbf" points="1,-47.5 1,-66.5 58,-66.5 58,-47.5 1,-47.5"/>
<text text-anchor="middle" x="29.5" y="-54.5" font-family="Helvetica,sans-Serif" font-size="10.00">Elf_Addr</text>
</a>
</g>
</g>
<!-- Node4&#45;&gt;Node2 -->
<g id="edge3" class="edge">
<title>Node4&#45;&gt;Node2</title>
<path fill="none" stroke="#9a32cd" stroke-dasharray="5,2" d="M68.39,-57.38C87.38,-57.57 111.33,-57.81 134.96,-58.04"/>
<polygon fill="#9a32cd" stroke="#9a32cd" points="68.41,-53.88 58.38,-57.28 68.34,-60.88 68.41,-53.88"/>
<text text-anchor="middle" x="97" y="-60" font-family="Helvetica,sans-Serif" font-size="10.00"> r_offset</text>
</g>
<!-- Node5 -->
<g id="node5" class="node">
<title>Node5</title>
<g id="a_node5"><a xlink:title=" ">
<polygon fill="none" stroke="#bfbfbf" points="0,-9.5 0,-28.5 59,-28.5 59,-9.5 0,-9.5"/>
<text text-anchor="middle" x="29.5" y="-16.5" font-family="Helvetica,sans-Serif" font-size="10.00">Elf_Word</text>
</a>
</g>
</g>
<!-- Node5&#45;&gt;Node2 -->
<g id="edge4" class="edge">
<title>Node5&#45;&gt;Node2</title>
<path fill="none" stroke="#9a32cd" stroke-dasharray="5,2" d="M69.17,-26.71C87.99,-30.47 111.55,-35.17 134.81,-39.81"/>
<polygon fill="#9a32cd" stroke="#9a32cd" points="69.72,-23.26 59.23,-24.73 68.35,-30.12 69.72,-23.26"/>
<text text-anchor="middle" x="97" y="-38" font-family="Helvetica,sans-Serif" font-size="10.00"> r_info</text>
</g>
<!-- Node6 -->
<g id="node6" class="node">
<title>Node6</title>
<g id="a_node6"><a xlink:title=" ">
<polygon fill="none" stroke="#bfbfbf" points="199.5,-0.5 199.5,-19.5 264.5,-19.5 264.5,-0.5 199.5,-0.5"/>
<text text-anchor="middle" x="232" y="-7.5" font-family="Helvetica,sans-Serif" font-size="10.00">Elf_Sword</text>
</a>
</g>
</g>
<!-- Node6&#45;&gt;Node1 -->
<g id="edge6" class="edge">
<title>Node6&#45;&gt;Node1</title>
<path fill="none" stroke="#9a32cd" stroke-dasharray="5,2" d="M274.36,-17.32C311.09,-23.81 366.18,-33.56 413.87,-41.99"/>
<polygon fill="#9a32cd" stroke="#9a32cd" points="274.96,-13.87 264.51,-15.57 273.74,-20.76 274.96,-13.87"/>
<text text-anchor="middle" x="371.5" y="-40" font-family="Helvetica,sans-Serif" font-size="10.00"> r_addend</text>
</g>
</g>
</svg>
