<?xml version="1.0" encoding="UTF-8" standalone="no"?>
<!DOCTYPE svg PUBLIC "-//W3C//DTD SVG 1.1//EN"
 "http://www.w3.org/Graphics/SVG/1.1/DTD/svg11.dtd">
<!-- Generated by graphviz version 2.48.0 (0)
 -->
<!-- Title: llvm::FormalArgHandler Pages: 1 -->
<svg width="382pt" height="218pt"
 viewBox="0.00 0.00 381.50 218.00" xmlns="http://www.w3.org/2000/svg" xmlns:xlink="http://www.w3.org/1999/xlink">
<g id="graph0" class="graph" transform="scale(1 1) rotate(0) translate(4 214)">
<title>llvm::FormalArgHandler</title>
<!-- Node1 -->
<g id="node1" class="node">
<title>Node1</title>
<g id="a_node1"><a xlink:title=" ">
<polygon fill="#bfbfbf" stroke="black" points="122.5,-0.5 122.5,-19.5 255.5,-19.5 255.5,-0.5 122.5,-0.5"/>
<text text-anchor="middle" x="189" y="-7.5" font-family="Helvetica,sans-Serif" font-size="10.00">llvm::FormalArgHandler</text>
</a>
</g>
</g>
<!-- Node2 -->
<g id="node2" class="node">
<title>Node2</title>
<g id="a_node2"><a xlink:href="$structllvm_1_1M68kIncomingValueHandler.html" xlink:title=" ">
<polygon fill="none" stroke="black" points="0,-56.5 0,-75.5 182,-75.5 182,-56.5 0,-56.5"/>
<text text-anchor="middle" x="91" y="-63.5" font-family="Helvetica,sans-Serif" font-size="10.00">llvm::M68kIncomingValueHandler</text>
</a>
</g>
</g>
<!-- Node2&#45;&gt;Node1 -->
<g id="edge1" class="edge">
<title>Node2&#45;&gt;Node1</title>
<path fill="none" stroke="midnightblue" d="M115.59,-51.45C133.68,-41.48 157.73,-28.23 173.29,-19.65"/>
<polygon fill="midnightblue" stroke="midnightblue" points="113.81,-48.43 106.75,-56.32 117.19,-54.56 113.81,-48.43"/>
</g>
<!-- Node3 -->
<g id="node3" class="node">
<title>Node3</title>
<g id="a_node3"><a xlink:href="$structllvm_1_1CallLowering_1_1IncomingValueHandler.html" xlink:title="Base class for ValueHandlers used for arguments coming into the current function, or for return value...">
<polygon fill="none" stroke="black" points="122.5,-112.5 122.5,-142.5 255.5,-142.5 255.5,-112.5 122.5,-112.5"/>
<text text-anchor="start" x="130.5" y="-130.5" font-family="Helvetica,sans-Serif" font-size="10.00">llvm::CallLowering</text>
<text text-anchor="middle" x="189" y="-119.5" font-family="Helvetica,sans-Serif" font-size="10.00">::IncomingValueHandler</text>
</a>
</g>
</g>
<!-- Node3&#45;&gt;Node2 -->
<g id="edge2" class="edge">
<title>Node3&#45;&gt;Node2</title>
<path fill="none" stroke="midnightblue" d="M157,-107.07C139.53,-96.46 118.77,-83.86 105.26,-75.66"/>
<polygon fill="midnightblue" stroke="midnightblue" points="155.41,-110.2 165.78,-112.4 159.04,-104.22 155.41,-110.2"/>
</g>
<!-- Node5 -->
<g id="node5" class="node">
<title>Node5</title>
<g id="a_node5"><a xlink:href="$classllvm_1_1PPCIncomingValueHandler.html" xlink:title=" ">
<polygon fill="none" stroke="black" points="200.5,-56.5 200.5,-75.5 373.5,-75.5 373.5,-56.5 200.5,-56.5"/>
<text text-anchor="middle" x="287" y="-63.5" font-family="Helvetica,sans-Serif" font-size="10.00">llvm::PPCIncomingValueHandler</text>
</a>
</g>
</g>
<!-- Node3&#45;&gt;Node5 -->
<g id="edge5" class="edge">
<title>Node3&#45;&gt;Node5</title>
<path fill="none" stroke="midnightblue" d="M221,-107.07C238.47,-96.46 259.23,-83.86 272.74,-75.66"/>
<polygon fill="midnightblue" stroke="midnightblue" points="218.96,-104.22 212.22,-112.4 222.59,-110.2 218.96,-104.22"/>
</g>
<!-- Node4 -->
<g id="node4" class="node">
<title>Node4</title>
<g id="a_node4"><a xlink:href="$structllvm_1_1CallLowering_1_1ValueHandler.html" xlink:title=" ">
<polygon fill="none" stroke="black" points="135.5,-179.5 135.5,-209.5 242.5,-209.5 242.5,-179.5 135.5,-179.5"/>
<text text-anchor="start" x="143.5" y="-197.5" font-family="Helvetica,sans-Serif" font-size="10.00">llvm::CallLowering</text>
<text text-anchor="middle" x="189" y="-186.5" font-family="Helvetica,sans-Serif" font-size="10.00">::ValueHandler</text>
</a>
</g>
</g>
<!-- Node4&#45;&gt;Node3 -->
<g id="edge3" class="edge">
<title>Node4&#45;&gt;Node3</title>
<path fill="none" stroke="midnightblue" d="M189,-169.11C189,-160.15 189,-150.32 189,-142.58"/>
<polygon fill="midnightblue" stroke="midnightblue" points="185.5,-169.4 189,-179.4 192.5,-169.4 185.5,-169.4"/>
</g>
<!-- Node5&#45;&gt;Node1 -->
<g id="edge4" class="edge">
<title>Node5&#45;&gt;Node1</title>
<path fill="none" stroke="midnightblue" d="M262.41,-51.45C244.32,-41.48 220.27,-28.23 204.71,-19.65"/>
<polygon fill="midnightblue" stroke="midnightblue" points="260.81,-54.56 271.25,-56.32 264.19,-48.43 260.81,-54.56"/>
</g>
</g>
</svg>
