<?xml version="1.0" encoding="UTF-8" standalone="no"?>
<!DOCTYPE svg PUBLIC "-//W3C//DTD SVG 1.1//EN"
 "http://www.w3.org/Graphics/SVG/1.1/DTD/svg11.dtd">
<!-- Generated by graphviz version 2.48.0 (0)
 -->
<!-- Title: llvm::BitIntegerState&lt; base_ty, BestState, WorstState &gt; Pages: 1 -->
<svg width="525pt" height="593pt"
 viewBox="0.00 0.00 524.50 593.00" xmlns="http://www.w3.org/2000/svg" xmlns:xlink="http://www.w3.org/1999/xlink">
<g id="graph0" class="graph" transform="scale(1 1) rotate(0) translate(4 589)">
<title>llvm::BitIntegerState&lt; base_ty, BestState, WorstState &gt;</title>
<!-- Node1 -->
<g id="node1" class="node">
<title>Node1</title>
<g id="a_node1"><a xlink:title="Specialization of the integer state for a bit&#45;wise encoding.">
<polygon fill="#bfbfbf" stroke="black" points="78.5,-307.5 78.5,-348.5 200.5,-348.5 200.5,-307.5 78.5,-307.5"/>
<text text-anchor="start" x="86.5" y="-336.5" font-family="Helvetica,sans-Serif" font-size="10.00">llvm::BitIntegerState</text>
<text text-anchor="start" x="86.5" y="-325.5" font-family="Helvetica,sans-Serif" font-size="10.00">&lt; base_ty, BestState,</text>
<text text-anchor="middle" x="139.5" y="-314.5" font-family="Helvetica,sans-Serif" font-size="10.00"> WorstState &gt;</text>
</a>
</g>
</g>
<!-- Node5 -->
<g id="node5" class="node">
<title>Node5</title>
<g id="a_node5"><a xlink:href="$structllvm_1_1StateWrapper.html" xlink:title=" ">
<polygon fill="none" stroke="black" points="59,-228.5 59,-269.5 220,-269.5 220,-228.5 59,-228.5"/>
<text text-anchor="start" x="67" y="-257.5" font-family="Helvetica,sans-Serif" font-size="10.00">llvm::StateWrapper</text>
<text text-anchor="start" x="67" y="-246.5" font-family="Helvetica,sans-Serif" font-size="10.00">&lt; BitIntegerState&lt; uint8</text>
<text text-anchor="middle" x="139.5" y="-235.5" font-family="Helvetica,sans-Serif" font-size="10.00">_t, 3, 0 &gt;, AbstractAttribute &gt;</text>
</a>
</g>
</g>
<!-- Node1&#45;&gt;Node5 -->
<g id="edge5" class="edge">
<title>Node1&#45;&gt;Node5</title>
<path fill="none" stroke="midnightblue" d="M139.5,-296.91C139.5,-287.79 139.5,-278.02 139.5,-269.76"/>
<polygon fill="midnightblue" stroke="midnightblue" points="136,-297.17 139.5,-307.17 143,-297.17 136,-297.17"/>
</g>
<!-- Node2 -->
<g id="node2" class="node">
<title>Node2</title>
<g id="a_node2"><a xlink:href="$structllvm_1_1IntegerStateBase.html" xlink:title=" ">
<polygon fill="none" stroke="black" points="75.5,-386.5 75.5,-427.5 203.5,-427.5 203.5,-386.5 75.5,-386.5"/>
<text text-anchor="start" x="83.5" y="-415.5" font-family="Helvetica,sans-Serif" font-size="10.00">llvm::IntegerStateBase</text>
<text text-anchor="start" x="83.5" y="-404.5" font-family="Helvetica,sans-Serif" font-size="10.00">&lt; uint32_t, ~uint32_t</text>
<text text-anchor="middle" x="139.5" y="-393.5" font-family="Helvetica,sans-Serif" font-size="10.00">(0), 0 &gt;</text>
</a>
</g>
</g>
<!-- Node2&#45;&gt;Node1 -->
<g id="edge1" class="edge">
<title>Node2&#45;&gt;Node1</title>
<path fill="none" stroke="midnightblue" d="M139.5,-375.91C139.5,-366.79 139.5,-357.02 139.5,-348.76"/>
<polygon fill="midnightblue" stroke="midnightblue" points="136,-376.17 139.5,-386.17 143,-376.17 136,-376.17"/>
</g>
<!-- Node3 -->
<g id="node3" class="node">
<title>Node3</title>
<g id="a_node3"><a xlink:href="$structllvm_1_1AbstractState.html" xlink:title="An interface to query the internal state of an abstract attribute.">
<polygon fill="none" stroke="black" points="80.5,-565.5 80.5,-584.5 190.5,-584.5 190.5,-565.5 80.5,-565.5"/>
<text text-anchor="middle" x="135.5" y="-572.5" font-family="Helvetica,sans-Serif" font-size="10.00">llvm::AbstractState</text>
</a>
</g>
</g>
<!-- Node3&#45;&gt;Node2 -->
<g id="edge2" class="edge">
<title>Node3&#45;&gt;Node2</title>
<path fill="none" stroke="midnightblue" d="M135.96,-554.93C136.72,-523.19 138.25,-459.84 139.03,-427.69"/>
<polygon fill="midnightblue" stroke="midnightblue" points="132.46,-554.99 135.72,-565.08 139.46,-555.16 132.46,-554.99"/>
</g>
<!-- Node4 -->
<g id="node4" class="node">
<title>Node4</title>
<g id="a_node4"><a xlink:href="$structllvm_1_1IntegerStateBase.html" xlink:title="Simple state with integers encoding.">
<polygon fill="none" stroke="black" points="151.5,-486.5 151.5,-527.5 279.5,-527.5 279.5,-486.5 151.5,-486.5"/>
<text text-anchor="start" x="159.5" y="-515.5" font-family="Helvetica,sans-Serif" font-size="10.00">llvm::IntegerStateBase</text>
<text text-anchor="start" x="159.5" y="-504.5" font-family="Helvetica,sans-Serif" font-size="10.00">&lt; base_ty, BestState,</text>
<text text-anchor="middle" x="215.5" y="-493.5" font-family="Helvetica,sans-Serif" font-size="10.00"> WorstState &gt;</text>
</a>
</g>
</g>
<!-- Node3&#45;&gt;Node4 -->
<g id="edge4" class="edge">
<title>Node3&#45;&gt;Node4</title>
<path fill="none" stroke="midnightblue" d="M153.8,-558.9C165.01,-549.66 179.47,-537.72 191.58,-527.74"/>
<polygon fill="midnightblue" stroke="midnightblue" points="151.45,-556.31 145.96,-565.37 155.9,-561.71 151.45,-556.31"/>
</g>
<!-- Node4&#45;&gt;Node2 -->
<g id="edge3" class="edge">
<title>Node4&#45;&gt;Node2</title>
<path fill="none" stroke="orange" stroke-dasharray="5,2" d="M193.91,-478.16C181.45,-462.09 166.08,-442.27 154.86,-427.8"/>
<polygon fill="orange" stroke="orange" points="191.23,-480.41 200.12,-486.17 196.76,-476.12 191.23,-480.41"/>
<text text-anchor="start" x="183.5" y="-460" font-family="Helvetica,sans-Serif" font-size="10.00"> &lt; uint32_t, ~uint32</text>
<text text-anchor="middle" x="233.5" y="-449" font-family="Helvetica,sans-Serif" font-size="10.00">_t(0), 0 &gt;</text>
</g>
<!-- Node6 -->
<g id="node6" class="node">
<title>Node6</title>
<g id="a_node6"><a xlink:href="$structllvm_1_1AAIsDead.html" xlink:title="An abstract interface for liveness abstract attribute.">
<polygon fill="none" stroke="black" points="93.5,-171.5 93.5,-190.5 185.5,-190.5 185.5,-171.5 93.5,-171.5"/>
<text text-anchor="middle" x="139.5" y="-178.5" font-family="Helvetica,sans-Serif" font-size="10.00">llvm::AAIsDead</text>
</a>
</g>
</g>
<!-- Node5&#45;&gt;Node6 -->
<g id="edge6" class="edge">
<title>Node5&#45;&gt;Node6</title>
<path fill="none" stroke="midnightblue" d="M139.5,-218.12C139.5,-208.17 139.5,-197.84 139.5,-190.79"/>
<polygon fill="midnightblue" stroke="midnightblue" points="136,-218.2 139.5,-228.2 143,-218.2 136,-218.2"/>
</g>
<!-- Node7 -->
<g id="node7" class="node">
<title>Node7</title>
<g id="a_node7"><a xlink:href="$structAAIsDeadFunction.html" xlink:title=" ">
<polygon fill="none" stroke="black" points="24,-114.5 24,-133.5 129,-133.5 129,-114.5 24,-114.5"/>
<text text-anchor="middle" x="76.5" y="-121.5" font-family="Helvetica,sans-Serif" font-size="10.00">AAIsDeadFunction</text>
</a>
</g>
</g>
<!-- Node6&#45;&gt;Node7 -->
<g id="edge7" class="edge">
<title>Node6&#45;&gt;Node7</title>
<path fill="none" stroke="midnightblue" d="M121.98,-164.71C110.54,-154.72 96,-142.02 86.48,-133.71"/>
<polygon fill="midnightblue" stroke="midnightblue" points="119.82,-167.47 129.66,-171.41 124.42,-162.19 119.82,-167.47"/>
</g>
<!-- Node9 -->
<g id="node9" class="node">
<title>Node9</title>
<g id="a_node9"><a xlink:href="$structAAIsDeadValueImpl.html" xlink:title="&#45;&#45;&#45;&#45;&#45;&#45;&#45;&#45;&#45;&#45;&#45;&#45;&#45;&#45;&#45;&#45;—AAIsDead Function Attribute&#45;&#45;&#45;&#45;&#45;&#45;&#45;&#45;&#45;&#45;&#45;&#45;&#45;&#45;&#45;&#45;&#45;&#45;&#45;&#45;—">
<polygon fill="none" stroke="black" points="197,-114.5 197,-133.5 310,-133.5 310,-114.5 197,-114.5"/>
<text text-anchor="middle" x="253.5" y="-121.5" font-family="Helvetica,sans-Serif" font-size="10.00">AAIsDeadValueImpl</text>
</a>
</g>
</g>
<!-- Node6&#45;&gt;Node9 -->
<g id="edge9" class="edge">
<title>Node6&#45;&gt;Node9</title>
<path fill="none" stroke="midnightblue" d="M166.54,-166.96C187.96,-156.62 217.29,-142.47 235.81,-133.53"/>
<polygon fill="midnightblue" stroke="midnightblue" points="164.8,-163.91 157.31,-171.41 167.84,-170.21 164.8,-163.91"/>
</g>
<!-- Node8 -->
<g id="node8" class="node">
<title>Node8</title>
<g id="a_node8"><a xlink:href="$structAAIsDeadCallSite.html" xlink:title="Liveness information for a call sites.">
<polygon fill="none" stroke="black" points="0,-57.5 0,-76.5 101,-76.5 101,-57.5 0,-57.5"/>
<text text-anchor="middle" x="50.5" y="-64.5" font-family="Helvetica,sans-Serif" font-size="10.00">AAIsDeadCallSite</text>
</a>
</g>
</g>
<!-- Node7&#45;&gt;Node8 -->
<g id="edge8" class="edge">
<title>Node7&#45;&gt;Node8</title>
<path fill="none" stroke="midnightblue" d="M68.15,-105.33C63.63,-95.77 58.24,-84.38 54.62,-76.71"/>
<polygon fill="midnightblue" stroke="midnightblue" points="65,-106.86 72.44,-114.41 71.33,-103.87 65,-106.86"/>
</g>
<!-- Node10 -->
<g id="node10" class="node">
<title>Node10</title>
<g id="a_node10"><a xlink:href="$structAAIsDeadCallSiteArgument.html" xlink:title=" ">
<polygon fill="none" stroke="black" points="119,-57.5 119,-76.5 268,-76.5 268,-57.5 119,-57.5"/>
<text text-anchor="middle" x="193.5" y="-64.5" font-family="Helvetica,sans-Serif" font-size="10.00">AAIsDeadCallSiteArgument</text>
</a>
</g>
</g>
<!-- Node9&#45;&gt;Node10 -->
<g id="edge10" class="edge">
<title>Node9&#45;&gt;Node10</title>
<path fill="none" stroke="midnightblue" d="M236.5,-107.42C225.65,-97.47 211.98,-84.94 203.01,-76.71"/>
<polygon fill="midnightblue" stroke="midnightblue" points="234.39,-110.23 244.12,-114.41 239.12,-105.07 234.39,-110.23"/>
</g>
<!-- Node11 -->
<g id="node11" class="node">
<title>Node11</title>
<g id="a_node11"><a xlink:href="$structAAIsDeadFloating.html" xlink:title=" ">
<polygon fill="none" stroke="black" points="286.5,-57.5 286.5,-76.5 390.5,-76.5 390.5,-57.5 286.5,-57.5"/>
<text text-anchor="middle" x="338.5" y="-64.5" font-family="Helvetica,sans-Serif" font-size="10.00">AAIsDeadFloating</text>
</a>
</g>
</g>
<!-- Node9&#45;&gt;Node11 -->
<g id="edge11" class="edge">
<title>Node9&#45;&gt;Node11</title>
<path fill="none" stroke="midnightblue" d="M275.41,-108.82C291.2,-98.61 312,-85.15 325.31,-76.53"/>
<polygon fill="midnightblue" stroke="midnightblue" points="273.28,-106.04 266.78,-114.41 277.08,-111.91 273.28,-106.04"/>
</g>
<!-- Node14 -->
<g id="node14" class="node">
<title>Node14</title>
<g id="a_node14"><a xlink:href="$structAAIsDeadReturned.html" xlink:title=" ">
<polygon fill="none" stroke="black" points="408.5,-57.5 408.5,-76.5 516.5,-76.5 516.5,-57.5 408.5,-57.5"/>
<text text-anchor="middle" x="462.5" y="-64.5" font-family="Helvetica,sans-Serif" font-size="10.00">AAIsDeadReturned</text>
</a>
</g>
</g>
<!-- Node9&#45;&gt;Node14 -->
<g id="edge14" class="edge">
<title>Node9&#45;&gt;Node14</title>
<path fill="none" stroke="midnightblue" d="M296.07,-111.8C335.74,-101.36 394.05,-86.01 430.07,-76.53"/>
<polygon fill="midnightblue" stroke="midnightblue" points="294.94,-108.48 286.16,-114.41 296.72,-115.25 294.94,-108.48"/>
</g>
<!-- Node12 -->
<g id="node12" class="node">
<title>Node12</title>
<g id="a_node12"><a xlink:href="$structAAIsDeadArgument.html" xlink:title=" ">
<polygon fill="none" stroke="black" points="208.5,-0.5 208.5,-19.5 320.5,-19.5 320.5,-0.5 208.5,-0.5"/>
<text text-anchor="middle" x="264.5" y="-7.5" font-family="Helvetica,sans-Serif" font-size="10.00">AAIsDeadArgument</text>
</a>
</g>
</g>
<!-- Node11&#45;&gt;Node12 -->
<g id="edge12" class="edge">
<title>Node11&#45;&gt;Node12</title>
<path fill="none" stroke="midnightblue" d="M318.7,-51.29C305.15,-41.21 287.62,-28.19 276.23,-19.71"/>
<polygon fill="midnightblue" stroke="midnightblue" points="316.82,-54.25 326.94,-57.41 321,-48.63 316.82,-54.25"/>
</g>
<!-- Node13 -->
<g id="node13" class="node">
<title>Node13</title>
<g id="a_node13"><a xlink:href="$structAAIsDeadCallSiteReturned.html" xlink:title=" ">
<polygon fill="none" stroke="black" points="338.5,-0.5 338.5,-19.5 484.5,-19.5 484.5,-0.5 338.5,-0.5"/>
<text text-anchor="middle" x="411.5" y="-7.5" font-family="Helvetica,sans-Serif" font-size="10.00">AAIsDeadCallSiteReturned</text>
</a>
</g>
</g>
<!-- Node11&#45;&gt;Node13 -->
<g id="edge13" class="edge">
<title>Node11&#45;&gt;Node13</title>
<path fill="none" stroke="midnightblue" d="M358.03,-51.29C371.4,-41.21 388.69,-28.19 399.93,-19.71"/>
<polygon fill="midnightblue" stroke="midnightblue" points="355.79,-48.59 349.91,-57.41 360,-54.18 355.79,-48.59"/>
</g>
</g>
</svg>
