<?xml version="1.0" encoding="UTF-8" standalone="no"?>
<!DOCTYPE svg PUBLIC "-//W3C//DTD SVG 1.1//EN"
 "http://www.w3.org/Graphics/SVG/1.1/DTD/svg11.dtd">
<!-- Generated by graphviz version 2.48.0 (0)
 -->
<!-- Title: llvm::object::XCOFFFileAuxEnt Pages: 1 -->
<svg width="654pt" height="239pt"
 viewBox="0.00 0.00 654.00 239.00" xmlns="http://www.w3.org/2000/svg" xmlns:xlink="http://www.w3.org/1999/xlink">
<g id="graph0" class="graph" transform="scale(1 1) rotate(0) translate(4 235)">
<title>llvm::object::XCOFFFileAuxEnt</title>
<!-- Node1 -->
<g id="node1" class="node">
<title>Node1</title>
<g id="a_node1"><a xlink:title=" ">
<polygon fill="#bfbfbf" stroke="black" points="482,-98.5 482,-117.5 646,-117.5 646,-98.5 482,-98.5"/>
<text text-anchor="middle" x="564" y="-105.5" font-family="Helvetica,sans-Serif" font-size="10.00">llvm::object::XCOFFFileAuxEnt</text>
</a>
</g>
</g>
<!-- Node2 -->
<g id="node2" class="node">
<title>Node2</title>
<g id="a_node2"><a xlink:title=" ">
<polygon fill="none" stroke="#bfbfbf" points="247,-211.5 247,-230.5 342,-230.5 342,-211.5 247,-211.5"/>
<text text-anchor="middle" x="294.5" y="-218.5" font-family="Helvetica,sans-Serif" font-size="10.00">SymbolAuxType</text>
</a>
</g>
</g>
<!-- Node2&#45;&gt;Node1 -->
<g id="edge1" class="edge">
<title>Node2&#45;&gt;Node1</title>
<path fill="none" stroke="#9a32cd" stroke-dasharray="5,2" d="M352.42,-220.62C386.23,-218.47 429.15,-212.28 464,-196 504.42,-177.12 540.43,-136.32 555.5,-117.66"/>
<polygon fill="#9a32cd" stroke="#9a32cd" points="352.04,-217.13 342.24,-221.16 352.42,-224.12 352.04,-217.13"/>
<text text-anchor="middle" x="425.5" y="-219" font-family="Helvetica,sans-Serif" font-size="10.00"> AuxType</text>
</g>
<!-- Node3 -->
<g id="node3" class="node">
<title>Node3</title>
<g id="a_node3"><a xlink:title=" ">
<polygon fill="none" stroke="#bfbfbf" points="48,-167.5 48,-186.5 86,-186.5 86,-167.5 48,-167.5"/>
<text text-anchor="middle" x="67" y="-174.5" font-family="Helvetica,sans-Serif" font-size="10.00">char</text>
</a>
</g>
</g>
<!-- Node3&#45;&gt;Node1 -->
<g id="edge2" class="edge">
<title>Node3&#45;&gt;Node1</title>
<path fill="none" stroke="#9a32cd" stroke-dasharray="5,2" d="M96.4,-176.75C162.06,-175.61 329.04,-169.47 464,-137 487.51,-131.34 513.75,-123.59 533.31,-117.52"/>
<polygon fill="#9a32cd" stroke="#9a32cd" points="96,-173.26 86.05,-176.9 96.1,-180.26 96,-173.26"/>
<text text-anchor="middle" x="294.5" y="-174" font-family="Helvetica,sans-Serif" font-size="10.00"> Name</text>
</g>
<!-- Node4 -->
<g id="node4" class="node">
<title>Node4</title>
<g id="a_node4"><a xlink:href="$structllvm_1_1object_1_1XCOFFFileAuxEnt_1_1NameInStrTblType.html" xlink:title=" ">
<polygon fill="none" stroke="black" points="220,-115 220,-145 369,-145 369,-115 220,-115"/>
<text text-anchor="start" x="228" y="-133" font-family="Helvetica,sans-Serif" font-size="10.00">llvm::object::XCOFFFileAux</text>
<text text-anchor="middle" x="294.5" y="-122" font-family="Helvetica,sans-Serif" font-size="10.00">Ent::NameInStrTblType</text>
</a>
</g>
</g>
<!-- Node3&#45;&gt;Node4 -->
<g id="edge4" class="edge">
<title>Node3&#45;&gt;Node4</title>
<path fill="none" stroke="#9a32cd" stroke-dasharray="5,2" d="M96.25,-169.94C112.52,-165.96 133.36,-160.99 152,-157 174.01,-152.28 198.03,-147.55 219.93,-143.38"/>
<polygon fill="#9a32cd" stroke="#9a32cd" points="95.17,-166.6 86.3,-172.39 96.85,-173.4 95.17,-166.6"/>
<text text-anchor="middle" x="177" y="-160" font-family="Helvetica,sans-Serif" font-size="10.00"> NamePad</text>
</g>
<!-- Node4&#45;&gt;Node1 -->
<g id="edge3" class="edge">
<title>Node4&#45;&gt;Node1</title>
<path fill="none" stroke="#9a32cd" stroke-dasharray="5,2" d="M379.3,-123.11C412.04,-120.42 449.45,-117.34 481.92,-114.67"/>
<polygon fill="#9a32cd" stroke="#9a32cd" points="378.98,-119.62 369.3,-123.93 379.56,-126.6 378.98,-119.62"/>
<text text-anchor="middle" x="425.5" y="-125" font-family="Helvetica,sans-Serif" font-size="10.00"> NameInStrTbl</text>
</g>
<!-- Node5 -->
<g id="node5" class="node">
<title>Node5</title>
<g id="a_node5"><a xlink:title=" ">
<polygon fill="none" stroke="#bfbfbf" points="0,-101.5 0,-142.5 134,-142.5 134,-101.5 0,-101.5"/>
<text text-anchor="start" x="8" y="-130.5" font-family="Helvetica,sans-Serif" font-size="10.00">packed_endian_specific</text>
<text text-anchor="start" x="8" y="-119.5" font-family="Helvetica,sans-Serif" font-size="10.00">_integral&lt; uint32_t, big,</text>
<text text-anchor="middle" x="67" y="-108.5" font-family="Helvetica,sans-Serif" font-size="10.00"> unaligned &gt;</text>
</a>
</g>
</g>
<!-- Node5&#45;&gt;Node4 -->
<g id="edge5" class="edge">
<title>Node5&#45;&gt;Node4</title>
<path fill="none" stroke="#9a32cd" stroke-dasharray="5,2" d="M144.18,-121.66C163.08,-121.83 183.28,-122.22 202,-123 207.73,-123.24 213.66,-123.55 219.62,-123.91"/>
<polygon fill="#9a32cd" stroke="#9a32cd" points="144.16,-118.16 134.13,-121.59 144.11,-125.16 144.16,-118.16"/>
<text text-anchor="middle" x="177" y="-126" font-family="Helvetica,sans-Serif" font-size="10.00"> Offset</text>
</g>
<!-- Node6 -->
<g id="node6" class="node">
<title>Node6</title>
<g id="a_node6"><a xlink:title=" ">
<polygon fill="none" stroke="#bfbfbf" points="1.5,-41.5 1.5,-82.5 132.5,-82.5 132.5,-41.5 1.5,-41.5"/>
<text text-anchor="start" x="9.5" y="-70.5" font-family="Helvetica,sans-Serif" font-size="10.00">packed_endian_specific</text>
<text text-anchor="start" x="9.5" y="-59.5" font-family="Helvetica,sans-Serif" font-size="10.00">_integral&lt; int32_t, big,</text>
<text text-anchor="middle" x="67" y="-48.5" font-family="Helvetica,sans-Serif" font-size="10.00"> unaligned &gt;</text>
</a>
</g>
</g>
<!-- Node6&#45;&gt;Node4 -->
<g id="edge6" class="edge">
<title>Node6&#45;&gt;Node4</title>
<path fill="none" stroke="#9a32cd" stroke-dasharray="5,2" d="M142.3,-84.41C175.53,-94.43 213.83,-105.98 243.56,-114.94"/>
<polygon fill="#9a32cd" stroke="#9a32cd" points="143.2,-81.02 132.62,-81.49 141.18,-87.72 143.2,-81.02"/>
<text text-anchor="middle" x="177" y="-105" font-family="Helvetica,sans-Serif" font-size="10.00"> Magic</text>
</g>
<!-- Node7 -->
<g id="node7" class="node">
<title>Node7</title>
<g id="a_node7"><a xlink:title=" ">
<polygon fill="none" stroke="#bfbfbf" points="269.5,-76.5 269.5,-95.5 319.5,-95.5 319.5,-76.5 269.5,-76.5"/>
<text text-anchor="middle" x="294.5" y="-83.5" font-family="Helvetica,sans-Serif" font-size="10.00">uint8_t</text>
</a>
</g>
</g>
<!-- Node7&#45;&gt;Node1 -->
<g id="edge7" class="edge">
<title>Node7&#45;&gt;Node1</title>
<path fill="none" stroke="#9a32cd" stroke-dasharray="5,2" d="M329.78,-88.82C367.92,-91.96 430.88,-97.13 481.78,-101.32"/>
<polygon fill="#9a32cd" stroke="#9a32cd" points="329.96,-85.32 319.71,-87.99 329.39,-92.3 329.96,-85.32"/>
<text text-anchor="middle" x="425.5" y="-102" font-family="Helvetica,sans-Serif" font-size="10.00"> ReservedZeros</text>
</g>
<!-- Node8 -->
<g id="node8" class="node">
<title>Node8</title>
<g id="a_node8"><a xlink:title=" ">
<polygon fill="none" stroke="#bfbfbf" points="242.5,-38.5 242.5,-57.5 346.5,-57.5 346.5,-38.5 242.5,-38.5"/>
<text text-anchor="middle" x="294.5" y="-45.5" font-family="Helvetica,sans-Serif" font-size="10.00">anonymous:@328</text>
</a>
</g>
</g>
<!-- Node8&#45;&gt;Node1 -->
<g id="edge8" class="edge">
<title>Node8&#45;&gt;Node1</title>
<path fill="none" stroke="#9a32cd" stroke-dasharray="5,2" d="M356.8,-57.71C388.89,-63.19 428.75,-70.62 464,-79 487.52,-84.59 513.77,-92.35 533.32,-98.44"/>
<polygon fill="#9a32cd" stroke="#9a32cd" points="357.11,-54.22 346.66,-56 355.94,-61.12 357.11,-54.22"/>
<text text-anchor="middle" x="425.5" y="-82" font-family="Helvetica,sans-Serif" font-size="10.00"> @328</text>
</g>
<!-- Node9 -->
<g id="node9" class="node">
<title>Node9</title>
<g id="a_node9"><a xlink:title=" ">
<polygon fill="none" stroke="#bfbfbf" points="248.5,-0.5 248.5,-19.5 340.5,-19.5 340.5,-0.5 248.5,-0.5"/>
<text text-anchor="middle" x="294.5" y="-7.5" font-family="Helvetica,sans-Serif" font-size="10.00">CFileStringType</text>
</a>
</g>
</g>
<!-- Node9&#45;&gt;Node1 -->
<g id="edge9" class="edge">
<title>Node9&#45;&gt;Node1</title>
<path fill="none" stroke="#9a32cd" stroke-dasharray="5,2" d="M350.72,-18.32C384.27,-24.46 427.52,-34.33 464,-49 496.86,-62.22 531.6,-85.36 549.92,-98.39"/>
<polygon fill="#9a32cd" stroke="#9a32cd" points="351.1,-14.83 340.64,-16.54 349.88,-21.73 351.1,-14.83"/>
<text text-anchor="middle" x="425.5" y="-52" font-family="Helvetica,sans-Serif" font-size="10.00"> Type</text>
</g>
</g>
</svg>
