<?xml version="1.0" encoding="UTF-8" standalone="no"?>
<!DOCTYPE svg PUBLIC "-//W3C//DTD SVG 1.1//EN"
 "http://www.w3.org/Graphics/SVG/1.1/DTD/svg11.dtd">
<!-- Generated by graphviz version 2.48.0 (0)
 -->
<!-- Title: llvm::GraphTraits&lt; MachineGadgetGraph * &gt; Pages: 1 -->
<svg width="246pt" height="207pt"
 viewBox="0.00 0.00 246.00 207.00" xmlns="http://www.w3.org/2000/svg" xmlns:xlink="http://www.w3.org/1999/xlink">
<g id="graph0" class="graph" transform="scale(1 1) rotate(0) translate(4 203)">
<title>llvm::GraphTraits&lt; MachineGadgetGraph * &gt;</title>
<!-- Node1 -->
<g id="node1" class="node">
<title>Node1</title>
<g id="a_node1"><a xlink:title=" ">
<polygon fill="#bfbfbf" stroke="black" points="15.5,-0.5 15.5,-30.5 160.5,-30.5 160.5,-0.5 15.5,-0.5"/>
<text text-anchor="start" x="23.5" y="-18.5" font-family="Helvetica,sans-Serif" font-size="10.00">llvm::GraphTraits&lt;</text>
<text text-anchor="middle" x="88" y="-7.5" font-family="Helvetica,sans-Serif" font-size="10.00"> MachineGadgetGraph * &gt;</text>
</a>
</g>
</g>
<!-- Node2 -->
<g id="node2" class="node">
<title>Node2</title>
<g id="a_node2"><a xlink:href="$structllvm_1_1GraphTraits.html" xlink:title=" ">
<polygon fill="none" stroke="black" points="0,-68.5 0,-109.5 176,-109.5 176,-68.5 0,-68.5"/>
<text text-anchor="start" x="8" y="-97.5" font-family="Helvetica,sans-Serif" font-size="10.00">llvm::GraphTraits&lt;</text>
<text text-anchor="start" x="8" y="-86.5" font-family="Helvetica,sans-Serif" font-size="10.00"> ImmutableGraph&lt; MachineInstr</text>
<text text-anchor="middle" x="88" y="-75.5" font-family="Helvetica,sans-Serif" font-size="10.00"> *, int &gt; * &gt;</text>
</a>
</g>
</g>
<!-- Node2&#45;&gt;Node1 -->
<g id="edge1" class="edge">
<title>Node2&#45;&gt;Node1</title>
<path fill="none" stroke="midnightblue" d="M88,-58.16C88,-48.69 88,-38.65 88,-30.8"/>
<polygon fill="midnightblue" stroke="midnightblue" points="84.5,-58.46 88,-68.46 91.5,-58.46 84.5,-58.46"/>
</g>
<!-- Node3 -->
<g id="node3" class="node">
<title>Node3</title>
<g id="a_node3"><a xlink:href="$structllvm_1_1GraphTraits.html" xlink:title=" ">
<polygon fill="none" stroke="black" points="34,-168.5 34,-198.5 142,-198.5 142,-168.5 34,-168.5"/>
<text text-anchor="start" x="42" y="-186.5" font-family="Helvetica,sans-Serif" font-size="10.00">llvm::GraphTraits&lt;</text>
<text text-anchor="middle" x="88" y="-175.5" font-family="Helvetica,sans-Serif" font-size="10.00"> GraphType &gt;</text>
</a>
</g>
</g>
<!-- Node3&#45;&gt;Node2 -->
<g id="edge2" class="edge">
<title>Node3&#45;&gt;Node2</title>
<path fill="none" stroke="orange" stroke-dasharray="5,2" d="M88,-158.28C88,-143.14 88,-123.88 88,-109.68"/>
<polygon fill="orange" stroke="orange" points="84.5,-158.45 88,-168.45 91.5,-158.45 84.5,-158.45"/>
<text text-anchor="start" x="88" y="-142" font-family="Helvetica,sans-Serif" font-size="10.00"> &lt; ImmutableGraph&lt; Machine</text>
<text text-anchor="middle" x="163" y="-131" font-family="Helvetica,sans-Serif" font-size="10.00">Instr *, int &gt; * &gt;</text>
</g>
</g>
</svg>
