<?xml version="1.0" encoding="UTF-8" standalone="no"?>
<!DOCTYPE svg PUBLIC "-//W3C//DTD SVG 1.1//EN"
 "http://www.w3.org/Graphics/SVG/1.1/DTD/svg11.dtd">
<!-- Generated by graphviz version 2.48.0 (0)
 -->
<!-- Title: llvm::idf_iterator&lt; T, SetTy, External &gt; Pages: 1 -->
<svg width="1759pt" height="93pt"
 viewBox="0.00 0.00 1759.00 93.27" xmlns="http://www.w3.org/2000/svg" xmlns:xlink="http://www.w3.org/1999/xlink">
<g id="graph0" class="graph" transform="scale(1 1) rotate(0) translate(4 89.27)">
<title>llvm::idf_iterator&lt; T, SetTy, External &gt;</title>
<!-- Node1 -->
<g id="node1" class="node">
<title>Node1</title>
<g id="a_node1"><a xlink:title=" ">
<polygon fill="#bfbfbf" stroke="black" points="1139,-36.5 1139,-66.5 1263,-66.5 1263,-36.5 1139,-36.5"/>
<text text-anchor="start" x="1147" y="-54.5" font-family="Helvetica,sans-Serif" font-size="10.00">llvm::idf_iterator</text>
<text text-anchor="middle" x="1201" y="-43.5" font-family="Helvetica,sans-Serif" font-size="10.00">&lt; T, SetTy, External &gt;</text>
</a>
</g>
</g>
<!-- Node6 -->
<g id="node6" class="node">
<title>Node6</title>
<g id="a_node6"><a xlink:href="$structllvm_1_1idf__iterator.html" xlink:title=" ">
<polygon fill="none" stroke="black" points="1439,-25.5 1439,-77.5 1595,-77.5 1595,-25.5 1439,-25.5"/>
<text text-anchor="start" x="1447" y="-65.5" font-family="Helvetica,sans-Serif" font-size="10.00">llvm::idf_iterator</text>
<text text-anchor="start" x="1447" y="-54.5" font-family="Helvetica,sans-Serif" font-size="10.00">&lt; T, df_iterator_default</text>
<text text-anchor="start" x="1447" y="-43.5" font-family="Helvetica,sans-Serif" font-size="10.00">_set&lt; typename GraphTraits</text>
<text text-anchor="middle" x="1517" y="-32.5" font-family="Helvetica,sans-Serif" font-size="10.00">&lt; T &gt;::NodeRef &gt;, true &gt;</text>
</a>
</g>
</g>
<!-- Node1&#45;&gt;Node6 -->
<g id="edge6" class="edge">
<title>Node1&#45;&gt;Node6</title>
<path fill="none" stroke="orange" stroke-dasharray="5,2" d="M1273.55,-51.5C1322.82,-51.5 1388.25,-51.5 1438.72,-51.5"/>
<polygon fill="orange" stroke="orange" points="1273.29,-48 1263.29,-51.5 1273.29,-55 1273.29,-48"/>
<text text-anchor="start" x="1281" y="-76.5" font-family="Helvetica,sans-Serif" font-size="10.00"> &lt; T, df_iterator_default</text>
<text text-anchor="start" x="1281" y="-65.5" font-family="Helvetica,sans-Serif" font-size="10.00">_set&lt; typename GraphTraits</text>
<text text-anchor="middle" x="1351" y="-54.5" font-family="Helvetica,sans-Serif" font-size="10.00">&lt; T &gt;::NodeRef &gt;, true &gt;</text>
</g>
<!-- Node2 -->
<g id="node2" class="node">
<title>Node2</title>
<g id="a_node2"><a xlink:href="$classllvm_1_1df__iterator.html" xlink:title=" ">
<polygon fill="none" stroke="black" points="906,-25.5 906,-77.5 1102,-77.5 1102,-25.5 906,-25.5"/>
<text text-anchor="start" x="914" y="-65.5" font-family="Helvetica,sans-Serif" font-size="10.00">llvm::df_iterator&lt;</text>
<text text-anchor="start" x="914" y="-54.5" font-family="Helvetica,sans-Serif" font-size="10.00"> Inverse&lt; T &gt;, df_iterator</text>
<text text-anchor="start" x="914" y="-43.5" font-family="Helvetica,sans-Serif" font-size="10.00">_default_set&lt; typename GraphTraits</text>
<text text-anchor="middle" x="1004" y="-32.5" font-family="Helvetica,sans-Serif" font-size="10.00">&lt; T &gt;::NodeRef &gt;, false &gt;</text>
</a>
</g>
</g>
<!-- Node2&#45;&gt;Node1 -->
<g id="edge1" class="edge">
<title>Node2&#45;&gt;Node1</title>
<path fill="none" stroke="midnightblue" d="M1112.45,-51.5C1121.49,-51.5 1130.41,-51.5 1138.9,-51.5"/>
<polygon fill="midnightblue" stroke="midnightblue" points="1112.21,-48 1102.21,-51.5 1112.21,-55 1112.21,-48"/>
</g>
<!-- Node3 -->
<g id="node3" class="node">
<title>Node3</title>
<g id="a_node3"><a xlink:href="$classllvm_1_1df__iterator__storage.html" xlink:title=" ">
<polygon fill="none" stroke="black" points="0,-39.5 0,-69.5 137,-69.5 137,-39.5 0,-39.5"/>
<text text-anchor="start" x="8" y="-57.5" font-family="Helvetica,sans-Serif" font-size="10.00">llvm::df_iterator_storage</text>
<text text-anchor="middle" x="68.5" y="-46.5" font-family="Helvetica,sans-Serif" font-size="10.00">&lt; SetType, External &gt;</text>
</a>
</g>
</g>
<!-- Node3&#45;&gt;Node2 -->
<g id="edge2" class="edge">
<title>Node3&#45;&gt;Node2</title>
<path fill="none" stroke="midnightblue" d="M147.24,-66.83C149.85,-67.08 152.45,-67.31 155,-67.5 479.85,-92.06 563,-90 888,-67.5 893.83,-67.1 899.82,-66.58 905.85,-65.98"/>
<polygon fill="midnightblue" stroke="midnightblue" points="147.38,-63.33 137.07,-65.74 146.63,-70.29 147.38,-63.33"/>
</g>
<!-- Node5 -->
<g id="node5" class="node">
<title>Node5</title>
<g id="a_node5"><a xlink:href="$classllvm_1_1df__iterator__storage.html" xlink:title=" ">
<polygon fill="none" stroke="black" points="332,-0.5 332,-52.5 514,-52.5 514,-0.5 332,-0.5"/>
<text text-anchor="start" x="340" y="-40.5" font-family="Helvetica,sans-Serif" font-size="10.00">llvm::df_iterator_storage</text>
<text text-anchor="start" x="340" y="-29.5" font-family="Helvetica,sans-Serif" font-size="10.00">&lt; df_iterator_default_set</text>
<text text-anchor="start" x="340" y="-18.5" font-family="Helvetica,sans-Serif" font-size="10.00">&lt; typename GraphTraits&lt; GraphT</text>
<text text-anchor="middle" x="423" y="-7.5" font-family="Helvetica,sans-Serif" font-size="10.00"> &gt;::NodeRef &gt;, false &gt;</text>
</a>
</g>
</g>
<!-- Node3&#45;&gt;Node5 -->
<g id="edge5" class="edge">
<title>Node3&#45;&gt;Node5</title>
<path fill="none" stroke="orange" stroke-dasharray="5,2" d="M136.91,-37.42C143,-36.27 149.09,-35.27 155,-34.5 213.52,-26.86 279.83,-24.84 331.73,-24.74"/>
<polygon fill="orange" stroke="orange" points="135.82,-34.07 126.7,-39.46 137.19,-40.93 135.82,-34.07"/>
<text text-anchor="start" x="155" y="-59.5" font-family="Helvetica,sans-Serif" font-size="10.00"> &lt; df_iterator_default</text>
<text text-anchor="start" x="155" y="-48.5" font-family="Helvetica,sans-Serif" font-size="10.00">_set&lt; typename GraphTraits</text>
<text text-anchor="middle" x="234.5" y="-37.5" font-family="Helvetica,sans-Serif" font-size="10.00">&lt; GraphT &gt;::NodeRef &gt;, false &gt;</text>
</g>
<!-- Node4 -->
<g id="node4" class="node">
<title>Node4</title>
<g id="a_node4"><a xlink:href="$classllvm_1_1df__iterator.html" xlink:title=" ">
<polygon fill="none" stroke="black" points="551,-8.5 551,-38.5 740,-38.5 740,-8.5 551,-8.5"/>
<text text-anchor="start" x="559" y="-26.5" font-family="Helvetica,sans-Serif" font-size="10.00">llvm::df_iterator&lt;</text>
<text text-anchor="middle" x="645.5" y="-15.5" font-family="Helvetica,sans-Serif" font-size="10.00"> GraphT, SetType, ExtStorage, GT &gt;</text>
</a>
</g>
</g>
<!-- Node4&#45;&gt;Node2 -->
<g id="edge3" class="edge">
<title>Node4&#45;&gt;Node2</title>
<path fill="none" stroke="orange" stroke-dasharray="5,2" d="M750.42,-18.09C793.17,-17.26 843.1,-18.11 888,-23.5 893.81,-24.2 899.76,-25.09 905.73,-26.12"/>
<polygon fill="orange" stroke="orange" points="750.2,-14.59 740.28,-18.32 750.35,-21.59 750.2,-14.59"/>
<text text-anchor="start" x="758" y="-59.5" font-family="Helvetica,sans-Serif" font-size="10.00"> &lt; Inverse&lt; T &gt;, df</text>
<text text-anchor="start" x="758" y="-48.5" font-family="Helvetica,sans-Serif" font-size="10.00">_iterator_default_set</text>
<text text-anchor="start" x="758" y="-37.5" font-family="Helvetica,sans-Serif" font-size="10.00">&lt; typename GraphTraits</text>
<text text-anchor="middle" x="823" y="-26.5" font-family="Helvetica,sans-Serif" font-size="10.00">&lt; T &gt;::NodeRef &gt;, false &gt;</text>
</g>
<!-- Node5&#45;&gt;Node4 -->
<g id="edge4" class="edge">
<title>Node5&#45;&gt;Node4</title>
<path fill="none" stroke="midnightblue" d="M524.03,-25.14C532.96,-25.02 541.97,-24.89 550.84,-24.77"/>
<polygon fill="midnightblue" stroke="midnightblue" points="523.96,-21.64 514,-25.28 524.05,-28.64 523.96,-21.64"/>
</g>
<!-- Node7 -->
<g id="node7" class="node">
<title>Node7</title>
<g id="a_node7"><a xlink:href="$structllvm_1_1idf__ext__iterator.html" xlink:title=" ">
<polygon fill="none" stroke="black" points="1632,-36.5 1632,-66.5 1751,-66.5 1751,-36.5 1632,-36.5"/>
<text text-anchor="start" x="1640" y="-54.5" font-family="Helvetica,sans-Serif" font-size="10.00">llvm::idf_ext_iterator</text>
<text text-anchor="middle" x="1691.5" y="-43.5" font-family="Helvetica,sans-Serif" font-size="10.00">&lt; T, SetTy &gt;</text>
</a>
</g>
</g>
<!-- Node6&#45;&gt;Node7 -->
<g id="edge7" class="edge">
<title>Node6&#45;&gt;Node7</title>
<path fill="none" stroke="midnightblue" d="M1605.28,-51.5C1614.26,-51.5 1623.22,-51.5 1631.77,-51.5"/>
<polygon fill="midnightblue" stroke="midnightblue" points="1605.17,-48 1595.17,-51.5 1605.17,-55 1605.17,-48"/>
</g>
</g>
</svg>
