<?xml version="1.0" encoding="UTF-8" standalone="no"?>
<!DOCTYPE svg PUBLIC "-//W3C//DTD SVG 1.1//EN"
 "http://www.w3.org/Graphics/SVG/1.1/DTD/svg11.dtd">
<!-- Generated by graphviz version 2.48.0 (0)
 -->
<!-- Title: TransferTracker::Transfer Pages: 1 -->
<svg width="2319pt" height="233pt"
 viewBox="0.00 0.00 2319.00 232.50" xmlns="http://www.w3.org/2000/svg" xmlns:xlink="http://www.w3.org/1999/xlink">
<g id="graph0" class="graph" transform="scale(1 1) rotate(0) translate(4 228.5)">
<title>TransferTracker::Transfer</title>
<!-- Node1 -->
<g id="node1" class="node">
<title>Node1</title>
<g id="a_node1"><a xlink:title="Record of all changes in variable locations at a block position.">
<polygon fill="#bfbfbf" stroke="black" points="2176,-104.5 2176,-123.5 2311,-123.5 2311,-104.5 2176,-104.5"/>
<text text-anchor="middle" x="2243.5" y="-111.5" font-family="Helvetica,sans-Serif" font-size="10.00">TransferTracker::Transfer</text>
</a>
</g>
</g>
<!-- Node2 -->
<g id="node2" class="node">
<title>Node2</title>
<g id="a_node2"><a xlink:href="$classllvm_1_1SmallVector.html" xlink:title=" ">
<polygon fill="none" stroke="black" points="1986.5,-144 1986.5,-174 2100.5,-174 2100.5,-144 1986.5,-144"/>
<text text-anchor="start" x="1994.5" y="-162" font-family="Helvetica,sans-Serif" font-size="10.00">llvm::SmallVector&lt;</text>
<text text-anchor="middle" x="2043.5" y="-151" font-family="Helvetica,sans-Serif" font-size="10.00"> MachineInstr *, 4 &gt;</text>
</a>
</g>
</g>
<!-- Node2&#45;&gt;Node1 -->
<g id="edge1" class="edge">
<title>Node2&#45;&gt;Node1</title>
<path fill="none" stroke="#9a32cd" stroke-dasharray="5,2" d="M2110.6,-143.98C2140.33,-137.22 2174.52,-129.45 2200.64,-123.51"/>
<polygon fill="#9a32cd" stroke="#9a32cd" points="2109.68,-140.6 2100.71,-146.23 2111.24,-147.42 2109.68,-140.6"/>
<text text-anchor="middle" x="2144.5" y="-142" font-family="Helvetica,sans-Serif" font-size="10.00"> Insts</text>
</g>
<!-- Node3 -->
<g id="node3" class="node">
<title>Node3</title>
<g id="a_node3"><a xlink:href="$classllvm_1_1SmallVectorImpl.html" xlink:title="This class consists of common code factored out of the SmallVector class to reduce code duplication b...">
<polygon fill="none" stroke="black" points="1352.5,-107.5 1352.5,-126.5 1505.5,-126.5 1505.5,-107.5 1352.5,-107.5"/>
<text text-anchor="middle" x="1429" y="-114.5" font-family="Helvetica,sans-Serif" font-size="10.00">llvm::SmallVectorImpl&lt; T &gt;</text>
</a>
</g>
</g>
<!-- Node3&#45;&gt;Node2 -->
<g id="edge2" class="edge">
<title>Node3&#45;&gt;Node2</title>
<path fill="none" stroke="midnightblue" d="M1515.97,-119.61C1596.83,-122.42 1721.25,-127.64 1829,-136 1882.52,-140.15 1943.39,-146.91 1986.4,-152.03"/>
<polygon fill="midnightblue" stroke="midnightblue" points="1515.95,-116.11 1505.83,-119.26 1515.71,-123.1 1515.95,-116.11"/>
</g>
<!-- Node13 -->
<g id="node13" class="node">
<title>Node13</title>
<g id="a_node13"><a xlink:href="$classllvm_1_1SmallVector.html" xlink:title="This is a &#39;vector&#39; (really, a variable&#45;sized array), optimized for the case when the array is small.">
<polygon fill="none" stroke="black" points="1692.5,-145 1692.5,-175 1803.5,-175 1803.5,-145 1692.5,-145"/>
<text text-anchor="start" x="1700.5" y="-163" font-family="Helvetica,sans-Serif" font-size="10.00">llvm::SmallVector&lt;</text>
<text text-anchor="middle" x="1748" y="-152" font-family="Helvetica,sans-Serif" font-size="10.00"> T, N &gt;</text>
</a>
</g>
</g>
<!-- Node3&#45;&gt;Node13 -->
<g id="edge13" class="edge">
<title>Node3&#45;&gt;Node13</title>
<path fill="none" stroke="midnightblue" d="M1510.41,-127.91C1567.34,-135.63 1642.21,-145.79 1692.33,-152.58"/>
<polygon fill="midnightblue" stroke="midnightblue" points="1510.73,-124.42 1500.35,-126.54 1509.79,-131.36 1510.73,-124.42"/>
</g>
<!-- Node4 -->
<g id="node4" class="node">
<title>Node4</title>
<g id="a_node4"><a xlink:href="$classllvm_1_1SmallVectorTemplateBase.html" xlink:title="SmallVectorTemplateBase&lt;TriviallyCopyable = false&gt; &#45; This is where we put method implementations that...">
<polygon fill="none" stroke="black" points="1024,-102 1024,-132 1172,-132 1172,-102 1024,-102"/>
<text text-anchor="start" x="1032" y="-120" font-family="Helvetica,sans-Serif" font-size="10.00">llvm::SmallVectorTemplate</text>
<text text-anchor="middle" x="1098" y="-109" font-family="Helvetica,sans-Serif" font-size="10.00">Base&lt; T, bool &gt;</text>
</a>
</g>
</g>
<!-- Node4&#45;&gt;Node3 -->
<g id="edge3" class="edge">
<title>Node4&#45;&gt;Node3</title>
<path fill="none" stroke="midnightblue" d="M1182.27,-117C1234.59,-117 1301.53,-117 1352.33,-117"/>
<polygon fill="midnightblue" stroke="midnightblue" points="1182.02,-113.5 1172.02,-117 1182.02,-120.5 1182.02,-113.5"/>
</g>
<!-- Node5 -->
<g id="node5" class="node">
<title>Node5</title>
<g id="a_node5"><a xlink:href="$classllvm_1_1SmallVectorTemplateCommon.html" xlink:title="This is the part of SmallVectorTemplateBase which does not depend on whether the type T is a POD.">
<polygon fill="none" stroke="black" points="725,-144 725,-174 873,-174 873,-144 725,-144"/>
<text text-anchor="start" x="733" y="-162" font-family="Helvetica,sans-Serif" font-size="10.00">llvm::SmallVectorTemplate</text>
<text text-anchor="middle" x="799" y="-151" font-family="Helvetica,sans-Serif" font-size="10.00">Common&lt; T, typename &gt;</text>
</a>
</g>
</g>
<!-- Node5&#45;&gt;Node4 -->
<g id="edge4" class="edge">
<title>Node5&#45;&gt;Node4</title>
<path fill="none" stroke="midnightblue" d="M883.81,-147.95C921.22,-142.93 965.84,-136.82 1006,-131 1011.69,-130.17 1017.59,-129.31 1023.51,-128.42"/>
<polygon fill="midnightblue" stroke="midnightblue" points="882.9,-144.54 873.46,-149.33 883.83,-151.48 882.9,-144.54"/>
</g>
<!-- Node6 -->
<g id="node6" class="node">
<title>Node6</title>
<g id="a_node6"><a xlink:href="$classllvm_1_1SmallVectorBase.html" xlink:title=" ">
<polygon fill="none" stroke="black" points="545,-138.5 545,-179.5 674,-179.5 674,-138.5 545,-138.5"/>
<text text-anchor="start" x="553" y="-167.5" font-family="Helvetica,sans-Serif" font-size="10.00">llvm::SmallVectorBase</text>
<text text-anchor="start" x="553" y="-156.5" font-family="Helvetica,sans-Serif" font-size="10.00">&lt; SmallVectorSizeType</text>
<text text-anchor="middle" x="609.5" y="-145.5" font-family="Helvetica,sans-Serif" font-size="10.00">&lt; T &gt; &gt;</text>
</a>
</g>
</g>
<!-- Node6&#45;&gt;Node5 -->
<g id="edge5" class="edge">
<title>Node6&#45;&gt;Node5</title>
<path fill="none" stroke="midnightblue" d="M684.29,-159C697.59,-159 711.46,-159 724.75,-159"/>
<polygon fill="midnightblue" stroke="midnightblue" points="684.24,-155.5 674.24,-159 684.24,-162.5 684.24,-155.5"/>
</g>
<!-- Node7 -->
<g id="node7" class="node">
<title>Node7</title>
<g id="a_node7"><a xlink:href="$classllvm_1_1SmallVectorBase.html" xlink:title="This is all the stuff common to all SmallVectors.">
<polygon fill="none" stroke="black" points="227,-144 227,-174 354,-174 354,-144 227,-144"/>
<text text-anchor="start" x="235" y="-162" font-family="Helvetica,sans-Serif" font-size="10.00">llvm::SmallVectorBase</text>
<text text-anchor="middle" x="290.5" y="-151" font-family="Helvetica,sans-Serif" font-size="10.00">&lt; Size_T &gt;</text>
</a>
</g>
</g>
<!-- Node7&#45;&gt;Node6 -->
<g id="edge6" class="edge">
<title>Node7&#45;&gt;Node6</title>
<path fill="none" stroke="orange" stroke-dasharray="5,2" d="M364.42,-159C418.95,-159 492.78,-159 544.92,-159"/>
<polygon fill="orange" stroke="orange" points="364.13,-155.5 354.13,-159 364.13,-162.5 364.13,-155.5"/>
<text text-anchor="start" x="384.5" y="-173" font-family="Helvetica,sans-Serif" font-size="10.00"> &lt; SmallVectorSizeType</text>
<text text-anchor="middle" x="442.5" y="-162" font-family="Helvetica,sans-Serif" font-size="10.00">&lt; T &gt; &gt;</text>
</g>
<!-- Node8 -->
<g id="node8" class="node">
<title>Node8</title>
<g id="a_node8"><a xlink:title=" ">
<polygon fill="none" stroke="#bfbfbf" points="48.5,-160.5 48.5,-179.5 96.5,-179.5 96.5,-160.5 48.5,-160.5"/>
<text text-anchor="middle" x="72.5" y="-167.5" font-family="Helvetica,sans-Serif" font-size="10.00">Size_T</text>
</a>
</g>
</g>
<!-- Node8&#45;&gt;Node7 -->
<g id="edge7" class="edge">
<title>Node8&#45;&gt;Node7</title>
<path fill="none" stroke="#9a32cd" stroke-dasharray="5,2" d="M106.73,-168.31C138.6,-166.68 187.53,-164.19 226.74,-162.2"/>
<polygon fill="#9a32cd" stroke="#9a32cd" points="106.42,-164.82 96.62,-168.82 106.78,-171.81 106.42,-164.82"/>
<text text-anchor="middle" x="186" y="-179" font-family="Helvetica,sans-Serif" font-size="10.00"> Capacity</text>
<text text-anchor="middle" x="186" y="-168" font-family="Helvetica,sans-Serif" font-size="10.00">Size</text>
</g>
<!-- Node9 -->
<g id="node9" class="node">
<title>Node9</title>
<g id="a_node9"><a xlink:title=" ">
<polygon fill="none" stroke="#bfbfbf" points="49.5,-122.5 49.5,-141.5 95.5,-141.5 95.5,-122.5 49.5,-122.5"/>
<text text-anchor="middle" x="72.5" y="-129.5" font-family="Helvetica,sans-Serif" font-size="10.00">void *</text>
</a>
</g>
</g>
<!-- Node9&#45;&gt;Node7 -->
<g id="edge8" class="edge">
<title>Node9&#45;&gt;Node7</title>
<path fill="none" stroke="#9a32cd" stroke-dasharray="5,2" d="M105.78,-135.64C133.25,-138.78 173.73,-143.51 209,-148 214.74,-148.73 220.7,-149.51 226.67,-150.3"/>
<polygon fill="#9a32cd" stroke="#9a32cd" points="105.91,-132.14 95.58,-134.48 105.12,-139.09 105.91,-132.14"/>
<text text-anchor="middle" x="186" y="-151" font-family="Helvetica,sans-Serif" font-size="10.00"> BeginX</text>
</g>
<!-- Node10 -->
<g id="node10" class="node">
<title>Node10</title>
<g id="a_node10"><a xlink:href="$classbool.html" xlink:title=" ">
<polygon fill="none" stroke="black" points="780,-105.5 780,-124.5 818,-124.5 818,-105.5 780,-105.5"/>
<text text-anchor="middle" x="799" y="-112.5" font-family="Helvetica,sans-Serif" font-size="10.00">bool</text>
</a>
</g>
</g>
<!-- Node10&#45;&gt;Node4 -->
<g id="edge9" class="edge">
<title>Node10&#45;&gt;Node4</title>
<path fill="none" stroke="#9a32cd" stroke-dasharray="5,2" d="M828.22,-115.19C872.72,-115.49 960.65,-116.08 1023.83,-116.51"/>
<polygon fill="#9a32cd" stroke="#9a32cd" points="828.15,-111.69 818.13,-115.12 828.11,-118.69 828.15,-111.69"/>
<text text-anchor="middle" x="948.5" y="-119" font-family="Helvetica,sans-Serif" font-size="10.00"> TakesParamByValue</text>
</g>
<!-- Node11 -->
<g id="node11" class="node">
<title>Node11</title>
<g id="a_node11"><a xlink:href="$structllvm_1_1SmallVectorStorage.html" xlink:title="Storage for the SmallVector elements.">
<polygon fill="none" stroke="black" points="1028,-194 1028,-224 1168,-224 1168,-194 1028,-194"/>
<text text-anchor="start" x="1036" y="-212" font-family="Helvetica,sans-Serif" font-size="10.00">llvm::SmallVectorStorage</text>
<text text-anchor="middle" x="1098" y="-201" font-family="Helvetica,sans-Serif" font-size="10.00">&lt; T, N &gt;</text>
</a>
</g>
</g>
<!-- Node11&#45;&gt;Node2 -->
<g id="edge10" class="edge">
<title>Node11&#45;&gt;Node2</title>
<path fill="none" stroke="#8b1a1a" d="M1178.18,-207.85C1312.25,-205.58 1592.47,-199.43 1829,-185 1885.55,-181.55 1899.82,-181.29 1956,-174 1965.82,-172.73 1976.24,-171.13 1986.3,-169.46"/>
<polygon fill="#8b1a1a" stroke="#8b1a1a" points="1177.94,-204.36 1168,-208.02 1178.06,-211.35 1177.94,-204.36"/>
</g>
<!-- Node14 -->
<g id="node14" class="node">
<title>Node14</title>
<g id="a_node14"><a xlink:href="$structllvm_1_1SmallVectorStorage.html" xlink:title=" ">
<polygon fill="none" stroke="black" points="1339,-145.5 1339,-186.5 1519,-186.5 1519,-145.5 1339,-145.5"/>
<text text-anchor="start" x="1347" y="-174.5" font-family="Helvetica,sans-Serif" font-size="10.00">llvm::SmallVectorStorage</text>
<text text-anchor="start" x="1347" y="-163.5" font-family="Helvetica,sans-Serif" font-size="10.00">&lt; T, CalculateSmallVectorDefault</text>
<text text-anchor="middle" x="1429" y="-152.5" font-family="Helvetica,sans-Serif" font-size="10.00">InlinedElements&lt; T &gt;::value &gt;</text>
</a>
</g>
</g>
<!-- Node11&#45;&gt;Node14 -->
<g id="edge15" class="edge">
<title>Node11&#45;&gt;Node14</title>
<path fill="none" stroke="orange" stroke-dasharray="5,2" d="M1133.9,-189.17C1150.36,-180.9 1170.62,-172.25 1190,-168 1238.43,-157.38 1293.76,-156.28 1338.87,-158.1"/>
<polygon fill="orange" stroke="orange" points="1131.94,-186.24 1124.68,-193.95 1135.17,-192.45 1131.94,-186.24"/>
<text text-anchor="start" x="1190" y="-193" font-family="Helvetica,sans-Serif" font-size="10.00"> &lt; T, CalculateSmallVector</text>
<text text-anchor="start" x="1190" y="-182" font-family="Helvetica,sans-Serif" font-size="10.00">DefaultInlinedElements</text>
<text text-anchor="middle" x="1255.5" y="-171" font-family="Helvetica,sans-Serif" font-size="10.00">&lt; T &gt;::value &gt;</text>
</g>
<!-- Node12 -->
<g id="node12" class="node">
<title>Node12</title>
<g id="a_node12"><a xlink:title=" ">
<polygon fill="none" stroke="#bfbfbf" points="780,-199.5 780,-218.5 818,-218.5 818,-199.5 780,-199.5"/>
<text text-anchor="middle" x="799" y="-206.5" font-family="Helvetica,sans-Serif" font-size="10.00">char</text>
</a>
</g>
</g>
<!-- Node12&#45;&gt;Node11 -->
<g id="edge11" class="edge">
<title>Node12&#45;&gt;Node11</title>
<path fill="none" stroke="#9a32cd" stroke-dasharray="5,2" d="M828.14,-209C873.53,-209 964.24,-209 1027.68,-209"/>
<polygon fill="#9a32cd" stroke="#9a32cd" points="828.13,-205.5 818.13,-209 828.13,-212.5 828.13,-205.5"/>
<text text-anchor="middle" x="948.5" y="-212" font-family="Helvetica,sans-Serif" font-size="10.00"> InlineElts</text>
</g>
<!-- Node13&#45;&gt;Node2 -->
<g id="edge12" class="edge">
<title>Node13&#45;&gt;Node2</title>
<path fill="none" stroke="orange" stroke-dasharray="5,2" d="M1813.57,-159.78C1865.23,-159.6 1936.95,-159.36 1986.28,-159.19"/>
<polygon fill="orange" stroke="orange" points="1813.51,-156.28 1803.52,-159.81 1813.53,-163.28 1813.51,-156.28"/>
<text text-anchor="middle" x="1901.5" y="-162" font-family="Helvetica,sans-Serif" font-size="10.00"> &lt; MachineInstr *, 4 &gt;</text>
</g>
<!-- Node14&#45;&gt;Node13 -->
<g id="edge14" class="edge">
<title>Node14&#45;&gt;Node13</title>
<path fill="none" stroke="#8b1a1a" d="M1529.41,-164.12C1583.2,-163.1 1647.59,-161.88 1692.3,-161.04"/>
<polygon fill="#8b1a1a" stroke="#8b1a1a" points="1529.08,-160.62 1519.15,-164.31 1529.21,-167.62 1529.08,-160.62"/>
</g>
<!-- Node15 -->
<g id="node15" class="node">
<title>Node15</title>
<g id="a_node15"><a xlink:title=" ">
<polygon fill="none" stroke="#bfbfbf" points="2003.5,-104.5 2003.5,-123.5 2083.5,-123.5 2083.5,-104.5 2003.5,-104.5"/>
<text text-anchor="middle" x="2043.5" y="-111.5" font-family="Helvetica,sans-Serif" font-size="10.00">instr_iterator</text>
</a>
</g>
</g>
<!-- Node15&#45;&gt;Node1 -->
<g id="edge16" class="edge">
<title>Node15&#45;&gt;Node1</title>
<path fill="none" stroke="#9a32cd" stroke-dasharray="5,2" d="M2093.86,-114C2118.62,-114 2148.97,-114 2175.77,-114"/>
<polygon fill="#9a32cd" stroke="#9a32cd" points="2093.62,-110.5 2083.62,-114 2093.62,-117.5 2093.62,-110.5"/>
<text text-anchor="middle" x="2144.5" y="-117" font-family="Helvetica,sans-Serif" font-size="10.00"> Pos</text>
</g>
<!-- Node16 -->
<g id="node16" class="node">
<title>Node16</title>
<g id="a_node16"><a xlink:href="$classllvm_1_1MachineBasicBlock.html" xlink:title=" ">
<polygon fill="none" stroke="black" points="1974,-63.5 1974,-82.5 2113,-82.5 2113,-63.5 1974,-63.5"/>
<text text-anchor="middle" x="2043.5" y="-70.5" font-family="Helvetica,sans-Serif" font-size="10.00">llvm::MachineBasicBlock</text>
</a>
</g>
</g>
<!-- Node16&#45;&gt;Node1 -->
<g id="edge17" class="edge">
<title>Node16&#45;&gt;Node1</title>
<path fill="none" stroke="#9a32cd" stroke-dasharray="5,2" d="M2100.43,-84.58C2130.78,-90.87 2167.83,-98.54 2196.48,-104.47"/>
<polygon fill="#9a32cd" stroke="#9a32cd" points="2100.92,-81.11 2090.42,-82.51 2099.51,-87.96 2100.92,-81.11"/>
<text text-anchor="middle" x="2144.5" y="-98" font-family="Helvetica,sans-Serif" font-size="10.00"> MBB</text>
</g>
<!-- Node17 -->
<g id="node17" class="node">
<title>Node17</title>
<g id="a_node17"><a xlink:href="$classllvm_1_1ilist__node__with__parent.html" xlink:title=" ">
<polygon fill="none" stroke="black" points="1667,-46.5 1667,-87.5 1829,-87.5 1829,-46.5 1667,-46.5"/>
<text text-anchor="start" x="1675" y="-75.5" font-family="Helvetica,sans-Serif" font-size="10.00">llvm::ilist_node_with</text>
<text text-anchor="start" x="1675" y="-64.5" font-family="Helvetica,sans-Serif" font-size="10.00">_parent&lt; MachineBasicBlock,</text>
<text text-anchor="middle" x="1748" y="-53.5" font-family="Helvetica,sans-Serif" font-size="10.00"> MachineFunction &gt;</text>
</a>
</g>
</g>
<!-- Node17&#45;&gt;Node16 -->
<g id="edge18" class="edge">
<title>Node17&#45;&gt;Node16</title>
<path fill="none" stroke="midnightblue" d="M1839.46,-68.85C1882.77,-69.73 1933.79,-70.78 1973.85,-71.6"/>
<polygon fill="midnightblue" stroke="midnightblue" points="1839.27,-65.34 1829.2,-68.64 1839.13,-72.34 1839.27,-65.34"/>
</g>
<!-- Node18 -->
<g id="node18" class="node">
<title>Node18</title>
<g id="a_node18"><a xlink:href="$classllvm_1_1ilist__node.html" xlink:title=" ">
<polygon fill="none" stroke="black" points="743,-53 743,-83 855,-83 855,-53 743,-53"/>
<text text-anchor="start" x="751" y="-71" font-family="Helvetica,sans-Serif" font-size="10.00">llvm::ilist_node&lt; T,</text>
<text text-anchor="middle" x="799" y="-60" font-family="Helvetica,sans-Serif" font-size="10.00"> Options &gt;</text>
</a>
</g>
</g>
<!-- Node18&#45;&gt;Node17 -->
<g id="edge19" class="edge">
<title>Node18&#45;&gt;Node17</title>
<path fill="none" stroke="midnightblue" d="M865.21,-67.93C1033.61,-67.75 1482.66,-67.28 1666.66,-67.08"/>
<polygon fill="midnightblue" stroke="midnightblue" points="865,-64.43 855.01,-67.94 865.01,-71.43 865,-64.43"/>
</g>
<!-- Node23 -->
<g id="node23" class="node">
<title>Node23</title>
<g id="a_node23"><a xlink:href="$classllvm_1_1ilist__node.html" xlink:title=" ">
<polygon fill="none" stroke="black" points="1027,-6 1027,-36 1169,-36 1169,-6 1027,-6"/>
<text text-anchor="start" x="1035" y="-24" font-family="Helvetica,sans-Serif" font-size="10.00">llvm::ilist_node&lt; NodeTy,</text>
<text text-anchor="middle" x="1098" y="-13" font-family="Helvetica,sans-Serif" font-size="10.00"> Options... &gt;</text>
</a>
</g>
</g>
<!-- Node18&#45;&gt;Node23 -->
<g id="edge27" class="edge">
<title>Node18&#45;&gt;Node23</title>
<path fill="none" stroke="orange" stroke-dasharray="5,2" d="M864.51,-50.58C873.37,-48.52 882.38,-46.58 891,-45 935.8,-36.77 986.62,-30.81 1026.58,-26.89"/>
<polygon fill="orange" stroke="orange" points="863.51,-47.22 854.6,-52.96 865.14,-54.03 863.51,-47.22"/>
<text text-anchor="middle" x="948.5" y="-48" font-family="Helvetica,sans-Serif" font-size="10.00"> &lt; NodeTy, Options... &gt;</text>
</g>
<!-- Node19 -->
<g id="node19" class="node">
<title>Node19</title>
<g id="a_node19"><a xlink:href="$classllvm_1_1ilist__node__impl.html" xlink:title=" ">
<polygon fill="none" stroke="black" points="531,-42 531,-94 688,-94 688,-42 531,-42"/>
<text text-anchor="start" x="539" y="-82" font-family="Helvetica,sans-Serif" font-size="10.00">llvm::ilist_node_impl</text>
<text text-anchor="start" x="539" y="-71" font-family="Helvetica,sans-Serif" font-size="10.00">&lt; ilist_detail::compute</text>
<text text-anchor="start" x="539" y="-60" font-family="Helvetica,sans-Serif" font-size="10.00">_node_options&lt; T, Options...</text>
<text text-anchor="middle" x="609.5" y="-49" font-family="Helvetica,sans-Serif" font-size="10.00"> &gt;::type &gt;</text>
</a>
</g>
</g>
<!-- Node19&#45;&gt;Node18 -->
<g id="edge20" class="edge">
<title>Node19&#45;&gt;Node18</title>
<path fill="none" stroke="midnightblue" d="M698.5,-68C713.57,-68 728.85,-68 742.75,-68"/>
<polygon fill="midnightblue" stroke="midnightblue" points="698.12,-64.5 688.12,-68 698.12,-71.5 698.12,-64.5"/>
</g>
<!-- Node20 -->
<g id="node20" class="node">
<title>Node20</title>
<g id="a_node20"><a xlink:title=" ">
<polygon fill="none" stroke="#bfbfbf" points="0,-74.5 0,-93.5 145,-93.5 145,-74.5 0,-74.5"/>
<text text-anchor="middle" x="72.5" y="-81.5" font-family="Helvetica,sans-Serif" font-size="10.00">OptionsT::node_base_type</text>
</a>
</g>
</g>
<!-- Node20&#45;&gt;Node19 -->
<g id="edge21" class="edge">
<title>Node20&#45;&gt;Node19</title>
<path fill="none" stroke="#8b1a1a" d="M155.35,-85.1C243.68,-85.76 388.43,-85.36 513,-78 518.82,-77.66 524.84,-77.22 530.89,-76.72"/>
<polygon fill="#8b1a1a" stroke="#8b1a1a" points="155.16,-81.6 145.13,-85.01 155.1,-88.59 155.16,-81.6"/>
</g>
<!-- Node21 -->
<g id="node21" class="node">
<title>Node21</title>
<g id="a_node21"><a xlink:href="$classllvm_1_1ilist__node__impl.html" xlink:title="Implementation for an ilist node.">
<polygon fill="none" stroke="black" points="231,-29 231,-59 350,-59 350,-29 231,-29"/>
<text text-anchor="start" x="239" y="-47" font-family="Helvetica,sans-Serif" font-size="10.00">llvm::ilist_node_impl</text>
<text text-anchor="middle" x="290.5" y="-36" font-family="Helvetica,sans-Serif" font-size="10.00">&lt; OptionsT &gt;</text>
</a>
</g>
</g>
<!-- Node20&#45;&gt;Node21 -->
<g id="edge23" class="edge">
<title>Node20&#45;&gt;Node21</title>
<path fill="none" stroke="#8b1a1a" d="M134.92,-72.63C165.02,-67.05 201.08,-60.37 230.8,-54.87"/>
<polygon fill="#8b1a1a" stroke="#8b1a1a" points="134.16,-69.21 124.96,-74.47 135.43,-76.09 134.16,-69.21"/>
</g>
<!-- Node21&#45;&gt;Node19 -->
<g id="edge22" class="edge">
<title>Node21&#45;&gt;Node19</title>
<path fill="none" stroke="orange" stroke-dasharray="5,2" d="M360.29,-40.23C404.15,-38.83 462.11,-38.84 513,-45 518.84,-45.71 524.84,-46.64 530.85,-47.73"/>
<polygon fill="orange" stroke="orange" points="359.9,-36.74 350.03,-40.59 360.14,-43.73 359.9,-36.74"/>
<text text-anchor="start" x="372" y="-70" font-family="Helvetica,sans-Serif" font-size="10.00"> &lt; ilist_detail::compute</text>
<text text-anchor="start" x="372" y="-59" font-family="Helvetica,sans-Serif" font-size="10.00">_node_options&lt; T, Options...</text>
<text text-anchor="middle" x="442.5" y="-48" font-family="Helvetica,sans-Serif" font-size="10.00"> &gt;::type &gt;</text>
</g>
<!-- Node21&#45;&gt;Node23 -->
<g id="edge26" class="edge">
<title>Node21&#45;&gt;Node23</title>
<path fill="none" stroke="midnightblue" d="M360.61,-36.8C364.46,-36.5 368.28,-36.23 372,-36 442.55,-31.61 460.33,-33.58 531,-32 709.58,-28.02 919.88,-24.15 1026.85,-22.23"/>
<polygon fill="midnightblue" stroke="midnightblue" points="360.05,-33.33 350.37,-37.64 360.63,-40.31 360.05,-33.33"/>
</g>
<!-- Node22 -->
<g id="node22" class="node">
<title>Node22</title>
<g id="a_node22"><a xlink:href="$classllvm_1_1ilist__node__with__parent.html" xlink:title="An ilist node that can access its parent list.">
<polygon fill="none" stroke="black" points="1353.5,-0.5 1353.5,-41.5 1504.5,-41.5 1504.5,-0.5 1353.5,-0.5"/>
<text text-anchor="start" x="1361.5" y="-29.5" font-family="Helvetica,sans-Serif" font-size="10.00">llvm::ilist_node_with</text>
<text text-anchor="start" x="1361.5" y="-18.5" font-family="Helvetica,sans-Serif" font-size="10.00">_parent&lt; NodeTy, ParentTy,</text>
<text text-anchor="middle" x="1429" y="-7.5" font-family="Helvetica,sans-Serif" font-size="10.00"> Options &gt;</text>
</a>
</g>
</g>
<!-- Node22&#45;&gt;Node17 -->
<g id="edge24" class="edge">
<title>Node22&#45;&gt;Node17</title>
<path fill="none" stroke="orange" stroke-dasharray="5,2" d="M1514.81,-20.81C1555.69,-22.04 1605.23,-25.49 1649,-34 1664.07,-36.93 1680,-41.58 1694.54,-46.48"/>
<polygon fill="orange" stroke="orange" points="1514.7,-17.31 1504.61,-20.54 1514.52,-24.3 1514.7,-17.31"/>
<text text-anchor="start" x="1537" y="-48" font-family="Helvetica,sans-Serif" font-size="10.00"> &lt; MachineBasicBlock,</text>
<text text-anchor="middle" x="1593" y="-37" font-family="Helvetica,sans-Serif" font-size="10.00"> MachineFunction &gt;</text>
</g>
<!-- Node23&#45;&gt;Node22 -->
<g id="edge25" class="edge">
<title>Node23&#45;&gt;Node22</title>
<path fill="none" stroke="midnightblue" d="M1179.23,-21C1232.32,-21 1301.45,-21 1353.36,-21"/>
<polygon fill="midnightblue" stroke="midnightblue" points="1179.18,-17.5 1169.18,-21 1179.18,-24.5 1179.18,-17.5"/>
</g>
</g>
</svg>
