<?xml version="1.0" encoding="UTF-8" standalone="no"?>
<!DOCTYPE svg PUBLIC "-//W3C//DTD SVG 1.1//EN"
 "http://www.w3.org/Graphics/SVG/1.1/DTD/svg11.dtd">
<!-- Generated by graphviz version 2.48.0 (0)
 -->
<!-- Title: lib/Target/SystemZ/MCTargetDesc/SystemZMCObjectWriter.cpp Pages: 1 -->
<svg width="4843pt" height="341pt"
 viewBox="0.00 0.00 4843.00 341.00" xmlns="http://www.w3.org/2000/svg" xmlns:xlink="http://www.w3.org/1999/xlink">
<g id="graph0" class="graph" transform="scale(1 1) rotate(0) translate(4 337)">
<title>lib/Target/SystemZ/MCTargetDesc/SystemZMCObjectWriter.cpp</title>
<!-- Node1 -->
<g id="node1" class="node">
<title>Node1</title>
<g id="a_node1"><a xlink:title=" ">
<polygon fill="#bfbfbf" stroke="black" points="987.5,-291.5 987.5,-332.5 1170.5,-332.5 1170.5,-291.5 987.5,-291.5"/>
<text text-anchor="start" x="995.5" y="-320.5" font-family="Helvetica,sans-Serif" font-size="10.00">lib/Target/SystemZ</text>
<text text-anchor="start" x="995.5" y="-309.5" font-family="Helvetica,sans-Serif" font-size="10.00">/MCTargetDesc/SystemZMCObject</text>
<text text-anchor="middle" x="1079" y="-298.5" font-family="Helvetica,sans-Serif" font-size="10.00">Writer.cpp</text>
</a>
</g>
</g>
<!-- Node2 -->
<g id="node2" class="node">
<title>Node2</title>
<g id="a_node2"><a xlink:href="$SystemZMCFixups_8h.html" xlink:title=" ">
<polygon fill="none" stroke="black" points="823.5,-235.5 823.5,-254.5 1012.5,-254.5 1012.5,-235.5 823.5,-235.5"/>
<text text-anchor="middle" x="918" y="-242.5" font-family="Helvetica,sans-Serif" font-size="10.00">MCTargetDesc/SystemZMCFixups.h</text>
</a>
</g>
</g>
<!-- Node1&#45;&gt;Node2 -->
<g id="edge1" class="edge">
<title>Node1&#45;&gt;Node2</title>
<path fill="none" stroke="midnightblue" d="M1030.69,-291.5C1004.11,-280.77 971.92,-267.77 948.76,-258.42"/>
<polygon fill="midnightblue" stroke="midnightblue" points="950.01,-255.15 939.43,-254.65 947.39,-261.64 950.01,-255.15"/>
</g>
<!-- Node3 -->
<g id="node3" class="node">
<title>Node3</title>
<g id="a_node3"><a xlink:href="$MCFixup_8h.html" xlink:title=" ">
<polygon fill="none" stroke="black" points="864.5,-174 864.5,-193 975.5,-193 975.5,-174 864.5,-174"/>
<text text-anchor="middle" x="920" y="-181" font-family="Helvetica,sans-Serif" font-size="10.00">llvm/MC/MCFixup.h</text>
</a>
</g>
</g>
<!-- Node1&#45;&gt;Node3 -->
<g id="edge75" class="edge">
<title>Node1&#45;&gt;Node3</title>
<path fill="none" stroke="midnightblue" d="M1067.97,-291.5C1057.76,-274.81 1041.28,-251.03 1022,-235 1001.93,-218.32 975.42,-205.41 954.45,-196.82"/>
<polygon fill="midnightblue" stroke="midnightblue" points="955.54,-193.48 944.96,-193.06 952.97,-199.99 955.54,-193.48"/>
</g>
<!-- Node9 -->
<g id="node6" class="node">
<title>Node9</title>
<g id="a_node6"><a xlink:href="$llvm_2Support_2ErrorHandling_8h.html" xlink:title=" ">
<polygon fill="none" stroke="black" points="1001,-112.5 1001,-131.5 1159,-131.5 1159,-112.5 1001,-112.5"/>
<text text-anchor="middle" x="1080" y="-119.5" font-family="Helvetica,sans-Serif" font-size="10.00">llvm/Support/ErrorHandling.h</text>
</a>
</g>
</g>
<!-- Node1&#45;&gt;Node9 -->
<g id="edge81" class="edge">
<title>Node1&#45;&gt;Node9</title>
<path fill="none" stroke="midnightblue" d="M1075.59,-291.05C1071.34,-263.37 1065.2,-211.77 1070,-168 1070.97,-159.14 1072.99,-149.47 1074.96,-141.38"/>
<polygon fill="midnightblue" stroke="midnightblue" points="1078.39,-142.09 1077.52,-131.53 1071.62,-140.33 1078.39,-142.09"/>
</g>
<!-- Node15 -->
<g id="node9" class="node">
<title>Node15</title>
<g id="a_node9"><a xlink:title=" ">
<polygon fill="none" stroke="#bfbfbf" points="1077,-0.5 1077,-19.5 1129,-19.5 1129,-0.5 1077,-0.5"/>
<text text-anchor="middle" x="1103" y="-7.5" font-family="Helvetica,sans-Serif" font-size="10.00">cassert</text>
</a>
</g>
</g>
<!-- Node1&#45;&gt;Node15 -->
<g id="edge82" class="edge">
<title>Node1&#45;&gt;Node15</title>
<path fill="none" stroke="midnightblue" d="M987.48,-301.67C921.5,-293.13 839.86,-278.24 815,-255 791.21,-232.76 795,-217.07 795,-184.5 795,-184.5 795,-184.5 795,-121 795,-72.38 838.58,-75.78 883,-56 943.99,-28.84 1021.85,-17.88 1066.7,-13.6"/>
<polygon fill="midnightblue" stroke="midnightblue" points="1067.17,-17.07 1076.82,-12.69 1066.55,-10.1 1067.17,-17.07"/>
</g>
<!-- Node16 -->
<g id="node10" class="node">
<title>Node16</title>
<g id="a_node10"><a xlink:href="$SystemZMCTargetDesc_8h.html" xlink:title=" ">
<polygon fill="none" stroke="black" points="355.5,-168.5 355.5,-198.5 534.5,-198.5 534.5,-168.5 355.5,-168.5"/>
<text text-anchor="start" x="363.5" y="-186.5" font-family="Helvetica,sans-Serif" font-size="10.00">MCTargetDesc/SystemZMCTarget</text>
<text text-anchor="middle" x="445" y="-175.5" font-family="Helvetica,sans-Serif" font-size="10.00">Desc.h</text>
</a>
</g>
</g>
<!-- Node1&#45;&gt;Node16 -->
<g id="edge10" class="edge">
<title>Node1&#45;&gt;Node16</title>
<path fill="none" stroke="midnightblue" d="M987.34,-305.29C897.58,-298.3 757.44,-283.68 639,-255 584.9,-241.9 525.02,-218.74 486.3,-202.55"/>
<polygon fill="midnightblue" stroke="midnightblue" points="487.5,-199.26 476.93,-198.6 484.78,-205.71 487.5,-199.26"/>
</g>
<!-- Node21 -->
<g id="node15" class="node">
<title>Node21</title>
<g id="a_node15"><a xlink:href="$BinaryFormat_2ELF_8h.html" xlink:title=" ">
<polygon fill="none" stroke="black" points="2975.5,-174 2975.5,-193 3110.5,-193 3110.5,-174 2975.5,-174"/>
<text text-anchor="middle" x="3043" y="-181" font-family="Helvetica,sans-Serif" font-size="10.00">llvm/BinaryFormat/ELF.h</text>
</a>
</g>
</g>
<!-- Node1&#45;&gt;Node21 -->
<g id="edge16" class="edge">
<title>Node1&#45;&gt;Node21</title>
<path fill="none" stroke="midnightblue" d="M1170.77,-305.09C1504.96,-283.56 2653.63,-209.58 2964.75,-189.54"/>
<polygon fill="midnightblue" stroke="midnightblue" points="2965.27,-193.01 2975.03,-188.88 2964.82,-186.03 2965.27,-193.01"/>
</g>
<!-- Node25 -->
<g id="node18" class="node">
<title>Node25</title>
<g id="a_node18"><a xlink:title=" ">
<polygon fill="none" stroke="#bfbfbf" points="1688,-0.5 1688,-19.5 1738,-19.5 1738,-0.5 1688,-0.5"/>
<text text-anchor="middle" x="1713" y="-7.5" font-family="Helvetica,sans-Serif" font-size="10.00">cstdint</text>
</a>
</g>
</g>
<!-- Node1&#45;&gt;Node25 -->
<g id="edge83" class="edge">
<title>Node1&#45;&gt;Node25</title>
<path fill="none" stroke="midnightblue" d="M1170.91,-310.37C1746.91,-306.16 4835,-279.16 4835,-184.5 4835,-184.5 4835,-184.5 4835,-121 4835,-39.66 2092.1,-14.16 1748.26,-11.28"/>
<polygon fill="midnightblue" stroke="midnightblue" points="1748.16,-7.78 1738.13,-11.2 1748.1,-14.78 1748.16,-7.78"/>
</g>
<!-- Node57 -->
<g id="node41" class="node">
<title>Node57</title>
<g id="a_node41"><a xlink:href="$MCELFObjectWriter_8h.html" xlink:title=" ">
<polygon fill="none" stroke="black" points="1574.5,-235.5 1574.5,-254.5 1737.5,-254.5 1737.5,-235.5 1574.5,-235.5"/>
<text text-anchor="middle" x="1656" y="-242.5" font-family="Helvetica,sans-Serif" font-size="10.00">llvm/MC/MCELFObjectWriter.h</text>
</a>
</g>
</g>
<!-- Node1&#45;&gt;Node57 -->
<g id="edge47" class="edge">
<title>Node1&#45;&gt;Node57</title>
<path fill="none" stroke="midnightblue" d="M1170.75,-300.66C1280.56,-288.29 1463.01,-267.74 1570.15,-255.67"/>
<polygon fill="midnightblue" stroke="midnightblue" points="1570.73,-259.13 1580.28,-254.53 1569.95,-252.17 1570.73,-259.13"/>
</g>
<!-- Node82 -->
<g id="node43" class="node">
<title>Node82</title>
<g id="a_node43"><a xlink:href="$MCObjectWriter_8h.html" xlink:title=" ">
<polygon fill="none" stroke="black" points="1819,-174 1819,-193 1965,-193 1965,-174 1819,-174"/>
<text text-anchor="middle" x="1892" y="-181" font-family="Helvetica,sans-Serif" font-size="10.00">llvm/MC/MCObjectWriter.h</text>
</a>
</g>
</g>
<!-- Node1&#45;&gt;Node82 -->
<g id="edge76" class="edge">
<title>Node1&#45;&gt;Node82</title>
<path fill="none" stroke="midnightblue" d="M1170.52,-307.49C1327.39,-300.77 1640.95,-284.13 1747,-255 1793.12,-242.33 1842.26,-215.17 1869.85,-198.5"/>
<polygon fill="midnightblue" stroke="midnightblue" points="1871.98,-201.3 1878.67,-193.09 1868.32,-195.34 1871.98,-201.3"/>
</g>
<!-- Node110 -->
<g id="node48" class="node">
<title>Node110</title>
<g id="a_node48"><a xlink:href="$MCExpr_8h.html" xlink:title=" ">
<polygon fill="none" stroke="black" points="1225,-174 1225,-193 1331,-193 1331,-174 1225,-174"/>
<text text-anchor="middle" x="1278" y="-181" font-family="Helvetica,sans-Serif" font-size="10.00">llvm/MC/MCExpr.h</text>
</a>
</g>
</g>
<!-- Node1&#45;&gt;Node110 -->
<g id="edge67" class="edge">
<title>Node1&#45;&gt;Node110</title>
<path fill="none" stroke="midnightblue" d="M1110.09,-291.23C1150.43,-265.59 1219.85,-221.47 1255.47,-198.82"/>
<polygon fill="midnightblue" stroke="midnightblue" points="1257.6,-201.61 1264.16,-193.29 1253.85,-195.71 1257.6,-201.61"/>
</g>
<!-- Node117 -->
<g id="node50" class="node">
<title>Node117</title>
<g id="a_node50"><a xlink:href="$MCValue_8h.html" xlink:title=" ">
<polygon fill="none" stroke="black" points="648,-235.5 648,-254.5 760,-254.5 760,-235.5 648,-235.5"/>
<text text-anchor="middle" x="704" y="-242.5" font-family="Helvetica,sans-Serif" font-size="10.00">llvm/MC/MCValue.h</text>
</a>
</g>
</g>
<!-- Node1&#45;&gt;Node117 -->
<g id="edge77" class="edge">
<title>Node1&#45;&gt;Node117</title>
<path fill="none" stroke="midnightblue" d="M987.26,-295.1C917.47,-283 823.48,-266.71 763.3,-256.28"/>
<polygon fill="midnightblue" stroke="midnightblue" points="763.65,-252.79 753.2,-254.53 762.46,-259.69 763.65,-252.79"/>
</g>
<!-- Node2&#45;&gt;Node3 -->
<g id="edge2" class="edge">
<title>Node2&#45;&gt;Node3</title>
<path fill="none" stroke="midnightblue" d="M918.29,-235.48C918.57,-227.08 919.01,-213.98 919.37,-203.16"/>
<polygon fill="midnightblue" stroke="midnightblue" points="922.88,-203.12 919.71,-193.01 915.88,-202.89 922.88,-203.12"/>
</g>
<!-- Node4 -->
<g id="node4" class="node">
<title>Node4</title>
<g id="a_node4"><a xlink:href="$llvm_2Support_2DataTypes_8h.html" xlink:title=" ">
<polygon fill="none" stroke="black" points="625,-112.5 625,-131.5 767,-131.5 767,-112.5 625,-112.5"/>
<text text-anchor="middle" x="696" y="-119.5" font-family="Helvetica,sans-Serif" font-size="10.00">llvm/Support/DataTypes.h</text>
</a>
</g>
</g>
<!-- Node3&#45;&gt;Node4 -->
<g id="edge3" class="edge">
<title>Node3&#45;&gt;Node4</title>
<path fill="none" stroke="midnightblue" d="M887.91,-173.98C848.4,-163.48 781.22,-145.64 737.74,-134.09"/>
<polygon fill="midnightblue" stroke="midnightblue" points="738.6,-130.69 728.03,-131.51 736.8,-137.46 738.6,-130.69"/>
</g>
<!-- Node3&#45;&gt;Node9 -->
<g id="edge5" class="edge">
<title>Node3&#45;&gt;Node9</title>
<path fill="none" stroke="midnightblue" d="M942.92,-173.98C970.37,-163.77 1016.52,-146.61 1047.6,-135.05"/>
<polygon fill="midnightblue" stroke="midnightblue" points="1048.97,-138.28 1057.12,-131.51 1046.53,-131.71 1048.97,-138.28"/>
</g>
<!-- Node13 -->
<g id="node8" class="node">
<title>Node13</title>
<g id="a_node8"><a xlink:href="$SMLoc_8h.html" xlink:title=" ">
<polygon fill="none" stroke="red" points="861,-112.5 861,-131.5 983,-131.5 983,-112.5 861,-112.5"/>
<text text-anchor="middle" x="922" y="-119.5" font-family="Helvetica,sans-Serif" font-size="10.00">llvm/Support/SMLoc.h</text>
</a>
</g>
</g>
<!-- Node3&#45;&gt;Node13 -->
<g id="edge7" class="edge">
<title>Node3&#45;&gt;Node13</title>
<path fill="none" stroke="midnightblue" d="M920.29,-173.98C920.57,-165.58 921.01,-152.48 921.37,-141.66"/>
<polygon fill="midnightblue" stroke="midnightblue" points="924.88,-141.62 921.71,-131.51 917.88,-141.39 924.88,-141.62"/>
</g>
<!-- Node3&#45;&gt;Node15 -->
<g id="edge9" class="edge">
<title>Node3&#45;&gt;Node15</title>
<path fill="none" stroke="midnightblue" d="M900.19,-173.84C874.55,-161.37 835.06,-137.08 852,-112 900.64,-40 1010.05,-19.32 1067,-13.38"/>
<polygon fill="midnightblue" stroke="midnightblue" points="1067.37,-16.86 1077,-12.44 1066.71,-9.89 1067.37,-16.86"/>
</g>
<!-- Node5 -->
<g id="node5" class="node">
<title>Node5</title>
<g id="a_node5"><a xlink:href="$llvm-c_2DataTypes_8h.html" xlink:title=" ">
<polygon fill="none" stroke="red" points="641,-56.5 641,-75.5 751,-75.5 751,-56.5 641,-56.5"/>
<text text-anchor="middle" x="696" y="-63.5" font-family="Helvetica,sans-Serif" font-size="10.00">llvm&#45;c/DataTypes.h</text>
</a>
</g>
</g>
<!-- Node4&#45;&gt;Node5 -->
<g id="edge4" class="edge">
<title>Node4&#45;&gt;Node5</title>
<path fill="none" stroke="midnightblue" d="M696,-112.08C696,-105.01 696,-94.86 696,-85.99"/>
<polygon fill="midnightblue" stroke="midnightblue" points="699.5,-85.75 696,-75.75 692.5,-85.75 699.5,-85.75"/>
</g>
<!-- Node10 -->
<g id="node7" class="node">
<title>Node10</title>
<g id="a_node7"><a xlink:href="$Compiler_8h.html" xlink:title=" ">
<polygon fill="none" stroke="red" points="1131,-56.5 1131,-75.5 1265,-75.5 1265,-56.5 1131,-56.5"/>
<text text-anchor="middle" x="1198" y="-63.5" font-family="Helvetica,sans-Serif" font-size="10.00">llvm/Support/Compiler.h</text>
</a>
</g>
</g>
<!-- Node9&#45;&gt;Node10 -->
<g id="edge6" class="edge">
<title>Node9&#45;&gt;Node10</title>
<path fill="none" stroke="midnightblue" d="M1098.7,-112.44C1117.94,-103.64 1148.15,-89.81 1170.2,-79.72"/>
<polygon fill="midnightblue" stroke="midnightblue" points="1171.75,-82.86 1179.39,-75.52 1168.84,-76.5 1171.75,-82.86"/>
</g>
<!-- Node13&#45;&gt;Node15 -->
<g id="edge8" class="edge">
<title>Node13&#45;&gt;Node15</title>
<path fill="none" stroke="midnightblue" d="M936.2,-112.37C967.39,-93.41 1042.12,-48 1080.06,-24.94"/>
<polygon fill="midnightblue" stroke="midnightblue" points="1082.14,-27.78 1088.86,-19.59 1078.5,-21.79 1082.14,-27.78"/>
</g>
<!-- Node16&#45;&gt;Node4 -->
<g id="edge11" class="edge">
<title>Node16&#45;&gt;Node4</title>
<path fill="none" stroke="midnightblue" d="M504.17,-168.47C548.79,-157.9 609.12,-143.59 650.13,-133.87"/>
<polygon fill="midnightblue" stroke="midnightblue" points="651.19,-137.22 660.12,-131.51 649.58,-130.41 651.19,-137.22"/>
</g>
<!-- Node17 -->
<g id="node11" class="node">
<title>Node17</title>
<g id="a_node11"><a xlink:title=" ">
<polygon fill="none" stroke="#bfbfbf" points="511,-112.5 511,-131.5 569,-131.5 569,-112.5 511,-112.5"/>
<text text-anchor="middle" x="540" y="-119.5" font-family="Helvetica,sans-Serif" font-size="10.00">memory</text>
</a>
</g>
</g>
<!-- Node16&#45;&gt;Node17 -->
<g id="edge12" class="edge">
<title>Node16&#45;&gt;Node17</title>
<path fill="none" stroke="midnightblue" d="M467.51,-168.4C482.6,-158.95 502.39,-146.56 517.47,-137.11"/>
<polygon fill="midnightblue" stroke="midnightblue" points="519.56,-139.93 526.18,-131.66 515.84,-134 519.56,-139.93"/>
</g>
<!-- Node18 -->
<g id="node12" class="node">
<title>Node18</title>
<g id="a_node12"><a xlink:title=" ">
<polygon fill="none" stroke="#bfbfbf" points="0,-112.5 0,-131.5 156,-131.5 156,-112.5 0,-112.5"/>
<text text-anchor="middle" x="78" y="-119.5" font-family="Helvetica,sans-Serif" font-size="10.00">SystemZGenRegisterInfo.inc</text>
</a>
</g>
</g>
<!-- Node16&#45;&gt;Node18 -->
<g id="edge13" class="edge">
<title>Node16&#45;&gt;Node18</title>
<path fill="none" stroke="midnightblue" d="M358.49,-168.47C291.58,-157.63 200.53,-142.87 140.55,-133.14"/>
<polygon fill="midnightblue" stroke="midnightblue" points="140.9,-129.65 130.47,-131.51 139.78,-136.56 140.9,-129.65"/>
</g>
<!-- Node19 -->
<g id="node13" class="node">
<title>Node19</title>
<g id="a_node13"><a xlink:title=" ">
<polygon fill="none" stroke="#bfbfbf" points="174.5,-112.5 174.5,-131.5 311.5,-131.5 311.5,-112.5 174.5,-112.5"/>
<text text-anchor="middle" x="243" y="-119.5" font-family="Helvetica,sans-Serif" font-size="10.00">SystemZGenInstrInfo.inc</text>
</a>
</g>
</g>
<!-- Node16&#45;&gt;Node19 -->
<g id="edge14" class="edge">
<title>Node16&#45;&gt;Node19</title>
<path fill="none" stroke="midnightblue" d="M397.38,-168.47C362.08,-158.08 314.56,-144.08 281.61,-134.37"/>
<polygon fill="midnightblue" stroke="midnightblue" points="282.46,-130.97 271.88,-131.51 280.48,-137.69 282.46,-130.97"/>
</g>
<!-- Node20 -->
<g id="node14" class="node">
<title>Node20</title>
<g id="a_node14"><a xlink:title=" ">
<polygon fill="none" stroke="#bfbfbf" points="329.5,-112.5 329.5,-131.5 492.5,-131.5 492.5,-112.5 329.5,-112.5"/>
<text text-anchor="middle" x="411" y="-119.5" font-family="Helvetica,sans-Serif" font-size="10.00">SystemZGenSubtargetInfo.inc</text>
</a>
</g>
</g>
<!-- Node16&#45;&gt;Node20 -->
<g id="edge15" class="edge">
<title>Node16&#45;&gt;Node20</title>
<path fill="none" stroke="midnightblue" d="M436.94,-168.4C432.15,-160.02 426.04,-149.33 420.96,-140.42"/>
<polygon fill="midnightblue" stroke="midnightblue" points="423.95,-138.6 415.95,-131.66 417.87,-142.08 423.95,-138.6"/>
</g>
<!-- Node22 -->
<g id="node16" class="node">
<title>Node22</title>
<g id="a_node16"><a xlink:href="$StringRef_8h.html" xlink:title=" ">
<polygon fill="none" stroke="red" points="1473,-112.5 1473,-131.5 1591,-131.5 1591,-112.5 1473,-112.5"/>
<text text-anchor="middle" x="1532" y="-119.5" font-family="Helvetica,sans-Serif" font-size="10.00">llvm/ADT/StringRef.h</text>
</a>
</g>
</g>
<!-- Node21&#45;&gt;Node22 -->
<g id="edge17" class="edge">
<title>Node21&#45;&gt;Node22</title>
<path fill="none" stroke="midnightblue" d="M2975.45,-180.05C2781.82,-173 2208.2,-151.89 1732,-132 1688.49,-130.18 1639.65,-127.99 1601.13,-126.22"/>
<polygon fill="midnightblue" stroke="midnightblue" points="1601.22,-122.72 1591.07,-125.76 1600.9,-129.71 1601.22,-122.72"/>
</g>
<!-- Node21&#45;&gt;Node25 -->
<g id="edge24" class="edge">
<title>Node21&#45;&gt;Node25</title>
<path fill="none" stroke="midnightblue" d="M3038.05,-173.62C3028.79,-157.98 3007.19,-125.85 2979,-112 2865.68,-56.33 1941.7,-19.43 1748.38,-12.27"/>
<polygon fill="midnightblue" stroke="midnightblue" points="1748.33,-8.77 1738.21,-11.9 1748.08,-15.76 1748.33,-8.77"/>
</g>
<!-- Node33 -->
<g id="node19" class="node">
<title>Node33</title>
<g id="a_node19"><a xlink:title=" ">
<polygon fill="none" stroke="#bfbfbf" points="1597,-56.5 1597,-75.5 1647,-75.5 1647,-56.5 1597,-56.5"/>
<text text-anchor="middle" x="1622" y="-63.5" font-family="Helvetica,sans-Serif" font-size="10.00">cstring</text>
</a>
</g>
</g>
<!-- Node21&#45;&gt;Node33 -->
<g id="edge25" class="edge">
<title>Node21&#45;&gt;Node33</title>
<path fill="none" stroke="midnightblue" d="M2975.3,-181.29C2765.95,-177.26 2130.89,-162.75 1927,-132 1892.04,-126.73 1884.47,-119.87 1850,-112 1782.09,-96.49 1702.07,-81.43 1657.17,-73.27"/>
<polygon fill="midnightblue" stroke="midnightblue" points="1657.53,-69.78 1647.07,-71.45 1656.29,-76.67 1657.53,-69.78"/>
</g>
<!-- Node36 -->
<g id="node20" class="node">
<title>Node36</title>
<g id="a_node20"><a xlink:title=" ">
<polygon fill="none" stroke="#bfbfbf" points="3026.5,-112.5 3026.5,-131.5 3149.5,-131.5 3149.5,-112.5 3026.5,-112.5"/>
<text text-anchor="middle" x="3088" y="-119.5" font-family="Helvetica,sans-Serif" font-size="10.00">ELFRelocs/x86_64.def</text>
</a>
</g>
</g>
<!-- Node21&#45;&gt;Node36 -->
<g id="edge26" class="edge">
<title>Node21&#45;&gt;Node36</title>
<path fill="none" stroke="midnightblue" d="M3049.45,-173.98C3056.2,-165.05 3066.97,-150.81 3075.41,-139.64"/>
<polygon fill="midnightblue" stroke="midnightblue" points="3078.32,-141.6 3081.56,-131.51 3072.74,-137.37 3078.32,-141.6"/>
</g>
<!-- Node37 -->
<g id="node21" class="node">
<title>Node37</title>
<g id="a_node21"><a xlink:title=" ">
<polygon fill="none" stroke="#bfbfbf" points="3167.5,-112.5 3167.5,-131.5 3276.5,-131.5 3276.5,-112.5 3167.5,-112.5"/>
<text text-anchor="middle" x="3222" y="-119.5" font-family="Helvetica,sans-Serif" font-size="10.00">ELFRelocs/i386.def</text>
</a>
</g>
</g>
<!-- Node21&#45;&gt;Node37 -->
<g id="edge27" class="edge">
<title>Node21&#45;&gt;Node37</title>
<path fill="none" stroke="midnightblue" d="M3068.65,-173.98C3099.62,-163.68 3151.87,-146.31 3186.65,-134.75"/>
<polygon fill="midnightblue" stroke="midnightblue" points="3188.02,-137.98 3196.4,-131.51 3185.81,-131.34 3188.02,-137.98"/>
</g>
<!-- Node38 -->
<g id="node22" class="node">
<title>Node38</title>
<g id="a_node22"><a xlink:title=" ">
<polygon fill="none" stroke="#bfbfbf" points="3294.5,-112.5 3294.5,-131.5 3425.5,-131.5 3425.5,-112.5 3294.5,-112.5"/>
<text text-anchor="middle" x="3360" y="-119.5" font-family="Helvetica,sans-Serif" font-size="10.00">ELFRelocs/PowerPC.def</text>
</a>
</g>
</g>
<!-- Node21&#45;&gt;Node38 -->
<g id="edge28" class="edge">
<title>Node21&#45;&gt;Node38</title>
<path fill="none" stroke="midnightblue" d="M3088.42,-173.98C3145.5,-163.26 3243.42,-144.88 3304.77,-133.37"/>
<polygon fill="midnightblue" stroke="midnightblue" points="3305.48,-136.79 3314.67,-131.51 3304.19,-129.91 3305.48,-136.79"/>
</g>
<!-- Node39 -->
<g id="node23" class="node">
<title>Node39</title>
<g id="a_node23"><a xlink:title=" ">
<polygon fill="none" stroke="#bfbfbf" points="3443.5,-112.5 3443.5,-131.5 3586.5,-131.5 3586.5,-112.5 3443.5,-112.5"/>
<text text-anchor="middle" x="3515" y="-119.5" font-family="Helvetica,sans-Serif" font-size="10.00">ELFRelocs/PowerPC64.def</text>
</a>
</g>
</g>
<!-- Node21&#45;&gt;Node39 -->
<g id="edge29" class="edge">
<title>Node21&#45;&gt;Node39</title>
<path fill="none" stroke="midnightblue" d="M3110.63,-173.98C3197.11,-163.07 3346.54,-144.24 3437.52,-132.77"/>
<polygon fill="midnightblue" stroke="midnightblue" points="3438.02,-136.23 3447.5,-131.51 3437.14,-129.29 3438.02,-136.23"/>
</g>
<!-- Node40 -->
<g id="node24" class="node">
<title>Node40</title>
<g id="a_node24"><a xlink:title=" ">
<polygon fill="none" stroke="#bfbfbf" points="3605,-112.5 3605,-131.5 3733,-131.5 3733,-112.5 3605,-112.5"/>
<text text-anchor="middle" x="3669" y="-119.5" font-family="Helvetica,sans-Serif" font-size="10.00">ELFRelocs/AArch64.def</text>
</a>
</g>
</g>
<!-- Node21&#45;&gt;Node40 -->
<g id="edge30" class="edge">
<title>Node21&#45;&gt;Node40</title>
<path fill="none" stroke="midnightblue" d="M3110.75,-177.01C3213.19,-168.55 3413.88,-151.38 3594.95,-132.08"/>
<polygon fill="midnightblue" stroke="midnightblue" points="3595.35,-135.56 3604.92,-131.02 3594.6,-128.6 3595.35,-135.56"/>
</g>
<!-- Node41 -->
<g id="node25" class="node">
<title>Node41</title>
<g id="a_node25"><a xlink:title=" ">
<polygon fill="none" stroke="#bfbfbf" points="3751,-112.5 3751,-131.5 3861,-131.5 3861,-112.5 3751,-112.5"/>
<text text-anchor="middle" x="3806" y="-119.5" font-family="Helvetica,sans-Serif" font-size="10.00">ELFRelocs/ARM.def</text>
</a>
</g>
</g>
<!-- Node21&#45;&gt;Node41 -->
<g id="edge31" class="edge">
<title>Node21&#45;&gt;Node41</title>
<path fill="none" stroke="midnightblue" d="M3110.61,-179.14C3233.78,-172.68 3503.14,-157.02 3740.66,-132.07"/>
<polygon fill="midnightblue" stroke="midnightblue" points="3741.3,-135.53 3750.87,-130.99 3740.56,-128.57 3741.3,-135.53"/>
</g>
<!-- Node42 -->
<g id="node26" class="node">
<title>Node42</title>
<g id="a_node26"><a xlink:title=" ">
<polygon fill="none" stroke="#bfbfbf" points="3879,-112.5 3879,-131.5 3987,-131.5 3987,-112.5 3879,-112.5"/>
<text text-anchor="middle" x="3933" y="-119.5" font-family="Helvetica,sans-Serif" font-size="10.00">ELFRelocs/ARC.def</text>
</a>
</g>
</g>
<!-- Node21&#45;&gt;Node42 -->
<g id="edge32" class="edge">
<title>Node21&#45;&gt;Node42</title>
<path fill="none" stroke="midnightblue" d="M3110.69,-180.22C3250.38,-175.12 3580.93,-160.96 3868.53,-132.07"/>
<polygon fill="midnightblue" stroke="midnightblue" points="3869.14,-135.53 3878.74,-131.04 3868.44,-128.56 3869.14,-135.53"/>
</g>
<!-- Node43 -->
<g id="node27" class="node">
<title>Node43</title>
<g id="a_node27"><a xlink:title=" ">
<polygon fill="none" stroke="#bfbfbf" points="4005.5,-112.5 4005.5,-131.5 4112.5,-131.5 4112.5,-112.5 4005.5,-112.5"/>
<text text-anchor="middle" x="4059" y="-119.5" font-family="Helvetica,sans-Serif" font-size="10.00">ELFRelocs/AVR.def</text>
</a>
</g>
</g>
<!-- Node21&#45;&gt;Node43 -->
<g id="edge33" class="edge">
<title>Node21&#45;&gt;Node43</title>
<path fill="none" stroke="midnightblue" d="M3110.75,-180.98C3265.55,-177.06 3657.22,-164.6 3995.43,-131.96"/>
<polygon fill="midnightblue" stroke="midnightblue" points="3995.81,-135.44 4005.42,-130.98 3995.13,-128.47 3995.81,-135.44"/>
</g>
<!-- Node44 -->
<g id="node28" class="node">
<title>Node44</title>
<g id="a_node28"><a xlink:title=" ">
<polygon fill="none" stroke="#bfbfbf" points="4130.5,-112.5 4130.5,-131.5 4241.5,-131.5 4241.5,-112.5 4130.5,-112.5"/>
<text text-anchor="middle" x="4186" y="-119.5" font-family="Helvetica,sans-Serif" font-size="10.00">ELFRelocs/Mips.def</text>
</a>
</g>
</g>
<!-- Node21&#45;&gt;Node44 -->
<g id="edge34" class="edge">
<title>Node21&#45;&gt;Node44</title>
<path fill="none" stroke="midnightblue" d="M3110.7,-181.52C3279.5,-178.59 3732.8,-167.85 4120.19,-132.09"/>
<polygon fill="midnightblue" stroke="midnightblue" points="4120.56,-135.57 4130.19,-131.16 4119.91,-128.6 4120.56,-135.57"/>
</g>
<!-- Node45 -->
<g id="node29" class="node">
<title>Node45</title>
<g id="a_node29"><a xlink:title=" ">
<polygon fill="none" stroke="#bfbfbf" points="4259.5,-112.5 4259.5,-131.5 4390.5,-131.5 4390.5,-112.5 4259.5,-112.5"/>
<text text-anchor="middle" x="4325" y="-119.5" font-family="Helvetica,sans-Serif" font-size="10.00">ELFRelocs/Hexagon.def</text>
</a>
</g>
</g>
<!-- Node21&#45;&gt;Node45 -->
<g id="edge35" class="edge">
<title>Node21&#45;&gt;Node45</title>
<path fill="none" stroke="midnightblue" d="M3110.56,-181.55C3292.75,-178.59 3809.51,-167.54 4249.21,-132.09"/>
<polygon fill="midnightblue" stroke="midnightblue" points="4249.58,-135.57 4259.26,-131.27 4249.01,-128.59 4249.58,-135.57"/>
</g>
<!-- Node46 -->
<g id="node30" class="node">
<title>Node46</title>
<g id="a_node30"><a xlink:title=" ">
<polygon fill="none" stroke="#bfbfbf" points="4409,-112.5 4409,-131.5 4523,-131.5 4523,-112.5 4409,-112.5"/>
<text text-anchor="middle" x="4466" y="-119.5" font-family="Helvetica,sans-Serif" font-size="10.00">ELFRelocs/Lanai.def</text>
</a>
</g>
</g>
<!-- Node21&#45;&gt;Node46 -->
<g id="edge36" class="edge">
<title>Node21&#45;&gt;Node46</title>
<path fill="none" stroke="midnightblue" d="M3110.57,-182.33C3307.53,-181.34 3898.32,-174.82 4398.49,-132.04"/>
<polygon fill="midnightblue" stroke="midnightblue" points="4399.14,-135.5 4408.8,-131.15 4398.54,-128.52 4399.14,-135.5"/>
</g>
<!-- Node47 -->
<g id="node31" class="node">
<title>Node47</title>
<g id="a_node31"><a xlink:title=" ">
<polygon fill="none" stroke="#bfbfbf" points="4541,-112.5 4541,-131.5 4657,-131.5 4657,-112.5 4541,-112.5"/>
<text text-anchor="middle" x="4599" y="-119.5" font-family="Helvetica,sans-Serif" font-size="10.00">ELFRelocs/RISCV.def</text>
</a>
</g>
</g>
<!-- Node21&#45;&gt;Node47 -->
<g id="edge37" class="edge">
<title>Node21&#45;&gt;Node47</title>
<path fill="none" stroke="midnightblue" d="M3110.67,-182.6C3320.17,-182.41 3976.84,-177.96 4530.74,-132.01"/>
<polygon fill="midnightblue" stroke="midnightblue" points="4531.26,-135.48 4540.93,-131.16 4530.68,-128.5 4531.26,-135.48"/>
</g>
<!-- Node48 -->
<g id="node32" class="node">
<title>Node48</title>
<g id="a_node32"><a xlink:title=" ">
<polygon fill="none" stroke="#bfbfbf" points="4675.5,-112.5 4675.5,-131.5 4806.5,-131.5 4806.5,-112.5 4675.5,-112.5"/>
<text text-anchor="middle" x="4741" y="-119.5" font-family="Helvetica,sans-Serif" font-size="10.00">ELFRelocs/SystemZ.def</text>
</a>
</g>
</g>
<!-- Node21&#45;&gt;Node48 -->
<g id="edge38" class="edge">
<title>Node21&#45;&gt;Node48</title>
<path fill="none" stroke="midnightblue" d="M3110.75,-182.53C3332.37,-182.18 4055.89,-177.44 4664.88,-132.01"/>
<polygon fill="midnightblue" stroke="midnightblue" points="4665.47,-135.47 4675.18,-131.23 4664.95,-128.49 4665.47,-135.47"/>
</g>
<!-- Node49 -->
<g id="node33" class="node">
<title>Node49</title>
<g id="a_node33"><a xlink:title=" ">
<polygon fill="none" stroke="#bfbfbf" points="1935.5,-112.5 1935.5,-131.5 2050.5,-131.5 2050.5,-112.5 1935.5,-112.5"/>
<text text-anchor="middle" x="1993" y="-119.5" font-family="Helvetica,sans-Serif" font-size="10.00">ELFRelocs/Sparc.def</text>
</a>
</g>
</g>
<!-- Node21&#45;&gt;Node49 -->
<g id="edge39" class="edge">
<title>Node21&#45;&gt;Node49</title>
<path fill="none" stroke="midnightblue" d="M2975.23,-180.94C2817.03,-176.87 2410.91,-164.05 2060.79,-131.99"/>
<polygon fill="midnightblue" stroke="midnightblue" points="2060.99,-128.49 2050.71,-131.06 2060.35,-135.46 2060.99,-128.49"/>
</g>
<!-- Node50 -->
<g id="node34" class="node">
<title>Node50</title>
<g id="a_node34"><a xlink:title=" ">
<polygon fill="none" stroke="#bfbfbf" points="2069,-112.5 2069,-131.5 2201,-131.5 2201,-112.5 2069,-112.5"/>
<text text-anchor="middle" x="2135" y="-119.5" font-family="Helvetica,sans-Serif" font-size="10.00">ELFRelocs/AMDGPU.def</text>
</a>
</g>
</g>
<!-- Node21&#45;&gt;Node50 -->
<g id="edge40" class="edge">
<title>Node21&#45;&gt;Node50</title>
<path fill="none" stroke="midnightblue" d="M2975.5,-179.71C2835.37,-173.65 2502.51,-157.75 2211.63,-132"/>
<polygon fill="midnightblue" stroke="midnightblue" points="2211.57,-128.48 2201.3,-131.08 2210.95,-135.45 2211.57,-128.48"/>
</g>
<!-- Node51 -->
<g id="node35" class="node">
<title>Node51</title>
<g id="a_node35"><a xlink:title=" ">
<polygon fill="none" stroke="#bfbfbf" points="2219.5,-112.5 2219.5,-131.5 2324.5,-131.5 2324.5,-112.5 2219.5,-112.5"/>
<text text-anchor="middle" x="2272" y="-119.5" font-family="Helvetica,sans-Serif" font-size="10.00">ELFRelocs/BPF.def</text>
</a>
</g>
</g>
<!-- Node21&#45;&gt;Node51 -->
<g id="edge41" class="edge">
<title>Node21&#45;&gt;Node51</title>
<path fill="none" stroke="midnightblue" d="M2975.4,-179.33C2850.86,-173.14 2576.58,-157.81 2334.77,-132"/>
<polygon fill="midnightblue" stroke="midnightblue" points="2335.05,-128.51 2324.73,-130.92 2334.3,-135.47 2335.05,-128.51"/>
</g>
<!-- Node52 -->
<g id="node36" class="node">
<title>Node52</title>
<g id="a_node36"><a xlink:title=" ">
<polygon fill="none" stroke="#bfbfbf" points="2342.5,-112.5 2342.5,-131.5 2457.5,-131.5 2457.5,-112.5 2342.5,-112.5"/>
<text text-anchor="middle" x="2400" y="-119.5" font-family="Helvetica,sans-Serif" font-size="10.00">ELFRelocs/M68k.def</text>
</a>
</g>
</g>
<!-- Node21&#45;&gt;Node52 -->
<g id="edge42" class="edge">
<title>Node21&#45;&gt;Node52</title>
<path fill="none" stroke="midnightblue" d="M2975.07,-177.56C2869.13,-169.64 2657.92,-152.94 2467.9,-132.05"/>
<polygon fill="midnightblue" stroke="midnightblue" points="2468.05,-128.55 2457.72,-130.93 2467.28,-135.5 2468.05,-128.55"/>
</g>
<!-- Node53 -->
<g id="node37" class="node">
<title>Node53</title>
<g id="a_node37"><a xlink:title=" ">
<polygon fill="none" stroke="#bfbfbf" points="2475.5,-112.5 2475.5,-131.5 2602.5,-131.5 2602.5,-112.5 2475.5,-112.5"/>
<text text-anchor="middle" x="2539" y="-119.5" font-family="Helvetica,sans-Serif" font-size="10.00">ELFRelocs/MSP430.def</text>
</a>
</g>
</g>
<!-- Node21&#45;&gt;Node53 -->
<g id="edge43" class="edge">
<title>Node21&#45;&gt;Node53</title>
<path fill="none" stroke="midnightblue" d="M2975.43,-174.71C2892.63,-165.14 2747.76,-148.29 2612.81,-132.09"/>
<polygon fill="midnightblue" stroke="midnightblue" points="2613.04,-128.59 2602.7,-130.88 2612.21,-135.54 2613.04,-128.59"/>
</g>
<!-- Node54 -->
<g id="node38" class="node">
<title>Node54</title>
<g id="a_node38"><a xlink:title=" ">
<polygon fill="none" stroke="#bfbfbf" points="2620.5,-112.5 2620.5,-131.5 2721.5,-131.5 2721.5,-112.5 2620.5,-112.5"/>
<text text-anchor="middle" x="2671" y="-119.5" font-family="Helvetica,sans-Serif" font-size="10.00">ELFRelocs/VE.def</text>
</a>
</g>
</g>
<!-- Node21&#45;&gt;Node54 -->
<g id="edge44" class="edge">
<title>Node21&#45;&gt;Node54</title>
<path fill="none" stroke="midnightblue" d="M2989.7,-173.98C2921.44,-163.06 2803.41,-144.18 2731.74,-132.72"/>
<polygon fill="midnightblue" stroke="midnightblue" points="2731.94,-129.2 2721.52,-131.08 2730.84,-136.12 2731.94,-129.2"/>
</g>
<!-- Node55 -->
<g id="node39" class="node">
<title>Node55</title>
<g id="a_node39"><a xlink:title=" ">
<polygon fill="none" stroke="#bfbfbf" points="2740,-112.5 2740,-131.5 2850,-131.5 2850,-112.5 2740,-112.5"/>
<text text-anchor="middle" x="2795" y="-119.5" font-family="Helvetica,sans-Serif" font-size="10.00">ELFRelocs/CSKY.def</text>
</a>
</g>
</g>
<!-- Node21&#45;&gt;Node55 -->
<g id="edge45" class="edge">
<title>Node21&#45;&gt;Node55</title>
<path fill="none" stroke="midnightblue" d="M3007.47,-173.98C2963.45,-163.42 2888.41,-145.41 2840.3,-133.87"/>
<polygon fill="midnightblue" stroke="midnightblue" points="2841.01,-130.44 2830.47,-131.51 2839.37,-137.25 2841.01,-130.44"/>
</g>
<!-- Node56 -->
<g id="node40" class="node">
<title>Node56</title>
<g id="a_node40"><a xlink:title=" ">
<polygon fill="none" stroke="#bfbfbf" points="2868.5,-112.5 2868.5,-131.5 2969.5,-131.5 2969.5,-112.5 2868.5,-112.5"/>
<text text-anchor="middle" x="2919" y="-119.5" font-family="Helvetica,sans-Serif" font-size="10.00">DynamicTags.def</text>
</a>
</g>
</g>
<!-- Node21&#45;&gt;Node56 -->
<g id="edge46" class="edge">
<title>Node21&#45;&gt;Node56</title>
<path fill="none" stroke="midnightblue" d="M3025.23,-173.98C3004.52,-164.03 2970.05,-147.49 2946.01,-135.96"/>
<polygon fill="midnightblue" stroke="midnightblue" points="2947.26,-132.68 2936.73,-131.51 2944.23,-138.99 2947.26,-132.68"/>
</g>
<!-- Node22&#45;&gt;Node10 -->
<g id="edge21" class="edge">
<title>Node22&#45;&gt;Node10</title>
<path fill="none" stroke="midnightblue" d="M1479.08,-112.44C1419.83,-102.87 1323.9,-87.36 1260.88,-77.17"/>
<polygon fill="midnightblue" stroke="midnightblue" points="1261.11,-73.66 1250.68,-75.52 1259.99,-80.57 1261.11,-73.66"/>
</g>
<!-- Node22&#45;&gt;Node15 -->
<g id="edge22" class="edge">
<title>Node22&#45;&gt;Node15</title>
<path fill="none" stroke="midnightblue" d="M1532.13,-112.22C1531.81,-97.97 1528.92,-69.99 1512,-56 1483.54,-32.47 1234.21,-17.59 1139.39,-12.74"/>
<polygon fill="midnightblue" stroke="midnightblue" points="1139.3,-9.23 1129.13,-12.22 1138.94,-16.22 1139.3,-9.23"/>
</g>
<!-- Node23 -->
<g id="node17" class="node">
<title>Node23</title>
<g id="a_node17"><a xlink:href="$DenseMapInfo_8h.html" xlink:title="This file defines DenseMapInfo traits for DenseMap.">
<polygon fill="none" stroke="red" points="1359,-56.5 1359,-75.5 1503,-75.5 1503,-56.5 1359,-56.5"/>
<text text-anchor="middle" x="1431" y="-63.5" font-family="Helvetica,sans-Serif" font-size="10.00">llvm/ADT/DenseMapInfo.h</text>
</a>
</g>
</g>
<!-- Node22&#45;&gt;Node23 -->
<g id="edge18" class="edge">
<title>Node22&#45;&gt;Node23</title>
<path fill="none" stroke="midnightblue" d="M1515.77,-112.32C1499.65,-103.7 1474.7,-90.36 1456.04,-80.39"/>
<polygon fill="midnightblue" stroke="midnightblue" points="1457.66,-77.28 1447.19,-75.65 1454.36,-83.46 1457.66,-77.28"/>
</g>
<!-- Node22&#45;&gt;Node33 -->
<g id="edge23" class="edge">
<title>Node22&#45;&gt;Node33</title>
<path fill="none" stroke="midnightblue" d="M1546.46,-112.32C1560.5,-103.9 1582.05,-90.97 1598.54,-81.07"/>
<polygon fill="midnightblue" stroke="midnightblue" points="1600.8,-83.8 1607.58,-75.65 1597.2,-77.8 1600.8,-83.8"/>
</g>
<!-- Node23&#45;&gt;Node15 -->
<g id="edge19" class="edge">
<title>Node23&#45;&gt;Node15</title>
<path fill="none" stroke="midnightblue" d="M1379.03,-56.44C1312.2,-45.44 1197.82,-26.61 1139.51,-17.01"/>
<polygon fill="midnightblue" stroke="midnightblue" points="1139.73,-13.5 1129.3,-15.33 1138.6,-20.41 1139.73,-13.5"/>
</g>
<!-- Node23&#45;&gt;Node25 -->
<g id="edge20" class="edge">
<title>Node23&#45;&gt;Node25</title>
<path fill="none" stroke="midnightblue" d="M1475.68,-56.44C1531.77,-45.7 1626.8,-27.51 1677.93,-17.72"/>
<polygon fill="midnightblue" stroke="midnightblue" points="1678.69,-21.13 1687.85,-15.82 1677.37,-14.26 1678.69,-21.13"/>
</g>
<!-- Node57&#45;&gt;Node21 -->
<g id="edge49" class="edge">
<title>Node57&#45;&gt;Node21</title>
<path fill="none" stroke="midnightblue" d="M1737.58,-240.5C1984.75,-229.9 2723.13,-198.22 2965.2,-187.84"/>
<polygon fill="midnightblue" stroke="midnightblue" points="2965.48,-191.33 2975.32,-187.4 2965.18,-184.34 2965.48,-191.33"/>
</g>
<!-- Node57&#45;&gt;Node25 -->
<g id="edge65" class="edge">
<title>Node57&#45;&gt;Node25</title>
<path fill="none" stroke="midnightblue" d="M1685.12,-235.44C1702.64,-228.62 1723.52,-217.14 1734,-199 1740.89,-187.07 1734.92,-181.75 1734,-168 1730.66,-117.86 1721.39,-59.3 1716.35,-29.89"/>
<polygon fill="midnightblue" stroke="midnightblue" points="1719.76,-29.06 1714.6,-19.81 1712.87,-30.26 1719.76,-29.06"/>
</g>
<!-- Node58 -->
<g id="node42" class="node">
<title>Node58</title>
<g id="a_node42"><a xlink:href="$Triple_8h.html" xlink:title=" ">
<polygon fill="none" stroke="red" points="1741,-112.5 1741,-131.5 1841,-131.5 1841,-112.5 1741,-112.5"/>
<text text-anchor="middle" x="1791" y="-119.5" font-family="Helvetica,sans-Serif" font-size="10.00">llvm/ADT/Triple.h</text>
</a>
</g>
</g>
<!-- Node57&#45;&gt;Node58 -->
<g id="edge48" class="edge">
<title>Node57&#45;&gt;Node58</title>
<path fill="none" stroke="midnightblue" d="M1700.42,-235.47C1723.13,-229 1749.57,-217.86 1767,-199 1781.49,-183.31 1787.23,-158.91 1789.51,-142"/>
<polygon fill="midnightblue" stroke="midnightblue" points="1793.03,-142.01 1790.59,-131.7 1786.07,-141.28 1793.03,-142.01"/>
</g>
<!-- Node57&#45;&gt;Node82 -->
<g id="edge50" class="edge">
<title>Node57&#45;&gt;Node82</title>
<path fill="none" stroke="midnightblue" d="M1689.81,-235.48C1731.52,-224.96 1802.51,-207.06 1848.31,-195.51"/>
<polygon fill="midnightblue" stroke="midnightblue" points="1849.41,-198.85 1858.25,-193.01 1847.7,-192.06 1849.41,-198.85"/>
</g>
<!-- Node83 -->
<g id="node44" class="node">
<title>Node83</title>
<g id="a_node44"><a xlink:href="$MCSectionELF_8h.html" xlink:title=" ">
<polygon fill="none" stroke="red" points="1587.5,-174 1587.5,-193 1724.5,-193 1724.5,-174 1587.5,-174"/>
<text text-anchor="middle" x="1656" y="-181" font-family="Helvetica,sans-Serif" font-size="10.00">llvm/MC/MCSectionELF.h</text>
</a>
</g>
</g>
<!-- Node57&#45;&gt;Node83 -->
<g id="edge53" class="edge">
<title>Node57&#45;&gt;Node83</title>
<path fill="none" stroke="midnightblue" d="M1656,-235.48C1656,-227.08 1656,-213.98 1656,-203.16"/>
<polygon fill="midnightblue" stroke="midnightblue" points="1659.5,-203.01 1656,-193.01 1652.5,-203.01 1659.5,-203.01"/>
</g>
<!-- Node102 -->
<g id="node45" class="node">
<title>Node102</title>
<g id="a_node45"><a xlink:href="$Casting_8h.html" xlink:title=" ">
<polygon fill="none" stroke="red" points="1079,-174 1079,-193 1207,-193 1207,-174 1079,-174"/>
<text text-anchor="middle" x="1143" y="-181" font-family="Helvetica,sans-Serif" font-size="10.00">llvm/Support/Casting.h</text>
</a>
</g>
</g>
<!-- Node57&#45;&gt;Node102 -->
<g id="edge55" class="edge">
<title>Node57&#45;&gt;Node102</title>
<path fill="none" stroke="midnightblue" d="M1574.21,-237.95C1485.64,-230.86 1340.35,-217.67 1216,-199 1208.27,-197.84 1200.12,-196.42 1192.18,-194.93"/>
<polygon fill="midnightblue" stroke="midnightblue" points="1192.77,-191.47 1182.28,-193.01 1191.43,-198.35 1192.77,-191.47"/>
</g>
<!-- Node115 -->
<g id="node46" class="node">
<title>Node115</title>
<g id="a_node46"><a xlink:href="$raw__ostream_8h.html" xlink:title=" ">
<polygon fill="none" stroke="red" points="1414.5,-174 1414.5,-193 1569.5,-193 1569.5,-174 1414.5,-174"/>
<text text-anchor="middle" x="1492" y="-181" font-family="Helvetica,sans-Serif" font-size="10.00">llvm/Support/raw_ostream.h</text>
</a>
</g>
</g>
<!-- Node57&#45;&gt;Node115 -->
<g id="edge59" class="edge">
<title>Node57&#45;&gt;Node115</title>
<path fill="none" stroke="midnightblue" d="M1632.5,-235.48C1604.37,-225.27 1557.07,-208.11 1525.21,-196.55"/>
<polygon fill="midnightblue" stroke="midnightblue" points="1526.05,-193.13 1515.45,-193.01 1523.66,-199.71 1526.05,-193.13"/>
</g>
<!-- Node80 -->
<g id="node47" class="node">
<title>Node80</title>
<g id="a_node47"><a xlink:title=" ">
<polygon fill="none" stroke="#bfbfbf" points="1349.5,-174 1349.5,-193 1396.5,-193 1396.5,-174 1349.5,-174"/>
<text text-anchor="middle" x="1373" y="-181" font-family="Helvetica,sans-Serif" font-size="10.00">vector</text>
</a>
</g>
</g>
<!-- Node57&#45;&gt;Node80 -->
<g id="edge66" class="edge">
<title>Node57&#45;&gt;Node80</title>
<path fill="none" stroke="midnightblue" d="M1583,-235.49C1532.56,-228.49 1464.32,-216.79 1406,-199 1404.07,-198.41 1402.1,-197.74 1400.14,-197.02"/>
<polygon fill="midnightblue" stroke="midnightblue" points="1401.1,-193.63 1390.52,-193.11 1398.47,-200.12 1401.1,-193.63"/>
</g>
<!-- Node82&#45;&gt;Node25 -->
<g id="edge52" class="edge">
<title>Node82&#45;&gt;Node25</title>
<path fill="none" stroke="midnightblue" d="M1888.29,-173.97C1881.9,-159.95 1867.8,-131.63 1850,-112 1816.15,-74.66 1766.6,-42.25 1737.29,-24.77"/>
<polygon fill="midnightblue" stroke="midnightblue" points="1738.93,-21.67 1728.53,-19.63 1735.39,-27.71 1738.93,-21.67"/>
</g>
<!-- Node82&#45;&gt;Node58 -->
<g id="edge51" class="edge">
<title>Node82&#45;&gt;Node58</title>
<path fill="none" stroke="midnightblue" d="M1877.53,-173.98C1861.03,-164.25 1833.82,-148.23 1814.32,-136.74"/>
<polygon fill="midnightblue" stroke="midnightblue" points="1815.84,-133.57 1805.44,-131.51 1812.28,-139.6 1815.84,-133.57"/>
</g>
<!-- Node83&#45;&gt;Node22 -->
<g id="edge54" class="edge">
<title>Node83&#45;&gt;Node22</title>
<path fill="none" stroke="midnightblue" d="M1638.23,-173.98C1617.52,-164.03 1583.05,-147.49 1559.01,-135.96"/>
<polygon fill="midnightblue" stroke="midnightblue" points="1560.26,-132.68 1549.73,-131.51 1557.23,-138.99 1560.26,-132.68"/>
</g>
<!-- Node102&#45;&gt;Node10 -->
<g id="edge56" class="edge">
<title>Node102&#45;&gt;Node10</title>
<path fill="none" stroke="midnightblue" d="M1158.96,-173.92C1172.97,-165.37 1192.43,-150.83 1201,-132 1207.58,-117.54 1206.03,-99.35 1203.29,-85.9"/>
<polygon fill="midnightblue" stroke="midnightblue" points="1206.62,-84.79 1200.86,-75.89 1199.82,-86.43 1206.62,-84.79"/>
</g>
<!-- Node102&#45;&gt;Node15 -->
<g id="edge57" class="edge">
<title>Node102&#45;&gt;Node15</title>
<path fill="none" stroke="midnightblue" d="M1150.65,-173.56C1161.35,-159.92 1178.35,-133.25 1168,-112 1156.63,-88.66 1136.56,-97.49 1122,-76 1112.62,-62.16 1107.8,-43.64 1105.37,-29.91"/>
<polygon fill="midnightblue" stroke="midnightblue" points="1108.78,-29.08 1103.84,-19.71 1101.86,-30.12 1108.78,-29.08"/>
</g>
<!-- Node102&#45;&gt;Node17 -->
<g id="edge58" class="edge">
<title>Node102&#45;&gt;Node17</title>
<path fill="none" stroke="midnightblue" d="M1078.98,-176.55C958.94,-165.35 704.19,-141.45 616,-132 604.05,-130.72 591.05,-129.22 579.23,-127.82"/>
<polygon fill="midnightblue" stroke="midnightblue" points="579.56,-124.33 569.22,-126.61 578.73,-131.28 579.56,-124.33"/>
</g>
<!-- Node115&#45;&gt;Node4 -->
<g id="edge61" class="edge">
<title>Node115&#45;&gt;Node4</title>
<path fill="none" stroke="midnightblue" d="M1446.6,-173.94C1433.53,-171.72 1419.24,-169.53 1406,-168 1345.02,-160.95 950.62,-137.71 777.39,-127.68"/>
<polygon fill="midnightblue" stroke="midnightblue" points="777.49,-124.18 767.31,-127.1 777.09,-131.17 777.49,-124.18"/>
</g>
<!-- Node115&#45;&gt;Node15 -->
<g id="edge62" class="edge">
<title>Node115&#45;&gt;Node15</title>
<path fill="none" stroke="midnightblue" d="M1479.63,-173.86C1460.27,-160.38 1421.53,-133.66 1388,-112 1348.11,-86.23 1340.93,-74.05 1297,-56 1244.3,-34.35 1179.07,-21.93 1139.27,-15.82"/>
<polygon fill="midnightblue" stroke="midnightblue" points="1139.64,-12.34 1129.24,-14.34 1138.62,-19.26 1139.64,-12.34"/>
</g>
<!-- Node115&#45;&gt;Node22 -->
<g id="edge60" class="edge">
<title>Node115&#45;&gt;Node22</title>
<path fill="none" stroke="midnightblue" d="M1497.73,-173.98C1503.67,-165.14 1513.12,-151.09 1520.59,-139.98"/>
<polygon fill="midnightblue" stroke="midnightblue" points="1523.61,-141.76 1526.28,-131.51 1517.8,-137.86 1523.61,-141.76"/>
</g>
<!-- Node115&#45;&gt;Node25 -->
<g id="edge63" class="edge">
<title>Node115&#45;&gt;Node25</title>
<path fill="none" stroke="midnightblue" d="M1527.13,-173.99C1554.15,-166.22 1591.4,-152.74 1619,-132 1657.49,-103.08 1688.54,-54.58 1703.43,-28.63"/>
<polygon fill="midnightblue" stroke="midnightblue" points="1706.66,-30.03 1708.49,-19.59 1700.55,-26.61 1706.66,-30.03"/>
</g>
<!-- Node115&#45;&gt;Node33 -->
<g id="edge64" class="edge">
<title>Node115&#45;&gt;Node33</title>
<path fill="none" stroke="midnightblue" d="M1527.03,-173.93C1550.62,-166.49 1580.82,-153.44 1600,-132 1611.53,-119.11 1617.06,-99.93 1619.69,-85.75"/>
<polygon fill="midnightblue" stroke="midnightblue" points="1623.18,-86.07 1621.23,-75.66 1616.26,-85.01 1623.18,-86.07"/>
</g>
<!-- Node110&#45;&gt;Node13 -->
<g id="edge73" class="edge">
<title>Node110&#45;&gt;Node13</title>
<path fill="none" stroke="midnightblue" d="M1243.67,-173.97C1234.69,-171.88 1225.01,-169.74 1216,-168 1140.28,-153.37 1052.84,-140.5 993.13,-132.31"/>
<polygon fill="midnightblue" stroke="midnightblue" points="993.43,-128.82 983.05,-130.93 992.49,-135.75 993.43,-128.82"/>
</g>
<!-- Node110&#45;&gt;Node25 -->
<g id="edge74" class="edge">
<title>Node110&#45;&gt;Node25</title>
<path fill="none" stroke="midnightblue" d="M1298.19,-173.92C1347.46,-153.05 1477.84,-98.28 1588,-56 1618.42,-44.33 1653.32,-31.83 1678.5,-22.98"/>
<polygon fill="midnightblue" stroke="midnightblue" points="1679.7,-26.27 1687.98,-19.66 1677.39,-19.66 1679.7,-26.27"/>
</g>
<!-- Node111 -->
<g id="node49" class="node">
<title>Node111</title>
<g id="a_node49"><a xlink:href="$DenseMap_8h.html" xlink:title="This file defines the DenseMap class.">
<polygon fill="none" stroke="red" points="1253.5,-112.5 1253.5,-131.5 1378.5,-131.5 1378.5,-112.5 1253.5,-112.5"/>
<text text-anchor="middle" x="1316" y="-119.5" font-family="Helvetica,sans-Serif" font-size="10.00">llvm/ADT/DenseMap.h</text>
</a>
</g>
</g>
<!-- Node110&#45;&gt;Node111 -->
<g id="edge68" class="edge">
<title>Node110&#45;&gt;Node111</title>
<path fill="none" stroke="midnightblue" d="M1283.44,-173.98C1289.09,-165.14 1298.06,-151.09 1305.16,-139.98"/>
<polygon fill="midnightblue" stroke="midnightblue" points="1308.13,-141.82 1310.57,-131.51 1302.23,-138.05 1308.13,-141.82"/>
</g>
<!-- Node111&#45;&gt;Node10 -->
<g id="edge70" class="edge">
<title>Node111&#45;&gt;Node10</title>
<path fill="none" stroke="midnightblue" d="M1297.3,-112.44C1278.06,-103.64 1247.85,-89.81 1225.8,-79.72"/>
<polygon fill="midnightblue" stroke="midnightblue" points="1227.16,-76.5 1216.61,-75.52 1224.25,-82.86 1227.16,-76.5"/>
</g>
<!-- Node111&#45;&gt;Node15 -->
<g id="edge71" class="edge">
<title>Node111&#45;&gt;Node15</title>
<path fill="none" stroke="midnightblue" d="M1312.83,-112.37C1307.24,-98.33 1294.23,-70.67 1274,-56 1233.96,-26.98 1176.6,-16.66 1139.57,-13"/>
<polygon fill="midnightblue" stroke="midnightblue" points="1139.5,-9.48 1129.23,-12.1 1138.89,-16.46 1139.5,-9.48"/>
</g>
<!-- Node111&#45;&gt;Node23 -->
<g id="edge69" class="edge">
<title>Node111&#45;&gt;Node23</title>
<path fill="none" stroke="midnightblue" d="M1334.22,-112.44C1352.9,-103.68 1382.16,-89.94 1403.62,-79.86"/>
<polygon fill="midnightblue" stroke="midnightblue" points="1405.3,-82.93 1412.86,-75.52 1402.32,-76.6 1405.3,-82.93"/>
</g>
<!-- Node111&#45;&gt;Node33 -->
<g id="edge72" class="edge">
<title>Node111&#45;&gt;Node33</title>
<path fill="none" stroke="midnightblue" d="M1364.49,-112.44C1426.39,-101.52 1532.01,-82.88 1586.76,-73.22"/>
<polygon fill="midnightblue" stroke="midnightblue" points="1587.45,-76.65 1596.69,-71.47 1586.24,-69.76 1587.45,-76.65"/>
</g>
<!-- Node117&#45;&gt;Node4 -->
<g id="edge79" class="edge">
<title>Node117&#45;&gt;Node4</title>
<path fill="none" stroke="midnightblue" d="M703.42,-235.3C702.14,-215.85 699.01,-168.49 697.25,-141.9"/>
<polygon fill="midnightblue" stroke="midnightblue" points="700.72,-141.37 696.57,-131.62 693.74,-141.83 700.72,-141.37"/>
</g>
<!-- Node117&#45;&gt;Node15 -->
<g id="edge80" class="edge">
<title>Node117&#45;&gt;Node15</title>
<path fill="none" stroke="midnightblue" d="M693.77,-235.45C674.13,-218.28 631.68,-177.34 616,-132 607.74,-108.11 631.71,-56.24 632,-56 665.24,-28.35 962.32,-15.75 1066.83,-12.14"/>
<polygon fill="midnightblue" stroke="midnightblue" points="1067.02,-15.63 1076.9,-11.8 1066.79,-8.64 1067.02,-15.63"/>
</g>
<!-- Node117&#45;&gt;Node110 -->
<g id="edge78" class="edge">
<title>Node117&#45;&gt;Node110</title>
<path fill="none" stroke="midnightblue" d="M760.24,-239.27C888.59,-228.46 1193.78,-202.56 1216,-199 1222.3,-197.99 1228.92,-196.7 1235.38,-195.3"/>
<polygon fill="midnightblue" stroke="midnightblue" points="1236.37,-198.67 1245.35,-193.05 1234.83,-191.84 1236.37,-198.67"/>
</g>
</g>
</svg>
