<?xml version="1.0" encoding="UTF-8" standalone="no"?>
<!DOCTYPE svg PUBLIC "-//W3C//DTD SVG 1.1//EN"
 "http://www.w3.org/Graphics/SVG/1.1/DTD/svg11.dtd">
<!-- Generated by graphviz version 2.44.0 (0)
 -->
<!-- Title: lib/Target/ARC/ARCInstrInfo.h Pages: 1 -->
<svg width="1235pt" height="218pt"
 viewBox="0.00 0.00 1234.50 218.00" xmlns="http://www.w3.org/2000/svg" xmlns:xlink="http://www.w3.org/1999/xlink">
<g id="graph0" class="graph" transform="scale(1 1) rotate(0) translate(4 214)">
<title>lib/Target/ARC/ARCInstrInfo.h</title>
<!-- Node1 -->
<g id="node1" class="node">
<title>Node1</title>
<g id="a_node1"><a xlink:title=" ">
<polygon fill="#bfbfbf" stroke="black" points="257,-190.5 257,-209.5 406,-209.5 406,-190.5 257,-190.5"/>
<text text-anchor="middle" x="331.5" y="-197.5" font-family="Helvetica" font-size="10.00">lib/Target/ARC/ARCInstrInfo.h</text>
</a>
</g>
</g>
<!-- Node2 -->
<g id="node2" class="node">
<title>Node2</title>
<g id="a_node2"><a xlink:href="ARCBranchFinalize_8cpp.html" target="_top" xlink:title=" ">
<polygon fill="none" stroke="black" points="0,-0.5 0,-30.5 135,-30.5 135,-0.5 0,-0.5"/>
<text text-anchor="start" x="8" y="-18.5" font-family="Helvetica" font-size="10.00">lib/Target/ARC/ARCBranch</text>
<text text-anchor="middle" x="67.5" y="-7.5" font-family="Helvetica" font-size="10.00">Finalize.cpp</text>
</a>
</g>
</g>
<!-- Node1&#45;&gt;Node2 -->
<g id="edge1" class="edge">
<title>Node1&#45;&gt;Node2</title>
<path fill="none" stroke="midnightblue" d="M247.09,-188.78C217.78,-182.25 185.93,-171.54 160.5,-154 114.24,-122.09 84.5,-59.01 72.95,-30.76"/>
<polygon fill="midnightblue" stroke="midnightblue" points="246.41,-192.21 256.92,-190.84 247.85,-185.36 246.41,-192.21"/>
</g>
<!-- Node3 -->
<g id="node3" class="node">
<title>Node3</title>
<g id="a_node3"><a xlink:href="ARCExpandPseudos_8cpp.html" target="_top" xlink:title=" ">
<polygon fill="none" stroke="black" points="139,-67.5 139,-97.5 276,-97.5 276,-67.5 139,-67.5"/>
<text text-anchor="start" x="147" y="-85.5" font-family="Helvetica" font-size="10.00">lib/Target/ARC/ARCExpand</text>
<text text-anchor="middle" x="207.5" y="-74.5" font-family="Helvetica" font-size="10.00">Pseudos.cpp</text>
</a>
</g>
</g>
<!-- Node1&#45;&gt;Node3 -->
<g id="edge2" class="edge">
<title>Node1&#45;&gt;Node3</title>
<path fill="none" stroke="midnightblue" d="M314.79,-183.44C290.53,-160.83 245.89,-119.26 222.58,-97.55"/>
<polygon fill="midnightblue" stroke="midnightblue" points="312.48,-186.06 322.18,-190.32 317.25,-180.94 312.48,-186.06"/>
</g>
<!-- Node4 -->
<g id="node4" class="node">
<title>Node4</title>
<g id="a_node4"><a xlink:href="ARCInstrInfo_8cpp.html" target="_top" xlink:title=" ">
<polygon fill="none" stroke="black" points="294,-73 294,-92 453,-92 453,-73 294,-73"/>
<text text-anchor="middle" x="373.5" y="-80" font-family="Helvetica" font-size="10.00">lib/Target/ARC/ARCInstrInfo.cpp</text>
</a>
</g>
</g>
<!-- Node1&#45;&gt;Node4 -->
<g id="edge3" class="edge">
<title>Node1&#45;&gt;Node4</title>
<path fill="none" stroke="midnightblue" d="M338.1,-180.84C347.26,-155.66 363.46,-111.1 370.31,-92.28"/>
<polygon fill="midnightblue" stroke="midnightblue" points="334.79,-179.72 334.66,-190.32 341.36,-182.12 334.79,-179.72"/>
</g>
<!-- Node5 -->
<g id="node5" class="node">
<title>Node5</title>
<g id="a_node5"><a xlink:href="ARCOptAddrMode_8cpp.html" target="_top" xlink:title="This pass folds LD/ST + ADD pairs into Pre/Post&#45;increment form of load/store instructions.">
<polygon fill="none" stroke="black" points="153.5,-0.5 153.5,-30.5 293.5,-30.5 293.5,-0.5 153.5,-0.5"/>
<text text-anchor="start" x="161.5" y="-18.5" font-family="Helvetica" font-size="10.00">lib/Target/ARC/ARCOptAddr</text>
<text text-anchor="middle" x="223.5" y="-7.5" font-family="Helvetica" font-size="10.00">Mode.cpp</text>
</a>
</g>
</g>
<!-- Node1&#45;&gt;Node5 -->
<g id="edge4" class="edge">
<title>Node1&#45;&gt;Node5</title>
<path fill="none" stroke="midnightblue" d="M275.13,-187.92C227.13,-175.18 161.06,-149.07 129.5,-98 122.26,-86.28 122.43,-78.83 129.5,-67 139.67,-49.99 157.76,-38.37 175.38,-30.62"/>
<polygon fill="midnightblue" stroke="midnightblue" points="274.53,-191.37 285.08,-190.44 276.25,-184.59 274.53,-191.37"/>
</g>
<!-- Node6 -->
<g id="node6" class="node">
<title>Node6</title>
<g id="a_node6"><a xlink:href="ARCRegisterInfo_8cpp.html" target="_top" xlink:title=" ">
<polygon fill="none" stroke="black" points="1086.5,-67.5 1086.5,-97.5 1226.5,-97.5 1226.5,-67.5 1086.5,-67.5"/>
<text text-anchor="start" x="1094.5" y="-85.5" font-family="Helvetica" font-size="10.00">lib/Target/ARC/ARCRegister</text>
<text text-anchor="middle" x="1156.5" y="-74.5" font-family="Helvetica" font-size="10.00">Info.cpp</text>
</a>
</g>
</g>
<!-- Node1&#45;&gt;Node6 -->
<g id="edge5" class="edge">
<title>Node1&#45;&gt;Node6</title>
<path fill="none" stroke="midnightblue" d="M412.65,-189.28C549.88,-172.56 836.37,-136.43 1077.5,-98 1080.39,-97.54 1083.34,-97.06 1086.32,-96.56"/>
<polygon fill="midnightblue" stroke="midnightblue" points="412.14,-185.82 402.64,-190.5 412.99,-192.77 412.14,-185.82"/>
</g>
<!-- Node7 -->
<g id="node7" class="node">
<title>Node7</title>
<g id="a_node7"><a xlink:href="ARCSubtarget_8h.html" target="_top" xlink:title=" ">
<polygon fill="none" stroke="black" points="499,-134.5 499,-153.5 652,-153.5 652,-134.5 499,-134.5"/>
<text text-anchor="middle" x="575.5" y="-141.5" font-family="Helvetica" font-size="10.00">lib/Target/ARC/ARCSubtarget.h</text>
</a>
</g>
</g>
<!-- Node1&#45;&gt;Node7 -->
<g id="edge6" class="edge">
<title>Node1&#45;&gt;Node7</title>
<path fill="none" stroke="midnightblue" d="M379.93,-188.28C426.04,-178.08 494.53,-162.92 537.02,-153.52"/>
<polygon fill="midnightblue" stroke="midnightblue" points="379.17,-184.87 370.16,-190.44 380.68,-191.7 379.17,-184.87"/>
</g>
<!-- Node7&#45;&gt;Node3 -->
<g id="edge8" class="edge">
<title>Node7&#45;&gt;Node3</title>
<path fill="none" stroke="midnightblue" d="M506.65,-133C447.62,-124.27 360.35,-111 284.5,-98 281.82,-97.54 279.09,-97.06 276.33,-96.58"/>
<polygon fill="midnightblue" stroke="midnightblue" points="506.2,-136.47 516.61,-134.47 507.23,-129.55 506.2,-136.47"/>
</g>
<!-- Node7&#45;&gt;Node4 -->
<g id="edge10" class="edge">
<title>Node7&#45;&gt;Node4</title>
<path fill="none" stroke="midnightblue" d="M536.81,-131.6C497.55,-120.04 437.69,-102.41 402.39,-92.01"/>
<polygon fill="midnightblue" stroke="midnightblue" points="535.98,-135.01 546.56,-134.48 537.95,-128.29 535.98,-135.01"/>
</g>
<!-- Node7&#45;&gt;Node6 -->
<g id="edge12" class="edge">
<title>Node7&#45;&gt;Node6</title>
<path fill="none" stroke="midnightblue" d="M662.37,-137.65C762.68,-130.91 932.49,-117.76 1077.5,-98 1080.4,-97.6 1083.36,-97.18 1086.34,-96.72"/>
<polygon fill="midnightblue" stroke="midnightblue" points="662.03,-134.17 652.29,-138.32 662.5,-141.15 662.03,-134.17"/>
</g>
<!-- Node8 -->
<g id="node8" class="node">
<title>Node8</title>
<g id="a_node8"><a xlink:href="ARCAsmPrinter_8cpp.html" target="_top" xlink:title=" ">
<polygon fill="none" stroke="black" points="312,-6 312,-25 483,-25 483,-6 312,-6"/>
<text text-anchor="middle" x="397.5" y="-13" font-family="Helvetica" font-size="10.00">lib/Target/ARC/ARCAsmPrinter.cpp</text>
</a>
</g>
</g>
<!-- Node7&#45;&gt;Node8 -->
<g id="edge7" class="edge">
<title>Node7&#45;&gt;Node8</title>
<path fill="none" stroke="midnightblue" d="M551.16,-129.24C536.49,-120.69 517.59,-109.22 501.5,-98 483.34,-85.33 479.91,-80.68 462.5,-67 443.62,-52.17 421.53,-35.05 408.57,-25.04"/>
<polygon fill="midnightblue" stroke="midnightblue" points="549.71,-132.44 560.12,-134.4 553.21,-126.38 549.71,-132.44"/>
</g>
<!-- Node9 -->
<g id="node9" class="node">
<title>Node9</title>
<g id="a_node9"><a xlink:href="ARCFrameLowering_8cpp.html" target="_top" xlink:title=" ">
<polygon fill="none" stroke="black" points="659,-73 659,-92 848,-92 848,-73 659,-73"/>
<text text-anchor="middle" x="753.5" y="-80" font-family="Helvetica" font-size="10.00">lib/Target/ARC/ARCFrameLowering.cpp</text>
</a>
</g>
</g>
<!-- Node7&#45;&gt;Node9 -->
<g id="edge9" class="edge">
<title>Node7&#45;&gt;Node9</title>
<path fill="none" stroke="midnightblue" d="M610.71,-131.23C645.31,-119.67 697.27,-102.3 728.04,-92.01"/>
<polygon fill="midnightblue" stroke="midnightblue" points="609.38,-127.99 601,-134.48 611.6,-134.62 609.38,-127.99"/>
</g>
<!-- Node10 -->
<g id="node10" class="node">
<title>Node10</title>
<g id="a_node10"><a xlink:href="ARCISelLowering_8cpp.html" target="_top" xlink:title=" ">
<polygon fill="none" stroke="black" points="821,-6 821,-25 1000,-25 1000,-6 821,-6"/>
<text text-anchor="middle" x="910.5" y="-13" font-family="Helvetica" font-size="10.00">lib/Target/ARC/ARCISelLowering.cpp</text>
</a>
</g>
</g>
<!-- Node7&#45;&gt;Node10 -->
<g id="edge11" class="edge">
<title>Node7&#45;&gt;Node10</title>
<path fill="none" stroke="midnightblue" d="M662.3,-136.86C732.97,-130.47 826,-118.47 857.5,-98 885.1,-80.07 901.4,-42.17 907.61,-25.12"/>
<polygon fill="midnightblue" stroke="midnightblue" points="661.7,-133.4 652.04,-137.76 662.31,-140.37 661.7,-133.4"/>
</g>
<!-- Node11 -->
<g id="node11" class="node">
<title>Node11</title>
<g id="a_node11"><a xlink:href="ARCSubtarget_8cpp.html" target="_top" xlink:title=" ">
<polygon fill="none" stroke="black" points="904.5,-73 904.5,-92 1068.5,-92 1068.5,-73 904.5,-73"/>
<text text-anchor="middle" x="986.5" y="-80" font-family="Helvetica" font-size="10.00">lib/Target/ARC/ARCSubtarget.cpp</text>
</a>
</g>
</g>
<!-- Node7&#45;&gt;Node11 -->
<g id="edge13" class="edge">
<title>Node7&#45;&gt;Node11</title>
<path fill="none" stroke="midnightblue" d="M646.16,-133.07C710.02,-124.06 806.58,-110.33 890.5,-98 903.51,-96.09 917.5,-94 930.67,-92.01"/>
<polygon fill="midnightblue" stroke="midnightblue" points="645.62,-129.61 636.2,-134.48 646.59,-136.54 645.62,-129.61"/>
</g>
<!-- Node12 -->
<g id="node12" class="node">
<title>Node12</title>
<g id="a_node12"><a xlink:href="ARCTargetMachine_8h.html" target="_top" xlink:title=" ">
<polygon fill="none" stroke="black" points="510,-67.5 510,-97.5 641,-97.5 641,-67.5 510,-67.5"/>
<text text-anchor="start" x="518" y="-85.5" font-family="Helvetica" font-size="10.00">lib/Target/ARC/ARCTarget</text>
<text text-anchor="middle" x="575.5" y="-74.5" font-family="Helvetica" font-size="10.00">Machine.h</text>
</a>
</g>
</g>
<!-- Node7&#45;&gt;Node12 -->
<g id="edge14" class="edge">
<title>Node7&#45;&gt;Node12</title>
<path fill="none" stroke="midnightblue" d="M575.5,-124.23C575.5,-115.59 575.5,-105.5 575.5,-97.52"/>
<polygon fill="midnightblue" stroke="midnightblue" points="572,-124.48 575.5,-134.48 579,-124.48 572,-124.48"/>
</g>
<!-- Node12&#45;&gt;Node2 -->
<g id="edge16" class="edge">
<title>Node12&#45;&gt;Node2</title>
<path fill="none" stroke="midnightblue" d="M499.87,-71.64C487.39,-70.06 474.59,-68.46 462.5,-67 321.29,-49.95 285.15,-52.18 144.5,-31 141.41,-30.53 138.25,-30.04 135.06,-29.51"/>
<polygon fill="midnightblue" stroke="midnightblue" points="499.43,-75.11 509.79,-72.9 500.31,-68.17 499.43,-75.11"/>
</g>
<!-- Node12&#45;&gt;Node5 -->
<g id="edge19" class="edge">
<title>Node12&#45;&gt;Node5</title>
<path fill="none" stroke="midnightblue" d="M499.74,-67.51C438.64,-56.23 353.39,-40.48 293.8,-29.48"/>
<polygon fill="midnightblue" stroke="midnightblue" points="499.24,-70.98 509.7,-69.35 500.51,-64.09 499.24,-70.98"/>
</g>
<!-- Node12&#45;&gt;Node8 -->
<g id="edge15" class="edge">
<title>Node12&#45;&gt;Node8</title>
<path fill="none" stroke="midnightblue" d="M527.43,-63.95C492.86,-51.32 447.75,-34.85 420.8,-25.01"/>
<polygon fill="midnightblue" stroke="midnightblue" points="526.28,-67.25 536.88,-67.4 528.68,-60.68 526.28,-67.25"/>
</g>
<!-- Node12&#45;&gt;Node10 -->
<g id="edge18" class="edge">
<title>Node12&#45;&gt;Node10</title>
<path fill="none" stroke="midnightblue" d="M651.26,-66.8C717.54,-53.94 811.52,-35.7 866.24,-25.09"/>
<polygon fill="midnightblue" stroke="midnightblue" points="650.44,-63.39 641.29,-68.74 651.77,-70.27 650.44,-63.39"/>
</g>
<!-- Node13 -->
<g id="node13" class="node">
<title>Node13</title>
<g id="a_node13"><a xlink:href="ARCISelDAGToDAG_8cpp.html" target="_top" xlink:title=" ">
<polygon fill="none" stroke="black" points="501.5,-0.5 501.5,-30.5 653.5,-30.5 653.5,-0.5 501.5,-0.5"/>
<text text-anchor="start" x="509.5" y="-18.5" font-family="Helvetica" font-size="10.00">lib/Target/ARC/ARCISelDAGTo</text>
<text text-anchor="middle" x="577.5" y="-7.5" font-family="Helvetica" font-size="10.00">DAG.cpp</text>
</a>
</g>
</g>
<!-- Node12&#45;&gt;Node13 -->
<g id="edge17" class="edge">
<title>Node12&#45;&gt;Node13</title>
<path fill="none" stroke="midnightblue" d="M576.25,-57.11C576.53,-48.15 576.83,-38.32 577.07,-30.58"/>
<polygon fill="midnightblue" stroke="midnightblue" points="572.74,-57.29 575.93,-67.4 579.74,-57.51 572.74,-57.29"/>
</g>
<!-- Node14 -->
<g id="node14" class="node">
<title>Node14</title>
<g id="a_node14"><a xlink:href="ARCTargetMachine_8cpp.html" target="_top" xlink:title=" ">
<polygon fill="none" stroke="black" points="672,-0.5 672,-30.5 803,-30.5 803,-0.5 672,-0.5"/>
<text text-anchor="start" x="680" y="-18.5" font-family="Helvetica" font-size="10.00">lib/Target/ARC/ARCTarget</text>
<text text-anchor="middle" x="737.5" y="-7.5" font-family="Helvetica" font-size="10.00">Machine.cpp</text>
</a>
</g>
</g>
<!-- Node12&#45;&gt;Node14 -->
<g id="edge20" class="edge">
<title>Node12&#45;&gt;Node14</title>
<path fill="none" stroke="midnightblue" d="M620.25,-63.54C646.17,-53.14 678.34,-40.24 702.42,-30.58"/>
<polygon fill="midnightblue" stroke="midnightblue" points="618.63,-60.42 610.65,-67.4 621.24,-66.92 618.63,-60.42"/>
</g>
</g>
</svg>
