<?xml version="1.0" encoding="UTF-8" standalone="no"?>
<!DOCTYPE svg PUBLIC "-//W3C//DTD SVG 1.1//EN"
 "http://www.w3.org/Graphics/SVG/1.1/DTD/svg11.dtd">
<!-- Generated by graphviz version 2.44.0 (0)
 -->
<!-- Title: include/llvm/Support/BinaryStream.h Pages: 1 -->
<svg width="4252pt" height="666pt"
 viewBox="0.00 0.00 4252.00 666.00" xmlns="http://www.w3.org/2000/svg" xmlns:xlink="http://www.w3.org/1999/xlink">
<g id="graph0" class="graph" transform="scale(1 1) rotate(0) translate(4 662)">
<title>include/llvm/Support/BinaryStream.h</title>
<!-- Node1 -->
<g id="node1" class="node">
<title>Node1</title>
<g id="a_node1"><a xlink:title=" ">
<polygon fill="#bfbfbf" stroke="black" points="2815,-627.5 2815,-657.5 2921,-657.5 2921,-627.5 2815,-627.5"/>
<text text-anchor="start" x="2823" y="-645.5" font-family="Helvetica" font-size="10.00">include/llvm/Support</text>
<text text-anchor="middle" x="2868" y="-634.5" font-family="Helvetica" font-size="10.00">/BinaryStream.h</text>
</a>
</g>
</g>
<!-- Node2 -->
<g id="node2" class="node">
<title>Node2</title>
<g id="a_node2"><a xlink:href="ArrayRef_8h.html" target="_top" xlink:title=" ">
<polygon fill="none" stroke="black" points="1357,-336.5 1357,-355.5 1463,-355.5 1463,-336.5 1357,-336.5"/>
<text text-anchor="middle" x="1410" y="-343.5" font-family="Helvetica" font-size="10.00">llvm/ADT/ArrayRef.h</text>
</a>
</g>
</g>
<!-- Node1&#45;&gt;Node2 -->
<g id="edge1" class="edge">
<title>Node1&#45;&gt;Node2</title>
<path fill="none" stroke="midnightblue" d="M2814.91,-639.41C2563.3,-629.19 1503,-582.12 1503,-515 1503,-515 1503,-515 1503,-457 1503,-414.31 1461.65,-379.64 1434.09,-361.28"/>
<polygon fill="midnightblue" stroke="midnightblue" points="1435.67,-358.13 1425.36,-355.69 1431.89,-364.03 1435.67,-358.13"/>
</g>
<!-- Node16 -->
<g id="node11" class="node">
<title>Node16</title>
<g id="a_node11"><a xlink:title=" ">
<polygon fill="none" stroke="#bfbfbf" points="4069,-56.5 4069,-75.5 4115,-75.5 4115,-56.5 4069,-56.5"/>
<text text-anchor="middle" x="4092" y="-63.5" font-family="Helvetica" font-size="10.00">cstdint</text>
</a>
</g>
</g>
<!-- Node1&#45;&gt;Node16 -->
<g id="edge190" class="edge">
<title>Node1&#45;&gt;Node16</title>
<path fill="none" stroke="midnightblue" d="M2921.3,-641.95C3124.6,-643.23 3851.12,-643.94 4075,-591 4155.15,-572.05 4244,-597.36 4244,-515 4244,-515 4244,-515 4244,-177 4244,-118.68 4169.64,-88.13 4124.94,-75.03"/>
<polygon fill="midnightblue" stroke="midnightblue" points="4125.66,-71.6 4115.09,-72.28 4123.78,-78.34 4125.66,-71.6"/>
</g>
<!-- Node45 -->
<g id="node37" class="node">
<title>Node45</title>
<g id="a_node37"><a xlink:href="BitmaskEnum_8h.html" target="_top" xlink:title=" ">
<polygon fill="none" stroke="black" points="3220,-224.5 3220,-243.5 3350,-243.5 3350,-224.5 3220,-224.5"/>
<text text-anchor="middle" x="3285" y="-231.5" font-family="Helvetica" font-size="10.00">llvm/ADT/BitmaskEnum.h</text>
</a>
</g>
</g>
<!-- Node1&#45;&gt;Node45 -->
<g id="edge96" class="edge">
<title>Node1&#45;&gt;Node45</title>
<path fill="none" stroke="midnightblue" d="M2921,-632.98C3003.92,-616.7 3163.17,-572.94 3244,-468 3294.28,-402.72 3290.93,-296.67 3287.13,-253.84"/>
<polygon fill="midnightblue" stroke="midnightblue" points="3290.6,-253.33 3286.12,-243.73 3283.64,-254.03 3290.6,-253.33"/>
</g>
<!-- Node46 -->
<g id="node38" class="node">
<title>Node46</title>
<g id="a_node38"><a xlink:href="BinaryStreamError_8h.html" target="_top" xlink:title=" ">
<polygon fill="none" stroke="black" points="1280.5,-560.5 1280.5,-590.5 1415.5,-590.5 1415.5,-560.5 1280.5,-560.5"/>
<text text-anchor="start" x="1288.5" y="-578.5" font-family="Helvetica" font-size="10.00">llvm/Support/BinaryStream</text>
<text text-anchor="middle" x="1348" y="-567.5" font-family="Helvetica" font-size="10.00">Error.h</text>
</a>
</g>
</g>
<!-- Node1&#45;&gt;Node46 -->
<g id="edge101" class="edge">
<title>Node1&#45;&gt;Node46</title>
<path fill="none" stroke="midnightblue" d="M2814.69,-640.81C2630.6,-638.16 2004.62,-626.91 1489,-591 1468.43,-589.57 1446.22,-587.52 1425.65,-585.41"/>
<polygon fill="midnightblue" stroke="midnightblue" points="1426,-581.93 1415.7,-584.38 1425.28,-588.89 1426,-581.93"/>
</g>
<!-- Node48 -->
<g id="node40" class="node">
<title>Node48</title>
<g id="a_node40"><a xlink:href="llvm_2Support_2Error_8h.html" target="_top" xlink:title=" ">
<polygon fill="none" stroke="black" points="1053,-504.5 1053,-523.5 1157,-523.5 1157,-504.5 1053,-504.5"/>
<text text-anchor="middle" x="1105" y="-511.5" font-family="Helvetica" font-size="10.00">llvm/Support/Error.h</text>
</a>
</g>
</g>
<!-- Node1&#45;&gt;Node48 -->
<g id="edge189" class="edge">
<title>Node1&#45;&gt;Node48</title>
<path fill="none" stroke="midnightblue" d="M2814.93,-641.07C2555.14,-638.79 1423.84,-626.86 1271,-591 1216.75,-578.27 1158.72,-547.18 1127.69,-528.95"/>
<polygon fill="midnightblue" stroke="midnightblue" points="1129.34,-525.86 1118.96,-523.74 1125.75,-531.87 1129.34,-525.86"/>
</g>
<!-- Node62 -->
<g id="node50" class="node">
<title>Node62</title>
<g id="a_node50"><a xlink:href="Endian_8h.html" target="_top" xlink:title=" ">
<polygon fill="none" stroke="black" points="3646.5,-168.5 3646.5,-187.5 3759.5,-187.5 3759.5,-168.5 3646.5,-168.5"/>
<text text-anchor="middle" x="3703" y="-175.5" font-family="Helvetica" font-size="10.00">llvm/Support/Endian.h</text>
</a>
</g>
</g>
<!-- Node1&#45;&gt;Node62 -->
<g id="edge181" class="edge">
<title>Node1&#45;&gt;Node62</title>
<path fill="none" stroke="midnightblue" d="M2921.39,-642C3166.01,-643.61 4168,-642.41 4168,-515 4168,-515 4168,-515 4168,-401 4168,-226.58 3898.28,-189.07 3769.68,-181.1"/>
<polygon fill="midnightblue" stroke="midnightblue" points="3769.74,-177.59 3759.55,-180.51 3769.33,-184.58 3769.74,-177.59"/>
</g>
<!-- Node3 -->
<g id="node3" class="node">
<title>Node3</title>
<g id="a_node3"><a xlink:href="Hashing_8h.html" target="_top" xlink:title=" ">
<polygon fill="none" stroke="black" points="1706,-168.5 1706,-187.5 1810,-187.5 1810,-168.5 1706,-168.5"/>
<text text-anchor="middle" x="1758" y="-175.5" font-family="Helvetica" font-size="10.00">llvm/ADT/Hashing.h</text>
</a>
</g>
</g>
<!-- Node2&#45;&gt;Node3 -->
<g id="edge2" class="edge">
<title>Node2&#45;&gt;Node3</title>
<path fill="none" stroke="midnightblue" d="M1428.22,-336.31C1485.54,-308.97 1662.4,-224.6 1730.7,-192.02"/>
<polygon fill="midnightblue" stroke="midnightblue" points="1732.44,-195.07 1739.96,-187.61 1729.43,-188.75 1732.44,-195.07"/>
</g>
<!-- Node10 -->
<g id="node6" class="node">
<title>Node10</title>
<g id="a_node6"><a xlink:href="Compiler_8h.html" target="_top" xlink:title=" ">
<polygon fill="none" stroke="red" points="794,-56.5 794,-75.5 916,-75.5 916,-56.5 794,-56.5"/>
<text text-anchor="middle" x="855" y="-63.5" font-family="Helvetica" font-size="10.00">llvm/Support/Compiler.h</text>
</a>
</g>
</g>
<!-- Node2&#45;&gt;Node10 -->
<g id="edge86" class="edge">
<title>Node2&#45;&gt;Node10</title>
<path fill="none" stroke="midnightblue" d="M1356.82,-338.08C1185.96,-315.82 661.9,-247.32 659,-244 618.26,-197.41 571.64,-242.35 740,-112 760.16,-96.39 786.4,-85.58 808.72,-78.47"/>
<polygon fill="midnightblue" stroke="midnightblue" points="809.79,-81.8 818.35,-75.55 807.76,-75.1 809.79,-81.8"/>
</g>
<!-- Node15 -->
<g id="node10" class="node">
<title>Node15</title>
<g id="a_node10"><a xlink:title=" ">
<polygon fill="none" stroke="#bfbfbf" points="2567.5,-56.5 2567.5,-75.5 2616.5,-75.5 2616.5,-56.5 2567.5,-56.5"/>
<text text-anchor="middle" x="2592" y="-63.5" font-family="Helvetica" font-size="10.00">cstddef</text>
</a>
</g>
</g>
<!-- Node2&#45;&gt;Node15 -->
<g id="edge90" class="edge">
<title>Node2&#45;&gt;Node15</title>
<path fill="none" stroke="midnightblue" d="M1463.22,-341.44C1553.08,-335.14 1740.46,-320.68 1898,-300 2044.63,-280.75 2083.16,-282.32 2226,-244 2295.13,-225.45 2310.83,-215.29 2377,-188 2432.53,-165.1 2447.91,-161.91 2500,-132 2526.53,-116.77 2554.98,-95.89 2573.11,-81.94"/>
<polygon fill="midnightblue" stroke="midnightblue" points="2575.37,-84.61 2581.12,-75.71 2571.08,-79.09 2575.37,-84.61"/>
</g>
<!-- Node17 -->
<g id="node12" class="node">
<title>Node17</title>
<g id="a_node12"><a xlink:title=" ">
<polygon fill="none" stroke="#bfbfbf" points="3648,-56.5 3648,-75.5 3710,-75.5 3710,-56.5 3648,-56.5"/>
<text text-anchor="middle" x="3679" y="-63.5" font-family="Helvetica" font-size="10.00">type_traits</text>
</a>
</g>
</g>
<!-- Node2&#45;&gt;Node17 -->
<g id="edge94" class="edge">
<title>Node2&#45;&gt;Node17</title>
<path fill="none" stroke="midnightblue" d="M1463.14,-344.31C1770.5,-340.08 3309.18,-315.39 3377,-244 3397.78,-222.12 3370.78,-188.91 3348,-168 3314.12,-136.9 3230.27,-146.21 3261,-112 3285.91,-84.27 3537.21,-72.14 3637.75,-68.37"/>
<polygon fill="midnightblue" stroke="midnightblue" points="3637.97,-71.87 3647.84,-68 3637.72,-64.87 3637.97,-71.87"/>
</g>
<!-- Node21 -->
<g id="node15" class="node">
<title>Node21</title>
<g id="a_node15"><a xlink:title=" ">
<polygon fill="none" stroke="#bfbfbf" points="1593,-112.5 1593,-131.5 1649,-131.5 1649,-112.5 1593,-112.5"/>
<text text-anchor="middle" x="1621" y="-119.5" font-family="Helvetica" font-size="10.00">algorithm</text>
</a>
</g>
</g>
<!-- Node2&#45;&gt;Node21 -->
<g id="edge87" class="edge">
<title>Node2&#45;&gt;Node21</title>
<path fill="none" stroke="midnightblue" d="M1413,-336.33C1423.17,-308.19 1458.9,-218.29 1517,-168 1536,-151.55 1561.94,-140.31 1583.16,-133.18"/>
<polygon fill="midnightblue" stroke="midnightblue" points="1584.38,-136.46 1592.84,-130.09 1582.25,-129.8 1584.38,-136.46"/>
</g>
<!-- Node22 -->
<g id="node16" class="node">
<title>Node22</title>
<g id="a_node16"><a xlink:title=" ">
<polygon fill="none" stroke="#bfbfbf" points="3088,-112.5 3088,-131.5 3138,-131.5 3138,-112.5 3088,-112.5"/>
<text text-anchor="middle" x="3113" y="-119.5" font-family="Helvetica" font-size="10.00">cassert</text>
</a>
</g>
</g>
<!-- Node2&#45;&gt;Node22 -->
<g id="edge89" class="edge">
<title>Node2&#45;&gt;Node22</title>
<path fill="none" stroke="midnightblue" d="M1463.15,-342.14C1574.15,-335.99 1838.66,-320.39 2060,-300 2114.18,-295.01 2982.85,-209.11 3033,-188 3059.16,-176.99 3083.62,-154.67 3098.44,-139.28"/>
<polygon fill="midnightblue" stroke="midnightblue" points="3101.37,-141.26 3105.63,-131.56 3096.25,-136.49 3101.37,-141.26"/>
</g>
<!-- Node25 -->
<g id="node19" class="node">
<title>Node25</title>
<g id="a_node19"><a xlink:href="None_8h.html" target="_top" xlink:title=" ">
<polygon fill="none" stroke="black" points="782,-168.5 782,-187.5 874,-187.5 874,-168.5 782,-168.5"/>
<text text-anchor="middle" x="828" y="-175.5" font-family="Helvetica" font-size="10.00">llvm/ADT/None.h</text>
</a>
</g>
</g>
<!-- Node2&#45;&gt;Node25 -->
<g id="edge22" class="edge">
<title>Node2&#45;&gt;Node25</title>
<path fill="none" stroke="midnightblue" d="M1402.79,-336.33C1390.05,-321.71 1361.95,-292.52 1331,-280 1145.82,-205.1 1060.7,-335.24 883,-244 862.72,-233.59 846.91,-212.13 837.55,-196.72"/>
<polygon fill="midnightblue" stroke="midnightblue" points="840.36,-194.57 832.35,-187.64 834.28,-198.05 840.36,-194.57"/>
</g>
<!-- Node26 -->
<g id="node20" class="node">
<title>Node26</title>
<g id="a_node20"><a xlink:href="SmallVector_8h.html" target="_top" xlink:title=" ">
<polygon fill="none" stroke="black" points="1323.5,-224.5 1323.5,-243.5 1444.5,-243.5 1444.5,-224.5 1323.5,-224.5"/>
<text text-anchor="middle" x="1384" y="-231.5" font-family="Helvetica" font-size="10.00">llvm/ADT/SmallVector.h</text>
</a>
</g>
</g>
<!-- Node2&#45;&gt;Node26 -->
<g id="edge23" class="edge">
<title>Node2&#45;&gt;Node26</title>
<path fill="none" stroke="midnightblue" d="M1407.96,-336.37C1403.76,-318.62 1394.08,-277.67 1388.4,-253.6"/>
<polygon fill="midnightblue" stroke="midnightblue" points="1391.74,-252.52 1386.03,-243.59 1384.92,-254.13 1391.74,-252.52"/>
</g>
<!-- Node34 -->
<g id="node26" class="node">
<title>Node34</title>
<g id="a_node26"><a xlink:title=" ">
<polygon fill="none" stroke="#bfbfbf" points="1132,-168.5 1132,-187.5 1204,-187.5 1204,-168.5 1132,-168.5"/>
<text text-anchor="middle" x="1168" y="-175.5" font-family="Helvetica" font-size="10.00">initializer_list</text>
</a>
</g>
</g>
<!-- Node2&#45;&gt;Node34 -->
<g id="edge91" class="edge">
<title>Node2&#45;&gt;Node34</title>
<path fill="none" stroke="midnightblue" d="M1365.75,-336.45C1338.04,-329.65 1302.51,-318.19 1275,-300 1232.29,-271.76 1196.08,-222.26 1178.82,-196.18"/>
<polygon fill="midnightblue" stroke="midnightblue" points="1181.71,-194.21 1173.34,-187.72 1175.83,-198.01 1181.71,-194.21"/>
</g>
<!-- Node35 -->
<g id="node27" class="node">
<title>Node35</title>
<g id="a_node27"><a xlink:title=" ">
<polygon fill="none" stroke="#bfbfbf" points="1526.5,-168.5 1526.5,-187.5 1573.5,-187.5 1573.5,-168.5 1526.5,-168.5"/>
<text text-anchor="middle" x="1550" y="-175.5" font-family="Helvetica" font-size="10.00">iterator</text>
</a>
</g>
</g>
<!-- Node2&#45;&gt;Node35 -->
<g id="edge92" class="edge">
<title>Node2&#45;&gt;Node35</title>
<path fill="none" stroke="midnightblue" d="M1417.29,-336.38C1424.94,-327.32 1437.32,-312.66 1448,-300 1479.58,-262.57 1516.63,-218.61 1536.22,-195.35"/>
<polygon fill="midnightblue" stroke="midnightblue" points="1539.06,-197.41 1542.83,-187.51 1533.71,-192.9 1539.06,-197.41"/>
</g>
<!-- Node36 -->
<g id="node28" class="node">
<title>Node36</title>
<g id="a_node28"><a xlink:title=" ">
<polygon fill="none" stroke="#bfbfbf" points="1060.5,-168.5 1060.5,-187.5 1113.5,-187.5 1113.5,-168.5 1060.5,-168.5"/>
<text text-anchor="middle" x="1087" y="-175.5" font-family="Helvetica" font-size="10.00">memory</text>
</a>
</g>
</g>
<!-- Node2&#45;&gt;Node36 -->
<g id="edge93" class="edge">
<title>Node2&#45;&gt;Node36</title>
<path fill="none" stroke="midnightblue" d="M1356.75,-336.49C1323.77,-329.75 1281.31,-318.34 1247,-300 1201.42,-275.64 1200.59,-254.67 1159,-224 1143.62,-212.66 1125.36,-201.27 1111.08,-192.78"/>
<polygon fill="midnightblue" stroke="midnightblue" points="1112.73,-189.7 1102.34,-187.66 1109.19,-195.73 1112.73,-189.7"/>
</g>
<!-- Node38 -->
<g id="node30" class="node">
<title>Node38</title>
<g id="a_node30"><a xlink:href="STLExtras_8h.html" target="_top" xlink:title=" ">
<polygon fill="none" stroke="black" points="1774.5,-280.5 1774.5,-299.5 1889.5,-299.5 1889.5,-280.5 1774.5,-280.5"/>
<text text-anchor="middle" x="1832" y="-287.5" font-family="Helvetica" font-size="10.00">llvm/ADT/STLExtras.h</text>
</a>
</g>
</g>
<!-- Node2&#45;&gt;Node38 -->
<g id="edge53" class="edge">
<title>Node2&#45;&gt;Node38</title>
<path fill="none" stroke="midnightblue" d="M1463.03,-337.84C1467.75,-337.21 1472.46,-336.59 1477,-336 1576.96,-322.95 1692.83,-308.36 1764.28,-299.43"/>
<polygon fill="midnightblue" stroke="midnightblue" points="1765,-302.87 1774.49,-298.16 1764.14,-295.92 1765,-302.87"/>
</g>
<!-- Node43 -->
<g id="node35" class="node">
<title>Node43</title>
<g id="a_node35"><a xlink:title=" ">
<polygon fill="none" stroke="#bfbfbf" points="1284,-280.5 1284,-299.5 1322,-299.5 1322,-280.5 1284,-280.5"/>
<text text-anchor="middle" x="1303" y="-287.5" font-family="Helvetica" font-size="10.00">array</text>
</a>
</g>
</g>
<!-- Node2&#45;&gt;Node43 -->
<g id="edge88" class="edge">
<title>Node2&#45;&gt;Node43</title>
<path fill="none" stroke="midnightblue" d="M1392.81,-336.32C1375.65,-327.66 1349.05,-314.24 1329.25,-304.25"/>
<polygon fill="midnightblue" stroke="midnightblue" points="1330.65,-301.04 1320.15,-299.65 1327.5,-307.28 1330.65,-301.04"/>
</g>
<!-- Node44 -->
<g id="node36" class="node">
<title>Node44</title>
<g id="a_node36"><a xlink:title=" ">
<polygon fill="none" stroke="#bfbfbf" points="858.5,-280.5 858.5,-299.5 901.5,-299.5 901.5,-280.5 858.5,-280.5"/>
<text text-anchor="middle" x="880" y="-287.5" font-family="Helvetica" font-size="10.00">vector</text>
</a>
</g>
</g>
<!-- Node2&#45;&gt;Node44 -->
<g id="edge95" class="edge">
<title>Node2&#45;&gt;Node44</title>
<path fill="none" stroke="midnightblue" d="M1356.65,-342.84C1265.69,-338.55 1074.99,-326.95 916,-300 914.53,-299.75 913.03,-299.47 911.53,-299.17"/>
<polygon fill="midnightblue" stroke="midnightblue" points="912.11,-295.72 901.59,-296.97 910.59,-302.55 912.11,-295.72"/>
</g>
<!-- Node4 -->
<g id="node4" class="node">
<title>Node4</title>
<g id="a_node4"><a xlink:href="llvm_2Support_2DataTypes_8h.html" target="_top" xlink:title=" ">
<polygon fill="none" stroke="red" points="3270,-112.5 3270,-131.5 3400,-131.5 3400,-112.5 3270,-112.5"/>
<text text-anchor="middle" x="3335" y="-119.5" font-family="Helvetica" font-size="10.00">llvm/Support/DataTypes.h</text>
</a>
</g>
</g>
<!-- Node3&#45;&gt;Node4 -->
<g id="edge3" class="edge">
<title>Node3&#45;&gt;Node4</title>
<path fill="none" stroke="midnightblue" d="M1810.06,-174.03C1844.85,-172.11 1891.66,-169.68 1933,-168 2472.35,-146.14 2607.61,-152.91 3147,-132 3183.99,-130.57 3225.05,-128.64 3259.35,-126.94"/>
<polygon fill="midnightblue" stroke="midnightblue" points="3259.95,-130.41 3269.76,-126.42 3259.6,-123.42 3259.95,-130.41"/>
</g>
<!-- Node9 -->
<g id="node5" class="node">
<title>Node9</title>
<g id="a_node5"><a xlink:href="llvm_2Support_2ErrorHandling_8h.html" target="_top" xlink:title=" ">
<polygon fill="none" stroke="black" points="425.5,-112.5 425.5,-131.5 568.5,-131.5 568.5,-112.5 425.5,-112.5"/>
<text text-anchor="middle" x="497" y="-119.5" font-family="Helvetica" font-size="10.00">llvm/Support/ErrorHandling.h</text>
</a>
</g>
</g>
<!-- Node3&#45;&gt;Node9 -->
<g id="edge4" class="edge">
<title>Node3&#45;&gt;Node9</title>
<path fill="none" stroke="midnightblue" d="M1705.64,-174.18C1670.64,-172.33 1623.57,-169.91 1582,-168 1190.98,-150 1093.09,-148.58 702,-132 661.5,-130.28 616.49,-128.31 578.99,-126.66"/>
<polygon fill="midnightblue" stroke="midnightblue" points="578.77,-123.14 568.63,-126.2 578.46,-130.14 578.77,-123.14"/>
</g>
<!-- Node13 -->
<g id="node8" class="node">
<title>Node13</title>
<g id="a_node8"><a xlink:title=" ">
<polygon fill="none" stroke="#bfbfbf" points="207.5,-56.5 207.5,-75.5 248.5,-75.5 248.5,-56.5 207.5,-56.5"/>
<text text-anchor="middle" x="228" y="-63.5" font-family="Helvetica" font-size="10.00">string</text>
</a>
</g>
</g>
<!-- Node3&#45;&gt;Node13 -->
<g id="edge19" class="edge">
<title>Node3&#45;&gt;Node13</title>
<path fill="none" stroke="midnightblue" d="M1705.78,-173.25C1463.03,-155.79 448.71,-82.87 258.73,-69.21"/>
<polygon fill="midnightblue" stroke="midnightblue" points="258.84,-65.71 248.61,-68.48 258.33,-72.69 258.84,-65.71"/>
</g>
<!-- Node14 -->
<g id="node9" class="node">
<title>Node14</title>
<g id="a_node9"><a xlink:href="SwapByteOrder_8h.html" target="_top" xlink:title=" ">
<polygon fill="none" stroke="red" points="3532,-112.5 3532,-131.5 3684,-131.5 3684,-112.5 3532,-112.5"/>
<text text-anchor="middle" x="3608" y="-119.5" font-family="Helvetica" font-size="10.00">llvm/Support/SwapByteOrder.h</text>
</a>
</g>
</g>
<!-- Node3&#45;&gt;Node14 -->
<g id="edge8" class="edge">
<title>Node3&#45;&gt;Node14</title>
<path fill="none" stroke="midnightblue" d="M1810.05,-173.95C1844.85,-172.01 1891.66,-169.57 1933,-168 2588.72,-143.15 2753.2,-154.82 3409,-132 3445.96,-130.71 3486.77,-128.93 3521.76,-127.29"/>
<polygon fill="midnightblue" stroke="midnightblue" points="3522.12,-130.78 3531.95,-126.81 3521.79,-123.79 3522.12,-130.78"/>
</g>
<!-- Node19 -->
<g id="node13" class="node">
<title>Node19</title>
<g id="a_node13"><a xlink:href="type__traits_8h.html" target="_top" xlink:title=" ">
<polygon fill="none" stroke="black" points="1374.5,-112.5 1374.5,-131.5 1503.5,-131.5 1503.5,-112.5 1374.5,-112.5"/>
<text text-anchor="middle" x="1439" y="-119.5" font-family="Helvetica" font-size="10.00">llvm/Support/type_traits.h</text>
</a>
</g>
</g>
<!-- Node3&#45;&gt;Node19 -->
<g id="edge12" class="edge">
<title>Node3&#45;&gt;Node19</title>
<path fill="none" stroke="midnightblue" d="M1707.45,-168.44C1650.99,-158.89 1559.63,-143.42 1499.43,-133.23"/>
<polygon fill="midnightblue" stroke="midnightblue" points="1499.75,-129.73 1489.31,-131.52 1498.59,-136.64 1499.75,-129.73"/>
</g>
<!-- Node20 -->
<g id="node14" class="node">
<title>Node20</title>
<g id="a_node14"><a xlink:title=" ">
<polygon fill="none" stroke="#bfbfbf" points="1986,-56.5 1986,-75.5 2026,-75.5 2026,-56.5 1986,-56.5"/>
<text text-anchor="middle" x="2006" y="-63.5" font-family="Helvetica" font-size="10.00">utility</text>
</a>
</g>
</g>
<!-- Node3&#45;&gt;Node20 -->
<g id="edge21" class="edge">
<title>Node3&#45;&gt;Node20</title>
<path fill="none" stroke="midnightblue" d="M1776.31,-168.42C1803.28,-155.83 1855.35,-131.69 1900,-112 1925.58,-100.72 1954.85,-88.33 1976.14,-79.42"/>
<polygon fill="midnightblue" stroke="midnightblue" points="1977.73,-82.54 1985.61,-75.46 1975.03,-76.09 1977.73,-82.54"/>
</g>
<!-- Node3&#45;&gt;Node21 -->
<g id="edge16" class="edge">
<title>Node3&#45;&gt;Node21</title>
<path fill="none" stroke="midnightblue" d="M1736.29,-168.44C1713.65,-159.52 1677.93,-145.44 1652.25,-135.32"/>
<polygon fill="midnightblue" stroke="midnightblue" points="1653.19,-131.93 1642.61,-131.52 1650.63,-138.44 1653.19,-131.93"/>
</g>
<!-- Node3&#45;&gt;Node22 -->
<g id="edge17" class="edge">
<title>Node3&#45;&gt;Node22</title>
<path fill="none" stroke="midnightblue" d="M1810.06,-174.14C1844.86,-172.28 1891.67,-169.85 1933,-168 2384.61,-147.78 2933.7,-129.01 3077.28,-124.19"/>
<polygon fill="midnightblue" stroke="midnightblue" points="3077.79,-127.67 3087.67,-123.84 3077.56,-120.68 3077.79,-127.67"/>
</g>
<!-- Node23 -->
<g id="node17" class="node">
<title>Node23</title>
<g id="a_node17"><a xlink:title=" ">
<polygon fill="none" stroke="#bfbfbf" points="2683,-112.5 2683,-131.5 2729,-131.5 2729,-112.5 2683,-112.5"/>
<text text-anchor="middle" x="2706" y="-119.5" font-family="Helvetica" font-size="10.00">cstring</text>
</a>
</g>
</g>
<!-- Node3&#45;&gt;Node23 -->
<g id="edge18" class="edge">
<title>Node3&#45;&gt;Node23</title>
<path fill="none" stroke="midnightblue" d="M1810.08,-172.15C1826.67,-170.7 1845.1,-169.18 1862,-168 2177.16,-145.97 2559.19,-129.16 2672.69,-124.38"/>
<polygon fill="midnightblue" stroke="midnightblue" points="2672.98,-127.87 2682.82,-123.95 2672.69,-120.88 2672.98,-127.87"/>
</g>
<!-- Node24 -->
<g id="node18" class="node">
<title>Node24</title>
<g id="a_node18"><a xlink:title=" ">
<polygon fill="none" stroke="#bfbfbf" points="2202,-112.5 2202,-131.5 2240,-131.5 2240,-112.5 2202,-112.5"/>
<text text-anchor="middle" x="2221" y="-119.5" font-family="Helvetica" font-size="10.00">tuple</text>
</a>
</g>
</g>
<!-- Node3&#45;&gt;Node24 -->
<g id="edge20" class="edge">
<title>Node3&#45;&gt;Node24</title>
<path fill="none" stroke="midnightblue" d="M1810.22,-169.77C1814.88,-169.16 1819.52,-168.56 1824,-168 1961.57,-150.83 2126.33,-133.04 2191.96,-126.06"/>
<polygon fill="midnightblue" stroke="midnightblue" points="2192.4,-129.54 2201.97,-125 2191.66,-122.58 2192.4,-129.54"/>
</g>
<!-- Node9&#45;&gt;Node10 -->
<g id="edge5" class="edge">
<title>Node9&#45;&gt;Node10</title>
<path fill="none" stroke="midnightblue" d="M553.73,-112.44C617.49,-102.83 720.9,-87.23 788.43,-77.04"/>
<polygon fill="midnightblue" stroke="midnightblue" points="789.17,-80.47 798.54,-75.52 788.13,-73.55 789.17,-80.47"/>
</g>
<!-- Node9&#45;&gt;Node13 -->
<g id="edge7" class="edge">
<title>Node9&#45;&gt;Node13</title>
<path fill="none" stroke="midnightblue" d="M454.38,-112.44C399.84,-101.49 306.68,-82.8 258.65,-73.15"/>
<polygon fill="midnightblue" stroke="midnightblue" points="259.05,-69.66 248.56,-71.13 257.68,-76.53 259.05,-69.66"/>
</g>
<!-- Node11 -->
<g id="node7" class="node">
<title>Node11</title>
<g id="a_node7"><a xlink:title=" ">
<polygon fill="none" stroke="#bfbfbf" points="792.5,-0.5 792.5,-19.5 917.5,-19.5 917.5,-0.5 792.5,-0.5"/>
<text text-anchor="middle" x="855" y="-7.5" font-family="Helvetica" font-size="10.00">llvm/Config/llvm&#45;config.h</text>
</a>
</g>
</g>
<!-- Node10&#45;&gt;Node11 -->
<g id="edge6" class="edge">
<title>Node10&#45;&gt;Node11</title>
<path fill="none" stroke="midnightblue" d="M855,-56.08C855,-49.01 855,-38.86 855,-29.99"/>
<polygon fill="midnightblue" stroke="midnightblue" points="858.5,-29.75 855,-19.75 851.5,-29.75 858.5,-29.75"/>
</g>
<!-- Node14&#45;&gt;Node15 -->
<g id="edge9" class="edge">
<title>Node14&#45;&gt;Node15</title>
<path fill="none" stroke="midnightblue" d="M3531.92,-113.12C3527.21,-112.71 3522.54,-112.34 3518,-112 3170.93,-86.23 2749.55,-71.89 2626.98,-68.06"/>
<polygon fill="midnightblue" stroke="midnightblue" points="2626.81,-64.55 2616.71,-67.74 2626.6,-71.55 2626.81,-64.55"/>
</g>
<!-- Node14&#45;&gt;Node16 -->
<g id="edge10" class="edge">
<title>Node14&#45;&gt;Node16</title>
<path fill="none" stroke="midnightblue" d="M3684.16,-112.5C3791.2,-100.56 3981.65,-79.31 4058.48,-70.74"/>
<polygon fill="midnightblue" stroke="midnightblue" points="4059,-74.2 4068.55,-69.62 4058.22,-67.25 4059,-74.2"/>
</g>
<!-- Node14&#45;&gt;Node17 -->
<g id="edge11" class="edge">
<title>Node14&#45;&gt;Node17</title>
<path fill="none" stroke="midnightblue" d="M3619.41,-112.32C3630.11,-104.18 3646.34,-91.84 3659.16,-82.09"/>
<polygon fill="midnightblue" stroke="midnightblue" points="3661.54,-84.67 3667.39,-75.83 3657.31,-79.1 3661.54,-84.67"/>
</g>
<!-- Node19&#45;&gt;Node10 -->
<g id="edge13" class="edge">
<title>Node19&#45;&gt;Node10</title>
<path fill="none" stroke="midnightblue" d="M1374.27,-115.01C1264.01,-104.82 1040.59,-84.16 926.11,-73.58"/>
<polygon fill="midnightblue" stroke="midnightblue" points="926.33,-70.08 916.05,-72.65 925.69,-77.05 926.33,-70.08"/>
</g>
<!-- Node19&#45;&gt;Node17 -->
<g id="edge14" class="edge">
<title>Node19&#45;&gt;Node17</title>
<path fill="none" stroke="midnightblue" d="M1503.57,-116.43C1528.67,-114.8 1557.67,-113.1 1584,-112 2411.05,-77.46 3422.92,-68.77 3637.73,-67.26"/>
<polygon fill="midnightblue" stroke="midnightblue" points="3637.94,-70.76 3647.92,-67.19 3637.9,-63.76 3637.94,-70.76"/>
</g>
<!-- Node19&#45;&gt;Node20 -->
<g id="edge15" class="edge">
<title>Node19&#45;&gt;Node20</title>
<path fill="none" stroke="midnightblue" d="M1503.66,-113.52C1508.51,-112.99 1513.33,-112.48 1518,-112 1691.03,-94.17 1898.93,-76.12 1975.65,-69.57"/>
<polygon fill="midnightblue" stroke="midnightblue" points="1976.33,-73.03 1986,-68.69 1975.74,-66.05 1976.33,-73.03"/>
</g>
<!-- Node26&#45;&gt;Node9 -->
<g id="edge27" class="edge">
<title>Node26&#45;&gt;Node9</title>
<path fill="none" stroke="midnightblue" d="M1366.88,-224.49C1332.79,-207.61 1258.57,-171.21 1246,-168 1214.14,-159.86 766.61,-136.57 578.92,-127.09"/>
<polygon fill="midnightblue" stroke="midnightblue" points="578.99,-123.59 568.82,-126.58 578.64,-130.58 578.99,-123.59"/>
</g>
<!-- Node26&#45;&gt;Node10 -->
<g id="edge26" class="edge">
<title>Node26&#45;&gt;Node10</title>
<path fill="none" stroke="midnightblue" d="M1373.48,-224.48C1355.84,-210.61 1318.7,-183.17 1283,-168 1163.2,-117.09 1013.12,-89.2 926.24,-76.24"/>
<polygon fill="midnightblue" stroke="midnightblue" points="926.63,-72.76 916.23,-74.77 925.61,-79.68 926.63,-72.76"/>
</g>
<!-- Node26&#45;&gt;Node15 -->
<g id="edge43" class="edge">
<title>Node26&#45;&gt;Node15</title>
<path fill="none" stroke="midnightblue" d="M1390.32,-224.3C1400.62,-210.66 1422.27,-184.14 1446,-168 1473.37,-149.39 1551.67,-119.06 1584,-112 1680.6,-90.9 2390.95,-72.01 2557.24,-67.85"/>
<polygon fill="midnightblue" stroke="midnightblue" points="2557.49,-71.35 2567.4,-67.6 2557.31,-64.35 2557.49,-71.35"/>
</g>
<!-- Node26&#45;&gt;Node17 -->
<g id="edge51" class="edge">
<title>Node26&#45;&gt;Node17</title>
<path fill="none" stroke="midnightblue" d="M1444.8,-231.64C1724.94,-225.32 2879.18,-198.67 2915,-188 2916.94,-187.42 3037.08,-112.62 3039,-112 3151.09,-76.09 3514.29,-68.8 3637.6,-67.35"/>
<polygon fill="midnightblue" stroke="midnightblue" points="3637.8,-70.85 3647.76,-67.24 3637.72,-63.85 3637.8,-70.85"/>
</g>
<!-- Node26&#45;&gt;Node19 -->
<g id="edge40" class="edge">
<title>Node26&#45;&gt;Node19</title>
<path fill="none" stroke="midnightblue" d="M1386.45,-224.3C1390.22,-211.55 1398.03,-187.22 1408,-168 1413.13,-158.1 1420.08,-147.81 1426.1,-139.57"/>
<polygon fill="midnightblue" stroke="midnightblue" points="1428.92,-141.65 1432.14,-131.55 1423.33,-137.44 1428.92,-141.65"/>
</g>
<!-- Node26&#45;&gt;Node20 -->
<g id="edge52" class="edge">
<title>Node26&#45;&gt;Node20</title>
<path fill="none" stroke="midnightblue" d="M1378.5,-224.3C1365.34,-202.3 1335.27,-143.89 1365,-112 1407.04,-66.9 1854.51,-66.14 1975.82,-66.77"/>
<polygon fill="midnightblue" stroke="midnightblue" points="1975.87,-70.27 1985.89,-66.83 1975.91,-63.27 1975.87,-70.27"/>
</g>
<!-- Node26&#45;&gt;Node21 -->
<g id="edge41" class="edge">
<title>Node26&#45;&gt;Node21</title>
<path fill="none" stroke="midnightblue" d="M1395.13,-224.37C1413.01,-210.84 1449.64,-184.46 1484,-168 1516.17,-152.58 1554.98,-140.39 1583.06,-132.6"/>
<polygon fill="midnightblue" stroke="midnightblue" points="1584.16,-135.93 1592.89,-129.94 1582.32,-129.18 1584.16,-135.93"/>
</g>
<!-- Node26&#45;&gt;Node22 -->
<g id="edge42" class="edge">
<title>Node26&#45;&gt;Node22</title>
<path fill="none" stroke="midnightblue" d="M1444.88,-231.84C1724.28,-226.42 2873.24,-203.31 2948,-188 2999.66,-177.42 3056.06,-151.9 3087.72,-136.17"/>
<polygon fill="midnightblue" stroke="midnightblue" points="3089.37,-139.26 3096.72,-131.63 3086.22,-133.01 3089.37,-139.26"/>
</g>
<!-- Node26&#45;&gt;Node23 -->
<g id="edge45" class="edge">
<title>Node26&#45;&gt;Node23</title>
<path fill="none" stroke="midnightblue" d="M1444.63,-230.23C1534.7,-225.44 1708.95,-213.54 1855,-188 1890.25,-181.83 1897.64,-173.51 1933,-168 2078.99,-145.25 2544.21,-128.39 2672.79,-124.08"/>
<polygon fill="midnightblue" stroke="midnightblue" points="2672.95,-127.58 2682.83,-123.75 2672.71,-120.58 2672.95,-127.58"/>
</g>
<!-- Node27 -->
<g id="node21" class="node">
<title>Node27</title>
<g id="a_node21"><a xlink:href="iterator__range_8h.html" target="_top" xlink:title="This provides a very simple, boring adaptor for a begin and end iterator into a range type.">
<polygon fill="none" stroke="black" points="1942,-168.5 1942,-187.5 2070,-187.5 2070,-168.5 1942,-168.5"/>
<text text-anchor="middle" x="2006" y="-175.5" font-family="Helvetica" font-size="10.00">llvm/ADT/iterator_range.h</text>
</a>
</g>
</g>
<!-- Node26&#45;&gt;Node27 -->
<g id="edge24" class="edge">
<title>Node26&#45;&gt;Node27</title>
<path fill="none" stroke="midnightblue" d="M1444.77,-227.72C1559.39,-217.77 1807.13,-196.27 1931.54,-185.46"/>
<polygon fill="midnightblue" stroke="midnightblue" points="1932.07,-188.93 1941.73,-184.58 1931.47,-181.96 1932.07,-188.93"/>
</g>
<!-- Node28 -->
<g id="node22" class="node">
<title>Node28</title>
<g id="a_node22"><a xlink:href="MathExtras_8h.html" target="_top" xlink:title=" ">
<polygon fill="none" stroke="red" points="2772,-168.5 2772,-187.5 2906,-187.5 2906,-168.5 2772,-168.5"/>
<text text-anchor="middle" x="2839" y="-175.5" font-family="Helvetica" font-size="10.00">llvm/Support/MathExtras.h</text>
</a>
</g>
</g>
<!-- Node26&#45;&gt;Node28 -->
<g id="edge28" class="edge">
<title>Node26&#45;&gt;Node28</title>
<path fill="none" stroke="midnightblue" d="M1444.67,-230.75C1676.2,-222.16 2504.14,-191.43 2761.86,-181.86"/>
<polygon fill="midnightblue" stroke="midnightblue" points="2762.01,-185.36 2771.88,-181.49 2761.75,-178.36 2762.01,-185.36"/>
</g>
<!-- Node31 -->
<g id="node23" class="node">
<title>Node31</title>
<g id="a_node23"><a xlink:title=" ">
<polygon fill="none" stroke="#bfbfbf" points="2277,-112.5 2277,-131.5 2317,-131.5 2317,-112.5 2277,-112.5"/>
<text text-anchor="middle" x="2297" y="-119.5" font-family="Helvetica" font-size="10.00">limits</text>
</a>
</g>
</g>
<!-- Node26&#45;&gt;Node31 -->
<g id="edge48" class="edge">
<title>Node26&#45;&gt;Node31</title>
<path fill="none" stroke="midnightblue" d="M1444.62,-233.02C1529.76,-231.64 1688.91,-223.89 1819,-188 1839.32,-182.39 1841.65,-173.5 1862,-168 2028.76,-122.91 2077.92,-155.94 2249,-132 2254.77,-131.19 2260.91,-130.17 2266.79,-129.1"/>
<polygon fill="midnightblue" stroke="midnightblue" points="2267.81,-132.48 2276.98,-127.18 2266.51,-125.6 2267.81,-132.48"/>
</g>
<!-- Node32 -->
<g id="node24" class="node">
<title>Node32</title>
<g id="a_node24"><a xlink:href="MemAlloc_8h.html" target="_top" xlink:title="This file defines counterparts of C library allocation functions defined in the namespace &#39;std&#39;.">
<polygon fill="none" stroke="black" points="484.5,-168.5 484.5,-187.5 611.5,-187.5 611.5,-168.5 484.5,-168.5"/>
<text text-anchor="middle" x="548" y="-175.5" font-family="Helvetica" font-size="10.00">llvm/Support/MemAlloc.h</text>
</a>
</g>
</g>
<!-- Node26&#45;&gt;Node32 -->
<g id="edge36" class="edge">
<title>Node26&#45;&gt;Node32</title>
<path fill="none" stroke="midnightblue" d="M1323.2,-229.07C1173.1,-219.38 785.31,-194.33 622.12,-183.79"/>
<polygon fill="midnightblue" stroke="midnightblue" points="621.9,-180.27 611.7,-183.11 621.45,-187.25 621.9,-180.27"/>
</g>
<!-- Node33 -->
<g id="node25" class="node">
<title>Node33</title>
<g id="a_node25"><a xlink:title=" ">
<polygon fill="none" stroke="#bfbfbf" points="357.5,-112.5 357.5,-131.5 402.5,-131.5 402.5,-112.5 357.5,-112.5"/>
<text text-anchor="middle" x="380" y="-119.5" font-family="Helvetica" font-size="10.00">cstdlib</text>
</a>
</g>
</g>
<!-- Node26&#45;&gt;Node33 -->
<g id="edge44" class="edge">
<title>Node26&#45;&gt;Node33</title>
<path fill="none" stroke="midnightblue" d="M1350.57,-224.43C1322.11,-216.58 1280.47,-203.81 1246,-188 1230.41,-180.85 1229.41,-172.99 1213,-168 1043.37,-116.45 591.43,-157.63 416,-132 414.92,-131.84 413.82,-131.66 412.71,-131.47"/>
<polygon fill="midnightblue" stroke="midnightblue" points="413.22,-128 402.72,-129.41 411.8,-134.86 413.22,-128"/>
</g>
<!-- Node26&#45;&gt;Node34 -->
<g id="edge46" class="edge">
<title>Node26&#45;&gt;Node34</title>
<path fill="none" stroke="midnightblue" d="M1349.77,-224.44C1312.49,-215.12 1252.73,-200.18 1211.99,-190"/>
<polygon fill="midnightblue" stroke="midnightblue" points="1212.62,-186.55 1202.07,-187.52 1210.92,-193.34 1212.62,-186.55"/>
</g>
<!-- Node26&#45;&gt;Node35 -->
<g id="edge47" class="edge">
<title>Node26&#45;&gt;Node35</title>
<path fill="none" stroke="midnightblue" d="M1410.3,-224.44C1439.09,-215.08 1485.32,-200.04 1516.64,-189.85"/>
<polygon fill="midnightblue" stroke="midnightblue" points="1517.81,-193.15 1526.24,-186.73 1515.65,-186.49 1517.81,-193.15"/>
</g>
<!-- Node26&#45;&gt;Node36 -->
<g id="edge49" class="edge">
<title>Node26&#45;&gt;Node36</title>
<path fill="none" stroke="midnightblue" d="M1327.26,-224.46C1276.51,-216.54 1199.89,-203.9 1123.91,-188.06"/>
<polygon fill="midnightblue" stroke="midnightblue" points="1124.19,-184.54 1113.69,-185.91 1122.75,-191.39 1124.19,-184.54"/>
</g>
<!-- Node37 -->
<g id="node29" class="node">
<title>Node37</title>
<g id="a_node29"><a xlink:title=" ">
<polygon fill="none" stroke="#bfbfbf" points="892.5,-168.5 892.5,-187.5 927.5,-187.5 927.5,-168.5 892.5,-168.5"/>
<text text-anchor="middle" x="910" y="-175.5" font-family="Helvetica" font-size="10.00">new</text>
</a>
</g>
</g>
<!-- Node26&#45;&gt;Node37 -->
<g id="edge50" class="edge">
<title>Node26&#45;&gt;Node37</title>
<path fill="none" stroke="midnightblue" d="M1323.49,-226.11C1220.01,-214.32 1012.98,-190.73 937.96,-182.19"/>
<polygon fill="midnightblue" stroke="midnightblue" points="938.21,-178.69 927.88,-181.04 937.42,-185.65 938.21,-178.69"/>
</g>
<!-- Node27&#45;&gt;Node20 -->
<g id="edge25" class="edge">
<title>Node27&#45;&gt;Node20</title>
<path fill="none" stroke="midnightblue" d="M2006,-168.37C2006,-150.62 2006,-109.67 2006,-85.6"/>
<polygon fill="midnightblue" stroke="midnightblue" points="2009.5,-85.59 2006,-75.59 2002.5,-85.59 2009.5,-85.59"/>
</g>
<!-- Node28&#45;&gt;Node10 -->
<g id="edge29" class="edge">
<title>Node28&#45;&gt;Node10</title>
<path fill="none" stroke="midnightblue" d="M2829.61,-168.35C2812.77,-153.48 2775.68,-123.57 2738,-112 2649.99,-84.98 1259.31,-70.67 926.26,-67.62"/>
<polygon fill="midnightblue" stroke="midnightblue" points="926.28,-64.12 916.25,-67.53 926.22,-71.12 926.28,-64.12"/>
</g>
<!-- Node28&#45;&gt;Node16 -->
<g id="edge32" class="edge">
<title>Node28&#45;&gt;Node16</title>
<path fill="none" stroke="midnightblue" d="M2906.18,-175.94C3050.58,-173.13 3401.08,-163.37 3693,-132 3829.45,-117.33 3990.24,-87.15 4058.58,-73.71"/>
<polygon fill="midnightblue" stroke="midnightblue" points="4059.6,-77.08 4068.73,-71.7 4058.25,-70.21 4059.6,-77.08"/>
</g>
<!-- Node28&#45;&gt;Node17 -->
<g id="edge35" class="edge">
<title>Node28&#45;&gt;Node17</title>
<path fill="none" stroke="midnightblue" d="M2846.41,-168.26C2859.51,-153.53 2888.37,-124.19 2920,-112 2987.06,-86.16 3489.28,-71.72 3637.77,-67.98"/>
<polygon fill="midnightblue" stroke="midnightblue" points="3637.93,-71.48 3647.84,-67.73 3637.75,-64.48 3637.93,-71.48"/>
</g>
<!-- Node28&#45;&gt;Node21 -->
<g id="edge30" class="edge">
<title>Node28&#45;&gt;Node21</title>
<path fill="none" stroke="midnightblue" d="M2771.78,-174.02C2548.05,-164.1 1832.92,-132.4 1659.27,-124.7"/>
<polygon fill="midnightblue" stroke="midnightblue" points="1659.23,-121.19 1649.08,-124.24 1658.92,-128.18 1659.23,-121.19"/>
</g>
<!-- Node28&#45;&gt;Node22 -->
<g id="edge31" class="edge">
<title>Node28&#45;&gt;Node22</title>
<path fill="none" stroke="midnightblue" d="M2882.42,-168.44C2936.51,-157.78 3027.9,-139.77 3077.84,-129.93"/>
<polygon fill="midnightblue" stroke="midnightblue" points="3078.7,-133.33 3087.84,-127.96 3077.35,-126.46 3078.7,-133.33"/>
</g>
<!-- Node28&#45;&gt;Node23 -->
<g id="edge33" class="edge">
<title>Node28&#45;&gt;Node23</title>
<path fill="none" stroke="midnightblue" d="M2817.93,-168.44C2795.94,-159.52 2761.27,-145.44 2736.34,-135.32"/>
<polygon fill="midnightblue" stroke="midnightblue" points="2737.56,-132.04 2726.98,-131.52 2734.92,-138.52 2737.56,-132.04"/>
</g>
<!-- Node28&#45;&gt;Node31 -->
<g id="edge34" class="edge">
<title>Node28&#45;&gt;Node31</title>
<path fill="none" stroke="midnightblue" d="M2772,-170.32C2653.57,-158.53 2411.8,-134.44 2327.11,-126"/>
<polygon fill="midnightblue" stroke="midnightblue" points="2327.43,-122.51 2317.13,-125.01 2326.73,-129.48 2327.43,-122.51"/>
</g>
<!-- Node32&#45;&gt;Node9 -->
<g id="edge38" class="edge">
<title>Node32&#45;&gt;Node9</title>
<path fill="none" stroke="midnightblue" d="M539.58,-168.08C532.15,-160.22 521.15,-148.57 512.19,-139.08"/>
<polygon fill="midnightblue" stroke="midnightblue" points="514.68,-136.62 505.26,-131.75 509.59,-141.42 514.68,-136.62"/>
</g>
<!-- Node32&#45;&gt;Node10 -->
<g id="edge37" class="edge">
<title>Node32&#45;&gt;Node10</title>
<path fill="none" stroke="midnightblue" d="M555.67,-168.24C568.64,-154.02 596.4,-126.1 626,-112 675.59,-88.39 736.87,-77.16 783.55,-71.83"/>
<polygon fill="midnightblue" stroke="midnightblue" points="784.02,-75.3 793.59,-70.75 783.27,-68.34 784.02,-75.3"/>
</g>
<!-- Node32&#45;&gt;Node33 -->
<g id="edge39" class="edge">
<title>Node32&#45;&gt;Node33</title>
<path fill="none" stroke="midnightblue" d="M521.38,-168.44C491.83,-158.94 444.12,-143.61 412.41,-133.42"/>
<polygon fill="midnightblue" stroke="midnightblue" points="413.32,-130.03 402.72,-130.3 411.17,-136.7 413.32,-130.03"/>
</g>
<!-- Node38&#45;&gt;Node9 -->
<g id="edge72" class="edge">
<title>Node38&#45;&gt;Node9</title>
<path fill="none" stroke="midnightblue" d="M1774.41,-287C1603.7,-280.88 1107.85,-261.79 1037,-244 1016.56,-238.87 1014.41,-229.26 994,-224 938.02,-209.57 514.43,-230.27 475,-188 462.62,-174.73 472.77,-154.23 483.02,-139.8"/>
<polygon fill="midnightblue" stroke="midnightblue" points="485.9,-141.79 489.21,-131.73 480.35,-137.53 485.9,-141.79"/>
</g>
<!-- Node38&#45;&gt;Node15 -->
<g id="edge75" class="edge">
<title>Node38&#45;&gt;Node15</title>
<path fill="none" stroke="midnightblue" d="M1889.75,-286.38C1959.41,-282.11 2079.53,-271.2 2179,-244 2332.92,-201.91 2504.55,-114.07 2567.32,-80.47"/>
<polygon fill="midnightblue" stroke="midnightblue" points="2569.29,-83.38 2576.44,-75.56 2565.97,-77.22 2569.29,-83.38"/>
</g>
<!-- Node38&#45;&gt;Node16 -->
<g id="edge76" class="edge">
<title>Node38&#45;&gt;Node16</title>
<path fill="none" stroke="midnightblue" d="M1889.53,-289.18C2172.18,-289.58 3414.92,-285.67 3787,-188 3893.63,-160.01 4013.35,-105.19 4065.43,-80.1"/>
<polygon fill="midnightblue" stroke="midnightblue" points="4067.16,-83.15 4074.63,-75.63 4064.11,-76.85 4067.16,-83.15"/>
</g>
<!-- Node38&#45;&gt;Node17 -->
<g id="edge84" class="edge">
<title>Node38&#45;&gt;Node17</title>
<path fill="none" stroke="midnightblue" d="M1889.83,-288.39C2165.39,-285.34 3332.93,-270.85 3359,-244 3383.15,-219.13 3350.57,-190.33 3323,-168 3284.92,-137.15 3195.11,-148.34 3228,-112 3255.24,-81.9 3531.67,-71.09 3637.8,-68.02"/>
<polygon fill="midnightblue" stroke="midnightblue" points="3637.93,-71.52 3647.83,-67.74 3637.73,-64.52 3637.93,-71.52"/>
</g>
<!-- Node38&#45;&gt;Node20 -->
<g id="edge85" class="edge">
<title>Node38&#45;&gt;Node20</title>
<path fill="none" stroke="midnightblue" d="M1889.77,-285.34C1950.75,-277.87 2042.93,-255.4 2079,-188 2099.98,-148.79 2054.66,-104.45 2026.4,-81.9"/>
<polygon fill="midnightblue" stroke="midnightblue" points="2028.33,-78.96 2018.27,-75.63 2024.06,-84.51 2028.33,-78.96"/>
</g>
<!-- Node38&#45;&gt;Node21 -->
<g id="edge73" class="edge">
<title>Node38&#45;&gt;Node21</title>
<path fill="none" stroke="midnightblue" d="M1774.34,-280.64C1728.02,-272.88 1667.71,-260.12 1649,-244 1619.55,-218.63 1617.69,-169 1619.17,-141.85"/>
<polygon fill="midnightblue" stroke="midnightblue" points="1622.67,-141.96 1619.94,-131.73 1615.69,-141.43 1622.67,-141.96"/>
</g>
<!-- Node38&#45;&gt;Node22 -->
<g id="edge74" class="edge">
<title>Node38&#45;&gt;Node22</title>
<path fill="none" stroke="midnightblue" d="M1889.8,-283.45C2010.53,-271.9 2298.33,-244.65 2540,-224 2742.12,-206.73 2800.69,-246.24 2995,-188 3032.02,-176.9 3070.41,-153.05 3092.98,-137.53"/>
<polygon fill="midnightblue" stroke="midnightblue" points="3095.19,-140.26 3101.36,-131.65 3091.17,-134.53 3095.19,-140.26"/>
</g>
<!-- Node38&#45;&gt;Node24 -->
<g id="edge83" class="edge">
<title>Node38&#45;&gt;Node24</title>
<path fill="none" stroke="midnightblue" d="M1889.67,-287.63C1947.86,-284.46 2039.24,-274.52 2112,-244 2150.69,-227.77 2160.88,-220.02 2188,-188 2199.86,-173.99 2208.88,-155 2214.46,-141.16"/>
<polygon fill="midnightblue" stroke="midnightblue" points="2217.76,-142.34 2218.05,-131.75 2211.22,-139.84 2217.76,-142.34"/>
</g>
<!-- Node38&#45;&gt;Node27 -->
<g id="edge70" class="edge">
<title>Node38&#45;&gt;Node27</title>
<path fill="none" stroke="midnightblue" d="M1889.75,-280.87C1917.14,-274.58 1948.86,-263.49 1972,-244 1986.28,-231.97 1995.36,-212.4 2000.51,-197.87"/>
<polygon fill="midnightblue" stroke="midnightblue" points="2003.97,-198.54 2003.7,-187.95 1997.3,-196.4 2003.97,-198.54"/>
</g>
<!-- Node38&#45;&gt;Node31 -->
<g id="edge81" class="edge">
<title>Node38&#45;&gt;Node31</title>
<path fill="none" stroke="midnightblue" d="M1889.75,-289.71C1954.67,-288.51 2061.99,-280.41 2146,-244 2203.57,-219.05 2257.52,-166.09 2282.48,-139.28"/>
<polygon fill="midnightblue" stroke="midnightblue" points="2285.37,-141.31 2289.53,-131.56 2280.2,-136.58 2285.37,-141.31"/>
</g>
<!-- Node38&#45;&gt;Node33 -->
<g id="edge77" class="edge">
<title>Node38&#45;&gt;Node33</title>
<path fill="none" stroke="midnightblue" d="M1774.37,-287.49C1597.21,-282.61 1068.15,-266.35 994,-244 977.21,-238.94 976.74,-229.22 960,-224 749.84,-158.47 672.03,-265.54 466,-188 437.96,-177.45 411.36,-154.67 395.36,-139.09"/>
<polygon fill="midnightblue" stroke="midnightblue" points="397.54,-136.32 388.01,-131.7 392.58,-141.26 397.54,-136.32"/>
</g>
<!-- Node38&#45;&gt;Node34 -->
<g id="edge79" class="edge">
<title>Node38&#45;&gt;Node34</title>
<path fill="none" stroke="midnightblue" d="M1774.28,-285.09C1648.53,-276.43 1357.6,-255.44 1314,-244 1293.22,-238.55 1289.6,-232.78 1270,-224 1245.41,-212.99 1217.4,-200.64 1196.96,-191.67"/>
<polygon fill="midnightblue" stroke="midnightblue" points="1198.15,-188.37 1187.58,-187.56 1195.34,-194.78 1198.15,-188.37"/>
</g>
<!-- Node38&#45;&gt;Node35 -->
<g id="edge80" class="edge">
<title>Node38&#45;&gt;Node35</title>
<path fill="none" stroke="midnightblue" d="M1774.4,-281.32C1718.59,-273.16 1638.48,-259.34 1611,-244 1590.18,-232.38 1572.33,-211.21 1561.42,-196.19"/>
<polygon fill="midnightblue" stroke="midnightblue" points="1564.14,-193.98 1555.55,-187.78 1558.4,-197.98 1564.14,-193.98"/>
</g>
<!-- Node38&#45;&gt;Node36 -->
<g id="edge82" class="edge">
<title>Node38&#45;&gt;Node36</title>
<path fill="none" stroke="midnightblue" d="M1774.48,-285.25C1641.1,-276.43 1318.4,-254.35 1270,-244 1213.34,-231.89 1150.29,-206.75 1114.96,-191.53"/>
<polygon fill="midnightblue" stroke="midnightblue" points="1116.32,-188.3 1105.76,-187.52 1113.52,-194.72 1116.32,-188.3"/>
</g>
<!-- Node39 -->
<g id="node31" class="node">
<title>Node39</title>
<g id="a_node31"><a xlink:href="Optional_8h.html" target="_top" xlink:title=" ">
<polygon fill="none" stroke="black" points="1046,-224.5 1046,-243.5 1150,-243.5 1150,-224.5 1046,-224.5"/>
<text text-anchor="middle" x="1098" y="-231.5" font-family="Helvetica" font-size="10.00">llvm/ADT/Optional.h</text>
</a>
</g>
</g>
<!-- Node38&#45;&gt;Node39 -->
<g id="edge54" class="edge">
<title>Node38&#45;&gt;Node39</title>
<path fill="none" stroke="midnightblue" d="M1774.4,-284.76C1638.9,-274.79 1300.79,-249.92 1160.52,-239.6"/>
<polygon fill="midnightblue" stroke="midnightblue" points="1160.59,-236.1 1150.36,-238.85 1160.08,-243.08 1160.59,-236.1"/>
</g>
<!-- Node40 -->
<g id="node32" class="node">
<title>Node40</title>
<g id="a_node32"><a xlink:href="iterator_8h.html" target="_top" xlink:title=" ">
<polygon fill="none" stroke="black" points="1865,-224.5 1865,-243.5 1963,-243.5 1963,-224.5 1865,-224.5"/>
<text text-anchor="middle" x="1914" y="-231.5" font-family="Helvetica" font-size="10.00">llvm/ADT/iterator.h</text>
</a>
</g>
</g>
<!-- Node38&#45;&gt;Node40 -->
<g id="edge63" class="edge">
<title>Node38&#45;&gt;Node40</title>
<path fill="none" stroke="midnightblue" d="M1845.17,-280.32C1857.85,-271.98 1877.23,-259.21 1892.21,-249.35"/>
<polygon fill="midnightblue" stroke="midnightblue" points="1894.43,-252.08 1900.86,-243.65 1890.58,-246.23 1894.43,-252.08"/>
</g>
<!-- Node41 -->
<g id="node33" class="node">
<title>Node41</title>
<g id="a_node33"><a xlink:title=" ">
<polygon fill="none" stroke="#bfbfbf" points="668,-224.5 668,-243.5 798,-243.5 798,-224.5 668,-224.5"/>
<text text-anchor="middle" x="733" y="-231.5" font-family="Helvetica" font-size="10.00">llvm/Config/abi&#45;breaking.h</text>
</a>
</g>
</g>
<!-- Node38&#45;&gt;Node41 -->
<g id="edge71" class="edge">
<title>Node38&#45;&gt;Node41</title>
<path fill="none" stroke="midnightblue" d="M1774.49,-286.52C1626.57,-280.1 1220.85,-262.14 883,-244 858.72,-242.7 832.25,-241.15 808.38,-239.71"/>
<polygon fill="midnightblue" stroke="midnightblue" points="808.53,-236.21 798.33,-239.1 808.1,-243.2 808.53,-236.21"/>
</g>
<!-- Node42 -->
<g id="node34" class="node">
<title>Node42</title>
<g id="a_node34"><a xlink:title=" ">
<polygon fill="none" stroke="#bfbfbf" points="892.5,-224.5 892.5,-243.5 951.5,-243.5 951.5,-224.5 892.5,-224.5"/>
<text text-anchor="middle" x="922" y="-231.5" font-family="Helvetica" font-size="10.00">functional</text>
</a>
</g>
</g>
<!-- Node38&#45;&gt;Node42 -->
<g id="edge78" class="edge">
<title>Node38&#45;&gt;Node42</title>
<path fill="none" stroke="midnightblue" d="M1774.35,-285.81C1742.67,-284.07 1702.67,-281.89 1667,-280 1355.47,-263.5 1275.47,-283.37 966,-244 964.55,-243.82 963.08,-243.61 961.59,-243.39"/>
<polygon fill="midnightblue" stroke="midnightblue" points="962.17,-239.93 951.72,-241.71 960.99,-246.84 962.17,-239.93"/>
</g>
<!-- Node39&#45;&gt;Node3 -->
<g id="edge55" class="edge">
<title>Node39&#45;&gt;Node3</title>
<path fill="none" stroke="midnightblue" d="M1150.06,-228.74C1270.09,-218.92 1565.83,-194.72 1695.44,-184.12"/>
<polygon fill="midnightblue" stroke="midnightblue" points="1695.91,-187.59 1705.6,-183.29 1695.34,-180.61 1695.91,-187.59"/>
</g>
<!-- Node39&#45;&gt;Node10 -->
<g id="edge57" class="edge">
<title>Node39&#45;&gt;Node10</title>
<path fill="none" stroke="midnightblue" d="M1065.3,-224.43C1040.64,-217.07 1006.64,-204.95 980,-188 933.27,-158.26 889.35,-109.04 868.19,-83.51"/>
<polygon fill="midnightblue" stroke="midnightblue" points="870.72,-81.07 861.69,-75.54 865.29,-85.5 870.72,-81.07"/>
</g>
<!-- Node39&#45;&gt;Node19 -->
<g id="edge58" class="edge">
<title>Node39&#45;&gt;Node19</title>
<path fill="none" stroke="midnightblue" d="M1083.94,-224.38C1064.67,-211.52 1034.24,-186.82 1051,-168 1071.43,-145.07 1257.24,-132.06 1364.14,-126.41"/>
<polygon fill="midnightblue" stroke="midnightblue" points="1364.42,-129.9 1374.23,-125.89 1364.06,-122.91 1364.42,-129.9"/>
</g>
<!-- Node39&#45;&gt;Node20 -->
<g id="edge62" class="edge">
<title>Node39&#45;&gt;Node20</title>
<path fill="none" stroke="midnightblue" d="M1081.46,-224.41C1059.69,-212 1026.05,-188.32 1043,-168 1104.27,-94.58 1817.4,-71.88 1975.21,-67.75"/>
<polygon fill="midnightblue" stroke="midnightblue" points="1975.69,-71.23 1985.6,-67.48 1975.51,-64.24 1975.69,-71.23"/>
</g>
<!-- Node39&#45;&gt;Node22 -->
<g id="edge59" class="edge">
<title>Node39&#45;&gt;Node22</title>
<path fill="none" stroke="midnightblue" d="M1150.12,-230.73C1325.8,-223.04 1895.57,-197.97 2079,-188 2470.75,-166.7 2945.57,-134.51 3077.51,-125.45"/>
<polygon fill="midnightblue" stroke="midnightblue" points="3078.08,-128.92 3087.82,-124.74 3077.6,-121.94 3078.08,-128.92"/>
</g>
<!-- Node39&#45;&gt;Node25 -->
<g id="edge56" class="edge">
<title>Node39&#45;&gt;Node25</title>
<path fill="none" stroke="midnightblue" d="M1055.22,-224.44C1007.82,-214.96 931.37,-199.67 880.42,-189.48"/>
<polygon fill="midnightblue" stroke="midnightblue" points="881.07,-186.05 870.58,-187.52 879.7,-192.91 881.07,-186.05"/>
</g>
<!-- Node39&#45;&gt;Node36 -->
<g id="edge60" class="edge">
<title>Node39&#45;&gt;Node36</title>
<path fill="none" stroke="midnightblue" d="M1096.18,-224.08C1094.73,-216.93 1092.63,-206.64 1090.81,-197.69"/>
<polygon fill="midnightblue" stroke="midnightblue" points="1094.21,-196.85 1088.78,-187.75 1087.35,-198.25 1094.21,-196.85"/>
</g>
<!-- Node39&#45;&gt;Node37 -->
<g id="edge61" class="edge">
<title>Node39&#45;&gt;Node37</title>
<path fill="none" stroke="midnightblue" d="M1068.21,-224.44C1032.27,-214.12 972.35,-196.91 937.48,-186.89"/>
<polygon fill="midnightblue" stroke="midnightblue" points="938.09,-183.43 927.52,-184.03 936.16,-190.16 938.09,-183.43"/>
</g>
<!-- Node40&#45;&gt;Node15 -->
<g id="edge66" class="edge">
<title>Node40&#45;&gt;Node15</title>
<path fill="none" stroke="midnightblue" d="M1960.55,-224.49C1994.38,-217.32 2040.76,-205.4 2079,-188 2134.42,-162.77 2135.8,-132.89 2193,-112 2259.72,-87.63 2473.05,-73.55 2557.3,-68.81"/>
<polygon fill="midnightblue" stroke="midnightblue" points="2557.59,-72.3 2567.38,-68.26 2557.2,-65.31 2557.59,-72.3"/>
</g>
<!-- Node40&#45;&gt;Node17 -->
<g id="edge68" class="edge">
<title>Node40&#45;&gt;Node17</title>
<path fill="none" stroke="midnightblue" d="M1963.01,-231.52C2161.88,-225.43 2900.28,-201.96 2948,-188 2980.3,-178.55 3046.85,-121.95 3079,-112 3183.73,-79.57 3520.13,-70.07 3637.85,-67.7"/>
<polygon fill="midnightblue" stroke="midnightblue" points="3637.97,-71.2 3647.9,-67.5 3637.83,-64.2 3637.97,-71.2"/>
</g>
<!-- Node40&#45;&gt;Node20 -->
<g id="edge69" class="edge">
<title>Node40&#45;&gt;Node20</title>
<path fill="none" stroke="midnightblue" d="M1915.57,-224.24C1918.08,-211.42 1923.7,-187.01 1933,-168 1948.92,-135.48 1975.22,-102.31 1991.53,-83.24"/>
<polygon fill="midnightblue" stroke="midnightblue" points="1994.32,-85.37 1998.25,-75.53 1989.04,-80.77 1994.32,-85.37"/>
</g>
<!-- Node40&#45;&gt;Node21 -->
<g id="edge65" class="edge">
<title>Node40&#45;&gt;Node21</title>
<path fill="none" stroke="midnightblue" d="M1864.76,-229.82C1819.24,-225.29 1750.72,-214.35 1697,-188 1672.54,-176 1649.51,-154.29 1635.34,-139.28"/>
<polygon fill="midnightblue" stroke="midnightblue" points="1637.77,-136.74 1628.44,-131.73 1632.61,-141.47 1637.77,-136.74"/>
</g>
<!-- Node40&#45;&gt;Node27 -->
<g id="edge64" class="edge">
<title>Node40&#45;&gt;Node27</title>
<path fill="none" stroke="midnightblue" d="M1928.78,-224.32C1943.27,-215.82 1965.57,-202.73 1982.49,-192.8"/>
<polygon fill="midnightblue" stroke="midnightblue" points="1984.4,-195.74 1991.26,-187.65 1980.86,-189.7 1984.4,-195.74"/>
</g>
<!-- Node40&#45;&gt;Node35 -->
<g id="edge67" class="edge">
<title>Node40&#45;&gt;Node35</title>
<path fill="none" stroke="midnightblue" d="M1864.91,-225.72C1789.91,-214.59 1648.7,-193.64 1583.97,-184.04"/>
<polygon fill="midnightblue" stroke="midnightblue" points="1584.31,-180.55 1573.9,-182.55 1583.28,-187.48 1584.31,-180.55"/>
</g>
<!-- Node45&#45;&gt;Node17 -->
<g id="edge98" class="edge">
<title>Node45&#45;&gt;Node17</title>
<path fill="none" stroke="midnightblue" d="M3350.22,-227.5C3481.49,-216.36 3765.51,-191.84 3769,-188 3801.92,-151.88 3738.97,-104.09 3702.46,-80.87"/>
<polygon fill="midnightblue" stroke="midnightblue" points="3704.17,-77.81 3693.83,-75.51 3700.48,-83.75 3704.17,-77.81"/>
</g>
<!-- Node45&#45;&gt;Node20 -->
<g id="edge99" class="edge">
<title>Node45&#45;&gt;Node20</title>
<path fill="none" stroke="midnightblue" d="M3292.68,-224.22C3303.33,-210.94 3319.88,-185.44 3307,-168 3274.68,-124.24 3240.78,-151.52 3190,-132 3170.33,-124.44 3167.49,-116.96 3147,-112 3036.41,-85.24 2206.56,-70.29 2036.42,-67.48"/>
<polygon fill="midnightblue" stroke="midnightblue" points="2036.46,-63.98 2026.4,-67.32 2036.34,-70.98 2036.46,-63.98"/>
</g>
<!-- Node45&#45;&gt;Node22 -->
<g id="edge97" class="edge">
<title>Node45&#45;&gt;Node22</title>
<path fill="none" stroke="midnightblue" d="M3289,-224.37C3294.61,-210.83 3302.78,-184.44 3290,-168 3287.79,-165.15 3199.29,-143.62 3148.29,-131.4"/>
<polygon fill="midnightblue" stroke="midnightblue" points="3148.87,-127.94 3138.33,-129.02 3147.24,-134.75 3148.87,-127.94"/>
</g>
<!-- Node45&#45;&gt;Node28 -->
<g id="edge100" class="edge">
<title>Node45&#45;&gt;Node28</title>
<path fill="none" stroke="midnightblue" d="M3219.67,-225.09C3139.03,-215.33 3002.06,-198.74 2916.27,-188.36"/>
<polygon fill="midnightblue" stroke="midnightblue" points="2916.68,-184.88 2906.33,-187.15 2915.84,-191.83 2916.68,-184.88"/>
</g>
<!-- Node46&#45;&gt;Node13 -->
<g id="edge180" class="edge">
<title>Node46&#45;&gt;Node13</title>
<path fill="none" stroke="midnightblue" d="M1280.23,-572.28C1006.88,-562.91 0,-523.96 0,-459 0,-459 0,-459 0,-177 0,-90.38 135.15,-71.93 197.34,-68.03"/>
<polygon fill="midnightblue" stroke="midnightblue" points="197.57,-71.53 207.36,-67.49 197.19,-64.54 197.57,-71.53"/>
</g>
<!-- Node47 -->
<g id="node39" class="node">
<title>Node47</title>
<g id="a_node39"><a xlink:href="StringRef_8h.html" target="_top" xlink:title=" ">
<polygon fill="none" stroke="black" points="2234,-336.5 2234,-355.5 2342,-355.5 2342,-336.5 2234,-336.5"/>
<text text-anchor="middle" x="2288" y="-343.5" font-family="Helvetica" font-size="10.00">llvm/ADT/StringRef.h</text>
</a>
</g>
</g>
<!-- Node46&#45;&gt;Node47 -->
<g id="edge102" class="edge">
<title>Node46&#45;&gt;Node47</title>
<path fill="none" stroke="midnightblue" d="M1413.72,-560.45C1505.37,-540.7 1676.7,-503.18 1822,-468 1979.57,-429.85 2165.87,-380.05 2246.92,-358.16"/>
<polygon fill="midnightblue" stroke="midnightblue" points="2247.99,-361.49 2256.73,-355.5 2246.16,-354.73 2247.99,-361.49"/>
</g>
<!-- Node46&#45;&gt;Node48 -->
<g id="edge114" class="edge">
<title>Node46&#45;&gt;Node48</title>
<path fill="none" stroke="midnightblue" d="M1290.72,-560.47C1247.61,-549.92 1189.36,-535.66 1149.66,-525.94"/>
<polygon fill="midnightblue" stroke="midnightblue" points="1150.29,-522.49 1139.74,-523.51 1148.62,-529.28 1150.29,-522.49"/>
</g>
<!-- Node47&#45;&gt;Node10 -->
<g id="edge105" class="edge">
<title>Node47&#45;&gt;Node10</title>
<path fill="none" stroke="midnightblue" d="M2233.57,-340.19C2104.09,-328.83 1767.48,-299.81 1486,-280 1352.09,-270.58 1012.54,-279.19 883,-244 830.06,-229.62 801.67,-234.77 773,-188 748.75,-148.45 800.95,-103.68 832.78,-81.32"/>
<polygon fill="midnightblue" stroke="midnightblue" points="834.84,-84.15 841.14,-75.63 830.9,-78.36 834.84,-84.15"/>
</g>
<!-- Node47&#45;&gt;Node13 -->
<g id="edge111" class="edge">
<title>Node47&#45;&gt;Node13</title>
<path fill="none" stroke="midnightblue" d="M2233.92,-343.32C2104.51,-338.99 1766.85,-325.96 1486,-300 1416.83,-293.61 1400.17,-286.31 1331,-280 1033.14,-252.84 954.93,-287.42 659,-244 554.48,-228.66 525.67,-228.26 428,-188 357.39,-158.9 282.52,-107.2 247.8,-81.85"/>
<polygon fill="midnightblue" stroke="midnightblue" points="249.62,-78.84 239.49,-75.72 245.46,-84.47 249.62,-78.84"/>
</g>
<!-- Node47&#45;&gt;Node15 -->
<g id="edge108" class="edge">
<title>Node47&#45;&gt;Node15</title>
<path fill="none" stroke="midnightblue" d="M2305.17,-336.47C2353.49,-311.65 2492.06,-234.61 2568,-132 2578.28,-118.11 2584.58,-99.35 2588.13,-85.55"/>
<polygon fill="midnightblue" stroke="midnightblue" points="2591.55,-86.28 2590.41,-75.74 2584.73,-84.69 2591.55,-86.28"/>
</g>
<!-- Node47&#45;&gt;Node17 -->
<g id="edge112" class="edge">
<title>Node47&#45;&gt;Node17</title>
<path fill="none" stroke="midnightblue" d="M2342.29,-343.67C2600.09,-336.78 3692.08,-301.03 3787,-188 3802.29,-169.79 3785.03,-131.62 3768,-112 3754.88,-96.89 3735.46,-86.25 3718.11,-79.12"/>
<polygon fill="midnightblue" stroke="midnightblue" points="3719.32,-75.84 3708.73,-75.52 3716.81,-82.37 3719.32,-75.84"/>
</g>
<!-- Node47&#45;&gt;Node20 -->
<g id="edge113" class="edge">
<title>Node47&#45;&gt;Node20</title>
<path fill="none" stroke="midnightblue" d="M2293.84,-336.05C2315.21,-302.1 2384.88,-179.74 2326,-112 2288.63,-69.01 2109.18,-65.91 2036.58,-66.46"/>
<polygon fill="midnightblue" stroke="midnightblue" points="2036.24,-62.97 2026.28,-66.57 2036.32,-69.96 2036.24,-62.97"/>
</g>
<!-- Node47&#45;&gt;Node21 -->
<g id="edge106" class="edge">
<title>Node47&#45;&gt;Node21</title>
<path fill="none" stroke="midnightblue" d="M2233.56,-336.72C2099.19,-315.45 1755.95,-255.76 1664,-188 1647.7,-175.99 1635.76,-155.8 1628.65,-141.11"/>
<polygon fill="midnightblue" stroke="midnightblue" points="1631.65,-139.24 1624.34,-131.57 1625.27,-142.13 1631.65,-139.24"/>
</g>
<!-- Node47&#45;&gt;Node22 -->
<g id="edge107" class="edge">
<title>Node47&#45;&gt;Node22</title>
<path fill="none" stroke="midnightblue" d="M2337.78,-336.42C2388.66,-327.58 2469.91,-313.26 2540,-300 2555.59,-297.05 3088.78,-199.22 3100,-188 3111.94,-176.06 3114.46,-156.44 3114.44,-141.88"/>
<polygon fill="midnightblue" stroke="midnightblue" points="3117.92,-141.37 3114.01,-131.53 3110.93,-141.66 3117.92,-141.37"/>
</g>
<!-- Node47&#45;&gt;Node23 -->
<g id="edge109" class="edge">
<title>Node47&#45;&gt;Node23</title>
<path fill="none" stroke="midnightblue" d="M2342.1,-339.58C2410.12,-330.32 2527.46,-306.01 2606,-244 2644.69,-213.45 2678.63,-165.66 2695.22,-140.25"/>
<polygon fill="midnightblue" stroke="midnightblue" points="2698.26,-141.99 2700.7,-131.68 2692.36,-138.22 2698.26,-141.99"/>
</g>
<!-- Node47&#45;&gt;Node27 -->
<g id="edge104" class="edge">
<title>Node47&#45;&gt;Node27</title>
<path fill="none" stroke="midnightblue" d="M2273.24,-336.31C2227.17,-309.19 2085.81,-225.98 2029.5,-192.83"/>
<polygon fill="midnightblue" stroke="midnightblue" points="2031.01,-189.66 2020.62,-187.61 2027.46,-195.69 2031.01,-189.66"/>
</g>
<!-- Node47&#45;&gt;Node31 -->
<g id="edge110" class="edge">
<title>Node47&#45;&gt;Node31</title>
<path fill="none" stroke="midnightblue" d="M2288.35,-336.3C2289.68,-303.63 2294.37,-187.87 2296.23,-141.96"/>
<polygon fill="midnightblue" stroke="midnightblue" points="2299.73,-142.02 2296.64,-131.88 2292.74,-141.73 2299.73,-142.02"/>
</g>
<!-- Node47&#45;&gt;Node38 -->
<g id="edge103" class="edge">
<title>Node47&#45;&gt;Node38</title>
<path fill="none" stroke="midnightblue" d="M2233.9,-338.59C2150.53,-328.72 1990.79,-309.8 1899.82,-299.03"/>
<polygon fill="midnightblue" stroke="midnightblue" points="1899.95,-295.52 1889.61,-297.82 1899.13,-302.47 1899.95,-295.52"/>
</g>
<!-- Node48&#45;&gt;Node9 -->
<g id="edge142" class="edge">
<title>Node48&#45;&gt;Node9</title>
<path fill="none" stroke="midnightblue" d="M1052.94,-511.72C911.6,-507.91 522.98,-495.21 398,-468 318.96,-450.79 228,-483.89 228,-403 228,-403 228,-403 228,-233 228,-187.07 364.07,-150.83 442.66,-133.73"/>
<polygon fill="midnightblue" stroke="midnightblue" points="443.83,-137.06 452.88,-131.54 442.37,-130.21 443.83,-137.06"/>
</g>
<!-- Node48&#45;&gt;Node10 -->
<g id="edge140" class="edge">
<title>Node48&#45;&gt;Node10</title>
<path fill="none" stroke="midnightblue" d="M1052.75,-512.04C869.18,-508.47 260.33,-494.71 177,-468 126.17,-451.71 76,-456.38 76,-403 76,-403 76,-403 76,-289 76,-222.5 109.83,-206.57 164,-168 262.54,-97.84 627.28,-75.69 783.37,-69.33"/>
<polygon fill="midnightblue" stroke="midnightblue" points="783.94,-72.81 793.8,-68.92 783.66,-65.82 783.94,-72.81"/>
</g>
<!-- Node48&#45;&gt;Node13 -->
<g id="edge175" class="edge">
<title>Node48&#45;&gt;Node13</title>
<path fill="none" stroke="midnightblue" d="M1052.67,-512.88C858.92,-512.14 189.03,-506.76 102,-468 64.96,-451.51 38,-443.54 38,-403 38,-403 38,-403 38,-177 38,-104.28 143.52,-78.86 197.29,-70.62"/>
<polygon fill="midnightblue" stroke="midnightblue" points="197.9,-74.07 207.3,-69.19 196.91,-67.14 197.9,-74.07"/>
</g>
<!-- Node48&#45;&gt;Node16 -->
<g id="edge170" class="edge">
<title>Node48&#45;&gt;Node16</title>
<path fill="none" stroke="midnightblue" d="M1157.11,-512.68C1530,-510.29 3781.94,-494.8 3923,-468 4068.75,-440.31 4206,-439.35 4206,-291 4206,-291 4206,-291 4206,-177 4206,-130.11 4155.45,-96.89 4121.67,-79.93"/>
<polygon fill="midnightblue" stroke="midnightblue" points="4123.17,-76.77 4112.64,-75.58 4120.13,-83.07 4123.17,-76.77"/>
</g>
<!-- Node48&#45;&gt;Node17 -->
<g id="edge177" class="edge">
<title>Node48&#45;&gt;Node17</title>
<path fill="none" stroke="midnightblue" d="M1157.25,-512.69C1525.03,-510.41 3714.05,-495.72 3851,-468 3967.56,-444.41 4033.02,-458.09 4094,-356 4155.77,-252.58 4075.35,-180.12 3976,-112 3935.21,-84.03 3791.83,-72.81 3720.27,-68.86"/>
<polygon fill="midnightblue" stroke="midnightblue" points="3720.42,-65.37 3710.25,-68.34 3720.05,-72.36 3720.42,-65.37"/>
</g>
<!-- Node48&#45;&gt;Node20 -->
<g id="edge178" class="edge">
<title>Node48&#45;&gt;Node20</title>
<path fill="none" stroke="midnightblue" d="M1052.7,-512.27C927.42,-509.99 613.21,-501.06 514,-468 463,-451 412,-456.76 412,-403 412,-403 412,-403 412,-289 412,-254.8 661.88,-176.52 695,-168 949.05,-102.65 1803.54,-73.24 1975.65,-67.9"/>
<polygon fill="midnightblue" stroke="midnightblue" points="1975.88,-71.4 1985.76,-67.59 1975.66,-64.4 1975.88,-71.4"/>
</g>
<!-- Node48&#45;&gt;Node21 -->
<g id="edge168" class="edge">
<title>Node48&#45;&gt;Node21</title>
<path fill="none" stroke="midnightblue" d="M1052.74,-512.07C937.32,-509.44 664.09,-499.95 578,-468 531.74,-450.83 488,-452.34 488,-403 488,-403 488,-403 488,-345 488,-274.95 530.61,-262.7 589,-224 606.81,-212.19 751.95,-171.66 773,-168 1096.98,-111.7 1183.87,-153.53 1512,-132 1535.5,-130.46 1561.82,-128.3 1582.71,-126.48"/>
<polygon fill="midnightblue" stroke="midnightblue" points="1583.13,-129.96 1592.79,-125.59 1582.52,-122.98 1583.13,-129.96"/>
</g>
<!-- Node48&#45;&gt;Node22 -->
<g id="edge169" class="edge">
<title>Node48&#45;&gt;Node22</title>
<path fill="none" stroke="midnightblue" d="M1157.35,-511.88C1422.37,-505.97 2617.79,-476.13 2983,-412 3067.61,-397.14 3108.93,-418.38 3168,-356 3182.7,-340.48 3220.47,-186.04 3209,-168 3201.85,-156.75 3172.08,-143.84 3147.57,-134.73"/>
<polygon fill="midnightblue" stroke="midnightblue" points="3148.74,-131.44 3138.15,-131.32 3146.36,-138.02 3148.74,-131.44"/>
</g>
<!-- Node48&#45;&gt;Node26 -->
<g id="edge117" class="edge">
<title>Node48&#45;&gt;Node26</title>
<path fill="none" stroke="midnightblue" d="M1080.95,-504.41C1002.11,-475.04 761.45,-375.23 849,-280 864.49,-263.15 1171.28,-245.66 1313.15,-238.44"/>
<polygon fill="midnightblue" stroke="midnightblue" points="1313.68,-241.91 1323.49,-237.91 1313.32,-234.92 1313.68,-241.91"/>
</g>
<!-- Node48&#45;&gt;Node33 -->
<g id="edge171" class="edge">
<title>Node48&#45;&gt;Node33</title>
<path fill="none" stroke="midnightblue" d="M1052.72,-511.92C878.15,-508.09 322.1,-493.95 246,-468 197.93,-451.6 152,-453.79 152,-403 152,-403 152,-403 152,-233 152,-147.42 283.93,-128.39 347.08,-124.18"/>
<polygon fill="midnightblue" stroke="midnightblue" points="347.52,-127.66 357.3,-123.59 347.12,-120.67 347.52,-127.66"/>
</g>
<!-- Node48&#45;&gt;Node36 -->
<g id="edge173" class="edge">
<title>Node48&#45;&gt;Node36</title>
<path fill="none" stroke="midnightblue" d="M1052.7,-512.41C964.33,-510.48 790.26,-502.28 741,-468 647.1,-402.65 582.45,-309.02 659,-224 672.05,-209.5 948.69,-188.71 1050.13,-181.54"/>
<polygon fill="midnightblue" stroke="midnightblue" points="1050.49,-185.02 1060.22,-180.83 1050,-178.04 1050.49,-185.02"/>
</g>
<!-- Node48&#45;&gt;Node37 -->
<g id="edge174" class="edge">
<title>Node48&#45;&gt;Node37</title>
<path fill="none" stroke="midnightblue" d="M1052.95,-513.68C941.59,-514.27 684.3,-510.82 610,-468 579.34,-450.33 564,-438.39 564,-403 564,-403 564,-403 564,-289 564,-244.55 599.55,-242.42 640,-224 736.45,-180.08 774.56,-211.4 882.45,-187.66"/>
<polygon fill="midnightblue" stroke="midnightblue" points="883.45,-191.02 892.41,-185.35 881.88,-184.2 883.45,-191.02"/>
</g>
<!-- Node48&#45;&gt;Node38 -->
<g id="edge116" class="edge">
<title>Node48&#45;&gt;Node38</title>
<path fill="none" stroke="midnightblue" d="M1133.05,-504.43C1245.73,-470.03 1665.49,-341.84 1794.22,-302.54"/>
<polygon fill="midnightblue" stroke="midnightblue" points="1795.49,-305.81 1804.03,-299.54 1793.44,-299.11 1795.49,-305.81"/>
</g>
<!-- Node48&#45;&gt;Node41 -->
<g id="edge137" class="edge">
<title>Node48&#45;&gt;Node41</title>
<path fill="none" stroke="midnightblue" d="M1052.97,-511.98C934.82,-509.13 654.33,-499.11 626,-468 564.35,-400.28 670.9,-290.92 715.12,-250.59"/>
<polygon fill="midnightblue" stroke="midnightblue" points="717.72,-252.96 722.83,-243.68 713.04,-247.74 717.72,-252.96"/>
</g>
<!-- Node48&#45;&gt;Node42 -->
<g id="edge172" class="edge">
<title>Node48&#45;&gt;Node42</title>
<path fill="none" stroke="midnightblue" d="M1052.84,-509.24C975.55,-503.05 834.81,-489.26 789,-468 749.59,-449.71 716,-446.44 716,-403 716,-403 716,-403 716,-345 716,-270.42 822.37,-246.22 882.24,-238.51"/>
<polygon fill="midnightblue" stroke="midnightblue" points="882.97,-241.95 892.49,-237.29 882.14,-235 882.97,-241.95"/>
</g>
<!-- Node48&#45;&gt;Node44 -->
<g id="edge179" class="edge">
<title>Node48&#45;&gt;Node44</title>
<path fill="none" stroke="midnightblue" d="M1052.74,-513.07C975,-511.93 834.63,-504.69 803,-468 759.85,-417.95 828.86,-339.99 862.85,-306.81"/>
<polygon fill="midnightblue" stroke="midnightblue" points="865.45,-309.16 870.27,-299.73 860.62,-304.1 865.45,-309.16"/>
</g>
<!-- Node49 -->
<g id="node41" class="node">
<title>Node49</title>
<g id="a_node41"><a xlink:href="llvm-c_2Error_8h.html" target="_top" xlink:title=" ">
<polygon fill="none" stroke="red" points="812.5,-448.5 812.5,-467.5 887.5,-467.5 887.5,-448.5 812.5,-448.5"/>
<text text-anchor="middle" x="850" y="-455.5" font-family="Helvetica" font-size="10.00">llvm&#45;c/Error.h</text>
</a>
</g>
</g>
<!-- Node48&#45;&gt;Node49 -->
<g id="edge115" class="edge">
<title>Node48&#45;&gt;Node49</title>
<path fill="none" stroke="midnightblue" d="M1064.59,-504.44C1019.23,-494.84 945.69,-479.26 897.58,-469.08"/>
<polygon fill="midnightblue" stroke="midnightblue" points="898.23,-465.64 887.72,-466.99 896.78,-472.48 898.23,-465.64"/>
</g>
<!-- Node51 -->
<g id="node42" class="node">
<title>Node51</title>
<g id="a_node42"><a xlink:href="StringExtras_8h.html" target="_top" xlink:title=" ">
<polygon fill="none" stroke="red" points="1691,-448.5 1691,-467.5 1813,-467.5 1813,-448.5 1691,-448.5"/>
<text text-anchor="middle" x="1752" y="-455.5" font-family="Helvetica" font-size="10.00">llvm/ADT/StringExtras.h</text>
</a>
</g>
</g>
<!-- Node48&#45;&gt;Node51 -->
<g id="edge118" class="edge">
<title>Node48&#45;&gt;Node51</title>
<path fill="none" stroke="midnightblue" d="M1157.13,-508.65C1272.34,-499.03 1548.85,-475.96 1680.28,-464.99"/>
<polygon fill="midnightblue" stroke="midnightblue" points="1680.96,-468.44 1690.63,-464.12 1680.37,-461.47 1680.96,-468.44"/>
</g>
<!-- Node53 -->
<g id="node43" class="node">
<title>Node53</title>
<g id="a_node43"><a xlink:href="Twine_8h.html" target="_top" xlink:title=" ">
<polygon fill="none" stroke="black" points="1531,-392.5 1531,-411.5 1625,-411.5 1625,-392.5 1531,-392.5"/>
<text text-anchor="middle" x="1578" y="-399.5" font-family="Helvetica" font-size="10.00">llvm/ADT/Twine.h</text>
</a>
</g>
</g>
<!-- Node48&#45;&gt;Node53 -->
<g id="edge136" class="edge">
<title>Node48&#45;&gt;Node53</title>
<path fill="none" stroke="midnightblue" d="M1157.22,-509.68C1245.7,-503.55 1421.11,-489.16 1479,-468 1510.48,-456.49 1542.02,-433.28 1560.77,-417.94"/>
<polygon fill="midnightblue" stroke="midnightblue" points="1563.02,-420.62 1568.44,-411.51 1558.53,-415.25 1563.02,-420.62"/>
</g>
<!-- Node54 -->
<g id="node44" class="node">
<title>Node54</title>
<g id="a_node44"><a xlink:href="AlignOf_8h.html" target="_top" xlink:title=" ">
<polygon fill="none" stroke="black" points="3948.5,-336.5 3948.5,-355.5 4063.5,-355.5 4063.5,-336.5 3948.5,-336.5"/>
<text text-anchor="middle" x="4006" y="-343.5" font-family="Helvetica" font-size="10.00">llvm/Support/AlignOf.h</text>
</a>
</g>
</g>
<!-- Node48&#45;&gt;Node54 -->
<g id="edge138" class="edge">
<title>Node48&#45;&gt;Node54</title>
<path fill="none" stroke="midnightblue" d="M1157.07,-512.77C1521.23,-511.08 3676.16,-499.79 3810,-468 3884.65,-450.27 3957.49,-391.16 3989.31,-362.64"/>
<polygon fill="midnightblue" stroke="midnightblue" points="3991.8,-365.11 3996.83,-355.78 3987.08,-359.94 3991.8,-365.11"/>
</g>
<!-- Node55 -->
<g id="node45" class="node">
<title>Node55</title>
<g id="a_node45"><a xlink:href="Debug_8h.html" target="_top" xlink:title=" ">
<polygon fill="none" stroke="black" points="1049,-448.5 1049,-467.5 1161,-467.5 1161,-448.5 1049,-448.5"/>
<text text-anchor="middle" x="1105" y="-455.5" font-family="Helvetica" font-size="10.00">llvm/Support/Debug.h</text>
</a>
</g>
</g>
<!-- Node48&#45;&gt;Node55 -->
<g id="edge141" class="edge">
<title>Node48&#45;&gt;Node55</title>
<path fill="none" stroke="midnightblue" d="M1105,-504.08C1105,-497.01 1105,-486.86 1105,-477.99"/>
<polygon fill="midnightblue" stroke="midnightblue" points="1108.5,-477.75 1105,-467.75 1101.5,-477.75 1108.5,-477.75"/>
</g>
<!-- Node56 -->
<g id="node46" class="node">
<title>Node56</title>
<g id="a_node46"><a xlink:href="ErrorOr_8h.html" target="_top" xlink:title="Provides ErrorOr&lt;T&gt; smart pointer.">
<polygon fill="none" stroke="black" points="3801.5,-392.5 3801.5,-411.5 3916.5,-411.5 3916.5,-392.5 3801.5,-392.5"/>
<text text-anchor="middle" x="3859" y="-399.5" font-family="Helvetica" font-size="10.00">llvm/Support/ErrorOr.h</text>
</a>
</g>
</g>
<!-- Node48&#45;&gt;Node56 -->
<g id="edge143" class="edge">
<title>Node48&#45;&gt;Node56</title>
<path fill="none" stroke="midnightblue" d="M1157.15,-513.09C1519.5,-513.59 3651.3,-514.55 3779,-468 3805.92,-458.19 3830.45,-435.23 3845.06,-419.4"/>
<polygon fill="midnightblue" stroke="midnightblue" points="3847.72,-421.68 3851.76,-411.88 3842.49,-417.02 3847.72,-421.68"/>
</g>
<!-- Node57 -->
<g id="node47" class="node">
<title>Node57</title>
<g id="a_node47"><a xlink:title=" ">
<polygon fill="none" stroke="#bfbfbf" points="3744,-336.5 3744,-355.5 3816,-355.5 3816,-336.5 3744,-336.5"/>
<text text-anchor="middle" x="3780" y="-343.5" font-family="Helvetica" font-size="10.00">system_error</text>
</a>
</g>
</g>
<!-- Node48&#45;&gt;Node57 -->
<g id="edge176" class="edge">
<title>Node48&#45;&gt;Node57</title>
<path fill="none" stroke="midnightblue" d="M1157.47,-513.13C1449.28,-513.67 2874.88,-513.9 3312,-468 3443.85,-454.16 3477.3,-447.65 3605,-412 3657.56,-397.33 3716.69,-373.84 3751,-359.47"/>
<polygon fill="midnightblue" stroke="midnightblue" points="3752.56,-362.62 3760.41,-355.51 3749.84,-356.17 3752.56,-362.62"/>
</g>
<!-- Node58 -->
<g id="node48" class="node">
<title>Node58</title>
<g id="a_node48"><a xlink:href="Format_8h.html" target="_top" xlink:title=" ">
<polygon fill="none" stroke="red" points="2301.5,-392.5 2301.5,-411.5 2414.5,-411.5 2414.5,-392.5 2301.5,-392.5"/>
<text text-anchor="middle" x="2358" y="-399.5" font-family="Helvetica" font-size="10.00">llvm/Support/Format.h</text>
</a>
</g>
</g>
<!-- Node48&#45;&gt;Node58 -->
<g id="edge149" class="edge">
<title>Node48&#45;&gt;Node58</title>
<path fill="none" stroke="midnightblue" d="M1157.26,-510.76C1275.7,-505.46 1573.6,-490.84 1822,-468 1991.43,-452.42 2190.07,-426.26 2291.31,-412.35"/>
<polygon fill="midnightblue" stroke="midnightblue" points="2291.96,-415.79 2301.39,-410.96 2291.01,-408.86 2291.96,-415.79"/>
</g>
<!-- Node60 -->
<g id="node49" class="node">
<title>Node60</title>
<g id="a_node49"><a xlink:href="raw__ostream_8h.html" target="_top" xlink:title=" ">
<polygon fill="none" stroke="red" points="3456,-392.5 3456,-411.5 3596,-411.5 3596,-392.5 3456,-392.5"/>
<text text-anchor="middle" x="3526" y="-399.5" font-family="Helvetica" font-size="10.00">llvm/Support/raw_ostream.h</text>
</a>
</g>
</g>
<!-- Node48&#45;&gt;Node60 -->
<g id="edge157" class="edge">
<title>Node48&#45;&gt;Node60</title>
<path fill="none" stroke="midnightblue" d="M1157.12,-512.55C1464.2,-509.78 3031.37,-494.46 3244,-468 3332.53,-456.99 3433.91,-429.98 3487.73,-414.47"/>
<polygon fill="midnightblue" stroke="midnightblue" points="3488.9,-417.77 3497.53,-411.62 3486.95,-411.05 3488.9,-417.77"/>
</g>
<!-- Node51&#45;&gt;Node2 -->
<g id="edge119" class="edge">
<title>Node51&#45;&gt;Node2</title>
<path fill="none" stroke="midnightblue" d="M1737.52,-448.29C1710.92,-432.42 1655.09,-399.72 1634,-392 1581.54,-372.8 1519,-361.1 1473.35,-354.47"/>
<polygon fill="midnightblue" stroke="midnightblue" points="1473.68,-350.98 1463.29,-353.05 1472.71,-357.91 1473.68,-350.98"/>
</g>
<!-- Node51&#45;&gt;Node13 -->
<g id="edge134" class="edge">
<title>Node51&#45;&gt;Node13</title>
<path fill="none" stroke="midnightblue" d="M1690.68,-455.89C1563.38,-453.02 1261.34,-443.23 1010,-412 743.83,-378.93 678.28,-360.6 417,-300 325.83,-278.85 270.7,-318.46 214,-244 177.95,-196.66 204.23,-120.08 219.33,-85.27"/>
<polygon fill="midnightblue" stroke="midnightblue" points="222.64,-86.44 223.58,-75.88 216.27,-83.55 222.64,-86.44"/>
</g>
<!-- Node51&#45;&gt;Node15 -->
<g id="edge129" class="edge">
<title>Node51&#45;&gt;Node15</title>
<path fill="none" stroke="midnightblue" d="M1813.02,-456.68C1981.51,-455.33 2450.57,-448.33 2600,-412 2668.23,-395.41 2744,-417.22 2744,-347 2744,-347 2744,-347 2744,-289 2744,-196.55 2653.14,-114.36 2611.92,-81.82"/>
<polygon fill="midnightblue" stroke="midnightblue" points="2613.98,-78.99 2603.93,-75.64 2609.7,-84.53 2613.98,-78.99"/>
</g>
<!-- Node51&#45;&gt;Node16 -->
<g id="edge130" class="edge">
<title>Node51&#45;&gt;Node16</title>
<path fill="none" stroke="midnightblue" d="M1813.18,-456.98C2144.22,-456.72 3714.03,-453.28 3926,-412 3994.62,-398.64 4027.48,-409.07 4073,-356 4139.29,-278.72 4110.27,-233.25 4121,-132 4121.94,-123.16 4123.51,-120.53 4121,-112 4117.99,-101.76 4111.85,-91.66 4105.99,-83.63"/>
<polygon fill="midnightblue" stroke="midnightblue" points="4108.59,-81.27 4099.67,-75.54 4103.07,-85.58 4108.59,-81.27"/>
</g>
<!-- Node51&#45;&gt;Node20 -->
<g id="edge135" class="edge">
<title>Node51&#45;&gt;Node20</title>
<path fill="none" stroke="midnightblue" d="M1813.13,-456.4C2023.69,-453.52 2706,-437.24 2706,-347 2706,-347 2706,-347 2706,-289 2706,-204.61 2450.53,-137.26 2370,-112 2250.54,-74.53 2099.85,-68.07 2036.38,-67.09"/>
<polygon fill="midnightblue" stroke="midnightblue" points="2036.3,-63.59 2026.26,-66.97 2036.22,-70.59 2036.3,-63.59"/>
</g>
<!-- Node51&#45;&gt;Node22 -->
<g id="edge128" class="edge">
<title>Node51&#45;&gt;Node22</title>
<path fill="none" stroke="midnightblue" d="M1813.18,-457.22C1974.04,-457.17 2421.98,-453.04 2792,-412 2954.47,-393.98 3154,-510.46 3154,-347 3154,-347 3154,-347 3154,-289 3154,-258.2 3166.74,-252.66 3178,-224 3184.34,-207.87 3189.6,-205 3193,-188 3194.74,-179.28 3197.49,-175.67 3193,-168 3187.24,-158.14 3162.86,-145.22 3142.51,-135.75"/>
<polygon fill="midnightblue" stroke="midnightblue" points="3143.79,-132.49 3133.23,-131.54 3140.89,-138.86 3143.79,-132.49"/>
</g>
<!-- Node51&#45;&gt;Node23 -->
<g id="edge132" class="edge">
<title>Node51&#45;&gt;Node23</title>
<path fill="none" stroke="midnightblue" d="M1813.13,-456.91C2018,-456.23 2672.26,-451 2758,-412 2794.34,-395.47 2820,-386.92 2820,-347 2820,-347 2820,-347 2820,-289 2820,-230.62 2767.17,-237.37 2736,-188 2726.58,-173.07 2718.38,-154.7 2712.94,-141.3"/>
<polygon fill="midnightblue" stroke="midnightblue" points="2716.12,-139.81 2709.2,-131.78 2709.6,-142.37 2716.12,-139.81"/>
</g>
<!-- Node51&#45;&gt;Node33 -->
<g id="edge131" class="edge">
<title>Node51&#45;&gt;Node33</title>
<path fill="none" stroke="midnightblue" d="M1690.85,-457.08C1504.33,-455.16 929.53,-433.22 505,-244 466.35,-226.77 458.03,-217.81 428,-188 413.28,-173.39 399.55,-153.97 390.58,-140.17"/>
<polygon fill="midnightblue" stroke="midnightblue" points="393.48,-138.22 385.17,-131.64 387.57,-141.96 393.48,-138.22"/>
</g>
<!-- Node51&#45;&gt;Node35 -->
<g id="edge133" class="edge">
<title>Node51&#45;&gt;Node35</title>
<path fill="none" stroke="midnightblue" d="M1743.79,-448.19C1717.83,-420.04 1636,-329.09 1582,-244 1572.43,-228.92 1563.63,-210.56 1557.69,-197.21"/>
<polygon fill="midnightblue" stroke="midnightblue" points="1560.77,-195.51 1553.58,-187.73 1554.34,-198.3 1560.77,-195.51"/>
</g>
<!-- Node51&#45;&gt;Node47 -->
<g id="edge120" class="edge">
<title>Node51&#45;&gt;Node47</title>
<path fill="none" stroke="midnightblue" d="M1793.61,-448.46C1890.47,-428.58 2130.8,-379.26 2236.6,-357.55"/>
<polygon fill="midnightblue" stroke="midnightblue" points="2237.32,-360.97 2246.41,-355.53 2235.91,-354.12 2237.32,-360.97"/>
</g>
<!-- Node51&#45;&gt;Node53 -->
<g id="edge121" class="edge">
<title>Node51&#45;&gt;Node53</title>
<path fill="none" stroke="midnightblue" d="M1724.43,-448.44C1694.9,-439.28 1647.88,-424.69 1615.12,-414.52"/>
<polygon fill="midnightblue" stroke="midnightblue" points="1616.03,-411.14 1605.44,-411.52 1613.96,-417.82 1616.03,-411.14"/>
</g>
<!-- Node53&#45;&gt;Node9 -->
<g id="edge124" class="edge">
<title>Node53&#45;&gt;Node9</title>
<path fill="none" stroke="midnightblue" d="M1530.78,-396.34C1414.29,-384.44 1104.11,-350.27 849,-300 836.73,-297.58 642.98,-247.57 631,-244 556.78,-221.91 511.11,-250.95 466,-188 454.92,-172.54 467.96,-152.5 480.36,-138.78"/>
<polygon fill="midnightblue" stroke="midnightblue" points="482.96,-141.13 487.4,-131.52 477.93,-136.26 482.96,-141.13"/>
</g>
<!-- Node53&#45;&gt;Node13 -->
<g id="edge127" class="edge">
<title>Node53&#45;&gt;Node13</title>
<path fill="none" stroke="midnightblue" d="M1530.76,-399.23C1328.42,-391.04 535.11,-352.47 314,-244 280.66,-227.65 270.32,-220.3 252,-188 233.48,-155.36 229.07,-110.7 228.13,-85.78"/>
<polygon fill="midnightblue" stroke="midnightblue" points="231.62,-85.47 227.9,-75.55 224.63,-85.62 231.62,-85.47"/>
</g>
<!-- Node53&#45;&gt;Node16 -->
<g id="edge126" class="edge">
<title>Node53&#45;&gt;Node16</title>
<path fill="none" stroke="midnightblue" d="M1625.38,-399.81C1899.14,-392.59 3280.54,-351.32 3690,-244 3825.66,-208.44 3858.99,-193.55 3985,-132 4016.13,-116.79 4049.98,-95.32 4071.09,-81.28"/>
<polygon fill="midnightblue" stroke="midnightblue" points="4073.23,-84.06 4079.58,-75.58 4069.33,-78.25 4073.23,-84.06"/>
</g>
<!-- Node53&#45;&gt;Node22 -->
<g id="edge125" class="edge">
<title>Node53&#45;&gt;Node22</title>
<path fill="none" stroke="midnightblue" d="M1625.27,-400.58C1746.43,-399 2077.72,-391.5 2351,-356 2599.25,-323.76 2659.05,-300.18 2903,-244 3000.06,-221.64 3059,-266.74 3120,-188 3130.19,-174.84 3126.41,-155.44 3121.32,-141.25"/>
<polygon fill="midnightblue" stroke="midnightblue" points="3124.41,-139.55 3117.38,-131.61 3117.93,-142.2 3124.41,-139.55"/>
</g>
<!-- Node53&#45;&gt;Node26 -->
<g id="edge122" class="edge">
<title>Node53&#45;&gt;Node26</title>
<path fill="none" stroke="midnightblue" d="M1530.71,-398.1C1482.82,-393.72 1407.53,-382.85 1348,-356 1310.73,-339.18 1293.09,-336.67 1275,-300 1261.47,-272.57 1294.66,-255.78 1327.87,-246.15"/>
<polygon fill="midnightblue" stroke="midnightblue" points="1328.93,-249.49 1337.67,-243.51 1327.1,-242.73 1328.93,-249.49"/>
</g>
<!-- Node53&#45;&gt;Node47 -->
<g id="edge123" class="edge">
<title>Node53&#45;&gt;Node47</title>
<path fill="none" stroke="midnightblue" d="M1625.13,-397.42C1748.72,-388.02 2082.27,-362.65 2223.46,-351.91"/>
<polygon fill="midnightblue" stroke="midnightblue" points="2223.99,-355.38 2233.69,-351.13 2223.46,-348.4 2223.99,-355.38"/>
</g>
<!-- Node54&#45;&gt;Node17 -->
<g id="edge139" class="edge">
<title>Node54&#45;&gt;Node17</title>
<path fill="none" stroke="midnightblue" d="M4007.14,-336.19C4011.05,-301.68 4020.3,-174.6 3954,-112 3921.03,-80.87 3788.87,-71.2 3720.48,-68.25"/>
<polygon fill="midnightblue" stroke="midnightblue" points="3720.21,-64.74 3710.08,-67.84 3719.93,-71.74 3720.21,-64.74"/>
</g>
<!-- Node56&#45;&gt;Node17 -->
<g id="edge147" class="edge">
<title>Node56&#45;&gt;Node17</title>
<path fill="none" stroke="midnightblue" d="M3863.11,-392.28C3867.06,-383.38 3872.74,-369.07 3875,-356 3876.51,-347.24 3876.32,-344.79 3875,-336 3859.49,-232.99 3878.11,-187.18 3806,-112 3783.53,-88.57 3748.1,-77.32 3720.37,-71.93"/>
<polygon fill="midnightblue" stroke="midnightblue" points="3720.61,-68.42 3710.16,-70.14 3719.4,-75.31 3720.61,-68.42"/>
</g>
<!-- Node56&#45;&gt;Node20 -->
<g id="edge148" class="edge">
<title>Node56&#45;&gt;Node20</title>
<path fill="none" stroke="midnightblue" d="M3857.11,-392.13C3853.55,-377.75 3844.39,-349.61 3825,-336 3775.02,-300.92 2795.85,-200.08 2736,-188 2608.76,-162.32 2581.67,-135.45 2454,-112 2298.6,-83.45 2109.32,-71.93 2036.53,-68.35"/>
<polygon fill="midnightblue" stroke="midnightblue" points="2036.41,-64.84 2026.26,-67.86 2036.08,-71.83 2036.41,-64.84"/>
</g>
<!-- Node56&#45;&gt;Node22 -->
<g id="edge145" class="edge">
<title>Node56&#45;&gt;Node22</title>
<path fill="none" stroke="midnightblue" d="M3861.74,-392.43C3865.47,-378.97 3870.36,-352.69 3858,-336 3712.96,-140.14 3571.82,-229.53 3336,-168 3270.37,-150.87 3192.44,-136.48 3148.25,-128.85"/>
<polygon fill="midnightblue" stroke="midnightblue" points="3148.74,-125.38 3138.29,-127.15 3147.56,-132.28 3148.74,-125.38"/>
</g>
<!-- Node56&#45;&gt;Node54 -->
<g id="edge144" class="edge">
<title>Node56&#45;&gt;Node54</title>
<path fill="none" stroke="midnightblue" d="M3882.29,-392.44C3906.81,-383.44 3945.6,-369.19 3973.2,-359.05"/>
<polygon fill="midnightblue" stroke="midnightblue" points="3974.64,-362.25 3982.82,-355.52 3972.22,-355.68 3974.64,-362.25"/>
</g>
<!-- Node56&#45;&gt;Node57 -->
<g id="edge146" class="edge">
<title>Node56&#45;&gt;Node57</title>
<path fill="none" stroke="midnightblue" d="M3846.31,-392.32C3834.1,-383.98 3815.42,-371.21 3801,-361.35"/>
<polygon fill="midnightblue" stroke="midnightblue" points="3802.89,-358.41 3792.66,-355.65 3798.94,-364.19 3802.89,-358.41"/>
</g>
<!-- Node58&#45;&gt;Node2 -->
<g id="edge150" class="edge">
<title>Node58&#45;&gt;Node2</title>
<path fill="none" stroke="midnightblue" d="M2301.19,-397.76C2134.54,-388.27 1647.78,-360.54 1473.22,-350.6"/>
<polygon fill="midnightblue" stroke="midnightblue" points="1473.34,-347.1 1463.16,-350.03 1472.95,-354.09 1473.34,-347.1"/>
</g>
<!-- Node58&#45;&gt;Node4 -->
<g id="edge153" class="edge">
<title>Node58&#45;&gt;Node4</title>
<path fill="none" stroke="midnightblue" d="M2414.58,-401.24C2618.72,-400.89 3313.39,-388.9 3468,-244 3492.95,-220.62 3500.28,-195.53 3480,-168 3469.28,-153.45 3428.45,-141.58 3392.84,-133.69"/>
<polygon fill="midnightblue" stroke="midnightblue" points="3393.47,-130.25 3382.96,-131.57 3392.01,-137.09 3393.47,-130.25"/>
</g>
<!-- Node58&#45;&gt;Node20 -->
<g id="edge156" class="edge">
<title>Node58&#45;&gt;Node20</title>
<path fill="none" stroke="midnightblue" d="M2361.42,-392.29C2376.46,-352.38 2432.35,-185.63 2347,-112 2300.78,-72.13 2110.9,-67.24 2036.3,-66.89"/>
<polygon fill="midnightblue" stroke="midnightblue" points="2036.16,-63.39 2026.16,-66.87 2036.15,-70.39 2036.16,-63.39"/>
</g>
<!-- Node58&#45;&gt;Node22 -->
<g id="edge154" class="edge">
<title>Node58&#45;&gt;Node22</title>
<path fill="none" stroke="midnightblue" d="M2414.65,-394.63C2472.7,-387.51 2565.35,-374.5 2644,-356 2764.68,-327.62 3102.71,-288 3176,-188 3190.37,-168.39 3164.37,-148.75 3141.54,-136.27"/>
<polygon fill="midnightblue" stroke="midnightblue" points="3142.89,-133.03 3132.4,-131.54 3139.67,-139.24 3142.89,-133.03"/>
</g>
<!-- Node58&#45;&gt;Node24 -->
<g id="edge155" class="edge">
<title>Node58&#45;&gt;Node24</title>
<path fill="none" stroke="midnightblue" d="M2358.25,-392.33C2358.36,-379.62 2357.57,-355.34 2351,-336 2323.74,-255.8 2262.29,-173.85 2234.77,-139.62"/>
<polygon fill="midnightblue" stroke="midnightblue" points="2237.29,-137.16 2228.26,-131.61 2231.86,-141.58 2237.29,-137.16"/>
</g>
<!-- Node58&#45;&gt;Node38 -->
<g id="edge151" class="edge">
<title>Node58&#45;&gt;Node38</title>
<path fill="none" stroke="midnightblue" d="M2317.16,-392.46C2222.2,-372.6 1986.74,-323.36 1882.75,-301.61"/>
<polygon fill="midnightblue" stroke="midnightblue" points="1883.32,-298.16 1872.81,-299.53 1881.88,-305.01 1883.32,-298.16"/>
</g>
<!-- Node58&#45;&gt;Node47 -->
<g id="edge152" class="edge">
<title>Node58&#45;&gt;Node47</title>
<path fill="none" stroke="midnightblue" d="M2346.75,-392.32C2336.2,-384.18 2320.2,-371.84 2307.56,-362.09"/>
<polygon fill="midnightblue" stroke="midnightblue" points="2309.51,-359.17 2299.45,-355.83 2305.23,-364.71 2309.51,-359.17"/>
</g>
<!-- Node60&#45;&gt;Node4 -->
<g id="edge160" class="edge">
<title>Node60&#45;&gt;Node4</title>
<path fill="none" stroke="midnightblue" d="M3531.24,-392.14C3550.38,-358.51 3612.51,-237.17 3556,-168 3546.41,-156.26 3467.53,-142.25 3406.72,-133.02"/>
<polygon fill="midnightblue" stroke="midnightblue" points="3407.15,-129.55 3396.74,-131.52 3406.11,-136.47 3407.15,-129.55"/>
</g>
<!-- Node60&#45;&gt;Node13 -->
<g id="edge165" class="edge">
<title>Node60&#45;&gt;Node13</title>
<path fill="none" stroke="midnightblue" d="M3455.79,-400.41C3131.01,-397.56 1772.2,-384.13 1348,-356 1125.32,-341.24 1069.88,-331.87 849,-300 637.75,-269.52 574.44,-280.32 382,-188 338.15,-166.97 325.77,-162.63 288,-132 270.02,-117.42 252.42,-97.48 240.97,-83.54"/>
<polygon fill="midnightblue" stroke="midnightblue" points="243.69,-81.34 234.7,-75.74 238.24,-85.73 243.69,-81.34"/>
</g>
<!-- Node60&#45;&gt;Node15 -->
<g id="edge162" class="edge">
<title>Node60&#45;&gt;Node15</title>
<path fill="none" stroke="midnightblue" d="M3536.05,-392.27C3545.23,-383.8 3558.62,-370.2 3567,-356 3609.5,-283.97 3633.22,-228.03 3575,-168 3568.22,-161.01 3418.56,-113.84 3409,-112 3255.53,-82.45 2762.29,-70.45 2626.75,-67.67"/>
<polygon fill="midnightblue" stroke="midnightblue" points="2626.6,-64.16 2616.54,-67.46 2626.46,-71.16 2626.6,-64.16"/>
</g>
<!-- Node60&#45;&gt;Node16 -->
<g id="edge163" class="edge">
<title>Node60&#45;&gt;Node16</title>
<path fill="none" stroke="midnightblue" d="M3558.83,-392.43C3590.57,-383.93 3639.92,-370.16 3682,-356 3690.18,-353.25 3964.4,-248.11 3972,-244 4040.28,-207.09 4076.3,-203.71 4106,-132 4112.34,-116.7 4107.18,-98.14 4101.41,-84.78"/>
<polygon fill="midnightblue" stroke="midnightblue" points="4104.55,-83.22 4097.07,-75.71 4098.24,-86.24 4104.55,-83.22"/>
</g>
<!-- Node60&#45;&gt;Node17 -->
<g id="edge167" class="edge">
<title>Node60&#45;&gt;Node17</title>
<path fill="none" stroke="midnightblue" d="M3566.19,-392.46C3592.69,-385.54 3627.31,-373.93 3654,-356 3736.84,-300.34 3767.58,-281.31 3803,-188 3811.61,-165.33 3790.65,-115.01 3788,-112 3770.59,-92.17 3743.07,-80.9 3720.04,-74.59"/>
<polygon fill="midnightblue" stroke="midnightblue" points="3720.71,-71.15 3710.16,-72.11 3719,-77.94 3720.71,-71.15"/>
</g>
<!-- Node60&#45;&gt;Node22 -->
<g id="edge161" class="edge">
<title>Node60&#45;&gt;Node22</title>
<path fill="none" stroke="midnightblue" d="M3520.93,-392.32C3499.92,-357.23 3415.64,-225.01 3307,-168 3255.85,-141.16 3188.84,-130.19 3148.45,-125.8"/>
<polygon fill="midnightblue" stroke="midnightblue" points="3148.59,-122.3 3138.29,-124.78 3147.89,-129.26 3148.59,-122.3"/>
</g>
<!-- Node60&#45;&gt;Node23 -->
<g id="edge164" class="edge">
<title>Node60&#45;&gt;Node23</title>
<path fill="none" stroke="midnightblue" d="M3483.19,-392.42C3341.26,-363.45 2888.14,-266.73 2763,-188 2743.62,-175.81 2727.09,-155.06 2716.9,-140.28"/>
<polygon fill="midnightblue" stroke="midnightblue" points="2719.59,-138 2711.15,-131.59 2713.75,-141.86 2719.59,-138"/>
</g>
<!-- Node60&#45;&gt;Node26 -->
<g id="edge158" class="edge">
<title>Node60&#45;&gt;Node26</title>
<path fill="none" stroke="midnightblue" d="M3455.72,-400.71C3260.29,-399.43 2693.94,-392.59 2225,-356 2019.67,-339.98 1968.79,-329.77 1765,-300 1648.95,-283.05 1513.77,-258.94 1439.67,-245.36"/>
<polygon fill="midnightblue" stroke="midnightblue" points="1440.1,-241.88 1429.63,-243.51 1438.84,-248.76 1440.1,-241.88"/>
</g>
<!-- Node60&#45;&gt;Node47 -->
<g id="edge159" class="edge">
<title>Node60&#45;&gt;Node47</title>
<path fill="none" stroke="midnightblue" d="M3455.89,-397.94C3236.22,-388.36 2563.35,-359.01 2352.13,-349.8"/>
<polygon fill="midnightblue" stroke="midnightblue" points="2352.27,-346.3 2342.13,-349.36 2351.97,-353.29 2352.27,-346.3"/>
</g>
<!-- Node60&#45;&gt;Node57 -->
<g id="edge166" class="edge">
<title>Node60&#45;&gt;Node57</title>
<path fill="none" stroke="midnightblue" d="M3566.25,-392.44C3611.82,-382.75 3685.96,-366.99 3733.84,-356.81"/>
<polygon fill="midnightblue" stroke="midnightblue" points="3734.59,-360.23 3743.64,-354.73 3733.14,-353.39 3734.59,-360.23"/>
</g>
<!-- Node62&#45;&gt;Node10 -->
<g id="edge182" class="edge">
<title>Node62&#45;&gt;Node10</title>
<path fill="none" stroke="midnightblue" d="M3655.35,-168.46C3610.05,-160.09 3540.09,-146.5 3480,-132 3448.13,-124.31 3441.43,-116.77 3409,-112 3283.02,-93.46 1326.8,-71.96 926.3,-67.74"/>
<polygon fill="midnightblue" stroke="midnightblue" points="926.33,-64.24 916.29,-67.63 926.26,-71.24 926.33,-64.24"/>
</g>
<!-- Node62&#45;&gt;Node14 -->
<g id="edge183" class="edge">
<title>Node62&#45;&gt;Node14</title>
<path fill="none" stroke="midnightblue" d="M3687.74,-168.32C3672.78,-159.82 3649.75,-146.73 3632.27,-136.8"/>
<polygon fill="midnightblue" stroke="midnightblue" points="3633.65,-133.55 3623.23,-131.65 3630.19,-139.64 3633.65,-133.55"/>
</g>
<!-- Node62&#45;&gt;Node15 -->
<g id="edge185" class="edge">
<title>Node62&#45;&gt;Node15</title>
<path fill="none" stroke="midnightblue" d="M3659.03,-168.46C3622.16,-160.72 3568.4,-148.07 3523,-132 3503.13,-124.97 3500.46,-117.07 3480,-112 3314.08,-70.87 2770.59,-67.23 2627.03,-66.99"/>
<polygon fill="midnightblue" stroke="midnightblue" points="2626.65,-63.49 2616.64,-66.98 2626.64,-70.49 2626.65,-63.49"/>
</g>
<!-- Node62&#45;&gt;Node16 -->
<g id="edge186" class="edge">
<title>Node62&#45;&gt;Node16</title>
<path fill="none" stroke="midnightblue" d="M3733.2,-168.46C3804.81,-148.21 3984.45,-97.41 4058.89,-76.36"/>
<polygon fill="midnightblue" stroke="midnightblue" points="4060,-79.69 4068.67,-73.6 4058.1,-72.95 4060,-79.69"/>
</g>
<!-- Node62&#45;&gt;Node17 -->
<g id="edge188" class="edge">
<title>Node62&#45;&gt;Node17</title>
<path fill="none" stroke="midnightblue" d="M3702.06,-168.09C3700.62,-155.49 3697.58,-131.8 3693,-112 3690.92,-103.02 3687.97,-93.23 3685.3,-85.08"/>
<polygon fill="midnightblue" stroke="midnightblue" points="3688.59,-83.87 3682.07,-75.52 3681.96,-86.12 3688.59,-83.87"/>
</g>
<!-- Node62&#45;&gt;Node22 -->
<g id="edge184" class="edge">
<title>Node62&#45;&gt;Node22</title>
<path fill="none" stroke="midnightblue" d="M3646.43,-171.82C3525.93,-160.79 3246.92,-135.26 3148.3,-126.23"/>
<polygon fill="midnightblue" stroke="midnightblue" points="3148.54,-122.74 3138.26,-125.31 3147.9,-129.71 3148.54,-122.74"/>
</g>
<!-- Node62&#45;&gt;Node23 -->
<g id="edge187" class="edge">
<title>Node62&#45;&gt;Node23</title>
<path fill="none" stroke="midnightblue" d="M3646.18,-173.92C3461.91,-163.94 2884.44,-132.66 2739.34,-124.81"/>
<polygon fill="midnightblue" stroke="midnightblue" points="2739.44,-121.31 2729.27,-124.26 2739.07,-128.3 2739.44,-121.31"/>
</g>
</g>
</svg>
