<?xml version="1.0" encoding="UTF-8" standalone="no"?>
<!DOCTYPE svg PUBLIC "-//W3C//DTD SVG 1.1//EN"
 "http://www.w3.org/Graphics/SVG/1.1/DTD/svg11.dtd">
<!-- Generated by graphviz version 2.44.0 (0)
 -->
<!-- Title: lib/Support/BinaryStreamRef.cpp Pages: 1 -->
<svg width="3695pt" height="733pt"
 viewBox="0.00 0.00 3694.64 733.00" xmlns="http://www.w3.org/2000/svg" xmlns:xlink="http://www.w3.org/1999/xlink">
<g id="graph0" class="graph" transform="scale(1 1) rotate(0) translate(4 729)">
<title>lib/Support/BinaryStreamRef.cpp</title>
<!-- Node1 -->
<g id="node1" class="node">
<title>Node1</title>
<g id="a_node1"><a xlink:title=" ">
<polygon fill="#bfbfbf" stroke="black" points="2086.5,-694.5 2086.5,-724.5 2213.5,-724.5 2213.5,-694.5 2086.5,-694.5"/>
<text text-anchor="start" x="2094.5" y="-712.5" font-family="Helvetica" font-size="10.00">lib/Support/BinaryStream</text>
<text text-anchor="middle" x="2150" y="-701.5" font-family="Helvetica" font-size="10.00">Ref.cpp</text>
</a>
</g>
</g>
<!-- Node2 -->
<g id="node2" class="node">
<title>Node2</title>
<g id="a_node2"><a xlink:href="BinaryStreamRef_8h.html" target="_top" xlink:title=" ">
<polygon fill="none" stroke="black" points="2331.5,-627.5 2331.5,-657.5 2466.5,-657.5 2466.5,-627.5 2331.5,-627.5"/>
<text text-anchor="start" x="2339.5" y="-645.5" font-family="Helvetica" font-size="10.00">llvm/Support/BinaryStream</text>
<text text-anchor="middle" x="2399" y="-634.5" font-family="Helvetica" font-size="10.00">Ref.h</text>
</a>
</g>
</g>
<!-- Node1&#45;&gt;Node2 -->
<g id="edge1" class="edge">
<title>Node1&#45;&gt;Node2</title>
<path fill="none" stroke="midnightblue" d="M2203.72,-694.48C2242.29,-684.41 2294.42,-670.8 2335.12,-660.17"/>
<polygon fill="midnightblue" stroke="midnightblue" points="2336.15,-663.52 2344.94,-657.61 2334.38,-656.75 2336.15,-663.52"/>
</g>
<!-- Node65 -->
<g id="node47" class="node">
<title>Node65</title>
<g id="a_node47"><a xlink:href="BinaryByteStream_8h.html" target="_top" xlink:title=" ">
<polygon fill="none" stroke="black" points="1943,-633 1943,-652 2107,-652 2107,-633 1943,-633"/>
<text text-anchor="middle" x="2025" y="-640" font-family="Helvetica" font-size="10.00">llvm/Support/BinaryByteStream.h</text>
</a>
</g>
</g>
<!-- Node1&#45;&gt;Node65 -->
<g id="edge171" class="edge">
<title>Node1&#45;&gt;Node65</title>
<path fill="none" stroke="midnightblue" d="M2122.88,-694.4C2101.33,-683.19 2071.43,-667.64 2050.36,-656.69"/>
<polygon fill="midnightblue" stroke="midnightblue" points="2051.85,-653.52 2041.36,-652.01 2048.62,-659.73 2051.85,-653.52"/>
</g>
<!-- Node3 -->
<g id="node3" class="node">
<title>Node3</title>
<g id="a_node3"><a xlink:href="ArrayRef_8h.html" target="_top" xlink:title=" ">
<polygon fill="none" stroke="black" points="2292,-280.5 2292,-299.5 2398,-299.5 2398,-280.5 2292,-280.5"/>
<text text-anchor="middle" x="2345" y="-287.5" font-family="Helvetica" font-size="10.00">llvm/ADT/ArrayRef.h</text>
</a>
</g>
</g>
<!-- Node2&#45;&gt;Node3 -->
<g id="edge2" class="edge">
<title>Node2&#45;&gt;Node3</title>
<path fill="none" stroke="midnightblue" d="M2466.51,-639.99C2663.14,-635.27 3223.24,-619.39 3250,-591 3499.86,-325.88 2651.19,-294.88 2408.18,-291.4"/>
<polygon fill="midnightblue" stroke="midnightblue" points="2408.13,-287.9 2398.09,-291.27 2408.04,-294.9 2408.13,-287.9"/>
</g>
<!-- Node22 -->
<g id="node12" class="node">
<title>Node22</title>
<g id="a_node12"><a xlink:title=" ">
<polygon fill="none" stroke="#bfbfbf" points="2999,-56.5 2999,-75.5 3055,-75.5 3055,-56.5 2999,-56.5"/>
<text text-anchor="middle" x="3027" y="-63.5" font-family="Helvetica" font-size="10.00">algorithm</text>
</a>
</g>
</g>
<!-- Node2&#45;&gt;Node22 -->
<g id="edge168" class="edge">
<title>Node2&#45;&gt;Node22</title>
<path fill="none" stroke="midnightblue" d="M2466.61,-641.75C2661.89,-641.88 3224.04,-638.05 3401,-591 3467.94,-573.2 3540,-589.77 3540,-520.5 3540,-520.5 3540,-520.5 3540,-345 3540,-230.67 3525,-177.07 3431,-112 3416.04,-101.65 3162.99,-78.77 3065.17,-70.27"/>
<polygon fill="midnightblue" stroke="midnightblue" points="3065.38,-66.77 3055.11,-69.4 3064.77,-73.75 3065.38,-66.77"/>
</g>
<!-- Node37 -->
<g id="node23" class="node">
<title>Node37</title>
<g id="a_node23"><a xlink:title=" ">
<polygon fill="none" stroke="#bfbfbf" points="3114.5,-112.5 3114.5,-131.5 3167.5,-131.5 3167.5,-112.5 3114.5,-112.5"/>
<text text-anchor="middle" x="3141" y="-119.5" font-family="Helvetica" font-size="10.00">memory</text>
</a>
</g>
</g>
<!-- Node2&#45;&gt;Node37 -->
<g id="edge170" class="edge">
<title>Node2&#45;&gt;Node37</title>
<path fill="none" stroke="midnightblue" d="M2466.56,-642.16C2654.99,-643.35 3183.27,-641.89 3348,-591 3405.64,-573.19 3464,-580.83 3464,-520.5 3464,-520.5 3464,-520.5 3464,-401 3464,-268.77 3387.57,-243.47 3279,-168 3248.37,-146.71 3207.01,-134.99 3177.58,-128.9"/>
<polygon fill="midnightblue" stroke="midnightblue" points="3178.19,-125.45 3167.71,-126.97 3176.85,-132.32 3178.19,-125.45"/>
</g>
<!-- Node40 -->
<g id="node26" class="node">
<title>Node40</title>
<g id="a_node26"><a xlink:href="Optional_8h.html" target="_top" xlink:title=" ">
<polygon fill="none" stroke="black" points="2459,-168.5 2459,-187.5 2563,-187.5 2563,-168.5 2459,-168.5"/>
<text text-anchor="middle" x="2511" y="-175.5" font-family="Helvetica" font-size="10.00">llvm/ADT/Optional.h</text>
</a>
</g>
</g>
<!-- Node2&#45;&gt;Node40 -->
<g id="edge71" class="edge">
<title>Node2&#45;&gt;Node40</title>
<path fill="none" stroke="midnightblue" d="M2466.78,-642.12C2668.96,-643.37 3258.04,-642.51 3326,-591 3352.38,-571.01 3350,-553.6 3350,-520.5 3350,-520.5 3350,-520.5 3350,-457 3350,-392 3277.99,-419.28 3219,-392 3047.33,-312.6 3010.11,-275.07 2828,-224 2741.51,-199.74 2637.89,-188.18 2573.24,-182.95"/>
<polygon fill="midnightblue" stroke="midnightblue" points="2573.45,-179.45 2563.2,-182.16 2572.9,-186.43 2573.45,-179.45"/>
</g>
<!-- Node17 -->
<g id="node28" class="node">
<title>Node17</title>
<g id="a_node28"><a xlink:title=" ">
<polygon fill="none" stroke="#bfbfbf" points="755,-168.5 755,-187.5 801,-187.5 801,-168.5 755,-168.5"/>
<text text-anchor="middle" x="778" y="-175.5" font-family="Helvetica" font-size="10.00">cstdint</text>
</a>
</g>
</g>
<!-- Node2&#45;&gt;Node17 -->
<g id="edge169" class="edge">
<title>Node2&#45;&gt;Node17</title>
<path fill="none" stroke="midnightblue" d="M2331.29,-637.85C2009.92,-620.49 650.39,-546.64 561,-535 393.23,-513.16 188,-628.18 188,-459 188,-459 188,-459 188,-345 188,-185.23 375.95,-273.34 533,-244 610.18,-229.58 698.78,-203.69 745.39,-189.32"/>
<polygon fill="midnightblue" stroke="midnightblue" points="746.44,-192.66 754.96,-186.35 744.37,-185.97 746.44,-192.66"/>
</g>
<!-- Node46 -->
<g id="node32" class="node">
<title>Node46</title>
<g id="a_node32"><a xlink:href="BinaryStream_8h.html" target="_top" xlink:title=" ">
<polygon fill="none" stroke="black" points="1667.5,-571.5 1667.5,-590.5 1810.5,-590.5 1810.5,-571.5 1667.5,-571.5"/>
<text text-anchor="middle" x="1739" y="-578.5" font-family="Helvetica" font-size="10.00">llvm/Support/BinaryStream.h</text>
</a>
</g>
</g>
<!-- Node2&#45;&gt;Node46 -->
<g id="edge72" class="edge">
<title>Node2&#45;&gt;Node46</title>
<path fill="none" stroke="midnightblue" d="M2331.47,-635.41C2209.4,-624.41 1952.47,-601.24 1820.71,-589.37"/>
<polygon fill="midnightblue" stroke="midnightblue" points="1820.95,-585.87 1810.67,-588.46 1820.32,-592.85 1820.95,-585.87"/>
</g>
<!-- Node48 -->
<g id="node34" class="node">
<title>Node48</title>
<g id="a_node34"><a xlink:href="BinaryStreamError_8h.html" target="_top" xlink:title=" ">
<polygon fill="none" stroke="black" points="2158.5,-504.5 2158.5,-534.5 2293.5,-534.5 2293.5,-504.5 2158.5,-504.5"/>
<text text-anchor="start" x="2166.5" y="-522.5" font-family="Helvetica" font-size="10.00">llvm/Support/BinaryStream</text>
<text text-anchor="middle" x="2226" y="-511.5" font-family="Helvetica" font-size="10.00">Error.h</text>
</a>
</g>
</g>
<!-- Node2&#45;&gt;Node48 -->
<g id="edge166" class="edge">
<title>Node2&#45;&gt;Node48</title>
<path fill="none" stroke="midnightblue" d="M2378.82,-627.38C2348.09,-605.89 2289.45,-564.88 2254.42,-540.38"/>
<polygon fill="midnightblue" stroke="midnightblue" points="2256.26,-537.39 2246.06,-534.53 2252.24,-543.13 2256.26,-537.39"/>
</g>
<!-- Node50 -->
<g id="node36" class="node">
<title>Node50</title>
<g id="a_node36"><a xlink:href="llvm_2Support_2Error_8h.html" target="_top" xlink:title=" ">
<polygon fill="none" stroke="black" points="1573,-448.5 1573,-467.5 1677,-467.5 1677,-448.5 1573,-448.5"/>
<text text-anchor="middle" x="1625" y="-455.5" font-family="Helvetica" font-size="10.00">llvm/Support/Error.h</text>
</a>
</g>
</g>
<!-- Node2&#45;&gt;Node50 -->
<g id="edge167" class="edge">
<title>Node2&#45;&gt;Node50</title>
<path fill="none" stroke="midnightblue" d="M2331.3,-628.55C2234.57,-609.74 2051.44,-572.92 1897,-535 1813.08,-514.39 1715.78,-486.14 1663.31,-470.53"/>
<polygon fill="midnightblue" stroke="midnightblue" points="1664.01,-467.09 1653.43,-467.59 1662.01,-473.8 1664.01,-467.09"/>
</g>
<!-- Node4 -->
<g id="node4" class="node">
<title>Node4</title>
<g id="a_node4"><a xlink:href="Hashing_8h.html" target="_top" xlink:title=" ">
<polygon fill="none" stroke="red" points="2383,-112.5 2383,-131.5 2487,-131.5 2487,-112.5 2383,-112.5"/>
<text text-anchor="middle" x="2435" y="-119.5" font-family="Helvetica" font-size="10.00">llvm/ADT/Hashing.h</text>
</a>
</g>
</g>
<!-- Node3&#45;&gt;Node4 -->
<g id="edge3" class="edge">
<title>Node3&#45;&gt;Node4</title>
<path fill="none" stroke="midnightblue" d="M2398.31,-281.27C2534.92,-261.22 2887.94,-207.71 2904,-188 2909.61,-181.11 2909.98,-174.58 2904,-168 2890.51,-153.15 2622.13,-134.63 2497.55,-126.78"/>
<polygon fill="midnightblue" stroke="midnightblue" points="2497.59,-123.28 2487.39,-126.15 2497.15,-130.27 2497.59,-123.28"/>
</g>
<!-- Node11 -->
<g id="node7" class="node">
<title>Node11</title>
<g id="a_node7"><a xlink:href="Compiler_8h.html" target="_top" xlink:title=" ">
<polygon fill="none" stroke="red" points="1801,-0.5 1801,-19.5 1923,-19.5 1923,-0.5 1801,-0.5"/>
<text text-anchor="middle" x="1862" y="-7.5" font-family="Helvetica" font-size="10.00">llvm/Support/Compiler.h</text>
</a>
</g>
</g>
<!-- Node3&#45;&gt;Node11 -->
<g id="edge61" class="edge">
<title>Node3&#45;&gt;Node11</title>
<path fill="none" stroke="midnightblue" d="M2291.84,-287.43C2173.82,-282.6 1896.76,-263.28 1852,-188 1821.77,-137.15 1842.57,-62.89 1854.81,-29.03"/>
<polygon fill="midnightblue" stroke="midnightblue" points="1858.14,-30.13 1858.41,-19.53 1851.59,-27.64 1858.14,-30.13"/>
</g>
<!-- Node18 -->
<g id="node10" class="node">
<title>Node18</title>
<g id="a_node10"><a xlink:title=" ">
<polygon fill="none" stroke="#bfbfbf" points="206,-0.5 206,-19.5 268,-19.5 268,-0.5 206,-0.5"/>
<text text-anchor="middle" x="237" y="-7.5" font-family="Helvetica" font-size="10.00">type_traits</text>
</a>
</g>
</g>
<!-- Node3&#45;&gt;Node18 -->
<g id="edge69" class="edge">
<title>Node3&#45;&gt;Node18</title>
<path fill="none" stroke="midnightblue" d="M2291.76,-288.06C1969.66,-282.35 294.94,-252.28 285,-244 220.5,-190.25 228.17,-74.92 234.06,-29.72"/>
<polygon fill="midnightblue" stroke="midnightblue" points="237.56,-29.99 235.51,-19.6 230.63,-29 237.56,-29.99"/>
</g>
<!-- Node3&#45;&gt;Node22 -->
<g id="edge62" class="edge">
<title>Node3&#45;&gt;Node22</title>
<path fill="none" stroke="midnightblue" d="M2398.24,-288.02C2512.31,-285.34 2776.66,-275.77 2860,-244 2938.64,-214.02 2996.01,-123.53 3017.6,-84.85"/>
<polygon fill="midnightblue" stroke="midnightblue" points="3020.82,-86.26 3022.52,-75.8 3014.67,-82.91 3020.82,-86.26"/>
</g>
<!-- Node23 -->
<g id="node13" class="node">
<title>Node23</title>
<g id="a_node13"><a xlink:title=" ">
<polygon fill="none" stroke="#bfbfbf" points="1157,-56.5 1157,-75.5 1207,-75.5 1207,-56.5 1157,-56.5"/>
<text text-anchor="middle" x="1182" y="-63.5" font-family="Helvetica" font-size="10.00">cassert</text>
</a>
</g>
</g>
<!-- Node3&#45;&gt;Node23 -->
<g id="edge64" class="edge">
<title>Node3&#45;&gt;Node23</title>
<path fill="none" stroke="midnightblue" d="M2291.98,-285.36C2201.52,-278.89 2011.67,-264.14 1852,-244 1796.62,-237.01 1783.24,-232.03 1728,-224 1604.71,-206.08 1562.66,-241.2 1450,-188 1405.36,-166.92 1412.44,-135.44 1369,-112 1320.28,-85.71 1256.23,-74.6 1217.14,-70.03"/>
<polygon fill="midnightblue" stroke="midnightblue" points="1217.37,-66.54 1207.05,-68.93 1216.61,-73.49 1217.37,-66.54"/>
</g>
<!-- Node26 -->
<g id="node15" class="node">
<title>Node26</title>
<g id="a_node15"><a xlink:href="None_8h.html" target="_top" xlink:title=" ">
<polygon fill="none" stroke="black" points="2657,-112.5 2657,-131.5 2749,-131.5 2749,-112.5 2657,-112.5"/>
<text text-anchor="middle" x="2703" y="-119.5" font-family="Helvetica" font-size="10.00">llvm/ADT/None.h</text>
</a>
</g>
</g>
<!-- Node3&#45;&gt;Node26 -->
<g id="edge17" class="edge">
<title>Node3&#45;&gt;Node26</title>
<path fill="none" stroke="midnightblue" d="M2398,-287.07C2506.3,-282.64 2749.35,-270.05 2828,-244 2839.36,-240.24 2914.14,-198.43 2920,-188 2924.35,-180.25 2925.61,-174.89 2920,-168 2900.07,-143.51 2816.48,-131.92 2759.07,-126.76"/>
<polygon fill="midnightblue" stroke="midnightblue" points="2759.29,-123.27 2749.03,-125.9 2758.69,-130.24 2759.29,-123.27"/>
</g>
<!-- Node27 -->
<g id="node16" class="node">
<title>Node27</title>
<g id="a_node16"><a xlink:href="SmallVector_8h.html" target="_top" xlink:title=" ">
<polygon fill="none" stroke="red" points="1963.5,-224.5 1963.5,-243.5 2084.5,-243.5 2084.5,-224.5 1963.5,-224.5"/>
<text text-anchor="middle" x="2024" y="-231.5" font-family="Helvetica" font-size="10.00">llvm/ADT/SmallVector.h</text>
</a>
</g>
</g>
<!-- Node3&#45;&gt;Node27 -->
<g id="edge18" class="edge">
<title>Node3&#45;&gt;Node27</title>
<path fill="none" stroke="midnightblue" d="M2294.14,-280.44C2237.32,-270.89 2145.38,-255.42 2084.81,-245.23"/>
<polygon fill="midnightblue" stroke="midnightblue" points="2085.07,-241.72 2074.63,-243.52 2083.91,-248.63 2085.07,-241.72"/>
</g>
<!-- Node16 -->
<g id="node18" class="node">
<title>Node16</title>
<g id="a_node18"><a xlink:title=" ">
<polygon fill="none" stroke="#bfbfbf" points="1009.5,-168.5 1009.5,-187.5 1058.5,-187.5 1058.5,-168.5 1009.5,-168.5"/>
<text text-anchor="middle" x="1034" y="-175.5" font-family="Helvetica" font-size="10.00">cstddef</text>
</a>
</g>
</g>
<!-- Node3&#45;&gt;Node16 -->
<g id="edge65" class="edge">
<title>Node3&#45;&gt;Node16</title>
<path fill="none" stroke="midnightblue" d="M2291.64,-284.93C2190.86,-277.21 1965.6,-259.8 1776,-244 1503.47,-221.29 1174.83,-191.74 1068.78,-182.15"/>
<polygon fill="midnightblue" stroke="midnightblue" points="1068.93,-178.65 1058.65,-181.24 1068.3,-185.62 1068.93,-178.65"/>
</g>
<!-- Node35 -->
<g id="node20" class="node">
<title>Node35</title>
<g id="a_node20"><a xlink:title=" ">
<polygon fill="none" stroke="#bfbfbf" points="2255,-168.5 2255,-187.5 2327,-187.5 2327,-168.5 2255,-168.5"/>
<text text-anchor="middle" x="2291" y="-175.5" font-family="Helvetica" font-size="10.00">initializer_list</text>
</a>
</g>
</g>
<!-- Node3&#45;&gt;Node35 -->
<g id="edge66" class="edge">
<title>Node3&#45;&gt;Node35</title>
<path fill="none" stroke="midnightblue" d="M2347.28,-280.08C2350.12,-267.06 2353.62,-242.39 2345,-224 2338.96,-211.09 2327.19,-200.6 2316.18,-193"/>
<polygon fill="midnightblue" stroke="midnightblue" points="2317.94,-189.97 2307.63,-187.54 2314.17,-195.87 2317.94,-189.97"/>
</g>
<!-- Node36 -->
<g id="node21" class="node">
<title>Node36</title>
<g id="a_node21"><a xlink:title=" ">
<polygon fill="none" stroke="#bfbfbf" points="2847.5,-168.5 2847.5,-187.5 2894.5,-187.5 2894.5,-168.5 2847.5,-168.5"/>
<text text-anchor="middle" x="2871" y="-175.5" font-family="Helvetica" font-size="10.00">iterator</text>
</a>
</g>
</g>
<!-- Node3&#45;&gt;Node36 -->
<g id="edge67" class="edge">
<title>Node3&#45;&gt;Node36</title>
<path fill="none" stroke="midnightblue" d="M2388.17,-280.49C2473.38,-263.61 2669.14,-224.35 2833,-188 2834.45,-187.68 2835.93,-187.35 2837.42,-187.01"/>
<polygon fill="midnightblue" stroke="midnightblue" points="2838.35,-190.38 2847.31,-184.72 2836.78,-183.56 2838.35,-190.38"/>
</g>
<!-- Node3&#45;&gt;Node37 -->
<g id="edge68" class="edge">
<title>Node3&#45;&gt;Node37</title>
<path fill="none" stroke="midnightblue" d="M2398.03,-289.45C2497.49,-289.25 2718.31,-283.84 2899,-244 2969.31,-228.5 2987.45,-221.83 3051,-188 3077.66,-173.81 3105.4,-152.64 3122.91,-138.35"/>
<polygon fill="midnightblue" stroke="midnightblue" points="3125.61,-140.66 3131.08,-131.58 3121.14,-135.27 3125.61,-140.66"/>
</g>
<!-- Node39 -->
<g id="node25" class="node">
<title>Node39</title>
<g id="a_node25"><a xlink:href="STLExtras_8h.html" target="_top" xlink:title=" ">
<polygon fill="none" stroke="red" points="2220.5,-224.5 2220.5,-243.5 2335.5,-243.5 2335.5,-224.5 2220.5,-224.5"/>
<text text-anchor="middle" x="2278" y="-231.5" font-family="Helvetica" font-size="10.00">llvm/ADT/STLExtras.h</text>
</a>
</g>
</g>
<!-- Node3&#45;&gt;Node39 -->
<g id="edge36" class="edge">
<title>Node3&#45;&gt;Node39</title>
<path fill="none" stroke="midnightblue" d="M2334.24,-280.32C2324.23,-272.26 2309.11,-260.08 2297.07,-250.37"/>
<polygon fill="midnightblue" stroke="midnightblue" points="2298.94,-247.38 2288.96,-243.83 2294.55,-252.83 2298.94,-247.38"/>
</g>
<!-- Node44 -->
<g id="node30" class="node">
<title>Node44</title>
<g id="a_node30"><a xlink:title=" ">
<polygon fill="none" stroke="#bfbfbf" points="2781,-224.5 2781,-243.5 2819,-243.5 2819,-224.5 2781,-224.5"/>
<text text-anchor="middle" x="2800" y="-231.5" font-family="Helvetica" font-size="10.00">array</text>
</a>
</g>
</g>
<!-- Node3&#45;&gt;Node44 -->
<g id="edge63" class="edge">
<title>Node3&#45;&gt;Node44</title>
<path fill="none" stroke="midnightblue" d="M2398.03,-286.08C2478.39,-281.03 2635.58,-268.76 2767,-244 2768.28,-243.76 2769.58,-243.49 2770.9,-243.21"/>
<polygon fill="midnightblue" stroke="midnightblue" points="2772.04,-246.53 2780.93,-240.76 2770.38,-239.73 2772.04,-246.53"/>
</g>
<!-- Node45 -->
<g id="node31" class="node">
<title>Node45</title>
<g id="a_node31"><a xlink:title=" ">
<polygon fill="none" stroke="#bfbfbf" points="1110.5,-224.5 1110.5,-243.5 1153.5,-243.5 1153.5,-224.5 1110.5,-224.5"/>
<text text-anchor="middle" x="1132" y="-231.5" font-family="Helvetica" font-size="10.00">vector</text>
</a>
</g>
</g>
<!-- Node3&#45;&gt;Node45 -->
<g id="edge70" class="edge">
<title>Node3&#45;&gt;Node45</title>
<path fill="none" stroke="midnightblue" d="M2291.92,-286.74C2140.27,-280.28 1692.11,-261.07 1320,-244 1265.19,-241.48 1201.39,-238.4 1163.98,-236.57"/>
<polygon fill="midnightblue" stroke="midnightblue" points="1163.87,-233.06 1153.71,-236.07 1163.53,-240.05 1163.87,-233.06"/>
</g>
<!-- Node5 -->
<g id="node5" class="node">
<title>Node5</title>
<g id="a_node5"><a xlink:href="llvm_2Support_2DataTypes_8h.html" target="_top" xlink:title=" ">
<polygon fill="none" stroke="red" points="1435,-56.5 1435,-75.5 1565,-75.5 1565,-56.5 1435,-56.5"/>
<text text-anchor="middle" x="1500" y="-63.5" font-family="Helvetica" font-size="10.00">llvm/Support/DataTypes.h</text>
</a>
</g>
</g>
<!-- Node4&#45;&gt;Node5 -->
<g id="edge4" class="edge">
<title>Node4&#45;&gt;Node5</title>
<path fill="none" stroke="midnightblue" d="M2382.73,-117.98C2225.9,-108.92 1758.92,-81.95 1575.33,-71.35"/>
<polygon fill="midnightblue" stroke="midnightblue" points="1575.41,-67.85 1565.22,-70.77 1575,-74.84 1575.41,-67.85"/>
</g>
<!-- Node10 -->
<g id="node6" class="node">
<title>Node10</title>
<g id="a_node6"><a xlink:href="llvm_2Support_2ErrorHandling_8h.html" target="_top" xlink:title=" ">
<polygon fill="none" stroke="black" points="2619.5,-56.5 2619.5,-75.5 2762.5,-75.5 2762.5,-56.5 2619.5,-56.5"/>
<text text-anchor="middle" x="2691" y="-63.5" font-family="Helvetica" font-size="10.00">llvm/Support/ErrorHandling.h</text>
</a>
</g>
</g>
<!-- Node4&#45;&gt;Node10 -->
<g id="edge5" class="edge">
<title>Node4&#45;&gt;Node10</title>
<path fill="none" stroke="midnightblue" d="M2475.56,-112.44C2520.32,-103 2592.38,-87.8 2640.7,-77.61"/>
<polygon fill="midnightblue" stroke="midnightblue" points="2641.56,-81.01 2650.63,-75.52 2640.12,-74.16 2641.56,-81.01"/>
</g>
<!-- Node14 -->
<g id="node8" class="node">
<title>Node14</title>
<g id="a_node8"><a xlink:title=" ">
<polygon fill="none" stroke="#bfbfbf" points="3377.5,-0.5 3377.5,-19.5 3418.5,-19.5 3418.5,-0.5 3377.5,-0.5"/>
<text text-anchor="middle" x="3398" y="-7.5" font-family="Helvetica" font-size="10.00">string</text>
</a>
</g>
</g>
<!-- Node4&#45;&gt;Node14 -->
<g id="edge15" class="edge">
<title>Node4&#45;&gt;Node14</title>
<path fill="none" stroke="midnightblue" d="M2452.97,-112.32C2484.23,-97.69 2551.05,-68.49 2611,-56 2759.41,-25.07 3240.35,-13.97 3367.13,-11.55"/>
<polygon fill="midnightblue" stroke="midnightblue" points="3367.36,-15.04 3377.3,-11.35 3367.23,-8.04 3367.36,-15.04"/>
</g>
<!-- Node20 -->
<g id="node9" class="node">
<title>Node20</title>
<g id="a_node9"><a xlink:href="type__traits_8h.html" target="_top" xlink:title=" ">
<polygon fill="none" stroke="black" points="2027.5,-56.5 2027.5,-75.5 2156.5,-75.5 2156.5,-56.5 2027.5,-56.5"/>
<text text-anchor="middle" x="2092" y="-63.5" font-family="Helvetica" font-size="10.00">llvm/Support/type_traits.h</text>
</a>
</g>
</g>
<!-- Node4&#45;&gt;Node20 -->
<g id="edge8" class="edge">
<title>Node4&#45;&gt;Node20</title>
<path fill="none" stroke="midnightblue" d="M2382.91,-112.8C2322.16,-103.23 2221.72,-87.42 2156.21,-77.11"/>
<polygon fill="midnightblue" stroke="midnightblue" points="2156.42,-73.6 2146,-75.5 2155.34,-80.51 2156.42,-73.6"/>
</g>
<!-- Node21 -->
<g id="node11" class="node">
<title>Node21</title>
<g id="a_node11"><a xlink:title=" ">
<polygon fill="none" stroke="#bfbfbf" points="2364,-0.5 2364,-19.5 2404,-19.5 2404,-0.5 2364,-0.5"/>
<text text-anchor="middle" x="2384" y="-7.5" font-family="Helvetica" font-size="10.00">utility</text>
</a>
</g>
</g>
<!-- Node4&#45;&gt;Node21 -->
<g id="edge16" class="edge">
<title>Node4&#45;&gt;Node21</title>
<path fill="none" stroke="midnightblue" d="M2431,-112.37C2422.69,-94.46 2403.44,-52.92 2392.32,-28.95"/>
<polygon fill="midnightblue" stroke="midnightblue" points="2395.36,-27.19 2387.98,-19.59 2389.01,-30.14 2395.36,-27.19"/>
</g>
<!-- Node4&#45;&gt;Node22 -->
<g id="edge12" class="edge">
<title>Node4&#45;&gt;Node22</title>
<path fill="none" stroke="midnightblue" d="M2487.02,-116.26C2604.06,-105.58 2885.9,-79.87 2988.67,-70.5"/>
<polygon fill="midnightblue" stroke="midnightblue" points="2989.26,-73.96 2998.9,-69.56 2988.62,-66.99 2989.26,-73.96"/>
</g>
<!-- Node4&#45;&gt;Node23 -->
<g id="edge13" class="edge">
<title>Node4&#45;&gt;Node23</title>
<path fill="none" stroke="midnightblue" d="M2382.76,-118.75C2172.83,-109.7 1393.61,-76.12 1217.52,-68.53"/>
<polygon fill="midnightblue" stroke="midnightblue" points="1217.63,-65.03 1207.49,-68.1 1217.33,-72.03 1217.63,-65.03"/>
</g>
<!-- Node24 -->
<g id="node14" class="node">
<title>Node24</title>
<g id="a_node14"><a xlink:title=" ">
<polygon fill="none" stroke="#bfbfbf" points="519,-56.5 519,-75.5 565,-75.5 565,-56.5 519,-56.5"/>
<text text-anchor="middle" x="542" y="-63.5" font-family="Helvetica" font-size="10.00">cstring</text>
</a>
</g>
</g>
<!-- Node4&#45;&gt;Node24 -->
<g id="edge14" class="edge">
<title>Node4&#45;&gt;Node24</title>
<path fill="none" stroke="midnightblue" d="M2382.89,-119.51C2104.89,-111.58 800.61,-74.38 575.22,-67.95"/>
<polygon fill="midnightblue" stroke="midnightblue" points="575.12,-64.44 565.02,-67.66 574.92,-71.44 575.12,-64.44"/>
</g>
<!-- Node10&#45;&gt;Node11 -->
<g id="edge6" class="edge">
<title>Node10&#45;&gt;Node11</title>
<path fill="none" stroke="midnightblue" d="M2619.24,-60.33C2462.21,-50.1 2089.65,-25.83 1933.16,-15.64"/>
<polygon fill="midnightblue" stroke="midnightblue" points="1933.38,-12.14 1923.17,-14.98 1932.93,-19.13 1933.38,-12.14"/>
</g>
<!-- Node10&#45;&gt;Node14 -->
<g id="edge7" class="edge">
<title>Node10&#45;&gt;Node14</title>
<path fill="none" stroke="midnightblue" d="M2762.68,-59.53C2914.24,-47.95 3261.92,-21.39 3367.22,-13.35"/>
<polygon fill="midnightblue" stroke="midnightblue" points="3367.76,-16.82 3377.47,-12.57 3367.23,-9.84 3367.76,-16.82"/>
</g>
<!-- Node20&#45;&gt;Node11 -->
<g id="edge9" class="edge">
<title>Node20&#45;&gt;Node11</title>
<path fill="none" stroke="midnightblue" d="M2055.56,-56.44C2015.6,-47.06 1951.41,-31.99 1908.02,-21.8"/>
<polygon fill="midnightblue" stroke="midnightblue" points="1908.81,-18.39 1898.27,-19.52 1907.21,-25.21 1908.81,-18.39"/>
</g>
<!-- Node20&#45;&gt;Node18 -->
<g id="edge10" class="edge">
<title>Node20&#45;&gt;Node18</title>
<path fill="none" stroke="midnightblue" d="M2027.34,-63.12C1732.27,-54.53 517.64,-19.17 278.13,-12.2"/>
<polygon fill="midnightblue" stroke="midnightblue" points="278.19,-8.7 268.1,-11.91 277.99,-15.69 278.19,-8.7"/>
</g>
<!-- Node20&#45;&gt;Node21 -->
<g id="edge11" class="edge">
<title>Node20&#45;&gt;Node21</title>
<path fill="none" stroke="midnightblue" d="M2138.27,-56.44C2198.62,-45.28 2302.53,-26.07 2353.71,-16.6"/>
<polygon fill="midnightblue" stroke="midnightblue" points="2354.6,-20 2363.8,-14.74 2353.33,-13.11 2354.6,-20"/>
</g>
<!-- Node27&#45;&gt;Node10 -->
<g id="edge22" class="edge">
<title>Node27&#45;&gt;Node10</title>
<path fill="none" stroke="midnightblue" d="M2030.87,-224.36C2043.04,-209.79 2069.92,-180.68 2100,-168 2262.84,-99.33 2323.02,-168.18 2496,-132 2556.12,-119.42 2623.55,-94.38 2661.28,-79.31"/>
<polygon fill="midnightblue" stroke="midnightblue" points="2662.69,-82.52 2670.65,-75.53 2660.07,-76.02 2662.69,-82.52"/>
</g>
<!-- Node27&#45;&gt;Node11 -->
<g id="edge21" class="edge">
<title>Node27&#45;&gt;Node11</title>
<path fill="none" stroke="midnightblue" d="M2017.65,-224.3C1993.51,-191.22 1907.18,-72.91 1874.58,-28.24"/>
<polygon fill="midnightblue" stroke="midnightblue" points="1877.2,-25.9 1868.48,-19.88 1871.55,-30.02 1877.2,-25.9"/>
</g>
<!-- Node27&#45;&gt;Node20 -->
<g id="edge23" class="edge">
<title>Node27&#45;&gt;Node20</title>
<path fill="none" stroke="midnightblue" d="M2021.51,-224.42C2016,-203.63 2004.79,-149.55 2025,-112 2032.61,-97.87 2046.83,-87.37 2060.21,-80.09"/>
<polygon fill="midnightblue" stroke="midnightblue" points="2061.88,-83.16 2069.26,-75.55 2058.75,-76.91 2061.88,-83.16"/>
</g>
<!-- Node27&#45;&gt;Node18 -->
<g id="edge34" class="edge">
<title>Node27&#45;&gt;Node18</title>
<path fill="none" stroke="midnightblue" d="M1994.27,-224.41C1942.1,-209.78 1830.47,-180.4 1734,-168 1508.82,-139.05 931.94,-192.07 713,-132 645.1,-113.37 640.91,-77.92 574,-56 471.18,-22.32 342.83,-13.8 278.23,-11.68"/>
<polygon fill="midnightblue" stroke="midnightblue" points="278.14,-8.17 268.04,-11.38 277.94,-15.17 278.14,-8.17"/>
</g>
<!-- Node27&#45;&gt;Node21 -->
<g id="edge35" class="edge">
<title>Node27&#45;&gt;Node21</title>
<path fill="none" stroke="midnightblue" d="M2084.68,-230.2C2223.91,-223.5 2555.67,-205.73 2572,-188 2633.39,-121.36 2480.64,-49.61 2413.63,-22.36"/>
<polygon fill="midnightblue" stroke="midnightblue" points="2414.62,-18.99 2404.03,-18.53 2412.02,-25.49 2414.62,-18.99"/>
</g>
<!-- Node27&#45;&gt;Node22 -->
<g id="edge24" class="edge">
<title>Node27&#45;&gt;Node22</title>
<path fill="none" stroke="midnightblue" d="M2084.61,-229.7C2223.37,-221.94 2555.97,-202.15 2605,-188 2623.34,-182.71 2625.38,-175.33 2643,-168 2692.45,-147.44 2709.19,-154.04 2758,-132 2773.63,-124.94 2774.99,-118.15 2791,-112 2857.79,-86.35 2941.03,-74.87 2988.69,-70.09"/>
<polygon fill="midnightblue" stroke="midnightblue" points="2989.25,-73.55 2998.87,-69.11 2988.58,-66.58 2989.25,-73.55"/>
</g>
<!-- Node27&#45;&gt;Node23 -->
<g id="edge25" class="edge">
<title>Node27&#45;&gt;Node23</title>
<path fill="none" stroke="midnightblue" d="M2010.47,-224.41C1985.04,-208.43 1930.81,-175.08 1910,-168 1654.82,-81.16 1325.07,-68.86 1217.57,-67.22"/>
<polygon fill="midnightblue" stroke="midnightblue" points="1217.34,-63.72 1207.3,-67.08 1217.25,-70.71 1217.34,-63.72"/>
</g>
<!-- Node27&#45;&gt;Node24 -->
<g id="edge28" class="edge">
<title>Node27&#45;&gt;Node24</title>
<path fill="none" stroke="midnightblue" d="M1978.32,-224.45C1887.9,-207.58 1692.15,-171.34 1661,-168 1444.1,-144.72 891.98,-183.52 680,-132 636.68,-121.47 590.67,-96.69 564.23,-80.94"/>
<polygon fill="midnightblue" stroke="midnightblue" points="565.78,-77.79 555.42,-75.6 562.15,-83.78 565.78,-77.79"/>
</g>
<!-- Node28 -->
<g id="node17" class="node">
<title>Node28</title>
<g id="a_node17"><a xlink:href="iterator__range_8h.html" target="_top" xlink:title="This provides a very simple, boring adaptor for a begin and end iterator into a range type.">
<polygon fill="none" stroke="black" points="2109,-168.5 2109,-187.5 2237,-187.5 2237,-168.5 2109,-168.5"/>
<text text-anchor="middle" x="2173" y="-175.5" font-family="Helvetica" font-size="10.00">llvm/ADT/iterator_range.h</text>
</a>
</g>
</g>
<!-- Node27&#45;&gt;Node28 -->
<g id="edge19" class="edge">
<title>Node27&#45;&gt;Node28</title>
<path fill="none" stroke="midnightblue" d="M2047.61,-224.44C2072.46,-215.44 2111.77,-201.19 2139.75,-191.05"/>
<polygon fill="midnightblue" stroke="midnightblue" points="2141.29,-194.21 2149.5,-187.52 2138.91,-187.63 2141.29,-194.21"/>
</g>
<!-- Node27&#45;&gt;Node16 -->
<g id="edge26" class="edge">
<title>Node27&#45;&gt;Node16</title>
<path fill="none" stroke="midnightblue" d="M1963.19,-229.68C1776.45,-219.5 1215.08,-188.88 1069.04,-180.91"/>
<polygon fill="midnightblue" stroke="midnightblue" points="1069.04,-177.41 1058.87,-180.36 1068.66,-184.4 1069.04,-177.41"/>
</g>
<!-- Node34 -->
<g id="node19" class="node">
<title>Node34</title>
<g id="a_node19"><a xlink:title=" ">
<polygon fill="none" stroke="#bfbfbf" points="1607.5,-168.5 1607.5,-187.5 1652.5,-187.5 1652.5,-168.5 1607.5,-168.5"/>
<text text-anchor="middle" x="1630" y="-175.5" font-family="Helvetica" font-size="10.00">cstdlib</text>
</a>
</g>
</g>
<!-- Node27&#45;&gt;Node34 -->
<g id="edge27" class="edge">
<title>Node27&#45;&gt;Node34</title>
<path fill="none" stroke="midnightblue" d="M1963.3,-224.68C1878.85,-213.11 1728.86,-192.55 1662.79,-183.49"/>
<polygon fill="midnightblue" stroke="midnightblue" points="1662.95,-179.98 1652.57,-182.09 1662,-186.92 1662.95,-179.98"/>
</g>
<!-- Node27&#45;&gt;Node35 -->
<g id="edge29" class="edge">
<title>Node27&#45;&gt;Node35</title>
<path fill="none" stroke="midnightblue" d="M2066.31,-224.44C2115.01,-214.59 2194.72,-198.47 2244.94,-188.31"/>
<polygon fill="midnightblue" stroke="midnightblue" points="2245.78,-191.72 2254.88,-186.3 2244.39,-184.86 2245.78,-191.72"/>
</g>
<!-- Node27&#45;&gt;Node36 -->
<g id="edge30" class="edge">
<title>Node27&#45;&gt;Node36</title>
<path fill="none" stroke="midnightblue" d="M2084.84,-229.63C2210.48,-222.58 2507.72,-205.49 2757,-188 2784.01,-186.1 2814.6,-183.67 2837.29,-181.82"/>
<polygon fill="midnightblue" stroke="midnightblue" points="2837.75,-185.29 2847.43,-180.98 2837.18,-178.31 2837.75,-185.29"/>
</g>
<!-- Node32 -->
<g id="node22" class="node">
<title>Node32</title>
<g id="a_node22"><a xlink:title=" ">
<polygon fill="none" stroke="#bfbfbf" points="1861,-168.5 1861,-187.5 1901,-187.5 1901,-168.5 1861,-168.5"/>
<text text-anchor="middle" x="1881" y="-175.5" font-family="Helvetica" font-size="10.00">limits</text>
</a>
</g>
</g>
<!-- Node27&#45;&gt;Node32 -->
<g id="edge31" class="edge">
<title>Node27&#45;&gt;Node32</title>
<path fill="none" stroke="midnightblue" d="M2001.34,-224.44C1976.9,-215.21 1937.87,-200.48 1910.92,-190.3"/>
<polygon fill="midnightblue" stroke="midnightblue" points="1911.83,-186.9 1901.24,-186.64 1909.36,-193.45 1911.83,-186.9"/>
</g>
<!-- Node27&#45;&gt;Node37 -->
<g id="edge32" class="edge">
<title>Node27&#45;&gt;Node37</title>
<path fill="none" stroke="midnightblue" d="M2084.55,-229.38C2218.41,-221.26 2536.07,-201.23 2643,-188 2694.05,-181.68 2706.1,-175.44 2757,-168 2884.03,-149.43 3035.6,-133.49 3104.13,-126.61"/>
<polygon fill="midnightblue" stroke="midnightblue" points="3104.79,-130.07 3114.4,-125.59 3104.1,-123.1 3104.79,-130.07"/>
</g>
<!-- Node38 -->
<g id="node24" class="node">
<title>Node38</title>
<g id="a_node24"><a xlink:title=" ">
<polygon fill="none" stroke="#bfbfbf" points="2033.5,-112.5 2033.5,-131.5 2068.5,-131.5 2068.5,-112.5 2033.5,-112.5"/>
<text text-anchor="middle" x="2051" y="-119.5" font-family="Helvetica" font-size="10.00">new</text>
</a>
</g>
</g>
<!-- Node27&#45;&gt;Node38 -->
<g id="edge33" class="edge">
<title>Node27&#45;&gt;Node38</title>
<path fill="none" stroke="midnightblue" d="M2026.12,-224.37C2030.48,-206.62 2040.53,-165.67 2046.44,-141.6"/>
<polygon fill="midnightblue" stroke="midnightblue" points="2049.91,-142.14 2048.89,-131.59 2043.11,-140.47 2049.91,-142.14"/>
</g>
<!-- Node28&#45;&gt;Node21 -->
<g id="edge20" class="edge">
<title>Node28&#45;&gt;Node21</title>
<path fill="none" stroke="midnightblue" d="M2184.05,-168.31C2218.16,-141.47 2322.11,-59.69 2365.09,-25.88"/>
<polygon fill="midnightblue" stroke="midnightblue" points="2367.37,-28.54 2373.06,-19.61 2363.04,-23.04 2367.37,-28.54"/>
</g>
<!-- Node39&#45;&gt;Node10 -->
<g id="edge48" class="edge">
<title>Node39&#45;&gt;Node10</title>
<path fill="none" stroke="midnightblue" d="M2335.72,-231.13C2417.6,-227.47 2562.27,-217.01 2605,-188 2637.11,-166.2 2624.86,-143.16 2648,-112 2655.71,-101.61 2665.62,-91.1 2673.98,-82.85"/>
<polygon fill="midnightblue" stroke="midnightblue" points="2676.62,-85.16 2681.4,-75.71 2671.76,-80.12 2676.62,-85.16"/>
</g>
<!-- Node39&#45;&gt;Node18 -->
<g id="edge59" class="edge">
<title>Node39&#45;&gt;Node18</title>
<path fill="none" stroke="midnightblue" d="M2301.98,-224.32C2329.91,-212.88 2370.05,-191.44 2352,-168 2337.13,-148.7 2163.98,-116.32 2140,-112 1891.23,-67.13 1826.23,-72.7 1574,-56 1063.78,-22.21 442.26,-13.26 278.26,-11.41"/>
<polygon fill="midnightblue" stroke="midnightblue" points="278.17,-7.91 268.13,-11.3 278.09,-14.91 278.17,-7.91"/>
</g>
<!-- Node39&#45;&gt;Node21 -->
<g id="edge60" class="edge">
<title>Node39&#45;&gt;Node21</title>
<path fill="none" stroke="midnightblue" d="M2335.58,-227.83C2361.88,-222.26 2390.72,-210.92 2407,-188 2423.73,-164.45 2384.47,-158.92 2374,-132 2360.61,-97.59 2370.23,-53.62 2377.64,-29.28"/>
<polygon fill="midnightblue" stroke="midnightblue" points="2381.02,-30.18 2380.79,-19.58 2374.37,-28.01 2381.02,-30.18"/>
</g>
<!-- Node39&#45;&gt;Node22 -->
<g id="edge49" class="edge">
<title>Node39&#45;&gt;Node22</title>
<path fill="none" stroke="midnightblue" d="M2335.62,-229.19C2405.52,-223.76 2526.58,-211.68 2628,-188 2702.59,-170.58 2719.39,-159.19 2791,-132 2812.61,-123.8 2817.03,-119.16 2839,-112 2889.9,-95.42 2950.35,-82.03 2988.7,-74.29"/>
<polygon fill="midnightblue" stroke="midnightblue" points="2989.78,-77.65 2998.9,-72.26 2988.41,-70.78 2989.78,-77.65"/>
</g>
<!-- Node39&#45;&gt;Node23 -->
<g id="edge50" class="edge">
<title>Node39&#45;&gt;Node23</title>
<path fill="none" stroke="midnightblue" d="M2295.58,-224.41C2318.26,-212.2 2352.9,-188.96 2336,-168 2331.4,-162.29 2085.27,-112.96 2078,-112 1991.77,-100.56 1373.77,-74.82 1217.72,-68.45"/>
<polygon fill="midnightblue" stroke="midnightblue" points="1217.43,-64.93 1207.29,-68.02 1217.14,-71.93 1217.43,-64.93"/>
</g>
<!-- Node39&#45;&gt;Node28 -->
<g id="edge46" class="edge">
<title>Node39&#45;&gt;Node28</title>
<path fill="none" stroke="midnightblue" d="M2261.13,-224.32C2244.29,-215.66 2218.19,-202.24 2198.76,-192.25"/>
<polygon fill="midnightblue" stroke="midnightblue" points="2200.32,-189.12 2189.83,-187.65 2197.12,-195.34 2200.32,-189.12"/>
</g>
<!-- Node39&#45;&gt;Node16 -->
<g id="edge51" class="edge">
<title>Node39&#45;&gt;Node16</title>
<path fill="none" stroke="midnightblue" d="M2220.41,-230.09C2184.14,-228.28 2136.33,-225.93 2094,-224 1690.91,-205.59 1201.48,-185.73 1068.65,-180.39"/>
<polygon fill="midnightblue" stroke="midnightblue" points="1068.79,-176.89 1058.65,-179.99 1068.5,-183.89 1068.79,-176.89"/>
</g>
<!-- Node39&#45;&gt;Node34 -->
<g id="edge53" class="edge">
<title>Node39&#45;&gt;Node34</title>
<path fill="none" stroke="midnightblue" d="M2220.49,-228.21C2088.42,-217.2 1766.76,-190.4 1662.91,-181.74"/>
<polygon fill="midnightblue" stroke="midnightblue" points="1662.98,-178.24 1652.73,-180.89 1662.4,-185.21 1662.98,-178.24"/>
</g>
<!-- Node39&#45;&gt;Node35 -->
<g id="edge55" class="edge">
<title>Node39&#45;&gt;Node35</title>
<path fill="none" stroke="midnightblue" d="M2280.15,-224.08C2281.87,-216.93 2284.35,-206.64 2286.5,-197.69"/>
<polygon fill="midnightblue" stroke="midnightblue" points="2289.96,-198.29 2288.89,-187.75 2283.15,-196.65 2289.96,-198.29"/>
</g>
<!-- Node39&#45;&gt;Node36 -->
<g id="edge56" class="edge">
<title>Node39&#45;&gt;Node36</title>
<path fill="none" stroke="midnightblue" d="M2335.82,-228.56C2431.44,-221.08 2628.52,-205.1 2795,-188 2808.87,-186.58 2824.14,-184.81 2837.33,-183.21"/>
<polygon fill="midnightblue" stroke="midnightblue" points="2837.9,-186.67 2847.4,-181.99 2837.05,-179.72 2837.9,-186.67"/>
</g>
<!-- Node39&#45;&gt;Node32 -->
<g id="edge57" class="edge">
<title>Node39&#45;&gt;Node32</title>
<path fill="none" stroke="midnightblue" d="M2220.27,-225.15C2134.71,-213.51 1977.27,-192.09 1911.31,-183.12"/>
<polygon fill="midnightblue" stroke="midnightblue" points="1911.56,-179.62 1901.18,-181.74 1910.61,-186.56 1911.56,-179.62"/>
</g>
<!-- Node39&#45;&gt;Node37 -->
<g id="edge58" class="edge">
<title>Node39&#45;&gt;Node37</title>
<path fill="none" stroke="midnightblue" d="M2335.86,-230.29C2426.26,-225.44 2606.26,-213.33 2757,-188 2793.99,-181.78 2802.19,-175.22 2839,-168 2934,-149.38 3047.16,-134.42 3104.21,-127.38"/>
<polygon fill="midnightblue" stroke="midnightblue" points="3104.7,-130.85 3114.2,-126.16 3103.85,-123.9 3104.7,-130.85"/>
</g>
<!-- Node39&#45;&gt;Node40 -->
<g id="edge37" class="edge">
<title>Node39&#45;&gt;Node40</title>
<path fill="none" stroke="midnightblue" d="M2314.92,-224.44C2355.4,-215.06 2420.42,-199.99 2464.38,-189.8"/>
<polygon fill="midnightblue" stroke="midnightblue" points="2465.3,-193.18 2474.25,-187.52 2463.72,-186.36 2465.3,-193.18"/>
</g>
<!-- Node42 -->
<g id="node27" class="node">
<title>Node42</title>
<g id="a_node27"><a xlink:title=" ">
<polygon fill="none" stroke="#bfbfbf" points="1459,-168.5 1459,-187.5 1589,-187.5 1589,-168.5 1459,-168.5"/>
<text text-anchor="middle" x="1524" y="-175.5" font-family="Helvetica" font-size="10.00">llvm/Config/abi&#45;breaking.h</text>
</a>
</g>
</g>
<!-- Node39&#45;&gt;Node42 -->
<g id="edge47" class="edge">
<title>Node39&#45;&gt;Node42</title>
<path fill="none" stroke="midnightblue" d="M2220.15,-230.25C2104.38,-224.5 1835.75,-210 1599.51,-188.09"/>
<polygon fill="midnightblue" stroke="midnightblue" points="1599.63,-184.59 1589.35,-187.15 1598.98,-191.56 1599.63,-184.59"/>
</g>
<!-- Node39&#45;&gt;Node17 -->
<g id="edge52" class="edge">
<title>Node39&#45;&gt;Node17</title>
<path fill="none" stroke="midnightblue" d="M2220.41,-229.95C2184.14,-228.08 2136.34,-225.73 2094,-224 1607.92,-204.12 1486.16,-205.85 1000,-188 933.01,-185.54 854.68,-182.27 811.26,-180.43"/>
<polygon fill="midnightblue" stroke="midnightblue" points="811.15,-176.92 801.01,-179.99 810.85,-183.91 811.15,-176.92"/>
</g>
<!-- Node43 -->
<g id="node29" class="node">
<title>Node43</title>
<g id="a_node29"><a xlink:title=" ">
<polygon fill="none" stroke="#bfbfbf" points="1267.5,-168.5 1267.5,-187.5 1326.5,-187.5 1326.5,-168.5 1267.5,-168.5"/>
<text text-anchor="middle" x="1297" y="-175.5" font-family="Helvetica" font-size="10.00">functional</text>
</a>
</g>
</g>
<!-- Node39&#45;&gt;Node43 -->
<g id="edge54" class="edge">
<title>Node39&#45;&gt;Node43</title>
<path fill="none" stroke="midnightblue" d="M2220.27,-229.95C2085.43,-222.81 1739.26,-204.37 1450,-188 1411.62,-185.83 1367.83,-183.24 1336.96,-181.4"/>
<polygon fill="midnightblue" stroke="midnightblue" points="1336.81,-177.88 1326.61,-180.78 1336.39,-184.87 1336.81,-177.88"/>
</g>
<!-- Node40&#45;&gt;Node4 -->
<g id="edge38" class="edge">
<title>Node40&#45;&gt;Node4</title>
<path fill="none" stroke="midnightblue" d="M2498.79,-168.32C2487.22,-160.11 2469.62,-147.6 2455.84,-137.81"/>
<polygon fill="midnightblue" stroke="midnightblue" points="2457.61,-134.77 2447.43,-131.83 2453.56,-140.48 2457.61,-134.77"/>
</g>
<!-- Node40&#45;&gt;Node11 -->
<g id="edge40" class="edge">
<title>Node40&#45;&gt;Node11</title>
<path fill="none" stroke="midnightblue" d="M2484.14,-168.46C2456.45,-159.6 2412.08,-145.21 2374,-132 2281.01,-99.75 2261.4,-80.22 2166,-56 2087.62,-36.1 1995.5,-23.99 1933.37,-17.42"/>
<polygon fill="midnightblue" stroke="midnightblue" points="1933.59,-13.93 1923.28,-16.38 1932.87,-20.89 1933.59,-13.93"/>
</g>
<!-- Node40&#45;&gt;Node20 -->
<g id="edge41" class="edge">
<title>Node40&#45;&gt;Node20</title>
<path fill="none" stroke="midnightblue" d="M2459.03,-168.47C2416.54,-160.85 2355.17,-148.36 2303,-132 2280.95,-125.08 2276.85,-119.53 2255,-112 2216.02,-98.56 2170.74,-86.32 2137.81,-78.01"/>
<polygon fill="midnightblue" stroke="midnightblue" points="2138.56,-74.59 2128.01,-75.56 2136.86,-81.38 2138.56,-74.59"/>
</g>
<!-- Node40&#45;&gt;Node21 -->
<g id="edge45" class="edge">
<title>Node40&#45;&gt;Node21</title>
<path fill="none" stroke="midnightblue" d="M2510.64,-168.4C2509.76,-155.36 2506.69,-130.17 2496,-112 2473.67,-74.05 2432.34,-42.37 2406.62,-25.11"/>
<polygon fill="midnightblue" stroke="midnightblue" points="2408.51,-22.16 2398.22,-19.61 2404.67,-28.02 2408.51,-22.16"/>
</g>
<!-- Node40&#45;&gt;Node23 -->
<g id="edge42" class="edge">
<title>Node40&#45;&gt;Node23</title>
<path fill="none" stroke="midnightblue" d="M2458.9,-169.54C2406.2,-161.64 2322.51,-148.08 2251,-132 2218.6,-124.71 2211.8,-117.23 2179,-112 2130.61,-104.29 1388.93,-75.06 1217.27,-68.37"/>
<polygon fill="midnightblue" stroke="midnightblue" points="1217.38,-64.87 1207.25,-67.98 1217.11,-71.86 1217.38,-64.87"/>
</g>
<!-- Node40&#45;&gt;Node26 -->
<g id="edge39" class="edge">
<title>Node40&#45;&gt;Node26</title>
<path fill="none" stroke="midnightblue" d="M2541.42,-168.44C2574.28,-159.2 2626.78,-144.44 2662.97,-134.26"/>
<polygon fill="midnightblue" stroke="midnightblue" points="2664.04,-137.59 2672.72,-131.52 2662.15,-130.85 2664.04,-137.59"/>
</g>
<!-- Node40&#45;&gt;Node37 -->
<g id="edge43" class="edge">
<title>Node40&#45;&gt;Node37</title>
<path fill="none" stroke="midnightblue" d="M2563.09,-172.54C2687.07,-161.91 2997.29,-135.32 3104.15,-126.16"/>
<polygon fill="midnightblue" stroke="midnightblue" points="3104.76,-129.62 3114.42,-125.28 3104.16,-122.65 3104.76,-129.62"/>
</g>
<!-- Node40&#45;&gt;Node38 -->
<g id="edge44" class="edge">
<title>Node40&#45;&gt;Node38</title>
<path fill="none" stroke="midnightblue" d="M2458.68,-170.86C2361.05,-159.4 2154.2,-135.11 2079.04,-126.29"/>
<polygon fill="midnightblue" stroke="midnightblue" points="2079.28,-122.8 2068.94,-125.11 2078.46,-129.75 2079.28,-122.8"/>
</g>
<!-- Node46&#45;&gt;Node3 -->
<g id="edge73" class="edge">
<title>Node46&#45;&gt;Node3</title>
<path fill="none" stroke="midnightblue" d="M1810.58,-575.11C1893.46,-568.6 2024.32,-555.48 2069,-535 2190.01,-479.54 2296.68,-352.99 2332.35,-307.59"/>
<polygon fill="midnightblue" stroke="midnightblue" points="2335.15,-309.68 2338.52,-299.64 2329.62,-305.39 2335.15,-309.68"/>
</g>
<!-- Node46&#45;&gt;Node17 -->
<g id="edge165" class="edge">
<title>Node46&#45;&gt;Node17</title>
<path fill="none" stroke="midnightblue" d="M1667.38,-577.33C1389.49,-566.49 398,-523.32 398,-459 398,-459 398,-459 398,-345 398,-228.45 534.55,-293.63 640,-244 657.27,-235.87 660.85,-232.36 678,-224 701.53,-212.53 728.63,-200.4 748.68,-191.63"/>
<polygon fill="midnightblue" stroke="midnightblue" points="750.14,-194.81 757.91,-187.61 747.34,-188.39 750.14,-194.81"/>
</g>
<!-- Node47 -->
<g id="node33" class="node">
<title>Node47</title>
<g id="a_node33"><a xlink:href="BitmaskEnum_8h.html" target="_top" xlink:title=" ">
<polygon fill="none" stroke="red" points="722,-112.5 722,-131.5 852,-131.5 852,-112.5 722,-112.5"/>
<text text-anchor="middle" x="787" y="-119.5" font-family="Helvetica" font-size="10.00">llvm/ADT/BitmaskEnum.h</text>
</a>
</g>
</g>
<!-- Node46&#45;&gt;Node47 -->
<g id="edge74" class="edge">
<title>Node46&#45;&gt;Node47</title>
<path fill="none" stroke="midnightblue" d="M1667.33,-580.47C1445.75,-581.4 773.81,-580.33 561,-535 364.19,-493.08 263.21,-480.37 174,-300 113.07,-176.81 2.11,-344.14 416,-244 518.18,-219.28 539.95,-200.28 640,-168 676.58,-156.2 718.53,-143.43 748.22,-134.52"/>
<polygon fill="midnightblue" stroke="midnightblue" points="749.61,-137.76 758.19,-131.54 747.61,-131.06 749.61,-137.76"/>
</g>
<!-- Node46&#45;&gt;Node48 -->
<g id="edge78" class="edge">
<title>Node46&#45;&gt;Node48</title>
<path fill="none" stroke="midnightblue" d="M1808.78,-571.48C1898.73,-560.48 2054.7,-541.43 2148.33,-529.99"/>
<polygon fill="midnightblue" stroke="midnightblue" points="2148.81,-533.46 2158.31,-528.77 2147.96,-526.51 2148.81,-533.46"/>
</g>
<!-- Node46&#45;&gt;Node50 -->
<g id="edge164" class="edge">
<title>Node46&#45;&gt;Node50</title>
<path fill="none" stroke="midnightblue" d="M1730.8,-571.3C1711.82,-551.15 1664.62,-501.06 1640.19,-475.12"/>
<polygon fill="midnightblue" stroke="midnightblue" points="1642.53,-472.5 1633.12,-467.62 1637.43,-477.3 1642.53,-472.5"/>
</g>
<!-- Node64 -->
<g id="node46" class="node">
<title>Node64</title>
<g id="a_node46"><a xlink:href="Endian_8h.html" target="_top" xlink:title=" ">
<polygon fill="none" stroke="red" points="294.5,-224.5 294.5,-243.5 407.5,-243.5 407.5,-224.5 294.5,-224.5"/>
<text text-anchor="middle" x="351" y="-231.5" font-family="Helvetica" font-size="10.00">llvm/Support/Endian.h</text>
</a>
</g>
</g>
<!-- Node46&#45;&gt;Node64 -->
<g id="edge157" class="edge">
<title>Node46&#45;&gt;Node64</title>
<path fill="none" stroke="midnightblue" d="M1667.25,-579.37C1378.67,-576.64 315.07,-564.59 250,-535 129.89,-480.38 13.27,-381.14 98,-280 121.33,-252.15 217.4,-241.52 284.2,-237.48"/>
<polygon fill="midnightblue" stroke="midnightblue" points="284.46,-240.97 294.24,-236.9 284.06,-233.98 284.46,-240.97"/>
</g>
<!-- Node47&#45;&gt;Node18 -->
<g id="edge76" class="edge">
<title>Node47&#45;&gt;Node18</title>
<path fill="none" stroke="midnightblue" d="M779.77,-112.38C767,-97.83 738.86,-68.75 708,-56 630.65,-24.03 377.98,-14.44 278.13,-11.86"/>
<polygon fill="midnightblue" stroke="midnightblue" points="278.2,-8.36 268.12,-11.61 278.03,-15.36 278.2,-8.36"/>
</g>
<!-- Node47&#45;&gt;Node21 -->
<g id="edge77" class="edge">
<title>Node47&#45;&gt;Node21</title>
<path fill="none" stroke="midnightblue" d="M802.22,-112.38C829.31,-97.56 888.11,-67.72 942,-56 1013.38,-40.48 2152.58,-15.87 2353.76,-11.63"/>
<polygon fill="midnightblue" stroke="midnightblue" points="2353.98,-15.13 2363.9,-11.42 2353.83,-8.13 2353.98,-15.13"/>
</g>
<!-- Node47&#45;&gt;Node23 -->
<g id="edge75" class="edge">
<title>Node47&#45;&gt;Node23</title>
<path fill="none" stroke="midnightblue" d="M849.59,-112.44C933.63,-100.95 1080.1,-80.93 1146.94,-71.79"/>
<polygon fill="midnightblue" stroke="midnightblue" points="1147.53,-75.24 1156.96,-70.42 1146.58,-68.31 1147.53,-75.24"/>
</g>
<!-- Node48&#45;&gt;Node14 -->
<g id="edge156" class="edge">
<title>Node48&#45;&gt;Node14</title>
<path fill="none" stroke="midnightblue" d="M2293.73,-516.23C2485.37,-507.83 3045.07,-469.4 3471,-300 3597.46,-249.71 3753.25,-151.2 3656,-56 3624.2,-24.87 3490.19,-15.04 3428.86,-12.13"/>
<polygon fill="midnightblue" stroke="midnightblue" points="3428.79,-8.62 3418.64,-11.68 3428.48,-15.62 3428.79,-8.62"/>
</g>
<!-- Node49 -->
<g id="node35" class="node">
<title>Node49</title>
<g id="a_node35"><a xlink:href="StringRef_8h.html" target="_top" xlink:title=" ">
<polygon fill="none" stroke="black" points="1631,-280.5 1631,-299.5 1739,-299.5 1739,-280.5 1631,-280.5"/>
<text text-anchor="middle" x="1685" y="-287.5" font-family="Helvetica" font-size="10.00">llvm/ADT/StringRef.h</text>
</a>
</g>
</g>
<!-- Node48&#45;&gt;Node49 -->
<g id="edge79" class="edge">
<title>Node48&#45;&gt;Node49</title>
<path fill="none" stroke="midnightblue" d="M2221.23,-504.31C2211.42,-477.5 2186.28,-419.64 2144,-392 2061.07,-337.79 2020.82,-377.03 1924,-356 1885.95,-347.73 1782.1,-318.63 1724.61,-302.31"/>
<polygon fill="midnightblue" stroke="midnightblue" points="1725.36,-298.88 1714.78,-299.51 1723.44,-305.61 1725.36,-298.88"/>
</g>
<!-- Node48&#45;&gt;Node50 -->
<g id="edge91" class="edge">
<title>Node48&#45;&gt;Node50</title>
<path fill="none" stroke="midnightblue" d="M2158.23,-511.79C2040.79,-500.16 1801.15,-476.44 1687.49,-465.19"/>
<polygon fill="midnightblue" stroke="midnightblue" points="1687.52,-461.67 1677.23,-464.17 1686.83,-468.64 1687.52,-461.67"/>
</g>
<!-- Node49&#45;&gt;Node11 -->
<g id="edge82" class="edge">
<title>Node49&#45;&gt;Node11</title>
<path fill="none" stroke="midnightblue" d="M1631.9,-280.47C1579.09,-271.84 1495.79,-257.83 1424,-244 1264.7,-213.32 1227.26,-193.13 1067,-168 988.88,-155.75 766.01,-190.67 713,-132 707.04,-125.4 707.83,-119.23 713,-112 757.81,-49.35 801.33,-70.35 877,-56 1052.25,-22.78 1594.91,-13.82 1790.67,-11.64"/>
<polygon fill="midnightblue" stroke="midnightblue" points="1790.88,-15.14 1800.84,-11.53 1790.8,-8.14 1790.88,-15.14"/>
</g>
<!-- Node49&#45;&gt;Node14 -->
<g id="edge88" class="edge">
<title>Node49&#45;&gt;Node14</title>
<path fill="none" stroke="midnightblue" d="M1739.26,-287.42C1962.66,-280.5 2804.22,-250.48 2904,-188 2963.35,-150.84 2930.37,-92.69 2990,-56 3053.16,-17.14 3283.3,-11.72 3367.16,-11.06"/>
<polygon fill="midnightblue" stroke="midnightblue" points="3367.34,-14.55 3377.32,-10.99 3367.3,-7.55 3367.34,-14.55"/>
</g>
<!-- Node49&#45;&gt;Node18 -->
<g id="edge89" class="edge">
<title>Node49&#45;&gt;Node18</title>
<path fill="none" stroke="midnightblue" d="M1630.71,-288.45C1376.79,-285.71 315.99,-272.59 252,-244 215.55,-227.71 190,-218.92 190,-179 190,-179 190,-179 190,-121 190,-85.7 210.72,-48.79 224.64,-27.96"/>
<polygon fill="midnightblue" stroke="midnightblue" points="227.63,-29.8 230.46,-19.59 221.88,-25.8 227.63,-29.8"/>
</g>
<!-- Node49&#45;&gt;Node21 -->
<g id="edge90" class="edge">
<title>Node49&#45;&gt;Node21</title>
<path fill="none" stroke="midnightblue" d="M1630.77,-282.72C1574.72,-273.02 1489.94,-248.63 1450,-188 1445.11,-180.58 1444.35,-174.87 1450,-168 1568.06,-24.43 2206.1,-12 2353.57,-11.05"/>
<polygon fill="midnightblue" stroke="midnightblue" points="2353.72,-14.55 2363.7,-11 2353.69,-7.55 2353.72,-14.55"/>
</g>
<!-- Node49&#45;&gt;Node22 -->
<g id="edge83" class="edge">
<title>Node49&#45;&gt;Node22</title>
<path fill="none" stroke="midnightblue" d="M1739.15,-289.06C1890.03,-288.05 2327.03,-277.03 2676,-188 2797.28,-157.06 2936.53,-103.44 2996.71,-79.34"/>
<polygon fill="midnightblue" stroke="midnightblue" points="2998.03,-82.58 3006,-75.6 2995.42,-76.09 2998.03,-82.58"/>
</g>
<!-- Node49&#45;&gt;Node23 -->
<g id="edge84" class="edge">
<title>Node49&#45;&gt;Node23</title>
<path fill="none" stroke="midnightblue" d="M1652.12,-280.47C1602.71,-267.73 1506.32,-243.17 1424,-224 1350.47,-206.88 1319.8,-231.36 1258,-188 1221.23,-162.21 1198.46,-112.37 1188.27,-85.41"/>
<polygon fill="midnightblue" stroke="midnightblue" points="1191.45,-83.91 1184.78,-75.69 1184.87,-86.28 1191.45,-83.91"/>
</g>
<!-- Node49&#45;&gt;Node24 -->
<g id="edge86" class="edge">
<title>Node49&#45;&gt;Node24</title>
<path fill="none" stroke="midnightblue" d="M1630.81,-289.42C1526.9,-289.2 1292.91,-283.85 1101,-244 999.71,-222.97 981.7,-191.68 881,-168 760.15,-139.59 714.73,-188.13 604,-132 582.34,-121.02 564.1,-99.36 553.12,-84.06"/>
<polygon fill="midnightblue" stroke="midnightblue" points="555.81,-81.79 547.26,-75.52 550.03,-85.74 555.81,-81.79"/>
</g>
<!-- Node49&#45;&gt;Node28 -->
<g id="edge81" class="edge">
<title>Node49&#45;&gt;Node28</title>
<path fill="none" stroke="midnightblue" d="M1739.31,-286.86C1835.44,-282.45 2031.3,-270.44 2094,-244 2119.96,-233.05 2144.08,-210.72 2158.67,-195.31"/>
<polygon fill="midnightblue" stroke="midnightblue" points="2161.58,-197.32 2165.75,-187.58 2156.42,-192.59 2161.58,-197.32"/>
</g>
<!-- Node49&#45;&gt;Node16 -->
<g id="edge85" class="edge">
<title>Node49&#45;&gt;Node16</title>
<path fill="none" stroke="midnightblue" d="M1630.94,-286.92C1558.92,-283.12 1428.01,-272.59 1320,-244 1297.66,-238.09 1294.17,-230.54 1272,-224 1185.79,-198.57 1161.04,-206.11 1073,-188 1071.55,-187.7 1070.08,-187.39 1068.59,-187.07"/>
<polygon fill="midnightblue" stroke="midnightblue" points="1069.24,-183.63 1058.72,-184.89 1067.73,-190.47 1069.24,-183.63"/>
</g>
<!-- Node49&#45;&gt;Node32 -->
<g id="edge87" class="edge">
<title>Node49&#45;&gt;Node32</title>
<path fill="none" stroke="midnightblue" d="M1700.38,-280.37C1734.37,-261.29 1816.1,-215.42 1856.94,-192.51"/>
<polygon fill="midnightblue" stroke="midnightblue" points="1858.68,-195.54 1865.69,-187.59 1855.26,-189.43 1858.68,-195.54"/>
</g>
<!-- Node49&#45;&gt;Node39 -->
<g id="edge80" class="edge">
<title>Node49&#45;&gt;Node39</title>
<path fill="none" stroke="midnightblue" d="M1739.2,-284.06C1847.68,-274.19 2091.3,-252 2210.17,-241.18"/>
<polygon fill="midnightblue" stroke="midnightblue" points="2210.6,-244.65 2220.24,-240.26 2209.96,-237.68 2210.6,-244.65"/>
</g>
<!-- Node50&#45;&gt;Node10 -->
<g id="edge119" class="edge">
<title>Node50&#45;&gt;Node10</title>
<path fill="none" stroke="midnightblue" d="M1677.22,-456.66C1935.22,-453.58 3065.82,-423.45 3177,-132 3180.17,-123.69 3182.99,-118.57 3177,-112 3150.35,-82.76 2903.93,-72.24 2772.58,-68.68"/>
<polygon fill="midnightblue" stroke="midnightblue" points="2772.64,-65.18 2762.55,-68.41 2772.46,-72.18 2772.64,-65.18"/>
</g>
<!-- Node50&#45;&gt;Node11 -->
<g id="edge117" class="edge">
<title>Node50&#45;&gt;Node11</title>
<path fill="none" stroke="midnightblue" d="M1572.75,-456.3C1374.38,-453.44 674.27,-441.33 579,-412 526.54,-395.85 474,-401.88 474,-347 474,-347 474,-347 474,-121 474,-87.98 481.83,-73.24 510,-56 564.95,-22.38 1519,-13.33 1790.47,-11.43"/>
<polygon fill="midnightblue" stroke="midnightblue" points="1790.63,-14.93 1800.6,-11.36 1790.58,-7.93 1790.63,-14.93"/>
</g>
<!-- Node50&#45;&gt;Node14 -->
<g id="edge151" class="edge">
<title>Node50&#45;&gt;Node14</title>
<path fill="none" stroke="midnightblue" d="M1677.25,-457.4C1836.57,-458.08 2330.12,-456.21 2736,-412 2876.92,-396.65 2910.74,-382.49 3050,-356 3266.06,-314.9 3354.69,-374.11 3532,-244 3608.98,-187.51 3696.93,-129.53 3636,-56 3609.98,-24.6 3486.8,-14.95 3428.6,-12.12"/>
<polygon fill="midnightblue" stroke="midnightblue" points="3428.68,-8.62 3418.53,-11.66 3428.36,-15.61 3428.68,-8.62"/>
</g>
<!-- Node50&#45;&gt;Node18 -->
<g id="edge153" class="edge">
<title>Node50&#45;&gt;Node18</title>
<path fill="none" stroke="midnightblue" d="M1572.92,-456.88C1364.88,-456.12 599.86,-450.7 499,-412 413.25,-379.09 423.62,-317.99 340,-280 225.63,-228.03 76,-304.63 76,-179 76,-179 76,-179 76,-121 76,-62.85 148.49,-33.21 196.19,-20"/>
<polygon fill="midnightblue" stroke="midnightblue" points="197.18,-23.36 205.96,-17.43 195.4,-16.59 197.18,-23.36"/>
</g>
<!-- Node50&#45;&gt;Node21 -->
<g id="edge154" class="edge">
<title>Node50&#45;&gt;Node21</title>
<path fill="none" stroke="midnightblue" d="M1677.24,-456.85C1827.44,-455.95 2273.28,-450.03 2641,-412 2794.64,-396.11 2833.24,-389.61 2984,-356 3054.24,-340.34 3607,-250.96 3607,-179 3607,-179 3607,-179 3607,-121 3607,25.43 3429.3,-74.15 3284,-56 2944.5,-13.59 2528.24,-10.8 2414.14,-10.89"/>
<polygon fill="midnightblue" stroke="midnightblue" points="2414.04,-7.39 2404.05,-10.9 2414.06,-14.39 2414.04,-7.39"/>
</g>
<!-- Node50&#45;&gt;Node22 -->
<g id="edge144" class="edge">
<title>Node50&#45;&gt;Node22</title>
<path fill="none" stroke="midnightblue" d="M1677.1,-456.58C1812.35,-455.01 2185.59,-447.52 2494,-412 2805.08,-376.17 2966.14,-432.33 3162,-188 3184.71,-159.67 3214.04,-140.86 3192,-112 3192,-112 3114.03,-90.73 3065.28,-77.44"/>
<polygon fill="midnightblue" stroke="midnightblue" points="3065.93,-73.99 3055.36,-74.74 3064.09,-80.74 3065.93,-73.99"/>
</g>
<!-- Node50&#45;&gt;Node23 -->
<g id="edge145" class="edge">
<title>Node50&#45;&gt;Node23</title>
<path fill="none" stroke="midnightblue" d="M1572.94,-456.31C1398.44,-453.73 841.09,-443.11 767,-412 758.52,-408.44 648.7,-308.42 645,-300 615.54,-232.96 664.45,-213.04 746,-168 827.74,-122.85 862.57,-155.3 953,-132 979.41,-125.2 984.91,-119.92 1011,-112 1057.59,-97.86 1112.08,-83.97 1146.8,-75.45"/>
<polygon fill="midnightblue" stroke="midnightblue" points="1148.03,-78.75 1156.91,-72.98 1146.37,-71.95 1148.03,-78.75"/>
</g>
<!-- Node50&#45;&gt;Node27 -->
<g id="edge94" class="edge">
<title>Node50&#45;&gt;Node27</title>
<path fill="none" stroke="midnightblue" d="M1677.08,-453.6C1782.7,-445.4 2015.46,-420.24 2055,-356 2075.37,-322.9 2052.03,-276.85 2036.19,-252.2"/>
<polygon fill="midnightblue" stroke="midnightblue" points="2038.89,-249.93 2030.4,-243.59 2033.08,-253.84 2038.89,-249.93"/>
</g>
<!-- Node50&#45;&gt;Node34 -->
<g id="edge147" class="edge">
<title>Node50&#45;&gt;Node34</title>
<path fill="none" stroke="midnightblue" d="M1572.69,-457.24C1493.62,-456.37 1349.43,-449.51 1317,-412 1311.19,-405.28 1312.81,-399.84 1317,-392 1372.67,-287.72 1440.61,-311 1538,-244 1562.92,-226.85 1591.32,-206.7 1609.89,-193.43"/>
<polygon fill="midnightblue" stroke="midnightblue" points="1612.06,-196.18 1618.16,-187.51 1607.99,-190.48 1612.06,-196.18"/>
</g>
<!-- Node50&#45;&gt;Node37 -->
<g id="edge149" class="edge">
<title>Node50&#45;&gt;Node37</title>
<path fill="none" stroke="midnightblue" d="M1677.07,-451.97C1754.1,-444.34 1902.93,-428.96 2029,-412 2452.21,-355.08 2569.64,-378.27 2975,-244 3034.72,-224.22 3058.37,-230.23 3105,-188 3119.02,-175.3 3128.79,-155.83 3134.58,-141.5"/>
<polygon fill="midnightblue" stroke="midnightblue" points="3138,-142.34 3138.23,-131.75 3131.45,-139.89 3138,-142.34"/>
</g>
<!-- Node50&#45;&gt;Node38 -->
<g id="edge150" class="edge">
<title>Node50&#45;&gt;Node38</title>
<path fill="none" stroke="midnightblue" d="M1677.11,-454.62C1739.65,-450.55 1839,-439.78 1862,-412 1931.22,-328.4 1784.24,-252.79 1852,-168 1873.17,-141.51 1973.97,-129.47 2023.46,-125.09"/>
<polygon fill="midnightblue" stroke="midnightblue" points="2023.81,-128.57 2033.48,-124.24 2023.22,-121.6 2023.81,-128.57"/>
</g>
<!-- Node50&#45;&gt;Node39 -->
<g id="edge93" class="edge">
<title>Node50&#45;&gt;Node39</title>
<path fill="none" stroke="midnightblue" d="M1677.04,-457.56C1749.64,-456.81 1884.51,-449.79 1992,-412 2103.32,-372.86 2217.1,-285.22 2260.1,-250.04"/>
<polygon fill="midnightblue" stroke="midnightblue" points="2262.47,-252.62 2267.95,-243.55 2258.01,-247.22 2262.47,-252.62"/>
</g>
<!-- Node50&#45;&gt;Node42 -->
<g id="edge114" class="edge">
<title>Node50&#45;&gt;Node42</title>
<path fill="none" stroke="midnightblue" d="M1572.82,-457.44C1492.27,-456.88 1343.39,-450.5 1310,-412 1291.61,-390.8 1319.71,-356.21 1337,-336 1365.45,-302.74 1379.79,-301.34 1418,-280 1452.75,-260.59 1472.71,-272.98 1500,-244 1511.97,-231.29 1518.09,-212.09 1521.13,-197.85"/>
<polygon fill="midnightblue" stroke="midnightblue" points="1524.63,-198.17 1522.97,-187.71 1517.74,-196.92 1524.63,-198.17"/>
</g>
<!-- Node50&#45;&gt;Node17 -->
<g id="edge146" class="edge">
<title>Node50&#45;&gt;Node17</title>
<path fill="none" stroke="midnightblue" d="M1572.87,-455.95C1383.7,-451.94 739.91,-436.61 651,-412 600.41,-397.99 573.92,-401.07 547,-356 531.75,-330.46 566.45,-286.73 574,-280 610.53,-247.48 634.06,-265.49 678,-244 707.68,-229.49 739.21,-207.81 758.75,-193.54"/>
<polygon fill="midnightblue" stroke="midnightblue" points="760.88,-196.32 766.84,-187.56 756.72,-190.7 760.88,-196.32"/>
</g>
<!-- Node50&#45;&gt;Node43 -->
<g id="edge148" class="edge">
<title>Node50&#45;&gt;Node43</title>
<path fill="none" stroke="midnightblue" d="M1572.92,-457.65C1490.32,-457.46 1335,-451.67 1300,-412 1245.71,-350.48 1275.56,-240.2 1290.3,-197.03"/>
<polygon fill="midnightblue" stroke="midnightblue" points="1293.62,-198.16 1293.67,-187.57 1287.02,-195.82 1293.62,-198.16"/>
</g>
<!-- Node50&#45;&gt;Node45 -->
<g id="edge155" class="edge">
<title>Node50&#45;&gt;Node45</title>
<path fill="none" stroke="midnightblue" d="M1572.79,-454.36C1403.95,-445.3 880.88,-412.8 833,-356 756.89,-265.7 1009.11,-242.06 1100.34,-236.53"/>
<polygon fill="midnightblue" stroke="midnightblue" points="1100.61,-240.03 1110.39,-235.96 1100.21,-233.04 1100.61,-240.03"/>
</g>
<!-- Node51 -->
<g id="node37" class="node">
<title>Node51</title>
<g id="a_node37"><a xlink:href="llvm-c_2Error_8h.html" target="_top" xlink:title=" ">
<polygon fill="none" stroke="red" points="1326.5,-392.5 1326.5,-411.5 1401.5,-411.5 1401.5,-392.5 1326.5,-392.5"/>
<text text-anchor="middle" x="1364" y="-399.5" font-family="Helvetica" font-size="10.00">llvm&#45;c/Error.h</text>
</a>
</g>
</g>
<!-- Node50&#45;&gt;Node51 -->
<g id="edge92" class="edge">
<title>Node50&#45;&gt;Node51</title>
<path fill="none" stroke="midnightblue" d="M1583.64,-448.44C1536.94,-438.78 1461.07,-423.08 1411.85,-412.9"/>
<polygon fill="midnightblue" stroke="midnightblue" points="1412.27,-409.41 1401.77,-410.82 1410.86,-416.27 1412.27,-409.41"/>
</g>
<!-- Node53 -->
<g id="node38" class="node">
<title>Node53</title>
<g id="a_node38"><a xlink:href="StringExtras_8h.html" target="_top" xlink:title=" ">
<polygon fill="none" stroke="red" points="1714,-392.5 1714,-411.5 1836,-411.5 1836,-392.5 1714,-392.5"/>
<text text-anchor="middle" x="1775" y="-399.5" font-family="Helvetica" font-size="10.00">llvm/ADT/StringExtras.h</text>
</a>
</g>
</g>
<!-- Node50&#45;&gt;Node53 -->
<g id="edge95" class="edge">
<title>Node50&#45;&gt;Node53</title>
<path fill="none" stroke="midnightblue" d="M1648.77,-448.44C1673.89,-439.4 1713.71,-425.06 1741.9,-414.92"/>
<polygon fill="midnightblue" stroke="midnightblue" points="1743.12,-418.2 1751.34,-411.52 1740.75,-411.61 1743.12,-418.2"/>
</g>
<!-- Node55 -->
<g id="node39" class="node">
<title>Node55</title>
<g id="a_node39"><a xlink:href="Twine_8h.html" target="_top" xlink:title=" ">
<polygon fill="none" stroke="black" points="1630,-336.5 1630,-355.5 1724,-355.5 1724,-336.5 1630,-336.5"/>
<text text-anchor="middle" x="1677" y="-343.5" font-family="Helvetica" font-size="10.00">llvm/ADT/Twine.h</text>
</a>
</g>
</g>
<!-- Node50&#45;&gt;Node55 -->
<g id="edge113" class="edge">
<title>Node50&#45;&gt;Node55</title>
<path fill="none" stroke="midnightblue" d="M1677.26,-453.74C1735.49,-448.89 1824.23,-437.45 1845,-412 1850.62,-405.11 1850.41,-399.05 1845,-392 1837.76,-382.57 1775.88,-367.72 1729.31,-357.68"/>
<polygon fill="midnightblue" stroke="midnightblue" points="1729.84,-354.22 1719.33,-355.55 1728.38,-361.06 1729.84,-354.22"/>
</g>
<!-- Node56 -->
<g id="node40" class="node">
<title>Node56</title>
<g id="a_node40"><a xlink:href="AlignOf_8h.html" target="_top" xlink:title=" ">
<polygon fill="none" stroke="black" points="216.5,-280.5 216.5,-299.5 331.5,-299.5 331.5,-280.5 216.5,-280.5"/>
<text text-anchor="middle" x="274" y="-287.5" font-family="Helvetica" font-size="10.00">llvm/Support/AlignOf.h</text>
</a>
</g>
</g>
<!-- Node50&#45;&gt;Node56 -->
<g id="edge115" class="edge">
<title>Node50&#45;&gt;Node56</title>
<path fill="none" stroke="midnightblue" d="M1572.72,-457C1355.49,-456.73 530.5,-453.01 422,-412 363.73,-389.98 311.35,-335.21 287.54,-307.55"/>
<polygon fill="midnightblue" stroke="midnightblue" points="289.97,-304.99 280.85,-299.59 284.61,-309.5 289.97,-304.99"/>
</g>
<!-- Node57 -->
<g id="node41" class="node">
<title>Node57</title>
<g id="a_node41"><a xlink:href="Debug_8h.html" target="_top" xlink:title=" ">
<polygon fill="none" stroke="black" points="1420,-392.5 1420,-411.5 1532,-411.5 1532,-392.5 1420,-392.5"/>
<text text-anchor="middle" x="1476" y="-399.5" font-family="Helvetica" font-size="10.00">llvm/Support/Debug.h</text>
</a>
</g>
</g>
<!-- Node50&#45;&gt;Node57 -->
<g id="edge118" class="edge">
<title>Node50&#45;&gt;Node57</title>
<path fill="none" stroke="midnightblue" d="M1601.39,-448.44C1576.54,-439.44 1537.23,-425.19 1509.25,-415.05"/>
<polygon fill="midnightblue" stroke="midnightblue" points="1510.09,-411.63 1499.5,-411.52 1507.71,-418.21 1510.09,-411.63"/>
</g>
<!-- Node58 -->
<g id="node42" class="node">
<title>Node58</title>
<g id="a_node42"><a xlink:href="ErrorOr_8h.html" target="_top" xlink:title="Provides ErrorOr&lt;T&gt; smart pointer.">
<polygon fill="none" stroke="black" points="556.5,-336.5 556.5,-355.5 671.5,-355.5 671.5,-336.5 556.5,-336.5"/>
<text text-anchor="middle" x="614" y="-343.5" font-family="Helvetica" font-size="10.00">llvm/Support/ErrorOr.h</text>
</a>
</g>
</g>
<!-- Node50&#45;&gt;Node58 -->
<g id="edge120" class="edge">
<title>Node50&#45;&gt;Node58</title>
<path fill="none" stroke="midnightblue" d="M1572.92,-456.55C1387.77,-454.65 768,-445.81 686,-412 661.3,-401.82 639.57,-379.3 626.61,-363.64"/>
<polygon fill="midnightblue" stroke="midnightblue" points="629.31,-361.41 620.35,-355.77 623.83,-365.77 629.31,-361.41"/>
</g>
<!-- Node59 -->
<g id="node43" class="node">
<title>Node59</title>
<g id="a_node43"><a xlink:title=" ">
<polygon fill="none" stroke="#bfbfbf" points="654,-280.5 654,-299.5 726,-299.5 726,-280.5 654,-280.5"/>
<text text-anchor="middle" x="690" y="-287.5" font-family="Helvetica" font-size="10.00">system_error</text>
</a>
</g>
</g>
<!-- Node50&#45;&gt;Node59 -->
<g id="edge152" class="edge">
<title>Node50&#45;&gt;Node59</title>
<path fill="none" stroke="midnightblue" d="M1572.76,-456.44C1402.34,-454.31 869.51,-445.04 800,-412 752.73,-389.53 716.49,-336.67 699.92,-308.85"/>
<polygon fill="midnightblue" stroke="midnightblue" points="702.74,-306.74 694.71,-299.83 696.68,-310.24 702.74,-306.74"/>
</g>
<!-- Node60 -->
<g id="node44" class="node">
<title>Node60</title>
<g id="a_node44"><a xlink:href="Format_8h.html" target="_top" xlink:title=" ">
<polygon fill="none" stroke="red" points="1932.5,-336.5 1932.5,-355.5 2045.5,-355.5 2045.5,-336.5 1932.5,-336.5"/>
<text text-anchor="middle" x="1989" y="-343.5" font-family="Helvetica" font-size="10.00">llvm/Support/Format.h</text>
</a>
</g>
</g>
<!-- Node50&#45;&gt;Node60 -->
<g id="edge126" class="edge">
<title>Node50&#45;&gt;Node60</title>
<path fill="none" stroke="midnightblue" d="M1677.25,-457.68C1737.57,-456.53 1838.43,-448.56 1916,-412 1940.09,-400.65 1962.08,-378.78 1975.49,-363.57"/>
<polygon fill="midnightblue" stroke="midnightblue" points="1978.2,-365.79 1982.01,-355.9 1972.87,-361.25 1978.2,-365.79"/>
</g>
<!-- Node62 -->
<g id="node45" class="node">
<title>Node62</title>
<g id="a_node45"><a xlink:href="raw__ostream_8h.html" target="_top" xlink:title=" ">
<polygon fill="none" stroke="red" points="1016,-336.5 1016,-355.5 1156,-355.5 1156,-336.5 1016,-336.5"/>
<text text-anchor="middle" x="1086" y="-343.5" font-family="Helvetica" font-size="10.00">llvm/Support/raw_ostream.h</text>
</a>
</g>
</g>
<!-- Node50&#45;&gt;Node62 -->
<g id="edge133" class="edge">
<title>Node50&#45;&gt;Node62</title>
<path fill="none" stroke="midnightblue" d="M1572.7,-457.67C1492.43,-457.29 1334.84,-451.03 1208,-412 1169.93,-400.29 1129.94,-376.44 1106.53,-361.12"/>
<polygon fill="midnightblue" stroke="midnightblue" points="1108.39,-358.15 1098.12,-355.51 1104.5,-363.97 1108.39,-358.15"/>
</g>
<!-- Node53&#45;&gt;Node3 -->
<g id="edge96" class="edge">
<title>Node53&#45;&gt;Node3</title>
<path fill="none" stroke="midnightblue" d="M1836.2,-394.13C1899.53,-386.57 2001.16,-373.18 2088,-356 2165.93,-340.59 2255.61,-316.41 2305.76,-302.29"/>
<polygon fill="midnightblue" stroke="midnightblue" points="2306.88,-305.61 2315.55,-299.52 2304.97,-298.88 2306.88,-305.61"/>
</g>
<!-- Node53&#45;&gt;Node14 -->
<g id="edge111" class="edge">
<title>Node53&#45;&gt;Node14</title>
<path fill="none" stroke="midnightblue" d="M1836.21,-399.68C1987.76,-396.08 2392.57,-384.37 2729,-356 3143.05,-321.08 3406.06,-431.61 3621,-76 3625.6,-68.39 3626.63,-62.88 3621,-56 3597.08,-26.77 3484.44,-16.1 3428.99,-12.57"/>
<polygon fill="midnightblue" stroke="midnightblue" points="3428.9,-9.06 3418.71,-11.96 3428.48,-16.05 3428.9,-9.06"/>
</g>
<!-- Node53&#45;&gt;Node21 -->
<g id="edge112" class="edge">
<title>Node53&#45;&gt;Node21</title>
<path fill="none" stroke="midnightblue" d="M1836.22,-396.7C1946.94,-388.88 2187.87,-371.7 2391,-356 2783.65,-325.66 2923.91,-431.94 3270,-244 3330.5,-211.15 3355.23,-197.31 3377,-132 3416,-15 3299.52,-77.75 3161,-56 2873.18,-10.8 2518.99,-9.82 2414.41,-10.63"/>
<polygon fill="midnightblue" stroke="midnightblue" points="2414.23,-7.13 2404.26,-10.72 2414.3,-14.13 2414.23,-7.13"/>
</g>
<!-- Node53&#45;&gt;Node23 -->
<g id="edge105" class="edge">
<title>Node53&#45;&gt;Node23</title>
<path fill="none" stroke="midnightblue" d="M1718.28,-392.5C1666.22,-384.34 1587.07,-371.07 1519,-356 1282.28,-303.59 1123.04,-396.91 1000,-188 995.49,-180.34 995.49,-175.66 1000,-168 1008.79,-153.07 1106.56,-103.82 1155.05,-80.06"/>
<polygon fill="midnightblue" stroke="midnightblue" points="1156.88,-83.06 1164.33,-75.53 1153.81,-76.77 1156.88,-83.06"/>
</g>
<!-- Node53&#45;&gt;Node24 -->
<g id="edge109" class="edge">
<title>Node53&#45;&gt;Node24</title>
<path fill="none" stroke="midnightblue" d="M1713.84,-392.94C1710.52,-392.6 1707.22,-392.28 1704,-392 1539.99,-377.64 1121.44,-404.14 964,-356 947.6,-350.99 946.72,-342.86 931,-336 847.97,-299.76 824.15,-296.14 735,-280 685.64,-271.07 319.02,-280.86 285,-244 208.98,-161.65 423.65,-96.81 508.84,-74.96"/>
<polygon fill="midnightblue" stroke="midnightblue" points="509.95,-78.28 518.79,-72.45 508.24,-71.5 509.95,-78.28"/>
</g>
<!-- Node53&#45;&gt;Node16 -->
<g id="edge106" class="edge">
<title>Node53&#45;&gt;Node16</title>
<path fill="none" stroke="midnightblue" d="M1740.54,-392.42C1705.02,-383.52 1648.06,-369.1 1599,-356 1509.41,-332.07 1486.24,-328.52 1398,-300 1305.14,-269.99 1284.77,-254.28 1192,-224 1149.8,-210.23 1100.5,-196.57 1068.34,-187.97"/>
<polygon fill="midnightblue" stroke="midnightblue" points="1069.1,-184.55 1058.53,-185.37 1067.3,-191.32 1069.1,-184.55"/>
</g>
<!-- Node53&#45;&gt;Node34 -->
<g id="edge108" class="edge">
<title>Node53&#45;&gt;Node34</title>
<path fill="none" stroke="midnightblue" d="M1717.26,-392.46C1676.08,-385.05 1625.81,-372.85 1613,-356 1576.94,-308.56 1604.93,-232.03 1620.88,-197.25"/>
<polygon fill="midnightblue" stroke="midnightblue" points="1624.2,-198.4 1625.35,-187.87 1617.89,-195.39 1624.2,-198.4"/>
</g>
<!-- Node53&#45;&gt;Node36 -->
<g id="edge110" class="edge">
<title>Node53&#45;&gt;Node36</title>
<path fill="none" stroke="midnightblue" d="M1836.15,-394.32C1909.43,-386.13 2035.87,-371.44 2144,-356 2448.96,-312.46 2569.38,-411.35 2828,-244 2845.17,-232.89 2857.05,-212.25 2863.91,-197.2"/>
<polygon fill="midnightblue" stroke="midnightblue" points="2867.18,-198.43 2867.85,-187.86 2860.74,-195.7 2867.18,-198.43"/>
</g>
<!-- Node53&#45;&gt;Node17 -->
<g id="edge107" class="edge">
<title>Node53&#45;&gt;Node17</title>
<path fill="none" stroke="midnightblue" d="M1713.84,-392.95C1710.51,-392.61 1707.22,-392.29 1704,-392 1549.52,-378.24 1154.23,-404.76 1007,-356 964.41,-341.89 873.24,-272.99 839,-244 821.2,-228.93 803.21,-209.07 791.43,-195.29"/>
<polygon fill="midnightblue" stroke="midnightblue" points="794.07,-192.99 784.96,-187.59 788.72,-197.5 794.07,-192.99"/>
</g>
<!-- Node53&#45;&gt;Node49 -->
<g id="edge97" class="edge">
<title>Node53&#45;&gt;Node49</title>
<path fill="none" stroke="midnightblue" d="M1722.1,-392.46C1682.57,-384.87 1633.32,-372.44 1621,-356 1606.24,-336.31 1632.97,-316.58 1656.27,-304.11"/>
<polygon fill="midnightblue" stroke="midnightblue" points="1657.93,-307.19 1665.26,-299.54 1654.76,-300.95 1657.93,-307.19"/>
</g>
<!-- Node53&#45;&gt;Node55 -->
<g id="edge98" class="edge">
<title>Node53&#45;&gt;Node55</title>
<path fill="none" stroke="midnightblue" d="M1759.25,-392.32C1743.68,-383.74 1719.62,-370.49 1701.54,-360.52"/>
<polygon fill="midnightblue" stroke="midnightblue" points="1703.15,-357.42 1692.71,-355.65 1699.78,-363.55 1703.15,-357.42"/>
</g>
<!-- Node55&#45;&gt;Node10 -->
<g id="edge101" class="edge">
<title>Node55&#45;&gt;Node10</title>
<path fill="none" stroke="midnightblue" d="M1724.32,-343.37C1935.69,-335.78 2787.64,-301.82 2891,-244 2925.06,-224.95 2956.69,-200.45 2935,-168 2899.07,-114.24 2828.68,-89.06 2772.69,-77.29"/>
<polygon fill="midnightblue" stroke="midnightblue" points="2773.27,-73.83 2762.78,-75.31 2771.9,-80.7 2773.27,-73.83"/>
</g>
<!-- Node55&#45;&gt;Node14 -->
<g id="edge104" class="edge">
<title>Node55&#45;&gt;Node14</title>
<path fill="none" stroke="midnightblue" d="M1724.25,-343.13C1903.64,-335.99 2537.03,-310.29 2627,-300 2902.59,-268.48 2999.29,-324.1 3241,-188 3311.34,-148.39 3366.21,-65.29 3387.9,-28.81"/>
<polygon fill="midnightblue" stroke="midnightblue" points="3391.12,-30.23 3393.13,-19.83 3385.07,-26.71 3391.12,-30.23"/>
</g>
<!-- Node55&#45;&gt;Node23 -->
<g id="edge102" class="edge">
<title>Node55&#45;&gt;Node23</title>
<path fill="none" stroke="midnightblue" d="M1629.68,-338.2C1543.24,-323.77 1357.35,-283.26 1234,-188 1210.19,-169.62 1207.83,-159.65 1196,-132 1189.68,-117.22 1186.09,-99.3 1184.14,-86.01"/>
<polygon fill="midnightblue" stroke="midnightblue" points="1187.56,-85.2 1182.81,-75.73 1180.62,-86.1 1187.56,-85.2"/>
</g>
<!-- Node55&#45;&gt;Node27 -->
<g id="edge99" class="edge">
<title>Node55&#45;&gt;Node27</title>
<path fill="none" stroke="midnightblue" d="M1703.94,-336.46C1765.56,-316.93 1916.86,-268.96 1987.09,-246.7"/>
<polygon fill="midnightblue" stroke="midnightblue" points="1988.36,-249.97 1996.84,-243.61 1986.25,-243.3 1988.36,-249.97"/>
</g>
<!-- Node55&#45;&gt;Node17 -->
<g id="edge103" class="edge">
<title>Node55&#45;&gt;Node17</title>
<path fill="none" stroke="midnightblue" d="M1629.81,-341.93C1513.46,-333.61 1204.13,-306.88 954,-244 900.52,-230.56 840.81,-206.47 806.49,-191.69"/>
<polygon fill="midnightblue" stroke="midnightblue" points="807.67,-188.39 797.1,-187.61 804.88,-194.81 807.67,-188.39"/>
</g>
<!-- Node55&#45;&gt;Node49 -->
<g id="edge100" class="edge">
<title>Node55&#45;&gt;Node49</title>
<path fill="none" stroke="midnightblue" d="M1678.32,-336.08C1679.38,-328.93 1680.91,-318.64 1682.23,-309.69"/>
<polygon fill="midnightblue" stroke="midnightblue" points="1685.7,-310.16 1683.7,-299.75 1678.78,-309.13 1685.7,-310.16"/>
</g>
<!-- Node56&#45;&gt;Node18 -->
<g id="edge116" class="edge">
<title>Node56&#45;&gt;Node18</title>
<path fill="none" stroke="midnightblue" d="M216.48,-284.78C160.49,-279.34 81.12,-267.61 62,-244 9.41,-179.07 10.8,-122.03 62,-56 78.26,-35.03 149.48,-22.12 195.9,-15.78"/>
<polygon fill="midnightblue" stroke="midnightblue" points="196.51,-19.23 205.97,-14.45 195.6,-12.29 196.51,-19.23"/>
</g>
<!-- Node58&#45;&gt;Node18 -->
<g id="edge124" class="edge">
<title>Node58&#45;&gt;Node18</title>
<path fill="none" stroke="midnightblue" d="M586.53,-336.47C542.19,-322.95 451.93,-296.44 374,-280 270.18,-258.1 220.22,-311.07 138,-244 114.14,-224.53 114,-209.8 114,-179 114,-179 114,-179 114,-121 114,-90.2 117.03,-78.55 138,-56 153.51,-39.32 176.38,-28.37 196.23,-21.45"/>
<polygon fill="midnightblue" stroke="midnightblue" points="197.56,-24.7 205.99,-18.28 195.4,-18.04 197.56,-24.7"/>
</g>
<!-- Node58&#45;&gt;Node21 -->
<g id="edge125" class="edge">
<title>Node58&#45;&gt;Node21</title>
<path fill="none" stroke="midnightblue" d="M616.09,-336.3C619.77,-322.66 628.61,-296.15 645,-280 666.79,-258.53 1118.1,-62.44 1148,-56 1208.71,-42.92 2169.46,-16.72 2353.61,-11.8"/>
<polygon fill="midnightblue" stroke="midnightblue" points="2353.78,-15.3 2363.68,-11.54 2353.59,-8.3 2353.78,-15.3"/>
</g>
<!-- Node58&#45;&gt;Node23 -->
<g id="edge122" class="edge">
<title>Node58&#45;&gt;Node23</title>
<path fill="none" stroke="midnightblue" d="M602.73,-336.43C593.03,-328.27 579.72,-315.05 574,-300 562,-268.43 555.1,-251.99 574,-224 592.64,-196.4 681.07,-177.46 713,-168 792.89,-144.32 815.59,-149.76 897,-132 934.07,-123.91 943.04,-120.57 980,-112 1038.44,-98.45 1106.58,-83.43 1146.9,-74.63"/>
<polygon fill="midnightblue" stroke="midnightblue" points="1147.75,-78.02 1156.77,-72.47 1146.26,-71.18 1147.75,-78.02"/>
</g>
<!-- Node58&#45;&gt;Node56 -->
<g id="edge121" class="edge">
<title>Node58&#45;&gt;Node56</title>
<path fill="none" stroke="midnightblue" d="M560.13,-336.44C499.69,-326.85 401.76,-311.29 337.62,-301.1"/>
<polygon fill="midnightblue" stroke="midnightblue" points="338.05,-297.63 327.62,-299.52 336.95,-304.54 338.05,-297.63"/>
</g>
<!-- Node58&#45;&gt;Node59 -->
<g id="edge123" class="edge">
<title>Node58&#45;&gt;Node59</title>
<path fill="none" stroke="midnightblue" d="M626.21,-336.32C637.78,-328.11 655.38,-315.6 669.16,-305.81"/>
<polygon fill="midnightblue" stroke="midnightblue" points="671.44,-308.48 677.57,-299.83 667.39,-302.77 671.44,-308.48"/>
</g>
<!-- Node60&#45;&gt;Node3 -->
<g id="edge127" class="edge">
<title>Node60&#45;&gt;Node3</title>
<path fill="none" stroke="midnightblue" d="M2045.41,-336.44C2109.75,-326.68 2214.68,-310.77 2281.74,-300.6"/>
<polygon fill="midnightblue" stroke="midnightblue" points="2282.4,-304.04 2291.76,-299.08 2281.35,-297.11 2282.4,-304.04"/>
</g>
<!-- Node60&#45;&gt;Node5 -->
<g id="edge130" class="edge">
<title>Node60&#45;&gt;Node5</title>
<path fill="none" stroke="midnightblue" d="M1973.83,-336.38C1903.6,-296.45 1609.81,-129.43 1523.77,-80.51"/>
<polygon fill="midnightblue" stroke="midnightblue" points="1525.42,-77.42 1514.99,-75.52 1521.96,-83.51 1525.42,-77.42"/>
</g>
<!-- Node60&#45;&gt;Node21 -->
<g id="edge132" class="edge">
<title>Node60&#45;&gt;Node21</title>
<path fill="none" stroke="midnightblue" d="M2045.66,-343.93C2247.94,-339.9 2927.56,-324.66 3022,-300 3182.39,-258.12 3268.1,-273.17 3355,-132 3399.68,-59.42 3527.61,-115.71 3064,-56 2814.29,-23.84 2509.86,-14.05 2414.23,-11.66"/>
<polygon fill="midnightblue" stroke="midnightblue" points="2414.2,-8.16 2404.11,-11.42 2414.03,-15.16 2414.2,-8.16"/>
</g>
<!-- Node60&#45;&gt;Node23 -->
<g id="edge131" class="edge">
<title>Node60&#45;&gt;Node23</title>
<path fill="none" stroke="midnightblue" d="M1957.17,-336.43C1840.99,-305.1 1445.1,-198.14 1419,-188 1337.3,-156.27 1246.53,-105.11 1205,-80.75"/>
<polygon fill="midnightblue" stroke="midnightblue" points="1206.61,-77.64 1196.22,-75.57 1203.05,-83.67 1206.61,-77.64"/>
</g>
<!-- Node60&#45;&gt;Node39 -->
<g id="edge128" class="edge">
<title>Node60&#45;&gt;Node39</title>
<path fill="none" stroke="midnightblue" d="M2011.68,-336.37C2062.75,-316.93 2186.9,-269.67 2245.87,-247.23"/>
<polygon fill="midnightblue" stroke="midnightblue" points="2247.33,-250.42 2255.43,-243.59 2244.84,-243.88 2247.33,-250.42"/>
</g>
<!-- Node60&#45;&gt;Node49 -->
<g id="edge129" class="edge">
<title>Node60&#45;&gt;Node49</title>
<path fill="none" stroke="midnightblue" d="M1940.83,-336.44C1887.13,-326.9 1800.31,-311.48 1742.95,-301.29"/>
<polygon fill="midnightblue" stroke="midnightblue" points="1743.4,-297.82 1732.94,-299.52 1742.18,-304.71 1743.4,-297.82"/>
</g>
<!-- Node62&#45;&gt;Node5 -->
<g id="edge136" class="edge">
<title>Node62&#45;&gt;Node5</title>
<path fill="none" stroke="midnightblue" d="M1092.59,-336.34C1119.02,-301.65 1216.27,-174.35 1225,-168 1292.48,-118.95 1386.37,-91.3 1445.13,-77.75"/>
<polygon fill="midnightblue" stroke="midnightblue" points="1445.98,-81.15 1454.97,-75.54 1444.44,-74.32 1445.98,-81.15"/>
</g>
<!-- Node62&#45;&gt;Node14 -->
<g id="edge141" class="edge">
<title>Node62&#45;&gt;Node14</title>
<path fill="none" stroke="midnightblue" d="M1156.26,-344.31C1353.6,-341.99 1929.67,-332.71 2407,-300 2649.05,-283.42 2715.22,-305.14 2950,-244 3129.15,-197.35 3317.56,-69.13 3378.07,-25.65"/>
<polygon fill="midnightblue" stroke="midnightblue" points="3380.31,-28.34 3386.36,-19.64 3376.21,-22.67 3380.31,-28.34"/>
</g>
<!-- Node62&#45;&gt;Node18 -->
<g id="edge143" class="edge">
<title>Node62&#45;&gt;Node18</title>
<path fill="none" stroke="midnightblue" d="M1048.05,-336.49C983.91,-322.44 849.82,-294.51 735,-280 618.76,-265.31 314,-295.97 209,-244 174.56,-226.96 152,-217.42 152,-179 152,-179 152,-179 152,-121 152,-79.76 189.86,-44.57 215.05,-25.73"/>
<polygon fill="midnightblue" stroke="midnightblue" points="217.27,-28.44 223.34,-19.76 213.18,-22.76 217.27,-28.44"/>
</g>
<!-- Node62&#45;&gt;Node23 -->
<g id="edge137" class="edge">
<title>Node62&#45;&gt;Node23</title>
<path fill="none" stroke="midnightblue" d="M1071.94,-336.32C1033.07,-311.21 929.5,-235.91 967,-168 985.58,-134.35 1091.09,-96.16 1147.08,-77.88"/>
<polygon fill="midnightblue" stroke="midnightblue" points="1148.49,-81.1 1156.93,-74.7 1146.34,-74.44 1148.49,-81.1"/>
</g>
<!-- Node62&#45;&gt;Node24 -->
<g id="edge140" class="edge">
<title>Node62&#45;&gt;Node24</title>
<path fill="none" stroke="midnightblue" d="M1067.39,-336.42C1049.3,-327.86 1021.22,-314 998,-300 910.56,-247.3 904.74,-206.04 810,-168 711.54,-128.47 659.59,-194.71 574,-132 558.81,-120.87 550.45,-100.54 546.12,-85.57"/>
<polygon fill="midnightblue" stroke="midnightblue" points="549.49,-84.65 543.64,-75.82 542.71,-86.37 549.49,-84.65"/>
</g>
<!-- Node62&#45;&gt;Node27 -->
<g id="edge134" class="edge">
<title>Node62&#45;&gt;Node27</title>
<path fill="none" stroke="midnightblue" d="M1154.51,-336.49C1256.41,-323.87 1453.94,-299.6 1622,-280 1738.06,-266.47 1873.07,-251.52 1953.37,-242.71"/>
<polygon fill="midnightblue" stroke="midnightblue" points="1953.81,-246.18 1963.37,-241.61 1953.05,-239.22 1953.81,-246.18"/>
</g>
<!-- Node62&#45;&gt;Node16 -->
<g id="edge138" class="edge">
<title>Node62&#45;&gt;Node16</title>
<path fill="none" stroke="midnightblue" d="M1083.2,-336.08C1074.98,-309.83 1050.77,-232.55 1039.68,-197.12"/>
<polygon fill="midnightblue" stroke="midnightblue" points="1043.01,-196.06 1036.68,-187.57 1036.33,-198.16 1043.01,-196.06"/>
</g>
<!-- Node62&#45;&gt;Node17 -->
<g id="edge139" class="edge">
<title>Node62&#45;&gt;Node17</title>
<path fill="none" stroke="midnightblue" d="M1059.14,-336.41C1034.81,-328.24 998.25,-315 968,-300 902.67,-267.6 831.71,-218.2 797.98,-193.76"/>
<polygon fill="midnightblue" stroke="midnightblue" points="799.63,-190.63 789.49,-187.56 795.5,-196.28 799.63,-190.63"/>
</g>
<!-- Node62&#45;&gt;Node49 -->
<g id="edge135" class="edge">
<title>Node62&#45;&gt;Node49</title>
<path fill="none" stroke="midnightblue" d="M1156.11,-340.11C1257.81,-332.79 1452.13,-317.89 1617,-300 1618.27,-299.86 1619.54,-299.72 1620.83,-299.58"/>
<polygon fill="midnightblue" stroke="midnightblue" points="1621.31,-303.04 1630.84,-298.4 1620.5,-296.09 1621.31,-303.04"/>
</g>
<!-- Node62&#45;&gt;Node59 -->
<g id="edge142" class="edge">
<title>Node62&#45;&gt;Node59</title>
<path fill="none" stroke="midnightblue" d="M1023.25,-336.44C943.33,-325.54 807.08,-306.97 736.09,-297.29"/>
<polygon fill="midnightblue" stroke="midnightblue" points="736.49,-293.81 726.1,-295.92 735.54,-300.74 736.49,-293.81"/>
</g>
<!-- Node64&#45;&gt;Node11 -->
<g id="edge158" class="edge">
<title>Node64&#45;&gt;Node11</title>
<path fill="none" stroke="midnightblue" d="M353.21,-224.25C361.33,-194.23 392.56,-95.1 460,-56 517.95,-22.4 1512.12,-13.31 1790.23,-11.43"/>
<polygon fill="midnightblue" stroke="midnightblue" points="1790.63,-14.92 1800.6,-11.36 1790.58,-7.92 1790.63,-14.92"/>
</g>
<!-- Node64&#45;&gt;Node18 -->
<g id="edge163" class="edge">
<title>Node64&#45;&gt;Node18</title>
<path fill="none" stroke="midnightblue" d="M346.53,-224.3C329.62,-191.36 269.3,-73.9 246.14,-28.81"/>
<polygon fill="midnightblue" stroke="midnightblue" points="249.24,-27.18 241.56,-19.88 243.02,-30.38 249.24,-27.18"/>
</g>
<!-- Node64&#45;&gt;Node23 -->
<g id="edge159" class="edge">
<title>Node64&#45;&gt;Node23</title>
<path fill="none" stroke="midnightblue" d="M392.92,-224.49C454.66,-211.99 573.68,-187.97 675,-168 757.61,-151.72 780.9,-157.95 861,-132 881.05,-125.5 883.85,-118.19 904,-112 989.01,-85.9 1093.54,-74.17 1146.96,-69.57"/>
<polygon fill="midnightblue" stroke="midnightblue" points="1147.26,-73.06 1156.94,-68.74 1146.68,-66.08 1147.26,-73.06"/>
</g>
<!-- Node64&#45;&gt;Node24 -->
<g id="edge162" class="edge">
<title>Node64&#45;&gt;Node24</title>
<path fill="none" stroke="midnightblue" d="M360.08,-224.46C373.48,-211.92 399.39,-187.85 422,-168 457.54,-136.8 500.09,-101.45 523.78,-81.94"/>
<polygon fill="midnightblue" stroke="midnightblue" points="526.1,-84.56 531.6,-75.5 521.66,-79.15 526.1,-84.56"/>
</g>
<!-- Node64&#45;&gt;Node16 -->
<g id="edge160" class="edge">
<title>Node64&#45;&gt;Node16</title>
<path fill="none" stroke="midnightblue" d="M407.77,-228.51C544.38,-217.71 888.37,-190.51 999.09,-181.76"/>
<polygon fill="midnightblue" stroke="midnightblue" points="999.66,-185.23 1009.36,-180.95 999.11,-178.25 999.66,-185.23"/>
</g>
<!-- Node64&#45;&gt;Node17 -->
<g id="edge161" class="edge">
<title>Node64&#45;&gt;Node17</title>
<path fill="none" stroke="midnightblue" d="M407.7,-225.83C498.08,-214.4 672.02,-192.4 744.75,-183.2"/>
<polygon fill="midnightblue" stroke="midnightblue" points="745.25,-186.67 754.73,-181.94 744.37,-179.73 745.25,-186.67"/>
</g>
<!-- Node65&#45;&gt;Node3 -->
<g id="edge172" class="edge">
<title>Node65&#45;&gt;Node3</title>
<path fill="none" stroke="midnightblue" d="M2082.38,-632.95C2178.34,-617.02 2361,-579.01 2361,-520.5 2361,-520.5 2361,-520.5 2361,-401 2361,-368.63 2354.13,-331.44 2349.39,-309.66"/>
<polygon fill="midnightblue" stroke="midnightblue" points="2352.78,-308.76 2347.16,-299.78 2345.95,-310.3 2352.78,-308.76"/>
</g>
<!-- Node65&#45;&gt;Node22 -->
<g id="edge190" class="edge">
<title>Node65&#45;&gt;Node22</title>
<path fill="none" stroke="midnightblue" d="M2107.22,-634.96C2373.29,-613.15 3199.19,-540.21 3294,-468 3386.71,-397.39 3446.72,-325.8 3390,-224 3343.96,-141.36 3296.29,-148.45 3209,-112 3149.2,-87.03 3128.05,-92.34 3065.11,-77.21"/>
<polygon fill="midnightblue" stroke="midnightblue" points="3065.62,-73.73 3055.07,-74.72 3063.93,-80.53 3065.62,-73.73"/>
</g>
<!-- Node65&#45;&gt;Node24 -->
<g id="edge192" class="edge">
<title>Node65&#45;&gt;Node24</title>
<path fill="none" stroke="midnightblue" d="M1942.98,-641.22C1646.26,-639.89 629.24,-632.33 307,-591 168.14,-573.19 0,-660.5 0,-520.5 0,-520.5 0,-520.5 0,-233 0,-126.12 390.22,-81.1 508.45,-69.92"/>
<polygon fill="midnightblue" stroke="midnightblue" points="509.08,-73.37 518.71,-68.97 508.43,-66.4 509.08,-73.37"/>
</g>
<!-- Node65&#45;&gt;Node37 -->
<g id="edge193" class="edge">
<title>Node65&#45;&gt;Node37</title>
<path fill="none" stroke="midnightblue" d="M2104.55,-632.99C2161.38,-625.51 2239.11,-612.4 2305,-591 2642.47,-481.39 2708.27,-405.9 3024,-244 3070.37,-220.22 3095.78,-229.72 3127,-188 3136.83,-174.86 3140.06,-156.26 3140.99,-142.33"/>
<polygon fill="midnightblue" stroke="midnightblue" points="3144.5,-142.04 3141.32,-131.94 3137.5,-141.82 3144.5,-142.04"/>
</g>
<!-- Node65&#45;&gt;Node17 -->
<g id="edge191" class="edge">
<title>Node65&#45;&gt;Node17</title>
<path fill="none" stroke="midnightblue" d="M1942.8,-640.67C1576.64,-636.44 112,-613.68 112,-520.5 112,-520.5 112,-520.5 112,-457 112,-373.65 109.11,-332.31 174,-280 224.73,-239.11 400.71,-254.63 465,-244 567.84,-226.99 688.25,-199.95 745.1,-186.76"/>
<polygon fill="midnightblue" stroke="midnightblue" points="746.01,-190.14 754.95,-184.46 744.42,-183.32 746.01,-190.14"/>
</g>
<!-- Node65&#45;&gt;Node46 -->
<g id="edge174" class="edge">
<title>Node65&#45;&gt;Node46</title>
<path fill="none" stroke="midnightblue" d="M1984.02,-632.98C1932.84,-622.33 1845.27,-604.11 1789.86,-592.58"/>
<polygon fill="midnightblue" stroke="midnightblue" points="1790.4,-589.12 1779.9,-590.51 1788.98,-595.97 1790.4,-589.12"/>
</g>
<!-- Node65&#45;&gt;Node48 -->
<g id="edge175" class="edge">
<title>Node65&#45;&gt;Node48</title>
<path fill="none" stroke="midnightblue" d="M2051.67,-632.86C2076.57,-624.18 2114.26,-609.47 2144,-591 2166.62,-576.96 2189.34,-556.84 2205.11,-541.69"/>
<polygon fill="midnightblue" stroke="midnightblue" points="2207.55,-544.19 2212.26,-534.7 2202.66,-539.18 2207.55,-544.19"/>
</g>
<!-- Node65&#45;&gt;Node49 -->
<g id="edge173" class="edge">
<title>Node65&#45;&gt;Node49</title>
<path fill="none" stroke="midnightblue" d="M2040.95,-632.88C2070.32,-615.69 2130,-574.18 2130,-520.5 2130,-520.5 2130,-520.5 2130,-457 2130,-396.74 2067.47,-413.05 2011,-392 1940.26,-365.64 1916.21,-381.08 1845,-356 1826.25,-349.4 1823.22,-343.94 1805,-336 1776.68,-323.65 1743.77,-311.46 1719.59,-302.88"/>
<polygon fill="midnightblue" stroke="midnightblue" points="1720.72,-299.57 1710.13,-299.56 1718.4,-306.18 1720.72,-299.57"/>
</g>
<!-- Node65&#45;&gt;Node50 -->
<g id="edge176" class="edge">
<title>Node65&#45;&gt;Node50</title>
<path fill="none" stroke="midnightblue" d="M1942.77,-640.6C1847.62,-637.83 1698.75,-627.56 1658,-591 1625.71,-562.03 1622.77,-506.71 1623.68,-477.74"/>
<polygon fill="midnightblue" stroke="midnightblue" points="1627.18,-477.89 1624.19,-467.72 1620.19,-477.53 1627.18,-477.89"/>
</g>
<!-- Node66 -->
<g id="node48" class="node">
<title>Node66</title>
<g id="a_node48"><a xlink:href="FileOutputBuffer_8h.html" target="_top" xlink:title=" ">
<polygon fill="none" stroke="black" points="1906,-510 1906,-529 2060,-529 2060,-510 1906,-510"/>
<text text-anchor="middle" x="1983" y="-517" font-family="Helvetica" font-size="10.00">llvm/Support/FileOutputBuffer.h</text>
</a>
</g>
</g>
<!-- Node65&#45;&gt;Node66 -->
<g id="edge177" class="edge">
<title>Node65&#45;&gt;Node66</title>
<path fill="none" stroke="midnightblue" d="M2021.98,-632.8C2015.17,-613.18 1998.49,-565.14 1989.32,-538.69"/>
<polygon fill="midnightblue" stroke="midnightblue" points="1992.58,-537.42 1985.99,-529.12 1985.97,-539.72 1992.58,-537.42"/>
</g>
<!-- Node67 -->
<g id="node49" class="node">
<title>Node67</title>
<g id="a_node49"><a xlink:href="MemoryBuffer_8h.html" target="_top" xlink:title=" ">
<polygon fill="none" stroke="red" points="1550.5,-392.5 1550.5,-411.5 1695.5,-411.5 1695.5,-392.5 1550.5,-392.5"/>
<text text-anchor="middle" x="1623" y="-399.5" font-family="Helvetica" font-size="10.00">llvm/Support/MemoryBuffer.h</text>
</a>
</g>
</g>
<!-- Node65&#45;&gt;Node67 -->
<g id="edge181" class="edge">
<title>Node65&#45;&gt;Node67</title>
<path fill="none" stroke="midnightblue" d="M2010.22,-632.73C1949.63,-596.78 1720.05,-460.58 1646.1,-416.71"/>
<polygon fill="midnightblue" stroke="midnightblue" points="1647.88,-413.69 1637.49,-411.6 1644.31,-419.71 1647.88,-413.69"/>
</g>
<!-- Node66&#45;&gt;Node5 -->
<g id="edge179" class="edge">
<title>Node66&#45;&gt;Node5</title>
<path fill="none" stroke="midnightblue" d="M1976.94,-509.85C1960.76,-487.38 1914.26,-426.48 1862,-392 1823.96,-366.91 1807,-375.9 1766,-356 1750.57,-348.51 1748.64,-343.05 1733,-336 1682.6,-313.28 1290.76,-232.53 1258,-188 1209.88,-122.61 1337.05,-90.36 1424.75,-76.31"/>
<polygon fill="midnightblue" stroke="midnightblue" points="1425.35,-79.76 1434.7,-74.76 1424.28,-72.84 1425.35,-79.76"/>
</g>
<!-- Node66&#45;&gt;Node49 -->
<g id="edge178" class="edge">
<title>Node66&#45;&gt;Node49</title>
<path fill="none" stroke="midnightblue" d="M1987.18,-509.93C1997.39,-487.63 2020.72,-427.11 1992,-392 1940.9,-329.53 1890.28,-382.39 1814,-356 1774.91,-342.47 1732.65,-319.4 1707.52,-304.69"/>
<polygon fill="midnightblue" stroke="midnightblue" points="1709.16,-301.59 1698.77,-299.5 1705.59,-307.61 1709.16,-301.59"/>
</g>
<!-- Node66&#45;&gt;Node50 -->
<g id="edge180" class="edge">
<title>Node66&#45;&gt;Node50</title>
<path fill="none" stroke="midnightblue" d="M1931.71,-509.98C1866.84,-499.19 1755.29,-480.65 1686.09,-469.15"/>
<polygon fill="midnightblue" stroke="midnightblue" points="1686.64,-465.7 1676.2,-467.51 1685.49,-472.6 1686.64,-465.7"/>
</g>
<!-- Node67&#45;&gt;Node3 -->
<g id="edge183" class="edge">
<title>Node67&#45;&gt;Node3</title>
<path fill="none" stroke="midnightblue" d="M1695.87,-392.98C1698.96,-392.64 1702.01,-392.32 1705,-392 1860.5,-375.47 1904.24,-397.55 2055,-356 2075.32,-350.4 2077.91,-342.39 2098,-336 2158.82,-316.67 2230.86,-304.73 2281.4,-298.05"/>
<polygon fill="midnightblue" stroke="midnightblue" points="2282.06,-301.49 2291.53,-296.74 2281.16,-294.55 2282.06,-301.49"/>
</g>
<!-- Node67&#45;&gt;Node16 -->
<g id="edge187" class="edge">
<title>Node67&#45;&gt;Node16</title>
<path fill="none" stroke="midnightblue" d="M1552.67,-392.5C1470.38,-382.23 1342.66,-365.21 1322,-356 1237.79,-318.49 1242.28,-269.32 1162,-224 1132.3,-207.23 1095.25,-195.04 1068.67,-187.61"/>
<polygon fill="midnightblue" stroke="midnightblue" points="1069.25,-184.14 1058.68,-184.9 1067.41,-190.89 1069.25,-184.14"/>
</g>
<!-- Node67&#45;&gt;Node37 -->
<g id="edge189" class="edge">
<title>Node67&#45;&gt;Node37</title>
<path fill="none" stroke="midnightblue" d="M1695.87,-392.94C1698.95,-392.62 1702.01,-392.3 1705,-392 1875.98,-374.62 1918.98,-372.91 2090,-356 2460.43,-319.37 2560.54,-340.69 2920,-244 2992.75,-224.43 3016.85,-229.09 3080,-188 3099.76,-175.14 3117.61,-154.56 3128.82,-140.01"/>
<polygon fill="midnightblue" stroke="midnightblue" points="3131.73,-141.96 3134.9,-131.85 3126.12,-137.77 3131.73,-141.96"/>
</g>
<!-- Node67&#45;&gt;Node17 -->
<g id="edge188" class="edge">
<title>Node67&#45;&gt;Node17</title>
<path fill="none" stroke="midnightblue" d="M1550.14,-392.78C1547.06,-392.5 1544,-392.24 1541,-392 1462.48,-385.7 900.77,-396.14 833,-356 782.7,-326.21 779.94,-300.25 764,-244 759.58,-228.4 764.22,-210.35 769.32,-197.24"/>
<polygon fill="midnightblue" stroke="midnightblue" points="772.59,-198.49 773.33,-187.92 766.16,-195.72 772.59,-198.49"/>
</g>
<!-- Node67&#45;&gt;Node49 -->
<g id="edge184" class="edge">
<title>Node67&#45;&gt;Node49</title>
<path fill="none" stroke="midnightblue" d="M1612.29,-392.36C1597.93,-379.68 1575.59,-355.44 1588,-336 1598.2,-320.03 1615.69,-309.64 1633.04,-302.92"/>
<polygon fill="midnightblue" stroke="midnightblue" points="1634.34,-306.17 1642.61,-299.55 1632.02,-299.56 1634.34,-306.17"/>
</g>
<!-- Node67&#45;&gt;Node55 -->
<g id="edge185" class="edge">
<title>Node67&#45;&gt;Node55</title>
<path fill="none" stroke="midnightblue" d="M1631.92,-392.08C1639.78,-384.22 1651.43,-372.57 1660.92,-363.08"/>
<polygon fill="midnightblue" stroke="midnightblue" points="1663.65,-365.3 1668.25,-355.75 1658.7,-360.35 1663.65,-365.3"/>
</g>
<!-- Node67&#45;&gt;Node58 -->
<g id="edge186" class="edge">
<title>Node67&#45;&gt;Node58</title>
<path fill="none" stroke="midnightblue" d="M1550.14,-392.76C1547.06,-392.49 1544,-392.23 1541,-392 1195.46,-365.08 1108.1,-374.52 762,-356 735.79,-354.6 706.99,-352.88 681.81,-351.33"/>
<polygon fill="midnightblue" stroke="midnightblue" points="681.82,-347.83 671.62,-350.7 681.39,-354.81 681.82,-347.83"/>
</g>
<!-- Node68 -->
<g id="node50" class="node">
<title>Node68</title>
<g id="a_node50"><a xlink:href="Types_8h.html" target="_top" xlink:title=" ">
<polygon fill="none" stroke="red" points="842,-336.5 842,-355.5 922,-355.5 922,-336.5 842,-336.5"/>
<text text-anchor="middle" x="882" y="-343.5" font-family="Helvetica" font-size="10.00">llvm&#45;c/Types.h</text>
</a>
</g>
</g>
<!-- Node67&#45;&gt;Node68 -->
<g id="edge182" class="edge">
<title>Node67&#45;&gt;Node68</title>
<path fill="none" stroke="midnightblue" d="M1550.14,-392.81C1547.05,-392.53 1544,-392.25 1541,-392 1272.59,-369.3 1203.67,-386.18 936,-356 934.72,-355.86 933.43,-355.7 932.13,-355.54"/>
<polygon fill="midnightblue" stroke="midnightblue" points="932.42,-352.05 922.04,-354.16 931.47,-358.98 932.42,-352.05"/>
</g>
</g>
</svg>
