<?xml version="1.0" encoding="UTF-8" standalone="no"?>
<!DOCTYPE svg PUBLIC "-//W3C//DTD SVG 1.1//EN"
 "http://www.w3.org/Graphics/SVG/1.1/DTD/svg11.dtd">
<!-- Generated by graphviz version 2.44.0 (0)
 -->
<!-- Title: lib/Target/Hexagon/BitTracker.h Pages: 1 -->
<svg width="415pt" height="173pt"
 viewBox="0.00 0.00 414.50 173.00" xmlns="http://www.w3.org/2000/svg" xmlns:xlink="http://www.w3.org/1999/xlink">
<g id="graph0" class="graph" transform="scale(1 1) rotate(0) translate(4 169)">
<title>lib/Target/Hexagon/BitTracker.h</title>
<!-- Node1 -->
<g id="node1" class="node">
<title>Node1</title>
<g id="a_node1"><a xlink:title=" ">
<polygon fill="#bfbfbf" stroke="black" points="118,-134.5 118,-164.5 216,-164.5 216,-134.5 118,-134.5"/>
<text text-anchor="start" x="126" y="-152.5" font-family="Helvetica" font-size="10.00">lib/Target/Hexagon</text>
<text text-anchor="middle" x="167" y="-141.5" font-family="Helvetica" font-size="10.00">/BitTracker.h</text>
</a>
</g>
</g>
<!-- Node2 -->
<g id="node2" class="node">
<title>Node2</title>
<g id="a_node2"><a xlink:href="BitTracker_8cpp.html" target="_top" xlink:title=" ">
<polygon fill="none" stroke="black" points="0,-67.5 0,-97.5 98,-97.5 98,-67.5 0,-67.5"/>
<text text-anchor="start" x="8" y="-85.5" font-family="Helvetica" font-size="10.00">lib/Target/Hexagon</text>
<text text-anchor="middle" x="49" y="-74.5" font-family="Helvetica" font-size="10.00">/BitTracker.cpp</text>
</a>
</g>
</g>
<!-- Node1&#45;&gt;Node2 -->
<g id="edge1" class="edge">
<title>Node1&#45;&gt;Node2</title>
<path fill="none" stroke="midnightblue" d="M132.39,-129.44C113.88,-119.24 91.48,-106.9 74.55,-97.58"/>
<polygon fill="midnightblue" stroke="midnightblue" points="130.95,-132.64 141.4,-134.4 134.33,-126.51 130.95,-132.64"/>
</g>
<!-- Node3 -->
<g id="node3" class="node">
<title>Node3</title>
<g id="a_node3"><a xlink:href="HexagonBitSimplify_8cpp.html" target="_top" xlink:title=" ">
<polygon fill="none" stroke="black" points="7.5,-0.5 7.5,-30.5 130.5,-30.5 130.5,-0.5 7.5,-0.5"/>
<text text-anchor="start" x="15.5" y="-18.5" font-family="Helvetica" font-size="10.00">lib/Target/Hexagon</text>
<text text-anchor="middle" x="69" y="-7.5" font-family="Helvetica" font-size="10.00">/HexagonBitSimplify.cpp</text>
</a>
</g>
</g>
<!-- Node1&#45;&gt;Node3 -->
<g id="edge2" class="edge">
<title>Node1&#45;&gt;Node3</title>
<path fill="none" stroke="midnightblue" d="M150.49,-125.94C138.47,-109.55 121.78,-86.86 107,-67 97.83,-54.68 87.32,-40.73 79.69,-30.62"/>
<polygon fill="midnightblue" stroke="midnightblue" points="147.91,-128.34 156.64,-134.33 153.55,-124.2 147.91,-128.34"/>
</g>
<!-- Node4 -->
<g id="node4" class="node">
<title>Node4</title>
<g id="a_node4"><a xlink:href="HexagonBitTracker_8h.html" target="_top" xlink:title=" ">
<polygon fill="none" stroke="black" points="154,-67.5 154,-97.5 264,-97.5 264,-67.5 154,-67.5"/>
<text text-anchor="start" x="162" y="-85.5" font-family="Helvetica" font-size="10.00">lib/Target/Hexagon</text>
<text text-anchor="middle" x="209" y="-74.5" font-family="Helvetica" font-size="10.00">/HexagonBitTracker.h</text>
</a>
</g>
</g>
<!-- Node1&#45;&gt;Node4 -->
<g id="edge3" class="edge">
<title>Node1&#45;&gt;Node4</title>
<path fill="none" stroke="midnightblue" d="M181.62,-125.87C187.7,-116.46 194.57,-105.83 199.9,-97.58"/>
<polygon fill="midnightblue" stroke="midnightblue" points="178.6,-124.1 176.11,-134.4 184.48,-127.9 178.6,-124.1"/>
</g>
<!-- Node6 -->
<g id="node6" class="node">
<title>Node6</title>
<g id="a_node6"><a xlink:href="HexagonGenInsert_8cpp.html" target="_top" xlink:title=" ">
<polygon fill="none" stroke="black" points="287.5,-0.5 287.5,-30.5 406.5,-30.5 406.5,-0.5 287.5,-0.5"/>
<text text-anchor="start" x="295.5" y="-18.5" font-family="Helvetica" font-size="10.00">lib/Target/Hexagon</text>
<text text-anchor="middle" x="347" y="-7.5" font-family="Helvetica" font-size="10.00">/HexagonGenInsert.cpp</text>
</a>
</g>
</g>
<!-- Node1&#45;&gt;Node6 -->
<g id="edge7" class="edge">
<title>Node1&#45;&gt;Node6</title>
<path fill="none" stroke="midnightblue" d="M214.94,-130.4C233.96,-122.04 255.43,-111.05 273,-98 299.38,-78.39 323.72,-48.34 336.85,-30.73"/>
<polygon fill="midnightblue" stroke="midnightblue" points="213.37,-127.26 205.55,-134.41 216.12,-133.7 213.37,-127.26"/>
</g>
<!-- Node4&#45;&gt;Node3 -->
<g id="edge4" class="edge">
<title>Node4&#45;&gt;Node3</title>
<path fill="none" stroke="midnightblue" d="M169.43,-63.13C147.19,-52.8 119.85,-40.11 99.32,-30.58"/>
<polygon fill="midnightblue" stroke="midnightblue" points="168.08,-66.36 178.62,-67.4 171.03,-60.01 168.08,-66.36"/>
</g>
<!-- Node5 -->
<g id="node5" class="node">
<title>Node5</title>
<g id="a_node5"><a xlink:href="HexagonBitTracker_8cpp.html" target="_top" xlink:title=" ">
<polygon fill="none" stroke="black" points="149,-0.5 149,-30.5 269,-30.5 269,-0.5 149,-0.5"/>
<text text-anchor="start" x="157" y="-18.5" font-family="Helvetica" font-size="10.00">lib/Target/Hexagon</text>
<text text-anchor="middle" x="209" y="-7.5" font-family="Helvetica" font-size="10.00">/HexagonBitTracker.cpp</text>
</a>
</g>
</g>
<!-- Node4&#45;&gt;Node5 -->
<g id="edge5" class="edge">
<title>Node4&#45;&gt;Node5</title>
<path fill="none" stroke="midnightblue" d="M209,-57.11C209,-48.15 209,-38.32 209,-30.58"/>
<polygon fill="midnightblue" stroke="midnightblue" points="205.5,-57.4 209,-67.4 212.5,-57.4 205.5,-57.4"/>
</g>
<!-- Node4&#45;&gt;Node6 -->
<g id="edge6" class="edge">
<title>Node4&#45;&gt;Node6</title>
<path fill="none" stroke="midnightblue" d="M248,-63.13C269.93,-52.8 296.87,-40.11 317.11,-30.58"/>
<polygon fill="midnightblue" stroke="midnightblue" points="246.5,-59.97 238.94,-67.4 249.48,-66.3 246.5,-59.97"/>
</g>
</g>
</svg>
