<?xml version="1.0" encoding="UTF-8" standalone="no"?>
<!DOCTYPE svg PUBLIC "-//W3C//DTD SVG 1.1//EN"
 "http://www.w3.org/Graphics/SVG/1.1/DTD/svg11.dtd">
<!-- Generated by graphviz version 2.44.0 (0)
 -->
<!-- Title: lib/Target/BPF/BPFCORE.h Pages: 1 -->
<svg width="941pt" height="95pt"
 viewBox="0.00 0.00 940.50 95.00" xmlns="http://www.w3.org/2000/svg" xmlns:xlink="http://www.w3.org/1999/xlink">
<g id="graph0" class="graph" transform="scale(1 1) rotate(0) translate(4 91)">
<title>lib/Target/BPF/BPFCORE.h</title>
<!-- Node1 -->
<g id="node1" class="node">
<title>Node1</title>
<g id="a_node1"><a xlink:title=" ">
<polygon fill="#bfbfbf" stroke="black" points="386.5,-67.5 386.5,-86.5 523.5,-86.5 523.5,-67.5 386.5,-67.5"/>
<text text-anchor="middle" x="455" y="-74.5" font-family="Helvetica" font-size="10.00">lib/Target/BPF/BPFCORE.h</text>
</a>
</g>
</g>
<!-- Node2 -->
<g id="node2" class="node">
<title>Node2</title>
<g id="a_node2"><a xlink:href="BPFAbstractMemberAccess_8cpp.html" target="_top" xlink:title=" ">
<polygon fill="none" stroke="black" points="0,-0.5 0,-30.5 136,-30.5 136,-0.5 0,-0.5"/>
<text text-anchor="start" x="8" y="-18.5" font-family="Helvetica" font-size="10.00">lib/Target/BPF/BPFAbstract</text>
<text text-anchor="middle" x="68" y="-7.5" font-family="Helvetica" font-size="10.00">MemberAccess.cpp</text>
</a>
</g>
</g>
<!-- Node1&#45;&gt;Node2 -->
<g id="edge1" class="edge">
<title>Node1&#45;&gt;Node2</title>
<path fill="none" stroke="midnightblue" d="M380.54,-66.08C317.66,-57.5 225.29,-44.38 145,-31 142.18,-30.53 139.31,-30.04 136.41,-29.54"/>
<polygon fill="midnightblue" stroke="midnightblue" points="380.38,-69.59 390.76,-67.48 381.32,-62.66 380.38,-69.59"/>
</g>
<!-- Node3 -->
<g id="node3" class="node">
<title>Node3</title>
<g id="a_node3"><a xlink:href="BPFAdjustOpt_8cpp.html" target="_top" xlink:title=" ">
<polygon fill="none" stroke="black" points="154.5,-0.5 154.5,-30.5 281.5,-30.5 281.5,-0.5 154.5,-0.5"/>
<text text-anchor="start" x="162.5" y="-18.5" font-family="Helvetica" font-size="10.00">lib/Target/BPF/BPFAdjust</text>
<text text-anchor="middle" x="218" y="-7.5" font-family="Helvetica" font-size="10.00">Opt.cpp</text>
</a>
</g>
</g>
<!-- Node1&#45;&gt;Node3 -->
<g id="edge2" class="edge">
<title>Node1&#45;&gt;Node3</title>
<path fill="none" stroke="midnightblue" d="M411.12,-64.98C372.41,-55.27 315.79,-41.05 273.86,-30.52"/>
<polygon fill="midnightblue" stroke="midnightblue" points="410.49,-68.43 421.04,-67.48 412.2,-61.65 410.49,-68.43"/>
</g>
<!-- Node4 -->
<g id="node4" class="node">
<title>Node4</title>
<g id="a_node4"><a xlink:href="BPFCheckAndAdjustIR_8cpp.html" target="_top" xlink:title=" ">
<polygon fill="none" stroke="black" points="300,-0.5 300,-30.5 446,-30.5 446,-0.5 300,-0.5"/>
<text text-anchor="start" x="308" y="-18.5" font-family="Helvetica" font-size="10.00">lib/Target/BPF/BPFCheckAnd</text>
<text text-anchor="middle" x="373" y="-7.5" font-family="Helvetica" font-size="10.00">AdjustIR.cpp</text>
</a>
</g>
</g>
<!-- Node1&#45;&gt;Node4 -->
<g id="edge3" class="edge">
<title>Node1&#45;&gt;Node4</title>
<path fill="none" stroke="midnightblue" d="M434.97,-61.47C421.99,-52.05 405.17,-39.84 392.33,-30.52"/>
<polygon fill="midnightblue" stroke="midnightblue" points="433.1,-64.43 443.25,-67.48 437.21,-58.77 433.1,-64.43"/>
</g>
<!-- Node5 -->
<g id="node5" class="node">
<title>Node5</title>
<g id="a_node5"><a xlink:href="BPFMISimplifyPatchable_8cpp.html" target="_top" xlink:title=" ">
<polygon fill="none" stroke="black" points="464,-0.5 464,-30.5 610,-30.5 610,-0.5 464,-0.5"/>
<text text-anchor="start" x="472" y="-18.5" font-family="Helvetica" font-size="10.00">lib/Target/BPF/BPFMISimplify</text>
<text text-anchor="middle" x="537" y="-7.5" font-family="Helvetica" font-size="10.00">Patchable.cpp</text>
</a>
</g>
</g>
<!-- Node1&#45;&gt;Node5 -->
<g id="edge4" class="edge">
<title>Node1&#45;&gt;Node5</title>
<path fill="none" stroke="midnightblue" d="M475.03,-61.47C488.01,-52.05 504.83,-39.84 517.67,-30.52"/>
<polygon fill="midnightblue" stroke="midnightblue" points="472.79,-58.77 466.75,-67.48 476.9,-64.43 472.79,-58.77"/>
</g>
<!-- Node6 -->
<g id="node6" class="node">
<title>Node6</title>
<g id="a_node6"><a xlink:href="BPFPreserveDIType_8cpp.html" target="_top" xlink:title=" ">
<polygon fill="none" stroke="black" points="628.5,-0.5 628.5,-30.5 767.5,-30.5 767.5,-0.5 628.5,-0.5"/>
<text text-anchor="start" x="636.5" y="-18.5" font-family="Helvetica" font-size="10.00">lib/Target/BPF/BPFPreserve</text>
<text text-anchor="middle" x="698" y="-7.5" font-family="Helvetica" font-size="10.00">DIType.cpp</text>
</a>
</g>
</g>
<!-- Node1&#45;&gt;Node6 -->
<g id="edge5" class="edge">
<title>Node1&#45;&gt;Node6</title>
<path fill="none" stroke="midnightblue" d="M499.74,-65.05C539.43,-55.33 597.64,-41.07 640.73,-30.52"/>
<polygon fill="midnightblue" stroke="midnightblue" points="498.7,-61.7 489.82,-67.48 500.36,-68.5 498.7,-61.7"/>
</g>
<!-- Node7 -->
<g id="node7" class="node">
<title>Node7</title>
<g id="a_node7"><a xlink:href="BTFDebug_8cpp.html" target="_top" xlink:title=" ">
<polygon fill="none" stroke="black" points="785.5,-6 785.5,-25 932.5,-25 932.5,-6 785.5,-6"/>
<text text-anchor="middle" x="859" y="-13" font-family="Helvetica" font-size="10.00">lib/Target/BPF/BTFDebug.cpp</text>
</a>
</g>
</g>
<!-- Node1&#45;&gt;Node7 -->
<g id="edge6" class="edge">
<title>Node1&#45;&gt;Node7</title>
<path fill="none" stroke="midnightblue" d="M531.3,-66.13C596.62,-57.49 693.12,-44.27 777,-31 788.42,-29.19 800.72,-27.1 812.22,-25.07"/>
<polygon fill="midnightblue" stroke="midnightblue" points="530.55,-62.7 521.09,-67.47 531.46,-69.64 530.55,-62.7"/>
</g>
</g>
</svg>
