<?xml version="1.0" encoding="UTF-8" standalone="no"?>
<!DOCTYPE svg PUBLIC "-//W3C//DTD SVG 1.1//EN"
 "http://www.w3.org/Graphics/SVG/1.1/DTD/svg11.dtd">
<!-- Generated by graphviz version 2.44.0 (0)
 -->
<!-- Title: lib/Target/BPF/BPFSubtarget.h Pages: 1 -->
<svg width="1881pt" height="229pt"
 viewBox="0.00 0.00 1881.00 229.00" xmlns="http://www.w3.org/2000/svg" xmlns:xlink="http://www.w3.org/1999/xlink">
<g id="graph0" class="graph" transform="scale(1 1) rotate(0) translate(4 225)">
<title>lib/Target/BPF/BPFSubtarget.h</title>
<!-- Node1 -->
<g id="node1" class="node">
<title>Node1</title>
<g id="a_node1"><a xlink:title=" ">
<polygon fill="#bfbfbf" stroke="black" points="615.5,-201.5 615.5,-220.5 764.5,-220.5 764.5,-201.5 615.5,-201.5"/>
<text text-anchor="middle" x="690" y="-208.5" font-family="Helvetica" font-size="10.00">lib/Target/BPF/BPFSubtarget.h</text>
</a>
</g>
</g>
<!-- Node2 -->
<g id="node2" class="node">
<title>Node2</title>
<g id="a_node2"><a xlink:href="BPFFrameLowering_8cpp.html" target="_top" xlink:title=" ">
<polygon fill="none" stroke="black" points="392.5,-140 392.5,-159 577.5,-159 577.5,-140 392.5,-140"/>
<text text-anchor="middle" x="485" y="-147" font-family="Helvetica" font-size="10.00">lib/Target/BPF/BPFFrameLowering.cpp</text>
</a>
</g>
</g>
<!-- Node1&#45;&gt;Node2 -->
<g id="edge1" class="edge">
<title>Node1&#45;&gt;Node2</title>
<path fill="none" stroke="midnightblue" d="M650.98,-198.68C611.15,-187.11 550.22,-169.43 514.32,-159.01"/>
<polygon fill="midnightblue" stroke="midnightblue" points="650.05,-202.05 660.63,-201.48 652,-195.33 650.05,-202.05"/>
</g>
<!-- Node3 -->
<g id="node3" class="node">
<title>Node3</title>
<g id="a_node3"><a xlink:href="BPFISelDAGToDAG_8cpp.html" target="_top" xlink:title=" ">
<polygon fill="none" stroke="black" points="0,-67.5 0,-97.5 148,-97.5 148,-67.5 0,-67.5"/>
<text text-anchor="start" x="8" y="-85.5" font-family="Helvetica" font-size="10.00">lib/Target/BPF/BPFISelDAGTo</text>
<text text-anchor="middle" x="74" y="-74.5" font-family="Helvetica" font-size="10.00">DAG.cpp</text>
</a>
</g>
</g>
<!-- Node1&#45;&gt;Node3 -->
<g id="edge2" class="edge">
<title>Node1&#45;&gt;Node3</title>
<path fill="none" stroke="midnightblue" d="M666.06,-196.11C652.18,-187.69 634.62,-176.41 620,-165 604.14,-152.62 605.38,-142.18 587,-134 499.4,-95 252.1,-110.26 157,-98 154.1,-97.63 151.14,-97.22 148.16,-96.79"/>
<polygon fill="midnightblue" stroke="midnightblue" points="664.61,-199.32 674.99,-201.44 668.2,-193.31 664.61,-199.32"/>
</g>
<!-- Node4 -->
<g id="node4" class="node">
<title>Node4</title>
<g id="a_node4"><a xlink:href="BPFISelLowering_8cpp.html" target="_top" xlink:title=" ">
<polygon fill="none" stroke="black" points="166,-73 166,-92 340,-92 340,-73 166,-73"/>
<text text-anchor="middle" x="253" y="-80" font-family="Helvetica" font-size="10.00">lib/Target/BPF/BPFISelLowering.cpp</text>
</a>
</g>
</g>
<!-- Node1&#45;&gt;Node4 -->
<g id="edge3" class="edge">
<title>Node1&#45;&gt;Node4</title>
<path fill="none" stroke="midnightblue" d="M679.05,-192.2C666.97,-174.28 645.79,-147.4 620,-134 512.19,-77.97 469.3,-115.07 349,-98 335.82,-96.13 321.63,-94.03 308.31,-92.03"/>
<polygon fill="midnightblue" stroke="midnightblue" points="676.43,-194.6 684.79,-201.1 682.31,-190.8 676.43,-194.6"/>
</g>
<!-- Node5 -->
<g id="node5" class="node">
<title>Node5</title>
<g id="a_node5"><a xlink:href="BPFRegisterInfo_8cpp.html" target="_top" xlink:title=" ">
<polygon fill="none" stroke="black" points="818,-134.5 818,-164.5 954,-164.5 954,-134.5 818,-134.5"/>
<text text-anchor="start" x="826" y="-152.5" font-family="Helvetica" font-size="10.00">lib/Target/BPF/BPFRegister</text>
<text text-anchor="middle" x="886" y="-141.5" font-family="Helvetica" font-size="10.00">Info.cpp</text>
</a>
</g>
</g>
<!-- Node1&#45;&gt;Node5 -->
<g id="edge4" class="edge">
<title>Node1&#45;&gt;Node5</title>
<path fill="none" stroke="midnightblue" d="M727.94,-198.48C759.89,-188.78 805.72,-174.87 839.81,-164.52"/>
<polygon fill="midnightblue" stroke="midnightblue" points="726.63,-195.22 718.08,-201.48 728.67,-201.92 726.63,-195.22"/>
</g>
<!-- Node6 -->
<g id="node6" class="node">
<title>Node6</title>
<g id="a_node6"><a xlink:href="BPFSubtarget_8cpp.html" target="_top" xlink:title=" ">
<polygon fill="none" stroke="black" points="972,-140 972,-159 1132,-159 1132,-140 972,-140"/>
<text text-anchor="middle" x="1052" y="-147" font-family="Helvetica" font-size="10.00">lib/Target/BPF/BPFSubtarget.cpp</text>
</a>
</g>
</g>
<!-- Node1&#45;&gt;Node6 -->
<g id="edge5" class="edge">
<title>Node1&#45;&gt;Node6</title>
<path fill="none" stroke="midnightblue" d="M751.87,-199.83C821.89,-188.32 934.69,-169.78 1000.23,-159.01"/>
<polygon fill="midnightblue" stroke="midnightblue" points="751.17,-196.4 741.87,-201.48 752.3,-203.31 751.17,-196.4"/>
</g>
<!-- Node7 -->
<g id="node7" class="node">
<title>Node7</title>
<g id="a_node7"><a xlink:href="BPFTargetMachine_8h.html" target="_top" xlink:title=" ">
<polygon fill="none" stroke="black" points="672.5,-134.5 672.5,-164.5 799.5,-164.5 799.5,-134.5 672.5,-134.5"/>
<text text-anchor="start" x="680.5" y="-152.5" font-family="Helvetica" font-size="10.00">lib/Target/BPF/BPFTarget</text>
<text text-anchor="middle" x="736" y="-141.5" font-family="Helvetica" font-size="10.00">Machine.h</text>
</a>
</g>
</g>
<!-- Node1&#45;&gt;Node7 -->
<g id="edge6" class="edge">
<title>Node1&#45;&gt;Node7</title>
<path fill="none" stroke="midnightblue" d="M702.73,-193.53C709.78,-184.42 718.44,-173.21 725.16,-164.52"/>
<polygon fill="midnightblue" stroke="midnightblue" points="699.94,-191.42 696.59,-201.48 705.48,-195.7 699.94,-191.42"/>
</g>
<!-- Node7&#45;&gt;Node3 -->
<g id="edge11" class="edge">
<title>Node7&#45;&gt;Node3</title>
<path fill="none" stroke="midnightblue" d="M662.17,-138.75C648.18,-137.05 633.65,-135.38 620,-134 414.65,-113.19 361.78,-123.79 157,-98 154.1,-97.63 151.14,-97.24 148.16,-96.82"/>
<polygon fill="midnightblue" stroke="midnightblue" points="661.89,-142.24 672.24,-139.99 662.74,-135.29 661.89,-142.24"/>
</g>
<!-- Node7&#45;&gt;Node4 -->
<g id="edge12" class="edge">
<title>Node7&#45;&gt;Node4</title>
<path fill="none" stroke="midnightblue" d="M661.94,-134.61C660.62,-134.4 659.3,-134.2 658,-134 521.29,-113.35 486.04,-116.33 349,-98 335.47,-96.19 320.89,-94.07 307.28,-92.03"/>
<polygon fill="midnightblue" stroke="midnightblue" points="661.78,-138.13 672.21,-136.28 662.9,-131.22 661.78,-138.13"/>
</g>
<!-- Node8 -->
<g id="node8" class="node">
<title>Node8</title>
<g id="a_node8"><a xlink:href="BPFAbstractMemberAccess_8cpp.html" target="_top" xlink:title=" ">
<polygon fill="none" stroke="black" points="864,-67.5 864,-97.5 1000,-97.5 1000,-67.5 864,-67.5"/>
<text text-anchor="start" x="872" y="-85.5" font-family="Helvetica" font-size="10.00">lib/Target/BPF/BPFAbstract</text>
<text text-anchor="middle" x="932" y="-74.5" font-family="Helvetica" font-size="10.00">MemberAccess.cpp</text>
</a>
</g>
</g>
<!-- Node7&#45;&gt;Node8 -->
<g id="edge7" class="edge">
<title>Node7&#45;&gt;Node8</title>
<path fill="none" stroke="midnightblue" d="M788.08,-131.23C819.79,-120.71 859.78,-107.45 889.55,-97.58"/>
<polygon fill="midnightblue" stroke="midnightblue" points="786.92,-127.93 778.53,-134.4 789.12,-134.57 786.92,-127.93"/>
</g>
<!-- Node9 -->
<g id="node9" class="node">
<title>Node9</title>
<g id="a_node9"><a xlink:href="BPFAdjustOpt_8cpp.html" target="_top" xlink:title=" ">
<polygon fill="none" stroke="black" points="1018.5,-67.5 1018.5,-97.5 1145.5,-97.5 1145.5,-67.5 1018.5,-67.5"/>
<text text-anchor="start" x="1026.5" y="-85.5" font-family="Helvetica" font-size="10.00">lib/Target/BPF/BPFAdjust</text>
<text text-anchor="middle" x="1082" y="-74.5" font-family="Helvetica" font-size="10.00">Opt.cpp</text>
</a>
</g>
</g>
<!-- Node7&#45;&gt;Node9 -->
<g id="edge8" class="edge">
<title>Node7&#45;&gt;Node9</title>
<path fill="none" stroke="midnightblue" d="M809.76,-133.88C899.41,-117.01 923.38,-114.21 1009,-98 1012.05,-97.42 1015.16,-96.83 1018.31,-96.22"/>
<polygon fill="midnightblue" stroke="midnightblue" points="808.87,-130.49 799.69,-135.78 810.16,-137.36 808.87,-130.49"/>
</g>
<!-- Node10 -->
<g id="node10" class="node">
<title>Node10</title>
<g id="a_node10"><a xlink:href="BPFAsmPrinter_8cpp.html" target="_top" xlink:title=" ">
<polygon fill="none" stroke="black" points="1163.5,-73 1163.5,-92 1330.5,-92 1330.5,-73 1163.5,-73"/>
<text text-anchor="middle" x="1247" y="-80" font-family="Helvetica" font-size="10.00">lib/Target/BPF/BPFAsmPrinter.cpp</text>
</a>
</g>
</g>
<!-- Node7&#45;&gt;Node10 -->
<g id="edge9" class="edge">
<title>Node7&#45;&gt;Node10</title>
<path fill="none" stroke="midnightblue" d="M809.93,-133.96C963.64,-111.21 1004.99,-117.61 1155,-98 1168.31,-96.26 1182.66,-94.12 1195.97,-92.03"/>
<polygon fill="midnightblue" stroke="midnightblue" points="809.01,-130.56 799.64,-135.5 810.05,-137.48 809.01,-130.56"/>
</g>
<!-- Node11 -->
<g id="node11" class="node">
<title>Node11</title>
<g id="a_node11"><a xlink:href="BPFCheckAndAdjustIR_8cpp.html" target="_top" xlink:title=" ">
<polygon fill="none" stroke="black" points="1349,-67.5 1349,-97.5 1495,-97.5 1495,-67.5 1349,-67.5"/>
<text text-anchor="start" x="1357" y="-85.5" font-family="Helvetica" font-size="10.00">lib/Target/BPF/BPFCheckAnd</text>
<text text-anchor="middle" x="1422" y="-74.5" font-family="Helvetica" font-size="10.00">AdjustIR.cpp</text>
</a>
</g>
</g>
<!-- Node7&#45;&gt;Node11 -->
<g id="edge10" class="edge">
<title>Node7&#45;&gt;Node11</title>
<path fill="none" stroke="midnightblue" d="M809.87,-134.02C1045.27,-103.56 1108.52,-126.23 1340,-98 1342.87,-97.65 1345.79,-97.27 1348.74,-96.86"/>
<polygon fill="midnightblue" stroke="midnightblue" points="809.08,-130.59 799.62,-135.36 809.99,-137.53 809.08,-130.59"/>
</g>
<!-- Node12 -->
<g id="node12" class="node">
<title>Node12</title>
<g id="a_node12"><a xlink:href="BPFMIChecking_8cpp.html" target="_top" xlink:title=" ">
<polygon fill="none" stroke="black" points="1513.5,-73 1513.5,-92 1684.5,-92 1684.5,-73 1513.5,-73"/>
<text text-anchor="middle" x="1599" y="-80" font-family="Helvetica" font-size="10.00">lib/Target/BPF/BPFMIChecking.cpp</text>
</a>
</g>
</g>
<!-- Node7&#45;&gt;Node12 -->
<g id="edge13" class="edge">
<title>Node7&#45;&gt;Node12</title>
<path fill="none" stroke="midnightblue" d="M809.73,-134.05C1117.68,-96.49 1199.6,-129.04 1504,-98 1518.77,-96.49 1534.76,-94.28 1549.32,-92.04"/>
<polygon fill="midnightblue" stroke="midnightblue" points="809.11,-130.6 799.61,-135.3 809.97,-137.55 809.11,-130.6"/>
</g>
<!-- Node13 -->
<g id="node13" class="node">
<title>Node13</title>
<g id="a_node13"><a xlink:href="BPFMIPeephole_8cpp.html" target="_top" xlink:title=" ">
<polygon fill="none" stroke="black" points="1703,-73 1703,-92 1873,-92 1873,-73 1703,-73"/>
<text text-anchor="middle" x="1788" y="-80" font-family="Helvetica" font-size="10.00">lib/Target/BPF/BPFMIPeephole.cpp</text>
</a>
</g>
</g>
<!-- Node7&#45;&gt;Node13 -->
<g id="edge14" class="edge">
<title>Node7&#45;&gt;Node13</title>
<path fill="none" stroke="midnightblue" d="M809.8,-134.06C1201.67,-88.34 1305.53,-135.74 1694,-98 1708.79,-96.56 1724.8,-94.34 1739.34,-92.07"/>
<polygon fill="midnightblue" stroke="midnightblue" points="809.13,-130.61 799.61,-135.26 809.95,-137.56 809.13,-130.61"/>
</g>
<!-- Node14 -->
<g id="node14" class="node">
<title>Node14</title>
<g id="a_node14"><a xlink:href="BPFMISimplifyPatchable_8cpp.html" target="_top" xlink:title=" ">
<polygon fill="none" stroke="black" points="358,-67.5 358,-97.5 504,-97.5 504,-67.5 358,-67.5"/>
<text text-anchor="start" x="366" y="-85.5" font-family="Helvetica" font-size="10.00">lib/Target/BPF/BPFMISimplify</text>
<text text-anchor="middle" x="431" y="-74.5" font-family="Helvetica" font-size="10.00">Patchable.cpp</text>
</a>
</g>
</g>
<!-- Node7&#45;&gt;Node14 -->
<g id="edge15" class="edge">
<title>Node7&#45;&gt;Node14</title>
<path fill="none" stroke="midnightblue" d="M662.56,-132.85C612.08,-122.09 545.62,-107.93 496.86,-97.53"/>
<polygon fill="midnightblue" stroke="midnightblue" points="661.92,-136.29 672.43,-134.95 663.38,-129.45 661.92,-136.29"/>
</g>
<!-- Node15 -->
<g id="node15" class="node">
<title>Node15</title>
<g id="a_node15"><a xlink:href="BPFSelectionDAGInfo_8cpp.html" target="_top" xlink:title=" ">
<polygon fill="none" stroke="black" points="522,-67.5 522,-97.5 662,-97.5 662,-67.5 522,-67.5"/>
<text text-anchor="start" x="530" y="-85.5" font-family="Helvetica" font-size="10.00">lib/Target/BPF/BPFSelection</text>
<text text-anchor="middle" x="592" y="-74.5" font-family="Helvetica" font-size="10.00">DAGInfo.cpp</text>
</a>
</g>
</g>
<!-- Node7&#45;&gt;Node15 -->
<g id="edge16" class="edge">
<title>Node7&#45;&gt;Node15</title>
<path fill="none" stroke="midnightblue" d="M695.61,-130.27C672.68,-119.92 644.4,-107.15 623.18,-97.58"/>
<polygon fill="midnightblue" stroke="midnightblue" points="694.2,-133.47 704.75,-134.4 697.08,-127.09 694.2,-133.47"/>
</g>
<!-- Node16 -->
<g id="node16" class="node">
<title>Node16</title>
<g id="a_node16"><a xlink:href="BPFTargetMachine_8cpp.html" target="_top" xlink:title=" ">
<polygon fill="none" stroke="black" points="672.5,-0.5 672.5,-30.5 799.5,-30.5 799.5,-0.5 672.5,-0.5"/>
<text text-anchor="start" x="680.5" y="-18.5" font-family="Helvetica" font-size="10.00">lib/Target/BPF/BPFTarget</text>
<text text-anchor="middle" x="736" y="-7.5" font-family="Helvetica" font-size="10.00">Machine.cpp</text>
</a>
</g>
</g>
<!-- Node7&#45;&gt;Node16 -->
<g id="edge17" class="edge">
<title>Node7&#45;&gt;Node16</title>
<path fill="none" stroke="midnightblue" d="M721.23,-125.47C716.69,-117.15 712.29,-107.47 710,-98 706.76,-84.61 706.76,-80.39 710,-67 713.16,-53.97 720.3,-40.53 726.3,-30.79"/>
<polygon fill="midnightblue" stroke="midnightblue" points="718.25,-127.32 726.3,-134.21 724.3,-123.8 718.25,-127.32"/>
</g>
<!-- Node17 -->
<g id="node17" class="node">
<title>Node17</title>
<g id="a_node17"><a xlink:href="BPFTargetTransformInfo_8h.html" target="_top" xlink:title=" ">
<polygon fill="none" stroke="black" points="718.5,-67.5 718.5,-97.5 845.5,-97.5 845.5,-67.5 718.5,-67.5"/>
<text text-anchor="start" x="726.5" y="-85.5" font-family="Helvetica" font-size="10.00">lib/Target/BPF/BPFTarget</text>
<text text-anchor="middle" x="782" y="-74.5" font-family="Helvetica" font-size="10.00">TransformInfo.h</text>
</a>
</g>
</g>
<!-- Node7&#45;&gt;Node17 -->
<g id="edge18" class="edge">
<title>Node7&#45;&gt;Node17</title>
<path fill="none" stroke="midnightblue" d="M751.81,-126.16C758.52,-116.68 766.13,-105.92 772.04,-97.58"/>
<polygon fill="midnightblue" stroke="midnightblue" points="748.9,-124.21 745.98,-134.4 754.62,-128.26 748.9,-124.21"/>
</g>
<!-- Node17&#45;&gt;Node16 -->
<g id="edge19" class="edge">
<title>Node17&#45;&gt;Node16</title>
<path fill="none" stroke="midnightblue" d="M766.19,-59.16C759.48,-49.68 751.87,-38.92 745.96,-30.58"/>
<polygon fill="midnightblue" stroke="midnightblue" points="763.38,-61.26 772.02,-67.4 769.1,-57.21 763.38,-61.26"/>
</g>
</g>
</svg>
