<?xml version="1.0" encoding="UTF-8" standalone="no"?>
<!DOCTYPE svg PUBLIC "-//W3C//DTD SVG 1.1//EN"
 "http://www.w3.org/Graphics/SVG/1.1/DTD/svg11.dtd">
<!-- Generated by graphviz version 2.44.0 (0)
 -->
<!-- Title: llvm::ErrorList Pages: 1 -->
<svg width="206pt" height="230pt"
 viewBox="0.00 0.00 206.00 230.00" xmlns="http://www.w3.org/2000/svg" xmlns:xlink="http://www.w3.org/1999/xlink">
<g id="graph0" class="graph" transform="scale(1 1) rotate(0) translate(4 226)">
<title>llvm::ErrorList</title>
<!-- Node1 -->
<g id="node1" class="node">
<title>Node1</title>
<g id="a_node1"><a xlink:title="Special ErrorInfo subclass representing a list of ErrorInfos.">
<polygon fill="#bfbfbf" stroke="black" points="79,-0.5 79,-19.5 156,-19.5 156,-0.5 79,-0.5"/>
<text text-anchor="middle" x="117.5" y="-7.5" font-family="Helvetica" font-size="10.00">llvm::ErrorList</text>
</a>
</g>
</g>
<!-- Node2 -->
<g id="node2" class="node">
<title>Node2</title>
<g id="a_node2"><a xlink:href="classllvm_1_1ErrorInfo.html" target="_top" xlink:title=" ">
<polygon fill="none" stroke="black" points="0,-67.5 0,-86.5 133,-86.5 133,-67.5 0,-67.5"/>
<text text-anchor="middle" x="66.5" y="-74.5" font-family="Helvetica" font-size="10.00">llvm::ErrorInfo&lt; ErrorList &gt;</text>
</a>
</g>
</g>
<!-- Node2&#45;&gt;Node1 -->
<g id="edge1" class="edge">
<title>Node2&#45;&gt;Node1</title>
<path fill="none" stroke="midnightblue" d="M79.63,-59.27C89.57,-46.6 102.83,-29.7 110.73,-19.63"/>
<polygon fill="midnightblue" stroke="midnightblue" points="76.8,-57.21 73.38,-67.23 82.3,-61.53 76.8,-57.21"/>
</g>
<!-- Node3 -->
<g id="node3" class="node">
<title>Node3</title>
<g id="a_node3"><a xlink:href="classllvm_1_1ErrorInfoBase.html" target="_top" xlink:title="Base class for error info classes.">
<polygon fill="none" stroke="black" points="12,-202.5 12,-221.5 113,-221.5 113,-202.5 12,-202.5"/>
<text text-anchor="middle" x="62.5" y="-209.5" font-family="Helvetica" font-size="10.00">llvm::ErrorInfoBase</text>
</a>
</g>
</g>
<!-- Node3&#45;&gt;Node2 -->
<g id="edge2" class="edge">
<title>Node3&#45;&gt;Node2</title>
<path fill="none" stroke="midnightblue" d="M63.07,-192.13C63.95,-162.88 65.6,-107.76 66.24,-86.59"/>
<polygon fill="midnightblue" stroke="midnightblue" points="59.56,-192.17 62.76,-202.27 66.56,-192.38 59.56,-192.17"/>
</g>
<!-- Node4 -->
<g id="node4" class="node">
<title>Node4</title>
<g id="a_node4"><a xlink:href="classllvm_1_1ErrorInfo.html" target="_top" xlink:title="Base class for user error types.">
<polygon fill="none" stroke="black" points="79,-134.5 79,-164.5 198,-164.5 198,-134.5 79,-134.5"/>
<text text-anchor="start" x="87" y="-152.5" font-family="Helvetica" font-size="10.00">llvm::ErrorInfo&lt; ThisErr</text>
<text text-anchor="middle" x="138.5" y="-141.5" font-family="Helvetica" font-size="10.00">T, ParentErrT &gt;</text>
</a>
</g>
</g>
<!-- Node3&#45;&gt;Node4 -->
<g id="edge4" class="edge">
<title>Node3&#45;&gt;Node4</title>
<path fill="none" stroke="midnightblue" d="M81.47,-195.9C93.54,-186.29 109.08,-173.92 120.88,-164.53"/>
<polygon fill="midnightblue" stroke="midnightblue" points="79.03,-193.37 73.39,-202.33 83.39,-198.84 79.03,-193.37"/>
</g>
<!-- Node4&#45;&gt;Node2 -->
<g id="edge3" class="edge">
<title>Node4&#45;&gt;Node2</title>
<path fill="none" stroke="orange" stroke-dasharray="5,2" d="M116.68,-127.14C102.91,-113.65 85.84,-96.94 75.58,-86.89"/>
<polygon fill="orange" stroke="orange" points="114.34,-129.74 123.93,-134.23 119.23,-124.74 114.34,-129.74"/>
<text text-anchor="middle" x="134.5" y="-108" font-family="Helvetica" font-size="10.00"> &lt; ErrorList &gt;</text>
</g>
<!-- Node5 -->
<g id="node5" class="node">
<title>Node5</title>
<g id="a_node5"><a xlink:title=" ">
<polygon fill="none" stroke="#bfbfbf" points="151,-67.5 151,-86.5 186,-86.5 186,-67.5 151,-67.5"/>
<text text-anchor="middle" x="168.5" y="-74.5" font-family="Helvetica" font-size="10.00">char</text>
</a>
</g>
</g>
<!-- Node5&#45;&gt;Node1 -->
<g id="edge5" class="edge">
<title>Node5&#45;&gt;Node1</title>
<path fill="none" stroke="#9a32cd" stroke-dasharray="5,2" d="M155.37,-59.27C145.43,-46.6 132.17,-29.7 124.27,-19.63"/>
<polygon fill="#9a32cd" stroke="#9a32cd" points="152.7,-61.53 161.62,-67.23 158.2,-57.21 152.7,-61.53"/>
<text text-anchor="middle" x="152.5" y="-41" font-family="Helvetica" font-size="10.00"> ID</text>
</g>
</g>
</svg>
