<?xml version="1.0" encoding="UTF-8" standalone="no"?>
<!DOCTYPE svg PUBLIC "-//W3C//DTD SVG 1.1//EN"
 "http://www.w3.org/Graphics/SVG/1.1/DTD/svg11.dtd">
<!-- Generated by graphviz version 2.44.0 (0)
 -->
<!-- Title: llvm::NotFoundError Pages: 1 -->
<svg width="205pt" height="241pt"
 viewBox="0.00 0.00 204.50 241.00" xmlns="http://www.w3.org/2000/svg" xmlns:xlink="http://www.w3.org/1999/xlink">
<g id="graph0" class="graph" transform="scale(1 1) rotate(0) translate(4 237)">
<title>llvm::NotFoundError</title>
<!-- Node1 -->
<g id="node1" class="node">
<title>Node1</title>
<g id="a_node1"><a xlink:title=" ">
<polygon fill="#bfbfbf" stroke="black" points="63,-0.5 63,-19.5 167,-19.5 167,-0.5 63,-0.5"/>
<text text-anchor="middle" x="115" y="-7.5" font-family="Helvetica" font-size="10.00">llvm::NotFoundError</text>
</a>
</g>
</g>
<!-- Node2 -->
<g id="node2" class="node">
<title>Node2</title>
<g id="a_node2"><a xlink:href="classllvm_1_1ErrorInfo.html" target="_top" xlink:title=" ">
<polygon fill="none" stroke="black" points="0,-67.5 0,-97.5 130,-97.5 130,-67.5 0,-67.5"/>
<text text-anchor="start" x="8" y="-85.5" font-family="Helvetica" font-size="10.00">llvm::ErrorInfo&lt; NotFound</text>
<text text-anchor="middle" x="65" y="-74.5" font-family="Helvetica" font-size="10.00">Error &gt;</text>
</a>
</g>
</g>
<!-- Node2&#45;&gt;Node1 -->
<g id="edge1" class="edge">
<title>Node2&#45;&gt;Node1</title>
<path fill="none" stroke="midnightblue" d="M80.95,-59.01C90.37,-45.73 101.76,-29.66 108.69,-19.89"/>
<polygon fill="midnightblue" stroke="midnightblue" points="78.05,-57.05 75.12,-67.23 83.76,-61.1 78.05,-57.05"/>
</g>
<!-- Node3 -->
<g id="node3" class="node">
<title>Node3</title>
<g id="a_node3"><a xlink:href="classllvm_1_1ErrorInfoBase.html" target="_top" xlink:title="Base class for error info classes.">
<polygon fill="none" stroke="black" points="10.5,-213.5 10.5,-232.5 111.5,-232.5 111.5,-213.5 10.5,-213.5"/>
<text text-anchor="middle" x="61" y="-220.5" font-family="Helvetica" font-size="10.00">llvm::ErrorInfoBase</text>
</a>
</g>
</g>
<!-- Node3&#45;&gt;Node2 -->
<g id="edge2" class="edge">
<title>Node3&#45;&gt;Node2</title>
<path fill="none" stroke="midnightblue" d="M61.54,-203.25C62.35,-175.19 63.86,-122.88 64.59,-97.73"/>
<polygon fill="midnightblue" stroke="midnightblue" points="58.04,-203.24 61.25,-213.34 65.04,-203.44 58.04,-203.24"/>
</g>
<!-- Node4 -->
<g id="node4" class="node">
<title>Node4</title>
<g id="a_node4"><a xlink:href="classllvm_1_1ErrorInfo.html" target="_top" xlink:title="Base class for user error types.">
<polygon fill="none" stroke="black" points="77.5,-145.5 77.5,-175.5 196.5,-175.5 196.5,-145.5 77.5,-145.5"/>
<text text-anchor="start" x="85.5" y="-163.5" font-family="Helvetica" font-size="10.00">llvm::ErrorInfo&lt; ThisErr</text>
<text text-anchor="middle" x="137" y="-152.5" font-family="Helvetica" font-size="10.00">T, ParentErrT &gt;</text>
</a>
</g>
</g>
<!-- Node3&#45;&gt;Node4 -->
<g id="edge4" class="edge">
<title>Node3&#45;&gt;Node4</title>
<path fill="none" stroke="midnightblue" d="M79.97,-206.9C92.04,-197.29 107.58,-184.92 119.38,-175.53"/>
<polygon fill="midnightblue" stroke="midnightblue" points="77.53,-204.37 71.89,-213.33 81.89,-209.84 77.53,-204.37"/>
</g>
<!-- Node4&#45;&gt;Node2 -->
<g id="edge3" class="edge">
<title>Node4&#45;&gt;Node2</title>
<path fill="none" stroke="orange" stroke-dasharray="5,2" d="M116.32,-137.67C104.16,-124.83 89.13,-108.97 78.48,-97.73"/>
<polygon fill="orange" stroke="orange" points="114.04,-140.35 123.46,-145.2 119.12,-135.54 114.04,-140.35"/>
<text text-anchor="middle" x="148.5" y="-119" font-family="Helvetica" font-size="10.00"> &lt; NotFoundError &gt;</text>
</g>
<!-- Node5 -->
<g id="node5" class="node">
<title>Node5</title>
<g id="a_node5"><a xlink:title=" ">
<polygon fill="none" stroke="#bfbfbf" points="148.5,-73 148.5,-92 183.5,-92 183.5,-73 148.5,-73"/>
<text text-anchor="middle" x="166" y="-80" font-family="Helvetica" font-size="10.00">char</text>
</a>
</g>
</g>
<!-- Node5&#45;&gt;Node1 -->
<g id="edge5" class="edge">
<title>Node5&#45;&gt;Node1</title>
<path fill="none" stroke="#9a32cd" stroke-dasharray="5,2" d="M153.7,-64.5C143.48,-50.37 129.36,-30.85 121.3,-19.72"/>
<polygon fill="#9a32cd" stroke="#9a32cd" points="151.05,-66.8 159.75,-72.86 156.72,-62.7 151.05,-66.8"/>
<text text-anchor="middle" x="149" y="-41" font-family="Helvetica" font-size="10.00"> ID</text>
</g>
</g>
</svg>
