<?xml version="1.0" encoding="UTF-8" standalone="no"?>
<!DOCTYPE svg PUBLIC "-//W3C//DTD SVG 1.1//EN"
 "http://www.w3.org/Graphics/SVG/1.1/DTD/svg11.dtd">
<!-- Generated by graphviz version 2.44.0 (0)
 -->
<!-- Title: llvm::StackSafetyGlobalAnalysis Pages: 1 -->
<svg width="267pt" height="242pt"
 viewBox="0.00 0.00 266.50 242.00" xmlns="http://www.w3.org/2000/svg" xmlns:xlink="http://www.w3.org/1999/xlink">
<g id="graph0" class="graph" transform="scale(1 1) rotate(0) translate(4 238)">
<title>llvm::StackSafetyGlobalAnalysis</title>
<!-- Node1 -->
<g id="node1" class="node">
<title>Node1</title>
<g id="a_node1"><a xlink:title="This pass performs the global (interprocedural) stack safety analysis (new pass manager).">
<polygon fill="#bfbfbf" stroke="black" points="0,-0.5 0,-19.5 159,-19.5 159,-0.5 0,-0.5"/>
<text text-anchor="middle" x="79.5" y="-7.5" font-family="Helvetica" font-size="10.00">llvm::StackSafetyGlobalAnalysis</text>
</a>
</g>
</g>
<!-- Node2 -->
<g id="node2" class="node">
<title>Node2</title>
<g id="a_node2"><a xlink:href="structllvm_1_1AnalysisInfoMixin.html" target="_top" xlink:title=" ">
<polygon fill="none" stroke="black" points="3,-57.5 3,-87.5 156,-87.5 156,-57.5 3,-57.5"/>
<text text-anchor="start" x="11" y="-75.5" font-family="Helvetica" font-size="10.00">llvm::AnalysisInfoMixin</text>
<text text-anchor="middle" x="79.5" y="-64.5" font-family="Helvetica" font-size="10.00">&lt; StackSafetyGlobalAnalysis &gt;</text>
</a>
</g>
</g>
<!-- Node2&#45;&gt;Node1 -->
<g id="edge1" class="edge">
<title>Node2&#45;&gt;Node1</title>
<path fill="none" stroke="midnightblue" d="M79.5,-47.35C79.5,-37.51 79.5,-26.78 79.5,-19.54"/>
<polygon fill="midnightblue" stroke="midnightblue" points="76,-47.47 79.5,-57.47 83,-47.47 76,-47.47"/>
</g>
<!-- Node3 -->
<g id="node3" class="node">
<title>Node3</title>
<g id="a_node3"><a xlink:href="structllvm_1_1PassInfoMixin.html" target="_top" xlink:title="A CRTP mix&#45;in to automatically provide informational APIs needed for passes.">
<polygon fill="none" stroke="black" points="24,-203.5 24,-233.5 127,-233.5 127,-203.5 24,-203.5"/>
<text text-anchor="start" x="32" y="-221.5" font-family="Helvetica" font-size="10.00">llvm::PassInfoMixin</text>
<text text-anchor="middle" x="75.5" y="-210.5" font-family="Helvetica" font-size="10.00">&lt; DerivedT &gt;</text>
</a>
</g>
</g>
<!-- Node3&#45;&gt;Node2 -->
<g id="edge2" class="edge">
<title>Node3&#45;&gt;Node2</title>
<path fill="none" stroke="midnightblue" d="M76.17,-193.32C77.01,-163.14 78.42,-112.49 79.1,-87.84"/>
<polygon fill="midnightblue" stroke="midnightblue" points="72.67,-193.34 75.89,-203.43 79.67,-193.53 72.67,-193.34"/>
</g>
<!-- Node4 -->
<g id="node4" class="node">
<title>Node4</title>
<g id="a_node4"><a xlink:href="structllvm_1_1AnalysisInfoMixin.html" target="_top" xlink:title="A CRTP mix&#45;in that provides informational APIs needed for analysis passes.">
<polygon fill="none" stroke="black" points="92,-135.5 92,-165.5 209,-165.5 209,-135.5 92,-135.5"/>
<text text-anchor="start" x="100" y="-153.5" font-family="Helvetica" font-size="10.00">llvm::AnalysisInfoMixin</text>
<text text-anchor="middle" x="150.5" y="-142.5" font-family="Helvetica" font-size="10.00">&lt; DerivedT &gt;</text>
</a>
</g>
</g>
<!-- Node3&#45;&gt;Node4 -->
<g id="edge4" class="edge">
<title>Node3&#45;&gt;Node4</title>
<path fill="none" stroke="midnightblue" d="M99.34,-196.52C110.82,-186.41 124.28,-174.57 134.52,-165.57"/>
<polygon fill="midnightblue" stroke="midnightblue" points="96.97,-193.95 91.77,-203.18 101.59,-199.2 96.97,-193.95"/>
</g>
<!-- Node4&#45;&gt;Node2 -->
<g id="edge3" class="edge">
<title>Node4&#45;&gt;Node2</title>
<path fill="none" stroke="orange" stroke-dasharray="5,2" d="M130.11,-127.67C118.11,-114.83 103.29,-98.97 92.79,-87.73"/>
<polygon fill="orange" stroke="orange" points="127.76,-130.29 137.15,-135.2 132.88,-125.51 127.76,-130.29"/>
<text text-anchor="middle" x="188.5" y="-109" font-family="Helvetica" font-size="10.00"> &lt; StackSafetyGlobalAnalysis &gt;</text>
</g>
</g>
</svg>
