<?xml version="1.0" encoding="UTF-8" standalone="no"?>
<!DOCTYPE svg PUBLIC "-//W3C//DTD SVG 1.1//EN"
 "http://www.w3.org/Graphics/SVG/1.1/DTD/svg11.dtd">
<!-- Generated by graphviz version 2.44.0 (0)
 -->
<!-- Title: llvm::orc::orcrpctpc::ReleaseMem Pages: 1 -->
<svg width="252pt" height="218pt"
 viewBox="0.00 0.00 251.50 218.00" xmlns="http://www.w3.org/2000/svg" xmlns:xlink="http://www.w3.org/1999/xlink">
<g id="graph0" class="graph" transform="scale(1 1) rotate(0) translate(4 214)">
<title>llvm::orc::orcrpctpc::ReleaseMem</title>
<!-- Node1 -->
<g id="node1" class="node">
<title>Node1</title>
<g id="a_node1"><a xlink:title=" ">
<polygon fill="#bfbfbf" stroke="black" points="44,-0.5 44,-30.5 145,-30.5 145,-0.5 44,-0.5"/>
<text text-anchor="start" x="52" y="-18.5" font-family="Helvetica" font-size="10.00">llvm::orc::orcrpctpc</text>
<text text-anchor="middle" x="94.5" y="-7.5" font-family="Helvetica" font-size="10.00">::ReleaseMem</text>
</a>
</g>
</g>
<!-- Node2 -->
<g id="node2" class="node">
<title>Node2</title>
<g id="a_node2"><a xlink:href="classllvm_1_1orc_1_1shared_1_1RPCFunction.html" target="_top" xlink:title=" ">
<polygon fill="none" stroke="black" points="0,-68.5 0,-109.5 189,-109.5 189,-68.5 0,-68.5"/>
<text text-anchor="start" x="8" y="-97.5" font-family="Helvetica" font-size="10.00">llvm::orc::shared::</text>
<text text-anchor="start" x="8" y="-86.5" font-family="Helvetica" font-size="10.00">RPCFunction&lt; ReleaseMem,</text>
<text text-anchor="middle" x="94.5" y="-75.5" font-family="Helvetica" font-size="10.00"> Error(ReleaseOrFinalizeMemRequest)&gt;</text>
</a>
</g>
</g>
<!-- Node2&#45;&gt;Node1 -->
<g id="edge1" class="edge">
<title>Node2&#45;&gt;Node1</title>
<path fill="none" stroke="midnightblue" d="M94.5,-58.16C94.5,-48.69 94.5,-38.65 94.5,-30.8"/>
<polygon fill="midnightblue" stroke="midnightblue" points="91,-58.46 94.5,-68.46 98,-58.46 91,-58.46"/>
</g>
<!-- Node3 -->
<g id="node3" class="node">
<title>Node3</title>
<g id="a_node3"><a xlink:href="classllvm_1_1orc_1_1shared_1_1RPCFunction.html" target="_top" xlink:title=" ">
<polygon fill="none" stroke="black" points="23.5,-168.5 23.5,-209.5 165.5,-209.5 165.5,-168.5 23.5,-168.5"/>
<text text-anchor="start" x="31.5" y="-197.5" font-family="Helvetica" font-size="10.00">llvm::orc::shared::</text>
<text text-anchor="start" x="31.5" y="-186.5" font-family="Helvetica" font-size="10.00">RPCFunction&lt; DerivedFunc,</text>
<text text-anchor="middle" x="94.5" y="-175.5" font-family="Helvetica" font-size="10.00"> FnT &gt;</text>
</a>
</g>
</g>
<!-- Node3&#45;&gt;Node2 -->
<g id="edge2" class="edge">
<title>Node3&#45;&gt;Node2</title>
<path fill="none" stroke="orange" stroke-dasharray="5,2" d="M94.5,-157.92C94.5,-142.29 94.5,-123.61 94.5,-109.8"/>
<polygon fill="orange" stroke="orange" points="91,-158.17 94.5,-168.17 98,-158.17 91,-158.17"/>
<text text-anchor="start" x="94.5" y="-142" font-family="Helvetica" font-size="10.00"> &lt; ReleaseMem, Error</text>
<text text-anchor="middle" x="169" y="-131" font-family="Helvetica" font-size="10.00">(ReleaseOrFinalizeMemRequest)&gt;</text>
</g>
</g>
</svg>
