<?xml version="1.0" encoding="UTF-8" standalone="no"?>
<!DOCTYPE svg PUBLIC "-//W3C//DTD SVG 1.1//EN"
 "http://www.w3.org/Graphics/SVG/1.1/DTD/svg11.dtd">
<!-- Generated by graphviz version 2.44.0 (0)
 -->
<!-- Title: llvm::User Pages: 1 -->
<svg width="146pt" height="240pt"
 viewBox="0.00 0.00 145.50 240.00" xmlns="http://www.w3.org/2000/svg" xmlns:xlink="http://www.w3.org/1999/xlink">
<g id="graph0" class="graph" transform="scale(1 1) rotate(0) translate(4 236)">
<title>llvm::User</title>
<!-- Node1 -->
<g id="node1" class="node">
<title>Node1</title>
<g id="a_node1"><a xlink:title=" ">
<polygon fill="#bfbfbf" stroke="black" points="1.5,-0.5 1.5,-19.5 63.5,-19.5 63.5,-0.5 1.5,-0.5"/>
<text text-anchor="middle" x="32.5" y="-7.5" font-family="Helvetica" font-size="10.00">llvm::User</text>
</a>
</g>
</g>
<!-- Node2 -->
<g id="node2" class="node">
<title>Node2</title>
<g id="a_node2"><a xlink:href="classllvm_1_1Value.html" target="_top" xlink:title="LLVM Value Representation.">
<polygon fill="none" stroke="black" points="0,-57.5 0,-76.5 65,-76.5 65,-57.5 0,-57.5"/>
<text text-anchor="middle" x="32.5" y="-64.5" font-family="Helvetica" font-size="10.00">llvm::Value</text>
</a>
</g>
</g>
<!-- Node2&#45;&gt;Node1 -->
<g id="edge1" class="edge">
<title>Node2&#45;&gt;Node1</title>
<path fill="none" stroke="midnightblue" d="M32.5,-47.12C32.5,-37.82 32.5,-27.06 32.5,-19.71"/>
<polygon fill="midnightblue" stroke="midnightblue" points="29,-47.41 32.5,-57.41 36,-47.41 29,-47.41"/>
</g>
<!-- Node3 -->
<g id="node3" class="node">
<title>Node3</title>
<g id="a_node3"><a xlink:href="classunsigned.html" target="_top" xlink:title=" ">
<polygon fill="none" stroke="black" points="4.5,-212.5 4.5,-231.5 60.5,-231.5 60.5,-212.5 4.5,-212.5"/>
<text text-anchor="middle" x="32.5" y="-219.5" font-family="Helvetica" font-size="10.00">unsigned</text>
</a>
</g>
</g>
<!-- Node3&#45;&gt;Node2 -->
<g id="edge2" class="edge">
<title>Node3&#45;&gt;Node2</title>
<path fill="none" stroke="#9a32cd" stroke-dasharray="5,2" d="M32.5,-202.11C32.5,-168.72 32.5,-100.54 32.5,-76.57"/>
<polygon fill="#9a32cd" stroke="#9a32cd" points="29,-202.34 32.5,-212.34 36,-202.34 29,-202.34"/>
<text text-anchor="middle" x="85" y="-186" font-family="Helvetica" font-size="10.00"> HasDescriptor</text>
<text text-anchor="middle" x="85" y="-175" font-family="Helvetica" font-size="10.00">HasHungOffUses</text>
<text text-anchor="middle" x="85" y="-164" font-family="Helvetica" font-size="10.00">HasMetadata</text>
<text text-anchor="middle" x="85" y="-153" font-family="Helvetica" font-size="10.00">HasName</text>
<text text-anchor="middle" x="85" y="-142" font-family="Helvetica" font-size="10.00">IsUsedByMD</text>
<text text-anchor="middle" x="85" y="-131" font-family="Helvetica" font-size="10.00">MaxAlignmentExponent</text>
<text text-anchor="middle" x="85" y="-120" font-family="Helvetica" font-size="10.00">MaximumAlignment</text>
<text text-anchor="middle" x="85" y="-109" font-family="Helvetica" font-size="10.00">NumUserOperands</text>
<text text-anchor="middle" x="85" y="-98" font-family="Helvetica" font-size="10.00">SubclassOptionalData</text>
</g>
</g>
</svg>
