<?xml version="1.0" encoding="UTF-8" standalone="no"?>
<!DOCTYPE svg PUBLIC "-//W3C//DTD SVG 1.1//EN"
 "http://www.w3.org/Graphics/SVG/1.1/DTD/svg11.dtd">
<!-- Generated by graphviz version 2.44.0 (0)
 -->
<!-- Title: SpecialSubstitution Pages: 1 -->
<svg width="154pt" height="184pt"
 viewBox="0.00 0.00 154.00 184.00" xmlns="http://www.w3.org/2000/svg" xmlns:xlink="http://www.w3.org/1999/xlink">
<g id="graph0" class="graph" transform="scale(1 1) rotate(0) translate(4 180)">
<title>SpecialSubstitution</title>
<!-- Node1 -->
<g id="node1" class="node">
<title>Node1</title>
<g id="a_node1"><a xlink:title=" ">
<polygon fill="#bfbfbf" stroke="black" points="31.5,-0.5 31.5,-19.5 132.5,-19.5 132.5,-0.5 31.5,-0.5"/>
<text text-anchor="middle" x="82" y="-7.5" font-family="Helvetica" font-size="10.00">SpecialSubstitution</text>
</a>
</g>
</g>
<!-- Node2 -->
<g id="node2" class="node">
<title>Node2</title>
<g id="a_node2"><a xlink:href="classNode.html" target="_top" xlink:title=" ">
<polygon fill="none" stroke="black" points="2,-67.5 2,-86.5 42,-86.5 42,-67.5 2,-67.5"/>
<text text-anchor="middle" x="22" y="-74.5" font-family="Helvetica" font-size="10.00">Node</text>
</a>
</g>
</g>
<!-- Node2&#45;&gt;Node1 -->
<g id="edge1" class="edge">
<title>Node2&#45;&gt;Node1</title>
<path fill="none" stroke="midnightblue" d="M37.11,-59.63C48.84,-46.92 64.65,-29.8 74.04,-19.63"/>
<polygon fill="midnightblue" stroke="midnightblue" points="34.3,-57.51 30.09,-67.23 39.45,-62.26 34.3,-57.51"/>
</g>
<!-- Node3 -->
<g id="node3" class="node">
<title>Node3</title>
<g id="a_node3"><a xlink:title=" ">
<polygon fill="none" stroke="#bfbfbf" points="0,-156.5 0,-175.5 44,-175.5 44,-156.5 0,-156.5"/>
<text text-anchor="middle" x="22" y="-163.5" font-family="Helvetica" font-size="10.00">Cache</text>
</a>
</g>
</g>
<!-- Node3&#45;&gt;Node2 -->
<g id="edge2" class="edge">
<title>Node3&#45;&gt;Node2</title>
<path fill="none" stroke="#9a32cd" stroke-dasharray="5,2" d="M22,-146.19C22,-127.74 22,-100.41 22,-86.62"/>
<polygon fill="#9a32cd" stroke="#9a32cd" points="18.5,-146.34 22,-156.34 25.5,-146.34 18.5,-146.34"/>
<text text-anchor="middle" x="72" y="-130" font-family="Helvetica" font-size="10.00"> ArrayCache</text>
<text text-anchor="middle" x="72" y="-119" font-family="Helvetica" font-size="10.00">FunctionCache</text>
<text text-anchor="middle" x="72" y="-108" font-family="Helvetica" font-size="10.00">RHSComponentCache</text>
</g>
<!-- Node4 -->
<g id="node4" class="node">
<title>Node4</title>
<g id="a_node4"><a xlink:title=" ">
<polygon fill="none" stroke="#bfbfbf" points="60,-67.5 60,-86.5 146,-86.5 146,-67.5 60,-67.5"/>
<text text-anchor="middle" x="103" y="-74.5" font-family="Helvetica" font-size="10.00">SpecialSubKind</text>
</a>
</g>
</g>
<!-- Node4&#45;&gt;Node1 -->
<g id="edge3" class="edge">
<title>Node4&#45;&gt;Node1</title>
<path fill="none" stroke="#9a32cd" stroke-dasharray="5,2" d="M97,-57.41C92.98,-44.99 87.89,-29.22 84.79,-19.63"/>
<polygon fill="#9a32cd" stroke="#9a32cd" points="93.76,-58.79 100.17,-67.23 100.42,-56.64 93.76,-58.79"/>
<text text-anchor="middle" x="105" y="-41" font-family="Helvetica" font-size="10.00"> SSK</text>
</g>
</g>
</svg>
