<?xml version="1.0" encoding="UTF-8" standalone="no"?>
<!DOCTYPE svg PUBLIC "-//W3C//DTD SVG 1.1//EN"
 "http://www.w3.org/Graphics/SVG/1.1/DTD/svg11.dtd">
<!-- Generated by graphviz version 2.44.0 (0)
 -->
<!-- Title: llvm::jitlink::JITLinker&lt; LinkerImpl &gt; Pages: 1 -->
<svg width="765pt" height="137pt"
 viewBox="0.00 0.00 765.00 137.00" xmlns="http://www.w3.org/2000/svg" xmlns:xlink="http://www.w3.org/1999/xlink">
<g id="graph0" class="graph" transform="scale(1 1) rotate(0) translate(4 133)">
<title>llvm::jitlink::JITLinker&lt; LinkerImpl &gt;</title>
<!-- Node1 -->
<g id="node1" class="node">
<title>Node1</title>
<g id="a_node1"><a xlink:title=" ">
<polygon fill="#bfbfbf" stroke="black" points="167,-49.5 167,-79.5 274,-79.5 274,-49.5 167,-49.5"/>
<text text-anchor="start" x="175" y="-67.5" font-family="Helvetica" font-size="10.00">llvm::jitlink::JITLinker</text>
<text text-anchor="middle" x="220.5" y="-56.5" font-family="Helvetica" font-size="10.00">&lt; LinkerImpl &gt;</text>
</a>
</g>
</g>
<!-- Node3 -->
<g id="node3" class="node">
<title>Node3</title>
<g id="a_node3"><a xlink:href="classllvm_1_1jitlink_1_1JITLinker.html" target="_top" xlink:title=" ">
<polygon fill="none" stroke="black" points="441.5,-98.5 441.5,-128.5 578.5,-128.5 578.5,-98.5 441.5,-98.5"/>
<text text-anchor="start" x="449.5" y="-116.5" font-family="Helvetica" font-size="10.00">llvm::jitlink::JITLinker</text>
<text text-anchor="middle" x="510" y="-105.5" font-family="Helvetica" font-size="10.00">&lt; MachOJITLinker_arm64 &gt;</text>
</a>
</g>
</g>
<!-- Node1&#45;&gt;Node3 -->
<g id="edge2" class="edge">
<title>Node1&#45;&gt;Node3</title>
<path fill="none" stroke="orange" stroke-dasharray="5,2" d="M284.01,-77.99C286.71,-78.51 289.38,-79.02 292,-79.5 341.87,-88.71 398.5,-97.52 441.39,-103.87"/>
<polygon fill="orange" stroke="orange" points="284.67,-74.55 274.18,-76.03 283.31,-81.41 284.67,-74.55"/>
<text text-anchor="middle" x="356.5" y="-103.5" font-family="Helvetica" font-size="10.00"> &lt; MachOJITLinker_arm64 &gt;</text>
</g>
<!-- Node5 -->
<g id="node5" class="node">
<title>Node5</title>
<g id="a_node5"><a xlink:href="classllvm_1_1jitlink_1_1JITLinker.html" target="_top" xlink:title=" ">
<polygon fill="none" stroke="black" points="446,-49.5 446,-79.5 574,-79.5 574,-49.5 446,-49.5"/>
<text text-anchor="start" x="454" y="-67.5" font-family="Helvetica" font-size="10.00">llvm::jitlink::JITLinker</text>
<text text-anchor="middle" x="510" y="-56.5" font-family="Helvetica" font-size="10.00">&lt; ELFJITLinker_x86_64 &gt;</text>
</a>
</g>
</g>
<!-- Node1&#45;&gt;Node5 -->
<g id="edge4" class="edge">
<title>Node1&#45;&gt;Node5</title>
<path fill="none" stroke="orange" stroke-dasharray="5,2" d="M284.47,-64.5C332.34,-64.5 397.9,-64.5 445.82,-64.5"/>
<polygon fill="orange" stroke="orange" points="284.23,-61 274.23,-64.5 284.23,-68 284.23,-61"/>
<text text-anchor="middle" x="356.5" y="-67.5" font-family="Helvetica" font-size="10.00"> &lt; ELFJITLinker_x86_64 &gt;</text>
</g>
<!-- Node7 -->
<g id="node7" class="node">
<title>Node7</title>
<g id="a_node7"><a xlink:href="classllvm_1_1jitlink_1_1JITLinker.html" target="_top" xlink:title=" ">
<polygon fill="none" stroke="black" points="439,-0.5 439,-30.5 581,-30.5 581,-0.5 439,-0.5"/>
<text text-anchor="start" x="447" y="-18.5" font-family="Helvetica" font-size="10.00">llvm::jitlink::JITLinker</text>
<text text-anchor="middle" x="510" y="-7.5" font-family="Helvetica" font-size="10.00">&lt; MachOJITLinker_x86_64 &gt;</text>
</a>
</g>
</g>
<!-- Node1&#45;&gt;Node7 -->
<g id="edge6" class="edge">
<title>Node1&#45;&gt;Node7</title>
<path fill="none" stroke="orange" stroke-dasharray="5,2" d="M284.01,-51.01C286.71,-50.49 289.38,-49.98 292,-49.5 340.94,-40.47 396.37,-31.81 438.96,-25.49"/>
<polygon fill="orange" stroke="orange" points="283.31,-47.59 274.18,-52.97 284.67,-54.45 283.31,-47.59"/>
<text text-anchor="middle" x="356.5" y="-52.5" font-family="Helvetica" font-size="10.00"> &lt; MachOJITLinker_x86_64 &gt;</text>
</g>
<!-- Node2 -->
<g id="node2" class="node">
<title>Node2</title>
<g id="a_node2"><a xlink:href="classllvm_1_1jitlink_1_1JITLinkerBase.html" target="_top" xlink:title="Base class for a JIT linker.">
<polygon fill="none" stroke="black" points="0,-55 0,-74 130,-74 130,-55 0,-55"/>
<text text-anchor="middle" x="65" y="-62" font-family="Helvetica" font-size="10.00">llvm::jitlink::JITLinkerBase</text>
</a>
</g>
</g>
<!-- Node2&#45;&gt;Node1 -->
<g id="edge1" class="edge">
<title>Node2&#45;&gt;Node1</title>
<path fill="none" stroke="midnightblue" d="M140.25,-64.5C149.19,-64.5 158.17,-64.5 166.71,-64.5"/>
<polygon fill="midnightblue" stroke="midnightblue" points="140.21,-61 130.21,-64.5 140.21,-68 140.21,-61"/>
</g>
<!-- Node4 -->
<g id="node4" class="node">
<title>Node4</title>
<g id="a_node4"><a xlink:href="classllvm_1_1jitlink_1_1MachOJITLinker__arm64.html" target="_top" xlink:title=" ">
<polygon fill="none" stroke="black" points="618,-98.5 618,-128.5 757,-128.5 757,-98.5 618,-98.5"/>
<text text-anchor="start" x="626" y="-116.5" font-family="Helvetica" font-size="10.00">llvm::jitlink::MachOJITLinker</text>
<text text-anchor="middle" x="687.5" y="-105.5" font-family="Helvetica" font-size="10.00">_arm64</text>
</a>
</g>
</g>
<!-- Node3&#45;&gt;Node4 -->
<g id="edge3" class="edge">
<title>Node3&#45;&gt;Node4</title>
<path fill="none" stroke="midnightblue" d="M588.64,-113.5C598.34,-113.5 608.22,-113.5 617.77,-113.5"/>
<polygon fill="midnightblue" stroke="midnightblue" points="588.6,-110 578.6,-113.5 588.6,-117 588.6,-110"/>
</g>
<!-- Node6 -->
<g id="node6" class="node">
<title>Node6</title>
<g id="a_node6"><a xlink:href="classllvm_1_1jitlink_1_1ELFJITLinker__x86__64.html" target="_top" xlink:title=" ">
<polygon fill="none" stroke="black" points="625,-49.5 625,-79.5 750,-79.5 750,-49.5 625,-49.5"/>
<text text-anchor="start" x="633" y="-67.5" font-family="Helvetica" font-size="10.00">llvm::jitlink::ELFJITLinker</text>
<text text-anchor="middle" x="687.5" y="-56.5" font-family="Helvetica" font-size="10.00">_x86_64</text>
</a>
</g>
</g>
<!-- Node5&#45;&gt;Node6 -->
<g id="edge5" class="edge">
<title>Node5&#45;&gt;Node6</title>
<path fill="none" stroke="midnightblue" d="M584.54,-64.5C598.01,-64.5 611.93,-64.5 625,-64.5"/>
<polygon fill="midnightblue" stroke="midnightblue" points="584.36,-61 574.36,-64.5 584.36,-68 584.36,-61"/>
</g>
<!-- Node8 -->
<g id="node8" class="node">
<title>Node8</title>
<g id="a_node8"><a xlink:href="classllvm_1_1jitlink_1_1MachOJITLinker__x86__64.html" target="_top" xlink:title=" ">
<polygon fill="none" stroke="black" points="618,-0.5 618,-30.5 757,-30.5 757,-0.5 618,-0.5"/>
<text text-anchor="start" x="626" y="-18.5" font-family="Helvetica" font-size="10.00">llvm::jitlink::MachOJITLinker</text>
<text text-anchor="middle" x="687.5" y="-7.5" font-family="Helvetica" font-size="10.00">_x86_64</text>
</a>
</g>
</g>
<!-- Node7&#45;&gt;Node8 -->
<g id="edge7" class="edge">
<title>Node7&#45;&gt;Node8</title>
<path fill="none" stroke="midnightblue" d="M591.15,-15.5C600.09,-15.5 609.14,-15.5 617.92,-15.5"/>
<polygon fill="midnightblue" stroke="midnightblue" points="591.12,-12 581.12,-15.5 591.12,-19 591.12,-12"/>
</g>
</g>
</svg>
