<?xml version="1.0" encoding="UTF-8" standalone="no"?>
<!DOCTYPE svg PUBLIC "-//W3C//DTD SVG 1.1//EN"
 "http://www.w3.org/Graphics/SVG/1.1/DTD/svg11.dtd">
<!-- Generated by graphviz version 2.44.0 (0)
 -->
<!-- Title: llvm::DerivedUser Pages: 1 -->
<svg width="281pt" height="308pt"
 viewBox="0.00 0.00 281.00 308.00" xmlns="http://www.w3.org/2000/svg" xmlns:xlink="http://www.w3.org/1999/xlink">
<g id="graph0" class="graph" transform="scale(1 1) rotate(0) translate(4 304)">
<title>llvm::DerivedUser</title>
<!-- Node1 -->
<g id="node1" class="node">
<title>Node1</title>
<g id="a_node1"><a xlink:title="Extension point for the Value hierarchy.">
<polygon fill="#bfbfbf" stroke="black" points="60,-168.5 60,-187.5 155,-187.5 155,-168.5 60,-168.5"/>
<text text-anchor="middle" x="107.5" y="-175.5" font-family="Helvetica" font-size="10.00">llvm::DerivedUser</text>
</a>
</g>
</g>
<!-- Node4 -->
<g id="node4" class="node">
<title>Node4</title>
<g id="a_node4"><a xlink:href="classllvm_1_1MemoryAccess.html" target="_top" xlink:title=" ">
<polygon fill="none" stroke="black" points="52.5,-112.5 52.5,-131.5 162.5,-131.5 162.5,-112.5 52.5,-112.5"/>
<text text-anchor="middle" x="107.5" y="-119.5" font-family="Helvetica" font-size="10.00">llvm::MemoryAccess</text>
</a>
</g>
</g>
<!-- Node1&#45;&gt;Node4 -->
<g id="edge3" class="edge">
<title>Node1&#45;&gt;Node4</title>
<path fill="none" stroke="midnightblue" d="M107.5,-157.8C107.5,-148.91 107.5,-138.78 107.5,-131.75"/>
<polygon fill="midnightblue" stroke="midnightblue" points="104,-158.08 107.5,-168.08 111,-158.08 104,-158.08"/>
</g>
<!-- Node2 -->
<g id="node2" class="node">
<title>Node2</title>
<g id="a_node2"><a xlink:href="classllvm_1_1User.html" target="_top" xlink:title=" ">
<polygon fill="none" stroke="black" points="76.5,-224.5 76.5,-243.5 138.5,-243.5 138.5,-224.5 76.5,-224.5"/>
<text text-anchor="middle" x="107.5" y="-231.5" font-family="Helvetica" font-size="10.00">llvm::User</text>
</a>
</g>
</g>
<!-- Node2&#45;&gt;Node1 -->
<g id="edge1" class="edge">
<title>Node2&#45;&gt;Node1</title>
<path fill="none" stroke="midnightblue" d="M107.5,-213.8C107.5,-204.91 107.5,-194.78 107.5,-187.75"/>
<polygon fill="midnightblue" stroke="midnightblue" points="104,-214.08 107.5,-224.08 111,-214.08 104,-214.08"/>
</g>
<!-- Node3 -->
<g id="node3" class="node">
<title>Node3</title>
<g id="a_node3"><a xlink:href="classllvm_1_1Value.html" target="_top" xlink:title="LLVM Value Representation.">
<polygon fill="none" stroke="black" points="75,-280.5 75,-299.5 140,-299.5 140,-280.5 75,-280.5"/>
<text text-anchor="middle" x="107.5" y="-287.5" font-family="Helvetica" font-size="10.00">llvm::Value</text>
</a>
</g>
</g>
<!-- Node3&#45;&gt;Node2 -->
<g id="edge2" class="edge">
<title>Node3&#45;&gt;Node2</title>
<path fill="none" stroke="midnightblue" d="M107.5,-269.8C107.5,-260.91 107.5,-250.78 107.5,-243.75"/>
<polygon fill="midnightblue" stroke="midnightblue" points="104,-270.08 107.5,-280.08 111,-270.08 104,-270.08"/>
</g>
<!-- Node5 -->
<g id="node5" class="node">
<title>Node5</title>
<g id="a_node5"><a xlink:href="classllvm_1_1MemoryPhi.html" target="_top" xlink:title="Represents phi nodes for memory accesses.">
<polygon fill="none" stroke="black" points="0,-56.5 0,-75.5 91,-75.5 91,-56.5 0,-56.5"/>
<text text-anchor="middle" x="45.5" y="-63.5" font-family="Helvetica" font-size="10.00">llvm::MemoryPhi</text>
</a>
</g>
</g>
<!-- Node4&#45;&gt;Node5 -->
<g id="edge4" class="edge">
<title>Node4&#45;&gt;Node5</title>
<path fill="none" stroke="midnightblue" d="M89.75,-105.54C78.69,-95.91 64.87,-83.87 55.64,-75.83"/>
<polygon fill="midnightblue" stroke="midnightblue" points="87.7,-108.4 97.54,-112.32 92.3,-103.12 87.7,-108.4"/>
</g>
<!-- Node6 -->
<g id="node6" class="node">
<title>Node6</title>
<g id="a_node6"><a xlink:href="classllvm_1_1MemoryUseOrDef.html" target="_top" xlink:title="Class that has the common methods + fields of memory uses/defs.">
<polygon fill="none" stroke="black" points="109,-56.5 109,-75.5 230,-75.5 230,-56.5 109,-56.5"/>
<text text-anchor="middle" x="169.5" y="-63.5" font-family="Helvetica" font-size="10.00">llvm::MemoryUseOrDef</text>
</a>
</g>
</g>
<!-- Node4&#45;&gt;Node6 -->
<g id="edge5" class="edge">
<title>Node4&#45;&gt;Node6</title>
<path fill="none" stroke="midnightblue" d="M125.25,-105.54C136.31,-95.91 150.13,-83.87 159.36,-75.83"/>
<polygon fill="midnightblue" stroke="midnightblue" points="122.7,-103.12 117.46,-112.32 127.3,-108.4 122.7,-103.12"/>
</g>
<!-- Node7 -->
<g id="node7" class="node">
<title>Node7</title>
<g id="a_node7"><a xlink:href="classllvm_1_1MemoryDef.html" target="_top" xlink:title="Represents a read&#45;write access to memory, whether it is a must&#45;alias, or a may&#45;alias.">
<polygon fill="none" stroke="black" points="67.5,-0.5 67.5,-19.5 159.5,-19.5 159.5,-0.5 67.5,-0.5"/>
<text text-anchor="middle" x="113.5" y="-7.5" font-family="Helvetica" font-size="10.00">llvm::MemoryDef</text>
</a>
</g>
</g>
<!-- Node6&#45;&gt;Node7 -->
<g id="edge6" class="edge">
<title>Node6&#45;&gt;Node7</title>
<path fill="none" stroke="midnightblue" d="M153.17,-49.25C143.24,-39.67 130.91,-27.79 122.66,-19.83"/>
<polygon fill="midnightblue" stroke="midnightblue" points="150.87,-51.9 160.5,-56.32 155.73,-46.86 150.87,-51.9"/>
</g>
<!-- Node8 -->
<g id="node8" class="node">
<title>Node8</title>
<g id="a_node8"><a xlink:href="classllvm_1_1MemoryUse.html" target="_top" xlink:title="Represents read&#45;only accesses to memory.">
<polygon fill="none" stroke="black" points="178,-0.5 178,-19.5 273,-19.5 273,-0.5 178,-0.5"/>
<text text-anchor="middle" x="225.5" y="-7.5" font-family="Helvetica" font-size="10.00">llvm::MemoryUse</text>
</a>
</g>
</g>
<!-- Node6&#45;&gt;Node8 -->
<g id="edge7" class="edge">
<title>Node6&#45;&gt;Node8</title>
<path fill="none" stroke="midnightblue" d="M185.83,-49.25C195.76,-39.67 208.09,-27.79 216.34,-19.83"/>
<polygon fill="midnightblue" stroke="midnightblue" points="183.27,-46.86 178.5,-56.32 188.13,-51.9 183.27,-46.86"/>
</g>
</g>
</svg>
