<?xml version="1.0" encoding="UTF-8" standalone="no"?>
<!DOCTYPE svg PUBLIC "-//W3C//DTD SVG 1.1//EN"
 "http://www.w3.org/Graphics/SVG/1.1/DTD/svg11.dtd">
<!-- Generated by graphviz version 2.44.0 (0)
 -->
<!-- Title: llvm::codeview::FuncIdRecord Pages: 1 -->
<svg width="431pt" height="206pt"
 viewBox="0.00 0.00 430.50 206.00" xmlns="http://www.w3.org/2000/svg" xmlns:xlink="http://www.w3.org/1999/xlink">
<g id="graph0" class="graph" transform="scale(1 1) rotate(0) translate(4 202)">
<title>llvm::codeview::FuncIdRecord</title>
<!-- Node1 -->
<g id="node1" class="node">
<title>Node1</title>
<g id="a_node1"><a xlink:title=" ">
<polygon fill="#bfbfbf" stroke="black" points="123.5,-0.5 123.5,-19.5 271.5,-19.5 271.5,-0.5 123.5,-0.5"/>
<text text-anchor="middle" x="197.5" y="-7.5" font-family="Helvetica" font-size="10.00">llvm::codeview::FuncIdRecord</text>
</a>
</g>
</g>
<!-- Node2 -->
<g id="node2" class="node">
<title>Node2</title>
<g id="a_node2"><a xlink:href="classllvm_1_1codeview_1_1TypeRecord.html" target="_top" xlink:title=" ">
<polygon fill="none" stroke="black" points="0,-78.5 0,-97.5 139,-97.5 139,-78.5 0,-78.5"/>
<text text-anchor="middle" x="69.5" y="-85.5" font-family="Helvetica" font-size="10.00">llvm::codeview::TypeRecord</text>
</a>
</g>
</g>
<!-- Node2&#45;&gt;Node1 -->
<g id="edge1" class="edge">
<title>Node2&#45;&gt;Node1</title>
<path fill="none" stroke="midnightblue" d="M93.11,-72.98C119.41,-57.36 161.1,-32.61 182.99,-19.62"/>
<polygon fill="midnightblue" stroke="midnightblue" points="90.99,-70.17 84.18,-78.28 94.57,-76.19 90.99,-70.17"/>
</g>
<!-- Node3 -->
<g id="node3" class="node">
<title>Node3</title>
<g id="a_node3"><a xlink:title=" ">
<polygon fill="none" stroke="#bfbfbf" points="25.5,-178.5 25.5,-197.5 113.5,-197.5 113.5,-178.5 25.5,-178.5"/>
<text text-anchor="middle" x="69.5" y="-185.5" font-family="Helvetica" font-size="10.00">TypeRecordKind</text>
</a>
</g>
</g>
<!-- Node3&#45;&gt;Node2 -->
<g id="edge2" class="edge">
<title>Node3&#45;&gt;Node2</title>
<path fill="none" stroke="#9a32cd" stroke-dasharray="5,2" d="M69.5,-168.22C69.5,-146.95 69.5,-113.22 69.5,-97.54"/>
<polygon fill="#9a32cd" stroke="#9a32cd" points="66,-168.3 69.5,-178.3 73,-168.3 66,-168.3"/>
<text text-anchor="middle" x="81" y="-135.5" font-family="Helvetica" font-size="10.00"> Kind</text>
</g>
<!-- Node4 -->
<g id="node4" class="node">
<title>Node4</title>
<g id="a_node4"><a xlink:href="classllvm_1_1StringRef.html" target="_top" xlink:title="StringRef &#45; Represent a constant reference to a string, i.e.">
<polygon fill="none" stroke="black" points="157,-78.5 157,-97.5 238,-97.5 238,-78.5 157,-78.5"/>
<text text-anchor="middle" x="197.5" y="-85.5" font-family="Helvetica" font-size="10.00">llvm::StringRef</text>
</a>
</g>
</g>
<!-- Node4&#45;&gt;Node1 -->
<g id="edge3" class="edge">
<title>Node4&#45;&gt;Node1</title>
<path fill="none" stroke="#9a32cd" stroke-dasharray="5,2" d="M197.5,-68.22C197.5,-52.7 197.5,-31.36 197.5,-19.62"/>
<polygon fill="#9a32cd" stroke="#9a32cd" points="194,-68.28 197.5,-78.28 201,-68.28 194,-68.28"/>
<text text-anchor="middle" x="212.5" y="-46.5" font-family="Helvetica" font-size="10.00"> Name</text>
</g>
<!-- Node5 -->
<g id="node5" class="node">
<title>Node5</title>
<g id="a_node5"><a xlink:href="classsize__t.html" target="_top" xlink:title=" ">
<polygon fill="none" stroke="black" points="176.5,-178.5 176.5,-197.5 218.5,-197.5 218.5,-178.5 176.5,-178.5"/>
<text text-anchor="middle" x="197.5" y="-185.5" font-family="Helvetica" font-size="10.00">size_t</text>
</a>
</g>
</g>
<!-- Node5&#45;&gt;Node4 -->
<g id="edge4" class="edge">
<title>Node5&#45;&gt;Node4</title>
<path fill="none" stroke="#9a32cd" stroke-dasharray="5,2" d="M197.5,-168.22C197.5,-146.95 197.5,-113.22 197.5,-97.54"/>
<polygon fill="#9a32cd" stroke="#9a32cd" points="194,-168.3 197.5,-178.3 201,-168.3 194,-168.3"/>
<text text-anchor="middle" x="210" y="-135.5" font-family="Helvetica" font-size="10.00"> npos</text>
</g>
<!-- Node6 -->
<g id="node6" class="node">
<title>Node6</title>
<g id="a_node6"><a xlink:href="classllvm_1_1codeview_1_1TypeIndex.html" target="_top" xlink:title="A 32&#45;bit type reference.">
<polygon fill="none" stroke="black" points="256.5,-78.5 256.5,-97.5 388.5,-97.5 388.5,-78.5 256.5,-78.5"/>
<text text-anchor="middle" x="322.5" y="-85.5" font-family="Helvetica" font-size="10.00">llvm::codeview::TypeIndex</text>
</a>
</g>
</g>
<!-- Node6&#45;&gt;Node1 -->
<g id="edge5" class="edge">
<title>Node6&#45;&gt;Node1</title>
<path fill="none" stroke="#9a32cd" stroke-dasharray="5,2" d="M299.44,-72.98C273.76,-57.36 233.05,-32.61 211.67,-19.62"/>
<polygon fill="#9a32cd" stroke="#9a32cd" points="297.8,-76.08 308.16,-78.28 301.43,-70.1 297.8,-76.08"/>
<text text-anchor="middle" x="306" y="-52" font-family="Helvetica" font-size="10.00"> FunctionType</text>
<text text-anchor="middle" x="306" y="-41" font-family="Helvetica" font-size="10.00">ParentScope</text>
</g>
<!-- Node7 -->
<g id="node7" class="node">
<title>Node7</title>
<g id="a_node7"><a xlink:href="classuint32__t.html" target="_top" xlink:title=" ">
<polygon fill="none" stroke="black" points="297,-178.5 297,-197.5 348,-197.5 348,-178.5 297,-178.5"/>
<text text-anchor="middle" x="322.5" y="-185.5" font-family="Helvetica" font-size="10.00">uint32_t</text>
</a>
</g>
</g>
<!-- Node7&#45;&gt;Node6 -->
<g id="edge6" class="edge">
<title>Node7&#45;&gt;Node6</title>
<path fill="none" stroke="#9a32cd" stroke-dasharray="5,2" d="M322.5,-168.22C322.5,-146.95 322.5,-113.22 322.5,-97.54"/>
<polygon fill="#9a32cd" stroke="#9a32cd" points="319,-168.3 322.5,-178.3 326,-168.3 319,-168.3"/>
<text text-anchor="middle" x="372.5" y="-152" font-family="Helvetica" font-size="10.00"> DecoratedItemIdMask</text>
<text text-anchor="middle" x="372.5" y="-141" font-family="Helvetica" font-size="10.00">FirstNonSimpleIndex</text>
<text text-anchor="middle" x="372.5" y="-130" font-family="Helvetica" font-size="10.00">SimpleKindMask</text>
<text text-anchor="middle" x="372.5" y="-119" font-family="Helvetica" font-size="10.00">SimpleModeMask</text>
</g>
</g>
</svg>
