<?xml version="1.0" encoding="UTF-8" standalone="no"?>
<!DOCTYPE svg PUBLIC "-//W3C//DTD SVG 1.1//EN"
 "http://www.w3.org/Graphics/SVG/1.1/DTD/svg11.dtd">
<!-- Generated by graphviz version 2.44.0 (0)
 -->
<!-- Title: llvm::msgpack::DocNode Pages: 1 -->
<svg width="600pt" height="162pt"
 viewBox="0.00 0.00 600.00 162.00" xmlns="http://www.w3.org/2000/svg" xmlns:xlink="http://www.w3.org/1999/xlink">
<g id="graph0" class="graph" transform="scale(1 1) rotate(0) translate(4 158)">
<title>llvm::msgpack::DocNode</title>
<!-- Node1 -->
<g id="node1" class="node">
<title>Node1</title>
<g id="a_node1"><a xlink:title="A node in a MsgPack Document.">
<polygon fill="#bfbfbf" stroke="black" points="204,-0.5 204,-19.5 331,-19.5 331,-0.5 204,-0.5"/>
<text text-anchor="middle" x="267.5" y="-7.5" font-family="Helvetica" font-size="10.00">llvm::msgpack::DocNode</text>
</a>
</g>
</g>
<!-- Node2 -->
<g id="node2" class="node">
<title>Node2</title>
<g id="a_node2"><a xlink:title=" ">
<polygon fill="none" stroke="#bfbfbf" points="0,-67.5 0,-86.5 57,-86.5 57,-67.5 0,-67.5"/>
<text text-anchor="middle" x="28.5" y="-74.5" font-family="Helvetica" font-size="10.00">ArrayTy *</text>
</a>
</g>
</g>
<!-- Node2&#45;&gt;Node1 -->
<g id="edge1" class="edge">
<title>Node2&#45;&gt;Node1</title>
<path fill="none" stroke="#9a32cd" stroke-dasharray="5,2" d="M55.76,-63.29C74.25,-55.09 99.44,-44.73 122.5,-38 149.78,-30.03 180.67,-23.9 206.9,-19.51"/>
<polygon fill="#9a32cd" stroke="#9a32cd" points="54.17,-60.17 46.49,-67.47 57.04,-66.55 54.17,-60.17"/>
<text text-anchor="middle" x="136" y="-41" font-family="Helvetica" font-size="10.00"> Array</text>
</g>
<!-- Node3 -->
<g id="node3" class="node">
<title>Node3</title>
<g id="a_node3"><a xlink:title=" ">
<polygon fill="none" stroke="#bfbfbf" points="75,-67.5 75,-86.5 120,-86.5 120,-67.5 75,-67.5"/>
<text text-anchor="middle" x="97.5" y="-74.5" font-family="Helvetica" font-size="10.00">double</text>
</a>
</g>
</g>
<!-- Node3&#45;&gt;Node1 -->
<g id="edge2" class="edge">
<title>Node3&#45;&gt;Node1</title>
<path fill="none" stroke="#9a32cd" stroke-dasharray="5,2" d="M122.7,-62.82C138.24,-54.99 158.72,-45.23 177.5,-38 196.07,-30.85 217.38,-24.38 234.6,-19.57"/>
<polygon fill="#9a32cd" stroke="#9a32cd" points="121.05,-59.73 113.73,-67.39 124.23,-65.97 121.05,-59.73"/>
<text text-anchor="middle" x="190" y="-41" font-family="Helvetica" font-size="10.00"> Float</text>
</g>
<!-- Node4 -->
<g id="node4" class="node">
<title>Node4</title>
<g id="a_node4"><a xlink:title=" ">
<polygon fill="none" stroke="#bfbfbf" points="138,-67.5 138,-86.5 189,-86.5 189,-67.5 138,-67.5"/>
<text text-anchor="middle" x="163.5" y="-74.5" font-family="Helvetica" font-size="10.00">uint64_t</text>
</a>
</g>
</g>
<!-- Node4&#45;&gt;Node1 -->
<g id="edge3" class="edge">
<title>Node4&#45;&gt;Node1</title>
<path fill="none" stroke="#9a32cd" stroke-dasharray="5,2" d="M185.16,-61.81C196.27,-54.6 210.05,-45.74 222.5,-38 232.56,-31.75 244.01,-24.88 252.84,-19.64"/>
<polygon fill="#9a32cd" stroke="#9a32cd" points="183.01,-59.04 176.55,-67.43 186.84,-64.9 183.01,-59.04"/>
<text text-anchor="middle" x="233.5" y="-41" font-family="Helvetica" font-size="10.00"> UInt</text>
</g>
<!-- Node5 -->
<g id="node5" class="node">
<title>Node5</title>
<g id="a_node5"><a xlink:title=" ">
<polygon fill="none" stroke="#bfbfbf" points="207,-67.5 207,-86.5 260,-86.5 260,-67.5 207,-67.5"/>
<text text-anchor="middle" x="233.5" y="-74.5" font-family="Helvetica" font-size="10.00">MapTy *</text>
</a>
</g>
</g>
<!-- Node5&#45;&gt;Node1 -->
<g id="edge4" class="edge">
<title>Node5&#45;&gt;Node1</title>
<path fill="none" stroke="#9a32cd" stroke-dasharray="5,2" d="M242.83,-58.16C249.39,-45.63 257.87,-29.41 262.99,-19.63"/>
<polygon fill="#9a32cd" stroke="#9a32cd" points="239.62,-56.75 238.09,-67.23 245.82,-60 239.62,-56.75"/>
<text text-anchor="middle" x="264.5" y="-41" font-family="Helvetica" font-size="10.00"> Map</text>
</g>
<!-- Node6 -->
<g id="node6" class="node">
<title>Node6</title>
<g id="a_node6"><a xlink:title=" ">
<polygon fill="none" stroke="#bfbfbf" points="278.5,-67.5 278.5,-86.5 324.5,-86.5 324.5,-67.5 278.5,-67.5"/>
<text text-anchor="middle" x="301.5" y="-74.5" font-family="Helvetica" font-size="10.00">int64_t</text>
</a>
</g>
</g>
<!-- Node6&#45;&gt;Node1 -->
<g id="edge5" class="edge">
<title>Node6&#45;&gt;Node1</title>
<path fill="none" stroke="#9a32cd" stroke-dasharray="5,2" d="M292.17,-58.16C285.61,-45.63 277.13,-29.41 272.01,-19.63"/>
<polygon fill="#9a32cd" stroke="#9a32cd" points="289.18,-60 296.91,-67.23 295.38,-56.75 289.18,-60"/>
<text text-anchor="middle" x="295" y="-41" font-family="Helvetica" font-size="10.00"> Int</text>
</g>
<!-- Node7 -->
<g id="node7" class="node">
<title>Node7</title>
<g id="a_node7"><a xlink:href="classbool.html" target="_top" xlink:title=" ">
<polygon fill="none" stroke="black" points="343,-67.5 343,-86.5 378,-86.5 378,-67.5 343,-67.5"/>
<text text-anchor="middle" x="360.5" y="-74.5" font-family="Helvetica" font-size="10.00">bool</text>
</a>
</g>
</g>
<!-- Node7&#45;&gt;Node1 -->
<g id="edge6" class="edge">
<title>Node7&#45;&gt;Node1</title>
<path fill="none" stroke="#9a32cd" stroke-dasharray="5,2" d="M339.9,-61.45C329.84,-54.36 317.55,-45.71 306.5,-38 297.72,-31.87 287.8,-25.01 280.16,-19.73"/>
<polygon fill="#9a32cd" stroke="#9a32cd" points="337.89,-64.31 348.08,-67.22 341.93,-58.59 337.89,-64.31"/>
<text text-anchor="middle" x="333" y="-41" font-family="Helvetica" font-size="10.00"> Bool</text>
</g>
<!-- Node8 -->
<g id="node8" class="node">
<title>Node8</title>
<g id="a_node8"><a xlink:title=" ">
<polygon fill="none" stroke="#bfbfbf" points="396.5,-67.5 396.5,-86.5 492.5,-86.5 492.5,-67.5 396.5,-67.5"/>
<text text-anchor="middle" x="444.5" y="-74.5" font-family="Helvetica" font-size="10.00">anonymous:@140</text>
</a>
</g>
</g>
<!-- Node8&#45;&gt;Node1 -->
<g id="edge7" class="edge">
<title>Node8&#45;&gt;Node1</title>
<path fill="none" stroke="#9a32cd" stroke-dasharray="5,2" d="M414.13,-63.48C395.33,-55.86 370.63,-46.06 348.5,-38 330.53,-31.46 310.11,-24.65 294.26,-19.51"/>
<polygon fill="#9a32cd" stroke="#9a32cd" points="413.07,-66.83 423.65,-67.36 415.71,-60.35 413.07,-66.83"/>
<text text-anchor="middle" x="389.5" y="-41" font-family="Helvetica" font-size="10.00"> @140</text>
</g>
<!-- Node9 -->
<g id="node9" class="node">
<title>Node9</title>
<g id="a_node9"><a xlink:href="classllvm_1_1StringRef.html" target="_top" xlink:title="StringRef &#45; Represent a constant reference to a string, i.e.">
<polygon fill="none" stroke="black" points="511,-67.5 511,-86.5 592,-86.5 592,-67.5 511,-67.5"/>
<text text-anchor="middle" x="551.5" y="-74.5" font-family="Helvetica" font-size="10.00">llvm::StringRef</text>
</a>
</g>
</g>
<!-- Node9&#45;&gt;Node1 -->
<g id="edge8" class="edge">
<title>Node9&#45;&gt;Node1</title>
<path fill="none" stroke="#9a32cd" stroke-dasharray="5,2" d="M512.16,-64.75C483.54,-56.75 443.78,-46.06 408.5,-38 378.13,-31.07 343.8,-24.47 316.62,-19.53"/>
<polygon fill="#9a32cd" stroke="#9a32cd" points="511.22,-68.12 521.8,-67.45 513.12,-61.38 511.22,-68.12"/>
<text text-anchor="middle" x="463" y="-41" font-family="Helvetica" font-size="10.00"> Raw</text>
</g>
<!-- Node10 -->
<g id="node10" class="node">
<title>Node10</title>
<g id="a_node10"><a xlink:href="classsize__t.html" target="_top" xlink:title=" ">
<polygon fill="none" stroke="black" points="530.5,-134.5 530.5,-153.5 572.5,-153.5 572.5,-134.5 530.5,-134.5"/>
<text text-anchor="middle" x="551.5" y="-141.5" font-family="Helvetica" font-size="10.00">size_t</text>
</a>
</g>
</g>
<!-- Node10&#45;&gt;Node9 -->
<g id="edge9" class="edge">
<title>Node10&#45;&gt;Node9</title>
<path fill="none" stroke="#9a32cd" stroke-dasharray="5,2" d="M551.5,-124.04C551.5,-111.67 551.5,-96.12 551.5,-86.63"/>
<polygon fill="#9a32cd" stroke="#9a32cd" points="548,-124.23 551.5,-134.23 555,-124.23 548,-124.23"/>
<text text-anchor="middle" x="564" y="-108" font-family="Helvetica" font-size="10.00"> npos</text>
</g>
</g>
</svg>
