<?xml version="1.0" encoding="UTF-8" standalone="no"?>
<!DOCTYPE svg PUBLIC "-//W3C//DTD SVG 1.1//EN"
 "http://www.w3.org/Graphics/SVG/1.1/DTD/svg11.dtd">
<!-- Generated by graphviz version 2.44.0 (0)
 -->
<!-- Title: llvm::IRSimilarityAnalysisPrinterPass Pages: 1 -->
<svg width="207pt" height="207pt"
 viewBox="0.00 0.00 206.50 207.00" xmlns="http://www.w3.org/2000/svg" xmlns:xlink="http://www.w3.org/1999/xlink">
<g id="graph0" class="graph" transform="scale(1 1) rotate(0) translate(4 203)">
<title>llvm::IRSimilarityAnalysisPrinterPass</title>
<!-- Node1 -->
<g id="node1" class="node">
<title>Node1</title>
<g id="a_node1"><a xlink:title="Printer pass that uses IRSimilarityAnalysis.">
<polygon fill="#bfbfbf" stroke="black" points="6.5,-0.5 6.5,-30.5 134.5,-30.5 134.5,-0.5 6.5,-0.5"/>
<text text-anchor="start" x="14.5" y="-18.5" font-family="Helvetica" font-size="10.00">llvm::IRSimilarityAnalysis</text>
<text text-anchor="middle" x="70.5" y="-7.5" font-family="Helvetica" font-size="10.00">PrinterPass</text>
</a>
</g>
</g>
<!-- Node2 -->
<g id="node2" class="node">
<title>Node2</title>
<g id="a_node2"><a xlink:href="structllvm_1_1PassInfoMixin.html" target="_top" xlink:title=" ">
<polygon fill="none" stroke="black" points="0,-68.5 0,-109.5 141,-109.5 141,-68.5 0,-68.5"/>
<text text-anchor="start" x="8" y="-97.5" font-family="Helvetica" font-size="10.00">llvm::PassInfoMixin</text>
<text text-anchor="start" x="8" y="-86.5" font-family="Helvetica" font-size="10.00">&lt; IRSimilarityAnalysisPrinter</text>
<text text-anchor="middle" x="70.5" y="-75.5" font-family="Helvetica" font-size="10.00">Pass &gt;</text>
</a>
</g>
</g>
<!-- Node2&#45;&gt;Node1 -->
<g id="edge1" class="edge">
<title>Node2&#45;&gt;Node1</title>
<path fill="none" stroke="midnightblue" d="M70.5,-58.16C70.5,-48.69 70.5,-38.65 70.5,-30.8"/>
<polygon fill="midnightblue" stroke="midnightblue" points="67,-58.46 70.5,-68.46 74,-58.46 67,-58.46"/>
</g>
<!-- Node3 -->
<g id="node3" class="node">
<title>Node3</title>
<g id="a_node3"><a xlink:href="structllvm_1_1PassInfoMixin.html" target="_top" xlink:title="A CRTP mix&#45;in to automatically provide informational APIs needed for passes.">
<polygon fill="none" stroke="black" points="19,-168.5 19,-198.5 122,-198.5 122,-168.5 19,-168.5"/>
<text text-anchor="start" x="27" y="-186.5" font-family="Helvetica" font-size="10.00">llvm::PassInfoMixin</text>
<text text-anchor="middle" x="70.5" y="-175.5" font-family="Helvetica" font-size="10.00">&lt; DerivedT &gt;</text>
</a>
</g>
</g>
<!-- Node3&#45;&gt;Node2 -->
<g id="edge2" class="edge">
<title>Node3&#45;&gt;Node2</title>
<path fill="none" stroke="orange" stroke-dasharray="5,2" d="M70.5,-158.28C70.5,-143.14 70.5,-123.88 70.5,-109.68"/>
<polygon fill="orange" stroke="orange" points="67,-158.45 70.5,-168.45 74,-158.45 67,-158.45"/>
<text text-anchor="start" x="70.5" y="-142" font-family="Helvetica" font-size="10.00"> &lt; IRSimilarityAnalysisPrinter</text>
<text text-anchor="middle" x="134.5" y="-131" font-family="Helvetica" font-size="10.00">Pass &gt;</text>
</g>
</g>
</svg>
