<?xml version="1.0" encoding="UTF-8" standalone="no"?>
<!DOCTYPE svg PUBLIC "-//W3C//DTD SVG 1.1//EN"
 "http://www.w3.org/Graphics/SVG/1.1/DTD/svg11.dtd">
<!-- Generated by graphviz version 2.44.0 (0)
 -->
<!-- Title: llvm::ScheduleDAG Pages: 1 -->
<svg width="818pt" height="142pt"
 viewBox="0.00 0.00 818.00 142.00" xmlns="http://www.w3.org/2000/svg" xmlns:xlink="http://www.w3.org/1999/xlink">
<g id="graph0" class="graph" transform="scale(1 1) rotate(0) translate(4 138)">
<title>llvm::ScheduleDAG</title>
<!-- Node1 -->
<g id="node1" class="node">
<title>Node1</title>
<g id="a_node1"><a xlink:title=" ">
<polygon fill="#bfbfbf" stroke="black" points="0,-38.5 0,-57.5 101,-57.5 101,-38.5 0,-38.5"/>
<text text-anchor="middle" x="50.5" y="-45.5" font-family="Helvetica" font-size="10.00">llvm::ScheduleDAG</text>
</a>
</g>
</g>
<!-- Node2 -->
<g id="node2" class="node">
<title>Node2</title>
<g id="a_node2"><a xlink:href="classllvm_1_1ScheduleDAGInstrs.html" target="_top" xlink:title="A ScheduleDAG for scheduling lists of MachineInstr.">
<polygon fill="none" stroke="black" points="145.5,-57.5 145.5,-76.5 272.5,-76.5 272.5,-57.5 145.5,-57.5"/>
<text text-anchor="middle" x="209" y="-64.5" font-family="Helvetica" font-size="10.00">llvm::ScheduleDAGInstrs</text>
</a>
</g>
</g>
<!-- Node1&#45;&gt;Node2 -->
<g id="edge1" class="edge">
<title>Node1&#45;&gt;Node2</title>
<path fill="none" stroke="midnightblue" d="M111.11,-55.24C122.3,-56.6 134.03,-58.02 145.3,-59.39"/>
<polygon fill="midnightblue" stroke="midnightblue" points="111.37,-51.74 101.02,-54.01 110.52,-58.69 111.37,-51.74"/>
</g>
<!-- Node11 -->
<g id="node11" class="node">
<title>Node11</title>
<g id="a_node11"><a xlink:href="classllvm_1_1ScheduleDAGSDNodes.html" target="_top" xlink:title="ScheduleDAGSDNodes &#45; A ScheduleDAG for scheduling SDNode&#45;based DAGs.">
<polygon fill="none" stroke="black" points="137,-19.5 137,-38.5 281,-38.5 281,-19.5 137,-19.5"/>
<text text-anchor="middle" x="209" y="-26.5" font-family="Helvetica" font-size="10.00">llvm::ScheduleDAGSDNodes</text>
</a>
</g>
</g>
<!-- Node1&#45;&gt;Node11 -->
<g id="edge10" class="edge">
<title>Node1&#45;&gt;Node11</title>
<path fill="none" stroke="midnightblue" d="M111.09,-40.77C119.49,-39.75 128.2,-38.69 136.79,-37.65"/>
<polygon fill="midnightblue" stroke="midnightblue" points="110.52,-37.31 101.02,-41.99 111.37,-44.26 110.52,-37.31"/>
</g>
<!-- Node3 -->
<g id="node3" class="node">
<title>Node3</title>
<g id="a_node3"><a xlink:href="classllvm_1_1DefaultVLIWScheduler.html" target="_top" xlink:title=" ">
<polygon fill="none" stroke="black" points="317,-95.5 317,-114.5 456,-114.5 456,-95.5 317,-95.5"/>
<text text-anchor="middle" x="386.5" y="-102.5" font-family="Helvetica" font-size="10.00">llvm::DefaultVLIWScheduler</text>
</a>
</g>
</g>
<!-- Node2&#45;&gt;Node3 -->
<g id="edge2" class="edge">
<title>Node2&#45;&gt;Node3</title>
<path fill="none" stroke="midnightblue" d="M264.28,-78.75C289.09,-84.13 318.11,-90.41 341.53,-95.48"/>
<polygon fill="midnightblue" stroke="midnightblue" points="264.8,-75.28 254.29,-76.59 263.32,-82.13 264.8,-75.28"/>
</g>
<!-- Node4 -->
<g id="node4" class="node">
<title>Node4</title>
<g id="a_node4"><a xlink:href="classllvm_1_1ScheduleDAGMI.html" target="_top" xlink:title="ScheduleDAGMI is an implementation of ScheduleDAGInstrs that simply schedules machine instructions ac...">
<polygon fill="none" stroke="black" points="330,-57.5 330,-76.5 443,-76.5 443,-57.5 330,-57.5"/>
<text text-anchor="middle" x="386.5" y="-64.5" font-family="Helvetica" font-size="10.00">llvm::ScheduleDAGMI</text>
</a>
</g>
</g>
<!-- Node2&#45;&gt;Node4 -->
<g id="edge3" class="edge">
<title>Node2&#45;&gt;Node4</title>
<path fill="none" stroke="midnightblue" d="M283.02,-67C298.65,-67 314.92,-67 329.77,-67"/>
<polygon fill="midnightblue" stroke="midnightblue" points="282.86,-63.5 272.86,-67 282.86,-70.5 282.86,-63.5"/>
</g>
<!-- Node10 -->
<g id="node10" class="node">
<title>Node10</title>
<g id="a_node10"><a xlink:href="classllvm_1_1SwingSchedulerDAG.html" target="_top" xlink:title="This class builds the dependence graph for the instructions in a loop, and attempts to schedule the i...">
<polygon fill="none" stroke="black" points="321,-19.5 321,-38.5 452,-38.5 452,-19.5 321,-19.5"/>
<text text-anchor="middle" x="386.5" y="-26.5" font-family="Helvetica" font-size="10.00">llvm::SwingSchedulerDAG</text>
</a>
</g>
</g>
<!-- Node2&#45;&gt;Node10 -->
<g id="edge9" class="edge">
<title>Node2&#45;&gt;Node10</title>
<path fill="none" stroke="midnightblue" d="M264.28,-55.25C289.09,-49.87 318.11,-43.59 341.53,-38.52"/>
<polygon fill="midnightblue" stroke="midnightblue" points="263.32,-51.87 254.29,-57.41 264.8,-58.72 263.32,-51.87"/>
</g>
<!-- Node5 -->
<g id="node5" class="node">
<title>Node5</title>
<g id="a_node5"><a xlink:href="classllvm_1_1ScheduleDAGMILive.html" target="_top" xlink:title="ScheduleDAGMILive is an implementation of ScheduleDAGInstrs that schedules machine instructions while...">
<polygon fill="none" stroke="black" points="492,-57.5 492,-76.5 622,-76.5 622,-57.5 492,-57.5"/>
<text text-anchor="middle" x="557" y="-64.5" font-family="Helvetica" font-size="10.00">llvm::ScheduleDAGMILive</text>
</a>
</g>
</g>
<!-- Node4&#45;&gt;Node5 -->
<g id="edge4" class="edge">
<title>Node4&#45;&gt;Node5</title>
<path fill="none" stroke="midnightblue" d="M453.2,-67C465.94,-67 479.27,-67 491.95,-67"/>
<polygon fill="midnightblue" stroke="midnightblue" points="453.14,-63.5 443.14,-67 453.14,-70.5 453.14,-63.5"/>
</g>
<!-- Node6 -->
<g id="node6" class="node">
<title>Node6</title>
<g id="a_node6"><a xlink:href="classllvm_1_1GCNIterativeScheduler.html" target="_top" xlink:title=" ">
<polygon fill="none" stroke="black" points="663.5,-114.5 663.5,-133.5 804.5,-133.5 804.5,-114.5 663.5,-114.5"/>
<text text-anchor="middle" x="734" y="-121.5" font-family="Helvetica" font-size="10.00">llvm::GCNIterativeScheduler</text>
</a>
</g>
</g>
<!-- Node5&#45;&gt;Node6 -->
<g id="edge5" class="edge">
<title>Node5&#45;&gt;Node6</title>
<path fill="none" stroke="midnightblue" d="M590.08,-80.27C609.54,-88.04 634.97,-97.73 658,-105 668.89,-108.44 680.81,-111.68 691.89,-114.49"/>
<polygon fill="midnightblue" stroke="midnightblue" points="591.36,-77.01 580.77,-76.51 588.74,-83.5 591.36,-77.01"/>
</g>
<!-- Node7 -->
<g id="node7" class="node">
<title>Node7</title>
<g id="a_node7"><a xlink:href="classllvm_1_1GCNScheduleDAGMILive.html" target="_top" xlink:title=" ">
<polygon fill="none" stroke="black" points="658,-76.5 658,-95.5 810,-95.5 810,-76.5 658,-76.5"/>
<text text-anchor="middle" x="734" y="-83.5" font-family="Helvetica" font-size="10.00">llvm::GCNScheduleDAGMILive</text>
</a>
</g>
</g>
<!-- Node5&#45;&gt;Node7 -->
<g id="edge6" class="edge">
<title>Node5&#45;&gt;Node7</title>
<path fill="none" stroke="midnightblue" d="M632.36,-75.07C640.8,-75.99 649.41,-76.92 657.87,-77.84"/>
<polygon fill="midnightblue" stroke="midnightblue" points="632.49,-71.57 622.17,-73.97 631.73,-78.53 632.49,-71.57"/>
</g>
<!-- Node8 -->
<g id="node8" class="node">
<title>Node8</title>
<g id="a_node8"><a xlink:href="classllvm_1_1SIScheduleDAGMI.html" target="_top" xlink:title=" ">
<polygon fill="none" stroke="black" points="673,-38.5 673,-57.5 795,-57.5 795,-38.5 673,-38.5"/>
<text text-anchor="middle" x="734" y="-45.5" font-family="Helvetica" font-size="10.00">llvm::SIScheduleDAGMI</text>
</a>
</g>
</g>
<!-- Node5&#45;&gt;Node8 -->
<g id="edge7" class="edge">
<title>Node5&#45;&gt;Node8</title>
<path fill="none" stroke="midnightblue" d="M632.4,-58.92C645.92,-57.45 659.87,-55.94 672.91,-54.52"/>
<polygon fill="midnightblue" stroke="midnightblue" points="631.73,-55.47 622.17,-60.03 632.49,-62.43 631.73,-55.47"/>
</g>
<!-- Node9 -->
<g id="node9" class="node">
<title>Node9</title>
<g id="a_node9"><a xlink:href="classllvm_1_1VLIWMachineScheduler.html" target="_top" xlink:title="Extend the standard ScheduleDAGMI to provide more context and override the top&#45;level schedule() drive...">
<polygon fill="none" stroke="black" points="662,-0.5 662,-19.5 806,-19.5 806,-0.5 662,-0.5"/>
<text text-anchor="middle" x="734" y="-7.5" font-family="Helvetica" font-size="10.00">llvm::VLIWMachineScheduler</text>
</a>
</g>
</g>
<!-- Node5&#45;&gt;Node9 -->
<g id="edge8" class="edge">
<title>Node5&#45;&gt;Node9</title>
<path fill="none" stroke="midnightblue" d="M590.08,-53.73C609.54,-45.96 634.97,-36.27 658,-29 668.89,-25.56 680.81,-22.32 691.89,-19.51"/>
<polygon fill="midnightblue" stroke="midnightblue" points="588.74,-50.5 580.77,-57.49 591.36,-56.99 588.74,-50.5"/>
</g>
</g>
</svg>
