<?xml version="1.0" encoding="UTF-8" standalone="no"?>
<!DOCTYPE svg PUBLIC "-//W3C//DTD SVG 1.1//EN"
 "http://www.w3.org/Graphics/SVG/1.1/DTD/svg11.dtd">
<!-- Generated by graphviz version 2.44.0 (0)
 -->
<!-- Title: llvm::FileError Pages: 1 -->
<svg width="206pt" height="220pt"
 viewBox="0.00 0.00 206.00 220.00" xmlns="http://www.w3.org/2000/svg" xmlns:xlink="http://www.w3.org/1999/xlink">
<g id="graph0" class="graph" transform="scale(1 1) rotate(0) translate(4 216)">
<title>llvm::FileError</title>
<!-- Node1 -->
<g id="node1" class="node">
<title>Node1</title>
<g id="a_node1"><a xlink:title="This class wraps a filename and another Error.">
<polygon fill="#bfbfbf" stroke="black" points="28,-0.5 28,-19.5 105,-19.5 105,-0.5 28,-0.5"/>
<text text-anchor="middle" x="66.5" y="-7.5" font-family="Helvetica" font-size="10.00">llvm::FileError</text>
</a>
</g>
</g>
<!-- Node2 -->
<g id="node2" class="node">
<title>Node2</title>
<g id="a_node2"><a xlink:href="classllvm_1_1ErrorInfo.html" target="_top" xlink:title=" ">
<polygon fill="none" stroke="black" points="0,-57.5 0,-76.5 133,-76.5 133,-57.5 0,-57.5"/>
<text text-anchor="middle" x="66.5" y="-64.5" font-family="Helvetica" font-size="10.00">llvm::ErrorInfo&lt; FileError &gt;</text>
</a>
</g>
</g>
<!-- Node2&#45;&gt;Node1 -->
<g id="edge1" class="edge">
<title>Node2&#45;&gt;Node1</title>
<path fill="none" stroke="midnightblue" d="M66.5,-47.12C66.5,-37.82 66.5,-27.06 66.5,-19.71"/>
<polygon fill="midnightblue" stroke="midnightblue" points="63,-47.41 66.5,-57.41 70,-47.41 63,-47.41"/>
</g>
<!-- Node3 -->
<g id="node3" class="node">
<title>Node3</title>
<g id="a_node3"><a xlink:href="classllvm_1_1ErrorInfoBase.html" target="_top" xlink:title="Base class for error info classes.">
<polygon fill="none" stroke="black" points="12,-192.5 12,-211.5 113,-211.5 113,-192.5 12,-192.5"/>
<text text-anchor="middle" x="62.5" y="-199.5" font-family="Helvetica" font-size="10.00">llvm::ErrorInfoBase</text>
</a>
</g>
</g>
<!-- Node3&#45;&gt;Node2 -->
<g id="edge2" class="edge">
<title>Node3&#45;&gt;Node2</title>
<path fill="none" stroke="midnightblue" d="M63.07,-182.13C63.95,-152.88 65.6,-97.76 66.24,-76.59"/>
<polygon fill="midnightblue" stroke="midnightblue" points="59.56,-182.17 62.76,-192.27 66.56,-182.38 59.56,-182.17"/>
</g>
<!-- Node4 -->
<g id="node4" class="node">
<title>Node4</title>
<g id="a_node4"><a xlink:href="classllvm_1_1ErrorInfo.html" target="_top" xlink:title="Base class for user error types.">
<polygon fill="none" stroke="black" points="79,-124.5 79,-154.5 198,-154.5 198,-124.5 79,-124.5"/>
<text text-anchor="start" x="87" y="-142.5" font-family="Helvetica" font-size="10.00">llvm::ErrorInfo&lt; ThisErr</text>
<text text-anchor="middle" x="138.5" y="-131.5" font-family="Helvetica" font-size="10.00">T, ParentErrT &gt;</text>
</a>
</g>
</g>
<!-- Node3&#45;&gt;Node4 -->
<g id="edge4" class="edge">
<title>Node3&#45;&gt;Node4</title>
<path fill="none" stroke="midnightblue" d="M81.47,-185.9C93.54,-176.29 109.08,-163.92 120.88,-154.53"/>
<polygon fill="midnightblue" stroke="midnightblue" points="79.03,-183.37 73.39,-192.33 83.39,-188.84 79.03,-183.37"/>
</g>
<!-- Node4&#45;&gt;Node2 -->
<g id="edge3" class="edge">
<title>Node4&#45;&gt;Node2</title>
<path fill="none" stroke="orange" stroke-dasharray="5,2" d="M116.68,-117.14C102.91,-103.65 85.84,-86.94 75.58,-76.89"/>
<polygon fill="orange" stroke="orange" points="114.34,-119.74 123.93,-124.23 119.23,-114.74 114.34,-119.74"/>
<text text-anchor="middle" x="133.5" y="-98" font-family="Helvetica" font-size="10.00"> &lt; FileError &gt;</text>
</g>
</g>
</svg>
