<?xml version="1.0" encoding="UTF-8" standalone="no"?>
<!DOCTYPE svg PUBLIC "-//W3C//DTD SVG 1.1//EN"
 "http://www.w3.org/Graphics/SVG/1.1/DTD/svg11.dtd">
<!-- Generated by graphviz version 2.44.0 (0)
 -->
<!-- Title: llvm::EHStreamer Pages: 1 -->
<svg width="501pt" height="196pt"
 viewBox="0.00 0.00 501.00 196.00" xmlns="http://www.w3.org/2000/svg" xmlns:xlink="http://www.w3.org/1999/xlink">
<g id="graph0" class="graph" transform="scale(1 1) rotate(0) translate(4 192)">
<title>llvm::EHStreamer</title>
<!-- Node1 -->
<g id="node1" class="node">
<title>Node1</title>
<g id="a_node1"><a xlink:title="Emits exception handling directives.">
<polygon fill="#bfbfbf" stroke="black" points="271,-112.5 271,-131.5 366,-131.5 366,-112.5 271,-112.5"/>
<text text-anchor="middle" x="318.5" y="-119.5" font-family="Helvetica" font-size="10.00">llvm::EHStreamer</text>
</a>
</g>
</g>
<!-- Node3 -->
<g id="node3" class="node">
<title>Node3</title>
<g id="a_node3"><a xlink:href="classllvm_1_1DwarfCFIExceptionBase.html" target="_top" xlink:title=" ">
<polygon fill="none" stroke="black" points="96,-56.5 96,-75.5 245,-75.5 245,-56.5 96,-56.5"/>
<text text-anchor="middle" x="170.5" y="-63.5" font-family="Helvetica" font-size="10.00">llvm::DwarfCFIExceptionBase</text>
</a>
</g>
</g>
<!-- Node1&#45;&gt;Node3 -->
<g id="edge2" class="edge">
<title>Node1&#45;&gt;Node3</title>
<path fill="none" stroke="midnightblue" d="M285.35,-108.91C257.53,-98.75 218.48,-84.51 193.84,-75.52"/>
<polygon fill="midnightblue" stroke="midnightblue" points="284.46,-112.3 295.05,-112.44 286.85,-105.73 284.46,-112.3"/>
</g>
<!-- Node7 -->
<g id="node7" class="node">
<title>Node7</title>
<g id="a_node7"><a xlink:href="classllvm_1_1WasmException.html" target="_top" xlink:title=" ">
<polygon fill="none" stroke="black" points="263,-56.5 263,-75.5 374,-75.5 374,-56.5 263,-56.5"/>
<text text-anchor="middle" x="318.5" y="-63.5" font-family="Helvetica" font-size="10.00">llvm::WasmException</text>
</a>
</g>
</g>
<!-- Node1&#45;&gt;Node7 -->
<g id="edge6" class="edge">
<title>Node1&#45;&gt;Node7</title>
<path fill="none" stroke="midnightblue" d="M318.5,-101.8C318.5,-92.91 318.5,-82.78 318.5,-75.75"/>
<polygon fill="midnightblue" stroke="midnightblue" points="315,-102.08 318.5,-112.08 322,-102.08 315,-102.08"/>
</g>
<!-- Node8 -->
<g id="node8" class="node">
<title>Node8</title>
<g id="a_node8"><a xlink:href="classllvm_1_1WinException.html" target="_top" xlink:title=" ">
<polygon fill="none" stroke="black" points="392,-56.5 392,-75.5 493,-75.5 493,-56.5 392,-56.5"/>
<text text-anchor="middle" x="442.5" y="-63.5" font-family="Helvetica" font-size="10.00">llvm::WinException</text>
</a>
</g>
</g>
<!-- Node1&#45;&gt;Node8 -->
<g id="edge7" class="edge">
<title>Node1&#45;&gt;Node8</title>
<path fill="none" stroke="midnightblue" d="M347.51,-108.37C370.73,-98.26 402.66,-84.35 422.94,-75.52"/>
<polygon fill="midnightblue" stroke="midnightblue" points="345.92,-105.24 338.15,-112.44 348.71,-111.66 345.92,-105.24"/>
</g>
<!-- Node2 -->
<g id="node2" class="node">
<title>Node2</title>
<g id="a_node2"><a xlink:href="classllvm_1_1AsmPrinterHandler.html" target="_top" xlink:title="Collects and handles AsmPrinter objects required to build debug or EH information.">
<polygon fill="none" stroke="black" points="257,-168.5 257,-187.5 380,-187.5 380,-168.5 257,-168.5"/>
<text text-anchor="middle" x="318.5" y="-175.5" font-family="Helvetica" font-size="10.00">llvm::AsmPrinterHandler</text>
</a>
</g>
</g>
<!-- Node2&#45;&gt;Node1 -->
<g id="edge1" class="edge">
<title>Node2&#45;&gt;Node1</title>
<path fill="none" stroke="midnightblue" d="M318.5,-157.8C318.5,-148.91 318.5,-138.78 318.5,-131.75"/>
<polygon fill="midnightblue" stroke="midnightblue" points="315,-158.08 318.5,-168.08 322,-158.08 315,-158.08"/>
</g>
<!-- Node4 -->
<g id="node4" class="node">
<title>Node4</title>
<g id="a_node4"><a xlink:href="classllvm_1_1AIXException.html" target="_top" xlink:title=" ">
<polygon fill="none" stroke="black" points="0,-0.5 0,-19.5 99,-19.5 99,-0.5 0,-0.5"/>
<text text-anchor="middle" x="49.5" y="-7.5" font-family="Helvetica" font-size="10.00">llvm::AIXException</text>
</a>
</g>
</g>
<!-- Node3&#45;&gt;Node4 -->
<g id="edge3" class="edge">
<title>Node3&#45;&gt;Node4</title>
<path fill="none" stroke="midnightblue" d="M142.19,-52.37C119.53,-42.26 88.37,-28.35 68.58,-19.52"/>
<polygon fill="midnightblue" stroke="midnightblue" points="140.77,-55.56 151.33,-56.44 143.62,-49.17 140.77,-55.56"/>
</g>
<!-- Node5 -->
<g id="node5" class="node">
<title>Node5</title>
<g id="a_node5"><a xlink:href="classllvm_1_1ARMException.html" target="_top" xlink:title=" ">
<polygon fill="none" stroke="black" points="117.5,-0.5 117.5,-19.5 223.5,-19.5 223.5,-0.5 117.5,-0.5"/>
<text text-anchor="middle" x="170.5" y="-7.5" font-family="Helvetica" font-size="10.00">llvm::ARMException</text>
</a>
</g>
</g>
<!-- Node3&#45;&gt;Node5 -->
<g id="edge4" class="edge">
<title>Node3&#45;&gt;Node5</title>
<path fill="none" stroke="midnightblue" d="M170.5,-45.8C170.5,-36.91 170.5,-26.78 170.5,-19.75"/>
<polygon fill="midnightblue" stroke="midnightblue" points="167,-46.08 170.5,-56.08 174,-46.08 167,-46.08"/>
</g>
<!-- Node6 -->
<g id="node6" class="node">
<title>Node6</title>
<g id="a_node6"><a xlink:href="classllvm_1_1DwarfCFIException.html" target="_top" xlink:title=" ">
<polygon fill="none" stroke="black" points="241.5,-0.5 241.5,-19.5 367.5,-19.5 367.5,-0.5 241.5,-0.5"/>
<text text-anchor="middle" x="304.5" y="-7.5" font-family="Helvetica" font-size="10.00">llvm::DwarfCFIException</text>
</a>
</g>
</g>
<!-- Node3&#45;&gt;Node6 -->
<g id="edge5" class="edge">
<title>Node3&#45;&gt;Node6</title>
<path fill="none" stroke="midnightblue" d="M201.18,-52.64C226.32,-42.5 261.25,-28.43 283.37,-19.52"/>
<polygon fill="midnightblue" stroke="midnightblue" points="199.7,-49.46 191.73,-56.44 202.32,-55.95 199.7,-49.46"/>
</g>
</g>
</svg>
