<?xml version="1.0" encoding="UTF-8" standalone="no"?>
<!DOCTYPE svg PUBLIC "-//W3C//DTD SVG 1.1//EN"
 "http://www.w3.org/Graphics/SVG/1.1/DTD/svg11.dtd">
<!-- Generated by graphviz version 2.44.0 (0)
 -->
<!-- Title: llvm::LanaiFrameLowering Pages: 1 -->
<svg width="271pt" height="152pt"
 viewBox="0.00 0.00 271.00 152.00" xmlns="http://www.w3.org/2000/svg" xmlns:xlink="http://www.w3.org/1999/xlink">
<g id="graph0" class="graph" transform="scale(1 1) rotate(0) translate(4 148)">
<title>llvm::LanaiFrameLowering</title>
<!-- Node1 -->
<g id="node1" class="node">
<title>Node1</title>
<g id="a_node1"><a xlink:title=" ">
<polygon fill="#bfbfbf" stroke="black" points="44,-0.5 44,-19.5 174,-19.5 174,-0.5 44,-0.5"/>
<text text-anchor="middle" x="109" y="-7.5" font-family="Helvetica" font-size="10.00">llvm::LanaiFrameLowering</text>
</a>
</g>
</g>
<!-- Node2 -->
<g id="node2" class="node">
<title>Node2</title>
<g id="a_node2"><a xlink:href="classllvm_1_1TargetFrameLowering.html" target="_top" xlink:title="Information about stack frame layout on the target.">
<polygon fill="none" stroke="black" points="0,-67.5 0,-86.5 134,-86.5 134,-67.5 0,-67.5"/>
<text text-anchor="middle" x="67" y="-74.5" font-family="Helvetica" font-size="10.00">llvm::TargetFrameLowering</text>
</a>
</g>
</g>
<!-- Node2&#45;&gt;Node1 -->
<g id="edge1" class="edge">
<title>Node2&#45;&gt;Node1</title>
<path fill="none" stroke="midnightblue" d="M78.29,-58.53C86.42,-45.95 97.04,-29.51 103.43,-19.63"/>
<polygon fill="midnightblue" stroke="midnightblue" points="75.15,-56.94 72.66,-67.23 81.03,-60.73 75.15,-56.94"/>
</g>
<!-- Node3 -->
<g id="node3" class="node">
<title>Node3</title>
<g id="a_node3"><a xlink:href="classllvm_1_1LanaiSubtarget.html" target="_top" xlink:title=" ">
<polygon fill="none" stroke="black" points="152,-67.5 152,-86.5 258,-86.5 258,-67.5 152,-67.5"/>
<text text-anchor="middle" x="205" y="-74.5" font-family="Helvetica" font-size="10.00">llvm::LanaiSubtarget</text>
</a>
</g>
</g>
<!-- Node3&#45;&gt;Node1 -->
<g id="edge2" class="edge">
<title>Node3&#45;&gt;Node1</title>
<path fill="none" stroke="#9a32cd" stroke-dasharray="5,2" d="M183.72,-61.59C164.73,-48.74 137.55,-30.33 121.74,-19.63"/>
<polygon fill="#9a32cd" stroke="#9a32cd" points="181.81,-64.53 192.05,-67.23 185.73,-58.73 181.81,-64.53"/>
<text text-anchor="middle" x="171.5" y="-41" font-family="Helvetica" font-size="10.00"> STI</text>
</g>
<!-- Node4 -->
<g id="node4" class="node">
<title>Node4</title>
<g id="a_node4"><a xlink:href="classLanaiGenSubtargetInfo.html" target="_top" xlink:title=" ">
<polygon fill="none" stroke="black" points="147,-124.5 147,-143.5 263,-143.5 263,-124.5 147,-124.5"/>
<text text-anchor="middle" x="205" y="-131.5" font-family="Helvetica" font-size="10.00">LanaiGenSubtargetInfo</text>
</a>
</g>
</g>
<!-- Node4&#45;&gt;Node3 -->
<g id="edge3" class="edge">
<title>Node4&#45;&gt;Node3</title>
<path fill="none" stroke="midnightblue" d="M205,-114.12C205,-104.82 205,-94.06 205,-86.71"/>
<polygon fill="midnightblue" stroke="midnightblue" points="201.5,-114.41 205,-124.41 208.5,-114.41 201.5,-114.41"/>
</g>
</g>
</svg>
