<?xml version="1.0" encoding="UTF-8" standalone="no"?>
<!DOCTYPE svg PUBLIC "-//W3C//DTD SVG 1.1//EN"
 "http://www.w3.org/Graphics/SVG/1.1/DTD/svg11.dtd">
<!-- Generated by graphviz version 2.44.0 (0)
 -->
<!-- Title: llvm::coverage::FunctionRecordIterator Pages: 1 -->
<svg width="823pt" height="144pt"
 viewBox="0.00 0.00 823.00 143.50" xmlns="http://www.w3.org/2000/svg" xmlns:xlink="http://www.w3.org/1999/xlink">
<g id="graph0" class="graph" transform="scale(1 1) rotate(0) translate(4 139.5)">
<title>llvm::coverage::FunctionRecordIterator</title>
<!-- Node1 -->
<g id="node1" class="node">
<title>Node1</title>
<g id="a_node1"><a xlink:title="Iterator over Functions, optionally filtered to a single file.">
<polygon fill="#bfbfbf" stroke="black" points="692,-50.5 692,-80.5 815,-80.5 815,-50.5 692,-50.5"/>
<text text-anchor="start" x="700" y="-68.5" font-family="Helvetica" font-size="10.00">llvm::coverage::Function</text>
<text text-anchor="middle" x="753.5" y="-57.5" font-family="Helvetica" font-size="10.00">RecordIterator</text>
</a>
</g>
</g>
<!-- Node2 -->
<g id="node2" class="node">
<title>Node2</title>
<g id="a_node2"><a xlink:href="classllvm_1_1iterator__facade__base.html" target="_top" xlink:title=" ">
<polygon fill="none" stroke="black" points="501,-39.5 501,-91.5 655,-91.5 655,-39.5 501,-39.5"/>
<text text-anchor="start" x="509" y="-79.5" font-family="Helvetica" font-size="10.00">llvm::iterator_facade</text>
<text text-anchor="start" x="509" y="-68.5" font-family="Helvetica" font-size="10.00">_base&lt; FunctionRecordIterator,</text>
<text text-anchor="start" x="509" y="-57.5" font-family="Helvetica" font-size="10.00"> std::forward_iterator_tag,</text>
<text text-anchor="middle" x="578" y="-46.5" font-family="Helvetica" font-size="10.00"> FunctionRecord &gt;</text>
</a>
</g>
</g>
<!-- Node2&#45;&gt;Node1 -->
<g id="edge1" class="edge">
<title>Node2&#45;&gt;Node1</title>
<path fill="none" stroke="midnightblue" d="M665.23,-65.5C674.22,-65.5 683.22,-65.5 691.84,-65.5"/>
<polygon fill="midnightblue" stroke="midnightblue" points="665.1,-62 655.1,-65.5 665.1,-69 665.1,-62"/>
</g>
<!-- Node3 -->
<g id="node3" class="node">
<title>Node3</title>
<g id="a_node3"><a xlink:title=" ">
<polygon fill="none" stroke="#bfbfbf" points="205.5,-72 205.5,-135 327.5,-135 327.5,-72 205.5,-72"/>
<text text-anchor="start" x="213.5" y="-123" font-family="Helvetica" font-size="10.00">std::iterator&lt; std</text>
<text text-anchor="start" x="213.5" y="-112" font-family="Helvetica" font-size="10.00">::forward_iterator_tag,</text>
<text text-anchor="start" x="213.5" y="-101" font-family="Helvetica" font-size="10.00"> FunctionRecord, std::</text>
<text text-anchor="start" x="213.5" y="-90" font-family="Helvetica" font-size="10.00">ptrdiff_t, FunctionRecord</text>
<text text-anchor="middle" x="266.5" y="-79" font-family="Helvetica" font-size="10.00"> *, FunctionRecord &amp; &gt;</text>
</a>
</g>
</g>
<!-- Node3&#45;&gt;Node2 -->
<g id="edge2" class="edge">
<title>Node3&#45;&gt;Node2</title>
<path fill="none" stroke="midnightblue" d="M338.07,-95.71C380.17,-90.96 434.68,-84.64 483,-78.5 488.8,-77.76 494.8,-76.98 500.83,-76.18"/>
<polygon fill="midnightblue" stroke="midnightblue" points="337.47,-92.25 327.92,-96.85 338.25,-99.21 337.47,-92.25"/>
</g>
<!-- Node4 -->
<g id="node4" class="node">
<title>Node4</title>
<g id="a_node4"><a xlink:href="classllvm_1_1iterator__facade__base.html" target="_top" xlink:title="CRTP base class which implements the entire standard iterator facade in terms of a minimal subset of ...">
<polygon fill="none" stroke="black" points="183,-0.5 183,-52.5 350,-52.5 350,-0.5 183,-0.5"/>
<text text-anchor="start" x="191" y="-40.5" font-family="Helvetica" font-size="10.00">llvm::iterator_facade</text>
<text text-anchor="start" x="191" y="-29.5" font-family="Helvetica" font-size="10.00">_base&lt; DerivedT, IteratorCategory</text>
<text text-anchor="start" x="191" y="-18.5" font-family="Helvetica" font-size="10.00">T, T, DifferenceTypeT, PointerT,</text>
<text text-anchor="middle" x="266.5" y="-7.5" font-family="Helvetica" font-size="10.00"> ReferenceT &gt;</text>
</a>
</g>
</g>
<!-- Node4&#45;&gt;Node2 -->
<g id="edge3" class="edge">
<title>Node4&#45;&gt;Node2</title>
<path fill="none" stroke="orange" stroke-dasharray="5,2" d="M360.11,-29.28C398.33,-31.38 442.98,-35.05 483,-41.5 488.82,-42.44 494.81,-43.57 500.8,-44.82"/>
<polygon fill="orange" stroke="orange" points="360.19,-25.78 350.02,-28.75 359.82,-32.77 360.19,-25.78"/>
<text text-anchor="start" x="368" y="-66.5" font-family="Helvetica" font-size="10.00"> &lt; FunctionRecordIterator,</text>
<text text-anchor="start" x="368" y="-55.5" font-family="Helvetica" font-size="10.00"> std::forward_iterator</text>
<text text-anchor="middle" x="425.5" y="-44.5" font-family="Helvetica" font-size="10.00">_tag, FunctionRecord &gt;</text>
</g>
<!-- Node5 -->
<g id="node5" class="node">
<title>Node5</title>
<g id="a_node5"><a xlink:title=" ">
<polygon fill="none" stroke="#bfbfbf" points="0,-11.5 0,-41.5 146,-41.5 146,-11.5 0,-11.5"/>
<text text-anchor="start" x="8" y="-29.5" font-family="Helvetica" font-size="10.00">std::iterator&lt; IteratorCategory</text>
<text text-anchor="middle" x="73" y="-18.5" font-family="Helvetica" font-size="10.00">T, T, std::ptrdiff_t, T *, T &amp; &gt;</text>
</a>
</g>
</g>
<!-- Node5&#45;&gt;Node4 -->
<g id="edge4" class="edge">
<title>Node5&#45;&gt;Node4</title>
<path fill="none" stroke="midnightblue" d="M156.34,-26.5C165.12,-26.5 174.05,-26.5 182.83,-26.5"/>
<polygon fill="midnightblue" stroke="midnightblue" points="156.13,-23 146.13,-26.5 156.13,-30 156.13,-23"/>
</g>
</g>
</svg>
