<?xml version="1.0" encoding="UTF-8" standalone="no"?>
<!DOCTYPE svg PUBLIC "-//W3C//DTD SVG 1.1//EN"
 "http://www.w3.org/Graphics/SVG/1.1/DTD/svg11.dtd">
<!-- Generated by graphviz version 2.44.0 (0)
 -->
<!-- Title: llvm::Function Pages: 1 -->
<svg width="1072pt" height="138pt"
 viewBox="0.00 0.00 1072.00 137.50" xmlns="http://www.w3.org/2000/svg" xmlns:xlink="http://www.w3.org/1999/xlink">
<g id="graph0" class="graph" transform="scale(1 1) rotate(0) translate(4 133.5)">
<title>llvm::Function</title>
<!-- Node1 -->
<g id="node1" class="node">
<title>Node1</title>
<g id="a_node1"><a xlink:title=" ">
<polygon fill="#bfbfbf" stroke="black" points="986,-90 986,-109 1064,-109 1064,-90 986,-90"/>
<text text-anchor="middle" x="1025" y="-97" font-family="Helvetica" font-size="10.00">llvm::Function</text>
</a>
</g>
</g>
<!-- Node2 -->
<g id="node2" class="node">
<title>Node2</title>
<g id="a_node2"><a xlink:href="classllvm_1_1GlobalObject.html" target="_top" xlink:title=" ">
<polygon fill="none" stroke="black" points="832,-110 832,-129 929,-129 929,-110 832,-110"/>
<text text-anchor="middle" x="880.5" y="-117" font-family="Helvetica" font-size="10.00">llvm::GlobalObject</text>
</a>
</g>
</g>
<!-- Node2&#45;&gt;Node1 -->
<g id="edge1" class="edge">
<title>Node2&#45;&gt;Node1</title>
<path fill="none" stroke="midnightblue" d="M939.48,-111.36C955.14,-109.16 971.69,-106.84 985.96,-104.84"/>
<polygon fill="midnightblue" stroke="midnightblue" points="938.76,-107.93 929.35,-112.78 939.74,-114.86 938.76,-107.93"/>
</g>
<!-- Node3 -->
<g id="node3" class="node">
<title>Node3</title>
<g id="a_node3"><a xlink:href="classllvm_1_1GlobalValue.html" target="_top" xlink:title=" ">
<polygon fill="none" stroke="black" points="621.5,-110 621.5,-129 713.5,-129 713.5,-110 621.5,-110"/>
<text text-anchor="middle" x="667.5" y="-117" font-family="Helvetica" font-size="10.00">llvm::GlobalValue</text>
</a>
</g>
</g>
<!-- Node3&#45;&gt;Node2 -->
<g id="edge2" class="edge">
<title>Node3&#45;&gt;Node2</title>
<path fill="none" stroke="midnightblue" d="M723.64,-119.5C757.28,-119.5 799.85,-119.5 832,-119.5"/>
<polygon fill="midnightblue" stroke="midnightblue" points="723.51,-116 713.51,-119.5 723.51,-123 723.51,-116"/>
</g>
<!-- Node4 -->
<g id="node4" class="node">
<title>Node4</title>
<g id="a_node4"><a xlink:href="classllvm_1_1Constant.html" target="_top" xlink:title="This is an important base class in LLVM.">
<polygon fill="none" stroke="black" points="469.5,-110 469.5,-129 549.5,-129 549.5,-110 469.5,-110"/>
<text text-anchor="middle" x="509.5" y="-117" font-family="Helvetica" font-size="10.00">llvm::Constant</text>
</a>
</g>
</g>
<!-- Node4&#45;&gt;Node3 -->
<g id="edge3" class="edge">
<title>Node4&#45;&gt;Node3</title>
<path fill="none" stroke="midnightblue" d="M559.87,-119.5C579.57,-119.5 602.09,-119.5 621.35,-119.5"/>
<polygon fill="midnightblue" stroke="midnightblue" points="559.87,-116 549.87,-119.5 559.87,-123 559.87,-116"/>
</g>
<!-- Node5 -->
<g id="node5" class="node">
<title>Node5</title>
<g id="a_node5"><a xlink:href="classllvm_1_1User.html" target="_top" xlink:title=" ">
<polygon fill="none" stroke="black" points="191.5,-110 191.5,-129 253.5,-129 253.5,-110 191.5,-110"/>
<text text-anchor="middle" x="222.5" y="-117" font-family="Helvetica" font-size="10.00">llvm::User</text>
</a>
</g>
</g>
<!-- Node5&#45;&gt;Node4 -->
<g id="edge4" class="edge">
<title>Node5&#45;&gt;Node4</title>
<path fill="none" stroke="midnightblue" d="M264.06,-119.5C318.64,-119.5 415.07,-119.5 469.06,-119.5"/>
<polygon fill="midnightblue" stroke="midnightblue" points="263.73,-116 253.73,-119.5 263.73,-123 263.73,-116"/>
</g>
<!-- Node6 -->
<g id="node6" class="node">
<title>Node6</title>
<g id="a_node6"><a xlink:href="classllvm_1_1Value.html" target="_top" xlink:title="LLVM Value Representation.">
<polygon fill="none" stroke="black" points="34,-110 34,-129 99,-129 99,-110 34,-110"/>
<text text-anchor="middle" x="66.5" y="-117" font-family="Helvetica" font-size="10.00">llvm::Value</text>
</a>
</g>
</g>
<!-- Node6&#45;&gt;Node5 -->
<g id="edge5" class="edge">
<title>Node6&#45;&gt;Node5</title>
<path fill="none" stroke="midnightblue" d="M109.32,-119.5C135.23,-119.5 167.92,-119.5 191.32,-119.5"/>
<polygon fill="midnightblue" stroke="midnightblue" points="109.04,-116 99.04,-119.5 109.04,-123 109.04,-116"/>
</g>
<!-- Node7 -->
<g id="node7" class="node">
<title>Node7</title>
<g id="a_node7"><a xlink:href="classllvm_1_1ilist__node.html" target="_top" xlink:title=" ">
<polygon fill="none" stroke="black" points="812,-72 812,-91 949,-91 949,-72 812,-72"/>
<text text-anchor="middle" x="880.5" y="-79" font-family="Helvetica" font-size="10.00">llvm::ilist_node&lt; Function &gt;</text>
</a>
</g>
</g>
<!-- Node7&#45;&gt;Node1 -->
<g id="edge6" class="edge">
<title>Node7&#45;&gt;Node1</title>
<path fill="none" stroke="midnightblue" d="M959.35,-91.33C968.48,-92.49 977.47,-93.62 985.71,-94.66"/>
<polygon fill="midnightblue" stroke="midnightblue" points="959.77,-87.86 949.41,-90.08 958.89,-94.8 959.77,-87.86"/>
</g>
<!-- Node8 -->
<g id="node8" class="node">
<title>Node8</title>
<g id="a_node8"><a xlink:href="classllvm_1_1ilist__node__impl.html" target="_top" xlink:title="Implementation for an ilist node.">
<polygon fill="none" stroke="black" points="170,-29.5 170,-59.5 275,-59.5 275,-29.5 170,-29.5"/>
<text text-anchor="start" x="178" y="-47.5" font-family="Helvetica" font-size="10.00">llvm::ilist_node_impl</text>
<text text-anchor="middle" x="222.5" y="-36.5" font-family="Helvetica" font-size="10.00">&lt; OptionsT &gt;</text>
</a>
</g>
</g>
<!-- Node8&#45;&gt;Node7 -->
<g id="edge7" class="edge">
<title>Node8&#45;&gt;Node7</title>
<path fill="none" stroke="midnightblue" d="M272.24,-62.63C279.13,-64.6 286.18,-66.32 293,-67.5 478.4,-99.66 701.67,-92.69 811.58,-86.32"/>
<polygon fill="midnightblue" stroke="midnightblue" points="272.9,-59.17 262.31,-59.58 270.85,-65.86 272.9,-59.17"/>
</g>
<!-- Node11 -->
<g id="node11" class="node">
<title>Node11</title>
<g id="a_node11"><a xlink:href="classllvm_1_1ilist__node__impl.html" target="_top" xlink:title=" ">
<polygon fill="none" stroke="black" points="438,-0.5 438,-52.5 581,-52.5 581,-0.5 438,-0.5"/>
<text text-anchor="start" x="446" y="-40.5" font-family="Helvetica" font-size="10.00">llvm::ilist_node_impl</text>
<text text-anchor="start" x="446" y="-29.5" font-family="Helvetica" font-size="10.00">&lt; ilist_detail::compute</text>
<text text-anchor="start" x="446" y="-18.5" font-family="Helvetica" font-size="10.00">_node_options&lt; T, Options...</text>
<text text-anchor="middle" x="509.5" y="-7.5" font-family="Helvetica" font-size="10.00"> &gt;::type &gt;</text>
</a>
</g>
</g>
<!-- Node8&#45;&gt;Node11 -->
<g id="edge12" class="edge">
<title>Node8&#45;&gt;Node11</title>
<path fill="none" stroke="orange" stroke-dasharray="5,2" d="M285.23,-35.27C287.85,-34.99 290.45,-34.73 293,-34.5 341.1,-30.16 395.45,-28.16 437.53,-27.25"/>
<polygon fill="orange" stroke="orange" points="284.57,-31.83 275.04,-36.46 285.38,-38.78 284.57,-31.83"/>
<text text-anchor="start" x="293" y="-59.5" font-family="Helvetica" font-size="10.00"> &lt; ilist_detail::compute</text>
<text text-anchor="start" x="293" y="-48.5" font-family="Helvetica" font-size="10.00">_node_options&lt; T, Options...</text>
<text text-anchor="middle" x="356.5" y="-37.5" font-family="Helvetica" font-size="10.00"> &gt;::type &gt;</text>
</g>
<!-- Node9 -->
<g id="node9" class="node">
<title>Node9</title>
<g id="a_node9"><a xlink:title=" ">
<polygon fill="none" stroke="#bfbfbf" points="0,-9 0,-28 133,-28 133,-9 0,-9"/>
<text text-anchor="middle" x="66.5" y="-16" font-family="Helvetica" font-size="10.00">OptionsT::node_base_type</text>
</a>
</g>
</g>
<!-- Node9&#45;&gt;Node8 -->
<g id="edge8" class="edge">
<title>Node9&#45;&gt;Node8</title>
<path fill="none" stroke="#8b1a1a" d="M133.96,-29.72C145.99,-31.75 158.37,-33.84 169.89,-35.79"/>
<polygon fill="#8b1a1a" stroke="#8b1a1a" points="134.41,-26.25 123.97,-28.03 133.25,-33.15 134.41,-26.25"/>
</g>
<!-- Node9&#45;&gt;Node11 -->
<g id="edge11" class="edge">
<title>Node9&#45;&gt;Node11</title>
<path fill="none" stroke="#8b1a1a" d="M143.42,-19.03C182.7,-19.36 231.42,-19.84 275,-20.5 339.45,-21.48 355.57,-21.74 420,-23.5 425.84,-23.66 431.9,-23.84 437.98,-24.03"/>
<polygon fill="#8b1a1a" stroke="#8b1a1a" points="143.41,-15.53 133.39,-18.95 143.36,-22.53 143.41,-15.53"/>
</g>
<!-- Node10 -->
<g id="node10" class="node">
<title>Node10</title>
<g id="a_node10"><a xlink:href="classllvm_1_1ilist__node.html" target="_top" xlink:title=" ">
<polygon fill="none" stroke="black" points="618,-19.5 618,-49.5 717,-49.5 717,-19.5 618,-19.5"/>
<text text-anchor="start" x="626" y="-37.5" font-family="Helvetica" font-size="10.00">llvm::ilist_node&lt; T,</text>
<text text-anchor="middle" x="667.5" y="-26.5" font-family="Helvetica" font-size="10.00"> Options &gt;</text>
</a>
</g>
</g>
<!-- Node10&#45;&gt;Node7 -->
<g id="edge9" class="edge">
<title>Node10&#45;&gt;Node7</title>
<path fill="none" stroke="orange" stroke-dasharray="5,2" d="M727.17,-43.4C748.33,-46.97 772.34,-51.45 794,-56.5 812.68,-60.85 833.32,-66.85 849.64,-71.89"/>
<polygon fill="orange" stroke="orange" points="727.46,-39.9 717.03,-41.72 726.32,-46.81 727.46,-39.9"/>
<text text-anchor="middle" x="764.5" y="-59.5" font-family="Helvetica" font-size="10.00"> &lt; Function &gt;</text>
</g>
<!-- Node11&#45;&gt;Node10 -->
<g id="edge10" class="edge">
<title>Node11&#45;&gt;Node10</title>
<path fill="none" stroke="midnightblue" d="M591.41,-30.65C600.46,-31.11 609.46,-31.57 617.92,-32.01"/>
<polygon fill="midnightblue" stroke="midnightblue" points="591.36,-27.14 581.2,-30.13 591,-34.13 591.36,-27.14"/>
</g>
</g>
</svg>
