<?xml version="1.0" encoding="UTF-8" standalone="no"?>
<!DOCTYPE svg PUBLIC "-//W3C//DTD SVG 1.1//EN"
 "http://www.w3.org/Graphics/SVG/1.1/DTD/svg11.dtd">
<!-- Generated by graphviz version 2.44.0 (0)
 -->
<!-- Title: llvm::MachinePostDominatorTree Pages: 1 -->
<svg width="169pt" height="196pt"
 viewBox="0.00 0.00 169.00 196.00" xmlns="http://www.w3.org/2000/svg" xmlns:xlink="http://www.w3.org/1999/xlink">
<g id="graph0" class="graph" transform="scale(1 1) rotate(0) translate(4 192)">
<title>llvm::MachinePostDominatorTree</title>
<!-- Node1 -->
<g id="node1" class="node">
<title>Node1</title>
<g id="a_node1"><a xlink:title="MachinePostDominatorTree &#45; an analysis pass wrapper for DominatorTree used to compute the post&#45;domina...">
<polygon fill="#bfbfbf" stroke="black" points="0,-0.5 0,-19.5 161,-19.5 161,-0.5 0,-0.5"/>
<text text-anchor="middle" x="80.5" y="-7.5" font-family="Helvetica" font-size="10.00">llvm::MachinePostDominatorTree</text>
</a>
</g>
</g>
<!-- Node2 -->
<g id="node2" class="node">
<title>Node2</title>
<g id="a_node2"><a xlink:href="classllvm_1_1MachineFunctionPass.html" target="_top" xlink:title="MachineFunctionPass &#45; This class adapts the FunctionPass interface to allow convenient creation of pa...">
<polygon fill="none" stroke="black" points="12,-56.5 12,-75.5 149,-75.5 149,-56.5 12,-56.5"/>
<text text-anchor="middle" x="80.5" y="-63.5" font-family="Helvetica" font-size="10.00">llvm::MachineFunctionPass</text>
</a>
</g>
</g>
<!-- Node2&#45;&gt;Node1 -->
<g id="edge1" class="edge">
<title>Node2&#45;&gt;Node1</title>
<path fill="none" stroke="midnightblue" d="M80.5,-45.8C80.5,-36.91 80.5,-26.78 80.5,-19.75"/>
<polygon fill="midnightblue" stroke="midnightblue" points="77,-46.08 80.5,-56.08 84,-46.08 77,-46.08"/>
</g>
<!-- Node3 -->
<g id="node3" class="node">
<title>Node3</title>
<g id="a_node3"><a xlink:href="classllvm_1_1FunctionPass.html" target="_top" xlink:title="FunctionPass class &#45; This class is used to implement most global optimizations.">
<polygon fill="none" stroke="black" points="30,-112.5 30,-131.5 131,-131.5 131,-112.5 30,-112.5"/>
<text text-anchor="middle" x="80.5" y="-119.5" font-family="Helvetica" font-size="10.00">llvm::FunctionPass</text>
</a>
</g>
</g>
<!-- Node3&#45;&gt;Node2 -->
<g id="edge2" class="edge">
<title>Node3&#45;&gt;Node2</title>
<path fill="none" stroke="midnightblue" d="M80.5,-101.8C80.5,-92.91 80.5,-82.78 80.5,-75.75"/>
<polygon fill="midnightblue" stroke="midnightblue" points="77,-102.08 80.5,-112.08 84,-102.08 77,-102.08"/>
</g>
<!-- Node4 -->
<g id="node4" class="node">
<title>Node4</title>
<g id="a_node4"><a xlink:href="classllvm_1_1Pass.html" target="_top" xlink:title="Pass interface &#45; Implemented by all &#39;passes&#39;.">
<polygon fill="none" stroke="black" points="49,-168.5 49,-187.5 112,-187.5 112,-168.5 49,-168.5"/>
<text text-anchor="middle" x="80.5" y="-175.5" font-family="Helvetica" font-size="10.00">llvm::Pass</text>
</a>
</g>
</g>
<!-- Node4&#45;&gt;Node3 -->
<g id="edge3" class="edge">
<title>Node4&#45;&gt;Node3</title>
<path fill="none" stroke="midnightblue" d="M80.5,-157.8C80.5,-148.91 80.5,-138.78 80.5,-131.75"/>
<polygon fill="midnightblue" stroke="midnightblue" points="77,-158.08 80.5,-168.08 84,-158.08 77,-158.08"/>
</g>
</g>
</svg>
