<?xml version="1.0" encoding="UTF-8" standalone="no"?>
<!DOCTYPE svg PUBLIC "-//W3C//DTD SVG 1.1//EN"
 "http://www.w3.org/Graphics/SVG/1.1/DTD/svg11.dtd">
<!-- Generated by graphviz version 2.44.0 (0)
 -->
<!-- Title: llvm::GlobalVariable Pages: 1 -->
<svg width="1104pt" height="141pt"
 viewBox="0.00 0.00 1104.00 140.50" xmlns="http://www.w3.org/2000/svg" xmlns:xlink="http://www.w3.org/1999/xlink">
<g id="graph0" class="graph" transform="scale(1 1) rotate(0) translate(4 136.5)">
<title>llvm::GlobalVariable</title>
<!-- Node1 -->
<g id="node1" class="node">
<title>Node1</title>
<g id="a_node1"><a xlink:title=" ">
<polygon fill="#bfbfbf" stroke="black" points="993,-90 993,-109 1096,-109 1096,-90 993,-90"/>
<text text-anchor="middle" x="1044.5" y="-97" font-family="Helvetica" font-size="10.00">llvm::GlobalVariable</text>
</a>
</g>
</g>
<!-- Node2 -->
<g id="node2" class="node">
<title>Node2</title>
<g id="a_node2"><a xlink:href="classllvm_1_1GlobalObject.html" target="_top" xlink:title=" ">
<polygon fill="none" stroke="black" points="848,-113 848,-132 945,-132 945,-113 848,-113"/>
<text text-anchor="middle" x="896.5" y="-120" font-family="Helvetica" font-size="10.00">llvm::GlobalObject</text>
</a>
</g>
</g>
<!-- Node2&#45;&gt;Node1 -->
<g id="edge1" class="edge">
<title>Node2&#45;&gt;Node1</title>
<path fill="none" stroke="midnightblue" d="M955.5,-113.36C967.84,-111.42 980.78,-109.38 992.82,-107.48"/>
<polygon fill="midnightblue" stroke="midnightblue" points="954.64,-109.96 945.31,-114.97 955.73,-116.87 954.64,-109.96"/>
</g>
<!-- Node3 -->
<g id="node3" class="node">
<title>Node3</title>
<g id="a_node3"><a xlink:href="classllvm_1_1GlobalValue.html" target="_top" xlink:title=" ">
<polygon fill="none" stroke="black" points="621.5,-113 621.5,-132 713.5,-132 713.5,-113 621.5,-113"/>
<text text-anchor="middle" x="667.5" y="-120" font-family="Helvetica" font-size="10.00">llvm::GlobalValue</text>
</a>
</g>
</g>
<!-- Node3&#45;&gt;Node2 -->
<g id="edge2" class="edge">
<title>Node3&#45;&gt;Node2</title>
<path fill="none" stroke="midnightblue" d="M723.97,-122.5C761.88,-122.5 811.58,-122.5 847.73,-122.5"/>
<polygon fill="midnightblue" stroke="midnightblue" points="723.62,-119 713.62,-122.5 723.62,-126 723.62,-119"/>
</g>
<!-- Node4 -->
<g id="node4" class="node">
<title>Node4</title>
<g id="a_node4"><a xlink:href="classllvm_1_1Constant.html" target="_top" xlink:title="This is an important base class in LLVM.">
<polygon fill="none" stroke="black" points="469.5,-113 469.5,-132 549.5,-132 549.5,-113 469.5,-113"/>
<text text-anchor="middle" x="509.5" y="-120" font-family="Helvetica" font-size="10.00">llvm::Constant</text>
</a>
</g>
</g>
<!-- Node4&#45;&gt;Node3 -->
<g id="edge3" class="edge">
<title>Node4&#45;&gt;Node3</title>
<path fill="none" stroke="midnightblue" d="M559.87,-122.5C579.57,-122.5 602.09,-122.5 621.35,-122.5"/>
<polygon fill="midnightblue" stroke="midnightblue" points="559.87,-119 549.87,-122.5 559.87,-126 559.87,-119"/>
</g>
<!-- Node5 -->
<g id="node5" class="node">
<title>Node5</title>
<g id="a_node5"><a xlink:href="classllvm_1_1User.html" target="_top" xlink:title=" ">
<polygon fill="none" stroke="black" points="191.5,-113 191.5,-132 253.5,-132 253.5,-113 191.5,-113"/>
<text text-anchor="middle" x="222.5" y="-120" font-family="Helvetica" font-size="10.00">llvm::User</text>
</a>
</g>
</g>
<!-- Node5&#45;&gt;Node4 -->
<g id="edge4" class="edge">
<title>Node5&#45;&gt;Node4</title>
<path fill="none" stroke="midnightblue" d="M264.06,-122.5C318.64,-122.5 415.07,-122.5 469.06,-122.5"/>
<polygon fill="midnightblue" stroke="midnightblue" points="263.73,-119 253.73,-122.5 263.73,-126 263.73,-119"/>
</g>
<!-- Node6 -->
<g id="node6" class="node">
<title>Node6</title>
<g id="a_node6"><a xlink:href="classllvm_1_1Value.html" target="_top" xlink:title="LLVM Value Representation.">
<polygon fill="none" stroke="black" points="34,-113 34,-132 99,-132 99,-113 34,-113"/>
<text text-anchor="middle" x="66.5" y="-120" font-family="Helvetica" font-size="10.00">llvm::Value</text>
</a>
</g>
</g>
<!-- Node6&#45;&gt;Node5 -->
<g id="edge5" class="edge">
<title>Node6&#45;&gt;Node5</title>
<path fill="none" stroke="midnightblue" d="M109.32,-122.5C135.23,-122.5 167.92,-122.5 191.32,-122.5"/>
<polygon fill="midnightblue" stroke="midnightblue" points="109.04,-119 99.04,-122.5 109.04,-126 109.04,-119"/>
</g>
<!-- Node7 -->
<g id="node7" class="node">
<title>Node7</title>
<g id="a_node7"><a xlink:href="classllvm_1_1ilist__node.html" target="_top" xlink:title=" ">
<polygon fill="none" stroke="black" points="837,-63.5 837,-93.5 956,-93.5 956,-63.5 837,-63.5"/>
<text text-anchor="start" x="845" y="-81.5" font-family="Helvetica" font-size="10.00">llvm::ilist_node&lt; Global</text>
<text text-anchor="middle" x="896.5" y="-70.5" font-family="Helvetica" font-size="10.00">Variable &gt;</text>
</a>
</g>
</g>
<!-- Node7&#45;&gt;Node1 -->
<g id="edge6" class="edge">
<title>Node7&#45;&gt;Node1</title>
<path fill="none" stroke="midnightblue" d="M966.16,-88.38C975.18,-89.67 984.29,-90.98 992.94,-92.23"/>
<polygon fill="midnightblue" stroke="midnightblue" points="966.44,-84.88 956.04,-86.92 965.44,-91.81 966.44,-84.88"/>
</g>
<!-- Node8 -->
<g id="node8" class="node">
<title>Node8</title>
<g id="a_node8"><a xlink:href="classllvm_1_1ilist__node__impl.html" target="_top" xlink:title="Implementation for an ilist node.">
<polygon fill="none" stroke="black" points="170,-29.5 170,-59.5 275,-59.5 275,-29.5 170,-29.5"/>
<text text-anchor="start" x="178" y="-47.5" font-family="Helvetica" font-size="10.00">llvm::ilist_node_impl</text>
<text text-anchor="middle" x="222.5" y="-36.5" font-family="Helvetica" font-size="10.00">&lt; OptionsT &gt;</text>
</a>
</g>
</g>
<!-- Node8&#45;&gt;Node7 -->
<g id="edge7" class="edge">
<title>Node8&#45;&gt;Node7</title>
<path fill="none" stroke="midnightblue" d="M271.98,-62.59C278.95,-64.59 286.1,-66.32 293,-67.5 489.98,-101.09 728.41,-90.68 836.79,-83.23"/>
<polygon fill="midnightblue" stroke="midnightblue" points="272.52,-59.1 261.94,-59.5 270.47,-65.79 272.52,-59.1"/>
</g>
<!-- Node11 -->
<g id="node11" class="node">
<title>Node11</title>
<g id="a_node11"><a xlink:href="classllvm_1_1ilist__node__impl.html" target="_top" xlink:title=" ">
<polygon fill="none" stroke="black" points="438,-0.5 438,-52.5 581,-52.5 581,-0.5 438,-0.5"/>
<text text-anchor="start" x="446" y="-40.5" font-family="Helvetica" font-size="10.00">llvm::ilist_node_impl</text>
<text text-anchor="start" x="446" y="-29.5" font-family="Helvetica" font-size="10.00">&lt; ilist_detail::compute</text>
<text text-anchor="start" x="446" y="-18.5" font-family="Helvetica" font-size="10.00">_node_options&lt; T, Options...</text>
<text text-anchor="middle" x="509.5" y="-7.5" font-family="Helvetica" font-size="10.00"> &gt;::type &gt;</text>
</a>
</g>
</g>
<!-- Node8&#45;&gt;Node11 -->
<g id="edge12" class="edge">
<title>Node8&#45;&gt;Node11</title>
<path fill="none" stroke="orange" stroke-dasharray="5,2" d="M285.23,-35.27C287.85,-34.99 290.45,-34.73 293,-34.5 341.1,-30.16 395.45,-28.16 437.53,-27.25"/>
<polygon fill="orange" stroke="orange" points="284.57,-31.83 275.04,-36.46 285.38,-38.78 284.57,-31.83"/>
<text text-anchor="start" x="293" y="-59.5" font-family="Helvetica" font-size="10.00"> &lt; ilist_detail::compute</text>
<text text-anchor="start" x="293" y="-48.5" font-family="Helvetica" font-size="10.00">_node_options&lt; T, Options...</text>
<text text-anchor="middle" x="356.5" y="-37.5" font-family="Helvetica" font-size="10.00"> &gt;::type &gt;</text>
</g>
<!-- Node9 -->
<g id="node9" class="node">
<title>Node9</title>
<g id="a_node9"><a xlink:title=" ">
<polygon fill="none" stroke="#bfbfbf" points="0,-9 0,-28 133,-28 133,-9 0,-9"/>
<text text-anchor="middle" x="66.5" y="-16" font-family="Helvetica" font-size="10.00">OptionsT::node_base_type</text>
</a>
</g>
</g>
<!-- Node9&#45;&gt;Node8 -->
<g id="edge8" class="edge">
<title>Node9&#45;&gt;Node8</title>
<path fill="none" stroke="#8b1a1a" d="M133.96,-29.72C145.99,-31.75 158.37,-33.84 169.89,-35.79"/>
<polygon fill="#8b1a1a" stroke="#8b1a1a" points="134.41,-26.25 123.97,-28.03 133.25,-33.15 134.41,-26.25"/>
</g>
<!-- Node9&#45;&gt;Node11 -->
<g id="edge11" class="edge">
<title>Node9&#45;&gt;Node11</title>
<path fill="none" stroke="#8b1a1a" d="M143.42,-19.03C182.7,-19.36 231.42,-19.84 275,-20.5 339.45,-21.48 355.57,-21.74 420,-23.5 425.84,-23.66 431.9,-23.84 437.98,-24.03"/>
<polygon fill="#8b1a1a" stroke="#8b1a1a" points="143.41,-15.53 133.39,-18.95 143.36,-22.53 143.41,-15.53"/>
</g>
<!-- Node10 -->
<g id="node10" class="node">
<title>Node10</title>
<g id="a_node10"><a xlink:href="classllvm_1_1ilist__node.html" target="_top" xlink:title=" ">
<polygon fill="none" stroke="black" points="618,-19.5 618,-49.5 717,-49.5 717,-19.5 618,-19.5"/>
<text text-anchor="start" x="626" y="-37.5" font-family="Helvetica" font-size="10.00">llvm::ilist_node&lt; T,</text>
<text text-anchor="middle" x="667.5" y="-26.5" font-family="Helvetica" font-size="10.00"> Options &gt;</text>
</a>
</g>
</g>
<!-- Node10&#45;&gt;Node7 -->
<g id="edge9" class="edge">
<title>Node10&#45;&gt;Node7</title>
<path fill="none" stroke="orange" stroke-dasharray="5,2" d="M727.27,-41.22C755.22,-44.89 789,-50.02 819,-56.5 828.05,-58.45 837.6,-60.89 846.78,-63.43"/>
<polygon fill="orange" stroke="orange" points="727.62,-37.74 717.26,-39.94 726.73,-44.68 727.62,-37.74"/>
<text text-anchor="middle" x="777" y="-59.5" font-family="Helvetica" font-size="10.00"> &lt; GlobalVariable &gt;</text>
</g>
<!-- Node11&#45;&gt;Node10 -->
<g id="edge10" class="edge">
<title>Node11&#45;&gt;Node10</title>
<path fill="none" stroke="midnightblue" d="M591.41,-30.65C600.46,-31.11 609.46,-31.57 617.92,-32.01"/>
<polygon fill="midnightblue" stroke="midnightblue" points="591.36,-27.14 581.2,-30.13 591,-34.13 591.36,-27.14"/>
</g>
</g>
</svg>
