<?xml version="1.0" encoding="UTF-8" standalone="no"?>
<!DOCTYPE svg PUBLIC "-//W3C//DTD SVG 1.1//EN"
 "http://www.w3.org/Graphics/SVG/1.1/DTD/svg11.dtd">
<!-- Generated by graphviz version 2.44.0 (0)
 -->
<!-- Title: llvm::TargetTransformInfoImplCRTPBase&lt; T &gt; Pages: 1 -->
<svg width="943pt" height="1076pt"
 viewBox="0.00 0.00 943.00 1076.45" xmlns="http://www.w3.org/2000/svg" xmlns:xlink="http://www.w3.org/1999/xlink">
<g id="graph0" class="graph" transform="scale(1 1) rotate(0) translate(4 1072.45)">
<title>llvm::TargetTransformInfoImplCRTPBase&lt; T &gt;</title>
<!-- Node1 -->
<g id="node1" class="node">
<title>Node1</title>
<g id="a_node1"><a xlink:title="CRTP base class for use as a mix&#45;in that aids implementing a TargetTransformInfo&#45;compatible class.">
<polygon fill="#bfbfbf" stroke="black" points="165,-546.33 165,-576.33 293,-576.33 293,-546.33 165,-546.33"/>
<text text-anchor="start" x="173" y="-564.33" font-family="Helvetica" font-size="10.00">llvm::TargetTransformInfo</text>
<text text-anchor="middle" x="229" y="-553.33" font-family="Helvetica" font-size="10.00">ImplCRTPBase&lt; T &gt;</text>
</a>
</g>
</g>
<!-- Node3 -->
<g id="node3" class="node">
<title>Node3</title>
<g id="a_node3"><a xlink:href="classllvm_1_1BasicTTIImplBase.html" target="_top" xlink:title=" ">
<polygon fill="none" stroke="black" points="630,-775.33 630,-805.33 761,-805.33 761,-775.33 630,-775.33"/>
<text text-anchor="start" x="638" y="-793.33" font-family="Helvetica" font-size="10.00">llvm::BasicTTIImplBase</text>
<text text-anchor="middle" x="695.5" y="-782.33" font-family="Helvetica" font-size="10.00">&lt; WebAssemblyTTIImpl &gt;</text>
</a>
</g>
</g>
<!-- Node1&#45;&gt;Node3 -->
<g id="edge2" class="edge">
<title>Node1&#45;&gt;Node3</title>
<path fill="none" stroke="midnightblue" d="M241.16,-585.89C257.02,-618.6 288.79,-676.71 330,-714.33 390.94,-769.95 413.93,-781.4 494,-801.33 538.49,-812.39 590.17,-809.19 629.93,-803.45"/>
<polygon fill="midnightblue" stroke="midnightblue" points="244.2,-584.13 236.75,-576.6 237.88,-587.13 244.2,-584.13"/>
</g>
<!-- Node5 -->
<g id="node5" class="node">
<title>Node5</title>
<g id="a_node5"><a xlink:href="classllvm_1_1BasicTTIImplBase.html" target="_top" xlink:title=" ">
<polygon fill="none" stroke="black" points="634.5,-721.33 634.5,-751.33 756.5,-751.33 756.5,-721.33 634.5,-721.33"/>
<text text-anchor="start" x="642.5" y="-739.33" font-family="Helvetica" font-size="10.00">llvm::BasicTTIImplBase</text>
<text text-anchor="middle" x="695.5" y="-728.33" font-family="Helvetica" font-size="10.00">&lt; R600TTIImpl &gt;</text>
</a>
</g>
</g>
<!-- Node1&#45;&gt;Node5 -->
<g id="edge4" class="edge">
<title>Node1&#45;&gt;Node5</title>
<path fill="none" stroke="midnightblue" d="M248.42,-584.65C267.13,-607.21 297.85,-641.27 330,-664.33 395.59,-711.36 415.27,-724.56 494,-742.33 540.2,-752.75 593.9,-750.41 634.09,-745.92"/>
<polygon fill="midnightblue" stroke="midnightblue" points="250.89,-582.15 241.86,-576.62 245.47,-586.58 250.89,-582.15"/>
</g>
<!-- Node7 -->
<g id="node7" class="node">
<title>Node7</title>
<g id="a_node7"><a xlink:href="classllvm_1_1BasicTTIImplBase.html" target="_top" xlink:title=" ">
<polygon fill="none" stroke="black" points="634.5,-1029.33 634.5,-1059.33 756.5,-1059.33 756.5,-1029.33 634.5,-1029.33"/>
<text text-anchor="start" x="642.5" y="-1047.33" font-family="Helvetica" font-size="10.00">llvm::BasicTTIImplBase</text>
<text text-anchor="middle" x="695.5" y="-1036.33" font-family="Helvetica" font-size="10.00">&lt; BPFTTIImpl &gt;</text>
</a>
</g>
</g>
<!-- Node1&#45;&gt;Node7 -->
<g id="edge6" class="edge">
<title>Node1&#45;&gt;Node7</title>
<path fill="none" stroke="midnightblue" d="M232.45,-586.74C241.06,-671.06 272.59,-939.68 330,-1001.33 407.09,-1084.09 552.51,-1072.76 634.44,-1058.02"/>
<polygon fill="midnightblue" stroke="midnightblue" points="235.93,-586.35 231.45,-576.75 228.96,-587.05 235.93,-586.35"/>
</g>
<!-- Node9 -->
<g id="node9" class="node">
<title>Node9</title>
<g id="a_node9"><a xlink:href="classllvm_1_1BasicTTIImplBase.html" target="_top" xlink:title=" ">
<polygon fill="none" stroke="black" points="634.5,-980.33 634.5,-1010.33 756.5,-1010.33 756.5,-980.33 634.5,-980.33"/>
<text text-anchor="start" x="642.5" y="-998.33" font-family="Helvetica" font-size="10.00">llvm::BasicTTIImplBase</text>
<text text-anchor="middle" x="695.5" y="-987.33" font-family="Helvetica" font-size="10.00">&lt; ARCTTIImpl &gt;</text>
</a>
</g>
</g>
<!-- Node1&#45;&gt;Node9 -->
<g id="edge8" class="edge">
<title>Node1&#45;&gt;Node9</title>
<path fill="none" stroke="midnightblue" d="M230.18,-586.81C231.91,-652.56 244.7,-830.55 330,-942.33 381.1,-1009.29 412.65,-1015.47 494,-1037.33 544.65,-1050.94 563.27,-1056.7 612,-1037.33 622.23,-1033.26 620.7,-1026.2 630,-1020.33 635.89,-1016.61 642.42,-1013.29 649,-1010.38"/>
<polygon fill="midnightblue" stroke="midnightblue" points="233.68,-586.49 229.98,-576.56 226.68,-586.63 233.68,-586.49"/>
</g>
<!-- Node11 -->
<g id="node11" class="node">
<title>Node11</title>
<g id="a_node11"><a xlink:href="classllvm_1_1BasicTTIImplBase.html" target="_top" xlink:title=" ">
<polygon fill="none" stroke="black" points="634.5,-662.33 634.5,-692.33 756.5,-692.33 756.5,-662.33 634.5,-662.33"/>
<text text-anchor="start" x="642.5" y="-680.33" font-family="Helvetica" font-size="10.00">llvm::BasicTTIImplBase</text>
<text text-anchor="middle" x="695.5" y="-669.33" font-family="Helvetica" font-size="10.00">&lt; X86TTIImpl &gt;</text>
</a>
</g>
</g>
<!-- Node1&#45;&gt;Node11 -->
<g id="edge10" class="edge">
<title>Node1&#45;&gt;Node11</title>
<path fill="none" stroke="midnightblue" d="M260.94,-581.92C308.56,-612.1 403.75,-666.59 494,-683.33 540.57,-691.96 594.24,-689.73 634.33,-685.74"/>
<polygon fill="midnightblue" stroke="midnightblue" points="262.65,-578.86 252.35,-576.4 258.87,-584.75 262.65,-578.86"/>
</g>
<!-- Node13 -->
<g id="node13" class="node">
<title>Node13</title>
<g id="a_node13"><a xlink:href="classllvm_1_1BasicTTIImplBase.html" target="_top" xlink:title=" ">
<polygon fill="none" stroke="black" points="634.5,-930.33 634.5,-960.33 756.5,-960.33 756.5,-930.33 634.5,-930.33"/>
<text text-anchor="start" x="642.5" y="-948.33" font-family="Helvetica" font-size="10.00">llvm::BasicTTIImplBase</text>
<text text-anchor="middle" x="695.5" y="-937.33" font-family="Helvetica" font-size="10.00">&lt; XCoreTTIImpl &gt;</text>
</a>
</g>
</g>
<!-- Node1&#45;&gt;Node13 -->
<g id="edge12" class="edge">
<title>Node1&#45;&gt;Node13</title>
<path fill="none" stroke="midnightblue" d="M231.7,-586.75C236.81,-645.24 256.6,-791.33 330,-883.33 382.54,-949.17 412.65,-956.47 494,-978.33 544.65,-991.94 560.5,-988.24 612,-978.33 612.64,-978.2 635.55,-969.03 657.06,-960.39"/>
<polygon fill="midnightblue" stroke="midnightblue" points="235.17,-586.26 230.88,-576.58 228.19,-586.82 235.17,-586.26"/>
</g>
<!-- Node15 -->
<g id="node15" class="node">
<title>Node15</title>
<g id="a_node15"><a xlink:href="classllvm_1_1BasicTTIImplBase.html" target="_top" xlink:title=" ">
<polygon fill="none" stroke="black" points="634.5,-593.33 634.5,-623.33 756.5,-623.33 756.5,-593.33 634.5,-593.33"/>
<text text-anchor="start" x="642.5" y="-611.33" font-family="Helvetica" font-size="10.00">llvm::BasicTTIImplBase</text>
<text text-anchor="middle" x="695.5" y="-600.33" font-family="Helvetica" font-size="10.00">&lt; BasicTTIImpl &gt;</text>
</a>
</g>
</g>
<!-- Node1&#45;&gt;Node15 -->
<g id="edge14" class="edge">
<title>Node1&#45;&gt;Node15</title>
<path fill="none" stroke="midnightblue" d="M287.94,-579.3C340.96,-594.75 421.9,-615.84 494,-624.33 546.09,-630.45 559.8,-629.34 612,-624.33 619.26,-623.63 626.83,-622.59 634.32,-621.38"/>
<polygon fill="midnightblue" stroke="midnightblue" points="288.63,-575.85 278.04,-576.39 286.65,-582.57 288.63,-575.85"/>
</g>
<!-- Node17 -->
<g id="node17" class="node">
<title>Node17</title>
<g id="a_node17"><a xlink:href="classllvm_1_1BasicTTIImplBase.html" target="_top" xlink:title=" ">
<polygon fill="none" stroke="black" points="634.5,-826.33 634.5,-856.33 756.5,-856.33 756.5,-826.33 634.5,-826.33"/>
<text text-anchor="start" x="642.5" y="-844.33" font-family="Helvetica" font-size="10.00">llvm::BasicTTIImplBase</text>
<text text-anchor="middle" x="695.5" y="-833.33" font-family="Helvetica" font-size="10.00">&lt; AArch64TTIImpl &gt;</text>
</a>
</g>
</g>
<!-- Node1&#45;&gt;Node17 -->
<g id="edge16" class="edge">
<title>Node1&#45;&gt;Node17</title>
<path fill="none" stroke="midnightblue" d="M236.56,-586.23C248.74,-628.4 278.42,-714.64 330,-769.33 387.2,-829.97 413.3,-839.44 494,-860.33 542.57,-872.9 599.69,-865.41 640.51,-856.39"/>
<polygon fill="midnightblue" stroke="midnightblue" points="239.9,-585.18 233.83,-576.5 233.16,-587.07 239.9,-585.18"/>
</g>
<!-- Node19 -->
<g id="node19" class="node">
<title>Node19</title>
<g id="a_node19"><a xlink:href="classllvm_1_1BasicTTIImplBase.html" target="_top" xlink:title=" ">
<polygon fill="none" stroke="black" points="634.5,-309.33 634.5,-339.33 756.5,-339.33 756.5,-309.33 634.5,-309.33"/>
<text text-anchor="start" x="642.5" y="-327.33" font-family="Helvetica" font-size="10.00">llvm::BasicTTIImplBase</text>
<text text-anchor="middle" x="695.5" y="-316.33" font-family="Helvetica" font-size="10.00">&lt; VETTIImpl &gt;</text>
</a>
</g>
</g>
<!-- Node1&#45;&gt;Node19 -->
<g id="edge18" class="edge">
<title>Node1&#45;&gt;Node19</title>
<path fill="none" stroke="midnightblue" d="M231.09,-536.07C234.91,-481.43 252.16,-352.13 330,-289.33 427.87,-210.36 499.53,-210.09 612,-266.33 623.93,-272.29 619.86,-281.67 630,-290.33 638.67,-297.72 649.21,-304.12 659.24,-309.3"/>
<polygon fill="midnightblue" stroke="midnightblue" points="227.58,-536.06 230.47,-546.25 234.57,-536.48 227.58,-536.06"/>
</g>
<!-- Node21 -->
<g id="node21" class="node">
<title>Node21</title>
<g id="a_node21"><a xlink:href="classllvm_1_1BasicTTIImplBase.html" target="_top" xlink:title=" ">
<polygon fill="none" stroke="black" points="634.5,-524.33 634.5,-554.33 756.5,-554.33 756.5,-524.33 634.5,-524.33"/>
<text text-anchor="start" x="642.5" y="-542.33" font-family="Helvetica" font-size="10.00">llvm::BasicTTIImplBase</text>
<text text-anchor="middle" x="695.5" y="-531.33" font-family="Helvetica" font-size="10.00">&lt; GCNTTIImpl &gt;</text>
</a>
</g>
</g>
<!-- Node1&#45;&gt;Node21 -->
<g id="edge20" class="edge">
<title>Node1&#45;&gt;Node21</title>
<path fill="none" stroke="midnightblue" d="M269.2,-541.73C339.9,-509.2 492.54,-451.91 612,-497.33 622,-501.13 620.9,-507.69 630,-513.33 636.57,-517.4 643.88,-521.06 651.16,-524.26"/>
<polygon fill="midnightblue" stroke="midnightblue" points="267.35,-538.74 259.78,-546.15 270.32,-545.07 267.35,-538.74"/>
</g>
<!-- Node23 -->
<g id="node23" class="node">
<title>Node23</title>
<g id="a_node23"><a xlink:href="classllvm_1_1BasicTTIImplBase.html" target="_top" xlink:title=" ">
<polygon fill="none" stroke="black" points="634.5,-423.33 634.5,-453.33 756.5,-453.33 756.5,-423.33 634.5,-423.33"/>
<text text-anchor="start" x="642.5" y="-441.33" font-family="Helvetica" font-size="10.00">llvm::BasicTTIImplBase</text>
<text text-anchor="middle" x="695.5" y="-430.33" font-family="Helvetica" font-size="10.00">&lt; RISCVTTIImpl &gt;</text>
</a>
</g>
</g>
<!-- Node1&#45;&gt;Node23 -->
<g id="edge22" class="edge">
<title>Node1&#45;&gt;Node23</title>
<path fill="none" stroke="midnightblue" d="M240.48,-536.67C255.43,-504.68 286.03,-449.61 330,-421.33 436.08,-353.09 495.46,-341.05 612,-389.33 622.45,-393.65 620.77,-400.78 630,-407.33 638.51,-413.36 648.38,-418.77 657.81,-423.32"/>
<polygon fill="midnightblue" stroke="midnightblue" points="237.11,-535.63 236.18,-546.18 243.49,-538.51 237.11,-535.63"/>
</g>
<!-- Node25 -->
<g id="node25" class="node">
<title>Node25</title>
<g id="a_node25"><a xlink:href="classllvm_1_1BasicTTIImplBase.html" target="_top" xlink:title=" ">
<polygon fill="none" stroke="black" points="634.5,-368.33 634.5,-398.33 756.5,-398.33 756.5,-368.33 634.5,-368.33"/>
<text text-anchor="start" x="642.5" y="-386.33" font-family="Helvetica" font-size="10.00">llvm::BasicTTIImplBase</text>
<text text-anchor="middle" x="695.5" y="-375.33" font-family="Helvetica" font-size="10.00">&lt; LanaiTTIImpl &gt;</text>
</a>
</g>
</g>
<!-- Node1&#45;&gt;Node25 -->
<g id="edge24" class="edge">
<title>Node1&#45;&gt;Node25</title>
<path fill="none" stroke="midnightblue" d="M234.69,-536.23C244.28,-492.43 270.44,-402.41 330,-357.33 430.49,-281.25 497.49,-274.66 612,-327.33 623.17,-332.46 620.44,-340.6 630,-348.33 639.41,-355.93 650.72,-362.71 661.22,-368.23"/>
<polygon fill="midnightblue" stroke="midnightblue" points="231.25,-535.57 232.65,-546.07 238.11,-536.99 231.25,-535.57"/>
</g>
<!-- Node27 -->
<g id="node27" class="node">
<title>Node27</title>
<g id="a_node27"><a xlink:href="classllvm_1_1BasicTTIImplBase.html" target="_top" xlink:title=" ">
<polygon fill="none" stroke="black" points="634.5,-136.33 634.5,-166.33 756.5,-166.33 756.5,-136.33 634.5,-136.33"/>
<text text-anchor="start" x="642.5" y="-154.33" font-family="Helvetica" font-size="10.00">llvm::BasicTTIImplBase</text>
<text text-anchor="middle" x="695.5" y="-143.33" font-family="Helvetica" font-size="10.00">&lt; ARMTTIImpl &gt;</text>
</a>
</g>
</g>
<!-- Node1&#45;&gt;Node27 -->
<g id="edge26" class="edge">
<title>Node1&#45;&gt;Node27</title>
<path fill="none" stroke="midnightblue" d="M231.95,-535.99C239.14,-449.47 267.08,-167.67 330,-107.33 420.93,-20.11 494.18,-33.68 612,-78.33 642.4,-89.85 668.81,-118.26 683.12,-136.05"/>
<polygon fill="midnightblue" stroke="midnightblue" points="228.44,-535.96 231.12,-546.21 235.42,-536.53 228.44,-535.96"/>
</g>
<!-- Node29 -->
<g id="node29" class="node">
<title>Node29</title>
<g id="a_node29"><a xlink:href="classllvm_1_1BasicTTIImplBase.html" target="_top" xlink:title=" ">
<polygon fill="none" stroke="black" points="634.5,-47.33 634.5,-77.33 756.5,-77.33 756.5,-47.33 634.5,-47.33"/>
<text text-anchor="start" x="642.5" y="-65.33" font-family="Helvetica" font-size="10.00">llvm::BasicTTIImplBase</text>
<text text-anchor="middle" x="695.5" y="-54.33" font-family="Helvetica" font-size="10.00">&lt; NVPTXTTIImpl &gt;</text>
</a>
</g>
</g>
<!-- Node1&#45;&gt;Node29 -->
<g id="edge28" class="edge">
<title>Node1&#45;&gt;Node29</title>
<path fill="none" stroke="midnightblue" d="M230.75,-535.9C234.14,-440.18 251.57,-103.78 330,-40.33 427.59,38.63 592.26,-17.71 661.88,-47.29"/>
<polygon fill="midnightblue" stroke="midnightblue" points="227.24,-535.99 230.41,-546.1 234.24,-536.22 227.24,-535.99"/>
</g>
<!-- Node31 -->
<g id="node31" class="node">
<title>Node31</title>
<g id="a_node31"><a xlink:href="classllvm_1_1BasicTTIImplBase.html" target="_top" xlink:title=" ">
<polygon fill="none" stroke="black" points="634.5,-879.33 634.5,-909.33 756.5,-909.33 756.5,-879.33 634.5,-879.33"/>
<text text-anchor="start" x="642.5" y="-897.33" font-family="Helvetica" font-size="10.00">llvm::BasicTTIImplBase</text>
<text text-anchor="middle" x="695.5" y="-886.33" font-family="Helvetica" font-size="10.00">&lt; HexagonTTIImpl &gt;</text>
</a>
</g>
</g>
<!-- Node1&#45;&gt;Node31 -->
<g id="edge30" class="edge">
<title>Node1&#45;&gt;Node31</title>
<path fill="none" stroke="midnightblue" d="M233.74,-586.63C242.37,-637.28 267.92,-752.55 330,-825.33 384.52,-889.24 412.82,-897.71 494,-919.33 544.68,-932.82 560.12,-927.01 612,-919.33 625.77,-917.29 640.42,-913.43 653.5,-909.34"/>
<polygon fill="midnightblue" stroke="midnightblue" points="237.16,-585.87 232.1,-576.56 230.25,-586.99 237.16,-585.87"/>
</g>
<!-- Node33 -->
<g id="node33" class="node">
<title>Node33</title>
<g id="a_node33"><a xlink:href="classllvm_1_1BasicTTIImplBase.html" target="_top" xlink:title=" ">
<polygon fill="none" stroke="black" points="634.5,-193.33 634.5,-223.33 756.5,-223.33 756.5,-193.33 634.5,-193.33"/>
<text text-anchor="start" x="642.5" y="-211.33" font-family="Helvetica" font-size="10.00">llvm::BasicTTIImplBase</text>
<text text-anchor="middle" x="695.5" y="-200.33" font-family="Helvetica" font-size="10.00">&lt; PPCTTIImpl &gt;</text>
</a>
</g>
</g>
<!-- Node1&#45;&gt;Node33 -->
<g id="edge32" class="edge">
<title>Node1&#45;&gt;Node33</title>
<path fill="none" stroke="midnightblue" d="M233.16,-536.18C243.24,-459.95 277.15,-233.67 330,-185.33 423.31,-99.96 501,-86.72 612,-147.33 624.98,-154.41 619.04,-165.39 630,-175.33 637.83,-182.42 647.47,-188.41 656.88,-193.26"/>
<polygon fill="midnightblue" stroke="midnightblue" points="229.66,-535.93 231.84,-546.3 236.6,-536.83 229.66,-535.93"/>
</g>
<!-- Node35 -->
<g id="node35" class="node">
<title>Node35</title>
<g id="a_node35"><a xlink:href="classllvm_1_1BasicTTIImplBase.html" target="_top" xlink:title=" ">
<polygon fill="none" stroke="black" points="634.5,-251.33 634.5,-281.33 756.5,-281.33 756.5,-251.33 634.5,-251.33"/>
<text text-anchor="start" x="642.5" y="-269.33" font-family="Helvetica" font-size="10.00">llvm::BasicTTIImplBase</text>
<text text-anchor="middle" x="695.5" y="-258.33" font-family="Helvetica" font-size="10.00">&lt; SystemZTTIImpl &gt;</text>
</a>
</g>
</g>
<!-- Node1&#45;&gt;Node35 -->
<g id="edge34" class="edge">
<title>Node1&#45;&gt;Node35</title>
<path fill="none" stroke="midnightblue" d="M233.78,-536.21C245.04,-465.02 280.64,-264.33 330,-223.33 378.29,-183.21 556.39,-177.19 612,-206.33 624.45,-212.85 619.48,-223 630,-232.33 638.34,-239.71 648.56,-246.04 658.4,-251.16"/>
<polygon fill="midnightblue" stroke="midnightblue" points="230.32,-535.7 232.24,-546.12 237.24,-536.77 230.32,-535.7"/>
</g>
<!-- Node37 -->
<g id="node37" class="node">
<title>Node37</title>
<g id="a_node37"><a xlink:href="classllvm_1_1BasicTTIImplBase.html" target="_top" xlink:title=" ">
<polygon fill="none" stroke="black" points="634.5,-474.33 634.5,-504.33 756.5,-504.33 756.5,-474.33 634.5,-474.33"/>
<text text-anchor="start" x="642.5" y="-492.33" font-family="Helvetica" font-size="10.00">llvm::BasicTTIImplBase</text>
<text text-anchor="middle" x="695.5" y="-481.33" font-family="Helvetica" font-size="10.00">&lt; AMDGPUTTIImpl &gt;</text>
</a>
</g>
</g>
<!-- Node1&#45;&gt;Node37 -->
<g id="edge36" class="edge">
<title>Node1&#45;&gt;Node37</title>
<path fill="none" stroke="midnightblue" d="M250.74,-538.65C269.55,-519.54 299,-493.02 330,-478.33 443.98,-424.29 494.1,-401.5 612,-446.33 622,-450.13 620.94,-456.63 630,-462.33 637.09,-466.79 645.04,-470.8 652.88,-474.29"/>
<polygon fill="midnightblue" stroke="midnightblue" points="248.01,-536.45 243.6,-546.08 253.05,-541.3 248.01,-536.45"/>
</g>
<!-- Node39 -->
<g id="node39" class="node">
<title>Node39</title>
<g id="a_node39"><a xlink:href="classllvm_1_1BasicTTIImplBase.html" target="_top" xlink:title="Base class which can be used to help build a TTI implementation.">
<polygon fill="none" stroke="black" points="330,-551.83 330,-570.83 476,-570.83 476,-551.83 330,-551.83"/>
<text text-anchor="middle" x="403" y="-558.83" font-family="Helvetica" font-size="10.00">llvm::BasicTTIImplBase&lt; T &gt;</text>
</a>
</g>
</g>
<!-- Node1&#45;&gt;Node39 -->
<g id="edge38" class="edge">
<title>Node1&#45;&gt;Node39</title>
<path fill="none" stroke="midnightblue" d="M303.31,-561.33C312.13,-561.33 321.12,-561.33 329.92,-561.33"/>
<polygon fill="midnightblue" stroke="midnightblue" points="303.07,-557.83 293.07,-561.33 303.07,-564.83 303.07,-557.83"/>
</g>
<!-- Node2 -->
<g id="node2" class="node">
<title>Node2</title>
<g id="a_node2"><a xlink:href="classllvm_1_1TargetTransformInfoImplBase.html" target="_top" xlink:title="Base class for use as a mix&#45;in that aids implementing a TargetTransformInfo&#45;compatible class.">
<polygon fill="none" stroke="black" points="0,-546.33 0,-576.33 128,-576.33 128,-546.33 0,-546.33"/>
<text text-anchor="start" x="8" y="-564.33" font-family="Helvetica" font-size="10.00">llvm::TargetTransformInfo</text>
<text text-anchor="middle" x="64" y="-553.33" font-family="Helvetica" font-size="10.00">ImplBase</text>
</a>
</g>
</g>
<!-- Node2&#45;&gt;Node1 -->
<g id="edge1" class="edge">
<title>Node2&#45;&gt;Node1</title>
<path fill="none" stroke="midnightblue" d="M138.05,-561.33C147,-561.33 156.09,-561.33 164.88,-561.33"/>
<polygon fill="midnightblue" stroke="midnightblue" points="138.02,-557.83 128.02,-561.33 138.02,-564.83 138.02,-557.83"/>
</g>
<!-- Node4 -->
<g id="node4" class="node">
<title>Node4</title>
<g id="a_node4"><a xlink:href="classllvm_1_1WebAssemblyTTIImpl.html" target="_top" xlink:title=" ">
<polygon fill="none" stroke="black" points="798,-780.83 798,-799.83 935,-799.83 935,-780.83 798,-780.83"/>
<text text-anchor="middle" x="866.5" y="-787.83" font-family="Helvetica" font-size="10.00">llvm::WebAssemblyTTIImpl</text>
</a>
</g>
</g>
<!-- Node3&#45;&gt;Node4 -->
<g id="edge3" class="edge">
<title>Node3&#45;&gt;Node4</title>
<path fill="none" stroke="midnightblue" d="M771.52,-790.33C780.25,-790.33 789.11,-790.33 797.74,-790.33"/>
<polygon fill="midnightblue" stroke="midnightblue" points="771.36,-786.83 761.36,-790.33 771.36,-793.83 771.36,-786.83"/>
</g>
<!-- Node6 -->
<g id="node6" class="node">
<title>Node6</title>
<g id="a_node6"><a xlink:href="classllvm_1_1R600TTIImpl.html" target="_top" xlink:title=" ">
<polygon fill="none" stroke="black" points="817.5,-726.83 817.5,-745.83 915.5,-745.83 915.5,-726.83 817.5,-726.83"/>
<text text-anchor="middle" x="866.5" y="-733.83" font-family="Helvetica" font-size="10.00">llvm::R600TTIImpl</text>
</a>
</g>
</g>
<!-- Node5&#45;&gt;Node6 -->
<g id="edge5" class="edge">
<title>Node5&#45;&gt;Node6</title>
<path fill="none" stroke="midnightblue" d="M766.98,-736.33C783.92,-736.33 801.64,-736.33 817.3,-736.33"/>
<polygon fill="midnightblue" stroke="midnightblue" points="766.56,-732.83 756.56,-736.33 766.56,-739.83 766.56,-732.83"/>
</g>
<!-- Node8 -->
<g id="node8" class="node">
<title>Node8</title>
<g id="a_node8"><a xlink:href="classllvm_1_1BPFTTIImpl.html" target="_top" xlink:title=" ">
<polygon fill="none" stroke="black" points="820,-1034.83 820,-1053.83 913,-1053.83 913,-1034.83 820,-1034.83"/>
<text text-anchor="middle" x="866.5" y="-1041.83" font-family="Helvetica" font-size="10.00">llvm::BPFTTIImpl</text>
</a>
</g>
</g>
<!-- Node7&#45;&gt;Node8 -->
<g id="edge7" class="edge">
<title>Node7&#45;&gt;Node8</title>
<path fill="none" stroke="midnightblue" d="M766.73,-1044.33C784.72,-1044.33 803.6,-1044.33 819.98,-1044.33"/>
<polygon fill="midnightblue" stroke="midnightblue" points="766.56,-1040.83 756.56,-1044.33 766.56,-1047.83 766.56,-1040.83"/>
</g>
<!-- Node10 -->
<g id="node10" class="node">
<title>Node10</title>
<g id="a_node10"><a xlink:href="classllvm_1_1ARCTTIImpl.html" target="_top" xlink:title=" ">
<polygon fill="none" stroke="black" points="819,-985.83 819,-1004.83 914,-1004.83 914,-985.83 819,-985.83"/>
<text text-anchor="middle" x="866.5" y="-992.83" font-family="Helvetica" font-size="10.00">llvm::ARCTTIImpl</text>
</a>
</g>
</g>
<!-- Node9&#45;&gt;Node10 -->
<g id="edge9" class="edge">
<title>Node9&#45;&gt;Node10</title>
<path fill="none" stroke="midnightblue" d="M766.79,-995.33C784.38,-995.33 802.8,-995.33 818.91,-995.33"/>
<polygon fill="midnightblue" stroke="midnightblue" points="766.56,-991.83 756.56,-995.33 766.56,-998.83 766.56,-991.83"/>
</g>
<!-- Node12 -->
<g id="node12" class="node">
<title>Node12</title>
<g id="a_node12"><a xlink:href="classllvm_1_1X86TTIImpl.html" target="_top" xlink:title=" ">
<polygon fill="none" stroke="black" points="820.5,-667.83 820.5,-686.83 912.5,-686.83 912.5,-667.83 820.5,-667.83"/>
<text text-anchor="middle" x="866.5" y="-674.83" font-family="Helvetica" font-size="10.00">llvm::X86TTIImpl</text>
</a>
</g>
</g>
<!-- Node11&#45;&gt;Node12 -->
<g id="edge11" class="edge">
<title>Node11&#45;&gt;Node12</title>
<path fill="none" stroke="midnightblue" d="M766.78,-677.33C784.85,-677.33 803.82,-677.33 820.25,-677.33"/>
<polygon fill="midnightblue" stroke="midnightblue" points="766.56,-673.83 756.56,-677.33 766.56,-680.83 766.56,-673.83"/>
</g>
<!-- Node14 -->
<g id="node14" class="node">
<title>Node14</title>
<g id="a_node14"><a xlink:href="classllvm_1_1XCoreTTIImpl.html" target="_top" xlink:title=" ">
<polygon fill="none" stroke="black" points="816,-935.83 816,-954.83 917,-954.83 917,-935.83 816,-935.83"/>
<text text-anchor="middle" x="866.5" y="-942.83" font-family="Helvetica" font-size="10.00">llvm::XCoreTTIImpl</text>
</a>
</g>
</g>
<!-- Node13&#45;&gt;Node14 -->
<g id="edge13" class="edge">
<title>Node13&#45;&gt;Node14</title>
<path fill="none" stroke="midnightblue" d="M766.73,-945.33C783.26,-945.33 800.54,-945.33 815.95,-945.33"/>
<polygon fill="midnightblue" stroke="midnightblue" points="766.56,-941.83 756.56,-945.33 766.56,-948.83 766.56,-941.83"/>
</g>
<!-- Node16 -->
<g id="node16" class="node">
<title>Node16</title>
<g id="a_node16"><a xlink:href="classllvm_1_1BasicTTIImpl.html" target="_top" xlink:title="Concrete BasicTTIImpl that can be used if no further customization is needed.">
<polygon fill="none" stroke="black" points="817,-598.83 817,-617.83 916,-617.83 916,-598.83 817,-598.83"/>
<text text-anchor="middle" x="866.5" y="-605.83" font-family="Helvetica" font-size="10.00">llvm::BasicTTIImpl</text>
</a>
</g>
</g>
<!-- Node15&#45;&gt;Node16 -->
<g id="edge15" class="edge">
<title>Node15&#45;&gt;Node16</title>
<path fill="none" stroke="midnightblue" d="M766.88,-608.33C783.66,-608.33 801.2,-608.33 816.76,-608.33"/>
<polygon fill="midnightblue" stroke="midnightblue" points="766.56,-604.83 756.56,-608.33 766.56,-611.83 766.56,-604.83"/>
</g>
<!-- Node18 -->
<g id="node18" class="node">
<title>Node18</title>
<g id="a_node18"><a xlink:href="classllvm_1_1AArch64TTIImpl.html" target="_top" xlink:title=" ">
<polygon fill="none" stroke="black" points="810.5,-831.83 810.5,-850.83 922.5,-850.83 922.5,-831.83 810.5,-831.83"/>
<text text-anchor="middle" x="866.5" y="-838.83" font-family="Helvetica" font-size="10.00">llvm::AArch64TTIImpl</text>
</a>
</g>
</g>
<!-- Node17&#45;&gt;Node18 -->
<g id="edge17" class="edge">
<title>Node17&#45;&gt;Node18</title>
<path fill="none" stroke="midnightblue" d="M766.57,-841.33C781.2,-841.33 796.43,-841.33 810.43,-841.33"/>
<polygon fill="midnightblue" stroke="midnightblue" points="766.56,-837.83 756.56,-841.33 766.56,-844.83 766.56,-837.83"/>
</g>
<!-- Node20 -->
<g id="node20" class="node">
<title>Node20</title>
<g id="a_node20"><a xlink:href="classllvm_1_1VETTIImpl.html" target="_top" xlink:title=" ">
<polygon fill="none" stroke="black" points="822.5,-314.83 822.5,-333.83 910.5,-333.83 910.5,-314.83 822.5,-314.83"/>
<text text-anchor="middle" x="866.5" y="-321.83" font-family="Helvetica" font-size="10.00">llvm::VETTIImpl</text>
</a>
</g>
</g>
<!-- Node19&#45;&gt;Node20 -->
<g id="edge19" class="edge">
<title>Node19&#45;&gt;Node20</title>
<path fill="none" stroke="midnightblue" d="M766.63,-324.33C785.53,-324.33 805.41,-324.33 822.36,-324.33"/>
<polygon fill="midnightblue" stroke="midnightblue" points="766.56,-320.83 756.56,-324.33 766.56,-327.83 766.56,-320.83"/>
</g>
<!-- Node22 -->
<g id="node22" class="node">
<title>Node22</title>
<g id="a_node22"><a xlink:href="classllvm_1_1GCNTTIImpl.html" target="_top" xlink:title=" ">
<polygon fill="none" stroke="black" points="818.5,-529.83 818.5,-548.83 914.5,-548.83 914.5,-529.83 818.5,-529.83"/>
<text text-anchor="middle" x="866.5" y="-536.83" font-family="Helvetica" font-size="10.00">llvm::GCNTTIImpl</text>
</a>
</g>
</g>
<!-- Node21&#45;&gt;Node22 -->
<g id="edge21" class="edge">
<title>Node21&#45;&gt;Node22</title>
<path fill="none" stroke="midnightblue" d="M766.69,-539.33C784.11,-539.33 802.37,-539.33 818.38,-539.33"/>
<polygon fill="midnightblue" stroke="midnightblue" points="766.56,-535.83 756.56,-539.33 766.56,-542.83 766.56,-535.83"/>
</g>
<!-- Node24 -->
<g id="node24" class="node">
<title>Node24</title>
<g id="a_node24"><a xlink:href="classllvm_1_1RISCVTTIImpl.html" target="_top" xlink:title=" ">
<polygon fill="none" stroke="black" points="814.5,-428.83 814.5,-447.83 918.5,-447.83 918.5,-428.83 814.5,-428.83"/>
<text text-anchor="middle" x="866.5" y="-435.83" font-family="Helvetica" font-size="10.00">llvm::RISCVTTIImpl</text>
</a>
</g>
</g>
<!-- Node23&#45;&gt;Node24 -->
<g id="edge23" class="edge">
<title>Node23&#45;&gt;Node24</title>
<path fill="none" stroke="midnightblue" d="M766.88,-438.33C782.78,-438.33 799.37,-438.33 814.31,-438.33"/>
<polygon fill="midnightblue" stroke="midnightblue" points="766.56,-434.83 756.56,-438.33 766.56,-441.83 766.56,-434.83"/>
</g>
<!-- Node26 -->
<g id="node26" class="node">
<title>Node26</title>
<g id="a_node26"><a xlink:href="classllvm_1_1LanaiTTIImpl.html" target="_top" xlink:title=" ">
<polygon fill="none" stroke="black" points="817.5,-373.83 817.5,-392.83 915.5,-392.83 915.5,-373.83 817.5,-373.83"/>
<text text-anchor="middle" x="866.5" y="-380.83" font-family="Helvetica" font-size="10.00">llvm::LanaiTTIImpl</text>
</a>
</g>
</g>
<!-- Node25&#45;&gt;Node26 -->
<g id="edge25" class="edge">
<title>Node25&#45;&gt;Node26</title>
<path fill="none" stroke="midnightblue" d="M766.98,-383.33C783.92,-383.33 801.64,-383.33 817.3,-383.33"/>
<polygon fill="midnightblue" stroke="midnightblue" points="766.56,-379.83 756.56,-383.33 766.56,-386.83 766.56,-379.83"/>
</g>
<!-- Node28 -->
<g id="node28" class="node">
<title>Node28</title>
<g id="a_node28"><a xlink:href="classllvm_1_1ARMTTIImpl.html" target="_top" xlink:title=" ">
<polygon fill="none" stroke="black" points="818,-141.83 818,-160.83 915,-160.83 915,-141.83 818,-141.83"/>
<text text-anchor="middle" x="866.5" y="-148.83" font-family="Helvetica" font-size="10.00">llvm::ARMTTIImpl</text>
</a>
</g>
</g>
<!-- Node27&#45;&gt;Node28 -->
<g id="edge27" class="edge">
<title>Node27&#45;&gt;Node28</title>
<path fill="none" stroke="midnightblue" d="M766.6,-151.33C783.85,-151.33 801.93,-151.33 817.84,-151.33"/>
<polygon fill="midnightblue" stroke="midnightblue" points="766.56,-147.83 756.56,-151.33 766.56,-154.83 766.56,-147.83"/>
</g>
<!-- Node30 -->
<g id="node30" class="node">
<title>Node30</title>
<g id="a_node30"><a xlink:href="classllvm_1_1NVPTXTTIImpl.html" target="_top" xlink:title=" ">
<polygon fill="none" stroke="black" points="812.5,-52.83 812.5,-71.83 920.5,-71.83 920.5,-52.83 812.5,-52.83"/>
<text text-anchor="middle" x="866.5" y="-59.83" font-family="Helvetica" font-size="10.00">llvm::NVPTXTTIImpl</text>
</a>
</g>
</g>
<!-- Node29&#45;&gt;Node30 -->
<g id="edge29" class="edge">
<title>Node29&#45;&gt;Node30</title>
<path fill="none" stroke="midnightblue" d="M766.96,-62.33C782.15,-62.33 797.97,-62.33 812.38,-62.33"/>
<polygon fill="midnightblue" stroke="midnightblue" points="766.56,-58.83 756.56,-62.33 766.56,-65.83 766.56,-58.83"/>
</g>
<!-- Node32 -->
<g id="node32" class="node">
<title>Node32</title>
<g id="a_node32"><a xlink:href="classllvm_1_1HexagonTTIImpl.html" target="_top" xlink:title=" ">
<polygon fill="none" stroke="black" points="810.5,-884.83 810.5,-903.83 922.5,-903.83 922.5,-884.83 810.5,-884.83"/>
<text text-anchor="middle" x="866.5" y="-891.83" font-family="Helvetica" font-size="10.00">llvm::HexagonTTIImpl</text>
</a>
</g>
</g>
<!-- Node31&#45;&gt;Node32 -->
<g id="edge31" class="edge">
<title>Node31&#45;&gt;Node32</title>
<path fill="none" stroke="midnightblue" d="M766.57,-894.33C781.2,-894.33 796.43,-894.33 810.43,-894.33"/>
<polygon fill="midnightblue" stroke="midnightblue" points="766.56,-890.83 756.56,-894.33 766.56,-897.83 766.56,-890.83"/>
</g>
<!-- Node34 -->
<g id="node34" class="node">
<title>Node34</title>
<g id="a_node34"><a xlink:href="classllvm_1_1PPCTTIImpl.html" target="_top" xlink:title=" ">
<polygon fill="none" stroke="black" points="819.5,-198.83 819.5,-217.83 913.5,-217.83 913.5,-198.83 819.5,-198.83"/>
<text text-anchor="middle" x="866.5" y="-205.83" font-family="Helvetica" font-size="10.00">llvm::PPCTTIImpl</text>
</a>
</g>
</g>
<!-- Node33&#45;&gt;Node34 -->
<g id="edge33" class="edge">
<title>Node33&#45;&gt;Node34</title>
<path fill="none" stroke="midnightblue" d="M766.89,-208.33C784.64,-208.33 803.24,-208.33 819.45,-208.33"/>
<polygon fill="midnightblue" stroke="midnightblue" points="766.56,-204.83 756.56,-208.33 766.56,-211.83 766.56,-204.83"/>
</g>
<!-- Node36 -->
<g id="node36" class="node">
<title>Node36</title>
<g id="a_node36"><a xlink:href="classllvm_1_1SystemZTTIImpl.html" target="_top" xlink:title=" ">
<polygon fill="none" stroke="black" points="810,-256.83 810,-275.83 923,-275.83 923,-256.83 810,-256.83"/>
<text text-anchor="middle" x="866.5" y="-263.83" font-family="Helvetica" font-size="10.00">llvm::SystemZTTIImpl</text>
</a>
</g>
</g>
<!-- Node35&#45;&gt;Node36 -->
<g id="edge35" class="edge">
<title>Node35&#45;&gt;Node36</title>
<path fill="none" stroke="midnightblue" d="M766.88,-266.33C781.22,-266.33 796.12,-266.33 809.87,-266.33"/>
<polygon fill="midnightblue" stroke="midnightblue" points="766.56,-262.83 756.56,-266.33 766.56,-269.83 766.56,-262.83"/>
</g>
<!-- Node38 -->
<g id="node38" class="node">
<title>Node38</title>
<g id="a_node38"><a xlink:href="classllvm_1_1AMDGPUTTIImpl.html" target="_top" xlink:title=" ">
<polygon fill="none" stroke="black" points="808,-479.83 808,-498.83 925,-498.83 925,-479.83 808,-479.83"/>
<text text-anchor="middle" x="866.5" y="-486.83" font-family="Helvetica" font-size="10.00">llvm::AMDGPUTTIImpl</text>
</a>
</g>
</g>
<!-- Node37&#45;&gt;Node38 -->
<g id="edge37" class="edge">
<title>Node37&#45;&gt;Node38</title>
<path fill="none" stroke="midnightblue" d="M766.88,-489.33C780.54,-489.33 794.71,-489.33 807.9,-489.33"/>
<polygon fill="midnightblue" stroke="midnightblue" points="766.56,-485.83 756.56,-489.33 766.56,-492.83 766.56,-485.83"/>
</g>
<!-- Node39&#45;&gt;Node3 -->
<g id="edge39" class="edge">
<title>Node39&#45;&gt;Node3</title>
<path fill="none" stroke="orange" stroke-dasharray="5,2" d="M411.16,-580.62C423.54,-611.57 451.76,-672.47 494,-708.33 537.16,-744.97 559.6,-734.87 612,-756.33 627.05,-762.49 643.64,-769.32 657.96,-775.23"/>
<polygon fill="orange" stroke="orange" points="414.31,-579.08 407.44,-571.01 407.78,-581.6 414.31,-579.08"/>
<text text-anchor="middle" x="553" y="-759.33" font-family="Helvetica" font-size="10.00"> &lt; WebAssemblyTTIImpl &gt;</text>
</g>
<!-- Node39&#45;&gt;Node5 -->
<g id="edge40" class="edge">
<title>Node39&#45;&gt;Node5</title>
<path fill="none" stroke="orange" stroke-dasharray="5,2" d="M418.19,-578.8C434.69,-598.2 463.59,-629.39 494,-649.33 541.35,-680.36 560.16,-674.55 612,-697.33 629.26,-704.91 648.3,-713.87 663.74,-721.29"/>
<polygon fill="orange" stroke="orange" points="420.8,-576.47 411.71,-571.04 415.43,-580.96 420.8,-576.47"/>
<text text-anchor="middle" x="553" y="-700.33" font-family="Helvetica" font-size="10.00"> &lt; R600TTIImpl &gt;</text>
</g>
<!-- Node39&#45;&gt;Node7 -->
<g id="edge41" class="edge">
<title>Node39&#45;&gt;Node7</title>
<path fill="none" stroke="orange" stroke-dasharray="5,2" d="M405.34,-581.45C410.91,-658.9 434.77,-936.49 494,-997.33 530.04,-1034.34 589.28,-1044.54 634.04,-1046.41"/>
<polygon fill="orange" stroke="orange" points="408.81,-580.89 404.63,-571.16 401.83,-581.38 408.81,-580.89"/>
<text text-anchor="middle" x="553" y="-1047.33" font-family="Helvetica" font-size="10.00"> &lt; BPFTTIImpl &gt;</text>
</g>
<!-- Node39&#45;&gt;Node9 -->
<g id="edge42" class="edge">
<title>Node39&#45;&gt;Node9</title>
<path fill="none" stroke="orange" stroke-dasharray="5,2" d="M405.99,-581.15C413.48,-651.87 442.22,-890.37 494,-943.33 513.45,-963.22 582.65,-978.06 634.35,-986.69"/>
<polygon fill="orange" stroke="orange" points="409.45,-580.55 404.94,-570.96 402.48,-581.27 409.45,-580.55"/>
<text text-anchor="middle" x="553" y="-985.33" font-family="Helvetica" font-size="10.00"> &lt; ARCTTIImpl &gt;</text>
</g>
<!-- Node39&#45;&gt;Node11 -->
<g id="edge43" class="edge">
<title>Node39&#45;&gt;Node11</title>
<path fill="none" stroke="orange" stroke-dasharray="5,2" d="M441.77,-574.19C483.74,-588.75 553.34,-613.66 612,-638.33 629.52,-645.69 648.75,-654.72 664.23,-662.24"/>
<polygon fill="orange" stroke="orange" points="442.82,-570.85 432.23,-570.9 440.54,-577.47 442.82,-570.85"/>
<text text-anchor="middle" x="553" y="-641.33" font-family="Helvetica" font-size="10.00"> &lt; X86TTIImpl &gt;</text>
</g>
<!-- Node39&#45;&gt;Node13 -->
<g id="edge44" class="edge">
<title>Node39&#45;&gt;Node13</title>
<path fill="none" stroke="orange" stroke-dasharray="5,2" d="M403.35,-581.17C402.64,-637.19 408.53,-798.15 494,-885.33 513.68,-905.4 582.83,-923.13 634.45,-934.01"/>
<polygon fill="orange" stroke="orange" points="406.86,-580.94 403.58,-570.87 399.86,-580.79 406.86,-580.94"/>
<text text-anchor="middle" x="553" y="-931.33" font-family="Helvetica" font-size="10.00"> &lt; XCoreTTIImpl &gt;</text>
</g>
<!-- Node39&#45;&gt;Node15 -->
<g id="edge45" class="edge">
<title>Node39&#45;&gt;Node15</title>
<path fill="none" stroke="orange" stroke-dasharray="5,2" d="M486.5,-563.69C524.97,-566.01 571.18,-570.53 612,-579.33 627.44,-582.65 643.95,-588.06 658.11,-593.31"/>
<polygon fill="orange" stroke="orange" points="486.56,-560.19 476.38,-563.12 486.17,-567.18 486.56,-560.19"/>
<text text-anchor="middle" x="553" y="-582.33" font-family="Helvetica" font-size="10.00"> &lt; BasicTTIImpl &gt;</text>
</g>
<!-- Node39&#45;&gt;Node17 -->
<g id="edge46" class="edge">
<title>Node39&#45;&gt;Node17</title>
<path fill="none" stroke="orange" stroke-dasharray="5,2" d="M407.28,-580.99C415.04,-621.47 438.21,-714.7 494,-767.33 505.61,-778.27 592.13,-807.91 647.65,-826.19"/>
<polygon fill="orange" stroke="orange" points="410.71,-580.27 405.49,-571.05 403.82,-581.52 410.71,-580.27"/>
<text text-anchor="middle" x="553" y="-815.33" font-family="Helvetica" font-size="10.00"> &lt; AArch64TTIImpl &gt;</text>
</g>
<!-- Node39&#45;&gt;Node19 -->
<g id="edge47" class="edge">
<title>Node39&#45;&gt;Node19</title>
<path fill="none" stroke="orange" stroke-dasharray="5,2" d="M408.08,-541.44C416.87,-503.73 441.22,-421.74 494,-378.33 533.53,-345.8 590.9,-332.75 634.15,-327.57"/>
<polygon fill="orange" stroke="orange" points="404.57,-541.11 405.84,-551.63 411.4,-542.61 404.57,-541.11"/>
<text text-anchor="middle" x="553" y="-381.33" font-family="Helvetica" font-size="10.00"> &lt; VETTIImpl &gt;</text>
</g>
<!-- Node39&#45;&gt;Node21 -->
<g id="edge48" class="edge">
<title>Node39&#45;&gt;Node21</title>
<path fill="none" stroke="orange" stroke-dasharray="5,2" d="M460.15,-550.04C471.32,-548.16 483,-546.46 494,-545.33 540.94,-540.48 594.36,-539.08 634.25,-538.84"/>
<polygon fill="orange" stroke="orange" points="459.31,-546.63 450.07,-551.8 460.52,-553.53 459.31,-546.63"/>
<text text-anchor="middle" x="553" y="-548.33" font-family="Helvetica" font-size="10.00"> &lt; GCNTTIImpl &gt;</text>
</g>
<!-- Node39&#45;&gt;Node23 -->
<g id="edge49" class="edge">
<title>Node39&#45;&gt;Node23</title>
<path fill="none" stroke="orange" stroke-dasharray="5,2" d="M419.98,-543.98C436.78,-526.79 464.78,-500.98 494,-486.33 538.15,-464.18 592.97,-451.96 634.12,-445.4"/>
<polygon fill="orange" stroke="orange" points="417.05,-541.98 412.68,-551.63 422.11,-546.81 417.05,-541.98"/>
<text text-anchor="middle" x="553" y="-489.33" font-family="Helvetica" font-size="10.00"> &lt; RISCVTTIImpl &gt;</text>
</g>
<!-- Node39&#45;&gt;Node25 -->
<g id="edge50" class="edge">
<title>Node39&#45;&gt;Node25</title>
<path fill="none" stroke="orange" stroke-dasharray="5,2" d="M412.35,-542.26C425.55,-514.4 453.93,-462.87 494,-435.33 535.64,-406.71 591.97,-393.84 634.32,-388.05"/>
<polygon fill="orange" stroke="orange" points="409.01,-541.14 408.04,-551.69 415.38,-544.05 409.01,-541.14"/>
<text text-anchor="middle" x="553" y="-438.33" font-family="Helvetica" font-size="10.00"> &lt; LanaiTTIImpl &gt;</text>
</g>
<!-- Node39&#45;&gt;Node27 -->
<g id="edge51" class="edge">
<title>Node39&#45;&gt;Node27</title>
<path fill="none" stroke="orange" stroke-dasharray="5,2" d="M406.15,-541.38C413.99,-472.31 443.29,-244.77 494,-195.33 530.74,-159.5 589.59,-150.05 634.05,-148.65"/>
<polygon fill="orange" stroke="orange" points="402.63,-541.39 405,-551.72 409.58,-542.16 402.63,-541.39"/>
<text text-anchor="middle" x="553" y="-198.33" font-family="Helvetica" font-size="10.00"> &lt; ARMTTIImpl &gt;</text>
</g>
<!-- Node39&#45;&gt;Node29 -->
<g id="edge52" class="edge">
<title>Node39&#45;&gt;Node29</title>
<path fill="none" stroke="orange" stroke-dasharray="5,2" d="M405.69,-541.43C412.46,-466.01 439.92,-198.87 494,-136.33 529.31,-95.49 589.25,-77.17 634.42,-68.96"/>
<polygon fill="orange" stroke="orange" points="402.19,-541.2 404.81,-551.47 409.17,-541.82 402.19,-541.2"/>
<text text-anchor="middle" x="553" y="-139.33" font-family="Helvetica" font-size="10.00"> &lt; NVPTXTTIImpl &gt;</text>
</g>
<!-- Node39&#45;&gt;Node31 -->
<g id="edge53" class="edge">
<title>Node39&#45;&gt;Node31</title>
<path fill="none" stroke="orange" stroke-dasharray="5,2" d="M404.95,-580.92C408.35,-629.41 423.85,-756.21 494,-826.33 514.08,-846.4 582.95,-867.01 634.41,-880.2"/>
<polygon fill="orange" stroke="orange" points="408.44,-580.6 404.34,-570.83 401.45,-581.02 408.44,-580.6"/>
<text text-anchor="middle" x="553" y="-875.33" font-family="Helvetica" font-size="10.00"> &lt; HexagonTTIImpl &gt;</text>
</g>
<!-- Node39&#45;&gt;Node33 -->
<g id="edge54" class="edge">
<title>Node39&#45;&gt;Node33</title>
<path fill="none" stroke="orange" stroke-dasharray="5,2" d="M403.48,-541.58C403.19,-487.29 410.24,-334.54 494,-255.33 531.41,-219.95 590.17,-209.5 634.43,-207.13"/>
<polygon fill="orange" stroke="orange" points="399.98,-541.66 403.63,-551.61 406.98,-541.56 399.98,-541.66"/>
<text text-anchor="middle" x="553" y="-258.33" font-family="Helvetica" font-size="10.00"> &lt; PPCTTIImpl &gt;</text>
</g>
<!-- Node39&#45;&gt;Node35 -->
<g id="edge55" class="edge">
<title>Node39&#45;&gt;Node35</title>
<path fill="none" stroke="orange" stroke-dasharray="5,2" d="M405.21,-541.6C409.18,-495.03 425.78,-377.57 494,-316.33 532.17,-282.05 590.26,-270.47 634.11,-266.92"/>
<polygon fill="orange" stroke="orange" points="401.72,-541.37 404.47,-551.61 408.7,-541.89 401.72,-541.37"/>
<text text-anchor="middle" x="553" y="-319.33" font-family="Helvetica" font-size="10.00"> &lt; SystemZTTIImpl &gt;</text>
</g>
<!-- Node39&#45;&gt;Node37 -->
<g id="edge56" class="edge">
<title>Node39&#45;&gt;Node37</title>
<path fill="none" stroke="orange" stroke-dasharray="5,2" d="M433.46,-547.31C450.76,-539.57 473.24,-530.33 494,-524.33 540.17,-510.98 593.87,-501.93 634.07,-496.39"/>
<polygon fill="orange" stroke="orange" points="431.57,-544.33 423.93,-551.66 434.48,-550.7 431.57,-544.33"/>
<text text-anchor="middle" x="553" y="-527.33" font-family="Helvetica" font-size="10.00"> &lt; AMDGPUTTIImpl &gt;</text>
</g>
</g>
</svg>
