<?xml version="1.0" encoding="UTF-8" standalone="no"?>
<!DOCTYPE svg PUBLIC "-//W3C//DTD SVG 1.1//EN"
 "http://www.w3.org/Graphics/SVG/1.1/DTD/svg11.dtd">
<!-- Generated by graphviz version 2.44.0 (0)
 -->
<!-- Title: llvm::BinaryStreamRefBase&lt; RefType, StreamType &gt; Pages: 1 -->
<svg width="452pt" height="173pt"
 viewBox="0.00 0.00 451.50 173.00" xmlns="http://www.w3.org/2000/svg" xmlns:xlink="http://www.w3.org/1999/xlink">
<g id="graph0" class="graph" transform="scale(1 1) rotate(0) translate(4 169)">
<title>llvm::BinaryStreamRefBase&lt; RefType, StreamType &gt;</title>
<!-- Node1 -->
<g id="node1" class="node">
<title>Node1</title>
<g id="a_node1"><a xlink:title="Common stuff for mutable and immutable StreamRefs.">
<polygon fill="#bfbfbf" stroke="black" points="158.5,-0.5 158.5,-30.5 296.5,-30.5 296.5,-0.5 158.5,-0.5"/>
<text text-anchor="start" x="166.5" y="-18.5" font-family="Helvetica" font-size="10.00">llvm::BinaryStreamRefBase</text>
<text text-anchor="middle" x="227.5" y="-7.5" font-family="Helvetica" font-size="10.00">&lt; RefType, StreamType &gt;</text>
</a>
</g>
</g>
<!-- Node2 -->
<g id="node2" class="node">
<title>Node2</title>
<g id="a_node2"><a xlink:href="classllvm_1_1Optional.html" target="_top" xlink:title=" ">
<polygon fill="none" stroke="black" points="0,-78.5 0,-97.5 129,-97.5 129,-78.5 0,-78.5"/>
<text text-anchor="middle" x="64.5" y="-85.5" font-family="Helvetica" font-size="10.00">llvm::Optional&lt; uint32_t &gt;</text>
</a>
</g>
</g>
<!-- Node2&#45;&gt;Node1 -->
<g id="edge1" class="edge">
<title>Node2&#45;&gt;Node1</title>
<path fill="none" stroke="#9a32cd" stroke-dasharray="5,2" d="M93.58,-74.42C122.11,-62.08 165.51,-43.31 195.12,-30.51"/>
<polygon fill="#9a32cd" stroke="#9a32cd" points="91.95,-71.31 84.16,-78.5 94.73,-77.74 91.95,-71.31"/>
<text text-anchor="middle" x="168" y="-52" font-family="Helvetica" font-size="10.00"> Length</text>
</g>
<!-- Node3 -->
<g id="node3" class="node">
<title>Node3</title>
<g id="a_node3"><a xlink:href="classllvm_1_1Optional.html" target="_top" xlink:title=" ">
<polygon fill="none" stroke="black" points="14,-145.5 14,-164.5 115,-164.5 115,-145.5 14,-145.5"/>
<text text-anchor="middle" x="64.5" y="-152.5" font-family="Helvetica" font-size="10.00">llvm::Optional&lt; T &gt;</text>
</a>
</g>
</g>
<!-- Node3&#45;&gt;Node2 -->
<g id="edge2" class="edge">
<title>Node3&#45;&gt;Node2</title>
<path fill="none" stroke="orange" stroke-dasharray="5,2" d="M64.5,-135.04C64.5,-122.67 64.5,-107.12 64.5,-97.63"/>
<polygon fill="orange" stroke="orange" points="61,-135.23 64.5,-145.23 68,-135.23 61,-135.23"/>
<text text-anchor="middle" x="92.5" y="-119" font-family="Helvetica" font-size="10.00"> &lt; uint32_t &gt;</text>
</g>
<!-- Node4 -->
<g id="node4" class="node">
<title>Node4</title>
<g id="a_node4"><a xlink:href="classuint32__t.html" target="_top" xlink:title=" ">
<polygon fill="none" stroke="black" points="147,-78.5 147,-97.5 198,-97.5 198,-78.5 147,-78.5"/>
<text text-anchor="middle" x="172.5" y="-85.5" font-family="Helvetica" font-size="10.00">uint32_t</text>
</a>
</g>
</g>
<!-- Node4&#45;&gt;Node1 -->
<g id="edge3" class="edge">
<title>Node4&#45;&gt;Node1</title>
<path fill="none" stroke="#9a32cd" stroke-dasharray="5,2" d="M185.46,-70.39C194.9,-58.28 207.57,-42.05 216.52,-30.58"/>
<polygon fill="#9a32cd" stroke="#9a32cd" points="182.64,-68.32 179.24,-78.36 188.15,-72.62 182.64,-68.32"/>
<text text-anchor="middle" x="227.5" y="-52" font-family="Helvetica" font-size="10.00"> ViewOffset</text>
</g>
<!-- Node5 -->
<g id="node5" class="node">
<title>Node5</title>
<g id="a_node5"><a xlink:title=" ">
<polygon fill="none" stroke="#bfbfbf" points="216,-78.5 216,-97.5 349,-97.5 349,-78.5 216,-78.5"/>
<text text-anchor="middle" x="282.5" y="-85.5" font-family="Helvetica" font-size="10.00">shared_ptr&lt; StreamType &gt;</text>
</a>
</g>
</g>
<!-- Node5&#45;&gt;Node1 -->
<g id="edge4" class="edge">
<title>Node5&#45;&gt;Node1</title>
<path fill="none" stroke="#9a32cd" stroke-dasharray="5,2" d="M271.81,-69.46C267.58,-62.88 262.53,-55.44 257.5,-49 252.58,-42.71 246.71,-36.17 241.47,-30.61"/>
<polygon fill="#9a32cd" stroke="#9a32cd" points="269.05,-71.65 277.32,-78.27 274.99,-67.94 269.05,-71.65"/>
<text text-anchor="middle" x="291" y="-52" font-family="Helvetica" font-size="10.00"> SharedImpl</text>
</g>
<!-- Node6 -->
<g id="node6" class="node">
<title>Node6</title>
<g id="a_node6"><a xlink:title=" ">
<polygon fill="none" stroke="#bfbfbf" points="367.5,-78.5 367.5,-97.5 443.5,-97.5 443.5,-78.5 367.5,-78.5"/>
<text text-anchor="middle" x="405.5" y="-85.5" font-family="Helvetica" font-size="10.00">StreamType *</text>
</a>
</g>
</g>
<!-- Node6&#45;&gt;Node1 -->
<g id="edge5" class="edge">
<title>Node6&#45;&gt;Node1</title>
<path fill="none" stroke="#9a32cd" stroke-dasharray="5,2" d="M378.23,-73.89C361.92,-66.25 340.71,-56.65 321.5,-49 305.14,-42.49 286.89,-36 270.86,-30.56"/>
<polygon fill="#9a32cd" stroke="#9a32cd" points="377.14,-77.25 387.68,-78.36 380.14,-70.93 377.14,-77.25"/>
<text text-anchor="middle" x="378" y="-52" font-family="Helvetica" font-size="10.00"> BorrowedImpl</text>
</g>
</g>
</svg>
