<?xml version="1.0" encoding="UTF-8" standalone="no"?>
<!DOCTYPE svg PUBLIC "-//W3C//DTD SVG 1.1//EN"
 "http://www.w3.org/Graphics/SVG/1.1/DTD/svg11.dtd">
<!-- Generated by graphviz version 2.44.0 (0)
 -->
<!-- Title: llvm::SCEVZeroExtendExpr Pages: 1 -->
<svg width="149pt" height="252pt"
 viewBox="0.00 0.00 149.00 252.00" xmlns="http://www.w3.org/2000/svg" xmlns:xlink="http://www.w3.org/1999/xlink">
<g id="graph0" class="graph" transform="scale(1 1) rotate(0) translate(4 248)">
<title>llvm::SCEVZeroExtendExpr</title>
<!-- Node1 -->
<g id="node1" class="node">
<title>Node1</title>
<g id="a_node1"><a xlink:title="This class represents a zero extension of a small integer value to a larger integer value.">
<polygon fill="#bfbfbf" stroke="black" points="1,-0.5 1,-19.5 140,-19.5 140,-0.5 1,-0.5"/>
<text text-anchor="middle" x="70.5" y="-7.5" font-family="Helvetica" font-size="10.00">llvm::SCEVZeroExtendExpr</text>
</a>
</g>
</g>
<!-- Node2 -->
<g id="node2" class="node">
<title>Node2</title>
<g id="a_node2"><a xlink:href="classllvm_1_1SCEVIntegralCastExpr.html" target="_top" xlink:title="This is the base class for unary integral cast operator classes.">
<polygon fill="none" stroke="black" points="0,-56.5 0,-75.5 141,-75.5 141,-56.5 0,-56.5"/>
<text text-anchor="middle" x="70.5" y="-63.5" font-family="Helvetica" font-size="10.00">llvm::SCEVIntegralCastExpr</text>
</a>
</g>
</g>
<!-- Node2&#45;&gt;Node1 -->
<g id="edge1" class="edge">
<title>Node2&#45;&gt;Node1</title>
<path fill="none" stroke="midnightblue" d="M70.5,-45.8C70.5,-36.91 70.5,-26.78 70.5,-19.75"/>
<polygon fill="midnightblue" stroke="midnightblue" points="67,-46.08 70.5,-56.08 74,-46.08 67,-46.08"/>
</g>
<!-- Node3 -->
<g id="node3" class="node">
<title>Node3</title>
<g id="a_node3"><a xlink:href="classllvm_1_1SCEVCastExpr.html" target="_top" xlink:title="This is the base class for unary cast operator classes.">
<polygon fill="none" stroke="black" points="16.5,-112.5 16.5,-131.5 124.5,-131.5 124.5,-112.5 16.5,-112.5"/>
<text text-anchor="middle" x="70.5" y="-119.5" font-family="Helvetica" font-size="10.00">llvm::SCEVCastExpr</text>
</a>
</g>
</g>
<!-- Node3&#45;&gt;Node2 -->
<g id="edge2" class="edge">
<title>Node3&#45;&gt;Node2</title>
<path fill="none" stroke="midnightblue" d="M70.5,-101.8C70.5,-92.91 70.5,-82.78 70.5,-75.75"/>
<polygon fill="midnightblue" stroke="midnightblue" points="67,-102.08 70.5,-112.08 74,-102.08 67,-102.08"/>
</g>
<!-- Node4 -->
<g id="node4" class="node">
<title>Node4</title>
<g id="a_node4"><a xlink:href="classllvm_1_1SCEV.html" target="_top" xlink:title="This class represents an analyzed expression in the program.">
<polygon fill="none" stroke="black" points="36.5,-168.5 36.5,-187.5 104.5,-187.5 104.5,-168.5 36.5,-168.5"/>
<text text-anchor="middle" x="70.5" y="-175.5" font-family="Helvetica" font-size="10.00">llvm::SCEV</text>
</a>
</g>
</g>
<!-- Node4&#45;&gt;Node3 -->
<g id="edge3" class="edge">
<title>Node4&#45;&gt;Node3</title>
<path fill="none" stroke="midnightblue" d="M70.5,-157.8C70.5,-148.91 70.5,-138.78 70.5,-131.75"/>
<polygon fill="midnightblue" stroke="midnightblue" points="67,-158.08 70.5,-168.08 74,-158.08 67,-158.08"/>
</g>
<!-- Node5 -->
<g id="node5" class="node">
<title>Node5</title>
<g id="a_node5"><a xlink:href="classllvm_1_1FoldingSetBase_1_1Node.html" target="_top" xlink:title="Node &#45; This class is used to maintain the singly linked bucket list in a folding set.">
<polygon fill="none" stroke="black" points="27.5,-224.5 27.5,-243.5 113.5,-243.5 113.5,-224.5 27.5,-224.5"/>
<text text-anchor="middle" x="70.5" y="-231.5" font-family="Helvetica" font-size="10.00">FoldingSetNode</text>
</a>
</g>
</g>
<!-- Node5&#45;&gt;Node4 -->
<g id="edge4" class="edge">
<title>Node5&#45;&gt;Node4</title>
<path fill="none" stroke="midnightblue" d="M70.5,-213.8C70.5,-204.91 70.5,-194.78 70.5,-187.75"/>
<polygon fill="midnightblue" stroke="midnightblue" points="67,-214.08 70.5,-224.08 74,-214.08 67,-214.08"/>
</g>
</g>
</svg>
