<?xml version="1.0" encoding="UTF-8" standalone="no"?>
<!DOCTYPE svg PUBLIC "-//W3C//DTD SVG 1.1//EN"
 "http://www.w3.org/Graphics/SVG/1.1/DTD/svg11.dtd">
<!-- Generated by graphviz version 2.44.0 (0)
 -->
<!-- Title: llvm::MCJIT Pages: 1 -->
<svg width="1997pt" height="248pt"
 viewBox="0.00 0.00 1997.00 247.50" xmlns="http://www.w3.org/2000/svg" xmlns:xlink="http://www.w3.org/1999/xlink">
<g id="graph0" class="graph" transform="scale(1 1) rotate(0) translate(4 243.5)">
<title>llvm::MCJIT</title>
<!-- Node1 -->
<g id="node1" class="node">
<title>Node1</title>
<g id="a_node1"><a xlink:title=" ">
<polygon fill="#bfbfbf" stroke="black" points="1919,-143.5 1919,-162.5 1989,-162.5 1989,-143.5 1919,-143.5"/>
<text text-anchor="middle" x="1954" y="-150.5" font-family="Helvetica" font-size="10.00">llvm::MCJIT</text>
</a>
</g>
</g>
<!-- Node2 -->
<g id="node2" class="node">
<title>Node2</title>
<g id="a_node2"><a xlink:href="classllvm_1_1ExecutionEngine.html" target="_top" xlink:title="Abstract interface for implementation execution of LLVM modules, designed to support both interpreter...">
<polygon fill="none" stroke="black" points="1769,-143.5 1769,-162.5 1882,-162.5 1882,-143.5 1769,-143.5"/>
<text text-anchor="middle" x="1825.5" y="-150.5" font-family="Helvetica" font-size="10.00">llvm::ExecutionEngine</text>
</a>
</g>
</g>
<!-- Node2&#45;&gt;Node1 -->
<g id="edge1" class="edge">
<title>Node2&#45;&gt;Node1</title>
<path fill="none" stroke="midnightblue" d="M1892.61,-153C1901.69,-153 1910.7,-153 1918.88,-153"/>
<polygon fill="midnightblue" stroke="midnightblue" points="1892.35,-149.5 1882.35,-153 1892.35,-156.5 1892.35,-149.5"/>
</g>
<!-- Node2&#45;&gt;Node2 -->
<g id="edge2" class="edge">
<title>Node2&#45;&gt;Node2</title>
<path fill="none" stroke="#9a32cd" stroke-dasharray="5,2" d="M1811.87,-172.77C1812.94,-177.5 1817.49,-181 1825.5,-181 1838.65,-181 1842.45,-171.57 1836.91,-162.76"/>
<polygon fill="#9a32cd" stroke="#9a32cd" points="1815.34,-173.28 1814.09,-162.76 1808.51,-171.76 1815.34,-173.28"/>
<text text-anchor="middle" x="1825.5" y="-195" font-family="Helvetica" font-size="10.00"> InterpCtor</text>
<text text-anchor="middle" x="1825.5" y="-184" font-family="Helvetica" font-size="10.00">MCJITCtor</text>
</g>
<!-- Node3 -->
<g id="node3" class="node">
<title>Node3</title>
<g id="a_node3"><a xlink:href="classllvm_1_1sys_1_1SmartMutex.html" target="_top" xlink:title=" ">
<polygon fill="none" stroke="black" points="1523,-209 1523,-239 1638,-239 1638,-209 1523,-209"/>
<text text-anchor="start" x="1531" y="-227" font-family="Helvetica" font-size="10.00">llvm::sys::SmartMutex</text>
<text text-anchor="middle" x="1580.5" y="-216" font-family="Helvetica" font-size="10.00">&lt; false &gt;</text>
</a>
</g>
</g>
<!-- Node3&#45;&gt;Node2 -->
<g id="edge3" class="edge">
<title>Node3&#45;&gt;Node2</title>
<path fill="none" stroke="#9a32cd" stroke-dasharray="5,2" d="M1648.12,-209.65C1679.59,-202.33 1717.52,-192.7 1751,-182 1768.64,-176.36 1788.11,-168.61 1802.58,-162.53"/>
<polygon fill="#9a32cd" stroke="#9a32cd" points="1647.1,-206.3 1638.14,-211.95 1648.67,-213.12 1647.1,-206.3"/>
<text text-anchor="middle" x="1703.5" y="-209" font-family="Helvetica" font-size="10.00"> lock</text>
</g>
<!-- Node4 -->
<g id="node4" class="node">
<title>Node4</title>
<g id="a_node4"><a xlink:href="classllvm_1_1sys_1_1SmartMutex.html" target="_top" xlink:title="SmartMutex &#45; A mutex with a compile time constant parameter that indicates whether this mutex should ...">
<polygon fill="none" stroke="black" points="1284,-209 1284,-239 1399,-239 1399,-209 1284,-209"/>
<text text-anchor="start" x="1292" y="-227" font-family="Helvetica" font-size="10.00">llvm::sys::SmartMutex</text>
<text text-anchor="middle" x="1341.5" y="-216" font-family="Helvetica" font-size="10.00">&lt; mt_only &gt;</text>
</a>
</g>
</g>
<!-- Node4&#45;&gt;Node3 -->
<g id="edge4" class="edge">
<title>Node4&#45;&gt;Node3</title>
<path fill="none" stroke="orange" stroke-dasharray="5,2" d="M1409.6,-224C1445.32,-224 1488.77,-224 1522.79,-224"/>
<polygon fill="orange" stroke="orange" points="1409.27,-220.5 1399.27,-224 1409.27,-227.5 1409.27,-220.5"/>
<text text-anchor="middle" x="1461" y="-227" font-family="Helvetica" font-size="10.00"> &lt; false &gt;</text>
</g>
<!-- Node5 -->
<g id="node5" class="node">
<title>Node5</title>
<g id="a_node5"><a xlink:title=" ">
<polygon fill="none" stroke="#bfbfbf" points="1525,-160 1525,-190 1636,-190 1636,-160 1525,-160"/>
<text text-anchor="start" x="1533" y="-178" font-family="Helvetica" font-size="10.00">function&lt; void *(const</text>
<text text-anchor="middle" x="1580.5" y="-167" font-family="Helvetica" font-size="10.00"> std::string &amp;)&gt;</text>
</a>
</g>
</g>
<!-- Node5&#45;&gt;Node2 -->
<g id="edge5" class="edge">
<title>Node5&#45;&gt;Node2</title>
<path fill="none" stroke="#9a32cd" stroke-dasharray="5,2" d="M1646.04,-169.16C1684.3,-165.69 1732.31,-161.35 1768.89,-158.04"/>
<polygon fill="#9a32cd" stroke="#9a32cd" points="1645.68,-165.68 1636.03,-170.06 1646.31,-172.65 1645.68,-165.68"/>
<text text-anchor="middle" x="1703.5" y="-170" font-family="Helvetica" font-size="10.00"> LazyFunctionCreator</text>
</g>
<!-- Node6 -->
<g id="node6" class="node">
<title>Node6</title>
<g id="a_node6"><a xlink:title=" ">
<polygon fill="none" stroke="#bfbfbf" points="1560,-121.5 1560,-140.5 1601,-140.5 1601,-121.5 1560,-121.5"/>
<text text-anchor="middle" x="1580.5" y="-128.5" font-family="Helvetica" font-size="10.00">string</text>
</a>
</g>
</g>
<!-- Node6&#45;&gt;Node2 -->
<g id="edge6" class="edge">
<title>Node6&#45;&gt;Node2</title>
<path fill="none" stroke="#9a32cd" stroke-dasharray="5,2" d="M1611.23,-133.22C1645.09,-135.8 1702.07,-140.32 1751,-145 1756.75,-145.55 1762.75,-146.15 1768.73,-146.78"/>
<polygon fill="#9a32cd" stroke="#9a32cd" points="1611.33,-129.72 1601.09,-132.45 1610.8,-136.7 1611.33,-129.72"/>
<text text-anchor="middle" x="1703.5" y="-148" font-family="Helvetica" font-size="10.00"> ErrMsg</text>
</g>
<!-- Node7 -->
<g id="node7" class="node">
<title>Node7</title>
<g id="a_node7"><a xlink:href="classllvm_1_1SmallVector.html" target="_top" xlink:title=" ">
<polygon fill="none" stroke="black" points="1525,-61.5 1525,-102.5 1636,-102.5 1636,-61.5 1525,-61.5"/>
<text text-anchor="start" x="1533" y="-90.5" font-family="Helvetica" font-size="10.00">llvm::SmallVector&lt;</text>
<text text-anchor="start" x="1533" y="-79.5" font-family="Helvetica" font-size="10.00"> std::unique_ptr&lt; llvm</text>
<text text-anchor="middle" x="1580.5" y="-68.5" font-family="Helvetica" font-size="10.00">::Module &gt;, 1 &gt;</text>
</a>
</g>
</g>
<!-- Node7&#45;&gt;Node2 -->
<g id="edge7" class="edge">
<title>Node7&#45;&gt;Node2</title>
<path fill="none" stroke="#9a32cd" stroke-dasharray="5,2" d="M1646.13,-93.95C1678.07,-100.59 1716.97,-109.78 1751,-121 1769.9,-127.23 1790.62,-136.48 1805.23,-143.44"/>
<polygon fill="#9a32cd" stroke="#9a32cd" points="1646.51,-90.45 1636.02,-91.88 1645.11,-97.31 1646.51,-90.45"/>
<text text-anchor="middle" x="1703.5" y="-124" font-family="Helvetica" font-size="10.00"> Modules</text>
</g>
<!-- Node8 -->
<g id="node8" class="node">
<title>Node8</title>
<g id="a_node8"><a xlink:href="classllvm_1_1SmallVectorImpl.html" target="_top" xlink:title="This class consists of common code factored out of the SmallVector class to reduce code duplication b...">
<polygon fill="none" stroke="black" points="1098.5,-26.5 1098.5,-45.5 1234.5,-45.5 1234.5,-26.5 1098.5,-26.5"/>
<text text-anchor="middle" x="1166.5" y="-33.5" font-family="Helvetica" font-size="10.00">llvm::SmallVectorImpl&lt; T &gt;</text>
</a>
</g>
</g>
<!-- Node8&#45;&gt;Node7 -->
<g id="edge8" class="edge">
<title>Node8&#45;&gt;Node7</title>
<path fill="none" stroke="midnightblue" d="M1244.67,-42.61C1289.72,-46.64 1347.63,-52.15 1399,-58 1441.25,-62.81 1488.92,-69.19 1524.67,-74.17"/>
<polygon fill="midnightblue" stroke="midnightblue" points="1244.95,-39.12 1234.68,-41.72 1244.33,-46.09 1244.95,-39.12"/>
</g>
<!-- Node18 -->
<g id="node18" class="node">
<title>Node18</title>
<g id="a_node18"><a xlink:href="classllvm_1_1SmallVector.html" target="_top" xlink:title="This is a &#39;vector&#39; (really, a variable&#45;sized array), optimized for the case when the array is small.">
<polygon fill="none" stroke="black" points="1292,-67 1292,-97 1391,-97 1391,-67 1292,-67"/>
<text text-anchor="start" x="1300" y="-85" font-family="Helvetica" font-size="10.00">llvm::SmallVector&lt;</text>
<text text-anchor="middle" x="1341.5" y="-74" font-family="Helvetica" font-size="10.00"> T, N &gt;</text>
</a>
</g>
</g>
<!-- Node8&#45;&gt;Node18 -->
<g id="edge19" class="edge">
<title>Node8&#45;&gt;Node18</title>
<path fill="none" stroke="midnightblue" d="M1219.18,-47.98C1228.46,-50.24 1238.03,-52.63 1247,-55 1261.54,-58.83 1277.27,-63.27 1291.61,-67.42"/>
<polygon fill="midnightblue" stroke="midnightblue" points="1219.81,-44.53 1209.26,-45.6 1218.17,-51.34 1219.81,-44.53"/>
</g>
<!-- Node9 -->
<g id="node9" class="node">
<title>Node9</title>
<g id="a_node9"><a xlink:href="classllvm_1_1SmallVectorTemplateBase.html" target="_top" xlink:title="SmallVectorTemplateBase&lt;TriviallyCopyable = false&gt; &#45; This is where we put method implementations that...">
<polygon fill="none" stroke="black" points="800,-21 800,-51 933,-51 933,-21 800,-21"/>
<text text-anchor="start" x="808" y="-39" font-family="Helvetica" font-size="10.00">llvm::SmallVectorTemplate</text>
<text text-anchor="middle" x="866.5" y="-28" font-family="Helvetica" font-size="10.00">Base&lt; T, bool &gt;</text>
</a>
</g>
</g>
<!-- Node9&#45;&gt;Node8 -->
<g id="edge9" class="edge">
<title>Node9&#45;&gt;Node8</title>
<path fill="none" stroke="midnightblue" d="M943.56,-36C991.33,-36 1052.38,-36 1098.35,-36"/>
<polygon fill="midnightblue" stroke="midnightblue" points="943.27,-32.5 933.27,-36 943.27,-39.5 943.27,-32.5"/>
</g>
<!-- Node10 -->
<g id="node10" class="node">
<title>Node10</title>
<g id="a_node10"><a xlink:href="classllvm_1_1SmallVectorTemplateCommon.html" target="_top" xlink:title="This is the part of SmallVectorTemplateBase which does not depend on whether the type T is a POD.">
<polygon fill="none" stroke="black" points="537,-39 537,-69 670,-69 670,-39 537,-39"/>
<text text-anchor="start" x="545" y="-57" font-family="Helvetica" font-size="10.00">llvm::SmallVectorTemplate</text>
<text text-anchor="middle" x="603.5" y="-46" font-family="Helvetica" font-size="10.00">Common&lt; T, typename &gt;</text>
</a>
</g>
</g>
<!-- Node10&#45;&gt;Node9 -->
<g id="edge10" class="edge">
<title>Node10&#45;&gt;Node9</title>
<path fill="none" stroke="midnightblue" d="M680,-48.79C717.95,-46.18 763.49,-43.04 799.95,-40.52"/>
<polygon fill="midnightblue" stroke="midnightblue" points="679.76,-45.3 670.02,-49.48 680.24,-52.28 679.76,-45.3"/>
</g>
<!-- Node11 -->
<g id="node11" class="node">
<title>Node11</title>
<g id="a_node11"><a xlink:href="classllvm_1_1SmallVectorBase.html" target="_top" xlink:title=" ">
<polygon fill="none" stroke="black" points="382,-33.5 382,-74.5 500,-74.5 500,-33.5 382,-33.5"/>
<text text-anchor="start" x="390" y="-62.5" font-family="Helvetica" font-size="10.00">llvm::SmallVectorBase</text>
<text text-anchor="start" x="390" y="-51.5" font-family="Helvetica" font-size="10.00">&lt; SmallVectorSizeType</text>
<text text-anchor="middle" x="441" y="-40.5" font-family="Helvetica" font-size="10.00">&lt; T &gt; &gt;</text>
</a>
</g>
</g>
<!-- Node11&#45;&gt;Node10 -->
<g id="edge11" class="edge">
<title>Node11&#45;&gt;Node10</title>
<path fill="none" stroke="midnightblue" d="M510.52,-54C519.23,-54 528.14,-54 536.81,-54"/>
<polygon fill="midnightblue" stroke="midnightblue" points="510.4,-50.5 500.4,-54 510.4,-57.5 510.4,-50.5"/>
</g>
<!-- Node12 -->
<g id="node12" class="node">
<title>Node12</title>
<g id="a_node12"><a xlink:href="classllvm_1_1SmallVectorBase.html" target="_top" xlink:title="This is all the stuff common to all SmallVectors.">
<polygon fill="none" stroke="black" points="125,-39 125,-69 241,-69 241,-39 125,-39"/>
<text text-anchor="start" x="133" y="-57" font-family="Helvetica" font-size="10.00">llvm::SmallVectorBase</text>
<text text-anchor="middle" x="183" y="-46" font-family="Helvetica" font-size="10.00">&lt; Size_T &gt;</text>
</a>
</g>
</g>
<!-- Node12&#45;&gt;Node11 -->
<g id="edge12" class="edge">
<title>Node12&#45;&gt;Node11</title>
<path fill="none" stroke="orange" stroke-dasharray="5,2" d="M251.2,-54C291.74,-54 342.88,-54 381.71,-54"/>
<polygon fill="orange" stroke="orange" points="251.13,-50.5 241.13,-54 251.13,-57.5 251.13,-50.5"/>
<text text-anchor="start" x="259" y="-68" font-family="Helvetica" font-size="10.00"> &lt; SmallVectorSizeType</text>
<text text-anchor="middle" x="311.5" y="-57" font-family="Helvetica" font-size="10.00">&lt; T &gt; &gt;</text>
</g>
<!-- Node13 -->
<g id="node13" class="node">
<title>Node13</title>
<g id="a_node13"><a xlink:title=" ">
<polygon fill="none" stroke="#bfbfbf" points="0,-63.5 0,-82.5 47,-82.5 47,-63.5 0,-63.5"/>
<text text-anchor="middle" x="23.5" y="-70.5" font-family="Helvetica" font-size="10.00">Size_T</text>
</a>
</g>
</g>
<!-- Node13&#45;&gt;Node12 -->
<g id="edge13" class="edge">
<title>Node13&#45;&gt;Node12</title>
<path fill="none" stroke="#9a32cd" stroke-dasharray="5,2" d="M57.26,-69.05C76.78,-66.69 102.1,-63.64 124.82,-60.9"/>
<polygon fill="#9a32cd" stroke="#9a32cd" points="56.57,-65.61 47.07,-70.28 57.41,-72.55 56.57,-65.61"/>
<text text-anchor="middle" x="86" y="-81" font-family="Helvetica" font-size="10.00"> Capacity</text>
<text text-anchor="middle" x="86" y="-70" font-family="Helvetica" font-size="10.00">Size</text>
</g>
<!-- Node14 -->
<g id="node14" class="node">
<title>Node14</title>
<g id="a_node14"><a xlink:title=" ">
<polygon fill="none" stroke="#bfbfbf" points="3,-25.5 3,-44.5 44,-44.5 44,-25.5 3,-25.5"/>
<text text-anchor="middle" x="23.5" y="-32.5" font-family="Helvetica" font-size="10.00">void *</text>
</a>
</g>
</g>
<!-- Node14&#45;&gt;Node12 -->
<g id="edge14" class="edge">
<title>Node14&#45;&gt;Node12</title>
<path fill="none" stroke="#9a32cd" stroke-dasharray="5,2" d="M54.11,-38.57C73.98,-40.97 100.81,-44.21 124.76,-47.09"/>
<polygon fill="#9a32cd" stroke="#9a32cd" points="54.48,-35.09 44.13,-37.37 53.64,-42.04 54.48,-35.09"/>
<text text-anchor="middle" x="86" y="-48" font-family="Helvetica" font-size="10.00"> BeginX</text>
</g>
<!-- Node15 -->
<g id="node15" class="node">
<title>Node15</title>
<g id="a_node15"><a xlink:href="classbool.html" target="_top" xlink:title=" ">
<polygon fill="none" stroke="black" points="586,-0.5 586,-19.5 621,-19.5 621,-0.5 586,-0.5"/>
<text text-anchor="middle" x="603.5" y="-7.5" font-family="Helvetica" font-size="10.00">bool</text>
</a>
</g>
</g>
<!-- Node15&#45;&gt;Node9 -->
<g id="edge15" class="edge">
<title>Node15&#45;&gt;Node9</title>
<path fill="none" stroke="#9a32cd" stroke-dasharray="5,2" d="M631.42,-12.48C666.21,-15.7 728.64,-21.57 782,-27 787.8,-27.59 793.83,-28.22 799.87,-28.85"/>
<polygon fill="#9a32cd" stroke="#9a32cd" points="631.43,-8.96 621.15,-11.53 630.78,-15.93 631.43,-8.96"/>
<text text-anchor="middle" x="735" y="-30" font-family="Helvetica" font-size="10.00"> TakesParamByValue</text>
</g>
<!-- Node16 -->
<g id="node16" class="node">
<title>Node16</title>
<g id="a_node16"><a xlink:href="structllvm_1_1SmallVectorStorage.html" target="_top" xlink:title="Storage for the SmallVector elements.">
<polygon fill="none" stroke="black" points="803,-101 803,-131 930,-131 930,-101 803,-101"/>
<text text-anchor="start" x="811" y="-119" font-family="Helvetica" font-size="10.00">llvm::SmallVectorStorage</text>
<text text-anchor="middle" x="866.5" y="-108" font-family="Helvetica" font-size="10.00">&lt; T, N &gt;</text>
</a>
</g>
</g>
<!-- Node16&#45;&gt;Node7 -->
<g id="edge16" class="edge">
<title>Node16&#45;&gt;Node7</title>
<path fill="none" stroke="#8b1a1a" d="M940.48,-119.7C944.04,-119.82 947.56,-119.92 951,-120 1002.99,-121.24 1016,-120.71 1068,-120 1262.28,-117.33 1313.9,-143.09 1505,-108 1512.28,-106.66 1519.8,-104.73 1527.14,-102.52"/>
<polygon fill="#8b1a1a" stroke="#8b1a1a" points="940.53,-116.2 930.41,-119.34 940.27,-123.19 940.53,-116.2"/>
</g>
<!-- Node19 -->
<g id="node19" class="node">
<title>Node19</title>
<g id="a_node19"><a xlink:href="structllvm_1_1SmallVectorStorage.html" target="_top" xlink:title=" ">
<polygon fill="none" stroke="black" points="1086,-64.5 1086,-105.5 1247,-105.5 1247,-64.5 1086,-64.5"/>
<text text-anchor="start" x="1094" y="-93.5" font-family="Helvetica" font-size="10.00">llvm::SmallVectorStorage</text>
<text text-anchor="start" x="1094" y="-82.5" font-family="Helvetica" font-size="10.00">&lt; T, CalculateSmallVectorDefault</text>
<text text-anchor="middle" x="1166.5" y="-71.5" font-family="Helvetica" font-size="10.00">InlinedElements&lt; T &gt;::value &gt;</text>
</a>
</g>
</g>
<!-- Node16&#45;&gt;Node19 -->
<g id="edge21" class="edge">
<title>Node16&#45;&gt;Node19</title>
<path fill="none" stroke="orange" stroke-dasharray="5,2" d="M912.2,-97.49C924.56,-93.2 938.11,-89.24 951,-87 995.22,-79.33 1045.33,-78.44 1086,-79.64"/>
<polygon fill="orange" stroke="orange" points="910.79,-94.27 902.58,-100.97 913.18,-100.85 910.79,-94.27"/>
<text text-anchor="start" x="951" y="-112" font-family="Helvetica" font-size="10.00"> &lt; T, CalculateSmallVector</text>
<text text-anchor="start" x="951" y="-101" font-family="Helvetica" font-size="10.00">DefaultInlinedElements</text>
<text text-anchor="middle" x="1009.5" y="-90" font-family="Helvetica" font-size="10.00">&lt; T &gt;::value &gt;</text>
</g>
<!-- Node17 -->
<g id="node17" class="node">
<title>Node17</title>
<g id="a_node17"><a xlink:title=" ">
<polygon fill="none" stroke="#bfbfbf" points="586,-106.5 586,-125.5 621,-125.5 621,-106.5 586,-106.5"/>
<text text-anchor="middle" x="603.5" y="-113.5" font-family="Helvetica" font-size="10.00">char</text>
</a>
</g>
</g>
<!-- Node17&#45;&gt;Node16 -->
<g id="edge17" class="edge">
<title>Node17&#45;&gt;Node16</title>
<path fill="none" stroke="#9a32cd" stroke-dasharray="5,2" d="M631.28,-116C671.37,-116 748.12,-116 802.84,-116"/>
<polygon fill="#9a32cd" stroke="#9a32cd" points="631.22,-112.5 621.22,-116 631.22,-119.5 631.22,-112.5"/>
<text text-anchor="middle" x="735" y="-119" font-family="Helvetica" font-size="10.00"> InlineElts</text>
</g>
<!-- Node18&#45;&gt;Node7 -->
<g id="edge18" class="edge">
<title>Node18&#45;&gt;Node7</title>
<path fill="none" stroke="orange" stroke-dasharray="5,2" d="M1401.38,-82C1439.16,-82 1487.88,-82 1524.82,-82"/>
<polygon fill="orange" stroke="orange" points="1401.03,-78.5 1391.03,-82 1401.03,-85.5 1401.03,-78.5"/>
<text text-anchor="start" x="1417" y="-96" font-family="Helvetica" font-size="10.00"> &lt; std::unique_ptr&lt;</text>
<text text-anchor="middle" x="1461" y="-85" font-family="Helvetica" font-size="10.00"> llvm::Module &gt;, 1 &gt;</text>
</g>
<!-- Node19&#45;&gt;Node18 -->
<g id="edge20" class="edge">
<title>Node19&#45;&gt;Node18</title>
<path fill="none" stroke="#8b1a1a" d="M1257.19,-83.44C1269.14,-83.24 1281,-83.03 1291.87,-82.84"/>
<polygon fill="#8b1a1a" stroke="#8b1a1a" points="1257.1,-79.95 1247.16,-83.62 1257.22,-86.94 1257.1,-79.95"/>
</g>
</g>
</svg>
