<?xml version="1.0" encoding="UTF-8" standalone="no"?>
<!DOCTYPE svg PUBLIC "-//W3C//DTD SVG 1.1//EN"
 "http://www.w3.org/Graphics/SVG/1.1/DTD/svg11.dtd">
<!-- Generated by graphviz version 2.44.0 (0)
 -->
<!-- Title: include/llvm/ProfileData/Coverage/CoverageMappingReader.h Pages: 1 -->
<svg width="296pt" height="106pt"
 viewBox="0.00 0.00 295.50 106.00" xmlns="http://www.w3.org/2000/svg" xmlns:xlink="http://www.w3.org/1999/xlink">
<g id="graph0" class="graph" transform="scale(1 1) rotate(0) translate(4 102)">
<title>include/llvm/ProfileData/Coverage/CoverageMappingReader.h</title>
<!-- Node1 -->
<g id="node1" class="node">
<title>Node1</title>
<g id="a_node1"><a xlink:title=" ">
<polygon fill="#bfbfbf" stroke="black" points="46.5,-67.5 46.5,-97.5 227.5,-97.5 227.5,-67.5 46.5,-67.5"/>
<text text-anchor="start" x="54.5" y="-85.5" font-family="Helvetica" font-size="10.00">include/llvm/ProfileData</text>
<text text-anchor="middle" x="137" y="-74.5" font-family="Helvetica" font-size="10.00">/Coverage/CoverageMappingReader.h</text>
</a>
</g>
</g>
<!-- Node2 -->
<g id="node2" class="node">
<title>Node2</title>
<g id="a_node2"><a xlink:href="CoverageMapping_8cpp.html" target="_top" xlink:title=" ">
<polygon fill="none" stroke="black" points="0,-0.5 0,-30.5 122,-30.5 122,-0.5 0,-0.5"/>
<text text-anchor="start" x="8" y="-18.5" font-family="Helvetica" font-size="10.00">lib/ProfileData/Coverage</text>
<text text-anchor="middle" x="61" y="-7.5" font-family="Helvetica" font-size="10.00">/CoverageMapping.cpp</text>
</a>
</g>
</g>
<!-- Node1&#45;&gt;Node2 -->
<g id="edge1" class="edge">
<title>Node1&#45;&gt;Node2</title>
<path fill="none" stroke="midnightblue" d="M112.89,-60.88C101.34,-51.01 87.81,-39.43 77.46,-30.58"/>
<polygon fill="midnightblue" stroke="midnightblue" points="110.63,-63.56 120.51,-67.4 115.18,-58.24 110.63,-63.56"/>
</g>
<!-- Node3 -->
<g id="node3" class="node">
<title>Node3</title>
<g id="a_node3"><a xlink:href="CoverageMappingReader_8cpp.html" target="_top" xlink:title=" ">
<polygon fill="none" stroke="black" points="140.5,-0.5 140.5,-30.5 287.5,-30.5 287.5,-0.5 140.5,-0.5"/>
<text text-anchor="start" x="148.5" y="-18.5" font-family="Helvetica" font-size="10.00">lib/ProfileData/Coverage</text>
<text text-anchor="middle" x="214" y="-7.5" font-family="Helvetica" font-size="10.00">/CoverageMappingReader.cpp</text>
</a>
</g>
</g>
<!-- Node1&#45;&gt;Node3 -->
<g id="edge2" class="edge">
<title>Node1&#45;&gt;Node3</title>
<path fill="none" stroke="midnightblue" d="M161.42,-60.88C173.12,-51.01 186.84,-39.43 197.32,-30.58"/>
<polygon fill="midnightblue" stroke="midnightblue" points="159.09,-58.27 153.71,-67.4 163.61,-63.62 159.09,-58.27"/>
</g>
</g>
</svg>
