<?xml version="1.0" encoding="UTF-8" standalone="no"?>
<!DOCTYPE svg PUBLIC "-//W3C//DTD SVG 1.1//EN"
 "http://www.w3.org/Graphics/SVG/1.1/DTD/svg11.dtd">
<!-- Generated by graphviz version 2.44.0 (0)
 -->
<!-- Title: lib/Target/Mips Pages: 1 -->
<svg width="290pt" height="303pt"
 viewBox="0.00 0.00 290.00 303.00" xmlns="http://www.w3.org/2000/svg" xmlns:xlink="http://www.w3.org/1999/xlink">
<g id="graph0" class="graph" transform="scale(1 1) rotate(0) translate(4 299)">
<title>lib/Target/Mips</title>
<g id="clust1" class="cluster">
<title>clusterdir_794e483eb1cc7921d35fd149d9cc325b</title>
<g id="a_clust1"><a xlink:href="dir_794e483eb1cc7921d35fd149d9cc325b.html" target="_top" xlink:title="Target">
<polygon fill="#ddddee" stroke="black" points="8,-56 8,-287 274,-287 274,-56 8,-56"/>
<text text-anchor="middle" x="141" y="-275" font-family="Helvetica" font-size="10.00">Target</text>
</a>
</g>
</g>
<g id="clust2" class="cluster">
<title>clusterdir_ade3e9027c4a59e8bb8d540eb1bd7c25</title>
<g id="a_clust2"><a xlink:href="dir_ade3e9027c4a59e8bb8d540eb1bd7c25.html" target="_top">
<polygon fill="#eeeeff" stroke="black" points="16,-64 16,-260 266,-260 266,-64 16,-64"/>
</a>
</g>
</g>
<!-- dir_ade3e9027c4a59e8bb8d540eb1bd7c25 -->
<g id="node1" class="node">
<title>dir_ade3e9027c4a59e8bb8d540eb1bd7c25</title>
<text text-anchor="middle" x="231" y="-231.5" font-family="Helvetica" font-size="10.00">Mips</text>
</g>
<!-- dir_9f6aa610c6659b619bb2c99588614df5 -->
<g id="node2" class="node">
<title>dir_9f6aa610c6659b619bb2c99588614df5</title>
<g id="a_node2"><a xlink:href="dir_9f6aa610c6659b619bb2c99588614df5.html" target="_top" xlink:title="AsmParser">
<polygon fill="white" stroke="black" points="90,-252 24,-252 24,-216 90,-216 90,-252"/>
<text text-anchor="middle" x="57" y="-231.5" font-family="Helvetica" font-size="10.00">AsmParser</text>
</a>
</g>
</g>
<!-- dir_41f1deb4dd28dd59c49c53019c486a73 -->
<g id="node4" class="node">
<title>dir_41f1deb4dd28dd59c49c53019c486a73</title>
<g id="a_node4"><a xlink:href="dir_41f1deb4dd28dd59c49c53019c486a73.html" target="_top" xlink:title="MCTargetDesc">
<polygon fill="white" stroke="black" points="127,-180 45,-180 45,-144 127,-144 127,-180"/>
<text text-anchor="middle" x="86" y="-159.5" font-family="Helvetica" font-size="10.00">MCTargetDesc</text>
</a>
</g>
</g>
<!-- dir_9f6aa610c6659b619bb2c99588614df5&#45;&gt;dir_41f1deb4dd28dd59c49c53019c486a73 -->
<g id="edge6" class="edge">
<title>dir_9f6aa610c6659b619bb2c99588614df5&#45;&gt;dir_41f1deb4dd28dd59c49c53019c486a73</title>
<path fill="none" stroke="black" d="M64.17,-215.7C67.43,-207.81 71.37,-198.3 75,-189.55"/>
<polygon fill="black" stroke="black" points="78.32,-190.68 78.91,-180.1 71.85,-188 78.32,-190.68"/>
<g id="a_edge6&#45;headlabel"><a xlink:href="dir_000203_000205.html" target="_top" xlink:title="5">
<text text-anchor="middle" x="79.57" y="-192.59" font-family="Helvetica" font-size="10.00">5</text>
</a>
</g>
</g>
<!-- dir_f3dbcc5927085a619dae30a12ee3e3cb -->
<g id="node5" class="node">
<title>dir_f3dbcc5927085a619dae30a12ee3e3cb</title>
<g id="a_node5"><a xlink:href="dir_f3dbcc5927085a619dae30a12ee3e3cb.html" target="_top" xlink:title="TargetInfo">
<polygon fill="white" stroke="black" points="109,-108 49,-108 49,-72 109,-72 109,-108"/>
<text text-anchor="middle" x="79" y="-87.5" font-family="Helvetica" font-size="10.00">TargetInfo</text>
</a>
</g>
</g>
<!-- dir_9f6aa610c6659b619bb2c99588614df5&#45;&gt;dir_f3dbcc5927085a619dae30a12ee3e3cb -->
<g id="edge8" class="edge">
<title>dir_9f6aa610c6659b619bb2c99588614df5&#45;&gt;dir_f3dbcc5927085a619dae30a12ee3e3cb</title>
<path fill="none" stroke="black" d="M47.27,-215.95C38.23,-197.8 27.35,-168.39 36,-144 39.66,-133.68 46.29,-123.9 53.26,-115.61"/>
<polygon fill="black" stroke="black" points="55.87,-117.94 59.96,-108.16 50.67,-113.26 55.87,-117.94"/>
<g id="a_edge8&#45;headlabel"><a xlink:href="dir_000203_000206.html" target="_top" xlink:title="1">
<text text-anchor="middle" x="55.58" y="-120.01" font-family="Helvetica" font-size="10.00">1</text>
</a>
</g>
</g>
<!-- dir_d44c64559bbebec7f509842c48db8b23 -->
<g id="node6" class="node">
<title>dir_d44c64559bbebec7f509842c48db8b23</title>
<g id="a_node6"><a xlink:href="dir_d44c64559bbebec7f509842c48db8b23.html" target="_top" xlink:title="include">
<polygon fill="none" stroke="red" points="183,-36 129,-36 129,0 183,0 183,-36"/>
<text text-anchor="middle" x="156" y="-15.5" font-family="Helvetica" font-size="10.00">include</text>
</a>
</g>
</g>
<!-- dir_9f6aa610c6659b619bb2c99588614df5&#45;&gt;dir_d44c64559bbebec7f509842c48db8b23 -->
<g id="edge7" class="edge">
<title>dir_9f6aa610c6659b619bb2c99588614df5&#45;&gt;dir_d44c64559bbebec7f509842c48db8b23</title>
<path fill="none" stroke="black" d="M90.19,-218.96C106.7,-210.21 125.35,-197.3 136,-180 161.44,-138.66 161.69,-80.01 159.14,-46.1"/>
<polygon fill="black" stroke="black" points="162.61,-45.66 158.24,-36.01 155.64,-46.28 162.61,-45.66"/>
<g id="a_edge7&#45;headlabel"><a xlink:href="dir_000203_000001.html" target="_top" xlink:title="37">
<text text-anchor="middle" x="165.76" y="-46.48" font-family="Helvetica" font-size="10.00">37</text>
</a>
</g>
</g>
<!-- dir_9d9ec9b03140b2e1d84503e7097c4dc6 -->
<g id="node3" class="node">
<title>dir_9d9ec9b03140b2e1d84503e7097c4dc6</title>
<g id="a_node3"><a xlink:href="dir_9d9ec9b03140b2e1d84503e7097c4dc6.html" target="_top" xlink:title="Disassembler">
<polygon fill="white" stroke="black" points="185.5,-252 108.5,-252 108.5,-216 185.5,-216 185.5,-252"/>
<text text-anchor="middle" x="147" y="-231.5" font-family="Helvetica" font-size="10.00">Disassembler</text>
</a>
</g>
</g>
<!-- dir_9d9ec9b03140b2e1d84503e7097c4dc6&#45;&gt;dir_41f1deb4dd28dd59c49c53019c486a73 -->
<g id="edge3" class="edge">
<title>dir_9d9ec9b03140b2e1d84503e7097c4dc6&#45;&gt;dir_41f1deb4dd28dd59c49c53019c486a73</title>
<path fill="none" stroke="black" d="M131.92,-215.7C124.61,-207.3 115.69,-197.07 107.66,-187.86"/>
<polygon fill="black" stroke="black" points="110.11,-185.34 100.91,-180.1 104.84,-189.94 110.11,-185.34"/>
<g id="a_edge3&#45;headlabel"><a xlink:href="dir_000204_000205.html" target="_top" xlink:title="1">
<text text-anchor="middle" x="114.62" y="-183.69" font-family="Helvetica" font-size="10.00">1</text>
</a>
</g>
</g>
<!-- dir_9d9ec9b03140b2e1d84503e7097c4dc6&#45;&gt;dir_f3dbcc5927085a619dae30a12ee3e3cb -->
<g id="edge5" class="edge">
<title>dir_9d9ec9b03140b2e1d84503e7097c4dc6&#45;&gt;dir_f3dbcc5927085a619dae30a12ee3e3cb</title>
<path fill="none" stroke="black" d="M148.25,-215.93C148.88,-197.24 147.69,-166.88 136,-144 130.33,-132.91 121.35,-122.93 112.19,-114.7"/>
<polygon fill="black" stroke="black" points="114.41,-112 104.51,-108.22 109.89,-117.35 114.41,-112"/>
<g id="a_edge5&#45;headlabel"><a xlink:href="dir_000204_000206.html" target="_top" xlink:title="1">
<text text-anchor="middle" x="118.99" y="-109.65" font-family="Helvetica" font-size="10.00">1</text>
</a>
</g>
</g>
<!-- dir_9d9ec9b03140b2e1d84503e7097c4dc6&#45;&gt;dir_d44c64559bbebec7f509842c48db8b23 -->
<g id="edge4" class="edge">
<title>dir_9d9ec9b03140b2e1d84503e7097c4dc6&#45;&gt;dir_d44c64559bbebec7f509842c48db8b23</title>
<path fill="none" stroke="black" d="M165.6,-215.76C174.53,-206.2 184.29,-193.53 189,-180 207.12,-127.95 208.63,-107.5 189,-56 187.45,-51.93 185.22,-48.02 182.64,-44.37"/>
<polygon fill="black" stroke="black" points="185.17,-41.93 176.15,-36.37 179.73,-46.34 185.17,-41.93"/>
<g id="a_edge4&#45;headlabel"><a xlink:href="dir_000204_000001.html" target="_top" xlink:title="13">
<text text-anchor="middle" x="189.64" y="-40.43" font-family="Helvetica" font-size="10.00">13</text>
</a>
</g>
</g>
<!-- dir_41f1deb4dd28dd59c49c53019c486a73&#45;&gt;dir_f3dbcc5927085a619dae30a12ee3e3cb -->
<g id="edge2" class="edge">
<title>dir_41f1deb4dd28dd59c49c53019c486a73&#45;&gt;dir_f3dbcc5927085a619dae30a12ee3e3cb</title>
<path fill="none" stroke="black" d="M84.27,-143.7C83.5,-135.98 82.57,-126.71 81.71,-118.11"/>
<polygon fill="black" stroke="black" points="85.19,-117.71 80.71,-108.1 78.22,-118.4 85.19,-117.71"/>
<g id="a_edge2&#45;headlabel"><a xlink:href="dir_000205_000206.html" target="_top" xlink:title="1">
<text text-anchor="middle" x="88.37" y="-118.5" font-family="Helvetica" font-size="10.00">1</text>
</a>
</g>
</g>
<!-- dir_41f1deb4dd28dd59c49c53019c486a73&#45;&gt;dir_d44c64559bbebec7f509842c48db8b23 -->
<g id="edge1" class="edge">
<title>dir_41f1deb4dd28dd59c49c53019c486a73&#45;&gt;dir_d44c64559bbebec7f509842c48db8b23</title>
<path fill="none" stroke="black" d="M97.3,-143.68C103.73,-133.5 111.73,-120.25 118,-108 128.49,-87.53 138.62,-63.5 145.79,-45.58"/>
<polygon fill="black" stroke="black" points="149.13,-46.64 149.54,-36.05 142.62,-44.07 149.13,-46.64"/>
<g id="a_edge1&#45;headlabel"><a xlink:href="dir_000205_000001.html" target="_top" xlink:title="135">
<text text-anchor="middle" x="150.45" y="-48.53" font-family="Helvetica" font-size="10.00">135</text>
</a>
</g>
</g>
<!-- dir_f3dbcc5927085a619dae30a12ee3e3cb&#45;&gt;dir_d44c64559bbebec7f509842c48db8b23 -->
<g id="edge9" class="edge">
<title>dir_f3dbcc5927085a619dae30a12ee3e3cb&#45;&gt;dir_d44c64559bbebec7f509842c48db8b23</title>
<path fill="none" stroke="black" d="M98.03,-71.7C107.54,-63.05 119.21,-52.45 129.57,-43.03"/>
<polygon fill="black" stroke="black" points="132.14,-45.42 137.19,-36.1 127.43,-40.24 132.14,-45.42"/>
<g id="a_edge9&#45;headlabel"><a xlink:href="dir_000206_000001.html" target="_top" xlink:title="1">
<text text-anchor="middle" x="131.39" y="-47.44" font-family="Helvetica" font-size="10.00">1</text>
</a>
</g>
</g>
</g>
</svg>
