<?xml version="1.0" encoding="UTF-8" standalone="no"?>
<!DOCTYPE svg PUBLIC "-//W3C//DTD SVG 1.1//EN"
 "http://www.w3.org/Graphics/SVG/1.1/DTD/svg11.dtd">
<!-- Generated by graphviz version 2.44.0 (0)
 -->
<!-- Title: lib/ExecutionEngine Pages: 1 -->
<svg width="811pt" height="159pt"
 viewBox="0.00 0.00 811.00 159.00" xmlns="http://www.w3.org/2000/svg" xmlns:xlink="http://www.w3.org/1999/xlink">
<g id="graph0" class="graph" transform="scale(1 1) rotate(0) translate(4 155)">
<title>lib/ExecutionEngine</title>
<g id="clust1" class="cluster">
<title>clusterdir_97aefd0d527b934f1d99a682da8fe6a9</title>
<g id="a_clust1"><a xlink:href="dir_97aefd0d527b934f1d99a682da8fe6a9.html" target="_top" xlink:title="lib">
<polygon fill="#ddddee" stroke="black" points="8,-56 8,-143 795,-143 795,-56 8,-56"/>
<text text-anchor="middle" x="401.5" y="-131" font-family="Helvetica" font-size="10.00">lib</text>
</a>
</g>
</g>
<g id="clust2" class="cluster">
<title>clusterdir_9ff4c6dc1720636682ab045c894e9bc5</title>
<g id="a_clust2"><a xlink:href="dir_9ff4c6dc1720636682ab045c894e9bc5.html" target="_top">
<polygon fill="#eeeeff" stroke="black" points="16,-64 16,-116 787,-116 787,-64 16,-64"/>
</a>
</g>
</g>
<!-- dir_9ff4c6dc1720636682ab045c894e9bc5 -->
<g id="node1" class="node">
<title>dir_9ff4c6dc1720636682ab045c894e9bc5</title>
<text text-anchor="middle" x="734" y="-87.5" font-family="Helvetica" font-size="10.00">ExecutionEngine</text>
</g>
<!-- dir_d44c64559bbebec7f509842c48db8b23 -->
<g id="node10" class="node">
<title>dir_d44c64559bbebec7f509842c48db8b23</title>
<g id="a_node10"><a xlink:href="dir_d44c64559bbebec7f509842c48db8b23.html" target="_top" xlink:title="include">
<polygon fill="none" stroke="red" points="422,-36 368,-36 368,0 422,0 422,-36"/>
<text text-anchor="middle" x="395" y="-15.5" font-family="Helvetica" font-size="10.00">include</text>
</a>
</g>
</g>
<!-- dir_9ff4c6dc1720636682ab045c894e9bc5&#45;&gt;dir_d44c64559bbebec7f509842c48db8b23 -->
<g id="edge6" class="edge">
<title>dir_9ff4c6dc1720636682ab045c894e9bc5&#45;&gt;dir_d44c64559bbebec7f509842c48db8b23</title>
<path fill="none" stroke="black" d="M711.36,-71.92C702.35,-65.95 691.62,-59.79 681,-56 595.72,-25.57 488.21,-19.67 432.43,-18.83"/>
<polygon fill="black" stroke="black" points="432.34,-15.32 422.31,-18.72 432.27,-22.32 432.34,-15.32"/>
<g id="a_edge6&#45;headlabel"><a xlink:href="dir_000037_000001.html" target="_top" xlink:title="436">
<text text-anchor="middle" x="435.97" y="-10.02" font-family="Helvetica" font-size="10.00">436</text>
</a>
</g>
</g>
<!-- dir_c18cbdaf4e06e8755d3483d62aecc1ae -->
<g id="node2" class="node">
<title>dir_c18cbdaf4e06e8755d3483d62aecc1ae</title>
<g id="a_node2"><a xlink:href="dir_c18cbdaf4e06e8755d3483d62aecc1ae.html" target="_top" xlink:title="IntelJITEvents">
<polygon fill="white" stroke="black" points="671.5,-108 592.5,-108 592.5,-72 671.5,-72 671.5,-108"/>
<text text-anchor="middle" x="632" y="-87.5" font-family="Helvetica" font-size="10.00">IntelJITEvents</text>
</a>
</g>
</g>
<!-- dir_c18cbdaf4e06e8755d3483d62aecc1ae&#45;&gt;dir_d44c64559bbebec7f509842c48db8b23 -->
<g id="edge9" class="edge">
<title>dir_c18cbdaf4e06e8755d3483d62aecc1ae&#45;&gt;dir_d44c64559bbebec7f509842c48db8b23</title>
<path fill="none" stroke="black" d="M610.63,-71.9C602.4,-66.06 592.66,-60.01 583,-56 533.29,-35.36 471.33,-26.03 432.45,-21.96"/>
<polygon fill="black" stroke="black" points="432.42,-18.44 422.12,-20.95 431.73,-25.41 432.42,-18.44"/>
<g id="a_edge9&#45;headlabel"><a xlink:href="dir_000122_000001.html" target="_top" xlink:title="15">
<text text-anchor="middle" x="436.27" y="-13.47" font-family="Helvetica" font-size="10.00">15</text>
</a>
</g>
</g>
<!-- dir_88ae9da9d919ad872cc2fab341cfed84 -->
<g id="node3" class="node">
<title>dir_88ae9da9d919ad872cc2fab341cfed84</title>
<g id="a_node3"><a xlink:href="dir_88ae9da9d919ad872cc2fab341cfed84.html" target="_top" xlink:title="Interpreter">
<polygon fill="white" stroke="black" points="574,-108 512,-108 512,-72 574,-72 574,-108"/>
<text text-anchor="middle" x="543" y="-87.5" font-family="Helvetica" font-size="10.00">Interpreter</text>
</a>
</g>
</g>
<!-- dir_88ae9da9d919ad872cc2fab341cfed84&#45;&gt;dir_d44c64559bbebec7f509842c48db8b23 -->
<g id="edge2" class="edge">
<title>dir_88ae9da9d919ad872cc2fab341cfed84&#45;&gt;dir_d44c64559bbebec7f509842c48db8b23</title>
<path fill="none" stroke="black" d="M524.9,-71.73C518.37,-66.15 510.7,-60.31 503,-56 480.75,-43.56 453.59,-34.28 432.08,-28.12"/>
<polygon fill="black" stroke="black" points="432.89,-24.72 422.32,-25.43 431.03,-31.46 432.89,-24.72"/>
<g id="a_edge2&#45;headlabel"><a xlink:href="dir_000038_000001.html" target="_top" xlink:title="36">
<text text-anchor="middle" x="437.11" y="-20.43" font-family="Helvetica" font-size="10.00">36</text>
</a>
</g>
</g>
<!-- dir_c0daa9c1887f9b9c5a8c0de610c5601a -->
<g id="node4" class="node">
<title>dir_c0daa9c1887f9b9c5a8c0de610c5601a</title>
<g id="a_node4"><a xlink:href="dir_c0daa9c1887f9b9c5a8c0de610c5601a.html" target="_top" xlink:title="JITLink">
<polygon fill="white" stroke="black" points="494,-108 440,-108 440,-72 494,-72 494,-108"/>
<text text-anchor="middle" x="467" y="-87.5" font-family="Helvetica" font-size="10.00">JITLink</text>
</a>
</g>
</g>
<!-- dir_c0daa9c1887f9b9c5a8c0de610c5601a&#45;&gt;dir_d44c64559bbebec7f509842c48db8b23 -->
<g id="edge8" class="edge">
<title>dir_c0daa9c1887f9b9c5a8c0de610c5601a&#45;&gt;dir_d44c64559bbebec7f509842c48db8b23</title>
<path fill="none" stroke="black" d="M449.2,-71.7C440.4,-63.14 429.62,-52.66 420,-43.3"/>
<polygon fill="black" stroke="black" points="422.2,-40.57 412.59,-36.1 417.32,-45.58 422.2,-40.57"/>
<g id="a_edge8&#45;headlabel"><a xlink:href="dir_000098_000001.html" target="_top" xlink:title="45">
<text text-anchor="middle" x="426.76" y="-38.54" font-family="Helvetica" font-size="10.00">45</text>
</a>
</g>
</g>
<!-- dir_f6bf5a9059ffffaa95dc7b2d70a6f1d4 -->
<g id="node5" class="node">
<title>dir_f6bf5a9059ffffaa95dc7b2d70a6f1d4</title>
<g id="a_node5"><a xlink:href="dir_f6bf5a9059ffffaa95dc7b2d70a6f1d4.html" target="_top" xlink:title="MCJIT">
<polygon fill="white" stroke="black" points="422,-108 368,-108 368,-72 422,-72 422,-108"/>
<text text-anchor="middle" x="395" y="-87.5" font-family="Helvetica" font-size="10.00">MCJIT</text>
</a>
</g>
</g>
<!-- dir_f6bf5a9059ffffaa95dc7b2d70a6f1d4&#45;&gt;dir_d44c64559bbebec7f509842c48db8b23 -->
<g id="edge3" class="edge">
<title>dir_f6bf5a9059ffffaa95dc7b2d70a6f1d4&#45;&gt;dir_d44c64559bbebec7f509842c48db8b23</title>
<path fill="none" stroke="black" d="M395,-71.7C395,-63.98 395,-54.71 395,-46.11"/>
<polygon fill="black" stroke="black" points="398.5,-46.1 395,-36.1 391.5,-46.1 398.5,-46.1"/>
<g id="a_edge3&#45;headlabel"><a xlink:href="dir_000039_000001.html" target="_top" xlink:title="23">
<text text-anchor="middle" x="401.34" y="-47.2" font-family="Helvetica" font-size="10.00">23</text>
</a>
</g>
</g>
<!-- dir_8535d753063d2d6243d40ee90c09f36a -->
<g id="node6" class="node">
<title>dir_8535d753063d2d6243d40ee90c09f36a</title>
<g id="a_node6"><a xlink:href="dir_8535d753063d2d6243d40ee90c09f36a.html" target="_top" xlink:title="OProfileJIT">
<polygon fill="white" stroke="black" points="349.5,-108 284.5,-108 284.5,-72 349.5,-72 349.5,-108"/>
<text text-anchor="middle" x="317" y="-87.5" font-family="Helvetica" font-size="10.00">OProfileJIT</text>
</a>
</g>
</g>
<!-- dir_8535d753063d2d6243d40ee90c09f36a&#45;&gt;dir_d44c64559bbebec7f509842c48db8b23 -->
<g id="edge5" class="edge">
<title>dir_8535d753063d2d6243d40ee90c09f36a&#45;&gt;dir_d44c64559bbebec7f509842c48db8b23</title>
<path fill="none" stroke="black" d="M336.28,-71.7C345.92,-63.05 357.73,-52.45 368.23,-43.03"/>
<polygon fill="black" stroke="black" points="370.84,-45.39 375.94,-36.1 366.16,-40.18 370.84,-45.39"/>
<g id="a_edge5&#45;headlabel"><a xlink:href="dir_000123_000001.html" target="_top" xlink:title="19">
<text text-anchor="middle" x="370.06" y="-47.4" font-family="Helvetica" font-size="10.00">19</text>
</a>
</g>
</g>
<!-- dir_5e11c450ca4c873ca81149e572d5ac9a -->
<g id="node7" class="node">
<title>dir_5e11c450ca4c873ca81149e572d5ac9a</title>
<g id="a_node7"><a xlink:href="dir_5e11c450ca4c873ca81149e572d5ac9a.html" target="_top" xlink:title="Orc">
<polygon fill="white" stroke="red" points="266,-108 212,-108 212,-72 266,-72 266,-108"/>
<text text-anchor="middle" x="239" y="-87.5" font-family="Helvetica" font-size="10.00">Orc</text>
</a>
</g>
</g>
<!-- dir_5e11c450ca4c873ca81149e572d5ac9a&#45;&gt;dir_d44c64559bbebec7f509842c48db8b23 -->
<g id="edge7" class="edge">
<title>dir_5e11c450ca4c873ca81149e572d5ac9a&#45;&gt;dir_d44c64559bbebec7f509842c48db8b23</title>
<path fill="none" stroke="black" d="M255.13,-71.89C261.22,-66.2 268.51,-60.24 276,-56 301.54,-41.55 333.42,-32.03 357.75,-26.26"/>
<polygon fill="black" stroke="black" points="358.69,-29.64 367.68,-24.02 357.15,-22.81 358.69,-29.64"/>
<g id="a_edge7&#45;headlabel"><a xlink:href="dir_000124_000001.html" target="_top" xlink:title="164">
<text text-anchor="middle" x="355.81" y="-30.7" font-family="Helvetica" font-size="10.00">164</text>
</a>
</g>
</g>
<!-- dir_b8c315def5dadaa4e5a90d89aa927992 -->
<g id="node8" class="node">
<title>dir_b8c315def5dadaa4e5a90d89aa927992</title>
<g id="a_node8"><a xlink:href="dir_b8c315def5dadaa4e5a90d89aa927992.html" target="_top" xlink:title="PerfJITEvents">
<polygon fill="white" stroke="black" points="194,-108 116,-108 116,-72 194,-72 194,-108"/>
<text text-anchor="middle" x="155" y="-87.5" font-family="Helvetica" font-size="10.00">PerfJITEvents</text>
</a>
</g>
</g>
<!-- dir_b8c315def5dadaa4e5a90d89aa927992&#45;&gt;dir_d44c64559bbebec7f509842c48db8b23 -->
<g id="edge4" class="edge">
<title>dir_b8c315def5dadaa4e5a90d89aa927992&#45;&gt;dir_d44c64559bbebec7f509842c48db8b23</title>
<path fill="none" stroke="black" d="M175.88,-71.86C183.93,-66.03 193.48,-59.98 203,-56 254.17,-34.59 318.24,-25.44 357.89,-21.62"/>
<polygon fill="black" stroke="black" points="358.27,-25.1 367.91,-20.72 357.64,-18.12 358.27,-25.1"/>
<g id="a_edge4&#45;headlabel"><a xlink:href="dir_000128_000001.html" target="_top" xlink:title="15">
<text text-anchor="middle" x="354.94" y="-25.75" font-family="Helvetica" font-size="10.00">15</text>
</a>
</g>
</g>
<!-- dir_9dfae4a6f191195de651c80c4758b76b -->
<g id="node9" class="node">
<title>dir_9dfae4a6f191195de651c80c4758b76b</title>
<g id="a_node9"><a xlink:href="dir_9dfae4a6f191195de651c80c4758b76b.html" target="_top" xlink:title="RuntimeDyld">
<polygon fill="white" stroke="red" points="98,-108 24,-108 24,-72 98,-72 98,-108"/>
<text text-anchor="middle" x="61" y="-87.5" font-family="Helvetica" font-size="10.00">RuntimeDyld</text>
</a>
</g>
</g>
<!-- dir_9dfae4a6f191195de651c80c4758b76b&#45;&gt;dir_d44c64559bbebec7f509842c48db8b23 -->
<g id="edge1" class="edge">
<title>dir_9dfae4a6f191195de651c80c4758b76b&#45;&gt;dir_d44c64559bbebec7f509842c48db8b23</title>
<path fill="none" stroke="black" d="M80.33,-71.87C88.11,-65.89 97.49,-59.74 107,-56 192.05,-22.52 301.09,-17.9 357.48,-18.06"/>
<polygon fill="black" stroke="black" points="357.68,-21.56 367.71,-18.14 357.74,-14.56 357.68,-21.56"/>
<g id="a_edge1&#45;headlabel"><a xlink:href="dir_000129_000001.html" target="_top" xlink:title="67">
<text text-anchor="middle" x="354.06" y="-21.87" font-family="Helvetica" font-size="10.00">67</text>
</a>
</g>
</g>
</g>
</svg>
