<?xml version="1.0" encoding="UTF-8" standalone="no"?>
<!DOCTYPE svg PUBLIC "-//W3C//DTD SVG 1.1//EN"
 "http://www.w3.org/Graphics/SVG/1.1/DTD/svg11.dtd">
<!-- Generated by graphviz version 2.44.0 (0)
 -->
<!-- Title: include/llvm/DebugInfo/PDB/Native/InjectedSourceStream.h Pages: 1 -->
<svg width="550pt" height="184pt"
 viewBox="0.00 0.00 550.00 184.00" xmlns="http://www.w3.org/2000/svg" xmlns:xlink="http://www.w3.org/1999/xlink">
<g id="graph0" class="graph" transform="scale(1 1) rotate(0) translate(4 180)">
<title>include/llvm/DebugInfo/PDB/Native/InjectedSourceStream.h</title>
<!-- Node1 -->
<g id="node1" class="node">
<title>Node1</title>
<g id="a_node1"><a xlink:title=" ">
<polygon fill="#bfbfbf" stroke="black" points="238.5,-145.5 238.5,-175.5 417.5,-175.5 417.5,-145.5 238.5,-145.5"/>
<text text-anchor="start" x="246.5" y="-163.5" font-family="Helvetica" font-size="10.00">include/llvm/DebugInfo</text>
<text text-anchor="middle" x="328" y="-152.5" font-family="Helvetica" font-size="10.00">/PDB/Native/InjectedSourceStream.h</text>
</a>
</g>
</g>
<!-- Node2 -->
<g id="node2" class="node">
<title>Node2</title>
<g id="a_node2"><a xlink:href="NativeEnumInjectedSources_8h.html" target="_top" xlink:title=" ">
<polygon fill="none" stroke="black" points="81.5,-67.5 81.5,-108.5 242.5,-108.5 242.5,-67.5 81.5,-67.5"/>
<text text-anchor="start" x="89.5" y="-96.5" font-family="Helvetica" font-size="10.00">include/llvm/DebugInfo</text>
<text text-anchor="start" x="89.5" y="-85.5" font-family="Helvetica" font-size="10.00">/PDB/Native/NativeEnumInjected</text>
<text text-anchor="middle" x="162" y="-74.5" font-family="Helvetica" font-size="10.00">Sources.h</text>
</a>
</g>
</g>
<!-- Node1&#45;&gt;Node2 -->
<g id="edge1" class="edge">
<title>Node1&#45;&gt;Node2</title>
<path fill="none" stroke="midnightblue" d="M285.38,-141.4C261.7,-131.34 232.23,-118.83 208.02,-108.55"/>
<polygon fill="midnightblue" stroke="midnightblue" points="284.23,-144.72 294.81,-145.4 286.97,-138.27 284.23,-144.72"/>
</g>
<!-- Node5 -->
<g id="node5" class="node">
<title>Node5</title>
<g id="a_node5"><a xlink:href="InjectedSourceStream_8cpp.html" target="_top" xlink:title=" ">
<polygon fill="none" stroke="black" points="260.5,-73 260.5,-103 395.5,-103 395.5,-73 260.5,-73"/>
<text text-anchor="start" x="268.5" y="-91" font-family="Helvetica" font-size="10.00">lib/DebugInfo/PDB/Native</text>
<text text-anchor="middle" x="328" y="-80" font-family="Helvetica" font-size="10.00">/InjectedSourceStream.cpp</text>
</a>
</g>
</g>
<!-- Node1&#45;&gt;Node5 -->
<g id="edge4" class="edge">
<title>Node1&#45;&gt;Node5</title>
<path fill="none" stroke="midnightblue" d="M328,-135.23C328,-124.57 328,-112.41 328,-103.25"/>
<polygon fill="midnightblue" stroke="midnightblue" points="324.5,-135.23 328,-145.23 331.5,-135.23 324.5,-135.23"/>
</g>
<!-- Node6 -->
<g id="node6" class="node">
<title>Node6</title>
<g id="a_node6"><a xlink:href="PDBFile_8cpp.html" target="_top" xlink:title=" ">
<polygon fill="none" stroke="black" points="414,-73 414,-103 542,-103 542,-73 414,-73"/>
<text text-anchor="start" x="422" y="-91" font-family="Helvetica" font-size="10.00">lib/DebugInfo/PDB/Native</text>
<text text-anchor="middle" x="478" y="-80" font-family="Helvetica" font-size="10.00">/PDBFile.cpp</text>
</a>
</g>
</g>
<!-- Node1&#45;&gt;Node6 -->
<g id="edge5" class="edge">
<title>Node1&#45;&gt;Node6</title>
<path fill="none" stroke="midnightblue" d="M367.3,-141.03C392.56,-129.16 424.87,-113.97 448.06,-103.07"/>
<polygon fill="midnightblue" stroke="midnightblue" points="365.56,-137.98 357.99,-145.4 368.53,-144.32 365.56,-137.98"/>
</g>
<!-- Node3 -->
<g id="node3" class="node">
<title>Node3</title>
<g id="a_node3"><a xlink:href="NativeEnumInjectedSources_8cpp.html" target="_top" xlink:title=" ">
<polygon fill="none" stroke="black" points="0,-0.5 0,-30.5 162,-30.5 162,-0.5 0,-0.5"/>
<text text-anchor="start" x="8" y="-18.5" font-family="Helvetica" font-size="10.00">lib/DebugInfo/PDB/Native</text>
<text text-anchor="middle" x="81" y="-7.5" font-family="Helvetica" font-size="10.00">/NativeEnumInjectedSources.cpp</text>
</a>
</g>
</g>
<!-- Node2&#45;&gt;Node3 -->
<g id="edge2" class="edge">
<title>Node2&#45;&gt;Node3</title>
<path fill="none" stroke="midnightblue" d="M131.61,-60.55C119.96,-50.41 107.11,-39.23 97.28,-30.67"/>
<polygon fill="midnightblue" stroke="midnightblue" points="129.6,-63.44 139.44,-67.36 134.19,-58.16 129.6,-63.44"/>
</g>
<!-- Node4 -->
<g id="node4" class="node">
<title>Node4</title>
<g id="a_node4"><a xlink:href="NativeSession_8cpp.html" target="_top" xlink:title=" ">
<polygon fill="none" stroke="black" points="180,-0.5 180,-30.5 308,-30.5 308,-0.5 180,-0.5"/>
<text text-anchor="start" x="188" y="-18.5" font-family="Helvetica" font-size="10.00">lib/DebugInfo/PDB/Native</text>
<text text-anchor="middle" x="244" y="-7.5" font-family="Helvetica" font-size="10.00">/NativeSession.cpp</text>
</a>
</g>
</g>
<!-- Node2&#45;&gt;Node4 -->
<g id="edge3" class="edge">
<title>Node2&#45;&gt;Node4</title>
<path fill="none" stroke="midnightblue" d="M192.76,-60.55C204.56,-50.41 217.56,-39.23 227.52,-30.67"/>
<polygon fill="midnightblue" stroke="midnightblue" points="190.14,-58.19 184.84,-67.36 194.71,-63.5 190.14,-58.19"/>
</g>
</g>
</svg>
