<?xml version="1.0" encoding="UTF-8" standalone="no"?>
<!DOCTYPE svg PUBLIC "-//W3C//DTD SVG 1.1//EN"
 "http://www.w3.org/Graphics/SVG/1.1/DTD/svg11.dtd">
<!-- Generated by graphviz version 2.44.0 (0)
 -->
<!-- Title: include/llvm/Transforms/InstCombine/InstCombineWorklist.h Pages: 1 -->
<svg width="4668pt" height="543pt"
 viewBox="0.00 0.00 4668.00 543.00" xmlns="http://www.w3.org/2000/svg" xmlns:xlink="http://www.w3.org/1999/xlink">
<g id="graph0" class="graph" transform="scale(1 1) rotate(0) translate(4 539)">
<title>include/llvm/Transforms/InstCombine/InstCombineWorklist.h</title>
<!-- Node1 -->
<g id="node1" class="node">
<title>Node1</title>
<g id="a_node1"><a xlink:title=" ">
<polygon fill="#bfbfbf" stroke="black" points="1987.5,-504.5 1987.5,-534.5 2164.5,-534.5 2164.5,-504.5 1987.5,-504.5"/>
<text text-anchor="start" x="1995.5" y="-522.5" font-family="Helvetica" font-size="10.00">include/llvm/Transforms</text>
<text text-anchor="middle" x="2076" y="-511.5" font-family="Helvetica" font-size="10.00">/InstCombine/InstCombineWorklist.h</text>
</a>
</g>
</g>
<!-- Node2 -->
<g id="node2" class="node">
<title>Node2</title>
<g id="a_node2"><a xlink:href="DenseMap_8h.html" target="_top" xlink:title=" ">
<polygon fill="none" stroke="black" points="1052,-336.5 1052,-355.5 1168,-355.5 1168,-336.5 1052,-336.5"/>
<text text-anchor="middle" x="1110" y="-343.5" font-family="Helvetica" font-size="10.00">llvm/ADT/DenseMap.h</text>
</a>
</g>
</g>
<!-- Node1&#45;&gt;Node2 -->
<g id="edge1" class="edge">
<title>Node1&#45;&gt;Node2</title>
<path fill="none" stroke="midnightblue" d="M1996.95,-504.47C1807.93,-470.91 1333.3,-386.64 1167.92,-357.28"/>
<polygon fill="midnightblue" stroke="midnightblue" points="1168.4,-353.81 1157.94,-355.51 1167.18,-360.71 1168.4,-353.81"/>
</g>
<!-- Node34 -->
<g id="node6" class="node">
<title>Node34</title>
<g id="a_node6"><a xlink:href="SmallVector_8h.html" target="_top" xlink:title=" ">
<polygon fill="none" stroke="black" points="1581.5,-168.5 1581.5,-187.5 1702.5,-187.5 1702.5,-168.5 1581.5,-168.5"/>
<text text-anchor="middle" x="1642" y="-175.5" font-family="Helvetica" font-size="10.00">llvm/ADT/SmallVector.h</text>
</a>
</g>
</g>
<!-- Node1&#45;&gt;Node34 -->
<g id="edge134" class="edge">
<title>Node1&#45;&gt;Node34</title>
<path fill="none" stroke="midnightblue" d="M2032.4,-504.37C1990.02,-487.58 1932,-455.08 1932,-403 1932,-403 1932,-403 1932,-345 1932,-252.88 1830.79,-290.04 1751,-244 1720.94,-226.66 1686.61,-206.05 1664.64,-192.76"/>
<polygon fill="midnightblue" stroke="midnightblue" points="1666.4,-189.73 1656.03,-187.54 1662.77,-195.72 1666.4,-189.73"/>
</g>
<!-- Node5 -->
<g id="node9" class="node">
<title>Node5</title>
<g id="a_node9"><a xlink:href="Compiler_8h.html" target="_top" xlink:title=" ">
<polygon fill="none" stroke="red" points="243,-0.5 243,-19.5 365,-19.5 365,-0.5 243,-0.5"/>
<text text-anchor="middle" x="304" y="-7.5" font-family="Helvetica" font-size="10.00">llvm/Support/Compiler.h</text>
</a>
</g>
</g>
<!-- Node1&#45;&gt;Node5 -->
<g id="edge181" class="edge">
<title>Node1&#45;&gt;Node5</title>
<path fill="none" stroke="midnightblue" d="M1987.46,-518.28C1591.21,-516.71 0,-504.13 0,-403 0,-403 0,-403 0,-121 0,-84.82 18.15,-74.9 49,-56 79.11,-37.55 168.29,-24.8 232.71,-17.7"/>
<polygon fill="midnightblue" stroke="midnightblue" points="233.25,-21.16 242.82,-16.61 232.5,-14.2 233.25,-21.16"/>
</g>
<!-- Node42 -->
<g id="node26" class="node">
<title>Node42</title>
<g id="a_node26"><a xlink:href="STLExtras_8h.html" target="_top" xlink:title=" ">
<polygon fill="none" stroke="black" points="2524.5,-168.5 2524.5,-187.5 2639.5,-187.5 2639.5,-168.5 2524.5,-168.5"/>
<text text-anchor="middle" x="2582" y="-175.5" font-family="Helvetica" font-size="10.00">llvm/ADT/STLExtras.h</text>
</a>
</g>
</g>
<!-- Node1&#45;&gt;Node42 -->
<g id="edge115" class="edge">
<title>Node1&#45;&gt;Node42</title>
<path fill="none" stroke="midnightblue" d="M2089.18,-504.22C2133.33,-457.19 2281.83,-305.52 2434,-224 2463.44,-208.23 2499.19,-197.17 2528.18,-189.95"/>
<polygon fill="midnightblue" stroke="midnightblue" points="2529.23,-193.3 2538.14,-187.56 2527.59,-186.5 2529.23,-193.3"/>
</g>
<!-- Node54 -->
<g id="node37" class="node">
<title>Node54</title>
<g id="a_node37"><a xlink:href="SetVector_8h.html" target="_top" xlink:title=" ">
<polygon fill="none" stroke="black" points="826.5,-448.5 826.5,-467.5 937.5,-467.5 937.5,-448.5 826.5,-448.5"/>
<text text-anchor="middle" x="882" y="-455.5" font-family="Helvetica" font-size="10.00">llvm/ADT/SetVector.h</text>
</a>
</g>
</g>
<!-- Node1&#45;&gt;Node54 -->
<g id="edge116" class="edge">
<title>Node1&#45;&gt;Node54</title>
<path fill="none" stroke="midnightblue" d="M1987.23,-514.08C1757.88,-502.65 1149.44,-472.33 947.89,-462.28"/>
<polygon fill="midnightblue" stroke="midnightblue" points="947.91,-458.78 937.75,-461.78 947.56,-465.77 947.91,-458.78"/>
</g>
<!-- Node56 -->
<g id="node39" class="node">
<title>Node56</title>
<g id="a_node39"><a xlink:href="IR_2Instruction_8h.html" target="_top" xlink:title=" ">
<polygon fill="none" stroke="black" points="3311.5,-392.5 3311.5,-411.5 3416.5,-411.5 3416.5,-392.5 3311.5,-392.5"/>
<text text-anchor="middle" x="3364" y="-399.5" font-family="Helvetica" font-size="10.00">llvm/IR/Instruction.h</text>
</a>
</g>
</g>
<!-- Node1&#45;&gt;Node56 -->
<g id="edge135" class="edge">
<title>Node1&#45;&gt;Node56</title>
<path fill="none" stroke="midnightblue" d="M2125.31,-504.48C2156.76,-495.12 2198.19,-481.99 2234,-468 2253.63,-460.33 2256.52,-452.98 2277,-448 2376.26,-423.88 3083.99,-408.39 3300.94,-404.17"/>
<polygon fill="midnightblue" stroke="midnightblue" points="3301.27,-407.66 3311.2,-403.97 3301.13,-400.66 3301.27,-407.66"/>
</g>
<!-- Node90 -->
<g id="node49" class="node">
<title>Node90</title>
<g id="a_node49"><a xlink:href="Debug_8h.html" target="_top" xlink:title=" ">
<polygon fill="none" stroke="black" points="2286,-448.5 2286,-467.5 2398,-467.5 2398,-448.5 2286,-448.5"/>
<text text-anchor="middle" x="2342" y="-455.5" font-family="Helvetica" font-size="10.00">llvm/Support/Debug.h</text>
</a>
</g>
</g>
<!-- Node1&#45;&gt;Node90 -->
<g id="edge182" class="edge">
<title>Node1&#45;&gt;Node90</title>
<path fill="none" stroke="midnightblue" d="M2138.7,-504.47C2186.2,-493.85 2250.47,-479.47 2293.94,-469.75"/>
<polygon fill="midnightblue" stroke="midnightblue" points="2294.98,-473.1 2303.97,-467.51 2293.45,-466.27 2294.98,-473.1"/>
</g>
<!-- Node91 -->
<g id="node50" class="node">
<title>Node91</title>
<g id="a_node50"><a xlink:href="raw__ostream_8h.html" target="_top" xlink:title=" ">
<polygon fill="none" stroke="red" points="3662,-280.5 3662,-299.5 3802,-299.5 3802,-280.5 3662,-280.5"/>
<text text-anchor="middle" x="3732" y="-287.5" font-family="Helvetica" font-size="10.00">llvm/Support/raw_ostream.h</text>
</a>
</g>
</g>
<!-- Node1&#45;&gt;Node91 -->
<g id="edge183" class="edge">
<title>Node1&#45;&gt;Node91</title>
<path fill="none" stroke="midnightblue" d="M2164.71,-514.12C2380.96,-502.86 2952.24,-469.71 3426,-412 3577.59,-393.53 3666.21,-472.45 3765,-356 3777.57,-341.18 3763.19,-320.75 3749.66,-306.77"/>
<polygon fill="midnightblue" stroke="midnightblue" points="3752.03,-304.2 3742.41,-299.75 3747.16,-309.22 3752.03,-304.2"/>
</g>
<!-- Node3 -->
<g id="node3" class="node">
<title>Node3</title>
<g id="a_node3"><a xlink:href="DenseMapInfo_8h.html" target="_top" xlink:title=" ">
<polygon fill="none" stroke="red" points="3008,-280.5 3008,-299.5 3140,-299.5 3140,-280.5 3008,-280.5"/>
<text text-anchor="middle" x="3074" y="-287.5" font-family="Helvetica" font-size="10.00">llvm/ADT/DenseMapInfo.h</text>
</a>
</g>
</g>
<!-- Node2&#45;&gt;Node3 -->
<g id="edge2" class="edge">
<title>Node2&#45;&gt;Node3</title>
<path fill="none" stroke="midnightblue" d="M1168.34,-344.36C1442.96,-341.25 2609.32,-326.73 2997.63,-300.01"/>
<polygon fill="midnightblue" stroke="midnightblue" points="2998.05,-303.49 3007.78,-299.29 2997.56,-296.5 2998.05,-303.49"/>
</g>
<!-- Node31 -->
<g id="node8" class="node">
<title>Node31</title>
<g id="a_node8"><a xlink:title=" ">
<polygon fill="none" stroke="#bfbfbf" points="1816,-0.5 1816,-19.5 1856,-19.5 1856,-0.5 1816,-0.5"/>
<text text-anchor="middle" x="1836" y="-7.5" font-family="Helvetica" font-size="10.00">utility</text>
</a>
</g>
</g>
<!-- Node2&#45;&gt;Node31 -->
<g id="edge114" class="edge">
<title>Node2&#45;&gt;Node31</title>
<path fill="none" stroke="midnightblue" d="M1080.21,-336.37C1058.25,-329.04 1028.42,-316.99 1006,-300 954.88,-261.27 936.46,-248.44 915,-188 897.4,-138.44 919.18,-85.62 961,-56 1031.16,-6.31 1659.89,-9.29 1805.84,-10.66"/>
<polygon fill="midnightblue" stroke="midnightblue" points="1805.83,-14.16 1815.87,-10.76 1805.9,-7.16 1805.83,-14.16"/>
</g>
<!-- Node2&#45;&gt;Node5 -->
<g id="edge100" class="edge">
<title>Node2&#45;&gt;Node5</title>
<path fill="none" stroke="midnightblue" d="M1051.99,-341.89C859.54,-330.22 248.08,-281.7 138,-132 117.99,-104.79 117.48,-82.83 138,-56 150,-40.31 193.93,-28.82 233.58,-21.38"/>
<polygon fill="midnightblue" stroke="midnightblue" points="234.33,-24.8 243.54,-19.57 233.08,-17.91 234.33,-24.8"/>
</g>
<!-- Node8 -->
<g id="node11" class="node">
<title>Node8</title>
<g id="a_node11"><a xlink:href="MathExtras_8h.html" target="_top" xlink:title=" ">
<polygon fill="none" stroke="red" points="2020,-112.5 2020,-131.5 2154,-131.5 2154,-112.5 2020,-112.5"/>
<text text-anchor="middle" x="2087" y="-119.5" font-family="Helvetica" font-size="10.00">llvm/Support/MathExtras.h</text>
</a>
</g>
</g>
<!-- Node2&#45;&gt;Node8 -->
<g id="edge101" class="edge">
<title>Node2&#45;&gt;Node8</title>
<path fill="none" stroke="midnightblue" d="M1168.33,-344.88C1298.62,-343 1621.73,-329.33 1875,-244 1885.11,-240.59 2010.53,-167.65 2063.57,-136.7"/>
<polygon fill="midnightblue" stroke="midnightblue" points="2065.43,-139.66 2072.3,-131.6 2061.9,-133.62 2065.43,-139.66"/>
</g>
<!-- Node9 -->
<g id="node12" class="node">
<title>Node9</title>
<g id="a_node12"><a xlink:title=" ">
<polygon fill="none" stroke="#bfbfbf" points="970,-56.5 970,-75.5 1026,-75.5 1026,-56.5 970,-56.5"/>
<text text-anchor="middle" x="998" y="-63.5" font-family="Helvetica" font-size="10.00">algorithm</text>
</a>
</g>
</g>
<!-- Node2&#45;&gt;Node9 -->
<g id="edge106" class="edge">
<title>Node2&#45;&gt;Node9</title>
<path fill="none" stroke="midnightblue" d="M1051.71,-341.79C955.79,-335.9 773.34,-321.93 754,-300 715.15,-255.93 725.63,-214.91 761,-168 809.22,-104.06 905.94,-80.15 959.71,-71.56"/>
<polygon fill="midnightblue" stroke="midnightblue" points="960.5,-74.98 969.87,-70.04 959.46,-68.06 960.5,-74.98"/>
</g>
<!-- Node10 -->
<g id="node13" class="node">
<title>Node10</title>
<g id="a_node13"><a xlink:title=" ">
<polygon fill="none" stroke="#bfbfbf" points="3010,-56.5 3010,-75.5 3060,-75.5 3060,-56.5 3010,-56.5"/>
<text text-anchor="middle" x="3035" y="-63.5" font-family="Helvetica" font-size="10.00">cassert</text>
</a>
</g>
</g>
<!-- Node2&#45;&gt;Node10 -->
<g id="edge107" class="edge">
<title>Node2&#45;&gt;Node10</title>
<path fill="none" stroke="midnightblue" d="M1168.25,-344.65C1304.26,-343.24 1653.12,-336.07 1942,-300 2115.5,-278.34 2154.96,-249.08 2328,-224 2497.64,-199.41 2542.35,-212.56 2712,-188 2775.88,-178.75 2944.39,-169.39 2997,-132 3012.95,-120.67 3023.24,-100.37 3029.03,-85.46"/>
<polygon fill="midnightblue" stroke="midnightblue" points="3032.43,-86.36 3032.48,-75.76 3025.83,-84.02 3032.43,-86.36"/>
</g>
<!-- Node14 -->
<g id="node15" class="node">
<title>Node14</title>
<g id="a_node15"><a xlink:title=" ">
<polygon fill="none" stroke="#bfbfbf" points="1695,-56.5 1695,-75.5 1741,-75.5 1741,-56.5 1695,-56.5"/>
<text text-anchor="middle" x="1718" y="-63.5" font-family="Helvetica" font-size="10.00">cstring</text>
</a>
</g>
</g>
<!-- Node2&#45;&gt;Node14 -->
<g id="edge109" class="edge">
<title>Node2&#45;&gt;Node14</title>
<path fill="none" stroke="midnightblue" d="M1104.58,-336.37C1084.11,-302.54 1015.62,-177.66 1077,-112 1117.61,-68.56 1551.7,-80.49 1611,-76 1635.65,-74.13 1663.47,-71.79 1684.56,-69.96"/>
<polygon fill="midnightblue" stroke="midnightblue" points="1684.97,-73.43 1694.63,-69.08 1684.36,-66.46 1684.97,-73.43"/>
</g>
<!-- Node16 -->
<g id="node17" class="node">
<title>Node16</title>
<g id="a_node17"><a xlink:title=" ">
<polygon fill="none" stroke="#bfbfbf" points="3787,-0.5 3787,-19.5 3849,-19.5 3849,-0.5 3787,-0.5"/>
<text text-anchor="middle" x="3818" y="-7.5" font-family="Helvetica" font-size="10.00">type_traits</text>
</a>
</g>
</g>
<!-- Node2&#45;&gt;Node16 -->
<g id="edge113" class="edge">
<title>Node2&#45;&gt;Node16</title>
<path fill="none" stroke="midnightblue" d="M1168.12,-344.98C1538.66,-344.71 3564.08,-341.33 3836,-300 3896.97,-290.73 4330,-182.78 4365,-132 4375.36,-116.97 4379.22,-75.75 4359,-56 4323.49,-21.32 3980.14,-13.25 3859.59,-11.47"/>
<polygon fill="midnightblue" stroke="midnightblue" points="3859.34,-7.97 3849.3,-11.33 3859.25,-14.97 3859.34,-7.97"/>
</g>
<!-- Node36 -->
<g id="node18" class="node">
<title>Node36</title>
<g id="a_node18"><a xlink:href="MemAlloc_8h.html" target="_top" xlink:title="This file defines counterparts of C library allocation functions defined in the namespace &#39;std&#39;.">
<polygon fill="none" stroke="black" points="446.5,-112.5 446.5,-131.5 573.5,-131.5 573.5,-112.5 446.5,-112.5"/>
<text text-anchor="middle" x="510" y="-119.5" font-family="Helvetica" font-size="10.00">llvm/Support/MemAlloc.h</text>
</a>
</g>
</g>
<!-- Node2&#45;&gt;Node36 -->
<g id="edge102" class="edge">
<title>Node2&#45;&gt;Node36</title>
<path fill="none" stroke="midnightblue" d="M1051.66,-342.53C957.05,-337.83 774.83,-325.7 716,-300 629.96,-262.42 553.13,-176.21 523.24,-139.76"/>
<polygon fill="midnightblue" stroke="midnightblue" points="525.68,-137.21 516.68,-131.63 520.24,-141.61 525.68,-137.21"/>
</g>
<!-- Node30 -->
<g id="node20" class="node">
<title>Node30</title>
<g id="a_node20"><a xlink:href="type__traits_8h.html" target="_top" xlink:title=" ">
<polygon fill="none" stroke="black" points="1473.5,-56.5 1473.5,-75.5 1602.5,-75.5 1602.5,-56.5 1473.5,-56.5"/>
<text text-anchor="middle" x="1538" y="-63.5" font-family="Helvetica" font-size="10.00">llvm/Support/type_traits.h</text>
</a>
</g>
</g>
<!-- Node2&#45;&gt;Node30 -->
<g id="edge105" class="edge">
<title>Node2&#45;&gt;Node30</title>
<path fill="none" stroke="midnightblue" d="M1072.9,-336.46C1053.56,-329.92 1031.57,-318.72 1020,-300 975.72,-228.35 975.72,-161.33 1044,-112 1117.56,-58.85 1355.31,-83.96 1463.4,-75.88"/>
<polygon fill="midnightblue" stroke="midnightblue" points="1463.79,-79.36 1473.44,-74.99 1463.17,-72.38 1463.79,-79.36"/>
</g>
<!-- Node28 -->
<g id="node21" class="node">
<title>Node28</title>
<g id="a_node21"><a xlink:title=" ">
<polygon fill="none" stroke="#bfbfbf" points="3867.5,-56.5 3867.5,-75.5 3916.5,-75.5 3916.5,-56.5 3867.5,-56.5"/>
<text text-anchor="middle" x="3892" y="-63.5" font-family="Helvetica" font-size="10.00">cstddef</text>
</a>
</g>
</g>
<!-- Node2&#45;&gt;Node28 -->
<g id="edge108" class="edge">
<title>Node2&#45;&gt;Node28</title>
<path fill="none" stroke="midnightblue" d="M1168.22,-344.89C1556.24,-344.06 3753.92,-337.7 3811,-300 3883.8,-251.91 3892.03,-132.79 3892.35,-86.16"/>
<polygon fill="midnightblue" stroke="midnightblue" points="3895.85,-85.93 3892.3,-75.95 3888.85,-85.97 3895.85,-85.93"/>
</g>
<!-- Node38 -->
<g id="node22" class="node">
<title>Node38</title>
<g id="a_node22"><a xlink:title=" ">
<polygon fill="none" stroke="#bfbfbf" points="1086,-112.5 1086,-131.5 1158,-131.5 1158,-112.5 1086,-112.5"/>
<text text-anchor="middle" x="1122" y="-119.5" font-family="Helvetica" font-size="10.00">initializer_list</text>
</a>
</g>
</g>
<!-- Node2&#45;&gt;Node38 -->
<g id="edge110" class="edge">
<title>Node2&#45;&gt;Node38</title>
<path fill="none" stroke="midnightblue" d="M1110.47,-336.3C1112.24,-303.63 1118.49,-187.87 1120.98,-141.96"/>
<polygon fill="midnightblue" stroke="midnightblue" points="1124.47,-142.06 1121.52,-131.88 1117.49,-141.68 1124.47,-142.06"/>
</g>
<!-- Node39 -->
<g id="node23" class="node">
<title>Node39</title>
<g id="a_node23"><a xlink:title=" ">
<polygon fill="none" stroke="#bfbfbf" points="1245.5,-56.5 1245.5,-75.5 1292.5,-75.5 1292.5,-56.5 1245.5,-56.5"/>
<text text-anchor="middle" x="1269" y="-63.5" font-family="Helvetica" font-size="10.00">iterator</text>
</a>
</g>
</g>
<!-- Node2&#45;&gt;Node39 -->
<g id="edge111" class="edge">
<title>Node2&#45;&gt;Node39</title>
<path fill="none" stroke="midnightblue" d="M1051.95,-345.48C969.55,-344.78 825,-337.99 792,-300 753.4,-255.55 776.53,-220.58 803,-168 818.14,-137.93 823.88,-127.04 854,-112 927.68,-75.22 1137.12,-90.15 1235.32,-75.64"/>
<polygon fill="midnightblue" stroke="midnightblue" points="1236.03,-79.07 1245.32,-73.98 1234.88,-72.16 1236.03,-79.07"/>
</g>
<!-- Node41 -->
<g id="node25" class="node">
<title>Node41</title>
<g id="a_node25"><a xlink:title=" ">
<polygon fill="none" stroke="#bfbfbf" points="1420.5,-56.5 1420.5,-75.5 1455.5,-75.5 1455.5,-56.5 1420.5,-56.5"/>
<text text-anchor="middle" x="1438" y="-63.5" font-family="Helvetica" font-size="10.00">new</text>
</a>
</g>
</g>
<!-- Node2&#45;&gt;Node41 -->
<g id="edge112" class="edge">
<title>Node2&#45;&gt;Node41</title>
<path fill="none" stroke="midnightblue" d="M1051.78,-337.64C1018.34,-331.42 976.64,-320.16 944,-300 881.38,-261.32 804.08,-229.83 844,-168 876.8,-117.2 909.56,-127.54 968,-112 1010.77,-100.63 1315.83,-76.42 1410.23,-69.12"/>
<polygon fill="midnightblue" stroke="midnightblue" points="1410.72,-72.6 1420.42,-68.34 1410.18,-65.62 1410.72,-72.6"/>
</g>
<!-- Node50 -->
<g id="node34" class="node">
<title>Node50</title>
<g id="a_node34"><a xlink:href="EpochTracker_8h.html" target="_top" xlink:title=" ">
<polygon fill="none" stroke="black" points="2898,-168.5 2898,-187.5 3026,-187.5 3026,-168.5 2898,-168.5"/>
<text text-anchor="middle" x="2962" y="-175.5" font-family="Helvetica" font-size="10.00">llvm/ADT/EpochTracker.h</text>
</a>
</g>
</g>
<!-- Node2&#45;&gt;Node50 -->
<g id="edge95" class="edge">
<title>Node2&#45;&gt;Node50</title>
<path fill="none" stroke="midnightblue" d="M1168.09,-345.67C1319.34,-346.68 1737.54,-344.84 2082,-300 2240.71,-279.34 2275.66,-247.32 2434,-224 2632.5,-194.76 2684.31,-207.5 2884,-188 2885.12,-187.89 2886.25,-187.78 2887.38,-187.67"/>
<polygon fill="midnightblue" stroke="midnightblue" points="2888.16,-191.1 2897.75,-186.59 2887.44,-184.14 2888.16,-191.1"/>
</g>
<!-- Node51 -->
<g id="node35" class="node">
<title>Node51</title>
<g id="a_node35"><a xlink:href="AlignOf_8h.html" target="_top" xlink:title=" ">
<polygon fill="none" stroke="black" points="4086.5,-280.5 4086.5,-299.5 4201.5,-299.5 4201.5,-280.5 4086.5,-280.5"/>
<text text-anchor="middle" x="4144" y="-287.5" font-family="Helvetica" font-size="10.00">llvm/Support/AlignOf.h</text>
</a>
</g>
</g>
<!-- Node2&#45;&gt;Node51 -->
<g id="edge98" class="edge">
<title>Node2&#45;&gt;Node51</title>
<path fill="none" stroke="midnightblue" d="M1168.17,-344.78C1464.51,-343.54 2836.05,-336 3958,-300 3997.11,-298.74 4040.83,-296.66 4076.04,-294.82"/>
<polygon fill="midnightblue" stroke="midnightblue" points="4076.41,-298.31 4086.21,-294.28 4076.04,-291.32 4076.41,-298.31"/>
</g>
<!-- Node52 -->
<g id="node36" class="node">
<title>Node52</title>
<g id="a_node36"><a xlink:href="ReverseIteration_8h.html" target="_top" xlink:title=" ">
<polygon fill="none" stroke="red" points="1922.5,-224.5 1922.5,-243.5 2077.5,-243.5 2077.5,-224.5 1922.5,-224.5"/>
<text text-anchor="middle" x="2000" y="-231.5" font-family="Helvetica" font-size="10.00">llvm/Support/ReverseIteration.h</text>
</a>
</g>
</g>
<!-- Node2&#45;&gt;Node52 -->
<g id="edge103" class="edge">
<title>Node2&#45;&gt;Node52</title>
<path fill="none" stroke="midnightblue" d="M1168.28,-343.57C1340.41,-339.08 1838.81,-324.14 1908,-300 1937.83,-289.59 1966.65,-266.43 1983.86,-250.76"/>
<polygon fill="midnightblue" stroke="midnightblue" points="1986.42,-253.15 1991.32,-243.76 1981.63,-248.05 1986.42,-253.15"/>
</g>
<!-- Node19 -->
<g id="node4" class="node">
<title>Node19</title>
<g id="a_node4"><a xlink:href="ArrayRef_8h.html" target="_top" xlink:title=" ">
<polygon fill="none" stroke="red" points="1760,-224.5 1760,-243.5 1866,-243.5 1866,-224.5 1760,-224.5"/>
<text text-anchor="middle" x="1813" y="-231.5" font-family="Helvetica" font-size="10.00">llvm/ADT/ArrayRef.h</text>
</a>
</g>
</g>
<!-- Node3&#45;&gt;Node19 -->
<g id="edge3" class="edge">
<title>Node3&#45;&gt;Node19</title>
<path fill="none" stroke="midnightblue" d="M3007.78,-280.74C3004.81,-280.47 3001.88,-280.22 2999,-280 2517.47,-243.2 2395.02,-273.66 1913,-244 1901.11,-243.27 1888.43,-242.29 1876.25,-241.24"/>
<polygon fill="midnightblue" stroke="midnightblue" points="1876.42,-237.74 1866.15,-240.35 1875.81,-244.71 1876.42,-237.74"/>
</g>
<!-- Node3&#45;&gt;Node31 -->
<g id="edge94" class="edge">
<title>Node3&#45;&gt;Node31</title>
<path fill="none" stroke="midnightblue" d="M3007.78,-280.72C3004.81,-280.46 3001.88,-280.21 2999,-280 2592.27,-249.79 1560,-293.38 1166,-188 1065.7,-161.18 1009.48,-167.81 961,-76 956.85,-68.14 954.88,-62.44 961,-56 990.67,-24.76 1653.26,-13.57 1805.16,-11.41"/>
<polygon fill="midnightblue" stroke="midnightblue" points="1805.64,-14.9 1815.59,-11.26 1805.54,-7.9 1805.64,-14.9"/>
</g>
<!-- Node3&#45;&gt;Node10 -->
<g id="edge91" class="edge">
<title>Node3&#45;&gt;Node10</title>
<path fill="none" stroke="midnightblue" d="M3082.75,-280.29C3090.56,-271.84 3101.45,-258.25 3106,-244 3123.84,-188.11 3134.28,-163.4 3106,-112 3098.11,-97.66 3083.51,-87.25 3069.6,-80.08"/>
<polygon fill="midnightblue" stroke="midnightblue" points="3070.7,-76.73 3060.16,-75.62 3067.71,-83.06 3070.7,-76.73"/>
</g>
<!-- Node13 -->
<g id="node14" class="node">
<title>Node13</title>
<g id="a_node14"><a xlink:title=" ">
<polygon fill="none" stroke="#bfbfbf" points="4269,-56.5 4269,-75.5 4315,-75.5 4315,-56.5 4269,-56.5"/>
<text text-anchor="middle" x="4292" y="-63.5" font-family="Helvetica" font-size="10.00">cstdint</text>
</a>
</g>
</g>
<!-- Node3&#45;&gt;Node13 -->
<g id="edge93" class="edge">
<title>Node3&#45;&gt;Node13</title>
<path fill="none" stroke="midnightblue" d="M3140.27,-285.89C3236.35,-280.75 3419.7,-268.49 3574,-244 3723.5,-220.27 3756.58,-192.21 3906,-168 3988.2,-154.68 4217.21,-187.83 4279,-132 4291.66,-120.56 4294.01,-100.58 4293.76,-85.78"/>
<polygon fill="midnightblue" stroke="midnightblue" points="4297.25,-85.49 4293.18,-75.7 4290.26,-85.89 4297.25,-85.49"/>
</g>
<!-- Node3&#45;&gt;Node28 -->
<g id="edge92" class="edge">
<title>Node3&#45;&gt;Node28</title>
<path fill="none" stroke="midnightblue" d="M3140.08,-288.78C3277.04,-285.53 3597.95,-263.29 3824,-132 3845.96,-119.25 3866.33,-98.01 3878.94,-83.29"/>
<polygon fill="midnightblue" stroke="midnightblue" points="3881.72,-85.43 3885.42,-75.5 3876.33,-80.95 3881.72,-85.43"/>
</g>
<!-- Node49 -->
<g id="node33" class="node">
<title>Node49</title>
<g id="a_node33"><a xlink:href="StringRef_8h.html" target="_top" xlink:title=" ">
<polygon fill="none" stroke="red" points="3310,-224.5 3310,-243.5 3418,-243.5 3418,-224.5 3310,-224.5"/>
<text text-anchor="middle" x="3364" y="-231.5" font-family="Helvetica" font-size="10.00">llvm/ADT/StringRef.h</text>
</a>
</g>
</g>
<!-- Node3&#45;&gt;Node49 -->
<g id="edge80" class="edge">
<title>Node3&#45;&gt;Node49</title>
<path fill="none" stroke="midnightblue" d="M3119.95,-280.44C3171.07,-270.92 3253.65,-255.55 3308.38,-245.36"/>
<polygon fill="midnightblue" stroke="midnightblue" points="3309.07,-248.79 3318.26,-243.52 3307.79,-241.91 3309.07,-248.79"/>
</g>
<!-- Node33 -->
<g id="node5" class="node">
<title>Node33</title>
<g id="a_node5"><a xlink:href="None_8h.html" target="_top" xlink:title=" ">
<polygon fill="none" stroke="black" points="1870,-56.5 1870,-75.5 1962,-75.5 1962,-56.5 1870,-56.5"/>
<text text-anchor="middle" x="1916" y="-63.5" font-family="Helvetica" font-size="10.00">llvm/ADT/None.h</text>
</a>
</g>
</g>
<!-- Node19&#45;&gt;Node33 -->
<g id="edge4" class="edge">
<title>Node19&#45;&gt;Node33</title>
<path fill="none" stroke="midnightblue" d="M1822.27,-224.47C1839.46,-208.14 1876.43,-170.66 1897,-132 1904.77,-117.41 1909.73,-99.23 1912.63,-85.81"/>
<polygon fill="midnightblue" stroke="midnightblue" points="1916.1,-86.33 1914.6,-75.85 1909.23,-84.98 1916.1,-86.33"/>
</g>
<!-- Node19&#45;&gt;Node34 -->
<g id="edge5" class="edge">
<title>Node19&#45;&gt;Node34</title>
<path fill="none" stroke="midnightblue" d="M1785.9,-224.44C1757.01,-215.32 1711.08,-200.81 1678.89,-190.65"/>
<polygon fill="midnightblue" stroke="midnightblue" points="1679.56,-187.19 1668.97,-187.52 1677.45,-193.87 1679.56,-187.19"/>
</g>
<!-- Node19&#45;&gt;Node5 -->
<g id="edge71" class="edge">
<title>Node19&#45;&gt;Node5</title>
<path fill="none" stroke="midnightblue" d="M1759.69,-229.93C1648.99,-223.42 1386.13,-207.24 1166,-188 1081.41,-180.61 1060.66,-174.56 976,-168 935.85,-164.89 279.76,-161.18 252,-132 228.72,-107.53 237.96,-86.72 252,-56 257.78,-43.36 269.05,-32.91 279.63,-25.27"/>
<polygon fill="midnightblue" stroke="midnightblue" points="281.85,-28 288.22,-19.53 277.96,-22.18 281.85,-28"/>
</g>
<!-- Node19&#45;&gt;Node9 -->
<g id="edge72" class="edge">
<title>Node19&#45;&gt;Node9</title>
<path fill="none" stroke="midnightblue" d="M1759.93,-231.66C1664.03,-228.55 1455.77,-218.56 1283,-188 1189.57,-171.47 1161.29,-175.56 1077,-132 1052.24,-119.2 1028.15,-97.67 1013.21,-82.92"/>
<polygon fill="midnightblue" stroke="midnightblue" points="1015.42,-80.18 1005.91,-75.52 1010.44,-85.1 1015.42,-80.18"/>
</g>
<!-- Node19&#45;&gt;Node10 -->
<g id="edge73" class="edge">
<title>Node19&#45;&gt;Node10</title>
<path fill="none" stroke="midnightblue" d="M1863.77,-224.49C1989.91,-203.54 2327.83,-148.48 2611,-112 2754.8,-93.48 2926.76,-76.96 2999.61,-70.22"/>
<polygon fill="midnightblue" stroke="midnightblue" points="2999.99,-73.7 3009.62,-69.29 2999.35,-66.73 2999.99,-73.7"/>
</g>
<!-- Node19&#45;&gt;Node16 -->
<g id="edge78" class="edge">
<title>Node19&#45;&gt;Node16</title>
<path fill="none" stroke="midnightblue" d="M1866.16,-227.81C1881.29,-226.44 1897.78,-225.06 1913,-224 2239.72,-201.32 2322.42,-212.55 2649,-188 2736.76,-181.4 2758.28,-175.06 2846,-168 3114.05,-146.41 3185.85,-182.42 3450,-132 3579.85,-107.22 3727.24,-49.16 3788.69,-23.53"/>
<polygon fill="midnightblue" stroke="midnightblue" points="3790.27,-26.67 3798.14,-19.57 3787.56,-20.21 3790.27,-26.67"/>
</g>
<!-- Node19&#45;&gt;Node28 -->
<g id="edge74" class="edge">
<title>Node19&#45;&gt;Node28</title>
<path fill="none" stroke="midnightblue" d="M1866.16,-227.71C1881.28,-226.34 1897.78,-224.98 1913,-224 2120.06,-210.7 2644.31,-236.71 2846,-188 2866.49,-183.05 2868.52,-172.99 2889,-168 3253.78,-79.12 3366.22,-212.23 3733,-132 3758.94,-126.33 3825.73,-97.09 3863.99,-79.82"/>
<polygon fill="midnightblue" stroke="midnightblue" points="3865.85,-82.82 3873.51,-75.5 3862.96,-76.45 3865.85,-82.82"/>
</g>
<!-- Node19&#45;&gt;Node38 -->
<g id="edge75" class="edge">
<title>Node19&#45;&gt;Node38</title>
<path fill="none" stroke="midnightblue" d="M1759.83,-230.54C1675.08,-225.99 1504.39,-214.2 1362,-188 1323.35,-180.89 1218.28,-151.01 1160.82,-134.35"/>
<polygon fill="midnightblue" stroke="midnightblue" points="1161.59,-130.93 1151.01,-131.5 1159.63,-137.65 1161.59,-130.93"/>
</g>
<!-- Node19&#45;&gt;Node39 -->
<g id="edge76" class="edge">
<title>Node19&#45;&gt;Node39</title>
<path fill="none" stroke="midnightblue" d="M1759.77,-225.66C1710.55,-218.27 1635.62,-205.45 1572,-188 1502.17,-168.84 1486.25,-158.85 1419,-132 1376.14,-114.89 1327.2,-93.29 1297.21,-79.81"/>
<polygon fill="midnightblue" stroke="midnightblue" points="1298.35,-76.48 1287.8,-75.56 1295.47,-82.86 1298.35,-76.48"/>
</g>
<!-- Node40 -->
<g id="node24" class="node">
<title>Node40</title>
<g id="a_node24"><a xlink:title=" ">
<polygon fill="none" stroke="#bfbfbf" points="2172.5,-56.5 2172.5,-75.5 2225.5,-75.5 2225.5,-56.5 2172.5,-56.5"/>
<text text-anchor="middle" x="2199" y="-63.5" font-family="Helvetica" font-size="10.00">memory</text>
</a>
</g>
</g>
<!-- Node19&#45;&gt;Node40 -->
<g id="edge77" class="edge">
<title>Node19&#45;&gt;Node40</title>
<path fill="none" stroke="midnightblue" d="M1845.15,-224.44C1929.26,-201.94 2150.2,-142.2 2163,-132 2178.1,-119.97 2187.85,-99.78 2193.34,-85.1"/>
<polygon fill="midnightblue" stroke="midnightblue" points="2196.68,-86.16 2196.61,-75.57 2190.05,-83.89 2196.68,-86.16"/>
</g>
<!-- Node19&#45;&gt;Node42 -->
<g id="edge39" class="edge">
<title>Node19&#45;&gt;Node42</title>
<path fill="none" stroke="midnightblue" d="M1866.18,-227.99C1881.3,-226.63 1897.79,-225.2 1913,-224 2132.61,-206.73 2393.1,-190.41 2514.03,-183.06"/>
<polygon fill="midnightblue" stroke="midnightblue" points="2514.48,-186.54 2524.25,-182.44 2514.06,-179.56 2514.48,-186.54"/>
</g>
<!-- Node48 -->
<g id="node32" class="node">
<title>Node48</title>
<g id="a_node32"><a xlink:title=" ">
<polygon fill="none" stroke="#bfbfbf" points="924.5,-168.5 924.5,-187.5 967.5,-187.5 967.5,-168.5 924.5,-168.5"/>
<text text-anchor="middle" x="946" y="-175.5" font-family="Helvetica" font-size="10.00">vector</text>
</a>
</g>
</g>
<!-- Node19&#45;&gt;Node48 -->
<g id="edge79" class="edge">
<title>Node19&#45;&gt;Node48</title>
<path fill="none" stroke="midnightblue" d="M1759.75,-229.68C1596.7,-219.53 1107.54,-189.06 977.85,-180.98"/>
<polygon fill="midnightblue" stroke="midnightblue" points="977.98,-177.48 967.78,-180.36 977.54,-184.47 977.98,-177.48"/>
</g>
<!-- Node35 -->
<g id="node7" class="node">
<title>Node35</title>
<g id="a_node7"><a xlink:href="iterator__range_8h.html" target="_top" xlink:title="This provides a very simple, boring adaptor for a begin and end iterator into a range type.">
<polygon fill="none" stroke="black" points="3280,-56.5 3280,-75.5 3408,-75.5 3408,-56.5 3280,-56.5"/>
<text text-anchor="middle" x="3344" y="-63.5" font-family="Helvetica" font-size="10.00">llvm/ADT/iterator_range.h</text>
</a>
</g>
</g>
<!-- Node34&#45;&gt;Node35 -->
<g id="edge6" class="edge">
<title>Node34&#45;&gt;Node35</title>
<path fill="none" stroke="midnightblue" d="M1702.7,-177.03C1847.94,-176.45 2226.7,-170.96 2540,-132 2584.98,-126.41 2595.06,-117.9 2640,-112 2759.96,-96.24 3114.12,-78 3269.5,-70.5"/>
<polygon fill="midnightblue" stroke="midnightblue" points="3270.07,-73.98 3279.89,-70 3269.73,-66.98 3270.07,-73.98"/>
</g>
<!-- Node34&#45;&gt;Node31 -->
<g id="edge38" class="edge">
<title>Node34&#45;&gt;Node31</title>
<path fill="none" stroke="midnightblue" d="M1642.58,-168.25C1644.51,-146.13 1652.68,-87.46 1686,-56 1718.91,-24.92 1772.45,-15.24 1805.88,-12.26"/>
<polygon fill="midnightblue" stroke="midnightblue" points="1806.25,-15.74 1815.97,-11.51 1805.74,-8.76 1806.25,-15.74"/>
</g>
<!-- Node34&#45;&gt;Node5 -->
<g id="edge8" class="edge">
<title>Node34&#45;&gt;Node5</title>
<path fill="none" stroke="midnightblue" d="M1581.27,-175.3C1340.36,-168.47 463.74,-142.92 437,-132 383,-109.94 336.96,-55.61 316.04,-27.88"/>
<polygon fill="midnightblue" stroke="midnightblue" points="318.68,-25.56 309.93,-19.58 313.04,-29.71 318.68,-25.56"/>
</g>
<!-- Node26 -->
<g id="node10" class="node">
<title>Node26</title>
<g id="a_node10"><a xlink:href="llvm_2Support_2ErrorHandling_8h.html" target="_top" xlink:title=" ">
<polygon fill="none" stroke="red" points="438.5,-56.5 438.5,-75.5 581.5,-75.5 581.5,-56.5 438.5,-56.5"/>
<text text-anchor="middle" x="510" y="-63.5" font-family="Helvetica" font-size="10.00">llvm/Support/ErrorHandling.h</text>
</a>
</g>
</g>
<!-- Node34&#45;&gt;Node26 -->
<g id="edge9" class="edge">
<title>Node34&#45;&gt;Node26</title>
<path fill="none" stroke="midnightblue" d="M1581.24,-172.5C1503.55,-166.18 1365.06,-153.05 1248,-132 1211.5,-125.44 1203.64,-117.73 1167,-112 961.82,-79.89 717.04,-70.69 592.16,-68.06"/>
<polygon fill="midnightblue" stroke="midnightblue" points="591.98,-64.55 581.91,-67.85 591.84,-71.55 591.98,-64.55"/>
</g>
<!-- Node34&#45;&gt;Node8 -->
<g id="edge11" class="edge">
<title>Node34&#45;&gt;Node8</title>
<path fill="none" stroke="midnightblue" d="M1702.94,-169.6C1782.74,-159.92 1922.68,-142.94 2009.81,-132.37"/>
<polygon fill="midnightblue" stroke="midnightblue" points="2010.39,-135.82 2019.9,-131.14 2009.55,-128.87 2010.39,-135.82"/>
</g>
<!-- Node34&#45;&gt;Node9 -->
<g id="edge27" class="edge">
<title>Node34&#45;&gt;Node9</title>
<path fill="none" stroke="midnightblue" d="M1581.4,-168.51C1521.11,-159.91 1426.02,-145.93 1344,-132 1296.73,-123.97 1285.12,-120.86 1238,-112 1166.73,-98.6 1083.55,-83.01 1036.19,-74.15"/>
<polygon fill="midnightblue" stroke="midnightblue" points="1036.56,-70.65 1026.08,-72.25 1035.27,-77.54 1036.56,-70.65"/>
</g>
<!-- Node34&#45;&gt;Node10 -->
<g id="edge28" class="edge">
<title>Node34&#45;&gt;Node10</title>
<path fill="none" stroke="midnightblue" d="M1702.84,-175.41C1828.44,-171.67 2125.4,-160.35 2373,-132 2426.28,-125.9 2438.79,-118.66 2492,-112 2682.79,-88.1 2912.95,-73.78 2999.66,-68.9"/>
<polygon fill="midnightblue" stroke="midnightblue" points="2999.96,-72.39 3009.75,-68.34 2999.57,-65.4 2999.96,-72.39"/>
</g>
<!-- Node34&#45;&gt;Node14 -->
<g id="edge31" class="edge">
<title>Node34&#45;&gt;Node14</title>
<path fill="none" stroke="midnightblue" d="M1647.96,-168.37C1660.51,-150.22 1689.81,-107.8 1706.26,-83.99"/>
<polygon fill="midnightblue" stroke="midnightblue" points="1709.26,-85.81 1712.06,-75.59 1703.5,-81.83 1709.26,-85.81"/>
</g>
<!-- Node15 -->
<g id="node16" class="node">
<title>Node15</title>
<g id="a_node16"><a xlink:title=" ">
<polygon fill="none" stroke="#bfbfbf" points="3078,-56.5 3078,-75.5 3118,-75.5 3118,-56.5 3078,-56.5"/>
<text text-anchor="middle" x="3098" y="-63.5" font-family="Helvetica" font-size="10.00">limits</text>
</a>
</g>
</g>
<!-- Node34&#45;&gt;Node15 -->
<g id="edge34" class="edge">
<title>Node34&#45;&gt;Node15</title>
<path fill="none" stroke="midnightblue" d="M1702.62,-175.03C1836.79,-170.34 2168.92,-157.04 2446,-132 2517.37,-125.55 2534.7,-119.22 2606,-112 2808.04,-91.53 2864.48,-114.08 3067.76,-75.81"/>
<polygon fill="midnightblue" stroke="midnightblue" points="3068.7,-79.19 3077.86,-73.88 3067.39,-72.32 3068.7,-79.19"/>
</g>
<!-- Node34&#45;&gt;Node16 -->
<g id="edge37" class="edge">
<title>Node34&#45;&gt;Node16</title>
<path fill="none" stroke="midnightblue" d="M1702.95,-176.37C2005.35,-173.14 3333.45,-157.56 3417,-132 3477.01,-113.64 3477.34,-78.3 3536,-56 3617.63,-24.97 3720.44,-15.33 3776.63,-12.35"/>
<polygon fill="midnightblue" stroke="midnightblue" points="3777.08,-15.83 3786.9,-11.85 3776.74,-8.84 3777.08,-15.83"/>
</g>
<!-- Node34&#45;&gt;Node36 -->
<g id="edge19" class="edge">
<title>Node34&#45;&gt;Node36</title>
<path fill="none" stroke="midnightblue" d="M1581.14,-174.1C1388.64,-164.91 793.39,-136.52 583.88,-126.52"/>
<polygon fill="midnightblue" stroke="midnightblue" points="583.75,-123.01 573.6,-126.03 583.42,-130.01 583.75,-123.01"/>
</g>
<!-- Node37 -->
<g id="node19" class="node">
<title>Node37</title>
<g id="a_node19"><a xlink:title=" ">
<polygon fill="none" stroke="#bfbfbf" points="1182.5,-56.5 1182.5,-75.5 1227.5,-75.5 1227.5,-56.5 1182.5,-56.5"/>
<text text-anchor="middle" x="1205" y="-63.5" font-family="Helvetica" font-size="10.00">cstdlib</text>
</a>
</g>
</g>
<!-- Node34&#45;&gt;Node37 -->
<g id="edge30" class="edge">
<title>Node34&#45;&gt;Node37</title>
<path fill="none" stroke="midnightblue" d="M1592.54,-168.42C1547.14,-160.22 1478.17,-146.92 1419,-132 1353.78,-115.56 1278.85,-91.61 1237.2,-77.84"/>
<polygon fill="midnightblue" stroke="midnightblue" points="1238.2,-74.48 1227.6,-74.65 1235.99,-81.12 1238.2,-74.48"/>
</g>
<!-- Node34&#45;&gt;Node30 -->
<g id="edge23" class="edge">
<title>Node34&#45;&gt;Node30</title>
<path fill="none" stroke="midnightblue" d="M1630.72,-168.24C1619.82,-159.55 1603.08,-145.59 1590,-132 1575.35,-116.77 1560.46,-97.73 1550.4,-84.2"/>
<polygon fill="midnightblue" stroke="midnightblue" points="1553,-81.82 1544.26,-75.83 1547.35,-85.96 1553,-81.82"/>
</g>
<!-- Node34&#45;&gt;Node28 -->
<g id="edge29" class="edge">
<title>Node34&#45;&gt;Node28</title>
<path fill="none" stroke="midnightblue" d="M1702.8,-176.48C1976.9,-173.97 3099.42,-162.03 3450,-132 3602.47,-118.94 3782.46,-87.4 3856.99,-73.63"/>
<polygon fill="midnightblue" stroke="midnightblue" points="3858.01,-77 3867.2,-71.73 3856.73,-70.11 3858.01,-77"/>
</g>
<!-- Node34&#45;&gt;Node38 -->
<g id="edge32" class="edge">
<title>Node34&#45;&gt;Node38</title>
<path fill="none" stroke="midnightblue" d="M1581.33,-170.7C1476.23,-159.79 1262.53,-137.59 1168.35,-127.81"/>
<polygon fill="midnightblue" stroke="midnightblue" points="1168.58,-124.32 1158.27,-126.77 1167.86,-131.28 1168.58,-124.32"/>
</g>
<!-- Node34&#45;&gt;Node39 -->
<g id="edge33" class="edge">
<title>Node34&#45;&gt;Node39</title>
<path fill="none" stroke="midnightblue" d="M1613.04,-168.46C1545.01,-148.4 1375.28,-98.34 1302.74,-76.95"/>
<polygon fill="midnightblue" stroke="midnightblue" points="1303.35,-73.48 1292.77,-74.01 1301.37,-80.19 1303.35,-73.48"/>
</g>
<!-- Node34&#45;&gt;Node40 -->
<g id="edge35" class="edge">
<title>Node34&#45;&gt;Node40</title>
<path fill="none" stroke="midnightblue" d="M1693.87,-168.43C1745.47,-159.77 1826.85,-145.73 1897,-132 1993.12,-113.18 2105.8,-88.13 2162.49,-75.32"/>
<polygon fill="midnightblue" stroke="midnightblue" points="2163.43,-78.7 2172.41,-73.07 2161.88,-71.87 2163.43,-78.7"/>
</g>
<!-- Node34&#45;&gt;Node41 -->
<g id="edge36" class="edge">
<title>Node34&#45;&gt;Node41</title>
<path fill="none" stroke="midnightblue" d="M1625.99,-168.37C1590.54,-149.25 1505.19,-103.23 1462.78,-80.36"/>
<polygon fill="midnightblue" stroke="midnightblue" points="1464.4,-77.26 1453.93,-75.59 1461.07,-83.42 1464.4,-77.26"/>
</g>
<!-- Node35&#45;&gt;Node31 -->
<g id="edge7" class="edge">
<title>Node35&#45;&gt;Node31</title>
<path fill="none" stroke="midnightblue" d="M3279.98,-59.74C3261.59,-58.36 3241.51,-56.99 3223,-56 2679.65,-26.99 2015.49,-14.14 1866.58,-11.52"/>
<polygon fill="midnightblue" stroke="midnightblue" points="1866.44,-8.02 1856.38,-11.34 1866.31,-15.01 1866.44,-8.02"/>
</g>
<!-- Node26&#45;&gt;Node5 -->
<g id="edge10" class="edge">
<title>Node26&#45;&gt;Node5</title>
<path fill="none" stroke="midnightblue" d="M477.36,-56.44C441.95,-47.16 385.29,-32.31 346.45,-22.13"/>
<polygon fill="midnightblue" stroke="midnightblue" points="347.05,-18.67 336.49,-19.52 345.27,-25.44 347.05,-18.67"/>
</g>
<!-- Node8&#45;&gt;Node5 -->
<g id="edge12" class="edge">
<title>Node8&#45;&gt;Node5</title>
<path fill="none" stroke="midnightblue" d="M2075.97,-112.36C2056.24,-97.5 2013.06,-67.59 1971,-56 1816.01,-13.29 675.05,-10.82 375.74,-10.91"/>
<polygon fill="midnightblue" stroke="midnightblue" points="375.44,-7.41 365.45,-10.92 375.45,-14.41 375.44,-7.41"/>
</g>
<!-- Node8&#45;&gt;Node9 -->
<g id="edge13" class="edge">
<title>Node8&#45;&gt;Node9</title>
<path fill="none" stroke="midnightblue" d="M2019.92,-117.75C1868.75,-110.41 1489.95,-91.95 1173,-76 1126.05,-73.64 1072.02,-70.85 1036.57,-69.01"/>
<polygon fill="midnightblue" stroke="midnightblue" points="1036.35,-65.49 1026.19,-68.47 1035.99,-72.48 1036.35,-65.49"/>
</g>
<!-- Node8&#45;&gt;Node10 -->
<g id="edge14" class="edge">
<title>Node8&#45;&gt;Node10</title>
<path fill="none" stroke="midnightblue" d="M2154.34,-116.97C2180.74,-115.41 2211.29,-113.6 2239,-112 2533.17,-94.98 2888.54,-75.15 2999.9,-68.95"/>
<polygon fill="midnightblue" stroke="midnightblue" points="3000.11,-72.44 3009.9,-68.39 2999.73,-65.46 3000.11,-72.44"/>
</g>
<!-- Node8&#45;&gt;Node13 -->
<g id="edge15" class="edge">
<title>Node8&#45;&gt;Node13</title>
<path fill="none" stroke="midnightblue" d="M2154.32,-116.47C2180.71,-114.83 2211.27,-113.12 2239,-112 2988.34,-81.83 3176.25,-93.22 3926,-76 4048.54,-73.19 4194.15,-69.5 4258.54,-67.86"/>
<polygon fill="midnightblue" stroke="midnightblue" points="4258.97,-71.35 4268.88,-67.59 4258.79,-64.35 4258.97,-71.35"/>
</g>
<!-- Node8&#45;&gt;Node14 -->
<g id="edge16" class="edge">
<title>Node8&#45;&gt;Node14</title>
<path fill="none" stroke="midnightblue" d="M2028.53,-112.44C1950.34,-101 1814.31,-81.09 1751.52,-71.91"/>
<polygon fill="midnightblue" stroke="midnightblue" points="1751.79,-68.41 1741.39,-70.42 1750.78,-75.33 1751.79,-68.41"/>
</g>
<!-- Node8&#45;&gt;Node15 -->
<g id="edge17" class="edge">
<title>Node8&#45;&gt;Node15</title>
<path fill="none" stroke="midnightblue" d="M2154.33,-116.78C2180.73,-115.19 2211.28,-113.42 2239,-112 2604.42,-93.26 2703.44,-138.42 3067.85,-75.71"/>
<polygon fill="midnightblue" stroke="midnightblue" points="3068.63,-79.13 3077.88,-73.97 3067.43,-72.23 3068.63,-79.13"/>
</g>
<!-- Node8&#45;&gt;Node16 -->
<g id="edge18" class="edge">
<title>Node8&#45;&gt;Node16</title>
<path fill="none" stroke="midnightblue" d="M2093.91,-112.16C2106.15,-97.28 2133.27,-67.71 2164,-56 2241.61,-26.42 3529.23,-13.56 3776.95,-11.35"/>
<polygon fill="midnightblue" stroke="midnightblue" points="3777.01,-14.85 3786.98,-11.26 3776.95,-7.85 3777.01,-14.85"/>
</g>
<!-- Node36&#45;&gt;Node5 -->
<g id="edge20" class="edge">
<title>Node36&#45;&gt;Node5</title>
<path fill="none" stroke="midnightblue" d="M493.84,-112.37C458.03,-93.25 371.85,-47.23 329.02,-24.36"/>
<polygon fill="midnightblue" stroke="midnightblue" points="330.56,-21.21 320.09,-19.59 327.26,-27.39 330.56,-21.21"/>
</g>
<!-- Node36&#45;&gt;Node26 -->
<g id="edge21" class="edge">
<title>Node36&#45;&gt;Node26</title>
<path fill="none" stroke="midnightblue" d="M510,-112.08C510,-105.01 510,-94.86 510,-85.99"/>
<polygon fill="midnightblue" stroke="midnightblue" points="513.5,-85.75 510,-75.75 506.5,-85.75 513.5,-85.75"/>
</g>
<!-- Node36&#45;&gt;Node37 -->
<g id="edge22" class="edge">
<title>Node36&#45;&gt;Node37</title>
<path fill="none" stroke="midnightblue" d="M573.83,-113.41C578.62,-112.91 583.39,-112.43 588,-112 810.94,-91.02 1080,-74.36 1172.18,-68.91"/>
<polygon fill="midnightblue" stroke="midnightblue" points="1172.5,-72.39 1182.28,-68.31 1172.09,-65.41 1172.5,-72.39"/>
</g>
<!-- Node30&#45;&gt;Node31 -->
<g id="edge26" class="edge">
<title>Node30&#45;&gt;Node31</title>
<path fill="none" stroke="midnightblue" d="M1585.22,-56.44C1647.1,-45.23 1753.83,-25.89 1805.8,-16.47"/>
<polygon fill="midnightblue" stroke="midnightblue" points="1806.52,-19.9 1815.73,-14.67 1805.27,-13.01 1806.52,-19.9"/>
</g>
<!-- Node30&#45;&gt;Node5 -->
<g id="edge24" class="edge">
<title>Node30&#45;&gt;Node5</title>
<path fill="none" stroke="midnightblue" d="M1473.46,-56.83C1470.26,-56.53 1467.1,-56.25 1464,-56 1052.61,-23.06 557.15,-14.02 375.33,-11.73"/>
<polygon fill="midnightblue" stroke="midnightblue" points="375.15,-8.23 365.1,-11.6 375.06,-15.22 375.15,-8.23"/>
</g>
<!-- Node30&#45;&gt;Node16 -->
<g id="edge25" class="edge">
<title>Node30&#45;&gt;Node16</title>
<path fill="none" stroke="midnightblue" d="M1602.81,-60.5C1628.68,-58.85 1658.74,-57.12 1686,-56 2528.58,-21.5 3559.63,-12.77 3776.71,-11.26"/>
<polygon fill="midnightblue" stroke="midnightblue" points="3777.02,-14.76 3787,-11.19 3776.97,-7.76 3777.02,-14.76"/>
</g>
<!-- Node42&#45;&gt;Node35 -->
<g id="edge55" class="edge">
<title>Node42&#45;&gt;Node35</title>
<path fill="none" stroke="midnightblue" d="M2639.72,-169.69C2686.03,-162.84 2752.27,-150.79 2808,-132 2827.21,-125.52 2829.47,-117.45 2849,-112 2926.13,-90.47 3151.58,-76.5 3269.77,-70.45"/>
<polygon fill="midnightblue" stroke="midnightblue" points="3270.01,-73.95 3279.82,-69.94 3269.66,-66.95 3270.01,-73.95"/>
</g>
<!-- Node42&#45;&gt;Node31 -->
<g id="edge70" class="edge">
<title>Node42&#45;&gt;Node31</title>
<path fill="none" stroke="midnightblue" d="M2561.1,-168.5C2530.01,-155.89 2469.68,-131.63 2418,-112 2349.92,-86.14 2334.96,-72.37 2264,-56 2117.84,-22.28 1937.7,-13.77 1866.77,-11.67"/>
<polygon fill="midnightblue" stroke="midnightblue" points="1866.44,-8.16 1856.34,-11.39 1866.24,-15.16 1866.44,-8.16"/>
</g>
<!-- Node42&#45;&gt;Node26 -->
<g id="edge57" class="edge">
<title>Node42&#45;&gt;Node26</title>
<path fill="none" stroke="midnightblue" d="M2524.3,-176.56C2307.79,-174.64 1543.82,-165.6 1303,-132 1266.27,-126.88 1258.65,-117.64 1222,-112 995.61,-77.18 724.75,-69.19 591.81,-67.43"/>
<polygon fill="midnightblue" stroke="midnightblue" points="591.74,-63.93 581.7,-67.3 591.66,-70.93 591.74,-63.93"/>
</g>
<!-- Node42&#45;&gt;Node9 -->
<g id="edge58" class="edge">
<title>Node42&#45;&gt;Node9</title>
<path fill="none" stroke="midnightblue" d="M2524.37,-176.66C2359.22,-175.26 1870.14,-168.13 1466,-132 1382.23,-124.51 1132.37,-87.31 1036.26,-72.81"/>
<polygon fill="midnightblue" stroke="midnightblue" points="1036.53,-69.31 1026.12,-71.27 1035.48,-76.23 1036.53,-69.31"/>
</g>
<!-- Node42&#45;&gt;Node10 -->
<g id="edge59" class="edge">
<title>Node42&#45;&gt;Node10</title>
<path fill="none" stroke="midnightblue" d="M2586.76,-168.45C2595.31,-154 2614.75,-125.08 2640,-112 2702.3,-79.74 2914.77,-70.34 2999.6,-67.83"/>
<polygon fill="midnightblue" stroke="midnightblue" points="2999.86,-71.33 3009.76,-67.55 2999.67,-64.33 2999.86,-71.33"/>
</g>
<!-- Node42&#45;&gt;Node13 -->
<g id="edge61" class="edge">
<title>Node42&#45;&gt;Node13</title>
<path fill="none" stroke="midnightblue" d="M2639.71,-175.27C2701.42,-173.43 2802.12,-170.45 2889,-168 2962.83,-165.92 4149.24,-158.98 4218,-132 4243.25,-122.09 4265.62,-99.51 4278.99,-83.76"/>
<polygon fill="midnightblue" stroke="midnightblue" points="4281.84,-85.8 4285.44,-75.84 4276.41,-81.37 4281.84,-85.8"/>
</g>
<!-- Node42&#45;&gt;Node15 -->
<g id="edge66" class="edge">
<title>Node42&#45;&gt;Node15</title>
<path fill="none" stroke="midnightblue" d="M2630.26,-168.46C2669.34,-160.88 2725.52,-148.44 2773,-132 2792.92,-125.1 2795.79,-117.99 2816,-112 2921.8,-80.62 2956.24,-99.75 3067.87,-75.91"/>
<polygon fill="midnightblue" stroke="midnightblue" points="3068.82,-79.28 3077.83,-73.71 3067.31,-72.45 3068.82,-79.28"/>
</g>
<!-- Node42&#45;&gt;Node16 -->
<g id="edge69" class="edge">
<title>Node42&#45;&gt;Node16</title>
<path fill="none" stroke="midnightblue" d="M2639.71,-175.3C2701.42,-173.48 2802.12,-170.52 2889,-168 2923.94,-166.99 4122.64,-157.07 4147,-132 4234.74,-41.72 3965.86,-18.33 3859.41,-12.68"/>
<polygon fill="midnightblue" stroke="midnightblue" points="3859.5,-9.18 3849.33,-12.18 3859.15,-16.17 3859.5,-9.18"/>
</g>
<!-- Node42&#45;&gt;Node37 -->
<g id="edge62" class="edge">
<title>Node42&#45;&gt;Node37</title>
<path fill="none" stroke="midnightblue" d="M2524.24,-176.69C2371.38,-175.37 1943.7,-168.43 1590,-132 1534.47,-126.28 1521.13,-120.76 1466,-112 1367.01,-96.27 1338.75,-98.32 1237.62,-76.14"/>
<polygon fill="midnightblue" stroke="midnightblue" points="1238.12,-72.67 1227.6,-73.92 1236.61,-79.51 1238.12,-72.67"/>
</g>
<!-- Node42&#45;&gt;Node28 -->
<g id="edge60" class="edge">
<title>Node42&#45;&gt;Node28</title>
<path fill="none" stroke="midnightblue" d="M2639.72,-175.04C2858.44,-167.54 3626.51,-140.73 3678,-132 3744.84,-120.67 3820.06,-94.56 3861.13,-79.1"/>
<polygon fill="midnightblue" stroke="midnightblue" points="3862.46,-82.33 3870.57,-75.51 3859.97,-75.79 3862.46,-82.33"/>
</g>
<!-- Node42&#45;&gt;Node38 -->
<g id="edge64" class="edge">
<title>Node42&#45;&gt;Node38</title>
<path fill="none" stroke="midnightblue" d="M2524.43,-175.83C2339.18,-171.9 1741.77,-157.95 1248,-132 1221.58,-130.61 1192.08,-128.53 1168.26,-126.72"/>
<polygon fill="midnightblue" stroke="midnightblue" points="1168.33,-123.22 1158.1,-125.94 1167.8,-130.2 1168.33,-123.22"/>
</g>
<!-- Node42&#45;&gt;Node39 -->
<g id="edge65" class="edge">
<title>Node42&#45;&gt;Node39</title>
<path fill="none" stroke="midnightblue" d="M2524.16,-175.21C2391.5,-170.78 2055.16,-157.77 1775,-132 1596.48,-115.58 1383.93,-84.49 1302.77,-72.19"/>
<polygon fill="midnightblue" stroke="midnightblue" points="1303.06,-68.7 1292.64,-70.65 1302,-75.62 1303.06,-68.7"/>
</g>
<!-- Node42&#45;&gt;Node40 -->
<g id="edge67" class="edge">
<title>Node42&#45;&gt;Node40</title>
<path fill="none" stroke="midnightblue" d="M2556.05,-168.49C2516.66,-155.66 2439.33,-130.88 2373,-112 2325.75,-98.55 2270.8,-84.62 2235.49,-75.89"/>
<polygon fill="midnightblue" stroke="midnightblue" points="2236.19,-72.46 2225.64,-73.46 2234.51,-79.25 2236.19,-72.46"/>
</g>
<!-- Node43 -->
<g id="node27" class="node">
<title>Node43</title>
<g id="a_node27"><a xlink:href="Optional_8h.html" target="_top" xlink:title=" ">
<polygon fill="none" stroke="red" points="1784,-112.5 1784,-131.5 1888,-131.5 1888,-112.5 1784,-112.5"/>
<text text-anchor="middle" x="1836" y="-119.5" font-family="Helvetica" font-size="10.00">llvm/ADT/Optional.h</text>
</a>
</g>
</g>
<!-- Node42&#45;&gt;Node43 -->
<g id="edge40" class="edge">
<title>Node42&#45;&gt;Node43</title>
<path fill="none" stroke="midnightblue" d="M2524.39,-172.83C2387.03,-162.89 2041.09,-137.85 1898.71,-127.54"/>
<polygon fill="midnightblue" stroke="midnightblue" points="1898.64,-124.02 1888.41,-126.79 1898.13,-131.01 1898.64,-124.02"/>
</g>
<!-- Node44 -->
<g id="node28" class="node">
<title>Node44</title>
<g id="a_node28"><a xlink:href="iterator_8h.html" target="_top" xlink:title=" ">
<polygon fill="none" stroke="black" points="3310,-112.5 3310,-131.5 3408,-131.5 3408,-112.5 3310,-112.5"/>
<text text-anchor="middle" x="3359" y="-119.5" font-family="Helvetica" font-size="10.00">llvm/ADT/iterator.h</text>
</a>
</g>
</g>
<!-- Node42&#45;&gt;Node44 -->
<g id="edge48" class="edge">
<title>Node42&#45;&gt;Node44</title>
<path fill="none" stroke="midnightblue" d="M2639.77,-172.99C2783.16,-163.02 3154.26,-137.23 3299.49,-127.14"/>
<polygon fill="midnightblue" stroke="midnightblue" points="3299.81,-130.62 3309.55,-126.44 3299.33,-123.64 3299.81,-130.62"/>
</g>
<!-- Node45 -->
<g id="node29" class="node">
<title>Node45</title>
<g id="a_node29"><a xlink:title=" ">
<polygon fill="none" stroke="#bfbfbf" points="2858,-112.5 2858,-131.5 2988,-131.5 2988,-112.5 2858,-112.5"/>
<text text-anchor="middle" x="2923" y="-119.5" font-family="Helvetica" font-size="10.00">llvm/Config/abi&#45;breaking.h</text>
</a>
</g>
</g>
<!-- Node42&#45;&gt;Node45 -->
<g id="edge56" class="edge">
<title>Node42&#45;&gt;Node45</title>
<path fill="none" stroke="midnightblue" d="M2636.03,-168.44C2696.64,-158.85 2794.86,-143.29 2859.2,-133.1"/>
<polygon fill="midnightblue" stroke="midnightblue" points="2859.89,-136.54 2869.22,-131.52 2858.8,-129.62 2859.89,-136.54"/>
</g>
<!-- Node46 -->
<g id="node30" class="node">
<title>Node46</title>
<g id="a_node30"><a xlink:title=" ">
<polygon fill="none" stroke="#bfbfbf" points="2648.5,-112.5 2648.5,-131.5 2707.5,-131.5 2707.5,-112.5 2648.5,-112.5"/>
<text text-anchor="middle" x="2678" y="-119.5" font-family="Helvetica" font-size="10.00">functional</text>
</a>
</g>
</g>
<!-- Node42&#45;&gt;Node46 -->
<g id="edge63" class="edge">
<title>Node42&#45;&gt;Node46</title>
<path fill="none" stroke="midnightblue" d="M2597.42,-168.32C2612.54,-159.82 2635.82,-146.73 2653.47,-136.8"/>
<polygon fill="midnightblue" stroke="midnightblue" points="2655.61,-139.61 2662.61,-131.65 2652.18,-133.51 2655.61,-139.61"/>
</g>
<!-- Node32 -->
<g id="node31" class="node">
<title>Node32</title>
<g id="a_node31"><a xlink:title=" ">
<polygon fill="none" stroke="#bfbfbf" points="2726,-112.5 2726,-131.5 2764,-131.5 2764,-112.5 2726,-112.5"/>
<text text-anchor="middle" x="2745" y="-119.5" font-family="Helvetica" font-size="10.00">tuple</text>
</a>
</g>
</g>
<!-- Node42&#45;&gt;Node32 -->
<g id="edge68" class="edge">
<title>Node42&#45;&gt;Node32</title>
<path fill="none" stroke="midnightblue" d="M2607.83,-168.44C2637.35,-158.66 2685.53,-142.7 2716.23,-132.53"/>
<polygon fill="midnightblue" stroke="midnightblue" points="2717.52,-135.79 2725.91,-129.32 2715.32,-129.15 2717.52,-135.79"/>
</g>
<!-- Node43&#45;&gt;Node33 -->
<g id="edge41" class="edge">
<title>Node43&#45;&gt;Node33</title>
<path fill="none" stroke="midnightblue" d="M1848.85,-112.32C1861.22,-103.98 1880.13,-91.21 1894.74,-81.35"/>
<polygon fill="midnightblue" stroke="midnightblue" points="1896.85,-84.15 1903.18,-75.65 1892.93,-78.35 1896.85,-84.15"/>
</g>
<!-- Node43&#45;&gt;Node31 -->
<g id="edge47" class="edge">
<title>Node43&#45;&gt;Node31</title>
<path fill="none" stroke="midnightblue" d="M1836,-112.37C1836,-94.62 1836,-53.67 1836,-29.6"/>
<polygon fill="midnightblue" stroke="midnightblue" points="1839.5,-29.59 1836,-19.59 1832.5,-29.59 1839.5,-29.59"/>
</g>
<!-- Node43&#45;&gt;Node5 -->
<g id="edge42" class="edge">
<title>Node43&#45;&gt;Node5</title>
<path fill="none" stroke="midnightblue" d="M1828.04,-112.16C1814.01,-97.27 1783.18,-67.71 1750,-56 1619.92,-10.11 648.33,-9.84 375.22,-10.69"/>
<polygon fill="midnightblue" stroke="midnightblue" points="375.02,-7.19 365.04,-10.72 375.05,-14.19 375.02,-7.19"/>
</g>
<!-- Node43&#45;&gt;Node10 -->
<g id="edge44" class="edge">
<title>Node43&#45;&gt;Node10</title>
<path fill="none" stroke="midnightblue" d="M1888.07,-118.22C1922.87,-116.39 1969.67,-113.97 2011,-112 2398.27,-93.53 2868.06,-73.9 2999.4,-68.47"/>
<polygon fill="midnightblue" stroke="midnightblue" points="2999.82,-71.95 3009.66,-68.04 2999.53,-64.96 2999.82,-71.95"/>
</g>
<!-- Node43&#45;&gt;Node30 -->
<g id="edge43" class="edge">
<title>Node43&#45;&gt;Node30</title>
<path fill="none" stroke="midnightblue" d="M1788.78,-112.44C1736.25,-102.92 1651.39,-87.55 1595.15,-77.36"/>
<polygon fill="midnightblue" stroke="midnightblue" points="1595.46,-73.86 1585,-75.52 1594.21,-80.74 1595.46,-73.86"/>
</g>
<!-- Node43&#45;&gt;Node40 -->
<g id="edge45" class="edge">
<title>Node43&#45;&gt;Node40</title>
<path fill="none" stroke="midnightblue" d="M1888.01,-113.26C1962.29,-102.21 2096.95,-82.18 2161.94,-72.51"/>
<polygon fill="midnightblue" stroke="midnightblue" points="2162.75,-75.93 2172.12,-71 2161.72,-69.01 2162.75,-75.93"/>
</g>
<!-- Node43&#45;&gt;Node41 -->
<g id="edge46" class="edge">
<title>Node43&#45;&gt;Node41</title>
<path fill="none" stroke="midnightblue" d="M1783.95,-118.21C1713.44,-113.65 1583.7,-102.56 1465.68,-75.98"/>
<polygon fill="midnightblue" stroke="midnightblue" points="1466.29,-72.53 1455.76,-73.71 1464.72,-79.35 1466.29,-72.53"/>
</g>
<!-- Node44&#45;&gt;Node35 -->
<g id="edge49" class="edge">
<title>Node44&#45;&gt;Node35</title>
<path fill="none" stroke="midnightblue" d="M3356.52,-112.08C3354.51,-104.85 3351.61,-94.41 3349.11,-85.4"/>
<polygon fill="midnightblue" stroke="midnightblue" points="3352.48,-84.45 3346.43,-75.75 3345.74,-86.32 3352.48,-84.45"/>
</g>
<!-- Node44&#45;&gt;Node31 -->
<g id="edge54" class="edge">
<title>Node44&#45;&gt;Node31</title>
<path fill="none" stroke="midnightblue" d="M3335.7,-112.47C3294.35,-97.78 3205.12,-68.13 3127,-56 2872.61,-16.51 2036.24,-11.66 1866.29,-11.08"/>
<polygon fill="midnightblue" stroke="midnightblue" points="1866.3,-7.58 1856.29,-11.05 1866.28,-14.58 1866.3,-7.58"/>
</g>
<!-- Node44&#45;&gt;Node9 -->
<g id="edge50" class="edge">
<title>Node44&#45;&gt;Node9</title>
<path fill="none" stroke="midnightblue" d="M3309.82,-119.7C3240.19,-117.87 3108.87,-114.49 2997,-112 2186.38,-93.92 1983.31,-104.83 1173,-76 1126.02,-74.33 1072,-71.4 1036.55,-69.33"/>
<polygon fill="midnightblue" stroke="midnightblue" points="1036.36,-65.82 1026.18,-68.72 1035.95,-72.8 1036.36,-65.82"/>
</g>
<!-- Node44&#45;&gt;Node16 -->
<g id="edge53" class="edge">
<title>Node44&#45;&gt;Node16</title>
<path fill="none" stroke="midnightblue" d="M3373.44,-112.47C3398.09,-98.33 3450.24,-70.18 3498,-56 3595.36,-27.1 3715.04,-16.57 3776.79,-12.88"/>
<polygon fill="midnightblue" stroke="midnightblue" points="3777.12,-16.37 3786.91,-12.31 3776.73,-9.38 3777.12,-16.37"/>
</g>
<!-- Node44&#45;&gt;Node28 -->
<g id="edge51" class="edge">
<title>Node44&#45;&gt;Node28</title>
<path fill="none" stroke="midnightblue" d="M3408.19,-116.02C3514.78,-105.22 3764.9,-79.88 3857.08,-70.54"/>
<polygon fill="midnightblue" stroke="midnightblue" points="3857.68,-74 3867.27,-69.51 3856.97,-67.03 3857.68,-74"/>
</g>
<!-- Node44&#45;&gt;Node39 -->
<g id="edge52" class="edge">
<title>Node44&#45;&gt;Node39</title>
<path fill="none" stroke="midnightblue" d="M3309.82,-119.74C3240.18,-117.97 3108.87,-114.66 2997,-112 2292.13,-95.24 2115.42,-106.31 1411,-76 1374.02,-74.41 1331.67,-71.6 1302.92,-69.54"/>
<polygon fill="midnightblue" stroke="midnightblue" points="1302.83,-66.02 1292.6,-68.79 1302.32,-73 1302.83,-66.02"/>
</g>
<!-- Node49&#45;&gt;Node35 -->
<g id="edge82" class="edge">
<title>Node49&#45;&gt;Node35</title>
<path fill="none" stroke="midnightblue" d="M3373.4,-224.22C3393.98,-203.89 3439.47,-152.25 3417,-112 3408.84,-97.39 3393.78,-86.94 3379.45,-79.8"/>
<polygon fill="midnightblue" stroke="midnightblue" points="3380.76,-76.56 3370.21,-75.59 3377.85,-82.92 3380.76,-76.56"/>
</g>
<!-- Node49&#45;&gt;Node31 -->
<g id="edge90" class="edge">
<title>Node49&#45;&gt;Node31</title>
<path fill="none" stroke="midnightblue" d="M3381.34,-224.42C3394.9,-216.77 3413.07,-204.27 3423,-188 3453.59,-137.87 3463.38,-92.03 3417,-56 3353.46,-6.64 2080.56,-9.94 1866.44,-10.85"/>
<polygon fill="midnightblue" stroke="midnightblue" points="1866.23,-7.35 1856.25,-10.9 1866.26,-14.35 1866.23,-7.35"/>
</g>
<!-- Node49&#45;&gt;Node5 -->
<g id="edge83" class="edge">
<title>Node49&#45;&gt;Node5</title>
<path fill="none" stroke="midnightblue" d="M3309.75,-232.55C3079.22,-230.48 2158.11,-220.51 1402,-188 1260.96,-181.94 1225.93,-176.15 1085,-168 1008.91,-163.6 470.51,-160.95 400,-132 365.34,-117.77 359.88,-105.66 337,-76 325.79,-61.47 316.69,-42.54 310.91,-28.86"/>
<polygon fill="midnightblue" stroke="midnightblue" points="314.15,-27.54 307.15,-19.58 307.66,-30.16 314.15,-27.54"/>
</g>
<!-- Node49&#45;&gt;Node9 -->
<g id="edge84" class="edge">
<title>Node49&#45;&gt;Node9</title>
<path fill="none" stroke="midnightblue" d="M3309.93,-232.66C3049.41,-230.85 1921.9,-221.22 1572,-188 1420.41,-173.61 1382.36,-166.29 1234,-132 1203.72,-125 1196.91,-120.44 1167,-112 1122.25,-99.37 1070.55,-85.74 1036.24,-76.84"/>
<polygon fill="midnightblue" stroke="midnightblue" points="1036.74,-73.35 1026.18,-74.23 1034.98,-80.12 1036.74,-73.35"/>
</g>
<!-- Node49&#45;&gt;Node10 -->
<g id="edge85" class="edge">
<title>Node49&#45;&gt;Node10</title>
<path fill="none" stroke="midnightblue" d="M3354.07,-224.2C3324.07,-197.66 3235.46,-119.78 3220,-112 3161.15,-82.37 3138.01,-91.85 3070.12,-76.14"/>
<polygon fill="midnightblue" stroke="midnightblue" points="3070.78,-72.7 3060.23,-73.75 3069.13,-79.51 3070.78,-72.7"/>
</g>
<!-- Node49&#45;&gt;Node14 -->
<g id="edge87" class="edge">
<title>Node49&#45;&gt;Node14</title>
<path fill="none" stroke="midnightblue" d="M3309.86,-225.41C3305.17,-224.88 3300.51,-224.4 3296,-224 2950.33,-193.2 2862.39,-209.08 2516,-188 2495.4,-186.75 1793.47,-141.22 1775,-132 1754.09,-121.56 1737.54,-99.78 1727.77,-84.31"/>
<polygon fill="midnightblue" stroke="midnightblue" points="1730.72,-82.44 1722.59,-75.65 1724.72,-86.03 1730.72,-82.44"/>
</g>
<!-- Node49&#45;&gt;Node15 -->
<g id="edge88" class="edge">
<title>Node49&#45;&gt;Node15</title>
<path fill="none" stroke="midnightblue" d="M3359.04,-224.43C3345.73,-202.21 3306.87,-142.36 3258,-112 3208.04,-80.95 3184.77,-93.05 3127.96,-77.32"/>
<polygon fill="midnightblue" stroke="midnightblue" points="3128.73,-73.9 3118.14,-74.42 3126.74,-80.61 3128.73,-73.9"/>
</g>
<!-- Node49&#45;&gt;Node16 -->
<g id="edge89" class="edge">
<title>Node49&#45;&gt;Node16</title>
<path fill="none" stroke="midnightblue" d="M3418.16,-227.02C3614.72,-205.33 4279,-132 4279,-132 4306.99,-116.64 4313.4,-106.12 4324,-76 4326.95,-67.62 4330,-62.56 4324,-56 4292.86,-21.97 3974.65,-13.51 3859.4,-11.55"/>
<polygon fill="midnightblue" stroke="midnightblue" points="3859.27,-8.05 3849.21,-11.38 3859.15,-15.05 3859.27,-8.05"/>
</g>
<!-- Node49&#45;&gt;Node28 -->
<g id="edge86" class="edge">
<title>Node49&#45;&gt;Node28</title>
<path fill="none" stroke="midnightblue" d="M3403.14,-224.43C3443.5,-215.54 3508.22,-201.12 3564,-188 3576.7,-185.01 3780.03,-137.18 3792,-132 3822.48,-118.8 3854.03,-96.62 3873.34,-81.89"/>
<polygon fill="midnightblue" stroke="midnightblue" points="3875.55,-84.61 3881.3,-75.71 3871.26,-79.08 3875.55,-84.61"/>
</g>
<!-- Node49&#45;&gt;Node42 -->
<g id="edge81" class="edge">
<title>Node49&#45;&gt;Node42</title>
<path fill="none" stroke="midnightblue" d="M3309.85,-225.49C3305.17,-224.95 3300.5,-224.44 3296,-224 3059.43,-200.92 2777.56,-187.2 2650.31,-181.74"/>
<polygon fill="midnightblue" stroke="midnightblue" points="2650.09,-178.23 2639.95,-181.3 2649.79,-185.22 2650.09,-178.23"/>
</g>
<!-- Node50&#45;&gt;Node13 -->
<g id="edge97" class="edge">
<title>Node50&#45;&gt;Node13</title>
<path fill="none" stroke="midnightblue" d="M3026.27,-176.52C3280.3,-174.38 4203.15,-164.4 4256,-132 4272.64,-121.8 4282.18,-100.96 4287.21,-85.61"/>
<polygon fill="midnightblue" stroke="midnightblue" points="4290.68,-86.22 4290.11,-75.64 4283.96,-84.27 4290.68,-86.22"/>
</g>
<!-- Node50&#45;&gt;Node45 -->
<g id="edge96" class="edge">
<title>Node50&#45;&gt;Node45</title>
<path fill="none" stroke="midnightblue" d="M2955.56,-168.08C2950.05,-160.46 2941.97,-149.26 2935.24,-139.94"/>
<polygon fill="midnightblue" stroke="midnightblue" points="2938.01,-137.81 2929.32,-131.75 2932.34,-141.91 2938.01,-137.81"/>
</g>
<!-- Node51&#45;&gt;Node16 -->
<g id="edge99" class="edge">
<title>Node51&#45;&gt;Node16</title>
<path fill="none" stroke="midnightblue" d="M4196.47,-280.45C4236.09,-273.13 4291.41,-261.05 4338,-244 4356.29,-237.3 4358.49,-230.08 4377,-224 4424.27,-208.46 4565.77,-225.91 4598,-188 4636,-143.31 4638.27,-98.66 4598,-56 4572.46,-28.94 4017.5,-15.21 3859.58,-11.83"/>
<polygon fill="midnightblue" stroke="midnightblue" points="3859.41,-8.33 3849.34,-11.62 3859.26,-15.33 3859.41,-8.33"/>
</g>
<!-- Node52&#45;&gt;Node45 -->
<g id="edge104" class="edge">
<title>Node52&#45;&gt;Node45</title>
<path fill="none" stroke="midnightblue" d="M2077.56,-229.22C2225.05,-221.76 2540.9,-204.46 2649,-188 2733.96,-175.07 2831.43,-149.25 2884.18,-134.34"/>
<polygon fill="midnightblue" stroke="midnightblue" points="2885.45,-137.61 2894.11,-131.51 2883.53,-130.88 2885.45,-137.61"/>
</g>
<!-- Node54&#45;&gt;Node19 -->
<g id="edge117" class="edge">
<title>Node54&#45;&gt;Node19</title>
<path fill="none" stroke="midnightblue" d="M917.93,-448.43C1062.95,-413.85 1605.17,-284.56 1767.08,-245.95"/>
<polygon fill="midnightblue" stroke="midnightblue" points="1768.27,-249.27 1777.18,-243.54 1766.64,-242.46 1768.27,-249.27"/>
</g>
<!-- Node54&#45;&gt;Node5 -->
<g id="edge129" class="edge">
<title>Node54&#45;&gt;Node5</title>
<path fill="none" stroke="midnightblue" d="M826.3,-455.62C638.16,-450.22 38,-426.75 38,-347 38,-347 38,-347 38,-121 38,-36.59 153.81,-15.68 232.6,-11.22"/>
<polygon fill="midnightblue" stroke="midnightblue" points="233.16,-14.7 242.97,-10.72 232.82,-7.71 233.16,-14.7"/>
</g>
<!-- Node54&#45;&gt;Node9 -->
<g id="edge130" class="edge">
<title>Node54&#45;&gt;Node9</title>
<path fill="none" stroke="midnightblue" d="M826.32,-456.43C680.81,-454.46 297.35,-446.06 252,-412 227.38,-393.51 228,-377.8 228,-347 228,-347 228,-347 228,-177 228,-117.51 287.96,-128.89 345,-112 461.21,-77.58 837.14,-69.28 959.28,-67.47"/>
<polygon fill="midnightblue" stroke="midnightblue" points="959.68,-70.96 969.63,-67.32 959.58,-63.96 959.68,-70.96"/>
</g>
<!-- Node54&#45;&gt;Node10 -->
<g id="edge131" class="edge">
<title>Node54&#45;&gt;Node10</title>
<path fill="none" stroke="midnightblue" d="M937.65,-452.17C1024.21,-444.52 1196.32,-428.76 1342,-412 1530.51,-390.32 2909.93,-330.7 3035,-188 3059.84,-159.66 3049.87,-111.63 3041.68,-85.42"/>
<polygon fill="midnightblue" stroke="midnightblue" points="3044.89,-84 3038.38,-75.64 3038.26,-86.23 3044.89,-84"/>
</g>
<!-- Node54&#45;&gt;Node39 -->
<g id="edge132" class="edge">
<title>Node54&#45;&gt;Node39</title>
<path fill="none" stroke="midnightblue" d="M865.52,-448.47C850.46,-440.25 828.02,-426.89 811,-412 766.64,-373.19 753.39,-357.4 740,-300 720.19,-215.1 719.68,-154.14 796,-112 879.28,-66.02 1123.94,-91.33 1235.3,-75.61"/>
<polygon fill="midnightblue" stroke="midnightblue" points="1236,-79.05 1245.33,-74.02 1234.9,-72.13 1236,-79.05"/>
</g>
<!-- Node54&#45;&gt;Node42 -->
<g id="edge128" class="edge">
<title>Node54&#45;&gt;Node42</title>
<path fill="none" stroke="midnightblue" d="M937.57,-450.63C1101.8,-431.52 1598.98,-371.54 2008,-300 2205.66,-265.43 2439.07,-212.4 2536.12,-189.8"/>
<polygon fill="midnightblue" stroke="midnightblue" points="2536.96,-193.2 2545.9,-187.52 2535.37,-186.38 2536.96,-193.2"/>
</g>
<!-- Node54&#45;&gt;Node48 -->
<g id="edge133" class="edge">
<title>Node54&#45;&gt;Node48</title>
<path fill="none" stroke="midnightblue" d="M860.19,-448.45C845.06,-441.22 826.05,-429.26 817,-412 812.87,-404.13 814.61,-400.56 817,-392 839.73,-310.58 902.99,-229.28 931.61,-195.41"/>
<polygon fill="midnightblue" stroke="midnightblue" points="934.54,-197.37 938.4,-187.5 929.23,-192.81 934.54,-197.37"/>
</g>
<!-- Node55 -->
<g id="node38" class="node">
<title>Node55</title>
<g id="a_node38"><a xlink:href="DenseSet_8h.html" target="_top" xlink:title=" ">
<polygon fill="none" stroke="black" points="826.5,-392.5 826.5,-411.5 937.5,-411.5 937.5,-392.5 826.5,-392.5"/>
<text text-anchor="middle" x="882" y="-399.5" font-family="Helvetica" font-size="10.00">llvm/ADT/DenseSet.h</text>
</a>
</g>
</g>
<!-- Node54&#45;&gt;Node55 -->
<g id="edge118" class="edge">
<title>Node54&#45;&gt;Node55</title>
<path fill="none" stroke="midnightblue" d="M882,-448.08C882,-441.01 882,-430.86 882,-421.99"/>
<polygon fill="midnightblue" stroke="midnightblue" points="885.5,-421.75 882,-411.75 878.5,-421.75 885.5,-421.75"/>
</g>
<!-- Node55&#45;&gt;Node2 -->
<g id="edge119" class="edge">
<title>Node55&#45;&gt;Node2</title>
<path fill="none" stroke="midnightblue" d="M918.13,-392.44C957.65,-383.08 1021.1,-368.06 1064.11,-357.87"/>
<polygon fill="midnightblue" stroke="midnightblue" points="1065.12,-361.23 1074.04,-355.52 1063.5,-354.42 1065.12,-361.23"/>
</g>
<!-- Node55&#45;&gt;Node3 -->
<g id="edge120" class="edge">
<title>Node55&#45;&gt;Node3</title>
<path fill="none" stroke="midnightblue" d="M937.68,-398.37C1084.14,-391.47 1492.25,-372.2 1832,-356 2347.38,-331.43 2479.88,-343.25 2997.8,-300.04"/>
<polygon fill="midnightblue" stroke="midnightblue" points="2998.1,-303.53 3007.77,-299.21 2997.52,-296.55 2998.1,-303.53"/>
</g>
<!-- Node55&#45;&gt;Node31 -->
<g id="edge127" class="edge">
<title>Node55&#45;&gt;Node31</title>
<path fill="none" stroke="midnightblue" d="M826.35,-401.34C709.36,-401.24 442.08,-396.43 362,-356 273.17,-311.16 249.16,-281.09 214,-188 200.51,-152.29 223.16,-134.49 254,-112 319.98,-63.88 348.53,-69.88 429,-56 706.91,-8.06 1627.23,-9.98 1805.83,-10.83"/>
<polygon fill="midnightblue" stroke="midnightblue" points="1805.82,-14.33 1815.83,-10.88 1805.85,-7.33 1805.82,-14.33"/>
</g>
<!-- Node55&#45;&gt;Node8 -->
<g id="edge121" class="edge">
<title>Node55&#45;&gt;Node8</title>
<path fill="none" stroke="midnightblue" d="M937.77,-401.06C1096.89,-400.08 1565.85,-389.24 1942,-300 2008.81,-284.15 2047,-300.52 2086,-244 2107.2,-213.28 2099.45,-166.9 2092.73,-141.41"/>
<polygon fill="midnightblue" stroke="midnightblue" points="2096.03,-140.23 2089.91,-131.58 2089.3,-142.16 2096.03,-140.23"/>
</g>
<!-- Node55&#45;&gt;Node9 -->
<g id="edge123" class="edge">
<title>Node55&#45;&gt;Node9</title>
<path fill="none" stroke="midnightblue" d="M826.39,-400.6C716.81,-399.03 477.22,-391.5 404,-356 368.08,-338.58 342,-330.92 342,-291 342,-291 342,-291 342,-177 342,-146.2 341.37,-130.49 366,-112 413.43,-76.38 829.56,-68.84 959.45,-67.35"/>
<polygon fill="midnightblue" stroke="midnightblue" points="959.75,-70.84 969.71,-67.23 959.67,-63.84 959.75,-70.84"/>
</g>
<!-- Node55&#45;&gt;Node30 -->
<g id="edge122" class="edge">
<title>Node55&#45;&gt;Node30</title>
<path fill="none" stroke="midnightblue" d="M880.67,-392.41C876.1,-359.76 863.98,-241.5 915,-168 944.71,-125.19 968.06,-126.86 1018,-112 1205.44,-56.22 1264.2,-94.68 1463.24,-76"/>
<polygon fill="midnightblue" stroke="midnightblue" points="1463.83,-79.46 1473.44,-75.01 1463.15,-72.5 1463.83,-79.46"/>
</g>
<!-- Node55&#45;&gt;Node28 -->
<g id="edge124" class="edge">
<title>Node55&#45;&gt;Node28</title>
<path fill="none" stroke="midnightblue" d="M937.72,-400.69C1246.77,-398.85 2753.24,-388.32 3217,-356 3291.13,-350.83 3309.03,-343.14 3383,-336 3492.78,-325.4 3774.42,-337.89 3878,-300 3946.37,-274.99 3983.29,-240.33 3975,-168 3972.09,-142.62 3976.72,-132.89 3962,-112 3952.26,-98.18 3936.81,-87.59 3922.89,-80.17"/>
<polygon fill="midnightblue" stroke="midnightblue" points="3924.1,-76.87 3913.59,-75.54 3920.98,-83.13 3924.1,-76.87"/>
</g>
<!-- Node55&#45;&gt;Node38 -->
<g id="edge125" class="edge">
<title>Node55&#45;&gt;Node38</title>
<path fill="none" stroke="midnightblue" d="M863.48,-392.48C826.95,-374.38 751.13,-329.66 775,-280 829.41,-166.78 994.15,-135.14 1075.51,-126.35"/>
<polygon fill="midnightblue" stroke="midnightblue" points="1076.35,-129.78 1085.95,-125.3 1075.65,-122.82 1076.35,-129.78"/>
</g>
<!-- Node55&#45;&gt;Node39 -->
<g id="edge126" class="edge">
<title>Node55&#45;&gt;Node39</title>
<path fill="none" stroke="midnightblue" d="M843.84,-392.42C822.79,-385.81 797.79,-374.56 782,-356 710.8,-272.29 735.9,-180.29 822,-112 892.02,-56.46 1129.11,-89.89 1235.17,-75.6"/>
<polygon fill="midnightblue" stroke="midnightblue" points="1235.99,-79.01 1245.32,-74 1234.9,-72.1 1235.99,-79.01"/>
</g>
<!-- Node56&#45;&gt;Node19 -->
<g id="edge136" class="edge">
<title>Node56&#45;&gt;Node19</title>
<path fill="none" stroke="midnightblue" d="M3311.47,-400.51C3119.14,-398.48 2453.63,-389.17 2244,-356 2165.83,-343.63 1939.28,-274.37 1849.89,-246.56"/>
<polygon fill="midnightblue" stroke="midnightblue" points="1850.77,-243.17 1840.18,-243.53 1848.69,-249.85 1850.77,-243.17"/>
</g>
<!-- Node56&#45;&gt;Node33 -->
<g id="edge143" class="edge">
<title>Node56&#45;&gt;Node33</title>
<path fill="none" stroke="midnightblue" d="M3311.21,-397.21C3230.77,-391.03 3072.84,-377.29 2940,-356 2683.01,-314.81 2014.18,-133.43 2011,-132 1982.03,-118.96 1952.4,-97.04 1934.11,-82.31"/>
<polygon fill="midnightblue" stroke="midnightblue" points="1936.04,-79.37 1926.09,-75.72 1931.6,-84.78 1936.04,-79.37"/>
</g>
<!-- Node56&#45;&gt;Node31 -->
<g id="edge179" class="edge">
<title>Node56&#45;&gt;Node31</title>
<path fill="none" stroke="midnightblue" d="M3416.5,-399.86C3595.54,-395.76 4181.31,-380.77 4368,-356 4499.8,-338.51 4660,-423.95 4660,-291 4660,-291 4660,-291 4660,-177 4660,-18.28 4480.28,-83.71 4324,-56 4070.56,-11.07 2132.76,-10.8 1866.33,-10.97"/>
<polygon fill="midnightblue" stroke="midnightblue" points="1866.22,-7.47 1856.22,-10.98 1866.23,-14.47 1866.22,-7.47"/>
</g>
<!-- Node56&#45;&gt;Node9 -->
<g id="edge176" class="edge">
<title>Node56&#45;&gt;Node9</title>
<path fill="none" stroke="midnightblue" d="M3311.33,-400.93C3010.29,-400.35 1504.79,-395.53 1043,-356 756.9,-331.51 569.36,-386.82 437,-132 432.9,-124.11 430.97,-118.53 437,-112 472.34,-73.71 838.29,-67.99 959.35,-67.14"/>
<polygon fill="midnightblue" stroke="midnightblue" points="959.65,-70.64 969.63,-67.08 959.61,-63.64 959.65,-70.64"/>
</g>
<!-- Node56&#45;&gt;Node10 -->
<g id="edge177" class="edge">
<title>Node56&#45;&gt;Node10</title>
<path fill="none" stroke="midnightblue" d="M3360.03,-392.28C3342.04,-353.63 3264.19,-196.11 3154,-112 3140.43,-101.65 3099.89,-87.39 3069.87,-77.72"/>
<polygon fill="midnightblue" stroke="midnightblue" points="3070.74,-74.33 3060.15,-74.63 3068.62,-81 3070.74,-74.33"/>
</g>
<!-- Node56&#45;&gt;Node13 -->
<g id="edge178" class="edge">
<title>Node56&#45;&gt;Node13</title>
<path fill="none" stroke="midnightblue" d="M3416.8,-401.05C3588.73,-400.79 4131.25,-396.7 4301,-356 4419,-327.71 4484.1,-345.9 4550,-244 4610.68,-150.17 4407.27,-92.85 4324.99,-73.95"/>
<polygon fill="midnightblue" stroke="midnightblue" points="4325.65,-70.51 4315.13,-71.73 4324.12,-77.34 4325.65,-70.51"/>
</g>
<!-- Node56&#45;&gt;Node49 -->
<g id="edge144" class="edge">
<title>Node56&#45;&gt;Node49</title>
<path fill="none" stroke="midnightblue" d="M3364,-392.08C3364,-365.95 3364,-289.21 3364,-253.58"/>
<polygon fill="midnightblue" stroke="midnightblue" points="3367.5,-253.57 3364,-243.57 3360.5,-253.57 3367.5,-253.57"/>
</g>
<!-- Node57 -->
<g id="node40" class="node">
<title>Node57</title>
<g id="a_node40"><a xlink:href="Bitfields_8h.html" target="_top" xlink:title="This file implements methods to test, set and extract typed bits from packed unsigned integers.">
<polygon fill="none" stroke="red" points="4034,-112.5 4034,-131.5 4138,-131.5 4138,-112.5 4034,-112.5"/>
<text text-anchor="middle" x="4086" y="-119.5" font-family="Helvetica" font-size="10.00">llvm/ADT/Bitfields.h</text>
</a>
</g>
</g>
<!-- Node56&#45;&gt;Node57 -->
<g id="edge137" class="edge">
<title>Node56&#45;&gt;Node57</title>
<path fill="none" stroke="midnightblue" d="M3416.62,-398.72C3593.44,-390.54 4158.18,-359.86 4211,-300 4236.4,-271.21 4176.5,-252.35 4169,-244 4138.78,-210.35 4110.56,-165.18 4096.1,-140.65"/>
<polygon fill="midnightblue" stroke="midnightblue" points="4098.98,-138.65 4090.93,-131.77 4092.93,-142.17 4098.98,-138.65"/>
</g>
<!-- Node58 -->
<g id="node41" class="node">
<title>Node58</title>
<g id="a_node41"><a xlink:href="ilist__node_8h.html" target="_top" xlink:title=" ">
<polygon fill="none" stroke="red" points="3392,-336.5 3392,-355.5 3502,-355.5 3502,-336.5 3392,-336.5"/>
<text text-anchor="middle" x="3447" y="-343.5" font-family="Helvetica" font-size="10.00">llvm/ADT/ilist_node.h</text>
</a>
</g>
</g>
<!-- Node56&#45;&gt;Node58 -->
<g id="edge145" class="edge">
<title>Node56&#45;&gt;Node58</title>
<path fill="none" stroke="midnightblue" d="M3377.34,-392.32C3390.16,-383.98 3409.78,-371.21 3424.94,-361.35"/>
<polygon fill="midnightblue" stroke="midnightblue" points="3427.22,-364.04 3433.7,-355.65 3423.41,-358.17 3427.22,-364.04"/>
</g>
<!-- Node62 -->
<g id="node42" class="node">
<title>Node62</title>
<g id="a_node42"><a xlink:href="DebugLoc_8h.html" target="_top" xlink:title=" ">
<polygon fill="none" stroke="red" points="3520,-336.5 3520,-355.5 3624,-355.5 3624,-336.5 3520,-336.5"/>
<text text-anchor="middle" x="3572" y="-343.5" font-family="Helvetica" font-size="10.00">llvm/IR/DebugLoc.h</text>
</a>
</g>
</g>
<!-- Node56&#45;&gt;Node62 -->
<g id="edge146" class="edge">
<title>Node56&#45;&gt;Node62</title>
<path fill="none" stroke="midnightblue" d="M3396.96,-392.44C3432.79,-383.14 3490.16,-368.25 3529.39,-358.06"/>
<polygon fill="midnightblue" stroke="midnightblue" points="3530.4,-361.42 3539.2,-355.52 3528.64,-354.64 3530.4,-361.42"/>
</g>
<!-- Node83 -->
<g id="node43" class="node">
<title>Node83</title>
<g id="a_node43"><a xlink:href="SymbolTableListTraits_8h.html" target="_top" xlink:title=" ">
<polygon fill="none" stroke="red" points="4385.5,-224.5 4385.5,-243.5 4540.5,-243.5 4540.5,-224.5 4385.5,-224.5"/>
<text text-anchor="middle" x="4463" y="-231.5" font-family="Helvetica" font-size="10.00">llvm/IR/SymbolTableListTraits.h</text>
</a>
</g>
</g>
<!-- Node56&#45;&gt;Node83 -->
<g id="edge147" class="edge">
<title>Node56&#45;&gt;Node83</title>
<path fill="none" stroke="midnightblue" d="M3416.51,-399.88C3596.69,-395.83 4183.15,-380.84 4264,-356 4337.8,-333.32 4412.21,-277.16 4445.27,-250.08"/>
<polygon fill="midnightblue" stroke="midnightblue" points="4447.66,-252.65 4453.11,-243.56 4443.19,-247.26 4447.66,-252.65"/>
</g>
<!-- Node70 -->
<g id="node44" class="node">
<title>Node70</title>
<g id="a_node44"><a xlink:href="User_8h.html" target="_top" xlink:title=" ">
<polygon fill="none" stroke="red" points="3128,-336.5 3128,-355.5 3208,-355.5 3208,-336.5 3128,-336.5"/>
<text text-anchor="middle" x="3168" y="-343.5" font-family="Helvetica" font-size="10.00">llvm/IR/User.h</text>
</a>
</g>
</g>
<!-- Node56&#45;&gt;Node70 -->
<g id="edge149" class="edge">
<title>Node56&#45;&gt;Node70</title>
<path fill="none" stroke="midnightblue" d="M3332.94,-392.44C3299.4,-383.2 3245.8,-368.44 3208.86,-358.26"/>
<polygon fill="midnightblue" stroke="midnightblue" points="3209.48,-354.8 3198.91,-355.52 3207.62,-361.55 3209.48,-354.8"/>
</g>
<!-- Node76 -->
<g id="node45" class="node">
<title>Node76</title>
<g id="a_node45"><a xlink:href="Value_8h.html" target="_top" xlink:title=" ">
<polygon fill="none" stroke="red" points="2906.5,-280.5 2906.5,-299.5 2989.5,-299.5 2989.5,-280.5 2906.5,-280.5"/>
<text text-anchor="middle" x="2948" y="-287.5" font-family="Helvetica" font-size="10.00">llvm/IR/Value.h</text>
</a>
</g>
</g>
<!-- Node56&#45;&gt;Node76 -->
<g id="edge172" class="edge">
<title>Node56&#45;&gt;Node76</title>
<path fill="none" stroke="midnightblue" d="M3311.28,-394.14C3261.23,-386.97 3184.18,-374.21 3119,-356 3067.5,-341.61 3009.77,-318.03 2976.28,-303.57"/>
<polygon fill="midnightblue" stroke="midnightblue" points="2977.67,-300.36 2967.11,-299.58 2974.88,-306.78 2977.67,-300.36"/>
</g>
<!-- Node75 -->
<g id="node46" class="node">
<title>Node75</title>
<g id="a_node46"><a xlink:href="Casting_8h.html" target="_top" xlink:title=" ">
<polygon fill="none" stroke="black" points="2248,-112.5 2248,-131.5 2364,-131.5 2364,-112.5 2248,-112.5"/>
<text text-anchor="middle" x="2306" y="-119.5" font-family="Helvetica" font-size="10.00">llvm/Support/Casting.h</text>
</a>
</g>
</g>
<!-- Node56&#45;&gt;Node75 -->
<g id="edge175" class="edge">
<title>Node56&#45;&gt;Node75</title>
<path fill="none" stroke="midnightblue" d="M3311.45,-394.13C3250.21,-385.93 3146.04,-371.39 3057,-356 2832.6,-317.22 2775.24,-309.05 2557,-244 2483.19,-222 2461.13,-223.93 2393,-188 2366.87,-174.22 2340.13,-152.96 2323.32,-138.53"/>
<polygon fill="midnightblue" stroke="midnightblue" points="2325.33,-135.64 2315.49,-131.69 2320.72,-140.91 2325.33,-135.64"/>
</g>
<!-- Node88 -->
<g id="node47" class="node">
<title>Node88</title>
<g id="a_node47"><a xlink:href="AtomicOrdering_8h.html" target="_top" xlink:title="Atomic ordering constants.">
<polygon fill="none" stroke="black" points="4177.5,-224.5 4177.5,-243.5 4328.5,-243.5 4328.5,-224.5 4177.5,-224.5"/>
<text text-anchor="middle" x="4253" y="-231.5" font-family="Helvetica" font-size="10.00">llvm/Support/AtomicOrdering.h</text>
</a>
</g>
</g>
<!-- Node56&#45;&gt;Node88 -->
<g id="edge173" class="edge">
<title>Node56&#45;&gt;Node88</title>
<path fill="none" stroke="midnightblue" d="M3416.66,-400.21C3601.95,-397.18 4214.3,-385.02 4244,-356 4271.16,-329.46 4264.53,-280.31 4258.24,-253.54"/>
<polygon fill="midnightblue" stroke="midnightblue" points="4261.55,-252.38 4255.66,-243.57 4254.77,-254.13 4261.55,-252.38"/>
</g>
<!-- Node89 -->
<g id="node48" class="node">
<title>Node89</title>
<g id="a_node48"><a xlink:title=" ">
<polygon fill="none" stroke="#bfbfbf" points="3642.5,-336.5 3642.5,-355.5 3755.5,-355.5 3755.5,-336.5 3642.5,-336.5"/>
<text text-anchor="middle" x="3699" y="-343.5" font-family="Helvetica" font-size="10.00">llvm/IR/Instruction.def</text>
</a>
</g>
</g>
<!-- Node56&#45;&gt;Node89 -->
<g id="edge180" class="edge">
<title>Node56&#45;&gt;Node89</title>
<path fill="none" stroke="midnightblue" d="M3416.71,-392.5C3476.06,-382.94 3572.44,-367.4 3635.78,-357.19"/>
<polygon fill="midnightblue" stroke="midnightblue" points="3636.73,-360.58 3646.04,-355.54 3635.61,-353.67 3636.73,-360.58"/>
</g>
<!-- Node57&#45;&gt;Node10 -->
<g id="edge138" class="edge">
<title>Node57&#45;&gt;Node10</title>
<path fill="none" stroke="midnightblue" d="M4033.72,-120.17C3856.35,-117.12 3277.56,-105.24 3070.3,-75.8"/>
<polygon fill="midnightblue" stroke="midnightblue" points="3070.53,-72.3 3060.12,-74.29 3069.5,-79.22 3070.53,-72.3"/>
</g>
<!-- Node57&#45;&gt;Node13 -->
<g id="edge140" class="edge">
<title>Node57&#45;&gt;Node13</title>
<path fill="none" stroke="midnightblue" d="M4118.64,-112.44C4157.07,-102.37 4220.53,-85.74 4259.08,-75.63"/>
<polygon fill="midnightblue" stroke="midnightblue" points="4260,-79.01 4268.78,-73.09 4258.22,-72.24 4260,-79.01"/>
</g>
<!-- Node57&#45;&gt;Node15 -->
<g id="edge141" class="edge">
<title>Node57&#45;&gt;Node15</title>
<path fill="none" stroke="midnightblue" d="M4033.93,-118.15C3854.91,-108.37 3268.14,-76.3 3128.17,-68.65"/>
<polygon fill="midnightblue" stroke="midnightblue" points="3128.33,-65.15 3118.16,-68.1 3127.95,-72.14 3128.33,-65.15"/>
</g>
<!-- Node57&#45;&gt;Node16 -->
<g id="edge142" class="edge">
<title>Node57&#45;&gt;Node16</title>
<path fill="none" stroke="midnightblue" d="M4064.97,-112.37C4017.81,-93.01 3903.43,-46.06 3848.47,-23.51"/>
<polygon fill="midnightblue" stroke="midnightblue" points="3849.51,-20.15 3838.93,-19.59 3846.85,-26.63 3849.51,-20.15"/>
</g>
<!-- Node57&#45;&gt;Node28 -->
<g id="edge139" class="edge">
<title>Node57&#45;&gt;Node28</title>
<path fill="none" stroke="midnightblue" d="M4055.26,-112.44C4020.2,-102.68 3963.02,-86.77 3926.47,-76.6"/>
<polygon fill="midnightblue" stroke="midnightblue" points="3927.32,-73.2 3916.75,-73.89 3925.44,-79.94 3927.32,-73.2"/>
</g>
<!-- Node83&#45;&gt;Node28 -->
<g id="edge148" class="edge">
<title>Node83&#45;&gt;Node28</title>
<path fill="none" stroke="midnightblue" d="M4446.57,-224.47C4403.23,-202.34 4281.77,-142.68 4174,-112 4086.83,-87.18 3980.35,-74.86 3926.59,-69.85"/>
<polygon fill="midnightblue" stroke="midnightblue" points="3926.84,-66.35 3916.57,-68.94 3926.21,-73.33 3926.84,-66.35"/>
</g>
<!-- Node70&#45;&gt;Node35 -->
<g id="edge151" class="edge">
<title>Node70&#45;&gt;Node35</title>
<path fill="none" stroke="midnightblue" d="M3208.25,-340.09C3220.95,-338.64 3235.05,-337.14 3248,-336 3310.44,-330.49 3768.11,-345.72 3811,-300 3935.12,-167.69 3579.4,-99.81 3418.51,-76.52"/>
<polygon fill="midnightblue" stroke="midnightblue" points="3418.6,-72.99 3408.2,-75.05 3417.61,-79.92 3418.6,-72.99"/>
</g>
<!-- Node70&#45;&gt;Node5 -->
<g id="edge166" class="edge">
<title>Node70&#45;&gt;Node5</title>
<path fill="none" stroke="midnightblue" d="M3127.93,-343.31C2998.52,-337.79 2580.05,-319.56 2234,-300 2011.57,-287.43 385.6,-297.09 236,-132 227.08,-122.16 220.92,-89.73 240,-56 247.75,-42.3 261.59,-31.78 274.43,-24.37"/>
<polygon fill="midnightblue" stroke="midnightblue" points="276.33,-27.33 283.5,-19.53 273.03,-21.15 276.33,-27.33"/>
</g>
<!-- Node70&#45;&gt;Node26 -->
<g id="edge167" class="edge">
<title>Node70&#45;&gt;Node26</title>
<path fill="none" stroke="midnightblue" d="M3127.76,-343.32C2997.8,-337.83 2577.52,-319.66 2230,-300 1830.45,-277.39 701.72,-432.12 437,-132 419.33,-111.96 451,-91.99 478.01,-79.58"/>
<polygon fill="midnightblue" stroke="midnightblue" points="479.53,-82.73 487.28,-75.51 476.72,-76.32 479.53,-82.73"/>
</g>
<!-- Node70&#45;&gt;Node10 -->
<g id="edge168" class="edge">
<title>Node70&#45;&gt;Node10</title>
<path fill="none" stroke="midnightblue" d="M3168,-336.44C3168,-317.94 3168,-272.81 3168,-235 3168,-235 3168,-235 3168,-177 3168,-125.9 3108.97,-94.06 3069.56,-78.5"/>
<polygon fill="midnightblue" stroke="midnightblue" points="3070.61,-75.16 3060.02,-74.9 3068.13,-81.71 3070.61,-75.16"/>
</g>
<!-- Node70&#45;&gt;Node13 -->
<g id="edge170" class="edge">
<title>Node70&#45;&gt;Node13</title>
<path fill="none" stroke="midnightblue" d="M3208.33,-343.1C3348.92,-336.4 3812.45,-313.51 3878,-300 3932.32,-288.8 4316.06,-177.34 4348,-132 4361.23,-113.23 4338.21,-93.49 4317.81,-80.76"/>
<polygon fill="midnightblue" stroke="midnightblue" points="4319.44,-77.66 4309.05,-75.59 4315.88,-83.69 4319.44,-77.66"/>
</g>
<!-- Node70&#45;&gt;Node28 -->
<g id="edge169" class="edge">
<title>Node70&#45;&gt;Node28</title>
<path fill="none" stroke="midnightblue" d="M3208.25,-340.07C3220.95,-338.62 3235.05,-337.13 3248,-336 3377.53,-324.73 3707.03,-335.9 3832,-300 3882.08,-285.61 3904.89,-286.53 3935,-244 3968.98,-196.01 3968.44,-165.48 3944,-112 3938.22,-99.36 3926.95,-88.91 3916.37,-81.27"/>
<polygon fill="midnightblue" stroke="midnightblue" points="3918.04,-78.18 3907.78,-75.53 3914.15,-84 3918.04,-78.18"/>
</g>
<!-- Node70&#45;&gt;Node39 -->
<g id="edge171" class="edge">
<title>Node70&#45;&gt;Node39</title>
<path fill="none" stroke="midnightblue" d="M3127.97,-341.91C2998.65,-331.98 2580.43,-300.4 2234,-280 1902.19,-260.46 1816.38,-288.63 1487,-244 1374.6,-228.77 1347.69,-216.9 1238,-188 1154.93,-166.12 1104.19,-200.99 1053,-132 983.66,-38.56 839.21,-167.45 1235.5,-75.97"/>
<polygon fill="midnightblue" stroke="midnightblue" points="1236.31,-79.37 1245.26,-73.69 1234.73,-72.55 1236.31,-79.37"/>
</g>
<!-- Node70&#45;&gt;Node44 -->
<g id="edge150" class="edge">
<title>Node70&#45;&gt;Node44</title>
<path fill="none" stroke="midnightblue" d="M3203.31,-336.46C3267.9,-320.04 3400.82,-282.3 3427,-244 3451.89,-207.58 3406.41,-161.37 3378.48,-138"/>
<polygon fill="midnightblue" stroke="midnightblue" points="3380.44,-135.09 3370.47,-131.52 3376.04,-140.53 3380.44,-135.09"/>
</g>
<!-- Node70&#45;&gt;Node76 -->
<g id="edge152" class="edge">
<title>Node70&#45;&gt;Node76</title>
<path fill="none" stroke="midnightblue" d="M3133.14,-336.44C3095.08,-327.1 3034.04,-312.12 2992.54,-301.93"/>
<polygon fill="midnightblue" stroke="midnightblue" points="2993.24,-298.5 2982.7,-299.52 2991.57,-305.3 2993.24,-298.5"/>
</g>
<!-- Node70&#45;&gt;Node75 -->
<g id="edge165" class="edge">
<title>Node70&#45;&gt;Node75</title>
<path fill="none" stroke="midnightblue" d="M3127.68,-340.35C3016.18,-326.61 2695.37,-281.25 2445,-188 2404.13,-172.78 2358.69,-150.45 2331.24,-136.32"/>
<polygon fill="midnightblue" stroke="midnightblue" points="2332.81,-133.19 2322.32,-131.69 2329.58,-139.4 2332.81,-133.19"/>
</g>
<!-- Node76&#45;&gt;Node35 -->
<g id="edge155" class="edge">
<title>Node76&#45;&gt;Node35</title>
<path fill="none" stroke="midnightblue" d="M2989.7,-281.32C2992.84,-280.84 2995.97,-280.39 2999,-280 3046.33,-273.85 3393.77,-278.25 3427,-244 3467.89,-201.85 3463.76,-162.03 3433,-112 3423.45,-96.47 3406.69,-86.1 3390.27,-79.27"/>
<polygon fill="midnightblue" stroke="midnightblue" points="3391.29,-75.92 3380.7,-75.65 3388.82,-82.46 3391.29,-75.92"/>
</g>
<!-- Node76&#45;&gt;Node10 -->
<g id="edge162" class="edge">
<title>Node76&#45;&gt;Node10</title>
<path fill="none" stroke="midnightblue" d="M2966.12,-280.31C2994.12,-265.73 3046.86,-233.43 3068,-188 3082.25,-157.38 3078.51,-144.1 3068,-112 3064.51,-101.34 3057.43,-91.12 3050.71,-83.12"/>
<polygon fill="midnightblue" stroke="midnightblue" points="3053.3,-80.76 3044.02,-75.66 3048.1,-85.44 3053.3,-80.76"/>
</g>
<!-- Node76&#45;&gt;Node39 -->
<g id="edge163" class="edge">
<title>Node76&#45;&gt;Node39</title>
<path fill="none" stroke="midnightblue" d="M2906.27,-288.8C2680.39,-287.36 1602.34,-275.92 1283,-188 1261.9,-182.19 1258.78,-174.87 1238,-168 1168.38,-145 1122.84,-189.22 1077,-132 1011.09,-49.72 915.8,-154.18 1235.18,-76.1"/>
<polygon fill="midnightblue" stroke="midnightblue" points="1236.37,-79.41 1245.24,-73.61 1234.69,-72.61 1236.37,-79.41"/>
</g>
<!-- Node76&#45;&gt;Node40 -->
<g id="edge164" class="edge">
<title>Node76&#45;&gt;Node40</title>
<path fill="none" stroke="midnightblue" d="M2906.27,-284.5C2847.26,-277.77 2736.21,-263.72 2643,-244 2460.71,-205.44 2387.92,-243.99 2239,-132 2223.15,-120.08 2212.16,-99.88 2205.77,-85.16"/>
<polygon fill="midnightblue" stroke="midnightblue" points="2208.9,-83.57 2201.92,-75.6 2202.41,-86.18 2208.9,-83.57"/>
</g>
<!-- Node76&#45;&gt;Node42 -->
<g id="edge153" class="edge">
<title>Node76&#45;&gt;Node42</title>
<path fill="none" stroke="midnightblue" d="M2919.59,-280.46C2854.38,-260.86 2693.95,-212.65 2620.21,-190.48"/>
<polygon fill="midnightblue" stroke="midnightblue" points="2620.98,-187.06 2610.4,-187.53 2618.97,-193.76 2620.98,-187.06"/>
</g>
<!-- Node76&#45;&gt;Node49 -->
<g id="edge154" class="edge">
<title>Node76&#45;&gt;Node49</title>
<path fill="none" stroke="midnightblue" d="M2989.72,-281.46C2992.86,-280.94 2995.98,-280.45 2999,-280 3104.08,-264.26 3226.8,-249.97 3299.8,-241.89"/>
<polygon fill="midnightblue" stroke="midnightblue" points="3300.21,-245.37 3309.77,-240.79 3299.45,-238.41 3300.21,-245.37"/>
</g>
<!-- Node76&#45;&gt;Node75 -->
<g id="edge156" class="edge">
<title>Node76&#45;&gt;Node75</title>
<path fill="none" stroke="midnightblue" d="M2906.49,-281.23C2862.14,-272.77 2789.87,-258.49 2728,-244 2633.11,-221.78 2609.68,-214.86 2516,-188 2454.65,-170.41 2383.85,-148.07 2342.12,-134.69"/>
<polygon fill="midnightblue" stroke="midnightblue" points="2343.01,-131.29 2332.41,-131.57 2340.86,-137.96 2343.01,-131.29"/>
</g>
<!-- Node75&#45;&gt;Node5 -->
<g id="edge157" class="edge">
<title>Node75&#45;&gt;Node5</title>
<path fill="none" stroke="midnightblue" d="M2299.8,-112.16C2288.78,-97.28 2264.15,-67.72 2235,-56 2147.24,-20.71 713.76,-12.67 375.23,-11.26"/>
<polygon fill="midnightblue" stroke="midnightblue" points="375.08,-7.76 365.07,-11.22 375.05,-14.76 375.08,-7.76"/>
</g>
<!-- Node75&#45;&gt;Node10 -->
<g id="edge159" class="edge">
<title>Node75&#45;&gt;Node10</title>
<path fill="none" stroke="midnightblue" d="M2364.22,-116.14C2380.94,-114.77 2399.19,-113.3 2416,-112 2638.14,-94.84 2905.28,-76.04 2999.79,-69.45"/>
<polygon fill="midnightblue" stroke="midnightblue" points="3000.2,-72.93 3009.93,-68.74 2999.72,-65.94 3000.2,-72.93"/>
</g>
<!-- Node75&#45;&gt;Node16 -->
<g id="edge161" class="edge">
<title>Node75&#45;&gt;Node16</title>
<path fill="none" stroke="midnightblue" d="M2364.34,-112.55C2365.91,-112.36 2367.46,-112.18 2369,-112 2924.14,-47.8 3603.99,-19.06 3776.63,-12.5"/>
<polygon fill="midnightblue" stroke="midnightblue" points="3776.94,-15.99 3786.8,-12.12 3776.68,-9 3776.94,-15.99"/>
</g>
<!-- Node75&#45;&gt;Node30 -->
<g id="edge158" class="edge">
<title>Node75&#45;&gt;Node30</title>
<path fill="none" stroke="midnightblue" d="M2247.96,-116.92C2110.55,-107.26 1765.45,-82.99 1612.72,-72.25"/>
<polygon fill="midnightblue" stroke="midnightblue" points="1612.72,-68.75 1602.5,-71.54 1612.23,-75.73 1612.72,-68.75"/>
</g>
<!-- Node75&#45;&gt;Node40 -->
<g id="edge160" class="edge">
<title>Node75&#45;&gt;Node40</title>
<path fill="none" stroke="midnightblue" d="M2288.81,-112.32C2271.65,-103.66 2245.05,-90.24 2225.25,-80.25"/>
<polygon fill="midnightblue" stroke="midnightblue" points="2226.65,-77.04 2216.15,-75.65 2223.5,-83.28 2226.65,-77.04"/>
</g>
<!-- Node88&#45;&gt;Node28 -->
<g id="edge174" class="edge">
<title>Node88&#45;&gt;Node28</title>
<path fill="none" stroke="midnightblue" d="M4248.19,-224.19C4235.22,-201.38 4197.12,-140.24 4147,-112 4076.24,-72.14 3978.37,-66.13 3926.88,-66.04"/>
<polygon fill="midnightblue" stroke="midnightblue" points="3926.6,-62.54 3916.62,-66.1 3926.64,-69.54 3926.6,-62.54"/>
</g>
<!-- Node91&#45;&gt;Node34 -->
<g id="edge184" class="edge">
<title>Node91&#45;&gt;Node34</title>
<path fill="none" stroke="midnightblue" d="M3661.86,-285.31C3343.21,-268.54 2033.58,-199.61 1713.05,-182.74"/>
<polygon fill="midnightblue" stroke="midnightblue" points="1713.13,-179.24 1702.96,-182.21 1712.76,-186.23 1713.13,-179.24"/>
</g>
<!-- Node91&#45;&gt;Node10 -->
<g id="edge186" class="edge">
<title>Node91&#45;&gt;Node10</title>
<path fill="none" stroke="midnightblue" d="M3720.79,-280.39C3681.61,-250.83 3546.14,-153.01 3417,-112 3271.99,-65.95 3224.01,-102.34 3070.42,-75.96"/>
<polygon fill="midnightblue" stroke="midnightblue" points="3070.61,-72.43 3060.15,-74.12 3069.38,-79.33 3070.61,-72.43"/>
</g>
<!-- Node91&#45;&gt;Node13 -->
<g id="edge188" class="edge">
<title>Node91&#45;&gt;Node13</title>
<path fill="none" stroke="midnightblue" d="M3746.06,-280.35C3787.62,-254.96 3909.72,-181.55 3954,-168 4034.69,-143.31 4275.23,-194.43 4332,-132 4345.82,-116.81 4328.24,-96.19 4312.22,-82.28"/>
<polygon fill="midnightblue" stroke="midnightblue" points="4314.12,-79.31 4304.16,-75.68 4309.68,-84.72 4314.12,-79.31"/>
</g>
<!-- Node91&#45;&gt;Node14 -->
<g id="edge189" class="edge">
<title>Node91&#45;&gt;Node14</title>
<path fill="none" stroke="midnightblue" d="M3661.98,-284.55C3383.4,-266.8 2361.86,-201.43 2217,-188 2007.09,-168.54 1914.94,-258.1 1746,-132 1731.41,-121.11 1724.32,-101.04 1720.95,-86.07"/>
<polygon fill="midnightblue" stroke="midnightblue" points="1724.32,-85.04 1719.03,-75.86 1717.44,-86.33 1724.32,-85.04"/>
</g>
<!-- Node91&#45;&gt;Node16 -->
<g id="edge190" class="edge">
<title>Node91&#45;&gt;Node16</title>
<path fill="none" stroke="midnightblue" d="M3771.08,-280.42C3903.75,-251.12 4329.72,-155.53 4348,-132 4360.11,-116.41 4359.94,-75.46 4339,-56 4304.1,-23.57 3976.13,-14.07 3859.18,-11.7"/>
<polygon fill="midnightblue" stroke="midnightblue" points="3859.25,-8.2 3849.18,-11.5 3859.11,-15.2 3859.25,-8.2"/>
</g>
<!-- Node91&#45;&gt;Node28 -->
<g id="edge187" class="edge">
<title>Node91&#45;&gt;Node28</title>
<path fill="none" stroke="midnightblue" d="M3743.12,-280.28C3753.85,-271.61 3770.3,-257.67 3783,-244 3825.53,-198.21 3837.96,-186.8 3868,-132 3876.13,-117.17 3882.57,-99.02 3886.72,-85.67"/>
<polygon fill="midnightblue" stroke="midnightblue" points="3890.17,-86.35 3889.66,-75.76 3883.46,-84.36 3890.17,-86.35"/>
</g>
<!-- Node91&#45;&gt;Node49 -->
<g id="edge185" class="edge">
<title>Node91&#45;&gt;Node49</title>
<path fill="none" stroke="midnightblue" d="M3673.69,-280.44C3606.76,-270.62 3497.32,-254.56 3428.06,-244.4"/>
<polygon fill="midnightblue" stroke="midnightblue" points="3428.55,-240.93 3418.14,-242.94 3427.53,-247.86 3428.55,-240.93"/>
</g>
</g>
</svg>
