<?xml version="1.0" encoding="UTF-8" standalone="no"?>
<!DOCTYPE svg PUBLIC "-//W3C//DTD SVG 1.1//EN"
 "http://www.w3.org/Graphics/SVG/1.1/DTD/svg11.dtd">
<!-- Generated by graphviz version 2.44.0 (0)
 -->
<!-- Title: lib/Analysis/Interval.cpp Pages: 1 -->
<svg width="4295pt" height="655pt"
 viewBox="0.00 0.00 4294.50 655.00" xmlns="http://www.w3.org/2000/svg" xmlns:xlink="http://www.w3.org/1999/xlink">
<g id="graph0" class="graph" transform="scale(1 1) rotate(0) translate(4 651)">
<title>lib/Analysis/Interval.cpp</title>
<!-- Node1 -->
<g id="node1" class="node">
<title>Node1</title>
<g id="a_node1"><a xlink:title=" ">
<polygon fill="#bfbfbf" stroke="black" points="3037.5,-627.5 3037.5,-646.5 3157.5,-646.5 3157.5,-627.5 3037.5,-627.5"/>
<text text-anchor="middle" x="3097.5" y="-634.5" font-family="Helvetica" font-size="10.00">lib/Analysis/Interval.cpp</text>
</a>
</g>
</g>
<!-- Node2 -->
<g id="node2" class="node">
<title>Node2</title>
<g id="a_node2"><a xlink:href="Interval_8h.html" target="_top" xlink:title=" ">
<polygon fill="none" stroke="black" points="88.5,-571.5 88.5,-590.5 206.5,-590.5 206.5,-571.5 88.5,-571.5"/>
<text text-anchor="middle" x="147.5" y="-578.5" font-family="Helvetica" font-size="10.00">llvm/Analysis/Interval.h</text>
</a>
</g>
</g>
<!-- Node1&#45;&gt;Node2 -->
<g id="edge1" class="edge">
<title>Node1&#45;&gt;Node2</title>
<path fill="none" stroke="midnightblue" d="M3037.24,-634.9C2659.41,-627.98 620.09,-590.65 216.81,-583.27"/>
<polygon fill="midnightblue" stroke="midnightblue" points="216.81,-579.77 206.75,-583.08 216.68,-586.77 216.81,-579.77"/>
</g>
<!-- Node7 -->
<g id="node7" class="node">
<title>Node7</title>
<g id="a_node7"><a xlink:href="BasicBlock_8h.html" target="_top" xlink:title=" ">
<polygon fill="none" stroke="black" points="2105,-459.5 2105,-478.5 2214,-478.5 2214,-459.5 2105,-459.5"/>
<text text-anchor="middle" x="2159.5" y="-466.5" font-family="Helvetica" font-size="10.00">llvm/IR/BasicBlock.h</text>
</a>
</g>
</g>
<!-- Node1&#45;&gt;Node7 -->
<g id="edge6" class="edge">
<title>Node1&#45;&gt;Node7</title>
<path fill="none" stroke="midnightblue" d="M3049.37,-627.48C2891.41,-599.53 2389.11,-510.63 2217.57,-480.28"/>
<polygon fill="midnightblue" stroke="midnightblue" points="2218.17,-476.83 2207.72,-478.53 2216.96,-483.72 2218.17,-476.83"/>
</g>
<!-- Node92 -->
<g id="node46" class="node">
<title>Node92</title>
<g id="a_node46"><a xlink:href="IR_2CFG_8h.html" target="_top" xlink:title="This file provides various utilities for inspecting and working with the control flow graph in LLVM I...">
<polygon fill="none" stroke="black" points="1235.5,-571.5 1235.5,-590.5 1315.5,-590.5 1315.5,-571.5 1235.5,-571.5"/>
<text text-anchor="middle" x="1275.5" y="-578.5" font-family="Helvetica" font-size="10.00">llvm/IR/CFG.h</text>
</a>
</g>
</g>
<!-- Node1&#45;&gt;Node92 -->
<g id="edge150" class="edge">
<title>Node1&#45;&gt;Node92</title>
<path fill="none" stroke="midnightblue" d="M3037.4,-634.22C2757.43,-625.92 1583.91,-591.14 1325.83,-583.49"/>
<polygon fill="midnightblue" stroke="midnightblue" points="1325.73,-579.99 1315.63,-583.19 1325.53,-586.98 1325.73,-579.99"/>
</g>
<!-- Node106 -->
<g id="node48" class="node">
<title>Node106</title>
<g id="a_node48"><a xlink:href="raw__ostream_8h.html" target="_top" xlink:title=" ">
<polygon fill="none" stroke="black" points="3036.5,-291.5 3036.5,-310.5 3176.5,-310.5 3176.5,-291.5 3036.5,-291.5"/>
<text text-anchor="middle" x="3106.5" y="-298.5" font-family="Helvetica" font-size="10.00">llvm/Support/raw_ostream.h</text>
</a>
</g>
</g>
<!-- Node1&#45;&gt;Node106 -->
<g id="edge173" class="edge">
<title>Node1&#45;&gt;Node106</title>
<path fill="none" stroke="midnightblue" d="M3157.73,-636.42C3389.46,-637.27 4210.5,-632.73 4210.5,-526 4210.5,-526 4210.5,-526 4210.5,-412 4210.5,-309.11 3441.46,-301.34 3187.1,-301.59"/>
<polygon fill="midnightblue" stroke="midnightblue" points="3186.81,-298.09 3176.82,-301.6 3186.82,-305.09 3186.81,-298.09"/>
</g>
<!-- Node3 -->
<g id="node3" class="node">
<title>Node3</title>
<g id="a_node3"><a xlink:href="GraphTraits_8h.html" target="_top" xlink:title=" ">
<polygon fill="none" stroke="black" points="0,-515.5 0,-534.5 119,-534.5 119,-515.5 0,-515.5"/>
<text text-anchor="middle" x="59.5" y="-522.5" font-family="Helvetica" font-size="10.00">llvm/ADT/GraphTraits.h</text>
</a>
</g>
</g>
<!-- Node2&#45;&gt;Node3 -->
<g id="edge2" class="edge">
<title>Node2&#45;&gt;Node3</title>
<path fill="none" stroke="midnightblue" d="M133.36,-571.32C119.63,-562.9 98.56,-549.97 82.44,-540.07"/>
<polygon fill="midnightblue" stroke="midnightblue" points="83.96,-536.9 73.6,-534.65 80.3,-542.87 83.96,-536.9"/>
</g>
<!-- Node6 -->
<g id="node6" class="node">
<title>Node6</title>
<g id="a_node6"><a xlink:title=" ">
<polygon fill="none" stroke="#bfbfbf" points="1260,-179.5 1260,-198.5 1303,-198.5 1303,-179.5 1260,-179.5"/>
<text text-anchor="middle" x="1281.5" y="-186.5" font-family="Helvetica" font-size="10.00">vector</text>
</a>
</g>
</g>
<!-- Node2&#45;&gt;Node6 -->
<g id="edge5" class="edge">
<title>Node2&#45;&gt;Node6</title>
<path fill="none" stroke="midnightblue" d="M149.34,-571.31C154.45,-549.33 170.83,-490.98 206.5,-459 445.63,-244.62 578.93,-299.7 893.5,-235 1024.06,-208.15 1182.86,-196 1249.57,-191.81"/>
<polygon fill="midnightblue" stroke="midnightblue" points="1250.07,-195.28 1259.84,-191.18 1249.64,-188.3 1250.07,-195.28"/>
</g>
<!-- Node4 -->
<g id="node4" class="node">
<title>Node4</title>
<g id="a_node4"><a xlink:href="iterator__range_8h.html" target="_top" xlink:title="This provides a very simple, boring adaptor for a begin and end iterator into a range type.">
<polygon fill="none" stroke="black" points="223.5,-56.5 223.5,-75.5 351.5,-75.5 351.5,-56.5 223.5,-56.5"/>
<text text-anchor="middle" x="287.5" y="-63.5" font-family="Helvetica" font-size="10.00">llvm/ADT/iterator_range.h</text>
</a>
</g>
</g>
<!-- Node3&#45;&gt;Node4 -->
<g id="edge3" class="edge">
<title>Node3&#45;&gt;Node4</title>
<path fill="none" stroke="midnightblue" d="M59.5,-515.44C59.5,-496.94 59.5,-451.81 59.5,-414 59.5,-414 59.5,-414 59.5,-188 59.5,-152.58 57.37,-135.91 83.5,-112 102.46,-94.65 162.96,-82.72 213.19,-75.52"/>
<polygon fill="midnightblue" stroke="midnightblue" points="213.98,-78.95 223.41,-74.1 213.02,-72.01 213.98,-78.95"/>
</g>
<!-- Node5 -->
<g id="node5" class="node">
<title>Node5</title>
<g id="a_node5"><a xlink:title=" ">
<polygon fill="none" stroke="#bfbfbf" points="1687.5,-0.5 1687.5,-19.5 1727.5,-19.5 1727.5,-0.5 1687.5,-0.5"/>
<text text-anchor="middle" x="1707.5" y="-7.5" font-family="Helvetica" font-size="10.00">utility</text>
</a>
</g>
</g>
<!-- Node4&#45;&gt;Node5 -->
<g id="edge4" class="edge">
<title>Node4&#45;&gt;Node5</title>
<path fill="none" stroke="midnightblue" d="M351.74,-62.56C601.11,-53.07 1499.97,-18.89 1677.08,-12.16"/>
<polygon fill="midnightblue" stroke="midnightblue" points="1677.38,-15.65 1687.24,-11.77 1677.11,-8.65 1677.38,-15.65"/>
</g>
<!-- Node7&#45;&gt;Node4 -->
<g id="edge73" class="edge">
<title>Node7&#45;&gt;Node4</title>
<path fill="none" stroke="midnightblue" d="M2104.98,-468.34C1890.82,-469.33 1107.01,-469.62 863.5,-423 670.09,-385.97 614.5,-368.39 453.5,-255 422.05,-232.85 416.74,-224 387.5,-199 358.52,-174.22 345.44,-173.46 322.5,-143 309.15,-125.28 299.27,-101.65 293.47,-85.47"/>
<polygon fill="midnightblue" stroke="midnightblue" points="296.66,-83.96 290.12,-75.62 290.03,-86.22 296.66,-83.96"/>
</g>
<!-- Node8 -->
<g id="node8" class="node">
<title>Node8</title>
<g id="a_node8"><a xlink:href="Types_8h.html" target="_top" xlink:title=" ">
<polygon fill="none" stroke="black" points="3696.5,-118 3696.5,-137 3776.5,-137 3776.5,-118 3696.5,-118"/>
<text text-anchor="middle" x="3736.5" y="-125" font-family="Helvetica" font-size="10.00">llvm&#45;c/Types.h</text>
</a>
</g>
</g>
<!-- Node7&#45;&gt;Node8 -->
<g id="edge7" class="edge">
<title>Node7&#45;&gt;Node8</title>
<path fill="none" stroke="midnightblue" d="M2214.2,-468.25C2394.79,-468.6 2988.25,-466.18 3476.5,-423 3651.37,-407.54 3696.76,-407.83 3867.5,-367 3942.82,-348.99 3965.72,-350.21 4032.5,-311 4070.09,-288.93 4120.56,-269.94 4094.5,-235 4057.45,-185.32 3876.16,-150.46 3786.67,-135.98"/>
<polygon fill="midnightblue" stroke="midnightblue" points="3787.17,-132.52 3776.75,-134.4 3786.07,-139.43 3787.17,-132.52"/>
</g>
<!-- Node14 -->
<g id="node11" class="node">
<title>Node14</title>
<g id="a_node11"><a xlink:href="Twine_8h.html" target="_top" xlink:title=" ">
<polygon fill="none" stroke="black" points="2574.5,-291.5 2574.5,-310.5 2668.5,-310.5 2668.5,-291.5 2574.5,-291.5"/>
<text text-anchor="middle" x="2621.5" y="-298.5" font-family="Helvetica" font-size="10.00">llvm/ADT/Twine.h</text>
</a>
</g>
</g>
<!-- Node7&#45;&gt;Node14 -->
<g id="edge10" class="edge">
<title>Node7&#45;&gt;Node14</title>
<path fill="none" stroke="midnightblue" d="M2214.04,-460.54C2289.95,-448.62 2430.32,-420.92 2538.5,-367 2564.45,-354.07 2590.06,-332.26 2605.82,-317.5"/>
<polygon fill="midnightblue" stroke="midnightblue" points="2608.31,-319.96 2613.11,-310.52 2603.47,-314.91 2608.31,-319.96"/>
</g>
<!-- Node16 -->
<g id="node13" class="node">
<title>Node16</title>
<g id="a_node13"><a xlink:href="Compiler_8h.html" target="_top" xlink:title=" ">
<polygon fill="none" stroke="red" points="2936.5,-56.5 2936.5,-75.5 3058.5,-75.5 3058.5,-56.5 2936.5,-56.5"/>
<text text-anchor="middle" x="2997.5" y="-63.5" font-family="Helvetica" font-size="10.00">llvm/Support/Compiler.h</text>
</a>
</g>
</g>
<!-- Node7&#45;&gt;Node16 -->
<g id="edge146" class="edge">
<title>Node7&#45;&gt;Node16</title>
<path fill="none" stroke="midnightblue" d="M2214.17,-463.85C2346.77,-453.77 2678.25,-428.41 2728.5,-423 2998.65,-393.94 3101.65,-459.02 3329.5,-311 3370.61,-284.29 3455.57,-189.01 3472.5,-143 3477.26,-130.07 3481.77,-122.19 3472.5,-112 3465.78,-104.62 3199.82,-82.84 3068.87,-72.53"/>
<polygon fill="midnightblue" stroke="midnightblue" points="3068.78,-69.01 3058.54,-71.72 3068.23,-75.99 3068.78,-69.01"/>
</g>
<!-- Node23 -->
<g id="node17" class="node">
<title>Node23</title>
<g id="a_node17"><a xlink:title=" ">
<polygon fill="none" stroke="#bfbfbf" points="3127.5,-56.5 3127.5,-75.5 3177.5,-75.5 3177.5,-56.5 3127.5,-56.5"/>
<text text-anchor="middle" x="3152.5" y="-63.5" font-family="Helvetica" font-size="10.00">cassert</text>
</a>
</g>
</g>
<!-- Node7&#45;&gt;Node23 -->
<g id="edge147" class="edge">
<title>Node7&#45;&gt;Node23</title>
<path fill="none" stroke="midnightblue" d="M2214.14,-467.29C2442.23,-464.16 3319.2,-450.54 3594.5,-423 3835.33,-398.9 4028.53,-481.99 4112.5,-255 4179.59,-73.64 3367.75,-66.17 3187.53,-66.74"/>
<polygon fill="midnightblue" stroke="midnightblue" points="3187.51,-63.24 3177.52,-66.78 3187.54,-70.24 3187.51,-63.24"/>
</g>
<!-- Node33 -->
<g id="node18" class="node">
<title>Node33</title>
<g id="a_node18"><a xlink:title=" ">
<polygon fill="none" stroke="#bfbfbf" points="1398,-56.5 1398,-75.5 1447,-75.5 1447,-56.5 1398,-56.5"/>
<text text-anchor="middle" x="1422.5" y="-63.5" font-family="Helvetica" font-size="10.00">cstddef</text>
</a>
</g>
</g>
<!-- Node7&#45;&gt;Node33 -->
<g id="edge148" class="edge">
<title>Node7&#45;&gt;Node33</title>
<path fill="none" stroke="midnightblue" d="M2104.94,-465.84C1919.4,-457.98 1321.11,-428.05 1262.5,-367 1204.52,-306.6 1203.3,-248.15 1250.5,-179 1275.25,-142.73 1305.45,-166.56 1342.5,-143 1368.66,-126.37 1393.71,-100.4 1408.6,-83.54"/>
<polygon fill="midnightblue" stroke="midnightblue" points="1411.53,-85.51 1415.41,-75.66 1406.23,-80.93 1411.53,-85.51"/>
</g>
<!-- Node35 -->
<g id="node20" class="node">
<title>Node35</title>
<g id="a_node20"><a xlink:title=" ">
<polygon fill="none" stroke="#bfbfbf" points="714,-56.5 714,-75.5 761,-75.5 761,-56.5 714,-56.5"/>
<text text-anchor="middle" x="737.5" y="-63.5" font-family="Helvetica" font-size="10.00">iterator</text>
</a>
</g>
</g>
<!-- Node7&#45;&gt;Node35 -->
<g id="edge149" class="edge">
<title>Node7&#45;&gt;Node35</title>
<path fill="none" stroke="midnightblue" d="M2104.7,-468.18C1898.22,-468.52 1167.46,-466.54 939.5,-423 866.32,-409.02 850.59,-394.87 781.5,-367 614.01,-299.44 545.81,-319.74 411.5,-199 380.75,-171.35 351.14,-143.01 378.5,-112 399.85,-87.81 618.18,-73.46 703.55,-68.74"/>
<polygon fill="midnightblue" stroke="midnightblue" points="703.95,-72.22 713.75,-68.19 703.57,-65.23 703.95,-72.22"/>
</g>
<!-- Node47 -->
<g id="node24" class="node">
<title>Node47</title>
<g id="a_node24"><a xlink:href="iterator_8h.html" target="_top" xlink:title=" ">
<polygon fill="none" stroke="black" points="815.5,-118 815.5,-137 913.5,-137 913.5,-118 815.5,-118"/>
<text text-anchor="middle" x="864.5" y="-125" font-family="Helvetica" font-size="10.00">llvm/ADT/iterator.h</text>
</a>
</g>
</g>
<!-- Node7&#45;&gt;Node47 -->
<g id="edge72" class="edge">
<title>Node7&#45;&gt;Node47</title>
<path fill="none" stroke="midnightblue" d="M2104.75,-467.07C1913.66,-463.61 1276.87,-450.28 1074.5,-423 964.66,-408.2 934.54,-407.83 831.5,-367 727.87,-325.94 597.06,-266.98 665.5,-179 682.58,-157.04 752.82,-143.09 805.04,-135.54"/>
<polygon fill="midnightblue" stroke="midnightblue" points="805.8,-138.97 815.22,-134.11 804.83,-132.03 805.8,-138.97"/>
</g>
<!-- Node50 -->
<g id="node26" class="node">
<title>Node50</title>
<g id="a_node26"><a xlink:href="ilist_8h.html" target="_top" xlink:title=" ">
<polygon fill="none" stroke="black" points="1006,-291.5 1006,-310.5 1089,-310.5 1089,-291.5 1006,-291.5"/>
<text text-anchor="middle" x="1047.5" y="-298.5" font-family="Helvetica" font-size="10.00">llvm/ADT/ilist.h</text>
</a>
</g>
</g>
<!-- Node7&#45;&gt;Node50 -->
<g id="edge55" class="edge">
<title>Node7&#45;&gt;Node50</title>
<path fill="none" stroke="midnightblue" d="M2104.98,-466.98C1919.39,-463.27 1319.03,-449.35 1236.5,-423 1165.94,-400.47 1095.94,-344.66 1064.59,-317.44"/>
<polygon fill="midnightblue" stroke="midnightblue" points="1066.61,-314.56 1056.8,-310.57 1061.98,-319.81 1066.61,-314.56"/>
</g>
<!-- Node57 -->
<g id="node28" class="node">
<title>Node57</title>
<g id="a_node28"><a xlink:href="ilist__node_8h.html" target="_top" xlink:title=" ">
<polygon fill="none" stroke="black" points="684.5,-179.5 684.5,-198.5 794.5,-198.5 794.5,-179.5 684.5,-179.5"/>
<text text-anchor="middle" x="739.5" y="-186.5" font-family="Helvetica" font-size="10.00">llvm/ADT/ilist_node.h</text>
</a>
</g>
</g>
<!-- Node7&#45;&gt;Node57 -->
<g id="edge71" class="edge">
<title>Node7&#45;&gt;Node57</title>
<path fill="none" stroke="midnightblue" d="M2104.86,-468.32C1918.56,-468.98 1309.4,-467.61 1119.5,-423 1098.19,-417.99 1095.38,-409.55 1074.5,-403 993.32,-377.56 959.75,-410.26 886.5,-367 877.61,-361.75 787.19,-249.53 752.74,-206.55"/>
<polygon fill="midnightblue" stroke="midnightblue" points="755.44,-204.32 746.46,-198.71 749.98,-208.7 755.44,-204.32"/>
</g>
<!-- Node59 -->
<g id="node31" class="node">
<title>Node59</title>
<g id="a_node31"><a xlink:href="IR_2Instruction_8h.html" target="_top" xlink:title=" ">
<polygon fill="none" stroke="black" points="2107,-403.5 2107,-422.5 2212,-422.5 2212,-403.5 2107,-403.5"/>
<text text-anchor="middle" x="2159.5" y="-410.5" font-family="Helvetica" font-size="10.00">llvm/IR/Instruction.h</text>
</a>
</g>
</g>
<!-- Node7&#45;&gt;Node59 -->
<g id="edge74" class="edge">
<title>Node7&#45;&gt;Node59</title>
<path fill="none" stroke="midnightblue" d="M2159.5,-459.08C2159.5,-452.01 2159.5,-441.86 2159.5,-432.99"/>
<polygon fill="midnightblue" stroke="midnightblue" points="2163,-432.75 2159.5,-422.75 2156,-432.75 2163,-432.75"/>
</g>
<!-- Node89 -->
<g id="node37" class="node">
<title>Node89</title>
<g id="a_node37"><a xlink:href="SymbolTableListTraits_8h.html" target="_top" xlink:title=" ">
<polygon fill="none" stroke="black" points="928,-347.5 928,-366.5 1083,-366.5 1083,-347.5 928,-347.5"/>
<text text-anchor="middle" x="1005.5" y="-354.5" font-family="Helvetica" font-size="10.00">llvm/IR/SymbolTableListTraits.h</text>
</a>
</g>
</g>
<!-- Node7&#45;&gt;Node89 -->
<g id="edge142" class="edge">
<title>Node7&#45;&gt;Node89</title>
<path fill="none" stroke="midnightblue" d="M2104.88,-467.43C1928.32,-465.29 1374.24,-456.04 1198.5,-423 1138.63,-411.74 1071.92,-386.2 1034.7,-370.69"/>
<polygon fill="midnightblue" stroke="midnightblue" points="1035.59,-367.27 1025.02,-366.61 1032.87,-373.72 1035.59,-367.27"/>
</g>
<!-- Node80 -->
<g id="node40" class="node">
<title>Node80</title>
<g id="a_node40"><a xlink:href="CBindingWrapping_8h.html" target="_top" xlink:title=" ">
<polygon fill="none" stroke="black" points="3536.5,-179.5 3536.5,-198.5 3700.5,-198.5 3700.5,-179.5 3536.5,-179.5"/>
<text text-anchor="middle" x="3618.5" y="-186.5" font-family="Helvetica" font-size="10.00">llvm/Support/CBindingWrapping.h</text>
</a>
</g>
</g>
<!-- Node7&#45;&gt;Node80 -->
<g id="edge144" class="edge">
<title>Node7&#45;&gt;Node80</title>
<path fill="none" stroke="midnightblue" d="M2214.12,-467.39C2419.1,-464.9 3142.36,-454.04 3370.5,-423 3530.51,-401.23 3977.38,-381.7 4077.5,-255 4083.01,-248.03 4083.47,-241.58 4077.5,-235 4065.34,-221.59 3841.14,-204.66 3710.66,-195.88"/>
<polygon fill="midnightblue" stroke="midnightblue" points="3710.87,-192.39 3700.66,-195.21 3710.41,-199.37 3710.87,-192.39"/>
</g>
<!-- Node81 -->
<g id="node41" class="node">
<title>Node81</title>
<g id="a_node41"><a xlink:href="Casting_8h.html" target="_top" xlink:title=" ">
<polygon fill="none" stroke="red" points="3347.5,-118 3347.5,-137 3463.5,-137 3463.5,-118 3347.5,-118"/>
<text text-anchor="middle" x="3405.5" y="-125" font-family="Helvetica" font-size="10.00">llvm/Support/Casting.h</text>
</a>
</g>
</g>
<!-- Node7&#45;&gt;Node81 -->
<g id="edge145" class="edge">
<title>Node7&#45;&gt;Node81</title>
<path fill="none" stroke="midnightblue" d="M2214.23,-463.09C2443.97,-442.1 3318.5,-358.5 3318.5,-302 3318.5,-302 3318.5,-302 3318.5,-244 3318.5,-213.2 3324.5,-203.98 3342.5,-179 3353.02,-164.4 3368.83,-151.74 3381.98,-142.75"/>
<polygon fill="midnightblue" stroke="midnightblue" points="3384.11,-145.54 3390.56,-137.14 3380.28,-139.68 3384.11,-145.54"/>
</g>
<!-- Node82 -->
<g id="node42" class="node">
<title>Node82</title>
<g id="a_node42"><a xlink:href="Value_8h.html" target="_top" xlink:title=" ">
<polygon fill="none" stroke="red" points="2935,-291.5 2935,-310.5 3018,-310.5 3018,-291.5 2935,-291.5"/>
<text text-anchor="middle" x="2976.5" y="-298.5" font-family="Helvetica" font-size="10.00">llvm/IR/Value.h</text>
</a>
</g>
</g>
<!-- Node7&#45;&gt;Node82 -->
<g id="edge143" class="edge">
<title>Node7&#45;&gt;Node82</title>
<path fill="none" stroke="midnightblue" d="M2214.13,-460.06C2269.93,-451.72 2358.99,-437.78 2435.5,-423 2620.63,-387.24 2839.23,-335.35 2931.67,-312.96"/>
<polygon fill="midnightblue" stroke="midnightblue" points="2932.63,-316.33 2941.52,-310.57 2930.98,-309.53 2932.63,-316.33"/>
</g>
<!-- Node9 -->
<g id="node9" class="node">
<title>Node9</title>
<g id="a_node9"><a xlink:href="llvm-c_2DataTypes_8h.html" target="_top" xlink:title=" ">
<polygon fill="none" stroke="red" points="3940,-56.5 3940,-75.5 4041,-75.5 4041,-56.5 3940,-56.5"/>
<text text-anchor="middle" x="3990.5" y="-63.5" font-family="Helvetica" font-size="10.00">llvm&#45;c/DataTypes.h</text>
</a>
</g>
</g>
<!-- Node8&#45;&gt;Node9 -->
<g id="edge8" class="edge">
<title>Node8&#45;&gt;Node9</title>
<path fill="none" stroke="midnightblue" d="M3772.89,-117.98C3818.07,-107.39 3895.15,-89.34 3944.41,-77.8"/>
<polygon fill="midnightblue" stroke="midnightblue" points="3945.24,-81.2 3954.18,-75.51 3943.64,-74.38 3945.24,-81.2"/>
</g>
<!-- Node13 -->
<g id="node10" class="node">
<title>Node13</title>
<g id="a_node10"><a xlink:href="ExternC_8h.html" target="_top" xlink:title=" ">
<polygon fill="none" stroke="black" points="3692,-56.5 3692,-75.5 3781,-75.5 3781,-56.5 3692,-56.5"/>
<text text-anchor="middle" x="3736.5" y="-63.5" font-family="Helvetica" font-size="10.00">llvm&#45;c/ExternC.h</text>
</a>
</g>
</g>
<!-- Node8&#45;&gt;Node13 -->
<g id="edge9" class="edge">
<title>Node8&#45;&gt;Node13</title>
<path fill="none" stroke="midnightblue" d="M3736.5,-117.98C3736.5,-109.58 3736.5,-96.48 3736.5,-85.66"/>
<polygon fill="midnightblue" stroke="midnightblue" points="3740,-85.51 3736.5,-75.51 3733,-85.51 3740,-85.51"/>
</g>
<!-- Node15 -->
<g id="node12" class="node">
<title>Node15</title>
<g id="a_node12"><a xlink:href="SmallVector_8h.html" target="_top" xlink:title=" ">
<polygon fill="none" stroke="red" points="1831,-179.5 1831,-198.5 1952,-198.5 1952,-179.5 1831,-179.5"/>
<text text-anchor="middle" x="1891.5" y="-186.5" font-family="Helvetica" font-size="10.00">llvm/ADT/SmallVector.h</text>
</a>
</g>
</g>
<!-- Node14&#45;&gt;Node15 -->
<g id="edge11" class="edge">
<title>Node14&#45;&gt;Node15</title>
<path fill="none" stroke="midnightblue" d="M2574.34,-297.69C2490.01,-293.05 2308.02,-280.78 2156.5,-255 2075.07,-241.15 1981.62,-216.01 1930.31,-201.39"/>
<polygon fill="midnightblue" stroke="midnightblue" points="1931.2,-198 1920.62,-198.61 1929.27,-204.73 1931.2,-198"/>
</g>
<!-- Node19 -->
<g id="node14" class="node">
<title>Node19</title>
<g id="a_node14"><a xlink:href="llvm_2Support_2ErrorHandling_8h.html" target="_top" xlink:title=" ">
<polygon fill="none" stroke="black" points="2446,-118 2446,-137 2589,-137 2589,-118 2446,-118"/>
<text text-anchor="middle" x="2517.5" y="-125" font-family="Helvetica" font-size="10.00">llvm/Support/ErrorHandling.h</text>
</a>
</g>
</g>
<!-- Node14&#45;&gt;Node19 -->
<g id="edge51" class="edge">
<title>Node14&#45;&gt;Node19</title>
<path fill="none" stroke="midnightblue" d="M2639.02,-291.39C2676.54,-271.84 2758.58,-222.39 2724.5,-179 2708.78,-158.99 2650.17,-145.9 2599.31,-138.07"/>
<polygon fill="midnightblue" stroke="midnightblue" points="2599.67,-134.59 2589.26,-136.58 2598.64,-141.51 2599.67,-134.59"/>
</g>
<!-- Node20 -->
<g id="node15" class="node">
<title>Node20</title>
<g id="a_node15"><a xlink:title=" ">
<polygon fill="none" stroke="#bfbfbf" points="2447,-56.5 2447,-75.5 2488,-75.5 2488,-56.5 2447,-56.5"/>
<text text-anchor="middle" x="2467.5" y="-63.5" font-family="Helvetica" font-size="10.00">string</text>
</a>
</g>
</g>
<!-- Node14&#45;&gt;Node20 -->
<g id="edge54" class="edge">
<title>Node14&#45;&gt;Node20</title>
<path fill="none" stroke="midnightblue" d="M2615.65,-291.3C2600.8,-269.77 2559.58,-213.29 2513.5,-179 2483.19,-156.45 2456.78,-174.87 2436.5,-143 2424.49,-124.13 2438.86,-99.84 2451.77,-83.86"/>
<polygon fill="midnightblue" stroke="midnightblue" points="2454.74,-85.78 2458.62,-75.92 2449.44,-81.21 2454.74,-85.78"/>
</g>
<!-- Node14&#45;&gt;Node23 -->
<g id="edge52" class="edge">
<title>Node14&#45;&gt;Node23</title>
<path fill="none" stroke="midnightblue" d="M2668.81,-294.47C2713.57,-288.24 2782.12,-276.13 2838.5,-255 2933.54,-219.39 2951.98,-197.65 3037.5,-143 3057.35,-130.31 3060.94,-125.14 3080.5,-112 3096.66,-101.14 3115.31,-89.51 3129.58,-80.79"/>
<polygon fill="midnightblue" stroke="midnightblue" points="3131.52,-83.71 3138.25,-75.52 3127.89,-77.72 3131.52,-83.71"/>
</g>
<!-- Node38 -->
<g id="node22" class="node">
<title>Node38</title>
<g id="a_node22"><a xlink:href="StringRef_8h.html" target="_top" xlink:title=" ">
<polygon fill="none" stroke="red" points="2428.5,-235.5 2428.5,-254.5 2536.5,-254.5 2536.5,-235.5 2428.5,-235.5"/>
<text text-anchor="middle" x="2482.5" y="-242.5" font-family="Helvetica" font-size="10.00">llvm/ADT/StringRef.h</text>
</a>
</g>
</g>
<!-- Node14&#45;&gt;Node38 -->
<g id="edge24" class="edge">
<title>Node14&#45;&gt;Node38</title>
<path fill="none" stroke="midnightblue" d="M2599.48,-291.44C2576.4,-282.48 2539.94,-268.31 2513.86,-258.18"/>
<polygon fill="midnightblue" stroke="midnightblue" points="2515.01,-254.88 2504.42,-254.52 2512.48,-261.4 2515.01,-254.88"/>
</g>
<!-- Node26 -->
<g id="node25" class="node">
<title>Node26</title>
<g id="a_node25"><a xlink:title=" ">
<polygon fill="none" stroke="#bfbfbf" points="2001.5,-118 2001.5,-137 2047.5,-137 2047.5,-118 2001.5,-118"/>
<text text-anchor="middle" x="2024.5" y="-125" font-family="Helvetica" font-size="10.00">cstdint</text>
</a>
</g>
</g>
<!-- Node14&#45;&gt;Node26 -->
<g id="edge53" class="edge">
<title>Node14&#45;&gt;Node26</title>
<path fill="none" stroke="midnightblue" d="M2574.33,-297.47C2482.69,-291.08 2275.81,-269.41 2118.5,-199 2088.42,-185.54 2058.87,-160.99 2041.16,-144.71"/>
<polygon fill="midnightblue" stroke="midnightblue" points="2043.14,-141.77 2033.46,-137.46 2038.35,-146.87 2043.14,-141.77"/>
</g>
<!-- Node15&#45;&gt;Node4 -->
<g id="edge12" class="edge">
<title>Node15&#45;&gt;Node4</title>
<path fill="none" stroke="midnightblue" d="M1830.83,-179.85C1827.68,-179.54 1824.55,-179.25 1821.5,-179 1371.61,-142.18 1255.79,-186.52 806.5,-143 719.15,-134.54 698.3,-124.93 611.5,-112 525.92,-99.26 427.45,-85.74 361.75,-76.89"/>
<polygon fill="midnightblue" stroke="midnightblue" points="361.87,-73.37 351.49,-75.51 360.93,-80.31 361.87,-73.37"/>
</g>
<!-- Node15&#45;&gt;Node5 -->
<g id="edge23" class="edge">
<title>Node15&#45;&gt;Node5</title>
<path fill="none" stroke="midnightblue" d="M1890.4,-179.13C1888.13,-163.94 1881.69,-132.62 1865.5,-112 1831.13,-68.24 1772.22,-37.89 1736.86,-22.55"/>
<polygon fill="midnightblue" stroke="midnightblue" points="1738.13,-19.28 1727.55,-18.62 1735.4,-25.73 1738.13,-19.28"/>
</g>
<!-- Node15&#45;&gt;Node16 -->
<g id="edge13" class="edge">
<title>Node15&#45;&gt;Node16</title>
<path fill="none" stroke="midnightblue" d="M1899.35,-179.32C1915.09,-162.62 1952.44,-126.39 1992.5,-112 2079.58,-80.72 2711.1,-70.39 2926.07,-67.76"/>
<polygon fill="midnightblue" stroke="midnightblue" points="2926.34,-71.26 2936.29,-67.64 2926.25,-64.26 2926.34,-71.26"/>
</g>
<!-- Node15&#45;&gt;Node19 -->
<g id="edge14" class="edge">
<title>Node15&#45;&gt;Node19</title>
<path fill="none" stroke="midnightblue" d="M1952.21,-183.09C2046.65,-175.33 2234.44,-159.43 2393.5,-143 2407.69,-141.53 2422.78,-139.86 2437.37,-138.19"/>
<polygon fill="midnightblue" stroke="midnightblue" points="2437.84,-141.66 2447.37,-137.04 2437.03,-134.71 2437.84,-141.66"/>
</g>
<!-- Node22 -->
<g id="node16" class="node">
<title>Node22</title>
<g id="a_node16"><a xlink:title=" ">
<polygon fill="none" stroke="#bfbfbf" points="1323.5,-56.5 1323.5,-75.5 1379.5,-75.5 1379.5,-56.5 1323.5,-56.5"/>
<text text-anchor="middle" x="1351.5" y="-63.5" font-family="Helvetica" font-size="10.00">algorithm</text>
</a>
</g>
</g>
<!-- Node15&#45;&gt;Node22 -->
<g id="edge17" class="edge">
<title>Node15&#45;&gt;Node22</title>
<path fill="none" stroke="midnightblue" d="M1880.28,-179.28C1858.45,-162.85 1808.11,-127.55 1759.5,-112 1604.79,-62.52 1553.83,-102.04 1389.64,-75.93"/>
<polygon fill="midnightblue" stroke="midnightblue" points="1390.13,-72.47 1379.7,-74.3 1388.99,-79.37 1390.13,-72.47"/>
</g>
<!-- Node15&#45;&gt;Node23 -->
<g id="edge18" class="edge">
<title>Node15&#45;&gt;Node23</title>
<path fill="none" stroke="midnightblue" d="M1952.25,-186.79C2100.15,-183.42 2475.75,-172.16 2597.5,-143 2631.38,-134.88 2635.73,-120.57 2669.5,-112 2841.66,-68.34 2890.74,-93.35 3067.5,-76 3083.82,-74.4 3101.89,-72.5 3117.15,-70.86"/>
<polygon fill="midnightblue" stroke="midnightblue" points="3117.65,-74.33 3127.22,-69.78 3116.9,-67.37 3117.65,-74.33"/>
</g>
<!-- Node15&#45;&gt;Node33 -->
<g id="edge19" class="edge">
<title>Node15&#45;&gt;Node33</title>
<path fill="none" stroke="midnightblue" d="M1887.86,-179.07C1880.64,-162.6 1862.77,-127.69 1835.5,-112 1771.36,-75.09 1544.71,-68.44 1457.27,-67.25"/>
<polygon fill="midnightblue" stroke="midnightblue" points="1457.12,-63.75 1447.08,-67.13 1457.03,-70.75 1457.12,-63.75"/>
</g>
<!-- Node27 -->
<g id="node19" class="node">
<title>Node27</title>
<g id="a_node19"><a xlink:title=" ">
<polygon fill="none" stroke="#bfbfbf" points="2797.5,-118 2797.5,-137 2843.5,-137 2843.5,-118 2797.5,-118"/>
<text text-anchor="middle" x="2820.5" y="-125" font-family="Helvetica" font-size="10.00">cstring</text>
</a>
</g>
</g>
<!-- Node15&#45;&gt;Node27 -->
<g id="edge20" class="edge">
<title>Node15&#45;&gt;Node27</title>
<path fill="none" stroke="midnightblue" d="M1952.08,-185.28C2083.07,-179.23 2402.4,-163.54 2669.5,-143 2710.14,-139.87 2756.82,-135.23 2787.39,-132.04"/>
<polygon fill="midnightblue" stroke="midnightblue" points="2787.92,-135.51 2797.5,-130.98 2787.19,-128.55 2787.92,-135.51"/>
</g>
<!-- Node15&#45;&gt;Node35 -->
<g id="edge21" class="edge">
<title>Node15&#45;&gt;Node35</title>
<path fill="none" stroke="midnightblue" d="M1840.49,-179.46C1746.17,-163.95 1538.02,-131 1361.5,-112 1136.64,-87.8 864.74,-73.2 771.09,-68.59"/>
<polygon fill="midnightblue" stroke="midnightblue" points="771.23,-65.09 761.07,-68.1 770.89,-72.08 771.23,-65.09"/>
</g>
<!-- Node29 -->
<g id="node21" class="node">
<title>Node29</title>
<g id="a_node21"><a xlink:title=" ">
<polygon fill="none" stroke="#bfbfbf" points="1925.5,-56.5 1925.5,-75.5 1987.5,-75.5 1987.5,-56.5 1925.5,-56.5"/>
<text text-anchor="middle" x="1956.5" y="-63.5" font-family="Helvetica" font-size="10.00">type_traits</text>
</a>
</g>
</g>
<!-- Node15&#45;&gt;Node29 -->
<g id="edge22" class="edge">
<title>Node15&#45;&gt;Node29</title>
<path fill="none" stroke="midnightblue" d="M1896.17,-179.3C1906.81,-159.5 1932.98,-110.78 1947.1,-84.49"/>
<polygon fill="midnightblue" stroke="midnightblue" points="1950.22,-86.09 1951.87,-75.62 1944.05,-82.78 1950.22,-86.09"/>
</g>
<!-- Node19&#45;&gt;Node16 -->
<g id="edge15" class="edge">
<title>Node19&#45;&gt;Node16</title>
<path fill="none" stroke="midnightblue" d="M2565.19,-117.99C2577.64,-115.9 2591.06,-113.76 2603.5,-112 2715.88,-96.12 2846.9,-82.03 2925.96,-74.01"/>
<polygon fill="midnightblue" stroke="midnightblue" points="2926.69,-77.46 2936.29,-72.97 2925.99,-70.49 2926.69,-77.46"/>
</g>
<!-- Node19&#45;&gt;Node20 -->
<g id="edge16" class="edge">
<title>Node19&#45;&gt;Node20</title>
<path fill="none" stroke="midnightblue" d="M2510.34,-117.98C2502.76,-108.96 2490.63,-94.52 2481.21,-83.31"/>
<polygon fill="midnightblue" stroke="midnightblue" points="2483.76,-80.91 2474.65,-75.51 2478.4,-85.42 2483.76,-80.91"/>
</g>
<!-- Node38&#45;&gt;Node4 -->
<g id="edge42" class="edge">
<title>Node38&#45;&gt;Node4</title>
<path fill="none" stroke="midnightblue" d="M2428.43,-242.69C2291.59,-239.06 1920.51,-227.18 1612.5,-199 1544.65,-192.79 1528.39,-184.83 1460.5,-179 1362.23,-170.56 664.73,-180.49 573.5,-143 554.59,-135.23 557.84,-121.04 539.5,-112 483.82,-84.55 413.87,-73.66 361.81,-69.43"/>
<polygon fill="midnightblue" stroke="midnightblue" points="361.88,-65.92 351.64,-68.67 361.35,-72.9 361.88,-65.92"/>
</g>
<!-- Node38&#45;&gt;Node5 -->
<g id="edge50" class="edge">
<title>Node38&#45;&gt;Node5</title>
<path fill="none" stroke="midnightblue" d="M2470.93,-235.38C2453.11,-222.32 2417.65,-197.11 2385.5,-179 2324,-144.36 2308.28,-134.88 2241.5,-112 2056.37,-48.57 1820.7,-21.62 1737.9,-13.68"/>
<polygon fill="midnightblue" stroke="midnightblue" points="1738.2,-10.19 1727.91,-12.74 1737.54,-17.16 1738.2,-10.19"/>
</g>
<!-- Node38&#45;&gt;Node16 -->
<g id="edge43" class="edge">
<title>Node38&#45;&gt;Node16</title>
<path fill="none" stroke="midnightblue" d="M2527.21,-235.46C2597.94,-221.14 2739.22,-189.25 2852.5,-143 2897.18,-124.76 2946.38,-97.28 2974.45,-80.84"/>
<polygon fill="midnightblue" stroke="midnightblue" points="2976.29,-83.82 2983.12,-75.72 2972.73,-77.79 2976.29,-83.82"/>
</g>
<!-- Node38&#45;&gt;Node20 -->
<g id="edge48" class="edge">
<title>Node38&#45;&gt;Node20</title>
<path fill="none" stroke="midnightblue" d="M2488.31,-235.19C2496.29,-221.87 2508.38,-196.33 2496.5,-179 2471.45,-142.44 2428.55,-179.56 2403.5,-143 2395.71,-131.63 2397.15,-124.23 2403.5,-112 2410.8,-97.94 2424.75,-87.34 2437.76,-79.98"/>
<polygon fill="midnightblue" stroke="midnightblue" points="2439.71,-82.91 2446.96,-75.19 2436.47,-76.7 2439.71,-82.91"/>
</g>
<!-- Node38&#45;&gt;Node22 -->
<g id="edge44" class="edge">
<title>Node38&#45;&gt;Node22</title>
<path fill="none" stroke="midnightblue" d="M2428.29,-242.94C2273.33,-239.6 1830.51,-227.73 1688.5,-199 1615.89,-184.31 1599.35,-172.75 1531.5,-143 1504.37,-131.11 1499.55,-124.08 1472.5,-112 1444.26,-99.39 1411.31,-87.3 1386.93,-78.83"/>
<polygon fill="midnightblue" stroke="midnightblue" points="1387.97,-75.49 1377.38,-75.55 1385.69,-82.11 1387.97,-75.49"/>
</g>
<!-- Node38&#45;&gt;Node23 -->
<g id="edge45" class="edge">
<title>Node38&#45;&gt;Node23</title>
<path fill="none" stroke="midnightblue" d="M2536.83,-236.19C2587.55,-228.42 2665.17,-215.32 2731.5,-199 2736.39,-197.8 3017.94,-109.31 3117.82,-77.9"/>
<polygon fill="midnightblue" stroke="midnightblue" points="3118.96,-81.21 3127.45,-74.88 3116.86,-74.54 3118.96,-81.21"/>
</g>
<!-- Node38&#45;&gt;Node33 -->
<g id="edge46" class="edge">
<title>Node38&#45;&gt;Node33</title>
<path fill="none" stroke="midnightblue" d="M2428.46,-241.62C2369.44,-237.64 2272.88,-227.06 2194.5,-199 2148.36,-182.48 2140.53,-169.8 2099.5,-143 2079.78,-130.12 2078.65,-120.03 2056.5,-112 1944.96,-71.57 1573.47,-67.31 1457.44,-66.98"/>
<polygon fill="midnightblue" stroke="midnightblue" points="1457.34,-63.48 1447.33,-66.96 1457.32,-70.48 1457.34,-63.48"/>
</g>
<!-- Node38&#45;&gt;Node27 -->
<g id="edge47" class="edge">
<title>Node38&#45;&gt;Node27</title>
<path fill="none" stroke="midnightblue" d="M2509.64,-235.39C2562.59,-218.49 2683.26,-179.43 2783.5,-143 2785.4,-142.31 2787.34,-141.59 2789.3,-140.85"/>
<polygon fill="midnightblue" stroke="midnightblue" points="2790.96,-143.96 2799.05,-137.12 2788.46,-137.43 2790.96,-143.96"/>
</g>
<!-- Node38&#45;&gt;Node29 -->
<g id="edge49" class="edge">
<title>Node38&#45;&gt;Node29</title>
<path fill="none" stroke="midnightblue" d="M2466.37,-235.45C2441.59,-222.47 2392.52,-197.36 2349.5,-179 2306.82,-160.79 2293.02,-163.71 2251.5,-143 2228.78,-131.66 2227.11,-121.34 2203.5,-112 2134.45,-84.67 2047.9,-73.79 1997.73,-69.56"/>
<polygon fill="midnightblue" stroke="midnightblue" points="1997.84,-66.06 1987.6,-68.76 1997.29,-73.04 1997.84,-66.06"/>
</g>
<!-- Node39 -->
<g id="node23" class="node">
<title>Node39</title>
<g id="a_node23"><a xlink:href="STLExtras_8h.html" target="_top" xlink:title=" ">
<polygon fill="none" stroke="red" points="1698,-179.5 1698,-198.5 1813,-198.5 1813,-179.5 1698,-179.5"/>
<text text-anchor="middle" x="1755.5" y="-186.5" font-family="Helvetica" font-size="10.00">llvm/ADT/STLExtras.h</text>
</a>
</g>
</g>
<!-- Node38&#45;&gt;Node39 -->
<g id="edge25" class="edge">
<title>Node38&#45;&gt;Node39</title>
<path fill="none" stroke="midnightblue" d="M2428.42,-241.56C2317.12,-236.26 2054.2,-222.37 1823.34,-199.13"/>
<polygon fill="midnightblue" stroke="midnightblue" points="1823.37,-195.61 1813.07,-198.08 1822.66,-202.58 1823.37,-195.61"/>
</g>
<!-- Node39&#45;&gt;Node4 -->
<g id="edge33" class="edge">
<title>Node39&#45;&gt;Node4</title>
<path fill="none" stroke="midnightblue" d="M1697.66,-185.91C1468.28,-177.59 634.46,-147.1 621.5,-143 597.29,-135.34 597.22,-121.06 573.5,-112 504.59,-85.69 420.69,-74.75 361.64,-70.21"/>
<polygon fill="midnightblue" stroke="midnightblue" points="361.88,-66.72 351.65,-69.49 361.37,-73.7 361.88,-66.72"/>
</g>
<!-- Node39&#45;&gt;Node5 -->
<g id="edge41" class="edge">
<title>Node39&#45;&gt;Node5</title>
<path fill="none" stroke="midnightblue" d="M1753.18,-179.46C1745.82,-152.31 1722.83,-67.51 1712.55,-29.62"/>
<polygon fill="midnightblue" stroke="midnightblue" points="1715.9,-28.6 1709.9,-19.87 1709.14,-30.44 1715.9,-28.6"/>
</g>
<!-- Node39&#45;&gt;Node19 -->
<g id="edge34" class="edge">
<title>Node39&#45;&gt;Node19</title>
<path fill="none" stroke="midnightblue" d="M1813.06,-179.9C1815.91,-179.58 1818.74,-179.27 1821.5,-179 2074.97,-153.77 2139.8,-165.8 2393.5,-143 2408.64,-141.64 2424.79,-139.94 2440.27,-138.18"/>
<polygon fill="midnightblue" stroke="midnightblue" points="2440.78,-141.64 2450.32,-137.02 2439.98,-134.69 2440.78,-141.64"/>
</g>
<!-- Node39&#45;&gt;Node22 -->
<g id="edge35" class="edge">
<title>Node39&#45;&gt;Node22</title>
<path fill="none" stroke="midnightblue" d="M1724.33,-179.43C1694.19,-170.93 1647.36,-157.16 1607.5,-143 1573.12,-130.79 1566.17,-123.34 1531.5,-112 1524.7,-109.77 1440.56,-88.94 1389.76,-76.42"/>
<polygon fill="midnightblue" stroke="midnightblue" points="1390.32,-72.95 1379.77,-73.96 1388.65,-79.75 1390.32,-72.95"/>
</g>
<!-- Node39&#45;&gt;Node23 -->
<g id="edge36" class="edge">
<title>Node39&#45;&gt;Node23</title>
<path fill="none" stroke="midnightblue" d="M1813.08,-180.05C1815.93,-179.69 1818.75,-179.34 1821.5,-179 2094.41,-145.53 2162.49,-134.73 2436.5,-112 2716.44,-88.78 2787.53,-98.8 3067.5,-76 3083.84,-74.67 3101.91,-72.81 3117.18,-71.13"/>
<polygon fill="midnightblue" stroke="midnightblue" points="3117.69,-74.59 3127.24,-70 3116.91,-67.64 3117.69,-74.59"/>
</g>
<!-- Node39&#45;&gt;Node33 -->
<g id="edge37" class="edge">
<title>Node39&#45;&gt;Node33</title>
<path fill="none" stroke="midnightblue" d="M1741.32,-179.27C1715.54,-163.74 1658.93,-131.15 1607.5,-112 1556.68,-93.07 1495.01,-79.92 1457.27,-72.92"/>
<polygon fill="midnightblue" stroke="midnightblue" points="1457.76,-69.45 1447.29,-71.11 1456.51,-76.34 1457.76,-69.45"/>
</g>
<!-- Node39&#45;&gt;Node35 -->
<g id="edge39" class="edge">
<title>Node39&#45;&gt;Node35</title>
<path fill="none" stroke="midnightblue" d="M1703.19,-179.47C1609.04,-164.33 1404.72,-132.44 1231.5,-112 1058.79,-91.62 851.18,-75.39 771.19,-69.45"/>
<polygon fill="midnightblue" stroke="midnightblue" points="771.43,-65.96 761.2,-68.71 770.91,-72.94 771.43,-65.96"/>
</g>
<!-- Node39&#45;&gt;Node29 -->
<g id="edge40" class="edge">
<title>Node39&#45;&gt;Node29</title>
<path fill="none" stroke="midnightblue" d="M1769.63,-179.49C1803.86,-158.89 1891.46,-106.15 1933.42,-80.89"/>
<polygon fill="midnightblue" stroke="midnightblue" points="1935.35,-83.82 1942.11,-75.66 1931.74,-77.82 1935.35,-83.82"/>
</g>
<!-- Node39&#45;&gt;Node47 -->
<g id="edge26" class="edge">
<title>Node39&#45;&gt;Node47</title>
<path fill="none" stroke="midnightblue" d="M1697.73,-184.14C1537.17,-173.42 1086.73,-143.34 924.05,-132.48"/>
<polygon fill="midnightblue" stroke="midnightblue" points="923.97,-128.96 913.76,-131.79 923.51,-135.95 923.97,-128.96"/>
</g>
<!-- Node39&#45;&gt;Node26 -->
<g id="edge38" class="edge">
<title>Node39&#45;&gt;Node26</title>
<path fill="none" stroke="midnightblue" d="M1794.04,-179.48C1847.07,-167.75 1941.63,-146.83 1991.54,-135.79"/>
<polygon fill="midnightblue" stroke="midnightblue" points="1992.48,-139.17 2001.49,-133.59 1990.97,-132.33 1992.48,-139.17"/>
</g>
<!-- Node47&#45;&gt;Node4 -->
<g id="edge27" class="edge">
<title>Node47&#45;&gt;Node4</title>
<path fill="none" stroke="midnightblue" d="M815.31,-121.43C714.02,-110.98 481.65,-87.02 361.89,-74.67"/>
<polygon fill="midnightblue" stroke="midnightblue" points="362.02,-71.17 351.71,-73.62 361.3,-78.13 362.02,-71.17"/>
</g>
<!-- Node47&#45;&gt;Node5 -->
<g id="edge32" class="edge">
<title>Node47&#45;&gt;Node5</title>
<path fill="none" stroke="midnightblue" d="M899.38,-117.93C908.5,-115.84 918.34,-113.71 927.5,-112 1217.22,-57.79 1572.93,-23.19 1677.35,-13.67"/>
<polygon fill="midnightblue" stroke="midnightblue" points="1677.84,-17.14 1687.48,-12.76 1677.21,-10.17 1677.84,-17.14"/>
</g>
<!-- Node47&#45;&gt;Node22 -->
<g id="edge28" class="edge">
<title>Node47&#45;&gt;Node22</title>
<path fill="none" stroke="midnightblue" d="M898.03,-117.99C907.51,-115.8 917.87,-113.61 927.5,-112 1068.58,-88.37 1238.27,-74.77 1312.99,-69.53"/>
<polygon fill="midnightblue" stroke="midnightblue" points="1313.57,-72.99 1323.31,-68.81 1313.09,-66.01 1313.57,-72.99"/>
</g>
<!-- Node47&#45;&gt;Node33 -->
<g id="edge29" class="edge">
<title>Node47&#45;&gt;Node33</title>
<path fill="none" stroke="midnightblue" d="M913.7,-121.24C940.28,-118.43 973.68,-114.95 1003.5,-112 1171.27,-95.41 1217.55,-105.68 1387.67,-75.85"/>
<polygon fill="midnightblue" stroke="midnightblue" points="1388.49,-79.26 1397.72,-74.07 1387.27,-72.37 1388.49,-79.26"/>
</g>
<!-- Node47&#45;&gt;Node35 -->
<g id="edge30" class="edge">
<title>Node47&#45;&gt;Node35</title>
<path fill="none" stroke="midnightblue" d="M846.3,-117.98C824.99,-107.99 789.47,-91.35 764.84,-79.81"/>
<polygon fill="midnightblue" stroke="midnightblue" points="766.2,-76.58 755.66,-75.51 763.23,-82.92 766.2,-76.58"/>
</g>
<!-- Node47&#45;&gt;Node29 -->
<g id="edge31" class="edge">
<title>Node47&#45;&gt;Node29</title>
<path fill="none" stroke="midnightblue" d="M913.9,-123.54C963.95,-120.55 1043.6,-115.85 1112.5,-112 1421.06,-94.75 1793.17,-75.43 1915.41,-69.12"/>
<polygon fill="midnightblue" stroke="midnightblue" points="1915.65,-72.61 1925.46,-68.6 1915.29,-65.62 1915.65,-72.61"/>
</g>
<!-- Node50&#45;&gt;Node23 -->
<g id="edge68" class="edge">
<title>Node50&#45;&gt;Node23</title>
<path fill="none" stroke="midnightblue" d="M1089.2,-299.92C1300.32,-299.35 2252.69,-294.6 2545.5,-255 2649.76,-240.9 2673.7,-225.57 2775.5,-199 2865.23,-175.58 2890.07,-176.62 2976.5,-143 3004.84,-131.98 3009.75,-124.44 3037.5,-112 3064.42,-99.93 3095.64,-87.83 3118.75,-79.22"/>
<polygon fill="midnightblue" stroke="midnightblue" points="3120.27,-82.39 3128.43,-75.64 3117.84,-75.82 3120.27,-82.39"/>
</g>
<!-- Node50&#45;&gt;Node33 -->
<g id="edge69" class="edge">
<title>Node50&#45;&gt;Node33</title>
<path fill="none" stroke="midnightblue" d="M1055.01,-291.28C1073.98,-269.72 1126.08,-213.18 1179.5,-179 1214.4,-156.67 1228.84,-162.32 1265.5,-143 1287.97,-131.16 1291,-123.78 1313.5,-112 1337.88,-99.23 1366.7,-87.47 1388.59,-79.17"/>
<polygon fill="midnightblue" stroke="midnightblue" points="1389.97,-82.39 1398.11,-75.61 1387.52,-75.83 1389.97,-82.39"/>
</g>
<!-- Node50&#45;&gt;Node35 -->
<g id="edge70" class="edge">
<title>Node50&#45;&gt;Node35</title>
<path fill="none" stroke="midnightblue" d="M1005.84,-295.6C941.72,-288.58 815.08,-273.7 708.5,-255 651.14,-244.94 504.6,-225.02 452.5,-199 418.39,-181.96 403.39,-177.66 387.5,-143 381.76,-130.48 378.4,-122.34 387.5,-112 408.24,-88.43 620.17,-73.75 703.81,-68.84"/>
<polygon fill="midnightblue" stroke="midnightblue" points="704.03,-72.33 713.81,-68.26 703.63,-65.35 704.03,-72.33"/>
</g>
<!-- Node51 -->
<g id="node27" class="node">
<title>Node51</title>
<g id="a_node27"><a xlink:href="simple__ilist_8h.html" target="_top" xlink:title=" ">
<polygon fill="none" stroke="red" points="902.5,-235.5 902.5,-254.5 1018.5,-254.5 1018.5,-235.5 902.5,-235.5"/>
<text text-anchor="middle" x="960.5" y="-242.5" font-family="Helvetica" font-size="10.00">llvm/ADT/simple_ilist.h</text>
</a>
</g>
</g>
<!-- Node50&#45;&gt;Node51 -->
<g id="edge56" class="edge">
<title>Node50&#45;&gt;Node51</title>
<path fill="none" stroke="midnightblue" d="M1033.52,-291.32C1019.95,-282.9 999.12,-269.97 983.18,-260.07"/>
<polygon fill="midnightblue" stroke="midnightblue" points="984.79,-256.95 974.44,-254.65 981.09,-262.9 984.79,-256.95"/>
</g>
<!-- Node51&#45;&gt;Node5 -->
<g id="edge67" class="edge">
<title>Node51&#45;&gt;Node5</title>
<path fill="none" stroke="midnightblue" d="M931.78,-235.36C906.22,-227.25 868.1,-214.13 836.5,-199 821.03,-191.59 818.68,-186.98 803.5,-179 768.99,-160.86 748.98,-172.51 723.5,-143 697.64,-113.04 677.15,-84.61 704.5,-56 738.94,-19.98 1512.63,-12.4 1676.98,-11.2"/>
<polygon fill="midnightblue" stroke="midnightblue" points="1677.36,-14.69 1687.33,-11.12 1677.31,-7.69 1677.36,-14.69"/>
</g>
<!-- Node51&#45;&gt;Node16 -->
<g id="edge62" class="edge">
<title>Node51&#45;&gt;Node16</title>
<path fill="none" stroke="midnightblue" d="M1018.78,-243.58C1247.75,-241.73 2085.95,-232.72 2349.5,-199 2461.58,-184.66 2492.74,-185.35 2597.5,-143 2622.09,-133.06 2623.47,-120.78 2648.5,-112 2740.81,-79.64 2854.19,-70.15 2926.16,-67.59"/>
<polygon fill="midnightblue" stroke="midnightblue" points="2926.59,-71.08 2936.47,-67.26 2926.36,-64.08 2926.59,-71.08"/>
</g>
<!-- Node51&#45;&gt;Node22 -->
<g id="edge63" class="edge">
<title>Node51&#45;&gt;Node22</title>
<path fill="none" stroke="midnightblue" d="M955.99,-235.29C949.84,-222.11 940.76,-196.74 951.5,-179 984.75,-124.07 1018.61,-132.39 1079.5,-112 1160.13,-85 1259.85,-73.8 1313.32,-69.48"/>
<polygon fill="midnightblue" stroke="midnightblue" points="1313.68,-72.96 1323.38,-68.7 1313.14,-65.98 1313.68,-72.96"/>
</g>
<!-- Node51&#45;&gt;Node23 -->
<g id="edge64" class="edge">
<title>Node51&#45;&gt;Node23</title>
<path fill="none" stroke="midnightblue" d="M1018.52,-243.44C1255.46,-240.98 2150.37,-229.79 2431.5,-199 2564.16,-184.47 2600.06,-185.69 2726.5,-143 2755.69,-133.14 2759.01,-120.91 2788.5,-112 2804.15,-107.27 3029.01,-81.16 3117.29,-71.03"/>
<polygon fill="midnightblue" stroke="midnightblue" points="3117.82,-74.49 3127.36,-69.87 3117.03,-67.53 3117.82,-74.49"/>
</g>
<!-- Node51&#45;&gt;Node33 -->
<g id="edge65" class="edge">
<title>Node51&#45;&gt;Node33</title>
<path fill="none" stroke="midnightblue" d="M963.83,-235.4C969.41,-221.89 981.83,-195.55 999.5,-179 1025.03,-155.08 1039.67,-161.28 1069.5,-143 1089.59,-130.69 1090.6,-120.68 1112.5,-112 1224.48,-67.64 1264.98,-98.17 1387.56,-75.89"/>
<polygon fill="midnightblue" stroke="midnightblue" points="1388.53,-79.27 1397.7,-73.96 1387.23,-72.39 1388.53,-79.27"/>
</g>
<!-- Node51&#45;&gt;Node35 -->
<g id="edge66" class="edge">
<title>Node51&#45;&gt;Node35</title>
<path fill="none" stroke="midnightblue" d="M945.57,-235.29C922.6,-222.11 877.02,-196.74 836.5,-179 792.84,-159.89 762.96,-181.95 735.5,-143 723.77,-126.36 726.9,-102.19 731.24,-85.6"/>
<polygon fill="midnightblue" stroke="midnightblue" points="734.61,-86.53 734.12,-75.95 727.91,-84.52 734.61,-86.53"/>
</g>
<!-- Node51&#45;&gt;Node57 -->
<g id="edge57" class="edge">
<title>Node51&#45;&gt;Node57</title>
<path fill="none" stroke="midnightblue" d="M925.48,-235.44C887.25,-226.1 825.93,-211.12 784.24,-200.93"/>
<polygon fill="midnightblue" stroke="midnightblue" points="784.9,-197.49 774.35,-198.52 783.24,-204.29 784.9,-197.49"/>
</g>
<!-- Node58 -->
<g id="node30" class="node">
<title>Node58</title>
<g id="a_node30"><a xlink:href="ilist__node__options_8h.html" target="_top" xlink:title=" ">
<polygon fill="none" stroke="red" points="1122,-112.5 1122,-142.5 1223,-142.5 1223,-112.5 1122,-112.5"/>
<text text-anchor="start" x="1130" y="-130.5" font-family="Helvetica" font-size="10.00">llvm/ADT/ilist_node</text>
<text text-anchor="middle" x="1172.5" y="-119.5" font-family="Helvetica" font-size="10.00">_options.h</text>
</a>
</g>
</g>
<!-- Node51&#45;&gt;Node58 -->
<g id="edge61" class="edge">
<title>Node51&#45;&gt;Node58</title>
<path fill="none" stroke="midnightblue" d="M967.4,-235.18C978.61,-221.38 1002.12,-194.65 1027.5,-179 1053.36,-163.05 1084.95,-151.29 1112.03,-143.15"/>
<polygon fill="midnightblue" stroke="midnightblue" points="1113.15,-146.47 1121.78,-140.32 1111.2,-139.75 1113.15,-146.47"/>
</g>
<!-- Node53 -->
<g id="node29" class="node">
<title>Node53</title>
<g id="a_node29"><a xlink:href="ilist__node__base_8h.html" target="_top" xlink:title=" ">
<polygon fill="none" stroke="red" points="430,-112.5 430,-142.5 531,-142.5 531,-112.5 430,-112.5"/>
<text text-anchor="start" x="438" y="-130.5" font-family="Helvetica" font-size="10.00">llvm/ADT/ilist_node</text>
<text text-anchor="middle" x="480.5" y="-119.5" font-family="Helvetica" font-size="10.00">_base.h</text>
</a>
</g>
</g>
<!-- Node57&#45;&gt;Node53 -->
<g id="edge58" class="edge">
<title>Node57&#45;&gt;Node53</title>
<path fill="none" stroke="midnightblue" d="M702.39,-179.48C660.39,-169.83 591.32,-153.96 541.39,-142.49"/>
<polygon fill="midnightblue" stroke="midnightblue" points="541.88,-139.01 531.35,-140.18 540.32,-145.83 541.88,-139.01"/>
</g>
<!-- Node57&#45;&gt;Node58 -->
<g id="edge59" class="edge">
<title>Node57&#45;&gt;Node58</title>
<path fill="none" stroke="midnightblue" d="M794.69,-180.55C860.23,-171.68 972.85,-156.39 1069.5,-143 1083.25,-141.1 1098.02,-139.03 1111.97,-137.07"/>
<polygon fill="midnightblue" stroke="midnightblue" points="1112.54,-140.52 1121.95,-135.66 1111.56,-133.59 1112.54,-140.52"/>
</g>
<!-- Node58&#45;&gt;Node29 -->
<g id="edge60" class="edge">
<title>Node58&#45;&gt;Node29</title>
<path fill="none" stroke="midnightblue" d="M1223.04,-122.66C1367.94,-111.67 1782.96,-80.17 1915.37,-70.12"/>
<polygon fill="midnightblue" stroke="midnightblue" points="1915.79,-73.6 1925.5,-69.35 1915.26,-66.62 1915.79,-73.6"/>
</g>
<!-- Node59&#45;&gt;Node5 -->
<g id="edge140" class="edge">
<title>Node59&#45;&gt;Node5</title>
<path fill="none" stroke="midnightblue" d="M2212.25,-411.64C2435.38,-409.92 3302.55,-401.11 3573.5,-367 3865.04,-330.3 4210.5,-483.84 4210.5,-190 4210.5,-190 4210.5,-190 4210.5,-126.5 4210.5,-48.38 4125.8,-72.74 4049.5,-56 3813.32,-4.18 1994.57,-9.81 1737.64,-10.86"/>
<polygon fill="midnightblue" stroke="midnightblue" points="1737.53,-7.37 1727.54,-10.91 1737.56,-14.37 1737.53,-7.37"/>
</g>
<!-- Node59&#45;&gt;Node22 -->
<g id="edge137" class="edge">
<title>Node59&#45;&gt;Node22</title>
<path fill="none" stroke="midnightblue" d="M2106.88,-412.08C1881.29,-412.16 1002.08,-409.7 886.5,-367 774.06,-325.46 727.55,-306.98 675.5,-199 645.81,-137.42 721.07,-208.47 922.5,-143 950.67,-133.84 953.22,-120.82 981.5,-112 1042.76,-92.89 1231.2,-76.38 1312.97,-69.91"/>
<polygon fill="midnightblue" stroke="midnightblue" points="1313.63,-73.37 1323.32,-69.1 1313.08,-66.39 1313.63,-73.37"/>
</g>
<!-- Node59&#45;&gt;Node23 -->
<g id="edge138" class="edge">
<title>Node59&#45;&gt;Node23</title>
<path fill="none" stroke="midnightblue" d="M2212.07,-410.75C2347.69,-407.21 2720.38,-395.46 3029.5,-367 3076.6,-362.66 3840.18,-288.57 3873.5,-255 3919.67,-208.48 3893.95,-145.3 3837.5,-112 3781.34,-78.87 3320.59,-69.5 3188.05,-67.48"/>
<polygon fill="midnightblue" stroke="midnightblue" points="3187.71,-63.97 3177.66,-67.32 3187.61,-70.97 3187.71,-63.97"/>
</g>
<!-- Node59&#45;&gt;Node38 -->
<g id="edge92" class="edge">
<title>Node59&#45;&gt;Node38</title>
<path fill="none" stroke="midnightblue" d="M2176.41,-403.31C2229.5,-376.02 2393.1,-291.95 2456.77,-259.22"/>
<polygon fill="midnightblue" stroke="midnightblue" points="2458.46,-262.29 2465.76,-254.61 2455.26,-256.06 2458.46,-262.29"/>
</g>
<!-- Node59&#45;&gt;Node26 -->
<g id="edge139" class="edge">
<title>Node59&#45;&gt;Node26</title>
<path fill="none" stroke="midnightblue" d="M2145.77,-403.19C2134.11,-395.07 2117.69,-382.02 2107.5,-367 2058.12,-294.22 2035.16,-189.05 2027.54,-146.94"/>
<polygon fill="midnightblue" stroke="midnightblue" points="2030.98,-146.28 2025.82,-137.03 2024.08,-147.48 2030.98,-146.28"/>
</g>
<!-- Node59&#45;&gt;Node57 -->
<g id="edge93" class="edge">
<title>Node59&#45;&gt;Node57</title>
<path fill="none" stroke="midnightblue" d="M2106.79,-411.31C1877.06,-408.14 972.3,-394.01 918.5,-367 851.26,-333.24 868.9,-284.8 812.5,-235 798.4,-222.55 780.44,-211.43 765.86,-203.36"/>
<polygon fill="midnightblue" stroke="midnightblue" points="767.31,-200.16 756.85,-198.51 764,-206.33 767.31,-200.16"/>
</g>
<!-- Node60 -->
<g id="node32" class="node">
<title>Node60</title>
<g id="a_node32"><a xlink:href="ArrayRef_8h.html" target="_top" xlink:title=" ">
<polygon fill="none" stroke="red" points="1616.5,-235.5 1616.5,-254.5 1722.5,-254.5 1722.5,-235.5 1616.5,-235.5"/>
<text text-anchor="middle" x="1669.5" y="-242.5" font-family="Helvetica" font-size="10.00">llvm/ADT/ArrayRef.h</text>
</a>
</g>
</g>
<!-- Node59&#45;&gt;Node60 -->
<g id="edge75" class="edge">
<title>Node59&#45;&gt;Node60</title>
<path fill="none" stroke="midnightblue" d="M2113.72,-403.45C2074.26,-395.57 2016.01,-382.75 1966.5,-367 1864.57,-334.58 1748.36,-282.67 1696.71,-258.79"/>
<polygon fill="midnightblue" stroke="midnightblue" points="1698.09,-255.57 1687.55,-254.53 1695.14,-261.92 1698.09,-255.57"/>
</g>
<!-- Node46 -->
<g id="node33" class="node">
<title>Node46</title>
<g id="a_node33"><a xlink:href="None_8h.html" target="_top" xlink:title=" ">
<polygon fill="none" stroke="black" points="1359.5,-179.5 1359.5,-198.5 1451.5,-198.5 1451.5,-179.5 1359.5,-179.5"/>
<text text-anchor="middle" x="1405.5" y="-186.5" font-family="Helvetica" font-size="10.00">llvm/ADT/None.h</text>
</a>
</g>
</g>
<!-- Node59&#45;&gt;Node46 -->
<g id="edge91" class="edge">
<title>Node59&#45;&gt;Node46</title>
<path fill="none" stroke="midnightblue" d="M2106.78,-405.01C2055.81,-397.67 1976.66,-384.72 1909.5,-367 1725.85,-318.55 1513.47,-234.34 1435.87,-202.59"/>
<polygon fill="midnightblue" stroke="midnightblue" points="1436.83,-199.2 1426.25,-198.64 1434.17,-205.68 1436.83,-199.2"/>
</g>
<!-- Node62 -->
<g id="node34" class="node">
<title>Node62</title>
<g id="a_node34"><a xlink:href="Bitfields_8h.html" target="_top" xlink:title="This file implements methods to test, set and extract typed bits from packed unsigned integers.">
<polygon fill="none" stroke="red" points="2236.5,-179.5 2236.5,-198.5 2340.5,-198.5 2340.5,-179.5 2236.5,-179.5"/>
<text text-anchor="middle" x="2288.5" y="-186.5" font-family="Helvetica" font-size="10.00">llvm/ADT/Bitfields.h</text>
</a>
</g>
</g>
<!-- Node59&#45;&gt;Node62 -->
<g id="edge86" class="edge">
<title>Node59&#45;&gt;Node62</title>
<path fill="none" stroke="midnightblue" d="M2145.93,-403.43C2129.04,-391.61 2103.58,-369.22 2113.5,-347 2144.37,-277.84 2222.42,-226.46 2263.05,-203.41"/>
<polygon fill="midnightblue" stroke="midnightblue" points="2264.77,-206.46 2271.82,-198.55 2261.37,-200.34 2264.77,-206.46"/>
</g>
<!-- Node63 -->
<g id="node35" class="node">
<title>Node63</title>
<g id="a_node35"><a xlink:href="DebugLoc_8h.html" target="_top" xlink:title=" ">
<polygon fill="none" stroke="red" points="3460.5,-347.5 3460.5,-366.5 3564.5,-366.5 3564.5,-347.5 3460.5,-347.5"/>
<text text-anchor="middle" x="3512.5" y="-354.5" font-family="Helvetica" font-size="10.00">llvm/IR/DebugLoc.h</text>
</a>
</g>
</g>
<!-- Node59&#45;&gt;Node63 -->
<g id="edge94" class="edge">
<title>Node59&#45;&gt;Node63</title>
<path fill="none" stroke="midnightblue" d="M2212.12,-409.9C2424.77,-401.41 3220.12,-369.67 3449.94,-360.5"/>
<polygon fill="midnightblue" stroke="midnightblue" points="3450.28,-363.99 3460.14,-360.09 3450,-356.99 3450.28,-363.99"/>
</g>
<!-- Node59&#45;&gt;Node89 -->
<g id="edge97" class="edge">
<title>Node59&#45;&gt;Node89</title>
<path fill="none" stroke="midnightblue" d="M2106.92,-409.54C1924.96,-401.03 1320.84,-372.76 1093.25,-362.11"/>
<polygon fill="midnightblue" stroke="midnightblue" points="1093.18,-358.6 1083.03,-361.63 1092.86,-365.59 1093.18,-358.6"/>
</g>
<!-- Node78 -->
<g id="node38" class="node">
<title>Node78</title>
<g id="a_node38"><a xlink:href="User_8h.html" target="_top" xlink:title=" ">
<polygon fill="none" stroke="black" points="2449.5,-347.5 2449.5,-366.5 2529.5,-366.5 2529.5,-347.5 2449.5,-347.5"/>
<text text-anchor="middle" x="2489.5" y="-354.5" font-family="Helvetica" font-size="10.00">llvm/IR/User.h</text>
</a>
</g>
</g>
<!-- Node59&#45;&gt;Node78 -->
<g id="edge101" class="edge">
<title>Node59&#45;&gt;Node78</title>
<path fill="none" stroke="midnightblue" d="M2211.79,-403.44C2274.15,-393.24 2377.67,-376.3 2439.16,-366.24"/>
<polygon fill="midnightblue" stroke="midnightblue" points="2440.09,-369.63 2449.39,-364.56 2438.96,-362.72 2440.09,-369.63"/>
</g>
<!-- Node59&#45;&gt;Node81 -->
<g id="edge136" class="edge">
<title>Node59&#45;&gt;Node81</title>
<path fill="none" stroke="midnightblue" d="M2212.27,-410.11C2417.64,-402.33 3156.36,-370.42 3241.5,-311 3294.81,-273.8 3258.96,-225.39 3304.5,-179 3321.81,-161.37 3346.56,-148.86 3367.22,-140.7"/>
<polygon fill="midnightblue" stroke="midnightblue" points="3368.56,-143.94 3376.69,-137.15 3366.1,-137.38 3368.56,-143.94"/>
</g>
<!-- Node59&#45;&gt;Node82 -->
<g id="edge133" class="edge">
<title>Node59&#45;&gt;Node82</title>
<path fill="none" stroke="midnightblue" d="M2212.29,-406.22C2285.57,-398.09 2422.25,-382.52 2538.5,-367 2678.43,-348.31 2843,-322.99 2924.85,-310.16"/>
<polygon fill="midnightblue" stroke="midnightblue" points="2925.55,-313.6 2934.89,-308.59 2924.46,-306.68 2925.55,-313.6"/>
</g>
<!-- Node90 -->
<g id="node44" class="node">
<title>Node90</title>
<g id="a_node44"><a xlink:href="AtomicOrdering_8h.html" target="_top" xlink:title="Atomic ordering constants.">
<polygon fill="none" stroke="black" points="1272,-347.5 1272,-366.5 1423,-366.5 1423,-347.5 1272,-347.5"/>
<text text-anchor="middle" x="1347.5" y="-354.5" font-family="Helvetica" font-size="10.00">llvm/Support/AtomicOrdering.h</text>
</a>
</g>
</g>
<!-- Node59&#45;&gt;Node90 -->
<g id="edge134" class="edge">
<title>Node59&#45;&gt;Node90</title>
<path fill="none" stroke="midnightblue" d="M2106.91,-409.4C1987.71,-403.35 1687.86,-387.31 1437.5,-367 1436.18,-366.89 1434.85,-366.78 1433.51,-366.67"/>
<polygon fill="midnightblue" stroke="midnightblue" points="1433.37,-363.15 1423.1,-365.77 1432.76,-370.12 1433.37,-363.15"/>
</g>
<!-- Node91 -->
<g id="node45" class="node">
<title>Node91</title>
<g id="a_node45"><a xlink:title=" ">
<polygon fill="none" stroke="#bfbfbf" points="2123,-347.5 2123,-366.5 2236,-366.5 2236,-347.5 2123,-347.5"/>
<text text-anchor="middle" x="2179.5" y="-354.5" font-family="Helvetica" font-size="10.00">llvm/IR/Instruction.def</text>
</a>
</g>
</g>
<!-- Node59&#45;&gt;Node91 -->
<g id="edge141" class="edge">
<title>Node59&#45;&gt;Node91</title>
<path fill="none" stroke="midnightblue" d="M2162.8,-403.08C2165.48,-395.85 2169.35,-385.41 2172.69,-376.4"/>
<polygon fill="midnightblue" stroke="midnightblue" points="2176.07,-377.34 2176.26,-366.75 2169.5,-374.91 2176.07,-377.34"/>
</g>
<!-- Node60&#45;&gt;Node6 -->
<g id="edge85" class="edge">
<title>Node60&#45;&gt;Node6</title>
<path fill="none" stroke="midnightblue" d="M1616.36,-236.6C1534.58,-225.22 1380.32,-203.75 1313.6,-194.47"/>
<polygon fill="midnightblue" stroke="midnightblue" points="1313.68,-190.95 1303.3,-193.03 1312.72,-197.88 1313.68,-190.95"/>
</g>
<!-- Node60&#45;&gt;Node15 -->
<g id="edge77" class="edge">
<title>Node60&#45;&gt;Node15</title>
<path fill="none" stroke="midnightblue" d="M1704.68,-235.44C1743.08,-226.1 1804.68,-211.12 1846.56,-200.93"/>
<polygon fill="midnightblue" stroke="midnightblue" points="1847.6,-204.28 1856.49,-198.52 1845.94,-197.48 1847.6,-204.28"/>
</g>
<!-- Node60&#45;&gt;Node16 -->
<g id="edge79" class="edge">
<title>Node60&#45;&gt;Node16</title>
<path fill="none" stroke="midnightblue" d="M1722.54,-243.34C1841.3,-241.27 2137.38,-232.85 2382.5,-199 2386.07,-198.51 2802.26,-109 2947.88,-77.68"/>
<polygon fill="midnightblue" stroke="midnightblue" points="2948.85,-81.05 2957.89,-75.52 2947.37,-74.2 2948.85,-81.05"/>
</g>
<!-- Node60&#45;&gt;Node22 -->
<g id="edge80" class="edge">
<title>Node60&#45;&gt;Node22</title>
<path fill="none" stroke="midnightblue" d="M1652.6,-235.38C1635.19,-226.45 1607.31,-212 1583.5,-199 1506.52,-156.98 1416.56,-104.94 1374.89,-80.67"/>
<polygon fill="midnightblue" stroke="midnightblue" points="1376.46,-77.53 1366.06,-75.52 1372.93,-83.58 1376.46,-77.53"/>
</g>
<!-- Node60&#45;&gt;Node23 -->
<g id="edge81" class="edge">
<title>Node60&#45;&gt;Node23</title>
<path fill="none" stroke="midnightblue" d="M1722.53,-242.12C1923.12,-234.6 2635.08,-204.08 2852.5,-143 2885.65,-133.69 2890.63,-122.27 2923.5,-112 2990.59,-91.04 3071.92,-77.82 3117.38,-71.48"/>
<polygon fill="midnightblue" stroke="midnightblue" points="3117.89,-74.94 3127.32,-70.12 3116.94,-68 3117.89,-74.94"/>
</g>
<!-- Node60&#45;&gt;Node33 -->
<g id="edge82" class="edge">
<title>Node60&#45;&gt;Node33</title>
<path fill="none" stroke="midnightblue" d="M1658.6,-235.35C1631.31,-213.8 1557.62,-156.26 1493.5,-112 1477.74,-101.12 1459.47,-89.57 1445.42,-80.89"/>
<polygon fill="midnightblue" stroke="midnightblue" points="1447.21,-77.89 1436.86,-75.64 1443.55,-83.85 1447.21,-77.89"/>
</g>
<!-- Node60&#45;&gt;Node35 -->
<g id="edge83" class="edge">
<title>Node60&#45;&gt;Node35</title>
<path fill="none" stroke="midnightblue" d="M1648.27,-235.48C1610.99,-220.94 1530.99,-191.7 1460.5,-179 1317.25,-153.19 937.92,-205.56 806.5,-143 780.16,-130.46 759.29,-102.89 747.67,-84.63"/>
<polygon fill="midnightblue" stroke="midnightblue" points="750.37,-82.33 742.19,-75.6 744.39,-85.96 750.37,-82.33"/>
</g>
<!-- Node60&#45;&gt;Node29 -->
<g id="edge84" class="edge">
<title>Node60&#45;&gt;Node29</title>
<path fill="none" stroke="midnightblue" d="M1669.84,-235.38C1670.8,-221.85 1674.49,-195.48 1688.5,-179 1747.19,-109.95 1855.55,-82.65 1914.92,-72.51"/>
<polygon fill="midnightblue" stroke="midnightblue" points="1915.75,-75.92 1925.06,-70.87 1914.63,-69.01 1915.75,-75.92"/>
</g>
<!-- Node60&#45;&gt;Node39 -->
<g id="edge78" class="edge">
<title>Node60&#45;&gt;Node39</title>
<path fill="none" stroke="midnightblue" d="M1683.32,-235.32C1696.73,-226.9 1717.32,-213.97 1733.09,-204.07"/>
<polygon fill="midnightblue" stroke="midnightblue" points="1735.11,-206.94 1741.72,-198.65 1731.39,-201.01 1735.11,-206.94"/>
</g>
<!-- Node60&#45;&gt;Node46 -->
<g id="edge76" class="edge">
<title>Node60&#45;&gt;Node46</title>
<path fill="none" stroke="midnightblue" d="M1627.67,-235.44C1581.42,-225.98 1506.89,-210.74 1457.06,-200.55"/>
<polygon fill="midnightblue" stroke="midnightblue" points="1457.63,-197.09 1447.14,-198.52 1456.23,-203.95 1457.63,-197.09"/>
</g>
<!-- Node62&#45;&gt;Node23 -->
<g id="edge87" class="edge">
<title>Node62&#45;&gt;Node23</title>
<path fill="none" stroke="midnightblue" d="M2340.61,-185.62C2414.6,-181.38 2553.95,-170.27 2669.5,-143 2709.04,-133.67 2715.93,-121.24 2755.5,-112 2773.04,-107.9 3023.55,-80.82 3117.37,-70.76"/>
<polygon fill="midnightblue" stroke="midnightblue" points="3117.93,-74.22 3127.5,-69.67 3117.18,-67.26 3117.93,-74.22"/>
</g>
<!-- Node62&#45;&gt;Node33 -->
<g id="edge88" class="edge">
<title>Node62&#45;&gt;Node33</title>
<path fill="none" stroke="midnightblue" d="M2256.39,-179.47C2230.79,-171.92 2194.55,-159.54 2165.5,-143 2146.56,-132.22 2147.79,-119.96 2127.5,-112 2064.77,-87.38 1590.05,-71.86 1457.05,-67.97"/>
<polygon fill="midnightblue" stroke="midnightblue" points="1457.1,-64.47 1447.01,-67.68 1456.9,-71.47 1457.1,-64.47"/>
</g>
<!-- Node62&#45;&gt;Node29 -->
<g id="edge90" class="edge">
<title>Node62&#45;&gt;Node29</title>
<path fill="none" stroke="midnightblue" d="M2273.75,-179.35C2258.57,-170.39 2234.25,-155.92 2213.5,-143 2191.94,-129.58 2188.96,-121.72 2165.5,-112 2109.9,-88.97 2040.9,-77.06 1997.77,-71.42"/>
<polygon fill="midnightblue" stroke="midnightblue" points="1998.01,-67.93 1987.65,-70.15 1997.14,-74.87 1998.01,-67.93"/>
</g>
<!-- Node62&#45;&gt;Node26 -->
<g id="edge89" class="edge">
<title>Node62&#45;&gt;Node26</title>
<path fill="none" stroke="midnightblue" d="M2250.68,-179.48C2198.9,-167.81 2106.78,-147.04 2057.6,-135.96"/>
<polygon fill="midnightblue" stroke="midnightblue" points="2058.31,-132.53 2047.79,-133.75 2056.77,-139.36 2058.31,-132.53"/>
</g>
<!-- Node42 -->
<g id="node36" class="node">
<title>Node42</title>
<g id="a_node36"><a xlink:href="llvm_2Support_2DataTypes_8h.html" target="_top" xlink:title=" ">
<polygon fill="none" stroke="black" points="3938.5,-235.5 3938.5,-254.5 4068.5,-254.5 4068.5,-235.5 3938.5,-235.5"/>
<text text-anchor="middle" x="4003.5" y="-242.5" font-family="Helvetica" font-size="10.00">llvm/Support/DataTypes.h</text>
</a>
</g>
</g>
<!-- Node63&#45;&gt;Node42 -->
<g id="edge95" class="edge">
<title>Node63&#45;&gt;Node42</title>
<path fill="none" stroke="midnightblue" d="M3550.62,-347.46C3639.08,-327.64 3858.17,-278.56 3955.54,-256.75"/>
<polygon fill="midnightblue" stroke="midnightblue" points="3956.41,-260.14 3965.4,-254.53 3954.88,-253.31 3956.41,-260.14"/>
</g>
<!-- Node42&#45;&gt;Node9 -->
<g id="edge96" class="edge">
<title>Node42&#45;&gt;Node9</title>
<path fill="none" stroke="midnightblue" d="M4002.87,-235.46C4000.89,-208.43 3994.7,-124.24 3991.9,-86.11"/>
<polygon fill="midnightblue" stroke="midnightblue" points="3995.37,-85.59 3991.15,-75.87 3988.39,-86.1 3995.37,-85.59"/>
</g>
<!-- Node89&#45;&gt;Node33 -->
<g id="edge100" class="edge">
<title>Node89&#45;&gt;Node33</title>
<path fill="none" stroke="midnightblue" d="M1001.33,-347.48C995.63,-334.54 987.12,-309.49 996.5,-291 1015.56,-253.42 1112.99,-200.04 1149.5,-179 1183.99,-159.13 1198.13,-164.7 1231.5,-143 1248.64,-131.85 1247.65,-121.97 1265.5,-112 1270.95,-108.95 1343.33,-88.77 1387.89,-76.49"/>
<polygon fill="midnightblue" stroke="midnightblue" points="1389.03,-79.8 1397.75,-73.78 1387.18,-73.06 1389.03,-79.8"/>
</g>
<!-- Node89&#45;&gt;Node50 -->
<g id="edge98" class="edge">
<title>Node89&#45;&gt;Node50</title>
<path fill="none" stroke="midnightblue" d="M1012.44,-347.08C1018.43,-339.38 1027.25,-328.03 1034.55,-318.65"/>
<polygon fill="midnightblue" stroke="midnightblue" points="1037.32,-320.79 1040.69,-310.75 1031.79,-316.5 1037.32,-320.79"/>
</g>
<!-- Node89&#45;&gt;Node51 -->
<g id="edge99" class="edge">
<title>Node89&#45;&gt;Node51</title>
<path fill="none" stroke="midnightblue" d="M993.85,-347.48C983.79,-339.37 969.89,-326.17 963.5,-311 957.34,-296.36 957.04,-278.19 958.02,-264.79"/>
<polygon fill="midnightblue" stroke="midnightblue" points="961.5,-265.14 959.05,-254.83 954.54,-264.42 961.5,-265.14"/>
</g>
<!-- Node78&#45;&gt;Node4 -->
<g id="edge103" class="edge">
<title>Node78&#45;&gt;Node4</title>
<path fill="none" stroke="midnightblue" d="M2449.18,-354.42C2400.63,-352.54 2316.61,-349.36 2244.5,-347 1689.9,-328.81 1549.5,-356.79 996.5,-311 814.09,-295.89 767.07,-295.2 588.5,-255 508,-236.88 482.21,-241.53 411.5,-199 381.07,-180.7 378.92,-168.78 354.5,-143 335.51,-122.96 314.63,-98.93 301.3,-83.33"/>
<polygon fill="midnightblue" stroke="midnightblue" points="303.89,-80.96 294.74,-75.61 298.55,-85.5 303.89,-80.96"/>
</g>
<!-- Node78&#45;&gt;Node16 -->
<g id="edge127" class="edge">
<title>Node78&#45;&gt;Node16</title>
<path fill="none" stroke="midnightblue" d="M2529.9,-355.98C2670.63,-355.54 3133.54,-351.06 3185.5,-311 3221.88,-282.95 3270.89,-147.31 3241.5,-112 3230.41,-98.68 3136.78,-84.31 3068.8,-75.49"/>
<polygon fill="midnightblue" stroke="midnightblue" points="3068.91,-71.97 3058.55,-74.17 3068.02,-78.92 3068.91,-71.97"/>
</g>
<!-- Node78&#45;&gt;Node19 -->
<g id="edge128" class="edge">
<title>Node78&#45;&gt;Node19</title>
<path fill="none" stroke="midnightblue" d="M2529.9,-347.81C2581.35,-337.15 2665.1,-318.94 2677.5,-311 2726.15,-279.83 2732.75,-255.77 2743.5,-199 2745.15,-190.27 2749.06,-185.94 2743.5,-179 2725.42,-156.43 2656.29,-143.28 2599.19,-136.09"/>
<polygon fill="midnightblue" stroke="midnightblue" points="2599.4,-132.59 2589.05,-134.86 2598.56,-139.54 2599.4,-132.59"/>
</g>
<!-- Node78&#45;&gt;Node23 -->
<g id="edge129" class="edge">
<title>Node78&#45;&gt;Node23</title>
<path fill="none" stroke="midnightblue" d="M2529.78,-355.29C2650.92,-352.83 3022.39,-343.04 3328.5,-311 3385.77,-305.01 3399.35,-298.05 3456.5,-291 3500.46,-285.58 3823.63,-287.7 3853.5,-255 3871.74,-235.03 3892.28,-175.77 3805.5,-112 3755.57,-75.3 3316.68,-68.47 3187.88,-67.25"/>
<polygon fill="midnightblue" stroke="midnightblue" points="3187.8,-63.75 3177.77,-67.16 3187.74,-70.75 3187.8,-63.75"/>
</g>
<!-- Node78&#45;&gt;Node33 -->
<g id="edge130" class="edge">
<title>Node78&#45;&gt;Node33</title>
<path fill="none" stroke="midnightblue" d="M2449.48,-353.67C2255.69,-342 1421.29,-286.88 1350.5,-199 1319.58,-160.61 1397.06,-174.77 1417.5,-143 1428.43,-126.01 1428.1,-102.24 1426.05,-85.83"/>
<polygon fill="midnightblue" stroke="midnightblue" points="1429.49,-85.15 1424.48,-75.81 1422.57,-86.24 1429.49,-85.15"/>
</g>
<!-- Node78&#45;&gt;Node35 -->
<g id="edge132" class="edge">
<title>Node78&#45;&gt;Node35</title>
<path fill="none" stroke="midnightblue" d="M2449.41,-354.47C2233.47,-346.07 1207.04,-304.19 893.5,-255 786.79,-238.26 487.51,-227.72 420.5,-143 411.95,-132.19 411.47,-122.4 420.5,-112 456.88,-70.09 629.37,-66.18 703.5,-66.49"/>
<polygon fill="midnightblue" stroke="midnightblue" points="703.68,-69.99 713.7,-66.56 703.73,-62.99 703.68,-69.99"/>
</g>
<!-- Node78&#45;&gt;Node47 -->
<g id="edge102" class="edge">
<title>Node78&#45;&gt;Node47</title>
<path fill="none" stroke="midnightblue" d="M2449.27,-354.87C2301.5,-350.22 1775.14,-329.1 1348.5,-255 1178.23,-225.43 980.23,-165.4 900.49,-140.13"/>
<polygon fill="midnightblue" stroke="midnightblue" points="901.51,-136.78 890.91,-137.08 899.38,-143.45 901.51,-136.78"/>
</g>
<!-- Node78&#45;&gt;Node26 -->
<g id="edge131" class="edge">
<title>Node78&#45;&gt;Node26</title>
<path fill="none" stroke="midnightblue" d="M2449.49,-348.17C2372.14,-331.49 2199.34,-286.64 2081.5,-199 2061.84,-184.38 2045.01,-161.47 2034.84,-145.76"/>
<polygon fill="midnightblue" stroke="midnightblue" points="2037.67,-143.67 2029.4,-137.04 2031.73,-147.38 2037.67,-143.67"/>
</g>
<!-- Node79 -->
<g id="node39" class="node">
<title>Node79</title>
<g id="a_node39"><a xlink:href="Use_8h.html" target="_top" xlink:title="This defines the Use class.">
<polygon fill="none" stroke="red" points="3537,-235.5 3537,-254.5 3614,-254.5 3614,-235.5 3537,-235.5"/>
<text text-anchor="middle" x="3575.5" y="-242.5" font-family="Helvetica" font-size="10.00">llvm/IR/Use.h</text>
</a>
</g>
</g>
<!-- Node78&#45;&gt;Node79 -->
<g id="edge104" class="edge">
<title>Node78&#45;&gt;Node79</title>
<path fill="none" stroke="midnightblue" d="M2529.61,-355.66C2643.78,-354.24 2980.06,-347.09 3256.5,-311 3355.84,-298.03 3470.54,-271.86 3531.71,-256.99"/>
<polygon fill="midnightblue" stroke="midnightblue" points="3532.89,-260.3 3541.77,-254.52 3531.23,-253.5 3532.89,-260.3"/>
</g>
<!-- Node78&#45;&gt;Node81 -->
<g id="edge126" class="edge">
<title>Node78&#45;&gt;Node81</title>
<path fill="none" stroke="midnightblue" d="M2529.51,-356.05C2673.99,-355.91 3163.18,-352.35 3218.5,-311 3268.5,-273.63 3222.35,-223.13 3266.5,-179 3280.36,-165.15 3327.11,-149.86 3362.6,-139.77"/>
<polygon fill="midnightblue" stroke="midnightblue" points="3363.59,-143.13 3372.28,-137.07 3361.71,-136.39 3363.59,-143.13"/>
</g>
<!-- Node78&#45;&gt;Node82 -->
<g id="edge113" class="edge">
<title>Node78&#45;&gt;Node82</title>
<path fill="none" stroke="midnightblue" d="M2529.77,-351.54C2617.72,-341.78 2826.91,-318.59 2924.59,-307.76"/>
<polygon fill="midnightblue" stroke="midnightblue" points="2925.25,-311.2 2934.81,-306.62 2924.48,-304.25 2925.25,-311.2"/>
</g>
<!-- Node79&#45;&gt;Node8 -->
<g id="edge105" class="edge">
<title>Node79&#45;&gt;Node8</title>
<path fill="none" stroke="midnightblue" d="M3611.92,-235.49C3646.53,-226.77 3695.33,-212.59 3709.5,-199 3723.81,-185.28 3730.64,-163.15 3733.83,-147.35"/>
<polygon fill="midnightblue" stroke="midnightblue" points="3737.33,-147.62 3735.56,-137.17 3730.43,-146.44 3737.33,-147.62"/>
</g>
<!-- Node79&#45;&gt;Node16 -->
<g id="edge112" class="edge">
<title>Node79&#45;&gt;Node16</title>
<path fill="none" stroke="midnightblue" d="M3561.13,-235.33C3549.62,-227.47 3534.31,-214.72 3527.5,-199 3511.87,-162.92 3570.13,-140.92 3543.5,-112 3541.51,-109.84 3216.38,-84.13 3068.85,-72.57"/>
<polygon fill="midnightblue" stroke="midnightblue" points="3068.78,-69.06 3058.54,-71.76 3068.24,-76.03 3068.78,-69.06"/>
</g>
<!-- Node79&#45;&gt;Node80 -->
<g id="edge106" class="edge">
<title>Node79&#45;&gt;Node80</title>
<path fill="none" stroke="midnightblue" d="M3582.6,-235.08C3588.74,-227.38 3597.77,-216.03 3605.24,-206.65"/>
<polygon fill="midnightblue" stroke="midnightblue" points="3608.04,-208.75 3611.53,-198.75 3602.56,-204.39 3608.04,-208.75"/>
</g>
<!-- Node80&#45;&gt;Node8 -->
<g id="edge107" class="edge">
<title>Node80&#45;&gt;Node8</title>
<path fill="none" stroke="midnightblue" d="M3635.41,-179.48C3655.03,-169.58 3687.63,-153.14 3710.49,-141.62"/>
<polygon fill="midnightblue" stroke="midnightblue" points="3712.27,-144.64 3719.62,-137.01 3709.12,-138.39 3712.27,-144.64"/>
</g>
<!-- Node80&#45;&gt;Node81 -->
<g id="edge108" class="edge">
<title>Node80&#45;&gt;Node81</title>
<path fill="none" stroke="midnightblue" d="M3587.98,-179.48C3550.58,-169.03 3487.07,-151.29 3445.71,-139.73"/>
<polygon fill="midnightblue" stroke="midnightblue" points="3446.53,-136.33 3435.96,-137.01 3444.65,-143.07 3446.53,-136.33"/>
</g>
<!-- Node81&#45;&gt;Node16 -->
<g id="edge109" class="edge">
<title>Node81&#45;&gt;Node16</title>
<path fill="none" stroke="midnightblue" d="M3365.6,-117.98C3355.18,-115.89 3343.94,-113.75 3333.5,-112 3242.54,-96.77 3137.04,-83.32 3068.88,-75.18"/>
<polygon fill="midnightblue" stroke="midnightblue" points="3069.03,-71.68 3058.69,-73.97 3068.2,-78.63 3069.03,-71.68"/>
</g>
<!-- Node81&#45;&gt;Node23 -->
<g id="edge110" class="edge">
<title>Node81&#45;&gt;Node23</title>
<path fill="none" stroke="midnightblue" d="M3369.25,-117.98C3320.75,-106.57 3235.32,-86.48 3187.48,-75.23"/>
<polygon fill="midnightblue" stroke="midnightblue" points="3188.12,-71.78 3177.58,-72.9 3186.52,-78.6 3188.12,-71.78"/>
</g>
<!-- Node81&#45;&gt;Node29 -->
<g id="edge111" class="edge">
<title>Node81&#45;&gt;Node29</title>
<path fill="none" stroke="midnightblue" d="M3347.26,-121.17C3311.8,-118.09 3265.57,-114.37 3224.5,-112 2742.96,-84.18 2157.5,-71.03 1998.19,-67.81"/>
<polygon fill="midnightblue" stroke="midnightblue" points="1997.96,-64.3 1987.89,-67.6 1997.82,-71.3 1997.96,-64.3"/>
</g>
<!-- Node82&#45;&gt;Node4 -->
<g id="edge117" class="edge">
<title>Node82&#45;&gt;Node4</title>
<path fill="none" stroke="midnightblue" d="M2934.91,-298.62C2877.15,-296.73 2769.39,-293.31 2677.5,-291 2281.1,-281.03 1286.86,-304.96 893.5,-255 679.19,-227.78 621.46,-222.29 420.5,-143 378.42,-126.4 333.54,-98.3 308.16,-81.32"/>
<polygon fill="midnightblue" stroke="midnightblue" points="309.97,-78.32 299.73,-75.6 306.04,-84.11 309.97,-78.32"/>
</g>
<!-- Node82&#45;&gt;Node8 -->
<g id="edge114" class="edge">
<title>Node82&#45;&gt;Node8</title>
<path fill="none" stroke="midnightblue" d="M3018.19,-292.24C3021.34,-291.78 3024.46,-291.36 3027.5,-291 3290.6,-259.93 3367.13,-325.51 3622.5,-255 3629.01,-253.2 3726.75,-204.62 3730.5,-199 3740.61,-183.86 3741.02,-162.62 3739.58,-147.42"/>
<polygon fill="midnightblue" stroke="midnightblue" points="3743.01,-146.63 3738.25,-137.17 3736.07,-147.54 3743.01,-146.63"/>
</g>
<!-- Node82&#45;&gt;Node23 -->
<g id="edge124" class="edge">
<title>Node82&#45;&gt;Node23</title>
<path fill="none" stroke="midnightblue" d="M3006.83,-291.4C3062.01,-273.93 3177.44,-228.49 3224.5,-143 3231.14,-130.93 3231.18,-124.05 3224.5,-112 3216.35,-97.3 3201.18,-86.77 3186.85,-79.61"/>
<polygon fill="midnightblue" stroke="midnightblue" points="3188.19,-76.37 3177.65,-75.38 3185.27,-82.73 3188.19,-76.37"/>
</g>
<!-- Node82&#45;&gt;Node35 -->
<g id="edge125" class="edge">
<title>Node82&#45;&gt;Node35</title>
<path fill="none" stroke="midnightblue" d="M2934.84,-298.75C2712.72,-292.05 1675.19,-260.6 1607.5,-255 1513.33,-247.22 837.93,-202.47 764.5,-143 747.28,-129.05 741.03,-103.31 738.77,-85.68"/>
<polygon fill="midnightblue" stroke="midnightblue" points="742.25,-85.32 737.8,-75.7 735.29,-85.99 742.25,-85.32"/>
</g>
<!-- Node82&#45;&gt;Node38 -->
<g id="edge116" class="edge">
<title>Node82&#45;&gt;Node38</title>
<path fill="none" stroke="midnightblue" d="M2934.81,-295.44C2848.48,-286.01 2649.64,-264.27 2546.76,-253.02"/>
<polygon fill="midnightblue" stroke="midnightblue" points="2547.13,-249.54 2536.81,-251.94 2546.37,-256.5 2547.13,-249.54"/>
</g>
<!-- Node82&#45;&gt;Node39 -->
<g id="edge115" class="edge">
<title>Node82&#45;&gt;Node39</title>
<path fill="none" stroke="midnightblue" d="M2934.98,-297.19C2785.96,-286.93 2263.92,-249.51 1823.14,-199.15"/>
<polygon fill="midnightblue" stroke="midnightblue" points="1823.41,-195.66 1813.07,-198 1822.61,-202.61 1823.41,-195.66"/>
</g>
<!-- Node82&#45;&gt;Node79 -->
<g id="edge118" class="edge">
<title>Node82&#45;&gt;Node79</title>
<path fill="none" stroke="midnightblue" d="M3018.2,-292.28C3021.34,-291.81 3024.47,-291.38 3027.5,-291 3246.4,-263.8 3303.52,-281.49 3522.5,-255 3523.8,-254.84 3525.12,-254.67 3526.45,-254.5"/>
<polygon fill="midnightblue" stroke="midnightblue" points="3527.37,-257.9 3536.78,-253.02 3526.38,-250.97 3527.37,-257.9"/>
</g>
<!-- Node82&#45;&gt;Node80 -->
<g id="edge122" class="edge">
<title>Node82&#45;&gt;Node80</title>
<path fill="none" stroke="midnightblue" d="M3018.25,-292.61C3021.38,-292.07 3024.49,-291.52 3027.5,-291 3221.24,-257.35 3450.86,-218.37 3557.92,-200.24"/>
<polygon fill="midnightblue" stroke="midnightblue" points="3558.61,-203.67 3567.89,-198.55 3557.44,-196.77 3558.61,-203.67"/>
</g>
<!-- Node82&#45;&gt;Node81 -->
<g id="edge123" class="edge">
<title>Node82&#45;&gt;Node81</title>
<path fill="none" stroke="midnightblue" d="M2992.01,-291.4C3030.87,-270.11 3135.94,-214.14 3228.5,-179 3271.78,-162.57 3322.77,-148.56 3358.87,-139.5"/>
<polygon fill="midnightblue" stroke="midnightblue" points="3359.78,-142.88 3368.64,-137.07 3358.09,-136.08 3359.78,-142.88"/>
</g>
<!-- Node83 -->
<g id="node43" class="node">
<title>Node83</title>
<g id="a_node43"><a xlink:href="Alignment_8h.html" target="_top" xlink:title=" ">
<polygon fill="none" stroke="red" points="3089.5,-118 3089.5,-137 3215.5,-137 3215.5,-118 3089.5,-118"/>
<text text-anchor="middle" x="3152.5" y="-125" font-family="Helvetica" font-size="10.00">llvm/Support/Alignment.h</text>
</a>
</g>
</g>
<!-- Node82&#45;&gt;Node83 -->
<g id="edge119" class="edge">
<title>Node82&#45;&gt;Node83</title>
<path fill="none" stroke="midnightblue" d="M2970.98,-291.37C2963.38,-278.3 2951.78,-253.07 2962.5,-235 2979.56,-206.27 2999.31,-215.26 3028.5,-199 3063.61,-179.45 3104.03,-156.36 3128.92,-142.07"/>
<polygon fill="midnightblue" stroke="midnightblue" points="3130.73,-145.07 3137.66,-137.05 3127.25,-139 3130.73,-145.07"/>
</g>
<!-- Node83&#45;&gt;Node20 -->
<g id="edge121" class="edge">
<title>Node83&#45;&gt;Node20</title>
<path fill="none" stroke="midnightblue" d="M3089.28,-121.01C2946.46,-108.6 2603.13,-78.78 2498.37,-69.68"/>
<polygon fill="midnightblue" stroke="midnightblue" points="2498.43,-66.17 2488.16,-68.79 2497.82,-73.15 2498.43,-66.17"/>
</g>
<!-- Node83&#45;&gt;Node23 -->
<g id="edge120" class="edge">
<title>Node83&#45;&gt;Node23</title>
<path fill="none" stroke="midnightblue" d="M3152.5,-117.98C3152.5,-109.58 3152.5,-96.48 3152.5,-85.66"/>
<polygon fill="midnightblue" stroke="midnightblue" points="3156,-85.51 3152.5,-75.51 3149,-85.51 3156,-85.51"/>
</g>
<!-- Node90&#45;&gt;Node33 -->
<g id="edge135" class="edge">
<title>Node90&#45;&gt;Node33</title>
<path fill="none" stroke="midnightblue" d="M1335.83,-347.18C1303.17,-321.35 1215.43,-243.69 1250.5,-179 1252.6,-175.13 1354.21,-110.33 1400.25,-81.1"/>
<polygon fill="midnightblue" stroke="midnightblue" points="1402.35,-83.91 1408.92,-75.6 1398.6,-78 1402.35,-83.91"/>
</g>
<!-- Node92&#45;&gt;Node3 -->
<g id="edge151" class="edge">
<title>Node92&#45;&gt;Node3</title>
<path fill="none" stroke="midnightblue" d="M1235.37,-578.94C1091.35,-575 587,-560.15 171.5,-535 157.79,-534.17 143.15,-533.12 129.13,-532.02"/>
<polygon fill="midnightblue" stroke="midnightblue" points="129.29,-528.53 119.05,-531.22 128.74,-535.5 129.29,-528.53"/>
</g>
<!-- Node92&#45;&gt;Node4 -->
<g id="edge153" class="edge">
<title>Node92&#45;&gt;Node4</title>
<path fill="none" stroke="midnightblue" d="M1235.25,-579.9C1082.97,-579.24 542.38,-574.12 375.5,-535 244.3,-504.25 97.5,-548.75 97.5,-414 97.5,-414 97.5,-414 97.5,-188 97.5,-124.18 174.72,-92.55 230.7,-78.01"/>
<polygon fill="midnightblue" stroke="midnightblue" points="231.67,-81.38 240.53,-75.57 229.99,-74.58 231.67,-81.38"/>
</g>
<!-- Node92&#45;&gt;Node23 -->
<g id="edge170" class="edge">
<title>Node92&#45;&gt;Node23</title>
<path fill="none" stroke="midnightblue" d="M1315.61,-579.96C1559.02,-579.23 2862.53,-568.4 3912.5,-423 4085.55,-399.04 4286.5,-476.71 4286.5,-302 4286.5,-302 4286.5,-302 4286.5,-244 4286.5,-106.42 4139.92,-145.58 4006.5,-112 3847.76,-72.04 3328.88,-67.53 3188.04,-67.05"/>
<polygon fill="midnightblue" stroke="midnightblue" points="3187.83,-63.55 3177.82,-67.02 3187.81,-70.55 3187.83,-63.55"/>
</g>
<!-- Node92&#45;&gt;Node33 -->
<g id="edge171" class="edge">
<title>Node92&#45;&gt;Node33</title>
<path fill="none" stroke="midnightblue" d="M1235.43,-578.63C1075.89,-572.63 494.5,-545.61 494.5,-470 494.5,-470 494.5,-470 494.5,-300 494.5,-217.42 558.91,-209.87 635.5,-179 754.74,-130.95 796.53,-168.66 922.5,-143 971.85,-132.95 982.03,-121.45 1031.5,-112 1184.93,-82.69 1229.76,-103.6 1387.65,-75.85"/>
<polygon fill="midnightblue" stroke="midnightblue" points="1388.5,-79.26 1397.72,-74.04 1387.26,-72.37 1388.5,-79.26"/>
</g>
<!-- Node92&#45;&gt;Node35 -->
<g id="edge172" class="edge">
<title>Node92&#45;&gt;Node35</title>
<path fill="none" stroke="midnightblue" d="M1235.37,-580.24C1073.76,-580.91 475.79,-580.28 405.5,-535 246.72,-432.7 239.19,-253.33 364.5,-112 386.85,-86.79 616.13,-72.96 703.73,-68.56"/>
<polygon fill="midnightblue" stroke="midnightblue" points="704.11,-72.05 713.93,-68.06 703.77,-65.06 704.11,-72.05"/>
</g>
<!-- Node92&#45;&gt;Node47 -->
<g id="edge152" class="edge">
<title>Node92&#45;&gt;Node47</title>
<path fill="none" stroke="midnightblue" d="M1235.21,-580.44C1094.07,-581.56 622.88,-581.62 480.5,-535 430.12,-518.5 380.5,-523.01 380.5,-470 380.5,-470 380.5,-470 380.5,-300 380.5,-210.82 676.15,-156.28 805.31,-136.71"/>
<polygon fill="midnightblue" stroke="midnightblue" points="806.06,-140.14 815.43,-135.19 805.02,-133.21 806.06,-140.14"/>
</g>
<!-- Node92&#45;&gt;Node81 -->
<g id="edge169" class="edge">
<title>Node92&#45;&gt;Node81</title>
<path fill="none" stroke="midnightblue" d="M1315.53,-579.51C1609.85,-575.49 3431.82,-543.53 3590.5,-367 3596.44,-360.39 3593.56,-355.35 3590.5,-347 3585.97,-334.65 3462.32,-193.19 3419.74,-144.7"/>
<polygon fill="midnightblue" stroke="midnightblue" points="3422.23,-142.22 3413,-137.02 3416.97,-146.84 3422.23,-142.22"/>
</g>
<!-- Node92&#45;&gt;Node82 -->
<g id="edge168" class="edge">
<title>Node92&#45;&gt;Node82</title>
<path fill="none" stroke="midnightblue" d="M1315.59,-578.08C1458.31,-570.84 1954.76,-542.4 2359.5,-479 2473.28,-461.18 2500.78,-450.98 2612.5,-423 2702.04,-400.57 2725.03,-396.49 2812.5,-367 2860.5,-350.82 2914.93,-328.41 2947.45,-314.58"/>
<polygon fill="midnightblue" stroke="midnightblue" points="2948.99,-317.73 2956.8,-310.58 2946.23,-311.3 2948.99,-317.73"/>
</g>
<!-- Node93 -->
<g id="node47" class="node">
<title>Node93</title>
<g id="a_node47"><a xlink:href="Function_8h.html" target="_top" xlink:title=" ">
<polygon fill="none" stroke="red" points="1618,-515.5 1618,-534.5 1715,-534.5 1715,-515.5 1618,-515.5"/>
<text text-anchor="middle" x="1666.5" y="-522.5" font-family="Helvetica" font-size="10.00">llvm/IR/Function.h</text>
</a>
</g>
</g>
<!-- Node92&#45;&gt;Node93 -->
<g id="edge154" class="edge">
<title>Node92&#45;&gt;Node93</title>
<path fill="none" stroke="midnightblue" d="M1315.51,-574.47C1384.75,-564.91 1527.25,-545.23 1607.75,-534.11"/>
<polygon fill="midnightblue" stroke="midnightblue" points="1608.31,-537.57 1617.73,-532.74 1607.35,-530.64 1608.31,-537.57"/>
</g>
<!-- Node93&#45;&gt;Node4 -->
<g id="edge158" class="edge">
<title>Node93&#45;&gt;Node4</title>
<path fill="none" stroke="midnightblue" d="M1617.72,-523.11C1356.58,-518.02 135.5,-490.16 135.5,-414 135.5,-414 135.5,-414 135.5,-188 135.5,-130.18 203.65,-95.54 248.69,-78.96"/>
<polygon fill="midnightblue" stroke="midnightblue" points="249.93,-82.24 258.19,-75.6 247.6,-75.64 249.93,-82.24"/>
</g>
<!-- Node93&#45;&gt;Node7 -->
<g id="edge159" class="edge">
<title>Node93&#45;&gt;Node7</title>
<path fill="none" stroke="midnightblue" d="M1715.12,-518.67C1804.48,-508.89 1994.83,-488.04 2094.92,-477.07"/>
<polygon fill="midnightblue" stroke="midnightblue" points="2095.35,-480.55 2104.91,-475.98 2094.59,-473.59 2095.35,-480.55"/>
</g>
<!-- Node93&#45;&gt;Node14 -->
<g id="edge156" class="edge">
<title>Node93&#45;&gt;Node14</title>
<path fill="none" stroke="midnightblue" d="M1715.2,-522.94C1812.34,-520.19 2036.82,-510.67 2222.5,-479 2318.99,-462.54 2342.83,-454.52 2435.5,-423 2496.22,-402.35 2517.16,-405.44 2568.5,-367 2586.09,-353.83 2601.36,-333.59 2610.94,-319.2"/>
<polygon fill="midnightblue" stroke="midnightblue" points="2613.92,-321.03 2616.37,-310.72 2608.03,-317.25 2613.92,-321.03"/>
</g>
<!-- Node93&#45;&gt;Node16 -->
<g id="edge163" class="edge">
<title>Node93&#45;&gt;Node16</title>
<path fill="none" stroke="midnightblue" d="M1715,-524.15C2002.12,-524.52 3470.76,-518.92 3590.5,-367 3615.93,-334.73 3580.27,-370.05 3527.5,-255 3500.08,-195.23 3539.75,-154.42 3489.5,-112 3481.56,-105.29 3203.26,-82.92 3068.81,-72.47"/>
<polygon fill="midnightblue" stroke="midnightblue" points="3068.84,-68.96 3058.6,-71.68 3068.3,-75.94 3068.84,-68.96"/>
</g>
<!-- Node93&#45;&gt;Node20 -->
<g id="edge167" class="edge">
<title>Node93&#45;&gt;Node20</title>
<path fill="none" stroke="midnightblue" d="M1617.71,-520.28C1489.12,-508.74 1157.87,-466.84 1262.5,-347 1422.83,-163.36 2150.3,-339.53 2349.5,-199 2385.07,-173.91 2364.89,-143.92 2394.5,-112 2406.79,-98.75 2423.84,-87.94 2438.38,-80.25"/>
<polygon fill="midnightblue" stroke="midnightblue" points="2440.14,-83.28 2447.49,-75.64 2436.98,-77.03 2440.14,-83.28"/>
</g>
<!-- Node93&#45;&gt;Node23 -->
<g id="edge164" class="edge">
<title>Node93&#45;&gt;Node23</title>
<path fill="none" stroke="midnightblue" d="M1715.05,-523.65C1903.78,-522.05 2606.83,-513.96 3184.5,-479 3457.14,-462.5 3526.39,-463.55 3796.5,-423 3899.33,-407.56 4248.5,-405.98 4248.5,-302 4248.5,-302 4248.5,-302 4248.5,-244 4248.5,-238.35 3963.07,-113.58 3956.5,-112 3807.48,-76.04 3323.72,-68.67 3188.13,-67.29"/>
<polygon fill="midnightblue" stroke="midnightblue" points="3187.92,-63.79 3177.89,-67.19 3187.85,-70.79 3187.92,-63.79"/>
</g>
<!-- Node93&#45;&gt;Node33 -->
<g id="edge165" class="edge">
<title>Node93&#45;&gt;Node33</title>
<path fill="none" stroke="midnightblue" d="M1617.77,-524.47C1400.72,-525.91 532.5,-524.77 532.5,-414 532.5,-414 532.5,-414 532.5,-356 532.5,-254.87 586.56,-227.13 675.5,-179 815.36,-103.31 884.57,-203.83 1031.5,-143 1051.64,-134.66 1049.41,-120.45 1069.5,-112 1198.05,-57.9 1246.11,-100.33 1387.8,-75.81"/>
<polygon fill="midnightblue" stroke="midnightblue" points="1388.5,-79.24 1397.71,-74.01 1387.25,-72.35 1388.5,-79.24"/>
</g>
<!-- Node93&#45;&gt;Node38 -->
<g id="edge155" class="edge">
<title>Node93&#45;&gt;Node38</title>
<path fill="none" stroke="midnightblue" d="M1685.82,-515.46C1747.4,-488.44 1944.86,-403.28 2113.5,-347 2228.05,-308.77 2366.01,-273.9 2436.35,-256.9"/>
<polygon fill="midnightblue" stroke="midnightblue" points="2437.32,-260.27 2446.23,-254.52 2435.68,-253.46 2437.32,-260.27"/>
</g>
<!-- Node93&#45;&gt;Node26 -->
<g id="edge166" class="edge">
<title>Node93&#45;&gt;Node26</title>
<path fill="none" stroke="midnightblue" d="M1617.99,-523.65C1490.9,-522.23 1155.72,-515.08 1122.5,-479 1098.18,-452.59 1136.13,-295.82 1141.5,-291 1190.36,-247.11 1666.56,-264.84 1731.5,-255 1835.09,-239.3 1870.46,-252.58 1960.5,-199 1982.83,-185.72 2001.86,-162.17 2013.23,-145.97"/>
<polygon fill="midnightblue" stroke="midnightblue" points="2016.31,-147.66 2019.01,-137.42 2010.51,-143.75 2016.31,-147.66"/>
</g>
<!-- Node93&#45;&gt;Node57 -->
<g id="edge157" class="edge">
<title>Node93&#45;&gt;Node57</title>
<path fill="none" stroke="midnightblue" d="M1617.75,-522.53C1472.77,-517.92 1050.75,-502.59 993.5,-479 862.37,-424.97 774.04,-261.77 747.71,-207.65"/>
<polygon fill="midnightblue" stroke="midnightblue" points="750.86,-206.13 743.4,-198.61 744.54,-209.14 750.86,-206.13"/>
</g>
<!-- Node93&#45;&gt;Node89 -->
<g id="edge160" class="edge">
<title>Node93&#45;&gt;Node89</title>
<path fill="none" stroke="midnightblue" d="M1617.82,-524.36C1472.68,-524.92 1050.39,-522.76 1008.5,-479 982.32,-451.65 991.5,-402.86 999.24,-376.36"/>
<polygon fill="midnightblue" stroke="midnightblue" points="1002.59,-377.38 1002.26,-366.79 995.92,-375.27 1002.59,-377.38"/>
</g>
<!-- Node93&#45;&gt;Node81 -->
<g id="edge162" class="edge">
<title>Node93&#45;&gt;Node81</title>
<path fill="none" stroke="midnightblue" d="M1715.18,-521.85C2006.53,-508.75 3508.83,-437.91 3573.5,-367 3579.49,-360.43 3578.24,-354.52 3573.5,-347 3522.78,-266.64 3431.22,-335.36 3380.5,-255 3358.89,-220.75 3380.3,-171.75 3394.73,-145.93"/>
<polygon fill="midnightblue" stroke="midnightblue" points="3397.77,-147.66 3399.81,-137.26 3391.73,-144.12 3397.77,-147.66"/>
</g>
<!-- Node93&#45;&gt;Node82 -->
<g id="edge161" class="edge">
<title>Node93&#45;&gt;Node82</title>
<path fill="none" stroke="midnightblue" d="M1715.03,-523.08C1819.9,-520.54 2075.26,-511.26 2286.5,-479 2501.77,-446.13 2553.25,-423.7 2763.5,-367 2826.4,-350.04 2898.77,-327.25 2940.9,-313.65"/>
<polygon fill="midnightblue" stroke="midnightblue" points="2941.99,-316.97 2950.43,-310.56 2939.83,-310.31 2941.99,-316.97"/>
</g>
<!-- Node106&#45;&gt;Node15 -->
<g id="edge174" class="edge">
<title>Node106&#45;&gt;Node15</title>
<path fill="none" stroke="midnightblue" d="M3041.39,-291.46C2936.94,-277.98 2725.39,-251.6 2545.5,-235 2333.8,-215.46 2082.82,-200.48 1962.61,-193.8"/>
<polygon fill="midnightblue" stroke="midnightblue" points="1962.61,-190.3 1952.44,-193.24 1962.23,-197.29 1962.61,-190.3"/>
</g>
<!-- Node106&#45;&gt;Node20 -->
<g id="edge182" class="edge">
<title>Node106&#45;&gt;Node20</title>
<path fill="none" stroke="midnightblue" d="M3111.79,-291.47C3124.47,-271.26 3157.94,-219.11 3190.5,-179 3204.37,-161.91 3216.37,-163.45 3224.5,-143 3229.59,-130.2 3233.95,-122.03 3224.5,-112 3199.2,-85.15 2637.71,-70.82 2498.51,-67.67"/>
<polygon fill="midnightblue" stroke="midnightblue" points="2498.22,-64.16 2488.15,-67.44 2498.07,-71.16 2498.22,-64.16"/>
</g>
<!-- Node106&#45;&gt;Node23 -->
<g id="edge177" class="edge">
<title>Node106&#45;&gt;Node23</title>
<path fill="none" stroke="midnightblue" d="M3176.68,-298.33C3304.48,-294.63 3570.05,-283.65 3657.5,-255 3680.06,-247.61 3731.44,-215.52 3748.5,-199 3778.69,-169.77 3814.14,-142.75 3785.5,-112 3744.64,-68.13 3315.68,-66.33 3188.1,-66.77"/>
<polygon fill="midnightblue" stroke="midnightblue" points="3187.71,-63.28 3177.73,-66.82 3187.74,-70.28 3187.71,-63.28"/>
</g>
<!-- Node106&#45;&gt;Node33 -->
<g id="edge179" class="edge">
<title>Node106&#45;&gt;Node33</title>
<path fill="none" stroke="midnightblue" d="M3066.85,-291.48C3000.2,-277.49 2861.31,-249.72 2742.5,-235 2514.79,-206.79 2447.36,-264.64 2227.5,-199 2178.69,-184.43 2169.03,-172.5 2127.5,-143 2110.56,-130.97 2111.67,-120.01 2092.5,-112 2033.72,-87.43 1586.77,-72.01 1457.45,-68.03"/>
<polygon fill="midnightblue" stroke="midnightblue" points="1457.41,-64.52 1447.31,-67.72 1457.2,-71.52 1457.41,-64.52"/>
</g>
<!-- Node106&#45;&gt;Node27 -->
<g id="edge181" class="edge">
<title>Node106&#45;&gt;Node27</title>
<path fill="none" stroke="midnightblue" d="M3097.42,-291.28C3083.4,-278.08 3055.26,-252.69 3028.5,-235 3011.93,-224.05 2899.02,-167.54 2846.84,-141.58"/>
<polygon fill="midnightblue" stroke="midnightblue" points="2848.35,-138.42 2837.84,-137.1 2845.23,-144.69 2848.35,-138.42"/>
</g>
<!-- Node106&#45;&gt;Node29 -->
<g id="edge184" class="edge">
<title>Node106&#45;&gt;Node29</title>
<path fill="none" stroke="midnightblue" d="M3101.08,-291.19C3092.57,-277.86 3075.04,-252.31 3055.5,-235 2976.55,-165.03 2953.36,-142.92 2852.5,-112 2770.26,-86.79 2162.81,-71.58 1997.78,-67.88"/>
<polygon fill="midnightblue" stroke="midnightblue" points="1997.63,-64.38 1987.55,-67.66 1997.47,-71.38 1997.63,-64.38"/>
</g>
<!-- Node106&#45;&gt;Node38 -->
<g id="edge175" class="edge">
<title>Node106&#45;&gt;Node38</title>
<path fill="none" stroke="midnightblue" d="M3036.27,-291.98C3032.97,-291.64 3029.7,-291.31 3026.5,-291 2853.24,-274.09 2648.54,-258.28 2546.72,-250.7"/>
<polygon fill="midnightblue" stroke="midnightblue" points="2546.83,-247.19 2536.6,-249.94 2546.31,-254.17 2546.83,-247.19"/>
</g>
<!-- Node106&#45;&gt;Node26 -->
<g id="edge180" class="edge">
<title>Node106&#45;&gt;Node26</title>
<path fill="none" stroke="midnightblue" d="M3054.55,-291.46C2970.34,-277.87 2798.71,-251.2 2652.5,-235 2449.56,-212.52 2393.03,-246.7 2194.5,-199 2140.72,-186.08 2081.95,-158.4 2049.52,-141.83"/>
<polygon fill="midnightblue" stroke="midnightblue" points="2050.83,-138.56 2040.34,-137.07 2047.61,-144.78 2050.83,-138.56"/>
</g>
<!-- Node106&#45;&gt;Node42 -->
<g id="edge176" class="edge">
<title>Node106&#45;&gt;Node42</title>
<path fill="none" stroke="midnightblue" d="M3176.51,-295.79C3342.18,-285.81 3757.12,-260.83 3928.07,-250.54"/>
<polygon fill="midnightblue" stroke="midnightblue" points="3928.47,-254.02 3938.24,-249.93 3928.05,-247.04 3928.47,-254.02"/>
</g>
<!-- Node107 -->
<g id="node49" class="node">
<title>Node107</title>
<g id="a_node49"><a xlink:title=" ">
<polygon fill="none" stroke="#bfbfbf" points="3708.5,-235.5 3708.5,-254.5 3754.5,-254.5 3754.5,-235.5 3708.5,-235.5"/>
<text text-anchor="middle" x="3731.5" y="-242.5" font-family="Helvetica" font-size="10.00">chrono</text>
</a>
</g>
</g>
<!-- Node106&#45;&gt;Node107 -->
<g id="edge178" class="edge">
<title>Node106&#45;&gt;Node107</title>
<path fill="none" stroke="midnightblue" d="M3176.62,-298.31C3287.29,-294.81 3508.95,-284.47 3694.5,-255 3695.75,-254.8 3697.02,-254.58 3698.3,-254.35"/>
<polygon fill="midnightblue" stroke="midnightblue" points="3699.06,-257.76 3708.13,-252.29 3697.62,-250.91 3699.06,-257.76"/>
</g>
<!-- Node108 -->
<g id="node50" class="node">
<title>Node108</title>
<g id="a_node50"><a xlink:title=" ">
<polygon fill="none" stroke="#bfbfbf" points="3772.5,-235.5 3772.5,-254.5 3844.5,-254.5 3844.5,-235.5 3772.5,-235.5"/>
<text text-anchor="middle" x="3808.5" y="-242.5" font-family="Helvetica" font-size="10.00">system_error</text>
</a>
</g>
</g>
<!-- Node106&#45;&gt;Node108 -->
<g id="edge183" class="edge">
<title>Node106&#45;&gt;Node108</title>
<path fill="none" stroke="midnightblue" d="M3176.81,-298.16C3295.52,-294.4 3543.37,-283.73 3762.15,-255.01"/>
<polygon fill="midnightblue" stroke="midnightblue" points="3762.77,-258.46 3772.22,-253.67 3761.84,-251.52 3762.77,-258.46"/>
</g>
</g>
</svg>
