<?xml version="1.0" encoding="UTF-8" standalone="no"?>
<!DOCTYPE svg PUBLIC "-//W3C//DTD SVG 1.1//EN"
 "http://www.w3.org/Graphics/SVG/1.1/DTD/svg11.dtd">
<!-- Generated by graphviz version 2.44.0 (0)
 -->
<!-- Title: lib/Target/Lanai/LanaiCondCode.h Pages: 1 -->
<svg width="1820pt" height="487pt"
 viewBox="0.00 0.00 1820.00 487.00" xmlns="http://www.w3.org/2000/svg" xmlns:xlink="http://www.w3.org/1999/xlink">
<g id="graph0" class="graph" transform="scale(1 1) rotate(0) translate(4 483)">
<title>lib/Target/Lanai/LanaiCondCode.h</title>
<!-- Node1 -->
<g id="node1" class="node">
<title>Node1</title>
<g id="a_node1"><a xlink:title=" ">
<polygon fill="#bfbfbf" stroke="black" points="1632,-448.5 1632,-478.5 1764,-478.5 1764,-448.5 1632,-448.5"/>
<text text-anchor="start" x="1640" y="-466.5" font-family="Helvetica" font-size="10.00">lib/Target/Lanai/LanaiCond</text>
<text text-anchor="middle" x="1698" y="-455.5" font-family="Helvetica" font-size="10.00">Code.h</text>
</a>
</g>
</g>
<!-- Node2 -->
<g id="node2" class="node">
<title>Node2</title>
<g id="a_node2"><a xlink:href="StringSwitch_8h.html" target="_top" xlink:title=" ">
<polygon fill="none" stroke="black" points="1636,-392.5 1636,-411.5 1760,-411.5 1760,-392.5 1636,-392.5"/>
<text text-anchor="middle" x="1698" y="-399.5" font-family="Helvetica" font-size="10.00">llvm/ADT/StringSwitch.h</text>
</a>
</g>
</g>
<!-- Node1&#45;&gt;Node2 -->
<g id="edge1" class="edge">
<title>Node1&#45;&gt;Node2</title>
<path fill="none" stroke="midnightblue" d="M1698,-448.4C1698,-440.47 1698,-430.46 1698,-421.86"/>
<polygon fill="midnightblue" stroke="midnightblue" points="1701.5,-421.66 1698,-411.66 1694.5,-421.66 1701.5,-421.66"/>
</g>
<!-- Node3 -->
<g id="node3" class="node">
<title>Node3</title>
<g id="a_node3"><a xlink:href="StringRef_8h.html" target="_top" xlink:title=" ">
<polygon fill="none" stroke="black" points="1470,-336.5 1470,-355.5 1578,-355.5 1578,-336.5 1470,-336.5"/>
<text text-anchor="middle" x="1524" y="-343.5" font-family="Helvetica" font-size="10.00">llvm/ADT/StringRef.h</text>
</a>
</g>
</g>
<!-- Node2&#45;&gt;Node3 -->
<g id="edge2" class="edge">
<title>Node2&#45;&gt;Node3</title>
<path fill="none" stroke="midnightblue" d="M1670.43,-392.44C1640.9,-383.28 1593.88,-368.69 1561.12,-358.52"/>
<polygon fill="midnightblue" stroke="midnightblue" points="1562.03,-355.14 1551.44,-355.52 1559.96,-361.82 1562.03,-355.14"/>
</g>
<!-- Node13 -->
<g id="node13" class="node">
<title>Node13</title>
<g id="a_node13"><a xlink:href="Compiler_8h.html" target="_top" xlink:title=" ">
<polygon fill="none" stroke="black" points="1417,-56.5 1417,-75.5 1539,-75.5 1539,-56.5 1417,-56.5"/>
<text text-anchor="middle" x="1478" y="-63.5" font-family="Helvetica" font-size="10.00">llvm/Support/Compiler.h</text>
</a>
</g>
</g>
<!-- Node2&#45;&gt;Node13 -->
<g id="edge72" class="edge">
<title>Node2&#45;&gt;Node13</title>
<path fill="none" stroke="midnightblue" d="M1718.64,-392.42C1751.5,-377.23 1812,-342.29 1812,-291 1812,-291 1812,-291 1812,-177 1812,-141.09 1794.7,-130.63 1764,-112 1728.86,-90.68 1621.88,-78.23 1549.2,-72.02"/>
<polygon fill="midnightblue" stroke="midnightblue" points="1549.44,-68.53 1539.18,-71.19 1548.86,-75.51 1549.44,-68.53"/>
</g>
<!-- Node25 -->
<g id="node25" class="node">
<title>Node25</title>
<g id="a_node25"><a xlink:title=" ">
<polygon fill="none" stroke="#bfbfbf" points="1506,-112.5 1506,-131.5 1556,-131.5 1556,-112.5 1506,-112.5"/>
<text text-anchor="middle" x="1531" y="-119.5" font-family="Helvetica" font-size="10.00">cassert</text>
</a>
</g>
</g>
<!-- Node2&#45;&gt;Node25 -->
<g id="edge73" class="edge">
<title>Node2&#45;&gt;Node25</title>
<path fill="none" stroke="midnightblue" d="M1692.82,-392.38C1669.39,-353.38 1573.14,-193.14 1541.29,-140.12"/>
<polygon fill="midnightblue" stroke="midnightblue" points="1544.27,-138.29 1536.12,-131.52 1538.27,-141.9 1544.27,-138.29"/>
</g>
<!-- Node26 -->
<g id="node26" class="node">
<title>Node26</title>
<g id="a_node26"><a xlink:title=" ">
<polygon fill="none" stroke="#bfbfbf" points="1688,-112.5 1688,-131.5 1734,-131.5 1734,-112.5 1688,-112.5"/>
<text text-anchor="middle" x="1711" y="-119.5" font-family="Helvetica" font-size="10.00">cstring</text>
</a>
</g>
</g>
<!-- Node2&#45;&gt;Node26 -->
<g id="edge74" class="edge">
<title>Node2&#45;&gt;Node26</title>
<path fill="none" stroke="midnightblue" d="M1699.69,-392.19C1704.18,-368.41 1716.35,-300.83 1721,-244 1723.03,-219.19 1721.78,-212.89 1722,-188 1722.08,-179.11 1723.06,-176.83 1722,-168 1720.93,-159.11 1718.71,-149.43 1716.54,-141.34"/>
<polygon fill="midnightblue" stroke="midnightblue" points="1719.84,-140.17 1713.73,-131.51 1713.11,-142.09 1719.84,-140.17"/>
</g>
<!-- Node4 -->
<g id="node4" class="node">
<title>Node4</title>
<g id="a_node4"><a xlink:href="STLExtras_8h.html" target="_top" xlink:title=" ">
<polygon fill="none" stroke="black" points="664.5,-280.5 664.5,-299.5 779.5,-299.5 779.5,-280.5 664.5,-280.5"/>
<text text-anchor="middle" x="722" y="-287.5" font-family="Helvetica" font-size="10.00">llvm/ADT/STLExtras.h</text>
</a>
</g>
</g>
<!-- Node3&#45;&gt;Node4 -->
<g id="edge3" class="edge">
<title>Node3&#45;&gt;Node4</title>
<path fill="none" stroke="midnightblue" d="M1469.82,-341.35C1328.01,-331.8 946.15,-306.09 789.98,-295.58"/>
<polygon fill="midnightblue" stroke="midnightblue" points="789.79,-292.06 779.58,-294.88 789.32,-299.04 789.79,-292.06"/>
</g>
<!-- Node3&#45;&gt;Node13 -->
<g id="edge63" class="edge">
<title>Node3&#45;&gt;Node13</title>
<path fill="none" stroke="midnightblue" d="M1578.04,-342.83C1615.04,-338.71 1663.16,-327.85 1696,-300 1761.68,-244.29 1798.57,-177.8 1743,-112 1718.64,-83.16 1619.22,-72.8 1549.35,-69.08"/>
<polygon fill="midnightblue" stroke="midnightblue" points="1549.43,-65.58 1539.27,-68.58 1549.08,-72.57 1549.43,-65.58"/>
</g>
<!-- Node16 -->
<g id="node16" class="node">
<title>Node16</title>
<g id="a_node16"><a xlink:title=" ">
<polygon fill="none" stroke="#bfbfbf" points="1357.5,-56.5 1357.5,-75.5 1398.5,-75.5 1398.5,-56.5 1357.5,-56.5"/>
<text text-anchor="middle" x="1378" y="-63.5" font-family="Helvetica" font-size="10.00">string</text>
</a>
</g>
</g>
<!-- Node3&#45;&gt;Node16 -->
<g id="edge69" class="edge">
<title>Node3&#45;&gt;Node16</title>
<path fill="none" stroke="midnightblue" d="M1551.85,-336.48C1591.64,-322.37 1660,-290.12 1660,-235 1660,-235 1660,-235 1660,-177 1660,-146.2 1659.81,-131.53 1636,-112 1559.15,-48.98 1511.1,-95.67 1408.65,-75.71"/>
<polygon fill="midnightblue" stroke="midnightblue" points="1409.07,-72.22 1398.56,-73.57 1407.61,-79.07 1409.07,-72.22"/>
</g>
<!-- Node18 -->
<g id="node18" class="node">
<title>Node18</title>
<g id="a_node18"><a xlink:title=" ">
<polygon fill="none" stroke="#bfbfbf" points="190.5,-56.5 190.5,-75.5 239.5,-75.5 239.5,-56.5 190.5,-56.5"/>
<text text-anchor="middle" x="215" y="-63.5" font-family="Helvetica" font-size="10.00">cstddef</text>
</a>
</g>
</g>
<!-- Node3&#45;&gt;Node18 -->
<g id="edge66" class="edge">
<title>Node3&#45;&gt;Node18</title>
<path fill="none" stroke="midnightblue" d="M1469.87,-345.16C1253.55,-345.51 450.86,-343.76 201,-300 108.52,-283.8 0,-328.89 0,-235 0,-235 0,-235 0,-177 0,-97.1 119.13,-75.2 180.03,-69.23"/>
<polygon fill="midnightblue" stroke="midnightblue" points="180.68,-72.68 190.34,-68.31 180.07,-65.71 180.68,-72.68"/>
</g>
<!-- Node20 -->
<g id="node20" class="node">
<title>Node20</title>
<g id="a_node20"><a xlink:title=" ">
<polygon fill="none" stroke="#bfbfbf" points="1006,-56.5 1006,-75.5 1068,-75.5 1068,-56.5 1006,-56.5"/>
<text text-anchor="middle" x="1037" y="-63.5" font-family="Helvetica" font-size="10.00">type_traits</text>
</a>
</g>
</g>
<!-- Node3&#45;&gt;Node20 -->
<g id="edge70" class="edge">
<title>Node3&#45;&gt;Node20</title>
<path fill="none" stroke="midnightblue" d="M1530.81,-336.47C1556.67,-303.02 1644.25,-179.35 1582,-112 1547.43,-74.6 1175.73,-80.59 1125,-76 1109.86,-74.63 1093.27,-72.97 1078.62,-71.46"/>
<polygon fill="midnightblue" stroke="midnightblue" points="1078.65,-67.94 1068.34,-70.38 1077.93,-74.9 1078.65,-67.94"/>
</g>
<!-- Node23 -->
<g id="node23" class="node">
<title>Node23</title>
<g id="a_node23"><a xlink:title=" ">
<polygon fill="none" stroke="#bfbfbf" points="622,-56.5 622,-75.5 662,-75.5 662,-56.5 622,-56.5"/>
<text text-anchor="middle" x="642" y="-63.5" font-family="Helvetica" font-size="10.00">utility</text>
</a>
</g>
</g>
<!-- Node3&#45;&gt;Node23 -->
<g id="edge71" class="edge">
<title>Node3&#45;&gt;Node23</title>
<path fill="none" stroke="midnightblue" d="M1469.78,-344.5C1231.27,-342.11 284.81,-330.72 230,-300 157.06,-259.12 159.48,-166.38 223,-112 237.8,-99.33 518.14,-76.58 611.81,-69.31"/>
<polygon fill="midnightblue" stroke="midnightblue" points="612.08,-72.8 621.78,-68.54 611.54,-65.82 612.08,-72.8"/>
</g>
<!-- Node24 -->
<g id="node24" class="node">
<title>Node24</title>
<g id="a_node24"><a xlink:title=" ">
<polygon fill="none" stroke="#bfbfbf" points="298,-112.5 298,-131.5 354,-131.5 354,-112.5 298,-112.5"/>
<text text-anchor="middle" x="326" y="-119.5" font-family="Helvetica" font-size="10.00">algorithm</text>
</a>
</g>
</g>
<!-- Node3&#45;&gt;Node24 -->
<g id="edge64" class="edge">
<title>Node3&#45;&gt;Node24</title>
<path fill="none" stroke="midnightblue" d="M1469.8,-344.53C1247.56,-342.41 412.39,-332.35 299,-300 246,-284.88 177.24,-273.74 201,-224 220.86,-182.43 267.11,-152.46 297.44,-136.43"/>
<polygon fill="midnightblue" stroke="midnightblue" points="299.36,-139.38 306.67,-131.72 296.17,-133.14 299.36,-139.38"/>
</g>
<!-- Node3&#45;&gt;Node25 -->
<g id="edge65" class="edge">
<title>Node3&#45;&gt;Node25</title>
<path fill="none" stroke="midnightblue" d="M1524.27,-336.3C1525.3,-303.63 1528.95,-187.87 1530.4,-141.96"/>
<polygon fill="midnightblue" stroke="midnightblue" points="1533.9,-141.99 1530.72,-131.88 1526.91,-141.77 1533.9,-141.99"/>
</g>
<!-- Node3&#45;&gt;Node26 -->
<g id="edge67" class="edge">
<title>Node3&#45;&gt;Node26</title>
<path fill="none" stroke="midnightblue" d="M1578.04,-342.21C1610.31,-337.66 1649.64,-326.54 1674,-300 1715,-255.34 1715.2,-177.35 1712.82,-141.72"/>
<polygon fill="midnightblue" stroke="midnightblue" points="1716.31,-141.42 1712.01,-131.73 1709.33,-141.98 1716.31,-141.42"/>
</g>
<!-- Node32 -->
<g id="node32" class="node">
<title>Node32</title>
<g id="a_node32"><a xlink:href="iterator__range_8h.html" target="_top" xlink:title="This provides a very simple, boring adaptor for a begin and end iterator into a range type.">
<polygon fill="none" stroke="black" points="486,-112.5 486,-131.5 614,-131.5 614,-112.5 486,-112.5"/>
<text text-anchor="middle" x="550" y="-119.5" font-family="Helvetica" font-size="10.00">llvm/ADT/iterator_range.h</text>
</a>
</g>
</g>
<!-- Node3&#45;&gt;Node32 -->
<g id="edge62" class="edge">
<title>Node3&#45;&gt;Node32</title>
<path fill="none" stroke="midnightblue" d="M1469.89,-345.17C1232.8,-345.34 293.64,-339.94 209,-244 203.12,-237.33 203.15,-230.69 209,-224 248.72,-178.61 423.27,-213.34 478,-188 502.02,-176.88 523.68,-154.92 536.83,-139.61"/>
<polygon fill="midnightblue" stroke="midnightblue" points="539.86,-141.44 543.54,-131.51 534.47,-136.98 539.86,-141.44"/>
</g>
<!-- Node38 -->
<g id="node38" class="node">
<title>Node38</title>
<g id="a_node38"><a xlink:title=" ">
<polygon fill="none" stroke="#bfbfbf" points="1478,-224.5 1478,-243.5 1518,-243.5 1518,-224.5 1478,-224.5"/>
<text text-anchor="middle" x="1498" y="-231.5" font-family="Helvetica" font-size="10.00">limits</text>
</a>
</g>
</g>
<!-- Node3&#45;&gt;Node38 -->
<g id="edge68" class="edge">
<title>Node3&#45;&gt;Node38</title>
<path fill="none" stroke="midnightblue" d="M1521.96,-336.37C1517.76,-318.62 1508.08,-277.67 1502.4,-253.6"/>
<polygon fill="midnightblue" stroke="midnightblue" points="1505.74,-252.52 1500.03,-243.59 1498.92,-254.13 1505.74,-252.52"/>
</g>
<!-- Node5 -->
<g id="node5" class="node">
<title>Node5</title>
<g id="a_node5"><a xlink:href="Optional_8h.html" target="_top" xlink:title=" ">
<polygon fill="none" stroke="black" points="1007,-224.5 1007,-243.5 1111,-243.5 1111,-224.5 1007,-224.5"/>
<text text-anchor="middle" x="1059" y="-231.5" font-family="Helvetica" font-size="10.00">llvm/ADT/Optional.h</text>
</a>
</g>
</g>
<!-- Node4&#45;&gt;Node5 -->
<g id="edge4" class="edge">
<title>Node4&#45;&gt;Node5</title>
<path fill="none" stroke="midnightblue" d="M775.4,-280.44C835.65,-270.79 933.51,-255.11 997.06,-244.92"/>
<polygon fill="midnightblue" stroke="midnightblue" points="997.64,-248.38 1006.96,-243.34 996.53,-241.47 997.64,-248.38"/>
</g>
<!-- Node12 -->
<g id="node12" class="node">
<title>Node12</title>
<g id="a_node12"><a xlink:href="llvm_2Support_2ErrorHandling_8h.html" target="_top" xlink:title=" ">
<polygon fill="none" stroke="black" points="1306.5,-112.5 1306.5,-131.5 1449.5,-131.5 1449.5,-112.5 1306.5,-112.5"/>
<text text-anchor="middle" x="1378" y="-119.5" font-family="Helvetica" font-size="10.00">llvm/Support/ErrorHandling.h</text>
</a>
</g>
</g>
<!-- Node4&#45;&gt;Node12 -->
<g id="edge48" class="edge">
<title>Node4&#45;&gt;Node12</title>
<path fill="none" stroke="midnightblue" d="M779.71,-287.97C858.07,-285.33 1001.9,-276.1 1120,-244 1179.14,-227.93 1190.5,-213.99 1246,-188 1283.09,-170.64 1325.49,-149.53 1352.01,-136.18"/>
<polygon fill="midnightblue" stroke="midnightblue" points="1353.67,-139.26 1361.02,-131.63 1350.51,-133.01 1353.67,-139.26"/>
</g>
<!-- Node4&#45;&gt;Node18 -->
<g id="edge51" class="edge">
<title>Node4&#45;&gt;Node18</title>
<path fill="none" stroke="midnightblue" d="M664.43,-288.26C530.33,-285.97 205.74,-277.05 170,-244 124.06,-201.51 175.7,-119.33 201.77,-83.92"/>
<polygon fill="midnightblue" stroke="midnightblue" points="204.81,-85.69 208.06,-75.6 199.23,-81.47 204.81,-85.69"/>
</g>
<!-- Node19 -->
<g id="node19" class="node">
<title>Node19</title>
<g id="a_node19"><a xlink:title=" ">
<polygon fill="none" stroke="#bfbfbf" points="452,-56.5 452,-75.5 498,-75.5 498,-56.5 452,-56.5"/>
<text text-anchor="middle" x="475" y="-63.5" font-family="Helvetica" font-size="10.00">cstdint</text>
</a>
</g>
</g>
<!-- Node4&#45;&gt;Node19 -->
<g id="edge52" class="edge">
<title>Node4&#45;&gt;Node19</title>
<path fill="none" stroke="midnightblue" d="M664.39,-288.23C536.8,-285.93 239.27,-277.04 209,-244 184.53,-217.29 104.66,-236.7 223,-112 252.44,-80.98 380.02,-71.17 441.56,-68.21"/>
<polygon fill="midnightblue" stroke="midnightblue" points="442.06,-71.69 451.89,-67.75 441.75,-64.7 442.06,-71.69"/>
</g>
<!-- Node4&#45;&gt;Node20 -->
<g id="edge60" class="edge">
<title>Node4&#45;&gt;Node20</title>
<path fill="none" stroke="midnightblue" d="M779.71,-288.07C954.75,-283.85 1473.27,-260.51 1565,-132 1622.27,-51.78 1223.15,-85.03 1125,-76 1109.86,-74.61 1093.28,-72.95 1078.62,-71.43"/>
<polygon fill="midnightblue" stroke="midnightblue" points="1078.65,-67.92 1068.35,-70.36 1077.93,-74.88 1078.65,-67.92"/>
</g>
<!-- Node4&#45;&gt;Node23 -->
<g id="edge61" class="edge">
<title>Node4&#45;&gt;Node23</title>
<path fill="none" stroke="midnightblue" d="M723.6,-280.4C725.62,-267.79 728.25,-243.63 723,-224 710.81,-178.41 691.15,-174.18 670,-132 662.18,-116.4 654.42,-98.1 649.06,-84.9"/>
<polygon fill="midnightblue" stroke="midnightblue" points="652.28,-83.54 645.32,-75.56 645.78,-86.14 652.28,-83.54"/>
</g>
<!-- Node4&#45;&gt;Node24 -->
<g id="edge49" class="edge">
<title>Node4&#45;&gt;Node24</title>
<path fill="none" stroke="midnightblue" d="M664.06,-282.42C616.79,-275.93 548.79,-264.02 492,-244 474,-237.66 471.36,-231.93 454,-224 414.07,-205.75 395.04,-216.92 362,-188 347.77,-175.54 338.03,-156.03 332.31,-141.63"/>
<polygon fill="midnightblue" stroke="midnightblue" points="335.43,-140 328.7,-131.82 328.86,-142.42 335.43,-140"/>
</g>
<!-- Node4&#45;&gt;Node25 -->
<g id="edge50" class="edge">
<title>Node4&#45;&gt;Node25</title>
<path fill="none" stroke="midnightblue" d="M779.57,-287.05C864.2,-283.31 1026.8,-272.73 1162,-244 1291,-216.59 1438.3,-160.42 1500.62,-135.45"/>
<polygon fill="midnightblue" stroke="midnightblue" points="1502.26,-138.56 1510.22,-131.58 1499.64,-132.07 1502.26,-138.56"/>
</g>
<!-- Node27 -->
<g id="node27" class="node">
<title>Node27</title>
<g id="a_node27"><a xlink:title=" ">
<polygon fill="none" stroke="#bfbfbf" points="708,-112.5 708,-131.5 746,-131.5 746,-112.5 708,-112.5"/>
<text text-anchor="middle" x="727" y="-119.5" font-family="Helvetica" font-size="10.00">tuple</text>
</a>
</g>
</g>
<!-- Node4&#45;&gt;Node27 -->
<g id="edge59" class="edge">
<title>Node4&#45;&gt;Node27</title>
<path fill="none" stroke="midnightblue" d="M737.78,-280.47C750.2,-272.77 766.61,-260.18 774,-244 780.3,-230.22 779.25,-190.95 769,-168 763.91,-156.61 754.74,-146.26 746.26,-138.36"/>
<polygon fill="midnightblue" stroke="midnightblue" points="748.33,-135.52 738.49,-131.58 743.73,-140.79 748.33,-135.52"/>
</g>
<!-- Node29 -->
<g id="node29" class="node">
<title>Node29</title>
<g id="a_node29"><a xlink:title=" ">
<polygon fill="none" stroke="#bfbfbf" points="821.5,-168.5 821.5,-187.5 874.5,-187.5 874.5,-168.5 821.5,-168.5"/>
<text text-anchor="middle" x="848" y="-175.5" font-family="Helvetica" font-size="10.00">memory</text>
</a>
</g>
</g>
<!-- Node4&#45;&gt;Node29 -->
<g id="edge58" class="edge">
<title>Node4&#45;&gt;Node29</title>
<path fill="none" stroke="midnightblue" d="M748.99,-280.39C768.36,-273.14 794.09,-261.17 812,-244 825.65,-230.91 835.48,-211.49 841.38,-197.29"/>
<polygon fill="midnightblue" stroke="midnightblue" points="844.77,-198.22 845.12,-187.63 838.24,-195.69 844.77,-198.22"/>
</g>
<!-- Node31 -->
<g id="node31" class="node">
<title>Node31</title>
<g id="a_node31"><a xlink:href="iterator_8h.html" target="_top" xlink:title=" ">
<polygon fill="none" stroke="black" points="371,-168.5 371,-187.5 469,-187.5 469,-168.5 371,-168.5"/>
<text text-anchor="middle" x="420" y="-175.5" font-family="Helvetica" font-size="10.00">llvm/ADT/iterator.h</text>
</a>
</g>
</g>
<!-- Node4&#45;&gt;Node31 -->
<g id="edge38" class="edge">
<title>Node4&#45;&gt;Node31</title>
<path fill="none" stroke="midnightblue" d="M669.62,-280.44C631.46,-273.24 578.96,-261.32 535,-244 500.31,-230.33 463.29,-207.8 440.9,-193.19"/>
<polygon fill="midnightblue" stroke="midnightblue" points="442.79,-190.24 432.52,-187.64 438.93,-196.08 442.79,-190.24"/>
</g>
<!-- Node4&#45;&gt;Node32 -->
<g id="edge46" class="edge">
<title>Node4&#45;&gt;Node32</title>
<path fill="none" stroke="midnightblue" d="M721.34,-280.16C719.95,-266.81 715.71,-241.22 703,-224 671.38,-181.17 615.76,-151.19 581,-135.55"/>
<polygon fill="midnightblue" stroke="midnightblue" points="582.35,-132.32 571.79,-131.52 579.55,-138.74 582.35,-132.32"/>
</g>
<!-- Node33 -->
<g id="node33" class="node">
<title>Node33</title>
<g id="a_node33"><a xlink:title=" ">
<polygon fill="none" stroke="#bfbfbf" points="232.5,-112.5 232.5,-131.5 279.5,-131.5 279.5,-112.5 232.5,-112.5"/>
<text text-anchor="middle" x="256" y="-119.5" font-family="Helvetica" font-size="10.00">iterator</text>
</a>
</g>
</g>
<!-- Node4&#45;&gt;Node33 -->
<g id="edge56" class="edge">
<title>Node4&#45;&gt;Node33</title>
<path fill="none" stroke="midnightblue" d="M664.25,-285.4C608.9,-280.55 523.72,-269.37 454,-244 437.53,-238 435.53,-232.13 420,-224 386.17,-206.3 374.75,-207.62 342,-188 316.98,-173.01 290.55,-152.18 273.7,-138.18"/>
<polygon fill="midnightblue" stroke="midnightblue" points="275.73,-135.31 265.82,-131.55 271.22,-140.67 275.73,-135.31"/>
</g>
<!-- Node34 -->
<g id="node34" class="node">
<title>Node34</title>
<g id="a_node34"><a xlink:title=" ">
<polygon fill="none" stroke="#bfbfbf" points="218,-224.5 218,-243.5 348,-243.5 348,-224.5 218,-224.5"/>
<text text-anchor="middle" x="283" y="-231.5" font-family="Helvetica" font-size="10.00">llvm/Config/abi&#45;breaking.h</text>
</a>
</g>
</g>
<!-- Node4&#45;&gt;Node34 -->
<g id="edge47" class="edge">
<title>Node4&#45;&gt;Node34</title>
<path fill="none" stroke="midnightblue" d="M664.16,-281.88C585.55,-272.22 444.86,-254.91 358.16,-244.25"/>
<polygon fill="midnightblue" stroke="midnightblue" points="358.47,-240.76 348.12,-243.01 357.62,-247.71 358.47,-240.76"/>
</g>
<!-- Node35 -->
<g id="node35" class="node">
<title>Node35</title>
<g id="a_node35"><a xlink:title=" ">
<polygon fill="none" stroke="#bfbfbf" points="366.5,-224.5 366.5,-243.5 411.5,-243.5 411.5,-224.5 366.5,-224.5"/>
<text text-anchor="middle" x="389" y="-231.5" font-family="Helvetica" font-size="10.00">cstdlib</text>
</a>
</g>
</g>
<!-- Node4&#45;&gt;Node35 -->
<g id="edge53" class="edge">
<title>Node4&#45;&gt;Node35</title>
<path fill="none" stroke="midnightblue" d="M664.44,-281.77C604.61,-273.9 508.36,-260.24 426,-244 424.54,-243.71 423.05,-243.41 421.55,-243.09"/>
<polygon fill="midnightblue" stroke="midnightblue" points="422.15,-239.63 411.63,-240.84 420.61,-246.46 422.15,-239.63"/>
</g>
<!-- Node36 -->
<g id="node36" class="node">
<title>Node36</title>
<g id="a_node36"><a xlink:title=" ">
<polygon fill="none" stroke="#bfbfbf" points="544.5,-224.5 544.5,-243.5 603.5,-243.5 603.5,-224.5 544.5,-224.5"/>
<text text-anchor="middle" x="574" y="-231.5" font-family="Helvetica" font-size="10.00">functional</text>
</a>
</g>
</g>
<!-- Node4&#45;&gt;Node36 -->
<g id="edge54" class="edge">
<title>Node4&#45;&gt;Node36</title>
<path fill="none" stroke="midnightblue" d="M698.55,-280.44C673.87,-271.44 634.81,-257.19 607.02,-247.05"/>
<polygon fill="midnightblue" stroke="midnightblue" points="607.94,-243.66 597.34,-243.52 605.54,-250.23 607.94,-243.66"/>
</g>
<!-- Node37 -->
<g id="node37" class="node">
<title>Node37</title>
<g id="a_node37"><a xlink:title=" ">
<polygon fill="none" stroke="#bfbfbf" points="622,-224.5 622,-243.5 694,-243.5 694,-224.5 622,-224.5"/>
<text text-anchor="middle" x="658" y="-231.5" font-family="Helvetica" font-size="10.00">initializer_list</text>
</a>
</g>
</g>
<!-- Node4&#45;&gt;Node37 -->
<g id="edge55" class="edge">
<title>Node4&#45;&gt;Node37</title>
<path fill="none" stroke="midnightblue" d="M711.72,-280.32C702.16,-272.26 687.72,-260.08 676.22,-250.37"/>
<polygon fill="midnightblue" stroke="midnightblue" points="678.37,-247.61 668.47,-243.83 673.86,-252.96 678.37,-247.61"/>
</g>
<!-- Node4&#45;&gt;Node38 -->
<g id="edge57" class="edge">
<title>Node4&#45;&gt;Node38</title>
<path fill="none" stroke="midnightblue" d="M779.68,-289.37C905.04,-289.34 1211.4,-284.68 1464,-244 1465.25,-243.8 1466.53,-243.57 1467.81,-243.32"/>
<polygon fill="midnightblue" stroke="midnightblue" points="1468.67,-246.72 1477.64,-241.09 1467.12,-239.89 1468.67,-246.72"/>
</g>
<!-- Node6 -->
<g id="node6" class="node">
<title>Node6</title>
<g id="a_node6"><a xlink:href="Hashing_8h.html" target="_top" xlink:title=" ">
<polygon fill="none" stroke="black" points="1133,-168.5 1133,-187.5 1237,-187.5 1237,-168.5 1133,-168.5"/>
<text text-anchor="middle" x="1185" y="-175.5" font-family="Helvetica" font-size="10.00">llvm/ADT/Hashing.h</text>
</a>
</g>
</g>
<!-- Node5&#45;&gt;Node6 -->
<g id="edge5" class="edge">
<title>Node5&#45;&gt;Node6</title>
<path fill="none" stroke="midnightblue" d="M1078.97,-224.44C1099.61,-215.6 1132.06,-201.69 1155.63,-191.59"/>
<polygon fill="midnightblue" stroke="midnightblue" points="1157.32,-194.67 1165.13,-187.52 1154.56,-188.24 1157.32,-194.67"/>
</g>
<!-- Node5&#45;&gt;Node13 -->
<g id="edge32" class="edge">
<title>Node5&#45;&gt;Node13</title>
<path fill="none" stroke="midnightblue" d="M1097.49,-224.43C1135.41,-215.82 1194.92,-201.87 1246,-188 1275.58,-179.97 1282.44,-176.12 1312,-168 1376.45,-150.3 1409.42,-177.9 1458,-132 1470.6,-120.1 1475.32,-100.48 1477.06,-85.9"/>
<polygon fill="midnightblue" stroke="midnightblue" points="1480.58,-85.79 1477.91,-75.54 1473.61,-85.22 1480.58,-85.79"/>
</g>
<!-- Node22 -->
<g id="node22" class="node">
<title>Node22</title>
<g id="a_node22"><a xlink:href="type__traits_8h.html" target="_top" xlink:title=" ">
<polygon fill="none" stroke="black" points="972.5,-112.5 972.5,-131.5 1101.5,-131.5 1101.5,-112.5 972.5,-112.5"/>
<text text-anchor="middle" x="1037" y="-119.5" font-family="Helvetica" font-size="10.00">llvm/Support/type_traits.h</text>
</a>
</g>
</g>
<!-- Node5&#45;&gt;Node22 -->
<g id="edge33" class="edge">
<title>Node5&#45;&gt;Node22</title>
<path fill="none" stroke="midnightblue" d="M1067.17,-224.1C1077.67,-211.52 1093.6,-187.85 1085,-168 1079.73,-155.84 1069.38,-145.46 1059.64,-137.74"/>
<polygon fill="midnightblue" stroke="midnightblue" points="1061.5,-134.77 1051.37,-131.67 1057.36,-140.41 1061.5,-134.77"/>
</g>
<!-- Node5&#45;&gt;Node23 -->
<g id="edge37" class="edge">
<title>Node5&#45;&gt;Node23</title>
<path fill="none" stroke="midnightblue" d="M1053.39,-224.46C1043.38,-210.04 1020.97,-181.14 994,-168 875.26,-110.14 815.78,-193.71 699,-132 678.34,-121.08 661.73,-99.4 651.88,-84.09"/>
<polygon fill="midnightblue" stroke="midnightblue" points="654.85,-82.24 646.65,-75.53 648.88,-85.89 654.85,-82.24"/>
</g>
<!-- Node5&#45;&gt;Node25 -->
<g id="edge34" class="edge">
<title>Node5&#45;&gt;Node25</title>
<path fill="none" stroke="midnightblue" d="M1111.2,-225.47C1162.6,-217.65 1243.19,-204.28 1312,-188 1377.92,-172.41 1453.37,-148.69 1496.28,-134.62"/>
<polygon fill="midnightblue" stroke="midnightblue" points="1497.55,-137.89 1505.96,-131.44 1495.36,-131.24 1497.55,-137.89"/>
</g>
<!-- Node28 -->
<g id="node28" class="node">
<title>Node28</title>
<g id="a_node28"><a xlink:href="None_8h.html" target="_top" xlink:title=" ">
<polygon fill="none" stroke="black" points="893,-168.5 893,-187.5 985,-187.5 985,-168.5 893,-168.5"/>
<text text-anchor="middle" x="939" y="-175.5" font-family="Helvetica" font-size="10.00">llvm/ADT/None.h</text>
</a>
</g>
</g>
<!-- Node5&#45;&gt;Node28 -->
<g id="edge31" class="edge">
<title>Node5&#45;&gt;Node28</title>
<path fill="none" stroke="midnightblue" d="M1039.99,-224.44C1020.41,-215.64 989.69,-201.81 967.27,-191.72"/>
<polygon fill="midnightblue" stroke="midnightblue" points="968.48,-188.43 957.93,-187.52 965.61,-194.81 968.48,-188.43"/>
</g>
<!-- Node5&#45;&gt;Node29 -->
<g id="edge35" class="edge">
<title>Node5&#45;&gt;Node29</title>
<path fill="none" stroke="midnightblue" d="M1025.57,-224.44C987.08,-214.59 924.09,-198.47 884.4,-188.32"/>
<polygon fill="midnightblue" stroke="midnightblue" points="885.15,-184.9 874.6,-185.81 883.42,-191.68 885.15,-184.9"/>
</g>
<!-- Node30 -->
<g id="node30" class="node">
<title>Node30</title>
<g id="a_node30"><a xlink:title=" ">
<polygon fill="none" stroke="#bfbfbf" points="1041.5,-168.5 1041.5,-187.5 1076.5,-187.5 1076.5,-168.5 1041.5,-168.5"/>
<text text-anchor="middle" x="1059" y="-175.5" font-family="Helvetica" font-size="10.00">new</text>
</a>
</g>
</g>
<!-- Node5&#45;&gt;Node30 -->
<g id="edge36" class="edge">
<title>Node5&#45;&gt;Node30</title>
<path fill="none" stroke="midnightblue" d="M1059,-224.08C1059,-217.01 1059,-206.86 1059,-197.99"/>
<polygon fill="midnightblue" stroke="midnightblue" points="1062.5,-197.75 1059,-187.75 1055.5,-197.75 1062.5,-197.75"/>
</g>
<!-- Node7 -->
<g id="node7" class="node">
<title>Node7</title>
<g id="a_node7"><a xlink:href="llvm_2Support_2DataTypes_8h.html" target="_top" xlink:title=" ">
<polygon fill="none" stroke="black" points="1120,-112.5 1120,-131.5 1250,-131.5 1250,-112.5 1120,-112.5"/>
<text text-anchor="middle" x="1185" y="-119.5" font-family="Helvetica" font-size="10.00">llvm/Support/DataTypes.h</text>
</a>
</g>
</g>
<!-- Node6&#45;&gt;Node7 -->
<g id="edge6" class="edge">
<title>Node6&#45;&gt;Node7</title>
<path fill="none" stroke="midnightblue" d="M1185,-168.08C1185,-161.01 1185,-150.86 1185,-141.99"/>
<polygon fill="midnightblue" stroke="midnightblue" points="1188.5,-141.75 1185,-131.75 1181.5,-141.75 1188.5,-141.75"/>
</g>
<!-- Node6&#45;&gt;Node12 -->
<g id="edge11" class="edge">
<title>Node6&#45;&gt;Node12</title>
<path fill="none" stroke="midnightblue" d="M1215.58,-168.44C1248.61,-159.2 1301.39,-144.44 1337.77,-134.26"/>
<polygon fill="midnightblue" stroke="midnightblue" points="1338.87,-137.58 1347.56,-131.52 1336.99,-130.84 1338.87,-137.58"/>
</g>
<!-- Node6&#45;&gt;Node16 -->
<g id="edge28" class="edge">
<title>Node6&#45;&gt;Node16</title>
<path fill="none" stroke="midnightblue" d="M1199.45,-168.5C1220.74,-156 1261.81,-131.98 1297,-112 1315.94,-101.24 1337.51,-89.27 1353.63,-80.39"/>
<polygon fill="midnightblue" stroke="midnightblue" points="1355.35,-83.43 1362.42,-75.54 1351.98,-77.3 1355.35,-83.43"/>
</g>
<!-- Node17 -->
<g id="node17" class="node">
<title>Node17</title>
<g id="a_node17"><a xlink:href="SwapByteOrder_8h.html" target="_top" xlink:title=" ">
<polygon fill="none" stroke="black" points="764,-112.5 764,-131.5 916,-131.5 916,-112.5 764,-112.5"/>
<text text-anchor="middle" x="840" y="-119.5" font-family="Helvetica" font-size="10.00">llvm/Support/SwapByteOrder.h</text>
</a>
</g>
</g>
<!-- Node6&#45;&gt;Node17 -->
<g id="edge16" class="edge">
<title>Node6&#45;&gt;Node17</title>
<path fill="none" stroke="midnightblue" d="M1132.98,-168.86C1071.96,-159.31 970.77,-143.47 904.73,-133.13"/>
<polygon fill="midnightblue" stroke="midnightblue" points="904.86,-129.61 894.44,-131.52 903.78,-136.53 904.86,-129.61"/>
</g>
<!-- Node6&#45;&gt;Node22 -->
<g id="edge21" class="edge">
<title>Node6&#45;&gt;Node22</title>
<path fill="none" stroke="midnightblue" d="M1161.55,-168.44C1136.87,-159.44 1097.81,-145.19 1070.02,-135.05"/>
<polygon fill="midnightblue" stroke="midnightblue" points="1070.94,-131.66 1060.34,-131.52 1068.54,-138.23 1070.94,-131.66"/>
</g>
<!-- Node6&#45;&gt;Node23 -->
<g id="edge30" class="edge">
<title>Node6&#45;&gt;Node23</title>
<path fill="none" stroke="midnightblue" d="M1132.73,-170.69C1087.01,-164.16 1019.31,-152.06 963,-132 945.02,-125.6 943.11,-118.02 925,-112 836.01,-82.4 724.62,-71.99 672.08,-68.56"/>
<polygon fill="midnightblue" stroke="midnightblue" points="672.28,-65.07 662.08,-67.95 671.85,-72.06 672.28,-65.07"/>
</g>
<!-- Node6&#45;&gt;Node24 -->
<g id="edge25" class="edge">
<title>Node6&#45;&gt;Node24</title>
<path fill="none" stroke="midnightblue" d="M1132.86,-172C1117.46,-170.61 1100.56,-169.16 1085,-168 815.05,-147.87 747.22,-148.05 477,-132 438.66,-129.72 394.84,-127.11 364.32,-125.29"/>
<polygon fill="midnightblue" stroke="midnightblue" points="364.3,-121.78 354.11,-124.68 363.88,-128.77 364.3,-121.78"/>
</g>
<!-- Node6&#45;&gt;Node25 -->
<g id="edge26" class="edge">
<title>Node6&#45;&gt;Node25</title>
<path fill="none" stroke="midnightblue" d="M1237.17,-168.86C1308.56,-157.72 1434.76,-138.02 1495.88,-128.48"/>
<polygon fill="midnightblue" stroke="midnightblue" points="1496.47,-131.93 1505.81,-126.93 1495.39,-125.02 1496.47,-131.93"/>
</g>
<!-- Node6&#45;&gt;Node26 -->
<g id="edge27" class="edge">
<title>Node6&#45;&gt;Node26</title>
<path fill="none" stroke="midnightblue" d="M1237.36,-171.62C1345.11,-160.56 1588.98,-135.53 1677.82,-126.41"/>
<polygon fill="midnightblue" stroke="midnightblue" points="1678.28,-129.88 1687.87,-125.37 1677.57,-122.91 1678.28,-129.88"/>
</g>
<!-- Node6&#45;&gt;Node27 -->
<g id="edge29" class="edge">
<title>Node6&#45;&gt;Node27</title>
<path fill="none" stroke="midnightblue" d="M1132.77,-172.15C1032.76,-162.77 819.18,-142.3 756.34,-131.66"/>
<polygon fill="midnightblue" stroke="midnightblue" points="756.62,-128.15 746.14,-129.73 755.31,-135.03 756.62,-128.15"/>
</g>
<!-- Node8 -->
<g id="node8" class="node">
<title>Node8</title>
<g id="a_node8"><a xlink:href="llvm-c_2DataTypes_8h.html" target="_top" xlink:title=" ">
<polygon fill="none" stroke="black" points="1134.5,-56.5 1134.5,-75.5 1235.5,-75.5 1235.5,-56.5 1134.5,-56.5"/>
<text text-anchor="middle" x="1185" y="-63.5" font-family="Helvetica" font-size="10.00">llvm&#45;c/DataTypes.h</text>
</a>
</g>
</g>
<!-- Node7&#45;&gt;Node8 -->
<g id="edge7" class="edge">
<title>Node7&#45;&gt;Node8</title>
<path fill="none" stroke="midnightblue" d="M1185,-112.08C1185,-105.01 1185,-94.86 1185,-85.99"/>
<polygon fill="midnightblue" stroke="midnightblue" points="1188.5,-85.75 1185,-75.75 1181.5,-85.75 1188.5,-85.75"/>
</g>
<!-- Node9 -->
<g id="node9" class="node">
<title>Node9</title>
<g id="a_node9"><a xlink:title=" ">
<polygon fill="none" stroke="#bfbfbf" points="1083.5,-0.5 1083.5,-19.5 1142.5,-19.5 1142.5,-0.5 1083.5,-0.5"/>
<text text-anchor="middle" x="1113" y="-7.5" font-family="Helvetica" font-size="10.00">inttypes.h</text>
</a>
</g>
</g>
<!-- Node8&#45;&gt;Node9 -->
<g id="edge8" class="edge">
<title>Node8&#45;&gt;Node9</title>
<path fill="none" stroke="midnightblue" d="M1173.43,-56.32C1162.58,-48.18 1146.12,-35.84 1133.12,-26.09"/>
<polygon fill="midnightblue" stroke="midnightblue" points="1134.88,-23.03 1124.78,-19.83 1130.68,-28.63 1134.88,-23.03"/>
</g>
<!-- Node10 -->
<g id="node10" class="node">
<title>Node10</title>
<g id="a_node10"><a xlink:title=" ">
<polygon fill="none" stroke="#bfbfbf" points="1161,-0.5 1161,-19.5 1209,-19.5 1209,-0.5 1161,-0.5"/>
<text text-anchor="middle" x="1185" y="-7.5" font-family="Helvetica" font-size="10.00">stdint.h</text>
</a>
</g>
</g>
<!-- Node8&#45;&gt;Node10 -->
<g id="edge9" class="edge">
<title>Node8&#45;&gt;Node10</title>
<path fill="none" stroke="midnightblue" d="M1185,-56.08C1185,-49.01 1185,-38.86 1185,-29.99"/>
<polygon fill="midnightblue" stroke="midnightblue" points="1188.5,-29.75 1185,-19.75 1181.5,-29.75 1188.5,-29.75"/>
</g>
<!-- Node11 -->
<g id="node11" class="node">
<title>Node11</title>
<g id="a_node11"><a xlink:title=" ">
<polygon fill="none" stroke="#bfbfbf" points="1227,-0.5 1227,-19.5 1293,-19.5 1293,-0.5 1227,-0.5"/>
<text text-anchor="middle" x="1260" y="-7.5" font-family="Helvetica" font-size="10.00">sys/types.h</text>
</a>
</g>
</g>
<!-- Node8&#45;&gt;Node11 -->
<g id="edge10" class="edge">
<title>Node8&#45;&gt;Node11</title>
<path fill="none" stroke="midnightblue" d="M1197.05,-56.32C1208.46,-48.11 1225.83,-35.6 1239.43,-25.81"/>
<polygon fill="midnightblue" stroke="midnightblue" points="1241.66,-28.52 1247.73,-19.83 1237.57,-22.84 1241.66,-28.52"/>
</g>
<!-- Node12&#45;&gt;Node13 -->
<g id="edge12" class="edge">
<title>Node12&#45;&gt;Node13</title>
<path fill="none" stroke="midnightblue" d="M1394.07,-112.32C1409.96,-103.74 1434.51,-90.49 1452.96,-80.52"/>
<polygon fill="midnightblue" stroke="midnightblue" points="1454.84,-83.49 1461.97,-75.65 1451.51,-77.33 1454.84,-83.49"/>
</g>
<!-- Node12&#45;&gt;Node16 -->
<g id="edge15" class="edge">
<title>Node12&#45;&gt;Node16</title>
<path fill="none" stroke="midnightblue" d="M1378,-112.08C1378,-105.01 1378,-94.86 1378,-85.99"/>
<polygon fill="midnightblue" stroke="midnightblue" points="1381.5,-85.75 1378,-75.75 1374.5,-85.75 1381.5,-85.75"/>
</g>
<!-- Node14 -->
<g id="node14" class="node">
<title>Node14</title>
<g id="a_node14"><a xlink:title=" ">
<polygon fill="none" stroke="#bfbfbf" points="1468.5,-0.5 1468.5,-19.5 1593.5,-19.5 1593.5,-0.5 1468.5,-0.5"/>
<text text-anchor="middle" x="1531" y="-7.5" font-family="Helvetica" font-size="10.00">llvm/Config/llvm&#45;config.h</text>
</a>
</g>
</g>
<!-- Node13&#45;&gt;Node14 -->
<g id="edge13" class="edge">
<title>Node13&#45;&gt;Node14</title>
<path fill="none" stroke="midnightblue" d="M1486.75,-56.08C1494.47,-48.22 1505.9,-36.57 1515.22,-27.08"/>
<polygon fill="midnightblue" stroke="midnightblue" points="1517.9,-29.34 1522.41,-19.75 1512.91,-24.44 1517.9,-29.34"/>
</g>
<!-- Node15 -->
<g id="node15" class="node">
<title>Node15</title>
<g id="a_node15"><a xlink:title=" ">
<polygon fill="none" stroke="#bfbfbf" points="1399.5,-0.5 1399.5,-19.5 1450.5,-19.5 1450.5,-0.5 1399.5,-0.5"/>
<text text-anchor="middle" x="1425" y="-7.5" font-family="Helvetica" font-size="10.00">stddef.h</text>
</a>
</g>
</g>
<!-- Node13&#45;&gt;Node15 -->
<g id="edge14" class="edge">
<title>Node13&#45;&gt;Node15</title>
<path fill="none" stroke="midnightblue" d="M1469.25,-56.08C1461.53,-48.22 1450.1,-36.57 1440.78,-27.08"/>
<polygon fill="midnightblue" stroke="midnightblue" points="1443.09,-24.44 1433.59,-19.75 1438.1,-29.34 1443.09,-24.44"/>
</g>
<!-- Node17&#45;&gt;Node18 -->
<g id="edge17" class="edge">
<title>Node17&#45;&gt;Node18</title>
<path fill="none" stroke="midnightblue" d="M763.55,-112.82C760.67,-112.54 757.81,-112.27 755,-112 564.37,-93.97 335.5,-76.16 249.71,-69.62"/>
<polygon fill="midnightblue" stroke="midnightblue" points="249.74,-66.11 239.51,-68.85 249.21,-73.09 249.74,-66.11"/>
</g>
<!-- Node17&#45;&gt;Node19 -->
<g id="edge18" class="edge">
<title>Node17&#45;&gt;Node19</title>
<path fill="none" stroke="midnightblue" d="M782.16,-112.44C704.83,-101 570.27,-81.09 508.16,-71.91"/>
<polygon fill="midnightblue" stroke="midnightblue" points="508.54,-68.42 498.13,-70.42 507.51,-75.35 508.54,-68.42"/>
</g>
<!-- Node17&#45;&gt;Node20 -->
<g id="edge19" class="edge">
<title>Node17&#45;&gt;Node20</title>
<path fill="none" stroke="midnightblue" d="M871.22,-112.44C904.93,-103.2 958.8,-88.44 995.93,-78.26"/>
<polygon fill="midnightblue" stroke="midnightblue" points="997.21,-81.54 1005.93,-75.52 995.36,-74.78 997.21,-81.54"/>
</g>
<!-- Node21 -->
<g id="node21" class="node">
<title>Node21</title>
<g id="a_node21"><a xlink:title=" ">
<polygon fill="none" stroke="#bfbfbf" points="793.5,-56.5 793.5,-75.5 886.5,-75.5 886.5,-56.5 793.5,-56.5"/>
<text text-anchor="middle" x="840" y="-63.5" font-family="Helvetica" font-size="10.00">machine/endian.h</text>
</a>
</g>
</g>
<!-- Node17&#45;&gt;Node21 -->
<g id="edge20" class="edge">
<title>Node17&#45;&gt;Node21</title>
<path fill="none" stroke="midnightblue" d="M840,-112.08C840,-105.01 840,-94.86 840,-85.99"/>
<polygon fill="midnightblue" stroke="midnightblue" points="843.5,-85.75 840,-75.75 836.5,-85.75 843.5,-85.75"/>
</g>
<!-- Node22&#45;&gt;Node13 -->
<g id="edge22" class="edge">
<title>Node22&#45;&gt;Node13</title>
<path fill="none" stroke="midnightblue" d="M1101.91,-113.11C1195.94,-101.67 1362.87,-81.38 1406.74,-76.01"/>
<polygon fill="midnightblue" stroke="midnightblue" points="1407.31,-79.47 1416.81,-74.78 1406.46,-72.52 1407.31,-79.47"/>
</g>
<!-- Node22&#45;&gt;Node20 -->
<g id="edge23" class="edge">
<title>Node22&#45;&gt;Node20</title>
<path fill="none" stroke="midnightblue" d="M1037,-112.08C1037,-105.01 1037,-94.86 1037,-85.99"/>
<polygon fill="midnightblue" stroke="midnightblue" points="1040.5,-85.75 1037,-75.75 1033.5,-85.75 1040.5,-85.75"/>
</g>
<!-- Node22&#45;&gt;Node23 -->
<g id="edge24" class="edge">
<title>Node22&#45;&gt;Node23</title>
<path fill="none" stroke="midnightblue" d="M974.41,-112.44C888.28,-100.67 736.56,-79.93 672.21,-71.13"/>
<polygon fill="midnightblue" stroke="midnightblue" points="672.69,-67.66 662.3,-69.78 671.74,-74.6 672.69,-67.66"/>
</g>
<!-- Node31&#45;&gt;Node18 -->
<g id="edge42" class="edge">
<title>Node31&#45;&gt;Node18</title>
<path fill="none" stroke="midnightblue" d="M414.81,-168.47C405.92,-154.59 386.46,-127.14 363,-112 328.03,-89.43 281.16,-77.7 249.61,-71.95"/>
<polygon fill="midnightblue" stroke="midnightblue" points="249.99,-68.46 239.54,-70.22 248.81,-75.36 249.99,-68.46"/>
</g>
<!-- Node31&#45;&gt;Node20 -->
<g id="edge44" class="edge">
<title>Node31&#45;&gt;Node20</title>
<path fill="none" stroke="midnightblue" d="M424.59,-168.36C432.86,-153.78 451.79,-124.67 477,-112 488.59,-106.18 867.75,-78.95 995.48,-69.92"/>
<polygon fill="midnightblue" stroke="midnightblue" points="995.91,-73.4 1005.64,-69.2 995.42,-66.41 995.91,-73.4"/>
</g>
<!-- Node31&#45;&gt;Node23 -->
<g id="edge45" class="edge">
<title>Node31&#45;&gt;Node23</title>
<path fill="none" stroke="midnightblue" d="M420.63,-168.39C422.13,-154.38 427.18,-126.76 444,-112 468.75,-90.28 562.8,-76.3 611.84,-70.33"/>
<polygon fill="midnightblue" stroke="midnightblue" points="612.34,-73.79 621.86,-69.14 611.52,-66.84 612.34,-73.79"/>
</g>
<!-- Node31&#45;&gt;Node24 -->
<g id="edge41" class="edge">
<title>Node31&#45;&gt;Node24</title>
<path fill="none" stroke="midnightblue" d="M404.9,-168.32C390.1,-159.82 367.31,-146.73 350.02,-136.8"/>
<polygon fill="midnightblue" stroke="midnightblue" points="351.48,-133.6 341.07,-131.65 347.99,-139.67 351.48,-133.6"/>
</g>
<!-- Node31&#45;&gt;Node32 -->
<g id="edge39" class="edge">
<title>Node31&#45;&gt;Node32</title>
<path fill="none" stroke="midnightblue" d="M440.6,-168.44C461.99,-159.56 495.68,-145.56 520.02,-135.45"/>
<polygon fill="midnightblue" stroke="midnightblue" points="521.61,-138.58 529.5,-131.52 518.92,-132.12 521.61,-138.58"/>
</g>
<!-- Node31&#45;&gt;Node33 -->
<g id="edge43" class="edge">
<title>Node31&#45;&gt;Node33</title>
<path fill="none" stroke="midnightblue" d="M394.01,-168.44C365.77,-159.15 320.56,-144.26 289.63,-134.07"/>
<polygon fill="midnightblue" stroke="midnightblue" points="290.33,-130.62 279.73,-130.82 288.14,-137.27 290.33,-130.62"/>
</g>
<!-- Node32&#45;&gt;Node23 -->
<g id="edge40" class="edge">
<title>Node32&#45;&gt;Node23</title>
<path fill="none" stroke="midnightblue" d="M564.78,-112.32C579.27,-103.82 601.57,-90.73 618.49,-80.8"/>
<polygon fill="midnightblue" stroke="midnightblue" points="620.4,-83.74 627.26,-75.65 616.86,-77.7 620.4,-83.74"/>
</g>
</g>
</svg>
