<?xml version="1.0" encoding="UTF-8" standalone="no"?>
<!DOCTYPE svg PUBLIC "-//W3C//DTD SVG 1.1//EN"
 "http://www.w3.org/Graphics/SVG/1.1/DTD/svg11.dtd">
<!-- Generated by graphviz version 2.44.0 (0)
 -->
<!-- Title: include/llvm/Analysis/LoopUnrollAnalyzer.h Pages: 1 -->
<svg width="308pt" height="106pt"
 viewBox="0.00 0.00 307.50 106.00" xmlns="http://www.w3.org/2000/svg" xmlns:xlink="http://www.w3.org/1999/xlink">
<g id="graph0" class="graph" transform="scale(1 1) rotate(0) translate(4 102)">
<title>include/llvm/Analysis/LoopUnrollAnalyzer.h</title>
<!-- Node1 -->
<g id="node1" class="node">
<title>Node1</title>
<g id="a_node1"><a xlink:title=" ">
<polygon fill="#bfbfbf" stroke="black" points="109,-67.5 109,-97.5 221,-97.5 221,-67.5 109,-67.5"/>
<text text-anchor="start" x="117" y="-85.5" font-family="Helvetica" font-size="10.00">include/llvm/Analysis</text>
<text text-anchor="middle" x="165" y="-74.5" font-family="Helvetica" font-size="10.00">/LoopUnrollAnalyzer.h</text>
</a>
</g>
</g>
<!-- Node2 -->
<g id="node2" class="node">
<title>Node2</title>
<g id="a_node2"><a xlink:href="LoopUnrollAnalyzer_8cpp.html" target="_top" xlink:title=" ">
<polygon fill="none" stroke="black" points="0,-6 0,-25 172,-25 172,-6 0,-6"/>
<text text-anchor="middle" x="86" y="-13" font-family="Helvetica" font-size="10.00">lib/Analysis/LoopUnrollAnalyzer.cpp</text>
</a>
</g>
</g>
<!-- Node1&#45;&gt;Node2 -->
<g id="edge1" class="edge">
<title>Node1&#45;&gt;Node2</title>
<path fill="none" stroke="midnightblue" d="M140.09,-61.01C125.43,-48.94 107.64,-34.3 96.57,-25.19"/>
<polygon fill="midnightblue" stroke="midnightblue" points="137.91,-63.75 147.86,-67.4 142.36,-58.34 137.91,-63.75"/>
</g>
<!-- Node3 -->
<g id="node3" class="node">
<title>Node3</title>
<g id="a_node3"><a xlink:href="LoopUnrollPass_8cpp.html" target="_top" xlink:title=" ">
<polygon fill="none" stroke="black" points="190.5,-0.5 190.5,-30.5 299.5,-30.5 299.5,-0.5 190.5,-0.5"/>
<text text-anchor="start" x="198.5" y="-18.5" font-family="Helvetica" font-size="10.00">lib/Transforms/Scalar</text>
<text text-anchor="middle" x="245" y="-7.5" font-family="Helvetica" font-size="10.00">/LoopUnrollPass.cpp</text>
</a>
</g>
</g>
<!-- Node1&#45;&gt;Node3 -->
<g id="edge2" class="edge">
<title>Node1&#45;&gt;Node3</title>
<path fill="none" stroke="midnightblue" d="M190.37,-60.88C202.53,-51.01 216.78,-39.43 227.68,-30.58"/>
<polygon fill="midnightblue" stroke="midnightblue" points="187.91,-58.37 182.36,-67.4 192.33,-63.81 187.91,-58.37"/>
</g>
</g>
</svg>
