<?xml version="1.0" encoding="UTF-8" standalone="no"?>
<!DOCTYPE svg PUBLIC "-//W3C//DTD SVG 1.1//EN"
 "http://www.w3.org/Graphics/SVG/1.1/DTD/svg11.dtd">
<!-- Generated by graphviz version 2.44.0 (0)
 -->
<!-- Title: include/llvm/CodeGen/MachineBranchProbabilityInfo.h Pages: 1 -->
<svg width="3778pt" height="173pt"
 viewBox="0.00 0.00 3777.50 173.00" xmlns="http://www.w3.org/2000/svg" xmlns:xlink="http://www.w3.org/1999/xlink">
<g id="graph0" class="graph" transform="scale(1 1) rotate(0) translate(4 169)">
<title>include/llvm/CodeGen/MachineBranchProbabilityInfo.h</title>
<!-- Node1 -->
<g id="node1" class="node">
<title>Node1</title>
<g id="a_node1"><a xlink:title=" ">
<polygon fill="#bfbfbf" stroke="black" points="2012,-134.5 2012,-164.5 2170,-164.5 2170,-134.5 2012,-134.5"/>
<text text-anchor="start" x="2020" y="-152.5" font-family="Helvetica" font-size="10.00">include/llvm/CodeGen</text>
<text text-anchor="middle" x="2091" y="-141.5" font-family="Helvetica" font-size="10.00">/MachineBranchProbabilityInfo.h</text>
</a>
</g>
</g>
<!-- Node2 -->
<g id="node2" class="node">
<title>Node2</title>
<g id="a_node2"><a xlink:href="LazyMachineBlockFrequencyInfo_8h.html" target="_top" xlink:title="===&#45; LazyMachineBlockFrequencyInfo.h &#45; Lazy Block Frequency &#45;*&#45; C++ &#45;*–===//">
<polygon fill="none" stroke="black" points="534.5,-67.5 534.5,-97.5 707.5,-97.5 707.5,-67.5 534.5,-67.5"/>
<text text-anchor="start" x="542.5" y="-85.5" font-family="Helvetica" font-size="10.00">include/llvm/CodeGen</text>
<text text-anchor="middle" x="621" y="-74.5" font-family="Helvetica" font-size="10.00">/LazyMachineBlockFrequencyInfo.h</text>
</a>
</g>
</g>
<!-- Node1&#45;&gt;Node2 -->
<g id="edge1" class="edge">
<title>Node1&#45;&gt;Node2</title>
<path fill="none" stroke="midnightblue" d="M2001.63,-148.71C1782.3,-148.47 1200.11,-143.22 717,-98 713.9,-97.71 710.74,-97.39 707.55,-97.03"/>
<polygon fill="midnightblue" stroke="midnightblue" points="2001.8,-152.21 2011.8,-148.72 2001.8,-145.21 2001.8,-152.21"/>
</g>
<!-- Node6 -->
<g id="node6" class="node">
<title>Node6</title>
<g id="a_node6"><a xlink:href="TailDuplication_8cpp.html" target="_top" xlink:title=" ">
<polygon fill="none" stroke="black" points="0,-6 0,-25 156,-25 156,-6 0,-6"/>
<text text-anchor="middle" x="78" y="-13" font-family="Helvetica" font-size="10.00">lib/CodeGen/TailDuplication.cpp</text>
</a>
</g>
</g>
<!-- Node1&#45;&gt;Node6 -->
<g id="edge19" class="edge">
<title>Node1&#45;&gt;Node6</title>
<path fill="none" stroke="midnightblue" d="M2001.23,-147.35C1713.31,-143.38 815.04,-128.78 526,-98 371.73,-81.57 190.71,-42.43 114.61,-25.06"/>
<polygon fill="midnightblue" stroke="midnightblue" points="2001.57,-150.85 2011.62,-147.49 2001.67,-143.85 2001.57,-150.85"/>
</g>
<!-- Node11 -->
<g id="node11" class="node">
<title>Node11</title>
<g id="a_node11"><a xlink:href="BranchFolding_8cpp.html" target="_top" xlink:title=" ">
<polygon fill="none" stroke="black" points="725.5,-73 725.5,-92 880.5,-92 880.5,-73 725.5,-73"/>
<text text-anchor="middle" x="803" y="-80" font-family="Helvetica" font-size="10.00">lib/CodeGen/BranchFolding.cpp</text>
</a>
</g>
</g>
<!-- Node1&#45;&gt;Node11 -->
<g id="edge10" class="edge">
<title>Node1&#45;&gt;Node11</title>
<path fill="none" stroke="midnightblue" d="M2001.56,-148.5C1801.7,-147.67 1303.92,-141.03 890,-98 876.14,-96.56 861.14,-94.31 847.56,-92.01"/>
<polygon fill="midnightblue" stroke="midnightblue" points="2001.7,-152 2011.71,-148.53 2001.72,-145 2001.7,-152"/>
</g>
<!-- Node12 -->
<g id="node12" class="node">
<title>Node12</title>
<g id="a_node12"><a xlink:href="EarlyIfConversion_8cpp.html" target="_top" xlink:title=" ">
<polygon fill="none" stroke="black" points="899,-73 899,-92 1069,-92 1069,-73 899,-73"/>
<text text-anchor="middle" x="984" y="-80" font-family="Helvetica" font-size="10.00">lib/CodeGen/EarlyIfConversion.cpp</text>
</a>
</g>
</g>
<!-- Node1&#45;&gt;Node12 -->
<g id="edge11" class="edge">
<title>Node1&#45;&gt;Node12</title>
<path fill="none" stroke="midnightblue" d="M2001.72,-147.09C1825.09,-143.63 1418.73,-132.31 1079,-98 1064.23,-96.51 1048.24,-94.3 1033.68,-92.06"/>
<polygon fill="midnightblue" stroke="midnightblue" points="2001.67,-150.59 2011.74,-147.28 2001.81,-143.59 2001.67,-150.59"/>
</g>
<!-- Node13 -->
<g id="node13" class="node">
<title>Node13</title>
<g id="a_node13"><a xlink:href="RegBankSelect_8cpp.html" target="_top" xlink:title="This file implements the RegBankSelect class.">
<polygon fill="none" stroke="black" points="1087.5,-67.5 1087.5,-97.5 1206.5,-97.5 1206.5,-67.5 1087.5,-67.5"/>
<text text-anchor="start" x="1095.5" y="-85.5" font-family="Helvetica" font-size="10.00">lib/CodeGen/GlobalISel</text>
<text text-anchor="middle" x="1147" y="-74.5" font-family="Helvetica" font-size="10.00">/RegBankSelect.cpp</text>
</a>
</g>
</g>
<!-- Node1&#45;&gt;Node13 -->
<g id="edge12" class="edge">
<title>Node1&#45;&gt;Node13</title>
<path fill="none" stroke="midnightblue" d="M2001.7,-147.74C1842.94,-145.42 1501.4,-136.01 1216,-98 1212.97,-97.6 1209.87,-97.13 1206.74,-96.63"/>
<polygon fill="midnightblue" stroke="midnightblue" points="2001.85,-151.24 2011.89,-147.89 2001.94,-144.25 2001.85,-151.24"/>
</g>
<!-- Node14 -->
<g id="node14" class="node">
<title>Node14</title>
<g id="a_node14"><a xlink:href="IfConversion_8cpp.html" target="_top" xlink:title=" ">
<polygon fill="none" stroke="black" points="1225,-73 1225,-92 1373,-92 1373,-73 1225,-73"/>
<text text-anchor="middle" x="1299" y="-80" font-family="Helvetica" font-size="10.00">lib/CodeGen/IfConversion.cpp</text>
</a>
</g>
</g>
<!-- Node1&#45;&gt;Node14 -->
<g id="edge13" class="edge">
<title>Node1&#45;&gt;Node14</title>
<path fill="none" stroke="midnightblue" d="M2001.66,-144.99C1867.11,-139.05 1604.6,-124.96 1383,-98 1370.07,-96.43 1356.11,-94.22 1343.34,-92.01"/>
<polygon fill="midnightblue" stroke="midnightblue" points="2001.77,-148.5 2011.91,-145.44 2002.08,-141.5 2001.77,-148.5"/>
</g>
<!-- Node15 -->
<g id="node15" class="node">
<title>Node15</title>
<g id="a_node15"><a xlink:href="MachineBlockFrequencyInfo_8cpp.html" target="_top" xlink:title=" ">
<polygon fill="none" stroke="black" points="1391.5,-67.5 1391.5,-97.5 1526.5,-97.5 1526.5,-67.5 1391.5,-67.5"/>
<text text-anchor="start" x="1399.5" y="-85.5" font-family="Helvetica" font-size="10.00">lib/CodeGen/MachineBlock</text>
<text text-anchor="middle" x="1459" y="-74.5" font-family="Helvetica" font-size="10.00">FrequencyInfo.cpp</text>
</a>
</g>
</g>
<!-- Node1&#45;&gt;Node15 -->
<g id="edge14" class="edge">
<title>Node1&#45;&gt;Node15</title>
<path fill="none" stroke="midnightblue" d="M2001.64,-143C1891.71,-135.64 1699.55,-120.79 1536,-98 1532.9,-97.57 1529.74,-97.1 1526.55,-96.6"/>
<polygon fill="midnightblue" stroke="midnightblue" points="2001.48,-146.5 2011.69,-143.67 2001.94,-139.52 2001.48,-146.5"/>
</g>
<!-- Node16 -->
<g id="node16" class="node">
<title>Node16</title>
<g id="a_node16"><a xlink:href="MachineBlockPlacement_8cpp.html" target="_top" xlink:title=" ">
<polygon fill="none" stroke="black" points="1544.5,-67.5 1544.5,-97.5 1679.5,-97.5 1679.5,-67.5 1544.5,-67.5"/>
<text text-anchor="start" x="1552.5" y="-85.5" font-family="Helvetica" font-size="10.00">lib/CodeGen/MachineBlock</text>
<text text-anchor="middle" x="1612" y="-74.5" font-family="Helvetica" font-size="10.00">Placement.cpp</text>
</a>
</g>
</g>
<!-- Node1&#45;&gt;Node16 -->
<g id="edge15" class="edge">
<title>Node1&#45;&gt;Node16</title>
<path fill="none" stroke="midnightblue" d="M2001.62,-138.86C1920.01,-129.68 1796.12,-114.8 1689,-98 1685.91,-97.52 1682.75,-97 1679.57,-96.47"/>
<polygon fill="midnightblue" stroke="midnightblue" points="2001.52,-142.37 2011.85,-140 2002.3,-135.41 2001.52,-142.37"/>
</g>
<!-- Node17 -->
<g id="node17" class="node">
<title>Node17</title>
<g id="a_node17"><a xlink:href="MachineBranchProbabilityInfo_8cpp.html" target="_top" xlink:title=" ">
<polygon fill="none" stroke="black" points="1697.5,-67.5 1697.5,-97.5 1838.5,-97.5 1838.5,-67.5 1697.5,-67.5"/>
<text text-anchor="start" x="1705.5" y="-85.5" font-family="Helvetica" font-size="10.00">lib/CodeGen/MachineBranch</text>
<text text-anchor="middle" x="1768" y="-74.5" font-family="Helvetica" font-size="10.00">ProbabilityInfo.cpp</text>
</a>
</g>
</g>
<!-- Node1&#45;&gt;Node17 -->
<g id="edge16" class="edge">
<title>Node1&#45;&gt;Node17</title>
<path fill="none" stroke="midnightblue" d="M2011.24,-132.45C1958.07,-121.75 1888.84,-107.82 1837.84,-97.55"/>
<polygon fill="midnightblue" stroke="midnightblue" points="2010.82,-135.93 2021.31,-134.48 2012.2,-129.07 2010.82,-135.93"/>
</g>
<!-- Node18 -->
<g id="node18" class="node">
<title>Node18</title>
<g id="a_node18"><a xlink:href="MachineSink_8cpp.html" target="_top" xlink:title=" ">
<polygon fill="none" stroke="black" points="1856.5,-73 1856.5,-92 2005.5,-92 2005.5,-73 1856.5,-73"/>
<text text-anchor="middle" x="1931" y="-80" font-family="Helvetica" font-size="10.00">lib/CodeGen/MachineSink.cpp</text>
</a>
</g>
</g>
<!-- Node1&#45;&gt;Node18 -->
<g id="edge17" class="edge">
<title>Node1&#45;&gt;Node18</title>
<path fill="none" stroke="midnightblue" d="M2046.99,-130.62C2016.02,-118.04 1975.96,-101.77 1951.94,-92.01"/>
<polygon fill="midnightblue" stroke="midnightblue" points="2045.7,-133.87 2056.28,-134.4 2048.34,-127.39 2045.7,-133.87"/>
</g>
<!-- Node19 -->
<g id="node19" class="node">
<title>Node19</title>
<g id="a_node19"><a xlink:href="MachineTraceMetrics_8cpp.html" target="_top" xlink:title=" ">
<polygon fill="none" stroke="black" points="2024,-67.5 2024,-97.5 2158,-97.5 2158,-67.5 2024,-67.5"/>
<text text-anchor="start" x="2032" y="-85.5" font-family="Helvetica" font-size="10.00">lib/CodeGen/MachineTrace</text>
<text text-anchor="middle" x="2091" y="-74.5" font-family="Helvetica" font-size="10.00">Metrics.cpp</text>
</a>
</g>
</g>
<!-- Node1&#45;&gt;Node19 -->
<g id="edge18" class="edge">
<title>Node1&#45;&gt;Node19</title>
<path fill="none" stroke="midnightblue" d="M2091,-124.11C2091,-115.15 2091,-105.32 2091,-97.58"/>
<polygon fill="midnightblue" stroke="midnightblue" points="2087.5,-124.4 2091,-134.4 2094.5,-124.4 2087.5,-124.4"/>
</g>
<!-- Node20 -->
<g id="node20" class="node">
<title>Node20</title>
<g id="a_node20"><a xlink:href="TailDuplicator_8cpp.html" target="_top" xlink:title=" ">
<polygon fill="none" stroke="black" points="2176,-73 2176,-92 2328,-92 2328,-73 2176,-73"/>
<text text-anchor="middle" x="2252" y="-80" font-family="Helvetica" font-size="10.00">lib/CodeGen/TailDuplicator.cpp</text>
</a>
</g>
</g>
<!-- Node1&#45;&gt;Node20 -->
<g id="edge20" class="edge">
<title>Node1&#45;&gt;Node20</title>
<path fill="none" stroke="midnightblue" d="M2135.28,-130.62C2166.45,-118.04 2206.76,-101.77 2230.93,-92.01"/>
<polygon fill="midnightblue" stroke="midnightblue" points="2133.9,-127.41 2125.93,-134.4 2136.52,-133.9 2133.9,-127.41"/>
</g>
<!-- Node21 -->
<g id="node21" class="node">
<title>Node21</title>
<g id="a_node21"><a xlink:href="AArch64ConditionalCompares_8cpp.html" target="_top" xlink:title=" ">
<polygon fill="none" stroke="black" points="2346,-67.5 2346,-97.5 2516,-97.5 2516,-67.5 2346,-67.5"/>
<text text-anchor="start" x="2354" y="-85.5" font-family="Helvetica" font-size="10.00">lib/Target/AArch64</text>
<text text-anchor="middle" x="2431" y="-74.5" font-family="Helvetica" font-size="10.00">/AArch64ConditionalCompares.cpp</text>
</a>
</g>
</g>
<!-- Node1&#45;&gt;Node21 -->
<g id="edge21" class="edge">
<title>Node1&#45;&gt;Node21</title>
<path fill="none" stroke="midnightblue" d="M2174.26,-132.58C2230.32,-121.86 2303.58,-107.86 2357.48,-97.55"/>
<polygon fill="midnightblue" stroke="midnightblue" points="2173.52,-129.16 2164.36,-134.48 2174.84,-136.04 2173.52,-129.16"/>
</g>
<!-- Node22 -->
<g id="node22" class="node">
<title>Node22</title>
<g id="a_node22"><a xlink:href="AArch64StackTaggingPreRA_8cpp.html" target="_top" xlink:title=" ">
<polygon fill="none" stroke="black" points="2534,-67.5 2534,-97.5 2698,-97.5 2698,-67.5 2534,-67.5"/>
<text text-anchor="start" x="2542" y="-85.5" font-family="Helvetica" font-size="10.00">lib/Target/AArch64</text>
<text text-anchor="middle" x="2616" y="-74.5" font-family="Helvetica" font-size="10.00">/AArch64StackTaggingPreRA.cpp</text>
</a>
</g>
</g>
<!-- Node1&#45;&gt;Node22 -->
<g id="edge22" class="edge">
<title>Node1&#45;&gt;Node22</title>
<path fill="none" stroke="midnightblue" d="M2180.52,-139.2C2268.37,-129.81 2406.09,-114.38 2525,-98 2527.85,-97.61 2530.75,-97.2 2533.68,-96.78"/>
<polygon fill="midnightblue" stroke="midnightblue" points="2179.89,-135.75 2170.32,-140.29 2180.64,-142.71 2179.89,-135.75"/>
</g>
<!-- Node23 -->
<g id="node23" class="node">
<title>Node23</title>
<g id="a_node23"><a xlink:href="HexagonCFGOptimizer_8cpp.html" target="_top" xlink:title=" ">
<polygon fill="none" stroke="black" points="2716.5,-67.5 2716.5,-97.5 2855.5,-97.5 2855.5,-67.5 2716.5,-67.5"/>
<text text-anchor="start" x="2724.5" y="-85.5" font-family="Helvetica" font-size="10.00">lib/Target/Hexagon</text>
<text text-anchor="middle" x="2786" y="-74.5" font-family="Helvetica" font-size="10.00">/HexagonCFGOptimizer.cpp</text>
</a>
</g>
</g>
<!-- Node1&#45;&gt;Node23 -->
<g id="edge23" class="edge">
<title>Node1&#45;&gt;Node23</title>
<path fill="none" stroke="midnightblue" d="M2180.27,-143.98C2300.37,-137.26 2520.43,-122.71 2707,-98 2710.04,-97.6 2713.14,-97.16 2716.27,-96.69"/>
<polygon fill="midnightblue" stroke="midnightblue" points="2179.82,-140.5 2170.03,-144.55 2180.21,-147.49 2179.82,-140.5"/>
</g>
<!-- Node24 -->
<g id="node24" class="node">
<title>Node24</title>
<g id="a_node24"><a xlink:href="HexagonEarlyIfConv_8cpp.html" target="_top" xlink:title=" ">
<polygon fill="none" stroke="black" points="2874,-67.5 2874,-97.5 3002,-97.5 3002,-67.5 2874,-67.5"/>
<text text-anchor="start" x="2882" y="-85.5" font-family="Helvetica" font-size="10.00">lib/Target/Hexagon</text>
<text text-anchor="middle" x="2938" y="-74.5" font-family="Helvetica" font-size="10.00">/HexagonEarlyIfConv.cpp</text>
</a>
</g>
</g>
<!-- Node1&#45;&gt;Node24 -->
<g id="edge24" class="edge">
<title>Node1&#45;&gt;Node24</title>
<path fill="none" stroke="midnightblue" d="M2180.31,-146.47C2324.76,-142.33 2618.41,-130.39 2865,-98 2867.95,-97.61 2870.95,-97.18 2873.98,-96.71"/>
<polygon fill="midnightblue" stroke="midnightblue" points="2180.06,-142.97 2170.17,-146.75 2180.26,-149.97 2180.06,-142.97"/>
</g>
<!-- Node25 -->
<g id="node25" class="node">
<title>Node25</title>
<g id="a_node25"><a xlink:href="HexagonInstrInfo_8cpp.html" target="_top" xlink:title=" ">
<polygon fill="none" stroke="black" points="3020.5,-67.5 3020.5,-97.5 3133.5,-97.5 3133.5,-67.5 3020.5,-67.5"/>
<text text-anchor="start" x="3028.5" y="-85.5" font-family="Helvetica" font-size="10.00">lib/Target/Hexagon</text>
<text text-anchor="middle" x="3077" y="-74.5" font-family="Helvetica" font-size="10.00">/HexagonInstrInfo.cpp</text>
</a>
</g>
</g>
<!-- Node1&#45;&gt;Node25 -->
<g id="edge25" class="edge">
<title>Node1&#45;&gt;Node25</title>
<path fill="none" stroke="midnightblue" d="M2180.26,-148.37C2345.14,-147.08 2708.27,-139.29 3011,-98 3014.02,-97.59 3017.11,-97.11 3020.22,-96.58"/>
<polygon fill="midnightblue" stroke="midnightblue" points="2180.14,-144.87 2170.17,-148.44 2180.19,-151.87 2180.14,-144.87"/>
</g>
<!-- Node26 -->
<g id="node26" class="node">
<title>Node26</title>
<g id="a_node26"><a xlink:href="HexagonNewValueJump_8cpp.html" target="_top" xlink:title=" ">
<polygon fill="none" stroke="black" points="3151.5,-67.5 3151.5,-97.5 3296.5,-97.5 3296.5,-67.5 3151.5,-67.5"/>
<text text-anchor="start" x="3159.5" y="-85.5" font-family="Helvetica" font-size="10.00">lib/Target/Hexagon</text>
<text text-anchor="middle" x="3224" y="-74.5" font-family="Helvetica" font-size="10.00">/HexagonNewValueJump.cpp</text>
</a>
</g>
</g>
<!-- Node1&#45;&gt;Node26 -->
<g id="edge26" class="edge">
<title>Node1&#45;&gt;Node26</title>
<path fill="none" stroke="midnightblue" d="M2180.17,-148.1C2361.89,-146.42 2787.92,-138.13 3143,-98 3145.7,-97.7 3148.44,-97.36 3151.21,-96.99"/>
<polygon fill="midnightblue" stroke="midnightblue" points="2180.1,-144.6 2170.13,-148.19 2180.16,-151.6 2180.1,-144.6"/>
</g>
<!-- Node27 -->
<g id="node27" class="node">
<title>Node27</title>
<g id="a_node27"><a xlink:href="HexagonVLIWPacketizer_8cpp.html" target="_top" xlink:title=" ">
<polygon fill="none" stroke="black" points="3314.5,-67.5 3314.5,-97.5 3459.5,-97.5 3459.5,-67.5 3314.5,-67.5"/>
<text text-anchor="start" x="3322.5" y="-85.5" font-family="Helvetica" font-size="10.00">lib/Target/Hexagon</text>
<text text-anchor="middle" x="3387" y="-74.5" font-family="Helvetica" font-size="10.00">/HexagonVLIWPacketizer.cpp</text>
</a>
</g>
</g>
<!-- Node1&#45;&gt;Node27 -->
<g id="edge27" class="edge">
<title>Node1&#45;&gt;Node27</title>
<path fill="none" stroke="midnightblue" d="M2180.41,-148.92C2381.93,-148.97 2886.75,-144.02 3306,-98 3308.7,-97.7 3311.44,-97.37 3314.21,-97.01"/>
<polygon fill="midnightblue" stroke="midnightblue" points="2180.17,-145.42 2170.17,-148.92 2180.17,-152.42 2180.17,-145.42"/>
</g>
<!-- Node28 -->
<g id="node28" class="node">
<title>Node28</title>
<g id="a_node28"><a xlink:href="MipsDelaySlotFiller_8cpp.html" target="_top" xlink:title=" ">
<polygon fill="none" stroke="black" points="3478,-67.5 3478,-97.5 3608,-97.5 3608,-67.5 3478,-67.5"/>
<text text-anchor="start" x="3486" y="-85.5" font-family="Helvetica" font-size="10.00">lib/Target/Mips/MipsDelay</text>
<text text-anchor="middle" x="3543" y="-74.5" font-family="Helvetica" font-size="10.00">SlotFiller.cpp</text>
</a>
</g>
</g>
<!-- Node1&#45;&gt;Node28 -->
<g id="edge28" class="edge">
<title>Node1&#45;&gt;Node28</title>
<path fill="none" stroke="midnightblue" d="M2180.77,-147.05C2445.17,-142.49 3218.19,-126.99 3469,-98 3471.86,-97.67 3474.78,-97.29 3477.72,-96.87"/>
<polygon fill="midnightblue" stroke="midnightblue" points="2180.38,-143.56 2170.44,-147.23 2180.5,-150.56 2180.38,-143.56"/>
</g>
<!-- Node29 -->
<g id="node29" class="node">
<title>Node29</title>
<g id="a_node29"><a xlink:href="PPCReduceCRLogicals_8cpp.html" target="_top" xlink:title=" ">
<polygon fill="none" stroke="black" points="3626.5,-67.5 3626.5,-97.5 3769.5,-97.5 3769.5,-67.5 3626.5,-67.5"/>
<text text-anchor="start" x="3634.5" y="-85.5" font-family="Helvetica" font-size="10.00">lib/Target/PowerPC</text>
<text text-anchor="middle" x="3698" y="-74.5" font-family="Helvetica" font-size="10.00">/PPCReduceCRLogicals.cpp</text>
</a>
</g>
</g>
<!-- Node1&#45;&gt;Node29 -->
<g id="edge29" class="edge">
<title>Node1&#45;&gt;Node29</title>
<path fill="none" stroke="midnightblue" d="M2180.49,-147.23C2463.3,-142.96 3335.77,-127.67 3617,-98 3619.98,-97.69 3623.02,-97.32 3626.09,-96.93"/>
<polygon fill="midnightblue" stroke="midnightblue" points="2180.22,-143.74 2170.27,-147.39 2180.32,-150.74 2180.22,-143.74"/>
</g>
<!-- Node3 -->
<g id="node3" class="node">
<title>Node3</title>
<g id="a_node3"><a xlink:href="LazyMachineBlockFrequencyInfo_8cpp.html" target="_top" xlink:title="===&#45; LazyMachineBlockFrequencyInfo.cpp &#45; Lazy Machine Block Frequency –===//">
<polygon fill="none" stroke="black" points="174.5,-0.5 174.5,-30.5 331.5,-30.5 331.5,-0.5 174.5,-0.5"/>
<text text-anchor="start" x="182.5" y="-18.5" font-family="Helvetica" font-size="10.00">lib/CodeGen/LazyMachineBlock</text>
<text text-anchor="middle" x="253" y="-7.5" font-family="Helvetica" font-size="10.00">FrequencyInfo.cpp</text>
</a>
</g>
</g>
<!-- Node2&#45;&gt;Node3 -->
<g id="edge2" class="edge">
<title>Node2&#45;&gt;Node3</title>
<path fill="none" stroke="midnightblue" d="M531.58,-65.71C470.49,-54.91 390.28,-40.75 331.62,-30.39"/>
<polygon fill="midnightblue" stroke="midnightblue" points="531.15,-69.18 541.6,-67.48 532.36,-62.29 531.15,-69.18"/>
</g>
<!-- Node4 -->
<g id="node4" class="node">
<title>Node4</title>
<g id="a_node4"><a xlink:href="MachineCombiner_8cpp.html" target="_top" xlink:title=" ">
<polygon fill="none" stroke="black" points="349.5,-6 349.5,-25 520.5,-25 520.5,-6 349.5,-6"/>
<text text-anchor="middle" x="435" y="-13" font-family="Helvetica" font-size="10.00">lib/CodeGen/MachineCombiner.cpp</text>
</a>
</g>
</g>
<!-- Node2&#45;&gt;Node4 -->
<g id="edge3" class="edge">
<title>Node2&#45;&gt;Node4</title>
<path fill="none" stroke="midnightblue" d="M570.77,-63.95C534.64,-51.32 487.51,-34.85 459.34,-25.01"/>
<polygon fill="midnightblue" stroke="midnightblue" points="570.05,-67.4 580.64,-67.4 572.36,-60.79 570.05,-67.4"/>
</g>
<!-- Node5 -->
<g id="node5" class="node">
<title>Node5</title>
<g id="a_node5"><a xlink:href="MachineOptimizationRemarkEmitter_8cpp.html" target="_top" xlink:title="===&#45; MachineOptimizationRemarkEmitter.cpp &#45; Opt Diagnostic &#45;*&#45; C++ &#45;*—===//">
<polygon fill="none" stroke="black" points="538.5,-0.5 538.5,-30.5 703.5,-30.5 703.5,-0.5 538.5,-0.5"/>
<text text-anchor="start" x="546.5" y="-18.5" font-family="Helvetica" font-size="10.00">lib/CodeGen/MachineOptimization</text>
<text text-anchor="middle" x="621" y="-7.5" font-family="Helvetica" font-size="10.00">RemarkEmitter.cpp</text>
</a>
</g>
</g>
<!-- Node2&#45;&gt;Node5 -->
<g id="edge4" class="edge">
<title>Node2&#45;&gt;Node5</title>
<path fill="none" stroke="midnightblue" d="M621,-57.11C621,-48.15 621,-38.32 621,-30.58"/>
<polygon fill="midnightblue" stroke="midnightblue" points="617.5,-57.4 621,-67.4 624.5,-57.4 617.5,-57.4"/>
</g>
<!-- Node2&#45;&gt;Node6 -->
<g id="edge5" class="edge">
<title>Node2&#45;&gt;Node6</title>
<path fill="none" stroke="midnightblue" d="M524.08,-72.32C431.63,-63.2 288.57,-48.13 165,-31 152.41,-29.26 138.84,-27.12 126.25,-25.03"/>
<polygon fill="midnightblue" stroke="midnightblue" points="523.96,-75.83 534.25,-73.32 524.64,-68.86 523.96,-75.83"/>
</g>
<!-- Node7 -->
<g id="node7" class="node">
<title>Node7</title>
<g id="a_node7"><a xlink:href="X86FixupBWInsts_8cpp.html" target="_top" xlink:title="This file defines the pass that looks through the machine instructions late in the compilation,...">
<polygon fill="none" stroke="black" points="721.5,-6 721.5,-25 898.5,-25 898.5,-6 721.5,-6"/>
<text text-anchor="middle" x="810" y="-13" font-family="Helvetica" font-size="10.00">lib/Target/X86/X86FixupBWInsts.cpp</text>
</a>
</g>
</g>
<!-- Node2&#45;&gt;Node7 -->
<g id="edge6" class="edge">
<title>Node2&#45;&gt;Node7</title>
<path fill="none" stroke="midnightblue" d="M671.57,-64.11C708.34,-51.46 756.52,-34.89 785.26,-25.01"/>
<polygon fill="midnightblue" stroke="midnightblue" points="670.33,-60.83 662.01,-67.4 672.6,-67.45 670.33,-60.83"/>
</g>
<!-- Node8 -->
<g id="node8" class="node">
<title>Node8</title>
<g id="a_node8"><a xlink:href="X86FixupLEAs_8cpp.html" target="_top" xlink:title=" ">
<polygon fill="none" stroke="black" points="917,-6 917,-25 1081,-25 1081,-6 917,-6"/>
<text text-anchor="middle" x="999" y="-13" font-family="Helvetica" font-size="10.00">lib/Target/X86/X86FixupLEAs.cpp</text>
</a>
</g>
</g>
<!-- Node2&#45;&gt;Node8 -->
<g id="edge7" class="edge">
<title>Node2&#45;&gt;Node8</title>
<path fill="none" stroke="midnightblue" d="M712.42,-65.78C786.93,-52.97 889.33,-35.36 949.4,-25.03"/>
<polygon fill="midnightblue" stroke="midnightblue" points="711.82,-62.33 702.55,-67.48 713,-69.23 711.82,-62.33"/>
</g>
<!-- Node9 -->
<g id="node9" class="node">
<title>Node9</title>
<g id="a_node9"><a xlink:href="X86OptimizeLEAs_8cpp.html" target="_top" xlink:title=" ">
<polygon fill="none" stroke="black" points="1099.5,-0.5 1099.5,-30.5 1234.5,-30.5 1234.5,-0.5 1099.5,-0.5"/>
<text text-anchor="start" x="1107.5" y="-18.5" font-family="Helvetica" font-size="10.00">lib/Target/X86/X86Optimize</text>
<text text-anchor="middle" x="1167" y="-7.5" font-family="Helvetica" font-size="10.00">LEAs.cpp</text>
</a>
</g>
</g>
<!-- Node2&#45;&gt;Node9 -->
<g id="edge8" class="edge">
<title>Node2&#45;&gt;Node9</title>
<path fill="none" stroke="midnightblue" d="M717.67,-66.97C884.01,-46.85 928.33,-53.98 1090,-31 1093.1,-30.56 1096.26,-30.08 1099.45,-29.58"/>
<polygon fill="midnightblue" stroke="midnightblue" points="717.08,-63.52 707.58,-68.2 717.93,-70.46 717.08,-63.52"/>
</g>
<!-- Node10 -->
<g id="node10" class="node">
<title>Node10</title>
<g id="a_node10"><a xlink:href="X86PadShortFunction_8cpp.html" target="_top" xlink:title=" ">
<polygon fill="none" stroke="black" points="1253,-0.5 1253,-30.5 1391,-30.5 1391,-0.5 1253,-0.5"/>
<text text-anchor="start" x="1261" y="-18.5" font-family="Helvetica" font-size="10.00">lib/Target/X86/X86PadShort</text>
<text text-anchor="middle" x="1322" y="-7.5" font-family="Helvetica" font-size="10.00">Function.cpp</text>
</a>
</g>
</g>
<!-- Node2&#45;&gt;Node10 -->
<g id="edge9" class="edge">
<title>Node2&#45;&gt;Node10</title>
<path fill="none" stroke="midnightblue" d="M717.77,-66.99C952.13,-41.98 1014.39,-60.09 1244,-31 1246.87,-30.64 1249.79,-30.24 1252.74,-29.8"/>
<polygon fill="midnightblue" stroke="midnightblue" points="717.13,-63.54 707.56,-68.09 717.88,-70.5 717.13,-63.54"/>
</g>
</g>
</svg>
