<?xml version="1.0" encoding="UTF-8" standalone="no"?>
<!DOCTYPE svg PUBLIC "-//W3C//DTD SVG 1.1//EN"
 "http://www.w3.org/Graphics/SVG/1.1/DTD/svg11.dtd">
<!-- Generated by graphviz version 2.44.0 (0)
 -->
<!-- Title: include/llvm/MC/MCWasmObjectWriter.h Pages: 1 -->
<svg width="866pt" height="117pt"
 viewBox="0.00 0.00 865.50 117.00" xmlns="http://www.w3.org/2000/svg" xmlns:xlink="http://www.w3.org/1999/xlink">
<g id="graph0" class="graph" transform="scale(1 1) rotate(0) translate(4 113)">
<title>include/llvm/MC/MCWasmObjectWriter.h</title>
<!-- Node1 -->
<g id="node1" class="node">
<title>Node1</title>
<g id="a_node1"><a xlink:title=" ">
<polygon fill="#bfbfbf" stroke="black" points="316.5,-78.5 316.5,-108.5 477.5,-108.5 477.5,-78.5 316.5,-78.5"/>
<text text-anchor="start" x="324.5" y="-96.5" font-family="Helvetica" font-size="10.00">include/llvm/MC/MCWasmObject</text>
<text text-anchor="middle" x="397" y="-85.5" font-family="Helvetica" font-size="10.00">Writer.h</text>
</a>
</g>
</g>
<!-- Node2 -->
<g id="node2" class="node">
<title>Node2</title>
<g id="a_node2"><a xlink:href="MCAsmBackend_8cpp.html" target="_top" xlink:title=" ">
<polygon fill="none" stroke="black" points="0,-11.5 0,-30.5 140,-30.5 140,-11.5 0,-11.5"/>
<text text-anchor="middle" x="70" y="-18.5" font-family="Helvetica" font-size="10.00">lib/MC/MCAsmBackend.cpp</text>
</a>
</g>
</g>
<!-- Node1&#45;&gt;Node2 -->
<g id="edge1" class="edge">
<title>Node1&#45;&gt;Node2</title>
<path fill="none" stroke="midnightblue" d="M313.48,-76.51C265.29,-67.03 203.59,-54.46 149,-42 133.55,-38.47 116.5,-34.2 102.2,-30.52"/>
<polygon fill="midnightblue" stroke="midnightblue" points="313.07,-80 323.56,-78.49 314.42,-73.13 313.07,-80"/>
</g>
<!-- Node3 -->
<g id="node3" class="node">
<title>Node3</title>
<g id="a_node3"><a xlink:href="MCWasmObjectTargetWriter_8cpp.html" target="_top" xlink:title=" ">
<polygon fill="none" stroke="black" points="158,-6 158,-36 304,-36 304,-6 158,-6"/>
<text text-anchor="start" x="166" y="-24" font-family="Helvetica" font-size="10.00">lib/MC/MCWasmObjectTarget</text>
<text text-anchor="middle" x="231" y="-13" font-family="Helvetica" font-size="10.00">Writer.cpp</text>
</a>
</g>
</g>
<!-- Node1&#45;&gt;Node3 -->
<g id="edge2" class="edge">
<title>Node1&#45;&gt;Node3</title>
<path fill="none" stroke="midnightblue" d="M354.25,-74.34C326.18,-62.42 290.02,-47.07 264.14,-36.07"/>
<polygon fill="midnightblue" stroke="midnightblue" points="353.23,-77.72 363.81,-78.4 355.97,-71.27 353.23,-77.72"/>
</g>
<!-- Node4 -->
<g id="node4" class="node">
<title>Node4</title>
<g id="a_node4"><a xlink:href="WasmObjectWriter_8cpp.html" target="_top" xlink:title=" ">
<polygon fill="none" stroke="black" points="322.5,-11.5 322.5,-30.5 471.5,-30.5 471.5,-11.5 322.5,-11.5"/>
<text text-anchor="middle" x="397" y="-18.5" font-family="Helvetica" font-size="10.00">lib/MC/WasmObjectWriter.cpp</text>
</a>
</g>
</g>
<!-- Node1&#45;&gt;Node4 -->
<g id="edge3" class="edge">
<title>Node1&#45;&gt;Node4</title>
<path fill="none" stroke="midnightblue" d="M397,-68.09C397,-55.21 397,-40.2 397,-30.89"/>
<polygon fill="midnightblue" stroke="midnightblue" points="393.5,-68.23 397,-78.23 400.5,-68.23 393.5,-68.23"/>
</g>
<!-- Node5 -->
<g id="node5" class="node">
<title>Node5</title>
<g id="a_node5"><a xlink:href="WebAssemblyAsmBackend_8cpp.html" target="_top" xlink:title="This file implements the WebAssemblyAsmBackend class.">
<polygon fill="none" stroke="black" points="489.5,-0.5 489.5,-41.5 660.5,-41.5 660.5,-0.5 489.5,-0.5"/>
<text text-anchor="start" x="497.5" y="-29.5" font-family="Helvetica" font-size="10.00">lib/Target/WebAssembly</text>
<text text-anchor="start" x="497.5" y="-18.5" font-family="Helvetica" font-size="10.00">/MCTargetDesc/WebAssemblyAsm</text>
<text text-anchor="middle" x="575" y="-7.5" font-family="Helvetica" font-size="10.00">Backend.cpp</text>
</a>
</g>
</g>
<!-- Node1&#45;&gt;Node5 -->
<g id="edge4" class="edge">
<title>Node1&#45;&gt;Node5</title>
<path fill="none" stroke="midnightblue" d="M442.03,-74.67C467.53,-64.57 499.47,-51.92 525.65,-41.55"/>
<polygon fill="midnightblue" stroke="midnightblue" points="440.6,-71.47 432.59,-78.4 443.18,-77.97 440.6,-71.47"/>
</g>
<!-- Node6 -->
<g id="node6" class="node">
<title>Node6</title>
<g id="a_node6"><a xlink:href="WebAssemblyWasmObjectWriter_8cpp.html" target="_top" xlink:title="This file handles Wasm&#45;specific object emission, converting LLVM&#39;s internal fixups into the appropria...">
<polygon fill="none" stroke="black" points="678.5,-0.5 678.5,-41.5 857.5,-41.5 857.5,-0.5 678.5,-0.5"/>
<text text-anchor="start" x="686.5" y="-29.5" font-family="Helvetica" font-size="10.00">lib/Target/WebAssembly</text>
<text text-anchor="start" x="686.5" y="-18.5" font-family="Helvetica" font-size="10.00">/MCTargetDesc/WebAssemblyWasm</text>
<text text-anchor="middle" x="768" y="-7.5" font-family="Helvetica" font-size="10.00">ObjectWriter.cpp</text>
</a>
</g>
</g>
<!-- Node1&#45;&gt;Node6 -->
<g id="edge5" class="edge">
<title>Node1&#45;&gt;Node6</title>
<path fill="none" stroke="midnightblue" d="M485.17,-76.61C538.68,-66.87 608.33,-54 670,-42 672.73,-41.47 675.5,-40.93 678.29,-40.38"/>
<polygon fill="midnightblue" stroke="midnightblue" points="484.24,-73.23 475.03,-78.46 485.5,-80.11 484.24,-73.23"/>
</g>
</g>
</svg>
