<?xml version="1.0" encoding="UTF-8" standalone="no"?>
<!DOCTYPE svg PUBLIC "-//W3C//DTD SVG 1.1//EN"
 "http://www.w3.org/Graphics/SVG/1.1/DTD/svg11.dtd">
<!-- Generated by graphviz version 2.44.0 (0)
 -->
<!-- Title: lib/Target/Mips/MipsAsmPrinter.h Pages: 1 -->
<svg width="336pt" height="95pt"
 viewBox="0.00 0.00 335.50 95.00" xmlns="http://www.w3.org/2000/svg" xmlns:xlink="http://www.w3.org/1999/xlink">
<g id="graph0" class="graph" transform="scale(1 1) rotate(0) translate(4 91)">
<title>lib/Target/Mips/MipsAsmPrinter.h</title>
<!-- Node1 -->
<g id="node1" class="node">
<title>Node1</title>
<g id="a_node1"><a xlink:title=" ">
<polygon fill="#bfbfbf" stroke="black" points="91.5,-67.5 91.5,-86.5 252.5,-86.5 252.5,-67.5 91.5,-67.5"/>
<text text-anchor="middle" x="172" y="-74.5" font-family="Helvetica" font-size="10.00">lib/Target/Mips/MipsAsmPrinter.h</text>
</a>
</g>
</g>
<!-- Node2 -->
<g id="node2" class="node">
<title>Node2</title>
<g id="a_node2"><a xlink:href="MipsAsmPrinter_8cpp.html" target="_top" xlink:title=" ">
<polygon fill="none" stroke="black" points="0,-6 0,-25 172,-25 172,-6 0,-6"/>
<text text-anchor="middle" x="86" y="-13" font-family="Helvetica" font-size="10.00">lib/Target/Mips/MipsAsmPrinter.cpp</text>
</a>
</g>
</g>
<!-- Node1&#45;&gt;Node2 -->
<g id="edge1" class="edge">
<title>Node1&#45;&gt;Node2</title>
<path fill="none" stroke="midnightblue" d="M151.2,-61.61C134.66,-50.17 112.08,-34.55 98.3,-25.01"/>
<polygon fill="midnightblue" stroke="midnightblue" points="149.46,-64.66 159.68,-67.48 153.45,-58.91 149.46,-64.66"/>
</g>
<!-- Node3 -->
<g id="node3" class="node">
<title>Node3</title>
<g id="a_node3"><a xlink:href="MipsMCInstLower_8cpp.html" target="_top" xlink:title=" ">
<polygon fill="none" stroke="black" points="190.5,-0.5 190.5,-30.5 327.5,-30.5 327.5,-0.5 190.5,-0.5"/>
<text text-anchor="start" x="198.5" y="-18.5" font-family="Helvetica" font-size="10.00">lib/Target/Mips/MipsMCInst</text>
<text text-anchor="middle" x="259" y="-7.5" font-family="Helvetica" font-size="10.00">Lower.cpp</text>
</a>
</g>
</g>
<!-- Node1&#45;&gt;Node3 -->
<g id="edge2" class="edge">
<title>Node1&#45;&gt;Node3</title>
<path fill="none" stroke="midnightblue" d="M192.85,-61.74C206.68,-52.28 224.74,-39.93 238.5,-30.52"/>
<polygon fill="midnightblue" stroke="midnightblue" points="190.74,-58.94 184.46,-67.48 194.7,-64.72 190.74,-58.94"/>
</g>
</g>
</svg>
