<?xml version="1.0" encoding="UTF-8" standalone="no"?>
<!DOCTYPE svg PUBLIC "-//W3C//DTD SVG 1.1//EN"
 "http://www.w3.org/Graphics/SVG/1.1/DTD/svg11.dtd">
<!-- Generated by graphviz version 2.44.0 (0)
 -->
<!-- Title: lib/DebugInfo/PDB/Native/NativePublicSymbol.cpp Pages: 1 -->
<svg width="2921pt" height="788pt"
 viewBox="0.00 0.00 2921.03 788.00" xmlns="http://www.w3.org/2000/svg" xmlns:xlink="http://www.w3.org/1999/xlink">
<g id="graph0" class="graph" transform="scale(1 1) rotate(0) translate(4 784)">
<title>lib/DebugInfo/PDB/Native/NativePublicSymbol.cpp</title>
<!-- Node1 -->
<g id="node1" class="node">
<title>Node1</title>
<g id="a_node1"><a xlink:title=" ">
<polygon fill="#bfbfbf" stroke="black" points="2020.03,-749.5 2020.03,-779.5 2148.03,-779.5 2148.03,-749.5 2020.03,-749.5"/>
<text text-anchor="start" x="2028.03" y="-767.5" font-family="Helvetica" font-size="10.00">lib/DebugInfo/PDB/Native</text>
<text text-anchor="middle" x="2084.03" y="-756.5" font-family="Helvetica" font-size="10.00">/NativePublicSymbol.cpp</text>
</a>
</g>
</g>
<!-- Node2 -->
<g id="node2" class="node">
<title>Node2</title>
<g id="a_node2"><a xlink:href="NativePublicSymbol_8h.html" target="_top" xlink:title=" ">
<polygon fill="none" stroke="black" points="2093.03,-682.5 2093.03,-712.5 2239.03,-712.5 2239.03,-682.5 2093.03,-682.5"/>
<text text-anchor="start" x="2101.03" y="-700.5" font-family="Helvetica" font-size="10.00">llvm/DebugInfo/PDB</text>
<text text-anchor="middle" x="2166.03" y="-689.5" font-family="Helvetica" font-size="10.00">/Native/NativePublicSymbol.h</text>
</a>
</g>
</g>
<!-- Node1&#45;&gt;Node2 -->
<g id="edge1" class="edge">
<title>Node1&#45;&gt;Node2</title>
<path fill="none" stroke="midnightblue" d="M2101.83,-749.4C2113.11,-740.45 2127.89,-728.74 2140.42,-718.8"/>
<polygon fill="midnightblue" stroke="midnightblue" points="2142.61,-721.53 2148.28,-712.58 2138.27,-716.05 2142.61,-721.53"/>
</g>
<!-- Node19 -->
<g id="node14" class="node">
<title>Node19</title>
<g id="a_node14"><a xlink:href="SymbolRecord_8h.html" target="_top" xlink:title=" ">
<polygon fill="none" stroke="black" points="1330.53,-481.5 1330.53,-511.5 1461.53,-511.5 1461.53,-481.5 1330.53,-481.5"/>
<text text-anchor="start" x="1338.53" y="-499.5" font-family="Helvetica" font-size="10.00">llvm/DebugInfo/CodeView</text>
<text text-anchor="middle" x="1396.03" y="-488.5" font-family="Helvetica" font-size="10.00">/SymbolRecord.h</text>
</a>
</g>
</g>
<!-- Node1&#45;&gt;Node19 -->
<g id="edge183" class="edge">
<title>Node1&#45;&gt;Node19</title>
<path fill="none" stroke="midnightblue" d="M2019.66,-763.86C1732.32,-764.78 576.24,-761.29 469.03,-646 350.18,-518.18 1079.03,-500.29 1320.37,-497.86"/>
<polygon fill="midnightblue" stroke="midnightblue" points="1320.49,-501.36 1330.46,-497.77 1320.43,-494.36 1320.49,-501.36"/>
</g>
<!-- Node151 -->
<g id="node48" class="node">
<title>Node151</title>
<g id="a_node48"><a xlink:href="NativeTypeBuiltin_8h.html" target="_top" xlink:title=" ">
<polygon fill="none" stroke="black" points="2321.03,-548.5 2321.03,-578.5 2455.03,-578.5 2455.03,-548.5 2321.03,-548.5"/>
<text text-anchor="start" x="2329.03" y="-566.5" font-family="Helvetica" font-size="10.00">llvm/DebugInfo/PDB</text>
<text text-anchor="middle" x="2388.03" y="-555.5" font-family="Helvetica" font-size="10.00">/Native/NativeTypeBuiltin.h</text>
</a>
</g>
</g>
<!-- Node1&#45;&gt;Node151 -->
<g id="edge184" class="edge">
<title>Node1&#45;&gt;Node151</title>
<path fill="none" stroke="midnightblue" d="M2148.41,-751.78C2180.07,-744.07 2217.81,-731.81 2248.03,-713 2302.2,-679.28 2349.43,-619.53 2372.69,-587.04"/>
<polygon fill="midnightblue" stroke="midnightblue" points="2375.7,-588.84 2378.6,-578.65 2369.98,-584.81 2375.7,-588.84"/>
</g>
<!-- Node152 -->
<g id="node49" class="node">
<title>Node152</title>
<g id="a_node49"><a xlink:href="NativeTypeEnum_8h.html" target="_top" xlink:title=" ">
<polygon fill="none" stroke="black" points="1917.53,-682.5 1917.53,-712.5 2050.53,-712.5 2050.53,-682.5 1917.53,-682.5"/>
<text text-anchor="start" x="1925.53" y="-700.5" font-family="Helvetica" font-size="10.00">llvm/DebugInfo/PDB</text>
<text text-anchor="middle" x="1984.03" y="-689.5" font-family="Helvetica" font-size="10.00">/Native/NativeTypeEnum.h</text>
</a>
</g>
</g>
<!-- Node1&#45;&gt;Node152 -->
<g id="edge187" class="edge">
<title>Node1&#45;&gt;Node152</title>
<path fill="none" stroke="midnightblue" d="M2062.34,-749.4C2048.31,-740.28 2029.87,-728.29 2014.4,-718.24"/>
<polygon fill="midnightblue" stroke="midnightblue" points="2015.98,-715.09 2005.69,-712.58 2012.17,-720.96 2015.98,-715.09"/>
</g>
<!-- Node3 -->
<g id="node3" class="node">
<title>Node3</title>
<g id="a_node3"><a xlink:href="CodeView_8h.html" target="_top" xlink:title=" ">
<polygon fill="none" stroke="black" points="1912.53,-280.5 1912.53,-310.5 2043.53,-310.5 2043.53,-280.5 1912.53,-280.5"/>
<text text-anchor="start" x="1920.53" y="-298.5" font-family="Helvetica" font-size="10.00">llvm/DebugInfo/CodeView</text>
<text text-anchor="middle" x="1978.03" y="-287.5" font-family="Helvetica" font-size="10.00">/CodeView.h</text>
</a>
</g>
</g>
<!-- Node2&#45;&gt;Node3 -->
<g id="edge2" class="edge">
<title>Node2&#45;&gt;Node3</title>
<path fill="none" stroke="midnightblue" d="M2197.38,-682.44C2211.95,-674.11 2227.84,-662.01 2236.03,-646 2242.31,-633.73 2240.63,-627.99 2236.03,-615 2211.25,-545.03 2055.5,-377.57 1998.72,-317.99"/>
<polygon fill="midnightblue" stroke="midnightblue" points="2001.13,-315.45 1991.69,-310.64 1996.07,-320.28 2001.13,-315.45"/>
</g>
<!-- Node2&#45;&gt;Node19 -->
<g id="edge14" class="edge">
<title>Node2&#45;&gt;Node19</title>
<path fill="none" stroke="midnightblue" d="M2111.58,-682.43C1973.21,-646.67 1608.56,-552.42 1460.2,-514.08"/>
<polygon fill="midnightblue" stroke="midnightblue" points="1460.87,-510.64 1450.32,-511.53 1459.12,-517.42 1460.87,-510.64"/>
</g>
<!-- Node83 -->
<g id="node40" class="node">
<title>Node83</title>
<g id="a_node40"><a xlink:href="NativeRawSymbol_8h.html" target="_top" xlink:title=" ">
<polygon fill="none" stroke="black" points="2186.53,-481.5 2186.53,-511.5 2325.53,-511.5 2325.53,-481.5 2186.53,-481.5"/>
<text text-anchor="start" x="2194.53" y="-499.5" font-family="Helvetica" font-size="10.00">llvm/DebugInfo/PDB</text>
<text text-anchor="middle" x="2256.03" y="-488.5" font-family="Helvetica" font-size="10.00">/Native/NativeRawSymbol.h</text>
</a>
</g>
</g>
<!-- Node2&#45;&gt;Node83 -->
<g id="edge133" class="edge">
<title>Node2&#45;&gt;Node83</title>
<path fill="none" stroke="midnightblue" d="M2195.77,-682.37C2210.3,-673.89 2226.64,-661.68 2236.03,-646 2259.14,-607.44 2260.17,-553.29 2258.39,-522.15"/>
<polygon fill="midnightblue" stroke="midnightblue" points="2261.86,-521.52 2257.65,-511.79 2254.87,-522.02 2261.86,-521.52"/>
</g>
<!-- Node95 -->
<g id="node43" class="node">
<title>Node95</title>
<g id="a_node43"><a xlink:href="NativeSession_8h.html" target="_top" xlink:title=" ">
<polygon fill="none" stroke="black" points="2105.03,-615.5 2105.03,-645.5 2227.03,-645.5 2227.03,-615.5 2105.03,-615.5"/>
<text text-anchor="start" x="2113.03" y="-633.5" font-family="Helvetica" font-size="10.00">llvm/DebugInfo/PDB</text>
<text text-anchor="middle" x="2166.03" y="-622.5" font-family="Helvetica" font-size="10.00">/Native/NativeSession.h</text>
</a>
</g>
</g>
<!-- Node2&#45;&gt;Node95 -->
<g id="edge144" class="edge">
<title>Node2&#45;&gt;Node95</title>
<path fill="none" stroke="midnightblue" d="M2166.03,-682.4C2166.03,-674.64 2166.03,-664.81 2166.03,-655.86"/>
<polygon fill="midnightblue" stroke="midnightblue" points="2169.53,-655.58 2166.03,-645.58 2162.53,-655.58 2169.53,-655.58"/>
</g>
<!-- Node4 -->
<g id="node4" class="node">
<title>Node4</title>
<g id="a_node4"><a xlink:title=" ">
<polygon fill="none" stroke="#bfbfbf" points="1675.03,-224.5 1675.03,-243.5 1731.03,-243.5 1731.03,-224.5 1675.03,-224.5"/>
<text text-anchor="middle" x="1703.03" y="-231.5" font-family="Helvetica" font-size="10.00">cinttypes</text>
</a>
</g>
</g>
<!-- Node3&#45;&gt;Node4 -->
<g id="edge3" class="edge">
<title>Node3&#45;&gt;Node4</title>
<path fill="none" stroke="midnightblue" d="M1913.21,-280.47C1859.59,-268.87 1785.27,-252.79 1740.88,-243.19"/>
<polygon fill="midnightblue" stroke="midnightblue" points="1741.59,-239.76 1731.08,-241.07 1740.11,-246.6 1741.59,-239.76"/>
</g>
<!-- Node5 -->
<g id="node5" class="node">
<title>Node5</title>
<g id="a_node5"><a xlink:title=" ">
<polygon fill="none" stroke="#bfbfbf" points="1700.03,-0.5 1700.03,-19.5 1762.03,-19.5 1762.03,-0.5 1700.03,-0.5"/>
<text text-anchor="middle" x="1731.03" y="-7.5" font-family="Helvetica" font-size="10.00">type_traits</text>
</a>
</g>
</g>
<!-- Node3&#45;&gt;Node5 -->
<g id="edge4" class="edge">
<title>Node3&#45;&gt;Node5</title>
<path fill="none" stroke="midnightblue" d="M2043.55,-295.25C2204.09,-294.58 2596.69,-276.53 2493.03,-112 2462.3,-63.22 2431.78,-70.71 2376.03,-56 2261.34,-25.73 1896.43,-14.77 1772.6,-11.87"/>
<polygon fill="midnightblue" stroke="midnightblue" points="1772.48,-8.36 1762.4,-11.63 1772.32,-15.36 1772.48,-8.36"/>
</g>
<!-- Node6 -->
<g id="node6" class="node">
<title>Node6</title>
<g id="a_node6"><a xlink:href="Endian_8h.html" target="_top" xlink:title=" ">
<polygon fill="none" stroke="red" points="1543.53,-224.5 1543.53,-243.5 1656.53,-243.5 1656.53,-224.5 1543.53,-224.5"/>
<text text-anchor="middle" x="1600.03" y="-231.5" font-family="Helvetica" font-size="10.00">llvm/Support/Endian.h</text>
</a>
</g>
</g>
<!-- Node3&#45;&gt;Node6 -->
<g id="edge5" class="edge">
<title>Node3&#45;&gt;Node6</title>
<path fill="none" stroke="midnightblue" d="M1912.14,-282.4C1907.37,-281.57 1902.63,-280.76 1898.03,-280 1818.75,-266.83 1727.31,-253.26 1666.86,-244.52"/>
<polygon fill="midnightblue" stroke="midnightblue" points="1667.08,-241.01 1656.69,-243.05 1666.08,-247.94 1667.08,-241.01"/>
</g>
<!-- Node16 -->
<g id="node11" class="node">
<title>Node16</title>
<g id="a_node11"><a xlink:title=" ">
<polygon fill="none" stroke="#bfbfbf" points="1925.03,-224.5 1925.03,-243.5 2029.03,-243.5 2029.03,-224.5 1925.03,-224.5"/>
<text text-anchor="middle" x="1977.03" y="-231.5" font-family="Helvetica" font-size="10.00">CodeViewTypes.def</text>
</a>
</g>
</g>
<!-- Node3&#45;&gt;Node16 -->
<g id="edge11" class="edge">
<title>Node3&#45;&gt;Node16</title>
<path fill="none" stroke="midnightblue" d="M1977.8,-280.4C1977.66,-272.47 1977.5,-262.46 1977.35,-253.86"/>
<polygon fill="midnightblue" stroke="midnightblue" points="1980.85,-253.6 1977.18,-243.66 1973.85,-253.72 1980.85,-253.6"/>
</g>
<!-- Node17 -->
<g id="node12" class="node">
<title>Node17</title>
<g id="a_node12"><a xlink:title=" ">
<polygon fill="none" stroke="#bfbfbf" points="2047.03,-224.5 2047.03,-243.5 2163.03,-243.5 2163.03,-224.5 2047.03,-224.5"/>
<text text-anchor="middle" x="2105.03" y="-231.5" font-family="Helvetica" font-size="10.00">CodeViewSymbols.def</text>
</a>
</g>
</g>
<!-- Node3&#45;&gt;Node17 -->
<g id="edge12" class="edge">
<title>Node3&#45;&gt;Node17</title>
<path fill="none" stroke="midnightblue" d="M2008.13,-280.4C2029.15,-270.55 2057.01,-257.5 2077.45,-247.92"/>
<polygon fill="midnightblue" stroke="midnightblue" points="2078.98,-251.07 2086.55,-243.66 2076.01,-244.73 2078.98,-251.07"/>
</g>
<!-- Node18 -->
<g id="node13" class="node">
<title>Node18</title>
<g id="a_node13"><a xlink:title=" ">
<polygon fill="none" stroke="#bfbfbf" points="1787.03,-224.5 1787.03,-243.5 1907.03,-243.5 1907.03,-224.5 1787.03,-224.5"/>
<text text-anchor="middle" x="1847.03" y="-231.5" font-family="Helvetica" font-size="10.00">CodeViewRegisters.def</text>
</a>
</g>
</g>
<!-- Node3&#45;&gt;Node18 -->
<g id="edge13" class="edge">
<title>Node3&#45;&gt;Node18</title>
<path fill="none" stroke="midnightblue" d="M1946.99,-280.4C1925.3,-270.55 1896.58,-257.5 1875.48,-247.92"/>
<polygon fill="midnightblue" stroke="midnightblue" points="1876.65,-244.61 1866.1,-243.66 1873.75,-250.98 1876.65,-244.61"/>
</g>
<!-- Node6&#45;&gt;Node5 -->
<g id="edge10" class="edge">
<title>Node6&#45;&gt;Node5</title>
<path fill="none" stroke="midnightblue" d="M1656.88,-224.92C1659.97,-224.58 1663.04,-224.27 1666.03,-224 1709.29,-220.06 2417.04,-219.41 2447.03,-188 2568.17,-61.16 2323.19,-61.21 2300.03,-56 2106.22,-12.36 1867,-9.48 1772.36,-10.27"/>
<polygon fill="midnightblue" stroke="midnightblue" points="1772.3,-6.77 1762.34,-10.38 1772.37,-13.77 1772.3,-6.77"/>
</g>
<!-- Node7 -->
<g id="node7" class="node">
<title>Node7</title>
<g id="a_node7"><a xlink:href="Compiler_8h.html" target="_top" xlink:title=" ">
<polygon fill="none" stroke="red" points="740.03,-0.5 740.03,-19.5 862.03,-19.5 862.03,-0.5 740.03,-0.5"/>
<text text-anchor="middle" x="801.03" y="-7.5" font-family="Helvetica" font-size="10.00">llvm/Support/Compiler.h</text>
</a>
</g>
</g>
<!-- Node6&#45;&gt;Node7 -->
<g id="edge6" class="edge">
<title>Node6&#45;&gt;Node7</title>
<path fill="none" stroke="midnightblue" d="M1656.88,-224.93C1659.97,-224.59 1663.04,-224.28 1666.03,-224 1707.46,-220.19 2385.33,-218.12 2414.03,-188 2420.17,-181.57 2418.82,-175.49 2414.03,-168 2382.12,-118.07 2349.86,-128.81 2293.03,-112 2124.28,-62.07 2076.29,-72.06 1901.03,-56 1799.28,-46.67 1100.01,-21.53 872.44,-13.5"/>
<polygon fill="midnightblue" stroke="midnightblue" points="872.4,-10 862.28,-13.14 872.15,-16.99 872.4,-10"/>
</g>
<!-- Node14 -->
<g id="node8" class="node">
<title>Node14</title>
<g id="a_node8"><a xlink:title=" ">
<polygon fill="none" stroke="#bfbfbf" points="1044.03,-56.5 1044.03,-75.5 1094.03,-75.5 1094.03,-56.5 1044.03,-56.5"/>
<text text-anchor="middle" x="1069.03" y="-63.5" font-family="Helvetica" font-size="10.00">cassert</text>
</a>
</g>
</g>
<!-- Node6&#45;&gt;Node14 -->
<g id="edge7" class="edge">
<title>Node6&#45;&gt;Node14</title>
<path fill="none" stroke="midnightblue" d="M1656.54,-225.17C1659.75,-224.76 1662.93,-224.37 1666.03,-224 1704.96,-219.35 1990.76,-217.1 2017.03,-188 2022.99,-181.4 2020.4,-176.23 2017.03,-168 2003.83,-135.71 1993.88,-126.25 1962.03,-112 1884.57,-77.33 1283.76,-80.93 1199.03,-76 1167.08,-74.14 1130.73,-71.59 1104.61,-69.67"/>
<polygon fill="midnightblue" stroke="midnightblue" points="1104.66,-66.17 1094.43,-68.92 1104.15,-73.15 1104.66,-66.17"/>
</g>
<!-- Node11 -->
<g id="node9" class="node">
<title>Node11</title>
<g id="a_node9"><a xlink:title=" ">
<polygon fill="none" stroke="#bfbfbf" points="1903.53,-112.5 1903.53,-131.5 1952.53,-131.5 1952.53,-112.5 1903.53,-112.5"/>
<text text-anchor="middle" x="1928.03" y="-119.5" font-family="Helvetica" font-size="10.00">cstddef</text>
</a>
</g>
</g>
<!-- Node6&#45;&gt;Node11 -->
<g id="edge8" class="edge">
<title>Node6&#45;&gt;Node11</title>
<path fill="none" stroke="midnightblue" d="M1656.55,-225.19C1659.75,-224.78 1662.93,-224.38 1666.03,-224 1740.36,-214.94 1951,-243.7 2001.03,-188 2018.89,-168.12 1987.17,-148.11 1960.1,-135.65"/>
<polygon fill="midnightblue" stroke="midnightblue" points="1961.38,-132.38 1950.81,-131.57 1958.56,-138.79 1961.38,-132.38"/>
</g>
<!-- Node12 -->
<g id="node10" class="node">
<title>Node12</title>
<g id="a_node10"><a xlink:title=" ">
<polygon fill="none" stroke="#bfbfbf" points="1280.03,-168.5 1280.03,-187.5 1326.03,-187.5 1326.03,-168.5 1280.03,-168.5"/>
<text text-anchor="middle" x="1303.03" y="-175.5" font-family="Helvetica" font-size="10.00">cstdint</text>
</a>
</g>
</g>
<!-- Node6&#45;&gt;Node12 -->
<g id="edge9" class="edge">
<title>Node6&#45;&gt;Node12</title>
<path fill="none" stroke="midnightblue" d="M1552.97,-224.44C1492.4,-213.43 1388.7,-194.58 1335.95,-184.98"/>
<polygon fill="midnightblue" stroke="midnightblue" points="1336.57,-181.54 1326.1,-183.19 1335.32,-188.43 1336.57,-181.54"/>
</g>
<!-- Node19&#45;&gt;Node3 -->
<g id="edge118" class="edge">
<title>Node19&#45;&gt;Node3</title>
<path fill="none" stroke="midnightblue" d="M1461.81,-488.88C1519.37,-481.86 1604.71,-468.46 1676.03,-445 1779.66,-410.92 1892.76,-347.57 1946.4,-315.76"/>
<polygon fill="midnightblue" stroke="midnightblue" points="1948.31,-318.7 1955.1,-310.57 1944.72,-312.69 1948.31,-318.7"/>
</g>
<!-- Node19&#45;&gt;Node6 -->
<g id="edge130" class="edge">
<title>Node19&#45;&gt;Node6</title>
<path fill="none" stroke="midnightblue" d="M1395.18,-481.2C1394.14,-453.76 1394.64,-392.42 1416.03,-347 1433.32,-310.3 1444.29,-302.53 1478.03,-280 1501.03,-264.64 1529.96,-253.68 1553.87,-246.42"/>
<polygon fill="midnightblue" stroke="midnightblue" points="1555.16,-249.69 1563.78,-243.53 1553.2,-242.97 1555.16,-249.69"/>
</g>
<!-- Node19&#45;&gt;Node12 -->
<g id="edge131" class="edge">
<title>Node19&#45;&gt;Node12</title>
<path fill="none" stroke="midnightblue" d="M1330.51,-493.49C1184.67,-487.25 846.03,-462.13 846.03,-363.5 846.03,-363.5 846.03,-363.5 846.03,-294.5 846.03,-257.09 860.16,-243.58 892.03,-224 923.99,-204.37 1177.65,-186.8 1269.76,-181.01"/>
<polygon fill="midnightblue" stroke="midnightblue" points="1270.15,-184.49 1279.92,-180.38 1269.72,-177.51 1270.15,-184.49"/>
</g>
<!-- Node20 -->
<g id="node15" class="node">
<title>Node20</title>
<g id="a_node15"><a xlink:href="APSInt_8h.html" target="_top" xlink:title=" ">
<polygon fill="none" stroke="black" points="1534.53,-286 1534.53,-305 1633.53,-305 1633.53,-286 1534.53,-286"/>
<text text-anchor="middle" x="1584.03" y="-293" font-family="Helvetica" font-size="10.00">llvm/ADT/APSInt.h</text>
</a>
</g>
</g>
<!-- Node19&#45;&gt;Node20 -->
<g id="edge15" class="edge">
<title>Node19&#45;&gt;Node20</title>
<path fill="none" stroke="midnightblue" d="M1429.23,-481.49C1467.96,-463.38 1531.03,-428.12 1565.03,-378 1577.81,-359.16 1582.07,-332.86 1583.44,-315.28"/>
<polygon fill="midnightblue" stroke="midnightblue" points="1586.95,-315.33 1583.99,-305.15 1579.96,-314.95 1586.95,-315.33"/>
</g>
<!-- Node28 -->
<g id="node17" class="node">
<title>Node28</title>
<g id="a_node17"><a xlink:href="ArrayRef_8h.html" target="_top" xlink:title=" ">
<polygon fill="none" stroke="black" points="1082.03,-286 1082.03,-305 1188.03,-305 1188.03,-286 1082.03,-286"/>
<text text-anchor="middle" x="1135.03" y="-293" font-family="Helvetica" font-size="10.00">llvm/ADT/ArrayRef.h</text>
</a>
</g>
</g>
<!-- Node19&#45;&gt;Node28 -->
<g id="edge19" class="edge">
<title>Node19&#45;&gt;Node28</title>
<path fill="none" stroke="midnightblue" d="M1330.35,-493.13C1288.46,-488.42 1235.4,-476.09 1199.03,-445 1158.94,-410.72 1143.22,-346.74 1137.7,-315.15"/>
<polygon fill="midnightblue" stroke="midnightblue" points="1141.13,-314.41 1136.1,-305.08 1134.21,-315.51 1141.13,-314.41"/>
</g>
<!-- Node41 -->
<g id="node24" class="node">
<title>Node41</title>
<g id="a_node24"><a xlink:href="iterator__range_8h.html" target="_top" xlink:title="This provides a very simple, boring adaptor for a begin and end iterator into a range type.">
<polygon fill="none" stroke="black" points="1648.03,-112.5 1648.03,-131.5 1776.03,-131.5 1776.03,-112.5 1648.03,-112.5"/>
<text text-anchor="middle" x="1712.03" y="-119.5" font-family="Helvetica" font-size="10.00">llvm/ADT/iterator_range.h</text>
</a>
</g>
</g>
<!-- Node19&#45;&gt;Node41 -->
<g id="edge91" class="edge">
<title>Node19&#45;&gt;Node41</title>
<path fill="none" stroke="midnightblue" d="M1461.73,-490.44C1544.93,-483.38 1692.47,-468.72 1817.03,-445 1932.15,-423.08 1968.11,-432.13 2072.03,-378 2141.64,-341.75 2167.88,-320.11 2187.03,-244 2189.2,-235.38 2192.63,-230.91 2187.03,-224 2161.63,-192.62 1908.27,-151.65 1782.34,-133.01"/>
<polygon fill="midnightblue" stroke="midnightblue" points="1782.8,-129.54 1772.4,-131.55 1781.78,-136.47 1782.8,-129.54"/>
</g>
<!-- Node49 -->
<g id="node30" class="node">
<title>Node49</title>
<g id="a_node30"><a xlink:href="Optional_8h.html" target="_top" xlink:title=" ">
<polygon fill="none" stroke="black" points="362.03,-168.5 362.03,-187.5 466.03,-187.5 466.03,-168.5 362.03,-168.5"/>
<text text-anchor="middle" x="414.03" y="-175.5" font-family="Helvetica" font-size="10.00">llvm/ADT/Optional.h</text>
</a>
</g>
</g>
<!-- Node19&#45;&gt;Node49 -->
<g id="edge80" class="edge">
<title>Node19&#45;&gt;Node49</title>
<path fill="none" stroke="midnightblue" d="M1330.14,-493.2C1210.17,-488.33 961,-474.87 880.03,-445 831.22,-426.99 824.68,-410.49 784.03,-378 768.06,-365.23 768.57,-355.63 750.03,-347 640.29,-295.88 582.86,-374.89 480.03,-311 439.51,-285.82 423.02,-227.43 417.04,-197.47"/>
<polygon fill="midnightblue" stroke="midnightblue" points="420.46,-196.72 415.23,-187.5 413.57,-197.97 420.46,-196.72"/>
</g>
<!-- Node50 -->
<g id="node31" class="node">
<title>Node50</title>
<g id="a_node31"><a xlink:href="iterator_8h.html" target="_top" xlink:title=" ">
<polygon fill="none" stroke="black" points="1534.03,-168.5 1534.03,-187.5 1632.03,-187.5 1632.03,-168.5 1534.03,-168.5"/>
<text text-anchor="middle" x="1583.03" y="-175.5" font-family="Helvetica" font-size="10.00">llvm/ADT/iterator.h</text>
</a>
</g>
</g>
<!-- Node19&#45;&gt;Node50 -->
<g id="edge90" class="edge">
<title>Node19&#45;&gt;Node50</title>
<path fill="none" stroke="midnightblue" d="M1461.79,-490.25C1529.67,-483.74 1638.2,-470.27 1729.03,-445 1937.33,-387.05 2062.92,-430.65 2172.03,-244 2176.52,-236.33 2178.08,-230.52 2172.03,-224 2163.1,-214.36 1790.5,-191.29 1642.62,-182.49"/>
<polygon fill="midnightblue" stroke="midnightblue" points="1642.56,-178.98 1632.37,-181.88 1642.14,-185.97 1642.56,-178.98"/>
</g>
<!-- Node54 -->
<g id="node33" class="node">
<title>Node54</title>
<g id="a_node33"><a xlink:title=" ">
<polygon fill="none" stroke="#bfbfbf" points="1482.53,-224.5 1482.53,-243.5 1525.53,-243.5 1525.53,-224.5 1482.53,-224.5"/>
<text text-anchor="middle" x="1504.03" y="-231.5" font-family="Helvetica" font-size="10.00">vector</text>
</a>
</g>
</g>
<!-- Node19&#45;&gt;Node54 -->
<g id="edge132" class="edge">
<title>Node19&#45;&gt;Node54</title>
<path fill="none" stroke="midnightblue" d="M1449.64,-481.4C1474.58,-473.25 1503.8,-461.33 1527.03,-445 1591.48,-399.71 1615.52,-384.81 1643.03,-311 1647.85,-298.09 1651.14,-291.14 1643.03,-280 1639.76,-275.49 1575.5,-255.98 1535.51,-244.17"/>
<polygon fill="midnightblue" stroke="midnightblue" points="1536.26,-240.75 1525.68,-241.28 1534.28,-247.46 1536.26,-240.75"/>
</g>
<!-- Node55 -->
<g id="node34" class="node">
<title>Node55</title>
<g id="a_node34"><a xlink:href="StringRef_8h.html" target="_top" xlink:title=" ">
<polygon fill="none" stroke="red" points="2663.03,-286 2663.03,-305 2771.03,-305 2771.03,-286 2663.03,-286"/>
<text text-anchor="middle" x="2717.03" y="-293" font-family="Helvetica" font-size="10.00">llvm/ADT/StringRef.h</text>
</a>
</g>
</g>
<!-- Node19&#45;&gt;Node55 -->
<g id="edge81" class="edge">
<title>Node19&#45;&gt;Node55</title>
<path fill="none" stroke="midnightblue" d="M1461.68,-495.72C1657.41,-495.84 2234.66,-492.07 2416.03,-445 2445.27,-437.41 2624.54,-344.74 2691.68,-309.75"/>
<polygon fill="midnightblue" stroke="midnightblue" points="2693.49,-312.75 2700.74,-305.03 2690.25,-306.55 2693.49,-312.75"/>
</g>
<!-- Node56 -->
<g id="node35" class="node">
<title>Node56</title>
<g id="a_node35"><a xlink:href="CVRecord_8h.html" target="_top" xlink:title=" ">
<polygon fill="none" stroke="red" points="1207.53,-414.5 1207.53,-444.5 1338.53,-444.5 1338.53,-414.5 1207.53,-414.5"/>
<text text-anchor="start" x="1215.53" y="-432.5" font-family="Helvetica" font-size="10.00">llvm/DebugInfo/CodeView</text>
<text text-anchor="middle" x="1273.03" y="-421.5" font-family="Helvetica" font-size="10.00">/CVRecord.h</text>
</a>
</g>
</g>
<!-- Node19&#45;&gt;Node56 -->
<g id="edge92" class="edge">
<title>Node19&#45;&gt;Node56</title>
<path fill="none" stroke="midnightblue" d="M1369.35,-481.4C1351.53,-471.98 1327.92,-459.5 1308.53,-449.26"/>
<polygon fill="midnightblue" stroke="midnightblue" points="1310.15,-446.15 1299.67,-444.58 1306.88,-452.34 1310.15,-446.15"/>
</g>
<!-- Node72 -->
<g id="node36" class="node">
<title>Node72</title>
<g id="a_node36"><a xlink:href="RecordSerialization_8h.html" target="_top" xlink:title=" ">
<polygon fill="none" stroke="red" points="1424.53,-347.5 1424.53,-377.5 1555.53,-377.5 1555.53,-347.5 1424.53,-347.5"/>
<text text-anchor="start" x="1432.53" y="-365.5" font-family="Helvetica" font-size="10.00">llvm/DebugInfo/CodeView</text>
<text text-anchor="middle" x="1490.03" y="-354.5" font-family="Helvetica" font-size="10.00">/RecordSerialization.h</text>
</a>
</g>
</g>
<!-- Node19&#45;&gt;Node72 -->
<g id="edge119" class="edge">
<title>Node19&#45;&gt;Node72</title>
<path fill="none" stroke="midnightblue" d="M1406.09,-481.37C1422.42,-458.45 1454.81,-412.97 1474.23,-385.69"/>
<polygon fill="midnightblue" stroke="midnightblue" points="1477.1,-387.7 1480.05,-377.52 1471.4,-383.64 1477.1,-387.7"/>
</g>
<!-- Node81 -->
<g id="node38" class="node">
<title>Node81</title>
<g id="a_node38"><a xlink:href="TypeIndex_8h.html" target="_top" xlink:title=" ">
<polygon fill="none" stroke="red" points="610.53,-347.5 610.53,-377.5 741.53,-377.5 741.53,-347.5 610.53,-347.5"/>
<text text-anchor="start" x="618.53" y="-365.5" font-family="Helvetica" font-size="10.00">llvm/DebugInfo/CodeView</text>
<text text-anchor="middle" x="676.03" y="-354.5" font-family="Helvetica" font-size="10.00">/TypeIndex.h</text>
</a>
</g>
</g>
<!-- Node19&#45;&gt;Node81 -->
<g id="edge120" class="edge">
<title>Node19&#45;&gt;Node81</title>
<path fill="none" stroke="midnightblue" d="M1330.52,-495.05C1192.27,-493.3 875.28,-484.94 776.03,-445 758.95,-438.13 722.57,-406.47 698.71,-384.69"/>
<polygon fill="midnightblue" stroke="midnightblue" points="700.88,-381.93 691.15,-377.74 696.14,-387.08 700.88,-381.93"/>
</g>
<!-- Node75 -->
<g id="node39" class="node">
<title>Node75</title>
<g id="a_node39"><a xlink:href="BinaryStreamArray_8h.html" target="_top" xlink:title=" ">
<polygon fill="none" stroke="red" points="912.53,-347.5 912.53,-377.5 1047.53,-377.5 1047.53,-347.5 912.53,-347.5"/>
<text text-anchor="start" x="920.53" y="-365.5" font-family="Helvetica" font-size="10.00">llvm/Support/BinaryStream</text>
<text text-anchor="middle" x="980.03" y="-354.5" font-family="Helvetica" font-size="10.00">Array.h</text>
</a>
</g>
</g>
<!-- Node19&#45;&gt;Node75 -->
<g id="edge124" class="edge">
<title>Node19&#45;&gt;Node75</title>
<path fill="none" stroke="midnightblue" d="M1330.37,-489.24C1274.71,-482.53 1193.41,-469.37 1126.03,-445 1082.93,-429.41 1037.45,-402.04 1008.93,-383.36"/>
<polygon fill="midnightblue" stroke="midnightblue" points="1010.55,-380.24 1000.29,-377.63 1006.68,-386.07 1010.55,-380.24"/>
</g>
<!-- Node21 -->
<g id="node16" class="node">
<title>Node21</title>
<g id="a_node16"><a xlink:href="APInt_8h.html" target="_top" xlink:title="This file implements a class to represent arbitrary precision integral constant values and operations...">
<polygon fill="none" stroke="red" points="2161.03,-112.5 2161.03,-131.5 2253.03,-131.5 2253.03,-112.5 2161.03,-112.5"/>
<text text-anchor="middle" x="2207.03" y="-119.5" font-family="Helvetica" font-size="10.00">llvm/ADT/APInt.h</text>
</a>
</g>
</g>
<!-- Node20&#45;&gt;Node21 -->
<g id="edge16" class="edge">
<title>Node20&#45;&gt;Node21</title>
<path fill="none" stroke="midnightblue" d="M1615.69,-285.98C1647.62,-276.99 1698.06,-261.69 1740.03,-244 1757.62,-236.59 1759.64,-229.1 1778.03,-224 1846.24,-205.09 2365.42,-239.44 2414.03,-188 2420.14,-181.54 2419.61,-174.92 2414.03,-168 2404.51,-156.18 2321.19,-140.89 2263.21,-131.52"/>
<polygon fill="midnightblue" stroke="midnightblue" points="2263.48,-128.02 2253.06,-129.9 2262.38,-134.94 2263.48,-128.02"/>
</g>
<!-- Node21&#45;&gt;Node7 -->
<g id="edge17" class="edge">
<title>Node21&#45;&gt;Node7</title>
<path fill="none" stroke="midnightblue" d="M2160.66,-115.62C2149.04,-114.35 2136.59,-113.06 2125.03,-112 1910.24,-92.23 1856.12,-92.32 1641.03,-76 1356.17,-54.38 1017.03,-27.92 872.25,-16.58"/>
<polygon fill="midnightblue" stroke="midnightblue" points="872.4,-13.08 862.16,-15.79 871.86,-20.06 872.4,-13.08"/>
</g>
<!-- Node21&#45;&gt;Node14 -->
<g id="edge18" class="edge">
<title>Node21&#45;&gt;Node14</title>
<path fill="none" stroke="midnightblue" d="M2160.71,-116.25C2144.39,-114.71 2125.91,-113.11 2109.03,-112 1705.14,-85.48 1603.2,-97.98 1199.03,-76 1167.07,-74.26 1130.72,-71.7 1104.6,-69.75"/>
<polygon fill="midnightblue" stroke="midnightblue" points="1104.66,-66.24 1094.43,-68.98 1104.14,-73.22 1104.66,-66.24"/>
</g>
<!-- Node28&#45;&gt;Node5 -->
<g id="edge78" class="edge">
<title>Node28&#45;&gt;Node5</title>
<path fill="none" stroke="midnightblue" d="M1134.22,-285.75C1131.47,-250.36 1126.36,-116.78 1199.03,-56 1236.39,-24.76 1570.94,-14.48 1689.56,-11.81"/>
<polygon fill="midnightblue" stroke="midnightblue" points="1689.77,-15.3 1699.69,-11.58 1689.62,-8.3 1689.77,-15.3"/>
</g>
<!-- Node28&#45;&gt;Node7 -->
<g id="edge70" class="edge">
<title>Node28&#45;&gt;Node7</title>
<path fill="none" stroke="midnightblue" d="M1081.92,-293.98C1023.17,-291.41 927.15,-281.2 854.03,-244 789.88,-211.35 765.31,-198.2 737.03,-132 720.26,-92.73 758.57,-48.97 782.89,-26.38"/>
<polygon fill="midnightblue" stroke="midnightblue" points="785.39,-28.84 790.51,-19.56 780.72,-23.62 785.39,-28.84"/>
</g>
<!-- Node28&#45;&gt;Node14 -->
<g id="edge73" class="edge">
<title>Node28&#45;&gt;Node14</title>
<path fill="none" stroke="midnightblue" d="M1081.82,-294.68C1008.75,-291.63 880.36,-273.6 827.03,-188 822.33,-180.46 822.11,-175.4 827.03,-168 851.02,-132.01 972.71,-93.8 1033.86,-76.5"/>
<polygon fill="midnightblue" stroke="midnightblue" points="1035.15,-79.77 1043.84,-73.71 1033.26,-73.03 1035.15,-79.77"/>
</g>
<!-- Node28&#45;&gt;Node11 -->
<g id="edge74" class="edge">
<title>Node28&#45;&gt;Node11</title>
<path fill="none" stroke="midnightblue" d="M1166.82,-285.97C1175.3,-283.86 1184.48,-281.71 1193.03,-280 1298.37,-258.95 1329.32,-275.43 1432.03,-244 1451.8,-237.95 1454.14,-229.61 1474.03,-224 1620.28,-182.74 1669.41,-234.62 1814.03,-188 1849.7,-176.5 1886.6,-152.94 1908.42,-137.57"/>
<polygon fill="midnightblue" stroke="midnightblue" points="1910.73,-140.22 1916.81,-131.54 1906.64,-134.54 1910.73,-140.22"/>
</g>
<!-- Node29 -->
<g id="node18" class="node">
<title>Node29</title>
<g id="a_node18"><a xlink:href="Hashing_8h.html" target="_top" xlink:title=" ">
<polygon fill="none" stroke="red" points="1028.03,-112.5 1028.03,-131.5 1132.03,-131.5 1132.03,-112.5 1028.03,-112.5"/>
<text text-anchor="middle" x="1080.03" y="-119.5" font-family="Helvetica" font-size="10.00">llvm/ADT/Hashing.h</text>
</a>
</g>
</g>
<!-- Node28&#45;&gt;Node29 -->
<g id="edge20" class="edge">
<title>Node28&#45;&gt;Node29</title>
<path fill="none" stroke="midnightblue" d="M1122.99,-285.87C1110.61,-276.56 1091.31,-260.8 1078.03,-244 1060.53,-221.85 1054.91,-215.39 1048.03,-188 1045.87,-179.38 1045.33,-176.47 1048.03,-168 1051.37,-157.54 1058.13,-147.43 1064.58,-139.45"/>
<polygon fill="midnightblue" stroke="midnightblue" points="1067.38,-141.56 1071.28,-131.71 1062.09,-136.98 1067.38,-141.56"/>
</g>
<!-- Node23 -->
<g id="node21" class="node">
<title>Node23</title>
<g id="a_node21"><a xlink:title=" ">
<polygon fill="none" stroke="#bfbfbf" points="1208.03,-56.5 1208.03,-75.5 1264.03,-75.5 1264.03,-56.5 1208.03,-56.5"/>
<text text-anchor="middle" x="1236.03" y="-63.5" font-family="Helvetica" font-size="10.00">algorithm</text>
</a>
</g>
</g>
<!-- Node28&#45;&gt;Node23 -->
<g id="edge71" class="edge">
<title>Node28&#45;&gt;Node23</title>
<path fill="none" stroke="midnightblue" d="M1138.87,-285.86C1153.71,-252.43 1207.56,-131.13 1228.05,-84.99"/>
<polygon fill="midnightblue" stroke="midnightblue" points="1231.34,-86.21 1232.19,-75.65 1224.94,-83.37 1231.34,-86.21"/>
</g>
<!-- Node39 -->
<g id="node22" class="node">
<title>Node39</title>
<g id="a_node22"><a xlink:href="None_8h.html" target="_top" xlink:title=" ">
<polygon fill="none" stroke="black" points="522.03,-112.5 522.03,-131.5 614.03,-131.5 614.03,-112.5 522.03,-112.5"/>
<text text-anchor="middle" x="568.03" y="-119.5" font-family="Helvetica" font-size="10.00">llvm/ADT/None.h</text>
</a>
</g>
</g>
<!-- Node28&#45;&gt;Node39 -->
<g id="edge28" class="edge">
<title>Node28&#45;&gt;Node39</title>
<path fill="none" stroke="midnightblue" d="M1081.68,-294.89C969.61,-294.78 714.11,-289.39 642.03,-244 603.96,-220.02 582.53,-168.62 573.39,-141.16"/>
<polygon fill="midnightblue" stroke="midnightblue" points="576.73,-140.11 570.39,-131.62 570.05,-142.21 576.73,-140.11"/>
</g>
<!-- Node40 -->
<g id="node23" class="node">
<title>Node40</title>
<g id="a_node23"><a xlink:href="SmallVector_8h.html" target="_top" xlink:title=" ">
<polygon fill="none" stroke="red" points="836.53,-168.5 836.53,-187.5 957.53,-187.5 957.53,-168.5 836.53,-168.5"/>
<text text-anchor="middle" x="897.03" y="-175.5" font-family="Helvetica" font-size="10.00">llvm/ADT/SmallVector.h</text>
</a>
</g>
</g>
<!-- Node28&#45;&gt;Node40 -->
<g id="edge29" class="edge">
<title>Node28&#45;&gt;Node40</title>
<path fill="none" stroke="midnightblue" d="M1119.02,-285.99C1093.43,-272.47 1041.66,-245.42 997.03,-224 973.29,-212.6 946,-200.38 925.93,-191.55"/>
<polygon fill="midnightblue" stroke="midnightblue" points="927.28,-188.32 916.71,-187.51 924.47,-194.73 927.28,-188.32"/>
</g>
<!-- Node44 -->
<g id="node25" class="node">
<title>Node44</title>
<g id="a_node25"><a xlink:title=" ">
<polygon fill="none" stroke="#bfbfbf" points="1330.03,-112.5 1330.03,-131.5 1402.03,-131.5 1402.03,-112.5 1330.03,-112.5"/>
<text text-anchor="middle" x="1366.03" y="-119.5" font-family="Helvetica" font-size="10.00">initializer_list</text>
</a>
</g>
</g>
<!-- Node28&#45;&gt;Node44 -->
<g id="edge75" class="edge">
<title>Node28&#45;&gt;Node44</title>
<path fill="none" stroke="midnightblue" d="M1145.24,-285.68C1156.73,-275.7 1175.91,-258.89 1192.03,-244 1227.83,-210.95 1230.94,-195.68 1271.03,-168 1290.35,-154.67 1314.23,-143.38 1333.21,-135.44"/>
<polygon fill="midnightblue" stroke="midnightblue" points="1334.7,-138.61 1342.64,-131.6 1332.06,-132.13 1334.7,-138.61"/>
</g>
<!-- Node45 -->
<g id="node26" class="node">
<title>Node45</title>
<g id="a_node26"><a xlink:title=" ">
<polygon fill="none" stroke="#bfbfbf" points="1264.53,-112.5 1264.53,-131.5 1311.53,-131.5 1311.53,-112.5 1264.53,-112.5"/>
<text text-anchor="middle" x="1288.03" y="-119.5" font-family="Helvetica" font-size="10.00">iterator</text>
</a>
</g>
</g>
<!-- Node28&#45;&gt;Node45 -->
<g id="edge76" class="edge">
<title>Node28&#45;&gt;Node45</title>
<path fill="none" stroke="midnightblue" d="M1141.34,-285.82C1156.82,-264.75 1198.31,-209.56 1238.03,-168 1248.02,-157.55 1260.04,-146.69 1269.78,-138.26"/>
<polygon fill="midnightblue" stroke="midnightblue" points="1272.32,-140.69 1277.66,-131.54 1267.78,-135.36 1272.32,-140.69"/>
</g>
<!-- Node46 -->
<g id="node27" class="node">
<title>Node46</title>
<g id="a_node27"><a xlink:title=" ">
<polygon fill="none" stroke="#bfbfbf" points="1832.53,-112.5 1832.53,-131.5 1885.53,-131.5 1885.53,-112.5 1832.53,-112.5"/>
<text text-anchor="middle" x="1859.03" y="-119.5" font-family="Helvetica" font-size="10.00">memory</text>
</a>
</g>
</g>
<!-- Node28&#45;&gt;Node46 -->
<g id="edge77" class="edge">
<title>Node28&#45;&gt;Node46</title>
<path fill="none" stroke="midnightblue" d="M1167.46,-285.97C1175.77,-283.9 1184.71,-281.77 1193.03,-280 1283.08,-260.82 1309.22,-271.65 1397.03,-244 1417.14,-237.67 1419.73,-229.66 1440.03,-224 1583.01,-184.17 1633.92,-242.34 1772.03,-188 1800.12,-176.95 1827.1,-154.3 1843.38,-138.88"/>
<polygon fill="midnightblue" stroke="midnightblue" points="1846.15,-141.06 1850.86,-131.58 1841.26,-136.06 1846.15,-141.06"/>
</g>
<!-- Node48 -->
<g id="node29" class="node">
<title>Node48</title>
<g id="a_node29"><a xlink:href="STLExtras_8h.html" target="_top" xlink:title=" ">
<polygon fill="none" stroke="red" points="1272.53,-224.5 1272.53,-243.5 1387.53,-243.5 1387.53,-224.5 1272.53,-224.5"/>
<text text-anchor="middle" x="1330.03" y="-231.5" font-family="Helvetica" font-size="10.00">llvm/ADT/STLExtras.h</text>
</a>
</g>
</g>
<!-- Node28&#45;&gt;Node48 -->
<g id="edge43" class="edge">
<title>Node28&#45;&gt;Node48</title>
<path fill="none" stroke="midnightblue" d="M1162.97,-285.98C1197,-275.59 1254.62,-258.01 1292.5,-246.45"/>
<polygon fill="midnightblue" stroke="midnightblue" points="1293.6,-249.78 1302.15,-243.51 1291.56,-243.08 1293.6,-249.78"/>
</g>
<!-- Node53 -->
<g id="node32" class="node">
<title>Node53</title>
<g id="a_node32"><a xlink:title=" ">
<polygon fill="none" stroke="#bfbfbf" points="950.03,-224.5 950.03,-243.5 988.03,-243.5 988.03,-224.5 950.03,-224.5"/>
<text text-anchor="middle" x="969.03" y="-231.5" font-family="Helvetica" font-size="10.00">array</text>
</a>
</g>
</g>
<!-- Node28&#45;&gt;Node53 -->
<g id="edge72" class="edge">
<title>Node28&#45;&gt;Node53</title>
<path fill="none" stroke="midnightblue" d="M1111.25,-285.98C1081.32,-275.25 1029.95,-256.83 997.83,-245.32"/>
<polygon fill="midnightblue" stroke="midnightblue" points="998.72,-241.92 988.13,-241.84 996.36,-248.51 998.72,-241.92"/>
</g>
<!-- Node28&#45;&gt;Node54 -->
<g id="edge79" class="edge">
<title>Node28&#45;&gt;Node54</title>
<path fill="none" stroke="midnightblue" d="M1188.08,-288.03C1254.01,-279.62 1369.85,-263.67 1468.03,-244 1469.49,-243.71 1470.99,-243.39 1472.49,-243.07"/>
<polygon fill="midnightblue" stroke="midnightblue" points="1473.46,-246.43 1482.41,-240.76 1471.87,-239.62 1473.46,-246.43"/>
</g>
<!-- Node29&#45;&gt;Node14 -->
<g id="edge26" class="edge">
<title>Node29&#45;&gt;Node14</title>
<path fill="none" stroke="midnightblue" d="M1078.22,-112.08C1076.76,-104.93 1074.66,-94.64 1072.84,-85.69"/>
<polygon fill="midnightblue" stroke="midnightblue" points="1076.24,-84.85 1070.82,-75.75 1069.38,-86.25 1076.24,-84.85"/>
</g>
<!-- Node36 -->
<g id="node19" class="node">
<title>Node36</title>
<g id="a_node19"><a xlink:href="type__traits_8h.html" target="_top" xlink:title=" ">
<polygon fill="none" stroke="black" points="858.53,-56.5 858.53,-75.5 987.53,-75.5 987.53,-56.5 858.53,-56.5"/>
<text text-anchor="middle" x="923.03" y="-63.5" font-family="Helvetica" font-size="10.00">llvm/Support/type_traits.h</text>
</a>
</g>
</g>
<!-- Node29&#45;&gt;Node36 -->
<g id="edge21" class="edge">
<title>Node29&#45;&gt;Node36</title>
<path fill="none" stroke="midnightblue" d="M1055.16,-112.44C1028.74,-103.36 986.82,-88.94 957.29,-78.78"/>
<polygon fill="midnightblue" stroke="midnightblue" points="958.39,-75.46 947.79,-75.52 956.11,-82.08 958.39,-75.46"/>
</g>
<!-- Node37 -->
<g id="node20" class="node">
<title>Node37</title>
<g id="a_node20"><a xlink:title=" ">
<polygon fill="none" stroke="#bfbfbf" points="1102.03,-0.5 1102.03,-19.5 1142.03,-19.5 1142.03,-0.5 1102.03,-0.5"/>
<text text-anchor="middle" x="1122.03" y="-7.5" font-family="Helvetica" font-size="10.00">utility</text>
</a>
</g>
</g>
<!-- Node29&#45;&gt;Node37 -->
<g id="edge27" class="edge">
<title>Node29&#45;&gt;Node37</title>
<path fill="none" stroke="midnightblue" d="M1085.12,-112.26C1090.16,-103.36 1097.85,-89.04 1103.03,-76 1109.14,-60.64 1114.27,-42.54 1117.66,-29.35"/>
<polygon fill="midnightblue" stroke="midnightblue" points="1121.07,-30.13 1120.07,-19.59 1114.27,-28.45 1121.07,-30.13"/>
</g>
<!-- Node29&#45;&gt;Node23 -->
<g id="edge25" class="edge">
<title>Node29&#45;&gt;Node23</title>
<path fill="none" stroke="midnightblue" d="M1104.75,-112.44C1130.88,-103.4 1172.29,-89.06 1201.61,-78.92"/>
<polygon fill="midnightblue" stroke="midnightblue" points="1203.13,-82.1 1211.43,-75.52 1200.84,-75.48 1203.13,-82.1"/>
</g>
<!-- Node36&#45;&gt;Node5 -->
<g id="edge23" class="edge">
<title>Node36&#45;&gt;Node5</title>
<path fill="none" stroke="midnightblue" d="M987.68,-57.36C992.53,-56.87 997.36,-56.41 1002.03,-56 1263.29,-33.07 1578.25,-17.82 1689.6,-12.8"/>
<polygon fill="midnightblue" stroke="midnightblue" points="1689.89,-16.3 1699.73,-12.35 1689.58,-9.3 1689.89,-16.3"/>
</g>
<!-- Node36&#45;&gt;Node7 -->
<g id="edge22" class="edge">
<title>Node36&#45;&gt;Node7</title>
<path fill="none" stroke="midnightblue" d="M903.7,-56.44C883.71,-47.6 852.29,-33.69 829.47,-23.59"/>
<polygon fill="midnightblue" stroke="midnightblue" points="830.84,-20.36 820.28,-19.52 828,-26.76 830.84,-20.36"/>
</g>
<!-- Node36&#45;&gt;Node37 -->
<g id="edge24" class="edge">
<title>Node36&#45;&gt;Node37</title>
<path fill="none" stroke="midnightblue" d="M954.57,-56.44C992.33,-46.2 1055.12,-29.16 1092.15,-19.11"/>
<polygon fill="midnightblue" stroke="midnightblue" points="1093.13,-22.47 1101.86,-16.47 1091.3,-15.71 1093.13,-22.47"/>
</g>
<!-- Node40&#45;&gt;Node5 -->
<g id="edge41" class="edge">
<title>Node40&#45;&gt;Node5</title>
<path fill="none" stroke="midnightblue" d="M903.57,-168.17C921.47,-144.76 974.08,-81.21 1035.03,-56 1095.42,-31.02 1548.89,-16.17 1689.55,-12.13"/>
<polygon fill="midnightblue" stroke="midnightblue" points="1690,-15.62 1699.9,-11.84 1689.8,-8.62 1690,-15.62"/>
</g>
<!-- Node40&#45;&gt;Node7 -->
<g id="edge32" class="edge">
<title>Node40&#45;&gt;Node7</title>
<path fill="none" stroke="midnightblue" d="M879.41,-168.46C865.25,-160.76 845.85,-148.17 834.03,-132 811.32,-100.89 804.24,-55 802.03,-29.61"/>
<polygon fill="midnightblue" stroke="midnightblue" points="805.52,-29.24 801.32,-19.51 798.53,-29.73 805.52,-29.24"/>
</g>
<!-- Node40&#45;&gt;Node14 -->
<g id="edge35" class="edge">
<title>Node40&#45;&gt;Node14</title>
<path fill="none" stroke="midnightblue" d="M913.03,-168.46C929.17,-159.7 954.69,-145.5 976.03,-132 1001.93,-115.62 1030.69,-95.15 1049.28,-81.61"/>
<polygon fill="midnightblue" stroke="midnightblue" points="1051.53,-84.3 1057.52,-75.56 1047.39,-78.65 1051.53,-84.3"/>
</g>
<!-- Node40&#45;&gt;Node11 -->
<g id="edge36" class="edge">
<title>Node40&#45;&gt;Node11</title>
<path fill="none" stroke="midnightblue" d="M957.84,-175.04C1154.19,-168.61 1765.55,-147.74 1893.09,-131.81"/>
<polygon fill="midnightblue" stroke="midnightblue" points="1893.88,-135.23 1903.3,-130.38 1892.91,-128.3 1893.88,-135.23"/>
</g>
<!-- Node40&#45;&gt;Node36 -->
<g id="edge33" class="edge">
<title>Node40&#45;&gt;Node36</title>
<path fill="none" stroke="midnightblue" d="M898.57,-168.12C900.79,-155.55 905.18,-131.9 910.03,-112 912.21,-103.1 914.98,-93.32 917.41,-85.16"/>
<polygon fill="midnightblue" stroke="midnightblue" points="920.77,-86.15 920.33,-75.57 914.07,-84.12 920.77,-86.15"/>
</g>
<!-- Node40&#45;&gt;Node37 -->
<g id="edge42" class="edge">
<title>Node40&#45;&gt;Node37</title>
<path fill="none" stroke="midnightblue" d="M888.2,-168.4C867.4,-147.12 819.2,-91.15 849.03,-56 879.89,-19.65 1027.05,-12.61 1091.59,-11.29"/>
<polygon fill="midnightblue" stroke="midnightblue" points="1091.98,-14.78 1101.92,-11.11 1091.86,-7.78 1091.98,-14.78"/>
</g>
<!-- Node40&#45;&gt;Node23 -->
<g id="edge34" class="edge">
<title>Node40&#45;&gt;Node23</title>
<path fill="none" stroke="midnightblue" d="M957.67,-168.76C1018.81,-159.92 1108.63,-145.37 1141.03,-132 1170.72,-119.75 1200.57,-97.27 1218.68,-82.22"/>
<polygon fill="midnightblue" stroke="midnightblue" points="1221.23,-84.66 1226.58,-75.52 1216.69,-79.32 1221.23,-84.66"/>
</g>
<!-- Node40&#45;&gt;Node41 -->
<g id="edge30" class="edge">
<title>Node40&#45;&gt;Node41</title>
<path fill="none" stroke="midnightblue" d="M957.63,-172.99C1104.27,-163.27 1477.97,-138.51 1637.75,-127.92"/>
<polygon fill="midnightblue" stroke="midnightblue" points="1638.21,-131.4 1647.96,-127.25 1637.75,-124.41 1638.21,-131.4"/>
</g>
<!-- Node40&#45;&gt;Node44 -->
<g id="edge37" class="edge">
<title>Node40&#45;&gt;Node44</title>
<path fill="none" stroke="midnightblue" d="M957.64,-172.33C1038.12,-165.73 1184.86,-152.35 1319.64,-132.09"/>
<polygon fill="midnightblue" stroke="midnightblue" points="1320.37,-135.52 1329.74,-130.56 1319.32,-128.6 1320.37,-135.52"/>
</g>
<!-- Node40&#45;&gt;Node45 -->
<g id="edge38" class="edge">
<title>Node40&#45;&gt;Node45</title>
<path fill="none" stroke="midnightblue" d="M957.7,-168.62C1041.01,-157.12 1188,-136.81 1254.13,-127.68"/>
<polygon fill="midnightblue" stroke="midnightblue" points="1254.97,-131.1 1264.4,-126.26 1254.01,-124.17 1254.97,-131.1"/>
</g>
<!-- Node40&#45;&gt;Node46 -->
<g id="edge39" class="edge">
<title>Node40&#45;&gt;Node46</title>
<path fill="none" stroke="midnightblue" d="M957.57,-174.05C1151.01,-164.61 1743.89,-135.54 1785.03,-132 1797.2,-130.95 1810.45,-129.46 1822.34,-127.98"/>
<polygon fill="midnightblue" stroke="midnightblue" points="1822.89,-131.44 1832.36,-126.7 1822,-124.5 1822.89,-131.44"/>
</g>
<!-- Node47 -->
<g id="node28" class="node">
<title>Node47</title>
<g id="a_node28"><a xlink:title=" ">
<polygon fill="none" stroke="#bfbfbf" points="746.53,-112.5 746.53,-131.5 781.53,-131.5 781.53,-112.5 746.53,-112.5"/>
<text text-anchor="middle" x="764.03" y="-119.5" font-family="Helvetica" font-size="10.00">new</text>
</a>
</g>
</g>
<!-- Node40&#45;&gt;Node47 -->
<g id="edge40" class="edge">
<title>Node40&#45;&gt;Node47</title>
<path fill="none" stroke="midnightblue" d="M875.96,-168.44C852.94,-159.1 816.01,-144.1 790.92,-133.92"/>
<polygon fill="midnightblue" stroke="midnightblue" points="792.19,-130.66 781.61,-130.14 789.56,-137.14 792.19,-130.66"/>
</g>
<!-- Node41&#45;&gt;Node37 -->
<g id="edge31" class="edge">
<title>Node41&#45;&gt;Node37</title>
<path fill="none" stroke="midnightblue" d="M1700.26,-112.42C1679.69,-97.95 1635.35,-68.98 1593.03,-56 1510.02,-30.54 1242.91,-16.44 1152.37,-12.3"/>
<polygon fill="midnightblue" stroke="midnightblue" points="1152.38,-8.8 1142.23,-11.85 1152.07,-15.79 1152.38,-8.8"/>
</g>
<!-- Node48&#45;&gt;Node5 -->
<g id="edge68" class="edge">
<title>Node48&#45;&gt;Node5</title>
<path fill="none" stroke="midnightblue" d="M1387.71,-224.73C1389.5,-224.48 1391.28,-224.24 1393.03,-224 1515.6,-207.25 1550.48,-223.34 1669.03,-188 1696.47,-179.82 1769.82,-156.24 1785.03,-132 1807.23,-96.64 1770.82,-50.6 1747.74,-26.8"/>
<polygon fill="midnightblue" stroke="midnightblue" points="1750.08,-24.2 1740.53,-19.63 1745.15,-29.16 1750.08,-24.2"/>
</g>
<!-- Node48&#45;&gt;Node14 -->
<g id="edge62" class="edge">
<title>Node48&#45;&gt;Node14</title>
<path fill="none" stroke="midnightblue" d="M1343.82,-224.24C1374.81,-203.53 1444.7,-150.39 1411.03,-112 1400.95,-100.51 1189.29,-78.71 1104.1,-70.37"/>
<polygon fill="midnightblue" stroke="midnightblue" points="1104.41,-66.88 1094.12,-69.39 1103.73,-73.85 1104.41,-66.88"/>
</g>
<!-- Node48&#45;&gt;Node11 -->
<g id="edge63" class="edge">
<title>Node48&#45;&gt;Node11</title>
<path fill="none" stroke="midnightblue" d="M1387.58,-228.09C1498.82,-218.46 1735.63,-197.22 1772.03,-188 1820.03,-175.84 1872.53,-151.47 1902.74,-136.27"/>
<polygon fill="midnightblue" stroke="midnightblue" points="1904.42,-139.35 1911.74,-131.68 1901.24,-133.11 1904.42,-139.35"/>
</g>
<!-- Node48&#45;&gt;Node12 -->
<g id="edge64" class="edge">
<title>Node48&#45;&gt;Node12</title>
<path fill="none" stroke="midnightblue" d="M1325.58,-224.08C1321.88,-216.69 1316.51,-205.95 1311.94,-196.81"/>
<polygon fill="midnightblue" stroke="midnightblue" points="1315.01,-195.13 1307.41,-187.75 1308.75,-198.26 1315.01,-195.13"/>
</g>
<!-- Node48&#45;&gt;Node37 -->
<g id="edge69" class="edge">
<title>Node48&#45;&gt;Node37</title>
<path fill="none" stroke="midnightblue" d="M1371.68,-224.45C1406.48,-216.35 1452.13,-203.2 1463.03,-188 1482.72,-160.55 1483.24,-139.06 1463.03,-112 1425.1,-61.21 1228.63,-26.92 1152.35,-15.33"/>
<polygon fill="midnightblue" stroke="midnightblue" points="1152.82,-11.86 1142.42,-13.85 1151.79,-18.79 1152.82,-11.86"/>
</g>
<!-- Node48&#45;&gt;Node23 -->
<g id="edge61" class="edge">
<title>Node48&#45;&gt;Node23</title>
<path fill="none" stroke="midnightblue" d="M1386.73,-224.5C1408.38,-218.18 1430.99,-207.18 1444.03,-188 1463.03,-160.07 1465.24,-138.29 1444.03,-112 1423.15,-86.12 1328.81,-74.39 1274.63,-69.7"/>
<polygon fill="midnightblue" stroke="midnightblue" points="1274.61,-66.19 1264.36,-68.86 1274.04,-73.16 1274.61,-66.19"/>
</g>
<!-- Node48&#45;&gt;Node41 -->
<g id="edge60" class="edge">
<title>Node48&#45;&gt;Node41</title>
<path fill="none" stroke="midnightblue" d="M1387.66,-225.55C1474.42,-214.21 1629.71,-193.37 1641.03,-188 1664.52,-176.87 1685.66,-155.28 1698.65,-140.05"/>
<polygon fill="midnightblue" stroke="midnightblue" points="1701.67,-141.89 1705.31,-131.94 1696.26,-137.44 1701.67,-141.89"/>
</g>
<!-- Node48&#45;&gt;Node44 -->
<g id="edge65" class="edge">
<title>Node48&#45;&gt;Node44</title>
<path fill="none" stroke="midnightblue" d="M1340.75,-224.3C1349.97,-216.07 1362.63,-202.79 1368.03,-188 1373.49,-173.09 1372.35,-154.95 1370.21,-141.62"/>
<polygon fill="midnightblue" stroke="midnightblue" points="1373.63,-140.89 1368.3,-131.74 1366.76,-142.22 1373.63,-140.89"/>
</g>
<!-- Node48&#45;&gt;Node45 -->
<g id="edge66" class="edge">
<title>Node48&#45;&gt;Node45</title>
<path fill="none" stroke="midnightblue" d="M1333.21,-224.17C1337.31,-211.26 1343.03,-186.74 1335.03,-168 1329.89,-155.95 1319.75,-145.58 1310.21,-137.84"/>
<polygon fill="midnightblue" stroke="midnightblue" points="1312.21,-134.96 1302.11,-131.74 1307.99,-140.55 1312.21,-134.96"/>
</g>
<!-- Node48&#45;&gt;Node46 -->
<g id="edge67" class="edge">
<title>Node48&#45;&gt;Node46</title>
<path fill="none" stroke="midnightblue" d="M1387.79,-225.69C1392.61,-225.11 1397.4,-224.54 1402.03,-224 1549.9,-206.77 1592.61,-231.32 1735.03,-188 1773.63,-176.26 1814.3,-152.42 1838.13,-137.11"/>
<polygon fill="midnightblue" stroke="midnightblue" points="1840.24,-139.91 1846.69,-131.51 1836.4,-134.06 1840.24,-139.91"/>
</g>
<!-- Node48&#45;&gt;Node49 -->
<g id="edge44" class="edge">
<title>Node48&#45;&gt;Node49</title>
<path fill="none" stroke="midnightblue" d="M1272.39,-229.6C1109.2,-219.98 644.97,-192.61 476.28,-182.67"/>
<polygon fill="midnightblue" stroke="midnightblue" points="476.26,-179.16 466.08,-182.07 475.85,-186.15 476.26,-179.16"/>
</g>
<!-- Node48&#45;&gt;Node50 -->
<g id="edge53" class="edge">
<title>Node48&#45;&gt;Node50</title>
<path fill="none" stroke="midnightblue" d="M1370.12,-224.44C1414.35,-215 1485.57,-199.8 1533.32,-189.61"/>
<polygon fill="midnightblue" stroke="midnightblue" points="1534.08,-193.03 1543.13,-187.52 1532.62,-186.18 1534.08,-193.03"/>
</g>
<!-- Node49&#45;&gt;Node7 -->
<g id="edge47" class="edge">
<title>Node49&#45;&gt;Node7</title>
<path fill="none" stroke="midnightblue" d="M385.23,-168.49C353.04,-157.52 307.91,-136.88 328.03,-112 377.75,-50.55 610.15,-24.86 729.65,-15.56"/>
<polygon fill="midnightblue" stroke="midnightblue" points="730.1,-19.04 739.81,-14.79 729.57,-12.06 730.1,-19.04"/>
</g>
<!-- Node49&#45;&gt;Node14 -->
<g id="edge49" class="edge">
<title>Node49&#45;&gt;Node14</title>
<path fill="none" stroke="midnightblue" d="M419.7,-168.31C429.8,-153.66 452.47,-124.43 480.03,-112 584.81,-64.74 881.62,-87.04 996.03,-76 1008.32,-74.81 1021.74,-73.24 1033.68,-71.74"/>
<polygon fill="midnightblue" stroke="midnightblue" points="1034.26,-75.2 1043.73,-70.45 1033.37,-68.25 1034.26,-75.2"/>
</g>
<!-- Node49&#45;&gt;Node29 -->
<g id="edge45" class="edge">
<title>Node49&#45;&gt;Node29</title>
<path fill="none" stroke="midnightblue" d="M466.29,-172.76C587.51,-162.93 887.39,-138.62 1017.8,-128.05"/>
<polygon fill="midnightblue" stroke="midnightblue" points="1018.33,-131.51 1028.02,-127.22 1017.77,-124.54 1018.33,-131.51"/>
</g>
<!-- Node49&#45;&gt;Node36 -->
<g id="edge48" class="edge">
<title>Node49&#45;&gt;Node36</title>
<path fill="none" stroke="midnightblue" d="M408.74,-168.14C401.21,-154.29 389.84,-127.48 404.03,-112 407.75,-107.95 705.65,-84.06 848.39,-72.83"/>
<polygon fill="midnightblue" stroke="midnightblue" points="848.69,-76.31 858.39,-72.04 848.15,-69.34 848.69,-76.31"/>
</g>
<!-- Node49&#45;&gt;Node37 -->
<g id="edge52" class="edge">
<title>Node49&#45;&gt;Node37</title>
<path fill="none" stroke="midnightblue" d="M406.79,-168.36C396.34,-154.79 379.77,-128.38 394.03,-112 440.8,-58.3 959.53,-21.46 1091.59,-12.9"/>
<polygon fill="midnightblue" stroke="midnightblue" points="1092.04,-16.38 1101.79,-12.25 1091.59,-9.4 1092.04,-16.38"/>
</g>
<!-- Node49&#45;&gt;Node39 -->
<g id="edge46" class="edge">
<title>Node49&#45;&gt;Node39</title>
<path fill="none" stroke="midnightblue" d="M438.44,-168.44C464.23,-159.4 505.11,-145.06 534.05,-134.92"/>
<polygon fill="midnightblue" stroke="midnightblue" points="535.47,-138.13 543.75,-131.52 533.15,-131.52 535.47,-138.13"/>
</g>
<!-- Node49&#45;&gt;Node46 -->
<g id="edge50" class="edge">
<title>Node49&#45;&gt;Node46</title>
<path fill="none" stroke="midnightblue" d="M466.21,-175.9C684.01,-171.24 1521.47,-152.31 1785.03,-132 1797.21,-131.06 1810.46,-129.59 1822.35,-128.11"/>
<polygon fill="midnightblue" stroke="midnightblue" points="1822.9,-131.57 1832.37,-126.82 1822.01,-124.63 1822.9,-131.57"/>
</g>
<!-- Node49&#45;&gt;Node47 -->
<g id="edge51" class="edge">
<title>Node49&#45;&gt;Node47</title>
<path fill="none" stroke="midnightblue" d="M466.05,-168.97C541.35,-157.36 678.06,-136.27 736.42,-127.26"/>
<polygon fill="midnightblue" stroke="midnightblue" points="737.03,-130.71 746.38,-125.72 735.96,-123.79 737.03,-130.71"/>
</g>
<!-- Node50&#45;&gt;Node5 -->
<g id="edge58" class="edge">
<title>Node50&#45;&gt;Node5</title>
<path fill="none" stroke="midnightblue" d="M1590.57,-168.1C1601.25,-155.52 1621.45,-131.85 1639.03,-112 1665.87,-81.71 1697.8,-46.93 1716.12,-27.1"/>
<polygon fill="midnightblue" stroke="midnightblue" points="1718.86,-29.29 1723.08,-19.57 1713.72,-24.54 1718.86,-29.29"/>
</g>
<!-- Node50&#45;&gt;Node11 -->
<g id="edge56" class="edge">
<title>Node50&#45;&gt;Node11</title>
<path fill="none" stroke="midnightblue" d="M1632.27,-171.8C1691.98,-165.06 1795.82,-152.01 1893.24,-132.18"/>
<polygon fill="midnightblue" stroke="midnightblue" points="1894.16,-135.56 1903.25,-130.11 1892.75,-128.71 1894.16,-135.56"/>
</g>
<!-- Node50&#45;&gt;Node37 -->
<g id="edge59" class="edge">
<title>Node50&#45;&gt;Node37</title>
<path fill="none" stroke="midnightblue" d="M1581.44,-168.45C1576.7,-145.74 1560.45,-83.75 1520.03,-56 1460.37,-15.04 1234.6,-10.94 1152.29,-10.84"/>
<polygon fill="midnightblue" stroke="midnightblue" points="1152.1,-7.34 1142.1,-10.84 1152.1,-14.34 1152.1,-7.34"/>
</g>
<!-- Node50&#45;&gt;Node23 -->
<g id="edge55" class="edge">
<title>Node50&#45;&gt;Node23</title>
<path fill="none" stroke="midnightblue" d="M1572.6,-168.28C1555.08,-154.11 1518.1,-126.26 1482.03,-112 1412.07,-84.35 1324.11,-73.51 1274.57,-69.4"/>
<polygon fill="midnightblue" stroke="midnightblue" points="1274.55,-65.88 1264.31,-68.6 1274.01,-72.86 1274.55,-65.88"/>
</g>
<!-- Node50&#45;&gt;Node41 -->
<g id="edge54" class="edge">
<title>Node50&#45;&gt;Node41</title>
<path fill="none" stroke="midnightblue" d="M1603.47,-168.44C1624.7,-159.56 1658.13,-145.56 1682.29,-135.45"/>
<polygon fill="midnightblue" stroke="midnightblue" points="1683.82,-138.61 1691.69,-131.52 1681.11,-132.15 1683.82,-138.61"/>
</g>
<!-- Node50&#45;&gt;Node45 -->
<g id="edge57" class="edge">
<title>Node50&#45;&gt;Node45</title>
<path fill="none" stroke="midnightblue" d="M1533.99,-170.02C1483.31,-162.48 1401.74,-149.46 1321.98,-132.02"/>
<polygon fill="midnightblue" stroke="midnightblue" points="1322.28,-128.51 1311.76,-129.76 1320.77,-135.34 1322.28,-128.51"/>
</g>
<!-- Node55&#45;&gt;Node5 -->
<g id="edge88" class="edge">
<title>Node55&#45;&gt;Node5</title>
<path fill="none" stroke="midnightblue" d="M2771.36,-291.11C2808.74,-286.06 2857.19,-273.74 2889.03,-244 2911.54,-222.98 2913.03,-209.8 2913.03,-179 2913.03,-179 2913.03,-179 2913.03,-121 2913.03,-62.44 1981.22,-21.15 1772.28,-12.63"/>
<polygon fill="midnightblue" stroke="midnightblue" points="1772.18,-9.12 1762.04,-12.22 1771.89,-16.12 1772.18,-9.12"/>
</g>
<!-- Node55&#45;&gt;Node7 -->
<g id="edge84" class="edge">
<title>Node55&#45;&gt;Node7</title>
<path fill="none" stroke="midnightblue" d="M2727.61,-285.57C2742.42,-271.95 2766.15,-245.3 2753.03,-224 2694.34,-128.65 2402.88,-122.26 2347.03,-112 2207.18,-86.3 2173.43,-71.08 2032.03,-56 1974.22,-49.83 1126.18,-21.67 872.31,-13.33"/>
<polygon fill="midnightblue" stroke="midnightblue" points="872.21,-9.83 862.1,-13 871.98,-16.82 872.21,-9.83"/>
</g>
<!-- Node55&#45;&gt;Node14 -->
<g id="edge86" class="edge">
<title>Node55&#45;&gt;Node14</title>
<path fill="none" stroke="midnightblue" d="M2711.8,-285.55C2702.44,-270.38 2681.33,-239.73 2655.03,-224 2607.84,-195.78 2468.1,-177.97 2414.03,-168 2298.45,-146.68 2267.47,-154.12 2152.03,-132 2115.62,-125.02 2107.74,-117.24 2071.03,-112 1687.03,-57.23 1586.33,-97.4 1199.03,-76 1167.07,-74.23 1130.72,-71.67 1104.6,-69.73"/>
<polygon fill="midnightblue" stroke="midnightblue" points="1104.66,-66.23 1094.43,-68.97 1104.14,-73.21 1104.66,-66.23"/>
</g>
<!-- Node55&#45;&gt;Node11 -->
<g id="edge87" class="edge">
<title>Node55&#45;&gt;Node11</title>
<path fill="none" stroke="midnightblue" d="M2708.71,-285.68C2693.42,-270.14 2659.11,-238.16 2623.03,-224 2480.35,-167.99 2427.76,-228.88 2280.03,-188 2259.72,-182.38 2257.28,-173.86 2237.03,-168 2120.11,-134.14 2082.31,-156.78 1962.73,-132.83"/>
<polygon fill="midnightblue" stroke="midnightblue" points="1963.34,-129.38 1952.84,-130.78 1961.92,-136.24 1963.34,-129.38"/>
</g>
<!-- Node55&#45;&gt;Node37 -->
<g id="edge89" class="edge">
<title>Node55&#45;&gt;Node37</title>
<path fill="none" stroke="midnightblue" d="M2771.07,-287.28C2816.07,-278.6 2869.97,-260.37 2851.03,-224 2830.99,-185.5 2810.01,-187.09 2771.03,-168 2619.78,-93.93 2575.09,-84.08 2409.03,-56 2281.71,-34.47 1336.01,-15.15 1152.74,-11.59"/>
<polygon fill="midnightblue" stroke="midnightblue" points="1152.55,-8.08 1142.48,-11.39 1152.41,-15.08 1152.55,-8.08"/>
</g>
<!-- Node55&#45;&gt;Node23 -->
<g id="edge85" class="edge">
<title>Node55&#45;&gt;Node23</title>
<path fill="none" stroke="midnightblue" d="M2723.84,-285.85C2734.11,-271.66 2751,-243.1 2737.03,-224 2688.58,-157.74 2640.64,-188.04 2561.03,-168 2429.92,-135 2396.35,-127.45 2262.03,-112 1878.74,-67.92 1410.36,-66.21 1274.59,-66.73"/>
<polygon fill="midnightblue" stroke="midnightblue" points="1274.29,-63.23 1264.3,-66.78 1274.32,-70.23 1274.29,-63.23"/>
</g>
<!-- Node55&#45;&gt;Node41 -->
<g id="edge83" class="edge">
<title>Node55&#45;&gt;Node41</title>
<path fill="none" stroke="midnightblue" d="M2687,-285.95C2635.43,-271.51 2526.55,-242.11 2433.03,-224 2198.64,-178.62 1917.63,-145.22 1786.39,-130.83"/>
<polygon fill="midnightblue" stroke="midnightblue" points="1786.38,-127.31 1776.06,-129.7 1785.62,-134.27 1786.38,-127.31"/>
</g>
<!-- Node55&#45;&gt;Node48 -->
<g id="edge82" class="edge">
<title>Node55&#45;&gt;Node48</title>
<path fill="none" stroke="midnightblue" d="M2662.8,-292.72C2489.52,-286.94 1933.72,-267.7 1474.03,-244 1449.19,-242.72 1421.95,-241.08 1397.91,-239.55"/>
<polygon fill="midnightblue" stroke="midnightblue" points="1398.03,-236.05 1387.82,-238.9 1397.58,-243.03 1398.03,-236.05"/>
</g>
<!-- Node56&#45;&gt;Node3 -->
<g id="edge95" class="edge">
<title>Node56&#45;&gt;Node3</title>
<path fill="none" stroke="midnightblue" d="M1338.64,-417.61C1397.87,-407.67 1487.38,-392.37 1565.03,-378 1683.12,-356.14 1819.77,-328.76 1902.5,-311.96"/>
<polygon fill="midnightblue" stroke="midnightblue" points="1903.22,-315.39 1912.32,-309.96 1901.82,-308.53 1903.22,-315.39"/>
</g>
<!-- Node56&#45;&gt;Node6 -->
<g id="edge115" class="edge">
<title>Node56&#45;&gt;Node6</title>
<path fill="none" stroke="midnightblue" d="M1279.08,-414.35C1292.68,-384.33 1328.74,-314.2 1382.03,-280 1395.24,-271.53 1479.38,-255.7 1539.17,-245.26"/>
<polygon fill="midnightblue" stroke="midnightblue" points="1540.03,-248.66 1549.28,-243.5 1538.83,-241.76 1540.03,-248.66"/>
</g>
<!-- Node56&#45;&gt;Node12 -->
<g id="edge117" class="edge">
<title>Node56&#45;&gt;Node12</title>
<path fill="none" stroke="midnightblue" d="M1268.72,-414.27C1259.15,-380.14 1238.88,-291.43 1264.03,-224 1268.21,-212.81 1276.55,-202.56 1284.46,-194.68"/>
<polygon fill="midnightblue" stroke="midnightblue" points="1287.1,-197 1292.04,-187.63 1282.33,-191.87 1287.1,-197"/>
</g>
<!-- Node56&#45;&gt;Node28 -->
<g id="edge93" class="edge">
<title>Node56&#45;&gt;Node28</title>
<path fill="none" stroke="midnightblue" d="M1258.27,-414.37C1232.3,-389.54 1178.67,-338.24 1151.53,-312.28"/>
<polygon fill="midnightblue" stroke="midnightblue" points="1153.67,-309.48 1144.02,-305.1 1148.83,-314.54 1153.67,-309.48"/>
</g>
<!-- Node56&#45;&gt;Node49 -->
<g id="edge94" class="edge">
<title>Node56&#45;&gt;Node49</title>
<path fill="none" stroke="midnightblue" d="M1207.21,-425.69C1099.29,-420.33 889.95,-406.54 822.03,-378 801.94,-369.55 804.01,-355.73 784.03,-347 678.75,-300.99 632.42,-359.01 528.03,-311 487.13,-292.18 480.65,-278.77 452.03,-244 439.99,-229.36 429.39,-210.45 422.47,-196.8"/>
<polygon fill="midnightblue" stroke="midnightblue" points="425.48,-194.99 417.93,-187.55 419.2,-198.07 425.48,-194.99"/>
</g>
<!-- Node56&#45;&gt;Node72 -->
<g id="edge96" class="edge">
<title>Node56&#45;&gt;Node72</title>
<path fill="none" stroke="midnightblue" d="M1319.85,-414.48C1353.11,-404.51 1397.94,-391.09 1433.24,-380.51"/>
<polygon fill="midnightblue" stroke="midnightblue" points="1434.35,-383.83 1442.93,-377.61 1432.34,-377.13 1434.35,-383.83"/>
</g>
<!-- Node58 -->
<g id="node37" class="node">
<title>Node58</title>
<g id="a_node37"><a xlink:href="llvm_2Support_2Error_8h.html" target="_top" xlink:title=" ">
<polygon fill="none" stroke="red" points="606.03,-286 606.03,-305 710.03,-305 710.03,-286 606.03,-286"/>
<text text-anchor="middle" x="658.03" y="-293" font-family="Helvetica" font-size="10.00">llvm/Support/Error.h</text>
</a>
</g>
</g>
<!-- Node56&#45;&gt;Node58 -->
<g id="edge116" class="edge">
<title>Node56&#45;&gt;Node58</title>
<path fill="none" stroke="midnightblue" d="M1207.33,-424.11C1132.67,-418.08 1007.61,-404.77 903.03,-378 865.69,-368.44 858.47,-359.57 822.03,-347 779.92,-332.48 731.05,-317.69 697.69,-307.9"/>
<polygon fill="midnightblue" stroke="midnightblue" points="698.43,-304.47 687.85,-305.03 696.47,-311.19 698.43,-304.47"/>
</g>
<!-- Node72&#45;&gt;Node3 -->
<g id="edge100" class="edge">
<title>Node72&#45;&gt;Node3</title>
<path fill="none" stroke="midnightblue" d="M1555.59,-352.77C1645.63,-340.77 1807.19,-319.26 1902.29,-306.59"/>
<polygon fill="midnightblue" stroke="midnightblue" points="1902.96,-310.03 1912.41,-305.24 1902.04,-303.09 1902.96,-310.03"/>
</g>
<!-- Node72&#45;&gt;Node4 -->
<g id="edge114" class="edge">
<title>Node72&#45;&gt;Node4</title>
<path fill="none" stroke="midnightblue" d="M1492.36,-347.43C1496.13,-329.15 1505.36,-297.48 1526.03,-280 1527.39,-278.85 1613.45,-257.3 1665.05,-244.44"/>
<polygon fill="midnightblue" stroke="midnightblue" points="1666.02,-247.81 1674.88,-241.99 1664.33,-241.01 1666.02,-247.81"/>
</g>
<!-- Node72&#45;&gt;Node6 -->
<g id="edge101" class="edge">
<title>Node72&#45;&gt;Node6</title>
<path fill="none" stroke="midnightblue" d="M1486.1,-347.42C1482.11,-329.97 1478.28,-300.09 1492.03,-280 1503.17,-263.73 1521.39,-253.33 1539.72,-246.68"/>
<polygon fill="midnightblue" stroke="midnightblue" points="1540.88,-249.99 1549.28,-243.54 1538.69,-243.34 1540.88,-249.99"/>
</g>
<!-- Node72&#45;&gt;Node20 -->
<g id="edge97" class="edge">
<title>Node72&#45;&gt;Node20</title>
<path fill="none" stroke="midnightblue" d="M1510.43,-347.4C1526.05,-336.6 1547.51,-321.76 1563.23,-310.89"/>
<polygon fill="midnightblue" stroke="midnightblue" points="1565.5,-313.57 1571.73,-305.01 1561.52,-307.82 1565.5,-313.57"/>
</g>
<!-- Node72&#45;&gt;Node28 -->
<g id="edge98" class="edge">
<title>Node72&#45;&gt;Node28</title>
<path fill="none" stroke="midnightblue" d="M1424.51,-349.5C1357.71,-337.27 1255.14,-318.49 1191.73,-306.88"/>
<polygon fill="midnightblue" stroke="midnightblue" points="1191.98,-303.37 1181.51,-305.01 1190.72,-310.25 1191.98,-303.37"/>
</g>
<!-- Node72&#45;&gt;Node55 -->
<g id="edge99" class="edge">
<title>Node72&#45;&gt;Node55</title>
<path fill="none" stroke="midnightblue" d="M1555.57,-358.03C1768.85,-346.73 2441.52,-311.1 2652.85,-299.9"/>
<polygon fill="midnightblue" stroke="midnightblue" points="2653.06,-303.39 2662.86,-299.37 2652.69,-296.4 2653.06,-303.39"/>
</g>
<!-- Node72&#45;&gt;Node58 -->
<g id="edge102" class="edge">
<title>Node72&#45;&gt;Node58</title>
<path fill="none" stroke="midnightblue" d="M1424.4,-356.37C1267.71,-344.13 873.44,-313.33 720.26,-301.36"/>
<polygon fill="midnightblue" stroke="midnightblue" points="720.33,-297.86 710.09,-300.57 719.78,-304.83 720.33,-297.86"/>
</g>
<!-- Node58&#45;&gt;Node5 -->
<g id="edge111" class="edge">
<title>Node58&#45;&gt;Node5</title>
<path fill="none" stroke="midnightblue" d="M605.78,-292.68C490.06,-288.11 220.22,-274.3 193.03,-244 187.1,-237.38 189.23,-232.03 193.03,-224 226.73,-152.94 257.98,-143.51 330.03,-112 494.51,-40.08 551.28,-72.49 730.03,-56 1101.45,-21.73 1552.9,-13.3 1689.78,-11.46"/>
<polygon fill="midnightblue" stroke="midnightblue" points="1689.87,-14.96 1699.82,-11.33 1689.78,-7.96 1689.87,-14.96"/>
</g>
<!-- Node58&#45;&gt;Node7 -->
<g id="edge105" class="edge">
<title>Node58&#45;&gt;Node7</title>
<path fill="none" stroke="midnightblue" d="M605.91,-293.53C462.55,-290.42 69.97,-278.79 24.03,-244 -0.51,-225.41 0.03,-209.8 0.03,-179 0.03,-179 0.03,-179 0.03,-121 0.03,-74.15 39.24,-72.66 83.03,-56 142.38,-33.43 560.46,-18.32 729.94,-13.06"/>
<polygon fill="midnightblue" stroke="midnightblue" points="730.12,-16.56 740.01,-12.75 729.9,-9.56 730.12,-16.56"/>
</g>
<!-- Node58&#45;&gt;Node14 -->
<g id="edge107" class="edge">
<title>Node58&#45;&gt;Node14</title>
<path fill="none" stroke="midnightblue" d="M627.45,-285.96C595.4,-275.22 551.54,-254.43 566.03,-224 600,-152.69 631.35,-142.92 704.03,-112 704.03,-112 942.25,-82.63 1033.79,-71.35"/>
<polygon fill="midnightblue" stroke="midnightblue" points="1034.45,-74.79 1043.95,-70.09 1033.59,-67.84 1034.45,-74.79"/>
</g>
<!-- Node58&#45;&gt;Node12 -->
<g id="edge108" class="edge">
<title>Node58&#45;&gt;Node12</title>
<path fill="none" stroke="midnightblue" d="M674.77,-285.77C705.15,-270.36 771.85,-238.59 832.03,-224 1003.79,-182.37 1052.28,-206.53 1228.03,-188 1241.72,-186.56 1256.79,-184.78 1269.81,-183.2"/>
<polygon fill="midnightblue" stroke="midnightblue" points="1270.25,-186.67 1279.74,-181.97 1269.39,-179.72 1270.25,-186.67"/>
</g>
<!-- Node58&#45;&gt;Node37 -->
<g id="edge112" class="edge">
<title>Node58&#45;&gt;Node37</title>
<path fill="none" stroke="midnightblue" d="M606.01,-293.16C450.89,-288.06 5.79,-264.92 62.03,-168 116.11,-74.81 172.63,-82.64 277.03,-56 317.26,-45.74 945.53,-18.5 1091.78,-12.28"/>
<polygon fill="midnightblue" stroke="midnightblue" points="1091.99,-15.77 1101.83,-11.85 1091.69,-8.78 1091.99,-15.77"/>
</g>
<!-- Node58&#45;&gt;Node23 -->
<g id="edge106" class="edge">
<title>Node58&#45;&gt;Node23</title>
<path fill="none" stroke="midnightblue" d="M658.63,-285.96C661.23,-255.72 674.55,-153.34 737.03,-112 746.64,-105.64 1082.18,-78.98 1197.54,-69.98"/>
<polygon fill="midnightblue" stroke="midnightblue" points="1197.99,-73.46 1207.69,-69.19 1197.45,-66.48 1197.99,-73.46"/>
</g>
<!-- Node58&#45;&gt;Node40 -->
<g id="edge104" class="edge">
<title>Node58&#45;&gt;Node40</title>
<path fill="none" stroke="midnightblue" d="M663.05,-285.6C672.04,-270.49 692.37,-239.95 718.03,-224 750.49,-203.84 791.54,-192.69 826.14,-186.54"/>
<polygon fill="midnightblue" stroke="midnightblue" points="826.9,-189.96 836.18,-184.86 825.74,-183.06 826.9,-189.96"/>
</g>
<!-- Node58&#45;&gt;Node46 -->
<g id="edge109" class="edge">
<title>Node58&#45;&gt;Node46</title>
<path fill="none" stroke="midnightblue" d="M668.02,-285.98C686.65,-270.6 728.61,-238.49 770.03,-224 822.91,-205.5 1215.25,-173.07 1271.03,-168 1499.1,-147.28 1557.07,-153.83 1785.03,-132 1797.19,-130.84 1810.44,-129.31 1822.32,-127.84"/>
<polygon fill="midnightblue" stroke="midnightblue" points="1822.87,-131.3 1832.35,-126.58 1821.99,-124.35 1822.87,-131.3"/>
</g>
<!-- Node58&#45;&gt;Node47 -->
<g id="edge110" class="edge">
<title>Node58&#45;&gt;Node47</title>
<path fill="none" stroke="midnightblue" d="M661.4,-285.99C666.89,-272.48 678.42,-245.43 691.03,-224 709.49,-192.63 735.22,-158.87 750.69,-139.41"/>
<polygon fill="midnightblue" stroke="midnightblue" points="753.48,-141.53 757.01,-131.54 748.02,-137.14 753.48,-141.53"/>
</g>
<!-- Node58&#45;&gt;Node48 -->
<g id="edge103" class="edge">
<title>Node58&#45;&gt;Node48</title>
<path fill="none" stroke="midnightblue" d="M710.21,-289.88C830.58,-279.22 1127.66,-252.92 1262.06,-241.02"/>
<polygon fill="midnightblue" stroke="midnightblue" points="1262.57,-244.49 1272.22,-240.12 1261.95,-237.51 1262.57,-244.49"/>
</g>
<!-- Node58&#45;&gt;Node54 -->
<g id="edge113" class="edge">
<title>Node58&#45;&gt;Node54</title>
<path fill="none" stroke="midnightblue" d="M710.47,-291.2C831.49,-283.52 1139.62,-263.62 1397.03,-244 1422.32,-242.07 1450.94,-239.65 1472.22,-237.81"/>
<polygon fill="midnightblue" stroke="midnightblue" points="1472.66,-241.28 1482.32,-236.93 1472.05,-234.31 1472.66,-241.28"/>
</g>
<!-- Node81&#45;&gt;Node4 -->
<g id="edge123" class="edge">
<title>Node81&#45;&gt;Node4</title>
<path fill="none" stroke="midnightblue" d="M741.58,-357.6C850.53,-350.73 1075.64,-334.9 1265.03,-311 1441.07,-288.78 1487.36,-280.56 1664.87,-244.13"/>
<polygon fill="midnightblue" stroke="midnightblue" points="1665.71,-247.53 1674.8,-242.09 1664.3,-240.68 1665.71,-247.53"/>
</g>
<!-- Node81&#45;&gt;Node6 -->
<g id="edge121" class="edge">
<title>Node81&#45;&gt;Node6</title>
<path fill="none" stroke="midnightblue" d="M741.84,-356.61C861.76,-347.46 1111.42,-327.19 1197.03,-311 1246.52,-301.64 1256.82,-290.72 1306.03,-280 1327.78,-275.26 1453.54,-256.5 1533.38,-244.75"/>
<polygon fill="midnightblue" stroke="midnightblue" points="1533.97,-248.2 1543.36,-243.28 1532.96,-241.28 1533.97,-248.2"/>
</g>
<!-- Node81&#45;&gt;Node14 -->
<g id="edge122" class="edge">
<title>Node81&#45;&gt;Node14</title>
<path fill="none" stroke="midnightblue" d="M610.41,-355.52C468.75,-341.12 150.35,-299.96 193.03,-224 239.94,-140.54 285.64,-140.52 377.03,-112 508.57,-70.96 858.81,-88.44 996.03,-76 1008.33,-74.89 1021.75,-73.33 1033.69,-71.82"/>
<polygon fill="midnightblue" stroke="midnightblue" points="1034.27,-75.28 1043.74,-70.53 1033.37,-68.34 1034.27,-75.28"/>
</g>
<!-- Node75&#45;&gt;Node14 -->
<g id="edge128" class="edge">
<title>Node75&#45;&gt;Node14</title>
<path fill="none" stroke="midnightblue" d="M912.24,-355.89C809.23,-346.87 622.52,-328.39 597.03,-311 517.73,-256.9 447.72,-182.36 513.03,-112 549.65,-72.56 942.48,-81.29 996.03,-76 1008.32,-74.79 1021.74,-73.2 1033.68,-71.71"/>
<polygon fill="midnightblue" stroke="midnightblue" points="1034.25,-75.16 1043.73,-70.42 1033.37,-68.22 1034.25,-75.16"/>
</g>
<!-- Node75&#45;&gt;Node12 -->
<g id="edge129" class="edge">
<title>Node75&#45;&gt;Node12</title>
<path fill="none" stroke="midnightblue" d="M947.45,-347.44C932.56,-339.16 916.42,-327.12 908.03,-311 890.19,-276.7 882.29,-252.85 908.03,-224 920.07,-210.52 1176.77,-188.98 1269.77,-181.59"/>
<polygon fill="midnightblue" stroke="midnightblue" points="1270.07,-185.07 1279.77,-180.8 1269.52,-178.1 1270.07,-185.07"/>
</g>
<!-- Node75&#45;&gt;Node28 -->
<g id="edge125" class="edge">
<title>Node75&#45;&gt;Node28</title>
<path fill="none" stroke="midnightblue" d="M1013.67,-347.4C1040.98,-335.94 1079.14,-319.94 1105.34,-308.95"/>
<polygon fill="midnightblue" stroke="midnightblue" points="1106.88,-312.1 1114.75,-305.01 1104.17,-305.65 1106.88,-312.1"/>
</g>
<!-- Node75&#45;&gt;Node50 -->
<g id="edge126" class="edge">
<title>Node75&#45;&gt;Node50</title>
<path fill="none" stroke="midnightblue" d="M968.5,-347.41C947.53,-320.02 908.21,-259.21 941.03,-224 960.75,-202.86 1368.31,-186.48 1523.63,-180.99"/>
<polygon fill="midnightblue" stroke="midnightblue" points="1524.06,-184.48 1533.93,-180.63 1523.81,-177.48 1524.06,-184.48"/>
</g>
<!-- Node75&#45;&gt;Node58 -->
<g id="edge127" class="edge">
<title>Node75&#45;&gt;Node58</title>
<path fill="none" stroke="midnightblue" d="M912.53,-347.87C852.29,-335.71 765.32,-318.16 710.25,-307.04"/>
<polygon fill="midnightblue" stroke="midnightblue" points="710.85,-303.59 700.35,-305.04 709.46,-310.45 710.85,-303.59"/>
</g>
<!-- Node83&#45;&gt;Node12 -->
<g id="edge142" class="edge">
<title>Node83&#45;&gt;Node12</title>
<path fill="none" stroke="midnightblue" d="M2256.72,-481.21C2258.08,-435 2255.37,-288.84 2172.03,-224 2163.63,-217.46 1495.37,-187.51 1336.6,-180.48"/>
<polygon fill="midnightblue" stroke="midnightblue" points="1336.62,-176.98 1326.48,-180.03 1336.31,-183.97 1336.62,-176.98"/>
</g>
<!-- Node83&#45;&gt;Node46 -->
<g id="edge143" class="edge">
<title>Node83&#45;&gt;Node46</title>
<path fill="none" stroke="midnightblue" d="M2261.1,-481.48C2267.37,-464.85 2278.83,-436.56 2292.03,-414 2302.14,-396.74 2312.71,-396.97 2319.03,-378 2340.68,-313.07 2363.6,-275.95 2319.03,-224 2284.78,-184.07 2136.42,-199.29 2085.03,-188 2016.78,-173 1938.76,-149 1894.55,-134.74"/>
<polygon fill="midnightblue" stroke="midnightblue" points="1895.45,-131.35 1884.86,-131.59 1893.29,-138.01 1895.45,-131.35"/>
</g>
<!-- Node84 -->
<g id="node41" class="node">
<title>Node84</title>
<g id="a_node41"><a xlink:href="IPDBRawSymbol_8h.html" target="_top" xlink:title=" ">
<polygon fill="none" stroke="red" points="2301.03,-414.5 2301.03,-444.5 2407.03,-444.5 2407.03,-414.5 2301.03,-414.5"/>
<text text-anchor="start" x="2309.03" y="-432.5" font-family="Helvetica" font-size="10.00">llvm/DebugInfo/PDB</text>
<text text-anchor="middle" x="2354.03" y="-421.5" font-family="Helvetica" font-size="10.00">/IPDBRawSymbol.h</text>
</a>
</g>
</g>
<!-- Node83&#45;&gt;Node84 -->
<g id="edge134" class="edge">
<title>Node83&#45;&gt;Node84</title>
<path fill="none" stroke="midnightblue" d="M2277.3,-481.4C2291.04,-472.28 2309.12,-460.29 2324.28,-450.24"/>
<polygon fill="midnightblue" stroke="midnightblue" points="2326.41,-453.02 2332.81,-444.58 2322.54,-447.19 2326.41,-453.02"/>
</g>
<!-- Node84&#45;&gt;Node3 -->
<g id="edge140" class="edge">
<title>Node84&#45;&gt;Node3</title>
<path fill="none" stroke="midnightblue" d="M2315.92,-414.37C2271.25,-397.88 2194.95,-369.96 2129.03,-347 2096.43,-335.65 2059.71,-323.35 2030.64,-313.74"/>
<polygon fill="midnightblue" stroke="midnightblue" points="2031.68,-310.4 2021.09,-310.58 2029.49,-317.04 2031.68,-310.4"/>
</g>
<!-- Node84&#45;&gt;Node40 -->
<g id="edge139" class="edge">
<title>Node84&#45;&gt;Node40</title>
<path fill="none" stroke="midnightblue" d="M2350.22,-414.5C2345.09,-397.39 2334.76,-368.12 2319.03,-347 2268.17,-278.66 2251.58,-254.49 2172.03,-224 2143.75,-213.16 1232.22,-187.97 968.09,-180.89"/>
<polygon fill="midnightblue" stroke="midnightblue" points="967.94,-177.38 957.85,-180.61 967.76,-184.38 967.94,-177.38"/>
</g>
<!-- Node84&#45;&gt;Node46 -->
<g id="edge141" class="edge">
<title>Node84&#45;&gt;Node46</title>
<path fill="none" stroke="midnightblue" d="M2363.9,-414.31C2387.91,-377.9 2443.94,-280.08 2395.03,-224 2356.41,-179.71 2189.74,-203.43 2133.03,-188 2110.73,-181.93 2107.17,-174.63 2085.03,-168 2005.68,-144.23 1980.77,-149.96 1895.57,-131.98"/>
<polygon fill="midnightblue" stroke="midnightblue" points="1896.24,-128.55 1885.73,-129.86 1894.77,-135.39 1896.24,-128.55"/>
</g>
<!-- Node85 -->
<g id="node42" class="node">
<title>Node85</title>
<g id="a_node42"><a xlink:href="PDBTypes_8h.html" target="_top" xlink:title=" ">
<polygon fill="none" stroke="red" points="2447.53,-353 2447.53,-372 2518.53,-372 2518.53,-353 2447.53,-353"/>
<text text-anchor="middle" x="2483.03" y="-360" font-family="Helvetica" font-size="10.00">PDBTypes.h</text>
</a>
</g>
</g>
<!-- Node84&#45;&gt;Node85 -->
<g id="edge135" class="edge">
<title>Node84&#45;&gt;Node85</title>
<path fill="none" stroke="midnightblue" d="M2382.03,-414.4C2404.36,-403.14 2435.4,-387.5 2457.16,-376.54"/>
<polygon fill="midnightblue" stroke="midnightblue" points="2458.8,-379.63 2466.15,-372.01 2455.65,-373.38 2458.8,-379.63"/>
</g>
<!-- Node85&#45;&gt;Node3 -->
<g id="edge136" class="edge">
<title>Node85&#45;&gt;Node3</title>
<path fill="none" stroke="midnightblue" d="M2447.52,-356.93C2366.1,-346.45 2164.46,-320.49 2053.76,-306.25"/>
<polygon fill="midnightblue" stroke="midnightblue" points="2054.03,-302.75 2043.67,-304.95 2053.14,-309.7 2054.03,-302.75"/>
</g>
<!-- Node85&#45;&gt;Node11 -->
<g id="edge137" class="edge">
<title>Node85&#45;&gt;Node11</title>
<path fill="none" stroke="midnightblue" d="M2485.43,-352.99C2491.6,-329.07 2505.27,-260.55 2471.03,-224 2435.07,-185.6 2288.54,-198.71 2237.03,-188 2202.84,-180.89 2195.15,-175.5 2161.03,-168 2074.78,-149.03 2049.02,-152.88 1962.81,-133.02"/>
<polygon fill="midnightblue" stroke="midnightblue" points="1963.39,-129.56 1952.86,-130.69 1961.79,-136.38 1963.39,-129.56"/>
</g>
<!-- Node85&#45;&gt;Node12 -->
<g id="edge138" class="edge">
<title>Node85&#45;&gt;Node12</title>
<path fill="none" stroke="midnightblue" d="M2478.46,-352.92C2464.4,-327.55 2418.97,-252.84 2357.03,-224 2354.07,-222.62 1516.09,-187.83 1336.62,-180.39"/>
<polygon fill="midnightblue" stroke="midnightblue" points="1336.59,-176.89 1326.45,-179.97 1336.3,-183.88 1336.59,-176.89"/>
</g>
<!-- Node95&#45;&gt;Node55 -->
<g id="edge156" class="edge">
<title>Node95&#45;&gt;Node55</title>
<path fill="none" stroke="midnightblue" d="M2227.05,-628.51C2376.55,-624.45 2749.03,-603.68 2749.03,-497.5 2749.03,-497.5 2749.03,-497.5 2749.03,-428.5 2749.03,-386.82 2733.78,-339.77 2724.34,-314.64"/>
<polygon fill="midnightblue" stroke="midnightblue" points="2727.59,-313.34 2720.71,-305.28 2721.06,-315.87 2727.59,-313.34"/>
</g>
<!-- Node95&#45;&gt;Node58 -->
<g id="edge182" class="edge">
<title>Node95&#45;&gt;Node58</title>
<path fill="none" stroke="midnightblue" d="M2104.85,-629.31C1937.55,-628.24 1458.53,-621.4 1063.03,-579 847.44,-555.89 582.03,-714.32 582.03,-497.5 582.03,-497.5 582.03,-497.5 582.03,-428.5 582.03,-391.31 581.99,-378.95 601.03,-347 609.64,-332.56 623.76,-320.01 635.79,-311.03"/>
<polygon fill="midnightblue" stroke="midnightblue" points="637.94,-313.79 644.07,-305.15 633.89,-308.08 637.94,-313.79"/>
</g>
<!-- Node95&#45;&gt;Node81 -->
<g id="edge157" class="edge">
<title>Node95&#45;&gt;Node81</title>
<path fill="none" stroke="midnightblue" d="M2104.96,-629.73C1918.2,-629.2 1339.27,-618.44 875.03,-512 792.64,-493.11 753.5,-507.91 697.03,-445 683.05,-429.42 678.14,-405.76 676.53,-387.93"/>
<polygon fill="midnightblue" stroke="midnightblue" points="680.01,-387.48 675.9,-377.71 673.02,-387.91 680.01,-387.48"/>
</g>
<!-- Node95&#45;&gt;Node83 -->
<g id="edge163" class="edge">
<title>Node95&#45;&gt;Node83</title>
<path fill="none" stroke="midnightblue" d="M2170.57,-615.38C2176.44,-598.41 2187.73,-569.53 2203.03,-548 2210.74,-537.15 2221.01,-526.73 2230.45,-518.21"/>
<polygon fill="midnightblue" stroke="midnightblue" points="2232.88,-520.73 2238.12,-511.52 2228.28,-515.45 2232.88,-520.73"/>
</g>
<!-- Node95&#45;&gt;Node84 -->
<g id="edge158" class="edge">
<title>Node95&#45;&gt;Node84</title>
<path fill="none" stroke="midnightblue" d="M2199.23,-615.49C2237.96,-597.38 2301.03,-562.12 2335.03,-512 2346.48,-495.14 2351.08,-472.28 2352.91,-455.07"/>
<polygon fill="midnightblue" stroke="midnightblue" points="2356.43,-454.94 2353.75,-444.69 2349.46,-454.37 2356.43,-454.94"/>
</g>
<!-- Node96 -->
<g id="node44" class="node">
<title>Node96</title>
<g id="a_node44"><a xlink:href="DenseMap_8h.html" target="_top" xlink:title=" ">
<polygon fill="none" stroke="red" points="2289.03,-168.5 2289.03,-187.5 2405.03,-187.5 2405.03,-168.5 2289.03,-168.5"/>
<text text-anchor="middle" x="2347.03" y="-175.5" font-family="Helvetica" font-size="10.00">llvm/ADT/DenseMap.h</text>
</a>
</g>
</g>
<!-- Node95&#45;&gt;Node96 -->
<g id="edge145" class="edge">
<title>Node95&#45;&gt;Node96</title>
<path fill="none" stroke="midnightblue" d="M2227.3,-629.61C2386.16,-628.25 2799.03,-613.55 2799.03,-497.5 2799.03,-497.5 2799.03,-497.5 2799.03,-294.5 2799.03,-216.31 2541.94,-190.36 2415.54,-182.33"/>
<polygon fill="midnightblue" stroke="midnightblue" points="2415.4,-178.82 2405.2,-181.7 2414.97,-185.8 2415.4,-178.82"/>
</g>
<!-- Node100 -->
<g id="node45" class="node">
<title>Node100</title>
<g id="a_node45"><a xlink:href="IPDBSession_8h.html" target="_top" xlink:title=" ">
<polygon fill="none" stroke="red" points="2501.03,-414.5 2501.03,-444.5 2607.03,-444.5 2607.03,-414.5 2501.03,-414.5"/>
<text text-anchor="start" x="2509.03" y="-432.5" font-family="Helvetica" font-size="10.00">llvm/DebugInfo/PDB</text>
<text text-anchor="middle" x="2554.03" y="-421.5" font-family="Helvetica" font-size="10.00">/IPDBSession.h</text>
</a>
</g>
</g>
<!-- Node95&#45;&gt;Node100 -->
<g id="edge159" class="edge">
<title>Node95&#45;&gt;Node100</title>
<path fill="none" stroke="midnightblue" d="M2227.2,-625.12C2302.89,-618.69 2426.38,-604.59 2464.03,-579 2508.77,-548.59 2535.01,-487.86 2546.7,-454.24"/>
<polygon fill="midnightblue" stroke="midnightblue" points="2550.03,-455.34 2549.87,-444.75 2543.39,-453.13 2550.03,-455.34"/>
</g>
<!-- Node106 -->
<g id="node46" class="node">
<title>Node106</title>
<g id="a_node46"><a xlink:href="SymbolCache_8h.html" target="_top" xlink:title=" ">
<polygon fill="none" stroke="red" points="1988.53,-548.5 1988.53,-578.5 2107.53,-578.5 2107.53,-548.5 1988.53,-548.5"/>
<text text-anchor="start" x="1996.53" y="-566.5" font-family="Helvetica" font-size="10.00">llvm/DebugInfo/PDB</text>
<text text-anchor="middle" x="2048.03" y="-555.5" font-family="Helvetica" font-size="10.00">/Native/SymbolCache.h</text>
</a>
</g>
</g>
<!-- Node95&#45;&gt;Node106 -->
<g id="edge164" class="edge">
<title>Node95&#45;&gt;Node106</title>
<path fill="none" stroke="midnightblue" d="M2140.43,-615.4C2123.5,-606.07 2101.09,-593.73 2082.59,-583.53"/>
<polygon fill="midnightblue" stroke="midnightblue" points="2084.04,-580.34 2073.59,-578.58 2080.66,-586.47 2084.04,-580.34"/>
</g>
<!-- Node110 -->
<g id="node47" class="node">
<title>Node110</title>
<g id="a_node47"><a xlink:href="Allocator_8h.html" target="_top" xlink:title="This file defines the BumpPtrAllocator interface.">
<polygon fill="none" stroke="red" points="202.03,-224.5 202.03,-243.5 324.03,-243.5 324.03,-224.5 202.03,-224.5"/>
<text text-anchor="middle" x="263.03" y="-231.5" font-family="Helvetica" font-size="10.00">llvm/Support/Allocator.h</text>
</a>
</g>
</g>
<!-- Node95&#45;&gt;Node110 -->
<g id="edge171" class="edge">
<title>Node95&#45;&gt;Node110</title>
<path fill="none" stroke="midnightblue" d="M2104.66,-629.14C1831.69,-627.31 734.71,-617.61 586.03,-579 509.56,-559.14 428.03,-576.51 428.03,-497.5 428.03,-497.5 428.03,-497.5 428.03,-361.5 428.03,-299.2 353.02,-263.4 304.15,-246.69"/>
<polygon fill="midnightblue" stroke="midnightblue" points="305.05,-243.3 294.46,-243.51 302.87,-249.95 305.05,-243.3"/>
</g>
<!-- Node96&#45;&gt;Node5 -->
<g id="edge154" class="edge">
<title>Node96&#45;&gt;Node5</title>
<path fill="none" stroke="midnightblue" d="M2355.07,-168.46C2366.72,-155.04 2385.41,-128.83 2371.03,-112 2293.2,-20.92 1901.79,-11.48 1772.53,-10.88"/>
<polygon fill="midnightblue" stroke="midnightblue" points="1772.27,-7.38 1762.26,-10.85 1772.25,-14.38 1772.27,-7.38"/>
</g>
<!-- Node96&#45;&gt;Node7 -->
<g id="edge146" class="edge">
<title>Node96&#45;&gt;Node7</title>
<path fill="none" stroke="midnightblue" d="M2339.14,-168.31C2325.21,-153.67 2294.67,-124.45 2262.03,-112 2131.5,-62.2 1148.1,-23.46 872.59,-13.5"/>
<polygon fill="midnightblue" stroke="midnightblue" points="872.43,-9.99 862.31,-13.13 872.18,-16.99 872.43,-9.99"/>
</g>
<!-- Node96&#45;&gt;Node14 -->
<g id="edge149" class="edge">
<title>Node96&#45;&gt;Node14</title>
<path fill="none" stroke="midnightblue" d="M2288.93,-168.75C2222.8,-159.08 2119.06,-142.98 2081.03,-132 2058.83,-125.59 2055.59,-117.02 2033.03,-112 1851.96,-71.7 1384.25,-86.41 1199.03,-76 1167.07,-74.2 1130.72,-71.64 1104.61,-69.71"/>
<polygon fill="midnightblue" stroke="midnightblue" points="1104.66,-66.21 1094.43,-68.95 1104.14,-73.19 1104.66,-66.21"/>
</g>
<!-- Node96&#45;&gt;Node11 -->
<g id="edge150" class="edge">
<title>Node96&#45;&gt;Node11</title>
<path fill="none" stroke="midnightblue" d="M2288.77,-169.49C2200.44,-158.11 2035.3,-136.82 1963.21,-127.53"/>
<polygon fill="midnightblue" stroke="midnightblue" points="1963.23,-124.01 1952.86,-126.2 1962.33,-130.95 1963.23,-124.01"/>
</g>
<!-- Node96&#45;&gt;Node36 -->
<g id="edge147" class="edge">
<title>Node96&#45;&gt;Node36</title>
<path fill="none" stroke="midnightblue" d="M2288.75,-169.59C2211.82,-159.64 2080.58,-142.06 2033.03,-132 2000.96,-125.22 1994.42,-117.12 1962.03,-112 1554.78,-47.66 1446.62,-100.52 1035.03,-76 1023.02,-75.28 1010.28,-74.39 997.88,-73.45"/>
<polygon fill="midnightblue" stroke="midnightblue" points="997.8,-69.93 987.56,-72.64 997.26,-76.91 997.8,-69.93"/>
</g>
<!-- Node96&#45;&gt;Node37 -->
<g id="edge155" class="edge">
<title>Node96&#45;&gt;Node37</title>
<path fill="none" stroke="midnightblue" d="M2348.08,-168.26C2349.25,-154.06 2349.16,-126.17 2333.03,-112 2241.6,-31.65 1330.83,-14.09 1152.3,-11.41"/>
<polygon fill="midnightblue" stroke="midnightblue" points="1152.34,-7.91 1142.29,-11.26 1152.24,-14.91 1152.34,-7.91"/>
</g>
<!-- Node96&#45;&gt;Node23 -->
<g id="edge148" class="edge">
<title>Node96&#45;&gt;Node23</title>
<path fill="none" stroke="midnightblue" d="M2309.25,-168.46C2269.93,-159.53 2206.61,-145.03 2152.03,-132 2115.97,-123.39 2107.71,-117.47 2071.03,-112 1914.14,-88.62 1416.65,-72.36 1274.38,-68.11"/>
<polygon fill="midnightblue" stroke="midnightblue" points="1274.47,-64.61 1264.37,-67.81 1274.27,-71.61 1274.47,-64.61"/>
</g>
<!-- Node96&#45;&gt;Node44 -->
<g id="edge151" class="edge">
<title>Node96&#45;&gt;Node44</title>
<path fill="none" stroke="midnightblue" d="M2288.97,-173.8C2110.75,-163.99 1573.89,-134.44 1412.45,-125.56"/>
<polygon fill="midnightblue" stroke="midnightblue" points="1412.54,-122.05 1402.37,-125 1412.16,-129.04 1412.54,-122.05"/>
</g>
<!-- Node96&#45;&gt;Node45 -->
<g id="edge152" class="edge">
<title>Node96&#45;&gt;Node45</title>
<path fill="none" stroke="midnightblue" d="M2288.8,-176.15C2103.66,-173.18 1529.14,-161.86 1321.87,-131.67"/>
<polygon fill="midnightblue" stroke="midnightblue" points="1322.1,-128.17 1311.69,-130.13 1321.05,-135.09 1322.1,-128.17"/>
</g>
<!-- Node96&#45;&gt;Node47 -->
<g id="edge153" class="edge">
<title>Node96&#45;&gt;Node47</title>
<path fill="none" stroke="midnightblue" d="M2288.78,-175.06C2103.35,-168.86 1510.11,-148.99 1019.03,-132 936.45,-129.14 838.82,-125.67 791.92,-124"/>
<polygon fill="midnightblue" stroke="midnightblue" points="791.77,-120.49 781.66,-123.63 791.52,-127.49 791.77,-120.49"/>
</g>
<!-- Node100&#45;&gt;Node46 -->
<g id="edge162" class="edge">
<title>Node100&#45;&gt;Node46</title>
<path fill="none" stroke="midnightblue" d="M2551.51,-414.47C2548.05,-397.59 2540.76,-368.81 2528.03,-347 2490.47,-282.62 2480.07,-258.57 2414.03,-224 2313.42,-171.32 2269.1,-222.96 2161.03,-188 2142.88,-182.12 2141.15,-174.01 2123.03,-168 2028.71,-136.69 1997.51,-151.46 1895.78,-131.95"/>
<polygon fill="midnightblue" stroke="midnightblue" points="1896.2,-128.46 1885.71,-129.95 1894.84,-135.33 1896.2,-128.46"/>
</g>
<!-- Node100&#45;&gt;Node55 -->
<g id="edge161" class="edge">
<title>Node100&#45;&gt;Node55</title>
<path fill="none" stroke="midnightblue" d="M2607.12,-419.25C2634.12,-412.09 2665.66,-399.59 2687.03,-378 2703.9,-360.96 2711.39,-333.65 2714.64,-315.4"/>
<polygon fill="midnightblue" stroke="midnightblue" points="2718.12,-315.79 2716.17,-305.38 2711.2,-314.74 2718.12,-315.79"/>
</g>
<!-- Node100&#45;&gt;Node85 -->
<g id="edge160" class="edge">
<title>Node100&#45;&gt;Node85</title>
<path fill="none" stroke="midnightblue" d="M2538.63,-414.4C2527.23,-403.96 2511.71,-389.75 2499.96,-379"/>
<polygon fill="midnightblue" stroke="midnightblue" points="2502.27,-376.37 2492.53,-372.19 2497.54,-381.53 2502.27,-376.37"/>
</g>
<!-- Node106&#45;&gt;Node19 -->
<g id="edge166" class="edge">
<title>Node106&#45;&gt;Node19</title>
<path fill="none" stroke="midnightblue" d="M1988.45,-556.56C1869.57,-544.71 1603.14,-518.15 1471.96,-505.07"/>
<polygon fill="midnightblue" stroke="midnightblue" points="1472.28,-501.58 1461.98,-504.07 1471.59,-508.55 1472.28,-501.58"/>
</g>
<!-- Node106&#45;&gt;Node46 -->
<g id="edge169" class="edge">
<title>Node106&#45;&gt;Node46</title>
<path fill="none" stroke="midnightblue" d="M2058.45,-548.32C2099.78,-491.23 2247.82,-278.71 2202.03,-224 2143.79,-154.4 2087.65,-215.1 2001.03,-188 1957.98,-174.53 1910.91,-151.11 1883.23,-136.37"/>
<polygon fill="midnightblue" stroke="midnightblue" points="1884.75,-133.21 1874.28,-131.54 1881.42,-139.37 1884.75,-133.21"/>
</g>
<!-- Node106&#45;&gt;Node54 -->
<g id="edge170" class="edge">
<title>Node106&#45;&gt;Node54</title>
<path fill="none" stroke="midnightblue" d="M2032.66,-548.21C1982.73,-502.51 1819.08,-358.36 1659.03,-280 1658.86,-279.91 1580.4,-257.15 1535.19,-244.04"/>
<polygon fill="midnightblue" stroke="midnightblue" points="1536.13,-240.67 1525.55,-241.24 1534.18,-247.39 1536.13,-240.67"/>
</g>
<!-- Node106&#45;&gt;Node81 -->
<g id="edge167" class="edge">
<title>Node106&#45;&gt;Node81</title>
<path fill="none" stroke="midnightblue" d="M1988.24,-560.25C1745.26,-550.68 839.67,-510.86 731.03,-445 709.03,-431.66 693.87,-405.78 685.13,-386.74"/>
<polygon fill="midnightblue" stroke="midnightblue" points="688.32,-385.31 681.13,-377.52 681.89,-388.09 688.32,-385.31"/>
</g>
<!-- Node106&#45;&gt;Node83 -->
<g id="edge168" class="edge">
<title>Node106&#45;&gt;Node83</title>
<path fill="none" stroke="midnightblue" d="M2092.91,-548.48C2124.65,-538.56 2167.39,-525.2 2201.16,-514.65"/>
<polygon fill="midnightblue" stroke="midnightblue" points="2202.38,-517.93 2210.88,-511.61 2200.29,-511.25 2202.38,-517.93"/>
</g>
<!-- Node106&#45;&gt;Node96 -->
<g id="edge165" class="edge">
<title>Node106&#45;&gt;Node96</title>
<path fill="none" stroke="midnightblue" d="M2064.75,-548.26C2088.28,-529.14 2133.29,-495.88 2178.03,-481 2270.71,-450.19 2549.87,-516.83 2616.03,-445 2683.57,-371.69 2812.26,-466.12 2491.03,-224 2468.69,-207.15 2439.91,-196.53 2413.96,-189.87"/>
<polygon fill="midnightblue" stroke="midnightblue" points="2414.71,-186.45 2404.17,-187.51 2413.07,-193.26 2414.71,-186.45"/>
</g>
<!-- Node110&#45;&gt;Node5 -->
<g id="edge180" class="edge">
<title>Node110&#45;&gt;Node5</title>
<path fill="none" stroke="midnightblue" d="M265.75,-224.18C270.19,-210.85 280.03,-185.29 295.03,-168 323.95,-134.66 335.58,-127.15 377.03,-112 525.15,-57.86 573.75,-97.08 730.03,-76 783.18,-68.83 795.72,-61.82 849.03,-56 1171.48,-20.8 1563.32,-13.05 1689.66,-11.41"/>
<polygon fill="midnightblue" stroke="midnightblue" points="1689.73,-14.91 1699.68,-11.29 1689.64,-7.92 1689.73,-14.91"/>
</g>
<!-- Node110&#45;&gt;Node7 -->
<g id="edge174" class="edge">
<title>Node110&#45;&gt;Node7</title>
<path fill="none" stroke="midnightblue" d="M219.51,-224.47C193.83,-217.79 161.81,-206.46 138.03,-188 89.81,-150.57 58.27,-100.53 100.03,-56 121.35,-33.27 555.63,-18.15 729.74,-12.98"/>
<polygon fill="midnightblue" stroke="midnightblue" points="729.94,-16.47 739.83,-12.68 729.74,-9.47 729.94,-16.47"/>
</g>
<!-- Node110&#45;&gt;Node14 -->
<g id="edge176" class="edge">
<title>Node110&#45;&gt;Node14</title>
<path fill="none" stroke="midnightblue" d="M268.74,-224.34C278.05,-210.75 297.75,-184.31 320.03,-168 370.15,-131.33 387.7,-126.7 448.03,-112 685.18,-54.22 753.03,-98.94 996.03,-76 1008.33,-74.84 1021.74,-73.27 1033.69,-71.77"/>
<polygon fill="midnightblue" stroke="midnightblue" points="1034.26,-75.23 1043.73,-70.48 1033.37,-68.28 1034.26,-75.23"/>
</g>
<!-- Node110&#45;&gt;Node11 -->
<g id="edge177" class="edge">
<title>Node110&#45;&gt;Node11</title>
<path fill="none" stroke="midnightblue" d="M324.12,-229.99C454.67,-223.43 770.56,-206.91 1035.03,-188 1140.03,-180.49 1166.04,-175.48 1271.03,-168 1544.74,-148.51 1619.07,-176.1 1893.04,-132.01"/>
<polygon fill="midnightblue" stroke="midnightblue" points="1893.98,-135.4 1903.29,-130.34 1892.86,-128.49 1893.98,-135.4"/>
</g>
<!-- Node110&#45;&gt;Node12 -->
<g id="edge178" class="edge">
<title>Node110&#45;&gt;Node12</title>
<path fill="none" stroke="midnightblue" d="M324.1,-231.7C476.73,-228.1 887.07,-216.37 1228.03,-188 1241.75,-186.86 1256.82,-185.14 1269.84,-183.51"/>
<polygon fill="midnightblue" stroke="midnightblue" points="1270.3,-186.98 1279.77,-182.23 1269.4,-180.04 1270.3,-186.98"/>
</g>
<!-- Node110&#45;&gt;Node37 -->
<g id="edge181" class="edge">
<title>Node110&#45;&gt;Node37</title>
<path fill="none" stroke="midnightblue" d="M228.02,-224.45C209.1,-217.84 187.35,-206.59 176.03,-188 158.47,-159.15 153.45,-137.12 176.03,-112 238.78,-42.2 935.85,-16.73 1091.39,-11.89"/>
<polygon fill="midnightblue" stroke="midnightblue" points="1091.74,-15.38 1101.63,-11.58 1091.53,-8.39 1091.74,-15.38"/>
</g>
<!-- Node110&#45;&gt;Node23 -->
<g id="edge175" class="edge">
<title>Node110&#45;&gt;Node23</title>
<path fill="none" stroke="midnightblue" d="M272.93,-224.36C288.86,-210.81 321.6,-184.41 353.03,-168 419.82,-133.14 439.18,-126.88 513.03,-112 770.57,-60.11 840.87,-92.87 1103.03,-76 1135.04,-73.94 1171.38,-71.47 1197.97,-69.64"/>
<polygon fill="midnightblue" stroke="midnightblue" points="1198.28,-73.13 1208.02,-68.95 1197.8,-66.15 1198.28,-73.13"/>
</g>
<!-- Node110&#45;&gt;Node40 -->
<g id="edge173" class="edge">
<title>Node110&#45;&gt;Node40</title>
<path fill="none" stroke="midnightblue" d="M324.11,-227.8C442.14,-217.74 700.93,-195.7 826.25,-185.03"/>
<polygon fill="midnightblue" stroke="midnightblue" points="826.83,-188.49 836.5,-184.16 826.23,-181.52 826.83,-188.49"/>
</g>
<!-- Node110&#45;&gt;Node45 -->
<g id="edge179" class="edge">
<title>Node110&#45;&gt;Node45</title>
<path fill="none" stroke="midnightblue" d="M324.43,-231.86C446.93,-228.97 730.22,-219.2 966.03,-188 1021.96,-180.6 1183.76,-145.82 1254.39,-130.39"/>
<polygon fill="midnightblue" stroke="midnightblue" points="1255.5,-133.73 1264.52,-128.18 1254,-126.9 1255.5,-133.73"/>
</g>
<!-- Node110&#45;&gt;Node49 -->
<g id="edge172" class="edge">
<title>Node110&#45;&gt;Node49</title>
<path fill="none" stroke="midnightblue" d="M286.96,-224.44C312.25,-215.4 352.34,-201.06 380.71,-190.92"/>
<polygon fill="midnightblue" stroke="midnightblue" points="381.98,-194.18 390.22,-187.52 379.63,-187.59 381.98,-194.18"/>
</g>
<!-- Node151&#45;&gt;Node83 -->
<g id="edge185" class="edge">
<title>Node151&#45;&gt;Node83</title>
<path fill="none" stroke="midnightblue" d="M2359.39,-548.4C2340.19,-538.94 2314.7,-526.39 2293.84,-516.12"/>
<polygon fill="midnightblue" stroke="midnightblue" points="2295.14,-512.85 2284.62,-511.58 2292.05,-519.13 2295.14,-512.85"/>
</g>
<!-- Node151&#45;&gt;Node85 -->
<g id="edge186" class="edge">
<title>Node151&#45;&gt;Node85</title>
<path fill="none" stroke="midnightblue" d="M2394.87,-548.19C2411.82,-512.68 2455.77,-420.61 2474.44,-381.5"/>
<polygon fill="midnightblue" stroke="midnightblue" points="2477.65,-382.89 2478.8,-372.36 2471.34,-379.88 2477.65,-382.89"/>
</g>
<!-- Node152&#45;&gt;Node3 -->
<g id="edge189" class="edge">
<title>Node152&#45;&gt;Node3</title>
<path fill="none" stroke="midnightblue" d="M1983.43,-682.4C1982.52,-660.34 1980.8,-616.34 1980.03,-579 1978.07,-483.47 1977.94,-369.73 1977.99,-320.82"/>
<polygon fill="midnightblue" stroke="midnightblue" points="1981.49,-320.62 1978,-310.61 1974.49,-320.61 1981.49,-320.62"/>
</g>
<!-- Node152&#45;&gt;Node49 -->
<g id="edge188" class="edge">
<title>Node152&#45;&gt;Node49</title>
<path fill="none" stroke="midnightblue" d="M1917.37,-696.5C1642.82,-696.2 607.48,-692.01 469.03,-646 408.9,-626.01 352.03,-627.87 352.03,-564.5 352.03,-564.5 352.03,-564.5 352.03,-294.5 352.03,-255.3 380.11,-216.55 398.47,-195.4"/>
<polygon fill="midnightblue" stroke="midnightblue" points="401.32,-197.48 405.41,-187.71 396.12,-192.79 401.32,-197.48"/>
</g>
<!-- Node152&#45;&gt;Node83 -->
<g id="edge192" class="edge">
<title>Node152&#45;&gt;Node83</title>
<path fill="none" stroke="midnightblue" d="M2001.99,-682.46C2036.34,-655.71 2113.9,-595.86 2181.03,-548 2195.61,-537.61 2212.08,-526.46 2225.87,-517.28"/>
<polygon fill="midnightblue" stroke="midnightblue" points="2228.09,-520.01 2234.49,-511.57 2224.22,-514.17 2228.09,-520.01"/>
</g>
<!-- Node152&#45;&gt;Node95 -->
<g id="edge193" class="edge">
<title>Node152&#45;&gt;Node95</title>
<path fill="none" stroke="midnightblue" d="M2023.53,-682.4C2050.95,-672.6 2087.69,-659.48 2116.99,-649.02"/>
<polygon fill="midnightblue" stroke="midnightblue" points="2118.38,-652.24 2126.62,-645.58 2116.03,-645.64 2118.38,-652.24"/>
</g>
<!-- Node127 -->
<g id="node50" class="node">
<title>Node127</title>
<g id="a_node50"><a xlink:href="TypeVisitorCallbacks_8h.html" target="_top" xlink:title=" ">
<polygon fill="none" stroke="red" points="478.53,-615.5 478.53,-645.5 609.53,-645.5 609.53,-615.5 478.53,-615.5"/>
<text text-anchor="start" x="486.53" y="-633.5" font-family="Helvetica" font-size="10.00">llvm/DebugInfo/CodeView</text>
<text text-anchor="middle" x="544.03" y="-622.5" font-family="Helvetica" font-size="10.00">/TypeVisitorCallbacks.h</text>
</a>
</g>
</g>
<!-- Node152&#45;&gt;Node127 -->
<g id="edge190" class="edge">
<title>Node152&#45;&gt;Node127</title>
<path fill="none" stroke="midnightblue" d="M1917.52,-695.28C1680.72,-690.76 879.19,-673.72 624.03,-646 622.73,-645.86 621.42,-645.71 620.1,-645.55"/>
<polygon fill="midnightblue" stroke="midnightblue" points="620.22,-642.04 609.85,-644.19 619.3,-648.98 620.22,-642.04"/>
</g>
<!-- Node127&#45;&gt;Node58 -->
<g id="edge191" class="edge">
<title>Node127&#45;&gt;Node58</title>
<path fill="none" stroke="midnightblue" d="M544.03,-615.24C544.03,-591.03 544.03,-540.35 544.03,-497.5 544.03,-497.5 544.03,-497.5 544.03,-428.5 544.03,-390.74 544.5,-376.53 568.03,-347 581.92,-329.58 603.54,-317.17 622.12,-309.01"/>
<polygon fill="midnightblue" stroke="midnightblue" points="623.59,-312.19 631.49,-305.13 620.92,-305.72 623.59,-312.19"/>
</g>
</g>
</svg>
