<?xml version="1.0" encoding="UTF-8" standalone="no"?>
<!DOCTYPE svg PUBLIC "-//W3C//DTD SVG 1.1//EN"
 "http://www.w3.org/Graphics/SVG/1.1/DTD/svg11.dtd">
<!-- Generated by graphviz version 2.44.0 (0)
 -->
<!-- Title: lib/Target/NVPTX/NVPTXMCExpr.h Pages: 1 -->
<svg width="362pt" height="95pt"
 viewBox="0.00 0.00 361.50 95.00" xmlns="http://www.w3.org/2000/svg" xmlns:xlink="http://www.w3.org/1999/xlink">
<g id="graph0" class="graph" transform="scale(1 1) rotate(0) translate(4 91)">
<title>lib/Target/NVPTX/NVPTXMCExpr.h</title>
<!-- Node1 -->
<g id="node1" class="node">
<title>Node1</title>
<g id="a_node1"><a xlink:title=" ">
<polygon fill="#bfbfbf" stroke="black" points="81,-67.5 81,-86.5 255,-86.5 255,-67.5 81,-67.5"/>
<text text-anchor="middle" x="168" y="-74.5" font-family="Helvetica" font-size="10.00">lib/Target/NVPTX/NVPTXMCExpr.h</text>
</a>
</g>
</g>
<!-- Node2 -->
<g id="node2" class="node">
<title>Node2</title>
<g id="a_node2"><a xlink:href="NVPTXAsmPrinter_8cpp.html" target="_top" xlink:title=" ">
<polygon fill="none" stroke="black" points="0,-0.5 0,-30.5 150,-30.5 150,-0.5 0,-0.5"/>
<text text-anchor="start" x="8" y="-18.5" font-family="Helvetica" font-size="10.00">lib/Target/NVPTX/NVPTXAsm</text>
<text text-anchor="middle" x="75" y="-7.5" font-family="Helvetica" font-size="10.00">Printer.cpp</text>
</a>
</g>
</g>
<!-- Node1&#45;&gt;Node2 -->
<g id="edge1" class="edge">
<title>Node1&#45;&gt;Node2</title>
<path fill="none" stroke="midnightblue" d="M146.13,-62.01C131.3,-52.52 111.76,-40.02 96.92,-30.52"/>
<polygon fill="midnightblue" stroke="midnightblue" points="144.37,-65.03 154.68,-67.48 148.14,-59.14 144.37,-65.03"/>
</g>
<!-- Node3 -->
<g id="node3" class="node">
<title>Node3</title>
<g id="a_node3"><a xlink:href="NVPTXMCExpr_8cpp.html" target="_top" xlink:title=" ">
<polygon fill="none" stroke="black" points="168.5,-6 168.5,-25 353.5,-25 353.5,-6 168.5,-6"/>
<text text-anchor="middle" x="261" y="-13" font-family="Helvetica" font-size="10.00">lib/Target/NVPTX/NVPTXMCExpr.cpp</text>
</a>
</g>
</g>
<!-- Node1&#45;&gt;Node3 -->
<g id="edge2" class="edge">
<title>Node1&#45;&gt;Node3</title>
<path fill="none" stroke="midnightblue" d="M189.99,-61.93C207.92,-50.46 232.66,-34.63 247.7,-25.01"/>
<polygon fill="midnightblue" stroke="midnightblue" points="187.86,-59.14 181.32,-67.48 191.63,-65.03 187.86,-59.14"/>
</g>
</g>
</svg>
