<?xml version="1.0" encoding="UTF-8" standalone="no"?>
<!DOCTYPE svg PUBLIC "-//W3C//DTD SVG 1.1//EN"
 "http://www.w3.org/Graphics/SVG/1.1/DTD/svg11.dtd">
<!-- Generated by graphviz version 2.44.0 (0)
 -->
<!-- Title: lib/Target/PowerPC/MCTargetDesc/PPCPredicates.h Pages: 1 -->
<svg width="1958pt" height="106pt"
 viewBox="0.00 0.00 1958.00 106.00" xmlns="http://www.w3.org/2000/svg" xmlns:xlink="http://www.w3.org/1999/xlink">
<g id="graph0" class="graph" transform="scale(1 1) rotate(0) translate(4 102)">
<title>lib/Target/PowerPC/MCTargetDesc/PPCPredicates.h</title>
<!-- Node1 -->
<g id="node1" class="node">
<title>Node1</title>
<g id="a_node1"><a xlink:title=" ">
<polygon fill="#bfbfbf" stroke="black" points="943.5,-67.5 943.5,-97.5 1106.5,-97.5 1106.5,-67.5 943.5,-67.5"/>
<text text-anchor="start" x="951.5" y="-85.5" font-family="Helvetica" font-size="10.00">lib/Target/PowerPC</text>
<text text-anchor="middle" x="1025" y="-74.5" font-family="Helvetica" font-size="10.00">/MCTargetDesc/PPCPredicates.h</text>
</a>
</g>
</g>
<!-- Node2 -->
<g id="node2" class="node">
<title>Node2</title>
<g id="a_node2"><a xlink:href="PPCInstPrinter_8cpp.html" target="_top" xlink:title=" ">
<polygon fill="none" stroke="black" points="0,-0.5 0,-30.5 172,-30.5 172,-0.5 0,-0.5"/>
<text text-anchor="start" x="8" y="-18.5" font-family="Helvetica" font-size="10.00">lib/Target/PowerPC</text>
<text text-anchor="middle" x="86" y="-7.5" font-family="Helvetica" font-size="10.00">/MCTargetDesc/PPCInstPrinter.cpp</text>
</a>
</g>
</g>
<!-- Node1&#45;&gt;Node2 -->
<g id="edge1" class="edge">
<title>Node1&#45;&gt;Node2</title>
<path fill="none" stroke="midnightblue" d="M932.88,-78.75C777.49,-73.5 453.54,-59.89 181,-31 178.1,-30.69 175.15,-30.36 172.17,-30"/>
<polygon fill="midnightblue" stroke="midnightblue" points="933.21,-82.27 943.32,-79.1 933.44,-75.27 933.21,-82.27"/>
</g>
<!-- Node3 -->
<g id="node3" class="node">
<title>Node3</title>
<g id="a_node3"><a xlink:href="PPCPredicates_8cpp.html" target="_top" xlink:title=" ">
<polygon fill="none" stroke="black" points="190.5,-0.5 190.5,-30.5 363.5,-30.5 363.5,-0.5 190.5,-0.5"/>
<text text-anchor="start" x="198.5" y="-18.5" font-family="Helvetica" font-size="10.00">lib/Target/PowerPC</text>
<text text-anchor="middle" x="277" y="-7.5" font-family="Helvetica" font-size="10.00">/MCTargetDesc/PPCPredicates.cpp</text>
</a>
</g>
</g>
<!-- Node1&#45;&gt;Node3 -->
<g id="edge2" class="edge">
<title>Node1&#45;&gt;Node3</title>
<path fill="none" stroke="midnightblue" d="M933.33,-76.56C806.81,-69.26 571.62,-53.92 372,-31 369.27,-30.69 366.49,-30.35 363.69,-30"/>
<polygon fill="midnightblue" stroke="midnightblue" points="933.19,-80.06 943.37,-77.14 933.59,-73.07 933.19,-80.06"/>
</g>
<!-- Node4 -->
<g id="node4" class="node">
<title>Node4</title>
<g id="a_node4"><a xlink:href="PPCAsmPrinter_8cpp.html" target="_top" xlink:title=" ">
<polygon fill="none" stroke="black" points="381.5,-0.5 381.5,-30.5 488.5,-30.5 488.5,-0.5 381.5,-0.5"/>
<text text-anchor="start" x="389.5" y="-18.5" font-family="Helvetica" font-size="10.00">lib/Target/PowerPC</text>
<text text-anchor="middle" x="435" y="-7.5" font-family="Helvetica" font-size="10.00">/PPCAsmPrinter.cpp</text>
</a>
</g>
</g>
<!-- Node1&#45;&gt;Node4 -->
<g id="edge3" class="edge">
<title>Node1&#45;&gt;Node4</title>
<path fill="none" stroke="midnightblue" d="M933.16,-76.47C827.44,-69.81 648.85,-55.9 497,-31 494.27,-30.55 491.49,-30.05 488.68,-29.52"/>
<polygon fill="midnightblue" stroke="midnightblue" points="932.96,-79.96 943.16,-77.09 933.39,-72.98 932.96,-79.96"/>
</g>
<!-- Node5 -->
<g id="node5" class="node">
<title>Node5</title>
<g id="a_node5"><a xlink:href="PPCBranchSelector_8cpp.html" target="_top" xlink:title=" ">
<polygon fill="none" stroke="black" points="506.5,-0.5 506.5,-30.5 631.5,-30.5 631.5,-0.5 506.5,-0.5"/>
<text text-anchor="start" x="514.5" y="-18.5" font-family="Helvetica" font-size="10.00">lib/Target/PowerPC</text>
<text text-anchor="middle" x="569" y="-7.5" font-family="Helvetica" font-size="10.00">/PPCBranchSelector.cpp</text>
</a>
</g>
</g>
<!-- Node1&#45;&gt;Node5 -->
<g id="edge4" class="edge">
<title>Node1&#45;&gt;Node5</title>
<path fill="none" stroke="midnightblue" d="M933.21,-71.21C855.25,-62.04 740.51,-47.54 641,-31 637.98,-30.5 634.9,-29.96 631.78,-29.41"/>
<polygon fill="midnightblue" stroke="midnightblue" points="933.14,-74.72 943.48,-72.41 933.96,-67.77 933.14,-74.72"/>
</g>
<!-- Node6 -->
<g id="node6" class="node">
<title>Node6</title>
<g id="a_node6"><a xlink:href="PPCEarlyReturn_8cpp.html" target="_top" xlink:title=" ">
<polygon fill="none" stroke="black" points="650,-0.5 650,-30.5 760,-30.5 760,-0.5 650,-0.5"/>
<text text-anchor="start" x="658" y="-18.5" font-family="Helvetica" font-size="10.00">lib/Target/PowerPC</text>
<text text-anchor="middle" x="705" y="-7.5" font-family="Helvetica" font-size="10.00">/PPCEarlyReturn.cpp</text>
</a>
</g>
</g>
<!-- Node1&#45;&gt;Node6 -->
<g id="edge5" class="edge">
<title>Node1&#45;&gt;Node6</title>
<path fill="none" stroke="midnightblue" d="M940.83,-65.51C890.83,-55.86 826.22,-43.12 769,-31 766.1,-30.39 763.13,-29.75 760.14,-29.09"/>
<polygon fill="midnightblue" stroke="midnightblue" points="940.47,-69.01 950.95,-67.46 941.79,-62.13 940.47,-69.01"/>
</g>
<!-- Node7 -->
<g id="node7" class="node">
<title>Node7</title>
<g id="a_node7"><a xlink:href="PPCFastISel_8cpp.html" target="_top" xlink:title=" ">
<polygon fill="none" stroke="black" points="778.5,-0.5 778.5,-30.5 879.5,-30.5 879.5,-0.5 778.5,-0.5"/>
<text text-anchor="start" x="786.5" y="-18.5" font-family="Helvetica" font-size="10.00">lib/Target/PowerPC</text>
<text text-anchor="middle" x="829" y="-7.5" font-family="Helvetica" font-size="10.00">/PPCFastISel.cpp</text>
</a>
</g>
</g>
<!-- Node1&#45;&gt;Node7 -->
<g id="edge6" class="edge">
<title>Node1&#45;&gt;Node7</title>
<path fill="none" stroke="midnightblue" d="M972.92,-64.23C941.21,-53.71 901.22,-40.45 871.45,-30.58"/>
<polygon fill="midnightblue" stroke="midnightblue" points="971.88,-67.57 982.47,-67.4 974.08,-60.93 971.88,-67.57"/>
</g>
<!-- Node8 -->
<g id="node8" class="node">
<title>Node8</title>
<g id="a_node8"><a xlink:href="PPCFrameLowering_8cpp.html" target="_top" xlink:title=" ">
<polygon fill="none" stroke="black" points="897.5,-0.5 897.5,-30.5 1022.5,-30.5 1022.5,-0.5 897.5,-0.5"/>
<text text-anchor="start" x="905.5" y="-18.5" font-family="Helvetica" font-size="10.00">lib/Target/PowerPC</text>
<text text-anchor="middle" x="960" y="-7.5" font-family="Helvetica" font-size="10.00">/PPCFrameLowering.cpp</text>
</a>
</g>
</g>
<!-- Node1&#45;&gt;Node8 -->
<g id="edge7" class="edge">
<title>Node1&#45;&gt;Node8</title>
<path fill="none" stroke="midnightblue" d="M1003.81,-60.31C994.06,-50.56 982.76,-39.26 974.08,-30.58"/>
<polygon fill="midnightblue" stroke="midnightblue" points="1001.35,-62.8 1010.9,-67.4 1006.3,-57.85 1001.35,-62.8"/>
</g>
<!-- Node9 -->
<g id="node9" class="node">
<title>Node9</title>
<g id="a_node9"><a xlink:href="PPCInstrInfo_8cpp.html" target="_top" xlink:title=" ">
<polygon fill="none" stroke="black" points="1040.5,-0.5 1040.5,-30.5 1141.5,-30.5 1141.5,-0.5 1040.5,-0.5"/>
<text text-anchor="start" x="1048.5" y="-18.5" font-family="Helvetica" font-size="10.00">lib/Target/PowerPC</text>
<text text-anchor="middle" x="1091" y="-7.5" font-family="Helvetica" font-size="10.00">/PPCInstrInfo.cpp</text>
</a>
</g>
</g>
<!-- Node1&#45;&gt;Node9 -->
<g id="edge8" class="edge">
<title>Node1&#45;&gt;Node9</title>
<path fill="none" stroke="midnightblue" d="M1046.51,-60.31C1056.41,-50.56 1067.89,-39.26 1076.71,-30.58"/>
<polygon fill="midnightblue" stroke="midnightblue" points="1043.99,-57.89 1039.32,-67.4 1048.9,-62.87 1043.99,-57.89"/>
</g>
<!-- Node10 -->
<g id="node10" class="node">
<title>Node10</title>
<g id="a_node10"><a xlink:href="PPCISelDAGToDAG_8cpp.html" target="_top" xlink:title=" ">
<polygon fill="none" stroke="black" points="1159.5,-0.5 1159.5,-30.5 1286.5,-30.5 1286.5,-0.5 1159.5,-0.5"/>
<text text-anchor="start" x="1167.5" y="-18.5" font-family="Helvetica" font-size="10.00">lib/Target/PowerPC</text>
<text text-anchor="middle" x="1223" y="-7.5" font-family="Helvetica" font-size="10.00">/PPCISelDAGToDAG.cpp</text>
</a>
</g>
</g>
<!-- Node1&#45;&gt;Node10 -->
<g id="edge9" class="edge">
<title>Node1&#45;&gt;Node10</title>
<path fill="none" stroke="midnightblue" d="M1077.61,-64.23C1109.64,-53.71 1150.04,-40.45 1180.12,-30.58"/>
<polygon fill="midnightblue" stroke="midnightblue" points="1076.37,-60.95 1067.96,-67.4 1078.56,-67.6 1076.37,-60.95"/>
</g>
<!-- Node11 -->
<g id="node11" class="node">
<title>Node11</title>
<g id="a_node11"><a xlink:href="PPCISelLowering_8cpp.html" target="_top" xlink:title=" ">
<polygon fill="none" stroke="black" points="1305,-0.5 1305,-30.5 1419,-30.5 1419,-0.5 1305,-0.5"/>
<text text-anchor="start" x="1313" y="-18.5" font-family="Helvetica" font-size="10.00">lib/Target/PowerPC</text>
<text text-anchor="middle" x="1362" y="-7.5" font-family="Helvetica" font-size="10.00">/PPCISelLowering.cpp</text>
</a>
</g>
</g>
<!-- Node1&#45;&gt;Node11 -->
<g id="edge10" class="edge">
<title>Node1&#45;&gt;Node11</title>
<path fill="none" stroke="midnightblue" d="M1114.03,-65.65C1166.97,-56.04 1235.41,-43.3 1296,-31 1298.87,-30.42 1301.82,-29.81 1304.79,-29.19"/>
<polygon fill="midnightblue" stroke="midnightblue" points="1113.2,-62.24 1103.99,-67.47 1114.45,-69.13 1113.2,-62.24"/>
</g>
<!-- Node12 -->
<g id="node12" class="node">
<title>Node12</title>
<g id="a_node12"><a xlink:href="PPCMIPeephole_8cpp.html" target="_top" xlink:title=" ">
<polygon fill="none" stroke="black" points="1437,-0.5 1437,-30.5 1547,-30.5 1547,-0.5 1437,-0.5"/>
<text text-anchor="start" x="1445" y="-18.5" font-family="Helvetica" font-size="10.00">lib/Target/PowerPC</text>
<text text-anchor="middle" x="1492" y="-7.5" font-family="Helvetica" font-size="10.00">/PPCMIPeephole.cpp</text>
</a>
</g>
</g>
<!-- Node1&#45;&gt;Node12 -->
<g id="edge11" class="edge">
<title>Node1&#45;&gt;Node12</title>
<path fill="none" stroke="midnightblue" d="M1116.82,-72.59C1198.75,-64.02 1321.83,-49.63 1428,-31 1430.92,-30.49 1433.9,-29.93 1436.91,-29.34"/>
<polygon fill="midnightblue" stroke="midnightblue" points="1116.37,-69.12 1106.78,-73.63 1117.09,-76.08 1116.37,-69.12"/>
</g>
<!-- Node13 -->
<g id="node13" class="node">
<title>Node13</title>
<g id="a_node13"><a xlink:href="PPCTOCRegDeps_8cpp.html" target="_top" xlink:title=" ">
<polygon fill="none" stroke="black" points="1565.5,-0.5 1565.5,-30.5 1684.5,-30.5 1684.5,-0.5 1565.5,-0.5"/>
<text text-anchor="start" x="1573.5" y="-18.5" font-family="Helvetica" font-size="10.00">lib/Target/PowerPC</text>
<text text-anchor="middle" x="1625" y="-7.5" font-family="Helvetica" font-size="10.00">/PPCTOCRegDeps.cpp</text>
</a>
</g>
</g>
<!-- Node1&#45;&gt;Node13 -->
<g id="edge12" class="edge">
<title>Node1&#45;&gt;Node13</title>
<path fill="none" stroke="midnightblue" d="M1116.81,-75.91C1222.97,-68.72 1402.79,-54.31 1556,-31 1559.03,-30.54 1562.12,-30.03 1565.24,-29.49"/>
<polygon fill="midnightblue" stroke="midnightblue" points="1116.51,-72.42 1106.77,-76.59 1116.98,-79.41 1116.51,-72.42"/>
</g>
<!-- Node14 -->
<g id="node14" class="node">
<title>Node14</title>
<g id="a_node14"><a xlink:href="PPCVSXCopy_8cpp.html" target="_top" xlink:title=" ">
<polygon fill="none" stroke="black" points="1702.5,-0.5 1702.5,-30.5 1803.5,-30.5 1803.5,-0.5 1702.5,-0.5"/>
<text text-anchor="start" x="1710.5" y="-18.5" font-family="Helvetica" font-size="10.00">lib/Target/PowerPC</text>
<text text-anchor="middle" x="1753" y="-7.5" font-family="Helvetica" font-size="10.00">/PPCVSXCopy.cpp</text>
</a>
</g>
</g>
<!-- Node1&#45;&gt;Node14 -->
<g id="edge13" class="edge">
<title>Node1&#45;&gt;Node14</title>
<path fill="none" stroke="midnightblue" d="M1116.87,-79.37C1246.32,-75.29 1489.48,-63.62 1694,-31 1696.71,-30.57 1699.47,-30.07 1702.26,-29.54"/>
<polygon fill="midnightblue" stroke="midnightblue" points="1116.49,-75.88 1106.6,-79.69 1116.71,-82.88 1116.49,-75.88"/>
</g>
<!-- Node15 -->
<g id="node15" class="node">
<title>Node15</title>
<g id="a_node15"><a xlink:href="PPCVSXFMAMutate_8cpp.html" target="_top" xlink:title=" ">
<polygon fill="none" stroke="black" points="1822,-0.5 1822,-30.5 1950,-30.5 1950,-0.5 1822,-0.5"/>
<text text-anchor="start" x="1830" y="-18.5" font-family="Helvetica" font-size="10.00">lib/Target/PowerPC</text>
<text text-anchor="middle" x="1886" y="-7.5" font-family="Helvetica" font-size="10.00">/PPCVSXFMAMutate.cpp</text>
</a>
</g>
</g>
<!-- Node1&#45;&gt;Node15 -->
<g id="edge14" class="edge">
<title>Node1&#45;&gt;Node15</title>
<path fill="none" stroke="midnightblue" d="M1117.09,-79.54C1264.57,-75.51 1562.61,-63.74 1813,-31 1815.95,-30.61 1818.95,-30.18 1821.99,-29.71"/>
<polygon fill="midnightblue" stroke="midnightblue" points="1116.64,-76.05 1106.74,-79.81 1116.83,-83.05 1116.64,-76.05"/>
</g>
</g>
</svg>
