<?xml version="1.0" encoding="UTF-8" standalone="no"?>
<!DOCTYPE svg PUBLIC "-//W3C//DTD SVG 1.1//EN"
 "http://www.w3.org/Graphics/SVG/1.1/DTD/svg11.dtd">
<!-- Generated by graphviz version 2.44.0 (0)
 -->
<!-- Title: include/llvm/Support/Process.h Pages: 1 -->
<svg width="4650pt" height="385pt"
 viewBox="0.00 0.00 4650.00 385.00" xmlns="http://www.w3.org/2000/svg" xmlns:xlink="http://www.w3.org/1999/xlink">
<g id="graph0" class="graph" transform="scale(1 1) rotate(0) translate(4 381)">
<title>include/llvm/Support/Process.h</title>
<!-- Node1 -->
<g id="node1" class="node">
<title>Node1</title>
<g id="a_node1"><a xlink:title="Provides a library for accessing information about this process and other processes on the operating ...">
<polygon fill="#bfbfbf" stroke="black" points="2656,-346.5 2656,-376.5 2762,-376.5 2762,-346.5 2656,-346.5"/>
<text text-anchor="start" x="2664" y="-364.5" font-family="Helvetica" font-size="10.00">include/llvm/Support</text>
<text text-anchor="middle" x="2709" y="-353.5" font-family="Helvetica" font-size="10.00">/Process.h</text>
</a>
</g>
</g>
<!-- Node2 -->
<g id="node2" class="node">
<title>Node2</title>
<g id="a_node2"><a xlink:href="IndirectionUtils_8h.html" target="_top" xlink:title=" ">
<polygon fill="none" stroke="black" points="510,-274 510,-304 654,-304 654,-274 510,-274"/>
<text text-anchor="start" x="518" y="-292" font-family="Helvetica" font-size="10.00">include/llvm/ExecutionEngine</text>
<text text-anchor="middle" x="582" y="-281" font-family="Helvetica" font-size="10.00">/Orc/IndirectionUtils.h</text>
</a>
</g>
</g>
<!-- Node1&#45;&gt;Node2 -->
<g id="edge1" class="edge">
<title>Node1&#45;&gt;Node2</title>
<path fill="none" stroke="midnightblue" d="M2645.68,-359.68C2411.08,-356.45 1569.24,-343.12 876,-310 800.24,-306.38 713.63,-300.25 654.14,-295.72"/>
<polygon fill="midnightblue" stroke="midnightblue" points="2645.69,-363.18 2655.74,-359.82 2645.78,-356.18 2645.69,-363.18"/>
</g>
<!-- Node13 -->
<g id="node13" class="node">
<title>Node13</title>
<g id="a_node13"><a xlink:href="OrcRemoteTargetServer_8h.html" target="_top" xlink:title=" ">
<polygon fill="none" stroke="black" points="814,-201.5 814,-231.5 966,-231.5 966,-201.5 814,-201.5"/>
<text text-anchor="start" x="822" y="-219.5" font-family="Helvetica" font-size="10.00">include/llvm/ExecutionEngine</text>
<text text-anchor="middle" x="890" y="-208.5" font-family="Helvetica" font-size="10.00">/Orc/OrcRemoteTargetServer.h</text>
</a>
</g>
</g>
<!-- Node1&#45;&gt;Node13 -->
<g id="edge16" class="edge">
<title>Node1&#45;&gt;Node13</title>
<path fill="none" stroke="midnightblue" d="M2645.45,-359.78C2329.77,-356.09 944.07,-338.29 910,-310 887.12,-291 886.6,-252.63 888.25,-231.77"/>
<polygon fill="midnightblue" stroke="midnightblue" points="2645.75,-363.29 2655.79,-359.9 2645.83,-356.29 2645.75,-363.29"/>
</g>
<!-- Node15 -->
<g id="node15" class="node">
<title>Node15</title>
<g id="a_node15"><a xlink:href="OrcRPCTPCServer_8h.html" target="_top" xlink:title=" ">
<polygon fill="none" stroke="black" points="918.5,-274 918.5,-304 1115.5,-304 1115.5,-274 918.5,-274"/>
<text text-anchor="start" x="926.5" y="-292" font-family="Helvetica" font-size="10.00">include/llvm/ExecutionEngine</text>
<text text-anchor="middle" x="1017" y="-281" font-family="Helvetica" font-size="10.00">/Orc/TargetProcess/OrcRPCTPCServer.h</text>
</a>
</g>
</g>
<!-- Node1&#45;&gt;Node15 -->
<g id="edge17" class="edge">
<title>Node1&#45;&gt;Node15</title>
<path fill="none" stroke="midnightblue" d="M2645.43,-359.76C2388.67,-356.56 1427.36,-342.63 1125,-310 1111.63,-308.56 1097.44,-306.39 1083.89,-304.01"/>
<polygon fill="midnightblue" stroke="midnightblue" points="2645.66,-363.26 2655.7,-359.88 2645.75,-356.26 2645.66,-363.26"/>
</g>
<!-- Node17 -->
<g id="node17" class="node">
<title>Node17</title>
<g id="a_node17"><a xlink:href="LinkAllIR_8h.html" target="_top" xlink:title=" ">
<polygon fill="none" stroke="black" points="1133.5,-279.5 1133.5,-298.5 1252.5,-298.5 1252.5,-279.5 1133.5,-279.5"/>
<text text-anchor="middle" x="1193" y="-286.5" font-family="Helvetica" font-size="10.00">include/llvm/LinkAllIR.h</text>
</a>
</g>
</g>
<!-- Node1&#45;&gt;Node17 -->
<g id="edge19" class="edge">
<title>Node1&#45;&gt;Node17</title>
<path fill="none" stroke="midnightblue" d="M2645.66,-360.37C2403.26,-359.54 1534.38,-353.54 1262,-310 1246.73,-307.56 1230.06,-302.79 1216.94,-298.52"/>
<polygon fill="midnightblue" stroke="midnightblue" points="2645.71,-363.87 2655.72,-360.4 2645.73,-356.87 2645.71,-363.87"/>
</g>
<!-- Node18 -->
<g id="node18" class="node">
<title>Node18</title>
<g id="a_node18"><a xlink:href="JITLinkMemoryManager_8cpp.html" target="_top" xlink:title=" ">
<polygon fill="none" stroke="black" points="1271,-274 1271,-304 1449,-304 1449,-274 1271,-274"/>
<text text-anchor="start" x="1279" y="-292" font-family="Helvetica" font-size="10.00">lib/ExecutionEngine</text>
<text text-anchor="middle" x="1360" y="-281" font-family="Helvetica" font-size="10.00">/JITLink/JITLinkMemoryManager.cpp</text>
</a>
</g>
</g>
<!-- Node1&#45;&gt;Node18 -->
<g id="edge20" class="edge">
<title>Node1&#45;&gt;Node18</title>
<path fill="none" stroke="midnightblue" d="M2645.77,-359.28C2425.47,-354.8 1692.49,-338.12 1459,-310 1446.81,-308.53 1433.89,-306.37 1421.54,-304.01"/>
<polygon fill="midnightblue" stroke="midnightblue" points="2645.8,-362.78 2655.87,-359.48 2645.94,-355.78 2645.8,-362.78"/>
</g>
<!-- Node19 -->
<g id="node19" class="node">
<title>Node19</title>
<g id="a_node19"><a xlink:href="OrcABISupport_8cpp.html" target="_top" xlink:title=" ">
<polygon fill="none" stroke="black" points="1467.5,-274 1467.5,-304 1590.5,-304 1590.5,-274 1467.5,-274"/>
<text text-anchor="start" x="1475.5" y="-292" font-family="Helvetica" font-size="10.00">lib/ExecutionEngine</text>
<text text-anchor="middle" x="1529" y="-281" font-family="Helvetica" font-size="10.00">/Orc/OrcABISupport.cpp</text>
</a>
</g>
</g>
<!-- Node1&#45;&gt;Node19 -->
<g id="edge21" class="edge">
<title>Node1&#45;&gt;Node19</title>
<path fill="none" stroke="midnightblue" d="M2645.77,-359.52C2441.93,-356.08 1803.62,-342.87 1600,-310 1591.15,-308.57 1581.83,-306.43 1572.96,-304.07"/>
<polygon fill="midnightblue" stroke="midnightblue" points="2645.94,-363.03 2656,-359.69 2646.06,-356.03 2645.94,-363.03"/>
</g>
<!-- Node20 -->
<g id="node20" class="node">
<title>Node20</title>
<g id="a_node20"><a xlink:href="TargetProcessControl_8cpp.html" target="_top" xlink:title=" ">
<polygon fill="none" stroke="black" points="1609,-274 1609,-304 1761,-304 1761,-274 1609,-274"/>
<text text-anchor="start" x="1617" y="-292" font-family="Helvetica" font-size="10.00">lib/ExecutionEngine</text>
<text text-anchor="middle" x="1685" y="-281" font-family="Helvetica" font-size="10.00">/Orc/TargetProcessControl.cpp</text>
</a>
</g>
</g>
<!-- Node1&#45;&gt;Node20 -->
<g id="edge22" class="edge">
<title>Node1&#45;&gt;Node20</title>
<path fill="none" stroke="midnightblue" d="M2645.93,-360.95C2494.21,-361.21 2097.2,-356.91 1770,-310 1759.65,-308.52 1748.7,-306.38 1738.23,-304.05"/>
<polygon fill="midnightblue" stroke="midnightblue" points="2646,-364.45 2655.99,-360.93 2645.98,-357.45 2646,-364.45"/>
</g>
<!-- Node21 -->
<g id="node21" class="node">
<title>Node21</title>
<g id="a_node21"><a xlink:href="PerfJITEventListener_8cpp.html" target="_top" xlink:title=" ">
<polygon fill="none" stroke="black" points="1779,-268.5 1779,-309.5 1919,-309.5 1919,-268.5 1779,-268.5"/>
<text text-anchor="start" x="1787" y="-297.5" font-family="Helvetica" font-size="10.00">lib/ExecutionEngine</text>
<text text-anchor="start" x="1787" y="-286.5" font-family="Helvetica" font-size="10.00">/PerfJITEvents/PerfJITEvent</text>
<text text-anchor="middle" x="1849" y="-275.5" font-family="Helvetica" font-size="10.00">Listener.cpp</text>
</a>
</g>
</g>
<!-- Node1&#45;&gt;Node21 -->
<g id="edge23" class="edge">
<title>Node1&#45;&gt;Node21</title>
<path fill="none" stroke="midnightblue" d="M2645.63,-360.26C2512.23,-358.9 2192.96,-351.19 1929,-310 1925.75,-309.49 1922.43,-308.91 1919.09,-308.28"/>
<polygon fill="midnightblue" stroke="midnightblue" points="2645.64,-363.76 2655.68,-360.35 2645.71,-356.76 2645.64,-363.76"/>
</g>
<!-- Node22 -->
<g id="node22" class="node">
<title>Node22</title>
<g id="a_node22"><a xlink:href="SectionMemoryManager_8cpp.html" target="_top" xlink:title=" ">
<polygon fill="none" stroke="black" points="1937.5,-274 1937.5,-304 2082.5,-304 2082.5,-274 1937.5,-274"/>
<text text-anchor="start" x="1945.5" y="-292" font-family="Helvetica" font-size="10.00">lib/ExecutionEngine</text>
<text text-anchor="middle" x="2010" y="-281" font-family="Helvetica" font-size="10.00">/SectionMemoryManager.cpp</text>
</a>
</g>
</g>
<!-- Node1&#45;&gt;Node22 -->
<g id="edge24" class="edge">
<title>Node1&#45;&gt;Node22</title>
<path fill="none" stroke="midnightblue" d="M2645.71,-358.61C2533.51,-354.52 2292.62,-342.47 2092,-310 2082.31,-308.43 2072.07,-306.31 2062.24,-304.04"/>
<polygon fill="midnightblue" stroke="midnightblue" points="2645.72,-362.11 2655.84,-358.97 2645.97,-355.12 2645.72,-362.11"/>
</g>
<!-- Node23 -->
<g id="node23" class="node">
<title>Node23</title>
<g id="a_node23"><a xlink:href="ELFObjHandler_8cpp.html" target="_top" xlink:title=" ">
<polygon fill="none" stroke="black" points="2100.5,-274 2100.5,-304 2225.5,-304 2225.5,-274 2100.5,-274"/>
<text text-anchor="start" x="2108.5" y="-292" font-family="Helvetica" font-size="10.00">lib/InterfaceStub/ELFObj</text>
<text text-anchor="middle" x="2163" y="-281" font-family="Helvetica" font-size="10.00">Handler.cpp</text>
</a>
</g>
</g>
<!-- Node1&#45;&gt;Node23 -->
<g id="edge25" class="edge">
<title>Node1&#45;&gt;Node23</title>
<path fill="none" stroke="midnightblue" d="M2645.79,-357.09C2554.47,-351.41 2380.59,-337.78 2235,-310 2226.59,-308.4 2217.73,-306.29 2209.21,-304.05"/>
<polygon fill="midnightblue" stroke="midnightblue" points="2645.78,-360.59 2655.98,-357.71 2646.21,-353.61 2645.78,-360.59"/>
</g>
<!-- Node24 -->
<g id="node24" class="node">
<title>Node24</title>
<g id="a_node24"><a xlink:href="Caching_8cpp.html" target="_top" xlink:title=" ">
<polygon fill="none" stroke="black" points="2244,-279.5 2244,-298.5 2348,-298.5 2348,-279.5 2244,-279.5"/>
<text text-anchor="middle" x="2296" y="-286.5" font-family="Helvetica" font-size="10.00">lib/LTO/Caching.cpp</text>
</a>
</g>
</g>
<!-- Node1&#45;&gt;Node24 -->
<g id="edge26" class="edge">
<title>Node1&#45;&gt;Node24</title>
<path fill="none" stroke="midnightblue" d="M2645.87,-354.79C2574.95,-347.61 2456.7,-333.31 2357,-310 2344.19,-307.01 2330.23,-302.52 2318.9,-298.56"/>
<polygon fill="midnightblue" stroke="midnightblue" points="2645.69,-358.29 2655.99,-355.8 2646.38,-351.33 2645.69,-358.29"/>
</g>
<!-- Node25 -->
<g id="node25" class="node">
<title>Node25</title>
<g id="a_node25"><a xlink:href="CodeGenCoverage_8cpp.html" target="_top" xlink:title="This file implements the CodeGenCoverage class.">
<polygon fill="none" stroke="black" points="2366,-279.5 2366,-298.5 2534,-298.5 2534,-279.5 2366,-279.5"/>
<text text-anchor="middle" x="2450" y="-286.5" font-family="Helvetica" font-size="10.00">lib/Support/CodeGenCoverage.cpp</text>
</a>
</g>
</g>
<!-- Node1&#45;&gt;Node25 -->
<g id="edge27" class="edge">
<title>Node1&#45;&gt;Node25</title>
<path fill="none" stroke="midnightblue" d="M2647.69,-343.81C2595.47,-329.6 2522.54,-309.75 2481.43,-298.55"/>
<polygon fill="midnightblue" stroke="midnightblue" points="2646.95,-347.24 2657.52,-346.49 2648.79,-340.48 2646.95,-347.24"/>
</g>
<!-- Node26 -->
<g id="node26" class="node">
<title>Node26</title>
<g id="a_node26"><a xlink:href="CommandLine_8cpp.html" target="_top" xlink:title=" ">
<polygon fill="none" stroke="black" points="2552.5,-279.5 2552.5,-298.5 2701.5,-298.5 2701.5,-279.5 2552.5,-279.5"/>
<text text-anchor="middle" x="2627" y="-286.5" font-family="Helvetica" font-size="10.00">lib/Support/CommandLine.cpp</text>
</a>
</g>
</g>
<!-- Node1&#45;&gt;Node26 -->
<g id="edge28" class="edge">
<title>Node1&#45;&gt;Node26</title>
<path fill="none" stroke="midnightblue" d="M2684.59,-339.51C2668.83,-325.96 2649.14,-309.03 2637.34,-298.89"/>
<polygon fill="midnightblue" stroke="midnightblue" points="2682.54,-342.37 2692.41,-346.23 2687.11,-337.06 2682.54,-342.37"/>
</g>
<!-- Node27 -->
<g id="node27" class="node">
<title>Node27</title>
<g id="a_node27"><a xlink:href="ErrorHandling_8cpp.html" target="_top" xlink:title=" ">
<polygon fill="none" stroke="black" points="2719.5,-279.5 2719.5,-298.5 2864.5,-298.5 2864.5,-279.5 2719.5,-279.5"/>
<text text-anchor="middle" x="2792" y="-286.5" font-family="Helvetica" font-size="10.00">lib/Support/ErrorHandling.cpp</text>
</a>
</g>
</g>
<!-- Node1&#45;&gt;Node27 -->
<g id="edge29" class="edge">
<title>Node1&#45;&gt;Node27</title>
<path fill="none" stroke="midnightblue" d="M2733.71,-339.51C2749.66,-325.96 2769.59,-309.03 2781.53,-298.89"/>
<polygon fill="midnightblue" stroke="midnightblue" points="2731.15,-337.09 2725.8,-346.23 2735.68,-342.43 2731.15,-337.09"/>
</g>
<!-- Node28 -->
<g id="node28" class="node">
<title>Node28</title>
<g id="a_node28"><a xlink:href="FileCollector_8cpp.html" target="_top" xlink:title=" ">
<polygon fill="none" stroke="black" points="2883,-279.5 2883,-298.5 3023,-298.5 3023,-279.5 2883,-279.5"/>
<text text-anchor="middle" x="2953" y="-286.5" font-family="Helvetica" font-size="10.00">lib/Support/FileCollector.cpp</text>
</a>
</g>
</g>
<!-- Node1&#45;&gt;Node28 -->
<g id="edge30" class="edge">
<title>Node1&#45;&gt;Node28</title>
<path fill="none" stroke="midnightblue" d="M2767.37,-343.64C2816.53,-329.43 2884.82,-309.7 2923.39,-298.55"/>
<polygon fill="midnightblue" stroke="midnightblue" points="2766.13,-340.35 2757.5,-346.49 2768.08,-347.07 2766.13,-340.35"/>
</g>
<!-- Node29 -->
<g id="node29" class="node">
<title>Node29</title>
<g id="a_node29"><a xlink:href="InitLLVM_8cpp.html" target="_top" xlink:title=" ">
<polygon fill="none" stroke="black" points="3041,-279.5 3041,-298.5 3165,-298.5 3165,-279.5 3041,-279.5"/>
<text text-anchor="middle" x="3103" y="-286.5" font-family="Helvetica" font-size="10.00">lib/Support/InitLLVM.cpp</text>
</a>
</g>
</g>
<!-- Node1&#45;&gt;Node29 -->
<g id="edge31" class="edge">
<title>Node1&#45;&gt;Node29</title>
<path fill="none" stroke="midnightblue" d="M2772.39,-352.87C2837.82,-344.46 2942.65,-329.5 3032,-310 3046.51,-306.83 3062.45,-302.43 3075.54,-298.56"/>
<polygon fill="midnightblue" stroke="midnightblue" points="2771.71,-349.42 2762.23,-354.16 2772.59,-356.37 2771.71,-349.42"/>
</g>
<!-- Node30 -->
<g id="node30" class="node">
<title>Node30</title>
<g id="a_node30"><a xlink:href="LockFileManager_8cpp.html" target="_top" xlink:title=" ">
<polygon fill="none" stroke="black" points="3183,-279.5 3183,-298.5 3343,-298.5 3343,-279.5 3183,-279.5"/>
<text text-anchor="middle" x="3263" y="-286.5" font-family="Helvetica" font-size="10.00">lib/Support/LockFileManager.cpp</text>
</a>
</g>
</g>
<!-- Node1&#45;&gt;Node30 -->
<g id="edge32" class="edge">
<title>Node1&#45;&gt;Node30</title>
<path fill="none" stroke="midnightblue" d="M2772.28,-355.91C2862.05,-348.87 3031.3,-333.7 3174,-310 3192.28,-306.96 3212.44,-302.53 3228.94,-298.6"/>
<polygon fill="midnightblue" stroke="midnightblue" points="2771.96,-352.42 2762.27,-356.68 2772.51,-359.4 2771.96,-352.42"/>
</g>
<!-- Node31 -->
<g id="node31" class="node">
<title>Node31</title>
<g id="a_node31"><a xlink:href="MemoryBuffer_8cpp.html" target="_top" xlink:title=" ">
<polygon fill="none" stroke="black" points="3361.5,-279.5 3361.5,-298.5 3508.5,-298.5 3508.5,-279.5 3361.5,-279.5"/>
<text text-anchor="middle" x="3435" y="-286.5" font-family="Helvetica" font-size="10.00">lib/Support/MemoryBuffer.cpp</text>
</a>
</g>
</g>
<!-- Node1&#45;&gt;Node31 -->
<g id="edge33" class="edge">
<title>Node1&#45;&gt;Node31</title>
<path fill="none" stroke="midnightblue" d="M2772.36,-358.84C2888.13,-355.08 3141.32,-343.44 3352,-310 3369.57,-307.21 3388.9,-302.64 3404.49,-298.58"/>
<polygon fill="midnightblue" stroke="midnightblue" points="2772.15,-355.35 2762.26,-359.16 2772.37,-362.34 2772.15,-355.35"/>
</g>
<!-- Node32 -->
<g id="node32" class="node">
<title>Node32</title>
<g id="a_node32"><a xlink:href="Path_8cpp.html" target="_top" xlink:title=" ">
<polygon fill="none" stroke="black" points="3527,-279.5 3527,-298.5 3633,-298.5 3633,-279.5 3527,-279.5"/>
<text text-anchor="middle" x="3580" y="-286.5" font-family="Helvetica" font-size="10.00">lib/Support/Path.cpp</text>
</a>
</g>
</g>
<!-- Node1&#45;&gt;Node32 -->
<g id="edge34" class="edge">
<title>Node1&#45;&gt;Node32</title>
<path fill="none" stroke="midnightblue" d="M2772.7,-358.58C2937.58,-353.27 3375.43,-337 3518,-310 3531.56,-307.43 3546.27,-302.77 3557.97,-298.59"/>
<polygon fill="midnightblue" stroke="midnightblue" points="2772.12,-355.09 2762.24,-358.91 2772.34,-362.09 2772.12,-355.09"/>
</g>
<!-- Node33 -->
<g id="node33" class="node">
<title>Node33</title>
<g id="a_node33"><a xlink:href="Process_8cpp.html" target="_top" xlink:title=" ">
<polygon fill="none" stroke="black" points="3651,-279.5 3651,-298.5 3773,-298.5 3773,-279.5 3651,-279.5"/>
<text text-anchor="middle" x="3712" y="-286.5" font-family="Helvetica" font-size="10.00">lib/Support/Process.cpp</text>
</a>
</g>
</g>
<!-- Node1&#45;&gt;Node33 -->
<g id="edge35" class="edge">
<title>Node1&#45;&gt;Node33</title>
<path fill="none" stroke="midnightblue" d="M2772.47,-358.92C2954.18,-354.1 3474.08,-338.17 3642,-310 3657.33,-307.43 3674.09,-302.71 3687.37,-298.5"/>
<polygon fill="midnightblue" stroke="midnightblue" points="2772.18,-355.42 2762.28,-359.19 2772.36,-362.42 2772.18,-355.42"/>
</g>
<!-- Node34 -->
<g id="node34" class="node">
<title>Node34</title>
<g id="a_node34"><a xlink:href="raw__ostream_8cpp.html" target="_top" xlink:title=" ">
<polygon fill="none" stroke="black" points="3791,-279.5 3791,-298.5 3933,-298.5 3933,-279.5 3791,-279.5"/>
<text text-anchor="middle" x="3862" y="-286.5" font-family="Helvetica" font-size="10.00">lib/Support/raw_ostream.cpp</text>
</a>
</g>
</g>
<!-- Node1&#45;&gt;Node34 -->
<g id="edge36" class="edge">
<title>Node1&#45;&gt;Node34</title>
<path fill="none" stroke="midnightblue" d="M2772.2,-359.17C2971.5,-354.71 3585.23,-338.93 3782,-310 3799.42,-307.44 3818.57,-302.72 3833.76,-298.51"/>
<polygon fill="midnightblue" stroke="midnightblue" points="2772.1,-355.67 2762.18,-359.39 2772.26,-362.67 2772.1,-355.67"/>
</g>
<!-- Node35 -->
<g id="node35" class="node">
<title>Node35</title>
<g id="a_node35"><a xlink:href="TimeProfiler_8cpp.html" target="_top" xlink:title=" ">
<polygon fill="none" stroke="black" points="3951,-279.5 3951,-298.5 4089,-298.5 4089,-279.5 3951,-279.5"/>
<text text-anchor="middle" x="4020" y="-286.5" font-family="Helvetica" font-size="10.00">lib/Support/TimeProfiler.cpp</text>
</a>
</g>
</g>
<!-- Node1&#45;&gt;Node35 -->
<g id="edge37" class="edge">
<title>Node1&#45;&gt;Node35</title>
<path fill="none" stroke="midnightblue" d="M2772.17,-359.67C2990.56,-356.51 3712.74,-343.7 3942,-310 3959.01,-307.5 3977.68,-302.78 3992.49,-298.56"/>
<polygon fill="midnightblue" stroke="midnightblue" points="2772.11,-356.17 2762.16,-359.81 2772.21,-363.17 2772.11,-356.17"/>
</g>
<!-- Node36 -->
<g id="node36" class="node">
<title>Node36</title>
<g id="a_node36"><a xlink:href="Timer_8cpp.html" target="_top" xlink:title=" ">
<polygon fill="none" stroke="black" points="4107,-279.5 4107,-298.5 4217,-298.5 4217,-279.5 4107,-279.5"/>
<text text-anchor="middle" x="4162" y="-286.5" font-family="Helvetica" font-size="10.00">lib/Support/Timer.cpp</text>
</a>
</g>
</g>
<!-- Node1&#45;&gt;Node36 -->
<g id="edge38" class="edge">
<title>Node1&#45;&gt;Node36</title>
<path fill="none" stroke="midnightblue" d="M2772.15,-360.43C3008.12,-359.84 3837.86,-354.55 4098,-310 4112.23,-307.56 4127.69,-302.79 4139.85,-298.53"/>
<polygon fill="midnightblue" stroke="midnightblue" points="2772.02,-356.93 2762.02,-360.46 2772.03,-363.93 2772.02,-356.93"/>
</g>
<!-- Node37 -->
<g id="node37" class="node">
<title>Node37</title>
<g id="a_node37"><a xlink:href="VirtualFileSystem_8cpp.html" target="_top" xlink:title=" ">
<polygon fill="none" stroke="black" points="4235.5,-279.5 4235.5,-298.5 4398.5,-298.5 4398.5,-279.5 4235.5,-279.5"/>
<text text-anchor="middle" x="4317" y="-286.5" font-family="Helvetica" font-size="10.00">lib/Support/VirtualFileSystem.cpp</text>
</a>
</g>
</g>
<!-- Node1&#45;&gt;Node37 -->
<g id="edge39" class="edge">
<title>Node1&#45;&gt;Node37</title>
<path fill="none" stroke="midnightblue" d="M2772.35,-359.94C3021.98,-357.48 3937.95,-346.14 4226,-310 4245.74,-307.52 4267.52,-302.81 4284.82,-298.58"/>
<polygon fill="midnightblue" stroke="midnightblue" points="2771.98,-356.44 2762.01,-360.04 2772.05,-363.44 2771.98,-356.44"/>
</g>
<!-- Node38 -->
<g id="node38" class="node">
<title>Node38</title>
<g id="a_node38"><a xlink:href="PPCAsmPrinter_8cpp.html" target="_top" xlink:title=" ">
<polygon fill="none" stroke="black" points="4416.5,-274 4416.5,-304 4523.5,-304 4523.5,-274 4416.5,-274"/>
<text text-anchor="start" x="4424.5" y="-292" font-family="Helvetica" font-size="10.00">lib/Target/PowerPC</text>
<text text-anchor="middle" x="4470" y="-281" font-family="Helvetica" font-size="10.00">/PPCAsmPrinter.cpp</text>
</a>
</g>
</g>
<!-- Node1&#45;&gt;Node38 -->
<g id="edge40" class="edge">
<title>Node1&#45;&gt;Node38</title>
<path fill="none" stroke="midnightblue" d="M2772.52,-359.67C3061.48,-355.76 4244.81,-338.16 4408,-310 4415.91,-308.63 4424.21,-306.49 4432.06,-304.1"/>
<polygon fill="midnightblue" stroke="midnightblue" points="2772.17,-356.18 2762.22,-359.81 2772.27,-363.18 2772.17,-356.18"/>
</g>
<!-- Node39 -->
<g id="node39" class="node">
<title>Node39</title>
<g id="a_node39"><a xlink:href="LibDriver_8cpp.html" target="_top" xlink:title=" ">
<polygon fill="none" stroke="black" points="4542,-274 4542,-304 4642,-304 4642,-274 4542,-274"/>
<text text-anchor="start" x="4550" y="-292" font-family="Helvetica" font-size="10.00">lib/ToolDrivers/llvm</text>
<text text-anchor="middle" x="4592" y="-281" font-family="Helvetica" font-size="10.00">&#45;lib/LibDriver.cpp</text>
</a>
</g>
</g>
<!-- Node1&#45;&gt;Node39 -->
<g id="edge41" class="edge">
<title>Node1&#45;&gt;Node39</title>
<path fill="none" stroke="midnightblue" d="M2772.71,-359.86C3074.99,-356.7 4357.15,-341.5 4533,-310 4540.67,-308.63 4548.69,-306.44 4556.26,-304.02"/>
<polygon fill="midnightblue" stroke="midnightblue" points="2772.34,-356.37 2762.38,-359.97 2772.41,-363.37 2772.34,-356.37"/>
</g>
<!-- Node3 -->
<g id="node3" class="node">
<title>Node3</title>
<g id="a_node3"><a xlink:href="CompileOnDemandLayer_8h.html" target="_top" xlink:title=" ">
<polygon fill="none" stroke="black" points="144.5,-134.5 144.5,-164.5 299.5,-164.5 299.5,-134.5 144.5,-134.5"/>
<text text-anchor="start" x="152.5" y="-152.5" font-family="Helvetica" font-size="10.00">include/llvm/ExecutionEngine</text>
<text text-anchor="middle" x="222" y="-141.5" font-family="Helvetica" font-size="10.00">/Orc/CompileOnDemandLayer.h</text>
</a>
</g>
</g>
<!-- Node2&#45;&gt;Node3 -->
<g id="edge2" class="edge">
<title>Node2&#45;&gt;Node3</title>
<path fill="none" stroke="midnightblue" d="M499.81,-284.95C440.76,-279.72 360.96,-266.22 299,-232 269.01,-215.44 243.86,-183.13 231.07,-164.55"/>
<polygon fill="midnightblue" stroke="midnightblue" points="499.59,-288.45 509.85,-285.78 500.17,-281.47 499.59,-288.45"/>
</g>
<!-- Node8 -->
<g id="node8" class="node">
<title>Node8</title>
<g id="a_node8"><a xlink:href="LazyReexports_8h.html" target="_top" xlink:title=" ">
<polygon fill="none" stroke="black" points="308,-201.5 308,-231.5 452,-231.5 452,-201.5 308,-201.5"/>
<text text-anchor="start" x="316" y="-219.5" font-family="Helvetica" font-size="10.00">include/llvm/ExecutionEngine</text>
<text text-anchor="middle" x="380" y="-208.5" font-family="Helvetica" font-size="10.00">/Orc/LazyReexports.h</text>
</a>
</g>
</g>
<!-- Node2&#45;&gt;Node8 -->
<g id="edge7" class="edge">
<title>Node2&#45;&gt;Node8</title>
<path fill="none" stroke="midnightblue" d="M531.76,-270.46C497.37,-258.46 452.37,-242.76 420.32,-231.57"/>
<polygon fill="midnightblue" stroke="midnightblue" points="531.01,-273.91 541.61,-273.9 533.32,-267.3 531.01,-273.91"/>
</g>
<!-- Node9 -->
<g id="node9" class="node">
<title>Node9</title>
<g id="a_node9"><a xlink:href="TPCIndirectionUtils_8h.html" target="_top" xlink:title=" ">
<polygon fill="none" stroke="black" points="460,-134.5 460,-164.5 604,-164.5 604,-134.5 460,-134.5"/>
<text text-anchor="start" x="468" y="-152.5" font-family="Helvetica" font-size="10.00">include/llvm/ExecutionEngine</text>
<text text-anchor="middle" x="532" y="-141.5" font-family="Helvetica" font-size="10.00">/Orc/TPCIndirectionUtils.h</text>
</a>
</g>
</g>
<!-- Node2&#45;&gt;Node9 -->
<g id="edge14" class="edge">
<title>Node2&#45;&gt;Node9</title>
<path fill="none" stroke="midnightblue" d="M537.79,-269.01C522.67,-260.12 507.46,-247.91 499,-232 486.96,-209.36 504.94,-181.33 518.72,-164.74"/>
<polygon fill="midnightblue" stroke="midnightblue" points="536.18,-272.12 546.63,-273.87 539.55,-265.98 536.18,-272.12"/>
</g>
<!-- Node12 -->
<g id="node12" class="node">
<title>Node12</title>
<g id="a_node12"><a xlink:href="OrcRemoteTargetClient_8h.html" target="_top" xlink:title=" ">
<polygon fill="none" stroke="black" points="508,-201.5 508,-231.5 656,-231.5 656,-201.5 508,-201.5"/>
<text text-anchor="start" x="516" y="-219.5" font-family="Helvetica" font-size="10.00">include/llvm/ExecutionEngine</text>
<text text-anchor="middle" x="582" y="-208.5" font-family="Helvetica" font-size="10.00">/Orc/OrcRemoteTargetClient.h</text>
</a>
</g>
</g>
<!-- Node2&#45;&gt;Node12 -->
<g id="edge12" class="edge">
<title>Node2&#45;&gt;Node12</title>
<path fill="none" stroke="midnightblue" d="M582,-263.73C582,-253.07 582,-240.91 582,-231.75"/>
<polygon fill="midnightblue" stroke="midnightblue" points="578.5,-263.73 582,-273.73 585.5,-263.73 578.5,-263.73"/>
</g>
<!-- Node2&#45;&gt;Node13 -->
<g id="edge13" class="edge">
<title>Node2&#45;&gt;Node13</title>
<path fill="none" stroke="midnightblue" d="M653.24,-271.69C706.33,-259.54 778.08,-243.12 828.63,-231.55"/>
<polygon fill="midnightblue" stroke="midnightblue" points="652.19,-268.34 643.22,-273.99 653.75,-275.17 652.19,-268.34"/>
</g>
<!-- Node14 -->
<g id="node14" class="node">
<title>Node14</title>
<g id="a_node14"><a xlink:href="IndirectionUtils_8cpp.html" target="_top" xlink:title=" ">
<polygon fill="none" stroke="black" points="674,-201.5 674,-231.5 796,-231.5 796,-201.5 674,-201.5"/>
<text text-anchor="start" x="682" y="-219.5" font-family="Helvetica" font-size="10.00">lib/ExecutionEngine</text>
<text text-anchor="middle" x="735" y="-208.5" font-family="Helvetica" font-size="10.00">/Orc/IndirectionUtils.cpp</text>
</a>
</g>
</g>
<!-- Node2&#45;&gt;Node14 -->
<g id="edge15" class="edge">
<title>Node2&#45;&gt;Node14</title>
<path fill="none" stroke="midnightblue" d="M621.74,-269.69C647.56,-257.79 680.71,-242.52 704.46,-231.57"/>
<polygon fill="midnightblue" stroke="midnightblue" points="620.21,-266.54 612.59,-273.9 623.14,-272.9 620.21,-266.54"/>
</g>
<!-- Node4 -->
<g id="node4" class="node">
<title>Node4</title>
<g id="a_node4"><a xlink:href="llvm_2ExecutionEngine_2Orc_2LLJIT_8h.html" target="_top" xlink:title=" ">
<polygon fill="none" stroke="black" points="46,-67.5 46,-97.5 190,-97.5 190,-67.5 46,-67.5"/>
<text text-anchor="start" x="54" y="-85.5" font-family="Helvetica" font-size="10.00">include/llvm/ExecutionEngine</text>
<text text-anchor="middle" x="118" y="-74.5" font-family="Helvetica" font-size="10.00">/Orc/LLJIT.h</text>
</a>
</g>
</g>
<!-- Node3&#45;&gt;Node4 -->
<g id="edge3" class="edge">
<title>Node3&#45;&gt;Node4</title>
<path fill="none" stroke="midnightblue" d="M190.82,-129.02C174.64,-118.9 155.23,-106.77 140.52,-97.58"/>
<polygon fill="midnightblue" stroke="midnightblue" points="189.1,-132.06 199.43,-134.4 192.81,-126.13 189.1,-132.06"/>
</g>
<!-- Node7 -->
<g id="node7" class="node">
<title>Node7</title>
<g id="a_node7"><a xlink:href="CompileOnDemandLayer_8cpp.html" target="_top" xlink:title=" ">
<polygon fill="none" stroke="black" points="208,-67.5 208,-97.5 374,-97.5 374,-67.5 208,-67.5"/>
<text text-anchor="start" x="216" y="-85.5" font-family="Helvetica" font-size="10.00">lib/ExecutionEngine</text>
<text text-anchor="middle" x="291" y="-74.5" font-family="Helvetica" font-size="10.00">/Orc/CompileOnDemandLayer.cpp</text>
</a>
</g>
</g>
<!-- Node3&#45;&gt;Node7 -->
<g id="edge6" class="edge">
<title>Node3&#45;&gt;Node7</title>
<path fill="none" stroke="midnightblue" d="M244.49,-127.31C254.84,-117.56 266.84,-106.26 276.06,-97.58"/>
<polygon fill="midnightblue" stroke="midnightblue" points="241.85,-124.99 236.97,-134.4 246.65,-130.09 241.85,-124.99"/>
</g>
<!-- Node5 -->
<g id="node5" class="node">
<title>Node5</title>
<g id="a_node5"><a xlink:href="LLJIT_8cpp.html" target="_top" xlink:title=" ">
<polygon fill="none" stroke="black" points="0,-0.5 0,-30.5 102,-30.5 102,-0.5 0,-0.5"/>
<text text-anchor="start" x="8" y="-18.5" font-family="Helvetica" font-size="10.00">lib/ExecutionEngine</text>
<text text-anchor="middle" x="51" y="-7.5" font-family="Helvetica" font-size="10.00">/Orc/LLJIT.cpp</text>
</a>
</g>
</g>
<!-- Node4&#45;&gt;Node5 -->
<g id="edge4" class="edge">
<title>Node4&#45;&gt;Node5</title>
<path fill="none" stroke="midnightblue" d="M96.16,-60.31C86.11,-50.56 74.46,-39.26 65.51,-30.58"/>
<polygon fill="midnightblue" stroke="midnightblue" points="93.85,-62.94 103.46,-67.4 98.72,-57.92 93.85,-62.94"/>
</g>
<!-- Node6 -->
<g id="node6" class="node">
<title>Node6</title>
<g id="a_node6"><a xlink:href="OrcV2CBindings_8cpp.html" target="_top" xlink:title=" ">
<polygon fill="none" stroke="black" points="120,-0.5 120,-30.5 250,-30.5 250,-0.5 120,-0.5"/>
<text text-anchor="start" x="128" y="-18.5" font-family="Helvetica" font-size="10.00">lib/ExecutionEngine</text>
<text text-anchor="middle" x="185" y="-7.5" font-family="Helvetica" font-size="10.00">/Orc/OrcV2CBindings.cpp</text>
</a>
</g>
</g>
<!-- Node4&#45;&gt;Node6 -->
<g id="edge5" class="edge">
<title>Node4&#45;&gt;Node6</title>
<path fill="none" stroke="midnightblue" d="M139.84,-60.31C149.89,-50.56 161.54,-39.26 170.49,-30.58"/>
<polygon fill="midnightblue" stroke="midnightblue" points="137.28,-57.92 132.54,-67.4 142.15,-62.94 137.28,-57.92"/>
</g>
<!-- Node8&#45;&gt;Node3 -->
<g id="edge8" class="edge">
<title>Node8&#45;&gt;Node3</title>
<path fill="none" stroke="midnightblue" d="M336.35,-197.54C311.07,-187.14 279.7,-174.24 256.22,-164.58"/>
<polygon fill="midnightblue" stroke="midnightblue" points="335.14,-200.83 345.72,-201.4 337.8,-194.35 335.14,-200.83"/>
</g>
<!-- Node8&#45;&gt;Node9 -->
<g id="edge9" class="edge">
<title>Node8&#45;&gt;Node9</title>
<path fill="none" stroke="midnightblue" d="M422.31,-197.41C446.58,-187.03 476.59,-174.2 499.08,-164.58"/>
<polygon fill="midnightblue" stroke="midnightblue" points="420.8,-194.25 412.98,-201.4 423.55,-200.68 420.8,-194.25"/>
</g>
<!-- Node11 -->
<g id="node11" class="node">
<title>Node11</title>
<g id="a_node11"><a xlink:href="LazyReexports_8cpp.html" target="_top" xlink:title=" ">
<polygon fill="none" stroke="black" points="318,-134.5 318,-164.5 442,-164.5 442,-134.5 318,-134.5"/>
<text text-anchor="start" x="326" y="-152.5" font-family="Helvetica" font-size="10.00">lib/ExecutionEngine</text>
<text text-anchor="middle" x="380" y="-141.5" font-family="Helvetica" font-size="10.00">/Orc/LazyReexports.cpp</text>
</a>
</g>
</g>
<!-- Node8&#45;&gt;Node11 -->
<g id="edge11" class="edge">
<title>Node8&#45;&gt;Node11</title>
<path fill="none" stroke="midnightblue" d="M380,-191.11C380,-182.15 380,-172.32 380,-164.58"/>
<polygon fill="midnightblue" stroke="midnightblue" points="376.5,-191.4 380,-201.4 383.5,-191.4 376.5,-191.4"/>
</g>
<!-- Node10 -->
<g id="node10" class="node">
<title>Node10</title>
<g id="a_node10"><a xlink:href="TPCIndirectionUtils_8cpp.html" target="_top" xlink:title=" ">
<polygon fill="none" stroke="black" points="460.5,-67.5 460.5,-97.5 603.5,-97.5 603.5,-67.5 460.5,-67.5"/>
<text text-anchor="start" x="468.5" y="-85.5" font-family="Helvetica" font-size="10.00">lib/ExecutionEngine</text>
<text text-anchor="middle" x="532" y="-74.5" font-family="Helvetica" font-size="10.00">/Orc/TPCIndirectionUtils.cpp</text>
</a>
</g>
</g>
<!-- Node9&#45;&gt;Node10 -->
<g id="edge10" class="edge">
<title>Node9&#45;&gt;Node10</title>
<path fill="none" stroke="midnightblue" d="M532,-124.11C532,-115.15 532,-105.32 532,-97.58"/>
<polygon fill="midnightblue" stroke="midnightblue" points="528.5,-124.4 532,-134.4 535.5,-124.4 528.5,-124.4"/>
</g>
<!-- Node16 -->
<g id="node16" class="node">
<title>Node16</title>
<g id="a_node16"><a xlink:href="OrcRPCTargetProcessControl_8h.html" target="_top" xlink:title=" ">
<polygon fill="none" stroke="black" points="984.5,-201.5 984.5,-231.5 1161.5,-231.5 1161.5,-201.5 984.5,-201.5"/>
<text text-anchor="start" x="992.5" y="-219.5" font-family="Helvetica" font-size="10.00">include/llvm/ExecutionEngine</text>
<text text-anchor="middle" x="1073" y="-208.5" font-family="Helvetica" font-size="10.00">/Orc/OrcRPCTargetProcessControl.h</text>
</a>
</g>
</g>
<!-- Node15&#45;&gt;Node16 -->
<g id="edge18" class="edge">
<title>Node15&#45;&gt;Node16</title>
<path fill="none" stroke="midnightblue" d="M1034.7,-265.71C1043.53,-254.6 1053.95,-241.49 1061.68,-231.75"/>
<polygon fill="midnightblue" stroke="midnightblue" points="1031.81,-263.73 1028.33,-273.73 1037.29,-268.08 1031.81,-263.73"/>
</g>
</g>
</svg>
