<?xml version="1.0" encoding="UTF-8" standalone="no"?>
<!DOCTYPE svg PUBLIC "-//W3C//DTD SVG 1.1//EN"
 "http://www.w3.org/Graphics/SVG/1.1/DTD/svg11.dtd">
<!-- Generated by graphviz version 2.44.0 (0)
 -->
<!-- Title: lib/CodeGen/RegisterUsageInfo.cpp Pages: 1 -->
<svg width="3678pt" height="542pt"
 viewBox="0.00 0.00 3678.00 542.00" xmlns="http://www.w3.org/2000/svg" xmlns:xlink="http://www.w3.org/1999/xlink">
<g id="graph0" class="graph" transform="scale(1 1) rotate(0) translate(4 538)">
<title>lib/CodeGen/RegisterUsageInfo.cpp</title>
<!-- Node1 -->
<g id="node1" class="node">
<title>Node1</title>
<g id="a_node1"><a xlink:title=" ">
<polygon fill="#bfbfbf" stroke="black" points="1171,-503.5 1171,-533.5 1309,-533.5 1309,-503.5 1171,-503.5"/>
<text text-anchor="start" x="1179" y="-521.5" font-family="Helvetica" font-size="10.00">lib/CodeGen/RegisterUsage</text>
<text text-anchor="middle" x="1240" y="-510.5" font-family="Helvetica" font-size="10.00">Info.cpp</text>
</a>
</g>
</g>
<!-- Node2 -->
<g id="node2" class="node">
<title>Node2</title>
<g id="a_node2"><a xlink:href="RegisterUsageInfo_8h.html" target="_top" xlink:title="This pass is required to take advantage of the interprocedural register allocation infrastructure.">
<polygon fill="none" stroke="black" points="945,-369.5 945,-399.5 1091,-399.5 1091,-369.5 945,-369.5"/>
<text text-anchor="start" x="953" y="-387.5" font-family="Helvetica" font-size="10.00">llvm/CodeGen/RegisterUsage</text>
<text text-anchor="middle" x="1018" y="-376.5" font-family="Helvetica" font-size="10.00">Info.h</text>
</a>
</g>
</g>
<!-- Node1&#45;&gt;Node2 -->
<g id="edge1" class="edge">
<title>Node1&#45;&gt;Node2</title>
<path fill="none" stroke="midnightblue" d="M1191.37,-503.44C1165.81,-494.92 1134.57,-482.65 1109,-467 1081.86,-450.39 1055.28,-425.26 1037.92,-407.3"/>
<polygon fill="midnightblue" stroke="midnightblue" points="1040.05,-404.45 1030.63,-399.61 1034.97,-409.27 1040.05,-404.45"/>
</g>
<!-- Node27 -->
<g id="node4" class="node">
<title>Node27</title>
<g id="a_node4"><a xlink:href="SmallVector_8h.html" target="_top" xlink:title=" ">
<polygon fill="none" stroke="black" points="1292.5,-174 1292.5,-193 1413.5,-193 1413.5,-174 1292.5,-174"/>
<text text-anchor="middle" x="1353" y="-181" font-family="Helvetica" font-size="10.00">llvm/ADT/SmallVector.h</text>
</a>
</g>
</g>
<!-- Node1&#45;&gt;Node27 -->
<g id="edge93" class="edge">
<title>Node1&#45;&gt;Node27</title>
<path fill="none" stroke="midnightblue" d="M1244.86,-503.19C1262.99,-449.75 1326.74,-261.89 1346.86,-202.58"/>
<polygon fill="midnightblue" stroke="midnightblue" points="1350.19,-203.66 1350.09,-193.07 1343.57,-201.41 1350.19,-203.66"/>
</g>
<!-- Node21 -->
<g id="node6" class="node">
<title>Node21</title>
<g id="a_node6"><a xlink:title=" ">
<polygon fill="none" stroke="#bfbfbf" points="406,-56.5 406,-75.5 446,-75.5 446,-56.5 406,-56.5"/>
<text text-anchor="middle" x="426" y="-63.5" font-family="Helvetica" font-size="10.00">utility</text>
</a>
</g>
</g>
<!-- Node1&#45;&gt;Node21 -->
<g id="edge197" class="edge">
<title>Node1&#45;&gt;Node21</title>
<path fill="none" stroke="midnightblue" d="M1170.93,-517.65C966.42,-517.57 366.47,-513.26 177,-467 92.87,-446.46 0,-472.11 0,-385.5 0,-385.5 0,-385.5 0,-182.5 0,-100.42 298.3,-74.83 395.66,-68.67"/>
<polygon fill="midnightblue" stroke="midnightblue" points="395.97,-72.15 405.74,-68.05 395.55,-65.17 395.97,-72.15"/>
</g>
<!-- Node22 -->
<g id="node10" class="node">
<title>Node22</title>
<g id="a_node10"><a xlink:title=" ">
<polygon fill="none" stroke="#bfbfbf" points="608,-56.5 608,-75.5 664,-75.5 664,-56.5 608,-56.5"/>
<text text-anchor="middle" x="636" y="-63.5" font-family="Helvetica" font-size="10.00">algorithm</text>
</a>
</g>
</g>
<!-- Node1&#45;&gt;Node22 -->
<g id="edge194" class="edge">
<title>Node1&#45;&gt;Node22</title>
<path fill="none" stroke="midnightblue" d="M1170.76,-517.5C1057.6,-516.21 826.53,-508.19 636,-467 549.3,-448.26 529.49,-435.04 448,-400 359.62,-362 341.58,-343.94 255,-302 220.64,-285.35 202.01,-294.85 177,-266 130.68,-212.57 89.29,-164.2 137,-112 152.52,-95.01 483.44,-75.36 597.65,-69.05"/>
<polygon fill="midnightblue" stroke="midnightblue" points="597.9,-72.55 607.69,-68.5 597.52,-65.56 597.9,-72.55"/>
</g>
<!-- Node23 -->
<g id="node11" class="node">
<title>Node23</title>
<g id="a_node11"><a xlink:title=" ">
<polygon fill="none" stroke="#bfbfbf" points="2118,-56.5 2118,-75.5 2168,-75.5 2168,-56.5 2118,-56.5"/>
<text text-anchor="middle" x="2143" y="-63.5" font-family="Helvetica" font-size="10.00">cassert</text>
</a>
</g>
</g>
<!-- Node1&#45;&gt;Node23 -->
<g id="edge195" class="edge">
<title>Node1&#45;&gt;Node23</title>
<path fill="none" stroke="midnightblue" d="M1309.05,-516.83C1582.66,-513.94 2591.23,-501.17 2909,-467 3118.18,-444.51 3238.31,-502.45 3363,-333 3389.46,-297.05 3415.76,-267.35 3385,-235 3330.58,-177.75 2750.4,-222.56 2675,-199 2650.04,-191.2 2647.68,-181 2625,-168 2578.77,-141.5 2569.86,-127.88 2519,-112 2398.07,-74.25 2246.16,-67.83 2178.43,-66.97"/>
<polygon fill="midnightblue" stroke="midnightblue" points="2178.33,-63.47 2168.29,-66.87 2178.26,-70.47 2178.33,-63.47"/>
</g>
<!-- Node17 -->
<g id="node12" class="node">
<title>Node17</title>
<g id="a_node12"><a xlink:title=" ">
<polygon fill="none" stroke="#bfbfbf" points="3070,-56.5 3070,-75.5 3116,-75.5 3116,-56.5 3070,-56.5"/>
<text text-anchor="middle" x="3093" y="-63.5" font-family="Helvetica" font-size="10.00">cstdint</text>
</a>
</g>
</g>
<!-- Node1&#45;&gt;Node17 -->
<g id="edge196" class="edge">
<title>Node1&#45;&gt;Node17</title>
<path fill="none" stroke="midnightblue" d="M1309.16,-517.15C1682.83,-515.11 3447.88,-503.56 3557,-467 3615.71,-447.33 3670,-447.42 3670,-385.5 3670,-385.5 3670,-385.5 3670,-182.5 3670,-70.94 3250.02,-65.67 3126.67,-66.52"/>
<polygon fill="midnightblue" stroke="midnightblue" points="3126.3,-63.03 3116.33,-66.61 3126.36,-70.03 3126.3,-63.03"/>
</g>
<!-- Node45 -->
<g id="node24" class="node">
<title>Node45</title>
<g id="a_node24"><a xlink:title=" ">
<polygon fill="none" stroke="#bfbfbf" points="3022.5,-174 3022.5,-193 3065.5,-193 3065.5,-174 3022.5,-174"/>
<text text-anchor="middle" x="3044" y="-181" font-family="Helvetica" font-size="10.00">vector</text>
</a>
</g>
</g>
<!-- Node1&#45;&gt;Node45 -->
<g id="edge198" class="edge">
<title>Node1&#45;&gt;Node45</title>
<path fill="none" stroke="midnightblue" d="M1309.29,-517.09C1687.45,-514.72 3486.75,-501.63 3532,-467 3561.99,-444.05 3556,-423.26 3556,-385.5 3556,-385.5 3556,-385.5 3556,-316.5 3556,-216.89 3188.04,-191.3 3075.99,-185.82"/>
<polygon fill="midnightblue" stroke="midnightblue" points="3075.83,-182.31 3065.67,-185.34 3075.5,-189.3 3075.83,-182.31"/>
</g>
<!-- Node99 -->
<g id="node29" class="node">
<title>Node99</title>
<g id="a_node29"><a xlink:href="Function_8h.html" target="_top" xlink:title=" ">
<polygon fill="none" stroke="red" points="624.5,-241 624.5,-260 721.5,-260 721.5,-241 624.5,-241"/>
<text text-anchor="middle" x="673" y="-248" font-family="Helvetica" font-size="10.00">llvm/IR/Function.h</text>
</a>
</g>
</g>
<!-- Node1&#45;&gt;Node99 -->
<g id="edge166" class="edge">
<title>Node1&#45;&gt;Node99</title>
<path fill="none" stroke="midnightblue" d="M1170.68,-512.95C988.37,-499.4 502.97,-452.55 407,-333 350.19,-262.23 520.08,-251.44 614.49,-250.71"/>
<polygon fill="midnightblue" stroke="midnightblue" points="614.51,-254.21 624.49,-250.67 614.48,-247.21 614.51,-254.21"/>
</g>
<!-- Node121 -->
<g id="node31" class="node">
<title>Node121</title>
<g id="a_node31"><a xlink:href="Pass_8h.html" target="_top" xlink:title=" ">
<polygon fill="none" stroke="red" points="178,-308 178,-327 246,-327 246,-308 178,-308"/>
<text text-anchor="middle" x="212" y="-315" font-family="Helvetica" font-size="10.00">llvm/Pass.h</text>
</a>
</g>
</g>
<!-- Node1&#45;&gt;Node121 -->
<g id="edge176" class="edge">
<title>Node1&#45;&gt;Node121</title>
<path fill="none" stroke="midnightblue" d="M1170.92,-516.08C953.59,-511.32 296.06,-494.69 260,-467 239.15,-450.99 222.34,-373.96 215.41,-337.59"/>
<polygon fill="midnightblue" stroke="midnightblue" points="218.78,-336.54 213.52,-327.34 211.9,-337.81 218.78,-336.54"/>
</g>
<!-- Node133 -->
<g id="node32" class="node">
<title>Node133</title>
<g id="a_node32"><a xlink:href="MachineOperand_8h.html" target="_top" xlink:title=" ">
<polygon fill="none" stroke="black" points="1826,-375 1826,-394 1990,-394 1990,-375 1826,-375"/>
<text text-anchor="middle" x="1908" y="-382" font-family="Helvetica" font-size="10.00">llvm/CodeGen/MachineOperand.h</text>
</a>
</g>
</g>
<!-- Node1&#45;&gt;Node133 -->
<g id="edge94" class="edge">
<title>Node1&#45;&gt;Node133</title>
<path fill="none" stroke="midnightblue" d="M1309.12,-514.57C1432.24,-508.75 1684.39,-493.9 1768,-467 1814.94,-451.9 1863.25,-419.25 1889.04,-400.18"/>
<polygon fill="midnightblue" stroke="midnightblue" points="1891.3,-402.86 1897.18,-394.05 1887.09,-397.27 1891.3,-402.86"/>
</g>
<!-- Node141 -->
<g id="node38" class="node">
<title>Node141</title>
<g id="a_node38"><a xlink:href="TargetRegisterInfo_8h.html" target="_top" xlink:title=" ">
<polygon fill="none" stroke="black" points="2754.5,-436.5 2754.5,-466.5 2899.5,-466.5 2899.5,-436.5 2754.5,-436.5"/>
<text text-anchor="start" x="2762.5" y="-454.5" font-family="Helvetica" font-size="10.00">llvm/CodeGen/TargetRegister</text>
<text text-anchor="middle" x="2827" y="-443.5" font-family="Helvetica" font-size="10.00">Info.h</text>
</a>
</g>
</g>
<!-- Node1&#45;&gt;Node141 -->
<g id="edge109" class="edge">
<title>Node1&#45;&gt;Node141</title>
<path fill="none" stroke="midnightblue" d="M1309.21,-514.67C1566.3,-504.14 2465.79,-467.29 2744.22,-455.89"/>
<polygon fill="midnightblue" stroke="midnightblue" points="2744.4,-459.39 2754.25,-455.48 2744.12,-452.39 2744.4,-459.39"/>
</g>
<!-- Node107 -->
<g id="node43" class="node">
<title>Node107</title>
<g id="a_node43"><a xlink:href="raw__ostream_8h.html" target="_top" xlink:title=" ">
<polygon fill="none" stroke="red" points="1766,-241 1766,-260 1906,-260 1906,-241 1766,-241"/>
<text text-anchor="middle" x="1836" y="-248" font-family="Helvetica" font-size="10.00">llvm/Support/raw_ostream.h</text>
</a>
</g>
</g>
<!-- Node1&#45;&gt;Node107 -->
<g id="edge190" class="edge">
<title>Node1&#45;&gt;Node107</title>
<path fill="none" stroke="midnightblue" d="M1279.77,-503.45C1307.23,-493.6 1344.5,-479.94 1377,-467 1517.59,-411.04 1554.19,-399.75 1690,-333 1734.47,-311.14 1784.55,-282.2 1812.99,-265.33"/>
<polygon fill="midnightblue" stroke="midnightblue" points="1814.96,-268.23 1821.76,-260.11 1811.38,-262.22 1814.96,-268.23"/>
</g>
<!-- Node176 -->
<g id="node45" class="node">
<title>Node176</title>
<g id="a_node45"><a xlink:href="TargetSubtargetInfo_8h.html" target="_top" xlink:title=" ">
<polygon fill="none" stroke="red" points="1974.5,-302.5 1974.5,-332.5 2125.5,-332.5 2125.5,-302.5 1974.5,-302.5"/>
<text text-anchor="start" x="1982.5" y="-320.5" font-family="Helvetica" font-size="10.00">llvm/CodeGen/TargetSubtarget</text>
<text text-anchor="middle" x="2050" y="-309.5" font-family="Helvetica" font-size="10.00">Info.h</text>
</a>
</g>
</g>
<!-- Node1&#45;&gt;Node176 -->
<g id="edge151" class="edge">
<title>Node1&#45;&gt;Node176</title>
<path fill="none" stroke="midnightblue" d="M1309.35,-517.17C1418.15,-515.37 1635,-506.58 1814,-467 1899.39,-448.12 1930.98,-454.96 1999,-400 2018.06,-384.6 2032.03,-360.06 2040.48,-341.93"/>
<polygon fill="midnightblue" stroke="midnightblue" points="2043.76,-343.17 2044.61,-332.61 2037.36,-340.34 2043.76,-343.17"/>
</g>
<!-- Node209 -->
<g id="node48" class="node">
<title>Node209</title>
<g id="a_node48"><a xlink:href="Module_8h.html" target="_top" xlink:title="Module.h This file contains the declarations for the Module class.">
<polygon fill="none" stroke="red" points="1044.5,-308 1044.5,-327 1135.5,-327 1135.5,-308 1044.5,-308"/>
<text text-anchor="middle" x="1090" y="-315" font-family="Helvetica" font-size="10.00">llvm/IR/Module.h</text>
</a>
</g>
</g>
<!-- Node1&#45;&gt;Node209 -->
<g id="edge167" class="edge">
<title>Node1&#45;&gt;Node209</title>
<path fill="none" stroke="midnightblue" d="M1202.36,-503.34C1184.52,-495.04 1164.09,-483 1150,-467 1115.95,-428.32 1099.76,-367.82 1093.41,-337.36"/>
<polygon fill="midnightblue" stroke="midnightblue" points="1096.79,-336.41 1091.44,-327.27 1089.92,-337.75 1096.79,-336.41"/>
</g>
<!-- Node183 -->
<g id="node49" class="node">
<title>Node183</title>
<g id="a_node49"><a xlink:href="CommandLine_8h.html" target="_top" xlink:title=" ">
<polygon fill="none" stroke="red" points="1535,-308 1535,-327 1681,-327 1681,-308 1535,-308"/>
<text text-anchor="middle" x="1608" y="-315" font-family="Helvetica" font-size="10.00">llvm/Support/CommandLine.h</text>
</a>
</g>
</g>
<!-- Node1&#45;&gt;Node183 -->
<g id="edge177" class="edge">
<title>Node1&#45;&gt;Node183</title>
<path fill="none" stroke="midnightblue" d="M1266.17,-503.35C1334.25,-466.53 1516.23,-368.13 1582.99,-332.02"/>
<polygon fill="midnightblue" stroke="midnightblue" points="1584.85,-335 1591.98,-327.16 1581.52,-328.84 1584.85,-335"/>
</g>
<!-- Node217 -->
<g id="node50" class="node">
<title>Node217</title>
<g id="a_node50"><a xlink:href="llvm_2Target_2TargetMachine_8h.html" target="_top" xlink:title=" ">
<polygon fill="none" stroke="red" points="68,-375 68,-394 208,-394 208,-375 68,-375"/>
<text text-anchor="middle" x="138" y="-382" font-family="Helvetica" font-size="10.00">llvm/Target/TargetMachine.h</text>
</a>
</g>
</g>
<!-- Node1&#45;&gt;Node217 -->
<g id="edge191" class="edge">
<title>Node1&#45;&gt;Node217</title>
<path fill="none" stroke="midnightblue" d="M1170.8,-516.88C955.77,-514.58 308.42,-504.55 222,-467 190.47,-453.3 163.92,-422.1 149.55,-402.53"/>
<polygon fill="midnightblue" stroke="midnightblue" points="152.3,-400.35 143.66,-394.22 146.58,-404.4 152.3,-400.35"/>
</g>
<!-- Node3 -->
<g id="node3" class="node">
<title>Node3</title>
<g id="a_node3"><a xlink:href="ArrayRef_8h.html" target="_top" xlink:title=" ">
<polygon fill="none" stroke="red" points="1376,-241 1376,-260 1482,-260 1482,-241 1376,-241"/>
<text text-anchor="middle" x="1429" y="-248" font-family="Helvetica" font-size="10.00">llvm/ADT/ArrayRef.h</text>
</a>
</g>
</g>
<!-- Node2&#45;&gt;Node3 -->
<g id="edge2" class="edge">
<title>Node2&#45;&gt;Node3</title>
<path fill="none" stroke="midnightblue" d="M1061.6,-369.5C1143.05,-343.34 1316.95,-287.49 1392.59,-263.19"/>
<polygon fill="midnightblue" stroke="midnightblue" points="1393.72,-266.51 1402.17,-260.12 1391.58,-259.84 1393.72,-266.51"/>
</g>
<!-- Node2&#45;&gt;Node17 -->
<g id="edge91" class="edge">
<title>Node2&#45;&gt;Node17</title>
<path fill="none" stroke="midnightblue" d="M1091.27,-383.4C1302.7,-382.59 1931.92,-376.42 2452,-333 2678.5,-314.09 2743.79,-339.13 2959,-266 3015.37,-246.84 3041.81,-248.43 3075,-199 3098.24,-164.39 3097.68,-113.08 3095.31,-85.74"/>
<polygon fill="midnightblue" stroke="midnightblue" points="3098.77,-85.19 3094.25,-75.61 3091.81,-85.92 3098.77,-85.19"/>
</g>
<!-- Node2&#45;&gt;Node45 -->
<g id="edge92" class="edge">
<title>Node2&#45;&gt;Node45</title>
<path fill="none" stroke="midnightblue" d="M1091.03,-381.22C1418.09,-370.72 2739.82,-324.95 2915,-266 2958.83,-251.25 3002.87,-218.72 3026.45,-199.52"/>
<polygon fill="midnightblue" stroke="midnightblue" points="3028.72,-202.18 3034.17,-193.1 3024.24,-196.8 3028.72,-202.18"/>
</g>
<!-- Node46 -->
<g id="node25" class="node">
<title>Node46</title>
<g id="a_node25"><a xlink:href="DenseMap_8h.html" target="_top" xlink:title=" ">
<polygon fill="none" stroke="red" points="1082,-174 1082,-193 1198,-193 1198,-174 1082,-174"/>
<text text-anchor="middle" x="1140" y="-181" font-family="Helvetica" font-size="10.00">llvm/ADT/DenseMap.h</text>
</a>
</g>
</g>
<!-- Node2&#45;&gt;Node46 -->
<g id="edge46" class="edge">
<title>Node2&#45;&gt;Node46</title>
<path fill="none" stroke="midnightblue" d="M1018.74,-369.21C1020.11,-352.34 1023.99,-323.81 1035,-302 1056.5,-259.4 1097.45,-220.3 1121.36,-199.71"/>
<polygon fill="midnightblue" stroke="midnightblue" points="1123.67,-202.35 1129.05,-193.22 1119.15,-197 1123.67,-202.35"/>
</g>
<!-- Node55 -->
<g id="node26" class="node">
<title>Node55</title>
<g id="a_node26"><a xlink:href="Instructions_8h.html" target="_top" xlink:title=" ">
<polygon fill="none" stroke="red" points="828,-308 828,-327 938,-327 938,-308 828,-308"/>
<text text-anchor="middle" x="883" y="-315" font-family="Helvetica" font-size="10.00">llvm/IR/Instructions.h</text>
</a>
</g>
</g>
<!-- Node2&#45;&gt;Node55 -->
<g id="edge60" class="edge">
<title>Node2&#45;&gt;Node55</title>
<path fill="none" stroke="midnightblue" d="M988.71,-369.4C965.23,-358.09 932.56,-342.36 909.77,-331.39"/>
<polygon fill="midnightblue" stroke="midnightblue" points="911.2,-328.19 900.67,-327.01 908.16,-334.5 911.2,-328.19"/>
</g>
<!-- Node120 -->
<g id="node30" class="node">
<title>Node120</title>
<g id="a_node30"><a xlink:href="InitializePasses_8h.html" target="_top" xlink:title=" ">
<polygon fill="none" stroke="black" points="416,-308 416,-327 530,-327 530,-308 416,-308"/>
<text text-anchor="middle" x="473" y="-315" font-family="Helvetica" font-size="10.00">llvm/InitializePasses.h</text>
</a>
</g>
</g>
<!-- Node2&#45;&gt;Node120 -->
<g id="edge89" class="edge">
<title>Node2&#45;&gt;Node120</title>
<path fill="none" stroke="midnightblue" d="M944.64,-377.87C851.24,-370.2 685.07,-354.87 544,-333 536.73,-331.87 529.09,-330.51 521.61,-329.07"/>
<polygon fill="midnightblue" stroke="midnightblue" points="522.06,-325.59 511.57,-327.07 520.7,-332.45 522.06,-325.59"/>
</g>
<!-- Node2&#45;&gt;Node121 -->
<g id="edge90" class="edge">
<title>Node2&#45;&gt;Node121</title>
<path fill="none" stroke="midnightblue" d="M944.69,-377.59C780.72,-364.36 388.34,-332.72 256.26,-322.07"/>
<polygon fill="midnightblue" stroke="midnightblue" points="256.36,-318.57 246.11,-321.25 255.79,-325.54 256.36,-318.57"/>
</g>
<!-- Node3&#45;&gt;Node27 -->
<g id="edge3" class="edge">
<title>Node3&#45;&gt;Node27</title>
<path fill="none" stroke="midnightblue" d="M1418.75,-240.73C1406.56,-230.31 1385.98,-212.71 1371.09,-199.97"/>
<polygon fill="midnightblue" stroke="midnightblue" points="1372.96,-196.97 1363.09,-193.13 1368.41,-202.29 1372.96,-196.97"/>
</g>
<!-- Node11 -->
<g id="node7" class="node">
<title>Node11</title>
<g id="a_node7"><a xlink:href="Compiler_8h.html" target="_top" xlink:title=" ">
<polygon fill="none" stroke="red" points="1401,-0.5 1401,-19.5 1523,-19.5 1523,-0.5 1401,-0.5"/>
<text text-anchor="middle" x="1462" y="-7.5" font-family="Helvetica" font-size="10.00">llvm/Support/Compiler.h</text>
</a>
</g>
</g>
<!-- Node3&#45;&gt;Node11 -->
<g id="edge37" class="edge">
<title>Node3&#45;&gt;Node11</title>
<path fill="none" stroke="midnightblue" d="M1375.9,-248.11C1199.97,-243.29 642.97,-226.01 567,-199 544.8,-191.11 545,-178.68 524,-168 478.15,-144.68 453.19,-165.32 414,-132 386.46,-108.58 359.98,-82.09 385,-56 419.82,-19.69 1156.16,-12.63 1390.83,-11.3"/>
<polygon fill="midnightblue" stroke="midnightblue" points="1390.97,-14.8 1400.95,-11.24 1390.94,-7.8 1390.97,-14.8"/>
</g>
<!-- Node3&#45;&gt;Node22 -->
<g id="edge38" class="edge">
<title>Node3&#45;&gt;Node22</title>
<path fill="none" stroke="midnightblue" d="M1375.8,-246.26C1300.26,-240.83 1157.98,-227.56 1040,-199 1000.51,-189.44 993.59,-177.14 954,-168 881.69,-151.3 671.57,-187.23 622,-132 610.47,-119.16 617.18,-99.15 624.76,-84.72"/>
<polygon fill="midnightblue" stroke="midnightblue" points="627.96,-86.19 629.93,-75.78 621.9,-82.68 627.96,-86.19"/>
</g>
<!-- Node3&#45;&gt;Node23 -->
<g id="edge39" class="edge">
<title>Node3&#45;&gt;Node23</title>
<path fill="none" stroke="midnightblue" d="M1482.11,-243.98C1527.5,-237.69 1593.57,-224.75 1646,-199 1665.56,-189.39 1664.21,-177.14 1684,-168 1764.81,-130.69 1796.72,-160.61 1881,-132 1899.45,-125.74 1901.61,-118.43 1920,-112 1984.37,-89.48 2063.35,-76.87 2107.95,-71.04"/>
<polygon fill="midnightblue" stroke="midnightblue" points="2108.51,-74.5 2117.99,-69.77 2107.63,-67.56 2108.51,-74.5"/>
</g>
<!-- Node18 -->
<g id="node15" class="node">
<title>Node18</title>
<g id="a_node15"><a xlink:title=" ">
<polygon fill="none" stroke="#bfbfbf" points="1217,-56.5 1217,-75.5 1279,-75.5 1279,-56.5 1217,-56.5"/>
<text text-anchor="middle" x="1248" y="-63.5" font-family="Helvetica" font-size="10.00">type_traits</text>
</a>
</g>
</g>
<!-- Node3&#45;&gt;Node18 -->
<g id="edge44" class="edge">
<title>Node3&#45;&gt;Node18</title>
<path fill="none" stroke="midnightblue" d="M1375.98,-245.15C1344,-239.58 1305.25,-227.06 1283,-199 1258.85,-168.54 1285.99,-148.98 1274,-112 1270.84,-102.25 1265.37,-92.3 1260.26,-84.24"/>
<polygon fill="midnightblue" stroke="midnightblue" points="1263.06,-82.13 1254.58,-75.77 1257.24,-86.03 1263.06,-82.13"/>
</g>
<!-- Node16 -->
<g id="node19" class="node">
<title>Node16</title>
<g id="a_node19"><a xlink:title=" ">
<polygon fill="none" stroke="#bfbfbf" points="520.5,-112.5 520.5,-131.5 569.5,-131.5 569.5,-112.5 520.5,-112.5"/>
<text text-anchor="middle" x="545" y="-119.5" font-family="Helvetica" font-size="10.00">cstddef</text>
</a>
</g>
</g>
<!-- Node3&#45;&gt;Node16 -->
<g id="edge40" class="edge">
<title>Node3&#45;&gt;Node16</title>
<path fill="none" stroke="midnightblue" d="M1375.9,-241.77C1359.3,-239.46 1340.9,-237.01 1324,-235 1164.33,-216 1115.78,-252.1 964,-199 940.03,-190.61 939.94,-176.49 916,-168 776.11,-118.4 730.35,-156.73 584,-132 582.54,-131.75 581.06,-131.49 579.57,-131.2"/>
<polygon fill="midnightblue" stroke="midnightblue" points="580.17,-127.75 569.67,-129.16 578.75,-134.61 580.17,-127.75"/>
</g>
<!-- Node35 -->
<g id="node20" class="node">
<title>Node35</title>
<g id="a_node20"><a xlink:title=" ">
<polygon fill="none" stroke="#bfbfbf" points="1734,-112.5 1734,-131.5 1806,-131.5 1806,-112.5 1734,-112.5"/>
<text text-anchor="middle" x="1770" y="-119.5" font-family="Helvetica" font-size="10.00">initializer_list</text>
</a>
</g>
</g>
<!-- Node3&#45;&gt;Node35 -->
<g id="edge41" class="edge">
<title>Node3&#45;&gt;Node35</title>
<path fill="none" stroke="midnightblue" d="M1434.13,-240.86C1444.77,-223.79 1471.02,-185.85 1504,-168 1589.59,-121.68 1624.11,-148.62 1720,-132 1721.27,-131.78 1722.56,-131.56 1723.86,-131.33"/>
<polygon fill="midnightblue" stroke="midnightblue" points="1724.72,-134.73 1733.96,-129.54 1723.5,-127.84 1724.72,-134.73"/>
</g>
<!-- Node36 -->
<g id="node21" class="node">
<title>Node36</title>
<g id="a_node21"><a xlink:title=" ">
<polygon fill="none" stroke="#bfbfbf" points="1824.5,-112.5 1824.5,-131.5 1871.5,-131.5 1871.5,-112.5 1824.5,-112.5"/>
<text text-anchor="middle" x="1848" y="-119.5" font-family="Helvetica" font-size="10.00">iterator</text>
</a>
</g>
</g>
<!-- Node3&#45;&gt;Node36 -->
<g id="edge42" class="edge">
<title>Node3&#45;&gt;Node36</title>
<path fill="none" stroke="midnightblue" d="M1472.95,-240.95C1509.99,-232.85 1563.86,-218.94 1608,-199 1631.14,-188.55 1632.59,-177.84 1656,-168 1719.92,-141.12 1742.73,-148.78 1814.3,-132.02"/>
<polygon fill="midnightblue" stroke="midnightblue" points="1815.35,-135.37 1824.24,-129.61 1813.7,-128.57 1815.35,-135.37"/>
</g>
<!-- Node37 -->
<g id="node22" class="node">
<title>Node37</title>
<g id="a_node22"><a xlink:title=" ">
<polygon fill="none" stroke="#bfbfbf" points="1928.5,-112.5 1928.5,-131.5 1981.5,-131.5 1981.5,-112.5 1928.5,-112.5"/>
<text text-anchor="middle" x="1955" y="-119.5" font-family="Helvetica" font-size="10.00">memory</text>
</a>
</g>
</g>
<!-- Node3&#45;&gt;Node37 -->
<g id="edge43" class="edge">
<title>Node3&#45;&gt;Node37</title>
<path fill="none" stroke="midnightblue" d="M1482.29,-241.35C1534.26,-232.84 1615.29,-218.07 1684,-199 1723.15,-188.13 1731.09,-179.71 1770,-168 1797.51,-159.72 1872.98,-141.93 1918.58,-131.37"/>
<polygon fill="midnightblue" stroke="midnightblue" points="1919.42,-134.77 1928.38,-129.1 1917.84,-127.95 1919.42,-134.77"/>
</g>
<!-- Node3&#45;&gt;Node45 -->
<g id="edge45" class="edge">
<title>Node3&#45;&gt;Node45</title>
<path fill="none" stroke="midnightblue" d="M1482.11,-246.98C1546.97,-243.95 1660.03,-238.79 1757,-235 2228.47,-216.58 2346.74,-222.11 2818,-199 2887.29,-195.6 2968.43,-190 3012.17,-186.85"/>
<polygon fill="midnightblue" stroke="midnightblue" points="3012.48,-190.33 3022.2,-186.12 3011.97,-183.35 3012.48,-190.33"/>
</g>
<!-- Node28 -->
<g id="node5" class="node">
<title>Node28</title>
<g id="a_node5"><a xlink:href="iterator__range_8h.html" target="_top" xlink:title="This provides a very simple, boring adaptor for a begin and end iterator into a range type.">
<polygon fill="none" stroke="black" points="146,-112.5 146,-131.5 274,-131.5 274,-112.5 146,-112.5"/>
<text text-anchor="middle" x="210" y="-119.5" font-family="Helvetica" font-size="10.00">llvm/ADT/iterator_range.h</text>
</a>
</g>
</g>
<!-- Node27&#45;&gt;Node28 -->
<g id="edge4" class="edge">
<title>Node27&#45;&gt;Node28</title>
<path fill="none" stroke="midnightblue" d="M1292.33,-175.74C1266.11,-173 1235.07,-170.03 1207,-168 862.53,-143.14 450.05,-129.71 284.31,-124.98"/>
<polygon fill="midnightblue" stroke="midnightblue" points="284.32,-121.48 274.22,-124.7 284.12,-128.48 284.32,-121.48"/>
</g>
<!-- Node27&#45;&gt;Node21 -->
<g id="edge36" class="edge">
<title>Node27&#45;&gt;Node21</title>
<path fill="none" stroke="midnightblue" d="M1292.28,-176.34C1266.05,-173.72 1235.02,-170.65 1207,-168 1029.3,-151.18 984,-155.03 807,-132 675.58,-114.9 520.16,-85.5 456,-72.95"/>
<polygon fill="midnightblue" stroke="midnightblue" points="456.64,-69.51 446.15,-71.02 455.29,-76.38 456.64,-69.51"/>
</g>
<!-- Node27&#45;&gt;Node11 -->
<g id="edge6" class="edge">
<title>Node27&#45;&gt;Node11</title>
<path fill="none" stroke="midnightblue" d="M1413.54,-180.76C1642.68,-174.03 2444.92,-149.29 2465,-132 2484.22,-115.45 2473.54,-101.25 2476,-76 2476.86,-67.15 2482.14,-62.42 2476,-56 2443.46,-21.98 1758.56,-13.4 1533.19,-11.49"/>
<polygon fill="midnightblue" stroke="midnightblue" points="1533.16,-7.99 1523.13,-11.41 1533.1,-14.99 1533.16,-7.99"/>
</g>
<!-- Node10 -->
<g id="node8" class="node">
<title>Node10</title>
<g id="a_node8"><a xlink:href="llvm_2Support_2ErrorHandling_8h.html" target="_top" xlink:title=" ">
<polygon fill="none" stroke="red" points="2831.5,-56.5 2831.5,-75.5 2974.5,-75.5 2974.5,-56.5 2831.5,-56.5"/>
<text text-anchor="middle" x="2903" y="-63.5" font-family="Helvetica" font-size="10.00">llvm/Support/ErrorHandling.h</text>
</a>
</g>
</g>
<!-- Node27&#45;&gt;Node10 -->
<g id="edge7" class="edge">
<title>Node27&#45;&gt;Node10</title>
<path fill="none" stroke="midnightblue" d="M1413.66,-181.1C1625.4,-176.05 2331.04,-157.66 2556,-132 2664.67,-119.61 2790.45,-92.91 2856.68,-77.87"/>
<polygon fill="midnightblue" stroke="midnightblue" points="2857.82,-81.2 2866.79,-75.56 2856.26,-74.37 2857.82,-81.2"/>
</g>
<!-- Node29 -->
<g id="node9" class="node">
<title>Node29</title>
<g id="a_node9"><a xlink:href="MathExtras_8h.html" target="_top" xlink:title=" ">
<polygon fill="none" stroke="red" points="2304,-112.5 2304,-131.5 2438,-131.5 2438,-112.5 2304,-112.5"/>
<text text-anchor="middle" x="2371" y="-119.5" font-family="Helvetica" font-size="10.00">llvm/Support/MathExtras.h</text>
</a>
</g>
</g>
<!-- Node27&#45;&gt;Node29 -->
<g id="edge9" class="edge">
<title>Node27&#45;&gt;Node29</title>
<path fill="none" stroke="midnightblue" d="M1413.63,-178.96C1589.3,-168.69 2098.48,-138.93 2293.63,-127.52"/>
<polygon fill="midnightblue" stroke="midnightblue" points="2294.02,-131.01 2303.8,-126.93 2293.61,-124.02 2294.02,-131.01"/>
</g>
<!-- Node27&#45;&gt;Node22 -->
<g id="edge25" class="edge">
<title>Node27&#45;&gt;Node22</title>
<path fill="none" stroke="midnightblue" d="M1346.56,-173.81C1334.4,-158.18 1306.35,-125.66 1274,-112 1165.02,-65.99 795.49,-65.39 674.61,-66.49"/>
<polygon fill="midnightblue" stroke="midnightblue" points="674.33,-62.99 664.36,-66.59 674.4,-69.99 674.33,-62.99"/>
</g>
<!-- Node27&#45;&gt;Node23 -->
<g id="edge26" class="edge">
<title>Node27&#45;&gt;Node23</title>
<path fill="none" stroke="midnightblue" d="M1397.01,-173.96C1407.19,-171.99 1417.97,-169.92 1428,-168 1559.94,-142.81 1592.12,-131.65 1725,-112 1866.13,-91.13 2035.44,-75.9 2107.61,-69.86"/>
<polygon fill="midnightblue" stroke="midnightblue" points="2108.26,-73.32 2117.94,-69 2107.69,-66.34 2108.26,-73.32"/>
</g>
<!-- Node24 -->
<g id="node13" class="node">
<title>Node24</title>
<g id="a_node13"><a xlink:title=" ">
<polygon fill="none" stroke="#bfbfbf" points="2421,-56.5 2421,-75.5 2467,-75.5 2467,-56.5 2421,-56.5"/>
<text text-anchor="middle" x="2444" y="-63.5" font-family="Helvetica" font-size="10.00">cstring</text>
</a>
</g>
</g>
<!-- Node27&#45;&gt;Node24 -->
<g id="edge29" class="edge">
<title>Node27&#45;&gt;Node24</title>
<path fill="none" stroke="midnightblue" d="M1413.83,-180.82C1641.19,-174.4 2429.03,-150.82 2447,-132 2458.68,-119.77 2455.67,-99.62 2451.17,-85"/>
<polygon fill="midnightblue" stroke="midnightblue" points="2454.44,-83.77 2447.81,-75.51 2447.85,-86.11 2454.44,-83.77"/>
</g>
<!-- Node32 -->
<g id="node14" class="node">
<title>Node32</title>
<g id="a_node14"><a xlink:title=" ">
<polygon fill="none" stroke="#bfbfbf" points="1572,-56.5 1572,-75.5 1612,-75.5 1612,-56.5 1572,-56.5"/>
<text text-anchor="middle" x="1592" y="-63.5" font-family="Helvetica" font-size="10.00">limits</text>
</a>
</g>
</g>
<!-- Node27&#45;&gt;Node32 -->
<g id="edge32" class="edge">
<title>Node27&#45;&gt;Node32</title>
<path fill="none" stroke="midnightblue" d="M1392.93,-173.98C1446.99,-162.19 1538.2,-141.31 1551,-132 1567.15,-120.25 1578.43,-100.02 1585.01,-85.25"/>
<polygon fill="midnightblue" stroke="midnightblue" points="1588.4,-86.23 1588.98,-75.65 1581.93,-83.55 1588.4,-86.23"/>
</g>
<!-- Node27&#45;&gt;Node18 -->
<g id="edge35" class="edge">
<title>Node27&#45;&gt;Node18</title>
<path fill="none" stroke="midnightblue" d="M1354.7,-173.75C1356.96,-159.4 1359.29,-130.62 1346,-112 1332.64,-93.27 1309.52,-82.15 1289.1,-75.66"/>
<polygon fill="midnightblue" stroke="midnightblue" points="1289.92,-72.25 1279.34,-72.82 1287.97,-78.97 1289.92,-72.25"/>
</g>
<!-- Node33 -->
<g id="node16" class="node">
<title>Node33</title>
<g id="a_node16"><a xlink:href="MemAlloc_8h.html" target="_top" xlink:title="This file defines counterparts of C library allocation functions defined in the namespace &#39;std&#39;.">
<polygon fill="none" stroke="black" points="1398.5,-112.5 1398.5,-131.5 1525.5,-131.5 1525.5,-112.5 1398.5,-112.5"/>
<text text-anchor="middle" x="1462" y="-119.5" font-family="Helvetica" font-size="10.00">llvm/Support/MemAlloc.h</text>
</a>
</g>
</g>
<!-- Node27&#45;&gt;Node33 -->
<g id="edge17" class="edge">
<title>Node27&#45;&gt;Node33</title>
<path fill="none" stroke="midnightblue" d="M1368.62,-173.98C1386.59,-164.17 1416.32,-147.93 1437.41,-136.42"/>
<polygon fill="midnightblue" stroke="midnightblue" points="1439.31,-139.37 1446.41,-131.51 1435.96,-133.23 1439.31,-139.37"/>
</g>
<!-- Node34 -->
<g id="node17" class="node">
<title>Node34</title>
<g id="a_node17"><a xlink:title=" ">
<polygon fill="none" stroke="#bfbfbf" points="1499.5,-56.5 1499.5,-75.5 1544.5,-75.5 1544.5,-56.5 1499.5,-56.5"/>
<text text-anchor="middle" x="1522" y="-63.5" font-family="Helvetica" font-size="10.00">cstdlib</text>
</a>
</g>
</g>
<!-- Node27&#45;&gt;Node34 -->
<g id="edge28" class="edge">
<title>Node27&#45;&gt;Node34</title>
<path fill="none" stroke="midnightblue" d="M1393.52,-173.96C1444.46,-162.83 1526.32,-143.42 1535,-132 1545.31,-118.44 1539.35,-98.82 1532.48,-84.69"/>
<polygon fill="midnightblue" stroke="midnightblue" points="1535.37,-82.67 1527.55,-75.53 1529.21,-86 1535.37,-82.67"/>
</g>
<!-- Node20 -->
<g id="node18" class="node">
<title>Node20</title>
<g id="a_node18"><a xlink:href="type__traits_8h.html" target="_top" xlink:title=" ">
<polygon fill="none" stroke="black" points="816.5,-112.5 816.5,-131.5 945.5,-131.5 945.5,-112.5 816.5,-112.5"/>
<text text-anchor="middle" x="881" y="-119.5" font-family="Helvetica" font-size="10.00">llvm/Support/type_traits.h</text>
</a>
</g>
</g>
<!-- Node27&#45;&gt;Node20 -->
<g id="edge21" class="edge">
<title>Node27&#45;&gt;Node20</title>
<path fill="none" stroke="midnightblue" d="M1292.26,-174.84C1206.23,-164 1049,-144.18 955.86,-132.44"/>
<polygon fill="midnightblue" stroke="midnightblue" points="956.02,-128.93 945.66,-131.15 955.15,-135.87 956.02,-128.93"/>
</g>
<!-- Node27&#45;&gt;Node16 -->
<g id="edge27" class="edge">
<title>Node27&#45;&gt;Node16</title>
<path fill="none" stroke="midnightblue" d="M1292.3,-176.05C1266.09,-173.37 1235.05,-170.35 1207,-168 967.45,-147.97 678.56,-130.69 579.94,-124.99"/>
<polygon fill="midnightblue" stroke="midnightblue" points="579.85,-121.48 569.67,-124.4 579.45,-128.47 579.85,-121.48"/>
</g>
<!-- Node27&#45;&gt;Node35 -->
<g id="edge30" class="edge">
<title>Node27&#45;&gt;Node35</title>
<path fill="none" stroke="midnightblue" d="M1394.57,-173.94C1405.42,-171.85 1417.13,-169.72 1428,-168 1557.16,-147.58 1590.72,-151.59 1720,-132 1721.28,-131.81 1722.57,-131.61 1723.87,-131.4"/>
<polygon fill="midnightblue" stroke="midnightblue" points="1724.69,-134.81 1733.99,-129.73 1723.55,-127.91 1724.69,-134.81"/>
</g>
<!-- Node27&#45;&gt;Node36 -->
<g id="edge31" class="edge">
<title>Node27&#45;&gt;Node36</title>
<path fill="none" stroke="midnightblue" d="M1393.36,-173.94C1404.54,-171.78 1416.71,-169.61 1428,-168 1595.83,-144.03 1643.28,-162.14 1814.48,-131.76"/>
<polygon fill="midnightblue" stroke="midnightblue" points="1815.1,-135.21 1824.32,-129.99 1813.86,-128.32 1815.1,-135.21"/>
</g>
<!-- Node27&#45;&gt;Node37 -->
<g id="edge33" class="edge">
<title>Node27&#45;&gt;Node37</title>
<path fill="none" stroke="midnightblue" d="M1392.57,-173.99C1403.96,-171.78 1416.44,-169.57 1428,-168 1628.13,-140.79 1680.04,-152.2 1881,-132 1893.15,-130.78 1906.4,-129.24 1918.28,-127.77"/>
<polygon fill="midnightblue" stroke="midnightblue" points="1918.82,-131.23 1928.31,-126.52 1917.96,-124.29 1918.82,-131.23"/>
</g>
<!-- Node38 -->
<g id="node23" class="node">
<title>Node38</title>
<g id="a_node23"><a xlink:title=" ">
<polygon fill="none" stroke="#bfbfbf" points="1230.5,-112.5 1230.5,-131.5 1265.5,-131.5 1265.5,-112.5 1230.5,-112.5"/>
<text text-anchor="middle" x="1248" y="-119.5" font-family="Helvetica" font-size="10.00">new</text>
</a>
</g>
</g>
<!-- Node27&#45;&gt;Node38 -->
<g id="edge34" class="edge">
<title>Node27&#45;&gt;Node38</title>
<path fill="none" stroke="midnightblue" d="M1337.96,-173.98C1320.72,-164.21 1292.26,-148.08 1271.97,-136.58"/>
<polygon fill="midnightblue" stroke="midnightblue" points="1273.44,-133.39 1263.02,-131.51 1269.99,-139.48 1273.44,-133.39"/>
</g>
<!-- Node28&#45;&gt;Node21 -->
<g id="edge5" class="edge">
<title>Node28&#45;&gt;Node21</title>
<path fill="none" stroke="midnightblue" d="M244.23,-112.44C286.05,-101.99 356.15,-84.46 395.97,-74.51"/>
<polygon fill="midnightblue" stroke="midnightblue" points="397.02,-77.85 405.87,-72.03 395.32,-71.06 397.02,-77.85"/>
</g>
<!-- Node10&#45;&gt;Node11 -->
<g id="edge8" class="edge">
<title>Node10&#45;&gt;Node11</title>
<path fill="none" stroke="midnightblue" d="M2831.24,-57.1C2826.42,-56.69 2821.64,-56.32 2817,-56 2326.83,-22.26 1735.11,-13.62 1533.36,-11.58"/>
<polygon fill="midnightblue" stroke="midnightblue" points="1533.22,-8.08 1523.19,-11.48 1533.15,-15.08 1533.22,-8.08"/>
</g>
<!-- Node29&#45;&gt;Node11 -->
<g id="edge10" class="edge">
<title>Node29&#45;&gt;Node11</title>
<path fill="none" stroke="midnightblue" d="M2351.08,-112.39C2316.44,-97.86 2242.54,-68.81 2177,-56 2055.29,-32.2 1689.33,-18.17 1533.51,-13.14"/>
<polygon fill="midnightblue" stroke="midnightblue" points="1533.21,-9.62 1523.11,-12.8 1532.99,-16.62 1533.21,-9.62"/>
</g>
<!-- Node29&#45;&gt;Node22 -->
<g id="edge11" class="edge">
<title>Node29&#45;&gt;Node22</title>
<path fill="none" stroke="midnightblue" d="M2303.78,-118.91C2016.44,-109.96 895.86,-75.09 674.21,-68.19"/>
<polygon fill="midnightblue" stroke="midnightblue" points="674.16,-64.69 664.05,-67.87 673.94,-71.68 674.16,-64.69"/>
</g>
<!-- Node29&#45;&gt;Node23 -->
<g id="edge12" class="edge">
<title>Node29&#45;&gt;Node23</title>
<path fill="none" stroke="midnightblue" d="M2334.87,-112.44C2291.84,-102.25 2220.44,-85.34 2177.93,-75.27"/>
<polygon fill="midnightblue" stroke="midnightblue" points="2178.58,-71.83 2168.04,-72.93 2176.97,-78.64 2178.58,-71.83"/>
</g>
<!-- Node29&#45;&gt;Node17 -->
<g id="edge13" class="edge">
<title>Node29&#45;&gt;Node17</title>
<path fill="none" stroke="midnightblue" d="M2438.14,-116.27C2550.93,-108.28 2785.59,-91.47 2984,-76 3009.38,-74.02 3038.07,-71.65 3059.64,-69.83"/>
<polygon fill="midnightblue" stroke="midnightblue" points="3059.95,-73.32 3069.62,-68.99 3059.36,-66.35 3059.95,-73.32"/>
</g>
<!-- Node29&#45;&gt;Node24 -->
<g id="edge14" class="edge">
<title>Node29&#45;&gt;Node24</title>
<path fill="none" stroke="midnightblue" d="M2382.73,-112.32C2393.84,-104.11 2410.74,-91.6 2423.98,-81.81"/>
<polygon fill="midnightblue" stroke="midnightblue" points="2426.1,-84.59 2432.06,-75.83 2421.94,-78.97 2426.1,-84.59"/>
</g>
<!-- Node29&#45;&gt;Node32 -->
<g id="edge15" class="edge">
<title>Node29&#45;&gt;Node32</title>
<path fill="none" stroke="midnightblue" d="M2303.91,-116.35C2142.31,-105.15 1736.42,-77.01 1622.28,-69.1"/>
<polygon fill="midnightblue" stroke="midnightblue" points="1622.38,-65.6 1612.17,-68.4 1621.9,-72.58 1622.38,-65.6"/>
</g>
<!-- Node29&#45;&gt;Node18 -->
<g id="edge16" class="edge">
<title>Node29&#45;&gt;Node18</title>
<path fill="none" stroke="midnightblue" d="M2303.7,-117.76C2094.3,-107.69 1458.28,-77.11 1289.49,-69"/>
<polygon fill="midnightblue" stroke="midnightblue" points="1289.44,-65.49 1279.28,-68.5 1289.1,-72.48 1289.44,-65.49"/>
</g>
<!-- Node33&#45;&gt;Node11 -->
<g id="edge18" class="edge">
<title>Node33&#45;&gt;Node11</title>
<path fill="none" stroke="midnightblue" d="M1462,-112.37C1462,-94.62 1462,-53.67 1462,-29.6"/>
<polygon fill="midnightblue" stroke="midnightblue" points="1465.5,-29.59 1462,-19.59 1458.5,-29.59 1465.5,-29.59"/>
</g>
<!-- Node33&#45;&gt;Node10 -->
<g id="edge19" class="edge">
<title>Node33&#45;&gt;Node10</title>
<path fill="none" stroke="midnightblue" d="M1525.78,-118.61C1758.38,-109.89 2561.07,-79.81 2821.04,-70.07"/>
<polygon fill="midnightblue" stroke="midnightblue" points="2821.31,-73.56 2831.17,-69.69 2821.04,-66.57 2821.31,-73.56"/>
</g>
<!-- Node33&#45;&gt;Node34 -->
<g id="edge20" class="edge">
<title>Node33&#45;&gt;Node34</title>
<path fill="none" stroke="midnightblue" d="M1471.64,-112.32C1480.51,-104.34 1493.87,-92.31 1504.61,-82.65"/>
<polygon fill="midnightblue" stroke="midnightblue" points="1507.09,-85.13 1512.18,-75.83 1502.41,-79.92 1507.09,-85.13"/>
</g>
<!-- Node20&#45;&gt;Node21 -->
<g id="edge24" class="edge">
<title>Node20&#45;&gt;Node21</title>
<path fill="none" stroke="midnightblue" d="M816.29,-113.32C716.65,-101.49 529.49,-79.28 456.37,-70.6"/>
<polygon fill="midnightblue" stroke="midnightblue" points="456.38,-67.08 446.04,-69.38 455.55,-74.03 456.38,-67.08"/>
</g>
<!-- Node20&#45;&gt;Node11 -->
<g id="edge22" class="edge">
<title>Node20&#45;&gt;Node11</title>
<path fill="none" stroke="midnightblue" d="M922.5,-112.46C984.54,-99.76 1105.18,-75.33 1208,-56 1274.23,-43.55 1350.35,-30.19 1401.86,-21.29"/>
<polygon fill="midnightblue" stroke="midnightblue" points="1402.56,-24.72 1411.82,-19.57 1401.37,-17.82 1402.56,-24.72"/>
</g>
<!-- Node20&#45;&gt;Node18 -->
<g id="edge23" class="edge">
<title>Node20&#45;&gt;Node18</title>
<path fill="none" stroke="midnightblue" d="M939.15,-112.44C1013.78,-101.46 1141.4,-82.68 1206.77,-73.07"/>
<polygon fill="midnightblue" stroke="midnightblue" points="1207.32,-76.52 1216.7,-71.6 1206.3,-69.6 1207.32,-76.52"/>
</g>
<!-- Node46&#45;&gt;Node21 -->
<g id="edge59" class="edge">
<title>Node46&#45;&gt;Node21</title>
<path fill="none" stroke="midnightblue" d="M1081.8,-174.56C1065.09,-172.35 1046.83,-170.01 1030,-168 880.87,-150.18 841.96,-157.76 694,-132 606.59,-116.78 505.29,-89.54 456.02,-75.65"/>
<polygon fill="midnightblue" stroke="midnightblue" points="456.89,-72.26 446.32,-72.9 454.98,-78.99 456.89,-72.26"/>
</g>
<!-- Node46&#45;&gt;Node11 -->
<g id="edge47" class="edge">
<title>Node46&#45;&gt;Node11</title>
<path fill="none" stroke="midnightblue" d="M1099.72,-173.93C1089.4,-171.86 1078.31,-169.75 1068,-168 951.03,-148.17 731.22,-203.29 807,-112 880.23,-23.78 1236.41,-11.71 1390.61,-10.69"/>
<polygon fill="midnightblue" stroke="midnightblue" points="1390.93,-14.18 1400.91,-10.63 1390.89,-7.18 1390.93,-14.18"/>
</g>
<!-- Node46&#45;&gt;Node29 -->
<g id="edge48" class="edge">
<title>Node46&#45;&gt;Node29</title>
<path fill="none" stroke="midnightblue" d="M1198.03,-175.82C1223.99,-173.04 1255,-170 1283,-168 1661.52,-141.01 2115.35,-128.68 2293.68,-124.61"/>
<polygon fill="midnightblue" stroke="midnightblue" points="2293.84,-128.11 2303.75,-124.38 2293.68,-121.11 2293.84,-128.11"/>
</g>
<!-- Node46&#45;&gt;Node22 -->
<g id="edge51" class="edge">
<title>Node46&#45;&gt;Node22</title>
<path fill="none" stroke="midnightblue" d="M1100.88,-173.95C1090.25,-171.81 1078.71,-169.66 1068,-168 921.32,-145.33 875.82,-181.8 736,-132 704.2,-120.67 672.35,-97.41 653.4,-82.01"/>
<polygon fill="midnightblue" stroke="midnightblue" points="655.58,-79.27 645.66,-75.56 651.1,-84.65 655.58,-79.27"/>
</g>
<!-- Node46&#45;&gt;Node23 -->
<g id="edge52" class="edge">
<title>Node46&#45;&gt;Node23</title>
<path fill="none" stroke="midnightblue" d="M1146.43,-173.99C1158.83,-158.34 1187.79,-125.36 1221,-112 1304.3,-78.49 1948.3,-69.16 2107.5,-67.36"/>
<polygon fill="midnightblue" stroke="midnightblue" points="2107.73,-70.86 2117.69,-67.25 2107.66,-63.86 2107.73,-70.86"/>
</g>
<!-- Node46&#45;&gt;Node24 -->
<g id="edge54" class="edge">
<title>Node46&#45;&gt;Node24</title>
<path fill="none" stroke="midnightblue" d="M1198.09,-176.59C1224.07,-173.95 1255.07,-170.81 1283,-168 1443.43,-151.87 1485.1,-159.4 1644,-132 1680.54,-125.7 1688.35,-117.63 1725,-112 1859.85,-91.3 2287.04,-73.2 2410.36,-68.3"/>
<polygon fill="midnightblue" stroke="midnightblue" points="2410.83,-71.79 2420.68,-67.89 2410.55,-64.79 2410.83,-71.79"/>
</g>
<!-- Node46&#45;&gt;Node18 -->
<g id="edge58" class="edge">
<title>Node46&#45;&gt;Node18</title>
<path fill="none" stroke="midnightblue" d="M1138.75,-173.7C1137.21,-159.3 1136.26,-130.43 1150,-112 1163.75,-93.55 1186.88,-82.45 1207.22,-75.89"/>
<polygon fill="midnightblue" stroke="midnightblue" points="1208.33,-79.21 1216.93,-73.02 1206.35,-72.5 1208.33,-79.21"/>
</g>
<!-- Node46&#45;&gt;Node33 -->
<g id="edge49" class="edge">
<title>Node46&#45;&gt;Node33</title>
<path fill="none" stroke="midnightblue" d="M1186.13,-173.98C1244.12,-163.26 1343.58,-144.88 1405.9,-133.37"/>
<polygon fill="midnightblue" stroke="midnightblue" points="1406.75,-136.77 1415.95,-131.51 1405.48,-129.88 1406.75,-136.77"/>
</g>
<!-- Node46&#45;&gt;Node20 -->
<g id="edge50" class="edge">
<title>Node46&#45;&gt;Node20</title>
<path fill="none" stroke="midnightblue" d="M1102.89,-173.98C1056.83,-163.39 978.23,-145.34 928,-133.8"/>
<polygon fill="midnightblue" stroke="midnightblue" points="928.57,-130.34 918.04,-131.51 927,-137.16 928.57,-130.34"/>
</g>
<!-- Node46&#45;&gt;Node16 -->
<g id="edge53" class="edge">
<title>Node46&#45;&gt;Node16</title>
<path fill="none" stroke="midnightblue" d="M1081.82,-174.41C1065.11,-172.2 1046.85,-169.89 1030,-168 861.65,-149.1 659.79,-132.22 579.95,-125.78"/>
<polygon fill="midnightblue" stroke="midnightblue" points="579.76,-122.25 569.51,-124.94 579.2,-129.23 579.76,-122.25"/>
</g>
<!-- Node46&#45;&gt;Node35 -->
<g id="edge55" class="edge">
<title>Node46&#45;&gt;Node35</title>
<path fill="none" stroke="midnightblue" d="M1198.08,-176.46C1224.06,-173.8 1255.06,-170.68 1283,-168 1460.24,-151.02 1504.77,-149.06 1682,-132 1695.52,-130.7 1710.21,-129.22 1723.63,-127.85"/>
<polygon fill="midnightblue" stroke="midnightblue" points="1724.03,-131.32 1733.62,-126.82 1723.31,-124.36 1724.03,-131.32"/>
</g>
<!-- Node46&#45;&gt;Node36 -->
<g id="edge56" class="edge">
<title>Node46&#45;&gt;Node36</title>
<path fill="none" stroke="midnightblue" d="M1198.06,-176.17C1224.02,-173.45 1255.03,-170.36 1283,-168 1515.91,-148.32 1579.58,-170.74 1814.47,-131.72"/>
<polygon fill="midnightblue" stroke="midnightblue" points="1815.05,-135.17 1824.33,-130.06 1813.89,-128.27 1815.05,-135.17"/>
</g>
<!-- Node46&#45;&gt;Node38 -->
<g id="edge57" class="edge">
<title>Node46&#45;&gt;Node38</title>
<path fill="none" stroke="midnightblue" d="M1155.47,-173.98C1173.28,-164.17 1202.74,-147.93 1223.63,-136.42"/>
<polygon fill="midnightblue" stroke="midnightblue" points="1225.49,-139.4 1232.55,-131.51 1222.11,-133.27 1225.49,-139.4"/>
</g>
<!-- Node55&#45;&gt;Node3 -->
<g id="edge61" class="edge">
<title>Node55&#45;&gt;Node3</title>
<path fill="none" stroke="midnightblue" d="M938.11,-309.94C1040.14,-297.79 1257.91,-271.87 1365.77,-259.03"/>
<polygon fill="midnightblue" stroke="midnightblue" points="1366.34,-262.48 1375.86,-257.83 1365.51,-255.53 1366.34,-262.48"/>
</g>
<!-- Node55&#45;&gt;Node27 -->
<g id="edge62" class="edge">
<title>Node55&#45;&gt;Node27</title>
<path fill="none" stroke="midnightblue" d="M898.83,-307.96C930.2,-291.4 1002.86,-254.81 1068,-235 1139.32,-213.32 1223.68,-199.81 1282.02,-192.28"/>
<polygon fill="midnightblue" stroke="midnightblue" points="1282.76,-195.71 1292.24,-190.98 1281.88,-188.77 1282.76,-195.71"/>
</g>
<!-- Node55&#45;&gt;Node28 -->
<g id="edge73" class="edge">
<title>Node55&#45;&gt;Node28</title>
<path fill="none" stroke="midnightblue" d="M827.95,-312.64C701.94,-303.61 399.96,-280.73 356,-266 302.08,-247.93 285.19,-241.13 247,-199 231.8,-182.23 221.49,-158.09 215.69,-141.54"/>
<polygon fill="midnightblue" stroke="midnightblue" points="218.97,-140.32 212.52,-131.91 212.32,-142.5 218.97,-140.32"/>
</g>
<!-- Node55&#45;&gt;Node10 -->
<g id="edge84" class="edge">
<title>Node55&#45;&gt;Node10</title>
<path fill="none" stroke="midnightblue" d="M938.16,-310.29C966.98,-307.28 1002.85,-303.92 1035,-302 1365.18,-282.28 2195.45,-312 2523,-266 2577.12,-258.4 2589.05,-248.56 2642,-235 2705.49,-218.74 2728.92,-232.92 2785,-199 2833.94,-169.4 2874.07,-113.1 2892.35,-84.54"/>
<polygon fill="midnightblue" stroke="midnightblue" points="2895.55,-86.03 2897.88,-75.69 2889.61,-82.32 2895.55,-86.03"/>
</g>
<!-- Node55&#45;&gt;Node23 -->
<g id="edge85" class="edge">
<title>Node55&#45;&gt;Node23</title>
<path fill="none" stroke="midnightblue" d="M891.24,-307.59C924.06,-272.92 1050.21,-147.18 1185,-112 1275.46,-88.39 1944.53,-71.57 2107.36,-67.8"/>
<polygon fill="midnightblue" stroke="midnightblue" points="2107.85,-71.29 2117.77,-67.56 2107.69,-64.29 2107.85,-71.29"/>
</g>
<!-- Node55&#45;&gt;Node17 -->
<g id="edge87" class="edge">
<title>Node55&#45;&gt;Node17</title>
<path fill="none" stroke="midnightblue" d="M938.16,-310.27C966.98,-307.26 1002.85,-303.9 1035,-302 1208.19,-291.76 2426.32,-302.15 2596,-266 2630.88,-258.57 2635.8,-245.09 2670,-235 2757.04,-209.31 2784.96,-227.87 2871,-199 2899.83,-189.33 2904.77,-181.54 2932,-168 2964.75,-151.71 2974.77,-151.03 3006,-132 3030.95,-116.8 3057.58,-96.18 3074.71,-82.27"/>
<polygon fill="midnightblue" stroke="midnightblue" points="3077.23,-84.73 3082.74,-75.68 3072.79,-79.32 3077.23,-84.73"/>
</g>
<!-- Node55&#45;&gt;Node16 -->
<g id="edge86" class="edge">
<title>Node55&#45;&gt;Node16</title>
<path fill="none" stroke="midnightblue" d="M869.73,-307.95C855.13,-298.33 831.18,-281.97 812,-266 763.93,-225.98 765.36,-198.94 711,-168 699.53,-161.47 624.78,-142.51 579.59,-131.39"/>
<polygon fill="midnightblue" stroke="midnightblue" points="580.16,-127.93 569.61,-128.95 578.49,-134.73 580.16,-127.93"/>
</g>
<!-- Node55&#45;&gt;Node36 -->
<g id="edge88" class="edge">
<title>Node55&#45;&gt;Node36</title>
<path fill="none" stroke="midnightblue" d="M920.37,-308C986.55,-292.98 1128.72,-260.9 1249,-235 1325.78,-218.46 1345.12,-215.05 1422,-199 1487.79,-185.27 1503.84,-179.78 1570,-168 1675.18,-149.27 1705.51,-154.2 1814.23,-131.93"/>
<polygon fill="midnightblue" stroke="midnightblue" points="1815.21,-135.3 1824.29,-129.83 1813.79,-128.44 1815.21,-135.3"/>
</g>
<!-- Node50 -->
<g id="node27" class="node">
<title>Node50</title>
<g id="a_node27"><a xlink:href="StringRef_8h.html" target="_top" xlink:title=" ">
<polygon fill="none" stroke="red" points="576,-174 576,-193 684,-193 684,-174 576,-174"/>
<text text-anchor="middle" x="630" y="-181" font-family="Helvetica" font-size="10.00">llvm/ADT/StringRef.h</text>
</a>
</g>
</g>
<!-- Node55&#45;&gt;Node50 -->
<g id="edge63" class="edge">
<title>Node55&#45;&gt;Node50</title>
<path fill="none" stroke="midnightblue" d="M827.73,-314.13C757.3,-309.81 641.48,-297.94 615,-266 600.12,-248.06 610.08,-220.19 619.4,-202.14"/>
<polygon fill="midnightblue" stroke="midnightblue" points="622.54,-203.69 624.35,-193.25 616.43,-200.28 622.54,-203.69"/>
</g>
<!-- Node96 -->
<g id="node28" class="node">
<title>Node96</title>
<g id="a_node28"><a xlink:href="CallingConv_8h.html" target="_top" xlink:title=" ">
<polygon fill="none" stroke="black" points="256.5,-174 256.5,-193 367.5,-193 367.5,-174 256.5,-174"/>
<text text-anchor="middle" x="312" y="-181" font-family="Helvetica" font-size="10.00">llvm/IR/CallingConv.h</text>
</a>
</g>
</g>
<!-- Node55&#45;&gt;Node96 -->
<g id="edge74" class="edge">
<title>Node55&#45;&gt;Node96</title>
<path fill="none" stroke="midnightblue" d="M828,-312.6C710.4,-303.98 442.07,-282.77 404,-266 370.81,-251.38 341.14,-220.25 324.94,-200.97"/>
<polygon fill="midnightblue" stroke="midnightblue" points="327.52,-198.59 318.49,-193.05 322.09,-203.02 327.52,-198.59"/>
</g>
<!-- Node55&#45;&gt;Node99 -->
<g id="edge75" class="edge">
<title>Node55&#45;&gt;Node99</title>
<path fill="none" stroke="midnightblue" d="M855.11,-307.87C817.9,-296.35 751.9,-275.92 710.4,-263.08"/>
<polygon fill="midnightblue" stroke="midnightblue" points="711.26,-259.68 700.67,-260.06 709.19,-266.36 711.26,-259.68"/>
</g>
<!-- Node50&#45;&gt;Node28 -->
<g id="edge64" class="edge">
<title>Node50&#45;&gt;Node28</title>
<path fill="none" stroke="midnightblue" d="M575.95,-174.84C500.56,-164.16 363.72,-144.78 280.42,-132.98"/>
<polygon fill="midnightblue" stroke="midnightblue" points="280.68,-129.48 270.29,-131.54 279.7,-136.41 280.68,-129.48"/>
</g>
<!-- Node50&#45;&gt;Node21 -->
<g id="edge72" class="edge">
<title>Node50&#45;&gt;Node21</title>
<path fill="none" stroke="midnightblue" d="M593.85,-173.92C553.3,-163.79 490.62,-146.5 471,-132 454.32,-119.67 441.65,-99.25 434.07,-84.58"/>
<polygon fill="midnightblue" stroke="midnightblue" points="437.18,-82.97 429.65,-75.52 430.89,-86.04 437.18,-82.97"/>
</g>
<!-- Node50&#45;&gt;Node11 -->
<g id="edge65" class="edge">
<title>Node50&#45;&gt;Node11</title>
<path fill="none" stroke="midnightblue" d="M589.41,-174C543.36,-163.87 471.6,-146.52 448,-132 413.35,-110.69 368.85,-85.36 397,-56 431.39,-20.13 1157.9,-12.77 1390.82,-11.33"/>
<polygon fill="midnightblue" stroke="midnightblue" points="1390.9,-14.83 1400.88,-11.27 1390.85,-7.83 1390.9,-14.83"/>
</g>
<!-- Node50&#45;&gt;Node22 -->
<g id="edge66" class="edge">
<title>Node50&#45;&gt;Node22</title>
<path fill="none" stroke="midnightblue" d="M597.92,-173.99C555.5,-162.41 485.22,-142.01 478,-132 472.8,-124.79 472.64,-119.09 478,-112 492.45,-92.86 556.07,-79.45 598.05,-72.5"/>
<polygon fill="midnightblue" stroke="midnightblue" points="598.63,-75.95 607.95,-70.91 597.52,-69.04 598.63,-75.95"/>
</g>
<!-- Node50&#45;&gt;Node23 -->
<g id="edge67" class="edge">
<title>Node50&#45;&gt;Node23</title>
<path fill="none" stroke="midnightblue" d="M684.11,-175.1C782.82,-161.58 982.69,-134.06 990,-132 1011.46,-125.95 1014.27,-116.98 1036,-112 1142.39,-87.61 1930.42,-71.09 2107.67,-67.66"/>
<polygon fill="midnightblue" stroke="midnightblue" points="2107.83,-71.16 2117.76,-67.47 2107.69,-64.16 2107.83,-71.16"/>
</g>
<!-- Node50&#45;&gt;Node24 -->
<g id="edge69" class="edge">
<title>Node50&#45;&gt;Node24</title>
<path fill="none" stroke="midnightblue" d="M684.23,-180.37C853.19,-173.6 1368.68,-151.82 1535,-132 1583.91,-126.17 1595.09,-117.84 1644,-112 1796.15,-93.83 2278.9,-73.61 2410.55,-68.32"/>
<polygon fill="midnightblue" stroke="midnightblue" points="2410.96,-71.81 2420.81,-67.91 2410.68,-64.81 2410.96,-71.81"/>
</g>
<!-- Node50&#45;&gt;Node32 -->
<g id="edge70" class="edge">
<title>Node50&#45;&gt;Node32</title>
<path fill="none" stroke="midnightblue" d="M684.08,-174.89C769.52,-162.74 928.67,-139.58 954,-132 974.58,-125.84 977.16,-117.22 998,-112 1238.2,-51.78 1309.1,-112.66 1554,-76 1556.52,-75.62 1559.12,-75.16 1561.73,-74.65"/>
<polygon fill="midnightblue" stroke="midnightblue" points="1562.59,-78.04 1571.61,-72.49 1561.1,-71.21 1562.59,-78.04"/>
</g>
<!-- Node50&#45;&gt;Node18 -->
<g id="edge71" class="edge">
<title>Node50&#45;&gt;Node18</title>
<path fill="none" stroke="midnightblue" d="M588.87,-173.95C544.32,-162.94 483.11,-141.64 511,-112 534.96,-86.53 1053.79,-71.78 1206.24,-67.98"/>
<polygon fill="midnightblue" stroke="midnightblue" points="1206.66,-71.48 1216.57,-67.73 1206.48,-64.48 1206.66,-71.48"/>
</g>
<!-- Node50&#45;&gt;Node16 -->
<g id="edge68" class="edge">
<title>Node50&#45;&gt;Node16</title>
<path fill="none" stroke="midnightblue" d="M617.82,-173.98C604.19,-164.43 581.87,-148.81 565.53,-137.37"/>
<polygon fill="midnightblue" stroke="midnightblue" points="567.36,-134.38 557.16,-131.51 563.34,-140.11 567.36,-134.38"/>
</g>
<!-- Node99&#45;&gt;Node28 -->
<g id="edge77" class="edge">
<title>Node99&#45;&gt;Node28</title>
<path fill="none" stroke="midnightblue" d="M629.91,-240.96C593.28,-232.82 539.8,-218.86 496,-199 472.87,-188.51 471.58,-177.42 448,-168 417.96,-156 338.07,-142.17 279.09,-133.04"/>
<polygon fill="midnightblue" stroke="midnightblue" points="279.5,-129.56 269.08,-131.51 278.44,-136.48 279.5,-129.56"/>
</g>
<!-- Node99&#45;&gt;Node11 -->
<g id="edge79" class="edge">
<title>Node99&#45;&gt;Node11</title>
<path fill="none" stroke="midnightblue" d="M636.27,-240.98C605.14,-232.86 559.96,-218.91 524,-199 504.93,-188.44 504.9,-178.86 486,-168 446.49,-145.3 421.44,-164.98 390,-132 366.05,-106.88 347.97,-81.05 372,-56 407.29,-19.22 1154.18,-12.48 1390.78,-11.26"/>
<polygon fill="midnightblue" stroke="midnightblue" points="1391.01,-14.76 1400.99,-11.21 1390.97,-7.76 1391.01,-14.76"/>
</g>
<!-- Node99&#45;&gt;Node23 -->
<g id="edge80" class="edge">
<title>Node99&#45;&gt;Node23</title>
<path fill="none" stroke="midnightblue" d="M688.61,-240.81C718.85,-224.31 787.94,-188.3 850,-168 926.3,-143.05 950.34,-155.84 1027,-132 1048.68,-125.26 1051.86,-117 1074,-112 1176.6,-88.82 1934.52,-71.43 2107.79,-67.73"/>
<polygon fill="midnightblue" stroke="midnightblue" points="2107.97,-71.23 2117.89,-67.52 2107.82,-64.23 2107.97,-71.23"/>
</g>
<!-- Node99&#45;&gt;Node17 -->
<g id="edge82" class="edge">
<title>Node99&#45;&gt;Node17</title>
<path fill="none" stroke="midnightblue" d="M721.54,-248.46C1036.03,-241.68 2772.65,-204.06 2785,-199 2803.62,-191.37 2800.88,-178.57 2818,-168 2898.13,-118.53 3006.21,-87.79 3059.89,-74.56"/>
<polygon fill="midnightblue" stroke="midnightblue" points="3060.97,-77.9 3069.87,-72.15 3059.33,-71.09 3060.97,-77.9"/>
</g>
<!-- Node99&#45;&gt;Node16 -->
<g id="edge81" class="edge">
<title>Node99&#45;&gt;Node16</title>
<path fill="none" stroke="midnightblue" d="M679.25,-240.98C690.08,-225.08 709.66,-190.47 693,-168 686.08,-158.66 620.76,-141.35 579.25,-131.14"/>
<polygon fill="midnightblue" stroke="midnightblue" points="580.05,-127.74 569.51,-128.77 578.4,-134.54 580.05,-127.74"/>
</g>
<!-- Node99&#45;&gt;Node37 -->
<g id="edge83" class="edge">
<title>Node99&#45;&gt;Node37</title>
<path fill="none" stroke="midnightblue" d="M721.74,-247.47C841.3,-242.22 1158.55,-226.63 1422,-199 1609.4,-179.35 1832.17,-143.52 1918.4,-129.18"/>
<polygon fill="midnightblue" stroke="midnightblue" points="1919.18,-132.6 1928.47,-127.5 1918.03,-125.69 1919.18,-132.6"/>
</g>
<!-- Node99&#45;&gt;Node50 -->
<g id="edge76" class="edge">
<title>Node99&#45;&gt;Node50</title>
<path fill="none" stroke="midnightblue" d="M667.2,-240.73C660.62,-230.79 649.74,-214.34 641.44,-201.79"/>
<polygon fill="midnightblue" stroke="midnightblue" points="644.14,-199.54 635.71,-193.13 638.31,-203.4 644.14,-199.54"/>
</g>
<!-- Node99&#45;&gt;Node96 -->
<g id="edge78" class="edge">
<title>Node99&#45;&gt;Node96</title>
<path fill="none" stroke="midnightblue" d="M625.43,-240.94C559.47,-229.06 440.34,-207.61 369.48,-194.85"/>
<polygon fill="midnightblue" stroke="midnightblue" points="369.85,-191.36 359.38,-193.03 368.61,-198.25 369.85,-191.36"/>
</g>
<!-- Node133&#45;&gt;Node23 -->
<g id="edge108" class="edge">
<title>Node133&#45;&gt;Node23</title>
<path fill="none" stroke="midnightblue" d="M1990.2,-381.89C2036.8,-377.17 2093.83,-364.57 2135,-333 2195.14,-286.89 2191.07,-242.65 2178,-168 2175.07,-151.24 2170.62,-148.06 2165,-132 2159.53,-116.36 2153.51,-98.53 2149.15,-85.51"/>
<polygon fill="midnightblue" stroke="midnightblue" points="2152.42,-84.23 2145.93,-75.85 2145.78,-86.44 2152.42,-84.23"/>
</g>
<!-- Node133&#45;&gt;Node46 -->
<g id="edge95" class="edge">
<title>Node133&#45;&gt;Node46</title>
<path fill="none" stroke="midnightblue" d="M1825.72,-380.75C1719.57,-376.07 1529.58,-363.84 1370,-333 1267.14,-313.12 1208.71,-348.39 1144,-266 1130.09,-248.29 1131.91,-221.14 1135.3,-203.11"/>
<polygon fill="midnightblue" stroke="midnightblue" points="1138.74,-203.74 1137.47,-193.22 1131.9,-202.24 1138.74,-203.74"/>
</g>
<!-- Node134 -->
<g id="node33" class="node">
<title>Node134</title>
<g id="a_node33"><a xlink:href="Register_8h.html" target="_top" xlink:title=" ">
<polygon fill="none" stroke="red" points="2388,-241 2388,-260 2514,-260 2514,-241 2388,-241"/>
<text text-anchor="middle" x="2451" y="-248" font-family="Helvetica" font-size="10.00">llvm/CodeGen/Register.h</text>
</a>
</g>
</g>
<!-- Node133&#45;&gt;Node134 -->
<g id="edge96" class="edge">
<title>Node133&#45;&gt;Node134</title>
<path fill="none" stroke="midnightblue" d="M1990.12,-377.1C2060.55,-370.27 2164.23,-357.03 2252,-333 2316.29,-315.4 2387.7,-282.71 2425.03,-264.53"/>
<polygon fill="midnightblue" stroke="midnightblue" points="2426.76,-267.58 2434.19,-260.03 2423.67,-261.3 2426.76,-267.58"/>
</g>
<!-- Node136 -->
<g id="node34" class="node">
<title>Node136</title>
<g id="a_node34"><a xlink:href="Intrinsics_8h.html" target="_top" xlink:title=" ">
<polygon fill="none" stroke="red" points="1379.5,-308 1379.5,-327 1478.5,-327 1478.5,-308 1379.5,-308"/>
<text text-anchor="middle" x="1429" y="-315" font-family="Helvetica" font-size="10.00">llvm/IR/Intrinsics.h</text>
</a>
</g>
</g>
<!-- Node133&#45;&gt;Node136 -->
<g id="edge98" class="edge">
<title>Node133&#45;&gt;Node136</title>
<path fill="none" stroke="midnightblue" d="M1825.75,-375.98C1741.76,-367.72 1607.77,-352.93 1493,-333 1486.74,-331.91 1480.17,-330.61 1473.72,-329.24"/>
<polygon fill="midnightblue" stroke="midnightblue" points="1474.27,-325.78 1463.75,-327.05 1472.76,-332.61 1474.27,-325.78"/>
</g>
<!-- Node5 -->
<g id="node35" class="node">
<title>Node5</title>
<g id="a_node35"><a xlink:href="llvm_2Support_2DataTypes_8h.html" target="_top" xlink:title=" ">
<polygon fill="none" stroke="red" points="2002,-174 2002,-193 2132,-193 2132,-174 2002,-174"/>
<text text-anchor="middle" x="2067" y="-181" font-family="Helvetica" font-size="10.00">llvm/Support/DataTypes.h</text>
</a>
</g>
</g>
<!-- Node133&#45;&gt;Node5 -->
<g id="edge100" class="edge">
<title>Node133&#45;&gt;Node5</title>
<path fill="none" stroke="midnightblue" d="M1908.28,-374.95C1909.53,-350.17 1916.4,-277.41 1954,-235 1970.83,-216.02 1996.16,-203.81 2018.58,-196.16"/>
<polygon fill="midnightblue" stroke="midnightblue" points="2019.84,-199.43 2028.3,-193.05 2017.71,-192.76 2019.84,-199.43"/>
</g>
<!-- Node138 -->
<g id="node36" class="node">
<title>Node138</title>
<g id="a_node36"><a xlink:href="LowLevelTypeImpl_8h.html" target="_top" xlink:title=" ">
<polygon fill="none" stroke="red" points="2232.5,-235.5 2232.5,-265.5 2369.5,-265.5 2369.5,-235.5 2232.5,-235.5"/>
<text text-anchor="start" x="2240.5" y="-253.5" font-family="Helvetica" font-size="10.00">llvm/Support/LowLevelType</text>
<text text-anchor="middle" x="2301" y="-242.5" font-family="Helvetica" font-size="10.00">Impl.h</text>
</a>
</g>
</g>
<!-- Node133&#45;&gt;Node138 -->
<g id="edge101" class="edge">
<title>Node133&#45;&gt;Node138</title>
<path fill="none" stroke="midnightblue" d="M1990.03,-375.8C2068.07,-367.46 2179.15,-352.68 2218,-333 2245.5,-319.07 2269.71,-292.78 2284.78,-273.82"/>
<polygon fill="midnightblue" stroke="midnightblue" points="2287.71,-275.75 2291.04,-265.7 2282.16,-271.48 2287.71,-275.75"/>
</g>
<!-- Node134&#45;&gt;Node23 -->
<g id="edge97" class="edge">
<title>Node134&#45;&gt;Node23</title>
<path fill="none" stroke="midnightblue" d="M2429.43,-240.98C2406.04,-231.51 2367.78,-215.4 2336,-199 2284.46,-172.4 2271.62,-165.12 2224,-132 2201.52,-116.36 2177.2,-96.4 2161.14,-82.75"/>
<polygon fill="midnightblue" stroke="midnightblue" points="2163,-79.74 2153.13,-75.89 2158.45,-85.05 2163,-79.74"/>
</g>
<!-- Node136&#45;&gt;Node3 -->
<g id="edge99" class="edge">
<title>Node136&#45;&gt;Node3</title>
<path fill="none" stroke="midnightblue" d="M1429,-307.73C1429,-298.18 1429,-282.62 1429,-270.28"/>
<polygon fill="midnightblue" stroke="midnightblue" points="1432.5,-270.13 1429,-260.13 1425.5,-270.13 1432.5,-270.13"/>
</g>
<!-- Node138&#45;&gt;Node23 -->
<g id="edge107" class="edge">
<title>Node138&#45;&gt;Node23</title>
<path fill="none" stroke="midnightblue" d="M2294.84,-235.34C2286.65,-217.8 2270.77,-187.82 2250,-168 2226.39,-145.47 2209.89,-154.23 2186,-132 2171.33,-118.35 2159.25,-98.75 2151.66,-84.64"/>
<polygon fill="midnightblue" stroke="midnightblue" points="2154.65,-82.8 2146.97,-75.51 2148.43,-86 2154.65,-82.8"/>
</g>
<!-- Node140 -->
<g id="node37" class="node">
<title>Node140</title>
<g id="a_node37"><a xlink:href="MachineValueType_8h.html" target="_top" xlink:title=" ">
<polygon fill="none" stroke="red" points="2378,-168.5 2378,-198.5 2514,-198.5 2514,-168.5 2378,-168.5"/>
<text text-anchor="start" x="2386" y="-186.5" font-family="Helvetica" font-size="10.00">llvm/Support/MachineValue</text>
<text text-anchor="middle" x="2446" y="-175.5" font-family="Helvetica" font-size="10.00">Type.h</text>
</a>
</g>
</g>
<!-- Node138&#45;&gt;Node140 -->
<g id="edge102" class="edge">
<title>Node138&#45;&gt;Node140</title>
<path fill="none" stroke="midnightblue" d="M2332.46,-235.4C2353.84,-225.81 2382.31,-213.05 2405.4,-202.7"/>
<polygon fill="midnightblue" stroke="midnightblue" points="2406.91,-205.86 2414.6,-198.58 2404.04,-199.47 2406.91,-205.86"/>
</g>
<!-- Node140&#45;&gt;Node28 -->
<g id="edge103" class="edge">
<title>Node140&#45;&gt;Node28</title>
<path fill="none" stroke="midnightblue" d="M2377.88,-178.77C2316.08,-175.5 2222.46,-170.84 2141,-168 1416.82,-142.79 1235.38,-150.83 511,-132 433.81,-129.99 345.49,-127.31 284.58,-125.39"/>
<polygon fill="midnightblue" stroke="midnightblue" points="284.4,-121.88 274.29,-125.07 284.18,-128.88 284.4,-121.88"/>
</g>
<!-- Node140&#45;&gt;Node10 -->
<g id="edge104" class="edge">
<title>Node140&#45;&gt;Node10</title>
<path fill="none" stroke="midnightblue" d="M2514.13,-171.89C2567.34,-163 2642.91,-149.04 2708,-132 2766.31,-116.73 2832.56,-93.32 2870.89,-79.15"/>
<polygon fill="midnightblue" stroke="midnightblue" points="2872.32,-82.35 2880.48,-75.59 2869.88,-75.79 2872.32,-82.35"/>
</g>
<!-- Node140&#45;&gt;Node29 -->
<g id="edge105" class="edge">
<title>Node140&#45;&gt;Node29</title>
<path fill="none" stroke="midnightblue" d="M2428.23,-168.4C2416.65,-159.22 2401.58,-147.26 2389.8,-137.92"/>
<polygon fill="midnightblue" stroke="midnightblue" points="2391.92,-135.13 2381.91,-131.66 2387.57,-140.61 2391.92,-135.13"/>
</g>
<!-- Node140&#45;&gt;Node23 -->
<g id="edge106" class="edge">
<title>Node140&#45;&gt;Node23</title>
<path fill="none" stroke="midnightblue" d="M2399.59,-168.47C2369.47,-159 2329.54,-145.76 2295,-132 2275.42,-124.2 2271.3,-120.47 2252,-112 2225.82,-100.52 2195.78,-88.17 2173.87,-79.32"/>
<polygon fill="midnightblue" stroke="midnightblue" points="2175,-76.01 2164.42,-75.52 2172.39,-82.5 2175,-76.01"/>
</g>
<!-- Node141&#45;&gt;Node3 -->
<g id="edge110" class="edge">
<title>Node141&#45;&gt;Node3</title>
<path fill="none" stroke="midnightblue" d="M2754.07,-450.46C2471.65,-449.52 1461.09,-438.76 1370,-333 1350.81,-310.72 1382.37,-282.5 1406.23,-265.79"/>
<polygon fill="midnightblue" stroke="midnightblue" points="1408.22,-268.67 1414.56,-260.19 1404.31,-262.86 1408.22,-268.67"/>
</g>
<!-- Node141&#45;&gt;Node27 -->
<g id="edge111" class="edge">
<title>Node141&#45;&gt;Node27</title>
<path fill="none" stroke="midnightblue" d="M2754.36,-450.43C2487.6,-449.8 1571.02,-444.41 1448,-400 1402.1,-383.43 1383.72,-376.19 1361,-333 1338.93,-291.04 1344.41,-232.87 1349.27,-203.34"/>
<polygon fill="midnightblue" stroke="midnightblue" points="1352.76,-203.66 1351.1,-193.19 1345.88,-202.41 1352.76,-203.66"/>
</g>
<!-- Node141&#45;&gt;Node28 -->
<g id="edge113" class="edge">
<title>Node141&#45;&gt;Node28</title>
<path fill="none" stroke="midnightblue" d="M2754.35,-450.57C2322.27,-450.79 107.62,-449.51 59,-400 -22.05,-317.46 133.41,-182.58 190.3,-137.9"/>
<polygon fill="midnightblue" stroke="midnightblue" points="192.77,-140.41 198.53,-131.52 188.48,-134.88 192.77,-140.41"/>
</g>
<!-- Node141&#45;&gt;Node10 -->
<g id="edge144" class="edge">
<title>Node141&#45;&gt;Node10</title>
<path fill="none" stroke="midnightblue" d="M2899.87,-447.86C3016.81,-442.8 3240.66,-429.51 3314,-400 3358.95,-381.91 3377.12,-375.71 3400,-333 3420.59,-294.55 3424.03,-274.24 3405,-235 3384.01,-191.72 3363.26,-189.03 3320,-168 3210.78,-114.89 3071.53,-88.46 2984.81,-76.27"/>
<polygon fill="midnightblue" stroke="midnightblue" points="2985.15,-72.79 2974.76,-74.89 2984.19,-79.72 2985.15,-72.79"/>
</g>
<!-- Node141&#45;&gt;Node29 -->
<g id="edge146" class="edge">
<title>Node141&#45;&gt;Node29</title>
<path fill="none" stroke="midnightblue" d="M2833.91,-436.31C2838.35,-426.4 2843.69,-412.72 2846,-400 2859.45,-326.06 2868.29,-281.19 2809,-235 2736.02,-178.15 2693.16,-223.65 2604,-199 2566.85,-188.73 2559.51,-180.37 2523,-168 2485.88,-155.42 2443.03,-142.91 2412.3,-134.29"/>
<polygon fill="midnightblue" stroke="midnightblue" points="2412.94,-130.84 2402.37,-131.52 2411.06,-137.58 2412.94,-130.84"/>
</g>
<!-- Node141&#45;&gt;Node23 -->
<g id="edge148" class="edge">
<title>Node141&#45;&gt;Node23</title>
<path fill="none" stroke="midnightblue" d="M2811.89,-436.44C2769.7,-397.98 2645.69,-290.26 2523,-235 2458.91,-206.14 2433.7,-226.47 2369,-199 2345.62,-189.07 2342.95,-180.78 2321,-168 2291.11,-150.6 2281.48,-150.1 2252,-132 2238.97,-124 2236.93,-120.17 2224,-112 2205.93,-100.58 2184.79,-88.88 2168.63,-80.28"/>
<polygon fill="midnightblue" stroke="midnightblue" points="2170.24,-77.17 2159.76,-75.6 2166.97,-83.36 2170.24,-77.17"/>
</g>
<!-- Node141&#45;&gt;Node17 -->
<g id="edge149" class="edge">
<title>Node141&#45;&gt;Node17</title>
<path fill="none" stroke="midnightblue" d="M2899.5,-446.2C3097.38,-433.5 3632,-392.37 3632,-318.5 3632,-318.5 3632,-318.5 3632,-182.5 3632,-78.56 3243.94,-67.85 3126.36,-66.99"/>
<polygon fill="midnightblue" stroke="midnightblue" points="3126.18,-63.49 3116.16,-66.94 3126.14,-70.49 3126.18,-63.49"/>
</g>
<!-- Node141&#45;&gt;Node50 -->
<g id="edge112" class="edge">
<title>Node141&#45;&gt;Node50</title>
<path fill="none" stroke="midnightblue" d="M2754.25,-449.87C2359.22,-446.06 486.59,-423.31 407,-333 348.38,-266.49 500.66,-216.7 582.29,-195.6"/>
<polygon fill="midnightblue" stroke="midnightblue" points="583.52,-198.9 592.36,-193.05 581.81,-192.11 583.52,-198.9"/>
</g>
<!-- Node141&#45;&gt;Node96 -->
<g id="edge134" class="edge">
<title>Node141&#45;&gt;Node96</title>
<path fill="none" stroke="midnightblue" d="M2754.34,-450.52C2389.66,-450.39 767.58,-447.17 548,-400 473.43,-383.98 446.11,-384.66 390,-333 349.93,-296.11 326.78,-233.86 317.21,-202.99"/>
<polygon fill="midnightblue" stroke="midnightblue" points="320.49,-201.74 314.29,-193.15 313.78,-203.73 320.49,-201.74"/>
</g>
<!-- Node141&#45;&gt;Node140 -->
<g id="edge145" class="edge">
<title>Node141&#45;&gt;Node140</title>
<path fill="none" stroke="midnightblue" d="M2829.09,-436.38C2833.93,-397.79 2841.46,-289.73 2784,-235 2774.64,-226.08 2621.29,-205.89 2524.39,-193.92"/>
<polygon fill="midnightblue" stroke="midnightblue" points="2524.68,-190.43 2514.33,-192.68 2523.82,-197.37 2524.68,-190.43"/>
</g>
<!-- Node142 -->
<g id="node39" class="node">
<title>Node142</title>
<g id="a_node39"><a xlink:href="MachineBasicBlock_8h.html" target="_top" xlink:title=" ">
<polygon fill="none" stroke="red" points="2976.5,-369.5 2976.5,-399.5 3119.5,-399.5 3119.5,-369.5 2976.5,-369.5"/>
<text text-anchor="start" x="2984.5" y="-387.5" font-family="Helvetica" font-size="10.00">llvm/CodeGen/MachineBasic</text>
<text text-anchor="middle" x="3048" y="-376.5" font-family="Helvetica" font-size="10.00">Block.h</text>
</a>
</g>
</g>
<!-- Node141&#45;&gt;Node142 -->
<g id="edge114" class="edge">
<title>Node141&#45;&gt;Node142</title>
<path fill="none" stroke="midnightblue" d="M2874.68,-436.48C2908.55,-426.51 2954.21,-413.09 2990.16,-402.51"/>
<polygon fill="midnightblue" stroke="midnightblue" points="2991.42,-405.79 3000.02,-399.61 2989.44,-399.07 2991.42,-405.79"/>
</g>
<!-- Node159 -->
<g id="node40" class="node">
<title>Node159</title>
<g id="a_node40"><a xlink:href="LaneBitmask_8h.html" target="_top" xlink:title="A common definition of LaneBitmask for use in TableGen and CodeGen.">
<polygon fill="none" stroke="red" points="3216,-308 3216,-327 3338,-327 3338,-308 3216,-308"/>
<text text-anchor="middle" x="3277" y="-315" font-family="Helvetica" font-size="10.00">llvm/MC/LaneBitmask.h</text>
</a>
</g>
</g>
<!-- Node141&#45;&gt;Node159 -->
<g id="edge135" class="edge">
<title>Node141&#45;&gt;Node159</title>
<path fill="none" stroke="midnightblue" d="M2899.78,-445.25C2962.04,-439.15 3053.31,-426.31 3129,-400 3177.29,-383.21 3228.43,-351.51 3256.15,-332.98"/>
<polygon fill="midnightblue" stroke="midnightblue" points="3258.31,-335.75 3264.62,-327.24 3254.38,-329.95 3258.31,-335.75"/>
</g>
<!-- Node162 -->
<g id="node41" class="node">
<title>Node162</title>
<g id="a_node41"><a xlink:href="Printable_8h.html" target="_top" xlink:title=" ">
<polygon fill="none" stroke="black" points="3254,-241 3254,-260 3376,-260 3376,-241 3254,-241"/>
<text text-anchor="middle" x="3315" y="-248" font-family="Helvetica" font-size="10.00">llvm/Support/Printable.h</text>
</a>
</g>
</g>
<!-- Node141&#45;&gt;Node162 -->
<g id="edge147" class="edge">
<title>Node141&#45;&gt;Node162</title>
<path fill="none" stroke="midnightblue" d="M2899.63,-445.84C3030.51,-435.68 3297.02,-406.26 3347,-333 3360.86,-312.68 3344.42,-285.49 3330.44,-268.23"/>
<polygon fill="midnightblue" stroke="midnightblue" points="3332.71,-265.5 3323.53,-260.2 3327.4,-270.06 3332.71,-265.5"/>
</g>
<!-- Node43 -->
<g id="node42" class="node">
<title>Node43</title>
<g id="a_node42"><a xlink:title=" ">
<polygon fill="none" stroke="#bfbfbf" points="3251.5,-174 3251.5,-193 3310.5,-193 3310.5,-174 3251.5,-174"/>
<text text-anchor="middle" x="3281" y="-181" font-family="Helvetica" font-size="10.00">functional</text>
</a>
</g>
</g>
<!-- Node141&#45;&gt;Node43 -->
<g id="edge150" class="edge">
<title>Node141&#45;&gt;Node43</title>
<path fill="none" stroke="midnightblue" d="M2899.55,-446.62C3007.13,-440.13 3203.29,-425.22 3269,-400 3352.69,-367.88 3432.57,-310.98 3385,-235 3370.9,-212.47 3343.56,-199.74 3320.45,-192.7"/>
<polygon fill="midnightblue" stroke="midnightblue" points="3321.1,-189.24 3310.53,-189.93 3319.22,-195.99 3321.1,-189.24"/>
</g>
<!-- Node158 -->
<g id="node44" class="node">
<title>Node158</title>
<g id="a_node44"><a xlink:href="MCRegisterInfo_8h.html" target="_top" xlink:title=" ">
<polygon fill="none" stroke="red" points="2268.5,-375 2268.5,-394 2401.5,-394 2401.5,-375 2268.5,-375"/>
<text text-anchor="middle" x="2335" y="-382" font-family="Helvetica" font-size="10.00">llvm/MC/MCRegisterInfo.h</text>
</a>
</g>
</g>
<!-- Node141&#45;&gt;Node158 -->
<g id="edge136" class="edge">
<title>Node141&#45;&gt;Node158</title>
<path fill="none" stroke="midnightblue" d="M2754.4,-440.91C2661.95,-428.69 2502.99,-407.69 2409.59,-395.35"/>
<polygon fill="midnightblue" stroke="midnightblue" points="2410.02,-391.88 2399.65,-394.04 2409.1,-398.82 2410.02,-391.88"/>
</g>
<!-- Node142&#45;&gt;Node28 -->
<g id="edge115" class="edge">
<title>Node142&#45;&gt;Node28</title>
<path fill="none" stroke="midnightblue" d="M2976.35,-381.87C2858.45,-379.18 2616.15,-373.65 2411,-369 1703.45,-352.95 1524.19,-393.04 819,-333 725.43,-325.03 703.13,-314.03 610,-302 537.5,-292.64 347.87,-299.71 283,-266 247.79,-247.7 241.33,-234.69 224,-199 215.23,-180.94 211.93,-158.02 210.7,-142.09"/>
<polygon fill="midnightblue" stroke="midnightblue" points="214.18,-141.69 210.12,-131.9 207.19,-142.09 214.18,-141.69"/>
</g>
<!-- Node142&#45;&gt;Node23 -->
<g id="edge129" class="edge">
<title>Node142&#45;&gt;Node23</title>
<path fill="none" stroke="midnightblue" d="M3033.01,-369.38C3000.27,-339.41 2918.76,-269.37 2837,-235 2755.75,-200.85 2725.04,-228.52 2642,-199 2566.1,-172.01 2559.56,-137.04 2483,-112 2375.74,-76.91 2240.93,-69.12 2178.16,-67.43"/>
<polygon fill="midnightblue" stroke="midnightblue" points="2178.09,-63.93 2168.01,-67.19 2177.93,-70.93 2178.09,-63.93"/>
</g>
<!-- Node142&#45;&gt;Node17 -->
<g id="edge130" class="edge">
<title>Node142&#45;&gt;Node17</title>
<path fill="none" stroke="midnightblue" d="M3119.61,-378.46C3196.12,-371.86 3311.21,-358.07 3347,-333 3375.04,-313.36 3376.27,-299.1 3385,-266 3417.19,-143.98 3209.12,-89.57 3126.11,-72.9"/>
<polygon fill="midnightblue" stroke="midnightblue" points="3126.66,-69.44 3116.18,-70.96 3125.33,-76.31 3126.66,-69.44"/>
</g>
<!-- Node142&#45;&gt;Node36 -->
<g id="edge132" class="edge">
<title>Node142&#45;&gt;Node36</title>
<path fill="none" stroke="midnightblue" d="M2976.45,-377.15C2705.77,-353.1 1759.6,-268.85 1757,-266 1747.71,-255.83 1752.39,-247.98 1757,-235 1771.35,-194.6 1807.18,-158.16 1829.36,-138.44"/>
<polygon fill="midnightblue" stroke="midnightblue" points="1831.84,-140.92 1837.12,-131.73 1827.27,-135.63 1831.84,-140.92"/>
</g>
<!-- Node142&#45;&gt;Node45 -->
<g id="edge133" class="edge">
<title>Node142&#45;&gt;Node45</title>
<path fill="none" stroke="midnightblue" d="M3048.88,-369.15C3050.36,-342.63 3052.91,-284.16 3050,-235 3049.37,-224.36 3048,-212.52 3046.73,-202.98"/>
<polygon fill="midnightblue" stroke="midnightblue" points="3050.19,-202.46 3045.33,-193.05 3043.26,-203.44 3050.19,-202.46"/>
</g>
<!-- Node142&#45;&gt;Node159 -->
<g id="edge116" class="edge">
<title>Node142&#45;&gt;Node159</title>
<path fill="none" stroke="midnightblue" d="M3097.41,-369.48C3139.17,-357.62 3198.23,-340.86 3237.06,-329.84"/>
<polygon fill="midnightblue" stroke="midnightblue" points="3238.29,-333.13 3246.95,-327.03 3236.38,-326.39 3238.29,-333.13"/>
</g>
<!-- Node142&#45;&gt;Node43 -->
<g id="edge131" class="edge">
<title>Node142&#45;&gt;Node43</title>
<path fill="none" stroke="midnightblue" d="M3094.04,-369.41C3116.56,-361.1 3143.22,-349.03 3164,-333 3177,-322.97 3241.13,-237.94 3268.54,-201.24"/>
<polygon fill="midnightblue" stroke="midnightblue" points="3271.49,-203.14 3274.66,-193.03 3265.88,-198.96 3271.49,-203.14"/>
</g>
<!-- Node159&#45;&gt;Node11 -->
<g id="edge117" class="edge">
<title>Node159&#45;&gt;Node11</title>
<path fill="none" stroke="midnightblue" d="M3338.13,-309.64C3409.52,-297.84 3518,-266.43 3518,-184.5 3518,-184.5 3518,-184.5 3518,-121 3518,-19.4 1896.06,-11.5 1533.36,-11.01"/>
<polygon fill="midnightblue" stroke="midnightblue" points="1533.26,-7.51 1523.25,-11 1533.25,-14.51 1533.26,-7.51"/>
</g>
<!-- Node159&#45;&gt;Node162 -->
<g id="edge118" class="edge">
<title>Node159&#45;&gt;Node162</title>
<path fill="none" stroke="midnightblue" d="M3282.12,-307.73C3287.94,-297.79 3297.56,-281.34 3304.89,-268.79"/>
<polygon fill="midnightblue" stroke="midnightblue" points="3307.93,-270.53 3309.96,-260.13 3301.89,-266.99 3307.93,-270.53"/>
</g>
<!-- Node159&#45;&gt;Node107 -->
<g id="edge120" class="edge">
<title>Node159&#45;&gt;Node107</title>
<path fill="none" stroke="midnightblue" d="M3215.9,-315.99C3027.58,-314.04 2439.44,-305.02 1954,-266 1938.81,-264.78 1922.57,-263.06 1907.14,-261.22"/>
<polygon fill="midnightblue" stroke="midnightblue" points="1907.49,-257.74 1897.14,-260.01 1906.65,-264.69 1907.49,-257.74"/>
</g>
<!-- Node162&#45;&gt;Node43 -->
<g id="edge119" class="edge">
<title>Node162&#45;&gt;Node43</title>
<path fill="none" stroke="midnightblue" d="M3310.41,-240.73C3305.27,-230.89 3296.78,-214.66 3290.24,-202.16"/>
<polygon fill="midnightblue" stroke="midnightblue" points="3293.25,-200.37 3285.51,-193.13 3287.05,-203.61 3293.25,-200.37"/>
</g>
<!-- Node107&#45;&gt;Node27 -->
<g id="edge121" class="edge">
<title>Node107&#45;&gt;Node27</title>
<path fill="none" stroke="midnightblue" d="M1772.36,-240.94C1682.15,-228.8 1517.63,-206.66 1423.71,-194.02"/>
<polygon fill="midnightblue" stroke="midnightblue" points="1424.11,-190.54 1413.73,-192.67 1423.18,-197.48 1424.11,-190.54"/>
</g>
<!-- Node107&#45;&gt;Node23 -->
<g id="edge124" class="edge">
<title>Node107&#45;&gt;Node23</title>
<path fill="none" stroke="midnightblue" d="M1848.99,-240.84C1879.6,-220.45 1954.14,-170.9 1960,-168 2003.07,-146.64 2019.99,-155.37 2062,-132 2086.46,-118.39 2111.04,-97.38 2126.6,-82.95"/>
<polygon fill="midnightblue" stroke="midnightblue" points="2129.41,-85.12 2134.26,-75.7 2124.59,-80.04 2129.41,-85.12"/>
</g>
<!-- Node107&#45;&gt;Node17 -->
<g id="edge126" class="edge">
<title>Node107&#45;&gt;Node17</title>
<path fill="none" stroke="midnightblue" d="M1897.45,-241C1915.63,-238.74 1935.59,-236.51 1954,-235 2145.52,-219.27 2630.62,-241.62 2818,-199 2854.79,-190.63 2940.07,-148.51 2974,-132 3007.82,-115.54 3045.79,-94.31 3069.54,-80.67"/>
<polygon fill="midnightblue" stroke="midnightblue" points="3071.3,-83.7 3078.21,-75.67 3067.8,-77.63 3071.3,-83.7"/>
</g>
<!-- Node107&#45;&gt;Node24 -->
<g id="edge127" class="edge">
<title>Node107&#45;&gt;Node24</title>
<path fill="none" stroke="midnightblue" d="M1858.96,-240.96C1882.47,-231.84 1919.77,-216.34 1950,-199 1970.44,-187.28 1970.87,-176.09 1993,-168 2091.8,-131.89 2393.5,-209.16 2465,-132 2477.28,-118.75 2467.5,-98.24 2457.57,-83.81"/>
<polygon fill="midnightblue" stroke="midnightblue" points="2460.34,-81.67 2451.57,-75.73 2454.73,-85.85 2460.34,-81.67"/>
</g>
<!-- Node107&#45;&gt;Node18 -->
<g id="edge128" class="edge">
<title>Node107&#45;&gt;Node18</title>
<path fill="none" stroke="midnightblue" d="M1842.22,-240.83C1854.18,-224.69 1881.85,-189.7 1912,-168 1946.93,-142.86 2020.5,-143.34 1991,-112 1978.88,-99.12 1443.9,-75.35 1289.38,-68.74"/>
<polygon fill="midnightblue" stroke="midnightblue" points="1289.48,-65.25 1279.34,-68.32 1289.19,-72.24 1289.48,-65.25"/>
</g>
<!-- Node107&#45;&gt;Node16 -->
<g id="edge125" class="edge">
<title>Node107&#45;&gt;Node16</title>
<path fill="none" stroke="midnightblue" d="M1765.75,-246.18C1584.43,-237.45 1109.95,-213.52 1040,-199 1000.22,-190.74 993.59,-177.14 954,-168 809.39,-134.6 769.49,-148.62 622,-132 608.18,-130.44 592.96,-128.68 579.73,-127.12"/>
<polygon fill="midnightblue" stroke="midnightblue" points="579.96,-123.62 569.62,-125.93 579.14,-130.58 579.96,-123.62"/>
</g>
<!-- Node107&#45;&gt;Node50 -->
<g id="edge122" class="edge">
<title>Node107&#45;&gt;Node50</title>
<path fill="none" stroke="midnightblue" d="M1765.95,-245.72C1550.77,-234.13 901.48,-199.13 694.29,-187.96"/>
<polygon fill="midnightblue" stroke="midnightblue" points="694.35,-184.46 684.17,-187.42 693.97,-191.45 694.35,-184.46"/>
</g>
<!-- Node107&#45;&gt;Node5 -->
<g id="edge123" class="edge">
<title>Node107&#45;&gt;Node5</title>
<path fill="none" stroke="midnightblue" d="M1866.68,-240.87C1907.86,-229.28 1981.13,-208.66 2026.72,-195.83"/>
<polygon fill="midnightblue" stroke="midnightblue" points="2027.89,-199.14 2036.57,-193.06 2025.99,-192.4 2027.89,-199.14"/>
</g>
<!-- Node158&#45;&gt;Node28 -->
<g id="edge138" class="edge">
<title>Node158&#45;&gt;Node28</title>
<path fill="none" stroke="midnightblue" d="M2268.39,-380.29C2200.61,-377.1 2092.51,-372.24 1999,-369 1845.82,-363.7 766.44,-378.26 620,-333 595.74,-325.5 595.97,-310.39 572,-302 496.54,-275.57 280.99,-309.65 214,-266 174.86,-240.49 161.15,-212.29 176,-168 179.6,-157.25 186.9,-147.02 193.82,-139.04"/>
<polygon fill="midnightblue" stroke="midnightblue" points="196.48,-141.32 200.71,-131.61 191.35,-136.56 196.48,-141.32"/>
</g>
<!-- Node158&#45;&gt;Node21 -->
<g id="edge143" class="edge">
<title>Node158&#45;&gt;Node21</title>
<path fill="none" stroke="midnightblue" d="M2268.39,-380.27C2200.61,-377.07 2092.51,-372.2 1999,-369 1919.74,-366.29 645.36,-363.13 572,-333 553.39,-325.36 557.32,-310.33 539,-302 465.41,-268.55 239.35,-317.45 177,-266 122.46,-220.99 91,-165.71 137,-112 170.01,-73.46 327.64,-67.67 395.18,-66.98"/>
<polygon fill="midnightblue" stroke="midnightblue" points="395.6,-70.48 405.58,-66.91 395.56,-63.48 395.6,-70.48"/>
</g>
<!-- Node158&#45;&gt;Node23 -->
<g id="edge140" class="edge">
<title>Node158&#45;&gt;Node23</title>
<path fill="none" stroke="midnightblue" d="M2364.89,-374.96C2408.79,-360.63 2489.13,-327.1 2523,-266 2544.11,-227.9 2542.64,-206.87 2523,-168 2504.08,-130.55 2485.79,-127.99 2447,-112 2355.29,-74.2 2236.44,-67.57 2178.25,-66.77"/>
<polygon fill="midnightblue" stroke="midnightblue" points="2178.14,-63.27 2168.11,-66.68 2178.08,-70.27 2178.14,-63.27"/>
</g>
<!-- Node158&#45;&gt;Node17 -->
<g id="edge141" class="edge">
<title>Node158&#45;&gt;Node17</title>
<path fill="none" stroke="midnightblue" d="M2401.54,-384.19C2555.92,-384.92 2934.07,-381.54 3050,-333 3091.54,-315.61 3107.47,-307.04 3126,-266 3154.17,-203.62 3147.29,-177.05 3126,-112 3122.51,-101.34 3115.43,-91.12 3108.71,-83.12"/>
<polygon fill="midnightblue" stroke="midnightblue" points="3111.3,-80.76 3102.02,-75.66 3106.1,-85.44 3111.3,-80.76"/>
</g>
<!-- Node158&#45;&gt;Node36 -->
<g id="edge142" class="edge">
<title>Node158&#45;&gt;Node36</title>
<path fill="none" stroke="midnightblue" d="M2268.39,-381.39C2123.86,-375.21 1789.24,-351.76 1724,-266 1685.94,-215.97 1774.02,-160.85 1820.96,-136.19"/>
<polygon fill="midnightblue" stroke="midnightblue" points="1822.73,-139.22 1830.02,-131.54 1819.53,-132.99 1822.73,-139.22"/>
</g>
<!-- Node158&#45;&gt;Node46 -->
<g id="edge137" class="edge">
<title>Node158&#45;&gt;Node46</title>
<path fill="none" stroke="midnightblue" d="M2268.36,-380.43C2080.91,-371.65 1560.42,-346.23 1526,-333 1505.33,-325.06 1507.37,-310.68 1487,-302 1376.84,-255.06 1327.06,-319.63 1220,-266 1190.29,-251.12 1165.2,-220.8 1151.41,-201.63"/>
<polygon fill="midnightblue" stroke="midnightblue" points="1154.15,-199.44 1145.57,-193.23 1148.4,-203.44 1154.15,-199.44"/>
</g>
<!-- Node158&#45;&gt;Node159 -->
<g id="edge139" class="edge">
<title>Node158&#45;&gt;Node159</title>
<path fill="none" stroke="midnightblue" d="M2401.74,-380.95C2542.73,-375.22 2881.21,-359.73 3164,-333 3177.71,-331.7 3192.31,-330.04 3206.32,-328.31"/>
<polygon fill="midnightblue" stroke="midnightblue" points="3206.9,-331.76 3216.39,-327.04 3206.03,-324.82 3206.9,-331.76"/>
</g>
<!-- Node176&#45;&gt;Node3 -->
<g id="edge157" class="edge">
<title>Node176&#45;&gt;Node3</title>
<path fill="none" stroke="midnightblue" d="M1974.27,-310.04C1873.6,-301.23 1690.21,-284.42 1534,-266 1520.4,-264.4 1505.83,-262.5 1492,-260.61"/>
<polygon fill="midnightblue" stroke="midnightblue" points="1492.48,-257.15 1482.09,-259.25 1491.52,-264.08 1492.48,-257.15"/>
</g>
<!-- Node176&#45;&gt;Node27 -->
<g id="edge158" class="edge">
<title>Node176&#45;&gt;Node27</title>
<path fill="none" stroke="midnightblue" d="M1974.35,-306.15C1908.13,-296.76 1809.43,-281.98 1724,-266 1605.84,-243.89 1467.85,-211.95 1398.18,-195.38"/>
<polygon fill="midnightblue" stroke="midnightblue" points="1398.94,-191.97 1388.4,-193.05 1397.32,-198.78 1398.94,-191.97"/>
</g>
<!-- Node176&#45;&gt;Node37 -->
<g id="edge164" class="edge">
<title>Node176&#45;&gt;Node37</title>
<path fill="none" stroke="midnightblue" d="M2097.08,-302.44C2115.44,-294.61 2134.93,-282.93 2147,-266 2172.42,-230.35 2184.39,-202.16 2157,-168 2136.71,-142.69 2044.55,-130.7 1992,-125.83"/>
<polygon fill="midnightblue" stroke="midnightblue" points="1992.01,-122.31 1981.74,-124.92 1991.39,-129.29 1992.01,-122.31"/>
</g>
<!-- Node176&#45;&gt;Node45 -->
<g id="edge165" class="edge">
<title>Node176&#45;&gt;Node45</title>
<path fill="none" stroke="midnightblue" d="M2125.66,-304.97C2134.53,-303.85 2143.45,-302.82 2152,-302 2465.62,-271.8 2553.51,-339.02 2860,-266 2920.89,-251.49 2986.67,-217.38 3020.68,-198.2"/>
<polygon fill="midnightblue" stroke="midnightblue" points="3022.45,-201.22 3029.39,-193.22 3018.97,-195.14 3022.45,-201.22"/>
</g>
<!-- Node176&#45;&gt;Node50 -->
<g id="edge159" class="edge">
<title>Node176&#45;&gt;Node50</title>
<path fill="none" stroke="midnightblue" d="M1974.38,-311.81C1848.33,-303.79 1587.37,-286.32 1367,-266 1117.7,-243.01 821.83,-207.91 694.03,-192.37"/>
<polygon fill="midnightblue" stroke="midnightblue" points="694.37,-188.89 684.02,-191.15 693.53,-195.84 694.37,-188.89"/>
</g>
<!-- Node48 -->
<g id="node46" class="node">
<title>Node48</title>
<g id="a_node46"><a xlink:href="APInt_8h.html" target="_top" xlink:title="This file implements a class to represent arbitrary precision integral constant values and operations...">
<polygon fill="none" stroke="red" points="2684,-174 2684,-193 2776,-193 2776,-174 2684,-174"/>
<text text-anchor="middle" x="2730" y="-181" font-family="Helvetica" font-size="10.00">llvm/ADT/APInt.h</text>
</a>
</g>
</g>
<!-- Node176&#45;&gt;Node48 -->
<g id="edge152" class="edge">
<title>Node176&#45;&gt;Node48</title>
<path fill="none" stroke="midnightblue" d="M2125.7,-305.36C2134.56,-304.17 2143.48,-303.02 2152,-302 2316.49,-282.34 2361.93,-304.72 2523,-266 2590.39,-249.8 2665.03,-216.26 2703.63,-197.65"/>
<polygon fill="midnightblue" stroke="midnightblue" points="2705.63,-200.57 2713.08,-193.05 2702.56,-194.28 2705.63,-200.57"/>
</g>
<!-- Node177 -->
<g id="node47" class="node">
<title>Node177</title>
<g id="a_node47"><a xlink:href="PBQPRAConstraint_8h.html" target="_top" xlink:title=" ">
<polygon fill="none" stroke="black" points="1962.5,-241 1962.5,-260 2137.5,-260 2137.5,-241 1962.5,-241"/>
<text text-anchor="middle" x="2050" y="-248" font-family="Helvetica" font-size="10.00">llvm/CodeGen/PBQPRAConstraint.h</text>
</a>
</g>
</g>
<!-- Node176&#45;&gt;Node177 -->
<g id="edge160" class="edge">
<title>Node176&#45;&gt;Node177</title>
<path fill="none" stroke="midnightblue" d="M2050,-302.4C2050,-293.06 2050,-280.71 2050,-270.52"/>
<polygon fill="midnightblue" stroke="midnightblue" points="2053.5,-270.19 2050,-260.19 2046.5,-270.19 2053.5,-270.19"/>
</g>
<!-- Node48&#45;&gt;Node11 -->
<g id="edge153" class="edge">
<title>Node48&#45;&gt;Node11</title>
<path fill="none" stroke="midnightblue" d="M2739.61,-173.94C2754.26,-159.87 2778.88,-131.48 2763,-112 2685.02,-16.33 2613.49,-71.19 2491,-56 2133.37,-11.65 1701.11,-9.24 1533.36,-10.22"/>
<polygon fill="midnightblue" stroke="midnightblue" points="1533.15,-6.72 1523.17,-10.29 1533.19,-13.72 1533.15,-6.72"/>
</g>
<!-- Node48&#45;&gt;Node29 -->
<g id="edge154" class="edge">
<title>Node48&#45;&gt;Node29</title>
<path fill="none" stroke="midnightblue" d="M2683.8,-174.84C2619.82,-164.24 2504.06,-145.05 2432.72,-133.23"/>
<polygon fill="midnightblue" stroke="midnightblue" points="2432.97,-129.72 2422.53,-131.54 2431.82,-136.63 2432.97,-129.72"/>
</g>
<!-- Node48&#45;&gt;Node23 -->
<g id="edge155" class="edge">
<title>Node48&#45;&gt;Node23</title>
<path fill="none" stroke="midnightblue" d="M2725.51,-173.65C2717.05,-158.04 2697.15,-125.98 2670,-112 2626.45,-89.58 2289.41,-73.27 2178.36,-68.46"/>
<polygon fill="midnightblue" stroke="midnightblue" points="2178.47,-64.96 2168.33,-68.03 2178.17,-71.96 2178.47,-64.96"/>
</g>
<!-- Node48&#45;&gt;Node24 -->
<g id="edge156" class="edge">
<title>Node48&#45;&gt;Node24</title>
<path fill="none" stroke="midnightblue" d="M2736.35,-173.54C2745.89,-158.89 2761.24,-129.68 2746,-112 2711.6,-72.09 2548.51,-67.03 2477.35,-66.76"/>
<polygon fill="midnightblue" stroke="midnightblue" points="2477.15,-63.26 2467.14,-66.75 2477.14,-70.26 2477.15,-63.26"/>
</g>
<!-- Node177&#45;&gt;Node22 -->
<g id="edge161" class="edge">
<title>Node177&#45;&gt;Node22</title>
<path fill="none" stroke="midnightblue" d="M1978.61,-240.97C1958.1,-238.75 1935.69,-236.55 1915,-235 1728.24,-220.99 1254.31,-245.91 1073,-199 1043.17,-191.28 1040.54,-176.76 1011,-168 875.06,-127.68 819.92,-197.18 694,-132 673.09,-121.18 656.16,-99.48 646.11,-84.13"/>
<polygon fill="midnightblue" stroke="midnightblue" points="649.02,-82.19 640.76,-75.56 643.08,-85.89 649.02,-82.19"/>
</g>
<!-- Node177&#45;&gt;Node37 -->
<g id="edge162" class="edge">
<title>Node177&#45;&gt;Node37</title>
<path fill="none" stroke="midnightblue" d="M2082.12,-240.9C2102.89,-233.48 2128.35,-220.49 2141,-199 2147.99,-187.13 2149.52,-178.83 2141,-168 2122.82,-144.89 2040.85,-132.23 1992,-126.61"/>
<polygon fill="midnightblue" stroke="midnightblue" points="1992.15,-123.1 1981.82,-125.48 1991.38,-130.06 1992.15,-123.1"/>
</g>
<!-- Node177&#45;&gt;Node45 -->
<g id="edge163" class="edge">
<title>Node177&#45;&gt;Node45</title>
<path fill="none" stroke="midnightblue" d="M2137.59,-241.69C2165.22,-239.37 2195.87,-236.93 2224,-235 2521.51,-214.62 2596.63,-221.35 2894,-199 2934.96,-195.92 2982.09,-191.17 3012.42,-187.95"/>
<polygon fill="midnightblue" stroke="midnightblue" points="3012.84,-191.42 3022.41,-186.88 3012.1,-184.46 3012.84,-191.42"/>
</g>
<!-- Node209&#45;&gt;Node28 -->
<g id="edge169" class="edge">
<title>Node209&#45;&gt;Node28</title>
<path fill="none" stroke="midnightblue" d="M1044.31,-311.52C1016.25,-308.54 979.57,-304.81 947,-302 834.91,-292.32 539.38,-322.35 442,-266 396.55,-239.7 418.7,-198.57 376,-168 349.28,-148.87 314.85,-137.87 284.29,-131.55"/>
<polygon fill="midnightblue" stroke="midnightblue" points="284.57,-128.04 274.08,-129.58 283.24,-134.91 284.57,-128.04"/>
</g>
<!-- Node209&#45;&gt;Node17 -->
<g id="edge172" class="edge">
<title>Node209&#45;&gt;Node17</title>
<path fill="none" stroke="midnightblue" d="M1135.57,-313.8C1190.97,-310.6 1287.32,-305.29 1370,-302 1514.39,-296.26 2534.56,-316.36 2670,-266 2690.43,-258.4 2688.11,-243.92 2708,-235 2799.99,-193.72 2836.87,-232.42 2932,-199 2988.9,-179.01 3005.93,-173.17 3050,-132 3064.48,-118.47 3076.47,-99.15 3084.07,-85.09"/>
<polygon fill="midnightblue" stroke="midnightblue" points="3087.32,-86.43 3088.81,-75.94 3081.1,-83.21 3087.32,-86.43"/>
</g>
<!-- Node209&#45;&gt;Node16 -->
<g id="edge171" class="edge">
<title>Node209&#45;&gt;Node16</title>
<path fill="none" stroke="midnightblue" d="M1067.59,-307.83C1042.3,-297.97 1000.02,-281.27 964,-266 865.82,-224.38 846.21,-201.58 745,-168 675.41,-144.91 655.5,-148.24 584,-132 582.56,-131.67 581.09,-131.34 579.61,-131"/>
<polygon fill="midnightblue" stroke="midnightblue" points="580.28,-127.56 569.75,-128.74 578.72,-134.39 580.28,-127.56"/>
</g>
<!-- Node209&#45;&gt;Node36 -->
<g id="edge173" class="edge">
<title>Node209&#45;&gt;Node36</title>
<path fill="none" stroke="midnightblue" d="M1115.71,-307.89C1164.34,-291.85 1273.31,-257.02 1367,-235 1456.2,-214.04 1486.71,-237.19 1570,-199 1589.81,-189.92 1588.17,-177.05 1608,-168 1690.13,-130.51 1721.74,-150.84 1814.5,-131.86"/>
<polygon fill="midnightblue" stroke="midnightblue" points="1815.23,-135.28 1824.27,-129.76 1813.76,-128.43 1815.23,-135.28"/>
</g>
<!-- Node209&#45;&gt;Node37 -->
<g id="edge174" class="edge">
<title>Node209&#45;&gt;Node37</title>
<path fill="none" stroke="midnightblue" d="M1135.56,-313.57C1243.66,-305.5 1522.88,-278.03 1741,-199 1771.85,-187.82 1777.35,-179.72 1808,-168 1844.91,-153.89 1888.29,-141.05 1918.31,-132.73"/>
<polygon fill="midnightblue" stroke="midnightblue" points="1919.62,-136 1928.34,-129.98 1917.77,-129.25 1919.62,-136"/>
</g>
<!-- Node209&#45;&gt;Node45 -->
<g id="edge175" class="edge">
<title>Node209&#45;&gt;Node45</title>
<path fill="none" stroke="midnightblue" d="M1135.57,-313.79C1190.97,-310.58 1287.31,-305.25 1370,-302 1667.21,-290.31 2413.73,-309.33 2708,-266 2759.95,-258.35 2770.86,-246.89 2822,-235 2904.02,-215.94 2927.24,-222.84 3008,-199 3010.43,-198.28 3012.93,-197.46 3015.41,-196.59"/>
<polygon fill="midnightblue" stroke="midnightblue" points="3016.7,-199.84 3024.81,-193.02 3014.22,-193.29 3016.7,-199.84"/>
</g>
<!-- Node209&#45;&gt;Node50 -->
<g id="edge168" class="edge">
<title>Node209&#45;&gt;Node50</title>
<path fill="none" stroke="midnightblue" d="M1044.42,-311.64C988.68,-304.93 891.89,-290.75 812,-266 753.61,-247.91 689.18,-216.01 654.83,-197.95"/>
<polygon fill="midnightblue" stroke="midnightblue" points="656.04,-194.63 645.57,-193.03 652.76,-200.81 656.04,-194.63"/>
</g>
<!-- Node209&#45;&gt;Node99 -->
<g id="edge170" class="edge">
<title>Node209&#45;&gt;Node99</title>
<path fill="none" stroke="midnightblue" d="M1044.25,-311.23C976.6,-303.15 846.01,-286.47 736,-266 730.06,-264.9 723.84,-263.61 717.71,-262.28"/>
<polygon fill="midnightblue" stroke="midnightblue" points="718.07,-258.78 707.55,-260.01 716.54,-265.61 718.07,-258.78"/>
</g>
<!-- Node183&#45;&gt;Node3 -->
<g id="edge178" class="edge">
<title>Node183&#45;&gt;Node3</title>
<path fill="none" stroke="midnightblue" d="M1584.23,-307.87C1552.85,-296.47 1497.44,-276.35 1462.01,-263.49"/>
<polygon fill="midnightblue" stroke="midnightblue" points="1463.18,-260.19 1452.58,-260.06 1460.79,-266.77 1463.18,-260.19"/>
</g>
<!-- Node183&#45;&gt;Node27 -->
<g id="edge179" class="edge">
<title>Node183&#45;&gt;Node27</title>
<path fill="none" stroke="midnightblue" d="M1595.1,-307.84C1580.28,-297.86 1555.26,-280.92 1534,-266 1514.71,-252.47 1511.81,-246.04 1491,-235 1459.69,-218.39 1421.71,-204.93 1393.53,-196.1"/>
<polygon fill="midnightblue" stroke="midnightblue" points="1394.21,-192.65 1383.63,-193.06 1392.16,-199.34 1394.21,-192.65"/>
</g>
<!-- Node183&#45;&gt;Node28 -->
<g id="edge181" class="edge">
<title>Node183&#45;&gt;Node28</title>
<path fill="none" stroke="midnightblue" d="M1544.67,-307.97C1526.11,-305.72 1505.77,-303.51 1487,-302 1293.68,-286.45 804.63,-306.69 615,-266 536.81,-249.22 518.47,-236.81 448,-199 426.6,-187.52 425.21,-177.82 403,-168 365.03,-151.22 319.98,-140.26 282.96,-133.36"/>
<polygon fill="midnightblue" stroke="midnightblue" points="283.2,-129.85 272.74,-131.52 281.96,-136.74 283.2,-129.85"/>
</g>
<!-- Node183&#45;&gt;Node10 -->
<g id="edge182" class="edge">
<title>Node183&#45;&gt;Node10</title>
<path fill="none" stroke="midnightblue" d="M1681.16,-313.6C1894.2,-305.02 2504.72,-279.56 2594,-266 2712.83,-247.95 2758.92,-269.87 2856,-199 2884.39,-178.28 2887,-165.38 2898,-132 2902.93,-117.03 2903.98,-99.12 2903.91,-85.9"/>
<polygon fill="midnightblue" stroke="midnightblue" points="2907.4,-85.57 2903.63,-75.67 2900.4,-85.76 2907.4,-85.57"/>
</g>
<!-- Node183&#45;&gt;Node23 -->
<g id="edge184" class="edge">
<title>Node183&#45;&gt;Node23</title>
<path fill="none" stroke="midnightblue" d="M1622.58,-307.98C1649.01,-292.66 1706.75,-259.76 1757,-235 1791.49,-218.01 2030.06,-115.45 2113.93,-79.47"/>
<polygon fill="midnightblue" stroke="midnightblue" points="2115.33,-82.67 2123.14,-75.51 2112.57,-76.24 2115.33,-82.67"/>
</g>
<!-- Node183&#45;&gt;Node18 -->
<g id="edge188" class="edge">
<title>Node183&#45;&gt;Node18</title>
<path fill="none" stroke="midnightblue" d="M1555.46,-307.97C1495.17,-297.74 1400.33,-280.21 1367,-266 1285.98,-231.45 1247.94,-215.86 1221,-132 1215.59,-115.17 1224.91,-96.61 1234.05,-83.65"/>
<polygon fill="midnightblue" stroke="midnightblue" points="1236.86,-85.73 1240.16,-75.66 1231.3,-81.48 1236.86,-85.73"/>
</g>
<!-- Node183&#45;&gt;Node16 -->
<g id="edge185" class="edge">
<title>Node183&#45;&gt;Node16</title>
<path fill="none" stroke="midnightblue" d="M1536.47,-307.95C1441.57,-296.48 1279.13,-276.34 1220,-266 1083.72,-242.16 1050.45,-231.61 916,-199 863.72,-186.32 851.53,-179.59 799,-168 721.18,-150.83 628.82,-135.79 579.74,-128.21"/>
<polygon fill="midnightblue" stroke="midnightblue" points="580.07,-124.72 569.65,-126.67 579.01,-131.64 580.07,-124.72"/>
</g>
<!-- Node183&#45;&gt;Node35 -->
<g id="edge187" class="edge">
<title>Node183&#45;&gt;Node35</title>
<path fill="none" stroke="midnightblue" d="M1605.94,-307.84C1602.73,-292.31 1598.04,-259.08 1610,-235 1635.45,-183.77 1696.84,-151.42 1735.75,-135.32"/>
<polygon fill="midnightblue" stroke="midnightblue" points="1737.14,-138.53 1745.12,-131.57 1734.54,-132.03 1737.14,-138.53"/>
</g>
<!-- Node183&#45;&gt;Node45 -->
<g id="edge189" class="edge">
<title>Node183&#45;&gt;Node45</title>
<path fill="none" stroke="midnightblue" d="M1681.43,-313.52C1943.68,-302.88 2818.65,-267.27 2822,-266 2842.38,-258.26 2840.48,-244.7 2860,-235 2920.62,-204.86 2943.55,-219.7 3008,-199 3010.14,-198.31 3012.33,-197.56 3014.52,-196.77"/>
<polygon fill="midnightblue" stroke="midnightblue" points="3015.91,-199.99 3024.01,-193.15 3013.41,-193.45 3015.91,-199.99"/>
</g>
<!-- Node183&#45;&gt;Node50 -->
<g id="edge180" class="edge">
<title>Node183&#45;&gt;Node50</title>
<path fill="none" stroke="midnightblue" d="M1542.13,-307.99C1524.26,-305.85 1504.9,-303.69 1487,-302 1255.03,-280.13 1194.24,-301.75 964,-266 854.77,-249.04 728.79,-213.97 667.45,-195.86"/>
<polygon fill="midnightblue" stroke="midnightblue" points="668.41,-192.5 657.83,-193 666.42,-199.21 668.41,-192.5"/>
</g>
<!-- Node183&#45;&gt;Node43 -->
<g id="edge186" class="edge">
<title>Node183&#45;&gt;Node43</title>
<path fill="none" stroke="midnightblue" d="M1681.02,-313.54C1753.37,-310.61 1867.33,-306 1966,-302 2361.11,-286 2462.17,-311.28 2855,-266 2998.6,-249.45 3166.39,-211.89 3241.33,-194.14"/>
<polygon fill="midnightblue" stroke="midnightblue" points="3242.36,-197.49 3251.28,-191.77 3240.74,-190.68 3242.36,-197.49"/>
</g>
<!-- Node183&#45;&gt;Node107 -->
<g id="edge183" class="edge">
<title>Node183&#45;&gt;Node107</title>
<path fill="none" stroke="midnightblue" d="M1638.28,-307.87C1678.93,-296.28 1751.25,-275.66 1796.25,-262.83"/>
<polygon fill="midnightblue" stroke="midnightblue" points="1797.3,-266.17 1805.96,-260.06 1795.38,-259.44 1797.3,-266.17"/>
</g>
<!-- Node217&#45;&gt;Node50 -->
<g id="edge192" class="edge">
<title>Node217&#45;&gt;Node50</title>
<path fill="none" stroke="midnightblue" d="M138.89,-374.81C141.03,-358.31 147.98,-322.29 169,-302 225.55,-247.43 452.79,-209.06 565.68,-192.96"/>
<polygon fill="midnightblue" stroke="midnightblue" points="566.5,-196.38 575.91,-191.52 565.52,-189.45 566.5,-196.38"/>
</g>
<!-- Node217&#45;&gt;Node121 -->
<g id="edge193" class="edge">
<title>Node217&#45;&gt;Node121</title>
<path fill="none" stroke="midnightblue" d="M147.98,-374.73C159.85,-364.31 179.89,-346.71 194.38,-333.97"/>
<polygon fill="midnightblue" stroke="midnightblue" points="196.97,-336.36 202.18,-327.13 192.36,-331.1 196.97,-336.36"/>
</g>
</g>
</svg>
