<?xml version="1.0" encoding="UTF-8" standalone="no"?>
<!DOCTYPE svg PUBLIC "-//W3C//DTD SVG 1.1//EN"
 "http://www.w3.org/Graphics/SVG/1.1/DTD/svg11.dtd">
<!-- Generated by graphviz version 2.44.0 (0)
 -->
<!-- Title: lib/CodeGen/RegUsageInfoPropagate.cpp Pages: 1 -->
<svg width="4029pt" height="699pt"
 viewBox="0.00 0.00 4029.03 699.00" xmlns="http://www.w3.org/2000/svg" xmlns:xlink="http://www.w3.org/1999/xlink">
<g id="graph0" class="graph" transform="scale(1 1) rotate(0) translate(4 695)">
<title>lib/CodeGen/RegUsageInfoPropagate.cpp</title>
<!-- Node1 -->
<g id="node1" class="node">
<title>Node1</title>
<g id="a_node1"><a xlink:title=" ">
<polygon fill="#bfbfbf" stroke="black" points="3046.03,-660.5 3046.03,-690.5 3182.03,-690.5 3182.03,-660.5 3046.03,-660.5"/>
<text text-anchor="start" x="3054.03" y="-678.5" font-family="Helvetica" font-size="10.00">lib/CodeGen/RegUsageInfo</text>
<text text-anchor="middle" x="3114.03" y="-667.5" font-family="Helvetica" font-size="10.00">Propagate.cpp</text>
</a>
</g>
</g>
<!-- Node2 -->
<g id="node2" class="node">
<title>Node2</title>
<g id="a_node2"><a xlink:href="MachineBasicBlock_8h.html" target="_top" xlink:title=" ">
<polygon fill="none" stroke="black" points="1742.53,-470.5 1742.53,-500.5 1885.53,-500.5 1885.53,-470.5 1742.53,-470.5"/>
<text text-anchor="start" x="1750.53" y="-488.5" font-family="Helvetica" font-size="10.00">llvm/CodeGen/MachineBasic</text>
<text text-anchor="middle" x="1814.03" y="-477.5" font-family="Helvetica" font-size="10.00">Block.h</text>
</a>
</g>
</g>
<!-- Node1&#45;&gt;Node2 -->
<g id="edge1" class="edge">
<title>Node1&#45;&gt;Node2</title>
<path fill="none" stroke="midnightblue" d="M3045.92,-669.2C2949.05,-661.32 2766.04,-645.13 2611.03,-624 2348.13,-588.17 2039.1,-530.32 1895.28,-502.48"/>
<polygon fill="midnightblue" stroke="midnightblue" points="1895.7,-498.99 1885.21,-500.52 1894.36,-505.86 1895.7,-498.99"/>
</g>
<!-- Node40 -->
<g id="node10" class="node">
<title>Node40</title>
<g id="a_node10"><a xlink:href="raw__ostream_8h.html" target="_top" xlink:title=" ">
<polygon fill="none" stroke="red" points="1665.03,-342 1665.03,-361 1805.03,-361 1805.03,-342 1665.03,-342"/>
<text text-anchor="middle" x="1735.03" y="-349" font-family="Helvetica" font-size="10.00">llvm/Support/raw_ostream.h</text>
</a>
</g>
</g>
<!-- Node1&#45;&gt;Node40 -->
<g id="edge162" class="edge">
<title>Node1&#45;&gt;Node40</title>
<path fill="none" stroke="midnightblue" d="M3048,-660.49C3001.97,-650.61 2939.17,-636.88 2884.03,-624 2486.31,-531.09 2390.76,-491.51 1992.03,-403 1972.49,-398.66 1858.24,-376.4 1788.81,-362.92"/>
<polygon fill="midnightblue" stroke="midnightblue" points="1789.39,-359.47 1778.91,-361 1788.06,-366.34 1789.39,-359.47"/>
</g>
<!-- Node35 -->
<g id="node15" class="node">
<title>Node35</title>
<g id="a_node15"><a xlink:title=" ">
<polygon fill="none" stroke="#bfbfbf" points="3424.53,-224.5 3424.53,-243.5 3465.53,-243.5 3465.53,-224.5 3424.53,-224.5"/>
<text text-anchor="middle" x="3445.03" y="-231.5" font-family="Helvetica" font-size="10.00">string</text>
</a>
</g>
</g>
<!-- Node1&#45;&gt;Node35 -->
<g id="edge167" class="edge">
<title>Node1&#45;&gt;Node35</title>
<path fill="none" stroke="midnightblue" d="M3182.15,-671.69C3320.42,-664.13 3621.03,-637.42 3621.03,-548 3621.03,-548 3621.03,-548 3621.03,-484.5 3621.03,-461.05 3584.77,-297.38 3569.03,-280 3545.04,-253.51 3504.22,-242.59 3476,-238.11"/>
<polygon fill="midnightblue" stroke="midnightblue" points="3476.26,-234.61 3465.87,-236.68 3475.28,-241.54 3476.26,-234.61"/>
</g>
<!-- Node59 -->
<g id="node16" class="node">
<title>Node59</title>
<g id="a_node16"><a xlink:href="MachineInstr_8h.html" target="_top" xlink:title=" ">
<polygon fill="none" stroke="black" points="2302.03,-409 2302.03,-428 2448.03,-428 2448.03,-409 2302.03,-409"/>
<text text-anchor="middle" x="2375.03" y="-416" font-family="Helvetica" font-size="10.00">llvm/CodeGen/MachineInstr.h</text>
</a>
</g>
</g>
<!-- Node1&#45;&gt;Node59 -->
<g id="edge126" class="edge">
<title>Node1&#45;&gt;Node59</title>
<path fill="none" stroke="midnightblue" d="M3073.25,-660.43C2941.84,-615.08 2531,-473.32 2409.32,-431.33"/>
<polygon fill="midnightblue" stroke="midnightblue" points="2410.35,-427.98 2399.76,-428.03 2408.07,-434.6 2410.35,-427.98"/>
</g>
<!-- Node144 -->
<g id="node38" class="node">
<title>Node144</title>
<g id="a_node38"><a xlink:href="MachineFunctionPass_8h.html" target="_top" xlink:title=" ">
<polygon fill="none" stroke="black" points="1529.03,-593.5 1529.03,-623.5 1685.03,-623.5 1685.03,-593.5 1529.03,-593.5"/>
<text text-anchor="start" x="1537.03" y="-611.5" font-family="Helvetica" font-size="10.00">llvm/CodeGen/MachineFunction</text>
<text text-anchor="middle" x="1607.03" y="-600.5" font-family="Helvetica" font-size="10.00">Pass.h</text>
</a>
</g>
</g>
<!-- Node1&#45;&gt;Node144 -->
<g id="edge94" class="edge">
<title>Node1&#45;&gt;Node144</title>
<path fill="none" stroke="midnightblue" d="M3045.73,-674.98C2841.06,-675.78 2215.01,-673.69 1699.03,-624 1697.77,-623.88 1696.49,-623.75 1695.21,-623.62"/>
<polygon fill="midnightblue" stroke="midnightblue" points="1695.58,-620.14 1685.25,-622.48 1694.79,-627.09 1695.58,-620.14"/>
</g>
<!-- Node151 -->
<g id="node41" class="node">
<title>Node151</title>
<g id="a_node41"><a xlink:href="Pass_8h.html" target="_top" xlink:title=" ">
<polygon fill="none" stroke="red" points="3492.03,-280.5 3492.03,-299.5 3560.03,-299.5 3560.03,-280.5 3492.03,-280.5"/>
<text text-anchor="middle" x="3526.03" y="-287.5" font-family="Helvetica" font-size="10.00">llvm/Pass.h</text>
</a>
</g>
</g>
<!-- Node1&#45;&gt;Node151 -->
<g id="edge160" class="edge">
<title>Node1&#45;&gt;Node151</title>
<path fill="none" stroke="midnightblue" d="M3182.33,-668.68C3303.86,-656.41 3545.03,-622.67 3545.03,-548 3545.03,-548 3545.03,-548 3545.03,-417.5 3545.03,-378.77 3536.22,-334.11 3530.6,-309.57"/>
<polygon fill="midnightblue" stroke="midnightblue" points="3533.93,-308.44 3528.21,-299.52 3527.12,-310.06 3533.93,-308.44"/>
</g>
<!-- Node158 -->
<g id="node42" class="node">
<title>Node158</title>
<g id="a_node42"><a xlink:href="MachineFrameInfo_8h.html" target="_top" xlink:title=" ">
<polygon fill="none" stroke="black" points="3219.03,-336.5 3219.03,-366.5 3365.03,-366.5 3365.03,-336.5 3219.03,-336.5"/>
<text text-anchor="start" x="3227.03" y="-354.5" font-family="Helvetica" font-size="10.00">llvm/CodeGen/MachineFrame</text>
<text text-anchor="middle" x="3292.03" y="-343.5" font-family="Helvetica" font-size="10.00">Info.h</text>
</a>
</g>
</g>
<!-- Node1&#45;&gt;Node158 -->
<g id="edge119" class="edge">
<title>Node1&#45;&gt;Node158</title>
<path fill="none" stroke="midnightblue" d="M3182.14,-661.3C3240.78,-645.51 3316.03,-612.65 3316.03,-548 3316.03,-548 3316.03,-548 3316.03,-484.5 3316.03,-446.22 3306.14,-402.68 3299.06,-376.42"/>
<polygon fill="midnightblue" stroke="midnightblue" points="3302.38,-375.3 3296.32,-366.61 3295.64,-377.18 3302.38,-375.3"/>
</g>
<!-- Node159 -->
<g id="node43" class="node">
<title>Node159</title>
<g id="a_node43"><a xlink:href="MachineRegisterInfo_8h.html" target="_top" xlink:title=" ">
<polygon fill="none" stroke="red" points="616.53,-593.5 616.53,-623.5 771.53,-623.5 771.53,-593.5 616.53,-593.5"/>
<text text-anchor="start" x="624.53" y="-611.5" font-family="Helvetica" font-size="10.00">llvm/CodeGen/MachineRegister</text>
<text text-anchor="middle" x="694.03" y="-600.5" font-family="Helvetica" font-size="10.00">Info.h</text>
</a>
</g>
</g>
<!-- Node1&#45;&gt;Node159 -->
<g id="edge127" class="edge">
<title>Node1&#45;&gt;Node159</title>
<path fill="none" stroke="midnightblue" d="M3045.83,-672.67C2702.8,-663.45 1167.49,-622.22 782.04,-611.86"/>
<polygon fill="midnightblue" stroke="midnightblue" points="781.88,-608.36 771.79,-611.59 781.69,-615.36 781.88,-608.36"/>
</g>
<!-- Node172 -->
<g id="node45" class="node">
<title>Node172</title>
<g id="a_node45"><a xlink:href="CodeGen_2Passes_8h.html" target="_top" xlink:title=" ">
<polygon fill="none" stroke="red" points="3344.53,-476 3344.53,-495 3467.53,-495 3467.53,-476 3344.53,-476"/>
<text text-anchor="middle" x="3406.03" y="-483" font-family="Helvetica" font-size="10.00">llvm/CodeGen/Passes.h</text>
</a>
</g>
</g>
<!-- Node1&#45;&gt;Node172 -->
<g id="edge145" class="edge">
<title>Node1&#45;&gt;Node172</title>
<path fill="none" stroke="midnightblue" d="M3182.39,-672.64C3228.2,-668.24 3287.65,-656.07 3330.03,-624 3370.34,-593.5 3392.12,-535.1 3401.07,-505.18"/>
<polygon fill="midnightblue" stroke="midnightblue" points="3404.53,-505.8 3403.89,-495.22 3397.8,-503.89 3404.53,-505.8"/>
</g>
<!-- Node204 -->
<g id="node46" class="node">
<title>Node204</title>
<g id="a_node46"><a xlink:href="RegisterUsageInfo_8h.html" target="_top" xlink:title="This pass is required to take advantage of the interprocedural register allocation infrastructure.">
<polygon fill="none" stroke="red" points="1235.03,-336.5 1235.03,-366.5 1381.03,-366.5 1381.03,-336.5 1235.03,-336.5"/>
<text text-anchor="start" x="1243.03" y="-354.5" font-family="Helvetica" font-size="10.00">llvm/CodeGen/RegisterUsage</text>
<text text-anchor="middle" x="1308.03" y="-343.5" font-family="Helvetica" font-size="10.00">Info.h</text>
</a>
</g>
</g>
<!-- Node1&#45;&gt;Node204 -->
<g id="edge148" class="edge">
<title>Node1&#45;&gt;Node204</title>
<path fill="none" stroke="midnightblue" d="M3045.65,-672.17C2918.62,-667.27 2637.81,-653.83 2403.03,-624 2103.13,-585.9 2029.6,-564.51 1734.03,-501 1612.31,-474.84 1578.37,-478.34 1462.03,-434 1417.59,-417.06 1369.65,-390.19 1339.27,-371.97"/>
<polygon fill="midnightblue" stroke="midnightblue" points="1340.79,-368.8 1330.43,-366.61 1337.17,-374.79 1340.79,-368.8"/>
</g>
<!-- Node223 -->
<g id="node47" class="node">
<title>Node223</title>
<g id="a_node47"><a xlink:href="Module_8h.html" target="_top" xlink:title="Module.h This file contains the declarations for the Module class.">
<polygon fill="none" stroke="red" points="537.53,-280.5 537.53,-299.5 628.53,-299.5 628.53,-280.5 537.53,-280.5"/>
<text text-anchor="middle" x="583.03" y="-287.5" font-family="Helvetica" font-size="10.00">llvm/IR/Module.h</text>
</a>
</g>
</g>
<!-- Node1&#45;&gt;Node223 -->
<g id="edge154" class="edge">
<title>Node1&#45;&gt;Node223</title>
<path fill="none" stroke="midnightblue" d="M3045.8,-674.55C2695.93,-674.62 1100.54,-672.2 608.03,-624 437.79,-607.34 338.96,-688.06 229.03,-557 155.69,-469.56 -333.86,-790.16 397.03,-336 436.54,-311.45 488.46,-300.3 527.4,-295.23"/>
<polygon fill="midnightblue" stroke="midnightblue" points="528,-298.68 537.51,-294.01 527.16,-291.73 528,-298.68"/>
</g>
<!-- Node119 -->
<g id="node48" class="node">
<title>Node119</title>
<g id="a_node48"><a xlink:href="Debug_8h.html" target="_top" xlink:title=" ">
<polygon fill="none" stroke="black" points="3687.03,-599 3687.03,-618 3799.03,-618 3799.03,-599 3687.03,-599"/>
<text text-anchor="middle" x="3743.03" y="-606" font-family="Helvetica" font-size="10.00">llvm/Support/Debug.h</text>
</a>
</g>
</g>
<!-- Node1&#45;&gt;Node119 -->
<g id="edge161" class="edge">
<title>Node1&#45;&gt;Node119</title>
<path fill="none" stroke="midnightblue" d="M3182.31,-670.85C3287.93,-664.64 3497.12,-650.08 3673.03,-624 3680.46,-622.9 3688.28,-621.51 3695.91,-620.03"/>
<polygon fill="midnightblue" stroke="midnightblue" points="3696.64,-623.45 3705.76,-618.04 3695.26,-616.59 3696.64,-623.45"/>
</g>
<!-- Node231 -->
<g id="node49" class="node">
<title>Node231</title>
<g id="a_node49"><a xlink:href="llvm_2Target_2TargetMachine_8h.html" target="_top" xlink:title=" ">
<polygon fill="none" stroke="red" points="3611.03,-342 3611.03,-361 3751.03,-361 3751.03,-342 3611.03,-342"/>
<text text-anchor="middle" x="3681.03" y="-349" font-family="Helvetica" font-size="10.00">llvm/Target/TargetMachine.h</text>
</a>
</g>
</g>
<!-- Node1&#45;&gt;Node231 -->
<g id="edge163" class="edge">
<title>Node1&#45;&gt;Node231</title>
<path fill="none" stroke="midnightblue" d="M3182.05,-672.05C3315.24,-666.65 3600.54,-651.94 3635.03,-624 3662.56,-601.71 3659.03,-583.42 3659.03,-548 3659.03,-548 3659.03,-548 3659.03,-484.5 3659.03,-443.42 3669.53,-396.11 3676.02,-370.78"/>
<polygon fill="midnightblue" stroke="midnightblue" points="3679.42,-371.63 3678.59,-361.07 3672.65,-369.84 3679.42,-371.63"/>
</g>
<!-- Node103 -->
<g id="node50" class="node">
<title>Node103</title>
<g id="a_node50"><a xlink:title=" ">
<polygon fill="none" stroke="#bfbfbf" points="3817.53,-599 3817.53,-618 3852.53,-618 3852.53,-599 3817.53,-599"/>
<text text-anchor="middle" x="3835.03" y="-606" font-family="Helvetica" font-size="10.00">map</text>
</a>
</g>
</g>
<!-- Node1&#45;&gt;Node103 -->
<g id="edge166" class="edge">
<title>Node1&#45;&gt;Node103</title>
<path fill="none" stroke="midnightblue" d="M3182.19,-673.15C3333.25,-669.58 3691.95,-657.72 3808.03,-624 3809.5,-623.57 3810.98,-623.06 3812.45,-622.48"/>
<polygon fill="midnightblue" stroke="midnightblue" points="3814.25,-625.5 3821.78,-618.05 3811.24,-619.18 3814.25,-625.5"/>
</g>
<!-- Node3 -->
<g id="node3" class="node">
<title>Node3</title>
<g id="a_node3"><a xlink:href="GraphTraits_8h.html" target="_top" xlink:title=" ">
<polygon fill="none" stroke="black" points="615.53,-409 615.53,-428 734.53,-428 734.53,-409 615.53,-409"/>
<text text-anchor="middle" x="675.03" y="-416" font-family="Helvetica" font-size="10.00">llvm/ADT/GraphTraits.h</text>
</a>
</g>
</g>
<!-- Node2&#45;&gt;Node3 -->
<g id="edge2" class="edge">
<title>Node2&#45;&gt;Node3</title>
<path fill="none" stroke="midnightblue" d="M1742.35,-480.41C1536.93,-468.69 947.87,-435.07 744.82,-423.48"/>
<polygon fill="midnightblue" stroke="midnightblue" points="744.77,-419.97 734.59,-422.9 744.37,-426.96 744.77,-419.97"/>
</g>
<!-- Node4 -->
<g id="node4" class="node">
<title>Node4</title>
<g id="a_node4"><a xlink:href="iterator__range_8h.html" target="_top" xlink:title="This provides a very simple, boring adaptor for a begin and end iterator into a range type.">
<polygon fill="none" stroke="black" points="331.03,-56.5 331.03,-75.5 459.03,-75.5 459.03,-56.5 331.03,-56.5"/>
<text text-anchor="middle" x="395.03" y="-63.5" font-family="Helvetica" font-size="10.00">llvm/ADT/iterator_range.h</text>
</a>
</g>
</g>
<!-- Node2&#45;&gt;Node4 -->
<g id="edge8" class="edge">
<title>Node2&#45;&gt;Node4</title>
<path fill="none" stroke="midnightblue" d="M1742.45,-482.59C1596.32,-478.17 1253.34,-465.13 967.03,-434 943.38,-431.43 565.66,-376.93 544.03,-367 397.31,-299.65 334.87,-278.5 267.03,-132 253.63,-103.06 285.61,-86.81 320.95,-77.79"/>
<polygon fill="midnightblue" stroke="midnightblue" points="322.04,-81.13 330.98,-75.44 320.44,-74.32 322.04,-81.13"/>
</g>
<!-- Node6 -->
<g id="node6" class="node">
<title>Node6</title>
<g id="a_node6"><a xlink:href="ilist_8h.html" target="_top" xlink:title=" ">
<polygon fill="none" stroke="red" points="1057.53,-342 1057.53,-361 1140.53,-361 1140.53,-342 1057.53,-342"/>
<text text-anchor="middle" x="1099.03" y="-349" font-family="Helvetica" font-size="10.00">llvm/ADT/ilist.h</text>
</a>
</g>
</g>
<!-- Node2&#45;&gt;Node6 -->
<g id="edge5" class="edge">
<title>Node2&#45;&gt;Node6</title>
<path fill="none" stroke="midnightblue" d="M1742.5,-476.63C1671.1,-468.21 1558.42,-453.4 1462.03,-434 1408.45,-423.21 1396.35,-415.03 1343.03,-403 1260.05,-384.27 1238.03,-385.67 1155.03,-367 1150.32,-365.94 1145.4,-364.77 1140.52,-363.56"/>
<polygon fill="midnightblue" stroke="midnightblue" points="1141.19,-360.12 1130.64,-361.06 1139.47,-366.9 1141.19,-360.12"/>
</g>
<!-- Node20 -->
<g id="node7" class="node">
<title>Node20</title>
<g id="a_node7"><a xlink:title=" ">
<polygon fill="none" stroke="#bfbfbf" points="2230.03,-56.5 2230.03,-75.5 2280.03,-75.5 2280.03,-56.5 2230.03,-56.5"/>
<text text-anchor="middle" x="2255.03" y="-63.5" font-family="Helvetica" font-size="10.00">cassert</text>
</a>
</g>
</g>
<!-- Node2&#45;&gt;Node20 -->
<g id="edge88" class="edge">
<title>Node2&#45;&gt;Node20</title>
<path fill="none" stroke="midnightblue" d="M1885.9,-479.21C2004.78,-470.38 2249.81,-451.85 2457.03,-434 2536.53,-427.15 3118.31,-426 3172.03,-367 3217.29,-317.3 3112.44,-311.47 3103.03,-300 3083.94,-276.73 3084.03,-265.1 3084.03,-235 3084.03,-235 3084.03,-235 3084.03,-177 3084.03,-95.66 2448.76,-72.43 2290.44,-67.91"/>
<polygon fill="midnightblue" stroke="midnightblue" points="2290.39,-64.41 2280.3,-67.63 2290.19,-71.4 2290.39,-64.41"/>
</g>
<!-- Node30 -->
<g id="node8" class="node">
<title>Node30</title>
<g id="a_node8"><a xlink:title=" ">
<polygon fill="none" stroke="#bfbfbf" points="637.53,-56.5 637.53,-75.5 684.53,-75.5 684.53,-56.5 637.53,-56.5"/>
<text text-anchor="middle" x="661.03" y="-63.5" font-family="Helvetica" font-size="10.00">iterator</text>
</a>
</g>
</g>
<!-- Node2&#45;&gt;Node30 -->
<g id="edge91" class="edge">
<title>Node2&#45;&gt;Node30</title>
<path fill="none" stroke="midnightblue" d="M1742.33,-478.14C1637.79,-468.8 1437.41,-450.69 1267.03,-434 1266.47,-433.94 620.57,-367.17 620.03,-367 590.31,-357.77 515.23,-325.25 497.03,-300 447.96,-231.9 426.12,-177.16 479.03,-112 497.49,-89.27 579.88,-76.27 627.23,-70.54"/>
<polygon fill="midnightblue" stroke="midnightblue" points="627.81,-74 637.34,-69.37 627,-67.04 627.81,-74"/>
</g>
<!-- Node33 -->
<g id="node9" class="node">
<title>Node33</title>
<g id="a_node9"><a xlink:href="SparseBitVector_8h.html" target="_top" xlink:title=" ">
<polygon fill="none" stroke="red" points="1843.03,-409 1843.03,-428 1983.03,-428 1983.03,-409 1843.03,-409"/>
<text text-anchor="middle" x="1913.03" y="-416" font-family="Helvetica" font-size="10.00">llvm/ADT/SparseBitVector.h</text>
</a>
</g>
</g>
<!-- Node2&#45;&gt;Node33 -->
<g id="edge9" class="edge">
<title>Node2&#45;&gt;Node33</title>
<path fill="none" stroke="midnightblue" d="M1835.51,-470.4C1852.12,-459.5 1874.99,-444.48 1891.58,-433.58"/>
<polygon fill="midnightblue" stroke="midnightblue" points="1893.64,-436.42 1900.08,-428.01 1889.8,-430.57 1893.64,-436.42"/>
</g>
<!-- Node23 -->
<g id="node14" class="node">
<title>Node23</title>
<g id="a_node14"><a xlink:title=" ">
<polygon fill="none" stroke="#bfbfbf" points="1474.03,-168.5 1474.03,-187.5 1520.03,-187.5 1520.03,-168.5 1474.03,-168.5"/>
<text text-anchor="middle" x="1497.03" y="-175.5" font-family="Helvetica" font-size="10.00">cstdint</text>
</a>
</g>
</g>
<!-- Node2&#45;&gt;Node23 -->
<g id="edge89" class="edge">
<title>Node2&#45;&gt;Node23</title>
<path fill="none" stroke="midnightblue" d="M1815.07,-470.35C1815.57,-452.27 1813.55,-421.13 1796.03,-403 1751.39,-356.8 1715.56,-391.18 1656.03,-367 1600.52,-344.45 1579.88,-343.84 1539.03,-300 1511.97,-270.95 1502.22,-223.55 1498.81,-197.54"/>
<polygon fill="midnightblue" stroke="midnightblue" points="1502.28,-197.06 1497.67,-187.52 1495.32,-197.85 1502.28,-197.06"/>
</g>
<!-- Node2&#45;&gt;Node35 -->
<g id="edge92" class="edge">
<title>Node2&#45;&gt;Node35</title>
<path fill="none" stroke="midnightblue" d="M1885.65,-483.7C2177.86,-479.82 3270.16,-459.2 3391.03,-367 3427.36,-339.29 3439.37,-282.96 3443.25,-253.65"/>
<polygon fill="midnightblue" stroke="midnightblue" points="3446.75,-253.87 3444.4,-243.54 3439.79,-253.08 3446.75,-253.87"/>
</g>
<!-- Node2&#45;&gt;Node59 -->
<g id="edge23" class="edge">
<title>Node2&#45;&gt;Node59</title>
<path fill="none" stroke="midnightblue" d="M1885.66,-478.2C1978.62,-469.71 2145.77,-453.42 2288.03,-434 2297.38,-432.72 2307.26,-431.22 2316.89,-429.68"/>
<polygon fill="midnightblue" stroke="midnightblue" points="2317.49,-433.13 2326.79,-428.06 2316.36,-426.22 2317.49,-433.13"/>
</g>
<!-- Node65 -->
<g id="node19" class="node">
<title>Node65</title>
<g id="a_node19"><a xlink:title=" ">
<polygon fill="none" stroke="#bfbfbf" points="1033.53,-112.5 1033.53,-131.5 1076.53,-131.5 1076.53,-112.5 1033.53,-112.5"/>
<text text-anchor="middle" x="1055.03" y="-119.5" font-family="Helvetica" font-size="10.00">vector</text>
</a>
</g>
</g>
<!-- Node2&#45;&gt;Node65 -->
<g id="edge93" class="edge">
<title>Node2&#45;&gt;Node65</title>
<path fill="none" stroke="midnightblue" d="M1742.32,-483.03C1649.03,-479.72 1481.59,-468.94 1343.03,-434 1307.66,-425.08 1302.14,-412.92 1267.03,-403 1172.53,-376.29 1117.6,-437.3 1049.03,-367 986.79,-303.19 997.55,-253.12 1024.03,-168 1027.26,-157.62 1033.81,-147.52 1040.06,-139.53"/>
<polygon fill="midnightblue" stroke="midnightblue" points="1042.82,-141.68 1046.55,-131.77 1037.45,-137.19 1042.82,-141.68"/>
</g>
<!-- Node123 -->
<g id="node27" class="node">
<title>Node123</title>
<g id="a_node27"><a xlink:href="DebugLoc_8h.html" target="_top" xlink:title=" ">
<polygon fill="none" stroke="red" points="2191.03,-342 2191.03,-361 2295.03,-361 2295.03,-342 2191.03,-342"/>
<text text-anchor="middle" x="2243.03" y="-349" font-family="Helvetica" font-size="10.00">llvm/IR/DebugLoc.h</text>
</a>
</g>
</g>
<!-- Node2&#45;&gt;Node123 -->
<g id="edge81" class="edge">
<title>Node2&#45;&gt;Node123</title>
<path fill="none" stroke="midnightblue" d="M1884.04,-470.4C1926.14,-461.32 1980.58,-448.52 2028.03,-434 2095.74,-413.28 2172.84,-382.14 2213.81,-364.98"/>
<polygon fill="midnightblue" stroke="midnightblue" points="2215.32,-368.14 2223.18,-361.03 2212.61,-361.69 2215.32,-368.14"/>
</g>
<!-- Node141 -->
<g id="node34" class="node">
<title>Node141</title>
<g id="a_node34"><a xlink:href="MachineInstrBundleIterator_8h.html" target="_top" xlink:title=" ">
<polygon fill="none" stroke="red" points="1471.03,-403.5 1471.03,-433.5 1609.03,-433.5 1609.03,-403.5 1471.03,-403.5"/>
<text text-anchor="start" x="1479.03" y="-421.5" font-family="Helvetica" font-size="10.00">llvm/CodeGen/MachineInstr</text>
<text text-anchor="middle" x="1540.03" y="-410.5" font-family="Helvetica" font-size="10.00">BundleIterator.h</text>
</a>
</g>
</g>
<!-- Node2&#45;&gt;Node141 -->
<g id="edge77" class="edge">
<title>Node2&#45;&gt;Node141</title>
<path fill="none" stroke="midnightblue" d="M1754.92,-470.48C1712.21,-460.34 1654.38,-446.63 1609.47,-435.97"/>
<polygon fill="midnightblue" stroke="midnightblue" points="1610.05,-432.51 1599.52,-433.61 1608.44,-439.32 1610.05,-432.51"/>
</g>
<!-- Node127 -->
<g id="node35" class="node">
<title>Node127</title>
<g id="a_node35"><a xlink:href="LaneBitmask_8h.html" target="_top" xlink:title="A common definition of LaneBitmask for use in TableGen and CodeGen.">
<polygon fill="none" stroke="red" points="1665.03,-409 1665.03,-428 1787.03,-428 1787.03,-409 1665.03,-409"/>
<text text-anchor="middle" x="1726.03" y="-416" font-family="Helvetica" font-size="10.00">llvm/MC/LaneBitmask.h</text>
</a>
</g>
</g>
<!-- Node2&#45;&gt;Node127 -->
<g id="edge82" class="edge">
<title>Node2&#45;&gt;Node127</title>
<path fill="none" stroke="midnightblue" d="M1794.94,-470.4C1780.45,-459.7 1760.6,-445.03 1745.92,-434.19"/>
<polygon fill="midnightblue" stroke="midnightblue" points="1747.67,-431.13 1737.55,-428.01 1743.51,-436.76 1747.67,-431.13"/>
</g>
<!-- Node142 -->
<g id="node36" class="node">
<title>Node142</title>
<g id="a_node36"><a xlink:href="BranchProbability_8h.html" target="_top" xlink:title=" ">
<polygon fill="none" stroke="red" points="2013.53,-342 2013.53,-361 2172.53,-361 2172.53,-342 2013.53,-342"/>
<text text-anchor="middle" x="2093.03" y="-349" font-family="Helvetica" font-size="10.00">llvm/Support/BranchProbability.h</text>
</a>
</g>
</g>
<!-- Node2&#45;&gt;Node142 -->
<g id="edge84" class="edge">
<title>Node2&#45;&gt;Node142</title>
<path fill="none" stroke="midnightblue" d="M1885.82,-471.08C1919.29,-463.11 1958.94,-451.13 1992.03,-434 2025.67,-416.59 2058.69,-386.89 2077.39,-368.56"/>
<polygon fill="midnightblue" stroke="midnightblue" points="2080.11,-370.79 2084.71,-361.25 2075.16,-365.84 2080.11,-370.79"/>
</g>
<!-- Node32 -->
<g id="node37" class="node">
<title>Node32</title>
<g id="a_node37"><a xlink:title=" ">
<polygon fill="none" stroke="#bfbfbf" points="3367.53,-409 3367.53,-428 3426.53,-428 3426.53,-409 3367.53,-409"/>
<text text-anchor="middle" x="3397.03" y="-416" font-family="Helvetica" font-size="10.00">functional</text>
</a>
</g>
</g>
<!-- Node2&#45;&gt;Node32 -->
<g id="edge90" class="edge">
<title>Node2&#45;&gt;Node32</title>
<path fill="none" stroke="midnightblue" d="M1885.64,-481.56C2160.91,-470.26 3146.03,-429.81 3357.06,-421.14"/>
<polygon fill="midnightblue" stroke="midnightblue" points="3357.51,-424.63 3367.36,-420.72 3357.22,-417.63 3357.51,-424.63"/>
</g>
<!-- Node3&#45;&gt;Node4 -->
<g id="edge3" class="edge">
<title>Node3&#45;&gt;Node4</title>
<path fill="none" stroke="midnightblue" d="M615.3,-416.13C512.7,-410.05 306.55,-380.56 229.03,-244 200.07,-192.98 193.39,-158.6 229.03,-112 241.03,-96.31 284.96,-84.82 324.61,-77.38"/>
<polygon fill="midnightblue" stroke="midnightblue" points="325.36,-80.8 334.58,-75.57 324.11,-73.91 325.36,-80.8"/>
</g>
<!-- Node5 -->
<g id="node5" class="node">
<title>Node5</title>
<g id="a_node5"><a xlink:title=" ">
<polygon fill="none" stroke="#bfbfbf" points="1325.03,-0.5 1325.03,-19.5 1365.03,-19.5 1365.03,-0.5 1325.03,-0.5"/>
<text text-anchor="middle" x="1345.03" y="-7.5" font-family="Helvetica" font-size="10.00">utility</text>
</a>
</g>
</g>
<!-- Node4&#45;&gt;Node5 -->
<g id="edge4" class="edge">
<title>Node4&#45;&gt;Node5</title>
<path fill="none" stroke="midnightblue" d="M459.21,-61.35C645.3,-50.77 1180.38,-20.36 1314.34,-12.74"/>
<polygon fill="midnightblue" stroke="midnightblue" points="1314.89,-16.22 1324.67,-12.16 1314.49,-9.23 1314.89,-16.22"/>
</g>
<!-- Node6&#45;&gt;Node20 -->
<g id="edge6" class="edge">
<title>Node6&#45;&gt;Node20</title>
<path fill="none" stroke="midnightblue" d="M1140.74,-345.29C1165.5,-342.31 1197.53,-338.65 1226.03,-336 1447.87,-315.36 1507.87,-345.2 1726.03,-300 1840.9,-276.2 1873.1,-260.86 1965.03,-188 2005.01,-156.32 2005.57,-135.12 2051.03,-112 2105.87,-84.11 2177.6,-73.43 2219.76,-69.39"/>
<polygon fill="midnightblue" stroke="midnightblue" points="2220.16,-72.87 2229.82,-68.5 2219.55,-65.89 2220.16,-72.87"/>
</g>
<!-- Node6&#45;&gt;Node30 -->
<g id="edge7" class="edge">
<title>Node6&#45;&gt;Node30</title>
<path fill="none" stroke="midnightblue" d="M1057.16,-349.04C998.82,-345.75 890.7,-335.02 806.03,-300 726.16,-266.96 686.84,-264.73 647.03,-188 629.81,-154.81 643.06,-109.74 652.9,-85.03"/>
<polygon fill="midnightblue" stroke="midnightblue" points="656.26,-86.08 656.94,-75.51 649.81,-83.35 656.26,-86.08"/>
</g>
<!-- Node33&#45;&gt;Node20 -->
<g id="edge21" class="edge">
<title>Node33&#45;&gt;Node20</title>
<path fill="none" stroke="midnightblue" d="M1920.78,-408.64C1935.6,-392.18 1969.67,-356.68 2005.03,-336 2047.26,-311.31 2066.55,-324.24 2109.03,-300 2142.45,-280.94 2151.88,-274.72 2175.03,-244 2213.69,-192.71 2239.11,-119.76 2249.59,-85.77"/>
<polygon fill="midnightblue" stroke="midnightblue" points="2253.05,-86.41 2252.57,-75.83 2246.35,-84.4 2253.05,-86.41"/>
</g>
<!-- Node33&#45;&gt;Node30 -->
<g id="edge22" class="edge">
<title>Node33&#45;&gt;Node30</title>
<path fill="none" stroke="midnightblue" d="M1842.9,-409.99C1790.26,-402.87 1717.06,-389.77 1656.03,-367 1502.29,-309.65 1495.34,-233.84 1345.03,-168 1244.31,-123.88 1212.51,-130.04 1104.03,-112 952.49,-86.8 769.27,-73.61 694.88,-68.97"/>
<polygon fill="midnightblue" stroke="midnightblue" points="694.9,-65.46 684.71,-68.34 694.47,-72.45 694.9,-65.46"/>
</g>
<!-- Node33&#45;&gt;Node40 -->
<g id="edge10" class="edge">
<title>Node33&#45;&gt;Node40</title>
<path fill="none" stroke="midnightblue" d="M1889.4,-408.87C1858.32,-397.52 1803.56,-377.52 1768.31,-364.65"/>
<polygon fill="midnightblue" stroke="midnightblue" points="1769.08,-361.21 1758.48,-361.06 1766.68,-367.78 1769.08,-361.21"/>
</g>
<!-- Node40&#45;&gt;Node20 -->
<g id="edge18" class="edge">
<title>Node40&#45;&gt;Node20</title>
<path fill="none" stroke="midnightblue" d="M1782.97,-341.96C1794.75,-339.94 1807.34,-337.83 1819.03,-336 1932.11,-318.26 1967.43,-341.66 2074.03,-300 2114.8,-284.07 2128.29,-278.65 2155.03,-244 2193.18,-194.58 2167.63,-163.41 2203.03,-112 2211.18,-100.17 2223.15,-89.52 2233.56,-81.55"/>
<polygon fill="midnightblue" stroke="midnightblue" points="2235.8,-84.25 2241.81,-75.53 2231.67,-78.6 2235.8,-84.25"/>
</g>
<!-- Node41 -->
<g id="node11" class="node">
<title>Node41</title>
<g id="a_node11"><a xlink:href="SmallVector_8h.html" target="_top" xlink:title=" ">
<polygon fill="none" stroke="red" points="771.53,-112.5 771.53,-131.5 892.53,-131.5 892.53,-112.5 771.53,-112.5"/>
<text text-anchor="middle" x="832.03" y="-119.5" font-family="Helvetica" font-size="10.00">llvm/ADT/SmallVector.h</text>
</a>
</g>
</g>
<!-- Node40&#45;&gt;Node41 -->
<g id="edge11" class="edge">
<title>Node40&#45;&gt;Node41</title>
<path fill="none" stroke="midnightblue" d="M1665,-347.68C1509.27,-341.08 1138.3,-323.38 1015.03,-300 933.55,-284.55 887.46,-309.84 837.03,-244 814.31,-214.34 820.73,-167.55 826.77,-141.71"/>
<polygon fill="midnightblue" stroke="midnightblue" points="830.24,-142.29 829.34,-131.73 823.46,-140.55 830.24,-142.29"/>
</g>
<!-- Node15 -->
<g id="node13" class="node">
<title>Node15</title>
<g id="a_node13"><a xlink:href="llvm_2Support_2DataTypes_8h.html" target="_top" xlink:title=" ">
<polygon fill="none" stroke="red" points="2351.03,-280.5 2351.03,-299.5 2481.03,-299.5 2481.03,-280.5 2351.03,-280.5"/>
<text text-anchor="middle" x="2416.03" y="-287.5" font-family="Helvetica" font-size="10.00">llvm/Support/DataTypes.h</text>
</a>
</g>
</g>
<!-- Node40&#45;&gt;Node15 -->
<g id="edge17" class="edge">
<title>Node40&#45;&gt;Node15</title>
<path fill="none" stroke="midnightblue" d="M1805.35,-344.36C1934.35,-333.09 2207.76,-309.2 2340.53,-297.6"/>
<polygon fill="midnightblue" stroke="midnightblue" points="2340.96,-301.07 2350.62,-296.72 2340.35,-294.1 2340.96,-301.07"/>
</g>
<!-- Node40&#45;&gt;Node23 -->
<g id="edge19" class="edge">
<title>Node40&#45;&gt;Node23</title>
<path fill="none" stroke="midnightblue" d="M1664.6,-343.57C1629.68,-337.05 1588.74,-324.43 1559.03,-300 1541.91,-285.92 1516.53,-227.35 1504.23,-197.16"/>
<polygon fill="midnightblue" stroke="midnightblue" points="1507.44,-195.76 1500.47,-187.79 1500.95,-198.38 1507.44,-195.76"/>
</g>
<!-- Node40&#45;&gt;Node35 -->
<g id="edge20" class="edge">
<title>Node40&#45;&gt;Node35</title>
<path fill="none" stroke="midnightblue" d="M1802.87,-341.97C1938.4,-325.04 2238.51,-288.11 2342.03,-280 2766.22,-246.76 3284.22,-237.33 3414.29,-235.41"/>
<polygon fill="midnightblue" stroke="midnightblue" points="3414.39,-238.91 3424.33,-235.27 3414.29,-231.91 3414.39,-238.91"/>
</g>
<!-- Node41&#45;&gt;Node4 -->
<g id="edge12" class="edge">
<title>Node41&#45;&gt;Node4</title>
<path fill="none" stroke="midnightblue" d="M771.27,-113.49C692.28,-103.73 554.4,-86.69 469.29,-76.18"/>
<polygon fill="midnightblue" stroke="midnightblue" points="469.54,-72.68 459.18,-74.93 468.68,-79.63 469.54,-72.68"/>
</g>
<!-- Node41&#45;&gt;Node5 -->
<g id="edge16" class="edge">
<title>Node41&#45;&gt;Node5</title>
<path fill="none" stroke="midnightblue" d="M848.71,-112.47C877.12,-98.33 937.1,-70.19 991.03,-56 1108.03,-25.22 1252.51,-15.21 1314.48,-12.2"/>
<polygon fill="midnightblue" stroke="midnightblue" points="1314.89,-15.68 1324.72,-11.73 1314.57,-8.69 1314.89,-15.68"/>
</g>
<!-- Node41&#45;&gt;Node20 -->
<g id="edge14" class="edge">
<title>Node41&#45;&gt;Node20</title>
<path fill="none" stroke="midnightblue" d="M892.87,-118.01C930.86,-116.18 980.79,-113.84 1025.03,-112 1497.85,-92.33 2073.09,-73.02 2219.72,-68.16"/>
<polygon fill="midnightblue" stroke="midnightblue" points="2220.04,-71.65 2229.91,-67.83 2219.8,-64.66 2220.04,-71.65"/>
</g>
<!-- Node41&#45;&gt;Node30 -->
<g id="edge15" class="edge">
<title>Node41&#45;&gt;Node30</title>
<path fill="none" stroke="midnightblue" d="M804.94,-112.44C775.03,-103 726.84,-87.78 694.57,-77.59"/>
<polygon fill="midnightblue" stroke="midnightblue" points="695.29,-74.15 684.7,-74.47 693.18,-80.82 695.29,-74.15"/>
</g>
<!-- Node31 -->
<g id="node12" class="node">
<title>Node31</title>
<g id="a_node12"><a xlink:title=" ">
<polygon fill="none" stroke="#bfbfbf" points="1446.03,-56.5 1446.03,-75.5 1502.03,-75.5 1502.03,-56.5 1446.03,-56.5"/>
<text text-anchor="middle" x="1474.03" y="-63.5" font-family="Helvetica" font-size="10.00">algorithm</text>
</a>
</g>
</g>
<!-- Node41&#45;&gt;Node31 -->
<g id="edge13" class="edge">
<title>Node41&#45;&gt;Node31</title>
<path fill="none" stroke="midnightblue" d="M892.72,-115.9C1023.4,-104.9 1328.26,-79.26 1435.72,-70.22"/>
<polygon fill="midnightblue" stroke="midnightblue" points="1436.11,-73.7 1445.78,-69.38 1435.52,-66.73 1436.11,-73.7"/>
</g>
<!-- Node59&#45;&gt;Node4 -->
<g id="edge40" class="edge">
<title>Node59&#45;&gt;Node4</title>
<path fill="none" stroke="midnightblue" d="M2302,-414.63C2053.18,-404.79 1252.38,-372.77 1226.03,-367 1190.4,-359.2 1185.61,-344.05 1150.03,-336 1015.21,-305.48 650.45,-366.07 529.03,-300 444.97,-254.25 409.6,-132.26 398.85,-85.55"/>
<polygon fill="midnightblue" stroke="midnightblue" points="402.23,-84.64 396.68,-75.62 395.39,-86.13 402.23,-84.64"/>
</g>
<!-- Node59&#45;&gt;Node5 -->
<g id="edge76" class="edge">
<title>Node59&#45;&gt;Node5</title>
<path fill="none" stroke="midnightblue" d="M2448.25,-416.2C2754.38,-410.64 3917.5,-388.16 3949.03,-367 3979.76,-346.38 3983.03,-328 3983.03,-291 3983.03,-291 3983.03,-291 3983.03,-233 3983.03,-99.88 3841.01,-129.46 3709.03,-112 3227.24,-48.26 1616.55,-16.06 1375.36,-11.55"/>
<polygon fill="midnightblue" stroke="midnightblue" points="1375.28,-8.05 1365.22,-11.36 1375.15,-15.05 1375.28,-8.05"/>
</g>
<!-- Node59&#45;&gt;Node6 -->
<g id="edge38" class="edge">
<title>Node59&#45;&gt;Node6</title>
<path fill="none" stroke="midnightblue" d="M2301.59,-414.67C2042.27,-404.65 1183.5,-371.23 1155.03,-367 1149.18,-366.13 1143.05,-364.89 1137.09,-363.5"/>
<polygon fill="midnightblue" stroke="midnightblue" points="1137.83,-360.08 1127.28,-361.06 1136.14,-366.87 1137.83,-360.08"/>
</g>
<!-- Node59&#45;&gt;Node20 -->
<g id="edge74" class="edge">
<title>Node59&#45;&gt;Node20</title>
<path fill="none" stroke="midnightblue" d="M2448.05,-416.31C2751.29,-411.23 3896.94,-390.49 3926.03,-367 3953.12,-345.13 3945.03,-325.82 3945.03,-291 3945.03,-291 3945.03,-291 3945.03,-177 3945.03,-90.99 2532.77,-70.31 2290.27,-67.39"/>
<polygon fill="midnightblue" stroke="midnightblue" points="2290.28,-63.89 2280.23,-67.27 2290.19,-70.89 2290.28,-63.89"/>
</g>
<!-- Node59&#45;&gt;Node31 -->
<g id="edge73" class="edge">
<title>Node59&#45;&gt;Node31</title>
<path fill="none" stroke="midnightblue" d="M2301.85,-418.39C2205.19,-417.82 2042.76,-410.23 2005.03,-367 1995.97,-356.62 1997.89,-347.78 2005.03,-336 2022.96,-306.42 2056.1,-329.58 2074.03,-300 2078.64,-292.4 2079.15,-287.27 2074.03,-280 2039.8,-231.3 1638.34,-113.74 1511.91,-77.69"/>
<polygon fill="midnightblue" stroke="midnightblue" points="1512.83,-74.31 1502.25,-74.94 1510.92,-81.05 1512.83,-74.31"/>
</g>
<!-- Node59&#45;&gt;Node23 -->
<g id="edge75" class="edge">
<title>Node59&#45;&gt;Node23</title>
<path fill="none" stroke="midnightblue" d="M2303,-408.98C2285.66,-406.97 2267.19,-404.87 2250.03,-403 2093.7,-385.94 2051.23,-402.5 1898.03,-367 1859.27,-358.02 1852.52,-346.12 1814.03,-336 1717.36,-310.58 1677.99,-351.02 1592.03,-300 1555.26,-278.17 1559.5,-257.59 1533.03,-224 1525.59,-214.55 1517.19,-204.05 1510.39,-195.57"/>
<polygon fill="midnightblue" stroke="midnightblue" points="1512.97,-193.2 1503.97,-187.6 1507.51,-197.58 1512.97,-193.2"/>
</g>
<!-- Node60 -->
<g id="node17" class="node">
<title>Node60</title>
<g id="a_node17"><a xlink:href="DenseMapInfo_8h.html" target="_top" xlink:title=" ">
<polygon fill="none" stroke="red" points="1715.03,-224.5 1715.03,-243.5 1847.03,-243.5 1847.03,-224.5 1715.03,-224.5"/>
<text text-anchor="middle" x="1781.03" y="-231.5" font-family="Helvetica" font-size="10.00">llvm/ADT/DenseMapInfo.h</text>
</a>
</g>
</g>
<!-- Node59&#45;&gt;Node60 -->
<g id="edge24" class="edge">
<title>Node59&#45;&gt;Node60</title>
<path fill="none" stroke="midnightblue" d="M2303.11,-408.98C2185.36,-395 1963.99,-368.57 1960.03,-367 1891.48,-339.76 1825.56,-279.67 1796.52,-250.92"/>
<polygon fill="midnightblue" stroke="midnightblue" points="1798.87,-248.32 1789.33,-243.7 1793.91,-253.26 1798.87,-248.32"/>
</g>
<!-- Node66 -->
<g id="node20" class="node">
<title>Node66</title>
<g id="a_node20"><a xlink:href="PointerSumType_8h.html" target="_top" xlink:title=" ">
<polygon fill="none" stroke="red" points="1925.03,-280.5 1925.03,-299.5 2065.03,-299.5 2065.03,-280.5 1925.03,-280.5"/>
<text text-anchor="middle" x="1995.03" y="-287.5" font-family="Helvetica" font-size="10.00">llvm/ADT/PointerSumType.h</text>
</a>
</g>
</g>
<!-- Node59&#45;&gt;Node66 -->
<g id="edge34" class="edge">
<title>Node59&#45;&gt;Node66</title>
<path fill="none" stroke="midnightblue" d="M2302.01,-408.98C2186.36,-395.41 1973.76,-370.08 1971.03,-367 1956.35,-350.37 1969.47,-324.77 1981.33,-307.95"/>
<polygon fill="midnightblue" stroke="midnightblue" points="1984.38,-309.71 1987.6,-299.62 1978.79,-305.5 1984.38,-309.71"/>
</g>
<!-- Node26 -->
<g id="node21" class="node">
<title>Node26</title>
<g id="a_node21"><a xlink:href="ilist__node_8h.html" target="_top" xlink:title=" ">
<polygon fill="none" stroke="red" points="2351.03,-342 2351.03,-361 2461.03,-361 2461.03,-342 2351.03,-342"/>
<text text-anchor="middle" x="2406.03" y="-349" font-family="Helvetica" font-size="10.00">llvm/ADT/ilist_node.h</text>
</a>
</g>
</g>
<!-- Node59&#45;&gt;Node26 -->
<g id="edge39" class="edge">
<title>Node59&#45;&gt;Node26</title>
<path fill="none" stroke="midnightblue" d="M2379.21,-408.73C2383.91,-398.89 2391.65,-382.66 2397.61,-370.16"/>
<polygon fill="midnightblue" stroke="midnightblue" points="2400.77,-371.66 2401.92,-361.13 2394.45,-368.65 2400.77,-371.66"/>
</g>
<!-- Node68 -->
<g id="node22" class="node">
<title>Node68</title>
<g id="a_node22"><a xlink:href="MachineMemOperand_8h.html" target="_top" xlink:title=" ">
<polygon fill="none" stroke="red" points="2653.53,-342 2653.53,-361 2838.53,-361 2838.53,-342 2653.53,-342"/>
<text text-anchor="middle" x="2746.03" y="-349" font-family="Helvetica" font-size="10.00">llvm/CodeGen/MachineMemOperand.h</text>
</a>
</g>
</g>
<!-- Node59&#45;&gt;Node68 -->
<g id="edge41" class="edge">
<title>Node59&#45;&gt;Node68</title>
<path fill="none" stroke="midnightblue" d="M2423.92,-408.94C2491.85,-397.03 2614.64,-375.52 2687.41,-362.77"/>
<polygon fill="midnightblue" stroke="midnightblue" points="2688.09,-366.21 2697.34,-361.03 2686.88,-359.31 2688.09,-366.21"/>
</g>
<!-- Node113 -->
<g id="node23" class="node">
<title>Node113</title>
<g id="a_node23"><a xlink:href="MachineOperand_8h.html" target="_top" xlink:title=" ">
<polygon fill="none" stroke="red" points="2857.03,-342 2857.03,-361 3021.03,-361 3021.03,-342 2857.03,-342"/>
<text text-anchor="middle" x="2939.03" y="-349" font-family="Helvetica" font-size="10.00">llvm/CodeGen/MachineOperand.h</text>
</a>
</g>
</g>
<!-- Node59&#45;&gt;Node113 -->
<g id="edge43" class="edge">
<title>Node59&#45;&gt;Node113</title>
<path fill="none" stroke="midnightblue" d="M2448.1,-410.88C2541.15,-402.18 2706.82,-385.78 2848.03,-367 2857.9,-365.69 2868.36,-364.16 2878.52,-362.59"/>
<polygon fill="midnightblue" stroke="midnightblue" points="2879.22,-366.02 2888.56,-361.02 2878.14,-359.11 2879.22,-366.02"/>
</g>
<!-- Node121 -->
<g id="node26" class="node">
<title>Node121</title>
<g id="a_node26"><a xlink:href="TargetOpcodes_8h.html" target="_top" xlink:title=" ">
<polygon fill="none" stroke="red" points="2479.03,-342 2479.03,-361 2635.03,-361 2635.03,-342 2479.03,-342"/>
<text text-anchor="middle" x="2557.03" y="-349" font-family="Helvetica" font-size="10.00">llvm/CodeGen/TargetOpcodes.h</text>
</a>
</g>
</g>
<!-- Node59&#45;&gt;Node121 -->
<g id="edge54" class="edge">
<title>Node59&#45;&gt;Node121</title>
<path fill="none" stroke="midnightblue" d="M2399.2,-408.87C2431.11,-397.47 2487.45,-377.35 2523.47,-364.49"/>
<polygon fill="midnightblue" stroke="midnightblue" points="2524.81,-367.72 2533.05,-361.06 2522.46,-361.13 2524.81,-367.72"/>
</g>
<!-- Node59&#45;&gt;Node123 -->
<g id="edge55" class="edge">
<title>Node59&#45;&gt;Node123</title>
<path fill="none" stroke="midnightblue" d="M2357.5,-408.87C2335.02,-397.8 2295.8,-378.49 2269.63,-365.6"/>
<polygon fill="midnightblue" stroke="midnightblue" points="2271.15,-362.44 2260.63,-361.17 2268.06,-368.72 2271.15,-362.44"/>
</g>
<!-- Node124 -->
<g id="node28" class="node">
<title>Node124</title>
<g id="a_node28"><a xlink:href="InlineAsm_8h.html" target="_top" xlink:title=" ">
<polygon fill="none" stroke="red" points="3256.53,-280.5 3256.53,-299.5 3359.53,-299.5 3359.53,-280.5 3256.53,-280.5"/>
<text text-anchor="middle" x="3308.03" y="-287.5" font-family="Helvetica" font-size="10.00">llvm/IR/InlineAsm.h</text>
</a>
</g>
</g>
<!-- Node59&#45;&gt;Node124 -->
<g id="edge57" class="edge">
<title>Node59&#45;&gt;Node124</title>
<path fill="none" stroke="midnightblue" d="M2448.37,-415.14C2676.3,-407.62 3358.09,-383.76 3374.03,-367 3383.53,-357.01 3380.47,-348.18 3374.03,-336 3366.61,-321.95 3352.61,-311.47 3339.41,-304.17"/>
<polygon fill="midnightblue" stroke="midnightblue" points="3340.99,-301.04 3330.49,-299.62 3337.81,-307.28 3340.99,-301.04"/>
</g>
<!-- Node125 -->
<g id="node29" class="node">
<title>Node125</title>
<g id="a_node29"><a xlink:href="MCInstrDesc_8h.html" target="_top" xlink:title=" ">
<polygon fill="none" stroke="red" points="3039.53,-342 3039.53,-361 3162.53,-361 3162.53,-342 3039.53,-342"/>
<text text-anchor="middle" x="3101.03" y="-349" font-family="Helvetica" font-size="10.00">llvm/MC/MCInstrDesc.h</text>
</a>
</g>
</g>
<!-- Node59&#45;&gt;Node125 -->
<g id="edge61" class="edge">
<title>Node59&#45;&gt;Node125</title>
<path fill="none" stroke="midnightblue" d="M2448.05,-414.84C2569.37,-409.76 2819.95,-396.43 3030.03,-367 3037.74,-365.92 3045.87,-364.51 3053.77,-363.01"/>
<polygon fill="midnightblue" stroke="midnightblue" points="3054.47,-366.43 3063.6,-361.05 3053.11,-359.57 3054.47,-366.43"/>
</g>
<!-- Node131 -->
<g id="node30" class="node">
<title>Node131</title>
<g id="a_node30"><a xlink:href="MCSymbol_8h.html" target="_top" xlink:title=" ">
<polygon fill="none" stroke="red" points="2311.53,-224.5 2311.53,-243.5 2424.53,-243.5 2424.53,-224.5 2311.53,-224.5"/>
<text text-anchor="middle" x="2368.03" y="-231.5" font-family="Helvetica" font-size="10.00">llvm/MC/MCSymbol.h</text>
</a>
</g>
</g>
<!-- Node59&#45;&gt;Node131 -->
<g id="edge64" class="edge">
<title>Node59&#45;&gt;Node131</title>
<path fill="none" stroke="midnightblue" d="M2367.21,-409C2359.1,-399.56 2346.93,-383.46 2342.03,-367 2331,-329.94 2332.02,-317.35 2342.03,-280 2344.69,-270.1 2350.1,-260.13 2355.31,-252.1"/>
<polygon fill="midnightblue" stroke="midnightblue" points="2358.32,-253.89 2361.14,-243.68 2352.57,-249.91 2358.32,-253.89"/>
</g>
<!-- Node138 -->
<g id="node31" class="node">
<title>Node138</title>
<g id="a_node31"><a xlink:href="ArrayRecycler_8h.html" target="_top" xlink:title=" ">
<polygon fill="none" stroke="red" points="629.03,-342 629.03,-361 773.03,-361 773.03,-342 629.03,-342"/>
<text text-anchor="middle" x="701.03" y="-349" font-family="Helvetica" font-size="10.00">llvm/Support/ArrayRecycler.h</text>
</a>
</g>
</g>
<!-- Node59&#45;&gt;Node138 -->
<g id="edge67" class="edge">
<title>Node59&#45;&gt;Node138</title>
<path fill="none" stroke="midnightblue" d="M2301.68,-414.72C2041.84,-404.88 1174.06,-371.99 1049.03,-367 958.19,-363.38 854.01,-359.01 783.5,-356.02"/>
<polygon fill="midnightblue" stroke="midnightblue" points="783.48,-352.52 773.35,-355.59 783.19,-359.51 783.48,-352.52"/>
</g>
<!-- Node140 -->
<g id="node32" class="node">
<title>Node140</title>
<g id="a_node32"><a xlink:href="TrailingObjects_8h.html" target="_top" xlink:title="This header defines support for implementing classes that have some trailing object (or arrays of obj...">
<polygon fill="none" stroke="red" points="3769.03,-342 3769.03,-361 3917.03,-361 3917.03,-342 3769.03,-342"/>
<text text-anchor="middle" x="3843.03" y="-349" font-family="Helvetica" font-size="10.00">llvm/Support/TrailingObjects.h</text>
</a>
</g>
</g>
<!-- Node59&#45;&gt;Node140 -->
<g id="edge69" class="edge">
<title>Node59&#45;&gt;Node140</title>
<path fill="none" stroke="midnightblue" d="M2448.27,-416.15C2696.08,-411.38 3502.04,-394.11 3760.03,-367 3769.96,-365.96 3780.5,-364.44 3790.61,-362.77"/>
<polygon fill="midnightblue" stroke="midnightblue" points="3791.27,-366.21 3800.54,-361.07 3790.09,-359.31 3791.27,-366.21"/>
</g>
<!-- Node60&#45;&gt;Node5 -->
<g id="edge33" class="edge">
<title>Node60&#45;&gt;Node5</title>
<path fill="none" stroke="midnightblue" d="M1779.92,-224.14C1775.69,-194.62 1757.8,-99 1699.03,-56 1647.8,-18.52 1451.76,-12.21 1375.57,-11.18"/>
<polygon fill="midnightblue" stroke="midnightblue" points="1375.27,-7.68 1365.23,-11.07 1375.19,-14.68 1375.27,-7.68"/>
</g>
<!-- Node60&#45;&gt;Node20 -->
<g id="edge31" class="edge">
<title>Node60&#45;&gt;Node20</title>
<path fill="none" stroke="midnightblue" d="M1790.35,-224.25C1804.74,-211.01 1833.6,-185.56 1861.03,-168 1884.8,-152.78 1948.14,-120.56 1975.03,-112 2060.37,-84.86 2165.78,-73.57 2219.66,-69.31"/>
<polygon fill="midnightblue" stroke="midnightblue" points="2220.03,-72.79 2229.73,-68.55 2219.5,-65.81 2220.03,-72.79"/>
</g>
<!-- Node60&#45;&gt;Node23 -->
<g id="edge32" class="edge">
<title>Node60&#45;&gt;Node23</title>
<path fill="none" stroke="midnightblue" d="M1736.03,-224.44C1678.79,-213.56 1581.27,-195.02 1530.3,-185.33"/>
<polygon fill="midnightblue" stroke="midnightblue" points="1530.64,-181.83 1520.16,-183.4 1529.33,-188.7 1530.64,-181.83"/>
</g>
<!-- Node63 -->
<g id="node18" class="node">
<title>Node63</title>
<g id="a_node18"><a xlink:href="ArrayRef_8h.html" target="_top" xlink:title=" ">
<polygon fill="none" stroke="red" points="1033.03,-168.5 1033.03,-187.5 1139.03,-187.5 1139.03,-168.5 1033.03,-168.5"/>
<text text-anchor="middle" x="1086.03" y="-175.5" font-family="Helvetica" font-size="10.00">llvm/ADT/ArrayRef.h</text>
</a>
</g>
</g>
<!-- Node60&#45;&gt;Node63 -->
<g id="edge25" class="edge">
<title>Node60&#45;&gt;Node63</title>
<path fill="none" stroke="midnightblue" d="M1714.64,-228.26C1604.83,-220.35 1378.49,-203.78 1187.03,-188 1174.9,-187 1161.96,-185.88 1149.52,-184.79"/>
<polygon fill="midnightblue" stroke="midnightblue" points="1149.5,-181.27 1139.23,-183.87 1148.88,-188.24 1149.5,-181.27"/>
</g>
<!-- Node63&#45;&gt;Node20 -->
<g id="edge28" class="edge">
<title>Node63&#45;&gt;Node20</title>
<path fill="none" stroke="midnightblue" d="M1139.3,-171.99C1340.67,-153.04 2052.48,-86.06 2219.69,-70.33"/>
<polygon fill="midnightblue" stroke="midnightblue" points="2220.05,-73.81 2229.68,-69.39 2219.4,-66.84 2220.05,-73.81"/>
</g>
<!-- Node63&#45;&gt;Node30 -->
<g id="edge29" class="edge">
<title>Node63&#45;&gt;Node30</title>
<path fill="none" stroke="midnightblue" d="M1089.33,-168.13C1093.84,-154.26 1099.92,-127.44 1086.03,-112 1059.96,-83.02 790.37,-71.3 694.58,-68.03"/>
<polygon fill="midnightblue" stroke="midnightblue" points="694.67,-64.53 684.56,-67.69 694.44,-71.52 694.67,-64.53"/>
</g>
<!-- Node63&#45;&gt;Node41 -->
<g id="edge26" class="edge">
<title>Node63&#45;&gt;Node41</title>
<path fill="none" stroke="midnightblue" d="M1045.79,-168.44C1001.38,-159 929.88,-143.8 881.94,-133.61"/>
<polygon fill="midnightblue" stroke="midnightblue" points="882.6,-130.17 872.09,-131.52 881.15,-137.02 882.6,-130.17"/>
</g>
<!-- Node63&#45;&gt;Node31 -->
<g id="edge27" class="edge">
<title>Node63&#45;&gt;Node31</title>
<path fill="none" stroke="midnightblue" d="M1116.16,-168.46C1186.02,-148.65 1358.99,-99.61 1436,-77.78"/>
<polygon fill="midnightblue" stroke="midnightblue" points="1437.11,-81.11 1445.77,-75.01 1435.2,-74.37 1437.11,-81.11"/>
</g>
<!-- Node63&#45;&gt;Node65 -->
<g id="edge30" class="edge">
<title>Node63&#45;&gt;Node65</title>
<path fill="none" stroke="midnightblue" d="M1080.91,-168.08C1076.63,-160.61 1070.37,-149.72 1065.09,-140.52"/>
<polygon fill="midnightblue" stroke="midnightblue" points="1068.07,-138.68 1060.06,-131.75 1062,-142.17 1068.07,-138.68"/>
</g>
<!-- Node66&#45;&gt;Node20 -->
<g id="edge36" class="edge">
<title>Node66&#45;&gt;Node20</title>
<path fill="none" stroke="midnightblue" d="M2065.09,-284.26C2185.93,-275.75 2421.84,-257.51 2434.03,-244 2492.39,-179.36 2351.44,-108.1 2286.1,-79.7"/>
<polygon fill="midnightblue" stroke="midnightblue" points="2287.25,-76.38 2276.68,-75.67 2284.5,-82.82 2287.25,-76.38"/>
</g>
<!-- Node66&#45;&gt;Node23 -->
<g id="edge37" class="edge">
<title>Node66&#45;&gt;Node23</title>
<path fill="none" stroke="midnightblue" d="M1980.61,-280.39C1956,-266.13 1903.9,-237.82 1856.03,-224 1739.65,-190.4 1594.89,-181.89 1530.55,-179.73"/>
<polygon fill="midnightblue" stroke="midnightblue" points="1530.32,-176.22 1520.21,-179.42 1530.1,-183.22 1530.32,-176.22"/>
</g>
<!-- Node66&#45;&gt;Node60 -->
<g id="edge35" class="edge">
<title>Node66&#45;&gt;Node60</title>
<path fill="none" stroke="midnightblue" d="M1961.12,-280.44C1924.18,-271.12 1864.98,-256.18 1824.61,-246"/>
<polygon fill="midnightblue" stroke="midnightblue" points="1825.34,-242.57 1814.78,-243.52 1823.62,-249.36 1825.34,-242.57"/>
</g>
<!-- Node68&#45;&gt;Node15 -->
<g id="edge42" class="edge">
<title>Node68&#45;&gt;Node15</title>
<path fill="none" stroke="midnightblue" d="M2698.75,-341.98C2639.2,-331.24 2536.98,-312.81 2473.13,-301.29"/>
<polygon fill="midnightblue" stroke="midnightblue" points="2473.69,-297.84 2463.23,-299.51 2472.45,-304.73 2473.69,-297.84"/>
</g>
<!-- Node113&#45;&gt;Node20 -->
<g id="edge53" class="edge">
<title>Node113&#45;&gt;Node20</title>
<path fill="none" stroke="midnightblue" d="M2883.13,-341.97C2825.2,-329.58 2743.03,-300.47 2743.03,-235 2743.03,-235 2743.03,-235 2743.03,-177 2743.03,-84.14 2402.5,-69.66 2290.36,-67.41"/>
<polygon fill="midnightblue" stroke="midnightblue" points="2290.3,-63.91 2280.24,-67.23 2290.18,-70.91 2290.3,-63.91"/>
</g>
<!-- Node113&#45;&gt;Node15 -->
<g id="edge52" class="edge">
<title>Node113&#45;&gt;Node15</title>
<path fill="none" stroke="midnightblue" d="M2888.57,-341.94C2875.39,-339.85 2861.2,-337.72 2848.03,-336 2691.66,-315.58 2651.82,-316.93 2495.03,-300 2493.76,-299.86 2492.47,-299.72 2491.18,-299.58"/>
<polygon fill="midnightblue" stroke="midnightblue" points="2491.45,-296.09 2481.12,-298.48 2490.68,-303.05 2491.45,-296.09"/>
</g>
<!-- Node76 -->
<g id="node24" class="node">
<title>Node76</title>
<g id="a_node24"><a xlink:href="DenseMap_8h.html" target="_top" xlink:title=" ">
<polygon fill="none" stroke="red" points="1601.03,-280.5 1601.03,-299.5 1717.03,-299.5 1717.03,-280.5 1601.03,-280.5"/>
<text text-anchor="middle" x="1659.03" y="-287.5" font-family="Helvetica" font-size="10.00">llvm/ADT/DenseMap.h</text>
</a>
</g>
</g>
<!-- Node113&#45;&gt;Node76 -->
<g id="edge44" class="edge">
<title>Node113&#45;&gt;Node76</title>
<path fill="none" stroke="midnightblue" d="M2892.41,-341.97C2878.21,-339.67 2862.52,-337.42 2848.03,-336 2820.01,-333.25 1976.6,-302.52 1727.6,-293.48"/>
<polygon fill="midnightblue" stroke="midnightblue" points="1727.36,-289.97 1717.24,-293.11 1727.11,-296.97 1727.36,-289.97"/>
</g>
<!-- Node114 -->
<g id="node25" class="node">
<title>Node114</title>
<g id="a_node25"><a xlink:href="Register_8h.html" target="_top" xlink:title=" ">
<polygon fill="none" stroke="red" points="3112.03,-280.5 3112.03,-299.5 3238.03,-299.5 3238.03,-280.5 3112.03,-280.5"/>
<text text-anchor="middle" x="3175.03" y="-287.5" font-family="Helvetica" font-size="10.00">llvm/CodeGen/Register.h</text>
</a>
</g>
</g>
<!-- Node113&#45;&gt;Node114 -->
<g id="edge50" class="edge">
<title>Node113&#45;&gt;Node114</title>
<path fill="none" stroke="midnightblue" d="M2972.85,-341.98C3014.56,-331.46 3085.55,-313.56 3131.35,-302.01"/>
<polygon fill="midnightblue" stroke="midnightblue" points="3132.44,-305.35 3141.28,-299.51 3130.73,-298.56 3132.44,-305.35"/>
</g>
<!-- Node76&#45;&gt;Node5 -->
<g id="edge49" class="edge">
<title>Node76&#45;&gt;Node5</title>
<path fill="none" stroke="midnightblue" d="M1660.39,-280.1C1662.06,-267.51 1664.31,-243.83 1661.03,-224 1652.04,-169.48 1646.7,-150.47 1607.03,-112 1540.74,-47.7 1429.08,-23.26 1375.51,-14.89"/>
<polygon fill="midnightblue" stroke="midnightblue" points="1375.7,-11.38 1365.29,-13.38 1374.68,-18.31 1375.7,-11.38"/>
</g>
<!-- Node76&#45;&gt;Node20 -->
<g id="edge47" class="edge">
<title>Node76&#45;&gt;Node20</title>
<path fill="none" stroke="midnightblue" d="M1708.46,-280.46C1758.02,-271.41 1830.51,-256.7 1856.03,-244 1937.65,-203.38 1930.61,-150.95 2013.03,-112 2081.42,-79.68 2170.94,-70.54 2219.67,-67.98"/>
<polygon fill="midnightblue" stroke="midnightblue" points="2219.88,-71.47 2229.71,-67.51 2219.56,-64.48 2219.88,-71.47"/>
</g>
<!-- Node76&#45;&gt;Node30 -->
<g id="edge48" class="edge">
<title>Node76&#45;&gt;Node30</title>
<path fill="none" stroke="midnightblue" d="M1652.53,-280.34C1635.17,-257.9 1585.25,-197.56 1529.03,-168 1380.01,-89.63 836.85,-71.23 695.07,-67.73"/>
<polygon fill="midnightblue" stroke="midnightblue" points="694.9,-64.22 684.82,-67.48 694.74,-71.22 694.9,-64.22"/>
</g>
<!-- Node76&#45;&gt;Node31 -->
<g id="edge46" class="edge">
<title>Node76&#45;&gt;Node31</title>
<path fill="none" stroke="midnightblue" d="M1657.8,-280.32C1653.37,-252.13 1635.71,-162.13 1585.03,-112 1565.24,-92.42 1535.79,-81.01 1512.2,-74.59"/>
<polygon fill="midnightblue" stroke="midnightblue" points="1513.05,-71.19 1502.5,-72.13 1511.33,-77.98 1513.05,-71.19"/>
</g>
<!-- Node76&#45;&gt;Node60 -->
<g id="edge45" class="edge">
<title>Node76&#45;&gt;Node60</title>
<path fill="none" stroke="midnightblue" d="M1678.36,-280.44C1698.35,-271.6 1729.78,-257.69 1752.6,-247.59"/>
<polygon fill="midnightblue" stroke="midnightblue" points="1754.06,-250.76 1761.79,-243.52 1751.23,-244.36 1754.06,-250.76"/>
</g>
<!-- Node114&#45;&gt;Node20 -->
<g id="edge51" class="edge">
<title>Node114&#45;&gt;Node20</title>
<path fill="none" stroke="midnightblue" d="M3174.34,-280.41C3171.43,-250.91 3157.49,-153.28 3098.03,-112 3030.95,-65.42 2441.58,-65.84 2290.3,-66.73"/>
<polygon fill="midnightblue" stroke="midnightblue" points="2290.16,-63.23 2280.18,-66.79 2290.2,-70.23 2290.16,-63.23"/>
</g>
<!-- Node123&#45;&gt;Node15 -->
<g id="edge56" class="edge">
<title>Node123&#45;&gt;Node15</title>
<path fill="none" stroke="midnightblue" d="M2267.82,-341.98C2297.62,-331.72 2347.82,-314.46 2381.43,-302.9"/>
<polygon fill="midnightblue" stroke="midnightblue" points="2382.97,-306.07 2391.29,-299.51 2380.7,-299.45 2382.97,-306.07"/>
</g>
<!-- Node124&#45;&gt;Node20 -->
<g id="edge58" class="edge">
<title>Node124&#45;&gt;Node20</title>
<path fill="none" stroke="midnightblue" d="M3302.31,-280.17C3282.09,-249.9 3210.48,-150.05 3122.03,-112 3044.79,-78.77 2443.47,-69.28 2290.39,-67.39"/>
<polygon fill="midnightblue" stroke="midnightblue" points="2290.2,-63.89 2280.16,-67.27 2290.12,-70.89 2290.2,-63.89"/>
</g>
<!-- Node124&#45;&gt;Node35 -->
<g id="edge59" class="edge">
<title>Node124&#45;&gt;Node35</title>
<path fill="none" stroke="midnightblue" d="M3329.74,-280.44C3352.65,-271.41 3388.95,-257.11 3414.69,-246.96"/>
<polygon fill="midnightblue" stroke="midnightblue" points="3416.3,-250.09 3424.32,-243.16 3413.74,-243.57 3416.3,-250.09"/>
</g>
<!-- Node124&#45;&gt;Node65 -->
<g id="edge60" class="edge">
<title>Node124&#45;&gt;Node65</title>
<path fill="none" stroke="midnightblue" d="M3256.46,-281.27C3253.27,-280.83 3250.11,-280.4 3247.03,-280 2813.23,-223.17 2705.29,-201.02 2269.03,-168 1800.13,-132.51 1227.13,-124.71 1087.04,-123.28"/>
<polygon fill="midnightblue" stroke="midnightblue" points="1086.66,-119.78 1076.63,-123.18 1086.59,-126.78 1086.66,-119.78"/>
</g>
<!-- Node125&#45;&gt;Node15 -->
<g id="edge62" class="edge">
<title>Node125&#45;&gt;Node15</title>
<path fill="none" stroke="midnightblue" d="M3063.98,-341.95C3053.09,-339.71 3041.13,-337.5 3030.03,-336 2793.86,-304.09 2732.38,-321.49 2495.03,-300 2493.76,-299.88 2492.47,-299.77 2491.17,-299.64"/>
<polygon fill="midnightblue" stroke="midnightblue" points="2491.4,-296.15 2481.11,-298.65 2490.72,-303.12 2491.4,-296.15"/>
</g>
<!-- Node125&#45;&gt;Node35 -->
<g id="edge63" class="edge">
<title>Node125&#45;&gt;Node35</title>
<path fill="none" stroke="midnightblue" d="M3162.76,-342.63C3230.2,-333.37 3333.38,-317.09 3369.03,-300 3393.6,-288.22 3416.61,-266.46 3430.74,-251.38"/>
<polygon fill="midnightblue" stroke="midnightblue" points="3433.49,-253.55 3437.63,-243.79 3428.31,-248.84 3433.49,-253.55"/>
</g>
<!-- Node131&#45;&gt;Node20 -->
<g id="edge65" class="edge">
<title>Node131&#45;&gt;Node20</title>
<path fill="none" stroke="midnightblue" d="M2365.05,-224.43C2357.55,-203.68 2336.4,-149.66 2307.03,-112 2298.09,-100.52 2285.87,-89.78 2275.53,-81.66"/>
<polygon fill="midnightblue" stroke="midnightblue" points="2277.48,-78.75 2267.4,-75.51 2273.26,-84.34 2277.48,-78.75"/>
</g>
<!-- Node131&#45;&gt;Node23 -->
<g id="edge66" class="edge">
<title>Node131&#45;&gt;Node23</title>
<path fill="none" stroke="midnightblue" d="M2311.22,-229.48C2144.79,-219.16 1661.84,-189.22 1530.4,-181.07"/>
<polygon fill="midnightblue" stroke="midnightblue" points="1530.36,-177.56 1520.16,-180.43 1529.92,-184.55 1530.36,-177.56"/>
</g>
<!-- Node138&#45;&gt;Node41 -->
<g id="edge68" class="edge">
<title>Node138&#45;&gt;Node41</title>
<path fill="none" stroke="midnightblue" d="M699.28,-341.77C694.1,-313.37 681.72,-222.38 723.03,-168 735.43,-151.68 754.79,-141.25 773.78,-134.59"/>
<polygon fill="midnightblue" stroke="midnightblue" points="774.88,-137.91 783.34,-131.52 772.75,-131.24 774.88,-137.91"/>
</g>
<!-- Node90 -->
<g id="node33" class="node">
<title>Node90</title>
<g id="a_node33"><a xlink:href="Alignment_8h.html" target="_top" xlink:title=" ">
<polygon fill="none" stroke="red" points="3654.03,-280.5 3654.03,-299.5 3780.03,-299.5 3780.03,-280.5 3654.03,-280.5"/>
<text text-anchor="middle" x="3717.03" y="-287.5" font-family="Helvetica" font-size="10.00">llvm/Support/Alignment.h</text>
</a>
</g>
</g>
<!-- Node140&#45;&gt;Node90 -->
<g id="edge70" class="edge">
<title>Node140&#45;&gt;Node90</title>
<path fill="none" stroke="midnightblue" d="M3824.98,-341.98C3803.83,-331.99 3768.59,-315.35 3744.15,-303.81"/>
<polygon fill="midnightblue" stroke="midnightblue" points="3745.59,-300.61 3735.05,-299.51 3742.6,-306.94 3745.59,-300.61"/>
</g>
<!-- Node90&#45;&gt;Node20 -->
<g id="edge71" class="edge">
<title>Node90&#45;&gt;Node20</title>
<path fill="none" stroke="midnightblue" d="M3696.48,-280.46C3623.73,-250.68 3371.1,-151.15 3152.03,-112 2982.07,-81.62 2434.9,-70.13 2290.34,-67.58"/>
<polygon fill="midnightblue" stroke="midnightblue" points="2290.31,-64.08 2280.25,-67.4 2290.19,-71.08 2290.31,-64.08"/>
</g>
<!-- Node90&#45;&gt;Node35 -->
<g id="edge72" class="edge">
<title>Node90&#45;&gt;Node35</title>
<path fill="none" stroke="midnightblue" d="M3673.93,-280.44C3618.67,-269.47 3524.2,-250.72 3475.72,-241.09"/>
<polygon fill="midnightblue" stroke="midnightblue" points="3476.31,-237.64 3465.82,-239.13 3474.95,-244.51 3476.31,-237.64"/>
</g>
<!-- Node141&#45;&gt;Node6 -->
<g id="edge78" class="edge">
<title>Node141&#45;&gt;Node6</title>
<path fill="none" stroke="midnightblue" d="M1470.79,-405.11C1466.14,-404.37 1461.52,-403.66 1457.03,-403 1323.29,-383.36 1287.87,-392 1155.03,-367 1149.67,-365.99 1144.05,-364.76 1138.54,-363.44"/>
<polygon fill="midnightblue" stroke="midnightblue" points="1139.35,-360.03 1128.8,-361 1137.65,-366.82 1139.35,-360.03"/>
</g>
<!-- Node141&#45;&gt;Node20 -->
<g id="edge79" class="edge">
<title>Node141&#45;&gt;Node20</title>
<path fill="none" stroke="midnightblue" d="M1550.39,-403.28C1564.63,-384.82 1592.03,-352.97 1623.03,-336 1685.83,-301.63 1711.81,-321.7 1780.03,-300 1842.32,-280.18 1857.9,-273.88 1916.03,-244 2014.41,-193.43 2027.36,-159.97 2127.03,-112 2157.39,-97.39 2193.78,-85.06 2219.98,-77.02"/>
<polygon fill="midnightblue" stroke="midnightblue" points="2221.28,-80.29 2229.84,-74.05 2219.26,-73.59 2221.28,-80.29"/>
</g>
<!-- Node141&#45;&gt;Node30 -->
<g id="edge80" class="edge">
<title>Node141&#45;&gt;Node30</title>
<path fill="none" stroke="midnightblue" d="M1470.76,-408.24C1392.69,-397.46 1270.82,-379.56 1226.03,-367 1190.91,-357.15 1185.3,-345.33 1150.03,-336 1030.44,-304.38 983.98,-356.69 874.03,-300 773.95,-248.39 697.31,-129.54 670.96,-84.62"/>
<polygon fill="midnightblue" stroke="midnightblue" points="673.88,-82.68 665.85,-75.76 667.81,-86.17 673.88,-82.68"/>
</g>
<!-- Node127&#45;&gt;Node40 -->
<g id="edge83" class="edge">
<title>Node127&#45;&gt;Node40</title>
<path fill="none" stroke="midnightblue" d="M1727.25,-408.73C1728.57,-399.18 1730.72,-383.62 1732.43,-371.28"/>
<polygon fill="midnightblue" stroke="midnightblue" points="1735.93,-371.51 1733.84,-361.13 1729,-370.55 1735.93,-371.51"/>
</g>
<!-- Node142&#45;&gt;Node20 -->
<g id="edge87" class="edge">
<title>Node142&#45;&gt;Node20</title>
<path fill="none" stroke="midnightblue" d="M2143.25,-341.96C2186.84,-333.41 2245.09,-318.82 2259.03,-300 2307.56,-234.51 2277.23,-127.8 2262.11,-85.3"/>
<polygon fill="midnightblue" stroke="midnightblue" points="2265.32,-83.9 2258.57,-75.73 2258.75,-86.33 2265.32,-83.9"/>
</g>
<!-- Node142&#45;&gt;Node31 -->
<g id="edge86" class="edge">
<title>Node142&#45;&gt;Node31</title>
<path fill="none" stroke="midnightblue" d="M2098.02,-341.85C2105.23,-328.14 2116.68,-300.84 2107.03,-280 2090.87,-245.09 2074.88,-242.28 2041.03,-224 1857.81,-125.07 1606.85,-84.14 1512.22,-71.57"/>
<polygon fill="midnightblue" stroke="midnightblue" points="1512.61,-68.1 1502.24,-70.28 1511.71,-75.04 1512.61,-68.1"/>
</g>
<!-- Node142&#45;&gt;Node15 -->
<g id="edge85" class="edge">
<title>Node142&#45;&gt;Node15</title>
<path fill="none" stroke="midnightblue" d="M2139.31,-341.98C2197.48,-331.26 2297.24,-312.88 2359.76,-301.37"/>
<polygon fill="midnightblue" stroke="midnightblue" points="2360.64,-304.76 2369.84,-299.51 2359.37,-297.88 2360.64,-304.76"/>
</g>
<!-- Node145 -->
<g id="node39" class="node">
<title>Node145</title>
<g id="a_node39"><a xlink:href="MachineFunction_8h.html" target="_top" xlink:title=" ">
<polygon fill="none" stroke="red" points="966.03,-537.5 966.03,-556.5 1130.03,-556.5 1130.03,-537.5 966.03,-537.5"/>
<text text-anchor="middle" x="1048.03" y="-544.5" font-family="Helvetica" font-size="10.00">llvm/CodeGen/MachineFunction.h</text>
</a>
</g>
</g>
<!-- Node144&#45;&gt;Node145 -->
<g id="edge95" class="edge">
<title>Node144&#45;&gt;Node145</title>
<path fill="none" stroke="midnightblue" d="M1529.01,-599.2C1426.49,-588.28 1246.76,-569.15 1138.43,-557.62"/>
<polygon fill="midnightblue" stroke="midnightblue" points="1138.49,-554.11 1128.17,-556.53 1137.74,-561.07 1138.49,-554.11"/>
</g>
<!-- Node144&#45;&gt;Node151 -->
<g id="edge117" class="edge">
<title>Node144&#45;&gt;Node151</title>
<path fill="none" stroke="midnightblue" d="M1685.27,-605.64C2030.97,-597.11 3407.43,-559.54 3477.03,-501 3534.39,-452.76 3532.01,-351.56 3528.24,-309.72"/>
<polygon fill="midnightblue" stroke="midnightblue" points="3531.7,-309.17 3527.19,-299.59 3524.74,-309.89 3531.7,-309.17"/>
</g>
<!-- Node145&#45;&gt;Node2 -->
<g id="edge109" class="edge">
<title>Node145&#45;&gt;Node2</title>
<path fill="none" stroke="midnightblue" d="M1130.37,-539.6C1277.73,-528.16 1584.84,-504.3 1731.99,-492.87"/>
<polygon fill="midnightblue" stroke="midnightblue" points="1732.6,-496.34 1742.3,-492.07 1732.06,-489.36 1732.6,-496.34"/>
</g>
<!-- Node145&#45;&gt;Node3 -->
<g id="edge106" class="edge">
<title>Node145&#45;&gt;Node3</title>
<path fill="none" stroke="midnightblue" d="M965.85,-539.84C890.59,-533.09 785.54,-520.54 749.03,-501 720.93,-485.95 698.03,-455.91 685.48,-436.8"/>
<polygon fill="midnightblue" stroke="midnightblue" points="688.34,-434.77 680.04,-428.18 682.42,-438.51 688.34,-434.77"/>
</g>
<!-- Node145&#45;&gt;Node5 -->
<g id="edge115" class="edge">
<title>Node145&#45;&gt;Node5</title>
<path fill="none" stroke="midnightblue" d="M1071.34,-537.34C1095.37,-528.37 1133.89,-513.9 1167.03,-501 1350.85,-429.45 1391.22,-396.28 1579.03,-336 1643.08,-315.45 1662.26,-321.38 1726.03,-300 1729.76,-298.75 1853.87,-247.28 1856.03,-244 1908.89,-163.67 2106.52,-270.42 1723.03,-56 1663.53,-22.73 1454.46,-13.86 1375.52,-11.67"/>
<polygon fill="midnightblue" stroke="midnightblue" points="1375.36,-8.16 1365.27,-11.4 1375.18,-15.16 1375.36,-8.16"/>
</g>
<!-- Node145&#45;&gt;Node6 -->
<g id="edge108" class="edge">
<title>Node145&#45;&gt;Node6</title>
<path fill="none" stroke="midnightblue" d="M1050.29,-537.44C1057.99,-508.22 1083.34,-412.06 1094.11,-371.17"/>
<polygon fill="midnightblue" stroke="midnightblue" points="1097.52,-371.97 1096.69,-361.41 1090.75,-370.18 1097.52,-371.97"/>
</g>
<!-- Node145&#45;&gt;Node20 -->
<g id="edge113" class="edge">
<title>Node145&#45;&gt;Node20</title>
<path fill="none" stroke="midnightblue" d="M1130.24,-545.67C1527.72,-543.89 3241.01,-534.37 3477.03,-501 3733.65,-464.72 4021.03,-550.17 4021.03,-291 4021.03,-291 4021.03,-291 4021.03,-233 4021.03,-97.06 3796.66,-123.07 3709.03,-112 3422.09,-75.75 2484.68,-68.34 2290.45,-67.19"/>
<polygon fill="midnightblue" stroke="midnightblue" points="2290.27,-63.69 2280.25,-67.13 2290.22,-70.68 2290.27,-63.69"/>
</g>
<!-- Node145&#45;&gt;Node41 -->
<g id="edge107" class="edge">
<title>Node145&#45;&gt;Node41</title>
<path fill="none" stroke="midnightblue" d="M965.99,-542.87C921.34,-538.01 866.67,-526.69 824.03,-501 775.87,-471.99 790.93,-434.02 744.03,-403 696.17,-371.34 671.49,-392.4 620.03,-367 575,-344.77 551.69,-344.82 529.03,-300 478.38,-199.8 657.71,-152.13 762.13,-133.29"/>
<polygon fill="midnightblue" stroke="midnightblue" points="762.75,-136.74 771.99,-131.56 761.53,-129.84 762.75,-136.74"/>
</g>
<!-- Node145&#45;&gt;Node23 -->
<g id="edge114" class="edge">
<title>Node145&#45;&gt;Node23</title>
<path fill="none" stroke="midnightblue" d="M1044.66,-537.47C1032.9,-506.15 997.14,-396.2 1049.03,-336 1083.39,-296.15 1233.32,-317.23 1283.03,-300 1303.2,-293.01 1422.53,-223.06 1473.72,-192.81"/>
<polygon fill="midnightblue" stroke="midnightblue" points="1475.63,-195.75 1482.45,-187.65 1472.06,-189.73 1475.63,-195.75"/>
</g>
<!-- Node145&#45;&gt;Node59 -->
<g id="edge110" class="edge">
<title>Node145&#45;&gt;Node59</title>
<path fill="none" stroke="midnightblue" d="M1130.05,-544.78C1281.59,-541.82 1615.49,-532.05 1895.03,-501 2052.81,-483.47 2237.44,-447.8 2324.59,-430.04"/>
<polygon fill="midnightblue" stroke="midnightblue" points="2325.39,-433.45 2334.48,-428.01 2323.98,-426.59 2325.39,-433.45"/>
</g>
<!-- Node145&#45;&gt;Node63 -->
<g id="edge96" class="edge">
<title>Node145&#45;&gt;Node63</title>
<path fill="none" stroke="midnightblue" d="M1026.66,-537.45C989.07,-520.83 915.03,-480.37 915.03,-419.5 915.03,-419.5 915.03,-419.5 915.03,-350.5 915.03,-271.27 1007.68,-215.76 1056.59,-191.98"/>
<polygon fill="midnightblue" stroke="midnightblue" points="1058.2,-195.08 1065.75,-187.64 1055.21,-188.76 1058.2,-195.08"/>
</g>
<!-- Node145&#45;&gt;Node65 -->
<g id="edge116" class="edge">
<title>Node145&#45;&gt;Node65</title>
<path fill="none" stroke="midnightblue" d="M997.07,-537.42C973.72,-531.04 947.43,-520 930.03,-501 879.75,-446.09 886.62,-409.05 901.03,-336 918.29,-248.55 998.88,-170.54 1036.1,-138.48"/>
<polygon fill="midnightblue" stroke="midnightblue" points="1038.78,-140.8 1044.16,-131.67 1034.26,-135.45 1038.78,-140.8"/>
</g>
<!-- Node145&#45;&gt;Node68 -->
<g id="edge111" class="edge">
<title>Node145&#45;&gt;Node68</title>
<path fill="none" stroke="midnightblue" d="M1130.3,-545.04C1297.28,-542.45 1687.81,-533.18 2014.03,-501 2212.2,-481.45 2262.38,-475.99 2457.03,-434 2549.43,-414.07 2655.91,-381.49 2710.18,-364.17"/>
<polygon fill="midnightblue" stroke="midnightblue" points="2711.55,-367.41 2720.01,-361.02 2709.42,-360.74 2711.55,-367.41"/>
</g>
<!-- Node145&#45;&gt;Node76 -->
<g id="edge105" class="edge">
<title>Node145&#45;&gt;Node76</title>
<path fill="none" stroke="midnightblue" d="M1062.48,-537.3C1115.27,-505.87 1303.39,-396.79 1471.03,-336 1513.14,-320.73 1562.43,-309.15 1599.98,-301.57"/>
<polygon fill="midnightblue" stroke="midnightblue" points="1601.12,-304.91 1610.24,-299.53 1599.76,-298.04 1601.12,-304.91"/>
</g>
<!-- Node145&#45;&gt;Node138 -->
<g id="edge112" class="edge">
<title>Node145&#45;&gt;Node138</title>
<path fill="none" stroke="midnightblue" d="M967.88,-537.42C933.72,-531.09 894.56,-520.09 863.03,-501 813.47,-470.98 820.66,-441.15 777.03,-403 761.03,-389.01 740.93,-375.81 725.42,-366.42"/>
<polygon fill="midnightblue" stroke="midnightblue" points="726.82,-363.18 716.43,-361.09 723.25,-369.2 726.82,-363.18"/>
</g>
<!-- Node99 -->
<g id="node40" class="node">
<title>Node99</title>
<g id="a_node40"><a xlink:href="BitVector_8h.html" target="_top" xlink:title=" ">
<polygon fill="none" stroke="red" points="1095.03,-280.5 1095.03,-299.5 1203.03,-299.5 1203.03,-280.5 1095.03,-280.5"/>
<text text-anchor="middle" x="1149.03" y="-287.5" font-family="Helvetica" font-size="10.00">llvm/ADT/BitVector.h</text>
</a>
</g>
</g>
<!-- Node145&#45;&gt;Node99 -->
<g id="edge97" class="edge">
<title>Node145&#45;&gt;Node99</title>
<path fill="none" stroke="midnightblue" d="M1040.04,-537.47C1012.5,-507.03 926,-402.11 977.03,-336 990.42,-318.66 1041.84,-306.71 1085,-299.51"/>
<polygon fill="midnightblue" stroke="midnightblue" points="1085.6,-302.96 1094.92,-297.92 1084.49,-296.05 1085.6,-302.96"/>
</g>
<!-- Node99&#45;&gt;Node4 -->
<g id="edge100" class="edge">
<title>Node99&#45;&gt;Node4</title>
<path fill="none" stroke="midnightblue" d="M1119.94,-280.43C1002.96,-245.99 566.85,-117.59 433.81,-78.42"/>
<polygon fill="midnightblue" stroke="midnightblue" points="434.62,-75.01 424.04,-75.54 432.65,-81.72 434.62,-75.01"/>
</g>
<!-- Node99&#45;&gt;Node5 -->
<g id="edge104" class="edge">
<title>Node99&#45;&gt;Node5</title>
<path fill="none" stroke="midnightblue" d="M1129.71,-280.28C1100.46,-265.89 1046.04,-234.07 1024.03,-188 1017.5,-174.32 1008.22,-134.51 1025.03,-112 1060.58,-64.4 1242.63,-28.53 1315.16,-15.92"/>
<polygon fill="midnightblue" stroke="midnightblue" points="1315.77,-19.37 1325.03,-14.23 1314.58,-12.47 1315.77,-19.37"/>
</g>
<!-- Node99&#45;&gt;Node20 -->
<g id="edge102" class="edge">
<title>Node99&#45;&gt;Node20</title>
<path fill="none" stroke="midnightblue" d="M1198.07,-280.48C1315.33,-259.64 1620.74,-202.59 1870.03,-132 1895.86,-124.69 1900.94,-118.3 1927.03,-112 2031.92,-86.68 2159.36,-74.29 2219.87,-69.49"/>
<polygon fill="midnightblue" stroke="midnightblue" points="2220.33,-72.97 2230.03,-68.71 2219.79,-65.99 2220.33,-72.97"/>
</g>
<!-- Node99&#45;&gt;Node31 -->
<g id="edge101" class="edge">
<title>Node99&#45;&gt;Node31</title>
<path fill="none" stroke="midnightblue" d="M1149.19,-280.35C1150.08,-258.44 1155.44,-200.24 1187.03,-168 1222.15,-132.16 1246.66,-148.52 1294.03,-132 1345.65,-114 1405.27,-92.29 1441.28,-79.07"/>
<polygon fill="midnightblue" stroke="midnightblue" points="1442.61,-82.31 1450.79,-75.58 1440.2,-75.74 1442.61,-82.31"/>
</g>
<!-- Node99&#45;&gt;Node23 -->
<g id="edge103" class="edge">
<title>Node99&#45;&gt;Node23</title>
<path fill="none" stroke="midnightblue" d="M1160.07,-280.31C1178.58,-266.19 1217.55,-238.41 1255.03,-224 1326.42,-196.56 1416.27,-185.49 1463.87,-181.32"/>
<polygon fill="midnightblue" stroke="midnightblue" points="1464.25,-184.8 1473.92,-180.48 1463.67,-177.82 1464.25,-184.8"/>
</g>
<!-- Node99&#45;&gt;Node60 -->
<g id="edge99" class="edge">
<title>Node99&#45;&gt;Node60</title>
<path fill="none" stroke="midnightblue" d="M1203.19,-284.37C1315.69,-274.76 1574.97,-252.61 1704.49,-241.54"/>
<polygon fill="midnightblue" stroke="midnightblue" points="1705.06,-245 1714.73,-240.67 1704.46,-238.03 1705.06,-245"/>
</g>
<!-- Node99&#45;&gt;Node63 -->
<g id="edge98" class="edge">
<title>Node99&#45;&gt;Node63</title>
<path fill="none" stroke="midnightblue" d="M1144.09,-280.37C1133.74,-262.3 1109.62,-220.18 1095.95,-196.31"/>
<polygon fill="midnightblue" stroke="midnightblue" points="1098.96,-194.53 1090.95,-187.59 1092.89,-198.01 1098.96,-194.53"/>
</g>
<!-- Node151&#45;&gt;Node35 -->
<g id="edge118" class="edge">
<title>Node151&#45;&gt;Node35</title>
<path fill="none" stroke="midnightblue" d="M3513.02,-280.32C3500.5,-271.98 3481.35,-259.21 3466.56,-249.35"/>
<polygon fill="midnightblue" stroke="midnightblue" points="3468.28,-246.29 3458.01,-243.65 3464.39,-252.11 3468.28,-246.29"/>
</g>
<!-- Node158&#45;&gt;Node20 -->
<g id="edge124" class="edge">
<title>Node158&#45;&gt;Node20</title>
<path fill="none" stroke="midnightblue" d="M3365.22,-347.53C3495.52,-341.6 3757.15,-326.52 3789.03,-300 3812.17,-280.75 3808.03,-265.1 3808.03,-235 3808.03,-235 3808.03,-235 3808.03,-177 3808.03,-98.26 2520.99,-71.72 2290.24,-67.6"/>
<polygon fill="midnightblue" stroke="midnightblue" points="2290.12,-64.09 2280.06,-67.42 2289.99,-71.09 2290.12,-64.09"/>
</g>
<!-- Node158&#45;&gt;Node41 -->
<g id="edge120" class="edge">
<title>Node158&#45;&gt;Node41</title>
<path fill="none" stroke="midnightblue" d="M3218.85,-340.44C3203.42,-338.66 3187.21,-337.05 3172.03,-336 3056.4,-328.04 1196.31,-335.68 1086.03,-300 982.87,-266.62 884.56,-175.93 847.52,-138.98"/>
<polygon fill="midnightblue" stroke="midnightblue" points="849.72,-136.22 840.2,-131.57 844.74,-141.14 849.72,-136.22"/>
</g>
<!-- Node158&#45;&gt;Node15 -->
<g id="edge123" class="edge">
<title>Node158&#45;&gt;Node15</title>
<path fill="none" stroke="midnightblue" d="M3218.82,-340.86C3203.39,-339.05 3187.19,-337.32 3172.03,-336 2871.85,-309.91 2795.3,-325.06 2495.03,-300 2493.76,-299.89 2492.47,-299.78 2491.17,-299.67"/>
<polygon fill="midnightblue" stroke="midnightblue" points="2491.38,-296.17 2481.1,-298.73 2490.73,-303.14 2491.38,-296.17"/>
</g>
<!-- Node158&#45;&gt;Node65 -->
<g id="edge125" class="edge">
<title>Node158&#45;&gt;Node65</title>
<path fill="none" stroke="midnightblue" d="M3218.81,-337.85C3070.94,-312.72 2725.88,-256.16 2434.03,-224 1896.89,-164.81 1238.08,-131.62 1086.95,-124.47"/>
<polygon fill="midnightblue" stroke="midnightblue" points="1086.72,-120.96 1076.56,-123.98 1086.39,-127.95 1086.72,-120.96"/>
</g>
<!-- Node158&#45;&gt;Node114 -->
<g id="edge121" class="edge">
<title>Node158&#45;&gt;Node114</title>
<path fill="none" stroke="midnightblue" d="M3264.31,-336.4C3245.2,-326.68 3219.97,-313.86 3201.21,-304.31"/>
<polygon fill="midnightblue" stroke="midnightblue" points="3202.56,-301.07 3192.06,-299.66 3199.38,-307.31 3202.56,-301.07"/>
</g>
<!-- Node158&#45;&gt;Node90 -->
<g id="edge122" class="edge">
<title>Node158&#45;&gt;Node90</title>
<path fill="none" stroke="midnightblue" d="M3365.09,-340.27C3443.79,-329.25 3568.18,-311.84 3646.06,-300.94"/>
<polygon fill="midnightblue" stroke="midnightblue" points="3646.85,-304.36 3656.27,-299.51 3645.88,-297.43 3646.85,-304.36"/>
</g>
<!-- Node159&#45;&gt;Node2 -->
<g id="edge136" class="edge">
<title>Node159&#45;&gt;Node2</title>
<path fill="none" stroke="midnightblue" d="M771.64,-608.14C974.63,-609.09 1517.4,-606.75 1689.03,-557 1725.48,-546.44 1762.8,-523.49 1787.06,-506.63"/>
<polygon fill="midnightblue" stroke="midnightblue" points="1789.24,-509.37 1795.38,-500.73 1785.19,-503.66 1789.24,-509.37"/>
</g>
<!-- Node159&#45;&gt;Node4 -->
<g id="edge135" class="edge">
<title>Node159&#45;&gt;Node4</title>
<path fill="none" stroke="midnightblue" d="M616.44,-604.62C514.35,-599.69 341.37,-587.08 286.03,-557 193.64,-506.78 167.03,-457.66 167.03,-352.5 167.03,-352.5 167.03,-352.5 167.03,-177 167.03,-107.4 254.29,-81.81 320.84,-72.42"/>
<polygon fill="midnightblue" stroke="midnightblue" points="321.46,-75.87 330.92,-71.1 320.55,-68.93 321.46,-75.87"/>
</g>
<!-- Node159&#45;&gt;Node5 -->
<g id="edge143" class="edge">
<title>Node159&#45;&gt;Node5</title>
<path fill="none" stroke="midnightblue" d="M616.51,-604.15C507.41,-598.51 314.77,-584.88 251.03,-557 176.18,-524.26 129.03,-501.2 129.03,-419.5 129.03,-419.5 129.03,-419.5 129.03,-121 129.03,-30.49 233.06,-72.6 322.03,-56 519.59,-19.15 1166.13,-12.29 1314.5,-11.19"/>
<polygon fill="midnightblue" stroke="midnightblue" points="1314.71,-14.69 1324.68,-11.12 1314.66,-7.69 1314.71,-14.69"/>
</g>
<!-- Node159&#45;&gt;Node20 -->
<g id="edge140" class="edge">
<title>Node159&#45;&gt;Node20</title>
<path fill="none" stroke="midnightblue" d="M771.6,-605.66C997.18,-599.28 1637.03,-573.52 1637.03,-486.5 1637.03,-486.5 1637.03,-486.5 1637.03,-417.5 1637.03,-380.31 1629.51,-362.08 1656.03,-336 1710.17,-282.76 1750.92,-323.76 1823.03,-300 1880.47,-281.08 1893.2,-271.54 1947.03,-244 2056.38,-188.06 2182.01,-112.03 2232.4,-81.03"/>
<polygon fill="midnightblue" stroke="midnightblue" points="2234.51,-83.84 2241.18,-75.61 2230.83,-77.88 2234.51,-83.84"/>
</g>
<!-- Node159&#45;&gt;Node30 -->
<g id="edge142" class="edge">
<title>Node159&#45;&gt;Node30</title>
<path fill="none" stroke="midnightblue" d="M616.5,-602.64C487.56,-592.4 243.03,-562.91 243.03,-486.5 243.03,-486.5 243.03,-486.5 243.03,-417.5 243.03,-250.7 322.07,-204.27 461.03,-112 512.15,-78.06 585.11,-69.42 627.32,-67.4"/>
<polygon fill="midnightblue" stroke="midnightblue" points="627.5,-70.9 637.36,-67.02 627.23,-63.91 627.5,-70.9"/>
</g>
<!-- Node159&#45;&gt;Node41 -->
<g id="edge134" class="edge">
<title>Node159&#45;&gt;Node41</title>
<path fill="none" stroke="midnightblue" d="M616.28,-601.82C540.43,-594.96 431.56,-581.21 397.03,-557 367.54,-536.32 357.03,-522.53 357.03,-486.5 357.03,-486.5 357.03,-486.5 357.03,-289 357.03,-204.39 628.98,-152.78 761.34,-132.68"/>
<polygon fill="midnightblue" stroke="midnightblue" points="762.02,-136.11 771.39,-131.17 760.98,-129.19 762.02,-136.11"/>
</g>
<!-- Node159&#45;&gt;Node23 -->
<g id="edge141" class="edge">
<title>Node159&#45;&gt;Node23</title>
<path fill="none" stroke="midnightblue" d="M706.21,-593.32C746.48,-547.44 881.09,-402.2 1026.03,-336 1111.37,-297.02 1144.98,-329.53 1234.03,-300 1304.97,-276.48 1315.91,-254.75 1384.03,-224 1410.69,-211.97 1441.58,-199.78 1464.32,-191.13"/>
<polygon fill="midnightblue" stroke="midnightblue" points="1465.72,-194.35 1473.84,-187.54 1463.25,-187.8 1465.72,-194.35"/>
</g>
<!-- Node159&#45;&gt;Node63 -->
<g id="edge128" class="edge">
<title>Node159&#45;&gt;Node63</title>
<path fill="none" stroke="midnightblue" d="M616.36,-594.41C557.63,-579.54 487.03,-548.73 487.03,-486.5 487.03,-486.5 487.03,-486.5 487.03,-417.5 487.03,-364.19 528.37,-361.78 575.03,-336 629.01,-306.18 649.88,-317.43 709.03,-300 835.72,-262.67 984.61,-213.22 1051.01,-190.86"/>
<polygon fill="midnightblue" stroke="midnightblue" points="1052.21,-194.15 1060.57,-187.64 1049.97,-187.52 1052.21,-194.15"/>
</g>
<!-- Node159&#45;&gt;Node65 -->
<g id="edge144" class="edge">
<title>Node159&#45;&gt;Node65</title>
<path fill="none" stroke="midnightblue" d="M616.33,-606.23C532.55,-600.26 411.03,-576.14 411.03,-486.5 411.03,-486.5 411.03,-486.5 411.03,-417.5 411.03,-360.85 458.86,-362.31 509.03,-336 561.75,-308.36 581.85,-319.67 638.03,-300 788.42,-247.35 961.95,-167.17 1027.8,-136.02"/>
<polygon fill="midnightblue" stroke="midnightblue" points="1029.54,-139.07 1037.07,-131.62 1026.54,-132.74 1029.54,-139.07"/>
</g>
<!-- Node159&#45;&gt;Node113 -->
<g id="edge138" class="edge">
<title>Node159&#45;&gt;Node113</title>
<path fill="none" stroke="midnightblue" d="M771.86,-605.82C944.1,-601.63 1370.47,-588.69 1726.03,-557 1918.87,-539.81 1966.7,-530.61 2158.03,-501 2324.05,-475.31 2364.98,-465.31 2530.03,-434 2658.87,-409.56 2810.13,-378.91 2887.59,-363.07"/>
<polygon fill="midnightblue" stroke="midnightblue" points="2888.48,-366.46 2897.57,-361.03 2887.07,-359.6 2888.48,-366.46"/>
</g>
<!-- Node159&#45;&gt;Node76 -->
<g id="edge130" class="edge">
<title>Node159&#45;&gt;Node76</title>
<path fill="none" stroke="midnightblue" d="M771.77,-603.02C929.38,-592.73 1280.17,-563.36 1381.03,-501 1429.1,-471.28 1421.62,-442.49 1462.03,-403 1496.44,-369.38 1505.4,-360.1 1547.03,-336 1570.73,-322.28 1599.41,-310.84 1621.82,-302.93"/>
<polygon fill="midnightblue" stroke="midnightblue" points="1623.01,-306.23 1631.32,-299.66 1620.73,-299.61 1623.01,-306.23"/>
</g>
<!-- Node159&#45;&gt;Node127 -->
<g id="edge139" class="edge">
<title>Node159&#45;&gt;Node127</title>
<path fill="none" stroke="midnightblue" d="M771.91,-607.7C986.87,-607.67 1577.52,-603.3 1651.03,-557 1694.07,-529.9 1714.25,-469 1722.01,-438.16"/>
<polygon fill="midnightblue" stroke="midnightblue" points="1725.45,-438.81 1724.32,-428.28 1718.63,-437.21 1725.45,-438.81"/>
</g>
<!-- Node159&#45;&gt;Node145 -->
<g id="edge137" class="edge">
<title>Node159&#45;&gt;Node145</title>
<path fill="none" stroke="midnightblue" d="M771.72,-594.44C836.56,-583.54 927.68,-568.23 987.28,-558.21"/>
<polygon fill="midnightblue" stroke="midnightblue" points="988.02,-561.64 997.3,-556.53 986.86,-554.73 988.02,-561.64"/>
</g>
<!-- Node159&#45;&gt;Node99 -->
<g id="edge129" class="edge">
<title>Node159&#45;&gt;Node99</title>
<path fill="none" stroke="midnightblue" d="M623.3,-593.46C603.74,-585.98 584.71,-574.52 573.03,-557 517.36,-473.43 532.99,-386.07 620.03,-336 659.45,-313.33 952.5,-298.87 1084.68,-293.43"/>
<polygon fill="midnightblue" stroke="midnightblue" points="1084.83,-296.93 1094.68,-293.03 1084.54,-289.94 1084.83,-296.93"/>
</g>
<!-- Node160 -->
<g id="node44" class="node">
<title>Node160</title>
<g id="a_node44"><a xlink:href="IndexedMap_8h.html" target="_top" xlink:title=" ">
<polygon fill="none" stroke="red" points="1195.53,-168.5 1195.53,-187.5 1316.53,-187.5 1316.53,-168.5 1195.53,-168.5"/>
<text text-anchor="middle" x="1256.03" y="-175.5" font-family="Helvetica" font-size="10.00">llvm/ADT/IndexedMap.h</text>
</a>
</g>
</g>
<!-- Node159&#45;&gt;Node160 -->
<g id="edge131" class="edge">
<title>Node159&#45;&gt;Node160</title>
<path fill="none" stroke="midnightblue" d="M678.83,-593.43C642.49,-558.1 557.18,-464.16 607.03,-403 657.21,-341.45 705.81,-389.26 782.03,-367 819.03,-356.19 825.54,-344.94 863.03,-336 938.87,-317.91 1150.55,-347.95 1212.03,-300 1243.8,-275.22 1252.65,-225.35 1255.1,-198"/>
<polygon fill="midnightblue" stroke="midnightblue" points="1258.61,-198.02 1255.81,-187.8 1251.62,-197.54 1258.61,-198.02"/>
</g>
<!-- Node160&#45;&gt;Node20 -->
<g id="edge133" class="edge">
<title>Node160&#45;&gt;Node20</title>
<path fill="none" stroke="midnightblue" d="M1316.55,-175.04C1419.19,-171.07 1633.77,-159.93 1813.03,-132 1851.81,-125.96 1860.4,-118.91 1899.03,-112 2015.79,-91.1 2155.8,-76.4 2219.89,-70.23"/>
<polygon fill="midnightblue" stroke="midnightblue" points="2220.24,-73.72 2229.87,-69.28 2219.58,-66.75 2220.24,-73.72"/>
</g>
<!-- Node160&#45;&gt;Node41 -->
<g id="edge132" class="edge">
<title>Node160&#45;&gt;Node41</title>
<path fill="none" stroke="midnightblue" d="M1195.28,-169.26C1117.91,-159.41 984.45,-142.41 902.63,-131.99"/>
<polygon fill="midnightblue" stroke="midnightblue" points="903.03,-128.51 892.67,-130.72 902.15,-135.46 903.03,-128.51"/>
</g>
<!-- Node172&#45;&gt;Node35 -->
<g id="edge147" class="edge">
<title>Node172&#45;&gt;Node35</title>
<path fill="none" stroke="midnightblue" d="M3412.74,-475.74C3419.77,-466.08 3430.54,-449.8 3436.03,-434 3457.98,-370.93 3451.94,-289.78 3447.64,-253.71"/>
<polygon fill="midnightblue" stroke="midnightblue" points="3451.1,-253.14 3446.35,-243.67 3444.16,-254.03 3451.1,-253.14"/>
</g>
<!-- Node172&#45;&gt;Node32 -->
<g id="edge146" class="edge">
<title>Node172&#45;&gt;Node32</title>
<path fill="none" stroke="midnightblue" d="M3404.82,-475.73C3403.5,-466.18 3401.34,-450.62 3399.63,-438.28"/>
<polygon fill="midnightblue" stroke="midnightblue" points="3403.07,-437.55 3398.23,-428.13 3396.13,-438.51 3403.07,-437.55"/>
</g>
<!-- Node204&#45;&gt;Node23 -->
<g id="edge152" class="edge">
<title>Node204&#45;&gt;Node23</title>
<path fill="none" stroke="midnightblue" d="M1323.5,-336.47C1358.43,-304.77 1443.23,-227.82 1479.79,-194.65"/>
<polygon fill="midnightblue" stroke="midnightblue" points="1482.55,-196.87 1487.6,-187.56 1477.84,-191.69 1482.55,-196.87"/>
</g>
<!-- Node204&#45;&gt;Node63 -->
<g id="edge149" class="edge">
<title>Node204&#45;&gt;Node63</title>
<path fill="none" stroke="midnightblue" d="M1236.58,-336.47C1173.54,-323.74 1090.88,-306.07 1086.03,-300 1062.64,-270.69 1071.87,-223.43 1079.6,-197.5"/>
<polygon fill="midnightblue" stroke="midnightblue" points="1082.99,-198.39 1082.72,-187.8 1076.33,-196.25 1082.99,-198.39"/>
</g>
<!-- Node204&#45;&gt;Node65 -->
<g id="edge153" class="edge">
<title>Node204&#45;&gt;Node65</title>
<path fill="none" stroke="midnightblue" d="M1315.65,-336.11C1332.37,-302.32 1367.62,-217.06 1326.03,-168 1295.65,-132.16 1151.51,-124.83 1086.71,-123.36"/>
<polygon fill="midnightblue" stroke="midnightblue" points="1086.73,-119.86 1076.66,-123.16 1086.59,-126.86 1086.73,-119.86"/>
</g>
<!-- Node204&#45;&gt;Node76 -->
<g id="edge150" class="edge">
<title>Node204&#45;&gt;Node76</title>
<path fill="none" stroke="midnightblue" d="M1381.19,-338.1C1445.57,-327.18 1538.21,-311.48 1598.5,-301.26"/>
<polygon fill="midnightblue" stroke="midnightblue" points="1599.36,-304.67 1608.63,-299.54 1598.19,-297.76 1599.36,-304.67"/>
</g>
<!-- Node204&#45;&gt;Node151 -->
<g id="edge151" class="edge">
<title>Node204&#45;&gt;Node151</title>
<path fill="none" stroke="midnightblue" d="M1381.34,-347.01C1451.75,-343.75 1561.14,-338.97 1656.03,-336 2417.16,-312.15 2608.11,-329.8 3369.03,-300 3407.02,-298.51 3450.14,-295.98 3481.56,-293.98"/>
<polygon fill="midnightblue" stroke="midnightblue" points="3481.99,-297.46 3491.75,-293.32 3481.54,-290.47 3481.99,-297.46"/>
</g>
<!-- Node223&#45;&gt;Node4 -->
<g id="edge155" class="edge">
<title>Node223&#45;&gt;Node4</title>
<path fill="none" stroke="midnightblue" d="M565.24,-280.45C549.93,-272.49 527.87,-259.53 512.03,-244 461.27,-194.21 420.54,-118.87 403.57,-84.82"/>
<polygon fill="midnightblue" stroke="midnightblue" points="406.63,-83.1 399.09,-75.65 400.34,-86.17 406.63,-83.1"/>
</g>
<!-- Node223&#45;&gt;Node30 -->
<g id="edge157" class="edge">
<title>Node223&#45;&gt;Node30</title>
<path fill="none" stroke="midnightblue" d="M571.99,-280.38C561.36,-271.79 545.16,-257.91 533.03,-244 492.91,-197.99 457.94,-160.49 495.03,-112 511.03,-91.09 583.77,-77.63 627.48,-71.28"/>
<polygon fill="midnightblue" stroke="midnightblue" points="627.97,-74.75 637.39,-69.89 627,-67.82 627.97,-74.75"/>
</g>
<!-- Node223&#45;&gt;Node23 -->
<g id="edge156" class="edge">
<title>Node223&#45;&gt;Node23</title>
<path fill="none" stroke="midnightblue" d="M628.67,-283.51C788.98,-264.21 1324.12,-199.81 1463.57,-183.03"/>
<polygon fill="midnightblue" stroke="midnightblue" points="1464.14,-186.48 1473.65,-181.81 1463.31,-179.53 1464.14,-186.48"/>
</g>
<!-- Node223&#45;&gt;Node35 -->
<g id="edge158" class="edge">
<title>Node223&#45;&gt;Node35</title>
<path fill="none" stroke="midnightblue" d="M628.57,-288.14C970.45,-281.69 3129.8,-240.95 3414.15,-235.58"/>
<polygon fill="midnightblue" stroke="midnightblue" points="3414.6,-239.07 3424.53,-235.39 3414.46,-232.08 3414.6,-239.07"/>
</g>
<!-- Node223&#45;&gt;Node65 -->
<g id="edge159" class="edge">
<title>Node223&#45;&gt;Node65</title>
<path fill="none" stroke="midnightblue" d="M589.79,-280.4C608.29,-257.58 662.41,-195.34 723.03,-168 776.37,-143.94 950.9,-129.91 1023.21,-125"/>
<polygon fill="midnightblue" stroke="midnightblue" points="1023.76,-128.47 1033.51,-124.31 1023.3,-121.48 1023.76,-128.47"/>
</g>
<!-- Node231&#45;&gt;Node35 -->
<g id="edge165" class="edge">
<title>Node231&#45;&gt;Node35</title>
<path fill="none" stroke="midnightblue" d="M3673.68,-341.75C3660.72,-326.89 3632.3,-296.69 3602.03,-280 3561.37,-257.58 3508.48,-245.43 3475.65,-239.58"/>
<polygon fill="midnightblue" stroke="midnightblue" points="3476.18,-236.12 3465.73,-237.9 3475.01,-243.02 3476.18,-236.12"/>
</g>
<!-- Node231&#45;&gt;Node151 -->
<g id="edge164" class="edge">
<title>Node231&#45;&gt;Node151</title>
<path fill="none" stroke="midnightblue" d="M3658.83,-341.98C3632.35,-331.81 3587.92,-314.76 3557.81,-303.2"/>
<polygon fill="midnightblue" stroke="midnightblue" points="3558.79,-299.83 3548.2,-299.51 3556.28,-306.36 3558.79,-299.83"/>
</g>
</g>
</svg>
