<?xml version="1.0" encoding="UTF-8" standalone="no"?>
<!DOCTYPE svg PUBLIC "-//W3C//DTD SVG 1.1//EN"
 "http://www.w3.org/Graphics/SVG/1.1/DTD/svg11.dtd">
<!-- Generated by graphviz version 2.44.0 (0)
 -->
<!-- Title: include/llvm/Analysis/ScalarEvolutionNormalization.h Pages: 1 -->
<svg width="3712pt" height="240pt"
 viewBox="0.00 0.00 3712.00 240.00" xmlns="http://www.w3.org/2000/svg" xmlns:xlink="http://www.w3.org/1999/xlink">
<g id="graph0" class="graph" transform="scale(1 1) rotate(0) translate(4 236)">
<title>include/llvm/Analysis/ScalarEvolutionNormalization.h</title>
<!-- Node1 -->
<g id="node1" class="node">
<title>Node1</title>
<g id="a_node1"><a xlink:title=" ">
<polygon fill="#bfbfbf" stroke="black" points="1750,-201.5 1750,-231.5 1905,-231.5 1905,-201.5 1750,-201.5"/>
<text text-anchor="start" x="1758" y="-219.5" font-family="Helvetica" font-size="10.00">include/llvm/Analysis</text>
<text text-anchor="middle" x="1827.5" y="-208.5" font-family="Helvetica" font-size="10.00">/ScalarEvolutionNormalization.h</text>
</a>
</g>
</g>
<!-- Node2 -->
<g id="node2" class="node">
<title>Node2</title>
<g id="a_node2"><a xlink:href="IVUsers_8h.html" target="_top" xlink:title=" ">
<polygon fill="none" stroke="black" points="351.5,-134.5 351.5,-164.5 459.5,-164.5 459.5,-134.5 351.5,-134.5"/>
<text text-anchor="start" x="359.5" y="-152.5" font-family="Helvetica" font-size="10.00">include/llvm/Analysis</text>
<text text-anchor="middle" x="405.5" y="-141.5" font-family="Helvetica" font-size="10.00">/IVUsers.h</text>
</a>
</g>
</g>
<!-- Node1&#45;&gt;Node2 -->
<g id="edge1" class="edge">
<title>Node1&#45;&gt;Node2</title>
<path fill="none" stroke="midnightblue" d="M1739.75,-211.49C1472.71,-199.28 675.05,-162.82 459.63,-152.97"/>
<polygon fill="midnightblue" stroke="midnightblue" points="1739.63,-214.99 1749.78,-211.95 1739.95,-207.99 1739.63,-214.99"/>
</g>
<!-- Node8 -->
<g id="node8" class="node">
<title>Node8</title>
<g id="a_node8"><a xlink:href="LoopStrengthReduce_8cpp.html" target="_top" xlink:title=" ">
<polygon fill="none" stroke="black" points="750,-67.5 750,-97.5 879,-97.5 879,-67.5 750,-67.5"/>
<text text-anchor="start" x="758" y="-85.5" font-family="Helvetica" font-size="10.00">lib/Transforms/Scalar</text>
<text text-anchor="middle" x="814.5" y="-74.5" font-family="Helvetica" font-size="10.00">/LoopStrengthReduce.cpp</text>
</a>
</g>
</g>
<!-- Node1&#45;&gt;Node8 -->
<g id="edge34" class="edge">
<title>Node1&#45;&gt;Node8</title>
<path fill="none" stroke="midnightblue" d="M1739.77,-206.57C1573.29,-189.16 1200.33,-148 888.5,-98 885.4,-97.5 882.23,-96.97 879.03,-96.42"/>
<polygon fill="midnightblue" stroke="midnightblue" points="1739.64,-210.07 1749.95,-207.63 1740.37,-203.11 1739.64,-210.07"/>
</g>
<!-- Node10 -->
<g id="node10" class="node">
<title>Node10</title>
<g id="a_node10"><a xlink:href="ScalarEvolutionExpander_8h.html" target="_top" xlink:title=" ">
<polygon fill="none" stroke="black" points="2150.5,-134.5 2150.5,-164.5 2310.5,-164.5 2310.5,-134.5 2150.5,-134.5"/>
<text text-anchor="start" x="2158.5" y="-152.5" font-family="Helvetica" font-size="10.00">include/llvm/Transforms</text>
<text text-anchor="middle" x="2230.5" y="-141.5" font-family="Helvetica" font-size="10.00">/Utils/ScalarEvolutionExpander.h</text>
</a>
</g>
</g>
<!-- Node1&#45;&gt;Node10 -->
<g id="edge11" class="edge">
<title>Node1&#45;&gt;Node10</title>
<path fill="none" stroke="midnightblue" d="M1915.32,-201.34C1985.27,-190.05 2082.4,-174.39 2150.28,-163.44"/>
<polygon fill="midnightblue" stroke="midnightblue" points="1914.52,-197.92 1905.2,-202.97 1915.63,-204.83 1914.52,-197.92"/>
</g>
<!-- Node31 -->
<g id="node31" class="node">
<title>Node31</title>
<g id="a_node31"><a xlink:href="ScalarEvolutionNormalization_8cpp.html" target="_top" xlink:title=" ">
<polygon fill="none" stroke="black" points="2329,-134.5 2329,-164.5 2466,-164.5 2466,-134.5 2329,-134.5"/>
<text text-anchor="start" x="2337" y="-152.5" font-family="Helvetica" font-size="10.00">lib/Analysis/ScalarEvolution</text>
<text text-anchor="middle" x="2397.5" y="-141.5" font-family="Helvetica" font-size="10.00">Normalization.cpp</text>
</a>
</g>
</g>
<!-- Node1&#45;&gt;Node31 -->
<g id="edge33" class="edge">
<title>Node1&#45;&gt;Node31</title>
<path fill="none" stroke="midnightblue" d="M1915.51,-208.64C2014.15,-200.45 2178.73,-185.27 2319.5,-165 2322.5,-164.57 2325.56,-164.1 2328.65,-163.61"/>
<polygon fill="midnightblue" stroke="midnightblue" points="1914.96,-205.18 1905.28,-209.49 1915.54,-212.15 1914.96,-205.18"/>
</g>
<!-- Node3 -->
<g id="node3" class="node">
<title>Node3</title>
<g id="a_node3"><a xlink:href="IVUsersPrinter_8h.html" target="_top" xlink:title=" ">
<polygon fill="none" stroke="black" points="87,-67.5 87,-97.5 210,-97.5 210,-67.5 87,-67.5"/>
<text text-anchor="start" x="95" y="-85.5" font-family="Helvetica" font-size="10.00">include/llvm/Transforms</text>
<text text-anchor="middle" x="148.5" y="-74.5" font-family="Helvetica" font-size="10.00">/Scalar/IVUsersPrinter.h</text>
</a>
</g>
</g>
<!-- Node2&#45;&gt;Node3 -->
<g id="edge2" class="edge">
<title>Node2&#45;&gt;Node3</title>
<path fill="none" stroke="midnightblue" d="M341.4,-132.29C299.13,-121.6 244.33,-107.74 203.95,-97.52"/>
<polygon fill="midnightblue" stroke="midnightblue" points="340.76,-135.74 351.31,-134.79 342.47,-128.95 340.76,-135.74"/>
</g>
<!-- Node4 -->
<g id="node4" class="node">
<title>Node4</title>
<g id="a_node4"><a xlink:href="PassBuilder_8cpp.html" target="_top" xlink:title="This file provides the implementation of the PassBuilder based on our static pass registry as well as...">
<polygon fill="none" stroke="black" points="0,-6 0,-25 137,-25 137,-6 0,-6"/>
<text text-anchor="middle" x="68.5" y="-13" font-family="Helvetica" font-size="10.00">lib/Passes/PassBuilder.cpp</text>
</a>
</g>
</g>
<!-- Node2&#45;&gt;Node4 -->
<g id="edge7" class="edge">
<title>Node2&#45;&gt;Node4</title>
<path fill="none" stroke="midnightblue" d="M341.23,-147.56C256.16,-144.87 112.79,-134.83 77.5,-98 58.39,-78.06 63.08,-41.54 66.47,-25.02"/>
<polygon fill="midnightblue" stroke="midnightblue" points="341.2,-151.06 351.3,-147.85 341.41,-144.07 341.2,-151.06"/>
</g>
<!-- Node5 -->
<g id="node5" class="node">
<title>Node5</title>
<g id="a_node5"><a xlink:href="IVUsersPrinter_8cpp.html" target="_top" xlink:title=" ">
<polygon fill="none" stroke="black" points="165,-0.5 165,-30.5 274,-30.5 274,-0.5 165,-0.5"/>
<text text-anchor="start" x="173" y="-18.5" font-family="Helvetica" font-size="10.00">lib/Transforms/Scalar</text>
<text text-anchor="middle" x="219.5" y="-7.5" font-family="Helvetica" font-size="10.00">/IVUsersPrinter.cpp</text>
</a>
</g>
</g>
<!-- Node2&#45;&gt;Node5 -->
<g id="edge8" class="edge">
<title>Node2&#45;&gt;Node5</title>
<path fill="none" stroke="midnightblue" d="M341.37,-138.39C312.93,-131.16 280.72,-118.85 257.5,-98 237.29,-79.85 227,-48.72 222.48,-30.64"/>
<polygon fill="midnightblue" stroke="midnightblue" points="340.71,-141.83 351.25,-140.74 342.33,-135.02 340.71,-141.83"/>
</g>
<!-- Node6 -->
<g id="node6" class="node">
<title>Node6</title>
<g id="a_node6"><a xlink:href="IVUsers_8cpp.html" target="_top" xlink:title=" ">
<polygon fill="none" stroke="black" points="266.5,-73 266.5,-92 390.5,-92 390.5,-73 266.5,-73"/>
<text text-anchor="middle" x="328.5" y="-80" font-family="Helvetica" font-size="10.00">lib/Analysis/IVUsers.cpp</text>
</a>
</g>
</g>
<!-- Node2&#45;&gt;Node6 -->
<g id="edge5" class="edge">
<title>Node2&#45;&gt;Node6</title>
<path fill="none" stroke="midnightblue" d="M380.83,-127.67C366.61,-115.67 349.49,-101.22 338.8,-92.19"/>
<polygon fill="midnightblue" stroke="midnightblue" points="378.89,-130.62 388.79,-134.4 383.41,-125.27 378.89,-130.62"/>
</g>
<!-- Node7 -->
<g id="node7" class="node">
<title>Node7</title>
<g id="a_node7"><a xlink:href="MachineFunctionPass_8cpp.html" target="_top" xlink:title=" ">
<polygon fill="none" stroke="black" points="408.5,-67.5 408.5,-97.5 556.5,-97.5 556.5,-67.5 408.5,-67.5"/>
<text text-anchor="start" x="416.5" y="-85.5" font-family="Helvetica" font-size="10.00">lib/CodeGen/MachineFunction</text>
<text text-anchor="middle" x="482.5" y="-74.5" font-family="Helvetica" font-size="10.00">Pass.cpp</text>
</a>
</g>
</g>
<!-- Node2&#45;&gt;Node7 -->
<g id="edge6" class="edge">
<title>Node2&#45;&gt;Node7</title>
<path fill="none" stroke="midnightblue" d="M429.92,-127.88C441.62,-118.01 455.34,-106.43 465.82,-97.58"/>
<polygon fill="midnightblue" stroke="midnightblue" points="427.59,-125.27 422.21,-134.4 432.11,-130.62 427.59,-125.27"/>
</g>
<!-- Node2&#45;&gt;Node8 -->
<g id="edge9" class="edge">
<title>Node2&#45;&gt;Node8</title>
<path fill="none" stroke="midnightblue" d="M469.64,-139.68C537.17,-130.2 646.51,-114.28 740.5,-98 743.6,-97.46 746.76,-96.9 749.96,-96.32"/>
<polygon fill="midnightblue" stroke="midnightblue" points="469,-136.24 459.58,-141.09 469.97,-143.17 469,-136.24"/>
</g>
<!-- Node9 -->
<g id="node9" class="node">
<title>Node9</title>
<g id="a_node9"><a xlink:href="CanonicalizeFreezeInLoops_8cpp.html" target="_top" xlink:title=" ">
<polygon fill="none" stroke="black" points="575,-67.5 575,-97.5 732,-97.5 732,-67.5 575,-67.5"/>
<text text-anchor="start" x="583" y="-85.5" font-family="Helvetica" font-size="10.00">lib/Transforms/Utils</text>
<text text-anchor="middle" x="653.5" y="-74.5" font-family="Helvetica" font-size="10.00">/CanonicalizeFreezeInLoops.cpp</text>
</a>
</g>
</g>
<!-- Node2&#45;&gt;Node9 -->
<g id="edge10" class="edge">
<title>Node2&#45;&gt;Node9</title>
<path fill="none" stroke="midnightblue" d="M468.77,-131.92C509.24,-121.31 561.17,-107.7 599.66,-97.61"/>
<polygon fill="midnightblue" stroke="midnightblue" points="467.79,-128.55 459.01,-134.48 469.57,-135.33 467.79,-128.55"/>
</g>
<!-- Node3&#45;&gt;Node4 -->
<g id="edge3" class="edge">
<title>Node3&#45;&gt;Node4</title>
<path fill="none" stroke="midnightblue" d="M123.28,-61.01C108.43,-48.94 90.41,-34.3 79.2,-25.19"/>
<polygon fill="midnightblue" stroke="midnightblue" points="121.17,-63.81 131.14,-67.4 125.59,-58.37 121.17,-63.81"/>
</g>
<!-- Node3&#45;&gt;Node5 -->
<g id="edge4" class="edge">
<title>Node3&#45;&gt;Node5</title>
<path fill="none" stroke="midnightblue" d="M171.33,-60.6C182.05,-50.78 194.55,-39.34 204.12,-30.58"/>
<polygon fill="midnightblue" stroke="midnightblue" points="168.92,-58.06 163.91,-67.4 173.65,-63.22 168.92,-58.06"/>
</g>
<!-- Node10&#45;&gt;Node8 -->
<g id="edge26" class="edge">
<title>Node10&#45;&gt;Node8</title>
<path fill="none" stroke="midnightblue" d="M2139.89,-146.93C1879.43,-142.14 1131.76,-126.23 888.5,-98 885.51,-97.65 882.46,-97.25 879.38,-96.81"/>
<polygon fill="midnightblue" stroke="midnightblue" points="2140.01,-150.44 2150.07,-147.12 2140.13,-143.44 2140.01,-150.44"/>
</g>
<!-- Node11 -->
<g id="node11" class="node">
<title>Node11</title>
<g id="a_node11"><a xlink:href="HardwareLoops_8cpp.html" target="_top" xlink:title="Insert hardware loop intrinsics into loops which are deemed profitable by the target,...">
<polygon fill="none" stroke="black" points="897.5,-73 897.5,-92 1057.5,-92 1057.5,-73 897.5,-73"/>
<text text-anchor="middle" x="977.5" y="-80" font-family="Helvetica" font-size="10.00">lib/CodeGen/HardwareLoops.cpp</text>
</a>
</g>
</g>
<!-- Node10&#45;&gt;Node11 -->
<g id="edge12" class="edge">
<title>Node10&#45;&gt;Node11</title>
<path fill="none" stroke="midnightblue" d="M2139.92,-148.21C1943.73,-146.77 1465.06,-138.97 1066.5,-98 1052.48,-96.56 1037.32,-94.34 1023.55,-92.07"/>
<polygon fill="midnightblue" stroke="midnightblue" points="2140.15,-151.71 2150.18,-148.28 2140.2,-144.71 2140.15,-151.71"/>
</g>
<!-- Node12 -->
<g id="node12" class="node">
<title>Node12</title>
<g id="a_node12"><a xlink:href="MVETailPredication_8cpp.html" target="_top" xlink:title="Armv8.1m introduced MVE, M&#45;Profile Vector Extension, and low&#45;overhead branches to help accelerate DSP...">
<polygon fill="none" stroke="black" points="1076,-73 1076,-92 1265,-92 1265,-73 1076,-73"/>
<text text-anchor="middle" x="1170.5" y="-80" font-family="Helvetica" font-size="10.00">lib/Target/ARM/MVETailPredication.cpp</text>
</a>
</g>
</g>
<!-- Node10&#45;&gt;Node12 -->
<g id="edge13" class="edge">
<title>Node10&#45;&gt;Node12</title>
<path fill="none" stroke="midnightblue" d="M2140.24,-146.31C1970.41,-141.62 1591.87,-128.45 1274.5,-98 1258.44,-96.46 1241.05,-94.25 1225.18,-92.02"/>
<polygon fill="midnightblue" stroke="midnightblue" points="2140.29,-149.81 2150.38,-146.59 2140.48,-142.82 2140.29,-149.81"/>
</g>
<!-- Node13 -->
<g id="node13" class="node">
<title>Node13</title>
<g id="a_node13"><a xlink:href="BPFTargetTransformInfo_8h.html" target="_top" xlink:title=" ">
<polygon fill="none" stroke="black" points="1283,-67.5 1283,-97.5 1410,-97.5 1410,-67.5 1283,-67.5"/>
<text text-anchor="start" x="1291" y="-85.5" font-family="Helvetica" font-size="10.00">lib/Target/BPF/BPFTarget</text>
<text text-anchor="middle" x="1346.5" y="-74.5" font-family="Helvetica" font-size="10.00">TransformInfo.h</text>
</a>
</g>
</g>
<!-- Node10&#45;&gt;Node13 -->
<g id="edge14" class="edge">
<title>Node10&#45;&gt;Node13</title>
<path fill="none" stroke="midnightblue" d="M2140.36,-146.82C1990.25,-143.15 1679.85,-131.81 1419.5,-98 1416.42,-97.6 1413.28,-97.15 1410.12,-96.66"/>
<polygon fill="midnightblue" stroke="midnightblue" points="2140.36,-150.32 2150.45,-147.06 2140.53,-143.33 2140.36,-150.32"/>
</g>
<!-- Node15 -->
<g id="node15" class="node">
<title>Node15</title>
<g id="a_node15"><a xlink:href="HexagonLoopIdiomRecognition_8cpp.html" target="_top" xlink:title=" ">
<polygon fill="none" stroke="black" points="1428,-67.5 1428,-97.5 1601,-97.5 1601,-67.5 1428,-67.5"/>
<text text-anchor="start" x="1436" y="-85.5" font-family="Helvetica" font-size="10.00">lib/Target/Hexagon</text>
<text text-anchor="middle" x="1514.5" y="-74.5" font-family="Helvetica" font-size="10.00">/HexagonLoopIdiomRecognition.cpp</text>
</a>
</g>
</g>
<!-- Node10&#45;&gt;Node15 -->
<g id="edge16" class="edge">
<title>Node10&#45;&gt;Node15</title>
<path fill="none" stroke="midnightblue" d="M2139.75,-143.07C2018.78,-135.37 1798.13,-119.78 1610.5,-98 1607.4,-97.64 1604.25,-97.26 1601.07,-96.86"/>
<polygon fill="midnightblue" stroke="midnightblue" points="2139.87,-146.58 2150.07,-143.72 2140.31,-139.59 2139.87,-146.58"/>
</g>
<!-- Node16 -->
<g id="node16" class="node">
<title>Node16</title>
<g id="a_node16"><a xlink:href="PPCLoopInstrFormPrep_8cpp.html" target="_top" xlink:title=" ">
<polygon fill="none" stroke="black" points="1619.5,-67.5 1619.5,-97.5 1761.5,-97.5 1761.5,-67.5 1619.5,-67.5"/>
<text text-anchor="start" x="1627.5" y="-85.5" font-family="Helvetica" font-size="10.00">lib/Target/PowerPC</text>
<text text-anchor="middle" x="1690.5" y="-74.5" font-family="Helvetica" font-size="10.00">/PPCLoopInstrFormPrep.cpp</text>
</a>
</g>
</g>
<!-- Node10&#45;&gt;Node16 -->
<g id="edge17" class="edge">
<title>Node10&#45;&gt;Node16</title>
<path fill="none" stroke="midnightblue" d="M2139.88,-140.44C2046.93,-131.73 1898.29,-116.57 1770.5,-98 1767.57,-97.57 1764.58,-97.12 1761.56,-96.65"/>
<polygon fill="midnightblue" stroke="midnightblue" points="2139.81,-143.95 2150.09,-141.39 2140.46,-136.98 2139.81,-143.95"/>
</g>
<!-- Node17 -->
<g id="node17" class="node">
<title>Node17</title>
<g id="a_node17"><a xlink:href="InductiveRangeCheckElimination_8cpp.html" target="_top" xlink:title=" ">
<polygon fill="none" stroke="black" points="1779.5,-67.5 1779.5,-97.5 1961.5,-97.5 1961.5,-67.5 1779.5,-67.5"/>
<text text-anchor="start" x="1787.5" y="-85.5" font-family="Helvetica" font-size="10.00">lib/Transforms/Scalar</text>
<text text-anchor="middle" x="1870.5" y="-74.5" font-family="Helvetica" font-size="10.00">/InductiveRangeCheckElimination.cpp</text>
</a>
</g>
</g>
<!-- Node10&#45;&gt;Node17 -->
<g id="edge18" class="edge">
<title>Node10&#45;&gt;Node17</title>
<path fill="none" stroke="midnightblue" d="M2142.71,-132.65C2083.3,-121.92 2005.54,-107.88 1948.34,-97.55"/>
<polygon fill="midnightblue" stroke="midnightblue" points="2142.37,-136.14 2152.83,-134.48 2143.61,-129.25 2142.37,-136.14"/>
</g>
<!-- Node18 -->
<g id="node18" class="node">
<title>Node18</title>
<g id="a_node18"><a xlink:href="IndVarSimplify_8cpp.html" target="_top" xlink:title=" ">
<polygon fill="none" stroke="black" points="1980,-67.5 1980,-97.5 2089,-97.5 2089,-67.5 1980,-67.5"/>
<text text-anchor="start" x="1988" y="-85.5" font-family="Helvetica" font-size="10.00">lib/Transforms/Scalar</text>
<text text-anchor="middle" x="2034.5" y="-74.5" font-family="Helvetica" font-size="10.00">/IndVarSimplify.cpp</text>
</a>
</g>
</g>
<!-- Node10&#45;&gt;Node18 -->
<g id="edge19" class="edge">
<title>Node10&#45;&gt;Node18</title>
<path fill="none" stroke="midnightblue" d="M2178.42,-131.23C2146.71,-120.71 2106.72,-107.45 2076.95,-97.58"/>
<polygon fill="midnightblue" stroke="midnightblue" points="2177.38,-134.57 2187.97,-134.4 2179.58,-127.93 2177.38,-134.57"/>
</g>
<!-- Node19 -->
<g id="node19" class="node">
<title>Node19</title>
<g id="a_node19"><a xlink:href="LoopDataPrefetch_8cpp.html" target="_top" xlink:title=" ">
<polygon fill="none" stroke="black" points="2107.5,-67.5 2107.5,-97.5 2223.5,-97.5 2223.5,-67.5 2107.5,-67.5"/>
<text text-anchor="start" x="2115.5" y="-85.5" font-family="Helvetica" font-size="10.00">lib/Transforms/Scalar</text>
<text text-anchor="middle" x="2165.5" y="-74.5" font-family="Helvetica" font-size="10.00">/LoopDataPrefetch.cpp</text>
</a>
</g>
</g>
<!-- Node10&#45;&gt;Node19 -->
<g id="edge20" class="edge">
<title>Node10&#45;&gt;Node19</title>
<path fill="none" stroke="midnightblue" d="M2209.31,-127.31C2199.56,-117.56 2188.26,-106.26 2179.58,-97.58"/>
<polygon fill="midnightblue" stroke="midnightblue" points="2206.85,-129.8 2216.4,-134.4 2211.8,-124.85 2206.85,-129.8"/>
</g>
<!-- Node20 -->
<g id="node20" class="node">
<title>Node20</title>
<g id="a_node20"><a xlink:href="LoopFlatten_8cpp.html" target="_top" xlink:title=" ">
<polygon fill="none" stroke="black" points="2242,-67.5 2242,-97.5 2351,-97.5 2351,-67.5 2242,-67.5"/>
<text text-anchor="start" x="2250" y="-85.5" font-family="Helvetica" font-size="10.00">lib/Transforms/Scalar</text>
<text text-anchor="middle" x="2296.5" y="-74.5" font-family="Helvetica" font-size="10.00">/LoopFlatten.cpp</text>
</a>
</g>
</g>
<!-- Node10&#45;&gt;Node20 -->
<g id="edge21" class="edge">
<title>Node10&#45;&gt;Node20</title>
<path fill="none" stroke="midnightblue" d="M2252.01,-127.31C2261.91,-117.56 2273.39,-106.26 2282.21,-97.58"/>
<polygon fill="midnightblue" stroke="midnightblue" points="2249.49,-124.89 2244.82,-134.4 2254.4,-129.87 2249.49,-124.89"/>
</g>
<!-- Node21 -->
<g id="node21" class="node">
<title>Node21</title>
<g id="a_node21"><a xlink:href="LoopIdiomRecognize_8cpp.html" target="_top" xlink:title=" ">
<polygon fill="none" stroke="black" points="2369.5,-67.5 2369.5,-97.5 2497.5,-97.5 2497.5,-67.5 2369.5,-67.5"/>
<text text-anchor="start" x="2377.5" y="-85.5" font-family="Helvetica" font-size="10.00">lib/Transforms/Scalar</text>
<text text-anchor="middle" x="2433.5" y="-74.5" font-family="Helvetica" font-size="10.00">/LoopIdiomRecognize.cpp</text>
</a>
</g>
</g>
<!-- Node10&#45;&gt;Node21 -->
<g id="edge22" class="edge">
<title>Node10&#45;&gt;Node21</title>
<path fill="none" stroke="midnightblue" d="M2284.44,-131.23C2317.28,-120.71 2358.7,-107.45 2389.54,-97.58"/>
<polygon fill="midnightblue" stroke="midnightblue" points="2283,-128.01 2274.55,-134.4 2285.14,-134.68 2283,-128.01"/>
</g>
<!-- Node22 -->
<g id="node22" class="node">
<title>Node22</title>
<g id="a_node22"><a xlink:href="LoopLoadElimination_8cpp.html" target="_top" xlink:title=" ">
<polygon fill="none" stroke="black" points="2515.5,-67.5 2515.5,-97.5 2643.5,-97.5 2643.5,-67.5 2515.5,-67.5"/>
<text text-anchor="start" x="2523.5" y="-85.5" font-family="Helvetica" font-size="10.00">lib/Transforms/Scalar</text>
<text text-anchor="middle" x="2579.5" y="-74.5" font-family="Helvetica" font-size="10.00">/LoopLoadElimination.cpp</text>
</a>
</g>
</g>
<!-- Node10&#45;&gt;Node22 -->
<g id="edge23" class="edge">
<title>Node10&#45;&gt;Node22</title>
<path fill="none" stroke="midnightblue" d="M2318.99,-132.66C2373.17,-122.87 2443.89,-109.95 2506.5,-98 2509.42,-97.44 2512.4,-96.87 2515.42,-96.29"/>
<polygon fill="midnightblue" stroke="midnightblue" points="2318.3,-129.23 2309.08,-134.45 2319.54,-136.12 2318.3,-129.23"/>
</g>
<!-- Node23 -->
<g id="node23" class="node">
<title>Node23</title>
<g id="a_node23"><a xlink:href="LoopPredication_8cpp.html" target="_top" xlink:title=" ">
<polygon fill="none" stroke="black" points="2662,-67.5 2662,-97.5 2771,-97.5 2771,-67.5 2662,-67.5"/>
<text text-anchor="start" x="2670" y="-85.5" font-family="Helvetica" font-size="10.00">lib/Transforms/Scalar</text>
<text text-anchor="middle" x="2716.5" y="-74.5" font-family="Helvetica" font-size="10.00">/LoopPredication.cpp</text>
</a>
</g>
</g>
<!-- Node10&#45;&gt;Node23 -->
<g id="edge24" class="edge">
<title>Node10&#45;&gt;Node23</title>
<path fill="none" stroke="midnightblue" d="M2320.88,-134.01C2469.3,-114.53 2509.25,-121.91 2652.5,-98 2655.53,-97.49 2658.64,-96.93 2661.77,-96.33"/>
<polygon fill="midnightblue" stroke="midnightblue" points="2320.39,-130.54 2310.94,-135.33 2321.31,-137.48 2320.39,-130.54"/>
</g>
<!-- Node24 -->
<g id="node24" class="node">
<title>Node24</title>
<g id="a_node24"><a xlink:href="LoopRerollPass_8cpp.html" target="_top" xlink:title=" ">
<polygon fill="none" stroke="black" points="2789,-67.5 2789,-97.5 2898,-97.5 2898,-67.5 2789,-67.5"/>
<text text-anchor="start" x="2797" y="-85.5" font-family="Helvetica" font-size="10.00">lib/Transforms/Scalar</text>
<text text-anchor="middle" x="2843.5" y="-74.5" font-family="Helvetica" font-size="10.00">/LoopRerollPass.cpp</text>
</a>
</g>
</g>
<!-- Node10&#45;&gt;Node24 -->
<g id="edge25" class="edge">
<title>Node10&#45;&gt;Node24</title>
<path fill="none" stroke="midnightblue" d="M2321.11,-134.01C2525.89,-110.28 2581.07,-128.58 2780.5,-98 2783.27,-97.57 2786.11,-97.09 2788.96,-96.57"/>
<polygon fill="midnightblue" stroke="midnightblue" points="2320.45,-130.56 2310.92,-135.21 2321.27,-137.51 2320.45,-130.56"/>
</g>
<!-- Node25 -->
<g id="node25" class="node">
<title>Node25</title>
<g id="a_node25"><a xlink:href="LoopUnrollRuntime_8cpp.html" target="_top" xlink:title=" ">
<polygon fill="none" stroke="black" points="2916.5,-67.5 2916.5,-97.5 3038.5,-97.5 3038.5,-67.5 2916.5,-67.5"/>
<text text-anchor="start" x="2924.5" y="-85.5" font-family="Helvetica" font-size="10.00">lib/Transforms/Utils</text>
<text text-anchor="middle" x="2977.5" y="-74.5" font-family="Helvetica" font-size="10.00">/LoopUnrollRuntime.cpp</text>
</a>
</g>
</g>
<!-- Node10&#45;&gt;Node25 -->
<g id="edge27" class="edge">
<title>Node10&#45;&gt;Node25</title>
<path fill="none" stroke="midnightblue" d="M2321.08,-134.03C2582.05,-105.86 2651.71,-132.16 2907.5,-98 2910.33,-97.62 2913.22,-97.2 2916.12,-96.73"/>
<polygon fill="midnightblue" stroke="midnightblue" points="2320.48,-130.57 2310.92,-135.14 2321.24,-137.53 2320.48,-130.57"/>
</g>
<!-- Node26 -->
<g id="node26" class="node">
<title>Node26</title>
<g id="a_node26"><a xlink:href="LoopUtils_8cpp.html" target="_top" xlink:title=" ">
<polygon fill="none" stroke="black" points="3057,-67.5 3057,-97.5 3158,-97.5 3158,-67.5 3057,-67.5"/>
<text text-anchor="start" x="3065" y="-85.5" font-family="Helvetica" font-size="10.00">lib/Transforms/Utils</text>
<text text-anchor="middle" x="3107.5" y="-74.5" font-family="Helvetica" font-size="10.00">/LoopUtils.cpp</text>
</a>
</g>
</g>
<!-- Node10&#45;&gt;Node26 -->
<g id="edge28" class="edge">
<title>Node10&#45;&gt;Node26</title>
<path fill="none" stroke="midnightblue" d="M2321.03,-134.05C2644.01,-101.11 2730.59,-143.73 3047.5,-98 3050.58,-97.56 3053.72,-97.03 3056.89,-96.44"/>
<polygon fill="midnightblue" stroke="midnightblue" points="2320.5,-130.58 2310.91,-135.09 2321.22,-137.54 2320.5,-130.58"/>
</g>
<!-- Node27 -->
<g id="node27" class="node">
<title>Node27</title>
<g id="a_node27"><a xlink:href="LoopVersioning_8cpp.html" target="_top" xlink:title=" ">
<polygon fill="none" stroke="black" points="3176,-67.5 3176,-97.5 3281,-97.5 3281,-67.5 3176,-67.5"/>
<text text-anchor="start" x="3184" y="-85.5" font-family="Helvetica" font-size="10.00">lib/Transforms/Utils</text>
<text text-anchor="middle" x="3228.5" y="-74.5" font-family="Helvetica" font-size="10.00">/LoopVersioning.cpp</text>
</a>
</g>
</g>
<!-- Node10&#45;&gt;Node27 -->
<g id="edge29" class="edge">
<title>Node10&#45;&gt;Node27</title>
<path fill="none" stroke="midnightblue" d="M2320.98,-134.06C2697.12,-96.91 2797.57,-149.35 3167.5,-98 3170.2,-97.63 3172.95,-97.19 3175.72,-96.7"/>
<polygon fill="midnightblue" stroke="midnightblue" points="2320.51,-130.59 2310.91,-135.07 2321.21,-137.55 2320.51,-130.59"/>
</g>
<!-- Node28 -->
<g id="node28" class="node">
<title>Node28</title>
<g id="a_node28"><a xlink:href="ScalarEvolutionExpander_8cpp.html" target="_top" xlink:title=" ">
<polygon fill="none" stroke="black" points="3299,-67.5 3299,-97.5 3446,-97.5 3446,-67.5 3299,-67.5"/>
<text text-anchor="start" x="3307" y="-85.5" font-family="Helvetica" font-size="10.00">lib/Transforms/Utils</text>
<text text-anchor="middle" x="3372.5" y="-74.5" font-family="Helvetica" font-size="10.00">/ScalarEvolutionExpander.cpp</text>
</a>
</g>
</g>
<!-- Node10&#45;&gt;Node28 -->
<g id="edge30" class="edge">
<title>Node10&#45;&gt;Node28</title>
<path fill="none" stroke="midnightblue" d="M2321.13,-134.04C2751.58,-92.42 2864.87,-143.31 3290.5,-98 3293.23,-97.71 3296.01,-97.38 3298.81,-97.02"/>
<polygon fill="midnightblue" stroke="midnightblue" points="2320.52,-130.59 2310.91,-135.04 2321.2,-137.55 2320.52,-130.59"/>
</g>
<!-- Node29 -->
<g id="node29" class="node">
<title>Node29</title>
<g id="a_node29"><a xlink:href="SimplifyIndVar_8cpp.html" target="_top" xlink:title=" ">
<polygon fill="none" stroke="black" points="3464,-67.5 3464,-97.5 3565,-97.5 3565,-67.5 3464,-67.5"/>
<text text-anchor="start" x="3472" y="-85.5" font-family="Helvetica" font-size="10.00">lib/Transforms/Utils</text>
<text text-anchor="middle" x="3514.5" y="-74.5" font-family="Helvetica" font-size="10.00">/SimplifyIndVar.cpp</text>
</a>
</g>
</g>
<!-- Node10&#45;&gt;Node29 -->
<g id="edge31" class="edge">
<title>Node10&#45;&gt;Node29</title>
<path fill="none" stroke="midnightblue" d="M2320.98,-134.07C2824.65,-86.82 2958.78,-166.15 3455.5,-98 3458.22,-97.63 3460.99,-97.18 3463.78,-96.68"/>
<polygon fill="midnightblue" stroke="midnightblue" points="2320.53,-130.59 2310.9,-135.02 2321.19,-137.56 2320.53,-130.59"/>
</g>
<!-- Node30 -->
<g id="node30" class="node">
<title>Node30</title>
<g id="a_node30"><a xlink:href="LoopVectorize_8cpp.html" target="_top" xlink:title=" ">
<polygon fill="none" stroke="black" points="3583,-67.5 3583,-97.5 3704,-97.5 3704,-67.5 3583,-67.5"/>
<text text-anchor="start" x="3591" y="-85.5" font-family="Helvetica" font-size="10.00">lib/Transforms/Vectorize</text>
<text text-anchor="middle" x="3643.5" y="-74.5" font-family="Helvetica" font-size="10.00">/LoopVectorize.cpp</text>
</a>
</g>
</g>
<!-- Node10&#45;&gt;Node30 -->
<g id="edge32" class="edge">
<title>Node10&#45;&gt;Node30</title>
<path fill="none" stroke="midnightblue" d="M2321.2,-134.05C2877.38,-82.54 3024.19,-163.19 3574.5,-98 3577.17,-97.68 3579.9,-97.31 3582.64,-96.9"/>
<polygon fill="midnightblue" stroke="midnightblue" points="2320.53,-130.59 2310.9,-135.01 2321.19,-137.56 2320.53,-130.59"/>
</g>
<!-- Node14 -->
<g id="node14" class="node">
<title>Node14</title>
<g id="a_node14"><a xlink:href="BPFTargetMachine_8cpp.html" target="_top" xlink:title=" ">
<polygon fill="none" stroke="black" points="1283,-0.5 1283,-30.5 1410,-30.5 1410,-0.5 1283,-0.5"/>
<text text-anchor="start" x="1291" y="-18.5" font-family="Helvetica" font-size="10.00">lib/Target/BPF/BPFTarget</text>
<text text-anchor="middle" x="1346.5" y="-7.5" font-family="Helvetica" font-size="10.00">Machine.cpp</text>
</a>
</g>
</g>
<!-- Node13&#45;&gt;Node14 -->
<g id="edge15" class="edge">
<title>Node13&#45;&gt;Node14</title>
<path fill="none" stroke="midnightblue" d="M1346.5,-57.11C1346.5,-48.15 1346.5,-38.32 1346.5,-30.58"/>
<polygon fill="midnightblue" stroke="midnightblue" points="1343,-57.4 1346.5,-67.4 1350,-57.4 1343,-57.4"/>
</g>
</g>
</svg>
