<?xml version="1.0" encoding="UTF-8" standalone="no"?>
<!DOCTYPE svg PUBLIC "-//W3C//DTD SVG 1.1//EN"
 "http://www.w3.org/Graphics/SVG/1.1/DTD/svg11.dtd">
<!-- Generated by graphviz version 2.44.0 (0)
 -->
<!-- Title: include/llvm/Transforms/Scalar/SCCP.h Pages: 1 -->
<svg width="389pt" height="106pt"
 viewBox="0.00 0.00 389.00 106.00" xmlns="http://www.w3.org/2000/svg" xmlns:xlink="http://www.w3.org/1999/xlink">
<g id="graph0" class="graph" transform="scale(1 1) rotate(0) translate(4 102)">
<title>include/llvm/Transforms/Scalar/SCCP.h</title>
<!-- Node1 -->
<g id="node1" class="node">
<title>Node1</title>
<g id="a_node1"><a xlink:title=" ">
<polygon fill="#bfbfbf" stroke="black" points="144.5,-67.5 144.5,-97.5 264.5,-97.5 264.5,-67.5 144.5,-67.5"/>
<text text-anchor="start" x="152.5" y="-85.5" font-family="Helvetica" font-size="10.00">include/llvm/Transforms</text>
<text text-anchor="middle" x="204.5" y="-74.5" font-family="Helvetica" font-size="10.00">/Scalar/SCCP.h</text>
</a>
</g>
</g>
<!-- Node2 -->
<g id="node2" class="node">
<title>Node2</title>
<g id="a_node2"><a xlink:href="PassBuilder_8cpp.html" target="_top" xlink:title="This file provides the implementation of the PassBuilder based on our static pass registry as well as...">
<polygon fill="none" stroke="black" points="0,-6 0,-25 137,-25 137,-6 0,-6"/>
<text text-anchor="middle" x="68.5" y="-13" font-family="Helvetica" font-size="10.00">lib/Passes/PassBuilder.cpp</text>
</a>
</g>
</g>
<!-- Node1&#45;&gt;Node2 -->
<g id="edge1" class="edge">
<title>Node1&#45;&gt;Node2</title>
<path fill="none" stroke="midnightblue" d="M165.72,-62.97C139.6,-50.48 106.37,-34.6 86.3,-25.01"/>
<polygon fill="midnightblue" stroke="midnightblue" points="164.46,-66.24 174.99,-67.4 167.48,-59.93 164.46,-66.24"/>
</g>
<!-- Node3 -->
<g id="node3" class="node">
<title>Node3</title>
<g id="a_node3"><a xlink:href="IPO_2SCCP_8cpp.html" target="_top" xlink:title=" ">
<polygon fill="none" stroke="black" points="155.5,-0.5 155.5,-30.5 253.5,-30.5 253.5,-0.5 155.5,-0.5"/>
<text text-anchor="start" x="163.5" y="-18.5" font-family="Helvetica" font-size="10.00">lib/Transforms/IPO</text>
<text text-anchor="middle" x="204.5" y="-7.5" font-family="Helvetica" font-size="10.00">/SCCP.cpp</text>
</a>
</g>
</g>
<!-- Node1&#45;&gt;Node3 -->
<g id="edge2" class="edge">
<title>Node1&#45;&gt;Node3</title>
<path fill="none" stroke="midnightblue" d="M204.5,-57.11C204.5,-48.15 204.5,-38.32 204.5,-30.58"/>
<polygon fill="midnightblue" stroke="midnightblue" points="201,-57.4 204.5,-67.4 208,-57.4 201,-57.4"/>
</g>
<!-- Node4 -->
<g id="node4" class="node">
<title>Node4</title>
<g id="a_node4"><a xlink:href="Scalar_2SCCP_8cpp.html" target="_top" xlink:title=" ">
<polygon fill="none" stroke="black" points="272,-0.5 272,-30.5 381,-30.5 381,-0.5 272,-0.5"/>
<text text-anchor="start" x="280" y="-18.5" font-family="Helvetica" font-size="10.00">lib/Transforms/Scalar</text>
<text text-anchor="middle" x="326.5" y="-7.5" font-family="Helvetica" font-size="10.00">/SCCP.cpp</text>
</a>
</g>
</g>
<!-- Node1&#45;&gt;Node4 -->
<g id="edge3" class="edge">
<title>Node1&#45;&gt;Node4</title>
<path fill="none" stroke="midnightblue" d="M240.02,-62.57C259.21,-52.35 282.5,-39.94 300.08,-30.58"/>
<polygon fill="midnightblue" stroke="midnightblue" points="238.15,-59.6 230.97,-67.4 241.44,-65.78 238.15,-59.6"/>
</g>
</g>
</svg>
