<?xml version="1.0" encoding="UTF-8" standalone="no"?>
<!DOCTYPE svg PUBLIC "-//W3C//DTD SVG 1.1//EN"
 "http://www.w3.org/Graphics/SVG/1.1/DTD/svg11.dtd">
<!-- Generated by graphviz version 2.44.0 (0)
 -->
<!-- Title: include/llvm/CodeGen/SelectionDAGISel.h Pages: 1 -->
<svg width="4044pt" height="240pt"
 viewBox="0.00 0.00 4043.50 240.00" xmlns="http://www.w3.org/2000/svg" xmlns:xlink="http://www.w3.org/1999/xlink">
<g id="graph0" class="graph" transform="scale(1 1) rotate(0) translate(4 236)">
<title>include/llvm/CodeGen/SelectionDAGISel.h</title>
<!-- Node1 -->
<g id="node1" class="node">
<title>Node1</title>
<g id="a_node1"><a xlink:title=" ">
<polygon fill="#bfbfbf" stroke="black" points="1992,-201.5 1992,-231.5 2105,-231.5 2105,-201.5 1992,-201.5"/>
<text text-anchor="start" x="2000" y="-219.5" font-family="Helvetica" font-size="10.00">include/llvm/CodeGen</text>
<text text-anchor="middle" x="2048.5" y="-208.5" font-family="Helvetica" font-size="10.00">/SelectionDAGISel.h</text>
</a>
</g>
</g>
<!-- Node2 -->
<g id="node2" class="node">
<title>Node2</title>
<g id="a_node2"><a xlink:href="ResourcePriorityQueue_8cpp.html" target="_top" xlink:title=" ">
<polygon fill="none" stroke="black" points="0,-134.5 0,-164.5 139,-164.5 139,-134.5 0,-134.5"/>
<text text-anchor="start" x="8" y="-152.5" font-family="Helvetica" font-size="10.00">lib/CodeGen/SelectionDAG</text>
<text text-anchor="middle" x="69.5" y="-141.5" font-family="Helvetica" font-size="10.00">/ResourcePriorityQueue.cpp</text>
</a>
</g>
</g>
<!-- Node1&#45;&gt;Node2 -->
<g id="edge1" class="edge">
<title>Node1&#45;&gt;Node2</title>
<path fill="none" stroke="midnightblue" d="M1981.56,-215.11C1688.26,-213.2 515.01,-203.27 148.5,-165 145.45,-164.68 142.34,-164.31 139.2,-163.9"/>
<polygon fill="midnightblue" stroke="midnightblue" points="1981.59,-218.61 1991.62,-215.18 1981.64,-211.61 1981.59,-218.61"/>
</g>
<!-- Node3 -->
<g id="node3" class="node">
<title>Node3</title>
<g id="a_node3"><a xlink:href="ScheduleDAGFast_8cpp.html" target="_top" xlink:title=" ">
<polygon fill="none" stroke="black" points="157.5,-134.5 157.5,-164.5 291.5,-164.5 291.5,-134.5 157.5,-134.5"/>
<text text-anchor="start" x="165.5" y="-152.5" font-family="Helvetica" font-size="10.00">lib/CodeGen/SelectionDAG</text>
<text text-anchor="middle" x="224.5" y="-141.5" font-family="Helvetica" font-size="10.00">/ScheduleDAGFast.cpp</text>
</a>
</g>
</g>
<!-- Node1&#45;&gt;Node3 -->
<g id="edge2" class="edge">
<title>Node1&#45;&gt;Node3</title>
<path fill="none" stroke="midnightblue" d="M1981.53,-215C1703.01,-212.68 635.35,-201.54 300.5,-165 297.56,-164.68 294.57,-164.31 291.55,-163.89"/>
<polygon fill="midnightblue" stroke="midnightblue" points="1981.85,-218.5 1991.88,-215.08 1981.91,-211.5 1981.85,-218.5"/>
</g>
<!-- Node4 -->
<g id="node4" class="node">
<title>Node4</title>
<g id="a_node4"><a xlink:href="ScheduleDAGRRList_8cpp.html" target="_top" xlink:title=" ">
<polygon fill="none" stroke="black" points="309.5,-134.5 309.5,-164.5 443.5,-164.5 443.5,-134.5 309.5,-134.5"/>
<text text-anchor="start" x="317.5" y="-152.5" font-family="Helvetica" font-size="10.00">lib/CodeGen/SelectionDAG</text>
<text text-anchor="middle" x="376.5" y="-141.5" font-family="Helvetica" font-size="10.00">/ScheduleDAGRRList.cpp</text>
</a>
</g>
</g>
<!-- Node1&#45;&gt;Node4 -->
<g id="edge3" class="edge">
<title>Node1&#45;&gt;Node4</title>
<path fill="none" stroke="midnightblue" d="M1981.78,-214.79C1719.11,-211.75 756.02,-198.55 452.5,-165 449.56,-164.68 446.57,-164.3 443.55,-163.88"/>
<polygon fill="midnightblue" stroke="midnightblue" points="1981.88,-218.29 1991.92,-214.9 1981.96,-211.29 1981.88,-218.29"/>
</g>
<!-- Node5 -->
<g id="node5" class="node">
<title>Node5</title>
<g id="a_node5"><a xlink:href="ScheduleDAGVLIW_8cpp.html" target="_top" xlink:title=" ">
<polygon fill="none" stroke="black" points="461.5,-134.5 461.5,-164.5 595.5,-164.5 595.5,-134.5 461.5,-134.5"/>
<text text-anchor="start" x="469.5" y="-152.5" font-family="Helvetica" font-size="10.00">lib/CodeGen/SelectionDAG</text>
<text text-anchor="middle" x="528.5" y="-141.5" font-family="Helvetica" font-size="10.00">/ScheduleDAGVLIW.cpp</text>
</a>
</g>
</g>
<!-- Node1&#45;&gt;Node5 -->
<g id="edge4" class="edge">
<title>Node1&#45;&gt;Node5</title>
<path fill="none" stroke="midnightblue" d="M1981.69,-214.53C1735.15,-210.72 876.67,-195.54 604.5,-165 601.56,-164.67 598.57,-164.29 595.55,-163.87"/>
<polygon fill="midnightblue" stroke="midnightblue" points="1981.88,-218.03 1991.93,-214.68 1981.99,-211.03 1981.88,-218.03"/>
</g>
<!-- Node6 -->
<g id="node6" class="node">
<title>Node6</title>
<g id="a_node6"><a xlink:href="SelectionDAGBuilder_8cpp.html" target="_top" xlink:title=" ">
<polygon fill="none" stroke="black" points="613.5,-134.5 613.5,-164.5 747.5,-164.5 747.5,-134.5 613.5,-134.5"/>
<text text-anchor="start" x="621.5" y="-152.5" font-family="Helvetica" font-size="10.00">lib/CodeGen/SelectionDAG</text>
<text text-anchor="middle" x="680.5" y="-141.5" font-family="Helvetica" font-size="10.00">/SelectionDAGBuilder.cpp</text>
</a>
</g>
</g>
<!-- Node1&#45;&gt;Node6 -->
<g id="edge5" class="edge">
<title>Node1&#45;&gt;Node6</title>
<path fill="none" stroke="midnightblue" d="M1981.54,-214.21C1751.94,-209.56 997.43,-192.54 756.5,-165 753.56,-164.66 750.57,-164.28 747.55,-163.86"/>
<polygon fill="midnightblue" stroke="midnightblue" points="1981.69,-217.71 1991.75,-214.41 1981.83,-210.71 1981.69,-217.71"/>
</g>
<!-- Node7 -->
<g id="node7" class="node">
<title>Node7</title>
<g id="a_node7"><a xlink:href="SelectionDAGISel_8cpp.html" target="_top" xlink:title=" ">
<polygon fill="none" stroke="black" points="765.5,-134.5 765.5,-164.5 899.5,-164.5 899.5,-134.5 765.5,-134.5"/>
<text text-anchor="start" x="773.5" y="-152.5" font-family="Helvetica" font-size="10.00">lib/CodeGen/SelectionDAG</text>
<text text-anchor="middle" x="832.5" y="-141.5" font-family="Helvetica" font-size="10.00">/SelectionDAGISel.cpp</text>
</a>
</g>
</g>
<!-- Node1&#45;&gt;Node7 -->
<g id="edge6" class="edge">
<title>Node1&#45;&gt;Node7</title>
<path fill="none" stroke="midnightblue" d="M1981.78,-215.9C1805.7,-216.22 1314.13,-212.43 908.5,-165 905.56,-164.66 902.57,-164.27 899.56,-163.84"/>
<polygon fill="midnightblue" stroke="midnightblue" points="1981.93,-219.4 1991.93,-215.87 1981.92,-212.4 1981.93,-219.4"/>
</g>
<!-- Node8 -->
<g id="node8" class="node">
<title>Node8</title>
<g id="a_node8"><a xlink:href="AArch64ISelDAGToDAG_8cpp.html" target="_top" xlink:title=" ">
<polygon fill="none" stroke="black" points="917.5,-134.5 917.5,-164.5 1061.5,-164.5 1061.5,-134.5 917.5,-134.5"/>
<text text-anchor="start" x="925.5" y="-152.5" font-family="Helvetica" font-size="10.00">lib/Target/AArch64</text>
<text text-anchor="middle" x="989.5" y="-141.5" font-family="Helvetica" font-size="10.00">/AArch64ISelDAGToDAG.cpp</text>
</a>
</g>
</g>
<!-- Node1&#45;&gt;Node8 -->
<g id="edge7" class="edge">
<title>Node1&#45;&gt;Node8</title>
<path fill="none" stroke="midnightblue" d="M1981.72,-214.94C1823.12,-212.97 1411.59,-204.18 1070.5,-165 1067.66,-164.67 1064.77,-164.31 1061.86,-163.92"/>
<polygon fill="midnightblue" stroke="midnightblue" points="1981.75,-218.44 1991.79,-215.06 1981.84,-211.44 1981.75,-218.44"/>
</g>
<!-- Node9 -->
<g id="node9" class="node">
<title>Node9</title>
<g id="a_node9"><a xlink:href="AMDGPUISelDAGToDAG_8cpp.html" target="_top" xlink:title="Defines an instruction selector for the AMDGPU target.">
<polygon fill="none" stroke="black" points="1080,-134.5 1080,-164.5 1247,-164.5 1247,-134.5 1080,-134.5"/>
<text text-anchor="start" x="1088" y="-152.5" font-family="Helvetica" font-size="10.00">lib/Target/AMDGPU/AMDGPUISel</text>
<text text-anchor="middle" x="1163.5" y="-141.5" font-family="Helvetica" font-size="10.00">DAGToDAG.cpp</text>
</a>
</g>
</g>
<!-- Node1&#45;&gt;Node9 -->
<g id="edge8" class="edge">
<title>Node1&#45;&gt;Node9</title>
<path fill="none" stroke="midnightblue" d="M1981.38,-213.28C1844.65,-208.31 1524.13,-194.33 1256.5,-165 1253.41,-164.66 1250.27,-164.29 1247.1,-163.9"/>
<polygon fill="midnightblue" stroke="midnightblue" points="1981.57,-216.79 1991.69,-213.65 1981.82,-209.8 1981.57,-216.79"/>
</g>
<!-- Node10 -->
<g id="node10" class="node">
<title>Node10</title>
<g id="a_node10"><a xlink:href="ARCISelDAGToDAG_8cpp.html" target="_top" xlink:title=" ">
<polygon fill="none" stroke="black" points="1265.5,-134.5 1265.5,-164.5 1417.5,-164.5 1417.5,-134.5 1265.5,-134.5"/>
<text text-anchor="start" x="1273.5" y="-152.5" font-family="Helvetica" font-size="10.00">lib/Target/ARC/ARCISelDAGTo</text>
<text text-anchor="middle" x="1341.5" y="-141.5" font-family="Helvetica" font-size="10.00">DAG.cpp</text>
</a>
</g>
</g>
<!-- Node1&#45;&gt;Node10 -->
<g id="edge9" class="edge">
<title>Node1&#45;&gt;Node10</title>
<path fill="none" stroke="midnightblue" d="M1981.4,-211.99C1867.15,-205.59 1627.69,-190.28 1426.5,-165 1423.68,-164.65 1420.81,-164.26 1417.91,-163.86"/>
<polygon fill="midnightblue" stroke="midnightblue" points="1981.55,-215.51 1991.73,-212.57 1981.94,-208.52 1981.55,-215.51"/>
</g>
<!-- Node11 -->
<g id="node11" class="node">
<title>Node11</title>
<g id="a_node11"><a xlink:href="ARMISelDAGToDAG_8cpp.html" target="_top" xlink:title=" ">
<polygon fill="none" stroke="black" points="1436,-134.5 1436,-164.5 1591,-164.5 1591,-134.5 1436,-134.5"/>
<text text-anchor="start" x="1444" y="-152.5" font-family="Helvetica" font-size="10.00">lib/Target/ARM/ARMISelDAGTo</text>
<text text-anchor="middle" x="1513.5" y="-141.5" font-family="Helvetica" font-size="10.00">DAG.cpp</text>
</a>
</g>
</g>
<!-- Node1&#45;&gt;Node11 -->
<g id="edge10" class="edge">
<title>Node1&#45;&gt;Node11</title>
<path fill="none" stroke="midnightblue" d="M1981.73,-209.09C1894.07,-200.41 1735.47,-183.84 1600.5,-165 1597.47,-164.58 1594.38,-164.13 1591.26,-163.67"/>
<polygon fill="midnightblue" stroke="midnightblue" points="1981.51,-212.58 1991.8,-210.08 1982.19,-205.62 1981.51,-212.58"/>
</g>
<!-- Node12 -->
<g id="node12" class="node">
<title>Node12</title>
<g id="a_node12"><a xlink:href="AVRISelDAGToDAG_8cpp.html" target="_top" xlink:title=" ">
<polygon fill="none" stroke="black" points="1609.5,-134.5 1609.5,-164.5 1759.5,-164.5 1759.5,-134.5 1609.5,-134.5"/>
<text text-anchor="start" x="1617.5" y="-152.5" font-family="Helvetica" font-size="10.00">lib/Target/AVR/AVRISelDAGTo</text>
<text text-anchor="middle" x="1684.5" y="-141.5" font-family="Helvetica" font-size="10.00">DAG.cpp</text>
</a>
</g>
</g>
<!-- Node1&#45;&gt;Node12 -->
<g id="edge11" class="edge">
<title>Node1&#45;&gt;Node12</title>
<path fill="none" stroke="midnightblue" d="M1981.43,-203.52C1918.62,-192.31 1824.88,-175.57 1759.59,-163.91"/>
<polygon fill="midnightblue" stroke="midnightblue" points="1981.17,-207.03 1991.62,-205.34 1982.4,-200.14 1981.17,-207.03"/>
</g>
<!-- Node13 -->
<g id="node13" class="node">
<title>Node13</title>
<g id="a_node13"><a xlink:href="BPFISelDAGToDAG_8cpp.html" target="_top" xlink:title=" ">
<polygon fill="none" stroke="black" points="1777.5,-134.5 1777.5,-164.5 1925.5,-164.5 1925.5,-134.5 1777.5,-134.5"/>
<text text-anchor="start" x="1785.5" y="-152.5" font-family="Helvetica" font-size="10.00">lib/Target/BPF/BPFISelDAGTo</text>
<text text-anchor="middle" x="1851.5" y="-141.5" font-family="Helvetica" font-size="10.00">DAG.cpp</text>
</a>
</g>
</g>
<!-- Node1&#45;&gt;Node13 -->
<g id="edge12" class="edge">
<title>Node1&#45;&gt;Node13</title>
<path fill="none" stroke="midnightblue" d="M1996.15,-198.23C1964.28,-187.71 1924.09,-174.45 1894.16,-164.58"/>
<polygon fill="midnightblue" stroke="midnightblue" points="1995.16,-201.59 2005.75,-201.4 1997.35,-194.94 1995.16,-201.59"/>
</g>
<!-- Node14 -->
<g id="node14" class="node">
<title>Node14</title>
<g id="a_node14"><a xlink:href="HexagonISelDAGToDAG_8cpp.html" target="_top" xlink:title=" ">
<polygon fill="none" stroke="black" points="1881,-67.5 1881,-97.5 2026,-97.5 2026,-67.5 1881,-67.5"/>
<text text-anchor="start" x="1889" y="-85.5" font-family="Helvetica" font-size="10.00">lib/Target/Hexagon</text>
<text text-anchor="middle" x="1953.5" y="-74.5" font-family="Helvetica" font-size="10.00">/HexagonISelDAGToDAG.cpp</text>
</a>
</g>
</g>
<!-- Node1&#45;&gt;Node14 -->
<g id="edge13" class="edge">
<title>Node1&#45;&gt;Node14</title>
<path fill="none" stroke="midnightblue" d="M2007.62,-196.19C1994.65,-188.21 1981.38,-177.8 1972.5,-165 1958.34,-144.59 1954.62,-115.08 1953.71,-97.74"/>
<polygon fill="midnightblue" stroke="midnightblue" points="2006.09,-199.35 2016.5,-201.32 2009.6,-193.28 2006.09,-199.35"/>
</g>
<!-- Node15 -->
<g id="node15" class="node">
<title>Node15</title>
<g id="a_node15"><a xlink:href="HexagonISelDAGToDAG_8h.html" target="_top" xlink:title=" ">
<polygon fill="none" stroke="black" points="1981.5,-134.5 1981.5,-164.5 2115.5,-164.5 2115.5,-134.5 1981.5,-134.5"/>
<text text-anchor="start" x="1989.5" y="-152.5" font-family="Helvetica" font-size="10.00">lib/Target/Hexagon</text>
<text text-anchor="middle" x="2048.5" y="-141.5" font-family="Helvetica" font-size="10.00">/HexagonISelDAGToDAG.h</text>
</a>
</g>
</g>
<!-- Node1&#45;&gt;Node15 -->
<g id="edge14" class="edge">
<title>Node1&#45;&gt;Node15</title>
<path fill="none" stroke="midnightblue" d="M2048.5,-191.11C2048.5,-182.15 2048.5,-172.32 2048.5,-164.58"/>
<polygon fill="midnightblue" stroke="midnightblue" points="2045,-191.4 2048.5,-201.4 2052,-191.4 2045,-191.4"/>
</g>
<!-- Node16 -->
<g id="node16" class="node">
<title>Node16</title>
<g id="a_node16"><a xlink:href="HexagonISelDAGToDAGHVX_8cpp.html" target="_top" xlink:title=" ">
<polygon fill="none" stroke="black" points="2044.5,-67.5 2044.5,-97.5 2210.5,-97.5 2210.5,-67.5 2044.5,-67.5"/>
<text text-anchor="start" x="2052.5" y="-85.5" font-family="Helvetica" font-size="10.00">lib/Target/Hexagon</text>
<text text-anchor="middle" x="2127.5" y="-74.5" font-family="Helvetica" font-size="10.00">/HexagonISelDAGToDAGHVX.cpp</text>
</a>
</g>
</g>
<!-- Node1&#45;&gt;Node16 -->
<g id="edge17" class="edge">
<title>Node1&#45;&gt;Node16</title>
<path fill="none" stroke="midnightblue" d="M2092.12,-196.3C2104.77,-188.48 2117.14,-178.14 2124.5,-165 2136.33,-143.88 2133.7,-114.61 2130.64,-97.5"/>
<polygon fill="midnightblue" stroke="midnightblue" points="2090.31,-193.3 2083.38,-201.31 2093.79,-199.37 2090.31,-193.3"/>
</g>
<!-- Node17 -->
<g id="node17" class="node">
<title>Node17</title>
<g id="a_node17"><a xlink:href="LanaiISelDAGToDAG_8cpp.html" target="_top" xlink:title=" ">
<polygon fill="none" stroke="black" points="2171.5,-134.5 2171.5,-164.5 2297.5,-164.5 2297.5,-134.5 2171.5,-134.5"/>
<text text-anchor="start" x="2179.5" y="-152.5" font-family="Helvetica" font-size="10.00">lib/Target/Lanai/LanaiISel</text>
<text text-anchor="middle" x="2234.5" y="-141.5" font-family="Helvetica" font-size="10.00">DAGToDAG.cpp</text>
</a>
</g>
</g>
<!-- Node1&#45;&gt;Node17 -->
<g id="edge18" class="edge">
<title>Node1&#45;&gt;Node17</title>
<path fill="none" stroke="midnightblue" d="M2098.31,-198.09C2128.34,-187.6 2166.09,-174.41 2194.22,-164.58"/>
<polygon fill="midnightblue" stroke="midnightblue" points="2097.14,-194.79 2088.86,-201.4 2099.45,-201.4 2097.14,-194.79"/>
</g>
<!-- Node18 -->
<g id="node18" class="node">
<title>Node18</title>
<g id="a_node18"><a xlink:href="MipsISelDAGToDAG_8h.html" target="_top" xlink:title=" ">
<polygon fill="none" stroke="black" points="2315.5,-134.5 2315.5,-164.5 2437.5,-164.5 2437.5,-134.5 2315.5,-134.5"/>
<text text-anchor="start" x="2323.5" y="-152.5" font-family="Helvetica" font-size="10.00">lib/Target/Mips/MipsISel</text>
<text text-anchor="middle" x="2376.5" y="-141.5" font-family="Helvetica" font-size="10.00">DAGToDAG.h</text>
</a>
</g>
</g>
<!-- Node1&#45;&gt;Node18 -->
<g id="edge19" class="edge">
<title>Node1&#45;&gt;Node18</title>
<path fill="none" stroke="midnightblue" d="M2115.28,-202.64C2167.39,-192.55 2241.59,-178.08 2306.5,-165 2309.42,-164.41 2312.41,-163.81 2315.42,-163.19"/>
<polygon fill="midnightblue" stroke="midnightblue" points="2114.31,-199.26 2105.16,-204.6 2115.64,-206.13 2114.31,-199.26"/>
</g>
<!-- Node25 -->
<g id="node25" class="node">
<title>Node25</title>
<g id="a_node25"><a xlink:href="MSP430ISelDAGToDAG_8cpp.html" target="_top" xlink:title=" ">
<polygon fill="none" stroke="black" points="2456,-134.5 2456,-164.5 2593,-164.5 2593,-134.5 2456,-134.5"/>
<text text-anchor="start" x="2464" y="-152.5" font-family="Helvetica" font-size="10.00">lib/Target/MSP430/MSP430</text>
<text text-anchor="middle" x="2524.5" y="-141.5" font-family="Helvetica" font-size="10.00">ISelDAGToDAG.cpp</text>
</a>
</g>
</g>
<!-- Node1&#45;&gt;Node25 -->
<g id="edge29" class="edge">
<title>Node1&#45;&gt;Node25</title>
<path fill="none" stroke="midnightblue" d="M2115.65,-208.17C2194.91,-199.25 2330.59,-183.11 2446.5,-165 2449.49,-164.53 2452.55,-164.04 2455.63,-163.52"/>
<polygon fill="midnightblue" stroke="midnightblue" points="2114.87,-204.74 2105.33,-209.33 2115.65,-211.7 2114.87,-204.74"/>
</g>
<!-- Node26 -->
<g id="node26" class="node">
<title>Node26</title>
<g id="a_node26"><a xlink:href="NVPTXISelDAGToDAG_8h.html" target="_top" xlink:title=" ">
<polygon fill="none" stroke="black" points="2611,-134.5 2611,-164.5 2758,-164.5 2758,-134.5 2611,-134.5"/>
<text text-anchor="start" x="2619" y="-152.5" font-family="Helvetica" font-size="10.00">lib/Target/NVPTX/NVPTXISel</text>
<text text-anchor="middle" x="2684.5" y="-141.5" font-family="Helvetica" font-size="10.00">DAGToDAG.h</text>
</a>
</g>
</g>
<!-- Node1&#45;&gt;Node26 -->
<g id="edge30" class="edge">
<title>Node1&#45;&gt;Node26</title>
<path fill="none" stroke="midnightblue" d="M2115.25,-211.18C2219.38,-204.03 2426.7,-188.21 2601.5,-165 2604.55,-164.6 2607.65,-164.16 2610.78,-163.7"/>
<polygon fill="midnightblue" stroke="midnightblue" points="2114.93,-207.69 2105.19,-211.86 2115.41,-214.67 2114.93,-207.69"/>
</g>
<!-- Node28 -->
<g id="node28" class="node">
<title>Node28</title>
<g id="a_node28"><a xlink:href="PPCISelDAGToDAG_8cpp.html" target="_top" xlink:title=" ">
<polygon fill="none" stroke="black" points="2776,-134.5 2776,-164.5 2903,-164.5 2903,-134.5 2776,-134.5"/>
<text text-anchor="start" x="2784" y="-152.5" font-family="Helvetica" font-size="10.00">lib/Target/PowerPC</text>
<text text-anchor="middle" x="2839.5" y="-141.5" font-family="Helvetica" font-size="10.00">/PPCISelDAGToDAG.cpp</text>
</a>
</g>
</g>
<!-- Node1&#45;&gt;Node28 -->
<g id="edge32" class="edge">
<title>Node1&#45;&gt;Node28</title>
<path fill="none" stroke="midnightblue" d="M2115.42,-213.6C2242.71,-209.38 2528.27,-196.91 2766.5,-165 2769.57,-164.59 2772.71,-164.13 2775.88,-163.63"/>
<polygon fill="midnightblue" stroke="midnightblue" points="2114.94,-210.12 2105.06,-213.94 2115.17,-217.11 2114.94,-210.12"/>
</g>
<!-- Node29 -->
<g id="node29" class="node">
<title>Node29</title>
<g id="a_node29"><a xlink:href="RISCVISelDAGToDAG_8h.html" target="_top" xlink:title=" ">
<polygon fill="none" stroke="black" points="2921.5,-134.5 2921.5,-164.5 3061.5,-164.5 3061.5,-134.5 2921.5,-134.5"/>
<text text-anchor="start" x="2929.5" y="-152.5" font-family="Helvetica" font-size="10.00">lib/Target/RISCV/RISCVISel</text>
<text text-anchor="middle" x="2991.5" y="-141.5" font-family="Helvetica" font-size="10.00">DAGToDAG.h</text>
</a>
</g>
</g>
<!-- Node1&#45;&gt;Node29 -->
<g id="edge33" class="edge">
<title>Node1&#45;&gt;Node29</title>
<path fill="none" stroke="midnightblue" d="M2115.17,-214.4C2260.5,-211.38 2616.59,-200.67 2912.5,-165 2915.41,-164.65 2918.37,-164.26 2921.36,-163.84"/>
<polygon fill="midnightblue" stroke="midnightblue" points="2115,-210.9 2105.07,-214.6 2115.14,-217.9 2115,-210.9"/>
</g>
<!-- Node31 -->
<g id="node31" class="node">
<title>Node31</title>
<g id="a_node31"><a xlink:href="SparcISelDAGToDAG_8cpp.html" target="_top" xlink:title=" ">
<polygon fill="none" stroke="black" points="3080,-134.5 3080,-164.5 3211,-164.5 3211,-134.5 3080,-134.5"/>
<text text-anchor="start" x="3088" y="-152.5" font-family="Helvetica" font-size="10.00">lib/Target/Sparc/SparcISel</text>
<text text-anchor="middle" x="3145.5" y="-141.5" font-family="Helvetica" font-size="10.00">DAGToDAG.cpp</text>
</a>
</g>
</g>
<!-- Node1&#45;&gt;Node31 -->
<g id="edge35" class="edge">
<title>Node1&#45;&gt;Node31</title>
<path fill="none" stroke="midnightblue" d="M2115.64,-215.46C2279.44,-214.66 2712.4,-208.24 3070.5,-165 3073.53,-164.63 3076.62,-164.22 3079.73,-163.76"/>
<polygon fill="midnightblue" stroke="midnightblue" points="2115.23,-211.96 2105.24,-215.51 2115.26,-218.96 2115.23,-211.96"/>
</g>
<!-- Node32 -->
<g id="node32" class="node">
<title>Node32</title>
<g id="a_node32"><a xlink:href="SystemZISelDAGToDAG_8cpp.html" target="_top" xlink:title=" ">
<polygon fill="none" stroke="black" points="3229.5,-134.5 3229.5,-164.5 3375.5,-164.5 3375.5,-134.5 3229.5,-134.5"/>
<text text-anchor="start" x="3237.5" y="-152.5" font-family="Helvetica" font-size="10.00">lib/Target/SystemZ</text>
<text text-anchor="middle" x="3302.5" y="-141.5" font-family="Helvetica" font-size="10.00">/SystemZISelDAGToDAG.cpp</text>
</a>
</g>
</g>
<!-- Node1&#45;&gt;Node32 -->
<g id="edge36" class="edge">
<title>Node1&#45;&gt;Node32</title>
<path fill="none" stroke="midnightblue" d="M2115.18,-215.7C2294.48,-215.57 2801.71,-210.85 3220.5,-165 3223.37,-164.69 3226.3,-164.33 3229.25,-163.95"/>
<polygon fill="midnightblue" stroke="midnightblue" points="2115.11,-212.2 2105.11,-215.7 2115.11,-219.2 2115.11,-212.2"/>
</g>
<!-- Node33 -->
<g id="node33" class="node">
<title>Node33</title>
<g id="a_node33"><a xlink:href="VEISelDAGToDAG_8cpp.html" target="_top" xlink:title=" ">
<polygon fill="none" stroke="black" points="3394,-134.5 3394,-164.5 3531,-164.5 3531,-134.5 3394,-134.5"/>
<text text-anchor="start" x="3402" y="-152.5" font-family="Helvetica" font-size="10.00">lib/Target/VE/VEISelDAGTo</text>
<text text-anchor="middle" x="3462.5" y="-141.5" font-family="Helvetica" font-size="10.00">DAG.cpp</text>
</a>
</g>
</g>
<!-- Node1&#45;&gt;Node33 -->
<g id="edge37" class="edge">
<title>Node1&#45;&gt;Node33</title>
<path fill="none" stroke="midnightblue" d="M2115.37,-214.27C2349.91,-209.73 3134.46,-192.82 3384.5,-165 3387.51,-164.66 3390.58,-164.28 3393.68,-163.86"/>
<polygon fill="midnightblue" stroke="midnightblue" points="2115.21,-210.77 2105.27,-214.46 2115.34,-217.77 2115.21,-210.77"/>
</g>
<!-- Node34 -->
<g id="node34" class="node">
<title>Node34</title>
<g id="a_node34"><a xlink:href="WebAssemblyISelDAGToDAG_8cpp.html" target="_top" xlink:title="This file defines an instruction selector for the WebAssembly target.">
<polygon fill="none" stroke="black" points="3549.5,-134.5 3549.5,-164.5 3719.5,-164.5 3719.5,-134.5 3549.5,-134.5"/>
<text text-anchor="start" x="3557.5" y="-152.5" font-family="Helvetica" font-size="10.00">lib/Target/WebAssembly</text>
<text text-anchor="middle" x="3634.5" y="-141.5" font-family="Helvetica" font-size="10.00">/WebAssemblyISelDAGToDAG.cpp</text>
</a>
</g>
</g>
<!-- Node1&#45;&gt;Node34 -->
<g id="edge38" class="edge">
<title>Node1&#45;&gt;Node34</title>
<path fill="none" stroke="midnightblue" d="M2115.49,-216.07C2325.88,-217.26 2992.06,-216.4 3540.5,-165 3543.38,-164.73 3546.3,-164.43 3549.25,-164.1"/>
<polygon fill="midnightblue" stroke="midnightblue" points="2115.25,-212.57 2105.23,-216.01 2115.21,-219.57 2115.25,-212.57"/>
</g>
<!-- Node35 -->
<g id="node35" class="node">
<title>Node35</title>
<g id="a_node35"><a xlink:href="X86ISelDAGToDAG_8cpp.html" target="_top" xlink:title=" ">
<polygon fill="none" stroke="black" points="3738,-134.5 3738,-164.5 3883,-164.5 3883,-134.5 3738,-134.5"/>
<text text-anchor="start" x="3746" y="-152.5" font-family="Helvetica" font-size="10.00">lib/Target/X86/X86ISelDAGTo</text>
<text text-anchor="middle" x="3810.5" y="-141.5" font-family="Helvetica" font-size="10.00">DAG.cpp</text>
</a>
</g>
</g>
<!-- Node1&#45;&gt;Node35 -->
<g id="edge39" class="edge">
<title>Node1&#45;&gt;Node35</title>
<path fill="none" stroke="midnightblue" d="M2115.1,-214.79C2386.19,-211.69 3407.35,-198.05 3728.5,-165 3731.52,-164.69 3734.6,-164.33 3737.7,-163.94"/>
<polygon fill="midnightblue" stroke="midnightblue" points="2114.98,-211.29 2105.02,-214.9 2115.06,-218.29 2114.98,-211.29"/>
</g>
<!-- Node36 -->
<g id="node36" class="node">
<title>Node36</title>
<g id="a_node36"><a xlink:href="XCoreISelDAGToDAG_8cpp.html" target="_top" xlink:title=" ">
<polygon fill="none" stroke="black" points="3901.5,-134.5 3901.5,-164.5 4035.5,-164.5 4035.5,-134.5 3901.5,-134.5"/>
<text text-anchor="start" x="3909.5" y="-152.5" font-family="Helvetica" font-size="10.00">lib/Target/XCore/XCoreISel</text>
<text text-anchor="middle" x="3968.5" y="-141.5" font-family="Helvetica" font-size="10.00">DAGToDAG.cpp</text>
</a>
</g>
</g>
<!-- Node1&#45;&gt;Node36 -->
<g id="edge40" class="edge">
<title>Node1&#45;&gt;Node36</title>
<path fill="none" stroke="midnightblue" d="M2115.33,-215.11C2403.05,-213.23 3537.7,-203.45 3892.5,-165 3895.44,-164.68 3898.43,-164.31 3901.45,-163.9"/>
<polygon fill="midnightblue" stroke="midnightblue" points="2115.03,-211.62 2105.05,-215.18 2115.07,-218.62 2115.03,-211.62"/>
</g>
<!-- Node15&#45;&gt;Node14 -->
<g id="edge15" class="edge">
<title>Node15&#45;&gt;Node14</title>
<path fill="none" stroke="midnightblue" d="M2019.61,-128.73C2004.91,-118.68 1987.39,-106.68 1974.07,-97.58"/>
<polygon fill="midnightblue" stroke="midnightblue" points="2017.66,-131.64 2027.89,-134.4 2021.61,-125.86 2017.66,-131.64"/>
</g>
<!-- Node15&#45;&gt;Node16 -->
<g id="edge16" class="edge">
<title>Node15&#45;&gt;Node16</title>
<path fill="none" stroke="midnightblue" d="M2073.56,-127.88C2085.56,-118.01 2099.63,-106.43 2110.39,-97.58"/>
<polygon fill="midnightblue" stroke="midnightblue" points="2071.14,-125.34 2065.64,-134.4 2075.59,-130.75 2071.14,-125.34"/>
</g>
<!-- Node19 -->
<g id="node19" class="node">
<title>Node19</title>
<g id="a_node19"><a xlink:href="Mips16ISelDAGToDAG_8h.html" target="_top" xlink:title=" ">
<polygon fill="none" stroke="black" points="2420.5,-67.5 2420.5,-97.5 2552.5,-97.5 2552.5,-67.5 2420.5,-67.5"/>
<text text-anchor="start" x="2428.5" y="-85.5" font-family="Helvetica" font-size="10.00">lib/Target/Mips/Mips16ISel</text>
<text text-anchor="middle" x="2486.5" y="-74.5" font-family="Helvetica" font-size="10.00">DAGToDAG.h</text>
</a>
</g>
</g>
<!-- Node18&#45;&gt;Node19 -->
<g id="edge20" class="edge">
<title>Node18&#45;&gt;Node19</title>
<path fill="none" stroke="midnightblue" d="M2409,-129.3C2426.21,-119.12 2446.98,-106.85 2462.68,-97.58"/>
<polygon fill="midnightblue" stroke="midnightblue" points="2407.2,-126.3 2400.37,-134.4 2410.76,-132.32 2407.2,-126.3"/>
</g>
<!-- Node21 -->
<g id="node21" class="node">
<title>Node21</title>
<g id="a_node21"><a xlink:href="MipsISelDAGToDAG_8cpp.html" target="_top" xlink:title=" ">
<polygon fill="none" stroke="black" points="2380.5,-0.5 2380.5,-30.5 2502.5,-30.5 2502.5,-0.5 2380.5,-0.5"/>
<text text-anchor="start" x="2388.5" y="-18.5" font-family="Helvetica" font-size="10.00">lib/Target/Mips/MipsISel</text>
<text text-anchor="middle" x="2441.5" y="-7.5" font-family="Helvetica" font-size="10.00">DAGToDAG.cpp</text>
</a>
</g>
</g>
<!-- Node18&#45;&gt;Node21 -->
<g id="edge24" class="edge">
<title>Node18&#45;&gt;Node21</title>
<path fill="none" stroke="midnightblue" d="M2385.65,-124.99C2392.29,-108.5 2401.78,-86.09 2411.5,-67 2417.88,-54.46 2426.1,-40.76 2432.32,-30.8"/>
<polygon fill="midnightblue" stroke="midnightblue" points="2382.35,-123.82 2381.9,-134.4 2388.85,-126.4 2382.35,-123.82"/>
</g>
<!-- Node23 -->
<g id="node23" class="node">
<title>Node23</title>
<g id="a_node23"><a xlink:href="MipsSEISelDAGToDAG_8h.html" target="_top" xlink:title=" ">
<polygon fill="none" stroke="black" points="2229,-67.5 2229,-97.5 2364,-97.5 2364,-67.5 2229,-67.5"/>
<text text-anchor="start" x="2237" y="-85.5" font-family="Helvetica" font-size="10.00">lib/Target/Mips/MipsSEISel</text>
<text text-anchor="middle" x="2296.5" y="-74.5" font-family="Helvetica" font-size="10.00">DAGToDAG.h</text>
</a>
</g>
</g>
<!-- Node18&#45;&gt;Node23 -->
<g id="edge25" class="edge">
<title>Node18&#45;&gt;Node23</title>
<path fill="none" stroke="midnightblue" d="M2351.13,-127.88C2338.97,-118.01 2324.72,-106.43 2313.82,-97.58"/>
<polygon fill="midnightblue" stroke="midnightblue" points="2349.17,-130.81 2359.14,-134.4 2353.59,-125.37 2349.17,-130.81"/>
</g>
<!-- Node20 -->
<g id="node20" class="node">
<title>Node20</title>
<g id="a_node20"><a xlink:href="Mips16ISelDAGToDAG_8cpp.html" target="_top" xlink:title=" ">
<polygon fill="none" stroke="black" points="2520.5,-0.5 2520.5,-30.5 2652.5,-30.5 2652.5,-0.5 2520.5,-0.5"/>
<text text-anchor="start" x="2528.5" y="-18.5" font-family="Helvetica" font-size="10.00">lib/Target/Mips/Mips16ISel</text>
<text text-anchor="middle" x="2586.5" y="-7.5" font-family="Helvetica" font-size="10.00">DAGToDAG.cpp</text>
</a>
</g>
</g>
<!-- Node19&#45;&gt;Node20 -->
<g id="edge21" class="edge">
<title>Node19&#45;&gt;Node20</title>
<path fill="none" stroke="midnightblue" d="M2516.91,-61.73C2532.38,-51.68 2550.83,-39.68 2564.84,-30.58"/>
<polygon fill="midnightblue" stroke="midnightblue" points="2514.68,-59.01 2508.2,-67.4 2518.49,-64.88 2514.68,-59.01"/>
</g>
<!-- Node19&#45;&gt;Node21 -->
<g id="edge22" class="edge">
<title>Node19&#45;&gt;Node21</title>
<path fill="none" stroke="midnightblue" d="M2471.03,-59.16C2464.47,-49.68 2457.02,-38.92 2451.25,-30.58"/>
<polygon fill="midnightblue" stroke="midnightblue" points="2468.17,-61.17 2476.74,-67.4 2473.92,-57.18 2468.17,-61.17"/>
</g>
<!-- Node22 -->
<g id="node22" class="node">
<title>Node22</title>
<g id="a_node22"><a xlink:href="MipsTargetMachine_8cpp.html" target="_top" xlink:title=" ">
<polygon fill="none" stroke="black" points="2231,-0.5 2231,-30.5 2362,-30.5 2362,-0.5 2231,-0.5"/>
<text text-anchor="start" x="2239" y="-18.5" font-family="Helvetica" font-size="10.00">lib/Target/Mips/MipsTarget</text>
<text text-anchor="middle" x="2296.5" y="-7.5" font-family="Helvetica" font-size="10.00">Machine.cpp</text>
</a>
</g>
</g>
<!-- Node19&#45;&gt;Node22 -->
<g id="edge23" class="edge">
<title>Node19&#45;&gt;Node22</title>
<path fill="none" stroke="midnightblue" d="M2435.61,-64.09C2404.94,-53.6 2366.39,-40.41 2337.65,-30.58"/>
<polygon fill="midnightblue" stroke="midnightblue" points="2434.68,-67.47 2445.27,-67.4 2436.94,-60.85 2434.68,-67.47"/>
</g>
<!-- Node23&#45;&gt;Node21 -->
<g id="edge26" class="edge">
<title>Node23&#45;&gt;Node21</title>
<path fill="none" stroke="midnightblue" d="M2337.17,-63.27C2360.26,-52.92 2388.74,-40.15 2410.1,-30.58"/>
<polygon fill="midnightblue" stroke="midnightblue" points="2335.66,-60.11 2327.96,-67.4 2338.52,-66.5 2335.66,-60.11"/>
</g>
<!-- Node23&#45;&gt;Node22 -->
<g id="edge28" class="edge">
<title>Node23&#45;&gt;Node22</title>
<path fill="none" stroke="midnightblue" d="M2296.5,-57.11C2296.5,-48.15 2296.5,-38.32 2296.5,-30.58"/>
<polygon fill="midnightblue" stroke="midnightblue" points="2293,-57.4 2296.5,-67.4 2300,-57.4 2293,-57.4"/>
</g>
<!-- Node24 -->
<g id="node24" class="node">
<title>Node24</title>
<g id="a_node24"><a xlink:href="MipsSEISelDAGToDAG_8cpp.html" target="_top" xlink:title=" ">
<polygon fill="none" stroke="black" points="2078,-0.5 2078,-30.5 2213,-30.5 2213,-0.5 2078,-0.5"/>
<text text-anchor="start" x="2086" y="-18.5" font-family="Helvetica" font-size="10.00">lib/Target/Mips/MipsSEISel</text>
<text text-anchor="middle" x="2145.5" y="-7.5" font-family="Helvetica" font-size="10.00">DAGToDAG.cpp</text>
</a>
</g>
</g>
<!-- Node23&#45;&gt;Node24 -->
<g id="edge27" class="edge">
<title>Node23&#45;&gt;Node24</title>
<path fill="none" stroke="midnightblue" d="M2254.47,-63.41C2230.36,-53.03 2200.55,-40.2 2178.2,-30.58"/>
<polygon fill="midnightblue" stroke="midnightblue" points="2253.17,-66.66 2263.74,-67.4 2255.93,-60.23 2253.17,-66.66"/>
</g>
<!-- Node27 -->
<g id="node27" class="node">
<title>Node27</title>
<g id="a_node27"><a xlink:href="NVPTXISelDAGToDAG_8cpp.html" target="_top" xlink:title=" ">
<polygon fill="none" stroke="black" points="2611,-67.5 2611,-97.5 2758,-97.5 2758,-67.5 2611,-67.5"/>
<text text-anchor="start" x="2619" y="-85.5" font-family="Helvetica" font-size="10.00">lib/Target/NVPTX/NVPTXISel</text>
<text text-anchor="middle" x="2684.5" y="-74.5" font-family="Helvetica" font-size="10.00">DAGToDAG.cpp</text>
</a>
</g>
</g>
<!-- Node26&#45;&gt;Node27 -->
<g id="edge31" class="edge">
<title>Node26&#45;&gt;Node27</title>
<path fill="none" stroke="midnightblue" d="M2684.5,-124.11C2684.5,-115.15 2684.5,-105.32 2684.5,-97.58"/>
<polygon fill="midnightblue" stroke="midnightblue" points="2681,-124.4 2684.5,-134.4 2688,-124.4 2681,-124.4"/>
</g>
<!-- Node30 -->
<g id="node30" class="node">
<title>Node30</title>
<g id="a_node30"><a xlink:href="RISCVISelDAGToDAG_8cpp.html" target="_top" xlink:title=" ">
<polygon fill="none" stroke="black" points="2921.5,-67.5 2921.5,-97.5 3061.5,-97.5 3061.5,-67.5 2921.5,-67.5"/>
<text text-anchor="start" x="2929.5" y="-85.5" font-family="Helvetica" font-size="10.00">lib/Target/RISCV/RISCVISel</text>
<text text-anchor="middle" x="2991.5" y="-74.5" font-family="Helvetica" font-size="10.00">DAGToDAG.cpp</text>
</a>
</g>
</g>
<!-- Node29&#45;&gt;Node30 -->
<g id="edge34" class="edge">
<title>Node29&#45;&gt;Node30</title>
<path fill="none" stroke="midnightblue" d="M2991.5,-124.11C2991.5,-115.15 2991.5,-105.32 2991.5,-97.58"/>
<polygon fill="midnightblue" stroke="midnightblue" points="2988,-124.4 2991.5,-134.4 2995,-124.4 2988,-124.4"/>
</g>
</g>
</svg>
