<?xml version="1.0" encoding="UTF-8" standalone="no"?>
<!DOCTYPE svg PUBLIC "-//W3C//DTD SVG 1.1//EN"
 "http://www.w3.org/Graphics/SVG/1.1/DTD/svg11.dtd">
<!-- Generated by graphviz version 2.44.0 (0)
 -->
<!-- Title: include/llvm/ADT/Sequence.h Pages: 1 -->
<svg width="1590pt" height="95pt"
 viewBox="0.00 0.00 1589.50 95.00" xmlns="http://www.w3.org/2000/svg" xmlns:xlink="http://www.w3.org/1999/xlink">
<g id="graph0" class="graph" transform="scale(1 1) rotate(0) translate(4 91)">
<title>include/llvm/ADT/Sequence.h</title>
<!-- Node1 -->
<g id="node1" class="node">
<title>Node1</title>
<g id="a_node1"><a xlink:title="This routine provides some synthesis utilities to produce sequences of values.">
<polygon fill="#bfbfbf" stroke="black" points="789,-67.5 789,-86.5 935,-86.5 935,-67.5 789,-67.5"/>
<text text-anchor="middle" x="862" y="-74.5" font-family="Helvetica" font-size="10.00">include/llvm/ADT/Sequence.h</text>
</a>
</g>
</g>
<!-- Node2 -->
<g id="node2" class="node">
<title>Node2</title>
<g id="a_node2"><a xlink:href="LazyCallGraph_8cpp.html" target="_top" xlink:title=" ">
<polygon fill="none" stroke="black" points="0,-6 0,-25 152,-25 152,-6 0,-6"/>
<text text-anchor="middle" x="76" y="-13" font-family="Helvetica" font-size="10.00">lib/Analysis/LazyCallGraph.cpp</text>
</a>
</g>
</g>
<!-- Node1&#45;&gt;Node2 -->
<g id="edge1" class="edge">
<title>Node1&#45;&gt;Node2</title>
<path fill="none" stroke="midnightblue" d="M778.85,-73.48C647.33,-68.87 383.38,-57.03 161,-31 147.92,-29.47 133.78,-27.28 120.87,-25.06"/>
<polygon fill="midnightblue" stroke="midnightblue" points="778.75,-76.98 788.86,-73.83 778.99,-69.99 778.75,-76.98"/>
</g>
<!-- Node3 -->
<g id="node3" class="node">
<title>Node3</title>
<g id="a_node3"><a xlink:href="LoopCacheAnalysis_8cpp.html" target="_top" xlink:title="This file defines the implementation for the loop cache analysis.">
<polygon fill="none" stroke="black" points="170.5,-6 170.5,-25 343.5,-25 343.5,-6 170.5,-6"/>
<text text-anchor="middle" x="257" y="-13" font-family="Helvetica" font-size="10.00">lib/Analysis/LoopCacheAnalysis.cpp</text>
</a>
</g>
</g>
<!-- Node1&#45;&gt;Node3 -->
<g id="edge2" class="edge">
<title>Node1&#45;&gt;Node3</title>
<path fill="none" stroke="midnightblue" d="M778.64,-70.28C677.52,-62.96 501.95,-49.04 352,-31 338.09,-29.33 323.07,-27.19 309.18,-25.07"/>
<polygon fill="midnightblue" stroke="midnightblue" points="778.57,-73.78 788.79,-71.01 779.07,-66.8 778.57,-73.78"/>
</g>
<!-- Node4 -->
<g id="node4" class="node">
<title>Node4</title>
<g id="a_node4"><a xlink:href="ScalarEvolution_8cpp.html" target="_top" xlink:title=" ">
<polygon fill="none" stroke="black" points="361.5,-6 361.5,-25 516.5,-25 516.5,-6 361.5,-6"/>
<text text-anchor="middle" x="439" y="-13" font-family="Helvetica" font-size="10.00">lib/Analysis/ScalarEvolution.cpp</text>
</a>
</g>
</g>
<!-- Node1&#45;&gt;Node4 -->
<g id="edge3" class="edge">
<title>Node1&#45;&gt;Node4</title>
<path fill="none" stroke="midnightblue" d="M782.58,-66.18C714.22,-57.53 612.99,-44.29 525,-31 513.02,-29.19 500.13,-27.1 488.07,-25.07"/>
<polygon fill="midnightblue" stroke="midnightblue" points="782.48,-69.69 792.84,-67.47 783.36,-62.75 782.48,-69.69"/>
</g>
<!-- Node5 -->
<g id="node5" class="node">
<title>Node5</title>
<g id="a_node5"><a xlink:href="IndirectBrExpandPass_8cpp.html" target="_top" xlink:title="Implements an expansion pass to turn indirectbr instructions in the IR into switch instructions.">
<polygon fill="none" stroke="black" points="534.5,-0.5 534.5,-30.5 683.5,-30.5 683.5,-0.5 534.5,-0.5"/>
<text text-anchor="start" x="542.5" y="-18.5" font-family="Helvetica" font-size="10.00">lib/CodeGen/IndirectBrExpand</text>
<text text-anchor="middle" x="609" y="-7.5" font-family="Helvetica" font-size="10.00">Pass.cpp</text>
</a>
</g>
</g>
<!-- Node1&#45;&gt;Node5 -->
<g id="edge4" class="edge">
<title>Node1&#45;&gt;Node5</title>
<path fill="none" stroke="midnightblue" d="M815.95,-65.17C774.61,-55.45 713.68,-41.12 668.63,-30.52"/>
<polygon fill="midnightblue" stroke="midnightblue" points="815.22,-68.59 825.75,-67.48 816.82,-61.78 815.22,-68.59"/>
</g>
<!-- Node6 -->
<g id="node6" class="node">
<title>Node6</title>
<g id="a_node6"><a xlink:href="X86InstrInfo_8cpp.html" target="_top" xlink:title=" ">
<polygon fill="none" stroke="black" points="702,-6 702,-25 854,-25 854,-6 702,-6"/>
<text text-anchor="middle" x="778" y="-13" font-family="Helvetica" font-size="10.00">lib/Target/X86/X86InstrInfo.cpp</text>
</a>
</g>
</g>
<!-- Node1&#45;&gt;Node6 -->
<g id="edge5" class="edge">
<title>Node1&#45;&gt;Node6</title>
<path fill="none" stroke="midnightblue" d="M841.69,-61.61C825.53,-50.17 803.48,-34.55 790.01,-25.01"/>
<polygon fill="midnightblue" stroke="midnightblue" points="839.78,-64.55 849.96,-67.48 843.83,-58.84 839.78,-64.55"/>
</g>
<!-- Node7 -->
<g id="node7" class="node">
<title>Node7</title>
<g id="a_node7"><a xlink:href="GCOVProfiling_8cpp.html" target="_top" xlink:title=" ">
<polygon fill="none" stroke="black" points="872.5,-0.5 872.5,-30.5 1021.5,-30.5 1021.5,-0.5 872.5,-0.5"/>
<text text-anchor="start" x="880.5" y="-18.5" font-family="Helvetica" font-size="10.00">lib/Transforms/Instrumentation</text>
<text text-anchor="middle" x="947" y="-7.5" font-family="Helvetica" font-size="10.00">/GCOVProfiling.cpp</text>
</a>
</g>
</g>
<!-- Node1&#45;&gt;Node7 -->
<g id="edge6" class="edge">
<title>Node1&#45;&gt;Node7</title>
<path fill="none" stroke="midnightblue" d="M882.37,-61.74C895.88,-52.28 913.53,-39.93 926.97,-30.52"/>
<polygon fill="midnightblue" stroke="midnightblue" points="880.36,-58.87 874.18,-67.48 884.38,-64.61 880.36,-58.87"/>
</g>
<!-- Node8 -->
<g id="node8" class="node">
<title>Node8</title>
<g id="a_node8"><a xlink:href="SimpleLoopUnswitch_8cpp.html" target="_top" xlink:title=" ">
<polygon fill="none" stroke="black" points="1039.5,-0.5 1039.5,-30.5 1170.5,-30.5 1170.5,-0.5 1039.5,-0.5"/>
<text text-anchor="start" x="1047.5" y="-18.5" font-family="Helvetica" font-size="10.00">lib/Transforms/Scalar</text>
<text text-anchor="middle" x="1105" y="-7.5" font-family="Helvetica" font-size="10.00">/SimpleLoopUnswitch.cpp</text>
</a>
</g>
</g>
<!-- Node1&#45;&gt;Node8 -->
<g id="edge7" class="edge">
<title>Node1&#45;&gt;Node8</title>
<path fill="none" stroke="midnightblue" d="M906.74,-65.05C946.43,-55.33 1004.64,-41.07 1047.73,-30.52"/>
<polygon fill="midnightblue" stroke="midnightblue" points="905.7,-61.7 896.82,-67.48 907.36,-68.5 905.7,-61.7"/>
</g>
<!-- Node9 -->
<g id="node9" class="node">
<title>Node9</title>
<g id="a_node9"><a xlink:href="SpeculateAroundPHIs_8cpp.html" target="_top" xlink:title=" ">
<polygon fill="none" stroke="black" points="1189,-0.5 1189,-30.5 1323,-30.5 1323,-0.5 1189,-0.5"/>
<text text-anchor="start" x="1197" y="-18.5" font-family="Helvetica" font-size="10.00">lib/Transforms/Scalar</text>
<text text-anchor="middle" x="1256" y="-7.5" font-family="Helvetica" font-size="10.00">/SpeculateAroundPHIs.cpp</text>
</a>
</g>
</g>
<!-- Node1&#45;&gt;Node9 -->
<g id="edge8" class="edge">
<title>Node1&#45;&gt;Node9</title>
<path fill="none" stroke="midnightblue" d="M938.93,-66.17C1003.43,-57.67 1097.9,-44.63 1180,-31 1182.92,-30.52 1185.89,-30.01 1188.89,-29.48"/>
<polygon fill="midnightblue" stroke="midnightblue" points="938.3,-62.72 928.84,-67.49 939.21,-69.66 938.3,-62.72"/>
</g>
<!-- Node10 -->
<g id="node10" class="node">
<title>Node10</title>
<g id="a_node10"><a xlink:href="LoopUnrollAndJam_8cpp.html" target="_top" xlink:title=" ">
<polygon fill="none" stroke="black" points="1341.5,-0.5 1341.5,-30.5 1462.5,-30.5 1462.5,-0.5 1341.5,-0.5"/>
<text text-anchor="start" x="1349.5" y="-18.5" font-family="Helvetica" font-size="10.00">lib/Transforms/Utils</text>
<text text-anchor="middle" x="1402" y="-7.5" font-family="Helvetica" font-size="10.00">/LoopUnrollAndJam.cpp</text>
</a>
</g>
</g>
<!-- Node1&#45;&gt;Node10 -->
<g id="edge9" class="edge">
<title>Node1&#45;&gt;Node10</title>
<path fill="none" stroke="midnightblue" d="M945.21,-70.78C1039.41,-64.24 1197.3,-51.34 1332,-31 1335.07,-30.54 1338.2,-30.03 1341.37,-29.48"/>
<polygon fill="midnightblue" stroke="midnightblue" points="944.9,-67.29 935.17,-71.47 945.38,-74.28 944.9,-67.29"/>
</g>
<!-- Node11 -->
<g id="node11" class="node">
<title>Node11</title>
<g id="a_node11"><a xlink:href="SimplifyCFG_8cpp.html" target="_top" xlink:title=" ">
<polygon fill="none" stroke="black" points="1480.5,-0.5 1480.5,-30.5 1581.5,-30.5 1581.5,-0.5 1480.5,-0.5"/>
<text text-anchor="start" x="1488.5" y="-18.5" font-family="Helvetica" font-size="10.00">lib/Transforms/Utils</text>
<text text-anchor="middle" x="1531" y="-7.5" font-family="Helvetica" font-size="10.00">/SimplifyCFG.cpp</text>
</a>
</g>
</g>
<!-- Node1&#45;&gt;Node11 -->
<g id="edge10" class="edge">
<title>Node1&#45;&gt;Node11</title>
<path fill="none" stroke="midnightblue" d="M945.27,-74.26C1063.18,-70.81 1285.25,-60.62 1472,-31 1474.71,-30.57 1477.48,-30.08 1480.26,-29.54"/>
<polygon fill="midnightblue" stroke="midnightblue" points="945.12,-70.77 935.23,-74.55 945.32,-77.76 945.12,-70.77"/>
</g>
</g>
</svg>
