<?xml version="1.0" encoding="UTF-8" standalone="no"?>
<!DOCTYPE svg PUBLIC "-//W3C//DTD SVG 1.1//EN"
 "http://www.w3.org/Graphics/SVG/1.1/DTD/svg11.dtd">
<!-- Generated by graphviz version 2.44.0 (0)
 -->
<!-- Title: include/llvm/MCA/Stages/Stage.h Pages: 1 -->
<svg width="1520pt" height="229pt"
 viewBox="0.00 0.00 1520.00 229.00" xmlns="http://www.w3.org/2000/svg" xmlns:xlink="http://www.w3.org/1999/xlink">
<g id="graph0" class="graph" transform="scale(1 1) rotate(0) translate(4 225)">
<title>include/llvm/MCA/Stages/Stage.h</title>
<!-- Node1 -->
<g id="node1" class="node">
<title>Node1</title>
<g id="a_node1"><a xlink:title="This file defines a stage.">
<polygon fill="#bfbfbf" stroke="black" points="839.5,-190.5 839.5,-220.5 966.5,-220.5 966.5,-190.5 839.5,-190.5"/>
<text text-anchor="start" x="847.5" y="-208.5" font-family="Helvetica" font-size="10.00">include/llvm/MCA/Stages</text>
<text text-anchor="middle" x="903" y="-197.5" font-family="Helvetica" font-size="10.00">/Stage.h</text>
</a>
</g>
</g>
<!-- Node2 -->
<g id="node2" class="node">
<title>Node2</title>
<g id="a_node2"><a xlink:href="Pipeline_8h.html" target="_top" xlink:title="This file implements an ordered container of stages that simulate the pipeline of a hardware backend.">
<polygon fill="none" stroke="black" points="140.5,-129 140.5,-148 279.5,-148 279.5,-129 140.5,-129"/>
<text text-anchor="middle" x="210" y="-136" font-family="Helvetica" font-size="10.00">include/llvm/MCA/Pipeline.h</text>
</a>
</g>
</g>
<!-- Node1&#45;&gt;Node2 -->
<g id="edge1" class="edge">
<title>Node1&#45;&gt;Node2</title>
<path fill="none" stroke="midnightblue" d="M829.05,-198.64C720.29,-189.86 510.82,-172.35 333,-154 315.57,-152.2 296.77,-150.08 279.24,-148.02"/>
<polygon fill="midnightblue" stroke="midnightblue" points="829.01,-202.14 839.26,-199.46 829.57,-195.17 829.01,-202.14"/>
</g>
<!-- Node6 -->
<g id="node6" class="node">
<title>Node6</title>
<g id="a_node6"><a xlink:href="DispatchStage_8h.html" target="_top" xlink:title="This file models the dispatch component of an instruction pipeline.">
<polygon fill="none" stroke="black" points="342.5,-123.5 342.5,-153.5 469.5,-153.5 469.5,-123.5 342.5,-123.5"/>
<text text-anchor="start" x="350.5" y="-141.5" font-family="Helvetica" font-size="10.00">include/llvm/MCA/Stages</text>
<text text-anchor="middle" x="406" y="-130.5" font-family="Helvetica" font-size="10.00">/DispatchStage.h</text>
</a>
</g>
</g>
<!-- Node1&#45;&gt;Node6 -->
<g id="edge5" class="edge">
<title>Node1&#45;&gt;Node6</title>
<path fill="none" stroke="midnightblue" d="M829.23,-194.85C731.83,-182.11 561.91,-159.89 469.78,-147.84"/>
<polygon fill="midnightblue" stroke="midnightblue" points="828.93,-198.34 839.3,-196.17 829.84,-191.4 828.93,-198.34"/>
</g>
<!-- Node8 -->
<g id="node8" class="node">
<title>Node8</title>
<g id="a_node8"><a xlink:href="EntryStage_8h.html" target="_top" xlink:title="This file defines the Entry stage of an instruction pipeline.">
<polygon fill="none" stroke="black" points="562.5,-123.5 562.5,-153.5 689.5,-153.5 689.5,-123.5 562.5,-123.5"/>
<text text-anchor="start" x="570.5" y="-141.5" font-family="Helvetica" font-size="10.00">include/llvm/MCA/Stages</text>
<text text-anchor="middle" x="626" y="-130.5" font-family="Helvetica" font-size="10.00">/EntryStage.h</text>
</a>
</g>
</g>
<!-- Node1&#45;&gt;Node8 -->
<g id="edge8" class="edge">
<title>Node1&#45;&gt;Node8</title>
<path fill="none" stroke="midnightblue" d="M833.48,-188.19C788.11,-177.54 729.49,-163.78 686.13,-153.61"/>
<polygon fill="midnightblue" stroke="midnightblue" points="832.7,-191.6 843.24,-190.48 834.3,-184.78 832.7,-191.6"/>
</g>
<!-- Node10 -->
<g id="node10" class="node">
<title>Node10</title>
<g id="a_node10"><a xlink:href="ExecuteStage_8h.html" target="_top" xlink:title="This file defines the execution stage of a default instruction pipeline.">
<polygon fill="none" stroke="black" points="767.5,-123.5 767.5,-153.5 894.5,-153.5 894.5,-123.5 767.5,-123.5"/>
<text text-anchor="start" x="775.5" y="-141.5" font-family="Helvetica" font-size="10.00">include/llvm/MCA/Stages</text>
<text text-anchor="middle" x="831" y="-130.5" font-family="Helvetica" font-size="10.00">/ExecuteStage.h</text>
</a>
</g>
</g>
<!-- Node1&#45;&gt;Node10 -->
<g id="edge11" class="edge">
<title>Node1&#45;&gt;Node10</title>
<path fill="none" stroke="midnightblue" d="M879.85,-183.6C868.98,-173.78 856.3,-162.34 846.59,-153.58"/>
<polygon fill="midnightblue" stroke="midnightblue" points="877.61,-186.29 887.38,-190.4 882.3,-181.1 877.61,-186.29"/>
</g>
<!-- Node12 -->
<g id="node12" class="node">
<title>Node12</title>
<g id="a_node12"><a xlink:href="InstructionTables_8h.html" target="_top" xlink:title="This file implements a custom stage to generate instruction tables.">
<polygon fill="none" stroke="black" points="912.5,-123.5 912.5,-153.5 1039.5,-153.5 1039.5,-123.5 912.5,-123.5"/>
<text text-anchor="start" x="920.5" y="-141.5" font-family="Helvetica" font-size="10.00">include/llvm/MCA/Stages</text>
<text text-anchor="middle" x="976" y="-130.5" font-family="Helvetica" font-size="10.00">/InstructionTables.h</text>
</a>
</g>
</g>
<!-- Node1&#45;&gt;Node12 -->
<g id="edge14" class="edge">
<title>Node1&#45;&gt;Node12</title>
<path fill="none" stroke="midnightblue" d="M926.47,-183.6C937.5,-173.78 950.34,-162.34 960.19,-153.58"/>
<polygon fill="midnightblue" stroke="midnightblue" points="923.98,-181.13 918.84,-190.4 928.64,-186.36 923.98,-181.13"/>
</g>
<!-- Node14 -->
<g id="node14" class="node">
<title>Node14</title>
<g id="a_node14"><a xlink:href="MicroOpQueueStage_8h.html" target="_top" xlink:title="This file defines a stage that implements a queue of micro opcodes.">
<polygon fill="none" stroke="black" points="1057.5,-123.5 1057.5,-153.5 1184.5,-153.5 1184.5,-123.5 1057.5,-123.5"/>
<text text-anchor="start" x="1065.5" y="-141.5" font-family="Helvetica" font-size="10.00">include/llvm/MCA/Stages</text>
<text text-anchor="middle" x="1121" y="-130.5" font-family="Helvetica" font-size="10.00">/MicroOpQueueStage.h</text>
</a>
</g>
</g>
<!-- Node1&#45;&gt;Node14 -->
<g id="edge16" class="edge">
<title>Node1&#45;&gt;Node14</title>
<path fill="none" stroke="midnightblue" d="M959.75,-187.58C995.16,-177.02 1040.2,-163.59 1073.67,-153.61"/>
<polygon fill="midnightblue" stroke="midnightblue" points="958.62,-184.26 950.03,-190.48 960.62,-190.97 958.62,-184.26"/>
</g>
<!-- Node16 -->
<g id="node16" class="node">
<title>Node16</title>
<g id="a_node16"><a xlink:href="RetireStage_8h.html" target="_top" xlink:title="This file defines the retire stage of a default instruction pipeline.">
<polygon fill="none" stroke="black" points="1234.5,-123.5 1234.5,-153.5 1361.5,-153.5 1361.5,-123.5 1234.5,-123.5"/>
<text text-anchor="start" x="1242.5" y="-141.5" font-family="Helvetica" font-size="10.00">include/llvm/MCA/Stages</text>
<text text-anchor="middle" x="1298" y="-130.5" font-family="Helvetica" font-size="10.00">/RetireStage.h</text>
</a>
</g>
</g>
<!-- Node1&#45;&gt;Node16 -->
<g id="edge19" class="edge">
<title>Node1&#45;&gt;Node16</title>
<path fill="none" stroke="midnightblue" d="M977.09,-192.31C1051.19,-180.11 1163.95,-161.56 1234.19,-150"/>
<polygon fill="midnightblue" stroke="midnightblue" points="976.2,-188.91 966.9,-193.98 977.34,-195.81 976.2,-188.91"/>
</g>
<!-- Node18 -->
<g id="node18" class="node">
<title>Node18</title>
<g id="a_node18"><a xlink:href="Stage_8cpp.html" target="_top" xlink:title="This file defines a stage.">
<polygon fill="none" stroke="black" points="1380,-129 1380,-148 1512,-148 1512,-129 1380,-129"/>
<text text-anchor="middle" x="1446" y="-136" font-family="Helvetica" font-size="10.00">lib/MCA/Stages/Stage.cpp</text>
</a>
</g>
</g>
<!-- Node1&#45;&gt;Node18 -->
<g id="edge22" class="edge">
<title>Node1&#45;&gt;Node18</title>
<path fill="none" stroke="midnightblue" d="M976.9,-198.45C1069.34,-190.43 1232.35,-174.85 1371,-154 1382.15,-152.32 1394.16,-150.16 1405.24,-148.02"/>
<polygon fill="midnightblue" stroke="midnightblue" points="976.47,-194.97 966.8,-199.32 977.07,-201.94 976.47,-194.97"/>
</g>
<!-- Node3 -->
<g id="node3" class="node">
<title>Node3</title>
<g id="a_node3"><a xlink:href="Context_8h.html" target="_top" xlink:title="This file defines a class for holding ownership of various simulated hardware units.">
<polygon fill="none" stroke="black" points="0,-62 0,-81 138,-81 138,-62 0,-62"/>
<text text-anchor="middle" x="69" y="-69" font-family="Helvetica" font-size="10.00">include/llvm/MCA/Context.h</text>
</a>
</g>
</g>
<!-- Node2&#45;&gt;Node3 -->
<g id="edge2" class="edge">
<title>Node2&#45;&gt;Node3</title>
<path fill="none" stroke="midnightblue" d="M182.04,-124.61C154.12,-111.74 111.96,-92.31 87.8,-81.17"/>
<polygon fill="midnightblue" stroke="midnightblue" points="180.73,-127.86 191.28,-128.87 183.66,-121.5 180.73,-127.86"/>
</g>
<!-- Node5 -->
<g id="node5" class="node">
<title>Node5</title>
<g id="a_node5"><a xlink:href="Pipeline_8cpp.html" target="_top" xlink:title="This file implements an ordered container of stages that simulate the pipeline of a hardware backend.">
<polygon fill="none" stroke="black" points="156.5,-62 156.5,-81 263.5,-81 263.5,-62 156.5,-62"/>
<text text-anchor="middle" x="210" y="-69" font-family="Helvetica" font-size="10.00">lib/MCA/Pipeline.cpp</text>
</a>
</g>
</g>
<!-- Node2&#45;&gt;Node5 -->
<g id="edge4" class="edge">
<title>Node2&#45;&gt;Node5</title>
<path fill="none" stroke="midnightblue" d="M210,-118.54C210,-106.17 210,-90.62 210,-81.13"/>
<polygon fill="midnightblue" stroke="midnightblue" points="206.5,-118.73 210,-128.73 213.5,-118.73 206.5,-118.73"/>
</g>
<!-- Node4 -->
<g id="node4" class="node">
<title>Node4</title>
<g id="a_node4"><a xlink:href="Context_8cpp.html" target="_top" xlink:title="This file defines a class for holding ownership of various simulated hardware units.">
<polygon fill="none" stroke="black" points="572.5,-0.5 572.5,-19.5 679.5,-19.5 679.5,-0.5 572.5,-0.5"/>
<text text-anchor="middle" x="626" y="-7.5" font-family="Helvetica" font-size="10.00">lib/MCA/Context.cpp</text>
</a>
</g>
</g>
<!-- Node3&#45;&gt;Node4 -->
<g id="edge3" class="edge">
<title>Node3&#45;&gt;Node4</title>
<path fill="none" stroke="midnightblue" d="M121,-60.16C129.66,-58.63 138.57,-57.18 147,-56 300.66,-34.54 483.51,-20.53 572.3,-14.46"/>
<polygon fill="midnightblue" stroke="midnightblue" points="120.2,-56.75 110.99,-61.98 121.45,-63.64 120.2,-56.75"/>
</g>
<!-- Node6&#45;&gt;Node4 -->
<g id="edge6" class="edge">
<title>Node6&#45;&gt;Node4</title>
<path fill="none" stroke="midnightblue" d="M358.34,-119.22C325.01,-103.76 289.92,-80.31 311,-56 344.16,-17.76 491.25,-11.21 572.18,-10.57"/>
<polygon fill="midnightblue" stroke="midnightblue" points="357.09,-122.49 367.65,-123.36 359.94,-116.1 357.09,-122.49"/>
</g>
<!-- Node7 -->
<g id="node7" class="node">
<title>Node7</title>
<g id="a_node7"><a xlink:href="DispatchStage_8cpp.html" target="_top" xlink:title="This file models the dispatch component of an instruction pipeline.">
<polygon fill="none" stroke="black" points="320.5,-62 320.5,-81 491.5,-81 491.5,-62 320.5,-62"/>
<text text-anchor="middle" x="406" y="-69" font-family="Helvetica" font-size="10.00">lib/MCA/Stages/DispatchStage.cpp</text>
</a>
</g>
</g>
<!-- Node6&#45;&gt;Node7 -->
<g id="edge7" class="edge">
<title>Node6&#45;&gt;Node7</title>
<path fill="none" stroke="midnightblue" d="M406,-113.25C406,-102.02 406,-89.38 406,-81.19"/>
<polygon fill="midnightblue" stroke="midnightblue" points="402.5,-113.4 406,-123.4 409.5,-113.4 402.5,-113.4"/>
</g>
<!-- Node8&#45;&gt;Node4 -->
<g id="edge9" class="edge">
<title>Node8&#45;&gt;Node4</title>
<path fill="none" stroke="midnightblue" d="M574.07,-118.78C560.23,-111.15 546.93,-100.78 539,-87 532.13,-75.06 531.84,-67.77 539,-56 550.32,-37.41 572.07,-26.16 590.99,-19.55"/>
<polygon fill="midnightblue" stroke="midnightblue" points="572.69,-122.01 583.19,-123.42 575.86,-115.77 572.69,-122.01"/>
</g>
<!-- Node9 -->
<g id="node9" class="node">
<title>Node9</title>
<g id="a_node9"><a xlink:href="EntryStage_8cpp.html" target="_top" xlink:title="This file defines the Fetch stage of an instruction pipeline.">
<polygon fill="none" stroke="black" points="548,-62 548,-81 704,-81 704,-62 548,-62"/>
<text text-anchor="middle" x="626" y="-69" font-family="Helvetica" font-size="10.00">lib/MCA/Stages/EntryStage.cpp</text>
</a>
</g>
</g>
<!-- Node8&#45;&gt;Node9 -->
<g id="edge10" class="edge">
<title>Node8&#45;&gt;Node9</title>
<path fill="none" stroke="midnightblue" d="M626,-113.25C626,-102.02 626,-89.38 626,-81.19"/>
<polygon fill="midnightblue" stroke="midnightblue" points="622.5,-113.4 626,-123.4 629.5,-113.4 622.5,-113.4"/>
</g>
<!-- Node10&#45;&gt;Node4 -->
<g id="edge12" class="edge">
<title>Node10&#45;&gt;Node4</title>
<path fill="none" stroke="midnightblue" d="M798.28,-118.09C783.56,-109.04 766.13,-97.88 751,-87 733.31,-74.27 731.22,-67.96 713,-56 690.82,-41.44 663.37,-27.92 645.3,-19.57"/>
<polygon fill="midnightblue" stroke="midnightblue" points="796.69,-121.22 807.05,-123.43 800.33,-115.24 796.69,-121.22"/>
</g>
<!-- Node11 -->
<g id="node11" class="node">
<title>Node11</title>
<g id="a_node11"><a xlink:href="ExecuteStage_8cpp.html" target="_top" xlink:title="This file defines the execution stage of an instruction pipeline.">
<polygon fill="none" stroke="black" points="760.5,-62 760.5,-81 927.5,-81 927.5,-62 760.5,-62"/>
<text text-anchor="middle" x="844" y="-69" font-family="Helvetica" font-size="10.00">lib/MCA/Stages/ExecuteStage.cpp</text>
</a>
</g>
</g>
<!-- Node10&#45;&gt;Node11 -->
<g id="edge13" class="edge">
<title>Node10&#45;&gt;Node11</title>
<path fill="none" stroke="midnightblue" d="M835.85,-113.25C838.1,-102.02 840.62,-89.38 842.26,-81.19"/>
<polygon fill="midnightblue" stroke="midnightblue" points="832.35,-112.9 833.82,-123.4 839.21,-114.28 832.35,-112.9"/>
</g>
<!-- Node13 -->
<g id="node13" class="node">
<title>Node13</title>
<g id="a_node13"><a xlink:href="InstructionTables_8cpp.html" target="_top" xlink:title="This file implements the method InstructionTables::execute().">
<polygon fill="none" stroke="black" points="946,-56.5 946,-86.5 1080,-86.5 1080,-56.5 946,-56.5"/>
<text text-anchor="start" x="954" y="-74.5" font-family="Helvetica" font-size="10.00">lib/MCA/Stages/Instruction</text>
<text text-anchor="middle" x="1013" y="-63.5" font-family="Helvetica" font-size="10.00">Tables.cpp</text>
</a>
</g>
</g>
<!-- Node12&#45;&gt;Node13 -->
<g id="edge15" class="edge">
<title>Node12&#45;&gt;Node13</title>
<path fill="none" stroke="midnightblue" d="M989.05,-114.58C994.36,-105.24 1000.34,-94.75 1004.99,-86.58"/>
<polygon fill="midnightblue" stroke="midnightblue" points="985.93,-112.97 984.03,-123.4 992.02,-116.44 985.93,-112.97"/>
</g>
<!-- Node14&#45;&gt;Node4 -->
<g id="edge17" class="edge">
<title>Node14&#45;&gt;Node4</title>
<path fill="none" stroke="midnightblue" d="M1118.29,-113.39C1114.82,-94.61 1106.93,-69.54 1089,-56 1056.94,-31.79 794.95,-18.03 679.87,-13.1"/>
<polygon fill="midnightblue" stroke="midnightblue" points="1114.84,-113.98 1119.83,-123.32 1121.76,-112.9 1114.84,-113.98"/>
</g>
<!-- Node15 -->
<g id="node15" class="node">
<title>Node15</title>
<g id="a_node15"><a xlink:href="MicroOpQueueStage_8cpp.html" target="_top" xlink:title="This file defines the MicroOpQueueStage.">
<polygon fill="none" stroke="black" points="1136.5,-56.5 1136.5,-86.5 1289.5,-86.5 1289.5,-56.5 1136.5,-56.5"/>
<text text-anchor="start" x="1144.5" y="-74.5" font-family="Helvetica" font-size="10.00">lib/MCA/Stages/MicroOpQueue</text>
<text text-anchor="middle" x="1213" y="-63.5" font-family="Helvetica" font-size="10.00">Stage.cpp</text>
</a>
</g>
</g>
<!-- Node14&#45;&gt;Node15 -->
<g id="edge18" class="edge">
<title>Node14&#45;&gt;Node15</title>
<path fill="none" stroke="midnightblue" d="M1149.38,-117.45C1163.53,-107.45 1180.31,-95.6 1193.08,-86.58"/>
<polygon fill="midnightblue" stroke="midnightblue" points="1147.11,-114.77 1140.96,-123.4 1151.15,-120.48 1147.11,-114.77"/>
</g>
<!-- Node16&#45;&gt;Node4 -->
<g id="edge20" class="edge">
<title>Node16&#45;&gt;Node4</title>
<path fill="none" stroke="midnightblue" d="M1306.2,-113.7C1310.8,-95.52 1313.13,-71.1 1299,-56 1257.03,-11.13 831.54,-9.59 679.58,-10.49"/>
<polygon fill="midnightblue" stroke="midnightblue" points="1302.84,-112.73 1303.42,-123.31 1309.56,-114.67 1302.84,-112.73"/>
</g>
<!-- Node17 -->
<g id="node17" class="node">
<title>Node17</title>
<g id="a_node17"><a xlink:href="RetireStage_8cpp.html" target="_top" xlink:title="This file defines the retire stage of an instruction pipeline.">
<polygon fill="none" stroke="black" points="1346,-62 1346,-81 1504,-81 1504,-62 1346,-62"/>
<text text-anchor="middle" x="1425" y="-69" font-family="Helvetica" font-size="10.00">lib/MCA/Stages/RetireStage.cpp</text>
</a>
</g>
</g>
<!-- Node16&#45;&gt;Node17 -->
<g id="edge21" class="edge">
<title>Node16&#45;&gt;Node17</title>
<path fill="none" stroke="midnightblue" d="M1334.53,-118.8C1358.88,-106.34 1389.72,-90.56 1408.38,-81.01"/>
<polygon fill="midnightblue" stroke="midnightblue" points="1332.86,-115.72 1325.56,-123.4 1336.05,-121.96 1332.86,-115.72"/>
</g>
</g>
</svg>
