<?xml version="1.0" encoding="UTF-8" standalone="no"?>
<!DOCTYPE svg PUBLIC "-//W3C//DTD SVG 1.1//EN"
 "http://www.w3.org/Graphics/SVG/1.1/DTD/svg11.dtd">
<!-- Generated by graphviz version 2.44.0 (0)
 -->
<!-- Title: llvm::wasm::WasmDataSegment Pages: 1 -->
<svg width="623pt" height="208pt"
 viewBox="0.00 0.00 623.00 208.00" xmlns="http://www.w3.org/2000/svg" xmlns:xlink="http://www.w3.org/1999/xlink">
<g id="graph0" class="graph" transform="scale(1 1) rotate(0) translate(4 204)">
<title>llvm::wasm::WasmDataSegment</title>
<!-- Node1 -->
<g id="node1" class="node">
<title>Node1</title>
<g id="a_node1"><a xlink:title=" ">
<polygon fill="#bfbfbf" stroke="black" points="278,-0.5 278,-19.5 437,-19.5 437,-0.5 278,-0.5"/>
<text text-anchor="middle" x="357.5" y="-7.5" font-family="Helvetica" font-size="10.00">llvm::wasm::WasmDataSegment</text>
</a>
</g>
</g>
<!-- Node2 -->
<g id="node2" class="node">
<title>Node2</title>
<g id="a_node2"><a xlink:href="classuint32__t.html" target="_top" xlink:title=" ">
<polygon fill="none" stroke="black" points="0,-180.5 0,-199.5 51,-199.5 51,-180.5 0,-180.5"/>
<text text-anchor="middle" x="25.5" y="-187.5" font-family="Helvetica" font-size="10.00">uint32_t</text>
</a>
</g>
</g>
<!-- Node2&#45;&gt;Node1 -->
<g id="edge1" class="edge">
<title>Node2&#45;&gt;Node1</title>
<path fill="none" stroke="#9a32cd" stroke-dasharray="5,2" d="M35.06,-171.45C40.72,-161.74 48.35,-149.72 56.5,-140 87.42,-103.11 94.12,-89.82 136.5,-67 183.9,-41.48 243.31,-27.27 288.59,-19.56"/>
<polygon fill="#9a32cd" stroke="#9a32cd" points="31.98,-169.78 30.12,-180.21 38.08,-173.21 31.98,-169.78"/>
<text text-anchor="middle" x="167" y="-114" font-family="Helvetica" font-size="10.00"> Alignment</text>
<text text-anchor="middle" x="167" y="-103" font-family="Helvetica" font-size="10.00">Comdat</text>
<text text-anchor="middle" x="167" y="-92" font-family="Helvetica" font-size="10.00">InitFlags</text>
<text text-anchor="middle" x="167" y="-81" font-family="Helvetica" font-size="10.00">LinkerFlags</text>
<text text-anchor="middle" x="167" y="-70" font-family="Helvetica" font-size="10.00">MemoryIndex</text>
</g>
<!-- Node3 -->
<g id="node3" class="node">
<title>Node3</title>
<g id="a_node3"><a xlink:href="structllvm_1_1wasm_1_1WasmInitExpr.html" target="_top" xlink:title=" ">
<polygon fill="none" stroke="black" points="206.5,-85 206.5,-104 340.5,-104 340.5,-85 206.5,-85"/>
<text text-anchor="middle" x="273.5" y="-92" font-family="Helvetica" font-size="10.00">llvm::wasm::WasmInitExpr</text>
</a>
</g>
</g>
<!-- Node2&#45;&gt;Node3 -->
<g id="edge7" class="edge">
<title>Node2&#45;&gt;Node3</title>
<path fill="none" stroke="#9a32cd" stroke-dasharray="5,2" d="M43.46,-173.89C57.2,-163.04 77.03,-148.82 96.5,-140 135.61,-122.29 182.91,-110.86 218.77,-104.03"/>
<polygon fill="#9a32cd" stroke="#9a32cd" points="40.94,-171.43 35.38,-180.45 45.35,-176.86 40.94,-171.43"/>
<text text-anchor="middle" x="114.5" y="-154" font-family="Helvetica" font-size="10.00"> Float32</text>
<text text-anchor="middle" x="114.5" y="-143" font-family="Helvetica" font-size="10.00">Global</text>
</g>
<!-- Node3&#45;&gt;Node1 -->
<g id="edge2" class="edge">
<title>Node3&#45;&gt;Node1</title>
<path fill="none" stroke="#9a32cd" stroke-dasharray="5,2" d="M289.47,-77.82C307.07,-60.53 334.74,-33.36 348.75,-19.6"/>
<polygon fill="#9a32cd" stroke="#9a32cd" points="286.86,-75.48 282.17,-84.98 291.76,-80.47 286.86,-75.48"/>
<text text-anchor="middle" x="343.5" y="-41" font-family="Helvetica" font-size="10.00"> Offset</text>
</g>
<!-- Node4 -->
<g id="node4" class="node">
<title>Node4</title>
<g id="a_node4"><a xlink:title=" ">
<polygon fill="none" stroke="#bfbfbf" points="69,-180.5 69,-199.5 120,-199.5 120,-180.5 69,-180.5"/>
<text text-anchor="middle" x="94.5" y="-187.5" font-family="Helvetica" font-size="10.00">uint64_t</text>
</a>
</g>
</g>
<!-- Node4&#45;&gt;Node3 -->
<g id="edge3" class="edge">
<title>Node4&#45;&gt;Node3</title>
<path fill="none" stroke="#9a32cd" stroke-dasharray="5,2" d="M115.59,-174.57C131.01,-164.32 152.61,-150.55 172.5,-140 198.9,-125.99 230.63,-112.53 251.39,-104.15"/>
<polygon fill="#9a32cd" stroke="#9a32cd" points="113.21,-171.96 106.86,-180.44 117.12,-177.77 113.21,-171.96"/>
<text text-anchor="middle" x="190.5" y="-148.5" font-family="Helvetica" font-size="10.00"> Float64</text>
</g>
<!-- Node5 -->
<g id="node5" class="node">
<title>Node5</title>
<g id="a_node5"><a xlink:title=" ">
<polygon fill="none" stroke="#bfbfbf" points="138.5,-180.5 138.5,-199.5 232.5,-199.5 232.5,-180.5 138.5,-180.5"/>
<text text-anchor="middle" x="185.5" y="-187.5" font-family="Helvetica" font-size="10.00">anonymous:Value</text>
</a>
</g>
</g>
<!-- Node5&#45;&gt;Node3 -->
<g id="edge4" class="edge">
<title>Node5&#45;&gt;Node3</title>
<path fill="none" stroke="#9a32cd" stroke-dasharray="5,2" d="M200.58,-172.98C219.34,-153.05 250.68,-119.75 265.4,-104.11"/>
<polygon fill="#9a32cd" stroke="#9a32cd" points="197.93,-170.69 193.62,-180.37 203.02,-175.49 197.93,-170.69"/>
<text text-anchor="middle" x="243.5" y="-148.5" font-family="Helvetica" font-size="10.00"> Value</text>
</g>
<!-- Node6 -->
<g id="node6" class="node">
<title>Node6</title>
<g id="a_node6"><a xlink:title=" ">
<polygon fill="none" stroke="#bfbfbf" points="250.5,-180.5 250.5,-199.5 296.5,-199.5 296.5,-180.5 250.5,-180.5"/>
<text text-anchor="middle" x="273.5" y="-187.5" font-family="Helvetica" font-size="10.00">int64_t</text>
</a>
</g>
</g>
<!-- Node6&#45;&gt;Node3 -->
<g id="edge5" class="edge">
<title>Node6&#45;&gt;Node3</title>
<path fill="none" stroke="#9a32cd" stroke-dasharray="5,2" d="M273.5,-170.24C273.5,-150.12 273.5,-119.05 273.5,-104.11"/>
<polygon fill="#9a32cd" stroke="#9a32cd" points="270,-170.37 273.5,-180.37 277,-170.37 270,-170.37"/>
<text text-anchor="middle" x="286" y="-148.5" font-family="Helvetica" font-size="10.00"> Int64</text>
</g>
<!-- Node7 -->
<g id="node7" class="node">
<title>Node7</title>
<g id="a_node7"><a xlink:title=" ">
<polygon fill="none" stroke="#bfbfbf" points="314.5,-180.5 314.5,-199.5 360.5,-199.5 360.5,-180.5 314.5,-180.5"/>
<text text-anchor="middle" x="337.5" y="-187.5" font-family="Helvetica" font-size="10.00">int32_t</text>
</a>
</g>
</g>
<!-- Node7&#45;&gt;Node3 -->
<g id="edge6" class="edge">
<title>Node7&#45;&gt;Node3</title>
<path fill="none" stroke="#9a32cd" stroke-dasharray="5,2" d="M325.8,-171.9C312.08,-151.87 289.91,-119.47 279.39,-104.11"/>
<polygon fill="#9a32cd" stroke="#9a32cd" points="323.06,-174.1 331.59,-180.37 328.83,-170.14 323.06,-174.1"/>
<text text-anchor="middle" x="332" y="-148.5" font-family="Helvetica" font-size="10.00"> Int32</text>
</g>
<!-- Node8 -->
<g id="node8" class="node">
<title>Node8</title>
<g id="a_node8"><a xlink:title=" ">
<polygon fill="none" stroke="#bfbfbf" points="378.5,-180.5 378.5,-199.5 424.5,-199.5 424.5,-180.5 378.5,-180.5"/>
<text text-anchor="middle" x="401.5" y="-187.5" font-family="Helvetica" font-size="10.00">uint8_t</text>
</a>
</g>
</g>
<!-- Node8&#45;&gt;Node3 -->
<g id="edge8" class="edge">
<title>Node8&#45;&gt;Node3</title>
<path fill="none" stroke="#9a32cd" stroke-dasharray="5,2" d="M386.06,-173.09C375.88,-163.02 361.97,-150.05 348.5,-140 329.57,-125.88 305.86,-112.44 290.22,-104.1"/>
<polygon fill="#9a32cd" stroke="#9a32cd" points="383.83,-175.81 393.36,-180.44 388.79,-170.88 383.83,-175.81"/>
<text text-anchor="middle" x="393" y="-148.5" font-family="Helvetica" font-size="10.00"> Opcode</text>
</g>
<!-- Node9 -->
<g id="node9" class="node">
<title>Node9</title>
<g id="a_node9"><a xlink:href="classllvm_1_1ArrayRef.html" target="_top" xlink:title=" ">
<polygon fill="none" stroke="black" points="379.5,-85 379.5,-104 505.5,-104 505.5,-85 379.5,-85"/>
<text text-anchor="middle" x="442.5" y="-92" font-family="Helvetica" font-size="10.00">llvm::ArrayRef&lt; uint8_t &gt;</text>
</a>
</g>
</g>
<!-- Node9&#45;&gt;Node1 -->
<g id="edge9" class="edge">
<title>Node9&#45;&gt;Node1</title>
<path fill="none" stroke="#9a32cd" stroke-dasharray="5,2" d="M426.34,-77.82C408.53,-60.53 380.53,-33.36 366.36,-19.6"/>
<polygon fill="#9a32cd" stroke="#9a32cd" points="424.11,-80.53 433.72,-84.98 428.99,-75.51 424.11,-80.53"/>
<text text-anchor="middle" x="414.5" y="-41" font-family="Helvetica" font-size="10.00"> Content</text>
</g>
<!-- Node10 -->
<g id="node10" class="node">
<title>Node10</title>
<g id="a_node10"><a xlink:href="classllvm_1_1ArrayRef.html" target="_top" xlink:title="ArrayRef &#45; Represent a constant reference to an array (0 or more elements consecutively in memory),...">
<polygon fill="none" stroke="black" points="443,-180.5 443,-199.5 546,-199.5 546,-180.5 443,-180.5"/>
<text text-anchor="middle" x="494.5" y="-187.5" font-family="Helvetica" font-size="10.00">llvm::ArrayRef&lt; T &gt;</text>
</a>
</g>
</g>
<!-- Node10&#45;&gt;Node9 -->
<g id="edge10" class="edge">
<title>Node10&#45;&gt;Node9</title>
<path fill="none" stroke="orange" stroke-dasharray="5,2" d="M484.84,-171.63C473.69,-151.58 455.79,-119.4 447.29,-104.11"/>
<polygon fill="orange" stroke="orange" points="481.78,-173.33 489.7,-180.37 487.9,-169.93 481.78,-173.33"/>
<text text-anchor="middle" x="505" y="-148.5" font-family="Helvetica" font-size="10.00"> &lt; uint8_t &gt;</text>
</g>
<!-- Node11 -->
<g id="node11" class="node">
<title>Node11</title>
<g id="a_node11"><a xlink:href="classllvm_1_1StringRef.html" target="_top" xlink:title="StringRef &#45; Represent a constant reference to a string, i.e.">
<polygon fill="none" stroke="black" points="534,-85 534,-104 615,-104 615,-85 534,-85"/>
<text text-anchor="middle" x="574.5" y="-92" font-family="Helvetica" font-size="10.00">llvm::StringRef</text>
</a>
</g>
</g>
<!-- Node11&#45;&gt;Node1 -->
<g id="edge11" class="edge">
<title>Node11&#45;&gt;Node1</title>
<path fill="none" stroke="#9a32cd" stroke-dasharray="5,2" d="M546.79,-80.88C536.68,-76.37 525.12,-71.34 514.5,-67 469.1,-48.44 414.99,-29.91 383.61,-19.5"/>
<polygon fill="#9a32cd" stroke="#9a32cd" points="545.41,-84.09 555.97,-84.99 548.28,-77.71 545.41,-84.09"/>
<text text-anchor="middle" x="483.5" y="-41" font-family="Helvetica" font-size="10.00"> Name</text>
</g>
<!-- Node12 -->
<g id="node12" class="node">
<title>Node12</title>
<g id="a_node12"><a xlink:href="classsize__t.html" target="_top" xlink:title=" ">
<polygon fill="none" stroke="black" points="564.5,-180.5 564.5,-199.5 606.5,-199.5 606.5,-180.5 564.5,-180.5"/>
<text text-anchor="middle" x="585.5" y="-187.5" font-family="Helvetica" font-size="10.00">size_t</text>
</a>
</g>
</g>
<!-- Node12&#45;&gt;Node11 -->
<g id="edge12" class="edge">
<title>Node12&#45;&gt;Node11</title>
<path fill="none" stroke="#9a32cd" stroke-dasharray="5,2" d="M583.29,-170.24C580.93,-150.12 577.27,-119.05 575.51,-104.11"/>
<polygon fill="#9a32cd" stroke="#9a32cd" points="579.84,-170.85 584.48,-180.37 586.79,-170.03 579.84,-170.85"/>
<text text-anchor="middle" x="594" y="-148.5" font-family="Helvetica" font-size="10.00"> npos</text>
</g>
</g>
</svg>
