<?xml version="1.0" encoding="UTF-8" standalone="no"?>
<!DOCTYPE svg PUBLIC "-//W3C//DTD SVG 1.1//EN"
 "http://www.w3.org/Graphics/SVG/1.1/DTD/svg11.dtd">
<!-- Generated by graphviz version 2.44.0 (0)
 -->
<!-- Title: llvm::AsmFieldInfo Pages: 1 -->
<svg width="180pt" height="251pt"
 viewBox="0.00 0.00 179.50 251.00" xmlns="http://www.w3.org/2000/svg" xmlns:xlink="http://www.w3.org/1999/xlink">
<g id="graph0" class="graph" transform="scale(1 1) rotate(0) translate(4 247)">
<title>llvm::AsmFieldInfo</title>
<!-- Node1 -->
<g id="node1" class="node">
<title>Node1</title>
<g id="a_node1"><a xlink:title=" ">
<polygon fill="#bfbfbf" stroke="black" points="0,-0.5 0,-19.5 98,-19.5 98,-0.5 0,-0.5"/>
<text text-anchor="middle" x="49" y="-7.5" font-family="Helvetica" font-size="10.00">llvm::AsmFieldInfo</text>
</a>
</g>
</g>
<!-- Node2 -->
<g id="node2" class="node">
<title>Node2</title>
<g id="a_node2"><a xlink:href="structllvm_1_1AsmTypeInfo.html" target="_top" xlink:title=" ">
<polygon fill="none" stroke="black" points="65,-67.5 65,-86.5 163,-86.5 163,-67.5 65,-67.5"/>
<text text-anchor="middle" x="114" y="-74.5" font-family="Helvetica" font-size="10.00">llvm::AsmTypeInfo</text>
</a>
</g>
</g>
<!-- Node2&#45;&gt;Node1 -->
<g id="edge1" class="edge">
<title>Node2&#45;&gt;Node1</title>
<path fill="none" stroke="#9a32cd" stroke-dasharray="5,2" d="M98,-60C85.25,-47.25 67.89,-29.89 57.63,-19.63"/>
<polygon fill="#9a32cd" stroke="#9a32cd" points="95.69,-62.64 105.23,-67.23 100.64,-57.69 95.69,-62.64"/>
<text text-anchor="middle" x="98.5" y="-41" font-family="Helvetica" font-size="10.00"> Type</text>
</g>
<!-- Node3 -->
<g id="node3" class="node">
<title>Node3</title>
<g id="a_node3"><a xlink:href="classunsigned.html" target="_top" xlink:title=" ">
<polygon fill="none" stroke="black" points="3,-156.5 3,-175.5 59,-175.5 59,-156.5 3,-156.5"/>
<text text-anchor="middle" x="31" y="-163.5" font-family="Helvetica" font-size="10.00">unsigned</text>
</a>
</g>
</g>
<!-- Node3&#45;&gt;Node1 -->
<g id="edge5" class="edge">
<title>Node3&#45;&gt;Node1</title>
<path fill="none" stroke="#9a32cd" stroke-dasharray="5,2" d="M27.37,-146.36C24.12,-126.5 20.63,-94.23 26,-67 29.46,-49.47 38.47,-30.53 44.13,-19.78"/>
<polygon fill="#9a32cd" stroke="#9a32cd" points="23.93,-147.02 29.14,-156.25 30.82,-145.79 23.93,-147.02"/>
<text text-anchor="middle" x="41" y="-74.5" font-family="Helvetica" font-size="10.00"> Offset</text>
</g>
<!-- Node3&#45;&gt;Node2 -->
<g id="edge2" class="edge">
<title>Node3&#45;&gt;Node2</title>
<path fill="none" stroke="#9a32cd" stroke-dasharray="5,2" d="M35.68,-146.44C39.75,-133.48 46.79,-116.51 58,-105 65.98,-96.8 76.96,-90.77 87.07,-86.5"/>
<polygon fill="#9a32cd" stroke="#9a32cd" points="32.28,-145.6 32.93,-156.17 39.02,-147.5 32.28,-145.6"/>
<text text-anchor="middle" x="87" y="-130" font-family="Helvetica" font-size="10.00"> ElementSize</text>
<text text-anchor="middle" x="87" y="-119" font-family="Helvetica" font-size="10.00">Length</text>
<text text-anchor="middle" x="87" y="-108" font-family="Helvetica" font-size="10.00">Size</text>
</g>
<!-- Node4 -->
<g id="node4" class="node">
<title>Node4</title>
<g id="a_node4"><a xlink:href="classllvm_1_1StringRef.html" target="_top" xlink:title="StringRef &#45; Represent a constant reference to a string, i.e.">
<polygon fill="none" stroke="black" points="90.5,-156.5 90.5,-175.5 171.5,-175.5 171.5,-156.5 90.5,-156.5"/>
<text text-anchor="middle" x="131" y="-163.5" font-family="Helvetica" font-size="10.00">llvm::StringRef</text>
</a>
</g>
</g>
<!-- Node4&#45;&gt;Node2 -->
<g id="edge3" class="edge">
<title>Node4&#45;&gt;Node2</title>
<path fill="none" stroke="#9a32cd" stroke-dasharray="5,2" d="M127.38,-146.46C123.77,-128 118.39,-100.48 115.69,-86.62"/>
<polygon fill="#9a32cd" stroke="#9a32cd" points="123.95,-147.2 129.31,-156.34 130.83,-145.85 123.95,-147.2"/>
<text text-anchor="middle" x="141" y="-119" font-family="Helvetica" font-size="10.00"> Name</text>
</g>
<!-- Node5 -->
<g id="node5" class="node">
<title>Node5</title>
<g id="a_node5"><a xlink:href="classsize__t.html" target="_top" xlink:title=" ">
<polygon fill="none" stroke="black" points="110,-223.5 110,-242.5 152,-242.5 152,-223.5 110,-223.5"/>
<text text-anchor="middle" x="131" y="-230.5" font-family="Helvetica" font-size="10.00">size_t</text>
</a>
</g>
</g>
<!-- Node5&#45;&gt;Node4 -->
<g id="edge4" class="edge">
<title>Node5&#45;&gt;Node4</title>
<path fill="none" stroke="#9a32cd" stroke-dasharray="5,2" d="M131,-213.04C131,-200.67 131,-185.12 131,-175.63"/>
<polygon fill="#9a32cd" stroke="#9a32cd" points="127.5,-213.23 131,-223.23 134.5,-213.23 127.5,-213.23"/>
<text text-anchor="middle" x="143.5" y="-197" font-family="Helvetica" font-size="10.00"> npos</text>
</g>
</g>
</svg>
