<?xml version="1.0" encoding="UTF-8" standalone="no"?>
<!DOCTYPE svg PUBLIC "-//W3C//DTD SVG 1.1//EN"
 "http://www.w3.org/Graphics/SVG/1.1/DTD/svg11.dtd">
<!-- Generated by graphviz version 2.44.0 (0)
 -->
<!-- Title: llvm::ms_demangle::VariableSymbolNode Pages: 1 -->
<svg width="334pt" height="340pt"
 viewBox="0.00 0.00 333.50 340.00" xmlns="http://www.w3.org/2000/svg" xmlns:xlink="http://www.w3.org/1999/xlink">
<g id="graph0" class="graph" transform="scale(1 1) rotate(0) translate(4 336)">
<title>llvm::ms_demangle::VariableSymbolNode</title>
<!-- Node1 -->
<g id="node1" class="node">
<title>Node1</title>
<g id="a_node1"><a xlink:title=" ">
<polygon fill="#bfbfbf" stroke="black" points="155.5,-0.5 155.5,-30.5 262.5,-30.5 262.5,-0.5 155.5,-0.5"/>
<text text-anchor="start" x="163.5" y="-18.5" font-family="Helvetica" font-size="10.00">llvm::ms_demangle::</text>
<text text-anchor="middle" x="209" y="-7.5" font-family="Helvetica" font-size="10.00">VariableSymbolNode</text>
</a>
</g>
</g>
<!-- Node2 -->
<g id="node2" class="node">
<title>Node2</title>
<g id="a_node2"><a xlink:href="structllvm_1_1ms__demangle_1_1SymbolNode.html" target="_top" xlink:title=" ">
<polygon fill="none" stroke="black" points="45.5,-78.5 45.5,-108.5 152.5,-108.5 152.5,-78.5 45.5,-78.5"/>
<text text-anchor="start" x="53.5" y="-96.5" font-family="Helvetica" font-size="10.00">llvm::ms_demangle::</text>
<text text-anchor="middle" x="99" y="-85.5" font-family="Helvetica" font-size="10.00">SymbolNode</text>
</a>
</g>
</g>
<!-- Node2&#45;&gt;Node1 -->
<g id="edge1" class="edge">
<title>Node2&#45;&gt;Node1</title>
<path fill="none" stroke="midnightblue" d="M127.79,-72.61C146.92,-59.39 171.58,-42.36 188.68,-30.54"/>
<polygon fill="midnightblue" stroke="midnightblue" points="125.67,-69.82 119.43,-78.38 129.65,-75.58 125.67,-69.82"/>
</g>
<!-- Node3 -->
<g id="node3" class="node">
<title>Node3</title>
<g id="a_node3"><a xlink:href="structllvm_1_1ms__demangle_1_1Node.html" target="_top" xlink:title=" ">
<polygon fill="none" stroke="black" points="80.5,-312.5 80.5,-331.5 211.5,-331.5 211.5,-312.5 80.5,-312.5"/>
<text text-anchor="middle" x="146" y="-319.5" font-family="Helvetica" font-size="10.00">llvm::ms_demangle::Node</text>
</a>
</g>
</g>
<!-- Node3&#45;&gt;Node2 -->
<g id="edge2" class="edge">
<title>Node3&#45;&gt;Node2</title>
<path fill="none" stroke="midnightblue" d="M158.25,-303.31C159.8,-300.32 161.14,-297.16 162,-294 166.62,-277.15 213.64,-284.84 161,-156 152.91,-136.21 134.93,-119.56 120.4,-108.6"/>
<polygon fill="midnightblue" stroke="midnightblue" points="155.13,-301.7 152.95,-312.06 161.12,-305.32 155.13,-301.7"/>
</g>
<!-- Node4 -->
<g id="node4" class="node">
<title>Node4</title>
<g id="a_node4"><a xlink:href="structllvm_1_1ms__demangle_1_1QualifiedNameNode.html" target="_top" xlink:title=" ">
<polygon fill="none" stroke="black" points="45.5,-156.5 45.5,-186.5 152.5,-186.5 152.5,-156.5 45.5,-156.5"/>
<text text-anchor="start" x="53.5" y="-174.5" font-family="Helvetica" font-size="10.00">llvm::ms_demangle::</text>
<text text-anchor="middle" x="99" y="-163.5" font-family="Helvetica" font-size="10.00">QualifiedNameNode</text>
</a>
</g>
</g>
<!-- Node3&#45;&gt;Node4 -->
<g id="edge4" class="edge">
<title>Node3&#45;&gt;Node4</title>
<path fill="none" stroke="midnightblue" d="M147.42,-302.15C148.42,-278.27 147.45,-236.45 132,-205 128.6,-198.07 123.11,-191.77 117.57,-186.6"/>
<polygon fill="midnightblue" stroke="midnightblue" points="143.92,-302.12 146.83,-312.31 150.91,-302.53 143.92,-302.12"/>
</g>
<!-- Node5 -->
<g id="node5" class="node">
<title>Node5</title>
<g id="a_node5"><a xlink:href="structllvm_1_1ms__demangle_1_1NodeArrayNode.html" target="_top" xlink:title=" ">
<polygon fill="none" stroke="black" points="10.5,-234.5 10.5,-264.5 117.5,-264.5 117.5,-234.5 10.5,-234.5"/>
<text text-anchor="start" x="18.5" y="-252.5" font-family="Helvetica" font-size="10.00">llvm::ms_demangle::</text>
<text text-anchor="middle" x="64" y="-241.5" font-family="Helvetica" font-size="10.00">NodeArrayNode</text>
</a>
</g>
</g>
<!-- Node3&#45;&gt;Node5 -->
<g id="edge6" class="edge">
<title>Node3&#45;&gt;Node5</title>
<path fill="none" stroke="midnightblue" d="M130.24,-304.76C123.3,-297.85 114.94,-289.82 107,-283 99.62,-276.66 91.14,-270.1 83.67,-264.56"/>
<polygon fill="midnightblue" stroke="midnightblue" points="128.1,-307.57 137.62,-312.23 133.08,-302.65 128.1,-307.57"/>
</g>
<!-- Node3&#45;&gt;Node5 -->
<g id="edge7" class="edge">
<title>Node3&#45;&gt;Node5</title>
<path fill="none" stroke="#9a32cd" stroke-dasharray="5,2" d="M89.61,-308.42C82.54,-304.77 76.03,-300.07 71,-294 64.26,-285.87 62.75,-273.87 62.8,-264.53"/>
<polygon fill="#9a32cd" stroke="#9a32cd" points="88.25,-311.64 98.81,-312.49 91.08,-305.24 88.25,-311.64"/>
<text text-anchor="middle" x="87" y="-286" font-family="Helvetica" font-size="10.00"> Nodes</text>
</g>
<!-- Node8 -->
<g id="node8" class="node">
<title>Node8</title>
<g id="a_node8"><a xlink:href="structllvm_1_1ms__demangle_1_1TypeNode.html" target="_top" xlink:title=" ">
<polygon fill="none" stroke="black" points="218.5,-234.5 218.5,-264.5 325.5,-264.5 325.5,-234.5 218.5,-234.5"/>
<text text-anchor="start" x="226.5" y="-252.5" font-family="Helvetica" font-size="10.00">llvm::ms_demangle::</text>
<text text-anchor="middle" x="272" y="-241.5" font-family="Helvetica" font-size="10.00">TypeNode</text>
</a>
</g>
</g>
<!-- Node3&#45;&gt;Node8 -->
<g id="edge11" class="edge">
<title>Node3&#45;&gt;Node8</title>
<path fill="none" stroke="midnightblue" d="M171.94,-307.87C180.31,-303.54 189.59,-298.65 198,-294 215.21,-284.48 234.35,-273.21 248.85,-264.53"/>
<polygon fill="midnightblue" stroke="midnightblue" points="170.28,-304.79 162.98,-312.47 173.48,-311.02 170.28,-304.79"/>
</g>
<!-- Node4&#45;&gt;Node2 -->
<g id="edge3" class="edge">
<title>Node4&#45;&gt;Node2</title>
<path fill="none" stroke="#9a32cd" stroke-dasharray="5,2" d="M99,-146.09C99,-133.76 99,-119.22 99,-108.73"/>
<polygon fill="#9a32cd" stroke="#9a32cd" points="95.5,-146.2 99,-156.2 102.5,-146.21 95.5,-146.2"/>
<text text-anchor="middle" x="114" y="-130" font-family="Helvetica" font-size="10.00"> Name</text>
</g>
<!-- Node5&#45;&gt;Node4 -->
<g id="edge5" class="edge">
<title>Node5&#45;&gt;Node4</title>
<path fill="none" stroke="#9a32cd" stroke-dasharray="5,2" d="M66.97,-224.04C68.3,-217.65 70.23,-210.9 73,-205 76.07,-198.46 80.71,-192.07 85.23,-186.71"/>
<polygon fill="#9a32cd" stroke="#9a32cd" points="63.46,-223.81 65.24,-234.25 70.36,-224.98 63.46,-223.81"/>
<text text-anchor="middle" x="102.5" y="-208" font-family="Helvetica" font-size="10.00"> Components</text>
</g>
<!-- Node6 -->
<g id="node6" class="node">
<title>Node6</title>
<g id="a_node6"><a xlink:href="classsize__t.html" target="_top" xlink:title=" ">
<polygon fill="none" stroke="black" points="0,-312.5 0,-331.5 42,-331.5 42,-312.5 0,-312.5"/>
<text text-anchor="middle" x="21" y="-319.5" font-family="Helvetica" font-size="10.00">size_t</text>
</a>
</g>
</g>
<!-- Node6&#45;&gt;Node5 -->
<g id="edge8" class="edge">
<title>Node6&#45;&gt;Node5</title>
<path fill="none" stroke="#9a32cd" stroke-dasharray="5,2" d="M18.33,-301.94C18.25,-295.62 19.09,-288.74 22,-283 25.67,-275.76 31.78,-269.66 38.22,-264.77"/>
<polygon fill="#9a32cd" stroke="#9a32cd" points="14.88,-302.67 19.21,-312.34 21.85,-302.08 14.88,-302.67"/>
<text text-anchor="middle" x="37" y="-286" font-family="Helvetica" font-size="10.00"> Count</text>
</g>
<!-- Node7 -->
<g id="node7" class="node">
<title>Node7</title>
<g id="a_node7"><a xlink:title=" ">
<polygon fill="none" stroke="#bfbfbf" points="171,-84 171,-103 247,-103 247,-84 171,-84"/>
<text text-anchor="middle" x="209" y="-91" font-family="Helvetica" font-size="10.00">StorageClass</text>
</a>
</g>
</g>
<!-- Node7&#45;&gt;Node1 -->
<g id="edge9" class="edge">
<title>Node7&#45;&gt;Node1</title>
<path fill="none" stroke="#9a32cd" stroke-dasharray="5,2" d="M209,-73.78C209,-60.4 209,-42.69 209,-30.52"/>
<polygon fill="#9a32cd" stroke="#9a32cd" points="205.5,-73.78 209,-83.78 212.5,-73.78 205.5,-73.78"/>
<text text-anchor="middle" x="218" y="-52" font-family="Helvetica" font-size="10.00"> SC</text>
</g>
<!-- Node8&#45;&gt;Node1 -->
<g id="edge10" class="edge">
<title>Node8&#45;&gt;Node1</title>
<path fill="none" stroke="#9a32cd" stroke-dasharray="5,2" d="M273.85,-223.81C275.49,-189.75 275.18,-127 256,-78 248.85,-59.73 234.57,-42.3 223.61,-30.69"/>
<polygon fill="#9a32cd" stroke="#9a32cd" points="270.33,-224.01 273.24,-234.2 277.32,-224.42 270.33,-224.01"/>
<text text-anchor="middle" x="282.5" y="-130" font-family="Helvetica" font-size="10.00"> Type</text>
</g>
<!-- Node9 -->
<g id="node9" class="node">
<title>Node9</title>
<g id="a_node9"><a xlink:title=" ">
<polygon fill="none" stroke="#bfbfbf" points="242.5,-312.5 242.5,-331.5 301.5,-331.5 301.5,-312.5 242.5,-312.5"/>
<text text-anchor="middle" x="272" y="-319.5" font-family="Helvetica" font-size="10.00">Qualifiers</text>
</a>
</g>
</g>
<!-- Node9&#45;&gt;Node8 -->
<g id="edge12" class="edge">
<title>Node9&#45;&gt;Node8</title>
<path fill="none" stroke="#9a32cd" stroke-dasharray="5,2" d="M272,-302.24C272,-290.41 272,-275.38 272,-264.58"/>
<polygon fill="#9a32cd" stroke="#9a32cd" points="268.5,-302.36 272,-312.36 275.5,-302.36 268.5,-302.36"/>
<text text-anchor="middle" x="286.5" y="-286" font-family="Helvetica" font-size="10.00"> Quals</text>
</g>
</g>
</svg>
