<?xml version="1.0" encoding="UTF-8" standalone="no"?>
<!DOCTYPE svg PUBLIC "-//W3C//DTD SVG 1.1//EN"
 "http://www.w3.org/Graphics/SVG/1.1/DTD/svg11.dtd">
<!-- Generated by graphviz version 2.44.0 (0)
 -->
<!-- Title: llvm::Win64EH::UnwindInfo Pages: 1 -->
<svg width="404pt" height="219pt"
 viewBox="0.00 0.00 403.50 219.00" xmlns="http://www.w3.org/2000/svg" xmlns:xlink="http://www.w3.org/1999/xlink">
<g id="graph0" class="graph" transform="scale(1 1) rotate(0) translate(4 215)">
<title>llvm::Win64EH::UnwindInfo</title>
<!-- Node1 -->
<g id="node1" class="node">
<title>Node1</title>
<g id="a_node1"><a xlink:title="UnwindInfo &#45; An entry in the exception table.">
<polygon fill="#bfbfbf" stroke="black" points="0,-0.5 0,-19.5 138,-19.5 138,-0.5 0,-0.5"/>
<text text-anchor="middle" x="69" y="-7.5" font-family="Helvetica" font-size="10.00">llvm::Win64EH::UnwindInfo</text>
</a>
</g>
</g>
<!-- Node2 -->
<g id="node2" class="node">
<title>Node2</title>
<g id="a_node2"><a xlink:title=" ">
<polygon fill="none" stroke="#bfbfbf" points="60,-180.5 60,-199.5 106,-199.5 106,-180.5 60,-180.5"/>
<text text-anchor="middle" x="83" y="-187.5" font-family="Helvetica" font-size="10.00">uint8_t</text>
</a>
</g>
</g>
<!-- Node2&#45;&gt;Node1 -->
<g id="edge1" class="edge">
<title>Node2&#45;&gt;Node1</title>
<path fill="none" stroke="#9a32cd" stroke-dasharray="5,2" d="M76.57,-170.58C71.46,-154.95 64.75,-131.81 62,-111 59.44,-91.61 60.78,-86.52 62,-67 63.05,-50.18 65.85,-30.68 67.57,-19.7"/>
<polygon fill="#9a32cd" stroke="#9a32cd" points="73.4,-172.14 79.92,-180.49 80.03,-169.9 73.4,-172.14"/>
<text text-anchor="middle" x="117.5" y="-103" font-family="Helvetica" font-size="10.00"> FrameRegisterAndOffset</text>
<text text-anchor="middle" x="117.5" y="-92" font-family="Helvetica" font-size="10.00">NumCodes</text>
<text text-anchor="middle" x="117.5" y="-81" font-family="Helvetica" font-size="10.00">PrologSize</text>
<text text-anchor="middle" x="117.5" y="-70" font-family="Helvetica" font-size="10.00">VersionAndFlags</text>
</g>
<!-- Node3 -->
<g id="node3" class="node">
<title>Node3</title>
<g id="a_node3"><a xlink:href="unionllvm_1_1Win64EH_1_1UnwindCode.html" target="_top" xlink:title="UnwindCode &#45; This union describes a single operation in a function prolog, or part thereof.">
<polygon fill="none" stroke="black" points="182.5,-79.5 182.5,-98.5 327.5,-98.5 327.5,-79.5 182.5,-79.5"/>
<text text-anchor="middle" x="255" y="-86.5" font-family="Helvetica" font-size="10.00">llvm::Win64EH::UnwindCode</text>
</a>
</g>
</g>
<!-- Node2&#45;&gt;Node3 -->
<g id="edge5" class="edge">
<title>Node2&#45;&gt;Node3</title>
<path fill="none" stroke="#9a32cd" stroke-dasharray="5,2" d="M97.87,-172.63C110.64,-159.39 130.07,-141.03 150,-129 172.81,-115.23 201.28,-105.03 222.81,-98.52"/>
<polygon fill="#9a32cd" stroke="#9a32cd" points="95.14,-170.43 90.85,-180.12 100.24,-175.22 95.14,-170.43"/>
<text text-anchor="middle" x="196.5" y="-143" font-family="Helvetica" font-size="10.00"> CodeOffset</text>
<text text-anchor="middle" x="196.5" y="-132" font-family="Helvetica" font-size="10.00">UnwindOpAndOpInfo</text>
</g>
<!-- Node3&#45;&gt;Node1 -->
<g id="edge2" class="edge">
<title>Node3&#45;&gt;Node1</title>
<path fill="none" stroke="#9a32cd" stroke-dasharray="5,2" d="M224.87,-75.53C186.89,-59.8 122.59,-33.18 89.71,-19.57"/>
<polygon fill="#9a32cd" stroke="#9a32cd" points="223.81,-78.87 234.38,-79.47 226.48,-72.41 223.81,-78.87"/>
<text text-anchor="middle" x="189.5" y="-41" font-family="Helvetica" font-size="10.00"> UnwindCodes</text>
</g>
<!-- Node4 -->
<g id="node4" class="node">
<title>Node4</title>
<g id="a_node4"><a xlink:title=" ">
<polygon fill="none" stroke="#bfbfbf" points="179.5,-169.5 179.5,-210.5 302.5,-210.5 302.5,-169.5 179.5,-169.5"/>
<text text-anchor="start" x="187.5" y="-198.5" font-family="Helvetica" font-size="10.00">packed_endian_specific</text>
<text text-anchor="start" x="187.5" y="-187.5" font-family="Helvetica" font-size="10.00">_integral&lt; uint16_t, little,</text>
<text text-anchor="middle" x="241" y="-176.5" font-family="Helvetica" font-size="10.00"> unaligned &gt;</text>
</a>
</g>
</g>
<!-- Node4&#45;&gt;Node3 -->
<g id="edge3" class="edge">
<title>Node4&#45;&gt;Node3</title>
<path fill="none" stroke="#9a32cd" stroke-dasharray="5,2" d="M245.18,-159.44C248.13,-138.57 251.89,-112.02 253.78,-98.6"/>
<polygon fill="#9a32cd" stroke="#9a32cd" points="241.7,-159.05 243.77,-169.44 248.63,-160.03 241.7,-159.05"/>
<text text-anchor="middle" x="279" y="-137.5" font-family="Helvetica" font-size="10.00"> FrameOffset</text>
</g>
<!-- Node5 -->
<g id="node5" class="node">
<title>Node5</title>
<g id="a_node5"><a xlink:title=" ">
<polygon fill="none" stroke="#bfbfbf" points="320.5,-180.5 320.5,-199.5 395.5,-199.5 395.5,-180.5 320.5,-180.5"/>
<text text-anchor="middle" x="358" y="-187.5" font-family="Helvetica" font-size="10.00">anonymous:u</text>
</a>
</g>
</g>
<!-- Node5&#45;&gt;Node3 -->
<g id="edge4" class="edge">
<title>Node5&#45;&gt;Node3</title>
<path fill="none" stroke="#9a32cd" stroke-dasharray="5,2" d="M346.78,-171.49C338.18,-158.84 325.52,-141.8 312,-129 299.29,-116.96 282.54,-105.97 270.49,-98.75"/>
<polygon fill="#9a32cd" stroke="#9a32cd" points="344.08,-173.75 352.51,-180.16 349.92,-169.89 344.08,-173.75"/>
<text text-anchor="middle" x="336.5" y="-137.5" font-family="Helvetica" font-size="10.00"> u</text>
</g>
</g>
</svg>
