<?xml version="1.0" encoding="UTF-8" standalone="no"?>
<!DOCTYPE svg PUBLIC "-//W3C//DTD SVG 1.1//EN"
 "http://www.w3.org/Graphics/SVG/1.1/DTD/svg11.dtd">
<!-- Generated by graphviz version 2.44.0 (0)
 -->
<!-- Title: include/llvm/IR/StructuralHash.h Pages: 1 -->
<svg width="662pt" height="95pt"
 viewBox="0.00 0.00 661.50 95.00" xmlns="http://www.w3.org/2000/svg" xmlns:xlink="http://www.w3.org/1999/xlink">
<g id="graph0" class="graph" transform="scale(1 1) rotate(0) translate(4 91)">
<title>include/llvm/IR/StructuralHash.h</title>
<!-- Node1 -->
<g id="node1" class="node">
<title>Node1</title>
<g id="a_node1"><a xlink:title=" ">
<polygon fill="#bfbfbf" stroke="black" points="271.5,-56.5 271.5,-86.5 398.5,-86.5 398.5,-56.5 271.5,-56.5"/>
<text text-anchor="start" x="279.5" y="-74.5" font-family="Helvetica" font-size="10.00">include/llvm/IR/Structural</text>
<text text-anchor="middle" x="335" y="-63.5" font-family="Helvetica" font-size="10.00">Hash.h</text>
</a>
</g>
</g>
<!-- Node2 -->
<g id="node2" class="node">
<title>Node2</title>
<g id="a_node2"><a xlink:href="CallGraphSCCPass_8cpp.html" target="_top" xlink:title=" ">
<polygon fill="none" stroke="black" points="0,-0.5 0,-19.5 174,-19.5 174,-0.5 0,-0.5"/>
<text text-anchor="middle" x="87" y="-7.5" font-family="Helvetica" font-size="10.00">lib/Analysis/CallGraphSCCPass.cpp</text>
</a>
</g>
</g>
<!-- Node1&#45;&gt;Node2 -->
<g id="edge1" class="edge">
<title>Node1&#45;&gt;Node2</title>
<path fill="none" stroke="midnightblue" d="M266.78,-54.13C220.05,-42.92 159.96,-28.5 122.46,-19.51"/>
<polygon fill="midnightblue" stroke="midnightblue" points="266,-57.55 276.54,-56.47 267.63,-50.74 266,-57.55"/>
</g>
<!-- Node3 -->
<g id="node3" class="node">
<title>Node3</title>
<g id="a_node3"><a xlink:href="LoopPass_8cpp.html" target="_top" xlink:title=" ">
<polygon fill="none" stroke="black" points="192.5,-0.5 192.5,-19.5 323.5,-19.5 323.5,-0.5 192.5,-0.5"/>
<text text-anchor="middle" x="258" y="-7.5" font-family="Helvetica" font-size="10.00">lib/Analysis/LoopPass.cpp</text>
</a>
</g>
</g>
<!-- Node1&#45;&gt;Node3 -->
<g id="edge2" class="edge">
<title>Node1&#45;&gt;Node3</title>
<path fill="none" stroke="midnightblue" d="M308.71,-50.19C295.23,-39.77 279.52,-27.63 269.2,-19.66"/>
<polygon fill="midnightblue" stroke="midnightblue" points="306.7,-53.05 316.75,-56.4 310.98,-47.52 306.7,-53.05"/>
</g>
<!-- Node4 -->
<g id="node4" class="node">
<title>Node4</title>
<g id="a_node4"><a xlink:href="RegionPass_8cpp.html" target="_top" xlink:title=" ">
<polygon fill="none" stroke="black" points="342,-0.5 342,-19.5 482,-19.5 482,-0.5 342,-0.5"/>
<text text-anchor="middle" x="412" y="-7.5" font-family="Helvetica" font-size="10.00">lib/Analysis/RegionPass.cpp</text>
</a>
</g>
</g>
<!-- Node1&#45;&gt;Node4 -->
<g id="edge3" class="edge">
<title>Node1&#45;&gt;Node4</title>
<path fill="none" stroke="midnightblue" d="M361.29,-50.19C374.77,-39.77 390.48,-27.63 400.8,-19.66"/>
<polygon fill="midnightblue" stroke="midnightblue" points="359.02,-47.52 353.25,-56.4 363.3,-53.05 359.02,-47.52"/>
</g>
<!-- Node5 -->
<g id="node5" class="node">
<title>Node5</title>
<g id="a_node5"><a xlink:href="LegacyPassManager_8cpp.html" target="_top" xlink:title=" ">
<polygon fill="none" stroke="black" points="500.5,-0.5 500.5,-19.5 653.5,-19.5 653.5,-0.5 500.5,-0.5"/>
<text text-anchor="middle" x="577" y="-7.5" font-family="Helvetica" font-size="10.00">lib/IR/LegacyPassManager.cpp</text>
</a>
</g>
</g>
<!-- Node1&#45;&gt;Node5 -->
<g id="edge4" class="edge">
<title>Node1&#45;&gt;Node5</title>
<path fill="none" stroke="midnightblue" d="M401.85,-54.06C447.42,-42.86 505.88,-28.49 542.4,-19.51"/>
<polygon fill="midnightblue" stroke="midnightblue" points="400.92,-50.69 392.04,-56.47 402.59,-57.49 400.92,-50.69"/>
</g>
</g>
</svg>
