<?xml version="1.0" encoding="UTF-8" standalone="no"?>
<!DOCTYPE svg PUBLIC "-//W3C//DTD SVG 1.1//EN"
 "http://www.w3.org/Graphics/SVG/1.1/DTD/svg11.dtd">
<!-- Generated by graphviz version 2.44.0 (0)
 -->
<!-- Title: llvm::remarks::YAMLRemarkSerializer Pages: 1 -->
<svg width="926pt" height="200pt"
 viewBox="0.00 0.00 926.00 200.00" xmlns="http://www.w3.org/2000/svg" xmlns:xlink="http://www.w3.org/1999/xlink">
<g id="graph0" class="graph" transform="scale(1 1) rotate(0) translate(4 196)">
<title>llvm::remarks::YAMLRemarkSerializer</title>
<!-- Node1 -->
<g id="node1" class="node">
<title>Node1</title>
<g id="a_node1"><a xlink:title="Serialize the remarks to YAML.">
<polygon fill="#bfbfbf" stroke="black" points="775,-73 775,-103 918,-103 918,-73 775,-73"/>
<text text-anchor="start" x="783" y="-91" font-family="Helvetica" font-size="10.00">llvm::remarks::YAMLRemark</text>
<text text-anchor="middle" x="846.5" y="-80" font-family="Helvetica" font-size="10.00">Serializer</text>
</a>
</g>
</g>
<!-- Node2 -->
<g id="node2" class="node">
<title>Node2</title>
<g id="a_node2"><a xlink:href="structllvm_1_1remarks_1_1RemarkSerializer.html" target="_top" xlink:title="This is the base class for a remark serializer.">
<polygon fill="none" stroke="black" points="523,-103.5 523,-122.5 680,-122.5 680,-103.5 523,-103.5"/>
<text text-anchor="middle" x="601.5" y="-110.5" font-family="Helvetica" font-size="10.00">llvm::remarks::RemarkSerializer</text>
</a>
</g>
</g>
<!-- Node2&#45;&gt;Node1 -->
<g id="edge1" class="edge">
<title>Node2&#45;&gt;Node1</title>
<path fill="none" stroke="midnightblue" d="M690.18,-103.98C718,-101.12 748.39,-97.99 774.85,-95.27"/>
<polygon fill="midnightblue" stroke="midnightblue" points="689.64,-100.52 680.05,-105.02 690.36,-107.48 689.64,-100.52"/>
</g>
<!-- Node3 -->
<g id="node3" class="node">
<title>Node3</title>
<g id="a_node3"><a xlink:title=" ">
<polygon fill="none" stroke="#bfbfbf" points="328.5,-172.5 328.5,-191.5 375.5,-191.5 375.5,-172.5 328.5,-172.5"/>
<text text-anchor="middle" x="352" y="-179.5" font-family="Helvetica" font-size="10.00">Format</text>
</a>
</g>
</g>
<!-- Node3&#45;&gt;Node2 -->
<g id="edge2" class="edge">
<title>Node3&#45;&gt;Node2</title>
<path fill="none" stroke="#9a32cd" stroke-dasharray="5,2" d="M385.33,-174.6C416.22,-167.37 464.01,-155.76 505,-144 527.95,-137.41 553.69,-129 572.66,-122.6"/>
<polygon fill="#9a32cd" stroke="#9a32cd" points="384.48,-171.2 375.54,-176.88 386.07,-178.02 384.48,-171.2"/>
<text text-anchor="middle" x="468" y="-165" font-family="Helvetica" font-size="10.00"> SerializerFormat</text>
</g>
<!-- Node4 -->
<g id="node4" class="node">
<title>Node4</title>
<g id="a_node4"><a xlink:href="classllvm_1_1Optional.html" target="_top" xlink:title=" ">
<polygon fill="none" stroke="black" points="291,-123 291,-153 413,-153 413,-123 291,-123"/>
<text text-anchor="start" x="299" y="-141" font-family="Helvetica" font-size="10.00">llvm::Optional&lt; llvm</text>
<text text-anchor="middle" x="352" y="-130" font-family="Helvetica" font-size="10.00">::remarks::StringTable &gt;</text>
</a>
</g>
</g>
<!-- Node4&#45;&gt;Node2 -->
<g id="edge3" class="edge">
<title>Node4&#45;&gt;Node2</title>
<path fill="none" stroke="#9a32cd" stroke-dasharray="5,2" d="M423.5,-130.88C454.43,-127.75 490.86,-124.07 522.6,-120.87"/>
<polygon fill="#9a32cd" stroke="#9a32cd" points="422.83,-127.43 413.23,-131.92 423.53,-134.39 422.83,-127.43"/>
<text text-anchor="middle" x="468" y="-132" font-family="Helvetica" font-size="10.00"> StrTab</text>
</g>
<!-- Node5 -->
<g id="node5" class="node">
<title>Node5</title>
<g id="a_node5"><a xlink:href="classllvm_1_1Optional.html" target="_top" xlink:title=" ">
<polygon fill="none" stroke="black" points="9,-144.5 9,-163.5 110,-163.5 110,-144.5 9,-144.5"/>
<text text-anchor="middle" x="59.5" y="-151.5" font-family="Helvetica" font-size="10.00">llvm::Optional&lt; T &gt;</text>
</a>
</g>
</g>
<!-- Node5&#45;&gt;Node4 -->
<g id="edge4" class="edge">
<title>Node5&#45;&gt;Node4</title>
<path fill="none" stroke="orange" stroke-dasharray="5,2" d="M120.1,-150.72C169.95,-147.97 240.75,-144.07 290.78,-141.32"/>
<polygon fill="orange" stroke="orange" points="119.9,-147.22 110.11,-151.27 120.29,-154.21 119.9,-147.22"/>
<text text-anchor="middle" x="205" y="-152" font-family="Helvetica" font-size="10.00"> &lt; llvm::remarks::StringTable &gt;</text>
</g>
<!-- Node6 -->
<g id="node6" class="node">
<title>Node6</title>
<g id="a_node6"><a xlink:title=" ">
<polygon fill="none" stroke="#bfbfbf" points="312,-84.5 312,-103.5 392,-103.5 392,-84.5 312,-84.5"/>
<text text-anchor="middle" x="352" y="-91.5" font-family="Helvetica" font-size="10.00">SerializerMode</text>
</a>
</g>
</g>
<!-- Node6&#45;&gt;Node2 -->
<g id="edge5" class="edge">
<title>Node6&#45;&gt;Node2</title>
<path fill="none" stroke="#9a32cd" stroke-dasharray="5,2" d="M402.26,-94.75C432.04,-95.5 470.76,-97 505,-100 515.33,-100.91 526.27,-102.13 536.9,-103.48"/>
<polygon fill="#9a32cd" stroke="#9a32cd" points="402.19,-91.25 392.12,-94.51 402.03,-98.25 402.19,-91.25"/>
<text text-anchor="middle" x="468" y="-103" font-family="Helvetica" font-size="10.00"> Mode</text>
</g>
<!-- Node7 -->
<g id="node7" class="node">
<title>Node7</title>
<g id="a_node7"><a xlink:href="classllvm_1_1raw__ostream.html" target="_top" xlink:title="This class implements an extremely fast bulk output stream that can only output to a stream.">
<polygon fill="none" stroke="black" points="303.5,-31.5 303.5,-50.5 400.5,-50.5 400.5,-31.5 303.5,-31.5"/>
<text text-anchor="middle" x="352" y="-38.5" font-family="Helvetica" font-size="10.00">llvm::raw_ostream</text>
</a>
</g>
</g>
<!-- Node7&#45;&gt;Node2 -->
<g id="edge6" class="edge">
<title>Node7&#45;&gt;Node2</title>
<path fill="none" stroke="#9a32cd" stroke-dasharray="5,2" d="M410.71,-50.02C439.97,-56.01 475.46,-65.51 505,-80 514.1,-84.46 513.88,-89.58 523,-94 530.98,-97.86 539.81,-100.98 548.58,-103.49"/>
<polygon fill="#9a32cd" stroke="#9a32cd" points="411.13,-46.54 400.64,-48.04 409.78,-53.4 411.13,-46.54"/>
<text text-anchor="middle" x="468" y="-83" font-family="Helvetica" font-size="10.00"> OS</text>
</g>
<!-- Node8 -->
<g id="node8" class="node">
<title>Node8</title>
<g id="a_node8"><a xlink:title=" ">
<polygon fill="none" stroke="#bfbfbf" points="0,-0.5 0,-19.5 119,-19.5 119,-0.5 0,-0.5"/>
<text text-anchor="middle" x="59.5" y="-7.5" font-family="Helvetica" font-size="10.00">static constexpr Colors</text>
</a>
</g>
</g>
<!-- Node8&#45;&gt;Node7 -->
<g id="edge7" class="edge">
<title>Node8&#45;&gt;Node7</title>
<path fill="none" stroke="#9a32cd" stroke-dasharray="5,2" d="M129.17,-7.67C171.01,-7.38 225.41,-9.04 273,-17 291.17,-20.04 311,-26.18 326.12,-31.49"/>
<polygon fill="#9a32cd" stroke="#9a32cd" points="129.05,-4.17 119.09,-7.78 129.12,-11.17 129.05,-4.17"/>
<text text-anchor="middle" x="205" y="-130" font-family="Helvetica" font-size="10.00"> BLACK</text>
<text text-anchor="middle" x="205" y="-119" font-family="Helvetica" font-size="10.00">BLUE</text>
<text text-anchor="middle" x="205" y="-108" font-family="Helvetica" font-size="10.00">CYAN</text>
<text text-anchor="middle" x="205" y="-97" font-family="Helvetica" font-size="10.00">GREEN</text>
<text text-anchor="middle" x="205" y="-86" font-family="Helvetica" font-size="10.00">MAGENTA</text>
<text text-anchor="middle" x="205" y="-75" font-family="Helvetica" font-size="10.00">RED</text>
<text text-anchor="middle" x="205" y="-64" font-family="Helvetica" font-size="10.00">RESET</text>
<text text-anchor="middle" x="205" y="-53" font-family="Helvetica" font-size="10.00">SAVEDCOLOR</text>
<text text-anchor="middle" x="205" y="-42" font-family="Helvetica" font-size="10.00">WHITE</text>
<text text-anchor="middle" x="205" y="-31" font-family="Helvetica" font-size="10.00">YELLOW</text>
<text text-anchor="middle" x="205" y="-20" font-family="Helvetica" font-size="10.00">...</text>
</g>
<!-- Node9 -->
<g id="node9" class="node">
<title>Node9</title>
<g id="a_node9"><a xlink:title=" ">
<polygon fill="none" stroke="#bfbfbf" points="578.5,-65.5 578.5,-84.5 624.5,-84.5 624.5,-65.5 578.5,-65.5"/>
<text text-anchor="middle" x="601.5" y="-72.5" font-family="Helvetica" font-size="10.00">Output</text>
</a>
</g>
</g>
<!-- Node9&#45;&gt;Node1 -->
<g id="edge8" class="edge">
<title>Node9&#45;&gt;Node1</title>
<path fill="none" stroke="#9a32cd" stroke-dasharray="5,2" d="M634.8,-76.25C666.07,-77.51 714.79,-79.61 757,-82 762.84,-82.33 768.9,-82.69 774.98,-83.08"/>
<polygon fill="#9a32cd" stroke="#9a32cd" points="634.64,-72.74 624.51,-75.84 634.36,-79.74 634.64,-72.74"/>
<text text-anchor="middle" x="727.5" y="-85" font-family="Helvetica" font-size="10.00"> YAMLOutput</text>
</g>
</g>
</svg>
