<?xml version="1.0" encoding="UTF-8" standalone="no"?>
<!DOCTYPE svg PUBLIC "-//W3C//DTD SVG 1.1//EN"
 "http://www.w3.org/Graphics/SVG/1.1/DTD/svg11.dtd">
<!-- Generated by graphviz version 2.44.0 (0)
 -->
<!-- Title: llvm::AsmTypeInfo Pages: 1 -->
<svg width="164pt" height="184pt"
 viewBox="0.00 0.00 163.50 184.00" xmlns="http://www.w3.org/2000/svg" xmlns:xlink="http://www.w3.org/1999/xlink">
<g id="graph0" class="graph" transform="scale(1 1) rotate(0) translate(4 180)">
<title>llvm::AsmTypeInfo</title>
<!-- Node1 -->
<g id="node1" class="node">
<title>Node1</title>
<g id="a_node1"><a xlink:title=" ">
<polygon fill="#bfbfbf" stroke="black" points="19,-0.5 19,-19.5 117,-19.5 117,-0.5 19,-0.5"/>
<text text-anchor="middle" x="68" y="-7.5" font-family="Helvetica" font-size="10.00">llvm::AsmTypeInfo</text>
</a>
</g>
</g>
<!-- Node2 -->
<g id="node2" class="node">
<title>Node2</title>
<g id="a_node2"><a xlink:href="classunsigned.html" target="_top" xlink:title=" ">
<polygon fill="none" stroke="black" points="0,-89.5 0,-108.5 56,-108.5 56,-89.5 0,-89.5"/>
<text text-anchor="middle" x="28" y="-96.5" font-family="Helvetica" font-size="10.00">unsigned</text>
</a>
</g>
</g>
<!-- Node2&#45;&gt;Node1 -->
<g id="edge1" class="edge">
<title>Node2&#45;&gt;Node1</title>
<path fill="none" stroke="#9a32cd" stroke-dasharray="5,2" d="M25.36,-79.11C24.52,-66.7 25.22,-50.51 32,-38 36.17,-30.31 43.58,-24.18 50.6,-19.72"/>
<polygon fill="#9a32cd" stroke="#9a32cd" points="21.89,-79.65 26.42,-89.23 28.86,-78.92 21.89,-79.65"/>
<text text-anchor="middle" x="61" y="-63" font-family="Helvetica" font-size="10.00"> ElementSize</text>
<text text-anchor="middle" x="61" y="-52" font-family="Helvetica" font-size="10.00">Length</text>
<text text-anchor="middle" x="61" y="-41" font-family="Helvetica" font-size="10.00">Size</text>
</g>
<!-- Node3 -->
<g id="node3" class="node">
<title>Node3</title>
<g id="a_node3"><a xlink:href="classllvm_1_1StringRef.html" target="_top" xlink:title="StringRef &#45; Represent a constant reference to a string, i.e.">
<polygon fill="none" stroke="black" points="74.5,-89.5 74.5,-108.5 155.5,-108.5 155.5,-89.5 74.5,-89.5"/>
<text text-anchor="middle" x="115" y="-96.5" font-family="Helvetica" font-size="10.00">llvm::StringRef</text>
</a>
</g>
</g>
<!-- Node3&#45;&gt;Node1 -->
<g id="edge2" class="edge">
<title>Node3&#45;&gt;Node1</title>
<path fill="none" stroke="#9a32cd" stroke-dasharray="5,2" d="M109.03,-79.94C104.6,-67.68 97.98,-51.33 90,-38 86.03,-31.36 80.53,-24.61 76.02,-19.52"/>
<polygon fill="#9a32cd" stroke="#9a32cd" points="105.75,-81.17 112.32,-89.48 112.37,-78.89 105.75,-81.17"/>
<text text-anchor="middle" x="121" y="-52" font-family="Helvetica" font-size="10.00"> Name</text>
</g>
<!-- Node4 -->
<g id="node4" class="node">
<title>Node4</title>
<g id="a_node4"><a xlink:href="classsize__t.html" target="_top" xlink:title=" ">
<polygon fill="none" stroke="black" points="94,-156.5 94,-175.5 136,-175.5 136,-156.5 94,-156.5"/>
<text text-anchor="middle" x="115" y="-163.5" font-family="Helvetica" font-size="10.00">size_t</text>
</a>
</g>
</g>
<!-- Node4&#45;&gt;Node3 -->
<g id="edge3" class="edge">
<title>Node4&#45;&gt;Node3</title>
<path fill="none" stroke="#9a32cd" stroke-dasharray="5,2" d="M115,-146.04C115,-133.67 115,-118.12 115,-108.63"/>
<polygon fill="#9a32cd" stroke="#9a32cd" points="111.5,-146.23 115,-156.23 118.5,-146.23 111.5,-146.23"/>
<text text-anchor="middle" x="127.5" y="-130" font-family="Helvetica" font-size="10.00"> npos</text>
</g>
</g>
</svg>
