<?xml version="1.0" encoding="UTF-8" standalone="no"?>
<!DOCTYPE svg PUBLIC "-//W3C//DTD SVG 1.1//EN"
 "http://www.w3.org/Graphics/SVG/1.1/DTD/svg11.dtd">
<!-- Generated by graphviz version 2.44.0 (0)
 -->
<!-- Title: llvm::SubClassReference Pages: 1 -->
<svg width="1831pt" height="152pt"
 viewBox="0.00 0.00 1831.00 151.50" xmlns="http://www.w3.org/2000/svg" xmlns:xlink="http://www.w3.org/1999/xlink">
<g id="graph0" class="graph" transform="scale(1 1) rotate(0) translate(4 147.5)">
<title>llvm::SubClassReference</title>
<!-- Node1 -->
<g id="node1" class="node">
<title>Node1</title>
<g id="a_node1"><a xlink:title=" ">
<polygon fill="#bfbfbf" stroke="black" points="1695,-72.5 1695,-91.5 1823,-91.5 1823,-72.5 1695,-72.5"/>
<text text-anchor="middle" x="1759" y="-79.5" font-family="Helvetica" font-size="10.00">llvm::SubClassReference</text>
</a>
</g>
</g>
<!-- Node2 -->
<g id="node2" class="node">
<title>Node2</title>
<g id="a_node2"><a xlink:href="classllvm_1_1Record.html" target="_top" xlink:title=" ">
<polygon fill="none" stroke="black" points="1510,-116.5 1510,-135.5 1581,-135.5 1581,-116.5 1510,-116.5"/>
<text text-anchor="middle" x="1545.5" y="-123.5" font-family="Helvetica" font-size="10.00">llvm::Record</text>
</a>
</g>
</g>
<!-- Node2&#45;&gt;Node1 -->
<g id="edge1" class="edge">
<title>Node2&#45;&gt;Node1</title>
<path fill="none" stroke="#9a32cd" stroke-dasharray="5,2" d="M1591.53,-116.63C1627.1,-109.23 1676.55,-98.94 1712.3,-91.51"/>
<polygon fill="#9a32cd" stroke="#9a32cd" points="1590.5,-113.27 1581.42,-118.73 1591.93,-120.12 1590.5,-113.27"/>
<text text-anchor="middle" x="1645" y="-114" font-family="Helvetica" font-size="10.00"> Rec</text>
</g>
<!-- Node3 -->
<g id="node3" class="node">
<title>Node3</title>
<g id="a_node3"><a xlink:href="classllvm_1_1SmallVector.html" target="_top" xlink:title=" ">
<polygon fill="none" stroke="black" points="1496,-67 1496,-97 1595,-97 1595,-67 1496,-67"/>
<text text-anchor="start" x="1504" y="-85" font-family="Helvetica" font-size="10.00">llvm::SmallVector&lt;</text>
<text text-anchor="middle" x="1545.5" y="-74" font-family="Helvetica" font-size="10.00"> llvm::Init *, 4 &gt;</text>
</a>
</g>
</g>
<!-- Node3&#45;&gt;Node1 -->
<g id="edge2" class="edge">
<title>Node3&#45;&gt;Node1</title>
<path fill="none" stroke="#9a32cd" stroke-dasharray="5,2" d="M1605.04,-82C1632.94,-82 1666.37,-82 1694.85,-82"/>
<polygon fill="#9a32cd" stroke="#9a32cd" points="1605.02,-78.5 1595.02,-82 1605.02,-85.5 1605.02,-78.5"/>
<text text-anchor="middle" x="1645" y="-85" font-family="Helvetica" font-size="10.00"> TemplateArgs</text>
</g>
<!-- Node4 -->
<g id="node4" class="node">
<title>Node4</title>
<g id="a_node4"><a xlink:href="classllvm_1_1SmallVectorImpl.html" target="_top" xlink:title="This class consists of common code factored out of the SmallVector class to reduce code duplication b...">
<polygon fill="none" stroke="black" points="1098.5,-38.5 1098.5,-57.5 1234.5,-57.5 1234.5,-38.5 1098.5,-38.5"/>
<text text-anchor="middle" x="1166.5" y="-45.5" font-family="Helvetica" font-size="10.00">llvm::SmallVectorImpl&lt; T &gt;</text>
</a>
</g>
</g>
<!-- Node4&#45;&gt;Node3 -->
<g id="edge3" class="edge">
<title>Node4&#45;&gt;Node3</title>
<path fill="none" stroke="midnightblue" d="M1245.28,-55.01C1320.61,-61.81 1432.5,-71.9 1495.95,-77.62"/>
<polygon fill="midnightblue" stroke="midnightblue" points="1245.17,-51.49 1234.9,-54.08 1244.55,-58.46 1245.17,-51.49"/>
</g>
<!-- Node14 -->
<g id="node14" class="node">
<title>Node14</title>
<g id="a_node14"><a xlink:href="classllvm_1_1SmallVector.html" target="_top" xlink:title="This is a &#39;vector&#39; (really, a variable&#45;sized array), optimized for the case when the array is small.">
<polygon fill="none" stroke="black" points="1284,-77 1284,-107 1383,-107 1383,-77 1284,-77"/>
<text text-anchor="start" x="1292" y="-95" font-family="Helvetica" font-size="10.00">llvm::SmallVector&lt;</text>
<text text-anchor="middle" x="1333.5" y="-84" font-family="Helvetica" font-size="10.00"> T, N &gt;</text>
</a>
</g>
</g>
<!-- Node4&#45;&gt;Node14 -->
<g id="edge14" class="edge">
<title>Node4&#45;&gt;Node14</title>
<path fill="none" stroke="midnightblue" d="M1219.19,-59.96C1228.47,-62.22 1238.04,-64.62 1247,-67 1258.96,-70.18 1271.79,-73.81 1283.79,-77.3"/>
<polygon fill="midnightblue" stroke="midnightblue" points="1219.81,-56.51 1209.27,-57.57 1218.17,-63.31 1219.81,-56.51"/>
</g>
<!-- Node5 -->
<g id="node5" class="node">
<title>Node5</title>
<g id="a_node5"><a xlink:href="classllvm_1_1SmallVectorTemplateBase.html" target="_top" xlink:title="SmallVectorTemplateBase&lt;TriviallyCopyable = false&gt; &#45; This is where we put method implementations that...">
<polygon fill="none" stroke="black" points="800,-33 800,-63 933,-63 933,-33 800,-33"/>
<text text-anchor="start" x="808" y="-51" font-family="Helvetica" font-size="10.00">llvm::SmallVectorTemplate</text>
<text text-anchor="middle" x="866.5" y="-40" font-family="Helvetica" font-size="10.00">Base&lt; T, bool &gt;</text>
</a>
</g>
</g>
<!-- Node5&#45;&gt;Node4 -->
<g id="edge4" class="edge">
<title>Node5&#45;&gt;Node4</title>
<path fill="none" stroke="midnightblue" d="M943.56,-48C991.33,-48 1052.38,-48 1098.35,-48"/>
<polygon fill="midnightblue" stroke="midnightblue" points="943.27,-44.5 933.27,-48 943.27,-51.5 943.27,-44.5"/>
</g>
<!-- Node6 -->
<g id="node6" class="node">
<title>Node6</title>
<g id="a_node6"><a xlink:href="classllvm_1_1SmallVectorTemplateCommon.html" target="_top" xlink:title="This is the part of SmallVectorTemplateBase which does not depend on whether the type T is a POD.">
<polygon fill="none" stroke="black" points="537,-51 537,-81 670,-81 670,-51 537,-51"/>
<text text-anchor="start" x="545" y="-69" font-family="Helvetica" font-size="10.00">llvm::SmallVectorTemplate</text>
<text text-anchor="middle" x="603.5" y="-58" font-family="Helvetica" font-size="10.00">Common&lt; T, typename &gt;</text>
</a>
</g>
</g>
<!-- Node6&#45;&gt;Node5 -->
<g id="edge5" class="edge">
<title>Node6&#45;&gt;Node5</title>
<path fill="none" stroke="midnightblue" d="M680,-60.79C717.95,-58.18 763.49,-55.04 799.95,-52.52"/>
<polygon fill="midnightblue" stroke="midnightblue" points="679.76,-57.3 670.02,-61.48 680.24,-64.28 679.76,-57.3"/>
</g>
<!-- Node7 -->
<g id="node7" class="node">
<title>Node7</title>
<g id="a_node7"><a xlink:href="classllvm_1_1SmallVectorBase.html" target="_top" xlink:title=" ">
<polygon fill="none" stroke="black" points="382,-45.5 382,-86.5 500,-86.5 500,-45.5 382,-45.5"/>
<text text-anchor="start" x="390" y="-74.5" font-family="Helvetica" font-size="10.00">llvm::SmallVectorBase</text>
<text text-anchor="start" x="390" y="-63.5" font-family="Helvetica" font-size="10.00">&lt; SmallVectorSizeType</text>
<text text-anchor="middle" x="441" y="-52.5" font-family="Helvetica" font-size="10.00">&lt; T &gt; &gt;</text>
</a>
</g>
</g>
<!-- Node7&#45;&gt;Node6 -->
<g id="edge6" class="edge">
<title>Node7&#45;&gt;Node6</title>
<path fill="none" stroke="midnightblue" d="M510.52,-66C519.23,-66 528.14,-66 536.81,-66"/>
<polygon fill="midnightblue" stroke="midnightblue" points="510.4,-62.5 500.4,-66 510.4,-69.5 510.4,-62.5"/>
</g>
<!-- Node8 -->
<g id="node8" class="node">
<title>Node8</title>
<g id="a_node8"><a xlink:href="classllvm_1_1SmallVectorBase.html" target="_top" xlink:title="This is all the stuff common to all SmallVectors.">
<polygon fill="none" stroke="black" points="125,-51 125,-81 241,-81 241,-51 125,-51"/>
<text text-anchor="start" x="133" y="-69" font-family="Helvetica" font-size="10.00">llvm::SmallVectorBase</text>
<text text-anchor="middle" x="183" y="-58" font-family="Helvetica" font-size="10.00">&lt; Size_T &gt;</text>
</a>
</g>
</g>
<!-- Node8&#45;&gt;Node7 -->
<g id="edge7" class="edge">
<title>Node8&#45;&gt;Node7</title>
<path fill="none" stroke="orange" stroke-dasharray="5,2" d="M251.2,-66C291.74,-66 342.88,-66 381.71,-66"/>
<polygon fill="orange" stroke="orange" points="251.13,-62.5 241.13,-66 251.13,-69.5 251.13,-62.5"/>
<text text-anchor="start" x="259" y="-80" font-family="Helvetica" font-size="10.00"> &lt; SmallVectorSizeType</text>
<text text-anchor="middle" x="311.5" y="-69" font-family="Helvetica" font-size="10.00">&lt; T &gt; &gt;</text>
</g>
<!-- Node9 -->
<g id="node9" class="node">
<title>Node9</title>
<g id="a_node9"><a xlink:title=" ">
<polygon fill="none" stroke="#bfbfbf" points="0,-75.5 0,-94.5 47,-94.5 47,-75.5 0,-75.5"/>
<text text-anchor="middle" x="23.5" y="-82.5" font-family="Helvetica" font-size="10.00">Size_T</text>
</a>
</g>
</g>
<!-- Node9&#45;&gt;Node8 -->
<g id="edge8" class="edge">
<title>Node9&#45;&gt;Node8</title>
<path fill="none" stroke="#9a32cd" stroke-dasharray="5,2" d="M57.26,-81.05C76.78,-78.69 102.1,-75.64 124.82,-72.9"/>
<polygon fill="#9a32cd" stroke="#9a32cd" points="56.57,-77.61 47.07,-82.28 57.41,-84.55 56.57,-77.61"/>
<text text-anchor="middle" x="86" y="-93" font-family="Helvetica" font-size="10.00"> Capacity</text>
<text text-anchor="middle" x="86" y="-82" font-family="Helvetica" font-size="10.00">Size</text>
</g>
<!-- Node10 -->
<g id="node10" class="node">
<title>Node10</title>
<g id="a_node10"><a xlink:title=" ">
<polygon fill="none" stroke="#bfbfbf" points="3,-37.5 3,-56.5 44,-56.5 44,-37.5 3,-37.5"/>
<text text-anchor="middle" x="23.5" y="-44.5" font-family="Helvetica" font-size="10.00">void *</text>
</a>
</g>
</g>
<!-- Node10&#45;&gt;Node8 -->
<g id="edge9" class="edge">
<title>Node10&#45;&gt;Node8</title>
<path fill="none" stroke="#9a32cd" stroke-dasharray="5,2" d="M54.11,-50.57C73.98,-52.97 100.81,-56.21 124.76,-59.09"/>
<polygon fill="#9a32cd" stroke="#9a32cd" points="54.48,-47.09 44.13,-49.37 53.64,-54.04 54.48,-47.09"/>
<text text-anchor="middle" x="86" y="-60" font-family="Helvetica" font-size="10.00"> BeginX</text>
</g>
<!-- Node11 -->
<g id="node11" class="node">
<title>Node11</title>
<g id="a_node11"><a xlink:href="classbool.html" target="_top" xlink:title=" ">
<polygon fill="none" stroke="black" points="586,-12.5 586,-31.5 621,-31.5 621,-12.5 586,-12.5"/>
<text text-anchor="middle" x="603.5" y="-19.5" font-family="Helvetica" font-size="10.00">bool</text>
</a>
</g>
</g>
<!-- Node11&#45;&gt;Node5 -->
<g id="edge10" class="edge">
<title>Node11&#45;&gt;Node5</title>
<path fill="none" stroke="#9a32cd" stroke-dasharray="5,2" d="M631.42,-24.48C666.21,-27.7 728.64,-33.57 782,-39 787.8,-39.59 793.83,-40.22 799.87,-40.85"/>
<polygon fill="#9a32cd" stroke="#9a32cd" points="631.43,-20.96 621.15,-23.53 630.78,-27.93 631.43,-20.96"/>
<text text-anchor="middle" x="735" y="-42" font-family="Helvetica" font-size="10.00"> TakesParamByValue</text>
</g>
<!-- Node12 -->
<g id="node12" class="node">
<title>Node12</title>
<g id="a_node12"><a xlink:href="structllvm_1_1SmallVectorStorage.html" target="_top" xlink:title="Storage for the SmallVector elements.">
<polygon fill="none" stroke="black" points="803,-113 803,-143 930,-143 930,-113 803,-113"/>
<text text-anchor="start" x="811" y="-131" font-family="Helvetica" font-size="10.00">llvm::SmallVectorStorage</text>
<text text-anchor="middle" x="866.5" y="-120" font-family="Helvetica" font-size="10.00">&lt; T, N &gt;</text>
</a>
</g>
</g>
<!-- Node12&#45;&gt;Node3 -->
<g id="edge11" class="edge">
<title>Node12&#45;&gt;Node3</title>
<path fill="none" stroke="#8b1a1a" d="M940.48,-131.7C944.04,-131.82 947.56,-131.92 951,-132 1143.06,-136.6 1192.04,-138.06 1383,-117 1425.42,-112.32 1436.41,-112.57 1478,-103 1485.32,-101.32 1492.99,-99.22 1500.42,-97"/>
<polygon fill="#8b1a1a" stroke="#8b1a1a" points="940.53,-128.2 930.41,-131.34 940.27,-135.19 940.53,-128.2"/>
</g>
<!-- Node15 -->
<g id="node15" class="node">
<title>Node15</title>
<g id="a_node15"><a xlink:href="structllvm_1_1SmallVectorStorage.html" target="_top" xlink:title=" ">
<polygon fill="none" stroke="black" points="1086,-76.5 1086,-117.5 1247,-117.5 1247,-76.5 1086,-76.5"/>
<text text-anchor="start" x="1094" y="-105.5" font-family="Helvetica" font-size="10.00">llvm::SmallVectorStorage</text>
<text text-anchor="start" x="1094" y="-94.5" font-family="Helvetica" font-size="10.00">&lt; T, CalculateSmallVectorDefault</text>
<text text-anchor="middle" x="1166.5" y="-83.5" font-family="Helvetica" font-size="10.00">InlinedElements&lt; T &gt;::value &gt;</text>
</a>
</g>
</g>
<!-- Node12&#45;&gt;Node15 -->
<g id="edge16" class="edge">
<title>Node12&#45;&gt;Node15</title>
<path fill="none" stroke="orange" stroke-dasharray="5,2" d="M912.2,-109.49C924.56,-105.2 938.11,-101.24 951,-99 995.22,-91.33 1045.33,-90.44 1086,-91.64"/>
<polygon fill="orange" stroke="orange" points="910.79,-106.27 902.58,-112.97 913.18,-112.85 910.79,-106.27"/>
<text text-anchor="start" x="951" y="-124" font-family="Helvetica" font-size="10.00"> &lt; T, CalculateSmallVector</text>
<text text-anchor="start" x="951" y="-113" font-family="Helvetica" font-size="10.00">DefaultInlinedElements</text>
<text text-anchor="middle" x="1009.5" y="-102" font-family="Helvetica" font-size="10.00">&lt; T &gt;::value &gt;</text>
</g>
<!-- Node13 -->
<g id="node13" class="node">
<title>Node13</title>
<g id="a_node13"><a xlink:title=" ">
<polygon fill="none" stroke="#bfbfbf" points="586,-118.5 586,-137.5 621,-137.5 621,-118.5 586,-118.5"/>
<text text-anchor="middle" x="603.5" y="-125.5" font-family="Helvetica" font-size="10.00">char</text>
</a>
</g>
</g>
<!-- Node13&#45;&gt;Node12 -->
<g id="edge12" class="edge">
<title>Node13&#45;&gt;Node12</title>
<path fill="none" stroke="#9a32cd" stroke-dasharray="5,2" d="M631.28,-128C671.37,-128 748.12,-128 802.84,-128"/>
<polygon fill="#9a32cd" stroke="#9a32cd" points="631.22,-124.5 621.22,-128 631.22,-131.5 631.22,-124.5"/>
<text text-anchor="middle" x="735" y="-131" font-family="Helvetica" font-size="10.00"> InlineElts</text>
</g>
<!-- Node14&#45;&gt;Node3 -->
<g id="edge13" class="edge">
<title>Node14&#45;&gt;Node3</title>
<path fill="none" stroke="orange" stroke-dasharray="5,2" d="M1393.41,-89.19C1425.67,-87.66 1465.17,-85.78 1495.69,-84.32"/>
<polygon fill="orange" stroke="orange" points="1393.03,-85.71 1383.21,-89.68 1393.36,-92.7 1393.03,-85.71"/>
<text text-anchor="middle" x="1439.5" y="-91" font-family="Helvetica" font-size="10.00"> &lt; llvm::Init *, 4 &gt;</text>
</g>
<!-- Node15&#45;&gt;Node14 -->
<g id="edge15" class="edge">
<title>Node15&#45;&gt;Node14</title>
<path fill="none" stroke="#8b1a1a" d="M1257.37,-94.28C1266.45,-94 1275.4,-93.73 1283.79,-93.48"/>
<polygon fill="#8b1a1a" stroke="#8b1a1a" points="1256.99,-90.79 1247.1,-94.59 1257.2,-97.78 1256.99,-90.79"/>
</g>
<!-- Node16 -->
<g id="node16" class="node">
<title>Node16</title>
<g id="a_node16"><a xlink:href="classllvm_1_1SMRange.html" target="_top" xlink:title="Represents a range in source code.">
<polygon fill="none" stroke="black" points="1504,-19.5 1504,-38.5 1587,-38.5 1587,-19.5 1504,-19.5"/>
<text text-anchor="middle" x="1545.5" y="-26.5" font-family="Helvetica" font-size="10.00">llvm::SMRange</text>
</a>
</g>
</g>
<!-- Node16&#45;&gt;Node1 -->
<g id="edge17" class="edge">
<title>Node16&#45;&gt;Node1</title>
<path fill="none" stroke="#9a32cd" stroke-dasharray="5,2" d="M1594.62,-41.06C1632.61,-50.58 1684.89,-63.68 1719.98,-72.47"/>
<polygon fill="#9a32cd" stroke="#9a32cd" points="1595.35,-37.63 1584.8,-38.6 1593.65,-44.42 1595.35,-37.63"/>
<text text-anchor="middle" x="1645" y="-64" font-family="Helvetica" font-size="10.00"> RefRange</text>
</g>
<!-- Node17 -->
<g id="node17" class="node">
<title>Node17</title>
<g id="a_node17"><a xlink:href="classllvm_1_1SMLoc.html" target="_top" xlink:title="Represents a location in source code.">
<polygon fill="none" stroke="black" points="1298,-0.5 1298,-19.5 1369,-19.5 1369,-0.5 1298,-0.5"/>
<text text-anchor="middle" x="1333.5" y="-7.5" font-family="Helvetica" font-size="10.00">llvm::SMLoc</text>
</a>
</g>
</g>
<!-- Node17&#45;&gt;Node16 -->
<g id="edge18" class="edge">
<title>Node17&#45;&gt;Node16</title>
<path fill="none" stroke="#9a32cd" stroke-dasharray="5,2" d="M1379.2,-7.92C1407.62,-7.26 1445.11,-7.63 1478,-12 1489.69,-13.55 1502.29,-16.45 1513.34,-19.41"/>
<polygon fill="#9a32cd" stroke="#9a32cd" points="1379.07,-4.42 1369.17,-8.2 1379.27,-11.42 1379.07,-4.42"/>
<text text-anchor="middle" x="1439.5" y="-26" font-family="Helvetica" font-size="10.00"> End</text>
<text text-anchor="middle" x="1439.5" y="-15" font-family="Helvetica" font-size="10.00">Start</text>
</g>
</g>
</svg>
