<?xml version="1.0" encoding="UTF-8" standalone="no"?>
<!DOCTYPE svg PUBLIC "-//W3C//DTD SVG 1.1//EN"
 "http://www.w3.org/Graphics/SVG/1.1/DTD/svg11.dtd">
<!-- Generated by graphviz version 2.44.0 (0)
 -->
<!-- Title: AMDGPUPostLegalizerCombinerHelper::CvtF32UByteMatchInfo Pages: 1 -->
<svg width="170pt" height="106pt"
 viewBox="0.00 0.00 170.00 106.00" xmlns="http://www.w3.org/2000/svg" xmlns:xlink="http://www.w3.org/1999/xlink">
<g id="graph0" class="graph" transform="scale(1 1) rotate(0) translate(4 102)">
<title>AMDGPUPostLegalizerCombinerHelper::CvtF32UByteMatchInfo</title>
<!-- Node1 -->
<g id="node1" class="node">
<title>Node1</title>
<g id="a_node1"><a xlink:title=" ">
<polygon fill="#bfbfbf" stroke="black" points="0,-0.5 0,-30.5 161,-30.5 161,-0.5 0,-0.5"/>
<text text-anchor="start" x="8" y="-18.5" font-family="Helvetica" font-size="10.00">AMDGPUPostLegalizerCombiner</text>
<text text-anchor="middle" x="80.5" y="-7.5" font-family="Helvetica" font-size="10.00">Helper::CvtF32UByteMatchInfo</text>
</a>
</g>
</g>
<!-- Node2 -->
<g id="node2" class="node">
<title>Node2</title>
<g id="a_node2"><a xlink:href="classunsigned.html" target="_top" xlink:title=" ">
<polygon fill="none" stroke="black" points="10.5,-78.5 10.5,-97.5 66.5,-97.5 66.5,-78.5 10.5,-78.5"/>
<text text-anchor="middle" x="38.5" y="-85.5" font-family="Helvetica" font-size="10.00">unsigned</text>
</a>
</g>
</g>
<!-- Node2&#45;&gt;Node1 -->
<g id="edge1" class="edge">
<title>Node2&#45;&gt;Node1</title>
<path fill="none" stroke="#9a32cd" stroke-dasharray="5,2" d="M43.18,-68.56C45.23,-62.13 47.98,-55.02 51.5,-49 55.32,-42.47 60.58,-36.08 65.57,-30.72"/>
<polygon fill="#9a32cd" stroke="#9a32cd" points="39.74,-67.86 40.39,-78.43 46.48,-69.76 39.74,-67.86"/>
<text text-anchor="middle" x="76.5" y="-52" font-family="Helvetica" font-size="10.00"> ShiftOffset</text>
</g>
<!-- Node3 -->
<g id="node3" class="node">
<title>Node3</title>
<g id="a_node3"><a xlink:href="classllvm_1_1Register.html" target="_top" xlink:title="Wrapper class representing virtual and physical registers.">
<polygon fill="none" stroke="black" points="85,-78.5 85,-97.5 162,-97.5 162,-78.5 85,-78.5"/>
<text text-anchor="middle" x="123.5" y="-85.5" font-family="Helvetica" font-size="10.00">llvm::Register</text>
</a>
</g>
</g>
<!-- Node3&#45;&gt;Node1 -->
<g id="edge2" class="edge">
<title>Node3&#45;&gt;Node1</title>
<path fill="none" stroke="#9a32cd" stroke-dasharray="5,2" d="M113.76,-69.77C110,-63.22 105.62,-55.73 101.5,-49 97.78,-42.93 93.54,-36.31 89.85,-30.64"/>
<polygon fill="#9a32cd" stroke="#9a32cd" points="110.73,-71.52 118.72,-78.48 116.81,-68.06 110.73,-71.52"/>
<text text-anchor="middle" x="124" y="-52" font-family="Helvetica" font-size="10.00"> CvtVal</text>
</g>
</g>
</svg>
