<?xml version="1.0" encoding="UTF-8" standalone="no"?>
<!DOCTYPE svg PUBLIC "-//W3C//DTD SVG 1.1//EN"
 "http://www.w3.org/Graphics/SVG/1.1/DTD/svg11.dtd">
<!-- Generated by graphviz version 2.44.0 (0)
 -->
<!-- Title: llvm::orc::TargetProcessControl::LookupRequest Pages: 1 -->
<svg width="218pt" height="106pt"
 viewBox="0.00 0.00 217.50 106.00" xmlns="http://www.w3.org/2000/svg" xmlns:xlink="http://www.w3.org/1999/xlink">
<g id="graph0" class="graph" transform="scale(1 1) rotate(0) translate(4 102)">
<title>llvm::orc::TargetProcessControl::LookupRequest</title>
<!-- Node1 -->
<g id="node1" class="node">
<title>Node1</title>
<g id="a_node1"><a xlink:title="A pair of a dylib and a set of symbols to be looked up.">
<polygon fill="#bfbfbf" stroke="black" points="21,-0.5 21,-30.5 144,-30.5 144,-0.5 21,-0.5"/>
<text text-anchor="start" x="29" y="-18.5" font-family="Helvetica" font-size="10.00">llvm::orc::TargetProcess</text>
<text text-anchor="middle" x="82.5" y="-7.5" font-family="Helvetica" font-size="10.00">Control::LookupRequest</text>
</a>
</g>
</g>
<!-- Node2 -->
<g id="node2" class="node">
<title>Node2</title>
<g id="a_node2"><a xlink:title=" ">
<polygon fill="none" stroke="#bfbfbf" points="0,-78.5 0,-97.5 51,-97.5 51,-78.5 0,-78.5"/>
<text text-anchor="middle" x="25.5" y="-85.5" font-family="Helvetica" font-size="10.00">uint64_t</text>
</a>
</g>
</g>
<!-- Node2&#45;&gt;Node1 -->
<g id="edge1" class="edge">
<title>Node2&#45;&gt;Node1</title>
<path fill="none" stroke="#9a32cd" stroke-dasharray="5,2" d="M38.93,-70.39C48.72,-58.28 61.84,-42.05 71.12,-30.58"/>
<polygon fill="#9a32cd" stroke="#9a32cd" points="36.05,-68.38 32.49,-78.36 41.5,-72.78 36.05,-68.38"/>
<text text-anchor="middle" x="73.5" y="-52" font-family="Helvetica" font-size="10.00"> Handle</text>
</g>
<!-- Node3 -->
<g id="node3" class="node">
<title>Node3</title>
<g id="a_node3"><a xlink:href="classllvm_1_1orc_1_1SymbolLookupSet.html" target="_top" xlink:title="A set of symbols to look up, each associated with a SymbolLookupFlags value.">
<polygon fill="none" stroke="black" points="69.5,-78.5 69.5,-97.5 209.5,-97.5 209.5,-78.5 69.5,-78.5"/>
<text text-anchor="middle" x="139.5" y="-85.5" font-family="Helvetica" font-size="10.00">llvm::orc::SymbolLookupSet</text>
</a>
</g>
</g>
<!-- Node3&#45;&gt;Node1 -->
<g id="edge2" class="edge">
<title>Node3&#45;&gt;Node1</title>
<path fill="none" stroke="#9a32cd" stroke-dasharray="5,2" d="M126.07,-70.39C116.28,-58.28 103.16,-42.05 93.88,-30.58"/>
<polygon fill="#9a32cd" stroke="#9a32cd" points="123.5,-72.78 132.51,-78.36 128.95,-68.38 123.5,-72.78"/>
<text text-anchor="middle" x="136.5" y="-52" font-family="Helvetica" font-size="10.00"> Symbols</text>
</g>
</g>
</svg>
