<?xml version="1.0" encoding="UTF-8" standalone="no"?>
<!DOCTYPE svg PUBLIC "-//W3C//DTD SVG 1.1//EN"
 "http://www.w3.org/Graphics/SVG/1.1/DTD/svg11.dtd">
<!-- Generated by graphviz version 2.44.0 (0)
 -->
<!-- Title: llvm::wasm::WasmDataReference Pages: 1 -->
<svg width="172pt" height="106pt"
 viewBox="0.00 0.00 172.00 106.00" xmlns="http://www.w3.org/2000/svg" xmlns:xlink="http://www.w3.org/1999/xlink">
<g id="graph0" class="graph" transform="scale(1 1) rotate(0) translate(4 102)">
<title>llvm::wasm::WasmDataReference</title>
<!-- Node1 -->
<g id="node1" class="node">
<title>Node1</title>
<g id="a_node1"><a xlink:title=" ">
<polygon fill="#bfbfbf" stroke="black" points="0,-0.5 0,-19.5 164,-19.5 164,-0.5 0,-0.5"/>
<text text-anchor="middle" x="82" y="-7.5" font-family="Helvetica" font-size="10.00">llvm::wasm::WasmDataReference</text>
</a>
</g>
</g>
<!-- Node2 -->
<g id="node2" class="node">
<title>Node2</title>
<g id="a_node2"><a xlink:title=" ">
<polygon fill="none" stroke="#bfbfbf" points="22.5,-78.5 22.5,-97.5 73.5,-97.5 73.5,-78.5 22.5,-78.5"/>
<text text-anchor="middle" x="48" y="-85.5" font-family="Helvetica" font-size="10.00">uint64_t</text>
</a>
</g>
</g>
<!-- Node2&#45;&gt;Node1 -->
<g id="edge1" class="edge">
<title>Node2&#45;&gt;Node1</title>
<path fill="none" stroke="#9a32cd" stroke-dasharray="5,2" d="M53.28,-68.63C56.24,-59.26 60.29,-47.8 65,-38 68.07,-31.61 72.32,-24.86 75.8,-19.71"/>
<polygon fill="#9a32cd" stroke="#9a32cd" points="49.85,-67.86 50.32,-78.44 56.56,-69.88 49.85,-67.86"/>
<text text-anchor="middle" x="80" y="-52" font-family="Helvetica" font-size="10.00"> Offset</text>
<text text-anchor="middle" x="80" y="-41" font-family="Helvetica" font-size="10.00">Size</text>
</g>
<!-- Node3 -->
<g id="node3" class="node">
<title>Node3</title>
<g id="a_node3"><a xlink:href="classuint32__t.html" target="_top" xlink:title=" ">
<polygon fill="none" stroke="black" points="91.5,-78.5 91.5,-97.5 142.5,-97.5 142.5,-78.5 91.5,-78.5"/>
<text text-anchor="middle" x="117" y="-85.5" font-family="Helvetica" font-size="10.00">uint32_t</text>
</a>
</g>
</g>
<!-- Node3&#45;&gt;Node1 -->
<g id="edge2" class="edge">
<title>Node3&#45;&gt;Node1</title>
<path fill="none" stroke="#9a32cd" stroke-dasharray="5,2" d="M109.03,-68.94C104.9,-59.66 99.74,-48.2 95,-38 92.19,-31.96 88.94,-25.21 86.39,-19.97"/>
<polygon fill="#9a32cd" stroke="#9a32cd" points="105.92,-70.57 113.18,-78.29 112.32,-67.73 105.92,-70.57"/>
<text text-anchor="middle" x="125.5" y="-46.5" font-family="Helvetica" font-size="10.00"> Segment</text>
</g>
</g>
</svg>
