<?xml version="1.0" encoding="UTF-8" standalone="no"?>
<!DOCTYPE svg PUBLIC "-//W3C//DTD SVG 1.1//EN"
 "http://www.w3.org/Graphics/SVG/1.1/DTD/svg11.dtd">
<!-- Generated by graphviz version 2.44.0 (0)
 -->
<!-- Title: llvm::gsym::Header Pages: 1 -->
<svg width="323pt" height="128pt"
 viewBox="0.00 0.00 322.50 128.00" xmlns="http://www.w3.org/2000/svg" xmlns:xlink="http://www.w3.org/1999/xlink">
<g id="graph0" class="graph" transform="scale(1 1) rotate(0) translate(4 124)">
<title>llvm::gsym::Header</title>
<!-- Node1 -->
<g id="node1" class="node">
<title>Node1</title>
<g id="a_node1"><a xlink:title="The GSYM header.">
<polygon fill="#bfbfbf" stroke="black" points="92,-0.5 92,-19.5 193,-19.5 193,-0.5 92,-0.5"/>
<text text-anchor="middle" x="142.5" y="-7.5" font-family="Helvetica" font-size="10.00">llvm::gsym::Header</text>
</a>
</g>
</g>
<!-- Node2 -->
<g id="node2" class="node">
<title>Node2</title>
<g id="a_node2"><a xlink:title=" ">
<polygon fill="none" stroke="#bfbfbf" points="0,-100.5 0,-119.5 51,-119.5 51,-100.5 0,-100.5"/>
<text text-anchor="middle" x="25.5" y="-107.5" font-family="Helvetica" font-size="10.00">uint64_t</text>
</a>
</g>
</g>
<!-- Node2&#45;&gt;Node1 -->
<g id="edge1" class="edge">
<title>Node2&#45;&gt;Node1</title>
<path fill="none" stroke="#9a32cd" stroke-dasharray="5,2" d="M23.46,-90.07C22.84,-74.19 24.7,-51.92 37.5,-38 51.32,-22.96 72.29,-15.82 91.86,-12.59"/>
<polygon fill="#9a32cd" stroke="#9a32cd" points="19.99,-90.59 24.22,-100.3 26.97,-90.06 19.99,-90.59"/>
<text text-anchor="middle" x="68.5" y="-57.5" font-family="Helvetica" font-size="10.00"> BaseAddress</text>
</g>
<!-- Node3 -->
<g id="node3" class="node">
<title>Node3</title>
<g id="a_node3"><a xlink:title=" ">
<polygon fill="none" stroke="#bfbfbf" points="82,-100.5 82,-119.5 133,-119.5 133,-100.5 82,-100.5"/>
<text text-anchor="middle" x="107.5" y="-107.5" font-family="Helvetica" font-size="10.00">uint16_t</text>
</a>
</g>
</g>
<!-- Node3&#45;&gt;Node1 -->
<g id="edge2" class="edge">
<title>Node3&#45;&gt;Node1</title>
<path fill="none" stroke="#9a32cd" stroke-dasharray="5,2" d="M104.71,-90.1C103.39,-75.18 103.54,-54.26 111.5,-38 115.14,-30.56 121.85,-24.32 128.09,-19.72"/>
<polygon fill="#9a32cd" stroke="#9a32cd" points="101.25,-90.63 105.9,-100.15 108.2,-89.81 101.25,-90.63"/>
<text text-anchor="middle" x="130" y="-57.5" font-family="Helvetica" font-size="10.00"> Version</text>
</g>
<!-- Node4 -->
<g id="node4" class="node">
<title>Node4</title>
<g id="a_node4"><a xlink:href="classuint32__t.html" target="_top" xlink:title=" ">
<polygon fill="none" stroke="black" points="151,-100.5 151,-119.5 202,-119.5 202,-100.5 151,-100.5"/>
<text text-anchor="middle" x="176.5" y="-107.5" font-family="Helvetica" font-size="10.00">uint32_t</text>
</a>
</g>
</g>
<!-- Node4&#45;&gt;Node1 -->
<g id="edge3" class="edge">
<title>Node4&#45;&gt;Node1</title>
<path fill="none" stroke="#9a32cd" stroke-dasharray="5,2" d="M170.19,-90.81C162.82,-69.57 150.95,-35.36 145.46,-19.54"/>
<polygon fill="#9a32cd" stroke="#9a32cd" points="166.9,-92 173.48,-100.3 173.51,-89.71 166.9,-92"/>
<text text-anchor="middle" x="199.5" y="-74" font-family="Helvetica" font-size="10.00"> Magic</text>
<text text-anchor="middle" x="199.5" y="-63" font-family="Helvetica" font-size="10.00">NumAddresses</text>
<text text-anchor="middle" x="199.5" y="-52" font-family="Helvetica" font-size="10.00">StrtabOffset</text>
<text text-anchor="middle" x="199.5" y="-41" font-family="Helvetica" font-size="10.00">StrtabSize</text>
</g>
<!-- Node5 -->
<g id="node5" class="node">
<title>Node5</title>
<g id="a_node5"><a xlink:title=" ">
<polygon fill="none" stroke="#bfbfbf" points="242.5,-100.5 242.5,-119.5 288.5,-119.5 288.5,-100.5 242.5,-100.5"/>
<text text-anchor="middle" x="265.5" y="-107.5" font-family="Helvetica" font-size="10.00">uint8_t</text>
</a>
</g>
</g>
<!-- Node5&#45;&gt;Node1 -->
<g id="edge4" class="edge">
<title>Node5&#45;&gt;Node1</title>
<path fill="none" stroke="#9a32cd" stroke-dasharray="5,2" d="M262.83,-90.3C259.57,-74.24 252.5,-51.59 237.5,-38 225.3,-26.95 208.89,-20.39 193.15,-16.51"/>
<polygon fill="#9a32cd" stroke="#9a32cd" points="259.38,-90.91 264.53,-100.17 266.28,-89.72 259.38,-90.91"/>
<text text-anchor="middle" x="287" y="-68.5" font-family="Helvetica" font-size="10.00"> AddrOffSize</text>
<text text-anchor="middle" x="287" y="-57.5" font-family="Helvetica" font-size="10.00">UUID</text>
<text text-anchor="middle" x="287" y="-46.5" font-family="Helvetica" font-size="10.00">UUIDSize</text>
</g>
</g>
</svg>
