<?xml version="1.0" encoding="UTF-8" standalone="no"?>
<!DOCTYPE svg PUBLIC "-//W3C//DTD SVG 1.1//EN"
 "http://www.w3.org/Graphics/SVG/1.1/DTD/svg11.dtd">
<!-- Generated by graphviz version 2.44.0 (0)
 -->
<!-- Title: llvm::DOTGraphTraits&lt; BlockFrequencyInfo * &gt; Pages: 1 -->
<svg width="238pt" height="163pt"
 viewBox="0.00 0.00 237.50 163.00" xmlns="http://www.w3.org/2000/svg" xmlns:xlink="http://www.w3.org/1999/xlink">
<g id="graph0" class="graph" transform="scale(1 1) rotate(0) translate(4 159)">
<title>llvm::DOTGraphTraits&lt; BlockFrequencyInfo * &gt;</title>
<!-- Node1 -->
<g id="node1" class="node">
<title>Node1</title>
<g id="a_node1"><a xlink:title=" ">
<polygon fill="#bfbfbf" stroke="black" points="64.5,-0.5 64.5,-30.5 192.5,-30.5 192.5,-0.5 64.5,-0.5"/>
<text text-anchor="start" x="72.5" y="-18.5" font-family="Helvetica" font-size="10.00">llvm::DOTGraphTraits</text>
<text text-anchor="middle" x="128.5" y="-7.5" font-family="Helvetica" font-size="10.00">&lt; BlockFrequencyInfo * &gt;</text>
</a>
</g>
</g>
<!-- Node2 -->
<g id="node2" class="node">
<title>Node2</title>
<g id="a_node2"><a xlink:href="structllvm_1_1BFIDOTGraphTraitsBase.html" target="_top" xlink:title=" ">
<polygon fill="none" stroke="black" points="75,-68.5 75,-87.5 182,-87.5 182,-68.5 75,-68.5"/>
<text text-anchor="middle" x="128.5" y="-75.5" font-family="Helvetica" font-size="10.00">BFIDOTGTraitsBase</text>
</a>
</g>
</g>
<!-- Node2&#45;&gt;Node1 -->
<g id="edge1" class="edge">
<title>Node2&#45;&gt;Node1</title>
<path fill="none" stroke="midnightblue" d="M128.5,-58.22C128.5,-49.36 128.5,-38.96 128.5,-30.76"/>
<polygon fill="midnightblue" stroke="midnightblue" points="125,-58.33 128.5,-68.33 132,-58.33 125,-58.33"/>
</g>
<!-- Node3 -->
<g id="node3" class="node">
<title>Node3</title>
<g id="a_node3"><a xlink:href="structllvm_1_1DefaultDOTGraphTraits.html" target="_top" xlink:title="DefaultDOTGraphTraits &#45; This class provides the default implementations of all of the DOTGraphTraits ...">
<polygon fill="none" stroke="black" points="0,-135.5 0,-154.5 143,-154.5 143,-135.5 0,-135.5"/>
<text text-anchor="middle" x="71.5" y="-142.5" font-family="Helvetica" font-size="10.00">llvm::DefaultDOTGraphTraits</text>
</a>
</g>
</g>
<!-- Node3&#45;&gt;Node2 -->
<g id="edge2" class="edge">
<title>Node3&#45;&gt;Node2</title>
<path fill="none" stroke="midnightblue" d="M85.85,-127.63C97,-114.92 112.02,-97.8 120.93,-87.63"/>
<polygon fill="midnightblue" stroke="midnightblue" points="83.15,-125.41 79.19,-135.23 88.41,-130.02 83.15,-125.41"/>
</g>
<!-- Node4 -->
<g id="node4" class="node">
<title>Node4</title>
<g id="a_node4"><a xlink:title=" ">
<polygon fill="none" stroke="#bfbfbf" points="161,-135.5 161,-154.5 212,-154.5 212,-135.5 161,-135.5"/>
<text text-anchor="middle" x="186.5" y="-142.5" font-family="Helvetica" font-size="10.00">uint64_t</text>
</a>
</g>
</g>
<!-- Node4&#45;&gt;Node2 -->
<g id="edge3" class="edge">
<title>Node4&#45;&gt;Node2</title>
<path fill="none" stroke="#9a32cd" stroke-dasharray="5,2" d="M171.9,-127.63C160.55,-114.92 145.27,-97.8 136.2,-87.63"/>
<polygon fill="#9a32cd" stroke="#9a32cd" points="169.41,-130.1 178.68,-135.23 174.63,-125.44 169.41,-130.1"/>
<text text-anchor="middle" x="195" y="-109" font-family="Helvetica" font-size="10.00"> MaxFrequency</text>
</g>
</g>
</svg>
