<?xml version="1.0" encoding="UTF-8" standalone="no"?>
<!DOCTYPE svg PUBLIC "-//W3C//DTD SVG 1.1//EN"
 "http://www.w3.org/Graphics/SVG/1.1/DTD/svg11.dtd">
<!-- Generated by graphviz version 2.44.0 (0)
 -->
<!-- Title: llvm::DiagnosticHandler Pages: 1 -->
<svg width="248pt" height="95pt"
 viewBox="0.00 0.00 248.00 95.00" xmlns="http://www.w3.org/2000/svg" xmlns:xlink="http://www.w3.org/1999/xlink">
<g id="graph0" class="graph" transform="scale(1 1) rotate(0) translate(4 91)">
<title>llvm::DiagnosticHandler</title>
<!-- Node1 -->
<g id="node1" class="node">
<title>Node1</title>
<g id="a_node1"><a xlink:title="This is the base class for diagnostic handling in LLVM.">
<polygon fill="#bfbfbf" stroke="black" points="50.5,-0.5 50.5,-19.5 171.5,-19.5 171.5,-0.5 50.5,-0.5"/>
<text text-anchor="middle" x="111" y="-7.5" font-family="Helvetica" font-size="10.00">llvm::DiagnosticHandler</text>
</a>
</g>
</g>
<!-- Node2 -->
<g id="node2" class="node">
<title>Node2</title>
<g id="a_node2"><a xlink:href="classllvm_1_1DiagnosticInfo.html" target="_top" xlink:title="This is the base abstract class for diagnostic reporting in the backend.">
<polygon fill="none" stroke="black" points="0,-67.5 0,-86.5 104,-86.5 104,-67.5 0,-67.5"/>
<text text-anchor="middle" x="52" y="-74.5" font-family="Helvetica" font-size="10.00">llvm::DiagnosticInfo</text>
</a>
</g>
</g>
<!-- Node2&#45;&gt;Node1 -->
<g id="edge1" class="edge">
<title>Node2&#45;&gt;Node1</title>
<path fill="none" stroke="#9a32cd" stroke-dasharray="5,2" d="M48.64,-57.25C48.41,-50.69 49.34,-43.58 53,-38 58.61,-29.46 67.67,-23.57 76.99,-19.53"/>
<polygon fill="#9a32cd" stroke="#9a32cd" points="45.18,-57.86 49.81,-67.39 52.14,-57.05 45.18,-57.86"/>
<text text-anchor="middle" x="100.5" y="-41" font-family="Helvetica" font-size="10.00"> DiagHandlerCallback</text>
</g>
<!-- Node3 -->
<g id="node3" class="node">
<title>Node3</title>
<g id="a_node3"><a xlink:title=" ">
<polygon fill="none" stroke="#bfbfbf" points="149.5,-67.5 149.5,-86.5 190.5,-86.5 190.5,-67.5 149.5,-67.5"/>
<text text-anchor="middle" x="170" y="-74.5" font-family="Helvetica" font-size="10.00">void *</text>
</a>
</g>
</g>
<!-- Node3&#45;&gt;Node1 -->
<g id="edge2" class="edge">
<title>Node3&#45;&gt;Node1</title>
<path fill="none" stroke="#9a32cd" stroke-dasharray="5,2" d="M161.77,-58.37C158.12,-51.58 153.41,-44.02 148,-38 141.51,-30.79 132.8,-24.32 125.47,-19.52"/>
<polygon fill="#9a32cd" stroke="#9a32cd" points="158.74,-60.12 166.34,-67.49 165,-56.98 158.74,-60.12"/>
<text text-anchor="middle" x="197.5" y="-41" font-family="Helvetica" font-size="10.00"> DiagnosticContext</text>
</g>
</g>
</svg>
