<?xml version="1.0" encoding="UTF-8" standalone="no"?>
<!DOCTYPE svg PUBLIC "-//W3C//DTD SVG 1.1//EN"
 "http://www.w3.org/Graphics/SVG/1.1/DTD/svg11.dtd">
<!-- Generated by graphviz version 2.44.0 (0)
 -->
<!-- Title: llvm::MachOYAML::RebaseOpcode Pages: 1 -->
<svg width="290pt" height="95pt"
 viewBox="0.00 0.00 289.50 95.00" xmlns="http://www.w3.org/2000/svg" xmlns:xlink="http://www.w3.org/1999/xlink">
<g id="graph0" class="graph" transform="scale(1 1) rotate(0) translate(4 91)">
<title>llvm::MachOYAML::RebaseOpcode</title>
<!-- Node1 -->
<g id="node1" class="node">
<title>Node1</title>
<g id="a_node1"><a xlink:title=" ">
<polygon fill="#bfbfbf" stroke="black" points="71.5,-0.5 71.5,-19.5 242.5,-19.5 242.5,-0.5 71.5,-0.5"/>
<text text-anchor="middle" x="157" y="-7.5" font-family="Helvetica" font-size="10.00">llvm::MachOYAML::RebaseOpcode</text>
</a>
</g>
</g>
<!-- Node2 -->
<g id="node2" class="node">
<title>Node2</title>
<g id="a_node2"><a xlink:title=" ">
<polygon fill="none" stroke="#bfbfbf" points="0,-67.5 0,-86.5 116,-86.5 116,-67.5 0,-67.5"/>
<text text-anchor="middle" x="58" y="-74.5" font-family="Helvetica" font-size="10.00">vector&lt; yaml::Hex64 &gt;</text>
</a>
</g>
</g>
<!-- Node2&#45;&gt;Node1 -->
<g id="edge1" class="edge">
<title>Node2&#45;&gt;Node1</title>
<path fill="none" stroke="#9a32cd" stroke-dasharray="5,2" d="M75.6,-60.79C84.44,-53.5 95.48,-44.87 106,-38 116.4,-31.21 128.69,-24.66 138.6,-19.72"/>
<polygon fill="#9a32cd" stroke="#9a32cd" points="73.29,-58.17 67.89,-67.28 77.8,-63.52 73.29,-58.17"/>
<text text-anchor="middle" x="129.5" y="-41" font-family="Helvetica" font-size="10.00"> ExtraData</text>
</g>
<!-- Node3 -->
<g id="node3" class="node">
<title>Node3</title>
<g id="a_node3"><a xlink:title=" ">
<polygon fill="none" stroke="#bfbfbf" points="134,-67.5 134,-86.5 180,-86.5 180,-67.5 134,-67.5"/>
<text text-anchor="middle" x="157" y="-74.5" font-family="Helvetica" font-size="10.00">uint8_t</text>
</a>
</g>
</g>
<!-- Node3&#45;&gt;Node1 -->
<g id="edge2" class="edge">
<title>Node3&#45;&gt;Node1</title>
<path fill="none" stroke="#9a32cd" stroke-dasharray="5,2" d="M157,-57.04C157,-44.67 157,-29.12 157,-19.63"/>
<polygon fill="#9a32cd" stroke="#9a32cd" points="153.5,-57.23 157,-67.23 160.5,-57.23 153.5,-57.23"/>
<text text-anchor="middle" x="168.5" y="-41" font-family="Helvetica" font-size="10.00"> Imm</text>
</g>
<!-- Node4 -->
<g id="node4" class="node">
<title>Node4</title>
<g id="a_node4"><a xlink:title=" ">
<polygon fill="none" stroke="#bfbfbf" points="198.5,-67.5 198.5,-86.5 281.5,-86.5 281.5,-67.5 198.5,-67.5"/>
<text text-anchor="middle" x="240" y="-74.5" font-family="Helvetica" font-size="10.00">RebaseOpcode</text>
</a>
</g>
</g>
<!-- Node4&#45;&gt;Node1 -->
<g id="edge3" class="edge">
<title>Node4&#45;&gt;Node1</title>
<path fill="none" stroke="#9a32cd" stroke-dasharray="5,2" d="M220.93,-61.07C204.55,-48.24 181.5,-30.19 168.02,-19.63"/>
<polygon fill="#9a32cd" stroke="#9a32cd" points="218.78,-63.82 228.81,-67.23 223.09,-58.31 218.78,-63.82"/>
<text text-anchor="middle" x="221.5" y="-41" font-family="Helvetica" font-size="10.00"> Opcode</text>
</g>
</g>
</svg>
