<?xml version="1.0" encoding="UTF-8" standalone="no"?>
<!DOCTYPE svg PUBLIC "-//W3C//DTD SVG 1.1//EN"
 "http://www.w3.org/Graphics/SVG/1.1/DTD/svg11.dtd">
<!-- Generated by graphviz version 2.44.0 (0)
 -->
<!-- Title: llvm::ReplacementItem Pages: 1 -->
<svg width="396pt" height="175pt"
 viewBox="0.00 0.00 396.00 175.00" xmlns="http://www.w3.org/2000/svg" xmlns:xlink="http://www.w3.org/1999/xlink">
<g id="graph0" class="graph" transform="scale(1 1) rotate(0) translate(4 171)">
<title>llvm::ReplacementItem</title>
<!-- Node1 -->
<g id="node1" class="node">
<title>Node1</title>
<g id="a_node1"><a xlink:title=" ">
<polygon fill="#bfbfbf" stroke="black" points="97,-0.5 97,-19.5 214,-19.5 214,-0.5 97,-0.5"/>
<text text-anchor="middle" x="155.5" y="-7.5" font-family="Helvetica" font-size="10.00">llvm::ReplacementItem</text>
</a>
</g>
</g>
<!-- Node2 -->
<g id="node2" class="node">
<title>Node2</title>
<g id="a_node2"><a xlink:title=" ">
<polygon fill="none" stroke="#bfbfbf" points="0,-79.5 0,-98.5 35,-98.5 35,-79.5 0,-79.5"/>
<text text-anchor="middle" x="17.5" y="-86.5" font-family="Helvetica" font-size="10.00">char</text>
</a>
</g>
</g>
<!-- Node2&#45;&gt;Node1 -->
<g id="edge1" class="edge">
<title>Node2&#45;&gt;Node1</title>
<path fill="none" stroke="#9a32cd" stroke-dasharray="5,2" d="M20.2,-69.13C22.69,-58.52 27.45,-45.87 36.5,-38 53.05,-23.62 75.67,-16.45 96.75,-13.02"/>
<polygon fill="#9a32cd" stroke="#9a32cd" points="16.73,-68.69 18.35,-79.16 23.61,-69.96 16.73,-68.69"/>
<text text-anchor="middle" x="47" y="-46.5" font-family="Helvetica" font-size="10.00"> Pad</text>
</g>
<!-- Node3 -->
<g id="node3" class="node">
<title>Node3</title>
<g id="a_node3"><a xlink:href="classsize__t.html" target="_top" xlink:title=" ">
<polygon fill="none" stroke="black" points="66.5,-147.5 66.5,-166.5 108.5,-166.5 108.5,-147.5 66.5,-147.5"/>
<text text-anchor="middle" x="87.5" y="-154.5" font-family="Helvetica" font-size="10.00">size_t</text>
</a>
</g>
</g>
<!-- Node3&#45;&gt;Node1 -->
<g id="edge2" class="edge">
<title>Node3&#45;&gt;Node1</title>
<path fill="none" stroke="#9a32cd" stroke-dasharray="5,2" d="M80.86,-137.42C76.15,-121.06 72.02,-96.96 80.5,-78 92.55,-51.07 121.38,-30.5 139.58,-19.62"/>
<polygon fill="#9a32cd" stroke="#9a32cd" points="77.67,-138.91 84.07,-147.35 84.33,-136.76 77.67,-138.91"/>
<text text-anchor="middle" x="93" y="-92" font-family="Helvetica" font-size="10.00"> Align</text>
<text text-anchor="middle" x="93" y="-81" font-family="Helvetica" font-size="10.00">Index</text>
</g>
<!-- Node6 -->
<g id="node6" class="node">
<title>Node6</title>
<g id="a_node6"><a xlink:href="classllvm_1_1StringRef.html" target="_top" xlink:title="StringRef &#45; Represent a constant reference to a string, i.e.">
<polygon fill="none" stroke="black" points="115,-79.5 115,-98.5 196,-98.5 196,-79.5 115,-79.5"/>
<text text-anchor="middle" x="155.5" y="-86.5" font-family="Helvetica" font-size="10.00">llvm::StringRef</text>
</a>
</g>
</g>
<!-- Node3&#45;&gt;Node6 -->
<g id="edge6" class="edge">
<title>Node3&#45;&gt;Node6</title>
<path fill="none" stroke="#9a32cd" stroke-dasharray="5,2" d="M103.94,-140.05C117.26,-127.11 135.56,-109.36 146.39,-98.84"/>
<polygon fill="#9a32cd" stroke="#9a32cd" points="101.13,-137.9 96.39,-147.37 106,-142.92 101.13,-137.9"/>
<text text-anchor="middle" x="139" y="-121" font-family="Helvetica" font-size="10.00"> npos</text>
</g>
<!-- Node4 -->
<g id="node4" class="node">
<title>Node4</title>
<g id="a_node4"><a xlink:title=" ">
<polygon fill="none" stroke="#bfbfbf" points="214,-79.5 214,-98.5 275,-98.5 275,-79.5 214,-79.5"/>
<text text-anchor="middle" x="244.5" y="-86.5" font-family="Helvetica" font-size="10.00">AlignStyle</text>
</a>
</g>
</g>
<!-- Node4&#45;&gt;Node1 -->
<g id="edge3" class="edge">
<title>Node4&#45;&gt;Node1</title>
<path fill="none" stroke="#9a32cd" stroke-dasharray="5,2" d="M230.39,-71.51C221.24,-61.3 208.78,-48.22 196.5,-38 188.25,-31.13 178.18,-24.48 170.09,-19.5"/>
<polygon fill="#9a32cd" stroke="#9a32cd" points="227.99,-74.08 237.21,-79.29 233.25,-69.47 227.99,-74.08"/>
<text text-anchor="middle" x="234.5" y="-46.5" font-family="Helvetica" font-size="10.00"> Where</text>
</g>
<!-- Node5 -->
<g id="node5" class="node">
<title>Node5</title>
<g id="a_node5"><a xlink:title=" ">
<polygon fill="none" stroke="#bfbfbf" points="293,-79.5 293,-98.5 388,-98.5 388,-79.5 293,-79.5"/>
<text text-anchor="middle" x="340.5" y="-86.5" font-family="Helvetica" font-size="10.00">ReplacementType</text>
</a>
</g>
</g>
<!-- Node5&#45;&gt;Node1 -->
<g id="edge4" class="edge">
<title>Node5&#45;&gt;Node1</title>
<path fill="none" stroke="#9a32cd" stroke-dasharray="5,2" d="M319.68,-73.81C302.74,-62.8 277.89,-47.79 254.5,-38 235.93,-30.23 214.46,-24.05 196.28,-19.59"/>
<polygon fill="#9a32cd" stroke="#9a32cd" points="317.94,-76.87 328.21,-79.47 321.81,-71.03 317.94,-76.87"/>
<text text-anchor="middle" x="308" y="-46.5" font-family="Helvetica" font-size="10.00"> Type</text>
</g>
<!-- Node6&#45;&gt;Node1 -->
<g id="edge5" class="edge">
<title>Node6&#45;&gt;Node1</title>
<path fill="none" stroke="#9a32cd" stroke-dasharray="5,2" d="M155.5,-69.31C155.5,-53.59 155.5,-31.81 155.5,-19.81"/>
<polygon fill="#9a32cd" stroke="#9a32cd" points="152,-69.47 155.5,-79.47 159,-69.47 152,-69.47"/>
<text text-anchor="middle" x="174" y="-52" font-family="Helvetica" font-size="10.00"> Options</text>
<text text-anchor="middle" x="174" y="-41" font-family="Helvetica" font-size="10.00">Spec</text>
</g>
</g>
</svg>
