<?xml version="1.0" encoding="UTF-8" standalone="no"?>
<!DOCTYPE svg PUBLIC "-//W3C//DTD SVG 1.1//EN"
 "http://www.w3.org/Graphics/SVG/1.1/DTD/svg11.dtd">
<!-- Generated by graphviz version 2.44.0 (0)
 -->
<!-- Title: llvm::rdf::NodeBase::Code_struct Pages: 1 -->
<svg width="118pt" height="117pt"
 viewBox="0.00 0.00 118.00 117.00" xmlns="http://www.w3.org/2000/svg" xmlns:xlink="http://www.w3.org/1999/xlink">
<g id="graph0" class="graph" transform="scale(1 1) rotate(0) translate(4 113)">
<title>llvm::rdf::NodeBase::Code_struct</title>
<!-- Node1 -->
<g id="node1" class="node">
<title>Node1</title>
<g id="a_node1"><a xlink:title=" ">
<polygon fill="#bfbfbf" stroke="black" points="5.5,-0.5 5.5,-30.5 109.5,-30.5 109.5,-0.5 5.5,-0.5"/>
<text text-anchor="start" x="13.5" y="-18.5" font-family="Helvetica" font-size="10.00">llvm::rdf::NodeBase</text>
<text text-anchor="middle" x="57.5" y="-7.5" font-family="Helvetica" font-size="10.00">::Code_struct</text>
</a>
</g>
</g>
<!-- Node2 -->
<g id="node2" class="node">
<title>Node2</title>
<g id="a_node2"><a xlink:href="classuint32__t.html" target="_top" xlink:title=" ">
<polygon fill="none" stroke="black" points="0,-89.5 0,-108.5 51,-108.5 51,-89.5 0,-89.5"/>
<text text-anchor="middle" x="25.5" y="-96.5" font-family="Helvetica" font-size="10.00">uint32_t</text>
</a>
</g>
</g>
<!-- Node2&#45;&gt;Node1 -->
<g id="edge1" class="edge">
<title>Node2&#45;&gt;Node1</title>
<path fill="none" stroke="#9a32cd" stroke-dasharray="5,2" d="M27.57,-79.21C29.03,-69.86 31.48,-58.56 35.5,-49 38.19,-42.59 42.23,-36.13 46.12,-30.68"/>
<polygon fill="#9a32cd" stroke="#9a32cd" points="24.06,-79.01 26.23,-89.38 31,-79.92 24.06,-79.01"/>
<text text-anchor="middle" x="51.5" y="-63" font-family="Helvetica" font-size="10.00"> FirstM</text>
<text text-anchor="middle" x="51.5" y="-52" font-family="Helvetica" font-size="10.00">LastM</text>
</g>
<!-- Node3 -->
<g id="node3" class="node">
<title>Node3</title>
<g id="a_node3"><a xlink:title=" ">
<polygon fill="none" stroke="#bfbfbf" points="69,-89.5 69,-108.5 110,-108.5 110,-89.5 69,-89.5"/>
<text text-anchor="middle" x="89.5" y="-96.5" font-family="Helvetica" font-size="10.00">void *</text>
</a>
</g>
</g>
<!-- Node3&#45;&gt;Node1 -->
<g id="edge2" class="edge">
<title>Node3&#45;&gt;Node1</title>
<path fill="none" stroke="#9a32cd" stroke-dasharray="5,2" d="M82.3,-79.66C76.47,-64.81 68.37,-44.18 63.04,-30.6"/>
<polygon fill="#9a32cd" stroke="#9a32cd" points="79.16,-81.25 86.08,-89.28 85.68,-78.69 79.16,-81.25"/>
<text text-anchor="middle" x="86.5" y="-57.5" font-family="Helvetica" font-size="10.00"> CP</text>
</g>
</g>
</svg>
