<?xml version="1.0" encoding="UTF-8" standalone="no"?>
<!DOCTYPE svg PUBLIC "-//W3C//DTD SVG 1.1//EN"
 "http://www.w3.org/Graphics/SVG/1.1/DTD/svg11.dtd">
<!-- Generated by graphviz version 2.44.0 (0)
 -->
<!-- Title: llvm::ARM::FPUName Pages: 1 -->
<svg width="483pt" height="95pt"
 viewBox="0.00 0.00 482.50 95.00" xmlns="http://www.w3.org/2000/svg" xmlns:xlink="http://www.w3.org/1999/xlink">
<g id="graph0" class="graph" transform="scale(1 1) rotate(0) translate(4 91)">
<title>llvm::ARM::FPUName</title>
<!-- Node1 -->
<g id="node1" class="node">
<title>Node1</title>
<g id="a_node1"><a xlink:title=" ">
<polygon fill="#bfbfbf" stroke="black" points="147.5,-0.5 147.5,-19.5 262.5,-19.5 262.5,-0.5 147.5,-0.5"/>
<text text-anchor="middle" x="205" y="-7.5" font-family="Helvetica" font-size="10.00">llvm::ARM::FPUName</text>
</a>
</g>
</g>
<!-- Node2 -->
<g id="node2" class="node">
<title>Node2</title>
<g id="a_node2"><a xlink:title=" ">
<polygon fill="none" stroke="#bfbfbf" points="0,-67.5 0,-86.5 56,-86.5 56,-67.5 0,-67.5"/>
<text text-anchor="middle" x="28" y="-74.5" font-family="Helvetica" font-size="10.00">FPUKind</text>
</a>
</g>
</g>
<!-- Node2&#45;&gt;Node1 -->
<g id="edge1" class="edge">
<title>Node2&#45;&gt;Node1</title>
<path fill="none" stroke="#9a32cd" stroke-dasharray="5,2" d="M50.36,-62.23C64.01,-54.28 82.06,-44.58 99,-38 119.09,-30.2 142.2,-24.01 161.71,-19.53"/>
<polygon fill="#9a32cd" stroke="#9a32cd" points="48.47,-59.27 41.67,-67.39 52.05,-65.29 48.47,-59.27"/>
<text text-anchor="middle" x="106" y="-41" font-family="Helvetica" font-size="10.00"> ID</text>
</g>
<!-- Node3 -->
<g id="node3" class="node">
<title>Node3</title>
<g id="a_node3"><a xlink:title=" ">
<polygon fill="none" stroke="#bfbfbf" points="74,-67.5 74,-86.5 142,-86.5 142,-67.5 74,-67.5"/>
<text text-anchor="middle" x="108" y="-74.5" font-family="Helvetica" font-size="10.00">FPUVersion</text>
</a>
</g>
</g>
<!-- Node3&#45;&gt;Node1 -->
<g id="edge2" class="edge">
<title>Node3&#45;&gt;Node1</title>
<path fill="none" stroke="#9a32cd" stroke-dasharray="5,2" d="M113.23,-57.75C116.03,-50.76 120.15,-43.23 126,-38 135.62,-29.41 148.1,-23.53 160.29,-19.51"/>
<polygon fill="#9a32cd" stroke="#9a32cd" points="109.91,-56.66 110.02,-67.26 116.54,-58.91 109.91,-56.66"/>
<text text-anchor="middle" x="144.5" y="-41" font-family="Helvetica" font-size="10.00"> FPUVer</text>
</g>
<!-- Node4 -->
<g id="node4" class="node">
<title>Node4</title>
<g id="a_node4"><a xlink:title=" ">
<polygon fill="none" stroke="#bfbfbf" points="160.5,-67.5 160.5,-86.5 195.5,-86.5 195.5,-67.5 160.5,-67.5"/>
<text text-anchor="middle" x="178" y="-74.5" font-family="Helvetica" font-size="10.00">char</text>
</a>
</g>
</g>
<!-- Node4&#45;&gt;Node1 -->
<g id="edge3" class="edge">
<title>Node4&#45;&gt;Node1</title>
<path fill="none" stroke="#9a32cd" stroke-dasharray="5,2" d="M169.53,-58.06C167.63,-51.51 166.96,-44.19 170,-38 173.79,-30.29 180.96,-24.15 187.83,-19.7"/>
<polygon fill="#9a32cd" stroke="#9a32cd" points="166.29,-59.4 173.17,-67.46 172.82,-56.87 166.29,-59.4"/>
<text text-anchor="middle" x="194.5" y="-41" font-family="Helvetica" font-size="10.00"> NameCStr</text>
</g>
<!-- Node5 -->
<g id="node5" class="node">
<title>Node5</title>
<g id="a_node5"><a xlink:href="classsize__t.html" target="_top" xlink:title=" ">
<polygon fill="none" stroke="black" points="216,-67.5 216,-86.5 258,-86.5 258,-67.5 216,-67.5"/>
<text text-anchor="middle" x="237" y="-74.5" font-family="Helvetica" font-size="10.00">size_t</text>
</a>
</g>
</g>
<!-- Node5&#45;&gt;Node1 -->
<g id="edge4" class="edge">
<title>Node5&#45;&gt;Node1</title>
<path fill="none" stroke="#9a32cd" stroke-dasharray="5,2" d="M228.68,-58.1C225.68,-51.73 222.24,-44.52 219,-38 216,-31.95 212.5,-25.2 209.75,-19.96"/>
<polygon fill="#9a32cd" stroke="#9a32cd" points="225.53,-59.63 232.94,-67.2 231.87,-56.66 225.53,-59.63"/>
<text text-anchor="middle" x="253.5" y="-41" font-family="Helvetica" font-size="10.00"> NameLength</text>
</g>
<!-- Node6 -->
<g id="node6" class="node">
<title>Node6</title>
<g id="a_node6"><a xlink:title=" ">
<polygon fill="none" stroke="#bfbfbf" points="276.5,-67.5 276.5,-86.5 373.5,-86.5 373.5,-67.5 276.5,-67.5"/>
<text text-anchor="middle" x="325" y="-74.5" font-family="Helvetica" font-size="10.00">NeonSupportLevel</text>
</a>
</g>
</g>
<!-- Node6&#45;&gt;Node1 -->
<g id="edge5" class="edge">
<title>Node6&#45;&gt;Node1</title>
<path fill="none" stroke="#9a32cd" stroke-dasharray="5,2" d="M311.43,-59.23C304.73,-51.86 296.14,-43.62 287,-38 273.73,-29.83 257.7,-23.84 243.36,-19.61"/>
<polygon fill="#9a32cd" stroke="#9a32cd" points="309.17,-61.97 318.34,-67.28 314.48,-57.41 309.17,-61.97"/>
<text text-anchor="middle" x="330.5" y="-41" font-family="Helvetica" font-size="10.00"> NeonSupport</text>
</g>
<!-- Node7 -->
<g id="node7" class="node">
<title>Node7</title>
<g id="a_node7"><a xlink:title=" ">
<polygon fill="none" stroke="#bfbfbf" points="391.5,-67.5 391.5,-86.5 474.5,-86.5 474.5,-67.5 391.5,-67.5"/>
<text text-anchor="middle" x="433" y="-74.5" font-family="Helvetica" font-size="10.00">FPURestriction</text>
</a>
</g>
</g>
<!-- Node7&#45;&gt;Node1 -->
<g id="edge6" class="edge">
<title>Node7&#45;&gt;Node1</title>
<path fill="none" stroke="#9a32cd" stroke-dasharray="5,2" d="M411.96,-61.75C398.96,-53.6 381.63,-43.85 365,-38 332.18,-26.45 293.79,-19.76 262.84,-15.93"/>
<polygon fill="#9a32cd" stroke="#9a32cd" points="410.29,-64.84 420.59,-67.33 414.09,-58.97 410.29,-64.84"/>
<text text-anchor="middle" x="413" y="-41" font-family="Helvetica" font-size="10.00"> Restriction</text>
</g>
</g>
</svg>
