<?xml version="1.0" encoding="UTF-8" standalone="no"?>
<!DOCTYPE svg PUBLIC "-//W3C//DTD SVG 1.1//EN"
 "http://www.w3.org/Graphics/SVG/1.1/DTD/svg11.dtd">
<!-- Generated by graphviz version 2.44.0 (0)
 -->
<!-- Title: llvm::OptionalOperandTraits&lt; SubClass, ARITY &gt; Pages: 1 -->
<svg width="165pt" height="331pt"
 viewBox="0.00 0.00 165.00 331.00" xmlns="http://www.w3.org/2000/svg" xmlns:xlink="http://www.w3.org/1999/xlink">
<g id="graph0" class="graph" transform="scale(1 1) rotate(0) translate(4 327)">
<title>llvm::OptionalOperandTraits&lt; SubClass, ARITY &gt;</title>
<!-- Node1 -->
<g id="node1" class="node">
<title>Node1</title>
<g id="a_node1"><a xlink:title="OptionalOperandTraits &#45; when the number of operands may change at runtime.">
<polygon fill="#bfbfbf" stroke="black" points="4.5,-146.5 4.5,-176.5 141.5,-176.5 141.5,-146.5 4.5,-146.5"/>
<text text-anchor="start" x="12.5" y="-164.5" font-family="Helvetica" font-size="10.00">llvm::OptionalOperandTraits</text>
<text text-anchor="middle" x="73" y="-153.5" font-family="Helvetica" font-size="10.00">&lt; SubClass, ARITY &gt;</text>
</a>
</g>
</g>
<!-- Node4 -->
<g id="node4" class="node">
<title>Node4</title>
<g id="a_node4"><a xlink:href="structllvm_1_1OptionalOperandTraits.html" target="_top" xlink:title=" ">
<polygon fill="none" stroke="black" points="4.5,-68.5 4.5,-98.5 141.5,-98.5 141.5,-68.5 4.5,-68.5"/>
<text text-anchor="start" x="12.5" y="-86.5" font-family="Helvetica" font-size="10.00">llvm::OptionalOperandTraits</text>
<text text-anchor="middle" x="73" y="-75.5" font-family="Helvetica" font-size="10.00">&lt; GlobalVariable &gt;</text>
</a>
</g>
</g>
<!-- Node1&#45;&gt;Node4 -->
<g id="edge3" class="edge">
<title>Node1&#45;&gt;Node4</title>
<path fill="none" stroke="orange" stroke-dasharray="5,2" d="M73,-136.09C73,-123.76 73,-109.22 73,-98.73"/>
<polygon fill="orange" stroke="orange" points="69.5,-136.2 73,-146.2 76.5,-136.21 69.5,-136.2"/>
<text text-anchor="middle" x="115" y="-120" font-family="Helvetica" font-size="10.00"> &lt; GlobalVariable &gt;</text>
</g>
<!-- Node2 -->
<g id="node2" class="node">
<title>Node2</title>
<g id="a_node2"><a xlink:href="structllvm_1_1FixedNumOperandTraits.html" target="_top" xlink:title=" ">
<polygon fill="none" stroke="black" points="0,-214.5 0,-244.5 146,-244.5 146,-214.5 0,-214.5"/>
<text text-anchor="start" x="8" y="-232.5" font-family="Helvetica" font-size="10.00">llvm::FixedNumOperandTraits</text>
<text text-anchor="middle" x="73" y="-221.5" font-family="Helvetica" font-size="10.00">&lt; SubClass, 1 &gt;</text>
</a>
</g>
</g>
<!-- Node2&#45;&gt;Node1 -->
<g id="edge1" class="edge">
<title>Node2&#45;&gt;Node1</title>
<path fill="none" stroke="midnightblue" d="M73,-204.03C73,-194.86 73,-184.74 73,-176.79"/>
<polygon fill="midnightblue" stroke="midnightblue" points="69.5,-204.18 73,-214.18 76.5,-204.18 69.5,-204.18"/>
</g>
<!-- Node3 -->
<g id="node3" class="node">
<title>Node3</title>
<g id="a_node3"><a xlink:href="structllvm_1_1FixedNumOperandTraits.html" target="_top" xlink:title="FixedNumOperandTraits &#45; determine the allocation regime of the Use array when it is a prefix to the U...">
<polygon fill="none" stroke="black" points="0,-292.5 0,-322.5 146,-322.5 146,-292.5 0,-292.5"/>
<text text-anchor="start" x="8" y="-310.5" font-family="Helvetica" font-size="10.00">llvm::FixedNumOperandTraits</text>
<text text-anchor="middle" x="73" y="-299.5" font-family="Helvetica" font-size="10.00">&lt; SubClass, ARITY &gt;</text>
</a>
</g>
</g>
<!-- Node3&#45;&gt;Node2 -->
<g id="edge2" class="edge">
<title>Node3&#45;&gt;Node2</title>
<path fill="none" stroke="orange" stroke-dasharray="5,2" d="M73,-282.09C73,-269.76 73,-255.22 73,-244.73"/>
<polygon fill="orange" stroke="orange" points="69.5,-282.2 73,-292.2 76.5,-282.21 69.5,-282.2"/>
<text text-anchor="middle" x="111" y="-266" font-family="Helvetica" font-size="10.00"> &lt; SubClass, 1 &gt;</text>
</g>
<!-- Node5 -->
<g id="node5" class="node">
<title>Node5</title>
<g id="a_node5"><a xlink:href="structllvm_1_1OperandTraits_3_01GlobalVariable_01_4.html" target="_top" xlink:title=" ">
<polygon fill="none" stroke="black" points="22.5,-0.5 22.5,-30.5 123.5,-30.5 123.5,-0.5 22.5,-0.5"/>
<text text-anchor="start" x="30.5" y="-18.5" font-family="Helvetica" font-size="10.00">llvm::OperandTraits</text>
<text text-anchor="middle" x="73" y="-7.5" font-family="Helvetica" font-size="10.00">&lt; GlobalVariable &gt;</text>
</a>
</g>
</g>
<!-- Node4&#45;&gt;Node5 -->
<g id="edge4" class="edge">
<title>Node4&#45;&gt;Node5</title>
<path fill="none" stroke="midnightblue" d="M73,-58.03C73,-48.86 73,-38.74 73,-30.79"/>
<polygon fill="midnightblue" stroke="midnightblue" points="69.5,-58.18 73,-68.18 76.5,-58.18 69.5,-58.18"/>
</g>
</g>
</svg>
