<?xml version="1.0" encoding="UTF-8" standalone="no"?>
<!DOCTYPE svg PUBLIC "-//W3C//DTD SVG 1.1//EN"
 "http://www.w3.org/Graphics/SVG/1.1/DTD/svg11.dtd">
<!-- Generated by graphviz version 2.44.0 (0)
 -->
<!-- Title: lib/Target/WebAssembly/WebAssemblyExceptionInfo.h Pages: 1 -->
<svg width="672pt" height="106pt"
 viewBox="0.00 0.00 672.00 106.00" xmlns="http://www.w3.org/2000/svg" xmlns:xlink="http://www.w3.org/1999/xlink">
<g id="graph0" class="graph" transform="scale(1 1) rotate(0) translate(4 102)">
<title>lib/Target/WebAssembly/WebAssemblyExceptionInfo.h</title>
<!-- Node1 -->
<g id="node1" class="node">
<title>Node1</title>
<g id="a_node1"><a xlink:title="This file implements WebAssemblyException information analysis.">
<polygon fill="#bfbfbf" stroke="black" points="251,-67.5 251,-97.5 401,-97.5 401,-67.5 251,-67.5"/>
<text text-anchor="start" x="259" y="-85.5" font-family="Helvetica" font-size="10.00">lib/Target/WebAssembly</text>
<text text-anchor="middle" x="326" y="-74.5" font-family="Helvetica" font-size="10.00">/WebAssemblyExceptionInfo.h</text>
</a>
</g>
</g>
<!-- Node2 -->
<g id="node2" class="node">
<title>Node2</title>
<g id="a_node2"><a xlink:href="WebAssemblyCFGSort_8cpp.html" target="_top" xlink:title="This file implements a CFG sorting pass.">
<polygon fill="none" stroke="black" points="0,-0.5 0,-30.5 140,-30.5 140,-0.5 0,-0.5"/>
<text text-anchor="start" x="8" y="-18.5" font-family="Helvetica" font-size="10.00">lib/Target/WebAssembly</text>
<text text-anchor="middle" x="70" y="-7.5" font-family="Helvetica" font-size="10.00">/WebAssemblyCFGSort.cpp</text>
</a>
</g>
</g>
<!-- Node1&#45;&gt;Node2 -->
<g id="edge1" class="edge">
<title>Node1&#45;&gt;Node2</title>
<path fill="none" stroke="midnightblue" d="M260.95,-64.98C219.14,-54.37 165.39,-40.72 125.58,-30.61"/>
<polygon fill="midnightblue" stroke="midnightblue" points="260.21,-68.41 270.77,-67.48 261.94,-61.62 260.21,-68.41"/>
</g>
<!-- Node3 -->
<g id="node3" class="node">
<title>Node3</title>
<g id="a_node3"><a xlink:href="WebAssemblyCFGStackify_8cpp.html" target="_top" xlink:title="This file implements a CFG stacking pass.">
<polygon fill="none" stroke="black" points="158,-0.5 158,-30.5 316,-30.5 316,-0.5 158,-0.5"/>
<text text-anchor="start" x="166" y="-18.5" font-family="Helvetica" font-size="10.00">lib/Target/WebAssembly</text>
<text text-anchor="middle" x="237" y="-7.5" font-family="Helvetica" font-size="10.00">/WebAssemblyCFGStackify.cpp</text>
</a>
</g>
</g>
<!-- Node1&#45;&gt;Node3 -->
<g id="edge2" class="edge">
<title>Node1&#45;&gt;Node3</title>
<path fill="none" stroke="midnightblue" d="M298.55,-61.45C284.86,-51.45 268.63,-39.6 256.27,-30.58"/>
<polygon fill="midnightblue" stroke="midnightblue" points="296.55,-64.32 306.69,-67.4 300.68,-58.67 296.55,-64.32"/>
</g>
<!-- Node4 -->
<g id="node4" class="node">
<title>Node4</title>
<g id="a_node4"><a xlink:href="WebAssemblyExceptionInfo_8cpp.html" target="_top" xlink:title="This file implements WebAssemblyException information analysis.">
<polygon fill="none" stroke="black" points="334.5,-0.5 334.5,-30.5 495.5,-30.5 495.5,-0.5 334.5,-0.5"/>
<text text-anchor="start" x="342.5" y="-18.5" font-family="Helvetica" font-size="10.00">lib/Target/WebAssembly</text>
<text text-anchor="middle" x="415" y="-7.5" font-family="Helvetica" font-size="10.00">/WebAssemblyExceptionInfo.cpp</text>
</a>
</g>
</g>
<!-- Node1&#45;&gt;Node4 -->
<g id="edge3" class="edge">
<title>Node1&#45;&gt;Node4</title>
<path fill="none" stroke="midnightblue" d="M353.45,-61.45C367.14,-51.45 383.37,-39.6 395.73,-30.58"/>
<polygon fill="midnightblue" stroke="midnightblue" points="351.32,-58.67 345.31,-67.4 355.45,-64.32 351.32,-58.67"/>
</g>
<!-- Node5 -->
<g id="node5" class="node">
<title>Node5</title>
<g id="a_node5"><a xlink:href="WebAssemblySortRegion_8cpp.html" target="_top" xlink:title=" ">
<polygon fill="none" stroke="black" points="514,-0.5 514,-30.5 664,-30.5 664,-0.5 514,-0.5"/>
<text text-anchor="start" x="522" y="-18.5" font-family="Helvetica" font-size="10.00">lib/Target/WebAssembly</text>
<text text-anchor="middle" x="589" y="-7.5" font-family="Helvetica" font-size="10.00">/WebAssemblySortRegion.cpp</text>
</a>
</g>
</g>
<!-- Node1&#45;&gt;Node5 -->
<g id="edge4" class="edge">
<title>Node1&#45;&gt;Node5</title>
<path fill="none" stroke="midnightblue" d="M392.55,-65.05C435.55,-54.43 490.92,-40.74 531.91,-30.61"/>
<polygon fill="midnightblue" stroke="midnightblue" points="391.61,-61.68 382.74,-67.48 393.29,-68.47 391.61,-61.68"/>
</g>
</g>
</svg>
