<?xml version="1.0" encoding="UTF-8" standalone="no"?>
<!DOCTYPE svg PUBLIC "-//W3C//DTD SVG 1.1//EN"
 "http://www.w3.org/Graphics/SVG/1.1/DTD/svg11.dtd">
<!-- Generated by graphviz version 2.44.0 (0)
 -->
<!-- Title: include/llvm/Support/Win64EH.h Pages: 1 -->
<svg width="682pt" height="162pt"
 viewBox="0.00 0.00 681.50 162.00" xmlns="http://www.w3.org/2000/svg" xmlns:xlink="http://www.w3.org/1999/xlink">
<g id="graph0" class="graph" transform="scale(1 1) rotate(0) translate(4 158)">
<title>include/llvm/Support/Win64EH.h</title>
<!-- Node1 -->
<g id="node1" class="node">
<title>Node1</title>
<g id="a_node1"><a xlink:title=" ">
<polygon fill="#bfbfbf" stroke="black" points="80,-123.5 80,-153.5 186,-153.5 186,-123.5 80,-123.5"/>
<text text-anchor="start" x="88" y="-141.5" font-family="Helvetica" font-size="10.00">include/llvm/Support</text>
<text text-anchor="middle" x="133" y="-130.5" font-family="Helvetica" font-size="10.00">/Win64EH.h</text>
</a>
</g>
</g>
<!-- Node2 -->
<g id="node2" class="node">
<title>Node2</title>
<g id="a_node2"><a xlink:href="MCWin64EH_8h.html" target="_top" xlink:title=" ">
<polygon fill="none" stroke="black" points="125.5,-67.5 125.5,-86.5 280.5,-86.5 280.5,-67.5 125.5,-67.5"/>
<text text-anchor="middle" x="203" y="-74.5" font-family="Helvetica" font-size="10.00">include/llvm/MC/MCWin64EH.h</text>
</a>
</g>
</g>
<!-- Node1&#45;&gt;Node2 -->
<g id="edge1" class="edge">
<title>Node1&#45;&gt;Node2</title>
<path fill="none" stroke="midnightblue" d="M157.24,-116.89C169.42,-106.54 183.52,-94.56 192.81,-86.66"/>
<polygon fill="midnightblue" stroke="midnightblue" points="154.94,-114.26 149.59,-123.4 159.48,-119.59 154.94,-114.26"/>
</g>
<!-- Node4 -->
<g id="node4" class="node">
<title>Node4</title>
<g id="a_node4"><a xlink:href="MCWin64EH_8cpp.html" target="_top" xlink:title=" ">
<polygon fill="none" stroke="black" points="0,-6 0,-25 124,-25 124,-6 0,-6"/>
<text text-anchor="middle" x="62" y="-13" font-family="Helvetica" font-size="10.00">lib/MC/MCWin64EH.cpp</text>
</a>
</g>
</g>
<!-- Node1&#45;&gt;Node4 -->
<g id="edge6" class="edge">
<title>Node1&#45;&gt;Node4</title>
<path fill="none" stroke="midnightblue" d="M119.37,-114.28C103.41,-87.08 77.78,-43.4 67.02,-25.05"/>
<polygon fill="midnightblue" stroke="midnightblue" points="116.5,-116.29 124.58,-123.14 122.53,-112.75 116.5,-116.29"/>
</g>
<!-- Node3 -->
<g id="node3" class="node">
<title>Node3</title>
<g id="a_node3"><a xlink:href="MCStreamer_8cpp.html" target="_top" xlink:title=" ">
<polygon fill="none" stroke="black" points="142,-6 142,-25 264,-25 264,-6 142,-6"/>
<text text-anchor="middle" x="203" y="-13" font-family="Helvetica" font-size="10.00">lib/MC/MCStreamer.cpp</text>
</a>
</g>
</g>
<!-- Node2&#45;&gt;Node3 -->
<g id="edge2" class="edge">
<title>Node2&#45;&gt;Node3</title>
<path fill="none" stroke="midnightblue" d="M203,-57.32C203,-46.5 203,-33.4 203,-25.01"/>
<polygon fill="midnightblue" stroke="midnightblue" points="199.5,-57.48 203,-67.48 206.5,-57.48 199.5,-57.48"/>
</g>
<!-- Node2&#45;&gt;Node4 -->
<g id="edge3" class="edge">
<title>Node2&#45;&gt;Node4</title>
<path fill="none" stroke="midnightblue" d="M173.33,-63.48C145.95,-51.92 106.02,-35.08 82.16,-25.01"/>
<polygon fill="midnightblue" stroke="midnightblue" points="172.22,-66.81 182.8,-67.48 174.95,-60.36 172.22,-66.81"/>
</g>
<!-- Node5 -->
<g id="node5" class="node">
<title>Node5</title>
<g id="a_node5"><a xlink:href="AArch64WinCOFFStreamer_8cpp.html" target="_top" xlink:title=" ">
<polygon fill="none" stroke="black" points="282,-0.5 282,-30.5 510,-30.5 510,-0.5 282,-0.5"/>
<text text-anchor="start" x="290" y="-18.5" font-family="Helvetica" font-size="10.00">lib/Target/AArch64</text>
<text text-anchor="middle" x="396" y="-7.5" font-family="Helvetica" font-size="10.00">/MCTargetDesc/AArch64WinCOFFStreamer.cpp</text>
</a>
</g>
</g>
<!-- Node2&#45;&gt;Node5 -->
<g id="edge4" class="edge">
<title>Node2&#45;&gt;Node5</title>
<path fill="none" stroke="midnightblue" d="M240.36,-64.48C271.82,-54.78 316.95,-40.87 350.51,-30.52"/>
<polygon fill="midnightblue" stroke="midnightblue" points="239.18,-61.18 230.65,-67.48 241.24,-67.87 239.18,-61.18"/>
</g>
<!-- Node6 -->
<g id="node6" class="node">
<title>Node6</title>
<g id="a_node6"><a xlink:href="X86WinCOFFStreamer_8cpp.html" target="_top" xlink:title=" ">
<polygon fill="none" stroke="black" points="528.5,-0.5 528.5,-30.5 673.5,-30.5 673.5,-0.5 528.5,-0.5"/>
<text text-anchor="start" x="536.5" y="-18.5" font-family="Helvetica" font-size="10.00">lib/Target/X86/MCTargetDesc</text>
<text text-anchor="middle" x="601" y="-7.5" font-family="Helvetica" font-size="10.00">/X86WinCOFFStreamer.cpp</text>
</a>
</g>
</g>
<!-- Node2&#45;&gt;Node6 -->
<g id="edge5" class="edge">
<title>Node2&#45;&gt;Node6</title>
<path fill="none" stroke="midnightblue" d="M277.26,-66.14C341.37,-57.46 436.41,-44.18 519,-31 522,-30.52 525.06,-30.02 528.14,-29.51"/>
<polygon fill="midnightblue" stroke="midnightblue" points="276.69,-62.69 267.25,-67.49 277.63,-69.62 276.69,-62.69"/>
</g>
</g>
</svg>
