<?xml version="1.0" encoding="UTF-8" standalone="no"?>
<!DOCTYPE svg PUBLIC "-//W3C//DTD SVG 1.1//EN"
 "http://www.w3.org/Graphics/SVG/1.1/DTD/svg11.dtd">
<!-- Generated by graphviz version 2.44.0 (0)
 -->
<!-- Title: include/llvm/Object/XCOFFObjectFile.h Pages: 1 -->
<svg width="4129pt" height="655pt"
 viewBox="0.00 0.00 4128.75 655.00" xmlns="http://www.w3.org/2000/svg" xmlns:xlink="http://www.w3.org/1999/xlink">
<g id="graph0" class="graph" transform="scale(1 1) rotate(0) translate(4 651)">
<title>include/llvm/Object/XCOFFObjectFile.h</title>
<!-- Node1 -->
<g id="node1" class="node">
<title>Node1</title>
<g id="a_node1"><a xlink:title=" ">
<polygon fill="#bfbfbf" stroke="black" points="897.25,-616.5 897.25,-646.5 1002.25,-646.5 1002.25,-616.5 897.25,-616.5"/>
<text text-anchor="start" x="905.25" y="-634.5" font-family="Helvetica" font-size="10.00">include/llvm/Object</text>
<text text-anchor="middle" x="949.75" y="-623.5" font-family="Helvetica" font-size="10.00">/XCOFFObjectFile.h</text>
</a>
</g>
</g>
<!-- Node2 -->
<g id="node2" class="node">
<title>Node2</title>
<g id="a_node2"><a xlink:href="SmallString_8h.html" target="_top" xlink:title=" ">
<polygon fill="none" stroke="black" points="1279.25,-280.5 1279.25,-299.5 1398.25,-299.5 1398.25,-280.5 1279.25,-280.5"/>
<text text-anchor="middle" x="1338.75" y="-287.5" font-family="Helvetica" font-size="10.00">llvm/ADT/SmallString.h</text>
</a>
</g>
</g>
<!-- Node1&#45;&gt;Node2 -->
<g id="edge1" class="edge">
<title>Node1&#45;&gt;Node2</title>
<path fill="none" stroke="midnightblue" d="M897.2,-628.34C721.08,-620.42 162.75,-589.44 162.75,-515 162.75,-515 162.75,-515 162.75,-457 162.75,-344.57 1016.34,-303.22 1269.06,-293.45"/>
<polygon fill="midnightblue" stroke="midnightblue" points="1269.36,-296.94 1279.22,-293.06 1269.1,-289.94 1269.36,-296.94"/>
</g>
<!-- Node3 -->
<g id="node3" class="node">
<title>Node3</title>
<g id="a_node3"><a xlink:href="SmallVector_8h.html" target="_top" xlink:title=" ">
<polygon fill="none" stroke="black" points="1272.25,-224.5 1272.25,-243.5 1393.25,-243.5 1393.25,-224.5 1272.25,-224.5"/>
<text text-anchor="middle" x="1332.75" y="-231.5" font-family="Helvetica" font-size="10.00">llvm/ADT/SmallVector.h</text>
</a>
</g>
</g>
<!-- Node1&#45;&gt;Node3 -->
<g id="edge67" class="edge">
<title>Node1&#45;&gt;Node3</title>
<path fill="none" stroke="midnightblue" d="M897.15,-629.01C754.85,-624.61 364.62,-610.08 239.75,-580 167.92,-562.7 86.75,-588.88 86.75,-515 86.75,-515 86.75,-515 86.75,-457 86.75,-336.73 998.19,-259.8 1262.01,-240.05"/>
<polygon fill="midnightblue" stroke="midnightblue" points="1262.52,-243.52 1272.23,-239.29 1262,-236.54 1262.52,-243.52"/>
</g>
<!-- Node18 -->
<g id="node18" class="node">
<title>Node18</title>
<g id="a_node18"><a xlink:title=" ">
<polygon fill="none" stroke="#bfbfbf" points="1112.75,-112.5 1112.75,-131.5 1152.75,-131.5 1152.75,-112.5 1112.75,-112.5"/>
<text text-anchor="middle" x="1132.75" y="-119.5" font-family="Helvetica" font-size="10.00">limits</text>
</a>
</g>
</g>
<!-- Node1&#45;&gt;Node18 -->
<g id="edge189" class="edge">
<title>Node1&#45;&gt;Node18</title>
<path fill="none" stroke="midnightblue" d="M897.21,-630.96C736.59,-631.82 254.08,-630.05 106.75,-580 57.96,-563.42 10.75,-566.53 10.75,-515 10.75,-515 10.75,-515 10.75,-457 10.75,-340.39 338.23,-205.18 448.75,-168 464.47,-162.71 971.74,-132.5 1102.34,-124.79"/>
<polygon fill="midnightblue" stroke="midnightblue" points="1102.66,-128.28 1112.44,-124.19 1102.25,-121.29 1102.66,-128.28"/>
</g>
<!-- Node44 -->
<g id="node30" class="node">
<title>Node44</title>
<g id="a_node30"><a xlink:href="XCOFF_8h.html" target="_top" xlink:title=" ">
<polygon fill="none" stroke="black" points="3974.75,-560.5 3974.75,-579.5 4114.75,-579.5 4114.75,-560.5 3974.75,-560.5"/>
<text text-anchor="middle" x="4044.75" y="-567.5" font-family="Helvetica" font-size="10.00">llvm/BinaryFormat/XCOFF.h</text>
</a>
</g>
</g>
<!-- Node1&#45;&gt;Node44 -->
<g id="edge68" class="edge">
<title>Node1&#45;&gt;Node44</title>
<path fill="none" stroke="midnightblue" d="M1002.5,-629.49C1367.77,-622.46 3519.8,-581.09 3964.41,-572.54"/>
<polygon fill="midnightblue" stroke="midnightblue" points="3964.66,-576.04 3974.59,-572.35 3964.53,-569.04 3964.66,-576.04"/>
</g>
<!-- Node45 -->
<g id="node32" class="node">
<title>Node45</title>
<g id="a_node32"><a xlink:href="ObjectFile_8h.html" target="_top" xlink:title=" ">
<polygon fill="none" stroke="black" points="1657.75,-560.5 1657.75,-579.5 1779.75,-579.5 1779.75,-560.5 1657.75,-560.5"/>
<text text-anchor="middle" x="1718.75" y="-567.5" font-family="Helvetica" font-size="10.00">llvm/Object/ObjectFile.h</text>
</a>
</g>
</g>
<!-- Node1&#45;&gt;Node45 -->
<g id="edge71" class="edge">
<title>Node1&#45;&gt;Node45</title>
<path fill="none" stroke="midnightblue" d="M1002.31,-626.43C1136.89,-616.02 1494.12,-588.38 1647.33,-576.53"/>
<polygon fill="midnightblue" stroke="midnightblue" points="1647.87,-580 1657.57,-575.73 1647.33,-573.02 1647.87,-580"/>
</g>
<!-- Node76 -->
<g id="node50" class="node">
<title>Node76</title>
<g id="a_node50"><a xlink:href="Endian_8h.html" target="_top" xlink:title=" ">
<polygon fill="none" stroke="black" points="3059.25,-224.5 3059.25,-243.5 3172.25,-243.5 3172.25,-224.5 3059.25,-224.5"/>
<text text-anchor="middle" x="3115.75" y="-231.5" font-family="Helvetica" font-size="10.00">llvm/Support/Endian.h</text>
</a>
</g>
</g>
<!-- Node1&#45;&gt;Node76 -->
<g id="edge181" class="edge">
<title>Node1&#45;&gt;Node76</title>
<path fill="none" stroke="midnightblue" d="M1002.34,-629.49C1362.75,-622.42 3453.75,-578.63 3453.75,-515 3453.75,-515 3453.75,-515 3453.75,-345 3453.75,-288.53 3280.99,-256.58 3182.49,-242.95"/>
<polygon fill="midnightblue" stroke="midnightblue" points="3182.71,-239.45 3172.33,-241.58 3181.76,-246.39 3182.71,-239.45"/>
</g>
<!-- Node2&#45;&gt;Node3 -->
<g id="edge2" class="edge">
<title>Node2&#45;&gt;Node3</title>
<path fill="none" stroke="midnightblue" d="M1337.76,-280.08C1336.97,-272.93 1335.82,-262.64 1334.83,-253.69"/>
<polygon fill="midnightblue" stroke="midnightblue" points="1338.31,-253.3 1333.72,-243.75 1331.35,-254.08 1338.31,-253.3"/>
</g>
<!-- Node23 -->
<g id="node23" class="node">
<title>Node23</title>
<g id="a_node23"><a xlink:title=" ">
<polygon fill="none" stroke="#bfbfbf" points="1802.25,-112.5 1802.25,-131.5 1851.25,-131.5 1851.25,-112.5 1802.25,-112.5"/>
<text text-anchor="middle" x="1826.75" y="-119.5" font-family="Helvetica" font-size="10.00">cstddef</text>
</a>
</g>
</g>
<!-- Node2&#45;&gt;Node23 -->
<g id="edge66" class="edge">
<title>Node2&#45;&gt;Node23</title>
<path fill="none" stroke="midnightblue" d="M1357.33,-280.33C1385.87,-267.19 1442.36,-241.88 1491.75,-224 1599.74,-184.91 1730.94,-148.47 1792.17,-132.09"/>
<polygon fill="midnightblue" stroke="midnightblue" points="1793.31,-135.41 1802.07,-129.45 1791.51,-128.64 1793.31,-135.41"/>
</g>
<!-- Node28 -->
<g id="node28" class="node">
<title>Node28</title>
<g id="a_node28"><a xlink:href="StringRef_8h.html" target="_top" xlink:title=" ">
<polygon fill="none" stroke="black" points="1500.75,-224.5 1500.75,-243.5 1608.75,-243.5 1608.75,-224.5 1500.75,-224.5"/>
<text text-anchor="middle" x="1554.75" y="-231.5" font-family="Helvetica" font-size="10.00">llvm/ADT/StringRef.h</text>
</a>
</g>
</g>
<!-- Node2&#45;&gt;Node28 -->
<g id="edge41" class="edge">
<title>Node2&#45;&gt;Node28</title>
<path fill="none" stroke="midnightblue" d="M1372.98,-280.44C1410.26,-271.12 1470.02,-256.18 1510.76,-246"/>
<polygon fill="midnightblue" stroke="midnightblue" points="1511.83,-249.34 1520.69,-243.52 1510.14,-242.55 1511.83,-249.34"/>
</g>
<!-- Node4 -->
<g id="node4" class="node">
<title>Node4</title>
<g id="a_node4"><a xlink:href="iterator__range_8h.html" target="_top" xlink:title="This provides a very simple, boring adaptor for a begin and end iterator into a range type.">
<polygon fill="none" stroke="black" points="516.75,-112.5 516.75,-131.5 644.75,-131.5 644.75,-112.5 516.75,-112.5"/>
<text text-anchor="middle" x="580.75" y="-119.5" font-family="Helvetica" font-size="10.00">llvm/ADT/iterator_range.h</text>
</a>
</g>
</g>
<!-- Node3&#45;&gt;Node4 -->
<g id="edge3" class="edge">
<title>Node3&#45;&gt;Node4</title>
<path fill="none" stroke="midnightblue" d="M1272.05,-232.64C1132.05,-231.2 790.22,-224 681.75,-188 649.49,-177.29 617.35,-153.86 598.27,-138.25"/>
<polygon fill="midnightblue" stroke="midnightblue" points="600.38,-135.45 590.47,-131.71 595.88,-140.82 600.38,-135.45"/>
</g>
<!-- Node5 -->
<g id="node5" class="node">
<title>Node5</title>
<g id="a_node5"><a xlink:title=" ">
<polygon fill="none" stroke="#bfbfbf" points="1064.75,-56.5 1064.75,-75.5 1104.75,-75.5 1104.75,-56.5 1064.75,-56.5"/>
<text text-anchor="middle" x="1084.75" y="-63.5" font-family="Helvetica" font-size="10.00">utility</text>
</a>
</g>
</g>
<!-- Node3&#45;&gt;Node5 -->
<g id="edge40" class="edge">
<title>Node3&#45;&gt;Node5</title>
<path fill="none" stroke="midnightblue" d="M1272.23,-231.78C1125.81,-228.4 755.72,-217.16 635.75,-188 575.41,-173.33 541.74,-183.97 507.75,-132 502.89,-124.56 501.71,-118.52 507.75,-112 543.89,-73.03 931.78,-80.38 984.75,-76 1008.17,-74.06 1034.64,-71.67 1054.47,-69.84"/>
<polygon fill="midnightblue" stroke="midnightblue" points="1054.82,-73.32 1064.46,-68.91 1054.18,-66.35 1054.82,-73.32"/>
</g>
<!-- Node6 -->
<g id="node6" class="node">
<title>Node6</title>
<g id="a_node6"><a xlink:href="Compiler_8h.html" target="_top" xlink:title=" ">
<polygon fill="none" stroke="black" points="3375.75,-56.5 3375.75,-75.5 3497.75,-75.5 3497.75,-56.5 3375.75,-56.5"/>
<text text-anchor="middle" x="3436.75" y="-63.5" font-family="Helvetica" font-size="10.00">llvm/Support/Compiler.h</text>
</a>
</g>
</g>
<!-- Node3&#45;&gt;Node6 -->
<g id="edge5" class="edge">
<title>Node3&#45;&gt;Node6</title>
<path fill="none" stroke="midnightblue" d="M1393.51,-229.09C1423.13,-227.3 1459.29,-225.3 1491.75,-224 1663.44,-217.14 2872.81,-236.16 3037.75,-188 3054.21,-183.19 3055.1,-175.02 3070.75,-168 3147.97,-133.36 3171.17,-134.51 3252.75,-112 3298.68,-99.33 3351.56,-86.59 3388.81,-77.91"/>
<polygon fill="midnightblue" stroke="midnightblue" points="3389.93,-81.25 3398.88,-75.58 3388.35,-74.43 3389.93,-81.25"/>
</g>
<!-- Node9 -->
<g id="node9" class="node">
<title>Node9</title>
<g id="a_node9"><a xlink:href="llvm_2Support_2ErrorHandling_8h.html" target="_top" xlink:title=" ">
<polygon fill="none" stroke="black" points="828.25,-112.5 828.25,-131.5 971.25,-131.5 971.25,-112.5 828.25,-112.5"/>
<text text-anchor="middle" x="899.75" y="-119.5" font-family="Helvetica" font-size="10.00">llvm/Support/ErrorHandling.h</text>
</a>
</g>
</g>
<!-- Node3&#45;&gt;Node9 -->
<g id="edge8" class="edge">
<title>Node3&#45;&gt;Node9</title>
<path fill="none" stroke="midnightblue" d="M1272.21,-232.32C1140.6,-230.21 837.71,-221.71 806.75,-188 786.02,-165.42 824.87,-146.27 858.52,-134.72"/>
<polygon fill="midnightblue" stroke="midnightblue" points="859.85,-137.97 868.27,-131.53 857.68,-131.32 859.85,-137.97"/>
</g>
<!-- Node11 -->
<g id="node11" class="node">
<title>Node11</title>
<g id="a_node11"><a xlink:href="MathExtras_8h.html" target="_top" xlink:title=" ">
<polygon fill="none" stroke="black" points="2894.75,-168.5 2894.75,-187.5 3028.75,-187.5 3028.75,-168.5 2894.75,-168.5"/>
<text text-anchor="middle" x="2961.75" y="-175.5" font-family="Helvetica" font-size="10.00">llvm/Support/MathExtras.h</text>
</a>
</g>
</g>
<!-- Node3&#45;&gt;Node11 -->
<g id="edge11" class="edge">
<title>Node3&#45;&gt;Node11</title>
<path fill="none" stroke="midnightblue" d="M1393.51,-229.19C1423.14,-227.43 1459.3,-225.42 1491.75,-224 2024.4,-200.78 2666.13,-185.5 2884.62,-180.66"/>
<polygon fill="midnightblue" stroke="midnightblue" points="2884.78,-184.15 2894.7,-180.43 2884.62,-177.16 2884.78,-184.15"/>
</g>
<!-- Node12 -->
<g id="node12" class="node">
<title>Node12</title>
<g id="a_node12"><a xlink:title=" ">
<polygon fill="none" stroke="#bfbfbf" points="1570.75,-112.5 1570.75,-131.5 1626.75,-131.5 1626.75,-112.5 1570.75,-112.5"/>
<text text-anchor="middle" x="1598.75" y="-119.5" font-family="Helvetica" font-size="10.00">algorithm</text>
</a>
</g>
</g>
<!-- Node3&#45;&gt;Node12 -->
<g id="edge29" class="edge">
<title>Node3&#45;&gt;Node12</title>
<path fill="none" stroke="midnightblue" d="M1353.62,-224.37C1400.44,-205.01 1513.96,-158.06 1568.51,-135.51"/>
<polygon fill="midnightblue" stroke="midnightblue" points="1570.07,-138.65 1577.98,-131.59 1567.4,-132.18 1570.07,-138.65"/>
</g>
<!-- Node13 -->
<g id="node13" class="node">
<title>Node13</title>
<g id="a_node13"><a xlink:title=" ">
<polygon fill="none" stroke="#bfbfbf" points="3335.75,-112.5 3335.75,-131.5 3385.75,-131.5 3385.75,-112.5 3335.75,-112.5"/>
<text text-anchor="middle" x="3360.75" y="-119.5" font-family="Helvetica" font-size="10.00">cassert</text>
</a>
</g>
</g>
<!-- Node3&#45;&gt;Node13 -->
<g id="edge30" class="edge">
<title>Node3&#45;&gt;Node13</title>
<path fill="none" stroke="midnightblue" d="M1393.51,-229.08C1423.13,-227.29 1459.29,-225.29 1491.75,-224 1842.46,-210.08 2722.37,-230.59 3070.75,-188 3164.09,-176.59 3271.51,-148.48 3325.66,-133.23"/>
<polygon fill="midnightblue" stroke="midnightblue" points="3326.78,-136.55 3335.44,-130.45 3324.87,-129.82 3326.78,-136.55"/>
</g>
<!-- Node17 -->
<g id="node17" class="node">
<title>Node17</title>
<g id="a_node17"><a xlink:title=" ">
<polygon fill="none" stroke="#bfbfbf" points="3628.75,-112.5 3628.75,-131.5 3674.75,-131.5 3674.75,-112.5 3628.75,-112.5"/>
<text text-anchor="middle" x="3651.75" y="-119.5" font-family="Helvetica" font-size="10.00">cstring</text>
</a>
</g>
</g>
<!-- Node3&#45;&gt;Node17 -->
<g id="edge33" class="edge">
<title>Node3&#45;&gt;Node17</title>
<path fill="none" stroke="midnightblue" d="M1393.51,-229.07C1423.13,-227.27 1459.29,-225.27 1491.75,-224 1858,-209.64 2776.97,-232.84 3140.75,-188 3180.56,-183.09 3189.19,-174.58 3228.75,-168 3372.89,-144.04 3546.88,-130.24 3618.5,-125.2"/>
<polygon fill="midnightblue" stroke="midnightblue" points="3618.96,-128.68 3628.7,-124.5 3618.48,-121.7 3618.96,-128.68"/>
</g>
<!-- Node3&#45;&gt;Node18 -->
<g id="edge36" class="edge">
<title>Node3&#45;&gt;Node18</title>
<path fill="none" stroke="midnightblue" d="M1272.01,-229.26C1212.88,-224.2 1129.05,-212.78 1108.75,-188 1097.26,-173.97 1107.62,-153.93 1118.08,-139.82"/>
<polygon fill="midnightblue" stroke="midnightblue" points="1120.9,-141.9 1124.42,-131.91 1115.44,-137.53 1120.9,-141.9"/>
</g>
<!-- Node19 -->
<g id="node19" class="node">
<title>Node19</title>
<g id="a_node19"><a xlink:title=" ">
<polygon fill="none" stroke="#bfbfbf" points="2126.75,-112.5 2126.75,-131.5 2188.75,-131.5 2188.75,-112.5 2126.75,-112.5"/>
<text text-anchor="middle" x="2157.75" y="-119.5" font-family="Helvetica" font-size="10.00">type_traits</text>
</a>
</g>
</g>
<!-- Node3&#45;&gt;Node19 -->
<g id="edge39" class="edge">
<title>Node3&#45;&gt;Node19</title>
<path fill="none" stroke="midnightblue" d="M1391.8,-224.47C1480.07,-211.77 1651.69,-187.34 1797.75,-168 1913.03,-152.74 2049.27,-136.08 2116.29,-127.98"/>
<polygon fill="midnightblue" stroke="midnightblue" points="2116.92,-131.43 2126.43,-126.76 2116.08,-124.48 2116.92,-131.43"/>
</g>
<!-- Node20 -->
<g id="node20" class="node">
<title>Node20</title>
<g id="a_node20"><a xlink:href="MemAlloc_8h.html" target="_top" xlink:title="This file defines counterparts of C library allocation functions defined in the namespace &#39;std&#39;.">
<polygon fill="none" stroke="black" points="815.25,-168.5 815.25,-187.5 942.25,-187.5 942.25,-168.5 815.25,-168.5"/>
<text text-anchor="middle" x="878.75" y="-175.5" font-family="Helvetica" font-size="10.00">llvm/Support/MemAlloc.h</text>
</a>
</g>
</g>
<!-- Node3&#45;&gt;Node20 -->
<g id="edge21" class="edge">
<title>Node3&#45;&gt;Node20</title>
<path fill="none" stroke="midnightblue" d="M1271.99,-225.77C1189.29,-215.94 1041.4,-198.35 952.45,-187.77"/>
<polygon fill="midnightblue" stroke="midnightblue" points="952.78,-184.28 942.44,-186.57 951.95,-191.23 952.78,-184.28"/>
</g>
<!-- Node21 -->
<g id="node21" class="node">
<title>Node21</title>
<g id="a_node21"><a xlink:title=" ">
<polygon fill="none" stroke="#bfbfbf" points="760.25,-112.5 760.25,-131.5 805.25,-131.5 805.25,-112.5 760.25,-112.5"/>
<text text-anchor="middle" x="782.75" y="-119.5" font-family="Helvetica" font-size="10.00">cstdlib</text>
</a>
</g>
</g>
<!-- Node3&#45;&gt;Node21 -->
<g id="edge32" class="edge">
<title>Node3&#45;&gt;Node21</title>
<path fill="none" stroke="midnightblue" d="M1272.06,-231.91C1139.24,-228.95 831.82,-218.83 796.75,-188 783.9,-176.7 781.24,-156.7 781.27,-141.86"/>
<polygon fill="midnightblue" stroke="midnightblue" points="784.78,-141.88 781.7,-131.74 777.78,-141.58 784.78,-141.88"/>
</g>
<!-- Node22 -->
<g id="node22" class="node">
<title>Node22</title>
<g id="a_node22"><a xlink:href="type__traits_8h.html" target="_top" xlink:title=" ">
<polygon fill="none" stroke="black" points="2159.25,-168.5 2159.25,-187.5 2288.25,-187.5 2288.25,-168.5 2159.25,-168.5"/>
<text text-anchor="middle" x="2223.75" y="-175.5" font-family="Helvetica" font-size="10.00">llvm/Support/type_traits.h</text>
</a>
</g>
</g>
<!-- Node3&#45;&gt;Node22 -->
<g id="edge25" class="edge">
<title>Node3&#45;&gt;Node22</title>
<path fill="none" stroke="midnightblue" d="M1393.29,-229.33C1551.32,-219.75 1975.98,-194.02 2148.92,-183.54"/>
<polygon fill="midnightblue" stroke="midnightblue" points="2149.18,-187.03 2158.95,-182.93 2148.76,-180.04 2149.18,-187.03"/>
</g>
<!-- Node3&#45;&gt;Node23 -->
<g id="edge31" class="edge">
<title>Node3&#45;&gt;Node23</title>
<path fill="none" stroke="midnightblue" d="M1363.23,-224.42C1410.46,-211.28 1504.25,-185.85 1584.75,-168 1658.25,-151.71 1745.2,-136.53 1792.28,-128.64"/>
<polygon fill="midnightblue" stroke="midnightblue" points="1792.96,-132.08 1802.25,-126.98 1791.81,-125.17 1792.96,-132.08"/>
</g>
<!-- Node24 -->
<g id="node24" class="node">
<title>Node24</title>
<g id="a_node24"><a xlink:title=" ">
<polygon fill="none" stroke="#bfbfbf" points="1210.75,-112.5 1210.75,-131.5 1282.75,-131.5 1282.75,-112.5 1210.75,-112.5"/>
<text text-anchor="middle" x="1246.75" y="-119.5" font-family="Helvetica" font-size="10.00">initializer_list</text>
</a>
</g>
</g>
<!-- Node3&#45;&gt;Node24 -->
<g id="edge34" class="edge">
<title>Node3&#45;&gt;Node24</title>
<path fill="none" stroke="midnightblue" d="M1272.18,-231.62C1239.53,-227.39 1201.75,-216.11 1180.75,-188 1165.88,-168.09 1193,-148.54 1216.84,-136.16"/>
<polygon fill="midnightblue" stroke="midnightblue" points="1218.62,-139.19 1226.05,-131.63 1215.53,-132.91 1218.62,-139.19"/>
</g>
<!-- Node25 -->
<g id="node25" class="node">
<title>Node25</title>
<g id="a_node25"><a xlink:title=" ">
<polygon fill="none" stroke="#bfbfbf" points="1385.25,-112.5 1385.25,-131.5 1432.25,-131.5 1432.25,-112.5 1385.25,-112.5"/>
<text text-anchor="middle" x="1408.75" y="-119.5" font-family="Helvetica" font-size="10.00">iterator</text>
</a>
</g>
</g>
<!-- Node3&#45;&gt;Node25 -->
<g id="edge35" class="edge">
<title>Node3&#45;&gt;Node25</title>
<path fill="none" stroke="midnightblue" d="M1338.72,-224.37C1351.26,-206.22 1380.56,-163.8 1397.01,-139.99"/>
<polygon fill="midnightblue" stroke="midnightblue" points="1400.01,-141.81 1402.82,-131.59 1394.25,-137.83 1400.01,-141.81"/>
</g>
<!-- Node26 -->
<g id="node26" class="node">
<title>Node26</title>
<g id="a_node26"><a xlink:title=" ">
<polygon fill="none" stroke="#bfbfbf" points="663.25,-112.5 663.25,-131.5 716.25,-131.5 716.25,-112.5 663.25,-112.5"/>
<text text-anchor="middle" x="689.75" y="-119.5" font-family="Helvetica" font-size="10.00">memory</text>
</a>
</g>
</g>
<!-- Node3&#45;&gt;Node26 -->
<g id="edge37" class="edge">
<title>Node3&#45;&gt;Node26</title>
<path fill="none" stroke="midnightblue" d="M1272.22,-233.04C1121.33,-232.55 737.62,-227.4 696.75,-188 684.64,-176.32 684.21,-156.38 685.99,-141.65"/>
<polygon fill="midnightblue" stroke="midnightblue" points="689.47,-142.07 687.63,-131.64 682.56,-140.94 689.47,-142.07"/>
</g>
<!-- Node27 -->
<g id="node27" class="node">
<title>Node27</title>
<g id="a_node27"><a xlink:title=" ">
<polygon fill="none" stroke="#bfbfbf" points="457.25,-168.5 457.25,-187.5 492.25,-187.5 492.25,-168.5 457.25,-168.5"/>
<text text-anchor="middle" x="474.75" y="-175.5" font-family="Helvetica" font-size="10.00">new</text>
</a>
</g>
</g>
<!-- Node3&#45;&gt;Node27 -->
<g id="edge38" class="edge">
<title>Node3&#45;&gt;Node27</title>
<path fill="none" stroke="midnightblue" d="M1272.07,-231.42C1107.3,-226.87 654.1,-212.43 506.75,-188 505.29,-187.76 503.81,-187.47 502.31,-187.16"/>
<polygon fill="midnightblue" stroke="midnightblue" points="503.08,-183.75 492.54,-184.75 501.41,-190.54 503.08,-183.75"/>
</g>
<!-- Node4&#45;&gt;Node5 -->
<g id="edge4" class="edge">
<title>Node4&#45;&gt;Node5</title>
<path fill="none" stroke="midnightblue" d="M644.92,-113.13C648.24,-112.74 651.54,-112.36 654.75,-112 804.49,-95.06 983.82,-77.01 1054.24,-70.02"/>
<polygon fill="midnightblue" stroke="midnightblue" points="1054.98,-73.46 1064.59,-68.99 1054.29,-66.49 1054.98,-73.46"/>
</g>
<!-- Node7 -->
<g id="node7" class="node">
<title>Node7</title>
<g id="a_node7"><a xlink:title=" ">
<polygon fill="none" stroke="#bfbfbf" points="3374.25,-0.5 3374.25,-19.5 3499.25,-19.5 3499.25,-0.5 3374.25,-0.5"/>
<text text-anchor="middle" x="3436.75" y="-7.5" font-family="Helvetica" font-size="10.00">llvm/Config/llvm&#45;config.h</text>
</a>
</g>
</g>
<!-- Node6&#45;&gt;Node7 -->
<g id="edge6" class="edge">
<title>Node6&#45;&gt;Node7</title>
<path fill="none" stroke="midnightblue" d="M3436.75,-56.08C3436.75,-49.01 3436.75,-38.86 3436.75,-29.99"/>
<polygon fill="midnightblue" stroke="midnightblue" points="3440.25,-29.75 3436.75,-19.75 3433.25,-29.75 3440.25,-29.75"/>
</g>
<!-- Node8 -->
<g id="node8" class="node">
<title>Node8</title>
<g id="a_node8"><a xlink:title=" ">
<polygon fill="none" stroke="#bfbfbf" points="3635.25,-0.5 3635.25,-19.5 3686.25,-19.5 3686.25,-0.5 3635.25,-0.5"/>
<text text-anchor="middle" x="3660.75" y="-7.5" font-family="Helvetica" font-size="10.00">stddef.h</text>
</a>
</g>
</g>
<!-- Node6&#45;&gt;Node8 -->
<g id="edge7" class="edge">
<title>Node6&#45;&gt;Node8</title>
<path fill="none" stroke="midnightblue" d="M3472.25,-56.44C3514.19,-46.33 3583.54,-29.61 3625.41,-19.52"/>
<polygon fill="midnightblue" stroke="midnightblue" points="3626.28,-22.91 3635.18,-17.16 3624.64,-16.11 3626.28,-22.91"/>
</g>
<!-- Node9&#45;&gt;Node6 -->
<g id="edge9" class="edge">
<title>Node9&#45;&gt;Node6</title>
<path fill="none" stroke="midnightblue" d="M971.5,-115.5C991.33,-114.16 1012.87,-112.86 1032.75,-112 1953.47,-72.25 3074.05,-67.59 3365.02,-67.06"/>
<polygon fill="midnightblue" stroke="midnightblue" points="3365.43,-70.56 3375.42,-67.05 3365.42,-63.56 3365.43,-70.56"/>
</g>
<!-- Node10 -->
<g id="node10" class="node">
<title>Node10</title>
<g id="a_node10"><a xlink:title=" ">
<polygon fill="none" stroke="#bfbfbf" points="934.25,-56.5 934.25,-75.5 975.25,-75.5 975.25,-56.5 934.25,-56.5"/>
<text text-anchor="middle" x="954.75" y="-63.5" font-family="Helvetica" font-size="10.00">string</text>
</a>
</g>
</g>
<!-- Node9&#45;&gt;Node10 -->
<g id="edge10" class="edge">
<title>Node9&#45;&gt;Node10</title>
<path fill="none" stroke="midnightblue" d="M908.83,-112.08C916.92,-104.14 928.95,-92.34 938.66,-82.8"/>
<polygon fill="midnightblue" stroke="midnightblue" points="941.16,-85.25 945.84,-75.75 936.25,-80.26 941.16,-85.25"/>
</g>
<!-- Node11&#45;&gt;Node6 -->
<g id="edge12" class="edge">
<title>Node11&#45;&gt;Node6</title>
<path fill="none" stroke="midnightblue" d="M2970.17,-168.46C2984.96,-154.03 3017.26,-125.12 3050.75,-112 3106.44,-90.18 3270.12,-77 3365.51,-70.96"/>
<polygon fill="midnightblue" stroke="midnightblue" points="3365.9,-74.44 3375.66,-70.33 3365.46,-67.46 3365.9,-74.44"/>
</g>
<!-- Node11&#45;&gt;Node12 -->
<g id="edge13" class="edge">
<title>Node11&#45;&gt;Node12</title>
<path fill="none" stroke="midnightblue" d="M2894.59,-174.59C2715.64,-168.14 2212.42,-149.73 1793.75,-132 1739.32,-129.7 1676.35,-126.74 1637.04,-124.85"/>
<polygon fill="midnightblue" stroke="midnightblue" points="1637,-121.35 1626.84,-124.36 1636.66,-128.34 1637,-121.35"/>
</g>
<!-- Node11&#45;&gt;Node13 -->
<g id="edge14" class="edge">
<title>Node11&#45;&gt;Node13</title>
<path fill="none" stroke="midnightblue" d="M3024.97,-168.44C3109.87,-156.95 3257.82,-136.93 3325.34,-127.79"/>
<polygon fill="midnightblue" stroke="midnightblue" points="3326.02,-131.23 3335.46,-126.42 3325.08,-124.3 3326.02,-131.23"/>
</g>
<!-- Node14 -->
<g id="node14" class="node">
<title>Node14</title>
<g id="a_node14"><a xlink:title=" ">
<polygon fill="none" stroke="#bfbfbf" points="3059.25,-112.5 3059.25,-131.5 3104.25,-131.5 3104.25,-112.5 3059.25,-112.5"/>
<text text-anchor="middle" x="3081.75" y="-119.5" font-family="Helvetica" font-size="10.00">climits</text>
</a>
</g>
</g>
<!-- Node11&#45;&gt;Node14 -->
<g id="edge15" class="edge">
<title>Node11&#45;&gt;Node14</title>
<path fill="none" stroke="midnightblue" d="M2980.77,-168.44C3000.34,-159.64 3031.06,-145.81 3053.48,-135.72"/>
<polygon fill="midnightblue" stroke="midnightblue" points="3055.14,-138.81 3062.83,-131.52 3052.27,-132.43 3055.14,-138.81"/>
</g>
<!-- Node15 -->
<g id="node15" class="node">
<title>Node15</title>
<g id="a_node15"><a xlink:title=" ">
<polygon fill="none" stroke="#bfbfbf" points="2920.75,-112.5 2920.75,-131.5 2964.75,-131.5 2964.75,-112.5 2920.75,-112.5"/>
<text text-anchor="middle" x="2942.75" y="-119.5" font-family="Helvetica" font-size="10.00">cmath</text>
</a>
</g>
</g>
<!-- Node11&#45;&gt;Node15 -->
<g id="edge16" class="edge">
<title>Node11&#45;&gt;Node15</title>
<path fill="none" stroke="midnightblue" d="M2958.61,-168.08C2956.07,-160.85 2952.4,-150.41 2949.22,-141.4"/>
<polygon fill="midnightblue" stroke="midnightblue" points="2952.45,-140.02 2945.83,-131.75 2945.85,-142.35 2952.45,-140.02"/>
</g>
<!-- Node16 -->
<g id="node16" class="node">
<title>Node16</title>
<g id="a_node16"><a xlink:title=" ">
<polygon fill="none" stroke="#bfbfbf" points="2634.75,-112.5 2634.75,-131.5 2680.75,-131.5 2680.75,-112.5 2634.75,-112.5"/>
<text text-anchor="middle" x="2657.75" y="-119.5" font-family="Helvetica" font-size="10.00">cstdint</text>
</a>
</g>
</g>
<!-- Node11&#45;&gt;Node16 -->
<g id="edge17" class="edge">
<title>Node11&#45;&gt;Node16</title>
<path fill="none" stroke="midnightblue" d="M2913.58,-168.44C2851.43,-157.4 2744.9,-138.48 2691.03,-128.91"/>
<polygon fill="midnightblue" stroke="midnightblue" points="2691.45,-125.43 2680.99,-127.13 2690.22,-132.32 2691.45,-125.43"/>
</g>
<!-- Node11&#45;&gt;Node17 -->
<g id="edge18" class="edge">
<title>Node11&#45;&gt;Node17</title>
<path fill="none" stroke="midnightblue" d="M3028.85,-171.75C3173.73,-160.41 3511.39,-133.99 3618.51,-125.6"/>
<polygon fill="midnightblue" stroke="midnightblue" points="3619.02,-129.07 3628.72,-124.8 3618.48,-122.09 3619.02,-129.07"/>
</g>
<!-- Node11&#45;&gt;Node18 -->
<g id="edge19" class="edge">
<title>Node11&#45;&gt;Node18</title>
<path fill="none" stroke="midnightblue" d="M2894.63,-175.7C2593.28,-169.8 1372.5,-145.28 1201.75,-132 1188.99,-131.01 1174.97,-129.29 1162.92,-127.63"/>
<polygon fill="midnightblue" stroke="midnightblue" points="1163.32,-124.15 1152.92,-126.19 1162.32,-131.08 1163.32,-124.15"/>
</g>
<!-- Node11&#45;&gt;Node19 -->
<g id="edge20" class="edge">
<title>Node11&#45;&gt;Node19</title>
<path fill="none" stroke="midnightblue" d="M2894.59,-172.49C2733.64,-161.68 2329.63,-134.54 2199.11,-125.78"/>
<polygon fill="midnightblue" stroke="midnightblue" points="2199.33,-122.28 2189.12,-125.11 2198.86,-129.27 2199.33,-122.28"/>
</g>
<!-- Node20&#45;&gt;Node6 -->
<g id="edge22" class="edge">
<title>Node20&#45;&gt;Node6</title>
<path fill="none" stroke="midnightblue" d="M900.99,-168.46C940.88,-153.61 1027.57,-123.53 1103.75,-112 1331.69,-77.49 2998.75,-68.77 3365.52,-67.26"/>
<polygon fill="midnightblue" stroke="midnightblue" points="3365.75,-70.76 3375.73,-67.22 3365.72,-63.76 3365.75,-70.76"/>
</g>
<!-- Node20&#45;&gt;Node9 -->
<g id="edge23" class="edge">
<title>Node20&#45;&gt;Node9</title>
<path fill="none" stroke="midnightblue" d="M882.22,-168.08C885.06,-160.77 889.18,-150.18 892.71,-141.1"/>
<polygon fill="midnightblue" stroke="midnightblue" points="895.99,-142.34 896.35,-131.75 889.46,-139.8 895.99,-142.34"/>
</g>
<!-- Node20&#45;&gt;Node21 -->
<g id="edge24" class="edge">
<title>Node20&#45;&gt;Node21</title>
<path fill="none" stroke="midnightblue" d="M863.33,-168.32C848.21,-159.82 824.94,-146.73 807.28,-136.8"/>
<polygon fill="midnightblue" stroke="midnightblue" points="808.57,-133.51 798.14,-131.65 805.14,-139.61 808.57,-133.51"/>
</g>
<!-- Node22&#45;&gt;Node5 -->
<g id="edge28" class="edge">
<title>Node22&#45;&gt;Node5</title>
<path fill="none" stroke="midnightblue" d="M2223.17,-168.47C2221.69,-154.06 2216.41,-125.19 2197.75,-112 2152.34,-79.9 1289.63,-69.15 1115.31,-67.3"/>
<polygon fill="midnightblue" stroke="midnightblue" points="1115.09,-63.8 1105.06,-67.2 1115.02,-70.8 1115.09,-63.8"/>
</g>
<!-- Node22&#45;&gt;Node6 -->
<g id="edge26" class="edge">
<title>Node22&#45;&gt;Node6</title>
<path fill="none" stroke="midnightblue" d="M2266.98,-168.48C2340.4,-154.36 2494.31,-126.23 2625.75,-112 2897.93,-82.53 3223.71,-71.88 3365.25,-68.45"/>
<polygon fill="midnightblue" stroke="midnightblue" points="3365.62,-71.94 3375.53,-68.21 3365.45,-64.94 3365.62,-71.94"/>
</g>
<!-- Node22&#45;&gt;Node19 -->
<g id="edge27" class="edge">
<title>Node22&#45;&gt;Node19</title>
<path fill="none" stroke="midnightblue" d="M2213.15,-168.32C2203.3,-160.26 2188.4,-148.08 2176.54,-138.37"/>
<polygon fill="midnightblue" stroke="midnightblue" points="2178.5,-135.46 2168.55,-131.83 2174.07,-140.88 2178.5,-135.46"/>
</g>
<!-- Node28&#45;&gt;Node4 -->
<g id="edge56" class="edge">
<title>Node28&#45;&gt;Node4</title>
<path fill="none" stroke="midnightblue" d="M1500.59,-229.68C1471.58,-227.94 1435.22,-225.79 1402.75,-224 1245.9,-215.36 847.69,-231.54 696.75,-188 691.78,-186.57 636.87,-155.25 604.41,-136.62"/>
<polygon fill="midnightblue" stroke="midnightblue" points="605.94,-133.46 595.53,-131.52 602.45,-139.53 605.94,-133.46"/>
</g>
<!-- Node28&#45;&gt;Node5 -->
<g id="edge65" class="edge">
<title>Node28&#45;&gt;Node5</title>
<path fill="none" stroke="midnightblue" d="M1500.65,-229.04C1398.53,-221.26 1184.9,-203.39 1154.75,-188 1124.77,-172.69 1120.23,-161.35 1103.75,-132 1095.66,-117.58 1090.72,-99.39 1087.92,-85.92"/>
<polygon fill="midnightblue" stroke="midnightblue" points="1091.32,-85.09 1086.04,-75.91 1084.44,-86.38 1091.32,-85.09"/>
</g>
<!-- Node28&#45;&gt;Node6 -->
<g id="edge57" class="edge">
<title>Node28&#45;&gt;Node6</title>
<path fill="none" stroke="midnightblue" d="M1608.88,-231.83C1870.83,-226.13 2997.46,-200.92 3070.75,-188 3137.45,-176.24 3327.49,-107.43 3404.12,-79.14"/>
<polygon fill="midnightblue" stroke="midnightblue" points="3405.57,-82.34 3413.74,-75.58 3403.14,-75.77 3405.57,-82.34"/>
</g>
<!-- Node28&#45;&gt;Node10 -->
<g id="edge63" class="edge">
<title>Node28&#45;&gt;Node10</title>
<path fill="none" stroke="midnightblue" d="M1500.66,-228.95C1392.38,-220.63 1156.39,-201.25 1121.75,-188 1058.75,-163.9 998.03,-109.74 970.36,-82.81"/>
<polygon fill="midnightblue" stroke="midnightblue" points="972.73,-80.24 963.16,-75.69 967.8,-85.21 972.73,-80.24"/>
</g>
<!-- Node28&#45;&gt;Node12 -->
<g id="edge58" class="edge">
<title>Node28&#45;&gt;Node12</title>
<path fill="none" stroke="midnightblue" d="M1558.75,-224.44C1562.91,-215.44 1569.54,-200.83 1574.75,-188 1581.05,-172.5 1587.59,-154.66 1592.25,-141.6"/>
<polygon fill="midnightblue" stroke="midnightblue" points="1595.64,-142.5 1595.67,-131.9 1589.04,-140.16 1595.64,-142.5"/>
</g>
<!-- Node28&#45;&gt;Node13 -->
<g id="edge59" class="edge">
<title>Node28&#45;&gt;Node13</title>
<path fill="none" stroke="midnightblue" d="M1608.82,-232C1882.57,-226.88 3105.79,-203.24 3184.75,-188 3239.77,-177.38 3300.31,-151.68 3334.12,-135.97"/>
<polygon fill="midnightblue" stroke="midnightblue" points="3335.77,-139.06 3343.32,-131.63 3332.78,-132.73 3335.77,-139.06"/>
</g>
<!-- Node28&#45;&gt;Node17 -->
<g id="edge61" class="edge">
<title>Node28&#45;&gt;Node17</title>
<path fill="none" stroke="midnightblue" d="M1609.02,-231.96C1878.7,-226.71 3068.22,-202.91 3232.75,-188 3377.45,-174.89 3548.08,-143.36 3618.65,-129.6"/>
<polygon fill="midnightblue" stroke="midnightblue" points="3619.57,-132.99 3628.71,-127.63 3618.23,-126.12 3619.57,-132.99"/>
</g>
<!-- Node28&#45;&gt;Node18 -->
<g id="edge62" class="edge">
<title>Node28&#45;&gt;Node18</title>
<path fill="none" stroke="midnightblue" d="M1500.64,-228.87C1403.67,-221.12 1207.81,-203.75 1180.75,-188 1162.23,-177.22 1148.73,-156.16 1140.84,-140.93"/>
<polygon fill="midnightblue" stroke="midnightblue" points="1143.79,-138.99 1136.29,-131.51 1137.49,-142.04 1143.79,-138.99"/>
</g>
<!-- Node28&#45;&gt;Node19 -->
<g id="edge64" class="edge">
<title>Node28&#45;&gt;Node19</title>
<path fill="none" stroke="midnightblue" d="M1601.57,-224.46C1716.03,-203.58 2008.58,-150.21 2116.74,-130.48"/>
<polygon fill="midnightblue" stroke="midnightblue" points="2117.41,-133.92 2126.62,-128.68 2116.16,-127.03 2117.41,-133.92"/>
</g>
<!-- Node28&#45;&gt;Node23 -->
<g id="edge60" class="edge">
<title>Node28&#45;&gt;Node23</title>
<path fill="none" stroke="midnightblue" d="M1603.97,-224.49C1639.15,-217.37 1687.09,-205.53 1726.75,-188 1757.14,-174.57 1788.71,-152.45 1808.05,-137.8"/>
<polygon fill="midnightblue" stroke="midnightblue" points="1810.24,-140.53 1816.03,-131.65 1805.97,-134.98 1810.24,-140.53"/>
</g>
<!-- Node29 -->
<g id="node29" class="node">
<title>Node29</title>
<g id="a_node29"><a xlink:href="STLExtras_8h.html" target="_top" xlink:title=" ">
<polygon fill="none" stroke="red" points="1189.25,-168.5 1189.25,-187.5 1304.25,-187.5 1304.25,-168.5 1189.25,-168.5"/>
<text text-anchor="middle" x="1246.75" y="-175.5" font-family="Helvetica" font-size="10.00">llvm/ADT/STLExtras.h</text>
</a>
</g>
</g>
<!-- Node28&#45;&gt;Node29 -->
<g id="edge42" class="edge">
<title>Node28&#45;&gt;Node29</title>
<path fill="none" stroke="midnightblue" d="M1505.95,-224.44C1451.54,-214.9 1363.58,-199.48 1305.46,-189.29"/>
<polygon fill="midnightblue" stroke="midnightblue" points="1305.78,-185.8 1295.33,-187.52 1304.57,-192.69 1305.78,-185.8"/>
</g>
<!-- Node29&#45;&gt;Node4 -->
<g id="edge43" class="edge">
<title>Node29&#45;&gt;Node4</title>
<path fill="none" stroke="midnightblue" d="M1189.11,-173.49C1084.88,-166.94 857.88,-151.82 654.86,-131.96"/>
<polygon fill="midnightblue" stroke="midnightblue" points="655.2,-128.48 644.91,-130.98 654.52,-135.45 655.2,-128.48"/>
</g>
<!-- Node29&#45;&gt;Node5 -->
<g id="edge55" class="edge">
<title>Node29&#45;&gt;Node5</title>
<path fill="none" stroke="midnightblue" d="M1236.33,-168.36C1220.6,-155.47 1189.68,-130.73 1161.75,-112 1144.82,-100.64 1124.94,-89.06 1109.62,-80.5"/>
<polygon fill="midnightblue" stroke="midnightblue" points="1111.18,-77.36 1100.73,-75.58 1107.79,-83.48 1111.18,-77.36"/>
</g>
<!-- Node29&#45;&gt;Node9 -->
<g id="edge44" class="edge">
<title>Node29&#45;&gt;Node9</title>
<path fill="none" stroke="midnightblue" d="M1191.77,-168.44C1130.09,-158.85 1030.14,-143.29 964.68,-133.1"/>
<polygon fill="midnightblue" stroke="midnightblue" points="964.9,-129.6 954.48,-131.52 963.82,-136.51 964.9,-129.6"/>
</g>
<!-- Node29&#45;&gt;Node12 -->
<g id="edge45" class="edge">
<title>Node29&#45;&gt;Node12</title>
<path fill="none" stroke="midnightblue" d="M1302.53,-168.44C1374.55,-157.4 1498.01,-138.45 1560.35,-128.89"/>
<polygon fill="midnightblue" stroke="midnightblue" points="1561.18,-132.31 1570.53,-127.33 1560.12,-125.39 1561.18,-132.31"/>
</g>
<!-- Node29&#45;&gt;Node13 -->
<g id="edge46" class="edge">
<title>Node29&#45;&gt;Node13</title>
<path fill="none" stroke="midnightblue" d="M1304.44,-175.87C1533.42,-171.32 2400.38,-153.59 3113.75,-132 3189.12,-129.72 3277.39,-126.33 3325.34,-124.43"/>
<polygon fill="midnightblue" stroke="midnightblue" points="3325.66,-127.92 3335.51,-124.02 3325.38,-120.92 3325.66,-127.92"/>
</g>
<!-- Node29&#45;&gt;Node16 -->
<g id="edge48" class="edge">
<title>Node29&#45;&gt;Node16</title>
<path fill="none" stroke="midnightblue" d="M1304.25,-174.8C1541.39,-165.72 2439.66,-131.35 2624.41,-124.28"/>
<polygon fill="midnightblue" stroke="midnightblue" points="2624.73,-127.77 2634.59,-123.89 2624.46,-120.77 2624.73,-127.77"/>
</g>
<!-- Node29&#45;&gt;Node18 -->
<g id="edge52" class="edge">
<title>Node29&#45;&gt;Node18</title>
<path fill="none" stroke="midnightblue" d="M1228.69,-168.44C1210.18,-159.68 1181.17,-145.94 1159.9,-135.86"/>
<polygon fill="midnightblue" stroke="midnightblue" points="1161.27,-132.63 1150.73,-131.52 1158.27,-138.96 1161.27,-132.63"/>
</g>
<!-- Node29&#45;&gt;Node19 -->
<g id="edge54" class="edge">
<title>Node29&#45;&gt;Node19</title>
<path fill="none" stroke="midnightblue" d="M1304.43,-173.58C1474.23,-163.52 1969.59,-134.15 2116.33,-125.46"/>
<polygon fill="midnightblue" stroke="midnightblue" points="2116.91,-128.93 2126.68,-124.84 2116.49,-121.94 2116.91,-128.93"/>
</g>
<!-- Node29&#45;&gt;Node21 -->
<g id="edge49" class="edge">
<title>Node29&#45;&gt;Node21</title>
<path fill="none" stroke="midnightblue" d="M1189.09,-173.38C1106.73,-167.65 950.85,-154.75 819.75,-132 818.29,-131.75 816.79,-131.47 815.29,-131.17"/>
<polygon fill="midnightblue" stroke="midnightblue" points="815.87,-127.71 805.35,-129 814.38,-134.55 815.87,-127.71"/>
</g>
<!-- Node29&#45;&gt;Node23 -->
<g id="edge47" class="edge">
<title>Node29&#45;&gt;Node23</title>
<path fill="none" stroke="midnightblue" d="M1304.48,-171.62C1424.07,-160.49 1695.72,-135.2 1792.07,-126.23"/>
<polygon fill="midnightblue" stroke="midnightblue" points="1792.52,-129.7 1802.15,-125.29 1791.87,-122.73 1792.52,-129.7"/>
</g>
<!-- Node29&#45;&gt;Node24 -->
<g id="edge50" class="edge">
<title>Node29&#45;&gt;Node24</title>
<path fill="none" stroke="midnightblue" d="M1246.75,-168.08C1246.75,-161.01 1246.75,-150.86 1246.75,-141.99"/>
<polygon fill="midnightblue" stroke="midnightblue" points="1250.25,-141.75 1246.75,-131.75 1243.25,-141.75 1250.25,-141.75"/>
</g>
<!-- Node29&#45;&gt;Node25 -->
<g id="edge51" class="edge">
<title>Node29&#45;&gt;Node25</title>
<path fill="none" stroke="midnightblue" d="M1272.42,-168.44C1300.24,-159.17 1344.72,-144.34 1375.27,-134.16"/>
<polygon fill="midnightblue" stroke="midnightblue" points="1376.67,-137.38 1385.05,-130.9 1374.45,-130.74 1376.67,-137.38"/>
</g>
<!-- Node29&#45;&gt;Node26 -->
<g id="edge53" class="edge">
<title>Node29&#45;&gt;Node26</title>
<path fill="none" stroke="midnightblue" d="M1189.11,-172.77C1096.67,-165.75 909.65,-150.62 751.75,-132 743.46,-131.02 734.56,-129.82 726.17,-128.62"/>
<polygon fill="midnightblue" stroke="midnightblue" points="726.66,-125.15 716.26,-127.17 725.65,-132.08 726.66,-125.15"/>
</g>
<!-- Node44&#45;&gt;Node8 -->
<g id="edge69" class="edge">
<title>Node44&#45;&gt;Node8</title>
<path fill="none" stroke="midnightblue" d="M4044.75,-560.44C4044.75,-541.94 4044.75,-496.81 4044.75,-459 4044.75,-459 4044.75,-459 4044.75,-121 4044.75,-48.98 3791.95,-21.41 3696.58,-13.58"/>
<polygon fill="midnightblue" stroke="midnightblue" points="3696.79,-10.08 3686.54,-12.78 3696.23,-17.06 3696.79,-10.08"/>
</g>
<!-- Node35 -->
<g id="node31" class="node">
<title>Node35</title>
<g id="a_node31"><a xlink:title=" ">
<polygon fill="none" stroke="#bfbfbf" points="4072.75,-504.5 4072.75,-523.5 4120.75,-523.5 4120.75,-504.5 4072.75,-504.5"/>
<text text-anchor="middle" x="4096.75" y="-511.5" font-family="Helvetica" font-size="10.00">stdint.h</text>
</a>
</g>
</g>
<!-- Node44&#45;&gt;Node35 -->
<g id="edge70" class="edge">
<title>Node44&#45;&gt;Node35</title>
<path fill="none" stroke="midnightblue" d="M4053.34,-560.08C4060.91,-552.22 4072.13,-540.57 4081.27,-531.08"/>
<polygon fill="midnightblue" stroke="midnightblue" points="4083.91,-533.38 4088.32,-523.75 4078.87,-528.53 4083.91,-533.38"/>
</g>
<!-- Node45&#45;&gt;Node4 -->
<g id="edge120" class="edge">
<title>Node45&#45;&gt;Node4</title>
<path fill="none" stroke="midnightblue" d="M1657.63,-565.27C1546.49,-558.33 1303.91,-542.45 1099.75,-524 630.82,-481.62 397.26,-678.02 53.75,-356 -7.28,-298.79 -23.46,-216.42 44.75,-168 81.55,-141.88 368.34,-129.55 506.64,-125.08"/>
<polygon fill="midnightblue" stroke="midnightblue" points="506.85,-128.57 516.74,-124.75 506.63,-121.57 506.85,-128.57"/>
</g>
<!-- Node45&#45;&gt;Node13 -->
<g id="edge177" class="edge">
<title>Node45&#45;&gt;Node13</title>
<path fill="none" stroke="midnightblue" d="M1779.82,-567.26C2117.47,-557.27 3740.75,-503.99 3740.75,-403 3740.75,-403 3740.75,-403 3740.75,-233 3740.75,-161.66 3490.51,-133.67 3396.17,-125.65"/>
<polygon fill="midnightblue" stroke="midnightblue" points="3396.23,-122.14 3385.98,-124.81 3395.66,-129.12 3396.23,-122.14"/>
</g>
<!-- Node45&#45;&gt;Node16 -->
<g id="edge178" class="edge">
<title>Node45&#45;&gt;Node16</title>
<path fill="none" stroke="midnightblue" d="M1779.79,-569.39C2011.65,-570.06 2824.75,-564.89 2824.75,-459 2824.75,-459 2824.75,-459 2824.75,-345 2824.75,-249.57 2724.98,-169.04 2679.67,-137.38"/>
<polygon fill="midnightblue" stroke="midnightblue" points="2681.37,-134.3 2671.14,-131.55 2677.42,-140.08 2681.37,-134.3"/>
</g>
<!-- Node45&#45;&gt;Node26 -->
<g id="edge179" class="edge">
<title>Node45&#45;&gt;Node26</title>
<path fill="none" stroke="midnightblue" d="M1657.55,-564.57C1401.63,-544.79 420.85,-456 212.75,-244 186.7,-217.46 152.47,-195.27 177.75,-168 212.23,-130.82 568.01,-139.56 653.15,-131.43"/>
<polygon fill="midnightblue" stroke="midnightblue" points="653.63,-134.9 663.12,-130.19 652.77,-127.95 653.63,-134.9"/>
</g>
<!-- Node45&#45;&gt;Node28 -->
<g id="edge111" class="edge">
<title>Node45&#45;&gt;Node28</title>
<path fill="none" stroke="midnightblue" d="M1717.72,-560.36C1713.83,-528.89 1699.36,-420.76 1680.75,-392 1666.07,-369.31 1650.26,-375.69 1631.75,-356 1611.49,-334.44 1611.64,-324.96 1595.75,-300 1585.49,-283.88 1573.87,-265.45 1565.63,-252.34"/>
<polygon fill="midnightblue" stroke="midnightblue" points="1568.58,-250.45 1560.3,-243.85 1562.65,-254.18 1568.58,-250.45"/>
</g>
<!-- Node46 -->
<g id="node33" class="node">
<title>Node46</title>
<g id="a_node33"><a xlink:href="DenseMapInfo_8h.html" target="_top" xlink:title=" ">
<polygon fill="none" stroke="black" points="2664.75,-336.5 2664.75,-355.5 2796.75,-355.5 2796.75,-336.5 2664.75,-336.5"/>
<text text-anchor="middle" x="2730.75" y="-343.5" font-family="Helvetica" font-size="10.00">llvm/ADT/DenseMapInfo.h</text>
</a>
</g>
</g>
<!-- Node45&#45;&gt;Node46 -->
<g id="edge72" class="edge">
<title>Node45&#45;&gt;Node46</title>
<path fill="none" stroke="midnightblue" d="M1780.04,-567.79C1981.85,-563.58 2614.75,-548.48 2650.75,-524 2705.33,-486.88 2723.22,-403.04 2728.61,-365.63"/>
<polygon fill="midnightblue" stroke="midnightblue" points="2732.1,-365.98 2729.91,-355.61 2725.16,-365.08 2732.1,-365.98"/>
</g>
<!-- Node52 -->
<g id="node39" class="node">
<title>Node52</title>
<g id="a_node39"><a xlink:href="Triple_8h.html" target="_top" xlink:title=" ">
<polygon fill="none" stroke="black" points="1463.75,-392.5 1463.75,-411.5 1555.75,-411.5 1555.75,-392.5 1463.75,-392.5"/>
<text text-anchor="middle" x="1509.75" y="-399.5" font-family="Helvetica" font-size="10.00">llvm/ADT/Triple.h</text>
</a>
</g>
</g>
<!-- Node45&#45;&gt;Node52 -->
<g id="edge112" class="edge">
<title>Node45&#45;&gt;Node52</title>
<path fill="none" stroke="midnightblue" d="M1707.81,-560.31C1674.02,-533.47 1571.06,-451.69 1528.48,-417.88"/>
<polygon fill="midnightblue" stroke="midnightblue" points="1530.59,-415.08 1520.59,-411.61 1526.24,-420.57 1530.59,-415.08"/>
</g>
<!-- Node54 -->
<g id="node41" class="node">
<title>Node54</title>
<g id="a_node41"><a xlink:href="Magic_8h.html" target="_top" xlink:title=" ">
<polygon fill="none" stroke="black" points="2359.75,-448.5 2359.75,-467.5 2493.75,-467.5 2493.75,-448.5 2359.75,-448.5"/>
<text text-anchor="middle" x="2426.75" y="-455.5" font-family="Helvetica" font-size="10.00">llvm/BinaryFormat/Magic.h</text>
</a>
</g>
</g>
<!-- Node45&#45;&gt;Node54 -->
<g id="edge121" class="edge">
<title>Node45&#45;&gt;Node54</title>
<path fill="none" stroke="midnightblue" d="M1773.72,-560.46C1902.56,-540.44 2223.6,-490.56 2361.79,-469.09"/>
<polygon fill="midnightblue" stroke="midnightblue" points="2362.48,-472.53 2371.82,-467.53 2361.4,-465.61 2362.48,-472.53"/>
</g>
<!-- Node55 -->
<g id="node42" class="node">
<title>Node55</title>
<g id="a_node42"><a xlink:title=" ">
<polygon fill="none" stroke="#bfbfbf" points="2478.75,-280.5 2478.75,-299.5 2550.75,-299.5 2550.75,-280.5 2478.75,-280.5"/>
<text text-anchor="middle" x="2514.75" y="-287.5" font-family="Helvetica" font-size="10.00">system_error</text>
</a>
</g>
</g>
<!-- Node45&#45;&gt;Node55 -->
<g id="edge180" class="edge">
<title>Node45&#45;&gt;Node55</title>
<path fill="none" stroke="midnightblue" d="M1779.77,-567.05C1967.16,-560.26 2521.75,-533.84 2521.75,-459 2521.75,-459 2521.75,-459 2521.75,-401 2521.75,-368.88 2518.74,-331.6 2516.67,-309.73"/>
<polygon fill="midnightblue" stroke="midnightblue" points="2520.13,-309.15 2515.67,-299.55 2513.17,-309.84 2520.13,-309.15"/>
</g>
<!-- Node56 -->
<g id="node43" class="node">
<title>Node56</title>
<g id="a_node43"><a xlink:href="Binary_8h.html" target="_top" xlink:title=" ">
<polygon fill="none" stroke="black" points="1364.25,-448.5 1364.25,-467.5 1469.25,-467.5 1469.25,-448.5 1364.25,-448.5"/>
<text text-anchor="middle" x="1416.75" y="-455.5" font-family="Helvetica" font-size="10.00">llvm/Object/Binary.h</text>
</a>
</g>
</g>
<!-- Node45&#45;&gt;Node56 -->
<g id="edge123" class="edge">
<title>Node45&#45;&gt;Node56</title>
<path fill="none" stroke="midnightblue" d="M1679.55,-560.49C1645.51,-552.61 1595.16,-539.74 1552.75,-524 1512.55,-509.08 1468.08,-486.63 1441.29,-472.4"/>
<polygon fill="midnightblue" stroke="midnightblue" points="1442.73,-469.2 1432.26,-467.56 1439.42,-475.37 1442.73,-469.2"/>
</g>
<!-- Node59 -->
<g id="node45" class="node">
<title>Node59</title>
<g id="a_node45"><a xlink:href="llvm_2Object_2Error_8h.html" target="_top" xlink:title=" ">
<polygon fill="none" stroke="black" points="1573.75,-392.5 1573.75,-411.5 1671.75,-411.5 1671.75,-392.5 1573.75,-392.5"/>
<text text-anchor="middle" x="1622.75" y="-399.5" font-family="Helvetica" font-size="10.00">llvm/Object/Error.h</text>
</a>
</g>
</g>
<!-- Node45&#45;&gt;Node59 -->
<g id="edge156" class="edge">
<title>Node45&#45;&gt;Node59</title>
<path fill="none" stroke="midnightblue" d="M1711.76,-560.31C1704.78,-551.45 1693.94,-537.16 1685.75,-524 1663.85,-488.79 1642.44,-445.14 1631.09,-421.07"/>
<polygon fill="midnightblue" stroke="midnightblue" points="1634.15,-419.34 1626.74,-411.76 1627.8,-422.3 1634.15,-419.34"/>
</g>
<!-- Node60 -->
<g id="node46" class="node">
<title>Node60</title>
<g id="a_node46"><a xlink:href="llvm_2Support_2Error_8h.html" target="_top" xlink:title=" ">
<polygon fill="none" stroke="red" points="1198.75,-336.5 1198.75,-355.5 1302.75,-355.5 1302.75,-336.5 1198.75,-336.5"/>
<text text-anchor="middle" x="1250.75" y="-343.5" font-family="Helvetica" font-size="10.00">llvm/Support/Error.h</text>
</a>
</g>
</g>
<!-- Node45&#45;&gt;Node60 -->
<g id="edge175" class="edge">
<title>Node45&#45;&gt;Node60</title>
<path fill="none" stroke="midnightblue" d="M1657.57,-565.53C1575.34,-558.3 1427.42,-536.1 1322.75,-468 1295.03,-449.96 1290.46,-440.54 1273.75,-412 1265.25,-397.47 1259.15,-379.29 1255.38,-365.85"/>
<polygon fill="midnightblue" stroke="midnightblue" points="1258.68,-364.65 1252.75,-355.87 1251.91,-366.43 1258.68,-364.65"/>
</g>
<!-- Node70 -->
<g id="node47" class="node">
<title>Node70</title>
<g id="a_node47"><a xlink:href="MemoryBuffer_8h.html" target="_top" xlink:title=" ">
<polygon fill="none" stroke="red" points="1640.25,-336.5 1640.25,-355.5 1785.25,-355.5 1785.25,-336.5 1640.25,-336.5"/>
<text text-anchor="middle" x="1712.75" y="-343.5" font-family="Helvetica" font-size="10.00">llvm/Support/MemoryBuffer.h</text>
</a>
</g>
</g>
<!-- Node45&#45;&gt;Node70 -->
<g id="edge176" class="edge">
<title>Node45&#45;&gt;Node70</title>
<path fill="none" stroke="midnightblue" d="M1718.52,-560.3C1717.63,-527.63 1714.51,-411.87 1713.26,-365.96"/>
<polygon fill="midnightblue" stroke="midnightblue" points="1716.76,-365.79 1712.99,-355.88 1709.76,-365.97 1716.76,-365.79"/>
</g>
<!-- Node74 -->
<g id="node48" class="node">
<title>Node74</title>
<g id="a_node48"><a xlink:href="SymbolicFile_8h.html" target="_top" xlink:title=" ">
<polygon fill="none" stroke="red" points="1765.75,-504.5 1765.75,-523.5 1899.75,-523.5 1899.75,-504.5 1765.75,-504.5"/>
<text text-anchor="middle" x="1832.75" y="-511.5" font-family="Helvetica" font-size="10.00">llvm/Object/SymbolicFile.h</text>
</a>
</g>
</g>
<!-- Node45&#45;&gt;Node74 -->
<g id="edge157" class="edge">
<title>Node45&#45;&gt;Node74</title>
<path fill="none" stroke="midnightblue" d="M1736.82,-560.44C1755.33,-551.68 1784.33,-537.94 1805.61,-527.86"/>
<polygon fill="midnightblue" stroke="midnightblue" points="1807.23,-530.96 1814.77,-523.52 1804.24,-524.63 1807.23,-530.96"/>
</g>
<!-- Node72 -->
<g id="node49" class="node">
<title>Node72</title>
<g id="a_node49"><a xlink:href="Casting_8h.html" target="_top" xlink:title=" ">
<polygon fill="none" stroke="black" points="2479.75,-224.5 2479.75,-243.5 2595.75,-243.5 2595.75,-224.5 2479.75,-224.5"/>
<text text-anchor="middle" x="2537.75" y="-231.5" font-family="Helvetica" font-size="10.00">llvm/Support/Casting.h</text>
</a>
</g>
</g>
<!-- Node45&#45;&gt;Node72 -->
<g id="edge169" class="edge">
<title>Node45&#45;&gt;Node72</title>
<path fill="none" stroke="midnightblue" d="M1780.05,-568.11C1985.48,-564.33 2636.75,-545.53 2636.75,-459 2636.75,-459 2636.75,-459 2636.75,-401 2636.75,-338.09 2583.65,-278.29 2555.23,-250.78"/>
<polygon fill="midnightblue" stroke="midnightblue" points="2557.29,-247.92 2547.61,-243.61 2552.49,-253.02 2557.29,-247.92"/>
</g>
<!-- Node46&#45;&gt;Node5 -->
<g id="edge110" class="edge">
<title>Node46&#45;&gt;Node5</title>
<path fill="none" stroke="midnightblue" d="M2732.75,-336.16C2740.22,-300.46 2762.57,-166.2 2689.75,-112 2624.19,-63.2 1331.49,-66.05 1115.3,-66.87"/>
<polygon fill="midnightblue" stroke="midnightblue" points="1114.99,-63.37 1105.01,-66.91 1115.02,-70.37 1114.99,-63.37"/>
</g>
<!-- Node46&#45;&gt;Node13 -->
<g id="edge107" class="edge">
<title>Node46&#45;&gt;Node13</title>
<path fill="none" stroke="midnightblue" d="M2796.86,-344C2993.62,-340.7 3563.53,-328.69 3590.75,-300 3631.25,-257.32 3620.33,-211.53 3580.75,-168 3556.42,-141.24 3451.79,-129.63 3396.04,-125.27"/>
<polygon fill="midnightblue" stroke="midnightblue" points="3396.14,-121.77 3385.91,-124.51 3395.62,-128.75 3396.14,-121.77"/>
</g>
<!-- Node46&#45;&gt;Node16 -->
<g id="edge109" class="edge">
<title>Node46&#45;&gt;Node16</title>
<path fill="none" stroke="midnightblue" d="M2730.07,-336.5C2727.7,-310.28 2718.44,-228.78 2690.75,-168 2686.09,-157.77 2678.88,-147.57 2672.38,-139.47"/>
<polygon fill="midnightblue" stroke="midnightblue" points="2674.88,-137.01 2665.77,-131.61 2669.53,-141.52 2674.88,-137.01"/>
</g>
<!-- Node46&#45;&gt;Node23 -->
<g id="edge108" class="edge">
<title>Node46&#45;&gt;Node23</title>
<path fill="none" stroke="midnightblue" d="M2713.3,-336.46C2682.92,-322.03 2618,-293.13 2559.75,-280 2364.89,-236.07 2305.74,-291.65 2111.75,-244 2010.41,-219.11 1898.88,-162.39 1850.89,-136.43"/>
<polygon fill="midnightblue" stroke="midnightblue" points="1852.35,-133.24 1841.9,-131.52 1849,-139.38 1852.35,-133.24"/>
</g>
<!-- Node46&#45;&gt;Node28 -->
<g id="edge106" class="edge">
<title>Node46&#45;&gt;Node28</title>
<path fill="none" stroke="midnightblue" d="M2664.65,-345.64C2523.03,-346.09 2180.18,-342.25 1896.75,-300 1860.08,-294.53 1852.05,-287.6 1815.75,-280 1778.75,-272.25 1681.58,-255.89 1616.82,-245.18"/>
<polygon fill="midnightblue" stroke="midnightblue" points="1617.15,-241.68 1606.71,-243.51 1616.01,-248.59 1617.15,-241.68"/>
</g>
<!-- Node47 -->
<g id="node34" class="node">
<title>Node47</title>
<g id="a_node34"><a xlink:href="APInt_8h.html" target="_top" xlink:title="This file implements a class to represent arbitrary precision integral constant values and operations...">
<polygon fill="none" stroke="black" points="3485.75,-224.5 3485.75,-243.5 3577.75,-243.5 3577.75,-224.5 3485.75,-224.5"/>
<text text-anchor="middle" x="3531.75" y="-231.5" font-family="Helvetica" font-size="10.00">llvm/ADT/APInt.h</text>
</a>
</g>
</g>
<!-- Node46&#45;&gt;Node47 -->
<g id="edge73" class="edge">
<title>Node46&#45;&gt;Node47</title>
<path fill="none" stroke="midnightblue" d="M2795.72,-336.44C2924.67,-319.39 3222.09,-279.74 3471.75,-244 3473.01,-243.82 3474.29,-243.64 3475.58,-243.45"/>
<polygon fill="midnightblue" stroke="midnightblue" points="3476.18,-246.9 3485.57,-241.99 3475.17,-239.97 3476.18,-246.9"/>
</g>
<!-- Node48 -->
<g id="node35" class="node">
<title>Node48</title>
<g id="a_node35"><a xlink:href="APSInt_8h.html" target="_top" xlink:title=" ">
<polygon fill="none" stroke="black" points="3482.25,-280.5 3482.25,-299.5 3581.25,-299.5 3581.25,-280.5 3482.25,-280.5"/>
<text text-anchor="middle" x="3531.75" y="-287.5" font-family="Helvetica" font-size="10.00">llvm/ADT/APSInt.h</text>
</a>
</g>
</g>
<!-- Node46&#45;&gt;Node48 -->
<g id="edge80" class="edge">
<title>Node46&#45;&gt;Node48</title>
<path fill="none" stroke="midnightblue" d="M2796.98,-340.54C2949.8,-330.23 3325.17,-304.93 3471.74,-295.05"/>
<polygon fill="midnightblue" stroke="midnightblue" points="3472.15,-298.53 3481.89,-294.36 3471.68,-291.54 3472.15,-298.53"/>
</g>
<!-- Node49 -->
<g id="node36" class="node">
<title>Node49</title>
<g id="a_node36"><a xlink:href="ArrayRef_8h.html" target="_top" xlink:title=" ">
<polygon fill="none" stroke="red" points="1905.75,-280.5 1905.75,-299.5 2011.75,-299.5 2011.75,-280.5 1905.75,-280.5"/>
<text text-anchor="middle" x="1958.75" y="-287.5" font-family="Helvetica" font-size="10.00">llvm/ADT/ArrayRef.h</text>
</a>
</g>
</g>
<!-- Node46&#45;&gt;Node49 -->
<g id="edge82" class="edge">
<title>Node46&#45;&gt;Node49</title>
<path fill="none" stroke="midnightblue" d="M2664.6,-340.37C2517.67,-330.1 2165.78,-305.48 2021.8,-295.41"/>
<polygon fill="midnightblue" stroke="midnightblue" points="2022.01,-291.92 2011.79,-294.71 2021.52,-298.9 2022.01,-291.92"/>
</g>
<!-- Node31 -->
<g id="node37" class="node">
<title>Node31</title>
<g id="a_node37"><a xlink:href="Hashing_8h.html" target="_top" xlink:title=" ">
<polygon fill="none" stroke="red" points="2120.75,-224.5 2120.75,-243.5 2224.75,-243.5 2224.75,-224.5 2120.75,-224.5"/>
<text text-anchor="middle" x="2172.75" y="-231.5" font-family="Helvetica" font-size="10.00">llvm/ADT/Hashing.h</text>
</a>
</g>
</g>
<!-- Node46&#45;&gt;Node31 -->
<g id="edge105" class="edge">
<title>Node46&#45;&gt;Node31</title>
<path fill="none" stroke="midnightblue" d="M2721.11,-336.4C2704.2,-321.9 2667.49,-292.88 2630.75,-280 2559.35,-254.97 2342.93,-242.35 2235.14,-237.47"/>
<polygon fill="midnightblue" stroke="midnightblue" points="2235.2,-233.97 2225.05,-237.02 2234.89,-240.96 2235.2,-233.97"/>
</g>
<!-- Node47&#45;&gt;Node6 -->
<g id="edge74" class="edge">
<title>Node47&#45;&gt;Node6</title>
<path fill="none" stroke="midnightblue" d="M3577.93,-225.98C3582.59,-225.3 3587.27,-224.63 3591.75,-224 3653.23,-215.4 3827.79,-234.64 3868.75,-188 3891.04,-162.62 3891.37,-137.09 3868.75,-112 3845.11,-85.77 3624.71,-73.83 3508.2,-69.31"/>
<polygon fill="midnightblue" stroke="midnightblue" points="3508.06,-65.81 3497.94,-68.92 3507.8,-72.8 3508.06,-65.81"/>
</g>
<!-- Node47&#45;&gt;Node10 -->
<g id="edge79" class="edge">
<title>Node47&#45;&gt;Node10</title>
<path fill="none" stroke="midnightblue" d="M3485.64,-226.65C3431.69,-218.91 3339.81,-204.77 3261.75,-188 3257.71,-187.13 2977.85,-112.57 2973.75,-112 2551.53,-53.19 1481.43,-98.93 1055.75,-76 1032.21,-74.73 1005.66,-72.33 985.69,-70.32"/>
<polygon fill="midnightblue" stroke="midnightblue" points="985.92,-66.83 975.61,-69.29 985.2,-73.79 985.92,-66.83"/>
</g>
<!-- Node47&#45;&gt;Node11 -->
<g id="edge75" class="edge">
<title>Node47&#45;&gt;Node11</title>
<path fill="none" stroke="midnightblue" d="M3485.59,-228.63C3387.99,-219.38 3159.78,-197.76 3039.35,-186.35"/>
<polygon fill="midnightblue" stroke="midnightblue" points="3039.38,-182.84 3029.1,-185.38 3038.72,-189.81 3039.38,-182.84"/>
</g>
<!-- Node47&#45;&gt;Node13 -->
<g id="edge76" class="edge">
<title>Node47&#45;&gt;Node13</title>
<path fill="none" stroke="midnightblue" d="M3542.05,-224.35C3556.41,-211.23 3579.18,-185.96 3564.75,-168 3543.98,-142.14 3448.76,-130.26 3396.07,-125.59"/>
<polygon fill="midnightblue" stroke="midnightblue" points="3396.09,-122.08 3385.83,-124.72 3395.5,-129.05 3396.09,-122.08"/>
</g>
<!-- Node47&#45;&gt;Node14 -->
<g id="edge77" class="edge">
<title>Node47&#45;&gt;Node14</title>
<path fill="none" stroke="midnightblue" d="M3496.82,-224.46C3412.06,-203.74 3196.45,-151.04 3114.26,-130.95"/>
<polygon fill="midnightblue" stroke="midnightblue" points="3115.01,-127.53 3104.47,-128.55 3113.35,-134.33 3115.01,-127.53"/>
</g>
<!-- Node47&#45;&gt;Node17 -->
<g id="edge78" class="edge">
<title>Node47&#45;&gt;Node17</title>
<path fill="none" stroke="midnightblue" d="M3577.96,-225.8C3651.99,-214.17 3789.29,-192.1 3792.75,-188 3825,-149.72 3736.26,-132.77 3685.1,-126.35"/>
<polygon fill="midnightblue" stroke="midnightblue" points="3685.46,-122.87 3675.11,-125.17 3684.63,-129.82 3685.46,-122.87"/>
</g>
<!-- Node48&#45;&gt;Node47 -->
<g id="edge81" class="edge">
<title>Node48&#45;&gt;Node47</title>
<path fill="none" stroke="midnightblue" d="M3531.75,-280.08C3531.75,-273.01 3531.75,-262.86 3531.75,-253.99"/>
<polygon fill="midnightblue" stroke="midnightblue" points="3535.25,-253.75 3531.75,-243.75 3528.25,-253.75 3535.25,-253.75"/>
</g>
<!-- Node49&#45;&gt;Node3 -->
<g id="edge95" class="edge">
<title>Node49&#45;&gt;Node3</title>
<path fill="none" stroke="midnightblue" d="M1905.65,-284.42C1792.97,-274.7 1529.94,-252.01 1403.32,-241.09"/>
<polygon fill="midnightblue" stroke="midnightblue" points="1403.6,-237.6 1393.34,-240.23 1403,-244.57 1403.6,-237.6"/>
</g>
<!-- Node49&#45;&gt;Node6 -->
<g id="edge97" class="edge">
<title>Node49&#45;&gt;Node6</title>
<path fill="none" stroke="midnightblue" d="M2011.85,-288.07C2274.4,-283.39 3427.57,-261.99 3586.75,-244 3631.79,-238.91 3642.22,-232.42 3686.75,-224 3731.55,-215.53 3859.48,-222.96 3888.75,-188 3910.44,-162.1 3911.42,-137.04 3888.75,-112 3863.74,-84.38 3629.32,-73.01 3508.3,-68.96"/>
<polygon fill="midnightblue" stroke="midnightblue" points="3508.13,-65.45 3498.02,-68.62 3507.9,-72.45 3508.13,-65.45"/>
</g>
<!-- Node49&#45;&gt;Node12 -->
<g id="edge98" class="edge">
<title>Node49&#45;&gt;Node12</title>
<path fill="none" stroke="midnightblue" d="M1940.15,-280.42C1881.02,-253.16 1697.1,-168.35 1626.62,-135.85"/>
<polygon fill="midnightblue" stroke="midnightblue" points="1628,-132.63 1617.45,-131.62 1625.07,-138.99 1628,-132.63"/>
</g>
<!-- Node49&#45;&gt;Node13 -->
<g id="edge99" class="edge">
<title>Node49&#45;&gt;Node13</title>
<path fill="none" stroke="midnightblue" d="M2011.94,-287.75C2232,-282.48 3065.21,-261.53 3181.75,-244 3276.85,-229.7 3332.21,-264.29 3390.75,-188 3402.26,-173 3389.5,-152.87 3377.24,-139.01"/>
<polygon fill="midnightblue" stroke="midnightblue" points="3379.69,-136.51 3370.27,-131.66 3374.61,-141.32 3379.69,-136.51"/>
</g>
<!-- Node49&#45;&gt;Node19 -->
<g id="edge104" class="edge">
<title>Node49&#45;&gt;Node19</title>
<path fill="none" stroke="midnightblue" d="M1969.17,-280.31C2001.28,-253.53 2098.97,-172.03 2139.66,-138.09"/>
<polygon fill="midnightblue" stroke="midnightblue" points="2142,-140.7 2147.44,-131.61 2137.52,-135.32 2142,-140.7"/>
</g>
<!-- Node49&#45;&gt;Node23 -->
<g id="edge100" class="edge">
<title>Node49&#45;&gt;Node23</title>
<path fill="none" stroke="midnightblue" d="M1951.66,-280.08C1930.52,-253.49 1867.73,-174.54 1840.08,-139.76"/>
<polygon fill="midnightblue" stroke="midnightblue" points="1842.53,-137.22 1833.57,-131.57 1837.05,-141.57 1842.53,-137.22"/>
</g>
<!-- Node49&#45;&gt;Node24 -->
<g id="edge101" class="edge">
<title>Node49&#45;&gt;Node24</title>
<path fill="none" stroke="midnightblue" d="M1917.84,-280.49C1875.66,-271.65 1808.02,-257.28 1749.75,-244 1579.8,-205.27 1378.46,-155.72 1290.99,-134.02"/>
<polygon fill="midnightblue" stroke="midnightblue" points="1291.69,-130.59 1281.14,-131.57 1290,-137.38 1291.69,-130.59"/>
</g>
<!-- Node49&#45;&gt;Node25 -->
<g id="edge102" class="edge">
<title>Node49&#45;&gt;Node25</title>
<path fill="none" stroke="midnightblue" d="M1930.34,-280.42C1837.3,-252.34 1542.01,-163.22 1442.14,-133.08"/>
<polygon fill="midnightblue" stroke="midnightblue" points="1443.14,-129.72 1432.56,-130.18 1441.12,-136.42 1443.14,-129.72"/>
</g>
<!-- Node49&#45;&gt;Node26 -->
<g id="edge103" class="edge">
<title>Node49&#45;&gt;Node26</title>
<path fill="none" stroke="midnightblue" d="M1905.55,-286.43C1640.5,-273.52 474.18,-215.23 448.75,-188 402.39,-138.34 309.43,-204.28 653.03,-132.02"/>
<polygon fill="midnightblue" stroke="midnightblue" points="654.01,-135.39 663.06,-129.9 652.56,-128.54 654.01,-135.39"/>
</g>
<!-- Node49&#45;&gt;Node29 -->
<g id="edge96" class="edge">
<title>Node49&#45;&gt;Node29</title>
<path fill="none" stroke="midnightblue" d="M1905.47,-281.79C1826.1,-270.93 1683.67,-250.9 1660.75,-244 1640.57,-237.92 1638.02,-229.78 1617.75,-224 1562.41,-208.2 1405.59,-192.69 1314.53,-184.65"/>
<polygon fill="midnightblue" stroke="midnightblue" points="1314.57,-181.14 1304.3,-183.76 1313.96,-188.12 1314.57,-181.14"/>
</g>
<!-- Node49&#45;&gt;Node31 -->
<g id="edge83" class="edge">
<title>Node49&#45;&gt;Node31</title>
<path fill="none" stroke="midnightblue" d="M1992.66,-280.44C2029.6,-271.12 2088.81,-256.18 2129.17,-246"/>
<polygon fill="midnightblue" stroke="midnightblue" points="2130.16,-249.36 2139,-243.52 2128.45,-242.57 2130.16,-249.36"/>
</g>
<!-- Node31&#45;&gt;Node5 -->
<g id="edge94" class="edge">
<title>Node31&#45;&gt;Node5</title>
<path fill="none" stroke="midnightblue" d="M2161.47,-224.19C2150.07,-215.22 2132.01,-200.86 2116.75,-188 2077.75,-155.13 2078.01,-131.19 2030.75,-112 1944.28,-76.89 1267.05,-68.66 1114.99,-67.25"/>
<polygon fill="midnightblue" stroke="midnightblue" points="1115,-63.75 1104.96,-67.16 1114.93,-70.75 1115,-63.75"/>
</g>
<!-- Node31&#45;&gt;Node9 -->
<g id="edge84" class="edge">
<title>Node31&#45;&gt;Node9</title>
<path fill="none" stroke="midnightblue" d="M2120.56,-231.89C1943.27,-227.91 1365,-213.27 1180.75,-188 1093.14,-175.98 992.66,-149.61 938.78,-134.41"/>
<polygon fill="midnightblue" stroke="midnightblue" points="939.53,-130.98 928.96,-131.61 937.62,-137.72 939.53,-130.98"/>
</g>
<!-- Node31&#45;&gt;Node10 -->
<g id="edge93" class="edge">
<title>Node31&#45;&gt;Node10</title>
<path fill="none" stroke="midnightblue" d="M2156.43,-224.46C2111.07,-201.21 1979.01,-136.87 1860.75,-112 1685.52,-75.14 1234.42,-87.95 1055.75,-76 1032.23,-74.43 1005.67,-72.04 985.7,-70.11"/>
<polygon fill="midnightblue" stroke="midnightblue" points="985.91,-66.62 975.62,-69.13 985.23,-73.59 985.91,-66.62"/>
</g>
<!-- Node31&#45;&gt;Node12 -->
<g id="edge90" class="edge">
<title>Node31&#45;&gt;Node12</title>
<path fill="none" stroke="midnightblue" d="M2128.19,-224.46C2018.94,-203.52 1739.27,-149.93 1636.97,-130.32"/>
<polygon fill="midnightblue" stroke="midnightblue" points="1637.55,-126.87 1627.07,-128.43 1636.23,-133.75 1637.55,-126.87"/>
</g>
<!-- Node31&#45;&gt;Node13 -->
<g id="edge91" class="edge">
<title>Node31&#45;&gt;Node13</title>
<path fill="none" stroke="midnightblue" d="M2224.99,-231.21C2438.62,-223.86 3235.8,-195.96 3260.75,-188 3277.72,-182.59 3317.04,-155.1 3341.01,-137.65"/>
<polygon fill="midnightblue" stroke="midnightblue" points="3343.37,-140.25 3349.36,-131.52 3339.23,-134.61 3343.37,-140.25"/>
</g>
<!-- Node31&#45;&gt;Node17 -->
<g id="edge92" class="edge">
<title>Node31&#45;&gt;Node17</title>
<path fill="none" stroke="midnightblue" d="M2225.15,-231.41C2472.35,-223.92 3510.72,-192.2 3526.75,-188 3566.23,-177.65 3607.35,-153.18 3631.2,-137.39"/>
<polygon fill="midnightblue" stroke="midnightblue" points="3633.41,-140.12 3639.74,-131.62 3629.49,-134.32 3633.41,-140.12"/>
</g>
<!-- Node31&#45;&gt;Node22 -->
<g id="edge89" class="edge">
<title>Node31&#45;&gt;Node22</title>
<path fill="none" stroke="midnightblue" d="M2181.17,-224.08C2188.6,-216.22 2199.6,-204.57 2208.56,-195.08"/>
<polygon fill="midnightblue" stroke="midnightblue" points="2211.17,-197.42 2215.49,-187.75 2206.08,-192.62 2211.17,-197.42"/>
</g>
<!-- Node37 -->
<g id="node38" class="node">
<title>Node37</title>
<g id="a_node38"><a xlink:href="SwapByteOrder_8h.html" target="_top" xlink:title=" ">
<polygon fill="none" stroke="red" points="2344.75,-168.5 2344.75,-187.5 2496.75,-187.5 2496.75,-168.5 2344.75,-168.5"/>
<text text-anchor="middle" x="2420.75" y="-175.5" font-family="Helvetica" font-size="10.00">llvm/Support/SwapByteOrder.h</text>
</a>
</g>
</g>
<!-- Node31&#45;&gt;Node37 -->
<g id="edge85" class="edge">
<title>Node31&#45;&gt;Node37</title>
<path fill="none" stroke="midnightblue" d="M2212.05,-224.44C2255.31,-215.02 2324.92,-199.87 2371.73,-189.68"/>
<polygon fill="midnightblue" stroke="midnightblue" points="2372.61,-193.06 2381.64,-187.52 2371.12,-186.22 2372.61,-193.06"/>
</g>
<!-- Node37&#45;&gt;Node16 -->
<g id="edge87" class="edge">
<title>Node37&#45;&gt;Node16</title>
<path fill="none" stroke="midnightblue" d="M2458.31,-168.44C2504.22,-157.98 2581.2,-140.44 2624.88,-130.49"/>
<polygon fill="midnightblue" stroke="midnightblue" points="2625.73,-133.88 2634.71,-128.25 2624.18,-127.06 2625.73,-133.88"/>
</g>
<!-- Node37&#45;&gt;Node19 -->
<g id="edge88" class="edge">
<title>Node37&#45;&gt;Node19</title>
<path fill="none" stroke="midnightblue" d="M2379.08,-168.44C2329.72,-158.31 2248.03,-141.54 2198.9,-131.45"/>
<polygon fill="midnightblue" stroke="midnightblue" points="2199.43,-127.99 2188.93,-129.4 2198.03,-134.84 2199.43,-127.99"/>
</g>
<!-- Node37&#45;&gt;Node23 -->
<g id="edge86" class="edge">
<title>Node37&#45;&gt;Node23</title>
<path fill="none" stroke="midnightblue" d="M2344.65,-169.33C2339.95,-168.88 2335.29,-168.43 2330.75,-168 2154.56,-151.33 1943.56,-133.03 1861.65,-125.99"/>
<polygon fill="midnightblue" stroke="midnightblue" points="1861.67,-122.48 1851.41,-125.11 1861.07,-129.45 1861.67,-122.48"/>
</g>
<!-- Node53 -->
<g id="node40" class="node">
<title>Node53</title>
<g id="a_node40"><a xlink:href="Twine_8h.html" target="_top" xlink:title=" ">
<polygon fill="none" stroke="black" points="1454.75,-280.5 1454.75,-299.5 1548.75,-299.5 1548.75,-280.5 1454.75,-280.5"/>
<text text-anchor="middle" x="1501.75" y="-287.5" font-family="Helvetica" font-size="10.00">llvm/ADT/Twine.h</text>
</a>
</g>
</g>
<!-- Node52&#45;&gt;Node53 -->
<g id="edge113" class="edge">
<title>Node52&#45;&gt;Node53</title>
<path fill="none" stroke="midnightblue" d="M1509.12,-392.37C1507.83,-374.62 1504.85,-333.67 1503.1,-309.6"/>
<polygon fill="midnightblue" stroke="midnightblue" points="1506.59,-309.31 1502.38,-299.59 1499.61,-309.82 1506.59,-309.31"/>
</g>
<!-- Node53&#45;&gt;Node3 -->
<g id="edge114" class="edge">
<title>Node53&#45;&gt;Node3</title>
<path fill="none" stroke="midnightblue" d="M1474.97,-280.44C1446.42,-271.32 1401.02,-256.81 1369.21,-246.65"/>
<polygon fill="midnightblue" stroke="midnightblue" points="1370,-243.23 1359.41,-243.52 1367.87,-249.89 1370,-243.23"/>
</g>
<!-- Node53&#45;&gt;Node9 -->
<g id="edge116" class="edge">
<title>Node53&#45;&gt;Node9</title>
<path fill="none" stroke="midnightblue" d="M1454.7,-283.96C1300.43,-267.22 818.51,-213.09 796.75,-188 775.67,-163.68 816.06,-145.31 852.28,-134.4"/>
<polygon fill="midnightblue" stroke="midnightblue" points="853.68,-137.64 862.33,-131.52 851.75,-130.91 853.68,-137.64"/>
</g>
<!-- Node53&#45;&gt;Node10 -->
<g id="edge119" class="edge">
<title>Node53&#45;&gt;Node10</title>
<path fill="none" stroke="midnightblue" d="M1454.44,-284.14C1439.51,-282.7 1422.95,-281.19 1407.75,-280 1295.3,-271.23 470.97,-272.94 396.75,-188 346.91,-130.96 352.57,-157.26 498.75,-112 578.63,-87.27 834.84,-72.81 923.9,-68.43"/>
<polygon fill="midnightblue" stroke="midnightblue" points="924.32,-71.91 934.14,-67.93 923.99,-64.92 924.32,-71.91"/>
</g>
<!-- Node53&#45;&gt;Node13 -->
<g id="edge117" class="edge">
<title>Node53&#45;&gt;Node13</title>
<path fill="none" stroke="midnightblue" d="M1549.05,-283.92C1563.97,-282.46 1580.54,-281 1595.75,-280 2043.52,-250.6 2156.74,-269.38 2604.75,-244 2644.86,-241.73 3292.08,-209.92 3325.75,-188 3342,-177.42 3351.27,-156.65 3356.13,-141.42"/>
<polygon fill="midnightblue" stroke="midnightblue" points="3359.57,-142.11 3358.93,-131.54 3352.84,-140.21 3359.57,-142.11"/>
</g>
<!-- Node53&#45;&gt;Node16 -->
<g id="edge118" class="edge">
<title>Node53&#45;&gt;Node16</title>
<path fill="none" stroke="midnightblue" d="M1549.06,-284.11C1563.99,-282.66 1580.55,-281.16 1595.75,-280 1878.94,-258.46 1952.13,-280.73 2233.75,-244 2264.35,-240.01 2476.31,-197.22 2505.75,-188 2551.27,-173.74 2601.76,-150.6 2631.57,-136.12"/>
<polygon fill="midnightblue" stroke="midnightblue" points="2633.42,-139.11 2640.85,-131.56 2630.33,-132.83 2633.42,-139.11"/>
</g>
<!-- Node53&#45;&gt;Node28 -->
<g id="edge115" class="edge">
<title>Node53&#45;&gt;Node28</title>
<path fill="none" stroke="midnightblue" d="M1510.5,-280.08C1518.22,-272.22 1529.66,-260.57 1538.97,-251.08"/>
<polygon fill="midnightblue" stroke="midnightblue" points="1541.66,-253.34 1546.16,-243.75 1536.66,-248.44 1541.66,-253.34"/>
</g>
<!-- Node54&#45;&gt;Node55 -->
<g id="edge122" class="edge">
<title>Node54&#45;&gt;Node55</title>
<path fill="none" stroke="midnightblue" d="M2431.48,-448.08C2445.46,-421.72 2486.72,-343.88 2505.39,-308.66"/>
<polygon fill="midnightblue" stroke="midnightblue" points="2508.62,-310.04 2510.21,-299.57 2502.43,-306.76 2508.62,-310.04"/>
</g>
<!-- Node56&#45;&gt;Node5 -->
<g id="edge155" class="edge">
<title>Node56&#45;&gt;Node5</title>
<path fill="none" stroke="midnightblue" d="M1364.25,-456.2C1247.38,-453.87 957.15,-444.95 716.75,-412 597.49,-395.65 568.68,-384.61 451.75,-356 327.55,-325.61 248.69,-355.86 186.75,-244 170.28,-214.24 163.35,-198.81 177.75,-168 194.19,-132.84 208.6,-126.12 244.75,-112 321.43,-82.05 902.63,-81.69 984.75,-76 1008.19,-74.38 1034.67,-71.97 1054.49,-70.05"/>
<polygon fill="midnightblue" stroke="midnightblue" points="1054.86,-73.53 1064.47,-69.07 1054.18,-66.56 1054.86,-73.53"/>
</g>
<!-- Node56&#45;&gt;Node12 -->
<g id="edge153" class="edge">
<title>Node56&#45;&gt;Node12</title>
<path fill="none" stroke="midnightblue" d="M1416.25,-448.12C1415.68,-435.56 1415.14,-411.92 1417.75,-392 1424.41,-341.12 1422.68,-325.83 1445.75,-280 1477.64,-216.65 1544.17,-162.34 1578.02,-137.47"/>
<polygon fill="midnightblue" stroke="midnightblue" points="1580.2,-140.22 1586.26,-131.53 1576.1,-134.54 1580.2,-140.22"/>
</g>
<!-- Node56&#45;&gt;Node26 -->
<g id="edge154" class="edge">
<title>Node56&#45;&gt;Node26</title>
<path fill="none" stroke="midnightblue" d="M1363.94,-455.09C1144.44,-445.83 309.89,-397.07 186.75,-188 135.21,-100.49 527.35,-145.99 652.84,-131.6"/>
<polygon fill="midnightblue" stroke="midnightblue" points="653.69,-135.02 663.12,-130.19 652.74,-128.08 653.69,-135.02"/>
</g>
<!-- Node56&#45;&gt;Node52 -->
<g id="edge125" class="edge">
<title>Node56&#45;&gt;Node52</title>
<path fill="none" stroke="midnightblue" d="M1431.69,-448.32C1446.34,-439.82 1468.89,-426.73 1485.99,-416.8"/>
<polygon fill="midnightblue" stroke="midnightblue" points="1487.96,-419.7 1494.85,-411.65 1484.44,-413.65 1487.96,-419.7"/>
</g>
<!-- Node57 -->
<g id="node44" class="node">
<title>Node57</title>
<g id="a_node44"><a xlink:href="Types_8h.html" target="_top" xlink:title=" ">
<polygon fill="none" stroke="red" points="1604.75,-280.5 1604.75,-299.5 1684.75,-299.5 1684.75,-280.5 1604.75,-280.5"/>
<text text-anchor="middle" x="1644.75" y="-287.5" font-family="Helvetica" font-size="10.00">llvm&#45;c/Types.h</text>
</a>
</g>
</g>
<!-- Node56&#45;&gt;Node57 -->
<g id="edge124" class="edge">
<title>Node56&#45;&gt;Node57</title>
<path fill="none" stroke="midnightblue" d="M1416.47,-448.41C1416.49,-434.92 1418.4,-408.6 1431.75,-392 1472.79,-340.98 1545.72,-314.29 1594.65,-301.44"/>
<polygon fill="midnightblue" stroke="midnightblue" points="1595.57,-304.82 1604.41,-298.97 1593.85,-298.03 1595.57,-304.82"/>
</g>
<!-- Node56&#45;&gt;Node59 -->
<g id="edge126" class="edge">
<title>Node56&#45;&gt;Node59</title>
<path fill="none" stroke="midnightblue" d="M1449.39,-448.44C1484.8,-439.16 1541.46,-424.31 1580.3,-414.13"/>
<polygon fill="midnightblue" stroke="midnightblue" points="1581.48,-417.44 1590.26,-411.52 1579.7,-410.67 1581.48,-417.44"/>
</g>
<!-- Node56&#45;&gt;Node60 -->
<g id="edge144" class="edge">
<title>Node56&#45;&gt;Node60</title>
<path fill="none" stroke="midnightblue" d="M1402.78,-448.35C1388.4,-439.39 1365.37,-424.92 1345.75,-412 1319.82,-394.92 1290.37,-374.62 1271.22,-361.31"/>
<polygon fill="midnightblue" stroke="midnightblue" points="1273.16,-358.4 1262.96,-355.55 1269.16,-364.14 1273.16,-358.4"/>
</g>
<!-- Node56&#45;&gt;Node70 -->
<g id="edge145" class="edge">
<title>Node56&#45;&gt;Node70</title>
<path fill="none" stroke="midnightblue" d="M1419.24,-448.19C1423.77,-433.9 1434.79,-405.87 1454.75,-392 1469.66,-381.65 1566.31,-366.7 1636.95,-356.92"/>
<polygon fill="midnightblue" stroke="midnightblue" points="1637.74,-360.35 1647.18,-355.52 1636.79,-353.41 1637.74,-360.35"/>
</g>
<!-- Node59&#45;&gt;Node55 -->
<g id="edge143" class="edge">
<title>Node59&#45;&gt;Node55</title>
<path fill="none" stroke="midnightblue" d="M1671.81,-395.5C1827.51,-377.98 2309.32,-323.29 2464.75,-300 2466.03,-299.81 2467.32,-299.61 2468.63,-299.41"/>
<polygon fill="midnightblue" stroke="midnightblue" points="2469.44,-302.82 2478.74,-297.74 2468.31,-295.91 2469.44,-302.82"/>
</g>
<!-- Node59&#45;&gt;Node60 -->
<g id="edge127" class="edge">
<title>Node59&#45;&gt;Node60</title>
<path fill="none" stroke="midnightblue" d="M1573.71,-393.35C1570.68,-392.89 1567.67,-392.44 1564.75,-392 1477.56,-378.99 1376.62,-364.65 1313.23,-355.74"/>
<polygon fill="midnightblue" stroke="midnightblue" points="1313.39,-352.23 1303,-354.3 1312.42,-359.16 1313.39,-352.23"/>
</g>
<!-- Node60&#45;&gt;Node3 -->
<g id="edge129" class="edge">
<title>Node60&#45;&gt;Node3</title>
<path fill="none" stroke="midnightblue" d="M1251.67,-336.23C1253.42,-322.96 1258.25,-297.48 1270.75,-280 1280.03,-267.03 1294.21,-256.34 1306.68,-248.63"/>
<polygon fill="midnightblue" stroke="midnightblue" points="1308.49,-251.63 1315.35,-243.56 1304.95,-245.59 1308.49,-251.63"/>
</g>
<!-- Node60&#45;&gt;Node5 -->
<g id="edge142" class="edge">
<title>Node60&#45;&gt;Node5</title>
<path fill="none" stroke="midnightblue" d="M1198.69,-345.04C1038.9,-344.73 557.25,-340.37 406.75,-300 300.78,-271.57 244.1,-281.54 186.75,-188 122.3,-82.87 798,-91.32 984.75,-76 1008.17,-74.08 1034.64,-71.69 1054.47,-69.85"/>
<polygon fill="midnightblue" stroke="midnightblue" points="1054.83,-73.33 1064.46,-68.92 1054.18,-66.36 1054.83,-73.33"/>
</g>
<!-- Node60&#45;&gt;Node6 -->
<g id="edge131" class="edge">
<title>Node60&#45;&gt;Node6</title>
<path fill="none" stroke="midnightblue" d="M1302.92,-343.37C1487.95,-337.48 2112.31,-316.82 2311.75,-300 2382.28,-294.05 2399.19,-285.53 2469.75,-280 2993.28,-238.98 3129.53,-307.96 3650.75,-244 3767.21,-229.71 3835.11,-279.35 3908.75,-188 3929.95,-161.7 3931.47,-136.99 3908.75,-112 3882.36,-82.97 3633.52,-72.22 3508.18,-68.63"/>
<polygon fill="midnightblue" stroke="midnightblue" points="3508,-65.12 3497.91,-68.34 3507.81,-72.12 3508,-65.12"/>
</g>
<!-- Node60&#45;&gt;Node9 -->
<g id="edge132" class="edge">
<title>Node60&#45;&gt;Node9</title>
<path fill="none" stroke="midnightblue" d="M1198.67,-343.26C1035.96,-336.59 542.34,-306.74 448.75,-188 397.82,-123.38 732.9,-140.36 814.75,-132 815.69,-131.9 816.63,-131.81 817.58,-131.71"/>
<polygon fill="midnightblue" stroke="midnightblue" points="818.29,-135.16 827.88,-130.65 817.57,-128.19 818.29,-135.16"/>
</g>
<!-- Node60&#45;&gt;Node10 -->
<g id="edge139" class="edge">
<title>Node60&#45;&gt;Node10</title>
<path fill="none" stroke="midnightblue" d="M1198.63,-345.41C1027.61,-346.28 484.96,-345.33 316.75,-300 240.15,-279.36 197.59,-264.82 177.75,-188 166.49,-144.4 202.93,-128.69 244.75,-112 308.43,-86.59 795.72,-71.41 923.93,-67.82"/>
<polygon fill="midnightblue" stroke="midnightblue" points="924.3,-71.32 934.2,-67.54 924.11,-64.32 924.3,-71.32"/>
</g>
<!-- Node60&#45;&gt;Node12 -->
<g id="edge133" class="edge">
<title>Node60&#45;&gt;Node12</title>
<path fill="none" stroke="midnightblue" d="M1248.77,-336.45C1244.29,-314.78 1235.83,-257.11 1263.75,-224 1302.45,-178.12 1481.04,-142.88 1560.48,-129.2"/>
<polygon fill="midnightblue" stroke="midnightblue" points="1561.28,-132.62 1570.56,-127.49 1560.11,-125.71 1561.28,-132.62"/>
</g>
<!-- Node60&#45;&gt;Node13 -->
<g id="edge134" class="edge">
<title>Node60&#45;&gt;Node13</title>
<path fill="none" stroke="midnightblue" d="M1302.98,-342.82C1442.14,-336.92 1833.43,-319.76 2158.75,-300 2282.4,-292.49 2313.08,-287.09 2436.75,-280 2623.95,-269.27 3097.14,-286.56 3279.75,-244 3339.83,-230 3373.06,-239.68 3406.75,-188 3418.2,-170.45 3399.96,-150.89 3383.18,-137.86"/>
<polygon fill="midnightblue" stroke="midnightblue" points="3384.85,-134.74 3374.7,-131.68 3380.73,-140.4 3384.85,-134.74"/>
</g>
<!-- Node60&#45;&gt;Node16 -->
<g id="edge135" class="edge">
<title>Node60&#45;&gt;Node16</title>
<path fill="none" stroke="midnightblue" d="M1303.03,-343.55C1462.95,-338.9 1944.04,-323.31 2098.75,-300 2149.28,-292.39 2497.38,-207.14 2544.75,-188 2578.72,-174.27 2614.91,-151.92 2636.93,-137.33"/>
<polygon fill="midnightblue" stroke="midnightblue" points="2639.11,-140.09 2645.46,-131.61 2635.2,-134.28 2639.11,-140.09"/>
</g>
<!-- Node60&#45;&gt;Node19 -->
<g id="edge141" class="edge">
<title>Node60&#45;&gt;Node19</title>
<path fill="none" stroke="midnightblue" d="M1302.82,-343.94C1497.79,-339.42 2176.4,-318.38 2233.75,-244 2267.61,-200.09 2185.1,-240.34 2150.75,-188 2141.72,-174.24 2145.17,-155.21 2149.86,-141.29"/>
<polygon fill="midnightblue" stroke="midnightblue" points="2153.17,-142.41 2153.49,-131.82 2146.64,-139.9 2153.17,-142.41"/>
</g>
<!-- Node60&#45;&gt;Node21 -->
<g id="edge136" class="edge">
<title>Node60&#45;&gt;Node21</title>
<path fill="none" stroke="midnightblue" d="M1198.39,-345.53C1094.01,-345.6 853.06,-340.85 655.75,-300 549.47,-278 479.83,-288.46 438.75,-188 408.67,-114.43 486.38,-165.9 725.75,-132 733.61,-130.89 742.07,-129.6 750,-128.35"/>
<polygon fill="midnightblue" stroke="midnightblue" points="750.71,-131.79 760.03,-126.76 749.61,-124.87 750.71,-131.79"/>
</g>
<!-- Node60&#45;&gt;Node26 -->
<g id="edge137" class="edge">
<title>Node60&#45;&gt;Node26</title>
<path fill="none" stroke="midnightblue" d="M1198.7,-343.85C1056.91,-340.38 666.09,-328.44 540.75,-300 410.85,-270.52 337.29,-298.4 262.75,-188 215.22,-117.6 544.85,-144.79 653.06,-131.6"/>
<polygon fill="midnightblue" stroke="midnightblue" points="653.72,-135.04 663.11,-130.14 652.71,-128.11 653.72,-135.04"/>
</g>
<!-- Node60&#45;&gt;Node27 -->
<g id="edge138" class="edge">
<title>Node60&#45;&gt;Node27</title>
<path fill="none" stroke="midnightblue" d="M1210.93,-336.48C1073.28,-307.03 619.54,-209.97 502.49,-184.93"/>
<polygon fill="midnightblue" stroke="midnightblue" points="503.05,-181.47 492.54,-182.8 501.58,-188.32 503.05,-181.47"/>
</g>
<!-- Node60&#45;&gt;Node29 -->
<g id="edge128" class="edge">
<title>Node60&#45;&gt;Node29</title>
<path fill="none" stroke="midnightblue" d="M1234.97,-336.47C1222.55,-328.77 1206.15,-316.18 1198.75,-300 1181.93,-263.2 1212.11,-218.7 1231.78,-195.26"/>
<polygon fill="midnightblue" stroke="midnightblue" points="1234.5,-197.47 1238.44,-187.63 1229.23,-192.86 1234.5,-197.47"/>
</g>
<!-- Node60&#45;&gt;Node53 -->
<g id="edge130" class="edge">
<title>Node60&#45;&gt;Node53</title>
<path fill="none" stroke="midnightblue" d="M1290.52,-336.44C1334.31,-327.02 1404.77,-311.87 1452.13,-301.68"/>
<polygon fill="midnightblue" stroke="midnightblue" points="1453.13,-305.04 1462.17,-299.52 1451.65,-298.2 1453.13,-305.04"/>
</g>
<!-- Node60&#45;&gt;Node55 -->
<g id="edge140" class="edge">
<title>Node60&#45;&gt;Node55</title>
<path fill="none" stroke="midnightblue" d="M1302.78,-343.51C1519.96,-337.21 2348.31,-312.57 2464.75,-300 2466.01,-299.86 2467.28,-299.72 2468.57,-299.56"/>
<polygon fill="midnightblue" stroke="midnightblue" points="2469.11,-303.01 2478.52,-298.14 2468.13,-296.08 2469.11,-303.01"/>
</g>
<!-- Node70&#45;&gt;Node16 -->
<g id="edge151" class="edge">
<title>Node70&#45;&gt;Node16</title>
<path fill="none" stroke="midnightblue" d="M1785.46,-341.88C1941.41,-334.89 2298.24,-317.26 2350.75,-300 2410.73,-280.29 2412.72,-248.86 2470.75,-224 2531.39,-198.02 2560.89,-226.1 2614.75,-188 2631.45,-176.19 2643.41,-155.67 2650.42,-140.84"/>
<polygon fill="midnightblue" stroke="midnightblue" points="2653.64,-142.22 2654.47,-131.66 2647.23,-139.4 2653.64,-142.22"/>
</g>
<!-- Node70&#45;&gt;Node23 -->
<g id="edge150" class="edge">
<title>Node70&#45;&gt;Node23</title>
<path fill="none" stroke="midnightblue" d="M1717.22,-336.3C1734.14,-303.36 1794.45,-185.9 1817.61,-140.81"/>
<polygon fill="midnightblue" stroke="midnightblue" points="1820.74,-142.38 1822.19,-131.88 1814.51,-139.18 1820.74,-142.38"/>
</g>
<!-- Node70&#45;&gt;Node26 -->
<g id="edge152" class="edge">
<title>Node70&#45;&gt;Node26</title>
<path fill="none" stroke="midnightblue" d="M1639.83,-341.89C1375.56,-329.88 479.27,-282.43 396.75,-188 390.9,-181.31 390.92,-174.71 396.75,-168 432.82,-126.53 582.18,-141.41 653.2,-131.63"/>
<polygon fill="midnightblue" stroke="midnightblue" points="653.79,-135.08 663.09,-130 652.65,-128.17 653.79,-135.08"/>
</g>
<!-- Node70&#45;&gt;Node28 -->
<g id="edge148" class="edge">
<title>Node70&#45;&gt;Node28</title>
<path fill="none" stroke="midnightblue" d="M1712.67,-336.15C1712.05,-322.31 1708.83,-295.51 1693.75,-280 1681.12,-267 1639.28,-254.49 1604.78,-245.98"/>
<polygon fill="midnightblue" stroke="midnightblue" points="1605.35,-242.52 1594.81,-243.58 1603.71,-249.32 1605.35,-242.52"/>
</g>
<!-- Node70&#45;&gt;Node49 -->
<g id="edge147" class="edge">
<title>Node70&#45;&gt;Node49</title>
<path fill="none" stroke="midnightblue" d="M1751.73,-336.44C1794.65,-327.02 1863.7,-311.87 1910.12,-301.68"/>
<polygon fill="midnightblue" stroke="midnightblue" points="1910.94,-305.08 1919.95,-299.52 1909.44,-298.24 1910.94,-305.08"/>
</g>
<!-- Node70&#45;&gt;Node53 -->
<g id="edge149" class="edge">
<title>Node70&#45;&gt;Node53</title>
<path fill="none" stroke="midnightblue" d="M1679.32,-336.44C1642.9,-327.12 1584.52,-312.18 1544.72,-302"/>
<polygon fill="midnightblue" stroke="midnightblue" points="1545.58,-298.61 1535.03,-299.52 1543.85,-305.39 1545.58,-298.61"/>
</g>
<!-- Node70&#45;&gt;Node57 -->
<g id="edge146" class="edge">
<title>Node70&#45;&gt;Node57</title>
<path fill="none" stroke="midnightblue" d="M1701.83,-336.32C1691.58,-328.18 1676.03,-315.84 1663.75,-306.09"/>
<polygon fill="midnightblue" stroke="midnightblue" points="1665.88,-303.31 1655.88,-299.83 1661.53,-308.79 1665.88,-303.31"/>
</g>
<!-- Node74&#45;&gt;Node4 -->
<g id="edge159" class="edge">
<title>Node74&#45;&gt;Node4</title>
<path fill="none" stroke="midnightblue" d="M1765.73,-511.25C1460.76,-502.71 213.19,-461.52 77.75,-356 11.82,-304.63 0.7,-210.36 72.75,-168 109.2,-146.57 374.11,-132.07 506.23,-126.08"/>
<polygon fill="midnightblue" stroke="midnightblue" points="506.45,-129.58 516.28,-125.63 506.13,-122.58 506.45,-129.58"/>
</g>
<!-- Node74&#45;&gt;Node16 -->
<g id="edge164" class="edge">
<title>Node74&#45;&gt;Node16</title>
<path fill="none" stroke="midnightblue" d="M1899.75,-507.17C2035.29,-492.59 2347.17,-444.65 2559.75,-300 2616.33,-261.5 2643.56,-179.07 2653.33,-141.89"/>
<polygon fill="midnightblue" stroke="midnightblue" points="2656.8,-142.45 2655.82,-131.9 2650.01,-140.75 2656.8,-142.45"/>
</g>
<!-- Node74&#45;&gt;Node17 -->
<g id="edge165" class="edge">
<title>Node74&#45;&gt;Node17</title>
<path fill="none" stroke="midnightblue" d="M1899.88,-509.57C2020.64,-503.16 2282.46,-488.17 2502.75,-468 3061.85,-416.81 3309,-641.34 3754.75,-300 3805.21,-261.36 3848.05,-218.72 3809.75,-168 3794.74,-148.12 3726.64,-134.42 3684.9,-127.72"/>
<polygon fill="midnightblue" stroke="midnightblue" points="3685.32,-124.24 3674.9,-126.17 3684.25,-131.16 3685.32,-124.24"/>
</g>
<!-- Node74&#45;&gt;Node25 -->
<g id="edge166" class="edge">
<title>Node74&#45;&gt;Node25</title>
<path fill="none" stroke="midnightblue" d="M1834.55,-504.24C1839.7,-476.57 1851.84,-389.69 1813.75,-336 1791.69,-304.9 1780.82,-300.64 1748.75,-280 1734.43,-270.78 1515.77,-171.47 1436.87,-135.73"/>
<polygon fill="midnightblue" stroke="midnightblue" points="1438.09,-132.44 1427.54,-131.5 1435.21,-138.81 1438.09,-132.44"/>
</g>
<!-- Node74&#45;&gt;Node26 -->
<g id="edge167" class="edge">
<title>Node74&#45;&gt;Node26</title>
<path fill="none" stroke="midnightblue" d="M1765.65,-510.53C1498.1,-499.36 511.19,-444.96 287.75,-244 260.24,-219.25 228.79,-195.31 253.75,-168 282.33,-136.73 577.42,-139.09 652.95,-131.46"/>
<polygon fill="midnightblue" stroke="midnightblue" points="653.64,-134.9 663.11,-130.15 652.75,-127.96 653.64,-134.9"/>
</g>
<!-- Node74&#45;&gt;Node28 -->
<g id="edge158" class="edge">
<title>Node74&#45;&gt;Node28</title>
<path fill="none" stroke="midnightblue" d="M1833.06,-504.4C1833.6,-477.2 1832.08,-391.57 1794.75,-336 1770.14,-299.37 1752.71,-298.73 1712.75,-280 1679.54,-264.43 1639.84,-253.15 1608.53,-245.78"/>
<polygon fill="midnightblue" stroke="midnightblue" points="1609.21,-242.34 1598.68,-243.52 1607.65,-249.17 1609.21,-242.34"/>
</g>
<!-- Node74&#45;&gt;Node54 -->
<g id="edge160" class="edge">
<title>Node74&#45;&gt;Node54</title>
<path fill="none" stroke="midnightblue" d="M1900.02,-507.6C1998.1,-499.61 2186.06,-483.87 2345.75,-468 2347.02,-467.87 2348.3,-467.75 2349.58,-467.62"/>
<polygon fill="midnightblue" stroke="midnightblue" points="2349.99,-471.09 2359.58,-466.58 2349.27,-464.13 2349.99,-471.09"/>
</g>
<!-- Node74&#45;&gt;Node55 -->
<g id="edge168" class="edge">
<title>Node74&#45;&gt;Node55</title>
<path fill="none" stroke="midnightblue" d="M1859.07,-504.43C1964.67,-470.06 2357.76,-342.1 2478.95,-302.65"/>
<polygon fill="midnightblue" stroke="midnightblue" points="2480.09,-305.96 2488.51,-299.54 2477.92,-299.31 2480.09,-305.96"/>
</g>
<!-- Node74&#45;&gt;Node56 -->
<g id="edge161" class="edge">
<title>Node74&#45;&gt;Node56</title>
<path fill="none" stroke="midnightblue" d="M1766.84,-504.44C1688.01,-494.21 1557.04,-477.21 1479.6,-467.16"/>
<polygon fill="midnightblue" stroke="midnightblue" points="1479.87,-463.66 1469.5,-465.85 1478.97,-470.61 1479.87,-463.66"/>
</g>
<!-- Node74&#45;&gt;Node60 -->
<g id="edge162" class="edge">
<title>Node74&#45;&gt;Node60</title>
<path fill="none" stroke="midnightblue" d="M1765.75,-512.75C1651.73,-511.33 1425.56,-503.91 1355.75,-468 1310.15,-444.55 1275.78,-392.12 1260.11,-364.61"/>
<polygon fill="midnightblue" stroke="midnightblue" points="1263.09,-362.77 1255.19,-355.71 1256.96,-366.15 1263.09,-362.77"/>
</g>
<!-- Node74&#45;&gt;Node70 -->
<g id="edge163" class="edge">
<title>Node74&#45;&gt;Node70</title>
<path fill="none" stroke="midnightblue" d="M1825.99,-504.17C1819.19,-495.19 1808.48,-480.81 1799.75,-468 1777.26,-434.98 1775.57,-424.08 1751.75,-392 1744.36,-382.04 1735.32,-371.53 1727.82,-363.17"/>
<polygon fill="midnightblue" stroke="midnightblue" points="1730.26,-360.66 1720.93,-355.64 1725.09,-365.38 1730.26,-360.66"/>
</g>
<!-- Node72&#45;&gt;Node6 -->
<g id="edge170" class="edge">
<title>Node72&#45;&gt;Node6</title>
<path fill="none" stroke="midnightblue" d="M2595.86,-231.8C2799.23,-227.43 3471.75,-211.35 3565.75,-188 3622.09,-174.01 3652.73,-181.06 3683.75,-132 3688.5,-124.49 3689.45,-118.83 3683.75,-112 3661.72,-85.59 3572.99,-74.64 3508.17,-70.13"/>
<polygon fill="midnightblue" stroke="midnightblue" points="3508.19,-66.62 3497.98,-69.46 3507.73,-73.61 3508.19,-66.62"/>
</g>
<!-- Node72&#45;&gt;Node13 -->
<g id="edge172" class="edge">
<title>Node72&#45;&gt;Node13</title>
<path fill="none" stroke="midnightblue" d="M2596.06,-229.2C2621.46,-227.57 2651.58,-225.66 2678.75,-224 2747.63,-219.8 3236.13,-216.99 3298.75,-188 3320.79,-177.8 3338.95,-155.97 3349.8,-140.42"/>
<polygon fill="midnightblue" stroke="midnightblue" points="3352.97,-141.98 3355.58,-131.72 3347.14,-138.11 3352.97,-141.98"/>
</g>
<!-- Node72&#45;&gt;Node19 -->
<g id="edge174" class="edge">
<title>Node72&#45;&gt;Node19</title>
<path fill="none" stroke="midnightblue" d="M2536.15,-224.13C2533.05,-209.76 2524.78,-181.61 2505.75,-168 2457.44,-133.44 2280.82,-125.42 2199.39,-123.56"/>
<polygon fill="midnightblue" stroke="midnightblue" points="2199.09,-120.05 2189.02,-123.35 2198.94,-127.05 2199.09,-120.05"/>
</g>
<!-- Node72&#45;&gt;Node22 -->
<g id="edge171" class="edge">
<title>Node72&#45;&gt;Node22</title>
<path fill="none" stroke="midnightblue" d="M2488,-224.44C2432.42,-214.89 2342.49,-199.42 2283.24,-189.23"/>
<polygon fill="midnightblue" stroke="midnightblue" points="2283.72,-185.76 2273.27,-187.52 2282.54,-192.66 2283.72,-185.76"/>
</g>
<!-- Node72&#45;&gt;Node26 -->
<g id="edge173" class="edge">
<title>Node72&#45;&gt;Node26</title>
<path fill="none" stroke="midnightblue" d="M2479.48,-231.2C2418.28,-229.33 2319.26,-226.34 2233.75,-224 2075.21,-219.65 959.77,-229.72 806.75,-188 769.51,-177.85 731.34,-153.5 709.12,-137.66"/>
<polygon fill="midnightblue" stroke="midnightblue" points="711.03,-134.72 700.89,-131.65 706.91,-140.37 711.03,-134.72"/>
</g>
<!-- Node76&#45;&gt;Node6 -->
<g id="edge182" class="edge">
<title>Node76&#45;&gt;Node6</title>
<path fill="none" stroke="midnightblue" d="M3172.35,-231.98C3309.87,-229.01 3653.39,-218.6 3694.75,-188 3723.02,-167.08 3739.56,-138.77 3716.75,-112 3690.45,-81.13 3582.03,-71.36 3508.09,-68.31"/>
<polygon fill="midnightblue" stroke="midnightblue" points="3508.02,-64.8 3497.9,-67.92 3507.76,-71.8 3508.02,-64.8"/>
</g>
<!-- Node76&#45;&gt;Node13 -->
<g id="edge184" class="edge">
<title>Node76&#45;&gt;Node13</title>
<path fill="none" stroke="midnightblue" d="M3172.35,-231.37C3240.62,-228.08 3349.41,-218.12 3374.75,-188 3385.86,-174.79 3379.22,-154.84 3371.77,-140.53"/>
<polygon fill="midnightblue" stroke="midnightblue" points="3374.71,-138.61 3366.7,-131.68 3368.63,-142.09 3374.71,-138.61"/>
</g>
<!-- Node76&#45;&gt;Node16 -->
<g id="edge186" class="edge">
<title>Node76&#45;&gt;Node16</title>
<path fill="none" stroke="midnightblue" d="M3065.69,-224.46C3018.92,-216.19 2947.28,-202.76 2885.75,-188 2815.57,-171.16 2734.57,-146.9 2690.49,-133.28"/>
<polygon fill="midnightblue" stroke="midnightblue" points="2691.47,-129.92 2680.88,-130.3 2689.4,-136.6 2691.47,-129.92"/>
</g>
<!-- Node76&#45;&gt;Node17 -->
<g id="edge187" class="edge">
<title>Node76&#45;&gt;Node17</title>
<path fill="none" stroke="midnightblue" d="M3172.3,-232.73C3308.29,-231.49 3644.87,-224.7 3678.75,-188 3691.5,-174.19 3679.18,-153.51 3667.32,-139.2"/>
<polygon fill="midnightblue" stroke="midnightblue" points="3669.84,-136.76 3660.58,-131.61 3664.6,-141.41 3669.84,-136.76"/>
</g>
<!-- Node76&#45;&gt;Node19 -->
<g id="edge188" class="edge">
<title>Node76&#45;&gt;Node19</title>
<path fill="none" stroke="midnightblue" d="M3059.05,-226.49C2883.59,-206.34 2352.16,-145.32 2199.3,-127.77"/>
<polygon fill="midnightblue" stroke="midnightblue" points="2199.29,-124.25 2188.96,-126.58 2198.49,-131.2 2199.29,-124.25"/>
</g>
<!-- Node76&#45;&gt;Node23 -->
<g id="edge185" class="edge">
<title>Node76&#45;&gt;Node23</title>
<path fill="none" stroke="midnightblue" d="M3059.23,-232.84C2903.71,-231.9 2472,-225.86 2335.75,-188 2317.36,-182.89 2316.04,-173.46 2297.75,-168 2215.89,-143.58 1956.16,-129.14 1861.61,-124.58"/>
<polygon fill="midnightblue" stroke="midnightblue" points="1861.58,-121.07 1851.43,-124.1 1861.25,-128.07 1861.58,-121.07"/>
</g>
<!-- Node76&#45;&gt;Node37 -->
<g id="edge183" class="edge">
<title>Node76&#45;&gt;Node37</title>
<path fill="none" stroke="midnightblue" d="M3059.17,-228.6C2937.71,-219.17 2651.37,-196.92 2507.07,-185.71"/>
<polygon fill="midnightblue" stroke="midnightblue" points="2507.17,-182.2 2496.93,-184.92 2506.62,-189.18 2507.17,-182.2"/>
</g>
</g>
</svg>
