<?xml version="1.0" encoding="UTF-8" standalone="no"?>
<!DOCTYPE svg PUBLIC "-//W3C//DTD SVG 1.1//EN"
 "http://www.w3.org/Graphics/SVG/1.1/DTD/svg11.dtd">
<!-- Generated by graphviz version 2.42.4 (0)
 -->
<!-- Title: include/llvm/ADT/BitmaskEnum.h Pages: 1 -->
<svg width="632pt" height="207pt"
 viewBox="0.00 0.00 632.00 207.00" xmlns="http://www.w3.org/2000/svg" xmlns:xlink="http://www.w3.org/1999/xlink">
<g id="graph0" class="graph" transform="scale(1 1) rotate(0) translate(4 203)">
<title>include/llvm/ADT/BitmaskEnum.h</title>
<!-- Node1 -->
<g id="node1" class="node">
<title>Node1</title>
<g id="a_node1"><a xlink:title=" ">
<polygon fill="#bfbfbf" stroke="black" points="102.5,-168.5 102.5,-198.5 245.5,-198.5 245.5,-168.5 102.5,-168.5"/>
<text text-anchor="start" x="110.5" y="-186.5" font-family="Helvetica,sans-Serif" font-size="10.00">include/llvm/ADT/Bitmask</text>
<text text-anchor="middle" x="174" y="-175.5" font-family="Helvetica,sans-Serif" font-size="10.00">Enum.h</text>
</a>
</g>
</g>
<!-- Node2 -->
<g id="node2" class="node">
<title>Node2</title>
<g id="a_node2"><a xlink:title=" ">
<polygon fill="none" stroke="#bfbfbf" points="0,-56.5 0,-75.5 52,-75.5 52,-56.5 0,-56.5"/>
<text text-anchor="middle" x="26" y="-63.5" font-family="Helvetica,sans-Serif" font-size="10.00">cassert</text>
</a>
</g>
</g>
<!-- Node1&#45;&gt;Node2 -->
<g id="edge1" class="edge">
<title>Node1&#45;&gt;Node2</title>
<path fill="none" stroke="midnightblue" d="M155.85,-168.34C127.73,-146.39 73.89,-104.37 45.16,-81.95"/>
<polygon fill="midnightblue" stroke="midnightblue" points="47.15,-79.06 37.11,-75.67 42.84,-84.58 47.15,-79.06"/>
</g>
<!-- Node3 -->
<g id="node3" class="node">
<title>Node3</title>
<g id="a_node3"><a xlink:title=" ">
<polygon fill="none" stroke="#bfbfbf" points="70.5,-56.5 70.5,-75.5 139.5,-75.5 139.5,-56.5 70.5,-56.5"/>
<text text-anchor="middle" x="105" y="-63.5" font-family="Helvetica,sans-Serif" font-size="10.00">type_traits</text>
</a>
</g>
</g>
<!-- Node1&#45;&gt;Node3 -->
<g id="edge2" class="edge">
<title>Node1&#45;&gt;Node3</title>
<path fill="none" stroke="midnightblue" d="M165.54,-168.34C152.88,-147.15 129.04,-107.24 115.36,-84.34"/>
<polygon fill="midnightblue" stroke="midnightblue" points="118.31,-82.46 110.18,-75.67 112.3,-86.05 118.31,-82.46"/>
</g>
<!-- Node4 -->
<g id="node4" class="node">
<title>Node4</title>
<g id="a_node4"><a xlink:title=" ">
<polygon fill="none" stroke="#bfbfbf" points="371.5,-112.5 371.5,-131.5 416.5,-131.5 416.5,-112.5 371.5,-112.5"/>
<text text-anchor="middle" x="394" y="-119.5" font-family="Helvetica,sans-Serif" font-size="10.00">utility</text>
</a>
</g>
</g>
<!-- Node1&#45;&gt;Node4 -->
<g id="edge3" class="edge">
<title>Node1&#45;&gt;Node4</title>
<path fill="none" stroke="midnightblue" d="M227.12,-168.41C262.52,-158.98 310.33,-146.16 361.38,-132.15"/>
<polygon fill="midnightblue" stroke="midnightblue" points="362.57,-135.45 371.28,-129.42 360.71,-128.7 362.57,-135.45"/>
</g>
<!-- Node5 -->
<g id="node5" class="node">
<title>Node5</title>
<g id="a_node5"><a xlink:href="MathExtras_8h.html" target="_top" xlink:title=" ">
<polygon fill="none" stroke="black" points="207,-112.5 207,-131.5 353,-131.5 353,-112.5 207,-112.5"/>
<text text-anchor="middle" x="280" y="-119.5" font-family="Helvetica,sans-Serif" font-size="10.00">llvm/Support/MathExtras.h</text>
</a>
</g>
</g>
<!-- Node1&#45;&gt;Node5 -->
<g id="edge4" class="edge">
<title>Node1&#45;&gt;Node5</title>
<path fill="none" stroke="midnightblue" d="M199.12,-168.4C216.27,-158.77 238.86,-146.09 255.81,-136.58"/>
<polygon fill="midnightblue" stroke="midnightblue" points="257.57,-139.6 264.58,-131.66 254.14,-133.5 257.57,-139.6"/>
</g>
<!-- Node5&#45;&gt;Node2 -->
<g id="edge8" class="edge">
<title>Node5&#45;&gt;Node2</title>
<path fill="none" stroke="midnightblue" d="M234.98,-112.42C192.78,-104.23 127.68,-91.21 62.39,-76.24"/>
<polygon fill="midnightblue" stroke="midnightblue" points="62.87,-72.76 52.34,-73.92 61.3,-79.58 62.87,-72.76"/>
</g>
<!-- Node5&#45;&gt;Node3 -->
<g id="edge14" class="edge">
<title>Node5&#45;&gt;Node3</title>
<path fill="none" stroke="midnightblue" d="M252.27,-112.44C222.57,-103.28 175.28,-88.69 142.33,-78.52"/>
<polygon fill="midnightblue" stroke="midnightblue" points="143.19,-75.12 132.6,-75.52 141.12,-81.81 143.19,-75.12"/>
</g>
<!-- Node6 -->
<g id="node6" class="node">
<title>Node6</title>
<g id="a_node6"><a xlink:href="Compiler_8h.html" target="_top" xlink:title=" ">
<polygon fill="none" stroke="black" points="158,-56.5 158,-75.5 292,-75.5 292,-56.5 158,-56.5"/>
<text text-anchor="middle" x="225" y="-63.5" font-family="Helvetica,sans-Serif" font-size="10.00">llvm/Support/Compiler.h</text>
</a>
</g>
</g>
<!-- Node5&#45;&gt;Node6 -->
<g id="edge5" class="edge">
<title>Node5&#45;&gt;Node6</title>
<path fill="none" stroke="midnightblue" d="M270.92,-112.08C262.83,-104.14 250.8,-92.34 241.09,-82.8"/>
<polygon fill="midnightblue" stroke="midnightblue" points="243.5,-80.26 233.91,-75.75 238.6,-85.25 243.5,-80.26"/>
</g>
<!-- Node9 -->
<g id="node9" class="node">
<title>Node9</title>
<g id="a_node9"><a xlink:title=" ">
<polygon fill="none" stroke="#bfbfbf" points="310,-56.5 310,-75.5 360,-75.5 360,-56.5 310,-56.5"/>
<text text-anchor="middle" x="335" y="-63.5" font-family="Helvetica,sans-Serif" font-size="10.00">climits</text>
</a>
</g>
</g>
<!-- Node5&#45;&gt;Node9 -->
<g id="edge9" class="edge">
<title>Node5&#45;&gt;Node9</title>
<path fill="none" stroke="midnightblue" d="M289.08,-112.08C297.17,-104.14 309.2,-92.34 318.91,-82.8"/>
<polygon fill="midnightblue" stroke="midnightblue" points="321.4,-85.25 326.09,-75.75 316.5,-80.26 321.4,-85.25"/>
</g>
<!-- Node10 -->
<g id="node10" class="node">
<title>Node10</title>
<g id="a_node10"><a xlink:title=" ">
<polygon fill="none" stroke="#bfbfbf" points="378.5,-56.5 378.5,-75.5 425.5,-75.5 425.5,-56.5 378.5,-56.5"/>
<text text-anchor="middle" x="402" y="-63.5" font-family="Helvetica,sans-Serif" font-size="10.00">cmath</text>
</a>
</g>
</g>
<!-- Node5&#45;&gt;Node10 -->
<g id="edge10" class="edge">
<title>Node5&#45;&gt;Node10</title>
<path fill="none" stroke="midnightblue" d="M299.33,-112.44C319.32,-103.6 350.74,-89.69 373.56,-79.59"/>
<polygon fill="midnightblue" stroke="midnightblue" points="375.03,-82.76 382.76,-75.52 372.2,-76.36 375.03,-82.76"/>
</g>
<!-- Node11 -->
<g id="node11" class="node">
<title>Node11</title>
<g id="a_node11"><a xlink:title=" ">
<polygon fill="none" stroke="#bfbfbf" points="444,-56.5 444,-75.5 494,-75.5 494,-56.5 444,-56.5"/>
<text text-anchor="middle" x="469" y="-63.5" font-family="Helvetica,sans-Serif" font-size="10.00">cstdint</text>
</a>
</g>
</g>
<!-- Node5&#45;&gt;Node11 -->
<g id="edge11" class="edge">
<title>Node5&#45;&gt;Node11</title>
<path fill="none" stroke="midnightblue" d="M309.95,-112.44C343.58,-102.83 398.1,-87.26 433.76,-77.07"/>
<polygon fill="midnightblue" stroke="midnightblue" points="435.08,-80.33 443.73,-74.22 433.15,-73.6 435.08,-80.33"/>
</g>
<!-- Node12 -->
<g id="node12" class="node">
<title>Node12</title>
<g id="a_node12"><a xlink:title=" ">
<polygon fill="none" stroke="#bfbfbf" points="512,-56.5 512,-75.5 562,-75.5 562,-56.5 512,-56.5"/>
<text text-anchor="middle" x="537" y="-63.5" font-family="Helvetica,sans-Serif" font-size="10.00">cstring</text>
</a>
</g>
</g>
<!-- Node5&#45;&gt;Node12 -->
<g id="edge12" class="edge">
<title>Node5&#45;&gt;Node12</title>
<path fill="none" stroke="midnightblue" d="M326.3,-112.49C369.4,-104.38 435.65,-91.45 502,-76.13"/>
<polygon fill="midnightblue" stroke="midnightblue" points="502.84,-79.53 511.79,-73.85 501.26,-72.71 502.84,-79.53"/>
</g>
<!-- Node13 -->
<g id="node13" class="node">
<title>Node13</title>
<g id="a_node13"><a xlink:title=" ">
<polygon fill="none" stroke="#bfbfbf" points="580,-56.5 580,-75.5 624,-75.5 624,-56.5 580,-56.5"/>
<text text-anchor="middle" x="602" y="-63.5" font-family="Helvetica,sans-Serif" font-size="10.00">limits</text>
</a>
</g>
</g>
<!-- Node5&#45;&gt;Node13 -->
<g id="edge13" class="edge">
<title>Node5&#45;&gt;Node13</title>
<path fill="none" stroke="midnightblue" d="M352.23,-112.47C408.99,-105.16 490.14,-93.38 569.56,-76.09"/>
<polygon fill="midnightblue" stroke="midnightblue" points="570.73,-79.41 579.74,-73.84 569.22,-72.58 570.73,-79.41"/>
</g>
<!-- Node7 -->
<g id="node7" class="node">
<title>Node7</title>
<g id="a_node7"><a xlink:title=" ">
<polygon fill="none" stroke="#bfbfbf" points="97.5,-0.5 97.5,-19.5 236.5,-19.5 236.5,-0.5 97.5,-0.5"/>
<text text-anchor="middle" x="167" y="-7.5" font-family="Helvetica,sans-Serif" font-size="10.00">llvm/Config/llvm&#45;config.h</text>
</a>
</g>
</g>
<!-- Node6&#45;&gt;Node7 -->
<g id="edge6" class="edge">
<title>Node6&#45;&gt;Node7</title>
<path fill="none" stroke="midnightblue" d="M215.68,-56.32C207.11,-48.34 194.19,-36.31 183.81,-26.65"/>
<polygon fill="midnightblue" stroke="midnightblue" points="186.19,-24.09 176.49,-19.83 181.42,-29.21 186.19,-24.09"/>
</g>
<!-- Node8 -->
<g id="node8" class="node">
<title>Node8</title>
<g id="a_node8"><a xlink:title=" ">
<polygon fill="none" stroke="#bfbfbf" points="255,-0.5 255,-19.5 311,-19.5 311,-0.5 255,-0.5"/>
<text text-anchor="middle" x="283" y="-7.5" font-family="Helvetica,sans-Serif" font-size="10.00">stddef.h</text>
</a>
</g>
</g>
<!-- Node6&#45;&gt;Node8 -->
<g id="edge7" class="edge">
<title>Node6&#45;&gt;Node8</title>
<path fill="none" stroke="midnightblue" d="M234.32,-56.32C242.89,-48.34 255.81,-36.31 266.19,-26.65"/>
<polygon fill="midnightblue" stroke="midnightblue" points="268.58,-29.21 273.51,-19.83 263.81,-24.09 268.58,-29.21"/>
</g>
</g>
</svg>
