<?xml version="1.0" encoding="UTF-8" standalone="no"?>
<!DOCTYPE svg PUBLIC "-//W3C//DTD SVG 1.1//EN"
 "http://www.w3.org/Graphics/SVG/1.1/DTD/svg11.dtd">
<!-- Generated by graphviz version 2.42.4 (0)
 -->
<!-- Title: lib/Remarks/BitstreamRemarkParser.cpp Pages: 1 -->
<svg width="3871pt" height="688pt"
 viewBox="0.00 0.00 3870.50 688.00" xmlns="http://www.w3.org/2000/svg" xmlns:xlink="http://www.w3.org/1999/xlink">
<g id="graph0" class="graph" transform="scale(1 1) rotate(0) translate(4 684)">
<title>lib/Remarks/BitstreamRemarkParser.cpp</title>
<!-- Node1 -->
<g id="node1" class="node">
<title>Node1</title>
<g id="a_node1"><a xlink:title=" ">
<polygon fill="#bfbfbf" stroke="black" points="2716,-649.5 2716,-679.5 2880,-679.5 2880,-649.5 2716,-649.5"/>
<text text-anchor="start" x="2724" y="-667.5" font-family="Helvetica,sans-Serif" font-size="10.00">lib/Remarks/BitstreamRemark</text>
<text text-anchor="middle" x="2798" y="-656.5" font-family="Helvetica,sans-Serif" font-size="10.00">Parser.cpp</text>
</a>
</g>
</g>
<!-- Node2 -->
<g id="node2" class="node">
<title>Node2</title>
<g id="a_node2"><a xlink:href="include_2llvm_2Remarks_2BitstreamRemarkParser_8h.html" target="_top" xlink:title=" ">
<polygon fill="none" stroke="black" points="1596,-582.5 1596,-612.5 1770,-612.5 1770,-582.5 1596,-582.5"/>
<text text-anchor="start" x="1604" y="-600.5" font-family="Helvetica,sans-Serif" font-size="10.00">llvm/Remarks/BitstreamRemark</text>
<text text-anchor="middle" x="1683" y="-589.5" font-family="Helvetica,sans-Serif" font-size="10.00">Parser.h</text>
</a>
</g>
</g>
<!-- Node1&#45;&gt;Node2 -->
<g id="edge1" class="edge">
<title>Node1&#45;&gt;Node2</title>
<path fill="none" stroke="midnightblue" d="M2715.84,-658.99C2559.38,-650.36 2207.86,-630.8 1912,-613 1868.84,-610.4 1821.1,-607.4 1780.44,-604.81"/>
<polygon fill="midnightblue" stroke="midnightblue" points="1780.46,-601.3 1770.26,-604.15 1780.01,-608.29 1780.46,-601.3"/>
</g>
<!-- Node67 -->
<g id="node45" class="node">
<title>Node67</title>
<g id="a_node45"><a xlink:href="MemoryBuffer_8h.html" target="_top" xlink:title=" ">
<polygon fill="none" stroke="black" points="2615,-403.5 2615,-422.5 2775,-422.5 2775,-403.5 2615,-403.5"/>
<text text-anchor="middle" x="2695" y="-410.5" font-family="Helvetica,sans-Serif" font-size="10.00">llvm/Support/MemoryBuffer.h</text>
</a>
</g>
</g>
<!-- Node1&#45;&gt;Node67 -->
<g id="edge184" class="edge">
<title>Node1&#45;&gt;Node67</title>
<path fill="none" stroke="midnightblue" d="M2792.17,-649.37C2774.6,-606.82 2722.2,-479.89 2702.55,-432.3"/>
<polygon fill="midnightblue" stroke="midnightblue" points="2705.74,-430.84 2698.69,-422.93 2699.27,-433.51 2705.74,-430.84"/>
</g>
<!-- Node72 -->
<g id="node49" class="node">
<title>Node72</title>
<g id="a_node49"><a xlink:title=" ">
<polygon fill="none" stroke="#bfbfbf" points="3721.5,-588 3721.5,-607 3862.5,-607 3862.5,-588 3721.5,-588"/>
<text text-anchor="middle" x="3792" y="-595" font-family="Helvetica,sans-Serif" font-size="10.00">BitstreamRemarkParser.h</text>
</a>
</g>
</g>
<!-- Node1&#45;&gt;Node72 -->
<g id="edge183" class="edge">
<title>Node1&#45;&gt;Node72</title>
<path fill="none" stroke="midnightblue" d="M2880.05,-662.06C3039.74,-658.56 3403.28,-647.23 3707,-613 3716.93,-611.88 3727.46,-610.36 3737.6,-608.72"/>
<polygon fill="midnightblue" stroke="midnightblue" points="3738.29,-612.16 3747.58,-607.06 3737.14,-605.25 3738.29,-612.16"/>
</g>
<!-- Node73 -->
<g id="node50" class="node">
<title>Node73</title>
<g id="a_node50"><a xlink:href="Path_8h.html" target="_top" xlink:title=" ">
<polygon fill="none" stroke="black" points="1847,-403.5 1847,-422.5 1959,-422.5 1959,-403.5 1847,-403.5"/>
<text text-anchor="middle" x="1903" y="-410.5" font-family="Helvetica,sans-Serif" font-size="10.00">llvm/Support/Path.h</text>
</a>
</g>
</g>
<!-- Node1&#45;&gt;Node73 -->
<g id="edge185" class="edge">
<title>Node1&#45;&gt;Node73</title>
<path fill="none" stroke="midnightblue" d="M2715.93,-658.95C2538.71,-647.9 2126.58,-615.34 2007,-546 1959.81,-518.64 1926.08,-460.84 1911.32,-431.65"/>
<polygon fill="midnightblue" stroke="midnightblue" points="1914.44,-430.06 1906.9,-422.62 1908.15,-433.14 1914.44,-430.06"/>
</g>
<!-- Node3 -->
<g id="node3" class="node">
<title>Node3</title>
<g id="a_node3"><a xlink:href="ArrayRef_8h.html" target="_top" xlink:title=" ">
<polygon fill="none" stroke="black" points="1511,-280.5 1511,-299.5 1627,-299.5 1627,-280.5 1511,-280.5"/>
<text text-anchor="middle" x="1569" y="-287.5" font-family="Helvetica,sans-Serif" font-size="10.00">llvm/ADT/ArrayRef.h</text>
</a>
</g>
</g>
<!-- Node2&#45;&gt;Node3 -->
<g id="edge2" class="edge">
<title>Node2&#45;&gt;Node3</title>
<path fill="none" stroke="midnightblue" d="M1677.65,-582.17C1658.96,-532.08 1596.52,-364.75 1575.77,-309.14"/>
<polygon fill="midnightblue" stroke="midnightblue" points="1578.98,-307.72 1572.2,-299.58 1572.42,-310.17 1578.98,-307.72"/>
</g>
<!-- Node38 -->
<g id="node25" class="node">
<title>Node38</title>
<g id="a_node25"><a xlink:href="Optional_8h.html" target="_top" xlink:title=" ">
<polygon fill="none" stroke="black" points="957.5,-168.5 957.5,-187.5 1072.5,-187.5 1072.5,-168.5 957.5,-168.5"/>
<text text-anchor="middle" x="1015" y="-175.5" font-family="Helvetica,sans-Serif" font-size="10.00">llvm/ADT/Optional.h</text>
</a>
</g>
</g>
<!-- Node2&#45;&gt;Node38 -->
<g id="edge77" class="edge">
<title>Node2&#45;&gt;Node38</title>
<path fill="none" stroke="midnightblue" d="M1595.99,-595.01C1351.5,-590.5 661.58,-575.47 437,-546 290.78,-526.81 114,-617.48 114,-470 114,-470 114,-470 114,-350.5 114,-233.84 229.53,-246.53 344,-224 458.04,-201.55 800.55,-186.8 947.18,-181.35"/>
<polygon fill="midnightblue" stroke="midnightblue" points="947.53,-184.84 957.4,-180.98 947.27,-177.85 947.53,-184.84"/>
</g>
<!-- Node17 -->
<g id="node29" class="node">
<title>Node17</title>
<g id="a_node29"><a xlink:title=" ">
<polygon fill="none" stroke="#bfbfbf" points="3301,-112.5 3301,-131.5 3351,-131.5 3351,-112.5 3301,-112.5"/>
<text text-anchor="middle" x="3326" y="-119.5" font-family="Helvetica,sans-Serif" font-size="10.00">cstdint</text>
</a>
</g>
</g>
<!-- Node2&#45;&gt;Node17 -->
<g id="edge182" class="edge">
<title>Node2&#45;&gt;Node17</title>
<path fill="none" stroke="midnightblue" d="M1770.06,-596.12C2077.44,-593.92 3110.11,-579.07 3423,-479 3473.19,-462.95 3527.5,-453.94 3514,-403 3483.19,-286.78 3457.19,-260.18 3380,-168 3370.36,-156.48 3357.5,-145.64 3346.75,-137.48"/>
<polygon fill="midnightblue" stroke="midnightblue" points="3348.82,-134.65 3338.69,-131.55 3344.67,-140.3 3348.82,-134.65"/>
</g>
<!-- Node42 -->
<g id="node30" class="node">
<title>Node42</title>
<g id="a_node30"><a xlink:title=" ">
<polygon fill="none" stroke="#bfbfbf" points="536,-224.5 536,-243.5 578,-243.5 578,-224.5 536,-224.5"/>
<text text-anchor="middle" x="557" y="-231.5" font-family="Helvetica,sans-Serif" font-size="10.00">array</text>
</a>
</g>
</g>
<!-- Node2&#45;&gt;Node42 -->
<g id="edge181" class="edge">
<title>Node2&#45;&gt;Node42</title>
<path fill="none" stroke="midnightblue" d="M1595.96,-593.31C1287.67,-581.46 266,-537.11 266,-470 266,-470 266,-470 266,-350.5 266,-318.05 260.94,-301.78 285,-280 319.88,-248.42 461.64,-238.8 525.52,-236.04"/>
<polygon fill="midnightblue" stroke="midnightblue" points="525.94,-239.53 535.79,-235.63 525.66,-232.53 525.94,-239.53"/>
</g>
<!-- Node44 -->
<g id="node32" class="node">
<title>Node44</title>
<g id="a_node32"><a xlink:href="StringRef_8h.html" target="_top" xlink:title=" ">
<polygon fill="none" stroke="black" points="2194,-280.5 2194,-299.5 2312,-299.5 2312,-280.5 2194,-280.5"/>
<text text-anchor="middle" x="2253" y="-287.5" font-family="Helvetica,sans-Serif" font-size="10.00">llvm/ADT/StringRef.h</text>
</a>
</g>
</g>
<!-- Node2&#45;&gt;Node44 -->
<g id="edge78" class="edge">
<title>Node2&#45;&gt;Node44</title>
<path fill="none" stroke="midnightblue" d="M1709.35,-582.38C1805.14,-531.04 2134.2,-354.67 2227.91,-304.45"/>
<polygon fill="midnightblue" stroke="midnightblue" points="2229.8,-307.41 2236.96,-299.6 2226.49,-301.24 2229.8,-307.41"/>
</g>
<!-- Node45 -->
<g id="node33" class="node">
<title>Node45</title>
<g id="a_node33"><a xlink:href="BitstreamReader_8h.html" target="_top" xlink:title=" ">
<polygon fill="none" stroke="black" points="2016,-515.5 2016,-545.5 2156,-545.5 2156,-515.5 2016,-515.5"/>
<text text-anchor="start" x="2024" y="-533.5" font-family="Helvetica,sans-Serif" font-size="10.00">llvm/Bitstream/Bitstream</text>
<text text-anchor="middle" x="2086" y="-522.5" font-family="Helvetica,sans-Serif" font-size="10.00">Reader.h</text>
</a>
</g>
</g>
<!-- Node2&#45;&gt;Node45 -->
<g id="edge90" class="edge">
<title>Node2&#45;&gt;Node45</title>
<path fill="none" stroke="midnightblue" d="M1769.95,-582.48C1839.94,-571.19 1937.54,-555.45 2005.7,-544.45"/>
<polygon fill="midnightblue" stroke="midnightblue" points="2006.64,-547.85 2015.95,-542.8 2005.52,-540.94 2006.64,-547.85"/>
</g>
<!-- Node56 -->
<g id="node38" class="node">
<title>Node56</title>
<g id="a_node38"><a xlink:href="llvm_2Support_2Error_8h.html" target="_top" xlink:title=" ">
<polygon fill="none" stroke="red" points="932.5,-459.5 932.5,-478.5 1045.5,-478.5 1045.5,-459.5 932.5,-459.5"/>
<text text-anchor="middle" x="989" y="-466.5" font-family="Helvetica,sans-Serif" font-size="10.00">llvm/Support/Error.h</text>
</a>
</g>
</g>
<!-- Node2&#45;&gt;Node56 -->
<g id="edge180" class="edge">
<title>Node2&#45;&gt;Node56</title>
<path fill="none" stroke="midnightblue" d="M1606.08,-582.48C1465.51,-556.86 1170.2,-503.03 1045.98,-480.39"/>
<polygon fill="midnightblue" stroke="midnightblue" points="1046.38,-476.9 1035.92,-478.55 1045.13,-483.79 1046.38,-476.9"/>
</g>
<!-- Node4 -->
<g id="node4" class="node">
<title>Node4</title>
<g id="a_node4"><a xlink:href="Hashing_8h.html" target="_top" xlink:title=" ">
<polygon fill="none" stroke="red" points="2243.5,-112.5 2243.5,-131.5 2356.5,-131.5 2356.5,-112.5 2243.5,-112.5"/>
<text text-anchor="middle" x="2300" y="-119.5" font-family="Helvetica,sans-Serif" font-size="10.00">llvm/ADT/Hashing.h</text>
</a>
</g>
</g>
<!-- Node3&#45;&gt;Node4 -->
<g id="edge3" class="edge">
<title>Node3&#45;&gt;Node4</title>
<path fill="none" stroke="midnightblue" d="M1606.51,-280.48C1728.88,-252.69 2116.39,-164.69 2252.32,-133.83"/>
<polygon fill="midnightblue" stroke="midnightblue" points="2253.45,-137.16 2262.42,-131.53 2251.9,-130.33 2253.45,-137.16"/>
</g>
<!-- Node11 -->
<g id="node7" class="node">
<title>Node11</title>
<g id="a_node7"><a xlink:href="Compiler_8h.html" target="_top" xlink:title=" ">
<polygon fill="none" stroke="red" points="2832,-0.5 2832,-19.5 2966,-19.5 2966,-0.5 2832,-0.5"/>
<text text-anchor="middle" x="2899" y="-7.5" font-family="Helvetica,sans-Serif" font-size="10.00">llvm/Support/Compiler.h</text>
</a>
</g>
</g>
<!-- Node3&#45;&gt;Node11 -->
<g id="edge67" class="edge">
<title>Node3&#45;&gt;Node11</title>
<path fill="none" stroke="midnightblue" d="M1627.01,-284.33C1762.94,-273.43 2112.64,-245.58 2405,-224 2462.21,-219.78 2880.88,-229.95 2920,-188 2961.11,-143.92 2927.51,-64.46 2909.08,-28.97"/>
<polygon fill="midnightblue" stroke="midnightblue" points="2911.98,-26.96 2904.16,-19.82 2905.82,-30.28 2911.98,-26.96"/>
</g>
<!-- Node18 -->
<g id="node10" class="node">
<title>Node18</title>
<g id="a_node10"><a xlink:title=" ">
<polygon fill="none" stroke="#bfbfbf" points="1498.5,-0.5 1498.5,-19.5 1567.5,-19.5 1567.5,-0.5 1498.5,-0.5"/>
<text text-anchor="middle" x="1533" y="-7.5" font-family="Helvetica,sans-Serif" font-size="10.00">type_traits</text>
</a>
</g>
</g>
<!-- Node3&#45;&gt;Node18 -->
<g id="edge75" class="edge">
<title>Node3&#45;&gt;Node18</title>
<path fill="none" stroke="midnightblue" d="M1510.87,-281.5C1506.18,-280.97 1501.51,-280.46 1497,-280 1292.54,-259.25 1231.63,-306.97 1036,-244 1019.67,-238.75 1019.35,-229.17 1003,-224 889.16,-188.04 570.91,-246.77 467,-188 440.6,-173.07 437.08,-160.94 428,-132 401.43,-47.36 565.94,-57.08 571,-56 749.41,-17.97 1322.62,-12.08 1487.96,-11.17"/>
<polygon fill="midnightblue" stroke="midnightblue" points="1488.27,-14.66 1498.25,-11.11 1488.24,-7.67 1488.27,-14.66"/>
</g>
<!-- Node22 -->
<g id="node12" class="node">
<title>Node22</title>
<g id="a_node12"><a xlink:title=" ">
<polygon fill="none" stroke="#bfbfbf" points="580,-56.5 580,-75.5 644,-75.5 644,-56.5 580,-56.5"/>
<text text-anchor="middle" x="612" y="-63.5" font-family="Helvetica,sans-Serif" font-size="10.00">algorithm</text>
</a>
</g>
</g>
<!-- Node3&#45;&gt;Node22 -->
<g id="edge68" class="edge">
<title>Node3&#45;&gt;Node22</title>
<path fill="none" stroke="midnightblue" d="M1510.86,-281.53C1506.18,-280.99 1501.51,-280.47 1497,-280 1309.35,-260.29 1255.09,-296.99 1074,-244 1055.68,-238.64 1054.35,-229.23 1036,-224 818.75,-162.07 744.05,-257.19 529,-188 483.79,-173.46 461.17,-173.46 438,-132 409.38,-80.77 509.36,-69.53 569.58,-67.31"/>
<polygon fill="midnightblue" stroke="midnightblue" points="569.71,-70.81 579.6,-67.01 569.5,-63.81 569.71,-70.81"/>
</g>
<!-- Node23 -->
<g id="node13" class="node">
<title>Node23</title>
<g id="a_node13"><a xlink:title=" ">
<polygon fill="none" stroke="#bfbfbf" points="1980,-56.5 1980,-75.5 2032,-75.5 2032,-56.5 1980,-56.5"/>
<text text-anchor="middle" x="2006" y="-63.5" font-family="Helvetica,sans-Serif" font-size="10.00">cassert</text>
</a>
</g>
</g>
<!-- Node3&#45;&gt;Node23 -->
<g id="edge70" class="edge">
<title>Node3&#45;&gt;Node23</title>
<path fill="none" stroke="midnightblue" d="M1562.4,-280.34C1546.94,-258.92 1511.65,-202.66 1539,-168 1592.6,-100.06 1869.04,-75.77 1969.48,-69.11"/>
<polygon fill="midnightblue" stroke="midnightblue" points="1969.98,-72.59 1979.74,-68.46 1969.53,-65.6 1969.98,-72.59"/>
</g>
<!-- Node26 -->
<g id="node15" class="node">
<title>Node26</title>
<g id="a_node15"><a xlink:href="None_8h.html" target="_top" xlink:title=" ">
<polygon fill="none" stroke="black" points="446.5,-112.5 446.5,-131.5 545.5,-131.5 545.5,-112.5 446.5,-112.5"/>
<text text-anchor="middle" x="496" y="-119.5" font-family="Helvetica,sans-Serif" font-size="10.00">llvm/ADT/None.h</text>
</a>
</g>
</g>
<!-- Node3&#45;&gt;Node26 -->
<g id="edge17" class="edge">
<title>Node3&#45;&gt;Node26</title>
<path fill="none" stroke="midnightblue" d="M1510.67,-281.69C1425.37,-270.98 1270.72,-251.49 1215,-244 1152.27,-235.56 1136.94,-230.66 1074,-224 960.35,-211.97 664.98,-235.4 561,-188 538.18,-177.6 518.88,-155.47 507.38,-139.93"/>
<polygon fill="midnightblue" stroke="midnightblue" points="510.18,-137.83 501.54,-131.69 504.46,-141.87 510.18,-137.83"/>
</g>
<!-- Node27 -->
<g id="node16" class="node">
<title>Node27</title>
<g id="a_node16"><a xlink:href="SmallVector_8h.html" target="_top" xlink:title=" ">
<polygon fill="none" stroke="red" points="1547.5,-168.5 1547.5,-187.5 1678.5,-187.5 1678.5,-168.5 1547.5,-168.5"/>
<text text-anchor="middle" x="1613" y="-175.5" font-family="Helvetica,sans-Serif" font-size="10.00">llvm/ADT/SmallVector.h</text>
</a>
</g>
</g>
<!-- Node3&#45;&gt;Node27 -->
<g id="edge18" class="edge">
<title>Node3&#45;&gt;Node27</title>
<path fill="none" stroke="midnightblue" d="M1572.45,-280.37C1579.62,-262.46 1596.23,-220.92 1605.82,-196.95"/>
<polygon fill="midnightblue" stroke="midnightblue" points="1609.1,-198.18 1609.56,-187.59 1602.6,-195.58 1609.1,-198.18"/>
</g>
<!-- Node16 -->
<g id="node18" class="node">
<title>Node16</title>
<g id="a_node18"><a xlink:title=" ">
<polygon fill="none" stroke="#bfbfbf" points="2589.5,-112.5 2589.5,-131.5 2642.5,-131.5 2642.5,-112.5 2589.5,-112.5"/>
<text text-anchor="middle" x="2616" y="-119.5" font-family="Helvetica,sans-Serif" font-size="10.00">cstddef</text>
</a>
</g>
</g>
<!-- Node3&#45;&gt;Node16 -->
<g id="edge71" class="edge">
<title>Node3&#45;&gt;Node16</title>
<path fill="none" stroke="midnightblue" d="M1622.72,-280.48C1808.73,-250.99 2422.44,-153.69 2579.26,-128.83"/>
<polygon fill="midnightblue" stroke="midnightblue" points="2580.01,-132.25 2589.33,-127.23 2578.91,-125.34 2580.01,-132.25"/>
</g>
<!-- Node32 -->
<g id="node19" class="node">
<title>Node32</title>
<g id="a_node19"><a xlink:title=" ">
<polygon fill="none" stroke="#bfbfbf" points="1461.5,-112.5 1461.5,-131.5 1544.5,-131.5 1544.5,-112.5 1461.5,-112.5"/>
<text text-anchor="middle" x="1503" y="-119.5" font-family="Helvetica,sans-Serif" font-size="10.00">initializer_list</text>
</a>
</g>
</g>
<!-- Node3&#45;&gt;Node32 -->
<g id="edge72" class="edge">
<title>Node3&#45;&gt;Node32</title>
<path fill="none" stroke="midnightblue" d="M1555.81,-280.19C1544.67,-272.06 1529.1,-259.01 1520,-244 1500.65,-212.06 1499.87,-166.83 1501.27,-141.69"/>
<polygon fill="midnightblue" stroke="midnightblue" points="1504.77,-141.91 1502.01,-131.68 1497.79,-141.39 1504.77,-141.91"/>
</g>
<!-- Node33 -->
<g id="node20" class="node">
<title>Node33</title>
<g id="a_node20"><a xlink:title=" ">
<polygon fill="none" stroke="#bfbfbf" points="1829.5,-112.5 1829.5,-131.5 1882.5,-131.5 1882.5,-112.5 1829.5,-112.5"/>
<text text-anchor="middle" x="1856" y="-119.5" font-family="Helvetica,sans-Serif" font-size="10.00">iterator</text>
</a>
</g>
</g>
<!-- Node3&#45;&gt;Node33 -->
<g id="edge73" class="edge">
<title>Node3&#45;&gt;Node33</title>
<path fill="none" stroke="midnightblue" d="M1582.4,-280.47C1614.31,-260.24 1697.48,-208.07 1769,-168 1789.03,-156.78 1812.13,-144.88 1829.49,-136.14"/>
<polygon fill="midnightblue" stroke="midnightblue" points="1831.11,-139.24 1838.49,-131.63 1827.98,-132.98 1831.11,-139.24"/>
</g>
<!-- Node35 -->
<g id="node22" class="node">
<title>Node35</title>
<g id="a_node22"><a xlink:title=" ">
<polygon fill="none" stroke="#bfbfbf" points="1309,-112.5 1309,-131.5 1367,-131.5 1367,-112.5 1309,-112.5"/>
<text text-anchor="middle" x="1338" y="-119.5" font-family="Helvetica,sans-Serif" font-size="10.00">memory</text>
</a>
</g>
</g>
<!-- Node3&#45;&gt;Node35 -->
<g id="edge74" class="edge">
<title>Node3&#45;&gt;Node35</title>
<path fill="none" stroke="midnightblue" d="M1510.62,-281.54C1413.49,-269.1 1229.16,-245.32 1228,-244 1193.11,-204.21 1267.35,-158.21 1310.29,-136.14"/>
<polygon fill="midnightblue" stroke="midnightblue" points="1312.07,-139.17 1319.44,-131.56 1308.93,-132.91 1312.07,-139.17"/>
</g>
<!-- Node37 -->
<g id="node24" class="node">
<title>Node37</title>
<g id="a_node24"><a xlink:href="STLExtras_8h.html" target="_top" xlink:title=" ">
<polygon fill="none" stroke="red" points="1346,-224.5 1346,-243.5 1468,-243.5 1468,-224.5 1346,-224.5"/>
<text text-anchor="middle" x="1407" y="-231.5" font-family="Helvetica,sans-Serif" font-size="10.00">llvm/ADT/STLExtras.h</text>
</a>
</g>
</g>
<!-- Node3&#45;&gt;Node37 -->
<g id="edge35" class="edge">
<title>Node3&#45;&gt;Node37</title>
<path fill="none" stroke="midnightblue" d="M1543.33,-280.44C1516.08,-271.36 1472.82,-256.94 1442.35,-246.78"/>
<polygon fill="midnightblue" stroke="midnightblue" points="1443.14,-243.36 1432.55,-243.52 1440.93,-250 1443.14,-243.36"/>
</g>
<!-- Node3&#45;&gt;Node42 -->
<g id="edge69" class="edge">
<title>Node3&#45;&gt;Node42</title>
<path fill="none" stroke="midnightblue" d="M1510.96,-285.9C1322.46,-275.84 731.42,-244.31 588.39,-236.68"/>
<polygon fill="midnightblue" stroke="midnightblue" points="588.32,-233.17 578.14,-236.13 587.94,-240.16 588.32,-233.17"/>
</g>
<!-- Node43 -->
<g id="node31" class="node">
<title>Node43</title>
<g id="a_node31"><a xlink:title=" ">
<polygon fill="none" stroke="#bfbfbf" points="946.5,-224.5 946.5,-243.5 993.5,-243.5 993.5,-224.5 946.5,-224.5"/>
<text text-anchor="middle" x="970" y="-231.5" font-family="Helvetica,sans-Serif" font-size="10.00">vector</text>
</a>
</g>
</g>
<!-- Node3&#45;&gt;Node43 -->
<g id="edge76" class="edge">
<title>Node3&#45;&gt;Node43</title>
<path fill="none" stroke="midnightblue" d="M1510.87,-281.48C1506.18,-280.95 1501.51,-280.45 1497,-280 1280.14,-258.48 1223.38,-277.22 1008,-244 1006.53,-243.77 1005.04,-243.52 1003.54,-243.25"/>
<polygon fill="midnightblue" stroke="midnightblue" points="1004.1,-239.79 993.6,-241.2 1002.69,-246.65 1004.1,-239.79"/>
</g>
<!-- Node5 -->
<g id="node5" class="node">
<title>Node5</title>
<g id="a_node5"><a xlink:href="llvm_2Support_2DataTypes_8h.html" target="_top" xlink:title=" ">
<polygon fill="none" stroke="red" points="3400,-56.5 3400,-75.5 3542,-75.5 3542,-56.5 3400,-56.5"/>
<text text-anchor="middle" x="3471" y="-63.5" font-family="Helvetica,sans-Serif" font-size="10.00">llvm/Support/DataTypes.h</text>
</a>
</g>
</g>
<!-- Node4&#45;&gt;Node5 -->
<g id="edge4" class="edge">
<title>Node4&#45;&gt;Node5</title>
<path fill="none" stroke="midnightblue" d="M2356.64,-117.12C2382.64,-115.41 2413.88,-113.46 2442,-112 2833.8,-91.59 2932.18,-95.99 3324,-76 3345.38,-74.91 3368.51,-73.57 3389.94,-72.26"/>
<polygon fill="midnightblue" stroke="midnightblue" points="3390.22,-75.75 3399.99,-71.64 3389.79,-68.76 3390.22,-75.75"/>
</g>
<!-- Node10 -->
<g id="node6" class="node">
<title>Node10</title>
<g id="a_node6"><a xlink:href="llvm_2Support_2ErrorHandling_8h.html" target="_top" xlink:title=" ">
<polygon fill="none" stroke="black" points="3157,-56.5 3157,-75.5 3315,-75.5 3315,-56.5 3157,-56.5"/>
<text text-anchor="middle" x="3236" y="-63.5" font-family="Helvetica,sans-Serif" font-size="10.00">llvm/Support/ErrorHandling.h</text>
</a>
</g>
</g>
<!-- Node4&#45;&gt;Node10 -->
<g id="edge5" class="edge">
<title>Node4&#45;&gt;Node10</title>
<path fill="none" stroke="midnightblue" d="M2356.55,-116.03C2373.42,-114.63 2391.95,-113.17 2409,-112 2677.37,-93.62 2995.14,-78.07 3146.8,-71.03"/>
<polygon fill="midnightblue" stroke="midnightblue" points="3147.16,-74.52 3156.99,-70.56 3146.84,-67.53 3147.16,-74.52"/>
</g>
<!-- Node14 -->
<g id="node8" class="node">
<title>Node14</title>
<g id="a_node8"><a xlink:title=" ">
<polygon fill="none" stroke="#bfbfbf" points="3321,-0.5 3321,-19.5 3365,-19.5 3365,-0.5 3321,-0.5"/>
<text text-anchor="middle" x="3343" y="-7.5" font-family="Helvetica,sans-Serif" font-size="10.00">string</text>
</a>
</g>
</g>
<!-- Node4&#45;&gt;Node14 -->
<g id="edge15" class="edge">
<title>Node4&#45;&gt;Node14</title>
<path fill="none" stroke="midnightblue" d="M2330.49,-112.43C2382.87,-98.09 2493.52,-69.5 2589,-56 2866.46,-16.78 3206.07,-11.68 3310.75,-11.07"/>
<polygon fill="midnightblue" stroke="midnightblue" points="3310.99,-14.57 3320.97,-11.02 3310.96,-7.57 3310.99,-14.57"/>
</g>
<!-- Node20 -->
<g id="node9" class="node">
<title>Node20</title>
<g id="a_node9"><a xlink:href="type__traits_8h.html" target="_top" xlink:title=" ">
<polygon fill="none" stroke="black" points="1553.5,-56.5 1553.5,-75.5 1696.5,-75.5 1696.5,-56.5 1553.5,-56.5"/>
<text text-anchor="middle" x="1625" y="-63.5" font-family="Helvetica,sans-Serif" font-size="10.00">llvm/Support/type_traits.h</text>
</a>
</g>
</g>
<!-- Node4&#45;&gt;Node20 -->
<g id="edge8" class="edge">
<title>Node4&#45;&gt;Node20</title>
<path fill="none" stroke="midnightblue" d="M2243.32,-116.47C2123.82,-106.91 1845.62,-84.65 1706.81,-73.54"/>
<polygon fill="midnightblue" stroke="midnightblue" points="1706.9,-70.04 1696.65,-72.73 1706.34,-77.02 1706.9,-70.04"/>
</g>
<!-- Node21 -->
<g id="node11" class="node">
<title>Node21</title>
<g id="a_node11"><a xlink:title=" ">
<polygon fill="none" stroke="#bfbfbf" points="454.5,-0.5 454.5,-19.5 499.5,-19.5 499.5,-0.5 454.5,-0.5"/>
<text text-anchor="middle" x="477" y="-7.5" font-family="Helvetica,sans-Serif" font-size="10.00">utility</text>
</a>
</g>
</g>
<!-- Node4&#45;&gt;Node21 -->
<g id="edge16" class="edge">
<title>Node4&#45;&gt;Node21</title>
<path fill="none" stroke="midnightblue" d="M2273.9,-112.44C2227.6,-97.71 2127.79,-67.99 2041,-56 1730.2,-13.05 706.78,-10.97 509.92,-10.97"/>
<polygon fill="midnightblue" stroke="midnightblue" points="509.65,-7.47 499.65,-10.98 509.65,-14.47 509.65,-7.47"/>
</g>
<!-- Node4&#45;&gt;Node22 -->
<g id="edge12" class="edge">
<title>Node4&#45;&gt;Node22</title>
<path fill="none" stroke="midnightblue" d="M2243.35,-119.19C1980.76,-110.79 884.97,-75.73 654.61,-68.36"/>
<polygon fill="midnightblue" stroke="midnightblue" points="654.41,-64.85 644.3,-68.03 654.18,-71.85 654.41,-64.85"/>
</g>
<!-- Node4&#45;&gt;Node23 -->
<g id="edge13" class="edge">
<title>Node4&#45;&gt;Node23</title>
<path fill="none" stroke="midnightblue" d="M2253.41,-112.44C2194.82,-101.68 2095.46,-83.43 2042.23,-73.65"/>
<polygon fill="midnightblue" stroke="midnightblue" points="2042.69,-70.18 2032.22,-71.82 2041.42,-77.07 2042.69,-70.18"/>
</g>
<!-- Node24 -->
<g id="node14" class="node">
<title>Node24</title>
<g id="a_node14"><a xlink:title=" ">
<polygon fill="none" stroke="#bfbfbf" points="2598,-56.5 2598,-75.5 2648,-75.5 2648,-56.5 2598,-56.5"/>
<text text-anchor="middle" x="2623" y="-63.5" font-family="Helvetica,sans-Serif" font-size="10.00">cstring</text>
</a>
</g>
</g>
<!-- Node4&#45;&gt;Node24 -->
<g id="edge14" class="edge">
<title>Node4&#45;&gt;Node24</title>
<path fill="none" stroke="midnightblue" d="M2351.18,-112.44C2417.33,-101.38 2530.77,-82.42 2587.92,-72.86"/>
<polygon fill="midnightblue" stroke="midnightblue" points="2588.63,-76.3 2597.91,-71.19 2587.47,-69.39 2588.63,-76.3"/>
</g>
<!-- Node10&#45;&gt;Node11 -->
<g id="edge6" class="edge">
<title>Node10&#45;&gt;Node11</title>
<path fill="none" stroke="midnightblue" d="M3182.6,-56.44C3122.7,-46.85 3025.63,-31.29 2962.05,-21.1"/>
<polygon fill="midnightblue" stroke="midnightblue" points="2962.58,-17.64 2952.15,-19.52 2961.47,-24.55 2962.58,-17.64"/>
</g>
<!-- Node10&#45;&gt;Node14 -->
<g id="edge7" class="edge">
<title>Node10&#45;&gt;Node14</title>
<path fill="none" stroke="midnightblue" d="M3253.19,-56.32C3270.35,-47.66 3296.95,-34.24 3316.75,-24.25"/>
<polygon fill="midnightblue" stroke="midnightblue" points="3318.5,-27.28 3325.85,-19.65 3315.35,-21.04 3318.5,-27.28"/>
</g>
<!-- Node20&#45;&gt;Node11 -->
<g id="edge9" class="edge">
<title>Node20&#45;&gt;Node11</title>
<path fill="none" stroke="midnightblue" d="M1696.76,-60.78C1724.9,-59.19 1757.46,-57.42 1787,-56 2175.57,-37.35 2640.77,-20.2 2821.71,-13.73"/>
<polygon fill="midnightblue" stroke="midnightblue" points="2822.06,-17.22 2831.92,-13.36 2821.81,-10.22 2822.06,-17.22"/>
</g>
<!-- Node20&#45;&gt;Node18 -->
<g id="edge10" class="edge">
<title>Node20&#45;&gt;Node18</title>
<path fill="none" stroke="midnightblue" d="M1610.22,-56.32C1595.73,-47.82 1573.43,-34.73 1556.51,-24.8"/>
<polygon fill="midnightblue" stroke="midnightblue" points="1558.14,-21.7 1547.74,-19.65 1554.6,-27.74 1558.14,-21.7"/>
</g>
<!-- Node20&#45;&gt;Node21 -->
<g id="edge11" class="edge">
<title>Node20&#45;&gt;Node21</title>
<path fill="none" stroke="midnightblue" d="M1553.23,-57.15C1548.42,-56.73 1543.64,-56.34 1539,-56 1133.98,-26.26 640.52,-14.4 509.96,-11.65"/>
<polygon fill="midnightblue" stroke="midnightblue" points="509.89,-8.15 499.82,-11.44 509.75,-15.15 509.89,-8.15"/>
</g>
<!-- Node27&#45;&gt;Node10 -->
<g id="edge22" class="edge">
<title>Node27&#45;&gt;Node10</title>
<path fill="none" stroke="midnightblue" d="M1678.77,-173.95C1861.86,-165.37 2366.32,-141.06 2401,-132 2420.62,-126.88 2422.38,-117.12 2442,-112 2572.81,-77.87 2968.09,-69.62 3146.69,-67.63"/>
<polygon fill="midnightblue" stroke="midnightblue" points="3146.88,-71.13 3156.84,-67.52 3146.81,-64.13 3146.88,-71.13"/>
</g>
<!-- Node27&#45;&gt;Node11 -->
<g id="edge21" class="edge">
<title>Node27&#45;&gt;Node11</title>
<path fill="none" stroke="midnightblue" d="M1631.46,-168.37C1683.45,-144.59 1836.06,-78.43 1971,-56 2133.87,-28.92 2629.67,-16.38 2821.79,-12.43"/>
<polygon fill="midnightblue" stroke="midnightblue" points="2821.88,-15.93 2831.81,-12.23 2821.74,-8.94 2821.88,-15.93"/>
</g>
<!-- Node27&#45;&gt;Node20 -->
<g id="edge23" class="edge">
<title>Node27&#45;&gt;Node20</title>
<path fill="none" stroke="midnightblue" d="M1616.09,-168.17C1619.05,-159.2 1623.32,-144.83 1625,-132 1627.02,-116.6 1626.87,-98.96 1626.29,-85.95"/>
<polygon fill="midnightblue" stroke="midnightblue" points="1629.78,-85.67 1625.73,-75.88 1622.79,-86.06 1629.78,-85.67"/>
</g>
<!-- Node27&#45;&gt;Node18 -->
<g id="edge33" class="edge">
<title>Node27&#45;&gt;Node18</title>
<path fill="none" stroke="midnightblue" d="M1628.54,-168.48C1662.66,-148.7 1738.57,-98.13 1706,-56 1690.43,-35.86 1623.74,-23.05 1577.86,-16.45"/>
<polygon fill="midnightblue" stroke="midnightblue" points="1578.23,-12.96 1567.84,-15.06 1577.27,-19.9 1578.23,-12.96"/>
</g>
<!-- Node27&#45;&gt;Node21 -->
<g id="edge34" class="edge">
<title>Node27&#45;&gt;Node21</title>
<path fill="none" stroke="midnightblue" d="M1611.46,-168.05C1608.44,-153.56 1600.28,-125.25 1581,-112 1490.51,-49.79 683.95,-18.23 509.98,-12.11"/>
<polygon fill="midnightblue" stroke="midnightblue" points="510.01,-8.61 499.9,-11.76 509.77,-15.61 510.01,-8.61"/>
</g>
<!-- Node27&#45;&gt;Node22 -->
<g id="edge24" class="edge">
<title>Node27&#45;&gt;Node22</title>
<path fill="none" stroke="midnightblue" d="M1608.21,-168.27C1599.59,-153.55 1579.91,-124.22 1554,-112 1472,-73.32 826.76,-67.89 654.27,-67.12"/>
<polygon fill="midnightblue" stroke="midnightblue" points="654.09,-63.62 644.07,-67.08 654.06,-70.62 654.09,-63.62"/>
</g>
<!-- Node27&#45;&gt;Node23 -->
<g id="edge25" class="edge">
<title>Node27&#45;&gt;Node23</title>
<path fill="none" stroke="midnightblue" d="M1650.65,-168.47C1684.24,-160.44 1734.52,-147.37 1777,-132 1797.2,-124.69 1800.7,-119.01 1821,-112 1871.55,-94.54 1932.09,-81.17 1969.81,-73.7"/>
<polygon fill="midnightblue" stroke="midnightblue" points="1970.67,-77.1 1979.82,-71.75 1969.33,-70.23 1970.67,-77.1"/>
</g>
<!-- Node27&#45;&gt;Node24 -->
<g id="edge27" class="edge">
<title>Node27&#45;&gt;Node24</title>
<path fill="none" stroke="midnightblue" d="M1678.6,-174.49C1849.61,-167.73 2300.37,-148.58 2366,-132 2386.43,-126.84 2389,-118.66 2409,-112 2470.4,-91.56 2544.9,-78.39 2587.84,-71.87"/>
<polygon fill="midnightblue" stroke="midnightblue" points="2588.42,-75.32 2597.8,-70.39 2587.39,-68.4 2588.42,-75.32"/>
</g>
<!-- Node28 -->
<g id="node17" class="node">
<title>Node28</title>
<g id="a_node17"><a xlink:href="iterator__range_8h.html" target="_top" xlink:title="This provides a very simple, boring adaptor for a begin and end iterator into a range type.">
<polygon fill="none" stroke="black" points="771.5,-112.5 771.5,-131.5 914.5,-131.5 914.5,-112.5 771.5,-112.5"/>
<text text-anchor="middle" x="843" y="-119.5" font-family="Helvetica,sans-Serif" font-size="10.00">llvm/ADT/iterator_range.h</text>
</a>
</g>
</g>
<!-- Node27&#45;&gt;Node28 -->
<g id="edge19" class="edge">
<title>Node27&#45;&gt;Node28</title>
<path fill="none" stroke="midnightblue" d="M1547.37,-173.71C1426.51,-167.43 1160.35,-152.59 924.67,-132.02"/>
<polygon fill="midnightblue" stroke="midnightblue" points="924.8,-128.51 914.54,-131.13 924.19,-135.49 924.8,-128.51"/>
</g>
<!-- Node27&#45;&gt;Node16 -->
<g id="edge26" class="edge">
<title>Node27&#45;&gt;Node16</title>
<path fill="none" stroke="midnightblue" d="M1678.71,-174.35C1826.33,-168.25 2195.47,-152.18 2504,-132 2529.09,-130.36 2557.31,-128.09 2579.15,-126.24"/>
<polygon fill="midnightblue" stroke="midnightblue" points="2579.65,-129.71 2589.31,-125.37 2579.05,-122.73 2579.65,-129.71"/>
</g>
<!-- Node27&#45;&gt;Node32 -->
<g id="edge28" class="edge">
<title>Node27&#45;&gt;Node32</title>
<path fill="none" stroke="midnightblue" d="M1595.33,-168.32C1577.61,-159.62 1550.1,-146.12 1529.71,-136.11"/>
<polygon fill="midnightblue" stroke="midnightblue" points="1531.15,-132.92 1520.63,-131.65 1528.06,-139.2 1531.15,-132.92"/>
</g>
<!-- Node27&#45;&gt;Node33 -->
<g id="edge29" class="edge">
<title>Node27&#45;&gt;Node33</title>
<path fill="none" stroke="midnightblue" d="M1651.5,-168.44C1697.57,-158.21 1774.11,-141.2 1819.34,-131.15"/>
<polygon fill="midnightblue" stroke="midnightblue" points="1820.31,-134.52 1829.31,-128.93 1818.79,-127.68 1820.31,-134.52"/>
</g>
<!-- Node34 -->
<g id="node21" class="node">
<title>Node34</title>
<g id="a_node21"><a xlink:title=" ">
<polygon fill="none" stroke="#bfbfbf" points="2451,-112.5 2451,-131.5 2495,-131.5 2495,-112.5 2451,-112.5"/>
<text text-anchor="middle" x="2473" y="-119.5" font-family="Helvetica,sans-Serif" font-size="10.00">limits</text>
</a>
</g>
</g>
<!-- Node27&#45;&gt;Node34 -->
<g id="edge30" class="edge">
<title>Node27&#45;&gt;Node34</title>
<path fill="none" stroke="midnightblue" d="M1678.64,-174.14C1860.61,-166.09 2362.98,-143.17 2437,-132 2438.25,-131.81 2439.53,-131.6 2440.81,-131.36"/>
<polygon fill="midnightblue" stroke="midnightblue" points="2441.6,-134.77 2450.66,-129.28 2440.16,-127.93 2441.6,-134.77"/>
</g>
<!-- Node27&#45;&gt;Node35 -->
<g id="edge31" class="edge">
<title>Node27&#45;&gt;Node35</title>
<path fill="none" stroke="midnightblue" d="M1569.43,-168.44C1516.43,-158.04 1427.79,-140.63 1376.97,-130.65"/>
<polygon fill="midnightblue" stroke="midnightblue" points="1377.52,-127.19 1367.03,-128.7 1376.17,-134.06 1377.52,-127.19"/>
</g>
<!-- Node36 -->
<g id="node23" class="node">
<title>Node36</title>
<g id="a_node23"><a xlink:title=" ">
<polygon fill="none" stroke="#bfbfbf" points="716.5,-112.5 716.5,-131.5 753.5,-131.5 753.5,-112.5 716.5,-112.5"/>
<text text-anchor="middle" x="735" y="-119.5" font-family="Helvetica,sans-Serif" font-size="10.00">new</text>
</a>
</g>
</g>
<!-- Node27&#45;&gt;Node36 -->
<g id="edge32" class="edge">
<title>Node27&#45;&gt;Node36</title>
<path fill="none" stroke="midnightblue" d="M1547.41,-175.71C1378.66,-172.06 931.62,-160.13 763.46,-131.46"/>
<polygon fill="midnightblue" stroke="midnightblue" points="763.96,-128 753.5,-129.69 762.73,-134.89 763.96,-128"/>
</g>
<!-- Node28&#45;&gt;Node21 -->
<g id="edge20" class="edge">
<title>Node28&#45;&gt;Node21</title>
<path fill="none" stroke="midnightblue" d="M827.42,-112.34C801.94,-98.51 749.42,-71.43 702,-56 635.37,-34.31 554.08,-21.18 509.73,-15.09"/>
<polygon fill="midnightblue" stroke="midnightblue" points="510.18,-11.62 499.8,-13.76 509.25,-18.56 510.18,-11.62"/>
</g>
<!-- Node37&#45;&gt;Node10 -->
<g id="edge56" class="edge">
<title>Node37&#45;&gt;Node10</title>
<path fill="none" stroke="midnightblue" d="M1468.24,-232.05C1742.73,-227.69 2849.4,-208.86 2920,-188 2936.45,-183.14 2937.51,-175.36 2953,-168 3036.6,-128.25 3140.28,-95.08 3196.04,-78.46"/>
<polygon fill="midnightblue" stroke="midnightblue" points="3197.28,-81.75 3205.87,-75.56 3195.29,-75.03 3197.28,-81.75"/>
</g>
<!-- Node37&#45;&gt;Node18 -->
<g id="edge65" class="edge">
<title>Node37&#45;&gt;Node18</title>
<path fill="none" stroke="midnightblue" d="M1406.17,-224.48C1405.17,-211.97 1404.07,-187.93 1408,-168 1413.18,-141.77 1415.24,-134.3 1430,-112 1453.41,-76.63 1490.93,-43.86 1513.64,-25.72"/>
<polygon fill="midnightblue" stroke="midnightblue" points="1515.85,-28.44 1521.56,-19.51 1511.53,-22.93 1515.85,-28.44"/>
</g>
<!-- Node37&#45;&gt;Node21 -->
<g id="edge66" class="edge">
<title>Node37&#45;&gt;Node21</title>
<path fill="none" stroke="midnightblue" d="M1346,-230.02C1201.38,-222.74 845.92,-203.51 794,-188 776.46,-182.76 774.73,-175.42 758,-168 712.51,-147.84 696.45,-154.36 652,-132 590.74,-101.18 526.28,-51.41 495.49,-26.4"/>
<polygon fill="midnightblue" stroke="midnightblue" points="497.35,-23.39 487.4,-19.76 492.91,-28.81 497.35,-23.39"/>
</g>
<!-- Node37&#45;&gt;Node22 -->
<g id="edge57" class="edge">
<title>Node37&#45;&gt;Node22</title>
<path fill="none" stroke="midnightblue" d="M1345.9,-227.91C1214.87,-216.96 916.89,-191.84 895,-188 847.22,-179.62 726.65,-155.13 684,-132 660.98,-119.52 639.36,-98.22 625.94,-83.42"/>
<polygon fill="midnightblue" stroke="midnightblue" points="628.26,-80.77 619.03,-75.57 623.01,-85.39 628.26,-80.77"/>
</g>
<!-- Node37&#45;&gt;Node23 -->
<g id="edge58" class="edge">
<title>Node37&#45;&gt;Node23</title>
<path fill="none" stroke="midnightblue" d="M1407.32,-224.47C1408.69,-201.81 1415.81,-139.94 1453,-112 1473.7,-96.45 1849.72,-75.28 1969.6,-68.9"/>
<polygon fill="midnightblue" stroke="midnightblue" points="1969.94,-72.38 1979.74,-68.36 1969.57,-65.39 1969.94,-72.38"/>
</g>
<!-- Node37&#45;&gt;Node28 -->
<g id="edge54" class="edge">
<title>Node37&#45;&gt;Node28</title>
<path fill="none" stroke="midnightblue" d="M1345.62,-225.49C1341.01,-224.97 1336.43,-224.47 1332,-224 1157.58,-205.55 1104.17,-247.03 939,-188 908.38,-177.06 878.17,-154.04 860.05,-138.54"/>
<polygon fill="midnightblue" stroke="midnightblue" points="862,-135.6 852.18,-131.63 857.38,-140.86 862,-135.6"/>
</g>
<!-- Node37&#45;&gt;Node16 -->
<g id="edge59" class="edge">
<title>Node37&#45;&gt;Node16</title>
<path fill="none" stroke="midnightblue" d="M1468.06,-230.04C1585.94,-224.08 1853.01,-209.33 2077,-188 2149.22,-181.12 2166.98,-176.74 2239,-168 2363.85,-152.84 2512.01,-135.28 2579.38,-127.32"/>
<polygon fill="midnightblue" stroke="midnightblue" points="2579.97,-130.78 2589.49,-126.13 2579.14,-123.83 2579.97,-130.78"/>
</g>
<!-- Node37&#45;&gt;Node32 -->
<g id="edge61" class="edge">
<title>Node37&#45;&gt;Node32</title>
<path fill="none" stroke="midnightblue" d="M1414.53,-224.37C1430.52,-206.05 1468.05,-163.05 1488.72,-139.36"/>
<polygon fill="midnightblue" stroke="midnightblue" points="1491.56,-141.43 1495.5,-131.59 1486.29,-136.82 1491.56,-141.43"/>
</g>
<!-- Node37&#45;&gt;Node33 -->
<g id="edge62" class="edge">
<title>Node37&#45;&gt;Node33</title>
<path fill="none" stroke="midnightblue" d="M1468.12,-228.12C1525.79,-222.37 1614.18,-210.6 1688,-188 1708.15,-181.83 1711.51,-176.02 1731,-168 1760.75,-155.76 1795.19,-143.49 1820.38,-134.87"/>
<polygon fill="midnightblue" stroke="midnightblue" points="1821.55,-138.17 1829.89,-131.64 1819.29,-131.54 1821.55,-138.17"/>
</g>
<!-- Node37&#45;&gt;Node34 -->
<g id="edge63" class="edge">
<title>Node37&#45;&gt;Node34</title>
<path fill="none" stroke="midnightblue" d="M1468.08,-228.88C1571.23,-221.75 1786.43,-206.12 1968,-188 2072.44,-177.58 2333.77,-150.99 2437,-132 2438.25,-131.77 2439.52,-131.52 2440.79,-131.26"/>
<polygon fill="midnightblue" stroke="midnightblue" points="2441.64,-134.66 2450.63,-129.06 2440.1,-127.83 2441.64,-134.66"/>
</g>
<!-- Node37&#45;&gt;Node35 -->
<g id="edge64" class="edge">
<title>Node37&#45;&gt;Node35</title>
<path fill="none" stroke="midnightblue" d="M1391.83,-224.26C1379.48,-216.36 1362.59,-203.59 1353,-188 1344.37,-173.97 1340.7,-155.48 1339.14,-141.8"/>
<polygon fill="midnightblue" stroke="midnightblue" points="1342.61,-141.32 1338.27,-131.65 1335.64,-141.92 1342.61,-141.32"/>
</g>
<!-- Node37&#45;&gt;Node38 -->
<g id="edge36" class="edge">
<title>Node37&#45;&gt;Node38</title>
<path fill="none" stroke="midnightblue" d="M1345.75,-224.56C1274.39,-214.73 1156.83,-198.54 1082.78,-188.34"/>
<polygon fill="midnightblue" stroke="midnightblue" points="1083.01,-184.84 1072.63,-186.94 1082.06,-191.77 1083.01,-184.84"/>
</g>
<!-- Node39 -->
<g id="node26" class="node">
<title>Node39</title>
<g id="a_node26"><a xlink:href="STLForwardCompat_8h.html" target="_top" xlink:title=" ">
<polygon fill="none" stroke="black" points="933,-112.5 933,-131.5 1101,-131.5 1101,-112.5 933,-112.5"/>
<text text-anchor="middle" x="1017" y="-119.5" font-family="Helvetica,sans-Serif" font-size="10.00">llvm/ADT/STLForwardCompat.h</text>
</a>
</g>
</g>
<!-- Node37&#45;&gt;Node39 -->
<g id="edge47" class="edge">
<title>Node37&#45;&gt;Node39</title>
<path fill="none" stroke="midnightblue" d="M1345.62,-225.5C1341.01,-224.98 1336.43,-224.47 1332,-224 1289.5,-219.45 977.78,-219.61 949,-188 931.67,-168.96 961.47,-148.72 986.92,-135.98"/>
<polygon fill="midnightblue" stroke="midnightblue" points="988.49,-139.11 996.01,-131.64 985.48,-132.79 988.49,-139.11"/>
</g>
<!-- Node40 -->
<g id="node27" class="node">
<title>Node40</title>
<g id="a_node27"><a xlink:href="iterator_8h.html" target="_top" xlink:title=" ">
<polygon fill="none" stroke="black" points="1849.5,-168.5 1849.5,-187.5 1958.5,-187.5 1958.5,-168.5 1849.5,-168.5"/>
<text text-anchor="middle" x="1904" y="-175.5" font-family="Helvetica,sans-Serif" font-size="10.00">llvm/ADT/iterator.h</text>
</a>
</g>
</g>
<!-- Node37&#45;&gt;Node40 -->
<g id="edge48" class="edge">
<title>Node37&#45;&gt;Node40</title>
<path fill="none" stroke="midnightblue" d="M1468.19,-226.35C1562.57,-216.1 1742.81,-196.51 1839.28,-186.03"/>
<polygon fill="midnightblue" stroke="midnightblue" points="1839.92,-189.48 1849.48,-184.92 1839.16,-182.52 1839.92,-189.48"/>
</g>
<!-- Node41 -->
<g id="node28" class="node">
<title>Node41</title>
<g id="a_node28"><a xlink:title=" ">
<polygon fill="none" stroke="#bfbfbf" points="603,-168.5 603,-187.5 749,-187.5 749,-168.5 603,-168.5"/>
<text text-anchor="middle" x="676" y="-175.5" font-family="Helvetica,sans-Serif" font-size="10.00">llvm/Config/abi&#45;breaking.h</text>
</a>
</g>
</g>
<!-- Node37&#45;&gt;Node41 -->
<g id="edge55" class="edge">
<title>Node37&#45;&gt;Node41</title>
<path fill="none" stroke="midnightblue" d="M1345.73,-227.99C1328.96,-226.65 1310.78,-225.24 1294,-224 1058.1,-206.61 998.68,-208.17 763,-188 761.72,-187.89 760.44,-187.78 759.14,-187.66"/>
<polygon fill="midnightblue" stroke="midnightblue" points="759.36,-184.17 749.08,-186.75 758.73,-191.14 759.36,-184.17"/>
</g>
<!-- Node37&#45;&gt;Node17 -->
<g id="edge60" class="edge">
<title>Node37&#45;&gt;Node17</title>
<path fill="none" stroke="midnightblue" d="M1468.39,-232.39C1717.99,-229.73 2657.46,-217.9 2953,-188 3078.4,-175.32 3225.2,-145.17 3291,-130.83"/>
<polygon fill="midnightblue" stroke="midnightblue" points="3291.83,-134.23 3300.85,-128.67 3290.33,-127.4 3291.83,-134.23"/>
</g>
<!-- Node38&#45;&gt;Node4 -->
<g id="edge37" class="edge">
<title>Node38&#45;&gt;Node4</title>
<path fill="none" stroke="midnightblue" d="M1072.71,-174.57C1283.13,-165.73 2008.58,-135.25 2233.18,-125.81"/>
<polygon fill="midnightblue" stroke="midnightblue" points="2233.33,-129.3 2243.18,-125.39 2233.04,-122.31 2233.33,-129.3"/>
</g>
<!-- Node38&#45;&gt;Node11 -->
<g id="edge41" class="edge">
<title>Node38&#45;&gt;Node11</title>
<path fill="none" stroke="midnightblue" d="M1045.01,-168.45C1071.97,-160.37 1112.37,-147.22 1146,-132 1162.32,-124.61 1163.85,-117.19 1181,-112 1404.86,-44.27 1473.1,-97.36 1706,-76 1783.52,-68.89 1802.4,-62.17 1880,-56 2230.96,-28.12 2651.39,-16.4 2821.71,-12.56"/>
<polygon fill="midnightblue" stroke="midnightblue" points="2821.91,-16.06 2831.83,-12.33 2821.76,-9.06 2821.91,-16.06"/>
</g>
<!-- Node38&#45;&gt;Node20 -->
<g id="edge42" class="edge">
<title>Node38&#45;&gt;Node20</title>
<path fill="none" stroke="midnightblue" d="M1033.08,-168.44C1070.14,-150.88 1151.42,-112.43 1153,-112 1286.28,-75.46 1447.74,-67.49 1543.1,-66.34"/>
<polygon fill="midnightblue" stroke="midnightblue" points="1543.29,-69.83 1553.26,-66.24 1543.22,-62.83 1543.29,-69.83"/>
</g>
<!-- Node38&#45;&gt;Node21 -->
<g id="edge46" class="edge">
<title>Node38&#45;&gt;Node21</title>
<path fill="none" stroke="midnightblue" d="M957.31,-173.87C880.29,-168.8 748.83,-156.75 708,-132 672.34,-110.39 687.47,-79.45 653,-56 609.33,-26.29 547.48,-16.2 509.92,-12.76"/>
<polygon fill="midnightblue" stroke="midnightblue" points="509.8,-9.24 499.55,-11.93 509.24,-16.22 509.8,-9.24"/>
</g>
<!-- Node38&#45;&gt;Node23 -->
<g id="edge43" class="edge">
<title>Node38&#45;&gt;Node23</title>
<path fill="none" stroke="midnightblue" d="M1052.01,-168.43C1085.93,-160.24 1137.35,-146.94 1181,-132 1202.87,-124.52 1206.48,-117.19 1229,-112 1265.45,-103.61 1820.3,-76.06 1969.37,-68.78"/>
<polygon fill="midnightblue" stroke="midnightblue" points="1969.97,-72.25 1979.78,-68.27 1969.63,-65.26 1969.97,-72.25"/>
</g>
<!-- Node38&#45;&gt;Node26 -->
<g id="edge38" class="edge">
<title>Node38&#45;&gt;Node26</title>
<path fill="none" stroke="midnightblue" d="M957.47,-171.01C858.35,-160.7 656.31,-139.68 555.7,-129.21"/>
<polygon fill="midnightblue" stroke="midnightblue" points="556.01,-125.72 545.7,-128.17 555.28,-132.69 556.01,-125.72"/>
</g>
<!-- Node38&#45;&gt;Node35 -->
<g id="edge44" class="edge">
<title>Node38&#45;&gt;Node35</title>
<path fill="none" stroke="midnightblue" d="M1066.18,-168.44C1130.79,-157.64 1240.51,-139.3 1298.84,-129.55"/>
<polygon fill="midnightblue" stroke="midnightblue" points="1299.48,-132.99 1308.77,-127.89 1298.32,-126.08 1299.48,-132.99"/>
</g>
<!-- Node38&#45;&gt;Node36 -->
<g id="edge45" class="edge">
<title>Node38&#45;&gt;Node36</title>
<path fill="none" stroke="midnightblue" d="M957.49,-168.98C908.32,-161.62 835.57,-149.51 763.3,-131.78"/>
<polygon fill="midnightblue" stroke="midnightblue" points="764.13,-128.38 753.58,-129.36 762.43,-135.17 764.13,-128.38"/>
</g>
<!-- Node38&#45;&gt;Node39 -->
<g id="edge39" class="edge">
<title>Node38&#45;&gt;Node39</title>
<path fill="none" stroke="midnightblue" d="M1015.33,-168.08C1015.59,-161.01 1015.97,-150.86 1016.3,-141.99"/>
<polygon fill="midnightblue" stroke="midnightblue" points="1019.8,-141.87 1016.68,-131.75 1012.81,-141.61 1019.8,-141.87"/>
</g>
<!-- Node39&#45;&gt;Node18 -->
<g id="edge40" class="edge">
<title>Node39&#45;&gt;Node18</title>
<path fill="none" stroke="midnightblue" d="M1057.06,-112.46C1151.86,-92.25 1389.38,-41.62 1488.48,-20.49"/>
<polygon fill="midnightblue" stroke="midnightblue" points="1489.42,-23.87 1498.47,-18.36 1487.96,-17.02 1489.42,-23.87"/>
</g>
<!-- Node40&#45;&gt;Node18 -->
<g id="edge52" class="edge">
<title>Node40&#45;&gt;Node18</title>
<path fill="none" stroke="midnightblue" d="M1911.52,-168.15C1921.94,-154.79 1938.07,-129.18 1925,-112 1882.87,-56.6 1671.26,-26.46 1577.66,-15.66"/>
<polygon fill="midnightblue" stroke="midnightblue" points="1577.97,-12.18 1567.64,-14.53 1577.18,-19.13 1577.97,-12.18"/>
</g>
<!-- Node40&#45;&gt;Node21 -->
<g id="edge53" class="edge">
<title>Node40&#45;&gt;Node21</title>
<path fill="none" stroke="midnightblue" d="M1905.32,-168.33C1906.91,-154.23 1907.68,-126.48 1892,-112 1835.05,-59.39 1622.08,-84.3 1545,-76 1465.41,-67.43 1445.79,-62.47 1366,-56 1032.16,-28.93 626.39,-15.44 509.77,-11.94"/>
<polygon fill="midnightblue" stroke="midnightblue" points="509.8,-8.44 499.7,-11.64 509.59,-15.44 509.8,-8.44"/>
</g>
<!-- Node40&#45;&gt;Node28 -->
<g id="edge49" class="edge">
<title>Node40&#45;&gt;Node28</title>
<path fill="none" stroke="midnightblue" d="M1849.44,-174.7C1662.59,-166.8 1053.33,-140.81 924.83,-131.96"/>
<polygon fill="midnightblue" stroke="midnightblue" points="924.76,-128.44 914.53,-131.2 924.25,-135.42 924.76,-128.44"/>
</g>
<!-- Node40&#45;&gt;Node16 -->
<g id="edge50" class="edge">
<title>Node40&#45;&gt;Node16</title>
<path fill="none" stroke="midnightblue" d="M1958.61,-173C2064.05,-165.26 2303,-147.61 2504,-132 2529.07,-130.05 2557.29,-127.78 2579.13,-126.01"/>
<polygon fill="midnightblue" stroke="midnightblue" points="2579.62,-129.48 2589.3,-125.19 2579.05,-122.51 2579.62,-129.48"/>
</g>
<!-- Node40&#45;&gt;Node33 -->
<g id="edge51" class="edge">
<title>Node40&#45;&gt;Node33</title>
<path fill="none" stroke="midnightblue" d="M1896.07,-168.08C1889.15,-160.3 1878.93,-148.8 1870.55,-139.37"/>
<polygon fill="midnightblue" stroke="midnightblue" points="1873.04,-136.9 1863.78,-131.75 1867.81,-141.55 1873.04,-136.9"/>
</g>
<!-- Node44&#45;&gt;Node11 -->
<g id="edge81" class="edge">
<title>Node44&#45;&gt;Node11</title>
<path fill="none" stroke="midnightblue" d="M2279.51,-280.44C2325.06,-266.11 2421.37,-237.54 2505,-224 2562.61,-214.67 2989.17,-230.66 3029,-188 3069.04,-145.12 3063.03,-103.79 3029,-56 3016.44,-38.36 2996.48,-27.58 2975.93,-21"/>
<polygon fill="midnightblue" stroke="midnightblue" points="2976.73,-17.58 2966.15,-18.18 2974.79,-24.31 2976.73,-17.58"/>
</g>
<!-- Node44&#45;&gt;Node14 -->
<g id="edge87" class="edge">
<title>Node44&#45;&gt;Node14</title>
<path fill="none" stroke="midnightblue" d="M2294.59,-280.47C2376.43,-263.73 2552.89,-227.85 2581,-224 2684.56,-209.82 2958.49,-238.52 3050,-188 3113.97,-152.69 3086.86,-96.01 3148,-56 3198.31,-23.08 3269.7,-14.1 3310.68,-11.74"/>
<polygon fill="midnightblue" stroke="midnightblue" points="3311.09,-15.23 3320.91,-11.26 3310.75,-8.24 3311.09,-15.23"/>
</g>
<!-- Node44&#45;&gt;Node18 -->
<g id="edge88" class="edge">
<title>Node44&#45;&gt;Node18</title>
<path fill="none" stroke="midnightblue" d="M2259.74,-280.22C2277.26,-258.02 2326.63,-199.2 2381,-168 2433.1,-138.1 2543.41,-157.33 2504,-112 2442.4,-41.15 1760.03,-17.28 1577.61,-12.14"/>
<polygon fill="midnightblue" stroke="midnightblue" points="1577.66,-8.64 1567.56,-11.87 1577.46,-15.64 1577.66,-8.64"/>
</g>
<!-- Node44&#45;&gt;Node21 -->
<g id="edge89" class="edge">
<title>Node44&#45;&gt;Node21</title>
<path fill="none" stroke="midnightblue" d="M2193.99,-288.55C2028.79,-286.87 1547.81,-279.1 1150,-244 1084.32,-238.21 1068.54,-231.24 1003,-224 815.02,-203.25 763.08,-231.37 579,-188 513.37,-172.54 475.87,-187.79 438,-132 415.59,-98.98 444.28,-52.25 463.08,-27.64"/>
<polygon fill="midnightblue" stroke="midnightblue" points="465.96,-29.65 469.44,-19.64 460.48,-25.29 465.96,-29.65"/>
</g>
<!-- Node44&#45;&gt;Node22 -->
<g id="edge82" class="edge">
<title>Node44&#45;&gt;Node22</title>
<path fill="none" stroke="midnightblue" d="M2193.94,-288.1C2043.52,-285.4 1633.81,-275.5 1294,-244 1229.66,-238.04 1214.28,-230.54 1150,-224 1088.41,-217.74 636.34,-233.17 594,-188 567.6,-159.83 587.77,-110.66 601.68,-84.51"/>
<polygon fill="midnightblue" stroke="midnightblue" points="604.78,-86.15 606.6,-75.71 598.66,-82.73 604.78,-86.15"/>
</g>
<!-- Node44&#45;&gt;Node23 -->
<g id="edge83" class="edge">
<title>Node44&#45;&gt;Node23</title>
<path fill="none" stroke="midnightblue" d="M2245.54,-280.21C2222.32,-253.16 2148.63,-169.52 2077,-112 2062.35,-100.23 2044.47,-88.92 2030.32,-80.57"/>
<polygon fill="midnightblue" stroke="midnightblue" points="2032.04,-77.53 2021.63,-75.55 2028.53,-83.59 2032.04,-77.53"/>
</g>
<!-- Node44&#45;&gt;Node24 -->
<g id="edge85" class="edge">
<title>Node44&#45;&gt;Node24</title>
<path fill="none" stroke="midnightblue" d="M2276.31,-280.43C2295.42,-272.71 2322.55,-260.11 2343,-244 2377.69,-216.67 2369.84,-191.85 2407,-168 2457.46,-135.62 2483.24,-158.54 2537,-132 2563.29,-119.02 2589.62,-97.58 2606.09,-82.89"/>
<polygon fill="midnightblue" stroke="midnightblue" points="2608.71,-85.24 2613.75,-75.91 2604,-80.06 2608.71,-85.24"/>
</g>
<!-- Node44&#45;&gt;Node28 -->
<g id="edge80" class="edge">
<title>Node44&#45;&gt;Node28</title>
<path fill="none" stroke="midnightblue" d="M2193.78,-289.05C2017.83,-288.75 1500.27,-284.34 1337,-244 1316.54,-238.94 1314.35,-229.47 1294,-224 1208.03,-200.88 973.42,-230.14 895,-188 875.37,-177.45 860.52,-156.02 851.81,-140.65"/>
<polygon fill="midnightblue" stroke="midnightblue" points="854.78,-138.78 846.99,-131.6 848.6,-142.07 854.78,-138.78"/>
</g>
<!-- Node44&#45;&gt;Node16 -->
<g id="edge84" class="edge">
<title>Node44&#45;&gt;Node16</title>
<path fill="none" stroke="midnightblue" d="M2299.93,-280.44C2325.92,-273.86 2357.6,-262.64 2381,-244 2412.25,-219.1 2396.53,-191.27 2429,-168 2435.15,-163.59 2526.49,-142.83 2579.19,-131.11"/>
<polygon fill="midnightblue" stroke="midnightblue" points="2580.17,-134.48 2589.18,-128.9 2578.66,-127.64 2580.17,-134.48"/>
</g>
<!-- Node44&#45;&gt;Node34 -->
<g id="edge86" class="edge">
<title>Node44&#45;&gt;Node34</title>
<path fill="none" stroke="midnightblue" d="M2256.43,-280.21C2266.4,-255.07 2295.84,-183.73 2315,-168 2324.85,-159.92 2397.92,-141.2 2441.16,-130.62"/>
<polygon fill="midnightblue" stroke="midnightblue" points="2442.04,-134.01 2450.94,-128.25 2440.39,-127.21 2442.04,-134.01"/>
</g>
<!-- Node44&#45;&gt;Node37 -->
<g id="edge79" class="edge">
<title>Node44&#45;&gt;Node37</title>
<path fill="none" stroke="midnightblue" d="M2193.85,-285.22C2042.68,-275.58 1642.62,-250.04 1478.65,-239.57"/>
<polygon fill="midnightblue" stroke="midnightblue" points="1478.39,-236.05 1468.19,-238.91 1477.95,-243.04 1478.39,-236.05"/>
</g>
<!-- Node45&#45;&gt;Node3 -->
<g id="edge91" class="edge">
<title>Node45&#45;&gt;Node3</title>
<path fill="none" stroke="midnightblue" d="M2015.88,-524.21C1938.72,-517.28 1820.61,-503.1 1783,-479 1761.91,-465.49 1698.3,-337.1 1697,-336 1677.49,-319.49 1651.53,-308.89 1628.08,-302.16"/>
<polygon fill="midnightblue" stroke="midnightblue" points="1628.78,-298.72 1618.22,-299.5 1626.96,-305.48 1628.78,-298.72"/>
</g>
<!-- Node45&#45;&gt;Node10 -->
<g id="edge149" class="edge">
<title>Node45&#45;&gt;Node10</title>
<path fill="none" stroke="midnightblue" d="M2156.21,-529.8C2410.89,-530.49 3277.14,-529.09 3390,-479 3537,-413.76 3610.82,-324.79 3575,-168 3568.85,-141.06 3570.29,-128.33 3548,-112 3530.19,-98.95 3410.88,-84.47 3325.09,-75.55"/>
<polygon fill="midnightblue" stroke="midnightblue" points="3325.37,-72.06 3315.07,-74.52 3324.66,-79.03 3325.37,-72.06"/>
</g>
<!-- Node45&#45;&gt;Node14 -->
<g id="edge177" class="edge">
<title>Node45&#45;&gt;Node14</title>
<path fill="none" stroke="midnightblue" d="M2156.16,-528.43C2475.36,-523.14 3775,-496.5 3775,-414 3775,-414 3775,-414 3775,-121 3775,-38.49 3475.29,-17.11 3375.14,-12.28"/>
<polygon fill="midnightblue" stroke="midnightblue" points="3375.17,-8.77 3365.02,-11.81 3374.85,-15.77 3375.17,-8.77"/>
</g>
<!-- Node45&#45;&gt;Node21 -->
<g id="edge178" class="edge">
<title>Node45&#45;&gt;Node21</title>
<path fill="none" stroke="midnightblue" d="M2016,-529.37C1652.83,-528.22 0,-517.31 0,-414 0,-414 0,-414 0,-121 0,-77.89 32.68,-73.68 72,-56 138.44,-26.13 360.08,-15.2 444.22,-12.06"/>
<polygon fill="midnightblue" stroke="midnightblue" points="444.37,-15.56 454.24,-11.7 444.12,-8.56 444.37,-15.56"/>
</g>
<!-- Node45&#45;&gt;Node22 -->
<g id="edge171" class="edge">
<title>Node45&#45;&gt;Node22</title>
<path fill="none" stroke="midnightblue" d="M2015.74,-528.44C1767.55,-524.49 932.75,-509.2 667,-479 490.78,-458.97 398.18,-502.7 284,-367 201.3,-268.72 307.9,-174.71 420,-112 467.14,-85.63 529.1,-74.67 569.71,-70.14"/>
<polygon fill="midnightblue" stroke="midnightblue" points="570.21,-73.61 579.8,-69.1 569.5,-66.65 570.21,-73.61"/>
</g>
<!-- Node45&#45;&gt;Node23 -->
<g id="edge172" class="edge">
<title>Node45&#45;&gt;Node23</title>
<path fill="none" stroke="midnightblue" d="M2061.53,-515.36C2032.21,-496.37 1987,-459.69 1987,-414 1987,-414 1987,-414 1987,-177 1987,-144.49 1995.16,-107.35 2000.78,-85.61"/>
<polygon fill="midnightblue" stroke="midnightblue" points="2004.22,-86.32 2003.44,-75.75 1997.46,-84.5 2004.22,-86.32"/>
</g>
<!-- Node45&#45;&gt;Node27 -->
<g id="edge92" class="edge">
<title>Node45&#45;&gt;Node27</title>
<path fill="none" stroke="midnightblue" d="M2022.06,-515.43C1962.58,-500.04 1873.66,-470.95 1809,-423 1718.95,-356.22 1726.25,-309.72 1654,-224 1645.74,-214.2 1636.11,-203.59 1628.26,-195.13"/>
<polygon fill="midnightblue" stroke="midnightblue" points="1630.76,-192.69 1621.38,-187.78 1625.65,-197.48 1630.76,-192.69"/>
</g>
<!-- Node45&#45;&gt;Node16 -->
<g id="edge174" class="edge">
<title>Node45&#45;&gt;Node16</title>
<path fill="none" stroke="midnightblue" d="M2156.27,-529.86C2406.17,-530.22 3237,-523.2 3237,-414 3237,-414 3237,-414 3237,-350.5 3237,-318.05 3242.2,-301.63 3218,-280 3167.38,-234.76 2658.24,-239.49 2614,-188 2603.21,-175.44 2605.44,-155.95 2609.31,-141.58"/>
<polygon fill="midnightblue" stroke="midnightblue" points="2612.73,-142.38 2612.4,-131.79 2606.05,-140.27 2612.73,-142.38"/>
</g>
<!-- Node45&#45;&gt;Node35 -->
<g id="edge176" class="edge">
<title>Node45&#45;&gt;Node35</title>
<path fill="none" stroke="midnightblue" d="M2015.94,-527.49C1720.26,-518.67 582.84,-481.22 434,-423 347.82,-389.29 307.86,-382.53 266,-300 207.87,-185.4 727.88,-243.95 1082,-188 1161.45,-175.45 1252.22,-149.58 1301.49,-134.54"/>
<polygon fill="midnightblue" stroke="midnightblue" points="1302.53,-137.88 1311.06,-131.59 1300.48,-131.19 1302.53,-137.88"/>
</g>
<!-- Node45&#45;&gt;Node17 -->
<g id="edge175" class="edge">
<title>Node45&#45;&gt;Node17</title>
<path fill="none" stroke="midnightblue" d="M2156.19,-528.33C2415.59,-523.79 3307.89,-506.26 3362,-479 3485.44,-416.81 3423.35,-291.86 3362,-168 3356.79,-157.49 3348.8,-147.16 3341.67,-139.06"/>
<polygon fill="midnightblue" stroke="midnightblue" points="3344.06,-136.48 3334.7,-131.51 3338.91,-141.23 3344.06,-136.48"/>
</g>
<!-- Node45&#45;&gt;Node43 -->
<g id="edge179" class="edge">
<title>Node45&#45;&gt;Node43</title>
<path fill="none" stroke="midnightblue" d="M2015.9,-521.64C1949.88,-513.51 1848.49,-499.17 1762,-479 1473.98,-411.82 1410.5,-364.27 1127,-280 1073.45,-264.08 1057.4,-261.07 1003.48,-245.29"/>
<polygon fill="midnightblue" stroke="midnightblue" points="1004.31,-241.89 993.72,-242.42 1002.33,-248.6 1004.31,-241.89"/>
</g>
<!-- Node46 -->
<g id="node34" class="node">
<title>Node46</title>
<g id="a_node34"><a xlink:href="BitCodes_8h.html" target="_top" xlink:title=" ">
<polygon fill="none" stroke="black" points="2065.5,-459.5 2065.5,-478.5 2210.5,-478.5 2210.5,-459.5 2065.5,-459.5"/>
<text text-anchor="middle" x="2138" y="-466.5" font-family="Helvetica,sans-Serif" font-size="10.00">llvm/Bitstream/BitCodes.h</text>
</a>
</g>
</g>
<!-- Node45&#45;&gt;Node46 -->
<g id="edge93" class="edge">
<title>Node45&#45;&gt;Node46</title>
<path fill="none" stroke="midnightblue" d="M2098.32,-515.4C2105.96,-506.66 2115.79,-495.41 2123.76,-486.3"/>
<polygon fill="midnightblue" stroke="midnightblue" points="2126.49,-488.49 2130.43,-478.66 2121.22,-483.88 2126.49,-488.49"/>
</g>
<!-- Node55 -->
<g id="node37" class="node">
<title>Node55</title>
<g id="a_node37"><a xlink:href="Endian_8h.html" target="_top" xlink:title=" ">
<polygon fill="none" stroke="red" points="2787,-168.5 2787,-187.5 2911,-187.5 2911,-168.5 2787,-168.5"/>
<text text-anchor="middle" x="2849" y="-175.5" font-family="Helvetica,sans-Serif" font-size="10.00">llvm/Support/Endian.h</text>
</a>
</g>
</g>
<!-- Node45&#45;&gt;Node55 -->
<g id="edge115" class="edge">
<title>Node45&#45;&gt;Node55</title>
<path fill="none" stroke="midnightblue" d="M2156.22,-529.29C2399.01,-528.19 3193.98,-521.37 3300,-479 3335.1,-464.97 3348.08,-457.28 3364,-423 3447.82,-242.57 3082.21,-195.05 2921.5,-182.96"/>
<polygon fill="midnightblue" stroke="midnightblue" points="2921.44,-179.45 2911.22,-182.21 2920.94,-186.43 2921.44,-179.45"/>
</g>
<!-- Node45&#45;&gt;Node56 -->
<g id="edge122" class="edge">
<title>Node45&#45;&gt;Node56</title>
<path fill="none" stroke="midnightblue" d="M2015.71,-525.69C1816.52,-514.88 1250.19,-484.17 1055.61,-473.61"/>
<polygon fill="midnightblue" stroke="midnightblue" points="1055.7,-470.11 1045.52,-473.07 1055.32,-477.1 1055.7,-470.11"/>
</g>
<!-- Node50 -->
<g id="node43" class="node">
<title>Node50</title>
<g id="a_node43"><a xlink:href="MathExtras_8h.html" target="_top" xlink:title=" ">
<polygon fill="none" stroke="red" points="2623,-168.5 2623,-187.5 2769,-187.5 2769,-168.5 2623,-168.5"/>
<text text-anchor="middle" x="2696" y="-175.5" font-family="Helvetica,sans-Serif" font-size="10.00">llvm/Support/MathExtras.h</text>
</a>
</g>
</g>
<!-- Node45&#45;&gt;Node50 -->
<g id="edge150" class="edge">
<title>Node45&#45;&gt;Node50</title>
<path fill="none" stroke="midnightblue" d="M2156.04,-528.61C2391.71,-525.32 3147.07,-512.28 3251,-479 3301.48,-462.84 3351,-467.01 3351,-414 3351,-414 3351,-414 3351,-350.5 3351,-296.12 3299.56,-304.48 3251,-280 3233.34,-271.09 3101.31,-228.28 3082,-224 3067.41,-220.77 2888.04,-200.45 2779.02,-188.24"/>
<polygon fill="midnightblue" stroke="midnightblue" points="2779.35,-184.76 2769.03,-187.13 2778.58,-191.72 2779.35,-184.76"/>
</g>
<!-- Node51 -->
<g id="node44" class="node">
<title>Node51</title>
<g id="a_node44"><a xlink:title=" ">
<polygon fill="none" stroke="#bfbfbf" points="3157,-112.5 3157,-131.5 3207,-131.5 3207,-112.5 3157,-112.5"/>
<text text-anchor="middle" x="3182" y="-119.5" font-family="Helvetica,sans-Serif" font-size="10.00">climits</text>
</a>
</g>
</g>
<!-- Node45&#45;&gt;Node51 -->
<g id="edge173" class="edge">
<title>Node45&#45;&gt;Node51</title>
<path fill="none" stroke="midnightblue" d="M2156.21,-529.91C2403.83,-530.91 3227.16,-530.3 3333,-479 3394.13,-449.37 3409.21,-400.2 3387,-336 3354.13,-240.96 3251.49,-166.63 3205.13,-136.98"/>
<polygon fill="midnightblue" stroke="midnightblue" points="3206.98,-134.01 3196.65,-131.65 3203.25,-139.93 3206.98,-134.01"/>
</g>
<!-- Node45&#45;&gt;Node67 -->
<g id="edge158" class="edge">
<title>Node45&#45;&gt;Node67</title>
<path fill="none" stroke="midnightblue" d="M2156.16,-516.19C2278.69,-492.96 2529.19,-445.45 2640.09,-424.41"/>
<polygon fill="midnightblue" stroke="midnightblue" points="2640.88,-427.83 2650.05,-422.52 2639.58,-420.95 2640.88,-427.83"/>
</g>
<!-- Node46&#45;&gt;Node5 -->
<g id="edge112" class="edge">
<title>Node46&#45;&gt;Node5</title>
<path fill="none" stroke="midnightblue" d="M2210.73,-466.94C2475.15,-462.88 3372.92,-447.38 3429,-423 3541.76,-373.97 3549.82,-308.36 3575,-188 3582.34,-152.91 3572.32,-138.34 3548,-112 3535.3,-98.25 3517.42,-87.45 3502.09,-79.88"/>
<polygon fill="midnightblue" stroke="midnightblue" points="3503.48,-76.66 3492.94,-75.59 3500.5,-83 3503.48,-76.66"/>
</g>
<!-- Node46&#45;&gt;Node10 -->
<g id="edge113" class="edge">
<title>Node46&#45;&gt;Node10</title>
<path fill="none" stroke="midnightblue" d="M2210.78,-467.23C2472.15,-464.24 3350.72,-452.05 3403,-423 3458.01,-392.43 3542.65,-248.19 3561,-188 3563.59,-179.5 3563.61,-176.5 3561,-168 3552.17,-139.25 3548.4,-128.11 3523,-112 3490.86,-91.62 3396.89,-79.63 3325.15,-73.22"/>
<polygon fill="midnightblue" stroke="midnightblue" points="3325.45,-69.74 3315.18,-72.36 3324.84,-76.71 3325.45,-69.74"/>
</g>
<!-- Node46&#45;&gt;Node23 -->
<g id="edge114" class="edge">
<title>Node46&#45;&gt;Node23</title>
<path fill="none" stroke="midnightblue" d="M2135.12,-459.25C2118.55,-408.91 2035.29,-155.98 2012.04,-85.35"/>
<polygon fill="midnightblue" stroke="midnightblue" points="2015.29,-84.04 2008.84,-75.63 2008.64,-86.23 2015.29,-84.04"/>
</g>
<!-- Node46&#45;&gt;Node27 -->
<g id="edge94" class="edge">
<title>Node46&#45;&gt;Node27</title>
<path fill="none" stroke="midnightblue" d="M2065.2,-464.26C1988.53,-459.08 1874,-447.44 1838,-423 1808.01,-402.64 1797,-388.75 1797,-352.5 1797,-352.5 1797,-352.5 1797,-289 1797,-231.19 1729.26,-203.04 1675.98,-189.83"/>
<polygon fill="midnightblue" stroke="midnightblue" points="1676.76,-186.42 1666.22,-187.54 1675.15,-193.23 1676.76,-186.42"/>
</g>
<!-- Node47 -->
<g id="node35" class="node">
<title>Node47</title>
<g id="a_node35"><a xlink:href="StringExtras_8h.html" target="_top" xlink:title=" ">
<polygon fill="none" stroke="red" points="2134.5,-403.5 2134.5,-422.5 2267.5,-422.5 2267.5,-403.5 2134.5,-403.5"/>
<text text-anchor="middle" x="2201" y="-410.5" font-family="Helvetica,sans-Serif" font-size="10.00">llvm/ADT/StringExtras.h</text>
</a>
</g>
</g>
<!-- Node46&#45;&gt;Node47 -->
<g id="edge95" class="edge">
<title>Node46&#45;&gt;Node47</title>
<path fill="none" stroke="midnightblue" d="M2148.12,-459.32C2157.53,-451.26 2171.74,-439.08 2183.07,-429.37"/>
<polygon fill="midnightblue" stroke="midnightblue" points="2185.38,-432 2190.69,-422.83 2180.82,-426.68 2185.38,-432"/>
</g>
<!-- Node47&#45;&gt;Node3 -->
<g id="edge96" class="edge">
<title>Node47&#45;&gt;Node3</title>
<path fill="none" stroke="midnightblue" d="M2156.56,-403.49C2043.83,-381.91 1746.97,-325.07 1623.78,-301.49"/>
<polygon fill="midnightblue" stroke="midnightblue" points="1624.29,-298.02 1613.81,-299.58 1622.98,-304.9 1624.29,-298.02"/>
</g>
<!-- Node47&#45;&gt;Node14 -->
<g id="edge110" class="edge">
<title>Node47&#45;&gt;Node14</title>
<path fill="none" stroke="midnightblue" d="M2267.72,-410.13C2416.07,-405.56 2769.39,-392.31 2886,-367 2968.2,-349.16 2984.61,-330.51 3063,-300 3085.3,-291.32 3090.55,-288.3 3113,-280 3304.54,-209.16 3424.71,-294.8 3548,-132 3568.41,-105.05 3572.23,-82.31 3551,-56 3529.3,-29.1 3428.2,-17.48 3375.37,-13.18"/>
<polygon fill="midnightblue" stroke="midnightblue" points="3375.41,-9.67 3365.17,-12.39 3374.87,-16.65 3375.41,-9.67"/>
</g>
<!-- Node47&#45;&gt;Node21 -->
<g id="edge111" class="edge">
<title>Node47&#45;&gt;Node21</title>
<path fill="none" stroke="midnightblue" d="M2134.47,-409.16C2087.87,-407.23 2024.14,-404.73 1968,-403 1795.48,-397.67 582.26,-409.62 415,-367 352.01,-350.95 319.57,-355.04 285,-300 240.56,-229.24 252.71,-188.64 286,-112 313.03,-49.79 397.17,-25.07 444.25,-15.92"/>
<polygon fill="midnightblue" stroke="midnightblue" points="445.05,-19.33 454.26,-14.1 443.8,-12.45 445.05,-19.33"/>
</g>
<!-- Node47&#45;&gt;Node23 -->
<g id="edge105" class="edge">
<title>Node47&#45;&gt;Node23</title>
<path fill="none" stroke="midnightblue" d="M2197.09,-403.36C2182.55,-371.42 2129.65,-257.21 2077,-168 2061.71,-142.1 2056.34,-136.58 2039,-112 2032.36,-102.58 2024.76,-92.2 2018.53,-83.78"/>
<polygon fill="midnightblue" stroke="midnightblue" points="2021.19,-81.5 2012.42,-75.56 2015.58,-85.67 2021.19,-81.5"/>
</g>
<!-- Node47&#45;&gt;Node24 -->
<g id="edge108" class="edge">
<title>Node47&#45;&gt;Node24</title>
<path fill="none" stroke="midnightblue" d="M2267.91,-403.89C2304.62,-397.5 2350.04,-386.31 2387,-367 2391.36,-364.72 2649.98,-136.49 2652,-132 2659.4,-115.54 2648.92,-96.71 2638.56,-83.57"/>
<polygon fill="midnightblue" stroke="midnightblue" points="2641.11,-81.17 2631.95,-75.84 2635.78,-85.71 2641.11,-81.17"/>
</g>
<!-- Node47&#45;&gt;Node16 -->
<g id="edge106" class="edge">
<title>Node47&#45;&gt;Node16</title>
<path fill="none" stroke="midnightblue" d="M2232.14,-403.49C2297.5,-384.69 2443,-337.62 2443,-291 2443,-291 2443,-291 2443,-233 2443,-202.2 2444.58,-189.11 2467,-168 2483.3,-152.66 2540.92,-138.32 2579.54,-130.12"/>
<polygon fill="midnightblue" stroke="midnightblue" points="2580.32,-133.53 2589.4,-128.07 2578.9,-126.68 2580.32,-133.53"/>
</g>
<!-- Node47&#45;&gt;Node33 -->
<g id="edge109" class="edge">
<title>Node47&#45;&gt;Node33</title>
<path fill="none" stroke="midnightblue" d="M2168.79,-403.5C2094.71,-381.98 1913.03,-317.66 1841,-188 1832.76,-173.17 1838.86,-154.04 1845.59,-140.38"/>
<polygon fill="midnightblue" stroke="midnightblue" points="1848.69,-141.99 1850.4,-131.53 1842.54,-138.64 1848.69,-141.99"/>
</g>
<!-- Node47&#45;&gt;Node17 -->
<g id="edge107" class="edge">
<title>Node47&#45;&gt;Node17</title>
<path fill="none" stroke="midnightblue" d="M2267.58,-409.98C2406.53,-405.32 2723.15,-392.21 2828,-367 2927.24,-343.14 3164.37,-241.98 3251,-188 3273.7,-173.85 3296.45,-152.96 3310.84,-138.71"/>
<polygon fill="midnightblue" stroke="midnightblue" points="3313.38,-141.12 3317.92,-131.55 3308.4,-136.2 3313.38,-141.12"/>
</g>
<!-- Node47&#45;&gt;Node44 -->
<g id="edge97" class="edge">
<title>Node47&#45;&gt;Node44</title>
<path fill="none" stroke="midnightblue" d="M2204.74,-403.3C2213.21,-383.59 2234,-335.21 2245.33,-308.84"/>
<polygon fill="midnightblue" stroke="midnightblue" points="2248.56,-310.19 2249.29,-299.62 2242.13,-307.43 2248.56,-310.19"/>
</g>
<!-- Node54 -->
<g id="node36" class="node">
<title>Node54</title>
<g id="a_node36"><a xlink:href="Twine_8h.html" target="_top" xlink:title=" ">
<polygon fill="none" stroke="black" points="2717.5,-342 2717.5,-361 2818.5,-361 2818.5,-342 2717.5,-342"/>
<text text-anchor="middle" x="2768" y="-349" font-family="Helvetica,sans-Serif" font-size="10.00">llvm/ADT/Twine.h</text>
</a>
</g>
</g>
<!-- Node47&#45;&gt;Node54 -->
<g id="edge98" class="edge">
<title>Node47&#45;&gt;Node54</title>
<path fill="none" stroke="midnightblue" d="M2267.83,-409.23C2365.19,-404.49 2551.48,-392.71 2708,-367 2713.96,-366.02 2720.21,-364.77 2726.32,-363.41"/>
<polygon fill="midnightblue" stroke="midnightblue" points="2727.47,-366.74 2736.42,-361.06 2725.89,-359.92 2727.47,-366.74"/>
</g>
<!-- Node54&#45;&gt;Node10 -->
<g id="edge101" class="edge">
<title>Node54&#45;&gt;Node10</title>
<path fill="none" stroke="midnightblue" d="M2776.55,-341.68C2799.84,-318.23 2867.36,-254.09 2937,-224 3022.32,-187.14 3057.9,-225.36 3143,-188 3180.44,-171.56 3192.66,-165.58 3216,-132 3225.58,-118.22 3230.69,-99.69 3233.34,-85.95"/>
<polygon fill="midnightblue" stroke="midnightblue" points="3236.85,-86.17 3235.03,-75.73 3229.94,-85.03 3236.85,-86.17"/>
</g>
<!-- Node54&#45;&gt;Node14 -->
<g id="edge104" class="edge">
<title>Node54&#45;&gt;Node14</title>
<path fill="none" stroke="midnightblue" d="M2784.77,-341.99C2812.13,-328.24 2868.23,-300.6 2917,-280 2982.55,-252.31 2999.87,-247.61 3067,-224 3115.13,-207.07 3130.83,-211.71 3176,-188 3212.52,-168.83 3300.59,-109.95 3324,-76 3333.49,-62.24 3338.3,-43.71 3340.7,-29.96"/>
<polygon fill="midnightblue" stroke="midnightblue" points="3344.21,-30.14 3342.2,-19.74 3337.28,-29.12 3344.21,-30.14"/>
</g>
<!-- Node54&#45;&gt;Node23 -->
<g id="edge102" class="edge">
<title>Node54&#45;&gt;Node23</title>
<path fill="none" stroke="midnightblue" d="M2741.66,-341.93C2656.03,-313.9 2378.02,-221.58 2153,-132 2110.84,-115.22 2062.93,-93.53 2033.58,-79.94"/>
<polygon fill="midnightblue" stroke="midnightblue" points="2034.92,-76.7 2024.38,-75.66 2031.97,-83.05 2034.92,-76.7"/>
</g>
<!-- Node54&#45;&gt;Node27 -->
<g id="edge99" class="edge">
<title>Node54&#45;&gt;Node27</title>
<path fill="none" stroke="midnightblue" d="M2735.11,-341.97C2726.34,-339.85 2716.84,-337.7 2708,-336 2537.35,-303.11 2493.02,-304.72 2321,-280 2087.37,-246.43 1810.3,-207.02 1683.15,-188.96"/>
<polygon fill="midnightblue" stroke="midnightblue" points="1683.54,-185.48 1673.15,-187.54 1682.56,-192.41 1683.54,-185.48"/>
</g>
<!-- Node54&#45;&gt;Node17 -->
<g id="edge103" class="edge">
<title>Node54&#45;&gt;Node17</title>
<path fill="none" stroke="midnightblue" d="M2795.11,-341.92C2825.13,-332.29 2874.83,-315.91 2917,-300 2938.62,-291.84 2943.46,-288.38 2965,-280 3076.89,-236.45 3110.72,-239.87 3219,-188 3250.25,-173.03 3284.07,-151.5 3305.14,-137.38"/>
<polygon fill="midnightblue" stroke="midnightblue" points="3307.29,-140.16 3313.61,-131.65 3303.37,-134.36 3307.29,-140.16"/>
</g>
<!-- Node54&#45;&gt;Node44 -->
<g id="edge100" class="edge">
<title>Node54&#45;&gt;Node44</title>
<path fill="none" stroke="midnightblue" d="M2736.41,-341.97C2727.3,-339.75 2717.3,-337.55 2708,-336 2539.8,-307.9 2495.53,-318.44 2326,-300 2324.89,-299.88 2323.77,-299.76 2322.64,-299.63"/>
<polygon fill="midnightblue" stroke="midnightblue" points="2322.68,-296.11 2312.35,-298.46 2321.89,-303.07 2322.68,-296.11"/>
</g>
<!-- Node55&#45;&gt;Node11 -->
<g id="edge116" class="edge">
<title>Node55&#45;&gt;Node11</title>
<path fill="none" stroke="midnightblue" d="M2855.08,-168.46C2861.03,-159.71 2869.92,-145.51 2875,-132 2888.09,-97.22 2894.46,-54 2897.21,-29.76"/>
<polygon fill="midnightblue" stroke="midnightblue" points="2900.69,-30.09 2898.25,-19.78 2893.73,-29.36 2900.69,-30.09"/>
</g>
<!-- Node55&#45;&gt;Node18 -->
<g id="edge121" class="edge">
<title>Node55&#45;&gt;Node18</title>
<path fill="none" stroke="midnightblue" d="M2841.19,-168.4C2819.31,-145.01 2754.45,-80.36 2685,-56 2579.29,-18.92 1777.49,-12.28 1577.89,-11.2"/>
<polygon fill="midnightblue" stroke="midnightblue" points="1577.78,-7.7 1567.76,-11.14 1577.74,-14.7 1577.78,-7.7"/>
</g>
<!-- Node55&#45;&gt;Node23 -->
<g id="edge117" class="edge">
<title>Node55&#45;&gt;Node23</title>
<path fill="none" stroke="midnightblue" d="M2786.69,-168.89C2783.75,-168.57 2780.84,-168.27 2778,-168 2537.25,-144.78 2469.56,-191 2235,-132 2214.17,-126.76 2211.3,-119.01 2191,-112 2140.45,-94.54 2079.91,-81.17 2042.19,-73.7"/>
<polygon fill="midnightblue" stroke="midnightblue" points="2042.67,-70.23 2032.18,-71.75 2041.33,-77.1 2042.67,-70.23"/>
</g>
<!-- Node55&#45;&gt;Node24 -->
<g id="edge120" class="edge">
<title>Node55&#45;&gt;Node24</title>
<path fill="none" stroke="midnightblue" d="M2831.27,-168.37C2791.82,-149.17 2696.64,-102.84 2649.86,-80.07"/>
<polygon fill="midnightblue" stroke="midnightblue" points="2651.17,-76.82 2640.65,-75.59 2648.11,-83.11 2651.17,-76.82"/>
</g>
<!-- Node55&#45;&gt;Node16 -->
<g id="edge118" class="edge">
<title>Node55&#45;&gt;Node16</title>
<path fill="none" stroke="midnightblue" d="M2812.08,-168.44C2768.36,-158.31 2696.01,-141.54 2652.48,-131.46"/>
<polygon fill="midnightblue" stroke="midnightblue" points="2653.13,-128.01 2642.6,-129.16 2651.55,-134.83 2653.13,-128.01"/>
</g>
<!-- Node55&#45;&gt;Node17 -->
<g id="edge119" class="edge">
<title>Node55&#45;&gt;Node17</title>
<path fill="none" stroke="midnightblue" d="M2911.36,-169.94C3012.87,-158.45 3210.55,-136.07 3290.84,-126.98"/>
<polygon fill="midnightblue" stroke="midnightblue" points="3291.38,-130.44 3300.92,-125.84 3290.59,-123.49 3291.38,-130.44"/>
</g>
<!-- Node56&#45;&gt;Node10 -->
<g id="edge132" class="edge">
<title>Node56&#45;&gt;Node10</title>
<path fill="none" stroke="midnightblue" d="M1045.75,-467.32C1350.4,-463.59 2785.41,-444.99 2982,-423 3106.39,-409.09 3156.3,-439.96 3258,-367 3357.18,-295.85 3431.83,-210.69 3360,-112 3348.12,-95.68 3329.73,-85.27 3310.72,-78.63"/>
<polygon fill="midnightblue" stroke="midnightblue" points="3311.65,-75.25 3301.06,-75.57 3309.54,-81.92 3311.65,-75.25"/>
</g>
<!-- Node56&#45;&gt;Node11 -->
<g id="edge131" class="edge">
<title>Node56&#45;&gt;Node11</title>
<path fill="none" stroke="midnightblue" d="M1045.55,-461.42C1119.3,-452.79 1252.34,-437.1 1366,-423 1412.87,-417.18 3013.58,-218.07 3050,-188 3095.24,-150.65 3091.86,-96.07 3049,-56 3029.1,-37.4 3001.8,-26.46 2975.94,-20.04"/>
<polygon fill="midnightblue" stroke="midnightblue" points="2976.64,-16.61 2966.11,-17.8 2975.08,-23.44 2976.64,-16.61"/>
</g>
<!-- Node56&#45;&gt;Node14 -->
<g id="edge144" class="edge">
<title>Node56&#45;&gt;Node14</title>
<path fill="none" stroke="midnightblue" d="M1045.52,-467.69C1360.57,-465.85 2893.07,-455.27 3101,-423 3325.17,-388.21 3436.26,-420.31 3579,-244 3631.64,-178.98 3628.59,-115.71 3570,-56 3543.3,-28.79 3431.45,-17.19 3375.36,-13.01"/>
<polygon fill="midnightblue" stroke="midnightblue" points="3375.47,-9.51 3365.25,-12.3 3374.97,-16.5 3375.47,-9.51"/>
</g>
<!-- Node56&#45;&gt;Node18 -->
<g id="edge146" class="edge">
<title>Node56&#45;&gt;Node18</title>
<path fill="none" stroke="midnightblue" d="M932.47,-465.03C800.59,-457.87 480.23,-439.06 434,-423 291.71,-373.55 152,-385.63 152,-235 152,-235 152,-235 152,-177 152,-92.72 219.25,-86.02 298,-56 410.75,-13.02 1279.04,-10.83 1487.92,-10.93"/>
<polygon fill="midnightblue" stroke="midnightblue" points="1488.2,-14.43 1498.21,-10.94 1488.21,-7.43 1488.2,-14.43"/>
</g>
<!-- Node56&#45;&gt;Node21 -->
<g id="edge147" class="edge">
<title>Node56&#45;&gt;Node21</title>
<path fill="none" stroke="midnightblue" d="M932.47,-467.08C777.95,-464.18 350.97,-453.56 214,-423 131.76,-404.65 38,-436.76 38,-352.5 38,-352.5 38,-352.5 38,-121 38,-37.24 342.49,-16.7 444.3,-12.17"/>
<polygon fill="midnightblue" stroke="midnightblue" points="444.48,-15.67 454.32,-11.75 444.18,-8.67 444.48,-15.67"/>
</g>
<!-- Node56&#45;&gt;Node22 -->
<g id="edge139" class="edge">
<title>Node56&#45;&gt;Node22</title>
<path fill="none" stroke="midnightblue" d="M932.28,-466.04C877.85,-462.38 794.34,-452.04 728,-423 557.83,-348.52 483.63,-309.23 428,-132 425.34,-123.52 422.51,-118.99 428,-112 445.3,-89.96 521.07,-77.33 569.83,-71.34"/>
<polygon fill="midnightblue" stroke="midnightblue" points="570.27,-74.81 579.79,-70.16 569.45,-67.86 570.27,-74.81"/>
</g>
<!-- Node56&#45;&gt;Node23 -->
<g id="edge140" class="edge">
<title>Node56&#45;&gt;Node23</title>
<path fill="none" stroke="midnightblue" d="M971,-459.37C940.04,-443.13 880,-404.89 880,-352.5 880,-352.5 880,-352.5 880,-289 880,-174.5 1006.95,-219.61 1117,-188 1181.41,-169.5 1195.48,-158.59 1257,-132 1276.35,-123.64 1279.58,-117.2 1300,-112 1332.7,-103.67 1829.58,-76.48 1969.55,-68.95"/>
<polygon fill="midnightblue" stroke="midnightblue" points="1969.95,-72.43 1979.75,-68.4 1969.58,-65.44 1969.95,-72.43"/>
</g>
<!-- Node56&#45;&gt;Node27 -->
<g id="edge125" class="edge">
<title>Node56&#45;&gt;Node27</title>
<path fill="none" stroke="midnightblue" d="M1045.56,-462.04C1189.39,-445.59 1562.95,-394.43 1636,-300 1659.56,-269.54 1638.59,-222.05 1624.08,-196.57"/>
<polygon fill="midnightblue" stroke="midnightblue" points="1626.9,-194.47 1618.76,-187.68 1620.89,-198.06 1626.9,-194.47"/>
</g>
<!-- Node56&#45;&gt;Node35 -->
<g id="edge142" class="edge">
<title>Node56&#45;&gt;Node35</title>
<path fill="none" stroke="midnightblue" d="M978.83,-459.27C959.2,-441.39 918,-398.4 918,-352.5 918,-352.5 918,-352.5 918,-289 918,-258.77 915.02,-243.63 938,-224 1024.37,-150.24 1082.42,-221.3 1191,-188 1210.38,-182.06 1213.55,-176.41 1232,-168 1257.13,-156.55 1286,-144.35 1307.26,-135.55"/>
<polygon fill="midnightblue" stroke="midnightblue" points="1308.83,-138.69 1316.74,-131.64 1306.16,-132.22 1308.83,-138.69"/>
</g>
<!-- Node56&#45;&gt;Node36 -->
<g id="edge143" class="edge">
<title>Node56&#45;&gt;Node36</title>
<path fill="none" stroke="midnightblue" d="M932.4,-468.36C883.19,-466.14 811.86,-456.6 760,-423 652.68,-353.47 632.7,-309.88 594,-188 578.78,-140.08 660.61,-127.48 706.13,-124.17"/>
<polygon fill="midnightblue" stroke="midnightblue" points="706.55,-127.66 716.31,-123.54 706.12,-120.67 706.55,-127.66"/>
</g>
<!-- Node56&#45;&gt;Node37 -->
<g id="edge124" class="edge">
<title>Node56&#45;&gt;Node37</title>
<path fill="none" stroke="midnightblue" d="M990.23,-459.12C995.22,-423.51 1014.43,-292.45 1028,-280 1050.21,-259.63 1232.29,-245.48 1335.77,-239"/>
<polygon fill="midnightblue" stroke="midnightblue" points="1336.08,-242.49 1345.84,-238.38 1335.64,-235.51 1336.08,-242.49"/>
</g>
<!-- Node56&#45;&gt;Node41 -->
<g id="edge128" class="edge">
<title>Node56&#45;&gt;Node41</title>
<path fill="none" stroke="midnightblue" d="M932.25,-465.57C859.6,-459.06 743,-435.66 743,-352.5 743,-352.5 743,-352.5 743,-289 743,-250.7 713.01,-214.42 693.16,-194.59"/>
<polygon fill="midnightblue" stroke="midnightblue" points="695.52,-192 685.89,-187.6 690.67,-197.05 695.52,-192"/>
</g>
<!-- Node56&#45;&gt;Node17 -->
<g id="edge141" class="edge">
<title>Node56&#45;&gt;Node17</title>
<path fill="none" stroke="midnightblue" d="M1045.76,-467.34C1311.46,-464.14 2434.1,-449.29 2784,-423 2983.22,-408.03 3057.36,-467.53 3230,-367 3260.61,-349.18 3346.84,-192.13 3348,-188 3352.55,-171.73 3345.31,-153.53 3337.94,-140.54"/>
<polygon fill="midnightblue" stroke="midnightblue" points="3340.72,-138.39 3332.47,-131.74 3334.78,-142.08 3340.72,-138.39"/>
</g>
<!-- Node56&#45;&gt;Node43 -->
<g id="edge148" class="edge">
<title>Node56&#45;&gt;Node43</title>
<path fill="none" stroke="midnightblue" d="M988.3,-459.43C985.56,-425.75 975.46,-301.99 971.56,-254.1"/>
<polygon fill="midnightblue" stroke="midnightblue" points="975.03,-253.58 970.73,-243.9 968.05,-254.15 975.03,-253.58"/>
</g>
<!-- Node56&#45;&gt;Node47 -->
<g id="edge126" class="edge">
<title>Node56&#45;&gt;Node47</title>
<path fill="none" stroke="midnightblue" d="M1045.83,-465.47C1243.22,-456.67 1899.29,-427.44 2124.4,-417.41"/>
<polygon fill="midnightblue" stroke="midnightblue" points="2124.64,-420.91 2134.47,-416.96 2124.33,-413.91 2124.64,-420.91"/>
</g>
<!-- Node56&#45;&gt;Node54 -->
<g id="edge127" class="edge">
<title>Node56&#45;&gt;Node54</title>
<path fill="none" stroke="midnightblue" d="M1045.61,-467.92C1225.79,-467.28 1802.02,-462.07 2277,-423 2469.52,-407.17 2518.07,-402.18 2708,-367 2713.74,-365.94 2719.75,-364.67 2725.66,-363.33"/>
<polygon fill="midnightblue" stroke="midnightblue" points="2726.5,-366.73 2735.44,-361.05 2724.91,-359.92 2726.5,-366.73"/>
</g>
<!-- Node57 -->
<g id="node39" class="node">
<title>Node57</title>
<g id="a_node39"><a xlink:href="llvm-c_2Error_8h.html" target="_top" xlink:title=" ">
<polygon fill="none" stroke="red" points="491,-403.5 491,-422.5 573,-422.5 573,-403.5 491,-403.5"/>
<text text-anchor="middle" x="532" y="-410.5" font-family="Helvetica,sans-Serif" font-size="10.00">llvm&#45;c/Error.h</text>
</a>
</g>
</g>
<!-- Node56&#45;&gt;Node57 -->
<g id="edge123" class="edge">
<title>Node56&#45;&gt;Node57</title>
<path fill="none" stroke="midnightblue" d="M932.3,-462.57C854.35,-454.89 709.79,-439.91 587,-423 585.73,-422.83 584.45,-422.65 583.16,-422.46"/>
<polygon fill="midnightblue" stroke="midnightblue" points="583.52,-418.98 573.11,-420.96 582.49,-425.9 583.52,-418.98"/>
</g>
<!-- Node59 -->
<g id="node40" class="node">
<title>Node59</title>
<g id="a_node40"><a xlink:href="AlignOf_8h.html" target="_top" xlink:title=" ">
<polygon fill="none" stroke="black" points="294,-280.5 294,-299.5 420,-299.5 420,-280.5 294,-280.5"/>
<text text-anchor="middle" x="357" y="-287.5" font-family="Helvetica,sans-Serif" font-size="10.00">llvm/Support/AlignOf.h</text>
</a>
</g>
</g>
<!-- Node56&#45;&gt;Node59 -->
<g id="edge129" class="edge">
<title>Node56&#45;&gt;Node59</title>
<path fill="none" stroke="midnightblue" d="M932.16,-468.06C814.74,-467.37 549.67,-461.47 469,-423 418.04,-398.7 381.56,-338.99 365.75,-308.92"/>
<polygon fill="midnightblue" stroke="midnightblue" points="368.68,-306.95 361.03,-299.62 362.44,-310.12 368.68,-306.95"/>
</g>
<!-- Node61 -->
<g id="node41" class="node">
<title>Node61</title>
<g id="a_node41"><a xlink:href="ErrorOr_8h.html" target="_top" xlink:title="Provides ErrorOr&lt;T&gt; smart pointer.">
<polygon fill="none" stroke="black" points="423.5,-342 423.5,-361 548.5,-361 548.5,-342 423.5,-342"/>
<text text-anchor="middle" x="486" y="-349" font-family="Helvetica,sans-Serif" font-size="10.00">llvm/Support/ErrorOr.h</text>
</a>
</g>
</g>
<!-- Node56&#45;&gt;Node61 -->
<g id="edge133" class="edge">
<title>Node56&#45;&gt;Node61</title>
<path fill="none" stroke="midnightblue" d="M932.06,-467.18C805.96,-464.77 511.9,-455.68 482,-423 469.36,-409.19 473.23,-386.76 478.4,-370.91"/>
<polygon fill="midnightblue" stroke="midnightblue" points="481.82,-371.77 482.01,-361.18 475.25,-369.34 481.82,-371.77"/>
</g>
<!-- Node62 -->
<g id="node42" class="node">
<title>Node62</title>
<g id="a_node42"><a xlink:title=" ">
<polygon fill="none" stroke="#bfbfbf" points="1036.5,-280.5 1036.5,-299.5 1117.5,-299.5 1117.5,-280.5 1036.5,-280.5"/>
<text text-anchor="middle" x="1077" y="-287.5" font-family="Helvetica,sans-Serif" font-size="10.00">system_error</text>
</a>
</g>
</g>
<!-- Node56&#45;&gt;Node62 -->
<g id="edge145" class="edge">
<title>Node56&#45;&gt;Node62</title>
<path fill="none" stroke="midnightblue" d="M996.23,-459.46C1003.4,-450.7 1014.38,-436.5 1022,-423 1043.78,-384.41 1061.93,-335.46 1070.92,-309.36"/>
<polygon fill="midnightblue" stroke="midnightblue" points="1074.31,-310.26 1074.19,-299.67 1067.68,-308.02 1074.31,-310.26"/>
</g>
<!-- Node59&#45;&gt;Node18 -->
<g id="edge130" class="edge">
<title>Node59&#45;&gt;Node18</title>
<path fill="none" stroke="midnightblue" d="M348.9,-280.43C334.04,-264.03 302.82,-226.44 291,-188 273.09,-129.76 274.71,-85.53 328,-56 379.63,-27.39 1275.81,-14.26 1488.15,-11.54"/>
<polygon fill="midnightblue" stroke="midnightblue" points="1488.36,-15.04 1498.31,-11.42 1488.27,-8.04 1488.36,-15.04"/>
</g>
<!-- Node61&#45;&gt;Node18 -->
<g id="edge137" class="edge">
<title>Node61&#45;&gt;Node18</title>
<path fill="none" stroke="midnightblue" d="M483.37,-341.95C478.74,-327.89 468.07,-299.51 452,-280 408.6,-227.31 360.11,-248.76 329,-188 313.6,-157.93 309.9,-140.52 328,-112 359.32,-62.65 390.23,-69.93 447,-56 549.12,-30.94 1296.72,-15.4 1488.35,-11.81"/>
<polygon fill="midnightblue" stroke="midnightblue" points="1488.42,-15.3 1498.35,-11.62 1488.29,-8.31 1488.42,-15.3"/>
</g>
<!-- Node61&#45;&gt;Node21 -->
<g id="edge138" class="edge">
<title>Node61&#45;&gt;Node21</title>
<path fill="none" stroke="midnightblue" d="M480.4,-341.99C470.92,-328.01 450.63,-299.73 429,-280 374.54,-230.33 325.78,-252.99 291,-188 249.67,-110.78 381.36,-47.82 444.82,-22.73"/>
<polygon fill="midnightblue" stroke="midnightblue" points="446.32,-25.9 454.38,-19.03 443.79,-19.37 446.32,-25.9"/>
</g>
<!-- Node61&#45;&gt;Node23 -->
<g id="edge135" class="edge">
<title>Node61&#45;&gt;Node23</title>
<path fill="none" stroke="midnightblue" d="M507.92,-341.86C565.64,-319.39 726.98,-258.5 866,-224 960.46,-200.56 989.03,-216.78 1082,-188 1102.13,-181.77 1105.59,-176.22 1125,-168 1166.2,-150.56 1177.46,-148.6 1219,-132 1240.46,-123.42 1244.49,-117.22 1267,-112 1301.55,-103.99 1825.9,-76.34 1969.74,-68.87"/>
<polygon fill="midnightblue" stroke="midnightblue" points="1970.01,-72.36 1979.81,-68.35 1969.65,-65.37 1970.01,-72.36"/>
</g>
<!-- Node61&#45;&gt;Node59 -->
<g id="edge134" class="edge">
<title>Node61&#45;&gt;Node59</title>
<path fill="none" stroke="midnightblue" d="M467.52,-341.98C445.87,-331.99 409.79,-315.35 384.77,-303.81"/>
<polygon fill="midnightblue" stroke="midnightblue" points="385.99,-300.52 375.45,-299.51 383.06,-306.88 385.99,-300.52"/>
</g>
<!-- Node61&#45;&gt;Node62 -->
<g id="edge136" class="edge">
<title>Node61&#45;&gt;Node62</title>
<path fill="none" stroke="midnightblue" d="M548.69,-344.19C666.39,-332.34 918.31,-306.98 1026.23,-296.11"/>
<polygon fill="midnightblue" stroke="midnightblue" points="1026.61,-299.59 1036.21,-295.11 1025.91,-292.63 1026.61,-299.59"/>
</g>
<!-- Node50&#45;&gt;Node11 -->
<g id="edge151" class="edge">
<title>Node50&#45;&gt;Node11</title>
<path fill="none" stroke="midnightblue" d="M2709.26,-168.46C2722.63,-159.71 2743.69,-145.51 2761,-132 2806.79,-96.27 2857.33,-50.08 2882.65,-26.44"/>
<polygon fill="midnightblue" stroke="midnightblue" points="2885.04,-28.99 2889.94,-19.59 2880.25,-23.88 2885.04,-28.99"/>
</g>
<!-- Node50&#45;&gt;Node18 -->
<g id="edge157" class="edge">
<title>Node50&#45;&gt;Node18</title>
<path fill="none" stroke="midnightblue" d="M2699.31,-168.3C2703.63,-155.56 2709.89,-131.23 2703,-112 2692.14,-81.68 2685.84,-70.34 2657,-56 2559.29,-7.4 1775.38,-9.36 1577.99,-10.64"/>
<polygon fill="midnightblue" stroke="midnightblue" points="1577.67,-7.14 1567.7,-10.71 1577.72,-14.14 1577.67,-7.14"/>
</g>
<!-- Node50&#45;&gt;Node23 -->
<g id="edge152" class="edge">
<title>Node50&#45;&gt;Node23</title>
<path fill="none" stroke="midnightblue" d="M2622.68,-173.07C2504.91,-166.3 2278.9,-151.29 2201,-132 2178.57,-126.45 2174.74,-119.84 2153,-112 2115.6,-98.52 2071.96,-85.49 2042,-76.96"/>
<polygon fill="midnightblue" stroke="midnightblue" points="2042.58,-73.48 2032.01,-74.13 2040.68,-80.22 2042.58,-73.48"/>
</g>
<!-- Node50&#45;&gt;Node24 -->
<g id="edge155" class="edge">
<title>Node50&#45;&gt;Node24</title>
<path fill="none" stroke="midnightblue" d="M2696.53,-168.28C2696.91,-155.09 2695.98,-129.7 2685,-112 2676.76,-98.72 2663.03,-88.15 2650.58,-80.6"/>
<polygon fill="midnightblue" stroke="midnightblue" points="2652.26,-77.54 2641.83,-75.65 2648.8,-83.62 2652.26,-77.54"/>
</g>
<!-- Node50&#45;&gt;Node34 -->
<g id="edge156" class="edge">
<title>Node50&#45;&gt;Node34</title>
<path fill="none" stroke="midnightblue" d="M2660.66,-168.44C2617.87,-158.08 2546.4,-140.77 2505.11,-130.77"/>
<polygon fill="midnightblue" stroke="midnightblue" points="2505.84,-127.35 2495.3,-128.4 2504.19,-134.15 2505.84,-127.35"/>
</g>
<!-- Node50&#45;&gt;Node17 -->
<g id="edge154" class="edge">
<title>Node50&#45;&gt;Node17</title>
<path fill="none" stroke="midnightblue" d="M2769.31,-168.85C2772.24,-168.56 2775.15,-168.27 2778,-168 2784.41,-167.38 3170.07,-135.78 3290.48,-125.91"/>
<polygon fill="midnightblue" stroke="midnightblue" points="3290.96,-129.38 3300.64,-125.08 3290.39,-122.41 3290.96,-129.38"/>
</g>
<!-- Node50&#45;&gt;Node51 -->
<g id="edge153" class="edge">
<title>Node50&#45;&gt;Node51</title>
<path fill="none" stroke="midnightblue" d="M2769.02,-168.89C2874.94,-157.12 3067.17,-135.76 3146.4,-126.96"/>
<polygon fill="midnightblue" stroke="midnightblue" points="3147.26,-130.38 3156.81,-125.8 3146.48,-123.42 3147.26,-130.38"/>
</g>
<!-- Node67&#45;&gt;Node3 -->
<g id="edge160" class="edge">
<title>Node67&#45;&gt;Node3</title>
<path fill="none" stroke="midnightblue" d="M2614.65,-404.43C2523.53,-395.76 2370.52,-380.95 2239,-367 2018.99,-343.67 1758.67,-313.36 1637.46,-299.1"/>
<polygon fill="midnightblue" stroke="midnightblue" points="1637.56,-295.59 1627.22,-297.89 1636.74,-302.54 1637.56,-295.59"/>
</g>
<!-- Node67&#45;&gt;Node16 -->
<g id="edge168" class="edge">
<title>Node67&#45;&gt;Node16</title>
<path fill="none" stroke="midnightblue" d="M2770.28,-403.42C2792.48,-396.98 2814.43,-385.92 2828,-367 2836.03,-355.8 2834.71,-348.04 2828,-336 2781.96,-253.36 2728.78,-271.56 2647,-224 2618.12,-207.2 2598.06,-216.73 2581,-188 2571.16,-171.42 2584.98,-151.87 2598.04,-138.58"/>
<polygon fill="midnightblue" stroke="midnightblue" points="2600.61,-140.96 2605.46,-131.54 2595.8,-135.88 2600.61,-140.96"/>
</g>
<!-- Node67&#45;&gt;Node35 -->
<g id="edge170" class="edge">
<title>Node67&#45;&gt;Node35</title>
<path fill="none" stroke="midnightblue" d="M2631.84,-403.48C2525.18,-389.15 2302.52,-359.49 2114,-336 2112.65,-335.83 1337.9,-245.02 1337,-244 1311.86,-215.71 1322.6,-167.3 1331.17,-141.11"/>
<polygon fill="midnightblue" stroke="midnightblue" points="1334.48,-142.26 1334.49,-131.66 1327.87,-139.94 1334.48,-142.26"/>
</g>
<!-- Node67&#45;&gt;Node17 -->
<g id="edge169" class="edge">
<title>Node67&#45;&gt;Node17</title>
<path fill="none" stroke="midnightblue" d="M2775.09,-412.59C2898.07,-412.22 3126.61,-406.07 3197,-367 3266.64,-328.35 3256.55,-287.21 3305,-224 3317.33,-207.91 3326.42,-207.17 3333,-188 3338.18,-172.9 3335.56,-154.78 3332.14,-141.51"/>
<polygon fill="midnightblue" stroke="midnightblue" points="3335.43,-140.28 3329.24,-131.68 3328.71,-142.26 3335.43,-140.28"/>
</g>
<!-- Node67&#45;&gt;Node44 -->
<g id="edge161" class="edge">
<title>Node67&#45;&gt;Node44</title>
<path fill="none" stroke="midnightblue" d="M2663.92,-403.49C2585.95,-382.15 2382.03,-326.32 2294.21,-302.28"/>
<polygon fill="midnightblue" stroke="midnightblue" points="2294.91,-298.84 2284.34,-299.58 2293.06,-305.6 2294.91,-298.84"/>
</g>
<!-- Node67&#45;&gt;Node54 -->
<g id="edge162" class="edge">
<title>Node67&#45;&gt;Node54</title>
<path fill="none" stroke="midnightblue" d="M2705.46,-403.48C2716.95,-394.11 2735.63,-378.88 2749.59,-367.51"/>
<polygon fill="midnightblue" stroke="midnightblue" points="2752.02,-370.04 2757.56,-361.01 2747.6,-364.61 2752.02,-370.04"/>
</g>
<!-- Node67&#45;&gt;Node61 -->
<g id="edge165" class="edge">
<title>Node67&#45;&gt;Node61</title>
<path fill="none" stroke="midnightblue" d="M2614.75,-409.84C2266.82,-400.47 891.44,-363.42 558.74,-354.46"/>
<polygon fill="midnightblue" stroke="midnightblue" points="558.83,-350.96 548.74,-354.19 558.64,-357.96 558.83,-350.96"/>
</g>
<!-- Node68 -->
<g id="node46" class="node">
<title>Node68</title>
<g id="a_node46"><a xlink:href="Types_8h.html" target="_top" xlink:title=" ">
<polygon fill="none" stroke="red" points="3121.5,-280.5 3121.5,-299.5 3208.5,-299.5 3208.5,-280.5 3121.5,-280.5"/>
<text text-anchor="middle" x="3165" y="-287.5" font-family="Helvetica,sans-Serif" font-size="10.00">llvm&#45;c/Types.h</text>
</a>
</g>
</g>
<!-- Node67&#45;&gt;Node68 -->
<g id="edge159" class="edge">
<title>Node67&#45;&gt;Node68</title>
<path fill="none" stroke="midnightblue" d="M2775.12,-410.34C2905.87,-406.8 3153.31,-396.28 3180,-367 3194.39,-351.21 3185.15,-325.76 3176.06,-308.71"/>
<polygon fill="midnightblue" stroke="midnightblue" points="3178.94,-306.7 3170.91,-299.78 3172.88,-310.19 3178.94,-306.7"/>
</g>
<!-- Node69 -->
<g id="node47" class="node">
<title>Node69</title>
<g id="a_node47"><a xlink:href="CBindingWrapping_8h.html" target="_top" xlink:title=" ">
<polygon fill="none" stroke="red" points="2989.5,-342 2989.5,-361 3170.5,-361 3170.5,-342 2989.5,-342"/>
<text text-anchor="middle" x="3080" y="-349" font-family="Helvetica,sans-Serif" font-size="10.00">llvm/Support/CBindingWrapping.h</text>
</a>
</g>
</g>
<!-- Node67&#45;&gt;Node69 -->
<g id="edge163" class="edge">
<title>Node67&#45;&gt;Node69</title>
<path fill="none" stroke="midnightblue" d="M2750.16,-403.48C2820.06,-392.67 2940.37,-374.08 3014.76,-362.58"/>
<polygon fill="midnightblue" stroke="midnightblue" points="3015.59,-366 3024.94,-361.01 3014.52,-359.08 3015.59,-366"/>
</g>
<!-- Node71 -->
<g id="node48" class="node">
<title>Node71</title>
<g id="a_node48"><a xlink:href="MemoryBufferRef_8h.html" target="_top" xlink:title=" ">
<polygon fill="none" stroke="black" points="2547,-336.5 2547,-366.5 2699,-366.5 2699,-336.5 2547,-336.5"/>
<text text-anchor="start" x="2555" y="-354.5" font-family="Helvetica,sans-Serif" font-size="10.00">llvm/Support/MemoryBuffer</text>
<text text-anchor="middle" x="2623" y="-343.5" font-family="Helvetica,sans-Serif" font-size="10.00">Ref.h</text>
</a>
</g>
</g>
<!-- Node67&#45;&gt;Node71 -->
<g id="edge166" class="edge">
<title>Node67&#45;&gt;Node71</title>
<path fill="none" stroke="midnightblue" d="M2684.68,-403.48C2675.12,-395.57 2660.49,-383.48 2647.89,-373.07"/>
<polygon fill="midnightblue" stroke="midnightblue" points="2649.91,-370.2 2639.97,-366.52 2645.45,-375.59 2649.91,-370.2"/>
</g>
<!-- Node69&#45;&gt;Node68 -->
<g id="edge164" class="edge">
<title>Node69&#45;&gt;Node68</title>
<path fill="none" stroke="midnightblue" d="M3092.18,-341.98C3105.81,-332.43 3128.13,-316.81 3144.47,-305.37"/>
<polygon fill="midnightblue" stroke="midnightblue" points="3146.66,-308.11 3152.84,-299.51 3142.64,-302.38 3146.66,-308.11"/>
</g>
<!-- Node71&#45;&gt;Node44 -->
<g id="edge167" class="edge">
<title>Node71&#45;&gt;Node44</title>
<path fill="none" stroke="midnightblue" d="M2546.89,-338.24C2542.19,-337.48 2537.53,-336.73 2533,-336 2458.48,-324.01 2372.81,-310.24 2316.06,-301.13"/>
<polygon fill="midnightblue" stroke="midnightblue" points="2316.59,-297.67 2306.16,-299.54 2315.48,-304.58 2316.59,-297.67"/>
</g>
<!-- Node73&#45;&gt;Node5 -->
<g id="edge188" class="edge">
<title>Node73&#45;&gt;Node5</title>
<path fill="none" stroke="midnightblue" d="M1959.22,-409.71C2153.25,-401.76 2785.3,-375.34 2828,-367 2838.14,-365.02 3169.59,-248.27 3179,-244 3287.05,-194.98 3404.64,-114.41 3450.8,-81.59"/>
<polygon fill="midnightblue" stroke="midnightblue" points="3452.96,-84.36 3459.06,-75.69 3448.89,-78.66 3452.96,-84.36"/>
</g>
<!-- Node73&#45;&gt;Node33 -->
<g id="edge189" class="edge">
<title>Node73&#45;&gt;Node33</title>
<path fill="none" stroke="midnightblue" d="M1897.81,-403.46C1880.57,-374.54 1825.29,-277.11 1807,-188 1805.21,-179.29 1803.42,-176.14 1807,-168 1812.39,-155.73 1822.96,-145.34 1832.9,-137.65"/>
<polygon fill="midnightblue" stroke="midnightblue" points="1835.25,-140.27 1841.34,-131.6 1831.17,-134.58 1835.25,-140.27"/>
</g>
<!-- Node73&#45;&gt;Node40 -->
<g id="edge187" class="edge">
<title>Node73&#45;&gt;Node40</title>
<path fill="none" stroke="midnightblue" d="M1903.04,-403.43C1903.18,-369.75 1903.71,-245.99 1903.92,-198.1"/>
<polygon fill="midnightblue" stroke="midnightblue" points="1907.42,-197.91 1903.96,-187.9 1900.42,-197.88 1907.42,-197.91"/>
</g>
<!-- Node73&#45;&gt;Node54 -->
<g id="edge186" class="edge">
<title>Node73&#45;&gt;Node54</title>
<path fill="none" stroke="midnightblue" d="M1959.06,-409.46C2129.52,-401.64 2634.52,-377.84 2708,-367 2714.33,-366.07 2720.97,-364.78 2727.44,-363.35"/>
<polygon fill="midnightblue" stroke="midnightblue" points="2728.44,-366.71 2737.38,-361.03 2726.84,-359.9 2728.44,-366.71"/>
</g>
<!-- Node73&#45;&gt;Node62 -->
<g id="edge190" class="edge">
<title>Node73&#45;&gt;Node62</title>
<path fill="none" stroke="midnightblue" d="M1846.88,-403.78C1694.4,-381.44 1274.17,-319.88 1127.95,-298.46"/>
<polygon fill="midnightblue" stroke="midnightblue" points="1128.3,-294.98 1117.9,-296.99 1127.29,-301.9 1128.3,-294.98"/>
</g>
</g>
</svg>
