<?xml version="1.0" encoding="UTF-8" standalone="no"?>
<!DOCTYPE svg PUBLIC "-//W3C//DTD SVG 1.1//EN"
 "http://www.w3.org/Graphics/SVG/1.1/DTD/svg11.dtd">
<!-- Generated by graphviz version 2.42.4 (0)
 -->
<!-- Title: llvm::OrderedChangedData&lt; IRData &gt; Pages: 1 -->
<svg width="415pt" height="341pt"
 viewBox="0.00 0.00 415.00 341.00" xmlns="http://www.w3.org/2000/svg" xmlns:xlink="http://www.w3.org/1999/xlink">
<g id="graph0" class="graph" transform="scale(1 1) rotate(0) translate(4 337)">
<title>llvm::OrderedChangedData&lt; IRData &gt;</title>
<!-- Node1 -->
<g id="node1" class="node">
<title>Node1</title>
<g id="a_node1"><a xlink:title=" ">
<polygon fill="#bfbfbf" stroke="black" points="197,-0.5 197,-30.5 346,-30.5 346,-0.5 197,-0.5"/>
<text text-anchor="start" x="205" y="-18.5" font-family="Helvetica,sans-Serif" font-size="10.00">llvm::OrderedChangedData</text>
<text text-anchor="middle" x="271.5" y="-7.5" font-family="Helvetica,sans-Serif" font-size="10.00">&lt; IRData &gt;</text>
</a>
</g>
</g>
<!-- Node2 -->
<g id="node2" class="node">
<title>Node2</title>
<g id="a_node2"><a xlink:href="classllvm_1_1StringMap.html" target="_top" xlink:title=" ">
<polygon fill="none" stroke="black" points="121,-78.5 121,-97.5 270,-97.5 270,-78.5 121,-78.5"/>
<text text-anchor="middle" x="195.5" y="-85.5" font-family="Helvetica,sans-Serif" font-size="10.00">llvm::StringMap&lt; IRData &gt;</text>
</a>
</g>
</g>
<!-- Node2&#45;&gt;Node1 -->
<g id="edge1" class="edge">
<title>Node2&#45;&gt;Node1</title>
<path fill="none" stroke="#9a32cd" stroke-dasharray="5,2" d="M212.27,-71.44C225.43,-59.23 243.59,-42.39 256.33,-30.58"/>
<polygon fill="#9a32cd" stroke="#9a32cd" points="209.77,-68.99 204.82,-78.36 214.53,-74.12 209.77,-68.99"/>
<text text-anchor="middle" x="250" y="-52" font-family="Helvetica,sans-Serif" font-size="10.00"> Data</text>
</g>
<!-- Node3 -->
<g id="node3" class="node">
<title>Node3</title>
<g id="a_node3"><a xlink:href="classllvm_1_1StringMapImpl.html" target="_top" xlink:title="StringMapImpl &#45; This is the base class of StringMap that is shared among all of its instantiations.">
<polygon fill="none" stroke="black" points="133.5,-213.5 133.5,-232.5 249.5,-232.5 249.5,-213.5 133.5,-213.5"/>
<text text-anchor="middle" x="191.5" y="-220.5" font-family="Helvetica,sans-Serif" font-size="10.00">llvm::StringMapImpl</text>
</a>
</g>
</g>
<!-- Node3&#45;&gt;Node2 -->
<g id="edge2" class="edge">
<title>Node3&#45;&gt;Node2</title>
<path fill="none" stroke="midnightblue" d="M192.07,-203.13C192.95,-173.88 194.6,-118.76 195.24,-97.59"/>
<polygon fill="midnightblue" stroke="midnightblue" points="188.56,-203.17 191.76,-213.27 195.56,-203.38 188.56,-203.17"/>
</g>
<!-- Node7 -->
<g id="node7" class="node">
<title>Node7</title>
<g id="a_node7"><a xlink:href="classllvm_1_1StringMap.html" target="_top" xlink:title="StringMap &#45; This is an unconventional map that is specialized for handling keys that are &quot;strings&quot;,...">
<polygon fill="none" stroke="black" points="207.5,-145.5 207.5,-175.5 353.5,-175.5 353.5,-145.5 207.5,-145.5"/>
<text text-anchor="start" x="215.5" y="-163.5" font-family="Helvetica,sans-Serif" font-size="10.00">llvm::StringMap&lt; ValueTy,</text>
<text text-anchor="middle" x="280.5" y="-152.5" font-family="Helvetica,sans-Serif" font-size="10.00"> AllocatorTy &gt;</text>
</a>
</g>
</g>
<!-- Node3&#45;&gt;Node7 -->
<g id="edge7" class="edge">
<title>Node3&#45;&gt;Node7</title>
<path fill="none" stroke="midnightblue" d="M212.89,-207.46C227.15,-197.77 245.77,-185.11 259.87,-175.53"/>
<polygon fill="midnightblue" stroke="midnightblue" points="210.55,-204.82 204.25,-213.33 214.49,-210.6 210.55,-204.82"/>
</g>
<!-- Node4 -->
<g id="node4" class="node">
<title>Node4</title>
<g id="a_node4"><a xlink:href="classllvm_1_1StringMapEntryBase.html" target="_top" xlink:title="StringMapEntryBase &#45; Shared base class of StringMapEntry instances.">
<polygon fill="none" stroke="black" points="0,-313.5 0,-332.5 143,-332.5 143,-313.5 0,-313.5"/>
<text text-anchor="middle" x="71.5" y="-320.5" font-family="Helvetica,sans-Serif" font-size="10.00">llvm::StringMapEntryBase</text>
</a>
</g>
</g>
<!-- Node4&#45;&gt;Node3 -->
<g id="edge3" class="edge">
<title>Node4&#45;&gt;Node3</title>
<path fill="none" stroke="#9a32cd" stroke-dasharray="5,2" d="M85.17,-305.17C98.25,-289.78 119.12,-267.03 140.5,-251 150.12,-243.79 161.93,-237.41 171.76,-232.66"/>
<polygon fill="#9a32cd" stroke="#9a32cd" points="82.13,-303.35 78.42,-313.28 87.51,-307.83 82.13,-303.35"/>
<text text-anchor="middle" x="164" y="-270.5" font-family="Helvetica,sans-Serif" font-size="10.00"> TheTable</text>
</g>
<!-- Node5 -->
<g id="node5" class="node">
<title>Node5</title>
<g id="a_node5"><a xlink:title=" ">
<polygon fill="none" stroke="#bfbfbf" points="161,-313.5 161,-332.5 222,-332.5 222,-313.5 161,-313.5"/>
<text text-anchor="middle" x="191.5" y="-320.5" font-family="Helvetica,sans-Serif" font-size="10.00">unsigned</text>
</a>
</g>
</g>
<!-- Node5&#45;&gt;Node3 -->
<g id="edge4" class="edge">
<title>Node5&#45;&gt;Node3</title>
<path fill="none" stroke="#9a32cd" stroke-dasharray="5,2" d="M191.5,-303.22C191.5,-281.95 191.5,-248.22 191.5,-232.54"/>
<polygon fill="#9a32cd" stroke="#9a32cd" points="188,-303.3 191.5,-313.3 195,-303.3 188,-303.3"/>
<text text-anchor="middle" x="232.5" y="-287" font-family="Helvetica,sans-Serif" font-size="10.00"> ItemSize</text>
<text text-anchor="middle" x="232.5" y="-276" font-family="Helvetica,sans-Serif" font-size="10.00">NumBuckets</text>
<text text-anchor="middle" x="232.5" y="-265" font-family="Helvetica,sans-Serif" font-size="10.00">NumItems</text>
<text text-anchor="middle" x="232.5" y="-254" font-family="Helvetica,sans-Serif" font-size="10.00">NumTombstones</text>
</g>
<!-- Node6 -->
<g id="node6" class="node">
<title>Node6</title>
<g id="a_node6"><a xlink:title=" ">
<polygon fill="none" stroke="#bfbfbf" points="267.5,-313.5 267.5,-332.5 325.5,-332.5 325.5,-313.5 267.5,-313.5"/>
<text text-anchor="middle" x="296.5" y="-320.5" font-family="Helvetica,sans-Serif" font-size="10.00">uintptr_t</text>
</a>
</g>
</g>
<!-- Node6&#45;&gt;Node3 -->
<g id="edge5" class="edge">
<title>Node6&#45;&gt;Node3</title>
<path fill="none" stroke="#9a32cd" stroke-dasharray="5,2" d="M295.35,-303.06C293.4,-287.17 288.21,-264.9 274.5,-251 266.09,-242.48 254.97,-236.64 243.61,-232.65"/>
<polygon fill="#9a32cd" stroke="#9a32cd" points="291.89,-303.64 296.27,-313.29 298.86,-303.01 291.89,-303.64"/>
<text text-anchor="middle" x="337" y="-270.5" font-family="Helvetica,sans-Serif" font-size="10.00"> TombstoneIntVal</text>
</g>
<!-- Node7&#45;&gt;Node2 -->
<g id="edge6" class="edge">
<title>Node7&#45;&gt;Node2</title>
<path fill="none" stroke="orange" stroke-dasharray="5,2" d="M255.19,-138.51C238.86,-124.96 218.45,-108.03 206.22,-97.89"/>
<polygon fill="orange" stroke="orange" points="253.37,-141.54 263.3,-145.23 257.84,-136.16 253.37,-141.54"/>
<text text-anchor="middle" x="271" y="-119" font-family="Helvetica,sans-Serif" font-size="10.00"> &lt; IRData &gt;</text>
</g>
<!-- Node8 -->
<g id="node8" class="node">
<title>Node8</title>
<g id="a_node8"><a xlink:title=" ">
<polygon fill="none" stroke="#bfbfbf" points="288,-78.5 288,-97.5 407,-97.5 407,-78.5 288,-78.5"/>
<text text-anchor="middle" x="347.5" y="-85.5" font-family="Helvetica,sans-Serif" font-size="10.00">vector&lt; std::string &gt;</text>
</a>
</g>
</g>
<!-- Node8&#45;&gt;Node1 -->
<g id="edge8" class="edge">
<title>Node8&#45;&gt;Node1</title>
<path fill="none" stroke="#9a32cd" stroke-dasharray="5,2" d="M330.73,-71.44C317.57,-59.23 299.41,-42.39 286.67,-30.58"/>
<polygon fill="#9a32cd" stroke="#9a32cd" points="328.47,-74.12 338.18,-78.36 333.23,-68.99 328.47,-74.12"/>
<text text-anchor="middle" x="331" y="-52" font-family="Helvetica,sans-Serif" font-size="10.00"> Order</text>
</g>
</g>
</svg>
