<?xml version="1.0" encoding="UTF-8" standalone="no"?>
<!DOCTYPE svg PUBLIC "-//W3C//DTD SVG 1.1//EN"
 "http://www.w3.org/Graphics/SVG/1.1/DTD/svg11.dtd">
<!-- Generated by graphviz version 2.42.4 (0)
 -->
<!-- Title: llvm::codeview::BuildInfoRecord Pages: 1 -->
<svg width="1583pt" height="179pt"
 viewBox="0.00 0.00 1583.00 179.00" xmlns="http://www.w3.org/2000/svg" xmlns:xlink="http://www.w3.org/1999/xlink">
<g id="graph0" class="graph" transform="scale(1 1) rotate(0) translate(4 175)">
<title>llvm::codeview::BuildInfoRecord</title>
<!-- Node1 -->
<g id="node1" class="node">
<title>Node1</title>
<g id="a_node1"><a xlink:title=" ">
<polygon fill="#bfbfbf" stroke="black" points="1435,-108 1435,-138 1575,-138 1575,-108 1435,-108"/>
<text text-anchor="start" x="1443" y="-126" font-family="Helvetica,sans-Serif" font-size="10.00">llvm::codeview::BuildInfo</text>
<text text-anchor="middle" x="1505" y="-115" font-family="Helvetica,sans-Serif" font-size="10.00">Record</text>
</a>
</g>
</g>
<!-- Node2 -->
<g id="node2" class="node">
<title>Node2</title>
<g id="a_node2"><a xlink:href="classllvm_1_1codeview_1_1TypeRecord.html" target="_top" xlink:title=" ">
<polygon fill="none" stroke="black" points="1192,-146.5 1192,-165.5 1344,-165.5 1344,-146.5 1192,-146.5"/>
<text text-anchor="middle" x="1268" y="-153.5" font-family="Helvetica,sans-Serif" font-size="10.00">llvm::codeview::TypeRecord</text>
</a>
</g>
</g>
<!-- Node2&#45;&gt;Node1 -->
<g id="edge1" class="edge">
<title>Node2&#45;&gt;Node1</title>
<path fill="none" stroke="midnightblue" d="M1346.57,-145.11C1375.05,-141.11 1407.08,-136.61 1434.78,-132.72"/>
<polygon fill="midnightblue" stroke="midnightblue" points="1346.07,-141.64 1336.66,-146.5 1347.05,-148.57 1346.07,-141.64"/>
</g>
<!-- Node3 -->
<g id="node3" class="node">
<title>Node3</title>
<g id="a_node3"><a xlink:title=" ">
<polygon fill="none" stroke="#bfbfbf" points="877.5,-151.5 877.5,-170.5 972.5,-170.5 972.5,-151.5 877.5,-151.5"/>
<text text-anchor="middle" x="925" y="-158.5" font-family="Helvetica,sans-Serif" font-size="10.00">TypeRecordKind</text>
</a>
</g>
</g>
<!-- Node3&#45;&gt;Node2 -->
<g id="edge2" class="edge">
<title>Node3&#45;&gt;Node2</title>
<path fill="none" stroke="#9a32cd" stroke-dasharray="5,2" d="M983.01,-160.16C1040.27,-159.32 1128.82,-158.03 1191.8,-157.1"/>
<polygon fill="#9a32cd" stroke="#9a32cd" points="982.65,-156.67 972.7,-160.32 982.75,-163.67 982.65,-156.67"/>
<text text-anchor="middle" x="1100.5" y="-162" font-family="Helvetica,sans-Serif" font-size="10.00"> Kind</text>
</g>
<!-- Node4 -->
<g id="node4" class="node">
<title>Node4</title>
<g id="a_node4"><a xlink:href="classllvm_1_1SmallVector.html" target="_top" xlink:title=" ">
<polygon fill="none" stroke="black" points="1192,-78.5 1192,-119.5 1344,-119.5 1344,-78.5 1192,-78.5"/>
<text text-anchor="start" x="1200" y="-107.5" font-family="Helvetica,sans-Serif" font-size="10.00">llvm::SmallVector&lt;</text>
<text text-anchor="start" x="1200" y="-96.5" font-family="Helvetica,sans-Serif" font-size="10.00"> llvm::codeview::TypeIndex,</text>
<text text-anchor="middle" x="1268" y="-85.5" font-family="Helvetica,sans-Serif" font-size="10.00"> MaxArgs &gt;</text>
</a>
</g>
</g>
<!-- Node4&#45;&gt;Node1 -->
<g id="edge3" class="edge">
<title>Node4&#45;&gt;Node1</title>
<path fill="none" stroke="#9a32cd" stroke-dasharray="5,2" d="M1354.05,-107.69C1380.61,-110.4 1409.57,-113.36 1434.89,-115.94"/>
<polygon fill="#9a32cd" stroke="#9a32cd" points="1354.31,-104.19 1344,-106.66 1353.59,-111.16 1354.31,-104.19"/>
<text text-anchor="middle" x="1389.5" y="-116" font-family="Helvetica,sans-Serif" font-size="10.00"> ArgIndices</text>
</g>
<!-- Node5 -->
<g id="node5" class="node">
<title>Node5</title>
<g id="a_node5"><a xlink:href="classllvm_1_1SmallVectorImpl.html" target="_top" xlink:title=" ">
<polygon fill="none" stroke="black" points="841,-64 841,-94 1009,-94 1009,-64 841,-64"/>
<text text-anchor="start" x="849" y="-82" font-family="Helvetica,sans-Serif" font-size="10.00">llvm::SmallVectorImpl</text>
<text text-anchor="middle" x="925" y="-71" font-family="Helvetica,sans-Serif" font-size="10.00">&lt; llvm::codeview::TypeIndex &gt;</text>
</a>
</g>
</g>
<!-- Node5&#45;&gt;Node4 -->
<g id="edge4" class="edge">
<title>Node5&#45;&gt;Node4</title>
<path fill="none" stroke="midnightblue" d="M1019.73,-84.5C1073.97,-87.68 1141.3,-91.63 1192,-94.6"/>
<polygon fill="midnightblue" stroke="midnightblue" points="1019.61,-80.98 1009.42,-83.89 1019.2,-87.97 1019.61,-80.98"/>
</g>
<!-- Node6 -->
<g id="node6" class="node">
<title>Node6</title>
<g id="a_node6"><a xlink:href="classllvm_1_1SmallVectorImpl.html" target="_top" xlink:title="This class consists of common code factored out of the SmallVector class to reduce code duplication b...">
<polygon fill="none" stroke="black" points="482.5,-65.5 482.5,-84.5 635.5,-84.5 635.5,-65.5 482.5,-65.5"/>
<text text-anchor="middle" x="559" y="-72.5" font-family="Helvetica,sans-Serif" font-size="10.00">llvm::SmallVectorImpl&lt; T &gt;</text>
</a>
</g>
</g>
<!-- Node6&#45;&gt;Node5 -->
<g id="edge5" class="edge">
<title>Node6&#45;&gt;Node5</title>
<path fill="none" stroke="orange" stroke-dasharray="5,2" d="M645.9,-75.94C704.83,-76.59 782.62,-77.45 840.94,-78.09"/>
<polygon fill="orange" stroke="orange" points="645.9,-72.44 635.86,-75.83 645.82,-79.44 645.9,-72.44"/>
<text text-anchor="middle" x="745.5" y="-80" font-family="Helvetica,sans-Serif" font-size="10.00"> &lt; llvm::codeview::TypeIndex &gt;</text>
</g>
<!-- Node10 -->
<g id="node10" class="node">
<title>Node10</title>
<g id="a_node10"><a xlink:href="classllvm_1_1SmallVector.html" target="_top" xlink:title="This is a &#39;vector&#39; (really, a variable&#45;sized array), optimized for the case when the array is small.">
<polygon fill="none" stroke="black" points="869.5,-15 869.5,-45 980.5,-45 980.5,-15 869.5,-15"/>
<text text-anchor="start" x="877.5" y="-33" font-family="Helvetica,sans-Serif" font-size="10.00">llvm::SmallVector&lt;</text>
<text text-anchor="middle" x="925" y="-22" font-family="Helvetica,sans-Serif" font-size="10.00"> T, N &gt;</text>
</a>
</g>
</g>
<!-- Node6&#45;&gt;Node10 -->
<g id="edge11" class="edge">
<title>Node6&#45;&gt;Node10</title>
<path fill="none" stroke="midnightblue" d="M645.87,-64.38C715,-55.84 810.08,-44.08 869.25,-36.77"/>
<polygon fill="midnightblue" stroke="midnightblue" points="645.36,-60.92 635.86,-65.62 646.22,-67.87 645.36,-60.92"/>
</g>
<!-- Node7 -->
<g id="node7" class="node">
<title>Node7</title>
<g id="a_node7"><a xlink:href="structllvm_1_1SmallVectorStorage.html" target="_top" xlink:title=" ">
<polygon fill="none" stroke="black" points="468,-108 468,-138 650,-138 650,-108 468,-108"/>
<text text-anchor="start" x="476" y="-126" font-family="Helvetica,sans-Serif" font-size="10.00">llvm::SmallVectorStorage</text>
<text text-anchor="middle" x="559" y="-115" font-family="Helvetica,sans-Serif" font-size="10.00">&lt; llvm::codeview::TypeIndex, N &gt;</text>
</a>
</g>
</g>
<!-- Node7&#45;&gt;Node4 -->
<g id="edge6" class="edge">
<title>Node7&#45;&gt;Node4</title>
<path fill="none" stroke="#8b1a1a" d="M660.04,-120.06C781.58,-116.42 992.85,-109.85 1174,-103 1179.81,-102.78 1185.83,-102.54 1191.88,-102.3"/>
<polygon fill="#8b1a1a" stroke="#8b1a1a" points="659.9,-116.56 650.01,-120.36 660.11,-123.56 659.9,-116.56"/>
</g>
<!-- Node8 -->
<g id="node8" class="node">
<title>Node8</title>
<g id="a_node8"><a xlink:title=" ">
<polygon fill="none" stroke="#bfbfbf" points="0,-59.5 0,-78.5 38,-78.5 38,-59.5 0,-59.5"/>
<text text-anchor="middle" x="19" y="-66.5" font-family="Helvetica,sans-Serif" font-size="10.00">char</text>
</a>
</g>
</g>
<!-- Node8&#45;&gt;Node7 -->
<g id="edge7" class="edge">
<title>Node8&#45;&gt;Node7</title>
<path fill="none" stroke="#9a32cd" stroke-dasharray="5,2" d="M47.44,-81.24C50.3,-82.27 53.19,-83.22 56,-84 85,-92.07 93.2,-89.7 123,-94 193.17,-104.12 210.34,-110.21 281,-116 343.21,-121.1 413.51,-122.83 467.73,-123.29"/>
<polygon fill="#9a32cd" stroke="#9a32cd" points="48.59,-77.93 38.01,-77.52 46.03,-84.45 48.59,-77.93"/>
<text text-anchor="middle" x="193" y="-117" font-family="Helvetica,sans-Serif" font-size="10.00"> InlineElts</text>
</g>
<!-- Node9 -->
<g id="node9" class="node">
<title>Node9</title>
<g id="a_node9"><a xlink:href="structllvm_1_1SmallVectorStorage.html" target="_top" xlink:title="Storage for the SmallVector elements.">
<polygon fill="none" stroke="black" points="123,-54 123,-84 263,-84 263,-54 123,-54"/>
<text text-anchor="start" x="131" y="-72" font-family="Helvetica,sans-Serif" font-size="10.00">llvm::SmallVectorStorage</text>
<text text-anchor="middle" x="193" y="-61" font-family="Helvetica,sans-Serif" font-size="10.00">&lt; T, N &gt;</text>
</a>
</g>
</g>
<!-- Node8&#45;&gt;Node9 -->
<g id="edge9" class="edge">
<title>Node8&#45;&gt;Node9</title>
<path fill="none" stroke="#9a32cd" stroke-dasharray="5,2" d="M48.2,-69C68.52,-69 96.85,-69 123,-69"/>
<polygon fill="#9a32cd" stroke="#9a32cd" points="48.08,-65.5 38.08,-69 48.08,-72.5 48.08,-65.5"/>
<text text-anchor="middle" x="80.5" y="-72" font-family="Helvetica,sans-Serif" font-size="10.00"> InlineElts</text>
</g>
<!-- Node11 -->
<g id="node11" class="node">
<title>Node11</title>
<g id="a_node11"><a xlink:href="structllvm_1_1SmallVectorStorage.html" target="_top" xlink:title=" ">
<polygon fill="none" stroke="black" points="469,-0.5 469,-41.5 649,-41.5 649,-0.5 469,-0.5"/>
<text text-anchor="start" x="477" y="-29.5" font-family="Helvetica,sans-Serif" font-size="10.00">llvm::SmallVectorStorage</text>
<text text-anchor="start" x="477" y="-18.5" font-family="Helvetica,sans-Serif" font-size="10.00">&lt; T, CalculateSmallVectorDefault</text>
<text text-anchor="middle" x="559" y="-7.5" font-family="Helvetica,sans-Serif" font-size="10.00">InlinedElements&lt; T &gt;::value &gt;</text>
</a>
</g>
</g>
<!-- Node8&#45;&gt;Node11 -->
<g id="edge13" class="edge">
<title>Node8&#45;&gt;Node11</title>
<path fill="none" stroke="#9a32cd" stroke-dasharray="5,2" d="M47.47,-57.17C67.89,-49.01 96.65,-38.78 123,-34 241.2,-12.54 380.38,-12.72 468.88,-15.94"/>
<polygon fill="#9a32cd" stroke="#9a32cd" points="46.1,-53.96 38.17,-60.99 48.75,-60.43 46.1,-53.96"/>
<text text-anchor="middle" x="193" y="-37" font-family="Helvetica,sans-Serif" font-size="10.00"> InlineElts</text>
</g>
<!-- Node9&#45;&gt;Node7 -->
<g id="edge8" class="edge">
<title>Node9&#45;&gt;Node7</title>
<path fill="none" stroke="orange" stroke-dasharray="5,2" d="M273.35,-80.9C275.93,-81.27 278.49,-81.64 281,-82 356.04,-92.71 375.05,-93.66 450,-105 456.2,-105.94 462.6,-106.93 469.04,-107.96"/>
<polygon fill="orange" stroke="orange" points="273.72,-77.42 263.32,-79.44 272.71,-84.34 273.72,-77.42"/>
<text text-anchor="middle" x="365.5" y="-108" font-family="Helvetica,sans-Serif" font-size="10.00"> &lt; llvm::codeview::TypeIndex, N &gt;</text>
</g>
<!-- Node9&#45;&gt;Node11 -->
<g id="edge14" class="edge">
<title>Node9&#45;&gt;Node11</title>
<path fill="none" stroke="orange" stroke-dasharray="5,2" d="M265.3,-51.85C270.6,-50.81 275.87,-49.84 281,-49 343.36,-38.72 414.28,-31.64 468.74,-27.17"/>
<polygon fill="orange" stroke="orange" points="264.22,-48.5 255.12,-53.94 265.62,-55.36 264.22,-48.5"/>
<text text-anchor="start" x="300" y="-74" font-family="Helvetica,sans-Serif" font-size="10.00"> &lt; T, CalculateSmallVector</text>
<text text-anchor="start" x="300" y="-63" font-family="Helvetica,sans-Serif" font-size="10.00">DefaultInlinedElements</text>
<text text-anchor="middle" x="365.5" y="-52" font-family="Helvetica,sans-Serif" font-size="10.00">&lt; T &gt;::value &gt;</text>
</g>
<!-- Node10&#45;&gt;Node4 -->
<g id="edge10" class="edge">
<title>Node10&#45;&gt;Node4</title>
<path fill="none" stroke="orange" stroke-dasharray="5,2" d="M990.69,-32.44C1041.31,-35.57 1113.08,-42.71 1174,-59 1191.66,-63.72 1210.32,-71.21 1226.25,-78.44"/>
<polygon fill="orange" stroke="orange" points="990.73,-28.94 980.55,-31.85 990.33,-35.92 990.73,-28.94"/>
<text text-anchor="start" x="1027" y="-73" font-family="Helvetica,sans-Serif" font-size="10.00"> &lt; llvm::codeview::TypeIndex,</text>
<text text-anchor="middle" x="1100.5" y="-62" font-family="Helvetica,sans-Serif" font-size="10.00"> MaxArgs &gt;</text>
</g>
<!-- Node11&#45;&gt;Node10 -->
<g id="edge12" class="edge">
<title>Node11&#45;&gt;Node10</title>
<path fill="none" stroke="#8b1a1a" d="M659.31,-23.46C727,-25.13 814.06,-27.28 869.47,-28.65"/>
<polygon fill="#8b1a1a" stroke="#8b1a1a" points="659.13,-19.95 649.04,-23.2 658.95,-26.95 659.13,-19.95"/>
</g>
</g>
</svg>
