<?xml version="1.0" encoding="UTF-8" standalone="no"?>
<!DOCTYPE svg PUBLIC "-//W3C//DTD SVG 1.1//EN"
 "http://www.w3.org/Graphics/SVG/1.1/DTD/svg11.dtd">
<!-- Generated by graphviz version 2.42.4 (0)
 -->
<!-- Title: llvm::ScaledNumberBase Pages: 1 -->
<svg width="200pt" height="174pt"
 viewBox="0.00 0.00 200.00 174.00" xmlns="http://www.w3.org/2000/svg" xmlns:xlink="http://www.w3.org/1999/xlink">
<g id="graph0" class="graph" transform="scale(1 1) rotate(0) translate(4 170)">
<title>llvm::ScaledNumberBase</title>
<!-- Node1 -->
<g id="node1" class="node">
<title>Node1</title>
<g id="a_node1"><a xlink:title=" ">
<polygon fill="#bfbfbf" stroke="black" points="52,-146.5 52,-165.5 192,-165.5 192,-146.5 52,-146.5"/>
<text text-anchor="middle" x="122" y="-153.5" font-family="Helvetica,sans-Serif" font-size="10.00">llvm::ScaledNumberBase</text>
</a>
</g>
</g>
<!-- Node2 -->
<g id="node2" class="node">
<title>Node2</title>
<g id="a_node2"><a xlink:href="classllvm_1_1ScaledNumber.html" target="_top" xlink:title="Simple representation of a scaled number.">
<polygon fill="none" stroke="black" points="0,-78.5 0,-108.5 116,-108.5 116,-78.5 0,-78.5"/>
<text text-anchor="start" x="8" y="-96.5" font-family="Helvetica,sans-Serif" font-size="10.00">llvm::ScaledNumber</text>
<text text-anchor="middle" x="58" y="-85.5" font-family="Helvetica,sans-Serif" font-size="10.00">&lt; DigitsT &gt;</text>
</a>
</g>
</g>
<!-- Node1&#45;&gt;Node2 -->
<g id="edge1" class="edge">
<title>Node1&#45;&gt;Node2</title>
<path fill="none" stroke="#8b1a1a" d="M105.48,-139.39C95.48,-129.93 82.82,-117.96 73.08,-108.76"/>
<polygon fill="#8b1a1a" stroke="#8b1a1a" points="103.16,-142.01 112.83,-146.33 107.97,-136.92 103.16,-142.01"/>
</g>
<!-- Node3 -->
<g id="node3" class="node">
<title>Node3</title>
<g id="a_node3"><a xlink:href="classllvm_1_1ScaledNumber.html" target="_top" xlink:title=" ">
<polygon fill="none" stroke="black" points="43,-0.5 43,-30.5 159,-30.5 159,-0.5 43,-0.5"/>
<text text-anchor="start" x="51" y="-18.5" font-family="Helvetica,sans-Serif" font-size="10.00">llvm::ScaledNumber</text>
<text text-anchor="middle" x="101" y="-7.5" font-family="Helvetica,sans-Serif" font-size="10.00">&lt; uint64_t &gt;</text>
</a>
</g>
</g>
<!-- Node1&#45;&gt;Node3 -->
<g id="edge3" class="edge">
<title>Node1&#45;&gt;Node3</title>
<path fill="none" stroke="#8b1a1a" d="M128.04,-136.54C134.1,-114.83 141.09,-78.08 130,-49 127.41,-42.22 122.69,-35.95 117.79,-30.77"/>
<polygon fill="#8b1a1a" stroke="#8b1a1a" points="124.6,-135.81 125.05,-146.4 131.3,-137.84 124.6,-135.81"/>
</g>
<!-- Node2&#45;&gt;Node3 -->
<g id="edge2" class="edge">
<title>Node2&#45;&gt;Node3</title>
<path fill="none" stroke="orange" stroke-dasharray="5,2" d="M58.32,-68.03C59.2,-61.55 60.9,-54.76 64,-49 67.81,-41.92 73.81,-35.66 79.88,-30.57"/>
<polygon fill="orange" stroke="orange" points="54.8,-68.16 57.49,-78.41 61.78,-68.72 54.8,-68.16"/>
<text text-anchor="middle" x="97" y="-52" font-family="Helvetica,sans-Serif" font-size="10.00"> &lt; uint64_t &gt;</text>
</g>
</g>
</svg>
