<?xml version="1.0" encoding="UTF-8" standalone="no"?>
<!DOCTYPE svg PUBLIC "-//W3C//DTD SVG 1.1//EN"
 "http://www.w3.org/Graphics/SVG/1.1/DTD/svg11.dtd">
<!-- Generated by graphviz version 2.42.4 (0)
 -->
<!-- Title: llvm::PostDominatorTreeAnalysis Pages: 1 -->
<svg width="1074pt" height="88pt"
 viewBox="0.00 0.00 1074.00 88.00" xmlns="http://www.w3.org/2000/svg" xmlns:xlink="http://www.w3.org/1999/xlink">
<g id="graph0" class="graph" transform="scale(1 1) rotate(0) translate(4 84)">
<title>llvm::PostDominatorTreeAnalysis</title>
<!-- Node1 -->
<g id="node1" class="node">
<title>Node1</title>
<g id="a_node1"><a xlink:title="Analysis pass which computes a PostDominatorTree.">
<polygon fill="#bfbfbf" stroke="black" points="887,-33 887,-52 1066,-52 1066,-33 887,-33"/>
<text text-anchor="middle" x="976.5" y="-40" font-family="Helvetica,sans-Serif" font-size="10.00">llvm::PostDominatorTreeAnalysis</text>
</a>
</g>
</g>
<!-- Node2 -->
<g id="node2" class="node">
<title>Node2</title>
<g id="a_node2"><a xlink:href="structllvm_1_1AnalysisInfoMixin.html" target="_top" xlink:title=" ">
<polygon fill="none" stroke="black" points="677,-27.5 677,-57.5 850,-57.5 850,-27.5 677,-27.5"/>
<text text-anchor="start" x="685" y="-45.5" font-family="Helvetica,sans-Serif" font-size="10.00">llvm::AnalysisInfoMixin</text>
<text text-anchor="middle" x="763.5" y="-34.5" font-family="Helvetica,sans-Serif" font-size="10.00">&lt; PostDominatorTreeAnalysis &gt;</text>
</a>
</g>
</g>
<!-- Node2&#45;&gt;Node1 -->
<g id="edge1" class="edge">
<title>Node2&#45;&gt;Node1</title>
<path fill="none" stroke="midnightblue" d="M860.02,-42.5C868.93,-42.5 877.93,-42.5 886.77,-42.5"/>
<polygon fill="midnightblue" stroke="midnightblue" points="860.02,-39 850.02,-42.5 860.02,-46 860.02,-39"/>
</g>
<!-- Node3 -->
<g id="node3" class="node">
<title>Node3</title>
<g id="a_node3"><a xlink:href="structllvm_1_1PassInfoMixin.html" target="_top" xlink:title=" ">
<polygon fill="none" stroke="black" points="308,-49.5 308,-79.5 481,-79.5 481,-49.5 308,-49.5"/>
<text text-anchor="start" x="316" y="-67.5" font-family="Helvetica,sans-Serif" font-size="10.00">llvm::PassInfoMixin</text>
<text text-anchor="middle" x="394.5" y="-56.5" font-family="Helvetica,sans-Serif" font-size="10.00">&lt; PostDominatorTreeAnalysis &gt;</text>
</a>
</g>
</g>
<!-- Node3&#45;&gt;Node2 -->
<g id="edge2" class="edge">
<title>Node3&#45;&gt;Node2</title>
<path fill="none" stroke="midnightblue" d="M491.26,-58.76C548.73,-55.31 621.21,-50.97 676.78,-47.64"/>
<polygon fill="midnightblue" stroke="midnightblue" points="490.85,-55.28 481.08,-59.37 491.27,-62.26 490.85,-55.28"/>
</g>
<!-- Node4 -->
<g id="node4" class="node">
<title>Node4</title>
<g id="a_node4"><a xlink:href="structllvm_1_1PassInfoMixin.html" target="_top" xlink:title="A CRTP mix&#45;in to automatically provide informational APIs needed for passes.">
<polygon fill="none" stroke="black" points="0,-24.5 0,-54.5 112,-54.5 112,-24.5 0,-24.5"/>
<text text-anchor="start" x="8" y="-42.5" font-family="Helvetica,sans-Serif" font-size="10.00">llvm::PassInfoMixin</text>
<text text-anchor="middle" x="56" y="-31.5" font-family="Helvetica,sans-Serif" font-size="10.00">&lt; DerivedT &gt;</text>
</a>
</g>
</g>
<!-- Node4&#45;&gt;Node3 -->
<g id="edge3" class="edge">
<title>Node4&#45;&gt;Node3</title>
<path fill="none" stroke="orange" stroke-dasharray="5,2" d="M122.47,-44.36C175.39,-48.3 250.32,-53.86 307.98,-58.15"/>
<polygon fill="orange" stroke="orange" points="122.42,-40.85 112.19,-43.6 121.9,-47.83 122.42,-40.85"/>
<text text-anchor="middle" x="210" y="-58.5" font-family="Helvetica,sans-Serif" font-size="10.00"> &lt; PostDominatorTreeAnalysis &gt;</text>
</g>
<!-- Node5 -->
<g id="node5" class="node">
<title>Node5</title>
<g id="a_node5"><a xlink:href="structllvm_1_1AnalysisInfoMixin.html" target="_top" xlink:title="A CRTP mix&#45;in that provides informational APIs needed for analysis passes.">
<polygon fill="none" stroke="black" points="329,-0.5 329,-30.5 460,-30.5 460,-0.5 329,-0.5"/>
<text text-anchor="start" x="337" y="-18.5" font-family="Helvetica,sans-Serif" font-size="10.00">llvm::AnalysisInfoMixin</text>
<text text-anchor="middle" x="394.5" y="-7.5" font-family="Helvetica,sans-Serif" font-size="10.00">&lt; DerivedT &gt;</text>
</a>
</g>
</g>
<!-- Node4&#45;&gt;Node5 -->
<g id="edge5" class="edge">
<title>Node4&#45;&gt;Node5</title>
<path fill="none" stroke="midnightblue" d="M122.24,-34.85C181.8,-30.6 269.37,-24.35 328.78,-20.12"/>
<polygon fill="midnightblue" stroke="midnightblue" points="121.91,-31.36 112.19,-35.56 122.41,-38.34 121.91,-31.36"/>
</g>
<!-- Node5&#45;&gt;Node2 -->
<g id="edge4" class="edge">
<title>Node5&#45;&gt;Node2</title>
<path fill="none" stroke="orange" stroke-dasharray="5,2" d="M470.51,-20.25C523.25,-23.69 595.46,-28.57 659,-33.5 664.84,-33.95 670.87,-34.44 676.94,-34.94"/>
<polygon fill="orange" stroke="orange" points="470.43,-16.74 460.23,-19.59 469.98,-23.73 470.43,-16.74"/>
<text text-anchor="middle" x="579" y="-36.5" font-family="Helvetica,sans-Serif" font-size="10.00"> &lt; PostDominatorTreeAnalysis &gt;</text>
</g>
</g>
</svg>
