<?xml version="1.0" encoding="UTF-8" standalone="no"?>
<!DOCTYPE svg PUBLIC "-//W3C//DTD SVG 1.1//EN"
 "http://www.w3.org/Graphics/SVG/1.1/DTD/svg11.dtd">
<!-- Generated by graphviz version 2.42.4 (0)
 -->
<!-- Title: llvm::IRBuilderBase Pages: 1 -->
<svg width="625pt" height="92pt"
 viewBox="0.00 0.00 625.00 91.59" xmlns="http://www.w3.org/2000/svg" xmlns:xlink="http://www.w3.org/1999/xlink">
<g id="graph0" class="graph" transform="scale(1 1) rotate(0) translate(4 87.59)">
<title>llvm::IRBuilderBase</title>
<!-- Node1 -->
<g id="node1" class="node">
<title>Node1</title>
<g id="a_node1"><a xlink:title="Common base class shared among various IRBuilders.">
<polygon fill="#bfbfbf" stroke="black" points="0,-30.5 0,-49.5 113,-49.5 113,-30.5 0,-30.5"/>
<text text-anchor="middle" x="56.5" y="-37.5" font-family="Helvetica,sans-Serif" font-size="10.00">llvm::IRBuilderBase</text>
</a>
</g>
</g>
<!-- Node2 -->
<g id="node2" class="node">
<title>Node2</title>
<g id="a_node2"><a xlink:href="classllvm_1_1IRBuilder.html" target="_top" xlink:title=" ">
<polygon fill="none" stroke="black" points="454,-50 454,-80 617,-80 617,-50 454,-50"/>
<text text-anchor="start" x="462" y="-68" font-family="Helvetica,sans-Serif" font-size="10.00">llvm::IRBuilder&lt; TargetFolder,</text>
<text text-anchor="middle" x="535.5" y="-57" font-family="Helvetica,sans-Serif" font-size="10.00"> IRBuilderCallbackInserter &gt;</text>
</a>
</g>
</g>
<!-- Node1&#45;&gt;Node2 -->
<g id="edge1" class="edge">
<title>Node1&#45;&gt;Node2</title>
<path fill="none" stroke="midnightblue" d="M96.91,-52.36C113.19,-57.02 132.36,-61.93 150,-65 275.36,-86.81 309.03,-86.34 436,-78 441.85,-77.62 447.89,-77.1 453.95,-76.51"/>
<polygon fill="midnightblue" stroke="midnightblue" points="97.76,-48.97 87.18,-49.51 95.8,-55.68 97.76,-48.97"/>
</g>
<!-- Node3 -->
<g id="node3" class="node">
<title>Node3</title>
<g id="a_node3"><a xlink:href="classllvm_1_1IRBuilder.html" target="_top" xlink:title=" ">
<polygon fill="none" stroke="black" points="483,-0.5 483,-19.5 588,-19.5 588,-0.5 483,-0.5"/>
<text text-anchor="middle" x="535.5" y="-7.5" font-family="Helvetica,sans-Serif" font-size="10.00">llvm::IRBuilder&lt;&gt;</text>
</a>
</g>
</g>
<!-- Node1&#45;&gt;Node3 -->
<g id="edge2" class="edge">
<title>Node1&#45;&gt;Node3</title>
<path fill="none" stroke="midnightblue" d="M96.85,-27.58C113.13,-23.02 132.3,-18.4 150,-16 268.25,0.03 408.83,-3.4 482.9,-6.93"/>
<polygon fill="midnightblue" stroke="midnightblue" points="95.77,-24.25 87.13,-30.39 97.71,-30.98 95.77,-24.25"/>
</g>
<!-- Node4 -->
<g id="node4" class="node">
<title>Node4</title>
<g id="a_node4"><a xlink:href="classllvm_1_1IRBuilder.html" target="_top" xlink:title="This provides a uniform API for creating instructions and inserting them into a basic block: either a...">
<polygon fill="none" stroke="black" points="150,-25 150,-55 293,-55 293,-25 150,-25"/>
<text text-anchor="start" x="158" y="-43" font-family="Helvetica,sans-Serif" font-size="10.00">llvm::IRBuilder&lt; FolderTy,</text>
<text text-anchor="middle" x="221.5" y="-32" font-family="Helvetica,sans-Serif" font-size="10.00"> InserterTy &gt;</text>
</a>
</g>
</g>
<!-- Node1&#45;&gt;Node4 -->
<g id="edge3" class="edge">
<title>Node1&#45;&gt;Node4</title>
<path fill="none" stroke="midnightblue" d="M123.27,-40C132.01,-40 141.01,-40 149.84,-40"/>
<polygon fill="midnightblue" stroke="midnightblue" points="123.14,-36.5 113.14,-40 123.14,-43.5 123.14,-36.5"/>
</g>
<!-- Node4&#45;&gt;Node2 -->
<g id="edge5" class="edge">
<title>Node4&#45;&gt;Node2</title>
<path fill="none" stroke="orange" stroke-dasharray="5,2" d="M303.42,-45.75C343.34,-48.67 392.21,-52.36 436,-56 441.82,-56.48 447.83,-57 453.88,-57.53"/>
<polygon fill="orange" stroke="orange" points="303.43,-42.24 293.2,-45.01 302.92,-49.23 303.43,-42.24"/>
<text text-anchor="start" x="311" y="-70" font-family="Helvetica,sans-Serif" font-size="10.00"> &lt; TargetFolder, IRBuilder</text>
<text text-anchor="middle" x="373.5" y="-59" font-family="Helvetica,sans-Serif" font-size="10.00">CallbackInserter &gt;</text>
</g>
<!-- Node4&#45;&gt;Node3 -->
<g id="edge4" class="edge">
<title>Node4&#45;&gt;Node3</title>
<path fill="none" stroke="orange" stroke-dasharray="5,2" d="M303.23,-31.76C305.85,-31.51 308.44,-31.25 311,-31 369.76,-25.25 437.25,-18.95 482.55,-14.77"/>
<polygon fill="orange" stroke="orange" points="302.63,-28.31 293.02,-32.78 303.32,-35.27 302.63,-28.31"/>
<text text-anchor="middle" x="373.5" y="-34" font-family="Helvetica,sans-Serif" font-size="10.00"> &lt;&gt;</text>
</g>
</g>
</svg>
