<?xml version="1.0" encoding="UTF-8" standalone="no"?>
<!DOCTYPE svg PUBLIC "-//W3C//DTD SVG 1.1//EN"
 "http://www.w3.org/Graphics/SVG/1.1/DTD/svg11.dtd">
<!-- Generated by graphviz version 2.42.4 (0)
 -->
<!-- Title: include/llvm/CodeGen/PBQP/CostAllocator.h Pages: 1 -->
<svg width="2110pt" height="442pt"
 viewBox="0.00 0.00 2110.00 442.00" xmlns="http://www.w3.org/2000/svg" xmlns:xlink="http://www.w3.org/1999/xlink">
<g id="graph0" class="graph" transform="scale(1 1) rotate(0) translate(4 438)">
<title>include/llvm/CodeGen/PBQP/CostAllocator.h</title>
<!-- Node1 -->
<g id="node1" class="node">
<title>Node1</title>
<g id="a_node1"><a xlink:title=" ">
<polygon fill="#bfbfbf" stroke="black" points="1814,-403.5 1814,-433.5 1938,-433.5 1938,-403.5 1814,-403.5"/>
<text text-anchor="start" x="1822" y="-421.5" font-family="Helvetica,sans-Serif" font-size="10.00">include/llvm/CodeGen</text>
<text text-anchor="middle" x="1876" y="-410.5" font-family="Helvetica,sans-Serif" font-size="10.00">/PBQP/CostAllocator.h</text>
</a>
</g>
</g>
<!-- Node2 -->
<g id="node2" class="node">
<title>Node2</title>
<g id="a_node2"><a xlink:href="DenseSet_8h.html" target="_top" xlink:title=" ">
<polygon fill="none" stroke="black" points="1732,-347.5 1732,-366.5 1852,-366.5 1852,-347.5 1732,-347.5"/>
<text text-anchor="middle" x="1792" y="-354.5" font-family="Helvetica,sans-Serif" font-size="10.00">llvm/ADT/DenseSet.h</text>
</a>
</g>
</g>
<!-- Node1&#45;&gt;Node2 -->
<g id="edge1" class="edge">
<title>Node1&#45;&gt;Node2</title>
<path fill="none" stroke="midnightblue" d="M1856.09,-403.4C1843.01,-394.13 1825.92,-382.03 1812.68,-372.65"/>
<polygon fill="midnightblue" stroke="midnightblue" points="1814.41,-369.58 1804.22,-366.66 1810.36,-375.29 1814.41,-369.58"/>
</g>
<!-- Node18 -->
<g id="node18" class="node">
<title>Node18</title>
<g id="a_node18"><a xlink:title=" ">
<polygon fill="none" stroke="#bfbfbf" points="120,-56.5 120,-75.5 170,-75.5 170,-56.5 120,-56.5"/>
<text text-anchor="middle" x="145" y="-63.5" font-family="Helvetica,sans-Serif" font-size="10.00">cstdint</text>
</a>
</g>
</g>
<!-- Node1&#45;&gt;Node18 -->
<g id="edge78" class="edge">
<title>Node1&#45;&gt;Node18</title>
<path fill="none" stroke="midnightblue" d="M1813.85,-417C1488.88,-413.97 0,-395.02 0,-302 0,-302 0,-302 0,-182.5 0,-126.37 67.31,-93.11 110.21,-77.61"/>
<polygon fill="midnightblue" stroke="midnightblue" points="111.44,-80.89 119.74,-74.31 109.15,-74.27 111.44,-80.89"/>
</g>
<!-- Node23 -->
<g id="node23" class="node">
<title>Node23</title>
<g id="a_node23"><a xlink:title=" ">
<polygon fill="none" stroke="#bfbfbf" points="1848,-112.5 1848,-131.5 1912,-131.5 1912,-112.5 1848,-112.5"/>
<text text-anchor="middle" x="1880" y="-119.5" font-family="Helvetica,sans-Serif" font-size="10.00">algorithm</text>
</a>
</g>
</g>
<!-- Node1&#45;&gt;Node23 -->
<g id="edge77" class="edge">
<title>Node1&#45;&gt;Node23</title>
<path fill="none" stroke="midnightblue" d="M1891.07,-403.39C1910.03,-384.48 1941.6,-348.9 1954,-311 1975.12,-246.43 1921.92,-171.94 1894.77,-139.51"/>
<polygon fill="midnightblue" stroke="midnightblue" points="1897.36,-137.16 1888.19,-131.86 1892.06,-141.73 1897.36,-137.16"/>
</g>
<!-- Node41 -->
<g id="node41" class="node">
<title>Node41</title>
<g id="a_node41"><a xlink:title=" ">
<polygon fill="none" stroke="#bfbfbf" points="2044,-347.5 2044,-366.5 2102,-366.5 2102,-347.5 2044,-347.5"/>
<text text-anchor="middle" x="2073" y="-354.5" font-family="Helvetica,sans-Serif" font-size="10.00">memory</text>
</a>
</g>
</g>
<!-- Node1&#45;&gt;Node41 -->
<g id="edge79" class="edge">
<title>Node1&#45;&gt;Node41</title>
<path fill="none" stroke="midnightblue" d="M1922.69,-403.4C1956.88,-393.07 2002.71,-379.23 2034.74,-369.56"/>
<polygon fill="midnightblue" stroke="midnightblue" points="2036.06,-372.81 2044.62,-366.57 2034.04,-366.11 2036.06,-372.81"/>
</g>
<!-- Node3 -->
<g id="node3" class="node">
<title>Node3</title>
<g id="a_node3"><a xlink:href="DenseMap_8h.html" target="_top" xlink:title=" ">
<polygon fill="none" stroke="black" points="875.5,-291.5 875.5,-310.5 1000.5,-310.5 1000.5,-291.5 875.5,-291.5"/>
<text text-anchor="middle" x="938" y="-298.5" font-family="Helvetica,sans-Serif" font-size="10.00">llvm/ADT/DenseMap.h</text>
</a>
</g>
</g>
<!-- Node2&#45;&gt;Node3 -->
<g id="edge2" class="edge">
<title>Node2&#45;&gt;Node3</title>
<path fill="none" stroke="midnightblue" d="M1731.95,-352.2C1579.2,-342.54 1176.27,-317.07 1010.66,-306.59"/>
<polygon fill="midnightblue" stroke="midnightblue" points="1010.77,-303.09 1000.57,-305.96 1010.33,-310.08 1010.77,-303.09"/>
</g>
<!-- Node4 -->
<g id="node4" class="node">
<title>Node4</title>
<g id="a_node4"><a xlink:href="DenseMapInfo_8h.html" target="_top" xlink:title=" ">
<polygon fill="none" stroke="black" points="1301,-235.5 1301,-254.5 1445,-254.5 1445,-235.5 1301,-235.5"/>
<text text-anchor="middle" x="1373" y="-242.5" font-family="Helvetica,sans-Serif" font-size="10.00">llvm/ADT/DenseMapInfo.h</text>
</a>
</g>
</g>
<!-- Node2&#45;&gt;Node4 -->
<g id="edge69" class="edge">
<title>Node2&#45;&gt;Node4</title>
<path fill="none" stroke="midnightblue" d="M1759.47,-347.46C1684.36,-327.74 1498.91,-279.05 1415.2,-257.08"/>
<polygon fill="midnightblue" stroke="midnightblue" points="1416.07,-253.69 1405.51,-254.53 1414.29,-260.46 1416.07,-253.69"/>
</g>
<!-- Node17 -->
<g id="node17" class="node">
<title>Node17</title>
<g id="a_node17"><a xlink:title=" ">
<polygon fill="none" stroke="#bfbfbf" points="1774.5,-56.5 1774.5,-75.5 1827.5,-75.5 1827.5,-56.5 1774.5,-56.5"/>
<text text-anchor="middle" x="1801" y="-63.5" font-family="Helvetica,sans-Serif" font-size="10.00">cstddef</text>
</a>
</g>
</g>
<!-- Node2&#45;&gt;Node17 -->
<g id="edge73" class="edge">
<title>Node2&#45;&gt;Node17</title>
<path fill="none" stroke="midnightblue" d="M1849.74,-347.46C1890.92,-340.05 1941.19,-327.85 1954,-311 2007.52,-240.59 2006.99,-182.82 1954,-112 1940.04,-93.34 1878.28,-79.76 1837.62,-72.65"/>
<polygon fill="midnightblue" stroke="midnightblue" points="1837.97,-69.16 1827.53,-70.94 1836.8,-76.06 1837.97,-69.16"/>
</g>
<!-- Node21 -->
<g id="node21" class="node">
<title>Node21</title>
<g id="a_node21"><a xlink:href="type__traits_8h.html" target="_top" xlink:title=" ">
<polygon fill="none" stroke="black" points="735.5,-112.5 735.5,-131.5 878.5,-131.5 878.5,-112.5 735.5,-112.5"/>
<text text-anchor="middle" x="807" y="-119.5" font-family="Helvetica,sans-Serif" font-size="10.00">llvm/Support/type_traits.h</text>
</a>
</g>
</g>
<!-- Node2&#45;&gt;Node21 -->
<g id="edge71" class="edge">
<title>Node2&#45;&gt;Node21</title>
<path fill="none" stroke="midnightblue" d="M1731.69,-354.95C1531.57,-351.24 900.27,-337.47 866,-311 812.76,-269.88 806.5,-180.99 806.46,-141.99"/>
<polygon fill="midnightblue" stroke="midnightblue" points="809.96,-141.65 806.6,-131.6 802.96,-141.55 809.96,-141.65"/>
</g>
<!-- Node22 -->
<g id="node22" class="node">
<title>Node22</title>
<g id="a_node22"><a xlink:title=" ">
<polygon fill="none" stroke="#bfbfbf" points="1683.5,-56.5 1683.5,-75.5 1728.5,-75.5 1728.5,-56.5 1683.5,-56.5"/>
<text text-anchor="middle" x="1706" y="-63.5" font-family="Helvetica,sans-Serif" font-size="10.00">utility</text>
</a>
</g>
</g>
<!-- Node2&#45;&gt;Node22 -->
<g id="edge76" class="edge">
<title>Node2&#45;&gt;Node22</title>
<path fill="none" stroke="midnightblue" d="M1824.85,-347.46C1868.45,-333.91 1940,-302.99 1940,-246 1940,-246 1940,-246 1940,-182.5 1940,-150.05 1944.59,-134.28 1921,-112 1907.82,-99.55 1795.59,-80.77 1738.73,-71.93"/>
<polygon fill="midnightblue" stroke="midnightblue" points="1739.21,-68.46 1728.79,-70.4 1738.14,-75.38 1739.21,-68.46"/>
</g>
<!-- Node2&#45;&gt;Node23 -->
<g id="edge72" class="edge">
<title>Node2&#45;&gt;Node23</title>
<path fill="none" stroke="midnightblue" d="M1804.17,-347.43C1825.08,-331.87 1867.1,-296.68 1883,-255 1897.58,-216.77 1890.37,-167.68 1884.67,-141.46"/>
<polygon fill="midnightblue" stroke="midnightblue" points="1888.07,-140.65 1882.38,-131.72 1881.26,-142.25 1888.07,-140.65"/>
</g>
<!-- Node30 -->
<g id="node30" class="node">
<title>Node30</title>
<g id="a_node30"><a xlink:href="MathExtras_8h.html" target="_top" xlink:title=" ">
<polygon fill="none" stroke="black" points="450,-174 450,-193 596,-193 596,-174 450,-174"/>
<text text-anchor="middle" x="523" y="-181" font-family="Helvetica,sans-Serif" font-size="10.00">llvm/Support/MathExtras.h</text>
</a>
</g>
</g>
<!-- Node2&#45;&gt;Node30 -->
<g id="edge70" class="edge">
<title>Node2&#45;&gt;Node30</title>
<path fill="none" stroke="midnightblue" d="M1731.78,-356.17C1576.96,-355.98 1152.59,-351.49 802,-311 667.26,-295.44 588.66,-359.34 502,-255 489.31,-239.72 499.78,-217 509.96,-201.51"/>
<polygon fill="midnightblue" stroke="midnightblue" points="512.83,-203.52 515.74,-193.33 507.11,-199.48 512.83,-203.52"/>
</g>
<!-- Node38 -->
<g id="node38" class="node">
<title>Node38</title>
<g id="a_node38"><a xlink:title=" ">
<polygon fill="none" stroke="#bfbfbf" points="1719.5,-235.5 1719.5,-254.5 1802.5,-254.5 1802.5,-235.5 1719.5,-235.5"/>
<text text-anchor="middle" x="1761" y="-242.5" font-family="Helvetica,sans-Serif" font-size="10.00">initializer_list</text>
</a>
</g>
</g>
<!-- Node2&#45;&gt;Node38 -->
<g id="edge74" class="edge">
<title>Node2&#45;&gt;Node38</title>
<path fill="none" stroke="midnightblue" d="M1789.57,-347.37C1784.54,-329.54 1772.92,-288.3 1766.15,-264.27"/>
<polygon fill="midnightblue" stroke="midnightblue" points="1769.5,-263.27 1763.42,-254.59 1762.77,-265.17 1769.5,-263.27"/>
</g>
<!-- Node39 -->
<g id="node39" class="node">
<title>Node39</title>
<g id="a_node39"><a xlink:title=" ">
<polygon fill="none" stroke="#bfbfbf" points="1820.5,-235.5 1820.5,-254.5 1873.5,-254.5 1873.5,-235.5 1820.5,-235.5"/>
<text text-anchor="middle" x="1847" y="-242.5" font-family="Helvetica,sans-Serif" font-size="10.00">iterator</text>
</a>
</g>
</g>
<!-- Node2&#45;&gt;Node39 -->
<g id="edge75" class="edge">
<title>Node2&#45;&gt;Node39</title>
<path fill="none" stroke="midnightblue" d="M1796.32,-347.37C1805.31,-329.38 1826.22,-287.55 1838.19,-263.63"/>
<polygon fill="midnightblue" stroke="midnightblue" points="1841.36,-265.1 1842.7,-254.59 1835.1,-261.97 1841.36,-265.1"/>
</g>
<!-- Node3&#45;&gt;Node4 -->
<g id="edge3" class="edge">
<title>Node3&#45;&gt;Node4</title>
<path fill="none" stroke="midnightblue" d="M1000.79,-292.21C1078.34,-282.58 1210.29,-266.2 1294.47,-255.75"/>
<polygon fill="midnightblue" stroke="midnightblue" points="1295,-259.21 1304.49,-254.5 1294.13,-252.26 1295,-259.21"/>
</g>
<!-- Node12 -->
<g id="node12" class="node">
<title>Node12</title>
<g id="a_node12"><a xlink:href="Compiler_8h.html" target="_top" xlink:title=" ">
<polygon fill="none" stroke="black" points="902,-56.5 902,-75.5 1036,-75.5 1036,-56.5 902,-56.5"/>
<text text-anchor="middle" x="969" y="-63.5" font-family="Helvetica,sans-Serif" font-size="10.00">llvm/Support/Compiler.h</text>
</a>
</g>
</g>
<!-- Node3&#45;&gt;Node12 -->
<g id="edge39" class="edge">
<title>Node3&#45;&gt;Node12</title>
<path fill="none" stroke="midnightblue" d="M969.88,-291.47C1010.13,-278.8 1077.65,-250.73 1107,-199 1113.8,-187.02 1114.37,-179.64 1107,-168 1087.01,-136.42 1061.3,-153.89 1031,-132 1011.74,-118.08 993.44,-97.7 981.78,-83.49"/>
<polygon fill="midnightblue" stroke="midnightblue" points="984.41,-81.17 975.43,-75.54 978.94,-85.54 984.41,-81.17"/>
</g>
<!-- Node3&#45;&gt;Node17 -->
<g id="edge62" class="edge">
<title>Node3&#45;&gt;Node17</title>
<path fill="none" stroke="midnightblue" d="M1000.58,-300.53C1107.2,-300.23 1330.36,-294.39 1514,-255 1586.03,-239.55 1605.27,-234.17 1670,-199 1713.19,-175.53 1724.41,-167.89 1758,-132 1771.54,-117.53 1783.66,-98.34 1791.56,-84.57"/>
<polygon fill="midnightblue" stroke="midnightblue" points="1794.72,-86.09 1796.52,-75.65 1788.6,-82.69 1794.72,-86.09"/>
</g>
<!-- Node19 -->
<g id="node19" class="node">
<title>Node19</title>
<g id="a_node19"><a xlink:title=" ">
<polygon fill="none" stroke="#bfbfbf" points="463.5,-56.5 463.5,-75.5 532.5,-75.5 532.5,-56.5 463.5,-56.5"/>
<text text-anchor="middle" x="498" y="-63.5" font-family="Helvetica,sans-Serif" font-size="10.00">type_traits</text>
</a>
</g>
</g>
<!-- Node3&#45;&gt;Node19 -->
<g id="edge67" class="edge">
<title>Node3&#45;&gt;Node19</title>
<path fill="none" stroke="midnightblue" d="M875.28,-298.88C685.17,-295.2 126.61,-282.12 99,-255 71.39,-227.87 72.2,-199.28 95,-168 137.27,-110 357.34,-81.14 453.24,-71.17"/>
<polygon fill="midnightblue" stroke="midnightblue" points="453.63,-74.64 463.22,-70.15 452.92,-67.68 453.63,-74.64"/>
</g>
<!-- Node3&#45;&gt;Node21 -->
<g id="edge59" class="edge">
<title>Node3&#45;&gt;Node21</title>
<path fill="none" stroke="midnightblue" d="M935.02,-291.49C926.95,-269.28 902.89,-208.47 868,-168 857.52,-155.85 843.19,-145.06 831.05,-137.1"/>
<polygon fill="midnightblue" stroke="midnightblue" points="832.62,-133.95 822.29,-131.59 828.89,-139.88 832.62,-133.95"/>
</g>
<!-- Node3&#45;&gt;Node22 -->
<g id="edge68" class="edge">
<title>Node3&#45;&gt;Node22</title>
<path fill="none" stroke="midnightblue" d="M1000.6,-299.05C1098.33,-296.56 1292.69,-287.56 1454,-255 1533.63,-238.93 1556.99,-238.47 1628,-199 1668.24,-176.63 1687.65,-173.78 1707,-132 1713.67,-117.6 1712.71,-99.41 1710.49,-85.93"/>
<polygon fill="midnightblue" stroke="midnightblue" points="1713.88,-85.02 1708.47,-75.91 1707.02,-86.41 1713.88,-85.02"/>
</g>
<!-- Node3&#45;&gt;Node23 -->
<g id="edge60" class="edge">
<title>Node3&#45;&gt;Node23</title>
<path fill="none" stroke="midnightblue" d="M1000.78,-299.12C1153.62,-296.49 1541.71,-286.79 1667,-255 1687.43,-249.82 1690.27,-242.4 1710,-235 1763.73,-214.84 1788.47,-233.94 1834,-199 1853.35,-184.15 1866.35,-158.64 1873.46,-141.31"/>
<polygon fill="midnightblue" stroke="midnightblue" points="1876.82,-142.33 1877.13,-131.74 1870.28,-139.83 1876.82,-142.33"/>
</g>
<!-- Node24 -->
<g id="node24" class="node">
<title>Node24</title>
<g id="a_node24"><a xlink:title=" ">
<polygon fill="none" stroke="#bfbfbf" points="597,-112.5 597,-131.5 649,-131.5 649,-112.5 597,-112.5"/>
<text text-anchor="middle" x="623" y="-119.5" font-family="Helvetica,sans-Serif" font-size="10.00">cassert</text>
</a>
</g>
</g>
<!-- Node3&#45;&gt;Node24 -->
<g id="edge61" class="edge">
<title>Node3&#45;&gt;Node24</title>
<path fill="none" stroke="midnightblue" d="M925.32,-291.42C912,-282.4 890.48,-267.77 872,-255 836.29,-230.33 825.68,-226.37 792,-199 776.38,-186.31 776.29,-178.29 759,-168 741.88,-157.81 692.94,-142.76 658.7,-132.91"/>
<polygon fill="midnightblue" stroke="midnightblue" points="659.61,-129.53 649.03,-130.16 657.69,-136.26 659.61,-129.53"/>
</g>
<!-- Node25 -->
<g id="node25" class="node">
<title>Node25</title>
<g id="a_node25"><a xlink:title=" ">
<polygon fill="none" stroke="#bfbfbf" points="667,-112.5 667,-131.5 717,-131.5 717,-112.5 667,-112.5"/>
<text text-anchor="middle" x="692" y="-119.5" font-family="Helvetica,sans-Serif" font-size="10.00">cstring</text>
</a>
</g>
</g>
<!-- Node3&#45;&gt;Node25 -->
<g id="edge63" class="edge">
<title>Node3&#45;&gt;Node25</title>
<path fill="none" stroke="midnightblue" d="M930.21,-291.27C909.55,-268.52 850.92,-206.52 792,-168 771.32,-154.48 745.91,-143.11 725.88,-135.17"/>
<polygon fill="midnightblue" stroke="midnightblue" points="727.11,-131.9 716.52,-131.56 724.59,-138.43 727.11,-131.9"/>
</g>
<!-- Node27 -->
<g id="node27" class="node">
<title>Node27</title>
<g id="a_node27"><a xlink:href="EpochTracker_8h.html" target="_top" xlink:title=" ">
<polygon fill="none" stroke="black" points="108.5,-235.5 108.5,-254.5 245.5,-254.5 245.5,-235.5 108.5,-235.5"/>
<text text-anchor="middle" x="177" y="-242.5" font-family="Helvetica,sans-Serif" font-size="10.00">llvm/ADT/EpochTracker.h</text>
</a>
</g>
</g>
<!-- Node3&#45;&gt;Node27 -->
<g id="edge34" class="edge">
<title>Node3&#45;&gt;Node27</title>
<path fill="none" stroke="midnightblue" d="M875.4,-295.56C737.42,-285.77 407.36,-262.35 255.68,-251.58"/>
<polygon fill="midnightblue" stroke="midnightblue" points="255.73,-248.08 245.51,-250.86 255.24,-255.06 255.73,-248.08"/>
</g>
<!-- Node29 -->
<g id="node29" class="node">
<title>Node29</title>
<g id="a_node29"><a xlink:href="AlignOf_8h.html" target="_top" xlink:title=" ">
<polygon fill="none" stroke="black" points="306,-174 306,-193 432,-193 432,-174 306,-174"/>
<text text-anchor="middle" x="369" y="-181" font-family="Helvetica,sans-Serif" font-size="10.00">llvm/Support/AlignOf.h</text>
</a>
</g>
</g>
<!-- Node3&#45;&gt;Node29 -->
<g id="edge37" class="edge">
<title>Node3&#45;&gt;Node29</title>
<path fill="none" stroke="midnightblue" d="M875.15,-300.98C789.06,-300.65 630.5,-294.07 502,-255 459.47,-242.07 414.73,-215.19 389.5,-198.62"/>
<polygon fill="midnightblue" stroke="midnightblue" points="391.39,-195.67 381.13,-193.02 387.5,-201.49 391.39,-195.67"/>
</g>
<!-- Node3&#45;&gt;Node30 -->
<g id="edge40" class="edge">
<title>Node3&#45;&gt;Node30</title>
<path fill="none" stroke="midnightblue" d="M875.18,-297.9C762.79,-293.49 536.76,-281.41 513,-255 500.25,-240.83 506.49,-218.15 513.47,-202.35"/>
<polygon fill="midnightblue" stroke="midnightblue" points="516.73,-203.65 517.97,-193.12 510.44,-200.58 516.73,-203.65"/>
</g>
<!-- Node34 -->
<g id="node34" class="node">
<title>Node34</title>
<g id="a_node34"><a xlink:href="MemAlloc_8h.html" target="_top" xlink:title="This file defines counterparts of C library allocation functions defined in the namespace &#39;std&#39;.">
<polygon fill="none" stroke="black" points="958,-174 958,-193 1098,-193 1098,-174 958,-174"/>
<text text-anchor="middle" x="1028" y="-181" font-family="Helvetica,sans-Serif" font-size="10.00">llvm/Support/MemAlloc.h</text>
</a>
</g>
</g>
<!-- Node3&#45;&gt;Node34 -->
<g id="edge49" class="edge">
<title>Node3&#45;&gt;Node34</title>
<path fill="none" stroke="midnightblue" d="M944.76,-291.32C959.62,-272.26 995.31,-226.45 1014.79,-201.46"/>
<polygon fill="midnightblue" stroke="midnightblue" points="1017.77,-203.32 1021.16,-193.28 1012.25,-199.02 1017.77,-203.32"/>
</g>
<!-- Node36 -->
<g id="node36" class="node">
<title>Node36</title>
<g id="a_node36"><a xlink:href="ReverseIteration_8h.html" target="_top" xlink:title=" ">
<polygon fill="none" stroke="black" points="578,-235.5 578,-254.5 750,-254.5 750,-235.5 578,-235.5"/>
<text text-anchor="middle" x="664" y="-242.5" font-family="Helvetica,sans-Serif" font-size="10.00">llvm/Support/ReverseIteration.h</text>
</a>
</g>
</g>
<!-- Node3&#45;&gt;Node36 -->
<g id="edge53" class="edge">
<title>Node3&#45;&gt;Node36</title>
<path fill="none" stroke="midnightblue" d="M894.58,-291.44C846.48,-281.96 768.91,-266.67 717.19,-256.48"/>
<polygon fill="midnightblue" stroke="midnightblue" points="717.7,-253.02 707.21,-254.52 716.35,-259.88 717.7,-253.02"/>
</g>
<!-- Node3&#45;&gt;Node38 -->
<g id="edge64" class="edge">
<title>Node3&#45;&gt;Node38</title>
<path fill="none" stroke="midnightblue" d="M1000.81,-298.46C1131.99,-294.76 1444.45,-283.51 1705,-255 1706.47,-254.84 1707.96,-254.67 1709.46,-254.48"/>
<polygon fill="midnightblue" stroke="midnightblue" points="1710.02,-257.94 1719.47,-253.15 1709.1,-251 1710.02,-257.94"/>
</g>
<!-- Node3&#45;&gt;Node39 -->
<g id="edge65" class="edge">
<title>Node3&#45;&gt;Node39</title>
<path fill="none" stroke="midnightblue" d="M1000.62,-298.41C1170.19,-293.83 1636.63,-279.5 1810.33,-254.92"/>
<polygon fill="midnightblue" stroke="midnightblue" points="1810.98,-258.36 1820.36,-253.44 1809.96,-251.44 1810.98,-258.36"/>
</g>
<!-- Node40 -->
<g id="node40" class="node">
<title>Node40</title>
<g id="a_node40"><a xlink:title=" ">
<polygon fill="none" stroke="#bfbfbf" points="522.5,-235.5 522.5,-254.5 559.5,-254.5 559.5,-235.5 522.5,-235.5"/>
<text text-anchor="middle" x="541" y="-242.5" font-family="Helvetica,sans-Serif" font-size="10.00">new</text>
</a>
</g>
</g>
<!-- Node3&#45;&gt;Node40 -->
<g id="edge66" class="edge">
<title>Node3&#45;&gt;Node40</title>
<path fill="none" stroke="midnightblue" d="M875.37,-296C803.56,-290.6 682.32,-279.01 569.39,-254.66"/>
<polygon fill="midnightblue" stroke="midnightblue" points="570.06,-251.23 559.54,-252.5 568.56,-258.06 570.06,-251.23"/>
</g>
<!-- Node5 -->
<g id="node5" class="node">
<title>Node5</title>
<g id="a_node5"><a xlink:href="Hashing_8h.html" target="_top" xlink:title=" ">
<polygon fill="none" stroke="black" points="1316.5,-174 1316.5,-193 1429.5,-193 1429.5,-174 1316.5,-174"/>
<text text-anchor="middle" x="1373" y="-181" font-family="Helvetica,sans-Serif" font-size="10.00">llvm/ADT/Hashing.h</text>
</a>
</g>
</g>
<!-- Node4&#45;&gt;Node5 -->
<g id="edge4" class="edge">
<title>Node4&#45;&gt;Node5</title>
<path fill="none" stroke="midnightblue" d="M1373,-235.48C1373,-227.08 1373,-213.98 1373,-203.16"/>
<polygon fill="midnightblue" stroke="midnightblue" points="1376.5,-203.01 1373,-193.01 1369.5,-203.01 1376.5,-203.01"/>
</g>
<!-- Node4&#45;&gt;Node17 -->
<g id="edge31" class="edge">
<title>Node4&#45;&gt;Node17</title>
<path fill="none" stroke="midnightblue" d="M1445.16,-240.4C1497.73,-235.64 1569.64,-224.59 1628,-199 1693.82,-170.14 1757.34,-111.29 1785.64,-82.95"/>
<polygon fill="midnightblue" stroke="midnightblue" points="1788.44,-85.09 1792.96,-75.51 1783.45,-80.18 1788.44,-85.09"/>
</g>
<!-- Node4&#45;&gt;Node18 -->
<g id="edge32" class="edge">
<title>Node4&#45;&gt;Node18</title>
<path fill="none" stroke="midnightblue" d="M1300.6,-242.29C1066.68,-236.58 343.56,-217.51 297,-199 292.92,-197.38 201.71,-117.08 162.58,-82.53"/>
<polygon fill="midnightblue" stroke="midnightblue" points="164.46,-79.53 154.65,-75.53 159.83,-84.78 164.46,-79.53"/>
</g>
<!-- Node4&#45;&gt;Node22 -->
<g id="edge33" class="edge">
<title>Node4&#45;&gt;Node22</title>
<path fill="none" stroke="midnightblue" d="M1445.12,-236.72C1515.88,-225.81 1622.19,-198.75 1686,-132 1697.84,-119.61 1702.69,-100.37 1704.66,-86.03"/>
<polygon fill="midnightblue" stroke="midnightblue" points="1708.17,-86.11 1705.71,-75.81 1701.21,-85.4 1708.17,-86.11"/>
</g>
<!-- Node4&#45;&gt;Node24 -->
<g id="edge30" class="edge">
<title>Node4&#45;&gt;Node24</title>
<path fill="none" stroke="midnightblue" d="M1301,-239.02C1216.35,-232.55 1071.83,-219.58 949,-199 842.53,-181.16 718.93,-149.2 659.12,-133"/>
<polygon fill="midnightblue" stroke="midnightblue" points="659.96,-129.6 649.39,-130.35 658.12,-136.35 659.96,-129.6"/>
</g>
<!-- Node6 -->
<g id="node6" class="node">
<title>Node6</title>
<g id="a_node6"><a xlink:href="llvm_2Support_2DataTypes_8h.html" target="_top" xlink:title=" ">
<polygon fill="none" stroke="black" points="1040,-112.5 1040,-131.5 1182,-131.5 1182,-112.5 1040,-112.5"/>
<text text-anchor="middle" x="1111" y="-119.5" font-family="Helvetica,sans-Serif" font-size="10.00">llvm/Support/DataTypes.h</text>
</a>
</g>
</g>
<!-- Node5&#45;&gt;Node6 -->
<g id="edge5" class="edge">
<title>Node5&#45;&gt;Node6</title>
<path fill="none" stroke="midnightblue" d="M1335.46,-173.98C1288.77,-163.37 1209.02,-145.26 1158.22,-133.72"/>
<polygon fill="midnightblue" stroke="midnightblue" points="1159,-130.31 1148.47,-131.51 1157.45,-137.14 1159,-130.31"/>
</g>
<!-- Node11 -->
<g id="node11" class="node">
<title>Node11</title>
<g id="a_node11"><a xlink:href="llvm_2Support_2ErrorHandling_8h.html" target="_top" xlink:title=" ">
<polygon fill="none" stroke="black" points="1384,-112.5 1384,-131.5 1542,-131.5 1542,-112.5 1384,-112.5"/>
<text text-anchor="middle" x="1463" y="-119.5" font-family="Helvetica,sans-Serif" font-size="10.00">llvm/Support/ErrorHandling.h</text>
</a>
</g>
</g>
<!-- Node5&#45;&gt;Node11 -->
<g id="edge10" class="edge">
<title>Node5&#45;&gt;Node11</title>
<path fill="none" stroke="midnightblue" d="M1385.89,-173.98C1400.46,-164.34 1424.4,-148.52 1441.75,-137.05"/>
<polygon fill="midnightblue" stroke="midnightblue" points="1443.72,-139.94 1450.13,-131.51 1439.86,-134.1 1443.72,-139.94"/>
</g>
<!-- Node15 -->
<g id="node15" class="node">
<title>Node15</title>
<g id="a_node15"><a xlink:title=" ">
<polygon fill="none" stroke="#bfbfbf" points="1494,-56.5 1494,-75.5 1538,-75.5 1538,-56.5 1494,-56.5"/>
<text text-anchor="middle" x="1516" y="-63.5" font-family="Helvetica,sans-Serif" font-size="10.00">string</text>
</a>
</g>
</g>
<!-- Node5&#45;&gt;Node15 -->
<g id="edge27" class="edge">
<title>Node5&#45;&gt;Node15</title>
<path fill="none" stroke="midnightblue" d="M1429.52,-173.99C1475.89,-165.72 1536.23,-151.54 1551,-132 1562.74,-116.47 1548.23,-96.49 1534.49,-82.81"/>
<polygon fill="midnightblue" stroke="midnightblue" points="1536.8,-80.18 1527.1,-75.92 1532.03,-85.3 1536.8,-80.18"/>
</g>
<!-- Node16 -->
<g id="node16" class="node">
<title>Node16</title>
<g id="a_node16"><a xlink:href="SwapByteOrder_8h.html" target="_top" xlink:title=" ">
<polygon fill="none" stroke="black" points="1200,-112.5 1200,-131.5 1366,-131.5 1366,-112.5 1200,-112.5"/>
<text text-anchor="middle" x="1283" y="-119.5" font-family="Helvetica,sans-Serif" font-size="10.00">llvm/Support/SwapByteOrder.h</text>
</a>
</g>
</g>
<!-- Node5&#45;&gt;Node16 -->
<g id="edge15" class="edge">
<title>Node5&#45;&gt;Node16</title>
<path fill="none" stroke="midnightblue" d="M1360.11,-173.98C1345.54,-164.34 1321.6,-148.52 1304.25,-137.05"/>
<polygon fill="midnightblue" stroke="midnightblue" points="1306.14,-134.1 1295.87,-131.51 1302.28,-139.94 1306.14,-134.1"/>
</g>
<!-- Node5&#45;&gt;Node21 -->
<g id="edge20" class="edge">
<title>Node5&#45;&gt;Node21</title>
<path fill="none" stroke="midnightblue" d="M1316.49,-176.79C1227.71,-167.77 1049.88,-149.58 888.63,-132.17"/>
<polygon fill="midnightblue" stroke="midnightblue" points="888.84,-128.67 878.53,-131.08 888.09,-135.63 888.84,-128.67"/>
</g>
<!-- Node5&#45;&gt;Node22 -->
<g id="edge29" class="edge">
<title>Node5&#45;&gt;Node22</title>
<path fill="none" stroke="midnightblue" d="M1415.15,-173.97C1455.11,-165.33 1516.53,-150.6 1568,-132 1608.82,-117.25 1653.92,-94.75 1681.11,-80.46"/>
<polygon fill="midnightblue" stroke="midnightblue" points="1683.07,-83.38 1690.27,-75.6 1679.79,-77.2 1683.07,-83.38"/>
</g>
<!-- Node5&#45;&gt;Node23 -->
<g id="edge24" class="edge">
<title>Node5&#45;&gt;Node23</title>
<path fill="none" stroke="midnightblue" d="M1429.68,-175.85C1532.44,-163.79 1747.24,-138.58 1838.04,-127.92"/>
<polygon fill="midnightblue" stroke="midnightblue" points="1838.45,-131.4 1847.97,-126.76 1837.63,-124.45 1838.45,-131.4"/>
</g>
<!-- Node5&#45;&gt;Node24 -->
<g id="edge25" class="edge">
<title>Node5&#45;&gt;Node24</title>
<path fill="none" stroke="midnightblue" d="M1316.32,-179.09C1164.81,-169.9 755.89,-144.53 659.44,-131.79"/>
<polygon fill="midnightblue" stroke="midnightblue" points="659.67,-128.28 649.27,-130.3 658.65,-135.21 659.67,-128.28"/>
</g>
<!-- Node5&#45;&gt;Node25 -->
<g id="edge26" class="edge">
<title>Node5&#45;&gt;Node25</title>
<path fill="none" stroke="midnightblue" d="M1316.29,-179.39C1183.94,-171.94 856.75,-152.26 727.22,-131.86"/>
<polygon fill="midnightblue" stroke="midnightblue" points="727.58,-128.37 717.14,-130.2 726.44,-135.27 727.58,-128.37"/>
</g>
<!-- Node26 -->
<g id="node26" class="node">
<title>Node26</title>
<g id="a_node26"><a xlink:title=" ">
<polygon fill="none" stroke="#bfbfbf" points="1636.5,-112.5 1636.5,-131.5 1677.5,-131.5 1677.5,-112.5 1636.5,-112.5"/>
<text text-anchor="middle" x="1657" y="-119.5" font-family="Helvetica,sans-Serif" font-size="10.00">tuple</text>
</a>
</g>
</g>
<!-- Node5&#45;&gt;Node26 -->
<g id="edge28" class="edge">
<title>Node5&#45;&gt;Node26</title>
<path fill="none" stroke="midnightblue" d="M1418.59,-173.99C1468.64,-164.47 1551.28,-148.25 1622,-132 1623.45,-131.67 1624.94,-131.32 1626.43,-130.96"/>
<polygon fill="midnightblue" stroke="midnightblue" points="1627.45,-134.31 1636.32,-128.51 1625.77,-127.52 1627.45,-134.31"/>
</g>
<!-- Node7 -->
<g id="node7" class="node">
<title>Node7</title>
<g id="a_node7"><a xlink:href="llvm-c_2DataTypes_8h.html" target="_top" xlink:title=" ">
<polygon fill="none" stroke="black" points="1064,-56.5 1064,-75.5 1174,-75.5 1174,-56.5 1064,-56.5"/>
<text text-anchor="middle" x="1119" y="-63.5" font-family="Helvetica,sans-Serif" font-size="10.00">llvm&#45;c/DataTypes.h</text>
</a>
</g>
</g>
<!-- Node6&#45;&gt;Node7 -->
<g id="edge6" class="edge">
<title>Node6&#45;&gt;Node7</title>
<path fill="none" stroke="midnightblue" d="M1112.32,-112.08C1113.38,-104.93 1114.91,-94.64 1116.23,-85.69"/>
<polygon fill="midnightblue" stroke="midnightblue" points="1119.7,-86.16 1117.7,-75.75 1112.78,-85.13 1119.7,-86.16"/>
</g>
<!-- Node8 -->
<g id="node8" class="node">
<title>Node8</title>
<g id="a_node8"><a xlink:title=" ">
<polygon fill="none" stroke="#bfbfbf" points="1177.5,-0.5 1177.5,-19.5 1242.5,-19.5 1242.5,-0.5 1177.5,-0.5"/>
<text text-anchor="middle" x="1210" y="-7.5" font-family="Helvetica,sans-Serif" font-size="10.00">inttypes.h</text>
</a>
</g>
</g>
<!-- Node7&#45;&gt;Node8 -->
<g id="edge7" class="edge">
<title>Node7&#45;&gt;Node8</title>
<path fill="none" stroke="midnightblue" d="M1133.62,-56.32C1147.95,-47.82 1170.01,-34.73 1186.75,-24.8"/>
<polygon fill="midnightblue" stroke="midnightblue" points="1188.6,-27.77 1195.42,-19.65 1185.03,-21.75 1188.6,-27.77"/>
</g>
<!-- Node9 -->
<g id="node9" class="node">
<title>Node9</title>
<g id="a_node9"><a xlink:title=" ">
<polygon fill="none" stroke="#bfbfbf" points="1015.5,-0.5 1015.5,-19.5 1068.5,-19.5 1068.5,-0.5 1015.5,-0.5"/>
<text text-anchor="middle" x="1042" y="-7.5" font-family="Helvetica,sans-Serif" font-size="10.00">stdint.h</text>
</a>
</g>
</g>
<!-- Node7&#45;&gt;Node9 -->
<g id="edge8" class="edge">
<title>Node7&#45;&gt;Node9</title>
<path fill="none" stroke="midnightblue" d="M1106.63,-56.32C1094.84,-48.06 1076.87,-35.45 1062.86,-25.63"/>
<polygon fill="midnightblue" stroke="midnightblue" points="1064.54,-22.53 1054.34,-19.65 1060.52,-28.26 1064.54,-22.53"/>
</g>
<!-- Node10 -->
<g id="node10" class="node">
<title>Node10</title>
<g id="a_node10"><a xlink:title=" ">
<polygon fill="none" stroke="#bfbfbf" points="1087,-0.5 1087,-19.5 1159,-19.5 1159,-0.5 1087,-0.5"/>
<text text-anchor="middle" x="1123" y="-7.5" font-family="Helvetica,sans-Serif" font-size="10.00">sys/types.h</text>
</a>
</g>
</g>
<!-- Node7&#45;&gt;Node10 -->
<g id="edge9" class="edge">
<title>Node7&#45;&gt;Node10</title>
<path fill="none" stroke="midnightblue" d="M1119.66,-56.08C1120.18,-49.01 1120.94,-38.86 1121.59,-29.99"/>
<polygon fill="midnightblue" stroke="midnightblue" points="1125.1,-29.98 1122.35,-19.75 1118.12,-29.47 1125.1,-29.98"/>
</g>
<!-- Node11&#45;&gt;Node12 -->
<g id="edge11" class="edge">
<title>Node11&#45;&gt;Node12</title>
<path fill="none" stroke="midnightblue" d="M1385,-112.47C1292.36,-102.35 1138.79,-85.56 1046.41,-75.46"/>
<polygon fill="midnightblue" stroke="midnightblue" points="1046.61,-71.96 1036.28,-74.35 1045.84,-78.92 1046.61,-71.96"/>
</g>
<!-- Node11&#45;&gt;Node15 -->
<g id="edge14" class="edge">
<title>Node11&#45;&gt;Node15</title>
<path fill="none" stroke="midnightblue" d="M1471.75,-112.08C1479.47,-104.22 1490.9,-92.57 1500.22,-83.08"/>
<polygon fill="midnightblue" stroke="midnightblue" points="1502.9,-85.34 1507.41,-75.75 1497.91,-80.44 1502.9,-85.34"/>
</g>
<!-- Node13 -->
<g id="node13" class="node">
<title>Node13</title>
<g id="a_node13"><a xlink:title=" ">
<polygon fill="none" stroke="#bfbfbf" points="783.5,-0.5 783.5,-19.5 922.5,-19.5 922.5,-0.5 783.5,-0.5"/>
<text text-anchor="middle" x="853" y="-7.5" font-family="Helvetica,sans-Serif" font-size="10.00">llvm/Config/llvm&#45;config.h</text>
</a>
</g>
</g>
<!-- Node12&#45;&gt;Node13 -->
<g id="edge12" class="edge">
<title>Node12&#45;&gt;Node13</title>
<path fill="none" stroke="midnightblue" d="M950.62,-56.44C931.78,-47.68 902.27,-33.94 880.62,-23.86"/>
<polygon fill="midnightblue" stroke="midnightblue" points="881.84,-20.56 871.29,-19.52 878.88,-26.91 881.84,-20.56"/>
</g>
<!-- Node14 -->
<g id="node14" class="node">
<title>Node14</title>
<g id="a_node14"><a xlink:title=" ">
<polygon fill="none" stroke="#bfbfbf" points="941,-0.5 941,-19.5 997,-19.5 997,-0.5 941,-0.5"/>
<text text-anchor="middle" x="969" y="-7.5" font-family="Helvetica,sans-Serif" font-size="10.00">stddef.h</text>
</a>
</g>
</g>
<!-- Node12&#45;&gt;Node14 -->
<g id="edge13" class="edge">
<title>Node12&#45;&gt;Node14</title>
<path fill="none" stroke="midnightblue" d="M969,-56.08C969,-49.01 969,-38.86 969,-29.99"/>
<polygon fill="midnightblue" stroke="midnightblue" points="972.5,-29.75 969,-19.75 965.5,-29.75 972.5,-29.75"/>
</g>
<!-- Node16&#45;&gt;Node17 -->
<g id="edge16" class="edge">
<title>Node16&#45;&gt;Node17</title>
<path fill="none" stroke="midnightblue" d="M1366.24,-112.84C1492.29,-100.47 1718.91,-78.17 1737,-76 1745.81,-74.94 1755.28,-73.68 1764.17,-72.44"/>
<polygon fill="midnightblue" stroke="midnightblue" points="1764.84,-75.88 1774.25,-71.01 1763.86,-68.95 1764.84,-75.88"/>
</g>
<!-- Node16&#45;&gt;Node18 -->
<g id="edge17" class="edge">
<title>Node16&#45;&gt;Node18</title>
<path fill="none" stroke="midnightblue" d="M1199.77,-112.65C1196.81,-112.42 1193.88,-112.2 1191,-112 987.83,-97.7 338.8,-73.95 180.21,-68.26"/>
<polygon fill="midnightblue" stroke="midnightblue" points="180.19,-64.75 170.07,-67.89 179.94,-71.75 180.19,-64.75"/>
</g>
<!-- Node16&#45;&gt;Node19 -->
<g id="edge18" class="edge">
<title>Node16&#45;&gt;Node19</title>
<path fill="none" stroke="midnightblue" d="M1199.77,-112.73C1196.81,-112.48 1193.88,-112.23 1191,-112 946.53,-92.11 652.97,-75.41 542.73,-69.4"/>
<polygon fill="midnightblue" stroke="midnightblue" points="542.82,-65.9 532.64,-68.85 542.44,-72.89 542.82,-65.9"/>
</g>
<!-- Node20 -->
<g id="node20" class="node">
<title>Node20</title>
<g id="a_node20"><a xlink:title=" ">
<polygon fill="none" stroke="#bfbfbf" points="1231,-56.5 1231,-75.5 1335,-75.5 1335,-56.5 1231,-56.5"/>
<text text-anchor="middle" x="1283" y="-63.5" font-family="Helvetica,sans-Serif" font-size="10.00">machine/endian.h</text>
</a>
</g>
</g>
<!-- Node16&#45;&gt;Node20 -->
<g id="edge19" class="edge">
<title>Node16&#45;&gt;Node20</title>
<path fill="none" stroke="midnightblue" d="M1283,-112.08C1283,-105.01 1283,-94.86 1283,-85.99"/>
<polygon fill="midnightblue" stroke="midnightblue" points="1286.5,-85.75 1283,-75.75 1279.5,-85.75 1286.5,-85.75"/>
</g>
<!-- Node21&#45;&gt;Node12 -->
<g id="edge21" class="edge">
<title>Node21&#45;&gt;Node12</title>
<path fill="none" stroke="midnightblue" d="M832.67,-112.44C859.92,-103.36 903.18,-88.94 933.65,-78.78"/>
<polygon fill="midnightblue" stroke="midnightblue" points="935.07,-82 943.45,-75.52 932.86,-75.36 935.07,-82"/>
</g>
<!-- Node21&#45;&gt;Node19 -->
<g id="edge22" class="edge">
<title>Node21&#45;&gt;Node19</title>
<path fill="none" stroke="midnightblue" d="M758.04,-112.44C698.92,-102.11 600.32,-84.88 543.03,-74.87"/>
<polygon fill="midnightblue" stroke="midnightblue" points="543.28,-71.36 532.83,-73.09 542.08,-78.26 543.28,-71.36"/>
</g>
<!-- Node21&#45;&gt;Node22 -->
<g id="edge23" class="edge">
<title>Node21&#45;&gt;Node22</title>
<path fill="none" stroke="midnightblue" d="M878.51,-112.75C881.38,-112.48 884.21,-112.23 887,-112 1179.75,-87.57 1253.68,-92.3 1547,-76 1590.65,-73.57 1641.04,-70.71 1673.19,-68.88"/>
<polygon fill="midnightblue" stroke="midnightblue" points="1673.57,-72.36 1683.36,-68.3 1673.17,-65.37 1673.57,-72.36"/>
</g>
<!-- Node27&#45;&gt;Node18 -->
<g id="edge36" class="edge">
<title>Node27&#45;&gt;Node18</title>
<path fill="none" stroke="midnightblue" d="M145.19,-235.38C127.05,-228.66 105.84,-217.31 95,-199 72.12,-160.35 107.63,-109.38 129.65,-83.55"/>
<polygon fill="midnightblue" stroke="midnightblue" points="132.5,-85.61 136.5,-75.8 127.25,-80.98 132.5,-85.61"/>
</g>
<!-- Node28 -->
<g id="node28" class="node">
<title>Node28</title>
<g id="a_node28"><a xlink:title=" ">
<polygon fill="none" stroke="#bfbfbf" points="104,-174 104,-193 250,-193 250,-174 104,-174"/>
<text text-anchor="middle" x="177" y="-181" font-family="Helvetica,sans-Serif" font-size="10.00">llvm/Config/abi&#45;breaking.h</text>
</a>
</g>
</g>
<!-- Node27&#45;&gt;Node28 -->
<g id="edge35" class="edge">
<title>Node27&#45;&gt;Node28</title>
<path fill="none" stroke="midnightblue" d="M177,-235.48C177,-227.08 177,-213.98 177,-203.16"/>
<polygon fill="midnightblue" stroke="midnightblue" points="180.5,-203.01 177,-193.01 173.5,-203.01 180.5,-203.01"/>
</g>
<!-- Node29&#45;&gt;Node19 -->
<g id="edge38" class="edge">
<title>Node29&#45;&gt;Node19</title>
<path fill="none" stroke="midnightblue" d="M340.79,-173.93C306.53,-162.09 255.89,-139.1 278,-112 299.68,-85.43 395.47,-74.13 453.27,-69.66"/>
<polygon fill="midnightblue" stroke="midnightblue" points="453.53,-73.15 463.24,-68.92 453.01,-66.16 453.53,-73.15"/>
</g>
<!-- Node30&#45;&gt;Node12 -->
<g id="edge41" class="edge">
<title>Node30&#45;&gt;Node12</title>
<path fill="none" stroke="midnightblue" d="M528.12,-173.72C537.67,-158.25 559.82,-126.38 588,-112 639.45,-85.75 796.05,-74.41 891.72,-69.83"/>
<polygon fill="midnightblue" stroke="midnightblue" points="892.1,-73.32 901.92,-69.36 891.77,-66.33 892.1,-73.32"/>
</g>
<!-- Node30&#45;&gt;Node18 -->
<g id="edge45" class="edge">
<title>Node30&#45;&gt;Node18</title>
<path fill="none" stroke="midnightblue" d="M474.44,-173.99C413.8,-163.09 313.71,-144.19 278,-132 237.92,-118.32 194.34,-95.32 168.37,-80.67"/>
<polygon fill="midnightblue" stroke="midnightblue" points="170.05,-77.6 159.63,-75.68 166.58,-83.68 170.05,-77.6"/>
</g>
<!-- Node30&#45;&gt;Node19 -->
<g id="edge48" class="edge">
<title>Node30&#45;&gt;Node19</title>
<path fill="none" stroke="midnightblue" d="M498.71,-173.92C480.58,-166.07 457.09,-152.54 446,-132 435.61,-112.77 455.65,-93.57 473.79,-81.08"/>
<polygon fill="midnightblue" stroke="midnightblue" points="475.9,-83.89 482.4,-75.52 472.1,-78.01 475.9,-83.89"/>
</g>
<!-- Node30&#45;&gt;Node24 -->
<g id="edge42" class="edge">
<title>Node30&#45;&gt;Node24</title>
<path fill="none" stroke="midnightblue" d="M537.33,-173.98C553.66,-164.25 580.6,-148.23 599.91,-136.74"/>
<polygon fill="midnightblue" stroke="midnightblue" points="601.89,-139.63 608.7,-131.51 598.32,-133.61 601.89,-139.63"/>
</g>
<!-- Node30&#45;&gt;Node25 -->
<g id="edge46" class="edge">
<title>Node30&#45;&gt;Node25</title>
<path fill="none" stroke="midnightblue" d="M547.21,-173.98C576.33,-163.72 625.37,-146.46 658.2,-134.9"/>
<polygon fill="midnightblue" stroke="midnightblue" points="659.56,-138.13 667.83,-131.51 657.24,-131.53 659.56,-138.13"/>
</g>
<!-- Node31 -->
<g id="node31" class="node">
<title>Node31</title>
<g id="a_node31"><a xlink:title=" ">
<polygon fill="none" stroke="#bfbfbf" points="349,-112.5 349,-131.5 399,-131.5 399,-112.5 349,-112.5"/>
<text text-anchor="middle" x="374" y="-119.5" font-family="Helvetica,sans-Serif" font-size="10.00">climits</text>
</a>
</g>
</g>
<!-- Node30&#45;&gt;Node31 -->
<g id="edge43" class="edge">
<title>Node30&#45;&gt;Node31</title>
<path fill="none" stroke="midnightblue" d="M501.65,-173.98C476.31,-163.86 433.86,-146.9 404.93,-135.35"/>
<polygon fill="midnightblue" stroke="midnightblue" points="405.89,-131.97 395.31,-131.51 403.3,-138.47 405.89,-131.97"/>
</g>
<!-- Node32 -->
<g id="node32" class="node">
<title>Node32</title>
<g id="a_node32"><a xlink:title=" ">
<polygon fill="none" stroke="#bfbfbf" points="455.5,-112.5 455.5,-131.5 502.5,-131.5 502.5,-112.5 455.5,-112.5"/>
<text text-anchor="middle" x="479" y="-119.5" font-family="Helvetica,sans-Serif" font-size="10.00">cmath</text>
</a>
</g>
</g>
<!-- Node30&#45;&gt;Node32 -->
<g id="edge44" class="edge">
<title>Node30&#45;&gt;Node32</title>
<path fill="none" stroke="midnightblue" d="M516.7,-173.98C510.1,-165.05 499.56,-150.81 491.31,-139.64"/>
<polygon fill="midnightblue" stroke="midnightblue" points="494.05,-137.47 485.29,-131.51 488.42,-141.63 494.05,-137.47"/>
</g>
<!-- Node33 -->
<g id="node33" class="node">
<title>Node33</title>
<g id="a_node33"><a xlink:title=" ">
<polygon fill="none" stroke="#bfbfbf" points="287,-112.5 287,-131.5 331,-131.5 331,-112.5 287,-112.5"/>
<text text-anchor="middle" x="309" y="-119.5" font-family="Helvetica,sans-Serif" font-size="10.00">limits</text>
</a>
</g>
</g>
<!-- Node30&#45;&gt;Node33 -->
<g id="edge47" class="edge">
<title>Node30&#45;&gt;Node33</title>
<path fill="none" stroke="midnightblue" d="M491.55,-173.96C456.99,-164.54 399.58,-148.81 340.83,-132.21"/>
<polygon fill="midnightblue" stroke="midnightblue" points="341.58,-128.78 331.01,-129.43 339.67,-135.52 341.58,-128.78"/>
</g>
<!-- Node34&#45;&gt;Node11 -->
<g id="edge51" class="edge">
<title>Node34&#45;&gt;Node11</title>
<path fill="none" stroke="midnightblue" d="M1090.32,-173.98C1169.79,-163.11 1306.91,-144.35 1390.83,-132.87"/>
<polygon fill="midnightblue" stroke="midnightblue" points="1391.36,-136.33 1400.79,-131.51 1390.41,-129.4 1391.36,-136.33"/>
</g>
<!-- Node34&#45;&gt;Node12 -->
<g id="edge50" class="edge">
<title>Node34&#45;&gt;Node12</title>
<path fill="none" stroke="midnightblue" d="M1022.37,-173.74C1016.09,-163.8 1005.78,-147.03 998,-132 989.93,-116.42 981.89,-98.12 976.33,-84.91"/>
<polygon fill="midnightblue" stroke="midnightblue" points="979.51,-83.46 972.45,-75.56 973.05,-86.14 979.51,-83.46"/>
</g>
<!-- Node35 -->
<g id="node35" class="node">
<title>Node35</title>
<g id="a_node35"><a xlink:title=" ">
<polygon fill="none" stroke="#bfbfbf" points="896.5,-112.5 896.5,-131.5 945.5,-131.5 945.5,-112.5 896.5,-112.5"/>
<text text-anchor="middle" x="921" y="-119.5" font-family="Helvetica,sans-Serif" font-size="10.00">cstdlib</text>
</a>
</g>
</g>
<!-- Node34&#45;&gt;Node35 -->
<g id="edge52" class="edge">
<title>Node34&#45;&gt;Node35</title>
<path fill="none" stroke="midnightblue" d="M1012.67,-173.98C995.03,-164.17 965.84,-147.93 945.14,-136.42"/>
<polygon fill="midnightblue" stroke="midnightblue" points="946.74,-133.31 936.3,-131.51 943.34,-139.43 946.74,-133.31"/>
</g>
<!-- Node36&#45;&gt;Node28 -->
<g id="edge54" class="edge">
<title>Node36&#45;&gt;Node28</title>
<path fill="none" stroke="midnightblue" d="M577.61,-235.62C496.49,-227.43 371.8,-214.04 264,-199 254.66,-197.7 244.77,-196.18 235.15,-194.63"/>
<polygon fill="midnightblue" stroke="midnightblue" points="235.68,-191.17 225.25,-193.01 234.55,-198.08 235.68,-191.17"/>
</g>
<!-- Node37 -->
<g id="node37" class="node">
<title>Node37</title>
<g id="a_node37"><a xlink:href="PointerLikeTypeTraits_8h.html" target="_top" xlink:title=" ">
<polygon fill="none" stroke="black" points="614,-168.5 614,-198.5 750,-198.5 750,-168.5 614,-168.5"/>
<text text-anchor="start" x="622" y="-186.5" font-family="Helvetica,sans-Serif" font-size="10.00">llvm/Support/PointerLike</text>
<text text-anchor="middle" x="682" y="-175.5" font-family="Helvetica,sans-Serif" font-size="10.00">TypeTraits.h</text>
</a>
</g>
</g>
<!-- Node36&#45;&gt;Node37 -->
<g id="edge55" class="edge">
<title>Node36&#45;&gt;Node37</title>
<path fill="none" stroke="midnightblue" d="M666.58,-235.48C668.72,-228.4 671.87,-217.97 674.77,-208.39"/>
<polygon fill="midnightblue" stroke="midnightblue" points="678.21,-209.11 677.76,-198.52 671.51,-207.08 678.21,-209.11"/>
</g>
<!-- Node37&#45;&gt;Node6 -->
<g id="edge56" class="edge">
<title>Node37&#45;&gt;Node6</title>
<path fill="none" stroke="midnightblue" d="M750.45,-173.01C829.51,-162.04 958.98,-144.08 1039.36,-132.94"/>
<polygon fill="midnightblue" stroke="midnightblue" points="1039.98,-136.38 1049.4,-131.54 1039.02,-129.45 1039.98,-136.38"/>
</g>
<!-- Node37&#45;&gt;Node19 -->
<g id="edge58" class="edge">
<title>Node37&#45;&gt;Node19</title>
<path fill="none" stroke="midnightblue" d="M653.48,-168.43C634.55,-158.78 609.36,-145.37 588,-132 562.59,-116.09 534.83,-95.52 516.96,-81.82"/>
<polygon fill="midnightblue" stroke="midnightblue" points="519.09,-79.04 509.03,-75.7 514.81,-84.58 519.09,-79.04"/>
</g>
<!-- Node37&#45;&gt;Node24 -->
<g id="edge57" class="edge">
<title>Node37&#45;&gt;Node24</title>
<path fill="none" stroke="midnightblue" d="M668.02,-168.4C659.27,-159.58 647.97,-148.18 638.88,-139.02"/>
<polygon fill="midnightblue" stroke="midnightblue" points="641.11,-136.29 631.59,-131.66 636.14,-141.22 641.11,-136.29"/>
</g>
</g>
</svg>
