<?xml version="1.0" encoding="UTF-8" standalone="no"?>
<!DOCTYPE svg PUBLIC "-//W3C//DTD SVG 1.1//EN"
 "http://www.w3.org/Graphics/SVG/1.1/DTD/svg11.dtd">
<!-- Generated by graphviz version 2.42.4 (0)
 -->
<!-- Title: include/llvm/Remarks Pages: 1 -->
<svg width="226pt" height="295pt"
 viewBox="0.00 0.00 225.78 295.00" xmlns="http://www.w3.org/2000/svg" xmlns:xlink="http://www.w3.org/1999/xlink">
<g id="graph0" class="graph" transform="scale(1 1) rotate(0) translate(4 291)">
<title>include/llvm/Remarks</title>
<g id="clust1" class="cluster">
<title>clusterdir_dcde91663b8816e1e2311938ccd8f690</title>
<g id="a_clust1"><a xlink:href="dir_dcde91663b8816e1e2311938ccd8f690.html" target="_top" xlink:title="llvm">
<polygon fill="#ddddee" stroke="black" points="73.78,-208 73.78,-279 149.78,-279 149.78,-208 73.78,-208"/>
<text text-anchor="middle" x="111.78" y="-267" font-family="Helvetica,sans-Serif" font-size="10.00">llvm</text>
</a>
</g>
</g>
<!-- dir_e0c199ff072a743662e28b1da00c9be8 -->
<g id="node1" class="node">
<title>dir_e0c199ff072a743662e28b1da00c9be8</title>
<g id="a_node1"><a xlink:href="dir_e0c199ff072a743662e28b1da00c9be8.html" target="_top" xlink:title="Remarks">
<polygon fill="#eeeeff" stroke="black" points="141.78,-252 81.78,-252 81.78,-216 141.78,-216 141.78,-252"/>
<text text-anchor="middle" x="111.78" y="-231.5" font-family="Helvetica,sans-Serif" font-size="10.00">Remarks</text>
</a>
</g>
</g>
<!-- dir_39fdac6f56e5eca4ceec559a44836796 -->
<g id="node2" class="node">
<title>dir_39fdac6f56e5eca4ceec559a44836796</title>
<g id="a_node2"><a xlink:href="dir_39fdac6f56e5eca4ceec559a44836796.html" target="_top" xlink:title="Bitstream">
<polygon fill="none" stroke="black" points="83.28,-180 18.28,-180 18.28,-144 83.28,-144 83.28,-180"/>
<text text-anchor="middle" x="50.78" y="-159.5" font-family="Helvetica,sans-Serif" font-size="10.00">Bitstream</text>
</a>
</g>
</g>
<!-- dir_e0c199ff072a743662e28b1da00c9be8&#45;&gt;dir_39fdac6f56e5eca4ceec559a44836796 -->
<g id="edge9" class="edge">
<title>dir_e0c199ff072a743662e28b1da00c9be8&#45;&gt;dir_39fdac6f56e5eca4ceec559a44836796</title>
<path fill="none" stroke="black" d="M96.7,-215.7C89.39,-207.3 80.47,-197.07 72.45,-187.86"/>
<polygon fill="black" stroke="black" points="74.9,-185.34 65.69,-180.1 69.62,-189.94 74.9,-185.34"/>
<g id="a_edge9&#45;headlabel"><a xlink:href="dir_000251_000021.html" target="_top" xlink:title="3">
<text text-anchor="middle" x="79.4" y="-183.69" font-family="Helvetica,sans-Serif" font-size="10.00">3</text>
</a>
</g>
</g>
<!-- dir_b21276aa901501839874154d4047f901 -->
<g id="node3" class="node">
<title>dir_b21276aa901501839874154d4047f901</title>
<g id="a_node3"><a xlink:href="dir_b21276aa901501839874154d4047f901.html" target="_top" xlink:title="Object">
<polygon fill="none" stroke="black" points="193.78,-180 139.78,-180 139.78,-144 193.78,-144 193.78,-180"/>
<text text-anchor="middle" x="166.78" y="-159.5" font-family="Helvetica,sans-Serif" font-size="10.00">Object</text>
</a>
</g>
</g>
<!-- dir_e0c199ff072a743662e28b1da00c9be8&#45;&gt;dir_b21276aa901501839874154d4047f901 -->
<g id="edge10" class="edge">
<title>dir_e0c199ff072a743662e28b1da00c9be8&#45;&gt;dir_b21276aa901501839874154d4047f901</title>
<path fill="none" stroke="black" d="M125.38,-215.7C131.9,-207.39 139.85,-197.28 147.03,-188.14"/>
<polygon fill="black" stroke="black" points="149.92,-190.13 153.34,-180.1 144.41,-185.81 149.92,-190.13"/>
<g id="a_edge10&#45;headlabel"><a xlink:href="dir_000251_000017.html" target="_top" xlink:title="1">
<text text-anchor="middle" x="149.93" y="-192.21" font-family="Helvetica,sans-Serif" font-size="10.00">1</text>
</a>
</g>
</g>
<!-- dir_ae1e398ac700924fa434b51c248a5531 -->
<g id="node4" class="node">
<title>dir_ae1e398ac700924fa434b51c248a5531</title>
<g id="a_node4"><a xlink:href="dir_ae1e398ac700924fa434b51c248a5531.html" target="_top" xlink:title="Support">
<polygon fill="none" stroke="red" points="124.78,-108 70.78,-108 70.78,-72 124.78,-72 124.78,-108"/>
<text text-anchor="middle" x="97.78" y="-87.5" font-family="Helvetica,sans-Serif" font-size="10.00">Support</text>
</a>
</g>
</g>
<!-- dir_e0c199ff072a743662e28b1da00c9be8&#45;&gt;dir_ae1e398ac700924fa434b51c248a5531 -->
<g id="edge11" class="edge">
<title>dir_e0c199ff072a743662e28b1da00c9be8&#45;&gt;dir_ae1e398ac700924fa434b51c248a5531</title>
<path fill="none" stroke="black" d="M110.09,-215.87C107.71,-191.67 103.32,-147.21 100.48,-118.39"/>
<polygon fill="black" stroke="black" points="103.94,-117.8 99.48,-108.19 96.97,-118.48 103.94,-117.8"/>
<g id="a_edge11&#45;headlabel"><a xlink:href="dir_000251_000025.html" target="_top" xlink:title="13">
<text text-anchor="middle" x="107.12" y="-118.6" font-family="Helvetica,sans-Serif" font-size="10.00">13</text>
</a>
</g>
</g>
<!-- dir_32453792af2ba70c54e3ccae3a790d1b -->
<g id="node5" class="node">
<title>dir_32453792af2ba70c54e3ccae3a790d1b</title>
<g id="a_node5"><a xlink:href="dir_32453792af2ba70c54e3ccae3a790d1b.html" target="_top" xlink:title="ADT">
<polygon fill="none" stroke="black" points="124.78,-36 70.78,-36 70.78,0 124.78,0 124.78,-36"/>
<text text-anchor="middle" x="97.78" y="-15.5" font-family="Helvetica,sans-Serif" font-size="10.00">ADT</text>
</a>
</g>
</g>
<!-- dir_e0c199ff072a743662e28b1da00c9be8&#45;&gt;dir_32453792af2ba70c54e3ccae3a790d1b -->
<g id="edge12" class="edge">
<title>dir_e0c199ff072a743662e28b1da00c9be8&#45;&gt;dir_32453792af2ba70c54e3ccae3a790d1b</title>
<path fill="none" stroke="black" d="M81.51,-226.51C57.15,-219.52 24.49,-205.75 8.78,-180 -20.29,-132.35 31.82,-74.72 67.81,-42.94"/>
<polygon fill="black" stroke="black" points="70.36,-45.37 75.66,-36.19 65.8,-40.06 70.36,-45.37"/>
<g id="a_edge12&#45;headlabel"><a xlink:href="dir_000251_000007.html" target="_top" xlink:title="13">
<text text-anchor="middle" x="69.49" y="-47.37" font-family="Helvetica,sans-Serif" font-size="10.00">13</text>
</a>
</g>
</g>
<!-- dir_db1e4f1ef1b4536ff54becd23c94e664 -->
<g id="node6" class="node">
<title>dir_db1e4f1ef1b4536ff54becd23c94e664</title>
<g id="a_node6"><a xlink:href="dir_db1e4f1ef1b4536ff54becd23c94e664.html" target="_top" xlink:title="llvm&#45;c">
<polygon fill="none" stroke="red" points="217.78,-36 163.78,-36 163.78,0 217.78,0 217.78,-36"/>
<text text-anchor="middle" x="190.78" y="-15.5" font-family="Helvetica,sans-Serif" font-size="10.00">llvm&#45;c</text>
</a>
</g>
</g>
<!-- dir_e0c199ff072a743662e28b1da00c9be8&#45;&gt;dir_db1e4f1ef1b4536ff54becd23c94e664 -->
<g id="edge13" class="edge">
<title>dir_e0c199ff072a743662e28b1da00c9be8&#45;&gt;dir_db1e4f1ef1b4536ff54becd23c94e664</title>
<path fill="none" stroke="black" d="M142.15,-224.22C163.26,-216.35 189.84,-202.51 202.78,-180 226.83,-138.16 213.1,-79.77 201.53,-46.02"/>
<polygon fill="black" stroke="black" points="204.74,-44.6 198.06,-36.38 198.16,-46.97 204.74,-44.6"/>
<g id="a_edge13&#45;headlabel"><a xlink:href="dir_000251_000002.html" target="_top" xlink:title="1">
<text text-anchor="middle" x="208.63" y="-44.52" font-family="Helvetica,sans-Serif" font-size="10.00">1</text>
</a>
</g>
</g>
<!-- dir_39fdac6f56e5eca4ceec559a44836796&#45;&gt;dir_ae1e398ac700924fa434b51c248a5531 -->
<g id="edge1" class="edge">
<title>dir_39fdac6f56e5eca4ceec559a44836796&#45;&gt;dir_ae1e398ac700924fa434b51c248a5531</title>
<path fill="none" stroke="black" d="M62.4,-143.7C67.92,-135.47 74.63,-125.48 80.71,-116.42"/>
<polygon fill="black" stroke="black" points="83.63,-118.36 86.3,-108.1 77.82,-114.46 83.63,-118.36"/>
<g id="a_edge1&#45;headlabel"><a xlink:href="dir_000021_000025.html" target="_top" xlink:title="10">
<text text-anchor="middle" x="83.98" y="-120.42" font-family="Helvetica,sans-Serif" font-size="10.00">10</text>
</a>
</g>
</g>
<!-- dir_39fdac6f56e5eca4ceec559a44836796&#45;&gt;dir_32453792af2ba70c54e3ccae3a790d1b -->
<g id="edge2" class="edge">
<title>dir_39fdac6f56e5eca4ceec559a44836796&#45;&gt;dir_32453792af2ba70c54e3ccae3a790d1b</title>
<path fill="none" stroke="black" d="M50.54,-143.7C50.83,-125.34 52.85,-95.75 61.78,-72 65.39,-62.42 71.05,-52.88 76.83,-44.58"/>
<polygon fill="black" stroke="black" points="79.71,-46.58 82.81,-36.44 74.07,-42.43 79.71,-46.58"/>
<g id="a_edge2&#45;headlabel"><a xlink:href="dir_000021_000007.html" target="_top" xlink:title="8">
<text text-anchor="middle" x="79.87" y="-48.65" font-family="Helvetica,sans-Serif" font-size="10.00">8</text>
</a>
</g>
</g>
<!-- dir_b21276aa901501839874154d4047f901&#45;&gt;dir_ae1e398ac700924fa434b51c248a5531 -->
<g id="edge3" class="edge">
<title>dir_b21276aa901501839874154d4047f901&#45;&gt;dir_ae1e398ac700924fa434b51c248a5531</title>
<path fill="none" stroke="black" d="M149.73,-143.7C141.29,-135.14 130.96,-124.66 121.74,-115.3"/>
<polygon fill="black" stroke="black" points="124.15,-112.77 114.64,-108.1 119.17,-117.68 124.15,-112.77"/>
<g id="a_edge3&#45;headlabel"><a xlink:href="dir_000017_000025.html" target="_top" xlink:title="57">
<text text-anchor="middle" x="128.7" y="-110.84" font-family="Helvetica,sans-Serif" font-size="10.00">57</text>
</a>
</g>
</g>
<!-- dir_b21276aa901501839874154d4047f901&#45;&gt;dir_32453792af2ba70c54e3ccae3a790d1b -->
<g id="edge4" class="edge">
<title>dir_b21276aa901501839874154d4047f901&#45;&gt;dir_32453792af2ba70c54e3ccae3a790d1b</title>
<path fill="none" stroke="black" d="M161.75,-143.75C156.1,-125.43 146.09,-95.88 133.78,-72 128.94,-62.61 122.74,-52.89 116.84,-44.38"/>
<polygon fill="black" stroke="black" points="119.54,-42.13 110.89,-36.01 113.84,-46.18 119.54,-42.13"/>
<g id="a_edge4&#45;headlabel"><a xlink:href="dir_000017_000007.html" target="_top" xlink:title="54">
<text text-anchor="middle" x="123.94" y="-40.91" font-family="Helvetica,sans-Serif" font-size="10.00">54</text>
</a>
</g>
</g>
<!-- dir_b21276aa901501839874154d4047f901&#45;&gt;dir_db1e4f1ef1b4536ff54becd23c94e664 -->
<g id="edge5" class="edge">
<title>dir_b21276aa901501839874154d4047f901&#45;&gt;dir_db1e4f1ef1b4536ff54becd23c94e664</title>
<path fill="none" stroke="black" d="M169.68,-143.87C173.77,-119.67 181.28,-75.21 186.15,-46.39"/>
<polygon fill="black" stroke="black" points="189.66,-46.63 187.88,-36.19 182.76,-45.47 189.66,-46.63"/>
<g id="a_edge5&#45;headlabel"><a xlink:href="dir_000017_000002.html" target="_top" xlink:title="1">
<text text-anchor="middle" x="191.86" y="-48.15" font-family="Helvetica,sans-Serif" font-size="10.00">1</text>
</a>
</g>
</g>
<!-- dir_ae1e398ac700924fa434b51c248a5531&#45;&gt;dir_32453792af2ba70c54e3ccae3a790d1b -->
<g id="edge6" class="edge">
<title>dir_ae1e398ac700924fa434b51c248a5531&#45;&gt;dir_32453792af2ba70c54e3ccae3a790d1b</title>
<path fill="none" stroke="black" d="M91.87,-71.7C91.07,-63.98 90.84,-54.71 91.19,-46.11"/>
<polygon fill="black" stroke="black" points="94.68,-46.32 91.89,-36.1 87.7,-45.84 94.68,-46.32"/>
<g id="a_edge6&#45;headlabel"><a xlink:href="dir_000025_000007.html" target="_top" xlink:title="207">
<text text-anchor="middle" x="97.26" y="-47.61" font-family="Helvetica,sans-Serif" font-size="10.00">207</text>
</a>
</g>
</g>
<!-- dir_ae1e398ac700924fa434b51c248a5531&#45;&gt;dir_db1e4f1ef1b4536ff54becd23c94e664 -->
<g id="edge7" class="edge">
<title>dir_ae1e398ac700924fa434b51c248a5531&#45;&gt;dir_db1e4f1ef1b4536ff54becd23c94e664</title>
<path fill="none" stroke="black" d="M120.77,-71.7C132.6,-62.8 147.17,-51.82 159.96,-42.2"/>
<polygon fill="black" stroke="black" points="162.17,-44.91 168.06,-36.1 157.96,-39.32 162.17,-44.91"/>
<g id="a_edge7&#45;headlabel"><a xlink:href="dir_000025_000002.html" target="_top" xlink:title="5">
<text text-anchor="middle" x="161.01" y="-46.84" font-family="Helvetica,sans-Serif" font-size="10.00">5</text>
</a>
</g>
</g>
<!-- dir_32453792af2ba70c54e3ccae3a790d1b&#45;&gt;dir_ae1e398ac700924fa434b51c248a5531 -->
<g id="edge8" class="edge">
<title>dir_32453792af2ba70c54e3ccae3a790d1b&#45;&gt;dir_ae1e398ac700924fa434b51c248a5531</title>
<path fill="none" stroke="black" d="M103.68,-36.1C104.48,-43.79 104.72,-53.05 104.39,-61.67"/>
<polygon fill="black" stroke="black" points="100.89,-61.48 103.7,-71.7 107.87,-61.96 100.89,-61.48"/>
<g id="a_edge8&#45;headlabel"><a xlink:href="dir_000007_000025.html" target="_top" xlink:title="75">
<text text-anchor="middle" x="98.3" y="-55.2" font-family="Helvetica,sans-Serif" font-size="10.00">75</text>
</a>
</g>
</g>
</g>
</svg>
