<?xml version="1.0" encoding="UTF-8" standalone="no"?>
<!DOCTYPE svg PUBLIC "-//W3C//DTD SVG 1.1//EN"
 "http://www.w3.org/Graphics/SVG/1.1/DTD/svg11.dtd">
<!-- Generated by graphviz version 2.42.4 (0)
 -->
<!-- Title: lib/Target/M68k/GlSel Pages: 1 -->
<svg width="130pt" height="223pt"
 viewBox="0.00 0.00 130.00 223.00" xmlns="http://www.w3.org/2000/svg" xmlns:xlink="http://www.w3.org/1999/xlink">
<g id="graph0" class="graph" transform="scale(1 1) rotate(0) translate(4 219)">
<title>lib/Target/M68k/GlSel</title>
<g id="clust1" class="cluster">
<title>clusterdir_75be98d036773b3a0c8f79f20c9e218b</title>
<g id="a_clust1"><a xlink:href="dir_75be98d036773b3a0c8f79f20c9e218b.html" target="_top" xlink:title="M68k">
<polygon fill="#ddddee" stroke="black" points="44,-136 44,-207 114,-207 114,-136 44,-136"/>
<text text-anchor="middle" x="79" y="-195" font-family="Helvetica,sans-Serif" font-size="10.00">M68k</text>
</a>
</g>
</g>
<!-- dir_8676eac8f08c5ef8c36adfcc53dd9dbc -->
<g id="node1" class="node">
<title>dir_8676eac8f08c5ef8c36adfcc53dd9dbc</title>
<g id="a_node1"><a xlink:href="dir_8676eac8f08c5ef8c36adfcc53dd9dbc.html" target="_top" xlink:title="GlSel">
<polygon fill="#eeeeff" stroke="black" points="106,-180 52,-180 52,-144 106,-144 106,-180"/>
<text text-anchor="middle" x="79" y="-159.5" font-family="Helvetica,sans-Serif" font-size="10.00">GlSel</text>
</a>
</g>
</g>
<!-- dir_d561de83ea5dd28ce377f6dfdf1d8847 -->
<g id="node2" class="node">
<title>dir_d561de83ea5dd28ce377f6dfdf1d8847</title>
<g id="a_node2"><a xlink:href="dir_d561de83ea5dd28ce377f6dfdf1d8847.html" target="_top" xlink:title="MCTargetDesc">
<polygon fill="none" stroke="black" points="86,-108 0,-108 0,-72 86,-72 86,-108"/>
<text text-anchor="middle" x="43" y="-87.5" font-family="Helvetica,sans-Serif" font-size="10.00">MCTargetDesc</text>
</a>
</g>
</g>
<!-- dir_8676eac8f08c5ef8c36adfcc53dd9dbc&#45;&gt;dir_d561de83ea5dd28ce377f6dfdf1d8847 -->
<g id="edge2" class="edge">
<title>dir_8676eac8f08c5ef8c36adfcc53dd9dbc&#45;&gt;dir_d561de83ea5dd28ce377f6dfdf1d8847</title>
<path fill="none" stroke="black" d="M70.1,-143.7C66,-135.73 61.05,-126.1 56.51,-117.26"/>
<polygon fill="black" stroke="black" points="59.48,-115.4 51.8,-108.1 53.26,-118.6 59.48,-115.4"/>
<g id="a_edge2&#45;headlabel"><a xlink:href="dir_000280_000133.html" target="_top" xlink:title="1">
<text text-anchor="middle" x="63.65" y="-114.79" font-family="Helvetica,sans-Serif" font-size="10.00">1</text>
</a>
</g>
</g>
<!-- dir_d44c64559bbebec7f509842c48db8b23 -->
<g id="node3" class="node">
<title>dir_d44c64559bbebec7f509842c48db8b23</title>
<g id="a_node3"><a xlink:href="dir_d44c64559bbebec7f509842c48db8b23.html" target="_top" xlink:title="include">
<polygon fill="none" stroke="red" points="105,-36 51,-36 51,0 105,0 105,-36"/>
<text text-anchor="middle" x="78" y="-15.5" font-family="Helvetica,sans-Serif" font-size="10.00">include</text>
</a>
</g>
</g>
<!-- dir_8676eac8f08c5ef8c36adfcc53dd9dbc&#45;&gt;dir_d44c64559bbebec7f509842c48db8b23 -->
<g id="edge3" class="edge">
<title>dir_8676eac8f08c5ef8c36adfcc53dd9dbc&#45;&gt;dir_d44c64559bbebec7f509842c48db8b23</title>
<path fill="none" stroke="black" d="M85.65,-143.63C89.2,-133.42 93.2,-120.17 95,-108 97.34,-92.17 97.47,-87.81 95,-72 93.64,-63.31 91.1,-54.1 88.39,-45.84"/>
<polygon fill="black" stroke="black" points="91.67,-44.62 85.07,-36.33 85.06,-46.93 91.67,-44.62"/>
<g id="a_edge3&#45;headlabel"><a xlink:href="dir_000280_000001.html" target="_top" xlink:title="22">
<text text-anchor="middle" x="95.54" y="-44.58" font-family="Helvetica,sans-Serif" font-size="10.00">22</text>
</a>
</g>
</g>
<!-- dir_d561de83ea5dd28ce377f6dfdf1d8847&#45;&gt;dir_d44c64559bbebec7f509842c48db8b23 -->
<g id="edge1" class="edge">
<title>dir_d561de83ea5dd28ce377f6dfdf1d8847&#45;&gt;dir_d44c64559bbebec7f509842c48db8b23</title>
<path fill="none" stroke="black" d="M51.65,-71.7C55.64,-63.73 60.45,-54.1 64.87,-45.26"/>
<polygon fill="black" stroke="black" points="68.11,-46.61 69.45,-36.1 61.85,-43.48 68.11,-46.61"/>
<g id="a_edge1&#45;headlabel"><a xlink:href="dir_000133_000001.html" target="_top" xlink:title="65">
<text text-anchor="middle" x="69.04" y="-48.6" font-family="Helvetica,sans-Serif" font-size="10.00">65</text>
</a>
</g>
</g>
</g>
</svg>
