<?xml version="1.0" encoding="UTF-8" standalone="no"?>
<!DOCTYPE svg PUBLIC "-//W3C//DTD SVG 1.1//EN"
 "http://www.w3.org/Graphics/SVG/1.1/DTD/svg11.dtd">
<!-- Generated by graphviz version 2.42.4 (0)
 -->
<!-- Title: include/llvm/Support/FormatProviders.h Pages: 1 -->
<svg width="6713pt" height="318pt"
 viewBox="0.00 0.00 6712.50 318.00" xmlns="http://www.w3.org/2000/svg" xmlns:xlink="http://www.w3.org/1999/xlink">
<g id="graph0" class="graph" transform="scale(1 1) rotate(0) translate(4 314)">
<title>include/llvm/Support/FormatProviders.h</title>
<!-- Node1 -->
<g id="node1" class="node">
<title>Node1</title>
<g id="a_node1"><a xlink:title=" ">
<polygon fill="#bfbfbf" stroke="black" points="1714.5,-279.5 1714.5,-309.5 1831.5,-309.5 1831.5,-279.5 1714.5,-279.5"/>
<text text-anchor="start" x="1722.5" y="-297.5" font-family="Helvetica,sans-Serif" font-size="10.00">include/llvm/Support</text>
<text text-anchor="middle" x="1773" y="-286.5" font-family="Helvetica,sans-Serif" font-size="10.00">/FormatProviders.h</text>
</a>
</g>
</g>
<!-- Node2 -->
<g id="node2" class="node">
<title>Node2</title>
<g id="a_node2"><a xlink:href="TypeHashing_8h.html" target="_top" xlink:title=" ">
<polygon fill="none" stroke="black" points="393.5,-212.5 393.5,-242.5 536.5,-242.5 536.5,-212.5 393.5,-212.5"/>
<text text-anchor="start" x="401.5" y="-230.5" font-family="Helvetica,sans-Serif" font-size="10.00">include/llvm/DebugInfo</text>
<text text-anchor="middle" x="465" y="-219.5" font-family="Helvetica,sans-Serif" font-size="10.00">/CodeView/TypeHashing.h</text>
</a>
</g>
</g>
<!-- Node1&#45;&gt;Node2 -->
<g id="edge1" class="edge">
<title>Node1&#45;&gt;Node2</title>
<path fill="none" stroke="midnightblue" d="M1704.23,-290.08C1479.22,-278.9 766.24,-243.47 536.85,-232.07"/>
<polygon fill="midnightblue" stroke="midnightblue" points="1704.1,-293.58 1714.26,-290.58 1704.44,-286.59 1704.1,-293.58"/>
</g>
<!-- Node23 -->
<g id="node7" class="node">
<title>Node23</title>
<g id="a_node7"><a xlink:href="PDB_2Native_2Formatters_8h.html" target="_top" xlink:title=" ">
<polygon fill="none" stroke="black" points="3996,-0.5 3996,-30.5 4136,-30.5 4136,-0.5 3996,-0.5"/>
<text text-anchor="start" x="4004" y="-18.5" font-family="Helvetica,sans-Serif" font-size="10.00">include/llvm/DebugInfo</text>
<text text-anchor="middle" x="4066" y="-7.5" font-family="Helvetica,sans-Serif" font-size="10.00">/PDB/Native/Formatters.h</text>
</a>
</g>
</g>
<!-- Node1&#45;&gt;Node23 -->
<g id="edge6" class="edge">
<title>Node1&#45;&gt;Node23</title>
<path fill="none" stroke="midnightblue" d="M1787.49,-270.72C1819.77,-222.36 1902.91,-110.33 2006,-67 2099.56,-27.68 3646.07,-18.39 3996,-16.78"/>
<polygon fill="midnightblue" stroke="midnightblue" points="1784.46,-268.96 1781.9,-279.24 1790.31,-272.8 1784.46,-268.96"/>
</g>
<!-- Node24 -->
<g id="node8" class="node">
<title>Node24</title>
<g id="a_node8"><a xlink:href="Chrono_8h.html" target="_top" xlink:title=" ">
<polygon fill="none" stroke="black" points="1546.5,-212.5 1546.5,-242.5 1663.5,-242.5 1663.5,-212.5 1546.5,-212.5"/>
<text text-anchor="start" x="1554.5" y="-230.5" font-family="Helvetica,sans-Serif" font-size="10.00">include/llvm/Support</text>
<text text-anchor="middle" x="1605" y="-219.5" font-family="Helvetica,sans-Serif" font-size="10.00">/Chrono.h</text>
</a>
</g>
</g>
<!-- Node1&#45;&gt;Node24 -->
<g id="edge7" class="edge">
<title>Node1&#45;&gt;Node24</title>
<path fill="none" stroke="midnightblue" d="M1726.95,-275.68C1700,-265.26 1666.46,-252.28 1641.38,-242.58"/>
<polygon fill="midnightblue" stroke="midnightblue" points="1725.96,-279.05 1736.55,-279.4 1728.48,-272.52 1725.96,-279.05"/>
</g>
<!-- Node184 -->
<g id="node23" class="node">
<title>Node184</title>
<g id="a_node23"><a xlink:href="FormatVariadic_8h.html" target="_top" xlink:title=" ">
<polygon fill="none" stroke="red" points="4405.5,-145.5 4405.5,-175.5 4522.5,-175.5 4522.5,-145.5 4405.5,-145.5"/>
<text text-anchor="start" x="4413.5" y="-163.5" font-family="Helvetica,sans-Serif" font-size="10.00">include/llvm/Support</text>
<text text-anchor="middle" x="4464" y="-152.5" font-family="Helvetica,sans-Serif" font-size="10.00">/FormatVariadic.h</text>
</a>
</g>
</g>
<!-- Node1&#45;&gt;Node184 -->
<g id="edge29" class="edge">
<title>Node1&#45;&gt;Node184</title>
<path fill="none" stroke="midnightblue" d="M1841.71,-290.13C2220.92,-271.53 4053.58,-181.63 4405.49,-164.37"/>
<polygon fill="midnightblue" stroke="midnightblue" points="1841.52,-286.63 1831.71,-290.62 1841.87,-293.63 1841.52,-286.63"/>
</g>
<!-- Node3 -->
<g id="node3" class="node">
<title>Node3</title>
<g id="a_node3"><a xlink:href="GlobalTypeTableBuilder_8h.html" target="_top" xlink:title=" ">
<polygon fill="none" stroke="red" points="152,-145.5 152,-175.5 346,-175.5 346,-145.5 152,-145.5"/>
<text text-anchor="start" x="160" y="-163.5" font-family="Helvetica,sans-Serif" font-size="10.00">include/llvm/DebugInfo</text>
<text text-anchor="middle" x="249" y="-152.5" font-family="Helvetica,sans-Serif" font-size="10.00">/CodeView/GlobalTypeTableBuilder.h</text>
</a>
</g>
</g>
<!-- Node2&#45;&gt;Node3 -->
<g id="edge2" class="edge">
<title>Node2&#45;&gt;Node3</title>
<path fill="none" stroke="midnightblue" d="M408.77,-209.58C373.69,-199.02 329.06,-185.59 295.89,-175.61"/>
<polygon fill="midnightblue" stroke="midnightblue" points="407.81,-212.95 418.4,-212.48 409.83,-206.24 407.81,-212.95"/>
</g>
<!-- Node9 -->
<g id="node4" class="node">
<title>Node9</title>
<g id="a_node4"><a xlink:href="MergingTypeTableBuilder_8h.html" target="_top" xlink:title=" ">
<polygon fill="none" stroke="red" points="364,-145.5 364,-175.5 566,-175.5 566,-145.5 364,-145.5"/>
<text text-anchor="start" x="372" y="-163.5" font-family="Helvetica,sans-Serif" font-size="10.00">include/llvm/DebugInfo</text>
<text text-anchor="middle" x="465" y="-152.5" font-family="Helvetica,sans-Serif" font-size="10.00">/CodeView/MergingTypeTableBuilder.h</text>
</a>
</g>
</g>
<!-- Node2&#45;&gt;Node9 -->
<g id="edge3" class="edge">
<title>Node2&#45;&gt;Node9</title>
<path fill="none" stroke="midnightblue" d="M465,-202.11C465,-193.15 465,-183.32 465,-175.58"/>
<polygon fill="midnightblue" stroke="midnightblue" points="461.5,-202.4 465,-212.4 468.5,-202.4 461.5,-202.4"/>
</g>
<!-- Node11 -->
<g id="node5" class="node">
<title>Node11</title>
<g id="a_node5"><a xlink:href="CodeViewYAMLTypeHashing_8h.html" target="_top" xlink:title=" ">
<polygon fill="none" stroke="red" points="584.5,-145.5 584.5,-175.5 749.5,-175.5 749.5,-145.5 584.5,-145.5"/>
<text text-anchor="start" x="592.5" y="-163.5" font-family="Helvetica,sans-Serif" font-size="10.00">include/llvm/ObjectYAML</text>
<text text-anchor="middle" x="667" y="-152.5" font-family="Helvetica,sans-Serif" font-size="10.00">/CodeViewYAMLTypeHashing.h</text>
</a>
</g>
</g>
<!-- Node2&#45;&gt;Node11 -->
<g id="edge4" class="edge">
<title>Node2&#45;&gt;Node11</title>
<path fill="none" stroke="midnightblue" d="M518.68,-209.23C551.35,-198.71 592.57,-185.45 623.25,-175.58"/>
<polygon fill="midnightblue" stroke="midnightblue" points="517.28,-206 508.83,-212.4 519.42,-212.66 517.28,-206"/>
</g>
<!-- Node22 -->
<g id="node6" class="node">
<title>Node22</title>
<g id="a_node6"><a xlink:href="TypeHashing_8cpp.html" target="_top" xlink:title=" ">
<polygon fill="none" stroke="black" points="0,-145.5 0,-175.5 134,-175.5 134,-145.5 0,-145.5"/>
<text text-anchor="start" x="8" y="-163.5" font-family="Helvetica,sans-Serif" font-size="10.00">lib/DebugInfo/CodeView</text>
<text text-anchor="middle" x="67" y="-152.5" font-family="Helvetica,sans-Serif" font-size="10.00">/TypeHashing.cpp</text>
</a>
</g>
</g>
<!-- Node2&#45;&gt;Node22 -->
<g id="edge5" class="edge">
<title>Node2&#45;&gt;Node22</title>
<path fill="none" stroke="midnightblue" d="M383.06,-214.41C317.91,-204.62 224.5,-190.16 143,-176 140.09,-175.49 137.12,-174.97 134.11,-174.43"/>
<polygon fill="midnightblue" stroke="midnightblue" points="382.86,-217.92 393.27,-215.94 383.9,-211 382.86,-217.92"/>
</g>
<!-- Node25 -->
<g id="node9" class="node">
<title>Node25</title>
<g id="a_node9"><a xlink:href="Archive_8h.html" target="_top" xlink:title=" ">
<polygon fill="none" stroke="red" points="1559.5,-73 1559.5,-103 1670.5,-103 1670.5,-73 1559.5,-73"/>
<text text-anchor="start" x="1567.5" y="-91" font-family="Helvetica,sans-Serif" font-size="10.00">include/llvm/Object</text>
<text text-anchor="middle" x="1615" y="-80" font-family="Helvetica,sans-Serif" font-size="10.00">/Archive.h</text>
</a>
</g>
</g>
<!-- Node24&#45;&gt;Node25 -->
<g id="edge8" class="edge">
<title>Node24&#45;&gt;Node25</title>
<path fill="none" stroke="midnightblue" d="M1606.76,-202.29C1608.85,-173.61 1612.25,-126.78 1613.96,-103.33"/>
<polygon fill="midnightblue" stroke="midnightblue" points="1603.27,-202.08 1606.03,-212.3 1610.25,-202.58 1603.27,-202.08"/>
</g>
<!-- Node49 -->
<g id="node10" class="node">
<title>Node49</title>
<g id="a_node10"><a xlink:href="Archive_8cpp.html" target="_top" xlink:title=" ">
<polygon fill="none" stroke="black" points="1553.5,-6 1553.5,-25 1676.5,-25 1676.5,-6 1553.5,-6"/>
<text text-anchor="middle" x="1615" y="-13" font-family="Helvetica,sans-Serif" font-size="10.00">lib/Object/Archive.cpp</text>
</a>
</g>
</g>
<!-- Node24&#45;&gt;Node49 -->
<g id="edge25" class="edge">
<title>Node24&#45;&gt;Node49</title>
<path fill="none" stroke="midnightblue" d="M1593.72,-203.08C1577.95,-170.24 1551.1,-113.96 1550,-109 1545.95,-90.78 1541.79,-83.77 1550,-67 1559.55,-47.49 1580.67,-33.34 1596.26,-25.07"/>
<polygon fill="midnightblue" stroke="midnightblue" points="1590.73,-204.94 1598.22,-212.43 1597.04,-201.9 1590.73,-204.94"/>
</g>
<!-- Node50 -->
<g id="node11" class="node">
<title>Node50</title>
<g id="a_node11"><a xlink:href="FileSystem_8h.html" target="_top" xlink:title=" ">
<polygon fill="none" stroke="red" points="1652.5,-145.5 1652.5,-175.5 1769.5,-175.5 1769.5,-145.5 1652.5,-145.5"/>
<text text-anchor="start" x="1660.5" y="-163.5" font-family="Helvetica,sans-Serif" font-size="10.00">include/llvm/Support</text>
<text text-anchor="middle" x="1711" y="-152.5" font-family="Helvetica,sans-Serif" font-size="10.00">/FileSystem.h</text>
</a>
</g>
</g>
<!-- Node24&#45;&gt;Node50 -->
<g id="edge10" class="edge">
<title>Node24&#45;&gt;Node50</title>
<path fill="none" stroke="midnightblue" d="M1636.78,-207.02C1653.27,-196.9 1673.05,-184.77 1688.04,-175.58"/>
<polygon fill="midnightblue" stroke="midnightblue" points="1634.7,-204.18 1628,-212.4 1638.35,-210.15 1634.7,-204.18"/>
</g>
<!-- Node134 -->
<g id="node12" class="node">
<title>Node134</title>
<g id="a_node12"><a xlink:href="VirtualFileSystem_8h.html" target="_top" xlink:title="Defines the virtual file system interface vfs::FileSystem.">
<polygon fill="none" stroke="red" points="1765.5,-73 1765.5,-103 1882.5,-103 1882.5,-73 1765.5,-73"/>
<text text-anchor="start" x="1773.5" y="-91" font-family="Helvetica,sans-Serif" font-size="10.00">include/llvm/Support</text>
<text text-anchor="middle" x="1824" y="-80" font-family="Helvetica,sans-Serif" font-size="10.00">/VirtualFileSystem.h</text>
</a>
</g>
</g>
<!-- Node24&#45;&gt;Node134 -->
<g id="edge21" class="edge">
<title>Node24&#45;&gt;Node134</title>
<path fill="none" stroke="midnightblue" d="M1673.68,-219.23C1708.07,-212.62 1748.54,-200.03 1778,-176 1801.43,-156.89 1814.45,-122.61 1820.26,-103.28"/>
<polygon fill="midnightblue" stroke="midnightblue" points="1672.92,-215.81 1663.69,-221.01 1674.15,-222.7 1672.92,-215.81"/>
</g>
<!-- Node129 -->
<g id="node13" class="node">
<title>Node129</title>
<g id="a_node13"><a xlink:href="VirtualFileSystem_8cpp.html" target="_top" xlink:title=" ">
<polygon fill="none" stroke="black" points="1777.5,-6 1777.5,-25 1956.5,-25 1956.5,-6 1777.5,-6"/>
<text text-anchor="middle" x="1867" y="-13" font-family="Helvetica,sans-Serif" font-size="10.00">lib/Support/VirtualFileSystem.cpp</text>
</a>
</g>
</g>
<!-- Node24&#45;&gt;Node129 -->
<g id="edge28" class="edge">
<title>Node24&#45;&gt;Node129</title>
<path fill="none" stroke="midnightblue" d="M1673.55,-216.45C1713.35,-208.87 1763.62,-196.22 1805,-176 1848.53,-154.72 1869.73,-152.53 1891,-109 1905.13,-80.08 1884.06,-41.87 1873.03,-25.06"/>
<polygon fill="midnightblue" stroke="midnightblue" points="1672.87,-213.02 1663.67,-218.27 1674.14,-219.9 1672.87,-213.02"/>
</g>
<!-- Node98 -->
<g id="node14" class="node">
<title>Node98</title>
<g id="a_node14"><a xlink:href="Process_8h.html" target="_top" xlink:title="Provides a library for accessing information about this process and other processes on the operating ...">
<polygon fill="none" stroke="red" points="2058.5,-145.5 2058.5,-175.5 2175.5,-175.5 2175.5,-145.5 2058.5,-145.5"/>
<text text-anchor="start" x="2066.5" y="-163.5" font-family="Helvetica,sans-Serif" font-size="10.00">include/llvm/Support</text>
<text text-anchor="middle" x="2117" y="-152.5" font-family="Helvetica,sans-Serif" font-size="10.00">/Process.h</text>
</a>
</g>
</g>
<!-- Node24&#45;&gt;Node98 -->
<g id="edge16" class="edge">
<title>Node24&#45;&gt;Node98</title>
<path fill="none" stroke="midnightblue" d="M1673.86,-217.76C1775.23,-204.89 1962.87,-181.07 2058.17,-168.97"/>
<polygon fill="midnightblue" stroke="midnightblue" points="1673.21,-214.31 1663.73,-219.04 1674.09,-221.26 1673.21,-214.31"/>
</g>
<!-- Node178 -->
<g id="node18" class="node">
<title>Node178</title>
<g id="a_node18"><a xlink:href="WindowsSupport_8h.html" target="_top" xlink:title=" ">
<polygon fill="none" stroke="black" points="768,-145.5 768,-175.5 926,-175.5 926,-145.5 768,-145.5"/>
<text text-anchor="start" x="776" y="-163.5" font-family="Helvetica,sans-Serif" font-size="10.00">include/llvm/Support</text>
<text text-anchor="middle" x="847" y="-152.5" font-family="Helvetica,sans-Serif" font-size="10.00">/Windows/WindowsSupport.h</text>
</a>
</g>
</g>
<!-- Node24&#45;&gt;Node178 -->
<g id="edge22" class="edge">
<title>Node24&#45;&gt;Node178</title>
<path fill="none" stroke="midnightblue" d="M1535.84,-223.3C1414.08,-217.22 1153.61,-202.2 935,-176 932.08,-175.65 929.11,-175.27 926.11,-174.87"/>
<polygon fill="midnightblue" stroke="midnightblue" points="1535.97,-226.81 1546.13,-223.81 1536.31,-219.82 1535.97,-226.81"/>
</g>
<!-- Node179 -->
<g id="node19" class="node">
<title>Node179</title>
<g id="a_node19"><a xlink:href="PDBFileBuilder_8cpp.html" target="_top" xlink:title=" ">
<polygon fill="none" stroke="black" points="944,-145.5 944,-175.5 1084,-175.5 1084,-145.5 944,-145.5"/>
<text text-anchor="start" x="952" y="-163.5" font-family="Helvetica,sans-Serif" font-size="10.00">lib/DebugInfo/PDB/Native</text>
<text text-anchor="middle" x="1014" y="-152.5" font-family="Helvetica,sans-Serif" font-size="10.00">/PDBFileBuilder.cpp</text>
</a>
</g>
</g>
<!-- Node24&#45;&gt;Node179 -->
<g id="edge23" class="edge">
<title>Node24&#45;&gt;Node179</title>
<path fill="none" stroke="midnightblue" d="M1536.34,-221.55C1437.88,-214.05 1251.03,-198.26 1093,-176 1090.1,-175.59 1087.14,-175.15 1084.16,-174.69"/>
<polygon fill="midnightblue" stroke="midnightblue" points="1536.22,-225.05 1546.46,-222.32 1536.75,-218.07 1536.22,-225.05"/>
</g>
<!-- Node180 -->
<g id="node20" class="node">
<title>Node180</title>
<g id="a_node20"><a xlink:href="LegacyPassManager_8cpp.html" target="_top" xlink:title=" ">
<polygon fill="none" stroke="black" points="1102.5,-151 1102.5,-170 1265.5,-170 1265.5,-151 1102.5,-151"/>
<text text-anchor="middle" x="1184" y="-158" font-family="Helvetica,sans-Serif" font-size="10.00">lib/IR/LegacyPassManager.cpp</text>
</a>
</g>
</g>
<!-- Node24&#45;&gt;Node180 -->
<g id="edge24" class="edge">
<title>Node24&#45;&gt;Node180</title>
<path fill="none" stroke="midnightblue" d="M1536.38,-216.2C1469.41,-206.11 1364.68,-190.22 1274,-176 1261.8,-174.09 1248.69,-171.99 1236.34,-170.01"/>
<polygon fill="midnightblue" stroke="midnightblue" points="1535.97,-219.68 1546.38,-217.71 1537.01,-212.76 1535.97,-219.68"/>
</g>
<!-- Node181 -->
<g id="node21" class="node">
<title>Node181</title>
<g id="a_node21"><a xlink:href="Chrono_8cpp.html" target="_top" xlink:title=" ">
<polygon fill="none" stroke="black" points="1283.5,-151 1283.5,-170 1410.5,-170 1410.5,-151 1283.5,-151"/>
<text text-anchor="middle" x="1347" y="-158" font-family="Helvetica,sans-Serif" font-size="10.00">lib/Support/Chrono.cpp</text>
</a>
</g>
</g>
<!-- Node24&#45;&gt;Node181 -->
<g id="edge26" class="edge">
<title>Node24&#45;&gt;Node181</title>
<path fill="none" stroke="midnightblue" d="M1539.47,-209.99C1488.91,-197.25 1421.02,-180.15 1380.85,-170.03"/>
<polygon fill="midnightblue" stroke="midnightblue" points="1538.78,-213.43 1549.34,-212.48 1540.49,-206.64 1538.78,-213.43"/>
</g>
<!-- Node182 -->
<g id="node22" class="node">
<title>Node182</title>
<g id="a_node22"><a xlink:href="Unix_8h.html" target="_top" xlink:title=" ">
<polygon fill="none" stroke="red" points="1428.5,-151 1428.5,-170 1557.5,-170 1557.5,-151 1428.5,-151"/>
<text text-anchor="middle" x="1493" y="-158" font-family="Helvetica,sans-Serif" font-size="10.00">lib/Support/Unix/Unix.h</text>
</a>
</g>
</g>
<!-- Node24&#45;&gt;Node182 -->
<g id="edge27" class="edge">
<title>Node24&#45;&gt;Node182</title>
<path fill="none" stroke="midnightblue" d="M1571.93,-207.31C1550.59,-194.93 1523.89,-179.43 1507.66,-170.01"/>
<polygon fill="midnightblue" stroke="midnightblue" points="1570.29,-210.4 1580.7,-212.4 1573.81,-204.35 1570.29,-210.4"/>
</g>
<!-- Node25&#45;&gt;Node49 -->
<g id="edge9" class="edge">
<title>Node25&#45;&gt;Node49</title>
<path fill="none" stroke="midnightblue" d="M1615,-62.59C1615,-49.71 1615,-34.7 1615,-25.39"/>
<polygon fill="midnightblue" stroke="midnightblue" points="1611.5,-62.73 1615,-72.73 1618.5,-62.73 1611.5,-62.73"/>
</g>
<!-- Node50&#45;&gt;Node25 -->
<g id="edge11" class="edge">
<title>Node50&#45;&gt;Node25</title>
<path fill="none" stroke="midnightblue" d="M1683.23,-139.11C1667.46,-127.53 1648.13,-113.33 1634.07,-103"/>
<polygon fill="midnightblue" stroke="midnightblue" points="1681.44,-142.14 1691.57,-145.23 1685.58,-136.49 1681.44,-142.14"/>
</g>
<!-- Node50&#45;&gt;Node49 -->
<g id="edge14" class="edge">
<title>Node50&#45;&gt;Node49</title>
<path fill="none" stroke="midnightblue" d="M1706.54,-135.15C1702.05,-115.4 1693.62,-87.57 1679,-67 1666.04,-48.77 1644.7,-33.81 1630.26,-25.02"/>
<polygon fill="midnightblue" stroke="midnightblue" points="1703.17,-136.12 1708.65,-145.19 1710.02,-134.68 1703.17,-136.12"/>
</g>
<!-- Node50&#45;&gt;Node134 -->
<g id="edge12" class="edge">
<title>Node50&#45;&gt;Node134</title>
<path fill="none" stroke="midnightblue" d="M1742.12,-140.08C1760.92,-128.36 1784.44,-113.68 1801.44,-103.07"/>
<polygon fill="midnightblue" stroke="midnightblue" points="1740.23,-137.14 1733.6,-145.4 1743.93,-143.08 1740.23,-137.14"/>
</g>
<!-- Node50&#45;&gt;Node129 -->
<g id="edge15" class="edge">
<title>Node50&#45;&gt;Node129</title>
<path fill="none" stroke="midnightblue" d="M1717.56,-135.66C1724.27,-115.17 1736.5,-86 1756,-67 1777.61,-45.94 1809.55,-32.68 1833.63,-25.06"/>
<polygon fill="midnightblue" stroke="midnightblue" points="1714.14,-134.9 1714.55,-145.48 1720.83,-136.95 1714.14,-134.9"/>
</g>
<!-- Node134&#45;&gt;Node129 -->
<g id="edge13" class="edge">
<title>Node134&#45;&gt;Node129</title>
<path fill="none" stroke="midnightblue" d="M1837.95,-64.13C1846,-50.92 1855.67,-35.07 1861.58,-25.39"/>
<polygon fill="midnightblue" stroke="midnightblue" points="1834.92,-62.37 1832.7,-72.73 1840.9,-66.02 1834.92,-62.37"/>
</g>
<!-- Node98&#45;&gt;Node129 -->
<g id="edge20" class="edge">
<title>Node98&#45;&gt;Node129</title>
<path fill="none" stroke="midnightblue" d="M2073.09,-141.46C2052.36,-132.45 2027.51,-120.95 2006,-109 1956.59,-81.55 1901.8,-42.25 1878.5,-25.08"/>
<polygon fill="midnightblue" stroke="midnightblue" points="2071.73,-144.68 2082.3,-145.41 2074.49,-138.25 2071.73,-144.68"/>
</g>
<!-- Node108 -->
<g id="node15" class="node">
<title>Node108</title>
<g id="a_node15"><a xlink:href="OrcRPCTPCServer_8h.html" target="_top" xlink:title=" ">
<polygon fill="none" stroke="red" points="2015,-73 2015,-103 2219,-103 2219,-73 2015,-73"/>
<text text-anchor="start" x="2023" y="-91" font-family="Helvetica,sans-Serif" font-size="10.00">include/llvm/ExecutionEngine</text>
<text text-anchor="middle" x="2117" y="-80" font-family="Helvetica,sans-Serif" font-size="10.00">/Orc/TargetProcess/OrcRPCTPCServer.h</text>
</a>
</g>
</g>
<!-- Node98&#45;&gt;Node108 -->
<g id="edge17" class="edge">
<title>Node98&#45;&gt;Node108</title>
<path fill="none" stroke="midnightblue" d="M2117,-135.23C2117,-124.57 2117,-112.41 2117,-103.25"/>
<polygon fill="midnightblue" stroke="midnightblue" points="2113.5,-135.23 2117,-145.23 2120.5,-135.23 2113.5,-135.23"/>
</g>
<!-- Node112 -->
<g id="node16" class="node">
<title>Node112</title>
<g id="a_node16"><a xlink:href="ExecutorProcessControl_8cpp.html" target="_top" xlink:title=" ">
<polygon fill="none" stroke="black" points="2237,-73 2237,-103 2411,-103 2411,-73 2237,-73"/>
<text text-anchor="start" x="2245" y="-91" font-family="Helvetica,sans-Serif" font-size="10.00">lib/ExecutionEngine</text>
<text text-anchor="middle" x="2324" y="-80" font-family="Helvetica,sans-Serif" font-size="10.00">/Orc/ExecutorProcessControl.cpp</text>
</a>
</g>
</g>
<!-- Node98&#45;&gt;Node112 -->
<g id="edge18" class="edge">
<title>Node98&#45;&gt;Node112</title>
<path fill="none" stroke="midnightblue" d="M2168.03,-142.12C2203.33,-130.1 2249.7,-114.31 2282.68,-103.07"/>
<polygon fill="midnightblue" stroke="midnightblue" points="2166.73,-138.87 2158.39,-145.4 2168.99,-145.49 2166.73,-138.87"/>
</g>
<!-- Node113 -->
<g id="node17" class="node">
<title>Node113</title>
<g id="a_node17"><a xlink:href="OrcABISupport_8cpp.html" target="_top" xlink:title=" ">
<polygon fill="none" stroke="black" points="2429,-73 2429,-103 2559,-103 2559,-73 2429,-73"/>
<text text-anchor="start" x="2437" y="-91" font-family="Helvetica,sans-Serif" font-size="10.00">lib/ExecutionEngine</text>
<text text-anchor="middle" x="2494" y="-80" font-family="Helvetica,sans-Serif" font-size="10.00">/Orc/OrcABISupport.cpp</text>
</a>
</g>
</g>
<!-- Node98&#45;&gt;Node113 -->
<g id="edge19" class="edge">
<title>Node98&#45;&gt;Node113</title>
<path fill="none" stroke="midnightblue" d="M2185.7,-150.03C2247.35,-141.06 2340.16,-126.4 2420,-109 2428.06,-107.24 2436.56,-105.16 2444.81,-103.02"/>
<polygon fill="midnightblue" stroke="midnightblue" points="2185.09,-146.58 2175.7,-151.47 2186.09,-153.51 2185.09,-146.58"/>
</g>
<!-- Node184&#45;&gt;Node108 -->
<g id="edge36" class="edge">
<title>Node184&#45;&gt;Node108</title>
<path fill="none" stroke="midnightblue" d="M4395.12,-159.39C4067.37,-158.64 2663.69,-152.9 2228,-109 2214.07,-107.6 2199.26,-105.42 2185.15,-103"/>
<polygon fill="midnightblue" stroke="midnightblue" points="4395.4,-162.89 4405.41,-159.41 4395.42,-155.89 4395.4,-162.89"/>
</g>
<!-- Node184&#45;&gt;Node112 -->
<g id="edge60" class="edge">
<title>Node184&#45;&gt;Node112</title>
<path fill="none" stroke="midnightblue" d="M4395.02,-159.47C4084.58,-159.08 2815.08,-154.65 2420,-109 2407.91,-107.6 2395.08,-105.43 2382.87,-103.01"/>
<polygon fill="midnightblue" stroke="midnightblue" points="4395.22,-162.97 4405.22,-159.48 4395.23,-155.97 4395.22,-162.97"/>
</g>
<!-- Node184&#45;&gt;Node113 -->
<g id="edge61" class="edge">
<title>Node184&#45;&gt;Node113</title>
<path fill="none" stroke="midnightblue" d="M4395.15,-159.85C4098.86,-161.03 2931.05,-162.12 2568,-109 2558.65,-107.63 2548.8,-105.48 2539.43,-103.09"/>
<polygon fill="midnightblue" stroke="midnightblue" points="4395.33,-163.35 4405.32,-159.81 4395.3,-156.35 4395.33,-163.35"/>
</g>
<!-- Node65 -->
<g id="node24" class="node">
<title>Node65</title>
<g id="a_node24"><a xlink:href="CFGPrinter_8h.html" target="_top" xlink:title=" ">
<polygon fill="none" stroke="red" points="6041.5,-73 6041.5,-103 6162.5,-103 6162.5,-73 6041.5,-73"/>
<text text-anchor="start" x="6049.5" y="-91" font-family="Helvetica,sans-Serif" font-size="10.00">include/llvm/Analysis</text>
<text text-anchor="middle" x="6102" y="-80" font-family="Helvetica,sans-Serif" font-size="10.00">/CFGPrinter.h</text>
</a>
</g>
</g>
<!-- Node184&#45;&gt;Node65 -->
<g id="edge30" class="edge">
<title>Node184&#45;&gt;Node65</title>
<path fill="none" stroke="midnightblue" d="M4532.73,-159.53C4795.52,-159.3 5736.75,-155.21 6032,-109 6040.87,-107.61 6050.2,-105.46 6059.06,-103.06"/>
<polygon fill="midnightblue" stroke="midnightblue" points="4532.56,-156.03 4522.56,-159.54 4532.57,-163.03 4532.56,-156.03"/>
</g>
<!-- Node185 -->
<g id="node25" class="node">
<title>Node185</title>
<g id="a_node25"><a xlink:href="CodeView_2Formatters_8h.html" target="_top" xlink:title=" ">
<polygon fill="none" stroke="red" points="6181,-73 6181,-103 6315,-103 6315,-73 6181,-73"/>
<text text-anchor="start" x="6189" y="-91" font-family="Helvetica,sans-Serif" font-size="10.00">include/llvm/DebugInfo</text>
<text text-anchor="middle" x="6248" y="-80" font-family="Helvetica,sans-Serif" font-size="10.00">/CodeView/Formatters.h</text>
</a>
</g>
</g>
<!-- Node184&#45;&gt;Node185 -->
<g id="edge31" class="edge">
<title>Node184&#45;&gt;Node185</title>
<path fill="none" stroke="midnightblue" d="M4533.2,-159.55C4811.24,-159.45 5847.69,-155.84 6172,-109 6181.59,-107.62 6191.7,-105.46 6201.32,-103.07"/>
<polygon fill="midnightblue" stroke="midnightblue" points="4532.85,-156.05 4522.85,-159.56 4532.85,-163.05 4532.85,-156.05"/>
</g>
<!-- Node187 -->
<g id="node26" class="node">
<title>Node187</title>
<g id="a_node26"><a xlink:href="TypeDumpVisitor_8cpp.html" target="_top" xlink:title=" ">
<polygon fill="none" stroke="black" points="6199,-0.5 6199,-30.5 6333,-30.5 6333,-0.5 6199,-0.5"/>
<text text-anchor="start" x="6207" y="-18.5" font-family="Helvetica,sans-Serif" font-size="10.00">lib/DebugInfo/CodeView</text>
<text text-anchor="middle" x="6266" y="-7.5" font-family="Helvetica,sans-Serif" font-size="10.00">/TypeDumpVisitor.cpp</text>
</a>
</g>
</g>
<!-- Node184&#45;&gt;Node187 -->
<g id="edge42" class="edge">
<title>Node184&#45;&gt;Node187</title>
<path fill="none" stroke="midnightblue" d="M4533.13,-158.93C4866.36,-156.03 6292.17,-141.71 6324,-109 6337.02,-95.62 6331.73,-83.99 6324,-67 6317.09,-51.81 6303.09,-39.41 6290.59,-30.71"/>
<polygon fill="midnightblue" stroke="midnightblue" points="4532.63,-155.43 4522.67,-159.02 4532.69,-162.43 4532.63,-155.43"/>
</g>
<!-- Node189 -->
<g id="node27" class="node">
<title>Node189</title>
<g id="a_node27"><a xlink:href="JITLink_8h.html" target="_top" xlink:title=" ">
<polygon fill="none" stroke="red" points="6371,-73 6371,-103 6531,-103 6531,-73 6371,-73"/>
<text text-anchor="start" x="6379" y="-91" font-family="Helvetica,sans-Serif" font-size="10.00">include/llvm/ExecutionEngine</text>
<text text-anchor="middle" x="6451" y="-80" font-family="Helvetica,sans-Serif" font-size="10.00">/JITLink/JITLink.h</text>
</a>
</g>
</g>
<!-- Node184&#45;&gt;Node189 -->
<g id="edge34" class="edge">
<title>Node184&#45;&gt;Node189</title>
<path fill="none" stroke="midnightblue" d="M4532.68,-159.35C4828.23,-158.45 5993.22,-152.18 6357,-109 6368.76,-107.6 6381.23,-105.44 6393.11,-103.05"/>
<polygon fill="midnightblue" stroke="midnightblue" points="4532.52,-155.85 4522.53,-159.38 4532.54,-162.85 4532.52,-155.85"/>
</g>
<!-- Node220 -->
<g id="node28" class="node">
<title>Node220</title>
<g id="a_node28"><a xlink:href="ELFLinkGraphBuilder_8h.html" target="_top" xlink:title=" ">
<polygon fill="none" stroke="red" points="6423,-0.5 6423,-30.5 6587,-30.5 6587,-0.5 6423,-0.5"/>
<text text-anchor="start" x="6431" y="-18.5" font-family="Helvetica,sans-Serif" font-size="10.00">lib/ExecutionEngine</text>
<text text-anchor="middle" x="6505" y="-7.5" font-family="Helvetica,sans-Serif" font-size="10.00">/JITLink/ELFLinkGraphBuilder.h</text>
</a>
</g>
</g>
<!-- Node184&#45;&gt;Node220 -->
<g id="edge56" class="edge">
<title>Node184&#45;&gt;Node220</title>
<path fill="none" stroke="midnightblue" d="M4532.93,-159.13C4888.93,-157.08 6504.16,-145.73 6540,-109 6561.47,-87 6535.8,-50.54 6518.42,-30.6"/>
<polygon fill="midnightblue" stroke="midnightblue" points="4532.75,-155.63 4522.77,-159.19 4532.79,-162.63 4532.75,-155.63"/>
</g>
<!-- Node225 -->
<g id="node29" class="node">
<title>Node225</title>
<g id="a_node29"><a xlink:href="JSON_8h.html" target="_top" xlink:title="This file supports working with JSON data.">
<polygon fill="none" stroke="red" points="6587.5,-73 6587.5,-103 6704.5,-103 6704.5,-73 6587.5,-73"/>
<text text-anchor="start" x="6595.5" y="-91" font-family="Helvetica,sans-Serif" font-size="10.00">include/llvm/Support</text>
<text text-anchor="middle" x="6646" y="-80" font-family="Helvetica,sans-Serif" font-size="10.00">/JSON.h</text>
</a>
</g>
</g>
<!-- Node184&#45;&gt;Node225 -->
<g id="edge37" class="edge">
<title>Node184&#45;&gt;Node225</title>
<path fill="none" stroke="midnightblue" d="M4532.7,-158.85C4872.76,-155.49 6367.67,-139.13 6573,-109 6582.36,-107.63 6592.23,-105.44 6601.58,-103.02"/>
<polygon fill="midnightblue" stroke="midnightblue" points="4532.47,-155.35 4522.51,-158.95 4532.54,-162.35 4532.47,-155.35"/>
</g>
<!-- Node230 -->
<g id="node30" class="node">
<title>Node230</title>
<g id="a_node30"><a xlink:href="StackSafetyAnalysis_8cpp.html" target="_top" xlink:title=" ">
<polygon fill="none" stroke="black" points="2577,-73 2577,-103 2711,-103 2711,-73 2577,-73"/>
<text text-anchor="start" x="2585" y="-91" font-family="Helvetica,sans-Serif" font-size="10.00">lib/Analysis/StackSafety</text>
<text text-anchor="middle" x="2644" y="-80" font-family="Helvetica,sans-Serif" font-size="10.00">Analysis.cpp</text>
</a>
</g>
</g>
<!-- Node184&#45;&gt;Node230 -->
<g id="edge38" class="edge">
<title>Node184&#45;&gt;Node230</title>
<path fill="none" stroke="midnightblue" d="M4395.18,-159.6C4114.04,-159.7 3051.87,-156.83 2720,-109 2710.41,-107.62 2700.3,-105.46 2690.68,-103.07"/>
<polygon fill="midnightblue" stroke="midnightblue" points="4395.25,-163.1 4405.25,-159.6 4395.24,-156.1 4395.25,-163.1"/>
</g>
<!-- Node6 -->
<g id="node31" class="node">
<title>Node6</title>
<g id="a_node31"><a xlink:href="CodeViewDebug_8cpp.html" target="_top" xlink:title=" ">
<polygon fill="none" stroke="black" points="2729.5,-73 2729.5,-103 2862.5,-103 2862.5,-73 2729.5,-73"/>
<text text-anchor="start" x="2737.5" y="-91" font-family="Helvetica,sans-Serif" font-size="10.00">lib/CodeGen/AsmPrinter</text>
<text text-anchor="middle" x="2796" y="-80" font-family="Helvetica,sans-Serif" font-size="10.00">/CodeViewDebug.cpp</text>
</a>
</g>
</g>
<!-- Node184&#45;&gt;Node6 -->
<g id="edge39" class="edge">
<title>Node184&#45;&gt;Node6</title>
<path fill="none" stroke="midnightblue" d="M4395.15,-159.38C4129.69,-158.6 3172.59,-152.74 2872,-109 2862.41,-107.6 2852.3,-105.45 2842.69,-103.05"/>
<polygon fill="midnightblue" stroke="midnightblue" points="4395.4,-162.88 4405.41,-159.41 4395.42,-155.88 4395.4,-162.88"/>
</g>
<!-- Node231 -->
<g id="node32" class="node">
<title>Node231</title>
<g id="a_node32"><a xlink:href="MIRYamlMapping_8cpp.html" target="_top" xlink:title=" ">
<polygon fill="none" stroke="black" points="2881,-78.5 2881,-97.5 3063,-97.5 3063,-78.5 2881,-78.5"/>
<text text-anchor="middle" x="2972" y="-85.5" font-family="Helvetica,sans-Serif" font-size="10.00">lib/CodeGen/MIRYamlMapping.cpp</text>
</a>
</g>
</g>
<!-- Node184&#45;&gt;Node231 -->
<g id="edge40" class="edge">
<title>Node184&#45;&gt;Node231</title>
<path fill="none" stroke="midnightblue" d="M4395.1,-158.47C4151.64,-154.61 3332.6,-139.59 3072,-109 3050.37,-106.46 3026.44,-101.75 3007.41,-97.53"/>
<polygon fill="midnightblue" stroke="midnightblue" points="4395.17,-161.97 4405.23,-158.63 4395.28,-154.97 4395.17,-161.97"/>
</g>
<!-- Node232 -->
<g id="node33" class="node">
<title>Node232</title>
<g id="a_node33"><a xlink:href="RecordName_8cpp.html" target="_top" xlink:title=" ">
<polygon fill="none" stroke="black" points="3081,-73 3081,-103 3215,-103 3215,-73 3081,-73"/>
<text text-anchor="start" x="3089" y="-91" font-family="Helvetica,sans-Serif" font-size="10.00">lib/DebugInfo/CodeView</text>
<text text-anchor="middle" x="3148" y="-80" font-family="Helvetica,sans-Serif" font-size="10.00">/RecordName.cpp</text>
</a>
</g>
</g>
<!-- Node184&#45;&gt;Node232 -->
<g id="edge41" class="edge">
<title>Node184&#45;&gt;Node232</title>
<path fill="none" stroke="midnightblue" d="M4395.45,-158.66C4169.98,-155.6 3452.73,-143.34 3224,-109 3214.56,-107.58 3204.59,-105.44 3195.1,-103.09"/>
<polygon fill="midnightblue" stroke="midnightblue" points="4395.45,-162.16 4405.5,-158.8 4395.55,-155.16 4395.45,-162.16"/>
</g>
<!-- Node233 -->
<g id="node34" class="node">
<title>Node233</title>
<g id="a_node34"><a xlink:href="DWARFAbbreviationDeclaration_8cpp.html" target="_top" xlink:title=" ">
<polygon fill="none" stroke="black" points="3233.5,-73 3233.5,-103 3426.5,-103 3426.5,-73 3233.5,-73"/>
<text text-anchor="start" x="3241.5" y="-91" font-family="Helvetica,sans-Serif" font-size="10.00">lib/DebugInfo/DWARF</text>
<text text-anchor="middle" x="3330" y="-80" font-family="Helvetica,sans-Serif" font-size="10.00">/DWARFAbbreviationDeclaration.cpp</text>
</a>
</g>
</g>
<!-- Node184&#45;&gt;Node233 -->
<g id="edge43" class="edge">
<title>Node184&#45;&gt;Node233</title>
<path fill="none" stroke="midnightblue" d="M4395.41,-159.42C4229.74,-158.52 3794.88,-151.89 3435,-109 3422.38,-107.5 3408.99,-105.36 3396.16,-103.05"/>
<polygon fill="midnightblue" stroke="midnightblue" points="4395.44,-162.92 4405.46,-159.47 4395.47,-155.92 4395.44,-162.92"/>
</g>
<!-- Node234 -->
<g id="node35" class="node">
<title>Node234</title>
<g id="a_node35"><a xlink:href="DWARFAcceleratorTable_8cpp.html" target="_top" xlink:title=" ">
<polygon fill="none" stroke="black" points="3444.5,-73 3444.5,-103 3599.5,-103 3599.5,-73 3444.5,-73"/>
<text text-anchor="start" x="3452.5" y="-91" font-family="Helvetica,sans-Serif" font-size="10.00">lib/DebugInfo/DWARF</text>
<text text-anchor="middle" x="3522" y="-80" font-family="Helvetica,sans-Serif" font-size="10.00">/DWARFAcceleratorTable.cpp</text>
</a>
</g>
</g>
<!-- Node184&#45;&gt;Node234 -->
<g id="edge44" class="edge">
<title>Node184&#45;&gt;Node234</title>
<path fill="none" stroke="midnightblue" d="M4395.21,-159.32C4249.48,-158.09 3899.17,-150.63 3609,-109 3598.57,-107.5 3587.54,-105.39 3576.97,-103.1"/>
<polygon fill="midnightblue" stroke="midnightblue" points="4395.32,-162.82 4405.35,-159.4 4395.38,-155.82 4395.32,-162.82"/>
</g>
<!-- Node235 -->
<g id="node36" class="node">
<title>Node235</title>
<g id="a_node36"><a xlink:href="DWARFDebugLine_8cpp.html" target="_top" xlink:title=" ">
<polygon fill="none" stroke="black" points="3618,-73 3618,-103 3746,-103 3746,-73 3618,-73"/>
<text text-anchor="start" x="3626" y="-91" font-family="Helvetica,sans-Serif" font-size="10.00">lib/DebugInfo/DWARF</text>
<text text-anchor="middle" x="3682" y="-80" font-family="Helvetica,sans-Serif" font-size="10.00">/DWARFDebugLine.cpp</text>
</a>
</g>
</g>
<!-- Node184&#45;&gt;Node235 -->
<g id="edge45" class="edge">
<title>Node184&#45;&gt;Node235</title>
<path fill="none" stroke="midnightblue" d="M4395.17,-159.07C4267.87,-157.28 3987.42,-148.72 3755,-109 3746.19,-107.49 3736.91,-105.38 3728.03,-103.08"/>
<polygon fill="midnightblue" stroke="midnightblue" points="4395.13,-162.57 4405.17,-159.2 4395.22,-155.57 4395.13,-162.57"/>
</g>
<!-- Node236 -->
<g id="node37" class="node">
<title>Node236</title>
<g id="a_node37"><a xlink:href="DWARFDie_8cpp.html" target="_top" xlink:title=" ">
<polygon fill="none" stroke="black" points="3764.5,-73 3764.5,-103 3885.5,-103 3885.5,-73 3764.5,-73"/>
<text text-anchor="start" x="3772.5" y="-91" font-family="Helvetica,sans-Serif" font-size="10.00">lib/DebugInfo/DWARF</text>
<text text-anchor="middle" x="3825" y="-80" font-family="Helvetica,sans-Serif" font-size="10.00">/DWARFDie.cpp</text>
</a>
</g>
</g>
<!-- Node184&#45;&gt;Node236 -->
<g id="edge46" class="edge">
<title>Node184&#45;&gt;Node236</title>
<path fill="none" stroke="midnightblue" d="M4395.28,-157.6C4287.75,-153.69 4073.53,-142.12 3895,-109 3886.67,-107.46 3877.91,-105.35 3869.51,-103.08"/>
<polygon fill="midnightblue" stroke="midnightblue" points="4395.23,-161.1 4405.35,-157.96 4395.48,-154.11 4395.23,-161.1"/>
</g>
<!-- Node237 -->
<g id="node38" class="node">
<title>Node237</title>
<g id="a_node38"><a xlink:href="DWARFGdbIndex_8cpp.html" target="_top" xlink:title=" ">
<polygon fill="none" stroke="black" points="3904,-73 3904,-103 4026,-103 4026,-73 3904,-73"/>
<text text-anchor="start" x="3912" y="-91" font-family="Helvetica,sans-Serif" font-size="10.00">lib/DebugInfo/DWARF</text>
<text text-anchor="middle" x="3965" y="-80" font-family="Helvetica,sans-Serif" font-size="10.00">/DWARFGdbIndex.cpp</text>
</a>
</g>
</g>
<!-- Node184&#45;&gt;Node237 -->
<g id="edge47" class="edge">
<title>Node184&#45;&gt;Node237</title>
<path fill="none" stroke="midnightblue" d="M4395.18,-154.83C4309.99,-148.27 4160.77,-134.2 4035,-109 4026.94,-107.39 4018.47,-105.3 4010.3,-103.09"/>
<polygon fill="midnightblue" stroke="midnightblue" points="4395.01,-158.33 4405.24,-155.6 4395.54,-151.35 4395.01,-158.33"/>
</g>
<!-- Node238 -->
<g id="node39" class="node">
<title>Node238</title>
<g id="a_node39"><a xlink:href="DWARFLocationExpression_8cpp.html" target="_top" xlink:title=" ">
<polygon fill="none" stroke="black" points="4044,-73 4044,-103 4214,-103 4214,-73 4044,-73"/>
<text text-anchor="start" x="4052" y="-91" font-family="Helvetica,sans-Serif" font-size="10.00">lib/DebugInfo/DWARF</text>
<text text-anchor="middle" x="4129" y="-80" font-family="Helvetica,sans-Serif" font-size="10.00">/DWARFLocationExpression.cpp</text>
</a>
</g>
</g>
<!-- Node184&#45;&gt;Node238 -->
<g id="edge48" class="edge">
<title>Node184&#45;&gt;Node238</title>
<path fill="none" stroke="midnightblue" d="M4395.35,-145.06C4347.35,-134.96 4281.77,-121.16 4224,-109 4214.85,-107.07 4205.2,-105.04 4195.7,-103.04"/>
<polygon fill="midnightblue" stroke="midnightblue" points="4394.81,-148.52 4405.31,-147.15 4396.25,-141.67 4394.81,-148.52"/>
</g>
<!-- Node239 -->
<g id="node40" class="node">
<title>Node239</title>
<g id="a_node40"><a xlink:href="DWARFVerifier_8cpp.html" target="_top" xlink:title=" ">
<polygon fill="none" stroke="black" points="4232.5,-73 4232.5,-103 4353.5,-103 4353.5,-73 4232.5,-73"/>
<text text-anchor="start" x="4240.5" y="-91" font-family="Helvetica,sans-Serif" font-size="10.00">lib/DebugInfo/DWARF</text>
<text text-anchor="middle" x="4293" y="-80" font-family="Helvetica,sans-Serif" font-size="10.00">/DWARFVerifier.cpp</text>
</a>
</g>
</g>
<!-- Node184&#45;&gt;Node239 -->
<g id="edge49" class="edge">
<title>Node184&#45;&gt;Node239</title>
<path fill="none" stroke="midnightblue" d="M4420.34,-141.5C4391.38,-129.56 4353.91,-114.11 4327.13,-103.07"/>
<polygon fill="midnightblue" stroke="midnightblue" points="4419.23,-144.83 4429.81,-145.4 4421.9,-138.36 4419.23,-144.83"/>
</g>
<!-- Node240 -->
<g id="node41" class="node">
<title>Node240</title>
<g id="a_node41"><a xlink:href="MSFBuilder_8cpp.html" target="_top" xlink:title=" ">
<polygon fill="none" stroke="black" points="4372,-78.5 4372,-97.5 4556,-97.5 4556,-78.5 4372,-78.5"/>
<text text-anchor="middle" x="4464" y="-85.5" font-family="Helvetica,sans-Serif" font-size="10.00">lib/DebugInfo/MSF/MSFBuilder.cpp</text>
</a>
</g>
</g>
<!-- Node184&#45;&gt;Node240 -->
<g id="edge50" class="edge">
<title>Node184&#45;&gt;Node240</title>
<path fill="none" stroke="midnightblue" d="M4464,-135.09C4464,-122.21 4464,-107.2 4464,-97.89"/>
<polygon fill="midnightblue" stroke="midnightblue" points="4460.5,-135.23 4464,-145.23 4467.5,-135.23 4460.5,-135.23"/>
</g>
<!-- Node241 -->
<g id="node42" class="node">
<title>Node241</title>
<g id="a_node42"><a xlink:href="DIASession_8cpp.html" target="_top" xlink:title=" ">
<polygon fill="none" stroke="black" points="4574.5,-73 4574.5,-103 4699.5,-103 4699.5,-73 4574.5,-73"/>
<text text-anchor="start" x="4582.5" y="-91" font-family="Helvetica,sans-Serif" font-size="10.00">lib/DebugInfo/PDB/DIA</text>
<text text-anchor="middle" x="4637" y="-80" font-family="Helvetica,sans-Serif" font-size="10.00">/DIASession.cpp</text>
</a>
</g>
</g>
<!-- Node184&#45;&gt;Node241 -->
<g id="edge51" class="edge">
<title>Node184&#45;&gt;Node241</title>
<path fill="none" stroke="midnightblue" d="M4508.17,-141.5C4537.47,-129.56 4575.37,-114.11 4602.47,-103.07"/>
<polygon fill="midnightblue" stroke="midnightblue" points="4506.53,-138.39 4498.59,-145.4 4509.17,-144.87 4506.53,-138.39"/>
</g>
<!-- Node242 -->
<g id="node43" class="node">
<title>Node242</title>
<g id="a_node43"><a xlink:href="NativeRawSymbol_8cpp.html" target="_top" xlink:title=" ">
<polygon fill="none" stroke="black" points="4718,-73 4718,-103 4858,-103 4858,-73 4718,-73"/>
<text text-anchor="start" x="4726" y="-91" font-family="Helvetica,sans-Serif" font-size="10.00">lib/DebugInfo/PDB/Native</text>
<text text-anchor="middle" x="4788" y="-80" font-family="Helvetica,sans-Serif" font-size="10.00">/NativeRawSymbol.cpp</text>
</a>
</g>
</g>
<!-- Node184&#45;&gt;Node242 -->
<g id="edge52" class="edge">
<title>Node184&#45;&gt;Node242</title>
<path fill="none" stroke="midnightblue" d="M4532.47,-146.24C4581.7,-136.5 4649.6,-122.63 4709,-109 4717,-107.16 4725.43,-105.13 4733.68,-103.09"/>
<polygon fill="midnightblue" stroke="midnightblue" points="4531.71,-142.82 4522.57,-148.19 4533.06,-149.69 4531.71,-142.82"/>
</g>
<!-- Node243 -->
<g id="node44" class="node">
<title>Node243</title>
<g id="a_node44"><a xlink:href="NativeTypeBuiltin_8cpp.html" target="_top" xlink:title=" ">
<polygon fill="none" stroke="black" points="4876,-73 4876,-103 5016,-103 5016,-73 4876,-73"/>
<text text-anchor="start" x="4884" y="-91" font-family="Helvetica,sans-Serif" font-size="10.00">lib/DebugInfo/PDB/Native</text>
<text text-anchor="middle" x="4946" y="-80" font-family="Helvetica,sans-Serif" font-size="10.00">/NativeTypeBuiltin.cpp</text>
</a>
</g>
</g>
<!-- Node184&#45;&gt;Node243 -->
<g id="edge53" class="edge">
<title>Node184&#45;&gt;Node243</title>
<path fill="none" stroke="midnightblue" d="M4532.77,-153.49C4613.31,-145.85 4750.55,-130.95 4867,-109 4875.9,-107.32 4885.28,-105.23 4894.36,-103.04"/>
<polygon fill="midnightblue" stroke="midnightblue" points="4532.38,-150.01 4522.75,-154.43 4533.03,-156.98 4532.38,-150.01"/>
</g>
<!-- Node244 -->
<g id="node45" class="node">
<title>Node244</title>
<g id="a_node45"><a xlink:href="NativeTypeEnum_8cpp.html" target="_top" xlink:title=" ">
<polygon fill="none" stroke="black" points="5034,-73 5034,-103 5174,-103 5174,-73 5034,-73"/>
<text text-anchor="start" x="5042" y="-91" font-family="Helvetica,sans-Serif" font-size="10.00">lib/DebugInfo/PDB/Native</text>
<text text-anchor="middle" x="5104" y="-80" font-family="Helvetica,sans-Serif" font-size="10.00">/NativeTypeEnum.cpp</text>
</a>
</g>
</g>
<!-- Node184&#45;&gt;Node244 -->
<g id="edge54" class="edge">
<title>Node184&#45;&gt;Node244</title>
<path fill="none" stroke="midnightblue" d="M4532.8,-156.81C4639.04,-151.88 4849.14,-138.98 5025,-109 5034.34,-107.41 5044.21,-105.28 5053.68,-103"/>
<polygon fill="midnightblue" stroke="midnightblue" points="4532.37,-153.33 4522.54,-157.28 4532.69,-160.32 4532.37,-153.33"/>
</g>
<!-- Node55 -->
<g id="node46" class="node">
<title>Node55</title>
<g id="a_node46"><a xlink:href="DWARFLinker_8cpp.html" target="_top" xlink:title=" ">
<polygon fill="none" stroke="black" points="5192.5,-78.5 5192.5,-97.5 5377.5,-97.5 5377.5,-78.5 5192.5,-78.5"/>
<text text-anchor="middle" x="5285" y="-85.5" font-family="Helvetica,sans-Serif" font-size="10.00">lib/DWARFLinker/DWARFLinker.cpp</text>
</a>
</g>
</g>
<!-- Node184&#45;&gt;Node55 -->
<g id="edge55" class="edge">
<title>Node184&#45;&gt;Node55</title>
<path fill="none" stroke="midnightblue" d="M4533.05,-157.49C4661.5,-153.11 4945.67,-140.48 5183,-109 5204.47,-106.15 5228.22,-101.58 5247.4,-97.53"/>
<polygon fill="midnightblue" stroke="midnightblue" points="4532.84,-153.99 4522.96,-157.82 4533.08,-160.99 4532.84,-153.99"/>
</g>
<!-- Node30 -->
<g id="node47" class="node">
<title>Node30</title>
<g id="a_node47"><a xlink:href="CompileOnDemandLayer_8cpp.html" target="_top" xlink:title=" ">
<polygon fill="none" stroke="black" points="5395.5,-73 5395.5,-103 5576.5,-103 5576.5,-73 5395.5,-73"/>
<text text-anchor="start" x="5403.5" y="-91" font-family="Helvetica,sans-Serif" font-size="10.00">lib/ExecutionEngine</text>
<text text-anchor="middle" x="5486" y="-80" font-family="Helvetica,sans-Serif" font-size="10.00">/Orc/CompileOnDemandLayer.cpp</text>
</a>
</g>
</g>
<!-- Node184&#45;&gt;Node30 -->
<g id="edge57" class="edge">
<title>Node184&#45;&gt;Node30</title>
<path fill="none" stroke="midnightblue" d="M4532.81,-159.13C4686.59,-157.56 5069.55,-149.53 5387,-109 5398.91,-107.48 5411.54,-105.34 5423.65,-103.02"/>
<polygon fill="midnightblue" stroke="midnightblue" points="4532.55,-155.63 4522.58,-159.23 4532.61,-162.63 4532.55,-155.63"/>
</g>
<!-- Node245 -->
<g id="node48" class="node">
<title>Node245</title>
<g id="a_node48"><a xlink:href="ExecutionEngine_2Orc_2Core_8cpp.html" target="_top" xlink:title=" ">
<polygon fill="none" stroke="black" points="5595,-73 5595,-103 5707,-103 5707,-73 5595,-73"/>
<text text-anchor="start" x="5603" y="-91" font-family="Helvetica,sans-Serif" font-size="10.00">lib/ExecutionEngine</text>
<text text-anchor="middle" x="5651" y="-80" font-family="Helvetica,sans-Serif" font-size="10.00">/Orc/Core.cpp</text>
</a>
</g>
</g>
<!-- Node184&#45;&gt;Node245 -->
<g id="edge58" class="edge">
<title>Node184&#45;&gt;Node245</title>
<path fill="none" stroke="midnightblue" d="M4532.81,-158.68C4744.16,-155.82 5381.97,-144.39 5586,-109 5594.14,-107.59 5602.69,-105.45 5610.82,-103.09"/>
<polygon fill="midnightblue" stroke="midnightblue" points="4532.72,-155.18 4522.77,-158.82 4532.81,-162.18 4532.72,-155.18"/>
</g>
<!-- Node31 -->
<g id="node49" class="node">
<title>Node31</title>
<g id="a_node49"><a xlink:href="ExecutionUtils_8cpp.html" target="_top" xlink:title=" ">
<polygon fill="none" stroke="black" points="5725.5,-73 5725.5,-103 5854.5,-103 5854.5,-73 5725.5,-73"/>
<text text-anchor="start" x="5733.5" y="-91" font-family="Helvetica,sans-Serif" font-size="10.00">lib/ExecutionEngine</text>
<text text-anchor="middle" x="5790" y="-80" font-family="Helvetica,sans-Serif" font-size="10.00">/Orc/ExecutionUtils.cpp</text>
</a>
</g>
</g>
<!-- Node184&#45;&gt;Node31 -->
<g id="edge59" class="edge">
<title>Node184&#45;&gt;Node31</title>
<path fill="none" stroke="midnightblue" d="M4532.83,-158.75C4760.07,-155.95 5485.04,-144.41 5716,-109 5725.21,-107.59 5734.91,-105.45 5744.16,-103.1"/>
<polygon fill="midnightblue" stroke="midnightblue" points="4532.66,-155.25 4522.71,-158.87 4532.75,-162.25 4532.66,-155.25"/>
</g>
<!-- Node246 -->
<g id="node50" class="node">
<title>Node246</title>
<g id="a_node50"><a xlink:href="RegisterEHFrames_8cpp.html" target="_top" xlink:title=" ">
<polygon fill="none" stroke="black" points="5873,-67.5 5873,-108.5 6023,-108.5 6023,-67.5 5873,-67.5"/>
<text text-anchor="start" x="5881" y="-96.5" font-family="Helvetica,sans-Serif" font-size="10.00">lib/ExecutionEngine</text>
<text text-anchor="start" x="5881" y="-85.5" font-family="Helvetica,sans-Serif" font-size="10.00">/Orc/TargetProcess/Register</text>
<text text-anchor="middle" x="5948" y="-74.5" font-family="Helvetica,sans-Serif" font-size="10.00">EHFrames.cpp</text>
</a>
</g>
</g>
<!-- Node184&#45;&gt;Node246 -->
<g id="edge62" class="edge">
<title>Node184&#45;&gt;Node246</title>
<path fill="none" stroke="midnightblue" d="M4532.93,-158.82C4777.4,-156.11 5602.35,-144.51 5864,-109 5866.82,-108.62 5869.69,-108.18 5872.58,-107.7"/>
<polygon fill="midnightblue" stroke="midnightblue" points="4532.72,-155.32 4522.75,-158.93 4532.79,-162.32 4532.72,-155.32"/>
</g>
<!-- Node185&#45;&gt;Node23 -->
<g id="edge32" class="edge">
<title>Node185&#45;&gt;Node23</title>
<path fill="none" stroke="midnightblue" d="M6191.54,-70.6C6185,-69.16 6178.38,-67.9 6172,-67 5967.12,-37.99 4478.61,-20.81 4136.13,-17.21"/>
<polygon fill="midnightblue" stroke="midnightblue" points="6191.19,-74.11 6201.73,-72.99 6192.79,-67.29 6191.19,-74.11"/>
</g>
<!-- Node185&#45;&gt;Node187 -->
<g id="edge33" class="edge">
<title>Node185&#45;&gt;Node187</title>
<path fill="none" stroke="midnightblue" d="M6254.2,-62.73C6256.92,-52.07 6260.02,-39.91 6262.36,-30.75"/>
<polygon fill="midnightblue" stroke="midnightblue" points="6250.73,-62.18 6251.64,-72.73 6257.51,-63.91 6250.73,-62.18"/>
</g>
<!-- Node189&#45;&gt;Node220 -->
<g id="edge35" class="edge">
<title>Node189&#45;&gt;Node220</title>
<path fill="none" stroke="midnightblue" d="M6468.07,-64.71C6476.58,-53.6 6486.63,-40.49 6494.09,-30.75"/>
<polygon fill="midnightblue" stroke="midnightblue" points="6465.23,-62.67 6461.93,-72.73 6470.79,-66.92 6465.23,-62.67"/>
</g>
</g>
</svg>
