<?xml version="1.0" encoding="UTF-8" standalone="no"?>
<!DOCTYPE svg PUBLIC "-//W3C//DTD SVG 1.1//EN"
 "http://www.w3.org/Graphics/SVG/1.1/DTD/svg11.dtd">
<!-- Generated by graphviz version 2.42.4 (0)
 -->
<!-- Title: lib/Target/Hexagon/HexagonSubtarget.h Pages: 1 -->
<svg width="4721pt" height="240pt"
 viewBox="0.00 0.00 4721.00 240.00" xmlns="http://www.w3.org/2000/svg" xmlns:xlink="http://www.w3.org/1999/xlink">
<g id="graph0" class="graph" transform="scale(1 1) rotate(0) translate(4 236)">
<title>lib/Target/Hexagon/HexagonSubtarget.h</title>
<!-- Node1 -->
<g id="node1" class="node">
<title>Node1</title>
<g id="a_node1"><a xlink:title=" ">
<polygon fill="#bfbfbf" stroke="black" points="1958,-201.5 1958,-231.5 2077,-231.5 2077,-201.5 1958,-201.5"/>
<text text-anchor="start" x="1966" y="-219.5" font-family="Helvetica,sans-Serif" font-size="10.00">lib/Target/Hexagon</text>
<text text-anchor="middle" x="2017.5" y="-208.5" font-family="Helvetica,sans-Serif" font-size="10.00">/HexagonSubtarget.h</text>
</a>
</g>
</g>
<!-- Node2 -->
<g id="node2" class="node">
<title>Node2</title>
<g id="a_node2"><a xlink:href="HexagonAsmPrinter_8cpp.html" target="_top" xlink:title=" ">
<polygon fill="none" stroke="black" points="0,-67.5 0,-97.5 137,-97.5 137,-67.5 0,-67.5"/>
<text text-anchor="start" x="8" y="-85.5" font-family="Helvetica,sans-Serif" font-size="10.00">lib/Target/Hexagon</text>
<text text-anchor="middle" x="68.5" y="-74.5" font-family="Helvetica,sans-Serif" font-size="10.00">/HexagonAsmPrinter.cpp</text>
</a>
</g>
</g>
<!-- Node1&#45;&gt;Node2 -->
<g id="edge1" class="edge">
<title>Node1&#45;&gt;Node2</title>
<path fill="none" stroke="midnightblue" d="M1947.81,-214.84C1606.28,-211.44 124.27,-194.98 87.5,-165 67.68,-148.84 66.13,-116.38 67.1,-97.67"/>
<polygon fill="midnightblue" stroke="midnightblue" points="1947.78,-218.34 1957.81,-214.93 1947.85,-211.34 1947.78,-218.34"/>
</g>
<!-- Node3 -->
<g id="node3" class="node">
<title>Node3</title>
<g id="a_node3"><a xlink:href="HexagonAsmPrinter_8h.html" target="_top" xlink:title=" ">
<polygon fill="none" stroke="black" points="97,-134.5 97,-164.5 222,-164.5 222,-134.5 97,-134.5"/>
<text text-anchor="start" x="105" y="-152.5" font-family="Helvetica,sans-Serif" font-size="10.00">lib/Target/Hexagon</text>
<text text-anchor="middle" x="159.5" y="-141.5" font-family="Helvetica,sans-Serif" font-size="10.00">/HexagonAsmPrinter.h</text>
</a>
</g>
</g>
<!-- Node1&#45;&gt;Node3 -->
<g id="edge2" class="edge">
<title>Node1&#45;&gt;Node3</title>
<path fill="none" stroke="midnightblue" d="M1947.54,-215.14C1660.46,-213.42 571.99,-204.39 230.5,-165 227.75,-164.68 224.95,-164.31 222.13,-163.9"/>
<polygon fill="midnightblue" stroke="midnightblue" points="1947.79,-218.64 1957.81,-215.2 1947.83,-211.64 1947.79,-218.64"/>
</g>
<!-- Node5 -->
<g id="node5" class="node">
<title>Node5</title>
<g id="a_node5"><a xlink:href="HexagonBitSimplify_8cpp.html" target="_top" xlink:title=" ">
<polygon fill="none" stroke="black" points="240,-134.5 240,-164.5 375,-164.5 375,-134.5 240,-134.5"/>
<text text-anchor="start" x="248" y="-152.5" font-family="Helvetica,sans-Serif" font-size="10.00">lib/Target/Hexagon</text>
<text text-anchor="middle" x="307.5" y="-141.5" font-family="Helvetica,sans-Serif" font-size="10.00">/HexagonBitSimplify.cpp</text>
</a>
</g>
</g>
<!-- Node1&#45;&gt;Node5 -->
<g id="edge5" class="edge">
<title>Node1&#45;&gt;Node5</title>
<path fill="none" stroke="midnightblue" d="M1947.77,-214.81C1676.83,-211.9 693.71,-199.17 383.5,-165 380.83,-164.71 378.11,-164.37 375.37,-164"/>
<polygon fill="midnightblue" stroke="midnightblue" points="1947.83,-218.31 1957.87,-214.92 1947.9,-211.31 1947.83,-218.31"/>
</g>
<!-- Node6 -->
<g id="node6" class="node">
<title>Node6</title>
<g id="a_node6"><a xlink:href="HexagonBitTracker_8cpp.html" target="_top" xlink:title=" ">
<polygon fill="none" stroke="black" points="393,-134.5 393,-164.5 524,-164.5 524,-134.5 393,-134.5"/>
<text text-anchor="start" x="401" y="-152.5" font-family="Helvetica,sans-Serif" font-size="10.00">lib/Target/Hexagon</text>
<text text-anchor="middle" x="458.5" y="-141.5" font-family="Helvetica,sans-Serif" font-size="10.00">/HexagonBitTracker.cpp</text>
</a>
</g>
</g>
<!-- Node1&#45;&gt;Node6 -->
<g id="edge6" class="edge">
<title>Node1&#45;&gt;Node6</title>
<path fill="none" stroke="midnightblue" d="M1947.49,-214.58C1692.35,-210.98 812.69,-196.54 533.5,-165 530.47,-164.66 527.38,-164.26 524.26,-163.82"/>
<polygon fill="midnightblue" stroke="midnightblue" points="1947.69,-218.08 1957.74,-214.72 1947.79,-211.08 1947.69,-218.08"/>
</g>
<!-- Node7 -->
<g id="node7" class="node">
<title>Node7</title>
<g id="a_node7"><a xlink:href="HexagonBlockRanges_8cpp.html" target="_top" xlink:title=" ">
<polygon fill="none" stroke="black" points="542.5,-134.5 542.5,-164.5 688.5,-164.5 688.5,-134.5 542.5,-134.5"/>
<text text-anchor="start" x="550.5" y="-152.5" font-family="Helvetica,sans-Serif" font-size="10.00">lib/Target/Hexagon</text>
<text text-anchor="middle" x="615.5" y="-141.5" font-family="Helvetica,sans-Serif" font-size="10.00">/HexagonBlockRanges.cpp</text>
</a>
</g>
</g>
<!-- Node1&#45;&gt;Node7 -->
<g id="edge7" class="edge">
<title>Node1&#45;&gt;Node7</title>
<path fill="none" stroke="midnightblue" d="M1947.54,-216.18C1750.32,-217.39 1173.27,-215.92 697.5,-165 694.63,-164.69 691.7,-164.34 688.75,-163.96"/>
<polygon fill="midnightblue" stroke="midnightblue" points="1947.78,-219.68 1957.76,-216.12 1947.73,-212.68 1947.78,-219.68"/>
</g>
<!-- Node8 -->
<g id="node8" class="node">
<title>Node8</title>
<g id="a_node8"><a xlink:href="HexagonBranchRelaxation_8cpp.html" target="_top" xlink:title=" ">
<polygon fill="none" stroke="black" points="706.5,-134.5 706.5,-164.5 876.5,-164.5 876.5,-134.5 706.5,-134.5"/>
<text text-anchor="start" x="714.5" y="-152.5" font-family="Helvetica,sans-Serif" font-size="10.00">lib/Target/Hexagon</text>
<text text-anchor="middle" x="791.5" y="-141.5" font-family="Helvetica,sans-Serif" font-size="10.00">/HexagonBranchRelaxation.cpp</text>
</a>
</g>
</g>
<!-- Node1&#45;&gt;Node8 -->
<g id="edge8" class="edge">
<title>Node1&#45;&gt;Node8</title>
<path fill="none" stroke="midnightblue" d="M1947.55,-215.01C1769.75,-213.21 1286.17,-204.72 885.5,-165 882.54,-164.71 879.54,-164.38 876.5,-164.03"/>
<polygon fill="midnightblue" stroke="midnightblue" points="1947.78,-218.52 1957.81,-215.11 1947.85,-211.52 1947.78,-218.52"/>
</g>
<!-- Node9 -->
<g id="node9" class="node">
<title>Node9</title>
<g id="a_node9"><a xlink:href="HexagonConstExtenders_8cpp.html" target="_top" xlink:title=" ">
<polygon fill="none" stroke="black" points="894.5,-134.5 894.5,-164.5 1054.5,-164.5 1054.5,-134.5 894.5,-134.5"/>
<text text-anchor="start" x="902.5" y="-152.5" font-family="Helvetica,sans-Serif" font-size="10.00">lib/Target/Hexagon</text>
<text text-anchor="middle" x="974.5" y="-141.5" font-family="Helvetica,sans-Serif" font-size="10.00">/HexagonConstExtenders.cpp</text>
</a>
</g>
</g>
<!-- Node1&#45;&gt;Node9 -->
<g id="edge9" class="edge">
<title>Node1&#45;&gt;Node9</title>
<path fill="none" stroke="midnightblue" d="M1947.83,-214.4C1790,-211.35 1393.28,-200.49 1063.5,-165 1060.7,-164.7 1057.85,-164.37 1054.98,-164.01"/>
<polygon fill="midnightblue" stroke="midnightblue" points="1947.81,-217.9 1957.88,-214.59 1947.94,-210.9 1947.81,-217.9"/>
</g>
<!-- Node10 -->
<g id="node10" class="node">
<title>Node10</title>
<g id="a_node10"><a xlink:href="HexagonConstPropagation_8cpp.html" target="_top" xlink:title=" ">
<polygon fill="none" stroke="black" points="1072.5,-134.5 1072.5,-164.5 1242.5,-164.5 1242.5,-134.5 1072.5,-134.5"/>
<text text-anchor="start" x="1080.5" y="-152.5" font-family="Helvetica,sans-Serif" font-size="10.00">lib/Target/Hexagon</text>
<text text-anchor="middle" x="1157.5" y="-141.5" font-family="Helvetica,sans-Serif" font-size="10.00">/HexagonConstPropagation.cpp</text>
</a>
</g>
</g>
<!-- Node1&#45;&gt;Node10 -->
<g id="edge10" class="edge">
<title>Node1&#45;&gt;Node10</title>
<path fill="none" stroke="midnightblue" d="M1947.56,-212.93C1812.63,-207.53 1507.15,-193.09 1251.5,-165 1248.55,-164.68 1245.54,-164.32 1242.51,-163.95"/>
<polygon fill="midnightblue" stroke="midnightblue" points="1947.62,-216.44 1957.75,-213.34 1947.9,-209.44 1947.62,-216.44"/>
</g>
<!-- Node11 -->
<g id="node11" class="node">
<title>Node11</title>
<g id="a_node11"><a xlink:href="HexagonCopyToCombine_8cpp.html" target="_top" xlink:title=" ">
<polygon fill="none" stroke="black" points="1260.5,-134.5 1260.5,-164.5 1422.5,-164.5 1422.5,-134.5 1260.5,-134.5"/>
<text text-anchor="start" x="1268.5" y="-152.5" font-family="Helvetica,sans-Serif" font-size="10.00">lib/Target/Hexagon</text>
<text text-anchor="middle" x="1341.5" y="-141.5" font-family="Helvetica,sans-Serif" font-size="10.00">/HexagonCopyToCombine.cpp</text>
</a>
</g>
</g>
<!-- Node1&#45;&gt;Node11 -->
<g id="edge11" class="edge">
<title>Node1&#45;&gt;Node11</title>
<path fill="none" stroke="midnightblue" d="M1947.57,-211.15C1837.52,-203.92 1617.3,-187.94 1431.5,-165 1428.67,-164.65 1425.8,-164.28 1422.9,-163.89"/>
<polygon fill="midnightblue" stroke="midnightblue" points="1947.67,-214.66 1957.87,-211.82 1948.12,-207.68 1947.67,-214.66"/>
</g>
<!-- Node12 -->
<g id="node12" class="node">
<title>Node12</title>
<g id="a_node12"><a xlink:href="HexagonEarlyIfConv_8cpp.html" target="_top" xlink:title=" ">
<polygon fill="none" stroke="black" points="1441,-134.5 1441,-164.5 1580,-164.5 1580,-134.5 1441,-134.5"/>
<text text-anchor="start" x="1449" y="-152.5" font-family="Helvetica,sans-Serif" font-size="10.00">lib/Target/Hexagon</text>
<text text-anchor="middle" x="1510.5" y="-141.5" font-family="Helvetica,sans-Serif" font-size="10.00">/HexagonEarlyIfConv.cpp</text>
</a>
</g>
</g>
<!-- Node1&#45;&gt;Node12 -->
<g id="edge12" class="edge">
<title>Node1&#45;&gt;Node12</title>
<path fill="none" stroke="midnightblue" d="M1947.64,-208.29C1863.65,-199.36 1718.5,-183.09 1594.5,-165 1589.81,-164.32 1584.99,-163.58 1580.13,-162.81"/>
<polygon fill="midnightblue" stroke="midnightblue" points="1947.51,-211.79 1957.83,-209.37 1948.25,-204.83 1947.51,-211.79"/>
</g>
<!-- Node13 -->
<g id="node13" class="node">
<title>Node13</title>
<g id="a_node13"><a xlink:href="HexagonFrameLowering_8cpp.html" target="_top" xlink:title=" ">
<polygon fill="none" stroke="black" points="704.5,-67.5 704.5,-97.5 862.5,-97.5 862.5,-67.5 704.5,-67.5"/>
<text text-anchor="start" x="712.5" y="-85.5" font-family="Helvetica,sans-Serif" font-size="10.00">lib/Target/Hexagon</text>
<text text-anchor="middle" x="783.5" y="-74.5" font-family="Helvetica,sans-Serif" font-size="10.00">/HexagonFrameLowering.cpp</text>
</a>
</g>
</g>
<!-- Node1&#45;&gt;Node13 -->
<g id="edge13" class="edge">
<title>Node1&#45;&gt;Node13</title>
<path fill="none" stroke="midnightblue" d="M1947.69,-211.63C1850.17,-205.38 1678.79,-191.03 1622.5,-165 1603.94,-156.42 1607.38,-141.86 1588.5,-134 1441.23,-72.65 1030.13,-115 871.5,-98 868.57,-97.69 865.6,-97.34 862.6,-96.97"/>
<polygon fill="midnightblue" stroke="midnightblue" points="1947.56,-215.13 1957.76,-212.27 1948,-208.15 1947.56,-215.13"/>
</g>
<!-- Node14 -->
<g id="node14" class="node">
<title>Node14</title>
<g id="a_node14"><a xlink:href="HexagonGenInsert_8cpp.html" target="_top" xlink:title=" ">
<polygon fill="none" stroke="black" points="2065,-134.5 2065,-164.5 2196,-164.5 2196,-134.5 2065,-134.5"/>
<text text-anchor="start" x="2073" y="-152.5" font-family="Helvetica,sans-Serif" font-size="10.00">lib/Target/Hexagon</text>
<text text-anchor="middle" x="2130.5" y="-141.5" font-family="Helvetica,sans-Serif" font-size="10.00">/HexagonGenInsert.cpp</text>
</a>
</g>
</g>
<!-- Node1&#45;&gt;Node14 -->
<g id="edge14" class="edge">
<title>Node1&#45;&gt;Node14</title>
<path fill="none" stroke="midnightblue" d="M2050.89,-196.3C2068.57,-186.12 2089.9,-173.85 2106.03,-164.58"/>
<polygon fill="midnightblue" stroke="midnightblue" points="2048.94,-193.38 2042.02,-201.4 2052.43,-199.44 2048.94,-193.38"/>
</g>
<!-- Node15 -->
<g id="node15" class="node">
<title>Node15</title>
<g id="a_node15"><a xlink:href="HexagonGenMux_8cpp.html" target="_top" xlink:title=" ">
<polygon fill="none" stroke="black" points="2214.5,-134.5 2214.5,-164.5 2338.5,-164.5 2338.5,-134.5 2214.5,-134.5"/>
<text text-anchor="start" x="2222.5" y="-152.5" font-family="Helvetica,sans-Serif" font-size="10.00">lib/Target/Hexagon</text>
<text text-anchor="middle" x="2276.5" y="-141.5" font-family="Helvetica,sans-Serif" font-size="10.00">/HexagonGenMux.cpp</text>
</a>
</g>
</g>
<!-- Node1&#45;&gt;Node15 -->
<g id="edge15" class="edge">
<title>Node1&#45;&gt;Node15</title>
<path fill="none" stroke="midnightblue" d="M2083.31,-198.98C2125.61,-188.37 2179.99,-174.72 2220.27,-164.61"/>
<polygon fill="midnightblue" stroke="midnightblue" points="2082.23,-195.65 2073.38,-201.48 2083.93,-202.44 2082.23,-195.65"/>
</g>
<!-- Node16 -->
<g id="node16" class="node">
<title>Node16</title>
<g id="a_node16"><a xlink:href="HexagonGenPredicate_8cpp.html" target="_top" xlink:title=" ">
<polygon fill="none" stroke="black" points="2357,-134.5 2357,-164.5 2506,-164.5 2506,-134.5 2357,-134.5"/>
<text text-anchor="start" x="2365" y="-152.5" font-family="Helvetica,sans-Serif" font-size="10.00">lib/Target/Hexagon</text>
<text text-anchor="middle" x="2431.5" y="-141.5" font-family="Helvetica,sans-Serif" font-size="10.00">/HexagonGenPredicate.cpp</text>
</a>
</g>
</g>
<!-- Node1&#45;&gt;Node16 -->
<g id="edge16" class="edge">
<title>Node1&#45;&gt;Node16</title>
<path fill="none" stroke="midnightblue" d="M2087.16,-205.23C2153.99,-195.29 2257.72,-179.62 2347.5,-165 2350.57,-164.5 2353.7,-163.99 2356.86,-163.46"/>
<polygon fill="midnightblue" stroke="midnightblue" points="2086.55,-201.79 2077.17,-206.72 2087.58,-208.71 2086.55,-201.79"/>
</g>
<!-- Node17 -->
<g id="node17" class="node">
<title>Node17</title>
<g id="a_node17"><a xlink:href="HexagonHardwareLoops_8cpp.html" target="_top" xlink:title=" ">
<polygon fill="none" stroke="black" points="2524,-134.5 2524,-164.5 2683,-164.5 2683,-134.5 2524,-134.5"/>
<text text-anchor="start" x="2532" y="-152.5" font-family="Helvetica,sans-Serif" font-size="10.00">lib/Target/Hexagon</text>
<text text-anchor="middle" x="2603.5" y="-141.5" font-family="Helvetica,sans-Serif" font-size="10.00">/HexagonHardwareLoops.cpp</text>
</a>
</g>
</g>
<!-- Node1&#45;&gt;Node17 -->
<g id="edge17" class="edge">
<title>Node1&#45;&gt;Node17</title>
<path fill="none" stroke="midnightblue" d="M2087.51,-209.73C2183.86,-201.47 2362.69,-185.06 2514.5,-165 2517.6,-164.59 2520.77,-164.16 2523.96,-163.7"/>
<polygon fill="midnightblue" stroke="midnightblue" points="2086.97,-206.26 2077.31,-210.59 2087.57,-213.23 2086.97,-206.26"/>
</g>
<!-- Node18 -->
<g id="node18" class="node">
<title>Node18</title>
<g id="a_node18"><a xlink:href="HexagonHazardRecognizer_8h.html" target="_top" xlink:title=" ">
<polygon fill="none" stroke="black" points="2701.5,-134.5 2701.5,-164.5 2861.5,-164.5 2861.5,-134.5 2701.5,-134.5"/>
<text text-anchor="start" x="2709.5" y="-152.5" font-family="Helvetica,sans-Serif" font-size="10.00">lib/Target/Hexagon</text>
<text text-anchor="middle" x="2781.5" y="-141.5" font-family="Helvetica,sans-Serif" font-size="10.00">/HexagonHazardRecognizer.h</text>
</a>
</g>
</g>
<!-- Node1&#45;&gt;Node18 -->
<g id="edge18" class="edge">
<title>Node1&#45;&gt;Node18</title>
<path fill="none" stroke="midnightblue" d="M2087.17,-212.24C2209.69,-206.06 2471.6,-190.9 2691.5,-165 2694.64,-164.63 2697.85,-164.23 2701.08,-163.8"/>
<polygon fill="midnightblue" stroke="midnightblue" points="2086.98,-208.74 2077.17,-212.73 2087.33,-215.73 2086.98,-208.74"/>
</g>
<!-- Node20 -->
<g id="node20" class="node">
<title>Node20</title>
<g id="a_node20"><a xlink:href="HexagonInstrInfo_8cpp.html" target="_top" xlink:title=" ">
<polygon fill="none" stroke="black" points="2827.5,-67.5 2827.5,-97.5 2951.5,-97.5 2951.5,-67.5 2827.5,-67.5"/>
<text text-anchor="start" x="2835.5" y="-85.5" font-family="Helvetica,sans-Serif" font-size="10.00">lib/Target/Hexagon</text>
<text text-anchor="middle" x="2889.5" y="-74.5" font-family="Helvetica,sans-Serif" font-size="10.00">/HexagonInstrInfo.cpp</text>
</a>
</g>
</g>
<!-- Node1&#45;&gt;Node20 -->
<g id="edge21" class="edge">
<title>Node1&#45;&gt;Node20</title>
<path fill="none" stroke="midnightblue" d="M2087.18,-216.07C2280.15,-217 2811.23,-214.96 2870.5,-165 2890.05,-148.52 2891.7,-116.18 2890.82,-97.57"/>
<polygon fill="midnightblue" stroke="midnightblue" points="2087.17,-212.57 2077.15,-216.02 2087.13,-219.57 2087.17,-212.57"/>
</g>
<!-- Node21 -->
<g id="node21" class="node">
<title>Node21</title>
<g id="a_node21"><a xlink:href="HexagonISelDAGToDAG_8h.html" target="_top" xlink:title=" ">
<polygon fill="none" stroke="black" points="1206.5,-67.5 1206.5,-97.5 1350.5,-97.5 1350.5,-67.5 1206.5,-67.5"/>
<text text-anchor="start" x="1214.5" y="-85.5" font-family="Helvetica,sans-Serif" font-size="10.00">lib/Target/Hexagon</text>
<text text-anchor="middle" x="1278.5" y="-74.5" font-family="Helvetica,sans-Serif" font-size="10.00">/HexagonISelDAGToDAG.h</text>
</a>
</g>
</g>
<!-- Node1&#45;&gt;Node21 -->
<g id="edge22" class="edge">
<title>Node1&#45;&gt;Node21</title>
<path fill="none" stroke="midnightblue" d="M1947.94,-211.3C1890.61,-205.86 1808.19,-193.42 1741.5,-165 1719.83,-155.76 1720.51,-142.4 1698.5,-134 1555.29,-79.34 1507.17,-120.2 1355.5,-98 1353.88,-97.76 1352.25,-97.52 1350.61,-97.26"/>
<polygon fill="midnightblue" stroke="midnightblue" points="1947.71,-214.79 1957.98,-212.21 1948.34,-207.82 1947.71,-214.79"/>
</g>
<!-- Node24 -->
<g id="node24" class="node">
<title>Node24</title>
<g id="a_node24"><a xlink:href="HexagonISelLowering_8cpp.html" target="_top" xlink:title=" ">
<polygon fill="none" stroke="black" points="880.5,-67.5 880.5,-97.5 1026.5,-97.5 1026.5,-67.5 880.5,-67.5"/>
<text text-anchor="start" x="888.5" y="-85.5" font-family="Helvetica,sans-Serif" font-size="10.00">lib/Target/Hexagon</text>
<text text-anchor="middle" x="953.5" y="-74.5" font-family="Helvetica,sans-Serif" font-size="10.00">/HexagonISelLowering.cpp</text>
</a>
</g>
</g>
<!-- Node1&#45;&gt;Node24 -->
<g id="edge25" class="edge">
<title>Node1&#45;&gt;Node24</title>
<path fill="none" stroke="midnightblue" d="M1947.98,-210.13C1859.09,-202.49 1710.68,-186.95 1660.5,-165 1640.53,-156.26 1642.8,-141.94 1622.5,-134 1500.79,-86.4 1165.28,-113.4 1035.5,-98 1032.63,-97.66 1029.71,-97.28 1026.76,-96.88"/>
<polygon fill="midnightblue" stroke="midnightblue" points="1947.72,-213.62 1957.98,-210.97 1948.31,-206.64 1947.72,-213.62"/>
</g>
<!-- Node25 -->
<g id="node25" class="node">
<title>Node25</title>
<g id="a_node25"><a xlink:href="HexagonISelLoweringHVX_8cpp.html" target="_top" xlink:title=" ">
<polygon fill="none" stroke="black" points="2918,-134.5 2918,-164.5 3085,-164.5 3085,-134.5 2918,-134.5"/>
<text text-anchor="start" x="2926" y="-152.5" font-family="Helvetica,sans-Serif" font-size="10.00">lib/Target/Hexagon</text>
<text text-anchor="middle" x="3001.5" y="-141.5" font-family="Helvetica,sans-Serif" font-size="10.00">/HexagonISelLoweringHVX.cpp</text>
</a>
</g>
</g>
<!-- Node1&#45;&gt;Node25 -->
<g id="edge26" class="edge">
<title>Node1&#45;&gt;Node25</title>
<path fill="none" stroke="midnightblue" d="M2087.43,-213.65C2237.33,-209.22 2600.59,-195.98 2903.5,-165 2908.21,-164.52 2913.03,-163.97 2917.9,-163.38"/>
<polygon fill="midnightblue" stroke="midnightblue" points="2086.91,-210.17 2077.01,-213.96 2087.11,-217.16 2086.91,-210.17"/>
</g>
<!-- Node26 -->
<g id="node26" class="node">
<title>Node26</title>
<g id="a_node26"><a xlink:href="HexagonMachineScheduler_8cpp.html" target="_top" xlink:title=" ">
<polygon fill="none" stroke="black" points="3103.5,-134.5 3103.5,-164.5 3275.5,-164.5 3275.5,-134.5 3103.5,-134.5"/>
<text text-anchor="start" x="3111.5" y="-152.5" font-family="Helvetica,sans-Serif" font-size="10.00">lib/Target/Hexagon</text>
<text text-anchor="middle" x="3189.5" y="-141.5" font-family="Helvetica,sans-Serif" font-size="10.00">/HexagonMachineScheduler.cpp</text>
</a>
</g>
</g>
<!-- Node1&#45;&gt;Node26 -->
<g id="edge27" class="edge">
<title>Node1&#45;&gt;Node26</title>
<path fill="none" stroke="midnightblue" d="M2087.37,-214.75C2259.17,-212.36 2715.74,-202.68 3094.5,-165 3097.41,-164.71 3100.36,-164.39 3103.34,-164.05"/>
<polygon fill="midnightblue" stroke="midnightblue" points="2087.16,-211.25 2077.2,-214.89 2087.25,-218.25 2087.16,-211.25"/>
</g>
<!-- Node27 -->
<g id="node27" class="node">
<title>Node27</title>
<g id="a_node27"><a xlink:href="HexagonNewValueJump_8cpp.html" target="_top" xlink:title=" ">
<polygon fill="none" stroke="black" points="3294,-134.5 3294,-164.5 3451,-164.5 3451,-134.5 3294,-134.5"/>
<text text-anchor="start" x="3302" y="-152.5" font-family="Helvetica,sans-Serif" font-size="10.00">lib/Target/Hexagon</text>
<text text-anchor="middle" x="3372.5" y="-141.5" font-family="Helvetica,sans-Serif" font-size="10.00">/HexagonNewValueJump.cpp</text>
</a>
</g>
</g>
<!-- Node1&#45;&gt;Node27 -->
<g id="edge28" class="edge">
<title>Node1&#45;&gt;Node27</title>
<path fill="none" stroke="midnightblue" d="M2087.27,-215.74C2278.96,-215.74 2829.67,-211.36 3284.5,-165 3287.58,-164.69 3290.72,-164.33 3293.88,-163.95"/>
<polygon fill="midnightblue" stroke="midnightblue" points="2087.06,-212.24 2077.05,-215.73 2087.05,-219.24 2087.06,-212.24"/>
</g>
<!-- Node28 -->
<g id="node28" class="node">
<title>Node28</title>
<g id="a_node28"><a xlink:href="HexagonOptAddrMode_8cpp.html" target="_top" xlink:title=" ">
<polygon fill="none" stroke="black" points="3469.5,-134.5 3469.5,-164.5 3619.5,-164.5 3619.5,-134.5 3469.5,-134.5"/>
<text text-anchor="start" x="3477.5" y="-152.5" font-family="Helvetica,sans-Serif" font-size="10.00">lib/Target/Hexagon</text>
<text text-anchor="middle" x="3544.5" y="-141.5" font-family="Helvetica,sans-Serif" font-size="10.00">/HexagonOptAddrMode.cpp</text>
</a>
</g>
</g>
<!-- Node1&#45;&gt;Node28 -->
<g id="edge29" class="edge">
<title>Node1&#45;&gt;Node28</title>
<path fill="none" stroke="midnightblue" d="M2087.25,-214.32C2337.44,-209.88 3189.35,-193.02 3460.5,-165 3463.44,-164.7 3466.44,-164.35 3469.46,-163.97"/>
<polygon fill="midnightblue" stroke="midnightblue" points="2087.13,-210.82 2077.19,-214.49 2087.25,-217.82 2087.13,-210.82"/>
</g>
<!-- Node29 -->
<g id="node29" class="node">
<title>Node29</title>
<g id="a_node29"><a xlink:href="HexagonRDFOpt_8cpp.html" target="_top" xlink:title=" ">
<polygon fill="none" stroke="black" points="3638,-134.5 3638,-164.5 3759,-164.5 3759,-134.5 3638,-134.5"/>
<text text-anchor="start" x="3646" y="-152.5" font-family="Helvetica,sans-Serif" font-size="10.00">lib/Target/Hexagon</text>
<text text-anchor="middle" x="3698.5" y="-141.5" font-family="Helvetica,sans-Serif" font-size="10.00">/HexagonRDFOpt.cpp</text>
</a>
</g>
</g>
<!-- Node1&#45;&gt;Node29 -->
<g id="edge30" class="edge">
<title>Node1&#45;&gt;Node29</title>
<path fill="none" stroke="midnightblue" d="M2087.17,-214.92C2355.63,-212.44 3323.28,-201.12 3628.5,-165 3631.58,-164.64 3634.73,-164.2 3637.9,-163.72"/>
<polygon fill="midnightblue" stroke="midnightblue" points="2087.13,-211.42 2077.16,-215.01 2087.19,-218.42 2087.13,-211.42"/>
</g>
<!-- Node30 -->
<g id="node30" class="node">
<title>Node30</title>
<g id="a_node30"><a xlink:href="HexagonRegisterInfo_8cpp.html" target="_top" xlink:title=" ">
<polygon fill="none" stroke="black" points="1045,-67.5 1045,-97.5 1188,-97.5 1188,-67.5 1045,-67.5"/>
<text text-anchor="start" x="1053" y="-85.5" font-family="Helvetica,sans-Serif" font-size="10.00">lib/Target/Hexagon</text>
<text text-anchor="middle" x="1116.5" y="-74.5" font-family="Helvetica,sans-Serif" font-size="10.00">/HexagonRegisterInfo.cpp</text>
</a>
</g>
</g>
<!-- Node1&#45;&gt;Node30 -->
<g id="edge31" class="edge">
<title>Node1&#45;&gt;Node30</title>
<path fill="none" stroke="midnightblue" d="M1947.45,-214.82C1880.76,-211.81 1778.91,-200.97 1698.5,-165 1678.6,-156.1 1680.73,-142.1 1660.5,-134 1564.7,-95.63 1299.86,-111.11 1197.5,-98 1194.52,-97.62 1191.49,-97.2 1188.43,-96.76"/>
<polygon fill="midnightblue" stroke="midnightblue" points="1947.71,-218.33 1957.85,-215.24 1948,-211.34 1947.71,-218.33"/>
</g>
<!-- Node31 -->
<g id="node31" class="node">
<title>Node31</title>
<g id="a_node31"><a xlink:href="HexagonSplitConst32AndConst64_8cpp.html" target="_top" xlink:title=" ">
<polygon fill="none" stroke="black" points="1989,-67.5 1989,-97.5 2192,-97.5 2192,-67.5 1989,-67.5"/>
<text text-anchor="start" x="1997" y="-85.5" font-family="Helvetica,sans-Serif" font-size="10.00">lib/Target/Hexagon</text>
<text text-anchor="middle" x="2090.5" y="-74.5" font-family="Helvetica,sans-Serif" font-size="10.00">/HexagonSplitConst32AndConst64.cpp</text>
</a>
</g>
</g>
<!-- Node1&#45;&gt;Node31 -->
<g id="edge32" class="edge">
<title>Node1&#45;&gt;Node31</title>
<path fill="none" stroke="midnightblue" d="M1976.68,-196.04C1964.75,-188.18 1953.14,-177.87 1946.5,-165 1940.18,-152.76 1938.53,-145.24 1946.5,-134 1958.84,-116.6 1977.65,-105.15 1997.65,-97.63"/>
<polygon fill="midnightblue" stroke="midnightblue" points="1974.99,-199.12 1985.35,-201.34 1978.64,-193.14 1974.99,-199.12"/>
</g>
<!-- Node32 -->
<g id="node32" class="node">
<title>Node32</title>
<g id="a_node32"><a xlink:href="HexagonSplitDouble_8cpp.html" target="_top" xlink:title=" ">
<polygon fill="none" stroke="black" points="3777.5,-134.5 3777.5,-164.5 3917.5,-164.5 3917.5,-134.5 3777.5,-134.5"/>
<text text-anchor="start" x="3785.5" y="-152.5" font-family="Helvetica,sans-Serif" font-size="10.00">lib/Target/Hexagon</text>
<text text-anchor="middle" x="3847.5" y="-141.5" font-family="Helvetica,sans-Serif" font-size="10.00">/HexagonSplitDouble.cpp</text>
</a>
</g>
</g>
<!-- Node1&#45;&gt;Node32 -->
<g id="edge33" class="edge">
<title>Node1&#45;&gt;Node32</title>
<path fill="none" stroke="midnightblue" d="M2087.45,-214.91C2370.81,-212.3 3434.09,-200.3 3768.5,-165 3771.41,-164.69 3774.38,-164.34 3777.37,-163.95"/>
<polygon fill="midnightblue" stroke="midnightblue" points="2087.27,-211.41 2077.31,-215 2087.34,-218.41 2087.27,-211.41"/>
</g>
<!-- Node33 -->
<g id="node33" class="node">
<title>Node33</title>
<g id="a_node33"><a xlink:href="HexagonStoreWidening_8cpp.html" target="_top" xlink:title=" ">
<polygon fill="none" stroke="black" points="3936,-134.5 3936,-164.5 4091,-164.5 4091,-134.5 3936,-134.5"/>
<text text-anchor="start" x="3944" y="-152.5" font-family="Helvetica,sans-Serif" font-size="10.00">lib/Target/Hexagon</text>
<text text-anchor="middle" x="4013.5" y="-141.5" font-family="Helvetica,sans-Serif" font-size="10.00">/HexagonStoreWidening.cpp</text>
</a>
</g>
</g>
<!-- Node1&#45;&gt;Node33 -->
<g id="edge34" class="edge">
<title>Node1&#45;&gt;Node33</title>
<path fill="none" stroke="midnightblue" d="M2087.71,-214.95C2387.18,-212.39 3559.17,-200.3 3926.5,-165 3929.55,-164.71 3932.65,-164.37 3935.78,-164"/>
<polygon fill="midnightblue" stroke="midnightblue" points="2087.39,-211.45 2077.42,-215.04 2087.45,-218.45 2087.39,-211.45"/>
</g>
<!-- Node34 -->
<g id="node34" class="node">
<title>Node34</title>
<g id="a_node34"><a xlink:href="HexagonSubtarget_8cpp.html" target="_top" xlink:title=" ">
<polygon fill="none" stroke="black" points="4109,-134.5 4109,-164.5 4240,-164.5 4240,-134.5 4109,-134.5"/>
<text text-anchor="start" x="4117" y="-152.5" font-family="Helvetica,sans-Serif" font-size="10.00">lib/Target/Hexagon</text>
<text text-anchor="middle" x="4174.5" y="-141.5" font-family="Helvetica,sans-Serif" font-size="10.00">/HexagonSubtarget.cpp</text>
</a>
</g>
</g>
<!-- Node1&#45;&gt;Node34 -->
<g id="edge35" class="edge">
<title>Node1&#45;&gt;Node34</title>
<path fill="none" stroke="midnightblue" d="M2087.79,-215.39C2404.09,-214.67 3697.61,-209.04 4100.5,-165 4103.23,-164.7 4106.02,-164.35 4108.82,-163.97"/>
<polygon fill="midnightblue" stroke="midnightblue" points="2087.38,-211.9 2077.39,-215.42 2087.4,-218.9 2087.38,-211.9"/>
</g>
<!-- Node35 -->
<g id="node35" class="node">
<title>Node35</title>
<g id="a_node35"><a xlink:href="HexagonTargetMachine_8h.html" target="_top" xlink:title=" ">
<polygon fill="none" stroke="black" points="1751,-134.5 1751,-164.5 1894,-164.5 1894,-134.5 1751,-134.5"/>
<text text-anchor="start" x="1759" y="-152.5" font-family="Helvetica,sans-Serif" font-size="10.00">lib/Target/Hexagon</text>
<text text-anchor="middle" x="1822.5" y="-141.5" font-family="Helvetica,sans-Serif" font-size="10.00">/HexagonTargetMachine.h</text>
</a>
</g>
</g>
<!-- Node1&#45;&gt;Node35 -->
<g id="edge36" class="edge">
<title>Node1&#45;&gt;Node35</title>
<path fill="none" stroke="midnightblue" d="M1965.68,-198.23C1934.14,-187.71 1894.35,-174.45 1864.73,-164.58"/>
<polygon fill="midnightblue" stroke="midnightblue" points="1964.59,-201.55 1975.19,-201.4 1966.81,-194.91 1964.59,-201.55"/>
</g>
<!-- Node40 -->
<g id="node40" class="node">
<title>Node40</title>
<g id="a_node40"><a xlink:href="HexagonTargetTransformInfo_8h.html" target="_top" xlink:title="This file implements a TargetTransformInfo analysis pass specific to the Hexagon target machine.">
<polygon fill="none" stroke="black" points="2210.5,-67.5 2210.5,-97.5 2380.5,-97.5 2380.5,-67.5 2210.5,-67.5"/>
<text text-anchor="start" x="2218.5" y="-85.5" font-family="Helvetica,sans-Serif" font-size="10.00">lib/Target/Hexagon</text>
<text text-anchor="middle" x="2295.5" y="-74.5" font-family="Helvetica,sans-Serif" font-size="10.00">/HexagonTargetTransformInfo.h</text>
</a>
</g>
</g>
<!-- Node1&#45;&gt;Node40 -->
<g id="edge53" class="edge">
<title>Node1&#45;&gt;Node40</title>
<path fill="none" stroke="midnightblue" d="M1996.97,-193.34C1983.14,-175.7 1969.88,-151.19 1984.5,-134 1986.36,-131.82 2118.92,-110.87 2210.36,-96.65"/>
<polygon fill="midnightblue" stroke="midnightblue" points="1994.59,-195.95 2003.68,-201.39 1999.96,-191.47 1994.59,-195.95"/>
</g>
<!-- Node41 -->
<g id="node41" class="node">
<title>Node41</title>
<g id="a_node41"><a xlink:href="HexagonTargetTransformInfo_8cpp.html" target="_top" xlink:title="This file implements a TargetTransformInfo analysis pass specific to the Hexagon target machine.">
<polygon fill="none" stroke="black" points="2349,-0.5 2349,-30.5 2530,-30.5 2530,-0.5 2349,-0.5"/>
<text text-anchor="start" x="2357" y="-18.5" font-family="Helvetica,sans-Serif" font-size="10.00">lib/Target/Hexagon</text>
<text text-anchor="middle" x="2439.5" y="-7.5" font-family="Helvetica,sans-Serif" font-size="10.00">/HexagonTargetTransformInfo.cpp</text>
</a>
</g>
</g>
<!-- Node1&#45;&gt;Node41 -->
<g id="edge52" class="edge">
<title>Node1&#45;&gt;Node41</title>
<path fill="none" stroke="midnightblue" d="M2021.86,-191.46C2026.65,-172.51 2036.38,-147.15 2055.5,-134 2149.11,-69.61 2488.04,-181.12 2565.5,-98 2593.12,-68.36 2540.7,-44.66 2495.28,-30.62"/>
<polygon fill="midnightblue" stroke="midnightblue" points="2018.38,-190.96 2019.62,-201.48 2025.21,-192.48 2018.38,-190.96"/>
</g>
<!-- Node42 -->
<g id="node42" class="node">
<title>Node42</title>
<g id="a_node42"><a xlink:href="HexagonVectorCombine_8cpp.html" target="_top" xlink:title=" ">
<polygon fill="none" stroke="black" points="2398.5,-67.5 2398.5,-97.5 2556.5,-97.5 2556.5,-67.5 2398.5,-67.5"/>
<text text-anchor="start" x="2406.5" y="-85.5" font-family="Helvetica,sans-Serif" font-size="10.00">lib/Target/Hexagon</text>
<text text-anchor="middle" x="2477.5" y="-74.5" font-family="Helvetica,sans-Serif" font-size="10.00">/HexagonVectorCombine.cpp</text>
</a>
</g>
</g>
<!-- Node1&#45;&gt;Node42 -->
<g id="edge54" class="edge">
<title>Node1&#45;&gt;Node42</title>
<path fill="none" stroke="midnightblue" d="M2011.49,-191.34C2008.53,-173.13 2008.19,-148.84 2022.5,-134 2050.94,-104.5 2348.88,-103.33 2389.5,-98 2392.42,-97.62 2395.39,-97.21 2398.38,-96.79"/>
<polygon fill="midnightblue" stroke="midnightblue" points="2008.07,-192.1 2013.44,-201.24 2014.94,-190.75 2008.07,-192.1"/>
</g>
<!-- Node43 -->
<g id="node43" class="node">
<title>Node43</title>
<g id="a_node43"><a xlink:href="HexagonVectorPrint_8cpp.html" target="_top" xlink:title=" ">
<polygon fill="none" stroke="black" points="4258,-134.5 4258,-164.5 4395,-164.5 4395,-134.5 4258,-134.5"/>
<text text-anchor="start" x="4266" y="-152.5" font-family="Helvetica,sans-Serif" font-size="10.00">lib/Target/Hexagon</text>
<text text-anchor="middle" x="4326.5" y="-141.5" font-family="Helvetica,sans-Serif" font-size="10.00">/HexagonVectorPrint.cpp</text>
</a>
</g>
</g>
<!-- Node1&#45;&gt;Node43 -->
<g id="edge55" class="edge">
<title>Node1&#45;&gt;Node43</title>
<path fill="none" stroke="midnightblue" d="M2087.35,-215.46C2416.54,-215.03 3815.24,-210.49 4249.5,-165 4252.21,-164.72 4254.96,-164.39 4257.74,-164.03"/>
<polygon fill="midnightblue" stroke="midnightblue" points="2087,-211.96 2077,-215.47 2087.01,-218.96 2087,-211.96"/>
</g>
<!-- Node44 -->
<g id="node44" class="node">
<title>Node44</title>
<g id="a_node44"><a xlink:href="HexagonVExtract_8cpp.html" target="_top" xlink:title=" ">
<polygon fill="none" stroke="black" points="4413,-134.5 4413,-164.5 4538,-164.5 4538,-134.5 4413,-134.5"/>
<text text-anchor="start" x="4421" y="-152.5" font-family="Helvetica,sans-Serif" font-size="10.00">lib/Target/Hexagon</text>
<text text-anchor="middle" x="4475.5" y="-141.5" font-family="Helvetica,sans-Serif" font-size="10.00">/HexagonVExtract.cpp</text>
</a>
</g>
</g>
<!-- Node1&#45;&gt;Node44 -->
<g id="edge56" class="edge">
<title>Node1&#45;&gt;Node44</title>
<path fill="none" stroke="midnightblue" d="M2087.16,-215.72C2429.77,-216.55 3938.19,-217.12 4404.5,-165 4407.25,-164.69 4410.05,-164.33 4412.88,-163.93"/>
<polygon fill="midnightblue" stroke="midnightblue" points="2087.14,-212.22 2077.13,-215.7 2087.12,-219.22 2087.14,-212.22"/>
</g>
<!-- Node45 -->
<g id="node45" class="node">
<title>Node45</title>
<g id="a_node45"><a xlink:href="HexagonVLIWPacketizer_8cpp.html" target="_top" xlink:title=" ">
<polygon fill="none" stroke="black" points="4556,-134.5 4556,-164.5 4713,-164.5 4713,-134.5 4556,-134.5"/>
<text text-anchor="start" x="4564" y="-152.5" font-family="Helvetica,sans-Serif" font-size="10.00">lib/Target/Hexagon</text>
<text text-anchor="middle" x="4634.5" y="-141.5" font-family="Helvetica,sans-Serif" font-size="10.00">/HexagonVLIWPacketizer.cpp</text>
</a>
</g>
</g>
<!-- Node1&#45;&gt;Node45 -->
<g id="edge57" class="edge">
<title>Node1&#45;&gt;Node45</title>
<path fill="none" stroke="midnightblue" d="M2087.21,-215.48C2442.09,-215.16 4050.44,-211.14 4547.5,-165 4550.24,-164.75 4553.03,-164.45 4555.85,-164.13"/>
<polygon fill="midnightblue" stroke="midnightblue" points="2087.08,-211.98 2077.08,-215.49 2087.08,-218.98 2087.08,-211.98"/>
</g>
<!-- Node3&#45;&gt;Node2 -->
<g id="edge3" class="edge">
<title>Node3&#45;&gt;Node2</title>
<path fill="none" stroke="midnightblue" d="M131.43,-128.45C117.43,-118.45 100.84,-106.6 88.21,-97.58"/>
<polygon fill="midnightblue" stroke="midnightblue" points="129.58,-131.43 139.75,-134.4 133.65,-125.74 129.58,-131.43"/>
</g>
<!-- Node4 -->
<g id="node4" class="node">
<title>Node4</title>
<g id="a_node4"><a xlink:href="HexagonMCInstLower_8cpp.html" target="_top" xlink:title=" ">
<polygon fill="none" stroke="black" points="155.5,-67.5 155.5,-97.5 301.5,-97.5 301.5,-67.5 155.5,-67.5"/>
<text text-anchor="start" x="163.5" y="-85.5" font-family="Helvetica,sans-Serif" font-size="10.00">lib/Target/Hexagon</text>
<text text-anchor="middle" x="228.5" y="-74.5" font-family="Helvetica,sans-Serif" font-size="10.00">/HexagonMCInstLower.cpp</text>
</a>
</g>
</g>
<!-- Node3&#45;&gt;Node4 -->
<g id="edge4" class="edge">
<title>Node3&#45;&gt;Node4</title>
<path fill="none" stroke="midnightblue" d="M181.99,-127.31C192.34,-117.56 204.34,-106.26 213.56,-97.58"/>
<polygon fill="midnightblue" stroke="midnightblue" points="179.35,-124.99 174.47,-134.4 184.15,-130.09 179.35,-124.99"/>
</g>
<!-- Node19 -->
<g id="node19" class="node">
<title>Node19</title>
<g id="a_node19"><a xlink:href="HexagonHazardRecognizer_8cpp.html" target="_top" xlink:title=" ">
<polygon fill="none" stroke="black" points="2638,-67.5 2638,-97.5 2809,-97.5 2809,-67.5 2638,-67.5"/>
<text text-anchor="start" x="2646" y="-85.5" font-family="Helvetica,sans-Serif" font-size="10.00">lib/Target/Hexagon</text>
<text text-anchor="middle" x="2723.5" y="-74.5" font-family="Helvetica,sans-Serif" font-size="10.00">/HexagonHazardRecognizer.cpp</text>
</a>
</g>
</g>
<!-- Node18&#45;&gt;Node19 -->
<g id="edge19" class="edge">
<title>Node18&#45;&gt;Node19</title>
<path fill="none" stroke="midnightblue" d="M2762.08,-126.74C2753.5,-117.12 2743.66,-106.09 2736.06,-97.58"/>
<polygon fill="midnightblue" stroke="midnightblue" points="2759.65,-129.26 2768.91,-134.4 2764.87,-124.6 2759.65,-129.26"/>
</g>
<!-- Node18&#45;&gt;Node20 -->
<g id="edge20" class="edge">
<title>Node18&#45;&gt;Node20</title>
<path fill="none" stroke="midnightblue" d="M2813.87,-129.02C2830.68,-118.9 2850.84,-106.77 2866.11,-97.58"/>
<polygon fill="midnightblue" stroke="midnightblue" points="2811.7,-126.24 2804.93,-134.4 2815.31,-132.24 2811.7,-126.24"/>
</g>
<!-- Node22 -->
<g id="node22" class="node">
<title>Node22</title>
<g id="a_node22"><a xlink:href="HexagonISelDAGToDAG_8cpp.html" target="_top" xlink:title=" ">
<polygon fill="none" stroke="black" points="1178,-0.5 1178,-30.5 1333,-30.5 1333,-0.5 1178,-0.5"/>
<text text-anchor="start" x="1186" y="-18.5" font-family="Helvetica,sans-Serif" font-size="10.00">lib/Target/Hexagon</text>
<text text-anchor="middle" x="1255.5" y="-7.5" font-family="Helvetica,sans-Serif" font-size="10.00">/HexagonISelDAGToDAG.cpp</text>
</a>
</g>
</g>
<!-- Node21&#45;&gt;Node22 -->
<g id="edge23" class="edge">
<title>Node21&#45;&gt;Node22</title>
<path fill="none" stroke="midnightblue" d="M1270.08,-57.7C1266.85,-48.59 1263.28,-38.49 1260.48,-30.58"/>
<polygon fill="midnightblue" stroke="midnightblue" points="1266.87,-59.14 1273.51,-67.4 1273.47,-56.8 1266.87,-59.14"/>
</g>
<!-- Node23 -->
<g id="node23" class="node">
<title>Node23</title>
<g id="a_node23"><a xlink:href="HexagonISelDAGToDAGHVX_8cpp.html" target="_top" xlink:title=" ">
<polygon fill="none" stroke="black" points="1351.5,-0.5 1351.5,-30.5 1527.5,-30.5 1527.5,-0.5 1351.5,-0.5"/>
<text text-anchor="start" x="1359.5" y="-18.5" font-family="Helvetica,sans-Serif" font-size="10.00">lib/Target/Hexagon</text>
<text text-anchor="middle" x="1439.5" y="-7.5" font-family="Helvetica,sans-Serif" font-size="10.00">/HexagonISelDAGToDAGHVX.cpp</text>
</a>
</g>
</g>
<!-- Node21&#45;&gt;Node23 -->
<g id="edge24" class="edge">
<title>Node21&#45;&gt;Node23</title>
<path fill="none" stroke="midnightblue" d="M1322.98,-63.54C1348.74,-53.14 1380.7,-40.24 1404.63,-30.58"/>
<polygon fill="midnightblue" stroke="midnightblue" points="1321.4,-60.41 1313.43,-67.4 1324.02,-66.9 1321.4,-60.41"/>
</g>
<!-- Node35&#45;&gt;Node13 -->
<g id="edge38" class="edge">
<title>Node35&#45;&gt;Node13</title>
<path fill="none" stroke="midnightblue" d="M1740.77,-142.12C1704.55,-139.41 1661.41,-136.34 1622.5,-134 1288.94,-113.92 1203.8,-133.22 871.5,-98 868.57,-97.69 865.6,-97.35 862.6,-96.97"/>
<polygon fill="midnightblue" stroke="midnightblue" points="1740.55,-145.61 1750.79,-142.87 1741.08,-138.63 1740.55,-145.61"/>
</g>
<!-- Node35&#45;&gt;Node21 -->
<g id="edge40" class="edge">
<title>Node35&#45;&gt;Node21</title>
<path fill="none" stroke="midnightblue" d="M1740.46,-134.53C1739.13,-134.35 1737.81,-134.17 1736.5,-134 1571.83,-112.18 1529.17,-119.82 1364.5,-98 1360,-97.4 1355.37,-96.75 1350.71,-96.05"/>
<polygon fill="midnightblue" stroke="midnightblue" points="1740.36,-138.06 1750.76,-136.02 1741.36,-131.13 1740.36,-138.06"/>
</g>
<!-- Node35&#45;&gt;Node22 -->
<g id="edge39" class="edge">
<title>Node35&#45;&gt;Node22</title>
<path fill="none" stroke="midnightblue" d="M1740.45,-134.57C1739.12,-134.37 1737.81,-134.18 1736.5,-134 1597.42,-114.32 1557.28,-137.59 1422.5,-98 1392.56,-89.2 1387.54,-80.7 1359.5,-67 1334.25,-54.66 1305.52,-40.71 1284.66,-30.61"/>
<polygon fill="midnightblue" stroke="midnightblue" points="1740.34,-138.09 1750.75,-136.11 1741.38,-131.17 1740.34,-138.09"/>
</g>
<!-- Node35&#45;&gt;Node23 -->
<g id="edge41" class="edge">
<title>Node35&#45;&gt;Node23</title>
<path fill="none" stroke="midnightblue" d="M1740.45,-134.58C1739.12,-134.38 1737.81,-134.19 1736.5,-134 1669.82,-124.4 1480.22,-148.38 1435.5,-98 1419.14,-79.56 1426.87,-48.54 1433.5,-30.55"/>
<polygon fill="midnightblue" stroke="midnightblue" points="1740.33,-138.1 1750.74,-136.14 1741.38,-131.18 1740.33,-138.1"/>
</g>
<!-- Node35&#45;&gt;Node24 -->
<g id="edge42" class="edge">
<title>Node35&#45;&gt;Node24</title>
<path fill="none" stroke="midnightblue" d="M1740.71,-140.67C1715.04,-138.35 1686.6,-135.92 1660.5,-134 1383.01,-113.59 1311.86,-130.28 1035.5,-98 1032.63,-97.66 1029.7,-97.29 1026.75,-96.89"/>
<polygon fill="midnightblue" stroke="midnightblue" points="1740.49,-144.16 1750.77,-141.59 1741.12,-137.19 1740.49,-144.16"/>
</g>
<!-- Node35&#45;&gt;Node30 -->
<g id="edge44" class="edge">
<title>Node35&#45;&gt;Node30</title>
<path fill="none" stroke="midnightblue" d="M1740.63,-138.4C1726.58,-136.82 1712.13,-135.29 1698.5,-134 1476.25,-113.03 1419.01,-125.71 1197.5,-98 1194.52,-97.63 1191.49,-97.22 1188.43,-96.78"/>
<polygon fill="midnightblue" stroke="midnightblue" points="1740.43,-141.9 1750.76,-139.56 1741.22,-134.95 1740.43,-141.9"/>
</g>
<!-- Node35&#45;&gt;Node31 -->
<g id="edge46" class="edge">
<title>Node35&#45;&gt;Node31</title>
<path fill="none" stroke="midnightblue" d="M1890.04,-132.12C1933.89,-121.48 1990.46,-107.76 2032.32,-97.61"/>
<polygon fill="midnightblue" stroke="midnightblue" points="1889.22,-128.72 1880.32,-134.48 1890.87,-135.52 1889.22,-128.72"/>
</g>
<!-- Node36 -->
<g id="node36" class="node">
<title>Node36</title>
<g id="a_node36"><a xlink:href="HexagonFixupHwLoops_8cpp.html" target="_top" xlink:title=" ">
<polygon fill="none" stroke="black" points="1444.5,-67.5 1444.5,-97.5 1598.5,-97.5 1598.5,-67.5 1444.5,-67.5"/>
<text text-anchor="start" x="1452.5" y="-85.5" font-family="Helvetica,sans-Serif" font-size="10.00">lib/Target/Hexagon</text>
<text text-anchor="middle" x="1521.5" y="-74.5" font-family="Helvetica,sans-Serif" font-size="10.00">/HexagonFixupHwLoops.cpp</text>
</a>
</g>
</g>
<!-- Node35&#45;&gt;Node36 -->
<g id="edge37" class="edge">
<title>Node35&#45;&gt;Node36</title>
<path fill="none" stroke="midnightblue" d="M1747.55,-132.32C1698.08,-121.63 1633.91,-107.77 1586.58,-97.55"/>
<polygon fill="midnightblue" stroke="midnightblue" points="1747.04,-135.79 1757.56,-134.48 1748.52,-128.94 1747.04,-135.79"/>
</g>
<!-- Node37 -->
<g id="node37" class="node">
<title>Node37</title>
<g id="a_node37"><a xlink:href="HexagonPeephole_8cpp.html" target="_top" xlink:title=" ">
<polygon fill="none" stroke="black" points="1616.5,-67.5 1616.5,-97.5 1744.5,-97.5 1744.5,-67.5 1616.5,-67.5"/>
<text text-anchor="start" x="1624.5" y="-85.5" font-family="Helvetica,sans-Serif" font-size="10.00">lib/Target/Hexagon</text>
<text text-anchor="middle" x="1680.5" y="-74.5" font-family="Helvetica,sans-Serif" font-size="10.00">/HexagonPeephole.cpp</text>
</a>
</g>
</g>
<!-- Node35&#45;&gt;Node37 -->
<g id="edge43" class="edge">
<title>Node35&#45;&gt;Node37</title>
<path fill="none" stroke="midnightblue" d="M1782.37,-130.13C1759.81,-119.8 1732.08,-107.11 1711.25,-97.58"/>
<polygon fill="midnightblue" stroke="midnightblue" points="1781.14,-133.42 1791.69,-134.4 1784.05,-127.05 1781.14,-133.42"/>
</g>
<!-- Node38 -->
<g id="node38" class="node">
<title>Node38</title>
<g id="a_node38"><a xlink:href="HexagonSelectionDAGInfo_8cpp.html" target="_top" xlink:title=" ">
<polygon fill="none" stroke="black" points="1763,-67.5 1763,-97.5 1932,-97.5 1932,-67.5 1763,-67.5"/>
<text text-anchor="start" x="1771" y="-85.5" font-family="Helvetica,sans-Serif" font-size="10.00">lib/Target/Hexagon</text>
<text text-anchor="middle" x="1847.5" y="-74.5" font-family="Helvetica,sans-Serif" font-size="10.00">/HexagonSelectionDAGInfo.cpp</text>
</a>
</g>
</g>
<!-- Node35&#45;&gt;Node38 -->
<g id="edge45" class="edge">
<title>Node35&#45;&gt;Node38</title>
<path fill="none" stroke="midnightblue" d="M1831.54,-124.99C1835.08,-115.8 1839.01,-105.58 1842.09,-97.58"/>
<polygon fill="midnightblue" stroke="midnightblue" points="1828.25,-123.81 1827.92,-134.4 1834.78,-126.32 1828.25,-123.81"/>
</g>
<!-- Node39 -->
<g id="node39" class="node">
<title>Node39</title>
<g id="a_node39"><a xlink:href="HexagonTargetMachine_8cpp.html" target="_top" xlink:title=" ">
<polygon fill="none" stroke="black" points="1957,-0.5 1957,-30.5 2112,-30.5 2112,-0.5 1957,-0.5"/>
<text text-anchor="start" x="1965" y="-18.5" font-family="Helvetica,sans-Serif" font-size="10.00">lib/Target/Hexagon</text>
<text text-anchor="middle" x="2034.5" y="-7.5" font-family="Helvetica,sans-Serif" font-size="10.00">/HexagonTargetMachine.cpp</text>
</a>
</g>
</g>
<!-- Node35&#45;&gt;Node39 -->
<g id="edge47" class="edge">
<title>Node35&#45;&gt;Node39</title>
<path fill="none" stroke="midnightblue" d="M1873.26,-130.78C1894.76,-122.27 1919.62,-111.07 1940.5,-98 1957.07,-87.63 1997.2,-51.18 2019.29,-30.72"/>
<polygon fill="midnightblue" stroke="midnightblue" points="1871.71,-127.63 1863.64,-134.5 1874.23,-134.16 1871.71,-127.63"/>
</g>
<!-- Node35&#45;&gt;Node40 -->
<g id="edge48" class="edge">
<title>Node35&#45;&gt;Node40</title>
<path fill="none" stroke="midnightblue" d="M1904.38,-138.01C1980.99,-128.09 2098.57,-112.59 2200.5,-98 2203.72,-97.54 2207,-97.06 2210.32,-96.58"/>
<polygon fill="midnightblue" stroke="midnightblue" points="1903.79,-134.56 1894.32,-139.31 1904.68,-141.5 1903.79,-134.56"/>
</g>
<!-- Node35&#45;&gt;Node42 -->
<g id="edge51" class="edge">
<title>Node35&#45;&gt;Node42</title>
<path fill="none" stroke="midnightblue" d="M1904.33,-141.17C1930,-138.87 1958.43,-136.33 1984.5,-134 2164.5,-117.94 2210.22,-120.71 2389.5,-98 2392.42,-97.63 2395.39,-97.24 2398.39,-96.82"/>
<polygon fill="midnightblue" stroke="midnightblue" points="1903.92,-137.69 1894.27,-142.07 1904.55,-144.66 1903.92,-137.69"/>
</g>
<!-- Node40&#45;&gt;Node39 -->
<g id="edge49" class="edge">
<title>Node40&#45;&gt;Node39</title>
<path fill="none" stroke="midnightblue" d="M2229.45,-65.05C2186.78,-54.43 2131.84,-40.74 2091.16,-30.61"/>
<polygon fill="midnightblue" stroke="midnightblue" points="2228.64,-68.46 2239.19,-67.48 2230.33,-61.66 2228.64,-68.46"/>
</g>
<!-- Node40&#45;&gt;Node41 -->
<g id="edge50" class="edge">
<title>Node40&#45;&gt;Node41</title>
<path fill="none" stroke="midnightblue" d="M2335.89,-63.27C2358.82,-52.92 2387.1,-40.15 2408.32,-30.58"/>
<polygon fill="midnightblue" stroke="midnightblue" points="2334.42,-60.09 2326.75,-67.4 2337.3,-66.47 2334.42,-60.09"/>
</g>
</g>
</svg>
