<?xml version="1.0" encoding="UTF-8" standalone="no"?>
<!DOCTYPE svg PUBLIC "-//W3C//DTD SVG 1.1//EN"
 "http://www.w3.org/Graphics/SVG/1.1/DTD/svg11.dtd">
<!-- Generated by graphviz version 2.42.4 (0)
 -->
<!-- Title: include/llvm/Remarks/HotnessThresholdParser.h Pages: 1 -->
<svg width="4072pt" height="610pt"
 viewBox="0.00 0.00 4071.71 610.00" xmlns="http://www.w3.org/2000/svg" xmlns:xlink="http://www.w3.org/1999/xlink">
<g id="graph0" class="graph" transform="scale(1 1) rotate(0) translate(4 606)">
<title>include/llvm/Remarks/HotnessThresholdParser.h</title>
<!-- Node1 -->
<g id="node1" class="node">
<title>Node1</title>
<g id="a_node1"><a xlink:title="This file implements a simple parser to decode commandline option for remarks hotness threshold that ...">
<polygon fill="#bfbfbf" stroke="black" points="705.71,-571.5 705.71,-601.5 851.71,-601.5 851.71,-571.5 705.71,-571.5"/>
<text text-anchor="start" x="713.71" y="-589.5" font-family="Helvetica,sans-Serif" font-size="10.00">include/llvm/Remarks</text>
<text text-anchor="middle" x="778.71" y="-578.5" font-family="Helvetica,sans-Serif" font-size="10.00">/HotnessThresholdParser.h</text>
</a>
</g>
</g>
<!-- Node2 -->
<g id="node2" class="node">
<title>Node2</title>
<g id="a_node2"><a xlink:href="Optional_8h.html" target="_top" xlink:title=" ">
<polygon fill="none" stroke="black" points="312.21,-235.5 312.21,-254.5 427.21,-254.5 427.21,-235.5 312.21,-235.5"/>
<text text-anchor="middle" x="369.71" y="-242.5" font-family="Helvetica,sans-Serif" font-size="10.00">llvm/ADT/Optional.h</text>
</a>
</g>
</g>
<!-- Node1&#45;&gt;Node2 -->
<g id="edge1" class="edge">
<title>Node1&#45;&gt;Node2</title>
<path fill="none" stroke="midnightblue" d="M705.71,-576.13C600.94,-561.14 415.71,-528.33 371.71,-479 317.09,-417.77 347.76,-307.32 362.86,-264.07"/>
<polygon fill="midnightblue" stroke="midnightblue" points="366.18,-265.18 366.3,-254.59 359.6,-262.79 366.18,-265.18"/>
</g>
<!-- Node29 -->
<g id="node24" class="node">
<title>Node29</title>
<g id="a_node24"><a xlink:href="CommandLine_8h.html" target="_top" xlink:title=" ">
<polygon fill="none" stroke="black" points="1685.21,-515.5 1685.21,-534.5 1846.21,-534.5 1846.21,-515.5 1685.21,-515.5"/>
<text text-anchor="middle" x="1765.71" y="-522.5" font-family="Helvetica,sans-Serif" font-size="10.00">llvm/Support/CommandLine.h</text>
</a>
</g>
</g>
<!-- Node1&#45;&gt;Node29 -->
<g id="edge32" class="edge">
<title>Node1&#45;&gt;Node29</title>
<path fill="none" stroke="midnightblue" d="M852.09,-581.08C1029.4,-570.39 1480.83,-543.17 1674.83,-531.48"/>
<polygon fill="midnightblue" stroke="midnightblue" points="1675.22,-534.96 1685,-530.87 1674.8,-527.97 1675.22,-534.96"/>
</g>
<!-- Node3 -->
<g id="node3" class="node">
<title>Node3</title>
<g id="a_node3"><a xlink:href="Hashing_8h.html" target="_top" xlink:title=" ">
<polygon fill="none" stroke="black" points="1126.21,-174 1126.21,-193 1239.21,-193 1239.21,-174 1126.21,-174"/>
<text text-anchor="middle" x="1182.71" y="-181" font-family="Helvetica,sans-Serif" font-size="10.00">llvm/ADT/Hashing.h</text>
</a>
</g>
</g>
<!-- Node2&#45;&gt;Node3 -->
<g id="edge2" class="edge">
<title>Node2&#45;&gt;Node3</title>
<path fill="none" stroke="midnightblue" d="M427.52,-239.77C574.07,-229.04 959.48,-200.84 1115.6,-189.41"/>
<polygon fill="midnightblue" stroke="midnightblue" points="1116.28,-192.87 1126,-188.65 1115.77,-185.89 1116.28,-192.87"/>
</g>
<!-- Node10 -->
<g id="node6" class="node">
<title>Node10</title>
<g id="a_node6"><a xlink:href="Compiler_8h.html" target="_top" xlink:title=" ">
<polygon fill="none" stroke="black" points="2252.71,-56.5 2252.71,-75.5 2386.71,-75.5 2386.71,-56.5 2252.71,-56.5"/>
<text text-anchor="middle" x="2319.71" y="-63.5" font-family="Helvetica,sans-Serif" font-size="10.00">llvm/Support/Compiler.h</text>
</a>
</g>
</g>
<!-- Node2&#45;&gt;Node10 -->
<g id="edge26" class="edge">
<title>Node2&#45;&gt;Node10</title>
<path fill="none" stroke="midnightblue" d="M380.4,-235.19C391.2,-226.23 408.3,-211.87 422.71,-199 437.71,-185.59 437.41,-176.38 455.71,-168 594.66,-104.35 646.7,-155.62 797.71,-132 840.77,-125.27 850.43,-117.15 893.71,-112 1158.26,-80.51 1985.18,-70.17 2242.49,-67.67"/>
<polygon fill="midnightblue" stroke="midnightblue" points="2242.53,-71.17 2252.5,-67.57 2242.46,-64.17 2242.53,-71.17"/>
</g>
<!-- Node19 -->
<g id="node14" class="node">
<title>Node19</title>
<g id="a_node14"><a xlink:href="type__traits_8h.html" target="_top" xlink:title=" ">
<polygon fill="none" stroke="black" points="1553.21,-112.5 1553.21,-131.5 1696.21,-131.5 1696.21,-112.5 1553.21,-112.5"/>
<text text-anchor="middle" x="1624.71" y="-119.5" font-family="Helvetica,sans-Serif" font-size="10.00">llvm/Support/type_traits.h</text>
</a>
</g>
</g>
<!-- Node2&#45;&gt;Node19 -->
<g id="edge27" class="edge">
<title>Node2&#45;&gt;Node19</title>
<path fill="none" stroke="midnightblue" d="M387.09,-235.49C404.64,-226.76 432.41,-212.58 455.71,-199 477.65,-186.21 479.5,-175.67 503.71,-168 553.04,-152.37 1293.24,-131.67 1543.07,-125.1"/>
<polygon fill="midnightblue" stroke="midnightblue" points="1543.26,-128.59 1553.17,-124.83 1543.08,-121.6 1543.26,-128.59"/>
</g>
<!-- Node20 -->
<g id="node15" class="node">
<title>Node20</title>
<g id="a_node15"><a xlink:title=" ">
<polygon fill="none" stroke="#bfbfbf" points="1190.21,-56.5 1190.21,-75.5 1235.21,-75.5 1235.21,-56.5 1190.21,-56.5"/>
<text text-anchor="middle" x="1212.71" y="-63.5" font-family="Helvetica,sans-Serif" font-size="10.00">utility</text>
</a>
</g>
</g>
<!-- Node2&#45;&gt;Node20 -->
<g id="edge31" class="edge">
<title>Node2&#45;&gt;Node20</title>
<path fill="none" stroke="midnightblue" d="M323.98,-235.5C274.88,-224.4 207.6,-202.25 236.71,-168 299.19,-94.49 1015.41,-71.99 1179.4,-67.78"/>
<polygon fill="midnightblue" stroke="midnightblue" points="1179.9,-71.27 1189.81,-67.52 1179.73,-64.27 1179.9,-71.27"/>
</g>
<!-- Node22 -->
<g id="node17" class="node">
<title>Node22</title>
<g id="a_node17"><a xlink:title=" ">
<polygon fill="none" stroke="#bfbfbf" points="2692.71,-112.5 2692.71,-131.5 2744.71,-131.5 2744.71,-112.5 2692.71,-112.5"/>
<text text-anchor="middle" x="2718.71" y="-119.5" font-family="Helvetica,sans-Serif" font-size="10.00">cassert</text>
</a>
</g>
</g>
<!-- Node2&#45;&gt;Node22 -->
<g id="edge28" class="edge">
<title>Node2&#45;&gt;Node22</title>
<path fill="none" stroke="midnightblue" d="M400.52,-235.42C426.23,-227.66 463.44,-215 493.71,-199 514.53,-187.99 514.35,-175.43 536.71,-168 647.6,-131.17 2487.67,-147.27 2682.43,-131.49"/>
<polygon fill="midnightblue" stroke="midnightblue" points="2682.88,-134.96 2692.46,-130.45 2682.16,-128 2682.88,-134.96"/>
</g>
<!-- Node25 -->
<g id="node20" class="node">
<title>Node25</title>
<g id="a_node20"><a xlink:href="None_8h.html" target="_top" xlink:title=" ">
<polygon fill="none" stroke="black" points="14.21,-174 14.21,-193 113.21,-193 113.21,-174 14.21,-174"/>
<text text-anchor="middle" x="63.71" y="-181" font-family="Helvetica,sans-Serif" font-size="10.00">llvm/ADT/None.h</text>
</a>
</g>
</g>
<!-- Node2&#45;&gt;Node25 -->
<g id="edge23" class="edge">
<title>Node2&#45;&gt;Node25</title>
<path fill="none" stroke="midnightblue" d="M325.86,-235.48C270.87,-224.78 176.63,-206.46 117.38,-194.94"/>
<polygon fill="midnightblue" stroke="midnightblue" points="117.95,-191.48 107.47,-193.01 116.62,-198.35 117.95,-191.48"/>
</g>
<!-- Node26 -->
<g id="node21" class="node">
<title>Node26</title>
<g id="a_node21"><a xlink:href="STLForwardCompat_8h.html" target="_top" xlink:title=" ">
<polygon fill="none" stroke="black" points="245.71,-174 245.71,-193 413.71,-193 413.71,-174 245.71,-174"/>
<text text-anchor="middle" x="329.71" y="-181" font-family="Helvetica,sans-Serif" font-size="10.00">llvm/ADT/STLForwardCompat.h</text>
</a>
</g>
</g>
<!-- Node2&#45;&gt;Node26 -->
<g id="edge24" class="edge">
<title>Node2&#45;&gt;Node26</title>
<path fill="none" stroke="midnightblue" d="M363.98,-235.48C358.03,-226.64 348.59,-212.59 341.12,-201.48"/>
<polygon fill="midnightblue" stroke="midnightblue" points="343.91,-199.36 335.43,-193.01 338.1,-203.26 343.91,-199.36"/>
</g>
<!-- Node27 -->
<g id="node22" class="node">
<title>Node27</title>
<g id="a_node22"><a xlink:title=" ">
<polygon fill="none" stroke="#bfbfbf" points="545.71,-174 545.71,-193 603.71,-193 603.71,-174 545.71,-174"/>
<text text-anchor="middle" x="574.71" y="-181" font-family="Helvetica,sans-Serif" font-size="10.00">memory</text>
</a>
</g>
</g>
<!-- Node2&#45;&gt;Node27 -->
<g id="edge29" class="edge">
<title>Node2&#45;&gt;Node27</title>
<path fill="none" stroke="midnightblue" d="M402.44,-235.47C435.27,-226.78 487.2,-212.67 531.71,-199 534.62,-198.1 537.64,-197.15 540.67,-196.17"/>
<polygon fill="midnightblue" stroke="midnightblue" points="541.82,-199.47 550.22,-193.01 539.63,-192.82 541.82,-199.47"/>
</g>
<!-- Node28 -->
<g id="node23" class="node">
<title>Node28</title>
<g id="a_node23"><a xlink:title=" ">
<polygon fill="none" stroke="#bfbfbf" points="1372.21,-174 1372.21,-193 1409.21,-193 1409.21,-174 1372.21,-174"/>
<text text-anchor="middle" x="1390.71" y="-181" font-family="Helvetica,sans-Serif" font-size="10.00">new</text>
</a>
</g>
</g>
<!-- Node2&#45;&gt;Node28 -->
<g id="edge30" class="edge">
<title>Node2&#45;&gt;Node28</title>
<path fill="none" stroke="midnightblue" d="M427.3,-242.04C567.7,-237.05 938.76,-222.57 1247.71,-199 1287.2,-195.99 1332.69,-191.14 1361.56,-187.88"/>
<polygon fill="midnightblue" stroke="midnightblue" points="1362.23,-191.33 1371.77,-186.72 1361.43,-184.38 1362.23,-191.33"/>
</g>
<!-- Node4 -->
<g id="node4" class="node">
<title>Node4</title>
<g id="a_node4"><a xlink:href="llvm_2Support_2DataTypes_8h.html" target="_top" xlink:title=" ">
<polygon fill="none" stroke="red" points="3230.71,-112.5 3230.71,-131.5 3372.71,-131.5 3372.71,-112.5 3230.71,-112.5"/>
<text text-anchor="middle" x="3301.71" y="-119.5" font-family="Helvetica,sans-Serif" font-size="10.00">llvm/Support/DataTypes.h</text>
</a>
</g>
</g>
<!-- Node3&#45;&gt;Node4 -->
<g id="edge3" class="edge">
<title>Node3&#45;&gt;Node4</title>
<path fill="none" stroke="midnightblue" d="M1239.4,-177.1C1274.81,-173.93 1321.38,-170.14 1362.71,-168 1733,-148.8 2901.22,-129.33 3220.42,-124.27"/>
<polygon fill="midnightblue" stroke="midnightblue" points="3220.57,-127.76 3230.52,-124.11 3220.46,-120.76 3220.57,-127.76"/>
</g>
<!-- Node9 -->
<g id="node5" class="node">
<title>Node9</title>
<g id="a_node5"><a xlink:href="llvm_2Support_2ErrorHandling_8h.html" target="_top" xlink:title=" ">
<polygon fill="none" stroke="black" points="2240.71,-112.5 2240.71,-131.5 2398.71,-131.5 2398.71,-112.5 2240.71,-112.5"/>
<text text-anchor="middle" x="2319.71" y="-119.5" font-family="Helvetica,sans-Serif" font-size="10.00">llvm/Support/ErrorHandling.h</text>
</a>
</g>
</g>
<!-- Node3&#45;&gt;Node9 -->
<g id="edge4" class="edge">
<title>Node3&#45;&gt;Node9</title>
<path fill="none" stroke="midnightblue" d="M1239.17,-173.96C1256.03,-171.69 1274.59,-169.46 1291.71,-168 1706.06,-132.54 1811.79,-160.04 2226.71,-132 2227.98,-131.91 2229.27,-131.82 2230.56,-131.73"/>
<polygon fill="midnightblue" stroke="midnightblue" points="2230.88,-135.22 2240.58,-130.97 2230.35,-128.24 2230.88,-135.22"/>
</g>
<!-- Node13 -->
<g id="node9" class="node">
<title>Node13</title>
<g id="a_node9"><a xlink:title=" ">
<polygon fill="none" stroke="#bfbfbf" points="3744.71,-56.5 3744.71,-75.5 3788.71,-75.5 3788.71,-56.5 3744.71,-56.5"/>
<text text-anchor="middle" x="3766.71" y="-63.5" font-family="Helvetica,sans-Serif" font-size="10.00">string</text>
</a>
</g>
</g>
<!-- Node3&#45;&gt;Node13 -->
<g id="edge20" class="edge">
<title>Node3&#45;&gt;Node13</title>
<path fill="none" stroke="midnightblue" d="M1239.46,-174C1256.25,-171.75 1274.69,-169.52 1291.71,-168 1640.91,-136.86 1730.48,-162.9 2079.71,-132 2147.58,-126 2163.78,-117.31 2231.71,-112 2864.64,-62.52 3025.78,-110.62 3659.71,-76 3684.87,-74.63 3713.29,-72.19 3734.51,-70.2"/>
<polygon fill="midnightblue" stroke="midnightblue" points="3734.98,-73.68 3744.6,-69.24 3734.31,-66.71 3734.98,-73.68"/>
</g>
<!-- Node14 -->
<g id="node10" class="node">
<title>Node14</title>
<g id="a_node10"><a xlink:href="SwapByteOrder_8h.html" target="_top" xlink:title=" ">
<polygon fill="none" stroke="red" points="1904.71,-112.5 1904.71,-131.5 2070.71,-131.5 2070.71,-112.5 1904.71,-112.5"/>
<text text-anchor="middle" x="1987.71" y="-119.5" font-family="Helvetica,sans-Serif" font-size="10.00">llvm/Support/SwapByteOrder.h</text>
</a>
</g>
</g>
<!-- Node3&#45;&gt;Node14 -->
<g id="edge9" class="edge">
<title>Node3&#45;&gt;Node14</title>
<path fill="none" stroke="midnightblue" d="M1219.39,-173.95C1230.37,-171.68 1242.48,-169.46 1253.71,-168 1534.91,-131.53 1607.93,-153.1 1890.71,-132 1891.99,-131.9 1893.28,-131.81 1894.58,-131.71"/>
<polygon fill="midnightblue" stroke="midnightblue" points="1894.96,-135.19 1904.65,-130.91 1894.4,-128.21 1894.96,-135.19"/>
</g>
<!-- Node3&#45;&gt;Node19 -->
<g id="edge13" class="edge">
<title>Node3&#45;&gt;Node19</title>
<path fill="none" stroke="midnightblue" d="M1221.66,-173.95C1232.05,-171.84 1243.28,-169.69 1253.71,-168 1352.64,-151.92 1467.27,-138.86 1542.63,-131.03"/>
<polygon fill="midnightblue" stroke="midnightblue" points="1543.41,-134.47 1553,-129.96 1542.69,-127.51 1543.41,-134.47"/>
</g>
<!-- Node3&#45;&gt;Node20 -->
<g id="edge22" class="edge">
<title>Node3&#45;&gt;Node20</title>
<path fill="none" stroke="midnightblue" d="M1184.96,-173.82C1189.8,-155.17 1201.29,-110.94 1207.87,-85.63"/>
<polygon fill="midnightblue" stroke="midnightblue" points="1211.3,-86.34 1210.43,-75.78 1204.52,-84.58 1211.3,-86.34"/>
</g>
<!-- Node21 -->
<g id="node16" class="node">
<title>Node21</title>
<g id="a_node16"><a xlink:title=" ">
<polygon fill="none" stroke="#bfbfbf" points="1120.71,-112.5 1120.71,-131.5 1184.71,-131.5 1184.71,-112.5 1120.71,-112.5"/>
<text text-anchor="middle" x="1152.71" y="-119.5" font-family="Helvetica,sans-Serif" font-size="10.00">algorithm</text>
</a>
</g>
</g>
<!-- Node3&#45;&gt;Node21 -->
<g id="edge17" class="edge">
<title>Node3&#45;&gt;Node21</title>
<path fill="none" stroke="midnightblue" d="M1178.41,-173.98C1174.04,-165.32 1167.15,-151.65 1161.6,-140.65"/>
<polygon fill="midnightblue" stroke="midnightblue" points="1164.62,-138.86 1157,-131.51 1158.37,-142.01 1164.62,-138.86"/>
</g>
<!-- Node3&#45;&gt;Node22 -->
<g id="edge18" class="edge">
<title>Node3&#45;&gt;Node22</title>
<path fill="none" stroke="midnightblue" d="M1239.52,-175.94C1266.77,-173.04 1299.89,-169.86 1329.71,-168 1626.89,-149.42 2369.44,-173.22 2682.42,-131.8"/>
<polygon fill="midnightblue" stroke="midnightblue" points="2683.03,-135.25 2692.46,-130.42 2682.08,-128.31 2683.03,-135.25"/>
</g>
<!-- Node23 -->
<g id="node18" class="node">
<title>Node23</title>
<g id="a_node18"><a xlink:title=" ">
<polygon fill="none" stroke="#bfbfbf" points="2624.71,-112.5 2624.71,-131.5 2674.71,-131.5 2674.71,-112.5 2624.71,-112.5"/>
<text text-anchor="middle" x="2649.71" y="-119.5" font-family="Helvetica,sans-Serif" font-size="10.00">cstring</text>
</a>
</g>
</g>
<!-- Node3&#45;&gt;Node23 -->
<g id="edge19" class="edge">
<title>Node3&#45;&gt;Node23</title>
<path fill="none" stroke="midnightblue" d="M1239.53,-176.03C1266.77,-173.15 1299.9,-169.97 1329.71,-168 1808.05,-136.45 1928.63,-148.91 2407.71,-132 2481.18,-129.41 2567.2,-126.16 2614.34,-124.36"/>
<polygon fill="midnightblue" stroke="midnightblue" points="2614.77,-127.84 2624.62,-123.96 2614.5,-120.85 2614.77,-127.84"/>
</g>
<!-- Node24 -->
<g id="node19" class="node">
<title>Node24</title>
<g id="a_node19"><a xlink:title=" ">
<polygon fill="none" stroke="#bfbfbf" points="1052.21,-112.5 1052.21,-131.5 1093.21,-131.5 1093.21,-112.5 1052.21,-112.5"/>
<text text-anchor="middle" x="1072.71" y="-119.5" font-family="Helvetica,sans-Serif" font-size="10.00">tuple</text>
</a>
</g>
</g>
<!-- Node3&#45;&gt;Node24 -->
<g id="edge21" class="edge">
<title>Node3&#45;&gt;Node24</title>
<path fill="none" stroke="midnightblue" d="M1166.95,-173.98C1148.73,-164.12 1118.53,-147.79 1097.24,-136.27"/>
<polygon fill="midnightblue" stroke="midnightblue" points="1098.9,-133.19 1088.44,-131.51 1095.57,-139.35 1098.9,-133.19"/>
</g>
<!-- Node9&#45;&gt;Node10 -->
<g id="edge5" class="edge">
<title>Node9&#45;&gt;Node10</title>
<path fill="none" stroke="midnightblue" d="M2319.71,-112.08C2319.71,-105.01 2319.71,-94.86 2319.71,-85.99"/>
<polygon fill="midnightblue" stroke="midnightblue" points="2323.21,-85.75 2319.71,-75.75 2316.21,-85.75 2323.21,-85.75"/>
</g>
<!-- Node9&#45;&gt;Node13 -->
<g id="edge8" class="edge">
<title>Node9&#45;&gt;Node13</title>
<path fill="none" stroke="midnightblue" d="M2398.9,-118.57C2667.53,-110.31 3534.3,-83.38 3659.71,-76 3684.86,-74.52 3713.28,-72.09 3734.51,-70.13"/>
<polygon fill="midnightblue" stroke="midnightblue" points="3734.97,-73.61 3744.6,-69.19 3734.31,-66.64 3734.97,-73.61"/>
</g>
<!-- Node11 -->
<g id="node7" class="node">
<title>Node11</title>
<g id="a_node7"><a xlink:title=" ">
<polygon fill="none" stroke="#bfbfbf" points="2192.21,-0.5 2192.21,-19.5 2331.21,-19.5 2331.21,-0.5 2192.21,-0.5"/>
<text text-anchor="middle" x="2261.71" y="-7.5" font-family="Helvetica,sans-Serif" font-size="10.00">llvm/Config/llvm&#45;config.h</text>
</a>
</g>
</g>
<!-- Node10&#45;&gt;Node11 -->
<g id="edge6" class="edge">
<title>Node10&#45;&gt;Node11</title>
<path fill="none" stroke="midnightblue" d="M2310.39,-56.32C2301.81,-48.34 2288.89,-36.31 2278.52,-26.65"/>
<polygon fill="midnightblue" stroke="midnightblue" points="2280.9,-24.09 2271.19,-19.83 2276.13,-29.21 2280.9,-24.09"/>
</g>
<!-- Node12 -->
<g id="node8" class="node">
<title>Node12</title>
<g id="a_node8"><a xlink:title=" ">
<polygon fill="none" stroke="#bfbfbf" points="2349.71,-0.5 2349.71,-19.5 2405.71,-19.5 2405.71,-0.5 2349.71,-0.5"/>
<text text-anchor="middle" x="2377.71" y="-7.5" font-family="Helvetica,sans-Serif" font-size="10.00">stddef.h</text>
</a>
</g>
</g>
<!-- Node10&#45;&gt;Node12 -->
<g id="edge7" class="edge">
<title>Node10&#45;&gt;Node12</title>
<path fill="none" stroke="midnightblue" d="M2329.03,-56.32C2337.6,-48.34 2350.52,-36.31 2360.89,-26.65"/>
<polygon fill="midnightblue" stroke="midnightblue" points="2363.28,-29.21 2368.22,-19.83 2358.51,-24.09 2363.28,-29.21"/>
</g>
<!-- Node15 -->
<g id="node11" class="node">
<title>Node15</title>
<g id="a_node11"><a xlink:title=" ">
<polygon fill="none" stroke="#bfbfbf" points="2615.21,-56.5 2615.21,-75.5 2668.21,-75.5 2668.21,-56.5 2615.21,-56.5"/>
<text text-anchor="middle" x="2641.71" y="-63.5" font-family="Helvetica,sans-Serif" font-size="10.00">cstddef</text>
</a>
</g>
</g>
<!-- Node14&#45;&gt;Node15 -->
<g id="edge10" class="edge">
<title>Node14&#45;&gt;Node15</title>
<path fill="none" stroke="midnightblue" d="M2070.78,-113.23C2075.49,-112.81 2080.16,-112.39 2084.71,-112 2280.68,-94.99 2515.63,-76.7 2604.88,-69.82"/>
<polygon fill="midnightblue" stroke="midnightblue" points="2605.33,-73.3 2615.03,-69.04 2604.79,-66.32 2605.33,-73.3"/>
</g>
<!-- Node16 -->
<g id="node12" class="node">
<title>Node16</title>
<g id="a_node12"><a xlink:title=" ">
<polygon fill="none" stroke="#bfbfbf" points="3600.71,-56.5 3600.71,-75.5 3650.71,-75.5 3650.71,-56.5 3600.71,-56.5"/>
<text text-anchor="middle" x="3625.71" y="-63.5" font-family="Helvetica,sans-Serif" font-size="10.00">cstdint</text>
</a>
</g>
</g>
<!-- Node14&#45;&gt;Node16 -->
<g id="edge11" class="edge">
<title>Node14&#45;&gt;Node16</title>
<path fill="none" stroke="midnightblue" d="M2070.76,-112.95C2075.47,-112.6 2080.15,-112.28 2084.71,-112 2686.26,-75.35 3421.79,-68.36 3590.22,-67.21"/>
<polygon fill="midnightblue" stroke="midnightblue" points="3590.29,-70.71 3600.26,-67.14 3590.24,-63.71 3590.29,-70.71"/>
</g>
<!-- Node17 -->
<g id="node13" class="node">
<title>Node17</title>
<g id="a_node13"><a xlink:title=" ">
<polygon fill="none" stroke="#bfbfbf" points="1590.21,-56.5 1590.21,-75.5 1659.21,-75.5 1659.21,-56.5 1590.21,-56.5"/>
<text text-anchor="middle" x="1624.71" y="-63.5" font-family="Helvetica,sans-Serif" font-size="10.00">type_traits</text>
</a>
</g>
</g>
<!-- Node14&#45;&gt;Node17 -->
<g id="edge12" class="edge">
<title>Node14&#45;&gt;Node17</title>
<path fill="none" stroke="midnightblue" d="M1930.19,-112.44C1857.89,-101.69 1735.31,-83.45 1669.56,-73.67"/>
<polygon fill="midnightblue" stroke="midnightblue" points="1669.91,-70.19 1659.51,-72.18 1668.88,-77.11 1669.91,-70.19"/>
</g>
<!-- Node19&#45;&gt;Node10 -->
<g id="edge14" class="edge">
<title>Node19&#45;&gt;Node10</title>
<path fill="none" stroke="midnightblue" d="M1696.47,-115.42C1828.04,-105.2 2106.8,-83.54 2242.39,-73.01"/>
<polygon fill="midnightblue" stroke="midnightblue" points="2242.99,-76.47 2252.69,-72.21 2242.45,-69.49 2242.99,-76.47"/>
</g>
<!-- Node19&#45;&gt;Node17 -->
<g id="edge15" class="edge">
<title>Node19&#45;&gt;Node17</title>
<path fill="none" stroke="midnightblue" d="M1624.71,-112.08C1624.71,-105.01 1624.71,-94.86 1624.71,-85.99"/>
<polygon fill="midnightblue" stroke="midnightblue" points="1628.21,-85.75 1624.71,-75.75 1621.21,-85.75 1628.21,-85.75"/>
</g>
<!-- Node19&#45;&gt;Node20 -->
<g id="edge16" class="edge">
<title>Node19&#45;&gt;Node20</title>
<path fill="none" stroke="midnightblue" d="M1559.42,-112.44C1470.26,-100.76 1313.71,-80.24 1245.75,-71.33"/>
<polygon fill="midnightblue" stroke="midnightblue" points="1246,-67.83 1235.63,-70 1245.09,-74.77 1246,-67.83"/>
</g>
<!-- Node26&#45;&gt;Node17 -->
<g id="edge25" class="edge">
<title>Node26&#45;&gt;Node17</title>
<path fill="none" stroke="midnightblue" d="M384.6,-173.99C398.64,-171.92 413.72,-169.79 427.71,-168 574.92,-149.13 615.95,-168.92 759.71,-132 782.09,-126.25 785.18,-117.15 807.71,-112 882.92,-94.79 1418.9,-74.38 1579.4,-68.6"/>
<polygon fill="midnightblue" stroke="midnightblue" points="1579.99,-72.08 1589.86,-68.22 1579.74,-65.08 1579.99,-72.08"/>
</g>
<!-- Node29&#45;&gt;Node2 -->
<g id="edge95" class="edge">
<title>Node29&#45;&gt;Node2</title>
<path fill="none" stroke="midnightblue" d="M1685.02,-523.82C1398.78,-522.88 446.22,-516.89 393.71,-479 368.73,-460.98 369.71,-444.8 369.71,-414 369.71,-414 369.71,-414 369.71,-356 369.71,-323.95 369.71,-286.64 369.71,-264.75"/>
<polygon fill="midnightblue" stroke="midnightblue" points="373.21,-264.56 369.71,-254.56 366.21,-264.56 373.21,-264.56"/>
</g>
<!-- Node29&#45;&gt;Node9 -->
<g id="edge146" class="edge">
<title>Node29&#45;&gt;Node9</title>
<path fill="none" stroke="midnightblue" d="M1846.37,-524.23C2138.19,-524.68 3138.37,-522.92 3454.71,-479 3554.64,-465.13 3612.78,-502.66 3674.71,-423 3791.33,-272.97 3465.64,-309.21 3290.71,-235 3218.6,-204.41 3204.1,-185.31 3127.71,-168 3059.22,-152.48 2604.92,-133.76 2409.17,-126.3"/>
<polygon fill="midnightblue" stroke="midnightblue" points="2409.05,-122.79 2398.92,-125.91 2408.78,-129.79 2409.05,-122.79"/>
</g>
<!-- Node29&#45;&gt;Node13 -->
<g id="edge164" class="edge">
<title>Node29&#45;&gt;Node13</title>
<path fill="none" stroke="midnightblue" d="M1846.41,-523.48C2229.44,-520.86 3849.63,-508.1 3952.71,-479 4007.73,-463.47 4063.71,-471.17 4063.71,-414 4063.71,-414 4063.71,-414 4063.71,-182.5 4063.71,-126.23 3876.16,-86.45 3799.13,-72.49"/>
<polygon fill="midnightblue" stroke="midnightblue" points="3799.49,-69 3789.03,-70.69 3798.26,-75.89 3799.49,-69"/>
</g>
<!-- Node29&#45;&gt;Node15 -->
<g id="edge161" class="edge">
<title>Node29&#45;&gt;Node15</title>
<path fill="none" stroke="midnightblue" d="M1846.35,-524.12C2149.58,-524.23 3221.31,-521.53 3559.71,-479 3688.18,-462.85 3843.71,-543.49 3843.71,-414 3843.71,-414 3843.71,-414 3843.71,-356 3843.71,-205.44 3745.85,-174.13 3608.71,-112 3522.85,-73.11 2844.95,-67.82 2678.51,-67.11"/>
<polygon fill="midnightblue" stroke="midnightblue" points="2678.31,-63.61 2668.3,-67.07 2678.29,-70.61 2678.31,-63.61"/>
</g>
<!-- Node29&#45;&gt;Node17 -->
<g id="edge165" class="edge">
<title>Node29&#45;&gt;Node17</title>
<path fill="none" stroke="midnightblue" d="M1685.02,-523.19C1352.12,-519.69 101.35,-504.83 69.71,-479 -29.26,-398.21 19.25,-325.92 4.71,-199 3.14,-185.31 -4.6,-178.16 4.71,-168 101.31,-62.58 503.04,-121.51 645.71,-112 1005.58,-88.02 1440.72,-72.9 1579.74,-68.41"/>
<polygon fill="midnightblue" stroke="midnightblue" points="1580.11,-71.9 1589.99,-68.08 1579.89,-64.9 1580.11,-71.9"/>
</g>
<!-- Node29&#45;&gt;Node22 -->
<g id="edge159" class="edge">
<title>Node29&#45;&gt;Node22</title>
<path fill="none" stroke="midnightblue" d="M1846.43,-522.66C2169.22,-516.8 3349.71,-490.15 3349.71,-414 3349.71,-414 3349.71,-414 3349.71,-356 3349.71,-271.46 3436.42,-229.78 3378.71,-168 3335.96,-122.24 2887.03,-121.79 2755.02,-122.66"/>
<polygon fill="midnightblue" stroke="midnightblue" points="2754.98,-119.16 2745.01,-122.73 2755.03,-126.16 2754.98,-119.16"/>
</g>
<!-- Node29&#45;&gt;Node25 -->
<g id="edge94" class="edge">
<title>Node29&#45;&gt;Node25</title>
<path fill="none" stroke="midnightblue" d="M1684.87,-523.26C1427.42,-520.6 628.48,-509.99 371.71,-479 232.81,-462.23 63.71,-553.9 63.71,-414 63.71,-414 63.71,-414 63.71,-300 63.71,-265.86 63.71,-226.05 63.71,-203.21"/>
<polygon fill="midnightblue" stroke="midnightblue" points="67.21,-203.19 63.71,-193.19 60.21,-203.19 67.21,-203.19"/>
</g>
<!-- Node30 -->
<g id="node25" class="node">
<title>Node30</title>
<g id="a_node25"><a xlink:href="ArrayRef_8h.html" target="_top" xlink:title=" ">
<polygon fill="none" stroke="black" points="1103.71,-347.5 1103.71,-366.5 1219.71,-366.5 1219.71,-347.5 1103.71,-347.5"/>
<text text-anchor="middle" x="1161.71" y="-354.5" font-family="Helvetica,sans-Serif" font-size="10.00">llvm/ADT/ArrayRef.h</text>
</a>
</g>
</g>
<!-- Node29&#45;&gt;Node30 -->
<g id="edge33" class="edge">
<title>Node29&#45;&gt;Node30</title>
<path fill="none" stroke="midnightblue" d="M1684.91,-517.21C1623.25,-510.78 1536.62,-499.04 1462.71,-479 1357.51,-450.47 1239.35,-395.93 1187.94,-371"/>
<polygon fill="midnightblue" stroke="midnightblue" points="1189.38,-367.81 1178.85,-366.57 1186.3,-374.1 1189.38,-367.81"/>
</g>
<!-- Node31 -->
<g id="node26" class="node">
<title>Node31</title>
<g id="a_node26"><a xlink:href="SmallVector_8h.html" target="_top" xlink:title=" ">
<polygon fill="none" stroke="black" points="1811.21,-291.5 1811.21,-310.5 1942.21,-310.5 1942.21,-291.5 1811.21,-291.5"/>
<text text-anchor="middle" x="1876.71" y="-298.5" font-family="Helvetica,sans-Serif" font-size="10.00">llvm/ADT/SmallVector.h</text>
</a>
</g>
</g>
<!-- Node29&#45;&gt;Node31 -->
<g id="edge116" class="edge">
<title>Node29&#45;&gt;Node31</title>
<path fill="none" stroke="midnightblue" d="M1770.06,-515.3C1786.49,-482.42 1845.01,-365.39 1867.66,-320.09"/>
<polygon fill="midnightblue" stroke="midnightblue" points="1870.92,-321.39 1872.26,-310.88 1864.66,-318.26 1870.92,-321.39"/>
</g>
<!-- Node32 -->
<g id="node27" class="node">
<title>Node32</title>
<g id="a_node27"><a xlink:href="iterator__range_8h.html" target="_top" xlink:title="This provides a very simple, boring adaptor for a begin and end iterator into a range type.">
<polygon fill="none" stroke="black" points="698.21,-174 698.21,-193 841.21,-193 841.21,-174 698.21,-174"/>
<text text-anchor="middle" x="769.71" y="-181" font-family="Helvetica,sans-Serif" font-size="10.00">llvm/ADT/iterator_range.h</text>
</a>
</g>
</g>
<!-- Node29&#45;&gt;Node32 -->
<g id="edge145" class="edge">
<title>Node29&#45;&gt;Node32</title>
<path fill="none" stroke="midnightblue" d="M1684.97,-523.31C1461.22,-520.99 836.38,-511.68 633.71,-479 530.52,-462.36 407.71,-518.52 407.71,-414 407.71,-414 407.71,-414 407.71,-356 407.71,-322.54 419.69,-312.04 445.71,-291 516.03,-234.13 617.77,-207.21 688.41,-194.75"/>
<polygon fill="midnightblue" stroke="midnightblue" points="689.33,-198.14 698.6,-193.01 688.15,-191.24 689.33,-198.14"/>
</g>
<!-- Node35 -->
<g id="node30" class="node">
<title>Node35</title>
<g id="a_node30"><a xlink:title=" ">
<polygon fill="none" stroke="#bfbfbf" points="1068.21,-235.5 1068.21,-254.5 1133.21,-254.5 1133.21,-235.5 1068.21,-235.5"/>
<text text-anchor="middle" x="1100.71" y="-242.5" font-family="Helvetica,sans-Serif" font-size="10.00">functional</text>
</a>
</g>
</g>
<!-- Node29&#45;&gt;Node35 -->
<g id="edge162" class="edge">
<title>Node29&#45;&gt;Node35</title>
<path fill="none" stroke="midnightblue" d="M1685.12,-521.53C1398.53,-512.21 445.71,-476.52 445.71,-414 445.71,-414 445.71,-414 445.71,-356 445.71,-325.9 441.28,-309.89 464.71,-291 487.8,-272.38 918.36,-253.38 1057.64,-247.7"/>
<polygon fill="midnightblue" stroke="midnightblue" points="1058.07,-251.19 1067.92,-247.29 1057.78,-244.19 1058.07,-251.19"/>
</g>
<!-- Node36 -->
<g id="node31" class="node">
<title>Node36</title>
<g id="a_node31"><a xlink:title=" ">
<polygon fill="none" stroke="#bfbfbf" points="1480.21,-235.5 1480.21,-254.5 1563.21,-254.5 1563.21,-235.5 1480.21,-235.5"/>
<text text-anchor="middle" x="1521.71" y="-242.5" font-family="Helvetica,sans-Serif" font-size="10.00">initializer_list</text>
</a>
</g>
</g>
<!-- Node29&#45;&gt;Node36 -->
<g id="edge163" class="edge">
<title>Node29&#45;&gt;Node36</title>
<path fill="none" stroke="midnightblue" d="M1685.15,-516.95C1620.94,-506.37 1541.71,-479.96 1541.71,-414 1541.71,-414 1541.71,-414 1541.71,-356 1541.71,-323.44 1533.12,-286.32 1527.2,-264.59"/>
<polygon fill="midnightblue" stroke="midnightblue" points="1530.5,-263.41 1524.4,-254.74 1523.76,-265.32 1530.5,-263.41"/>
</g>
<!-- Node39 -->
<g id="node34" class="node">
<title>Node39</title>
<g id="a_node34"><a xlink:href="STLExtras_8h.html" target="_top" xlink:title=" ">
<polygon fill="none" stroke="black" points="921.71,-291.5 921.71,-310.5 1043.71,-310.5 1043.71,-291.5 921.71,-291.5"/>
<text text-anchor="middle" x="982.71" y="-298.5" font-family="Helvetica,sans-Serif" font-size="10.00">llvm/ADT/STLExtras.h</text>
</a>
</g>
</g>
<!-- Node29&#45;&gt;Node39 -->
<g id="edge96" class="edge">
<title>Node29&#45;&gt;Node39</title>
<path fill="none" stroke="midnightblue" d="M1684.93,-519.47C1609.92,-514.01 1495.57,-502.45 1398.71,-479 1258.76,-445.12 1225.02,-428.26 1094.71,-367 1062.13,-351.69 1026.49,-330.1 1004.36,-316.08"/>
<polygon fill="midnightblue" stroke="midnightblue" points="1006.06,-313.01 995.75,-310.57 1002.29,-318.91 1006.06,-313.01"/>
</g>
<!-- Node43 -->
<g id="node38" class="node">
<title>Node43</title>
<g id="a_node38"><a xlink:title=" ">
<polygon fill="none" stroke="#bfbfbf" points="1426.21,-291.5 1426.21,-310.5 1473.21,-310.5 1473.21,-291.5 1426.21,-291.5"/>
<text text-anchor="middle" x="1449.71" y="-298.5" font-family="Helvetica,sans-Serif" font-size="10.00">vector</text>
</a>
</g>
</g>
<!-- Node29&#45;&gt;Node43 -->
<g id="edge166" class="edge">
<title>Node29&#45;&gt;Node43</title>
<path fill="none" stroke="midnightblue" d="M1684.96,-516.79C1625.77,-510.05 1551.74,-498.09 1527.71,-479 1476.69,-438.48 1458.2,-357.72 1452.24,-320.98"/>
<polygon fill="midnightblue" stroke="midnightblue" points="1455.64,-320.09 1450.72,-310.71 1448.72,-321.12 1455.64,-320.09"/>
</g>
<!-- Node44 -->
<g id="node39" class="node">
<title>Node44</title>
<g id="a_node39"><a xlink:href="SmallPtrSet_8h.html" target="_top" xlink:title=" ">
<polygon fill="none" stroke="black" points="2766.21,-291.5 2766.21,-310.5 2897.21,-310.5 2897.21,-291.5 2766.21,-291.5"/>
<text text-anchor="middle" x="2831.71" y="-298.5" font-family="Helvetica,sans-Serif" font-size="10.00">llvm/ADT/SmallPtrSet.h</text>
</a>
</g>
</g>
<!-- Node29&#45;&gt;Node44 -->
<g id="edge97" class="edge">
<title>Node29&#45;&gt;Node44</title>
<path fill="none" stroke="midnightblue" d="M1846.38,-521.91C2000.19,-517.38 2329.92,-504.93 2440.71,-479 2503.95,-464.2 2516.33,-449.33 2575.71,-423 2660.46,-385.42 2759.27,-337.54 2805.43,-314.94"/>
<polygon fill="midnightblue" stroke="midnightblue" points="2807.02,-318.05 2814.46,-310.51 2803.94,-311.77 2807.02,-318.05"/>
</g>
<!-- Node48 -->
<g id="node43" class="node">
<title>Node48</title>
<g id="a_node43"><a xlink:href="StringMap_8h.html" target="_top" xlink:title=" ">
<polygon fill="none" stroke="black" points="1933.21,-459.5 1933.21,-478.5 2056.21,-478.5 2056.21,-459.5 1933.21,-459.5"/>
<text text-anchor="middle" x="1994.71" y="-466.5" font-family="Helvetica,sans-Serif" font-size="10.00">llvm/ADT/StringMap.h</text>
</a>
</g>
</g>
<!-- Node29&#45;&gt;Node48 -->
<g id="edge117" class="edge">
<title>Node29&#45;&gt;Node48</title>
<path fill="none" stroke="midnightblue" d="M1801.99,-515.44C1841.69,-506.08 1905.41,-491.06 1948.62,-480.87"/>
<polygon fill="midnightblue" stroke="midnightblue" points="1949.66,-484.22 1958.59,-478.52 1948.05,-477.41 1949.66,-484.22"/>
</g>
<!-- Node50 -->
<g id="node45" class="node">
<title>Node50</title>
<g id="a_node45"><a xlink:href="StringRef_8h.html" target="_top" xlink:title=" ">
<polygon fill="none" stroke="black" points="2526.71,-347.5 2526.71,-366.5 2644.71,-366.5 2644.71,-347.5 2526.71,-347.5"/>
<text text-anchor="middle" x="2585.71" y="-354.5" font-family="Helvetica,sans-Serif" font-size="10.00">llvm/ADT/StringRef.h</text>
</a>
</g>
</g>
<!-- Node29&#45;&gt;Node50 -->
<g id="edge137" class="edge">
<title>Node29&#45;&gt;Node50</title>
<path fill="none" stroke="midnightblue" d="M1846.38,-523.01C2023.63,-519.36 2440.21,-502.35 2552.71,-423 2568.19,-412.08 2576.84,-391.71 2581.37,-376.67"/>
<polygon fill="midnightblue" stroke="midnightblue" points="2584.79,-377.44 2583.97,-366.88 2578.02,-375.65 2584.79,-377.44"/>
</g>
<!-- Node52 -->
<g id="node47" class="node">
<title>Node52</title>
<g id="a_node47"><a xlink:href="Twine_8h.html" target="_top" xlink:title=" ">
<polygon fill="none" stroke="black" points="3565.21,-403.5 3565.21,-422.5 3666.21,-422.5 3666.21,-403.5 3565.21,-403.5"/>
<text text-anchor="middle" x="3615.71" y="-410.5" font-family="Helvetica,sans-Serif" font-size="10.00">llvm/ADT/Twine.h</text>
</a>
</g>
</g>
<!-- Node29&#45;&gt;Node52 -->
<g id="edge138" class="edge">
<title>Node29&#45;&gt;Node52</title>
<path fill="none" stroke="midnightblue" d="M1846.41,-523.02C2154.11,-519.09 3244.12,-503.58 3397.71,-479 3465.8,-468.1 3542.42,-441.83 3584.26,-426.23"/>
<polygon fill="midnightblue" stroke="midnightblue" points="3585.75,-429.41 3593.87,-422.6 3583.28,-422.86 3585.75,-429.41"/>
</g>
<!-- Node53 -->
<g id="node48" class="node">
<title>Node53</title>
<g id="a_node48"><a xlink:href="ManagedStatic_8h.html" target="_top" xlink:title=" ">
<polygon fill="none" stroke="red" points="3871.71,-347.5 3871.71,-366.5 4035.71,-366.5 4035.71,-347.5 3871.71,-347.5"/>
<text text-anchor="middle" x="3953.71" y="-354.5" font-family="Helvetica,sans-Serif" font-size="10.00">llvm/Support/ManagedStatic.h</text>
</a>
</g>
</g>
<!-- Node29&#45;&gt;Node53 -->
<g id="edge147" class="edge">
<title>Node29&#45;&gt;Node53</title>
<path fill="none" stroke="midnightblue" d="M1846.26,-523.7C2233.89,-522.11 3890.16,-513.29 3930.71,-479 3960.14,-454.11 3959.53,-404.29 3956.59,-376.98"/>
<polygon fill="midnightblue" stroke="midnightblue" points="3960.02,-376.26 3955.27,-366.79 3953.08,-377.16 3960.02,-376.26"/>
</g>
<!-- Node55 -->
<g id="node49" class="node">
<title>Node55</title>
<g id="a_node49"><a xlink:href="raw__ostream_8h.html" target="_top" xlink:title=" ">
<polygon fill="none" stroke="red" points="3378.21,-403.5 3378.21,-422.5 3533.21,-422.5 3533.21,-403.5 3378.21,-403.5"/>
<text text-anchor="middle" x="3455.71" y="-410.5" font-family="Helvetica,sans-Serif" font-size="10.00">llvm/Support/raw_ostream.h</text>
</a>
</g>
</g>
<!-- Node29&#45;&gt;Node55 -->
<g id="edge149" class="edge">
<title>Node29&#45;&gt;Node55</title>
<path fill="none" stroke="midnightblue" d="M1846.38,-524.46C2150.75,-525.81 3219.42,-527.07 3363.71,-479 3393.68,-469.01 3422.47,-445.74 3439.62,-429.93"/>
<polygon fill="midnightblue" stroke="midnightblue" points="3442.23,-432.29 3447.06,-422.86 3437.4,-427.21 3442.23,-432.29"/>
</g>
<!-- Node58 -->
<g id="node50" class="node">
<title>Node58</title>
<g id="a_node50"><a xlink:title=" ">
<polygon fill="none" stroke="#bfbfbf" points="3871.71,-459.5 3871.71,-478.5 3921.71,-478.5 3921.71,-459.5 3871.71,-459.5"/>
<text text-anchor="middle" x="3896.71" y="-466.5" font-family="Helvetica,sans-Serif" font-size="10.00">climits</text>
</a>
</g>
</g>
<!-- Node29&#45;&gt;Node58 -->
<g id="edge160" class="edge">
<title>Node29&#45;&gt;Node58</title>
<path fill="none" stroke="midnightblue" d="M1846.44,-523.24C2206.36,-519.74 3655.89,-504.19 3857.71,-479 3858.99,-478.84 3860.29,-478.66 3861.6,-478.45"/>
<polygon fill="midnightblue" stroke="midnightblue" points="3862.48,-481.85 3871.67,-476.58 3861.19,-474.97 3862.48,-481.85"/>
</g>
<!-- Node30&#45;&gt;Node3 -->
<g id="edge34" class="edge">
<title>Node30&#45;&gt;Node3</title>
<path fill="none" stroke="midnightblue" d="M1162.78,-347.26C1166.03,-320.65 1175.88,-240.21 1180.4,-203.34"/>
<polygon fill="midnightblue" stroke="midnightblue" points="1183.92,-203.37 1181.66,-193.02 1176.97,-202.52 1183.92,-203.37"/>
</g>
<!-- Node30&#45;&gt;Node10 -->
<g id="edge84" class="edge">
<title>Node30&#45;&gt;Node10</title>
<path fill="none" stroke="midnightblue" d="M1103.35,-355.07C1001.41,-350.97 806.38,-330.75 857.71,-235 904.35,-147.98 948.71,-142.21 1042.71,-112 1099.89,-93.62 1974.4,-74.13 2242.3,-68.56"/>
<polygon fill="midnightblue" stroke="midnightblue" points="2242.4,-72.06 2252.33,-68.36 2242.26,-65.06 2242.4,-72.06"/>
</g>
<!-- Node30&#45;&gt;Node15 -->
<g id="edge88" class="edge">
<title>Node30&#45;&gt;Node15</title>
<path fill="none" stroke="midnightblue" d="M1173.22,-347.38C1190.2,-334.74 1223.05,-310.55 1251.71,-291 1289.69,-265.08 1298.35,-257.04 1338.71,-235 1372.57,-216.51 1384.8,-219.15 1417.71,-199 1436.59,-187.43 1436.02,-175.9 1456.71,-168 1586.26,-118.54 1942.62,-152.91 2079.71,-132 2115.94,-126.47 2123.58,-118.17 2159.71,-112 2324.42,-83.89 2524.02,-72.3 2604.97,-68.52"/>
<polygon fill="midnightblue" stroke="midnightblue" points="2605.31,-72.01 2615.14,-68.06 2604.99,-65.02 2605.31,-72.01"/>
</g>
<!-- Node30&#45;&gt;Node17 -->
<g id="edge92" class="edge">
<title>Node30&#45;&gt;Node17</title>
<path fill="none" stroke="midnightblue" d="M1103.5,-355.11C972.52,-352.55 658.23,-343.16 557.71,-311 541.37,-305.77 540.88,-296.7 524.71,-291 410.95,-250.89 356.23,-321.67 255.71,-255 221.24,-232.14 194.73,-198.46 222.71,-168 254.62,-133.26 598.93,-138.08 645.71,-132 696.72,-125.37 708.59,-117.79 759.71,-112 1072.18,-76.6 1451.35,-69.01 1579.75,-67.41"/>
<polygon fill="midnightblue" stroke="midnightblue" points="1580.01,-70.91 1589.97,-67.29 1579.93,-63.91 1580.01,-70.91"/>
</g>
<!-- Node30&#45;&gt;Node21 -->
<g id="edge85" class="edge">
<title>Node30&#45;&gt;Node21</title>
<path fill="none" stroke="midnightblue" d="M1103.4,-356.54C1001.96,-356.31 786.98,-350.63 610.71,-311 586.14,-305.48 582.11,-297.18 557.71,-291 442.48,-261.83 399.2,-307.79 292.71,-255 251.51,-234.58 204.87,-201.19 236.71,-168 270,-133.29 1053.89,-137.19 1101.71,-132 1104.6,-131.69 1107.57,-131.31 1110.56,-130.89"/>
<polygon fill="midnightblue" stroke="midnightblue" points="1111.35,-134.31 1120.7,-129.32 1110.28,-127.39 1111.35,-134.31"/>
</g>
<!-- Node30&#45;&gt;Node22 -->
<g id="edge87" class="edge">
<title>Node30&#45;&gt;Node22</title>
<path fill="none" stroke="midnightblue" d="M1179.83,-347.41C1198.15,-338.62 1227.17,-324.39 1251.71,-311 1309.78,-279.3 1319.68,-262.83 1379.71,-235 1462.46,-196.63 1484,-184.55 1573.71,-168 2055.79,-79.04 2193.21,-200.2 2682.31,-131.85"/>
<polygon fill="midnightblue" stroke="midnightblue" points="2683.05,-135.28 2692.46,-130.41 2682.07,-128.35 2683.05,-135.28"/>
</g>
<!-- Node30&#45;&gt;Node25 -->
<g id="edge35" class="edge">
<title>Node30&#45;&gt;Node25</title>
<path fill="none" stroke="midnightblue" d="M1103.61,-355.63C913.16,-353.6 310.12,-340.42 138.71,-255 113.07,-242.22 90.13,-217.8 76.56,-201.33"/>
<polygon fill="midnightblue" stroke="midnightblue" points="79,-198.77 70.03,-193.12 73.52,-203.13 79,-198.77"/>
</g>
<!-- Node30&#45;&gt;Node27 -->
<g id="edge91" class="edge">
<title>Node30&#45;&gt;Node27</title>
<path fill="none" stroke="midnightblue" d="M1103.45,-351.43C950.35,-338.81 545.86,-301.35 508.71,-255 491.88,-234 522.09,-211.62 546.98,-197.85"/>
<polygon fill="midnightblue" stroke="midnightblue" points="548.93,-200.77 556.14,-193.01 545.67,-194.58 548.93,-200.77"/>
</g>
<!-- Node30&#45;&gt;Node31 -->
<g id="edge36" class="edge">
<title>Node30&#45;&gt;Node31</title>
<path fill="none" stroke="midnightblue" d="M1219.91,-351.6C1348.69,-341.88 1657.63,-318.55 1801.11,-307.71"/>
<polygon fill="midnightblue" stroke="midnightblue" points="1801.44,-311.19 1811.15,-306.95 1800.91,-304.21 1801.44,-311.19"/>
</g>
<!-- Node30&#45;&gt;Node36 -->
<g id="edge89" class="edge">
<title>Node30&#45;&gt;Node36</title>
<path fill="none" stroke="midnightblue" d="M1212.24,-347.44C1253.93,-339.77 1314.35,-327.22 1365.71,-311 1378.33,-307.01 1450.73,-276.32 1492.32,-258.58"/>
<polygon fill="midnightblue" stroke="midnightblue" points="1493.86,-261.73 1501.68,-254.58 1491.11,-255.29 1493.86,-261.73"/>
</g>
<!-- Node37 -->
<g id="node32" class="node">
<title>Node37</title>
<g id="a_node32"><a xlink:title=" ">
<polygon fill="none" stroke="#bfbfbf" points="1583.21,-174 1583.21,-193 1636.21,-193 1636.21,-174 1583.21,-174"/>
<text text-anchor="middle" x="1609.71" y="-181" font-family="Helvetica,sans-Serif" font-size="10.00">iterator</text>
</a>
</g>
</g>
<!-- Node30&#45;&gt;Node37 -->
<g id="edge90" class="edge">
<title>Node30&#45;&gt;Node37</title>
<path fill="none" stroke="midnightblue" d="M1219.68,-347.47C1252.83,-340.88 1294.33,-329.63 1327.71,-311 1370.81,-286.94 1365.38,-258.66 1408.71,-235 1461.54,-206.15 1531.18,-193.44 1573.08,-188.09"/>
<polygon fill="midnightblue" stroke="midnightblue" points="1573.6,-191.56 1583.11,-186.89 1572.76,-184.61 1573.6,-191.56"/>
</g>
<!-- Node30&#45;&gt;Node39 -->
<g id="edge59" class="edge">
<title>Node30&#45;&gt;Node39</title>
<path fill="none" stroke="midnightblue" d="M1133.34,-347.44C1102.97,-338.28 1054.6,-323.69 1020.89,-313.52"/>
<polygon fill="midnightblue" stroke="midnightblue" points="1021.52,-310.05 1010.94,-310.52 1019.5,-316.76 1021.52,-310.05"/>
</g>
<!-- Node42 -->
<g id="node37" class="node">
<title>Node42</title>
<g id="a_node37"><a xlink:title=" ">
<polygon fill="none" stroke="#bfbfbf" points="473.71,-291.5 473.71,-310.5 515.71,-310.5 515.71,-291.5 473.71,-291.5"/>
<text text-anchor="middle" x="494.71" y="-298.5" font-family="Helvetica,sans-Serif" font-size="10.00">array</text>
</a>
</g>
</g>
<!-- Node30&#45;&gt;Node42 -->
<g id="edge86" class="edge">
<title>Node30&#45;&gt;Node42</title>
<path fill="none" stroke="midnightblue" d="M1103.36,-355.36C991.4,-353.35 738.98,-345.07 529.71,-311 528.45,-310.8 527.18,-310.57 525.89,-310.32"/>
<polygon fill="midnightblue" stroke="midnightblue" points="526.57,-306.89 516.05,-308.14 525.05,-313.72 526.57,-306.89"/>
</g>
<!-- Node30&#45;&gt;Node43 -->
<g id="edge93" class="edge">
<title>Node30&#45;&gt;Node43</title>
<path fill="none" stroke="midnightblue" d="M1211.48,-347.47C1261.44,-338.79 1340.54,-324.69 1408.71,-311 1411.06,-310.53 1413.48,-310.03 1415.92,-309.52"/>
<polygon fill="midnightblue" stroke="midnightblue" points="1416.84,-312.9 1425.89,-307.38 1415.38,-306.05 1416.84,-312.9"/>
</g>
<!-- Node31&#45;&gt;Node9 -->
<g id="edge40" class="edge">
<title>Node31&#45;&gt;Node9</title>
<path fill="none" stroke="midnightblue" d="M1942.23,-296.99C1980.39,-292.29 2027.57,-281.09 2061.71,-255 2096.79,-228.18 2074.25,-194.33 2109.71,-168 2130.44,-152.6 2190.21,-140.69 2240.71,-133"/>
<polygon fill="midnightblue" stroke="midnightblue" points="2241.3,-136.46 2250.68,-131.52 2240.27,-129.53 2241.3,-136.46"/>
</g>
<!-- Node31&#45;&gt;Node10 -->
<g id="edge39" class="edge">
<title>Node31&#45;&gt;Node10</title>
<path fill="none" stroke="midnightblue" d="M1889.2,-291.3C1899.58,-283.25 1913.59,-270.24 1919.71,-255 1926.02,-239.24 1923.73,-207.42 1912.71,-168 1905.7,-142.95 1878.31,-131.34 1895.71,-112 1918.41,-86.76 2126.34,-74.58 2242.34,-69.71"/>
<polygon fill="midnightblue" stroke="midnightblue" points="2242.74,-73.2 2252.59,-69.29 2242.45,-66.2 2242.74,-73.2"/>
</g>
<!-- Node31&#45;&gt;Node15 -->
<g id="edge48" class="edge">
<title>Node31&#45;&gt;Node15</title>
<path fill="none" stroke="midnightblue" d="M1888.4,-291.38C1919.26,-268.9 2005.95,-207.49 2084.71,-168 2147.21,-136.67 2163.74,-128.39 2231.71,-112 2366.45,-79.5 2531.83,-70.42 2604.48,-67.93"/>
<polygon fill="midnightblue" stroke="midnightblue" points="2605.04,-71.41 2614.92,-67.59 2604.82,-64.41 2605.04,-71.41"/>
</g>
<!-- Node31&#45;&gt;Node17 -->
<g id="edge57" class="edge">
<title>Node31&#45;&gt;Node17</title>
<path fill="none" stroke="midnightblue" d="M1883.86,-291.36C1890.48,-282.76 1899.86,-268.87 1903.71,-255 1910.57,-230.23 1902.3,-178.26 1893.71,-168 1861.49,-129.53 1833.79,-149.35 1786.71,-132 1740.06,-114.81 1686.68,-92.96 1654.35,-79.48"/>
<polygon fill="midnightblue" stroke="midnightblue" points="1655.6,-76.21 1645.02,-75.58 1652.9,-82.67 1655.6,-76.21"/>
</g>
<!-- Node31&#45;&gt;Node19 -->
<g id="edge45" class="edge">
<title>Node31&#45;&gt;Node19</title>
<path fill="none" stroke="midnightblue" d="M1879.64,-291.29C1886.88,-268.04 1902.8,-203.87 1871.71,-168 1860.76,-155.37 1774.27,-141.72 1706.68,-132.81"/>
<polygon fill="midnightblue" stroke="midnightblue" points="1706.81,-129.29 1696.44,-131.47 1705.9,-136.24 1706.81,-129.29"/>
</g>
<!-- Node31&#45;&gt;Node20 -->
<g id="edge58" class="edge">
<title>Node31&#45;&gt;Node20</title>
<path fill="none" stroke="midnightblue" d="M1870.78,-291.13C1861.51,-277.74 1842.48,-252.1 1821.71,-235 1774.55,-196.17 1758.95,-189.31 1701.71,-168 1679.94,-159.89 1351.68,-94.53 1245.54,-73.5"/>
<polygon fill="midnightblue" stroke="midnightblue" points="1245.9,-70 1235.41,-71.49 1244.54,-76.87 1245.9,-70"/>
</g>
<!-- Node31&#45;&gt;Node21 -->
<g id="edge46" class="edge">
<title>Node31&#45;&gt;Node21</title>
<path fill="none" stroke="midnightblue" d="M1867.16,-291.4C1852.12,-278.14 1821.62,-252.4 1792.71,-235 1730.84,-197.76 1714.52,-186.43 1644.71,-168 1482.5,-125.17 1280.95,-121.52 1194.87,-122.18"/>
<polygon fill="midnightblue" stroke="midnightblue" points="1194.67,-118.68 1184.71,-122.28 1194.74,-125.68 1194.67,-118.68"/>
</g>
<!-- Node31&#45;&gt;Node22 -->
<g id="edge47" class="edge">
<title>Node31&#45;&gt;Node22</title>
<path fill="none" stroke="midnightblue" d="M1942.27,-298.28C1990.95,-294.48 2057.49,-283.82 2108.71,-255 2154.22,-229.39 2140.75,-190.86 2187.71,-168 2284.35,-120.95 2559.06,-148.24 2682.4,-131.79"/>
<polygon fill="midnightblue" stroke="midnightblue" points="2683.06,-135.23 2692.44,-130.29 2682.03,-128.3 2683.06,-135.23"/>
</g>
<!-- Node31&#45;&gt;Node23 -->
<g id="edge50" class="edge">
<title>Node31&#45;&gt;Node23</title>
<path fill="none" stroke="midnightblue" d="M1942.28,-297.81C1985.74,-293.62 2042.33,-282.68 2084.71,-255 2124.68,-228.89 2106.2,-191.59 2147.71,-168 2188.11,-145.04 2507.11,-129.2 2614.54,-124.47"/>
<polygon fill="midnightblue" stroke="midnightblue" points="2614.71,-127.97 2624.55,-124.04 2614.41,-120.97 2614.71,-127.97"/>
</g>
<!-- Node31&#45;&gt;Node27 -->
<g id="edge55" class="edge">
<title>Node31&#45;&gt;Node27</title>
<path fill="none" stroke="midnightblue" d="M1823.67,-291.47C1775.43,-283.34 1702.4,-270.13 1639.71,-255 1609.08,-247.61 1602.79,-240.12 1571.71,-235 1184.17,-171.11 1080.1,-231.81 688.71,-199 663.82,-196.91 636.01,-193.4 614.09,-190.36"/>
<polygon fill="midnightblue" stroke="midnightblue" points="614.55,-186.89 604.16,-188.95 613.57,-193.82 614.55,-186.89"/>
</g>
<!-- Node31&#45;&gt;Node28 -->
<g id="edge56" class="edge">
<title>Node31&#45;&gt;Node28</title>
<path fill="none" stroke="midnightblue" d="M1851.27,-291.4C1826.92,-282.94 1789.33,-269.24 1757.71,-255 1740.3,-247.17 1737.83,-240.97 1719.71,-235 1612.72,-199.74 1477.9,-188.9 1419.67,-185.73"/>
<polygon fill="midnightblue" stroke="midnightblue" points="1419.56,-182.22 1409.4,-185.21 1419.21,-189.21 1419.56,-182.22"/>
</g>
<!-- Node31&#45;&gt;Node32 -->
<g id="edge37" class="edge">
<title>Node31&#45;&gt;Node32</title>
<path fill="none" stroke="midnightblue" d="M1846.45,-291.37C1785.71,-274.08 1653.88,-236.69 1643.71,-235 1566.98,-222.23 1054.19,-197.6 851.71,-188.23"/>
<polygon fill="midnightblue" stroke="midnightblue" points="851.59,-184.72 841.44,-187.76 851.27,-191.72 851.59,-184.72"/>
</g>
<!-- Node33 -->
<g id="node28" class="node">
<title>Node33</title>
<g id="a_node28"><a xlink:href="MemAlloc_8h.html" target="_top" xlink:title="This file defines counterparts of C library allocation functions defined in the namespace &#39;std&#39;.">
<polygon fill="none" stroke="black" points="2227.71,-235.5 2227.71,-254.5 2367.71,-254.5 2367.71,-235.5 2227.71,-235.5"/>
<text text-anchor="middle" x="2297.71" y="-242.5" font-family="Helvetica,sans-Serif" font-size="10.00">llvm/Support/MemAlloc.h</text>
</a>
</g>
</g>
<!-- Node31&#45;&gt;Node33 -->
<g id="edge41" class="edge">
<title>Node31&#45;&gt;Node33</title>
<path fill="none" stroke="midnightblue" d="M1942.49,-291.56C2018,-281.88 2141.68,-266.01 2221.37,-255.79"/>
<polygon fill="midnightblue" stroke="midnightblue" points="2221.87,-259.26 2231.35,-254.51 2220.98,-252.31 2221.87,-259.26"/>
</g>
<!-- Node34 -->
<g id="node29" class="node">
<title>Node34</title>
<g id="a_node29"><a xlink:title=" ">
<polygon fill="none" stroke="#bfbfbf" points="2197.21,-174 2197.21,-193 2246.21,-193 2246.21,-174 2197.21,-174"/>
<text text-anchor="middle" x="2221.71" y="-181" font-family="Helvetica,sans-Serif" font-size="10.00">cstdlib</text>
</a>
</g>
</g>
<!-- Node31&#45;&gt;Node34 -->
<g id="edge49" class="edge">
<title>Node31&#45;&gt;Node34</title>
<path fill="none" stroke="midnightblue" d="M1942.22,-296.37C2018.28,-291.08 2138.11,-279.15 2175.71,-255 2194.87,-242.69 2207.75,-219.24 2214.89,-202.77"/>
<polygon fill="midnightblue" stroke="midnightblue" points="2218.28,-203.73 2218.77,-193.15 2211.79,-201.12 2218.28,-203.73"/>
</g>
<!-- Node31&#45;&gt;Node35 -->
<g id="edge51" class="edge">
<title>Node31&#45;&gt;Node35</title>
<path fill="none" stroke="midnightblue" d="M1810.88,-295.42C1656.04,-284.64 1272.14,-257.93 1143.49,-248.98"/>
<polygon fill="midnightblue" stroke="midnightblue" points="1143.48,-245.47 1133.26,-248.27 1142.99,-252.45 1143.48,-245.47"/>
</g>
<!-- Node31&#45;&gt;Node36 -->
<g id="edge52" class="edge">
<title>Node31&#45;&gt;Node36</title>
<path fill="none" stroke="midnightblue" d="M1818.8,-291.46C1758.55,-282.53 1661.48,-268.03 1577.71,-255 1576.25,-254.77 1574.77,-254.54 1573.27,-254.31"/>
<polygon fill="midnightblue" stroke="midnightblue" points="1573.71,-250.83 1563.29,-252.73 1572.62,-257.75 1573.71,-250.83"/>
</g>
<!-- Node31&#45;&gt;Node37 -->
<g id="edge53" class="edge">
<title>Node31&#45;&gt;Node37</title>
<path fill="none" stroke="midnightblue" d="M1862.82,-291.39C1841.01,-278.11 1797.14,-252.34 1757.71,-235 1720.64,-218.7 1676.53,-204.25 1646.17,-195.03"/>
<polygon fill="midnightblue" stroke="midnightblue" points="1647.01,-191.63 1636.43,-192.11 1645,-198.33 1647.01,-191.63"/>
</g>
<!-- Node38 -->
<g id="node33" class="node">
<title>Node38</title>
<g id="a_node33"><a xlink:title=" ">
<polygon fill="none" stroke="#bfbfbf" points="1417.71,-235.5 1417.71,-254.5 1461.71,-254.5 1461.71,-235.5 1417.71,-235.5"/>
<text text-anchor="middle" x="1439.71" y="-242.5" font-family="Helvetica,sans-Serif" font-size="10.00">limits</text>
</a>
</g>
</g>
<!-- Node31&#45;&gt;Node38 -->
<g id="edge54" class="edge">
<title>Node31&#45;&gt;Node38</title>
<path fill="none" stroke="midnightblue" d="M1811.13,-296.22C1732.55,-290.91 1596.86,-279.27 1472.06,-254.96"/>
<polygon fill="midnightblue" stroke="midnightblue" points="1472.43,-251.46 1461.94,-252.95 1471.07,-258.33 1472.43,-251.46"/>
</g>
<!-- Node32&#45;&gt;Node20 -->
<g id="edge38" class="edge">
<title>Node32&#45;&gt;Node20</title>
<path fill="none" stroke="midnightblue" d="M777.19,-173.75C790.96,-158.3 822.01,-126.49 855.71,-112 913.81,-87.02 1103.33,-73.4 1180.03,-68.8"/>
<polygon fill="midnightblue" stroke="midnightblue" points="1180.31,-72.29 1190.08,-68.21 1179.9,-65.31 1180.31,-72.29"/>
</g>
<!-- Node33&#45;&gt;Node9 -->
<g id="edge43" class="edge">
<title>Node33&#45;&gt;Node9</title>
<path fill="none" stroke="midnightblue" d="M2299.29,-235.3C2302.84,-215.76 2311.51,-168.06 2316.33,-141.55"/>
<polygon fill="midnightblue" stroke="midnightblue" points="2319.79,-142.09 2318.14,-131.62 2312.91,-140.84 2319.79,-142.09"/>
</g>
<!-- Node33&#45;&gt;Node10 -->
<g id="edge42" class="edge">
<title>Node33&#45;&gt;Node10</title>
<path fill="none" stroke="midnightblue" d="M2311.57,-235.32C2336.47,-218.81 2388,-180.18 2407.71,-132 2418.06,-106.68 2388.91,-89.28 2361.43,-78.9"/>
<polygon fill="midnightblue" stroke="midnightblue" points="2362.44,-75.54 2351.85,-75.52 2360.12,-82.14 2362.44,-75.54"/>
</g>
<!-- Node33&#45;&gt;Node34 -->
<g id="edge44" class="edge">
<title>Node33&#45;&gt;Node34</title>
<path fill="none" stroke="midnightblue" d="M2286.82,-235.48C2274.74,-226.02 2255.04,-210.6 2240.47,-199.19"/>
<polygon fill="midnightblue" stroke="midnightblue" points="2242.61,-196.42 2232.58,-193.01 2238.29,-201.93 2242.61,-196.42"/>
</g>
<!-- Node39&#45;&gt;Node2 -->
<g id="edge60" class="edge">
<title>Node39&#45;&gt;Node2</title>
<path fill="none" stroke="midnightblue" d="M921.69,-294.62C806.49,-284.48 557.76,-262.57 437.52,-251.97"/>
<polygon fill="midnightblue" stroke="midnightblue" points="437.61,-248.47 427.34,-251.08 436.99,-255.44 437.61,-248.47"/>
</g>
<!-- Node39&#45;&gt;Node9 -->
<g id="edge70" class="edge">
<title>Node39&#45;&gt;Node9</title>
<path fill="none" stroke="midnightblue" d="M985.82,-291.09C991.37,-276.66 1004.42,-248.43 1025.71,-235 1122.87,-173.67 1174.04,-239.11 1281.71,-199 1305.5,-190.14 1305.51,-175.7 1329.71,-168 1507.74,-111.34 1983.12,-141.6 2169.71,-132 2189.43,-130.99 2210.61,-129.78 2230.65,-128.59"/>
<polygon fill="midnightblue" stroke="midnightblue" points="2230.93,-132.08 2240.71,-127.99 2230.51,-125.1 2230.93,-132.08"/>
</g>
<!-- Node39&#45;&gt;Node15 -->
<g id="edge73" class="edge">
<title>Node39&#45;&gt;Node15</title>
<path fill="none" stroke="midnightblue" d="M972.58,-291.48C958.44,-278.54 935.96,-253.48 949.71,-235 982.94,-190.33 1019.26,-222.58 1069.71,-199 1092.38,-188.4 1092.97,-175.92 1116.71,-168 1240.88,-126.56 1574.24,-142.82 1704.71,-132 1789.77,-124.95 1810.64,-119.02 1895.71,-112 2167.58,-89.58 2496.07,-73.63 2604.79,-68.65"/>
<polygon fill="midnightblue" stroke="midnightblue" points="2605.08,-72.14 2614.91,-68.19 2604.76,-65.15 2605.08,-72.14"/>
</g>
<!-- Node39&#45;&gt;Node16 -->
<g id="edge74" class="edge">
<title>Node39&#45;&gt;Node16</title>
<path fill="none" stroke="midnightblue" d="M982.49,-291.3C982.65,-277.16 985.21,-249.35 1001.71,-235 1085.08,-162.48 1147.84,-246.29 1247.71,-199 1266.19,-190.25 1262.81,-175.82 1281.71,-168 1363.72,-134.08 1991.29,-139.8 2079.71,-132 2147.58,-126.01 2163.8,-117.55 2231.71,-112 2771.36,-67.89 3431.84,-66.51 3590.33,-66.86"/>
<polygon fill="midnightblue" stroke="midnightblue" points="3590.44,-70.36 3600.45,-66.89 3590.46,-63.36 3590.44,-70.36"/>
</g>
<!-- Node39&#45;&gt;Node17 -->
<g id="edge82" class="edge">
<title>Node39&#45;&gt;Node17</title>
<path fill="none" stroke="midnightblue" d="M928.84,-291.42C890.58,-282.59 848.63,-265.65 864.71,-235 909.37,-149.84 952.08,-144.15 1042.71,-112 1141.56,-76.93 1461.08,-69.15 1579.77,-67.46"/>
<polygon fill="midnightblue" stroke="midnightblue" points="1580.01,-70.96 1589.96,-67.32 1579.91,-63.96 1580.01,-70.96"/>
</g>
<!-- Node39&#45;&gt;Node20 -->
<g id="edge83" class="edge">
<title>Node39&#45;&gt;Node20</title>
<path fill="none" stroke="midnightblue" d="M921.43,-296.85C822.25,-291.13 635.59,-277.47 615.71,-255 609.82,-248.34 612.53,-243.3 615.71,-235 641.87,-166.49 660.21,-144.99 725.71,-112 805.57,-71.77 1083.7,-67.28 1179.77,-66.95"/>
<polygon fill="midnightblue" stroke="midnightblue" points="1180.05,-70.45 1190.04,-66.93 1180.03,-63.45 1180.05,-70.45"/>
</g>
<!-- Node39&#45;&gt;Node21 -->
<g id="edge71" class="edge">
<title>Node39&#45;&gt;Node21</title>
<path fill="none" stroke="midnightblue" d="M960.18,-291.45C933.4,-279.99 894.38,-258.35 911.71,-235 944.64,-190.63 980.38,-221.81 1030.71,-199 1041.05,-194.31 1098.37,-157.87 1130.63,-137.19"/>
<polygon fill="midnightblue" stroke="midnightblue" points="1132.85,-139.93 1139.38,-131.58 1129.07,-134.03 1132.85,-139.93"/>
</g>
<!-- Node39&#45;&gt;Node22 -->
<g id="edge72" class="edge">
<title>Node39&#45;&gt;Node22</title>
<path fill="none" stroke="midnightblue" d="M990.04,-291.05C1002.48,-276.55 1029.25,-248.24 1058.71,-235 1165.52,-187.01 1211,-242.53 1319.71,-199 1341.58,-190.24 1340.39,-175.54 1362.71,-168 1499.09,-121.9 2498.15,-151.21 2682.43,-131.65"/>
<polygon fill="midnightblue" stroke="midnightblue" points="2682.96,-135.11 2692.46,-130.42 2682.11,-128.16 2682.96,-135.11"/>
</g>
<!-- Node39&#45;&gt;Node24 -->
<g id="edge81" class="edge">
<title>Node39&#45;&gt;Node24</title>
<path fill="none" stroke="midnightblue" d="M939.65,-291.42C900.71,-281.65 852.47,-263.28 873.71,-235 908.17,-189.11 948.41,-228.37 997.71,-199 1023.61,-183.57 1046.87,-157.07 1060.39,-139.79"/>
<polygon fill="midnightblue" stroke="midnightblue" points="1063.27,-141.79 1066.54,-131.71 1057.7,-137.55 1063.27,-141.79"/>
</g>
<!-- Node39&#45;&gt;Node26 -->
<g id="edge61" class="edge">
<title>Node39&#45;&gt;Node26</title>
<path fill="none" stroke="midnightblue" d="M921.58,-298.2C758.45,-293.09 323.7,-277.43 302.71,-255 288.65,-239.98 301.98,-216.88 314.39,-201.25"/>
<polygon fill="midnightblue" stroke="midnightblue" points="317.22,-203.33 321.02,-193.44 311.88,-198.8 317.22,-203.33"/>
</g>
<!-- Node39&#45;&gt;Node27 -->
<g id="edge80" class="edge">
<title>Node39&#45;&gt;Node27</title>
<path fill="none" stroke="midnightblue" d="M921.53,-298.57C801.49,-295.12 544.35,-284.35 517.71,-255 500.52,-236.07 528.09,-212.78 550.54,-198.28"/>
<polygon fill="midnightblue" stroke="midnightblue" points="552.42,-201.23 559.1,-193 548.75,-195.28 552.42,-201.23"/>
</g>
<!-- Node39&#45;&gt;Node32 -->
<g id="edge68" class="edge">
<title>Node39&#45;&gt;Node32</title>
<path fill="none" stroke="midnightblue" d="M921.32,-296.6C824.63,-290.6 645.84,-276.7 626.71,-255 599.56,-224.21 651.84,-205.44 700.64,-195.09"/>
<polygon fill="midnightblue" stroke="midnightblue" points="701.54,-198.48 710.65,-193.07 700.16,-191.62 701.54,-198.48"/>
</g>
<!-- Node39&#45;&gt;Node34 -->
<g id="edge75" class="edge">
<title>Node39&#45;&gt;Node34</title>
<path fill="none" stroke="midnightblue" d="M1025.25,-291.47C1097.13,-277.38 1247.36,-249.4 1375.71,-235 1689.42,-199.79 2071.52,-188.13 2187.03,-185.27"/>
<polygon fill="midnightblue" stroke="midnightblue" points="2187.14,-188.77 2197.06,-185.03 2186.97,-181.77 2187.14,-188.77"/>
</g>
<!-- Node39&#45;&gt;Node35 -->
<g id="edge76" class="edge">
<title>Node39&#45;&gt;Node35</title>
<path fill="none" stroke="midnightblue" d="M1001.4,-291.44C1020.65,-282.64 1050.86,-268.81 1072.91,-258.72"/>
<polygon fill="midnightblue" stroke="midnightblue" points="1074.46,-261.86 1082.1,-254.52 1071.55,-255.5 1074.46,-261.86"/>
</g>
<!-- Node39&#45;&gt;Node36 -->
<g id="edge77" class="edge">
<title>Node39&#45;&gt;Node36</title>
<path fill="none" stroke="midnightblue" d="M1043.75,-296C1134.43,-289.7 1310.25,-276.1 1469.99,-254.99"/>
<polygon fill="midnightblue" stroke="midnightblue" points="1470.55,-258.44 1480,-253.65 1469.63,-251.5 1470.55,-258.44"/>
</g>
<!-- Node39&#45;&gt;Node37 -->
<g id="edge78" class="edge">
<title>Node39&#45;&gt;Node37</title>
<path fill="none" stroke="midnightblue" d="M1015.16,-291.49C1066.99,-278.12 1171.78,-251.97 1261.71,-235 1374.51,-213.71 1509.35,-196.45 1572.99,-188.79"/>
<polygon fill="midnightblue" stroke="midnightblue" points="1573.43,-192.26 1582.95,-187.6 1572.6,-185.31 1573.43,-192.26"/>
</g>
<!-- Node39&#45;&gt;Node38 -->
<g id="edge79" class="edge">
<title>Node39&#45;&gt;Node38</title>
<path fill="none" stroke="midnightblue" d="M1043.73,-296.14C1125.97,-290.33 1276.69,-277.55 1403.71,-255 1404.96,-254.78 1406.22,-254.54 1407.5,-254.28"/>
<polygon fill="midnightblue" stroke="midnightblue" points="1408.34,-257.68 1417.34,-252.1 1406.82,-250.85 1408.34,-257.68"/>
</g>
<!-- Node40 -->
<g id="node35" class="node">
<title>Node40</title>
<g id="a_node35"><a xlink:href="iterator_8h.html" target="_top" xlink:title=" ">
<polygon fill="none" stroke="black" points="636.21,-235.5 636.21,-254.5 745.21,-254.5 745.21,-235.5 636.21,-235.5"/>
<text text-anchor="middle" x="690.71" y="-242.5" font-family="Helvetica,sans-Serif" font-size="10.00">llvm/ADT/iterator.h</text>
</a>
</g>
</g>
<!-- Node39&#45;&gt;Node40 -->
<g id="edge62" class="edge">
<title>Node39&#45;&gt;Node40</title>
<path fill="none" stroke="midnightblue" d="M936.44,-291.44C884.97,-281.92 801.81,-266.55 746.71,-256.36"/>
<polygon fill="midnightblue" stroke="midnightblue" points="747.23,-252.89 736.76,-254.52 745.96,-259.78 747.23,-252.89"/>
</g>
<!-- Node41 -->
<g id="node36" class="node">
<title>Node41</title>
<g id="a_node36"><a xlink:title=" ">
<polygon fill="none" stroke="#bfbfbf" points="2917.71,-174 2917.71,-193 3063.71,-193 3063.71,-174 2917.71,-174"/>
<text text-anchor="middle" x="2990.71" y="-181" font-family="Helvetica,sans-Serif" font-size="10.00">llvm/Config/abi&#45;breaking.h</text>
</a>
</g>
</g>
<!-- Node39&#45;&gt;Node41 -->
<g id="edge69" class="edge">
<title>Node39&#45;&gt;Node41</title>
<path fill="none" stroke="midnightblue" d="M1043.84,-293.48C1111.55,-285.88 1223.83,-272.14 1319.71,-255 1359.62,-247.87 1368.49,-240.11 1408.71,-235 1557.46,-216.09 2602.61,-192.71 2907.44,-186.23"/>
<polygon fill="midnightblue" stroke="midnightblue" points="2907.62,-189.73 2917.54,-186.02 2907.47,-182.73 2907.62,-189.73"/>
</g>
<!-- Node40&#45;&gt;Node15 -->
<g id="edge64" class="edge">
<title>Node40&#45;&gt;Node15</title>
<path fill="none" stroke="midnightblue" d="M738.25,-235.49C775.74,-228.03 828.97,-215.75 873.71,-199 952.82,-169.38 960.87,-132.98 1042.71,-112 1188.38,-74.65 2245.39,-80.75 2395.71,-76 2469.97,-73.65 2556.82,-70.34 2604.91,-68.46"/>
<polygon fill="midnightblue" stroke="midnightblue" points="2605.28,-71.95 2615.14,-68.06 2605.01,-64.95 2605.28,-71.95"/>
</g>
<!-- Node40&#45;&gt;Node17 -->
<g id="edge66" class="edge">
<title>Node40&#45;&gt;Node17</title>
<path fill="none" stroke="midnightblue" d="M735.85,-235.44C776.46,-227 832.33,-213.32 849.71,-199 883.15,-171.45 857.51,-135.82 893.71,-112 922.45,-93.08 1425.51,-73.97 1579.97,-68.53"/>
<polygon fill="midnightblue" stroke="midnightblue" points="1580.19,-72.03 1590.06,-68.18 1579.94,-65.03 1580.19,-72.03"/>
</g>
<!-- Node40&#45;&gt;Node20 -->
<g id="edge67" class="edge">
<title>Node40&#45;&gt;Node20</title>
<path fill="none" stroke="midnightblue" d="M687.46,-235.14C682.51,-219.98 675.01,-188.69 688.71,-168 723.89,-114.86 759.08,-128.25 820.71,-112 950.86,-77.69 1112.15,-69.54 1180.1,-67.6"/>
<polygon fill="midnightblue" stroke="midnightblue" points="1180.28,-71.1 1190.19,-67.34 1180.1,-64.1 1180.28,-71.1"/>
</g>
<!-- Node40&#45;&gt;Node32 -->
<g id="edge63" class="edge">
<title>Node40&#45;&gt;Node32</title>
<path fill="none" stroke="midnightblue" d="M702.03,-235.48C714.58,-226.02 735.06,-210.6 750.21,-199.19"/>
<polygon fill="midnightblue" stroke="midnightblue" points="752.53,-201.82 758.41,-193.01 748.32,-196.23 752.53,-201.82"/>
</g>
<!-- Node40&#45;&gt;Node37 -->
<g id="edge65" class="edge">
<title>Node40&#45;&gt;Node37</title>
<path fill="none" stroke="midnightblue" d="M745.44,-240.87C866.61,-233.87 1166.65,-216.25 1417.71,-199 1471.66,-195.29 1534.11,-190.48 1572.76,-187.44"/>
<polygon fill="midnightblue" stroke="midnightblue" points="1573.31,-190.91 1583,-186.63 1572.76,-183.93 1573.31,-190.91"/>
</g>
<!-- Node44&#45;&gt;Node10 -->
<g id="edge101" class="edge">
<title>Node44&#45;&gt;Node10</title>
<path fill="none" stroke="midnightblue" d="M2897.47,-298.64C3072.54,-292.97 3527.04,-263.62 3381.71,-112 3373.18,-103.11 2639.83,-77.74 2396.9,-69.57"/>
<polygon fill="midnightblue" stroke="midnightblue" points="2396.85,-66.06 2386.74,-69.23 2396.61,-73.06 2396.85,-66.06"/>
</g>
<!-- Node44&#45;&gt;Node15 -->
<g id="edge110" class="edge">
<title>Node44&#45;&gt;Node15</title>
<path fill="none" stroke="midnightblue" d="M2897.3,-298.57C3057.83,-294.65 3461.33,-282.21 3515.71,-255 3575.66,-225 3609.94,-160.55 3563.71,-112 3532.67,-79.41 2845.9,-69.36 2678.33,-67.39"/>
<polygon fill="midnightblue" stroke="midnightblue" points="2678.32,-63.89 2668.28,-67.28 2678.24,-70.89 2678.32,-63.89"/>
</g>
<!-- Node44&#45;&gt;Node19 -->
<g id="edge108" class="edge">
<title>Node44&#45;&gt;Node19</title>
<path fill="none" stroke="midnightblue" d="M2804.43,-291.48C2726.19,-267.44 2493.86,-198.8 2295.71,-168 2184.41,-150.7 1859.73,-133.92 1706.53,-126.7"/>
<polygon fill="midnightblue" stroke="midnightblue" points="1706.4,-123.19 1696.24,-126.21 1706.07,-130.18 1706.4,-123.19"/>
</g>
<!-- Node44&#45;&gt;Node20 -->
<g id="edge115" class="edge">
<title>Node44&#45;&gt;Node20</title>
<path fill="none" stroke="midnightblue" d="M2831.32,-291.12C2829.42,-259.69 2818.27,-153.37 2753.71,-112 2745.47,-106.73 1467,-73.55 1245.29,-67.84"/>
<polygon fill="midnightblue" stroke="midnightblue" points="1245.34,-64.34 1235.26,-67.58 1245.16,-71.34 1245.34,-64.34"/>
</g>
<!-- Node44&#45;&gt;Node22 -->
<g id="edge109" class="edge">
<title>Node44&#45;&gt;Node22</title>
<path fill="none" stroke="midnightblue" d="M2826.72,-291.19C2814.52,-269.73 2781.92,-213.24 2751.71,-168 2745.38,-158.53 2737.91,-148.28 2731.68,-139.95"/>
<polygon fill="midnightblue" stroke="midnightblue" points="2734.34,-137.66 2725.52,-131.8 2728.76,-141.89 2734.34,-137.66"/>
</g>
<!-- Node44&#45;&gt;Node23 -->
<g id="edge112" class="edge">
<title>Node44&#45;&gt;Node23</title>
<path fill="none" stroke="midnightblue" d="M2822.93,-291.46C2794.41,-263.73 2704.05,-175.85 2666.41,-139.24"/>
<polygon fill="midnightblue" stroke="midnightblue" points="2668.43,-136.33 2658.83,-131.87 2663.55,-141.35 2668.43,-136.33"/>
</g>
<!-- Node44&#45;&gt;Node34 -->
<g id="edge111" class="edge">
<title>Node44&#45;&gt;Node34</title>
<path fill="none" stroke="midnightblue" d="M2786.36,-291.41C2669.57,-269.3 2360.38,-210.76 2256.39,-191.07"/>
<polygon fill="midnightblue" stroke="midnightblue" points="2256.9,-187.6 2246.42,-189.18 2255.59,-194.48 2256.9,-187.6"/>
</g>
<!-- Node44&#45;&gt;Node36 -->
<g id="edge113" class="edge">
<title>Node44&#45;&gt;Node36</title>
<path fill="none" stroke="midnightblue" d="M2765.85,-297.29C2537,-287.85 1779.1,-256.61 1573.53,-248.14"/>
<polygon fill="midnightblue" stroke="midnightblue" points="1573.45,-244.63 1563.32,-247.72 1573.16,-251.62 1573.45,-244.63"/>
</g>
<!-- Node44&#45;&gt;Node37 -->
<g id="edge114" class="edge">
<title>Node44&#45;&gt;Node37</title>
<path fill="none" stroke="midnightblue" d="M2765.86,-296.08C2653.51,-289.18 2417.63,-273.81 2218.71,-255 2001.16,-234.43 1740.86,-201.51 1646.3,-189.28"/>
<polygon fill="midnightblue" stroke="midnightblue" points="1646.74,-185.81 1636.38,-187.99 1645.84,-192.75 1646.74,-185.81"/>
</g>
<!-- Node45 -->
<g id="node40" class="node">
<title>Node45</title>
<g id="a_node40"><a xlink:href="EpochTracker_8h.html" target="_top" xlink:title=" ">
<polygon fill="none" stroke="black" points="3108.21,-235.5 3108.21,-254.5 3245.21,-254.5 3245.21,-235.5 3108.21,-235.5"/>
<text text-anchor="middle" x="3176.71" y="-242.5" font-family="Helvetica,sans-Serif" font-size="10.00">llvm/ADT/EpochTracker.h</text>
</a>
</g>
</g>
<!-- Node44&#45;&gt;Node45 -->
<g id="edge98" class="edge">
<title>Node44&#45;&gt;Node45</title>
<path fill="none" stroke="midnightblue" d="M2886.37,-291.44C2947.69,-281.85 3047.07,-266.29 3112.15,-256.1"/>
<polygon fill="midnightblue" stroke="midnightblue" points="3112.96,-259.52 3122.3,-254.52 3111.87,-252.61 3112.96,-259.52"/>
</g>
<!-- Node46 -->
<g id="node41" class="node">
<title>Node46</title>
<g id="a_node41"><a xlink:href="ReverseIteration_8h.html" target="_top" xlink:title=" ">
<polygon fill="none" stroke="black" points="2917.71,-235.5 2917.71,-254.5 3089.71,-254.5 3089.71,-235.5 2917.71,-235.5"/>
<text text-anchor="middle" x="3003.71" y="-242.5" font-family="Helvetica,sans-Serif" font-size="10.00">llvm/Support/ReverseIteration.h</text>
</a>
</g>
</g>
<!-- Node44&#45;&gt;Node46 -->
<g id="edge102" class="edge">
<title>Node44&#45;&gt;Node46</title>
<path fill="none" stroke="midnightblue" d="M2858.96,-291.44C2888.15,-282.28 2934.63,-267.69 2967.02,-257.52"/>
<polygon fill="midnightblue" stroke="midnightblue" points="2968.09,-260.85 2976.58,-254.52 2965.99,-254.17 2968.09,-260.85"/>
</g>
<!-- Node45&#45;&gt;Node16 -->
<g id="edge100" class="edge">
<title>Node45&#45;&gt;Node16</title>
<path fill="none" stroke="midnightblue" d="M3234.49,-235.42C3275.55,-228.3 3331.54,-216.48 3378.71,-199 3466.65,-166.4 3562.31,-107.98 3604.12,-81.16"/>
<polygon fill="midnightblue" stroke="midnightblue" points="3606.16,-84.01 3612.66,-75.64 3602.36,-78.13 3606.16,-84.01"/>
</g>
<!-- Node45&#45;&gt;Node41 -->
<g id="edge99" class="edge">
<title>Node45&#45;&gt;Node41</title>
<path fill="none" stroke="midnightblue" d="M3150.06,-235.48C3117.74,-225.14 3063.11,-207.66 3026.97,-196.1"/>
<polygon fill="midnightblue" stroke="midnightblue" points="3027.9,-192.72 3017.31,-193.01 3025.76,-199.39 3027.9,-192.72"/>
</g>
<!-- Node46&#45;&gt;Node41 -->
<g id="edge103" class="edge">
<title>Node46&#45;&gt;Node41</title>
<path fill="none" stroke="midnightblue" d="M3001.84,-235.48C2999.99,-226.99 2997.09,-213.7 2994.71,-202.82"/>
<polygon fill="midnightblue" stroke="midnightblue" points="2998.12,-202.03 2992.57,-193.01 2991.28,-203.53 2998.12,-202.03"/>
</g>
<!-- Node47 -->
<g id="node42" class="node">
<title>Node47</title>
<g id="a_node42"><a xlink:href="PointerLikeTypeTraits_8h.html" target="_top" xlink:title=" ">
<polygon fill="none" stroke="black" points="3233.71,-168.5 3233.71,-198.5 3369.71,-198.5 3369.71,-168.5 3233.71,-168.5"/>
<text text-anchor="start" x="3241.71" y="-186.5" font-family="Helvetica,sans-Serif" font-size="10.00">llvm/Support/PointerLike</text>
<text text-anchor="middle" x="3301.71" y="-175.5" font-family="Helvetica,sans-Serif" font-size="10.00">TypeTraits.h</text>
</a>
</g>
</g>
<!-- Node46&#45;&gt;Node47 -->
<g id="edge104" class="edge">
<title>Node46&#45;&gt;Node47</title>
<path fill="none" stroke="midnightblue" d="M3046.4,-235.48C3092.48,-226.28 3166.86,-211.42 3223.48,-200.12"/>
<polygon fill="midnightblue" stroke="midnightblue" points="3224.35,-203.51 3233.48,-198.12 3222.98,-196.65 3224.35,-203.51"/>
</g>
<!-- Node47&#45;&gt;Node4 -->
<g id="edge105" class="edge">
<title>Node47&#45;&gt;Node4</title>
<path fill="none" stroke="midnightblue" d="M3301.71,-168.4C3301.71,-160.47 3301.71,-150.46 3301.71,-141.86"/>
<polygon fill="midnightblue" stroke="midnightblue" points="3305.21,-141.66 3301.71,-131.66 3298.21,-141.66 3305.21,-141.66"/>
</g>
<!-- Node47&#45;&gt;Node17 -->
<g id="edge107" class="edge">
<title>Node47&#45;&gt;Node17</title>
<path fill="none" stroke="midnightblue" d="M3233.32,-169.78C3141.45,-153.27 2972.92,-125.05 2827.71,-112 2376.99,-71.49 1828.1,-67.31 1669.55,-66.99"/>
<polygon fill="midnightblue" stroke="midnightblue" points="1669.25,-63.49 1659.24,-66.97 1669.24,-70.49 1669.25,-63.49"/>
</g>
<!-- Node47&#45;&gt;Node22 -->
<g id="edge106" class="edge">
<title>Node47&#45;&gt;Node22</title>
<path fill="none" stroke="midnightblue" d="M3233.32,-169.96C3228.72,-169.25 3224.15,-168.59 3219.71,-168 3046.38,-144.93 2837.71,-130.42 2755.01,-125.19"/>
<polygon fill="midnightblue" stroke="midnightblue" points="2755.07,-121.69 2744.87,-124.56 2754.63,-128.68 2755.07,-121.69"/>
</g>
<!-- Node48&#45;&gt;Node36 -->
<g id="edge135" class="edge">
<title>Node48&#45;&gt;Node36</title>
<path fill="none" stroke="midnightblue" d="M1932.86,-465.57C1847.72,-461.27 1699.71,-450.06 1653.71,-423 1590.73,-385.96 1599.51,-349.48 1555.71,-291 1548.65,-281.58 1540.72,-271.08 1534.3,-262.59"/>
<polygon fill="midnightblue" stroke="midnightblue" points="1537.08,-260.47 1528.25,-254.61 1531.5,-264.69 1537.08,-260.47"/>
</g>
<!-- Node48&#45;&gt;Node37 -->
<g id="edge136" class="edge">
<title>Node48&#45;&gt;Node37</title>
<path fill="none" stroke="midnightblue" d="M1933.2,-460.09C1838.48,-446.18 1667.71,-413.4 1667.71,-358 1667.71,-358 1667.71,-358 1667.71,-300 1667.71,-261.15 1641.17,-222.02 1624,-200.76"/>
<polygon fill="midnightblue" stroke="midnightblue" points="1626.63,-198.45 1617.53,-193.03 1621.27,-202.95 1626.63,-198.45"/>
</g>
<!-- Node48&#45;&gt;Node47 -->
<g id="edge134" class="edge">
<title>Node48&#45;&gt;Node47</title>
<path fill="none" stroke="midnightblue" d="M2056.59,-466.14C2159.94,-462.32 2373.94,-451.45 2552.71,-423 2869.1,-372.64 2990.04,-436.99 3253.71,-255 3270.66,-243.3 3283.36,-223.49 3291.43,-207.85"/>
<polygon fill="midnightblue" stroke="midnightblue" points="3294.63,-209.28 3295.85,-198.76 3288.33,-206.22 3294.63,-209.28"/>
</g>
<!-- Node49 -->
<g id="node44" class="node">
<title>Node49</title>
<g id="a_node44"><a xlink:href="StringMapEntry_8h.html" target="_top" xlink:title=" ">
<polygon fill="none" stroke="black" points="2397.21,-403.5 2397.21,-422.5 2544.21,-422.5 2544.21,-403.5 2397.21,-403.5"/>
<text text-anchor="middle" x="2470.71" y="-410.5" font-family="Helvetica,sans-Serif" font-size="10.00">llvm/ADT/StringMapEntry.h</text>
</a>
</g>
</g>
<!-- Node48&#45;&gt;Node49 -->
<g id="edge118" class="edge">
<title>Node48&#45;&gt;Node49</title>
<path fill="none" stroke="midnightblue" d="M2056.45,-461C2140.79,-451.43 2292.31,-434.24 2386.86,-423.51"/>
<polygon fill="midnightblue" stroke="midnightblue" points="2387.43,-426.97 2396.97,-422.37 2386.64,-420.01 2387.43,-426.97"/>
</g>
<!-- Node51 -->
<g id="node46" class="node">
<title>Node51</title>
<g id="a_node46"><a xlink:href="AllocatorBase_8h.html" target="_top" xlink:title="This file defines MallocAllocator.">
<polygon fill="none" stroke="black" points="2209.71,-291.5 2209.71,-310.5 2367.71,-310.5 2367.71,-291.5 2209.71,-291.5"/>
<text text-anchor="middle" x="2288.71" y="-298.5" font-family="Helvetica,sans-Serif" font-size="10.00">llvm/Support/AllocatorBase.h</text>
</a>
</g>
</g>
<!-- Node48&#45;&gt;Node51 -->
<g id="edge131" class="edge">
<title>Node48&#45;&gt;Node51</title>
<path fill="none" stroke="midnightblue" d="M2010.1,-459.31C2058.22,-432.14 2206.11,-348.64 2264.57,-315.63"/>
<polygon fill="midnightblue" stroke="midnightblue" points="2266.48,-318.57 2273.47,-310.61 2263.04,-312.47 2266.48,-318.57"/>
</g>
<!-- Node49&#45;&gt;Node50 -->
<g id="edge119" class="edge">
<title>Node49&#45;&gt;Node50</title>
<path fill="none" stroke="midnightblue" d="M2488.93,-403.44C2507.6,-394.68 2536.86,-380.94 2558.32,-370.86"/>
<polygon fill="midnightblue" stroke="midnightblue" points="2560.01,-373.93 2567.57,-366.52 2557.03,-367.6 2560.01,-373.93"/>
</g>
<!-- Node50&#45;&gt;Node10 -->
<g id="edge122" class="edge">
<title>Node50&#45;&gt;Node10</title>
<path fill="none" stroke="midnightblue" d="M2585.71,-347.44C2585.71,-328.94 2585.71,-283.81 2585.71,-246 2585.71,-246 2585.71,-246 2585.71,-182.5 2585.71,-99.63 2475.73,-75.57 2397.2,-68.96"/>
<polygon fill="midnightblue" stroke="midnightblue" points="2397.07,-65.44 2386.83,-68.18 2396.54,-72.42 2397.07,-65.44"/>
</g>
<!-- Node50&#45;&gt;Node13 -->
<g id="edge128" class="edge">
<title>Node50&#45;&gt;Node13</title>
<path fill="none" stroke="midnightblue" d="M2644.77,-351.79C2732.47,-344.94 2888.67,-330.19 2905.71,-311 2916.26,-299.12 2898.38,-180.08 2908.71,-168 2962.9,-104.61 3616.9,-79.56 3659.71,-76 3684.82,-73.91 3713.24,-71.52 3734.48,-69.73"/>
<polygon fill="midnightblue" stroke="midnightblue" points="3734.91,-73.2 3744.58,-68.87 3734.32,-66.23 3734.91,-73.2"/>
</g>
<!-- Node50&#45;&gt;Node15 -->
<g id="edge125" class="edge">
<title>Node50&#45;&gt;Node15</title>
<path fill="none" stroke="midnightblue" d="M2597.04,-347.47C2607.93,-338.94 2624.5,-325.11 2636.71,-311 2698.9,-239.13 2726.58,-223.09 2753.71,-132 2756.24,-123.48 2758.68,-119.36 2753.71,-112 2736.92,-87.17 2703.94,-76.04 2678.09,-71.05"/>
<polygon fill="midnightblue" stroke="midnightblue" points="2678.68,-67.6 2668.23,-69.37 2677.5,-74.5 2678.68,-67.6"/>
</g>
<!-- Node50&#45;&gt;Node17 -->
<g id="edge129" class="edge">
<title>Node50&#45;&gt;Node17</title>
<path fill="none" stroke="midnightblue" d="M2581.17,-347.29C2564.03,-315.5 2499.62,-205.62 2409.71,-168 2304.08,-123.81 2008.88,-149.41 1895.71,-132 1811.65,-119.07 1715.25,-93.25 1663.1,-78.34"/>
<polygon fill="midnightblue" stroke="midnightblue" points="1663.85,-74.91 1653.27,-75.51 1661.91,-81.64 1663.85,-74.91"/>
</g>
<!-- Node50&#45;&gt;Node20 -->
<g id="edge130" class="edge">
<title>Node50&#45;&gt;Node20</title>
<path fill="none" stroke="midnightblue" d="M2576.52,-347.11C2543.33,-315.65 2425.21,-209.26 2304.71,-168 2088.89,-94.1 2018.37,-165.38 1792.71,-132 1753.03,-126.13 1744.32,-118.28 1704.71,-112 1533.18,-84.79 1325.21,-72.47 1245.74,-68.51"/>
<polygon fill="midnightblue" stroke="midnightblue" points="1245.56,-65 1235.4,-68.01 1245.21,-71.99 1245.56,-65"/>
</g>
<!-- Node50&#45;&gt;Node21 -->
<g id="edge123" class="edge">
<title>Node50&#45;&gt;Node21</title>
<path fill="none" stroke="midnightblue" d="M2548.89,-347.43C2522.3,-340.23 2486.19,-328.3 2457.71,-311 2415.51,-285.37 2416.66,-264 2376.71,-235 2326.64,-198.66 2314.3,-184.59 2254.71,-168 2202.83,-153.56 1390.98,-129.74 1195.03,-124.19"/>
<polygon fill="midnightblue" stroke="midnightblue" points="1194.94,-120.68 1184.84,-123.9 1194.74,-127.68 1194.94,-120.68"/>
</g>
<!-- Node50&#45;&gt;Node22 -->
<g id="edge124" class="edge">
<title>Node50&#45;&gt;Node22</title>
<path fill="none" stroke="midnightblue" d="M2592.17,-347.22C2598.65,-338.28 2608.77,-323.94 2616.71,-311 2654.01,-250.19 2692.77,-174.76 2709.79,-140.91"/>
<polygon fill="midnightblue" stroke="midnightblue" points="2713,-142.31 2714.35,-131.8 2706.74,-139.18 2713,-142.31"/>
</g>
<!-- Node50&#45;&gt;Node23 -->
<g id="edge126" class="edge">
<title>Node50&#45;&gt;Node23</title>
<path fill="none" stroke="midnightblue" d="M2588.5,-347.41C2591.4,-338.37 2596.03,-323.74 2599.71,-311 2617.53,-249.19 2636.51,-175.29 2645.06,-141.5"/>
<polygon fill="midnightblue" stroke="midnightblue" points="2648.49,-142.21 2647.54,-131.66 2641.7,-140.5 2648.49,-142.21"/>
</g>
<!-- Node50&#45;&gt;Node32 -->
<g id="edge121" class="edge">
<title>Node50&#45;&gt;Node32</title>
<path fill="none" stroke="midnightblue" d="M2526.63,-354.61C2368.92,-350.58 1940.57,-337.45 1801.71,-311 1748.83,-300.93 1624.56,-245.22 1571.71,-235 1502.44,-221.61 1041.92,-197.85 851.69,-188.47"/>
<polygon fill="midnightblue" stroke="midnightblue" points="851.62,-184.96 841.46,-187.97 851.28,-191.95 851.62,-184.96"/>
</g>
<!-- Node50&#45;&gt;Node38 -->
<g id="edge127" class="edge">
<title>Node50&#45;&gt;Node38</title>
<path fill="none" stroke="midnightblue" d="M2526.66,-354.55C2354.25,-350.09 1853.55,-335.33 1691.71,-311 1611.16,-298.89 1519.09,-271.6 1471.67,-256.52"/>
<polygon fill="midnightblue" stroke="midnightblue" points="1472.57,-253.13 1461.97,-253.41 1470.43,-259.8 1472.57,-253.13"/>
</g>
<!-- Node50&#45;&gt;Node39 -->
<g id="edge120" class="edge">
<title>Node50&#45;&gt;Node39</title>
<path fill="none" stroke="midnightblue" d="M2526.27,-354C2277.89,-345.63 1323.33,-313.47 1053.89,-304.4"/>
<polygon fill="midnightblue" stroke="midnightblue" points="1053.96,-300.9 1043.84,-304.06 1053.72,-307.89 1053.96,-300.9"/>
</g>
<!-- Node51&#45;&gt;Node10 -->
<g id="edge132" class="edge">
<title>Node51&#45;&gt;Node10</title>
<path fill="none" stroke="midnightblue" d="M2317.48,-291.36C2336.55,-284.32 2360.89,-272.62 2376.71,-255 2415.8,-211.45 2413.09,-189.55 2423.71,-132 2425.32,-123.26 2428.59,-119.43 2423.71,-112 2413.13,-95.91 2395.44,-85.54 2377.62,-78.88"/>
<polygon fill="midnightblue" stroke="midnightblue" points="2378.35,-75.43 2367.76,-75.54 2376.11,-82.06 2378.35,-75.43"/>
</g>
<!-- Node51&#45;&gt;Node33 -->
<g id="edge133" class="edge">
<title>Node51&#45;&gt;Node33</title>
<path fill="none" stroke="midnightblue" d="M2290.19,-291.08C2291.39,-283.93 2293.1,-273.64 2294.59,-264.69"/>
<polygon fill="midnightblue" stroke="midnightblue" points="2298.06,-265.19 2296.25,-254.75 2291.15,-264.04 2298.06,-265.19"/>
</g>
<!-- Node52&#45;&gt;Node9 -->
<g id="edge141" class="edge">
<title>Node52&#45;&gt;Node9</title>
<path fill="none" stroke="midnightblue" d="M3599.76,-403.42C3549.67,-376.64 3390.62,-292.91 3253.71,-235 3210.2,-216.6 3197.99,-215.44 3153.71,-199 3117.57,-185.58 3110.39,-176.13 3072.71,-168 3009.38,-154.33 2594.13,-134.91 2408.78,-126.79"/>
<polygon fill="midnightblue" stroke="midnightblue" points="2408.93,-123.3 2398.79,-126.36 2408.63,-130.29 2408.93,-123.3"/>
</g>
<!-- Node52&#45;&gt;Node13 -->
<g id="edge144" class="edge">
<title>Node52&#45;&gt;Node13</title>
<path fill="none" stroke="midnightblue" d="M3644.49,-403.45C3698.04,-385.8 3811.69,-339.71 3857.71,-255 3888.05,-199.15 3891.24,-165.99 3857.71,-112 3844.84,-91.28 3819.3,-79.82 3798.54,-73.65"/>
<polygon fill="midnightblue" stroke="midnightblue" points="3799.38,-70.25 3788.82,-71.03 3797.56,-77.01 3799.38,-70.25"/>
</g>
<!-- Node52&#45;&gt;Node16 -->
<g id="edge143" class="edge">
<title>Node52&#45;&gt;Node16</title>
<path fill="none" stroke="midnightblue" d="M3624.87,-403.36C3648.06,-381 3709.66,-318.55 3743.71,-255 3770.73,-204.57 3773.17,-188.58 3781.71,-132 3783.03,-123.21 3787.05,-119.1 3781.71,-112 3767.18,-92.69 3702.13,-79.06 3660.75,-72.16"/>
<polygon fill="midnightblue" stroke="midnightblue" points="3661.21,-68.69 3650.78,-70.55 3660.1,-75.6 3661.21,-68.69"/>
</g>
<!-- Node52&#45;&gt;Node22 -->
<g id="edge142" class="edge">
<title>Node52&#45;&gt;Node22</title>
<path fill="none" stroke="midnightblue" d="M3620.78,-403.29C3627.52,-390.53 3637.68,-366.19 3629.71,-347 3586.39,-242.83 3552.63,-214.22 3449.71,-168 3386.05,-139.41 2894.01,-126.76 2755.11,-123.74"/>
<polygon fill="midnightblue" stroke="midnightblue" points="2755.06,-120.24 2744.99,-123.52 2754.91,-127.24 2755.06,-120.24"/>
</g>
<!-- Node52&#45;&gt;Node31 -->
<g id="edge139" class="edge">
<title>Node52&#45;&gt;Node31</title>
<path fill="none" stroke="midnightblue" d="M3564.81,-405.23C3557.08,-404.37 3549.19,-403.59 3541.71,-403 3087.7,-367.48 2972.04,-397.99 2517.71,-367 2313.03,-353.04 2072.62,-325.72 1952.73,-311.35"/>
<polygon fill="midnightblue" stroke="midnightblue" points="1952.91,-307.84 1942.56,-310.13 1952.07,-314.79 1952.91,-307.84"/>
</g>
<!-- Node52&#45;&gt;Node50 -->
<g id="edge140" class="edge">
<title>Node52&#45;&gt;Node50</title>
<path fill="none" stroke="midnightblue" d="M3565.2,-405.35C3557.35,-404.46 3549.32,-403.64 3541.71,-403 3210.19,-375.08 2812.43,-363.3 2654.85,-359.5"/>
<polygon fill="midnightblue" stroke="midnightblue" points="2654.91,-356 2644.82,-359.26 2654.74,-363 2654.91,-356"/>
</g>
<!-- Node53&#45;&gt;Node15 -->
<g id="edge148" class="edge">
<title>Node53&#45;&gt;Node15</title>
<path fill="none" stroke="midnightblue" d="M3950.76,-347.14C3937.9,-310.09 3882.78,-166.97 3781.71,-112 3732.16,-85.05 2867.98,-70.43 2678.31,-67.54"/>
<polygon fill="midnightblue" stroke="midnightblue" points="2678.34,-64.04 2668.29,-67.38 2678.23,-71.04 2678.34,-64.04"/>
</g>
<!-- Node55&#45;&gt;Node4 -->
<g id="edge152" class="edge">
<title>Node55&#45;&gt;Node4</title>
<path fill="none" stroke="midnightblue" d="M3458.73,-403.28C3470.01,-369.07 3506.13,-242.21 3449.71,-168 3433.78,-147.05 3408.36,-135.55 3383.05,-129.33"/>
<polygon fill="midnightblue" stroke="midnightblue" points="3383.51,-125.84 3373,-127.12 3382.01,-132.68 3383.51,-125.84"/>
</g>
<!-- Node55&#45;&gt;Node13 -->
<g id="edge157" class="edge">
<title>Node55&#45;&gt;Node13</title>
<path fill="none" stroke="midnightblue" d="M3502.02,-403.43C3534.2,-396.37 3577.45,-384.62 3612.71,-367 3649.6,-348.56 3658.3,-340.91 3686.71,-311 3718.73,-277.28 3795.55,-139.84 3797.71,-132 3800.06,-123.43 3800.35,-120.49 3797.71,-112 3794.48,-101.62 3787.93,-91.52 3781.68,-83.53"/>
<polygon fill="midnightblue" stroke="midnightblue" points="3784.29,-81.19 3775.19,-75.77 3778.92,-85.68 3784.29,-81.19"/>
</g>
<!-- Node55&#45;&gt;Node15 -->
<g id="edge154" class="edge">
<title>Node55&#45;&gt;Node15</title>
<path fill="none" stroke="midnightblue" d="M3471.18,-403.35C3484.4,-395.33 3503.21,-382.35 3515.71,-367 3589.84,-275.96 3672.91,-189.5 3584.71,-112 3550.09,-81.58 2848.34,-69.88 2678.48,-67.48"/>
<polygon fill="midnightblue" stroke="midnightblue" points="2678.35,-63.98 2668.3,-67.34 2678.25,-70.98 2678.35,-63.98"/>
</g>
<!-- Node55&#45;&gt;Node16 -->
<g id="edge155" class="edge">
<title>Node55&#45;&gt;Node16</title>
<path fill="none" stroke="midnightblue" d="M3488.23,-403.41C3545.35,-386.3 3661.79,-341.91 3705.71,-255 3734.37,-198.28 3737.79,-166.86 3705.71,-112 3695.89,-95.21 3677.25,-84.2 3660.43,-77.28"/>
<polygon fill="midnightblue" stroke="midnightblue" points="3661.41,-73.91 3650.82,-73.66 3658.94,-80.46 3661.41,-73.91"/>
</g>
<!-- Node55&#45;&gt;Node17 -->
<g id="edge158" class="edge">
<title>Node55&#45;&gt;Node17</title>
<path fill="none" stroke="midnightblue" d="M3463.45,-403.45C3470.65,-394.9 3480.97,-381.06 3485.71,-367 3504.48,-311.33 3501.2,-293.13 3492.71,-235 3488.21,-204.25 3491.63,-192.65 3472.71,-168 3443.79,-130.33 3427.23,-125.52 3381.71,-112 3339.42,-99.45 1939.42,-72.85 1669.49,-67.83"/>
<polygon fill="midnightblue" stroke="midnightblue" points="1669.35,-64.32 1659.28,-67.64 1669.22,-71.32 1669.35,-64.32"/>
</g>
<!-- Node55&#45;&gt;Node22 -->
<g id="edge153" class="edge">
<title>Node55&#45;&gt;Node22</title>
<path fill="none" stroke="midnightblue" d="M3449.28,-403.16C3428.62,-375.23 3360.97,-287.69 3287.71,-235 3259.05,-214.39 3177.72,-177.43 3143.71,-168 3106.66,-157.73 2851.1,-134.6 2755.07,-126.16"/>
<polygon fill="midnightblue" stroke="midnightblue" points="2755.23,-122.66 2744.96,-125.27 2754.62,-129.63 2755.23,-122.66"/>
</g>
<!-- Node55&#45;&gt;Node23 -->
<g id="edge156" class="edge">
<title>Node55&#45;&gt;Node23</title>
<path fill="none" stroke="midnightblue" d="M3445.27,-403.48C3434.33,-394.5 3416.68,-379.91 3401.71,-367 3334.95,-309.45 3330.09,-278.97 3253.71,-235 3209.12,-209.34 3191.78,-217.31 3143.71,-199 3111.53,-186.74 3106.05,-176.58 3072.71,-168 2907.68,-125.51 2856.56,-160.95 2684.73,-131.88"/>
<polygon fill="midnightblue" stroke="midnightblue" points="2685.31,-128.42 2674.85,-130.16 2684.1,-135.32 2685.31,-128.42"/>
</g>
<!-- Node55&#45;&gt;Node31 -->
<g id="edge150" class="edge">
<title>Node55&#45;&gt;Node31</title>
<path fill="none" stroke="midnightblue" d="M3378.18,-411.79C3130.35,-410.76 2359.19,-404.54 2112.71,-367 2038.88,-355.76 1955.22,-329.33 1910,-313.85"/>
<polygon fill="midnightblue" stroke="midnightblue" points="1911.02,-310.5 1900.42,-310.54 1908.73,-317.12 1911.02,-310.5"/>
</g>
<!-- Node55&#45;&gt;Node50 -->
<g id="edge151" class="edge">
<title>Node55&#45;&gt;Node50</title>
<path fill="none" stroke="midnightblue" d="M3378.12,-407.18C3210.22,-396.76 2815.43,-372.26 2655.16,-362.31"/>
<polygon fill="midnightblue" stroke="midnightblue" points="2655.14,-358.8 2644.95,-361.68 2654.71,-365.79 2655.14,-358.8"/>
</g>
</g>
</svg>
