<?xml version="1.0" encoding="UTF-8" standalone="no"?>
<!DOCTYPE svg PUBLIC "-//W3C//DTD SVG 1.1//EN"
 "http://www.w3.org/Graphics/SVG/1.1/DTD/svg11.dtd">
<!-- Generated by graphviz version 2.42.4 (0)
 -->
<!-- Title: lib/DebugInfo/CodeView/Line.cpp Pages: 1 -->
<svg width="1274pt" height="453pt"
 viewBox="0.00 0.00 1274.30 453.00" xmlns="http://www.w3.org/2000/svg" xmlns:xlink="http://www.w3.org/1999/xlink">
<g id="graph0" class="graph" transform="scale(1 1) rotate(0) translate(4 449)">
<title>lib/DebugInfo/CodeView/Line.cpp</title>
<!-- Node1 -->
<g id="node1" class="node">
<title>Node1</title>
<g id="a_node1"><a xlink:title=" ">
<polygon fill="#bfbfbf" stroke="black" points="308.53,-414.5 308.53,-444.5 442.53,-444.5 442.53,-414.5 308.53,-414.5"/>
<text text-anchor="start" x="316.53" y="-432.5" font-family="Helvetica,sans-Serif" font-size="10.00">lib/DebugInfo/CodeView</text>
<text text-anchor="middle" x="375.53" y="-421.5" font-family="Helvetica,sans-Serif" font-size="10.00">/Line.cpp</text>
</a>
</g>
</g>
<!-- Node2 -->
<g id="node2" class="node">
<title>Node2</title>
<g id="a_node2"><a xlink:href="Line_8h.html" target="_top" xlink:title=" ">
<polygon fill="none" stroke="black" points="304.03,-347.5 304.03,-377.5 447.03,-377.5 447.03,-347.5 304.03,-347.5"/>
<text text-anchor="start" x="312.03" y="-365.5" font-family="Helvetica,sans-Serif" font-size="10.00">llvm/DebugInfo/CodeView</text>
<text text-anchor="middle" x="375.53" y="-354.5" font-family="Helvetica,sans-Serif" font-size="10.00">/Line.h</text>
</a>
</g>
</g>
<!-- Node1&#45;&gt;Node2 -->
<g id="edge1" class="edge">
<title>Node1&#45;&gt;Node2</title>
<path fill="none" stroke="midnightblue" d="M375.53,-414.4C375.53,-406.64 375.53,-396.81 375.53,-387.86"/>
<polygon fill="midnightblue" stroke="midnightblue" points="379.03,-387.58 375.53,-377.58 372.03,-387.58 379.03,-387.58"/>
</g>
<!-- Node3 -->
<g id="node3" class="node">
<title>Node3</title>
<g id="a_node3"><a xlink:href="TypeIndex_8h.html" target="_top" xlink:title=" ">
<polygon fill="none" stroke="black" points="194.03,-280.5 194.03,-310.5 337.03,-310.5 337.03,-280.5 194.03,-280.5"/>
<text text-anchor="start" x="202.03" y="-298.5" font-family="Helvetica,sans-Serif" font-size="10.00">llvm/DebugInfo/CodeView</text>
<text text-anchor="middle" x="265.53" y="-287.5" font-family="Helvetica,sans-Serif" font-size="10.00">/TypeIndex.h</text>
</a>
</g>
</g>
<!-- Node2&#45;&gt;Node3 -->
<g id="edge2" class="edge">
<title>Node2&#45;&gt;Node3</title>
<path fill="none" stroke="midnightblue" d="M351.67,-347.4C335.95,-338.11 315.19,-325.84 297.98,-315.67"/>
<polygon fill="midnightblue" stroke="midnightblue" points="299.75,-312.65 289.36,-310.58 296.18,-318.68 299.75,-312.65"/>
</g>
<!-- Node27 -->
<g id="node27" class="node">
<title>Node27</title>
<g id="a_node27"><a xlink:href="Endian_8h.html" target="_top" xlink:title=" ">
<polygon fill="none" stroke="black" points="254.53,-168.5 254.53,-187.5 378.53,-187.5 378.53,-168.5 254.53,-168.5"/>
<text text-anchor="middle" x="316.53" y="-175.5" font-family="Helvetica,sans-Serif" font-size="10.00">llvm/Support/Endian.h</text>
</a>
</g>
</g>
<!-- Node2&#45;&gt;Node27 -->
<g id="edge45" class="edge">
<title>Node2&#45;&gt;Node27</title>
<path fill="none" stroke="midnightblue" d="M386.93,-347.13C406.32,-320.81 441.24,-263.92 415.53,-224 405.23,-207.99 387.68,-197.62 370.2,-190.92"/>
<polygon fill="midnightblue" stroke="midnightblue" points="371.13,-187.54 360.54,-187.56 368.84,-194.15 371.13,-187.54"/>
</g>
<!-- Node28 -->
<g id="node28" class="node">
<title>Node28</title>
<g id="a_node28"><a xlink:title=" ">
<polygon fill="none" stroke="#bfbfbf" points="344.53,-224.5 344.53,-243.5 406.53,-243.5 406.53,-224.5 344.53,-224.5"/>
<text text-anchor="middle" x="375.53" y="-231.5" font-family="Helvetica,sans-Serif" font-size="10.00">cinttypes</text>
</a>
</g>
</g>
<!-- Node2&#45;&gt;Node28 -->
<g id="edge46" class="edge">
<title>Node2&#45;&gt;Node28</title>
<path fill="none" stroke="midnightblue" d="M375.53,-347.48C375.53,-324.72 375.53,-279.7 375.53,-254.06"/>
<polygon fill="midnightblue" stroke="midnightblue" points="379.03,-253.79 375.53,-243.79 372.03,-253.79 379.03,-253.79"/>
</g>
<!-- Node4 -->
<g id="node4" class="node">
<title>Node4</title>
<g id="a_node4"><a xlink:href="DenseMapInfo_8h.html" target="_top" xlink:title=" ">
<polygon fill="none" stroke="black" points="60.53,-224.5 60.53,-243.5 204.53,-243.5 204.53,-224.5 60.53,-224.5"/>
<text text-anchor="middle" x="132.53" y="-231.5" font-family="Helvetica,sans-Serif" font-size="10.00">llvm/ADT/DenseMapInfo.h</text>
</a>
</g>
</g>
<!-- Node3&#45;&gt;Node4 -->
<g id="edge3" class="edge">
<title>Node3&#45;&gt;Node4</title>
<path fill="none" stroke="midnightblue" d="M234.01,-280.4C211.9,-270.51 182.57,-257.38 161.13,-247.79"/>
<polygon fill="midnightblue" stroke="midnightblue" points="162.44,-244.55 151.89,-243.66 159.59,-250.94 162.44,-244.55"/>
</g>
<!-- Node24 -->
<g id="node24" class="node">
<title>Node24</title>
<g id="a_node24"><a xlink:title=" ">
<polygon fill="none" stroke="#bfbfbf" points="22.53,-112.5 22.53,-131.5 74.53,-131.5 74.53,-112.5 22.53,-112.5"/>
<text text-anchor="middle" x="48.53" y="-119.5" font-family="Helvetica,sans-Serif" font-size="10.00">cassert</text>
</a>
</g>
</g>
<!-- Node3&#45;&gt;Node24 -->
<g id="edge42" class="edge">
<title>Node3&#45;&gt;Node24</title>
<path fill="none" stroke="midnightblue" d="M194.02,-286.98C139.01,-279.56 69.46,-266.08 51.53,-244 27.78,-214.74 35.84,-167.08 42.79,-141.17"/>
<polygon fill="midnightblue" stroke="midnightblue" points="46.17,-142.09 45.61,-131.51 39.45,-140.13 46.17,-142.09"/>
</g>
<!-- Node3&#45;&gt;Node27 -->
<g id="edge34" class="edge">
<title>Node3&#45;&gt;Node27</title>
<path fill="none" stroke="midnightblue" d="M275.49,-280.45C282.14,-270.6 290.69,-256.94 296.53,-244 303.37,-228.87 308.73,-210.75 312.18,-197.49"/>
<polygon fill="midnightblue" stroke="midnightblue" points="315.6,-198.21 314.61,-187.66 308.81,-196.53 315.6,-198.21"/>
</g>
<!-- Node3&#45;&gt;Node28 -->
<g id="edge43" class="edge">
<title>Node3&#45;&gt;Node28</title>
<path fill="none" stroke="midnightblue" d="M291.6,-280.4C309.4,-270.77 332.85,-258.09 350.43,-248.58"/>
<polygon fill="midnightblue" stroke="midnightblue" points="352.4,-251.49 359.53,-243.66 349.07,-245.34 352.4,-251.49"/>
</g>
<!-- Node29 -->
<g id="node29" class="node">
<title>Node29</title>
<g id="a_node29"><a xlink:title=" ">
<polygon fill="none" stroke="#bfbfbf" points="223.03,-224.5 223.03,-243.5 288.03,-243.5 288.03,-224.5 223.03,-224.5"/>
<text text-anchor="middle" x="255.53" y="-231.5" font-family="Helvetica,sans-Serif" font-size="10.00">functional</text>
</a>
</g>
</g>
<!-- Node3&#45;&gt;Node29 -->
<g id="edge44" class="edge">
<title>Node3&#45;&gt;Node29</title>
<path fill="none" stroke="midnightblue" d="M263.16,-280.4C261.82,-272.38 260.11,-262.23 258.65,-253.57"/>
<polygon fill="midnightblue" stroke="midnightblue" points="262.1,-252.94 256.99,-243.66 255.19,-254.1 262.1,-252.94"/>
</g>
<!-- Node5 -->
<g id="node5" class="node">
<title>Node5</title>
<g id="a_node5"><a xlink:href="Hashing_8h.html" target="_top" xlink:title=" ">
<polygon fill="none" stroke="black" points="681.03,-168.5 681.03,-187.5 794.03,-187.5 794.03,-168.5 681.03,-168.5"/>
<text text-anchor="middle" x="737.53" y="-175.5" font-family="Helvetica,sans-Serif" font-size="10.00">llvm/ADT/Hashing.h</text>
</a>
</g>
</g>
<!-- Node4&#45;&gt;Node5 -->
<g id="edge4" class="edge">
<title>Node4&#45;&gt;Node5</title>
<path fill="none" stroke="midnightblue" d="M204.95,-224.86C207.85,-224.57 210.72,-224.28 213.53,-224 377.65,-207.84 571.01,-192.08 670.66,-184.2"/>
<polygon fill="midnightblue" stroke="midnightblue" points="671.19,-187.67 680.89,-183.4 670.64,-180.7 671.19,-187.67"/>
</g>
<!-- Node17 -->
<g id="node17" class="node">
<title>Node17</title>
<g id="a_node17"><a xlink:title=" ">
<polygon fill="none" stroke="#bfbfbf" points="121.03,-56.5 121.03,-75.5 174.03,-75.5 174.03,-56.5 121.03,-56.5"/>
<text text-anchor="middle" x="147.53" y="-63.5" font-family="Helvetica,sans-Serif" font-size="10.00">cstddef</text>
</a>
</g>
</g>
<!-- Node4&#45;&gt;Node17 -->
<g id="edge31" class="edge">
<title>Node4&#45;&gt;Node17</title>
<path fill="none" stroke="midnightblue" d="M111.73,-224.48C69.29,-205.84 -20.52,-159.36 13.53,-112 19.45,-103.77 73.56,-87.42 111.18,-76.86"/>
<polygon fill="midnightblue" stroke="midnightblue" points="112.12,-80.22 120.82,-74.17 110.25,-73.48 112.12,-80.22"/>
</g>
<!-- Node18 -->
<g id="node18" class="node">
<title>Node18</title>
<g id="a_node18"><a xlink:title=" ">
<polygon fill="none" stroke="#bfbfbf" points="52.53,-56.5 52.53,-75.5 102.53,-75.5 102.53,-56.5 52.53,-56.5"/>
<text text-anchor="middle" x="77.53" y="-63.5" font-family="Helvetica,sans-Serif" font-size="10.00">cstdint</text>
</a>
</g>
</g>
<!-- Node4&#45;&gt;Node18 -->
<g id="edge32" class="edge">
<title>Node4&#45;&gt;Node18</title>
<path fill="none" stroke="midnightblue" d="M87.48,-224.46C64.64,-217.99 38.1,-206.86 20.53,-188 2.72,-168.87 6.58,-157.83 2.53,-132 1.16,-123.22 -1.85,-119.74 2.53,-112 11.33,-96.46 27.87,-85.7 43.19,-78.61"/>
<polygon fill="midnightblue" stroke="midnightblue" points="44.65,-81.79 52.48,-74.66 41.91,-75.35 44.65,-81.79"/>
</g>
<!-- Node22 -->
<g id="node22" class="node">
<title>Node22</title>
<g id="a_node22"><a xlink:title=" ">
<polygon fill="none" stroke="#bfbfbf" points="1002.03,-56.5 1002.03,-75.5 1047.03,-75.5 1047.03,-56.5 1002.03,-56.5"/>
<text text-anchor="middle" x="1024.53" y="-63.5" font-family="Helvetica,sans-Serif" font-size="10.00">utility</text>
</a>
</g>
</g>
<!-- Node4&#45;&gt;Node22 -->
<g id="edge33" class="edge">
<title>Node4&#45;&gt;Node22</title>
<path fill="none" stroke="midnightblue" d="M204.94,-224.77C207.84,-224.5 210.71,-224.24 213.53,-224 323.6,-214.53 1131.03,-215.36 1203.53,-132 1269.61,-56.02 1349.34,-149.48 1059.53,-76 1058.66,-75.78 1057.77,-75.55 1056.87,-75.32"/>
<polygon fill="midnightblue" stroke="midnightblue" points="1057.68,-71.92 1047.12,-72.83 1055.94,-78.7 1057.68,-71.92"/>
</g>
<!-- Node4&#45;&gt;Node24 -->
<g id="edge30" class="edge">
<title>Node4&#45;&gt;Node24</title>
<path fill="none" stroke="midnightblue" d="M125.94,-224.37C112.02,-206.14 79.4,-163.43 61.27,-139.68"/>
<polygon fill="midnightblue" stroke="midnightblue" points="63.95,-137.41 55.09,-131.59 58.38,-141.66 63.95,-137.41"/>
</g>
<!-- Node6 -->
<g id="node6" class="node">
<title>Node6</title>
<g id="a_node6"><a xlink:href="llvm_2Support_2DataTypes_8h.html" target="_top" xlink:title=" ">
<polygon fill="none" stroke="black" points="1052.53,-112.5 1052.53,-131.5 1194.53,-131.5 1194.53,-112.5 1052.53,-112.5"/>
<text text-anchor="middle" x="1123.53" y="-119.5" font-family="Helvetica,sans-Serif" font-size="10.00">llvm/Support/DataTypes.h</text>
</a>
</g>
</g>
<!-- Node5&#45;&gt;Node6 -->
<g id="edge5" class="edge">
<title>Node5&#45;&gt;Node6</title>
<path fill="none" stroke="midnightblue" d="M794.08,-169.09C862.57,-159.51 978.03,-143.36 1052.48,-132.94"/>
<polygon fill="midnightblue" stroke="midnightblue" points="1053.28,-136.36 1062.7,-131.51 1052.31,-129.43 1053.28,-136.36"/>
</g>
<!-- Node11 -->
<g id="node11" class="node">
<title>Node11</title>
<g id="a_node11"><a xlink:href="llvm_2Support_2ErrorHandling_8h.html" target="_top" xlink:title=" ">
<polygon fill="none" stroke="black" points="658.53,-112.5 658.53,-131.5 816.53,-131.5 816.53,-112.5 658.53,-112.5"/>
<text text-anchor="middle" x="737.53" y="-119.5" font-family="Helvetica,sans-Serif" font-size="10.00">llvm/Support/ErrorHandling.h</text>
</a>
</g>
</g>
<!-- Node5&#45;&gt;Node11 -->
<g id="edge10" class="edge">
<title>Node5&#45;&gt;Node11</title>
<path fill="none" stroke="midnightblue" d="M737.53,-168.08C737.53,-161.01 737.53,-150.86 737.53,-141.99"/>
<polygon fill="midnightblue" stroke="midnightblue" points="741.03,-141.75 737.53,-131.75 734.03,-141.75 741.03,-141.75"/>
</g>
<!-- Node15 -->
<g id="node15" class="node">
<title>Node15</title>
<g id="a_node15"><a xlink:title=" ">
<polygon fill="none" stroke="#bfbfbf" points="768.53,-56.5 768.53,-75.5 812.53,-75.5 812.53,-56.5 768.53,-56.5"/>
<text text-anchor="middle" x="790.53" y="-63.5" font-family="Helvetica,sans-Serif" font-size="10.00">string</text>
</a>
</g>
</g>
<!-- Node5&#45;&gt;Node15 -->
<g id="edge27" class="edge">
<title>Node5&#45;&gt;Node15</title>
<path fill="none" stroke="midnightblue" d="M773.39,-168.4C792.41,-161.81 814.16,-150.59 825.53,-132 835.6,-115.55 821.74,-95.98 808.6,-82.64"/>
<polygon fill="midnightblue" stroke="midnightblue" points="810.81,-79.91 801.14,-75.58 806,-85 810.81,-79.91"/>
</g>
<!-- Node16 -->
<g id="node16" class="node">
<title>Node16</title>
<g id="a_node16"><a xlink:href="SwapByteOrder_8h.html" target="_top" xlink:title=" ">
<polygon fill="none" stroke="black" points="168.53,-112.5 168.53,-131.5 334.53,-131.5 334.53,-112.5 168.53,-112.5"/>
<text text-anchor="middle" x="251.53" y="-119.5" font-family="Helvetica,sans-Serif" font-size="10.00">llvm/Support/SwapByteOrder.h</text>
</a>
</g>
</g>
<!-- Node5&#45;&gt;Node16 -->
<g id="edge15" class="edge">
<title>Node5&#45;&gt;Node16</title>
<path fill="none" stroke="midnightblue" d="M680.83,-170.7C596.47,-161.33 437.23,-143.63 338.2,-132.63"/>
<polygon fill="midnightblue" stroke="midnightblue" points="338.54,-129.15 328.21,-131.52 337.76,-136.1 338.54,-129.15"/>
</g>
<!-- Node21 -->
<g id="node21" class="node">
<title>Node21</title>
<g id="a_node21"><a xlink:href="type__traits_8h.html" target="_top" xlink:title=" ">
<polygon fill="none" stroke="black" points="497.03,-112.5 497.03,-131.5 640.03,-131.5 640.03,-112.5 497.03,-112.5"/>
<text text-anchor="middle" x="568.53" y="-119.5" font-family="Helvetica,sans-Serif" font-size="10.00">llvm/Support/type_traits.h</text>
</a>
</g>
</g>
<!-- Node5&#45;&gt;Node21 -->
<g id="edge20" class="edge">
<title>Node5&#45;&gt;Node21</title>
<path fill="none" stroke="midnightblue" d="M710.76,-168.44C682.2,-159.32 636.8,-144.81 605,-134.65"/>
<polygon fill="midnightblue" stroke="midnightblue" points="605.78,-131.23 595.19,-131.52 603.65,-137.89 605.78,-131.23"/>
</g>
<!-- Node5&#45;&gt;Node22 -->
<g id="edge29" class="edge">
<title>Node5&#45;&gt;Node22</title>
<path fill="none" stroke="midnightblue" d="M794.16,-174.42C863.36,-170.13 975.03,-159.1 1005.53,-132 1018.56,-120.43 1022.87,-100.47 1024.19,-85.71"/>
<polygon fill="midnightblue" stroke="midnightblue" points="1027.69,-85.83 1024.72,-75.66 1020.7,-85.47 1027.69,-85.83"/>
</g>
<!-- Node23 -->
<g id="node23" class="node">
<title>Node23</title>
<g id="a_node23"><a xlink:title=" ">
<polygon fill="none" stroke="#bfbfbf" points="872.53,-112.5 872.53,-131.5 936.53,-131.5 936.53,-112.5 872.53,-112.5"/>
<text text-anchor="middle" x="904.53" y="-119.5" font-family="Helvetica,sans-Serif" font-size="10.00">algorithm</text>
</a>
</g>
</g>
<!-- Node5&#45;&gt;Node23 -->
<g id="edge24" class="edge">
<title>Node5&#45;&gt;Node23</title>
<path fill="none" stroke="midnightblue" d="M764,-168.44C792.21,-159.32 837.07,-144.81 868.5,-134.65"/>
<polygon fill="midnightblue" stroke="midnightblue" points="869.76,-137.92 878.2,-131.52 867.6,-131.26 869.76,-137.92"/>
</g>
<!-- Node5&#45;&gt;Node24 -->
<g id="edge25" class="edge">
<title>Node5&#45;&gt;Node24</title>
<path fill="none" stroke="midnightblue" d="M680.92,-172.65C577.41,-164.69 350.67,-147.19 159.53,-132 134.52,-130.01 106.35,-127.73 84.64,-125.96"/>
<polygon fill="midnightblue" stroke="midnightblue" points="84.8,-122.46 74.55,-125.13 84.23,-129.44 84.8,-122.46"/>
</g>
<!-- Node25 -->
<g id="node25" class="node">
<title>Node25</title>
<g id="a_node25"><a xlink:title=" ">
<polygon fill="none" stroke="#bfbfbf" points="428.53,-112.5 428.53,-131.5 478.53,-131.5 478.53,-112.5 428.53,-112.5"/>
<text text-anchor="middle" x="453.53" y="-119.5" font-family="Helvetica,sans-Serif" font-size="10.00">cstring</text>
</a>
</g>
</g>
<!-- Node5&#45;&gt;Node25 -->
<g id="edge26" class="edge">
<title>Node5&#45;&gt;Node25</title>
<path fill="none" stroke="midnightblue" d="M682.66,-168.43C634.12,-160.56 561.18,-148 488.92,-132.17"/>
<polygon fill="midnightblue" stroke="midnightblue" points="489.25,-128.66 478.73,-129.91 487.74,-135.49 489.25,-128.66"/>
</g>
<!-- Node26 -->
<g id="node26" class="node">
<title>Node26</title>
<g id="a_node26"><a xlink:title=" ">
<polygon fill="none" stroke="#bfbfbf" points="955.03,-112.5 955.03,-131.5 996.03,-131.5 996.03,-112.5 955.03,-112.5"/>
<text text-anchor="middle" x="975.53" y="-119.5" font-family="Helvetica,sans-Serif" font-size="10.00">tuple</text>
</a>
</g>
</g>
<!-- Node5&#45;&gt;Node26 -->
<g id="edge28" class="edge">
<title>Node5&#45;&gt;Node26</title>
<path fill="none" stroke="midnightblue" d="M782,-168.43C822.13,-160.46 882.97,-147.8 944.98,-131.98"/>
<polygon fill="midnightblue" stroke="midnightblue" points="946.13,-135.3 954.94,-129.41 944.38,-128.52 946.13,-135.3"/>
</g>
<!-- Node7 -->
<g id="node7" class="node">
<title>Node7</title>
<g id="a_node7"><a xlink:href="llvm-c_2DataTypes_8h.html" target="_top" xlink:title=" ">
<polygon fill="none" stroke="black" points="1068.53,-56.5 1068.53,-75.5 1178.53,-75.5 1178.53,-56.5 1068.53,-56.5"/>
<text text-anchor="middle" x="1123.53" y="-63.5" font-family="Helvetica,sans-Serif" font-size="10.00">llvm&#45;c/DataTypes.h</text>
</a>
</g>
</g>
<!-- Node6&#45;&gt;Node7 -->
<g id="edge6" class="edge">
<title>Node6&#45;&gt;Node7</title>
<path fill="none" stroke="midnightblue" d="M1123.53,-112.08C1123.53,-105.01 1123.53,-94.86 1123.53,-85.99"/>
<polygon fill="midnightblue" stroke="midnightblue" points="1127.03,-85.75 1123.53,-75.75 1120.03,-85.75 1127.03,-85.75"/>
</g>
<!-- Node8 -->
<g id="node8" class="node">
<title>Node8</title>
<g id="a_node8"><a xlink:title=" ">
<polygon fill="none" stroke="#bfbfbf" points="1091.03,-0.5 1091.03,-19.5 1156.03,-19.5 1156.03,-0.5 1091.03,-0.5"/>
<text text-anchor="middle" x="1123.53" y="-7.5" font-family="Helvetica,sans-Serif" font-size="10.00">inttypes.h</text>
</a>
</g>
</g>
<!-- Node7&#45;&gt;Node8 -->
<g id="edge7" class="edge">
<title>Node7&#45;&gt;Node8</title>
<path fill="none" stroke="midnightblue" d="M1123.53,-56.08C1123.53,-49.01 1123.53,-38.86 1123.53,-29.99"/>
<polygon fill="midnightblue" stroke="midnightblue" points="1127.03,-29.75 1123.53,-19.75 1120.03,-29.75 1127.03,-29.75"/>
</g>
<!-- Node9 -->
<g id="node9" class="node">
<title>Node9</title>
<g id="a_node9"><a xlink:title=" ">
<polygon fill="none" stroke="#bfbfbf" points="1174.03,-0.5 1174.03,-19.5 1227.03,-19.5 1227.03,-0.5 1174.03,-0.5"/>
<text text-anchor="middle" x="1200.53" y="-7.5" font-family="Helvetica,sans-Serif" font-size="10.00">stdint.h</text>
</a>
</g>
</g>
<!-- Node7&#45;&gt;Node9 -->
<g id="edge8" class="edge">
<title>Node7&#45;&gt;Node9</title>
<path fill="none" stroke="midnightblue" d="M1135.91,-56.32C1147.69,-48.06 1165.67,-35.45 1179.67,-25.63"/>
<polygon fill="midnightblue" stroke="midnightblue" points="1182.02,-28.26 1188.19,-19.65 1178,-22.53 1182.02,-28.26"/>
</g>
<!-- Node10 -->
<g id="node10" class="node">
<title>Node10</title>
<g id="a_node10"><a xlink:title=" ">
<polygon fill="none" stroke="#bfbfbf" points="1000.53,-0.5 1000.53,-19.5 1072.53,-19.5 1072.53,-0.5 1000.53,-0.5"/>
<text text-anchor="middle" x="1036.53" y="-7.5" font-family="Helvetica,sans-Serif" font-size="10.00">sys/types.h</text>
</a>
</g>
</g>
<!-- Node7&#45;&gt;Node10 -->
<g id="edge9" class="edge">
<title>Node7&#45;&gt;Node10</title>
<path fill="none" stroke="midnightblue" d="M1109.56,-56.32C1095.98,-47.9 1075.15,-34.97 1059.21,-25.07"/>
<polygon fill="midnightblue" stroke="midnightblue" points="1060.82,-21.95 1050.48,-19.65 1057.13,-27.9 1060.82,-21.95"/>
</g>
<!-- Node12 -->
<g id="node12" class="node">
<title>Node12</title>
<g id="a_node12"><a xlink:href="Compiler_8h.html" target="_top" xlink:title=" ">
<polygon fill="none" stroke="black" points="501.53,-56.5 501.53,-75.5 635.53,-75.5 635.53,-56.5 501.53,-56.5"/>
<text text-anchor="middle" x="568.53" y="-63.5" font-family="Helvetica,sans-Serif" font-size="10.00">llvm/Support/Compiler.h</text>
</a>
</g>
</g>
<!-- Node11&#45;&gt;Node12 -->
<g id="edge11" class="edge">
<title>Node11&#45;&gt;Node12</title>
<path fill="none" stroke="midnightblue" d="M710.76,-112.44C682.2,-103.32 636.8,-88.81 605,-78.65"/>
<polygon fill="midnightblue" stroke="midnightblue" points="605.78,-75.23 595.19,-75.52 603.65,-81.89 605.78,-75.23"/>
</g>
<!-- Node11&#45;&gt;Node15 -->
<g id="edge14" class="edge">
<title>Node11&#45;&gt;Node15</title>
<path fill="none" stroke="midnightblue" d="M746.29,-112.08C754,-104.22 765.44,-92.57 774.75,-83.08"/>
<polygon fill="midnightblue" stroke="midnightblue" points="777.44,-85.34 781.94,-75.75 772.44,-80.44 777.44,-85.34"/>
</g>
<!-- Node13 -->
<g id="node13" class="node">
<title>Node13</title>
<g id="a_node13"><a xlink:title=" ">
<polygon fill="none" stroke="#bfbfbf" points="441.03,-0.5 441.03,-19.5 580.03,-19.5 580.03,-0.5 441.03,-0.5"/>
<text text-anchor="middle" x="510.53" y="-7.5" font-family="Helvetica,sans-Serif" font-size="10.00">llvm/Config/llvm&#45;config.h</text>
</a>
</g>
</g>
<!-- Node12&#45;&gt;Node13 -->
<g id="edge12" class="edge">
<title>Node12&#45;&gt;Node13</title>
<path fill="none" stroke="midnightblue" d="M559.22,-56.32C550.64,-48.34 537.72,-36.31 527.35,-26.65"/>
<polygon fill="midnightblue" stroke="midnightblue" points="529.73,-24.09 520.02,-19.83 524.96,-29.21 529.73,-24.09"/>
</g>
<!-- Node14 -->
<g id="node14" class="node">
<title>Node14</title>
<g id="a_node14"><a xlink:title=" ">
<polygon fill="none" stroke="#bfbfbf" points="598.53,-0.5 598.53,-19.5 654.53,-19.5 654.53,-0.5 598.53,-0.5"/>
<text text-anchor="middle" x="626.53" y="-7.5" font-family="Helvetica,sans-Serif" font-size="10.00">stddef.h</text>
</a>
</g>
</g>
<!-- Node12&#45;&gt;Node14 -->
<g id="edge13" class="edge">
<title>Node12&#45;&gt;Node14</title>
<path fill="none" stroke="midnightblue" d="M577.85,-56.32C586.43,-48.34 599.35,-36.31 609.72,-26.65"/>
<polygon fill="midnightblue" stroke="midnightblue" points="612.11,-29.21 617.05,-19.83 607.34,-24.09 612.11,-29.21"/>
</g>
<!-- Node16&#45;&gt;Node17 -->
<g id="edge16" class="edge">
<title>Node16&#45;&gt;Node17</title>
<path fill="none" stroke="midnightblue" d="M234.82,-112.32C218.22,-103.7 192.53,-90.36 173.31,-80.39"/>
<polygon fill="midnightblue" stroke="midnightblue" points="174.69,-77.16 164.2,-75.65 171.46,-83.37 174.69,-77.16"/>
</g>
<!-- Node16&#45;&gt;Node18 -->
<g id="edge17" class="edge">
<title>Node16&#45;&gt;Node18</title>
<path fill="none" stroke="midnightblue" d="M223.96,-112.44C193.74,-103.06 145.19,-88 112.36,-77.81"/>
<polygon fill="midnightblue" stroke="midnightblue" points="113.3,-74.44 102.72,-74.82 111.23,-81.12 113.3,-74.44"/>
</g>
<!-- Node19 -->
<g id="node19" class="node">
<title>Node19</title>
<g id="a_node19"><a xlink:title=" ">
<polygon fill="none" stroke="#bfbfbf" points="328.03,-56.5 328.03,-75.5 397.03,-75.5 397.03,-56.5 328.03,-56.5"/>
<text text-anchor="middle" x="362.53" y="-63.5" font-family="Helvetica,sans-Serif" font-size="10.00">type_traits</text>
</a>
</g>
</g>
<!-- Node16&#45;&gt;Node19 -->
<g id="edge18" class="edge">
<title>Node16&#45;&gt;Node19</title>
<path fill="none" stroke="midnightblue" d="M269.37,-112.32C287.25,-103.62 315.01,-90.12 335.58,-80.11"/>
<polygon fill="midnightblue" stroke="midnightblue" points="337.28,-83.18 344.74,-75.65 334.22,-76.88 337.28,-83.18"/>
</g>
<!-- Node20 -->
<g id="node20" class="node">
<title>Node20</title>
<g id="a_node20"><a xlink:title=" ">
<polygon fill="none" stroke="#bfbfbf" points="199.53,-56.5 199.53,-75.5 303.53,-75.5 303.53,-56.5 199.53,-56.5"/>
<text text-anchor="middle" x="251.53" y="-63.5" font-family="Helvetica,sans-Serif" font-size="10.00">machine/endian.h</text>
</a>
</g>
</g>
<!-- Node16&#45;&gt;Node20 -->
<g id="edge19" class="edge">
<title>Node16&#45;&gt;Node20</title>
<path fill="none" stroke="midnightblue" d="M251.53,-112.08C251.53,-105.01 251.53,-94.86 251.53,-85.99"/>
<polygon fill="midnightblue" stroke="midnightblue" points="255.03,-85.75 251.53,-75.75 248.03,-85.75 255.03,-85.75"/>
</g>
<!-- Node21&#45;&gt;Node12 -->
<g id="edge21" class="edge">
<title>Node21&#45;&gt;Node12</title>
<path fill="none" stroke="midnightblue" d="M568.53,-112.08C568.53,-105.01 568.53,-94.86 568.53,-85.99"/>
<polygon fill="midnightblue" stroke="midnightblue" points="572.03,-85.75 568.53,-75.75 565.03,-85.75 572.03,-85.75"/>
</g>
<!-- Node21&#45;&gt;Node19 -->
<g id="edge22" class="edge">
<title>Node21&#45;&gt;Node19</title>
<path fill="none" stroke="midnightblue" d="M535.89,-112.44C500.48,-103.16 443.82,-88.31 404.98,-78.13"/>
<polygon fill="midnightblue" stroke="midnightblue" points="405.58,-74.67 395.02,-75.52 403.81,-81.44 405.58,-74.67"/>
</g>
<!-- Node21&#45;&gt;Node22 -->
<g id="edge23" class="edge">
<title>Node21&#45;&gt;Node22</title>
<path fill="none" stroke="midnightblue" d="M640.03,-112.53C740.37,-100.65 918.86,-79.51 991.95,-70.86"/>
<polygon fill="midnightblue" stroke="midnightblue" points="992.43,-74.33 1001.95,-69.67 991.61,-67.37 992.43,-74.33"/>
</g>
<!-- Node27&#45;&gt;Node12 -->
<g id="edge35" class="edge">
<title>Node27&#45;&gt;Node12</title>
<path fill="none" stroke="midnightblue" d="M327.99,-168.3C346.41,-154.67 384.14,-128.15 419.53,-112 452,-97.18 490.63,-85.68 520.41,-78.01"/>
<polygon fill="midnightblue" stroke="midnightblue" points="521.31,-81.39 530.15,-75.56 519.6,-74.61 521.31,-81.39"/>
</g>
<!-- Node27&#45;&gt;Node16 -->
<g id="edge36" class="edge">
<title>Node27&#45;&gt;Node16</title>
<path fill="none" stroke="midnightblue" d="M306.09,-168.32C296.39,-160.26 281.72,-148.08 270.03,-138.37"/>
<polygon fill="midnightblue" stroke="midnightblue" points="272.1,-135.53 262.17,-131.83 267.62,-140.92 272.1,-135.53"/>
</g>
<!-- Node27&#45;&gt;Node17 -->
<g id="edge38" class="edge">
<title>Node27&#45;&gt;Node17</title>
<path fill="none" stroke="midnightblue" d="M254.38,-174.38C221.65,-169.68 183.45,-158.35 159.53,-132 148.34,-119.66 145.98,-100.41 146.04,-86.06"/>
<polygon fill="midnightblue" stroke="midnightblue" points="149.55,-85.96 146.48,-75.82 142.55,-85.66 149.55,-85.96"/>
</g>
<!-- Node27&#45;&gt;Node18 -->
<g id="edge39" class="edge">
<title>Node27&#45;&gt;Node18</title>
<path fill="none" stroke="midnightblue" d="M255.56,-168.43C221.87,-161.88 180.16,-150.68 146.53,-132 124.17,-119.57 103.52,-98.26 90.75,-83.45"/>
<polygon fill="midnightblue" stroke="midnightblue" points="93.28,-81.02 84.19,-75.59 87.91,-85.51 93.28,-81.02"/>
</g>
<!-- Node27&#45;&gt;Node19 -->
<g id="edge41" class="edge">
<title>Node27&#45;&gt;Node19</title>
<path fill="none" stroke="midnightblue" d="M322.61,-168.4C328.6,-159.59 337.69,-145.36 343.53,-132 350.16,-116.85 355.24,-98.73 358.47,-85.48"/>
<polygon fill="midnightblue" stroke="midnightblue" points="361.9,-86.19 360.75,-75.66 355.08,-84.61 361.9,-86.19"/>
</g>
<!-- Node27&#45;&gt;Node24 -->
<g id="edge37" class="edge">
<title>Node27&#45;&gt;Node24</title>
<path fill="none" stroke="midnightblue" d="M271.47,-168.47C225.43,-159.67 151.89,-145.38 88.53,-132 87.28,-131.74 86.01,-131.46 84.72,-131.19"/>
<polygon fill="midnightblue" stroke="midnightblue" points="85.28,-127.73 74.76,-129.01 83.78,-134.56 85.28,-127.73"/>
</g>
<!-- Node27&#45;&gt;Node25 -->
<g id="edge40" class="edge">
<title>Node27&#45;&gt;Node25</title>
<path fill="none" stroke="midnightblue" d="M338.24,-168.44C360.89,-159.52 396.61,-145.44 422.29,-135.32"/>
<polygon fill="midnightblue" stroke="midnightblue" points="423.91,-138.44 431.93,-131.52 421.34,-131.93 423.91,-138.44"/>
</g>
</g>
</svg>
