<?xml version="1.0" encoding="UTF-8" standalone="no"?>
<!DOCTYPE svg PUBLIC "-//W3C//DTD SVG 1.1//EN"
 "http://www.w3.org/Graphics/SVG/1.1/DTD/svg11.dtd">
<!-- Generated by graphviz version 2.42.4 (0)
 -->
<!-- Title: include/llvm/CodeGen/MachineJumpTableInfo.h Pages: 1 -->
<svg width="6320pt" height="251pt"
 viewBox="0.00 0.00 6320.00 251.00" xmlns="http://www.w3.org/2000/svg" xmlns:xlink="http://www.w3.org/1999/xlink">
<g id="graph0" class="graph" transform="scale(1 1) rotate(0) translate(4 247)">
<title>include/llvm/CodeGen/MachineJumpTableInfo.h</title>
<!-- Node1 -->
<g id="node1" class="node">
<title>Node1</title>
<g id="a_node1"><a xlink:title=" ">
<polygon fill="#bfbfbf" stroke="black" points="3249,-212.5 3249,-242.5 3388,-242.5 3388,-212.5 3249,-212.5"/>
<text text-anchor="start" x="3257" y="-230.5" font-family="Helvetica,sans-Serif" font-size="10.00">include/llvm/CodeGen</text>
<text text-anchor="middle" x="3318.5" y="-219.5" font-family="Helvetica,sans-Serif" font-size="10.00">/MachineJumpTableInfo.h</text>
</a>
</g>
</g>
<!-- Node2 -->
<g id="node2" class="node">
<title>Node2</title>
<g id="a_node2"><a xlink:href="MIRYamlMapping_8h.html" target="_top" xlink:title=" ">
<polygon fill="none" stroke="black" points="883.5,-145.5 883.5,-175.5 1007.5,-175.5 1007.5,-145.5 883.5,-145.5"/>
<text text-anchor="start" x="891.5" y="-163.5" font-family="Helvetica,sans-Serif" font-size="10.00">include/llvm/CodeGen</text>
<text text-anchor="middle" x="945.5" y="-152.5" font-family="Helvetica,sans-Serif" font-size="10.00">/MIRYamlMapping.h</text>
</a>
</g>
</g>
<!-- Node1&#45;&gt;Node2 -->
<g id="edge1" class="edge">
<title>Node1&#45;&gt;Node2</title>
<path fill="none" stroke="midnightblue" d="M3238.58,-225.52C2958.73,-221.89 1996.96,-207.76 1203.5,-176 1136.48,-173.32 1059.75,-168.82 1007.51,-165.55"/>
<polygon fill="midnightblue" stroke="midnightblue" points="3238.6,-229.02 3248.64,-225.65 3238.69,-222.02 3238.6,-229.02"/>
</g>
<!-- Node4 -->
<g id="node4" class="node">
<title>Node4</title>
<g id="a_node4"><a xlink:href="MIRPrinter_8cpp.html" target="_top" xlink:title=" ">
<polygon fill="none" stroke="black" points="297,-84 297,-103 446,-103 446,-84 297,-84"/>
<text text-anchor="middle" x="371.5" y="-91" font-family="Helvetica,sans-Serif" font-size="10.00">lib/CodeGen/MIRPrinter.cpp</text>
</a>
</g>
</g>
<!-- Node1&#45;&gt;Node4 -->
<g id="edge29" class="edge">
<title>Node1&#45;&gt;Node4</title>
<path fill="none" stroke="midnightblue" d="M3238.59,-226.33C2872.05,-225.31 1349.17,-218.56 874.5,-176 700.92,-160.44 496.62,-120.56 411.68,-103.01"/>
<polygon fill="midnightblue" stroke="midnightblue" points="3238.83,-229.83 3248.84,-226.36 3238.85,-222.83 3238.83,-229.83"/>
</g>
<!-- Node7 -->
<g id="node7" class="node">
<title>Node7</title>
<g id="a_node7"><a xlink:href="AArch64AsmPrinter_8cpp.html" target="_top" xlink:title=" ">
<polygon fill="none" stroke="black" points="189.5,-6 189.5,-36 323.5,-36 323.5,-6 189.5,-6"/>
<text text-anchor="start" x="197.5" y="-24" font-family="Helvetica,sans-Serif" font-size="10.00">lib/Target/AArch64</text>
<text text-anchor="middle" x="256.5" y="-13" font-family="Helvetica,sans-Serif" font-size="10.00">/AArch64AsmPrinter.cpp</text>
</a>
</g>
</g>
<!-- Node1&#45;&gt;Node7 -->
<g id="edge34" class="edge">
<title>Node1&#45;&gt;Node7</title>
<path fill="none" stroke="midnightblue" d="M3238.84,-225.53C2906.92,-221.33 1642.92,-203.63 1466.5,-176 1361.31,-159.53 1330.75,-158.53 1236.5,-109 1217.21,-98.86 1218.88,-85.74 1198.5,-78 1018.44,-9.62 522.96,-70.68 332.5,-42 323.06,-40.58 313.09,-38.44 303.6,-36.08"/>
<polygon fill="midnightblue" stroke="midnightblue" points="3238.81,-229.03 3248.85,-225.66 3238.9,-222.03 3238.81,-229.03"/>
</g>
<!-- Node8 -->
<g id="node8" class="node">
<title>Node8</title>
<g id="a_node8"><a xlink:href="AArch64BranchTargets_8cpp.html" target="_top" xlink:title=" ">
<polygon fill="none" stroke="black" points="2433,-6 2433,-36 2582,-36 2582,-6 2433,-6"/>
<text text-anchor="start" x="2441" y="-24" font-family="Helvetica,sans-Serif" font-size="10.00">lib/Target/AArch64</text>
<text text-anchor="middle" x="2507.5" y="-13" font-family="Helvetica,sans-Serif" font-size="10.00">/AArch64BranchTargets.cpp</text>
</a>
</g>
</g>
<!-- Node1&#45;&gt;Node8 -->
<g id="edge35" class="edge">
<title>Node1&#45;&gt;Node8</title>
<path fill="none" stroke="midnightblue" d="M3238.82,-225.81C2889.67,-222.62 1510.62,-207.98 1479.5,-176 1456.23,-152.08 1488.96,-89.24 1504.5,-78 1587.38,-18.03 2323.17,-56.05 2424.5,-42 2434.78,-40.57 2445.64,-38.43 2456,-36.07"/>
<polygon fill="midnightblue" stroke="midnightblue" points="3238.82,-229.31 3248.85,-225.9 3238.88,-222.31 3238.82,-229.31"/>
</g>
<!-- Node11 -->
<g id="node11" class="node">
<title>Node11</title>
<g id="a_node11"><a xlink:href="AArch64CompressJumpTables_8cpp.html" target="_top" xlink:title=" ">
<polygon fill="none" stroke="black" points="2600,-6 2600,-36 2785,-36 2785,-6 2600,-6"/>
<text text-anchor="start" x="2608" y="-24" font-family="Helvetica,sans-Serif" font-size="10.00">lib/Target/AArch64</text>
<text text-anchor="middle" x="2692.5" y="-13" font-family="Helvetica,sans-Serif" font-size="10.00">/AArch64CompressJumpTables.cpp</text>
</a>
</g>
</g>
<!-- Node1&#45;&gt;Node11 -->
<g id="edge36" class="edge">
<title>Node1&#45;&gt;Node11</title>
<path fill="none" stroke="midnightblue" d="M3238.66,-225.78C2891.86,-222.49 1532.21,-207.57 1501.5,-176 1331.35,-1.05 2350.01,-77.23 2591.5,-42 2602.91,-40.34 2614.98,-38.24 2626.66,-36.04"/>
<polygon fill="midnightblue" stroke="midnightblue" points="3238.83,-229.29 3248.87,-225.88 3238.9,-222.29 3238.83,-229.29"/>
</g>
<!-- Node66 -->
<g id="node24" class="node">
<title>Node66</title>
<g id="a_node24"><a xlink:href="WebAssemblyISelLowering_8cpp.html" target="_top" xlink:title="This file implements the WebAssemblyTargetLowering class.">
<polygon fill="none" stroke="black" points="0,-6 0,-36 171,-36 171,-6 0,-6"/>
<text text-anchor="start" x="8" y="-24" font-family="Helvetica,sans-Serif" font-size="10.00">lib/Target/WebAssembly</text>
<text text-anchor="middle" x="85.5" y="-13" font-family="Helvetica,sans-Serif" font-size="10.00">/WebAssemblyISelLowering.cpp</text>
</a>
</g>
</g>
<!-- Node1&#45;&gt;Node66 -->
<g id="edge51" class="edge">
<title>Node1&#45;&gt;Node66</title>
<path fill="none" stroke="midnightblue" d="M3238.76,-226.85C2850.85,-228.26 1158.53,-231.11 634.5,-176 478.29,-159.57 437.62,-155.22 287.5,-109 222.91,-89.11 151.07,-55.13 112.88,-36.06"/>
<polygon fill="midnightblue" stroke="midnightblue" points="3238.78,-230.35 3248.77,-226.81 3238.75,-223.35 3238.78,-230.35"/>
</g>
<!-- Node81 -->
<g id="node25" class="node">
<title>Node81</title>
<g id="a_node25"><a xlink:href="AsmPrinter_8cpp.html" target="_top" xlink:title=" ">
<polygon fill="none" stroke="black" points="1510,-145.5 1510,-175.5 1643,-175.5 1643,-145.5 1510,-145.5"/>
<text text-anchor="start" x="1518" y="-163.5" font-family="Helvetica,sans-Serif" font-size="10.00">lib/CodeGen/AsmPrinter</text>
<text text-anchor="middle" x="1576.5" y="-152.5" font-family="Helvetica,sans-Serif" font-size="10.00">/AsmPrinter.cpp</text>
</a>
</g>
</g>
<!-- Node1&#45;&gt;Node81 -->
<g id="edge24" class="edge">
<title>Node1&#45;&gt;Node81</title>
<path fill="none" stroke="midnightblue" d="M3238.26,-225.75C2949.72,-222.8 1965.4,-210.37 1652.5,-176 1649.43,-175.66 1646.3,-175.27 1643.14,-174.83"/>
<polygon fill="midnightblue" stroke="midnightblue" points="3238.6,-229.25 3248.64,-225.86 3238.67,-222.25 3238.6,-229.25"/>
</g>
<!-- Node82 -->
<g id="node26" class="node">
<title>Node82</title>
<g id="a_node26"><a xlink:href="BranchFolding_8cpp.html" target="_top" xlink:title=" ">
<polygon fill="none" stroke="black" points="1661.5,-151 1661.5,-170 1829.5,-170 1829.5,-151 1661.5,-151"/>
<text text-anchor="middle" x="1745.5" y="-158" font-family="Helvetica,sans-Serif" font-size="10.00">lib/CodeGen/BranchFolding.cpp</text>
</a>
</g>
</g>
<!-- Node1&#45;&gt;Node82 -->
<g id="edge25" class="edge">
<title>Node1&#45;&gt;Node82</title>
<path fill="none" stroke="midnightblue" d="M3238.69,-227.15C3016.38,-228.24 2371.38,-226.45 1838.5,-176 1823.7,-174.6 1807.67,-172.36 1793.15,-170.06"/>
<polygon fill="midnightblue" stroke="midnightblue" points="3238.98,-230.65 3248.96,-227.1 3238.94,-223.65 3238.98,-230.65"/>
</g>
<!-- Node83 -->
<g id="node27" class="node">
<title>Node83</title>
<g id="a_node27"><a xlink:href="MachineFunction_8cpp.html" target="_top" xlink:title=" ">
<polygon fill="none" stroke="black" points="1847.5,-151 1847.5,-170 2029.5,-170 2029.5,-151 1847.5,-151"/>
<text text-anchor="middle" x="1938.5" y="-158" font-family="Helvetica,sans-Serif" font-size="10.00">lib/CodeGen/MachineFunction.cpp</text>
</a>
</g>
</g>
<!-- Node1&#45;&gt;Node83 -->
<g id="edge26" class="edge">
<title>Node1&#45;&gt;Node83</title>
<path fill="none" stroke="midnightblue" d="M3238.76,-226.25C3037.23,-224.98 2491.27,-217.64 2038.5,-176 2022.69,-174.55 2005.56,-172.31 1990.02,-170.02"/>
<polygon fill="midnightblue" stroke="midnightblue" points="3238.94,-229.75 3248.96,-226.31 3238.98,-222.75 3238.94,-229.75"/>
</g>
<!-- Node84 -->
<g id="node28" class="node">
<title>Node84</title>
<g id="a_node28"><a xlink:href="MachineOperand_8cpp.html" target="_top" xlink:title=" ">
<polygon fill="none" stroke="black" points="2047.5,-151 2047.5,-170 2229.5,-170 2229.5,-151 2047.5,-151"/>
<text text-anchor="middle" x="2138.5" y="-158" font-family="Helvetica,sans-Serif" font-size="10.00">lib/CodeGen/MachineOperand.cpp</text>
</a>
</g>
</g>
<!-- Node1&#45;&gt;Node84 -->
<g id="edge27" class="edge">
<title>Node1&#45;&gt;Node84</title>
<path fill="none" stroke="midnightblue" d="M3238.79,-225.38C3059.74,-222.29 2612.18,-211.39 2239.5,-176 2223.72,-174.5 2206.62,-172.28 2191.07,-170.02"/>
<polygon fill="midnightblue" stroke="midnightblue" points="3238.85,-228.88 3248.91,-225.55 3238.97,-221.88 3238.85,-228.88"/>
</g>
<!-- Node85 -->
<g id="node29" class="node">
<title>Node85</title>
<g id="a_node29"><a xlink:href="MachineStableHash_8cpp.html" target="_top" xlink:title=" ">
<polygon fill="none" stroke="black" points="2248,-145.5 2248,-175.5 2399,-175.5 2399,-145.5 2248,-145.5"/>
<text text-anchor="start" x="2256" y="-163.5" font-family="Helvetica,sans-Serif" font-size="10.00">lib/CodeGen/MachineStable</text>
<text text-anchor="middle" x="2323.5" y="-152.5" font-family="Helvetica,sans-Serif" font-size="10.00">Hash.cpp</text>
</a>
</g>
</g>
<!-- Node1&#45;&gt;Node85 -->
<g id="edge28" class="edge">
<title>Node1&#45;&gt;Node85</title>
<path fill="none" stroke="midnightblue" d="M3238.78,-225.12C3080.19,-221.69 2714.1,-210.43 2408.5,-176 2405.52,-175.66 2402.5,-175.29 2399.44,-174.89"/>
<polygon fill="midnightblue" stroke="midnightblue" points="3238.85,-228.62 3248.92,-225.33 3239,-221.62 3238.85,-228.62"/>
</g>
<!-- Node86 -->
<g id="node30" class="node">
<title>Node86</title>
<g id="a_node30"><a xlink:href="LegalizeDAG_8cpp.html" target="_top" xlink:title=" ">
<polygon fill="none" stroke="black" points="2417.5,-145.5 2417.5,-175.5 2563.5,-175.5 2563.5,-145.5 2417.5,-145.5"/>
<text text-anchor="start" x="2425.5" y="-163.5" font-family="Helvetica,sans-Serif" font-size="10.00">lib/CodeGen/SelectionDAG</text>
<text text-anchor="middle" x="2490.5" y="-152.5" font-family="Helvetica,sans-Serif" font-size="10.00">/LegalizeDAG.cpp</text>
</a>
</g>
</g>
<!-- Node1&#45;&gt;Node86 -->
<g id="edge30" class="edge">
<title>Node1&#45;&gt;Node86</title>
<path fill="none" stroke="midnightblue" d="M3238.46,-223.9C3101.58,-218.83 2813.94,-205.43 2572.5,-176 2569.63,-175.65 2566.71,-175.27 2563.76,-174.86"/>
<polygon fill="midnightblue" stroke="midnightblue" points="3238.72,-227.42 3248.84,-224.28 3238.98,-220.42 3238.72,-227.42"/>
</g>
<!-- Node87 -->
<g id="node31" class="node">
<title>Node87</title>
<g id="a_node31"><a xlink:href="SelectionDAGBuilder_8cpp.html" target="_top" xlink:title=" ">
<polygon fill="none" stroke="black" points="2581.5,-145.5 2581.5,-175.5 2727.5,-175.5 2727.5,-145.5 2581.5,-145.5"/>
<text text-anchor="start" x="2589.5" y="-163.5" font-family="Helvetica,sans-Serif" font-size="10.00">lib/CodeGen/SelectionDAG</text>
<text text-anchor="middle" x="2654.5" y="-152.5" font-family="Helvetica,sans-Serif" font-size="10.00">/SelectionDAGBuilder.cpp</text>
</a>
</g>
</g>
<!-- Node1&#45;&gt;Node87 -->
<g id="edge31" class="edge">
<title>Node1&#45;&gt;Node87</title>
<path fill="none" stroke="midnightblue" d="M3238.62,-221.81C3126.24,-214.71 2915.19,-199.5 2736.5,-176 2733.63,-175.62 2730.71,-175.22 2727.77,-174.79"/>
<polygon fill="midnightblue" stroke="midnightblue" points="3238.65,-225.32 3248.85,-222.46 3239.09,-218.34 3238.65,-225.32"/>
</g>
<!-- Node88 -->
<g id="node32" class="node">
<title>Node88</title>
<g id="a_node32"><a xlink:href="TargetLowering_8cpp.html" target="_top" xlink:title=" ">
<polygon fill="none" stroke="black" points="2745.5,-145.5 2745.5,-175.5 2891.5,-175.5 2891.5,-145.5 2745.5,-145.5"/>
<text text-anchor="start" x="2753.5" y="-163.5" font-family="Helvetica,sans-Serif" font-size="10.00">lib/CodeGen/SelectionDAG</text>
<text text-anchor="middle" x="2818.5" y="-152.5" font-family="Helvetica,sans-Serif" font-size="10.00">/TargetLowering.cpp</text>
</a>
</g>
</g>
<!-- Node1&#45;&gt;Node88 -->
<g id="edge32" class="edge">
<title>Node1&#45;&gt;Node88</title>
<path fill="none" stroke="midnightblue" d="M3239.01,-218.13C3154.98,-208.98 3018.66,-193.32 2901.5,-176 2898.32,-175.53 2895.07,-175.03 2891.79,-174.52"/>
<polygon fill="midnightblue" stroke="midnightblue" points="3238.68,-221.61 3248.99,-219.21 3239.43,-214.65 3238.68,-221.61"/>
</g>
<!-- Node89 -->
<g id="node33" class="node">
<title>Node89</title>
<g id="a_node33"><a xlink:href="SwitchLoweringUtils_8cpp.html" target="_top" xlink:title=" ">
<polygon fill="none" stroke="black" points="2910,-145.5 2910,-175.5 3065,-175.5 3065,-145.5 2910,-145.5"/>
<text text-anchor="start" x="2918" y="-163.5" font-family="Helvetica,sans-Serif" font-size="10.00">lib/CodeGen/SwitchLowering</text>
<text text-anchor="middle" x="2987.5" y="-152.5" font-family="Helvetica,sans-Serif" font-size="10.00">Utils.cpp</text>
</a>
</g>
</g>
<!-- Node1&#45;&gt;Node89 -->
<g id="edge33" class="edge">
<title>Node1&#45;&gt;Node89</title>
<path fill="none" stroke="midnightblue" d="M3238.69,-210.83C3183.9,-200.07 3111.8,-185.91 3058.91,-175.52"/>
<polygon fill="midnightblue" stroke="midnightblue" points="3238.22,-214.3 3248.71,-212.79 3239.57,-207.43 3238.22,-214.3"/>
</g>
<!-- Node90 -->
<g id="node34" class="node">
<title>Node90</title>
<g id="a_node34"><a xlink:href="AMDILCFGStructurizer_8cpp.html" target="_top" xlink:title=" ">
<polygon fill="none" stroke="black" points="3083,-151 3083,-170 3322,-170 3322,-151 3083,-151"/>
<text text-anchor="middle" x="3202.5" y="-158" font-family="Helvetica,sans-Serif" font-size="10.00">lib/Target/AMDGPU/AMDILCFGStructurizer.cpp</text>
</a>
</g>
</g>
<!-- Node1&#45;&gt;Node90 -->
<g id="edge37" class="edge">
<title>Node1&#45;&gt;Node90</title>
<path fill="none" stroke="midnightblue" d="M3284.54,-207.47C3262.4,-195.06 3234.57,-179.47 3217.68,-170.01"/>
<polygon fill="midnightblue" stroke="midnightblue" points="3282.9,-210.56 3293.33,-212.4 3286.32,-204.45 3282.9,-210.56"/>
</g>
<!-- Node91 -->
<g id="node35" class="node">
<title>Node91</title>
<g id="a_node35"><a xlink:href="ARCISelLowering_8cpp.html" target="_top" xlink:title=" ">
<polygon fill="none" stroke="black" points="3340,-151 3340,-170 3531,-170 3531,-151 3340,-151"/>
<text text-anchor="middle" x="3435.5" y="-158" font-family="Helvetica,sans-Serif" font-size="10.00">lib/Target/ARC/ARCISelLowering.cpp</text>
</a>
</g>
</g>
<!-- Node1&#45;&gt;Node91 -->
<g id="edge38" class="edge">
<title>Node1&#45;&gt;Node91</title>
<path fill="none" stroke="midnightblue" d="M3352.75,-207.47C3375.08,-195.06 3403.15,-179.47 3420.19,-170.01"/>
<polygon fill="midnightblue" stroke="midnightblue" points="3350.93,-204.48 3343.89,-212.4 3354.33,-210.6 3350.93,-204.48"/>
</g>
<!-- Node92 -->
<g id="node36" class="node">
<title>Node92</title>
<g id="a_node36"><a xlink:href="ARMAsmPrinter_8cpp.html" target="_top" xlink:title=" ">
<polygon fill="none" stroke="black" points="3549.5,-151 3549.5,-170 3735.5,-170 3735.5,-151 3549.5,-151"/>
<text text-anchor="middle" x="3642.5" y="-158" font-family="Helvetica,sans-Serif" font-size="10.00">lib/Target/ARM/ARMAsmPrinter.cpp</text>
</a>
</g>
</g>
<!-- Node1&#45;&gt;Node92 -->
<g id="edge39" class="edge">
<title>Node1&#45;&gt;Node92</title>
<path fill="none" stroke="midnightblue" d="M3398.02,-210.55C3461.75,-197.76 3548.68,-180.32 3599.88,-170.05"/>
<polygon fill="midnightblue" stroke="midnightblue" points="3397.12,-207.16 3388.01,-212.56 3398.5,-214.02 3397.12,-207.16"/>
</g>
<!-- Node93 -->
<g id="node37" class="node">
<title>Node93</title>
<g id="a_node37"><a xlink:href="ARMConstantIslandPass_8cpp.html" target="_top" xlink:title=" ">
<polygon fill="none" stroke="black" points="3753.5,-145.5 3753.5,-175.5 3909.5,-175.5 3909.5,-145.5 3753.5,-145.5"/>
<text text-anchor="start" x="3761.5" y="-163.5" font-family="Helvetica,sans-Serif" font-size="10.00">lib/Target/ARM/ARMConstant</text>
<text text-anchor="middle" x="3831.5" y="-152.5" font-family="Helvetica,sans-Serif" font-size="10.00">IslandPass.cpp</text>
</a>
</g>
</g>
<!-- Node1&#45;&gt;Node93 -->
<g id="edge40" class="edge">
<title>Node1&#45;&gt;Node93</title>
<path fill="none" stroke="midnightblue" d="M3398.54,-218.15C3484.27,-208.94 3624.23,-193.14 3744.5,-176 3747.38,-175.59 3750.31,-175.16 3753.27,-174.72"/>
<polygon fill="midnightblue" stroke="midnightblue" points="3397.93,-214.7 3388.36,-219.24 3398.68,-221.66 3397.93,-214.7"/>
</g>
<!-- Node94 -->
<g id="node38" class="node">
<title>Node94</title>
<g id="a_node38"><a xlink:href="ARMFrameLowering_8cpp.html" target="_top" xlink:title=" ">
<polygon fill="none" stroke="black" points="3927.5,-151 3927.5,-170 4135.5,-170 4135.5,-151 3927.5,-151"/>
<text text-anchor="middle" x="4031.5" y="-158" font-family="Helvetica,sans-Serif" font-size="10.00">lib/Target/ARM/ARMFrameLowering.cpp</text>
</a>
</g>
</g>
<!-- Node1&#45;&gt;Node94 -->
<g id="edge41" class="edge">
<title>Node1&#45;&gt;Node94</title>
<path fill="none" stroke="midnightblue" d="M3398.48,-220.88C3513.58,-212.55 3732.58,-195.74 3918.5,-176 3934.92,-174.26 3952.65,-172.11 3969.09,-170"/>
<polygon fill="midnightblue" stroke="midnightblue" points="3398.06,-217.4 3388.34,-221.62 3398.57,-224.39 3398.06,-217.4"/>
</g>
<!-- Node95 -->
<g id="node39" class="node">
<title>Node95</title>
<g id="a_node39"><a xlink:href="ARMInstrInfo_8cpp.html" target="_top" xlink:title=" ">
<polygon fill="none" stroke="black" points="4154,-151 4154,-170 4327,-170 4327,-151 4154,-151"/>
<text text-anchor="middle" x="4240.5" y="-158" font-family="Helvetica,sans-Serif" font-size="10.00">lib/Target/ARM/ARMInstrInfo.cpp</text>
</a>
</g>
</g>
<!-- Node1&#45;&gt;Node95 -->
<g id="edge42" class="edge">
<title>Node1&#45;&gt;Node95</title>
<path fill="none" stroke="midnightblue" d="M3398.34,-223.98C3545.99,-218.79 3871.56,-204.9 4144.5,-176 4159.25,-174.44 4175.2,-172.24 4189.79,-170.02"/>
<polygon fill="midnightblue" stroke="midnightblue" points="3397.89,-220.49 3388.02,-224.34 3398.14,-227.49 3397.89,-220.49"/>
</g>
<!-- Node96 -->
<g id="node40" class="node">
<title>Node96</title>
<g id="a_node40"><a xlink:href="ARMISelLowering_8cpp.html" target="_top" xlink:title=" ">
<polygon fill="none" stroke="black" points="4345,-151 4345,-170 4540,-170 4540,-151 4345,-151"/>
<text text-anchor="middle" x="4442.5" y="-158" font-family="Helvetica,sans-Serif" font-size="10.00">lib/Target/ARM/ARMISelLowering.cpp</text>
</a>
</g>
</g>
<!-- Node1&#45;&gt;Node96 -->
<g id="edge43" class="edge">
<title>Node1&#45;&gt;Node96</title>
<path fill="none" stroke="midnightblue" d="M3398.3,-224.89C3570.15,-220.89 3987.93,-208.43 4336.5,-176 4352.96,-174.47 4370.79,-172.25 4387.04,-170.01"/>
<polygon fill="midnightblue" stroke="midnightblue" points="3397.99,-221.39 3388.08,-225.12 3398.15,-228.39 3397.99,-221.39"/>
</g>
<!-- Node97 -->
<g id="node41" class="node">
<title>Node97</title>
<g id="a_node41"><a xlink:href="M68kISelLowering_8cpp.html" target="_top" xlink:title="This file defines the interfaces that M68k uses to lower LLVM code into a selection DAG.">
<polygon fill="none" stroke="black" points="4558.5,-145.5 4558.5,-175.5 4698.5,-175.5 4698.5,-145.5 4558.5,-145.5"/>
<text text-anchor="start" x="4566.5" y="-163.5" font-family="Helvetica,sans-Serif" font-size="10.00">lib/Target/M68k/M68kISel</text>
<text text-anchor="middle" x="4628.5" y="-152.5" font-family="Helvetica,sans-Serif" font-size="10.00">Lowering.cpp</text>
</a>
</g>
</g>
<!-- Node1&#45;&gt;Node97 -->
<g id="edge44" class="edge">
<title>Node1&#45;&gt;Node97</title>
<path fill="none" stroke="midnightblue" d="M3398.4,-227.1C3594.92,-227.73 4117.21,-224.3 4549.5,-176 4552.41,-175.67 4555.37,-175.31 4558.36,-174.9"/>
<polygon fill="midnightblue" stroke="midnightblue" points="3398.18,-223.6 3388.17,-227.06 3398.16,-230.6 3398.18,-223.6"/>
</g>
<!-- Node98 -->
<g id="node42" class="node">
<title>Node98</title>
<g id="a_node42"><a xlink:href="M68kSubtarget_8cpp.html" target="_top" xlink:title="This file implements the M68k specific subclass of TargetSubtargetInfo.">
<polygon fill="none" stroke="black" points="4717,-151 4717,-170 4906,-170 4906,-151 4717,-151"/>
<text text-anchor="middle" x="4811.5" y="-158" font-family="Helvetica,sans-Serif" font-size="10.00">lib/Target/M68k/M68kSubtarget.cpp</text>
</a>
</g>
</g>
<!-- Node1&#45;&gt;Node98 -->
<g id="edge45" class="edge">
<title>Node1&#45;&gt;Node98</title>
<path fill="none" stroke="midnightblue" d="M3398.18,-226.45C3611.08,-225.69 4210.83,-219.54 4707.5,-176 4724.03,-174.55 4741.94,-172.3 4758.18,-170"/>
<polygon fill="midnightblue" stroke="midnightblue" points="3398.02,-222.95 3388.03,-226.48 3398.04,-229.95 3398.02,-222.95"/>
</g>
<!-- Node99 -->
<g id="node43" class="node">
<title>Node99</title>
<g id="a_node43"><a xlink:href="MipsAsmPrinter_8cpp.html" target="_top" xlink:title=" ">
<polygon fill="none" stroke="black" points="4924.5,-151 4924.5,-170 5112.5,-170 5112.5,-151 4924.5,-151"/>
<text text-anchor="middle" x="5018.5" y="-158" font-family="Helvetica,sans-Serif" font-size="10.00">lib/Target/Mips/MipsAsmPrinter.cpp</text>
</a>
</g>
</g>
<!-- Node1&#45;&gt;Node99 -->
<g id="edge46" class="edge">
<title>Node1&#45;&gt;Node99</title>
<path fill="none" stroke="midnightblue" d="M3398.43,-227.03C3632.26,-227.91 4335.1,-225.88 4915.5,-176 4931.96,-174.59 4949.82,-172.33 4965.96,-170.01"/>
<polygon fill="midnightblue" stroke="midnightblue" points="3398.33,-223.53 3388.32,-226.98 3398.3,-230.53 3398.33,-223.53"/>
</g>
<!-- Node100 -->
<g id="node44" class="node">
<title>Node100</title>
<g id="a_node44"><a xlink:href="MipsInstructionSelector_8cpp.html" target="_top" xlink:title="This file implements the targeting of the InstructionSelector class for Mips.">
<polygon fill="none" stroke="black" points="5130.5,-145.5 5130.5,-175.5 5296.5,-175.5 5296.5,-145.5 5130.5,-145.5"/>
<text text-anchor="start" x="5138.5" y="-163.5" font-family="Helvetica,sans-Serif" font-size="10.00">lib/Target/Mips/MipsInstruction</text>
<text text-anchor="middle" x="5213.5" y="-152.5" font-family="Helvetica,sans-Serif" font-size="10.00">Selector.cpp</text>
</a>
</g>
</g>
<!-- Node1&#45;&gt;Node100 -->
<g id="edge47" class="edge">
<title>Node1&#45;&gt;Node100</title>
<path fill="none" stroke="midnightblue" d="M3398.13,-225.63C3700.77,-222.11 4779.66,-207.59 5121.5,-176 5124.4,-175.73 5127.34,-175.43 5130.32,-175.1"/>
<polygon fill="midnightblue" stroke="midnightblue" points="3398.08,-222.13 3388.12,-225.75 3398.16,-229.13 3398.08,-222.13"/>
</g>
<!-- Node101 -->
<g id="node45" class="node">
<title>Node101</title>
<g id="a_node45"><a xlink:href="MipsISelLowering_8cpp.html" target="_top" xlink:title=" ">
<polygon fill="none" stroke="black" points="5314.5,-145.5 5314.5,-175.5 5446.5,-175.5 5446.5,-145.5 5314.5,-145.5"/>
<text text-anchor="start" x="5322.5" y="-163.5" font-family="Helvetica,sans-Serif" font-size="10.00">lib/Target/Mips/MipsISel</text>
<text text-anchor="middle" x="5380.5" y="-152.5" font-family="Helvetica,sans-Serif" font-size="10.00">Lowering.cpp</text>
</a>
</g>
</g>
<!-- Node1&#45;&gt;Node101 -->
<g id="edge48" class="edge">
<title>Node1&#45;&gt;Node101</title>
<path fill="none" stroke="midnightblue" d="M3398.35,-226.24C3720.62,-224.9 4926.36,-217.18 5305.5,-176 5308.4,-175.68 5311.36,-175.32 5314.34,-174.91"/>
<polygon fill="midnightblue" stroke="midnightblue" points="3398.15,-222.74 3388.16,-226.28 3398.18,-229.74 3398.15,-222.74"/>
</g>
<!-- Node102 -->
<g id="node46" class="node">
<title>Node102</title>
<g id="a_node46"><a xlink:href="PPCISelLowering_8cpp.html" target="_top" xlink:title=" ">
<polygon fill="none" stroke="black" points="5465,-145.5 5465,-175.5 5586,-175.5 5586,-145.5 5465,-145.5"/>
<text text-anchor="start" x="5473" y="-163.5" font-family="Helvetica,sans-Serif" font-size="10.00">lib/Target/PowerPC</text>
<text text-anchor="middle" x="5525.5" y="-152.5" font-family="Helvetica,sans-Serif" font-size="10.00">/PPCISelLowering.cpp</text>
</a>
</g>
</g>
<!-- Node1&#45;&gt;Node102 -->
<g id="edge49" class="edge">
<title>Node1&#45;&gt;Node102</title>
<path fill="none" stroke="midnightblue" d="M3398.16,-226.54C3735.22,-226.43 5045.53,-222.92 5455.5,-176 5458.58,-175.65 5461.73,-175.23 5464.9,-174.75"/>
<polygon fill="midnightblue" stroke="midnightblue" points="3398,-223.04 3388,-226.55 3398,-230.04 3398,-223.04"/>
</g>
<!-- Node103 -->
<g id="node47" class="node">
<title>Node103</title>
<g id="a_node47"><a xlink:href="VEISelLowering_8cpp.html" target="_top" xlink:title=" ">
<polygon fill="none" stroke="black" points="5604.5,-151 5604.5,-170 5780.5,-170 5780.5,-151 5604.5,-151"/>
<text text-anchor="middle" x="5692.5" y="-158" font-family="Helvetica,sans-Serif" font-size="10.00">lib/Target/VE/VEISelLowering.cpp</text>
</a>
</g>
</g>
<!-- Node1&#45;&gt;Node103 -->
<g id="edge50" class="edge">
<title>Node1&#45;&gt;Node103</title>
<path fill="none" stroke="midnightblue" d="M3398.07,-226.08C3748.37,-224.05 5155.27,-213.63 5595.5,-176 5611.28,-174.65 5628.39,-172.37 5643.79,-170.01"/>
<polygon fill="midnightblue" stroke="midnightblue" points="3397.99,-222.58 3388.01,-226.14 3398.03,-229.58 3397.99,-222.58"/>
</g>
<!-- Node104 -->
<g id="node48" class="node">
<title>Node104</title>
<g id="a_node48"><a xlink:href="X86ISelLowering_8cpp.html" target="_top" xlink:title=" ">
<polygon fill="none" stroke="black" points="5798.5,-151 5798.5,-170 5986.5,-170 5986.5,-151 5798.5,-151"/>
<text text-anchor="middle" x="5892.5" y="-158" font-family="Helvetica,sans-Serif" font-size="10.00">lib/Target/X86/X86ISelLowering.cpp</text>
</a>
</g>
</g>
<!-- Node1&#45;&gt;Node104 -->
<g id="edge52" class="edge">
<title>Node1&#45;&gt;Node104</title>
<path fill="none" stroke="midnightblue" d="M3398.08,-226.15C3766.48,-224.36 5308.69,-214.62 5789.5,-176 5806.24,-174.66 5824.41,-172.37 5840.76,-170.01"/>
<polygon fill="midnightblue" stroke="midnightblue" points="3398.03,-222.65 3388.04,-226.2 3398.06,-229.65 3398.03,-222.65"/>
</g>
<!-- Node105 -->
<g id="node49" class="node">
<title>Node105</title>
<g id="a_node49"><a xlink:href="XCoreAsmPrinter_8cpp.html" target="_top" xlink:title=" ">
<polygon fill="none" stroke="black" points="6004.5,-145.5 6004.5,-175.5 6150.5,-175.5 6150.5,-145.5 6004.5,-145.5"/>
<text text-anchor="start" x="6012.5" y="-163.5" font-family="Helvetica,sans-Serif" font-size="10.00">lib/Target/XCore/XCoreAsm</text>
<text text-anchor="middle" x="6077.5" y="-152.5" font-family="Helvetica,sans-Serif" font-size="10.00">Printer.cpp</text>
</a>
</g>
</g>
<!-- Node1&#45;&gt;Node105 -->
<g id="edge53" class="edge">
<title>Node1&#45;&gt;Node105</title>
<path fill="none" stroke="midnightblue" d="M3398.3,-226.68C3785.67,-227.27 5472.55,-226.85 5995.5,-176 5998.38,-175.72 6001.31,-175.4 6004.26,-175.03"/>
<polygon fill="midnightblue" stroke="midnightblue" points="3398.04,-223.18 3388.04,-226.66 3398.03,-230.18 3398.04,-223.18"/>
</g>
<!-- Node106 -->
<g id="node50" class="node">
<title>Node106</title>
<g id="a_node50"><a xlink:href="XCoreISelLowering_8cpp.html" target="_top" xlink:title=" ">
<polygon fill="none" stroke="black" points="6169,-145.5 6169,-175.5 6312,-175.5 6312,-145.5 6169,-145.5"/>
<text text-anchor="start" x="6177" y="-163.5" font-family="Helvetica,sans-Serif" font-size="10.00">lib/Target/XCore/XCoreISel</text>
<text text-anchor="middle" x="6240.5" y="-152.5" font-family="Helvetica,sans-Serif" font-size="10.00">Lowering.cpp</text>
</a>
</g>
</g>
<!-- Node1&#45;&gt;Node106 -->
<g id="edge54" class="edge">
<title>Node1&#45;&gt;Node106</title>
<path fill="none" stroke="midnightblue" d="M3398.26,-226.8C3799.75,-228.05 5602.3,-230.47 6159.5,-176 6162.49,-175.71 6165.53,-175.37 6168.59,-174.99"/>
<polygon fill="midnightblue" stroke="midnightblue" points="3398.2,-223.3 3388.19,-226.77 3398.18,-230.3 3398.2,-223.3"/>
</g>
<!-- Node3 -->
<g id="node3" class="node">
<title>Node3</title>
<g id="a_node3"><a xlink:href="MIRParser_8cpp.html" target="_top" xlink:title=" ">
<polygon fill="none" stroke="black" points="881.5,-78.5 881.5,-108.5 1009.5,-108.5 1009.5,-78.5 881.5,-78.5"/>
<text text-anchor="start" x="889.5" y="-96.5" font-family="Helvetica,sans-Serif" font-size="10.00">lib/CodeGen/MIRParser</text>
<text text-anchor="middle" x="945.5" y="-85.5" font-family="Helvetica,sans-Serif" font-size="10.00">/MIRParser.cpp</text>
</a>
</g>
</g>
<!-- Node2&#45;&gt;Node3 -->
<g id="edge2" class="edge">
<title>Node2&#45;&gt;Node3</title>
<path fill="none" stroke="midnightblue" d="M945.5,-135.11C945.5,-126.15 945.5,-116.32 945.5,-108.58"/>
<polygon fill="midnightblue" stroke="midnightblue" points="942,-135.4 945.5,-145.4 949,-135.4 942,-135.4"/>
</g>
<!-- Node2&#45;&gt;Node4 -->
<g id="edge3" class="edge">
<title>Node2&#45;&gt;Node4</title>
<path fill="none" stroke="midnightblue" d="M873.16,-153.67C777.22,-145.56 602.73,-129.55 454.5,-109 442.33,-107.31 429.21,-105.17 417.07,-103.06"/>
<polygon fill="midnightblue" stroke="midnightblue" points="873.07,-157.17 883.32,-154.52 873.65,-150.19 873.07,-157.17"/>
</g>
<!-- Node5 -->
<g id="node5" class="node">
<title>Node5</title>
<g id="a_node5"><a xlink:href="MIRYamlMapping_8cpp.html" target="_top" xlink:title=" ">
<polygon fill="none" stroke="black" points="681.5,-84 681.5,-103 863.5,-103 863.5,-84 681.5,-84"/>
<text text-anchor="middle" x="772.5" y="-91" font-family="Helvetica,sans-Serif" font-size="10.00">lib/CodeGen/MIRYamlMapping.cpp</text>
</a>
</g>
</g>
<!-- Node2&#45;&gt;Node5 -->
<g id="edge4" class="edge">
<title>Node2&#45;&gt;Node5</title>
<path fill="none" stroke="midnightblue" d="M898.35,-141.78C864.8,-129.18 821.23,-112.81 795.14,-103.01"/>
<polygon fill="midnightblue" stroke="midnightblue" points="897.37,-145.16 907.96,-145.4 899.83,-138.6 897.37,-145.16"/>
</g>
<!-- Node6 -->
<g id="node6" class="node">
<title>Node6</title>
<g id="a_node6"><a xlink:href="AArch64MachineFunctionInfo_8h.html" target="_top" xlink:title=" ">
<polygon fill="none" stroke="red" points="1245.5,-78.5 1245.5,-108.5 1415.5,-108.5 1415.5,-78.5 1245.5,-78.5"/>
<text text-anchor="start" x="1253.5" y="-96.5" font-family="Helvetica,sans-Serif" font-size="10.00">lib/Target/AArch64</text>
<text text-anchor="middle" x="1330.5" y="-85.5" font-family="Helvetica,sans-Serif" font-size="10.00">/AArch64MachineFunctionInfo.h</text>
</a>
</g>
</g>
<!-- Node2&#45;&gt;Node6 -->
<g id="edge5" class="edge">
<title>Node2&#45;&gt;Node6</title>
<path fill="none" stroke="midnightblue" d="M1017.99,-147.26C1083.24,-136.24 1179.12,-120.06 1247.44,-108.52"/>
<polygon fill="midnightblue" stroke="midnightblue" points="1017.06,-143.87 1007.78,-148.98 1018.23,-150.77 1017.06,-143.87"/>
</g>
<!-- Node24 -->
<g id="node22" class="node">
<title>Node24</title>
<g id="a_node22"><a xlink:href="SIMachineFunctionInfo_8h.html" target="_top" xlink:title=" ">
<polygon fill="none" stroke="red" points="1027.5,-78.5 1027.5,-108.5 1189.5,-108.5 1189.5,-78.5 1027.5,-78.5"/>
<text text-anchor="start" x="1035.5" y="-96.5" font-family="Helvetica,sans-Serif" font-size="10.00">lib/Target/AMDGPU/SIMachine</text>
<text text-anchor="middle" x="1108.5" y="-85.5" font-family="Helvetica,sans-Serif" font-size="10.00">FunctionInfo.h</text>
</a>
</g>
</g>
<!-- Node2&#45;&gt;Node24 -->
<g id="edge21" class="edge">
<title>Node2&#45;&gt;Node24</title>
<path fill="none" stroke="midnightblue" d="M990.18,-141.68C1016.33,-131.26 1048.87,-118.28 1073.2,-108.58"/>
<polygon fill="midnightblue" stroke="midnightblue" points="988.86,-138.44 980.87,-145.4 991.45,-144.94 988.86,-138.44"/>
</g>
<!-- Node52 -->
<g id="node23" class="node">
<title>Node52</title>
<g id="a_node23"><a xlink:href="WebAssemblyMachineFunctionInfo_8h.html" target="_top" xlink:title="This file declares WebAssembly&#45;specific per&#45;machine&#45;function information.">
<polygon fill="none" stroke="red" points="464,-78.5 464,-108.5 663,-108.5 663,-78.5 464,-78.5"/>
<text text-anchor="start" x="472" y="-96.5" font-family="Helvetica,sans-Serif" font-size="10.00">lib/Target/WebAssembly</text>
<text text-anchor="middle" x="563.5" y="-85.5" font-family="Helvetica,sans-Serif" font-size="10.00">/WebAssemblyMachineFunctionInfo.h</text>
</a>
</g>
</g>
<!-- Node2&#45;&gt;Node52 -->
<g id="edge22" class="edge">
<title>Node2&#45;&gt;Node52</title>
<path fill="none" stroke="midnightblue" d="M873.16,-147.19C808.47,-136.18 713.71,-120.06 646.07,-108.55"/>
<polygon fill="midnightblue" stroke="midnightblue" points="872.83,-150.68 883.27,-148.91 874,-143.78 872.83,-150.68"/>
</g>
<!-- Node6&#45;&gt;Node7 -->
<g id="edge6" class="edge">
<title>Node6&#45;&gt;Node7</title>
<path fill="none" stroke="midnightblue" d="M1234.89,-78.33C1233.76,-78.21 1232.62,-78.1 1231.5,-78 833.34,-40.97 727.96,-101.23 332.5,-42 323.05,-40.59 313.09,-38.45 303.6,-36.09"/>
<polygon fill="midnightblue" stroke="midnightblue" points="1234.93,-81.85 1245.25,-79.43 1235.67,-74.89 1234.93,-81.85"/>
</g>
<!-- Node6&#45;&gt;Node8 -->
<g id="edge7" class="edge">
<title>Node6&#45;&gt;Node8</title>
<path fill="none" stroke="midnightblue" d="M1426.11,-78.32C1427.24,-78.21 1428.38,-78.1 1429.5,-78 1870.19,-37.88 1986.09,-102.13 2424.5,-42 2434.78,-40.59 2445.64,-38.46 2456,-36.1"/>
<polygon fill="midnightblue" stroke="midnightblue" points="1425.33,-74.88 1415.75,-79.41 1426.06,-81.84 1425.33,-74.88"/>
</g>
<!-- Node9 -->
<g id="node9" class="node">
<title>Node9</title>
<g id="a_node9"><a xlink:href="AArch64CleanupLocalDynamicTLSPass_8cpp.html" target="_top" xlink:title=" ">
<polygon fill="none" stroke="black" points="2246,-0.5 2246,-41.5 2415,-41.5 2415,-0.5 2246,-0.5"/>
<text text-anchor="start" x="2254" y="-29.5" font-family="Helvetica,sans-Serif" font-size="10.00">lib/Target/AArch64</text>
<text text-anchor="start" x="2254" y="-18.5" font-family="Helvetica,sans-Serif" font-size="10.00">/AArch64CleanupLocalDynamic</text>
<text text-anchor="middle" x="2330.5" y="-7.5" font-family="Helvetica,sans-Serif" font-size="10.00">TLSPass.cpp</text>
</a>
</g>
</g>
<!-- Node6&#45;&gt;Node9 -->
<g id="edge8" class="edge">
<title>Node6&#45;&gt;Node9</title>
<path fill="none" stroke="midnightblue" d="M1426.11,-78.33C1427.25,-78.22 1428.38,-78.11 1429.5,-78 1786.9,-43.94 1880.37,-87.51 2236.5,-42 2239.56,-41.61 2242.67,-41.17 2245.81,-40.69"/>
<polygon fill="midnightblue" stroke="midnightblue" points="1425.32,-74.9 1415.76,-79.46 1426.08,-81.86 1425.32,-74.9"/>
</g>
<!-- Node10 -->
<g id="node10" class="node">
<title>Node10</title>
<g id="a_node10"><a xlink:href="AArch64CollectLOH_8cpp.html" target="_top" xlink:title=" ">
<polygon fill="none" stroke="black" points="341.5,-6 341.5,-36 475.5,-36 475.5,-6 341.5,-6"/>
<text text-anchor="start" x="349.5" y="-24" font-family="Helvetica,sans-Serif" font-size="10.00">lib/Target/AArch64</text>
<text text-anchor="middle" x="408.5" y="-13" font-family="Helvetica,sans-Serif" font-size="10.00">/AArch64CollectLOH.cpp</text>
</a>
</g>
</g>
<!-- Node6&#45;&gt;Node10 -->
<g id="edge9" class="edge">
<title>Node6&#45;&gt;Node10</title>
<path fill="none" stroke="midnightblue" d="M1234.89,-78.34C1233.75,-78.22 1232.62,-78.11 1231.5,-78 900.67,-45.88 813.02,-92.57 484.5,-42 475.06,-40.55 465.1,-38.39 455.61,-36.03"/>
<polygon fill="midnightblue" stroke="midnightblue" points="1234.92,-81.86 1245.24,-79.48 1235.68,-74.9 1234.92,-81.86"/>
</g>
<!-- Node6&#45;&gt;Node11 -->
<g id="edge10" class="edge">
<title>Node6&#45;&gt;Node11</title>
<path fill="none" stroke="midnightblue" d="M1425.69,-81.51C1439.7,-80.16 1453.96,-78.93 1467.5,-78 1966.13,-43.67 2094.92,-98.73 2591.5,-42 2604.02,-40.57 2617.3,-38.41 2629.98,-36.03"/>
<polygon fill="midnightblue" stroke="midnightblue" points="1425.16,-78.05 1415.55,-82.52 1425.85,-85.02 1425.16,-78.05"/>
</g>
<!-- Node12 -->
<g id="node12" class="node">
<title>Node12</title>
<g id="a_node12"><a xlink:href="AArch64ExpandPseudoInsts_8cpp.html" target="_top" xlink:title=" ">
<polygon fill="none" stroke="black" points="494,-6 494,-36 669,-36 669,-6 494,-6"/>
<text text-anchor="start" x="502" y="-24" font-family="Helvetica,sans-Serif" font-size="10.00">lib/Target/AArch64</text>
<text text-anchor="middle" x="581.5" y="-13" font-family="Helvetica,sans-Serif" font-size="10.00">/AArch64ExpandPseudoInsts.cpp</text>
</a>
</g>
</g>
<!-- Node6&#45;&gt;Node12 -->
<g id="edge11" class="edge">
<title>Node6&#45;&gt;Node12</title>
<path fill="none" stroke="midnightblue" d="M1234.89,-78.37C1233.75,-78.24 1232.62,-78.12 1231.5,-78 986.56,-52.13 922.58,-74.95 678.5,-42 667,-40.45 654.82,-38.32 643.12,-36.04"/>
<polygon fill="midnightblue" stroke="midnightblue" points="1234.9,-81.89 1245.23,-79.57 1235.7,-74.94 1234.9,-81.89"/>
</g>
<!-- Node13 -->
<g id="node13" class="node">
<title>Node13</title>
<g id="a_node13"><a xlink:href="AArch64FrameLowering_8cpp.html" target="_top" xlink:title=" ">
<polygon fill="none" stroke="black" points="687,-6 687,-36 842,-36 842,-6 687,-6"/>
<text text-anchor="start" x="695" y="-24" font-family="Helvetica,sans-Serif" font-size="10.00">lib/Target/AArch64</text>
<text text-anchor="middle" x="764.5" y="-13" font-family="Helvetica,sans-Serif" font-size="10.00">/AArch64FrameLowering.cpp</text>
</a>
</g>
</g>
<!-- Node6&#45;&gt;Node13 -->
<g id="edge12" class="edge">
<title>Node6&#45;&gt;Node13</title>
<path fill="none" stroke="midnightblue" d="M1235.38,-78.47C1234.08,-78.31 1232.79,-78.15 1231.5,-78 1063.07,-57.7 1018.97,-69.06 851.5,-42 841.4,-40.37 830.73,-38.25 820.45,-36"/>
<polygon fill="midnightblue" stroke="midnightblue" points="1235.12,-81.97 1245.48,-79.76 1236,-75.03 1235.12,-81.97"/>
</g>
<!-- Node14 -->
<g id="node14" class="node">
<title>Node14</title>
<g id="a_node14"><a xlink:href="AArch64InstrInfo_8cpp.html" target="_top" xlink:title=" ">
<polygon fill="none" stroke="black" points="860,-6 860,-36 981,-36 981,-6 860,-6"/>
<text text-anchor="start" x="868" y="-24" font-family="Helvetica,sans-Serif" font-size="10.00">lib/Target/AArch64</text>
<text text-anchor="middle" x="920.5" y="-13" font-family="Helvetica,sans-Serif" font-size="10.00">/AArch64InstrInfo.cpp</text>
</a>
</g>
</g>
<!-- Node6&#45;&gt;Node14 -->
<g id="edge13" class="edge">
<title>Node6&#45;&gt;Node14</title>
<path fill="none" stroke="midnightblue" d="M1235.45,-78.53C1136.97,-64.04 996.54,-43.3 990.5,-42 982.72,-40.32 974.53,-38.25 966.6,-36.09"/>
<polygon fill="midnightblue" stroke="midnightblue" points="1235.03,-82.01 1245.44,-80 1236.05,-75.09 1235.03,-82.01"/>
</g>
<!-- Node15 -->
<g id="node15" class="node">
<title>Node15</title>
<g id="a_node15"><a xlink:href="AArch64ISelDAGToDAG_8cpp.html" target="_top" xlink:title=" ">
<polygon fill="none" stroke="black" points="999.5,-6 999.5,-36 1151.5,-36 1151.5,-6 999.5,-6"/>
<text text-anchor="start" x="1007.5" y="-24" font-family="Helvetica,sans-Serif" font-size="10.00">lib/Target/AArch64</text>
<text text-anchor="middle" x="1075.5" y="-13" font-family="Helvetica,sans-Serif" font-size="10.00">/AArch64ISelDAGToDAG.cpp</text>
</a>
</g>
</g>
<!-- Node6&#45;&gt;Node15 -->
<g id="edge14" class="edge">
<title>Node6&#45;&gt;Node15</title>
<path fill="none" stroke="midnightblue" d="M1270.16,-75.82C1226.43,-63.73 1167.94,-47.56 1126.52,-36.11"/>
<polygon fill="midnightblue" stroke="midnightblue" points="1269.24,-79.2 1279.82,-78.49 1271.11,-72.45 1269.24,-79.2"/>
</g>
<!-- Node16 -->
<g id="node16" class="node">
<title>Node16</title>
<g id="a_node16"><a xlink:href="AArch64ISelLowering_8cpp.html" target="_top" xlink:title=" ">
<polygon fill="none" stroke="black" points="1170,-6 1170,-36 1313,-36 1313,-6 1170,-6"/>
<text text-anchor="start" x="1178" y="-24" font-family="Helvetica,sans-Serif" font-size="10.00">lib/Target/AArch64</text>
<text text-anchor="middle" x="1241.5" y="-13" font-family="Helvetica,sans-Serif" font-size="10.00">/AArch64ISelLowering.cpp</text>
</a>
</g>
</g>
<!-- Node6&#45;&gt;Node16 -->
<g id="edge15" class="edge">
<title>Node6&#45;&gt;Node16</title>
<path fill="none" stroke="midnightblue" d="M1304.35,-71.79C1289.81,-60.27 1272.09,-46.23 1259.18,-36"/>
<polygon fill="midnightblue" stroke="midnightblue" points="1302.48,-74.77 1312.49,-78.23 1306.82,-69.28 1302.48,-74.77"/>
</g>
<!-- Node17 -->
<g id="node17" class="node">
<title>Node17</title>
<g id="a_node17"><a xlink:href="AArch64LoadStoreOptimizer_8cpp.html" target="_top" xlink:title=" ">
<polygon fill="none" stroke="black" points="1331.5,-6 1331.5,-36 1507.5,-36 1507.5,-6 1331.5,-6"/>
<text text-anchor="start" x="1339.5" y="-24" font-family="Helvetica,sans-Serif" font-size="10.00">lib/Target/AArch64</text>
<text text-anchor="middle" x="1419.5" y="-13" font-family="Helvetica,sans-Serif" font-size="10.00">/AArch64LoadStoreOptimizer.cpp</text>
</a>
</g>
</g>
<!-- Node6&#45;&gt;Node17 -->
<g id="edge16" class="edge">
<title>Node6&#45;&gt;Node17</title>
<path fill="none" stroke="midnightblue" d="M1356.65,-71.79C1371.19,-60.27 1388.91,-46.23 1401.82,-36"/>
<polygon fill="midnightblue" stroke="midnightblue" points="1354.18,-69.28 1348.51,-78.23 1358.52,-74.77 1354.18,-69.28"/>
</g>
<!-- Node18 -->
<g id="node18" class="node">
<title>Node18</title>
<g id="a_node18"><a xlink:href="AArch64MachineFunctionInfo_8cpp.html" target="_top" xlink:title="This file implements AArch64&#45;specific per&#45;machine&#45;function information.">
<polygon fill="none" stroke="black" points="1525.5,-6 1525.5,-36 1707.5,-36 1707.5,-6 1525.5,-6"/>
<text text-anchor="start" x="1533.5" y="-24" font-family="Helvetica,sans-Serif" font-size="10.00">lib/Target/AArch64</text>
<text text-anchor="middle" x="1616.5" y="-13" font-family="Helvetica,sans-Serif" font-size="10.00">/AArch64MachineFunctionInfo.cpp</text>
</a>
</g>
</g>
<!-- Node6&#45;&gt;Node18 -->
<g id="edge17" class="edge">
<title>Node6&#45;&gt;Node18</title>
<path fill="none" stroke="midnightblue" d="M1397.25,-76.05C1446.4,-63.93 1512.53,-47.63 1559.27,-36.11"/>
<polygon fill="midnightblue" stroke="midnightblue" points="1396.22,-72.7 1387.35,-78.49 1397.89,-79.49 1396.22,-72.7"/>
</g>
<!-- Node19 -->
<g id="node19" class="node">
<title>Node19</title>
<g id="a_node19"><a xlink:href="AArch64RegisterInfo_8cpp.html" target="_top" xlink:title=" ">
<polygon fill="none" stroke="black" points="1725.5,-6 1725.5,-36 1865.5,-36 1865.5,-6 1725.5,-6"/>
<text text-anchor="start" x="1733.5" y="-24" font-family="Helvetica,sans-Serif" font-size="10.00">lib/Target/AArch64</text>
<text text-anchor="middle" x="1795.5" y="-13" font-family="Helvetica,sans-Serif" font-size="10.00">/AArch64RegisterInfo.cpp</text>
</a>
</g>
</g>
<!-- Node6&#45;&gt;Node19 -->
<g id="edge18" class="edge">
<title>Node6&#45;&gt;Node19</title>
<path fill="none" stroke="midnightblue" d="M1425.63,-78.53C1426.93,-78.35 1428.22,-78.17 1429.5,-78 1556.88,-60.68 1590.17,-65.82 1716.5,-42 1725.4,-40.32 1734.78,-38.23 1743.86,-36.04"/>
<polygon fill="midnightblue" stroke="midnightblue" points="1424.96,-75.09 1415.54,-79.93 1425.93,-82.02 1424.96,-75.09"/>
</g>
<!-- Node20 -->
<g id="node20" class="node">
<title>Node20</title>
<g id="a_node20"><a xlink:href="AArch64StackTaggingPreRA_8cpp.html" target="_top" xlink:title=" ">
<polygon fill="none" stroke="black" points="1883.5,-6 1883.5,-36 2057.5,-36 2057.5,-6 1883.5,-6"/>
<text text-anchor="start" x="1891.5" y="-24" font-family="Helvetica,sans-Serif" font-size="10.00">lib/Target/AArch64</text>
<text text-anchor="middle" x="1970.5" y="-13" font-family="Helvetica,sans-Serif" font-size="10.00">/AArch64StackTaggingPreRA.cpp</text>
</a>
</g>
</g>
<!-- Node6&#45;&gt;Node20 -->
<g id="edge19" class="edge">
<title>Node6&#45;&gt;Node20</title>
<path fill="none" stroke="midnightblue" d="M1425.62,-78.45C1426.92,-78.3 1428.21,-78.15 1429.5,-78 1626.66,-55.61 1678.1,-70.29 1874.5,-42 1885.62,-40.4 1897.39,-38.29 1908.73,-36.05"/>
<polygon fill="midnightblue" stroke="midnightblue" points="1425.01,-75 1415.51,-79.69 1425.86,-81.95 1425.01,-75"/>
</g>
<!-- Node21 -->
<g id="node21" class="node">
<title>Node21</title>
<g id="a_node21"><a xlink:href="AArch64TargetMachine_8cpp.html" target="_top" xlink:title=" ">
<polygon fill="none" stroke="black" points="2075.5,-6 2075.5,-36 2227.5,-36 2227.5,-6 2075.5,-6"/>
<text text-anchor="start" x="2083.5" y="-24" font-family="Helvetica,sans-Serif" font-size="10.00">lib/Target/AArch64</text>
<text text-anchor="middle" x="2151.5" y="-13" font-family="Helvetica,sans-Serif" font-size="10.00">/AArch64TargetMachine.cpp</text>
</a>
</g>
</g>
<!-- Node6&#45;&gt;Node21 -->
<g id="edge20" class="edge">
<title>Node6&#45;&gt;Node21</title>
<path fill="none" stroke="midnightblue" d="M1426.11,-78.35C1427.25,-78.23 1428.38,-78.11 1429.5,-78 1711.62,-49.42 1785.86,-82.63 2066.5,-42 2076.85,-40.5 2087.8,-38.36 2098.27,-36.03"/>
<polygon fill="midnightblue" stroke="midnightblue" points="1425.31,-74.92 1415.76,-79.52 1426.09,-81.88 1425.31,-74.92"/>
</g>
<!-- Node52&#45;&gt;Node66 -->
<g id="edge23" class="edge">
<title>Node52&#45;&gt;Node66</title>
<path fill="none" stroke="midnightblue" d="M453.82,-77.92C331.03,-61.93 298.38,-62.12 180.5,-42 170.2,-40.24 159.32,-38.16 148.74,-36.02"/>
<polygon fill="midnightblue" stroke="midnightblue" points="453.63,-81.43 464,-79.26 454.54,-74.49 453.63,-81.43"/>
</g>
</g>
</svg>
