<?xml version="1.0" encoding="UTF-8" standalone="no"?>
<!DOCTYPE svg PUBLIC "-//W3C//DTD SVG 1.1//EN"
 "http://www.w3.org/Graphics/SVG/1.1/DTD/svg11.dtd">
<!-- Generated by graphviz version 2.42.4 (0)
 -->
<!-- Title: include/llvm/Analysis/ObjCARCUtil.h Pages: 1 -->
<svg width="1050pt" height="173pt"
 viewBox="0.00 0.00 1050.00 173.00" xmlns="http://www.w3.org/2000/svg" xmlns:xlink="http://www.w3.org/1999/xlink">
<g id="graph0" class="graph" transform="scale(1 1) rotate(0) translate(4 169)">
<title>include/llvm/Analysis/ObjCARCUtil.h</title>
<!-- Node1 -->
<g id="node1" class="node">
<title>Node1</title>
<g id="a_node1"><a xlink:title="This file defines ARC utility functions which are used by various parts of the compiler.">
<polygon fill="#bfbfbf" stroke="black" points="568.5,-134.5 568.5,-164.5 689.5,-164.5 689.5,-134.5 568.5,-134.5"/>
<text text-anchor="start" x="576.5" y="-152.5" font-family="Helvetica,sans-Serif" font-size="10.00">include/llvm/Analysis</text>
<text text-anchor="middle" x="629" y="-141.5" font-family="Helvetica,sans-Serif" font-size="10.00">/ObjCARCUtil.h</text>
</a>
</g>
</g>
<!-- Node2 -->
<g id="node2" class="node">
<title>Node2</title>
<g id="a_node2"><a xlink:href="AArch64ISelLowering_8cpp.html" target="_top" xlink:title=" ">
<polygon fill="none" stroke="black" points="110.5,-67.5 110.5,-97.5 253.5,-97.5 253.5,-67.5 110.5,-67.5"/>
<text text-anchor="start" x="118.5" y="-85.5" font-family="Helvetica,sans-Serif" font-size="10.00">lib/Target/AArch64</text>
<text text-anchor="middle" x="182" y="-74.5" font-family="Helvetica,sans-Serif" font-size="10.00">/AArch64ISelLowering.cpp</text>
</a>
</g>
</g>
<!-- Node1&#45;&gt;Node2 -->
<g id="edge1" class="edge">
<title>Node1&#45;&gt;Node2</title>
<path fill="none" stroke="midnightblue" d="M558.23,-139.59C484.42,-130.09 365.41,-114.22 263,-98 259.9,-97.51 256.73,-96.99 253.53,-96.46"/>
<polygon fill="midnightblue" stroke="midnightblue" points="557.97,-143.08 568.34,-140.89 558.86,-136.14 557.97,-143.08"/>
</g>
<!-- Node3 -->
<g id="node3" class="node">
<title>Node3</title>
<g id="a_node3"><a xlink:href="X86ISelLowering_8cpp.html" target="_top" xlink:title=" ">
<polygon fill="none" stroke="black" points="272,-73 272,-92 460,-92 460,-73 272,-73"/>
<text text-anchor="middle" x="366" y="-80" font-family="Helvetica,sans-Serif" font-size="10.00">lib/Target/X86/X86ISelLowering.cpp</text>
</a>
</g>
</g>
<!-- Node1&#45;&gt;Node3 -->
<g id="edge2" class="edge">
<title>Node1&#45;&gt;Node3</title>
<path fill="none" stroke="midnightblue" d="M562.52,-132.07C510.94,-119.32 441.54,-102.17 400.51,-92.03"/>
<polygon fill="midnightblue" stroke="midnightblue" points="561.71,-135.47 572.26,-134.48 563.39,-128.68 561.71,-135.47"/>
</g>
<!-- Node4 -->
<g id="node4" class="node">
<title>Node4</title>
<g id="a_node4"><a xlink:href="ObjCARC_8cpp.html" target="_top" xlink:title=" ">
<polygon fill="none" stroke="black" points="0,-0.5 0,-30.5 132,-30.5 132,-0.5 0,-0.5"/>
<text text-anchor="start" x="8" y="-18.5" font-family="Helvetica,sans-Serif" font-size="10.00">lib/Transforms/ObjCARC</text>
<text text-anchor="middle" x="66" y="-7.5" font-family="Helvetica,sans-Serif" font-size="10.00">/ObjCARC.cpp</text>
</a>
</g>
</g>
<!-- Node1&#45;&gt;Node4 -->
<g id="edge3" class="edge">
<title>Node1&#45;&gt;Node4</title>
<path fill="none" stroke="midnightblue" d="M576.98,-130.82C554.71,-122.29 528.86,-111.05 507,-98 488.29,-86.82 489.1,-75.42 469,-67 333.74,-10.32 286,-52.94 141,-31 138.12,-30.56 135.17,-30.1 132.2,-29.6"/>
<polygon fill="midnightblue" stroke="midnightblue" points="576.02,-134.2 586.61,-134.43 578.47,-127.64 576.02,-134.2"/>
</g>
<!-- Node5 -->
<g id="node5" class="node">
<title>Node5</title>
<g id="a_node5"><a xlink:href="lib_2Transforms_2ObjCARC_2ObjCARC_8h.html" target="_top" xlink:title="This file defines common definitions/declarations used by the ObjC ARC Optimizer.">
<polygon fill="none" stroke="black" points="516,-67.5 516,-97.5 648,-97.5 648,-67.5 516,-67.5"/>
<text text-anchor="start" x="524" y="-85.5" font-family="Helvetica,sans-Serif" font-size="10.00">lib/Transforms/ObjCARC</text>
<text text-anchor="middle" x="582" y="-74.5" font-family="Helvetica,sans-Serif" font-size="10.00">/ObjCARC.h</text>
</a>
</g>
</g>
<!-- Node1&#45;&gt;Node5 -->
<g id="edge4" class="edge">
<title>Node1&#45;&gt;Node5</title>
<path fill="none" stroke="midnightblue" d="M612.84,-126.16C605.99,-116.68 598.21,-105.92 592.18,-97.58"/>
<polygon fill="midnightblue" stroke="midnightblue" points="610.11,-128.34 618.8,-134.4 615.78,-124.24 610.11,-128.34"/>
</g>
<!-- Node8 -->
<g id="node8" class="node">
<title>Node8</title>
<g id="a_node8"><a xlink:href="ObjCARCContract_8cpp.html" target="_top" xlink:title="This file defines late ObjC ARC optimizations.">
<polygon fill="none" stroke="black" points="610,-0.5 610,-30.5 742,-30.5 742,-0.5 610,-0.5"/>
<text text-anchor="start" x="618" y="-18.5" font-family="Helvetica,sans-Serif" font-size="10.00">lib/Transforms/ObjCARC</text>
<text text-anchor="middle" x="676" y="-7.5" font-family="Helvetica,sans-Serif" font-size="10.00">/ObjCARCContract.cpp</text>
</a>
</g>
</g>
<!-- Node1&#45;&gt;Node8 -->
<g id="edge12" class="edge">
<title>Node1&#45;&gt;Node8</title>
<path fill="none" stroke="midnightblue" d="M643.47,-125.59C648.31,-117.16 653.39,-107.38 657,-98 665.77,-75.22 671.21,-47.24 673.92,-30.7"/>
<polygon fill="midnightblue" stroke="midnightblue" points="640.31,-124.05 638.19,-134.43 646.32,-127.64 640.31,-124.05"/>
</g>
<!-- Node10 -->
<g id="node10" class="node">
<title>Node10</title>
<g id="a_node10"><a xlink:href="ObjCARCOpts_8cpp.html" target="_top" xlink:title="This file defines ObjC ARC optimizations.">
<polygon fill="none" stroke="black" points="760,-0.5 760,-30.5 892,-30.5 892,-0.5 760,-0.5"/>
<text text-anchor="start" x="768" y="-18.5" font-family="Helvetica,sans-Serif" font-size="10.00">lib/Transforms/ObjCARC</text>
<text text-anchor="middle" x="826" y="-7.5" font-family="Helvetica,sans-Serif" font-size="10.00">/ObjCARCOpts.cpp</text>
</a>
</g>
</g>
<!-- Node1&#45;&gt;Node10 -->
<g id="edge13" class="edge">
<title>Node1&#45;&gt;Node10</title>
<path fill="none" stroke="midnightblue" d="M654.7,-127.89C676.4,-110.84 708.54,-86.36 738,-67 758.02,-53.84 781.6,-40.41 799.32,-30.71"/>
<polygon fill="midnightblue" stroke="midnightblue" points="652.32,-125.31 646.65,-134.26 656.66,-130.8 652.32,-125.31"/>
</g>
<!-- Node11 -->
<g id="node11" class="node">
<title>Node11</title>
<g id="a_node11"><a xlink:href="PtrState_8cpp.html" target="_top" xlink:title=" ">
<polygon fill="none" stroke="black" points="910,-0.5 910,-30.5 1042,-30.5 1042,-0.5 910,-0.5"/>
<text text-anchor="start" x="918" y="-18.5" font-family="Helvetica,sans-Serif" font-size="10.00">lib/Transforms/ObjCARC</text>
<text text-anchor="middle" x="976" y="-7.5" font-family="Helvetica,sans-Serif" font-size="10.00">/PtrState.cpp</text>
</a>
</g>
</g>
<!-- Node1&#45;&gt;Node11 -->
<g id="edge14" class="edge">
<title>Node1&#45;&gt;Node11</title>
<path fill="none" stroke="midnightblue" d="M669.85,-130.05C688.59,-121.09 710.84,-109.74 730,-98 749.78,-85.88 751,-76.87 772,-67 796.31,-55.58 860.15,-40.59 910,-29.91"/>
<polygon fill="midnightblue" stroke="midnightblue" points="668.24,-126.94 660.69,-134.38 671.23,-133.27 668.24,-126.94"/>
</g>
<!-- Node12 -->
<g id="node12" class="node">
<title>Node12</title>
<g id="a_node12"><a xlink:href="InlineFunction_8cpp.html" target="_top" xlink:title=" ">
<polygon fill="none" stroke="black" points="780.5,-67.5 780.5,-97.5 891.5,-97.5 891.5,-67.5 780.5,-67.5"/>
<text text-anchor="start" x="788.5" y="-85.5" font-family="Helvetica,sans-Serif" font-size="10.00">lib/Transforms/Utils</text>
<text text-anchor="middle" x="836" y="-74.5" font-family="Helvetica,sans-Serif" font-size="10.00">/InlineFunction.cpp</text>
</a>
</g>
</g>
<!-- Node1&#45;&gt;Node12 -->
<g id="edge15" class="edge">
<title>Node1&#45;&gt;Node12</title>
<path fill="none" stroke="midnightblue" d="M683.32,-131.44C716.87,-120.91 759.41,-107.55 791.06,-97.61"/>
<polygon fill="midnightblue" stroke="midnightblue" points="682.15,-128.14 673.66,-134.48 684.25,-134.82 682.15,-128.14"/>
</g>
<!-- Node5&#45;&gt;Node4 -->
<g id="edge6" class="edge">
<title>Node5&#45;&gt;Node4</title>
<path fill="none" stroke="midnightblue" d="M505.8,-67.55C504.53,-67.36 503.26,-67.18 502,-67 342.32,-44.6 300.54,-54.33 141,-31 138.11,-30.58 135.17,-30.12 132.2,-29.64"/>
<polygon fill="midnightblue" stroke="midnightblue" points="505.3,-71.01 515.71,-69.06 506.36,-64.09 505.3,-71.01"/>
</g>
<!-- Node6 -->
<g id="node6" class="node">
<title>Node6</title>
<g id="a_node6"><a xlink:href="DependencyAnalysis_8cpp.html" target="_top" xlink:title="This file defines special dependency analysis routines used in Objective C ARC Optimizations.">
<polygon fill="none" stroke="black" points="150,-0.5 150,-30.5 292,-30.5 292,-0.5 150,-0.5"/>
<text text-anchor="start" x="158" y="-18.5" font-family="Helvetica,sans-Serif" font-size="10.00">lib/Transforms/ObjCARC</text>
<text text-anchor="middle" x="221" y="-7.5" font-family="Helvetica,sans-Serif" font-size="10.00">/DependencyAnalysis.cpp</text>
</a>
</g>
</g>
<!-- Node5&#45;&gt;Node6 -->
<g id="edge5" class="edge">
<title>Node5&#45;&gt;Node6</title>
<path fill="none" stroke="midnightblue" d="M505.78,-67.68C504.51,-67.45 503.25,-67.23 502,-67 412.68,-50.91 390.32,-47.09 301,-31 298.08,-30.47 295.11,-29.94 292.1,-29.39"/>
<polygon fill="midnightblue" stroke="midnightblue" points="505.19,-71.13 515.65,-69.46 506.43,-64.24 505.19,-71.13"/>
</g>
<!-- Node7 -->
<g id="node7" class="node">
<title>Node7</title>
<g id="a_node7"><a xlink:href="ObjCARCAPElim_8cpp.html" target="_top" xlink:title="This file defines ObjC ARC optimizations.">
<polygon fill="none" stroke="black" points="310,-0.5 310,-30.5 442,-30.5 442,-0.5 310,-0.5"/>
<text text-anchor="start" x="318" y="-18.5" font-family="Helvetica,sans-Serif" font-size="10.00">lib/Transforms/ObjCARC</text>
<text text-anchor="middle" x="376" y="-7.5" font-family="Helvetica,sans-Serif" font-size="10.00">/ObjCARCAPElim.cpp</text>
</a>
</g>
</g>
<!-- Node5&#45;&gt;Node7 -->
<g id="edge7" class="edge">
<title>Node5&#45;&gt;Node7</title>
<path fill="none" stroke="midnightblue" d="M527.95,-64.44C494.55,-53.91 452.22,-40.55 420.72,-30.61"/>
<polygon fill="midnightblue" stroke="midnightblue" points="526.96,-67.8 537.55,-67.48 529.07,-61.13 526.96,-67.8"/>
</g>
<!-- Node5&#45;&gt;Node8 -->
<g id="edge8" class="edge">
<title>Node5&#45;&gt;Node8</title>
<path fill="none" stroke="midnightblue" d="M610.99,-61.45C625.45,-51.45 642.59,-39.6 655.64,-30.58"/>
<polygon fill="midnightblue" stroke="midnightblue" points="608.63,-58.83 602.4,-67.4 612.61,-64.59 608.63,-58.83"/>
</g>
<!-- Node9 -->
<g id="node9" class="node">
<title>Node9</title>
<g id="a_node9"><a xlink:href="ObjCARCExpand_8cpp.html" target="_top" xlink:title="This file defines ObjC ARC optimizations.">
<polygon fill="none" stroke="black" points="460,-0.5 460,-30.5 592,-30.5 592,-0.5 460,-0.5"/>
<text text-anchor="start" x="468" y="-18.5" font-family="Helvetica,sans-Serif" font-size="10.00">lib/Transforms/ObjCARC</text>
<text text-anchor="middle" x="526" y="-7.5" font-family="Helvetica,sans-Serif" font-size="10.00">/ObjCARCExpand.cpp</text>
</a>
</g>
</g>
<!-- Node5&#45;&gt;Node9 -->
<g id="edge9" class="edge">
<title>Node5&#45;&gt;Node9</title>
<path fill="none" stroke="midnightblue" d="M563.25,-59.74C554.96,-50.12 545.46,-39.09 538.13,-30.58"/>
<polygon fill="midnightblue" stroke="midnightblue" points="560.67,-62.1 569.85,-67.4 565.97,-57.54 560.67,-62.1"/>
</g>
<!-- Node5&#45;&gt;Node10 -->
<g id="edge10" class="edge">
<title>Node5&#45;&gt;Node10</title>
<path fill="none" stroke="midnightblue" d="M644.5,-64.85C684.28,-54.25 735.24,-40.68 773.03,-30.61"/>
<polygon fill="midnightblue" stroke="midnightblue" points="643.41,-61.52 634.64,-67.48 645.21,-68.28 643.41,-61.52"/>
</g>
<!-- Node5&#45;&gt;Node11 -->
<g id="edge11" class="edge">
<title>Node5&#45;&gt;Node11</title>
<path fill="none" stroke="midnightblue" d="M658.21,-70.18C722.91,-60.39 818.18,-45.56 901,-31 903.87,-30.49 906.81,-29.97 909.77,-29.43"/>
<polygon fill="midnightblue" stroke="midnightblue" points="657.46,-66.75 648.09,-71.71 658.5,-73.68 657.46,-66.75"/>
</g>
</g>
</svg>
