<?xml version="1.0" encoding="UTF-8" standalone="no"?>
<!DOCTYPE svg PUBLIC "-//W3C//DTD SVG 1.1//EN"
 "http://www.w3.org/Graphics/SVG/1.1/DTD/svg11.dtd">
<!-- Generated by graphviz version 2.42.4 (0)
 -->
<!-- Title: include/llvm/CodeGen/Spiller.h Pages: 1 -->
<svg width="914pt" height="95pt"
 viewBox="0.00 0.00 913.50 95.00" xmlns="http://www.w3.org/2000/svg" xmlns:xlink="http://www.w3.org/1999/xlink">
<g id="graph0" class="graph" transform="scale(1 1) rotate(0) translate(4 91)">
<title>include/llvm/CodeGen/Spiller.h</title>
<!-- Node1 -->
<g id="node1" class="node">
<title>Node1</title>
<g id="a_node1"><a xlink:title=" ">
<polygon fill="#bfbfbf" stroke="black" points="380,-56.5 380,-86.5 504,-86.5 504,-56.5 380,-56.5"/>
<text text-anchor="start" x="388" y="-74.5" font-family="Helvetica,sans-Serif" font-size="10.00">include/llvm/CodeGen</text>
<text text-anchor="middle" x="442" y="-63.5" font-family="Helvetica,sans-Serif" font-size="10.00">/Spiller.h</text>
</a>
</g>
</g>
<!-- Node2 -->
<g id="node2" class="node">
<title>Node2</title>
<g id="a_node2"><a xlink:href="InlineSpiller_8cpp.html" target="_top" xlink:title=" ">
<polygon fill="none" stroke="black" points="0,-0.5 0,-19.5 156,-19.5 156,-0.5 0,-0.5"/>
<text text-anchor="middle" x="78" y="-7.5" font-family="Helvetica,sans-Serif" font-size="10.00">lib/CodeGen/InlineSpiller.cpp</text>
</a>
</g>
</g>
<!-- Node1&#45;&gt;Node2 -->
<g id="edge1" class="edge">
<title>Node1&#45;&gt;Node2</title>
<path fill="none" stroke="midnightblue" d="M369.67,-58.68C298.96,-47.12 193.02,-29.8 130.17,-19.53"/>
<polygon fill="midnightblue" stroke="midnightblue" points="369.41,-62.18 379.84,-60.34 370.54,-55.27 369.41,-62.18"/>
</g>
<!-- Node3 -->
<g id="node3" class="node">
<title>Node3</title>
<g id="a_node3"><a xlink:href="RegAllocBase_8cpp.html" target="_top" xlink:title=" ">
<polygon fill="none" stroke="black" points="174,-0.5 174,-19.5 340,-19.5 340,-0.5 174,-0.5"/>
<text text-anchor="middle" x="257" y="-7.5" font-family="Helvetica,sans-Serif" font-size="10.00">lib/CodeGen/RegAllocBase.cpp</text>
</a>
</g>
</g>
<!-- Node1&#45;&gt;Node3 -->
<g id="edge2" class="edge">
<title>Node1&#45;&gt;Node3</title>
<path fill="none" stroke="midnightblue" d="M388.27,-53.22C353.92,-42.17 310.88,-28.33 283.65,-19.57"/>
<polygon fill="midnightblue" stroke="midnightblue" points="387.57,-56.67 398.16,-56.4 389.71,-50.01 387.57,-56.67"/>
</g>
<!-- Node4 -->
<g id="node4" class="node">
<title>Node4</title>
<g id="a_node4"><a xlink:href="RegAllocBasic_8cpp.html" target="_top" xlink:title=" ">
<polygon fill="none" stroke="black" points="358,-0.5 358,-19.5 526,-19.5 526,-0.5 358,-0.5"/>
<text text-anchor="middle" x="442" y="-7.5" font-family="Helvetica,sans-Serif" font-size="10.00">lib/CodeGen/RegAllocBasic.cpp</text>
</a>
</g>
</g>
<!-- Node1&#45;&gt;Node4 -->
<g id="edge3" class="edge">
<title>Node1&#45;&gt;Node4</title>
<path fill="none" stroke="midnightblue" d="M442,-46.29C442,-36.86 442,-26.65 442,-19.66"/>
<polygon fill="midnightblue" stroke="midnightblue" points="438.5,-46.4 442,-56.4 445.5,-46.4 438.5,-46.4"/>
</g>
<!-- Node5 -->
<g id="node5" class="node">
<title>Node5</title>
<g id="a_node5"><a xlink:href="RegAllocGreedy_8cpp.html" target="_top" xlink:title=" ">
<polygon fill="none" stroke="black" points="544,-0.5 544,-19.5 720,-19.5 720,-0.5 544,-0.5"/>
<text text-anchor="middle" x="632" y="-7.5" font-family="Helvetica,sans-Serif" font-size="10.00">lib/CodeGen/RegAllocGreedy.cpp</text>
</a>
</g>
</g>
<!-- Node1&#45;&gt;Node5 -->
<g id="edge4" class="edge">
<title>Node1&#45;&gt;Node5</title>
<path fill="none" stroke="midnightblue" d="M496.73,-53.36C532.08,-42.29 576.54,-28.37 604.63,-19.57"/>
<polygon fill="midnightblue" stroke="midnightblue" points="495.52,-50.07 487.03,-56.4 497.62,-56.75 495.52,-50.07"/>
</g>
<!-- Node6 -->
<g id="node6" class="node">
<title>Node6</title>
<g id="a_node6"><a xlink:href="RegAllocPBQP_8cpp.html" target="_top" xlink:title=" ">
<polygon fill="none" stroke="black" points="738.5,-0.5 738.5,-19.5 905.5,-19.5 905.5,-0.5 738.5,-0.5"/>
<text text-anchor="middle" x="822" y="-7.5" font-family="Helvetica,sans-Serif" font-size="10.00">lib/CodeGen/RegAllocPBQP.cpp</text>
</a>
</g>
</g>
<!-- Node1&#45;&gt;Node6 -->
<g id="edge5" class="edge">
<title>Node1&#45;&gt;Node6</title>
<path fill="none" stroke="midnightblue" d="M514.48,-59.15C588.31,-47.59 701.15,-29.92 767.65,-19.51"/>
<polygon fill="midnightblue" stroke="midnightblue" points="513.66,-55.74 504.32,-60.74 514.74,-62.65 513.66,-55.74"/>
</g>
</g>
</svg>
