<?xml version="1.0" encoding="UTF-8" standalone="no"?>
<!DOCTYPE svg PUBLIC "-//W3C//DTD SVG 1.1//EN"
 "http://www.w3.org/Graphics/SVG/1.1/DTD/svg11.dtd">
<!-- Generated by graphviz version 2.42.4 (0)
 -->
<!-- Title: llvm::wasm::WasmInitExpr Pages: 1 -->
<svg width="464pt" height="106pt"
 viewBox="0.00 0.00 464.00 106.00" xmlns="http://www.w3.org/2000/svg" xmlns:xlink="http://www.w3.org/1999/xlink">
<g id="graph0" class="graph" transform="scale(1 1) rotate(0) translate(4 102)">
<title>llvm::wasm::WasmInitExpr</title>
<!-- Node1 -->
<g id="node1" class="node">
<title>Node1</title>
<g id="a_node1"><a xlink:title=" ">
<polygon fill="#bfbfbf" stroke="black" points="181.5,-0.5 181.5,-19.5 328.5,-19.5 328.5,-0.5 181.5,-0.5"/>
<text text-anchor="middle" x="255" y="-7.5" font-family="Helvetica,sans-Serif" font-size="10.00">llvm::wasm::WasmInitExpr</text>
</a>
</g>
</g>
<!-- Node2 -->
<g id="node2" class="node">
<title>Node2</title>
<g id="a_node2"><a xlink:title=" ">
<polygon fill="none" stroke="#bfbfbf" points="0,-78.5 0,-97.5 104,-97.5 104,-78.5 0,-78.5"/>
<text text-anchor="middle" x="52" y="-85.5" font-family="Helvetica,sans-Serif" font-size="10.00">anonymous:Value</text>
</a>
</g>
</g>
<!-- Node2&#45;&gt;Node1 -->
<g id="edge1" class="edge">
<title>Node2&#45;&gt;Node1</title>
<path fill="none" stroke="#9a32cd" stroke-dasharray="5,2" d="M71.02,-72.39C86.21,-61.4 108.46,-46.77 130,-38 150.56,-29.62 174.13,-23.67 195.23,-19.53"/>
<polygon fill="#9a32cd" stroke="#9a32cd" points="68.9,-69.6 62.95,-78.37 73.07,-75.23 68.9,-69.6"/>
<text text-anchor="middle" x="145.5" y="-46.5" font-family="Helvetica,sans-Serif" font-size="10.00"> Value</text>
</g>
<!-- Node3 -->
<g id="node3" class="node">
<title>Node3</title>
<g id="a_node3"><a xlink:title=" ">
<polygon fill="none" stroke="#bfbfbf" points="122,-78.5 122,-97.5 178,-97.5 178,-78.5 122,-78.5"/>
<text text-anchor="middle" x="150" y="-85.5" font-family="Helvetica,sans-Serif" font-size="10.00">uint64_t</text>
</a>
</g>
</g>
<!-- Node3&#45;&gt;Node1 -->
<g id="edge2" class="edge">
<title>Node3&#45;&gt;Node1</title>
<path fill="none" stroke="#9a32cd" stroke-dasharray="5,2" d="M159.62,-69.23C165.96,-58.93 175.09,-46.38 186,-38 196.71,-29.77 210.24,-23.75 222.48,-19.51"/>
<polygon fill="#9a32cd" stroke="#9a32cd" points="156.41,-67.8 154.43,-78.21 162.47,-71.3 156.41,-67.8"/>
<text text-anchor="middle" x="206" y="-46.5" font-family="Helvetica,sans-Serif" font-size="10.00"> Float64</text>
</g>
<!-- Node4 -->
<g id="node4" class="node">
<title>Node4</title>
<g id="a_node4"><a xlink:title=" ">
<polygon fill="none" stroke="#bfbfbf" points="196,-78.5 196,-97.5 246,-97.5 246,-78.5 196,-78.5"/>
<text text-anchor="middle" x="221" y="-85.5" font-family="Helvetica,sans-Serif" font-size="10.00">int64_t</text>
</a>
</g>
</g>
<!-- Node4&#45;&gt;Node1 -->
<g id="edge3" class="edge">
<title>Node4&#45;&gt;Node1</title>
<path fill="none" stroke="#9a32cd" stroke-dasharray="5,2" d="M226.83,-68.7C230.03,-59.35 234.3,-47.88 239,-38 241.99,-31.7 245.99,-24.95 249.24,-19.78"/>
<polygon fill="#9a32cd" stroke="#9a32cd" points="223.41,-67.89 223.6,-78.49 230.06,-70.09 223.41,-67.89"/>
<text text-anchor="middle" x="253" y="-46.5" font-family="Helvetica,sans-Serif" font-size="10.00"> Int64</text>
</g>
<!-- Node5 -->
<g id="node5" class="node">
<title>Node5</title>
<g id="a_node5"><a xlink:title=" ">
<polygon fill="none" stroke="#bfbfbf" points="264,-78.5 264,-97.5 314,-97.5 314,-78.5 264,-78.5"/>
<text text-anchor="middle" x="289" y="-85.5" font-family="Helvetica,sans-Serif" font-size="10.00">int32_t</text>
</a>
</g>
</g>
<!-- Node5&#45;&gt;Node1 -->
<g id="edge4" class="edge">
<title>Node5&#45;&gt;Node1</title>
<path fill="none" stroke="#9a32cd" stroke-dasharray="5,2" d="M281,-69.12C274.03,-53.53 264.21,-31.59 258.85,-19.62"/>
<polygon fill="#9a32cd" stroke="#9a32cd" points="277.82,-70.58 285.1,-78.28 284.21,-67.72 277.82,-70.58"/>
<text text-anchor="middle" x="290" y="-46.5" font-family="Helvetica,sans-Serif" font-size="10.00"> Int32</text>
</g>
<!-- Node6 -->
<g id="node6" class="node">
<title>Node6</title>
<g id="a_node6"><a xlink:href="classuint32__t.html" target="_top" xlink:title=" ">
<polygon fill="none" stroke="black" points="332,-78.5 332,-97.5 388,-97.5 388,-78.5 332,-78.5"/>
<text text-anchor="middle" x="360" y="-85.5" font-family="Helvetica,sans-Serif" font-size="10.00">uint32_t</text>
</a>
</g>
</g>
<!-- Node6&#45;&gt;Node1 -->
<g id="edge5" class="edge">
<title>Node6&#45;&gt;Node1</title>
<path fill="none" stroke="#9a32cd" stroke-dasharray="5,2" d="M345.12,-70.77C335.23,-60.57 321.61,-47.58 308,-38 297.78,-30.81 285.38,-24.38 275.15,-19.61"/>
<polygon fill="#9a32cd" stroke="#9a32cd" points="342.76,-73.37 352.18,-78.24 347.85,-68.57 342.76,-73.37"/>
<text text-anchor="middle" x="353" y="-52" font-family="Helvetica,sans-Serif" font-size="10.00"> Float32</text>
<text text-anchor="middle" x="353" y="-41" font-family="Helvetica,sans-Serif" font-size="10.00">Global</text>
</g>
<!-- Node7 -->
<g id="node7" class="node">
<title>Node7</title>
<g id="a_node7"><a xlink:title=" ">
<polygon fill="none" stroke="#bfbfbf" points="406,-78.5 406,-97.5 456,-97.5 456,-78.5 406,-78.5"/>
<text text-anchor="middle" x="431" y="-85.5" font-family="Helvetica,sans-Serif" font-size="10.00">uint8_t</text>
</a>
</g>
</g>
<!-- Node7&#45;&gt;Node1 -->
<g id="edge6" class="edge">
<title>Node7&#45;&gt;Node1</title>
<path fill="none" stroke="#9a32cd" stroke-dasharray="5,2" d="M417.19,-70.64C407.13,-59.77 392.59,-46.06 377,-38 360.43,-29.43 341.22,-23.57 323.02,-19.57"/>
<polygon fill="#9a32cd" stroke="#9a32cd" points="414.7,-73.1 423.95,-78.25 419.93,-68.45 414.7,-73.1"/>
<text text-anchor="middle" x="425" y="-46.5" font-family="Helvetica,sans-Serif" font-size="10.00"> Opcode</text>
</g>
</g>
</svg>
