<?xml version="1.0" encoding="UTF-8" standalone="no"?>
<!DOCTYPE svg PUBLIC "-//W3C//DTD SVG 1.1//EN"
 "http://www.w3.org/Graphics/SVG/1.1/DTD/svg11.dtd">
<!-- Generated by graphviz version 2.42.4 (0)
 -->
<!-- Title: llvm::DWARFYAML::RnglistEntry Pages: 1 -->
<svg width="242pt" height="106pt"
 viewBox="0.00 0.00 242.00 106.00" xmlns="http://www.w3.org/2000/svg" xmlns:xlink="http://www.w3.org/1999/xlink">
<g id="graph0" class="graph" transform="scale(1 1) rotate(0) translate(4 102)">
<title>llvm::DWARFYAML::RnglistEntry</title>
<!-- Node1 -->
<g id="node1" class="node">
<title>Node1</title>
<g id="a_node1"><a xlink:title=" ">
<polygon fill="#bfbfbf" stroke="black" points="56,-0.5 56,-30.5 202,-30.5 202,-0.5 56,-0.5"/>
<text text-anchor="start" x="64" y="-18.5" font-family="Helvetica,sans-Serif" font-size="10.00">llvm::DWARFYAML::Rnglist</text>
<text text-anchor="middle" x="129" y="-7.5" font-family="Helvetica,sans-Serif" font-size="10.00">Entry</text>
</a>
</g>
</g>
<!-- Node2 -->
<g id="node2" class="node">
<title>Node2</title>
<g id="a_node2"><a xlink:title=" ">
<polygon fill="none" stroke="#bfbfbf" points="0,-78.5 0,-97.5 132,-97.5 132,-78.5 0,-78.5"/>
<text text-anchor="middle" x="66" y="-85.5" font-family="Helvetica,sans-Serif" font-size="10.00">vector&lt; yaml::Hex64 &gt;</text>
</a>
</g>
</g>
<!-- Node2&#45;&gt;Node1 -->
<g id="edge1" class="edge">
<title>Node2&#45;&gt;Node1</title>
<path fill="none" stroke="#9a32cd" stroke-dasharray="5,2" d="M80.53,-70.74C91.38,-58.6 106.07,-42.16 116.42,-30.58"/>
<polygon fill="#9a32cd" stroke="#9a32cd" points="77.78,-68.57 73.73,-78.36 83,-73.23 77.78,-68.57"/>
<text text-anchor="middle" x="118" y="-52" font-family="Helvetica,sans-Serif" font-size="10.00"> Values</text>
</g>
<!-- Node3 -->
<g id="node3" class="node">
<title>Node3</title>
<g id="a_node3"><a xlink:title=" ">
<polygon fill="none" stroke="#bfbfbf" points="150,-78.5 150,-97.5 234,-97.5 234,-78.5 150,-78.5"/>
<text text-anchor="middle" x="192" y="-85.5" font-family="Helvetica,sans-Serif" font-size="10.00">RnglistEntries</text>
</a>
</g>
</g>
<!-- Node3&#45;&gt;Node1 -->
<g id="edge2" class="edge">
<title>Node3&#45;&gt;Node1</title>
<path fill="none" stroke="#9a32cd" stroke-dasharray="5,2" d="M177.47,-70.74C166.62,-58.6 151.93,-42.16 141.58,-30.58"/>
<polygon fill="#9a32cd" stroke="#9a32cd" points="175,-73.23 184.27,-78.36 180.22,-68.57 175,-73.23"/>
<text text-anchor="middle" x="189" y="-52" font-family="Helvetica,sans-Serif" font-size="10.00"> Operator</text>
</g>
</g>
</svg>
