<?xml version="1.0" encoding="UTF-8" standalone="no"?>
<!DOCTYPE svg PUBLIC "-//W3C//DTD SVG 1.1//EN"
 "http://www.w3.org/Graphics/SVG/1.1/DTD/svg11.dtd">
<!-- Generated by graphviz version 2.42.4 (0)
 -->
<!-- Title: llvm::GCOV::Options Pages: 1 -->
<svg width="193pt" height="205pt"
 viewBox="0.00 0.00 193.00 205.00" xmlns="http://www.w3.org/2000/svg" xmlns:xlink="http://www.w3.org/1999/xlink">
<g id="graph0" class="graph" transform="scale(1 1) rotate(0) translate(4 201)">
<title>llvm::GCOV::Options</title>
<!-- Node1 -->
<g id="node1" class="node">
<title>Node1</title>
<g id="a_node1"><a xlink:title="A struct for passing gcov options between functions.">
<polygon fill="#bfbfbf" stroke="black" points="7,-0.5 7,-19.5 123,-19.5 123,-0.5 7,-0.5"/>
<text text-anchor="middle" x="65" y="-7.5" font-family="Helvetica,sans-Serif" font-size="10.00">llvm::GCOV::Options</text>
</a>
</g>
</g>
<!-- Node2 -->
<g id="node2" class="node">
<title>Node2</title>
<g id="a_node2"><a xlink:title=" ">
<polygon fill="none" stroke="#bfbfbf" points="0,-177.5 0,-196.5 44,-196.5 44,-177.5 0,-177.5"/>
<text text-anchor="middle" x="22" y="-184.5" font-family="Helvetica,sans-Serif" font-size="10.00">string</text>
</a>
</g>
</g>
<!-- Node2&#45;&gt;Node1 -->
<g id="edge1" class="edge">
<title>Node2&#45;&gt;Node1</title>
<path fill="none" stroke="#9a32cd" stroke-dasharray="5,2" d="M16.83,-167.5C9.71,-138.03 0.15,-79.52 23,-38 27.43,-29.95 35.39,-23.94 43.2,-19.66"/>
<polygon fill="#9a32cd" stroke="#9a32cd" points="13.47,-168.48 19.37,-177.28 20.25,-166.72 13.47,-168.48"/>
<text text-anchor="middle" x="55" y="-96" font-family="Helvetica,sans-Serif" font-size="10.00"> SourcePrefix</text>
</g>
<!-- Node3 -->
<g id="node3" class="node">
<title>Node3</title>
<g id="a_node3"><a xlink:title=" ">
<polygon fill="none" stroke="#bfbfbf" points="90,-177.5 90,-196.5 128,-196.5 128,-177.5 90,-177.5"/>
<text text-anchor="middle" x="109" y="-184.5" font-family="Helvetica,sans-Serif" font-size="10.00">bool</text>
</a>
</g>
</g>
<!-- Node3&#45;&gt;Node1 -->
<g id="edge2" class="edge">
<title>Node3&#45;&gt;Node1</title>
<path fill="none" stroke="#9a32cd" stroke-dasharray="5,2" d="M109.33,-166.86C109.15,-137.77 106.08,-81.24 87,-38 83.97,-31.14 78.72,-24.59 74.1,-19.66"/>
<polygon fill="#9a32cd" stroke="#9a32cd" points="105.83,-167.2 109.28,-177.22 112.83,-167.24 105.83,-167.2"/>
<text text-anchor="middle" x="147" y="-151" font-family="Helvetica,sans-Serif" font-size="10.00"> AllBlocks</text>
<text text-anchor="middle" x="147" y="-140" font-family="Helvetica,sans-Serif" font-size="10.00">BranchCount</text>
<text text-anchor="middle" x="147" y="-129" font-family="Helvetica,sans-Serif" font-size="10.00">BranchInfo</text>
<text text-anchor="middle" x="147" y="-118" font-family="Helvetica,sans-Serif" font-size="10.00">Demangle</text>
<text text-anchor="middle" x="147" y="-107" font-family="Helvetica,sans-Serif" font-size="10.00">FuncCoverage</text>
<text text-anchor="middle" x="147" y="-96" font-family="Helvetica,sans-Serif" font-size="10.00">HashFilenames</text>
<text text-anchor="middle" x="147" y="-85" font-family="Helvetica,sans-Serif" font-size="10.00">Intermediate</text>
<text text-anchor="middle" x="147" y="-74" font-family="Helvetica,sans-Serif" font-size="10.00">LongFileNames</text>
<text text-anchor="middle" x="147" y="-63" font-family="Helvetica,sans-Serif" font-size="10.00">NoOutput</text>
<text text-anchor="middle" x="147" y="-52" font-family="Helvetica,sans-Serif" font-size="10.00">PreservePaths</text>
<text text-anchor="middle" x="147" y="-41" font-family="Helvetica,sans-Serif" font-size="10.00">...</text>
</g>
</g>
</svg>
