<?xml version="1.0" encoding="UTF-8" standalone="no"?>
<!DOCTYPE svg PUBLIC "-//W3C//DTD SVG 1.1//EN"
 "http://www.w3.org/Graphics/SVG/1.1/DTD/svg11.dtd">
<!-- Generated by graphviz version 2.42.4 (0)
 -->
<!-- Title: AAReturnedValuesFunction Pages: 1 -->
<svg width="417pt" height="534pt"
 viewBox="0.00 0.00 417.00 534.00" xmlns="http://www.w3.org/2000/svg" xmlns:xlink="http://www.w3.org/1999/xlink">
<g id="graph0" class="graph" transform="scale(1 1) rotate(0) translate(4 530)">
<title>AAReturnedValuesFunction</title>
<!-- Node1 -->
<g id="node1" class="node">
<title>Node1</title>
<g id="a_node1"><a xlink:title=" ">
<polygon fill="#bfbfbf" stroke="black" points="63,-0.5 63,-19.5 211,-19.5 211,-0.5 63,-0.5"/>
<text text-anchor="middle" x="137" y="-7.5" font-family="Helvetica,sans-Serif" font-size="10.00">AAReturnedValuesFunction</text>
</a>
</g>
</g>
<!-- Node2 -->
<g id="node2" class="node">
<title>Node2</title>
<g id="a_node2"><a xlink:href="classAAReturnedValuesImpl.html" target="_top" xlink:title="&#45;&#45;&#45;&#45;&#45;&#45;&#45;&#45;&#45;&#45;&#45;&#45;&#45;&#45;&#45;&#45;&#45;&#45;— Function Return Values &#45;&#45;&#45;&#45;&#45;&#45;&#45;&#45;&#45;&#45;&#45;&#45;&#45;&#45;&#45;&#45;&#45;&#45;&#45;&#45;&#45;&#45;&#45;&#45;&#45;&#45;&#45;&#45;—">
<polygon fill="none" stroke="black" points="73,-57.5 73,-76.5 201,-76.5 201,-57.5 73,-57.5"/>
<text text-anchor="middle" x="137" y="-64.5" font-family="Helvetica,sans-Serif" font-size="10.00">AAReturnedValuesImpl</text>
</a>
</g>
</g>
<!-- Node2&#45;&gt;Node1 -->
<g id="edge1" class="edge">
<title>Node2&#45;&gt;Node1</title>
<path fill="none" stroke="midnightblue" d="M137,-47.12C137,-37.82 137,-27.06 137,-19.71"/>
<polygon fill="midnightblue" stroke="midnightblue" points="133.5,-47.41 137,-57.41 140.5,-47.41 133.5,-47.41"/>
</g>
<!-- Node3 -->
<g id="node3" class="node">
<title>Node3</title>
<g id="a_node3"><a xlink:href="structllvm_1_1AAReturnedValues.html" target="_top" xlink:title="An abstract attribute for the returned values of a function.">
<polygon fill="none" stroke="black" points="0,-114.5 0,-133.5 134,-133.5 134,-114.5 0,-114.5"/>
<text text-anchor="middle" x="67" y="-121.5" font-family="Helvetica,sans-Serif" font-size="10.00">llvm::AAReturnedValues</text>
</a>
</g>
</g>
<!-- Node3&#45;&gt;Node2 -->
<g id="edge2" class="edge">
<title>Node3&#45;&gt;Node2</title>
<path fill="none" stroke="midnightblue" d="M86.09,-108C98.87,-97.96 115.23,-85.1 125.91,-76.71"/>
<polygon fill="midnightblue" stroke="midnightblue" points="83.64,-105.48 77.94,-114.41 87.96,-110.98 83.64,-105.48"/>
</g>
<!-- Node4 -->
<g id="node4" class="node">
<title>Node4</title>
<g id="a_node4"><a xlink:href="structllvm_1_1IRAttribute.html" target="_top" xlink:title=" ">
<polygon fill="none" stroke="black" points="138,-171.5 138,-212.5 254,-212.5 254,-171.5 138,-171.5"/>
<text text-anchor="start" x="146" y="-200.5" font-family="Helvetica,sans-Serif" font-size="10.00">llvm::IRAttribute&lt;</text>
<text text-anchor="start" x="146" y="-189.5" font-family="Helvetica,sans-Serif" font-size="10.00"> Attribute::Returned,</text>
<text text-anchor="middle" x="196" y="-178.5" font-family="Helvetica,sans-Serif" font-size="10.00"> AbstractAttribute &gt;</text>
</a>
</g>
</g>
<!-- Node4&#45;&gt;Node3 -->
<g id="edge3" class="edge">
<title>Node4&#45;&gt;Node3</title>
<path fill="none" stroke="midnightblue" d="M148.51,-166.7C125.91,-155.14 100.31,-142.04 83.93,-133.66"/>
<polygon fill="midnightblue" stroke="midnightblue" points="147.15,-169.94 157.65,-171.38 150.34,-163.71 147.15,-169.94"/>
</g>
<!-- Node5 -->
<g id="node5" class="node">
<title>Node5</title>
<g id="a_node5"><a xlink:href="structllvm_1_1AbstractAttribute.html" target="_top" xlink:title="Base struct for all &quot;concrete attribute&quot; deductions.">
<polygon fill="none" stroke="black" points="132,-277 132,-296 260,-296 260,-277 132,-277"/>
<text text-anchor="middle" x="196" y="-284" font-family="Helvetica,sans-Serif" font-size="10.00">llvm::AbstractAttribute</text>
</a>
</g>
</g>
<!-- Node5&#45;&gt;Node4 -->
<g id="edge4" class="edge">
<title>Node5&#45;&gt;Node4</title>
<path fill="none" stroke="midnightblue" d="M196,-266.91C196,-251.22 196,-228.81 196,-212.79"/>
<polygon fill="midnightblue" stroke="midnightblue" points="192.5,-266.96 196,-276.96 199.5,-266.96 192.5,-266.96"/>
</g>
<!-- Node6 -->
<g id="node6" class="node">
<title>Node6</title>
<g id="a_node6"><a xlink:href="structllvm_1_1IRPosition.html" target="_top" xlink:title="Helper to describe and deal with positions in the LLVM&#45;IR.">
<polygon fill="none" stroke="black" points="83.5,-339.5 83.5,-358.5 176.5,-358.5 176.5,-339.5 83.5,-339.5"/>
<text text-anchor="middle" x="130" y="-346.5" font-family="Helvetica,sans-Serif" font-size="10.00">llvm::IRPosition</text>
</a>
</g>
</g>
<!-- Node6&#45;&gt;Node5 -->
<g id="edge5" class="edge">
<title>Node6&#45;&gt;Node5</title>
<path fill="none" stroke="midnightblue" d="M147.03,-332.39C159.61,-320.86 176.28,-305.58 186.56,-296.15"/>
<polygon fill="midnightblue" stroke="midnightblue" points="144.46,-329.99 139.46,-339.33 149.19,-335.15 144.46,-329.99"/>
</g>
<!-- Node7 -->
<g id="node7" class="node">
<title>Node7</title>
<g id="a_node7"><a xlink:title=" ">
<polygon fill="none" stroke="#bfbfbf" points="60.5,-423 60.5,-442 103.5,-442 103.5,-423 60.5,-423"/>
<text text-anchor="middle" x="82" y="-430" font-family="Helvetica,sans-Serif" font-size="10.00">const</text>
</a>
</g>
</g>
<!-- Node7&#45;&gt;Node3 -->
<g id="edge12" class="edge">
<title>Node7&#45;&gt;Node3</title>
<path fill="none" stroke="#9a32cd" stroke-dasharray="5,2" d="M72.34,-413.48C64.59,-397.33 55,-372.74 55,-350 55,-350 55,-350 55,-191 55,-170.27 60.8,-146.46 64.34,-133.87"/>
<polygon fill="#9a32cd" stroke="#9a32cd" points="69.41,-415.43 77.05,-422.77 75.65,-412.27 69.41,-415.43"/>
<text text-anchor="middle" x="62" y="-284" font-family="Helvetica,sans-Serif" font-size="10.00"> ID</text>
</g>
<!-- Node7&#45;&gt;Node6 -->
<g id="edge6" class="edge">
<title>Node7&#45;&gt;Node6</title>
<path fill="none" stroke="#9a32cd" stroke-dasharray="5,2" d="M92.41,-413.83C102.44,-396.79 117.2,-371.73 124.9,-358.66"/>
<polygon fill="#9a32cd" stroke="#9a32cd" points="89.2,-412.39 87.14,-422.78 95.23,-415.94 89.2,-412.39"/>
<text text-anchor="middle" x="150" y="-391" font-family="Helvetica,sans-Serif" font-size="10.00"> EmptyKey</text>
<text text-anchor="middle" x="150" y="-380" font-family="Helvetica,sans-Serif" font-size="10.00">TombstoneKey</text>
</g>
<!-- Node8 -->
<g id="node8" class="node">
<title>Node8</title>
<g id="a_node8"><a xlink:href="structllvm_1_1AADepGraphNode.html" target="_top" xlink:title="}">
<polygon fill="none" stroke="black" points="195,-339.5 195,-358.5 327,-358.5 327,-339.5 195,-339.5"/>
<text text-anchor="middle" x="261" y="-346.5" font-family="Helvetica,sans-Serif" font-size="10.00">llvm::AADepGraphNode</text>
</a>
</g>
</g>
<!-- Node8&#45;&gt;Node5 -->
<g id="edge7" class="edge">
<title>Node8&#45;&gt;Node5</title>
<path fill="none" stroke="midnightblue" d="M244.23,-332.39C231.84,-320.86 215.42,-305.58 205.3,-296.15"/>
<polygon fill="midnightblue" stroke="midnightblue" points="241.98,-335.08 251.69,-339.33 246.75,-329.96 241.98,-335.08"/>
</g>
<!-- Node9 -->
<g id="node9" class="node">
<title>Node9</title>
<g id="a_node9"><a xlink:href="classllvm_1_1TinyPtrVector.html" target="_top" xlink:title=" ">
<polygon fill="none" stroke="black" points="195,-417.5 195,-447.5 327,-447.5 327,-417.5 195,-417.5"/>
<text text-anchor="start" x="203" y="-435.5" font-family="Helvetica,sans-Serif" font-size="10.00">llvm::TinyPtrVector</text>
<text text-anchor="middle" x="261" y="-424.5" font-family="Helvetica,sans-Serif" font-size="10.00">&lt; llvm::PointerIntPair &gt;</text>
</a>
</g>
</g>
<!-- Node9&#45;&gt;Node8 -->
<g id="edge8" class="edge">
<title>Node9&#45;&gt;Node8</title>
<path fill="none" stroke="#9a32cd" stroke-dasharray="5,2" d="M261,-407.25C261,-390.78 261,-369.99 261,-358.54"/>
<polygon fill="#9a32cd" stroke="#9a32cd" points="257.5,-407.3 261,-417.3 264.5,-407.3 257.5,-407.3"/>
<text text-anchor="middle" x="275" y="-385.5" font-family="Helvetica,sans-Serif" font-size="10.00"> Deps</text>
</g>
<!-- Node10 -->
<g id="node10" class="node">
<title>Node10</title>
<g id="a_node10"><a xlink:href="classllvm_1_1TinyPtrVector.html" target="_top" xlink:title="TinyPtrVector &#45; This class is specialized for cases where there are normally 0 or 1 element in a vect...">
<polygon fill="none" stroke="black" points="206,-495.5 206,-525.5 316,-525.5 316,-495.5 206,-495.5"/>
<text text-anchor="start" x="214" y="-513.5" font-family="Helvetica,sans-Serif" font-size="10.00">llvm::TinyPtrVector</text>
<text text-anchor="middle" x="261" y="-502.5" font-family="Helvetica,sans-Serif" font-size="10.00">&lt; EltTy &gt;</text>
</a>
</g>
</g>
<!-- Node10&#45;&gt;Node9 -->
<g id="edge9" class="edge">
<title>Node10&#45;&gt;Node9</title>
<path fill="none" stroke="orange" stroke-dasharray="5,2" d="M261,-485.09C261,-472.76 261,-458.22 261,-447.73"/>
<polygon fill="orange" stroke="orange" points="257.5,-485.2 261,-495.2 264.5,-485.21 257.5,-485.2"/>
<text text-anchor="middle" x="320.5" y="-469" font-family="Helvetica,sans-Serif" font-size="10.00"> &lt; llvm::PointerIntPair &gt;</text>
</g>
<!-- Node11 -->
<g id="node11" class="node">
<title>Node11</title>
<g id="a_node11"><a xlink:href="structllvm_1_1IRAttribute.html" target="_top" xlink:title="Helper class that provides common functionality to manifest IR attributes.">
<polygon fill="none" stroke="black" points="301.5,-271.5 301.5,-301.5 406.5,-301.5 406.5,-271.5 301.5,-271.5"/>
<text text-anchor="start" x="309.5" y="-289.5" font-family="Helvetica,sans-Serif" font-size="10.00">llvm::IRAttribute&lt;</text>
<text text-anchor="middle" x="354" y="-278.5" font-family="Helvetica,sans-Serif" font-size="10.00"> AK, BaseType &gt;</text>
</a>
</g>
</g>
<!-- Node11&#45;&gt;Node4 -->
<g id="edge10" class="edge">
<title>Node11&#45;&gt;Node4</title>
<path fill="none" stroke="orange" stroke-dasharray="5,2" d="M321.33,-266.38C294.42,-250.62 256.42,-228.37 229.33,-212.51"/>
<polygon fill="orange" stroke="orange" points="319.61,-269.42 330,-271.45 323.14,-263.38 319.61,-269.42"/>
<text text-anchor="start" x="298" y="-245" font-family="Helvetica,sans-Serif" font-size="10.00"> &lt; Attribute::Returned,</text>
<text text-anchor="middle" x="353.5" y="-234" font-family="Helvetica,sans-Serif" font-size="10.00"> AbstractAttribute &gt;</text>
</g>
<!-- Node12 -->
<g id="node12" class="node">
<title>Node12</title>
<g id="a_node12"><a xlink:href="classBaseType.html" target="_top" xlink:title=" ">
<polygon fill="none" stroke="black" points="345.5,-339.5 345.5,-358.5 408.5,-358.5 408.5,-339.5 345.5,-339.5"/>
<text text-anchor="middle" x="377" y="-346.5" font-family="Helvetica,sans-Serif" font-size="10.00">BaseType</text>
</a>
</g>
</g>
<!-- Node12&#45;&gt;Node11 -->
<g id="edge11" class="edge">
<title>Node12&#45;&gt;Node11</title>
<path fill="none" stroke="midnightblue" d="M370.08,-329.8C366.67,-320.82 362.61,-310.14 359.42,-301.76"/>
<polygon fill="midnightblue" stroke="midnightblue" points="366.88,-331.23 373.7,-339.33 373.42,-328.74 366.88,-331.23"/>
</g>
<!-- Node13 -->
<g id="node13" class="node">
<title>Node13</title>
<g id="a_node13"><a xlink:href="structllvm_1_1AbstractState.html" target="_top" xlink:title="An interface to query the internal state of an abstract attribute.">
<polygon fill="none" stroke="black" points="152,-114.5 152,-133.5 262,-133.5 262,-114.5 152,-114.5"/>
<text text-anchor="middle" x="207" y="-121.5" font-family="Helvetica,sans-Serif" font-size="10.00">llvm::AbstractState</text>
</a>
</g>
</g>
<!-- Node13&#45;&gt;Node2 -->
<g id="edge13" class="edge">
<title>Node13&#45;&gt;Node2</title>
<path fill="none" stroke="midnightblue" d="M187.91,-108C175.13,-97.96 158.77,-85.1 148.09,-76.71"/>
<polygon fill="midnightblue" stroke="midnightblue" points="186.04,-110.98 196.06,-114.41 190.36,-105.48 186.04,-110.98"/>
</g>
</g>
</svg>
