<?xml version="1.0" encoding="UTF-8" standalone="no"?>
<!DOCTYPE svg PUBLIC "-//W3C//DTD SVG 1.1//EN"
 "http://www.w3.org/Graphics/SVG/1.1/DTD/svg11.dtd">
<!-- Generated by graphviz version 2.42.4 (0)
 -->
<!-- Title: llvm::ELFYAML::LinkerOption Pages: 1 -->
<svg width="163pt" height="173pt"
 viewBox="0.00 0.00 163.00 173.00" xmlns="http://www.w3.org/2000/svg" xmlns:xlink="http://www.w3.org/1999/xlink">
<g id="graph0" class="graph" transform="scale(1 1) rotate(0) translate(4 169)">
<title>llvm::ELFYAML::LinkerOption</title>
<!-- Node1 -->
<g id="node1" class="node">
<title>Node1</title>
<g id="a_node1"><a xlink:title=" ">
<polygon fill="#bfbfbf" stroke="black" points="0,-0.5 0,-19.5 155,-19.5 155,-0.5 0,-0.5"/>
<text text-anchor="middle" x="77.5" y="-7.5" font-family="Helvetica,sans-Serif" font-size="10.00">llvm::ELFYAML::LinkerOption</text>
</a>
</g>
</g>
<!-- Node2 -->
<g id="node2" class="node">
<title>Node2</title>
<g id="a_node2"><a xlink:href="classllvm_1_1StringRef.html" target="_top" xlink:title="StringRef &#45; Represent a constant reference to a string, i.e.">
<polygon fill="none" stroke="black" points="33,-78.5 33,-97.5 122,-97.5 122,-78.5 33,-78.5"/>
<text text-anchor="middle" x="77.5" y="-85.5" font-family="Helvetica,sans-Serif" font-size="10.00">llvm::StringRef</text>
</a>
</g>
</g>
<!-- Node2&#45;&gt;Node1 -->
<g id="edge1" class="edge">
<title>Node2&#45;&gt;Node1</title>
<path fill="none" stroke="#9a32cd" stroke-dasharray="5,2" d="M77.5,-68.22C77.5,-52.7 77.5,-31.36 77.5,-19.62"/>
<polygon fill="#9a32cd" stroke="#9a32cd" points="74,-68.28 77.5,-78.28 81,-68.28 74,-68.28"/>
<text text-anchor="middle" x="91.5" y="-52" font-family="Helvetica,sans-Serif" font-size="10.00"> Key</text>
<text text-anchor="middle" x="91.5" y="-41" font-family="Helvetica,sans-Serif" font-size="10.00">Value</text>
</g>
<!-- Node3 -->
<g id="node3" class="node">
<title>Node3</title>
<g id="a_node3"><a xlink:href="classsize__t.html" target="_top" xlink:title=" ">
<polygon fill="none" stroke="black" points="55,-145.5 55,-164.5 100,-164.5 100,-145.5 55,-145.5"/>
<text text-anchor="middle" x="77.5" y="-152.5" font-family="Helvetica,sans-Serif" font-size="10.00">size_t</text>
</a>
</g>
</g>
<!-- Node3&#45;&gt;Node2 -->
<g id="edge2" class="edge">
<title>Node3&#45;&gt;Node2</title>
<path fill="none" stroke="#9a32cd" stroke-dasharray="5,2" d="M77.5,-135.04C77.5,-122.67 77.5,-107.12 77.5,-97.63"/>
<polygon fill="#9a32cd" stroke="#9a32cd" points="74,-135.23 77.5,-145.23 81,-135.23 74,-135.23"/>
<text text-anchor="middle" x="91" y="-119" font-family="Helvetica,sans-Serif" font-size="10.00"> npos</text>
</g>
</g>
</svg>
