<?xml version="1.0" encoding="UTF-8" standalone="no"?>
<!DOCTYPE svg PUBLIC "-//W3C//DTD SVG 1.1//EN"
 "http://www.w3.org/Graphics/SVG/1.1/DTD/svg11.dtd">
<!-- Generated by graphviz version 2.42.4 (0)
 -->
<!-- Title: llvm::CHIArg Pages: 1 -->
<svg width="2027pt" height="376pt"
 viewBox="0.00 0.00 2027.00 375.52" xmlns="http://www.w3.org/2000/svg" xmlns:xlink="http://www.w3.org/1999/xlink">
<g id="graph0" class="graph" transform="scale(1 1) rotate(0) translate(4 371.52)">
<title>llvm::CHIArg</title>
<!-- Node1 -->
<g id="node1" class="node">
<title>Node1</title>
<g id="a_node1"><a xlink:title=" ">
<polygon fill="#bfbfbf" stroke="black" points="1941,-126 1941,-145 2019,-145 2019,-126 1941,-126"/>
<text text-anchor="middle" x="1980" y="-133" font-family="Helvetica,sans-Serif" font-size="10.00">llvm::CHIArg</text>
</a>
</g>
</g>
<!-- Node2 -->
<g id="node2" class="node">
<title>Node2</title>
<g id="a_node2"><a xlink:href="classllvm_1_1Instruction.html" target="_top" xlink:title=" ">
<polygon fill="none" stroke="black" points="1755,-88 1755,-107 1851,-107 1851,-88 1755,-88"/>
<text text-anchor="middle" x="1803" y="-95" font-family="Helvetica,sans-Serif" font-size="10.00">llvm::Instruction</text>
</a>
</g>
</g>
<!-- Node2&#45;&gt;Node1 -->
<g id="edge1" class="edge">
<title>Node2&#45;&gt;Node1</title>
<path fill="none" stroke="#9a32cd" stroke-dasharray="5,2" d="M1861.11,-107.69C1880.79,-111.42 1902.92,-115.88 1923,-120.5 1930.16,-122.15 1937.79,-124.08 1945.04,-125.99"/>
<polygon fill="#9a32cd" stroke="#9a32cd" points="1861.55,-104.21 1851.07,-105.8 1860.25,-111.09 1861.55,-104.21"/>
<text text-anchor="middle" x="1910" y="-123.5" font-family="Helvetica,sans-Serif" font-size="10.00"> I</text>
</g>
<!-- Node3 -->
<g id="node3" class="node">
<title>Node3</title>
<g id="a_node3"><a xlink:href="classllvm_1_1User.html" target="_top" xlink:title=" ">
<polygon fill="none" stroke="black" points="1596,-56 1596,-75 1663,-75 1663,-56 1596,-56"/>
<text text-anchor="middle" x="1629.5" y="-63" font-family="Helvetica,sans-Serif" font-size="10.00">llvm::User</text>
</a>
</g>
</g>
<!-- Node3&#45;&gt;Node2 -->
<g id="edge2" class="edge">
<title>Node3&#45;&gt;Node2</title>
<path fill="none" stroke="midnightblue" d="M1673.03,-73.43C1697.87,-78.07 1729.28,-83.93 1754.88,-88.71"/>
<polygon fill="midnightblue" stroke="midnightblue" points="1673.63,-69.99 1663.16,-71.59 1672.35,-76.87 1673.63,-69.99"/>
</g>
<!-- Node4 -->
<g id="node4" class="node">
<title>Node4</title>
<g id="a_node4"><a xlink:href="classllvm_1_1Value.html" target="_top" xlink:title="LLVM Value Representation.">
<polygon fill="none" stroke="black" points="1285,-122 1285,-141 1356,-141 1356,-122 1285,-122"/>
<text text-anchor="middle" x="1320.5" y="-129" font-family="Helvetica,sans-Serif" font-size="10.00">llvm::Value</text>
</a>
</g>
</g>
<!-- Node4&#45;&gt;Node3 -->
<g id="edge3" class="edge">
<title>Node4&#45;&gt;Node3</title>
<path fill="none" stroke="midnightblue" d="M1366.07,-121.92C1428.52,-108.49 1540.6,-84.4 1595.86,-72.52"/>
<polygon fill="midnightblue" stroke="midnightblue" points="1365.16,-118.53 1356.12,-124.06 1366.63,-125.38 1365.16,-118.53"/>
</g>
<!-- Node19 -->
<g id="node19" class="node">
<title>Node19</title>
<g id="a_node19"><a xlink:href="classllvm_1_1BasicBlock.html" target="_top" xlink:title="LLVM Basic Block Representation.">
<polygon fill="none" stroke="black" points="1754,-164 1754,-183 1852,-183 1852,-164 1754,-164"/>
<text text-anchor="middle" x="1803" y="-171" font-family="Helvetica,sans-Serif" font-size="10.00">llvm::BasicBlock</text>
</a>
</g>
</g>
<!-- Node4&#45;&gt;Node19 -->
<g id="edge24" class="edge">
<title>Node4&#45;&gt;Node19</title>
<path fill="none" stroke="midnightblue" d="M1366.26,-135.41C1456.73,-143.32 1660.69,-161.15 1753.89,-169.3"/>
<polygon fill="midnightblue" stroke="midnightblue" points="1366.32,-131.9 1356.06,-134.52 1365.71,-138.88 1366.32,-131.9"/>
</g>
<!-- Node5 -->
<g id="node5" class="node">
<title>Node5</title>
<g id="a_node5"><a xlink:title=" ">
<polygon fill="none" stroke="#bfbfbf" points="987,-156 987,-175 1030,-175 1030,-156 987,-156"/>
<text text-anchor="middle" x="1008.5" y="-163" font-family="Helvetica,sans-Serif" font-size="10.00">const</text>
</a>
</g>
</g>
<!-- Node5&#45;&gt;Node4 -->
<g id="edge4" class="edge">
<title>Node5&#45;&gt;Node4</title>
<path fill="none" stroke="#9a32cd" stroke-dasharray="5,2" d="M1040.42,-163.23C1082.64,-160 1160.69,-153.56 1227,-145.5 1246.19,-143.17 1267.52,-139.98 1284.86,-137.23"/>
<polygon fill="#9a32cd" stroke="#9a32cd" points="1039.94,-159.76 1030.24,-164 1040.47,-166.74 1039.94,-159.76"/>
<text text-anchor="middle" x="1166.5" y="-171.5" font-family="Helvetica,sans-Serif" font-size="10.00"> MaxAlignmentExponent</text>
<text text-anchor="middle" x="1166.5" y="-160.5" font-family="Helvetica,sans-Serif" font-size="10.00">MaximumAlignment</text>
</g>
<!-- Node6 -->
<g id="node6" class="node">
<title>Node6</title>
<g id="a_node6"><a xlink:title=" ">
<polygon fill="none" stroke="#bfbfbf" points="978,-61 978,-80 1039,-80 1039,-61 978,-61"/>
<text text-anchor="middle" x="1008.5" y="-68" font-family="Helvetica,sans-Serif" font-size="10.00">unsigned</text>
</a>
</g>
</g>
<!-- Node6&#45;&gt;Node4 -->
<g id="edge5" class="edge">
<title>Node6&#45;&gt;Node4</title>
<path fill="none" stroke="#9a32cd" stroke-dasharray="5,2" d="M1049.08,-61.64C1093.55,-53.44 1167.33,-45.16 1227,-64.5 1262.09,-75.87 1295.02,-106.09 1310.4,-121.76"/>
<polygon fill="#9a32cd" stroke="#9a32cd" points="1048.39,-58.2 1039.24,-63.54 1049.72,-65.08 1048.39,-58.2"/>
<text text-anchor="middle" x="1166.5" y="-133.5" font-family="Helvetica,sans-Serif" font-size="10.00"> HasDescriptor</text>
<text text-anchor="middle" x="1166.5" y="-122.5" font-family="Helvetica,sans-Serif" font-size="10.00">HasHungOffUses</text>
<text text-anchor="middle" x="1166.5" y="-111.5" font-family="Helvetica,sans-Serif" font-size="10.00">HasMetadata</text>
<text text-anchor="middle" x="1166.5" y="-100.5" font-family="Helvetica,sans-Serif" font-size="10.00">HasName</text>
<text text-anchor="middle" x="1166.5" y="-89.5" font-family="Helvetica,sans-Serif" font-size="10.00">IsUsedByMD</text>
<text text-anchor="middle" x="1166.5" y="-78.5" font-family="Helvetica,sans-Serif" font-size="10.00">NumUserOperands</text>
<text text-anchor="middle" x="1166.5" y="-67.5" font-family="Helvetica,sans-Serif" font-size="10.00">SubclassOptionalData</text>
</g>
<!-- Node7 -->
<g id="node7" class="node">
<title>Node7</title>
<g id="a_node7"><a xlink:href="classllvm_1_1ilist__node__with__parent.html" target="_top" xlink:title=" ">
<polygon fill="none" stroke="black" points="1570,-94 1570,-135 1689,-135 1689,-94 1570,-94"/>
<text text-anchor="start" x="1578" y="-123" font-family="Helvetica,sans-Serif" font-size="10.00">llvm::ilist_node_with</text>
<text text-anchor="start" x="1578" y="-112" font-family="Helvetica,sans-Serif" font-size="10.00">_parent&lt; Instruction,</text>
<text text-anchor="middle" x="1629.5" y="-101" font-family="Helvetica,sans-Serif" font-size="10.00"> BasicBlock &gt;</text>
</a>
</g>
</g>
<!-- Node7&#45;&gt;Node2 -->
<g id="edge6" class="edge">
<title>Node7&#45;&gt;Node2</title>
<path fill="none" stroke="midnightblue" d="M1699,-107.71C1717.71,-105.86 1737.56,-103.89 1754.79,-102.18"/>
<polygon fill="midnightblue" stroke="midnightblue" points="1698.65,-104.23 1689.04,-108.7 1699.34,-111.19 1698.65,-104.23"/>
</g>
<!-- Node8 -->
<g id="node8" class="node">
<title>Node8</title>
<g id="a_node8"><a xlink:href="classllvm_1_1ilist__node.html" target="_top" xlink:title=" ">
<polygon fill="none" stroke="black" points="929.5,-11.5 929.5,-41.5 1087.5,-41.5 1087.5,-11.5 929.5,-11.5"/>
<text text-anchor="start" x="937.5" y="-29.5" font-family="Helvetica,sans-Serif" font-size="10.00">llvm::ilist_node&lt; Instruction,</text>
<text text-anchor="middle" x="1008.5" y="-18.5" font-family="Helvetica,sans-Serif" font-size="10.00"> Options... &gt;</text>
</a>
</g>
</g>
<!-- Node8&#45;&gt;Node7 -->
<g id="edge7" class="edge">
<title>Node8&#45;&gt;Node7</title>
<path fill="none" stroke="midnightblue" d="M1097.79,-34.72C1137.37,-38.69 1184.59,-43.83 1227,-49.5 1349.31,-65.85 1491.72,-90.17 1569.8,-103.96"/>
<polygon fill="midnightblue" stroke="midnightblue" points="1097.94,-31.22 1087.64,-33.71 1097.25,-38.18 1097.94,-31.22"/>
</g>
<!-- Node9 -->
<g id="node9" class="node">
<title>Node9</title>
<g id="a_node9"><a xlink:href="classllvm_1_1ilist__node__impl.html" target="_top" xlink:title=" ">
<polygon fill="none" stroke="black" points="457,-0.5 457,-52.5 610,-52.5 610,-0.5 457,-0.5"/>
<text text-anchor="start" x="465" y="-40.5" font-family="Helvetica,sans-Serif" font-size="10.00">llvm::ilist_node_impl</text>
<text text-anchor="start" x="465" y="-29.5" font-family="Helvetica,sans-Serif" font-size="10.00">&lt; ilist_detail::compute</text>
<text text-anchor="start" x="465" y="-18.5" font-family="Helvetica,sans-Serif" font-size="10.00">_node_options&lt; Instruction,</text>
<text text-anchor="middle" x="533.5" y="-7.5" font-family="Helvetica,sans-Serif" font-size="10.00"> Options... &gt;::type &gt;</text>
</a>
</g>
</g>
<!-- Node9&#45;&gt;Node8 -->
<g id="edge8" class="edge">
<title>Node9&#45;&gt;Node8</title>
<path fill="none" stroke="midnightblue" d="M620.46,-26.5C708.48,-26.5 844.12,-26.5 929.24,-26.5"/>
<polygon fill="midnightblue" stroke="midnightblue" points="620.23,-23 610.23,-26.5 620.23,-30 620.23,-23"/>
</g>
<!-- Node10 -->
<g id="node10" class="node">
<title>Node10</title>
<g id="a_node10"><a xlink:title=" ">
<polygon fill="none" stroke="#bfbfbf" points="0,-98 0,-117 96,-117 96,-98 0,-98"/>
<text text-anchor="middle" x="48" y="-105" font-family="Helvetica,sans-Serif" font-size="10.00">node_base_type</text>
</a>
</g>
</g>
<!-- Node10&#45;&gt;Node9 -->
<g id="edge9" class="edge">
<title>Node10&#45;&gt;Node9</title>
<path fill="none" stroke="#8b1a1a" d="M69.81,-92.16C86.12,-81.01 109.85,-66.68 133,-59.5 241.84,-25.74 374.9,-21.67 456.66,-23.11"/>
<polygon fill="#8b1a1a" stroke="#8b1a1a" points="67.73,-89.34 61.56,-97.95 71.75,-95.07 67.73,-89.34"/>
</g>
<!-- Node11 -->
<g id="node11" class="node">
<title>Node11</title>
<g id="a_node11"><a xlink:href="classllvm_1_1ilist__node__impl.html" target="_top" xlink:title="Implementation for an ilist node.">
<polygon fill="none" stroke="black" points="146,-137.5 146,-167.5 265,-167.5 265,-137.5 146,-137.5"/>
<text text-anchor="start" x="154" y="-155.5" font-family="Helvetica,sans-Serif" font-size="10.00">llvm::ilist_node_impl</text>
<text text-anchor="middle" x="205.5" y="-144.5" font-family="Helvetica,sans-Serif" font-size="10.00">&lt; OptionsT &gt;</text>
</a>
</g>
</g>
<!-- Node10&#45;&gt;Node11 -->
<g id="edge11" class="edge">
<title>Node10&#45;&gt;Node11</title>
<path fill="none" stroke="#8b1a1a" d="M91.75,-119.87C110.57,-125.32 132.84,-131.76 152.6,-137.48"/>
<polygon fill="#8b1a1a" stroke="#8b1a1a" points="92.56,-116.46 81.98,-117.04 90.61,-123.19 92.56,-116.46"/>
</g>
<!-- Node13 -->
<g id="node13" class="node">
<title>Node13</title>
<g id="a_node13"><a xlink:href="classllvm_1_1ilist__node__impl.html" target="_top" xlink:title=" ">
<polygon fill="none" stroke="black" points="455,-112.5 455,-164.5 612,-164.5 612,-112.5 455,-112.5"/>
<text text-anchor="start" x="463" y="-152.5" font-family="Helvetica,sans-Serif" font-size="10.00">llvm::ilist_node_impl</text>
<text text-anchor="start" x="463" y="-141.5" font-family="Helvetica,sans-Serif" font-size="10.00">&lt; ilist_detail::compute</text>
<text text-anchor="start" x="463" y="-130.5" font-family="Helvetica,sans-Serif" font-size="10.00">_node_options&lt; T, Options...</text>
<text text-anchor="middle" x="533.5" y="-119.5" font-family="Helvetica,sans-Serif" font-size="10.00"> &gt;::type &gt;</text>
</a>
</g>
</g>
<!-- Node10&#45;&gt;Node13 -->
<g id="edge14" class="edge">
<title>Node10&#45;&gt;Node13</title>
<path fill="none" stroke="#8b1a1a" d="M89.41,-95.12C161.04,-75.18 314.3,-41.66 437,-77.5 460.61,-84.4 483.93,-99.1 501.62,-112.34"/>
<polygon fill="#8b1a1a" stroke="#8b1a1a" points="88.11,-91.85 79.45,-97.95 90.02,-98.58 88.11,-91.85"/>
</g>
<!-- Node22 -->
<g id="node22" class="node">
<title>Node22</title>
<g id="a_node22"><a xlink:href="classllvm_1_1ilist__node__impl.html" target="_top" xlink:title=" ">
<polygon fill="none" stroke="black" points="456,-254.5 456,-306.5 611,-306.5 611,-254.5 456,-254.5"/>
<text text-anchor="start" x="464" y="-294.5" font-family="Helvetica,sans-Serif" font-size="10.00">llvm::ilist_node_impl</text>
<text text-anchor="start" x="464" y="-283.5" font-family="Helvetica,sans-Serif" font-size="10.00">&lt; ilist_detail::compute</text>
<text text-anchor="start" x="464" y="-272.5" font-family="Helvetica,sans-Serif" font-size="10.00">_node_options&lt; BasicBlock,</text>
<text text-anchor="middle" x="533.5" y="-261.5" font-family="Helvetica,sans-Serif" font-size="10.00"> Options... &gt;::type &gt;</text>
</a>
</g>
</g>
<!-- Node10&#45;&gt;Node22 -->
<g id="edge28" class="edge">
<title>Node10&#45;&gt;Node22</title>
<path fill="none" stroke="#8b1a1a" d="M49.75,-127.13C52.62,-171.32 66.45,-278.3 133,-324.5 243.99,-401.55 305.27,-356.57 437,-326.5 454.76,-322.45 473.07,-314.65 488.84,-306.61"/>
<polygon fill="#8b1a1a" stroke="#8b1a1a" points="53.24,-126.91 49.22,-117.1 46.25,-127.27 53.24,-126.91"/>
</g>
<!-- Node11&#45;&gt;Node9 -->
<g id="edge10" class="edge">
<title>Node11&#45;&gt;Node9</title>
<path fill="none" stroke="orange" stroke-dasharray="5,2" d="M241.71,-132.33C257.94,-123.47 277.65,-113.32 296,-105.5 348.56,-83.09 409.8,-62.79 456.79,-48.38"/>
<polygon fill="orange" stroke="orange" points="239.65,-129.47 232.59,-137.37 243.03,-135.6 239.65,-129.47"/>
<text text-anchor="start" x="298" y="-130.5" font-family="Helvetica,sans-Serif" font-size="10.00"> &lt; ilist_detail::compute</text>
<text text-anchor="start" x="298" y="-119.5" font-family="Helvetica,sans-Serif" font-size="10.00">_node_options&lt; Instruction,</text>
<text text-anchor="middle" x="366.5" y="-108.5" font-family="Helvetica,sans-Serif" font-size="10.00"> Options... &gt;::type &gt;</text>
</g>
<!-- Node11&#45;&gt;Node13 -->
<g id="edge15" class="edge">
<title>Node11&#45;&gt;Node13</title>
<path fill="none" stroke="orange" stroke-dasharray="5,2" d="M275.4,-149.54C327.97,-147.28 400.4,-144.17 454.98,-141.83"/>
<polygon fill="orange" stroke="orange" points="275,-146.05 265.16,-149.98 275.3,-153.05 275,-146.05"/>
<text text-anchor="start" x="296" y="-172.5" font-family="Helvetica,sans-Serif" font-size="10.00"> &lt; ilist_detail::compute</text>
<text text-anchor="start" x="296" y="-161.5" font-family="Helvetica,sans-Serif" font-size="10.00">_node_options&lt; T, Options...</text>
<text text-anchor="middle" x="366.5" y="-150.5" font-family="Helvetica,sans-Serif" font-size="10.00"> &gt;::type &gt;</text>
</g>
<!-- Node16 -->
<g id="node16" class="node">
<title>Node16</title>
<g id="a_node16"><a xlink:href="classllvm_1_1ilist__node__impl.html" target="_top" xlink:title=" ">
<polygon fill="none" stroke="black" points="465,-183.5 465,-235.5 602,-235.5 602,-183.5 465,-183.5"/>
<text text-anchor="start" x="473" y="-223.5" font-family="Helvetica,sans-Serif" font-size="10.00">llvm::ilist_node_impl</text>
<text text-anchor="start" x="473" y="-212.5" font-family="Helvetica,sans-Serif" font-size="10.00">&lt; ilist_detail::compute</text>
<text text-anchor="start" x="473" y="-201.5" font-family="Helvetica,sans-Serif" font-size="10.00">_node_options&lt; NodeTy,</text>
<text text-anchor="middle" x="533.5" y="-190.5" font-family="Helvetica,sans-Serif" font-size="10.00"> Options... &gt;::type &gt;</text>
</a>
</g>
</g>
<!-- Node11&#45;&gt;Node16 -->
<g id="edge20" class="edge">
<title>Node11&#45;&gt;Node16</title>
<path fill="none" stroke="orange" stroke-dasharray="5,2" d="M251.87,-171.08C265.82,-176.15 281.36,-181.16 296,-184.5 352.05,-197.29 417.1,-203.56 464.77,-206.62"/>
<polygon fill="orange" stroke="orange" points="253.09,-167.8 242.49,-167.58 250.64,-174.36 253.09,-167.8"/>
<text text-anchor="start" x="306" y="-228.5" font-family="Helvetica,sans-Serif" font-size="10.00"> &lt; ilist_detail::compute</text>
<text text-anchor="start" x="306" y="-217.5" font-family="Helvetica,sans-Serif" font-size="10.00">_node_options&lt; NodeTy,</text>
<text text-anchor="middle" x="366.5" y="-206.5" font-family="Helvetica,sans-Serif" font-size="10.00"> Options... &gt;::type &gt;</text>
</g>
<!-- Node11&#45;&gt;Node22 -->
<g id="edge29" class="edge">
<title>Node11&#45;&gt;Node22</title>
<path fill="none" stroke="orange" stroke-dasharray="5,2" d="M223.35,-175.73C239.56,-196.23 265.98,-225.17 296,-240.5 345.51,-265.79 407.7,-275.58 455.88,-279.16"/>
<polygon fill="orange" stroke="orange" points="226.12,-173.59 217.25,-167.8 220.57,-177.86 226.12,-173.59"/>
<text text-anchor="start" x="297" y="-301.5" font-family="Helvetica,sans-Serif" font-size="10.00"> &lt; ilist_detail::compute</text>
<text text-anchor="start" x="297" y="-290.5" font-family="Helvetica,sans-Serif" font-size="10.00">_node_options&lt; BasicBlock,</text>
<text text-anchor="middle" x="366.5" y="-279.5" font-family="Helvetica,sans-Serif" font-size="10.00"> Options... &gt;::type &gt;</text>
</g>
<!-- Node12 -->
<g id="node12" class="node">
<title>Node12</title>
<g id="a_node12"><a xlink:href="classllvm_1_1ilist__node.html" target="_top" xlink:title=" ">
<polygon fill="none" stroke="black" points="649,-125.5 649,-155.5 761,-155.5 761,-125.5 649,-125.5"/>
<text text-anchor="start" x="657" y="-143.5" font-family="Helvetica,sans-Serif" font-size="10.00">llvm::ilist_node&lt; T,</text>
<text text-anchor="middle" x="705" y="-132.5" font-family="Helvetica,sans-Serif" font-size="10.00"> Options &gt;</text>
</a>
</g>
</g>
<!-- Node12&#45;&gt;Node8 -->
<g id="edge12" class="edge">
<title>Node12&#45;&gt;Node8</title>
<path fill="none" stroke="orange" stroke-dasharray="5,2" d="M750.1,-121.5C759.61,-117.48 769.62,-113.3 779,-109.5 845.24,-82.64 861.58,-75.24 929,-51.5 938.58,-48.13 948.88,-44.7 958.77,-41.51"/>
<polygon fill="orange" stroke="orange" points="748.64,-118.32 740.81,-125.45 751.38,-124.76 748.64,-118.32"/>
<text text-anchor="middle" x="845" y="-112.5" font-family="Helvetica,sans-Serif" font-size="10.00"> &lt; Instruction, Options... &gt;</text>
</g>
<!-- Node15 -->
<g id="node15" class="node">
<title>Node15</title>
<g id="a_node15"><a xlink:href="classllvm_1_1ilist__node.html" target="_top" xlink:title=" ">
<polygon fill="none" stroke="black" points="937.5,-194.5 937.5,-224.5 1079.5,-224.5 1079.5,-194.5 937.5,-194.5"/>
<text text-anchor="start" x="945.5" y="-212.5" font-family="Helvetica,sans-Serif" font-size="10.00">llvm::ilist_node&lt; NodeTy,</text>
<text text-anchor="middle" x="1008.5" y="-201.5" font-family="Helvetica,sans-Serif" font-size="10.00"> Options... &gt;</text>
</a>
</g>
</g>
<!-- Node12&#45;&gt;Node15 -->
<g id="edge21" class="edge">
<title>Node12&#45;&gt;Node15</title>
<path fill="none" stroke="orange" stroke-dasharray="5,2" d="M771.49,-127.41C814.45,-122.45 870.04,-123.26 911,-149.5 925.73,-158.94 915.64,-173.2 929,-184.5 933.59,-188.38 938.78,-191.66 944.26,-194.43"/>
<polygon fill="orange" stroke="orange" points="770.89,-123.96 761.42,-128.7 771.78,-130.9 770.89,-123.96"/>
<text text-anchor="middle" x="845" y="-152.5" font-family="Helvetica,sans-Serif" font-size="10.00"> &lt; NodeTy, Options... &gt;</text>
</g>
<!-- Node21 -->
<g id="node21" class="node">
<title>Node21</title>
<g id="a_node21"><a xlink:href="classllvm_1_1ilist__node.html" target="_top" xlink:title=" ">
<polygon fill="none" stroke="black" points="929,-243.5 929,-273.5 1088,-273.5 1088,-243.5 929,-243.5"/>
<text text-anchor="start" x="937" y="-261.5" font-family="Helvetica,sans-Serif" font-size="10.00">llvm::ilist_node&lt; BasicBlock,</text>
<text text-anchor="middle" x="1008.5" y="-250.5" font-family="Helvetica,sans-Serif" font-size="10.00"> Options... &gt;</text>
</a>
</g>
</g>
<!-- Node12&#45;&gt;Node21 -->
<g id="edge30" class="edge">
<title>Node12&#45;&gt;Node21</title>
<path fill="none" stroke="orange" stroke-dasharray="5,2" d="M748.15,-159.79C792.61,-179.78 864.97,-211.29 929,-234.5 937.57,-237.61 946.77,-240.66 955.74,-243.5"/>
<polygon fill="orange" stroke="orange" points="749.38,-156.51 738.83,-155.59 746.5,-162.89 749.38,-156.51"/>
<text text-anchor="middle" x="845" y="-230.5" font-family="Helvetica,sans-Serif" font-size="10.00"> &lt; BasicBlock, Options... &gt;</text>
</g>
<!-- Node13&#45;&gt;Node12 -->
<g id="edge13" class="edge">
<title>Node13&#45;&gt;Node12</title>
<path fill="none" stroke="midnightblue" d="M622.47,-139.54C631.47,-139.64 640.42,-139.75 648.91,-139.85"/>
<polygon fill="midnightblue" stroke="midnightblue" points="622.35,-136.04 612.3,-139.42 622.26,-143.04 622.35,-136.04"/>
</g>
<!-- Node14 -->
<g id="node14" class="node">
<title>Node14</title>
<g id="a_node14"><a xlink:href="classllvm_1_1ilist__node__with__parent.html" target="_top" xlink:title="An ilist node that can access its parent list.">
<polygon fill="none" stroke="black" points="1245,-189 1245,-230 1396,-230 1396,-189 1245,-189"/>
<text text-anchor="start" x="1253" y="-218" font-family="Helvetica,sans-Serif" font-size="10.00">llvm::ilist_node_with</text>
<text text-anchor="start" x="1253" y="-207" font-family="Helvetica,sans-Serif" font-size="10.00">_parent&lt; NodeTy, ParentTy,</text>
<text text-anchor="middle" x="1320.5" y="-196" font-family="Helvetica,sans-Serif" font-size="10.00"> Options &gt;</text>
</a>
</g>
</g>
<!-- Node14&#45;&gt;Node7 -->
<g id="edge16" class="edge">
<title>Node14&#45;&gt;Node7</title>
<path fill="none" stroke="orange" stroke-dasharray="5,2" d="M1397.84,-185.88C1451.04,-169.42 1520.93,-147.79 1569.79,-132.67"/>
<polygon fill="orange" stroke="orange" points="1396.63,-182.59 1388.11,-188.89 1398.7,-189.27 1396.63,-182.59"/>
<text text-anchor="middle" x="1482.5" y="-181.5" font-family="Helvetica,sans-Serif" font-size="10.00"> &lt; Instruction, BasicBlock &gt;</text>
</g>
<!-- Node20 -->
<g id="node20" class="node">
<title>Node20</title>
<g id="a_node20"><a xlink:href="classllvm_1_1ilist__node__with__parent.html" target="_top" xlink:title=" ">
<polygon fill="none" stroke="black" points="1569,-210 1569,-251 1690,-251 1690,-210 1569,-210"/>
<text text-anchor="start" x="1577" y="-239" font-family="Helvetica,sans-Serif" font-size="10.00">llvm::ilist_node_with</text>
<text text-anchor="start" x="1577" y="-228" font-family="Helvetica,sans-Serif" font-size="10.00">_parent&lt; BasicBlock,</text>
<text text-anchor="middle" x="1629.5" y="-217" font-family="Helvetica,sans-Serif" font-size="10.00"> Function &gt;</text>
</a>
</g>
</g>
<!-- Node14&#45;&gt;Node20 -->
<g id="edge31" class="edge">
<title>Node14&#45;&gt;Node20</title>
<path fill="none" stroke="orange" stroke-dasharray="5,2" d="M1406.35,-215.3C1457.98,-218.84 1522.66,-223.26 1568.9,-226.42"/>
<polygon fill="orange" stroke="orange" points="1406.42,-211.8 1396.21,-214.61 1405.95,-218.78 1406.42,-211.8"/>
<text text-anchor="middle" x="1482.5" y="-227.5" font-family="Helvetica,sans-Serif" font-size="10.00"> &lt; BasicBlock, Function &gt;</text>
</g>
<!-- Node15&#45;&gt;Node14 -->
<g id="edge17" class="edge">
<title>Node15&#45;&gt;Node14</title>
<path fill="none" stroke="midnightblue" d="M1089.86,-209.5C1137.71,-209.5 1198.03,-209.5 1244.84,-209.5"/>
<polygon fill="midnightblue" stroke="midnightblue" points="1089.84,-206 1079.84,-209.5 1089.84,-213 1089.84,-206"/>
</g>
<!-- Node16&#45;&gt;Node15 -->
<g id="edge18" class="edge">
<title>Node16&#45;&gt;Node15</title>
<path fill="none" stroke="midnightblue" d="M612.21,-209.5C702.59,-209.5 850.49,-209.5 937.46,-209.5"/>
<polygon fill="midnightblue" stroke="midnightblue" points="612.02,-206 602.02,-209.5 612.02,-213 612.02,-206"/>
</g>
<!-- Node17 -->
<g id="node17" class="node">
<title>Node17</title>
<g id="a_node17"><a xlink:title=" ">
<polygon fill="none" stroke="#bfbfbf" points="133,-296 133,-315 278,-315 278,-296 133,-296"/>
<text text-anchor="middle" x="205.5" y="-303" font-family="Helvetica,sans-Serif" font-size="10.00">OptionsT::node_base_type</text>
</a>
</g>
</g>
<!-- Node17&#45;&gt;Node16 -->
<g id="edge19" class="edge">
<title>Node17&#45;&gt;Node16</title>
<path fill="none" stroke="#8b1a1a" d="M248.71,-317.4C298.79,-328.8 382.35,-338.93 437,-298.5 457,-283.71 438.38,-264.01 455,-245.5 458.27,-241.86 461.99,-238.56 465.98,-235.57"/>
<polygon fill="#8b1a1a" stroke="#8b1a1a" points="249.4,-313.97 238.86,-315.05 247.77,-320.78 249.4,-313.97"/>
</g>
<!-- Node18 -->
<g id="node18" class="node">
<title>Node18</title>
<g id="a_node18"><a xlink:title=" ">
<polygon fill="none" stroke="#bfbfbf" points="1727,-126 1727,-145 1879,-145 1879,-126 1727,-126"/>
<text text-anchor="middle" x="1803" y="-133" font-family="Helvetica,sans-Serif" font-size="10.00">pair&lt; unsigned, unsigned &gt;</text>
</a>
</g>
</g>
<!-- Node18&#45;&gt;Node1 -->
<g id="edge22" class="edge">
<title>Node18&#45;&gt;Node1</title>
<path fill="none" stroke="#9a32cd" stroke-dasharray="5,2" d="M1889.27,-135.5C1907.4,-135.5 1925.66,-135.5 1940.93,-135.5"/>
<polygon fill="#9a32cd" stroke="#9a32cd" points="1889.23,-132 1879.23,-135.5 1889.23,-139 1889.23,-132"/>
<text text-anchor="middle" x="1910" y="-138.5" font-family="Helvetica,sans-Serif" font-size="10.00"> VN</text>
</g>
<!-- Node19&#45;&gt;Node1 -->
<g id="edge23" class="edge">
<title>Node19&#45;&gt;Node1</title>
<path fill="none" stroke="#9a32cd" stroke-dasharray="5,2" d="M1862.08,-162.34C1881.49,-158.46 1903.22,-153.97 1923,-149.5 1929.16,-148.11 1935.68,-146.56 1942.01,-145"/>
<polygon fill="#9a32cd" stroke="#9a32cd" points="1861.29,-158.93 1852.16,-164.31 1862.65,-165.8 1861.29,-158.93"/>
<text text-anchor="middle" x="1910" y="-157.5" font-family="Helvetica,sans-Serif" font-size="10.00"> Dest</text>
</g>
<!-- Node20&#45;&gt;Node19 -->
<g id="edge25" class="edge">
<title>Node20&#45;&gt;Node19</title>
<path fill="none" stroke="midnightblue" d="M1699.74,-207.49C1725.48,-198.93 1753.28,-189.69 1773.38,-183.01"/>
<polygon fill="midnightblue" stroke="midnightblue" points="1698.39,-204.25 1690,-210.72 1700.59,-210.89 1698.39,-204.25"/>
</g>
<!-- Node21&#45;&gt;Node20 -->
<g id="edge26" class="edge">
<title>Node21&#45;&gt;Node20</title>
<path fill="none" stroke="midnightblue" d="M1098.21,-257.58C1205.57,-255.95 1391.75,-251.52 1551,-239.5 1556.81,-239.06 1562.85,-238.52 1568.89,-237.91"/>
<polygon fill="midnightblue" stroke="midnightblue" points="1098.02,-254.08 1088.07,-257.73 1098.12,-261.08 1098.02,-254.08"/>
</g>
<!-- Node22&#45;&gt;Node21 -->
<g id="edge27" class="edge">
<title>Node22&#45;&gt;Node21</title>
<path fill="none" stroke="midnightblue" d="M621.23,-276.47C709.1,-272.38 843.83,-266.11 928.72,-262.16"/>
<polygon fill="midnightblue" stroke="midnightblue" points="620.85,-272.98 611.02,-276.94 621.17,-279.97 620.85,-272.98"/>
</g>
</g>
</svg>
