<?xml version="1.0" encoding="UTF-8" standalone="no"?>
<!DOCTYPE svg PUBLIC "-//W3C//DTD SVG 1.1//EN"
 "http://www.w3.org/Graphics/SVG/1.1/DTD/svg11.dtd">
<!-- Generated by graphviz version 2.42.4 (0)
 -->
<!-- Title: include/llvm/CodeGen/TileShapeInfo.h Pages: 1 -->
<svg width="6943pt" height="251pt"
 viewBox="0.00 0.00 6943.00 251.00" xmlns="http://www.w3.org/2000/svg" xmlns:xlink="http://www.w3.org/1999/xlink">
<g id="graph0" class="graph" transform="scale(1 1) rotate(0) translate(4 247)">
<title>include/llvm/CodeGen/TileShapeInfo.h</title>
<!-- Node1 -->
<g id="node1" class="node">
<title>Node1</title>
<g id="a_node1"><a xlink:title=" ">
<polygon fill="#bfbfbf" stroke="black" points="2374,-212.5 2374,-242.5 2498,-242.5 2498,-212.5 2374,-212.5"/>
<text text-anchor="start" x="2382" y="-230.5" font-family="Helvetica,sans-Serif" font-size="10.00">include/llvm/CodeGen</text>
<text text-anchor="middle" x="2436" y="-219.5" font-family="Helvetica,sans-Serif" font-size="10.00">/TileShapeInfo.h</text>
</a>
</g>
</g>
<!-- Node2 -->
<g id="node2" class="node">
<title>Node2</title>
<g id="a_node2"><a xlink:href="VirtRegMap_8h.html" target="_top" xlink:title=" ">
<polygon fill="none" stroke="black" points="1290,-145.5 1290,-175.5 1414,-175.5 1414,-145.5 1290,-145.5"/>
<text text-anchor="start" x="1298" y="-163.5" font-family="Helvetica,sans-Serif" font-size="10.00">include/llvm/CodeGen</text>
<text text-anchor="middle" x="1352" y="-152.5" font-family="Helvetica,sans-Serif" font-size="10.00">/VirtRegMap.h</text>
</a>
</g>
</g>
<!-- Node1&#45;&gt;Node2 -->
<g id="edge1" class="edge">
<title>Node1&#45;&gt;Node2</title>
<path fill="none" stroke="midnightblue" d="M2363.69,-222.16C2163.12,-210.14 1602.19,-176.5 1414.26,-165.23"/>
<polygon fill="midnightblue" stroke="midnightblue" points="2363.63,-225.67 2373.83,-222.77 2364.05,-218.68 2363.63,-225.67"/>
</g>
<!-- Node752 -->
<g id="node43" class="node">
<title>Node752</title>
<g id="a_node43"><a xlink:href="X86TileConfig_8cpp.html" target="_top" xlink:title=" ">
<polygon fill="none" stroke="black" points="6761,-11.5 6761,-30.5 6935,-30.5 6935,-11.5 6761,-11.5"/>
<text text-anchor="middle" x="6848" y="-18.5" font-family="Helvetica,sans-Serif" font-size="10.00">lib/Target/X86/X86TileConfig.cpp</text>
</a>
</g>
</g>
<!-- Node1&#45;&gt;Node752 -->
<g id="edge60" class="edge">
<title>Node1&#45;&gt;Node752</title>
<path fill="none" stroke="midnightblue" d="M2508.3,-225.02C3001.93,-214.69 5882.11,-150.47 6752,-42 6772.61,-39.43 6795.38,-34.77 6813.57,-30.59"/>
<polygon fill="midnightblue" stroke="midnightblue" points="2508.03,-221.53 2498.11,-225.23 2508.18,-228.53 2508.03,-221.53"/>
</g>
<!-- Node3 -->
<g id="node3" class="node">
<title>Node3</title>
<g id="a_node3"><a xlink:href="TargetInstrInfo_8h.html" target="_top" xlink:title=" ">
<polygon fill="none" stroke="red" points="3338,-78.5 3338,-108.5 3462,-108.5 3462,-78.5 3338,-78.5"/>
<text text-anchor="start" x="3346" y="-96.5" font-family="Helvetica,sans-Serif" font-size="10.00">include/llvm/CodeGen</text>
<text text-anchor="middle" x="3400" y="-85.5" font-family="Helvetica,sans-Serif" font-size="10.00">/TargetInstrInfo.h</text>
</a>
</g>
</g>
<!-- Node2&#45;&gt;Node3 -->
<g id="edge2" class="edge">
<title>Node2&#45;&gt;Node3</title>
<path fill="none" stroke="midnightblue" d="M1424.23,-157.21C1745.04,-147.03 3038.16,-105.98 3337.79,-96.47"/>
<polygon fill="midnightblue" stroke="midnightblue" points="1424.01,-153.71 1414.13,-157.53 1424.24,-160.71 1424.01,-153.71"/>
</g>
<!-- Node30 -->
<g id="node17" class="node">
<title>Node30</title>
<g id="a_node17"><a xlink:href="CalcSpillWeights_8cpp.html" target="_top" xlink:title=" ">
<polygon fill="none" stroke="black" points="1460,-11.5 1460,-30.5 1640,-30.5 1640,-11.5 1460,-11.5"/>
<text text-anchor="middle" x="1550" y="-18.5" font-family="Helvetica,sans-Serif" font-size="10.00">lib/CodeGen/CalcSpillWeights.cpp</text>
</a>
</g>
</g>
<!-- Node2&#45;&gt;Node30 -->
<g id="edge44" class="edge">
<title>Node2&#45;&gt;Node30</title>
<path fill="none" stroke="midnightblue" d="M1303.86,-141.39C1270.45,-126.11 1235.37,-102.82 1256,-78 1284.03,-44.29 1406.95,-50.3 1450,-42 1468.95,-38.35 1489.89,-34.18 1507.69,-30.6"/>
<polygon fill="midnightblue" stroke="midnightblue" points="1302.62,-144.67 1313.19,-145.48 1305.43,-138.26 1302.62,-144.67"/>
</g>
<!-- Node48 -->
<g id="node35" class="node">
<title>Node48</title>
<g id="a_node35"><a xlink:href="InlineSpiller_8cpp.html" target="_top" xlink:title=" ">
<polygon fill="none" stroke="black" points="0,-11.5 0,-30.5 156,-30.5 156,-11.5 0,-11.5"/>
<text text-anchor="middle" x="78" y="-18.5" font-family="Helvetica,sans-Serif" font-size="10.00">lib/CodeGen/InlineSpiller.cpp</text>
</a>
</g>
</g>
<!-- Node2&#45;&gt;Node48 -->
<g id="edge45" class="edge">
<title>Node2&#45;&gt;Node48</title>
<path fill="none" stroke="midnightblue" d="M1279.82,-158.06C1135.92,-154.52 803.29,-143.08 526,-109 370.69,-89.91 188.37,-48.5 113.16,-30.56"/>
<polygon fill="midnightblue" stroke="midnightblue" points="1279.77,-161.56 1289.85,-158.3 1279.94,-154.56 1279.77,-161.56"/>
</g>
<!-- Node51 -->
<g id="node36" class="node">
<title>Node51</title>
<g id="a_node36"><a xlink:href="LiveDebugVariables_8cpp.html" target="_top" xlink:title=" ">
<polygon fill="none" stroke="black" points="174,-11.5 174,-30.5 370,-30.5 370,-11.5 174,-11.5"/>
<text text-anchor="middle" x="272" y="-18.5" font-family="Helvetica,sans-Serif" font-size="10.00">lib/CodeGen/LiveDebugVariables.cpp</text>
</a>
</g>
</g>
<!-- Node2&#45;&gt;Node51 -->
<g id="edge46" class="edge">
<title>Node2&#45;&gt;Node51</title>
<path fill="none" stroke="midnightblue" d="M1279.89,-156.55C1161.08,-151.08 916.92,-137.25 712,-109 560.42,-88.11 382.3,-48.03 307.69,-30.53"/>
<polygon fill="midnightblue" stroke="midnightblue" points="1279.81,-160.05 1289.96,-157.01 1280.13,-153.06 1279.81,-160.05"/>
</g>
<!-- Node52 -->
<g id="node37" class="node">
<title>Node52</title>
<g id="a_node37"><a xlink:href="LiveRangeEdit_8cpp.html" target="_top" xlink:title=" ">
<polygon fill="none" stroke="black" points="388.5,-11.5 388.5,-30.5 557.5,-30.5 557.5,-11.5 388.5,-11.5"/>
<text text-anchor="middle" x="473" y="-18.5" font-family="Helvetica,sans-Serif" font-size="10.00">lib/CodeGen/LiveRangeEdit.cpp</text>
</a>
</g>
</g>
<!-- Node2&#45;&gt;Node52 -->
<g id="edge48" class="edge">
<title>Node2&#45;&gt;Node52</title>
<path fill="none" stroke="midnightblue" d="M1279.91,-154.5C1185.21,-147.35 1013.95,-132.42 869,-109 732.98,-87.02 573.44,-47.79 505.88,-30.54"/>
<polygon fill="midnightblue" stroke="midnightblue" points="1279.72,-157.99 1289.95,-155.25 1280.24,-151.01 1279.72,-157.99"/>
</g>
<!-- Node86 -->
<g id="node38" class="node">
<title>Node86</title>
<g id="a_node38"><a xlink:href="RegAllocGreedy_8cpp.html" target="_top" xlink:title=" ">
<polygon fill="none" stroke="black" points="576,-11.5 576,-30.5 752,-30.5 752,-11.5 576,-11.5"/>
<text text-anchor="middle" x="664" y="-18.5" font-family="Helvetica,sans-Serif" font-size="10.00">lib/CodeGen/RegAllocGreedy.cpp</text>
</a>
</g>
</g>
<!-- Node2&#45;&gt;Node86 -->
<g id="edge52" class="edge">
<title>Node2&#45;&gt;Node86</title>
<path fill="none" stroke="midnightblue" d="M1279.61,-151.27C1208.95,-142.71 1098.58,-127.91 1004,-109 887.79,-85.77 751.9,-47.62 693.32,-30.63"/>
<polygon fill="midnightblue" stroke="midnightblue" points="1279.39,-154.77 1289.74,-152.49 1280.23,-147.82 1279.39,-154.77"/>
</g>
<!-- Node104 -->
<g id="node39" class="node">
<title>Node104</title>
<g id="a_node39"><a xlink:href="SplitKit_8cpp.html" target="_top" xlink:title=" ">
<polygon fill="none" stroke="black" points="770,-11.5 770,-30.5 904,-30.5 904,-11.5 770,-11.5"/>
<text text-anchor="middle" x="837" y="-18.5" font-family="Helvetica,sans-Serif" font-size="10.00">lib/CodeGen/SplitKit.cpp</text>
</a>
</g>
</g>
<!-- Node2&#45;&gt;Node104 -->
<g id="edge54" class="edge">
<title>Node2&#45;&gt;Node104</title>
<path fill="none" stroke="midnightblue" d="M1279.93,-145.96C1232.75,-136.65 1169.9,-123.4 1115,-109 1020.35,-84.16 909.95,-47.17 861.69,-30.58"/>
<polygon fill="midnightblue" stroke="midnightblue" points="1279.26,-149.4 1289.75,-147.89 1280.61,-142.53 1279.26,-149.4"/>
</g>
<!-- Node108 -->
<g id="node40" class="node">
<title>Node108</title>
<g id="a_node40"><a xlink:href="TargetRegisterInfo_8cpp.html" target="_top" xlink:title=" ">
<polygon fill="none" stroke="black" points="922.5,-6 922.5,-36 1071.5,-36 1071.5,-6 922.5,-6"/>
<text text-anchor="start" x="930.5" y="-24" font-family="Helvetica,sans-Serif" font-size="10.00">lib/CodeGen/TargetRegister</text>
<text text-anchor="middle" x="997" y="-13" font-family="Helvetica,sans-Serif" font-size="10.00">Info.cpp</text>
</a>
</g>
</g>
<!-- Node2&#45;&gt;Node108 -->
<g id="edge55" class="edge">
<title>Node2&#45;&gt;Node108</title>
<path fill="none" stroke="midnightblue" d="M1289.88,-142.6C1258.68,-133.58 1220.48,-121.72 1187,-109 1127.99,-86.57 1061.42,-54.44 1024.83,-36.16"/>
<polygon fill="midnightblue" stroke="midnightblue" points="1289.18,-146.04 1299.75,-145.43 1291.1,-139.31 1289.18,-146.04"/>
</g>
<!-- Node112 -->
<g id="node41" class="node">
<title>Node112</title>
<g id="a_node41"><a xlink:href="VirtRegMap_8cpp.html" target="_top" xlink:title=" ">
<polygon fill="none" stroke="black" points="1090,-11.5 1090,-30.5 1246,-30.5 1246,-11.5 1090,-11.5"/>
<text text-anchor="middle" x="1168" y="-18.5" font-family="Helvetica,sans-Serif" font-size="10.00">lib/CodeGen/VirtRegMap.cpp</text>
</a>
</g>
</g>
<!-- Node2&#45;&gt;Node112 -->
<g id="edge56" class="edge">
<title>Node2&#45;&gt;Node112</title>
<path fill="none" stroke="midnightblue" d="M1280.09,-144.12C1257.03,-136.49 1232.67,-125.29 1214,-109 1188.9,-87.09 1175.35,-48.08 1170.32,-30.73"/>
<polygon fill="midnightblue" stroke="midnightblue" points="1279.28,-147.53 1289.87,-147.17 1281.37,-140.85 1279.28,-147.53"/>
</g>
<!-- Node273 -->
<g id="node42" class="node">
<title>Node273</title>
<g id="a_node42"><a xlink:href="ARMBaseRegisterInfo_8cpp.html" target="_top" xlink:title=" ">
<polygon fill="none" stroke="black" points="1264.5,-6 1264.5,-36 1441.5,-36 1441.5,-6 1264.5,-6"/>
<text text-anchor="start" x="1272.5" y="-24" font-family="Helvetica,sans-Serif" font-size="10.00">lib/Target/ARM/ARMBaseRegister</text>
<text text-anchor="middle" x="1353" y="-13" font-family="Helvetica,sans-Serif" font-size="10.00">Info.cpp</text>
</a>
</g>
</g>
<!-- Node2&#45;&gt;Node273 -->
<g id="edge57" class="edge">
<title>Node2&#45;&gt;Node273</title>
<path fill="none" stroke="midnightblue" d="M1280.56,-142.43C1240.89,-129.24 1203.18,-108.12 1223,-78 1236.58,-57.37 1259.53,-44.31 1282.4,-36.05"/>
<polygon fill="midnightblue" stroke="midnightblue" points="1279.52,-145.77 1290.11,-145.45 1281.63,-139.1 1279.52,-145.77"/>
</g>
<!-- Node2&#45;&gt;Node752 -->
<g id="edge59" class="edge">
<title>Node2&#45;&gt;Node752</title>
<path fill="none" stroke="midnightblue" d="M1424.47,-158.3C2046.87,-147.98 6474.86,-73.61 6752,-42 6772.97,-39.61 6796.15,-34.84 6814.48,-30.56"/>
<polygon fill="midnightblue" stroke="midnightblue" points="1424.23,-154.81 1414.29,-158.47 1424.35,-161.81 1424.23,-154.81"/>
</g>
<!-- Node771 -->
<g id="node44" class="node">
<title>Node771</title>
<g id="a_node44"><a xlink:href="AllocationOrder_8cpp.html" target="_top" xlink:title=" ">
<polygon fill="none" stroke="black" points="1265,-84 1265,-103 1439,-103 1439,-84 1265,-84"/>
<text text-anchor="middle" x="1352" y="-91" font-family="Helvetica,sans-Serif" font-size="10.00">lib/CodeGen/AllocationOrder.cpp</text>
</a>
</g>
</g>
<!-- Node2&#45;&gt;Node771 -->
<g id="edge43" class="edge">
<title>Node2&#45;&gt;Node771</title>
<path fill="none" stroke="midnightblue" d="M1352,-135.25C1352,-124.02 1352,-111.38 1352,-103.19"/>
<polygon fill="midnightblue" stroke="midnightblue" points="1348.5,-135.4 1352,-145.4 1355.5,-135.4 1348.5,-135.4"/>
</g>
<!-- Node772 -->
<g id="node45" class="node">
<title>Node772</title>
<g id="a_node45"><a xlink:href="LiveIntervals_8cpp.html" target="_top" xlink:title=" ">
<polygon fill="none" stroke="black" points="1457,-84 1457,-103 1619,-103 1619,-84 1457,-84"/>
<text text-anchor="middle" x="1538" y="-91" font-family="Helvetica,sans-Serif" font-size="10.00">lib/CodeGen/LiveIntervals.cpp</text>
</a>
</g>
</g>
<!-- Node2&#45;&gt;Node772 -->
<g id="edge47" class="edge">
<title>Node2&#45;&gt;Node772</title>
<path fill="none" stroke="midnightblue" d="M1402.23,-141.95C1438.36,-129.32 1485.49,-112.85 1513.66,-103.01"/>
<polygon fill="midnightblue" stroke="midnightblue" points="1400.64,-138.79 1392.36,-145.4 1402.95,-145.4 1400.64,-138.79"/>
</g>
<!-- Node773 -->
<g id="node46" class="node">
<title>Node773</title>
<g id="a_node46"><a xlink:href="LiveRegMatrix_8cpp.html" target="_top" xlink:title=" ">
<polygon fill="none" stroke="black" points="1637,-84 1637,-103 1807,-103 1807,-84 1637,-84"/>
<text text-anchor="middle" x="1722" y="-91" font-family="Helvetica,sans-Serif" font-size="10.00">lib/CodeGen/LiveRegMatrix.cpp</text>
</a>
</g>
</g>
<!-- Node2&#45;&gt;Node773 -->
<g id="edge49" class="edge">
<title>Node2&#45;&gt;Node773</title>
<path fill="none" stroke="midnightblue" d="M1424.47,-146.77C1498.1,-133.83 1610.08,-114.16 1673.58,-103.01"/>
<polygon fill="midnightblue" stroke="midnightblue" points="1423.59,-143.37 1414.35,-148.55 1424.8,-150.26 1423.59,-143.37"/>
</g>
<!-- Node774 -->
<g id="node47" class="node">
<title>Node774</title>
<g id="a_node47"><a xlink:href="RegAllocBase_8cpp.html" target="_top" xlink:title=" ">
<polygon fill="none" stroke="black" points="1825,-84 1825,-103 1991,-103 1991,-84 1825,-84"/>
<text text-anchor="middle" x="1908" y="-91" font-family="Helvetica,sans-Serif" font-size="10.00">lib/CodeGen/RegAllocBase.cpp</text>
</a>
</g>
</g>
<!-- Node2&#45;&gt;Node774 -->
<g id="edge50" class="edge">
<title>Node2&#45;&gt;Node774</title>
<path fill="none" stroke="midnightblue" d="M1424,-152.74C1515.33,-143.92 1677.61,-127.43 1816,-109 1829.14,-107.25 1843.31,-105.13 1856.49,-103.06"/>
<polygon fill="midnightblue" stroke="midnightblue" points="1423.65,-149.26 1414.03,-153.7 1424.32,-156.23 1423.65,-149.26"/>
</g>
<!-- Node775 -->
<g id="node48" class="node">
<title>Node775</title>
<g id="a_node48"><a xlink:href="RegAllocBasic_8cpp.html" target="_top" xlink:title=" ">
<polygon fill="none" stroke="black" points="2009,-84 2009,-103 2177,-103 2177,-84 2009,-84"/>
<text text-anchor="middle" x="2093" y="-91" font-family="Helvetica,sans-Serif" font-size="10.00">lib/CodeGen/RegAllocBasic.cpp</text>
</a>
</g>
</g>
<!-- Node2&#45;&gt;Node775 -->
<g id="edge51" class="edge">
<title>Node2&#45;&gt;Node775</title>
<path fill="none" stroke="midnightblue" d="M1424.41,-155.68C1544.36,-148.94 1791.72,-133.32 2000,-109 2013.96,-107.37 2029.03,-105.2 2042.9,-103.03"/>
<polygon fill="midnightblue" stroke="midnightblue" points="1424.05,-152.19 1414.26,-156.25 1424.43,-159.18 1424.05,-152.19"/>
</g>
<!-- Node776 -->
<g id="node49" class="node">
<title>Node776</title>
<g id="a_node49"><a xlink:href="RegAllocPBQP_8cpp.html" target="_top" xlink:title=" ">
<polygon fill="none" stroke="black" points="2195.5,-84 2195.5,-103 2362.5,-103 2362.5,-84 2195.5,-84"/>
<text text-anchor="middle" x="2279" y="-91" font-family="Helvetica,sans-Serif" font-size="10.00">lib/CodeGen/RegAllocPBQP.cpp</text>
</a>
</g>
</g>
<!-- Node2&#45;&gt;Node776 -->
<g id="edge53" class="edge">
<title>Node2&#45;&gt;Node776</title>
<path fill="none" stroke="midnightblue" d="M1424.25,-157.42C1569.11,-152.73 1905.2,-139.32 2186,-109 2200.3,-107.46 2215.75,-105.26 2229.88,-103.04"/>
<polygon fill="midnightblue" stroke="midnightblue" points="1424.04,-153.92 1414.16,-157.74 1424.26,-160.92 1424.04,-153.92"/>
</g>
<!-- Node618 -->
<g id="node50" class="node">
<title>Node618</title>
<g id="a_node50"><a xlink:href="SystemZRegisterInfo_8cpp.html" target="_top" xlink:title=" ">
<polygon fill="none" stroke="black" points="2380.5,-78.5 2380.5,-108.5 2523.5,-108.5 2523.5,-78.5 2380.5,-78.5"/>
<text text-anchor="start" x="2388.5" y="-96.5" font-family="Helvetica,sans-Serif" font-size="10.00">lib/Target/SystemZ</text>
<text text-anchor="middle" x="2452" y="-85.5" font-family="Helvetica,sans-Serif" font-size="10.00">/SystemZRegisterInfo.cpp</text>
</a>
</g>
</g>
<!-- Node2&#45;&gt;Node618 -->
<g id="edge58" class="edge">
<title>Node2&#45;&gt;Node618</title>
<path fill="none" stroke="midnightblue" d="M1424.42,-159.08C1591.68,-157.41 2017.62,-149.22 2371,-109 2373.98,-108.66 2377.02,-108.28 2380.08,-107.87"/>
<polygon fill="midnightblue" stroke="midnightblue" points="1424.22,-155.58 1414.26,-159.17 1424.29,-162.58 1424.22,-155.58"/>
</g>
<!-- Node4 -->
<g id="node4" class="node">
<title>Node4</title>
<g id="a_node4"><a xlink:href="InstructionSelectorImpl_8h.html" target="_top" xlink:title=" ">
<polygon fill="none" stroke="red" points="3652,-0.5 3652,-41.5 3816,-41.5 3816,-0.5 3652,-0.5"/>
<text text-anchor="start" x="3660" y="-29.5" font-family="Helvetica,sans-Serif" font-size="10.00">include/llvm/CodeGen</text>
<text text-anchor="start" x="3660" y="-18.5" font-family="Helvetica,sans-Serif" font-size="10.00">/GlobalISel/InstructionSelector</text>
<text text-anchor="middle" x="3734" y="-7.5" font-family="Helvetica,sans-Serif" font-size="10.00">Impl.h</text>
</a>
</g>
</g>
<!-- Node3&#45;&gt;Node4 -->
<g id="edge3" class="edge">
<title>Node3&#45;&gt;Node4</title>
<path fill="none" stroke="midnightblue" d="M3472.27,-77.71C3520.63,-67.75 3585.66,-54.26 3643,-42 3645.85,-41.39 3648.74,-40.77 3651.67,-40.14"/>
<polygon fill="midnightblue" stroke="midnightblue" points="3471.31,-74.33 3462.22,-79.77 3472.72,-81.19 3471.31,-74.33"/>
</g>
<!-- Node13 -->
<g id="node5" class="node">
<title>Node13</title>
<g id="a_node5"><a xlink:href="MachinePipeliner_8h.html" target="_top" xlink:title=" ">
<polygon fill="none" stroke="red" points="3834,-6 3834,-36 3958,-36 3958,-6 3834,-6"/>
<text text-anchor="start" x="3842" y="-24" font-family="Helvetica,sans-Serif" font-size="10.00">include/llvm/CodeGen</text>
<text text-anchor="middle" x="3896" y="-13" font-family="Helvetica,sans-Serif" font-size="10.00">/MachinePipeliner.h</text>
</a>
</g>
</g>
<!-- Node3&#45;&gt;Node13 -->
<g id="edge4" class="edge">
<title>Node3&#45;&gt;Node13</title>
<path fill="none" stroke="midnightblue" d="M3472.12,-87.39C3557.1,-80.57 3702.28,-66.42 3825,-42 3833.16,-40.38 3841.76,-38.29 3850.04,-36.07"/>
<polygon fill="midnightblue" stroke="midnightblue" points="3471.75,-83.9 3462.06,-88.18 3472.3,-90.88 3471.75,-83.9"/>
</g>
<!-- Node15 -->
<g id="node6" class="node">
<title>Node15</title>
<g id="a_node6"><a xlink:href="ModuloSchedule_8h.html" target="_top" xlink:title=" ">
<polygon fill="none" stroke="red" points="3976,-6 3976,-36 4100,-36 4100,-6 3976,-6"/>
<text text-anchor="start" x="3984" y="-24" font-family="Helvetica,sans-Serif" font-size="10.00">include/llvm/CodeGen</text>
<text text-anchor="middle" x="4038" y="-13" font-family="Helvetica,sans-Serif" font-size="10.00">/ModuloSchedule.h</text>
</a>
</g>
</g>
<!-- Node3&#45;&gt;Node15 -->
<g id="edge5" class="edge">
<title>Node3&#45;&gt;Node15</title>
<path fill="none" stroke="midnightblue" d="M3472.34,-90.35C3580.68,-86.17 3791.15,-74.31 3967,-42 3975.44,-40.45 3984.32,-38.34 3992.84,-36.07"/>
<polygon fill="midnightblue" stroke="midnightblue" points="3472.04,-86.86 3462.17,-90.73 3472.3,-93.86 3472.04,-86.86"/>
</g>
<!-- Node17 -->
<g id="node7" class="node">
<title>Node17</title>
<g id="a_node7"><a xlink:href="TailDuplicator_8h.html" target="_top" xlink:title=" ">
<polygon fill="none" stroke="red" points="4118,-6 4118,-36 4242,-36 4242,-6 4118,-6"/>
<text text-anchor="start" x="4126" y="-24" font-family="Helvetica,sans-Serif" font-size="10.00">include/llvm/CodeGen</text>
<text text-anchor="middle" x="4180" y="-13" font-family="Helvetica,sans-Serif" font-size="10.00">/TailDuplicator.h</text>
</a>
</g>
</g>
<!-- Node3&#45;&gt;Node17 -->
<g id="edge6" class="edge">
<title>Node3&#45;&gt;Node17</title>
<path fill="none" stroke="midnightblue" d="M3472.3,-92.19C3601.2,-90.55 3878.79,-82.19 4109,-42 4117.58,-40.5 4126.61,-38.39 4135.25,-36.09"/>
<polygon fill="midnightblue" stroke="midnightblue" points="3472.12,-88.69 3462.16,-92.3 3472.2,-95.69 3472.12,-88.69"/>
</g>
<!-- Node21 -->
<g id="node8" class="node">
<title>Node21</title>
<g id="a_node8"><a xlink:href="AggressiveAntiDepBreaker_8cpp.html" target="_top" xlink:title=" ">
<polygon fill="none" stroke="black" points="4260,-6 4260,-36 4412,-36 4412,-6 4260,-6"/>
<text text-anchor="start" x="4268" y="-24" font-family="Helvetica,sans-Serif" font-size="10.00">lib/CodeGen/AggressiveAnti</text>
<text text-anchor="middle" x="4336" y="-13" font-family="Helvetica,sans-Serif" font-size="10.00">DepBreaker.cpp</text>
</a>
</g>
</g>
<!-- Node3&#45;&gt;Node21 -->
<g id="edge7" class="edge">
<title>Node3&#45;&gt;Node21</title>
<path fill="none" stroke="midnightblue" d="M3472.3,-92.38C3619.61,-91.23 3964.79,-83.85 4251,-42 4261.35,-40.49 4272.3,-38.34 4282.76,-36"/>
<polygon fill="midnightblue" stroke="midnightblue" points="3472.01,-88.89 3462.04,-92.46 3472.06,-95.89 3472.01,-88.89"/>
</g>
<!-- Node22 -->
<g id="node9" class="node">
<title>Node22</title>
<g id="a_node9"><a xlink:href="CodeGen_2Analysis_8cpp.html" target="_top" xlink:title=" ">
<polygon fill="none" stroke="black" points="4430,-11.5 4430,-30.5 4570,-30.5 4570,-11.5 4430,-11.5"/>
<text text-anchor="middle" x="4500" y="-18.5" font-family="Helvetica,sans-Serif" font-size="10.00">lib/CodeGen/Analysis.cpp</text>
</a>
</g>
</g>
<!-- Node3&#45;&gt;Node22 -->
<g id="edge8" class="edge">
<title>Node3&#45;&gt;Node22</title>
<path fill="none" stroke="midnightblue" d="M3472.44,-90.79C3673.85,-85.73 4237.7,-69.46 4421,-42 4438.07,-39.44 4456.81,-34.78 4471.76,-30.6"/>
<polygon fill="midnightblue" stroke="midnightblue" points="3472.18,-87.29 3462.27,-91.04 3472.35,-94.29 3472.18,-87.29"/>
</g>
<!-- Node23 -->
<g id="node10" class="node">
<title>Node23</title>
<g id="a_node10"><a xlink:href="AsmPrinter_8cpp.html" target="_top" xlink:title=" ">
<polygon fill="none" stroke="black" points="4588.5,-6 4588.5,-36 4721.5,-36 4721.5,-6 4588.5,-6"/>
<text text-anchor="start" x="4596.5" y="-24" font-family="Helvetica,sans-Serif" font-size="10.00">lib/CodeGen/AsmPrinter</text>
<text text-anchor="middle" x="4655" y="-13" font-family="Helvetica,sans-Serif" font-size="10.00">/AsmPrinter.cpp</text>
</a>
</g>
</g>
<!-- Node3&#45;&gt;Node23 -->
<g id="edge9" class="edge">
<title>Node3&#45;&gt;Node23</title>
<path fill="none" stroke="midnightblue" d="M3472.29,-91.43C3694.25,-87.84 4363.89,-74.53 4579,-42 4588.44,-40.57 4598.4,-38.43 4607.89,-36.07"/>
<polygon fill="midnightblue" stroke="midnightblue" points="3472.01,-87.94 3462.06,-91.6 3472.12,-94.94 3472.01,-87.94"/>
</g>
<!-- Node24 -->
<g id="node11" class="node">
<title>Node24</title>
<g id="a_node11"><a xlink:href="AsmPrinterInlineAsm_8cpp.html" target="_top" xlink:title=" ">
<polygon fill="none" stroke="black" points="4739.5,-6 4739.5,-36 4882.5,-36 4882.5,-6 4739.5,-6"/>
<text text-anchor="start" x="4747.5" y="-24" font-family="Helvetica,sans-Serif" font-size="10.00">lib/CodeGen/AsmPrinter</text>
<text text-anchor="middle" x="4811" y="-13" font-family="Helvetica,sans-Serif" font-size="10.00">/AsmPrinterInlineAsm.cpp</text>
</a>
</g>
</g>
<!-- Node3&#45;&gt;Node24 -->
<g id="edge10" class="edge">
<title>Node3&#45;&gt;Node24</title>
<path fill="none" stroke="midnightblue" d="M3472.43,-91.73C3713.11,-88.85 4484.86,-77.05 4731,-42 4740.92,-40.59 4751.4,-38.45 4761.39,-36.09"/>
<polygon fill="midnightblue" stroke="midnightblue" points="3472.34,-88.23 3462.39,-91.85 3472.43,-95.23 3472.34,-88.23"/>
</g>
<!-- Node25 -->
<g id="node12" class="node">
<title>Node25</title>
<g id="a_node12"><a xlink:href="DwarfDebug_8cpp.html" target="_top" xlink:title=" ">
<polygon fill="none" stroke="black" points="4900.5,-6 4900.5,-36 5033.5,-36 5033.5,-6 4900.5,-6"/>
<text text-anchor="start" x="4908.5" y="-24" font-family="Helvetica,sans-Serif" font-size="10.00">lib/CodeGen/AsmPrinter</text>
<text text-anchor="middle" x="4967" y="-13" font-family="Helvetica,sans-Serif" font-size="10.00">/DwarfDebug.cpp</text>
</a>
</g>
</g>
<!-- Node3&#45;&gt;Node25 -->
<g id="edge11" class="edge">
<title>Node3&#45;&gt;Node25</title>
<path fill="none" stroke="midnightblue" d="M3472.28,-92.22C3731.41,-90.89 4613.23,-83.34 4892,-42 4901.46,-40.6 4911.45,-38.43 4920.93,-36.04"/>
<polygon fill="midnightblue" stroke="midnightblue" points="3472.21,-88.72 3462.23,-92.27 3472.24,-95.72 3472.21,-88.72"/>
</g>
<!-- Node26 -->
<g id="node13" class="node">
<title>Node26</title>
<g id="a_node13"><a xlink:href="BasicBlockSections_8cpp.html" target="_top" xlink:title=" ">
<polygon fill="none" stroke="black" points="5052,-11.5 5052,-30.5 5246,-30.5 5246,-11.5 5052,-11.5"/>
<text text-anchor="middle" x="5149" y="-18.5" font-family="Helvetica,sans-Serif" font-size="10.00">lib/CodeGen/BasicBlockSections.cpp</text>
</a>
</g>
</g>
<!-- Node3&#45;&gt;Node26 -->
<g id="edge12" class="edge">
<title>Node3&#45;&gt;Node26</title>
<path fill="none" stroke="midnightblue" d="M3472.42,-91.78C3748.08,-88.78 4731.92,-75.92 5043,-42 5065.9,-39.5 5091.26,-34.79 5111.44,-30.56"/>
<polygon fill="midnightblue" stroke="midnightblue" points="3472.1,-88.28 3462.14,-91.89 3472.18,-95.28 3472.1,-88.28"/>
</g>
<!-- Node27 -->
<g id="node14" class="node">
<title>Node27</title>
<g id="a_node14"><a xlink:href="BranchFolding_8cpp.html" target="_top" xlink:title=" ">
<polygon fill="none" stroke="black" points="5264,-11.5 5264,-30.5 5432,-30.5 5432,-11.5 5264,-11.5"/>
<text text-anchor="middle" x="5348" y="-18.5" font-family="Helvetica,sans-Serif" font-size="10.00">lib/CodeGen/BranchFolding.cpp</text>
</a>
</g>
</g>
<!-- Node3&#45;&gt;Node27 -->
<g id="edge13" class="edge">
<title>Node3&#45;&gt;Node27</title>
<path fill="none" stroke="midnightblue" d="M3472.69,-92.31C3770.82,-91.27 4900.75,-84.54 5255,-42 5275.33,-39.56 5297.79,-34.79 5315.54,-30.52"/>
<polygon fill="midnightblue" stroke="midnightblue" points="3472.43,-88.81 3462.44,-92.35 3472.45,-95.81 3472.43,-88.81"/>
</g>
<!-- Node28 -->
<g id="node15" class="node">
<title>Node28</title>
<g id="a_node15"><a xlink:href="BranchRelaxation_8cpp.html" target="_top" xlink:title=" ">
<polygon fill="none" stroke="black" points="5450.5,-11.5 5450.5,-30.5 5635.5,-30.5 5635.5,-11.5 5450.5,-11.5"/>
<text text-anchor="middle" x="5543" y="-18.5" font-family="Helvetica,sans-Serif" font-size="10.00">lib/CodeGen/BranchRelaxation.cpp</text>
</a>
</g>
</g>
<!-- Node3&#45;&gt;Node28 -->
<g id="edge14" class="edge">
<title>Node3&#45;&gt;Node28</title>
<path fill="none" stroke="midnightblue" d="M3472.5,-92.35C3788.58,-91.43 5047.76,-85.1 5441,-42 5463.24,-39.56 5487.87,-34.79 5507.35,-30.52"/>
<polygon fill="midnightblue" stroke="midnightblue" points="3472.09,-88.85 3462.1,-92.38 3472.11,-95.85 3472.09,-88.85"/>
</g>
<!-- Node29 -->
<g id="node16" class="node">
<title>Node29</title>
<g id="a_node16"><a xlink:href="BreakFalseDeps_8cpp.html" target="_top" xlink:title=" ">
<polygon fill="none" stroke="black" points="5653.5,-11.5 5653.5,-30.5 5830.5,-30.5 5830.5,-11.5 5653.5,-11.5"/>
<text text-anchor="middle" x="5742" y="-18.5" font-family="Helvetica,sans-Serif" font-size="10.00">lib/CodeGen/BreakFalseDeps.cpp</text>
</a>
</g>
</g>
<!-- Node3&#45;&gt;Node29 -->
<g id="edge15" class="edge">
<title>Node3&#45;&gt;Node29</title>
<path fill="none" stroke="midnightblue" d="M3472.25,-92.63C3807.02,-92.98 5209.48,-91.39 5645,-42 5666.19,-39.6 5689.61,-34.83 5708.12,-30.55"/>
<polygon fill="midnightblue" stroke="midnightblue" points="3472.19,-89.13 3462.19,-92.62 3472.19,-96.13 3472.19,-89.13"/>
</g>
<!-- Node3&#45;&gt;Node30 -->
<g id="edge16" class="edge">
<title>Node3&#45;&gt;Node30</title>
<path fill="none" stroke="midnightblue" d="M3327.45,-91.14C3018.08,-85.24 1817.23,-61.28 1649,-42 1627.57,-39.54 1603.88,-34.83 1585.05,-30.6"/>
<polygon fill="midnightblue" stroke="midnightblue" points="3327.58,-94.64 3337.64,-91.33 3327.71,-87.64 3327.58,-94.64"/>
</g>
<!-- Node31 -->
<g id="node18" class="node">
<title>Node31</title>
<g id="a_node18"><a xlink:href="CFIInstrInserter_8cpp.html" target="_top" xlink:title=" ">
<polygon fill="none" stroke="black" points="5848.5,-11.5 5848.5,-30.5 6021.5,-30.5 6021.5,-11.5 5848.5,-11.5"/>
<text text-anchor="middle" x="5935" y="-18.5" font-family="Helvetica,sans-Serif" font-size="10.00">lib/CodeGen/CFIInstrInserter.cpp</text>
</a>
</g>
</g>
<!-- Node3&#45;&gt;Node31 -->
<g id="edge17" class="edge">
<title>Node3&#45;&gt;Node31</title>
<path fill="none" stroke="midnightblue" d="M3472.03,-91.81C3850.41,-88.09 5599.95,-69.51 5840,-42 5860.76,-39.62 5883.7,-34.85 5901.84,-30.57"/>
<polygon fill="midnightblue" stroke="midnightblue" points="3471.99,-88.31 3462.03,-91.91 3472.06,-95.31 3471.99,-88.31"/>
</g>
<!-- Node32 -->
<g id="node19" class="node">
<title>Node32</title>
<g id="a_node19"><a xlink:href="CriticalAntiDepBreaker_8cpp.html" target="_top" xlink:title=" ">
<polygon fill="none" stroke="black" points="6039.5,-6 6039.5,-36 6172.5,-36 6172.5,-6 6039.5,-6"/>
<text text-anchor="start" x="6047.5" y="-24" font-family="Helvetica,sans-Serif" font-size="10.00">lib/CodeGen/CriticalAnti</text>
<text text-anchor="middle" x="6106" y="-13" font-family="Helvetica,sans-Serif" font-size="10.00">DepBreaker.cpp</text>
</a>
</g>
</g>
<!-- Node3&#45;&gt;Node32 -->
<g id="edge18" class="edge">
<title>Node3&#45;&gt;Node32</title>
<path fill="none" stroke="midnightblue" d="M3472.5,-92.15C3869.52,-90.11 5771.9,-78.49 6031,-42 6040.61,-40.65 6050.74,-38.47 6060.35,-36.05"/>
<polygon fill="midnightblue" stroke="midnightblue" points="3472.27,-88.65 3462.29,-92.2 3472.31,-95.65 3472.27,-88.65"/>
</g>
<!-- Node33 -->
<g id="node20" class="node">
<title>Node33</title>
<g id="a_node20"><a xlink:href="DFAPacketizer_8cpp.html" target="_top" xlink:title=" ">
<polygon fill="none" stroke="black" points="6190.5,-11.5 6190.5,-30.5 6357.5,-30.5 6357.5,-11.5 6190.5,-11.5"/>
<text text-anchor="middle" x="6274" y="-18.5" font-family="Helvetica,sans-Serif" font-size="10.00">lib/CodeGen/DFAPacketizer.cpp</text>
</a>
</g>
</g>
<!-- Node3&#45;&gt;Node33 -->
<g id="edge19" class="edge">
<title>Node3&#45;&gt;Node33</title>
<path fill="none" stroke="midnightblue" d="M3472.29,-92.04C3882.23,-89.29 5906.23,-74.16 6182,-42 6202.13,-39.65 6224.35,-34.89 6241.9,-30.6"/>
<polygon fill="midnightblue" stroke="midnightblue" points="3472.03,-88.54 3462.05,-92.1 3472.08,-95.54 3472.03,-88.54"/>
</g>
<!-- Node34 -->
<g id="node21" class="node">
<title>Node34</title>
<g id="a_node21"><a xlink:href="EarlyIfConversion_8cpp.html" target="_top" xlink:title=" ">
<polygon fill="none" stroke="black" points="6375.5,-11.5 6375.5,-30.5 6560.5,-30.5 6560.5,-11.5 6375.5,-11.5"/>
<text text-anchor="middle" x="6468" y="-18.5" font-family="Helvetica,sans-Serif" font-size="10.00">lib/CodeGen/EarlyIfConversion.cpp</text>
</a>
</g>
</g>
<!-- Node3&#45;&gt;Node34 -->
<g id="edge20" class="edge">
<title>Node3&#45;&gt;Node34</title>
<path fill="none" stroke="midnightblue" d="M3472.27,-92.04C3898.11,-89.25 6071.48,-73.52 6367,-42 6389.04,-39.65 6413.43,-34.88 6432.71,-30.59"/>
<polygon fill="midnightblue" stroke="midnightblue" points="3472.22,-88.54 3462.24,-92.11 3472.26,-95.54 3472.22,-88.54"/>
</g>
<!-- Node35 -->
<g id="node22" class="node">
<title>Node35</title>
<g id="a_node22"><a xlink:href="ExecutionDomainFix_8cpp.html" target="_top" xlink:title=" ">
<polygon fill="none" stroke="black" points="6579,-6 6579,-36 6743,-36 6743,-6 6579,-6"/>
<text text-anchor="start" x="6587" y="-24" font-family="Helvetica,sans-Serif" font-size="10.00">lib/CodeGen/ExecutionDomain</text>
<text text-anchor="middle" x="6661" y="-13" font-family="Helvetica,sans-Serif" font-size="10.00">Fix.cpp</text>
</a>
</g>
</g>
<!-- Node3&#45;&gt;Node35 -->
<g id="edge21" class="edge">
<title>Node3&#45;&gt;Node35</title>
<path fill="none" stroke="midnightblue" d="M3472.45,-91.76C3930.57,-87.01 6411.26,-60.52 6570,-42 6581.57,-40.65 6593.83,-38.48 6605.47,-36.05"/>
<polygon fill="midnightblue" stroke="midnightblue" points="3472.29,-88.26 3462.32,-91.86 3472.36,-95.26 3472.29,-88.26"/>
</g>
<!-- Node36 -->
<g id="node23" class="node">
<title>Node36</title>
<g id="a_node23"><a xlink:href="ExpandPostRAPseudos_8cpp.html" target="_top" xlink:title=" ">
<polygon fill="none" stroke="black" points="1658,-11.5 1658,-30.5 1868,-30.5 1868,-11.5 1658,-11.5"/>
<text text-anchor="middle" x="1763" y="-18.5" font-family="Helvetica,sans-Serif" font-size="10.00">lib/CodeGen/ExpandPostRAPseudos.cpp</text>
</a>
</g>
</g>
<!-- Node3&#45;&gt;Node36 -->
<g id="edge22" class="edge">
<title>Node3&#45;&gt;Node36</title>
<path fill="none" stroke="midnightblue" d="M3327.67,-91.45C3065.24,-87.43 2163.61,-71.74 1877,-42 1852.42,-39.45 1825.14,-34.73 1803.43,-30.52"/>
<polygon fill="midnightblue" stroke="midnightblue" points="3327.79,-94.95 3337.84,-91.61 3327.9,-87.95 3327.79,-94.95"/>
</g>
<!-- Node37 -->
<g id="node24" class="node">
<title>Node37</title>
<g id="a_node24"><a xlink:href="FEntryInserter_8cpp.html" target="_top" xlink:title=" ">
<polygon fill="none" stroke="black" points="1886.5,-11.5 1886.5,-30.5 2053.5,-30.5 2053.5,-11.5 1886.5,-11.5"/>
<text text-anchor="middle" x="1970" y="-18.5" font-family="Helvetica,sans-Serif" font-size="10.00">lib/CodeGen/FEntryInserter.cpp</text>
</a>
</g>
</g>
<!-- Node3&#45;&gt;Node37 -->
<g id="edge23" class="edge">
<title>Node3&#45;&gt;Node37</title>
<path fill="none" stroke="midnightblue" d="M3327.65,-91.45C3086.3,-87.69 2310.1,-73.4 2062,-42 2042.05,-39.48 2020.04,-34.76 2002.54,-30.54"/>
<polygon fill="midnightblue" stroke="midnightblue" points="3327.66,-94.95 3337.71,-91.61 3327.77,-87.95 3327.66,-94.95"/>
</g>
<!-- Node38 -->
<g id="node25" class="node">
<title>Node38</title>
<g id="a_node25"><a xlink:href="FixupStatepointCallerSaved_8cpp.html" target="_top" xlink:title="Statepoint instruction in deopt parameters contains values which are meaningful to the runtime and sh...">
<polygon fill="none" stroke="black" points="2071.5,-6 2071.5,-36 2226.5,-36 2226.5,-6 2071.5,-6"/>
<text text-anchor="start" x="2079.5" y="-24" font-family="Helvetica,sans-Serif" font-size="10.00">lib/CodeGen/FixupStatepoint</text>
<text text-anchor="middle" x="2149" y="-13" font-family="Helvetica,sans-Serif" font-size="10.00">CallerSaved.cpp</text>
</a>
</g>
</g>
<!-- Node3&#45;&gt;Node38 -->
<g id="edge24" class="edge">
<title>Node3&#45;&gt;Node38</title>
<path fill="none" stroke="midnightblue" d="M3327.52,-91.09C3107.36,-86.53 2448.48,-70.79 2236,-42 2225.25,-40.54 2213.87,-38.39 2203.02,-36.03"/>
<polygon fill="midnightblue" stroke="midnightblue" points="3327.6,-94.59 3337.67,-91.3 3327.75,-87.59 3327.6,-94.59"/>
</g>
<!-- Node39 -->
<g id="node26" class="node">
<title>Node39</title>
<g id="a_node26"><a xlink:href="GCRootLowering_8cpp.html" target="_top" xlink:title=" ">
<polygon fill="none" stroke="black" points="2245,-11.5 2245,-30.5 2425,-30.5 2425,-11.5 2245,-11.5"/>
<text text-anchor="middle" x="2335" y="-18.5" font-family="Helvetica,sans-Serif" font-size="10.00">lib/CodeGen/GCRootLowering.cpp</text>
</a>
</g>
</g>
<!-- Node3&#45;&gt;Node39 -->
<g id="edge25" class="edge">
<title>Node3&#45;&gt;Node39</title>
<path fill="none" stroke="midnightblue" d="M3327.58,-92.34C3166.37,-91.2 2765.97,-83.98 2434,-42 2412.95,-39.34 2389.68,-34.72 2371,-30.6"/>
<polygon fill="midnightblue" stroke="midnightblue" points="3327.82,-95.85 3337.84,-92.41 3327.87,-88.85 3327.82,-95.85"/>
</g>
<!-- Node40 -->
<g id="node27" class="node">
<title>Node40</title>
<g id="a_node27"><a xlink:href="CombinerHelper_8cpp.html" target="_top" xlink:title=" ">
<polygon fill="none" stroke="black" points="2443,-6 2443,-36 2571,-36 2571,-6 2443,-6"/>
<text text-anchor="start" x="2451" y="-24" font-family="Helvetica,sans-Serif" font-size="10.00">lib/CodeGen/GlobalISel</text>
<text text-anchor="middle" x="2507" y="-13" font-family="Helvetica,sans-Serif" font-size="10.00">/CombinerHelper.cpp</text>
</a>
</g>
</g>
<!-- Node3&#45;&gt;Node40 -->
<g id="edge26" class="edge">
<title>Node3&#45;&gt;Node40</title>
<path fill="none" stroke="midnightblue" d="M3327.79,-93.02C3184.27,-92.96 2853.44,-87.38 2580,-42 2571.06,-40.52 2561.63,-38.38 2552.63,-36.05"/>
<polygon fill="midnightblue" stroke="midnightblue" points="3327.79,-96.52 3337.79,-93.02 3327.79,-89.52 3327.79,-96.52"/>
</g>
<!-- Node41 -->
<g id="node28" class="node">
<title>Node41</title>
<g id="a_node28"><a xlink:href="InstructionSelect_8cpp.html" target="_top" xlink:title="This file implements the InstructionSelect class.">
<polygon fill="none" stroke="black" points="2589,-6 2589,-36 2717,-36 2717,-6 2589,-6"/>
<text text-anchor="start" x="2597" y="-24" font-family="Helvetica,sans-Serif" font-size="10.00">lib/CodeGen/GlobalISel</text>
<text text-anchor="middle" x="2653" y="-13" font-family="Helvetica,sans-Serif" font-size="10.00">/InstructionSelect.cpp</text>
</a>
</g>
</g>
<!-- Node3&#45;&gt;Node41 -->
<g id="edge27" class="edge">
<title>Node3&#45;&gt;Node41</title>
<path fill="none" stroke="midnightblue" d="M3327.58,-91.63C3203.53,-89.14 2942.78,-79.46 2726,-42 2717.19,-40.48 2707.92,-38.35 2699.04,-36.05"/>
<polygon fill="midnightblue" stroke="midnightblue" points="3327.65,-95.14 3337.72,-91.83 3327.78,-88.14 3327.65,-95.14"/>
</g>
<!-- Node42 -->
<g id="node29" class="node">
<title>Node42</title>
<g id="a_node29"><a xlink:href="IRTranslator_8cpp.html" target="_top" xlink:title="This file implements the IRTranslator class.">
<polygon fill="none" stroke="black" points="2735,-6 2735,-36 2863,-36 2863,-6 2735,-6"/>
<text text-anchor="start" x="2743" y="-24" font-family="Helvetica,sans-Serif" font-size="10.00">lib/CodeGen/GlobalISel</text>
<text text-anchor="middle" x="2799" y="-13" font-family="Helvetica,sans-Serif" font-size="10.00">/IRTranslator.cpp</text>
</a>
</g>
</g>
<!-- Node3&#45;&gt;Node42 -->
<g id="edge28" class="edge">
<title>Node3&#45;&gt;Node42</title>
<path fill="none" stroke="midnightblue" d="M3327.53,-89.52C3225.28,-84.42 3033.12,-71.55 2872,-42 2863.34,-40.41 2854.21,-38.29 2845.46,-36.01"/>
<polygon fill="midnightblue" stroke="midnightblue" points="3327.59,-93.02 3337.74,-90.02 3327.93,-86.03 3327.59,-93.02"/>
</g>
<!-- Node43 -->
<g id="node30" class="node">
<title>Node43</title>
<g id="a_node30"><a xlink:href="LegalizerHelper_8cpp.html" target="_top" xlink:title=" ">
<polygon fill="none" stroke="black" points="2881,-6 2881,-36 3009,-36 3009,-6 2881,-6"/>
<text text-anchor="start" x="2889" y="-24" font-family="Helvetica,sans-Serif" font-size="10.00">lib/CodeGen/GlobalISel</text>
<text text-anchor="middle" x="2945" y="-13" font-family="Helvetica,sans-Serif" font-size="10.00">/LegalizerHelper.cpp</text>
</a>
</g>
</g>
<!-- Node3&#45;&gt;Node43 -->
<g id="edge29" class="edge">
<title>Node3&#45;&gt;Node43</title>
<path fill="none" stroke="midnightblue" d="M3327.61,-85.89C3250.42,-78.16 3124.84,-63.59 3018,-42 3009.76,-40.33 3001.07,-38.25 2992.68,-36.06"/>
<polygon fill="midnightblue" stroke="midnightblue" points="3327.41,-89.39 3337.71,-86.89 3328.1,-82.42 3327.41,-89.39"/>
</g>
<!-- Node44 -->
<g id="node31" class="node">
<title>Node44</title>
<g id="a_node31"><a xlink:href="MachineIRBuilder_8cpp.html" target="_top" xlink:title="This file implements the MachineIRBuidler class.">
<polygon fill="none" stroke="black" points="3027,-6 3027,-36 3155,-36 3155,-6 3027,-6"/>
<text text-anchor="start" x="3035" y="-24" font-family="Helvetica,sans-Serif" font-size="10.00">lib/CodeGen/GlobalISel</text>
<text text-anchor="middle" x="3091" y="-13" font-family="Helvetica,sans-Serif" font-size="10.00">/MachineIRBuilder.cpp</text>
</a>
</g>
</g>
<!-- Node3&#45;&gt;Node44 -->
<g id="edge30" class="edge">
<title>Node3&#45;&gt;Node44</title>
<path fill="none" stroke="midnightblue" d="M3327.62,-78.12C3280.8,-68.54 3218.61,-55.31 3164,-42 3156.47,-40.16 3148.53,-38.11 3140.77,-36.04"/>
<polygon fill="midnightblue" stroke="midnightblue" points="3327.17,-81.6 3337.67,-80.17 3328.57,-74.74 3327.17,-81.6"/>
</g>
<!-- Node45 -->
<g id="node32" class="node">
<title>Node45</title>
<g id="a_node32"><a xlink:href="CodeGen_2GlobalISel_2Utils_8cpp.html" target="_top" xlink:title=" ">
<polygon fill="none" stroke="black" points="3173,-6 3173,-36 3301,-36 3301,-6 3173,-6"/>
<text text-anchor="start" x="3181" y="-24" font-family="Helvetica,sans-Serif" font-size="10.00">lib/CodeGen/GlobalISel</text>
<text text-anchor="middle" x="3237" y="-13" font-family="Helvetica,sans-Serif" font-size="10.00">/Utils.cpp</text>
</a>
</g>
</g>
<!-- Node3&#45;&gt;Node45 -->
<g id="edge31" class="edge">
<title>Node3&#45;&gt;Node45</title>
<path fill="none" stroke="midnightblue" d="M3358.02,-74.34C3330.46,-62.42 3294.95,-47.07 3269.54,-36.07"/>
<polygon fill="midnightblue" stroke="midnightblue" points="3356.84,-77.65 3367.41,-78.4 3359.62,-71.22 3356.84,-77.65"/>
</g>
<!-- Node46 -->
<g id="node33" class="node">
<title>Node46</title>
<g id="a_node33"><a xlink:href="IfConversion_8cpp.html" target="_top" xlink:title=" ">
<polygon fill="none" stroke="black" points="3319.5,-11.5 3319.5,-30.5 3480.5,-30.5 3480.5,-11.5 3319.5,-11.5"/>
<text text-anchor="middle" x="3400" y="-18.5" font-family="Helvetica,sans-Serif" font-size="10.00">lib/CodeGen/IfConversion.cpp</text>
</a>
</g>
</g>
<!-- Node3&#45;&gt;Node46 -->
<g id="edge32" class="edge">
<title>Node3&#45;&gt;Node46</title>
<path fill="none" stroke="midnightblue" d="M3400,-68.09C3400,-55.21 3400,-40.2 3400,-30.89"/>
<polygon fill="midnightblue" stroke="midnightblue" points="3396.5,-68.23 3400,-78.23 3403.5,-68.23 3396.5,-68.23"/>
</g>
<!-- Node47 -->
<g id="node34" class="node">
<title>Node47</title>
<g id="a_node34"><a xlink:href="ImplicitNullChecks_8cpp.html" target="_top" xlink:title=" ">
<polygon fill="none" stroke="black" points="3498.5,-6 3498.5,-36 3633.5,-36 3633.5,-6 3498.5,-6"/>
<text text-anchor="start" x="3506.5" y="-24" font-family="Helvetica,sans-Serif" font-size="10.00">lib/CodeGen/ImplicitNull</text>
<text text-anchor="middle" x="3566" y="-13" font-family="Helvetica,sans-Serif" font-size="10.00">Checks.cpp</text>
</a>
</g>
</g>
<!-- Node3&#45;&gt;Node47 -->
<g id="edge33" class="edge">
<title>Node3&#45;&gt;Node47</title>
<path fill="none" stroke="midnightblue" d="M3442.75,-74.34C3470.82,-62.42 3506.98,-47.07 3532.86,-36.07"/>
<polygon fill="midnightblue" stroke="midnightblue" points="3441.03,-71.27 3433.19,-78.4 3443.77,-77.72 3441.03,-71.27"/>
</g>
<!-- Node3&#45;&gt;Node48 -->
<g id="edge34" class="edge">
<title>Node3&#45;&gt;Node48</title>
<path fill="none" stroke="midnightblue" d="M3327.53,-91.25C3178.54,-88.7 2827.06,-82.71 2532,-78 2269,-73.8 426.12,-73.64 165,-42 145.77,-39.67 124.57,-34.85 107.92,-30.52"/>
<polygon fill="midnightblue" stroke="midnightblue" points="3327.84,-94.76 3337.9,-91.43 3327.96,-87.76 3327.84,-94.76"/>
</g>
<!-- Node3&#45;&gt;Node51 -->
<g id="edge35" class="edge">
<title>Node3&#45;&gt;Node51</title>
<path fill="none" stroke="midnightblue" d="M3327.8,-91.29C2869,-83.62 379,-42 379,-42 355.69,-39.64 329.85,-34.88 309.41,-30.59"/>
<polygon fill="midnightblue" stroke="midnightblue" points="3327.88,-94.79 3337.94,-91.46 3328,-87.8 3327.88,-94.79"/>
</g>
<!-- Node3&#45;&gt;Node52 -->
<g id="edge36" class="edge">
<title>Node3&#45;&gt;Node52</title>
<path fill="none" stroke="midnightblue" d="M3327.9,-91.26C2888.11,-83.7 584.68,-44.02 567,-42 546.44,-39.65 523.75,-34.89 505.81,-30.6"/>
<polygon fill="midnightblue" stroke="midnightblue" points="3327.89,-94.76 3337.94,-91.43 3328.01,-87.76 3327.89,-94.76"/>
</g>
<!-- Node3&#45;&gt;Node86 -->
<g id="edge37" class="edge">
<title>Node3&#45;&gt;Node86</title>
<path fill="none" stroke="midnightblue" d="M3327.65,-91.3C2910.3,-84.35 826.56,-49.32 761,-42 739.81,-39.63 716.39,-34.87 697.87,-30.58"/>
<polygon fill="midnightblue" stroke="midnightblue" points="3327.72,-94.8 3337.78,-91.47 3327.84,-87.8 3327.72,-94.8"/>
</g>
<!-- Node3&#45;&gt;Node104 -->
<g id="edge38" class="edge">
<title>Node3&#45;&gt;Node104</title>
<path fill="none" stroke="midnightblue" d="M3327.66,-91.27C2924.84,-84.37 974.35,-50.57 913,-42 896.24,-39.66 877.89,-34.89 863.42,-30.6"/>
<polygon fill="midnightblue" stroke="midnightblue" points="3327.67,-94.77 3337.72,-91.44 3327.79,-87.77 3327.67,-94.77"/>
</g>
<!-- Node3&#45;&gt;Node108 -->
<g id="edge39" class="edge">
<title>Node3&#45;&gt;Node108</title>
<path fill="none" stroke="midnightblue" d="M3327.78,-91.36C2947.97,-85.3 1194.92,-56.63 1081,-42 1070.29,-40.62 1058.97,-38.44 1048.21,-36.01"/>
<polygon fill="midnightblue" stroke="midnightblue" points="3327.77,-94.86 3337.82,-91.52 3327.88,-87.86 3327.77,-94.86"/>
</g>
<!-- Node3&#45;&gt;Node112 -->
<g id="edge40" class="edge">
<title>Node3&#45;&gt;Node112</title>
<path fill="none" stroke="midnightblue" d="M3327.72,-91.21C2965.39,-84.69 1359.88,-55.15 1255,-42 1235.93,-39.61 1214.92,-34.84 1198.33,-30.56"/>
<polygon fill="midnightblue" stroke="midnightblue" points="3327.76,-94.71 3337.82,-91.39 3327.89,-87.71 3327.76,-94.71"/>
</g>
<!-- Node3&#45;&gt;Node273 -->
<g id="edge41" class="edge">
<title>Node3&#45;&gt;Node273</title>
<path fill="none" stroke="midnightblue" d="M3327.58,-91.38C2997.07,-86.15 1639.8,-63.54 1451,-42 1438.75,-40.6 1425.76,-38.44 1413.38,-36.05"/>
<polygon fill="midnightblue" stroke="midnightblue" points="3327.93,-94.88 3337.98,-91.54 3328.04,-87.88 3327.93,-94.88"/>
</g>
<!-- Node3&#45;&gt;Node752 -->
<g id="edge42" class="edge">
<title>Node3&#45;&gt;Node752</title>
<path fill="none" stroke="midnightblue" d="M3472.42,-91.8C3945.69,-87.18 6583.54,-60.64 6752,-42 6773.15,-39.66 6796.54,-34.84 6814.93,-30.51"/>
<polygon fill="midnightblue" stroke="midnightblue" points="3472.27,-88.3 3462.3,-91.9 3472.33,-95.3 3472.27,-88.3"/>
</g>
</g>
</svg>
