<?xml version="1.0" encoding="UTF-8" standalone="no"?>
<!DOCTYPE svg PUBLIC "-//W3C//DTD SVG 1.1//EN"
 "http://www.w3.org/Graphics/SVG/1.1/DTD/svg11.dtd">
<!-- Generated by graphviz version 2.42.4 (0)
 -->
<!-- Title: include/llvm/DebugInfo/CodeView/TypeIndexDiscovery.h Pages: 1 -->
<svg width="3703pt" height="822pt"
 viewBox="0.00 0.00 3703.00 822.00" xmlns="http://www.w3.org/2000/svg" xmlns:xlink="http://www.w3.org/1999/xlink">
<g id="graph0" class="graph" transform="scale(1 1) rotate(0) translate(4 818)">
<title>include/llvm/DebugInfo/CodeView/TypeIndexDiscovery.h</title>
<!-- Node1 -->
<g id="node1" class="node">
<title>Node1</title>
<g id="a_node1"><a xlink:title=" ">
<polygon fill="#bfbfbf" stroke="black" points="977.5,-783.5 977.5,-813.5 1154.5,-813.5 1154.5,-783.5 977.5,-783.5"/>
<text text-anchor="start" x="985.5" y="-801.5" font-family="Helvetica,sans-Serif" font-size="10.00">include/llvm/DebugInfo</text>
<text text-anchor="middle" x="1066" y="-790.5" font-family="Helvetica,sans-Serif" font-size="10.00">/CodeView/TypeIndexDiscovery.h</text>
</a>
</g>
</g>
<!-- Node2 -->
<g id="node2" class="node">
<title>Node2</title>
<g id="a_node2"><a xlink:href="SmallVector_8h.html" target="_top" xlink:title=" ">
<polygon fill="none" stroke="black" points="2455.5,-280.5 2455.5,-299.5 2586.5,-299.5 2586.5,-280.5 2455.5,-280.5"/>
<text text-anchor="middle" x="2521" y="-287.5" font-family="Helvetica,sans-Serif" font-size="10.00">llvm/ADT/SmallVector.h</text>
</a>
</g>
</g>
<!-- Node1&#45;&gt;Node2 -->
<g id="edge1" class="edge">
<title>Node1&#45;&gt;Node2</title>
<path fill="none" stroke="midnightblue" d="M1154.6,-797.11C1575.53,-794.66 3353,-777.7 3353,-665.5 3353,-665.5 3353,-665.5 3353,-412 3353,-335.97 2801.86,-303.55 2596.72,-294.11"/>
<polygon fill="midnightblue" stroke="midnightblue" points="2596.78,-290.61 2586.63,-293.65 2596.46,-297.6 2596.78,-290.61"/>
</g>
<!-- Node24 -->
<g id="node24" class="node">
<title>Node24</title>
<g id="a_node24"><a xlink:href="CVRecord_8h.html" target="_top" xlink:title=" ">
<polygon fill="none" stroke="black" points="1631.5,-716.5 1631.5,-746.5 1774.5,-746.5 1774.5,-716.5 1631.5,-716.5"/>
<text text-anchor="start" x="1639.5" y="-734.5" font-family="Helvetica,sans-Serif" font-size="10.00">llvm/DebugInfo/CodeView</text>
<text text-anchor="middle" x="1703" y="-723.5" font-family="Helvetica,sans-Serif" font-size="10.00">/CVRecord.h</text>
</a>
</g>
</g>
<!-- Node1&#45;&gt;Node24 -->
<g id="edge31" class="edge">
<title>Node1&#45;&gt;Node24</title>
<path fill="none" stroke="midnightblue" d="M1154.57,-788.46C1278.31,-775.84 1501.18,-753.09 1621.18,-740.85"/>
<polygon fill="midnightblue" stroke="midnightblue" points="1621.81,-744.3 1631.41,-739.81 1621.1,-737.34 1621.81,-744.3"/>
</g>
<!-- Node51 -->
<g id="node36" class="node">
<title>Node51</title>
<g id="a_node36"><a xlink:href="llvm_2Support_2Error_8h.html" target="_top" xlink:title=" ">
<polygon fill="none" stroke="black" points="1556.5,-459.5 1556.5,-478.5 1669.5,-478.5 1669.5,-459.5 1556.5,-459.5"/>
<text text-anchor="middle" x="1613" y="-466.5" font-family="Helvetica,sans-Serif" font-size="10.00">llvm/Support/Error.h</text>
</a>
</g>
</g>
<!-- Node1&#45;&gt;Node51 -->
<g id="edge183" class="edge">
<title>Node1&#45;&gt;Node51</title>
<path fill="none" stroke="midnightblue" d="M1083.25,-783.33C1138.38,-738.59 1316.46,-598.41 1483,-515 1511.28,-500.84 1545.09,-489.29 1571.14,-481.43"/>
<polygon fill="midnightblue" stroke="midnightblue" points="1572.47,-484.69 1581.07,-478.5 1570.49,-477.98 1572.47,-484.69"/>
</g>
<!-- Node80 -->
<g id="node49" class="node">
<title>Node80</title>
<g id="a_node49"><a xlink:href="TypeIndex_8h.html" target="_top" xlink:title=" ">
<polygon fill="none" stroke="black" points="571.5,-336.5 571.5,-366.5 714.5,-366.5 714.5,-336.5 571.5,-336.5"/>
<text text-anchor="start" x="579.5" y="-354.5" font-family="Helvetica,sans-Serif" font-size="10.00">llvm/DebugInfo/CodeView</text>
<text text-anchor="middle" x="643" y="-343.5" font-family="Helvetica,sans-Serif" font-size="10.00">/TypeIndex.h</text>
</a>
</g>
</g>
<!-- Node1&#45;&gt;Node80 -->
<g id="edge172" class="edge">
<title>Node1&#45;&gt;Node80</title>
<path fill="none" stroke="midnightblue" d="M977.5,-790.26C786.55,-773.44 353,-728.33 353,-665.5 353,-665.5 353,-665.5 353,-529.5 353,-431.34 475.54,-386.01 561.31,-366.3"/>
<polygon fill="midnightblue" stroke="midnightblue" points="562.31,-369.66 571.31,-364.07 560.79,-362.83 562.31,-369.66"/>
</g>
<!-- Node3 -->
<g id="node3" class="node">
<title>Node3</title>
<g id="a_node3"><a xlink:href="iterator__range_8h.html" target="_top" xlink:title="This provides a very simple, boring adaptor for a begin and end iterator into a range type.">
<polygon fill="none" stroke="black" points="1704.5,-224.5 1704.5,-243.5 1847.5,-243.5 1847.5,-224.5 1704.5,-224.5"/>
<text text-anchor="middle" x="1776" y="-231.5" font-family="Helvetica,sans-Serif" font-size="10.00">llvm/ADT/iterator_range.h</text>
</a>
</g>
</g>
<!-- Node2&#45;&gt;Node3 -->
<g id="edge2" class="edge">
<title>Node2&#45;&gt;Node3</title>
<path fill="none" stroke="midnightblue" d="M2455.46,-285.31C2336.93,-278.46 2079.08,-262.76 1862,-244 1860.7,-243.89 1859.38,-243.77 1858.06,-243.65"/>
<polygon fill="midnightblue" stroke="midnightblue" points="1858.06,-240.14 1847.78,-242.71 1857.41,-247.11 1858.06,-240.14"/>
</g>
<!-- Node4 -->
<g id="node4" class="node">
<title>Node4</title>
<g id="a_node4"><a xlink:title=" ">
<polygon fill="none" stroke="#bfbfbf" points="1717.5,-56.5 1717.5,-75.5 1762.5,-75.5 1762.5,-56.5 1717.5,-56.5"/>
<text text-anchor="middle" x="1740" y="-63.5" font-family="Helvetica,sans-Serif" font-size="10.00">utility</text>
</a>
</g>
</g>
<!-- Node2&#45;&gt;Node4 -->
<g id="edge30" class="edge">
<title>Node2&#45;&gt;Node4</title>
<path fill="none" stroke="midnightblue" d="M2539.39,-280.47C2553.1,-273 2570.81,-260.71 2579,-244 2592.61,-216.21 2552.3,-168.99 2551,-168 2425.64,-72.97 1908.97,-66.79 1772.94,-66.84"/>
<polygon fill="midnightblue" stroke="midnightblue" points="1772.74,-63.34 1762.74,-66.85 1772.75,-70.34 1772.74,-63.34"/>
</g>
<!-- Node5 -->
<g id="node5" class="node">
<title>Node5</title>
<g id="a_node5"><a xlink:href="Compiler_8h.html" target="_top" xlink:title=" ">
<polygon fill="none" stroke="black" points="2852,-56.5 2852,-75.5 2986,-75.5 2986,-56.5 2852,-56.5"/>
<text text-anchor="middle" x="2919" y="-63.5" font-family="Helvetica,sans-Serif" font-size="10.00">llvm/Support/Compiler.h</text>
</a>
</g>
</g>
<!-- Node2&#45;&gt;Node5 -->
<g id="edge4" class="edge">
<title>Node2&#45;&gt;Node5</title>
<path fill="none" stroke="midnightblue" d="M2586.73,-280.96C2621.76,-274.62 2664.59,-263.45 2699,-244 2708.06,-238.88 2823.59,-118.13 2832,-112 2849.74,-99.08 2871.72,-87.74 2889.14,-79.68"/>
<polygon fill="midnightblue" stroke="midnightblue" points="2890.62,-82.86 2898.3,-75.55 2887.74,-76.47 2890.62,-82.86"/>
</g>
<!-- Node8 -->
<g id="node8" class="node">
<title>Node8</title>
<g id="a_node8"><a xlink:href="llvm_2Support_2ErrorHandling_8h.html" target="_top" xlink:title=" ">
<polygon fill="none" stroke="black" points="3319,-112.5 3319,-131.5 3477,-131.5 3477,-112.5 3319,-112.5"/>
<text text-anchor="middle" x="3398" y="-119.5" font-family="Helvetica,sans-Serif" font-size="10.00">llvm/Support/ErrorHandling.h</text>
</a>
</g>
</g>
<!-- Node2&#45;&gt;Node8 -->
<g id="edge7" class="edge">
<title>Node2&#45;&gt;Node8</title>
<path fill="none" stroke="midnightblue" d="M2586.68,-288.11C2768.06,-285.27 3266.89,-274.73 3334,-244 3365.44,-229.6 3372.65,-218.98 3388,-188 3395.13,-173.61 3397.44,-155.42 3398.08,-141.94"/>
<polygon fill="midnightblue" stroke="midnightblue" points="3401.58,-141.99 3398.29,-131.92 3394.58,-141.84 3401.58,-141.99"/>
</g>
<!-- Node10 -->
<g id="node10" class="node">
<title>Node10</title>
<g id="a_node10"><a xlink:href="MemAlloc_8h.html" target="_top" xlink:title="This file defines counterparts of C library allocation functions defined in the namespace &#39;std&#39;.">
<polygon fill="none" stroke="black" points="3185,-224.5 3185,-243.5 3325,-243.5 3325,-224.5 3185,-224.5"/>
<text text-anchor="middle" x="3255" y="-231.5" font-family="Helvetica,sans-Serif" font-size="10.00">llvm/Support/MemAlloc.h</text>
</a>
</g>
</g>
<!-- Node2&#45;&gt;Node10 -->
<g id="edge10" class="edge">
<title>Node2&#45;&gt;Node10</title>
<path fill="none" stroke="midnightblue" d="M2586.78,-284.16C2721.49,-274.25 3028.31,-251.68 3174.57,-240.92"/>
<polygon fill="midnightblue" stroke="midnightblue" points="3175.1,-244.39 3184.82,-240.16 3174.59,-237.41 3175.1,-244.39"/>
</g>
<!-- Node11 -->
<g id="node11" class="node">
<title>Node11</title>
<g id="a_node11"><a xlink:title=" ">
<polygon fill="none" stroke="#bfbfbf" points="3109.5,-168.5 3109.5,-187.5 3158.5,-187.5 3158.5,-168.5 3109.5,-168.5"/>
<text text-anchor="middle" x="3134" y="-175.5" font-family="Helvetica,sans-Serif" font-size="10.00">cstdlib</text>
</a>
</g>
</g>
<!-- Node2&#45;&gt;Node11 -->
<g id="edge21" class="edge">
<title>Node2&#45;&gt;Node11</title>
<path fill="none" stroke="midnightblue" d="M2570.48,-280.5C2622.43,-271.54 2706.49,-256.96 2779,-244 2896.73,-222.96 3036.25,-197.16 3099.62,-185.39"/>
<polygon fill="midnightblue" stroke="midnightblue" points="3100.29,-188.83 3109.48,-183.56 3099.01,-181.95 3100.29,-188.83"/>
</g>
<!-- Node12 -->
<g id="node12" class="node">
<title>Node12</title>
<g id="a_node12"><a xlink:href="type__traits_8h.html" target="_top" xlink:title=" ">
<polygon fill="none" stroke="black" points="1928.5,-112.5 1928.5,-131.5 2071.5,-131.5 2071.5,-112.5 1928.5,-112.5"/>
<text text-anchor="middle" x="2000" y="-119.5" font-family="Helvetica,sans-Serif" font-size="10.00">llvm/Support/type_traits.h</text>
</a>
</g>
</g>
<!-- Node2&#45;&gt;Node12 -->
<g id="edge14" class="edge">
<title>Node2&#45;&gt;Node12</title>
<path fill="none" stroke="midnightblue" d="M2519.83,-280.14C2517.42,-265.78 2510.49,-237.65 2492,-224 2438.33,-184.4 2259.07,-202.67 2194,-188 2134.68,-174.62 2067.94,-150.07 2030.23,-135.27"/>
<polygon fill="midnightblue" stroke="midnightblue" points="2031.43,-131.98 2020.84,-131.55 2028.85,-138.49 2031.43,-131.98"/>
</g>
<!-- Node13 -->
<g id="node13" class="node">
<title>Node13</title>
<g id="a_node13"><a xlink:title=" ">
<polygon fill="none" stroke="#bfbfbf" points="341.5,-56.5 341.5,-75.5 410.5,-75.5 410.5,-56.5 341.5,-56.5"/>
<text text-anchor="middle" x="376" y="-63.5" font-family="Helvetica,sans-Serif" font-size="10.00">type_traits</text>
</a>
</g>
</g>
<!-- Node2&#45;&gt;Node13 -->
<g id="edge29" class="edge">
<title>Node2&#45;&gt;Node13</title>
<path fill="none" stroke="midnightblue" d="M2455.33,-286.99C2323.46,-282.47 2030.79,-269.8 1934,-244 1914.02,-238.68 1911.72,-230.2 1892,-224 1551.6,-117 1452.31,-144.78 1097,-112 841.47,-88.42 533.82,-73.79 420.6,-68.86"/>
<polygon fill="midnightblue" stroke="midnightblue" points="420.72,-65.36 410.58,-68.43 420.42,-72.36 420.72,-65.36"/>
</g>
<!-- Node14 -->
<g id="node14" class="node">
<title>Node14</title>
<g id="a_node14"><a xlink:title=" ">
<polygon fill="none" stroke="#bfbfbf" points="2841,-112.5 2841,-131.5 2905,-131.5 2905,-112.5 2841,-112.5"/>
<text text-anchor="middle" x="2873" y="-119.5" font-family="Helvetica,sans-Serif" font-size="10.00">algorithm</text>
</a>
</g>
</g>
<!-- Node2&#45;&gt;Node14 -->
<g id="edge18" class="edge">
<title>Node2&#45;&gt;Node14</title>
<path fill="none" stroke="midnightblue" d="M2562.84,-280.45C2587.21,-273.79 2617.29,-262.47 2639,-244 2668.72,-218.7 2651.68,-191.29 2683,-168 2726.39,-135.75 2789.46,-126.21 2830.85,-123.61"/>
<polygon fill="midnightblue" stroke="midnightblue" points="2831.07,-127.1 2840.88,-123.09 2830.71,-120.11 2831.07,-127.1"/>
</g>
<!-- Node15 -->
<g id="node15" class="node">
<title>Node15</title>
<g id="a_node15"><a xlink:title=" ">
<polygon fill="none" stroke="#bfbfbf" points="863,-112.5 863,-131.5 915,-131.5 915,-112.5 863,-112.5"/>
<text text-anchor="middle" x="889" y="-119.5" font-family="Helvetica,sans-Serif" font-size="10.00">cassert</text>
</a>
</g>
</g>
<!-- Node2&#45;&gt;Node15 -->
<g id="edge19" class="edge">
<title>Node2&#45;&gt;Node15</title>
<path fill="none" stroke="midnightblue" d="M2455.25,-287.24C2317.63,-283.07 2003.45,-270.84 1900,-244 1879.6,-238.71 1877.21,-230 1857,-224 1814.71,-211.45 1507.84,-172.83 1464,-168 1260.8,-145.59 1015.99,-130.3 925.18,-125.03"/>
<polygon fill="midnightblue" stroke="midnightblue" points="925.32,-121.53 915.13,-124.45 924.91,-128.52 925.32,-121.53"/>
</g>
<!-- Node16 -->
<g id="node16" class="node">
<title>Node16</title>
<g id="a_node16"><a xlink:title=" ">
<polygon fill="none" stroke="#bfbfbf" points="1278.5,-224.5 1278.5,-243.5 1331.5,-243.5 1331.5,-224.5 1278.5,-224.5"/>
<text text-anchor="middle" x="1305" y="-231.5" font-family="Helvetica,sans-Serif" font-size="10.00">cstddef</text>
</a>
</g>
</g>
<!-- Node2&#45;&gt;Node16 -->
<g id="edge20" class="edge">
<title>Node2&#45;&gt;Node16</title>
<path fill="none" stroke="midnightblue" d="M2455.31,-287.23C2284.21,-282.41 1810.72,-267.83 1417,-244 1391.9,-242.48 1363.68,-240.21 1341.85,-238.33"/>
<polygon fill="midnightblue" stroke="midnightblue" points="1341.95,-234.82 1331.68,-237.44 1341.34,-241.8 1341.95,-234.82"/>
</g>
<!-- Node17 -->
<g id="node17" class="node">
<title>Node17</title>
<g id="a_node17"><a xlink:title=" ">
<polygon fill="none" stroke="#bfbfbf" points="2181,-112.5 2181,-131.5 2231,-131.5 2231,-112.5 2181,-112.5"/>
<text text-anchor="middle" x="2206" y="-119.5" font-family="Helvetica,sans-Serif" font-size="10.00">cstring</text>
</a>
</g>
</g>
<!-- Node2&#45;&gt;Node17 -->
<g id="edge22" class="edge">
<title>Node2&#45;&gt;Node17</title>
<path fill="none" stroke="midnightblue" d="M2533.21,-280.24C2543.35,-272.14 2557.04,-259.11 2563,-244 2576.85,-208.87 2557.05,-187.98 2525,-168 2478.18,-138.82 2314.05,-127.89 2241.24,-124.41"/>
<polygon fill="midnightblue" stroke="midnightblue" points="2241.34,-120.91 2231.19,-123.95 2241.02,-127.9 2241.34,-120.91"/>
</g>
<!-- Node18 -->
<g id="node18" class="node">
<title>Node18</title>
<g id="a_node18"><a xlink:title=" ">
<polygon fill="none" stroke="#bfbfbf" points="1012.5,-224.5 1012.5,-243.5 1077.5,-243.5 1077.5,-224.5 1012.5,-224.5"/>
<text text-anchor="middle" x="1045" y="-231.5" font-family="Helvetica,sans-Serif" font-size="10.00">functional</text>
</a>
</g>
</g>
<!-- Node2&#45;&gt;Node18 -->
<g id="edge23" class="edge">
<title>Node2&#45;&gt;Node18</title>
<path fill="none" stroke="midnightblue" d="M2455.39,-287.31C2262.8,-282.23 1682.31,-266.09 1201,-244 1162.65,-242.24 1119.04,-239.68 1087.69,-237.73"/>
<polygon fill="midnightblue" stroke="midnightblue" points="1087.75,-234.23 1077.56,-237.1 1087.32,-241.22 1087.75,-234.23"/>
</g>
<!-- Node19 -->
<g id="node19" class="node">
<title>Node19</title>
<g id="a_node19"><a xlink:title=" ">
<polygon fill="none" stroke="#bfbfbf" points="2266.5,-224.5 2266.5,-243.5 2349.5,-243.5 2349.5,-224.5 2266.5,-224.5"/>
<text text-anchor="middle" x="2308" y="-231.5" font-family="Helvetica,sans-Serif" font-size="10.00">initializer_list</text>
</a>
</g>
</g>
<!-- Node2&#45;&gt;Node19 -->
<g id="edge24" class="edge">
<title>Node2&#45;&gt;Node19</title>
<path fill="none" stroke="midnightblue" d="M2487.25,-280.44C2450.48,-271.12 2391.55,-256.18 2351.38,-246"/>
<polygon fill="midnightblue" stroke="midnightblue" points="2352.15,-242.58 2341.59,-243.52 2350.43,-249.37 2352.15,-242.58"/>
</g>
<!-- Node20 -->
<g id="node20" class="node">
<title>Node20</title>
<g id="a_node20"><a xlink:title=" ">
<polygon fill="none" stroke="#bfbfbf" points="2367.5,-224.5 2367.5,-243.5 2420.5,-243.5 2420.5,-224.5 2367.5,-224.5"/>
<text text-anchor="middle" x="2394" y="-231.5" font-family="Helvetica,sans-Serif" font-size="10.00">iterator</text>
</a>
</g>
</g>
<!-- Node2&#45;&gt;Node20 -->
<g id="edge25" class="edge">
<title>Node2&#45;&gt;Node20</title>
<path fill="none" stroke="midnightblue" d="M2500.88,-280.44C2479.98,-271.56 2447.07,-257.56 2423.28,-247.45"/>
<polygon fill="midnightblue" stroke="midnightblue" points="2424.6,-244.21 2414.03,-243.52 2421.86,-250.65 2424.6,-244.21"/>
</g>
<!-- Node21 -->
<g id="node21" class="node">
<title>Node21</title>
<g id="a_node21"><a xlink:title=" ">
<polygon fill="none" stroke="#bfbfbf" points="2439,-224.5 2439,-243.5 2483,-243.5 2483,-224.5 2439,-224.5"/>
<text text-anchor="middle" x="2461" y="-231.5" font-family="Helvetica,sans-Serif" font-size="10.00">limits</text>
</a>
</g>
</g>
<!-- Node2&#45;&gt;Node21 -->
<g id="edge26" class="edge">
<title>Node2&#45;&gt;Node21</title>
<path fill="none" stroke="midnightblue" d="M2511.36,-280.32C2502.49,-272.34 2489.13,-260.31 2478.39,-250.65"/>
<polygon fill="midnightblue" stroke="midnightblue" points="2480.59,-247.92 2470.82,-243.83 2475.91,-253.13 2480.59,-247.92"/>
</g>
<!-- Node22 -->
<g id="node22" class="node">
<title>Node22</title>
<g id="a_node22"><a xlink:title=" ">
<polygon fill="none" stroke="#bfbfbf" points="2785,-168.5 2785,-187.5 2843,-187.5 2843,-168.5 2785,-168.5"/>
<text text-anchor="middle" x="2814" y="-175.5" font-family="Helvetica,sans-Serif" font-size="10.00">memory</text>
</a>
</g>
</g>
<!-- Node2&#45;&gt;Node22 -->
<g id="edge27" class="edge">
<title>Node2&#45;&gt;Node22</title>
<path fill="none" stroke="midnightblue" d="M2586.68,-287.01C2635.26,-283.07 2701.63,-272.35 2753,-244 2773.87,-232.48 2791.71,-211.29 2802.61,-196.24"/>
<polygon fill="midnightblue" stroke="midnightblue" points="2805.64,-198.01 2808.46,-187.8 2799.89,-194.02 2805.64,-198.01"/>
</g>
<!-- Node23 -->
<g id="node23" class="node">
<title>Node23</title>
<g id="a_node23"><a xlink:title=" ">
<polygon fill="none" stroke="#bfbfbf" points="2691.5,-168.5 2691.5,-187.5 2728.5,-187.5 2728.5,-168.5 2691.5,-168.5"/>
<text text-anchor="middle" x="2710" y="-175.5" font-family="Helvetica,sans-Serif" font-size="10.00">new</text>
</a>
</g>
</g>
<!-- Node2&#45;&gt;Node23 -->
<g id="edge28" class="edge">
<title>Node2&#45;&gt;Node23</title>
<path fill="none" stroke="midnightblue" d="M2586.55,-282.19C2616.82,-276.22 2651.58,-265.02 2677,-244 2691.46,-232.05 2700.23,-212.15 2705.06,-197.51"/>
<polygon fill="midnightblue" stroke="midnightblue" points="2708.53,-198.14 2708.02,-187.56 2701.82,-196.15 2708.53,-198.14"/>
</g>
<!-- Node3&#45;&gt;Node4 -->
<g id="edge3" class="edge">
<title>Node3&#45;&gt;Node4</title>
<path fill="none" stroke="midnightblue" d="M1774.06,-224.08C1768.4,-197.95 1751.76,-121.21 1744.03,-85.58"/>
<polygon fill="midnightblue" stroke="midnightblue" points="1747.4,-84.6 1741.86,-75.57 1740.56,-86.08 1747.4,-84.6"/>
</g>
<!-- Node6 -->
<g id="node6" class="node">
<title>Node6</title>
<g id="a_node6"><a xlink:title=" ">
<polygon fill="none" stroke="#bfbfbf" points="2791.5,-0.5 2791.5,-19.5 2930.5,-19.5 2930.5,-0.5 2791.5,-0.5"/>
<text text-anchor="middle" x="2861" y="-7.5" font-family="Helvetica,sans-Serif" font-size="10.00">llvm/Config/llvm&#45;config.h</text>
</a>
</g>
</g>
<!-- Node5&#45;&gt;Node6 -->
<g id="edge5" class="edge">
<title>Node5&#45;&gt;Node6</title>
<path fill="none" stroke="midnightblue" d="M2909.68,-56.32C2901.11,-48.34 2888.19,-36.31 2877.81,-26.65"/>
<polygon fill="midnightblue" stroke="midnightblue" points="2880.19,-24.09 2870.49,-19.83 2875.42,-29.21 2880.19,-24.09"/>
</g>
<!-- Node7 -->
<g id="node7" class="node">
<title>Node7</title>
<g id="a_node7"><a xlink:title=" ">
<polygon fill="none" stroke="#bfbfbf" points="2949,-0.5 2949,-19.5 3005,-19.5 3005,-0.5 2949,-0.5"/>
<text text-anchor="middle" x="2977" y="-7.5" font-family="Helvetica,sans-Serif" font-size="10.00">stddef.h</text>
</a>
</g>
</g>
<!-- Node5&#45;&gt;Node7 -->
<g id="edge6" class="edge">
<title>Node5&#45;&gt;Node7</title>
<path fill="none" stroke="midnightblue" d="M2928.32,-56.32C2936.89,-48.34 2949.81,-36.31 2960.19,-26.65"/>
<polygon fill="midnightblue" stroke="midnightblue" points="2962.58,-29.21 2967.51,-19.83 2957.81,-24.09 2962.58,-29.21"/>
</g>
<!-- Node8&#45;&gt;Node5 -->
<g id="edge8" class="edge">
<title>Node8&#45;&gt;Node5</title>
<path fill="none" stroke="midnightblue" d="M3322.37,-112.47C3233.26,-102.43 3086.03,-85.83 2996.24,-75.71"/>
<polygon fill="midnightblue" stroke="midnightblue" points="2996.45,-72.21 2986.12,-74.57 2995.67,-79.17 2996.45,-72.21"/>
</g>
<!-- Node9 -->
<g id="node9" class="node">
<title>Node9</title>
<g id="a_node9"><a xlink:title=" ">
<polygon fill="none" stroke="#bfbfbf" points="3540,-56.5 3540,-75.5 3584,-75.5 3584,-56.5 3540,-56.5"/>
<text text-anchor="middle" x="3562" y="-63.5" font-family="Helvetica,sans-Serif" font-size="10.00">string</text>
</a>
</g>
</g>
<!-- Node8&#45;&gt;Node9 -->
<g id="edge9" class="edge">
<title>Node8&#45;&gt;Node9</title>
<path fill="none" stroke="midnightblue" d="M3423.99,-112.44C3452.71,-102.99 3499.01,-87.74 3529.96,-77.55"/>
<polygon fill="midnightblue" stroke="midnightblue" points="3531.41,-80.76 3539.82,-74.3 3529.22,-74.11 3531.41,-80.76"/>
</g>
<!-- Node10&#45;&gt;Node5 -->
<g id="edge11" class="edge">
<title>Node10&#45;&gt;Node5</title>
<path fill="none" stroke="midnightblue" d="M3246.14,-224.2C3223.23,-201.94 3159.32,-142.98 3095,-112 3060.6,-95.43 3019.39,-84.47 2985.49,-77.52"/>
<polygon fill="midnightblue" stroke="midnightblue" points="2986.16,-74.08 2975.67,-75.58 2984.8,-80.95 2986.16,-74.08"/>
</g>
<!-- Node10&#45;&gt;Node8 -->
<g id="edge12" class="edge">
<title>Node10&#45;&gt;Node8</title>
<path fill="none" stroke="midnightblue" d="M3295.79,-224.43C3319.01,-217.79 3347.29,-206.5 3367,-188 3380.36,-175.45 3388.59,-155.95 3393.18,-141.59"/>
<polygon fill="midnightblue" stroke="midnightblue" points="3396.59,-142.37 3396,-131.8 3389.87,-140.43 3396.59,-142.37"/>
</g>
<!-- Node10&#45;&gt;Node11 -->
<g id="edge13" class="edge">
<title>Node10&#45;&gt;Node11</title>
<path fill="none" stroke="midnightblue" d="M3235.83,-224.44C3216.09,-215.64 3185.11,-201.81 3162.51,-191.72"/>
<polygon fill="midnightblue" stroke="midnightblue" points="3163.64,-188.4 3153.08,-187.52 3160.79,-194.79 3163.64,-188.4"/>
</g>
<!-- Node12&#45;&gt;Node4 -->
<g id="edge17" class="edge">
<title>Node12&#45;&gt;Node4</title>
<path fill="none" stroke="midnightblue" d="M1958.8,-112.44C1907.15,-101.72 1819.67,-83.55 1772.49,-73.75"/>
<polygon fill="midnightblue" stroke="midnightblue" points="1773.01,-70.28 1762.51,-71.67 1771.59,-77.14 1773.01,-70.28"/>
</g>
<!-- Node12&#45;&gt;Node5 -->
<g id="edge15" class="edge">
<title>Node12&#45;&gt;Node5</title>
<path fill="none" stroke="midnightblue" d="M2071.73,-116.79C2241.44,-106.81 2666.48,-81.84 2841.66,-71.54"/>
<polygon fill="midnightblue" stroke="midnightblue" points="2842.05,-75.03 2851.83,-70.95 2841.64,-68.04 2842.05,-75.03"/>
</g>
<!-- Node12&#45;&gt;Node13 -->
<g id="edge16" class="edge">
<title>Node12&#45;&gt;Node13</title>
<path fill="none" stroke="midnightblue" d="M1928.39,-118.62C1650.2,-109.37 645.64,-75.97 420.84,-68.49"/>
<polygon fill="midnightblue" stroke="midnightblue" points="420.84,-64.99 410.73,-68.15 420.61,-71.99 420.84,-64.99"/>
</g>
<!-- Node25 -->
<g id="node25" class="node">
<title>Node25</title>
<g id="a_node25"><a xlink:href="ArrayRef_8h.html" target="_top" xlink:title=" ">
<polygon fill="none" stroke="red" points="2116,-342 2116,-361 2232,-361 2232,-342 2116,-342"/>
<text text-anchor="middle" x="2174" y="-349" font-family="Helvetica,sans-Serif" font-size="10.00">llvm/ADT/ArrayRef.h</text>
</a>
</g>
</g>
<!-- Node24&#45;&gt;Node25 -->
<g id="edge32" class="edge">
<title>Node24&#45;&gt;Node25</title>
<path fill="none" stroke="midnightblue" d="M1774.76,-726.45C1912.84,-716.69 2202,-685.82 2202,-598.5 2202,-598.5 2202,-598.5 2202,-468 2202,-432.71 2189.5,-393.03 2181.21,-370.57"/>
<polygon fill="midnightblue" stroke="midnightblue" points="2184.4,-369.1 2177.55,-361.02 2177.86,-371.61 2184.4,-369.1"/>
</g>
<!-- Node38 -->
<g id="node28" class="node">
<title>Node38</title>
<g id="a_node28"><a xlink:href="Optional_8h.html" target="_top" xlink:title=" ">
<polygon fill="none" stroke="red" points="1942.5,-224.5 1942.5,-243.5 2057.5,-243.5 2057.5,-224.5 1942.5,-224.5"/>
<text text-anchor="middle" x="2000" y="-231.5" font-family="Helvetica,sans-Serif" font-size="10.00">llvm/ADT/Optional.h</text>
</a>
</g>
</g>
<!-- Node24&#45;&gt;Node38 -->
<g id="edge75" class="edge">
<title>Node24&#45;&gt;Node38</title>
<path fill="none" stroke="midnightblue" d="M1774.66,-725.31C1813.18,-719.34 1859.49,-706.69 1893,-680 1925.04,-654.49 1936,-639.45 1936,-598.5 1936,-598.5 1936,-598.5 1936,-529.5 1936,-424.4 1974.66,-403.49 1993,-300 1995.73,-284.61 1997.54,-266.98 1998.64,-253.96"/>
<polygon fill="midnightblue" stroke="midnightblue" points="2002.14,-254.13 1999.43,-243.89 1995.16,-253.58 2002.14,-254.13"/>
</g>
<!-- Node33 -->
<g id="node30" class="node">
<title>Node33</title>
<g id="a_node30"><a xlink:title=" ">
<polygon fill="none" stroke="#bfbfbf" points="1210,-224.5 1210,-243.5 1260,-243.5 1260,-224.5 1210,-224.5"/>
<text text-anchor="middle" x="1235" y="-231.5" font-family="Helvetica,sans-Serif" font-size="10.00">cstdint</text>
</a>
</g>
</g>
<!-- Node24&#45;&gt;Node33 -->
<g id="edge171" class="edge">
<title>Node24&#45;&gt;Node33</title>
<path fill="none" stroke="midnightblue" d="M1735.93,-716.37C1751.96,-707.95 1770.25,-695.81 1782,-680 1855.65,-580.91 1882.15,-497.76 1803,-403 1745.38,-334.02 1690.77,-390.46 1604,-367 1494.88,-337.5 1471.53,-317.82 1365,-280 1332.67,-268.52 1295.69,-255.76 1269.46,-246.76"/>
<polygon fill="midnightblue" stroke="midnightblue" points="1270.56,-243.44 1259.96,-243.51 1268.29,-250.06 1270.56,-243.44"/>
</g>
<!-- Node44 -->
<g id="node32" class="node">
<title>Node44</title>
<g id="a_node32"><a xlink:href="CodeView_8h.html" target="_top" xlink:title=" ">
<polygon fill="none" stroke="red" points="37.5,-336.5 37.5,-366.5 180.5,-366.5 180.5,-336.5 37.5,-336.5"/>
<text text-anchor="start" x="45.5" y="-354.5" font-family="Helvetica,sans-Serif" font-size="10.00">llvm/DebugInfo/CodeView</text>
<text text-anchor="middle" x="109" y="-343.5" font-family="Helvetica,sans-Serif" font-size="10.00">/CodeView.h</text>
</a>
</g>
</g>
<!-- Node24&#45;&gt;Node44 -->
<g id="edge76" class="edge">
<title>Node24&#45;&gt;Node44</title>
<path fill="none" stroke="midnightblue" d="M1631.23,-729.44C1392.5,-725.64 634.25,-711.21 529,-680 460.71,-659.75 391,-669.73 391,-598.5 391,-598.5 391,-598.5 391,-468 391,-423.96 271.74,-388.35 188.33,-368.84"/>
<polygon fill="midnightblue" stroke="midnightblue" points="188.88,-365.37 178.35,-366.54 187.31,-372.19 188.88,-365.37"/>
</g>
<!-- Node46 -->
<g id="node34" class="node">
<title>Node46</title>
<g id="a_node34"><a xlink:href="Endian_8h.html" target="_top" xlink:title=" ">
<polygon fill="none" stroke="red" points="1122,-280.5 1122,-299.5 1246,-299.5 1246,-280.5 1122,-280.5"/>
<text text-anchor="middle" x="1184" y="-287.5" font-family="Helvetica,sans-Serif" font-size="10.00">llvm/Support/Endian.h</text>
</a>
</g>
</g>
<!-- Node24&#45;&gt;Node46 -->
<g id="edge169" class="edge">
<title>Node24&#45;&gt;Node46</title>
<path fill="none" stroke="midnightblue" d="M1631.32,-731.18C1406.72,-731.51 725.04,-718.1 615,-546 528.3,-410.41 754.04,-375.7 910,-336 947.6,-326.43 1046.27,-311.1 1114.33,-301.04"/>
<polygon fill="midnightblue" stroke="midnightblue" points="1115.17,-304.45 1124.55,-299.53 1114.15,-297.53 1115.17,-304.45"/>
</g>
<!-- Node50 -->
<g id="node35" class="node">
<title>Node50</title>
<g id="a_node35"><a xlink:href="CodeViewError_8h.html" target="_top" xlink:title=" ">
<polygon fill="none" stroke="black" points="1631.5,-582.5 1631.5,-612.5 1774.5,-612.5 1774.5,-582.5 1631.5,-582.5"/>
<text text-anchor="start" x="1639.5" y="-600.5" font-family="Helvetica,sans-Serif" font-size="10.00">llvm/DebugInfo/CodeView</text>
<text text-anchor="middle" x="1703" y="-589.5" font-family="Helvetica,sans-Serif" font-size="10.00">/CodeViewError.h</text>
</a>
</g>
</g>
<!-- Node24&#45;&gt;Node50 -->
<g id="edge86" class="edge">
<title>Node24&#45;&gt;Node50</title>
<path fill="none" stroke="midnightblue" d="M1703,-716.37C1703,-694.04 1703,-650.31 1703,-622.85"/>
<polygon fill="midnightblue" stroke="midnightblue" points="1706.5,-622.52 1703,-612.52 1699.5,-622.52 1706.5,-622.52"/>
</g>
<!-- Node24&#45;&gt;Node51 -->
<g id="edge170" class="edge">
<title>Node24&#45;&gt;Node51</title>
<path fill="none" stroke="midnightblue" d="M1721.17,-716.18C1752.45,-689.72 1810.67,-631.35 1784,-582 1755.65,-529.54 1690.85,-497.69 1649.66,-482"/>
<polygon fill="midnightblue" stroke="midnightblue" points="1650.83,-478.71 1640.24,-478.54 1648.41,-485.27 1650.83,-478.71"/>
</g>
<!-- Node71 -->
<g id="node46" class="node">
<title>Node71</title>
<g id="a_node46"><a xlink:href="RecordSerialization_8h.html" target="_top" xlink:title=" ">
<polygon fill="none" stroke="red" points="1365.5,-649.5 1365.5,-679.5 1508.5,-679.5 1508.5,-649.5 1365.5,-649.5"/>
<text text-anchor="start" x="1373.5" y="-667.5" font-family="Helvetica,sans-Serif" font-size="10.00">llvm/DebugInfo/CodeView</text>
<text text-anchor="middle" x="1437" y="-656.5" font-family="Helvetica,sans-Serif" font-size="10.00">/RecordSerialization.h</text>
</a>
</g>
</g>
<!-- Node24&#45;&gt;Node71 -->
<g id="edge146" class="edge">
<title>Node24&#45;&gt;Node71</title>
<path fill="none" stroke="midnightblue" d="M1645.61,-716.48C1604.24,-706.37 1548.24,-692.68 1504.69,-682.04"/>
<polygon fill="midnightblue" stroke="midnightblue" points="1505.29,-678.58 1494.75,-679.61 1503.63,-685.38 1505.29,-678.58"/>
</g>
<!-- Node72 -->
<g id="node47" class="node">
<title>Node72</title>
<g id="a_node47"><a xlink:href="BinaryStreamReader_8h.html" target="_top" xlink:title=" ">
<polygon fill="none" stroke="red" points="1464.5,-582.5 1464.5,-612.5 1613.5,-612.5 1613.5,-582.5 1464.5,-582.5"/>
<text text-anchor="start" x="1472.5" y="-600.5" font-family="Helvetica,sans-Serif" font-size="10.00">llvm/Support/BinaryStream</text>
<text text-anchor="middle" x="1539" y="-589.5" font-family="Helvetica,sans-Serif" font-size="10.00">Reader.h</text>
</a>
</g>
</g>
<!-- Node24&#45;&gt;Node72 -->
<g id="edge167" class="edge">
<title>Node24&#45;&gt;Node72</title>
<path fill="none" stroke="midnightblue" d="M1685.45,-716.37C1656.35,-692.95 1598,-645.99 1564.4,-618.94"/>
<polygon fill="midnightblue" stroke="midnightblue" points="1566.41,-616.07 1556.42,-612.52 1562.02,-621.52 1566.41,-616.07"/>
</g>
<!-- Node75 -->
<g id="node48" class="node">
<title>Node75</title>
<g id="a_node48"><a xlink:href="BinaryStreamRef_8h.html" target="_top" xlink:title=" ">
<polygon fill="none" stroke="red" points="1970.5,-515.5 1970.5,-545.5 2119.5,-545.5 2119.5,-515.5 1970.5,-515.5"/>
<text text-anchor="start" x="1978.5" y="-533.5" font-family="Helvetica,sans-Serif" font-size="10.00">llvm/Support/BinaryStream</text>
<text text-anchor="middle" x="2045" y="-522.5" font-family="Helvetica,sans-Serif" font-size="10.00">Ref.h</text>
</a>
</g>
</g>
<!-- Node24&#45;&gt;Node75 -->
<g id="edge168" class="edge">
<title>Node24&#45;&gt;Node75</title>
<path fill="none" stroke="midnightblue" d="M1774.64,-722.13C1837.11,-713.71 1921.99,-699.23 1950,-680 1995.27,-648.92 2023.75,-588.45 2036.74,-555.06"/>
<polygon fill="midnightblue" stroke="midnightblue" points="2040.04,-556.22 2040.27,-545.63 2033.49,-553.77 2040.04,-556.22"/>
</g>
<!-- Node25&#45;&gt;Node2 -->
<g id="edge41" class="edge">
<title>Node25&#45;&gt;Node2</title>
<path fill="none" stroke="midnightblue" d="M2223.72,-341.98C2286.46,-331.22 2394.27,-312.73 2461.37,-301.22"/>
<polygon fill="midnightblue" stroke="midnightblue" points="2462.11,-304.65 2471.38,-299.51 2460.93,-297.75 2462.11,-304.65"/>
</g>
<!-- Node25&#45;&gt;Node5 -->
<g id="edge66" class="edge">
<title>Node25&#45;&gt;Node5</title>
<path fill="none" stroke="midnightblue" d="M2232.12,-346.17C2432.3,-330.86 3081,-277.96 3081,-235 3081,-235 3081,-235 3081,-177 3081,-146.2 3079.19,-133.35 3057,-112 3039.6,-95.26 3015.9,-84.75 2993.04,-78.14"/>
<polygon fill="midnightblue" stroke="midnightblue" points="2993.88,-74.75 2983.32,-75.55 2992.08,-81.51 2993.88,-74.75"/>
</g>
<!-- Node25&#45;&gt;Node13 -->
<g id="edge73" class="edge">
<title>Node25&#45;&gt;Node13</title>
<path fill="none" stroke="midnightblue" d="M2115.82,-349.18C1888.3,-343.89 1065.67,-323.29 951,-300 726.28,-254.36 477.66,-123.49 400.3,-80.71"/>
<polygon fill="midnightblue" stroke="midnightblue" points="401.77,-77.52 391.33,-75.72 398.37,-83.64 401.77,-77.52"/>
</g>
<!-- Node25&#45;&gt;Node14 -->
<g id="edge67" class="edge">
<title>Node25&#45;&gt;Node14</title>
<path fill="none" stroke="midnightblue" d="M2232.32,-346.75C2344.8,-339.15 2587.74,-320.87 2669,-300 2761.36,-276.27 2804.16,-270.49 2852,-188 2860.37,-173.57 2865.88,-155.38 2869.15,-141.92"/>
<polygon fill="midnightblue" stroke="midnightblue" points="2872.62,-142.42 2871.38,-131.9 2865.79,-140.9 2872.62,-142.42"/>
</g>
<!-- Node25&#45;&gt;Node15 -->
<g id="edge68" class="edge">
<title>Node25&#45;&gt;Node15</title>
<path fill="none" stroke="midnightblue" d="M2115.69,-343C2022.57,-330.91 1847.87,-307.66 1820,-300 1797.72,-293.87 1794.43,-285.58 1772,-280 1603.93,-238.22 1551.38,-288.45 1384,-244 1363.24,-238.49 1360.37,-230.83 1340,-224 1189.78,-173.64 1002.97,-140.88 925.4,-128.53"/>
<polygon fill="midnightblue" stroke="midnightblue" points="925.61,-125.02 915.19,-126.92 924.52,-131.93 925.61,-125.02"/>
</g>
<!-- Node25&#45;&gt;Node16 -->
<g id="edge69" class="edge">
<title>Node25&#45;&gt;Node16</title>
<path fill="none" stroke="midnightblue" d="M2134.87,-341.98C2124.24,-339.84 2112.71,-337.68 2102,-336 1960.6,-313.85 1920.55,-335.88 1782,-300 1759.63,-294.21 1756.43,-285.58 1734,-280 1565.93,-238.22 1517.13,-270.62 1346,-244 1344.7,-243.8 1343.39,-243.58 1342.06,-243.35"/>
<polygon fill="midnightblue" stroke="midnightblue" points="1342.3,-239.83 1331.82,-241.38 1340.98,-246.71 1342.3,-239.83"/>
</g>
<!-- Node25&#45;&gt;Node19 -->
<g id="edge70" class="edge">
<title>Node25&#45;&gt;Node19</title>
<path fill="none" stroke="midnightblue" d="M2184.07,-341.82C2206.67,-322.34 2261.68,-274.92 2290.2,-250.34"/>
<polygon fill="midnightblue" stroke="midnightblue" points="2292.52,-252.96 2297.81,-243.78 2287.95,-247.66 2292.52,-252.96"/>
</g>
<!-- Node25&#45;&gt;Node20 -->
<g id="edge71" class="edge">
<title>Node25&#45;&gt;Node20</title>
<path fill="none" stroke="midnightblue" d="M2190.54,-341.82C2228.69,-321.79 2323.1,-272.22 2368.64,-248.32"/>
<polygon fill="midnightblue" stroke="midnightblue" points="2370.35,-251.37 2377.57,-243.62 2367.09,-245.17 2370.35,-251.37"/>
</g>
<!-- Node25&#45;&gt;Node22 -->
<g id="edge72" class="edge">
<title>Node25&#45;&gt;Node22</title>
<path fill="none" stroke="midnightblue" d="M2232.21,-346.82C2314.1,-340.91 2467.67,-327.09 2596,-300 2679.22,-282.43 2713.23,-297.94 2779,-244 2793.83,-231.84 2803.28,-211.68 2808.58,-197.03"/>
<polygon fill="midnightblue" stroke="midnightblue" points="2811.9,-198.12 2811.71,-187.53 2805.26,-195.93 2811.9,-198.12"/>
</g>
<!-- Node26 -->
<g id="node26" class="node">
<title>Node26</title>
<g id="a_node26"><a xlink:href="Hashing_8h.html" target="_top" xlink:title=" ">
<polygon fill="none" stroke="red" points="2202.5,-168.5 2202.5,-187.5 2315.5,-187.5 2315.5,-168.5 2202.5,-168.5"/>
<text text-anchor="middle" x="2259" y="-175.5" font-family="Helvetica,sans-Serif" font-size="10.00">llvm/ADT/Hashing.h</text>
</a>
</g>
</g>
<!-- Node25&#45;&gt;Node26 -->
<g id="edge33" class="edge">
<title>Node25&#45;&gt;Node26</title>
<path fill="none" stroke="midnightblue" d="M2178.33,-341.76C2191.63,-314.92 2232.08,-233.32 2250.13,-196.89"/>
<polygon fill="midnightblue" stroke="midnightblue" points="2253.47,-198.03 2254.78,-187.52 2247.2,-194.92 2253.47,-198.03"/>
</g>
<!-- Node37 -->
<g id="node27" class="node">
<title>Node37</title>
<g id="a_node27"><a xlink:href="STLExtras_8h.html" target="_top" xlink:title=" ">
<polygon fill="none" stroke="red" points="1862,-280.5 1862,-299.5 1984,-299.5 1984,-280.5 1862,-280.5"/>
<text text-anchor="middle" x="1923" y="-287.5" font-family="Helvetica,sans-Serif" font-size="10.00">llvm/ADT/STLExtras.h</text>
</a>
</g>
</g>
<!-- Node25&#45;&gt;Node37 -->
<g id="edge42" class="edge">
<title>Node25&#45;&gt;Node37</title>
<path fill="none" stroke="midnightblue" d="M2138.04,-341.98C2093.49,-331.42 2017.54,-313.41 1968.85,-301.87"/>
<polygon fill="midnightblue" stroke="midnightblue" points="1969.43,-298.41 1958.9,-299.51 1967.82,-305.22 1969.43,-298.41"/>
</g>
<!-- Node43 -->
<g id="node31" class="node">
<title>Node43</title>
<g id="a_node31"><a xlink:title=" ">
<polygon fill="none" stroke="#bfbfbf" points="1606.5,-280.5 1606.5,-299.5 1653.5,-299.5 1653.5,-280.5 1606.5,-280.5"/>
<text text-anchor="middle" x="1630" y="-287.5" font-family="Helvetica,sans-Serif" font-size="10.00">vector</text>
</a>
</g>
</g>
<!-- Node25&#45;&gt;Node43 -->
<g id="edge74" class="edge">
<title>Node25&#45;&gt;Node43</title>
<path fill="none" stroke="midnightblue" d="M2115.96,-345.69C2002.05,-336.08 1752.89,-314.22 1668,-300 1666.54,-299.75 1665.05,-299.49 1663.54,-299.2"/>
<polygon fill="midnightblue" stroke="midnightblue" points="1664.12,-295.74 1653.62,-297.11 1662.68,-302.59 1664.12,-295.74"/>
</g>
<!-- Node26&#45;&gt;Node4 -->
<g id="edge40" class="edge">
<title>Node26&#45;&gt;Node4</title>
<path fill="none" stroke="midnightblue" d="M2259.3,-168.19C2259.27,-153.91 2256.89,-125.89 2240,-112 2203.96,-82.37 1878.34,-70.82 1772.83,-67.84"/>
<polygon fill="midnightblue" stroke="midnightblue" points="1772.86,-64.34 1762.76,-67.56 1772.66,-71.34 1772.86,-64.34"/>
</g>
<!-- Node26&#45;&gt;Node8 -->
<g id="edge34" class="edge">
<title>Node26&#45;&gt;Node8</title>
<path fill="none" stroke="midnightblue" d="M2315.87,-174.3C2500.46,-165.55 3083.86,-137.89 3308.56,-127.24"/>
<polygon fill="midnightblue" stroke="midnightblue" points="3308.84,-130.73 3318.66,-126.76 3308.51,-123.74 3308.84,-130.73"/>
</g>
<!-- Node26&#45;&gt;Node9 -->
<g id="edge39" class="edge">
<title>Node26&#45;&gt;Node9</title>
<path fill="none" stroke="midnightblue" d="M2315.83,-169.57C2418.66,-156.35 2642.5,-128.58 2832,-112 3101.11,-88.46 3427.1,-72.97 3529.57,-68.4"/>
<polygon fill="midnightblue" stroke="midnightblue" points="3530.03,-71.89 3539.87,-67.95 3529.73,-64.89 3530.03,-71.89"/>
</g>
<!-- Node26&#45;&gt;Node12 -->
<g id="edge35" class="edge">
<title>Node26&#45;&gt;Node12</title>
<path fill="none" stroke="midnightblue" d="M2217.96,-168.44C2172.68,-159 2099.77,-143.8 2050.89,-133.61"/>
<polygon fill="midnightblue" stroke="midnightblue" points="2051.35,-130.13 2040.85,-131.52 2049.92,-136.98 2051.35,-130.13"/>
</g>
<!-- Node26&#45;&gt;Node14 -->
<g id="edge36" class="edge">
<title>Node26&#45;&gt;Node14</title>
<path fill="none" stroke="midnightblue" d="M2315.89,-173.96C2417.12,-168.22 2635.09,-154.29 2818,-132 2822.16,-131.49 2826.49,-130.9 2830.8,-130.26"/>
<polygon fill="midnightblue" stroke="midnightblue" points="2831.43,-133.71 2840.78,-128.73 2830.36,-126.79 2831.43,-133.71"/>
</g>
<!-- Node26&#45;&gt;Node15 -->
<g id="edge37" class="edge">
<title>Node26&#45;&gt;Node15</title>
<path fill="none" stroke="midnightblue" d="M2202.31,-174.77C1972.34,-165.7 1112.44,-131.81 925.16,-124.43"/>
<polygon fill="midnightblue" stroke="midnightblue" points="925.15,-120.92 915.02,-124.03 924.88,-127.92 925.15,-120.92"/>
</g>
<!-- Node26&#45;&gt;Node17 -->
<g id="edge38" class="edge">
<title>Node26&#45;&gt;Node17</title>
<path fill="none" stroke="midnightblue" d="M2250.25,-168.08C2242.53,-160.22 2231.1,-148.57 2221.78,-139.08"/>
<polygon fill="midnightblue" stroke="midnightblue" points="2224.09,-136.44 2214.59,-131.75 2219.1,-141.34 2224.09,-136.44"/>
</g>
<!-- Node37&#45;&gt;Node3 -->
<g id="edge51" class="edge">
<title>Node37&#45;&gt;Node3</title>
<path fill="none" stroke="midnightblue" d="M1899.71,-280.44C1875.19,-271.44 1836.4,-257.19 1808.8,-247.05"/>
<polygon fill="midnightblue" stroke="midnightblue" points="1809.78,-243.68 1799.18,-243.52 1807.36,-250.25 1809.78,-243.68"/>
</g>
<!-- Node37&#45;&gt;Node4 -->
<g id="edge65" class="edge">
<title>Node37&#45;&gt;Node4</title>
<path fill="none" stroke="midnightblue" d="M1861.91,-280.92C1798.33,-271.89 1706.55,-256.85 1696,-244 1656.69,-196.13 1703.14,-118.08 1727.25,-83.91"/>
<polygon fill="midnightblue" stroke="midnightblue" points="1730.31,-85.65 1733.36,-75.5 1724.65,-81.53 1730.31,-85.65"/>
</g>
<!-- Node37&#45;&gt;Node8 -->
<g id="edge53" class="edge">
<title>Node37&#45;&gt;Node8</title>
<path fill="none" stroke="midnightblue" d="M1955.95,-280.5C2009.67,-266.9 2119.6,-240.14 2214,-224 2317.46,-206.31 2578.47,-177.52 2683,-168 2907.69,-147.53 3172.96,-133.48 3308.48,-127.02"/>
<polygon fill="midnightblue" stroke="midnightblue" points="3308.98,-130.5 3318.8,-126.53 3308.65,-123.51 3308.98,-130.5"/>
</g>
<!-- Node37&#45;&gt;Node11 -->
<g id="edge58" class="edge">
<title>Node37&#45;&gt;Node11</title>
<path fill="none" stroke="midnightblue" d="M1984.26,-284.42C2043.89,-278.83 2136.6,-267.1 2214,-244 2234.58,-237.86 2237.13,-229.08 2258,-224 2340.63,-203.87 2946.08,-184.61 3099,-180.02"/>
<polygon fill="midnightblue" stroke="midnightblue" points="3099.32,-183.52 3109.21,-179.72 3099.11,-176.52 3099.32,-183.52"/>
</g>
<!-- Node37&#45;&gt;Node13 -->
<g id="edge64" class="edge">
<title>Node37&#45;&gt;Node13</title>
<path fill="none" stroke="midnightblue" d="M1862.76,-280.42C1813.45,-272.78 1742.11,-260.28 1681,-244 1582.26,-217.69 1563.72,-190.31 1464,-168 1228.53,-115.32 1164.25,-134.32 924,-112 737.29,-94.66 514.47,-77.43 420.88,-70.36"/>
<polygon fill="midnightblue" stroke="midnightblue" points="420.88,-66.85 410.64,-69.59 420.35,-73.83 420.88,-66.85"/>
</g>
<!-- Node37&#45;&gt;Node14 -->
<g id="edge54" class="edge">
<title>Node37&#45;&gt;Node14</title>
<path fill="none" stroke="midnightblue" d="M1954.28,-280.44C1983.71,-272.1 2028.83,-258.58 2067,-244 2087.07,-236.34 2090.35,-229.92 2111,-224 2228.22,-190.4 2262.11,-204.02 2383,-188 2548.78,-166.03 2746.1,-139.85 2830.88,-128.59"/>
<polygon fill="midnightblue" stroke="midnightblue" points="2831.44,-132.05 2840.9,-127.26 2830.52,-125.11 2831.44,-132.05"/>
</g>
<!-- Node37&#45;&gt;Node15 -->
<g id="edge55" class="edge">
<title>Node37&#45;&gt;Node15</title>
<path fill="none" stroke="midnightblue" d="M1861.85,-280.75C1781.04,-269.7 1646.27,-250.7 1624,-244 1603.82,-237.93 1600.59,-231.77 1581,-224 1507.45,-194.82 1489.5,-183.95 1412,-168 1232.02,-130.97 1011.12,-124.36 925.4,-123.22"/>
<polygon fill="midnightblue" stroke="midnightblue" points="925.2,-119.71 915.16,-123.1 925.12,-126.71 925.2,-119.71"/>
</g>
<!-- Node37&#45;&gt;Node16 -->
<g id="edge56" class="edge">
<title>Node37&#45;&gt;Node16</title>
<path fill="none" stroke="midnightblue" d="M1861.77,-283.65C1734.4,-272.52 1444.27,-247.17 1341.73,-238.21"/>
<polygon fill="midnightblue" stroke="midnightblue" points="1341.83,-234.7 1331.56,-237.32 1341.22,-241.68 1341.83,-234.7"/>
</g>
<!-- Node37&#45;&gt;Node18 -->
<g id="edge59" class="edge">
<title>Node37&#45;&gt;Node18</title>
<path fill="none" stroke="midnightblue" d="M1861.96,-285.25C1694.65,-274.96 1231.66,-246.48 1088.05,-237.65"/>
<polygon fill="midnightblue" stroke="midnightblue" points="1088.08,-234.14 1077.88,-237.02 1087.65,-241.13 1088.08,-234.14"/>
</g>
<!-- Node37&#45;&gt;Node19 -->
<g id="edge60" class="edge">
<title>Node37&#45;&gt;Node19</title>
<path fill="none" stroke="midnightblue" d="M1984,-281.09C2050.09,-272.42 2158.63,-257.89 2252,-244 2253.46,-243.78 2254.94,-243.56 2256.44,-243.33"/>
<polygon fill="midnightblue" stroke="midnightblue" points="2257.08,-246.78 2266.43,-241.79 2256.01,-239.86 2257.08,-246.78"/>
</g>
<!-- Node37&#45;&gt;Node20 -->
<g id="edge61" class="edge">
<title>Node37&#45;&gt;Node20</title>
<path fill="none" stroke="midnightblue" d="M1984.06,-285.57C2066.76,-280.3 2219.07,-268.33 2357.4,-244.06"/>
<polygon fill="midnightblue" stroke="midnightblue" points="2358.11,-247.49 2367.34,-242.29 2356.88,-240.6 2358.11,-247.49"/>
</g>
<!-- Node37&#45;&gt;Node21 -->
<g id="edge62" class="edge">
<title>Node37&#45;&gt;Node21</title>
<path fill="none" stroke="midnightblue" d="M1984,-287.4C2077.89,-284.1 2263.42,-274.27 2428.91,-243.85"/>
<polygon fill="midnightblue" stroke="midnightblue" points="2429.59,-247.29 2438.77,-242.01 2428.3,-240.41 2429.59,-247.29"/>
</g>
<!-- Node37&#45;&gt;Node22 -->
<g id="edge63" class="edge">
<title>Node37&#45;&gt;Node22</title>
<path fill="none" stroke="midnightblue" d="M1955.24,-280.45C2010.04,-266.27 2125.02,-238.08 2224,-224 2450.72,-191.75 2510,-209.47 2738,-188 2749.97,-186.87 2762.97,-185.42 2774.79,-184.01"/>
<polygon fill="midnightblue" stroke="midnightblue" points="2775.3,-187.47 2784.8,-182.79 2774.45,-180.52 2775.3,-187.47"/>
</g>
<!-- Node37&#45;&gt;Node38 -->
<g id="edge43" class="edge">
<title>Node37&#45;&gt;Node38</title>
<path fill="none" stroke="midnightblue" d="M1935.37,-280.32C1947.16,-272.06 1965.13,-259.45 1979.14,-249.63"/>
<polygon fill="midnightblue" stroke="midnightblue" points="1981.48,-252.26 1987.66,-243.65 1977.46,-246.53 1981.48,-252.26"/>
</g>
<!-- Node41 -->
<g id="node29" class="node">
<title>Node41</title>
<g id="a_node29"><a xlink:title=" ">
<polygon fill="none" stroke="#bfbfbf" points="1426,-224.5 1426,-243.5 1572,-243.5 1572,-224.5 1426,-224.5"/>
<text text-anchor="middle" x="1499" y="-231.5" font-family="Helvetica,sans-Serif" font-size="10.00">llvm/Config/abi&#45;breaking.h</text>
</a>
</g>
</g>
<!-- Node37&#45;&gt;Node41 -->
<g id="edge52" class="edge">
<title>Node37&#45;&gt;Node41</title>
<path fill="none" stroke="midnightblue" d="M1861.8,-281.21C1786.29,-271.59 1657.85,-255.23 1575.8,-244.78"/>
<polygon fill="midnightblue" stroke="midnightblue" points="1576.14,-241.3 1565.78,-243.5 1575.26,-248.24 1576.14,-241.3"/>
</g>
<!-- Node37&#45;&gt;Node33 -->
<g id="edge57" class="edge">
<title>Node37&#45;&gt;Node33</title>
<path fill="none" stroke="midnightblue" d="M1861.82,-286.28C1725.62,-279.99 1399.84,-263.58 1270.23,-243.83"/>
<polygon fill="midnightblue" stroke="midnightblue" points="1270.56,-240.34 1260.14,-242.22 1269.46,-247.26 1270.56,-240.34"/>
</g>
<!-- Node38&#45;&gt;Node4 -->
<g id="edge50" class="edge">
<title>Node38&#45;&gt;Node4</title>
<path fill="none" stroke="midnightblue" d="M1986.39,-224.31C1944,-197.25 1814.12,-114.32 1761.99,-81.04"/>
<polygon fill="midnightblue" stroke="midnightblue" points="1763.79,-78.04 1753.48,-75.61 1760.02,-83.94 1763.79,-78.04"/>
</g>
<!-- Node38&#45;&gt;Node5 -->
<g id="edge45" class="edge">
<title>Node38&#45;&gt;Node5</title>
<path fill="none" stroke="midnightblue" d="M2057.57,-225.62C2136.7,-215.37 2274.98,-197.07 2325,-188 2364.89,-180.77 2374.34,-176.42 2414,-168 2577.54,-133.28 2771.6,-95.39 2864.35,-77.49"/>
<polygon fill="midnightblue" stroke="midnightblue" points="2865.19,-80.89 2874.34,-75.56 2863.86,-74.02 2865.19,-80.89"/>
</g>
<!-- Node38&#45;&gt;Node12 -->
<g id="edge46" class="edge">
<title>Node38&#45;&gt;Node12</title>
<path fill="none" stroke="midnightblue" d="M2000,-224.37C2000,-206.62 2000,-165.67 2000,-141.6"/>
<polygon fill="midnightblue" stroke="midnightblue" points="2003.5,-141.59 2000,-131.59 1996.5,-141.59 2003.5,-141.59"/>
</g>
<!-- Node38&#45;&gt;Node15 -->
<g id="edge47" class="edge">
<title>Node38&#45;&gt;Node15</title>
<path fill="none" stroke="midnightblue" d="M1961.34,-224.46C1895.66,-210.3 1757.92,-182.13 1640,-168 1366.39,-135.22 1033.7,-125.91 925.13,-123.64"/>
<polygon fill="midnightblue" stroke="midnightblue" points="925.11,-120.14 915.04,-123.44 924.97,-127.14 925.11,-120.14"/>
</g>
<!-- Node38&#45;&gt;Node22 -->
<g id="edge48" class="edge">
<title>Node38&#45;&gt;Node22</title>
<path fill="none" stroke="midnightblue" d="M2057.64,-228.02C2074.51,-226.63 2092.99,-225.18 2110,-224 2388.9,-204.6 2459.5,-212.45 2738,-188 2749.98,-186.95 2762.98,-185.52 2774.79,-184.1"/>
<polygon fill="midnightblue" stroke="midnightblue" points="2775.31,-187.57 2784.81,-182.88 2774.46,-180.62 2775.31,-187.57"/>
</g>
<!-- Node38&#45;&gt;Node23 -->
<g id="edge49" class="edge">
<title>Node38&#45;&gt;Node23</title>
<path fill="none" stroke="midnightblue" d="M2057.65,-228.21C2074.52,-226.83 2093,-225.33 2110,-224 2329.71,-206.77 2594.79,-187.38 2681.24,-181.09"/>
<polygon fill="midnightblue" stroke="midnightblue" points="2681.61,-184.57 2691.33,-180.35 2681.11,-177.59 2681.61,-184.57"/>
</g>
<!-- Node38&#45;&gt;Node26 -->
<g id="edge44" class="edge">
<title>Node38&#45;&gt;Node26</title>
<path fill="none" stroke="midnightblue" d="M2041.04,-224.44C2086.32,-215 2159.23,-199.8 2208.11,-189.61"/>
<polygon fill="midnightblue" stroke="midnightblue" points="2209.08,-192.98 2218.15,-187.52 2207.65,-186.13 2209.08,-192.98"/>
</g>
<!-- Node44&#45;&gt;Node13 -->
<g id="edge78" class="edge">
<title>Node44&#45;&gt;Node13</title>
<path fill="none" stroke="midnightblue" d="M90.25,-336.45C79.13,-327.21 65.57,-314.23 57,-300 41.47,-274.22 38,-265.1 38,-235 38,-235 38,-235 38,-177 38,-116.02 239.45,-83.63 331.3,-72.04"/>
<polygon fill="midnightblue" stroke="midnightblue" points="331.92,-75.49 341.42,-70.79 331.06,-68.54 331.92,-75.49"/>
</g>
<!-- Node45 -->
<g id="node33" class="node">
<title>Node45</title>
<g id="a_node33"><a xlink:title=" ">
<polygon fill="none" stroke="#bfbfbf" points="66,-280.5 66,-299.5 128,-299.5 128,-280.5 66,-280.5"/>
<text text-anchor="middle" x="97" y="-287.5" font-family="Helvetica,sans-Serif" font-size="10.00">cinttypes</text>
</a>
</g>
</g>
<!-- Node44&#45;&gt;Node45 -->
<g id="edge77" class="edge">
<title>Node44&#45;&gt;Node45</title>
<path fill="none" stroke="midnightblue" d="M106.16,-336.4C104.54,-328.38 102.49,-318.23 100.75,-309.57"/>
<polygon fill="midnightblue" stroke="midnightblue" points="104.15,-308.77 98.75,-299.66 97.29,-310.15 104.15,-308.77"/>
</g>
<!-- Node44&#45;&gt;Node46 -->
<g id="edge79" class="edge">
<title>Node44&#45;&gt;Node46</title>
<path fill="none" stroke="midnightblue" d="M180.62,-345.75C226.7,-342.77 287.87,-338.95 342,-336 681.19,-317.53 769.52,-329.36 1111.5,-300.06"/>
<polygon fill="midnightblue" stroke="midnightblue" points="1112.03,-303.53 1121.69,-299.18 1111.43,-296.55 1112.03,-303.53"/>
</g>
<!-- Node46&#45;&gt;Node5 -->
<g id="edge80" class="edge">
<title>Node46&#45;&gt;Node5</title>
<path fill="none" stroke="midnightblue" d="M1182.32,-280.46C1180.12,-266.57 1178.13,-239.1 1193,-224 1250.35,-165.77 1838.67,-120.07 1920,-112 2262.46,-78.01 2673.54,-69.68 2841.65,-67.65"/>
<polygon fill="midnightblue" stroke="midnightblue" points="2841.93,-71.14 2851.88,-67.53 2841.84,-64.14 2841.93,-71.14"/>
</g>
<!-- Node46&#45;&gt;Node13 -->
<g id="edge85" class="edge">
<title>Node46&#45;&gt;Node13</title>
<path fill="none" stroke="midnightblue" d="M1125.91,-280.47C1058.49,-270.38 951.5,-253.73 912,-244 716.29,-195.81 489.08,-110.8 407.31,-79.25"/>
<polygon fill="midnightblue" stroke="midnightblue" points="408.44,-75.93 397.85,-75.58 405.91,-82.46 408.44,-75.93"/>
</g>
<!-- Node46&#45;&gt;Node15 -->
<g id="edge81" class="edge">
<title>Node46&#45;&gt;Node15</title>
<path fill="none" stroke="midnightblue" d="M1128.04,-280.46C1056.1,-269.27 939.47,-250.33 932,-244 901.34,-218.02 892.54,-168.64 890.01,-141.69"/>
<polygon fill="midnightblue" stroke="midnightblue" points="893.5,-141.36 889.27,-131.65 886.52,-141.88 893.5,-141.36"/>
</g>
<!-- Node46&#45;&gt;Node16 -->
<g id="edge82" class="edge">
<title>Node46&#45;&gt;Node16</title>
<path fill="none" stroke="midnightblue" d="M1203.17,-280.44C1222.91,-271.64 1253.89,-257.81 1276.49,-247.72"/>
<polygon fill="midnightblue" stroke="midnightblue" points="1278.21,-250.79 1285.92,-243.52 1275.36,-244.4 1278.21,-250.79"/>
</g>
<!-- Node46&#45;&gt;Node17 -->
<g id="edge84" class="edge">
<title>Node46&#45;&gt;Node17</title>
<path fill="none" stroke="midnightblue" d="M1137.06,-280.41C1086.26,-270.65 1011.35,-254.68 1003,-244 997.53,-237 996.98,-230.54 1003,-224 1013.18,-212.93 1973.19,-140.44 2170.71,-125.64"/>
<polygon fill="midnightblue" stroke="midnightblue" points="2171.12,-129.12 2180.83,-124.88 2170.59,-122.14 2171.12,-129.12"/>
</g>
<!-- Node46&#45;&gt;Node33 -->
<g id="edge83" class="edge">
<title>Node46&#45;&gt;Node33</title>
<path fill="none" stroke="midnightblue" d="M1192.42,-280.08C1199.85,-272.22 1210.85,-260.57 1219.81,-251.08"/>
<polygon fill="midnightblue" stroke="midnightblue" points="1222.41,-253.42 1226.74,-243.75 1217.32,-248.62 1222.41,-253.42"/>
</g>
<!-- Node50&#45;&gt;Node51 -->
<g id="edge87" class="edge">
<title>Node50&#45;&gt;Node51</title>
<path fill="none" stroke="midnightblue" d="M1693.02,-582.48C1676.39,-559.1 1643.06,-512.25 1625.11,-487.02"/>
<polygon fill="midnightblue" stroke="midnightblue" points="1627.9,-484.91 1619.25,-478.79 1622.2,-488.97 1627.9,-484.91"/>
</g>
<!-- Node51&#45;&gt;Node2 -->
<g id="edge90" class="edge">
<title>Node51&#45;&gt;Node2</title>
<path fill="none" stroke="midnightblue" d="M1669.8,-466.96C1851.66,-463.36 2412.19,-450.17 2489,-423 2528.89,-408.89 2546.8,-404.71 2566,-367 2572.25,-354.72 2571.27,-348.73 2566,-336 2561.08,-324.12 2551.33,-313.74 2542.17,-305.96"/>
<polygon fill="midnightblue" stroke="midnightblue" points="2544.08,-303.01 2534.06,-299.56 2539.75,-308.51 2544.08,-303.01"/>
</g>
<!-- Node51&#45;&gt;Node4 -->
<g id="edge144" class="edge">
<title>Node51&#45;&gt;Node4</title>
<path fill="none" stroke="midnightblue" d="M1556.48,-467.01C1394.91,-463.84 933.18,-452.4 785,-423 758.67,-417.77 754.23,-408.73 728,-403 643.84,-384.6 400.02,-430.68 342,-367 332.72,-356.82 335.99,-348.4 342,-336 397.23,-222.1 458.22,-223.48 572,-168 638.97,-135.35 656.87,-126.26 730,-112 923.69,-74.23 1556.32,-68.09 1707.39,-67.16"/>
<polygon fill="midnightblue" stroke="midnightblue" points="1707.44,-70.66 1717.42,-67.1 1707.4,-63.66 1707.44,-70.66"/>
</g>
<!-- Node51&#45;&gt;Node5 -->
<g id="edge111" class="edge">
<title>Node51&#45;&gt;Node5</title>
<path fill="none" stroke="midnightblue" d="M1669.61,-467.33C1889.23,-464.55 2685.08,-452.61 2936,-423 3059.87,-408.38 3092.64,-406.34 3211,-367 3310.03,-334.09 3344.05,-324.05 3411,-244 3454.29,-192.24 3531.79,-161.56 3486,-112 3453.47,-76.78 3143.96,-69.1 2996.46,-67.44"/>
<polygon fill="midnightblue" stroke="midnightblue" points="2996.16,-63.94 2986.12,-67.33 2996.08,-70.94 2996.16,-63.94"/>
</g>
<!-- Node51&#45;&gt;Node8 -->
<g id="edge113" class="edge">
<title>Node51&#45;&gt;Node8</title>
<path fill="none" stroke="midnightblue" d="M1669.7,-467.07C1879.86,-463.45 2614.26,-449.18 2847,-423 2979.62,-408.08 3013.91,-404.47 3142,-367 3259.7,-332.57 3306.96,-335.15 3389,-244 3413.4,-216.89 3428.22,-203.54 3420,-168 3417.77,-158.36 3413.18,-148.41 3408.76,-140.31"/>
<polygon fill="midnightblue" stroke="midnightblue" points="3411.7,-138.4 3403.64,-131.52 3405.65,-141.92 3411.7,-138.4"/>
</g>
<!-- Node51&#45;&gt;Node9 -->
<g id="edge141" class="edge">
<title>Node51&#45;&gt;Node9</title>
<path fill="none" stroke="midnightblue" d="M1669.77,-467.9C2003.45,-466.94 3695,-456.92 3695,-352.5 3695,-352.5 3695,-352.5 3695,-177 3695,-124.65 3633.07,-92.53 3593.72,-77.4"/>
<polygon fill="midnightblue" stroke="midnightblue" points="3594.85,-74.08 3584.26,-73.92 3592.44,-80.65 3594.85,-74.08"/>
</g>
<!-- Node51&#45;&gt;Node11 -->
<g id="edge137" class="edge">
<title>Node51&#45;&gt;Node11</title>
<path fill="none" stroke="midnightblue" d="M1669.5,-466.74C1849.47,-462.53 2407.89,-447.75 2587,-423 2826.11,-389.96 2928.66,-452.21 3116,-300 3143.71,-277.49 3145.14,-259.56 3142,-224 3141.22,-215.2 3139.61,-205.54 3138.03,-197.43"/>
<polygon fill="midnightblue" stroke="midnightblue" points="3141.44,-196.65 3135.99,-187.57 3134.59,-198.07 3141.44,-196.65"/>
</g>
<!-- Node51&#45;&gt;Node13 -->
<g id="edge143" class="edge">
<title>Node51&#45;&gt;Node13</title>
<path fill="none" stroke="midnightblue" d="M1556.33,-467.1C1409.68,-464.39 1005.79,-454.42 671,-423 581.86,-414.63 355.41,-399.54 272,-367 268.95,-365.81 176.92,-302.65 175,-300 157.38,-275.6 156,-265.1 156,-235 156,-235 156,-235 156,-177 156,-99.54 266.46,-76.62 330.84,-69.84"/>
<polygon fill="midnightblue" stroke="midnightblue" points="331.52,-73.3 341.14,-68.86 330.85,-66.33 331.52,-73.3"/>
</g>
<!-- Node51&#45;&gt;Node14 -->
<g id="edge134" class="edge">
<title>Node51&#45;&gt;Node14</title>
<path fill="none" stroke="midnightblue" d="M1669.54,-466.86C1869.27,-462.66 2541.06,-447.05 2755,-423 2889.79,-407.85 2925.42,-407.07 3055,-367 3184.47,-326.97 3259.99,-357.52 3334,-244 3381.65,-170.92 3038.06,-136.14 2915.4,-126.14"/>
<polygon fill="midnightblue" stroke="midnightblue" points="2915.5,-122.64 2905.25,-125.33 2914.94,-129.62 2915.5,-122.64"/>
</g>
<!-- Node51&#45;&gt;Node15 -->
<g id="edge135" class="edge">
<title>Node51&#45;&gt;Node15</title>
<path fill="none" stroke="midnightblue" d="M1556.42,-467.61C1404.93,-466.1 992.72,-458.73 862,-423 843.21,-417.86 841.58,-408.86 823,-403 767.16,-385.39 600.47,-411.14 562,-367 495.46,-290.65 586.93,-221.37 673,-168 702.6,-149.64 799.17,-134.66 852.6,-127.52"/>
<polygon fill="midnightblue" stroke="midnightblue" points="853.22,-130.96 862.68,-126.19 852.31,-124.02 853.22,-130.96"/>
</g>
<!-- Node51&#45;&gt;Node18 -->
<g id="edge138" class="edge">
<title>Node51&#45;&gt;Node18</title>
<path fill="none" stroke="midnightblue" d="M1556.08,-468.34C1440.63,-468.12 1171.04,-462.91 949,-423 905.89,-415.25 798.59,-387.72 760,-367 741.1,-356.85 740.56,-348.32 723,-336 696.91,-317.7 676.9,-327.61 661,-300 656.57,-292.3 655.09,-286.64 661,-280 683.39,-254.83 906.75,-241.47 1002.16,-236.87"/>
<polygon fill="midnightblue" stroke="midnightblue" points="1002.51,-240.36 1012.33,-236.39 1002.17,-233.36 1002.51,-240.36"/>
</g>
<!-- Node51&#45;&gt;Node22 -->
<g id="edge139" class="edge">
<title>Node51&#45;&gt;Node22</title>
<path fill="none" stroke="midnightblue" d="M1669.68,-467.32C1860.4,-464.75 2471.52,-454.16 2554,-423 2674.81,-377.35 2771.39,-244.06 2803,-196.28"/>
<polygon fill="midnightblue" stroke="midnightblue" points="2806.07,-197.98 2808.59,-187.69 2800.2,-194.16 2806.07,-197.98"/>
</g>
<!-- Node51&#45;&gt;Node23 -->
<g id="edge140" class="edge">
<title>Node51&#45;&gt;Node23</title>
<path fill="none" stroke="midnightblue" d="M1669.75,-467.57C1857.05,-465.81 2448.02,-457.57 2526,-423 2556.97,-409.27 2671.24,-299.47 2699,-244 2706.2,-229.61 2708.81,-211.41 2709.7,-197.94"/>
<polygon fill="midnightblue" stroke="midnightblue" points="2713.2,-198.05 2710.11,-187.91 2706.2,-197.76 2713.2,-198.05"/>
</g>
<!-- Node51&#45;&gt;Node37 -->
<g id="edge89" class="edge">
<title>Node51&#45;&gt;Node37</title>
<path fill="none" stroke="midnightblue" d="M1669.92,-463.45C1709.51,-458.22 1762.27,-447.02 1803,-423 1852.86,-393.6 1893.87,-336.79 1912.38,-308.25"/>
<polygon fill="midnightblue" stroke="midnightblue" points="1915.38,-310.05 1917.78,-299.73 1909.47,-306.3 1915.38,-310.05"/>
</g>
<!-- Node51&#45;&gt;Node41 -->
<g id="edge108" class="edge">
<title>Node51&#45;&gt;Node41</title>
<path fill="none" stroke="midnightblue" d="M1597.81,-459.36C1585.16,-451.44 1567.58,-438.58 1557,-423 1519.94,-368.44 1505.79,-289.22 1501.07,-253.59"/>
<polygon fill="midnightblue" stroke="midnightblue" points="1504.54,-253.14 1499.86,-243.64 1497.6,-253.99 1504.54,-253.14"/>
</g>
<!-- Node51&#45;&gt;Node33 -->
<g id="edge136" class="edge">
<title>Node51&#45;&gt;Node33</title>
<path fill="none" stroke="midnightblue" d="M1556.48,-466.84C1485.52,-464.05 1369.8,-454.64 1343,-423 1325.42,-402.25 1367.89,-367.36 1368,-367 1380.06,-328.49 1371.05,-308.01 1342,-280 1331.21,-269.6 1296.84,-256.09 1269.93,-246.6"/>
<polygon fill="midnightblue" stroke="midnightblue" points="1271.01,-243.27 1260.41,-243.3 1268.71,-249.88 1271.01,-243.27"/>
</g>
<!-- Node51&#45;&gt;Node43 -->
<g id="edge145" class="edge">
<title>Node51&#45;&gt;Node43</title>
<path fill="none" stroke="midnightblue" d="M1598.05,-459.47C1586.07,-451.7 1570.13,-439 1563,-423 1559.38,-414.88 1560.63,-411.57 1563,-403 1573.35,-365.54 1599.9,-328.01 1616.3,-307.31"/>
<polygon fill="midnightblue" stroke="midnightblue" points="1619.04,-309.49 1622.63,-299.52 1613.61,-305.07 1619.04,-309.49"/>
</g>
<!-- Node52 -->
<g id="node37" class="node">
<title>Node52</title>
<g id="a_node37"><a xlink:href="llvm-c_2Error_8h.html" target="_top" xlink:title=" ">
<polygon fill="none" stroke="red" points="1572,-403.5 1572,-422.5 1654,-422.5 1654,-403.5 1572,-403.5"/>
<text text-anchor="middle" x="1613" y="-410.5" font-family="Helvetica,sans-Serif" font-size="10.00">llvm&#45;c/Error.h</text>
</a>
</g>
</g>
<!-- Node51&#45;&gt;Node52 -->
<g id="edge88" class="edge">
<title>Node51&#45;&gt;Node52</title>
<path fill="none" stroke="midnightblue" d="M1613,-459.08C1613,-452.01 1613,-441.86 1613,-432.99"/>
<polygon fill="midnightblue" stroke="midnightblue" points="1616.5,-432.75 1613,-422.75 1609.5,-432.75 1616.5,-432.75"/>
</g>
<!-- Node54 -->
<g id="node38" class="node">
<title>Node54</title>
<g id="a_node38"><a xlink:href="StringExtras_8h.html" target="_top" xlink:title=" ">
<polygon fill="none" stroke="red" points="2322.5,-403.5 2322.5,-422.5 2455.5,-422.5 2455.5,-403.5 2322.5,-403.5"/>
<text text-anchor="middle" x="2389" y="-410.5" font-family="Helvetica,sans-Serif" font-size="10.00">llvm/ADT/StringExtras.h</text>
</a>
</g>
</g>
<!-- Node51&#45;&gt;Node54 -->
<g id="edge91" class="edge">
<title>Node51&#45;&gt;Node54</title>
<path fill="none" stroke="midnightblue" d="M1669.75,-464.05C1806.79,-454.51 2155.98,-430.22 2311.85,-419.37"/>
<polygon fill="midnightblue" stroke="midnightblue" points="2312.54,-422.83 2322.28,-418.64 2312.06,-415.85 2312.54,-422.83"/>
</g>
<!-- Node62 -->
<g id="node39" class="node">
<title>Node62</title>
<g id="a_node39"><a xlink:href="Twine_8h.html" target="_top" xlink:title=" ">
<polygon fill="none" stroke="red" points="2455.5,-342 2455.5,-361 2556.5,-361 2556.5,-342 2455.5,-342"/>
<text text-anchor="middle" x="2506" y="-349" font-family="Helvetica,sans-Serif" font-size="10.00">llvm/ADT/Twine.h</text>
</a>
</g>
</g>
<!-- Node51&#45;&gt;Node62 -->
<g id="edge107" class="edge">
<title>Node51&#45;&gt;Node62</title>
<path fill="none" stroke="midnightblue" d="M1669.59,-466.49C1854.51,-461.35 2431.07,-443.73 2465,-423 2483.83,-411.5 2494.93,-387.87 2500.73,-371.14"/>
<polygon fill="midnightblue" stroke="midnightblue" points="2504.15,-371.93 2503.81,-361.35 2497.47,-369.84 2504.15,-371.93"/>
</g>
<!-- Node63 -->
<g id="node40" class="node">
<title>Node63</title>
<g id="a_node40"><a xlink:href="AlignOf_8h.html" target="_top" xlink:title=" ">
<polygon fill="none" stroke="black" points="184,-280.5 184,-299.5 310,-299.5 310,-280.5 184,-280.5"/>
<text text-anchor="middle" x="247" y="-287.5" font-family="Helvetica,sans-Serif" font-size="10.00">llvm/Support/AlignOf.h</text>
</a>
</g>
</g>
<!-- Node51&#45;&gt;Node63 -->
<g id="edge109" class="edge">
<title>Node51&#45;&gt;Node63</title>
<path fill="none" stroke="midnightblue" d="M1556.33,-468.45C1418.66,-468.81 1055.94,-465.28 757,-423 718.14,-417.5 709.72,-409.4 671,-403 591.24,-389.82 380.22,-405.25 309,-367 284.7,-353.95 266.32,-326.98 256.11,-308.94"/>
<polygon fill="midnightblue" stroke="midnightblue" points="259.11,-307.12 251.29,-299.97 252.94,-310.44 259.11,-307.12"/>
</g>
<!-- Node64 -->
<g id="node41" class="node">
<title>Node64</title>
<g id="a_node41"><a xlink:href="Debug_8h.html" target="_top" xlink:title=" ">
<polygon fill="none" stroke="black" points="1672,-403.5 1672,-422.5 1794,-422.5 1794,-403.5 1672,-403.5"/>
<text text-anchor="middle" x="1733" y="-410.5" font-family="Helvetica,sans-Serif" font-size="10.00">llvm/Support/Debug.h</text>
</a>
</g>
</g>
<!-- Node51&#45;&gt;Node64 -->
<g id="edge112" class="edge">
<title>Node51&#45;&gt;Node64</title>
<path fill="none" stroke="midnightblue" d="M1632.01,-459.44C1651.59,-450.64 1682.31,-436.81 1704.73,-426.72"/>
<polygon fill="midnightblue" stroke="midnightblue" points="1706.39,-429.81 1714.07,-422.52 1703.52,-423.43 1706.39,-429.81"/>
</g>
<!-- Node65 -->
<g id="node42" class="node">
<title>Node65</title>
<g id="a_node42"><a xlink:href="ErrorOr_8h.html" target="_top" xlink:title="Provides ErrorOr&lt;T&gt; smart pointer.">
<polygon fill="none" stroke="black" points="351.5,-342 351.5,-361 476.5,-361 476.5,-342 351.5,-342"/>
<text text-anchor="middle" x="414" y="-349" font-family="Helvetica,sans-Serif" font-size="10.00">llvm/Support/ErrorOr.h</text>
</a>
</g>
</g>
<!-- Node51&#45;&gt;Node65 -->
<g id="edge114" class="edge">
<title>Node51&#45;&gt;Node65</title>
<path fill="none" stroke="midnightblue" d="M1556.36,-467.2C1401.02,-464.61 970.72,-454.7 833,-423 810.48,-417.82 807.34,-408.9 785,-403 657.73,-369.37 621.08,-387.19 491,-367 483.07,-365.77 474.7,-364.33 466.52,-362.86"/>
<polygon fill="midnightblue" stroke="midnightblue" points="467.15,-359.41 456.68,-361.04 465.88,-366.3 467.15,-359.41"/>
</g>
<!-- Node66 -->
<g id="node43" class="node">
<title>Node66</title>
<g id="a_node43"><a xlink:title=" ">
<polygon fill="none" stroke="#bfbfbf" points="670.5,-280.5 670.5,-299.5 751.5,-299.5 751.5,-280.5 670.5,-280.5"/>
<text text-anchor="middle" x="711" y="-287.5" font-family="Helvetica,sans-Serif" font-size="10.00">system_error</text>
</a>
</g>
</g>
<!-- Node51&#45;&gt;Node66 -->
<g id="edge142" class="edge">
<title>Node51&#45;&gt;Node66</title>
<path fill="none" stroke="midnightblue" d="M1556.48,-464.97C1396.17,-455.73 941.35,-424.99 805,-367 788.05,-359.79 750.13,-326.72 727.99,-306.66"/>
<polygon fill="midnightblue" stroke="midnightblue" points="730.09,-303.84 720.34,-299.68 725.37,-309.01 730.09,-303.84"/>
</g>
<!-- Node67 -->
<g id="node44" class="node">
<title>Node67</title>
<g id="a_node44"><a xlink:href="Format_8h.html" target="_top" xlink:title=" ">
<polygon fill="none" stroke="red" points="1352.5,-403.5 1352.5,-422.5 1477.5,-422.5 1477.5,-403.5 1352.5,-403.5"/>
<text text-anchor="middle" x="1415" y="-410.5" font-family="Helvetica,sans-Serif" font-size="10.00">llvm/Support/Format.h</text>
</a>
</g>
</g>
<!-- Node51&#45;&gt;Node67 -->
<g id="edge120" class="edge">
<title>Node51&#45;&gt;Node67</title>
<path fill="none" stroke="midnightblue" d="M1581.63,-459.44C1547.74,-450.2 1493.6,-435.44 1456.28,-425.26"/>
<polygon fill="midnightblue" stroke="midnightblue" points="1456.8,-421.77 1446.23,-422.52 1454.95,-428.52 1456.8,-421.77"/>
</g>
<!-- Node69 -->
<g id="node45" class="node">
<title>Node69</title>
<g id="a_node45"><a xlink:href="raw__ostream_8h.html" target="_top" xlink:title=" ">
<polygon fill="none" stroke="red" points="1204.5,-342 1204.5,-361 1359.5,-361 1359.5,-342 1204.5,-342"/>
<text text-anchor="middle" x="1282" y="-349" font-family="Helvetica,sans-Serif" font-size="10.00">llvm/Support/raw_ostream.h</text>
</a>
</g>
</g>
<!-- Node51&#45;&gt;Node69 -->
<g id="edge125" class="edge">
<title>Node51&#45;&gt;Node69</title>
<path fill="none" stroke="midnightblue" d="M1556.41,-466.21C1479.46,-462.7 1347.15,-452.44 1310,-423 1294.07,-410.37 1287.17,-387.34 1284.2,-371.04"/>
<polygon fill="midnightblue" stroke="midnightblue" points="1287.65,-370.42 1282.71,-361.04 1280.72,-371.45 1287.65,-370.42"/>
</g>
<!-- Node54&#45;&gt;Node4 -->
<g id="edge106" class="edge">
<title>Node54&#45;&gt;Node4</title>
<path fill="none" stroke="midnightblue" d="M2439.34,-403.5C2598.25,-374.75 3069.78,-273.87 2914,-112 2873.35,-69.76 1958.74,-67.1 1772.81,-66.99"/>
<polygon fill="midnightblue" stroke="midnightblue" points="1772.58,-63.49 1762.57,-66.99 1772.57,-70.49 1772.58,-63.49"/>
</g>
<!-- Node54&#45;&gt;Node9 -->
<g id="edge105" class="edge">
<title>Node54&#45;&gt;Node9</title>
<path fill="none" stroke="midnightblue" d="M2455.69,-411.09C2624.49,-406.72 3079.87,-381.98 3427,-244 3503.33,-213.66 3549.4,-210.37 3574,-132 3578.88,-116.45 3574.65,-98.15 3569.92,-84.93"/>
<polygon fill="midnightblue" stroke="midnightblue" points="3573.14,-83.56 3566.18,-75.57 3566.64,-86.16 3573.14,-83.56"/>
</g>
<!-- Node54&#45;&gt;Node11 -->
<g id="edge102" class="edge">
<title>Node54&#45;&gt;Node11</title>
<path fill="none" stroke="midnightblue" d="M2455.72,-410.17C2575.86,-406.22 2823.66,-394.88 2905,-367 2929.02,-358.77 2929.72,-346.14 2953,-336 3012.69,-310 3047.52,-344.55 3095,-300 3123.74,-273.03 3131.36,-224.81 3133.34,-198.11"/>
<polygon fill="midnightblue" stroke="midnightblue" points="3136.85,-197.98 3133.9,-187.81 3129.86,-197.6 3136.85,-197.98"/>
</g>
<!-- Node54&#45;&gt;Node15 -->
<g id="edge99" class="edge">
<title>Node54&#45;&gt;Node15</title>
<path fill="none" stroke="midnightblue" d="M2322.42,-411.16C2104.75,-408.17 1415.51,-396.53 1195,-367 1064.74,-349.56 1014.41,-375.72 907,-300 857.1,-264.83 856.33,-227.72 869,-168 871,-158.59 875.1,-148.76 879.07,-140.7"/>
<polygon fill="midnightblue" stroke="midnightblue" points="882.31,-142.07 883.87,-131.59 876.11,-138.81 882.31,-142.07"/>
</g>
<!-- Node54&#45;&gt;Node16 -->
<g id="edge100" class="edge">
<title>Node54&#45;&gt;Node16</title>
<path fill="none" stroke="midnightblue" d="M2326.58,-403.49C2269.27,-395.33 2182.1,-382.06 2107,-367 2049.61,-355.49 2036.46,-347.16 1979,-336 1870.96,-315.03 1841.63,-322.97 1734,-300 1701.94,-293.16 1695.17,-286.31 1663,-280 1523.86,-252.69 1485.88,-267.23 1346,-244 1344.71,-243.79 1343.39,-243.56 1342.07,-243.32"/>
<polygon fill="midnightblue" stroke="midnightblue" points="1342.32,-239.8 1331.83,-241.3 1340.97,-246.67 1342.32,-239.8"/>
</g>
<!-- Node54&#45;&gt;Node17 -->
<g id="edge103" class="edge">
<title>Node54&#45;&gt;Node17</title>
<path fill="none" stroke="midnightblue" d="M2392.26,-403.14C2401.94,-377.03 2430.91,-300.94 2447,-280 2466.45,-254.68 2510.44,-250.07 2492,-224 2434.08,-142.11 2304.01,-126.17 2241.23,-123.37"/>
<polygon fill="midnightblue" stroke="midnightblue" points="2241.15,-119.86 2231.04,-123.01 2240.9,-126.86 2241.15,-119.86"/>
</g>
<!-- Node54&#45;&gt;Node20 -->
<g id="edge104" class="edge">
<title>Node54&#45;&gt;Node20</title>
<path fill="none" stroke="midnightblue" d="M2389.24,-403.46C2390,-376.43 2392.38,-292.24 2393.46,-254.11"/>
<polygon fill="midnightblue" stroke="midnightblue" points="2396.97,-253.96 2393.75,-243.87 2389.97,-253.77 2396.97,-253.96"/>
</g>
<!-- Node54&#45;&gt;Node25 -->
<g id="edge92" class="edge">
<title>Node54&#45;&gt;Node25</title>
<path fill="none" stroke="midnightblue" d="M2358.2,-403.48C2320.44,-393.03 2256.34,-375.29 2214.59,-363.73"/>
<polygon fill="midnightblue" stroke="midnightblue" points="2215.32,-360.3 2204.75,-361.01 2213.45,-367.05 2215.32,-360.3"/>
</g>
<!-- Node54&#45;&gt;Node33 -->
<g id="edge101" class="edge">
<title>Node54&#45;&gt;Node33</title>
<path fill="none" stroke="midnightblue" d="M2322.44,-405.99C2241.2,-398.35 2099.71,-384.09 1979,-367 1755.23,-335.32 1700.69,-318.51 1478,-280 1388.21,-264.47 1362.76,-264.09 1269.99,-244.07"/>
<polygon fill="midnightblue" stroke="midnightblue" points="1270.71,-240.64 1260.19,-241.93 1269.22,-247.48 1270.71,-240.64"/>
</g>
<!-- Node54&#45;&gt;Node62 -->
<g id="edge93" class="edge">
<title>Node54&#45;&gt;Node62</title>
<path fill="none" stroke="midnightblue" d="M2405.76,-403.48C2425.22,-393.58 2457.55,-377.14 2480.21,-365.62"/>
<polygon fill="midnightblue" stroke="midnightblue" points="2481.94,-368.66 2489.27,-361.01 2478.77,-362.42 2481.94,-368.66"/>
</g>
<!-- Node62&#45;&gt;Node2 -->
<g id="edge94" class="edge">
<title>Node62&#45;&gt;Node2</title>
<path fill="none" stroke="midnightblue" d="M2508.15,-341.98C2510.29,-333.49 2513.64,-320.2 2516.38,-309.32"/>
<polygon fill="midnightblue" stroke="midnightblue" points="2519.8,-310.06 2518.85,-299.51 2513.02,-308.35 2519.8,-310.06"/>
</g>
<!-- Node62&#45;&gt;Node8 -->
<g id="edge95" class="edge">
<title>Node62&#45;&gt;Node8</title>
<path fill="none" stroke="midnightblue" d="M2556.72,-348.6C2659.05,-344.21 2897.33,-331.29 3095,-300 3133.76,-293.86 3142.64,-288.25 3181,-280 3261.61,-262.66 3293.2,-287.89 3363,-244 3389.34,-227.44 3395.16,-217.51 3405,-188 3410.05,-172.86 3407.44,-154.74 3404.06,-141.48"/>
<polygon fill="midnightblue" stroke="midnightblue" points="3407.35,-140.28 3401.19,-131.66 3400.64,-142.24 3407.35,-140.28"/>
</g>
<!-- Node62&#45;&gt;Node9 -->
<g id="edge98" class="edge">
<title>Node62&#45;&gt;Node9</title>
<path fill="none" stroke="midnightblue" d="M2556.56,-349.19C2665.84,-345.79 2931.93,-334.39 3152,-300 3258.94,-283.29 3289.74,-287.14 3389,-244 3471.3,-208.23 3511.65,-209.44 3557,-132 3565.13,-118.11 3565.77,-99.6 3564.74,-85.88"/>
<polygon fill="midnightblue" stroke="midnightblue" points="3568.19,-85.25 3563.6,-75.7 3561.23,-86.02 3568.19,-85.25"/>
</g>
<!-- Node62&#45;&gt;Node15 -->
<g id="edge96" class="edge">
<title>Node62&#45;&gt;Node15</title>
<path fill="none" stroke="midnightblue" d="M2455.41,-347.63C2312.21,-339.36 1910.68,-315.11 1853,-300 1832.61,-294.66 1830.35,-285.49 1810,-280 1640.65,-234.34 1585.92,-291.22 1417,-244 1397.47,-238.54 1394.89,-231.36 1376,-224 1294.77,-192.34 1273.24,-186.3 1188,-168 1073.71,-143.46 1039.45,-156.08 925.15,-132.97"/>
<polygon fill="midnightblue" stroke="midnightblue" points="925.82,-129.53 915.32,-130.93 924.4,-136.38 925.82,-129.53"/>
</g>
<!-- Node62&#45;&gt;Node33 -->
<g id="edge97" class="edge">
<title>Node62&#45;&gt;Node33</title>
<path fill="none" stroke="midnightblue" d="M2455.14,-347.69C2341.25,-341.18 2057.05,-323.81 1820,-300 1750.01,-292.97 1732.92,-287.65 1663,-280 1491.44,-261.24 1443.91,-274.11 1270.14,-243.92"/>
<polygon fill="midnightblue" stroke="midnightblue" points="1270.6,-240.45 1260.15,-242.16 1269.39,-247.34 1270.6,-240.45"/>
</g>
<!-- Node63&#45;&gt;Node13 -->
<g id="edge110" class="edge">
<title>Node63&#45;&gt;Node13</title>
<path fill="none" stroke="midnightblue" d="M249.31,-280.18C256.73,-253.06 281.92,-169.24 324,-112 332.51,-100.43 344.5,-89.79 354.83,-81.77"/>
<polygon fill="midnightblue" stroke="midnightblue" points="357.07,-84.47 363,-75.68 352.89,-78.85 357.07,-84.47"/>
</g>
<!-- Node65&#45;&gt;Node4 -->
<g id="edge119" class="edge">
<title>Node65&#45;&gt;Node4</title>
<path fill="none" stroke="midnightblue" d="M418.02,-341.7C429.21,-318.29 463.1,-254.26 512,-224 641.91,-143.6 686.99,-140.98 837,-112 1008.79,-78.81 1566.21,-69.3 1707.31,-67.4"/>
<polygon fill="midnightblue" stroke="midnightblue" points="1707.52,-70.89 1717.48,-67.26 1707.43,-63.9 1707.52,-70.89"/>
</g>
<!-- Node65&#45;&gt;Node13 -->
<g id="edge118" class="edge">
<title>Node65&#45;&gt;Node13</title>
<path fill="none" stroke="midnightblue" d="M403.11,-341.92C382.1,-324.32 338,-281.81 338,-235 338,-235 338,-235 338,-177 338,-142.81 354.6,-105.76 365.86,-84.57"/>
<polygon fill="midnightblue" stroke="midnightblue" points="368.95,-86.22 370.72,-75.77 362.82,-82.83 368.95,-86.22"/>
</g>
<!-- Node65&#45;&gt;Node15 -->
<g id="edge116" class="edge">
<title>Node65&#45;&gt;Node15</title>
<path fill="none" stroke="midnightblue" d="M420.6,-341.98C444.54,-311.79 530.53,-209.54 628,-168 703.58,-135.79 800.81,-126.62 852.65,-124.02"/>
<polygon fill="midnightblue" stroke="midnightblue" points="852.86,-127.51 862.69,-123.57 852.55,-120.52 852.86,-127.51"/>
</g>
<!-- Node65&#45;&gt;Node63 -->
<g id="edge115" class="edge">
<title>Node65&#45;&gt;Node63</title>
<path fill="none" stroke="midnightblue" d="M390.07,-341.98C361.3,-331.72 312.84,-314.46 280.4,-302.9"/>
<polygon fill="midnightblue" stroke="midnightblue" points="281.48,-299.57 270.88,-299.51 279.13,-306.16 281.48,-299.57"/>
</g>
<!-- Node65&#45;&gt;Node66 -->
<g id="edge117" class="edge">
<title>Node65&#45;&gt;Node66</title>
<path fill="none" stroke="midnightblue" d="M456.55,-341.98C510.42,-331.18 603.1,-312.62 660.49,-301.12"/>
<polygon fill="midnightblue" stroke="midnightblue" points="661.32,-304.52 670.43,-299.13 659.94,-297.66 661.32,-304.52"/>
</g>
<!-- Node67&#45;&gt;Node4 -->
<g id="edge124" class="edge">
<title>Node67&#45;&gt;Node4</title>
<path fill="none" stroke="midnightblue" d="M1352.35,-407.83C1294.47,-402.52 1214.57,-390.97 1195,-367 1186.29,-356.33 1188.21,-347.99 1195,-336 1210.32,-308.94 1239.68,-327.06 1255,-300 1259.38,-292.26 1260.82,-286.72 1255,-280 1179.83,-193.33 930.82,-313.18 1003,-224 1093.86,-111.74 1576.22,-76.34 1707.17,-68.72"/>
<polygon fill="midnightblue" stroke="midnightblue" points="1707.58,-72.2 1717.37,-68.14 1707.18,-65.22 1707.58,-72.2"/>
</g>
<!-- Node67&#45;&gt;Node15 -->
<g id="edge123" class="edge">
<title>Node67&#45;&gt;Node15</title>
<path fill="none" stroke="midnightblue" d="M1352.34,-412.06C1237.35,-409.76 987.6,-393.38 804,-300 746.23,-270.62 703.46,-220.11 742,-168 742.43,-167.42 809.79,-146.96 853.16,-133.83"/>
<polygon fill="midnightblue" stroke="midnightblue" points="854.26,-137.15 862.82,-130.91 852.24,-130.45 854.26,-137.15"/>
</g>
<!-- Node67&#45;&gt;Node25 -->
<g id="edge121" class="edge">
<title>Node67&#45;&gt;Node25</title>
<path fill="none" stroke="midnightblue" d="M1477.76,-407.08C1618.75,-396.03 1959.65,-369.3 2105.71,-357.85"/>
<polygon fill="midnightblue" stroke="midnightblue" points="2106.19,-361.33 2115.89,-357.06 2105.65,-354.35 2106.19,-361.33"/>
</g>
<!-- Node67&#45;&gt;Node37 -->
<g id="edge122" class="edge">
<title>Node67&#45;&gt;Node37</title>
<path fill="none" stroke="midnightblue" d="M1450.72,-403.49C1540.79,-382.04 1777.08,-325.76 1877.16,-301.92"/>
<polygon fill="midnightblue" stroke="midnightblue" points="1878.06,-305.3 1886.98,-299.58 1876.44,-298.49 1878.06,-305.3"/>
</g>
<!-- Node69&#45;&gt;Node2 -->
<g id="edge126" class="edge">
<title>Node69&#45;&gt;Node2</title>
<path fill="none" stroke="midnightblue" d="M1359.5,-346.78C1582.58,-336.07 2224.3,-305.25 2445.21,-294.64"/>
<polygon fill="midnightblue" stroke="midnightblue" points="2445.59,-298.13 2455.41,-294.15 2445.25,-291.13 2445.59,-298.13"/>
</g>
<!-- Node69&#45;&gt;Node9 -->
<g id="edge131" class="edge">
<title>Node69&#45;&gt;Node9</title>
<path fill="none" stroke="midnightblue" d="M1359.58,-348.02C1725.94,-336.09 3269.08,-283.7 3363,-244 3447.81,-208.15 3521.08,-120.98 3549.45,-84.02"/>
<polygon fill="midnightblue" stroke="midnightblue" points="3552.45,-85.86 3555.68,-75.77 3546.86,-81.64 3552.45,-85.86"/>
</g>
<!-- Node69&#45;&gt;Node13 -->
<g id="edge133" class="edge">
<title>Node69&#45;&gt;Node13</title>
<path fill="none" stroke="midnightblue" d="M1218.63,-341.99C1144.07,-331.98 1016.53,-314.83 907,-300 841.66,-291.16 825.43,-288.11 760,-280 688.55,-271.15 494.32,-288.86 438,-244 388.59,-204.65 378.46,-123.29 376.45,-86.19"/>
<polygon fill="midnightblue" stroke="midnightblue" points="379.94,-85.67 376.05,-75.81 372.94,-85.94 379.94,-85.67"/>
</g>
<!-- Node69&#45;&gt;Node15 -->
<g id="edge127" class="edge">
<title>Node69&#45;&gt;Node15</title>
<path fill="none" stroke="midnightblue" d="M1228.01,-341.93C1215.53,-339.96 1202.31,-337.9 1190,-336 1083.83,-319.64 1049.43,-343.03 951,-300 914.49,-284.04 900.15,-278.94 881,-244 863.11,-211.35 873.75,-166.08 882.04,-141.19"/>
<polygon fill="midnightblue" stroke="midnightblue" points="885.41,-142.19 885.47,-131.59 878.81,-139.83 885.41,-142.19"/>
</g>
<!-- Node69&#45;&gt;Node16 -->
<g id="edge128" class="edge">
<title>Node69&#45;&gt;Node16</title>
<path fill="none" stroke="midnightblue" d="M1309.01,-341.87C1328.12,-334.18 1352.34,-320.87 1364,-300 1375.26,-279.83 1352.51,-260.76 1332.07,-248.56"/>
<polygon fill="midnightblue" stroke="midnightblue" points="1333.7,-245.46 1323.26,-243.61 1330.27,-251.56 1333.7,-245.46"/>
</g>
<!-- Node69&#45;&gt;Node17 -->
<g id="edge130" class="edge">
<title>Node69&#45;&gt;Node17</title>
<path fill="none" stroke="midnightblue" d="M1285.95,-341.83C1291.78,-327.6 1300.7,-299 1288,-280 1264.75,-245.21 1224.25,-278.79 1201,-244 1196.06,-236.61 1195.03,-230.59 1201,-224 1228.21,-193.96 1523.67,-192.04 1564,-188 1795.54,-164.8 2074,-136.46 2170.81,-126.59"/>
<polygon fill="midnightblue" stroke="midnightblue" points="2171.32,-130.05 2180.92,-125.56 2170.61,-123.09 2171.32,-130.05"/>
</g>
<!-- Node69&#45;&gt;Node33 -->
<g id="edge129" class="edge">
<title>Node69&#45;&gt;Node33</title>
<path fill="none" stroke="midnightblue" d="M1294.38,-341.82C1311.77,-328.53 1339.85,-302.31 1326,-280 1319.33,-269.26 1291.54,-256.42 1268.41,-247.21"/>
<polygon fill="midnightblue" stroke="midnightblue" points="1269.45,-243.86 1258.86,-243.5 1266.91,-250.38 1269.45,-243.86"/>
</g>
<!-- Node69&#45;&gt;Node66 -->
<g id="edge132" class="edge">
<title>Node69&#45;&gt;Node66</title>
<path fill="none" stroke="midnightblue" d="M1204.4,-342.41C1085.57,-330.03 861.78,-306.71 761.66,-296.28"/>
<polygon fill="midnightblue" stroke="midnightblue" points="761.81,-292.78 751.51,-295.22 761.09,-299.74 761.81,-292.78"/>
</g>
<!-- Node71&#45;&gt;Node25 -->
<g id="edge147" class="edge">
<title>Node71&#45;&gt;Node25</title>
<path fill="none" stroke="midnightblue" d="M1508.66,-661.26C1667.32,-654.78 2041.16,-630.68 2129,-546 2177.61,-499.14 2178.19,-410.81 2175.77,-371.82"/>
<polygon fill="midnightblue" stroke="midnightblue" points="2179.23,-371.11 2174.98,-361.41 2172.25,-371.65 2179.23,-371.11"/>
</g>
<!-- Node71&#45;&gt;Node44 -->
<g id="edge148" class="edge">
<title>Node71&#45;&gt;Node44</title>
<path fill="none" stroke="midnightblue" d="M1365.32,-663.6C1157.48,-663.34 564.65,-658.57 491,-613 461.89,-594.99 466.96,-577.26 453,-546 425.67,-484.78 455.93,-446.6 405,-403 404.48,-402.56 278.22,-381.12 190.79,-366.33"/>
<polygon fill="midnightblue" stroke="midnightblue" points="191.31,-362.86 180.86,-364.65 190.14,-369.77 191.31,-362.86"/>
</g>
<!-- Node71&#45;&gt;Node45 -->
<g id="edge166" class="edge">
<title>Node71&#45;&gt;Node45</title>
<path fill="none" stroke="midnightblue" d="M1365.44,-660.96C1208.73,-654.98 839.42,-638.61 717,-613 630.18,-594.84 599.54,-599.78 529,-546 467.33,-498.98 494.25,-444.92 429,-403 354.49,-355.12 314.66,-401.3 233,-367 210.95,-357.73 209.59,-348.18 189,-336 168.64,-323.95 144.58,-312.27 126.18,-303.83"/>
<polygon fill="midnightblue" stroke="midnightblue" points="127.41,-300.54 116.86,-299.61 124.52,-306.92 127.41,-300.54"/>
</g>
<!-- Node71&#45;&gt;Node46 -->
<g id="edge164" class="edge">
<title>Node71&#45;&gt;Node46</title>
<path fill="none" stroke="midnightblue" d="M1365.48,-659.45C1166.17,-647.22 619,-606.8 619,-531.5 619,-531.5 619,-531.5 619,-468 619,-440.67 1009.07,-336.56 1140.99,-302.13"/>
<polygon fill="midnightblue" stroke="midnightblue" points="1141.97,-305.49 1150.77,-299.58 1140.21,-298.72 1141.97,-305.49"/>
</g>
<!-- Node71&#45;&gt;Node50 -->
<g id="edge149" class="edge">
<title>Node71&#45;&gt;Node50</title>
<path fill="none" stroke="midnightblue" d="M1494.39,-649.48C1535.76,-639.37 1591.76,-625.68 1635.31,-615.04"/>
<polygon fill="midnightblue" stroke="midnightblue" points="1636.37,-618.38 1645.25,-612.61 1634.71,-611.58 1636.37,-618.38"/>
</g>
<!-- Node71&#45;&gt;Node51 -->
<g id="edge165" class="edge">
<title>Node71&#45;&gt;Node51</title>
<path fill="none" stroke="midnightblue" d="M1437.1,-649.34C1437.87,-632.08 1441.3,-602.65 1455,-582 1486.91,-533.9 1547.07,-499.95 1583.24,-482.8"/>
<polygon fill="midnightblue" stroke="midnightblue" points="1584.72,-485.97 1592.33,-478.6 1581.78,-479.62 1584.72,-485.97"/>
</g>
<!-- Node71&#45;&gt;Node72 -->
<g id="edge150" class="edge">
<title>Node71&#45;&gt;Node72</title>
<path fill="none" stroke="midnightblue" d="M1459.13,-649.4C1473.57,-640.2 1492.6,-628.07 1508.47,-617.95"/>
<polygon fill="midnightblue" stroke="midnightblue" points="1510.36,-620.9 1516.91,-612.58 1506.6,-615 1510.36,-620.9"/>
</g>
<!-- Node72&#45;&gt;Node12 -->
<g id="edge162" class="edge">
<title>Node72&#45;&gt;Node12</title>
<path fill="none" stroke="midnightblue" d="M1464.14,-594.85C1232.51,-588.75 543,-562.82 543,-470 543,-470 543,-470 543,-412 543,-344.52 557.73,-310.34 618,-280 623.16,-277.4 1378.37,-168.07 1379,-168 1571.65,-147 1799.02,-133.34 1918.01,-127.04"/>
<polygon fill="midnightblue" stroke="midnightblue" points="1918.33,-130.53 1928.13,-126.51 1917.96,-123.54 1918.33,-130.53"/>
</g>
<!-- Node72&#45;&gt;Node13 -->
<g id="edge163" class="edge">
<title>Node72&#45;&gt;Node13</title>
<path fill="none" stroke="midnightblue" d="M1464.25,-594.32C1156.05,-584.85 0,-544.35 0,-470 0,-470 0,-470 0,-177 0,-132.55 35.57,-130.46 76,-112 160.29,-73.52 270.42,-66.68 331.06,-66.16"/>
<polygon fill="midnightblue" stroke="midnightblue" points="331.44,-69.66 341.43,-66.13 331.42,-62.66 331.44,-69.66"/>
</g>
<!-- Node72&#45;&gt;Node25 -->
<g id="edge151" class="edge">
<title>Node72&#45;&gt;Node25</title>
<path fill="none" stroke="midnightblue" d="M1613.72,-582.87C1672.37,-571.79 1748.95,-556.34 1779,-546 1927.08,-495.04 2091.4,-401.55 2150.91,-366.37"/>
<polygon fill="midnightblue" stroke="midnightblue" points="2153.05,-369.17 2159.86,-361.06 2149.47,-363.16 2153.05,-369.17"/>
</g>
<!-- Node72&#45;&gt;Node37 -->
<g id="edge152" class="edge">
<title>Node72&#45;&gt;Node37</title>
<path fill="none" stroke="midnightblue" d="M1566.66,-582.35C1619.82,-554.68 1739.13,-490.18 1831,-423 1861.24,-400.89 1872.71,-397.83 1894,-367 1906.26,-349.25 1914.21,-325.62 1918.63,-309.45"/>
<polygon fill="midnightblue" stroke="midnightblue" points="1922.06,-310.17 1921.14,-299.61 1915.28,-308.44 1922.06,-310.17"/>
</g>
<!-- Node72&#45;&gt;Node46 -->
<g id="edge160" class="edge">
<title>Node72&#45;&gt;Node46</title>
<path fill="none" stroke="midnightblue" d="M1474.1,-582.41C1377.76,-557.62 1200.12,-496.07 1124,-367 1117,-355.13 1117.84,-348.32 1124,-336 1130.73,-322.54 1143.61,-312.07 1155.71,-304.62"/>
<polygon fill="midnightblue" stroke="midnightblue" points="1157.73,-307.5 1164.7,-299.52 1154.28,-301.41 1157.73,-307.5"/>
</g>
<!-- Node72&#45;&gt;Node51 -->
<g id="edge161" class="edge">
<title>Node72&#45;&gt;Node51</title>
<path fill="none" stroke="midnightblue" d="M1547.2,-582.48C1560.76,-559.31 1587.8,-513.07 1602.65,-487.69"/>
<polygon fill="midnightblue" stroke="midnightblue" points="1605.83,-489.19 1607.86,-478.79 1599.79,-485.65 1605.83,-489.19"/>
</g>
<!-- Node72&#45;&gt;Node75 -->
<g id="edge153" class="edge">
<title>Node72&#45;&gt;Node75</title>
<path fill="none" stroke="midnightblue" d="M1613.63,-583.27C1616.45,-582.83 1619.25,-582.4 1622,-582 1685.2,-572.71 1855.72,-552.96 1959.94,-541.1"/>
<polygon fill="midnightblue" stroke="midnightblue" points="1960.59,-544.55 1970.13,-539.94 1959.8,-537.6 1960.59,-544.55"/>
</g>
<!-- Node75&#45;&gt;Node14 -->
<g id="edge157" class="edge">
<title>Node75&#45;&gt;Node14</title>
<path fill="none" stroke="midnightblue" d="M2119.77,-527.61C2402.58,-519.46 3391,-481.76 3391,-352.5 3391,-352.5 3391,-352.5 3391,-289 3391,-212 3339.24,-194.67 3267,-168 3203.23,-144.46 3003.4,-130.46 2915.37,-125.29"/>
<polygon fill="midnightblue" stroke="midnightblue" points="2915.38,-121.78 2905.2,-124.7 2914.98,-128.77 2915.38,-121.78"/>
</g>
<!-- Node75&#45;&gt;Node22 -->
<g id="edge159" class="edge">
<title>Node75&#45;&gt;Node22</title>
<path fill="none" stroke="midnightblue" d="M2119.78,-528.5C2282.86,-524.75 2663.23,-507 2755,-423 2820.5,-363.05 2819.11,-243.98 2815.82,-197.86"/>
<polygon fill="midnightblue" stroke="midnightblue" points="2819.3,-197.46 2814.98,-187.79 2812.32,-198.04 2819.3,-197.46"/>
</g>
<!-- Node75&#45;&gt;Node25 -->
<g id="edge154" class="edge">
<title>Node75&#45;&gt;Node25</title>
<path fill="none" stroke="midnightblue" d="M2055.34,-515.31C2078.83,-483.08 2136.14,-404.45 2161.54,-369.6"/>
<polygon fill="midnightblue" stroke="midnightblue" points="2164.47,-371.52 2167.53,-361.37 2158.81,-367.39 2164.47,-371.52"/>
</g>
<!-- Node75&#45;&gt;Node38 -->
<g id="edge155" class="edge">
<title>Node75&#45;&gt;Node38</title>
<path fill="none" stroke="midnightblue" d="M2046.01,-515.28C2047.47,-493.5 2050,-450.53 2050,-414 2050,-414 2050,-414 2050,-350.5 2050,-313 2027.53,-273.88 2012.72,-252.16"/>
<polygon fill="midnightblue" stroke="midnightblue" points="2015.38,-249.86 2006.74,-243.72 2009.67,-253.9 2015.38,-249.86"/>
</g>
<!-- Node75&#45;&gt;Node33 -->
<g id="edge158" class="edge">
<title>Node75&#45;&gt;Node33</title>
<path fill="none" stroke="midnightblue" d="M2030.28,-515.47C2002.18,-489.44 1937.98,-433.56 1874,-403 1709.91,-324.61 1647.58,-365.67 1478,-300 1460.2,-293.11 1457.95,-286.47 1440,-280 1369.93,-254.74 1346.49,-261.32 1270.29,-244.16"/>
<polygon fill="midnightblue" stroke="midnightblue" points="1270.75,-240.68 1260.21,-241.83 1269.17,-247.5 1270.75,-240.68"/>
</g>
<!-- Node75&#45;&gt;Node51 -->
<g id="edge156" class="edge">
<title>Node75&#45;&gt;Node51</title>
<path fill="none" stroke="midnightblue" d="M1970.24,-519.2C1888.43,-507.94 1758.47,-490.04 1679.9,-479.21"/>
<polygon fill="midnightblue" stroke="midnightblue" points="1680.03,-475.7 1669.64,-477.8 1679.07,-482.63 1680.03,-475.7"/>
</g>
<!-- Node80&#45;&gt;Node15 -->
<g id="edge180" class="edge">
<title>Node80&#45;&gt;Node15</title>
<path fill="none" stroke="midnightblue" d="M632.27,-336.49C622.75,-322.29 611.32,-299.67 618,-280 638.18,-220.57 651.41,-202.25 704,-168 749.67,-138.26 813.25,-128.16 852.73,-124.74"/>
<polygon fill="midnightblue" stroke="midnightblue" points="853.24,-128.21 862.95,-123.96 852.71,-121.23 853.24,-128.21"/>
</g>
<!-- Node80&#45;&gt;Node18 -->
<g id="edge182" class="edge">
<title>Node80&#45;&gt;Node18</title>
<path fill="none" stroke="midnightblue" d="M633.76,-336.5C624.68,-320.81 614.04,-295.55 628,-280 652.7,-252.49 900.59,-240.31 1002.05,-236.45"/>
<polygon fill="midnightblue" stroke="midnightblue" points="1002.39,-239.94 1012.26,-236.07 1002.13,-232.94 1002.39,-239.94"/>
</g>
<!-- Node80&#45;&gt;Node45 -->
<g id="edge181" class="edge">
<title>Node80&#45;&gt;Node45</title>
<path fill="none" stroke="midnightblue" d="M571.23,-342.92C479.36,-333.18 315.3,-315.66 175,-300 163.06,-298.67 150.09,-297.18 138.21,-295.81"/>
<polygon fill="midnightblue" stroke="midnightblue" points="138.45,-292.32 128.12,-294.64 137.65,-299.27 138.45,-292.32"/>
</g>
<!-- Node80&#45;&gt;Node46 -->
<g id="edge179" class="edge">
<title>Node80&#45;&gt;Node46</title>
<path fill="none" stroke="midnightblue" d="M714.71,-343.22C804.85,-333.98 964.61,-317.28 1111.56,-300.15"/>
<polygon fill="midnightblue" stroke="midnightblue" points="1112.14,-303.61 1121.67,-298.97 1111.33,-296.65 1112.14,-303.61"/>
</g>
<!-- Node81 -->
<g id="node50" class="node">
<title>Node81</title>
<g id="a_node50"><a xlink:href="DenseMapInfo_8h.html" target="_top" xlink:title=" ">
<polygon fill="none" stroke="black" points="960,-280.5 960,-299.5 1104,-299.5 1104,-280.5 960,-280.5"/>
<text text-anchor="middle" x="1032" y="-287.5" font-family="Helvetica,sans-Serif" font-size="10.00">llvm/ADT/DenseMapInfo.h</text>
</a>
</g>
</g>
<!-- Node80&#45;&gt;Node81 -->
<g id="edge173" class="edge">
<title>Node80&#45;&gt;Node81</title>
<path fill="none" stroke="midnightblue" d="M714.8,-339.52C786.78,-328.51 896.65,-311.7 966.36,-301.04"/>
<polygon fill="midnightblue" stroke="midnightblue" points="966.99,-304.48 976.35,-299.51 965.94,-297.56 966.99,-304.48"/>
</g>
<!-- Node81&#45;&gt;Node4 -->
<g id="edge178" class="edge">
<title>Node81&#45;&gt;Node4</title>
<path fill="none" stroke="midnightblue" d="M959.72,-282.85C931.66,-276.9 901.42,-265.54 881,-244 839.8,-200.55 812.75,-155.4 854,-112 883.92,-80.52 1549.09,-69.58 1706.72,-67.42"/>
<polygon fill="midnightblue" stroke="midnightblue" points="1707.23,-70.92 1717.18,-67.28 1707.13,-63.92 1707.23,-70.92"/>
</g>
<!-- Node81&#45;&gt;Node15 -->
<g id="edge175" class="edge">
<title>Node81&#45;&gt;Node15</title>
<path fill="none" stroke="midnightblue" d="M959.84,-282.16C935.08,-276.01 909.68,-264.69 894,-244 871.44,-214.22 877.79,-167.48 883.78,-141.68"/>
<polygon fill="midnightblue" stroke="midnightblue" points="887.24,-142.27 886.33,-131.72 880.46,-140.54 887.24,-142.27"/>
</g>
<!-- Node81&#45;&gt;Node16 -->
<g id="edge176" class="edge">
<title>Node81&#45;&gt;Node16</title>
<path fill="none" stroke="midnightblue" d="M1081.65,-280.43C1127.56,-272.31 1197.9,-259.38 1268.36,-244.04"/>
<polygon fill="midnightblue" stroke="midnightblue" points="1269.29,-247.42 1278.3,-241.86 1267.79,-240.58 1269.29,-247.42"/>
</g>
<!-- Node81&#45;&gt;Node26 -->
<g id="edge174" class="edge">
<title>Node81&#45;&gt;Node26</title>
<path fill="none" stroke="midnightblue" d="M1048.71,-280.46C1078.44,-265.75 1142.83,-236.09 1201,-224 1391.53,-184.42 1990.42,-179.53 2192.02,-179.02"/>
<polygon fill="midnightblue" stroke="midnightblue" points="2192.18,-182.52 2202.17,-179 2192.16,-175.52 2192.18,-182.52"/>
</g>
<!-- Node81&#45;&gt;Node33 -->
<g id="edge177" class="edge">
<title>Node81&#45;&gt;Node33</title>
<path fill="none" stroke="midnightblue" d="M1064.17,-280.44C1101.21,-270.59 1161.87,-254.45 1200.05,-244.3"/>
<polygon fill="midnightblue" stroke="midnightblue" points="1200.95,-247.68 1209.72,-241.73 1199.16,-240.91 1200.95,-247.68"/>
</g>
</g>
</svg>
